<svg xmlns="http://www.w3.org/2000/svg" viewBox="0 0 277 344.65"><defs><style>.cls-1{fill:#fbb429;}.cls-2{fill:#f5a209;}.cls-3{font-size:41px;fill:#fff6e9;font-family:LarkeNeueThin-Thin, Larke Neue Thin;}</style></defs><title>Abaco</title><g id="Layer_2" data-name="Layer 2"><g id="Abaco_C" data-name="Abaco C"><path class="cls-1" d="M242.75,3.39V300.8c0,4.51-6.72,4.51-6.72,0V3.39c0-4.52,6.72-4.52,6.72,0Zm0,0"/><path class="cls-2" d="M238.13,304a3.18,3.18,0,0,1-2.1-3.16V3.39a3.2,3.2,0,0,1,2.1-3.17Zm0,0"/><path class="cls-1" d="M141.86,3.39V300.8c0,4.51-6.72,4.51-6.72,0V3.39c0-4.52,6.72-4.52,6.72,0Zm0,0"/><path class="cls-2" d="M137.24,304a3.18,3.18,0,0,1-2.1-3.16V3.39a3.2,3.2,0,0,1,2.1-3.17Zm0,0"/><path class="cls-1" d="M41,3.39V300.8c0,4.51-6.72,4.51-6.72,0V3.39c0-4.52,6.72-4.52,6.72,0Zm0,0"/><path class="cls-2" d="M36.34,304a3.18,3.18,0,0,1-2.09-3.16V3.39A3.21,3.21,0,0,1,36.34.22Zm0,0"/><path class="cls-1" d="M12.55,300.19h251.9c6.9,0,12.55,7.63,12.55,17v17H0v-17c0-9.34,5.65-17,12.55-17Zm0,0"/><rect class="cls-2" y="334.13" width="277" height="5.87"/><text class="cls-3" transform="translate(23.61 333.16)">C</text><text class="cls-3" transform="translate(124.46 333.16)">D</text><text class="cls-3" transform="translate(226.68 333.16)">U</text></g></g></svg>