<svg xmlns="http://www.w3.org/2000/svg" viewBox="0 0 40 17.85"><defs><style>.cls-1{fill:#ec4b53;}.cls-2{fill:#ff5b61;}</style></defs><title>Ficha_Abaco</title><g id="Layer_2" data-name="Layer 2"><g id="Fichas"><path class="cls-1" d="M0,8.93c0,4.91,9,8.92,20,8.92s20-4,20-8.92S31,0,20,0,0,4,0,8.93Zm0,0"/><path class="cls-2" d="M40,8.92a4.46,4.46,0,0,1,0,.63C37.66,12.72,31,15,23.1,15c-9.78,0-17.7-3.53-17.7-7.9,0-2.79,3.25-5.24,8.15-6.65A44.06,44.06,0,0,1,20,0C31,0,40,4,40,8.92Zm0,0"/></g></g></svg>