<svg id="Layer_1" data-name="Layer 1" xmlns="http://www.w3.org/2000/svg" viewBox="0 0 1489.43 800"><defs><style>.cls-1{fill:#704b00;}.cls-2{fill:#936703;}.cls-3{fill:#b27c04;}.cls-4{fill:#444;}.cls-5{fill:#fff;}.cls-6{fill:#222;}.cls-7{fill:red;}.cls-8{fill:#ffe600;}.cls-9{fill:#c0ecff;}</style></defs><title>04</title><path class="cls-1" d="M224.18,398.5H208.82a5.21,5.21,0,0,0-5.18,4.85L200,453h33l-3.64-49.65A5.21,5.21,0,0,0,224.18,398.5Z"/><path class="cls-1" d="M1328.48,398.5h-15.36a5.21,5.21,0,0,0-5.18,4.85L1304.3,453h33l-3.65-49.65A5.21,5.21,0,0,0,1328.48,398.5Z"/><rect class="cls-2" y="327" width="14" height="106"/><rect class="cls-2" x="1475.5" y="327" width="14" height="106"/><path class="cls-1" d="M776.33,398.5H761a5.21,5.21,0,0,0-5.18,4.85L752.15,453h33l-3.64-49.65A5.22,5.22,0,0,0,776.33,398.5Z"/><polygon class="cls-3" points="1470.88 453 18.62 453 0 433 1489.5 433 1470.88 453"/><polygon class="cls-2" points="1452.73 473 36.77 473 18.62 453 1470.88 453 1452.73 473"/><path class="cls-4" d="M37,407.93h70.73a9.32,9.32,0,0,1,9.32,9.32v0a10.3,10.3,0,0,1-10.3,10.3H38a10.3,10.3,0,0,1-10.3-10.3v0A9.32,9.32,0,0,1,37,407.93Z"/><path class="cls-4" d="M79.92,390.54,45.37,391a6.08,6.08,0,0,0-5.23,3.12L31,410.66l67.58-.55-12.38-16.5A7.66,7.66,0,0,0,79.92,390.54Z"/><path class="cls-5" d="M43.58,432a6.12,6.12,0,1,1,6.12-6.12A6.12,6.12,0,0,1,43.58,432Z"/><path class="cls-6" d="M43.58,420.77a5.12,5.12,0,1,1-5.11,5.11,5.11,5.11,0,0,1,5.11-5.11m0-2a7.12,7.12,0,1,0,7.12,7.11,7.11,7.11,0,0,0-7.12-7.11Z"/><circle class="cls-5" cx="101.16" cy="425.88" r="6.12"/><path class="cls-6" d="M101.16,420.77A5.12,5.12,0,1,1,96,425.88a5.11,5.11,0,0,1,5.12-5.11m0-2a7.12,7.12,0,1,0,7.11,7.11,7.11,7.11,0,0,0-7.11-7.11Z"/><path class="cls-7" d="M27.71,415.55v-2.94c2,0,3.67.95,3.67,2.94a3.69,3.69,0,0,1-3.65,3.67Z"/><path class="cls-8" d="M117.06,412.84c0,2-2,2-3.27.81l-3.54-3.54c-1-.95.22-2.18,2.18-2.18C115.42,407.93,117.06,410.88,117.06,412.84Z"/><path class="cls-9" d="M37.46,407.93H61.9a.65.65,0,0,0,.66-.66v-14.6H46.44a3.09,3.09,0,0,0-2.74,1.65L36.9,407A.64.64,0,0,0,37.46,407.93Z"/><path class="cls-9" d="M78.12,392.67H64.74v14.51a.75.75,0,0,0,.75.75H91a.47.47,0,0,0,.36-.77l-9.21-12.65A5.26,5.26,0,0,0,78.12,392.67Z"/><path class="cls-4" d="M133.06,407.93h70.73a9.32,9.32,0,0,1,9.32,9.32v0a10.3,10.3,0,0,1-10.3,10.3H134a10.3,10.3,0,0,1-10.3-10.3v0a9.32,9.32,0,0,1,9.32-9.32Z"/><path class="cls-4" d="M176,390.54l-34.56.45a6.08,6.08,0,0,0-5.22,3.12L127,410.66l67.58-.55-12.38-16.5A7.66,7.66,0,0,0,176,390.54Z"/><path class="cls-5" d="M139.63,432a6.12,6.12,0,1,1,6.12-6.12A6.12,6.12,0,0,1,139.63,432Z"/><path class="cls-6" d="M139.63,420.77a5.12,5.12,0,1,1-5.11,5.11,5.11,5.11,0,0,1,5.11-5.11m0-2a7.12,7.12,0,1,0,7.12,7.11,7.11,7.11,0,0,0-7.12-7.11Z"/><circle class="cls-5" cx="197.2" cy="425.88" r="6.12"/><path class="cls-6" d="M197.2,420.77a5.12,5.12,0,1,1-5.11,5.11,5.11,5.11,0,0,1,5.11-5.11m0-2a7.12,7.12,0,1,0,7.12,7.11,7.11,7.11,0,0,0-7.12-7.11Z"/><path class="cls-7" d="M123.76,415.55v-2.94c2,0,3.67.95,3.67,2.94a3.69,3.69,0,0,1-3.65,3.67Z"/><path class="cls-8" d="M213.11,412.84c0,2-2.05,2-3.27.81l-3.55-3.54c-.95-.95.23-2.18,2.18-2.18C211.47,407.93,213.11,410.88,213.11,412.84Z"/><path class="cls-9" d="M133.51,407.93H158a.66.66,0,0,0,.66-.66v-14.6H142.49a3.09,3.09,0,0,0-2.74,1.65L133,407A.64.64,0,0,0,133.51,407.93Z"/><path class="cls-9" d="M174.17,392.67H160.79v14.51a.75.75,0,0,0,.75.75H187a.47.47,0,0,0,.36-.77l-9.21-12.65A5.26,5.26,0,0,0,174.17,392.67Z"/><path class="cls-4" d="M229.1,407.93h70.73a9.32,9.32,0,0,1,9.32,9.32v0a10.3,10.3,0,0,1-10.3,10.3H230.08a10.3,10.3,0,0,1-10.3-10.3v0a9.32,9.32,0,0,1,9.32-9.32Z"/><path class="cls-4" d="M272,390.54l-34.56.45a6.08,6.08,0,0,0-5.22,3.12l-9.19,16.55,67.58-.55-12.38-16.5A7.68,7.68,0,0,0,272,390.54Z"/><path class="cls-5" d="M235.68,432a6.12,6.12,0,1,1,6.12-6.12A6.12,6.12,0,0,1,235.68,432Z"/><path class="cls-6" d="M235.68,420.77a5.12,5.12,0,1,1-5.11,5.11,5.12,5.12,0,0,1,5.11-5.11m0-2a7.12,7.12,0,1,0,7.12,7.11,7.11,7.11,0,0,0-7.12-7.11Z"/><circle class="cls-5" cx="293.25" cy="425.88" r="6.12"/><path class="cls-6" d="M293.25,420.77a5.12,5.12,0,1,1-5.11,5.11,5.11,5.11,0,0,1,5.11-5.11m0-2a7.12,7.12,0,1,0,7.12,7.11,7.11,7.11,0,0,0-7.12-7.11Z"/><path class="cls-7" d="M219.81,415.55v-2.94c2,0,3.67.95,3.67,2.94a3.69,3.69,0,0,1-3.65,3.67Z"/><path class="cls-8" d="M309.16,412.84c0,2-2.05,2-3.27.81l-3.55-3.54c-.95-.95.23-2.18,2.18-2.18C307.52,407.93,309.16,410.88,309.16,412.84Z"/><path class="cls-9" d="M229.56,407.93H254a.66.66,0,0,0,.66-.66v-14.6H238.54a3.12,3.12,0,0,0-2.75,1.65L229,407A.64.64,0,0,0,229.56,407.93Z"/><path class="cls-9" d="M270.22,392.67H256.84v14.51a.74.74,0,0,0,.75.75h25.48a.47.47,0,0,0,.36-.77l-9.21-12.65A5.26,5.26,0,0,0,270.22,392.67Z"/><path class="cls-4" d="M325.15,407.93h70.73a9.32,9.32,0,0,1,9.32,9.32v0a10.3,10.3,0,0,1-10.3,10.3H326.13a10.3,10.3,0,0,1-10.3-10.3v0a9.32,9.32,0,0,1,9.32-9.32Z"/><path class="cls-4" d="M368.06,390.54l-34.55.45a6.08,6.08,0,0,0-5.22,3.12l-9.19,16.55,67.58-.55-12.38-16.5A7.68,7.68,0,0,0,368.06,390.54Z"/><path class="cls-5" d="M331.73,432a6.12,6.12,0,1,1,6.12-6.12A6.13,6.13,0,0,1,331.73,432Z"/><path class="cls-6" d="M331.73,420.77a5.12,5.12,0,1,1-5.12,5.11,5.12,5.12,0,0,1,5.12-5.11m0-2a7.12,7.12,0,1,0,7.12,7.11,7.11,7.11,0,0,0-7.12-7.11Z"/><circle class="cls-5" cx="389.3" cy="425.88" r="6.12"/><path class="cls-6" d="M389.3,420.77a5.12,5.12,0,1,1-5.11,5.11,5.12,5.12,0,0,1,5.11-5.11m0-2a7.12,7.12,0,1,0,7.12,7.11,7.11,7.11,0,0,0-7.12-7.11Z"/><path class="cls-7" d="M315.86,415.55v-2.94c2,0,3.66.95,3.66,2.94a3.69,3.69,0,0,1-3.64,3.67Z"/><path class="cls-8" d="M405.21,412.84c0,2-2,2-3.27.81l-3.55-3.54c-.95-.95.23-2.18,2.18-2.18C403.57,407.93,405.21,410.88,405.21,412.84Z"/><path class="cls-9" d="M325.61,407.93h24.44a.66.66,0,0,0,.66-.66v-14.6H334.59a3.12,3.12,0,0,0-2.75,1.65L325.05,407A.64.64,0,0,0,325.61,407.93Z"/><path class="cls-9" d="M366.27,392.67H352.89v14.51a.74.74,0,0,0,.75.75h25.48a.46.46,0,0,0,.35-.77l-9.2-12.65A5.26,5.26,0,0,0,366.27,392.67Z"/></svg>