<svg id="Layer_1" data-name="Layer 1" xmlns="http://www.w3.org/2000/svg" viewBox="0 0 1489.43 800"><defs><style>.cls-1{fill:#704b00;}.cls-2{fill:#936703;}.cls-3{fill:#b27c04;}.cls-4{fill:#444;}.cls-5{fill:#fff;}.cls-6{fill:#222;}.cls-7{fill:red;}.cls-8{fill:#ffe600;}.cls-9{fill:#c0ecff;}</style></defs><title>13</title><path class="cls-1" d="M224.18,398.5H208.82a5.21,5.21,0,0,0-5.18,4.85L200,453h33l-3.64-49.65A5.21,5.21,0,0,0,224.18,398.5Z"/><path class="cls-1" d="M1328.48,398.5h-15.36a5.21,5.21,0,0,0-5.18,4.85L1304.3,453h33l-3.65-49.65A5.21,5.21,0,0,0,1328.48,398.5Z"/><rect class="cls-2" y="327" width="14" height="106"/><rect class="cls-2" x="1475.5" y="327" width="14" height="106"/><path class="cls-1" d="M776.33,398.5H761a5.21,5.21,0,0,0-5.18,4.85L752.15,453h33l-3.64-49.65A5.22,5.22,0,0,0,776.33,398.5Z"/><polygon class="cls-3" points="1470.88 453 18.62 453 0 433 1489.5 433 1470.88 453"/><polygon class="cls-2" points="1452.73 473 36.77 473 18.62 453 1470.88 453 1452.73 473"/><path class="cls-4" d="M37,407.93h70.73a9.32,9.32,0,0,1,9.32,9.32v0a10.3,10.3,0,0,1-10.3,10.3H38a10.3,10.3,0,0,1-10.3-10.3v0A9.32,9.32,0,0,1,37,407.93Z"/><path class="cls-4" d="M79.92,390.54,45.37,391a6.08,6.08,0,0,0-5.23,3.12L31,410.66l67.58-.55-12.38-16.5A7.66,7.66,0,0,0,79.92,390.54Z"/><path class="cls-5" d="M43.58,432a6.12,6.12,0,1,1,6.12-6.12A6.12,6.12,0,0,1,43.58,432Z"/><path class="cls-6" d="M43.58,420.77a5.12,5.12,0,1,1-5.11,5.11,5.11,5.11,0,0,1,5.11-5.11m0-2a7.12,7.12,0,1,0,7.12,7.11,7.11,7.11,0,0,0-7.12-7.11Z"/><circle class="cls-5" cx="101.16" cy="425.88" r="6.12"/><path class="cls-6" d="M101.16,420.77A5.12,5.12,0,1,1,96,425.88a5.11,5.11,0,0,1,5.12-5.11m0-2a7.12,7.12,0,1,0,7.11,7.11,7.11,7.11,0,0,0-7.11-7.11Z"/><path class="cls-7" d="M27.71,415.55v-2.94c2,0,3.67.95,3.67,2.94a3.69,3.69,0,0,1-3.65,3.67Z"/><path class="cls-8" d="M117.06,412.84c0,2-2,2-3.27.81l-3.54-3.54c-1-.95.22-2.18,2.18-2.18C115.42,407.93,117.06,410.88,117.06,412.84Z"/><path class="cls-9" d="M37.46,407.93H61.9a.65.65,0,0,0,.66-.66v-14.6H46.44a3.09,3.09,0,0,0-2.74,1.65L36.9,407A.64.64,0,0,0,37.46,407.93Z"/><path class="cls-9" d="M78.12,392.67H64.74v14.51a.75.75,0,0,0,.75.75H91a.47.47,0,0,0,.36-.77l-9.21-12.65A5.26,5.26,0,0,0,78.12,392.67Z"/><path class="cls-4" d="M709.35,407.93h70.73a9.32,9.32,0,0,1,9.32,9.32v0a10.3,10.3,0,0,1-10.3,10.3H710.32a10.3,10.3,0,0,1-10.3-10.3v0A9.32,9.32,0,0,1,709.35,407.93Z"/><path class="cls-4" d="M752.26,390.54l-34.55.45a6.08,6.08,0,0,0-5.22,3.12l-9.19,16.55,67.57-.55-12.37-16.5A7.68,7.68,0,0,0,752.26,390.54Z"/><path class="cls-5" d="M715.93,432a6.12,6.12,0,1,1,6.12-6.12A6.13,6.13,0,0,1,715.93,432Z"/><path class="cls-6" d="M715.93,420.77a5.12,5.12,0,1,1-5.12,5.11,5.12,5.12,0,0,1,5.12-5.11m0-2a7.12,7.12,0,1,0,7.12,7.11,7.11,7.11,0,0,0-7.12-7.11Z"/><circle class="cls-5" cx="773.5" cy="425.88" r="6.12"/><path class="cls-6" d="M773.5,420.77a5.12,5.12,0,1,1-5.12,5.11,5.12,5.12,0,0,1,5.12-5.11m0-2a7.12,7.12,0,1,0,7.12,7.11,7.11,7.11,0,0,0-7.12-7.11Z"/><path class="cls-7" d="M700.05,415.55v-2.94c2,0,3.67.95,3.67,2.94a3.69,3.69,0,0,1-3.64,3.67Z"/><path class="cls-8" d="M789.4,412.84c0,2-2,2-3.27.81l-3.54-3.54c-1-.95.22-2.18,2.18-2.18C787.77,407.93,789.4,410.88,789.4,412.84Z"/><path class="cls-9" d="M709.81,407.93h24.44a.66.66,0,0,0,.66-.66v-14.6H718.79a3.11,3.11,0,0,0-2.75,1.65L709.25,407A.64.64,0,0,0,709.81,407.93Z"/><path class="cls-9" d="M750.46,392.67H737.09v14.51a.74.74,0,0,0,.74.75h25.49a.46.46,0,0,0,.35-.77l-9.2-12.65A5.28,5.28,0,0,0,750.46,392.67Z"/><path class="cls-4" d="M133.06,407.93h70.73a9.32,9.32,0,0,1,9.32,9.32v0a10.3,10.3,0,0,1-10.3,10.3H134a10.3,10.3,0,0,1-10.3-10.3v0a9.32,9.32,0,0,1,9.32-9.32Z"/><path class="cls-4" d="M176,390.54l-34.56.45a6.08,6.08,0,0,0-5.22,3.12L127,410.66l67.58-.55-12.38-16.5A7.66,7.66,0,0,0,176,390.54Z"/><path class="cls-5" d="M139.63,432a6.12,6.12,0,1,1,6.12-6.12A6.12,6.12,0,0,1,139.63,432Z"/><path class="cls-6" d="M139.63,420.77a5.12,5.12,0,1,1-5.11,5.11,5.11,5.11,0,0,1,5.11-5.11m0-2a7.12,7.12,0,1,0,7.12,7.11,7.11,7.11,0,0,0-7.12-7.11Z"/><circle class="cls-5" cx="197.2" cy="425.88" r="6.12"/><path class="cls-6" d="M197.2,420.77a5.12,5.12,0,1,1-5.11,5.11,5.11,5.11,0,0,1,5.11-5.11m0-2a7.12,7.12,0,1,0,7.12,7.11,7.11,7.11,0,0,0-7.12-7.11Z"/><path class="cls-7" d="M123.76,415.55v-2.94c2,0,3.67.95,3.67,2.94a3.69,3.69,0,0,1-3.65,3.67Z"/><path class="cls-8" d="M213.11,412.84c0,2-2.05,2-3.27.81l-3.55-3.54c-.95-.95.23-2.18,2.18-2.18C211.47,407.93,213.11,410.88,213.11,412.84Z"/><path class="cls-9" d="M133.51,407.93H158a.66.66,0,0,0,.66-.66v-14.6H142.49a3.09,3.09,0,0,0-2.74,1.65L133,407A.64.64,0,0,0,133.51,407.93Z"/><path class="cls-9" d="M174.17,392.67H160.79v14.51a.75.75,0,0,0,.75.75H187a.47.47,0,0,0,.36-.77l-9.21-12.65A5.26,5.26,0,0,0,174.17,392.67Z"/><path class="cls-4" d="M229.1,407.93h70.73a9.32,9.32,0,0,1,9.32,9.32v0a10.3,10.3,0,0,1-10.3,10.3H230.08a10.3,10.3,0,0,1-10.3-10.3v0A9.32,9.32,0,0,1,229.1,407.93Z"/><path class="cls-4" d="M272,390.54l-34.56.45a6.08,6.08,0,0,0-5.22,3.12l-9.19,16.55,67.58-.55-12.38-16.5A7.68,7.68,0,0,0,272,390.54Z"/><path class="cls-5" d="M235.68,432a6.12,6.12,0,1,1,6.12-6.12A6.12,6.12,0,0,1,235.68,432Z"/><path class="cls-6" d="M235.68,420.77a5.12,5.12,0,1,1-5.11,5.11,5.12,5.12,0,0,1,5.11-5.11m0-2a7.12,7.12,0,1,0,7.12,7.11,7.11,7.11,0,0,0-7.12-7.11Z"/><circle class="cls-5" cx="293.25" cy="425.88" r="6.12"/><path class="cls-6" d="M293.25,420.77a5.12,5.12,0,1,1-5.11,5.11,5.11,5.11,0,0,1,5.11-5.11m0-2a7.12,7.12,0,1,0,7.12,7.11,7.11,7.11,0,0,0-7.12-7.11Z"/><path class="cls-7" d="M219.81,415.55v-2.94c2,0,3.67.95,3.67,2.94a3.69,3.69,0,0,1-3.65,3.67Z"/><path class="cls-8" d="M309.16,412.84c0,2-2.05,2-3.27.81l-3.55-3.54c-.95-.95.23-2.18,2.18-2.18C307.52,407.93,309.16,410.88,309.16,412.84Z"/><path class="cls-9" d="M229.56,407.93H254a.66.66,0,0,0,.66-.66v-14.6H238.54a3.12,3.12,0,0,0-2.75,1.65L229,407A.64.64,0,0,0,229.56,407.93Z"/><path class="cls-9" d="M270.22,392.67H256.84v14.51a.74.74,0,0,0,.75.75h25.48a.47.47,0,0,0,.36-.77l-9.21-12.65A5.26,5.26,0,0,0,270.22,392.67Z"/><path class="cls-4" d="M325.15,407.93h70.73a9.32,9.32,0,0,1,9.32,9.32v0a10.3,10.3,0,0,1-10.3,10.3H326.13a10.3,10.3,0,0,1-10.3-10.3v0a9.32,9.32,0,0,1,9.32-9.32Z"/><path class="cls-4" d="M368.06,390.54l-34.55.45a6.08,6.08,0,0,0-5.22,3.12l-9.19,16.55,67.58-.55-12.38-16.5A7.68,7.68,0,0,0,368.06,390.54Z"/><path class="cls-5" d="M331.73,432a6.12,6.12,0,1,1,6.12-6.12A6.13,6.13,0,0,1,331.73,432Z"/><path class="cls-6" d="M331.73,420.77a5.12,5.12,0,1,1-5.12,5.11,5.12,5.12,0,0,1,5.12-5.11m0-2a7.12,7.12,0,1,0,7.12,7.11,7.11,7.11,0,0,0-7.12-7.11Z"/><circle class="cls-5" cx="389.3" cy="425.88" r="6.12"/><path class="cls-6" d="M389.3,420.77a5.12,5.12,0,1,1-5.11,5.11,5.12,5.12,0,0,1,5.11-5.11m0-2a7.12,7.12,0,1,0,7.12,7.11,7.11,7.11,0,0,0-7.12-7.11Z"/><path class="cls-7" d="M315.86,415.55v-2.94c2,0,3.66.95,3.66,2.94a3.69,3.69,0,0,1-3.64,3.67Z"/><path class="cls-8" d="M405.21,412.84c0,2-2,2-3.27.81l-3.55-3.54c-.95-.95.23-2.18,2.18-2.18C403.57,407.93,405.21,410.88,405.21,412.84Z"/><path class="cls-9" d="M325.61,407.93h24.44a.66.66,0,0,0,.66-.66v-14.6H334.59a3.12,3.12,0,0,0-2.75,1.65L325.05,407A.64.64,0,0,0,325.61,407.93Z"/><path class="cls-9" d="M366.27,392.67H352.89v14.51a.74.74,0,0,0,.75.75h25.48a.46.46,0,0,0,.35-.77l-9.2-12.65A5.26,5.26,0,0,0,366.27,392.67Z"/><path class="cls-4" d="M421.2,407.93h70.73a9.32,9.32,0,0,1,9.32,9.32v0a10.3,10.3,0,0,1-10.3,10.3H422.17a10.3,10.3,0,0,1-10.3-10.3v0a9.32,9.32,0,0,1,9.32-9.32Z"/><path class="cls-4" d="M464.11,390.54l-34.55.45a6.08,6.08,0,0,0-5.22,3.12l-9.19,16.55,67.58-.55-12.38-16.5A7.68,7.68,0,0,0,464.11,390.54Z"/><circle class="cls-5" cx="427.78" cy="425.88" r="6.12"/><path class="cls-6" d="M427.78,420.77a5.12,5.12,0,1,1-5.12,5.11,5.12,5.12,0,0,1,5.12-5.11m0-2a7.12,7.12,0,1,0,7.12,7.11,7.11,7.11,0,0,0-7.12-7.11Z"/><circle class="cls-5" cx="485.35" cy="425.88" r="6.12"/><path class="cls-6" d="M485.35,420.77a5.12,5.12,0,1,1-5.11,5.11,5.12,5.12,0,0,1,5.11-5.11m0-2a7.12,7.12,0,1,0,7.12,7.11,7.11,7.11,0,0,0-7.12-7.11Z"/><path class="cls-7" d="M411.9,415.55v-2.94c2,0,3.67.95,3.67,2.94a3.69,3.69,0,0,1-3.64,3.67Z"/><path class="cls-8" d="M501.25,412.84c0,2-2,2-3.27.81l-3.54-3.54c-.95-.95.23-2.18,2.18-2.18C499.62,407.93,501.25,410.88,501.25,412.84Z"/><path class="cls-9" d="M421.66,407.93H446.1a.66.66,0,0,0,.66-.66v-14.6H430.64a3.12,3.12,0,0,0-2.75,1.65L421.1,407A.64.64,0,0,0,421.66,407.93Z"/><path class="cls-9" d="M462.32,392.67H448.94v14.51a.74.74,0,0,0,.75.75h25.48a.46.46,0,0,0,.35-.77l-9.2-12.65A5.26,5.26,0,0,0,462.32,392.67Z"/><path class="cls-4" d="M517.25,407.93H588a9.32,9.32,0,0,1,9.32,9.32v0a10.3,10.3,0,0,1-10.3,10.3H518.22a10.3,10.3,0,0,1-10.3-10.3v0a9.32,9.32,0,0,1,9.32-9.32Z"/><path class="cls-4" d="M560.16,390.54l-34.55.45a6.08,6.08,0,0,0-5.22,3.12l-9.19,16.55,67.57-.55-12.37-16.5A7.68,7.68,0,0,0,560.16,390.54Z"/><circle class="cls-5" cx="523.83" cy="425.88" r="6.12"/><path class="cls-6" d="M523.83,420.77a5.12,5.12,0,1,1-5.12,5.11,5.12,5.12,0,0,1,5.12-5.11m0-2a7.12,7.12,0,1,0,7.12,7.11,7.11,7.11,0,0,0-7.12-7.11Z"/><path class="cls-5" d="M581.4,432a6.12,6.12,0,1,1,6.12-6.12A6.13,6.13,0,0,1,581.4,432Z"/><path class="cls-6" d="M581.4,420.77a5.12,5.12,0,1,1-5.12,5.11,5.12,5.12,0,0,1,5.12-5.11m0-2a7.12,7.12,0,1,0,7.12,7.11,7.11,7.11,0,0,0-7.12-7.11Z"/><path class="cls-7" d="M508,415.55v-2.94c2,0,3.67.95,3.67,2.94a3.69,3.69,0,0,1-3.64,3.67Z"/><path class="cls-8" d="M597.3,412.84c0,2-2,2-3.27.81l-3.54-3.54c-1-.95.23-2.18,2.18-2.18C595.67,407.93,597.3,410.88,597.3,412.84Z"/><path class="cls-9" d="M517.71,407.93h24.44a.66.66,0,0,0,.66-.66v-14.6H526.69a3.11,3.11,0,0,0-2.75,1.65L517.15,407A.64.64,0,0,0,517.71,407.93Z"/><path class="cls-9" d="M558.37,392.67H545v14.51a.74.74,0,0,0,.75.75h25.48a.46.46,0,0,0,.35-.77l-9.2-12.65A5.27,5.27,0,0,0,558.37,392.67Z"/><path class="cls-4" d="M613.3,407.93H684a9.32,9.32,0,0,1,9.32,9.32v0a10.3,10.3,0,0,1-10.3,10.3H614.27a10.3,10.3,0,0,1-10.3-10.3v0a9.32,9.32,0,0,1,9.32-9.32Z"/><path class="cls-4" d="M656.21,390.54l-34.55.45a6.08,6.08,0,0,0-5.22,3.12l-9.19,16.55,67.57-.55-12.37-16.5A7.68,7.68,0,0,0,656.21,390.54Z"/><circle class="cls-5" cx="619.88" cy="425.88" r="6.12"/><path class="cls-6" d="M619.88,420.77a5.12,5.12,0,1,1-5.12,5.11,5.12,5.12,0,0,1,5.12-5.11m0-2a7.12,7.12,0,1,0,7.12,7.11,7.11,7.11,0,0,0-7.12-7.11Z"/><circle class="cls-5" cx="677.45" cy="425.88" r="6.12"/><path class="cls-6" d="M677.45,420.77a5.12,5.12,0,1,1-5.12,5.11,5.12,5.12,0,0,1,5.12-5.11m0-2a7.12,7.12,0,1,0,7.12,7.11,7.11,7.11,0,0,0-7.12-7.11Z"/><path class="cls-7" d="M604,415.55v-2.94c2,0,3.67.95,3.67,2.94a3.69,3.69,0,0,1-3.64,3.67Z"/><path class="cls-8" d="M693.35,412.84c0,2-2,2-3.27.81l-3.54-3.54c-.95-.95.22-2.18,2.18-2.18C691.72,407.93,693.35,410.88,693.35,412.84Z"/><path class="cls-9" d="M613.76,407.93H638.2a.66.66,0,0,0,.66-.66v-14.6H622.74a3.11,3.11,0,0,0-2.75,1.65L613.2,407A.64.64,0,0,0,613.76,407.93Z"/><path class="cls-9" d="M654.41,392.67H641v14.51a.74.74,0,0,0,.75.75h25.48a.46.46,0,0,0,.35-.77l-9.2-12.65A5.28,5.28,0,0,0,654.41,392.67Z"/><path class="cls-4" d="M805.4,407.93h70.73a9.32,9.32,0,0,1,9.32,9.32v0a10.3,10.3,0,0,1-10.3,10.3H806.37a10.3,10.3,0,0,1-10.3-10.3v0a9.32,9.32,0,0,1,9.32-9.32Z"/><path class="cls-4" d="M848.31,390.54l-34.55.45a6.06,6.06,0,0,0-5.22,3.12l-9.19,16.55,67.57-.55-12.37-16.5A7.68,7.68,0,0,0,848.31,390.54Z"/><circle class="cls-5" cx="811.98" cy="425.88" r="6.12"/><path class="cls-6" d="M812,420.77a5.12,5.12,0,1,1-5.12,5.11,5.12,5.12,0,0,1,5.12-5.11m0-2a7.12,7.12,0,1,0,7.12,7.11,7.11,7.11,0,0,0-7.12-7.11Z"/><circle class="cls-5" cx="869.55" cy="425.88" r="6.12"/><path class="cls-6" d="M869.55,420.77a5.12,5.12,0,1,1-5.12,5.11,5.12,5.12,0,0,1,5.12-5.11m0-2a7.12,7.12,0,1,0,7.12,7.11,7.11,7.11,0,0,0-7.12-7.11Z"/><path class="cls-7" d="M796.1,415.55v-2.94c2,0,3.67.95,3.67,2.94a3.69,3.69,0,0,1-3.64,3.67Z"/><path class="cls-8" d="M885.45,412.84c0,2-2,2-3.27.81l-3.54-3.54c-.95-.95.22-2.18,2.18-2.18C883.82,407.93,885.45,410.88,885.45,412.84Z"/><path class="cls-9" d="M805.86,407.93H830.3a.65.65,0,0,0,.65-.66v-14.6H814.84a3.11,3.11,0,0,0-2.75,1.65L805.3,407A.64.64,0,0,0,805.86,407.93Z"/><path class="cls-9" d="M846.51,392.67H833.13v14.51a.75.75,0,0,0,.75.75h25.49a.46.46,0,0,0,.35-.77l-9.2-12.65A5.28,5.28,0,0,0,846.51,392.67Z"/><path class="cls-4" d="M901.45,407.93h70.73a9.32,9.32,0,0,1,9.32,9.32v0a10.3,10.3,0,0,1-10.3,10.3H902.42a10.3,10.3,0,0,1-10.3-10.3v0a9.32,9.32,0,0,1,9.32-9.32Z"/><path class="cls-4" d="M944.36,390.54l-34.55.45a6.06,6.06,0,0,0-5.22,3.12l-9.19,16.55,67.57-.55-12.37-16.5A7.68,7.68,0,0,0,944.36,390.54Z"/><path class="cls-5" d="M908,432a6.12,6.12,0,1,1,6.12-6.12A6.12,6.12,0,0,1,908,432Z"/><path class="cls-6" d="M908,420.77a5.12,5.12,0,1,1-5.12,5.11,5.12,5.12,0,0,1,5.12-5.11m0-2a7.12,7.12,0,1,0,7.12,7.11,7.11,7.11,0,0,0-7.12-7.11Z"/><circle class="cls-5" cx="965.6" cy="425.88" r="6.12"/><path class="cls-6" d="M965.6,420.77a5.12,5.12,0,1,1-5.12,5.11,5.12,5.12,0,0,1,5.12-5.11m0-2a7.12,7.12,0,1,0,7.12,7.11,7.11,7.11,0,0,0-7.12-7.11Z"/><path class="cls-7" d="M892.15,415.55v-2.94c2,0,3.67.95,3.67,2.94a3.69,3.69,0,0,1-3.64,3.67Z"/><path class="cls-8" d="M981.5,412.84c0,2-2,2-3.27.81l-3.54-3.54c-1-.95.22-2.18,2.18-2.18C979.87,407.93,981.5,410.88,981.5,412.84Z"/><path class="cls-9" d="M901.91,407.93h24.44a.65.65,0,0,0,.65-.66v-14.6H910.88a3.1,3.1,0,0,0-2.74,1.65L901.35,407A.64.64,0,0,0,901.91,407.93Z"/><path class="cls-9" d="M942.56,392.67H929.18v14.51a.75.75,0,0,0,.75.75h25.48a.47.47,0,0,0,.36-.77l-9.2-12.65A5.29,5.29,0,0,0,942.56,392.67Z"/><path class="cls-4" d="M997.5,407.93h70.73a9.32,9.32,0,0,1,9.32,9.32v0a10.3,10.3,0,0,1-10.3,10.3H998.47a10.3,10.3,0,0,1-10.3-10.3v0a9.32,9.32,0,0,1,9.32-9.32Z"/><path class="cls-4" d="M1040.41,390.54l-34.55.45a6.06,6.06,0,0,0-5.22,3.12l-9.2,16.55,67.58-.55-12.37-16.5A7.68,7.68,0,0,0,1040.41,390.54Z"/><circle class="cls-5" cx="1004.08" cy="425.88" r="6.12"/><path class="cls-6" d="M1004.08,420.77a5.12,5.12,0,1,1-5.12,5.11,5.11,5.11,0,0,1,5.12-5.11m0-2a7.12,7.12,0,1,0,7.11,7.11,7.11,7.11,0,0,0-7.11-7.11Z"/><circle class="cls-5" cx="1061.65" cy="425.88" r="6.12"/><path class="cls-6" d="M1061.65,420.77a5.12,5.12,0,1,1-5.12,5.11,5.12,5.12,0,0,1,5.12-5.11m0-2a7.12,7.12,0,1,0,7.12,7.11,7.11,7.11,0,0,0-7.12-7.11Z"/><path class="cls-7" d="M988.2,415.55v-2.94c2,0,3.67.95,3.67,2.94a3.69,3.69,0,0,1-3.64,3.67Z"/><path class="cls-8" d="M1077.55,412.84c0,2-2,2-3.27.81l-3.54-3.54c-1-.95.22-2.18,2.18-2.18C1075.92,407.93,1077.55,410.88,1077.55,412.84Z"/><path class="cls-9" d="M998,407.93h24.43a.65.65,0,0,0,.66-.66v-14.6h-16.12a3.1,3.1,0,0,0-2.74,1.65L997.4,407A.64.64,0,0,0,998,407.93Z"/><path class="cls-9" d="M1038.61,392.67h-13.38v14.51a.75.75,0,0,0,.75.75h25.48a.47.47,0,0,0,.36-.77l-9.2-12.65A5.29,5.29,0,0,0,1038.61,392.67Z"/><path class="cls-4" d="M1093.55,407.93h70.73a9.32,9.32,0,0,1,9.32,9.32v0a10.3,10.3,0,0,1-10.3,10.3h-68.78a10.3,10.3,0,0,1-10.3-10.3v0A9.32,9.32,0,0,1,1093.55,407.93Z"/><path class="cls-4" d="M1136.46,390.54l-34.55.45a6.05,6.05,0,0,0-5.22,3.12l-9.2,16.55,67.58-.55-12.37-16.5A7.68,7.68,0,0,0,1136.46,390.54Z"/><path class="cls-5" d="M1100.13,432a6.12,6.12,0,1,1,6.11-6.12A6.12,6.12,0,0,1,1100.13,432Z"/><path class="cls-6" d="M1100.13,420.77a5.12,5.12,0,1,1-5.12,5.11,5.11,5.11,0,0,1,5.12-5.11m0-2a7.12,7.12,0,1,0,7.11,7.11,7.11,7.11,0,0,0-7.11-7.11Z"/><circle class="cls-5" cx="1157.7" cy="425.88" r="6.12"/><path class="cls-6" d="M1157.7,420.77a5.12,5.12,0,1,1-5.12,5.11,5.11,5.11,0,0,1,5.12-5.11m0-2a7.12,7.12,0,1,0,7.11,7.11,7.11,7.11,0,0,0-7.11-7.11Z"/><path class="cls-7" d="M1084.25,415.55v-2.94c2,0,3.67.95,3.67,2.94a3.69,3.69,0,0,1-3.64,3.67Z"/><path class="cls-8" d="M1173.6,412.84c0,2-2,2-3.27.81l-3.54-3.54c-1-.95.22-2.18,2.18-2.18C1172,407.93,1173.6,410.88,1173.6,412.84Z"/><path class="cls-9" d="M1094,407.93h24.43a.65.65,0,0,0,.66-.66v-14.6H1103a3.1,3.1,0,0,0-2.74,1.65L1093.45,407A.64.64,0,0,0,1094,407.93Z"/><path class="cls-9" d="M1134.66,392.67h-13.38v14.51a.75.75,0,0,0,.75.75h25.48a.47.47,0,0,0,.36-.77l-9.21-12.65A5.26,5.26,0,0,0,1134.66,392.67Z"/><path class="cls-4" d="M1189.6,407.93h70.73a9.32,9.32,0,0,1,9.32,9.32v0a10.3,10.3,0,0,1-10.3,10.3h-68.78a10.3,10.3,0,0,1-10.3-10.3v0A9.32,9.32,0,0,1,1189.6,407.93Z"/><path class="cls-4" d="M1232.51,390.54,1198,391a6.05,6.05,0,0,0-5.22,3.12l-9.2,16.55,67.58-.55-12.38-16.5A7.66,7.66,0,0,0,1232.51,390.54Z"/><circle class="cls-5" cx="1196.18" cy="425.88" r="6.12"/><path class="cls-6" d="M1196.18,420.77a5.12,5.12,0,1,1-5.12,5.11,5.11,5.11,0,0,1,5.12-5.11m0-2a7.12,7.12,0,1,0,7.11,7.11,7.11,7.11,0,0,0-7.11-7.11Z"/><circle class="cls-5" cx="1253.75" cy="425.88" r="6.12"/><path class="cls-6" d="M1253.75,420.77a5.12,5.12,0,1,1-5.12,5.11,5.11,5.11,0,0,1,5.12-5.11m0-2a7.12,7.12,0,1,0,7.11,7.11,7.11,7.11,0,0,0-7.11-7.11Z"/><path class="cls-7" d="M1180.3,415.55v-2.94c2,0,3.67.95,3.67,2.94a3.69,3.69,0,0,1-3.64,3.67Z"/><path class="cls-8" d="M1269.65,412.84c0,2-2,2-3.27.81l-3.54-3.54c-1-.95.22-2.18,2.18-2.18C1268,407.93,1269.65,410.88,1269.65,412.84Z"/><path class="cls-9" d="M1190.06,407.93h24.43a.65.65,0,0,0,.66-.66v-14.6H1199a3.09,3.09,0,0,0-2.74,1.65l-6.8,12.67A.64.64,0,0,0,1190.06,407.93Z"/><path class="cls-9" d="M1230.71,392.67h-13.38v14.51a.75.75,0,0,0,.75.75h25.48a.47.47,0,0,0,.36-.77l-9.21-12.65A5.26,5.26,0,0,0,1230.71,392.67Z"/></svg>