<svg xmlns="http://www.w3.org/2000/svg" viewBox="0 0 1489.5 182.29"><defs><style>.cls-1{fill:#704b00;}.cls-2{fill:#936703;}.cls-3{fill:#b27c04;}.cls-4{fill:#444;}.cls-5{fill:#fff;}.cls-6{fill:#222;}.cls-7{fill:red;}.cls-8{fill:#ffe600;}.cls-9{fill:#c0ecff;}</style></defs><title>4</title><g id="Layer_2" data-name="Layer 2"><g id="Layer_1-2" data-name="Layer 1"><path class="cls-1" d="M1428.45,182.29h15.36a5.21,5.21,0,0,0,5.18-4.85l3.64-49.65h-33l3.64,49.65A5.21,5.21,0,0,0,1428.45,182.29Z"/><path class="cls-1" d="M42,182.29H57.37a5.21,5.21,0,0,0,5.18-4.85l3.64-49.65h-33l3.65,49.65A5.2,5.2,0,0,0,42,182.29Z"/><rect class="cls-2" width="14" height="106"/><rect class="cls-2" x="1475.5" width="14" height="106"/><polygon class="cls-3" points="1470.88 126 18.62 126 0 106 1489.5 106 1470.88 126"/><polygon class="cls-2" points="1452.73 146 36.77 146 18.62 126 1470.88 126 1452.73 146"/><path class="cls-4" d="M22.89,81.6H94.54a8.89,8.89,0,0,1,8.89,8.89v.93a9.82,9.82,0,0,1-9.82,9.82H23.82A9.82,9.82,0,0,1,14,91.41v-.93a8.89,8.89,0,0,1,8.89-8.89Z"/><path class="cls-4" d="M66.27,64.2l-34.58.44a6.08,6.08,0,0,0-5.22,3.12l-9.2,16.56,67.62-.54L72.51,67.27A7.63,7.63,0,0,0,66.27,64.2Z"/><path class="cls-5" d="M29.91,105.68A6.12,6.12,0,1,1,36,99.56,6.13,6.13,0,0,1,29.91,105.68Z"/><path class="cls-6" d="M29.91,94.44a5.12,5.12,0,1,1-5.12,5.12,5.12,5.12,0,0,1,5.12-5.12m0-2A7.12,7.12,0,1,0,37,99.56a7.12,7.12,0,0,0-7.12-7.12Z"/><path class="cls-5" d="M87.52,105.68a6.12,6.12,0,1,1,6.12-6.12A6.13,6.13,0,0,1,87.52,105.68Z"/><path class="cls-6" d="M87.52,94.44a5.12,5.12,0,1,1-5.12,5.12,5.12,5.12,0,0,1,5.12-5.12m0-2a7.12,7.12,0,1,0,7.12,7.12,7.12,7.12,0,0,0-7.12-7.12Z"/><path class="cls-7" d="M14,89.22V86.28c2,0,3.67.94,3.67,2.94a3.69,3.69,0,0,1-3.65,3.67Z"/><path class="cls-8" d="M103.43,86.5c0,2-2,2-3.27.82l-3.55-3.54c-1-1,.23-2.18,2.19-2.18C101.79,81.6,103.43,84.55,103.43,86.5Z"/><path class="cls-9" d="M23.79,81.6H48.24a.67.67,0,0,0,.66-.66V66.33H32.77A3.13,3.13,0,0,0,30,68L23.23,80.66A.64.64,0,0,0,23.79,81.6Z"/><path class="cls-9" d="M64.47,66.33H51.08V80.85a.76.76,0,0,0,.75.75h25.5a.47.47,0,0,0,.35-.78L68.47,68.17A5.26,5.26,0,0,0,64.47,66.33Z"/><path class="cls-4" d="M120.17,81.6h71.65a8.89,8.89,0,0,1,8.89,8.89v.93a9.82,9.82,0,0,1-9.82,9.82H121.1a9.82,9.82,0,0,1-9.82-9.82v-.93A8.89,8.89,0,0,1,120.17,81.6Z"/><path class="cls-4" d="M163.55,64.2,129,64.64a6.08,6.08,0,0,0-5.23,3.12l-9.2,16.56,67.62-.54L169.79,67.27A7.63,7.63,0,0,0,163.55,64.2Z"/><path class="cls-5" d="M127.19,105.68a6.12,6.12,0,1,1,6.12-6.12A6.13,6.13,0,0,1,127.19,105.68Z"/><path class="cls-6" d="M127.19,94.44a5.12,5.12,0,1,1-5.12,5.12,5.12,5.12,0,0,1,5.12-5.12m0-2a7.12,7.12,0,1,0,7.12,7.12,7.12,7.12,0,0,0-7.12-7.12Z"/><path class="cls-5" d="M184.8,105.68a6.12,6.12,0,1,1,6.12-6.12A6.13,6.13,0,0,1,184.8,105.68Z"/><path class="cls-6" d="M184.8,94.44a5.12,5.12,0,1,1-5.12,5.12,5.12,5.12,0,0,1,5.12-5.12m0-2a7.12,7.12,0,1,0,7.12,7.12,7.12,7.12,0,0,0-7.12-7.12Z"/><path class="cls-7" d="M111.31,89.22V86.28c2,0,3.67.94,3.67,2.94a3.69,3.69,0,0,1-3.65,3.67Z"/><path class="cls-8" d="M200.71,86.5c0,2-2,2-3.27.82l-3.54-3.54c-1-1,.22-2.18,2.18-2.18C199.08,81.6,200.71,84.55,200.71,86.5Z"/><path class="cls-9" d="M121.07,81.6h24.45a.66.66,0,0,0,.66-.66V66.33H130.05A3.13,3.13,0,0,0,127.3,68l-6.79,12.69A.64.64,0,0,0,121.07,81.6Z"/><path class="cls-9" d="M161.75,66.33H148.36V80.85a.76.76,0,0,0,.75.75h25.5a.47.47,0,0,0,.36-.78l-9.21-12.65A5.29,5.29,0,0,0,161.75,66.33Z"/><path class="cls-4" d="M219.65,81.6h71.65a8.89,8.89,0,0,1,8.89,8.89v.93a9.82,9.82,0,0,1-9.82,9.82h-69.8a9.82,9.82,0,0,1-9.82-9.82v-.93a8.89,8.89,0,0,1,8.89-8.89Z"/><path class="cls-4" d="M263,64.2l-34.57.44a6.08,6.08,0,0,0-5.23,3.12L214,84.32l67.61-.54L269.27,67.27A7.63,7.63,0,0,0,263,64.2Z"/><path class="cls-5" d="M226.68,105.68a6.12,6.12,0,1,1,6.12-6.12A6.13,6.13,0,0,1,226.68,105.68Z"/><path class="cls-6" d="M226.68,94.44a5.12,5.12,0,1,1-5.12,5.12,5.12,5.12,0,0,1,5.12-5.12m0-2a7.12,7.12,0,1,0,7.12,7.12,7.12,7.12,0,0,0-7.12-7.12Z"/><path class="cls-5" d="M284.28,105.68a6.12,6.12,0,1,1,6.12-6.12A6.13,6.13,0,0,1,284.28,105.68Z"/><path class="cls-6" d="M284.28,94.44a5.12,5.12,0,1,1-5.12,5.12,5.12,5.12,0,0,1,5.12-5.12m0-2a7.12,7.12,0,1,0,7.12,7.12,7.12,7.12,0,0,0-7.12-7.12Z"/><path class="cls-7" d="M210.79,89.22V86.28c2,0,3.67.94,3.67,2.94a3.69,3.69,0,0,1-3.64,3.67Z"/><path class="cls-8" d="M300.19,86.5c0,2-2,2-3.27.82l-3.54-3.54c-1-1,.22-2.18,2.18-2.18C298.56,81.6,300.19,84.55,300.19,86.5Z"/><path class="cls-9" d="M220.55,81.6H245a.66.66,0,0,0,.66-.66V66.33H229.53A3.11,3.11,0,0,0,226.79,68L220,80.66A.64.64,0,0,0,220.55,81.6Z"/><path class="cls-9" d="M261.23,66.33H247.85V80.85a.75.75,0,0,0,.74.75h25.5a.47.47,0,0,0,.36-.78l-9.21-12.65A5.28,5.28,0,0,0,261.23,66.33Z"/><path class="cls-4" d="M315.06,81.6h71.65a8.89,8.89,0,0,1,8.89,8.89v.93a9.82,9.82,0,0,1-9.82,9.82H316a9.82,9.82,0,0,1-9.82-9.82v-.93a8.89,8.89,0,0,1,8.89-8.89Z"/><path class="cls-4" d="M358.44,64.2l-34.57.44a6.08,6.08,0,0,0-5.23,3.12l-9.2,16.56,67.62-.54L364.68,67.27A7.63,7.63,0,0,0,358.44,64.2Z"/><path class="cls-5" d="M322.08,105.68a6.12,6.12,0,1,1,6.13-6.12A6.13,6.13,0,0,1,322.08,105.68Z"/><path class="cls-6" d="M322.08,94.44A5.12,5.12,0,1,1,317,99.56a5.13,5.13,0,0,1,5.12-5.12m0-2a7.12,7.12,0,1,0,7.13,7.12,7.12,7.12,0,0,0-7.13-7.12Z"/><path class="cls-5" d="M379.69,105.68a6.12,6.12,0,1,1,6.12-6.12A6.13,6.13,0,0,1,379.69,105.68Z"/><path class="cls-6" d="M379.69,94.44a5.12,5.12,0,1,1-5.12,5.12,5.12,5.12,0,0,1,5.12-5.12m0-2a7.12,7.12,0,1,0,7.12,7.12,7.12,7.12,0,0,0-7.12-7.12Z"/><path class="cls-7" d="M306.2,89.22V86.28c2,0,3.67.94,3.67,2.94a3.69,3.69,0,0,1-3.64,3.67Z"/><path class="cls-8" d="M395.6,86.5c0,2-2,2-3.27.82l-3.54-3.54c-1-1,.22-2.18,2.18-2.18C394,81.6,395.6,84.55,395.6,86.5Z"/><path class="cls-9" d="M316,81.6h24.45a.66.66,0,0,0,.66-.66V66.33H324.94A3.1,3.1,0,0,0,322.2,68l-6.8,12.69A.64.64,0,0,0,316,81.6Z"/><path class="cls-9" d="M356.64,66.33H343.25V80.85a.76.76,0,0,0,.75.75h25.5a.47.47,0,0,0,.36-.78l-9.21-12.65A5.29,5.29,0,0,0,356.64,66.33Z"/></g></g></svg>