<svg xmlns="http://www.w3.org/2000/svg" viewBox="0 0 1489.5 182.29"><defs><style>.cls-1{fill:#704b00;}.cls-2{fill:#936703;}.cls-3{fill:#b27c04;}</style></defs><title>Asset 5</title><g id="Layer_2" data-name="Layer 2"><g id="Layer_1-2" data-name="Layer 1"><path class="cls-1" d="M1428.45,182.29h15.36a5.21,5.21,0,0,0,5.18-4.85l3.64-49.65h-33l3.64,49.65A5.21,5.21,0,0,0,1428.45,182.29Z"/><path class="cls-1" d="M42,182.29H57.37a5.21,5.21,0,0,0,5.18-4.85l3.64-49.65h-33l3.65,49.65A5.2,5.2,0,0,0,42,182.29Z"/><rect class="cls-2" width="14" height="106"/><rect class="cls-2" x="1475.5" width="14" height="106"/><polygon class="cls-3" points="1470.88 126 18.62 126 0 106 1489.5 106 1470.88 126"/><polygon class="cls-2" points="1452.73 146 36.77 146 18.62 126 1470.88 126 1452.73 146"/></g></g></svg>