<svg xmlns="http://www.w3.org/2000/svg" viewBox="0 0 1489.5 182.29"><defs><style>.cls-1{fill:#704b00;}.cls-2{fill:#936703;}.cls-3{fill:#b27c04;}.cls-4{fill:#444;}.cls-5{fill:#fff;}.cls-6{fill:#222;}.cls-7{fill:red;}.cls-8{fill:#ffe600;}.cls-9{fill:#c0ecff;}</style></defs><title>Asset 7</title><g id="Layer_2" data-name="Layer 2"><g id="Layer_1-2" data-name="Layer 1"><path class="cls-1" d="M1428.45,182.29h15.36a5.21,5.21,0,0,0,5.18-4.85l3.64-49.65h-33l3.64,49.65A5.21,5.21,0,0,0,1428.45,182.29Z"/><path class="cls-1" d="M42,182.29H57.37a5.21,5.21,0,0,0,5.18-4.85l3.64-49.65h-33l3.65,49.65A5.2,5.2,0,0,0,42,182.29Z"/><rect class="cls-2" width="14" height="106"/><rect class="cls-2" x="1475.5" width="14" height="106"/><polygon class="cls-3" points="1470.88 126 18.62 126 0 106 1489.5 106 1470.88 126"/><polygon class="cls-2" points="1452.73 146 36.77 146 18.62 126 1470.88 126 1452.73 146"/><path class="cls-4" d="M27.56,75.64h92A9.32,9.32,0,0,1,128.88,85v4.67a10.3,10.3,0,0,1-10.3,10.3H28.53a10.3,10.3,0,0,1-10.3-10.3V85a9.32,9.32,0,0,1,9.32-9.32Z"/><path class="cls-4" d="M82.9,54.12l-42.77.55a7.51,7.51,0,0,0-6.46,3.86L22.29,79l83.65-.68L90.62,57.92A9.49,9.49,0,0,0,82.9,54.12Z"/><path class="cls-5" d="M37.92,105.44a7.58,7.58,0,1,1,7.58-7.57A7.58,7.58,0,0,1,37.92,105.44Z"/><path class="cls-6" d="M37.92,91.53a6.34,6.34,0,1,1-6.33,6.34,6.34,6.34,0,0,1,6.33-6.34m0-2.47a8.81,8.81,0,1,0,8.81,8.81,8.81,8.81,0,0,0-8.81-8.81Z"/><circle class="cls-5" cx="109.2" cy="97.87" r="7.57"/><path class="cls-6" d="M109.2,91.53a6.34,6.34,0,1,1-6.34,6.34,6.34,6.34,0,0,1,6.34-6.34m0-2.47A8.81,8.81,0,1,0,118,97.87a8.81,8.81,0,0,0-8.81-8.81Z"/><path class="cls-7" d="M18.27,85.08V81.44c2.47,0,4.54,1.17,4.54,3.64a4.56,4.56,0,0,1-4.51,4.54Z"/><path class="cls-8" d="M128.88,81.72c0,2.42-2.53,2.53-4,1l-4.38-4.39c-1.18-1.18.28-2.7,2.7-2.7C126.86,75.64,128.88,79.29,128.88,81.72Z"/><path class="cls-9" d="M30.35,75.64H60.6a.82.82,0,0,0,.82-.81V56.75h-20a3.87,3.87,0,0,0-3.4,2l-8.41,15.7A.78.78,0,0,0,30.35,75.64Z"/><path class="cls-9" d="M80.68,56.75H64.11v18a.93.93,0,0,0,.93.92H96.59a.58.58,0,0,0,.44-1L85.63,59A6.55,6.55,0,0,0,80.68,56.75Z"/><path class="cls-4" d="M147.92,75.64h92A9.32,9.32,0,0,1,249.24,85v4.67a10.3,10.3,0,0,1-10.3,10.3H148.89a10.3,10.3,0,0,1-10.3-10.3V85a9.32,9.32,0,0,1,9.32-9.32Z"/><path class="cls-4" d="M203.26,54.12l-42.77.55A7.54,7.54,0,0,0,154,58.53L142.64,79l83.66-.68L211,57.92A9.49,9.49,0,0,0,203.26,54.12Z"/><path class="cls-5" d="M158.28,105.44a7.58,7.58,0,1,1,7.58-7.57A7.58,7.58,0,0,1,158.28,105.44Z"/><path class="cls-6" d="M158.28,91.53A6.34,6.34,0,1,1,152,97.87a6.34,6.34,0,0,1,6.33-6.34m0-2.47a8.81,8.81,0,1,0,8.81,8.81,8.81,8.81,0,0,0-8.81-8.81Z"/><path class="cls-5" d="M229.55,105.44a7.58,7.58,0,1,1,7.58-7.57A7.58,7.58,0,0,1,229.55,105.44Z"/><path class="cls-6" d="M229.55,91.53a6.34,6.34,0,1,1-6.33,6.34,6.34,6.34,0,0,1,6.33-6.34m0-2.47a8.81,8.81,0,1,0,8.82,8.81,8.81,8.81,0,0,0-8.82-8.81Z"/><path class="cls-7" d="M138.63,85.08V81.44c2.47,0,4.54,1.17,4.54,3.64a4.56,4.56,0,0,1-4.51,4.54Z"/><path class="cls-8" d="M249.24,81.72c0,2.42-2.53,2.53-4.05,1l-4.38-4.39c-1.18-1.18.27-2.7,2.7-2.7C247.22,75.64,249.24,79.29,249.24,81.72Z"/><path class="cls-9" d="M150.71,75.64H181a.81.81,0,0,0,.81-.81V56.75h-20a3.87,3.87,0,0,0-3.4,2L150,74.49A.78.78,0,0,0,150.71,75.64Z"/><path class="cls-9" d="M201,56.75H184.47v18a.93.93,0,0,0,.93.92H217a.58.58,0,0,0,.44-1L206,59A6.55,6.55,0,0,0,201,56.75Z"/><path class="cls-4" d="M271,75.64h92A9.32,9.32,0,0,1,372.32,85v4.67A10.3,10.3,0,0,1,362,99.93H272a10.3,10.3,0,0,1-10.3-10.3V85A9.32,9.32,0,0,1,271,75.64Z"/><path class="cls-4" d="M326.34,54.12l-42.77.55a7.51,7.51,0,0,0-6.46,3.86L265.73,79l83.65-.68L334.06,57.92A9.48,9.48,0,0,0,326.34,54.12Z"/><circle class="cls-5" cx="281.36" cy="97.87" r="7.57"/><path class="cls-6" d="M281.36,91.53A6.34,6.34,0,1,1,275,97.87a6.34,6.34,0,0,1,6.33-6.34m0-2.47a8.81,8.81,0,1,0,8.82,8.81,8.81,8.81,0,0,0-8.82-8.81Z"/><circle class="cls-5" cx="352.64" cy="97.87" r="7.57"/><path class="cls-6" d="M352.64,91.53a6.34,6.34,0,1,1-6.34,6.34,6.34,6.34,0,0,1,6.34-6.34m0-2.47a8.81,8.81,0,1,0,8.81,8.81,8.81,8.81,0,0,0-8.81-8.81Z"/><path class="cls-7" d="M261.71,85.08V81.44c2.47,0,4.54,1.17,4.54,3.64a4.56,4.56,0,0,1-4.51,4.54Z"/><path class="cls-8" d="M372.32,81.72c0,2.42-2.53,2.53-4.05,1l-4.38-4.39c-1.18-1.18.28-2.7,2.7-2.7C370.3,75.64,372.32,79.29,372.32,81.72Z"/><path class="cls-9" d="M273.79,75.64H304a.82.82,0,0,0,.82-.81V56.75h-20a3.87,3.87,0,0,0-3.4,2l-8.41,15.7A.78.78,0,0,0,273.79,75.64Z"/><path class="cls-9" d="M324.12,56.75H307.55v18a.93.93,0,0,0,.93.92H340a.58.58,0,0,0,.44-1L329.07,59A6.55,6.55,0,0,0,324.12,56.75Z"/></g></g></svg>