<svg xmlns="http://www.w3.org/2000/svg" viewBox="0 0 110.65 52.56"><defs><style>.cls-1{fill:#444;}.cls-2{fill:#fff;}.cls-3{fill:#222;}.cls-4{fill:red;}.cls-5{fill:#ffe600;}.cls-6{fill:#c0ecff;}</style></defs><title>Asset 6</title><g id="Layer_2" data-name="Layer 2"><g id="Layer_1-2" data-name="Layer 1"><path class="cls-1" d="M9.32,21.53h92a9.32,9.32,0,0,1,9.32,9.32v4.67a10.3,10.3,0,0,1-10.3,10.3H10.3A10.3,10.3,0,0,1,0,35.52V30.85a9.32,9.32,0,0,1,9.32-9.32Z"/><path class="cls-1" d="M64.67,0,21.89.56a7.48,7.48,0,0,0-6.46,3.86L4.05,24.9l83.66-.67L72.39,3.8A9.49,9.49,0,0,0,64.67,0Z"/><circle class="cls-2" cx="19.69" cy="43.75" r="7.57"/><path class="cls-3" d="M19.69,37.42a6.34,6.34,0,1,1-6.34,6.33,6.34,6.34,0,0,1,6.34-6.33m0-2.48a8.81,8.81,0,1,0,8.81,8.81,8.8,8.8,0,0,0-8.81-8.81Z"/><circle class="cls-2" cx="90.96" cy="43.75" r="7.57"/><path class="cls-3" d="M91,37.42a6.34,6.34,0,1,1-6.34,6.33A6.34,6.34,0,0,1,91,37.42m0-2.48a8.81,8.81,0,1,0,8.81,8.81A8.8,8.8,0,0,0,91,34.94Z"/><path class="cls-4" d="M0,31V27.33c2.47,0,4.54,1.16,4.54,3.63A4.56,4.56,0,0,1,.06,35.5Z"/><path class="cls-5" d="M110.65,27.6c0,2.42-2.53,2.53-4.05,1l-4.39-4.38c-1.18-1.18.28-2.7,2.7-2.7C108.62,21.53,110.65,25.18,110.65,27.6Z"/><path class="cls-6" d="M12.11,21.53H42.36a.82.82,0,0,0,.82-.82V2.64h-20a3.87,3.87,0,0,0-3.4,2l-8.4,15.7A.78.78,0,0,0,12.11,21.53Z"/><path class="cls-6" d="M62.44,2.64H45.88v18a.93.93,0,0,0,.93.93H78.35a.58.58,0,0,0,.44-1L67.4,4.92A6.52,6.52,0,0,0,62.44,2.64Z"/></g></g></svg>