<svg id="Capa_1" data-name="Capa 1" xmlns="http://www.w3.org/2000/svg" viewBox="0 0 688.21 541.99"><defs><style>.cls-1{fill:#fc0;}.cls-2{fill:#e64314;}.cls-3{fill:#bb1e18;}</style></defs><title>placa_centesimo</title><rect class="cls-1" y="22.9" width="45.96" height="519.09" transform="translate(45.96 564.89) rotate(180)"/><polygon class="cls-2" points="19.48 0 0 22.9 45.96 22.9 65.77 0 19.48 0"/><polygon class="cls-3" points="65.77 0 65.77 518.25 45.96 541.99 45.96 22.9 65.77 0"/><rect class="cls-1" x="57.96" y="22.9" width="45.96" height="519.09" transform="translate(161.89 564.89) rotate(180)"/><polygon class="cls-2" points="77.44 0 57.96 22.9 103.92 22.9 123.73 0 77.44 0"/><polygon class="cls-3" points="123.73 0 123.73 518.25 103.92 541.99 103.92 22.9 123.73 0"/><rect class="cls-1" x="115.92" y="22.9" width="45.96" height="519.09" transform="translate(277.81 564.89) rotate(180)"/><polygon class="cls-2" points="135.4 0 115.92 22.9 161.89 22.9 181.69 0 135.4 0"/><polygon class="cls-3" points="181.69 0 181.69 518.25 161.89 541.99 161.89 22.9 181.69 0"/><rect class="cls-1" x="173.89" y="22.9" width="45.96" height="519.09" transform="translate(393.74 564.89) rotate(180)"/><polygon class="cls-2" points="193.36 0 173.89 22.9 219.85 22.9 239.66 0 193.36 0"/><polygon class="cls-3" points="239.66 0 239.66 518.25 219.85 541.99 219.85 22.9 239.66 0"/><rect class="cls-1" x="231.85" y="22.9" width="45.96" height="519.09" transform="translate(509.66 564.89) rotate(180)"/><polygon class="cls-2" points="251.33 0 231.85 22.9 277.81 22.9 297.62 0 251.33 0"/><polygon class="cls-3" points="297.62 0 297.62 518.25 277.81 541.99 277.81 22.9 297.62 0"/><rect class="cls-1" x="289.81" y="22.9" width="45.96" height="519.09" transform="translate(625.59 564.89) rotate(180)"/><polygon class="cls-2" points="309.29 0 289.81 22.9 335.77 22.9 355.58 0 309.29 0"/><polygon class="cls-3" points="355.58 0 355.58 518.25 335.77 541.99 335.77 22.9 355.58 0"/><rect class="cls-1" x="347.77" y="22.9" width="45.96" height="519.09" transform="translate(741.51 564.89) rotate(180)"/><polygon class="cls-2" points="367.25 0 347.77 22.9 393.74 22.9 413.55 0 367.25 0"/><polygon class="cls-3" points="413.55 0 413.55 518.25 393.74 541.99 393.74 22.9 413.55 0"/><rect class="cls-1" x="405.74" y="22.9" width="45.96" height="519.09" transform="translate(857.44 564.89) rotate(180)"/><polygon class="cls-2" points="425.21 0 405.74 22.9 451.7 22.9 471.51 0 425.21 0"/><polygon class="cls-3" points="471.51 0 471.51 518.25 451.7 541.99 451.7 22.9 471.51 0"/><rect class="cls-1" x="463.7" y="22.9" width="45.96" height="519.09" transform="translate(973.36 564.89) rotate(180)"/><polygon class="cls-2" points="483.18 0 463.7 22.9 509.66 22.9 529.47 0 483.18 0"/><polygon class="cls-3" points="529.47 0 529.47 518.25 509.66 541.99 509.66 22.9 529.47 0"/><rect class="cls-1" x="521.66" y="22.9" width="45.96" height="519.09" transform="translate(1089.29 564.89) rotate(180)"/><polygon class="cls-2" points="541.14 0 521.66 22.9 567.62 22.9 587.43 0 541.14 0"/><polygon class="cls-3" points="587.43 0 587.43 518.25 567.62 541.99 567.62 22.9 587.43 0"/></svg>