<svg id="Layer_1" data-name="Layer 1" xmlns="http://www.w3.org/2000/svg" viewBox="0 0 500 500"><defs><style>.cls-1{fill:#f58220;}.cls-2{fill:#ffcc0d;}.cls-3,.cls-5{fill:#f05225;}.cls-3{opacity:0.61;}.cls-4{fill:none;stroke:#ffcc0d;stroke-miterlimit:10;stroke-width:11px;}</style></defs><title>Regalo</title><rect class="cls-1" x="84.76" y="144.48" width="330.76" height="330.76"/><rect class="cls-1" x="65.54" y="124.1" width="368.03" height="41.35"/><rect class="cls-2" x="228.59" y="124.1" width="56.49" height="351.14"/><path class="cls-3" d="M84.76,165.44H415.52a0,0,0,0,1,0,0v7.92a.23.23,0,0,1-.23.23H85a.23.23,0,0,1-.23-.23v-7.92A0,0,0,0,1,84.76,165.44Z"/><path class="cls-4" d="M256.83,124.1S79.55,79.69,140.66,23.35C192.07-24,256.83,124.1,256.83,124.1Z"/><path class="cls-4" d="M256.81,124.1S419.68,79.69,363.54,23.35C316.31-24,256.81,124.1,256.81,124.1Z"/><polygon class="cls-5" points="415.52 173.59 415.52 173.59 433.57 165.44 415.52 165.44 415.52 173.59"/><polygon class="cls-5" points="84.76 173.59 84.76 173.59 65.54 165.44 84.76 165.44 84.76 173.59"/><path class="cls-2" d="M249.56,118.91S115,167.69,54.3,286.6l57.05-44.27,24.4,61S120.43,204.58,249.56,118.91Z"/><path class="cls-2" d="M262.93,121.7S388.85,170.48,445.7,289.39l-53.4-44.27-22.84,61S383.8,207.38,262.93,121.7Z"/></svg>