<svg id="Layer_1" data-name="Layer 1" xmlns="http://www.w3.org/2000/svg" viewBox="0 0 800 800"><defs><style>.cls-1{fill:#bababa;}.cls-2{fill:#e52525;}.cls-3{fill:#b56f00;}.cls-4{fill:#46c638;}.cls-5{fill:#910a0a;opacity:0.3;}.cls-6{fill:#f2f2f2;}</style></defs><title>Frutero_2</title><g id="All"><path id="Interior" class="cls-1" d="M724.69,283.55c0,15.16-145.37,37.6-324.69,37.6S75.31,298.71,75.31,283.55,220.68,256.11,400,256.11,724.69,268.4,724.69,283.55Z"/><g id="Manzana"><ellipse class="cls-2" cx="524.43" cy="294.6" rx="90.27" ry="77.68" transform="translate(78.98 698.81) rotate(-71.55)"/><ellipse class="cls-2" cx="478.87" cy="279.4" rx="90.27" ry="77.68" transform="translate(62.26 645.2) rotate(-71.55)"/><path class="cls-3" d="M526.57,213.32s15-23.83,3.59-41.94c-.13.39-1.84,5.79-1.84,5.79s8.87,8.51-6.43,34.59C521.89,211.76,521.67,215.53,526.57,213.32Z"/><path class="cls-4" d="M546.27,175.39H558.6a0,0,0,0,1,0,0v12a11.52,11.52,0,0,1-11.52,11.52H534.75a0,0,0,0,1,0,0v-12A11.52,11.52,0,0,1,546.27,175.39Z" transform="translate(1006 537.7) rotate(-161.55)"/><path class="cls-5" d="M552.82,209s64.56,96.28-57.06,171c0,0,68.15,24.45,102.2-60.71,0,0,8.81-20.43,4.18-48.16-2.91-17.47-9.73-35.26-26-48.81C559.65,208.64,552.82,209,552.82,209Z"/></g><g id="Manzana-2" data-name="Manzana"><ellipse class="cls-2" cx="276.05" cy="288.38" rx="79.54" ry="93.84"/><ellipse class="cls-2" cx="325.23" cy="288.38" rx="79.54" ry="93.84"/><path class="cls-3" d="M300.32,207.52S293.5,179.1,310.42,165c0,.42-.09,6.31-.09,6.31s-11.37,5.48-5,36.22C305.37,207.52,304.36,211.31,300.32,207.52Z"/><path class="cls-4" d="M277.06,162.88H290a11.52,11.52,0,0,1,11.52,11.52v12.9a0,0,0,0,1,0,0h-12.9a11.52,11.52,0,0,1-11.52-11.52v-12.9A0,0,0,0,1,277.06,162.88Z"/><path class="cls-5" d="M276.22,194.64s-93.92,73.7,0,187.41c0,0-74.13,1.69-79.6-93.49,0,0-1.93-23.06,11.55-48.88,8.49-16.26,20.88-31.56,41.09-39.56C269.7,192,276.22,194.64,276.22,194.64Z"/></g><path id="Base" class="cls-6" d="M724.69,284.57h0c0,477.63-649.38,472.89-649.38,0h0c63.87,44.71,569.41,48.78,649.38,0Z"/></g></svg>