<svg id="Layer_1" data-name="Layer 1" xmlns="http://www.w3.org/2000/svg" viewBox="0 0 800 800"><defs><style>.cls-1{fill:#bababa;}.cls-2{fill:#e52525;}.cls-3{fill:#b56f00;}.cls-4{fill:#46c638;}.cls-5{fill:#910a0a;opacity:0.3;}.cls-6{fill:#f2f2f2;}</style></defs><title>Frutero_3</title><g id="All"><path id="Interior" class="cls-1" d="M724.69,283.55c0,15.16-145.37,37.6-324.69,37.6S75.31,298.71,75.31,283.55,220.68,256.11,400,256.11,724.69,268.4,724.69,283.55Z"/><g id="Manzana"><ellipse class="cls-2" cx="625.13" cy="294.6" rx="90.27" ry="77.68" transform="translate(147.81 794.34) rotate(-71.55)"/><ellipse class="cls-2" cx="579.57" cy="279.4" rx="90.27" ry="77.68" transform="translate(131.09 740.73) rotate(-71.55)"/><path class="cls-3" d="M627.28,213.32s15-23.83,3.59-41.94c-.13.39-1.84,5.79-1.84,5.79s8.87,8.51-6.43,34.59C622.6,211.76,622.38,215.53,627.28,213.32Z"/><path class="cls-4" d="M647,175.39h12.33a0,0,0,0,1,0,0v12a11.52,11.52,0,0,1-11.52,11.52H635.45a0,0,0,0,1,0,0v-12A11.52,11.52,0,0,1,647,175.39Z" transform="translate(1202.24 569.58) rotate(-161.55)"/><path class="cls-5" d="M653.53,209s64.56,96.28-57.07,171c0,0,68.16,24.45,102.21-60.71,0,0,8.81-20.43,4.18-48.16-2.92-17.47-9.73-35.26-26-48.81C660.36,208.64,653.53,209,653.53,209Z"/></g><g id="Manzana-2" data-name="Manzana"><ellipse class="cls-2" cx="175.34" cy="284.49" rx="79.54" ry="93.84"/><ellipse class="cls-2" cx="224.52" cy="284.49" rx="79.54" ry="93.84"/><path class="cls-3" d="M199.61,203.63s-6.82-28.43,10.1-42.54c0,.42-.09,6.32-.09,6.32s-11.37,5.47-5,36.22C204.66,203.63,203.65,207.42,199.61,203.63Z"/><path class="cls-4" d="M176.35,159h12.9a11.52,11.52,0,0,1,11.52,11.52v12.9a0,0,0,0,1,0,0h-12.9a11.52,11.52,0,0,1-11.52-11.52V159A0,0,0,0,1,176.35,159Z"/><path class="cls-5" d="M175.51,190.74s-93.92,73.7,0,187.41c0,0-74.12,1.69-79.6-93.49,0,0-1.93-23.05,11.55-48.87,8.5-16.27,20.88-31.57,41.09-39.57C169,188.13,175.51,190.74,175.51,190.74Z"/></g><g id="Manzana-3" data-name="Manzana"><ellipse class="cls-2" cx="376.76" cy="288.38" rx="79.54" ry="93.84"/><ellipse class="cls-2" cx="425.94" cy="288.38" rx="79.54" ry="93.84"/><path class="cls-3" d="M401,207.52s-6.81-28.42,10.1-42.53c0,.42-.08,6.31-.08,6.31s-11.37,5.48-5,36.22C406.07,207.52,405.06,211.31,401,207.52Z"/><path class="cls-4" d="M377.77,162.88h12.9a11.52,11.52,0,0,1,11.52,11.52v12.9a0,0,0,0,1,0,0h-12.9a11.52,11.52,0,0,1-11.52-11.52v-12.9A0,0,0,0,1,377.77,162.88Z"/><path class="cls-5" d="M376.92,194.64s-93.91,73.7,0,187.41c0,0-74.12,1.69-79.59-93.49,0,0-1.94-23.06,11.55-48.88,8.49-16.26,20.87-31.56,41.09-39.56C370.4,192,376.92,194.64,376.92,194.64Z"/></g><path id="Base" class="cls-6" d="M724.69,284.57h0c0,477.63-649.38,472.89-649.38,0h0c63.87,44.71,569.41,48.78,649.38,0Z"/></g></svg>