<svg id="Layer_1" data-name="Layer 1" xmlns="http://www.w3.org/2000/svg" viewBox="0 0 800 800"><defs><style>.cls-1{fill:#bababa;}.cls-2{fill:#e52525;}.cls-3{fill:#b56f00;}.cls-4{fill:#46c638;}.cls-5{fill:#910a0a;opacity:0.3;}.cls-6{fill:#f2f2f2;}</style></defs><title>Frutero_1</title><g id="All"><path id="Interior" class="cls-1" d="M724.69,283.55c0,15.16-145.37,37.6-324.69,37.6S75.31,298.71,75.31,283.55,220.68,256.11,400,256.11,724.69,268.4,724.69,283.55Z"/><g id="Manzana"><ellipse class="cls-2" cx="376.76" cy="288.38" rx="79.54" ry="93.84"/><ellipse class="cls-2" cx="425.94" cy="288.38" rx="79.54" ry="93.84"/><path class="cls-3" d="M401,207.52s-6.81-28.42,10.1-42.53c0,.42-.08,6.31-.08,6.31s-11.37,5.48-5,36.22C406.07,207.52,405.06,211.31,401,207.52Z"/><path class="cls-4" d="M377.77,162.88h12.9a11.52,11.52,0,0,1,11.52,11.52v12.9a0,0,0,0,1,0,0h-12.9a11.52,11.52,0,0,1-11.52-11.52v-12.9A0,0,0,0,1,377.77,162.88Z"/><path class="cls-5" d="M376.92,194.64s-93.91,73.7,0,187.41c0,0-74.12,1.69-79.59-93.49,0,0-1.94-23.06,11.55-48.88,8.49-16.26,20.87-31.56,41.09-39.56C370.4,192,376.92,194.64,376.92,194.64Z"/></g><path id="Base" class="cls-6" d="M724.69,284.57h0c0,477.63-649.38,472.89-649.38,0h0c63.87,44.71,569.41,48.78,649.38,0Z"/></g></svg>