<svg id="Layer_1" data-name="Layer 1" xmlns="http://www.w3.org/2000/svg" xmlns:xlink="http://www.w3.org/1999/xlink" viewBox="0 0 800 800"><defs><style>.cls-1{fill:none;}.cls-2{fill:#74d669;}.cls-3{fill:#3e9931;}.cls-4{clip-path:url(#clip-path);}.cls-5{fill:#fff3d2;}.cls-6{fill:#28abe2;}.cls-7{clip-path:url(#clip-path-2);}.cls-8{fill:#ef4024;}.cls-9{clip-path:url(#clip-path-3);}.cls-10{fill:#e7b921;}</style><clipPath id="clip-path"><path class="cls-1" d="M626.68,226.8c0,50.51-104.65,91.45-233.74,91.45S159.2,277.31,159.2,226.8,87.5,25.54,216.6,25.54,626.68,176.3,626.68,226.8Z"/></clipPath><clipPath id="clip-path-2"><path class="cls-1" d="M626.48,226.8c0,50.51-104.65,91.45-233.74,91.45S159,277.31,159,226.8,244.78-4.12,373.87-4.12,626.48,176.3,626.48,226.8Z"/></clipPath><clipPath id="clip-path-3"><path class="cls-1" d="M637.74,220.62c0,50.51-115.91,98.51-245,98.51S159,278.19,159,227.68,554.12-17.12,683.12-12.42C1128.06,3.83,637.74,170.12,637.74,220.62Z"/></clipPath></defs><title>Lapicero_3</title><path class="cls-2" d="M626.68,708.41h0c0,105.45-467.48,105.45-467.48,0h0V226.8h0a839.16,839.16,0,0,0,467.48,0h0Z"/><ellipse class="cls-3" cx="392.94" cy="226.8" rx="233.74" ry="91.45"/><g class="cls-4"><polygon class="cls-5" points="184.85 57.77 166.87 178.73 230.74 255.69 256.49 156.88 184.85 57.77"/><path class="cls-6" d="M319.1,443.26,242,462.07c-3.43.83-6.68-.28-7.21-2.47L166.87,178.73l11.55,7.94L185,174.3,197.71,182l6.22-12.28,11,8.86,5.57-12.89,11.45,8.74,5.28-12.82,9.46,9.22,9.83-13.92,67.88,280.87C324.9,439.94,322.53,442.42,319.1,443.26Z"/><polygon class="cls-6" points="184.85 57.77 176.89 111.39 216.6 101.71 184.85 57.77"/></g><g class="cls-7"><polygon class="cls-5" points="380.73 21.03 336.7 135.11 382.16 224.19 428.92 133.42 380.73 21.03"/><path class="cls-8" d="M427.3,426.56,347.92,428c-3.54.06-6.46-1.73-6.5-4L336.7,135.11l9.53,10.28,9.15-10.62L366.08,145l8.76-10.62,8.76,11,8.26-11.35,9.25,11,8-11.35,7.21,11.07,12.63-11.43,4.72,288.92C433.68,424.59,430.83,426.49,427.3,426.56Z"/><polygon class="cls-8" points="380.73 21.03 361.23 71.6 402.08 70.85 380.73 21.03"/></g><g class="cls-9"><polygon class="cls-5" points="683.12 10.5 592.36 92.45 592.73 192.46 675.42 132.54 683.12 10.5"/><path class="cls-10" d="M541.72,393.42l-71.5-34.51c-3.18-1.54-5-4.46-4-6.49l126.14-260,3.86,13.47,13-5.35,4.92,14L626.71,109l2.84,13.81L642,116.43l3.28,14,12.23-6.53L659,137.05l16.43-4.51-126.13,260C548.31,394.55,544.9,395,541.72,393.42Z"/><polygon class="cls-10" points="683.12 10.5 642.9 46.83 679.7 64.6 683.12 10.5"/></g></svg>