<svg id="Layer_1" data-name="Layer 1" xmlns="http://www.w3.org/2000/svg" xmlns:xlink="http://www.w3.org/1999/xlink" viewBox="0 0 800 800"><defs><style>.cls-1{fill:none;}.cls-2{fill:#74d669;}.cls-3{fill:#3e9931;}.cls-4{clip-path:url(#clip-path);}.cls-5{fill:#fff3d2;}.cls-6{fill:#28abe2;}</style><clipPath id="clip-path"><path class="cls-1" d="M626.68,226.8c0,50.51-104.65,91.45-233.74,91.45S159.2,277.31,159.2,226.8,87.5,25.54,216.6,25.54,626.68,176.3,626.68,226.8Z"/></clipPath></defs><title>Lapicero_1</title><path class="cls-2" d="M626.68,708.41h0c0,105.45-467.48,105.45-467.48,0h0V226.8h0a839.16,839.16,0,0,0,467.48,0h0Z"/><ellipse class="cls-3" cx="392.94" cy="226.8" rx="233.74" ry="91.45"/><g class="cls-4"><polygon class="cls-5" points="184.85 57.77 166.87 178.73 230.74 255.69 256.49 156.88 184.85 57.77"/><path class="cls-6" d="M319.1,443.26,242,462.07c-3.43.83-6.68-.28-7.21-2.47L166.87,178.73l11.55,7.94L185,174.3,197.71,182l6.22-12.28,11,8.86,5.57-12.89,11.45,8.74,5.28-12.82,9.46,9.22,9.83-13.92,67.88,280.87C324.9,439.94,322.53,442.42,319.1,443.26Z"/><polygon class="cls-6" points="184.85 57.77 176.89 111.39 216.6 101.71 184.85 57.77"/></g></svg>