<svg id="Layer_1" data-name="Layer 1" xmlns="http://www.w3.org/2000/svg" viewBox="0 0 800 800"><defs><style>.cls-1{fill:#348f44;}.cls-2{fill:#ffca0b;stroke:#fff09c;stroke-miterlimit:10;}.cls-3{fill:#ef5124;}.cls-4{fill:#bb2626;}.cls-5{fill:#8d191c;}</style></defs><title>Macetero_2</title><path class="cls-1" d="M543.85,430.79s-93.76-2.21-98.52-34.6c0,0,48.42-14,84.24,10.6C542.34,415.55,543.85,430.79,543.85,430.79Z"/><path class="cls-1" d="M548.81,414.88s85.11-2.21,89.44-34.59c0,0-44-14-76.47,10.59C550.18,399.65,548.81,414.88,548.81,414.88Z"/><path class="cls-1" d="M540.33,432.51s21.15-49-13.72-95.83h13.15s20,66.71,10.29,91.08S540.33,432.51,540.33,432.51Z"/><path class="cls-2" d="M519.35,304.06S457.19,302.6,454,281.12c0,0,32.1-9.27,55.85,7C518.35,294,519.35,304.06,519.35,304.06Z"/><path class="cls-2" d="M519.35,305.93s-53.12,32.33-67.37,16c0,0,22-25.14,50.81-24.25C513.05,298,519.35,305.93,519.35,305.93Z"/><path class="cls-2" d="M519.35,308S485,359.8,465.16,351c0,0,9.24-32.11,35.68-43.54C510.27,303.42,519.35,308,519.35,308Z"/><path class="cls-2" d="M520.08,310s.84,62.18-20.5,66.14c0,0-10.45-31.74,4.95-56.08C510,311.38,520.08,310,520.08,310Z"/><path class="cls-2" d="M490.53,239.45s43,44.88,30.13,62.33c0,0-29.3-16.07-34.64-44.37C484.12,247.32,490.53,239.45,490.53,239.45Z"/><path class="cls-2" d="M524.33,297.58s-22.18-58.1-3.5-69.15c0,0,20.74,26.21,14.64,54.36C533.3,292.83,524.33,297.58,524.33,297.58Z"/><path class="cls-2" d="M551.36,307.54s70.11-1.47,73.67-22.94c0,0-36.21-9.27-63,7A23.17,23.17,0,0,0,551.36,307.54Z"/><path class="cls-2" d="M551.36,309.41s59.91,32.33,76,16c0,0-24.83-25.14-57.3-24.24A27.85,27.85,0,0,0,551.36,309.41Z"/><path class="cls-2" d="M551.36,311.43s38.72,51.85,61.12,43.09c0,0-10.43-32.11-40.24-43.54C561.61,306.9,551.36,311.43,551.36,311.43Z"/><path class="cls-2" d="M550.54,313.48s-.95,62.18,23.12,66.13c0,0,11.79-31.74-5.58-56.07C561.88,314.86,550.54,313.48,550.54,313.48Z"/><path class="cls-2" d="M583.86,242.92s-48.53,44.89-34,62.34c0,0,33-16.07,39.07-44.37C591.1,250.79,583.86,242.92,583.86,242.92Z"/><path class="cls-2" d="M556.14,230.05s9.2,61.51-11.42,68.29c0,0-14.63-30-2.64-56.23C546.35,232.77,556.14,230.05,556.14,230.05Z"/><path class="cls-2" d="M535.68,225.52s19.39,59.09.21,69.24c0,0-19.47-27.17-12-55C526.49,229.84,535.68,225.52,535.68,225.52Z"/><path class="cls-2" d="M522.12,318.38s-22.17,63.14-3.49,75.15c0,0,20.73-28.48,14.64-59.07A25.51,25.51,0,0,0,522.12,318.38Z"/><path class="cls-2" d="M553.93,391.77s9.2-66.84-11.41-74.22c0,0-14.63,32.66-2.64,61.12A24.21,24.21,0,0,0,553.93,391.77Z"/><path class="cls-2" d="M533.48,396.7s19.39-64.22.2-75.25c0,0-19.46,29.52-12,59.77A25.24,25.24,0,0,0,533.48,396.7Z"/><rect class="cls-3" x="506.18" y="283.54" width="55.15" height="55.15" rx="27.57" ry="27.57"/><path class="cls-1" d="M260.28,429.08s-93.76-2.21-98.53-34.6c0,0,48.43-14,84.24,10.6C258.76,413.84,260.28,429.08,260.28,429.08Z"/><path class="cls-1" d="M265.23,413.17s85.12-2.21,89.44-34.59c0,0-44-14-76.47,10.59C266.61,397.93,265.23,413.17,265.23,413.17Z"/><path class="cls-1" d="M256.75,430.79S277.9,381.84,243,335h13.14s20,66.71,10.29,91.08S256.75,430.79,256.75,430.79Z"/><path class="cls-2" d="M235.78,302.35s-62.17-1.46-65.33-22.94c0,0,32.11-9.27,55.85,7C234.77,292.25,235.78,302.35,235.78,302.35Z"/><path class="cls-2" d="M235.78,304.22s-53.12,32.33-67.37,16c0,0,22-25.14,50.8-24.25C229.48,296.26,235.78,304.22,235.78,304.22Z"/><path class="cls-2" d="M235.78,306.24s-34.34,51.85-54.19,43.09c0,0,9.24-32.11,35.67-43.54C226.69,301.71,235.78,306.24,235.78,306.24Z"/><path class="cls-2" d="M236.51,308.29s.84,62.18-20.5,66.14c0,0-10.46-31.74,4.94-56.08C226.45,309.67,236.51,308.29,236.51,308.29Z"/><path class="cls-2" d="M207,237.74s43,44.88,30.13,62.33c0,0-29.3-16.07-34.64-44.37C200.54,245.61,207,237.74,207,237.74Z"/><path class="cls-2" d="M240.75,295.87s-22.17-58.1-3.49-69.15c0,0,20.73,26.21,14.64,54.36C249.72,291.12,240.75,295.87,240.75,295.87Z"/><path class="cls-2" d="M267.78,305.83s70.12-1.47,73.68-22.94c0,0-36.21-9.27-63,7A23.19,23.19,0,0,0,267.78,305.83Z"/><path class="cls-2" d="M267.78,307.7s59.91,32.33,76,16c0,0-24.83-25.14-57.29-24.24A27.89,27.89,0,0,0,267.78,307.7Z"/><path class="cls-2" d="M267.78,309.72s38.72,51.85,61.12,43.09c0,0-10.42-32.11-40.24-43.54C278,305.19,267.78,309.72,267.78,309.72Z"/><path class="cls-2" d="M267,311.77S266,374,290.08,377.9c0,0,11.79-31.74-5.58-56.07C278.31,313.15,267,311.77,267,311.77Z"/><path class="cls-2" d="M300.29,241.21s-48.54,44.89-34,62.34c0,0,33-16.07,39.06-44.37C307.52,249.08,300.29,241.21,300.29,241.21Z"/><path class="cls-2" d="M272.56,228.34s9.2,61.5-11.41,68.29c0,0-14.64-30-2.65-56.23C262.78,231.06,272.56,228.34,272.56,228.34Z"/><path class="cls-2" d="M252.1,223.81s19.39,59.09.21,69.24c0,0-19.47-27.17-12-55C242.92,228.13,252.1,223.81,252.1,223.81Z"/><path class="cls-2" d="M238.55,316.67s-22.18,63.14-3.5,75.15c0,0,20.74-28.48,14.64-59.07A25.51,25.51,0,0,0,238.55,316.67Z"/><path class="cls-2" d="M270.36,390.06s9.2-66.84-11.42-74.22c0,0-14.63,32.66-2.64,61.12A24.21,24.21,0,0,0,270.36,390.06Z"/><path class="cls-2" d="M249.9,395s19.39-64.22.21-75.25c0,0-19.47,29.52-12.05,59.77A25.24,25.24,0,0,0,249.9,395Z"/><rect class="cls-3" x="222.61" y="281.82" width="55.15" height="55.15" rx="27.57" ry="27.57"/><rect class="cls-4" y="432.94" width="798.61" height="12.75" rx="1.12" ry="1.12"/><polygon class="cls-4" points="711.17 576.19 97.34 576.19 15.57 463.5 782.59 463.5 711.17 576.19"/><path class="cls-5" d="M782.59,463.5h-767A9,9,0,0,1,7,457.24L3.19,445.69H795l-3.76,11.55A9,9,0,0,1,782.59,463.5Z"/></svg>