<svg id="Layer_1" data-name="Layer 1" xmlns="http://www.w3.org/2000/svg" viewBox="0 0 800 800"><defs><style>.cls-1{fill:#348f44;}.cls-2{fill:#ffca0b;stroke:#fff09c;stroke-miterlimit:10;}.cls-3{fill:#ef5124;}.cls-4{fill:#bb2626;}.cls-5{fill:#8d191c;}</style></defs><title>Macetero_1</title><path class="cls-1" d="M422,429.08s-93.76-2.21-98.52-34.6c0,0,48.42-14,84.23,10.6C420.52,413.84,422,429.08,422,429.08Z"/><path class="cls-1" d="M427,413.17s85.12-2.21,89.44-34.59c0,0-43.95-14-76.47,10.59C428.36,397.93,427,413.17,427,413.17Z"/><path class="cls-1" d="M418.51,430.79s21.14-49-13.72-95.82h13.15s20,66.71,10.28,91.08S418.51,430.79,418.51,430.79Z"/><path class="cls-2" d="M397.53,302.35s-62.17-1.46-65.33-22.94c0,0,32.11-9.27,55.86,7C396.53,292.25,397.53,302.35,397.53,302.35Z"/><path class="cls-2" d="M397.53,304.22s-53.12,32.33-67.37,16c0,0,22-25.14,50.8-24.25C391.23,296.26,397.53,304.22,397.53,304.22Z"/><path class="cls-2" d="M397.53,306.24s-34.33,51.85-54.19,43.09c0,0,9.24-32.11,35.68-43.54C388.44,301.71,397.53,306.24,397.53,306.24Z"/><path class="cls-2" d="M398.26,308.29s.84,62.18-20.5,66.14c0,0-10.46-31.74,4.95-56.08C388.2,309.67,398.26,308.29,398.26,308.29Z"/><path class="cls-2" d="M368.71,237.74s43,44.88,30.13,62.33c0,0-29.3-16.07-34.64-44.37C362.29,245.61,368.71,237.74,368.71,237.74Z"/><path class="cls-2" d="M402.51,295.87s-22.18-58.1-3.5-69.15c0,0,20.73,26.21,14.64,54.36C411.48,291.12,402.51,295.87,402.51,295.87Z"/><path class="cls-2" d="M429.54,305.83s70.11-1.47,73.67-22.94c0,0-36.21-9.27-63,7A23.2,23.2,0,0,0,429.54,305.83Z"/><path class="cls-2" d="M429.54,307.7s59.9,32.33,76,16c0,0-24.84-25.14-57.3-24.24A27.85,27.85,0,0,0,429.54,307.7Z"/><path class="cls-2" d="M429.54,309.72s38.72,51.85,61.11,43.09c0,0-10.42-32.11-40.23-43.54C439.78,305.19,429.54,309.72,429.54,309.72Z"/><path class="cls-2" d="M428.72,311.77s-1,62.18,23.11,66.13c0,0,11.8-31.74-5.57-56.07C440.06,313.15,428.72,311.77,428.72,311.77Z"/><path class="cls-2" d="M462,241.21s-48.54,44.89-34,62.34c0,0,33-16.07,39.07-44.37C469.28,249.08,462,241.21,462,241.21Z"/><path class="cls-2" d="M434.31,228.34s9.2,61.5-11.41,68.29c0,0-14.63-30-2.64-56.23C424.53,231.06,434.31,228.34,434.31,228.34Z"/><path class="cls-2" d="M413.86,223.81s19.39,59.09.2,69.24c0,0-19.46-27.17-12-55C404.67,228.13,413.86,223.81,413.86,223.81Z"/><path class="cls-2" d="M400.3,316.67s-22.17,63.14-3.49,75.15c0,0,20.73-28.48,14.64-59.07A25.54,25.54,0,0,0,400.3,316.67Z"/><path class="cls-2" d="M432.11,390.06s9.2-66.84-11.41-74.22c0,0-14.63,32.66-2.65,61.12A24.24,24.24,0,0,0,432.11,390.06Z"/><path class="cls-2" d="M411.65,395s19.39-64.22.21-75.25c0,0-19.47,29.52-12,59.77A25.25,25.25,0,0,0,411.65,395Z"/><rect class="cls-3" x="384.36" y="281.82" width="55.15" height="55.15" rx="27.57" ry="27.57"/><rect class="cls-4" y="432.94" width="798.61" height="12.75" rx="1.12" ry="1.12"/><polygon class="cls-4" points="711.17 576.19 97.34 576.19 15.57 463.5 782.59 463.5 711.17 576.19"/><path class="cls-5" d="M782.59,463.5h-767A9,9,0,0,1,7,457.24L3.19,445.69H795l-3.76,11.55A9,9,0,0,1,782.59,463.5Z"/></svg>