<svg id="Layer_1" data-name="Layer 1" xmlns="http://www.w3.org/2000/svg" viewBox="0 0 800 800"><defs><style>.cls-1{fill:#348f44;}.cls-2{fill:#ffca0b;stroke:#fff09c;stroke-miterlimit:10;}.cls-3{fill:#ef5124;}.cls-4{fill:#bb2626;}.cls-5{fill:#8d191c;}</style></defs><title>Macetero_3</title><path class="cls-1" d="M138.46,430.68s-93.77-2.21-98.53-34.6c0,0,48.42-14,84.24,10.6C136.94,415.44,138.46,430.68,138.46,430.68Z"/><path class="cls-1" d="M143.41,414.77s85.11-2.21,89.44-34.59c0,0-44-14-76.47,10.59C144.78,399.53,143.41,414.77,143.41,414.77Z"/><path class="cls-1" d="M134.93,432.39s21.15-48.95-13.72-95.82h13.15s20,66.71,10.29,91.08S134.93,432.39,134.93,432.39Z"/><path class="cls-2" d="M114,304S51.79,302.49,48.63,281c0,0,32.11-9.27,55.85,7C113,293.85,114,304,114,304Z"/><path class="cls-2" d="M114,305.82s-53.12,32.33-67.38,16c0,0,22-25.14,50.81-24.25C107.65,297.86,114,305.82,114,305.82Z"/><path class="cls-2" d="M114,307.84s-34.34,51.85-54.2,43.09c0,0,9.25-32.11,35.68-43.54C104.87,303.31,114,307.84,114,307.84Z"/><path class="cls-2" d="M114.68,309.89s.84,62.18-20.5,66.14c0,0-10.45-31.74,4.95-56.08C104.62,311.27,114.68,309.89,114.68,309.89Z"/><path class="cls-2" d="M85.13,239.34s43,44.88,30.13,62.33c0,0-29.3-16.07-34.64-44.37C78.72,247.21,85.13,239.34,85.13,239.34Z"/><path class="cls-2" d="M118.93,297.47s-22.18-58.1-3.49-69.15c0,0,20.73,26.21,14.63,54.36C127.9,292.72,118.93,297.47,118.93,297.47Z"/><path class="cls-2" d="M146,307.43s70.11-1.47,73.67-22.94c0,0-36.21-9.27-63,7A23.2,23.2,0,0,0,146,307.43Z"/><path class="cls-2" d="M146,309.3s59.91,32.33,76,16c0,0-24.83-25.14-57.3-24.24A27.85,27.85,0,0,0,146,309.3Z"/><path class="cls-2" d="M146,311.32s38.72,51.85,61.12,43.09c0,0-10.43-32.11-40.24-43.54C156.21,306.79,146,311.32,146,311.32Z"/><path class="cls-2" d="M145.14,313.37s-.95,62.18,23.12,66.13c0,0,11.79-31.74-5.58-56.07C156.48,314.75,145.14,313.37,145.14,313.37Z"/><path class="cls-2" d="M178.46,242.81s-48.53,44.89-34,62.34c0,0,33.05-16.07,39.07-44.37C185.7,250.68,178.46,242.81,178.46,242.81Z"/><path class="cls-2" d="M150.74,229.94s9.2,61.5-11.42,68.29c0,0-14.63-30-2.64-56.23C141,232.66,150.74,229.94,150.74,229.94Z"/><path class="cls-2" d="M130.28,225.41s19.39,59.09.21,69.24c0,0-19.47-27.17-12.05-55C121.09,229.73,130.28,225.41,130.28,225.41Z"/><path class="cls-2" d="M116.73,318.27s-22.18,63.14-3.5,75.15c0,0,20.73-28.48,14.64-59.07A25.51,25.51,0,0,0,116.73,318.27Z"/><path class="cls-2" d="M148.53,391.66s9.2-66.84-11.41-74.22c0,0-14.63,32.66-2.64,61.12A24.21,24.21,0,0,0,148.53,391.66Z"/><path class="cls-2" d="M128.08,396.59s19.39-64.22.2-75.25c0,0-19.46,29.52-12,59.77A25.24,25.24,0,0,0,128.08,396.59Z"/><rect class="cls-3" x="100.78" y="283.42" width="55.15" height="55.15" rx="27.57" ry="27.57"/><path class="cls-1" d="M705.61,430.79s-93.76-2.21-98.53-34.6c0,0,48.43-14,84.24,10.6C704.09,415.55,705.61,430.79,705.61,430.79Z"/><path class="cls-1" d="M710.56,414.88s85.12-2.21,89.44-34.59c0,0-44-14-76.47,10.59C711.94,399.65,710.56,414.88,710.56,414.88Z"/><path class="cls-1" d="M702.08,432.51s21.15-49-13.71-95.83h13.14s20,66.71,10.29,91.08S702.08,432.51,702.08,432.51Z"/><path class="cls-2" d="M681.11,304.06s-62.17-1.46-65.33-22.94c0,0,32.11-9.27,55.85,7C680.1,294,681.11,304.06,681.11,304.06Z"/><path class="cls-2" d="M681.11,305.93s-53.12,32.33-67.37,16c0,0,22-25.14,50.8-24.25C674.81,298,681.11,305.93,681.11,305.93Z"/><path class="cls-2" d="M681.11,308S646.77,359.8,626.92,351c0,0,9.24-32.11,35.67-43.54C672,303.42,681.11,308,681.11,308Z"/><path class="cls-2" d="M681.84,310s.84,62.18-20.5,66.14c0,0-10.46-31.74,4.94-56.08C671.78,311.38,681.84,310,681.84,310Z"/><path class="cls-2" d="M652.29,239.45s43,44.88,30.13,62.33c0,0-29.3-16.07-34.64-44.37C645.87,247.32,652.29,239.45,652.29,239.45Z"/><path class="cls-2" d="M686.08,297.58s-22.17-58.1-3.49-69.15c0,0,20.73,26.21,14.64,54.36C695.05,292.83,686.08,297.58,686.08,297.58Z"/><path class="cls-2" d="M713.11,307.54s70.12-1.47,73.68-22.94c0,0-36.21-9.27-63,7A23.16,23.16,0,0,0,713.11,307.54Z"/><path class="cls-2" d="M713.11,309.41s59.91,32.33,76,16c0,0-24.83-25.14-57.29-24.24A27.89,27.89,0,0,0,713.11,309.41Z"/><path class="cls-2" d="M713.11,311.43s38.72,51.85,61.12,43.09c0,0-10.42-32.11-40.24-43.54C723.36,306.9,713.11,311.43,713.11,311.43Z"/><path class="cls-2" d="M712.29,313.48s-.95,62.18,23.12,66.13c0,0,11.79-31.74-5.58-56.07C723.64,314.86,712.29,313.48,712.29,313.48Z"/><path class="cls-2" d="M745.62,242.92s-48.54,44.89-34,62.34c0,0,33-16.07,39.06-44.37C752.85,250.79,745.62,242.92,745.62,242.92Z"/><path class="cls-2" d="M717.89,230.05s9.2,61.51-11.41,68.29c0,0-14.63-30-2.65-56.23C708.11,232.77,717.89,230.05,717.89,230.05Z"/><path class="cls-2" d="M697.43,225.52s19.39,59.09.21,69.24c0,0-19.47-27.17-12-55C688.25,229.84,697.43,225.52,697.43,225.52Z"/><path class="cls-2" d="M683.88,318.38s-22.18,63.14-3.5,75.15c0,0,20.74-28.48,14.64-59.07A25.51,25.51,0,0,0,683.88,318.38Z"/><path class="cls-2" d="M715.69,391.77s9.2-66.84-11.42-74.22c0,0-14.63,32.66-2.64,61.12A24.21,24.21,0,0,0,715.69,391.77Z"/><path class="cls-2" d="M695.23,396.7s19.39-64.22.21-75.25c0,0-19.47,29.52-12.05,59.77A25.24,25.24,0,0,0,695.23,396.7Z"/><rect class="cls-3" x="667.94" y="283.54" width="55.15" height="55.15" rx="27.57" ry="27.57"/><path class="cls-1" d="M422,429.08s-93.76-2.21-98.52-34.6c0,0,48.42-14,84.23,10.6C420.52,413.84,422,429.08,422,429.08Z"/><path class="cls-1" d="M427,413.17s85.12-2.21,89.44-34.59c0,0-43.95-14-76.47,10.59C428.36,397.93,427,413.17,427,413.17Z"/><path class="cls-1" d="M418.51,430.79s21.14-49-13.72-95.82h13.15s20,66.71,10.28,91.08S418.51,430.79,418.51,430.79Z"/><path class="cls-2" d="M397.53,302.35s-62.17-1.46-65.33-22.94c0,0,32.11-9.27,55.86,7C396.53,292.25,397.53,302.35,397.53,302.35Z"/><path class="cls-2" d="M397.53,304.22s-53.12,32.33-67.37,16c0,0,22-25.14,50.8-24.25C391.23,296.26,397.53,304.22,397.53,304.22Z"/><path class="cls-2" d="M397.53,306.24s-34.33,51.85-54.19,43.09c0,0,9.24-32.11,35.68-43.54C388.44,301.71,397.53,306.24,397.53,306.24Z"/><path class="cls-2" d="M398.26,308.29s.84,62.18-20.5,66.14c0,0-10.46-31.74,4.95-56.08C388.2,309.67,398.26,308.29,398.26,308.29Z"/><path class="cls-2" d="M368.71,237.74s43,44.88,30.13,62.33c0,0-29.3-16.07-34.64-44.37C362.29,245.61,368.71,237.74,368.71,237.74Z"/><path class="cls-2" d="M402.51,295.87s-22.18-58.1-3.5-69.15c0,0,20.73,26.21,14.64,54.36C411.48,291.12,402.51,295.87,402.51,295.87Z"/><path class="cls-2" d="M429.54,305.83s70.11-1.47,73.67-22.94c0,0-36.21-9.27-63,7A23.2,23.2,0,0,0,429.54,305.83Z"/><path class="cls-2" d="M429.54,307.7s59.9,32.33,76,16c0,0-24.84-25.14-57.3-24.24A27.85,27.85,0,0,0,429.54,307.7Z"/><path class="cls-2" d="M429.54,309.72s38.72,51.85,61.11,43.09c0,0-10.42-32.11-40.23-43.54C439.78,305.19,429.54,309.72,429.54,309.72Z"/><path class="cls-2" d="M428.72,311.77s-1,62.18,23.11,66.13c0,0,11.8-31.74-5.57-56.07C440.06,313.15,428.72,311.77,428.72,311.77Z"/><path class="cls-2" d="M462,241.21s-48.54,44.89-34,62.34c0,0,33-16.07,39.07-44.37C469.28,249.08,462,241.21,462,241.21Z"/><path class="cls-2" d="M434.31,228.34s9.2,61.5-11.41,68.29c0,0-14.63-30-2.64-56.23C424.53,231.06,434.31,228.34,434.31,228.34Z"/><path class="cls-2" d="M413.86,223.81s19.39,59.09.2,69.24c0,0-19.46-27.17-12-55C404.67,228.13,413.86,223.81,413.86,223.81Z"/><path class="cls-2" d="M400.3,316.67s-22.17,63.14-3.49,75.15c0,0,20.73-28.48,14.64-59.07A25.54,25.54,0,0,0,400.3,316.67Z"/><path class="cls-2" d="M432.11,390.06s9.2-66.84-11.41-74.22c0,0-14.63,32.66-2.65,61.12A24.24,24.24,0,0,0,432.11,390.06Z"/><path class="cls-2" d="M411.65,395s19.39-64.22.21-75.25c0,0-19.47,29.52-12,59.77A25.25,25.25,0,0,0,411.65,395Z"/><rect class="cls-3" x="384.36" y="281.82" width="55.15" height="55.15" rx="27.57" ry="27.57"/><rect class="cls-4" y="432.94" width="798.61" height="12.75" rx="1.12" ry="1.12"/><polygon class="cls-4" points="711.17 576.19 97.34 576.19 15.57 463.5 782.59 463.5 711.17 576.19"/><path class="cls-5" d="M782.59,463.5h-767A9,9,0,0,1,7,457.24L3.19,445.69H795l-3.76,11.55A9,9,0,0,1,782.59,463.5Z"/></svg>