<svg id="Layer_1" data-name="Layer 1" xmlns="http://www.w3.org/2000/svg" viewBox="0 0 285.8 800"><defs><style>.cls-1{fill:#e8e7e7;opacity:0.46;}.cls-2{fill:#fff;stroke:#1b75bb;stroke-width:3px;}.cls-2,.cls-6{stroke-miterlimit:10;}.cls-3{fill:#25a9e0;}.cls-4{fill:#37b34a;}.cls-5{fill:#71d37c;}.cls-6{fill:none;stroke:#00adee;stroke-width:0.42px;}</style></defs><title>Botella</title><rect class="cls-1" x="33.61" y="452.6" width="221.32" height="44.12"/><path class="cls-2" d="M78.61,29.41v94A32.71,32.71,0,0,1,69,146.58l-57,57A36.06,36.06,0,0,0,1.47,229.1V405.23a34.46,34.46,0,0,0,8.9,23.11l23.24,25.71v41l-18.33,21.4A28.73,28.73,0,0,0,8.36,535.2V778.27A21.73,21.73,0,0,0,30.09,800H258.92a21.73,21.73,0,0,0,21.73-21.73V535.35a28.78,28.78,0,0,0-7.09-18.91l-18.62-21.35V454.7L276.62,428a34.48,34.48,0,0,0,7.7-21.72V229.12a36.1,36.1,0,0,0-10.58-25.53l-57.87-57.77a32.69,32.69,0,0,1-9.61-23.15V29.41Z"/><rect class="cls-3" x="1.47" y="289.4" width="282.85" height="104.05"/><path class="cls-4" d="M75.52,0H209.26a1.63,1.63,0,0,1,1.63,1.63V68.79a0,0,0,0,1,0,0h-137a0,0,0,0,1,0,0V1.63A1.63,1.63,0,0,1,75.52,0Z"/><rect class="cls-5" x="73.89" y="68.79" width="136.99" height="6.36"/><line class="cls-6" x1="73.89" y1="58.67" x2="210.89" y2="58.67"/></svg>