<svg xmlns="http://www.w3.org/2000/svg" viewBox="0 0 392 316.99"><defs><style>.cls-1{fill:#fcf494;stroke:#d3c429;stroke-miterlimit:10;}.cls-2{fill:#d3c429;}.cls-3{fill:#ee5f23;}.cls-4{fill:#f05225;}</style></defs><title>Bolsa 2 pelotas</title><g id="Layer_2" data-name="Layer 2"><path class="cls-1" d="M165,122.23s-35,40.34-45,62.67-16.66,60.33-10.66,68S99,272.57,99,272.57s-9.66,9.33-2.33,19.66,23,0,23,0,2.67,8.34,14.67,7.34,23.33-4.67,23.33-5.67,12,8,21.67,7.85S220,305.23,236,296.9s12-3.33,12-3.33,23.34,4.66,25-3.67,4.67-.33,4.67-.33.67,4,16.33,3,12-9,12-9-5-16-9.66-25.34-5.67-21.66-5.67-21.66-3.67-47.67-18-71S260,137.19,238,116.21c0,.21-15.54-2.25-33.33-1.31C189,115.73,165,122.23,165,122.23Z"/><path class="cls-1" d="M234.61,92.78s2.5-11.25,11-17.25,7.12-1.88,11.62-8.75S268,47.9,269.86,48.15s5.62-20.37-2.75-22.25-24.88-3-30.75,0l-5.88,3a8.76,8.76,0,0,1-2.37-4.85c-.25-2.77-.5-9.9-18.38-11.27s-19.87,5.87-19.87,5.87,2.22,16.13,1.75,17.75c-.57,1.93-1.38,3.38-10,1.25s-4.63-7.12-16.25-6.5-13.38,3.38-16.5,3.38-13.5-2.75-26.25,2.75,2.87,20.37,6.37,22a58.64,58.64,0,0,1,22.5,16.87c9.13,11.13,14.74,26.65,14.74,26.65S200.17,91.9,234.61,92.78Z"/><path class="cls-2" d="M124.66,36.56A13.38,13.38,0,0,0,122.15,39a10.3,10.3,0,0,0-1,1.44,7.81,7.81,0,0,0-.67,1.58,6.33,6.33,0,0,0-.22,1.67,5.37,5.37,0,0,0,.27,1.64c.09.27.22.52.32.78l.42.73a9.49,9.49,0,0,0,1.06,1.31,12.55,12.55,0,0,0,1.27,1.15,15.44,15.44,0,0,0,1.4,1,17.23,17.23,0,0,0,1.49.89c.49.3,1,.54,1.54.8s1.05.49,1.58.73,1.08.45,1.62.66c1.08.43,2.2.79,3.3,1.17l-.12,0,1.7.12a16.28,16.28,0,0,0,1.7.09l1.7-.08c.28,0,.56,0,.84-.05l.83-.14c.56-.1,1.11-.18,1.66-.3l1.6-.49A10.36,10.36,0,0,0,146,53a9.89,9.89,0,0,0,1.49-.75c.46-.3,1-.55,1.4-.89l1.31-1,1.21-1.14c.38-.4.73-.82,1.11-1.23s.66-.89,1-1.33.64-.91.92-1.39.56-1,.8-1.45.47-1,.66-1.47l0,.26a8.89,8.89,0,0,1,.19-1.25,12,12,0,0,1,.3-1.18,13.57,13.57,0,0,1,.89-2.24c.2-.35.38-.71.6-1s.45-.67.69-1l.79-.92c.28-.28.59-.54.88-.81a7.28,7.28,0,0,1,1-.72,5.85,5.85,0,0,1,1-.64l1-.55,1.1-.41.55-.19.57-.13,1.13-.25a11.24,11.24,0,0,1,1.15-.13l1.13-.1,0,.2-1.09.29c-.36.11-.73.17-1.08.3l-1,.39-.52.19-.48.26-1,.49-.9.6a6.11,6.11,0,0,0-.85.67,6.74,6.74,0,0,0-.78.73c-.23.26-.48.52-.7.79l-.63.86-.54.91c-.17.3-.3.63-.45,1a12.93,12.93,0,0,0-.67,2,9.91,9.91,0,0,0-.21,1,7.48,7.48,0,0,0-.11,1v.14l0,.12a13.31,13.31,0,0,1-.72,1.75c-.26.56-.55,1.09-.86,1.62s-.65,1-1,1.55-.75,1-1.14,1.44-.83.9-1.26,1.33l-1.38,1.22L150,52.93c-.5.35-1.07.61-1.59.92a12.63,12.63,0,0,1-1.67.77,11.72,11.72,0,0,1-1.72.61l-1.76.47c-.6.11-1.2.17-1.8.26l-.89.13c-.3,0-.61,0-.91,0l-1.8,0c-.6,0-1.19-.1-1.79-.14l-1.78-.19h-.06l0,0c-1.12-.42-2.24-.82-3.33-1.3-.55-.23-1.1-.47-1.64-.73s-1.08-.5-1.6-.8-1.06-.55-1.57-.88a16.32,16.32,0,0,1-1.51-1A16.61,16.61,0,0,1,123.07,50a13,13,0,0,1-1.29-1.28,10,10,0,0,1-1.1-1.48c-.14-.27-.29-.54-.42-.82a9.18,9.18,0,0,1-.31-.88,5.74,5.74,0,0,1-.23-1.84,6.56,6.56,0,0,1,.32-1.81,8.22,8.22,0,0,1,.78-1.64,10.17,10.17,0,0,1,1.06-1.45,13.38,13.38,0,0,1,2.67-2.37Z"/><path class="cls-2" d="M191.67,36.05l.37,0a6.83,6.83,0,0,0,1-.1,10.65,10.65,0,0,0,3.43-1.14,11.31,11.31,0,0,0,3.86-3.2,8.45,8.45,0,0,0,1.31-2.44,8.28,8.28,0,0,0,.3-2.84,6.06,6.06,0,0,0-.54-2.73,3.93,3.93,0,0,0-2-1.69,21.6,21.6,0,0,0-2.53-.94l-2.35-.76c-1.46-.46-2.66-.91-3.5-1.19l-1.32-.48,1.37.29c.87.21,2.12.46,3.61.84l2.39.59a17.29,17.29,0,0,1,2.69.85,6.58,6.58,0,0,1,1.36.76,3.94,3.94,0,0,1,1.09,1.27,7,7,0,0,1,.69,3.17,9,9,0,0,1-.39,3.16A8.57,8.57,0,0,1,201,32.13a10.53,10.53,0,0,1-2.1,1.93,12.29,12.29,0,0,1-2.21,1.23,10,10,0,0,1-2,.64,11.21,11.21,0,0,1-1.63.19,6.09,6.09,0,0,1-1,0Z"/><path class="cls-2" d="M175.34,34s1.55,2.4,3.66,6.13c1,1.87,2.25,4.06,3.42,6.47.6,1.2,1.19,2.46,1.77,3.74s1.14,2.6,1.72,3.92,1.06,2.66,1.6,4,.94,2.65,1.36,3.93.69,2.57.93,3.79.42,2.38.57,3.45.17,2.08.22,3a15.38,15.38,0,0,1,0,2.28c0,1.26-.11,2-.11,2h-.2s-.17-.71-.39-1.93c-.14-.61-.21-1.35-.44-2.19s-.42-1.78-.63-2.81-.58-2.12-.88-3.29-.71-2.38-1-3.65-.75-2.58-1.13-3.91-.85-2.68-1.33-4-.95-2.66-1.48-4-1-2.57-1.56-3.79-1.06-2.4-1.55-3.51-1-2.16-1.44-3.13c-1.83-3.85-3.21-6.34-3.21-6.34Z"/><path class="cls-2" d="M162.44,52.82a59.28,59.28,0,0,0,4.78,6.2c.78.88,1.62,1.81,2.55,2.78s1.94,1.94,3,2.94c.53.51,1.09,1,1.64,1.49s1.13,1.07,1.69,1.62,1.09,1.24,1.6,1.88,1,1.3,1.41,2a37,37,0,0,1,2.35,4.2,38.81,38.81,0,0,1,1.78,4.28,40.81,40.81,0,0,1,1.26,4.12c.36,1.32.61,2.6.82,3.77s.34,2.26.44,3.22.15,1.81.15,2.51a15.67,15.67,0,0,1,0,1.61l0,.56-.09-.56c-.05-.36-.14-.9-.27-1.57s-.31-1.49-.5-2.42-.5-2-.81-3.09-.7-2.34-1.13-3.6-.93-2.58-1.48-3.92-1.18-2.7-1.86-4.06a38.32,38.32,0,0,0-2.29-4c-.4-.65-.87-1.24-1.3-1.87s-.94-1.14-1.4-1.71l-1.58-1.62c-.54-.54-1.1-1.06-1.62-1.6a52.13,52.13,0,0,1-5.21-6.28,39.67,39.67,0,0,1-3-4.92A20.13,20.13,0,0,1,162.44,52.82Z"/><path class="cls-2" d="M202.13,29.4s.51.55,1.31,1.57c.39.51.86,1.14,1.37,1.88s1.08,1.6,1.63,2.57,1.13,2,1.68,3.19a33.24,33.24,0,0,1,1.46,3.77q.3,1,.57,2.07c.14.72.33,1.43.42,2.17.22,1.49.32,3,.43,4.43.21,3,.43,5.9.5,8.67s0,5.35-.17,7.57c-.26,4.42-.75,7.36-.75,7.36h-.2s-.4-3-.65-7.36c-.14-2.21-.26-4.78-.31-7.53s.05-5.7,0-8.63c0-1.46-.06-3-.2-4.34,0-.7-.2-1.39-.29-2.08s-.29-1.35-.44-2c-.36-1.31-.77-2.55-1.22-3.72s-.93-2.25-1.42-3.23-1-1.86-1.43-2.63-.88-1.42-1.24-2c-.72-1.06-1.18-1.63-1.18-1.63Z"/><path class="cls-2" d="M205.87,94.22a17.84,17.84,0,0,0,.39-1.76,29,29,0,0,0,.3-8c-.06-.55-.13-1-.19-1.33l-.08-.5s.05.18.12.49.2.77.3,1.31a27,27,0,0,1,.48,4.07,29.86,29.86,0,0,1-.09,4.11c-.11,1.12-.26,1.88-.26,1.88Z"/><path class="cls-2" d="M221.13,57a11.76,11.76,0,0,1,0-1.88c0-.63.12-1.26.21-1.88a19.28,19.28,0,0,1,1-3.65c.24-.59.5-1.17.77-1.74s.61-1.14.87-1.65a11,11,0,0,0,1-3.25,8.2,8.2,0,0,0,.1-.85l.08-.93.16-1.84c.06-.62.11-1.23.19-1.84a16,16,0,0,1,.32-1.9,13.11,13.11,0,0,1,.59-1.87,10.66,10.66,0,0,1,.87-1.76,9.17,9.17,0,0,1,1.21-1.56,6.17,6.17,0,0,1,1.63-1.19l1-.51-.53,1a5.77,5.77,0,0,0-.58,2.53,6.42,6.42,0,0,0,.53,2.59,9.25,9.25,0,0,0,3.56,3.93,17.63,17.63,0,0,0,2.37,1.31c.82.37,1.66.71,2.52,1s1.72.58,2.6.82,1.76.44,2.67.68,1.8.43,2.69.62,1.79.36,2.69.52,1.81.27,2.71.42,1.81.22,2.71.33,1.81.19,2.72.21,1.81.06,2.71.06,1.81,0,2.69-.13a16.2,16.2,0,0,0,2.57-.43l.12,0c.18,0,.43-.1.65-.16l.68-.23a10.88,10.88,0,0,0,1.3-.6A6.95,6.95,0,0,0,272,38.67a10.33,10.33,0,0,0,.21-3l.2,0a11.52,11.52,0,0,1,.25,1.56,8.46,8.46,0,0,1,0,1.59,7.1,7.1,0,0,1-1,3.09,8.41,8.41,0,0,1-2.3,2.38,9.74,9.74,0,0,1-1.43.84c-.25.12-.5.23-.76.33a7.41,7.41,0,0,1-.83.26l.12,0a15.45,15.45,0,0,1-2.89.72c-.95.15-1.9.24-2.86.31s-1.91.07-2.86,0-1.89-.08-2.84-.15-1.89-.2-2.82-.35-1.86-.3-2.78-.51-1.85-.4-2.76-.64-1.84-.46-2.72-.74-1.8-.51-2.69-.84-1.79-.65-2.66-1A23.47,23.47,0,0,1,236,41.14a19.77,19.77,0,0,1-2.37-1.61,11.61,11.61,0,0,1-3.55-4.48,7.86,7.86,0,0,1-.58-2.83,7.24,7.24,0,0,1,.53-2.88l.49.52A4.67,4.67,0,0,0,229.26,31a8.63,8.63,0,0,0-.89,1.49,9.39,9.39,0,0,0-.58,1.64,11.09,11.09,0,0,0-.33,1.7c-.08.53-.13,1.23-.17,1.78s-.09,1.24-.14,1.85L227,41.3l-.09.92c0,.33-.09.66-.15,1a11.3,11.3,0,0,1-1.38,3.72l-1,1.57c-.3.52-.6,1-.87,1.58a26.38,26.38,0,0,0-1.41,3.33,18.29,18.29,0,0,0-.78,3.57Z"/><path class="cls-2" d="M227.7,92.51s-.16-2-.21-4.91c0-1.47,0-3.19,0-5s.19-3.79.4-5.73c.08-1,.25-1.95.37-2.9s.33-1.88.49-2.78.41-1.76.6-2.58.48-1.56.7-2.26.51-1.31.73-1.86a11.62,11.62,0,0,1,.65-1.39l.63-1.18-.55,1.22a10.26,10.26,0,0,0-.56,1.42c-.18.56-.41,1.18-.6,1.88l-.54,2.28c-.14.82-.31,1.68-.44,2.57s-.23,1.83-.3,2.78-.16,1.9-.18,2.87c-.08,1.93-.08,3.86,0,5.67s.16,3.49.27,4.93c.23,2.89.5,4.77.5,4.77Z"/><path class="cls-3" d="M166.22,102.8s-7.61,3.27-6,6.18,2.91,3,2.91,3-3.28,2-3.13,5.34c.17,3.57,2,5.73,5.05,4.91,2.21-.59,27.38-5.9,37.3-7.06s26.36.16,26.36.16l7.56.66c2.18.6,3.14.07,4.63-.42a5.21,5.21,0,0,0,3.65-3.84c1-3.58-2.25-8.83-6.08-8.5-2.47.22-1.3-2-.16-3.59a4.4,4.4,0,0,0-3.67-6.86C227.36,93,206.67,91,166.22,102.8Z"/><circle class="cls-4" cx="177.09" cy="219.58" r="16.97"/><circle class="cls-4" cx="219.85" cy="219.58" r="16.97"/></g></svg>