<svg xmlns="http://www.w3.org/2000/svg" viewBox="0 0 392 316.99"><defs><style>.cls-1{fill:#fcf494;stroke:#d3c429;stroke-miterlimit:10;}.cls-2{fill:#d3c429;}.cls-3{fill:#ee5f23;}</style></defs><title>Bolsa</title><g id="Layer_2" data-name="Layer 2"><path class="cls-1" d="M165,122.23s-35,40.34-45,62.67-16.66,60.33-10.66,68S99,272.57,99,272.57s-9.66,9.33-2.33,19.66,23,0,23,0,2.67,8.34,14.67,7.34,23.33-4.67,23.33-5.67,12,8,21.67,7.85S220,305.23,236,296.9s12-3.33,12-3.33,23.34,4.66,25-3.67,4.67-.33,4.67-.33.67,4,16.33,3,12-9,12-9-5-16-9.66-25.34-5.67-21.66-5.67-21.66-3.67-47.67-18-71S260,137.19,238,116.21c0,.21-15.54-2.25-33.33-1.31C189,115.73,165,122.23,165,122.23Z"/><path class="cls-1" d="M234.61,92.78s2.5-11.25,11-17.25,7.12-1.88,11.62-8.75S268,47.9,269.86,48.15s5.62-20.37-2.75-22.25-24.88-3-30.75,0l-5.88,3a8.76,8.76,0,0,1-2.37-4.85c-.25-2.77-.5-9.9-18.38-11.27s-19.87,5.87-19.87,5.87,2.22,16.13,1.75,17.75c-.57,1.93-1.38,3.38-10,1.25s-4.63-7.12-16.25-6.5-13.38,3.38-16.5,3.38-13.5-2.75-26.25,2.75,2.87,20.37,6.37,22a58.64,58.64,0,0,1,22.5,16.87c9.13,11.13,14.74,26.65,14.74,26.65S200.17,91.9,234.61,92.78Z"/><path class="cls-2" d="M124.66,36.56A11.25,11.25,0,0,0,120.52,42a5.66,5.66,0,0,0,0,3.31,7.4,7.4,0,0,0,1.8,2.82,20.27,20.27,0,0,0,5.7,3.84,51.3,51.3,0,0,0,6.5,2.56l-.12,0c1.14.06,2.27.2,3.4.21l1.7-.08c.28,0,.56,0,.84-.05l.83-.14c.56-.1,1.11-.18,1.66-.3l1.6-.49A10.36,10.36,0,0,0,146,53a9.89,9.89,0,0,0,1.49-.75,18.29,18.29,0,0,0,5-4.28,21.61,21.61,0,0,0,3.38-5.64l0,.26a11.5,11.5,0,0,1,.49-2.43,13.57,13.57,0,0,1,.89-2.24,11.86,11.86,0,0,1,3-3.77,7.28,7.28,0,0,1,1-.72,5.85,5.85,0,0,1,1-.64l1-.55,1.1-.41.55-.19.57-.13,1.13-.25c.76-.12,1.53-.16,2.28-.23l0,.2c-.73.21-1.46.37-2.17.59l-1,.39-.52.19-.48.26-1,.49-.9.6a6.11,6.11,0,0,0-.85.67,6.74,6.74,0,0,0-.78.73,11.3,11.3,0,0,0-2.32,3.51,12,12,0,0,0-1,4v.15l0,.11a18.63,18.63,0,0,1-1.58,3.37c-.3.53-.65,1-1,1.55s-.75,1-1.14,1.44a18.81,18.81,0,0,1-5.72,4.54,12.63,12.63,0,0,1-1.67.77,11.72,11.72,0,0,1-1.72.61l-1.76.47c-.6.11-1.2.17-1.8.26l-.89.13c-.3,0-.61,0-.91,0l-1.8,0c-1.2,0-2.38-.22-3.57-.33h0l-.06,0a54.42,54.42,0,0,1-6.57-2.83,20.32,20.32,0,0,1-5.8-4.26A8,8,0,0,1,120,45.5a6.3,6.3,0,0,1,.09-3.65,11.56,11.56,0,0,1,4.51-5.46Z"/><path class="cls-2" d="M191.67,36.05a10.49,10.49,0,0,0,3.92-.85,11.36,11.36,0,0,0,3.34-2.1,8.06,8.06,0,0,0,3-6.8,4.92,4.92,0,0,0-1.06-3.46,9.2,9.2,0,0,0-3.42-1.73l-3.87-1.25c-1.28-.45-2.57-.87-3.85-1.35,1.33.26,2.65.59,4,.88l4,1a9,9,0,0,1,3.85,1.79,4.28,4.28,0,0,1,1.11,2,8.78,8.78,0,0,1,.28,2.13,11.86,11.86,0,0,1-.12,2.13,7.38,7.38,0,0,1-.7,2.06,9.77,9.77,0,0,1-2.72,3.23A10.5,10.5,0,0,1,191.67,36.05Z"/><path class="cls-2" d="M175.34,34c2,3.21,3.92,6.53,5.71,9.89s3.4,6.83,4.86,10.37a64.22,64.22,0,0,1,3.72,10.87,37,37,0,0,1,.83,11.48h-.2c-.69-3.77-1.55-7.39-2.57-11l-1.56-5.4c-.49-1.82-1.11-3.6-1.72-5.39-1.25-3.56-2.71-7.05-4.26-10.5s-3.17-6.89-5-10.22Z"/><path class="cls-2" d="M162.44,52.82a68.4,68.4,0,0,0,7.95,9.63c1.47,1.47,3,2.85,4.54,4.27a27.55,27.55,0,0,1,4.17,5,41.29,41.29,0,0,1,3,5.67,52.1,52.1,0,0,1,2.12,6A40,40,0,0,1,185.86,96a65.17,65.17,0,0,0-3.09-12.09,52.51,52.51,0,0,0-5.34-11.09,27,27,0,0,0-3.8-4.71c-1.46-1.47-3-3-4.38-4.59A41.24,41.24,0,0,1,162.44,52.82Z"/><path class="cls-2" d="M202.13,29.4a39.06,39.06,0,0,1,6.34,10,29.58,29.58,0,0,1,2.29,8.7l.24,2.95c.28,3.94.61,7.87.5,11.81a93.46,93.46,0,0,1-.92,11.79h-.2c-.5-3.93-.71-7.85-.88-11.77s0-7.84-.1-11.75l-.09-2.93a24.81,24.81,0,0,0-.3-2.85,29.42,29.42,0,0,0-1.47-5.58A38.72,38.72,0,0,0,202,29.53Z"/><path class="cls-2" d="M205.87,94.21a21.47,21.47,0,0,0,.56-2.83,26,26,0,0,0,.26-2.92,26.29,26.29,0,0,0-.4-5.87,26.88,26.88,0,0,1,.9,5.87,29.83,29.83,0,0,1,0,3,24,24,0,0,1-.34,3Z"/><path class="cls-2" d="M221.13,57a16.3,16.3,0,0,1,1.22-7.41A29.57,29.57,0,0,1,224,46.16a11,11,0,0,0,1-3.25c.1-.55.13-1.15.18-1.78l.16-1.84c.06-.61.11-1.23.19-1.84a18.56,18.56,0,0,1,.32-1.91c.63-2.49,1.83-5.07,4.3-6.37l1-.55-.54,1.07a6.18,6.18,0,0,0,0,5.12,9.25,9.25,0,0,0,3.56,3.93,21.68,21.68,0,0,0,4.89,2.31,51.35,51.35,0,0,0,5.27,1.5,78.51,78.51,0,0,0,10.8,1.89,49.48,49.48,0,0,0,5.43.27c.9,0,1.81,0,2.69-.13a16.2,16.2,0,0,0,2.57-.43l.12,0a9.7,9.7,0,0,0,2.63-1A6.95,6.95,0,0,0,272,38.67a10.33,10.33,0,0,0,.21-3l.2,0a9.24,9.24,0,0,1,.23,3.15,7.1,7.1,0,0,1-1,3.09,8.41,8.41,0,0,1-2.3,2.38,9.45,9.45,0,0,1-3,1.43l.12,0a21.78,21.78,0,0,1-5.75,1,41.66,41.66,0,0,1-5.7-.11,61,61,0,0,1-11.08-2.24,29,29,0,0,1-10.26-4.8,11.61,11.61,0,0,1-3.55-4.48,7.57,7.57,0,0,1-.05-5.71l.49.52a6,6,0,0,0-2.12,2.62,11.3,11.3,0,0,0-.91,3.36c-.09.58-.12,1.16-.17,1.76s-.09,1.23-.14,1.85L227,41.3c-.06.6-.11,1.24-.24,1.9a11.16,11.16,0,0,1-1.38,3.71c-.68,1.11-1.29,2.06-1.84,3.16A20.07,20.07,0,0,0,221.33,57Z"/><path class="cls-2" d="M227.7,92.51c-.2-2.64-.24-5.23-.21-7.85s.17-5.22.45-7.81a54.51,54.51,0,0,1,1.33-7.71,28.41,28.41,0,0,1,2.84-7.24,28.14,28.14,0,0,0-2.35,7.35,53.36,53.36,0,0,0-.82,7.67c-.12,2.57-.07,5.15.05,7.71s.35,5.15.69,7.66Z"/><path class="cls-3" d="M166.22,102.8s-7.61,3.27-6,6.18,2.91,3,2.91,3-3.28,2-3.13,5.34c.17,3.57,2,5.73,5.05,4.91,2.21-.59,27.38-5.9,37.3-7.06s26.36.16,26.36.16l7.56.66c2.18.6,3.14.07,4.63-.42a5.21,5.21,0,0,0,3.65-3.84c1-3.58-2.25-8.83-6.08-8.5-2.47.22-1.3-2-.16-3.59a4.4,4.4,0,0,0-3.67-6.86C227.36,93,206.67,91,166.22,102.8Z"/></g></svg>