<svg id="Layer_1" data-name="Layer 1" xmlns="http://www.w3.org/2000/svg" viewBox="0 0 552.2 142"><defs><style>.cls-1{fill:#ffcb08;}.cls-2{fill:none;stroke:#f05023;stroke-miterlimit:10;stroke-width:3px;}.cls-3{fill:#f05023;}</style></defs><title>Tabla_2</title><path class="cls-1" d="M412.53,3a9,9,0,0,1,9,9V35a9,9,0,0,1-9,9H181.2a9,9,0,0,1-9-9V12a9,9,0,0,1,9-9H412.53m0-3H181.2a12,12,0,0,0-12,12V35a12,12,0,0,0,12,12H412.53a12,12,0,0,0,12-12V12a12,12,0,0,0-12-12Z"/><line class="cls-2" x1="421.53" y1="95" x2="421.53" y2="142"/><path class="cls-3" d="M540.2,98a9,9,0,0,1,9,9v23a9,9,0,0,1-9,9h-359a9,9,0,0,1-9-9V107a9,9,0,0,1,9-9h359m0-3h-359a12,12,0,0,0-12,12v23a12,12,0,0,0,12,12h359a12,12,0,0,0,12-12V107a12,12,0,0,0-12-12Z"/><path d="M1.19,3.53a17.84,17.84,0,0,1,3.27-.28,5.7,5.7,0,0,1,3.8,1A2.92,2.92,0,0,1,9.41,6.7a3.28,3.28,0,0,1-2.34,3v0a3.57,3.57,0,0,1,2.86,3.47A3.77,3.77,0,0,1,8.76,16c-1,.88-2.53,1.29-4.79,1.29a21.54,21.54,0,0,1-2.78-.16ZM3,9.21H4.6c1.89,0,3-1,3-2.33,0-1.62-1.23-2.26-3-2.26A7,7,0,0,0,3,4.75Zm0,6.63a8.47,8.47,0,0,0,1.5.09c1.85,0,3.56-.68,3.56-2.7s-1.63-2.67-3.58-2.67H3Z"/><path d="M21.35,12.15c0,3.67-2.55,5.28-5,5.28-2.69,0-4.77-2-4.77-5.12C11.63,9,13.81,7,16.56,7S21.35,9.1,21.35,12.15Zm-7.89.1c0,2.18,1.25,3.82,3,3.82s3-1.62,3-3.86c0-1.69-.84-3.83-3-3.83S13.46,10.36,13.46,12.25Z"/><path d="M23.63,2.61h1.81V17.2H23.63Z"/><path d="M30.5,4.46a1.12,1.12,0,0,1-2.24,0,1.1,1.1,0,0,1,1.13-1.13A1.07,1.07,0,0,1,30.5,4.46Zm-2,12.74V7.25h1.81v10Z"/><path d="M35.47,4.4V7.25h2.59V8.63H35.47V14c0,1.24.35,1.94,1.36,1.94a3.69,3.69,0,0,0,1.05-.13L38,17.16a4.54,4.54,0,0,1-1.61.25,2.51,2.51,0,0,1-2-.76,3.72,3.72,0,0,1-.7-2.59V8.63H32.16V7.25H33.7V4.87Z"/><path d="M45.6,17.2,45.46,16H45.4a3.72,3.72,0,0,1-3,1.48,2.84,2.84,0,0,1-3-2.86c0-2.4,2.14-3.72,6-3.7v-.2A2,2,0,0,0,43,8.36a5,5,0,0,0-2.59.74L40,7.91A6.22,6.22,0,0,1,43.3,7c3,0,3.78,2.07,3.78,4.07v3.72a13.31,13.31,0,0,0,.17,2.38Zm-.26-5.08c-2,0-4.22.31-4.22,2.24a1.6,1.6,0,0,0,1.71,1.73,2.47,2.47,0,0,0,2.4-1.66,2,2,0,0,0,.11-.58Z"/><path d="M49.75,15.35a4.76,4.76,0,0,0,2.39.72c1.31,0,1.93-.66,1.93-1.48s-.51-1.34-1.85-1.83c-1.79-.64-2.63-1.62-2.63-2.81C49.59,8.34,50.88,7,53,7a5,5,0,0,1,2.45.61L55,9a3.84,3.84,0,0,0-2-.58c-1.07,0-1.66.62-1.66,1.36s.59,1.19,1.89,1.69c1.72.65,2.61,1.52,2.61,3,0,1.74-1.36,3-3.72,3a5.71,5.71,0,0,1-2.8-.68Z"/><path d="M69.28,15.66h0A3.55,3.55,0,0,1,66,17.43c-2.32,0-4.21-2-4.21-5,0-3.72,2.4-5.36,4.5-5.36a3.27,3.27,0,0,1,3.06,1.72h0l.06-1.5h1.71c0,.85-.06,1.71-.06,2.74V21.27H69.28Zm0-4.38a3.22,3.22,0,0,0-.08-.76,2.65,2.65,0,0,0-2.59-2c-1.87,0-3,1.58-3,3.82,0,2,.95,3.7,2.94,3.7a2.69,2.69,0,0,0,2.59-2,2.84,2.84,0,0,0,.15-.87Z"/><path d="M82.39,14.49c0,1,0,1.93.08,2.71h-1.6l-.1-1.62h0a3.74,3.74,0,0,1-3.28,1.85c-1.57,0-3.44-.87-3.44-4.36V7.25h1.81v5.51c0,1.89.58,3.17,2.22,3.17a2.54,2.54,0,0,0,2.55-2.57V7.25h1.81Z"/><path d="M86.4,12.56A3.19,3.19,0,0,0,89.81,16a6.68,6.68,0,0,0,2.75-.51l.31,1.29a8,8,0,0,1-3.31.62c-3.06,0-4.89-2-4.89-5S86.44,7,89.34,7c3.24,0,4.11,2.85,4.11,4.68a6.82,6.82,0,0,1-.07.85Zm5.3-1.3c0-1.15-.47-2.94-2.51-2.94-1.83,0-2.63,1.69-2.77,2.94Z"/><path d="M3.31,29.06v2.86H5.9v1.37H3.31v5.37c0,1.23.35,1.93,1.36,1.93a4,4,0,0,0,1-.12l.09,1.35a4.32,4.32,0,0,1-1.61.25,2.51,2.51,0,0,1-1.95-.76,3.72,3.72,0,0,1-.7-2.59V33.29H0V31.92H1.54V29.53Z"/><path d="M10,29.12A1.07,1.07,0,0,1,8.8,30.23a1.07,1.07,0,0,1-1.09-1.11A1.1,1.1,0,0,1,8.84,28,1.07,1.07,0,0,1,10,29.12Zm-2,12.74V31.92H9.74v9.94Z"/><path d="M13.75,37.22a3.19,3.19,0,0,0,3.41,3.45,6.69,6.69,0,0,0,2.76-.51l.3,1.29a8,8,0,0,1-3.31.62c-3.06,0-4.89-2-4.89-5s1.77-5.36,4.67-5.36c3.25,0,4.11,2.86,4.11,4.69a7,7,0,0,1-.06.84Zm5.3-1.3c0-1.15-.47-2.94-2.51-2.94-1.83,0-2.63,1.69-2.77,2.94Z"/><path d="M23,34.61c0-1,0-1.87-.08-2.69h1.6l.1,1.64h0A3.67,3.67,0,0,1,28,31.69c1.38,0,3.52.82,3.52,4.23v5.94H29.7V36.13c0-1.6-.6-2.94-2.3-2.94A2.57,2.57,0,0,0,25,35a2.66,2.66,0,0,0-.12.84v6H23Z"/><path d="M35.45,37.22a3.19,3.19,0,0,0,3.41,3.45,6.69,6.69,0,0,0,2.76-.51l.3,1.29a7.94,7.94,0,0,1-3.3.62c-3.07,0-4.9-2-4.9-5s1.77-5.36,4.67-5.36c3.25,0,4.11,2.86,4.11,4.69a7,7,0,0,1-.06.84Zm5.3-1.3c0-1.15-.47-2.94-2.5-2.94-1.83,0-2.64,1.69-2.78,2.94Z"/><path d="M58.84,41.41a8.85,8.85,0,0,1-3.66.66c-3.91,0-6.84-2.47-6.84-7a6.89,6.89,0,0,1,7.23-7.28,7.35,7.35,0,0,1,3.29.62l-.43,1.46a6.52,6.52,0,0,0-2.8-.58c-3.25,0-5.4,2.08-5.4,5.72,0,3.39,2,5.57,5.32,5.57A7.15,7.15,0,0,0,58.47,40Z"/><path d="M66.38,41.86l-.14-1.25h-.07a3.69,3.69,0,0,1-3,1.48,2.84,2.84,0,0,1-3-2.86c0-2.4,2.14-3.72,6-3.7v-.2A2,2,0,0,0,63.81,33a5,5,0,0,0-2.59.74l-.41-1.19a6.2,6.2,0,0,1,3.27-.88c3,0,3.78,2.07,3.78,4.07v3.72A14.37,14.37,0,0,0,68,41.86Zm-.27-5.07c-2,0-4.21.3-4.21,2.24a1.6,1.6,0,0,0,1.71,1.72A2.48,2.48,0,0,0,66,39.09a2,2,0,0,0,.1-.58Z"/><path d="M70.78,35c0-1.17,0-2.18-.09-3.1h1.59l.06,1.95h.08a3,3,0,0,1,2.76-2.18,2,2,0,0,1,.51.06v1.71a2.79,2.79,0,0,0-.62-.07,2.53,2.53,0,0,0-2.42,2.33,5.1,5.1,0,0,0-.08.84v5.3H70.78Z"/><path d="M77.58,27.27h1.81V41.86H77.58Z"/><path d="M87.94,41.86l-.15-1.25h-.06a3.69,3.69,0,0,1-3,1.48,2.84,2.84,0,0,1-3-2.86c0-2.4,2.14-3.72,6-3.7v-.2A2.06,2.06,0,0,0,85.37,33a5,5,0,0,0-2.59.74l-.41-1.19a6.2,6.2,0,0,1,3.27-.88c3,0,3.78,2.07,3.78,4.07v3.72a14.37,14.37,0,0,0,.16,2.38Zm-.27-5.07c-2,0-4.21.3-4.21,2.24a1.59,1.59,0,0,0,1.7,1.72,2.48,2.48,0,0,0,2.41-1.66,2,2,0,0,0,.1-.58Z"/><path d="M1.19,98.53a17.84,17.84,0,0,1,3.27-.28,5.7,5.7,0,0,1,3.8,1,2.92,2.92,0,0,1,1.15,2.45,3.28,3.28,0,0,1-2.34,3v0a3.57,3.57,0,0,1,2.86,3.47A3.77,3.77,0,0,1,8.76,111c-1,.88-2.53,1.29-4.79,1.29a21.54,21.54,0,0,1-2.78-.16ZM3,104.21H4.6c1.89,0,3-1,3-2.33,0-1.62-1.23-2.26-3-2.26A7,7,0,0,0,3,99.75Zm0,6.63a8.47,8.47,0,0,0,1.5.09c1.85,0,3.56-.68,3.56-2.7s-1.63-2.67-3.58-2.67H3Z"/><path d="M21.35,107.15c0,3.67-2.55,5.28-5,5.28-2.69,0-4.77-2-4.77-5.12,0-3.33,2.18-5.28,4.93-5.28S21.35,104.1,21.35,107.15Zm-7.89.1c0,2.18,1.25,3.82,3,3.82s3-1.62,3-3.86c0-1.69-.84-3.83-3-3.83S13.46,105.36,13.46,107.25Z"/><path d="M23.63,97.61h1.81V112.2H23.63Z"/><path d="M30.5,99.46a1.12,1.12,0,0,1-2.24,0,1.1,1.1,0,0,1,1.13-1.13A1.07,1.07,0,0,1,30.5,99.46Zm-2,12.74v-10h1.81v10Z"/><path d="M35.47,99.4v2.85h2.59v1.38H35.47V109c0,1.24.35,1.94,1.36,1.94a3.69,3.69,0,0,0,1.05-.13l.08,1.36a4.54,4.54,0,0,1-1.61.25,2.51,2.51,0,0,1-2-.76,3.72,3.72,0,0,1-.7-2.59v-5.43H32.16v-1.38H33.7V99.87Z"/><path d="M45.6,112.2,45.46,111H45.4a3.72,3.72,0,0,1-3,1.48,2.84,2.84,0,0,1-3-2.86c0-2.4,2.14-3.72,6-3.7v-.2A2,2,0,0,0,43,103.36a5,5,0,0,0-2.59.74L40,102.91A6.22,6.22,0,0,1,43.3,102c3,0,3.78,2.07,3.78,4.07v3.72a13.31,13.31,0,0,0,.17,2.38Zm-.26-5.08c-2,0-4.22.31-4.22,2.25a1.6,1.6,0,0,0,1.71,1.72,2.47,2.47,0,0,0,2.4-1.66,2,2,0,0,0,.11-.58Z"/><path d="M49.75,110.35a4.76,4.76,0,0,0,2.39.72c1.31,0,1.93-.66,1.93-1.48s-.51-1.34-1.85-1.83c-1.79-.64-2.63-1.62-2.63-2.81,0-1.61,1.29-2.92,3.43-2.92a5,5,0,0,1,2.45.61L55,104a3.84,3.84,0,0,0-2-.58c-1.07,0-1.66.62-1.66,1.36s.59,1.19,1.89,1.69c1.72.65,2.61,1.52,2.61,3,0,1.74-1.36,3-3.72,3a5.71,5.71,0,0,1-2.8-.68Z"/><path d="M69.28,110.66h0A3.55,3.55,0,0,1,66,112.43c-2.32,0-4.21-2-4.21-5,0-3.72,2.4-5.36,4.5-5.36a3.27,3.27,0,0,1,3.06,1.72h0l.06-1.5h1.71c0,.85-.06,1.71-.06,2.74v11.28H69.28Zm0-4.38a3.22,3.22,0,0,0-.08-.76,2.65,2.65,0,0,0-2.59-2c-1.87,0-3,1.58-3,3.82,0,2,.95,3.7,2.94,3.7a2.69,2.69,0,0,0,2.59-2,2.84,2.84,0,0,0,.15-.87Z"/><path d="M82.39,109.49c0,1,0,1.93.08,2.71h-1.6l-.1-1.62h0a3.74,3.74,0,0,1-3.28,1.85c-1.57,0-3.44-.87-3.44-4.36v-5.82h1.81v5.51c0,1.89.58,3.17,2.22,3.17a2.54,2.54,0,0,0,2.55-2.57v-6.11h1.81Z"/><path d="M86.4,107.56A3.19,3.19,0,0,0,89.81,111a6.68,6.68,0,0,0,2.75-.51l.31,1.29a8,8,0,0,1-3.31.62c-3.06,0-4.89-2-4.89-5S86.44,102,89.34,102c3.24,0,4.11,2.85,4.11,4.68a6.82,6.82,0,0,1-.07.85Zm5.3-1.3c0-1.15-.47-2.94-2.51-2.94-1.83,0-2.63,1.69-2.77,2.94Z"/><path d="M3.31,124.06v2.86H5.9v1.37H3.31v5.37c0,1.23.35,1.93,1.36,1.93a3.56,3.56,0,0,0,1-.13l.09,1.36a4.54,4.54,0,0,1-1.61.25,2.51,2.51,0,0,1-1.95-.76,3.72,3.72,0,0,1-.7-2.59v-5.43H0v-1.37H1.54v-2.39Z"/><path d="M10,124.12a1.07,1.07,0,0,1-1.15,1.11,1.07,1.07,0,0,1-1.09-1.11A1.1,1.1,0,0,1,8.84,123,1.07,1.07,0,0,1,10,124.12Zm-2,12.74v-9.94H9.74v9.94Z"/><path d="M13.75,132.22a3.19,3.19,0,0,0,3.41,3.45,6.53,6.53,0,0,0,2.76-.51l.3,1.29a8,8,0,0,1-3.31.62c-3.06,0-4.89-2-4.89-5s1.77-5.36,4.67-5.36c3.25,0,4.11,2.86,4.11,4.69a7,7,0,0,1-.06.84Zm5.3-1.3c0-1.15-.47-2.94-2.51-2.94-1.83,0-2.63,1.69-2.77,2.94Z"/><path d="M23,129.61c0-1,0-1.87-.08-2.69h1.6l.1,1.64h0A3.67,3.67,0,0,1,28,126.69c1.38,0,3.52.82,3.52,4.23v5.94H29.7v-5.73c0-1.6-.6-2.94-2.3-2.94A2.57,2.57,0,0,0,25,130a2.66,2.66,0,0,0-.12.84v6H23Z"/><path d="M35.45,132.22a3.19,3.19,0,0,0,3.41,3.45,6.53,6.53,0,0,0,2.76-.51l.3,1.29a7.94,7.94,0,0,1-3.3.62c-3.07,0-4.9-2-4.9-5s1.77-5.36,4.67-5.36c3.25,0,4.11,2.86,4.11,4.69a7,7,0,0,1-.06.84Zm5.3-1.3c0-1.15-.47-2.94-2.5-2.94-1.83,0-2.64,1.69-2.78,2.94Z"/><path d="M52,123h1.79v9.27c0,3.68-1.81,4.81-4.19,4.81a5.63,5.63,0,0,1-1.91-.33L48,135.3a4.07,4.07,0,0,0,1.5.27c1.6,0,2.54-.72,2.54-3.44Z"/><path d="M65.7,131.81c0,3.68-2.55,5.28-5,5.28-2.69,0-4.77-2-4.77-5.12,0-3.33,2.18-5.28,4.93-5.28S65.7,128.76,65.7,131.81Zm-7.89.1c0,2.18,1.25,3.82,3,3.82s3-1.62,3-3.86c0-1.69-.84-3.83-3-3.83S57.81,130,57.81,131.91Z"/><path d="M68,130c0-1.17,0-2.18-.08-3.1h1.58l.06,2h.09a3,3,0,0,1,2.75-2.18,1.93,1.93,0,0,1,.51.06v1.71a2.69,2.69,0,0,0-.61-.07,2.54,2.54,0,0,0-2.43,2.33,5.1,5.1,0,0,0-.08.84v5.3H68Z"/><path d="M83.11,126.92c0,.71-.08,1.52-.08,2.73v5.77c0,2.29-.46,3.68-1.42,4.55A5.31,5.31,0,0,1,78,141.16a6.47,6.47,0,0,1-3.31-.82l.45-1.38a5.64,5.64,0,0,0,2.92.78c1.85,0,3.21-1,3.21-3.47v-1.11h0a3.57,3.57,0,0,1-3.17,1.66c-2.46,0-4.23-2.1-4.23-4.85,0-3.37,2.2-5.28,4.48-5.28a3.29,3.29,0,0,1,3.1,1.73h0l.09-1.5Zm-1.87,3.92a2.64,2.64,0,0,0-2.63-2.73c-1.73,0-3,1.46-3,3.76,0,1.95,1,3.58,2.94,3.58a2.63,2.63,0,0,0,2.5-1.86,2.88,2.88,0,0,0,.15-1Z"/><path d="M87,132.22a3.19,3.19,0,0,0,3.42,3.45,6.51,6.51,0,0,0,2.75-.51l.31,1.29a8,8,0,0,1-3.31.62c-3.06,0-4.89-2-4.89-5s1.76-5.36,4.66-5.36c3.25,0,4.11,2.86,4.11,4.69a7,7,0,0,1-.06.84Zm5.31-1.3c0-1.15-.48-2.94-2.51-2.94-1.83,0-2.63,1.69-2.78,2.94Z"/><polygon class="cls-1" points="158.7 25 133.96 10.72 133.96 18 109.7 18 109.7 32 133.96 32 133.96 39.28 158.7 25"/><polygon class="cls-1" points="158.7 118.5 133.96 104.22 133.96 111.5 109.7 111.5 109.7 125.5 133.96 125.5 133.96 132.78 158.7 118.5"/><path d="M277,29.11V28.05l1.35-1.3c3.24-3.09,4.7-4.73,4.72-6.64a2.26,2.26,0,0,0-2.52-2.48,4.29,4.29,0,0,0-2.69,1.07l-.55-1.21a5.59,5.59,0,0,1,3.6-1.29,3.57,3.57,0,0,1,3.88,3.69c0,2.34-1.7,4.24-4.37,6.82l-1,.93v0h5.7v1.43Z"/><path d="M294.58,17.86h-4.85l-.49,3.26a6.77,6.77,0,0,1,1-.08,5.35,5.35,0,0,1,2.73.69A3.61,3.61,0,0,1,294.83,25a4.4,4.4,0,0,1-4.73,4.33,6.21,6.21,0,0,1-3.16-.78l.43-1.31a5.59,5.59,0,0,0,2.71.71,2.81,2.81,0,0,0,3-2.76c0-1.64-1.11-2.81-3.65-2.81a12.92,12.92,0,0,0-1.76.14l.82-6.1h6.08Z"/><path d="M302.33,29.11V25.65h-5.9V24.52l5.66-8.11H304V24.3h1.77v1.35H304v3.46Zm0-4.81V20.07c0-.67,0-1.33.05-2h-.05c-.39.75-.71,1.29-1.06,1.88l-3.1,4.32v0Z"/><path d="M277,125.23v-1.06l1.35-1.3c3.24-3.09,4.7-4.73,4.72-6.64a2.26,2.26,0,0,0-2.52-2.48,4.29,4.29,0,0,0-2.69,1.07l-.55-1.21a5.59,5.59,0,0,1,3.6-1.29,3.57,3.57,0,0,1,3.88,3.69c0,2.34-1.7,4.24-4.37,6.82l-1,.93v0h5.7v1.43Z"/><path d="M294.58,114h-4.85l-.49,3.26a6.77,6.77,0,0,1,1-.08,5.35,5.35,0,0,1,2.73.69,3.61,3.61,0,0,1,1.82,3.26,4.4,4.4,0,0,1-4.73,4.33,6.21,6.21,0,0,1-3.16-.78l.43-1.31a5.59,5.59,0,0,0,2.71.71,2.81,2.81,0,0,0,3-2.76c0-1.64-1.11-2.81-3.65-2.81a12.92,12.92,0,0,0-1.76.14l.82-6.1h6.08Z"/><path d="M302.33,125.23v-3.46h-5.9v-1.13l5.66-8.11H304v7.89h1.77v1.35H304v3.46Zm0-4.81v-4.23c0-.67,0-1.33.05-2h-.05c-.39.75-.71,1.29-1.06,1.88l-3.1,4.32v0Z"/><path d="M479.71,114.14h0l-2.21,1.19-.33-1.31,2.78-1.49h1.46v12.7h-1.66Z"/><path d="M486,125.23v-1.06l1.34-1.3c3.25-3.09,4.71-4.73,4.73-6.64a2.26,2.26,0,0,0-2.52-2.48,4.29,4.29,0,0,0-2.69,1.07l-.55-1.21a5.58,5.58,0,0,1,3.59-1.29,3.57,3.57,0,0,1,3.89,3.69c0,2.34-1.7,4.24-4.37,6.82l-1,.93v0h5.7v1.43Z"/></svg>