<svg xmlns="http://www.w3.org/2000/svg" viewBox="0 0 66.83 100"><defs><style>.cls-1{fill:#ff5226;}.cls-2{fill:#e68a49;}</style></defs><title>fraccion mobile</title><g id="Capa_2" data-name="Capa 2"><g id="Layer_1" data-name="Layer 1"><path class="cls-1" d="M51.23,100H15.59A15.64,15.64,0,0,1,0,84.35V15.65A15.64,15.64,0,0,1,15.59,0H51.23a15.64,15.64,0,0,1,15.6,15.65v68.7A15.64,15.64,0,0,1,51.23,100ZM15.59,4.67a11,11,0,0,0-10.94,11v68.7a11,11,0,0,0,10.94,11H51.23a11,11,0,0,0,10.94-11V15.65a11,11,0,0,0-10.94-11Z"/><rect class="cls-2" x="7.59" y="49.61" width="51.65" height="1.96"/></g></g></svg>