<svg id="Layer_1" data-name="Layer 1" xmlns="http://www.w3.org/2000/svg" viewBox="0 0 742.91 300.44"><defs><style>.cls-1,.cls-2{fill:#f05023;}.cls-2{font-size:276.39px;font-family:MyriadPro-Regular, Myriad Pro;}</style></defs><title>Parentesis</title><path class="cls-1" d="M265.87,53.34A18.19,18.19,0,0,1,284,71.51V229.17a18.19,18.19,0,0,1-18.17,18.17H108.2A18.19,18.19,0,0,1,90,229.17V71.51A18.19,18.19,0,0,1,108.2,53.34H265.87m0-5H108.2A23.23,23.23,0,0,0,85,71.51V229.17a23.23,23.23,0,0,0,23.16,23.17H265.87A23.24,23.24,0,0,0,289,229.17V71.51a23.24,23.24,0,0,0-23.17-23.17Z"/><path class="cls-1" d="M635.93,53.34a18.19,18.19,0,0,1,18.16,18.17V229.17a18.19,18.19,0,0,1-18.16,18.17H478.26a18.19,18.19,0,0,1-18.17-18.17V71.51a18.19,18.19,0,0,1,18.17-18.17H635.93m0-5H478.26a23.24,23.24,0,0,0-23.17,23.17V229.17a23.24,23.24,0,0,0,23.17,23.17H635.93a23.23,23.23,0,0,0,23.16-23.17V71.51a23.23,23.23,0,0,0-23.16-23.17Z"/><circle class="cls-1" cx="372.06" cy="150.34" r="23.5"/><text class="cls-2" transform="translate(0 231.34)">(</text><text class="cls-2" transform="translate(742.91 69.1) rotate(180)">(</text></svg>