<svg id="Layer_1" data-name="Layer 1" xmlns="http://www.w3.org/2000/svg" viewBox="0 0 800 800"><defs><style>.cls-1{fill:#f05023;}</style></defs><title>5</title><path class="cls-1" d="M761.5,10A28.53,28.53,0,0,1,790,38.5v723A28.53,28.53,0,0,1,761.5,790H38.5A28.53,28.53,0,0,1,10,761.5V38.5A28.53,28.53,0,0,1,38.5,10h723m0-10H38.5A38.62,38.62,0,0,0,0,38.5v723A38.62,38.62,0,0,0,38.5,800h723A38.62,38.62,0,0,0,800,761.5V38.5A38.62,38.62,0,0,0,761.5,0Z"/><circle class="cls-1" cx="116.87" cy="138.61" r="88.07"/><circle class="cls-1" cx="683.13" cy="138.61" r="88.07"/><circle class="cls-1" cx="116.87" cy="661.39" r="88.07"/><circle class="cls-1" cx="683.13" cy="661.39" r="88.07"/><circle class="cls-1" cx="400" cy="400" r="88.07"/></svg>