<svg xmlns="http://www.w3.org/2000/svg" width="290" height="290" viewBox="0 0 290 290">
  <defs>
    <style>
      .cls-1 {
        fill: #fff;
        stroke-width: 3.83px;
      }

      .cls-1, .cls-3 {
        stroke: #00aaad;
        stroke-miterlimit: 10;
      }

      .cls-2 {
        fill: #30358f;
      }

      .cls-3 {
        fill: none;
        stroke-width: 1.92px;
      }
    </style>
  </defs>
  <title>basereloj</title>
  <g id="Analogo">
    <circle class="cls-1" cx="145" cy="145" r="134.5"/>
    <g>
      <path class="cls-2" d="M139.27,19.16h3V35.08H139V22.23l-3,1.72-1.28-2.4Z"/>
      <path class="cls-2" d="M150.49,18.89a5.82,5.82,0,0,1,3.79,1.22,4.3,4.3,0,0,1,1.51,3.54,5.75,5.75,0,0,1-1,3.13,32.05,32.05,0,0,1-5.3,5.61h6.33v2.68H144.93V33l5.39-5.5q2.18-2.27,2.18-3.78a2.09,2.09,0,0,0-.63-1.59,2.39,2.39,0,0,0-1.71-.57,4.62,4.62,0,0,0-3.48,1.68l-1.75-2A7.5,7.5,0,0,1,150.49,18.89Z"/>
    </g>
    <path class="cls-2" d="M204.45,35.64h3V51.56h-3.24V38.71l-3,1.72L199.93,38Z"/>
    <g>
      <path class="cls-2" d="M82.41,36.79h3V52.71H82.13V39.86l-3,1.72-1.28-2.4Z"/>
      <path class="cls-2" d="M92.37,36.79h3V52.71H92.09V39.86l-3,1.72-1.28-2.4Z"/>
    </g>
    <g>
      <path class="cls-2" d="M40.27,81.24h3V97.16H40V84.31L37,86l-1.28-2.4Z"/>
      <path class="cls-2" d="M57.79,83.34a8.75,8.75,0,0,1,2,5.87,8.84,8.84,0,0,1-2,5.89,6.42,6.42,0,0,1-9.9,0,9.83,9.83,0,0,1,0-11.79,6.38,6.38,0,0,1,9.9,0Zm-7.54,1.87a8.38,8.38,0,0,0,0,8,3,3,0,0,0,5.28,0,7.18,7.18,0,0,0,1-4,7.29,7.29,0,0,0-1-4,3,3,0,0,0-2.62-1.57A3,3,0,0,0,50.25,85.21Z"/>
    </g>
    <path class="cls-2" d="M25,154.16a8.2,8.2,0,0,1-5.1-2l1.85-1.93a5,5,0,0,0,3.14,1.21,3.51,3.51,0,0,0,2.73-1.27,4.85,4.85,0,0,0,1-3.48,5.73,5.73,0,0,1-3.87,1.53,5.33,5.33,0,0,1-3.79-1.45,4.77,4.77,0,0,1-1.56-3.61,5.15,5.15,0,0,1,1.75-4,6.1,6.1,0,0,1,4.22-1.5A6,6,0,0,1,30,139.56q2,2.08,2,6.19a10.13,10.13,0,0,1-1.71,6A6,6,0,0,1,25,154.16Zm2.73-9.28a2.35,2.35,0,0,0,.85-1.85,2.49,2.49,0,0,0-.85-1.9,3,3,0,0,0-2.07-.79,3,3,0,0,0-2.09.79,2.46,2.46,0,0,0-.87,1.9,2.39,2.39,0,0,0,.88,1.88,3.08,3.08,0,0,0,2.09.76A3,3,0,0,0,27.68,144.88Z"/>
    <path class="cls-2" d="M47.66,198.2a3.61,3.61,0,0,1,.84,5.22,4.13,4.13,0,0,1-2.09,1.32q3.42,1.17,3.42,4.28a3.81,3.81,0,0,1-1.75,3.36,7.75,7.75,0,0,1-4.43,1.18,7.82,7.82,0,0,1-4.46-1.18A3.81,3.81,0,0,1,37.46,209q0-3.11,3.42-4.28a4.13,4.13,0,0,1-2.09-1.32,3.42,3.42,0,0,1-.76-2.25,3.47,3.47,0,0,1,1.62-3,6.89,6.89,0,0,1,4-1.12A6.72,6.72,0,0,1,47.66,198.2Zm-6.1,8.43a2.16,2.16,0,0,0-.83,1.82,2.13,2.13,0,0,0,.84,1.79,3.33,3.33,0,0,0,2.09.65,3.24,3.24,0,0,0,2.07-.65,2.15,2.15,0,0,0,.82-1.79,2.22,2.22,0,0,0-.82-1.84,3.2,3.2,0,0,0-2.07-.66A3.28,3.28,0,0,0,41.56,206.63Zm.28-6.39a1.51,1.51,0,0,0-.71,1.35,1.57,1.57,0,0,0,.71,1.38,3.15,3.15,0,0,0,1.81.48,3.1,3.1,0,0,0,1.8-.48,1.71,1.71,0,0,0,0-2.75,3.1,3.1,0,0,0-1.8-.48A3,3,0,0,0,41.84,200.24Z"/>
    <path class="cls-2" d="M81.07,238.35H92.82v2.13l-6.53,13.79H82.53l6.57-13.21h-8Z"/>
    <path class="cls-2" d="M145.68,253.77a8.2,8.2,0,0,1,5.1,2l-1.85,1.93a5,5,0,0,0-3.14-1.21,3.51,3.51,0,0,0-2.73,1.27,4.86,4.86,0,0,0-1,3.48,5.73,5.73,0,0,1,3.87-1.53,5.32,5.32,0,0,1,3.79,1.45,4.77,4.77,0,0,1,1.56,3.61,5.15,5.15,0,0,1-1.75,4,6.67,6.67,0,0,1-8.87-.38q-2-2.08-2-6.19a10.13,10.13,0,0,1,1.71-6A6,6,0,0,1,145.68,253.77ZM143,263.05a2.35,2.35,0,0,0-.85,1.85,2.48,2.48,0,0,0,.85,1.9,3,3,0,0,0,2.07.79,3,3,0,0,0,2.09-.79,2.46,2.46,0,0,0,.88-1.9,2.39,2.39,0,0,0-.88-1.87,3.08,3.08,0,0,0-2.09-.76A3,3,0,0,0,143,263.05Z"/>
    <path class="cls-2" d="M199.17,239.88h10.08v2.68h-7.48l-.4,3.9a5.43,5.43,0,0,1,1.66-1,5.33,5.33,0,0,1,1.89-.33,4.94,4.94,0,0,1,5.15,5.31,5.22,5.22,0,0,1-1.74,4,6.24,6.24,0,0,1-4.42,1.63,7.82,7.82,0,0,1-6.33-3.1l2-1.8a5.43,5.43,0,0,0,4.19,2.22,3,3,0,0,0,2.18-.82,2.89,2.89,0,0,0,0-4.09,2.87,2.87,0,0,0-2.1-.84,3,3,0,0,0-2.74,1.7l-2.75-1.07Z"/>
    <path class="cls-2" d="M247.8,197h3.29v9.68h2v2.73h-2v3.51h-3.25v-3.51H240v-2.5Zm0,4.32-4.22,5.35h4.22Z"/>
    <path class="cls-2" d="M264.6,138.46a7.13,7.13,0,0,1,4.13,1.1,3.66,3.66,0,0,1,.82,5.25,4.2,4.2,0,0,1-2,1.32q3.35,1.07,3.35,4.11a4.19,4.19,0,0,1-1.57,3.46,7,7,0,0,1-4.43,1.22,9.68,9.68,0,0,1-6-1.85l2.5-2a4.88,4.88,0,0,0,3.08,1.16,3.31,3.31,0,0,0,2.36-.73,2.55,2.55,0,0,0,.75-1.92,1.92,1.92,0,0,0-.79-1.64,3.85,3.85,0,0,0-2.32-.61h-2.21v-2.53h2.21a3.42,3.42,0,0,0,2-.45,1.41,1.41,0,0,0,.6-1.23,1.87,1.87,0,0,0-.72-1.46,3,3,0,0,0-2-.57,5,5,0,0,0-2.47.67l-2.18-1.91A9,9,0,0,1,264.6,138.46Z"/>
    <path class="cls-2" d="M247.05,78.29a5.82,5.82,0,0,1,3.79,1.22A4.3,4.3,0,0,1,252.36,83a5.75,5.75,0,0,1-1,3.13,32.05,32.05,0,0,1-5.3,5.61h6.33v2.68H241.5V92.42l5.39-5.5q2.18-2.27,2.18-3.78a2.09,2.09,0,0,0-.63-1.59,2.39,2.39,0,0,0-1.71-.57,4.62,4.62,0,0,0-3.48,1.68l-1.75-2A7.5,7.5,0,0,1,247.05,78.29Z"/>
    <circle class="cls-3" cx="145" cy="145" r="129.52"/>
  </g>
</svg>
