<svg xmlns="http://www.w3.org/2000/svg" width="200" height="200" viewBox="0 0 200 200">
  <defs>
    <style>
      .cls-1, .cls-2 {
        fill: #f59487;
      }

      .cls-1 {
        stroke: #f59487;
        stroke-miterlimit: 10;
        stroke-width: 1.5px;
      }

      .cls-3 {
        fill: #30358f;
      }
    </style>
  </defs>
  <title>Minutero_100</title>
  <g id="Analogo">
    <g>
      <line class="cls-1" x1="99.76" y1="100.62" x2="99.76" y2="41.5"/>
      <g>
        <line class="cls-2" x1="99.76" y1="40" x2="105.15" y2="45.39"/>
        <path class="cls-2" d="M98.87,40.89l5.39,5.39A1.25,1.25,0,0,0,106,44.5l-5.39-5.39a1.25,1.25,0,0,0-1.77,1.77Z"/>
      </g>
      <g>
        <line class="cls-2" x1="99.89" y1="40" x2="94.5" y2="45.39"/>
        <path class="cls-2" d="M99,39.11,93.61,44.5a1.25,1.25,0,0,0,1.77,1.77l5.39-5.39A1.25,1.25,0,0,0,99,39.11Z"/>
      </g>
      <line class="cls-1" x1="99.82" y1="100.62" x2="99.7" y2="41.5"/>
      <g>
        <line class="cls-2" x1="99.76" y1="40" x2="105.15" y2="45.39"/>
        <path class="cls-2" d="M98.87,40.89l5.39,5.39A1.25,1.25,0,0,0,106,44.5l-5.39-5.39a1.25,1.25,0,0,0-1.77,1.77Z"/>
      </g>
      <g>
        <line class="cls-2" x1="99.89" y1="40" x2="94.5" y2="45.39"/>
        <path class="cls-2" d="M99,39.11,93.61,44.5a1.25,1.25,0,0,0,1.77,1.77l5.39-5.39A1.25,1.25,0,0,0,99,39.11Z"/>
      </g>
      <circle class="cls-3" cx="99.82" cy="100.62" r="4.38"/>
    </g>
  </g>
</svg>
