<svg xmlns="http://www.w3.org/2000/svg" viewBox="0 0 60 60"><defs><style>.cls-1{fill:#f1ca32;}</style></defs><title>sol</title><g id="Capa_2" data-name="Capa 2"><g id="Layer_3" data-name="Layer 3"><circle class="cls-1" cx="30" cy="30" r="14.66"/><polygon class="cls-1" points="36.34 12.69 23.66 12.69 30 0 36.34 12.69"/><polygon class="cls-1" points="23.66 47.31 36.34 47.31 30 60 23.66 47.31"/><polygon class="cls-1" points="12.69 23.66 12.69 36.34 0 30 12.69 23.66"/><polygon class="cls-1" points="47.31 36.34 47.31 23.66 60 30 47.31 36.34"/><polygon class="cls-1" points="20.38 13.66 13.66 20.38 10.3 10.3 20.38 13.66"/><polygon class="cls-1" points="40.01 46.73 46.73 40.01 50.09 50.09 40.01 46.73"/><polygon class="cls-1" points="13.66 40.01 20.38 46.73 10.3 50.09 13.66 40.01"/><polygon class="cls-1" points="46.73 20.38 40.01 13.66 50.09 10.3 46.73 20.38"/></g></g></svg>