<svg id="Layer_1" data-name="Layer 1" xmlns="http://www.w3.org/2000/svg" viewBox="0 0 786 123.5"><defs><style>.cls-1,.cls-4{fill:none;}.cls-2{fill:#ffcb08;}.cls-3{fill:#f05023;}.cls-4{stroke:#f05023;stroke-miterlimit:10;stroke-width:3px;}</style></defs><title>Tabla_Cuentas</title><path class="cls-1" d="M774,123.5H524V48H774a12,12,0,0,1,12,12v51.5A12,12,0,0,1,774,123.5Z"/><path class="cls-2" d="M774,3a9,9,0,0,1,9,9V35a9,9,0,0,1-9,9H12a9,9,0,0,1-9-9V12a9,9,0,0,1,9-9H774m0-3H12A12,12,0,0,0,0,12V35A12,12,0,0,0,12,47H774a12,12,0,0,0,12-12V12A12,12,0,0,0,774,0Z"/><path class="cls-3" d="M774,51a9,9,0,0,1,9,9v51.5a9,9,0,0,1-9,9H12a9,9,0,0,1-9-9V60a9,9,0,0,1,9-9H774m0-3H12A12,12,0,0,0,0,60v51.5a12,12,0,0,0,12,12H774a12,12,0,0,0,12-12V60a12,12,0,0,0-12-12Z"/><line class="cls-4" x1="524" y1="48" x2="524" y2="123.5"/><path d="M316.36,16.5a5.58,5.58,0,0,0-4.44,1.87,7.59,7.59,0,0,0-1.63,5.13,7.73,7.73,0,0,0,1.57,5.17,5.58,5.58,0,0,0,4.48,1.83,15.55,15.55,0,0,0,4.07-.64v1.73a12.36,12.36,0,0,1-4.37.67A7.38,7.38,0,0,1,310.22,30a9.39,9.39,0,0,1-2.05-6.5,10.27,10.27,0,0,1,1-4.62A7,7,0,0,1,312,15.8a8.6,8.6,0,0,1,4.38-1.08,10.66,10.66,0,0,1,4.7,1l-.85,1.71A9,9,0,0,0,316.36,16.5Z"/><path d="M325.66,19.24v8.29a3.38,3.38,0,0,0,.71,2.34,2.93,2.93,0,0,0,2.23.77,3.62,3.62,0,0,0,2.93-1.1,5.51,5.51,0,0,0,.93-3.58V19.24h1.94V32h-1.6l-.28-1.72h-.1a3.91,3.91,0,0,1-1.66,1.45,5.58,5.58,0,0,1-2.41.5,4.87,4.87,0,0,1-3.49-1.11,4.74,4.74,0,0,1-1.16-3.55V19.24Z"/><path d="M343.91,32.26a5.89,5.89,0,0,1-4.48-1.73,6.69,6.69,0,0,1-1.64-4.79,7.38,7.38,0,0,1,1.53-4.91A5,5,0,0,1,343.4,19a4.81,4.81,0,0,1,3.81,1.58,6.06,6.06,0,0,1,1.4,4.17V26H339.8a5.08,5.08,0,0,0,1.14,3.42,3.93,3.93,0,0,0,3,1.17,10.26,10.26,0,0,0,4.08-.87v1.73a10,10,0,0,1-1.94.64A11.58,11.58,0,0,1,343.91,32.26Zm-.53-11.63a3.14,3.14,0,0,0-2.45,1,4.59,4.59,0,0,0-1.08,2.78h6.68a4.24,4.24,0,0,0-.82-2.81A2.86,2.86,0,0,0,343.38,20.63Z"/><path d="M360.66,32V23.75a3.35,3.35,0,0,0-.71-2.33,2.93,2.93,0,0,0-2.23-.77,3.65,3.65,0,0,0-2.94,1.09,5.47,5.47,0,0,0-.93,3.58V32h-1.94V19.24h1.57L353.8,21h.09a4.05,4.05,0,0,1,1.67-1.47A5.51,5.51,0,0,1,358,19a4.88,4.88,0,0,1,3.48,1.11,4.72,4.72,0,0,1,1.17,3.56V32Z"/><path d="M370.7,30.66a5.4,5.4,0,0,0,1-.08,7,7,0,0,0,.75-.15v1.48a3.66,3.66,0,0,1-.92.25,6.61,6.61,0,0,1-1.11.1q-3.71,0-3.71-3.91V20.74h-1.83v-.93l1.83-.8.82-2.73h1.12v3h3.71v1.5h-3.71v7.53A2.55,2.55,0,0,0,369.2,30,1.92,1.92,0,0,0,370.7,30.66Z"/><path d="M382.87,32l-.38-1.82h-.1a5.27,5.27,0,0,1-1.9,1.62,5.76,5.76,0,0,1-2.38.43,4.3,4.3,0,0,1-3-1,3.57,3.57,0,0,1-1.08-2.79c0-2.58,2.07-3.94,6.2-4.06l2.17-.07v-.79a3.26,3.26,0,0,0-.65-2.23,2.69,2.69,0,0,0-2.07-.71,8.36,8.36,0,0,0-3.62,1l-.59-1.48a9,9,0,0,1,2.07-.81,9.16,9.16,0,0,1,2.26-.29,4.92,4.92,0,0,1,3.39,1,4.28,4.28,0,0,1,1.1,3.26V32Zm-4.37-1.37a3.94,3.94,0,0,0,2.84-1,3.67,3.67,0,0,0,1-2.78V25.74l-1.93.08a7,7,0,0,0-3.34.72,2.15,2.15,0,0,0-1,2,2,2,0,0,0,.64,1.6A2.62,2.62,0,0,0,378.5,30.66Z"/><path d="M396.55,28.54a3.21,3.21,0,0,1-1.33,2.75,6.25,6.25,0,0,1-3.74,1,8,8,0,0,1-4-.81V29.66a9.63,9.63,0,0,0,2,.73,8.3,8.3,0,0,0,2,.27,4.63,4.63,0,0,0,2.33-.48,1.67,1.67,0,0,0,.17-2.76,10.21,10.21,0,0,0-2.52-1.25A13.51,13.51,0,0,1,389,25a3.44,3.44,0,0,1-1.12-1.13,3.1,3.1,0,0,1,.9-4,6,6,0,0,1,3.49-.9,10.23,10.23,0,0,1,4,.84l-.69,1.57a9.24,9.24,0,0,0-3.49-.79,4,4,0,0,0-2.08.43,1.35,1.35,0,0,0-.7,1.19,1.41,1.41,0,0,0,.27.87,2.54,2.54,0,0,0,.84.69,20.14,20.14,0,0,0,2.24,1,8.4,8.4,0,0,1,3.08,1.67A3,3,0,0,1,396.55,28.54Z"/><path d="M410,30.66a5.23,5.23,0,0,0,1-.08,7.25,7.25,0,0,0,.76-.15v1.48a3.79,3.79,0,0,1-.92.25,6.61,6.61,0,0,1-1.11.1q-3.71,0-3.71-3.91V20.74h-1.83v-.93L406,19l.82-2.73H408v3h3.71v1.5H408v7.53a2.55,2.55,0,0,0,.55,1.77A1.91,1.91,0,0,0,410,30.66Z"/><path d="M425.37,25.62a7,7,0,0,1-1.57,4.88,5.55,5.55,0,0,1-4.35,1.76,5.75,5.75,0,0,1-3.05-.81,5.26,5.26,0,0,1-2-2.31,8,8,0,0,1-.72-3.52,7.05,7.05,0,0,1,1.56-4.87A5.53,5.53,0,0,1,419.53,19a5.39,5.39,0,0,1,4.26,1.78A7,7,0,0,1,425.37,25.62Zm-9.74,0a6.08,6.08,0,0,0,1,3.73,3.88,3.88,0,0,0,5.77,0,6,6,0,0,0,1-3.74,5.91,5.91,0,0,0-1-3.7,3.46,3.46,0,0,0-2.91-1.27,3.42,3.42,0,0,0-2.87,1.25A6,6,0,0,0,415.63,25.62Z"/><path d="M432.9,30.66a5.37,5.37,0,0,0,1-.08c.32,0,.57-.1.76-.15v1.48a3.76,3.76,0,0,1-.93.25,6.5,6.5,0,0,1-1.1.1q-3.71,0-3.71-3.91V20.74h-1.83v-.93l1.83-.8.82-2.73h1.12v3h3.71v1.5h-3.71v7.53a2.6,2.6,0,0,0,.54,1.77A1.93,1.93,0,0,0,432.9,30.66Z"/><path d="M445.07,32l-.39-1.82h-.09a5.29,5.29,0,0,1-1.91,1.62,5.67,5.67,0,0,1-2.37.43,4.28,4.28,0,0,1-3-1,3.57,3.57,0,0,1-1.08-2.79c0-2.58,2.06-3.94,6.19-4.06l2.17-.07v-.79a3.26,3.26,0,0,0-.64-2.23,2.73,2.73,0,0,0-2.08-.71,8.32,8.32,0,0,0-3.61,1l-.6-1.48a9,9,0,0,1,2.07-.81A9.22,9.22,0,0,1,442,19a4.89,4.89,0,0,1,3.39,1,4.24,4.24,0,0,1,1.1,3.26V32Zm-4.38-1.37a3.91,3.91,0,0,0,2.84-1,3.67,3.67,0,0,0,1-2.78V25.74l-1.94.08a6.91,6.91,0,0,0-3.33.72,2.15,2.15,0,0,0-1,2,2,2,0,0,0,.63,1.6A2.63,2.63,0,0,0,440.69,30.66Z"/><path d="M452.43,32h-1.94V13.87h1.94Z"/><path d="M461.94,32.26a5.91,5.91,0,0,1-4.48-1.73,6.69,6.69,0,0,1-1.64-4.79,7.38,7.38,0,0,1,1.53-4.91A5,5,0,0,1,461.44,19a4.79,4.79,0,0,1,3.8,1.58,6.06,6.06,0,0,1,1.4,4.17V26h-8.81A5.08,5.08,0,0,0,459,29.4a3.93,3.93,0,0,0,3,1.17,10.22,10.22,0,0,0,4.08-.87v1.73a10,10,0,0,1-1.94.64A11.58,11.58,0,0,1,461.94,32.26Zm-.53-11.63a3.15,3.15,0,0,0-2.45,1,4.65,4.65,0,0,0-1.08,2.78h6.68a4.3,4.3,0,0,0-.81-2.81A2.89,2.89,0,0,0,461.41,20.63Z"/><path d="M478.19,28.54a3.18,3.18,0,0,1-1.33,2.75,6.22,6.22,0,0,1-3.73,1,8.08,8.08,0,0,1-4-.81V29.66a9.51,9.51,0,0,0,2,.73,8.16,8.16,0,0,0,2,.27,4.7,4.7,0,0,0,2.34-.48,1.62,1.62,0,0,0,.81-1.48,1.59,1.59,0,0,0-.65-1.28,10.21,10.21,0,0,0-2.52-1.25A13.51,13.51,0,0,1,470.61,25a3.54,3.54,0,0,1-1.12-1.13,3,3,0,0,1-.37-1.5,2.86,2.86,0,0,1,1.28-2.47,5.92,5.92,0,0,1,3.48-.9,10.19,10.19,0,0,1,4,.84l-.69,1.57a9.2,9.2,0,0,0-3.49-.79,4,4,0,0,0-2.07.43,1.33,1.33,0,0,0-.7,1.19,1.47,1.47,0,0,0,.26.87,2.7,2.7,0,0,0,.85.69,18.53,18.53,0,0,0,2.24,1,8.34,8.34,0,0,1,3.07,1.67A3,3,0,0,1,478.19,28.54Z"/><path d="M144.36,76.5a5.58,5.58,0,0,0-4.44,1.87,7.59,7.59,0,0,0-1.63,5.13,7.73,7.73,0,0,0,1.57,5.17,5.58,5.58,0,0,0,4.48,1.83,15.55,15.55,0,0,0,4.07-.64v1.73a12.36,12.36,0,0,1-4.37.67A7.38,7.38,0,0,1,138.22,90a9.39,9.39,0,0,1-2.05-6.5,10.27,10.27,0,0,1,1-4.62,7,7,0,0,1,2.84-3,8.6,8.6,0,0,1,4.38-1.08,10.66,10.66,0,0,1,4.7,1l-.85,1.71A9,9,0,0,0,144.36,76.5Z"/><path d="M153.66,79.24v8.29a3.38,3.38,0,0,0,.71,2.34,2.93,2.93,0,0,0,2.23.77,3.62,3.62,0,0,0,2.93-1.1,5.51,5.51,0,0,0,.93-3.58V79.24h1.94V92h-1.6l-.28-1.72h-.1a3.91,3.91,0,0,1-1.66,1.45,5.58,5.58,0,0,1-2.41.5,4.87,4.87,0,0,1-3.49-1.11,4.74,4.74,0,0,1-1.16-3.55V79.24Z"/><path d="M171.91,92.26a5.89,5.89,0,0,1-4.48-1.73,6.69,6.69,0,0,1-1.64-4.79,7.38,7.38,0,0,1,1.53-4.91A5,5,0,0,1,171.4,79a4.81,4.81,0,0,1,3.81,1.58,6.06,6.06,0,0,1,1.4,4.17V86H167.8a5.08,5.08,0,0,0,1.14,3.42,3.93,3.93,0,0,0,3,1.17,10.26,10.26,0,0,0,4.08-.87v1.73a10,10,0,0,1-1.94.64A11.58,11.58,0,0,1,171.91,92.26Zm-.53-11.63a3.14,3.14,0,0,0-2.45,1,4.59,4.59,0,0,0-1.08,2.78h6.68a4.24,4.24,0,0,0-.82-2.81A2.86,2.86,0,0,0,171.38,80.63Z"/><path d="M188.66,92V83.75a3.35,3.35,0,0,0-.71-2.33,2.93,2.93,0,0,0-2.23-.77,3.65,3.65,0,0,0-2.94,1.09,5.47,5.47,0,0,0-.93,3.58V92h-1.94V79.24h1.57L181.8,81h.09a4.05,4.05,0,0,1,1.67-1.47A5.51,5.51,0,0,1,186,79a4.88,4.88,0,0,1,3.48,1.11,4.72,4.72,0,0,1,1.17,3.56V92Z"/><path d="M198.7,90.66a5.4,5.4,0,0,0,1-.08,7,7,0,0,0,.75-.15v1.48a3.66,3.66,0,0,1-.92.25,6.61,6.61,0,0,1-1.11.1q-3.71,0-3.71-3.91V80.74h-1.83v-.93l1.83-.8.82-2.73h1.12v3h3.71v1.5h-3.71v7.53A2.55,2.55,0,0,0,197.2,90,1.92,1.92,0,0,0,198.7,90.66Z"/><path d="M210.87,92l-.38-1.82h-.1a5.27,5.27,0,0,1-1.9,1.62,5.76,5.76,0,0,1-2.38.43,4.3,4.3,0,0,1-3-1,3.57,3.57,0,0,1-1.08-2.79c0-2.58,2.07-3.94,6.2-4.06l2.17-.07v-.79a3.26,3.26,0,0,0-.65-2.23,2.69,2.69,0,0,0-2.07-.71,8.36,8.36,0,0,0-3.62,1l-.59-1.48a9,9,0,0,1,2.07-.81,9.16,9.16,0,0,1,2.26-.29,4.92,4.92,0,0,1,3.39,1,4.28,4.28,0,0,1,1.1,3.26V92Zm-4.37-1.37a3.94,3.94,0,0,0,2.84-1,3.67,3.67,0,0,0,1-2.78V85.74l-1.93.08a7,7,0,0,0-3.34.72,2.15,2.15,0,0,0-1,2,2,2,0,0,0,.64,1.6A2.62,2.62,0,0,0,206.5,90.66Z"/><path d="M224.55,88.54a3.21,3.21,0,0,1-1.33,2.75,6.25,6.25,0,0,1-3.74,1,8,8,0,0,1-4-.81V89.66a9.63,9.63,0,0,0,2,.73,8.3,8.3,0,0,0,2,.27,4.63,4.63,0,0,0,2.33-.48,1.67,1.67,0,0,0,.17-2.76,10.21,10.21,0,0,0-2.52-1.25A13.51,13.51,0,0,1,217,85a3.44,3.44,0,0,1-1.12-1.13,3.1,3.1,0,0,1,.9-4,6,6,0,0,1,3.49-.9,10.23,10.23,0,0,1,4,.84l-.69,1.57a9.24,9.24,0,0,0-3.49-.79,4,4,0,0,0-2.08.43,1.35,1.35,0,0,0-.7,1.19,1.41,1.41,0,0,0,.27.87,2.54,2.54,0,0,0,.84.69,20.14,20.14,0,0,0,2.24,1,8.4,8.4,0,0,1,3.08,1.67A3,3,0,0,1,224.55,88.54Z"/><path d="M238.44,92.26a4.65,4.65,0,0,1-3.86-1.74,7.57,7.57,0,0,1-1.39-4.85,7.68,7.68,0,0,1,1.4-4.9,5.14,5.14,0,0,1,7.93.22h.11l.28-1.75h1.53V97.77H242.5V92.29a12.44,12.44,0,0,1,.13-2h-.15A4.58,4.58,0,0,1,238.44,92.26Zm.29-1.62a3.56,3.56,0,0,0,2.83-1,5.64,5.64,0,0,0,.94-3.5v-.43a6.35,6.35,0,0,0-.91-3.86,3.41,3.41,0,0,0-2.88-1.18A3,3,0,0,0,236.1,82a6.6,6.6,0,0,0-.9,3.74,6.39,6.39,0,0,0,.89,3.68A3,3,0,0,0,238.73,90.64Z"/><path d="M250.36,79.24v8.29a3.33,3.33,0,0,0,.72,2.34,2.89,2.89,0,0,0,2.22.77,3.65,3.65,0,0,0,2.94-1.1,5.51,5.51,0,0,0,.93-3.58V79.24h1.93V92h-1.6l-.28-1.72h-.1a3.94,3.94,0,0,1-1.65,1.45,5.64,5.64,0,0,1-2.41.5,4.86,4.86,0,0,1-3.49-1.11,4.7,4.7,0,0,1-1.17-3.55V79.24Z"/><path d="M268.61,92.26a5.87,5.87,0,0,1-4.47-1.73,6.65,6.65,0,0,1-1.64-4.79A7.43,7.43,0,0,1,264,80.83,5,5,0,0,1,268.11,79a4.79,4.79,0,0,1,3.8,1.58,6,6,0,0,1,1.4,4.17V86H264.5a5.08,5.08,0,0,0,1.14,3.42,3.94,3.94,0,0,0,3,1.17,10.18,10.18,0,0,0,4.08-.87v1.73a10,10,0,0,1-1.94.64A11.58,11.58,0,0,1,268.61,92.26Zm-.52-11.63a3.16,3.16,0,0,0-2.46,1,4.65,4.65,0,0,0-1.08,2.78h6.69a4.3,4.3,0,0,0-.82-2.81A2.86,2.86,0,0,0,268.09,80.63Z"/><path d="M287,90.66a5.37,5.37,0,0,0,1-.08c.32,0,.57-.1.76-.15v1.48a3.76,3.76,0,0,1-.93.25,6.41,6.41,0,0,1-1.1.1q-3.71,0-3.71-3.91V80.74h-1.83v-.93L283,79l.82-2.73h1.12v3h3.71v1.5H284.9v7.53a2.55,2.55,0,0,0,.55,1.77A1.89,1.89,0,0,0,287,90.66Z"/><path d="M296.66,92.26a5.91,5.91,0,0,1-4.48-1.73,6.69,6.69,0,0,1-1.64-4.79,7.38,7.38,0,0,1,1.53-4.91A5,5,0,0,1,296.16,79a4.79,4.79,0,0,1,3.8,1.58,6.06,6.06,0,0,1,1.4,4.17V86h-8.81a5.08,5.08,0,0,0,1.14,3.42,3.93,3.93,0,0,0,3,1.17,10.26,10.26,0,0,0,4.08-.87v1.73a10,10,0,0,1-1.94.64A11.58,11.58,0,0,1,296.66,92.26Zm-.53-11.63a3.15,3.15,0,0,0-2.45,1,4.65,4.65,0,0,0-1.08,2.78h6.68a4.3,4.3,0,0,0-.81-2.81A2.89,2.89,0,0,0,296.13,80.63Z"/><path d="M313.41,92V83.75a3.35,3.35,0,0,0-.71-2.33,2.93,2.93,0,0,0-2.23-.77,3.65,3.65,0,0,0-2.94,1.09,5.47,5.47,0,0,0-.93,3.58V92h-1.94V79.24h1.58l.31,1.75h.09a4.05,4.05,0,0,1,1.67-1.47A5.54,5.54,0,0,1,310.7,79a4.88,4.88,0,0,1,3.48,1.11,4.72,4.72,0,0,1,1.17,3.56V92Z"/><path d="M319.24,77.26c.38-.49.78-1.07,1.21-1.75s.77-1.28,1-1.79h2.36V74a17.31,17.31,0,0,1-1.53,1.86,18.12,18.12,0,0,1-1.76,1.72h-1.3Zm2,14.77h-1.93V79.24h1.93Z"/><path d="M333.23,92l-.38-1.82h-.1a5.27,5.27,0,0,1-1.9,1.62,5.76,5.76,0,0,1-2.38.43,4.28,4.28,0,0,1-3-1,3.57,3.57,0,0,1-1.08-2.79c0-2.58,2.07-3.94,6.2-4.06l2.17-.07v-.79a3.26,3.26,0,0,0-.65-2.23,2.69,2.69,0,0,0-2.07-.71,8.36,8.36,0,0,0-3.62,1l-.59-1.48a9,9,0,0,1,2.07-.81,9.16,9.16,0,0,1,2.26-.29,4.88,4.88,0,0,1,3.38,1,4.24,4.24,0,0,1,1.11,3.26V92Zm-4.37-1.37a3.94,3.94,0,0,0,2.84-1,3.67,3.67,0,0,0,1-2.78V85.74l-1.94.08a6.91,6.91,0,0,0-3.33.72,2.15,2.15,0,0,0-1,2,2,2,0,0,0,.64,1.6A2.6,2.6,0,0,0,328.86,90.66Z"/><path d="M354.66,92h-9.5V75h9.5v1.76h-7.52v5.5h7.07V84h-7.07v6.27h7.52Z"/><path d="M364,79a7.09,7.09,0,0,1,1.52.14l-.26,1.79a7.07,7.07,0,0,0-1.4-.17A3.42,3.42,0,0,0,361.19,82a4.61,4.61,0,0,0-1.1,3.14V92h-1.94V79.24h1.6l.22,2.37h.1a5.49,5.49,0,0,1,1.71-1.93A3.86,3.86,0,0,1,364,79Z"/><path d="M367.74,75.77a1.28,1.28,0,0,1,.33-1,1.13,1.13,0,0,1,.82-.31,1.14,1.14,0,0,1,.8.32,1.24,1.24,0,0,1,.34,1,1.28,1.28,0,0,1-.34,1,1.19,1.19,0,0,1-1.62,0A1.32,1.32,0,0,1,367.74,75.77ZM369.84,92h-1.93V79.24h1.93Z"/><path d="M375.86,85.48c.34-.47.85-1.1,1.53-1.87l4.13-4.37h2.3l-5.18,5.45L384.18,92h-2.34l-4.52-6-1.46,1.26V92H374V73.87h1.91V83.5c0,.42,0,1.09-.09,2Z"/><path d="M394.35,92,394,90.21h-.09A5.38,5.38,0,0,1,392,91.83a5.76,5.76,0,0,1-2.38.43,4.3,4.3,0,0,1-3-1,3.57,3.57,0,0,1-1.08-2.79c0-2.58,2.07-3.94,6.2-4.06l2.17-.07v-.79a3.26,3.26,0,0,0-.65-2.23,2.69,2.69,0,0,0-2.07-.71,8.39,8.39,0,0,0-3.62,1L387,80.13a9,9,0,0,1,2.07-.81A9.16,9.16,0,0,1,391.3,79a4.92,4.92,0,0,1,3.39,1,4.28,4.28,0,0,1,1.1,3.26V92ZM390,90.66a3.94,3.94,0,0,0,2.84-1,3.67,3.67,0,0,0,1-2.78V85.74l-1.93.08a7,7,0,0,0-3.34.72,2.15,2.15,0,0,0-1,2,2,2,0,0,0,.64,1.6A2.62,2.62,0,0,0,390,90.66Z"/><path d="M556.32,76.5a5.56,5.56,0,0,0-4.44,1.87,7.54,7.54,0,0,0-1.63,5.13,7.68,7.68,0,0,0,1.57,5.17,5.56,5.56,0,0,0,4.47,1.83,15.55,15.55,0,0,0,4.07-.64v1.73a12.36,12.36,0,0,1-4.37.67A7.4,7.4,0,0,1,550.17,90a9.43,9.43,0,0,1-2-6.5,10.26,10.26,0,0,1,1-4.62,7.07,7.07,0,0,1,2.85-3,8.57,8.57,0,0,1,4.38-1.08,10.62,10.62,0,0,1,4.69,1l-.84,1.71A9,9,0,0,0,556.32,76.5Z"/><path d="M565.61,79.24v8.29a3.33,3.33,0,0,0,.72,2.34,2.89,2.89,0,0,0,2.22.77,3.65,3.65,0,0,0,2.94-1.1,5.51,5.51,0,0,0,.93-3.58V79.24h1.93V92h-1.6l-.28-1.72h-.1a3.94,3.94,0,0,1-1.65,1.45,5.64,5.64,0,0,1-2.41.5,4.9,4.9,0,0,1-3.5-1.11,4.74,4.74,0,0,1-1.16-3.55V79.24Z"/><path d="M583.86,92.26a5.87,5.87,0,0,1-4.47-1.73,6.65,6.65,0,0,1-1.64-4.79,7.38,7.38,0,0,1,1.52-4.91A5,5,0,0,1,583.36,79a4.79,4.79,0,0,1,3.8,1.58,6.06,6.06,0,0,1,1.4,4.17V86h-8.81a5.08,5.08,0,0,0,1.14,3.42,3.93,3.93,0,0,0,3,1.17A10.18,10.18,0,0,0,588,89.7v1.73a10,10,0,0,1-1.94.64A11.58,11.58,0,0,1,583.86,92.26Zm-.53-11.63a3.15,3.15,0,0,0-2.45,1,4.65,4.65,0,0,0-1.08,2.78h6.69a4.3,4.3,0,0,0-.82-2.81A2.88,2.88,0,0,0,583.33,80.63Z"/><path d="M600.61,92V83.75a3.3,3.3,0,0,0-.71-2.33,2.91,2.91,0,0,0-2.23-.77,3.66,3.66,0,0,0-2.94,1.09,5.47,5.47,0,0,0-.93,3.58V92h-1.94V79.24h1.58l.31,1.75h.1a4,4,0,0,1,1.66-1.47,5.55,5.55,0,0,1,2.4-.51,4.84,4.84,0,0,1,3.47,1.11,4.72,4.72,0,0,1,1.17,3.56V92Z"/><path d="M610.66,90.66a5.37,5.37,0,0,0,1-.08c.32,0,.57-.1.76-.15v1.48a3.76,3.76,0,0,1-.93.25,6.5,6.5,0,0,1-1.1.1q-3.71,0-3.71-3.91V80.74h-1.83v-.93l1.83-.8.81-2.73h1.12v3h3.71v1.5H608.6v7.53a2.6,2.6,0,0,0,.55,1.77A1.93,1.93,0,0,0,610.66,90.66Z"/><path d="M622.83,92l-.39-1.82h-.09a5.38,5.38,0,0,1-1.91,1.62,5.67,5.67,0,0,1-2.37.43,4.26,4.26,0,0,1-3-1A3.57,3.57,0,0,1,614,88.49c0-2.58,2.06-3.94,6.19-4.06l2.17-.07v-.79a3.21,3.21,0,0,0-.65-2.23,2.69,2.69,0,0,0-2.07-.71,8.32,8.32,0,0,0-3.61,1l-.6-1.48a9,9,0,0,1,2.07-.81,9.22,9.22,0,0,1,2.26-.29,4.92,4.92,0,0,1,3.39,1,4.28,4.28,0,0,1,1.1,3.26V92Zm-4.38-1.37a3.93,3.93,0,0,0,2.84-1,3.67,3.67,0,0,0,1-2.78V85.74l-1.93.08a6.91,6.91,0,0,0-3.33.72,2.15,2.15,0,0,0-1,2,2,2,0,0,0,.63,1.6A2.63,2.63,0,0,0,618.45,90.66Z"/><path d="M636.5,88.54a3.18,3.18,0,0,1-1.33,2.75,6.22,6.22,0,0,1-3.73,1,8.08,8.08,0,0,1-4-.81V89.66a9.51,9.51,0,0,0,2,.73,8.16,8.16,0,0,0,2,.27,4.7,4.7,0,0,0,2.34-.48,1.62,1.62,0,0,0,.81-1.48,1.59,1.59,0,0,0-.65-1.28,10.21,10.21,0,0,0-2.52-1.25A13.51,13.51,0,0,1,628.92,85a3.54,3.54,0,0,1-1.12-1.13,3,3,0,0,1-.37-1.5,2.86,2.86,0,0,1,1.28-2.47,5.92,5.92,0,0,1,3.48-.9,10.19,10.19,0,0,1,4,.84l-.69,1.57a9.2,9.2,0,0,0-3.49-.79,4,4,0,0,0-2.07.43,1.33,1.33,0,0,0-.7,1.19,1.47,1.47,0,0,0,.26.87,2.59,2.59,0,0,0,.85.69,18.53,18.53,0,0,0,2.24,1,8.34,8.34,0,0,1,3.07,1.67A3,3,0,0,1,636.5,88.54Z"/><path d="M651,92.26a5.45,5.45,0,0,1-4.3-1.71,7,7,0,0,1-1.53-4.84,7.21,7.21,0,0,1,1.55-4.95,5.55,5.55,0,0,1,4.4-1.75,8.94,8.94,0,0,1,1.85.19,6.38,6.38,0,0,1,1.44.47l-.59,1.65a8.19,8.19,0,0,0-1.4-.43,6.45,6.45,0,0,0-1.34-.17q-3.9,0-3.9,5a6,6,0,0,0,1,3.62,3.31,3.31,0,0,0,2.82,1.26,8.63,8.63,0,0,0,3.28-.69v1.71A6.93,6.93,0,0,1,651,92.26Z"/><path d="M668.27,85.62a7,7,0,0,1-1.58,4.88,5.55,5.55,0,0,1-4.35,1.76,5.71,5.71,0,0,1-3-.81,5.22,5.22,0,0,1-2.06-2.31,8,8,0,0,1-.72-3.52,7.05,7.05,0,0,1,1.56-4.87A5.55,5.55,0,0,1,662.42,79a5.43,5.43,0,0,1,4.27,1.78A7,7,0,0,1,668.27,85.62Zm-9.74,0a6,6,0,0,0,1,3.73,3.38,3.38,0,0,0,2.88,1.29,3.44,3.44,0,0,0,2.89-1.28,6.09,6.09,0,0,0,1-3.74,6,6,0,0,0-1-3.7,4,4,0,0,0-5.79,0A6,6,0,0,0,658.53,85.62Z"/><path d="M673.6,92h-1.94V73.87h1.94Z"/><path d="M688.74,85.62a7,7,0,0,1-1.57,4.88,5.55,5.55,0,0,1-4.35,1.76,5.75,5.75,0,0,1-3.05-.81,5.2,5.2,0,0,1-2-2.31,8,8,0,0,1-.73-3.52,7,7,0,0,1,1.57-4.87A5.53,5.53,0,0,1,682.9,79a5.39,5.39,0,0,1,4.26,1.78A7,7,0,0,1,688.74,85.62Zm-9.74,0a6.08,6.08,0,0,0,1,3.73,3.38,3.38,0,0,0,2.88,1.29,3.44,3.44,0,0,0,2.89-1.28,6,6,0,0,0,1-3.74,5.91,5.91,0,0,0-1-3.7,3.46,3.46,0,0,0-2.91-1.27A3.41,3.41,0,0,0,680,81.9,6,6,0,0,0,679,85.62Z"/><path d="M698,79a7.12,7.12,0,0,1,1.53.14l-.27,1.79a7,7,0,0,0-1.4-.17A3.4,3.4,0,0,0,695.18,82a4.57,4.57,0,0,0-1.11,3.14V92h-1.93V79.24h1.6l.22,2.37h.09a5.61,5.61,0,0,1,1.72-1.93A3.83,3.83,0,0,1,698,79Z"/><path d="M713.86,80.74h-3.25V92h-1.94V80.74h-2.29v-.87l2.29-.7v-.71q0-4.72,4.12-4.72a8.6,8.6,0,0,1,2.38.41l-.5,1.55a6.48,6.48,0,0,0-1.92-.36,1.88,1.88,0,0,0-1.62.73,4.09,4.09,0,0,0-.52,2.34v.83h3.25ZM718.13,92h-1.94V73.87h1.94Z"/><path d="M724.06,79.24v8.29a3.33,3.33,0,0,0,.71,2.34,2.91,2.91,0,0,0,2.23.77,3.64,3.64,0,0,0,2.93-1.1,5.51,5.51,0,0,0,.93-3.58V79.24h1.93V92H731.2l-.28-1.72h-.11a3.83,3.83,0,0,1-1.65,1.45,5.61,5.61,0,0,1-2.41.5,4.87,4.87,0,0,1-3.49-1.11,4.7,4.7,0,0,1-1.16-3.55V79.24Z"/><path d="M747.94,85.62a7,7,0,0,1-1.58,4.88A5.55,5.55,0,0,1,742,92.26a5.71,5.71,0,0,1-3-.81,5.28,5.28,0,0,1-2.06-2.31,8,8,0,0,1-.72-3.52,7.05,7.05,0,0,1,1.56-4.87A5.55,5.55,0,0,1,742.09,79a5.43,5.43,0,0,1,4.27,1.78A7,7,0,0,1,747.94,85.62Zm-9.74,0a6,6,0,0,0,1,3.73,3.38,3.38,0,0,0,2.88,1.29A3.44,3.44,0,0,0,745,89.36a6.09,6.09,0,0,0,1-3.74,6,6,0,0,0-1-3.7A3.46,3.46,0,0,0,742,80.65a3.41,3.41,0,0,0-2.87,1.25A6,6,0,0,0,738.2,85.62Z"/><path d="M757.17,79a7.25,7.25,0,0,1,1.53.14l-.27,1.79a7.07,7.07,0,0,0-1.4-.17A3.42,3.42,0,0,0,754.37,82a4.61,4.61,0,0,0-1.1,3.14V92h-1.94V79.24h1.6l.22,2.37h.1A5.49,5.49,0,0,1,755,79.68,3.88,3.88,0,0,1,757.17,79Z"/></svg>