<svg xmlns="http://www.w3.org/2000/svg" viewBox="0 0 247.44 55.28"><defs><style>.cls-1{fill:#f05023;}</style></defs><title>Asset 23</title><g id="Layer_2" data-name="Layer 2"><g id="Layer_1-2" data-name="Layer 1"><path class="cls-1" d="M54.3,1V54.59H.69V1H54.3M55,.29H0v55H55Z"/><path class="cls-1" d="M150.53,1V54.59H96.91V1h53.62m.69-.69h-55v55h55Z"/><path class="cls-1" d="M246.75.69V54.3H193.14V.69h53.61m.69-.69h-55V55h55Z"/><circle cx="75.61" cy="27.78" r="2.61"/><path d="M25.72,25.05a8.65,8.65,0,0,1,5.83,1.83,6.32,6.32,0,0,1,2.12,5,7.28,7.28,0,0,1-2.31,5.71A9.31,9.31,0,0,1,25,39.68a11.77,11.77,0,0,1-6-1.26V35.85A9,9,0,0,0,21.71,37a14,14,0,0,0,3.29.41,6.53,6.53,0,0,0,4.38-1.33A4.76,4.76,0,0,0,31,32.21c0-3.27-2-4.9-6-4.9a23.67,23.67,0,0,0-4.07.46l-1.38-.88.88-11H32v2.45H22.64l-.59,7A18.35,18.35,0,0,1,25.72,25.05Z"/><path d="M131.79,39.36H116.38V37.07l6.17-6.2a47.45,47.45,0,0,0,3.72-4.07,10.58,10.58,0,0,0,1.35-2.38,6.75,6.75,0,0,0,.45-2.48,3.92,3.92,0,0,0-1.14-3,4.33,4.33,0,0,0-3.16-1.1,7.93,7.93,0,0,0-2.76.48,10.61,10.61,0,0,0-2.91,1.75l-1.41-1.82a10.81,10.81,0,0,1,7-2.69,7.49,7.49,0,0,1,5.18,1.69,5.82,5.82,0,0,1,1.87,4.55,8.79,8.79,0,0,1-1.25,4.4,27.48,27.48,0,0,1-4.68,5.52l-5.13,5v.12h12.06Z"/><path d="M213.24,39.36h-2.6V22.66c0-1.39.05-2.7.13-3.94-.22.22-.48.46-.75.7s-1.55,1.29-3.82,3.13l-1.41-1.83L211,15.93h2.24Z"/><path d="M237.68,27.61q0,6.08-1.91,9.08a6.49,6.49,0,0,1-5.86,3,6.4,6.4,0,0,1-5.75-3.07q-2-3.06-2-9,0-6.12,1.91-9.09a7.08,7.08,0,0,1,11.61.13C237,20.72,237.68,23.7,237.68,27.61Zm-12.8,0q0,5.12,1.2,7.45a4.32,4.32,0,0,0,7.68,0q1.2-2.37,1.2-7.42c0-3.36-.4-5.83-1.2-7.39a4.33,4.33,0,0,0-7.68,0C225.28,21.73,224.88,24.2,224.88,27.61Z"/><path d="M165.22,26.38V23.46h13.22v2.92Zm0,5.15V28.61h13.22v2.92Z"/></g></g></svg>