<svg xmlns="http://www.w3.org/2000/svg" viewBox="0 0 247.36 55.22"><defs><style>.cls-1{fill:#f05023;}</style></defs><title>Asset 28</title><g id="Layer_2" data-name="Layer 2"><g id="Layer_1-2" data-name="Layer 1"><path class="cls-1" d="M54.3.92V54.53H.69V.92H54.3M55,.23H0v55H55Z"/><path class="cls-1" d="M150.53.92V54.53H96.91V.92h53.62m.69-.69h-55v55h55Z"/><path class="cls-1" d="M246.68.69V54.3H193.06V.69h53.62m.68-.69h-55V55h55Z"/><circle cx="75.61" cy="27.73" r="2.61"/><path d="M21.36,39.3l9.72-21H18.3V15.87H33.9V18L24.31,39.3Z"/><path d="M131.79,39.3H116.38V37l6.17-6.2a45.94,45.94,0,0,0,3.72-4.07,10.37,10.37,0,0,0,1.35-2.38,6.71,6.71,0,0,0,.45-2.48,3.92,3.92,0,0,0-1.14-3,4.37,4.37,0,0,0-3.16-1.1,7.93,7.93,0,0,0-2.76.48A10.61,10.61,0,0,0,118.1,20l-1.41-1.81a10.77,10.77,0,0,1,7-2.7,7.49,7.49,0,0,1,5.18,1.69,5.83,5.83,0,0,1,1.87,4.55,8.85,8.85,0,0,1-1.25,4.41,27.76,27.76,0,0,1-4.68,5.51l-5.13,5v.13h12.06Z"/><path d="M213.24,39.3h-2.6V22.6c0-1.39.05-2.7.13-3.94-.22.22-.48.46-.75.7s-1.55,1.29-3.82,3.13l-1.41-1.83L211,15.87h2.24Z"/><path d="M238.66,33.92h-3.48V39.3h-2.55V33.92H221.24V31.59l11.12-15.85h2.82V31.5h3.48Zm-6-2.42V23.71c0-1.53.06-3.26.16-5.18h-.12a24.32,24.32,0,0,1-1.45,2.55L223.9,31.5Z"/><path d="M165.14,26.38V23.46h13.23v2.92Zm0,5.15V28.61h13.23v2.92Z"/></g></g></svg>