<svg xmlns="http://www.w3.org/2000/svg" viewBox="0 0 247.44 55.1"><defs><style>.cls-1{fill:#f05023;}</style></defs><title>Asset 24</title><g id="Layer_2" data-name="Layer 2"><g id="Layer_1-2" data-name="Layer 1"><path class="cls-1" d="M54.3.79V54.41H.69V.79H54.3M55,.11H0v55H55Z"/><path class="cls-1" d="M150.53.79V54.41H96.91V.79h53.62m.69-.68h-55v55h55Z"/><path class="cls-1" d="M246.75.69V54.3H193.14V.69h53.61m.69-.69h-55V55h55Z"/><circle cx="75.61" cy="27.6" r="2.61"/><path d="M25.72,24.87a8.65,8.65,0,0,1,5.83,1.83,6.31,6.31,0,0,1,2.12,5,7.26,7.26,0,0,1-2.31,5.7A9.27,9.27,0,0,1,25,39.5a11.66,11.66,0,0,1-6-1.27V35.67a9,9,0,0,0,2.78,1.13,14,14,0,0,0,3.29.41,6.59,6.59,0,0,0,4.38-1.33A4.76,4.76,0,0,0,31,32c0-3.27-2-4.9-6-4.9a23.67,23.67,0,0,0-4.07.46l-1.38-.88.88-11H32V18.2H22.64l-.59,7A19.1,19.1,0,0,1,25.72,24.87Z"/><path d="M130.9,21.26a5.37,5.37,0,0,1-1.25,3.67,6.31,6.31,0,0,1-3.57,1.91V27a6.68,6.68,0,0,1,4.18,1.79,5.27,5.27,0,0,1,1.36,3.78,6.15,6.15,0,0,1-2.32,5.16,10.58,10.58,0,0,1-6.6,1.8,18.9,18.9,0,0,1-3.41-.28,11.74,11.74,0,0,1-3-1V35.7a14.48,14.48,0,0,0,3.24,1.15,14.83,14.83,0,0,0,3.26.39q6.08,0,6.08-4.76c0-2.84-2.24-4.26-6.7-4.26h-2.31v-2.3h2.34a7,7,0,0,0,4.34-1.21,4,4,0,0,0,1.61-3.35,3.33,3.33,0,0,0-1.18-2.7,4.87,4.87,0,0,0-3.2-1,9.82,9.82,0,0,0-2.9.42,12.89,12.89,0,0,0-3.11,1.54l-1.35-1.79a11.09,11.09,0,0,1,3.33-1.79,12.19,12.19,0,0,1,4-.65A8.11,8.11,0,0,1,129,17,5.26,5.26,0,0,1,130.9,21.26Z"/><path d="M213.24,39.18h-2.6V22.48c0-1.39.05-2.71.13-3.95-.22.23-.48.46-.75.71s-1.55,1.29-3.82,3.13l-1.41-1.83L211,15.75h2.24Z"/><path d="M229.48,24.87a8.6,8.6,0,0,1,5.82,1.83,6.29,6.29,0,0,1,2.13,5,7.24,7.24,0,0,1-2.32,5.7,9.23,9.23,0,0,1-6.39,2.07,11.68,11.68,0,0,1-6-1.27V35.67a9.18,9.18,0,0,0,2.79,1.13,13.91,13.91,0,0,0,3.29.41,6.59,6.59,0,0,0,4.38-1.33A4.78,4.78,0,0,0,234.7,32q0-4.91-6-4.9a23.88,23.88,0,0,0-4.07.46l-1.38-.88.88-11h11.66V18.2H226.4l-.59,7A19.1,19.1,0,0,1,229.48,24.87Z"/><path d="M165.22,26.24V23.32h13.22v2.92Zm0,5.15V28.47h13.22v2.92Z"/></g></g></svg>