<svg xmlns="http://www.w3.org/2000/svg" viewBox="0 0 247.58 55.07"><defs><style>.cls-1{fill:#f05023;}</style></defs><title>Asset 25</title><g id="Layer_2" data-name="Layer 2"><g id="Layer_1-2" data-name="Layer 1"><path class="cls-1" d="M54.3.69V54.3H.69V.69H54.3M55,0H0V55H55Z"/><path class="cls-1" d="M150.53.69V54.3H96.91V.69h53.62m.69-.69h-55V55h55Z"/><path class="cls-1" d="M246.89.76V54.38H193.27V.76h53.62m.69-.69h-55v55h55Z"/><circle cx="75.61" cy="27.5" r="2.61"/><path d="M18.67,29.05q0-6.9,2.68-10.33t8-3.42a10.31,10.31,0,0,1,2.85.31V17.9a9,9,0,0,0-2.82-.4,7.13,7.13,0,0,0-5.76,2.35q-2,2.34-2.18,7.38h.2a6.12,6.12,0,0,1,5.57-2.76,6.55,6.55,0,0,1,5,1.91A7.21,7.21,0,0,1,34,31.56a8,8,0,0,1-2,5.74,7.1,7.1,0,0,1-5.4,2.09,6.94,6.94,0,0,1-5.77-2.73Q18.67,33.93,18.67,29.05Zm7.87,8.08a4.43,4.43,0,0,0,3.53-1.43,6.1,6.1,0,0,0,1.26-4.14,5.36,5.36,0,0,0-1.17-3.66,4.39,4.39,0,0,0-3.49-1.33,6,6,0,0,0-2.65.59,4.85,4.85,0,0,0-1.91,1.64A3.73,3.73,0,0,0,21.39,31,7.4,7.4,0,0,0,22,34a5.42,5.42,0,0,0,1.81,2.26A4.54,4.54,0,0,0,26.54,37.13Z"/><path d="M130.9,21.15a5.37,5.37,0,0,1-1.25,3.67,6.31,6.31,0,0,1-3.57,1.91v.13a6.68,6.68,0,0,1,4.18,1.79,5.31,5.31,0,0,1,1.36,3.79,6.13,6.13,0,0,1-2.32,5.15,10.58,10.58,0,0,1-6.6,1.8,18.9,18.9,0,0,1-3.41-.28,11.34,11.34,0,0,1-3-1V35.59a14,14,0,0,0,3.24,1.15,14.83,14.83,0,0,0,3.26.39c4,0,6.08-1.58,6.08-4.76,0-2.84-2.24-4.26-6.7-4.26h-2.31V25.82h2.34a7.06,7.06,0,0,0,4.34-1.21,4,4,0,0,0,1.61-3.36A3.32,3.32,0,0,0,127,18.56a4.82,4.82,0,0,0-3.2-1,10.16,10.16,0,0,0-2.9.41,13.27,13.27,0,0,0-3.11,1.54l-1.35-1.79A11.09,11.09,0,0,1,119.74,16a12.19,12.19,0,0,1,4-.65,8.05,8.05,0,0,1,5.3,1.57A5.26,5.26,0,0,1,130.9,21.15Z"/><path d="M213.24,39.07h-2.6V22.37c0-1.39.05-2.7.13-3.94-.22.22-.48.46-.75.7s-1.55,1.29-3.82,3.13l-1.41-1.83L211,15.64h2.24Z"/><path d="M229.91,15.3A8,8,0,0,1,235,16.79a5,5,0,0,1,1.88,4.12,5.1,5.1,0,0,1-1.08,3.16,9.46,9.46,0,0,1-3.43,2.6,11.45,11.45,0,0,1,4.06,2.86,5.38,5.38,0,0,1,1.2,3.47,5.8,5.8,0,0,1-2,4.65A8.28,8.28,0,0,1,230,39.39a8.88,8.88,0,0,1-5.77-1.64,5.65,5.65,0,0,1-2-4.66q0-4,4.9-6.26a9.21,9.21,0,0,1-3.17-2.7,5.77,5.77,0,0,1-1-3.25,4.92,4.92,0,0,1,1.88-4.06A7.79,7.79,0,0,1,229.91,15.3Zm-5.07,17.86a3.65,3.65,0,0,0,1.34,3,5.92,5.92,0,0,0,3.76,1.07,5.6,5.6,0,0,0,3.72-1.12A3.81,3.81,0,0,0,235,33a3.77,3.77,0,0,0-1.25-2.77,12.9,12.9,0,0,0-4.36-2.34,9.49,9.49,0,0,0-3.46,2.26A4.39,4.39,0,0,0,224.84,33.16Zm5-15.69a4.7,4.7,0,0,0-3.14,1A3.17,3.17,0,0,0,225.6,21a3.64,3.64,0,0,0,.94,2.53,9.75,9.75,0,0,0,3.5,2.12,8.61,8.61,0,0,0,3.24-2.07,3.79,3.79,0,0,0,1-2.58,3.17,3.17,0,0,0-1.16-2.57A4.9,4.9,0,0,0,229.88,17.47Z"/><path d="M165.36,26.45V23.53h13.22v2.92Zm0,5.16V28.69h13.22v2.92Z"/></g></g></svg>