<svg xmlns="http://www.w3.org/2000/svg" viewBox="0 0 247.44 54.99"><defs><style>.cls-1{fill:#f05023;}</style></defs><title>Asset 26</title><g id="Layer_2" data-name="Layer 2"><g id="Layer_1-2" data-name="Layer 1"><path d="M165.22,26.38V23.46h13.22v2.92Zm0,5.15V28.61h13.22v2.92Z"/><path class="cls-1" d="M54.3.69V54.3H.69V.69H54.3M55,0H0V55H55Z"/><path class="cls-1" d="M150.53.69V54.3H96.91V.69h53.62m.69-.69h-55V55h55Z"/><path class="cls-1" d="M246.75.69V54.3H193.14V.69h53.61m.69-.69h-55V55h55Z"/><circle cx="75.61" cy="27.5" r="2.61"/><path d="M25.72,24.76a8.65,8.65,0,0,1,5.83,1.83,6.32,6.32,0,0,1,2.12,5,7.27,7.27,0,0,1-2.31,5.71A9.31,9.31,0,0,1,25,39.39a11.77,11.77,0,0,1-6-1.26V35.56a9,9,0,0,0,2.78,1.13A13.47,13.47,0,0,0,25,37.1a6.53,6.53,0,0,0,4.38-1.33A4.76,4.76,0,0,0,31,31.92c0-3.27-2-4.9-6-4.9a23.67,23.67,0,0,0-4.07.46l-1.38-.88.88-11H32v2.45H22.64l-.59,7A18.35,18.35,0,0,1,25.72,24.76Z"/><path d="M132.89,33.69h-3.48v5.38h-2.55V33.69H115.47V31.36l11.12-15.85h2.82V31.27h3.48Zm-6-2.42V23.48c0-1.53.06-3.26.16-5.18h-.12a26.58,26.58,0,0,1-1.45,2.55l-7.32,10.42Z"/><path d="M218.79,39.07H203.38V36.78l6.17-6.2a45.94,45.94,0,0,0,3.72-4.07,10.58,10.58,0,0,0,1.35-2.38,6.75,6.75,0,0,0,.45-2.48,3.92,3.92,0,0,0-1.14-3,4.33,4.33,0,0,0-3.16-1.1,7.93,7.93,0,0,0-2.76.48,10.61,10.61,0,0,0-2.91,1.75L203.69,18a10.81,10.81,0,0,1,7.05-2.69A7.49,7.49,0,0,1,215.92,17a5.83,5.83,0,0,1,1.87,4.55A8.85,8.85,0,0,1,216.54,26a27.76,27.76,0,0,1-4.68,5.51l-5.13,5v.12h12.06Z"/><path d="M237.68,27.32q0,6.08-1.91,9.08a6.49,6.49,0,0,1-5.86,3,6.4,6.4,0,0,1-5.75-3.07q-2-3.06-2-9,0-6.12,1.91-9.08a7.08,7.08,0,0,1,11.61.12C237,20.43,237.68,23.41,237.68,27.32Zm-12.8,0q0,5.12,1.2,7.45a4.32,4.32,0,0,0,7.68,0q1.2-2.37,1.2-7.42c0-3.36-.4-5.83-1.2-7.39a4.33,4.33,0,0,0-7.68,0C225.28,21.44,224.88,23.91,224.88,27.32Z"/></g></g></svg>