<svg xmlns="http://www.w3.org/2000/svg" viewBox="0 0 247.36 55.06"><defs><style>.cls-1{fill:#f05023;}</style></defs><title>Asset 27</title><g id="Layer_2" data-name="Layer 2"><g id="Layer_1-2" data-name="Layer 1"><path d="M165.14,26.38V23.46h13.23v2.92Zm0,5.15V28.61h13.23v2.92Z"/><path class="cls-1" d="M54.3.76V54.37H.69V.76H54.3M55,.07H0v55H55Z"/><path class="cls-1" d="M150.53.76V54.37H96.91V.76h53.62m.69-.69h-55v55h55Z"/><path class="cls-1" d="M246.68.69V54.3H193.06V.69h53.62m.68-.69h-55V55h55Z"/><circle cx="75.61" cy="27.57" r="2.61"/><path d="M18.67,29.13q0-6.91,2.68-10.34t8-3.42a10.31,10.31,0,0,1,2.85.31V18a9,9,0,0,0-2.82-.4,7.13,7.13,0,0,0-5.76,2.35q-2,2.34-2.18,7.38h.2a6.12,6.12,0,0,1,5.57-2.76,6.55,6.55,0,0,1,5,1.91A7.21,7.21,0,0,1,34,31.63a8,8,0,0,1-2,5.74,7.1,7.1,0,0,1-5.4,2.09,6.94,6.94,0,0,1-5.77-2.73C19.38,34.91,18.67,32.37,18.67,29.13Zm7.87,8.07a4.46,4.46,0,0,0,3.53-1.43,6.1,6.1,0,0,0,1.26-4.14A5.36,5.36,0,0,0,30.16,28a4.39,4.39,0,0,0-3.49-1.33,6,6,0,0,0-2.65.59,4.85,4.85,0,0,0-1.91,1.64A3.73,3.73,0,0,0,21.39,31,7.4,7.4,0,0,0,22,34.11a5.42,5.42,0,0,0,1.81,2.26A4.54,4.54,0,0,0,26.54,37.2Z"/><path d="M131.79,39.14H116.38V36.85l6.17-6.2a45.94,45.94,0,0,0,3.72-4.07,10.58,10.58,0,0,0,1.35-2.38,6.75,6.75,0,0,0,.45-2.48,3.92,3.92,0,0,0-1.14-3,4.33,4.33,0,0,0-3.16-1.1,7.93,7.93,0,0,0-2.76.48,10.61,10.61,0,0,0-2.91,1.75l-1.41-1.82a10.81,10.81,0,0,1,7-2.69,7.49,7.49,0,0,1,5.18,1.69,5.83,5.83,0,0,1,1.87,4.55,8.79,8.79,0,0,1-1.25,4.4,27.48,27.48,0,0,1-4.68,5.52l-5.13,5v.12h12.06Z"/><path d="M213.24,39.14h-2.6V22.44c0-1.39.05-2.7.13-3.94-.22.22-.48.46-.75.7s-1.55,1.29-3.82,3.13l-1.41-1.83L211,15.71h2.24Z"/><path d="M237.56,39.14H222.15V36.85l6.17-6.2A45.94,45.94,0,0,0,232,26.58a10.58,10.58,0,0,0,1.35-2.38,6.75,6.75,0,0,0,.45-2.48,3.92,3.92,0,0,0-1.14-3,4.33,4.33,0,0,0-3.16-1.1,7.93,7.93,0,0,0-2.76.48,10.61,10.61,0,0,0-2.91,1.75l-1.41-1.82a10.81,10.81,0,0,1,7-2.69,7.49,7.49,0,0,1,5.18,1.69,5.83,5.83,0,0,1,1.87,4.55,8.79,8.79,0,0,1-1.25,4.4,27.48,27.48,0,0,1-4.68,5.52l-5.13,5v.12h12.06Z"/></g></g></svg>