<svg id="Layer_1" data-name="Layer 1" xmlns="http://www.w3.org/2000/svg" xmlns:xlink="http://www.w3.org/1999/xlink" viewBox="0 0 916.6 347.3"><defs><style>.cls-1,.cls-4{fill:#f48120;stroke-width:2px;}.cls-1,.cls-2{stroke:#f48120;}.cls-1,.cls-2,.cls-4{stroke-miterlimit:10;}.cls-2{fill:none;stroke-width:1.99px;}.cls-3{fill:url(#linear-gradient);}.cls-4{stroke:#ecebeb;}.cls-5{font-size:67.26px;fill:#ebebeb;font-family:LarkeNeueThin-Thin, Larke Neue Thin;}</style><linearGradient id="linear-gradient" x1="1" y1="57.68" x2="915.6" y2="57.68" gradientUnits="userSpaceOnUse"><stop offset="0" stop-color="#f48120"/><stop offset="1" stop-color="#bb2626"/></linearGradient></defs><title>Tabla C_3x1</title><line class="cls-1" x1="304.68" y1="19.77" x2="304.68" y2="346.3"/><line class="cls-1" x1="607.67" y1="19.77" x2="607.67" y2="346.3"/><path class="cls-2" d="M890.85,346.3H25.75C12.13,346.3,1,331.55,1,313.51V53C1,35,12.13,20.2,25.75,20.2h865.1C904.46,20.2,915.6,35,915.6,53V313.51C915.6,331.55,904.46,346.3,890.85,346.3Z"/><path class="cls-3" d="M883.29.06H31.38C-.22.06,1,26,1,57.68H1c0,31.68-1.22,57.61,30.38,57.61H883.29c31.6,0,32.31-25.93,32.31-57.61h0C915.6,26,914.89.06,883.29.06Z"/><line class="cls-4" x1="304.68" y1="0.06" x2="304.68" y2="115.35"/><line class="cls-4" x1="607.67" x2="607.67" y2="115.29"/><text class="cls-5" transform="translate(124.14 82.21)">C</text><text class="cls-5" transform="translate(434.11 82.21)">D</text><text class="cls-5" transform="translate(748.12 82.21)">U</text></svg>