<svg xmlns="http://www.w3.org/2000/svg" viewBox="0 0 200 106.7"><defs><style>.cls-1{fill:#ababab;}.cls-2{fill:#fff;}.cls-3{fill:#595959;}.cls-4{fill:#5f90f0;}.cls-5{fill:#020202;}.cls-6{fill:#6d6d6d;}.cls-7{fill:#1e1e1e;}.cls-8{fill:#161616;}.cls-9{fill:#f08c2e;}</style></defs><title>bici azul_1</title><g id="Capa_2" data-name="Capa 2"><g id="Layer_3" data-name="Layer 3"><rect class="cls-1" x="30.46" y="49.79" width="1" height="51.9"/><rect class="cls-1" x="5.01" y="75.24" width="51.9" height="1"/><rect class="cls-1" x="30.46" y="49.79" width="1" height="51.9" transform="translate(-44.49 44.07) rotate(-45)"/><rect class="cls-1" x="5.01" y="75.24" width="51.9" height="1" transform="translate(-44.49 44.07) rotate(-45)"/><path d="M31,51.7a24,24,0,1,1-24,24,24.07,24.07,0,0,1,24-24m0-6.92a31,31,0,1,0,30.95,31A31,31,0,0,0,31,44.78Z"/><path class="cls-2" d="M31,49.55A26.19,26.19,0,1,1,4.76,75.74,26.22,26.22,0,0,1,31,49.55m0-1.73A27.92,27.92,0,1,0,58.88,75.74,27.93,27.93,0,0,0,31,47.82Z"/><circle class="cls-3" cx="30.96" cy="75.74" r="1.14"/><path class="cls-3" d="M31,77.13a1.39,1.39,0,1,1,1.38-1.39A1.39,1.39,0,0,1,31,77.13Zm0-2.28a.89.89,0,1,0,.88.89A.89.89,0,0,0,31,74.85Z"/><rect class="cls-1" x="168.54" y="49.79" width="1" height="51.9"/><rect class="cls-1" x="143.09" y="75.24" width="51.9" height="1"/><rect class="cls-1" x="168.54" y="49.79" width="1" height="51.9" transform="translate(-4.04 141.72) rotate(-45)"/><rect class="cls-1" x="143.09" y="75.24" width="51.9" height="1" transform="translate(-4.04 141.71) rotate(-45)"/><path d="M169,51.7a24,24,0,1,1-24,24,24.06,24.06,0,0,1,24-24m0-6.92a31,31,0,1,0,31,31,31,31,0,0,0-31-31Z"/><path class="cls-2" d="M169,49.55a26.19,26.19,0,1,1-26.19,26.19A26.22,26.22,0,0,1,169,49.55m0-1.73A27.92,27.92,0,1,0,197,75.74,27.92,27.92,0,0,0,169,47.82Z"/><rect class="cls-1" x="67.87" y="12.21" width="3.45" height="8.3" transform="translate(-1.12 5.82) rotate(-4.75)"/><path class="cls-4" d="M83.49,64.5,29.4,72.8a1,1,0,0,0-1,1v3.63a1,1,0,0,0,1,1l51-8.3a3.73,3.73,0,0,0,3.74-3.72V65.13A.64.64,0,0,0,83.49,64.5Z"/><rect class="cls-4" x="22.27" y="53.59" width="60.63" height="5.53" rx="2.68" transform="translate(-24.23 50.03) rotate(-42.27)"/><path class="cls-4" d="M67.12,17.71,78,66.57A2.74,2.74,0,0,0,81,69.12h0a2.75,2.75,0,0,0,2.61-2.87L72.65,17.39a.78.78,0,0,0-.83-.73l-3.95.23A.78.78,0,0,0,67.12,17.71Z"/><rect class="cls-4" x="70.47" y="25.59" width="91" height="5.53" rx="2.68" transform="translate(-1.95 9.7) rotate(-4.75)"/><path class="cls-4" d="M158.78,31.27,80.64,64.17c-1.39.63.9,5.68,2.29,5l78.14-32.9a2.76,2.76,0,0,0,1.37-3.66h0A2.77,2.77,0,0,0,158.78,31.27Z"/><circle class="cls-3" cx="30.86" cy="75.57" r="1.3"/><path class="cls-3" d="M30.86,77.11a1.55,1.55,0,1,1,1.55-1.54A1.55,1.55,0,0,1,30.86,77.11Zm0-2.59a1,1,0,1,0,1.05,1A1,1,0,0,0,30.86,74.52Z"/><path class="cls-4" d="M130.82,40.9h66a.36.36,0,0,1,.36.36v1.35a3.82,3.82,0,0,1-3.82,3.82H130.82a2.68,2.68,0,0,1-2.68-2.68v-.18a2.68,2.68,0,0,1,2.68-2.68Z" transform="translate(150.97 211.68) rotate(-101.05)"/><path class="cls-1" d="M74,22l-6.43,1.23c-.16,0-.31,0-.32-.11L67,21c0-.08.1-.17.25-.2l6.42-1.13c.17,0,.31,0,.32.11l.21,2C74.21,21.9,74.1,22,74,22Z"/><circle class="cls-5" cx="65.19" cy="7.69" r="7.69"/><path class="cls-5" d="M69.87,14l-.19-2.52a4.69,4.69,0,0,0-2,.34C64.92,12.9,62.4,9,63.21,6.15h0a5.21,5.21,0,0,1,1.1-3.21,5.13,5.13,0,0,1,5.45-1.7h0A80.51,80.51,0,0,0,83.71,3.91c5.18.54,10.7,0,11.14,6.2h0c0,2.27-9.23-.88-17.9,2.69C74.71,13.72,72.13,13.18,69.87,14Z"/><path class="cls-6" d="M168.18,10.19s.69,1-.35,1.39a18.08,18.08,0,0,1-2.41.49,1.29,1.29,0,0,0-1,1.58h0s4.85-.69,4.85-1.73V9.85Z"/><rect class="cls-5" x="152.96" y="8.12" width="17.64" height="3.46" rx="1.67" transform="translate(1.11 31.19) rotate(-11.05)"/><circle class="cls-3" cx="168.87" cy="75.22" r="1.3"/><path class="cls-3" d="M168.87,76.77a1.55,1.55,0,1,1,1.55-1.55A1.56,1.56,0,0,1,168.87,76.77Zm0-2.6a1,1,0,1,0,1,1A1,1,0,0,0,168.87,74.17Z"/><rect class="cls-7" x="76.87" y="62.77" width="8.6" height="8.6" transform="translate(-5.06 6.65) rotate(-4.55)"/><rect class="cls-7" x="76.87" y="62.77" width="8.6" height="8.6" transform="translate(71.2 -37.75) rotate(45)"/><rect class="cls-7" x="76.87" y="62.77" width="8.6" height="8.6" transform="translate(174.78 18.88) rotate(113.2)"/><rect class="cls-7" x="76.87" y="62.77" width="8.6" height="8.6" transform="translate(112.73 -33.38) rotate(67.88)"/><rect class="cls-1" x="77.84" y="63.75" width="6.64" height="6.64" transform="translate(-5.06 6.65) rotate(-4.55)"/><rect class="cls-1" x="77.84" y="63.75" width="6.64" height="6.64" transform="translate(71.2 -37.75) rotate(45)"/><rect class="cls-1" x="77.84" y="63.75" width="6.64" height="6.64" transform="translate(174.78 18.88) rotate(113.2)"/><rect class="cls-1" x="77.84" y="63.75" width="6.64" height="6.64" transform="translate(112.73 -33.38) rotate(67.88)"/><rect class="cls-6" x="79.98" y="66.23" width="2.42" height="14.87" rx="1.17"/><circle class="cls-1" cx="81.19" cy="80.58" r="1.9"/><path class="cls-8" d="M77.69,80.75h7a.48.48,0,0,1,.48.48v.07a1.53,1.53,0,0,1-1.53,1.53h-4.9a1.53,1.53,0,0,1-1.53-1.53v-.07A.48.48,0,0,1,77.69,80.75Z"/><path class="cls-9" d="M77.86,31.51l19.39-1.9,19.4-1.84c6.47-.62,12.93-1.29,19.41-1.79,3.24-.24,6.47-.49,9.72-.68l4.86-.3c1.62-.08,3.25-.18,4.87-.24v.1c-1.61.22-3.23.41-4.84.61l-4.84.55c-3.23.36-6.46.68-9.69,1-6.47.63-13,1.07-19.43,1.58L97.3,30.13,77.87,31.61Z"/></g></g></svg>