<svg xmlns="http://www.w3.org/2000/svg" viewBox="0 0 200 106.72"><defs><style>.cls-1{fill:#ababab;}.cls-2{fill:#fff;}.cls-3{fill:#595959;}.cls-4{fill:#ded963;}.cls-5{fill:#020202;}.cls-6{fill:#1e1e1e;}.cls-7{fill:#6d6d6d;}.cls-8{fill:#161616;}.cls-9{fill:#5f90f0;}</style></defs><title>Bici amarilla_1</title><g id="Capa_2" data-name="Capa 2"><g id="Layer_3" data-name="Layer 3"><rect class="cls-1" x="30.46" y="49.8" width="1" height="51.91"/><rect class="cls-1" x="5.01" y="75.26" width="51.9" height="1"/><rect class="cls-1" x="30.46" y="49.81" width="1" height="51.91" transform="translate(-44.5 44.07) rotate(-44.99)"/><rect class="cls-1" x="5" y="75.26" width="51.91" height="1" transform="translate(-44.48 44.02) rotate(-44.95)"/><path d="M31,51.71a24.05,24.05,0,1,1-24,24.05A24.08,24.08,0,0,1,31,51.71m0-6.92a31,31,0,1,0,30.95,31A31,31,0,0,0,31,44.79Z"/><path class="cls-2" d="M31,49.56a26.2,26.2,0,1,1-26.2,26.2A26.22,26.22,0,0,1,31,49.56m0-1.73A27.93,27.93,0,1,0,58.88,75.76,27.93,27.93,0,0,0,31,47.83Z"/><circle class="cls-3" cx="30.96" cy="75.76" r="1.14"/><path class="cls-3" d="M31,77.15a1.39,1.39,0,1,1,1.38-1.39A1.39,1.39,0,0,1,31,77.15Zm0-2.28a.89.89,0,1,0,.88.89A.89.89,0,0,0,31,74.87Z"/><rect class="cls-1" x="168.54" y="49.8" width="1" height="51.91"/><rect class="cls-1" x="143.09" y="75.26" width="51.9" height="1"/><rect class="cls-1" x="168.54" y="49.81" width="1" height="51.91" transform="translate(-4.07 141.7) rotate(-44.99)"/><rect class="cls-1" x="143.09" y="75.26" width="51.91" height="1" transform="translate(-4.11 141.57) rotate(-44.95)"/><path d="M169,51.71a24.05,24.05,0,1,1-24,24.05,24.07,24.07,0,0,1,24-24.05m0-6.92a31,31,0,1,0,31,31,31,31,0,0,0-31-31Z"/><path class="cls-2" d="M169,49.56a26.2,26.2,0,1,1-26.19,26.2A26.23,26.23,0,0,1,169,49.56m0-1.73A27.93,27.93,0,1,0,197,75.76,27.92,27.92,0,0,0,169,47.83Z"/><rect class="cls-1" x="67.87" y="12.22" width="3.45" height="8.3" transform="translate(-1.12 5.82) rotate(-4.75)"/><path class="cls-4" d="M83.49,64.52,29.4,72.82a1,1,0,0,0-1,1V77.4a1,1,0,0,0,1,.95l51-8.3a3.73,3.73,0,0,0,3.74-3.72V65.15A.64.64,0,0,0,83.49,64.52Z"/><rect class="cls-4" x="22.26" y="53.6" width="60.64" height="5.54" rx="2.77" transform="translate(-24.25 50.04) rotate(-42.28)"/><path class="cls-4" d="M67.12,17.71,78,66.58A2.75,2.75,0,0,0,81,69.14h0a2.75,2.75,0,0,0,2.61-2.88L72.65,17.39a.79.79,0,0,0-.83-.73l-3.95.23A.79.79,0,0,0,67.12,17.71Z"/><rect class="cls-4" x="70.47" y="25.59" width="91" height="5.54" rx="2.77" transform="translate(-1.95 9.7) rotate(-4.75)"/><path class="cls-4" d="M158.78,31.28,80.64,64.19c-1.39.63.9,5.67,2.29,5l78.14-32.91a2.76,2.76,0,0,0,1.37-3.66h0A2.76,2.76,0,0,0,158.78,31.28Z"/><circle class="cls-3" cx="30.86" cy="75.59" r="1.3"/><path class="cls-3" d="M30.86,77.13a1.55,1.55,0,1,1,1.55-1.54A1.55,1.55,0,0,1,30.86,77.13Zm0-2.59a1,1,0,1,0,1.05,1A1,1,0,0,0,30.86,74.54Z"/><path class="cls-4" d="M130.9,40.92h65.91a.37.37,0,0,1,.37.37V42.5a4,4,0,0,1-4,4H130.9a2.77,2.77,0,0,1-2.77-2.77v0A2.77,2.77,0,0,1,130.9,40.92Z" transform="matrix(-0.19, -0.98, 0.98, -0.19, 150.95, 211.7)"/><path class="cls-1" d="M74,22l-6.43,1.24c-.16,0-.31,0-.32-.11L67,21c0-.09.1-.18.25-.2l6.42-1.14c.17,0,.31,0,.32.12l.21,2C74.21,21.91,74.1,22,74,22Z"/><circle class="cls-5" cx="65.19" cy="7.69" r="7.69"/><path class="cls-5" d="M69.87,14l-.19-2.52a4.7,4.7,0,0,0-2,.35C64.92,12.9,62.4,9,63.21,6.15h0a5.24,5.24,0,0,1,1.1-3.21,5.13,5.13,0,0,1,5.45-1.7h0A80.51,80.51,0,0,0,83.71,3.91c5.18.54,10.7,0,11.14,6.2h0c0,2.28-9.23-.88-17.9,2.69C74.71,13.72,72.13,13.19,69.87,14Z"/><rect class="cls-5" x="152.96" y="8.12" width="17.64" height="3.46" rx="1.73" transform="translate(1.11 31.2) rotate(-11.05)"/><circle class="cls-3" cx="168.87" cy="75.24" r="1.3"/><path class="cls-3" d="M168.87,76.79a1.55,1.55,0,1,1,1.55-1.55A1.56,1.56,0,0,1,168.87,76.79Zm0-2.6a1.05,1.05,0,1,0,1,1A1,1,0,0,0,168.87,74.19Z"/><rect class="cls-6" x="76.87" y="62.79" width="8.6" height="8.6" transform="translate(-5.07 6.65) rotate(-4.55)"/><rect class="cls-6" x="76.87" y="62.79" width="8.6" height="8.6" transform="translate(71.22 -37.74) rotate(45.01)"/><rect class="cls-6" x="76.87" y="62.79" width="8.6" height="8.6" transform="translate(174.79 18.9) rotate(113.19)"/><rect class="cls-6" x="76.87" y="62.79" width="8.6" height="8.6" transform="translate(112.76 -33.36) rotate(67.89)"/><rect class="cls-1" x="77.84" y="63.77" width="6.64" height="6.64" transform="translate(-5.07 6.65) rotate(-4.55)"/><rect class="cls-1" x="77.84" y="63.77" width="6.64" height="6.64" transform="translate(71.22 -37.74) rotate(45.01)"/><rect class="cls-1" x="77.84" y="63.77" width="6.64" height="6.64" transform="translate(174.79 18.9) rotate(113.19)"/><rect class="cls-1" x="77.84" y="63.77" width="6.64" height="6.64" transform="translate(112.76 -33.36) rotate(67.89)"/><rect class="cls-7" x="79.98" y="66.25" width="2.42" height="14.88" rx="1.21"/><circle class="cls-1" cx="81.19" cy="80.6" r="1.9"/><path class="cls-8" d="M77.71,80.78h7a.5.5,0,0,1,.5.5v0a1.58,1.58,0,0,1-1.58,1.58h-4.8a1.58,1.58,0,0,1-1.58-1.58v0a.5.5,0,0,1,.5-.5Z"/><path class="cls-5" d="M167.45,10.08l-.35-.49c-1.07-4.1-3.72-6.65-7.88-5.82l-3.6.72a1.72,1.72,0,0,1-.91-2.27h0A1.73,1.73,0,0,1,157,1.31l3.83-.67A8,8,0,0,1,170,6.9h0a1.73,1.73,0,0,1,.9,2.27h0C170.55,10.05,168.33,10.46,167.45,10.08Z"/><polygon class="cls-9" points="142.2 24.65 105.24 27.35 110.13 28.9 81.32 31.22 118.83 30.45 115.02 28.13 142.2 24.65"/><polygon class="cls-9" points="134.47 41.99 112.84 51.55 116.23 51.91 99.43 59.54 121.92 51.52 118.98 50.29 134.47 41.99"/></g></g></svg>