<svg xmlns="http://www.w3.org/2000/svg" xmlns:xlink="http://www.w3.org/1999/xlink" viewBox="0 0 634.13 162.73"><defs><style>.cls-1,.cls-10,.cls-5,.cls-7,.cls-9{fill:none;}.cls-2{clip-path:url(#clip-path);}.cls-3{fill:#baff78;}.cls-4{fill:#83ff00;}.cls-5{stroke:#000;stroke-width:0.5px;}.cls-10,.cls-5,.cls-7,.cls-9{stroke-miterlimit:10;}.cls-6{font-size:12.13px;font-family:LarkeNeue-Regular, Larke Neue;}.cls-7{stroke:#f30;}.cls-8{fill:#dbdbdb;}.cls-10,.cls-9{stroke:#dbdbdb;}.cls-9{stroke-width:0.75px;}.cls-10{stroke-width:0.25px;}.cls-11{fill:#f2d5c7;}.cls-12{fill:#6b99bd;}.cls-13,.cls-14{fill:#427b99;}.cls-13{opacity:0.5;}.cls-15{fill:#428e80;}.cls-16{fill:#b55930;}.cls-17{fill:#e0e0e0;}.cls-18{fill:#c9934b;}.cls-19{fill:#896029;}.cls-20{fill:#513513;}.cls-21{fill:#3f3f3f;}.cls-22{fill:#cfaa13;}.cls-23{fill:#c36a3e;}.cls-24{fill:#8e1d21;}.cls-25{fill:#d75f5e;}.cls-26{fill:#3a3a3a;}.cls-27{fill:#fff;}.cls-28{fill:#444;}.cls-29{fill:#f30;}</style><clipPath id="clip-path" transform="translate(0 -101.55)"><rect class="cls-1" x="0.79" width="399.5" height="399.5"/></clipPath></defs><title>zoom5</title><g id="Capa_2" data-name="Capa 2"><g id="Layer_1" data-name="Layer 1"><g class="cls-2"><rect class="cls-3" x="55.24" y="113.85" width="549.08" height="47.88" rx="1.02"/><path class="cls-4" d="M603.29,216.4l0,0,0,45.86-547,0,0-45.86h547m0-2h-547a2,2,0,0,0-2,2v45.84a2,2,0,0,0,2,2h547a2,2,0,0,0,2-2V216.42a2,2,0,0,0-2-2Z" transform="translate(0 -101.55)"/><line class="cls-5" x1="65.86" y1="112.85" x2="65.86" y2="130.03"/><line class="cls-5" x1="118.02" y1="112.85" x2="118.02" y2="130.03"/><line class="cls-5" x1="170.19" y1="112.85" x2="170.19" y2="130.03"/><line class="cls-5" x1="222.35" y1="112.85" x2="222.35" y2="130.03"/><line class="cls-5" x1="274.52" y1="112.85" x2="274.52" y2="130.03"/><line class="cls-5" x1="326.68" y1="112.85" x2="326.68" y2="130.03"/><line class="cls-5" x1="378.84" y1="112.85" x2="378.84" y2="130.03"/><line class="cls-5" x1="431.01" y1="112.85" x2="431.01" y2="130.03"/><line class="cls-5" x1="483.17" y1="112.85" x2="483.17" y2="130.03"/><line class="cls-5" x1="535.34" y1="112.85" x2="535.34" y2="130.03"/><line class="cls-5" x1="587.5" y1="112.85" x2="587.5" y2="130.03"/><text class="cls-6" transform="translate(110.68 142.66)">0,1</text><text class="cls-6" transform="translate(161.75 142.66)">0,2</text><text class="cls-6" transform="translate(213.68 142.66)">0,3</text><text class="cls-6" transform="translate(265.63 142.66)">0,4</text><text class="cls-6" transform="translate(317.89 142.66)">0,5</text><text class="cls-6" transform="translate(369.93 142.66)">0,6</text><text class="cls-6" transform="translate(422.29 142.66)">0,7</text><text class="cls-6" transform="translate(474.3 142.66)">0,8</text><text class="cls-6" transform="translate(526.41 142.66)">0,9</text><text class="cls-6" transform="translate(585.38 142.66)">1</text><text class="cls-6" transform="translate(62.04 142.66)">0</text><line class="cls-5" x1="71.08" y1="112.85" x2="71.08" y2="125.35"/><line class="cls-5" x1="76.29" y1="112.85" x2="76.29" y2="125.35"/><line class="cls-5" x1="81.51" y1="112.85" x2="81.51" y2="125.35"/><line class="cls-5" x1="86.72" y1="112.85" x2="86.72" y2="125.35"/><line class="cls-5" x1="91.94" y1="112.85" x2="91.94" y2="127.74"/><line class="cls-5" x1="97.16" y1="112.85" x2="97.16" y2="125.35"/><line class="cls-5" x1="102.37" y1="112.85" x2="102.37" y2="125.35"/><line class="cls-5" x1="107.59" y1="112.85" x2="107.59" y2="125.35"/><line class="cls-5" x1="112.81" y1="112.85" x2="112.81" y2="125.35"/><line class="cls-5" x1="123.24" y1="112.85" x2="123.24" y2="125.35"/><line class="cls-5" x1="128.46" y1="112.85" x2="128.46" y2="125.35"/><line class="cls-5" x1="133.67" y1="112.85" x2="133.67" y2="125.35"/><line class="cls-5" x1="138.89" y1="112.85" x2="138.89" y2="125.35"/><line class="cls-5" x1="144.11" y1="112.85" x2="144.11" y2="127.74"/><line class="cls-5" x1="149.32" y1="112.85" x2="149.32" y2="125.35"/><line class="cls-5" x1="154.54" y1="112.85" x2="154.54" y2="125.35"/><line class="cls-5" x1="159.75" y1="112.85" x2="159.75" y2="125.35"/><line class="cls-5" x1="164.97" y1="112.85" x2="164.97" y2="125.35"/><line class="cls-5" x1="175.4" y1="112.85" x2="175.4" y2="125.35"/><line class="cls-5" x1="180.62" y1="112.85" x2="180.62" y2="125.35"/><line class="cls-5" x1="185.84" y1="112.85" x2="185.84" y2="125.35"/><line class="cls-5" x1="191.05" y1="112.85" x2="191.05" y2="125.35"/><line class="cls-5" x1="196.27" y1="112.85" x2="196.27" y2="127.74"/><line class="cls-5" x1="201.49" y1="112.85" x2="201.49" y2="125.35"/><line class="cls-5" x1="206.7" y1="112.85" x2="206.7" y2="125.35"/><line class="cls-5" x1="211.92" y1="112.85" x2="211.92" y2="125.35"/><line class="cls-5" x1="227.57" y1="112.85" x2="227.57" y2="125.35"/><line class="cls-5" x1="232.78" y1="112.85" x2="232.78" y2="125.35"/><line class="cls-5" x1="238" y1="112.85" x2="238" y2="125.35"/><line class="cls-5" x1="243.22" y1="112.85" x2="243.22" y2="125.35"/><line class="cls-5" x1="248.43" y1="112.85" x2="248.43" y2="127.74"/><line class="cls-5" x1="253.65" y1="112.85" x2="253.65" y2="125.35"/><line class="cls-5" x1="258.87" y1="112.85" x2="258.87" y2="125.35"/><line class="cls-5" x1="264.08" y1="112.85" x2="264.08" y2="125.35"/><line class="cls-5" x1="269.3" y1="112.85" x2="269.3" y2="125.35"/><line class="cls-5" x1="279.73" y1="112.85" x2="279.73" y2="125.35"/><line class="cls-5" x1="284.95" y1="112.85" x2="284.95" y2="125.35"/><line class="cls-5" x1="290.17" y1="112.85" x2="290.17" y2="125.35"/><line class="cls-5" x1="295.38" y1="112.85" x2="295.38" y2="125.35"/><line class="cls-5" x1="300.6" y1="112.85" x2="300.6" y2="127.74"/><line class="cls-5" x1="305.81" y1="112.85" x2="305.81" y2="125.35"/><line class="cls-5" x1="311.03" y1="112.85" x2="311.03" y2="125.35"/><line class="cls-5" x1="316.25" y1="112.85" x2="316.25" y2="125.35"/><line class="cls-5" x1="321.46" y1="112.85" x2="321.46" y2="125.35"/><line class="cls-5" x1="331.9" y1="112.85" x2="331.9" y2="125.35"/><line class="cls-5" x1="337.11" y1="112.85" x2="337.11" y2="125.35"/><line class="cls-5" x1="342.33" y1="112.85" x2="342.33" y2="125.35"/><line class="cls-5" x1="347.55" y1="112.85" x2="347.55" y2="125.35"/><line class="cls-5" x1="357.98" y1="112.85" x2="357.98" y2="125.35"/><line class="cls-5" x1="363.2" y1="112.85" x2="363.2" y2="125.35"/><line class="cls-5" x1="368.41" y1="112.85" x2="368.41" y2="125.35"/><line class="cls-5" x1="373.63" y1="112.85" x2="373.63" y2="125.35"/><line class="cls-7" x1="384.06" y1="111.26" x2="384.06" y2="125.35"/><line class="cls-5" x1="389.28" y1="112.85" x2="389.28" y2="125.35"/><line class="cls-5" x1="394.49" y1="112.85" x2="394.49" y2="125.35"/><line class="cls-5" x1="399.71" y1="112.85" x2="399.71" y2="125.35"/><line class="cls-5" x1="404.93" y1="112.85" x2="404.93" y2="127.74"/><line class="cls-5" x1="410.14" y1="112.85" x2="410.14" y2="125.35"/><line class="cls-5" x1="415.36" y1="112.85" x2="415.36" y2="125.35"/><line class="cls-5" x1="420.58" y1="112.85" x2="420.58" y2="125.35"/><line class="cls-5" x1="425.79" y1="112.85" x2="425.79" y2="125.35"/><line class="cls-5" x1="436.25" y1="112.85" x2="436.25" y2="125.35"/><line class="cls-5" x1="441.47" y1="112.85" x2="441.47" y2="125.35"/><line class="cls-5" x1="446.68" y1="112.85" x2="446.68" y2="125.35"/><line class="cls-5" x1="451.9" y1="112.85" x2="451.9" y2="125.35"/><line class="cls-5" x1="457.12" y1="112.85" x2="457.12" y2="127.74"/><line class="cls-5" x1="462.33" y1="112.85" x2="462.33" y2="125.35"/><line class="cls-5" x1="467.55" y1="112.85" x2="467.55" y2="125.35"/><line class="cls-5" x1="477.98" y1="112.85" x2="477.98" y2="125.35"/><line class="cls-5" x1="488.39" y1="112.85" x2="488.39" y2="125.35"/><line class="cls-5" x1="493.61" y1="112.85" x2="493.61" y2="125.35"/><line class="cls-5" x1="498.82" y1="112.85" x2="498.82" y2="125.35"/><line class="cls-5" x1="504.04" y1="112.85" x2="504.04" y2="125.35"/><line class="cls-5" x1="509.26" y1="112.85" x2="509.26" y2="127.74"/><line class="cls-5" x1="514.47" y1="112.85" x2="514.47" y2="125.35"/><line class="cls-5" x1="519.69" y1="112.85" x2="519.69" y2="125.35"/><line class="cls-5" x1="524.9" y1="112.85" x2="524.9" y2="125.35"/><line class="cls-5" x1="530.12" y1="112.85" x2="530.12" y2="125.35"/><line class="cls-5" x1="540.59" y1="112.85" x2="540.59" y2="125.35"/><line class="cls-5" x1="545.8" y1="112.85" x2="545.8" y2="125.35"/><line class="cls-5" x1="551.02" y1="112.85" x2="551.02" y2="125.35"/><line class="cls-5" x1="556.24" y1="112.85" x2="556.24" y2="125.35"/><line class="cls-5" x1="561.45" y1="112.85" x2="561.45" y2="127.74"/><line class="cls-5" x1="566.67" y1="112.85" x2="566.67" y2="125.35"/><line class="cls-5" x1="571.89" y1="112.85" x2="571.89" y2="125.35"/><line class="cls-5" x1="577.1" y1="112.85" x2="577.1" y2="125.35"/><line class="cls-5" x1="582.32" y1="112.85" x2="582.32" y2="125.35"/><line class="cls-5" x1="472.77" y1="112.85" x2="472.77" y2="125.35"/><line class="cls-5" x1="217.14" y1="112.85" x2="217.14" y2="125.35"/><line class="cls-5" x1="352.76" y1="112.85" x2="352.76" y2="127.74"/><rect class="cls-8" x="577.72" y="104.24" width="56.41" height="3.05" rx="0.95"/><path class="cls-9" d="M631.06,208.34,607.6,107.47a7.42,7.42,0,0,0-7-5.54H571.82l8.1,105.78" transform="translate(0 -101.55)"/><line class="cls-10" x1="572.92" y1="0.45" x2="580.79" y2="105.69"/><line class="cls-10" x1="575.44" y1="0.45" x2="583.31" y2="105.69"/><line class="cls-10" x1="577.96" y1="0.45" x2="585.82" y2="105.69"/><line class="cls-10" x1="580.47" y1="0.45" x2="588.34" y2="105.69"/><line class="cls-10" x1="582.99" y1="0.45" x2="590.86" y2="105.69"/><line class="cls-10" x1="585.51" y1="0.45" x2="593.38" y2="105.69"/><line class="cls-10" x1="588.03" y1="0.45" x2="595.89" y2="105.69"/><line class="cls-10" x1="590.54" y1="0.45" x2="598.41" y2="105.69"/><line class="cls-10" x1="593.06" y1="0.45" x2="600.93" y2="105.69"/><line class="cls-10" x1="595.58" y1="0.45" x2="603.45" y2="105.69"/><line class="cls-10" x1="598.1" y1="0.45" x2="605.96" y2="105.69"/><line class="cls-10" x1="600.61" y1="0.45" x2="608.48" y2="105.69"/><line class="cls-10" x1="603.13" y1="0.45" x2="611" y2="105.69"/><line class="cls-10" x1="605.81" y1="2.67" x2="613.52" y2="105.69"/><line class="cls-10" x1="609.07" y1="12.54" x2="616.03" y2="105.69"/><line class="cls-10" x1="612.75" y1="28.06" x2="618.55" y2="105.69"/><line class="cls-10" x1="616.57" y1="45.49" x2="621.07" y2="105.69"/><line class="cls-10" x1="620.17" y1="59.96" x2="623.59" y2="105.69"/><line class="cls-10" x1="623.5" y1="70.8" x2="626.1" y2="105.69"/><line class="cls-10" x1="627.32" y1="88.31" x2="628.62" y2="105.69"/><line class="cls-10" x1="579.62" y1="102" x2="627.97" y2="102"/><line class="cls-10" x1="579.45" y1="99.5" x2="627.81" y2="99.5"/><line class="cls-10" x1="579.29" y1="97" x2="627.65" y2="97"/><line class="cls-10" x1="579.13" y1="94.49" x2="627.48" y2="94.49"/><line class="cls-10" x1="578.67" y1="91.99" x2="627.32" y2="91.99"/><line class="cls-10" x1="578.5" y1="89.49" x2="627.16" y2="89.49"/><line class="cls-10" x1="578.34" y1="86.99" x2="627" y2="86.99"/><line class="cls-10" x1="578.18" y1="84.49" x2="626.84" y2="84.49"/><line class="cls-10" x1="577.67" y1="81.98" x2="625.73" y2="81.98"/><line class="cls-10" x1="577.5" y1="79.48" x2="625.05" y2="79.48"/><line class="cls-10" x1="577.34" y1="76.98" x2="624.08" y2="76.98"/><line class="cls-10" x1="577.18" y1="74.48" x2="623.75" y2="74.48"/><line class="cls-10" x1="577.02" y1="71.98" x2="622.78" y2="71.98"/><line class="cls-10" x1="576.85" y1="69.48" x2="622.13" y2="69.48"/><line class="cls-10" x1="576.83" y1="66.97" x2="621.88" y2="66.97"/><line class="cls-10" x1="576.66" y1="64.47" x2="620.55" y2="64.47"/><line class="cls-10" x1="576.5" y1="61.97" x2="620.32" y2="61.97"/><line class="cls-10" x1="576.34" y1="59.47" x2="620.17" y2="59.47"/><line class="cls-10" x1="576.18" y1="56.97" x2="619.57" y2="56.97"/><line class="cls-10" x1="576.01" y1="54.47" x2="618.82" y2="54.47"/><line class="cls-10" x1="575.85" y1="51.96" x2="617.84" y2="51.96"/><line class="cls-10" x1="575.69" y1="49.46" x2="617.68" y2="49.46"/><line class="cls-10" x1="575.53" y1="46.96" x2="617.52" y2="46.96"/><line class="cls-10" x1="574.8" y1="44.46" x2="617.36" y2="44.46"/><line class="cls-10" x1="574.64" y1="41.96" x2="617.19" y2="41.96"/><line class="cls-10" x1="574.47" y1="39.46" x2="615.25" y2="39.46"/><line class="cls-10" x1="574.31" y1="36.95" x2="613.36" y2="36.95"/><line class="cls-10" x1="574.15" y1="34.45" x2="613.2" y2="34.45"/><line class="cls-10" x1="573.99" y1="31.95" x2="613.04" y2="31.95"/><line class="cls-10" x1="573.83" y1="29.45" x2="612.88" y2="29.45"/><line class="cls-10" x1="573.66" y1="26.95" x2="612.71" y2="26.95"/><line class="cls-10" x1="573.66" y1="24.45" x2="612.55" y2="24.45"/><line class="cls-10" x1="573.47" y1="21.94" x2="611.26" y2="21.94"/><line class="cls-10" x1="572.61" y1="19.44" x2="610.35" y2="19.44"/><line class="cls-10" x1="572.45" y1="16.94" x2="610.35" y2="16.94"/><line class="cls-10" x1="572.28" y1="14.44" x2="609.58" y2="14.44"/><line class="cls-10" x1="572.12" y1="11.94" x2="609" y2="11.94"/><line class="cls-10" x1="571.96" y1="9.43" x2="607.39" y2="9.43"/><line class="cls-10" x1="571.8" y1="6.93" x2="607.23" y2="6.93"/><line class="cls-10" x1="571.64" y1="4.43" x2="607.06" y2="4.43"/><path class="cls-11" d="M31.33,171.93s-1.56,10.69-9.77,12.79-13.26-.87-13.26-.87-.84-.81-1.8,1a28,28,0,0,0,17.43,2.63c10.06-2.39,12-14.58,12-14.58Z" transform="translate(0 -101.55)"/><path class="cls-11" d="M41.63,173.16S50.05,181.9,54,187.49a168.67,168.67,0,0,1,8.74,14.86s.72,1.23,2-.24l-.88-1.4.08-.48S51.65,172,47.34,171.64Z" transform="translate(0 -101.55)"/><path class="cls-12" d="M33.22,157.26s-3.23,5.25-1.31,9a54.39,54.39,0,0,1-2.06,5.19s-.62.9,2.23,2.85A13.6,13.6,0,0,0,38,176.53s.12.1.24-.28.84-1.92.84-1.92a36.49,36.49,0,0,1,3.34,3.22.41.41,0,0,0,.7.14s6.58-4.42,6.87-6a.17.17,0,0,0,0-.15l-7.11-6.75s1.11-4.35.6-6.35Z" transform="translate(0 -101.55)"/><path class="cls-13" d="M31.91,166.27a54.39,54.39,0,0,1-2.06,5.19s-.62.9,2.23,2.85A13.6,13.6,0,0,0,38,176.53s.12.1.24-.28.84-1.92.84-1.92Z" transform="translate(0 -101.55)"/><path class="cls-14" d="M40.88,161a6.71,6.71,0,0,0,1.91,3.77,17.14,17.14,0,0,0,.59-4.22Z" transform="translate(0 -101.55)"/><path class="cls-15" d="M33.57,141.48s1.56,1.71,1.6-.23-2-5.74-2-5.74Z" transform="translate(0 -101.55)"/><path class="cls-11" d="M42.38,140.27s5.36,11.44,9.52,11.95,6.77-4.55,6.77-4.55-2.88-4.47-1.25-6.06c.62-.46,1.2,1.69,1.48,3,0,0,.18.35.72-.41.39-.56,1-1.67,1.45-2.41a6.05,6.05,0,0,0,.44-1c.09-.29.29-.6.68-.33.65.45.33,2.84-.37,3.11,0,0,2-.58.85,1.47,0,0,2.87.12,1.3,1.49s-2.8,1.91-4,1.71c0,0-2.66,7.55-8.43,6.75S42,147.65,42,147.65Z" transform="translate(0 -101.55)"/><path class="cls-16" d="M61.1,144a4.5,4.5,0,0,0-.45.31,2.79,2.79,0,0,0-.38.39,1.07,1.07,0,0,0-.23.48,1,1,0,0,0,0,.25,1.06,1.06,0,0,0,.09.25h0a1.05,1.05,0,0,0,.23.24,1.08,1.08,0,0,0,.3.16,1.21,1.21,0,0,0,.33.07,1.79,1.79,0,0,0,.33,0l.11,0,0,.1a2.64,2.64,0,0,0-.23.61,1.13,1.13,0,0,0,0,.63.38.38,0,0,0,.22.21.84.84,0,0,0,.31.08,2.09,2.09,0,0,0,.66,0,2.1,2.1,0,0,1-.66.08.8.8,0,0,1-.34-.07.45.45,0,0,1-.26-.23,1.09,1.09,0,0,1,0-.69,3.72,3.72,0,0,1,.22-.64l.07.08a2.36,2.36,0,0,1-.37,0,1.45,1.45,0,0,1-.36-.08.92.92,0,0,1-.32-.18,1.34,1.34,0,0,1-.26-.27h0a.94.94,0,0,1-.1-.28.71.71,0,0,1,0-.29,1.24,1.24,0,0,1,.26-.51,2.47,2.47,0,0,1,.42-.37A2.53,2.53,0,0,1,61.1,144Z" transform="translate(0 -101.55)"/><path class="cls-16" d="M59.73,144.83a2.08,2.08,0,0,1,.43,1,1.63,1.63,0,0,1,0,.54,1.37,1.37,0,0,1-.22.49,2.3,2.3,0,0,0,.13-.5,2.18,2.18,0,0,0,0-.51,2.15,2.15,0,0,0-.12-.5A4.94,4.94,0,0,0,59.73,144.83Z" transform="translate(0 -101.55)"/><path class="cls-17" d="M33.2,135.51l.45,7.34s2.73,2.63.22,11.05L31.51,158s1.93,3.27,12.16,3.72c0,0,1.48-3.09,1.06-9.29a112.16,112.16,0,0,0-2.49-14.79S33.88,135.41,33.2,135.51Z" transform="translate(0 -101.55)"/><path class="cls-18" d="M27.61,128.87s7.15,4.33,9.83.42a24.19,24.19,0,0,1,5.73-6s1.41-4.89-4-6.77c-2-.66-4.73.86-6.35,2.1s-6.53.2-6.53.2a4.9,4.9,0,0,0,1.56,3.85l-2.33,2s.56,1.76,4.75,2.47Z" transform="translate(0 -101.55)"/><path class="cls-19" d="M27.61,128.87s4.7,2.84,7.9,1.86c2.27-.7,7.74-8,7.74-8s-.31-3.48-3.1-3.39c-1.46-.09-6,3.37-6,3.37s-3.47,2.74-7.83-2.93a4.4,4.4,0,0,0,1.52,3l-2.33,2s.3,1.64,4.75,2.47Z" transform="translate(0 -101.55)"/><path class="cls-11" d="M42.51,121s5.05,11.4,4,12.05a23.58,23.58,0,0,1-6.17,1.77s-.57,1.65-.12,2.29l.49.33s.11,1.93-.66,1.72-3.26-2.39-3.3-2.86c0,0,1.43-.45,1.34-1.43a8.13,8.13,0,0,1-1.34-4.17,3.65,3.65,0,0,1-1.49.5,2.28,2.28,0,0,1-2.1-2.69c.15-2.09,1.82-1.59,1.82-1.59s1.05.37,1,.67a12.65,12.65,0,0,0-.27-3.68s1.53-.77,1.68-1.55,2.47-1.33,3-1.34S42.51,121,42.51,121Z" transform="translate(0 -101.55)"/><path class="cls-20" d="M43.25,122.69a4,4,0,0,0-1.14-2.64c-1.2-1.31-3.21-.26-4.51,1.88a4.76,4.76,0,0,1-2.72,2.25,7.68,7.68,0,0,1-2.47.38,5.76,5.76,0,0,1-3-.53,5.35,5.35,0,0,0,3.62.8,6.39,6.39,0,0,0,4.44-2.36c.07-.12.13-.24.19-.36s.78-.94,4.79-1.1Z" transform="translate(0 -101.55)"/><ellipse class="cls-21" cx="39.77" cy="126" rx="0.59" ry="0.97" transform="translate(-29.75 -87.91) rotate(-14.23)"/><ellipse class="cls-21" cx="43.13" cy="125.14" rx="0.55" ry="0.97" transform="translate(-29.43 -87.11) rotate(-14.23)"/><path class="cls-22" d="M39.46,122.74a2.4,2.4,0,0,0-1.39.92s.39-1.14,1.28-1.11C39.59,122.61,39.46,122.74,39.46,122.74Z" transform="translate(0 -101.55)"/><path class="cls-22" d="M41.55,122.29a2.08,2.08,0,0,1,1.5.12s-.85-.75-1.51-.33C41.39,122.24,41.55,122.29,41.55,122.29Z" transform="translate(0 -101.55)"/><path class="cls-23" d="M42.42,126.56a.69.69,0,0,0,.32.35.34.34,0,0,0,.2,0c.07,0,.16,0,.24-.07a1.67,1.67,0,0,1,.26-.06A.45.45,0,0,1,44,127a1,1,0,0,1,.1.27,1.28,1.28,0,0,1,0,.55.72.72,0,0,1-.29.49l-.13.07-.13,0-.14,0h-.13a2.34,2.34,0,0,1-.26,0l-.24-.08H43a1,1,0,0,0,.25,0,.68.68,0,0,0,.42-.16.62.62,0,0,0,.18-.38,1.36,1.36,0,0,0,0-.45c0-.16-.1-.3-.19-.34a1,1,0,0,0-.44,0l-.12,0-.14,0a.55.55,0,0,1-.28-.07A.68.68,0,0,1,42.42,126.56Z" transform="translate(0 -101.55)"/><path class="cls-23" d="M34,128.62a1.13,1.13,0,0,1,.25-.47,1.07,1.07,0,0,1,.46-.31.7.7,0,0,1,.14,0H35l.14,0,.13,0a.91.91,0,0,1,.23.15,1.12,1.12,0,0,1,.18.2l-.24-.1-.11,0-.12,0a.78.78,0,0,0-.43,0,1.13,1.13,0,0,0-.4.22C34.24,128.39,34.12,128.5,34,128.62Z" transform="translate(0 -101.55)"/><path class="cls-24" d="M38.43,128.62s5.72,1.43,6,1.34c0,0-1.33,3.7-3.55,3.15S38.29,129,38.43,128.62Z" transform="translate(0 -101.55)"/><path class="cls-25" d="M38.79,130.9s.56,1.87,2.06,2.21a1.55,1.55,0,0,0,1.28-.14S41.82,130.73,38.79,130.9Z" transform="translate(0 -101.55)"/><path class="cls-11" d="M33.6,136.32a25.17,25.17,0,0,1,1.49,4.11s-8,2.8-9.33,8.18.06,7.33,3.26,11.16c0,0,1.69-3.9,3.26-3.12L31.51,158l.24.31-.57.58,2.09.76s1,.3.38,1c-.46.51-.85.49-1,.45l-.28-.06-1.81-.28.56.86a1.45,1.45,0,0,1,.22.49c.11.43.05,1.09-1.31,1a2.93,2.93,0,0,1,.55.73.52.52,0,0,1-.37.74,3.37,3.37,0,0,1-1.39-.1,9.6,9.6,0,0,1-1.07-.65,1.1,1.1,0,0,1-.47-1.23,1,1,0,0,1,1.05-.66s-.39-.88-.27-1.14c0,0-8.18-5.09-5.59-12.74C25,140.57,33.6,136.32,33.6,136.32Z" transform="translate(0 -101.55)"/><path class="cls-16" d="M28.52,161.94a5.92,5.92,0,0,1,.79.51,5.78,5.78,0,0,1,.71.6,6.52,6.52,0,0,1-.78-.51A6.73,6.73,0,0,1,28.52,161.94Z" transform="translate(0 -101.55)"/><path class="cls-26" d="M8.39,183.9s-1.68-2.42-2.3-2.56-2.86,1-3,3.38a9.79,9.79,0,0,0-3,8.52s2.4,1,3.05.62a21.82,21.82,0,0,1,.14-3.41S5.91,187,6.77,187l1.2.22s.31.18.42-.24a9.83,9.83,0,0,0,.21-1.13l-2.1-1S7.18,183.37,8.39,183.9Z" transform="translate(0 -101.55)"/><path class="cls-26" d="M62.61,202.15s-.82.68,0,1.91a32.65,32.65,0,0,1,2.23,3.84c.09.36,3-1.11,3.74-3.12,0,0,4.85-1.89,6.53-6.2a2.7,2.7,0,0,0-2.6-1.41c-.72,0-1.92,2.55-2.28,2.61s-2.67,1-4,.84l-.15-1.44s-.48-1.08-1.62-.12-.17,2.92.26,3.05S62.78,203.38,62.61,202.15Z" transform="translate(0 -101.55)"/><circle class="cls-27" cx="383.75" cy="100.76" r="9.12"/><path class="cls-28" d="M383.75,211.72A9.41,9.41,0,1,1,390.4,209,9.37,9.37,0,0,1,383.75,211.72Zm0-18.23a8.83,8.83,0,1,0,8.83,8.83A8.84,8.84,0,0,0,383.75,193.49Z" transform="translate(0 -101.55)"/><path class="cls-28" d="M380.66,193.9l2.09,1.28,4.19-.29v-1A9.14,9.14,0,0,0,380.66,193.9Z" transform="translate(0 -101.55)"/><path class="cls-28" d="M381.7,198.29a13.73,13.73,0,0,0-3.11,1.57l-.29.49a14.34,14.34,0,0,0,.32,3.32l.38.52,3.28.64.44-.38,1.48-2.87.09-.59a26.93,26.93,0,0,0-2.12-2.35Z" transform="translate(0 -101.55)"/><path class="cls-28" d="M377.55,195.82l-1,2.79-.35.52L375,200.94A6.67,6.67,0,0,1,377.55,195.82Z" transform="translate(0 -101.55)"/><path class="cls-28" d="M388.27,201.11s1.57,2.44,1.63,2.7c.06,0,.55.18.55.18s1.75-.79,1.78-1a12.93,12.93,0,0,0-.67-4.16,6.74,6.74,0,0,0-1.92-1l-.49.29-.88,2.42Z" transform="translate(0 -101.55)"/><path class="cls-28" d="M375.07,204.48s1.46,1.66,1.89,1.69c0,0,.44.52.44.52l1.51,2.3-.73.44S374.75,206.84,375.07,204.48Z" transform="translate(0 -101.55)"/><path class="cls-28" d="M384.2,208.12,383,209.75l-.09.55,1.84.78a5.3,5.3,0,0,0,4-1.48,11.59,11.59,0,0,0-.35-1.77l-.49-.32a14.15,14.15,0,0,1-3.23.32Z" transform="translate(0 -101.55)"/><rect class="cls-28" x="375.76" y="199.13" width="3.02" height="0.59" transform="translate(150.26 -263.47) rotate(30)"/><rect class="cls-28" x="380.57" y="196.54" width="3.82" height="0.59" transform="translate(687.14 -208.38) rotate(107.86)"/><rect class="cls-28" x="385.56" y="196.09" width="4.66" height="0.59" transform="translate(272.49 -324.35) rotate(47.76)"/><rect class="cls-28" x="383.88" y="200.77" width="4.66" height="0.59" transform="translate(-16.79 -65.34) rotate(-5.25)"/><rect class="cls-28" x="381.09" y="206" width="4.66" height="0.59" transform="translate(396.47 539.94) rotate(-120)"/><rect class="cls-28" x="375.97" y="204.4" width="4.66" height="0.59" transform="translate(3.88 314.85) rotate(-57.9)"/><rect class="cls-28" x="386.84" y="205.48" width="4.66" height="0.59" transform="translate(24.2 350.38) rotate(-61.87)"/><rect class="cls-28" x="391.19" y="198.51" width="1.08" height="0.59" transform="translate(790.16 -87.76) rotate(128.19)"/><rect class="cls-28" x="391.8" y="202.81" width="1.08" height="0.59" transform="translate(128.39 -252.73) rotate(25.94)"/><rect class="cls-28" x="378.26" y="209.3" width="4.81" height="0.59" transform="translate(43.98 -166.69) rotate(10.38)"/><rect class="cls-29" x="65" y="106.92" width="1.59" height="23.78"/><rect class="cls-29" x="586.57" y="106.92" width="1.59" height="23.78"/></g></g></g></svg>