<svg xmlns="http://www.w3.org/2000/svg" xmlns:xlink="http://www.w3.org/1999/xlink" viewBox="0 0 493.21 126.65"><defs><style>.cls-1,.cls-10,.cls-5,.cls-7,.cls-9{fill:none;}.cls-2{clip-path:url(#clip-path);}.cls-3{fill:#baff78;}.cls-4{fill:#83ff00;}.cls-5{stroke:#000;stroke-width:0.5px;}.cls-10,.cls-5,.cls-7,.cls-9{stroke-miterlimit:10;}.cls-6{font-size:9.43px;font-family:LarkeNeue-Regular, Larke Neue;}.cls-7{stroke:#f30;}.cls-8{fill:#dbdbdb;}.cls-10,.cls-9{stroke:#dbdbdb;}.cls-9{stroke-width:0.75px;}.cls-10{stroke-width:0.25px;}.cls-11{fill:#f2d5c7;}.cls-12{fill:#6b99bd;}.cls-13,.cls-14{fill:#427b99;}.cls-13{opacity:0.5;}.cls-15{fill:#428e80;}.cls-16{fill:#b55930;}.cls-17{fill:#e0e0e0;}.cls-18{fill:#c9934b;}.cls-19{fill:#896029;}.cls-20{fill:#513513;}.cls-21{fill:#3f3f3f;}.cls-22{fill:#cfaa13;}.cls-23{fill:#c36a3e;}.cls-24{fill:#8e1d21;}.cls-25{fill:#d75f5e;}.cls-26{fill:#3a3a3a;}.cls-27{fill:#fff;}.cls-28{fill:#444;}.cls-29{fill:#f30;}</style><clipPath id="clip-path" transform="translate(0 -136.24)"><rect class="cls-1" x="0.62" width="399.5" height="399.5"/></clipPath></defs><title>zoom6</title><g id="Capa_2" data-name="Capa 2"><g id="Layer_1" data-name="Layer 1"><g class="cls-2"><rect class="cls-3" x="43.18" y="88.85" width="426.61" height="36.8" rx="1.02"/><path class="cls-4" d="M468.77,226.09l0,0,0,34.78-424.59,0,0-34.77H468.77m0-2H44.21a2,2,0,0,0-2,2v34.75a2,2,0,0,0,2,2H468.77a2,2,0,0,0,2-2V226.11a2,2,0,0,0-2-2Z" transform="translate(0 -136.24)"/><line class="cls-5" x1="51.22" y1="87.85" x2="51.22" y2="101.22"/><line class="cls-5" x1="91.8" y1="87.85" x2="91.8" y2="101.22"/><line class="cls-5" x1="132.37" y1="87.85" x2="132.37" y2="101.22"/><line class="cls-5" x1="172.94" y1="87.85" x2="172.94" y2="101.22"/><line class="cls-5" x1="213.51" y1="87.85" x2="213.51" y2="101.22"/><line class="cls-5" x1="254.08" y1="87.85" x2="254.08" y2="101.22"/><line class="cls-5" x1="294.66" y1="87.85" x2="294.66" y2="101.22"/><line class="cls-5" x1="335.23" y1="87.85" x2="335.23" y2="101.22"/><line class="cls-5" x1="375.8" y1="87.85" x2="375.8" y2="101.22"/><line class="cls-5" x1="416.37" y1="87.85" x2="416.37" y2="101.22"/><line class="cls-5" x1="456.95" y1="87.85" x2="456.95" y2="101.22"/><text class="cls-6" transform="translate(86.08 111.04)">0,1</text><text class="cls-6" transform="translate(125.81 111.04)">0,2</text><text class="cls-6" transform="translate(166.2 111.04)">0,3</text><text class="cls-6" transform="translate(206.6 111.04)">0,4</text><text class="cls-6" transform="translate(247.24 111.04)">0,5</text><text class="cls-6" transform="translate(287.72 111.04)">0,6</text><text class="cls-6" transform="translate(328.45 111.04)">0,7</text><text class="cls-6" transform="translate(368.9 111.04)">0,8</text><text class="cls-6" transform="translate(409.43 111.04)">0,9</text><text class="cls-6" transform="translate(455.29 111.04)">1</text><text class="cls-6" transform="translate(48.25 111.04)">0</text><line class="cls-5" x1="55.28" y1="87.85" x2="55.28" y2="97.58"/><line class="cls-5" x1="59.34" y1="87.85" x2="59.34" y2="97.58"/><line class="cls-5" x1="63.4" y1="87.85" x2="63.4" y2="97.58"/><line class="cls-5" x1="67.45" y1="87.85" x2="67.45" y2="97.58"/><line class="cls-5" x1="71.51" y1="87.85" x2="71.51" y2="99.43"/><line class="cls-5" x1="75.57" y1="87.85" x2="75.57" y2="97.58"/><line class="cls-5" x1="79.62" y1="87.85" x2="79.62" y2="97.58"/><line class="cls-5" x1="83.68" y1="87.85" x2="83.68" y2="97.58"/><line class="cls-5" x1="87.74" y1="87.85" x2="87.74" y2="97.58"/><line class="cls-5" x1="95.85" y1="87.85" x2="95.85" y2="97.58"/><line class="cls-5" x1="99.91" y1="87.85" x2="99.91" y2="97.58"/><line class="cls-5" x1="103.97" y1="87.85" x2="103.97" y2="97.58"/><line class="cls-5" x1="108.02" y1="87.85" x2="108.02" y2="97.58"/><line class="cls-5" x1="112.08" y1="87.85" x2="112.08" y2="99.43"/><line class="cls-5" x1="116.14" y1="87.85" x2="116.14" y2="97.58"/><line class="cls-5" x1="120.2" y1="87.85" x2="120.2" y2="97.58"/><line class="cls-5" x1="124.25" y1="87.85" x2="124.25" y2="97.58"/><line class="cls-5" x1="128.31" y1="87.85" x2="128.31" y2="97.58"/><line class="cls-5" x1="136.43" y1="87.85" x2="136.43" y2="97.58"/><line class="cls-5" x1="140.48" y1="87.85" x2="140.48" y2="97.58"/><line class="cls-5" x1="144.54" y1="87.85" x2="144.54" y2="97.58"/><line class="cls-5" x1="148.6" y1="87.85" x2="148.6" y2="97.58"/><line class="cls-5" x1="152.65" y1="87.85" x2="152.65" y2="99.43"/><line class="cls-5" x1="156.71" y1="87.85" x2="156.71" y2="97.58"/><line class="cls-5" x1="160.77" y1="87.85" x2="160.77" y2="97.58"/><line class="cls-5" x1="164.83" y1="87.85" x2="164.83" y2="97.58"/><line class="cls-5" x1="177" y1="87.85" x2="177" y2="97.58"/><line class="cls-5" x1="181.05" y1="87.85" x2="181.05" y2="97.58"/><line class="cls-5" x1="185.11" y1="87.85" x2="185.11" y2="97.58"/><line class="cls-5" x1="189.17" y1="87.85" x2="189.17" y2="97.58"/><line class="cls-5" x1="193.23" y1="87.85" x2="193.23" y2="99.43"/><line class="cls-5" x1="197.28" y1="87.85" x2="197.28" y2="97.58"/><line class="cls-5" x1="201.34" y1="87.85" x2="201.34" y2="97.58"/><line class="cls-5" x1="205.4" y1="87.85" x2="205.4" y2="97.58"/><line class="cls-5" x1="209.46" y1="87.85" x2="209.46" y2="97.58"/><line class="cls-5" x1="217.57" y1="87.85" x2="217.57" y2="97.58"/><line class="cls-5" x1="221.63" y1="87.85" x2="221.63" y2="97.58"/><line class="cls-5" x1="225.68" y1="87.85" x2="225.68" y2="97.58"/><line class="cls-5" x1="229.74" y1="87.85" x2="229.74" y2="97.58"/><line class="cls-5" x1="233.8" y1="87.85" x2="233.8" y2="99.43"/><line class="cls-5" x1="237.86" y1="87.85" x2="237.86" y2="97.58"/><line class="cls-5" x1="241.91" y1="87.85" x2="241.91" y2="97.58"/><line class="cls-5" x1="245.97" y1="87.85" x2="245.97" y2="97.58"/><line class="cls-5" x1="250.03" y1="87.85" x2="250.03" y2="97.58"/><line class="cls-5" x1="258.14" y1="87.85" x2="258.14" y2="97.58"/><line class="cls-5" x1="262.2" y1="87.85" x2="262.2" y2="97.58"/><line class="cls-5" x1="266.26" y1="87.85" x2="266.26" y2="97.58"/><line class="cls-5" x1="270.31" y1="87.85" x2="270.31" y2="97.58"/><line class="cls-5" x1="278.43" y1="87.85" x2="278.43" y2="97.58"/><line class="cls-5" x1="282.49" y1="87.85" x2="282.49" y2="97.58"/><line class="cls-5" x1="286.54" y1="87.85" x2="286.54" y2="97.58"/><line class="cls-5" x1="290.6" y1="87.85" x2="290.6" y2="97.58"/><line class="cls-5" x1="298.71" y1="87.85" x2="298.71" y2="97.58"/><line class="cls-5" x1="302.77" y1="87.85" x2="302.77" y2="97.58"/><line class="cls-5" x1="306.83" y1="87.85" x2="306.83" y2="97.58"/><line class="cls-5" x1="310.89" y1="87.85" x2="310.89" y2="97.58"/><line class="cls-5" x1="314.94" y1="87.85" x2="314.94" y2="99.43"/><line class="cls-5" x1="319" y1="87.85" x2="319" y2="97.58"/><line class="cls-5" x1="323.06" y1="87.85" x2="323.06" y2="97.58"/><line class="cls-5" x1="327.11" y1="87.85" x2="327.11" y2="97.58"/><line class="cls-5" x1="331.17" y1="87.85" x2="331.17" y2="97.58"/><line class="cls-5" x1="339.31" y1="87.85" x2="339.31" y2="97.58"/><line class="cls-5" x1="343.36" y1="87.85" x2="343.36" y2="97.58"/><line class="cls-5" x1="347.42" y1="87.85" x2="347.42" y2="97.58"/><line class="cls-5" x1="351.48" y1="87.85" x2="351.48" y2="97.58"/><line class="cls-5" x1="355.53" y1="87.85" x2="355.53" y2="99.43"/><line class="cls-5" x1="359.59" y1="87.85" x2="359.59" y2="97.58"/><line class="cls-5" x1="363.65" y1="87.85" x2="363.65" y2="97.58"/><line class="cls-5" x1="371.76" y1="87.85" x2="371.76" y2="97.58"/><line class="cls-5" x1="379.86" y1="87.85" x2="379.86" y2="97.58"/><line class="cls-5" x1="383.92" y1="87.85" x2="383.92" y2="97.58"/><line class="cls-7" x1="387.97" y1="86.62" x2="387.97" y2="97.58"/><line class="cls-5" x1="392.03" y1="87.85" x2="392.03" y2="97.58"/><line class="cls-5" x1="396.09" y1="87.85" x2="396.09" y2="99.43"/><line class="cls-5" x1="400.14" y1="87.85" x2="400.14" y2="97.58"/><line class="cls-5" x1="404.2" y1="87.85" x2="404.2" y2="97.58"/><line class="cls-5" x1="408.26" y1="87.85" x2="408.26" y2="97.58"/><line class="cls-5" x1="412.32" y1="87.85" x2="412.32" y2="97.58"/><line class="cls-5" x1="420.46" y1="87.85" x2="420.46" y2="97.58"/><line class="cls-5" x1="424.51" y1="87.85" x2="424.51" y2="97.58"/><line class="cls-5" x1="428.57" y1="87.85" x2="428.57" y2="97.58"/><line class="cls-5" x1="432.63" y1="87.85" x2="432.63" y2="97.58"/><line class="cls-5" x1="436.69" y1="87.85" x2="436.69" y2="99.43"/><line class="cls-5" x1="440.74" y1="87.85" x2="440.74" y2="97.58"/><line class="cls-5" x1="444.8" y1="87.85" x2="444.8" y2="97.58"/><line class="cls-5" x1="448.86" y1="87.85" x2="448.86" y2="97.58"/><line class="cls-5" x1="452.91" y1="87.85" x2="452.91" y2="97.58"/><line class="cls-5" x1="367.71" y1="87.85" x2="367.71" y2="97.58"/><line class="cls-5" x1="168.88" y1="87.85" x2="168.88" y2="97.58"/><line class="cls-5" x1="274.37" y1="87.85" x2="274.37" y2="99.43"/><rect class="cls-8" x="449.34" y="81.16" width="43.87" height="2.37" rx="0.95"/><path class="cls-9" d="M490.82,219.38l-18.24-78.45a5.77,5.77,0,0,0-5.48-4.32H444.75l6.3,82.28" transform="translate(0 -136.24)"/><line class="cls-10" x1="445.61" y1="0.43" x2="451.72" y2="82.29"/><line class="cls-10" x1="447.56" y1="0.43" x2="453.68" y2="82.29"/><line class="cls-10" x1="449.52" y1="0.43" x2="455.64" y2="82.29"/><line class="cls-10" x1="451.48" y1="0.43" x2="457.6" y2="82.29"/><line class="cls-10" x1="453.44" y1="0.43" x2="459.56" y2="82.29"/><line class="cls-10" x1="455.4" y1="0.43" x2="461.51" y2="82.29"/><line class="cls-10" x1="457.35" y1="0.43" x2="463.47" y2="82.29"/><line class="cls-10" x1="459.31" y1="0.43" x2="465.43" y2="82.29"/><line class="cls-10" x1="461.27" y1="0.43" x2="467.39" y2="82.29"/><line class="cls-10" x1="463.23" y1="0.43" x2="469.35" y2="82.29"/><line class="cls-10" x1="465.19" y1="0.43" x2="471.3" y2="82.29"/><line class="cls-10" x1="467.14" y1="0.43" x2="473.26" y2="82.29"/><line class="cls-10" x1="469.1" y1="0.43" x2="475.22" y2="82.29"/><line class="cls-10" x1="471.19" y1="2.16" x2="477.18" y2="82.29"/><line class="cls-10" x1="473.72" y1="9.84" x2="479.14" y2="82.29"/><line class="cls-10" x1="476.58" y1="21.91" x2="481.09" y2="82.29"/><line class="cls-10" x1="479.55" y1="35.46" x2="483.05" y2="82.29"/><line class="cls-10" x1="482.35" y1="46.72" x2="485.01" y2="82.29"/><line class="cls-10" x1="484.94" y1="55.15" x2="486.97" y2="82.29"/><line class="cls-10" x1="487.92" y1="68.77" x2="488.93" y2="82.29"/><line class="cls-10" x1="450.81" y1="79.42" x2="488.42" y2="79.42"/><line class="cls-10" x1="450.69" y1="77.47" x2="488.3" y2="77.47"/><line class="cls-10" x1="450.56" y1="75.52" x2="488.17" y2="75.52"/><line class="cls-10" x1="450.43" y1="73.58" x2="488.04" y2="73.58"/><line class="cls-10" x1="450.07" y1="71.63" x2="487.92" y2="71.63"/><line class="cls-10" x1="449.95" y1="69.69" x2="487.79" y2="69.69"/><line class="cls-10" x1="449.82" y1="67.74" x2="487.66" y2="67.74"/><line class="cls-10" x1="449.7" y1="65.79" x2="487.54" y2="65.79"/><line class="cls-10" x1="449.3" y1="63.85" x2="486.68" y2="63.85"/><line class="cls-10" x1="449.17" y1="61.9" x2="486.15" y2="61.9"/><line class="cls-10" x1="449.04" y1="59.96" x2="485.39" y2="59.96"/><line class="cls-10" x1="448.92" y1="58.01" x2="485.14" y2="58.01"/><line class="cls-10" x1="448.79" y1="56.07" x2="484.38" y2="56.07"/><line class="cls-10" x1="448.66" y1="54.12" x2="483.88" y2="54.12"/><line class="cls-10" x1="448.64" y1="52.17" x2="483.68" y2="52.17"/><line class="cls-10" x1="448.52" y1="50.23" x2="482.65" y2="50.23"/><line class="cls-10" x1="448.39" y1="48.28" x2="482.47" y2="48.28"/><line class="cls-10" x1="448.26" y1="46.34" x2="482.35" y2="46.34"/><line class="cls-10" x1="448.14" y1="44.39" x2="481.89" y2="44.39"/><line class="cls-10" x1="448.01" y1="42.45" x2="481.3" y2="42.45"/><line class="cls-10" x1="447.89" y1="40.5" x2="480.54" y2="40.5"/><line class="cls-10" x1="447.76" y1="38.55" x2="480.42" y2="38.55"/><line class="cls-10" x1="447.63" y1="36.61" x2="480.29" y2="36.61"/><line class="cls-10" x1="447.07" y1="34.66" x2="480.17" y2="34.66"/><line class="cls-10" x1="446.94" y1="32.72" x2="480.04" y2="32.72"/><line class="cls-10" x1="446.81" y1="30.77" x2="478.53" y2="30.77"/><line class="cls-10" x1="446.69" y1="28.83" x2="477.06" y2="28.83"/><line class="cls-10" x1="446.56" y1="26.88" x2="476.93" y2="26.88"/><line class="cls-10" x1="446.43" y1="24.93" x2="476.81" y2="24.93"/><line class="cls-10" x1="446.31" y1="22.99" x2="476.68" y2="22.99"/><line class="cls-10" x1="446.18" y1="21.04" x2="476.56" y2="21.04"/><line class="cls-10" x1="446.18" y1="19.1" x2="476.43" y2="19.1"/><line class="cls-10" x1="446.03" y1="17.15" x2="475.42" y2="17.15"/><line class="cls-10" x1="445.36" y1="15.2" x2="474.72" y2="15.2"/><line class="cls-10" x1="445.24" y1="13.26" x2="474.72" y2="13.26"/><line class="cls-10" x1="445.11" y1="11.31" x2="474.12" y2="11.31"/><line class="cls-10" x1="444.98" y1="9.37" x2="473.66" y2="9.37"/><line class="cls-10" x1="444.86" y1="7.42" x2="472.41" y2="7.42"/><line class="cls-10" x1="444.73" y1="5.48" x2="472.29" y2="5.48"/><line class="cls-10" x1="444.61" y1="3.53" x2="472.16" y2="3.53"/><path class="cls-11" d="M24.36,191.06s-1.21,8.31-7.59,9.94-10.32-.67-10.32-.67-.65-.63-1.4.79a21.85,21.85,0,0,0,13.56,2c7.83-1.86,9.3-11.34,9.3-11.34Z" transform="translate(0 -136.24)"/><path class="cls-11" d="M32.38,192A125.87,125.87,0,0,1,42,203.16a130.45,130.45,0,0,1,6.81,11.56s.56,1,1.55-.19l-.68-1.09.06-.37s-9.54-22-12.89-22.24Z" transform="translate(0 -136.24)"/><path class="cls-12" d="M25.84,179.65s-2.52,4.09-1,7a43.17,43.17,0,0,1-1.6,4s-.49.7,1.73,2.22a10.71,10.71,0,0,0,4.57,1.73s.09.07.19-.22.65-1.49.65-1.49a27.3,27.3,0,0,1,2.59,2.5.32.32,0,0,0,.55.11s5.12-3.44,5.35-4.65a.14.14,0,0,0,0-.11l-5.53-5.26s.87-3.38.46-4.94Z" transform="translate(0 -136.24)"/><path class="cls-13" d="M24.82,186.65a43.17,43.17,0,0,1-1.6,4s-.49.7,1.73,2.22a10.71,10.71,0,0,0,4.57,1.73s.09.07.19-.22.65-1.49.65-1.49Z" transform="translate(0 -136.24)"/><path class="cls-14" d="M31.8,182.59a5.18,5.18,0,0,0,1.48,2.93,13.13,13.13,0,0,0,.46-3.28Z" transform="translate(0 -136.24)"/><path class="cls-15" d="M26.11,167.38s1.21,1.32,1.24-.18-1.53-4.47-1.53-4.47Z" transform="translate(0 -136.24)"/><path class="cls-11" d="M33,166.44s4.17,8.89,7.41,9.29,5.26-3.54,5.26-3.54-2.23-3.48-1-4.71c.48-.36.93,1.31,1.15,2.33,0,0,.14.27.56-.33.3-.43.8-1.29,1.13-1.87a4.59,4.59,0,0,0,.34-.79c.07-.22.23-.46.53-.25.51.35.26,2.2-.28,2.41,0,0,1.52-.45.66,1.15,0,0,2.22.1,1,1.16s-2.17,1.48-3.15,1.33c0,0-2.06,5.87-6.55,5.25s-7.41-5.7-7.41-5.7Z" transform="translate(0 -136.24)"/><path class="cls-16" d="M47.53,169.32a3.27,3.27,0,0,0-.36.25,2.13,2.13,0,0,0-.3.3.89.89,0,0,0-.17.37.67.67,0,0,0,0,.2.62.62,0,0,0,.07.19h0a.77.77,0,0,0,.18.18.76.76,0,0,0,.23.13,1.11,1.11,0,0,0,.25.05.82.82,0,0,0,.27,0h.08l0,.07a3.06,3.06,0,0,0-.17.48.82.82,0,0,0,0,.49.3.3,0,0,0,.16.17,1,1,0,0,0,.25.06,2.18,2.18,0,0,0,.51,0,2.24,2.24,0,0,1-.52.06.88.88,0,0,1-.26-.06.35.35,0,0,1-.2-.18.8.8,0,0,1,0-.53,2.67,2.67,0,0,1,.17-.5l.05.06a.88.88,0,0,1-.28,0,.67.67,0,0,1-.28-.06.77.77,0,0,1-.25-.14,1,1,0,0,1-.2-.2h0a.54.54,0,0,1-.08-.21.59.59,0,0,1,0-.23.91.91,0,0,1,.2-.39,2.24,2.24,0,0,1,.32-.3C47.27,169.46,47.4,169.39,47.53,169.32Z" transform="translate(0 -136.24)"/><path class="cls-16" d="M46.45,170a1.55,1.55,0,0,1,.34.76,1.19,1.19,0,0,1,0,.42.87.87,0,0,1-.17.38,1.4,1.4,0,0,0,.1-.39,1.79,1.79,0,0,0,0-.4,2.74,2.74,0,0,0-.09-.39C46.56,170.24,46.51,170.11,46.45,170Z" transform="translate(0 -136.24)"/><path class="cls-17" d="M25.82,162.73l.35,5.71s2.12,2.05.17,8.59l-1.84,3.2S26,182.76,34,183.11c0,0,1.16-2.39.83-7.22a86.18,86.18,0,0,0-1.94-11.5S26.35,162.65,25.82,162.73Z" transform="translate(0 -136.24)"/><path class="cls-18" d="M21.48,157.57s5.56,3.37,7.64.33a18.85,18.85,0,0,1,4.45-4.65A4.29,4.29,0,0,0,30.45,148c-1.6-.51-3.68.67-4.94,1.63s-5.07.15-5.07.15a3.79,3.79,0,0,0,1.21,3l-1.82,1.52s.44,1.37,3.7,1.93Z" transform="translate(0 -136.24)"/><path class="cls-19" d="M21.48,157.57s3.65,2.2,6.14,1.44c1.77-.54,6-6.25,6-6.25s-.25-2.71-2.41-2.64c-1.14-.07-4.68,2.63-4.68,2.63s-2.7,2.13-6.08-2.28a3.38,3.38,0,0,0,1.18,2.3l-1.82,1.52s.24,1.28,3.7,1.93Z" transform="translate(0 -136.24)"/><path class="cls-11" d="M33.06,151.43s3.93,8.86,3.14,9.37a18.24,18.24,0,0,1-4.8,1.37s-.44,1.28-.09,1.79l.38.25s.08,1.5-.52,1.34a7.5,7.5,0,0,1-2.57-2.22s1.12-.35,1-1.12a6.41,6.41,0,0,1-1-3.24,2.8,2.8,0,0,1-1.15.39,1.77,1.77,0,0,1-1.63-2.09c.11-1.63,1.41-1.25,1.41-1.25s.82.3.79.53a9.89,9.89,0,0,0-.21-2.87s1.19-.59,1.31-1.2,1.92-1,2.36-1Z" transform="translate(0 -136.24)"/><path class="cls-20" d="M33.64,152.76a3.12,3.12,0,0,0-.89-2c-.93-1-2.49-.21-3.51,1.46a3.67,3.67,0,0,1-2.11,1.75,6,6,0,0,1-1.92.3,4.48,4.48,0,0,1-2.36-.42,4.11,4.11,0,0,0,2.82.62,4.94,4.94,0,0,0,3.45-1.83,2.49,2.49,0,0,0,.15-.28c.08-.17.6-.73,3.72-.86Z" transform="translate(0 -136.24)"/><ellipse class="cls-21" cx="30.93" cy="155.33" rx="0.46" ry="0.75" transform="translate(-37.23 -123.87) rotate(-14.23)"/><ellipse class="cls-21" cx="33.55" cy="154.67" rx="0.42" ry="0.75" transform="translate(-36.99 -123.25) rotate(-14.23)"/><path class="cls-22" d="M30.69,152.8a1.86,1.86,0,0,0-1.08.72s.3-.89,1-.87C30.79,152.7,30.69,152.8,30.69,152.8Z" transform="translate(0 -136.24)"/><path class="cls-22" d="M32.32,152.45a1.58,1.58,0,0,1,1.16.09s-.65-.58-1.17-.25C32.19,152.41,32.32,152.45,32.32,152.45Z" transform="translate(0 -136.24)"/><path class="cls-23" d="M33,155.77a.51.51,0,0,0,.25.27.29.29,0,0,0,.16,0l.18-.05.2-.05a.49.49,0,0,1,.24,0,.35.35,0,0,1,.19.17.58.58,0,0,1,.07.21,1,1,0,0,1,0,.43.56.56,0,0,1-.22.38l-.1,0-.11,0h-.21a1.38,1.38,0,0,1-.2,0l-.19-.07.2,0h.19A.52.52,0,0,0,34,157a.44.44,0,0,0,.14-.29.88.88,0,0,0,0-.36.35.35,0,0,0-.14-.26.81.81,0,0,0-.34,0l-.1,0h-.1a.33.33,0,0,1-.22,0A.48.48,0,0,1,33,155.77Z" transform="translate(0 -136.24)"/><path class="cls-23" d="M26.44,157.38a.87.87,0,0,1,.19-.37.7.7,0,0,1,.36-.24l.11,0h.11l.11,0,.11,0a1.13,1.13,0,0,1,.18.12.93.93,0,0,1,.13.15l-.18-.08-.09,0-.09,0a.56.56,0,0,0-.34,0,1,1,0,0,0-.31.16A3.58,3.58,0,0,0,26.44,157.38Z" transform="translate(0 -136.24)"/><path class="cls-24" d="M29.89,157.38s4.45,1.11,4.65,1c0,0-1,2.88-2.77,2.45S29.78,157.67,29.89,157.38Z" transform="translate(0 -136.24)"/><path class="cls-25" d="M30.17,159.14s.44,1.46,1.6,1.73a1.26,1.26,0,0,0,1-.11S32.53,159,30.17,159.14Z" transform="translate(0 -136.24)"/><path class="cls-11" d="M26.14,163.36a19.2,19.2,0,0,1,1.15,3.2s-6.21,2.18-7.26,6.36,0,5.7,2.54,8.68c0,0,1.31-3,2.54-2.42l-.61,1,.2.23-.45.45,1.63.6s.77.23.29.75-.66.38-.78.35l-.22,0-1.41-.22.44.67a1.63,1.63,0,0,1,.17.38c.08.33,0,.85-1,.75a2.75,2.75,0,0,1,.43.57.41.41,0,0,1-.29.58,2.58,2.58,0,0,1-1.08-.08,9.49,9.49,0,0,1-.84-.51.86.86,0,0,1-.36-1,.77.77,0,0,1,.81-.51s-.3-.68-.21-.88c0,0-6.36-4-4.34-9.91C19.43,166.67,26.14,163.36,26.14,163.36Z" transform="translate(0 -136.24)"/><path class="cls-16" d="M22.18,183.29a5,5,0,0,1,.62.39,6.19,6.19,0,0,1,.55.47,5.7,5.7,0,0,1-.61-.39C22.55,183.61,22.36,183.46,22.18,183.29Z" transform="translate(0 -136.24)"/><path class="cls-26" d="M6.53,200.37s-1.31-1.88-1.79-2A2.84,2.84,0,0,0,2.38,201a7.64,7.64,0,0,0-2.32,6.63s1.87.8,2.38.49a17.07,17.07,0,0,1,.11-2.66s2.05-2.72,2.71-2.67l.94.17s.24.14.33-.19a7.87,7.87,0,0,0,.16-.88l-1.64-.77S5.58,200,6.53,200.37Z" transform="translate(0 -136.24)"/><path class="cls-26" d="M48.7,214.56s-.64.54,0,1.49a25.2,25.2,0,0,1,1.73,3c.07.28,2.33-.86,2.91-2.42,0,0,3.78-1.47,5.08-4.82a2.12,2.12,0,0,0-2-1.1c-.56,0-1.49,2-1.77,2a10.88,10.88,0,0,1-3.12.65l-.11-1.12s-.38-.83-1.26-.09-.13,2.27.2,2.37S48.83,215.52,48.7,214.56Z" transform="translate(0 -136.24)"/><circle class="cls-27" cx="388.49" cy="78.46" r="7.09"/><path class="cls-28" d="M388.49,222a7.31,7.31,0,1,1,5.17-2.14A7.28,7.28,0,0,1,388.49,222Zm0-14.18a6.87,6.87,0,1,0,6.86,6.86A6.87,6.87,0,0,0,388.49,207.83Z" transform="translate(0 -136.24)"/><path class="cls-28" d="M386.08,208.15l1.63,1,3.25-.23v-.76A7.07,7.07,0,0,0,386.08,208.15Z" transform="translate(0 -136.24)"/><path class="cls-28" d="M386.89,211.56a10.83,10.83,0,0,0-2.42,1.22l-.22.39a11.13,11.13,0,0,0,.24,2.57l.3.41,2.55.5.34-.29,1.16-2.24.06-.46a19.75,19.75,0,0,0-1.65-1.83Z" transform="translate(0 -136.24)"/><path class="cls-28" d="M383.66,209.64l-.77,2.17-.27.41-.93,1.4A5.18,5.18,0,0,1,383.66,209.64Z" transform="translate(0 -136.24)"/><path class="cls-28" d="M392,213.75s1.22,1.9,1.27,2.11c0,0,.43.13.43.13s1.35-.61,1.38-.79a10.06,10.06,0,0,0-.52-3.23,5.29,5.29,0,0,0-1.5-.75l-.38.23-.68,1.87Z" transform="translate(0 -136.24)"/><path class="cls-28" d="M381.73,216.38s1.14,1.29,1.47,1.31c0,0,.34.41.34.41l1.18,1.78-.57.34S381.49,218.21,381.73,216.38Z" transform="translate(0 -136.24)"/><path class="cls-28" d="M388.84,219.2l-.93,1.27-.07.43,1.43.61a4.13,4.13,0,0,0,3.12-1.15,8,8,0,0,0-.28-1.38l-.38-.25a10.69,10.69,0,0,1-2.51.25Z" transform="translate(0 -136.24)"/><rect class="cls-28" x="382.26" y="212.21" width="2.35" height="0.46" transform="matrix(0.87, 0.5, -0.5, 0.87, 157.59, -299.5)"/><rect class="cls-28" x="386.01" y="210.2" width="2.97" height="0.46" transform="matrix(-0.31, 0.95, -0.95, -0.31, 706.63, -230.08)"/><rect class="cls-28" x="389.89" y="209.85" width="3.62" height="0.46" transform="translate(283.88 -357.37) rotate(47.76)"/><rect class="cls-28" x="388.58" y="213.49" width="3.62" height="0.46" transform="translate(-17.93 -99.59) rotate(-5.25)"/><rect class="cls-28" x="386.41" y="217.56" width="3.62" height="0.46" transform="translate(393.72 526.65) rotate(-120)"/><rect class="cls-28" x="382.43" y="216.31" width="3.62" height="0.46" transform="translate(-3.37 290.76) rotate(-57.9)"/><rect class="cls-28" x="390.89" y="217.15" width="3.62" height="0.46" transform="translate(15.83 324.94) rotate(-61.87)"/><rect class="cls-28" x="394.27" y="211.73" width="0.84" height="0.46" transform="translate(805.29 -103.48) rotate(128.19)"/><rect class="cls-28" x="394.74" y="215.08" width="0.84" height="0.46" transform="translate(134.02 -287.42) rotate(25.94)"/><rect class="cls-28" x="384.21" y="220.12" width="3.74" height="0.46" transform="translate(46.01 -202.18) rotate(10.38)"/><rect class="cls-29" x="50.55" y="83.24" width="1.23" height="18.5"/><rect class="cls-29" x="456.22" y="83.24" width="1.23" height="18.5"/></g></g></g></svg>