<svg xmlns="http://www.w3.org/2000/svg" viewBox="0 0 1567.86 400"><defs><style>.cls-1{fill:#f2d5c7;}.cls-2{fill:#6b99bd;}.cls-3,.cls-4{fill:#427b99;}.cls-3{opacity:0.5;}.cls-5{fill:#428e80;}.cls-6{fill:#b55930;}.cls-7{fill:#e0e0e0;}.cls-8{fill:#c9934b;}.cls-9{fill:#896029;}.cls-10{fill:#513513;}.cls-11{fill:#3f3f3f;}.cls-12{fill:#cfaa13;}.cls-13{fill:#c36a3e;}.cls-14{fill:#8e1d21;}.cls-15{fill:#d75f5e;}.cls-16{fill:#3a3a3a;}.cls-17{fill:#baff78;}.cls-18{fill:#83ff00;}.cls-19{fill:#fff;}.cls-20{fill:#444;}.cls-21{fill:#dbdbdb;}</style></defs><title>FUTBOL Y REGLA</title><g id="Capa_2" data-name="Capa 2"><g id="Capa_2-2" data-name="Capa 2"><path class="cls-1" d="M65.42,186.53S62.17,208.85,45,213.23s-27.71-1.81-27.71-1.81-1.75-1.69-3.75,2.13c0,0,14.76,8.81,36.4,5.5,21-5,25-30.46,25-30.46Z"/><path class="cls-1" d="M86.93,189.09s17.6,18.26,25.77,29.94,18.26,31,18.26,31,1.51,2.58,4.17-.5l-1.83-2.92.17-1s-25.6-59-34.61-59.71Z"/><path class="cls-2" d="M69.38,155.9s-6.75,11-2.75,18.81c0,0-3.21,9.17-4.3,10.84,0,0-1.29,1.87,4.67,6a28.39,28.39,0,0,0,12.26,4.63s.25.21.5-.59,1.75-4,1.75-4,6.34,5.55,7,6.71a.85.85,0,0,0,1.46.3s13.75-9.23,14.36-12.49a.34.34,0,0,0-.1-.3L89.35,171.66s2.34-9.09,1.25-13.26Z"/><path class="cls-3" d="M66.63,174.71s-3.21,9.17-4.3,10.84c0,0-1.29,1.87,4.67,6a28.39,28.39,0,0,0,12.26,4.63s.25.21.5-.59,1.75-4,1.75-4Z"/><path class="cls-4" d="M85.37,163.79s.18,3.64,4,7.87c0,0,1.56-6,1.24-8.81Z"/><path class="cls-5" d="M70.11,122.94s3.25,3.57,3.34-.48-4.12-12-4.12-12Z"/><path class="cls-1" d="M88.5,120.42s11.19,23.89,19.89,25,14.13-9.5,14.13-9.5-6-9.34-2.61-12.66c1.3-1,2.51,3.53,3.09,6.26,0,0,.38.73,1.5-.88.81-1.16,2.16-3.47,3-5a13.27,13.27,0,0,0,.91-2.12c.2-.6.62-1.24,1.43-.68,1.36.94.69,5.92-.77,6.49,0,0,4.11-1.21,1.77,3.08,0,0,6,.25,2.71,3.11s-5.84,4-8.46,3.56c0,0-5.55,15.76-17.6,14.1s-19.89-15.28-19.89-15.28Z"/><path class="cls-6" d="M127.61,128.17a7.76,7.76,0,0,0-1,.67,5.11,5.11,0,0,0-.8.81,2.11,2.11,0,0,0-.47,1,1.63,1.63,0,0,0,0,.54,1.57,1.57,0,0,0,.19.51h0a2.9,2.9,0,0,0,.49.5,2,2,0,0,0,.62.32,2.67,2.67,0,0,0,.68.15,2.7,2.7,0,0,0,.7,0l.23,0-.1.2a8.28,8.28,0,0,0-.47,1.29,2.26,2.26,0,0,0,0,1.31.84.84,0,0,0,.45.44,2.3,2.3,0,0,0,.65.17,5.4,5.4,0,0,0,1.39-.06,4.71,4.71,0,0,1-1.4.16,2.18,2.18,0,0,1-.7-.14,1,1,0,0,1-.55-.49,2.36,2.36,0,0,1,0-1.44,7.1,7.1,0,0,1,.47-1.34l.13.17a4,4,0,0,1-.77,0,2.81,2.81,0,0,1-.75-.17,2.2,2.2,0,0,1-.67-.37,2.35,2.35,0,0,1-.53-.56h0a1.94,1.94,0,0,1-.2-.57,1.61,1.61,0,0,1,0-.62,2.41,2.41,0,0,1,.55-1,4.59,4.59,0,0,1,.87-.78A6.79,6.79,0,0,1,127.61,128.17Z"/><path class="cls-6" d="M124.73,130a4.1,4.1,0,0,1,.91,2,3.3,3.3,0,0,1,0,1.13,2.7,2.7,0,0,1-.46,1,5.07,5.07,0,0,0,.27-1.05,4.17,4.17,0,0,0,0-1.06,6.41,6.41,0,0,0-.25-1A9.71,9.71,0,0,0,124.73,130Z"/><path class="cls-7" d="M69.33,110.48l1,15.32s5.69,5.5.44,23.08l-4.93,8.56s4,6.82,25.4,7.76c0,0,3.1-6.44,2.21-19.39s-5.19-30.89-5.19-30.89S70.76,110.26,69.33,110.48Z"/><path class="cls-8" d="M57.66,96.61s14.93,9,20.52.88A50.8,50.8,0,0,1,90.14,85s3-10.21-8.38-14.13c-4.29-1.38-9.88,1.79-13.26,4.37s-13.63.42-13.63.42-.37,5.21,3.25,8l-4.88,4.08s1.17,3.67,9.93,5.17Z"/><path class="cls-9" d="M57.66,96.61s9.82,5.92,16.49,3.88C78.9,99,90.32,83.7,90.32,83.7s-.65-7.27-6.47-7.08c-3-.19-12.55,7-12.55,7S64,89.39,55,77.55a9.21,9.21,0,0,0,3.17,6.18l-4.88,4.08s.64,3.43,9.93,5.17Z"/><path class="cls-1" d="M88.77,80.12s10.55,23.79,8.42,25.16S86.5,108.85,84.31,109c0,0-1.19,3.44-.25,4.79l1,.69s.22,4-1.39,3.59-6.8-5-6.9-6c0,0,3-.94,2.82-3a16.91,16.91,0,0,1-2.82-8.7,7.47,7.47,0,0,1-3.09,1c-1.19,0-4.71-1-4.39-5.61.3-4.37,3.79-3.34,3.79-3.34s2.19.78,2.13,1.41a26.79,26.79,0,0,0-.56-7.69s3.19-1.6,3.5-3.22,5.17-2.8,6.34-2.82S88.77,80.12,88.77,80.12Z"/><path class="cls-10" d="M90.32,83.7a8.39,8.39,0,0,0-2.39-5.51c-2.5-2.74-6.69-.55-9.42,3.93a9.91,9.91,0,0,1-5.67,4.7,16.35,16.35,0,0,1-5.15.8c-2.44,0-5.2-.19-6.34-1.12a11.24,11.24,0,0,0,7.57,1.67c4-.6,7.61-2.36,9.27-4.94.15-.23.26-.48.39-.73.23-.46,1.63-2,10-2.32Z"/><ellipse class="cls-11" cx="83.05" cy="90.61" rx="1.24" ry="2.02" transform="translate(-19.72 23.19) rotate(-14.23)"/><ellipse class="cls-11" cx="90.07" cy="88.83" rx="1.14" ry="2.02" transform="translate(-19.07 24.86) rotate(-14.23)"/><path class="cls-12" d="M82.42,83.82a4.89,4.89,0,0,0-2.91,1.91s.81-2.38,2.67-2.32C82.68,83.54,82.42,83.82,82.42,83.82Z"/><path class="cls-12" d="M86.77,82.87a4.33,4.33,0,0,1,3.13.24s-1.76-1.56-3.15-.67C86.43,82.76,86.77,82.87,86.77,82.87Z"/><path class="cls-13" d="M88.59,91.78a1.44,1.44,0,0,0,.66.73.79.79,0,0,0,.43,0c.14,0,.33-.1.49-.15a4.27,4.27,0,0,1,.54-.13,1.28,1.28,0,0,1,.64,0,1,1,0,0,1,.5.46,2.7,2.7,0,0,1,.2.56,3,3,0,0,1,0,1.15,1.57,1.57,0,0,1-.61,1c-.09,0-.17.11-.26.15l-.28.09-.29,0a1.31,1.31,0,0,1-.28,0,3.2,3.2,0,0,1-.54-.08l-.51-.17c.18,0,.36,0,.53,0a4.26,4.26,0,0,0,.51,0,1.51,1.51,0,0,0,.88-.34,1.21,1.21,0,0,0,.38-.79,2.41,2.41,0,0,0,0-1,.9.9,0,0,0-.39-.69,1.76,1.76,0,0,0-.9,0l-.26,0-.28,0a1,1,0,0,1-.6-.14A1.34,1.34,0,0,1,88.59,91.78Z"/><path class="cls-13" d="M71,96.09a2.26,2.26,0,0,1,.51-1,2.08,2.08,0,0,1,1-.65,1.59,1.59,0,0,1,.3-.06h.31l.3.06a1,1,0,0,1,.27.1,1.72,1.72,0,0,1,.48.31,2.93,2.93,0,0,1,.37.42c-.18-.06-.33-.15-.5-.21L73.75,95a.86.86,0,0,0-.23-.06,1.65,1.65,0,0,0-.91,0,2.63,2.63,0,0,0-.84.45A8.35,8.35,0,0,0,71,96.09Z"/><path class="cls-14" d="M80.26,96.09s11.95,3,12.47,2.79c0,0-2.79,7.74-7.42,6.59S80,96.88,80.26,96.09Z"/><path class="cls-15" d="M81,100.84s1.17,3.9,4.3,4.63a3.33,3.33,0,0,0,2.68-.3S87.34,100.5,81,100.84Z"/><path class="cls-1" d="M70.18,112.17s2.95,6.66,3.1,8.57c0,0-16.68,5.86-19.49,17.09s.12,15.3,6.81,23.3c0,0,3.53-8.13,6.82-6.5l-1.63,2.81.52.65-1.2,1.2,4.37,1.59s2.07.63.79,2c-1,1.05-1.77,1-2.11.93l-.57-.12-3.8-.59,1.18,1.8a3.6,3.6,0,0,1,.46,1c.22.91.11,2.28-2.73,2a6.46,6.46,0,0,1,1.14,1.53,1.09,1.09,0,0,1-.78,1.55,6.94,6.94,0,0,1-2.89-.21,19.76,19.76,0,0,1-2.24-1.36,2.27,2.27,0,0,1-1-2.57,2,2,0,0,1,2.17-1.38s-.81-1.84-.56-2.37c0,0-17.08-10.63-11.66-26.61C52.16,121.05,70.18,112.17,70.18,112.17Z"/><path class="cls-6" d="M59.57,165.67a13.49,13.49,0,0,1,1.64,1.06A12.65,12.65,0,0,1,62.7,168a12.69,12.69,0,0,1-1.64-1A13.78,13.78,0,0,1,59.57,165.67Z"/><path class="cls-16" d="M17.53,211.53s-3.52-5.05-4.81-5.34-6,2.16-6.34,7A20.48,20.48,0,0,0,.17,231s5,2.12,6.38,1.29c0,0-.09-7.05.29-7.13,0,0,5.5-7.3,7.29-7.17l2.51.46s.66.37.89-.5.44-2.37.44-2.37l-4.4-2.07S15,210.42,17.53,211.53Z"/><path class="cls-16" d="M130.75,249.64s-1.72,1.43,0,4a65.31,65.31,0,0,1,4.65,8c.19.75,6.26-2.31,7.82-6.5,0,0,10.13-3.94,13.64-12.95,0,0-1.82-3.44-5.44-2.94-1.51-.05-4,5.32-4.76,5.44s-5.56,2-8.38,1.75l-.31-3s-1-2.25-3.38-.25-.35,6.09.54,6.36S131.1,252.21,130.75,249.64Z"/><rect class="cls-17" x="51.32" y="268.67" width="1473.21" height="128.87" rx="9.14"/><path class="cls-18" d="M1515.39,271.13a6.69,6.69,0,0,1,6.68,6.68V388.4a6.68,6.68,0,0,1-6.68,6.67H60.46a6.67,6.67,0,0,1-6.67-6.67V277.81a6.68,6.68,0,0,1,6.67-6.68H1515.39m0-4.93H60.46a11.64,11.64,0,0,0-11.6,11.61V388.4A11.63,11.63,0,0,0,60.46,400H1515.39a11.63,11.63,0,0,0,11.6-11.6V277.81a11.64,11.64,0,0,0-11.6-11.61Z"/><rect x="78.8" y="266.2" width="2.46" height="46.09"/><rect x="218.72" y="266.2" width="2.46" height="46.09"/><rect x="358.64" y="266.2" width="2.46" height="46.09"/><rect x="498.56" y="266.2" width="2.46" height="46.09"/><rect x="638.48" y="266.2" width="2.46" height="46.09"/><rect x="778.4" y="266.2" width="2.46" height="46.09"/><rect x="918.32" y="266.2" width="2.46" height="46.09"/><rect x="1058.24" y="266.2" width="2.46" height="46.09"/><rect x="1198.15" y="266.2" width="2.46" height="46.09"/><rect x="1338.07" y="266.2" width="2.46" height="46.09"/><rect x="1477.99" y="266.2" width="2.46" height="46.09"/><path d="M216.82,326.61a13.39,13.39,0,0,1,2.48,8.31,13.59,13.59,0,0,1-2.47,8.35,7.58,7.58,0,0,1-12.51,0,15.28,15.28,0,0,1,0-16.69,7.55,7.55,0,0,1,6.26-3.29A7.46,7.46,0,0,1,216.82,326.61Zm-10.53,1.71a14.21,14.21,0,0,0,0,13.31,4.92,4.92,0,0,0,4.31,2.58,5,5,0,0,0,4.34-2.58,12.11,12.11,0,0,0,1.66-6.65,12.27,12.27,0,0,0-1.66-6.68,5,5,0,0,0-4.34-2.6A4.85,4.85,0,0,0,206.29,328.32Z"/><path d="M224.6,342.35a2.06,2.06,0,0,1,1.65.72,2.75,2.75,0,0,1,.62,1.88q0,3.3-3.12,6.22l-1.2-1a7.38,7.38,0,0,0,2.35-3.65l-.33,0a2.09,2.09,0,0,1-1.49-.59,2,2,0,0,1-.61-1.5,2,2,0,0,1,.62-1.45A2.08,2.08,0,0,1,224.6,342.35Z"/><path d="M235.34,323.65h2.22v22.53h-2.62V326.37l-3.89,2-1-1.91Z"/><path d="M353.82,326.61a13.39,13.39,0,0,1,2.48,8.31,13.59,13.59,0,0,1-2.47,8.35,7.58,7.58,0,0,1-12.51,0,15.28,15.28,0,0,1,0-16.69,7.55,7.55,0,0,1,6.26-3.29A7.46,7.46,0,0,1,353.82,326.61Zm-10.53,1.71a14.21,14.21,0,0,0,0,13.31,4.92,4.92,0,0,0,4.31,2.58,5,5,0,0,0,4.34-2.58,12.11,12.11,0,0,0,1.66-6.65,12.27,12.27,0,0,0-1.66-6.68,5,5,0,0,0-4.34-2.6A4.85,4.85,0,0,0,343.29,328.32Z"/><path d="M361.6,342.35a2.06,2.06,0,0,1,1.65.72,2.75,2.75,0,0,1,.62,1.88q0,3.3-3.13,6.22l-1.19-1a7.38,7.38,0,0,0,2.35-3.65l-.33,0a2.09,2.09,0,0,1-1.49-.59,2,2,0,0,1-.61-1.5,2,2,0,0,1,.62-1.45A2.08,2.08,0,0,1,361.6,342.35Z"/><path d="M373.71,323.29a7.52,7.52,0,0,1,5.4,2,6.09,6.09,0,0,1,1.9,4.63,7.94,7.94,0,0,1-1.41,4.34,34.16,34.16,0,0,1-3.53,4.08l-5.19,5.5H381v2.32h-14v-2.07l6.82-7.21a33.82,33.82,0,0,0,3.27-3.78,5.63,5.63,0,0,0,1.06-3.18,4.17,4.17,0,0,0-1.27-3.08,4.37,4.37,0,0,0-3.22-1.21,7,7,0,0,0-5.1,2.21l-1.51-1.95A9.52,9.52,0,0,1,373.71,323.29Z"/><path d="M493.1,326.61a13.39,13.39,0,0,1,2.48,8.31,13.59,13.59,0,0,1-2.47,8.35,7.58,7.58,0,0,1-12.51,0,15.28,15.28,0,0,1,0-16.69,7.55,7.55,0,0,1,6.26-3.29A7.46,7.46,0,0,1,493.1,326.61Zm-10.53,1.71a14.21,14.21,0,0,0,0,13.31,4.92,4.92,0,0,0,4.31,2.58,5,5,0,0,0,4.33-2.58,12,12,0,0,0,1.66-6.65,12.18,12.18,0,0,0-1.66-6.68,5,5,0,0,0-4.33-2.6A4.85,4.85,0,0,0,482.57,328.32Z"/><path d="M500.88,342.35a2.06,2.06,0,0,1,1.65.72,2.75,2.75,0,0,1,.62,1.88q0,3.3-3.13,6.22l-1.19-1a7.38,7.38,0,0,0,2.35-3.65l-.33,0a2.09,2.09,0,0,1-1.49-.59,2,2,0,0,1-.61-1.5,2,2,0,0,1,.62-1.45A2.08,2.08,0,0,1,500.88,342.35Z"/><path d="M513.29,323.29a9.07,9.07,0,0,1,5.43,1.49,4.89,4.89,0,0,1,2.13,4.19c0,2.55-1.38,4.26-4.15,5.15a7.46,7.46,0,0,1,3.56,2.37,6.21,6.21,0,0,1,1.29,3.86,5.29,5.29,0,0,1-2.35,4.72,11,11,0,0,1-6,1.5,12.28,12.28,0,0,1-7.18-1.93l1.59-1.93a9.86,9.86,0,0,0,5.43,1.48,7.45,7.45,0,0,0,4.25-1.08,3.63,3.63,0,0,0,1.57-3.16,4.09,4.09,0,0,0-1.62-3.36,6.14,6.14,0,0,0-3.94-1.29h-2.58V333h2.58a5.88,5.88,0,0,0,3.41-1,3.07,3.07,0,0,0,1.38-2.71,3,3,0,0,0-1.28-2.67,6.58,6.58,0,0,0-3.75-.89,10.78,10.78,0,0,0-4.56.94L507,324.78A13.19,13.19,0,0,1,513.29,323.29Z"/><path d="M632.44,326.61a13.39,13.39,0,0,1,2.48,8.31,13.52,13.52,0,0,1-2.47,8.35,7.58,7.58,0,0,1-12.51,0,15.28,15.28,0,0,1,0-16.69,7.55,7.55,0,0,1,6.26-3.29A7.46,7.46,0,0,1,632.44,326.61Zm-10.53,1.71a14.21,14.21,0,0,0,0,13.31,4.93,4.93,0,0,0,4.31,2.58,5,5,0,0,0,4.34-2.58,12.11,12.11,0,0,0,1.66-6.65,12.27,12.27,0,0,0-1.66-6.68,5,5,0,0,0-4.34-2.6A4.87,4.87,0,0,0,621.91,328.32Z"/><path d="M640.23,342.35a2.09,2.09,0,0,1,1.65.72,2.8,2.8,0,0,1,.62,1.88c0,2.2-1,4.27-3.13,6.22l-1.19-1a7.45,7.45,0,0,0,2.35-3.65l-.34,0a2.09,2.09,0,0,1-1.49-.59,2,2,0,0,1-.6-1.5,2,2,0,0,1,.62-1.45A2,2,0,0,1,640.23,342.35Z"/><path d="M657,323.65h2.27v14.47H662v2.23h-2.78v5.83h-2.62v-5.83h-11v-1.81Zm-.35,4.09-7.93,10.38h7.93Z"/><path d="M772.6,326.61a13.39,13.39,0,0,1,2.48,8.31,13.52,13.52,0,0,1-2.47,8.35,7.58,7.58,0,0,1-12.51,0,15.28,15.28,0,0,1,0-16.69,7.55,7.55,0,0,1,6.26-3.29A7.46,7.46,0,0,1,772.6,326.61Zm-10.53,1.71a14.21,14.21,0,0,0,0,13.31,4.93,4.93,0,0,0,4.31,2.58,5,5,0,0,0,4.34-2.58,12.11,12.11,0,0,0,1.66-6.65,12.27,12.27,0,0,0-1.66-6.68,5,5,0,0,0-4.34-2.6A4.87,4.87,0,0,0,762.07,328.32Z"/><path d="M780.39,342.35a2.09,2.09,0,0,1,1.65.72,2.8,2.8,0,0,1,.62,1.88c0,2.2-1,4.27-3.13,6.22l-1.19-1a7.45,7.45,0,0,0,2.35-3.65l-.34,0a2.09,2.09,0,0,1-1.49-.59,2,2,0,0,1-.6-1.5,2,2,0,0,1,.62-1.45A2,2,0,0,1,780.39,342.35Z"/><path d="M787.8,323.65h12.66v2.18H790.22l-.81,8.23a6.59,6.59,0,0,1,5.1-2.32,6.86,6.86,0,0,1,5.1,2.12,7.31,7.31,0,0,1,2.06,5.3,7,7,0,0,1-2.25,5.32,8.22,8.22,0,0,1-5.82,2.09,9.86,9.86,0,0,1-7.77-3.63l1.67-2a7.39,7.39,0,0,0,6.1,3.22,5.35,5.35,0,0,0,3.83-1.4,4.73,4.73,0,0,0,1.52-3.63,4.91,4.91,0,0,0-1.39-3.64,4.82,4.82,0,0,0-3.56-1.41,4.55,4.55,0,0,0-4.53,2.82l-2.78-1.11Z"/><path d="M912.21,326.61a13.39,13.39,0,0,1,2.48,8.31,13.59,13.59,0,0,1-2.47,8.35,7.58,7.58,0,0,1-12.51,0,15.28,15.28,0,0,1,0-16.69,7.56,7.56,0,0,1,12.5,0Zm-10.53,1.71A12,12,0,0,0,900,335a12.2,12.2,0,0,0,1.63,6.65,4.92,4.92,0,0,0,8.65,0A12,12,0,0,0,912,335a12.18,12.18,0,0,0-1.66-6.68,5,5,0,0,0-4.33-2.6A4.85,4.85,0,0,0,901.68,328.32Z"/><path d="M920,342.35a2.06,2.06,0,0,1,1.65.72,2.75,2.75,0,0,1,.62,1.88q0,3.3-3.13,6.22l-1.19-1a7.38,7.38,0,0,0,2.35-3.65l-.33,0a2.09,2.09,0,0,1-1.49-.59,2,2,0,0,1-.61-1.5,2,2,0,0,1,.62-1.45A2.06,2.06,0,0,1,920,342.35Z"/><path d="M934.37,323.29a8.48,8.48,0,0,1,4.89,1.51,10.84,10.84,0,0,1,1.51,1.3l-1.58,2.08a18.28,18.28,0,0,0-1.65-1.52,5.25,5.25,0,0,0-3.17-1,5.06,5.06,0,0,0-4,1.86q-2.13,2.47-2.22,7.77a7.06,7.06,0,0,1,6.09-3.58,7.79,7.79,0,0,1,5.31,2,6.93,6.93,0,0,1,2.32,5.45,7.07,7.07,0,0,1-2.22,5.4,8.63,8.63,0,0,1-11.55-.56q-2.67-3-2.67-8.87c0-4,.9-7,2.72-9.09A7.94,7.94,0,0,1,934.37,323.29Zm-4.1,12.34a4.91,4.91,0,0,0,0,7.09,5.29,5.29,0,0,0,7.36,0,4.82,4.82,0,0,0,1.51-3.55,4.88,4.88,0,0,0-1.51-3.56,5.28,5.28,0,0,0-7.37,0Z"/><path d="M1052.65,326.61a13.38,13.38,0,0,1,2.47,8.31,13.52,13.52,0,0,1-2.47,8.35,7.58,7.58,0,0,1-12.51,0,15.33,15.33,0,0,1,0-16.69,7.57,7.57,0,0,1,12.51,0Zm-10.54,1.71a14.28,14.28,0,0,0,0,13.31,4.92,4.92,0,0,0,8.65,0,12,12,0,0,0,1.66-6.65,12.18,12.18,0,0,0-1.66-6.68,5,5,0,0,0-4.33-2.6A4.87,4.87,0,0,0,1042.11,328.32Z"/><path d="M1060.43,342.35a2.06,2.06,0,0,1,1.65.72,2.8,2.8,0,0,1,.62,1.88q0,3.3-3.13,6.22l-1.19-1a7.38,7.38,0,0,0,2.35-3.65l-.33,0a2.12,2.12,0,0,1-1.5-.59,2,2,0,0,1-.6-1.5,2,2,0,0,1,.62-1.45A2.06,2.06,0,0,1,1060.43,342.35Z"/><path d="M1065.88,323.65h15.37v1.77l-9.83,20.76h-2.92l9.88-20.3h-12.5Z"/><path d="M1192.15,326.61a13.39,13.39,0,0,1,2.48,8.31,13.59,13.59,0,0,1-2.47,8.35,7.58,7.58,0,0,1-12.51,0,15.28,15.28,0,0,1,0-16.69,7.54,7.54,0,0,1,6.26-3.29A7.46,7.46,0,0,1,1192.15,326.61Zm-10.53,1.71A12,12,0,0,0,1180,335a12.2,12.2,0,0,0,1.63,6.65,4.92,4.92,0,0,0,8.65,0,12,12,0,0,0,1.66-6.65,12.18,12.18,0,0,0-1.66-6.68,5,5,0,0,0-4.33-2.6A4.85,4.85,0,0,0,1181.62,328.32Z"/><path d="M1199.93,342.35a2.06,2.06,0,0,1,1.65.72,2.75,2.75,0,0,1,.62,1.88q0,3.3-3.13,6.22l-1.19-1a7.38,7.38,0,0,0,2.35-3.65l-.33,0a2.09,2.09,0,0,1-1.49-.59,2,2,0,0,1-.61-1.5,2,2,0,0,1,.62-1.45A2.08,2.08,0,0,1,1199.93,342.35Z"/><path d="M1218.74,324.75a4.83,4.83,0,0,1,2.08,4.22c0,2.53-1.31,4.24-3.94,5.15a7.27,7.27,0,0,1,3.43,2.38,6.1,6.1,0,0,1,1.26,3.88,5.29,5.29,0,0,1-2.27,4.61,11.56,11.56,0,0,1-11.67,0,5.3,5.3,0,0,1-2.25-4.61,6.1,6.1,0,0,1,1.26-3.88,7.32,7.32,0,0,1,3.38-2.38c-2.62-.91-3.93-2.62-3.93-5.15a4.84,4.84,0,0,1,2.07-4.22,10.31,10.31,0,0,1,10.58,0Zm-9.12,11.85a4.15,4.15,0,0,0-1.51,3.37,3.64,3.64,0,0,0,1.51,3.16,7.33,7.33,0,0,0,7.66,0,3.62,3.62,0,0,0,1.52-3.16,4.2,4.2,0,0,0-1.54-3.4,6.24,6.24,0,0,0-7.64,0Zm.45-10a3.07,3.07,0,0,0-1.26,2.67,3.18,3.18,0,0,0,1.31,2.73,6.31,6.31,0,0,0,6.66,0,3.18,3.18,0,0,0,1.31-2.73,3,3,0,0,0-1.29-2.67,5.65,5.65,0,0,0-3.35-.91A5.77,5.77,0,0,0,1210.07,326.61Z"/><path d="M1331.93,326.61a13.39,13.39,0,0,1,2.48,8.31,13.59,13.59,0,0,1-2.47,8.35,7.58,7.58,0,0,1-12.51,0,15.28,15.28,0,0,1,0-16.69,7.56,7.56,0,0,1,12.5,0Zm-10.53,1.71a12,12,0,0,0-1.67,6.66,12.2,12.2,0,0,0,1.63,6.65,4.92,4.92,0,0,0,8.65,0,12,12,0,0,0,1.66-6.65,12.18,12.18,0,0,0-1.66-6.68,5,5,0,0,0-4.33-2.6A4.85,4.85,0,0,0,1321.4,328.32Z"/><path d="M1339.71,342.35a2.06,2.06,0,0,1,1.65.72A2.75,2.75,0,0,1,1342,345q0,3.3-3.13,6.22l-1.19-1a7.38,7.38,0,0,0,2.35-3.65l-.33,0a2.09,2.09,0,0,1-1.49-.59,2,2,0,0,1-.61-1.5,2,2,0,0,1,.62-1.45A2.06,2.06,0,0,1,1339.71,342.35Z"/><path d="M1352.88,323.29a7.62,7.62,0,0,1,6,2.56q2.68,3,2.69,8.87c0,4-.91,7-2.73,9.09a7.87,7.87,0,0,1-6.2,2.76,8.48,8.48,0,0,1-4.89-1.46,11.25,11.25,0,0,1-1.57-1.35l1.62-2a15.93,15.93,0,0,0,1.67,1.5,5.17,5.17,0,0,0,3.17,1,5.09,5.09,0,0,0,4-1.86c1.41-1.65,2.14-4.24,2.21-7.77a7.07,7.07,0,0,1-6.1,3.58,7.74,7.74,0,0,1-5.29-2,6.93,6.93,0,0,1-2.32-5.45,7,7,0,0,1,2.21-5.38A7.77,7.77,0,0,1,1352.88,323.29Zm-3.51,3.94a4.91,4.91,0,0,0,0,7.09,5.32,5.32,0,0,0,7.36,0,4.94,4.94,0,0,0,0-7.11,5.28,5.28,0,0,0-7.37,0Z"/><path d="M1480.4,323.65h2.22v22.53H1480V326.37l-3.89,2-1-1.91Z"/><path d="M86.36,326.61a13.32,13.32,0,0,1,2.48,8.31,13.52,13.52,0,0,1-2.47,8.35,7.58,7.58,0,0,1-12.51,0,15.33,15.33,0,0,1,0-16.69,7.56,7.56,0,0,1,6.26-3.29A7.46,7.46,0,0,1,86.36,326.61Zm-10.53,1.71a14.28,14.28,0,0,0,0,13.31,4.93,4.93,0,0,0,4.31,2.58,5,5,0,0,0,4.34-2.58A12,12,0,0,0,86.11,335a12.18,12.18,0,0,0-1.66-6.68,5,5,0,0,0-4.34-2.6A4.87,4.87,0,0,0,75.83,328.32Z"/><rect x="93.41" y="266.2" width="1.23" height="33.53"/><rect x="107.4" y="266.2" width="1.23" height="33.53"/><rect x="121.39" y="266.2" width="1.23" height="33.53"/><rect x="135.39" y="266.2" width="1.23" height="33.53"/><rect x="149.38" y="266.2" width="1.23" height="39.93"/><rect x="163.37" y="266.2" width="1.23" height="33.53"/><rect x="177.36" y="266.2" width="1.23" height="33.53"/><rect x="191.35" y="266.2" width="1.23" height="33.53"/><rect x="205.35" y="266.2" width="1.23" height="33.53"/><rect x="233.33" y="266.2" width="1.23" height="33.53"/><rect x="247.32" y="266.2" width="1.23" height="33.53"/><rect x="261.31" y="266.2" width="1.23" height="33.53"/><rect x="275.3" y="266.2" width="1.23" height="33.53"/><rect x="289.3" y="266.2" width="1.23" height="39.93"/><rect x="303.29" y="266.2" width="1.23" height="33.53"/><rect x="317.28" y="266.2" width="1.23" height="33.53"/><rect x="331.27" y="266.2" width="1.23" height="33.53"/><rect x="345.26" y="266.2" width="1.23" height="33.53"/><rect x="373.25" y="266.2" width="1.23" height="33.53"/><rect x="387.24" y="266.2" width="1.23" height="33.53"/><rect x="401.23" y="266.2" width="1.23" height="33.53"/><rect x="415.22" y="266.2" width="1.23" height="33.53"/><rect x="429.22" y="266.2" width="1.23" height="39.93"/><rect x="443.21" y="266.2" width="1.23" height="33.53"/><rect x="457.2" y="266.2" width="1.23" height="33.53"/><rect x="471.19" y="266.2" width="1.23" height="33.53"/><rect x="485.18" y="266.2" width="1.23" height="33.53"/><rect x="513.17" y="266.2" width="1.23" height="33.53"/><rect x="527.16" y="266.2" width="1.23" height="33.53"/><rect x="541.15" y="266.2" width="1.23" height="33.53"/><rect x="555.14" y="266.2" width="1.23" height="33.53"/><rect x="569.13" y="266.2" width="1.23" height="39.93"/><rect x="583.13" y="266.2" width="1.23" height="33.53"/><rect x="597.12" y="266.2" width="1.23" height="33.53"/><rect x="611.11" y="266.2" width="1.23" height="33.53"/><rect x="625.1" y="266.2" width="1.23" height="33.53"/><rect x="653.09" y="266.2" width="1.23" height="33.53"/><rect x="667.08" y="266.2" width="1.23" height="33.53"/><rect x="681.07" y="266.2" width="1.23" height="33.53"/><rect x="695.06" y="266.2" width="1.23" height="33.53"/><rect x="709.05" y="266.2" width="1.23" height="39.93"/><rect x="723.05" y="266.2" width="1.23" height="33.53"/><rect x="737.04" y="266.2" width="1.23" height="33.53"/><rect x="751.03" y="266.2" width="1.23" height="33.53"/><rect x="765.02" y="266.2" width="1.23" height="33.53"/><rect x="793" y="266.2" width="1.23" height="33.53"/><rect x="807" y="266.2" width="1.23" height="33.53"/><rect x="820.99" y="266.2" width="1.23" height="33.53"/><rect x="834.98" y="266.2" width="1.23" height="33.53"/><rect x="848.97" y="266.2" width="1.23" height="39.93"/><rect x="862.96" y="266.2" width="1.23" height="33.53"/><rect x="876.96" y="266.2" width="1.23" height="33.53"/><rect x="890.95" y="266.2" width="1.23" height="33.53"/><rect x="904.94" y="266.2" width="1.23" height="33.53"/><rect x="932.92" y="266.2" width="1.23" height="33.53"/><rect x="946.92" y="266.2" width="1.23" height="33.53"/><rect x="960.91" y="266.2" width="1.23" height="33.53"/><rect x="974.9" y="266.2" width="1.23" height="33.53"/><rect x="988.89" y="266.2" width="1.23" height="39.93"/><rect x="1002.88" y="266.2" width="1.23" height="33.53"/><rect x="1016.88" y="266.2" width="1.23" height="33.53"/><rect x="1030.87" y="266.2" width="1.23" height="33.53"/><rect x="1044.86" y="266.2" width="1.23" height="33.53"/><rect x="1072.91" y="266.2" width="1.23" height="33.53"/><rect x="1086.9" y="266.2" width="1.23" height="33.53"/><rect x="1100.89" y="266.2" width="1.23" height="33.53"/><rect x="1114.89" y="266.2" width="1.23" height="33.53"/><rect x="1128.88" y="266.2" width="1.23" height="39.93"/><rect x="1142.87" y="266.2" width="1.23" height="33.53"/><rect x="1156.86" y="266.2" width="1.23" height="33.53"/><rect x="1170.85" y="266.2" width="1.23" height="33.53"/><rect x="1184.84" y="266.2" width="1.23" height="33.53"/><rect x="1212.76" y="266.2" width="1.23" height="33.53"/><rect x="1226.75" y="266.2" width="1.23" height="33.53"/><rect x="1240.75" y="266.2" width="1.23" height="33.53"/><rect x="1254.74" y="266.2" width="1.23" height="33.53"/><rect x="1268.73" y="266.2" width="1.23" height="39.93"/><rect x="1282.72" y="266.2" width="1.23" height="33.53"/><rect x="1296.71" y="266.2" width="1.23" height="33.53"/><rect x="1310.71" y="266.2" width="1.23" height="33.53"/><rect x="1324.7" y="266.2" width="1.23" height="33.53"/><rect x="1352.77" y="266.2" width="1.23" height="33.53"/><rect x="1366.76" y="266.2" width="1.23" height="33.53"/><rect x="1380.75" y="266.2" width="1.23" height="33.53"/><rect x="1394.75" y="266.2" width="1.23" height="33.53"/><rect x="1408.74" y="266.2" width="1.23" height="39.93"/><rect x="1422.73" y="266.2" width="1.23" height="33.53"/><rect x="1436.72" y="266.2" width="1.23" height="33.53"/><rect x="1450.71" y="266.2" width="1.23" height="33.53"/><rect x="1464.7" y="266.2" width="1.23" height="33.53"/><circle class="cls-19" cx="557.48" cy="240.66" r="23.14"/><path class="cls-20" d="M557.48,264.54a23.9,23.9,0,1,1,16.88-7A23.74,23.74,0,0,1,557.48,264.54Zm0-46.29a22.41,22.41,0,1,0,22.4,22.41A22.43,22.43,0,0,0,557.48,218.25Z"/><path class="cls-20" d="M549.62,219.29l5.31,3.25,10.63-.74v-2.51S557.59,216,549.62,219.29Z"/><path class="cls-20" d="M552.27,230.43s-6,2.22-7.89,4l-.74,1.25a36.57,36.57,0,0,0,.81,8.42l1,1.33,8.34,1.62,1.11-1,3.76-7.3.22-1.48s-5-6.05-5.38-6Z"/><path class="cls-20" d="M541.72,224.16l-2.51,7.09-.89,1.32-3,4.58S534.85,230,541.72,224.16Z"/><path class="cls-20" d="M569,237.59s4,6.2,4.13,6.87c.15,0,1.4.44,1.4.44s4.43-2,4.51-2.58c0,.44,0-7.24-1.7-10.56a16.47,16.47,0,0,0-4.87-2.43l-1.26.73L569,236.19Z"/><path class="cls-20" d="M535.44,246.16s3.7,4.2,4.8,4.28c0,.07,1.11,1.33,1.11,1.33l3.84,5.83-1.85,1.11S534.63,252.14,535.44,246.16Z"/><path class="cls-20" d="M558.62,255.38l-3,4.14-.22,1.4,4.65,2a13.39,13.39,0,0,0,10.18-3.76,27.78,27.78,0,0,0-.88-4.5l-1.26-.82a35,35,0,0,1-8.19.82Z"/><rect class="cls-20" x="537.17" y="232.56" width="7.68" height="1.5" transform="translate(189.14 -239.25) rotate(30)"/><rect class="cls-20" x="549.4" y="226" width="9.69" height="1.5" transform="translate(940.05 -231.23) rotate(107.86)"/><rect class="cls-20" x="562.08" y="224.84" width="11.82" height="1.5" transform="translate(353.13 -346.55) rotate(47.76)"/><rect class="cls-20" x="557.8" y="236.72" width="11.82" height="1.5" transform="translate(-19.38 52.62) rotate(-5.25)"/><rect class="cls-20" x="550.71" y="250.01" width="11.82" height="1.5" transform="translate(617.77 858.18) rotate(-120)"/><rect class="cls-20" x="537.72" y="245.95" width="11.82" height="1.5" transform="translate(45.78 576.15) rotate(-57.9)"/><rect class="cls-20" x="565.33" y="248.68" width="11.82" height="1.5" transform="translate(81.92 635.55) rotate(-61.87)"/><rect class="cls-20" x="576.36" y="230.99" width="2.75" height="1.5" transform="translate(1117.04 -79.11) rotate(128.19)"/><rect class="cls-20" x="577.91" y="241.91" width="2.75" height="1.5" transform="translate(164.54 -228.97) rotate(25.94)"/><rect class="cls-20" x="543.53" y="258.39" width="12.22" height="1.5" transform="translate(55.67 -94.77) rotate(10.38)"/><rect class="cls-21" x="1428.3" y="258.66" width="139.56" height="7.54" rx="2.3"/><path class="cls-21" d="M1558.65,265.34,1500.6,15.77c-1.69-7.09-7.75-11.85-15.84-12.44H1415.5l19.91,259.94-3.32.26L1411.9,0h73c9.61.68,16.86,6.43,18.9,15l58.05,249.57Z"/><rect class="cls-21" x="1425.82" y="1.48" width="0.67" height="261.13" transform="translate(-5.87 106.68) rotate(-4.28)"/><rect class="cls-21" x="1432.05" y="1.48" width="0.67" height="261.13" transform="translate(-5.86 107.14) rotate(-4.28)"/><rect class="cls-21" x="1438.28" y="1.48" width="0.67" height="261.13" transform="translate(-5.84 107.61) rotate(-4.27)"/><rect class="cls-21" x="1444.51" y="1.48" width="0.67" height="261.13" transform="translate(-5.82 108.07) rotate(-4.27)"/><rect class="cls-21" x="1450.74" y="1.48" width="0.67" height="261.13" transform="translate(-5.81 108.54) rotate(-4.28)"/><rect class="cls-21" x="1456.97" y="1.48" width="0.67" height="261.13" transform="translate(-5.79 109) rotate(-4.27)"/><rect class="cls-21" x="1463.2" y="1.48" width="0.67" height="261.13" transform="translate(-5.77 109.46) rotate(-4.27)"/><rect class="cls-21" x="1469.43" y="1.48" width="0.67" height="261.13" transform="matrix(1, -0.07, 0.07, 1, -5.75, 109.93)"/><rect class="cls-21" x="1475.66" y="1.48" width="0.67" height="261.13" transform="translate(-5.74 110.39) rotate(-4.28)"/><rect class="cls-21" x="1481.88" y="1.48" width="0.67" height="261.13" transform="translate(-5.72 110.86) rotate(-4.27)"/><rect class="cls-21" x="1488.11" y="1.48" width="0.67" height="261.13" transform="translate(-5.7 111.32) rotate(-4.27)"/><rect class="cls-21" x="1494.34" y="1.48" width="0.67" height="261.13" transform="translate(-5.68 111.79) rotate(-4.28)"/><rect class="cls-21" x="1500.57" y="1.48" width="0.67" height="261.13" transform="translate(-5.67 112.25) rotate(-4.27)"/><rect class="cls-21" x="1507" y="6.99" width="0.67" height="255.6" transform="translate(-5.85 112.74) rotate(-4.28)"/><rect class="cls-21" x="1514.15" y="31.44" width="0.67" height="231.12" transform="matrix(1, -0.07, 0.07, 1, -6.74, 113.3)"/><rect class="cls-21" x="1521.81" y="69.91" width="0.67" height="192.6" transform="matrix(1, -0.07, 0.07, 1, -8.15, 113.93)"/><rect class="cls-21" x="1529.65" y="113.07" width="0.67" height="149.37" transform="matrix(1, -0.07, 0.07, 1, -9.74, 114.57)"/><rect class="cls-21" x="1537.22" y="148.94" width="0.67" height="113.46" transform="translate(-11.05 115.19) rotate(-4.28)"/><rect class="cls-21" x="1544.45" y="175.81" width="0.67" height="86.55" transform="translate(-12.03 115.76) rotate(-4.28)"/><rect class="cls-21" x="1552.3" y="219.19" width="0.67" height="43.11" transform="matrix(1, -0.07, 0.07, 1, -13.63, 116.41)"/><rect class="cls-21" x="1432.99" y="252.77" width="119.64" height="0.67"/><rect class="cls-21" x="1432.59" y="246.58" width="119.64" height="0.67"/><rect class="cls-21" x="1432.19" y="240.39" width="119.64" height="0.67"/><rect class="cls-21" x="1431.78" y="234.2" width="119.64" height="0.67"/><rect class="cls-21" x="1430.64" y="228.01" width="120.38" height="0.67"/><rect class="cls-21" x="1430.24" y="221.82" width="120.38" height="0.67"/><rect class="cls-21" x="1429.84" y="215.63" width="120.38" height="0.67"/><rect class="cls-21" x="1429.44" y="209.44" width="120.38" height="0.67"/><rect class="cls-21" x="1428.16" y="203.25" width="118.92" height="0.67"/><rect class="cls-21" x="1427.76" y="197.06" width="117.64" height="0.67"/><rect class="cls-21" x="1427.36" y="190.87" width="115.64" height="0.67"/><rect class="cls-21" x="1426.96" y="184.68" width="115.24" height="0.67"/><rect class="cls-21" x="1426.56" y="178.49" width="113.23" height="0.67"/><rect class="cls-21" x="1426.16" y="172.3" width="112.02" height="0.67"/><rect class="cls-21" x="1426.09" y="166.11" width="111.47" height="0.67"/><rect class="cls-21" x="1425.68" y="159.93" width="108.59" height="0.67"/><rect class="cls-21" x="1425.28" y="153.74" width="108.41" height="0.67"/><rect class="cls-21" x="1424.88" y="147.55" width="108.44" height="0.67"/><rect class="cls-21" x="1424.48" y="141.36" width="107.37" height="0.67"/><rect class="cls-21" x="1424.08" y="135.17" width="105.91" height="0.67"/><rect class="cls-21" x="1423.68" y="128.98" width="103.89" height="0.67"/><rect class="cls-21" x="1423.28" y="122.79" width="103.89" height="0.67"/><rect class="cls-21" x="1422.88" y="116.6" width="103.89" height="0.67"/><rect class="cls-21" x="1421.07" y="110.41" width="105.3" height="0.67"/><rect class="cls-21" x="1420.67" y="104.22" width="105.3" height="0.67"/><rect class="cls-21" x="1420.27" y="98.03" width="100.88" height="0.67"/><rect class="cls-21" x="1419.86" y="91.84" width="96.62" height="0.67"/><rect class="cls-21" x="1419.46" y="85.65" width="96.62" height="0.67"/><rect class="cls-21" x="1419.06" y="79.46" width="96.62" height="0.67"/><rect class="cls-21" x="1418.66" y="73.27" width="96.62" height="0.67"/><rect class="cls-21" x="1418.26" y="67.08" width="96.62" height="0.67"/><rect class="cls-21" x="1418.26" y="60.89" width="96.22" height="0.67"/><rect class="cls-21" x="1417.79" y="54.7" width="93.5" height="0.67"/><rect class="cls-21" x="1415.65" y="48.51" width="93.38" height="0.67"/><rect class="cls-21" x="1415.25" y="42.32" width="93.78" height="0.67"/><rect class="cls-21" x="1414.85" y="36.13" width="92.28" height="0.67"/><rect class="cls-21" x="1414.45" y="29.94" width="91.24" height="0.67"/><rect class="cls-21" x="1414.04" y="23.75" width="87.66" height="0.67"/><rect class="cls-21" x="1413.64" y="17.56" width="87.66" height="0.67"/><rect class="cls-21" x="1413.24" y="11.37" width="87.66" height="0.67"/></g></g></svg>