<svg xmlns="http://www.w3.org/2000/svg" xmlns:xlink="http://www.w3.org/1999/xlink" viewBox="0 0 743.26 190.67"><defs><style>.cls-1,.cls-10,.cls-5,.cls-7,.cls-9{fill:none;}.cls-2{clip-path:url(#clip-path);}.cls-3{fill:#baff78;}.cls-4{fill:#83ff00;}.cls-5{stroke:#000;stroke-width:0.5px;}.cls-10,.cls-5,.cls-7,.cls-9{stroke-miterlimit:10;}.cls-6{font-size:14.22px;font-family:LarkeNeue-Regular, Larke Neue;}.cls-7{stroke:#f30;}.cls-8{fill:#dbdbdb;}.cls-10,.cls-9{stroke:#dbdbdb;}.cls-9{stroke-width:0.75px;}.cls-10{stroke-width:0.25px;}.cls-11{fill:#f2d5c7;}.cls-12{fill:#6b99bd;}.cls-13,.cls-14{fill:#427b99;}.cls-13{opacity:0.5;}.cls-15{fill:#428e80;}.cls-16{fill:#b55930;}.cls-17{fill:#e0e0e0;}.cls-18{fill:#c9934b;}.cls-19{fill:#896029;}.cls-20{fill:#513513;}.cls-21{fill:#3f3f3f;}.cls-22{fill:#cfaa13;}.cls-23{fill:#c36a3e;}.cls-24{fill:#8e1d21;}.cls-25{fill:#d75f5e;}.cls-26{fill:#3a3a3a;}.cls-27{fill:#fff;}.cls-28{fill:#444;}.cls-29{fill:#f30;}</style><clipPath id="clip-path" transform="translate(0 -87.5)"><rect class="cls-1" x="0.93" width="399.5" height="399.5"/></clipPath></defs><title>zoom7</title><g id="Capa_2" data-name="Capa 2"><g id="Layer_1" data-name="Layer 1"><g class="cls-2"><rect class="cls-3" x="64.57" y="133.2" width="643.91" height="56.47" rx="1.02"/><path class="cls-4" d="M707.46,221.71l0,0,0,54.44-641.89,0,0-54.44H707.46m0-2H65.59a2,2,0,0,0-2,2v54.42a2,2,0,0,0,2,2H707.46a2,2,0,0,0,2-2V221.73a2,2,0,0,0-2-2Z" transform="translate(0 -87.5)"/><line class="cls-5" x1="77.19" y1="132.2" x2="77.19" y2="152.34"/><line class="cls-5" x1="138.33" y1="132.2" x2="138.33" y2="152.34"/><line class="cls-5" x1="199.48" y1="132.2" x2="199.48" y2="152.34"/><line class="cls-5" x1="260.62" y1="132.2" x2="260.62" y2="152.34"/><line class="cls-5" x1="321.76" y1="132.2" x2="321.76" y2="152.34"/><line class="cls-5" x1="382.9" y1="132.2" x2="382.9" y2="152.34"/><line class="cls-5" x1="444.04" y1="132.2" x2="444.04" y2="152.34"/><line class="cls-5" x1="505.18" y1="132.2" x2="505.18" y2="152.34"/><line class="cls-5" x1="566.32" y1="132.2" x2="566.32" y2="152.34"/><line class="cls-5" x1="627.47" y1="132.2" x2="627.47" y2="152.34"/><line class="cls-5" x1="688.61" y1="132.2" x2="688.61" y2="152.34"/><text class="cls-6" transform="translate(129.72 167.15)">0,1</text><text class="cls-6" transform="translate(189.59 167.15)">0,2</text><text class="cls-6" transform="translate(250.45 167.15)">0,3</text><text class="cls-6" transform="translate(311.34 167.15)">0,4</text><text class="cls-6" transform="translate(372.59 167.15)">0,5</text><text class="cls-6" transform="translate(433.59 167.15)">0,6</text><text class="cls-6" transform="translate(494.96 167.15)">0,7</text><text class="cls-6" transform="translate(555.92 167.15)">0,8</text><text class="cls-6" transform="translate(617 167.15)">0,9</text><text class="cls-6" transform="translate(686.11 167.15)">1</text><text class="cls-6" transform="translate(72.72 167.15)">0</text><line class="cls-5" x1="83.31" y1="132.2" x2="83.31" y2="146.86"/><line class="cls-5" x1="89.42" y1="132.2" x2="89.42" y2="146.86"/><line class="cls-5" x1="95.54" y1="132.2" x2="95.54" y2="146.86"/><line class="cls-5" x1="101.65" y1="132.2" x2="101.65" y2="146.86"/><line class="cls-5" x1="107.76" y1="132.2" x2="107.76" y2="149.65"/><line class="cls-5" x1="113.88" y1="132.2" x2="113.88" y2="146.86"/><line class="cls-5" x1="119.99" y1="132.2" x2="119.99" y2="146.86"/><line class="cls-5" x1="126.11" y1="132.2" x2="126.11" y2="146.86"/><line class="cls-5" x1="132.22" y1="132.2" x2="132.22" y2="146.86"/><line class="cls-5" x1="144.45" y1="132.2" x2="144.45" y2="146.86"/><line class="cls-5" x1="150.56" y1="132.2" x2="150.56" y2="146.86"/><line class="cls-5" x1="156.68" y1="132.2" x2="156.68" y2="146.86"/><line class="cls-5" x1="162.79" y1="132.2" x2="162.79" y2="146.86"/><line class="cls-5" x1="168.91" y1="132.2" x2="168.91" y2="149.65"/><line class="cls-5" x1="175.02" y1="132.2" x2="175.02" y2="146.86"/><line class="cls-5" x1="181.13" y1="132.2" x2="181.13" y2="146.86"/><line class="cls-5" x1="187.25" y1="132.2" x2="187.25" y2="146.86"/><line class="cls-5" x1="193.36" y1="132.2" x2="193.36" y2="146.86"/><line class="cls-5" x1="205.59" y1="132.2" x2="205.59" y2="146.86"/><line class="cls-5" x1="211.7" y1="132.2" x2="211.7" y2="146.86"/><line class="cls-5" x1="217.82" y1="132.2" x2="217.82" y2="146.86"/><line class="cls-5" x1="223.93" y1="132.2" x2="223.93" y2="146.86"/><line class="cls-5" x1="230.05" y1="132.2" x2="230.05" y2="149.65"/><line class="cls-5" x1="236.16" y1="132.2" x2="236.16" y2="146.86"/><line class="cls-5" x1="242.27" y1="132.2" x2="242.27" y2="146.86"/><line class="cls-5" x1="248.39" y1="132.2" x2="248.39" y2="146.86"/><line class="cls-5" x1="266.73" y1="132.2" x2="266.73" y2="146.86"/><line class="cls-5" x1="272.85" y1="132.2" x2="272.85" y2="146.86"/><line class="cls-5" x1="278.96" y1="132.2" x2="278.96" y2="146.86"/><line class="cls-5" x1="285.07" y1="132.2" x2="285.07" y2="146.86"/><line class="cls-5" x1="291.19" y1="132.2" x2="291.19" y2="149.65"/><line class="cls-5" x1="297.3" y1="132.2" x2="297.3" y2="146.86"/><line class="cls-5" x1="303.42" y1="132.2" x2="303.42" y2="146.86"/><line class="cls-5" x1="309.53" y1="132.2" x2="309.53" y2="146.86"/><line class="cls-5" x1="315.64" y1="132.2" x2="315.64" y2="146.86"/><line class="cls-5" x1="327.87" y1="132.2" x2="327.87" y2="146.86"/><line class="cls-5" x1="333.99" y1="132.2" x2="333.99" y2="146.86"/><line class="cls-5" x1="340.1" y1="132.2" x2="340.1" y2="146.86"/><line class="cls-5" x1="346.22" y1="132.2" x2="346.22" y2="146.86"/><line class="cls-5" x1="352.33" y1="132.2" x2="352.33" y2="149.65"/><line class="cls-5" x1="358.44" y1="132.2" x2="358.44" y2="146.86"/><line class="cls-7" x1="364.56" y1="130.35" x2="364.56" y2="146.86"/><line class="cls-5" x1="370.67" y1="132.2" x2="370.67" y2="146.86"/><line class="cls-5" x1="376.79" y1="132.2" x2="376.79" y2="146.86"/><line class="cls-5" x1="389.01" y1="132.2" x2="389.01" y2="146.86"/><line class="cls-5" x1="395.13" y1="132.2" x2="395.13" y2="146.86"/><line class="cls-5" x1="401.24" y1="132.2" x2="401.24" y2="146.86"/><line class="cls-5" x1="407.36" y1="132.2" x2="407.36" y2="146.86"/><line class="cls-5" x1="419.58" y1="132.2" x2="419.58" y2="146.86"/><line class="cls-5" x1="425.7" y1="132.2" x2="425.7" y2="146.86"/><line class="cls-5" x1="431.81" y1="132.2" x2="431.81" y2="146.86"/><line class="cls-5" x1="437.93" y1="132.2" x2="437.93" y2="146.86"/><line class="cls-5" x1="450.16" y1="132.2" x2="450.16" y2="146.86"/><line class="cls-5" x1="456.27" y1="132.2" x2="456.27" y2="146.86"/><line class="cls-5" x1="462.38" y1="132.2" x2="462.38" y2="146.86"/><line class="cls-5" x1="468.5" y1="132.2" x2="468.5" y2="146.86"/><line class="cls-5" x1="474.61" y1="132.2" x2="474.61" y2="149.65"/><line class="cls-5" x1="480.73" y1="132.2" x2="480.73" y2="146.86"/><line class="cls-5" x1="486.84" y1="132.2" x2="486.84" y2="146.86"/><line class="cls-5" x1="492.95" y1="132.2" x2="492.95" y2="146.86"/><line class="cls-5" x1="499.07" y1="132.2" x2="499.07" y2="146.86"/><line class="cls-5" x1="511.33" y1="132.2" x2="511.33" y2="146.86"/><line class="cls-5" x1="517.44" y1="132.2" x2="517.44" y2="146.86"/><line class="cls-5" x1="523.55" y1="132.2" x2="523.55" y2="146.86"/><line class="cls-5" x1="529.67" y1="132.2" x2="529.67" y2="146.86"/><line class="cls-5" x1="535.78" y1="132.2" x2="535.78" y2="149.65"/><line class="cls-5" x1="541.9" y1="132.2" x2="541.9" y2="146.86"/><line class="cls-5" x1="548.01" y1="132.2" x2="548.01" y2="146.86"/><line class="cls-5" x1="560.24" y1="132.2" x2="560.24" y2="146.86"/><line class="cls-5" x1="572.44" y1="132.2" x2="572.44" y2="146.86"/><line class="cls-5" x1="578.55" y1="132.2" x2="578.55" y2="146.86"/><line class="cls-5" x1="584.67" y1="132.2" x2="584.67" y2="146.86"/><line class="cls-5" x1="590.78" y1="132.2" x2="590.78" y2="146.86"/><line class="cls-5" x1="596.89" y1="132.2" x2="596.89" y2="149.65"/><line class="cls-5" x1="603.01" y1="132.2" x2="603.01" y2="146.86"/><line class="cls-5" x1="609.12" y1="132.2" x2="609.12" y2="146.86"/><line class="cls-5" x1="615.24" y1="132.2" x2="615.24" y2="146.86"/><line class="cls-5" x1="621.35" y1="132.2" x2="621.35" y2="146.86"/><line class="cls-5" x1="633.62" y1="132.2" x2="633.62" y2="146.86"/><line class="cls-5" x1="639.73" y1="132.2" x2="639.73" y2="146.86"/><line class="cls-5" x1="645.85" y1="132.2" x2="645.85" y2="146.86"/><line class="cls-5" x1="651.96" y1="132.2" x2="651.96" y2="146.86"/><line class="cls-5" x1="658.08" y1="132.2" x2="658.08" y2="149.65"/><line class="cls-5" x1="664.19" y1="132.2" x2="664.19" y2="146.86"/><line class="cls-5" x1="670.3" y1="132.2" x2="670.3" y2="146.86"/><line class="cls-5" x1="676.42" y1="132.2" x2="676.42" y2="146.86"/><line class="cls-5" x1="682.53" y1="132.2" x2="682.53" y2="146.86"/><line class="cls-5" x1="554.13" y1="132.2" x2="554.13" y2="146.86"/><line class="cls-5" x1="254.5" y1="132.2" x2="254.5" y2="146.86"/><line class="cls-5" x1="413.47" y1="132.2" x2="413.47" y2="149.65"/><rect class="cls-8" x="677.14" y="122.12" width="66.11" height="3.57" rx="0.95"/><path class="cls-9" d="M739.66,212.61,712.16,94.38c-.92-3.86-4.26-6.22-8.24-6.5H670.23l9.49,124" transform="translate(0 -87.5)"/><line class="cls-10" x1="671.52" y1="0.46" x2="680.74" y2="123.81"/><line class="cls-10" x1="674.47" y1="0.46" x2="683.69" y2="123.81"/><line class="cls-10" x1="677.42" y1="0.46" x2="686.64" y2="123.81"/><line class="cls-10" x1="680.37" y1="0.46" x2="689.59" y2="123.81"/><line class="cls-10" x1="683.32" y1="0.46" x2="692.54" y2="123.81"/><line class="cls-10" x1="686.27" y1="0.46" x2="695.49" y2="123.81"/><line class="cls-10" x1="689.22" y1="0.46" x2="698.44" y2="123.81"/><line class="cls-10" x1="692.17" y1="0.46" x2="701.39" y2="123.81"/><line class="cls-10" x1="695.12" y1="0.46" x2="704.34" y2="123.81"/><line class="cls-10" x1="698.07" y1="0.46" x2="707.29" y2="123.81"/><line class="cls-10" x1="701.02" y1="0.46" x2="710.24" y2="123.81"/><line class="cls-10" x1="703.97" y1="0.46" x2="713.2" y2="123.81"/><line class="cls-10" x1="706.93" y1="0.46" x2="716.15" y2="123.81"/><line class="cls-10" x1="710.07" y1="3.07" x2="719.1" y2="123.81"/><line class="cls-10" x1="713.89" y1="14.63" x2="722.05" y2="123.81"/><line class="cls-10" x1="718.2" y1="32.83" x2="725" y2="123.81"/><line class="cls-10" x1="722.67" y1="53.25" x2="727.95" y2="123.81"/><line class="cls-10" x1="726.89" y1="70.22" x2="730.9" y2="123.81"/><line class="cls-10" x1="730.79" y1="82.93" x2="733.85" y2="123.81"/><line class="cls-10" x1="735.28" y1="103.45" x2="736.8" y2="123.81"/><line class="cls-10" x1="679.36" y1="119.49" x2="736.04" y2="119.49"/><line class="cls-10" x1="679.17" y1="116.55" x2="735.85" y2="116.55"/><line class="cls-10" x1="678.98" y1="113.62" x2="735.66" y2="113.62"/><line class="cls-10" x1="678.79" y1="110.69" x2="735.47" y2="110.69"/><line class="cls-10" x1="678.25" y1="107.76" x2="735.28" y2="107.76"/><line class="cls-10" x1="678.06" y1="104.83" x2="735.09" y2="104.83"/><line class="cls-10" x1="677.87" y1="101.89" x2="734.9" y2="101.89"/><line class="cls-10" x1="677.68" y1="98.96" x2="734.71" y2="98.96"/><line class="cls-10" x1="677.08" y1="96.03" x2="733.41" y2="96.03"/><line class="cls-10" x1="676.89" y1="93.1" x2="732.62" y2="93.1"/><line class="cls-10" x1="676.7" y1="90.16" x2="731.48" y2="90.16"/><line class="cls-10" x1="676.51" y1="87.23" x2="731.1" y2="87.23"/><line class="cls-10" x1="676.32" y1="84.3" x2="729.96" y2="84.3"/><line class="cls-10" x1="676.13" y1="81.37" x2="729.2" y2="81.37"/><line class="cls-10" x1="676.09" y1="78.44" x2="728.9" y2="78.44"/><line class="cls-10" x1="675.9" y1="75.5" x2="727.34" y2="75.5"/><line class="cls-10" x1="675.71" y1="72.57" x2="727.07" y2="72.57"/><line class="cls-10" x1="675.52" y1="69.64" x2="726.89" y2="69.64"/><line class="cls-10" x1="675.33" y1="66.71" x2="726.2" y2="66.71"/><line class="cls-10" x1="675.14" y1="63.77" x2="725.31" y2="63.77"/><line class="cls-10" x1="674.95" y1="60.84" x2="724.17" y2="60.84"/><line class="cls-10" x1="674.76" y1="57.91" x2="723.98" y2="57.91"/><line class="cls-10" x1="674.57" y1="54.98" x2="723.79" y2="54.98"/><line class="cls-10" x1="673.72" y1="52.05" x2="723.6" y2="52.05"/><line class="cls-10" x1="673.53" y1="49.11" x2="723.41" y2="49.11"/><line class="cls-10" x1="673.34" y1="46.18" x2="721.13" y2="46.18"/><line class="cls-10" x1="673.15" y1="43.25" x2="718.92" y2="43.25"/><line class="cls-10" x1="672.96" y1="40.32" x2="718.73" y2="40.32"/><line class="cls-10" x1="672.77" y1="37.38" x2="718.54" y2="37.38"/><line class="cls-10" x1="672.58" y1="34.45" x2="718.35" y2="34.45"/><line class="cls-10" x1="672.39" y1="31.52" x2="718.16" y2="31.52"/><line class="cls-10" x1="672.39" y1="28.59" x2="717.97" y2="28.59"/><line class="cls-10" x1="672.16" y1="25.66" x2="716.45" y2="25.66"/><line class="cls-10" x1="671.15" y1="22.72" x2="715.39" y2="22.72"/><line class="cls-10" x1="670.96" y1="19.79" x2="715.39" y2="19.79"/><line class="cls-10" x1="670.77" y1="16.86" x2="714.48" y2="16.86"/><line class="cls-10" x1="670.58" y1="13.93" x2="713.8" y2="13.93"/><line class="cls-10" x1="670.39" y1="10.99" x2="711.92" y2="10.99"/><line class="cls-10" x1="670.2" y1="8.06" x2="711.73" y2="8.06"/><line class="cls-10" x1="670.01" y1="5.13" x2="711.54" y2="5.13"/><path class="cls-11" d="M36.72,169.93s-1.83,12.53-11.45,15-15.55-1-15.55-1-1-1-2.1,1.19c0,0,8.28,4.95,20.43,3.09,11.79-2.81,14-17.09,14-17.09Z" transform="translate(0 -87.5)"/><path class="cls-11" d="M48.79,171.37s9.88,10.25,14.46,16.8A196.47,196.47,0,0,1,73.5,205.58s.85,1.45,2.34-.28l-1-1.64.09-.56S60.54,170,55.49,169.59Z" transform="translate(0 -87.5)"/><path class="cls-12" d="M38.94,152.74s-3.79,6.15-1.54,10.55c0,0-1.81,5.15-2.41,6.09,0,0-.73,1.05,2.62,3.34a15.83,15.83,0,0,0,6.88,2.6s.14.12.28-.33,1-2.24,1-2.24a43,43,0,0,1,3.91,3.76.48.48,0,0,0,.82.17s7.72-5.18,8.06-7a.21.21,0,0,0,0-.17l-8.34-7.92s1.31-5.1.7-7.44Z" transform="translate(0 -87.5)"/><path class="cls-13" d="M37.4,163.29s-1.81,5.15-2.41,6.09c0,0-.73,1.05,2.62,3.34a15.83,15.83,0,0,0,6.88,2.6s.14.12.28-.33,1-2.24,1-2.24Z" transform="translate(0 -87.5)"/><path class="cls-14" d="M47.91,157.17a7.88,7.88,0,0,0,2.24,4.41,20.22,20.22,0,0,0,.7-4.94Z" transform="translate(0 -87.5)"/><path class="cls-15" d="M39.35,134.24s1.83,2,1.87-.27-2.31-6.73-2.31-6.73Z" transform="translate(0 -87.5)"/><path class="cls-11" d="M49.67,132.82s6.28,13.41,11.16,14,7.94-5.34,7.94-5.34-3.37-5.24-1.47-7.1c.73-.54,1.41,2,1.73,3.51,0,0,.22.41.85-.49.45-.65,1.21-1.95,1.7-2.82a7.35,7.35,0,0,0,.51-1.19c.12-.34.35-.69.81-.38.76.53.38,3.33-.44,3.64,0,0,2.31-.68,1,1.73,0,0,3.36.14,1.52,1.75s-3.28,2.23-4.75,2c0,0-3.11,8.84-9.88,7.91s-11.16-8.58-11.16-8.58Z" transform="translate(0 -87.5)"/><path class="cls-16" d="M71.62,137.18a3.87,3.87,0,0,0-.53.37,3.82,3.82,0,0,0-.45.45,1.39,1.39,0,0,0-.27.56,1,1,0,0,0,.11.59h0a1.44,1.44,0,0,0,.27.28,1.48,1.48,0,0,0,.35.19,1.61,1.61,0,0,0,.38.08,1.35,1.35,0,0,0,.4,0l.12,0,0,.12a3.64,3.64,0,0,0-.26.72,1.25,1.25,0,0,0,0,.74.45.45,0,0,0,.25.24,1.14,1.14,0,0,0,.36.1,2.92,2.92,0,0,0,.78,0,2.53,2.53,0,0,1-.78.1,1.29,1.29,0,0,1-.39-.08.57.57,0,0,1-.31-.28,1.32,1.32,0,0,1,0-.81,3.91,3.91,0,0,1,.26-.75l.07.09a1.53,1.53,0,0,1-.43,0,1.6,1.6,0,0,1-.42-.1,1.27,1.27,0,0,1-.38-.2,1.47,1.47,0,0,1-.29-.32h0a1.17,1.17,0,0,1-.11-.33,1,1,0,0,1,0-.34,1.4,1.4,0,0,1,.31-.59,2.54,2.54,0,0,1,.49-.44A3.16,3.16,0,0,1,71.62,137.18Z" transform="translate(0 -87.5)"/><path class="cls-16" d="M70,138.17a2.47,2.47,0,0,1,.51,1.14,1.91,1.91,0,0,1,0,.63,1.48,1.48,0,0,1-.26.57,2.44,2.44,0,0,0,.15-.59,2.32,2.32,0,0,0,0-.59,3,3,0,0,0-.15-.59A4.45,4.45,0,0,0,70,138.17Z" transform="translate(0 -87.5)"/><path class="cls-17" d="M38.91,127.24l.53,8.6s3.2,3.09.25,13l-2.76,4.8s2.27,3.83,14.25,4.36c0,0,1.74-3.62,1.24-10.88a129.88,129.88,0,0,0-2.91-17.35S39.71,127.12,38.91,127.24Z" transform="translate(0 -87.5)"/><path class="cls-18" d="M32.36,119.46s8.38,5.08,11.52.49a28.35,28.35,0,0,1,6.71-7s1.67-5.74-4.7-7.94c-2.41-.77-5.55,1-7.44,2.46s-7.65.23-7.65.23-.21,2.93,1.82,4.52l-2.74,2.29s.66,2.06,5.57,2.91Z" transform="translate(0 -87.5)"/><path class="cls-19" d="M32.36,119.46s5.52,3.32,9.26,2.18c2.66-.82,9.07-9.42,9.07-9.42s-.36-4.09-3.63-4c-1.71-.11-7,4-7,4s-4.08,3.21-9.18-3.44a5.18,5.18,0,0,0,1.78,3.47l-2.74,2.29s.36,1.93,5.57,2.91Z" transform="translate(0 -87.5)"/><path class="cls-11" d="M49.82,110.21s5.92,13.35,4.73,14.12a27.69,27.69,0,0,1-7.23,2.07s-.67,1.93-.14,2.69l.58.38s.12,2.27-.78,2-3.82-2.81-3.87-3.35c0,0,1.68-.53,1.58-1.69a9.41,9.41,0,0,1-1.58-4.88,4.21,4.21,0,0,1-1.74.58A2.66,2.66,0,0,1,38.91,119c.16-2.45,2.12-1.87,2.12-1.87s1.23.44,1.2.79a14.8,14.8,0,0,0-.32-4.31s1.79-.9,2-1.81,2.9-1.57,3.56-1.58Z" transform="translate(0 -87.5)"/><path class="cls-20" d="M50.69,112.22a4.67,4.67,0,0,0-1.34-3.1c-1.4-1.54-3.75-.31-5.28,2.21A5.59,5.59,0,0,1,40.88,114a9.42,9.42,0,0,1-2.89.44c-1.37,0-2.92-.1-3.55-.62a6.23,6.23,0,0,0,4.24.93c2.26-.33,4.27-1.32,5.2-2.77a3.23,3.23,0,0,0,.22-.41c.13-.26.92-1.1,5.62-1.3Z" transform="translate(0 -87.5)"/><ellipse class="cls-21" cx="46.61" cy="116.09" rx="0.69" ry="1.14" transform="translate(-27.1 -72.49) rotate(-14.23)"/><ellipse class="cls-21" cx="50.55" cy="115.09" rx="0.64" ry="1.14" transform="translate(-26.74 -71.55) rotate(-14.23)"/><path class="cls-22" d="M46.26,112.28a2.8,2.8,0,0,0-1.64,1.07s.46-1.33,1.5-1.3C46.41,112.12,46.26,112.28,46.26,112.28Z" transform="translate(0 -87.5)"/><path class="cls-22" d="M48.7,111.75a2.41,2.41,0,0,1,1.76.14s-1-.88-1.77-.38C48.51,111.69,48.7,111.75,48.7,111.75Z" transform="translate(0 -87.5)"/><path class="cls-23" d="M49.72,116.75a.88.88,0,0,0,.37.41.42.42,0,0,0,.25,0,2,2,0,0,0,.27-.08,1.46,1.46,0,0,1,.3-.07.64.64,0,0,1,.36,0,.51.51,0,0,1,.28.26,1,1,0,0,1,.11.31,1.54,1.54,0,0,1,0,.64.92.92,0,0,1-.34.58l-.15.08L51,119l-.16,0h-.15a1.54,1.54,0,0,1-.31,0l-.28-.09h.29a1.38,1.38,0,0,0,.29,0,.8.8,0,0,0,.49-.19.67.67,0,0,0,.22-.44,1.64,1.64,0,0,0,0-.54.55.55,0,0,0-.22-.39,1.13,1.13,0,0,0-.51,0l-.14,0-.16,0a.62.62,0,0,1-.33-.08A.78.78,0,0,1,49.72,116.75Z" transform="translate(0 -87.5)"/><path class="cls-23" d="M39.84,119.17a1.33,1.33,0,0,1,.29-.55,1.22,1.22,0,0,1,.54-.37,1,1,0,0,1,.17,0,1,1,0,0,1,.17,0l.17,0a.44.44,0,0,1,.15,0,1.06,1.06,0,0,1,.27.18,1.51,1.51,0,0,1,.21.23,2.36,2.36,0,0,1-.28-.12l-.14,0-.13,0a1,1,0,0,0-.51,0,1.47,1.47,0,0,0-.47.26A3.85,3.85,0,0,0,39.84,119.17Z" transform="translate(0 -87.5)"/><path class="cls-24" d="M45.05,119.17s6.7,1.67,7,1.57c0,0-1.57,4.34-4.17,3.69S44.88,119.61,45.05,119.17Z" transform="translate(0 -87.5)"/><path class="cls-25" d="M45.47,121.83s.65,2.19,2.41,2.6a1.81,1.81,0,0,0,1.5-.17S49,121.64,45.47,121.83Z" transform="translate(0 -87.5)"/><path class="cls-11" d="M39.39,128.2a30.36,30.36,0,0,1,1.74,4.8s-9.36,3.29-10.94,9.6.07,8.58,3.82,13.08c0,0,2-4.57,3.83-3.66l-.91,1.58.29.36-.68.68,2.46.89s1.16.36.44,1.15c-.54.59-1,.57-1.18.52l-.33-.07-2.13-.33.67,1a2.06,2.06,0,0,1,.25.57c.13.51.07,1.28-1.53,1.14a3.48,3.48,0,0,1,.64.85.61.61,0,0,1-.44.87,3.79,3.79,0,0,1-1.62-.11,11.33,11.33,0,0,1-1.26-.77,1.29,1.29,0,0,1-.54-1.44c.12-.4.45-.75,1.22-.77,0,0-.46-1-.32-1.33,0,0-9.58-6-6.54-14.94C29.28,133.17,39.39,128.2,39.39,128.2Z" transform="translate(0 -87.5)"/><path class="cls-16" d="M33.43,158.22a7.21,7.21,0,0,1,.92.59,8.09,8.09,0,0,1,.84.71,7.21,7.21,0,0,1-.92-.59A8.09,8.09,0,0,1,33.43,158.22Z" transform="translate(0 -87.5)"/><path class="cls-26" d="M9.84,184s-2-2.84-2.7-3-3.35,1.22-3.56,4a11.48,11.48,0,0,0-3.49,10s2.81,1.19,3.58.72a25.76,25.76,0,0,1,.17-4s3.09-4.09,4.09-4l1.41.25s.37.21.5-.28.24-1.33.24-1.33l-2.46-1.16S8.41,183.34,9.84,184Z" transform="translate(0 -87.5)"/><path class="cls-26" d="M73.38,205.35s-1,.8,0,2.24A38,38,0,0,1,76,212.08c.1.43,3.51-1.29,4.38-3.65,0,0,5.69-2.21,7.66-7.26A3.18,3.18,0,0,0,85,199.52c-.84,0-2.24,3-2.66,3s-3.13,1.13-4.71,1l-.17-1.69s-.57-1.26-1.9-.14-.2,3.42.3,3.57S73.58,206.79,73.38,205.35Z" transform="translate(0 -87.5)"/><circle class="cls-27" cx="364.32" cy="118.04" r="10.68"/><path class="cls-28" d="M364.32,216.57a11,11,0,1,1,7.8-3.23A11,11,0,0,1,364.32,216.57Zm0-21.37a10.35,10.35,0,1,0,10.34,10.35A10.36,10.36,0,0,0,364.32,195.2Z" transform="translate(0 -87.5)"/><path class="cls-28" d="M360.69,195.68l2.45,1.5,4.91-.34v-1.16A10.72,10.72,0,0,0,360.69,195.68Z" transform="translate(0 -87.5)"/><path class="cls-28" d="M361.92,200.83a16.1,16.1,0,0,0-3.65,1.84l-.34.58a16.9,16.9,0,0,0,.37,3.88l.45.61,3.85.75.51-.44,1.74-3.37.1-.69a31.5,31.5,0,0,0-2.49-2.76Z" transform="translate(0 -87.5)"/><path class="cls-28" d="M357,197.93l-1.15,3.27-.41.61-1.4,2.12A7.82,7.82,0,0,1,357,197.93Z" transform="translate(0 -87.5)"/><path class="cls-28" d="M369.62,204.13s1.84,2.86,1.91,3.17c.07,0,.64.2.64.2s2.05-.92,2.08-1.19c0,.21,0-3.34-.78-4.87a7.67,7.67,0,0,0-2.25-1.13l-.58.35-1,2.82Z" transform="translate(0 -87.5)"/><path class="cls-28" d="M354.15,208.08s1.7,1.95,2.21,2c0,0,.51.61.51.61l1.78,2.7-.86.51S353.77,210.84,354.15,208.08Z" transform="translate(0 -87.5)"/><path class="cls-28" d="M364.85,212.34l-1.4,1.91-.1.65,2.15.92a6.17,6.17,0,0,0,4.7-1.74,13.16,13.16,0,0,0-.41-2.08l-.58-.37a16,16,0,0,1-3.78.37Z" transform="translate(0 -87.5)"/><rect class="cls-28" x="354.95" y="201.81" width="3.54" height="0.69" transform="matrix(0.87, 0.5, -0.5, 0.87, 148.87, -238.78)"/><rect class="cls-28" x="360.59" y="198.78" width="4.47" height="0.69" transform="translate(663.63 -172.64) rotate(107.86)"/><rect class="cls-28" x="366.44" y="198.24" width="5.46" height="0.69" transform="translate(267.99 -295.72) rotate(47.76)"/><rect class="cls-28" x="364.47" y="203.73" width="5.46" height="0.69" transform="translate(-17.14 -53.02) rotate(-5.25)"/><rect class="cls-28" x="361.19" y="209.86" width="5.46" height="0.69" transform="translate(363.84 542.98) rotate(-120)"/><rect class="cls-28" x="355.2" y="207.99" width="5.46" height="0.69" transform="translate(-8.75 313.35) rotate(-57.9)"/><rect class="cls-28" x="367.94" y="209.25" width="5.46" height="0.69" transform="translate(11.05 350.13) rotate(-61.87)"/><rect class="cls-28" x="373.04" y="201.08" width="1.27" height="0.69" transform="translate(763 -55.27) rotate(128.19)"/><rect class="cls-28" x="373.75" y="206.12" width="1.27" height="0.69" transform="translate(128.06 -230.49) rotate(25.94)"/><rect class="cls-28" x="357.88" y="213.73" width="5.64" height="0.69" transform="translate(44.46 -148.98) rotate(10.38)"/><rect class="cls-29" x="76.18" y="125.25" width="1.86" height="27.87"/><rect class="cls-29" x="687.51" y="125.25" width="1.86" height="27.87"/></g></g></g></svg>