<svg xmlns="http://www.w3.org/2000/svg" xmlns:xlink="http://www.w3.org/1999/xlink" viewBox="0 0 518.83 133.21"><defs><style>.cls-1,.cls-10,.cls-5,.cls-7,.cls-9{fill:none;}.cls-2{clip-path:url(#clip-path);}.cls-3{fill:#baff78;}.cls-4{fill:#83ff00;}.cls-5{stroke:#000;stroke-width:0.5px;}.cls-10,.cls-5,.cls-7,.cls-9{stroke-miterlimit:10;}.cls-6{font-size:9.92px;font-family:LarkeNeue-Regular, Larke Neue;}.cls-7{stroke:#f30;}.cls-8{fill:#dbdbdb;}.cls-10,.cls-9{stroke:#dbdbdb;}.cls-9{stroke-width:0.75px;}.cls-10{stroke-width:0.25px;}.cls-11{fill:#f2d5c7;}.cls-12{fill:#6b99bd;}.cls-13,.cls-14{fill:#427b99;}.cls-13{opacity:0.5;}.cls-15{fill:#428e80;}.cls-16{fill:#b55930;}.cls-17{fill:#e0e0e0;}.cls-18{fill:#c9934b;}.cls-19{fill:#896029;}.cls-20{fill:#513513;}.cls-21{fill:#3f3f3f;}.cls-22{fill:#cfaa13;}.cls-23{fill:#c36a3e;}.cls-24{fill:#8e1d21;}.cls-25{fill:#d75f5e;}.cls-26{fill:#3a3a3a;}.cls-27{fill:#fff;}.cls-28{fill:#444;}.cls-29{fill:#f30;}</style><clipPath id="clip-path" transform="translate(0 -42.81)"><rect class="cls-1" x="0.65" width="399.5" height="226.99"/></clipPath></defs><title>zoom2</title><g id="Capa_2" data-name="Capa 2"><g id="Layer_1" data-name="Layer 1"><g class="cls-2"><rect class="cls-3" x="45.38" y="93.4" width="448.88" height="38.81" rx="1.02"/><path class="cls-4" d="M493.23,137.21l0,0,0,36.79L46.38,174l0-36.79H493.23m0-2H46.4a2,2,0,0,0-2,2V174a2,2,0,0,0,2,2H493.23a2,2,0,0,0,2-2V137.23a2,2,0,0,0-2-2Z" transform="translate(0 -42.81)"/><line class="cls-5" x1="53.88" y1="92.4" x2="53.88" y2="106.46"/><line class="cls-5" x1="96.56" y1="92.4" x2="96.56" y2="106.46"/><line class="cls-5" x1="139.24" y1="92.4" x2="139.24" y2="106.46"/><line class="cls-5" x1="181.92" y1="92.4" x2="181.92" y2="106.46"/><line class="cls-5" x1="224.6" y1="92.4" x2="224.6" y2="106.46"/><line class="cls-5" x1="267.28" y1="92.4" x2="267.28" y2="106.46"/><line class="cls-5" x1="309.96" y1="92.4" x2="309.96" y2="106.46"/><line class="cls-5" x1="352.64" y1="92.4" x2="352.64" y2="106.46"/><line class="cls-5" x1="395.32" y1="92.4" x2="395.32" y2="106.46"/><line class="cls-5" x1="438" y1="92.4" x2="438" y2="106.46"/><line class="cls-5" x1="480.68" y1="92.4" x2="480.68" y2="106.46"/><text class="cls-6" transform="translate(90.55 116.79)">0,1</text><text class="cls-6" transform="translate(132.34 116.79)">0,2</text><text class="cls-6" transform="translate(174.83 116.79)">0,3</text><text class="cls-6" transform="translate(217.33 116.79)">0,4</text><text class="cls-6" transform="translate(260.09 116.79)">0,5</text><text class="cls-6" transform="translate(302.67 116.79)">0,6</text><text class="cls-6" transform="translate(345.51 116.79)">0,7</text><text class="cls-6" transform="translate(388.06 116.79)">0,8</text><text class="cls-6" transform="translate(430.7 116.79)">0,9</text><text class="cls-6" transform="translate(478.94 116.79)">1</text><text class="cls-6" transform="translate(50.76 116.79)">0</text><line class="cls-5" x1="58.15" y1="92.4" x2="58.15" y2="102.63"/><line class="cls-5" x1="62.42" y1="92.4" x2="62.42" y2="102.63"/><line class="cls-5" x1="66.69" y1="92.4" x2="66.69" y2="102.63"/><line class="cls-5" x1="70.96" y1="92.4" x2="70.96" y2="102.63"/><line class="cls-5" x1="75.22" y1="92.4" x2="75.22" y2="104.58"/><line class="cls-5" x1="79.49" y1="92.4" x2="79.49" y2="102.63"/><line class="cls-5" x1="83.76" y1="92.4" x2="83.76" y2="102.63"/><line class="cls-5" x1="88.03" y1="92.4" x2="88.03" y2="102.63"/><line class="cls-5" x1="92.3" y1="92.4" x2="92.3" y2="102.63"/><line class="cls-5" x1="100.83" y1="92.4" x2="100.83" y2="102.63"/><line class="cls-5" x1="105.1" y1="92.4" x2="105.1" y2="102.63"/><line class="cls-5" x1="109.37" y1="92.4" x2="109.37" y2="102.63"/><line class="cls-5" x1="113.64" y1="92.4" x2="113.64" y2="102.63"/><line class="cls-5" x1="117.9" y1="92.4" x2="117.9" y2="104.58"/><line class="cls-5" x1="122.17" y1="92.4" x2="122.17" y2="102.63"/><line class="cls-5" x1="126.44" y1="92.4" x2="126.44" y2="102.63"/><line class="cls-5" x1="130.71" y1="92.4" x2="130.71" y2="102.63"/><line class="cls-5" x1="134.98" y1="92.4" x2="134.98" y2="102.63"/><line class="cls-5" x1="143.51" y1="92.4" x2="143.51" y2="102.63"/><line class="cls-5" x1="147.78" y1="92.4" x2="147.78" y2="102.63"/><line class="cls-5" x1="152.05" y1="92.4" x2="152.05" y2="102.63"/><line class="cls-5" x1="156.32" y1="92.4" x2="156.32" y2="102.63"/><line class="cls-5" x1="160.58" y1="92.4" x2="160.58" y2="104.58"/><line class="cls-5" x1="164.85" y1="92.4" x2="164.85" y2="102.63"/><line class="cls-5" x1="169.12" y1="92.4" x2="169.12" y2="102.63"/><line class="cls-5" x1="173.39" y1="92.4" x2="173.39" y2="102.63"/><line class="cls-5" x1="177.66" y1="92.4" x2="177.66" y2="102.63"/><line class="cls-5" x1="186.19" y1="92.4" x2="186.19" y2="102.63"/><line class="cls-5" x1="190.46" y1="92.4" x2="190.46" y2="102.63"/><line class="cls-5" x1="194.73" y1="92.4" x2="194.73" y2="102.63"/><line class="cls-5" x1="199" y1="92.4" x2="199" y2="102.63"/><line class="cls-5" x1="203.26" y1="92.4" x2="203.26" y2="104.58"/><line class="cls-5" x1="207.53" y1="92.4" x2="207.53" y2="102.63"/><line class="cls-5" x1="211.8" y1="92.4" x2="211.8" y2="102.63"/><line class="cls-5" x1="216.07" y1="92.4" x2="216.07" y2="102.63"/><line class="cls-5" x1="220.34" y1="92.4" x2="220.34" y2="102.63"/><line class="cls-5" x1="228.87" y1="92.4" x2="228.87" y2="102.63"/><line class="cls-5" x1="233.14" y1="92.4" x2="233.14" y2="102.63"/><line class="cls-5" x1="237.41" y1="92.4" x2="237.41" y2="102.63"/><line class="cls-5" x1="241.68" y1="92.4" x2="241.68" y2="102.63"/><line class="cls-5" x1="245.94" y1="92.4" x2="245.94" y2="104.58"/><line class="cls-5" x1="250.21" y1="92.4" x2="250.21" y2="102.63"/><line class="cls-5" x1="254.48" y1="92.4" x2="254.48" y2="102.63"/><line class="cls-5" x1="258.75" y1="92.4" x2="258.75" y2="102.63"/><line class="cls-5" x1="263.02" y1="92.4" x2="263.02" y2="102.63"/><line class="cls-5" x1="271.55" y1="92.4" x2="271.55" y2="102.63"/><line class="cls-5" x1="275.82" y1="92.4" x2="275.82" y2="102.63"/><line class="cls-5" x1="280.09" y1="92.4" x2="280.09" y2="102.63"/><line class="cls-5" x1="284.36" y1="92.4" x2="284.36" y2="102.63"/><line class="cls-5" x1="288.62" y1="92.4" x2="288.62" y2="104.58"/><line class="cls-5" x1="292.89" y1="92.4" x2="292.89" y2="102.63"/><line class="cls-5" x1="297.16" y1="92.4" x2="297.16" y2="102.63"/><line class="cls-5" x1="301.43" y1="92.4" x2="301.43" y2="102.63"/><line class="cls-5" x1="305.7" y1="92.4" x2="305.7" y2="102.63"/><line class="cls-5" x1="314.23" y1="92.4" x2="314.23" y2="102.63"/><line class="cls-5" x1="318.5" y1="92.4" x2="318.5" y2="102.63"/><line class="cls-5" x1="322.77" y1="92.4" x2="322.77" y2="102.63"/><line class="cls-5" x1="327.04" y1="92.4" x2="327.04" y2="102.63"/><line class="cls-5" x1="331.3" y1="92.4" x2="331.3" y2="104.58"/><line class="cls-5" x1="335.57" y1="92.4" x2="335.57" y2="102.63"/><line class="cls-5" x1="339.84" y1="92.4" x2="339.84" y2="102.63"/><line class="cls-5" x1="344.11" y1="92.4" x2="344.11" y2="102.63"/><line class="cls-5" x1="348.38" y1="92.4" x2="348.38" y2="102.63"/><line class="cls-5" x1="356.93" y1="92.4" x2="356.93" y2="102.63"/><line class="cls-5" x1="361.2" y1="92.4" x2="361.2" y2="102.63"/><line class="cls-5" x1="365.47" y1="92.4" x2="365.47" y2="102.63"/><line class="cls-5" x1="369.74" y1="92.4" x2="369.74" y2="102.63"/><line class="cls-5" x1="374" y1="92.4" x2="374" y2="104.58"/><line class="cls-5" x1="378.27" y1="92.4" x2="378.27" y2="102.63"/><line class="cls-5" x1="382.54" y1="92.4" x2="382.54" y2="102.63"/><line class="cls-7" x1="386.81" y1="90.79" x2="386.81" y2="102.63"/><line class="cls-5" x1="391.08" y1="92.4" x2="391.08" y2="102.63"/><line class="cls-5" x1="399.59" y1="92.4" x2="399.59" y2="102.63"/><line class="cls-5" x1="403.86" y1="92.4" x2="403.86" y2="102.63"/><line class="cls-5" x1="408.13" y1="92.4" x2="408.13" y2="102.63"/><line class="cls-5" x1="412.4" y1="92.4" x2="412.4" y2="102.63"/><line class="cls-5" x1="416.66" y1="92.4" x2="416.66" y2="104.58"/><line class="cls-5" x1="420.93" y1="92.4" x2="420.93" y2="102.63"/><line class="cls-5" x1="425.2" y1="92.4" x2="425.2" y2="102.63"/><line class="cls-5" x1="429.47" y1="92.4" x2="429.47" y2="102.63"/><line class="cls-5" x1="433.74" y1="92.4" x2="433.74" y2="102.63"/><line class="cls-5" x1="442.3" y1="92.4" x2="442.3" y2="102.63"/><line class="cls-5" x1="446.57" y1="92.4" x2="446.57" y2="102.63"/><line class="cls-5" x1="450.83" y1="92.4" x2="450.83" y2="102.63"/><line class="cls-5" x1="455.1" y1="92.4" x2="455.1" y2="102.63"/><line class="cls-5" x1="459.37" y1="92.4" x2="459.37" y2="104.58"/><line class="cls-5" x1="463.64" y1="92.4" x2="463.64" y2="102.63"/><line class="cls-5" x1="467.91" y1="92.4" x2="467.91" y2="102.63"/><line class="cls-5" x1="472.17" y1="92.4" x2="472.17" y2="102.63"/><line class="cls-5" x1="476.44" y1="92.4" x2="476.44" y2="102.63"/><rect class="cls-8" x="472.68" y="85.36" width="46.15" height="2.49" rx="0.95"/><path class="cls-9" d="M516.32,130.25,497.13,47.72a6.07,6.07,0,0,0-5.76-4.53H467.85l6.63,86.55" transform="translate(0 -42.81)"/><line class="cls-10" x1="468.75" y1="0.43" x2="475.19" y2="86.54"/><line class="cls-10" x1="470.81" y1="0.43" x2="477.25" y2="86.54"/><line class="cls-10" x1="472.87" y1="0.43" x2="479.31" y2="86.54"/><line class="cls-10" x1="474.93" y1="0.43" x2="481.37" y2="86.54"/><line class="cls-10" x1="476.99" y1="0.43" x2="483.43" y2="86.54"/><line class="cls-10" x1="479.05" y1="0.43" x2="485.49" y2="86.54"/><line class="cls-10" x1="481.11" y1="0.43" x2="487.55" y2="86.54"/><line class="cls-10" x1="483.17" y1="0.43" x2="489.61" y2="86.54"/><line class="cls-10" x1="485.23" y1="0.43" x2="491.67" y2="86.54"/><line class="cls-10" x1="487.29" y1="0.43" x2="493.73" y2="86.54"/><line class="cls-10" x1="489.35" y1="0.43" x2="495.79" y2="86.54"/><line class="cls-10" x1="491.41" y1="0.43" x2="497.85" y2="86.54"/><line class="cls-10" x1="493.47" y1="0.43" x2="499.91" y2="86.54"/><line class="cls-10" x1="495.67" y1="2.25" x2="501.97" y2="86.54"/><line class="cls-10" x1="498.33" y1="10.33" x2="504.03" y2="86.54"/><line class="cls-10" x1="501.34" y1="23.03" x2="506.09" y2="86.54"/><line class="cls-10" x1="504.46" y1="37.28" x2="508.15" y2="86.54"/><line class="cls-10" x1="507.41" y1="49.13" x2="510.21" y2="86.54"/><line class="cls-10" x1="510.13" y1="58" x2="512.27" y2="86.54"/><line class="cls-10" x1="513.26" y1="72.32" x2="514.33" y2="86.54"/><line class="cls-10" x1="474.23" y1="83.52" x2="513.79" y2="83.52"/><line class="cls-10" x1="474.1" y1="81.47" x2="513.66" y2="81.47"/><line class="cls-10" x1="473.97" y1="79.43" x2="513.53" y2="79.43"/><line class="cls-10" x1="473.83" y1="77.38" x2="513.4" y2="77.38"/><line class="cls-10" x1="473.45" y1="75.33" x2="513.26" y2="75.33"/><line class="cls-10" x1="473.32" y1="73.29" x2="513.13" y2="73.29"/><line class="cls-10" x1="473.19" y1="71.24" x2="513" y2="71.24"/><line class="cls-10" x1="473.06" y1="69.19" x2="512.87" y2="69.19"/><line class="cls-10" x1="472.64" y1="67.15" x2="511.96" y2="67.15"/><line class="cls-10" x1="472.5" y1="65.1" x2="511.41" y2="65.1"/><line class="cls-10" x1="472.37" y1="63.05" x2="510.61" y2="63.05"/><line class="cls-10" x1="472.24" y1="61.01" x2="510.34" y2="61.01"/><line class="cls-10" x1="472.1" y1="58.96" x2="509.55" y2="58.96"/><line class="cls-10" x1="471.97" y1="56.91" x2="509.02" y2="56.91"/><line class="cls-10" x1="471.95" y1="54.87" x2="508.81" y2="54.87"/><line class="cls-10" x1="471.82" y1="52.82" x2="507.72" y2="52.82"/><line class="cls-10" x1="471.68" y1="50.77" x2="507.53" y2="50.77"/><line class="cls-10" x1="471.55" y1="48.72" x2="507.41" y2="48.72"/><line class="cls-10" x1="471.42" y1="46.68" x2="506.92" y2="46.68"/><line class="cls-10" x1="471.28" y1="44.63" x2="506.31" y2="44.63"/><line class="cls-10" x1="471.15" y1="42.58" x2="505.51" y2="42.58"/><line class="cls-10" x1="471.02" y1="40.54" x2="505.37" y2="40.54"/><line class="cls-10" x1="470.89" y1="38.49" x2="505.24" y2="38.49"/><line class="cls-10" x1="470.29" y1="36.44" x2="505.11" y2="36.44"/><line class="cls-10" x1="470.16" y1="34.4" x2="504.98" y2="34.4"/><line class="cls-10" x1="470.02" y1="32.35" x2="503.38" y2="32.35"/><line class="cls-10" x1="469.89" y1="30.3" x2="501.84" y2="30.3"/><line class="cls-10" x1="469.76" y1="28.26" x2="501.71" y2="28.26"/><line class="cls-10" x1="469.63" y1="26.21" x2="501.58" y2="26.21"/><line class="cls-10" x1="469.49" y1="24.16" x2="501.44" y2="24.16"/><line class="cls-10" x1="469.36" y1="22.12" x2="501.31" y2="22.12"/><line class="cls-10" x1="469.36" y1="20.07" x2="501.18" y2="20.07"/><line class="cls-10" x1="469.2" y1="18.02" x2="500.12" y2="18.02"/><line class="cls-10" x1="468.5" y1="15.97" x2="499.38" y2="15.97"/><line class="cls-10" x1="468.37" y1="13.93" x2="499.38" y2="13.93"/><line class="cls-10" x1="468.23" y1="11.88" x2="498.75" y2="11.88"/><line class="cls-10" x1="468.1" y1="9.83" x2="498.27" y2="9.83"/><line class="cls-10" x1="467.97" y1="7.79" x2="496.95" y2="7.79"/><line class="cls-10" x1="467.83" y1="5.74" x2="496.82" y2="5.74"/><line class="cls-10" x1="467.7" y1="3.69" x2="496.69" y2="3.69"/><path class="cls-11" d="M25.63,100.46s-1.27,8.75-8,10.46-10.85-.71-10.85-.71-.69-.66-1.47.83a22.9,22.9,0,0,0,14.26,2.16c8.23-2,9.78-11.93,9.78-11.93Z" transform="translate(0 -42.81)"/><path class="cls-11" d="M34.06,101.46a135,135,0,0,1,10.1,11.73,138.56,138.56,0,0,1,7.15,12.16s.59,1,1.63-.2L52.22,124l.07-.4s-10-23.13-13.56-23.39Z" transform="translate(0 -42.81)"/><path class="cls-12" d="M27.18,88.46s-2.64,4.3-1.08,7.37a42.6,42.6,0,0,1-1.68,4.24s-.5.74,1.83,2.34a11.12,11.12,0,0,0,4.8,1.81s.1.09.2-.22.69-1.57.69-1.57a28.87,28.87,0,0,1,2.72,2.63.34.34,0,0,0,.58.11s5.38-3.61,5.62-4.89a.13.13,0,0,0,0-.12L35,94.64s.91-3.57.49-5.2Z" transform="translate(0 -42.81)"/><path class="cls-13" d="M26.1,95.83a42.6,42.6,0,0,1-1.68,4.24s-.5.74,1.83,2.34a11.12,11.12,0,0,0,4.8,1.81s.1.09.2-.22.69-1.57.69-1.57Z" transform="translate(0 -42.81)"/><path class="cls-14" d="M33.45,91.55A5.54,5.54,0,0,0,35,94.64a13.74,13.74,0,0,0,.48-3.46Z" transform="translate(0 -42.81)"/><path class="cls-15" d="M27.47,75.55s1.27,1.39,1.31-.19-1.62-4.7-1.62-4.7Z" transform="translate(0 -42.81)"/><path class="cls-11" d="M34.67,74.56s4.39,9.36,7.79,9.78S48,80.61,48,80.61s-2.35-3.66-1-5c.51-.37,1,1.38,1.21,2.45,0,0,.15.29.59-.34.32-.45.84-1.36,1.19-2a4.05,4.05,0,0,0,.35-.83c.08-.23.25-.48.57-.26.53.37.26,2.32-.31,2.54,0,0,1.61-.48.7,1.21,0,0,2.34.09,1.06,1.21s-2.29,1.56-3.32,1.4c0,0-2.17,6.18-6.89,5.52s-7.79-6-7.79-6Z" transform="translate(0 -42.81)"/><path class="cls-16" d="M50,77.6a2.78,2.78,0,0,0-.37.26,2.27,2.27,0,0,0-.31.31,1,1,0,0,0-.19.39.5.5,0,0,0,0,.21.68.68,0,0,0,.07.2h0a.69.69,0,0,0,.19.19.7.7,0,0,0,.24.13,1.31,1.31,0,0,0,.27.06.81.81,0,0,0,.27,0h.09l0,.08a3,3,0,0,0-.18.5.92.92,0,0,0,0,.52.35.35,0,0,0,.17.17,1.1,1.1,0,0,0,.26.06,2,2,0,0,0,.54,0,2,2,0,0,1-.54.06.87.87,0,0,1-.28,0,.37.37,0,0,1-.21-.2.89.89,0,0,1,0-.56,2.47,2.47,0,0,1,.18-.52l0,.06a1.51,1.51,0,0,1-.3,0,1,1,0,0,1-.29-.07.87.87,0,0,1-.27-.14,1,1,0,0,1-.2-.22h0a2.09,2.09,0,0,1-.08-.23.65.65,0,0,1,0-.24.94.94,0,0,1,.21-.41,2,2,0,0,1,.34-.31A2.65,2.65,0,0,1,50,77.6Z" transform="translate(0 -42.81)"/><path class="cls-16" d="M48.87,78.29a1.53,1.53,0,0,1,.35.79,1.14,1.14,0,0,1,0,.45,1.07,1.07,0,0,1-.18.39,1.91,1.91,0,0,0,.11-.41,1.89,1.89,0,0,0,0-.41,2.73,2.73,0,0,0-.1-.41C49,78.56,48.93,78.42,48.87,78.29Z" transform="translate(0 -42.81)"/><path class="cls-17" d="M27.16,70.66l.37,6s2.23,2.15.18,9l-1.93,3.35s1.58,2.68,9.95,3c0,0,1.21-2.52.86-7.59a90.19,90.19,0,0,0-2-12.11S27.72,70.58,27.16,70.66Z" transform="translate(0 -42.81)"/><path class="cls-18" d="M22.59,65.23s5.85,3.55,8,.34a19.8,19.8,0,0,1,4.69-4.88A4.53,4.53,0,0,0,32,55.15c-1.68-.54-3.87.7-5.19,1.72S21.5,57,21.5,57a4,4,0,0,0,1.27,3.15l-1.91,1.6s.46,1.44,3.89,2Z" transform="translate(0 -42.81)"/><path class="cls-19" d="M22.59,65.23s3.85,2.32,6.46,1.52c1.86-.57,6.34-6.58,6.34-6.58s-.26-2.85-2.54-2.77c-1.19-.08-4.92,2.76-4.92,2.76s-2.84,2.24-6.4-2.4a3.6,3.6,0,0,0,1.24,2.42l-1.91,1.6s.25,1.35,3.89,2Z" transform="translate(0 -42.81)"/><path class="cls-11" d="M34.78,58.77s4.13,9.32,3.3,9.86a18.88,18.88,0,0,1-5,1.44s-.47,1.35-.1,1.88l.41.27s.08,1.58-.55,1.41a7.88,7.88,0,0,1-2.7-2.34s1.18-.37,1.1-1.18a6.61,6.61,0,0,1-1.1-3.4,3,3,0,0,1-1.21.4,1.86,1.86,0,0,1-1.72-2.2c.12-1.71,1.48-1.3,1.48-1.3s.86.3.84.55a10.77,10.77,0,0,0-.22-3s1.25-.62,1.37-1.26,2-1.09,2.48-1.1Z" transform="translate(0 -42.81)"/><path class="cls-20" d="M35.39,60.17A3.3,3.3,0,0,0,34.45,58c-1-1.07-2.62-.21-3.69,1.54a3.82,3.82,0,0,1-2.22,1.84,6.32,6.32,0,0,1-2,.32A4.77,4.77,0,0,1,24,61.27a4.33,4.33,0,0,0,3,.65A5.19,5.19,0,0,0,30.63,60a2.69,2.69,0,0,0,.16-.29c.09-.18.63-.77,3.91-.91Z" transform="translate(0 -42.81)"/><ellipse class="cls-21" cx="32.54" cy="62.88" rx="0.48" ry="0.79" transform="translate(-14.46 -32.88) rotate(-14.23)"/><ellipse class="cls-21" cx="35.29" cy="62.18" rx="0.45" ry="0.79" transform="translate(-14.2 -32.23) rotate(-14.23)"/><path class="cls-22" d="M32.29,60.22a2,2,0,0,0-1.14.75s.32-.94,1.05-.91C32.39,60.11,32.29,60.22,32.29,60.22Z" transform="translate(0 -42.81)"/><path class="cls-22" d="M34,59.85a1.67,1.67,0,0,1,1.22.09s-.69-.61-1.23-.26C33.86,59.81,34,59.85,34,59.85Z" transform="translate(0 -42.81)"/><path class="cls-23" d="M34.71,63.34a.51.51,0,0,0,.26.28.2.2,0,0,0,.17,0l.19-.05.21-.06a.55.55,0,0,1,.25,0,.34.34,0,0,1,.19.18.49.49,0,0,1,.08.22,1.35,1.35,0,0,1,0,.45.67.67,0,0,1-.24.4l-.11.06-.11,0-.11,0H35.4a1.52,1.52,0,0,1-.21,0l-.2-.07.21,0h.2a.61.61,0,0,0,.34-.13.46.46,0,0,0,.15-.31,1,1,0,0,0,0-.38c0-.12-.07-.24-.15-.27a.62.62,0,0,0-.35,0l-.11,0h-.11a.37.37,0,0,1-.23,0A.54.54,0,0,1,34.71,63.34Z" transform="translate(0 -42.81)"/><path class="cls-23" d="M27.81,65a1,1,0,0,1,.2-.39.82.82,0,0,1,.38-.25.53.53,0,0,1,.12,0h.12l.11,0,.11,0a.88.88,0,0,1,.19.12,1.15,1.15,0,0,1,.14.17L29,64.63l-.09,0-.1,0a.59.59,0,0,0-.35,0,.87.87,0,0,0-.33.17A2.7,2.7,0,0,0,27.81,65Z" transform="translate(0 -42.81)"/><path class="cls-24" d="M31.45,65s4.68,1.16,4.88,1.09c0,0-1.09,3-2.91,2.58S31.33,65.34,31.45,65Z" transform="translate(0 -42.81)"/><path class="cls-25" d="M31.74,66.89s.46,1.53,1.68,1.81a1.3,1.3,0,0,0,1-.12S34.22,66.75,31.74,66.89Z" transform="translate(0 -42.81)"/><path class="cls-11" d="M27.49,71.33a21.07,21.07,0,0,1,1.22,3.35s-6.53,2.3-7.64,6.7.05,6,2.67,9.13c0,0,1.38-3.19,2.67-2.55l-.63,1.1.2.26-.47.47,1.71.62s.81.25.31.8-.69.4-.83.37l-.22,0L25,91.29l.47.71a1.55,1.55,0,0,1,.17.4c.09.36.05.89-1.07.79a2.53,2.53,0,0,1,.45.6.43.43,0,0,1-.3.61,2.81,2.81,0,0,1-1.13-.08,7.55,7.55,0,0,1-.88-.54.87.87,0,0,1-.38-1c.08-.28.31-.53.85-.54,0,0-.32-.72-.22-.93,0,0-6.69-4.17-4.57-10.43C20.44,74.8,27.49,71.33,27.49,71.33Z" transform="translate(0 -42.81)"/><path class="cls-16" d="M23.34,92.29a6.29,6.29,0,0,1,.64.41,5.37,5.37,0,0,1,.58.49,6.29,6.29,0,0,1-.64-.41A5.37,5.37,0,0,1,23.34,92.29Z" transform="translate(0 -42.81)"/><path class="cls-26" d="M6.87,110.26s-1.38-2-1.89-2.1a3,3,0,0,0-2.48,2.76,8,8,0,0,0-2.43,7s2,.83,2.49.5a17.52,17.52,0,0,1,.12-2.79s2.16-2.86,2.86-2.81l1,.18s.26.15.35-.2.17-.92.17-.92L5.32,111S5.87,109.82,6.87,110.26Z" transform="translate(0 -42.81)"/><path class="cls-26" d="M51.23,125.19s-.68.56,0,1.56a26,26,0,0,1,1.82,3.14c.07.29,2.45-.91,3.06-2.55,0,0,4-1.54,5.34-5.07a2.2,2.2,0,0,0-2.13-1.15c-.59,0-1.57,2.08-1.86,2.13a11.73,11.73,0,0,1-3.28.68l-.13-1.17s-.39-.89-1.32-.1-.14,2.38.21,2.49S51.36,126.19,51.23,125.19Z" transform="translate(0 -42.81)"/><circle class="cls-27" cx="386.62" cy="82.51" r="7.46"/><path class="cls-28" d="M386.62,133a7.7,7.7,0,1,1,5.44-2.26A7.65,7.65,0,0,1,386.62,133Zm0-14.92a7.22,7.22,0,1,0,7.22,7.22A7.22,7.22,0,0,0,386.62,118.1Z" transform="translate(0 -42.81)"/><path class="cls-28" d="M384.08,118.44l1.72,1,3.42-.24v-.8A7.47,7.47,0,0,0,384.08,118.44Z" transform="translate(0 -42.81)"/><path class="cls-28" d="M384.94,122a11.25,11.25,0,0,0-2.55,1.28l-.23.41a11.69,11.69,0,0,0,.26,2.71l.31.43,2.68.52.36-.31,1.21-2.35.08-.48a22,22,0,0,0-1.74-1.93Z" transform="translate(0 -42.81)"/><path class="cls-28" d="M381.54,120l-.81,2.28-.29.43-1,1.47A5.42,5.42,0,0,1,381.54,120Z" transform="translate(0 -42.81)"/><path class="cls-28" d="M390.32,124.33s1.28,2,1.33,2.22c0,0,.45.14.45.14s1.43-.64,1.45-.83a10.5,10.5,0,0,0-.55-3.4,5.17,5.17,0,0,0-1.57-.79l-.4.24-.71,2Z" transform="translate(0 -42.81)"/><path class="cls-28" d="M379.52,127.09s1.18,1.36,1.54,1.38a5.44,5.44,0,0,0,.36.43l1.24,1.88-.6.36S379.25,129,379.52,127.09Z" transform="translate(0 -42.81)"/><path class="cls-28" d="M387,130.07l-1,1.33-.07.45,1.5.64a4.3,4.3,0,0,0,3.28-1.21,9,9,0,0,0-.29-1.45l-.4-.26a11,11,0,0,1-2.64.26Z" transform="translate(0 -42.81)"/><rect class="cls-28" x="380.07" y="122.71" width="2.47" height="0.48" transform="translate(112.56 -216.99) rotate(30)"/><rect class="cls-28" x="384.01" y="120.6" width="3.12" height="0.48" transform="translate(618.85 -251.89) rotate(107.86)"/><rect class="cls-28" x="388.1" y="120.22" width="3.81" height="0.48" transform="translate(216.99 -292.05) rotate(47.76)"/><rect class="cls-28" x="386.72" y="124.05" width="3.81" height="0.48" transform="translate(-9.75 -6.7) rotate(-5.25)"/><rect class="cls-28" x="384.43" y="128.34" width="3.81" height="0.48" transform="translate(468.16 484.64) rotate(-120)"/><rect class="cls-28" x="380.25" y="127.03" width="3.81" height="0.48" transform="translate(71.28 340.58) rotate(-57.9)"/><rect class="cls-28" x="389.14" y="127.91" width="3.81" height="0.48" transform="translate(93.64 369.75) rotate(-61.87)"/><rect class="cls-28" x="392.7" y="122.21" width="0.89" height="0.48" transform="translate(732.43 -153.68) rotate(128.19)"/><rect class="cls-28" x="393.2" y="125.73" width="0.89" height="0.48" transform="translate(94.78 -202.33) rotate(25.94)"/><rect class="cls-28" x="382.12" y="131.04" width="3.94" height="0.48" transform="translate(29.93 -109.85) rotate(10.38)"/><rect class="cls-29" x="53.18" y="87.55" width="1.3" height="19.46"/><rect class="cls-29" x="479.92" y="87.55" width="1.3" height="19.46"/></g></g></g></svg>