<svg id="Layer_2" data-name="Layer 2" xmlns="http://www.w3.org/2000/svg" viewBox="0 0 930 290"><defs><style>.cls-1{fill:#f9bd38;}.cls-2{fill:#fff;}.cls-3{fill:#22648a;}.cls-4{fill:#901f2a;}.cls-5{fill:#e72b48;}.cls-6{fill:#11354b;}.cls-7,.cls-8{fill:#b1c4ce;}.cls-7{stroke:#11354b;stroke-width:7px;}.cls-10,.cls-7{stroke-miterlimit:10;}.cls-9{fill:#eabea7;}.cls-10{fill:#f28f63;stroke:#901f2b;stroke-width:6px;}.cls-11{fill:#901f2b;}</style></defs><title>Maquina</title><g id="T1_Full"><g id="Ampolleta"><circle class="cls-1" cx="458.61" cy="29.7" r="28.43"/><rect class="cls-1" x="445.52" y="38.33" width="26.83" height="63.24" transform="translate(917.86 139.9) rotate(180)"/><path class="cls-2" d="M455.74,46h7a0,0,0,0,1,0,0V98.08a3.49,3.49,0,0,1-3.49,3.49h0a3.49,3.49,0,0,1-3.49-3.49V46A0,0,0,0,1,455.74,46Z" transform="translate(918.5 147.56) rotate(180)"/><path class="cls-2" d="M460.8,46.79l1.81,1.8L470.24,41a1.08,1.08,0,0,0,0-1.54l-.26-.27a1.1,1.1,0,0,0-1.54,0Z"/><path class="cls-2" d="M455.61,48.71,457.48,47l-7.34-7.88a1.11,1.11,0,0,0-1.58-.06l-.24.22a1.12,1.12,0,0,0-.05,1.58Z"/><rect class="cls-3" x="432.74" y="81.77" width="51.1" height="11.5" rx="4.83" ry="4.83" transform="translate(916.59 175.03) rotate(-180)"/></g><g id="out"><rect class="cls-4" x="684.43" y="113.71" width="22.36" height="17.89" rx="1.75" ry="1.75" transform="translate(1391.21 245.3) rotate(180)"/><path class="cls-5" d="M702.31,106.68H706a11.67,11.67,0,0,1,11.67,11.67V127A11.67,11.67,0,0,1,706,138.62h-3.66a0,0,0,0,1,0,0V106.68A0,0,0,0,1,702.31,106.68Z" transform="translate(1419.96 245.3) rotate(180)"/><rect class="cls-4" x="700.4" y="111.15" width="1.92" height="24.27" rx="0.95" ry="0.95" transform="translate(1402.71 246.58) rotate(180)"/><rect class="cls-4" x="695.93" y="111.15" width="1.92" height="24.27" rx="0.95" ry="0.95" transform="translate(1393.77 246.58) rotate(180)"/><rect class="cls-4" x="692.09" y="111.15" width="1.92" height="24.27" rx="0.95" ry="0.95" transform="translate(1386.1 246.58) rotate(-180)"/></g><g id="in"><path class="cls-6" d="M331.17,92V47.27s3.2-29.38-30-29.38H245.57V46h56.86V92Z"/><rect class="cls-3" x="299.23" y="75.38" width="36.41" height="7.67" rx="3.81" ry="3.81" transform="translate(634.87 158.42) rotate(180)"/><rect class="cls-5" x="239.18" y="10.86" width="7.03" height="39.61" rx="3.49" ry="3.49" transform="translate(485.39 61.32) rotate(180)"/><polygon class="cls-5" points="241.1 44.72 212.35 60.05 212.35 0 241.1 17.89 241.1 44.72"/></g><g id="Maquina"><g id="Base"><rect class="cls-3" x="229.6" y="90.07" width="460.58" height="170.56" transform="translate(919.78 350.7) rotate(180)"/><rect class="cls-3" x="229.6" y="164.81" width="35.13" height="125.19" transform="translate(494.34 454.81) rotate(180)"/></g><rect class="cls-7" x="261.86" y="114.03" width="398.61" height="116.26" rx="3.42" ry="3.42" transform="translate(922.33 344.31) rotate(180)"/><circle class="cls-8" cx="243.34" cy="121.69" r="3.51"/><circle class="cls-9" cx="243.34" cy="132.55" r="3.51"/><circle class="cls-5" cx="243.34" cy="143.41" r="3.51"/></g><g id="Ruedas"><rect class="cls-10" x="373.01" y="244.34" width="332.18" height="42.16" rx="20.94" ry="20.94" transform="translate(1078.2 530.84) rotate(-180)"/><circle class="cls-11" cx="671.65" cy="265.74" r="14.69"/><circle class="cls-5" cx="671.65" cy="266.06" r="4.15"/><circle class="cls-11" cx="639.23" cy="265.74" r="14.69"/><circle class="cls-5" cx="639.23" cy="266.06" r="4.15"/><circle class="cls-11" cx="606.81" cy="265.74" r="14.69"/><circle class="cls-5" cx="606.81" cy="266.06" r="4.15"/><circle class="cls-11" cx="574.39" cy="265.74" r="14.69"/><circle class="cls-5" cx="574.39" cy="266.06" r="4.15"/><circle class="cls-11" cx="541.98" cy="265.74" r="14.69"/><circle class="cls-5" cx="541.98" cy="266.06" r="4.15"/><circle class="cls-11" cx="509.56" cy="265.74" r="14.69"/><circle class="cls-5" cx="509.56" cy="266.06" r="4.15"/><circle class="cls-11" cx="477.14" cy="265.1" r="14.69"/><circle class="cls-5" cx="477.14" cy="265.42" r="4.15"/><circle class="cls-11" cx="444.72" cy="265.1" r="14.69"/><circle class="cls-5" cx="444.72" cy="265.42" r="4.15"/><circle class="cls-11" cx="412.3" cy="265.1" r="14.69"/><circle class="cls-5" cx="412.3" cy="265.42" r="4.15"/></g></g></svg>