<svg id="Layer_1" data-name="Layer 1" xmlns="http://www.w3.org/2000/svg" xmlns:xlink="http://www.w3.org/1999/xlink" viewBox="0 0 1034.65 294.46"><defs><style>.cls-1,.cls-4{fill:#f48120;stroke-width:2px;}.cls-1,.cls-2{stroke:#f48120;}.cls-1,.cls-2,.cls-4{stroke-miterlimit:10;}.cls-2{fill:none;stroke-width:1.99px;}.cls-3{fill:url(#linear-gradient);}.cls-4{stroke:#ecebeb;}.cls-5{font-size:57px;fill:#ebebeb;font-family:LarkeNeueThin-Thin, Larke Neue Thin;}.cls-6{fill:#f58220;}</style><linearGradient id="linear-gradient" x1="1" y1="48.88" x2="1033.66" y2="48.88" gradientUnits="userSpaceOnUse"><stop offset="0" stop-color="#f48120"/><stop offset="1" stop-color="#bb2626"/></linearGradient></defs><title>40101020200021</title><line class="cls-1" x1="515.95" y1="16.75" x2="515.95" y2="293.46"/><line class="cls-1" x1="772.71" y1="16.75" x2="772.71" y2="293.46"/><path class="cls-2" d="M1005.71,293.46H28.94A27.94,27.94,0,0,1,1,265.67V44.9A27.94,27.94,0,0,1,28.94,17.12h976.77a28,28,0,0,1,28,27.78V265.67A28,28,0,0,1,1005.71,293.46Z"/><path class="cls-3" d="M997.18.06H35.3C-.38.06,1,22,1,48.88H1C1,75.73-.38,97.7,35.3,97.7H997.18c35.68,0,36.48-22,36.48-48.82h0C1033.66,22,1032.86.06,997.18.06Z"/><line class="cls-4" x1="515.95" y1="0.06" x2="515.95" y2="97.75"/><line class="cls-4" x1="772.71" x2="772.71" y2="97.7"/><text class="cls-5" transform="translate(362.96 69.66)">C</text><text class="cls-5" transform="translate(625.64 69.66)">D</text><text class="cls-5" transform="translate(891.73 69.66)">U</text><line class="cls-1" x1="258.61" y1="16.75" x2="258.61" y2="293.46"/><line class="cls-4" x1="258.61" y1="0.06" x2="258.61" y2="97.75"/><text class="cls-5" transform="translate(77.4 69.66)">UM</text><path class="cls-6" d="M134.82,159.57q7.81,0,12.38,3.63a12.12,12.12,0,0,1,4.57,10,12.54,12.54,0,0,1-2.61,7.7,23.12,23.12,0,0,1-8.36,6.33q6.94,3.31,9.88,7a13.13,13.13,0,0,1,2.93,8.46,14.14,14.14,0,0,1-5,11.34q-5,4.25-13.6,4.24-9.14,0-14.06-4t-4.92-11.35q0-9.81,12-15.27a22,22,0,0,1-7.73-6.59,14,14,0,0,1-2.34-7.91,12,12,0,0,1,4.59-9.9Q127.12,159.57,134.82,159.57Zm-12.34,43.52a8.81,8.81,0,0,0,3.26,7.3c2.17,1.75,5.23,2.62,9.16,2.62s6.9-.91,9.06-2.74a9.28,9.28,0,0,0,3.24-7.5,9.12,9.12,0,0,0-3-6.73q-3-3-10.63-5.73-5.82,2.5-8.44,5.53A10.73,10.73,0,0,0,122.48,203.09Zm12.26-38.25c-3.25,0-5.81.79-7.65,2.35a7.76,7.76,0,0,0-2.78,6.25,8.94,8.94,0,0,0,2.31,6.17q2.3,2.58,8.51,5.16,5.6-2.36,7.91-5a9.35,9.35,0,0,0,2.33-6.29,7.71,7.71,0,0,0-2.83-6.27Q139.71,164.85,134.74,164.84Z"/><path class="cls-6" d="M404.75,188.87q0,14.81-4.67,22.11t-14.27,7.3q-9.22,0-14-7.48T367,188.87q0-14.93,4.65-22.15t14.18-7.23q9.29,0,14.12,7.54T404.75,188.87Zm-31.21,0q0,12.45,2.93,18.14a10.52,10.52,0,0,0,18.73-.08q2.91-5.76,2.91-18.06t-2.91-18a10.56,10.56,0,0,0-18.73-.08Q373.54,176.42,373.54,188.87Z"/><path class="cls-6" d="M641.18,159.57q7.82,0,12.38,3.63a12.12,12.12,0,0,1,4.57,10,12.54,12.54,0,0,1-2.61,7.7,23.12,23.12,0,0,1-8.36,6.33q6.95,3.31,9.88,7A13.13,13.13,0,0,1,660,202.7,14.14,14.14,0,0,1,655,214q-5,4.25-13.59,4.24-9.15,0-14.07-4t-4.92-11.35q0-9.81,12-15.27a22,22,0,0,1-7.73-6.59,14,14,0,0,1-2.34-7.91,12,12,0,0,1,4.59-9.9Q633.49,159.57,641.18,159.57Zm-12.34,43.52a8.81,8.81,0,0,0,3.26,7.3c2.17,1.75,5.23,2.62,9.16,2.62s6.9-.91,9.06-2.74a9.28,9.28,0,0,0,3.24-7.5,9.12,9.12,0,0,0-3-6.73q-3-3-10.63-5.73-5.82,2.5-8.44,5.53A10.73,10.73,0,0,0,628.84,203.09Zm12.26-38.25a11.51,11.51,0,0,0-7.65,2.35,7.76,7.76,0,0,0-2.78,6.25,8.94,8.94,0,0,0,2.31,6.17q2.29,2.58,8.51,5.16,5.6-2.36,7.91-5a9.35,9.35,0,0,0,2.33-6.29,7.71,7.71,0,0,0-2.83-6.27Q646.07,164.85,641.1,164.84Z"/><path class="cls-6" d="M921.08,173.83a13,13,0,0,1-3.06,8.94,15.35,15.35,0,0,1-8.69,4.65v.31q6.87.87,10.19,4.38a12.89,12.89,0,0,1,3.32,9.22q0,8.16-5.66,12.56t-16.1,4.39a47.25,47.25,0,0,1-8.3-.68,28.8,28.8,0,0,1-7.32-2.4V209a37.13,37.13,0,0,0,15.86,3.75q14.8,0,14.8-11.6,0-10.38-16.33-10.39h-5.62V185.2h5.7c4.46,0,8-1,10.59-2.95a9.71,9.71,0,0,0,3.91-8.19,8.06,8.06,0,0,0-2.88-6.56,11.81,11.81,0,0,0-7.79-2.38,24.26,24.26,0,0,0-7.07,1,32,32,0,0,0-7.58,3.75l-3.28-4.37a27.57,27.57,0,0,1,8.11-4.36,29.56,29.56,0,0,1,9.66-1.58q8.33,0,12.93,3.81A12.8,12.8,0,0,1,921.08,173.83Z"/></svg>