<svg id="Layer_1" data-name="Layer 1" xmlns="http://www.w3.org/2000/svg" xmlns:xlink="http://www.w3.org/1999/xlink" viewBox="0 0 1034.65 294.46"><defs><style>.cls-1,.cls-4{fill:#f48120;stroke-width:2px;}.cls-1,.cls-2{stroke:#f48120;}.cls-1,.cls-2,.cls-4{stroke-miterlimit:10;}.cls-2{fill:none;stroke-width:1.99px;}.cls-3{fill:url(#linear-gradient);}.cls-4{stroke:#ecebeb;}.cls-5{font-size:57px;fill:#ebebeb;font-family:LarkeNeueThin-Thin, Larke Neue Thin;}.cls-6{font-size:80px;font-family:OpenSans-Regular, Open Sans;}</style><linearGradient id="linear-gradient" x1="1" y1="48.88" x2="1033.66" y2="48.88" gradientUnits="userSpaceOnUse"><stop offset="0" stop-color="#f48120"/><stop offset="1" stop-color="#bb2626"/></linearGradient></defs><title>40101020200021</title><line class="cls-1" x1="515.95" y1="16.75" x2="515.95" y2="293.46"/><line class="cls-1" x1="772.71" y1="16.75" x2="772.71" y2="293.46"/><path class="cls-2" d="M1005.71,293.46H28.94A27.94,27.94,0,0,1,1,265.67V44.9A27.94,27.94,0,0,1,28.94,17.12h976.77a28,28,0,0,1,28,27.78V265.67A28,28,0,0,1,1005.71,293.46Z"/><path class="cls-3" d="M997.18.06H35.3C-.38.06,1,22,1,48.88H1C1,75.73-.38,97.7,35.3,97.7H997.18c35.68,0,36.48-22,36.48-48.82h0C1033.66,22,1032.86.06,997.18.06Z"/><line class="cls-4" x1="515.95" y1="0.06" x2="515.95" y2="97.75"/><line class="cls-4" x1="772.71" x2="772.71" y2="97.7"/><text class="cls-5" transform="translate(362.96 69.66)">C</text><text class="cls-5" transform="translate(625.64 69.66)">D</text><text class="cls-5" transform="translate(891.73 69.66)">U</text><line class="cls-1" x1="258.61" y1="16.75" x2="258.61" y2="293.46"/><line class="cls-4" x1="258.61" y1="0.06" x2="258.61" y2="97.75"/><text class="cls-5" transform="translate(77.4 69.66)">UM</text><text class="cls-6" transform="translate(112.01 217.5)">8</text><text class="cls-6" transform="translate(362.99 217.5)">0</text><text class="cls-6" transform="translate(618.37 217.5)">8</text><text class="cls-6" transform="translate(881.79 217.5)">3</text></svg>