<svg id="Layer_1" data-name="Layer 1" xmlns="http://www.w3.org/2000/svg" viewBox="0 0 425.98 341.98"><defs><style>.cls-1{fill:#8e1013;}.cls-1,.cls-2{stroke:#f05023;stroke-miterlimit:10;stroke-width:6px;}.cls-2{fill:none;}</style></defs><title>40110010200816</title><rect class="cls-1" x="3" y="3" width="84" height="84"/><rect class="cls-2" x="87" y="3" width="84" height="84"/><rect class="cls-2" x="170.99" y="3" width="84" height="84"/><rect class="cls-2" x="254.99" y="3" width="84" height="84"/><rect class="cls-2" x="338.98" y="3" width="84" height="84"/><rect class="cls-1" x="3" y="87" width="84" height="84"/><rect class="cls-2" x="87" y="87" width="84" height="84"/><rect class="cls-2" x="170.99" y="87" width="84" height="84"/><rect class="cls-2" x="254.99" y="87" width="84" height="84"/><rect class="cls-2" x="338.98" y="87" width="84" height="84"/><rect class="cls-1" x="3" y="170.99" width="84" height="84"/><rect class="cls-2" x="87" y="170.99" width="84" height="84"/><rect class="cls-2" x="170.99" y="170.99" width="84" height="84"/><rect class="cls-2" x="254.99" y="170.99" width="84" height="84"/><rect class="cls-2" x="338.98" y="170.99" width="84" height="84"/><rect class="cls-1" x="3" y="254.99" width="84" height="84"/><rect class="cls-1" x="87" y="254.99" width="84" height="84"/><rect class="cls-1" x="170.99" y="254.99" width="84" height="84"/><rect class="cls-1" x="254.99" y="254.99" width="84" height="84"/><rect class="cls-2" x="338.98" y="254.99" width="84" height="84"/></svg>