<svg id="Layer_1" data-name="Layer 1" xmlns="http://www.w3.org/2000/svg" xmlns:xlink="http://www.w3.org/1999/xlink" viewBox="0 0 555.57 601.39"><defs><style>.cls-1,.cls-4,.cls-7{fill:#f48120;}.cls-1,.cls-2,.cls-6{stroke:#f48120;}.cls-1,.cls-2,.cls-4,.cls-6{stroke-miterlimit:10;}.cls-1,.cls-4{stroke-width:2px;}.cls-2,.cls-6{fill:none;}.cls-2{stroke-width:1.99px;}.cls-3{fill:url(#linear-gradient);}.cls-4{stroke:#ecebeb;}.cls-5{fill:#ebebeb;}.cls-6{stroke-width:6px;}.cls-7{font-size:108.08px;font-family:LarkeNeue-Regular, Larke Neue;}.cls-8{fill:#f58220;}.cls-9{fill:#f05023;}</style><linearGradient id="linear-gradient" x1="104.01" y1="42.79" x2="554.57" y2="42.79" gradientUnits="userSpaceOnUse"><stop offset="0" stop-color="#f48120"/><stop offset="1" stop-color="#bb2626"/></linearGradient></defs><title>040112020201102</title><line class="cls-1" x1="329.54" y1="14.63" x2="329.54" y2="194.24"/><line class="cls-1" x1="554.57" y1="39.3" x2="554.57" y2="257.14"/><path class="cls-2" d="M554.57,257.14H104V39.3A24.49,24.49,0,0,1,128.5,15H530.08A24.49,24.49,0,0,1,554.57,39.3V257.14Z"/><path class="cls-3" d="M522.6,0H134.07c-31.27,0-30,19.25-30,42.79h0c0,23.53-1.22,42.78,30.05,42.78H522.6c31.27,0,32-19.25,32-42.78h0C554.57,19.25,553.87,0,522.6,0Z"/><line class="cls-4" x1="329.54" x2="329.54" y2="85.62"/><path class="cls-5" d="M206.42,26.42v22a10.59,10.59,0,0,0,2.88,7.67,11.18,11.18,0,0,0,15.22,0,10.59,10.59,0,0,0,2.88-7.67v-22h2.75V48.61q0,6-3.55,9.48t-9.69,3.52q-6.15,0-9.69-3.51a12.79,12.79,0,0,1-3.56-9.49V26.42Z"/><path class="cls-5" d="M451.4,26.42H454V61H451.4V56.08a11.28,11.28,0,0,1-4,4.06,10.54,10.54,0,0,1-5.51,1.47A10.4,10.4,0,0,1,433.77,58a13.42,13.42,0,0,1-3.22-9.23,13.51,13.51,0,0,1,3.22-9.26,10.36,10.36,0,0,1,8.15-3.67,10.54,10.54,0,0,1,5.51,1.47,11.28,11.28,0,0,1,4,4.06Zm-15.63,14.8a10.92,10.92,0,0,0-2.56,7.5,11.1,11.1,0,0,0,2.52,7.52,9,9,0,0,0,13.21,0,11.06,11.06,0,0,0,2.54-7.52,11,11,0,0,0-2.54-7.51,8.35,8.35,0,0,0-6.61-2.91A8.18,8.18,0,0,0,435.77,41.22Z"/><line class="cls-1" x1="104.01" y1="39.3" x2="104.01" y2="257.14"/><line class="cls-1" x1="329.54" y1="241.4" x2="329.54" y2="257.14"/><polyline class="cls-2" points="104.01 428.8 104.01 404.45 104.01 257.14"/><polyline class="cls-2" points="554.57 257.14 554.57 404.45 554.57 428.8"/><line class="cls-1" x1="329.54" y1="257.14" x2="329.54" y2="365.9"/><line class="cls-1" x1="554.57" y1="257.14" x2="554.57" y2="428.8"/><line class="cls-1" x1="104.01" y1="257.14" x2="104.01" y2="428.8"/><line class="cls-1" x1="329.54" y1="413.06" x2="329.54" y2="428.8"/><path class="cls-2" d="M554.57,428.73V576a24.49,24.49,0,0,1-24.49,24.35H128.5A24.49,24.49,0,0,1,104,576V428.73"/><line class="cls-1" x1="329.54" y1="428.73" x2="329.54" y2="537.49"/><line class="cls-1" x1="329.54" y1="584.65" x2="329.54" y2="600.39"/><line class="cls-6" x1="554.57" y1="428.8" x2="104.01" y2="428.8"/><text class="cls-7" transform="translate(318.16 217.76)">,</text><text class="cls-7" transform="translate(318.16 387.84)">,</text><text class="cls-7" transform="translate(318.16 557.91)">,</text><path class="cls-8" d="M249,176.53q0,21.32-6.72,31.84t-20.56,10.52q-13.29,0-20.2-10.77t-6.92-31.59q0-21.5,6.69-31.9t20.43-10.4q13.38,0,20.33,10.85T249,176.53Zm-44.95,0q0,17.94,4.22,26.13a14.11,14.11,0,0,0,13.45,8.19q9.33,0,13.52-8.3t4.2-26q0-17.72-4.2-26t-13.52-8.24q-9.24,0-13.45,8.13T204.06,176.53Z"/><path class="cls-8" d="M432.73,134.34q11.25,0,17.83,5.23T457.14,154a18,18,0,0,1-3.77,11.08q-3.76,5-12,9.11,10,4.78,14.23,10.05a18.83,18.83,0,0,1,4.22,12.17q0,10.25-7.14,16.35t-19.58,6.1q-13.15,0-20.25-5.77t-7.09-16.34q0-14.11,17.22-22-7.77-4.39-11.14-9.48a20.18,20.18,0,0,1-3.38-11.39A17.36,17.36,0,0,1,415,139.66Q421.65,134.34,432.73,134.34ZM415,197q0,6.75,4.7,10.52t13.19,3.77q8.39,0,13.05-3.94t4.67-10.8a13.15,13.15,0,0,0-4.39-9.71q-4.38-4.24-15.3-8.24-8.39,3.6-12.15,8A15.41,15.41,0,0,0,415,197Zm17.66-55.08q-7,0-11,3.38a11.17,11.17,0,0,0-4,9,12.91,12.91,0,0,0,3.32,8.89q3.31,3.7,12.27,7.42,8-3.37,11.39-7.25a13.45,13.45,0,0,0,3.34-9.06,11.09,11.09,0,0,0-4.07-9Q439.76,141.94,432.61,141.93Z"/><path class="cls-8" d="M248.51,346.6q0,21.33-6.72,31.84T221.23,389q-13.29,0-20.2-10.77t-6.92-31.59q0-21.48,6.7-31.89t20.42-10.41q13.38,0,20.33,10.86T248.51,346.6Zm-44.95,0q0,18,4.22,26.13a15.16,15.16,0,0,0,27-.11q4.19-8.3,4.19-26t-4.19-26q-4.2-8.24-13.53-8.24t-13.45,8.13Q203.57,328.66,203.56,346.6Z"/><path class="cls-8" d="M415.41,387.84,449.5,314.2H404.66v-8.61H459.4v7.49l-33.64,74.76Z"/><path class="cls-9" d="M58.45,357.65H41.6V340.8a8.25,8.25,0,0,0-16.5,0v16.85H8.25A8.27,8.27,0,0,0,0,365.9H0a8.27,8.27,0,0,0,8.25,8.25H25.1V391a8.25,8.25,0,0,0,16.5,0V374.15H58.45a8.27,8.27,0,0,0,8.25-8.25h0A8.27,8.27,0,0,0,58.45,357.65Z"/></svg>