<svg id="Layer_1" data-name="Layer 1" xmlns="http://www.w3.org/2000/svg" viewBox="0 0 226.68 226.68"><defs><style>.cls-1{fill:#8e1013;}.cls-2{fill:none;stroke:#f05023;stroke-miterlimit:10;stroke-width:6px;}</style></defs><title>40110010200817_02</title><path class="cls-1" d="M113.58,3l-.24,110.34L26.57,45.18S59.62-.64,113.58,3Z"/><path class="cls-1" d="M6.48,139.85l107.1-26.51-46.11,101S16,193.09,6.48,139.85Z"/><path class="cls-1" d="M162.11,211.41,112,113.09l108.3,21.13S211.8,190.06,162.11,211.41Z"/><circle class="cls-2" cx="113.34" cy="113.34" r="110.32"/><line class="cls-2" x1="113.82" y1="3" x2="113.34" y2="113.34"/><line class="cls-2" x1="199.48" y1="44.42" x2="113.34" y2="113.34"/><line class="cls-2" x1="221.32" y1="135.92" x2="113.34" y2="113.34"/><line class="cls-2" x1="161.6" y1="210.49" x2="113.34" y2="113.34"/><line class="cls-2" x1="66.81" y1="213.39" x2="113.34" y2="113.34"/><line class="cls-2" x1="113.34" y1="113.34" x2="27.27" y2="45.85"/><line class="cls-2" x1="113.34" y1="113.34" x2="6.3" y2="140.45"/></svg>