<svg id="Layer_1" data-name="Layer 1" xmlns="http://www.w3.org/2000/svg" viewBox="0 0 894.1 514.83"><defs><style>.cls-1{fill:#91518f;}.cls-2,.cls-4{fill:#ffa1d1;}.cls-3{fill:#91298e;}.cls-4{stroke:#91518f;stroke-width:10px;}.cls-4,.cls-5{stroke-miterlimit:10;}.cls-5{fill:#fbf393;stroke:#d2c329;}.cls-6{fill:#d2c329;}.cls-7{fill:#ed5f23;}</style></defs><title>40214020201297</title><g id="all"><g id="Base"><polygon id="Base-2" data-name="Base" class="cls-1" points="364.96 514.83 536.54 514.83 524.29 475.22 377.22 475.22 364.96 514.83"/><rect class="cls-1" x="383.9" y="394.01" width="135.4" height="27.17" transform="translate(859.19 -43.99) rotate(90)"/></g></g><g id="Plato_der" data-name="Plato der"><polygon id="_Path_" data-name="&lt;Path&gt;" class="cls-1" points="243.01 365.71 5.56 367.14 0.1 350.34 249.18 348.84 243.01 365.71"/><path id="_Compound_Path_" data-name="&lt;Compound Path&gt;" class="cls-2" d="M2.68,344.79,0,350.66l249.08-1.5-2.69-5.84Z"/><path id="_Path_2" data-name="&lt;Path&gt;" class="cls-3" d="M128,407.08l-7.94.05a7.79,7.79,0,0,1-7.84-7.74l-.2-33.93,23.52-.14.2,33.92A7.78,7.78,0,0,1,128,407.08Z"/><path id="_Compound_Path_2" data-name="&lt;Compound Path&gt;" class="cls-2" d="M647.43,103.45l-2.71,5.86L893.8,109l-2.67-5.85Z"/></g><g id="Plato_izq" data-name="Plato izq"><path id="_Path_3" data-name="&lt;Path&gt;" class="cls-3" d="M772.35,166.35l-7.94,0a7.79,7.79,0,0,1-7.75-7.83l.17-33.93,23.52.12-.17,33.93A7.79,7.79,0,0,1,772.35,166.35Z"/><polygon id="iz" class="cls-1" points="887.91 125.07 650.46 126.24 645.02 109.44 894.1 108.2 887.91 125.07"/></g><g id="mid"><g id="Brazo_izq" data-name="Brazo izq"><rect class="cls-2" x="754.44" y="156.53" width="29.65" height="14.8" transform="translate(-9.92 271.21) rotate(-19.87)"/><rect class="cls-1" x="473.4" y="220.55" width="326.23" height="24.7" transform="translate(-41.27 230.2) rotate(-19.87)"/></g><g id="der"><polygon class="cls-2" points="113.35 417.81 140.99 407.1 135.66 391.92 108.01 402.62 113.35 417.81"/><rect class="cls-1" x="106.8" y="358.07" width="326.23" height="24.7" transform="translate(-115.55 122.46) rotate(-21.17)"/></g><circle id="Centro_izq" data-name="Centro izq" class="cls-4" cx="452.5" cy="299.49" r="40.72" transform="translate(-48.62 91.33) rotate(-10.94)"/></g><rect class="cls-2" x="30.13" y="293.99" width="46.37" height="46.37"/><rect class="cls-2" x="674.33" width="46.37" height="46.37"/><rect class="cls-2" x="674.33" y="51.7" width="46.37" height="46.37"/><rect class="cls-2" x="724.69" y="51.7" width="46.37" height="46.37"/><rect class="cls-2" x="775.59" y="51.7" width="46.37" height="46.37"/><rect class="cls-2" x="825.95" y="51.7" width="46.37" height="46.37"/><path class="cls-5" d="M144.25,243.53s-18.73,21.57-24.08,33.52-8.91,32.27-5.7,36.37-5.53,10.52-5.53,10.52-5.17,5-1.25,10.52,12.31,0,12.31,0,1.42,4.46,7.84,3.93,12.48-2.5,12.48-3,6.42,4.29,11.59,4.19,21.76,1.87,30.31-2.59,6.42-1.78,6.42-1.78,12.49,2.49,13.38-2,2.49-.18,2.49-.18.36,2.14,8.74,1.6,6.42-4.81,6.42-4.81a115.63,115.63,0,0,0-5.17-13.55,36.86,36.86,0,0,1-3-11.59s-2-25.5-9.63-38-6.78-15.18-18.55-26.4a116.31,116.31,0,0,0-17.83-.71C157.05,240.05,144.25,243.53,144.25,243.53Z"/><path class="cls-5" d="M181.47,227.77s1.33-6,5.88-9.23,3.81-1,6.22-4.68,5.75-10.1,6.75-10,3-10.9-1.47-11.9-13.3-1.61-16.45,0l-3.14,1.6A4.64,4.64,0,0,1,178,191c-.13-1.49-.27-5.3-9.83-6s-10.63,3.14-10.63,3.14,1.19,8.63.94,9.49c-.31,1-.74,1.81-5.35.67s-2.48-3.81-8.7-3.48-7.15,1.81-8.82,1.81-7.22-1.47-14,1.47,1.53,10.9,3.41,11.77a31.34,31.34,0,0,1,12,9c4.88,6,7.89,14.25,7.89,14.25S163.05,227.3,181.47,227.77Z"/><path class="cls-6" d="M122.65,197.69a5.92,5.92,0,0,0-2.2,2.92,3.13,3.13,0,0,0,0,1.77c.11.28.26.54.39.81l.58.71a11,11,0,0,0,3,2,31.72,31.72,0,0,0,3.47,1.38h-.06c.61,0,1.22.11,1.82.11a12.16,12.16,0,0,0,1.81-.14,9.56,9.56,0,0,0,6.07-3.46,11.47,11.47,0,0,0,1.82-3l0,.14a7.35,7.35,0,0,1,.74-2.49,6.29,6.29,0,0,1,1.57-2,6.61,6.61,0,0,1,2.18-1.25,10.59,10.59,0,0,1,1.2-.31c.41-.06.82-.09,1.22-.12v.09l-1.16.31a8.18,8.18,0,0,0-1.1.45,6.11,6.11,0,0,0-1.88,1.33,6.26,6.26,0,0,0-1.27,1.87,6.55,6.55,0,0,0-.52,2.16v.14a10.79,10.79,0,0,1-2,3.38,9.81,9.81,0,0,1-3,2.43,10.44,10.44,0,0,1-3.71,1.13,12.29,12.29,0,0,1-1.92.09c-.64,0-1.27-.12-1.91-.17h-.05a30.23,30.23,0,0,1-3.51-1.52,11.08,11.08,0,0,1-3.1-2.26l-.59-.78c-.13-.31-.29-.6-.39-.91a3.37,3.37,0,0,1,.06-1.94,6,6,0,0,1,2.39-2.93Z"/><path class="cls-6" d="M158.5,197.42a6.42,6.42,0,0,0,3.77-1.71,4.18,4.18,0,0,0,1.5-3.49,2.43,2.43,0,0,0-.49-1.7,4.7,4.7,0,0,0-1.73-.91c-1.37-.46-2.72-1-4.07-1.57,1.44.21,2.88.49,4.31.83a4.8,4.8,0,0,1,2.16,1,3.27,3.27,0,0,1,.82,2.34,4.52,4.52,0,0,1-.47,2.34,5.73,5.73,0,0,1-5.8,2.89Z"/><path class="cls-6" d="M149.76,196.31a72.29,72.29,0,0,1,5.63,10.84,35.88,35.88,0,0,1,2,5.81,20.46,20.46,0,0,1,.47,6.14h-.1a59.3,59.3,0,0,0-1.34-5.89c-.55-1.93-1.1-3.87-1.77-5.77s-1.45-3.78-2.29-5.62-1.7-3.68-2.68-5.46Z"/><path class="cls-6" d="M142.86,206.39a26.63,26.63,0,0,0,2,2.7c.7.86,1.44,1.69,2.22,2.48s1.59,1.53,2.43,2.29a14.51,14.51,0,0,1,2.23,2.66,22.47,22.47,0,0,1,2.75,6.25c.29,1.1.54,2.21.72,3.33a19.26,19.26,0,0,1,.17,3.39,24,24,0,0,0-.66-3.29,30.92,30.92,0,0,0-1-3.19,27.82,27.82,0,0,0-2.86-5.94,13.88,13.88,0,0,0-2-2.53c-.78-.78-1.62-1.58-2.34-2.46A22.52,22.52,0,0,1,142.86,206.39Z"/><path class="cls-6" d="M164.09,193.87a21,21,0,0,1,3.38,5.35,17,17,0,0,1,1,3.06,21.55,21.55,0,0,1,.37,3.17c.16,2.11.31,4.21.26,6.32a53.24,53.24,0,0,1-.46,6.3h-.1c-.26-2.1-.33-4.2-.44-6.29s0-4.2-.06-6.29a16.7,16.7,0,0,0-1-6.08,21,21,0,0,0-3-5.47Z"/><path class="cls-6" d="M165.87,228.48a10.69,10.69,0,0,0,.35-1.48c.09-.51.16-1,.2-1.54a14.37,14.37,0,0,0-.1-3.14,14.41,14.41,0,0,1,.6,3.14c0,.53.06,1.07.05,1.62a11.67,11.67,0,0,1-.13,1.64Z"/><path class="cls-6" d="M174.26,208.61a8.67,8.67,0,0,1,.68-4,14.41,14.41,0,0,1,.87-1.81,6.08,6.08,0,0,0,.57-1.75c.08-.59.1-1.3.18-1.94a14.49,14.49,0,0,1,.27-2,5,5,0,0,1,2.28-3.4l.51-.28-.27.53a3.3,3.3,0,0,0,0,2.75,5,5,0,0,0,1.9,2.12,17.22,17.22,0,0,0,5.43,2.05,41.06,41.06,0,0,0,5.79,1,28.36,28.36,0,0,0,2.91.15,11.78,11.78,0,0,0,2.82-.31l.06,0a5.19,5.19,0,0,0,1.41-.54,3.72,3.72,0,0,0,1.16-1,4.29,4.29,0,0,0,.77-3l.1,0a4.35,4.35,0,0,1-.44,3.33,4.61,4.61,0,0,1-1.23,1.26,5,5,0,0,1-1.61.76l.06,0a16.11,16.11,0,0,1-6.11.49,34.69,34.69,0,0,1-5.92-1.19,15.33,15.33,0,0,1-5.49-2.56,6.08,6.08,0,0,1-1.91-2.38,4.07,4.07,0,0,1,0-3l.24.26a4.42,4.42,0,0,0-1.64,3.21c-.09.61-.11,1.27-.17,1.93s-.1,1.29-.22,2a6.09,6.09,0,0,1-.73,2c-.36.59-.7,1.1-1,1.69a10.86,10.86,0,0,0-1.15,3.7Z"/><path class="cls-6" d="M177.81,227.63c-.11-1.42-.14-2.8-.12-4.2s.08-2.79.23-4.18a28.59,28.59,0,0,1,.7-4.12,15.25,15.25,0,0,1,1.51-3.88,14.78,14.78,0,0,0-1.26,3.93,28.24,28.24,0,0,0-.45,4.11,40.44,40.44,0,0,0,0,4.12c.07,1.37.18,2.76.36,4.1Z"/><path class="cls-7" d="M144.89,233.13s-4.08,1.75-3.23,3.31,1.55,1.6,1.55,1.6a3.62,3.62,0,0,0-1.67,2.86c.1,1.91,1.07,3.07,2.71,2.63,1.18-.32,14.64-3.16,19.95-3.78s14.1.09,14.1.09l4,.35a3.47,3.47,0,0,0,2.48-.23,2.8,2.8,0,0,0,2-2.05c.51-1.92-1.2-4.72-3.25-4.55-1.33.12-.7-1.07-.09-1.92a2.35,2.35,0,0,0-2-3.67C177.59,227.9,166.52,226.8,144.89,233.13Z"/></svg>