<svg id="Layer_1" data-name="Layer 1" xmlns="http://www.w3.org/2000/svg" viewBox="0 0 628.62 321.87"><defs><style>.cls-1{fill:none;stroke:#00e8ec;stroke-miterlimit:10;stroke-width:2px;}.cls-2{fill:#007677;}.cls-3{fill:#01abaf;}.cls-4{fill:#00fcff;}.cls-5{fill:#fff;}</style></defs><title>40318040201689</title><rect class="cls-1" x="1" y="1" width="104.44" height="106.62"/><rect class="cls-1" x="105.44" y="1" width="104.44" height="106.62"/><rect class="cls-1" x="209.87" y="1" width="104.44" height="106.62"/><rect class="cls-1" x="314.31" y="1" width="104.44" height="106.62"/><rect class="cls-1" x="418.75" y="1" width="104.44" height="106.62"/><rect class="cls-1" x="523.19" y="1" width="104.44" height="106.62"/><rect class="cls-1" x="1" y="107.63" width="104.44" height="106.62"/><rect class="cls-1" x="105.44" y="107.63" width="104.44" height="106.62"/><rect class="cls-1" x="209.87" y="107.63" width="104.44" height="106.62"/><rect class="cls-1" x="314.31" y="107.63" width="104.44" height="106.62"/><rect class="cls-1" x="418.75" y="107.63" width="104.44" height="106.62"/><rect class="cls-1" x="523.19" y="107.63" width="104.44" height="106.62"/><rect class="cls-1" x="1" y="214.25" width="104.44" height="106.62"/><rect class="cls-1" x="105.44" y="214.25" width="104.44" height="106.62"/><rect class="cls-1" x="209.87" y="214.25" width="104.44" height="106.62"/><rect class="cls-1" x="314.31" y="214.25" width="104.44" height="106.62"/><rect class="cls-1" x="418.75" y="214.25" width="104.44" height="106.62"/><rect class="cls-1" x="523.19" y="214.25" width="104.44" height="106.62"/><polygon class="cls-2" points="105.44 214.25 209.88 107.62 314.31 214.25 105.44 214.25"/><polygon class="cls-3" points="314.31 3.19 418.75 107.63 314.31 212.06 314.31 3.19"/><polygon class="cls-4" points="418.75 3.19 523.19 107.63 418.75 212.06 418.75 3.19"/><path class="cls-5" d="M223.81,186.33l-5.33-13.62H201.31L196,186.33h-5l16.93-43h4.19l16.85,43Zm-6.88-18.1L212,155c-.65-1.68-1.31-3.74-2-6.19a53.6,53.6,0,0,1-1.84,6.19l-5,13.27Z"/><path class="cls-5" d="M339.37,81.67h12.1q8.52,0,12.33,2.55t3.81,8a9.31,9.31,0,0,1-2.13,6.29,10.22,10.22,0,0,1-6.19,3.21v.29q9.75,1.66,9.75,10.25a11,11,0,0,1-3.88,9q-3.89,3.23-10.85,3.22H339.37Zm5,18.34h8.2q5.28,0,7.59-1.66t2.31-5.58a5.65,5.65,0,0,0-2.58-5.2c-1.71-1.06-4.45-1.6-8.2-1.6h-7.32Zm0,4.22v16h8.93q5.19,0,7.81-2t2.62-6.29c0-2.65-.89-4.61-2.68-5.86s-4.5-1.87-8.16-1.87Z"/><path class="cls-5" d="M463.54,85.51q-7.07,0-11.15,4.7t-4.08,12.87q0,8.42,3.94,13t11.23,4.58a38.16,38.16,0,0,0,10.23-1.61v4.37a31.57,31.57,0,0,1-11,1.67q-9.47,0-14.6-5.75T443,103a25.78,25.78,0,0,1,2.48-11.61,17.75,17.75,0,0,1,7.15-7.67,21.59,21.59,0,0,1,11-2.7,26.57,26.57,0,0,1,11.78,2.46l-2.11,4.28A22.76,22.76,0,0,0,463.54,85.51Z"/></svg>