<svg id="Layer_1" data-name="Layer 1" xmlns="http://www.w3.org/2000/svg" viewBox="0 0 689.17 107.68"><defs><style>.cls-1,.cls-2,.cls-3{fill:none;stroke:#00777c;stroke-miterlimit:10;}.cls-2{stroke-dasharray:3;}.cls-3{stroke-width:2px;}.cls-4{font-size:18.58px;font-family:OpenSans-Regular, Open Sans;}</style></defs><title>40316020201507</title><polygon class="cls-1" points="84.75 33.91 69 42.84 69 99.72 100.5 99.72 100.5 42.84 84.75 33.91"/><line class="cls-1" x1="69" y1="42.84" x2="100.5" y2="42.84"/><line class="cls-2" x1="84.75" y1="33.91" x2="84.75" y2="91.26"/><line class="cls-2" x1="69" y1="99.72" x2="84.75" y2="91.26"/><line class="cls-2" x1="100.5" y1="99.72" x2="84.75" y2="91.26"/><polygon class="cls-1" points="259.18 46.68 235.35 94.99 283 94.99 259.18 46.68"/><rect class="cls-1" x="415.75" y="35.84" width="38" height="63.25"/><rect class="cls-3" x="1" y="1" width="687.17" height="105.68" rx="6.88" ry="6.88"/><line class="cls-3" x1="1" y1="29.76" x2="688.17" y2="29.76"/><path d="M17.34,8.61a4.36,4.36,0,0,0-3.46,1.45,5.89,5.89,0,0,0-1.26,4,6,6,0,0,0,1.22,4,4.32,4.32,0,0,0,3.48,1.42A11.9,11.9,0,0,0,20.48,19v1.35a9.86,9.86,0,0,1-3.4.51,5.77,5.77,0,0,1-4.52-1.77A7.34,7.34,0,0,1,11,14a8,8,0,0,1,.76-3.59A5.5,5.5,0,0,1,14,8.06a6.74,6.74,0,0,1,3.4-.83A8.21,8.21,0,0,1,21,8l-.65,1.32A7.07,7.07,0,0,0,17.34,8.61Z"/><path d="M24.57,10.74v6.45A2.58,2.58,0,0,0,25.12,19a2.26,2.26,0,0,0,1.73.6,2.82,2.82,0,0,0,2.28-.85A4.26,4.26,0,0,0,29.86,16V10.74h1.5v9.94H30.12l-.22-1.33h-.08a3,3,0,0,1-1.28,1.12,4.36,4.36,0,0,1-1.88.39A3.75,3.75,0,0,1,24,20,3.63,3.63,0,0,1,23,17.24v-6.5Z"/><path d="M38.76,20.86a4.55,4.55,0,0,1-3.48-1.34A5.2,5.2,0,0,1,34,15.79,5.78,5.78,0,0,1,35.19,12a3.93,3.93,0,0,1,3.18-1.41,3.73,3.73,0,0,1,3,1.23A4.69,4.69,0,0,1,42.41,15v1H35.56a3.93,3.93,0,0,0,.89,2.66,3,3,0,0,0,2.36.91A8.18,8.18,0,0,0,42,18.88v1.34a8.23,8.23,0,0,1-1.51.49A8.53,8.53,0,0,1,38.76,20.86Zm-.41-9a2.45,2.45,0,0,0-1.91.78,3.54,3.54,0,0,0-.84,2.16h5.2a3.26,3.26,0,0,0-.64-2.18A2.22,2.22,0,0,0,38.35,11.82Z"/><path d="M49.52,10.56a5.32,5.32,0,0,1,1.18.11l-.2,1.39a5.24,5.24,0,0,0-1.09-.13,2.64,2.64,0,0,0-2.07,1,3.56,3.56,0,0,0-.85,2.44v5.33H45V10.74h1.24l.18,1.84h.07a4.35,4.35,0,0,1,1.33-1.5A3,3,0,0,1,49.52,10.56Z"/><path d="M57.19,20.86a4.4,4.4,0,0,1-1.77-.35,3.29,3.29,0,0,1-1.35-1.11H54a13.84,13.84,0,0,1,.11,1.65v4.1h-1.5V10.74h1.22L54,12.1h.07a3.57,3.57,0,0,1,1.35-1.18,4.18,4.18,0,0,1,1.77-.36,3.69,3.69,0,0,1,3.06,1.35,6,6,0,0,1,1.07,3.79,5.94,5.94,0,0,1-1.09,3.81A3.69,3.69,0,0,1,57.19,20.86Zm-.22-9a2.67,2.67,0,0,0-2.2.84,4.36,4.36,0,0,0-.7,2.69v.33a4.94,4.94,0,0,0,.7,3,2.66,2.66,0,0,0,2.24.9,2.32,2.32,0,0,0,2-1,4.93,4.93,0,0,0,.73-2.88A4.72,4.72,0,0,0,59,12.83,2.41,2.41,0,0,0,57,11.84Z"/><path d="M72.53,15.7a5.48,5.48,0,0,1-1.22,3.8,4.31,4.31,0,0,1-3.38,1.36,4.46,4.46,0,0,1-2.37-.62,4.19,4.19,0,0,1-1.6-1.8,6.32,6.32,0,0,1-.56-2.74,5.49,5.49,0,0,1,1.21-3.79A4.32,4.32,0,0,1,68,10.56,4.2,4.2,0,0,1,71.31,12,5.48,5.48,0,0,1,72.53,15.7ZM65,15.7a4.69,4.69,0,0,0,.76,2.9,2.64,2.64,0,0,0,2.24,1,2.67,2.67,0,0,0,2.25-1A4.7,4.7,0,0,0,71,15.7a4.64,4.64,0,0,0-.76-2.88,2.72,2.72,0,0,0-2.27-1,2.64,2.64,0,0,0-2.23,1A4.66,4.66,0,0,0,65,15.7Z"/><path d="M88.14,10.74v.95l-1.84.22a3.06,3.06,0,0,1,.45.83A3.24,3.24,0,0,1,87,13.9a2.93,2.93,0,0,1-1,2.33,4,4,0,0,1-2.74.87,5.46,5.46,0,0,1-.83-.07,1.48,1.48,0,0,0-1,1.28.65.65,0,0,0,.33.6,2.5,2.5,0,0,0,1.16.19h1.75a4,4,0,0,1,2.49.68,2.4,2.4,0,0,1,.86,2,2.83,2.83,0,0,1-1.32,2.52,7.06,7.06,0,0,1-3.87.87,5.27,5.27,0,0,1-3-.73,2.33,2.33,0,0,1-1.06-2.05,2.3,2.3,0,0,1,.58-1.57A3,3,0,0,1,81,19.9a1.62,1.62,0,0,1-.64-.53,1.45,1.45,0,0,1-.26-.85,1.56,1.56,0,0,1,.3-.95,3.05,3.05,0,0,1,.91-.79A2.72,2.72,0,0,1,80,15.7,3.2,3.2,0,0,1,79.54,14a3.23,3.23,0,0,1,1-2.52,4,4,0,0,1,2.78-.88,5.05,5.05,0,0,1,1.4.18ZM80.21,22.35a1.36,1.36,0,0,0,.68,1.23,3.83,3.83,0,0,0,2,.41,5.43,5.43,0,0,0,2.81-.56,1.73,1.73,0,0,0,.91-1.54,1.2,1.2,0,0,0-.5-1.12,3.87,3.87,0,0,0-1.88-.31h-1.8a2.37,2.37,0,0,0-1.6.49A1.73,1.73,0,0,0,80.21,22.35ZM81,13.92a2,2,0,0,0,.59,1.58,2.33,2.33,0,0,0,1.64.54,1.92,1.92,0,0,0,2.2-2.14,2,2,0,0,0-2.23-2.24,2.2,2.2,0,0,0-1.63.57A2.29,2.29,0,0,0,81,13.92Z"/><path d="M94.38,20.86a4.55,4.55,0,0,1-3.48-1.34,5.19,5.19,0,0,1-1.27-3.73A5.78,5.78,0,0,1,90.81,12,3.94,3.94,0,0,1,94,10.56a3.75,3.75,0,0,1,3,1.23A4.69,4.69,0,0,1,98,15v1H91.19a3.93,3.93,0,0,0,.88,2.66,3.05,3.05,0,0,0,2.37.91,8.09,8.09,0,0,0,3.17-.67v1.34a7.77,7.77,0,0,1-1.51.49A8.46,8.46,0,0,1,94.38,20.86Zm-.41-9a2.48,2.48,0,0,0-1.91.78,3.59,3.59,0,0,0-.83,2.16h5.19a3.31,3.31,0,0,0-.63-2.18A2.22,2.22,0,0,0,94,11.82Z"/><path d="M109.19,15.7A5.48,5.48,0,0,1,108,19.5a4.29,4.29,0,0,1-3.38,1.36,4.46,4.46,0,0,1-2.37-.62,4.11,4.11,0,0,1-1.59-1.8,6.18,6.18,0,0,1-.57-2.74,5.5,5.5,0,0,1,1.22-3.79,4.3,4.3,0,0,1,3.37-1.35A4.2,4.2,0,0,1,108,12,5.43,5.43,0,0,1,109.19,15.7Zm-7.58,0a4.68,4.68,0,0,0,.77,2.9,2.62,2.62,0,0,0,2.24,1,2.66,2.66,0,0,0,2.24-1,4.7,4.7,0,0,0,.77-2.91,4.64,4.64,0,0,0-.77-2.88,2.7,2.7,0,0,0-2.26-1,2.63,2.63,0,0,0-2.23,1A4.6,4.6,0,0,0,101.61,15.7Z"/><path d="M124.5,20.68V14.21a2.74,2.74,0,0,0-.5-1.78,2,2,0,0,0-1.58-.59,2.58,2.58,0,0,0-2.08.8,3.84,3.84,0,0,0-.67,2.49v5.55h-1.51V14.21a2.68,2.68,0,0,0-.51-1.78,1.93,1.93,0,0,0-1.58-.59,2.46,2.46,0,0,0-2.08.85,4.56,4.56,0,0,0-.66,2.78v5.21h-1.5V10.74h1.22l.25,1.36h.07a3,3,0,0,1,1.2-1.13,3.6,3.6,0,0,1,1.74-.41,3,3,0,0,1,3,1.69h.07A3.21,3.21,0,0,1,120.72,11a4,4,0,0,1,1.92-.45,3.4,3.4,0,0,1,2.53.86A3.9,3.9,0,0,1,126,14.2v6.48Z"/><path d="M133.31,20.86a4.55,4.55,0,0,1-3.48-1.34,5.19,5.19,0,0,1-1.27-3.73A5.78,5.78,0,0,1,129.74,12a3.94,3.94,0,0,1,3.18-1.41,3.74,3.74,0,0,1,3,1.23A4.69,4.69,0,0,1,137,15v1h-6.85a3.93,3.93,0,0,0,.88,2.66,3.05,3.05,0,0,0,2.37.91,8.09,8.09,0,0,0,3.17-.67v1.34a7.77,7.77,0,0,1-1.51.49A8.46,8.46,0,0,1,133.31,20.86Zm-.4-9a2.49,2.49,0,0,0-1.92.78,3.59,3.59,0,0,0-.83,2.16h5.19a3.31,3.31,0,0,0-.63-2.18A2.22,2.22,0,0,0,132.91,11.82ZM131.79,9.2c.29-.38.6-.83.94-1.36s.6-1,.79-1.39h1.83v.19a13.05,13.05,0,0,1-1.18,1.45,14.63,14.63,0,0,1-1.37,1.33h-1Z"/><path d="M142.75,19.62a4.9,4.9,0,0,0,.77-.06,6,6,0,0,0,.59-.12v1.15a2.55,2.55,0,0,1-.72.2,5.61,5.61,0,0,1-.86.07c-1.92,0-2.88-1-2.88-3V11.91h-1.43v-.73l1.43-.62.63-2.13h.87v2.31H144v1.17h-2.89v5.85a2,2,0,0,0,.43,1.38A1.47,1.47,0,0,0,142.75,19.62Z"/><path d="M150.63,10.56a5.42,5.42,0,0,1,1.19.11l-.21,1.39a5.09,5.09,0,0,0-1.09-.13,2.63,2.63,0,0,0-2.06,1,3.56,3.56,0,0,0-.86,2.44v5.33h-1.5V10.74h1.24l.17,1.84h.07a4.38,4.38,0,0,1,1.34-1.5A3,3,0,0,1,150.63,10.56Z"/><path d="M153.55,8a1,1,0,0,1,.26-.75.88.88,0,0,1,.63-.24.9.9,0,0,1,.63.24,1,1,0,0,1,.26.75,1,1,0,0,1-.26.76.87.87,0,0,1-.63.25.85.85,0,0,1-.63-.25A1,1,0,0,1,153.55,8Zm1.64,12.64h-1.51V10.74h1.51Z"/><path d="M162.35,20.86A4.25,4.25,0,0,1,159,19.54a5.48,5.48,0,0,1-1.18-3.77,5.64,5.64,0,0,1,1.2-3.85,4.31,4.31,0,0,1,3.42-1.36,7,7,0,0,1,1.44.15,4.91,4.91,0,0,1,1.12.36l-.46,1.28a7.77,7.77,0,0,0-1.09-.33,5.35,5.35,0,0,0-1-.13q-3,0-3,3.87a4.54,4.54,0,0,0,.74,2.81,2.57,2.57,0,0,0,2.19,1,6.64,6.64,0,0,0,2.55-.54v1.34A5.51,5.51,0,0,1,162.35,20.86Z"/><path d="M175.81,15.7a5.53,5.53,0,0,1-1.22,3.8,4.33,4.33,0,0,1-3.39,1.36,4.46,4.46,0,0,1-2.37-.62,4.11,4.11,0,0,1-1.59-1.8,6.18,6.18,0,0,1-.57-2.74,5.5,5.5,0,0,1,1.22-3.79,4.3,4.3,0,0,1,3.37-1.35A4.19,4.19,0,0,1,174.58,12,5.43,5.43,0,0,1,175.81,15.7Zm-7.58,0a4.68,4.68,0,0,0,.77,2.9,2.62,2.62,0,0,0,2.24,1,2.66,2.66,0,0,0,2.24-1,4.7,4.7,0,0,0,.77-2.91,4.64,4.64,0,0,0-.77-2.88,2.7,2.7,0,0,0-2.26-1,2.63,2.63,0,0,0-2.23,1A4.6,4.6,0,0,0,168.23,15.7Z"/><path d="M239.81,17.15a3.26,3.26,0,0,1-1.27,2.73,5.48,5.48,0,0,1-3.45,1,8.76,8.76,0,0,1-3.63-.6V18.77a9.49,9.49,0,0,0,1.78.54,8.83,8.83,0,0,0,1.9.2,3.87,3.87,0,0,0,2.33-.58,1.93,1.93,0,0,0,.78-1.63,2,2,0,0,0-.28-1.13,2.49,2.49,0,0,0-.92-.81,13.37,13.37,0,0,0-2-.85,6.24,6.24,0,0,1-2.64-1.57,3.44,3.44,0,0,1-.8-2.36,2.93,2.93,0,0,1,1.16-2.44,4.73,4.73,0,0,1,3-.91,9,9,0,0,1,3.64.72L239,9.3a8.2,8.2,0,0,0-3.19-.69,3.11,3.11,0,0,0-1.92.52,1.74,1.74,0,0,0-.69,1.46,2.22,2.22,0,0,0,.26,1.13,2.3,2.3,0,0,0,.85.81,10.11,10.11,0,0,0,1.85.81,7.32,7.32,0,0,1,2.87,1.6A3.12,3.12,0,0,1,239.81,17.15Z"/><path d="M243.71,10.74v6.45a2.58,2.58,0,0,0,.55,1.81,2.27,2.27,0,0,0,1.74.6,2.82,2.82,0,0,0,2.28-.85A4.32,4.32,0,0,0,249,16V10.74h1.5v9.94h-1.24L249,19.35H249a3,3,0,0,1-1.28,1.12,4.33,4.33,0,0,1-1.88.39,3.77,3.77,0,0,1-2.71-.86,3.67,3.67,0,0,1-.91-2.76v-6.5Z"/><path d="M258.32,20.86a4.47,4.47,0,0,1-1.77-.35,3.42,3.42,0,0,1-1.35-1.11h-.1a13.75,13.75,0,0,1,.1,1.65v4.1h-1.5V10.74h1.22l.21,1.36h.07a3.52,3.52,0,0,1,1.36-1.18,4.1,4.1,0,0,1,1.76-.36,3.69,3.69,0,0,1,3.06,1.35,6,6,0,0,1,1.07,3.79,5.94,5.94,0,0,1-1.09,3.81A3.69,3.69,0,0,1,258.32,20.86Zm-.21-9a2.69,2.69,0,0,0-2.21.84,4.42,4.42,0,0,0-.7,2.69v.33a5,5,0,0,0,.7,3,2.66,2.66,0,0,0,2.24.9,2.31,2.31,0,0,0,2-1,4.93,4.93,0,0,0,.73-2.88,4.72,4.72,0,0,0-.73-2.85A2.39,2.39,0,0,0,258.11,11.84Z"/><path d="M269.29,20.86a4.55,4.55,0,0,1-3.48-1.34,5.2,5.2,0,0,1-1.28-3.73A5.78,5.78,0,0,1,265.72,12a3.91,3.91,0,0,1,3.17-1.41,3.74,3.74,0,0,1,3,1.23A4.69,4.69,0,0,1,272.94,15v1h-6.85a3.93,3.93,0,0,0,.89,2.66,3,3,0,0,0,2.36.91,8.09,8.09,0,0,0,3.17-.67v1.34a7.77,7.77,0,0,1-1.51.49A8.35,8.35,0,0,1,269.29,20.86Zm-.41-9a2.45,2.45,0,0,0-1.91.78,3.54,3.54,0,0,0-.84,2.16h5.2a3.31,3.31,0,0,0-.64-2.18A2.22,2.22,0,0,0,268.88,11.82Z"/><path d="M280.05,10.56a5.32,5.32,0,0,1,1.18.11l-.2,1.39a5.24,5.24,0,0,0-1.09-.13,2.63,2.63,0,0,0-2.07,1,3.56,3.56,0,0,0-.86,2.44v5.33h-1.5V10.74h1.24l.17,1.84H277a4.35,4.35,0,0,1,1.33-1.5A3,3,0,0,1,280.05,10.56Z"/><path d="M283,8a1,1,0,0,1,.25-.75.89.89,0,0,1,.64-.24.88.88,0,0,1,.62.24,1,1,0,0,1,.27.75,1,1,0,0,1-.27.76.84.84,0,0,1-.62.25.86.86,0,0,1-.64-.25A1,1,0,0,1,283,8Zm1.63,12.64h-1.51V10.74h1.51Z"/><path d="M296.38,15.7a5.48,5.48,0,0,1-1.23,3.8,4.29,4.29,0,0,1-3.38,1.36,4.46,4.46,0,0,1-2.37-.62,4.19,4.19,0,0,1-1.6-1.8,6.32,6.32,0,0,1-.56-2.74,5.45,5.45,0,0,1,1.22-3.79,4.3,4.3,0,0,1,3.37-1.35A4.2,4.2,0,0,1,295.15,12,5.43,5.43,0,0,1,296.38,15.7Zm-7.58,0a4.69,4.69,0,0,0,.76,2.9,2.64,2.64,0,0,0,2.24,1,2.67,2.67,0,0,0,2.25-1,4.7,4.7,0,0,0,.77-2.91,4.64,4.64,0,0,0-.77-2.88,2.71,2.71,0,0,0-2.26-1,2.66,2.66,0,0,0-2.24,1A4.66,4.66,0,0,0,288.8,15.7Z"/><path d="M303.55,10.56a5.42,5.42,0,0,1,1.19.11l-.21,1.39a5.09,5.09,0,0,0-1.09-.13,2.63,2.63,0,0,0-2.06,1,3.56,3.56,0,0,0-.86,2.44v5.33H299V10.74h1.24l.17,1.84h.07a4.38,4.38,0,0,1,1.34-1.5A3,3,0,0,1,303.55,10.56Z"/><path d="M406.2,20.68h-1.54V7.42h7.39V8.79H406.2v4.85h5.5V15h-5.5Z"/><path d="M418.55,10.56a5.36,5.36,0,0,1,1.19.11l-.2,1.39a5.24,5.24,0,0,0-1.09-.13,2.63,2.63,0,0,0-2.07,1,3.56,3.56,0,0,0-.86,2.44v5.33H414V10.74h1.24l.17,1.84h.08a4.35,4.35,0,0,1,1.33-1.5A3,3,0,0,1,418.55,10.56Z"/><path d="M430.19,15.7A5.48,5.48,0,0,1,429,19.5a4.29,4.29,0,0,1-3.38,1.36,4.46,4.46,0,0,1-2.37-.62,4.19,4.19,0,0,1-1.6-1.8,6.32,6.32,0,0,1-.56-2.74,5.5,5.5,0,0,1,1.22-3.79,4.3,4.3,0,0,1,3.37-1.35A4.2,4.2,0,0,1,429,12,5.43,5.43,0,0,1,430.19,15.7Zm-7.58,0a4.69,4.69,0,0,0,.76,2.9,2.64,2.64,0,0,0,2.24,1,2.67,2.67,0,0,0,2.25-1,4.7,4.7,0,0,0,.77-2.91,4.64,4.64,0,0,0-.77-2.88,2.71,2.71,0,0,0-2.26-1,2.66,2.66,0,0,0-2.24,1A4.66,4.66,0,0,0,422.61,15.7Z"/><path d="M439.63,20.68V14.25a2.56,2.56,0,0,0-.55-1.81,2.26,2.26,0,0,0-1.73-.6,2.85,2.85,0,0,0-2.29.84,4.22,4.22,0,0,0-.73,2.79v5.21h-1.5V10.74h1.22l.25,1.36h.07a3.08,3.08,0,0,1,1.3-1.14,4.16,4.16,0,0,1,1.86-.4,3.81,3.81,0,0,1,2.7.86,3.73,3.73,0,0,1,.91,2.78v6.48Z"/><path d="M447.44,19.62a4.72,4.72,0,0,0,.77-.06,5.42,5.42,0,0,0,.59-.12v1.15a2.55,2.55,0,0,1-.72.2,5.51,5.51,0,0,1-.86.07c-1.92,0-2.88-1-2.88-3V11.91h-1.42v-.73l1.42-.62L445,8.43h.88v2.31h2.88v1.17h-2.88v5.85a2,2,0,0,0,.42,1.38A1.5,1.5,0,0,0,447.44,19.62Z"/><path d="M456.91,20.68l-.3-1.41h-.08a4.15,4.15,0,0,1-1.48,1.26,4.54,4.54,0,0,1-1.85.33,3.28,3.28,0,0,1-2.31-.76,2.78,2.78,0,0,1-.84-2.17c0-2,1.6-3.06,4.81-3.15l1.69-.06V14.1a2.52,2.52,0,0,0-.5-1.72,2,2,0,0,0-1.61-.56,6.49,6.49,0,0,0-2.81.76l-.47-1.15a6.92,6.92,0,0,1,1.61-.63,7.07,7.07,0,0,1,1.76-.22,3.81,3.81,0,0,1,2.63.78A3.28,3.28,0,0,1,458,13.9v6.78Zm-3.41-1.06a3.06,3.06,0,0,0,2.21-.77,2.82,2.82,0,0,0,.8-2.16v-.9l-1.5.07a5.45,5.45,0,0,0-2.59.55,1.69,1.69,0,0,0-.79,1.54,1.53,1.53,0,0,0,.49,1.24A2,2,0,0,0,453.5,19.62Z"/><path d="M462.63,20.68h-1.51V6.57h1.51Z"/><path d="M574.32,20.68V7.42h1.55V19.29h5.85v1.39Z"/><path d="M589.86,20.68l-.3-1.41h-.08A4.15,4.15,0,0,1,588,20.53a4.54,4.54,0,0,1-1.85.33,3.28,3.28,0,0,1-2.31-.76,2.78,2.78,0,0,1-.84-2.17c0-2,1.6-3.06,4.81-3.15l1.69-.06V14.1a2.52,2.52,0,0,0-.5-1.72,2,2,0,0,0-1.61-.56,6.49,6.49,0,0,0-2.81.76l-.47-1.15a6.92,6.92,0,0,1,1.61-.63,7.07,7.07,0,0,1,1.76-.22,3.81,3.81,0,0,1,2.63.78A3.28,3.28,0,0,1,591,13.9v6.78Zm-3.41-1.06a3.06,3.06,0,0,0,2.21-.77,2.83,2.83,0,0,0,.81-2.16v-.9l-1.51.07a5.45,5.45,0,0,0-2.59.55,1.69,1.69,0,0,0-.79,1.54,1.53,1.53,0,0,0,.49,1.24A2,2,0,0,0,586.45,19.62Z"/><path d="M597.29,19.62a4.9,4.9,0,0,0,.77-.06,6,6,0,0,0,.59-.12v1.15a2.77,2.77,0,0,1-.72.2,5.61,5.61,0,0,1-.86.07c-1.93,0-2.89-1-2.89-3V11.91h-1.42v-.73l1.42-.62.64-2.13h.87v2.31h2.88v1.17h-2.88v5.85a2,2,0,0,0,.43,1.38A1.47,1.47,0,0,0,597.29,19.62Z"/><path d="M604.84,20.86a4.55,4.55,0,0,1-3.48-1.34,5.2,5.2,0,0,1-1.28-3.73A5.83,5.83,0,0,1,601.26,12a3.94,3.94,0,0,1,3.18-1.41,3.74,3.74,0,0,1,3,1.23A4.69,4.69,0,0,1,608.49,15v1h-6.85a3.93,3.93,0,0,0,.89,2.66,3,3,0,0,0,2.36.91,8.09,8.09,0,0,0,3.17-.67v1.34a7.77,7.77,0,0,1-1.51.49A8.35,8.35,0,0,1,604.84,20.86Zm-.41-9a2.45,2.45,0,0,0-1.91.78,3.54,3.54,0,0,0-.84,2.16h5.2a3.31,3.31,0,0,0-.64-2.18A2.22,2.22,0,0,0,604.43,11.82Z"/><path d="M615.6,10.56a5.32,5.32,0,0,1,1.18.11l-.2,1.39a5.24,5.24,0,0,0-1.09-.13,2.63,2.63,0,0,0-2.07,1,3.56,3.56,0,0,0-.86,2.44v5.33h-1.5V10.74h1.24l.17,1.84h.08a4.35,4.35,0,0,1,1.33-1.5A3,3,0,0,1,615.6,10.56Z"/><path d="M624.76,20.68l-.3-1.41h-.07a4.17,4.17,0,0,1-1.49,1.26,4.49,4.49,0,0,1-1.84.33,3.31,3.31,0,0,1-2.32-.76,2.78,2.78,0,0,1-.84-2.17c0-2,1.61-3.06,4.82-3.15l1.69-.06V14.1a2.47,2.47,0,0,0-.51-1.72,2,2,0,0,0-1.61-.56,6.49,6.49,0,0,0-2.81.76L619,11.43a6.75,6.75,0,0,1,1.61-.63,7,7,0,0,1,1.75-.22,3.82,3.82,0,0,1,2.64.78,3.32,3.32,0,0,1,.86,2.54v6.78Zm-3.4-1.06a3.1,3.1,0,0,0,2.21-.77,2.86,2.86,0,0,0,.8-2.16v-.9l-1.51.07a5.48,5.48,0,0,0-2.59.55,1.69,1.69,0,0,0-.79,1.54,1.53,1.53,0,0,0,.49,1.24A2,2,0,0,0,621.36,19.62Z"/><path d="M630.48,20.68H629V6.57h1.5Z"/><text class="cls-4" transform="translate(597 70.68)">?</text><line class="cls-3" x1="184.63" y1="1" x2="184.63" y2="106.68"/><line class="cls-3" x1="347" y1="1" x2="347" y2="106.68"/><line class="cls-3" x1="520" y1="1" x2="520" y2="106.68"/></svg>