<svg id="Layer_1" data-name="Layer 1" xmlns="http://www.w3.org/2000/svg" viewBox="0 0 398.52 268.15"><defs><style>.cls-1,.cls-6,.cls-9{fill:none;}.cls-1{stroke:#00e8ec;stroke-width:2px;}.cls-1,.cls-10,.cls-11,.cls-13,.cls-6,.cls-8,.cls-9{stroke-miterlimit:10;}.cls-2{fill:#00aaad;}.cls-3{fill:#913f2c;}.cls-4{fill:#ffcb08;}.cls-5{fill:#bf966d;}.cls-6{stroke:#6d4f30;}.cls-11,.cls-6{stroke-width:0.25px;}.cls-7{fill:#ffe07d;}.cls-8{fill:#c7ffee;}.cls-8,.cls-9{stroke:#ffe07d;}.cls-13,.cls-8,.cls-9{stroke-width:0.5px;}.cls-10{fill:#65ba32;stroke:#65ba32;}.cls-11{fill:#bc6931;stroke:#844c25;}.cls-12{fill:#348f44;}.cls-13{fill:#ffca0b;stroke:#fff09c;}.cls-14{fill:#ef5124;}</style></defs><title>40315010201374</title><rect class="cls-1" x="24.46" y="6.5" width="365.75" height="239.38" rx="7.25" ry="7.25"/><line class="cls-1" x1="61.59" y1="7.06" x2="61.59" y2="246.44"/><line class="cls-1" x1="98.17" y1="7.06" x2="98.17" y2="246.44"/><line class="cls-1" x1="134.75" y1="7.06" x2="134.75" y2="246.44"/><line class="cls-1" x1="171.32" y1="7.06" x2="171.32" y2="246.44"/><line class="cls-1" x1="207.9" y1="7.06" x2="207.9" y2="246.44"/><line class="cls-1" x1="244.48" y1="7.06" x2="244.48" y2="246.44"/><line class="cls-1" x1="281.06" y1="7.06" x2="281.06" y2="246.44"/><line class="cls-1" x1="317.64" y1="7.06" x2="317.64" y2="246.44"/><line class="cls-1" x1="354.21" y1="7.06" x2="354.21" y2="246.44"/><line class="cls-1" x1="24.46" y1="30.58" x2="390.21" y2="30.58"/><line class="cls-1" x1="24.46" y1="54.51" x2="390.21" y2="54.51"/><line class="cls-1" x1="24.46" y1="78.44" x2="390.21" y2="78.44"/><line class="cls-1" x1="24.46" y1="102.37" x2="390.21" y2="102.37"/><line class="cls-1" x1="24.46" y1="126.29" x2="390.21" y2="126.29"/><line class="cls-1" x1="24.46" y1="150.22" x2="390.21" y2="150.22"/><line class="cls-1" x1="24.46" y1="174.15" x2="390.21" y2="174.15"/><line class="cls-1" x1="24.46" y1="198.07" x2="390.21" y2="198.07"/><line class="cls-1" x1="24.46" y1="222" x2="390.21" y2="222"/><path d="M5.29,13H4.09V5.27c0-.64,0-1.24.06-1.82a3.75,3.75,0,0,1-.35.33L2,5.22l-.65-.84L4.25,2.17h1Z"/><path d="M16.57,7.56a7.85,7.85,0,0,1-.89,4.18A3,3,0,0,1,13,13.13a3,3,0,0,1-2.66-1.42,7.79,7.79,0,0,1-.91-4.15,7.88,7.88,0,0,1,.89-4.2A3,3,0,0,1,13,2a3,3,0,0,1,2.67,1.42A7.72,7.72,0,0,1,16.57,7.56Zm-5.91,0A7.89,7.89,0,0,0,11.21,11,1.86,1.86,0,0,0,13,12.07,1.85,1.85,0,0,0,14.76,11a8,8,0,0,0,.55-3.42,7.85,7.85,0,0,0-.55-3.41A1.85,1.85,0,0,0,13,3.06a1.86,1.86,0,0,0-1.77,1.07A7.89,7.89,0,0,0,10.66,7.56Z"/><path d="M16.51,30.51q0,6.35-4.91,6.35a4.86,4.86,0,0,1-1.36-.15V35.65a4.25,4.25,0,0,0,1.34.19,3.25,3.25,0,0,0,2.68-1.1,5.46,5.46,0,0,0,1-3.36h-.09a2.57,2.57,0,0,1-1.08.93,3.38,3.38,0,0,1-1.51.32,3,3,0,0,1-2.28-.85,3.32,3.32,0,0,1-.85-2.4,3.65,3.65,0,0,1,1-2.66,3.29,3.29,0,0,1,2.48-1,3.33,3.33,0,0,1,1.93.57A3.45,3.45,0,0,1,16.06,28,6.6,6.6,0,0,1,16.51,30.51Zm-3.64-3.72a2,2,0,0,0-1.64.68,2.86,2.86,0,0,0-.57,1.89A2.45,2.45,0,0,0,11.19,31a2,2,0,0,0,1.62.61,2.85,2.85,0,0,0,1.24-.27,2.35,2.35,0,0,0,.89-.75,1.71,1.71,0,0,0,.32-1A3.44,3.44,0,0,0,15,28.2a2.4,2.4,0,0,0-.85-1A2.12,2.12,0,0,0,12.87,26.79Z"/><path d="M13,49.91a3.62,3.62,0,0,1,2.34.69,2.27,2.27,0,0,1,.87,1.9,2.36,2.36,0,0,1-.5,1.45,4.31,4.31,0,0,1-1.58,1.2A5.32,5.32,0,0,1,16,56.47a2.5,2.5,0,0,1,.56,1.6,2.69,2.69,0,0,1-.94,2.15A3.83,3.83,0,0,1,13,61a4.09,4.09,0,0,1-2.66-.76,2.6,2.6,0,0,1-.93-2.14c0-1.24.75-2.2,2.26-2.89A4.23,4.23,0,0,1,10.23,54a2.65,2.65,0,0,1-.45-1.5,2.27,2.27,0,0,1,.87-1.87A3.6,3.6,0,0,1,13,49.91Zm-2.34,8.24a1.68,1.68,0,0,0,.62,1.38A2.7,2.7,0,0,0,13,60a2.61,2.61,0,0,0,1.72-.51,1.76,1.76,0,0,0,.61-1.42,1.74,1.74,0,0,0-.57-1.28,6,6,0,0,0-2-1.08,4.29,4.29,0,0,0-1.6,1A2.05,2.05,0,0,0,10.64,58.15ZM13,50.91a2.18,2.18,0,0,0-1.45.44A1.5,1.5,0,0,0,11,52.53a1.68,1.68,0,0,0,.44,1.17,4.48,4.48,0,0,0,1.61,1,4.21,4.21,0,0,0,1.5-1A1.77,1.77,0,0,0,15,52.53a1.44,1.44,0,0,0-.54-1.18A2.23,2.23,0,0,0,13,50.91Z"/><path d="M10.77,84.88l4.48-9.69H9.36V74.06h7.19v1l-4.42,9.83Z"/><path d="M9.53,103.92a7.71,7.71,0,0,1,1.23-4.77,4.39,4.39,0,0,1,3.67-1.58,5.05,5.05,0,0,1,1.32.14v1.06a4.37,4.37,0,0,0-1.31-.18,3.29,3.29,0,0,0-2.65,1.08,5.57,5.57,0,0,0-1,3.41h.09a2.83,2.83,0,0,1,2.58-1.28,3,3,0,0,1,2.29.88,3.33,3.33,0,0,1,.84,2.39,3.68,3.68,0,0,1-.92,2.65,3.25,3.25,0,0,1-2.49,1,3.2,3.2,0,0,1-2.66-1.26A5.55,5.55,0,0,1,9.53,103.92Zm3.63,3.73a2,2,0,0,0,1.63-.67,2.83,2.83,0,0,0,.58-1.91,2.46,2.46,0,0,0-.54-1.68,2,2,0,0,0-1.61-.62,2.61,2.61,0,0,0-1.22.28,2.25,2.25,0,0,0-.89.75,1.73,1.73,0,0,0-.33,1,3.38,3.38,0,0,0,.3,1.42,2.49,2.49,0,0,0,.84,1A2.06,2.06,0,0,0,13.16,107.65Z"/><path d="M12.78,125.6a4,4,0,0,1,2.69.85,2.93,2.93,0,0,1,1,2.32,3.34,3.34,0,0,1-1.07,2.63,4.26,4.26,0,0,1-3,1,5.41,5.41,0,0,1-2.79-.59v-1.18a4.51,4.51,0,0,0,1.29.52,6.15,6.15,0,0,0,1.52.19,3,3,0,0,0,2-.62,2.19,2.19,0,0,0,.72-1.77c0-1.51-.92-2.26-2.77-2.26a11.22,11.22,0,0,0-1.88.21l-.64-.41.41-5h5.38v1.13H11.36l-.27,3.24A8.81,8.81,0,0,1,12.78,125.6Z"/><path d="M17,153.89H15.41v2.49H14.24v-2.49H9v-1.07l5.13-7.32h1.3v7.27H17Zm-2.78-1.12v-3.59c0-.71,0-1.5.07-2.39h-.06c-.24.47-.46.87-.66,1.18l-3.38,4.8Z"/><path d="M16.1,171.77a2.47,2.47,0,0,1-.58,1.7,2.93,2.93,0,0,1-1.65.88v.06a3,3,0,0,1,1.93.82,2.46,2.46,0,0,1,.63,1.75,2.83,2.83,0,0,1-1.07,2.38,4.9,4.9,0,0,1-3,.83,8.52,8.52,0,0,1-1.57-.13,5.34,5.34,0,0,1-1.38-.46v-1.16a7.1,7.1,0,0,0,1.49.53,6.89,6.89,0,0,0,1.51.18c1.87,0,2.8-.74,2.8-2.2,0-1.31-1-2-3.09-2H11v-1h1.07a3.26,3.26,0,0,0,2-.56,1.84,1.84,0,0,0,.74-1.55,1.5,1.5,0,0,0-.55-1.24,2.18,2.18,0,0,0-1.47-.46,4.52,4.52,0,0,0-1.34.2A5.39,5.39,0,0,0,10,171l-.63-.83a5.3,5.3,0,0,1,1.54-.83,5.57,5.57,0,0,1,1.83-.3,3.75,3.75,0,0,1,2.45.72A2.46,2.46,0,0,1,16.1,171.77Z"/><path d="M16.51,203.71H9.4v-1.06l2.85-2.86A21.89,21.89,0,0,0,14,197.91a4.36,4.36,0,0,0,.62-1.09,3.13,3.13,0,0,0,.21-1.15,1.81,1.81,0,0,0-.52-1.37,2,2,0,0,0-1.46-.51,3.67,3.67,0,0,0-1.28.22,5.13,5.13,0,0,0-1.34.81L9.54,194a5,5,0,0,1,3.25-1.24,3.42,3.42,0,0,1,2.39.78,2.68,2.68,0,0,1,.87,2.1,4,4,0,0,1-.58,2,12.73,12.73,0,0,1-2.16,2.55L11,202.51v.06h5.56Z"/><path d="M14,227h-1.2v-7.7c0-.65,0-1.25.06-1.82l-.35.32c-.13.12-.71.6-1.76,1.44l-.65-.84,2.86-2.21h1Z"/><path d="M63.07,264H61.88v-7.7c0-.65,0-1.25,0-1.82-.1.1-.21.21-.34.32s-.72.6-1.76,1.44l-.65-.84L62,253.23h1Z"/><path d="M102.26,264H95.15V263L98,260.12a20.44,20.44,0,0,0,1.71-1.88,4.36,4.36,0,0,0,.62-1.09,3.13,3.13,0,0,0,.21-1.15,1.82,1.82,0,0,0-.52-1.37,2,2,0,0,0-1.46-.51,3.67,3.67,0,0,0-1.28.23,4.8,4.8,0,0,0-1.34.8l-.65-.83a5,5,0,0,1,3.25-1.25,3.42,3.42,0,0,1,2.39.78,2.68,2.68,0,0,1,.87,2.1,4,4,0,0,1-.58,2,12.46,12.46,0,0,1-2.16,2.55l-2.36,2.31v.06h5.56Z"/><path d="M138.35,255.77a2.47,2.47,0,0,1-.58,1.7,2.93,2.93,0,0,1-1.65.88v.06a3,3,0,0,1,1.93.82,2.46,2.46,0,0,1,.63,1.75,2.83,2.83,0,0,1-1.07,2.38,4.9,4.9,0,0,1-3.05.83,8.52,8.52,0,0,1-1.57-.13,5.34,5.34,0,0,1-1.38-.46v-1.16a7.1,7.1,0,0,0,1.49.53,6.89,6.89,0,0,0,1.51.18c1.87,0,2.8-.74,2.8-2.2,0-1.31-1-2-3.09-2h-1.06v-1.05h1.07a3.26,3.26,0,0,0,2-.56,1.84,1.84,0,0,0,.74-1.55,1.5,1.5,0,0,0-.55-1.24,2.18,2.18,0,0,0-1.47-.46,4.52,4.52,0,0,0-1.34.2,5.39,5.39,0,0,0-1.43.71l-.63-.83a5.3,5.3,0,0,1,1.54-.83,5.57,5.57,0,0,1,1.83-.3,3.75,3.75,0,0,1,2.45.72A2.46,2.46,0,0,1,138.35,255.77Z"/><path d="M175.89,261.56h-1.6V264h-1.18v-2.48h-5.26v-1.08l5.14-7.31h1.3v7.27h1.6Zm-2.78-1.12v-3.59c0-.71,0-1.51.08-2.39h-.06a11.26,11.26,0,0,1-.67,1.17l-3.38,4.81Z"/><path d="M208.4,257.44a4,4,0,0,1,2.69.84,2.9,2.9,0,0,1,1,2.32,3.34,3.34,0,0,1-1.07,2.64,4.28,4.28,0,0,1-2.94.95,5.41,5.41,0,0,1-2.79-.59v-1.18a4,4,0,0,0,1.29.52,6.07,6.07,0,0,0,1.51.19,3,3,0,0,0,2-.61,2.21,2.21,0,0,0,.73-1.78c0-1.51-.93-2.26-2.78-2.26a11.33,11.33,0,0,0-1.88.21l-.63-.4.4-5.06h5.38v1.13H207l-.27,3.25A8.14,8.14,0,0,1,208.4,257.44Z"/><path d="M241.78,259.42a7.71,7.71,0,0,1,1.23-4.77,4.39,4.39,0,0,1,3.67-1.58,5,5,0,0,1,1.31.14v1.06a4.25,4.25,0,0,0-1.3-.18,3.28,3.28,0,0,0-2.65,1.08,5.57,5.57,0,0,0-1,3.41h.09a2.83,2.83,0,0,1,2.58-1.28,3,3,0,0,1,2.29.88,3.33,3.33,0,0,1,.84,2.39,3.68,3.68,0,0,1-.92,2.65,3.25,3.25,0,0,1-2.49,1,3.19,3.19,0,0,1-2.66-1.26A5.55,5.55,0,0,1,241.78,259.42Zm3.63,3.73a2,2,0,0,0,1.63-.67,2.83,2.83,0,0,0,.58-1.91,2.46,2.46,0,0,0-.54-1.68,2,2,0,0,0-1.61-.62,2.68,2.68,0,0,0-1.23.28,2.29,2.29,0,0,0-.88.75,1.73,1.73,0,0,0-.33,1,3.38,3.38,0,0,0,.3,1.42,2.49,2.49,0,0,0,.84,1A2.06,2.06,0,0,0,245.41,263.15Z"/><path d="M279.52,264l4.48-9.68h-5.89v-1.13h7.19v1L280.88,264Z"/><path d="M318.35,253.07a3.67,3.67,0,0,1,2.35.69,2.28,2.28,0,0,1,.86,1.9,2.38,2.38,0,0,1-.49,1.46,4.39,4.39,0,0,1-1.58,1.2,5.42,5.42,0,0,1,1.87,1.32,2.47,2.47,0,0,1,.55,1.6,2.68,2.68,0,0,1-.94,2.15,3.84,3.84,0,0,1-2.57.8,4.07,4.07,0,0,1-2.66-.76,2.61,2.61,0,0,1-.94-2.15c0-1.23.76-2.2,2.27-2.89a4.25,4.25,0,0,1-1.47-1.24,2.72,2.72,0,0,1-.44-1.5,2.29,2.29,0,0,1,.87-1.88A3.62,3.62,0,0,1,318.35,253.07ZM316,261.31a1.69,1.69,0,0,0,.61,1.39,2.73,2.73,0,0,0,1.74.49,2.53,2.53,0,0,0,1.71-.52,1.76,1.76,0,0,0,.62-1.42,1.71,1.71,0,0,0-.58-1.27,5.82,5.82,0,0,0-2-1.09,4.43,4.43,0,0,0-1.6,1.05A2,2,0,0,0,316,261.31Zm2.32-7.24a2.15,2.15,0,0,0-1.45.45,1.46,1.46,0,0,0-.53,1.18,1.72,1.72,0,0,0,.44,1.17,4.58,4.58,0,0,0,1.61,1,3.91,3.91,0,0,0,1.5-.95,1.79,1.79,0,0,0,.44-1.19,1.46,1.46,0,0,0-.54-1.19A2.24,2.24,0,0,0,318.34,254.07Z"/><path d="M357.51,257.84q0,6.35-4.91,6.35a4.86,4.86,0,0,1-1.36-.15V263a4.24,4.24,0,0,0,1.34.2,3.28,3.28,0,0,0,2.68-1.1,5.49,5.49,0,0,0,1-3.37h-.09a2.66,2.66,0,0,1-1.08.94,3.52,3.52,0,0,1-1.51.32,3.05,3.05,0,0,1-2.28-.86,3.28,3.28,0,0,1-.85-2.4,3.67,3.67,0,0,1,.95-2.66,3.58,3.58,0,0,1,4.4-.41,3.57,3.57,0,0,1,1.27,1.65A6.6,6.6,0,0,1,357.51,257.84Zm-3.64-3.72a2,2,0,0,0-1.64.68,2.89,2.89,0,0,0-.57,1.9,2.41,2.41,0,0,0,.53,1.67,2,2,0,0,0,1.62.61,2.85,2.85,0,0,0,1.24-.27,2.25,2.25,0,0,0,.89-.75,1.67,1.67,0,0,0,.32-1,3.39,3.39,0,0,0-.3-1.43,2.43,2.43,0,0,0-.85-1A2.12,2.12,0,0,0,353.87,254.12Z"/><path d="M386.49,264h-1.2v-7.7c0-.65,0-1.25.06-1.82l-.35.32c-.13.12-.71.6-1.76,1.44l-.65-.84,2.86-2.21h1Z"/><path d="M397.77,258.62a7.91,7.91,0,0,1-.89,4.19,3,3,0,0,1-2.7,1.38,2.94,2.94,0,0,1-2.65-1.42,7.7,7.7,0,0,1-.91-4.15,7.85,7.85,0,0,1,.88-4.19,3.26,3.26,0,0,1,5.35.06A7.68,7.68,0,0,1,397.77,258.62Zm-5.91,0a8,8,0,0,0,.55,3.44,2,2,0,0,0,3.55,0,8,8,0,0,0,.55-3.42,7.88,7.88,0,0,0-.55-3.41,2,2,0,0,0-3.55,0A7.92,7.92,0,0,0,391.86,258.62Z"/><circle class="cls-2" cx="171.32" cy="102.37" r="3.96"/><circle class="cls-2" cx="244.48" cy="126.19" r="3.96"/><circle class="cls-2" cx="171.32" cy="174.15" r="3.96"/><rect class="cls-3" x="193.45" y="71.9" width="3.9" height="6.46"/><rect class="cls-3" x="192.9" y="71.4" width="4.9" height="0.9"/><path class="cls-4" d="M199.4,100.68H174.83a.65.65,0,0,1-.7-.58V83.25l13-9.5,13,9.5V100.1A.65.65,0,0,1,199.4,100.68Z"/><path class="cls-5" d="M202.57,87.56,187.09,74,171.61,87.56a.17.17,0,0,1-.29-.13V82.74a.2.2,0,0,1,.06-.13l15.19-13.33a.81.81,0,0,1,1.09,0L202.8,82.61a.2.2,0,0,1,.06.13v4.69A.17.17,0,0,1,202.57,87.56Z"/><path class="cls-5" d="M181.61,88.57h0a3.33,3.33,0,0,1,3.33,3.33v8.78a0,0,0,0,1,0,0h-6.66a0,0,0,0,1,0,0V91.89a3.33,3.33,0,0,1,3.33-3.33Z"/><path class="cls-6" d="M180.21,91.57h0a.83.83,0,0,1,.83.83v2.08a0,0,0,0,1,0,0h-1.65a0,0,0,0,1,0,0V92.4a.83.83,0,0,1,.83-.83Z"/><path class="cls-6" d="M183,91.57h0a.83.83,0,0,1,.83.83v2.08a0,0,0,0,1,0,0h-1.65a0,0,0,0,1,0,0V92.4A.83.83,0,0,1,183,91.57Z"/><path class="cls-6" d="M180.21,97h0a.83.83,0,0,1,.83.83v2.08a0,0,0,0,1,0,0h-1.65a0,0,0,0,1,0,0V97.8A.83.83,0,0,1,180.21,97Z"/><path class="cls-6" d="M183,97h0a.83.83,0,0,1,.83.83v2.08a0,0,0,0,1,0,0h-1.65a0,0,0,0,1,0,0V97.8A.83.83,0,0,1,183,97Z"/><circle class="cls-7" cx="183.76" cy="95.95" r="0.33"/><rect class="cls-8" x="187.79" y="86.06" width="9.56" height="9.56"/><line class="cls-9" x1="192.57" y1="86.29" x2="192.57" y2="95.35"/><line class="cls-9" x1="187.82" y1="90.84" x2="197.38" y2="90.84"/><circle class="cls-10" cx="254.61" cy="108.79" r="7.54"/><circle class="cls-10" cx="263.55" cy="105.92" r="7.54"/><circle class="cls-10" cx="262.15" cy="109.49" r="7.54"/><circle class="cls-10" cx="267.77" cy="109.49" r="7.54"/><circle class="cls-10" cx="266.94" cy="100.87" r="7.54"/><circle class="cls-10" cx="256.02" cy="100.17" r="7.54"/><circle class="cls-10" cx="262.15" cy="98" r="7.54"/><circle class="cls-10" cx="251.93" cy="104.9" r="7.54"/><circle class="cls-10" cx="268.72" cy="104.9" r="7.54"/><path class="cls-11" d="M264.24,125.5H257a.07.07,0,0,1-.08-.08l.06-1.86a.15.15,0,0,1,0-.07l1-5.84a10.39,10.39,0,0,0,0-2,5.24,5.24,0,0,1,0-1l.17-2a4.69,4.69,0,0,0-.72-2.94,6.56,6.56,0,0,0-.36-.56l-3.43-3.65a.24.24,0,0,0-.15-.09l-2.56-.65h0a.09.09,0,0,1,.09-.11l2.12.49a.07.07,0,0,0,.06-.11l-.64-.68h0a1,1,0,0,1,.69.28l4.13,4,.91.56-1.07-8.8h0a.31.31,0,0,1,.31.23l.69,2.45a0,0,0,0,0,.06,0l2.85-6.6.19.7-2.48,7.22a1.2,1.2,0,0,0,0,.77l.88,3.11a.55.55,0,0,0,.39.39,1.77,1.77,0,0,1,.37.12l.85.36a.28.28,0,0,0,.38-.17l1.6-5.26a.09.09,0,0,0,0-.11l-.91-.82a.3.3,0,0,1-.08-.31l0-.15h0l1.06,1.2.49-1.69v0l.21-.17s0,0,0,0l-.18.74a.44.44,0,0,0,.37.54l1.24.17-.09.09-1.65-.06s-.07,0-.07,0l-1.36,5.52h0a1.1,1.1,0,0,0,.36,0,2.23,2.23,0,0,0,1.44-.73l2.9-2.76a.16.16,0,0,0,.05-.16l-.48-1.64.1-.09.58,1.36a.15.15,0,0,0,.25,0l1.94-1.84h.16l-2.38,2.51a.45.45,0,0,0,.31.76l1.66,0-.13.14-2.67.07a.32.32,0,0,0-.24.11l-2.36,2.48-1,4a4.53,4.53,0,0,0-.11,1.6l1,9.1a3.66,3.66,0,0,0,.52,1.54h0A.11.11,0,0,1,264.24,125.5Z"/><path class="cls-12" d="M180,172s-9.21-.22-9.68-3.4c0,0,4.75-1.37,8.27,1A3.53,3.53,0,0,1,180,172Z"/><path class="cls-12" d="M180.47,170.4s8.36-.22,8.79-3.4c0,0-4.32-1.37-7.51,1A3.67,3.67,0,0,0,180.47,170.4Z"/><path class="cls-12" d="M179.64,172.13a9.94,9.94,0,0,0-1.35-9.41h1.29s2,6.55,1,8.94S179.64,172.13,179.64,172.13Z"/><path class="cls-13" d="M177.58,159.51s-6.11-.14-6.42-2.25c0,0,3.16-.91,5.49.69A2.34,2.34,0,0,1,177.58,159.51Z"/><path class="cls-13" d="M177.58,159.7s-5.22,3.17-6.62,1.56c0,0,2.16-2.47,5-2.38A2.34,2.34,0,0,1,177.58,159.7Z"/><path class="cls-13" d="M177.58,159.89s-3.37,5.1-5.32,4.24c0,0,.9-3.16,3.5-4.28A2.35,2.35,0,0,1,177.58,159.89Z"/><path class="cls-13" d="M177.65,160.1s.08,6.1-2,6.49c0,0-1-3.12.48-5.51A2.33,2.33,0,0,1,177.65,160.1Z"/><path class="cls-13" d="M174.75,153.16s4.23,4.41,3,6.13c0,0-2.88-1.58-3.4-4.36A2.35,2.35,0,0,1,174.75,153.16Z"/><path class="cls-13" d="M178.07,158.88s-2.18-5.71-.35-6.8c0,0,2,2.58,1.44,5.34A2.34,2.34,0,0,1,178.07,158.88Z"/><path class="cls-13" d="M180.72,159.85s6.89-.14,7.24-2.25c0,0-3.56-.91-6.19.69A2.27,2.27,0,0,0,180.72,159.85Z"/><path class="cls-13" d="M180.72,160s5.89,3.17,7.47,1.56a8.58,8.58,0,0,0-5.63-2.38A2.73,2.73,0,0,0,180.72,160Z"/><path class="cls-13" d="M180.72,160.23s3.81,5.1,6,4.24a7.42,7.42,0,0,0-4-4.28A3,3,0,0,0,180.72,160.23Z"/><path class="cls-13" d="M180.64,160.44s-.09,6.1,2.27,6.49c0,0,1.16-3.12-.55-5.51A2.69,2.69,0,0,0,180.64,160.44Z"/><path class="cls-13" d="M183.92,153.51s-4.77,4.41-3.34,6.12c0,0,3.24-1.58,3.84-4.36A2.16,2.16,0,0,0,183.92,153.51Z"/><path class="cls-13" d="M181.19,152.24s.91,6-1.12,6.71c0,0-1.44-2.95-.26-5.52A2.35,2.35,0,0,1,181.19,152.24Z"/><path class="cls-13" d="M179.18,151.8s1.91,5.8,0,6.8c0,0-1.91-2.67-1.18-5.4A2.32,2.32,0,0,1,179.18,151.8Z"/><path class="cls-13" d="M177.85,160.92s-2.18,6.2-.34,7.38a8.39,8.39,0,0,0,1.44-5.8A2.54,2.54,0,0,0,177.85,160.92Z"/><path class="cls-13" d="M181,168.13s.9-6.57-1.13-7.29c0,0-1.43,3.2-.26,6A2.38,2.38,0,0,0,181,168.13Z"/><path class="cls-13" d="M179,168.61s1.9-6.31,0-7.39a8.37,8.37,0,0,0-1.19,5.87A2.47,2.47,0,0,0,179,168.61Z"/><rect class="cls-14" x="176.29" y="157.5" width="5.42" height="5.42" rx="2.58" ry="2.58"/><path d="M17.59,253.36a7.45,7.45,0,0,1-.85,4,2.84,2.84,0,0,1-2.57,1.32,2.82,2.82,0,0,1-2.53-1.35,7.36,7.36,0,0,1-.87-4,7.54,7.54,0,0,1,.84-4,2.83,2.83,0,0,1,2.56-1.3,2.83,2.83,0,0,1,2.55,1.36A7.35,7.35,0,0,1,17.59,253.36Zm-5.64,0a7.63,7.63,0,0,0,.53,3.28,1.78,1.78,0,0,0,1.69,1,1.77,1.77,0,0,0,1.69-1,10.26,10.26,0,0,0,0-6.51,1.76,1.76,0,0,0-1.69-1,1.78,1.78,0,0,0-1.69,1A7.55,7.55,0,0,0,12,253.36Z"/></svg>