<svg id="Layer_1" data-name="Layer 1" xmlns="http://www.w3.org/2000/svg" viewBox="0 0 521 521"><defs><style>.cls-1{fill:#fff;}.cls-2{fill:#00aaad;}.cls-3{fill:#30358f;}.cls-4{fill:none;stroke:#00aaad;stroke-width:5px;}.cls-4,.cls-5,.cls-7{stroke-miterlimit:10;}.cls-5,.cls-6{fill:#f59487;}.cls-5{stroke:#f59487;}.cls-5,.cls-7{stroke-width:6px;}.cls-7,.cls-8{fill:#57d0c5;}.cls-7{stroke:#57d0c5;}</style></defs><title>40420010201808_Opcion 2</title><path class="cls-1" d="M260.5,518.5A258,258,0,0,1,78.07,78.07,258,258,0,1,1,442.93,442.93,256.31,256.31,0,0,1,260.5,518.5Z"/><path class="cls-2" d="M260.5,5C401.61,5,516,119.39,516,260.5S401.61,516,260.5,516,5,401.61,5,260.5,119.39,5,260.5,5m0-5A260.57,260.57,0,0,0,159.1,500.53,260.57,260.57,0,0,0,361.9,20.47,259,259,0,0,0,260.5,0Z"/><path class="cls-3" d="M248.89,23.93h5.63V54.17h-6.16V29.75L242.72,33l-2.43-4.56Z"/><path class="cls-3" d="M270.19,23.41a11,11,0,0,1,7.21,2.33,8.16,8.16,0,0,1,2.88,6.72,10.92,10.92,0,0,1-2,5.95q-2.43,3.81-10.07,10.66h12v5.1H259.64V50.26l10.23-10.45Q274,35.5,274,32.63a4,4,0,0,0-1.19-3,4.53,4.53,0,0,0-3.25-1.09,8.79,8.79,0,0,0-6.61,3.2L259.64,28A14.23,14.23,0,0,1,270.19,23.41Z"/><path class="cls-3" d="M370.53,50.86h5.63V81.1H370V56.68l-5.63,3.26-2.43-4.56Z"/><path class="cls-3" d="M148.16,48.68h5.63V78.92h-6.17V54.5L142,57.76l-2.43-4.56Z"/><path class="cls-3" d="M167.07,48.68h5.63V78.92h-6.16V54.5l-5.63,3.26-2.43-4.56Z"/><path class="cls-3" d="M66.64,125.83h5.63v30.24H66.11V131.66l-5.63,3.26-2.43-4.56Z"/><path class="cls-3" d="M99.93,129.82a18.61,18.61,0,0,1,0,22.35,12.18,12.18,0,0,1-18.81,0,18.68,18.68,0,0,1,0-22.4,12.12,12.12,0,0,1,18.81,0ZM85.6,133.38a16,16,0,0,0-.09,15.24,5.78,5.78,0,0,0,10,0,16.1,16.1,0,0,0,0-15.21,5.74,5.74,0,0,0-5-3A5.64,5.64,0,0,0,85.6,133.38Z"/><path class="cls-3" d="M33.91,277.46a15.57,15.57,0,0,1-9.69-3.71l3.52-3.66a9.61,9.61,0,0,0,6,2.3A6.66,6.66,0,0,0,38.9,270a9.18,9.18,0,0,0,1.89-6.61,10.88,10.88,0,0,1-7.35,2.9,10.14,10.14,0,0,1-7.21-2.75,9.06,9.06,0,0,1-3-6.87A9.78,9.78,0,0,1,26.59,249a11.61,11.61,0,0,1,8-2.85,11.47,11.47,0,0,1,8.83,3.58q3.7,3.94,3.71,11.75a19.24,19.24,0,0,1-3.24,11.43Q40.67,277.46,33.91,277.46Zm5.18-17.63a4.47,4.47,0,0,0,1.62-3.52,4.71,4.71,0,0,0-1.62-3.6,5.58,5.58,0,0,0-3.94-1.5,5.72,5.72,0,0,0-4,1.5,4.66,4.66,0,0,0-1.67,3.6,4.55,4.55,0,0,0,1.67,3.56,5.82,5.82,0,0,0,4,1.45A5.62,5.62,0,0,0,39.09,259.83Z"/><path class="cls-3" d="M83.6,369.85a6.86,6.86,0,0,1,1.6,9.92,7.89,7.89,0,0,1-4,2.52q6.49,2.2,6.5,8.12a7.25,7.25,0,0,1-3.31,6.38A14.76,14.76,0,0,1,76,399a14.84,14.84,0,0,1-8.47-2.24,7.26,7.26,0,0,1-3.32-6.38q0-5.91,6.5-8.12a7.86,7.86,0,0,1-4-2.52,6.5,6.5,0,0,1-1.45-4.27,6.59,6.59,0,0,1,3.08-5.67A13.09,13.09,0,0,1,76,367.7,12.81,12.81,0,0,1,83.6,369.85ZM72,385.87a4.08,4.08,0,0,0-1.58,3.45,4,4,0,0,0,1.6,3.4A6.3,6.3,0,0,0,76,394a6.15,6.15,0,0,0,3.93-1.23,4.06,4.06,0,0,0,1.55-3.4,4.19,4.19,0,0,0-1.55-3.48A6,6,0,0,0,76,384.59,6.25,6.25,0,0,0,72,385.87Zm.53-12.14a2.87,2.87,0,0,0-1.34,2.57,3,3,0,0,0,1.34,2.62,6.94,6.94,0,0,0,6.87,0,3.25,3.25,0,0,0,0-5.23,5.94,5.94,0,0,0-3.43-.92A5.76,5.76,0,0,0,72.55,373.73Z"/><path class="cls-3" d="M139.06,435.93h22.32V440L149,466.17h-7.14l12.47-25.1H139.06Z"/><path class="cls-3" d="M261.8,465.22a15.58,15.58,0,0,1,9.68,3.71L268,472.6a9.53,9.53,0,0,0-6-2.31,6.69,6.69,0,0,0-5.18,2.41,9.23,9.23,0,0,0-1.9,6.61,10.93,10.93,0,0,1,7.36-2.9,10.1,10.1,0,0,1,7.21,2.76,9.07,9.07,0,0,1,3,6.86,9.81,9.81,0,0,1-3.32,7.66,11.64,11.64,0,0,1-8,2.86,11.48,11.48,0,0,1-8.83-3.59q-3.72-3.94-3.71-11.75a19.27,19.27,0,0,1,3.24-11.43Q255,465.22,261.8,465.22Zm-5.18,17.64a4.45,4.45,0,0,0-1.62,3.51,4.74,4.74,0,0,0,1.62,3.61,5.61,5.61,0,0,0,3.93,1.49,5.77,5.77,0,0,0,4-1.49,4.68,4.68,0,0,0,1.66-3.61,4.55,4.55,0,0,0-1.66-3.56,5.88,5.88,0,0,0-4-1.45A5.58,5.58,0,0,0,256.62,482.86Z"/><path class="cls-3" d="M358.3,439.57h19.15v5.1h-14.2l-.77,7.39a10.32,10.32,0,0,1,3.15-1.9,10.07,10.07,0,0,1,3.59-.63,9.7,9.7,0,0,1,7,2.67,10.88,10.88,0,0,1-.52,15.09,11.87,11.87,0,0,1-8.4,3.09,14.88,14.88,0,0,1-12-5.88l3.84-3.41q3.57,4.21,8,4.22a5.6,5.6,0,0,0,4.14-1.56,5.49,5.49,0,0,0-.07-7.76,5.44,5.44,0,0,0-4-1.6,5.76,5.76,0,0,0-5.2,3.22l-5.23-2Z"/><path class="cls-3" d="M445.52,369h6.25v18.38h3.73v5.19h-3.73v6.67h-6.19v-6.67h-14.8v-4.76Zm.06,8.21-8,10.17h8Z"/><path class="cls-3" d="M484.79,247.63a13.52,13.52,0,0,1,7.84,2.09,7,7,0,0,1,1.56,10,8.07,8.07,0,0,1-3.86,2.51q6.36,2,6.36,7.81a8,8,0,0,1-3,6.56c-2,1.55-4.78,2.33-8.42,2.33A18.4,18.4,0,0,1,474,275.4l4.76-3.73a9.29,9.29,0,0,0,5.84,2.2,6.31,6.31,0,0,0,4.48-1.39,4.87,4.87,0,0,0,1.43-3.65,3.67,3.67,0,0,0-1.49-3.11,7.31,7.31,0,0,0-4.42-1.15h-4.2v-4.8h4.2a6.56,6.56,0,0,0,3.71-.85,2.67,2.67,0,0,0,1.13-2.35A3.53,3.53,0,0,0,488,253.8a5.64,5.64,0,0,0-3.73-1.09,9.56,9.56,0,0,0-4.7,1.28l-4.13-3.63A17.09,17.09,0,0,1,484.79,247.63Z"/><path class="cls-3" d="M449.27,123.14a11,11,0,0,1,7.2,2.32,8.19,8.19,0,0,1,2.88,6.72,10.9,10.9,0,0,1-2,5.95Q455,142,447.33,148.79h12v5.1H438.71V150q8-8.15,10.24-10.45,4.13-4.31,4.13-7.19a4,4,0,0,0-1.19-3,4.56,4.56,0,0,0-3.24-1.08,8.76,8.76,0,0,0-6.61,3.19l-3.33-3.75A14.26,14.26,0,0,1,449.27,123.14Z"/><circle class="cls-4" cx="260.5" cy="260.5" r="246.04"/><line class="cls-5" x1="260.5" y1="261.12" x2="392.02" y2="356.56"/><line class="cls-6" x1="389.64" y1="354.83" x2="367.56" y2="358.34"/><path class="cls-6" d="M388.31,350l-22.08,3.51c-6.34,1-3.65,10.65,2.66,9.64L391,359.65c6.33-1,3.64-10.64-2.66-9.64Z"/><line class="cls-6" x1="389.42" y1="355.13" x2="385.91" y2="333.05"/><path class="cls-6" d="M394.24,353.8l-3.51-22.08c-1-6.34-10.64-3.65-9.64,2.66l3.51,22.08c1,6.34,10.64,3.65,9.64-2.66Z"/><line class="cls-7" x1="262.02" y1="261.12" x2="156.77" y2="260.59"/><line class="cls-8" x1="159.6" y1="260.57" x2="175.52" y2="244.88"/><path class="cls-8" d="M163.13,264.1l15.93-15.69c4.59-4.52-2.48-11.59-7.07-7.07L156.06,257c-4.59,4.52,2.48,11.59,7.07,7.07Z"/><line class="cls-8" x1="159.6" y1="260.2" x2="175.29" y2="276.12"/><path class="cls-8" d="M156.06,263.73l15.7,15.93c4.52,4.59,11.59-2.48,7.07-7.07l-15.69-15.93c-4.53-4.59-11.6,2.48-7.08,7.07Z"/><circle class="cls-3" cx="261.34" cy="263.95" r="17.5"/></svg>