<svg id="Layer_1" data-name="Layer 1" xmlns="http://www.w3.org/2000/svg" viewBox="0 0 854.03 388.5"><defs><style>.cls-1{fill:#337bb1;}.cls-2{fill:none;stroke:#05366a;stroke-miterlimit:10;stroke-width:6px;}</style></defs><title>40423040202080</title><polygon class="cls-1" points="497.58 385.5 3 385.5 126.65 3 373.94 3 497.58 385.5"/><rect class="cls-2" x="3" y="3" width="123.65" height="127.5"/><rect class="cls-2" x="126.65" y="3" width="123.65" height="127.5"/><rect class="cls-2" x="250.29" y="3" width="123.65" height="127.5"/><rect class="cls-2" x="373.94" y="3" width="123.65" height="127.5"/><rect class="cls-2" x="3" y="130.5" width="123.65" height="127.5"/><rect class="cls-2" x="126.65" y="130.5" width="123.65" height="127.5"/><rect class="cls-2" x="250.29" y="130.5" width="123.65" height="127.5"/><rect class="cls-2" x="373.94" y="130.5" width="123.65" height="127.5"/><rect class="cls-2" x="3" y="258" width="123.65" height="127.5"/><rect class="cls-2" x="126.65" y="258" width="123.65" height="127.5"/><rect class="cls-2" x="250.29" y="258" width="123.65" height="127.5"/><rect class="cls-2" x="373.94" y="258" width="123.65" height="127.5"/><rect class="cls-1" x="520.81" y="261" width="123.65" height="127.5"/><rect class="cls-1" x="678.07" y="314.27" width="4.34" height="27.58" rx="2.17" ry="2.17" transform="translate(1008.3 -352.19) rotate(90)"/><rect class="cls-1" x="678.07" y="320.88" width="4.34" height="27.58" rx="2.17" ry="2.17" transform="translate(1014.92 -345.57) rotate(90)"/><path d="M752.19,348.44H745v11.18h-5.29V348.44H716v-4.82l23.08-32.89H745v32.69h7.22Zm-12.51-5V327.26c0-3.18.12-6.76.34-10.75h-.27a49.7,49.7,0,0,1-3,5.29l-15.2,21.62Z"/><path d="M823.56,359.62V335.9q0-4.35-1.86-6.53t-5.78-2.18q-5.16,0-7.62,3t-2.46,9.11v20.36h-5.52V335.9q0-4.35-1.87-6.53t-5.82-2.18q-5.19,0-7.6,3.11t-2.41,10.19v19.13H777.1V323.17h4.49l.9,5h.27a10.81,10.81,0,0,1,4.4-4.15,13.46,13.46,0,0,1,6.37-1.5q8.55,0,11.18,6.19H805a11.62,11.62,0,0,1,4.73-4.53,14.62,14.62,0,0,1,7-1.66q6.18,0,9.26,3.18t3.08,10.16v23.78Z"/><path d="M854,316.11H840.75v-2l5.29-5.32a39.79,39.79,0,0,0,3.19-3.49,8.85,8.85,0,0,0,1.15-2,5.76,5.76,0,0,0,.39-2.13,3.39,3.39,0,0,0-1-2.55,3.77,3.77,0,0,0-2.71-.94,7,7,0,0,0-2.37.41,9.71,9.71,0,0,0-2.49,1.5L841,298a9.27,9.27,0,0,1,6-2.31,6.4,6.4,0,0,1,4.44,1.45,5,5,0,0,1,1.6,3.9,7.49,7.49,0,0,1-1.07,3.78,23.83,23.83,0,0,1-4,4.72l-4.4,4.31V314H854Z"/></svg>