<svg id="Layer_1" data-name="Layer 1" xmlns="http://www.w3.org/2000/svg" viewBox="0 0 792.21 507.78"><defs><style>.cls-1{fill:#337bb1;}.cls-2{fill:#05366a;}</style></defs><title>40423030202064</title><rect class="cls-1" x="59.9" y="50.56" width="301.25" height="455.73"/><path class="cls-2" d="M359.65,52.06V504.78H61.4V52.06H359.65m3-3H58.4V507.78H362.65V49.06Z"/><rect class="cls-1" x="361.15" y="322.49" width="373" height="183.79"/><path class="cls-2" d="M732.65,324V504.78h-370V324h370m3-3h-376V507.78h376V321Z"/><path d="M511,291.17q5.07,0,8,2.51a8.62,8.62,0,0,1,2.91,6.88,9.94,9.94,0,0,1-3.18,7.82c-2.11,1.88-5,2.83-8.74,2.83s-6.37-.58-8.28-1.74V306a12.54,12.54,0,0,0,3.82,1.55,19,19,0,0,0,4.5.56,9,9,0,0,0,6-1.82,6.53,6.53,0,0,0,2.14-5.27q0-6.72-8.23-6.72a33.28,33.28,0,0,0-5.57.64l-1.89-1.21,1.21-15h15.95V282H506.82l-.81,9.63A26.07,26.07,0,0,1,511,291.17Z"/><path d="M549.67,311.21c-3.49,0-6.18-1.07-8.09-3.22s-2.86-5.17-2.86-9.1,1-7.13,2.9-9.32,4.7-3.29,8.29-3.29a16.44,16.44,0,0,1,3.47.37,11.41,11.41,0,0,1,2.72.88L555,290.62a17.06,17.06,0,0,0-2.64-.8,11.88,11.88,0,0,0-2.52-.32q-7.34,0-7.33,9.35c0,3,.6,5.22,1.79,6.8a6.23,6.23,0,0,0,5.3,2.38,16.32,16.32,0,0,0,6.17-1.3V310A13.21,13.21,0,0,1,549.67,311.21Z"/><path d="M592.11,310.77V295.12a6.54,6.54,0,0,0-1.22-4.31,4.76,4.76,0,0,0-3.82-1.44,6.17,6.17,0,0,0-5,1.95c-1.08,1.31-1.62,3.31-1.62,6v13.43h-3.65V295.12a6.48,6.48,0,0,0-1.23-4.31,4.78,4.78,0,0,0-3.84-1.44,5.93,5.93,0,0,0-5,2.05q-1.59,2.06-1.59,6.73v12.62h-3.65V286.71h3L565,290h.17a7.22,7.22,0,0,1,2.91-2.75,8.86,8.86,0,0,1,4.21-1c3.76,0,6.21,1.36,7.37,4.08h.18a7.61,7.61,0,0,1,3.11-3,9.67,9.67,0,0,1,4.65-1.09c2.73,0,4.76.69,6.12,2.09s2,3.63,2,6.71v15.69Z"/><path d="M187.2,31.14h-4.76v7.38H179V31.14H163.34V28l15.23-21.7h3.87V27.83h4.76ZM179,27.83V17.16q0-3.13.22-7.09H179a31,31,0,0,1-2,3.49L167,27.83Z"/><path d="M213.25,39q-5.22,0-8.09-3.22t-2.86-9.1q0-6,2.91-9.32c1.94-2.2,4.7-3.29,8.28-3.29a16.38,16.38,0,0,1,3.47.37,11.41,11.41,0,0,1,2.72.88l-1.12,3.09a16.93,16.93,0,0,0-2.63-.8,11.89,11.89,0,0,0-2.53-.32q-7.32,0-7.33,9.35c0,3,.6,5.22,1.79,6.8a6.23,6.23,0,0,0,5.3,2.38,16.28,16.28,0,0,0,6.17-1.3v3.23A13.21,13.21,0,0,1,213.25,39Z"/><path d="M255.7,38.52V22.87a6.48,6.48,0,0,0-1.23-4.31,4.75,4.75,0,0,0-3.82-1.44,6.19,6.19,0,0,0-5,1.95c-1.08,1.31-1.62,3.31-1.62,6V38.52h-3.64V22.87a6.48,6.48,0,0,0-1.23-4.31,4.78,4.78,0,0,0-3.84-1.44q-3.43,0-5,2.05t-1.59,6.73V38.52H225V14.46h3l.59,3.3h.18A7.09,7.09,0,0,1,231.68,15a8.85,8.85,0,0,1,4.2-1q5.64,0,7.37,4.08h.18a7.63,7.63,0,0,1,3.12-3A9.67,9.67,0,0,1,251.2,14c2.72,0,4.76.69,6.11,2.09s2,3.63,2,6.71V38.52Z"/><path d="M38.52,304.51,9.79,291.21v17.5H6.43V287.35H9.35l29.17,13.13Z"/><path d="M39,259.92q0,5.22-3.22,8.08t-9.09,2.87q-6,0-9.33-2.91T14,259.67a16.3,16.3,0,0,1,.38-3.46,11.11,11.11,0,0,1,.88-2.72l3.09,1.12a16.93,16.93,0,0,0-.8,2.63,11.88,11.88,0,0,0-.32,2.52q0,7.33,9.35,7.33c3,0,5.22-.59,6.8-1.79a6.21,6.21,0,0,0,2.37-5.3,16.21,16.21,0,0,0-1.29-6.16h3.23A13.18,13.18,0,0,1,39,259.92Z"/><path d="M38.52,217.47H22.87a6.48,6.48,0,0,0-4.31,1.23,4.75,4.75,0,0,0-1.44,3.82,6.15,6.15,0,0,0,1.95,5c1.31,1.09,3.31,1.63,6,1.63H38.52v3.64H22.87A6.48,6.48,0,0,0,18.56,234a4.78,4.78,0,0,0-1.44,3.84,6,6,0,0,0,2.05,5q2.05,1.59,6.73,1.59H38.52v3.64H14.46v-3l3.3-.59v-.18A7.22,7.22,0,0,1,15,241.49a8.86,8.86,0,0,1-1-4.2c0-3.76,1.37-6.22,4.09-7.38v-.17a7.69,7.69,0,0,1-3-3.12A9.68,9.68,0,0,1,14,222q0-4.08,2.1-6.11c1.4-1.36,3.63-2,6.71-2H38.52Z"/><path d="M755.49,441.57a7.36,7.36,0,0,1,5,1.72,8.66,8.66,0,0,1,2.61,4.89h.18a9.14,9.14,0,0,1,2.46-5.73,7.24,7.24,0,0,1,5.18-1.87,8.4,8.4,0,0,1,7,3.19q2.47,3.18,2.47,9a26.72,26.72,0,0,1-.38,4.66,16.17,16.17,0,0,1-1.35,4.12h-3.47a21.1,21.1,0,0,0,2.11-8.91q0-8.32-6.52-8.32-5.83,0-5.84,9.17v3.16h-3.14v-3.2a9.68,9.68,0,0,0-1.65-5.95,5.45,5.45,0,0,0-4.6-2.19,4.51,4.51,0,0,0-3.69,1.61,6.68,6.68,0,0,0-1.34,4.38,13.51,13.51,0,0,0,.57,4,17.74,17.74,0,0,0,2.11,4.26l-2.46,1.84a15.4,15.4,0,0,1-2.45-4.55,16.62,16.62,0,0,1-.89-5.43c0-3.12.72-5.54,2.14-7.27A7.24,7.24,0,0,1,755.49,441.57Z"/><path d="M780.47,412.8q0,5.22-3.21,8.09t-9.1,2.86q-6,0-9.33-2.91t-3.29-8.28a16.38,16.38,0,0,1,.37-3.47,11.26,11.26,0,0,1,.88-2.72l3.09,1.12a18.09,18.09,0,0,0-.8,2.63,11.81,11.81,0,0,0-.31,2.52q0,7.33,9.34,7.34,4.44,0,6.81-1.79a6.23,6.23,0,0,0,2.37-5.3,16.09,16.09,0,0,0-1.3-6.17h3.23A13.21,13.21,0,0,1,780.47,412.8Z"/><path d="M780,370.35H764.38a6.5,6.5,0,0,0-4.31,1.23,4.75,4.75,0,0,0-1.44,3.82,6.13,6.13,0,0,0,2,5q1.95,1.63,6,1.63H780v3.64H764.38a6.5,6.5,0,0,0-4.31,1.23,4.78,4.78,0,0,0-1.44,3.84,6,6,0,0,0,2.06,5c1.36,1.06,3.61,1.59,6.72,1.59H780V401H756v-3l3.29-.59v-.18a7.19,7.19,0,0,1-2.74-2.91,8.86,8.86,0,0,1-1-4.2q0-5.64,4.08-7.37v-.18a7.67,7.67,0,0,1-3-3.12,9.57,9.57,0,0,1-1.1-4.65q0-4.08,2.1-6.11c1.39-1.36,3.63-2,6.7-2H780Z"/></svg>