<svg xmlns="http://www.w3.org/2000/svg" viewBox="0 0 583.68 583.68"><defs><style>.cls-1{isolation:isolate;}.cls-2{fill:#bebc60;}.cls-3{fill:#adadad;}.cls-4{fill:#d8d8d7;}.cls-4,.cls-8{mix-blend-mode:multiply;}.cls-5{fill:#e0dfcc;}.cls-6{fill:#fffdf3;}.cls-7{fill:#d2d2cc;}.cls-8{fill:#bcbdbf;}.cls-9{fill:#999896;}.cls-10{fill:#bbb;}.cls-10,.cls-11,.cls-12,.cls-13,.cls-14,.cls-15,.cls-17,.cls-18{stroke:#000;stroke-miterlimit:10;}.cls-10,.cls-11,.cls-12,.cls-17{stroke-width:3px;}.cls-11,.cls-13,.cls-14,.cls-15,.cls-17{fill:none;}.cls-12{fill:#989898;}.cls-13,.cls-14,.cls-15,.cls-17,.cls-18{stroke-linecap:round;}.cls-13{stroke-width:7px;}.cls-14{stroke-width:4px;}.cls-15,.cls-18{stroke-width:2px;}.cls-16{fill:#f0f0f0;}.cls-18{fill:#424242;}</style></defs><title>40526010202211_Cara</title><g class="cls-1"><g id="Layer_1" data-name="Layer 1"><circle class="cls-2" cx="291.84" cy="291.84" r="291.84"/><circle class="cls-3" cx="291.84" cy="291.84" r="240.77"/><path class="cls-4" d="M59.41,296c0-133,107.8-240.77,240.77-240.77A239.66,239.66,0,0,1,403.41,78.45,239.62,239.62,0,0,0,291.84,51.07c-133,0-240.77,107.8-240.77,240.77A240.79,240.79,0,0,0,188.61,509.41,240.75,240.75,0,0,1,59.41,296Z"/><path class="cls-5" d="M403.41,78.45a240.71,240.71,0,0,1,129.2,213.39c0,133-107.79,240.77-240.77,240.77a239.86,239.86,0,0,1-103.23-23.2,239.76,239.76,0,0,0,111.57,27.37C433.15,536.78,541,429,541,296A240.78,240.78,0,0,0,403.41,78.45Z"/><path class="cls-6" d="M289,524.79a227,227,0,0,1-55.64-10.9,223,223,0,0,1-50.3-24,238.53,238.53,0,0,1-22.22-16.28A241,241,0,0,1,140.93,455,220.48,220.48,0,0,1,109,411.71a217.17,217.17,0,0,0,37.24,37.46,227.44,227.44,0,0,0,21.43,14.91,224.64,224.64,0,0,0,22.85,12.05,203.21,203.21,0,0,0,48.62,14.92A199.49,199.49,0,0,0,289,493.37Z"/><path class="cls-6" d="M104,372.26l3.73-15.65c2.23-9.38-12.23-13.39-14.47-4l-3.72,15.65c-2.24,9.39,12.22,13.39,14.46,4Z"/><path class="cls-6" d="M93.23,358.66,85.4,346a7.5,7.5,0,1,0-13,7.57l7.82,12.67a7.5,7.5,0,0,0,13-7.57Z"/><path class="cls-6" d="M102.18,344.12l3.72-15.65c2.24-9.38-12.22-13.38-14.46-4l-3.73,15.64c-2.23,9.39,12.23,13.39,14.47,4Z"/><path class="cls-6" d="M91.36,330.52l-7.82-12.67a7.5,7.5,0,1,0-13,7.57l7.82,12.67a7.5,7.5,0,0,0,13-7.57Z"/><path class="cls-6" d="M100.81,316l3.73-15.64c2.23-9.39-12.23-13.39-14.46-4L86.35,312c-2.23,9.38,12.23,13.39,14.46,4Z"/><path class="cls-6" d="M90,302.38l-7.82-12.67a7.51,7.51,0,1,0-13,7.58L77.05,310a7.5,7.5,0,0,0,13-7.57Z"/><path class="cls-6" d="M97.15,292.48l3.72-15.65c2.24-9.38-12.22-13.39-14.46-4l-3.73,15.65c-2.23,9.39,12.23,13.39,14.47,4Z"/><path class="cls-6" d="M86.33,278.88l-7.82-12.67a7.5,7.5,0,1,0-13,7.57l7.82,12.67a7.5,7.5,0,0,0,13-7.57Z"/><path class="cls-6" d="M97.15,266.77l3.72-15.64c2.24-9.39-12.22-13.39-14.46-4l-3.73,15.64c-2.23,9.39,12.23,13.39,14.47,4Z"/><path class="cls-6" d="M86.33,253.17,78.51,240.5a7.5,7.5,0,1,0-13,7.57l7.82,12.67a7.5,7.5,0,0,0,13-7.57Z"/><path class="cls-6" d="M498.48,367.16l-4.37-15.65c-2.6-9.28-17.07-5.34-14.47,4L484,371.15c2.59,9.28,17.07,5.34,14.46-4Z"/><path class="cls-6" d="M509.54,365.12l9.18-12.67c2.38-3.28.57-8.36-2.69-10.26-3.78-2.22-7.87-.6-10.26,2.69l-9.18,12.67c-2.38,3.28-.57,8.36,2.69,10.26,3.79,2.21,7.87.6,10.26-2.69Z"/><path class="cls-6" d="M500.67,339l-4.37-15.64c-2.6-9.29-17.08-5.34-14.47,4L486.21,343c2.59,9.28,17.07,5.34,14.46-4Z"/><path class="cls-6" d="M511.73,337l9.18-12.67c2.38-3.28.56-8.36-2.69-10.26-3.79-2.21-7.87-.6-10.26,2.69l-9.19,12.67c-2.38,3.28-.56,8.36,2.69,10.26,3.79,2.22,7.88.6,10.27-2.69Z"/><path class="cls-6" d="M502.27,310.89l-4.37-15.65c-2.6-9.28-17.08-5.34-14.47,4l4.38,15.64c2.59,9.29,17.07,5.34,14.46-4Z"/><path class="cls-6" d="M513.33,308.84l9.18-12.66c2.38-3.29.57-8.36-2.69-10.27-3.79-2.21-7.87-.59-10.26,2.69l-9.19,12.67c-2.38,3.28-.56,8.36,2.7,10.26,3.78,2.22,7.87.6,10.26-2.69Z"/><path class="cls-6" d="M506.58,287.38l-4.38-15.65c-2.59-9.28-17.07-5.34-14.46,4l4.37,15.65c2.6,9.28,17.07,5.34,14.47-4Z"/><path class="cls-6" d="M517.63,285.34l9.19-12.67c2.38-3.28.56-8.36-2.69-10.26-3.79-2.22-7.88-.6-10.26,2.69l-9.19,12.67c-2.38,3.28-.56,8.36,2.69,10.26,3.79,2.21,7.88.6,10.26-2.69Z"/><path class="cls-6" d="M506.58,261.67,502.2,246c-2.59-9.29-17.07-5.34-14.46,4l4.37,15.64c2.6,9.29,17.07,5.34,14.47-4Z"/><path class="cls-6" d="M517.63,259.63,526.82,247c2.38-3.28.56-8.36-2.69-10.26-3.79-2.21-7.88-.6-10.26,2.69l-9.19,12.67c-2.38,3.28-.56,8.36,2.69,10.26,3.79,2.22,7.88.6,10.26-2.69Z"/><path class="cls-7" d="M302.15,493.37A199.54,199.54,0,0,0,352,491.05a203.28,203.28,0,0,0,48.61-14.92,225.85,225.85,0,0,0,22.86-12.05,228.6,228.6,0,0,0,21.42-14.91,216.81,216.81,0,0,0,37.24-37.46A220.08,220.08,0,0,1,450.16,455a239.36,239.36,0,0,1-19.86,18.7,237.22,237.22,0,0,1-22.22,16.28,223,223,0,0,1-50.3,24,226.92,226.92,0,0,1-55.63,10.9Z"/><path id="A" class="cls-8" d="M291.24,132.07c-2.18,0-3.82,0-4.88-.12l-5.23,17.69a36.55,36.55,0,0,1-8.17.73,28.8,28.8,0,0,1-9.51-1.34l-.58-1,26.79-81.77a74.59,74.59,0,0,1,11.09-.74,62.79,62.79,0,0,1,11.46.86l26.31,81.9a20,20,0,0,1-9.63,2.31c-4.23,0-7.17-.72-8.89-2.2s-3.16-4.27-4.39-8.41L313.29,132c-1,.08-2.65.12-4.74.12Zm-.36-15.33,4.88-.12h8.9l2.11,0c1,0,1.78.07,2.27.07l-2.1-7.57q-2.88-10.23-6.67-25.09h-.74q-1,5.24-5.86,23.27Z"/><path id="A-2" data-name="A" class="cls-9" d="M288.73,132.07c-2.18,0-3.81,0-4.88-.12l-5.23,17.69a36.55,36.55,0,0,1-8.17.73,28.8,28.8,0,0,1-9.51-1.34l-.58-1,26.79-81.77a74.73,74.73,0,0,1,11.1-.74,62.59,62.59,0,0,1,11.45.86L336,148.3a20,20,0,0,1-9.63,2.31c-4.23,0-7.17-.72-8.89-2.2s-3.16-4.27-4.39-8.41L310.78,132c-1,.08-2.64.12-4.74.12Zm-.36-15.33,4.89-.12h8.89l2.11,0c1,0,1.78.07,2.27.07l-2.09-7.57q-2.9-10.23-6.68-25.09H297c-.66,3.49-2.6,11.25-5.87,23.27Z"/><path class="cls-10" d="M430,376.64c10.13-30.82,4.14-61.38,4.14-61.38s-13.33-156-160.66-134.33C140,200.56,160.57,336,165.61,361.22c.15.75.29,1.51.42,2.27-6.46,12.42-12.57,32-11.71,61.19,0,0,6.32-.85,30.11-13.33,35,40.48,114.36,41.13,181.72,23.58,18.26-4.76,31.85-12.79,41.93-22.51"/><path class="cls-11" d="M166,363.49s9.29-15.89,13.62-18.56"/><line class="cls-11" x1="184.43" y1="411.35" x2="191.49" y2="407.26"/><path class="cls-12" d="M275.82,356.93s13,35.75,14.25,42.25,5.5,24.25,23.25,29.5,44-5,44-5,22.13-10.38,28.13-9.88,45.12-3.25,51.62-5.12,29-13,10.88-22.25-36.5-19-47.88-39.88c0,0-30-.12-39-8.25s-17.37-10.37-19.12-10-6.63-2.12-24.38,16.25C305.82,353.8,275.82,356.93,275.82,356.93Z"/><path class="cls-13" d="M225.15,254.6s35-30.5,86.34-9.5"/><path class="cls-13" d="M401.49,233.1s-26.17-3-44.67,7.16"/><path class="cls-14" d="M402.16,348.38s15.65-6.45,20.65-14.2"/><path class="cls-14" d="M275.82,360.5s-36-7.82-44.16-16.95"/><path class="cls-15" d="M340.7,335.3l1.45,4.13a4.87,4.87,0,0,1-.5,4.26l-2.89,4.49"/><path class="cls-15" d="M348.07,335.3l1.86,3.14a14.25,14.25,0,0,0,4.5,4.67l3.2,2.07"/><path class="cls-16" d="M314.82,308.83c-4-29.5-39-23.75-39-23.75s-23.82,2.85-36,19c-14.33,19,4.67,40.59,4.67,40.59s10.42,10.69,39.42,2.81,33.07-19.75,30.91-36.25Z"/><path class="cls-16" d="M360,304.79c.34-2.81-5.13-30.51,28-30.43a46.16,46.16,0,0,1,18.31,3.69c26.92,11.74,24.69,42,16.31,50.87,0,0-14.28,12.06-37.28,6.81C385.29,335.73,358.41,332.86,360,304.79Z"/><path class="cls-17" d="M244.49,345.18s-19-21.58-4.67-40.58c12.18-16.15,36-19,36-19s35-5.75,39,23.75"/><path class="cls-17" d="M360,305.3s-5.13-30.51,28-30.42a46,46,0,0,1,18.31,3.68c26.92,11.74,24.69,42,16.31,50.87"/><circle class="cls-18" cx="271.99" cy="325.71" r="13.34"/><circle class="cls-18" cx="383.81" cy="314.92" r="13.34"/></g></g></svg>