<svg id="Layer_1" data-name="Layer 1" xmlns="http://www.w3.org/2000/svg" viewBox="0 0 489 456.33"><defs><style>.cls-1,.cls-2,.cls-5{fill:none;}.cls-1{stroke:#d4e6c0;}.cls-1,.cls-2,.cls-4,.cls-5{stroke-miterlimit:10;stroke-width:3px;}.cls-2,.cls-4{stroke:#478502;}.cls-3{fill:#478502;}.cls-4{fill:#549c02;}.cls-5{stroke:#7fb542;}</style></defs><title>40525010202184_Opcion 2</title><line class="cls-1" x1="89.17" y1="312.83" x2="463.83" y2="312.83"/><line class="cls-1" x1="89.17" y1="265.47" x2="463.83" y2="265.47"/><line class="cls-1" x1="89.17" y1="218.1" x2="463.83" y2="218.1"/><line class="cls-1" x1="89.17" y1="170.73" x2="463.83" y2="170.73"/><line class="cls-1" x1="89.17" y1="123.37" x2="463.83" y2="123.37"/><polyline class="cls-2" points="89.17 51.87 89.17 360.48 463.83 360.48"/><polygon class="cls-3" points="98.64 53.14 79.69 53.14 89.17 43.67 98.64 53.14"/><rect class="cls-4" x="146.33" y="265.47" width="54" height="95.01"/><rect class="cls-4" x="264.58" y="313.08" width="54" height="47.4"/><rect class="cls-4" x="382.58" y="170.73" width="54" height="189.75"/><path d="M72.81,122.15a6,6,0,0,1,4.06,1.28,4.42,4.42,0,0,1,1.48,3.51,5,5,0,0,1-1.62,4,6.39,6.39,0,0,1-4.45,1.45,8.17,8.17,0,0,1-4.21-.89v-1.79a6.29,6.29,0,0,0,1.94.79,9.65,9.65,0,0,0,2.29.29,4.59,4.59,0,0,0,3.06-.93,3.31,3.31,0,0,0,1.09-2.68q0-3.42-4.19-3.42a17.3,17.3,0,0,0-2.84.32l-1-.61.61-7.64H77.2v1.71H70.66l-.41,4.9A13.08,13.08,0,0,1,72.81,122.15Z"/><path d="M79.21,175.66H76.78v3.75H75v-3.75h-8V174L74.82,163h2v11h2.43ZM75,174v-5.43c0-1.07,0-2.27.11-3.61H75a16.59,16.59,0,0,1-1,1.78L68.92,174Z"/><path d="M77.82,214.2a3.72,3.72,0,0,1-.87,2.55,4.37,4.37,0,0,1-2.49,1.33v.09a4.74,4.74,0,0,1,2.92,1.25,3.72,3.72,0,0,1,1,2.64,4.26,4.26,0,0,1-1.62,3.59,7.37,7.37,0,0,1-4.61,1.26,13.39,13.39,0,0,1-2.37-.19,8.47,8.47,0,0,1-2.1-.69v-1.77a10,10,0,0,0,2.27.8,10.35,10.35,0,0,0,2.27.28q4.23,0,4.23-3.32c0-2-1.55-3-4.67-3H70.12v-1.59h1.64a4.84,4.84,0,0,0,3-.85,2.75,2.75,0,0,0,1.12-2.34,2.29,2.29,0,0,0-.82-1.87,3.36,3.36,0,0,0-2.23-.69,6.67,6.67,0,0,0-2,.3,9,9,0,0,0-2.17,1.07l-.94-1.25A7.84,7.84,0,0,1,70,210.57a8.51,8.51,0,0,1,2.77-.45,5.6,5.6,0,0,1,3.69,1.09A3.66,3.66,0,0,1,77.82,214.2Z"/><path d="M78.44,274H67.7v-1.59L72,268a30.86,30.86,0,0,0,2.59-2.83,7.24,7.24,0,0,0,.94-1.66,4.67,4.67,0,0,0,.31-1.73,2.74,2.74,0,0,0-.79-2.07,3,3,0,0,0-2.2-.77,5.41,5.41,0,0,0-1.93.34,7.57,7.57,0,0,0-2,1.22l-1-1.27a7.55,7.55,0,0,1,4.92-1.87,5.23,5.23,0,0,1,3.61,1.17,4.07,4.07,0,0,1,1.3,3.17,6.09,6.09,0,0,1-.87,3.07,19.4,19.4,0,0,1-3.26,3.85L70,272.16v.08h8.4Z"/><path d="M74.57,321.24H72.76V309.6c0-1,0-1.88.09-2.75l-.52.49c-.2.18-1.08.9-2.66,2.18l-1-1.27L73,304.91h1.56Z"/><path d="M78.53,360.33q0,4.23-1.34,6.32a4.93,4.93,0,0,1-8.09,0,11.61,11.61,0,0,1-1.38-6.27c0-2.84.45-5,1.33-6.33a4.94,4.94,0,0,1,8.1.08A11.65,11.65,0,0,1,78.53,360.33Zm-8.93,0a11.92,11.92,0,0,0,.84,5.19,3,3,0,0,0,5.35,0,16.3,16.3,0,0,0,0-10.33,3,3,0,0,0-5.35,0A11.89,11.89,0,0,0,69.6,360.33Z"/><path d="M108.26,35.63l-2.13-5.43H99.28l-2.1,5.43h-2l6.75-17.16h1.67l6.72,17.16Zm-2.75-7.22-2-5.3c-.25-.67-.52-1.49-.79-2.46a21.25,21.25,0,0,1-.74,2.46l-2,5.3Z"/><path d="M117.49,35.86a5.47,5.47,0,0,1-4.31-1.71,7.06,7.06,0,0,1-1.52-4.84,7.24,7.24,0,0,1,1.55-5,5.56,5.56,0,0,1,4.41-1.75,8.23,8.23,0,0,1,1.84.2,6.37,6.37,0,0,1,1.45.46l-.59,1.65a9,9,0,0,0-1.41-.42,5.77,5.77,0,0,0-1.34-.17q-3.9,0-3.9,5a5.89,5.89,0,0,0,1,3.62,3.3,3.3,0,0,0,2.82,1.26,8.67,8.67,0,0,0,3.29-.69V35.2A7.08,7.08,0,0,1,117.49,35.86Z"/><path d="M127.9,34.26a6.54,6.54,0,0,0,1-.07,7.12,7.12,0,0,0,.75-.16v1.48a3.23,3.23,0,0,1-.92.26,7.74,7.74,0,0,1-1.11.09q-3.72,0-3.72-3.91V24.33h-1.83v-.94l1.83-.8.82-2.74h1.12v3h3.72v1.51h-3.72v7.54a2.6,2.6,0,0,0,.55,1.77A1.9,1.9,0,0,0,127.9,34.26Z"/><path d="M132.05,19.35a1.26,1.26,0,0,1,.33-1,1.13,1.13,0,0,1,.82-.31,1.12,1.12,0,0,1,.8.31,1.26,1.26,0,0,1,.34,1,1.28,1.28,0,0,1-.34,1,1.13,1.13,0,0,1-.8.32,1.14,1.14,0,0,1-.82-.32A1.32,1.32,0,0,1,132.05,19.35Zm2.1,16.28h-1.94V22.82h1.94Z"/><path d="M141.07,35.63l-4.86-12.81h2.08l2.76,7.6c.62,1.78,1,2.93,1.1,3.46h.09c.09-.42.36-1.27.81-2.57s1.48-4.12,3.07-8.49h2.08l-4.86,12.81Z"/><path d="M150.09,19.35a1.26,1.26,0,0,1,.33-1,1.13,1.13,0,0,1,.82-.31,1.16,1.16,0,0,1,.81.31,1.3,1.3,0,0,1,.34,1,1.32,1.32,0,0,1-.34,1,1.17,1.17,0,0,1-.81.32,1.14,1.14,0,0,1-.82-.32A1.32,1.32,0,0,1,150.09,19.35Zm2.11,16.28h-1.94V22.82h1.94Z"/><path d="M165,33.91h-.1a4.57,4.57,0,0,1-4,2,4.75,4.75,0,0,1-3.9-1.71,7.59,7.59,0,0,1-1.4-4.89,7.72,7.72,0,0,1,1.4-4.92,4.72,4.72,0,0,1,3.9-1.75,4.65,4.65,0,0,1,4,1.89h.15l-.08-.92,0-.9V17.45h1.94V35.63h-1.58Zm-3.88.33A3.52,3.52,0,0,0,164,33.16a5.43,5.43,0,0,0,.9-3.49v-.41a6.43,6.43,0,0,0-.91-3.88,3.43,3.43,0,0,0-2.89-1.17,3,3,0,0,0-2.61,1.33,6.54,6.54,0,0,0-.91,3.75,6.31,6.31,0,0,0,.9,3.7A3.06,3.06,0,0,0,161.15,34.24Z"/><path d="M178.86,35.63l-.39-1.82h-.09a5.53,5.53,0,0,1-1.91,1.63,5.93,5.93,0,0,1-2.38.42,4.26,4.26,0,0,1-3-1A3.57,3.57,0,0,1,170,32.09c0-2.59,2.07-3.94,6.21-4.07L178.4,28v-.79a3.26,3.26,0,0,0-.65-2.23,2.65,2.65,0,0,0-2.07-.72,8.46,8.46,0,0,0-3.62,1l-.6-1.48a9.49,9.49,0,0,1,2.07-.81,9.22,9.22,0,0,1,2.26-.29,4.88,4.88,0,0,1,3.4,1,4.22,4.22,0,0,1,1.1,3.26v8.74Zm-4.39-1.37a4,4,0,0,0,2.85-1,3.67,3.67,0,0,0,1-2.78V29.33l-1.94.08a7.15,7.15,0,0,0-3.33.72,2.18,2.18,0,0,0-1,2,2,2,0,0,0,.63,1.6A2.63,2.63,0,0,0,174.47,34.26Z"/><path d="M193,33.91h-.11a4.55,4.55,0,0,1-4,2,4.74,4.74,0,0,1-3.9-1.71,7.54,7.54,0,0,1-1.4-4.89,7.72,7.72,0,0,1,1.4-4.92,4.72,4.72,0,0,1,3.9-1.75,4.67,4.67,0,0,1,4,1.89H193l-.08-.92,0-.9V17.45h1.94V35.63h-1.57Zm-3.88.33A3.54,3.54,0,0,0,192,33.16a5.43,5.43,0,0,0,.89-3.49v-.41a6.44,6.44,0,0,0-.9-3.88,3.43,3.43,0,0,0-2.89-1.17,3,3,0,0,0-2.62,1.33,6.62,6.62,0,0,0-.9,3.75,6.31,6.31,0,0,0,.9,3.7A3.06,3.06,0,0,0,189.13,34.24Z"/><path d="M210.59,35.86a5.88,5.88,0,0,1-4.49-1.73,6.7,6.7,0,0,1-1.64-4.8A7.43,7.43,0,0,1,206,24.41a5.06,5.06,0,0,1,4.09-1.82,4.83,4.83,0,0,1,3.81,1.58,6.06,6.06,0,0,1,1.41,4.18v1.23h-8.83A5.08,5.08,0,0,0,207.61,33a4,4,0,0,0,3,1.17,10.27,10.27,0,0,0,4.09-.87V35a11,11,0,0,1-1.95.63A10.82,10.82,0,0,1,210.59,35.86Zm-.53-11.65a3.17,3.17,0,0,0-2.46,1A4.65,4.65,0,0,0,206.52,28h6.7a4.3,4.3,0,0,0-.82-2.81A2.9,2.9,0,0,0,210.06,24.21Z"/><path d="M227.37,35.63V27.34a3.35,3.35,0,0,0-.71-2.33,2.9,2.9,0,0,0-2.24-.77,3.68,3.68,0,0,0-2.94,1.08,5.52,5.52,0,0,0-.94,3.59v6.72H218.6V22.82h1.58l.32,1.76h.09a3.92,3.92,0,0,1,1.67-1.47,5.41,5.41,0,0,1,2.4-.52,4.88,4.88,0,0,1,3.48,1.11,4.76,4.76,0,0,1,1.17,3.57v8.36Z"/><path d="M244.92,35.86a5.85,5.85,0,0,1-4.48-1.73,6.7,6.7,0,0,1-1.64-4.8,7.48,7.48,0,0,1,1.52-4.92,5.1,5.1,0,0,1,4.1-1.82,4.86,4.86,0,0,1,3.81,1.58,6.1,6.1,0,0,1,1.4,4.18v1.23h-8.82A5.08,5.08,0,0,0,242,33a3.93,3.93,0,0,0,3,1.17,10.23,10.23,0,0,0,4.09-.87V35a10.63,10.63,0,0,1-1.94.63A10.86,10.86,0,0,1,244.92,35.86Zm-.52-11.65a3.17,3.17,0,0,0-2.46,1A4.53,4.53,0,0,0,240.86,28h6.69a4.24,4.24,0,0,0-.82-2.81A2.87,2.87,0,0,0,244.4,24.21Z"/><path d="M254.88,35.63h-1.94V17.45h1.94Z"/><path d="M269.35,34.26a6.41,6.41,0,0,0,1-.07,7.4,7.4,0,0,0,.76-.16v1.48a3.32,3.32,0,0,1-.93.26,7.72,7.72,0,0,1-1.1.09q-3.72,0-3.72-3.91V24.33h-1.83v-.94l1.83-.8.82-2.74h1.12v3H271v1.51h-3.72v7.54a2.55,2.55,0,0,0,.55,1.77A1.9,1.9,0,0,0,269.35,34.26Z"/><path d="M273.5,19.35a1.3,1.3,0,0,1,.32-1,1.23,1.23,0,0,1,1.63,0,1.3,1.3,0,0,1,.34,1,1.32,1.32,0,0,1-.34,1,1.2,1.2,0,0,1-1.63,0A1.36,1.36,0,0,1,273.5,19.35Zm2.1,16.28h-1.94V22.82h1.94Z"/><path d="M285.12,35.86a5.87,5.87,0,0,1-4.48-1.73,6.7,6.7,0,0,1-1.64-4.8,7.43,7.43,0,0,1,1.53-4.92,5.06,5.06,0,0,1,4.09-1.82,4.83,4.83,0,0,1,3.81,1.58,6.06,6.06,0,0,1,1.4,4.18v1.23H281A5.08,5.08,0,0,0,282.15,33a3.94,3.94,0,0,0,3,1.17,10.31,10.31,0,0,0,4.1-.87V35a9.44,9.44,0,0,1-4.17.82Zm-.52-11.65a3.17,3.17,0,0,0-2.46,1A4.65,4.65,0,0,0,281.06,28h6.69a4.3,4.3,0,0,0-.81-2.81A2.9,2.9,0,0,0,284.6,24.21Z"/><path d="M309.47,35.63V27.3a3.45,3.45,0,0,0-.66-2.3,2.51,2.51,0,0,0-2-.76,3.27,3.27,0,0,0-2.68,1,5,5,0,0,0-.86,3.2v7.15H301.3V27.3a3.51,3.51,0,0,0-.65-2.3,2.56,2.56,0,0,0-2-.76,3.15,3.15,0,0,0-2.67,1.09,5.87,5.87,0,0,0-.85,3.58v6.72h-1.94V22.82h1.58l.32,1.76h.09a3.73,3.73,0,0,1,1.55-1.47,4.7,4.7,0,0,1,2.23-.52q3,0,3.93,2.17h.1a4,4,0,0,1,1.66-1.59,5.12,5.12,0,0,1,2.47-.58,4.36,4.36,0,0,1,3.26,1.11,5,5,0,0,1,1.08,3.57v8.36Z"/><path d="M321.37,35.86a5.51,5.51,0,0,1-2.29-.46A4.16,4.16,0,0,1,317.35,34h-.14a18,18,0,0,1,.14,2.13v5.27h-1.94V22.82H317l.27,1.76h.1a4.31,4.31,0,0,1,1.74-1.52,5.16,5.16,0,0,1,2.28-.47,4.72,4.72,0,0,1,3.93,1.74,7.68,7.68,0,0,1,1.38,4.88,7.69,7.69,0,0,1-1.4,4.91A4.76,4.76,0,0,1,321.37,35.86Zm-.28-11.62a3.44,3.44,0,0,0-2.84,1.08,5.54,5.54,0,0,0-.9,3.46v.43a6.45,6.45,0,0,0,.9,3.87,3.43,3.43,0,0,0,2.88,1.16,3,3,0,0,0,2.6-1.34,6.37,6.37,0,0,0,.94-3.71,6.08,6.08,0,0,0-.94-3.67A3.07,3.07,0,0,0,321.09,24.24Z"/><path d="M341.13,29.21a7.11,7.11,0,0,1-1.58,4.9,5.55,5.55,0,0,1-4.36,1.75,5.76,5.76,0,0,1-3.05-.8,5.36,5.36,0,0,1-2.06-2.32,8.09,8.09,0,0,1-.72-3.53,7.05,7.05,0,0,1,1.57-4.88,5.53,5.53,0,0,1,4.34-1.74,5.41,5.41,0,0,1,4.28,1.79A7,7,0,0,1,341.13,29.21Zm-9.76,0a6.09,6.09,0,0,0,1,3.74,3.89,3.89,0,0,0,5.78,0,6,6,0,0,0,1-3.75,6,6,0,0,0-1-3.71,3.48,3.48,0,0,0-2.91-1.26,3.4,3.4,0,0,0-2.88,1.25A6,6,0,0,0,331.37,29.21Z"/><path d="M352.69,35.63h-1.94V17.45h1.94Z"/><path d="M356.64,19.35a1.3,1.3,0,0,1,.32-1,1.23,1.23,0,0,1,1.63,0,1.26,1.26,0,0,1,.34,1,1.28,1.28,0,0,1-.34,1,1.2,1.2,0,0,1-1.63,0A1.36,1.36,0,0,1,356.64,19.35Zm2.1,16.28H356.8V22.82h1.94Z"/><path d="M368.82,22.61a4.79,4.79,0,0,1,3.92,1.72,7.58,7.58,0,0,1,1.39,4.88,7.63,7.63,0,0,1-1.41,4.91,4.73,4.73,0,0,1-3.9,1.74,5.51,5.51,0,0,1-2.29-.46A4.25,4.25,0,0,1,364.79,34h-.14l-.41,1.65h-1.39V17.45h1.94v4.41q0,1.49-.09,2.67h.09A4.62,4.62,0,0,1,368.82,22.61Zm-.29,1.63a3.39,3.39,0,0,0-2.86,1.14,6.42,6.42,0,0,0-.88,3.83,6.45,6.45,0,0,0,.9,3.87,3.45,3.45,0,0,0,2.89,1.16,3,3,0,0,0,2.67-1.3,6.75,6.75,0,0,0,.87-3.75,6.48,6.48,0,0,0-.87-3.73A3.14,3.14,0,0,0,368.53,24.24Z"/><path d="M383.36,22.59a7.28,7.28,0,0,1,1.54.14l-.27,1.8a6.46,6.46,0,0,0-1.4-.18,3.38,3.38,0,0,0-2.66,1.27,4.57,4.57,0,0,0-1.11,3.14v6.87h-1.94V22.82h1.6l.22,2.37h.1a5.57,5.57,0,0,1,1.72-1.92A3.79,3.79,0,0,1,383.36,22.59Z"/><path d="M392.7,35.86a5.87,5.87,0,0,1-4.48-1.73,6.7,6.7,0,0,1-1.64-4.8,7.48,7.48,0,0,1,1.52-4.92,5.1,5.1,0,0,1,4.1-1.82A4.85,4.85,0,0,1,396,24.17a6.06,6.06,0,0,1,1.4,4.18v1.23h-8.82A5.08,5.08,0,0,0,389.73,33a3.93,3.93,0,0,0,3,1.17,10.23,10.23,0,0,0,4.09-.87V35a10.63,10.63,0,0,1-1.94.63A10.86,10.86,0,0,1,392.7,35.86Zm-.52-11.65a3.17,3.17,0,0,0-2.46,1A4.59,4.59,0,0,0,388.64,28h6.69a4.24,4.24,0,0,0-.82-2.81A2.87,2.87,0,0,0,392.18,24.21Z"/><path d="M195.76,440.38,193.63,435h-6.85l-2.1,5.43h-2l6.75-17.16h1.67l6.72,17.16ZM193,433.16l-2-5.3c-.25-.67-.52-1.49-.79-2.46a21.25,21.25,0,0,1-.74,2.46l-2,5.3Z"/><path d="M205,440.61a5.47,5.47,0,0,1-4.31-1.71,7,7,0,0,1-1.52-4.84,7.24,7.24,0,0,1,1.55-5,5.56,5.56,0,0,1,4.41-1.75,8.23,8.23,0,0,1,1.84.2,6.37,6.37,0,0,1,1.45.46l-.59,1.65a9,9,0,0,0-1.41-.42,5.77,5.77,0,0,0-1.34-.17q-3.9,0-3.9,5a5.89,5.89,0,0,0,1,3.62,3.3,3.3,0,0,0,2.82,1.26,8.67,8.67,0,0,0,3.29-.69V440A7.08,7.08,0,0,1,205,440.61Z"/><path d="M215.4,439a6.54,6.54,0,0,0,1-.07,7.12,7.12,0,0,0,.75-.16v1.48a3.23,3.23,0,0,1-.92.26,7.74,7.74,0,0,1-1.11.09q-3.72,0-3.72-3.91v-7.62h-1.83v-.94l1.83-.8.82-2.74h1.12v3h3.72v1.51h-3.72v7.54a2.6,2.6,0,0,0,.55,1.77A1.9,1.9,0,0,0,215.4,439Z"/><path d="M219.55,424.1a1.26,1.26,0,0,1,.33-1,1.13,1.13,0,0,1,.82-.31,1.12,1.12,0,0,1,.8.31,1.26,1.26,0,0,1,.34,1,1.28,1.28,0,0,1-.34,1,1.13,1.13,0,0,1-.8.32,1.14,1.14,0,0,1-.82-.32A1.32,1.32,0,0,1,219.55,424.1Zm2.1,16.28h-1.94V427.57h1.94Z"/><path d="M228.57,440.38l-4.86-12.81h2.08l2.76,7.6c.62,1.78,1,2.93,1.1,3.46h.09c.09-.42.36-1.27.81-2.57s1.48-4.12,3.07-8.49h2.08l-4.86,12.81Z"/><path d="M237.59,424.1a1.26,1.26,0,0,1,.33-1,1.13,1.13,0,0,1,.82-.31,1.16,1.16,0,0,1,.81.31,1.3,1.3,0,0,1,.34,1,1.32,1.32,0,0,1-.34,1,1.17,1.17,0,0,1-.81.32,1.14,1.14,0,0,1-.82-.32A1.32,1.32,0,0,1,237.59,424.1Zm2.11,16.28h-1.94V427.57h1.94Z"/><path d="M252.53,438.66h-.1a4.57,4.57,0,0,1-4,1.95,4.75,4.75,0,0,1-3.9-1.71,7.59,7.59,0,0,1-1.4-4.89,7.72,7.72,0,0,1,1.4-4.92,4.72,4.72,0,0,1,3.9-1.75,4.65,4.65,0,0,1,4,1.89h.15l-.08-.92,0-.9V422.2h1.94v18.18h-1.58Zm-3.88.33a3.52,3.52,0,0,0,2.88-1.08,5.43,5.43,0,0,0,.9-3.49V434a6.43,6.43,0,0,0-.91-3.88,3.43,3.43,0,0,0-2.89-1.17,3,3,0,0,0-2.61,1.33,6.54,6.54,0,0,0-.91,3.75,6.31,6.31,0,0,0,.9,3.7A3.06,3.06,0,0,0,248.65,439Z"/><path d="M266.36,440.38l-.39-1.82h-.09a5.53,5.53,0,0,1-1.91,1.63,5.93,5.93,0,0,1-2.38.42,4.26,4.26,0,0,1-3-1,3.57,3.57,0,0,1-1.08-2.79c0-2.59,2.07-3.94,6.21-4.07l2.17-.07v-.79a3.26,3.26,0,0,0-.65-2.23,2.65,2.65,0,0,0-2.07-.72,8.46,8.46,0,0,0-3.62,1l-.6-1.48a9.49,9.49,0,0,1,2.07-.81,9.22,9.22,0,0,1,2.26-.29,4.88,4.88,0,0,1,3.4,1,4.22,4.22,0,0,1,1.1,3.26v8.74ZM262,439a4,4,0,0,0,2.85-1,3.67,3.67,0,0,0,1-2.78v-1.16l-1.94.08a7.15,7.15,0,0,0-3.33.72,2.18,2.18,0,0,0-1,2,2,2,0,0,0,.63,1.6A2.63,2.63,0,0,0,262,439Z"/><path d="M280.51,438.66h-.11a4.55,4.55,0,0,1-4,1.95,4.74,4.74,0,0,1-3.9-1.71,7.54,7.54,0,0,1-1.4-4.89,7.72,7.72,0,0,1,1.4-4.92,4.72,4.72,0,0,1,3.9-1.75,4.67,4.67,0,0,1,4,1.89h.15l-.08-.92-.05-.9V422.2h1.94v18.18h-1.57Zm-3.88.33a3.54,3.54,0,0,0,2.88-1.08,5.43,5.43,0,0,0,.89-3.49V434a6.44,6.44,0,0,0-.9-3.88,3.43,3.43,0,0,0-2.89-1.17,3,3,0,0,0-2.62,1.33,6.62,6.62,0,0,0-.9,3.75,6.31,6.31,0,0,0,.9,3.7A3.06,3.06,0,0,0,276.63,439Z"/><path d="M291.87,440.61a5.85,5.85,0,0,1-4.48-1.73,6.66,6.66,0,0,1-1.65-4.8,7.43,7.43,0,0,1,1.53-4.92,5.08,5.08,0,0,1,4.1-1.82,4.86,4.86,0,0,1,3.81,1.58,6.1,6.1,0,0,1,1.4,4.18v1.23h-8.83a5,5,0,0,0,1.15,3.42,3.93,3.93,0,0,0,3,1.17,10.27,10.27,0,0,0,4.09-.87v1.74a10.71,10.71,0,0,1-1.95.63A10.82,10.82,0,0,1,291.87,440.61ZM291.34,429a3.18,3.18,0,0,0-2.46,1,4.65,4.65,0,0,0-1.08,2.78h6.7a4.24,4.24,0,0,0-.82-2.81A2.87,2.87,0,0,0,291.34,429Z"/><path d="M308.15,436.89a3.21,3.21,0,0,1-1.33,2.75,6.25,6.25,0,0,1-3.74,1,8.13,8.13,0,0,1-4-.8V438a10,10,0,0,0,2,.74,8.78,8.78,0,0,0,2,.26,4.67,4.67,0,0,0,2.34-.48,1.6,1.6,0,0,0,.82-1.48,1.62,1.62,0,0,0-.65-1.28,10.64,10.64,0,0,0-2.53-1.26,13.51,13.51,0,0,1-2.54-1.16,3.44,3.44,0,0,1-1.12-1.13,3.11,3.11,0,0,1,.9-4,6,6,0,0,1,3.5-.9,10.23,10.23,0,0,1,4,.84l-.69,1.58a9.31,9.31,0,0,0-3.49-.8,4,4,0,0,0-2.08.44,1.32,1.32,0,0,0-.71,1.19,1.41,1.41,0,0,0,.27.87,2.36,2.36,0,0,0,.85.69,17,17,0,0,0,2.24,1,8.32,8.32,0,0,1,3.08,1.67A3,3,0,0,1,308.15,436.89Z"/><path d="M258.7,385.49l-1.85-4.72h-6l-1.82,4.72h-1.75l5.87-14.9h1.45l5.83,14.9Zm-2.39-6.28-1.72-4.59a21.26,21.26,0,0,1-.69-2.15,21.48,21.48,0,0,1-.64,2.15l-1.75,4.59Z"/><path d="M269.88,385.49v-7.2a2.92,2.92,0,0,0-.62-2,2.51,2.51,0,0,0-1.94-.67,3.21,3.21,0,0,0-2.55.94,4.72,4.72,0,0,0-.82,3.12v5.84h-1.68V374.36h1.37l.27,1.52H264a3.49,3.49,0,0,1,1.46-1.27,4.7,4.7,0,0,1,2.08-.45,4.2,4.2,0,0,1,3,1,4.12,4.12,0,0,1,1,3.1v7.26Z"/><path d="M282.6,384h-.09a4,4,0,0,1-3.5,1.7,4.14,4.14,0,0,1-3.39-1.49,6.58,6.58,0,0,1-1.21-4.25,6.7,6.7,0,0,1,1.21-4.27,4.13,4.13,0,0,1,3.39-1.52,4.08,4.08,0,0,1,3.48,1.64h.13l-.07-.8,0-.78v-4.53h1.68v15.8h-1.37Zm-3.37.29a3.09,3.09,0,0,0,2.5-.94,4.74,4.74,0,0,0,.78-3V380a5.6,5.6,0,0,0-.79-3.37,3,3,0,0,0-2.51-1,2.57,2.57,0,0,0-2.27,1.15,5.68,5.68,0,0,0-.79,3.25,5.48,5.48,0,0,0,.78,3.22A2.64,2.64,0,0,0,279.23,384.28Z"/><path d="M294.6,385.49l-.33-1.59h-.08a4.76,4.76,0,0,1-1.66,1.42,5.18,5.18,0,0,1-2.07.37,3.74,3.74,0,0,1-2.59-.85,3.11,3.11,0,0,1-.94-2.43c0-2.25,1.8-3.42,5.39-3.53l1.89-.06v-.69a2.81,2.81,0,0,0-.57-1.94,2.32,2.32,0,0,0-1.8-.62,7.31,7.31,0,0,0-3.14.85l-.52-1.29a8.42,8.42,0,0,1,1.8-.7,7.75,7.75,0,0,1,2-.25,4.23,4.23,0,0,1,2.95.88,3.7,3.7,0,0,1,1,2.83v7.6Zm-3.8-1.19a3.44,3.44,0,0,0,2.47-.86,3.21,3.21,0,0,0,.9-2.42v-1l-1.69.07a6.07,6.07,0,0,0-2.9.62,1.88,1.88,0,0,0-.88,1.72,1.73,1.73,0,0,0,.55,1.39A2.28,2.28,0,0,0,290.8,384.3Z"/><path d="M304.4,374.16a6.78,6.78,0,0,1,1.33.12l-.24,1.56a5.78,5.78,0,0,0-1.22-.15,3,3,0,0,0-2.3,1.1,4,4,0,0,0-1,2.73v6h-1.69V374.36h1.39l.19,2.06H301a4.87,4.87,0,0,1,1.49-1.67A3.37,3.37,0,0,1,304.4,374.16Z"/><path d="M317.9,385.69a5.11,5.11,0,0,1-3.89-1.5,5.83,5.83,0,0,1-1.42-4.17,6.48,6.48,0,0,1,1.32-4.28,4.41,4.41,0,0,1,3.56-1.58,4.21,4.21,0,0,1,3.31,1.38,5.25,5.25,0,0,1,1.21,3.62v1.07h-7.66a4.36,4.36,0,0,0,1,3,3.42,3.42,0,0,0,2.64,1,9,9,0,0,0,3.56-.75V385a9.45,9.45,0,0,1-1.69.55A9.67,9.67,0,0,1,317.9,385.69Zm-.45-10.12a2.75,2.75,0,0,0-2.14.87,4.1,4.1,0,0,0-.94,2.42h5.82a3.72,3.72,0,0,0-.71-2.44A2.5,2.5,0,0,0,317.45,375.57Z"/><path d="M332.48,385.49v-7.2a2.92,2.92,0,0,0-.62-2,2.52,2.52,0,0,0-1.94-.67,3.24,3.24,0,0,0-2.56.94,4.78,4.78,0,0,0-.81,3.12v5.84h-1.69V374.36h1.38l.27,1.52h.08a3.52,3.52,0,0,1,1.45-1.27,4.73,4.73,0,0,1,2.08-.45,4.23,4.23,0,0,1,3,1,4.16,4.16,0,0,1,1,3.1v7.26Z"/><path d="M259.12,399.12a4.13,4.13,0,0,1,3.4,1.5,8,8,0,0,1,0,8.49,4.11,4.11,0,0,1-3.39,1.52,4.78,4.78,0,0,1-2-.4,3.78,3.78,0,0,1-1.5-1.23h-.12l-.36,1.43h-1.21V394.64h1.69v3.83c0,.86,0,1.63-.08,2.32h.08A4,4,0,0,1,259.12,399.12Zm-.25,1.41a2.93,2.93,0,0,0-2.48,1,7.65,7.65,0,0,0,0,6.69,3,3,0,0,0,2.51,1,2.61,2.61,0,0,0,2.31-1.13,5.82,5.82,0,0,0,.76-3.26,5.56,5.56,0,0,0-.76-3.23A2.71,2.71,0,0,0,258.87,400.53Z"/><path d="M266.54,396.29a1.12,1.12,0,0,1,.28-.85,1,1,0,0,1,.71-.27,1,1,0,0,1,.7.28,1.08,1.08,0,0,1,.3.84,1.11,1.11,0,0,1-.3.85,1,1,0,0,1-1.41,0A1.15,1.15,0,0,1,266.54,396.29Zm1.82,14.14h-1.68V399.3h1.68Z"/><path d="M276.38,410.63a4.75,4.75,0,0,1-3.74-1.49,6.11,6.11,0,0,1-1.32-4.2,6.37,6.37,0,0,1,1.34-4.32,4.86,4.86,0,0,1,3.83-1.52,8,8,0,0,1,1.61.17,5.21,5.21,0,0,1,1.25.41l-.51,1.43a8.31,8.31,0,0,0-1.22-.37,5.35,5.35,0,0,0-1.17-.15q-3.39,0-3.39,4.33a5.15,5.15,0,0,0,.83,3.14,2.88,2.88,0,0,0,2.45,1.1,7.44,7.44,0,0,0,2.85-.6v1.49A6,6,0,0,1,276.38,410.63Z"/><path d="M281.69,396.29a1.12,1.12,0,0,1,.28-.85,1,1,0,0,1,.71-.27,1,1,0,0,1,.7.28,1.08,1.08,0,0,1,.3.84,1.11,1.11,0,0,1-.3.85,1,1,0,0,1-1.41,0A1.15,1.15,0,0,1,281.69,396.29Zm1.83,14.14h-1.69V399.3h1.69Z"/><path d="M291.53,410.63a4.76,4.76,0,0,1-3.74-1.49,6.11,6.11,0,0,1-1.32-4.2,6.37,6.37,0,0,1,1.34-4.32,4.87,4.87,0,0,1,3.83-1.52,8,8,0,0,1,1.61.17,5.47,5.47,0,0,1,1.26.41l-.52,1.43a8,8,0,0,0-1.22-.37,5.35,5.35,0,0,0-1.17-.15q-3.39,0-3.39,4.33a5.15,5.15,0,0,0,.83,3.14,2.88,2.88,0,0,0,2.45,1.1,7.44,7.44,0,0,0,2.85-.6v1.49A6,6,0,0,1,291.53,410.63Z"/><path d="M298.67,410.43H297V394.64h1.69Z"/><path d="M306.94,410.63a5.1,5.1,0,0,1-3.89-1.5,5.81,5.81,0,0,1-1.43-4.17,6.48,6.48,0,0,1,1.32-4.28,4.43,4.43,0,0,1,3.56-1.58,4.18,4.18,0,0,1,3.31,1.38A5.25,5.25,0,0,1,311,404.1v1.07h-7.66a4.34,4.34,0,0,0,1,3,3.39,3.39,0,0,0,2.64,1,9,9,0,0,0,3.55-.75v1.5a8.49,8.49,0,0,1-1.69.55A9.56,9.56,0,0,1,306.94,410.63Zm-.46-10.12a2.74,2.74,0,0,0-2.13.87,4,4,0,0,0-.94,2.42h5.81a3.72,3.72,0,0,0-.71-2.44A2.48,2.48,0,0,0,306.48,400.51Z"/><path d="M317.49,409.24a4.94,4.94,0,0,0,.87-.07c.27,0,.49-.09.65-.13v1.29a3.11,3.11,0,0,1-.8.21,5.91,5.91,0,0,1-1,.09q-3.22,0-3.23-3.4v-6.62h-1.59v-.81l1.59-.7.71-2.37h1v2.57h3.22v1.31h-3.22v6.55a2.24,2.24,0,0,0,.47,1.54A1.67,1.67,0,0,0,317.49,409.24Z"/><path d="M328.08,410.43l-.34-1.59h-.08a4.67,4.67,0,0,1-1.66,1.42,5,5,0,0,1-2.06.37,3.72,3.72,0,0,1-2.6-.85,3.14,3.14,0,0,1-.94-2.43q0-3.36,5.39-3.53l1.89-.06v-.69a2.83,2.83,0,0,0-.56-1.93,2.32,2.32,0,0,0-1.8-.63,7.46,7.46,0,0,0-3.15.85l-.52-1.28a7.49,7.49,0,0,1,1.8-.7,7.84,7.84,0,0,1,2-.26,4.3,4.3,0,0,1,2.95.88,3.7,3.7,0,0,1,1,2.84v7.59Zm-3.81-1.19a3.44,3.44,0,0,0,2.47-.86,3.2,3.2,0,0,0,.9-2.42v-1L326,405a6.16,6.16,0,0,0-2.9.62,1.89,1.89,0,0,0-.89,1.72,1.76,1.76,0,0,0,.55,1.39A2.3,2.3,0,0,0,324.27,409.24Z"/><path d="M391.54,385.49V370.65h1.73v13.27h6.54v1.57Z"/><path d="M406.77,385.69a5.11,5.11,0,0,1-3.89-1.5,5.83,5.83,0,0,1-1.43-4.17,6.48,6.48,0,0,1,1.33-4.28,4.41,4.41,0,0,1,3.56-1.58,4.21,4.21,0,0,1,3.31,1.38,5.25,5.25,0,0,1,1.21,3.62v1.07H403.2a4.36,4.36,0,0,0,1,3,3.42,3.42,0,0,0,2.64,1,9,9,0,0,0,3.56-.75V385a9.45,9.45,0,0,1-1.69.55A9.74,9.74,0,0,1,406.77,385.69Zm-.45-10.12a2.75,2.75,0,0,0-2.14.87,4.1,4.1,0,0,0-.94,2.42h5.82a3.72,3.72,0,0,0-.71-2.44A2.5,2.5,0,0,0,406.32,375.57Z"/><path d="M418.43,385.69a5.11,5.11,0,0,1-3.89-1.5,5.83,5.83,0,0,1-1.42-4.17,6.48,6.48,0,0,1,1.32-4.28,4.41,4.41,0,0,1,3.56-1.58,4.21,4.21,0,0,1,3.31,1.38,5.25,5.25,0,0,1,1.21,3.62v1.07h-7.66a4.46,4.46,0,0,0,1,3,3.42,3.42,0,0,0,2.64,1,9,9,0,0,0,3.56-.75V385a9.45,9.45,0,0,1-1.69.55A9.74,9.74,0,0,1,418.43,385.69ZM418,375.57a2.75,2.75,0,0,0-2.14.87,4.1,4.1,0,0,0-.94,2.42h5.82a3.72,3.72,0,0,0-.71-2.44A2.5,2.5,0,0,0,418,375.57Z"/><path d="M430.47,374.16a6.7,6.7,0,0,1,1.33.12l-.23,1.56a5.85,5.85,0,0,0-1.22-.15,3,3,0,0,0-2.31,1.1,4,4,0,0,0-1,2.73v6H425.4V374.36h1.39l.19,2.06h.08a4.87,4.87,0,0,1,1.49-1.67A3.37,3.37,0,0,1,430.47,374.16Z"/><path d="M150.44,385.49h-1.72V372.18H144v-1.53h11.12v1.53h-4.7Z"/><path d="M162.19,374.16a6.63,6.63,0,0,1,1.33.12l-.23,1.56a5.85,5.85,0,0,0-1.22-.15,3,3,0,0,0-2.31,1.1,4,4,0,0,0-1,2.73v6h-1.68V374.36h1.39l.19,2.06h.08a4.87,4.87,0,0,1,1.49-1.67A3.4,3.4,0,0,1,162.19,374.16Z"/><path d="M175.2,379.91a6.15,6.15,0,0,1-1.37,4.25,4.8,4.8,0,0,1-3.78,1.53,5,5,0,0,1-2.65-.7,4.68,4.68,0,0,1-1.79-2,7,7,0,0,1-.63-3.07,6.14,6.14,0,0,1,1.36-4.23,4.83,4.83,0,0,1,3.78-1.52,4.74,4.74,0,0,1,3.71,1.55A6.16,6.16,0,0,1,175.2,379.91Zm-8.47,0a5.27,5.27,0,0,0,.85,3.25,3.38,3.38,0,0,0,5,0,5.28,5.28,0,0,0,.86-3.26,5.19,5.19,0,0,0-.86-3.22,3,3,0,0,0-2.53-1.1,3,3,0,0,0-2.5,1.09A5.21,5.21,0,0,0,166.73,379.91Z"/><path d="M181.75,384.3a4.83,4.83,0,0,0,.86-.07,4.31,4.31,0,0,0,.66-.14v1.29a3,3,0,0,1-.81.22,5.72,5.72,0,0,1-1,.09q-3.23,0-3.22-3.4v-6.62h-1.6v-.81l1.6-.7.71-2.37h1v2.57h3.23v1.31H180v6.55a2.24,2.24,0,0,0,.48,1.54A1.65,1.65,0,0,0,181.75,384.3Z"/><path d="M192.33,385.49,192,383.9h-.08a4.76,4.76,0,0,1-1.66,1.42,5.18,5.18,0,0,1-2.07.37,3.76,3.76,0,0,1-2.59-.85,3.11,3.11,0,0,1-.94-2.43c0-2.25,1.8-3.42,5.39-3.53l1.89-.06v-.69a2.81,2.81,0,0,0-.57-1.94,2.32,2.32,0,0,0-1.8-.62,7.31,7.31,0,0,0-3.14.85l-.52-1.29a8.42,8.42,0,0,1,1.8-.7,7.75,7.75,0,0,1,2-.25,4.23,4.23,0,0,1,3,.88,3.7,3.7,0,0,1,1,2.83v7.6Zm-3.8-1.19a3.44,3.44,0,0,0,2.47-.86,3.21,3.21,0,0,0,.9-2.42v-1l-1.69.07a6,6,0,0,0-2.89.62,1.87,1.87,0,0,0-.89,1.72,1.73,1.73,0,0,0,.55,1.39A2.28,2.28,0,0,0,188.53,384.3Z"/><path d="M202.13,374.16a6.78,6.78,0,0,1,1.33.12l-.24,1.56a5.78,5.78,0,0,0-1.22-.15,2.94,2.94,0,0,0-2.3,1.1,4,4,0,0,0-1,2.73v6h-1.69V374.36h1.39l.2,2.06h.08a4.87,4.87,0,0,1,1.49-1.67A3.37,3.37,0,0,1,202.13,374.16Z"/><path d="M38.93,248v2H21.84v-9.53h1.77V248h6.25V241h1.76V248Z"/><path d="M25.89,232.12a7.28,7.28,0,0,1,.14-1.54l1.8.27a6.47,6.47,0,0,0-.18,1.41,3.4,3.4,0,0,0,1.26,2.65A4.59,4.59,0,0,0,32.06,236h6.87V238H26.12v-1.6l2.37-.22V236a5.7,5.7,0,0,1-1.93-1.72A3.85,3.85,0,0,1,25.89,232.12Z"/><path d="M39.16,222.78a5.87,5.87,0,0,1-1.73,4.48,6.7,6.7,0,0,1-4.8,1.64,7.44,7.44,0,0,1-4.92-1.52,5.07,5.07,0,0,1-1.82-4.1,4.8,4.8,0,0,1,1.58-3.81,6.1,6.1,0,0,1,4.18-1.4h1.22v8.82a5.09,5.09,0,0,0,3.43-1.14,3.93,3.93,0,0,0,1.17-3,10.23,10.23,0,0,0-.87-4.09h1.73a10,10,0,0,1,.64,1.94A10.86,10.86,0,0,1,39.16,222.78Zm-11.65.52a3.17,3.17,0,0,0,1,2.46,4.51,4.51,0,0,0,2.78,1.08v-6.69a4.22,4.22,0,0,0-2.81.82A2.87,2.87,0,0,0,27.51,223.3Z"/><path d="M39.16,209.64A5.47,5.47,0,0,1,37.45,214a7.07,7.07,0,0,1-4.84,1.52,7.22,7.22,0,0,1-5-1.55,5.56,5.56,0,0,1-1.75-4.41,8.84,8.84,0,0,1,.19-1.84,6.32,6.32,0,0,1,.47-1.45l1.65.59a10.47,10.47,0,0,0-.43,1.4,6.54,6.54,0,0,0-.17,1.35q0,3.9,5,3.9a5.92,5.92,0,0,0,3.63-1,3.31,3.31,0,0,0,1.26-2.82,8.67,8.67,0,0,0-.69-3.29H38.5A7.08,7.08,0,0,1,39.16,209.64Z"/><path d="M26.12,201.54h8.31a3.39,3.39,0,0,0,2.34-.71,2.93,2.93,0,0,0,.77-2.23,3.65,3.65,0,0,0-1.1-2.94,5.54,5.54,0,0,0-3.59-.93H26.12v-1.94H38.93v1.6l-1.72.28v.11a3.83,3.83,0,0,1,1.45,1.65,5.61,5.61,0,0,1,.5,2.41,4.89,4.89,0,0,1-1.11,3.5,4.7,4.7,0,0,1-3.55,1.17H26.12Z"/><path d="M39.16,183.26a5.88,5.88,0,0,1-1.73,4.49,6.7,6.7,0,0,1-4.8,1.64,7.39,7.39,0,0,1-4.92-1.53,5,5,0,0,1-1.82-4.09A4.8,4.8,0,0,1,27.47,180a6.06,6.06,0,0,1,4.18-1.41h1.22v8.83a5.09,5.09,0,0,0,3.43-1.14,4,4,0,0,0,1.17-3.05,10.27,10.27,0,0,0-.87-4.09h1.73a10.28,10.28,0,0,1,.64,2A10.82,10.82,0,0,1,39.16,183.26Zm-11.65.53a3.17,3.17,0,0,0,1,2.46,4.63,4.63,0,0,0,2.78,1.08v-6.7a4.28,4.28,0,0,0-2.81.82A2.9,2.9,0,0,0,27.51,183.79Z"/><path d="M38.93,166.48H30.64a3.35,3.35,0,0,0-2.33.71,2.9,2.9,0,0,0-.78,2.24,3.68,3.68,0,0,0,1.09,2.94,5.52,5.52,0,0,0,3.59.94h6.72v1.94H26.12v-1.58l1.75-.32v-.09a4,4,0,0,1-1.46-1.67,5.41,5.41,0,0,1-.52-2.4A4.88,4.88,0,0,1,27,165.71a4.76,4.76,0,0,1,3.57-1.17h8.36Z"/><path d="M39.16,155.44a5.45,5.45,0,0,1-1.71,4.3,7,7,0,0,1-4.84,1.53,7.27,7.27,0,0,1-5-1.55,5.56,5.56,0,0,1-1.75-4.41,8.94,8.94,0,0,1,.19-1.85,6.49,6.49,0,0,1,.47-1.45l1.65.6a10,10,0,0,0-.43,1.4,6.54,6.54,0,0,0-.17,1.35q0,3.9,5,3.9a6,6,0,0,0,3.63-.95,3.33,3.33,0,0,0,1.26-2.83,8.63,8.63,0,0,0-.69-3.28H38.5A7.08,7.08,0,0,1,39.16,155.44Z"/><path d="M22.65,149.32a1.33,1.33,0,0,1-1-.32,1.21,1.21,0,0,1,0-1.63,1.28,1.28,0,0,1,1-.34,1.3,1.3,0,0,1,1,.34,1.13,1.13,0,0,1,.33.81,1.11,1.11,0,0,1-.33.82A1.33,1.33,0,0,1,22.65,149.32Zm16.28-2.1v1.94H26.12v-1.94Z"/><path d="M38.93,135.23l-1.82.39v.09a5.53,5.53,0,0,1,1.63,1.91,5.93,5.93,0,0,1,.42,2.38,4.28,4.28,0,0,1-1,3,3.54,3.54,0,0,1-2.79,1.09q-3.89,0-4.07-6.21l-.07-2.17h-.79a3.26,3.26,0,0,0-2.23.64,2.69,2.69,0,0,0-.72,2.08,8.5,8.5,0,0,0,1,3.62l-1.48.6a8.91,8.91,0,0,1-.81-2.08,9.16,9.16,0,0,1-.29-2.26,4.86,4.86,0,0,1,1-3.39,4.21,4.21,0,0,1,3.26-1.11h8.74Zm-1.37,4.38a3.94,3.94,0,0,0-1-2.84,3.67,3.67,0,0,0-2.78-1H32.63l.08,1.94a7.2,7.2,0,0,0,.72,3.34,2.16,2.16,0,0,0,2,1,2,2,0,0,0,1.6-.64A2.6,2.6,0,0,0,37.56,139.61Z"/><rect class="cls-5" x="1.5" y="1.5" width="486" height="453.33" rx="18.17" ry="18.17"/></svg>