<svg id="Layer_1" data-name="Layer 1" xmlns="http://www.w3.org/2000/svg" viewBox="0 0 489 456.33"><defs><style>.cls-1,.cls-2,.cls-5{fill:none;}.cls-1{stroke:#d4e6c0;}.cls-1,.cls-2,.cls-4,.cls-5{stroke-miterlimit:10;stroke-width:3px;}.cls-2,.cls-4{stroke:#478502;}.cls-3{fill:#478502;}.cls-4{fill:#549c02;}.cls-5{stroke:#7fb542;}</style></defs><title>40525010202184_Opcion 1</title><line class="cls-1" x1="87.67" y1="312.83" x2="462.33" y2="312.83"/><line class="cls-1" x1="87.67" y1="265.47" x2="462.33" y2="265.47"/><line class="cls-1" x1="87.67" y1="218.1" x2="462.33" y2="218.1"/><line class="cls-1" x1="87.67" y1="170.73" x2="462.33" y2="170.73"/><line class="cls-1" x1="87.67" y1="123.37" x2="462.33" y2="123.37"/><line class="cls-1" x1="87.67" y1="76" x2="462.33" y2="76"/><polyline class="cls-2" points="87.67 51.87 87.67 360.48 462.33 360.48"/><polygon class="cls-3" points="97.14 53.14 78.19 53.14 87.67 43.67 97.14 53.14"/><rect class="cls-4" x="144.83" y="218.1" width="54" height="142.38"/><rect class="cls-4" x="263.08" y="312.83" width="54" height="47.65"/><rect class="cls-4" x="381.08" y="123.37" width="54" height="237.11"/><path d="M66.39,77.87q0-4.82,1.87-7.2a6.61,6.61,0,0,1,5.54-2.38,7.5,7.5,0,0,1,2,.21v1.59a6.61,6.61,0,0,0-2-.27,5,5,0,0,0-4,1.63,8.43,8.43,0,0,0-1.52,5.15h.13a4.29,4.29,0,0,1,3.89-1.92A4.54,4.54,0,0,1,75.78,76a5,5,0,0,1,1.27,3.6,5.56,5.56,0,0,1-1.39,4,5,5,0,0,1-3.76,1.46,4.83,4.83,0,0,1-4-1.91A8.42,8.42,0,0,1,66.39,77.87Zm5.49,5.63a3.1,3.1,0,0,0,2.46-1,4.27,4.27,0,0,0,.88-2.89,3.73,3.73,0,0,0-.82-2.54A3.05,3.05,0,0,0,72,76.14a4.22,4.22,0,0,0-1.85.41,3.45,3.45,0,0,0-1.33,1.14,2.67,2.67,0,0,0-.5,1.51,5.18,5.18,0,0,0,.45,2.15A3.78,3.78,0,0,0,70,82.92,3.17,3.17,0,0,0,71.88,83.5Z"/><path d="M71.31,122.15a6,6,0,0,1,4.06,1.28,4.42,4.42,0,0,1,1.48,3.51,5,5,0,0,1-1.62,4,6.39,6.39,0,0,1-4.45,1.45,8.17,8.17,0,0,1-4.21-.89v-1.79a6.29,6.29,0,0,0,1.94.79,9.65,9.65,0,0,0,2.29.29,4.59,4.59,0,0,0,3.06-.93A3.31,3.31,0,0,0,75,127.15q0-3.42-4.19-3.42a17.3,17.3,0,0,0-2.84.32l-1-.61.61-7.64H75.7v1.71H69.16l-.41,4.9A13.08,13.08,0,0,1,71.31,122.15Z"/><path d="M77.71,175.66H75.28v3.75H73.51v-3.75h-8V174L73.32,163h2v11h2.43ZM73.51,174v-5.43c0-1.07,0-2.27.11-3.61h-.09a16.59,16.59,0,0,1-1,1.78L67.42,174Z"/><path d="M76.32,214.2a3.72,3.72,0,0,1-.87,2.55A4.37,4.37,0,0,1,73,218.08v.09a4.74,4.74,0,0,1,2.92,1.25,3.72,3.72,0,0,1,1,2.64,4.26,4.26,0,0,1-1.62,3.59,7.37,7.37,0,0,1-4.61,1.26,13.39,13.39,0,0,1-2.37-.19,8.47,8.47,0,0,1-2.1-.69v-1.77a10,10,0,0,0,2.27.8,10.35,10.35,0,0,0,2.27.28q4.23,0,4.23-3.32c0-2-1.55-3-4.67-3H68.62v-1.59h1.64a4.84,4.84,0,0,0,3-.85,2.75,2.75,0,0,0,1.12-2.34,2.29,2.29,0,0,0-.82-1.87,3.36,3.36,0,0,0-2.23-.69,6.67,6.67,0,0,0-2,.3,9,9,0,0,0-2.17,1.07l-.94-1.25a7.84,7.84,0,0,1,2.32-1.25,8.51,8.51,0,0,1,2.77-.45A5.6,5.6,0,0,1,75,211.21,3.66,3.66,0,0,1,76.32,214.2Z"/><path d="M76.94,274H66.2v-1.59L70.5,268a30.86,30.86,0,0,0,2.59-2.83,7.24,7.24,0,0,0,.94-1.66,4.67,4.67,0,0,0,.31-1.73,2.74,2.74,0,0,0-.79-2.07,3,3,0,0,0-2.2-.77,5.41,5.41,0,0,0-1.93.34,7.57,7.57,0,0,0-2,1.22l-1-1.27a7.55,7.55,0,0,1,4.92-1.87,5.23,5.23,0,0,1,3.61,1.17,4.07,4.07,0,0,1,1.3,3.17,6.09,6.09,0,0,1-.87,3.07,19.4,19.4,0,0,1-3.26,3.85l-3.57,3.5v.08h8.4Z"/><path d="M73.07,321.24H71.26V309.6c0-1,0-1.88.09-2.75l-.52.49c-.2.18-1.08.9-2.66,2.18l-1-1.27,4.33-3.34h1.56Z"/><path d="M77,360.33q0,4.23-1.34,6.32a4.93,4.93,0,0,1-8.09,0,11.61,11.61,0,0,1-1.38-6.27c0-2.84.45-5,1.33-6.33a4.94,4.94,0,0,1,8.1.08A11.65,11.65,0,0,1,77,360.33Zm-8.93,0a11.92,11.92,0,0,0,.84,5.19,3,3,0,0,0,5.35,0,16.3,16.3,0,0,0,0-10.33,3,3,0,0,0-5.35,0A11.89,11.89,0,0,0,68.1,360.33Z"/><path d="M106.76,35.63l-2.13-5.43H97.78l-2.1,5.43h-2l6.75-17.16h1.67l6.72,17.16ZM104,28.41l-2-5.3c-.25-.67-.52-1.49-.79-2.46a21.25,21.25,0,0,1-.74,2.46l-2,5.3Z"/><path d="M116,35.86a5.47,5.47,0,0,1-4.31-1.71,7.06,7.06,0,0,1-1.52-4.84,7.24,7.24,0,0,1,1.55-5,5.56,5.56,0,0,1,4.41-1.75,8.23,8.23,0,0,1,1.84.2,6.37,6.37,0,0,1,1.45.46l-.59,1.65a9,9,0,0,0-1.41-.42,5.77,5.77,0,0,0-1.34-.17q-3.9,0-3.9,5a5.89,5.89,0,0,0,1,3.62,3.3,3.3,0,0,0,2.82,1.26,8.67,8.67,0,0,0,3.29-.69V35.2A7.08,7.08,0,0,1,116,35.86Z"/><path d="M126.4,34.26a6.54,6.54,0,0,0,1-.07,7.12,7.12,0,0,0,.75-.16v1.48a3.34,3.34,0,0,1-.92.26,7.74,7.74,0,0,1-1.11.09q-3.72,0-3.72-3.91V24.33h-1.83v-.94l1.83-.8.82-2.74h1.12v3h3.72v1.51h-3.72v7.54a2.6,2.6,0,0,0,.55,1.77A1.9,1.9,0,0,0,126.4,34.26Z"/><path d="M130.55,19.35a1.26,1.26,0,0,1,.33-1,1.13,1.13,0,0,1,.82-.31,1.12,1.12,0,0,1,.8.31,1.26,1.26,0,0,1,.34,1,1.28,1.28,0,0,1-.34,1,1.13,1.13,0,0,1-.8.32,1.14,1.14,0,0,1-.82-.32A1.32,1.32,0,0,1,130.55,19.35Zm2.1,16.28h-1.94V22.82h1.94Z"/><path d="M139.57,35.63l-4.86-12.81h2.08l2.76,7.6c.62,1.78,1,2.93,1.1,3.46h.09c.09-.42.36-1.27.81-2.57s1.48-4.12,3.07-8.49h2.08l-4.86,12.81Z"/><path d="M148.59,19.35a1.26,1.26,0,0,1,.33-1,1.13,1.13,0,0,1,.82-.31,1.16,1.16,0,0,1,.81.31,1.3,1.3,0,0,1,.34,1,1.32,1.32,0,0,1-.34,1,1.17,1.17,0,0,1-.81.32,1.14,1.14,0,0,1-.82-.32A1.32,1.32,0,0,1,148.59,19.35Zm2.11,16.28h-1.94V22.82h1.94Z"/><path d="M163.53,33.91h-.1a4.57,4.57,0,0,1-4,2,4.76,4.76,0,0,1-3.91-1.71,7.59,7.59,0,0,1-1.4-4.89,7.72,7.72,0,0,1,1.4-4.92,4.73,4.73,0,0,1,3.91-1.75,4.65,4.65,0,0,1,4,1.89h.15l-.08-.92,0-.9V17.45h1.94V35.63h-1.58Zm-3.88.33a3.52,3.52,0,0,0,2.88-1.08,5.43,5.43,0,0,0,.9-3.49v-.41a6.43,6.43,0,0,0-.91-3.88,3.43,3.43,0,0,0-2.89-1.17A3,3,0,0,0,157,25.54a6.54,6.54,0,0,0-.91,3.75A6.31,6.31,0,0,0,157,33,3.06,3.06,0,0,0,159.65,34.24Z"/><path d="M177.36,35.63,177,33.81h-.09A5.53,5.53,0,0,1,175,35.44a5.93,5.93,0,0,1-2.38.42,4.26,4.26,0,0,1-3-1,3.57,3.57,0,0,1-1.08-2.79c0-2.59,2.07-3.94,6.21-4.07L176.9,28v-.79a3.26,3.26,0,0,0-.65-2.23,2.65,2.65,0,0,0-2.07-.72,8.54,8.54,0,0,0-3.63,1L170,23.71A9.49,9.49,0,0,1,172,22.9a9.22,9.22,0,0,1,2.26-.29,4.88,4.88,0,0,1,3.4,1,4.22,4.22,0,0,1,1.1,3.26v8.74ZM173,34.26a4,4,0,0,0,2.85-1,3.67,3.67,0,0,0,1-2.78V29.33l-1.94.08a7.15,7.15,0,0,0-3.33.72,2.19,2.19,0,0,0-1,2,2,2,0,0,0,.64,1.6A2.63,2.63,0,0,0,173,34.26Z"/><path d="M191.51,33.91h-.11a4.55,4.55,0,0,1-4,2,4.79,4.79,0,0,1-3.91-1.71,7.59,7.59,0,0,1-1.39-4.89,7.72,7.72,0,0,1,1.4-4.92,4.72,4.72,0,0,1,3.9-1.75,4.67,4.67,0,0,1,4,1.89h.15l-.08-.92,0-.9V17.45h1.94V35.63h-1.57Zm-3.88.33a3.54,3.54,0,0,0,2.88-1.08,5.43,5.43,0,0,0,.89-3.49v-.41a6.44,6.44,0,0,0-.9-3.88,3.44,3.44,0,0,0-2.89-1.17A3,3,0,0,0,185,25.54a6.62,6.62,0,0,0-.9,3.75A6.31,6.31,0,0,0,185,33,3.06,3.06,0,0,0,187.63,34.24Z"/><path d="M209.09,35.86a5.88,5.88,0,0,1-4.49-1.73,6.7,6.7,0,0,1-1.64-4.8,7.43,7.43,0,0,1,1.53-4.92,5.06,5.06,0,0,1,4.09-1.82,4.83,4.83,0,0,1,3.81,1.58,6.06,6.06,0,0,1,1.41,4.18v1.23H205A5.08,5.08,0,0,0,206.11,33a4,4,0,0,0,3,1.17,10.27,10.27,0,0,0,4.09-.87V35a11,11,0,0,1-1.95.63A10.82,10.82,0,0,1,209.09,35.86Zm-.53-11.65a3.17,3.17,0,0,0-2.46,1A4.65,4.65,0,0,0,205,28h6.7a4.3,4.3,0,0,0-.82-2.81A2.9,2.9,0,0,0,208.56,24.21Z"/><path d="M225.87,35.63V27.34a3.35,3.35,0,0,0-.71-2.33,2.9,2.9,0,0,0-2.24-.77A3.68,3.68,0,0,0,220,25.32a5.52,5.52,0,0,0-.94,3.59v6.72H217.1V22.82h1.58l.32,1.76h.09a3.92,3.92,0,0,1,1.67-1.47,5.41,5.41,0,0,1,2.4-.52,4.88,4.88,0,0,1,3.48,1.11,4.76,4.76,0,0,1,1.17,3.57v8.36Z"/><path d="M243.42,35.86a5.85,5.85,0,0,1-4.48-1.73,6.7,6.7,0,0,1-1.64-4.8,7.48,7.48,0,0,1,1.52-4.92,5.1,5.1,0,0,1,4.1-1.82,4.86,4.86,0,0,1,3.81,1.58,6.1,6.1,0,0,1,1.4,4.18v1.23h-8.82A5.08,5.08,0,0,0,240.45,33a3.93,3.93,0,0,0,3,1.17,10.23,10.23,0,0,0,4.09-.87V35a10.63,10.63,0,0,1-1.94.63A10.86,10.86,0,0,1,243.42,35.86Zm-.52-11.65a3.17,3.17,0,0,0-2.46,1A4.53,4.53,0,0,0,239.36,28h6.69a4.24,4.24,0,0,0-.82-2.81A2.87,2.87,0,0,0,242.9,24.21Z"/><path d="M253.38,35.63h-1.94V17.45h1.94Z"/><path d="M267.85,34.26a6.41,6.41,0,0,0,1-.07,7.4,7.4,0,0,0,.76-.16v1.48a3.32,3.32,0,0,1-.93.26,7.72,7.72,0,0,1-1.1.09q-3.72,0-3.72-3.91V24.33H262v-.94l1.83-.8.82-2.74h1.12v3h3.72v1.51h-3.72v7.54a2.55,2.55,0,0,0,.55,1.77A1.9,1.9,0,0,0,267.85,34.26Z"/><path d="M272,19.35a1.3,1.3,0,0,1,.32-1,1.13,1.13,0,0,1,.82-.31,1.16,1.16,0,0,1,.81.31,1.3,1.3,0,0,1,.34,1,1.32,1.32,0,0,1-.34,1,1.17,1.17,0,0,1-.81.32,1.14,1.14,0,0,1-.82-.32A1.36,1.36,0,0,1,272,19.35Zm2.1,16.28h-1.94V22.82h1.94Z"/><path d="M283.62,35.86a5.87,5.87,0,0,1-4.48-1.73,6.7,6.7,0,0,1-1.64-4.8A7.43,7.43,0,0,1,279,24.41a5.06,5.06,0,0,1,4.09-1.82,4.83,4.83,0,0,1,3.81,1.58,6.06,6.06,0,0,1,1.4,4.18v1.23h-8.82A5.08,5.08,0,0,0,280.65,33a3.94,3.94,0,0,0,3,1.17,10.31,10.31,0,0,0,4.1-.87V35a9.44,9.44,0,0,1-4.17.82Zm-.52-11.65a3.17,3.17,0,0,0-2.46,1A4.65,4.65,0,0,0,279.56,28h6.69a4.3,4.3,0,0,0-.81-2.81A2.9,2.9,0,0,0,283.1,24.21Z"/><path d="M308,35.63V27.3a3.45,3.45,0,0,0-.66-2.3,2.51,2.51,0,0,0-2-.76,3.27,3.27,0,0,0-2.68,1,5,5,0,0,0-.86,3.2v7.15H299.8V27.3a3.51,3.51,0,0,0-.65-2.3,2.56,2.56,0,0,0-2-.76,3.15,3.15,0,0,0-2.67,1.09,5.87,5.87,0,0,0-.85,3.58v6.72h-1.94V22.82h1.58l.32,1.76h.09a3.73,3.73,0,0,1,1.55-1.47,4.71,4.71,0,0,1,2.24-.52q3,0,3.92,2.17h.1a4,4,0,0,1,1.66-1.59,5.12,5.12,0,0,1,2.47-.58,4.36,4.36,0,0,1,3.26,1.11,5,5,0,0,1,1.08,3.57v8.36Z"/><path d="M319.87,35.86a5.51,5.51,0,0,1-2.29-.46A4.16,4.16,0,0,1,315.85,34h-.14a18,18,0,0,1,.14,2.13v5.27h-1.94V22.82h1.57l.27,1.76h.1a4.31,4.31,0,0,1,1.74-1.52,5.16,5.16,0,0,1,2.28-.47,4.74,4.74,0,0,1,3.93,1.74,7.68,7.68,0,0,1,1.38,4.88,7.69,7.69,0,0,1-1.4,4.91A4.76,4.76,0,0,1,319.87,35.86Zm-.28-11.62a3.44,3.44,0,0,0-2.84,1.08,5.54,5.54,0,0,0-.9,3.46v.43a6.45,6.45,0,0,0,.9,3.87,3.43,3.43,0,0,0,2.88,1.16,3,3,0,0,0,2.6-1.34,6.37,6.37,0,0,0,.94-3.71,6.08,6.08,0,0,0-.94-3.67A3.07,3.07,0,0,0,319.59,24.24Z"/><path d="M339.63,29.21a7.11,7.11,0,0,1-1.58,4.9,5.55,5.55,0,0,1-4.36,1.75,5.76,5.76,0,0,1-3.05-.8,5.36,5.36,0,0,1-2.06-2.32,8.09,8.09,0,0,1-.72-3.53,7.05,7.05,0,0,1,1.57-4.88,5.53,5.53,0,0,1,4.34-1.74,5.41,5.41,0,0,1,4.28,1.79A7,7,0,0,1,339.63,29.21Zm-9.76,0a6.09,6.09,0,0,0,1,3.74,3.89,3.89,0,0,0,5.78,0,6,6,0,0,0,1-3.75,6,6,0,0,0-1-3.71,3.48,3.48,0,0,0-2.91-1.26,3.4,3.4,0,0,0-2.88,1.25A6,6,0,0,0,329.87,29.21Z"/><path d="M351.19,35.63h-1.94V17.45h1.94Z"/><path d="M355.14,19.35a1.3,1.3,0,0,1,.32-1,1.23,1.23,0,0,1,1.63,0,1.3,1.3,0,0,1,.34,1,1.32,1.32,0,0,1-.34,1,1.2,1.2,0,0,1-1.63,0A1.36,1.36,0,0,1,355.14,19.35Zm2.1,16.28H355.3V22.82h1.94Z"/><path d="M367.31,22.61a4.81,4.81,0,0,1,3.93,1.72,7.58,7.58,0,0,1,1.39,4.88,7.63,7.63,0,0,1-1.41,4.91,4.74,4.74,0,0,1-3.91,1.74A5.5,5.5,0,0,1,365,35.4,4.25,4.25,0,0,1,363.29,34h-.14l-.4,1.65h-1.4V17.45h1.94v4.41q0,1.49-.09,2.67h.09A4.62,4.62,0,0,1,367.31,22.61ZM367,24.24a3.39,3.39,0,0,0-2.86,1.14,6.42,6.42,0,0,0-.88,3.83,6.45,6.45,0,0,0,.9,3.87,3.45,3.45,0,0,0,2.89,1.16,3,3,0,0,0,2.67-1.3,6.75,6.75,0,0,0,.87-3.75,6.48,6.48,0,0,0-.87-3.73A3.14,3.14,0,0,0,367,24.24Z"/><path d="M381.86,22.59a7.28,7.28,0,0,1,1.54.14l-.27,1.8a6.47,6.47,0,0,0-1.41-.18,3.38,3.38,0,0,0-2.65,1.27A4.57,4.57,0,0,0,378,28.76v6.87H376V22.82h1.6l.22,2.37h.1a5.57,5.57,0,0,1,1.72-1.92A3.79,3.79,0,0,1,381.86,22.59Z"/><path d="M391.2,35.86a5.87,5.87,0,0,1-4.48-1.73,6.7,6.7,0,0,1-1.64-4.8,7.48,7.48,0,0,1,1.52-4.92,5.1,5.1,0,0,1,4.1-1.82,4.83,4.83,0,0,1,3.81,1.58,6.06,6.06,0,0,1,1.4,4.18v1.23h-8.82A5.08,5.08,0,0,0,388.23,33a3.93,3.93,0,0,0,3,1.17,10.23,10.23,0,0,0,4.09-.87V35a10.63,10.63,0,0,1-1.94.63A10.86,10.86,0,0,1,391.2,35.86Zm-.52-11.65a3.17,3.17,0,0,0-2.46,1A4.59,4.59,0,0,0,387.14,28h6.69a4.24,4.24,0,0,0-.82-2.81A2.87,2.87,0,0,0,390.68,24.21Z"/><path d="M194.26,440.38,192.13,435h-6.85l-2.1,5.43h-2l6.75-17.16h1.67l6.72,17.16Zm-2.75-7.22-2-5.3c-.25-.67-.52-1.49-.79-2.46a21.25,21.25,0,0,1-.74,2.46l-2,5.3Z"/><path d="M203.49,440.61a5.47,5.47,0,0,1-4.31-1.71,7.06,7.06,0,0,1-1.52-4.84,7.24,7.24,0,0,1,1.55-5,5.56,5.56,0,0,1,4.41-1.75,8.23,8.23,0,0,1,1.84.2,6.37,6.37,0,0,1,1.45.46l-.59,1.65a9,9,0,0,0-1.41-.42,5.77,5.77,0,0,0-1.34-.17q-3.9,0-3.9,5a5.89,5.89,0,0,0,1,3.62,3.3,3.3,0,0,0,2.82,1.26,8.67,8.67,0,0,0,3.29-.69V440A7.08,7.08,0,0,1,203.49,440.61Z"/><path d="M213.9,439a6.54,6.54,0,0,0,1-.07,7.12,7.12,0,0,0,.75-.16v1.48a3.34,3.34,0,0,1-.92.26,7.74,7.74,0,0,1-1.11.09q-3.72,0-3.72-3.91v-7.62h-1.83v-.94l1.83-.8.82-2.74h1.12v3h3.72v1.51h-3.72v7.54a2.6,2.6,0,0,0,.55,1.77A1.9,1.9,0,0,0,213.9,439Z"/><path d="M218.05,424.1a1.26,1.26,0,0,1,.33-1,1.13,1.13,0,0,1,.82-.31,1.12,1.12,0,0,1,.8.31,1.26,1.26,0,0,1,.34,1,1.28,1.28,0,0,1-.34,1,1.13,1.13,0,0,1-.8.32,1.14,1.14,0,0,1-.82-.32A1.32,1.32,0,0,1,218.05,424.1Zm2.1,16.28h-1.94V427.57h1.94Z"/><path d="M227.07,440.38l-4.86-12.81h2.08l2.76,7.6c.62,1.78,1,2.93,1.1,3.46h.09c.09-.42.36-1.27.81-2.57s1.48-4.12,3.07-8.49h2.08l-4.86,12.81Z"/><path d="M236.09,424.1a1.26,1.26,0,0,1,.33-1,1.13,1.13,0,0,1,.82-.31,1.16,1.16,0,0,1,.81.31,1.3,1.3,0,0,1,.34,1,1.32,1.32,0,0,1-.34,1,1.17,1.17,0,0,1-.81.32,1.14,1.14,0,0,1-.82-.32A1.32,1.32,0,0,1,236.09,424.1Zm2.11,16.28h-1.94V427.57h1.94Z"/><path d="M251,438.66h-.1a4.57,4.57,0,0,1-4,1.95A4.76,4.76,0,0,1,243,438.9a7.59,7.59,0,0,1-1.4-4.89,7.72,7.72,0,0,1,1.4-4.92,4.73,4.73,0,0,1,3.91-1.75,4.65,4.65,0,0,1,4,1.89h.15l-.08-.92,0-.9V422.2h1.94v18.18h-1.58Zm-3.88.33a3.52,3.52,0,0,0,2.88-1.08,5.43,5.43,0,0,0,.9-3.49V434a6.43,6.43,0,0,0-.91-3.88,3.43,3.43,0,0,0-2.89-1.17,3,3,0,0,0-2.61,1.33,6.54,6.54,0,0,0-.91,3.75,6.31,6.31,0,0,0,.9,3.7A3.06,3.06,0,0,0,247.15,439Z"/><path d="M264.86,440.38l-.39-1.82h-.09a5.53,5.53,0,0,1-1.91,1.63,5.93,5.93,0,0,1-2.38.42,4.26,4.26,0,0,1-3-1,3.57,3.57,0,0,1-1.08-2.79c0-2.59,2.07-3.94,6.21-4.07l2.17-.07v-.79a3.26,3.26,0,0,0-.65-2.23,2.65,2.65,0,0,0-2.07-.72,8.54,8.54,0,0,0-3.63,1l-.59-1.48a9.49,9.49,0,0,1,2.07-.81,9.22,9.22,0,0,1,2.26-.29,4.88,4.88,0,0,1,3.4,1,4.22,4.22,0,0,1,1.1,3.26v8.74ZM260.47,439a4,4,0,0,0,2.85-1,3.67,3.67,0,0,0,1-2.78v-1.16l-1.94.08a7.15,7.15,0,0,0-3.33.72,2.19,2.19,0,0,0-1,2,2,2,0,0,0,.64,1.6A2.63,2.63,0,0,0,260.47,439Z"/><path d="M279,438.66h-.11a4.55,4.55,0,0,1-4,1.95A4.79,4.79,0,0,1,271,438.9a7.59,7.59,0,0,1-1.39-4.89,7.72,7.72,0,0,1,1.4-4.92,4.72,4.72,0,0,1,3.9-1.75,4.67,4.67,0,0,1,4,1.89H279l-.08-.92-.05-.9V422.2h1.94v18.18h-1.57Zm-3.88.33a3.54,3.54,0,0,0,2.88-1.08,5.43,5.43,0,0,0,.89-3.49V434a6.44,6.44,0,0,0-.9-3.88,3.44,3.44,0,0,0-2.89-1.17,3,3,0,0,0-2.62,1.33,6.62,6.62,0,0,0-.9,3.75,6.31,6.31,0,0,0,.9,3.7A3.06,3.06,0,0,0,275.13,439Z"/><path d="M290.37,440.61a5.85,5.85,0,0,1-4.48-1.73,6.66,6.66,0,0,1-1.64-4.8,7.42,7.42,0,0,1,1.52-4.92,5.08,5.08,0,0,1,4.1-1.82,4.86,4.86,0,0,1,3.81,1.58,6.1,6.1,0,0,1,1.4,4.18v1.23h-8.82a5,5,0,0,0,1.13,3.42,4,4,0,0,0,3.05,1.17,10.27,10.27,0,0,0,4.09-.87v1.74a10.71,10.71,0,0,1-1.95.63A10.82,10.82,0,0,1,290.37,440.61ZM289.84,429a3.17,3.17,0,0,0-2.46,1,4.65,4.65,0,0,0-1.08,2.78H293a4.24,4.24,0,0,0-.82-2.81A2.89,2.89,0,0,0,289.84,429Z"/><path d="M306.65,436.89a3.21,3.21,0,0,1-1.33,2.75,6.25,6.25,0,0,1-3.74,1,8.13,8.13,0,0,1-4-.8V438a10,10,0,0,0,2,.74,8.78,8.78,0,0,0,2,.26,4.64,4.64,0,0,0,2.34-.48,1.6,1.6,0,0,0,.82-1.48,1.62,1.62,0,0,0-.65-1.28,10.64,10.64,0,0,0-2.53-1.26,13.51,13.51,0,0,1-2.54-1.16,3.44,3.44,0,0,1-1.12-1.13,3.11,3.11,0,0,1,.9-4,6,6,0,0,1,3.5-.9,10.23,10.23,0,0,1,4,.84l-.69,1.58a9.31,9.31,0,0,0-3.49-.8,4,4,0,0,0-2.08.44,1.32,1.32,0,0,0-.71,1.19,1.41,1.41,0,0,0,.27.87,2.36,2.36,0,0,0,.85.69,17,17,0,0,0,2.24,1,8.4,8.4,0,0,1,3.08,1.67A3,3,0,0,1,306.65,436.89Z"/><path d="M257.2,385.49l-1.85-4.72H249.4l-1.82,4.72h-1.75l5.87-14.9h1.45l5.83,14.9Zm-2.39-6.28-1.72-4.59a21.26,21.26,0,0,1-.69-2.15,21.48,21.48,0,0,1-.64,2.15L250,379.21Z"/><path d="M268.38,385.49v-7.2a2.92,2.92,0,0,0-.62-2,2.51,2.51,0,0,0-1.94-.67,3.21,3.21,0,0,0-2.55.94,4.72,4.72,0,0,0-.82,3.12v5.84h-1.68V374.36h1.37l.27,1.52h.08a3.49,3.49,0,0,1,1.46-1.27,4.7,4.7,0,0,1,2.08-.45,4.2,4.2,0,0,1,3,1,4.12,4.12,0,0,1,1,3.1v7.26Z"/><path d="M281.1,384H281a4,4,0,0,1-3.5,1.7,4.14,4.14,0,0,1-3.39-1.49,6.58,6.58,0,0,1-1.21-4.25,6.7,6.7,0,0,1,1.21-4.27,4.13,4.13,0,0,1,3.39-1.52A4.08,4.08,0,0,1,281,375.8h.13l-.07-.8,0-.78v-4.53h1.68v15.8h-1.37Zm-3.37.29a3.09,3.09,0,0,0,2.5-.94,4.74,4.74,0,0,0,.78-3V380a5.6,5.6,0,0,0-.79-3.37,3,3,0,0,0-2.51-1,2.57,2.57,0,0,0-2.27,1.15,5.68,5.68,0,0,0-.79,3.25,5.48,5.48,0,0,0,.78,3.22A2.64,2.64,0,0,0,277.73,384.28Z"/><path d="M293.1,385.49l-.33-1.59h-.08a4.76,4.76,0,0,1-1.66,1.42,5.18,5.18,0,0,1-2.07.37,3.74,3.74,0,0,1-2.59-.85,3.11,3.11,0,0,1-.94-2.43c0-2.25,1.8-3.42,5.39-3.53l1.89-.06v-.69a2.81,2.81,0,0,0-.57-1.94,2.32,2.32,0,0,0-1.8-.62,7.31,7.31,0,0,0-3.14.85l-.52-1.29a8.42,8.42,0,0,1,1.8-.7,7.75,7.75,0,0,1,2-.25,4.23,4.23,0,0,1,2.95.88,3.7,3.7,0,0,1,1,2.83v7.6Zm-3.8-1.19a3.44,3.44,0,0,0,2.47-.86,3.21,3.21,0,0,0,.9-2.42v-1l-1.69.07a6.07,6.07,0,0,0-2.9.62,1.88,1.88,0,0,0-.88,1.72,1.73,1.73,0,0,0,.55,1.39A2.28,2.28,0,0,0,289.3,384.3Z"/><path d="M302.9,374.16a6.78,6.78,0,0,1,1.33.12l-.24,1.56a5.78,5.78,0,0,0-1.22-.15,3,3,0,0,0-2.3,1.1,4,4,0,0,0-1,2.73v6h-1.69V374.36h1.39l.19,2.06h.09a4.87,4.87,0,0,1,1.49-1.67A3.37,3.37,0,0,1,302.9,374.16Z"/><path d="M316.4,385.69a5.11,5.11,0,0,1-3.89-1.5,5.83,5.83,0,0,1-1.42-4.17,6.48,6.48,0,0,1,1.32-4.28,4.41,4.41,0,0,1,3.56-1.58,4.21,4.21,0,0,1,3.31,1.38,5.25,5.25,0,0,1,1.21,3.62v1.07h-7.66a4.36,4.36,0,0,0,1,3,3.42,3.42,0,0,0,2.64,1,9,9,0,0,0,3.56-.75V385a9.45,9.45,0,0,1-1.69.55A9.67,9.67,0,0,1,316.4,385.69ZM316,375.57a2.75,2.75,0,0,0-2.14.87,4.1,4.1,0,0,0-.94,2.42h5.82a3.72,3.72,0,0,0-.71-2.44A2.5,2.5,0,0,0,316,375.57Z"/><path d="M331,385.49v-7.2a2.92,2.92,0,0,0-.62-2,2.52,2.52,0,0,0-1.94-.67,3.24,3.24,0,0,0-2.56.94,4.78,4.78,0,0,0-.81,3.12v5.84h-1.69V374.36h1.38l.27,1.52h.08a3.52,3.52,0,0,1,1.45-1.27,4.73,4.73,0,0,1,2.08-.45,4.23,4.23,0,0,1,3,1,4.16,4.16,0,0,1,1,3.1v7.26Z"/><path d="M257.62,399.12a4.13,4.13,0,0,1,3.4,1.5,8,8,0,0,1,0,8.49,4.11,4.11,0,0,1-3.39,1.52,4.78,4.78,0,0,1-2-.4,3.78,3.78,0,0,1-1.5-1.23H254l-.36,1.43h-1.21V394.64h1.69v3.83c0,.86,0,1.63-.08,2.32h.08A4,4,0,0,1,257.62,399.12Zm-.25,1.41a2.93,2.93,0,0,0-2.48,1,7.65,7.65,0,0,0,0,6.69,3,3,0,0,0,2.51,1,2.61,2.61,0,0,0,2.31-1.13,5.82,5.82,0,0,0,.76-3.26,5.56,5.56,0,0,0-.76-3.23A2.71,2.71,0,0,0,257.37,400.53Z"/><path d="M265,396.29a1.12,1.12,0,0,1,.28-.85,1,1,0,0,1,.71-.27,1,1,0,0,1,.7.28,1.08,1.08,0,0,1,.3.84,1.11,1.11,0,0,1-.3.85,1,1,0,0,1-1.41,0A1.15,1.15,0,0,1,265,396.29Zm1.82,14.14h-1.68V399.3h1.68Z"/><path d="M274.88,410.63a4.75,4.75,0,0,1-3.74-1.49,6.11,6.11,0,0,1-1.32-4.2,6.37,6.37,0,0,1,1.34-4.32A4.86,4.86,0,0,1,275,399.1a8,8,0,0,1,1.61.17,5.21,5.21,0,0,1,1.25.41l-.51,1.43a8.31,8.31,0,0,0-1.22-.37,5.35,5.35,0,0,0-1.17-.15q-3.39,0-3.39,4.33a5.15,5.15,0,0,0,.83,3.14,2.88,2.88,0,0,0,2.45,1.1,7.44,7.44,0,0,0,2.85-.6v1.49A6,6,0,0,1,274.88,410.63Z"/><path d="M280.19,396.29a1.12,1.12,0,0,1,.28-.85,1,1,0,0,1,.71-.27,1,1,0,0,1,.7.28,1.08,1.08,0,0,1,.3.84,1.11,1.11,0,0,1-.3.85,1,1,0,0,1-1.41,0A1.15,1.15,0,0,1,280.19,396.29ZM282,410.43h-1.69V399.3H282Z"/><path d="M290,410.63a4.76,4.76,0,0,1-3.74-1.49,6.11,6.11,0,0,1-1.32-4.2,6.37,6.37,0,0,1,1.34-4.32,4.87,4.87,0,0,1,3.83-1.52,8,8,0,0,1,1.61.17,5.47,5.47,0,0,1,1.26.41l-.52,1.43a8,8,0,0,0-1.22-.37,5.35,5.35,0,0,0-1.17-.15q-3.39,0-3.39,4.33a5.15,5.15,0,0,0,.83,3.14,2.88,2.88,0,0,0,2.45,1.1,7.44,7.44,0,0,0,2.85-.6v1.49A6,6,0,0,1,290,410.63Z"/><path d="M297.17,410.43h-1.69V394.64h1.69Z"/><path d="M305.44,410.63a5.1,5.1,0,0,1-3.89-1.5,5.81,5.81,0,0,1-1.43-4.17,6.48,6.48,0,0,1,1.32-4.28A4.43,4.43,0,0,1,305,399.1a4.18,4.18,0,0,1,3.31,1.38,5.25,5.25,0,0,1,1.22,3.62v1.07h-7.66a4.34,4.34,0,0,0,1,3,3.39,3.39,0,0,0,2.64,1,9,9,0,0,0,3.55-.75v1.5a8.49,8.49,0,0,1-1.69.55A9.56,9.56,0,0,1,305.44,410.63ZM305,400.51a2.74,2.74,0,0,0-2.13.87,4,4,0,0,0-.94,2.42h5.81a3.72,3.72,0,0,0-.71-2.44A2.48,2.48,0,0,0,305,400.51Z"/><path d="M316,409.24a4.94,4.94,0,0,0,.87-.07c.27,0,.49-.09.65-.13v1.29a3.11,3.11,0,0,1-.8.21,5.91,5.91,0,0,1-1,.09q-3.22,0-3.23-3.4v-6.62h-1.59v-.81l1.59-.7.71-2.37h1v2.57h3.22v1.31h-3.22v6.55a2.24,2.24,0,0,0,.47,1.54A1.67,1.67,0,0,0,316,409.24Z"/><path d="M326.58,410.43l-.34-1.59h-.08a4.67,4.67,0,0,1-1.66,1.42,5,5,0,0,1-2.06.37,3.72,3.72,0,0,1-2.6-.85,3.14,3.14,0,0,1-.94-2.43q0-3.36,5.39-3.53l1.89-.06v-.69a2.83,2.83,0,0,0-.56-1.93,2.32,2.32,0,0,0-1.8-.63,7.46,7.46,0,0,0-3.15.85l-.52-1.28a7.49,7.49,0,0,1,1.8-.7,7.84,7.84,0,0,1,2-.26,4.3,4.3,0,0,1,2.95.88,3.7,3.7,0,0,1,1,2.84v7.59Zm-3.81-1.19a3.44,3.44,0,0,0,2.47-.86,3.2,3.2,0,0,0,.9-2.42v-1l-1.68.07a6.16,6.16,0,0,0-2.9.62,1.89,1.89,0,0,0-.89,1.72,1.76,1.76,0,0,0,.55,1.39A2.3,2.3,0,0,0,322.77,409.24Z"/><path d="M390,385.49V370.65h1.73v13.27h6.54v1.57Z"/><path d="M405.27,385.69a5.11,5.11,0,0,1-3.89-1.5A5.83,5.83,0,0,1,400,380a6.48,6.48,0,0,1,1.33-4.28,4.41,4.41,0,0,1,3.56-1.58,4.17,4.17,0,0,1,3.3,1.38,5.2,5.2,0,0,1,1.22,3.62v1.07H401.7a4.36,4.36,0,0,0,1,3,3.42,3.42,0,0,0,2.64,1,9,9,0,0,0,3.56-.75V385a9.45,9.45,0,0,1-1.69.55A9.74,9.74,0,0,1,405.27,385.69Zm-.45-10.12a2.75,2.75,0,0,0-2.14.87,4.1,4.1,0,0,0-.94,2.42h5.82a3.72,3.72,0,0,0-.71-2.44A2.5,2.5,0,0,0,404.82,375.57Z"/><path d="M416.93,385.69a5.11,5.11,0,0,1-3.89-1.5,5.83,5.83,0,0,1-1.42-4.17,6.48,6.48,0,0,1,1.32-4.28,4.41,4.41,0,0,1,3.56-1.58,4.21,4.21,0,0,1,3.31,1.38,5.25,5.25,0,0,1,1.21,3.62v1.07h-7.66a4.36,4.36,0,0,0,1,3,3.42,3.42,0,0,0,2.64,1,9,9,0,0,0,3.56-.75V385a9.45,9.45,0,0,1-1.69.55A9.67,9.67,0,0,1,416.93,385.69Zm-.45-10.12a2.75,2.75,0,0,0-2.14.87,4.1,4.1,0,0,0-.94,2.42h5.82a3.72,3.72,0,0,0-.71-2.44A2.5,2.5,0,0,0,416.48,375.57Z"/><path d="M429,374.16a6.7,6.7,0,0,1,1.33.12l-.23,1.56a5.85,5.85,0,0,0-1.22-.15,3,3,0,0,0-2.31,1.1,4,4,0,0,0-1,2.73v6H423.9V374.36h1.39l.19,2.06h.08a4.87,4.87,0,0,1,1.49-1.67A3.37,3.37,0,0,1,429,374.16Z"/><path d="M148.94,385.49h-1.72V372.18h-4.7v-1.53h11.12v1.53h-4.7Z"/><path d="M160.69,374.16a6.63,6.63,0,0,1,1.33.12l-.23,1.56a5.85,5.85,0,0,0-1.22-.15,3,3,0,0,0-2.31,1.1,4,4,0,0,0-1,2.73v6h-1.68V374.36H157l.19,2.06h.08a4.87,4.87,0,0,1,1.49-1.67A3.42,3.42,0,0,1,160.69,374.16Z"/><path d="M173.7,379.91a6.1,6.1,0,0,1-1.37,4.25,4.8,4.8,0,0,1-3.78,1.53,5,5,0,0,1-2.65-.7,4.68,4.68,0,0,1-1.79-2,7,7,0,0,1-.63-3.07,6.14,6.14,0,0,1,1.36-4.23,4.83,4.83,0,0,1,3.78-1.52,4.74,4.74,0,0,1,3.71,1.55A6.16,6.16,0,0,1,173.7,379.91Zm-8.47,0a5.27,5.27,0,0,0,.85,3.25,3,3,0,0,0,2.51,1.12,3,3,0,0,0,2.51-1.11,5.28,5.28,0,0,0,.86-3.26,5.19,5.19,0,0,0-.86-3.22,3,3,0,0,0-2.53-1.1,3,3,0,0,0-2.5,1.09A5.21,5.21,0,0,0,165.23,379.91Z"/><path d="M180.25,384.3a4.83,4.83,0,0,0,.86-.07,4.31,4.31,0,0,0,.66-.14v1.29a3,3,0,0,1-.81.22,5.72,5.72,0,0,1-1,.09q-3.23,0-3.22-3.4v-6.62h-1.6v-.81l1.6-.7.71-2.37h1v2.57h3.23v1.31h-3.23v6.55a2.24,2.24,0,0,0,.48,1.54A1.65,1.65,0,0,0,180.25,384.3Z"/><path d="M190.83,385.49l-.33-1.59h-.08a4.76,4.76,0,0,1-1.66,1.42,5.18,5.18,0,0,1-2.07.37,3.76,3.76,0,0,1-2.59-.85,3.11,3.11,0,0,1-.94-2.43c0-2.25,1.8-3.42,5.39-3.53l1.89-.06v-.69a2.81,2.81,0,0,0-.57-1.94,2.32,2.32,0,0,0-1.8-.62,7.31,7.31,0,0,0-3.14.85l-.52-1.29a8.42,8.42,0,0,1,1.8-.7,7.75,7.75,0,0,1,2-.25,4.23,4.23,0,0,1,3,.88,3.7,3.7,0,0,1,1,2.83v7.6ZM187,384.3a3.44,3.44,0,0,0,2.47-.86,3.21,3.21,0,0,0,.9-2.42v-1l-1.69.07a6.07,6.07,0,0,0-2.9.62,1.88,1.88,0,0,0-.88,1.72,1.73,1.73,0,0,0,.55,1.39A2.28,2.28,0,0,0,187,384.3Z"/><path d="M200.63,374.16a6.78,6.78,0,0,1,1.33.12l-.24,1.56a5.78,5.78,0,0,0-1.22-.15,3,3,0,0,0-2.3,1.1,4,4,0,0,0-1,2.73v6h-1.69V374.36h1.39l.19,2.06h.09a4.87,4.87,0,0,1,1.49-1.67A3.37,3.37,0,0,1,200.63,374.16Z"/><path d="M37.43,248v2H20.34v-9.53h1.77V248h6.25V241h1.76V248Z"/><path d="M24.39,232.12a7.28,7.28,0,0,1,.14-1.54l1.8.27a6.47,6.47,0,0,0-.18,1.41,3.4,3.4,0,0,0,1.26,2.65A4.59,4.59,0,0,0,30.56,236h6.87V238H24.62v-1.6l2.37-.22V236a5.7,5.7,0,0,1-1.93-1.72A3.85,3.85,0,0,1,24.39,232.12Z"/><path d="M37.66,222.78a5.87,5.87,0,0,1-1.73,4.48,6.7,6.7,0,0,1-4.8,1.64,7.44,7.44,0,0,1-4.92-1.52,5.07,5.07,0,0,1-1.82-4.1A4.8,4.8,0,0,1,26,219.47a6.1,6.1,0,0,1,4.18-1.4h1.22v8.82a5.09,5.09,0,0,0,3.43-1.14,3.93,3.93,0,0,0,1.17-3,10.23,10.23,0,0,0-.87-4.09h1.73a10,10,0,0,1,.64,1.94A10.86,10.86,0,0,1,37.66,222.78ZM26,223.3a3.17,3.17,0,0,0,1,2.46,4.51,4.51,0,0,0,2.78,1.08v-6.69A4.22,4.22,0,0,0,27,221,2.87,2.87,0,0,0,26,223.3Z"/><path d="M37.66,209.64A5.47,5.47,0,0,1,36,214a7.07,7.07,0,0,1-4.84,1.52,7.22,7.22,0,0,1-5-1.55,5.56,5.56,0,0,1-1.75-4.41,8.84,8.84,0,0,1,.19-1.84,6.32,6.32,0,0,1,.47-1.45l1.65.59a10.47,10.47,0,0,0-.43,1.4,6.54,6.54,0,0,0-.17,1.35q0,3.9,5,3.9a5.92,5.92,0,0,0,3.63-1A3.31,3.31,0,0,0,36,209.69a8.67,8.67,0,0,0-.69-3.29H37A7.08,7.08,0,0,1,37.66,209.64Z"/><path d="M24.62,201.54h8.31a3.39,3.39,0,0,0,2.34-.71A2.93,2.93,0,0,0,36,198.6a3.65,3.65,0,0,0-1.1-2.94,5.54,5.54,0,0,0-3.59-.93H24.62v-1.94H37.43v1.6l-1.72.28v.11a3.83,3.83,0,0,1,1.45,1.65,5.61,5.61,0,0,1,.5,2.41,4.89,4.89,0,0,1-1.11,3.5A4.7,4.7,0,0,1,33,203.51H24.62Z"/><path d="M37.66,183.26a5.88,5.88,0,0,1-1.73,4.49,6.7,6.7,0,0,1-4.8,1.64,7.39,7.39,0,0,1-4.92-1.53,5,5,0,0,1-1.82-4.09A4.8,4.8,0,0,1,26,180a6.06,6.06,0,0,1,4.18-1.41h1.22v8.83a5.09,5.09,0,0,0,3.43-1.14A4,4,0,0,0,36,183.19a10.27,10.27,0,0,0-.87-4.09h1.73a10.28,10.28,0,0,1,.64,2A10.82,10.82,0,0,1,37.66,183.26ZM26,183.79a3.17,3.17,0,0,0,1,2.46,4.63,4.63,0,0,0,2.78,1.08v-6.7a4.28,4.28,0,0,0-2.81.82A2.9,2.9,0,0,0,26,183.79Z"/><path d="M37.43,166.48H29.14a3.35,3.35,0,0,0-2.33.71,2.9,2.9,0,0,0-.78,2.24,3.68,3.68,0,0,0,1.09,2.94,5.52,5.52,0,0,0,3.59.94h6.72v1.94H24.62v-1.58l1.75-.32v-.09a4,4,0,0,1-1.46-1.67,5.41,5.41,0,0,1-.52-2.4,4.88,4.88,0,0,1,1.11-3.48,4.76,4.76,0,0,1,3.57-1.17h8.36Z"/><path d="M37.66,155.44a5.45,5.45,0,0,1-1.71,4.3,7,7,0,0,1-4.84,1.53,7.27,7.27,0,0,1-5-1.55,5.56,5.56,0,0,1-1.75-4.41,8.94,8.94,0,0,1,.19-1.85,6.49,6.49,0,0,1,.47-1.45l1.65.6a10,10,0,0,0-.43,1.4,6.54,6.54,0,0,0-.17,1.35q0,3.9,5,3.9a6,6,0,0,0,3.63-.95A3.33,3.33,0,0,0,36,155.48a8.63,8.63,0,0,0-.69-3.28H37A7.08,7.08,0,0,1,37.66,155.44Z"/><path d="M21.15,149.32a1.33,1.33,0,0,1-1-.32,1.21,1.21,0,0,1,0-1.63,1.28,1.28,0,0,1,1-.34,1.3,1.3,0,0,1,1,.34,1.13,1.13,0,0,1,.33.81,1.11,1.11,0,0,1-.33.82A1.33,1.33,0,0,1,21.15,149.32Zm16.28-2.1v1.94H24.62v-1.94Z"/><path d="M37.43,135.23l-1.82.39v.09a5.53,5.53,0,0,1,1.63,1.91,5.93,5.93,0,0,1,.42,2.38,4.28,4.28,0,0,1-1,3,3.54,3.54,0,0,1-2.79,1.09q-3.88,0-4.07-6.21l-.07-2.17H29a3.26,3.26,0,0,0-2.23.64,2.69,2.69,0,0,0-.72,2.08A8.5,8.5,0,0,0,27,142l-1.48.6a8.91,8.91,0,0,1-.81-2.08,9.16,9.16,0,0,1-.29-2.26,4.86,4.86,0,0,1,1-3.39,4.21,4.21,0,0,1,3.26-1.11h8.74Zm-1.37,4.38a3.94,3.94,0,0,0-1-2.84,3.67,3.67,0,0,0-2.78-1H31.13l.08,1.94a7.2,7.2,0,0,0,.72,3.34,2.16,2.16,0,0,0,2,1,2,2,0,0,0,1.6-.64A2.6,2.6,0,0,0,36.06,139.61Z"/><rect class="cls-5" x="1.5" y="1.5" width="486" height="453.33" rx="18.17" ry="18.17"/></svg>