<svg xmlns="http://www.w3.org/2000/svg" viewBox="0 0 583.68 583.68"><defs><style>.cls-1{isolation:isolate;}.cls-2{fill:#bebc60;}.cls-3{fill:#adadad;}.cls-4{fill:#d8d8d7;}.cls-11,.cls-4,.cls-8{mix-blend-mode:multiply;}.cls-5{fill:#e0dfcc;}.cls-6{fill:#fffdf3;}.cls-7{fill:#d2d2cc;}.cls-9{fill:#b7b7b7;}.cls-10{fill:#dbdedf;}.cls-11{fill:#bcbdbf;}.cls-12{fill:#999896;}</style></defs><title>40526010202211_Sello</title><g class="cls-1"><g id="Layer_1" data-name="Layer 1"><circle class="cls-2" cx="291.84" cy="291.84" r="291.84"/><circle class="cls-3" cx="291.84" cy="291.84" r="240.77"/><path class="cls-4" d="M59.41,296c0-133,107.8-240.77,240.77-240.77A239.66,239.66,0,0,1,403.41,78.45,239.62,239.62,0,0,0,291.84,51.07c-133,0-240.77,107.8-240.77,240.77A240.79,240.79,0,0,0,188.61,509.41,240.75,240.75,0,0,1,59.41,296Z"/><path class="cls-5" d="M403.41,78.45a240.71,240.71,0,0,1,129.2,213.39c0,133-107.79,240.77-240.77,240.77a239.86,239.86,0,0,1-103.23-23.2,239.76,239.76,0,0,0,111.57,27.37C433.15,536.78,541,429,541,296A240.78,240.78,0,0,0,403.41,78.45Z"/><path class="cls-6" d="M289,524.79a227,227,0,0,1-55.64-10.9,223,223,0,0,1-50.3-24,238.53,238.53,0,0,1-22.22-16.28A241,241,0,0,1,140.93,455,220.48,220.48,0,0,1,109,411.71a217.17,217.17,0,0,0,37.24,37.46,227.44,227.44,0,0,0,21.43,14.91,224.64,224.64,0,0,0,22.85,12.05,203.21,203.21,0,0,0,48.62,14.92A199.49,199.49,0,0,0,289,493.37Z"/><path class="cls-7" d="M302.15,493.37A199.54,199.54,0,0,0,352,491.05a203.28,203.28,0,0,0,48.61-14.92,225.85,225.85,0,0,0,22.86-12.05,228.6,228.6,0,0,0,21.42-14.91,216.81,216.81,0,0,0,37.24-37.46A220.08,220.08,0,0,1,450.16,455a239.36,239.36,0,0,1-19.86,18.7,237.22,237.22,0,0,1-22.22,16.28,223,223,0,0,1-50.3,24,226.92,226.92,0,0,1-55.63,10.9Z"/><g class="cls-8"><path class="cls-9" d="M127.25,209.33h32.39v174H124.19V242.82L91.79,261.6l-14-26.26Z"/><path class="cls-9" d="M318.78,232.27q21.47,25.28,21.47,64.17t-21.47,64.42q-21.48,25.51-54.11,25.52t-54.11-25.52q-21.47-25.53-21.47-64.42T210.56,232q21.47-25.59,54.11-25.59T318.78,232.27Zm-82.45,20.49q-11.42,17.31-11.41,44.11t10.92,43.56q10.92,16.74,28.83,16.74t28.83-16.74q10.92-16.76,10.92-43.56t-11.1-44q-11.11-17.17-28.65-17.17T236.33,252.76Z"/><path class="cls-9" d="M494.47,232.27Q516,257.55,516,296.44t-21.48,64.42q-21.47,25.51-54.1,25.52t-54.11-25.52q-21.48-25.53-21.47-64.42T386.26,232q21.47-25.59,54.11-25.59T494.47,232.27ZM412,252.76q-11.4,17.31-11.41,44.11t10.92,43.56q10.92,16.74,28.84,16.74t28.83-16.74q10.92-16.76,10.92-43.56t-11.1-44q-11.11-17.17-28.65-17.17T412,252.76Z"/></g><path class="cls-10" d="M124.51,206.58H156.9v174H121.44V240.08L89.05,258.85l-14-26.25Z"/><path class="cls-10" d="M316,229.53q21.48,25.28,21.48,64.17T316,358.11q-21.46,25.53-54.1,25.52t-54.11-25.52q-21.48-25.51-21.47-64.41t21.47-64.48q21.47-25.58,54.11-25.58T316,229.53ZM233.58,250q-11.4,17.29-11.41,44.11t10.92,43.55q10.92,16.76,28.84,16.75t28.83-16.75q10.92-16.74,10.92-43.55t-11.11-44Q279.47,233,261.93,233T233.58,250Z"/><path class="cls-10" d="M491.73,229.53q21.47,25.28,21.47,64.17t-21.47,64.41q-21.47,25.53-54.11,25.52t-54.1-25.52Q362,332.6,362,293.7t21.48-64.48q21.47-25.58,54.1-25.58T491.73,229.53ZM409.28,250q-11.41,17.29-11.41,44.11t10.92,43.55q10.92,16.76,28.83,16.75t28.84-16.75q10.92-16.74,10.92-43.55t-11.11-44Q455.17,233,437.62,233T409.28,250Z"/><path id="A" class="cls-11" d="M291.24,132.07c-2.18,0-3.82,0-4.88-.12l-5.23,17.69a36.55,36.55,0,0,1-8.17.73,28.8,28.8,0,0,1-9.51-1.34l-.58-1,26.79-81.77a74.59,74.59,0,0,1,11.09-.74,62.79,62.79,0,0,1,11.46.86l26.31,81.9a20,20,0,0,1-9.63,2.31c-4.23,0-7.17-.72-8.89-2.2s-3.16-4.27-4.39-8.41L313.29,132c-1,.08-2.65.12-4.74.12Zm-.36-15.33,4.88-.12h8.9l2.11,0c1,0,1.78.07,2.27.07l-2.1-7.57q-2.88-10.23-6.67-25.09h-.74q-1,5.24-5.86,23.27Z"/><path id="A-2" data-name="A" class="cls-12" d="M288.73,132.07c-2.18,0-3.81,0-4.88-.12l-5.23,17.69a36.55,36.55,0,0,1-8.17.73,28.8,28.8,0,0,1-9.51-1.34l-.58-1,26.79-81.77a74.73,74.73,0,0,1,11.1-.74,62.59,62.59,0,0,1,11.45.86L336,148.3a20,20,0,0,1-9.63,2.31c-4.23,0-7.17-.72-8.89-2.2s-3.16-4.27-4.39-8.41L310.78,132c-1,.08-2.64.12-4.74.12Zm-.36-15.33,4.89-.12h8.89l2.11,0c1,0,1.78.07,2.27.07l-2.09-7.57q-2.9-10.23-6.68-25.09H297c-.66,3.49-2.6,11.25-5.87,23.27Z"/></g></g></svg>