<svg id="Layer_1" data-name="Layer 1" xmlns="http://www.w3.org/2000/svg" viewBox="0 0 1036.81 793.51"><defs><style>.cls-1,.cls-2,.cls-4{fill:none;}.cls-1{stroke:#d4e6c0;}.cls-1,.cls-2,.cls-3,.cls-4{stroke-miterlimit:10;stroke-width:3px;}.cls-2,.cls-3{stroke:#478502;}.cls-3{fill:#549c02;}.cls-4{stroke:#7fb542;}</style></defs><title>40527010202256</title><line class="cls-1" x1="270.31" y1="84.17" x2="270.31" y2="678.5"/><line class="cls-1" x1="337.14" y1="84.17" x2="337.14" y2="678.5"/><line class="cls-1" x1="403.14" y1="84.17" x2="403.14" y2="678.5"/><line class="cls-1" x1="469.98" y1="84.17" x2="469.98" y2="678.5"/><line class="cls-1" x1="535.81" y1="84.17" x2="535.81" y2="678.5"/><line class="cls-1" x1="602.64" y1="84.17" x2="602.64" y2="678.5"/><line class="cls-1" x1="668.64" y1="84.17" x2="668.64" y2="678.5"/><line class="cls-1" x1="735.48" y1="84.17" x2="735.48" y2="678.5"/><line class="cls-1" x1="802.81" y1="84.17" x2="802.81" y2="678.5"/><line class="cls-1" x1="869.64" y1="84.17" x2="869.64" y2="678.5"/><polyline class="cls-2" points="203.79 84.17 203.79 678.5 995.64 678.5"/><rect class="cls-3" x="203.79" y="143" width="464.85" height="70"/><rect class="cls-3" x="203.79" y="278" width="665.85" height="70"/><rect class="cls-3" x="203.79" y="410.5" width="266.18" height="70"/><rect class="cls-3" x="203.79" y="546" width="599.01" height="70"/><path d="M403.17,57.23,400,49.16H389.84l-3.12,8.07h-3l10-25.48h2.49l10,25.48ZM399.09,46.5l-2.95-7.86c-.38-1-.77-2.22-1.18-3.66a32.77,32.77,0,0,1-1.09,3.66l-3,7.86Z"/><path d="M421.56,52a4.77,4.77,0,0,1-2,4.1A9.31,9.31,0,0,1,414,57.58a12.05,12.05,0,0,1-5.9-1.2V53.71a14.34,14.34,0,0,0,2.94,1.09,12.14,12.14,0,0,0,3,.4,6.89,6.89,0,0,0,3.48-.72,2.49,2.49,0,0,0,.25-4.1,15.57,15.57,0,0,0-3.76-1.86,20.7,20.7,0,0,1-3.78-1.73,5.1,5.1,0,0,1-1.66-1.68A4.61,4.61,0,0,1,410,39.2a8.86,8.86,0,0,1,5.19-1.34,15.1,15.1,0,0,1,6,1.25l-1,2.34A13.73,13.73,0,0,0,415,40.27a6,6,0,0,0-3.09.64,2,2,0,0,0-1.05,1.77A2.18,2.18,0,0,0,411.2,44a3.9,3.9,0,0,0,1.26,1,29.75,29.75,0,0,0,3.34,1.41,12.49,12.49,0,0,1,4.57,2.48A4.38,4.38,0,0,1,421.56,52Z"/><path d="M426,33.05a1.94,1.94,0,0,1,.49-1.45,1.68,1.68,0,0,1,1.22-.46,1.64,1.64,0,0,1,1.19.47,1.86,1.86,0,0,1,.51,1.44,1.9,1.9,0,0,1-.51,1.45,1.75,1.75,0,0,1-2.41,0A2,2,0,0,1,426,33.05Zm3.13,24.18h-2.88v-19h2.88Z"/><path d="M447.52,52a4.77,4.77,0,0,1-2,4.1A9.33,9.33,0,0,1,440,57.58a12.05,12.05,0,0,1-5.9-1.2V53.71A13.92,13.92,0,0,0,437,54.8a12.14,12.14,0,0,0,3,.4,6.88,6.88,0,0,0,3.47-.72,2.48,2.48,0,0,0,.25-4.1A15.45,15.45,0,0,0,440,48.52a20.06,20.06,0,0,1-3.78-1.73,5.13,5.13,0,0,1-1.67-1.68,4.38,4.38,0,0,1-.54-2.23,4.28,4.28,0,0,1,1.89-3.68,8.86,8.86,0,0,1,5.19-1.34,15.1,15.1,0,0,1,6,1.25l-1,2.34a13.73,13.73,0,0,0-5.19-1.18,6,6,0,0,0-3.09.64,2,2,0,0,0-1,1.77,2.18,2.18,0,0,0,.39,1.31,3.9,3.9,0,0,0,1.26,1,30.2,30.2,0,0,0,3.33,1.41,12.55,12.55,0,0,1,4.58,2.48A4.38,4.38,0,0,1,447.52,52Z"/><path d="M458.35,55.2a10,10,0,0,0,1.47-.11,8.54,8.54,0,0,0,1.13-.24v2.21a5.31,5.31,0,0,1-1.38.37,10.08,10.08,0,0,1-1.64.15q-5.52,0-5.52-5.82V40.44h-2.72V39.06l2.72-1.2,1.22-4.07h1.66v4.42h5.52v2.23h-5.52v11.2a3.81,3.81,0,0,0,.82,2.64A2.84,2.84,0,0,0,458.35,55.2Z"/><path d="M472.79,57.58A8.73,8.73,0,0,1,466.14,55a9.92,9.92,0,0,1-2.44-7.13A11,11,0,0,1,466,40.57a7.52,7.52,0,0,1,6.09-2.71,7.18,7.18,0,0,1,5.66,2.35,9,9,0,0,1,2.08,6.21v1.82H466.68a7.58,7.58,0,0,0,1.69,5.09,5.89,5.89,0,0,0,4.53,1.73A15.39,15.39,0,0,0,479,53.78v2.57a14.9,14.9,0,0,1-2.89.94A16.26,16.26,0,0,1,472.79,57.58ZM472,40.27a4.71,4.71,0,0,0-3.65,1.49,6.9,6.9,0,0,0-1.61,4.14h9.95a6.35,6.35,0,0,0-1.22-4.18A4.25,4.25,0,0,0,472,40.27Z"/><path d="M497.72,57.23V44.92a4.94,4.94,0,0,0-1.06-3.47,4.31,4.31,0,0,0-3.31-1.14A5.47,5.47,0,0,0,489,41.92c-.92,1.08-1.39,2.85-1.39,5.33v10H484.7v-19h2.35l.47,2.6h.13a5.89,5.89,0,0,1,2.49-2.18,8.12,8.12,0,0,1,3.56-.77,7.2,7.2,0,0,1,5.17,1.66q1.74,1.65,1.74,5.3V57.23Z"/><path d="M514.13,57.58a8.13,8.13,0,0,1-6.4-2.54q-2.26-2.55-2.26-7.2c0-3.18.76-5.64,2.3-7.38a8.28,8.28,0,0,1,6.55-2.6,13.43,13.43,0,0,1,2.74.29,9,9,0,0,1,2.16.7l-.89,2.44a14.53,14.53,0,0,0-2.08-.63,9.23,9.23,0,0,0-2-.25q-5.79,0-5.8,7.4a8.77,8.77,0,0,0,1.42,5.38,4.91,4.91,0,0,0,4.19,1.87,12.87,12.87,0,0,0,4.88-1v2.55A10.43,10.43,0,0,1,514.13,57.58Z"/><path d="M523.21,33.05a1.9,1.9,0,0,1,.49-1.45,1.66,1.66,0,0,1,1.21-.46,1.68,1.68,0,0,1,1.2.47,1.89,1.89,0,0,1,.5,1.44,1.93,1.93,0,0,1-.5,1.45,1.69,1.69,0,0,1-1.2.48,1.64,1.64,0,0,1-1.21-.48A1.93,1.93,0,0,1,523.21,33.05Zm3.12,24.18h-2.88v-19h2.88Z"/><path d="M544.15,57.23l-.58-2.71h-.13A8.08,8.08,0,0,1,540.6,57a8.73,8.73,0,0,1-3.54.63,6.36,6.36,0,0,1-4.43-1.46A5.31,5.31,0,0,1,531,52q0-5.76,9.22-6l3.23-.1V44.65a4.83,4.83,0,0,0-1-3.31,4,4,0,0,0-3.09-1.07A12.63,12.63,0,0,0,534,41.73l-.88-2.21a13.5,13.5,0,0,1,3.08-1.19,13.36,13.36,0,0,1,3.36-.44,7.26,7.26,0,0,1,5,1.51c1.1,1,1.64,2.62,1.64,4.85v13Zm-6.51-2a5.84,5.84,0,0,0,4.22-1.47,5.47,5.47,0,0,0,1.54-4.14V47.88l-2.88.12a10.51,10.51,0,0,0-5,1.06A3.25,3.25,0,0,0,534,52a3,3,0,0,0,1,2.37A3.89,3.89,0,0,0,537.64,55.2Z"/><path d="M573.16,57.23l-.58-2.71h-.13A8.08,8.08,0,0,1,569.61,57a8.73,8.73,0,0,1-3.54.63,6.36,6.36,0,0,1-4.43-1.46A5.31,5.31,0,0,1,560,52q0-5.76,9.22-6l3.23-.1V44.65a4.83,4.83,0,0,0-1-3.31,4,4,0,0,0-3.08-1.07,12.64,12.64,0,0,0-5.39,1.46l-.88-2.21a13.5,13.5,0,0,1,3.08-1.19,13.36,13.36,0,0,1,3.36-.44,7.26,7.26,0,0,1,5,1.51c1.1,1,1.64,2.62,1.64,4.85v13Zm-6.51-2a5.89,5.89,0,0,0,4.23-1.47,5.5,5.5,0,0,0,1.53-4.14V47.88l-2.88.12a10.54,10.54,0,0,0-5,1.06A3.25,3.25,0,0,0,563.05,52a3,3,0,0,0,1,2.37A3.89,3.89,0,0,0,566.65,55.2Z"/><path d="M598.07,57.58a8.15,8.15,0,0,1-6.4-2.54q-2.26-2.55-2.26-7.2c0-3.18.76-5.64,2.3-7.38a8.29,8.29,0,0,1,6.55-2.6,13.52,13.52,0,0,1,2.75.29,9,9,0,0,1,2.15.7l-.89,2.44a14.15,14.15,0,0,0-2.08-.63,9.16,9.16,0,0,0-2-.25q-5.79,0-5.8,7.4a8.84,8.84,0,0,0,1.42,5.38A4.91,4.91,0,0,0,598,55.06a12.87,12.87,0,0,0,4.88-1v2.55A10.4,10.4,0,0,1,598.07,57.58Z"/><path d="M610.28,57.23H607.4v-27h2.88Z"/><path d="M628.09,57.23l-.57-2.71h-.14A8.08,8.08,0,0,1,624.54,57a8.68,8.68,0,0,1-3.53.63,6.37,6.37,0,0,1-4.44-1.46A5.31,5.31,0,0,1,615,52q0-5.76,9.22-6l3.23-.1V44.65a4.83,4.83,0,0,0-1-3.31,4,4,0,0,0-3.08-1.07A12.64,12.64,0,0,0,618,41.73l-.88-2.21a13.5,13.5,0,0,1,3.08-1.19,13.36,13.36,0,0,1,3.36-.44,7.26,7.26,0,0,1,5,1.51c1.1,1,1.65,2.62,1.65,4.85v13Zm-6.51-2a5.89,5.89,0,0,0,4.23-1.47,5.5,5.5,0,0,0,1.53-4.14V47.88l-2.88.12a10.54,10.54,0,0,0-5,1.06A3.25,3.25,0,0,0,618,52a3,3,0,0,0,.95,2.37A3.89,3.89,0,0,0,621.58,55.2Z"/><path d="M648.44,52a4.77,4.77,0,0,1-2,4.1,9.31,9.31,0,0,1-5.56,1.44,12.05,12.05,0,0,1-5.9-1.2V53.71a13.92,13.92,0,0,0,2.94,1.09,12.14,12.14,0,0,0,3,.4,6.85,6.85,0,0,0,3.47-.72,2.48,2.48,0,0,0,.25-4.1,15.45,15.45,0,0,0-3.75-1.86,20.7,20.7,0,0,1-3.78-1.73,5.13,5.13,0,0,1-1.67-1.68,4.38,4.38,0,0,1-.54-2.23,4.28,4.28,0,0,1,1.89-3.68A8.86,8.86,0,0,1,642,37.86a15.1,15.1,0,0,1,6,1.25l-1,2.34a13.73,13.73,0,0,0-5.19-1.18,6.09,6.09,0,0,0-3.09.64,2,2,0,0,0-1,1.77,2.18,2.18,0,0,0,.39,1.31,3.9,3.9,0,0,0,1.26,1,30.2,30.2,0,0,0,3.33,1.41,12.55,12.55,0,0,1,4.58,2.48A4.38,4.38,0,0,1,648.44,52Z"/><path d="M661.16,57.58A8.77,8.77,0,0,1,654.5,55a10,10,0,0,1-2.44-7.13,11,11,0,0,1,2.27-7.31,7.52,7.52,0,0,1,6.09-2.71,7.14,7.14,0,0,1,5.65,2.35,9,9,0,0,1,2.09,6.21v1.82H655.05a7.58,7.58,0,0,0,1.69,5.09,5.89,5.89,0,0,0,4.53,1.73,15.43,15.43,0,0,0,6.07-1.28v2.57a15.12,15.12,0,0,1-2.89.94A16.26,16.26,0,0,1,661.16,57.58Zm-.78-17.31a4.71,4.71,0,0,0-3.65,1.49,6.9,6.9,0,0,0-1.61,4.14h10a6.35,6.35,0,0,0-1.22-4.18A4.25,4.25,0,0,0,660.38,40.27Z"/><path d="M685.35,52a4.77,4.77,0,0,1-2,4.1,9.31,9.31,0,0,1-5.56,1.44,12.05,12.05,0,0,1-5.9-1.2V53.71a13.92,13.92,0,0,0,2.94,1.09,12.14,12.14,0,0,0,3,.4,6.85,6.85,0,0,0,3.47-.72,2.48,2.48,0,0,0,.25-4.1,15.45,15.45,0,0,0-3.75-1.86,20.38,20.38,0,0,1-3.78-1.73,5.13,5.13,0,0,1-1.67-1.68,4.38,4.38,0,0,1-.54-2.23,4.28,4.28,0,0,1,1.89-3.68,8.86,8.86,0,0,1,5.19-1.34,15.1,15.1,0,0,1,6,1.25l-1,2.34a13.73,13.73,0,0,0-5.19-1.18,6.09,6.09,0,0,0-3.09.64,2,2,0,0,0-1,1.77A2.18,2.18,0,0,0,675,44a3.9,3.9,0,0,0,1.26,1,30.2,30.2,0,0,0,3.33,1.41,12.55,12.55,0,0,1,4.58,2.48A4.38,4.38,0,0,1,685.35,52Z"/><path d="M348.58,746.67a8.27,8.27,0,0,0-6.6,2.79,11.21,11.21,0,0,0-2.42,7.63c0,3.32.77,5.89,2.33,7.7a8.32,8.32,0,0,0,6.66,2.72,22.64,22.64,0,0,0,6.06-1v2.59a18.66,18.66,0,0,1-6.51,1q-5.61,0-8.66-3.41t-3-9.67a15.24,15.24,0,0,1,1.46-6.87,10.55,10.55,0,0,1,4.24-4.55,12.86,12.86,0,0,1,6.52-1.6,15.77,15.77,0,0,1,7,1.46L354.35,748A13.42,13.42,0,0,0,348.58,746.67Z"/><path d="M371.41,769.78l-.57-2.71h-.14a8,8,0,0,1-2.84,2.42,8.5,8.5,0,0,1-3.53.64,6.37,6.37,0,0,1-4.44-1.46,5.32,5.32,0,0,1-1.6-4.15q0-5.76,9.22-6l3.22-.11v-1.18a4.82,4.82,0,0,0-1-3.3,3.93,3.93,0,0,0-3.08-1.07,12.42,12.42,0,0,0-5.38,1.46l-.89-2.21a13.7,13.7,0,0,1,3.08-1.2,13.35,13.35,0,0,1,3.36-.43,7.26,7.26,0,0,1,5.05,1.51q1.63,1.51,1.64,4.84v13Zm-6.51-2a5.82,5.82,0,0,0,4.23-1.48,5.47,5.47,0,0,0,1.54-4.13v-1.72l-2.89.12a10.56,10.56,0,0,0-4.95,1.07,3.2,3.2,0,0,0-1.52,2.94,3,3,0,0,0,.94,2.38A3.93,3.93,0,0,0,364.9,767.75Z"/><path d="M392.51,769.78V757.47a5,5,0,0,0-1.06-3.47,4.34,4.34,0,0,0-3.32-1.15,5.44,5.44,0,0,0-4.37,1.62q-1.39,1.6-1.39,5.33v10h-2.89v-19h2.35l.47,2.61h.14a5.8,5.8,0,0,1,2.48-2.18,8,8,0,0,1,3.56-.77,7.25,7.25,0,0,1,5.17,1.65q1.74,1.66,1.74,5.31v12.41Z"/><path d="M407.45,767.75a10.2,10.2,0,0,0,1.48-.11,11.11,11.11,0,0,0,1.13-.24v2.21a5.31,5.31,0,0,1-1.38.37,10.28,10.28,0,0,1-1.64.15q-5.52,0-5.52-5.82V753h-2.73V751.6l2.73-1.19,1.21-4.07h1.67v4.41h5.52V753H404.4v11.2a3.86,3.86,0,0,0,.81,2.64A2.86,2.86,0,0,0,407.45,767.75Z"/><path d="M413.62,745.6a1.92,1.92,0,0,1,.48-1.45,1.81,1.81,0,0,1,2.42,0,1.89,1.89,0,0,1,.5,1.44,2,2,0,0,1-.5,1.45,1.73,1.73,0,0,1-1.2.47,1.71,1.71,0,0,1-1.22-.47A2,2,0,0,1,413.62,745.6Zm3.12,24.18h-2.88v-19h2.88Z"/><path d="M435.81,767.23h-.16a6.77,6.77,0,0,1-6,2.9,7.07,7.07,0,0,1-5.81-2.55c-1.38-1.71-2.08-4.12-2.08-7.26s.7-5.57,2.09-7.31a7,7,0,0,1,5.8-2.6,6.88,6.88,0,0,1,5.93,2.81h.23l-.12-1.37-.07-1.34v-7.74h2.88v27h-2.34Zm-5.77.48a5.24,5.24,0,0,0,4.28-1.6q1.33-1.61,1.33-5.18v-.61q0-4.05-1.35-5.77a5.07,5.07,0,0,0-4.29-1.73,4.41,4.41,0,0,0-3.88,2,9.76,9.76,0,0,0-1.35,5.56,9.43,9.43,0,0,0,1.34,5.51A4.52,4.52,0,0,0,430,767.71Z"/><path d="M456.34,769.78l-.57-2.71h-.14a8,8,0,0,1-2.84,2.42,8.5,8.5,0,0,1-3.53.64,6.37,6.37,0,0,1-4.44-1.46,5.32,5.32,0,0,1-1.6-4.15q0-5.76,9.22-6l3.23-.11v-1.18a4.82,4.82,0,0,0-1-3.3,3.93,3.93,0,0,0-3.08-1.07,12.42,12.42,0,0,0-5.38,1.46l-.89-2.21a13.6,13.6,0,0,1,3.09-1.2,13.21,13.21,0,0,1,3.35-.43,7.26,7.26,0,0,1,5,1.51q1.64,1.51,1.64,4.84v13Zm-6.51-2a5.82,5.82,0,0,0,4.23-1.48,5.47,5.47,0,0,0,1.54-4.13v-1.72l-2.89.12a10.56,10.56,0,0,0-4.95,1.07,3.2,3.2,0,0,0-1.52,2.94,2.93,2.93,0,0,0,.95,2.38A3.86,3.86,0,0,0,449.83,767.75Z"/><path d="M477.37,767.23h-.16a6.77,6.77,0,0,1-6,2.9,7.07,7.07,0,0,1-5.81-2.55c-1.38-1.71-2.07-4.12-2.07-7.26s.69-5.57,2.08-7.31a7,7,0,0,1,5.8-2.6,6.91,6.91,0,0,1,5.94,2.81h.22l-.12-1.37-.07-1.34v-7.74h2.88v27h-2.34Zm-5.77.48a5.24,5.24,0,0,0,4.28-1.6q1.33-1.61,1.33-5.18v-.61q0-4.05-1.34-5.77a5.09,5.09,0,0,0-4.3-1.73,4.42,4.42,0,0,0-3.88,2,9.76,9.76,0,0,0-1.35,5.56,9.43,9.43,0,0,0,1.34,5.51A4.52,4.52,0,0,0,471.6,767.71Z"/><path d="M508.39,767.23h-.16a6.77,6.77,0,0,1-6,2.9,7,7,0,0,1-5.8-2.55c-1.39-1.71-2.08-4.12-2.08-7.26s.7-5.57,2.09-7.31a7.71,7.71,0,0,1,11.73.21h.23l-.12-1.37-.08-1.34v-7.74h2.89v27h-2.35Zm-5.76.48a5.25,5.25,0,0,0,4.28-1.6q1.32-1.61,1.32-5.18v-.61c0-2.7-.44-4.62-1.34-5.77a5.09,5.09,0,0,0-4.3-1.73,4.42,4.42,0,0,0-3.88,2,9.85,9.85,0,0,0-1.34,5.56,9.43,9.43,0,0,0,1.33,5.51A4.53,4.53,0,0,0,502.63,767.71Z"/><path d="M525.27,770.13a8.74,8.74,0,0,1-6.66-2.57,9.93,9.93,0,0,1-2.44-7.14,11,11,0,0,1,2.27-7.31,7.52,7.52,0,0,1,6.08-2.7,7.18,7.18,0,0,1,5.66,2.35,9,9,0,0,1,2.08,6.2v1.83H519.15a7.53,7.53,0,0,0,1.7,5.08,5.85,5.85,0,0,0,4.52,1.74,15.47,15.47,0,0,0,6.08-1.28v2.56a15.19,15.19,0,0,1-2.89,1A16.33,16.33,0,0,1,525.27,770.13Zm-.79-17.31a4.73,4.73,0,0,0-3.65,1.49,6.86,6.86,0,0,0-1.6,4.13h9.94a6.32,6.32,0,0,0-1.21-4.17A4.28,4.28,0,0,0,524.48,752.82Z"/><path d="M554.45,770.13a8.77,8.77,0,0,1-6.66-2.57,10,10,0,0,1-2.44-7.14,11.06,11.06,0,0,1,2.27-7.31,7.53,7.53,0,0,1,6.08-2.7,7.15,7.15,0,0,1,5.66,2.35,9,9,0,0,1,2.09,6.2v1.83H548.34a7.53,7.53,0,0,0,1.69,5.08,5.86,5.86,0,0,0,4.53,1.74,15.43,15.43,0,0,0,6.07-1.28v2.56a15.19,15.19,0,0,1-2.89,1A16.33,16.33,0,0,1,554.45,770.13Zm-.78-17.31a4.7,4.7,0,0,0-3.65,1.49,6.87,6.87,0,0,0-1.61,4.13h10a6.32,6.32,0,0,0-1.22-4.17A4.27,4.27,0,0,0,553.67,752.82Z"/><path d="M578.64,764.59a4.75,4.75,0,0,1-2,4.1,9.28,9.28,0,0,1-5.55,1.44,12.05,12.05,0,0,1-5.9-1.2v-2.67a14.49,14.49,0,0,0,2.94,1.09,12.14,12.14,0,0,0,3,.4,6.88,6.88,0,0,0,3.47-.72,2.48,2.48,0,0,0,.25-4.1,15.08,15.08,0,0,0-3.75-1.86,20.38,20.38,0,0,1-3.78-1.73,5.13,5.13,0,0,1-1.67-1.68,4.4,4.4,0,0,1-.54-2.24,4.27,4.27,0,0,1,1.89-3.67,8.79,8.79,0,0,1,5.19-1.34,15,15,0,0,1,6,1.25l-1,2.34a13.73,13.73,0,0,0-5.19-1.18,5.93,5.93,0,0,0-3.09.64,2,2,0,0,0-1,1.77,2.15,2.15,0,0,0,.39,1.3,3.91,3.91,0,0,0,1.26,1,28.79,28.79,0,0,0,3.33,1.4,12.54,12.54,0,0,1,4.58,2.49A4.38,4.38,0,0,1,578.64,764.59Z"/><path d="M589.47,767.75a10,10,0,0,0,1.47-.11,10.54,10.54,0,0,0,1.13-.24v2.21a5.31,5.31,0,0,1-1.38.37,10.18,10.18,0,0,1-1.64.15q-5.52,0-5.52-5.82V753h-2.72V751.6l2.72-1.19,1.22-4.07h1.66v4.41h5.52V753h-5.52v11.2a3.81,3.81,0,0,0,.82,2.64A2.84,2.84,0,0,0,589.47,767.75Z"/><path d="M598.58,750.75V763.1a5,5,0,0,0,1.06,3.47,4.34,4.34,0,0,0,3.32,1.14,5.39,5.39,0,0,0,4.36-1.63c.92-1.09,1.38-2.86,1.38-5.33v-10h2.89v19h-2.38l-.42-2.55h-.15a5.79,5.79,0,0,1-2.46,2.15,8.23,8.23,0,0,1-3.59.75,7.29,7.29,0,0,1-5.2-1.65q-1.73-1.65-1.72-5.28V750.75Z"/><path d="M630.65,767.23h-.16a6.77,6.77,0,0,1-6,2.9,7.08,7.08,0,0,1-5.81-2.55c-1.38-1.71-2.07-4.12-2.07-7.26s.69-5.57,2.08-7.31a7,7,0,0,1,5.8-2.6,6.91,6.91,0,0,1,5.94,2.81h.22l-.12-1.37-.07-1.34v-7.74h2.88v27H631Zm-5.76.48a5.23,5.23,0,0,0,4.27-1.6q1.33-1.61,1.33-5.18v-.61q0-4.05-1.34-5.77a5.09,5.09,0,0,0-4.3-1.73,4.42,4.42,0,0,0-3.88,2,9.76,9.76,0,0,0-1.35,5.56,9.43,9.43,0,0,0,1.34,5.51A4.52,4.52,0,0,0,624.89,767.71Z"/><path d="M639.24,745.6a1.88,1.88,0,0,1,.49-1.45,1.68,1.68,0,0,1,1.21-.46,1.65,1.65,0,0,1,1.2.47,1.86,1.86,0,0,1,.51,1.44,1.91,1.91,0,0,1-.51,1.45,1.78,1.78,0,0,1-2.41,0A1.94,1.94,0,0,1,639.24,745.6Zm3.13,24.18h-2.89v-19h2.89Z"/><path d="M660.18,769.78l-.57-2.71h-.14a8,8,0,0,1-2.84,2.42,8.5,8.5,0,0,1-3.53.64,6.37,6.37,0,0,1-4.44-1.46,5.32,5.32,0,0,1-1.6-4.15q0-5.76,9.21-6l3.23-.11v-1.18a4.82,4.82,0,0,0-1-3.3,3.93,3.93,0,0,0-3.08-1.07,12.42,12.42,0,0,0-5.38,1.46l-.89-2.21a13.52,13.52,0,0,1,3.08-1.2,13.35,13.35,0,0,1,3.36-.43q3.4,0,5,1.51c1.1,1,1.64,2.62,1.64,4.84v13Zm-6.51-2a5.85,5.85,0,0,0,4.23-1.48,5.46,5.46,0,0,0,1.53-4.13v-1.72l-2.88.12a10.64,10.64,0,0,0-5,1.07,3.21,3.21,0,0,0-1.51,2.94,3,3,0,0,0,.94,2.38A3.91,3.91,0,0,0,653.67,767.75Z"/><path d="M681.27,769.78V757.47a5,5,0,0,0-1-3.47,4.35,4.35,0,0,0-3.32-1.15,5.48,5.48,0,0,0-4.38,1.62q-1.38,1.6-1.38,5.33v10h-2.89v-19h2.35l.46,2.61h.14a5.83,5.83,0,0,1,2.49-2.18,8,8,0,0,1,3.56-.77,7.25,7.25,0,0,1,5.17,1.65q1.74,1.66,1.74,5.31v12.41Z"/><path d="M696.22,767.75a10.2,10.2,0,0,0,1.48-.11,11.11,11.11,0,0,0,1.13-.24v2.21a5.55,5.55,0,0,1-1.38.37,10.28,10.28,0,0,1-1.64.15q-5.53,0-5.53-5.82V753h-2.72V751.6l2.72-1.19,1.22-4.07h1.67v4.41h5.52V753h-5.52v11.2a3.86,3.86,0,0,0,.81,2.64A2.86,2.86,0,0,0,696.22,767.75Z"/><path d="M710.67,770.13a8.74,8.74,0,0,1-6.66-2.57,9.93,9.93,0,0,1-2.44-7.14,11.06,11.06,0,0,1,2.26-7.31,7.54,7.54,0,0,1,6.09-2.7,7.18,7.18,0,0,1,5.66,2.35,9,9,0,0,1,2.08,6.2v1.83h-13.1a7.48,7.48,0,0,0,1.69,5.08,5.85,5.85,0,0,0,4.52,1.74,15.47,15.47,0,0,0,6.08-1.28v2.56a15.43,15.43,0,0,1-2.89,1A16.33,16.33,0,0,1,710.67,770.13Zm-.78-17.31a4.73,4.73,0,0,0-3.66,1.49,6.93,6.93,0,0,0-1.61,4.13h10a6.32,6.32,0,0,0-1.21-4.17A4.27,4.27,0,0,0,709.89,752.82Z"/><path d="M734.85,764.59a4.77,4.77,0,0,1-2,4.1,9.31,9.31,0,0,1-5.56,1.44,12.05,12.05,0,0,1-5.9-1.2v-2.67a14.8,14.8,0,0,0,3,1.09,12,12,0,0,0,3,.4,6.88,6.88,0,0,0,3.47-.72,2.49,2.49,0,0,0,.25-4.1,15.2,15.2,0,0,0-3.76-1.86,20.7,20.7,0,0,1-3.78-1.73,5.1,5.1,0,0,1-1.66-1.68,4.61,4.61,0,0,1,1.34-5.91,8.79,8.79,0,0,1,5.19-1.34,15.1,15.1,0,0,1,6,1.25l-1,2.34a13.74,13.74,0,0,0-5.2-1.18,5.92,5.92,0,0,0-3.08.64,2,2,0,0,0-1,1.77,2.15,2.15,0,0,0,.39,1.3,3.91,3.91,0,0,0,1.26,1,28.39,28.39,0,0,0,3.34,1.4,12.47,12.47,0,0,1,4.57,2.49A4.38,4.38,0,0,1,734.85,764.59Z"/><path d="M58,406a6.22,6.22,0,0,1,5.22,2.43,10.54,10.54,0,0,1,1.88,6.6A16.41,16.41,0,0,1,64,422H61.11a18.53,18.53,0,0,0,1-3.4,18.25,18.25,0,0,0,.38-3.65,7.32,7.32,0,0,0-1.12-4.44A3.67,3.67,0,0,0,58.29,409a4,4,0,0,0-2.16.52,5,5,0,0,0-1.55,1.78A24.49,24.49,0,0,0,53,415.09a12,12,0,0,1-3,5.06,6.6,6.6,0,0,1-4.53,1.52,5.63,5.63,0,0,1-4.67-2.2A9.17,9.17,0,0,1,39,413.63a17.3,17.3,0,0,1,1.39-7l2.57.92a15.74,15.74,0,0,0-1.32,6.11,5.93,5.93,0,0,0,1,3.67,3.31,3.31,0,0,0,2.79,1.32,4.32,4.32,0,0,0,2.16-.49,4.49,4.49,0,0,0,1.55-1.64A20,20,0,0,0,50.72,413a13.93,13.93,0,0,1,3.06-5.5A6,6,0,0,1,58,406Z"/><path d="M64.77,389.57l-2.71.57v.14a8,8,0,0,1,2.42,2.84,8.67,8.67,0,0,1,.64,3.53,6.37,6.37,0,0,1-1.46,4.44,5.33,5.33,0,0,1-4.15,1.61q-5.76,0-6-9.22l-.11-3.23H52.18a4.86,4.86,0,0,0-3.31,1,4,4,0,0,0-1.06,3.08,12.49,12.49,0,0,0,1.46,5.39l-2.21.88a13.52,13.52,0,0,1-1.2-3.08,13.35,13.35,0,0,1-.43-3.36q0-3.4,1.51-5c1-1.1,2.62-1.64,4.84-1.64h13Zm-2,6.51a5.85,5.85,0,0,0-1.48-4.23,5.46,5.46,0,0,0-4.13-1.53H55.41l.12,2.88a10.52,10.52,0,0,0,1.07,5,3.22,3.22,0,0,0,2.94,1.52,3,3,0,0,0,2.38-.95A3.89,3.89,0,0,0,62.74,396.08Z"/><path d="M64.77,378.62v2.88h-27v-2.88Z"/><path d="M64.77,360.8l-2.71.58v.14a7.93,7.93,0,0,1,2.42,2.83,8.72,8.72,0,0,1,.64,3.54,6.36,6.36,0,0,1-1.46,4.43,5.33,5.33,0,0,1-4.15,1.61q-5.76,0-6-9.22l-.11-3.23H52.18a4.86,4.86,0,0,0-3.31,1,4,4,0,0,0-1.06,3.09,12.45,12.45,0,0,0,1.46,5.38l-2.21.88a13.74,13.74,0,0,1-1.63-6.44q0-3.41,1.51-5c1-1.1,2.62-1.64,4.84-1.64h13Zm-2,6.51a5.81,5.81,0,0,0-1.48-4.22,5.43,5.43,0,0,0-4.13-1.54H55.41l.12,2.88a10.49,10.49,0,0,0,1.07,5,3.22,3.22,0,0,0,2.94,1.52,3,3,0,0,0,2.38-1A3.89,3.89,0,0,0,62.74,367.31Z"/><path d="M59.58,340.46a4.78,4.78,0,0,1,4.1,2A9.28,9.28,0,0,1,65.12,348a12.05,12.05,0,0,1-1.2,5.9H61.24a13.94,13.94,0,0,0,1.1-2.94,12.14,12.14,0,0,0,.4-3,6.88,6.88,0,0,0-.72-3.47,2.48,2.48,0,0,0-4.1-.25A15,15,0,0,0,56.05,348a20.33,20.33,0,0,1-1.72,3.77,5.23,5.23,0,0,1-1.68,1.67,4.4,4.4,0,0,1-2.24.55,4.28,4.28,0,0,1-3.67-1.9,8.79,8.79,0,0,1-1.35-5.19,15.19,15.19,0,0,1,1.25-6l2.35,1a13.73,13.73,0,0,0-1.18,5.19,5.93,5.93,0,0,0,.64,3.09,2,2,0,0,0,1.77,1,2.15,2.15,0,0,0,1.3-.39,3.91,3.91,0,0,0,1-1.26,28.79,28.79,0,0,0,1.4-3.33,12.24,12.24,0,0,1,2.49-4.57A4.34,4.34,0,0,1,59.58,340.46Z"/><path d="M121.66,193.59a5.57,5.57,0,0,1-2.16,4.66,9.44,9.44,0,0,1-5.88,1.67,14.55,14.55,0,0,1-6.19-1v-2.53a17.19,17.19,0,0,0,6.28,1.27,6.6,6.6,0,0,0,4-1,3.27,3.27,0,0,0,1.33-2.78,3.6,3.6,0,0,0-.47-1.93,4.3,4.3,0,0,0-1.58-1.38,21,21,0,0,0-3.36-1.44,10.89,10.89,0,0,1-4.52-2.68,5.92,5.92,0,0,1-1.35-4,5,5,0,0,1,2-4.16,8.17,8.17,0,0,1,5.2-1.55,15.22,15.22,0,0,1,6.2,1.24l-.82,2.29a13.93,13.93,0,0,0-5.45-1.18,5.24,5.24,0,0,0-3.26.9,3,3,0,0,0-1.18,2.49,3.91,3.91,0,0,0,.43,1.93,4.11,4.11,0,0,0,1.47,1.38,18,18,0,0,0,3.15,1.38,12.61,12.61,0,0,1,4.9,2.72A5.39,5.39,0,0,1,121.66,193.59Z"/><path d="M136.34,199.61l-.52-2.41h-.12a7.16,7.16,0,0,1-2.53,2.16,7.82,7.82,0,0,1-3.15.56,5.63,5.63,0,0,1-4-1.3,4.73,4.73,0,0,1-1.43-3.7q0-5.13,8.21-5.38l2.88-.1v-1.05a4.28,4.28,0,0,0-.86-2.95,3.53,3.53,0,0,0-2.74-.95,11.11,11.11,0,0,0-4.8,1.3l-.79-2a11.92,11.92,0,0,1,2.75-1.07,11.74,11.74,0,0,1,3-.39,6.47,6.47,0,0,1,4.5,1.35,5.63,5.63,0,0,1,1.46,4.32v11.57Zm-5.81-1.81a5.24,5.24,0,0,0,3.77-1.31,4.9,4.9,0,0,0,1.37-3.69v-1.53l-2.57.11a9.39,9.39,0,0,0-4.42,1,2.87,2.87,0,0,0-1.35,2.62,2.64,2.64,0,0,0,.84,2.12A3.47,3.47,0,0,0,130.53,197.8Z"/><path d="M146.1,199.61h-2.57V175.53h2.57Z"/><path d="M162,199.61l-.51-2.41h-.12a7.18,7.18,0,0,1-2.54,2.16,7.81,7.81,0,0,1-3.14.56,5.66,5.66,0,0,1-4-1.3,4.76,4.76,0,0,1-1.43-3.7q0-5.13,8.22-5.38l2.88-.1v-1.05a4.33,4.33,0,0,0-.86-2.95,3.56,3.56,0,0,0-2.75-.95,11.19,11.19,0,0,0-4.8,1.3l-.79-2a12.39,12.39,0,0,1,5.75-1.46,6.43,6.43,0,0,1,4.49,1.35,5.6,5.6,0,0,1,1.46,4.32v11.57Zm-5.8-1.81a5.21,5.21,0,0,0,3.76-1.31,4.86,4.86,0,0,0,1.37-3.69v-1.53l-2.56.11a9.32,9.32,0,0,0-4.42,1A2.86,2.86,0,0,0,153,195a2.62,2.62,0,0,0,.85,2.12A3.46,3.46,0,0,0,156.18,197.8Z"/><path d="M185.75,199.61h-2.51V183.49c0-1.35,0-2.61.13-3.81-.22.21-.46.44-.73.68s-1.49,1.24-3.68,3l-1.36-1.77,6-4.62h2.17Z"/><path d="M121.66,323.59a5.57,5.57,0,0,1-2.16,4.66,9.44,9.44,0,0,1-5.88,1.67,14.55,14.55,0,0,1-6.19-1v-2.53a17.19,17.19,0,0,0,6.28,1.27,6.6,6.6,0,0,0,4-1,3.27,3.27,0,0,0,1.33-2.78,3.6,3.6,0,0,0-.47-1.93,4.3,4.3,0,0,0-1.58-1.38,21,21,0,0,0-3.36-1.44,10.89,10.89,0,0,1-4.52-2.68,5.92,5.92,0,0,1-1.35-4,5,5,0,0,1,2-4.16,8.17,8.17,0,0,1,5.2-1.55,15.22,15.22,0,0,1,6.2,1.24l-.82,2.29a13.93,13.93,0,0,0-5.45-1.18,5.24,5.24,0,0,0-3.26.9,3,3,0,0,0-1.18,2.49,3.91,3.91,0,0,0,.43,1.93,4.11,4.11,0,0,0,1.47,1.38,18,18,0,0,0,3.15,1.38,12.61,12.61,0,0,1,4.9,2.72A5.39,5.39,0,0,1,121.66,323.59Z"/><path d="M136.34,329.61l-.52-2.41h-.12a7.16,7.16,0,0,1-2.53,2.16,7.82,7.82,0,0,1-3.15.56,5.63,5.63,0,0,1-4-1.3,4.73,4.73,0,0,1-1.43-3.7q0-5.13,8.21-5.38l2.88-.1v-1.05a4.28,4.28,0,0,0-.86-2.95,3.53,3.53,0,0,0-2.74-.95,11.11,11.11,0,0,0-4.8,1.3l-.79-2a11.92,11.92,0,0,1,2.75-1.07,11.74,11.74,0,0,1,3-.39,6.47,6.47,0,0,1,4.5,1.35,5.63,5.63,0,0,1,1.46,4.32v11.57Zm-5.81-1.81a5.24,5.24,0,0,0,3.77-1.31,4.9,4.9,0,0,0,1.37-3.69v-1.53l-2.57.11a9.39,9.39,0,0,0-4.42.95,2.87,2.87,0,0,0-1.35,2.62,2.64,2.64,0,0,0,.84,2.12A3.47,3.47,0,0,0,130.53,327.8Z"/><path d="M146.1,329.61h-2.57V305.53h2.57Z"/><path d="M162,329.61l-.51-2.41h-.12a7.18,7.18,0,0,1-2.54,2.16,7.81,7.81,0,0,1-3.14.56,5.66,5.66,0,0,1-4-1.3,4.76,4.76,0,0,1-1.43-3.7q0-5.13,8.22-5.38l2.88-.1v-1.05a4.33,4.33,0,0,0-.86-2.95,3.56,3.56,0,0,0-2.75-.95,11.19,11.19,0,0,0-4.8,1.3l-.79-2a12.39,12.39,0,0,1,5.75-1.46,6.43,6.43,0,0,1,4.49,1.35,5.6,5.6,0,0,1,1.46,4.32v11.57Zm-5.8-1.81a5.21,5.21,0,0,0,3.76-1.31,4.86,4.86,0,0,0,1.37-3.69v-1.53l-2.56.11a9.32,9.32,0,0,0-4.42.95A2.86,2.86,0,0,0,153,325a2.62,2.62,0,0,0,.85,2.12A3.46,3.46,0,0,0,156.18,327.8Z"/><path d="M191.11,329.61H176.23V327.4l6-6a44.67,44.67,0,0,0,3.59-3.93,10.17,10.17,0,0,0,1.3-2.29,6.56,6.56,0,0,0,.44-2.4,3.81,3.81,0,0,0-1.1-2.87,4.21,4.21,0,0,0-3-1.06,7.65,7.65,0,0,0-2.67.46,10.53,10.53,0,0,0-2.81,1.69l-1.36-1.75a10.43,10.43,0,0,1,6.81-2.6,7.2,7.2,0,0,1,5,1.63,5.64,5.64,0,0,1,1.81,4.39,8.57,8.57,0,0,1-1.21,4.26,27,27,0,0,1-4.52,5.32l-4.95,4.84v.13h11.64Z"/><path d="M121.66,454.09a5.57,5.57,0,0,1-2.16,4.66,9.44,9.44,0,0,1-5.88,1.67,14.55,14.55,0,0,1-6.19-1v-2.53a17.19,17.19,0,0,0,6.28,1.27,6.6,6.6,0,0,0,4-1,3.27,3.27,0,0,0,1.33-2.78,3.6,3.6,0,0,0-.47-1.93A4.3,4.3,0,0,0,117,451a21,21,0,0,0-3.36-1.44,10.89,10.89,0,0,1-4.52-2.68,5.92,5.92,0,0,1-1.35-4,5,5,0,0,1,2-4.16,8.17,8.17,0,0,1,5.2-1.55,15.22,15.22,0,0,1,6.2,1.24l-.82,2.29a13.93,13.93,0,0,0-5.45-1.18,5.24,5.24,0,0,0-3.26.9,3,3,0,0,0-1.18,2.49,3.91,3.91,0,0,0,.43,1.93,4.11,4.11,0,0,0,1.47,1.38,18,18,0,0,0,3.15,1.38,12.61,12.61,0,0,1,4.9,2.72A5.39,5.39,0,0,1,121.66,454.09Z"/><path d="M136.34,460.11l-.52-2.41h-.12a7.16,7.16,0,0,1-2.53,2.16,7.82,7.82,0,0,1-3.15.56,5.63,5.63,0,0,1-4-1.3,4.73,4.73,0,0,1-1.43-3.7q0-5.13,8.21-5.38l2.88-.1v-1.05a4.28,4.28,0,0,0-.86-2.95,3.53,3.53,0,0,0-2.74-.95,11.11,11.11,0,0,0-4.8,1.3l-.79-2a11.92,11.92,0,0,1,2.75-1.07,11.74,11.74,0,0,1,3-.39,6.47,6.47,0,0,1,4.5,1.35,5.63,5.63,0,0,1,1.46,4.32v11.57Zm-5.81-1.81A5.24,5.24,0,0,0,134.3,457a4.9,4.9,0,0,0,1.37-3.69v-1.53l-2.57.11a9.39,9.39,0,0,0-4.42.95,2.87,2.87,0,0,0-1.35,2.62,2.64,2.64,0,0,0,.84,2.12A3.47,3.47,0,0,0,130.53,458.3Z"/><path d="M146.1,460.11h-2.57V436h2.57Z"/><path d="M162,460.11l-.51-2.41h-.12a7.18,7.18,0,0,1-2.54,2.16,7.81,7.81,0,0,1-3.14.56,5.66,5.66,0,0,1-4-1.3,4.76,4.76,0,0,1-1.43-3.7q0-5.13,8.22-5.38l2.88-.1v-1.05a4.33,4.33,0,0,0-.86-2.95,3.56,3.56,0,0,0-2.75-.95,11.19,11.19,0,0,0-4.8,1.3l-.79-2a12.39,12.39,0,0,1,5.75-1.46,6.43,6.43,0,0,1,4.49,1.35,5.6,5.6,0,0,1,1.46,4.32v11.57Zm-5.8-1.81a5.21,5.21,0,0,0,3.76-1.31,4.86,4.86,0,0,0,1.37-3.69v-1.53l-2.56.11a9.32,9.32,0,0,0-4.42.95,2.86,2.86,0,0,0-1.36,2.62,2.62,2.62,0,0,0,.85,2.12A3.46,3.46,0,0,0,156.18,458.3Z"/><path d="M190.26,442.81a5.16,5.16,0,0,1-1.22,3.54,6.08,6.08,0,0,1-3.44,1.84v.13a6.51,6.51,0,0,1,4,1.73A5.14,5.14,0,0,1,191,453.7a5.94,5.94,0,0,1-2.24,5,10.22,10.22,0,0,1-6.38,1.74,18.56,18.56,0,0,1-3.29-.27,11.46,11.46,0,0,1-2.9-.95v-2.45a13.85,13.85,0,0,0,3.13,1.11,14.38,14.38,0,0,0,3.15.38q5.87,0,5.87-4.6,0-4.11-6.47-4.11h-2.23v-2.22h2.26a6.82,6.82,0,0,0,4.2-1.17,3.82,3.82,0,0,0,1.54-3.24,3.22,3.22,0,0,0-1.13-2.6,4.69,4.69,0,0,0-3.09-.94,9.43,9.43,0,0,0-2.8.4,12.42,12.42,0,0,0-3,1.49l-1.3-1.74a10.9,10.9,0,0,1,3.22-1.72,11.61,11.61,0,0,1,3.83-.63,7.81,7.81,0,0,1,5.12,1.51A5.06,5.06,0,0,1,190.26,442.81Z"/><path d="M121.66,585.09a5.57,5.57,0,0,1-2.16,4.66,9.44,9.44,0,0,1-5.88,1.67,14.55,14.55,0,0,1-6.19-1v-2.53a17.19,17.19,0,0,0,6.28,1.27,6.6,6.6,0,0,0,4-1,3.27,3.27,0,0,0,1.33-2.78,3.6,3.6,0,0,0-.47-1.93A4.3,4.3,0,0,0,117,582a21,21,0,0,0-3.36-1.44,10.89,10.89,0,0,1-4.52-2.68,5.92,5.92,0,0,1-1.35-4,5,5,0,0,1,2-4.16,8.17,8.17,0,0,1,5.2-1.55,15.22,15.22,0,0,1,6.2,1.24l-.82,2.29a13.93,13.93,0,0,0-5.45-1.18,5.24,5.24,0,0,0-3.26.9,3,3,0,0,0-1.18,2.49,3.91,3.91,0,0,0,.43,1.93,4.11,4.11,0,0,0,1.47,1.38,18,18,0,0,0,3.15,1.38,12.61,12.61,0,0,1,4.9,2.72A5.39,5.39,0,0,1,121.66,585.09Z"/><path d="M136.34,591.11l-.52-2.41h-.12a7.16,7.16,0,0,1-2.53,2.16,7.82,7.82,0,0,1-3.15.56,5.63,5.63,0,0,1-4-1.3,4.73,4.73,0,0,1-1.43-3.7q0-5.13,8.21-5.38l2.88-.1v-1.05a4.28,4.28,0,0,0-.86-2.95,3.53,3.53,0,0,0-2.74-1,11.11,11.11,0,0,0-4.8,1.3l-.79-2a11.92,11.92,0,0,1,2.75-1.07,11.74,11.74,0,0,1,3-.39,6.47,6.47,0,0,1,4.5,1.35,5.63,5.63,0,0,1,1.46,4.32v11.57Zm-5.81-1.81A5.24,5.24,0,0,0,134.3,588a4.9,4.9,0,0,0,1.37-3.69v-1.53l-2.57.11a9.39,9.39,0,0,0-4.42,1,2.87,2.87,0,0,0-1.35,2.62,2.64,2.64,0,0,0,.84,2.12A3.47,3.47,0,0,0,130.53,589.3Z"/><path d="M146.1,591.11h-2.57V567h2.57Z"/><path d="M162,591.11l-.51-2.41h-.12a7.18,7.18,0,0,1-2.54,2.16,7.81,7.81,0,0,1-3.14.56,5.66,5.66,0,0,1-4-1.3,4.76,4.76,0,0,1-1.43-3.7q0-5.13,8.22-5.38l2.88-.1v-1.05a4.33,4.33,0,0,0-.86-2.95,3.56,3.56,0,0,0-2.75-1,11.19,11.19,0,0,0-4.8,1.3l-.79-2a12.39,12.39,0,0,1,5.75-1.46,6.43,6.43,0,0,1,4.49,1.35,5.6,5.6,0,0,1,1.46,4.32v11.57Zm-5.8-1.81a5.21,5.21,0,0,0,3.76-1.31,4.86,4.86,0,0,0,1.37-3.69v-1.53l-2.56.11a9.32,9.32,0,0,0-4.42,1,2.86,2.86,0,0,0-1.36,2.62,2.62,2.62,0,0,0,.85,2.12A3.46,3.46,0,0,0,156.18,589.3Z"/><path d="M192.17,585.91h-3.35v5.2h-2.46v-5.2h-11v-2.24l10.74-15.31h2.73v15.21h3.35Zm-5.81-2.34v-7.52c0-1.47,0-3.14.15-5h-.12a21.93,21.93,0,0,1-1.4,2.46l-7.07,10.06Z"/><path d="M277.81,712.46h-3.22v5h-2.36v-5H261.69v-2.15L272,695.64h2.61v14.58h3.22Zm-5.58-2.24V703c0-1.41,0-3,.15-4.79h-.12a22.14,22.14,0,0,1-1.33,2.36l-6.78,9.64Z"/><path d="M335.58,695.45a7.33,7.33,0,0,1,4.7,1.38,4.59,4.59,0,0,1,1.74,3.81,4.75,4.75,0,0,1-1,2.92,8.79,8.79,0,0,1-3.18,2.4,10.57,10.57,0,0,1,3.75,2.65,4.93,4.93,0,0,1,1.12,3.21,5.38,5.38,0,0,1-1.89,4.31,7.68,7.68,0,0,1-5.16,1.61,8.2,8.2,0,0,1-5.33-1.53,5.2,5.2,0,0,1-1.87-4.3q0-3.72,4.53-5.8a8.3,8.3,0,0,1-2.93-2.5,5.31,5.31,0,0,1-.89-3,4.59,4.59,0,0,1,1.74-3.76A7.25,7.25,0,0,1,335.58,695.45ZM330.9,712a3.34,3.34,0,0,0,1.24,2.77,5.41,5.41,0,0,0,3.47,1,5.18,5.18,0,0,0,3.44-1,3.55,3.55,0,0,0,1.23-2.85,3.47,3.47,0,0,0-1.15-2.56,11.75,11.75,0,0,0-4-2.17,8.74,8.74,0,0,0-3.21,2.1A4.06,4.06,0,0,0,330.9,712Zm4.66-14.52a4.38,4.38,0,0,0-2.91.89,3,3,0,0,0-1,2.37,3.44,3.44,0,0,0,.87,2.35,9.11,9.11,0,0,0,3.23,2,8.08,8.08,0,0,0,3-1.91,3.58,3.58,0,0,0,.88-2.39,2.93,2.93,0,0,0-1.08-2.38A4.55,4.55,0,0,0,335.56,697.45Z"/><path d="M396.38,717.44H394V702c0-1.29,0-2.5.12-3.65-.21.21-.44.43-.7.65s-1.43,1.2-3.53,2.89l-1.3-1.69,5.74-4.43h2.07Z"/><path d="M418.87,717.44H404.63v-2.12l5.7-5.74a40.22,40.22,0,0,0,3.44-3.77,9.51,9.51,0,0,0,1.25-2.19,6.22,6.22,0,0,0,.41-2.3,3.66,3.66,0,0,0-1.05-2.75,4,4,0,0,0-2.92-1,7.29,7.29,0,0,0-2.56.44,10.45,10.45,0,0,0-2.69,1.62l-1.3-1.68a10,10,0,0,1,6.52-2.49,6.91,6.91,0,0,1,4.79,1.56,5.39,5.39,0,0,1,1.73,4.21,8.09,8.09,0,0,1-1.15,4.07,26,26,0,0,1-4.33,5.11L407.72,715v.12h11.15Z"/><path d="M463.22,717.44h-2.41V702c0-1.29,0-2.5.12-3.65-.21.21-.44.43-.7.65s-1.43,1.2-3.52,2.89l-1.31-1.69,5.74-4.43h2.08Z"/><path d="M471.71,708.17q0-6.39,2.48-9.55t7.35-3.17a9.69,9.69,0,0,1,2.64.28v2.12a8.65,8.65,0,0,0-2.61-.37,6.6,6.6,0,0,0-5.32,2.17q-1.85,2.18-2,6.83h.18a5.68,5.68,0,0,1,5.16-2.55,6,6,0,0,1,4.6,1.77,6.64,6.64,0,0,1,1.69,4.78A7.39,7.39,0,0,1,484,715.8a6.57,6.57,0,0,1-5,1.94,6.44,6.44,0,0,1-5.34-2.53A11.23,11.23,0,0,1,471.71,708.17Zm7.28,7.47a4.14,4.14,0,0,0,3.27-1.32,5.63,5.63,0,0,0,1.16-3.84,5,5,0,0,0-1.08-3.38,4.08,4.08,0,0,0-3.23-1.23,5.54,5.54,0,0,0-2.45.55,4.58,4.58,0,0,0-1.77,1.51,3.52,3.52,0,0,0-.66,2,6.94,6.94,0,0,0,.59,2.84,5,5,0,0,0,1.69,2.09A4.13,4.13,0,0,0,479,715.64Z"/><path d="M534.18,717.44H519.93v-2.12l5.71-5.74a41.74,41.74,0,0,0,3.44-3.77,9.44,9.44,0,0,0,1.24-2.19,6.23,6.23,0,0,0,.42-2.3,3.66,3.66,0,0,0-1-2.75,4,4,0,0,0-2.92-1,7.25,7.25,0,0,0-2.56.44,10.13,10.13,0,0,0-2.69,1.62l-1.31-1.68a10,10,0,0,1,6.52-2.49,6.89,6.89,0,0,1,4.79,1.56,5.4,5.4,0,0,1,1.74,4.21,8.11,8.11,0,0,1-1.16,4.07,25.65,25.65,0,0,1-4.33,5.11L523,715v.12h11.15Z"/><path d="M551.66,706.57c0,3.75-.59,6.54-1.77,8.39a6.54,6.54,0,0,1-10.74-.06c-1.22-1.9-1.83-4.67-1.83-8.33s.59-6.58,1.77-8.41a6.55,6.55,0,0,1,10.74.12Q551.66,701.15,551.66,706.57Zm-11.85,0q0,4.73,1.11,6.89a4,4,0,0,0,7.11,0q1.11-2.19,1.11-6.86T548,699.73a4,4,0,0,0-7.11,0Q539.81,701.85,539.81,706.57Z"/><path d="M600.68,717.44H586.43v-2.12l5.71-5.74a41.74,41.74,0,0,0,3.44-3.77,9.44,9.44,0,0,0,1.24-2.19,6.23,6.23,0,0,0,.42-2.3,3.66,3.66,0,0,0-1-2.75,4,4,0,0,0-2.92-1,7.25,7.25,0,0,0-2.56.44,10.13,10.13,0,0,0-2.69,1.62l-1.31-1.68a10,10,0,0,1,6.52-2.49A6.89,6.89,0,0,1,598,697a5.4,5.4,0,0,1,1.74,4.21,8.11,8.11,0,0,1-1.16,4.07,25.65,25.65,0,0,1-4.33,5.11L589.53,715v.12h11.15Z"/><path d="M619.06,712.46h-3.21v5h-2.36v-5H603v-2.15l10.29-14.67h2.61v14.58h3.21Zm-5.57-2.24V703c0-1.41,0-3,.15-4.79h-.12a22,22,0,0,1-1.34,2.36l-6.77,9.64Z"/><path d="M667.51,717.44H653.26v-2.12l5.71-5.74a40.22,40.22,0,0,0,3.44-3.77,9.51,9.51,0,0,0,1.25-2.19,6.43,6.43,0,0,0,.41-2.3,3.66,3.66,0,0,0-1.05-2.75,4,4,0,0,0-2.92-1,7.29,7.29,0,0,0-2.56.44,10.29,10.29,0,0,0-2.69,1.62l-1.31-1.68a10,10,0,0,1,6.53-2.49,6.92,6.92,0,0,1,4.79,1.56,5.42,5.42,0,0,1,1.73,4.21,8.09,8.09,0,0,1-1.15,4.07,26.36,26.36,0,0,1-4.33,5.11L656.36,715v.12h11.15Z"/><path d="M677.8,695.45a7.33,7.33,0,0,1,4.7,1.38,4.59,4.59,0,0,1,1.74,3.81,4.76,4.76,0,0,1-1,2.92,8.75,8.75,0,0,1-3.17,2.4,10.57,10.57,0,0,1,3.75,2.65,5,5,0,0,1,1.11,3.21,5.38,5.38,0,0,1-1.88,4.31,7.7,7.7,0,0,1-5.16,1.61,8.25,8.25,0,0,1-5.34-1.53,5.23,5.23,0,0,1-1.87-4.3c0-2.48,1.52-4.41,4.54-5.8a8.3,8.3,0,0,1-2.93-2.5,5.24,5.24,0,0,1-.89-3,4.59,4.59,0,0,1,1.74-3.76A7.23,7.23,0,0,1,677.8,695.45ZM673.12,712a3.36,3.36,0,0,0,1.23,2.77,5.46,5.46,0,0,0,3.48,1,5.19,5.19,0,0,0,3.44-1,3.55,3.55,0,0,0,1.23-2.85,3.47,3.47,0,0,0-1.15-2.56,11.82,11.82,0,0,0-4-2.17,8.69,8.69,0,0,0-3.2,2.1A4.06,4.06,0,0,0,673.12,712Zm4.65-14.52a4.37,4.37,0,0,0-2.9.89,2.93,2.93,0,0,0-1.06,2.37,3.4,3.4,0,0,0,.88,2.35,9.11,9.11,0,0,0,3.23,2,8.12,8.12,0,0,0,3-1.91,3.54,3.54,0,0,0,.89-2.39,2.93,2.93,0,0,0-1.08-2.38A4.58,4.58,0,0,0,677.77,697.45Z"/><path d="M732.53,700.86a5,5,0,0,1-1.16,3.4,5.81,5.81,0,0,1-3.3,1.76v.12a6.21,6.21,0,0,1,3.87,1.66,4.9,4.9,0,0,1,1.26,3.5,5.68,5.68,0,0,1-2.15,4.77,9.81,9.81,0,0,1-6.11,1.67,17.92,17.92,0,0,1-3.15-.26,10.81,10.81,0,0,1-2.78-.92v-2.34a13.19,13.19,0,0,0,3,1.06,13.71,13.71,0,0,0,3,.36c3.74,0,5.62-1.46,5.62-4.4q0-3.94-6.2-3.94h-2.14v-2.12h2.17a6.57,6.57,0,0,0,4-1.12A3.7,3.7,0,0,0,730,701a3,3,0,0,0-1.09-2.49,4.51,4.51,0,0,0-3-.9,9,9,0,0,0-2.68.38,12.24,12.24,0,0,0-2.88,1.42l-1.24-1.66a10.4,10.4,0,0,1,3.07-1.65,11.21,11.21,0,0,1,3.67-.6,7.47,7.47,0,0,1,4.91,1.45A4.84,4.84,0,0,1,732.53,700.86Z"/><path d="M750.71,717.44H736.46v-2.12l5.71-5.74a41.74,41.74,0,0,0,3.44-3.77,9.44,9.44,0,0,0,1.24-2.19,6.23,6.23,0,0,0,.42-2.3,3.66,3.66,0,0,0-1-2.75,4,4,0,0,0-2.93-1,7.24,7.24,0,0,0-2.55.44,10.13,10.13,0,0,0-2.69,1.62l-1.31-1.68a10,10,0,0,1,6.52-2.49,6.89,6.89,0,0,1,4.79,1.56,5.4,5.4,0,0,1,1.74,4.21,8.11,8.11,0,0,1-1.16,4.07,25.65,25.65,0,0,1-4.33,5.11L739.56,715v.12h11.15Z"/><path d="M800.36,700.86a4.92,4.92,0,0,1-1.16,3.4,5.81,5.81,0,0,1-3.3,1.76v.12a6.21,6.21,0,0,1,3.87,1.66,4.9,4.9,0,0,1,1.26,3.5,5.68,5.68,0,0,1-2.15,4.77,9.79,9.79,0,0,1-6.11,1.67,18,18,0,0,1-3.15-.26,10.94,10.94,0,0,1-2.78-.92v-2.34a13.19,13.19,0,0,0,3,1.06,13.78,13.78,0,0,0,3,.36c3.75,0,5.62-1.46,5.62-4.4q0-3.94-6.2-3.94h-2.13v-2.12h2.16a6.57,6.57,0,0,0,4-1.12,3.67,3.67,0,0,0,1.48-3.11,3,3,0,0,0-1.09-2.49,4.48,4.48,0,0,0-3-.9,9.06,9.06,0,0,0-2.69.38,12,12,0,0,0-2.87,1.42L787,697.7a10.33,10.33,0,0,1,3.08-1.65,11.16,11.16,0,0,1,3.67-.6,7.44,7.44,0,0,1,4.9,1.45A4.84,4.84,0,0,1,800.36,700.86Z"/><path d="M804.54,708.17q0-6.39,2.49-9.55t7.34-3.17a9.69,9.69,0,0,1,2.64.28v2.12a8.65,8.65,0,0,0-2.61-.37,6.61,6.61,0,0,0-5.32,2.17c-1.22,1.45-1.9,3.73-2,6.83h.18a5.68,5.68,0,0,1,5.16-2.55A6.07,6.07,0,0,1,817,705.7a6.64,6.64,0,0,1,1.68,4.78,7.39,7.39,0,0,1-1.85,5.32,6.57,6.57,0,0,1-5,1.94,6.41,6.41,0,0,1-5.33-2.53A11.16,11.16,0,0,1,804.54,708.17Zm7.28,7.47a4.11,4.11,0,0,0,3.27-1.32,5.63,5.63,0,0,0,1.17-3.84,5,5,0,0,0-1.08-3.38,4.1,4.1,0,0,0-3.24-1.23,5.5,5.5,0,0,0-2.44.55,4.51,4.51,0,0,0-1.77,1.51,3.46,3.46,0,0,0-.67,2,6.79,6.79,0,0,0,.6,2.84,4.92,4.92,0,0,0,1.68,2.09A4.17,4.17,0,0,0,811.82,715.64Z"/><path d="M868,712.46h-3.22v5h-2.36v-5H851.92v-2.15l10.29-14.67h2.61v14.58H868Zm-5.58-2.24V703c0-1.41,0-3,.15-4.79h-.12a20.42,20.42,0,0,1-1.34,2.36l-6.77,9.64Z"/><path d="M884.49,706.57c0,3.75-.59,6.54-1.77,8.39A6.54,6.54,0,0,1,872,714.9c-1.22-1.9-1.83-4.67-1.83-8.33s.59-6.58,1.77-8.41a6.55,6.55,0,0,1,10.74.12Q884.49,701.15,884.49,706.57Zm-11.84,0q0,4.73,1.11,6.89a4,4,0,0,0,7.11,0,16.14,16.14,0,0,0,1.1-6.86q0-4.67-1.1-6.84a4,4,0,0,0-7.11,0Q872.65,701.85,872.65,706.57Z"/><rect class="cls-4" x="1.5" y="1.5" width="1033.81" height="790.51" rx="27.66" ry="27.66"/></svg>