<svg xmlns="http://www.w3.org/2000/svg" viewBox="0 0 1089.77 300"><defs><style>.cls-1{fill:#b79b71;}.cls-2{fill:#fff;}.cls-3{fill:#2b2b2b;}.cls-4{fill:#f05023;}.cls-5{fill:#ffe6c1;}.cls-6{fill:#267adb;}.cls-7{fill:#ff1f01;}.cls-8{fill:#c36222;}.cls-9{fill:#454545;}</style></defs><title>ATLETA SALTO</title><g id="Capa_2" data-name="Capa 2"><g id="Capa_2-2" data-name="Capa 2"><polygon class="cls-1" points="1089.78 245.53 77.15 245.53 31.44 298.93 1076.69 298.93 1089.78 245.53"/><polygon class="cls-2" points="1.14 287.47 1.14 298.86 34.57 298.86 88.27 245.1 88.27 237.77 54.77 237.77 1.14 287.47"/><path class="cls-3" d="M35,300H0V287l54.32-50.34H89.4v8.94ZM2.28,297.72H34.1l53-53.09v-5.72H55.21L2.28,288Z"/><polygon class="cls-3" points="36.27 298.93 34 298.93 34 289.82 1.14 289.82 1.14 287.54 36.27 287.54 36.27 298.93"/><polygon class="cls-3" points="35.94 289.48 34.33 287.87 85.4 236.75 87.01 238.36 35.94 289.48"/><path class="cls-4" d="M916.08,164.35C702.71-1,489.49-6.67,348.19,17.69,195,44.08,91.15,110.36,90.12,111l-3.71-5.75c1-.67,106.12-67.7,260.62-94.33C437.8-4.69,527.67-3.57,614.13,14.29,722.2,36.61,825.2,85.28,920.26,159Z"/><path class="cls-5" d="M936.57,209.59s26.65,6.46,35.28,4c0,0-3.85,10,25.08,30.1,0,0,10.32-7.5,8-12.16l-20-25.34s-3.32-6.65-7.59-7.69-25.74-9.5-25.74-9.5Z"/><path class="cls-3" d="M996.93,244.37l-.33-.23c-24.3-16.91-25.74-26.8-25.47-29.8-9.41,1.88-33.63-3.94-34.69-4.19l-.83-.2,15.74-21.65.41.16c.22.09,21.49,8.45,25.68,9.47,4.47,1.1,7.82,7.71,8,8l19.92,25.25c2.63,5.12-7.62,12.65-8.06,13Zm-24.14-31.65-.41,1.07c0,.09-3.13,9.84,24.54,29.18,2.93-2.2,9.15-7.86,7.45-11.19l-19.93-25.25c-.09-.16-3.31-6.52-7.27-7.49s-22.34-8.15-25.41-9.36l-14.22,19.56c4.56,1,26.62,5.94,34.15,3.79Z"/><path class="cls-5" d="M925.62,213.58s26.65,6.46,35.28,4c0,0,3.13,21.45,32.05,41.58,0,0,10-6.17,7.59-10.82L980.05,209.4s-3.32-6.64-7.58-7.69S940.6,193,940.6,193Z"/><path class="cls-3" d="M992.93,259.83l-.31-.21c-26.07-18.14-31.37-37.66-32.17-41.35-9.2,2.07-33.9-3.88-35-4.13l-.83-.21,15.71-21.61.38.11c.28.08,27.64,7.7,31.85,8.73,4.47,1.1,7.82,7.71,8,8L1001,248.06c2.58,5.07-7.37,11.31-7.79,11.58Zm-31.56-43,.09.65c0,.21,3.43,21.31,31.5,41,2.81-1.82,8.75-6.58,7.07-9.88l-20.48-38.92c0-.08-3.26-6.43-7.22-7.4s-28.16-7.71-31.5-8.64l-14.25,19.59c4.57,1.06,26.62,5.95,34.16,3.8Z"/><path class="cls-6" d="M941.12,182.73l12.37,5.35a.69.69,0,0,1,.18,1.16l-6,5.25a.63.63,0,0,1-.81,0l-11.54-9.12Z"/><path class="cls-3" d="M947.28,195.22a1.13,1.13,0,0,1-.74-.26l-12.27-9.7,6.85-3.16,12.6,5.46a1.22,1.22,0,0,1,.74,1,1.25,1.25,0,0,1-.41,1.15l-6,5.25A1.2,1.2,0,0,1,947.28,195.22Zm-10.85-9.7,10.81,8.55,6.06-5.26.19-.73-.23.52-12.13-5.25Z"/><path class="cls-7" d="M899.44,172.33s6.12,4,7.12,6.55S927.75,176.6,932,183l5,3.56,30.87-13s-7.68-29.9-28.45-27.63S899.44,172.33,899.44,172.33Z"/><path class="cls-3" d="M936.93,187.22l-5.38-3.89c-2.45-3.67-11-3.37-17.25-3.15-5.23.18-7.76.22-8.27-1.09-.77-2-5.24-5.2-6.9-6.28l-.52-.34.39-.5c.19-.24,19.59-24.27,40.35-26.55,21-2.36,29,27.75,29.07,28.05l.12.48-.45.19Zm-4.5-4.61,4.64,3.31,30.11-12.64c-1.09-3.78-9.09-28.77-27.7-26.73s-36.36,22.27-39.2,25.66c1.54,1,5.93,4.2,6.81,6.46.32.62,4.27.48,7.17.37C921.09,178.8,929.58,178.5,932.43,182.61Z"/><path class="cls-6" d="M899.44,172.33s-19.06,20.93-4.69,32.75,34.57,10.11,34.57,10.11L947,193.81s-17.35-14.2-21.41-13.93-14.11-.14-16.81-1.14S902.72,171.62,899.44,172.33Z"/><path class="cls-3" d="M926.73,215.84c-6,0-21-1-32.34-10.32a14.41,14.41,0,0,1-5.53-10.38c-.79-11,9.72-22.7,10.16-23.19l.13-.14.17,0c2.28-.49,4.35,1.64,6.35,3.7a11.51,11.51,0,0,0,3.26,2.73c2.55,1,12.48,1.4,16.58,1.12h.14c4.36,0,19.89,12.6,21.67,14.05l.44.37-18.16,22-.23,0S928.36,215.84,926.73,215.84Zm-27-43c-1.2,1.37-10.46,12.3-9.74,22.2a13.28,13.28,0,0,0,5.11,9.58c13.2,10.86,31.63,10.13,33.92,10l17.12-20.76c-6.85-5.57-17.56-13.43-20.46-13.43h-.1c-3.84.27-14.16-.11-17.05-1.18a12,12,0,0,1-3.69-3C903.21,174.57,901.37,172.67,899.74,172.86Z"/><path class="cls-5" d="M957.66,168.11a62.09,62.09,0,0,0,31,14.31s7.06.38,9.29,2.9,12.18,3.71,14.94.38,4.41-9.16-1.27-10.48c0,0,1-4.75-3.28-4.11s-5.91,1.34-10,3.09-26-9.84-26-9.84Z"/><path class="cls-3" d="M1006.44,188.31c-3.78,0-7.57-1.1-8.91-2.62-1.71-1.91-7-2.6-8.9-2.7a63.27,63.27,0,0,1-31.36-14.47l-.75-.71,15.88-4.06.19.1c8.73,4.61,22.72,11,25.54,9.83,4.09-1.76,5.75-2.47,10.12-3.13a3.42,3.42,0,0,1,3.18.83,4.46,4.46,0,0,1,.83,3.42,4.83,4.83,0,0,1,3.46,3.06c.88,2.61-.57,6-2.4,8.21-1.54,1.87-4.75,2.2-6.52,2.24Zm-47.6-19.92a62.84,62.84,0,0,0,29.91,13.47c.24,0,7.26.42,9.62,3.08,1.16,1.29,4.91,2.29,8.41,2.23,2.68,0,4.75-.72,5.67-1.83,1.57-1.9,2.93-4.93,2.19-7.11a4,4,0,0,0-3.15-2.46l-.55-.13.12-.55a3.74,3.74,0,0,0-.47-2.93,2.35,2.35,0,0,0-2.17-.48c-4.23.63-5.74,1.28-9.77,3s-23.36-8.13-26.4-9.73Z"/><path class="cls-8" d="M957.27,152.68s9.81.14,16.64-9.69,26.6-13,31.08,9.69,10.74,23.71,10.74,23.71-24.39,2.35-27-6.77-16.22-15.38-16.22-15.38l-2.06,8.34-7.94-.88Z"/><path class="cls-3" d="M1009,177.24c-7.58,0-19-1.08-20.8-7.46-2.15-7.67-12.62-13.37-15.29-14.71l-2,8.13-8.71-1-6-10.14h1c.2,0,9.63,0,16.17-9.44a18.4,18.4,0,0,1,18.15-7.37c4.11.86,11.37,4.24,13.95,17.27,4.29,21.65,10.22,23.25,10.28,23.26l4.21.72-4.25.41C1015.46,177,1012.69,177.24,1009,177.24Zm-36.86-23.8.63.29c.57.26,13.92,6.48,16.52,15.74,2,7.15,18.92,6.79,24.55,6.48-2.28-1.91-6.32-7.41-9.43-23.16-1.82-9.18-6.46-15-13.07-16.38a17.29,17.29,0,0,0-17,6.91,22.21,22.21,0,0,1-16.14,9.88l4.67,8,7.15.78Z"/><path class="cls-5" d="M960.82,158.71s8.37,2.65,9.28.76.85-11.16,7.68-8.88,2.79,8.83,2.79,8.83l4.89-4.37s1.51,10.81,3.44,13.6a2.13,2.13,0,0,1,.23,2.07c-1.68,3.81-7.49,13.43-20.82,4.77Z"/><path class="cls-3" d="M978.2,179.57c-3.09,0-6.51-1.21-10.2-3.6l-.14-.1-8.07-18.09,1.2.38c4.21,1.34,8.23,1.83,8.59,1.06a10.75,10.75,0,0,0,.47-1.86c.47-2.3,1.18-5.77,3.53-7.13a5.18,5.18,0,0,1,4.38-.18,5.92,5.92,0,0,1,4,3.48,6.32,6.32,0,0,1,0,3.8l3.82-3.41L986,155c0,.11,1.52,10.71,3.34,13.35a2.68,2.68,0,0,1,.29,2.63c-1.08,2.45-3.6,6.76-8.31,8.17A11,11,0,0,1,978.2,179.57Zm-9.44-4.47c4.64,3,8.76,4,12.25,2.93,4.28-1.28,6.6-5.28,7.6-7.54a1.55,1.55,0,0,0-.18-1.52c-1.64-2.37-2.94-10-3.38-12.79l-7,6.24,2-3.3s1.71-2.85.85-5.21a4.89,4.89,0,0,0-3.34-2.78,4.07,4.07,0,0,0-3.45.09c-1.91,1.1-2.56,4.27-3,6.37a10.53,10.53,0,0,1-.56,2.12c-.88,1.86-6,.69-8.76-.1Z"/><path class="cls-5" d="M951.52,177a62.06,62.06,0,0,0,29,18.12s6.94,1.28,8.84,4,11.62,5.23,14.77,2.28,5.53-8.54.07-10.57c0,0,1.64-4.57-2.74-4.48s-6,.57-10.29,1.8-24.58-13.06-24.58-13.06Z"/><path class="cls-3" d="M999.47,203.39a17.71,17.71,0,0,1-1.77-.1c-3.87-.43-7.68-2-8.85-3.77-1.45-2.11-6.62-3.46-8.48-3.81a63.27,63.27,0,0,1-29.29-18.32l-.65-.79,16.26-2,.18.13c8.08,5.68,21.17,13.82,24.09,13,4.26-1.22,6-1.72,10.44-1.82a3.43,3.43,0,0,1,3,1.23,4.39,4.39,0,0,1,.39,3.49,4.82,4.82,0,0,1,3,3.48c.55,2.69-1.32,5.87-3.41,7.83C1003.2,203.09,1001.16,203.39,999.47,203.39Zm-46.81-25.92a62.84,62.84,0,0,0,28,17.14c.24,0,7.15,1.33,9.16,4.27,1,1.43,4.59,2.89,8.05,3.27,2.67.3,4.81-.1,5.86-1.09,1.8-1.68,3.53-4.53,3.08-6.78a3.93,3.93,0,0,0-2.82-2.83l-.53-.2.19-.53a3.76,3.76,0,0,0-.09-3,2.4,2.4,0,0,0-2.1-.75c-4.28.09-5.87.55-10.1,1.76s-22.12-11-24.92-13Z"/><path class="cls-7" d="M941.12,161.08s8.4,17.23,13.09,20.08l13.66-5.84s-5.27-18.65-11.67-21.08"/><path class="cls-3" d="M954.17,181.8l-.26-.15c-4.78-2.91-12.95-19.61-13.3-20.32l1-.5c.09.17,8.09,16.53,12.64,19.69L967.18,175c-.88-2.92-5.67-18.14-11.18-20.22l.4-1.07c6.6,2.49,11.8,20.68,12,21.45l.14.49Z"/><path class="cls-9" d="M997.1,240.75s5.55,5.89,6,7.47,4,8.8,9.5,2.29,14.4-20.28,14.4-20.28,4.19-5.62-1.86-9.93a2.56,2.56,0,0,0-3.58.55c-2.73,3.82-9.07,12.19-12.18,12.29-2.93.1-4.8-2.11-5.6-3.32a.21.21,0,0,0-.38.12C1003.41,231.75,1002.77,236.1,997.1,240.75Z"/><path class="cls-3" d="M1008.19,253.76a3.47,3.47,0,0,1-.85-.1c-2.9-.62-4.51-4.33-4.78-5.28s-3.77-5-5.88-7.24l-.42-.45.48-.38c5.53-4.54,6.1-8.76,6.09-10.37a.77.77,0,0,1,1.42-.43c.79,1.18,2.55,3.12,5.12,3.06,2-.06,6.37-4.56,11.73-12a3.15,3.15,0,0,1,4.37-.69,7.67,7.67,0,0,1,3.43,5,8.23,8.23,0,0,1-1.44,5.7c-.07.1-8.92,13.84-14.42,20.31C1011.41,252.79,1009.78,253.76,1008.19,253.76Zm-10.27-13c1.37,1.47,5.32,5.8,5.73,7.26.3,1,1.78,4,3.93,4.49,1.42.31,3-.5,4.59-2.41,5.46-6.42,14.27-20.08,14.35-20.22a7.22,7.22,0,0,0,1.26-4.88,6.61,6.61,0,0,0-3-4.28,2,2,0,0,0-2.78.43c-4.06,5.66-9.53,12.42-12.63,12.52a6.85,6.85,0,0,1-5.49-2.75C1003.67,233.08,1002.53,236.85,997.92,240.8Zm6.05-10.87Z"/><path class="cls-9" d="M992.2,258.62s4.33,6.84,4.47,8.48,2.21,9.4,8.89,4.06,18-17.16,18-17.16,5.18-4.72.06-10.1a2.56,2.56,0,0,0-3.62-.14c-3.41,3.23-11.22,10.24-14.3,9.74-2.89-.46-4.31-3-4.87-4.33a.2.2,0,0,0-.39,0C1000.11,251,998.65,255.15,992.2,258.62Z"/><path class="cls-3" d="M1001.38,273.58a4.14,4.14,0,0,1-1.59-.32c-2.72-1.17-3.6-5.12-3.68-6.11s-2.75-5.62-4.39-8.22l-.33-.52.54-.29c6.29-3.39,7.66-7.43,8-9a.78.78,0,0,1,.68-.64.74.74,0,0,1,.8.48c.54,1.31,1.84,3.57,4.44,4,2,.32,7.13-3.27,13.81-9.59a3.15,3.15,0,0,1,4.42.15,7.67,7.67,0,0,1,2.41,5.6,8.23,8.23,0,0,1-2.5,5.32c-.08.09-11.38,11.88-18,17.19A7.59,7.59,0,0,1,1001.38,273.58ZM993,258.83c1.06,1.71,4.11,6.71,4.24,8.22.09,1.08,1,4.29,3,5.16,1.34.58,3,.07,5-1.49,6.58-5.26,17.82-17,17.94-17.11a7.32,7.32,0,0,0,2.16-4.56,6.63,6.63,0,0,0-2.1-4.76,2,2,0,0,0-2.82-.12c-5,4.79-11.68,10.39-14.78,9.89a6.82,6.82,0,0,1-4.86-3.75C1000.11,252.35,998.27,255.83,993,258.83Z"/><path class="cls-3" d="M982.73,165.49c.39,1.06.66,2,1,2.83a13.51,13.51,0,0,0,.62,1.27c.23.43.53.82.82,1.32a3.55,3.55,0,0,1-2.48-2.14A4,4,0,0,1,982.73,165.49Z"/><path class="cls-5" d="M86.2,55.08,64.58,61.54a1.33,1.33,0,0,0-.94,1.07L55.08,87.07l-2.45,5.37a11.6,11.6,0,0,0,2.45,13.09l.26.25c2.47,2.4,3.85,2.14,7.29,2.35h.18a6.58,6.58,0,0,0,6.8-5h0L69,104.74c4.18,1.31,3.33-4.17,2.12-5.77,0,0-.27-6.94-.4-11.51l1.71-13.31a.5.5,0,0,1,.42-.51l8.69-2.84"/><path class="cls-3" d="M63.21,108.73l-.44,0H62.6l-1.19-.06c-2.68-.13-4.15-.2-6.47-2.46l-.25-.25A12.18,12.18,0,0,1,52.11,92.2l2.45-5.37L63.1,62.42A1.86,1.86,0,0,1,64.42,61L86,54.54l.33,1.09L64.74,62.08a.8.8,0,0,0-.54.62L55.62,87.26l-2.47,5.42a11,11,0,0,0,2.33,12.44l.26.25c2,1.95,3.17,2,5.72,2.13l1.21.06.17,0a6.05,6.05,0,0,0,5.61-3l.63-1.63,1.09.34a7.6,7.6,0,0,1-.37,1.11c1,.13,1.25-.29,1.36-.45.73-1,.21-3.62-.52-4.58l-.11-.15V99s-.27-6.94-.4-11.52l1.71-13.39a1,1,0,0,1,.91-1l8.59-2.83.35,1.09L73,74.18,71.26,87.53c.13,4.07.36,10.16.4,11.25.9,1.35,1.48,4.29.43,5.77a2.48,2.48,0,0,1-2.84.86A7.16,7.16,0,0,1,63.21,108.73Z"/><path class="cls-7" d="M89.1,58.07,77.15,100.22,91,122.63h19.63s-1.89-4,2.28-20.41,5.88-31.52,5.31-36.74c-.55-5-10.27-10.16-8.5-19.63a.67.67,0,0,0-.81-.81C104.14,46.23,85,51.23,84,55.22,83,59,79.73,67.69,78.64,70.54a.69.69,0,0,0,.64.93l6,.08Z"/><path class="cls-3" d="M110.62,123.2H90.68L76.53,100.31l.07-.24,7.92-28L79.27,72a1.25,1.25,0,0,1-1.16-1.71c1-2.62,4.37-11.48,5.31-15.24,1-4.13,18.07-8.79,25.34-10.6a1.22,1.22,0,0,1,1.14.3,1.28,1.28,0,0,1,.37,1.17c-1,5.62,2.13,9.64,4.94,13.18,1.79,2.25,3.34,4.21,3.57,6.27.59,5.5-1.23,20.83-5.33,37-4,15.84-2.33,20-2.31,20l.35.8Zm-19.31-1.14h18.56c-.37-1.85-.76-7.23,2.48-20,4.06-16,5.88-31.14,5.29-36.54-.19-1.74-1.64-3.57-3.32-5.69-2.81-3.55-6.32-8-5.17-14.1L108.9,45l.14.55c-10.86,2.71-23.79,6.89-24.51,9.77-.93,3.72-4.06,12-5.36,15.38l.11.16,5.56.08,3.71-13.06,1.09.31h0l-11.88,41.9Z"/><path class="cls-5" d="M95.68,72.68l8,21.28a1.34,1.34,0,0,0,1.22.74l25.18-1.34,5.72,1.47a11.55,11.55,0,0,0,12.43-4.72l.2-.3a14.34,14.34,0,0,0,2.38-9.73l0-.18a6.59,6.59,0,0,0-6.15-5.82h0l1.72.34c.55-4.35-4.69-2.54-6-1.07,0,0-7.12,4.91-11.59,5.85l-13.62,2.86a.49.49,0,0,1-.57-.33L110.8,68.05"/><path class="cls-3" d="M138.68,95.76a11.79,11.79,0,0,1-3-.38l-5.63-1.44L105,95.27a1.91,1.91,0,0,1-1.76-1.06l-8-21.33,1.07-.4,8,21.28a.82.82,0,0,0,.68.37l25.25-1.34,5.8,1.49a11,11,0,0,0,11.82-4.49l.2-.29a13.8,13.8,0,0,0,2.28-9.36l0-.17a6,6,0,0,0-4-5l-1.7-.34.14-1.13a7.37,7.37,0,0,1,1.16.17c0-1-.51-1.18-.69-1.26-1.15-.54-3.59.43-4.41,1.32-.39.28-7.36,5.06-11.9,6l-13.61,2.86a1.09,1.09,0,0,1-1.23-.71L110.25,68.2l1.1-.31,3.76,13.69,13.52-2.94c4.31-.9,11.32-5.71,11.39-5.76,1-1.09,3.92-2.29,5.63-1.5A2.5,2.5,0,0,1,147,74a7.15,7.15,0,0,1,4.4,5.8l0,.17a15,15,0,0,1-2.47,10.12l-.2.3A12.17,12.17,0,0,1,138.68,95.76Z"/><path class="cls-7" d="M93.32,62.46,97.1,78.71a1.25,1.25,0,0,0,1.73.86L112,73.67a1.68,1.68,0,0,0,.92-2l-4.42-15.25"/><path class="cls-3" d="M98.32,80.25a1.75,1.75,0,0,1-.81-.19,1.84,1.84,0,0,1-1-1.22L92.76,62.59l1.11-.26,3.78,16.25A.7.7,0,0,0,98,79a.71.71,0,0,0,.59,0l13.13-5.9a1.12,1.12,0,0,0,.62-1.33l-4.43-15.25,1.09-.32,4.43,15.26a2.26,2.26,0,0,1-1.24,2.68l-13.14,5.9A1.76,1.76,0,0,1,98.32,80.25Z"/><path class="cls-8" d="M96.73,48s9.74-5.34,9.39-19.08S118.32-3.16,136.23,3.2c12.59,4.47,22.38,26.51,36.39,21.1,0,0-16.36,27.62-31.72,12.67l-16.5-13.1L121.27,43Z"/><path class="cls-3" d="M93.19,49.31l3.27-1.8c.09,0,9.43-5.36,9.09-18.57A29.87,29.87,0,0,1,117.15,5.3a20.09,20.09,0,0,1,19.27-2.64c5,1.79,9.66,6.35,14.12,10.76,7,6.94,13.69,13.51,21.88,10.35l1.53-.59-.84,1.41c-.38.64-9.46,15.78-20.68,17.27-4.27.57-8.29-.94-11.93-4.48L124.8,24.92l-3,18.58ZM129,2.47a19,19,0,0,0-11.2,3.75,28.7,28.7,0,0,0-11.13,22.69c.25,9.82-4.61,15.51-7.54,18l21.62-4.4L124,22.82l17.26,13.71c3.42,3.32,7.12,4.72,11,4.2,8.8-1.17,16.52-11.66,19-15.41-8.17,2.11-15-4.6-21.55-11.09-4.37-4.32-8.9-8.79-13.7-10.49A20.87,20.87,0,0,0,129,2.47Z"/><path class="cls-5" d="M129.22,28a.24.24,0,0,1-.44-.15c.27-2.52.47-8.61-4.31-6.52-6,2.61-1.8,16.29-5.41,17.85s-9,6-9,6-1.73,6,.76,9.21,6.1,8,6.1,8,1.16-14.49,4.24-11.93,14.7,5.93,18.92-14.15c0,0-6.39-8-6.9-13.36a.31.31,0,0,0-.58-.12Z"/><path class="cls-3" d="M117.36,63.89l-.9-1.19s-3.61-4.74-6.1-8c-2.64-3.44-.93-9.46-.85-9.72l0-.17.13-.11c.22-.18,5.51-4.53,9.15-6.11,1.24-.54,1.33-3.6,1.42-6.55.13-4.54.29-9.68,4-11.3a3.49,3.49,0,0,1,3.6,0c1.45,1.07,1.72,3.52,1.61,5.77l2.67-4.08a.89.89,0,0,1,1-.37.87.87,0,0,1,.66.76c.48,5.17,6.71,13,6.77,13.06l.17.21-.06.26c-2.32,11.07-6.87,14.81-10.28,16a10.31,10.31,0,0,1-9.55-1.53c-.28-.23-.4-.18-.46-.15-1.37.58-2.49,7.18-2.86,11.68Zm-6.8-18.4c-.25,1-1.36,5.85.7,8.53,1.73,2.25,4,5.22,5.22,6.83.34-3.35,1.31-10.3,3.41-11.18a1.5,1.5,0,0,1,1.62.32A9.23,9.23,0,0,0,130,51.32c4.45-1.55,7.73-6.7,9.5-14.89-1-1.28-5.91-7.75-6.76-12.76l-3,4.59a.79.79,0,0,1-.95.32.81.81,0,0,1-.53-.85c.33-3.05-.06-5.3-1-6a2.45,2.45,0,0,0-2.47.1c-3,1.32-3.18,6.08-3.3,10.28-.11,3.61-.2,6.74-2.11,7.56C116.12,41,111.42,44.78,110.56,45.49Z"/><path class="cls-5" d="M109.46,151s10.58,7.29,13,2.09c1.93-4.14,4-7.64,4-7.64s-19.13,35.95-20.27,43.5c0,0,1.28,8,10.81,9.54l37.34-50.2s6.33-8.61-6-15a100.14,100.14,0,0,0-24.76-8.61Z"/><path class="cls-3" d="M117.25,199.15l-.34-.05c-9.82-1.55-11.27-9.93-11.28-10l0-.09,0-.08c.76-5.06,9.26-22.27,15-33.53l-.07,0c-4.11,1.11-11.15-3.69-11.45-3.89l-.42-.29,14.59-27.09.41.08a101.73,101.73,0,0,1,24.91,8.66c4.34,2.24,6.92,5,7.68,8.25a9.84,9.84,0,0,1-1.51,7.55ZM106.77,189c.16.88,1.7,7.47,10,8.93L153.88,148a8.81,8.81,0,0,0,1.32-6.62c-.69-2.9-3.07-5.41-7.09-7.48a100.61,100.61,0,0,0-24.19-8.48l-13.71,25.44c1.56,1,7,4.3,10.08,3.45a2.39,2.39,0,0,0,1.5-1.12c.07-.12.13-.24.19-.36,1.91-4.09,4-7.59,4-7.62l1,.55c0,.11-1.7,3.21-4,7.73l-.06.11C117.23,164.53,107.65,183.66,106.77,189Z"/><path class="cls-5" d="M60.6,150.26S52.06,167.92,51.35,178a27.64,27.64,0,0,1-5.11,14.16c-2,2.7-3.84,5.42-5.54,8.29-3.9,6.61-9.65,17.34-12.25,27.1,0,0,.43,14.81,7.68,17.95L66,201.67S79.94,170.76,81.51,156Z"/><path class="cls-3" d="M36.34,246.24l-.43-.19c-7.51-3.24-8-17.83-8-18.45v-.08l0-.08c2.56-9.64,8.11-20.14,12.31-27.25,1.8-3,3.82-5.91,5.57-8.33a27.18,27.18,0,0,0,5-13.87c.72-10.11,9-27.26,9.31-28l.2-.43,21.84,5.95-.06.48c-1.55,14.73-15.41,45.58-15.55,45.89ZM29,227.65c.05,1.14.74,13.94,6.92,17.15l29.59-43.45c.09-.22,13.58-30.24,15.36-45l-20-5.44c-1.3,2.75-8.36,18.12-9,27.14a28.36,28.36,0,0,1-5.22,14.46c-1.73,2.39-3.74,5.24-5.51,8.24C37,207.8,31.56,218.16,29,227.65Z"/><path class="cls-6" d="M77.15,100.22s-11.43,22.84-15.94,43.11c-1.08,4.9-3.41,6.93-4.51,7.64a.47.47,0,0,0,0,.77c3.92,2.92,26.58,19,32.81,6.21a229.91,229.91,0,0,0,10.43-24.88s-1.55,4.48-3.47,9.21c-2.65,6.53,9.13,14.45,15.79,13.77,0,0,10.82-26,15.94-31.28,4.16-4.32-4.92-3.72-13.36-3.86-2.94,0-5.86,0-8.8,0-3.89.11-10.37-.64-14.26-6.12S77.15,100.22,77.15,100.22Z"/><path class="cls-3" d="M81.28,163.4c-9.38,0-22.24-9.19-25-11.2a1.08,1.08,0,0,1-.42-.88,1,1,0,0,1,.48-.83c.93-.6,3.21-2.51,4.27-7.29,4.47-20.1,15.86-43,16-43.23l.32-.65.56.47c.44.38,10.79,9.22,14.69,14.72,3.8,5.35,10.24,6,13.78,5.88,2.84-.08,5.73-.1,8.83,0,1.08,0,2.17,0,3.25,0,6.68,0,10.82.14,11.59,2,.33.79,0,1.72-1.08,2.82-5,5.18-15.71,30.85-15.82,31.11l-.13.31-.34,0c-4.64.47-11.6-3-14.91-7.43a9.47,9.47,0,0,1-1.73-3.51c-1.54,3.65-3.43,7.92-5.66,12.52a8.7,8.7,0,0,1-5.92,4.89A12.05,12.05,0,0,1,81.28,163.4Zm-24.15-12C60.3,153.71,75,164.13,83.8,162A7.57,7.57,0,0,0,89,157.7c3.61-7.43,6.33-14,8.09-18.5,1.34-3.48,2.31-6.28,2.32-6.31l1.08.36c0,.05-.8,2.38-2.3,6.24-.37,1-.77,2-1.18,3-.93,2.28.21,4.53,1.32,6,3,4,9.36,7.2,13.55,7,1.32-3.14,11-26.07,15.92-31.14.67-.7,1-1.28.85-1.59-.52-1.22-6.08-1.25-10.55-1.27l-3.26,0c-3.09,0-6,0-8.78,0-3.74.11-10.63-.58-14.73-6.36-3.32-4.67-11.72-12.09-14-14-1.89,3.88-11.55,24.25-15.56,42.31C60.69,148.3,58.45,150.47,57.13,151.37Z"/><path class="cls-9" d="M28.65,228.48a.32.32,0,0,0-.62-.14c-1.41,3.51-4.66,11.15-6.41,11.92-2.27,1-3.77,7.9,0,12.39S31.44,267,37,268s13.8-.93,13.8-.93,7.76-7.69-5.26-11.53c0,0-9-9.9-7.54-13.1A15.27,15.27,0,0,1,28.65,228.48Z"/><path class="cls-3" d="M40.68,268.89a22.17,22.17,0,0,1-3.8-.3c-4.52-.81-9.15-7-12.87-11.93-1-1.36-2-2.65-2.82-3.65A11.2,11.2,0,0,1,19,243.44c.44-1.86,1.32-3.25,2.35-3.7.84-.37,2.89-3.61,6.12-11.61a.89.89,0,0,1,1.71.34h0a14.75,14.75,0,0,0,9,13.46l.57.21-.25.56c-.92,2.06,4,8.63,7.34,12.37,4.44,1.34,7,3.3,7.65,5.83.86,3.41-2.18,6.48-2.31,6.61l-.11.11-.16,0A51.62,51.62,0,0,1,40.68,268.89ZM28.13,229.61c-2.8,6.82-4.92,10.57-6.28,11.17a4.3,4.3,0,0,0-1.7,2.92,10,10,0,0,0,1.91,8.58c.85,1,1.83,2.32,2.86,3.7,3.41,4.54,8.08,10.75,12.16,11.49,5,.89,12.23-.63,13.41-.89.5-.54,2.52-2.95,1.9-5.41-.54-2.14-2.91-3.84-7-5.06l-.15,0L45.1,256c-.9-1-8.37-9.37-7.8-13.16A15.92,15.92,0,0,1,28.13,229.61Z"/><path class="cls-9" d="M107.06,185a.32.32,0,0,0-.62-.13C105,188.37,101.78,196,100,196.78c-2.27,1-3.77,7.9,0,12.39s11.49,14.38,17,15.38,13.8-.93,13.8-.93,7.75-7.69-5.26-11.53c0,0-10.64-9.9-9.22-13.11A15.26,15.26,0,0,1,107.06,185Z"/><path class="cls-3" d="M120.77,225.41a22.17,22.17,0,0,1-3.8-.3c-5.24-.94-12.12-9.24-16.23-14.2l-1.14-1.38A11.2,11.2,0,0,1,97.45,200c.44-1.87,1.32-3.25,2.35-3.71s3.46-5,6.12-11.6a.87.87,0,0,1,1-.54.88.88,0,0,1,.73.88,14.56,14.56,0,0,0,9,13.46l.56.21-.24.56c-.91,2,5,8.62,9,12.36,4.46,1.34,7,3.3,7.68,5.84.86,3.41-2.18,6.48-2.31,6.61l-.11.11-.16,0A50.58,50.58,0,0,1,120.77,225.41Zm-14.23-39.28c-2,4.91-4.61,10.44-6.28,11.17a4.3,4.3,0,0,0-1.7,2.92,10,10,0,0,0,1.91,8.58l1.15,1.39c4,4.83,10.72,12.93,15.55,13.8s12.22-.63,13.41-.89c.49-.54,2.52-2.95,1.89-5.41-.54-2.14-2.9-3.84-7-5.06l-.23-.13c-1.73-1.61-10-9.48-9.5-13.19A15.91,15.91,0,0,1,106.54,186.13Z"/><circle class="cls-3" cx="133.12" cy="36.59" r="2.44"/></g></g></svg>