<svg xmlns="http://www.w3.org/2000/svg" viewBox="0 0 458.13 228.89"><defs><style>.cls-1{fill:#c0e072;}.cls-2{fill:#b56f00;}.cls-3{fill:#46c638;}.cls-4{fill:#b4d85c;}.cls-5{fill:#654e45;}</style></defs><title>1</title><g id="Capa_2" data-name="Capa 2"><g id="Capa_1-2" data-name="Capa 1"><path class="cls-1" d="M80,101.51a25.4,25.4,0,0,0-8.74,3.18,25.46,25.46,0,0,0-9.3-.2c-16.12,2.67-26.64,20.24-23.5,39.25S57.25,176,73.37,173.34a25.4,25.4,0,0,0,8.74-3.18,25.46,25.46,0,0,0,9.3.2c16.12-2.67,26.64-20.24,23.5-39.25S96.15,98.85,80,101.51Z"/><path class="cls-2" d="M71.67,107.77s-4.22-10,1.14-16.23l.38,2.32s-3.86,2.67.37,13.59C73.52,107.46,73.39,108.9,71.67,107.77Z"/><path class="cls-3" d="M60.43,92.8h0a9.09,9.09,0,0,1,10.45,7.49h0A9.09,9.09,0,0,1,60.43,92.8Z"/><path class="cls-4" d="M62,104.52s-30,32.72,11.37,68.76c0,0-27.09,5.12-34.88-29.47a36.47,36.47,0,0,1,1.29-18.65,29.4,29.4,0,0,1,12.69-17C59.46,104,62,104.52,62,104.52Z"/><path class="cls-1" d="M80,10a25.51,25.51,0,0,0-8.75,3.17,25.46,25.46,0,0,0-9.3-.19C45.81,15.62,35.29,33.2,38.43,52.21S57.19,84.47,73.3,81.8a25.43,25.43,0,0,0,8.75-3.17,25.46,25.46,0,0,0,9.3.19c16.12-2.66,26.64-20.24,23.49-39.25S96.09,7.31,80,10Z"/><path class="cls-2" d="M71.61,16.23S67.39,6.24,72.74,0l.39,2.33S69.27,5,73.5,15.91C73.46,15.93,73.32,17.37,71.61,16.23Z"/><path class="cls-3" d="M60.36,1.27h0A9.09,9.09,0,0,1,70.82,8.75h0A9.09,9.09,0,0,1,60.36,1.27Z"/><path class="cls-4" d="M62,13S32,45.71,73.35,81.75c0,0-27.09,5.11-34.88-29.48a36.37,36.37,0,0,1,1.29-18.65,29.49,29.49,0,0,1,12.68-17C59.4,12.42,62,13,62,13Z"/><path class="cls-1" d="M240.55,98.82a25.41,25.41,0,0,0-9.29-.57,25.28,25.28,0,0,0-8.45-3.89c-15.84-4-32.49,7.93-37.2,26.61S189.94,158,205.78,162a25.64,25.64,0,0,0,9.29.58,25.45,25.45,0,0,0,8.45,3.88c15.84,4,32.5-7.93,37.2-26.61S256.39,102.81,240.55,98.82Z"/><path class="cls-2" d="M230.39,101.23s.12-10.85,7.52-14.44l-.58,2.29s-4.6.91-5.08,12.6C232.21,101.68,231.51,103,230.39,101.23Z"/><path class="cls-3" d="M226.05,83h0a9.09,9.09,0,0,1,6.6,11h0A9.09,9.09,0,0,1,226.05,83Z"/><path class="cls-4" d="M222.85,94.4s-40.54,18-17,67.59c0,0-26.88-6.11-20.22-40.94a36.64,36.64,0,0,1,8.62-16.59,29.49,29.49,0,0,1,18.42-10.52C220.72,92.86,222.85,94.4,222.85,94.4Z"/><path class="cls-1" d="M162.29,93.08a25.32,25.32,0,0,0-9.14,1.71A25.37,25.37,0,0,0,144,93.08c-16.34,0-29.58,15.62-29.58,34.89s13.24,34.89,29.58,34.89a25.37,25.37,0,0,0,9.15-1.71,25.32,25.32,0,0,0,9.14,1.71c16.34,0,29.58-15.62,29.58-34.89S178.63,93.08,162.29,93.08Z"/><path class="cls-2" d="M153,97.89s-2.53-10.55,3.77-15.83v2.36s-4.24,2-1.85,13.46C154.9,97.89,154.53,99.29,153,97.89Z"/><path class="cls-3" d="M144.37,81.29h0a9.09,9.09,0,0,1,9.09,9.09h0A9.09,9.09,0,0,1,144.37,81.29Z"/><path class="cls-4" d="M144.05,93.11s-34.91,27.4,0,69.7c0,0-27.56.63-29.6-34.77a36.47,36.47,0,0,1,4.31-18.19,29.48,29.48,0,0,1,15.29-14.7C141.6,92.14,144.05,93.11,144.05,93.11Z"/><path class="cls-1" d="M165.12,14.19a25.57,25.57,0,0,0-9.25,1,25.55,25.55,0,0,0-9-2.45C130.61,11.35,116.13,25.83,114.55,45s10.34,35.85,26.62,37.2a25.35,25.35,0,0,0,9.25-1,25.34,25.34,0,0,0,9,2.46c16.28,1.34,30.76-13.14,32.34-32.35S181.41,15.53,165.12,14.19Z"/><path class="cls-2" d="M155.49,18.23S153.84,7.5,160.55,2.76l-.2,2.35S156,6.76,157.41,18.37C157.36,18.38,156.88,19.74,155.49,18.23Z"/><path class="cls-3" d="M148.23,1h0a9.09,9.09,0,0,1,8.32,9.81h0A9.1,9.1,0,0,1,148.23,1Z"/><path class="cls-4" d="M146.94,12.73s-37,24.44-5.72,69.46c0,0-27.52-1.63-26.64-37.08a36.45,36.45,0,0,1,5.78-17.78,29.46,29.46,0,0,1,16.45-13.39C144.58,11.56,146.94,12.73,146.94,12.73Z"/><path class="cls-1" d="M100.8,152.52a25.55,25.55,0,0,0-9.15,1.71,25.53,25.53,0,0,0-9.14-1.71c-16.34,0-29.58,15.62-29.58,34.89S66.17,222.3,82.51,222.3a25.52,25.52,0,0,0,9.14-1.7,25.54,25.54,0,0,0,9.15,1.7c16.33,0,29.58-15.62,29.58-34.89S117.13,152.52,100.8,152.52Z"/><path class="cls-2" d="M91.53,157.33S89,146.78,95.3,141.5v2.36s-4.24,2-1.85,13.46C93.41,157.33,93,158.73,91.53,157.33Z"/><path class="cls-3" d="M82.88,140.73h0A9.09,9.09,0,0,1,92,149.82h0A9.09,9.09,0,0,1,82.88,140.73Z"/><path class="cls-4" d="M82.56,152.55s-34.91,27.4,0,69.7c0,0-27.56.63-29.6-34.77a36.39,36.39,0,0,1,4.31-18.19,29.45,29.45,0,0,1,15.29-14.7C80.11,151.58,82.56,152.55,82.56,152.55Z"/><path class="cls-1" d="M220.2,152.52a25.63,25.63,0,0,0-9.15,1.71,25.53,25.53,0,0,0-9.14-1.71c-16.34,0-29.58,15.62-29.58,34.89s13.24,34.89,29.58,34.89a25.52,25.52,0,0,0,9.14-1.7,25.62,25.62,0,0,0,9.15,1.7c16.34,0,29.58-15.62,29.58-34.89S236.54,152.52,220.2,152.52Z"/><path class="cls-2" d="M210.93,157.33s-2.53-10.55,3.77-15.83v2.36s-4.24,2-1.85,13.46C212.81,157.33,212.44,158.73,210.93,157.33Z"/><path class="cls-3" d="M202.28,140.73h0a9.09,9.09,0,0,1,9.09,9.09h0A9.09,9.09,0,0,1,202.28,140.73Z"/><path class="cls-4" d="M202,152.55s-34.91,27.4,0,69.7c0,0-27.56.63-29.6-34.77a36.5,36.5,0,0,1,4.31-18.19A29.45,29.45,0,0,1,192,154.59C199.51,151.58,202,152.55,202,152.55Z"/><path class="cls-1" d="M159.14,153.29A25.53,25.53,0,0,0,150,155a25.53,25.53,0,0,0-9.14-1.71c-16.34,0-29.59,15.62-29.59,34.89s13.25,34.89,29.59,34.89a25.52,25.52,0,0,0,9.14-1.7,25.52,25.52,0,0,0,9.14,1.7c16.34,0,29.59-15.62,29.59-34.89S175.48,153.29,159.14,153.29Z"/><path class="cls-2" d="M149.87,158.1s-2.53-10.55,3.77-15.83v2.36s-4.24,2-1.85,13.46C151.75,158.1,151.38,159.5,149.87,158.1Z"/><path class="cls-3" d="M141.22,141.5h0a9.08,9.08,0,0,1,9.09,9.09h0A9.09,9.09,0,0,1,141.22,141.5Z"/><path class="cls-4" d="M140.9,153.32s-34.91,27.4,0,69.7c0,0-27.56.63-29.6-34.77a36.61,36.61,0,0,1,4.31-18.19,29.52,29.52,0,0,1,15.29-14.7C138.45,152.35,140.9,153.32,140.9,153.32Z"/><path class="cls-5" d="M281,59.85,300,44,276.05,15.26,222.86,59.61H81.68L30.79,17.18,6.84,45.9,23.28,59.61h-5A18.24,18.24,0,0,0,0,77.81v7A18.24,18.24,0,0,0,18.24,103h3.21L56,223.83v5.06H244.73v-6.06L279,103a18.23,18.23,0,0,0,17.36-18.19V77.85A18.23,18.23,0,0,0,281,59.85ZM113.6,103,124,222.19H90L69.53,103Zm6.71,0h59.78L169.66,222.19H130.74Zm66.49,0h44.07L210.33,222.19h-34Zm50.86,0H272L238,222.19H217.12Zm37.5-77.93,15,18L270.36,59.6H233.77ZM16.68,45l15-18,39.09,32.6H34.19Zm46.06,58L83.29,222.19H62.45L28.45,103Z"/><path class="cls-1" d="M348.19,155.26a25.47,25.47,0,0,0-9.3.14,25.39,25.39,0,0,0-8.72-3.24c-16.1-2.76-31.8,10.39-35.07,29.38s7.14,36.63,23.24,39.39a25.25,25.25,0,0,0,9.3-.13,25.35,25.35,0,0,0,8.73,3.23c16.1,2.77,31.8-10.38,35.06-29.37S364.29,158,348.19,155.26Z"/><path class="cls-2" d="M338.24,158.43s-.71-10.82,6.4-15l-.4,2.33s-4.52,1.25-4.11,12.95C340.09,158.75,339.49,160.07,338.24,158.43Z"/><path class="cls-3" d="M332.53,140.61h0a9.09,9.09,0,0,1,7.42,10.5h0A9.09,9.09,0,0,1,332.53,140.61Z"/><path class="cls-4" d="M330.21,152.2s-39,21.09-11.81,68.69c0,0-27.27-4-23.28-39.28a36.48,36.48,0,0,1,7.33-17.2A29.43,29.43,0,0,1,320,152.52C328,150.83,330.21,152.2,330.21,152.2Z"/><path class="cls-1" d="M429.43,153.53a25.54,25.54,0,0,0-9.19,1.48,25.38,25.38,0,0,0-9.1-1.94c-16.33-.41-30,14.87-30.45,34.14s12.36,35.21,28.69,35.62a25.54,25.54,0,0,0,9.19-1.48,25.33,25.33,0,0,0,9.1,1.94c16.33.41,30-14.87,30.45-34.13S445.76,154,429.43,153.53Z"/><path class="cls-2" d="M420,158.11s-2.26-10.61,4.17-15.73l-.06,2.36s-4.29,1.89-2.19,13.41C421.92,158.16,421.51,159.55,420,158.11Z"/><path class="cls-3" d="M411.81,141.3h0a9.08,9.08,0,0,1,8.86,9.31h0A9.08,9.08,0,0,1,411.81,141.3Z"/><path class="cls-4" d="M411.19,153.1s-35.59,26.51-1.76,69.68c0,0-27.56-.06-28.71-35.5a36.49,36.49,0,0,1,4.77-18.08,29.45,29.45,0,0,1,15.65-14.31C408.77,152.07,411.19,153.1,411.19,153.1Z"/></g></g></svg>