<svg xmlns="http://www.w3.org/2000/svg" viewBox="0 0 550.35 227.92"><defs><style>.cls-1{fill:#c0e072;}.cls-2{fill:#b56f00;}.cls-3{fill:#46c638;}.cls-4{fill:#b4d85c;}.cls-5{fill:#654e45;}</style></defs><title>2</title><g id="Capa_2" data-name="Capa 2"><g id="Capa_1-2" data-name="Capa 1"><path class="cls-1" d="M80,100.54a25.4,25.4,0,0,0-8.74,3.18,25.46,25.46,0,0,0-9.3-.2c-16.12,2.67-26.64,20.24-23.5,39.25S57.25,175,73.37,172.37a25.4,25.4,0,0,0,8.74-3.18,25.46,25.46,0,0,0,9.3.2c16.12-2.67,26.64-20.24,23.5-39.25S96.15,97.87,80,100.54Z"/><path class="cls-2" d="M71.67,106.8s-4.22-10,1.14-16.24l.38,2.33s-3.86,2.67.37,13.58C73.52,106.49,73.39,107.93,71.67,106.8Z"/><path class="cls-3" d="M60.43,91.83h0a9.09,9.09,0,0,1,10.45,7.49h0A9.1,9.1,0,0,1,60.43,91.83Z"/><path class="cls-4" d="M62,103.54s-30,32.73,11.37,68.77c0,0-27.09,5.12-34.88-29.48a36.44,36.44,0,0,1,1.29-18.64,29.4,29.4,0,0,1,12.69-17C59.46,103,62,103.54,62,103.54Z"/><path class="cls-1" d="M240.55,97.85a25.41,25.41,0,0,0-9.29-.57,25.28,25.28,0,0,0-8.45-3.89c-15.84-4-32.49,7.93-37.2,26.61s4.33,37.07,20.17,41.06a25.41,25.41,0,0,0,9.29.57,25.28,25.28,0,0,0,8.45,3.89c15.84,4,32.5-7.93,37.2-26.61S256.39,101.84,240.55,97.85Z"/><path class="cls-2" d="M230.39,100.25s.12-10.84,7.52-14.43l-.58,2.29s-4.6.91-5.08,12.6C232.21,100.71,231.51,102,230.39,100.25Z"/><path class="cls-3" d="M226.05,82h0a9.1,9.1,0,0,1,6.6,11h0A9.1,9.1,0,0,1,226.05,82Z"/><path class="cls-4" d="M222.85,93.43s-40.54,18-17,67.59c0,0-26.88-6.11-20.22-40.94a36.59,36.59,0,0,1,8.62-16.59A29.49,29.49,0,0,1,212.66,93C220.72,91.89,222.85,93.43,222.85,93.43Z"/><path class="cls-1" d="M162.29,92.11a25.32,25.32,0,0,0-9.14,1.71A25.37,25.37,0,0,0,144,92.11c-16.34,0-29.58,15.62-29.58,34.89s13.24,34.89,29.58,34.89a25.59,25.59,0,0,0,9.15-1.71,25.53,25.53,0,0,0,9.14,1.71c16.34,0,29.58-15.62,29.58-34.89S178.63,92.11,162.29,92.11Z"/><path class="cls-2" d="M153,96.92s-2.53-10.55,3.77-15.83v2.36s-4.24,2-1.85,13.46C154.9,96.92,154.53,98.32,153,96.92Z"/><path class="cls-3" d="M144.37,80.32h0a9.09,9.09,0,0,1,9.09,9.09h0A9.09,9.09,0,0,1,144.37,80.32Z"/><path class="cls-4" d="M144.05,92.14s-34.91,27.4,0,69.7c0,0-27.56.63-29.6-34.77a36.45,36.45,0,0,1,4.31-18.19,29.48,29.48,0,0,1,15.29-14.7C141.6,91.17,144.05,92.14,144.05,92.14Z"/><path class="cls-1" d="M165.12,13.22a25.57,25.57,0,0,0-9.25.95,25.55,25.55,0,0,0-9-2.45c-16.29-1.34-30.77,13.14-32.35,32.34s10.34,35.86,26.62,37.2a25.14,25.14,0,0,0,9.25-1,25.55,25.55,0,0,0,9,2.46c16.28,1.34,30.76-13.14,32.34-32.35S181.41,14.56,165.12,13.22Z"/><path class="cls-2" d="M155.49,17.25s-1.65-10.72,5.06-15.46l-.2,2.35S156,5.78,157.41,17.4C157.36,17.41,156.88,18.77,155.49,17.25Z"/><path class="cls-3" d="M148.23,0h0a9.09,9.09,0,0,1,8.32,9.81h0A9.1,9.1,0,0,1,148.23,0Z"/><path class="cls-4" d="M146.94,11.75s-37,24.45-5.72,69.47c0,0-27.52-1.64-26.64-37.08a36.45,36.45,0,0,1,5.78-17.78A29.42,29.42,0,0,1,136.81,13C144.58,10.59,146.94,11.75,146.94,11.75Z"/><path class="cls-1" d="M100.8,151.55a25.55,25.55,0,0,0-9.15,1.71,25.53,25.53,0,0,0-9.14-1.71c-16.34,0-29.58,15.62-29.58,34.89s13.24,34.89,29.58,34.89a25.32,25.32,0,0,0,9.14-1.71,25.33,25.33,0,0,0,9.15,1.71c16.33,0,29.58-15.62,29.58-34.89S117.13,151.55,100.8,151.55Z"/><path class="cls-2" d="M91.53,156.36S89,145.81,95.3,140.53v2.36s-4.24,2-1.85,13.46C93.41,156.36,93,157.76,91.53,156.36Z"/><path class="cls-3" d="M82.88,139.76h0A9.09,9.09,0,0,1,92,148.85h0A9.09,9.09,0,0,1,82.88,139.76Z"/><path class="cls-4" d="M82.56,151.58s-34.91,27.4,0,69.7c0,0-27.56.63-29.6-34.77a36.39,36.39,0,0,1,4.31-18.19,29.41,29.41,0,0,1,15.29-14.7C80.11,150.61,82.56,151.58,82.56,151.58Z"/><path class="cls-1" d="M220.2,151.55a25.63,25.63,0,0,0-9.15,1.71,25.53,25.53,0,0,0-9.14-1.71c-16.34,0-29.58,15.62-29.58,34.89s13.24,34.89,29.58,34.89a25.32,25.32,0,0,0,9.14-1.71,25.41,25.41,0,0,0,9.15,1.71c16.34,0,29.58-15.62,29.58-34.89S236.54,151.55,220.2,151.55Z"/><path class="cls-2" d="M210.93,156.36s-2.53-10.55,3.77-15.83v2.36s-4.24,2-1.85,13.46C212.81,156.36,212.44,157.76,210.93,156.36Z"/><path class="cls-3" d="M202.28,139.76h0a9.09,9.09,0,0,1,9.09,9.09h0A9.09,9.09,0,0,1,202.28,139.76Z"/><path class="cls-4" d="M202,151.58s-34.91,27.4,0,69.7c0,0-27.56.63-29.6-34.77a36.5,36.5,0,0,1,4.31-18.19A29.41,29.41,0,0,1,192,153.62C199.51,150.61,202,151.58,202,151.58Z"/><path class="cls-1" d="M159.14,152.32A25.53,25.53,0,0,0,150,154a25.53,25.53,0,0,0-9.14-1.71c-16.34,0-29.59,15.62-29.59,34.89s13.25,34.89,29.59,34.89a25.32,25.32,0,0,0,9.14-1.71,25.32,25.32,0,0,0,9.14,1.71c16.34,0,29.59-15.62,29.59-34.89S175.48,152.32,159.14,152.32Z"/><path class="cls-2" d="M149.87,157.13s-2.53-10.55,3.77-15.83v2.36s-4.24,2-1.85,13.46C151.75,157.13,151.38,158.53,149.87,157.13Z"/><path class="cls-3" d="M141.22,140.53h0a9.08,9.08,0,0,1,9.09,9.09h0A9.09,9.09,0,0,1,141.22,140.53Z"/><path class="cls-4" d="M140.9,152.35s-34.91,27.4,0,69.7c0,0-27.56.63-29.6-34.77a36.61,36.61,0,0,1,4.31-18.19,29.48,29.48,0,0,1,15.29-14.7C138.45,151.38,140.9,152.35,140.9,152.35Z"/><path class="cls-5" d="M281,58.88,300,43,276.05,14.29,222.86,58.64H81.68L30.79,16.21,6.84,44.93,23.28,58.64h-5A18.24,18.24,0,0,0,0,76.84v7A18.24,18.24,0,0,0,18.24,102h3.21L56,222.86v5.06H244.73v-6.06L279,102A18.23,18.23,0,0,0,296.36,83.8V76.88A18.23,18.23,0,0,0,281,58.88ZM113.6,102,124,221.22H90L69.53,102Zm6.71,0h59.78L169.66,221.22H130.74Zm66.49,0h44.07L210.33,221.22h-34Zm50.86,0H272L238,221.22H217.12Zm37.5-77.93,15,18-19.8,16.52H233.77ZM16.68,44l15-18,39.09,32.6H34.19Zm46.06,58L83.29,221.22H62.45L28.45,102Z"/><path class="cls-1" d="M348.19,154.29a25.69,25.69,0,0,0-9.3.13,25.58,25.58,0,0,0-8.72-3.23c-16.1-2.77-31.8,10.38-35.07,29.38s7.14,36.62,23.24,39.39a25.47,25.47,0,0,0,9.3-.13,25.35,25.35,0,0,0,8.73,3.23c16.1,2.77,31.8-10.38,35.06-29.37S364.29,157.06,348.19,154.29Z"/><path class="cls-2" d="M338.24,157.46s-.71-10.83,6.4-15l-.4,2.32s-4.52,1.26-4.11,13C340.09,157.78,339.49,159.1,338.24,157.46Z"/><path class="cls-3" d="M332.53,139.64h0A9.08,9.08,0,0,1,340,150.13h0A9.08,9.08,0,0,1,332.53,139.64Z"/><path class="cls-4" d="M330.21,151.23s-39,21.09-11.81,68.69c0,0-27.27-4-23.28-39.28a36.48,36.48,0,0,1,7.33-17.2A29.39,29.39,0,0,1,320,151.55C328,149.86,330.21,151.23,330.21,151.23Z"/><path class="cls-1" d="M512.77,151a25.47,25.47,0,0,0-8.54,3.68,25.34,25.34,0,0,0-9.29.36c-15.94,3.61-25.4,21.77-21.15,40.56s20.62,31.1,36.56,27.5a25.69,25.69,0,0,0,8.54-3.69,25.61,25.61,0,0,0,9.3-.35c15.93-3.61,25.4-21.77,21.14-40.57S528.71,147.41,512.77,151Z"/><path class="cls-2" d="M504.8,157.76S500,148,505,141.49l.52,2.3s-3.7,2.88,1.17,13.53C506.63,157.34,506.58,158.79,504.8,157.76Z"/><path class="cls-3" d="M492.69,143.48h0a9.09,9.09,0,0,1,10.88,6.86h0A9.11,9.11,0,0,1,492.69,143.48Z"/><path class="cls-4" d="M495,155.08s-28,34.43,15.4,68c0,0-26.74,6.7-36.55-27.38A36.44,36.44,0,0,1,474,177a29.54,29.54,0,0,1,11.67-17.72C492.39,154.67,495,155.08,495,155.08Z"/><path class="cls-1" d="M429.43,152.56a25.54,25.54,0,0,0-9.19,1.48,25.38,25.38,0,0,0-9.1-1.94c-16.33-.41-30,14.87-30.45,34.13s12.36,35.22,28.69,35.63a25.54,25.54,0,0,0,9.19-1.48,25.33,25.33,0,0,0,9.1,1.94c16.33.41,30-14.87,30.45-34.13S445.76,153,429.43,152.56Z"/><path class="cls-2" d="M420,157.14s-2.26-10.61,4.17-15.73l-.06,2.36s-4.29,1.89-2.19,13.41C421.92,157.18,421.51,158.57,420,157.14Z"/><path class="cls-3" d="M411.81,140.32h0a9.09,9.09,0,0,1,8.86,9.32h0A9.09,9.09,0,0,1,411.81,140.32Z"/><path class="cls-4" d="M411.19,152.13s-35.59,26.51-1.76,69.68c0,0-27.56-.07-28.71-35.51a36.48,36.48,0,0,1,4.77-18.07,29.45,29.45,0,0,1,15.65-14.31C408.77,151.1,411.19,152.13,411.19,152.13Z"/></g></g></svg>