<svg xmlns="http://www.w3.org/2000/svg" viewBox="0 0 933.56 213.63"><defs><style>.cls-1{fill:#c0e072;}.cls-2{fill:#b56f00;}.cls-3{fill:#46c638;}.cls-4{fill:#b4d85c;}.cls-5{fill:#654e45;}</style></defs><title>6</title><g id="Capa_2" data-name="Capa 2"><g id="Capa_1-2" data-name="Capa 1"><path class="cls-1" d="M100.8,137.26A25.55,25.55,0,0,0,91.65,139a25.53,25.53,0,0,0-9.14-1.71c-16.34,0-29.58,15.63-29.58,34.89S66.17,207,82.51,207a25.52,25.52,0,0,0,9.14-1.7,25.54,25.54,0,0,0,9.15,1.7c16.33,0,29.58-15.62,29.58-34.89S117.13,137.26,100.8,137.26Z"/><path class="cls-2" d="M91.53,142.07S89,131.52,95.3,126.24v2.36s-4.24,2-1.85,13.46C93.41,142.07,93,143.47,91.53,142.07Z"/><path class="cls-3" d="M82.88,125.47h0A9.09,9.09,0,0,1,92,134.56h0A9.08,9.08,0,0,1,82.88,125.47Z"/><path class="cls-4" d="M82.56,137.29s-34.91,27.4,0,69.7c0,0-27.56.63-29.6-34.77A36.39,36.39,0,0,1,57.27,154a29.49,29.49,0,0,1,15.29-14.7C80.11,136.32,82.56,137.29,82.56,137.29Z"/><path class="cls-1" d="M220.2,137.26a25.63,25.63,0,0,0-9.15,1.71,25.53,25.53,0,0,0-9.14-1.71c-16.34,0-29.58,15.63-29.58,34.89S185.57,207,201.91,207a25.52,25.52,0,0,0,9.14-1.7,25.62,25.62,0,0,0,9.15,1.7c16.34,0,29.58-15.62,29.58-34.89S236.54,137.26,220.2,137.26Z"/><path class="cls-2" d="M210.93,142.07s-2.53-10.55,3.77-15.83v2.36s-4.24,2-1.85,13.46C212.81,142.07,212.44,143.47,210.93,142.07Z"/><path class="cls-3" d="M202.28,125.47h0a9.09,9.09,0,0,1,9.09,9.09h0A9.08,9.08,0,0,1,202.28,125.47Z"/><path class="cls-4" d="M202,137.29s-34.91,27.4,0,69.7c0,0-27.56.63-29.6-34.77A36.5,36.5,0,0,1,176.67,154,29.49,29.49,0,0,1,192,139.33C199.51,136.32,202,137.29,202,137.29Z"/><path class="cls-1" d="M159.14,138a25.53,25.53,0,0,0-9.14,1.71,25.53,25.53,0,0,0-9.14-1.71c-16.34,0-29.59,15.63-29.59,34.89s13.25,34.89,29.59,34.89a25.52,25.52,0,0,0,9.14-1.7,25.52,25.52,0,0,0,9.14,1.7c16.34,0,29.59-15.62,29.59-34.89S175.48,138,159.14,138Z"/><path class="cls-2" d="M149.87,142.84s-2.53-10.55,3.77-15.83v2.36s-4.24,2-1.85,13.46C151.75,142.84,151.38,144.24,149.87,142.84Z"/><path class="cls-3" d="M141.22,126.24h0a9.08,9.08,0,0,1,9.09,9.09h0A9.08,9.08,0,0,1,141.22,126.24Z"/><path class="cls-4" d="M140.9,138.06s-34.91,27.4,0,69.7c0,0-27.56.63-29.6-34.77a36.61,36.61,0,0,1,4.31-18.19,29.56,29.56,0,0,1,15.29-14.7C138.45,137.09,140.9,138.06,140.9,138.06Z"/><path class="cls-5" d="M281,44.59l19-15.87L276.05,0,222.86,44.35H81.68L30.79,1.92,6.84,30.64,23.28,44.35h-5A18.24,18.24,0,0,0,0,62.55v7A18.24,18.24,0,0,0,18.24,87.75h3.21L56,208.57v5.06H244.73v-6.06L279,87.7a18.23,18.23,0,0,0,17.36-18.19V62.59A18.23,18.23,0,0,0,281,44.59ZM113.6,87.75,124,206.93H90L69.53,87.75Zm6.71,0h59.78L169.66,206.93H130.74Zm66.49,0h44.07L210.33,206.93h-34Zm50.86,0H272L238,206.93H217.12Zm37.5-77.93,15,18-19.8,16.52H233.77ZM16.68,29.75l15-18,39.09,32.6H34.19Zm46.06,58L83.29,206.93H62.45l-34-119.18Z"/><path class="cls-1" d="M348.19,140a25.47,25.47,0,0,0-9.3.14,25.6,25.6,0,0,0-8.72-3.24c-16.1-2.76-31.8,10.39-35.07,29.38s7.14,36.63,23.24,39.4a25.47,25.47,0,0,0,9.3-.14,25.35,25.35,0,0,0,8.73,3.23c16.1,2.77,31.8-10.38,35.06-29.37S364.29,142.77,348.19,140Z"/><path class="cls-2" d="M338.24,143.17s-.71-10.82,6.4-15l-.4,2.33s-4.52,1.25-4.11,13C340.09,143.49,339.49,144.81,338.24,143.17Z"/><path class="cls-3" d="M332.53,125.35h0a9.09,9.09,0,0,1,7.42,10.5h0A9.09,9.09,0,0,1,332.53,125.35Z"/><path class="cls-4" d="M330.21,136.94s-39,21.09-11.81,68.69c0,0-27.27-4-23.28-39.28a36.48,36.48,0,0,1,7.33-17.2A29.48,29.48,0,0,1,320,137.26C328,135.57,330.21,136.94,330.21,136.94Z"/><path class="cls-1" d="M718.06,140a25.47,25.47,0,0,0-9.3.14A25.65,25.65,0,0,0,700,136.9c-16.1-2.76-31.8,10.39-35.06,29.38s7.14,36.63,23.24,39.4a25.47,25.47,0,0,0,9.3-.14,25.38,25.38,0,0,0,8.72,3.23c16.1,2.77,31.8-10.38,35.07-29.37S734.16,142.77,718.06,140Z"/><path class="cls-2" d="M708.11,143.17s-.71-10.82,6.39-15l-.4,2.33s-4.51,1.25-4.1,13C710,143.49,709.36,144.81,708.11,143.17Z"/><path class="cls-3" d="M702.39,125.35h0a9.09,9.09,0,0,1,7.42,10.5h0A9.1,9.1,0,0,1,702.39,125.35Z"/><path class="cls-4" d="M700.08,136.94S661,158,688.27,205.63c0,0-27.27-4-23.28-39.28a36.38,36.38,0,0,1,7.33-17.2,29.48,29.48,0,0,1,17.56-11.89C697.83,135.57,700.08,136.94,700.08,136.94Z"/><path class="cls-1" d="M512.77,136.73a25.49,25.49,0,0,0-8.54,3.69,25.55,25.55,0,0,0-9.29.35c-15.94,3.61-25.4,21.77-21.15,40.56s20.62,31.11,36.56,27.5a25.69,25.69,0,0,0,8.54-3.69,25.61,25.61,0,0,0,9.3-.35c15.93-3.61,25.4-21.77,21.14-40.56S528.71,133.12,512.77,136.73Z"/><path class="cls-2" d="M504.8,143.47s-4.8-9.73.18-16.27l.52,2.3s-3.7,2.89,1.17,13.54C506.63,143.05,506.58,144.5,504.8,143.47Z"/><path class="cls-3" d="M492.69,129.19h0a9.09,9.09,0,0,1,10.88,6.86h0A9.09,9.09,0,0,1,492.69,129.19Z"/><path class="cls-4" d="M495,140.79s-28,34.43,15.4,68c0,0-26.74,6.7-36.55-27.38A36.44,36.44,0,0,1,474,162.7,29.49,29.49,0,0,1,485.69,145C492.39,140.38,495,140.79,495,140.79Z"/><path class="cls-1" d="M896,136.73a25.4,25.4,0,0,0-8.54,3.69,25.61,25.61,0,0,0-9.3.35c-15.93,3.61-25.4,21.77-21.14,40.56s20.62,31.11,36.55,27.5a25.65,25.65,0,0,0,8.55-3.69,25.55,25.55,0,0,0,9.29-.35c15.94-3.61,25.4-21.77,21.15-40.56S911.91,133.12,896,136.73Z"/><path class="cls-2" d="M888,143.47s-4.8-9.73.18-16.27l.52,2.3S885,132.39,889.87,143C889.84,143.05,889.78,144.5,888,143.47Z"/><path class="cls-3" d="M875.9,129.19h0a9.08,9.08,0,0,1,10.87,6.86h0A9.09,9.09,0,0,1,875.9,129.19Z"/><path class="cls-4" d="M878.2,140.79s-28,34.43,15.39,68c0,0-26.74,6.7-36.55-27.38a36.44,36.44,0,0,1,.19-18.69A29.4,29.4,0,0,1,868.9,145C875.59,140.38,878.2,140.79,878.2,140.79Z"/><path class="cls-1" d="M429.43,138.27a25.54,25.54,0,0,0-9.19,1.48,25.59,25.59,0,0,0-9.1-1.94c-16.33-.41-30,14.87-30.45,34.14s12.36,35.21,28.69,35.62a25.32,25.32,0,0,0,9.19-1.48,25.33,25.33,0,0,0,9.1,1.94c16.33.41,30-14.87,30.45-34.13S445.76,138.69,429.43,138.27Z"/><path class="cls-2" d="M420,142.85s-2.26-10.61,4.17-15.73l-.06,2.36s-4.29,1.89-2.19,13.41C421.92,142.9,421.51,144.29,420,142.85Z"/><path class="cls-3" d="M411.81,126h0a9.08,9.08,0,0,1,8.86,9.31h0A9.08,9.08,0,0,1,411.81,126Z"/><path class="cls-4" d="M411.19,137.84s-35.59,26.51-1.76,69.68c0,0-27.56-.06-28.71-35.5a36.49,36.49,0,0,1,4.77-18.08,29.45,29.45,0,0,1,15.65-14.31C408.77,136.81,411.19,137.84,411.19,137.84Z"/><path class="cls-1" d="M808.93,138.27a25.54,25.54,0,0,0-9.19,1.48,25.54,25.54,0,0,0-9.09-1.94c-16.34-.41-30,14.87-30.46,34.14s12.36,35.21,28.69,35.62a25.29,25.29,0,0,0,9.19-1.48,25.38,25.38,0,0,0,9.1,1.94c16.33.41,30-14.87,30.45-34.13S825.26,138.69,808.93,138.27Z"/><path class="cls-2" d="M799.54,142.85s-2.26-10.61,4.17-15.73l-.06,2.36s-4.29,1.89-2.19,13.41C801.42,142.9,801,144.29,799.54,142.85Z"/><path class="cls-3" d="M791.31,126h0a9.08,9.08,0,0,1,8.86,9.31h0A9.08,9.08,0,0,1,791.31,126Z"/><path class="cls-4" d="M790.69,137.84s-35.59,26.51-1.75,69.68c0,0-27.57-.06-28.72-35.5A36.49,36.49,0,0,1,765,153.94a29.44,29.44,0,0,1,15.66-14.31C788.27,136.81,790.69,137.84,790.69,137.84Z"/><path class="cls-1" d="M617.38,138.27a25.45,25.45,0,0,0-9.18,1.48,25.64,25.64,0,0,0-9.1-1.94c-16.33-.41-30,14.87-30.45,34.14s12.35,35.21,28.69,35.62a25.27,25.27,0,0,0,9.18-1.48,25.38,25.38,0,0,0,9.1,1.94c16.33.41,30-14.87,30.45-34.13S633.71,138.69,617.38,138.27Z"/><path class="cls-2" d="M608,142.85s-2.26-10.61,4.17-15.73l-.06,2.36s-4.29,1.89-2.19,13.41C609.87,142.9,609.47,144.29,608,142.85Z"/><path class="cls-3" d="M599.76,126h0a9.08,9.08,0,0,1,8.86,9.31h0A9.08,9.08,0,0,1,599.76,126Z"/><path class="cls-4" d="M599.15,137.84s-35.59,26.51-1.76,69.68c0,0-27.57-.06-28.72-35.5a36.6,36.6,0,0,1,4.77-18.08,29.44,29.44,0,0,1,15.66-14.31C596.72,136.81,599.15,137.84,599.15,137.84Z"/></g></g></svg>