<svg xmlns="http://www.w3.org/2000/svg" viewBox="0 0 300 162.09"><defs><style>.cls-1{fill:#ff2020;}.cls-2{fill:#ca7000;}.cls-3{fill:#00c61d;}.cls-4{fill:#a90303;opacity:0.3;isolation:isolate;}.cls-5{fill:#704438;}.cls-6{fill:#603021;}.cls-7{fill:#8c5e4b;}.cls-8{fill:#b7b6b6;}</style></defs><title>caja llena manzanas</title><g id="Capa_2" data-name="Capa 2"><g id="Layer_1" data-name="Layer 1"><g id="Layer_2" data-name="Layer 2"><g id="Manzana"><ellipse class="cls-1" cx="193.25" cy="41.01" rx="18.2" ry="21.49"/><ellipse class="cls-1" cx="204.5" cy="41.01" rx="18.2" ry="21.49"/><path class="cls-2" d="M198.8,22.49s-1.56-6.5,2.32-9.75v1.45s-2.61,1.25-1.14,8.29C200,22.49,199.73,23.37,198.8,22.49Z"/><path class="cls-3" d="M193.48,12.26h0a5.6,5.6,0,0,1,5.59,5.6h0a5.59,5.59,0,0,1-5.59-5.6Z"/><path class="cls-4" d="M193.28,19.54s-21.48,16.88,0,42.93c0,0-17,.39-18.21-21.42a22.41,22.41,0,0,1,2.65-11.2,18.09,18.09,0,0,1,9.4-9C191.8,19,193.28,19.54,193.28,19.54Z"/></g></g><g id="Layer_2-2" data-name="Layer 2"><g id="Manzana-2" data-name="Manzana"><ellipse class="cls-1" cx="144.92" cy="33.75" rx="18.2" ry="21.49"/><ellipse class="cls-1" cx="156.18" cy="33.75" rx="18.2" ry="21.49"/><path class="cls-2" d="M150.47,15.23s-1.56-6.5,2.32-9.75V6.93s-2.61,1.25-1.14,8.29C151.63,15.23,151.4,16.11,150.47,15.23Z"/><path class="cls-3" d="M145.15,5h0a5.6,5.6,0,0,1,5.59,5.6h0A5.59,5.59,0,0,1,145.15,5Z"/><path class="cls-4" d="M145,12.28s-21.48,16.88,0,42.93c0,0-17,.39-18.21-21.41a22.41,22.41,0,0,1,2.65-11.2,18.13,18.13,0,0,1,9.41-9.06C143.47,11.69,145,12.28,145,12.28Z"/></g></g><g id="Layer_2-3" data-name="Layer 2"><g id="Manzana-3" data-name="Manzana"><ellipse class="cls-1" cx="90.27" cy="37.33" rx="18.2" ry="21.49"/><ellipse class="cls-1" cx="101.52" cy="37.33" rx="18.2" ry="21.49"/><path class="cls-2" d="M95.82,18.81s-1.56-6.5,2.31-9.75v1.45S95.53,11.76,97,18.8C97,18.81,96.75,19.69,95.82,18.81Z"/><path class="cls-3" d="M90.49,8.58h0a5.6,5.6,0,0,1,5.6,5.6h0a5.6,5.6,0,0,1-5.6-5.6Z"/><path class="cls-4" d="M90.3,15.86s-21.48,16.88,0,42.93c0,0-17,.39-18.22-21.41a22.44,22.44,0,0,1,2.66-11.21,18.09,18.09,0,0,1,9.4-9C88.82,15.27,90.3,15.86,90.3,15.86Z"/></g></g><g id="Layer_2-4" data-name="Layer 2"><g id="Manzana-4" data-name="Manzana"><ellipse class="cls-1" cx="108.47" cy="37.38" rx="18.2" ry="21.49"/><ellipse class="cls-1" cx="119.73" cy="37.38" rx="18.2" ry="21.49"/><path class="cls-2" d="M114,18.86s-1.56-6.5,2.32-9.75v1.45s-2.61,1.25-1.14,8.29C115.18,18.86,115,19.74,114,18.86Z"/><path class="cls-3" d="M108.7,8.63h0a5.6,5.6,0,0,1,5.59,5.6h0a5.59,5.59,0,0,1-5.59-5.6Z"/><path class="cls-4" d="M108.5,15.91S87,32.79,108.5,58.84c0,0-17,.39-18.21-21.41a22.39,22.39,0,0,1,2.65-11.2,18.15,18.15,0,0,1,9.4-9.06C107,15.32,108.5,15.91,108.5,15.91Z"/></g></g><g id="Layer_2-5" data-name="Layer 2"><g id="Manzana-5" data-name="Manzana"><ellipse class="cls-1" cx="172.02" cy="48.27" rx="18.2" ry="21.49"/><ellipse class="cls-1" cx="183.28" cy="48.27" rx="18.2" ry="21.49"/><path class="cls-2" d="M177.57,29.75S176,23.25,179.89,20v1.45s-2.61,1.24-1.14,8.28C178.73,29.75,178.5,30.62,177.57,29.75Z"/><path class="cls-3" d="M172.25,19.52h0a5.6,5.6,0,0,1,5.59,5.6h0a5.6,5.6,0,0,1-5.59-5.6Z"/><path class="cls-4" d="M172.05,26.8s-21.48,16.88,0,42.93c0,0-17,.39-18.21-21.42a22.41,22.41,0,0,1,2.65-11.2,18.13,18.13,0,0,1,9.4-9C170.57,26.2,172.05,26.8,172.05,26.8Z"/></g></g><g id="Layer_2-6" data-name="Layer 2"><g id="Manzana-6" data-name="Manzana"><ellipse class="cls-1" cx="266.13" cy="44.59" rx="18.2" ry="21.49"/><ellipse class="cls-1" cx="277.39" cy="44.59" rx="18.2" ry="21.49"/><path class="cls-2" d="M271.68,26.07s-1.55-6.5,2.32-9.75v1.45s-2.61,1.24-1.14,8.29C272.84,26.07,272.61,26.94,271.68,26.07Z"/><path class="cls-3" d="M266.36,15.84h0a5.6,5.6,0,0,1,5.59,5.6h0a5.6,5.6,0,0,1-5.59-5.6Z"/><path class="cls-4" d="M266.16,23.12s-21.48,16.88,0,42.93c0,0-17,.39-18.21-21.42a22.52,22.52,0,0,1,2.65-11.2,18.11,18.11,0,0,1,9.41-9C264.68,22.52,266.16,23.12,266.16,23.12Z"/></g></g><g id="Layer_2-7" data-name="Layer 2"><g id="Manzana-7" data-name="Manzana"><ellipse class="cls-1" cx="219.11" cy="28.75" rx="18.2" ry="21.49"/><ellipse class="cls-1" cx="230.37" cy="28.75" rx="18.2" ry="21.49"/><path class="cls-2" d="M224.67,10.23S223.11,3.73,227,.48V1.93s-2.61,1.24-1.13,8.28C225.82,10.23,225.6,11.1,224.67,10.23Z"/><path class="cls-3" d="M219.34,0h0a5.6,5.6,0,0,1,5.6,5.6h0a5.6,5.6,0,0,1-5.6-5.6Z"/><path class="cls-4" d="M219.15,7.28s-21.49,16.88,0,42.93c0,0-17,.39-18.22-21.42a22.52,22.52,0,0,1,2.65-11.2,18.15,18.15,0,0,1,9.41-9C217.66,6.68,219.15,7.28,219.15,7.28Z"/></g></g><g id="Layer_2-8" data-name="Layer 2"><g id="Manzana-8" data-name="Manzana"><ellipse class="cls-1" cx="259.44" cy="64.11" rx="18.2" ry="21.49"/><ellipse class="cls-1" cx="270.69" cy="64.11" rx="18.2" ry="21.49"/><path class="cls-2" d="M265,45.59s-1.56-6.5,2.32-9.75v1.45s-2.61,1.25-1.14,8.29C266.15,45.59,265.92,46.46,265,45.59Z"/><path class="cls-3" d="M259.67,35.36h0a5.6,5.6,0,0,1,5.59,5.6h0a5.6,5.6,0,0,1-5.59-5.6Z"/><path class="cls-4" d="M259.47,42.64s-21.48,16.88,0,42.93c0,0-17,.39-18.21-21.42A22.41,22.41,0,0,1,243.91,53a18.09,18.09,0,0,1,9.4-9.05C258,42,259.47,42.64,259.47,42.64Z"/></g></g><g id="Layer_2-9" data-name="Layer 2"><g id="Manzana-9" data-name="Manzana"><ellipse class="cls-1" cx="226.29" cy="61.66" rx="18.2" ry="21.49"/><ellipse class="cls-1" cx="237.55" cy="61.66" rx="18.2" ry="21.49"/><path class="cls-2" d="M231.84,43.14s-1.56-6.5,2.32-9.75v1.45s-2.61,1.25-1.14,8.29C233,43.14,232.77,44,231.84,43.14Z"/><path class="cls-3" d="M226.52,32.91h0a5.6,5.6,0,0,1,5.59,5.61h0a5.6,5.6,0,0,1-5.59-5.61Z"/><path class="cls-4" d="M226.32,40.19s-21.48,16.88,0,42.93c0,0-17,.39-18.21-21.41a22.41,22.41,0,0,1,2.65-11.2,18.11,18.11,0,0,1,9.4-9.06C224.84,39.6,226.32,40.19,226.32,40.19Z"/></g></g><g id="Layer_2-10" data-name="Layer 2"><g id="Manzana-10" data-name="Manzana"><ellipse class="cls-1" cx="251.42" cy="126.2" rx="18.2" ry="21.49"/><ellipse class="cls-1" cx="262.68" cy="126.2" rx="18.2" ry="21.49"/><path class="cls-2" d="M257,107.68s-1.56-6.5,2.31-9.75v1.45s-2.61,1.24-1.13,8.28C258.13,107.68,257.91,108.55,257,107.68Z"/><path class="cls-3" d="M251.65,97.45h0a5.6,5.6,0,0,1,5.6,5.6h0a5.6,5.6,0,0,1-5.6-5.6Z"/><path class="cls-4" d="M251.46,104.73s-21.49,16.88,0,42.93c0,0-17,.39-18.22-21.42a22.52,22.52,0,0,1,2.65-11.2A18.15,18.15,0,0,1,245.3,106C250,104.13,251.46,104.73,251.46,104.73Z"/></g></g><g id="Layer_2-11" data-name="Layer 2"><g id="Manzana-11" data-name="Manzana"><ellipse class="cls-1" cx="210.11" cy="129.78" rx="18.2" ry="21.49"/><ellipse class="cls-1" cx="221.37" cy="129.78" rx="18.2" ry="21.49"/><path class="cls-2" d="M215.66,111.25s-1.55-6.5,2.32-9.75V103s-2.61,1.24-1.14,8.28C216.82,111.25,216.6,112.13,215.66,111.25Z"/><path class="cls-3" d="M210.34,101h0a5.6,5.6,0,0,1,5.59,5.6h0a5.6,5.6,0,0,1-5.59-5.6Z"/><path class="cls-4" d="M210.14,108.31s-21.48,16.87,0,42.93c0,0-16.95.39-18.21-21.42a22.52,22.52,0,0,1,2.65-11.2,18.2,18.2,0,0,1,9.41-9.06C208.66,107.71,210.14,108.31,210.14,108.31Z"/></g></g><g id="Layer_2-12" data-name="Layer 2"><g id="Manzana-12" data-name="Manzana"><ellipse class="cls-1" cx="172.95" cy="123.55" rx="18.2" ry="21.49"/><ellipse class="cls-1" cx="184.2" cy="123.55" rx="18.2" ry="21.49"/><path class="cls-2" d="M178.5,105s-1.56-6.5,2.32-9.75v1.45S178.21,98,179.68,105C179.66,105,179.43,105.9,178.5,105Z"/><path class="cls-3" d="M173.17,94.8h0a5.6,5.6,0,0,1,5.6,5.6h0a5.6,5.6,0,0,1-5.6-5.6Z"/><path class="cls-4" d="M173,102.08S151.5,119,173,145c0,0-17,.39-18.21-21.42a22.31,22.31,0,0,1,2.65-11.2,18.09,18.09,0,0,1,9.4-9C171.5,101.48,173,102.08,173,102.08Z"/></g></g><g id="Layer_2-13" data-name="Layer 2"><g id="Manzana-13" data-name="Manzana"><ellipse class="cls-1" cx="147.16" cy="93.83" rx="18.2" ry="21.49"/><ellipse class="cls-1" cx="158.42" cy="93.83" rx="18.2" ry="21.49"/><path class="cls-2" d="M152.71,75.31s-1.55-6.5,2.32-9.75V67s-2.61,1.25-1.14,8.29C153.87,75.31,153.64,76.19,152.71,75.31Z"/><path class="cls-3" d="M147.39,65.08h0a5.6,5.6,0,0,1,5.59,5.6h0a5.59,5.59,0,0,1-5.59-5.6Z"/><path class="cls-4" d="M147.19,72.36s-21.48,16.88,0,42.93c0,0-17,.39-18.21-21.42a22.52,22.52,0,0,1,2.65-11.2,18.11,18.11,0,0,1,9.41-9C145.71,71.77,147.19,72.36,147.19,72.36Z"/></g></g><g id="Layer_2-14" data-name="Layer 2"><g id="Manzana-14" data-name="Manzana"><ellipse class="cls-1" cx="123.33" cy="135.32" rx="18.2" ry="21.49"/><ellipse class="cls-1" cx="134.59" cy="135.32" rx="18.2" ry="21.49"/><path class="cls-2" d="M128.88,116.8s-1.56-6.5,2.32-9.75v1.45s-2.61,1.25-1.14,8.29C130,116.8,129.81,117.68,128.88,116.8Z"/><path class="cls-3" d="M123.56,106.57h0a5.6,5.6,0,0,1,5.59,5.6h0a5.59,5.59,0,0,1-5.59-5.6Z"/><path class="cls-4" d="M123.36,113.85s-21.48,16.88,0,42.93c0,0-17,.39-18.21-21.41a22.41,22.41,0,0,1,2.65-11.2,18.11,18.11,0,0,1,9.4-9.06C121.88,113.26,123.36,113.85,123.36,113.85Z"/></g></g><g id="Layer_2-15" data-name="Layer 2"><g id="Manzana-15" data-name="Manzana"><ellipse class="cls-1" cx="108.08" cy="96.34" rx="18.2" ry="21.49"/><ellipse class="cls-1" cx="119.34" cy="96.34" rx="18.2" ry="21.49"/><path class="cls-2" d="M113.64,77.81s-1.56-6.5,2.31-9.75v1.46s-2.61,1.24-1.13,8.28C114.79,77.81,114.57,78.69,113.64,77.81Z"/><path class="cls-3" d="M108.31,67.59h0a5.6,5.6,0,0,1,5.6,5.6h0a5.6,5.6,0,0,1-5.6-5.6Z"/><path class="cls-4" d="M108.12,74.87s-21.49,16.87,0,42.93c0,0-17,.39-18.22-21.42a22.52,22.52,0,0,1,2.65-11.2A18.2,18.2,0,0,1,102,76.12C106.63,74.27,108.12,74.87,108.12,74.87Z"/></g></g><g id="Layer_2-16" data-name="Layer 2"><g id="Manzana-16" data-name="Manzana"><ellipse class="cls-1" cx="50.19" cy="129.83" rx="18.2" ry="21.49"/><ellipse class="cls-1" cx="61.45" cy="129.83" rx="18.2" ry="21.49"/><path class="cls-2" d="M55.74,111.3s-1.56-6.49,2.32-9.74V103s-2.61,1.24-1.14,8.28C56.9,111.3,56.67,112.18,55.74,111.3Z"/><path class="cls-3" d="M50.42,101.08h0a5.6,5.6,0,0,1,5.59,5.6h0a5.6,5.6,0,0,1-5.59-5.6Z"/><path class="cls-4" d="M50.22,108.36s-21.48,16.87,0,42.93c0,0-17,.39-18.21-21.42a22.41,22.41,0,0,1,2.65-11.2,18.17,18.17,0,0,1,9.41-9.06C48.74,107.76,50.22,108.36,50.22,108.36Z"/></g></g><g id="Layer_2-17" data-name="Layer 2"><g id="Manzana-17" data-name="Manzana"><ellipse class="cls-1" cx="29.86" cy="127.18" rx="18.2" ry="21.49"/><ellipse class="cls-1" cx="41.11" cy="127.18" rx="18.2" ry="21.49"/><path class="cls-2" d="M35.41,108.66s-1.56-6.5,2.31-9.75v1.45s-2.6,1.24-1.13,8.28C36.57,108.66,36.34,109.53,35.41,108.66Z"/><path class="cls-3" d="M30.08,98.43h0a5.6,5.6,0,0,1,5.6,5.6h0a5.6,5.6,0,0,1-5.6-5.6Z"/><path class="cls-4" d="M29.89,105.71s-21.48,16.88,0,42.93c0,0-17,.39-18.22-21.42A22.42,22.42,0,0,1,14.33,116a18.09,18.09,0,0,1,9.4-9C28.41,105.11,29.89,105.71,29.89,105.71Z"/></g></g><g id="Layer_2-18" data-name="Layer 2"><g id="Manzana-18" data-name="Manzana"><ellipse class="cls-1" cx="87.66" cy="127.66" rx="18.2" ry="21.49"/><ellipse class="cls-1" cx="98.92" cy="127.66" rx="18.2" ry="21.49"/><path class="cls-2" d="M93.22,109.13s-1.56-6.5,2.31-9.75v1.45s-2.61,1.25-1.13,8.29C94.37,109.13,94.15,110,93.22,109.13Z"/><path class="cls-3" d="M87.89,98.91h0a5.6,5.6,0,0,1,5.6,5.6h0a5.6,5.6,0,0,1-5.6-5.6Z"/><path class="cls-4" d="M87.7,106.19s-21.49,16.87,0,42.92c0,0-17,.39-18.22-21.41a22.52,22.52,0,0,1,2.65-11.2,18.2,18.2,0,0,1,9.41-9.06C86.21,105.59,87.7,106.19,87.7,106.19Z"/></g></g><g id="Layer_2-19" data-name="Layer 2"><g id="Manzana-19" data-name="Manzana"><ellipse class="cls-1" cx="154.05" cy="130.81" rx="18.2" ry="21.49"/><ellipse class="cls-1" cx="165.3" cy="130.81" rx="18.2" ry="21.49"/><path class="cls-2" d="M159.6,112.28s-1.56-6.5,2.31-9.74V104s-2.6,1.24-1.13,8.28C160.76,112.28,160.53,113.16,159.6,112.28Z"/><path class="cls-3" d="M154.27,102.06h0a5.6,5.6,0,0,1,5.6,5.6h0a5.6,5.6,0,0,1-5.6-5.6Z"/><path class="cls-4" d="M154.08,109.34s-21.48,16.87,0,42.93c0,0-17,.39-18.22-21.42a22.42,22.42,0,0,1,2.66-11.2,18.15,18.15,0,0,1,9.4-9.06C152.6,108.74,154.08,109.34,154.08,109.34Z"/></g></g><g id="Layer_2-20" data-name="Layer 2"><g id="Manzana-20" data-name="Manzana"><ellipse class="cls-1" cx="201.48" cy="102.54" rx="18.2" ry="21.49"/><ellipse class="cls-1" cx="212.74" cy="102.54" rx="18.2" ry="21.49"/><path class="cls-2" d="M207,84s-1.56-6.5,2.32-9.75v1.45S206.74,77,208.21,84C208.19,84,208,84.89,207,84Z"/><path class="cls-3" d="M201.71,73.79h0a5.59,5.59,0,0,1,5.59,5.6h0a5.6,5.6,0,0,1-5.59-5.6Z"/><path class="cls-4" d="M201.51,81.07S180,97.94,201.51,124c0,0-17,.39-18.21-21.41A22.41,22.41,0,0,1,186,91.38a18.18,18.18,0,0,1,9.4-9.06C200,80.47,201.51,81.07,201.51,81.07Z"/></g></g><g id="Layer_2-21" data-name="Layer 2"><g id="Manzana-21" data-name="Manzana"><ellipse class="cls-1" cx="259.05" cy="102.06" rx="18.2" ry="21.49"/><ellipse class="cls-1" cx="270.31" cy="102.06" rx="18.2" ry="21.49"/><path class="cls-2" d="M264.6,83.53s-1.55-6.49,2.32-9.74v1.45s-2.61,1.24-1.14,8.28C265.76,83.53,265.54,84.41,264.6,83.53Z"/><path class="cls-3" d="M259.28,73.31h0a5.6,5.6,0,0,1,5.6,5.6h0a5.6,5.6,0,0,1-5.6-5.6Z"/><path class="cls-4" d="M259.08,80.59s-21.48,16.88,0,42.93c0,0-16.95.39-18.21-21.42a22.52,22.52,0,0,1,2.65-11.2,18.15,18.15,0,0,1,9.41-9.05C257.6,80,259.08,80.59,259.08,80.59Z"/></g></g><g id="Layer_2-22" data-name="Layer 2"><g id="Manzana-22" data-name="Manzana"><ellipse class="cls-1" cx="198.88" cy="71.73" rx="18.2" ry="21.49"/><ellipse class="cls-1" cx="210.13" cy="71.73" rx="18.2" ry="21.49"/><path class="cls-2" d="M204.43,53.2s-1.56-6.5,2.32-9.75V44.9s-2.61,1.25-1.14,8.29C205.59,53.2,205.36,54.08,204.43,53.2Z"/><path class="cls-3" d="M199.1,43h0a5.6,5.6,0,0,1,5.6,5.6h0a5.6,5.6,0,0,1-5.6-5.6Z"/><path class="cls-4" d="M198.91,50.26s-21.48,16.87,0,42.92c0,0-17,.39-18.22-21.41a22.42,22.42,0,0,1,2.66-11.2,18.15,18.15,0,0,1,9.4-9.06C197.43,49.66,198.91,50.26,198.91,50.26Z"/></g></g><g id="Layer_2-23" data-name="Layer 2"><g id="Manzana-23" data-name="Manzana"><ellipse class="cls-1" cx="231.25" cy="80.52" rx="18.2" ry="21.49"/><ellipse class="cls-1" cx="242.51" cy="80.52" rx="18.2" ry="21.49"/><path class="cls-2" d="M236.8,62s-1.55-6.5,2.32-9.75v1.45S236.51,54.94,238,62C238,62,237.74,62.87,236.8,62Z"/><path class="cls-3" d="M231.48,51.77h0a5.6,5.6,0,0,1,5.6,5.6h0a5.6,5.6,0,0,1-5.6-5.6Z"/><path class="cls-4" d="M231.29,59.05s-21.49,16.87,0,42.92c0,0-17,.39-18.22-21.41a22.52,22.52,0,0,1,2.65-11.2,18.2,18.2,0,0,1,9.41-9.06C229.8,58.45,231.29,59.05,231.29,59.05Z"/></g></g><g id="Layer_2-24" data-name="Layer 2"><g id="Manzana-24" data-name="Manzana"><ellipse class="cls-1" cx="144.54" cy="71.25" rx="18.2" ry="21.49"/><ellipse class="cls-1" cx="155.79" cy="71.25" rx="18.2" ry="21.49"/><path class="cls-2" d="M150.09,52.73s-1.56-6.5,2.31-9.75v1.45s-2.6,1.24-1.13,8.28C151.25,52.73,151,53.6,150.09,52.73Z"/><path class="cls-3" d="M144.76,42.5h0a5.6,5.6,0,0,1,5.6,5.6h0a5.6,5.6,0,0,1-5.6-5.6Z"/><path class="cls-4" d="M144.57,49.78s-21.49,16.88,0,42.93c0,0-17,.39-18.22-21.42A22.52,22.52,0,0,1,129,60.09,18.15,18.15,0,0,1,138.41,51C143.09,49.18,144.57,49.78,144.57,49.78Z"/></g></g><g id="Layer_2-25" data-name="Layer 2"><g id="Manzana-25" data-name="Manzana"><ellipse class="cls-1" cx="108.08" cy="61.66" rx="18.2" ry="21.49"/><ellipse class="cls-1" cx="119.34" cy="61.66" rx="18.2" ry="21.49"/><path class="cls-2" d="M113.64,43.14s-1.56-6.5,2.31-9.75v1.45s-2.61,1.25-1.13,8.29C114.79,43.14,114.57,44,113.64,43.14Z"/><path class="cls-3" d="M108.31,32.91h0a5.61,5.61,0,0,1,5.6,5.61h0a5.61,5.61,0,0,1-5.6-5.61Z"/><path class="cls-4" d="M108.12,40.19s-21.49,16.88,0,42.93c0,0-17,.39-18.22-21.41a22.52,22.52,0,0,1,2.65-11.2A18.17,18.17,0,0,1,102,41.45C106.63,39.6,108.12,40.19,108.12,40.19Z"/></g></g><g id="Layer_2-26" data-name="Layer 2"><g id="Manzana-26" data-name="Manzana"><ellipse class="cls-1" cx="94.74" cy="65.24" rx="18.2" ry="21.49"/><ellipse class="cls-1" cx="106" cy="65.24" rx="18.2" ry="21.49"/><path class="cls-2" d="M100.29,46.72s-1.55-6.5,2.32-9.75v1.45s-2.61,1.25-1.14,8.29C101.45,46.72,101.23,47.6,100.29,46.72Z"/><path class="cls-3" d="M95,36.49h0a5.6,5.6,0,0,1,5.59,5.6h0A5.59,5.59,0,0,1,95,36.49Z"/><path class="cls-4" d="M94.77,43.77s-21.48,16.88,0,42.93c0,0-17,.39-18.21-21.41a22.53,22.53,0,0,1,2.65-11.21,18.18,18.18,0,0,1,9.41-9C93.29,43.18,94.77,43.77,94.77,43.77Z"/></g></g><g id="Layer_2-27" data-name="Layer 2"><g id="Manzana-27" data-name="Manzana"><ellipse class="cls-1" cx="32.1" cy="78.96" rx="18.2" ry="21.49"/><ellipse class="cls-1" cx="43.35" cy="78.96" rx="18.2" ry="21.49"/><path class="cls-2" d="M37.65,60.43s-1.56-6.5,2.31-9.74v1.45s-2.6,1.24-1.13,8.28C38.81,60.43,38.58,61.31,37.65,60.43Z"/><path class="cls-3" d="M32.32,50.21h0a5.6,5.6,0,0,1,5.6,5.6h0a5.6,5.6,0,0,1-5.6-5.6Z"/><path class="cls-4" d="M32.13,57.49s-21.48,16.87,0,42.93c0,0-17,.39-18.22-21.42a22.42,22.42,0,0,1,2.66-11.2A18.15,18.15,0,0,1,26,58.74C30.65,56.89,32.13,57.49,32.13,57.49Z"/></g></g><g id="Layer_2-28" data-name="Layer 2"><g id="Manzana-28" data-name="Manzana"><ellipse class="cls-1" cx="66.43" cy="68.87" rx="18.2" ry="21.49"/><ellipse class="cls-1" cx="77.69" cy="68.87" rx="18.2" ry="21.49"/><path class="cls-2" d="M72,50.35s-1.56-6.5,2.31-9.75v1.45s-2.61,1.25-1.13,8.29C73.14,50.35,72.92,51.23,72,50.35Z"/><path class="cls-3" d="M66.66,40.12h0a5.6,5.6,0,0,1,5.6,5.6h0a5.6,5.6,0,0,1-5.6-5.6Z"/><path class="cls-4" d="M66.47,47.4S45,64.28,66.47,90.33c0,0-17,.39-18.22-21.42a22.52,22.52,0,0,1,2.65-11.2,18.15,18.15,0,0,1,9.41-9.05C65,46.81,66.47,47.4,66.47,47.4Z"/></g></g><g id="Layer_2-29" data-name="Layer 2"><g id="Manzana-29" data-name="Manzana"><ellipse class="cls-1" cx="231.69" cy="44.64" rx="18.2" ry="21.49"/><ellipse class="cls-1" cx="242.95" cy="44.64" rx="18.2" ry="21.49"/><path class="cls-2" d="M237.24,26.12s-1.56-6.5,2.32-9.75v1.45s-2.61,1.25-1.14,8.29C238.4,26.12,238.17,27,237.24,26.12Z"/><path class="cls-3" d="M231.92,15.89h0a5.6,5.6,0,0,1,5.59,5.6h0a5.6,5.6,0,0,1-5.59-5.6Z"/><path class="cls-4" d="M231.72,23.17s-21.48,16.88,0,42.93c0,0-17,.39-18.21-21.42a22.41,22.41,0,0,1,2.65-11.2,18.13,18.13,0,0,1,9.4-9C230.24,22.57,231.72,23.17,231.72,23.17Z"/></g></g><g id="Layer_2-30" data-name="Layer 2"><g id="Manzana-30" data-name="Manzana"><ellipse class="cls-1" cx="44.56" cy="44.64" rx="18.2" ry="21.49"/><ellipse class="cls-1" cx="55.82" cy="44.64" rx="18.2" ry="21.49"/><path class="cls-2" d="M50.12,26.12s-1.56-6.5,2.31-9.75v1.45s-2.61,1.25-1.14,8.29C51.27,26.12,51.05,27,50.12,26.12Z"/><path class="cls-3" d="M44.79,15.89h0a5.6,5.6,0,0,1,5.6,5.6h0a5.6,5.6,0,0,1-5.6-5.6Z"/><path class="cls-4" d="M44.6,23.17s-21.49,16.88,0,42.93c0,0-17,.39-18.22-21.42A22.52,22.52,0,0,1,29,33.48a18.15,18.15,0,0,1,9.41-9C43.11,22.57,44.6,23.17,44.6,23.17Z"/></g></g><g id="Layer_2-31" data-name="Layer 2"><g id="Manzana-31" data-name="Manzana"><ellipse class="cls-1" cx="23.83" cy="45.12" rx="18.2" ry="21.49"/><ellipse class="cls-1" cx="35.09" cy="45.12" rx="18.2" ry="21.49"/><path class="cls-2" d="M29.38,26.59s-1.55-6.5,2.32-9.75V18.3s-2.61,1.24-1.14,8.28C30.54,26.59,30.31,27.47,29.38,26.59Z"/><path class="cls-3" d="M24.06,16.37h0A5.6,5.6,0,0,1,29.65,22h0a5.6,5.6,0,0,1-5.59-5.6Z"/><path class="cls-4" d="M23.86,23.65s-21.48,16.87,0,42.93c0,0-17,.39-18.21-21.42A22.52,22.52,0,0,1,8.3,34a18.2,18.2,0,0,1,9.41-9.06C22.38,23.05,23.86,23.65,23.86,23.65Z"/></g></g><g id="Layer_2-32" data-name="Layer 2"><g id="Manzana-32" data-name="Manzana"><ellipse class="cls-1" cx="233.93" cy="108.34" rx="18.2" ry="21.49"/><ellipse class="cls-1" cx="245.19" cy="108.34" rx="18.2" ry="21.49"/><path class="cls-2" d="M239.48,89.81s-1.56-6.5,2.32-9.75v1.46s-2.61,1.24-1.14,8.28C240.64,89.81,240.41,90.69,239.48,89.81Z"/><path class="cls-3" d="M234.16,79.59h0a5.59,5.59,0,0,1,5.59,5.6h0a5.6,5.6,0,0,1-5.59-5.6Z"/><path class="cls-4" d="M234,86.87s-21.48,16.87,0,42.93c0,0-17,.39-18.21-21.42a22.41,22.41,0,0,1,2.65-11.2,18.18,18.18,0,0,1,9.4-9.06C232.48,86.27,234,86.87,234,86.87Z"/></g></g><g id="Layer_2-33" data-name="Layer 2"><g id="Manzana-33" data-name="Manzana"><ellipse class="cls-1" cx="172.95" cy="82.12" rx="18.2" ry="21.49"/><ellipse class="cls-1" cx="184.2" cy="82.12" rx="18.2" ry="21.49"/><path class="cls-2" d="M178.5,63.6s-1.56-6.5,2.32-9.75V55.3s-2.61,1.25-1.14,8.29C179.66,63.6,179.43,64.48,178.5,63.6Z"/><path class="cls-3" d="M173.17,53.38h0a5.6,5.6,0,0,1,5.6,5.6h0a5.6,5.6,0,0,1-5.6-5.6Z"/><path class="cls-4" d="M173,60.65s-21.48,16.88,0,42.93c0,0-17,.39-18.21-21.41A22.31,22.31,0,0,1,157.42,71a18.15,18.15,0,0,1,9.4-9.06C171.5,60.06,173,60.65,173,60.65Z"/></g></g><g id="Layer_2-34" data-name="Layer 2"><g id="Manzana-34" data-name="Manzana"><ellipse class="cls-1" cx="54.67" cy="111.23" rx="18.2" ry="21.49"/><ellipse class="cls-1" cx="65.93" cy="111.23" rx="18.2" ry="21.49"/><path class="cls-2" d="M60.22,92.71s-1.55-6.5,2.32-9.75v1.45s-2.61,1.25-1.14,8.29C61.38,92.71,61.15,93.59,60.22,92.71Z"/><path class="cls-3" d="M54.9,82.48h0a5.6,5.6,0,0,1,5.59,5.6h0a5.59,5.59,0,0,1-5.59-5.6Z"/><path class="cls-4" d="M54.7,89.76s-21.48,16.88,0,42.93c0,0-17,.39-18.21-21.41a22.52,22.52,0,0,1,2.65-11.2A18.13,18.13,0,0,1,48.55,91C53.22,89.17,54.7,89.76,54.7,89.76Z"/></g></g><g id="Layer_2-35" data-name="Layer 2"><g id="Manzana-35" data-name="Manzana"><ellipse class="cls-1" cx="90.27" cy="96.37" rx="18.2" ry="21.49"/><ellipse class="cls-1" cx="101.52" cy="96.37" rx="18.2" ry="21.49"/><path class="cls-2" d="M95.82,77.85s-1.56-6.5,2.31-9.75v1.45s-2.6,1.24-1.13,8.28C97,77.85,96.75,78.72,95.82,77.85Z"/><path class="cls-3" d="M90.49,67.62h0a5.6,5.6,0,0,1,5.6,5.6h0a5.6,5.6,0,0,1-5.6-5.6Z"/><path class="cls-4" d="M90.3,74.9s-21.48,16.88,0,42.93c0,0-17,.39-18.22-21.42a22.42,22.42,0,0,1,2.66-11.2,18.09,18.09,0,0,1,9.4-9C88.82,74.3,90.3,74.9,90.3,74.9Z"/></g></g><g id="Layer_2-36" data-name="Layer 2"><g id="Manzana-36" data-name="Manzana"><ellipse class="cls-1" cx="18.2" cy="104.71" rx="18.2" ry="21.49"/><ellipse class="cls-1" cx="29.46" cy="104.71" rx="18.2" ry="21.49"/><path class="cls-2" d="M23.76,86.18s-1.56-6.5,2.31-9.75v1.46s-2.61,1.24-1.13,8.28C24.91,86.18,24.69,87.06,23.76,86.18Z"/><path class="cls-3" d="M18.43,76h0a5.6,5.6,0,0,1,5.6,5.6h0a5.6,5.6,0,0,1-5.6-5.6Z"/><path class="cls-4" d="M18.24,83.24s-21.49,16.87,0,42.93c0,0-17,.39-18.22-21.42a22.52,22.52,0,0,1,2.65-11.2,18.2,18.2,0,0,1,9.41-9.06C16.75,82.64,18.24,83.24,18.24,83.24Z"/></g></g><rect class="cls-5" x="0.96" y="49.31" width="18" height="111.84"/><path class="cls-6" d="M18,50.25v110H1.9v-110H18m1.87-1.88H0V162.09H19.9V48.37Z"/><rect class="cls-5" x="281.06" y="49.31" width="18" height="111.84"/><path class="cls-6" d="M298.13,50.25v110H282v-110h16.13M300,48.37H280.13V162.09H300V48.37Z"/><rect class="cls-7" x="0.96" y="49.31" width="298.1" height="19.52"/><path class="cls-6" d="M298.13,50.25V67.89H1.9V50.25H298.13M300,48.37H0V69.76H300V48.37Z"/><rect class="cls-7" x="0.96" y="80.09" width="298.1" height="19.52"/><path class="cls-6" d="M298.13,81V98.66H1.9V81H298.13M300,79.15H0v21.39H300V79.15Z"/><rect class="cls-7" x="0.96" y="110.86" width="298.1" height="19.52"/><path class="cls-6" d="M298.13,111.8v17.64H1.9V111.8H298.13m1.87-1.88H0v21.39H300V109.92Z"/><rect class="cls-7" x="0.96" y="141.63" width="298.1" height="19.52"/><path class="cls-6" d="M298.13,142.57v17.64H1.9V142.57H298.13M300,140.7H0v21.39H300V140.7Z"/><circle class="cls-8" cx="9.96" cy="59.07" r="4.27"/><path class="cls-6" d="M10,55.18a3.89,3.89,0,1,1-3.89,3.89A3.89,3.89,0,0,1,10,55.18m0-.76a4.65,4.65,0,1,0,4.64,4.65A4.65,4.65,0,0,0,10,54.42Z"/><circle class="cls-8" cx="9.96" cy="89.84" r="4.27"/><path class="cls-6" d="M10,86a3.9,3.9,0,1,1-3.89,3.89A3.89,3.89,0,0,1,10,86m0-.75a4.65,4.65,0,1,0,4.64,4.64A4.64,4.64,0,0,0,10,85.2Z"/><circle class="cls-8" cx="9.96" cy="120.65" r="4.27"/><path class="cls-6" d="M10,116.76a3.89,3.89,0,1,1-3.89,3.89A3.89,3.89,0,0,1,10,116.76m0-.76a4.65,4.65,0,1,0,4.64,4.65A4.65,4.65,0,0,0,10,116Z"/><circle class="cls-8" cx="9.96" cy="151.39" r="4.27"/><path class="cls-6" d="M10,147.5a3.9,3.9,0,1,1-3.89,3.89A3.89,3.89,0,0,1,10,147.5m0-.75a4.65,4.65,0,1,0,4.64,4.64A4.64,4.64,0,0,0,10,146.75Z"/><circle class="cls-8" cx="290.06" cy="59.07" r="4.27"/><path class="cls-6" d="M290.06,55.18a3.89,3.89,0,1,1-3.89,3.89,3.89,3.89,0,0,1,3.89-3.89m0-.76a4.65,4.65,0,1,0,4.64,4.65,4.65,4.65,0,0,0-4.64-4.65Z"/><circle class="cls-8" cx="290.06" cy="89.84" r="4.27"/><path class="cls-6" d="M290.06,86a3.9,3.9,0,1,1-3.89,3.89A3.89,3.89,0,0,1,290.06,86m0-.75a4.65,4.65,0,1,0,4.64,4.64,4.64,4.64,0,0,0-4.64-4.64Z"/><circle class="cls-8" cx="290.06" cy="120.65" r="4.27"/><path class="cls-6" d="M290.06,116.76a3.89,3.89,0,1,1-3.89,3.89,3.89,3.89,0,0,1,3.89-3.89m0-.76a4.65,4.65,0,1,0,4.64,4.65,4.65,4.65,0,0,0-4.64-4.65Z"/><circle class="cls-8" cx="290.06" cy="151.39" r="4.27"/><path class="cls-6" d="M290.06,147.5a3.9,3.9,0,1,1-3.89,3.89,3.89,3.89,0,0,1,3.89-3.89m0-.75a4.65,4.65,0,1,0,4.64,4.64,4.64,4.64,0,0,0-4.64-4.64Z"/></g></g></svg>