<svg xmlns="http://www.w3.org/2000/svg" viewBox="0 0 300 113.65"><defs><style>.cls-1{fill:#ff2020;}.cls-2{fill:#ca7000;}.cls-3{fill:#00c61d;}.cls-4{fill:#a90303;opacity:0.3;isolation:isolate;}.cls-5{fill:#704438;}.cls-6{fill:#603021;}.cls-7{fill:#8c5e4b;}.cls-8{fill:#b7b6b6;}</style></defs><title>caja mitad manzanas</title><g id="Capa_2" data-name="Capa 2"><g id="Layer_1" data-name="Layer 1"><g id="Layer_2" data-name="Layer 2"><g id="Manzana"><ellipse class="cls-1" cx="251.42" cy="77.78" rx="18.2" ry="21.48"/><ellipse class="cls-1" cx="262.68" cy="77.78" rx="18.2" ry="21.48"/><path class="cls-2" d="M257,59.27s-1.56-6.5,2.31-9.74V51s-2.61,1.24-1.13,8.28C258.13,59.27,257.91,60.15,257,59.27Z"/><path class="cls-3" d="M251.65,49.05h0a5.6,5.6,0,0,1,5.6,5.6h0a5.6,5.6,0,0,1-5.6-5.6Z"/><path class="cls-4" d="M251.46,56.32s-21.49,16.87,0,42.91c0,0-17,.39-18.22-21.4a22.52,22.52,0,0,1,2.65-11.2,18.18,18.18,0,0,1,9.41-9C250,55.73,251.46,56.32,251.46,56.32Z"/></g></g><g id="Layer_2-2" data-name="Layer 2"><g id="Manzana-2" data-name="Manzana"><ellipse class="cls-1" cx="210.11" cy="81.36" rx="18.2" ry="21.48"/><ellipse class="cls-1" cx="221.37" cy="81.36" rx="18.2" ry="21.48"/><path class="cls-2" d="M215.66,62.85s-1.55-6.5,2.32-9.75v1.45s-2.61,1.25-1.14,8.28C216.82,62.85,216.59,63.72,215.66,62.85Z"/><path class="cls-3" d="M210.34,52.63h0a5.59,5.59,0,0,1,5.59,5.59h0a5.59,5.59,0,0,1-5.59-5.59Z"/><path class="cls-4" d="M210.14,59.9s-21.48,16.87,0,42.9c0,0-16.95.39-18.21-21.4a22.46,22.46,0,0,1,2.65-11.19,18.15,18.15,0,0,1,9.41-9C208.66,59.31,210.14,59.9,210.14,59.9Z"/></g></g><g id="Layer_2-3" data-name="Layer 2"><g id="Manzana-3" data-name="Manzana"><ellipse class="cls-1" cx="201.48" cy="54.13" rx="18.2" ry="21.48"/><ellipse class="cls-1" cx="212.74" cy="54.13" rx="18.2" ry="21.48"/><path class="cls-2" d="M207,35.62s-1.56-6.5,2.32-9.75v1.46s-2.61,1.24-1.14,8.28C208.19,35.62,208,36.5,207,35.62Z"/><path class="cls-3" d="M201.71,25.4h0A5.59,5.59,0,0,1,207.3,31h0a5.6,5.6,0,0,1-5.59-5.6Z"/><path class="cls-4" d="M201.51,32.67s-21.48,16.87,0,42.91c0,0-17,.39-18.21-21.41A22.4,22.4,0,0,1,186,43a18.13,18.13,0,0,1,9.4-9C200,32.08,201.51,32.67,201.51,32.67Z"/></g></g><g id="Layer_2-4" data-name="Layer 2"><g id="Manzana-4" data-name="Manzana"><ellipse class="cls-1" cx="210.13" cy="46.7" rx="21.48" ry="18.2" transform="translate(157.5 255.42) rotate(-88.38)"/><ellipse class="cls-1" cx="198.88" cy="46.38" rx="21.48" ry="18.2" transform="translate(146.89 243.87) rotate(-88.38)"/><path class="cls-2" d="M204.06,65.05s1.37,6.53-2.6,9.67l0-1.45s2.64-1.17,1.37-8.25C202.9,65,203.15,64.14,204.06,65.05Z"/><path class="cls-3" d="M209.09,75.41h0a5.6,5.6,0,0,1-5.44-5.75h0a5.6,5.6,0,0,1,5.44,5.75Z"/><path class="cls-4" d="M209.49,68.15s21.95-16.25,1.22-42.89c0,0,17,.09,17.6,21.91a22.5,22.5,0,0,1-3,11.12,18.17,18.17,0,0,1-9.66,8.78C211,68.78,209.49,68.15,209.49,68.15Z"/></g></g><g id="Layer_2-5" data-name="Layer 2"><g id="Manzana-5" data-name="Manzana"><ellipse class="cls-1" cx="233.93" cy="59.93" rx="18.2" ry="21.48"/><ellipse class="cls-1" cx="245.19" cy="59.93" rx="18.2" ry="21.48"/><path class="cls-2" d="M239.48,41.42s-1.56-6.5,2.32-9.75v1.45s-2.61,1.25-1.14,8.29C240.64,41.42,240.41,42.29,239.48,41.42Z"/><path class="cls-3" d="M234.16,31.2h0a5.59,5.59,0,0,1,5.59,5.59h0a5.59,5.59,0,0,1-5.59-5.59Z"/><path class="cls-4" d="M234,38.47s-21.48,16.87,0,42.91c0,0-17,.39-18.21-21.41a22.38,22.38,0,0,1,2.65-11.19,18.13,18.13,0,0,1,9.4-9.05C232.48,37.88,234,38.47,234,38.47Z"/></g></g><g id="Layer_2-6" data-name="Layer 2"><g id="Manzana-6" data-name="Manzana"><ellipse class="cls-1" cx="172.95" cy="75.13" rx="18.2" ry="21.48"/><ellipse class="cls-1" cx="184.2" cy="75.13" rx="18.2" ry="21.48"/><path class="cls-2" d="M178.5,56.62s-1.56-6.49,2.32-9.74v1.45s-2.61,1.24-1.14,8.28C179.66,56.62,179.43,57.5,178.5,56.62Z"/><path class="cls-3" d="M173.17,46.4h0a5.6,5.6,0,0,1,5.6,5.6h0a5.6,5.6,0,0,1-5.6-5.6Z"/><path class="cls-4" d="M173,53.68s-21.48,16.86,0,42.9c0,0-17,.39-18.21-21.4A22.31,22.31,0,0,1,157.42,64a18.13,18.13,0,0,1,9.4-9C171.5,53.08,173,53.68,173,53.68Z"/></g></g><g id="Layer_2-7" data-name="Layer 2"><g id="Manzana-7" data-name="Manzana"><ellipse class="cls-1" cx="147.16" cy="45.43" rx="18.2" ry="21.48"/><ellipse class="cls-1" cx="158.42" cy="45.43" rx="18.2" ry="21.48"/><path class="cls-2" d="M152.71,26.92s-1.55-6.5,2.32-9.74v1.45s-2.61,1.24-1.14,8.28C153.87,26.92,153.64,27.8,152.71,26.92Z"/><path class="cls-3" d="M147.39,16.7h0A5.6,5.6,0,0,1,153,22.3h0a5.6,5.6,0,0,1-5.59-5.6Z"/><path class="cls-4" d="M147.19,24s-21.48,16.86,0,42.9c0,0-17,.39-18.21-21.4a22.52,22.52,0,0,1,2.65-11.2,18.15,18.15,0,0,1,9.41-9C145.71,23.38,147.19,24,147.19,24Z"/></g></g><g id="Layer_2-8" data-name="Layer 2"><g id="Manzana-8" data-name="Manzana"><ellipse class="cls-1" cx="123.33" cy="86.9" rx="18.2" ry="21.48"/><ellipse class="cls-1" cx="134.59" cy="86.9" rx="18.2" ry="21.48"/><path class="cls-2" d="M128.88,68.39s-1.56-6.5,2.32-9.75V60.1s-2.61,1.24-1.14,8.28C130,68.39,129.81,69.26,128.88,68.39Z"/><path class="cls-3" d="M123.56,58.17h0a5.59,5.59,0,0,1,5.59,5.6h0a5.6,5.6,0,0,1-5.59-5.6Z"/><path class="cls-4" d="M123.36,65.44s-21.48,16.87,0,42.91c0,0-17,.39-18.21-21.41a22.4,22.4,0,0,1,2.65-11.19,18.09,18.09,0,0,1,9.4-9C121.88,64.85,123.36,65.44,123.36,65.44Z"/></g></g><g id="Layer_2-9" data-name="Layer 2"><g id="Manzana-9" data-name="Manzana"><ellipse class="cls-1" cx="50.19" cy="81.41" rx="18.2" ry="21.48"/><ellipse class="cls-1" cx="61.45" cy="81.41" rx="18.2" ry="21.48"/><path class="cls-2" d="M55.74,62.9s-1.56-6.5,2.32-9.75V54.6s-2.61,1.25-1.14,8.29C56.9,62.9,56.67,63.77,55.74,62.9Z"/><path class="cls-3" d="M50.42,52.68h0A5.59,5.59,0,0,1,56,58.27h0a5.59,5.59,0,0,1-5.59-5.59Z"/><path class="cls-4" d="M50.22,60s-21.48,16.87,0,42.91c0,0-17,.39-18.21-21.41a22.38,22.38,0,0,1,2.65-11.19,18.11,18.11,0,0,1,9.41-9.05C48.74,59.36,50.22,60,50.22,60Z"/></g></g><g id="Layer_2-10" data-name="Layer 2"><g id="Manzana-10" data-name="Manzana"><ellipse class="cls-1" cx="29.86" cy="78.76" rx="18.2" ry="21.48"/><ellipse class="cls-1" cx="41.11" cy="78.76" rx="18.2" ry="21.48"/><path class="cls-2" d="M35.41,60.25s-1.56-6.5,2.31-9.75V52s-2.6,1.24-1.13,8.28C36.57,60.25,36.34,61.13,35.41,60.25Z"/><path class="cls-3" d="M30.08,50h0a5.6,5.6,0,0,1,5.6,5.6h0a5.6,5.6,0,0,1-5.6-5.6Z"/><path class="cls-4" d="M29.89,57.3s-21.48,16.87,0,42.91c0,0-17,.39-18.22-21.41a22.41,22.41,0,0,1,2.66-11.19,18.09,18.09,0,0,1,9.4-9C28.41,56.71,29.89,57.3,29.89,57.3Z"/></g></g><g id="Layer_2-11" data-name="Layer 2"><g id="Manzana-11" data-name="Manzana"><ellipse class="cls-1" cx="87.66" cy="79.24" rx="18.2" ry="21.48"/><ellipse class="cls-1" cx="98.92" cy="79.24" rx="18.2" ry="21.48"/><path class="cls-2" d="M93.22,60.72S91.66,54.23,95.53,51v1.45s-2.61,1.25-1.13,8.28C94.37,60.72,94.15,61.6,93.22,60.72Z"/><path class="cls-3" d="M87.89,50.5h0a5.6,5.6,0,0,1,5.6,5.6h0a5.6,5.6,0,0,1-5.6-5.6Z"/><path class="cls-4" d="M87.7,57.78s-21.49,16.87,0,42.9c0,0-17,.39-18.22-21.4a22.46,22.46,0,0,1,2.65-11.19A18.15,18.15,0,0,1,81.54,59C86.21,57.18,87.7,57.78,87.7,57.78Z"/></g></g><g id="Layer_2-12" data-name="Layer 2"><g id="Manzana-12" data-name="Manzana"><ellipse class="cls-1" cx="154.05" cy="82.39" rx="18.2" ry="21.48"/><ellipse class="cls-1" cx="165.3" cy="82.39" rx="18.2" ry="21.48"/><path class="cls-2" d="M159.6,63.88s-1.56-6.5,2.31-9.75v1.45s-2.6,1.25-1.13,8.28C160.76,63.88,160.53,64.75,159.6,63.88Z"/><path class="cls-3" d="M154.27,53.66h0a5.6,5.6,0,0,1,5.6,5.59h0a5.6,5.6,0,0,1-5.6-5.59Z"/><path class="cls-4" d="M154.08,60.93s-21.48,16.87,0,42.9c0,0-17,.39-18.22-21.4a22.36,22.36,0,0,1,2.66-11.19,18.09,18.09,0,0,1,9.4-9C152.6,60.33,154.08,60.93,154.08,60.93Z"/></g></g><g id="Layer_2-13" data-name="Layer 2"><g id="Manzana-13" data-name="Manzana"><ellipse class="cls-1" cx="143.74" cy="20.72" rx="21.48" ry="18.21" transform="translate(21.48 99.1) rotate(-40.87)"/><ellipse class="cls-1" cx="151.1" cy="29.24" rx="21.48" ry="18.21" transform="translate(17.7 106) rotate(-40.87)"/><path class="cls-2" d="M161.38,12.82s3.89-5.42,8.88-4.61l-1.09.95s-2.65-1.16-7,4.55C162.13,13.7,161.32,14.1,161.38,12.82Z"/><path class="cls-3" d="M165.63,2.11h0a5.6,5.6,0,0,1-.58,7.9h0a5.6,5.6,0,0,1,.58-7.9Z"/><path class="cls-4" d="M160,6.72s-26.81-5.24-32.46,28c0,0-11.38-12.58,4.28-27.78A22.49,22.49,0,0,1,142,1.68a18.1,18.1,0,0,1,13,1.2C159.48,5.21,160,6.72,160,6.72Z"/></g></g><g id="Layer_2-14" data-name="Layer 2"><g id="Manzana-14" data-name="Manzana"><ellipse class="cls-1" cx="32.1" cy="30.57" rx="18.2" ry="21.48"/><ellipse class="cls-1" cx="43.35" cy="30.57" rx="18.2" ry="21.48"/><path class="cls-2" d="M37.65,12.05S36.09,5.56,40,2.31V3.76S37.36,5,38.83,12C38.81,12.05,38.58,12.93,37.65,12.05Z"/><path class="cls-3" d="M32.32,1.83h0a5.6,5.6,0,0,1,5.6,5.6h0a5.6,5.6,0,0,1-5.6-5.6Z"/><path class="cls-4" d="M32.13,9.11S10.65,26,32.13,52c0,0-17,.39-18.22-21.4a22.36,22.36,0,0,1,2.66-11.19A18.09,18.09,0,0,1,26,10.37C30.65,8.51,32.13,9.11,32.13,9.11Z"/></g></g><g id="Layer_2-15" data-name="Layer 2"><g id="Manzana-15" data-name="Manzana"><ellipse class="cls-1" cx="172.95" cy="33.73" rx="18.2" ry="21.48"/><ellipse class="cls-1" cx="184.2" cy="33.73" rx="18.2" ry="21.48"/><path class="cls-2" d="M178.5,15.22s-1.56-6.5,2.32-9.74V6.93s-2.61,1.24-1.14,8.28C179.66,15.22,179.43,16.1,178.5,15.22Z"/><path class="cls-3" d="M173.17,5h0a5.6,5.6,0,0,1,5.6,5.6h0a5.6,5.6,0,0,1-5.6-5.6Z"/><path class="cls-4" d="M173,12.28s-21.48,16.86,0,42.9c0,0-17,.39-18.21-21.4a22.31,22.31,0,0,1,2.65-11.2,18.13,18.13,0,0,1,9.4-9C171.5,11.68,173,12.28,173,12.28Z"/></g></g><g id="Layer_2-16" data-name="Layer 2"><g id="Manzana-16" data-name="Manzana"><ellipse class="cls-1" cx="54.67" cy="62.82" rx="18.2" ry="21.48"/><ellipse class="cls-1" cx="65.93" cy="62.82" rx="18.2" ry="21.48"/><path class="cls-2" d="M60.22,44.31s-1.55-6.49,2.32-9.74V36s-2.61,1.24-1.14,8.28C61.38,44.31,61.15,45.19,60.22,44.31Z"/><path class="cls-3" d="M54.9,34.09h0a5.6,5.6,0,0,1,5.59,5.6h0a5.6,5.6,0,0,1-5.59-5.6Z"/><path class="cls-4" d="M54.7,41.37s-21.48,16.86,0,42.9c0,0-17,.39-18.21-21.4a22.52,22.52,0,0,1,2.65-11.2,18.15,18.15,0,0,1,9.41-9.05C53.22,40.77,54.7,41.37,54.7,41.37Z"/></g></g><g id="Layer_2-17" data-name="Layer 2"><g id="Manzana-17" data-name="Manzana"><ellipse class="cls-1" cx="90.27" cy="40.47" rx="18.2" ry="21.48"/><ellipse class="cls-1" cx="101.52" cy="40.47" rx="18.2" ry="21.48"/><path class="cls-2" d="M95.82,22s-1.56-6.49,2.31-9.74v1.45s-2.6,1.25-1.13,8.28C97,22,96.75,22.83,95.82,22Z"/><path class="cls-3" d="M90.49,11.73h0a5.6,5.6,0,0,1,5.6,5.6h0a5.6,5.6,0,0,1-5.6-5.6Z"/><path class="cls-4" d="M90.3,19s-21.48,16.87,0,42.9c0,0-17,.39-18.22-21.4a22.36,22.36,0,0,1,2.66-11.19,18.09,18.09,0,0,1,9.4-9C88.82,18.41,90.3,19,90.3,19Z"/></g></g><g id="Layer_2-18" data-name="Layer 2"><g id="Manzana-18" data-name="Manzana"><ellipse class="cls-1" cx="18.2" cy="56.3" rx="18.2" ry="21.48"/><ellipse class="cls-1" cx="29.46" cy="56.3" rx="18.2" ry="21.48"/><path class="cls-2" d="M23.76,37.79s-1.56-6.5,2.31-9.74V29.5s-2.61,1.24-1.13,8.28C24.91,37.79,24.69,38.67,23.76,37.79Z"/><path class="cls-3" d="M18.43,27.57h0a5.6,5.6,0,0,1,5.6,5.6h0a5.6,5.6,0,0,1-5.6-5.6Z"/><path class="cls-4" d="M18.24,34.85s-21.49,16.86,0,42.9c0,0-17,.39-18.22-21.4a22.52,22.52,0,0,1,2.65-11.2,18.18,18.18,0,0,1,9.41-9C16.75,34.25,18.24,34.85,18.24,34.85Z"/></g></g><g id="Layer_2-19" data-name="Layer 2"><g id="Manzana-19" data-name="Manzana"><ellipse class="cls-1" cx="108.08" cy="47.94" rx="18.2" ry="21.48"/><ellipse class="cls-1" cx="119.34" cy="47.94" rx="18.2" ry="21.48"/><path class="cls-2" d="M113.64,29.42s-1.56-6.49,2.31-9.74v1.45s-2.61,1.25-1.13,8.28C114.79,29.42,114.57,30.3,113.64,29.42Z"/><path class="cls-3" d="M108.31,19.2h0a5.6,5.6,0,0,1,5.6,5.6h0a5.6,5.6,0,0,1-5.6-5.6Z"/><path class="cls-4" d="M108.12,26.48s-21.49,16.87,0,42.9c0,0-17,.39-18.22-21.4a22.46,22.46,0,0,1,2.65-11.19,18.15,18.15,0,0,1,9.41-9C106.63,25.88,108.12,26.48,108.12,26.48Z"/></g></g><rect class="cls-5" x="0.96" y="0.94" width="18" height="111.78"/><path class="cls-6" d="M18,1.88v109.9H1.9V1.88H18M19.9,0H0V113.65H19.9V0Z"/><rect class="cls-5" x="281.06" y="0.94" width="18" height="111.78"/><path class="cls-6" d="M298.13,1.88v109.9H282V1.88h16.13M300,0H280.13V113.65H300V0Z"/><rect class="cls-7" x="0.96" y="0.94" width="298.1" height="19.5"/><path class="cls-6" d="M298.13,1.88V19.5H1.9V1.88H298.13M300,0H0V21.38H300V0Z"/><rect class="cls-7" x="0.96" y="31.69" width="298.1" height="19.5"/><path class="cls-6" d="M298.13,32.63V50.26H1.9V32.63H298.13M300,30.76H0V52.14H300V30.76Z"/><rect class="cls-7" x="0.96" y="62.45" width="298.1" height="19.5"/><path class="cls-6" d="M298.13,63.39V81H1.9V63.39H298.13M300,61.51H0V82.89H300V61.51Z"/><rect class="cls-7" x="0.96" y="93.21" width="298.1" height="19.5"/><path class="cls-6" d="M298.13,94.15v17.63H1.9V94.15H298.13M300,92.27H0v21.38H300V92.27Z"/><circle class="cls-8" cx="9.96" cy="10.69" r="4.27"/><path class="cls-6" d="M10,6.8a3.89,3.89,0,1,1-3.89,3.89A3.89,3.89,0,0,1,10,6.8m0-.75a4.64,4.64,0,1,0,4.64,4.64A4.64,4.64,0,0,0,10,6.05Z"/><circle class="cls-8" cx="9.96" cy="41.45" r="4.27"/><path class="cls-6" d="M10,37.56a3.89,3.89,0,1,1-3.89,3.89A3.89,3.89,0,0,1,10,37.56m0-.75a4.64,4.64,0,1,0,4.64,4.64A4.64,4.64,0,0,0,10,36.81Z"/><circle class="cls-8" cx="9.96" cy="72.24" r="4.27"/><path class="cls-6" d="M10,68.34a3.9,3.9,0,1,1-3.89,3.9A3.9,3.9,0,0,1,10,68.34m0-.75a4.65,4.65,0,1,0,4.64,4.65A4.65,4.65,0,0,0,10,67.59Z"/><circle class="cls-8" cx="9.96" cy="102.96" r="4.27"/><path class="cls-6" d="M10,99.07A3.89,3.89,0,1,1,6.07,103,3.89,3.89,0,0,1,10,99.07m0-.75A4.64,4.64,0,1,0,14.6,103,4.64,4.64,0,0,0,10,98.32Z"/><circle class="cls-8" cx="290.06" cy="10.69" r="4.27"/><path class="cls-6" d="M290.06,6.8a3.89,3.89,0,1,1-3.89,3.89,3.89,3.89,0,0,1,3.89-3.89m0-.75a4.64,4.64,0,1,0,4.64,4.64,4.64,4.64,0,0,0-4.64-4.64Z"/><circle class="cls-8" cx="290.06" cy="41.45" r="4.27"/><path class="cls-6" d="M290.06,37.56a3.89,3.89,0,1,1-3.89,3.89,3.89,3.89,0,0,1,3.89-3.89m0-.75a4.64,4.64,0,1,0,4.64,4.64,4.64,4.64,0,0,0-4.64-4.64Z"/><circle class="cls-8" cx="290.06" cy="72.24" r="4.27"/><path class="cls-6" d="M290.06,68.34a3.9,3.9,0,1,1-3.89,3.9,3.9,3.9,0,0,1,3.89-3.9m0-.75a4.65,4.65,0,1,0,4.64,4.65,4.65,4.65,0,0,0-4.64-4.65Z"/><circle class="cls-8" cx="290.06" cy="102.96" r="4.27"/><path class="cls-6" d="M290.06,99.07a3.89,3.89,0,1,1-3.89,3.89,3.89,3.89,0,0,1,3.89-3.89m0-.75A4.64,4.64,0,1,0,294.7,103a4.64,4.64,0,0,0-4.64-4.64Z"/></g></g></svg>