<svg xmlns="http://www.w3.org/2000/svg" viewBox="0 0 384.79 83.65"><defs><style>.cls-1{fill:#ffcb08;}.cls-2{isolation:isolate;}.cls-3{fill:#fff;}</style></defs><title>Asset 2</title><g id="Layer_2" data-name="Layer 2"><g id="Layer_1-2" data-name="Layer 1"><polygon class="cls-1" points="384.79 41.83 337.17 0 337.17 20.16 0 20.16 0 63.49 337.17 63.49 337.17 83.65 384.79 41.83"/><g class="cls-2"><path class="cls-3" d="M56.08,39.8q0,4.43-2.4,6.77c-1.6,1.56-3.91,2.35-6.92,2.35H41.81V31h5.48a8.76,8.76,0,0,1,6.48,2.31A8.74,8.74,0,0,1,56.08,39.8Zm-2.2.07a7.19,7.19,0,0,0-1.75-5.27,7,7,0,0,0-5.22-1.77h-3V47.12h2.53A7.7,7.7,0,0,0,52,45.29,7.25,7.25,0,0,0,53.88,39.87Z"/><path class="cls-3" d="M59.6,31.87a1.35,1.35,0,0,1,.34-1,1.27,1.27,0,0,1,1.7,0,1.65,1.65,0,0,1,0,2,1.18,1.18,0,0,1-.85.34,1.15,1.15,0,0,1-.85-.34A1.35,1.35,0,0,1,59.6,31.87Zm2.2,17.05h-2V35.51h2Z"/><path class="cls-3" d="M69,48.92,64,35.51h2.18l2.89,8c.65,1.86,1,3.07,1.15,3.62h.09c.09-.43.38-1.33.85-2.69s1.55-4.32,3.21-8.88H76.5L71.41,48.92Z"/><path class="cls-3" d="M78.48,31.87a1.35,1.35,0,0,1,.35-1,1.27,1.27,0,0,1,1.7,0,1.65,1.65,0,0,1,0,2,1.18,1.18,0,0,1-.85.34,1.15,1.15,0,0,1-.85-.34A1.35,1.35,0,0,1,78.48,31.87Zm2.21,17.05h-2V35.51h2Z"/><path class="cls-3" d="M94.12,47.12H94a4.78,4.78,0,0,1-4.21,2,5,5,0,0,1-4.09-1.8,7.88,7.88,0,0,1-1.46-5.11,8.09,8.09,0,0,1,1.46-5.15,4.94,4.94,0,0,1,4.09-1.84,4.87,4.87,0,0,1,4.18,2h.16l-.08-1,0-.94V29.88h2v19H94.39Zm-4.06.34a3.7,3.7,0,0,0,3-1.13A5.68,5.68,0,0,0,94,42.68v-.43a6.75,6.75,0,0,0-1-4.07A3.6,3.6,0,0,0,90,37a3.11,3.11,0,0,0-2.73,1.39,6.92,6.92,0,0,0-1,3.92,6.69,6.69,0,0,0,.94,3.88A3.2,3.2,0,0,0,90.06,47.46Z"/><path class="cls-3" d="M100.17,31.87a1.35,1.35,0,0,1,.35-1,1.27,1.27,0,0,1,1.7,0,1.65,1.65,0,0,1,0,2,1.18,1.18,0,0,1-.85.34,1.15,1.15,0,0,1-.85-.34A1.35,1.35,0,0,1,100.17,31.87Zm2.21,17.05h-2V35.51h2Z"/><path class="cls-3" d="M115.81,47.12h-.11a4.78,4.78,0,0,1-4.21,2,5,5,0,0,1-4.09-1.8,7.88,7.88,0,0,1-1.46-5.11,8,8,0,0,1,1.47-5.15,5.43,5.43,0,0,1,8.27.14h.15l-.08-1,0-.94V29.88h2v19h-1.65Zm-4.06.34a3.7,3.7,0,0,0,3-1.13,5.68,5.68,0,0,0,.94-3.65v-.43a6.75,6.75,0,0,0-1-4.07,3.6,3.6,0,0,0-3-1.22A3.11,3.11,0,0,0,109,38.35a6.92,6.92,0,0,0-.95,3.92,6.69,6.69,0,0,0,.94,3.88A3.2,3.2,0,0,0,111.75,47.46Z"/><path class="cls-3" d="M133.61,42.2A7.4,7.4,0,0,1,132,47.32a5.8,5.8,0,0,1-4.56,1.84,6.09,6.09,0,0,1-3.2-.84,5.55,5.55,0,0,1-2.15-2.43,8.36,8.36,0,0,1-.76-3.69,7.4,7.4,0,0,1,1.64-5.11,5.79,5.79,0,0,1,4.55-1.83A5.68,5.68,0,0,1,132,37.13,7.36,7.36,0,0,1,133.61,42.2Zm-10.21,0a6.38,6.38,0,0,0,1,3.91,3.56,3.56,0,0,0,3,1.35,3.6,3.6,0,0,0,3-1.34,6.32,6.32,0,0,0,1-3.92,6.24,6.24,0,0,0-1-3.89,3.63,3.63,0,0,0-3-1.32,3.56,3.56,0,0,0-3,1.31A6.27,6.27,0,0,0,123.4,42.2Z"/><path class="cls-3" d="M149.34,49.16a6.15,6.15,0,0,1-4.69-1.81,7,7,0,0,1-1.72-5,7.74,7.74,0,0,1,1.6-5.15,5.3,5.3,0,0,1,4.29-1.91,5,5,0,0,1,4,1.66,6.35,6.35,0,0,1,1.47,4.37v1.29H145a5.27,5.27,0,0,0,1.19,3.58,4.11,4.11,0,0,0,3.19,1.23,10.87,10.87,0,0,0,4.28-.91v1.81a11.26,11.26,0,0,1-2,.67A11.78,11.78,0,0,1,149.34,49.16ZM148.79,37a3.32,3.32,0,0,0-2.57,1,4.87,4.87,0,0,0-1.13,2.92h7a4.51,4.51,0,0,0-.85-3A3,3,0,0,0,148.79,37Z"/><path class="cls-3" d="M166.91,48.92V40.24a3.46,3.46,0,0,0-.75-2.44,3,3,0,0,0-2.33-.81,3.87,3.87,0,0,0-3.09,1.14,5.74,5.74,0,0,0-1,3.75v7h-2V35.51h1.66l.33,1.83h.09a4.15,4.15,0,0,1,1.75-1.53,5.6,5.6,0,0,1,2.51-.55,5.1,5.1,0,0,1,3.65,1.17,5,5,0,0,1,1.22,3.74v8.75Z"/><path class="cls-3" d="M186.21,48.92h-2V36.17c0-1.06,0-2.07.1-3l-.57.54c-.22.18-1.19,1-2.92,2.38l-1.07-1.39L184.5,31h1.71Z"/></g></g></g></svg>