<svg xmlns="http://www.w3.org/2000/svg" viewBox="0 0 384.79 83.65"><defs><style>.cls-1{fill:#ffcb08;}</style></defs><title>Asset 5</title><g id="Layer_2" data-name="Layer 2"><g id="Layer_1-2" data-name="Layer 1"><polygon class="cls-1" points="384.79 41.83 337.17 0 337.17 20.16 0 20.16 0 63.49 337.17 63.49 337.17 83.65 384.79 41.83"/><path d="M43.81,41.14v7.47H41.72v-18h4.93a7.73,7.73,0,0,1,4.89,1.27,4.59,4.59,0,0,1,1.58,3.81,4.79,4.79,0,0,1-3.62,4.82l4.88,8.07H51.91l-4.35-7.47Zm0-1.8h2.87a4.92,4.92,0,0,0,3.24-.88,3.24,3.24,0,0,0,1-2.63,3,3,0,0,0-1.05-2.57,5.71,5.71,0,0,0-3.37-.79H43.81Z"/><path d="M62.66,48.86A6.19,6.19,0,0,1,58,47a7.07,7.07,0,0,1-1.73-5,7.81,7.81,0,0,1,1.61-5.18,5.32,5.32,0,0,1,4.31-1.92,5.08,5.08,0,0,1,4,1.67A6.34,6.34,0,0,1,67.62,41v1.29H58.34a5.29,5.29,0,0,0,1.2,3.6,4.14,4.14,0,0,0,3.2,1.23,10.79,10.79,0,0,0,4.3-.91V48a10.39,10.39,0,0,1-2.05.67A11.1,11.1,0,0,1,62.66,48.86ZM62.11,36.6a3.33,3.33,0,0,0-2.58,1.06,4.79,4.79,0,0,0-1.14,2.92h7a4.49,4.49,0,0,0-.86-2.95A3,3,0,0,0,62.11,36.6Z"/><path d="M82.12,35.14v1.29l-2.5.3a4.17,4.17,0,0,1,.62,1.12,4.31,4.31,0,0,1,.27,1.57,4,4,0,0,1-1.35,3.16,5.49,5.49,0,0,1-3.71,1.18,6.6,6.6,0,0,1-1.13-.1A2,2,0,0,0,73,45.39a.88.88,0,0,0,.46.82,3.39,3.39,0,0,0,1.56.26h2.38a5.36,5.36,0,0,1,3.36.92A3.2,3.2,0,0,1,82,50.07a3.82,3.82,0,0,1-1.8,3.41,9.51,9.51,0,0,1-5.23,1.18,7.15,7.15,0,0,1-4.08-1,3.17,3.17,0,0,1-1.43-2.77,3.11,3.11,0,0,1,.79-2.13,4,4,0,0,1,2.21-1.22,2.14,2.14,0,0,1-.87-.72,2,2,0,0,1-.35-1.14,2.14,2.14,0,0,1,.4-1.3,4.09,4.09,0,0,1,1.24-1.06,3.6,3.6,0,0,1-1.7-1.47,4.28,4.28,0,0,1-.66-2.36,4.35,4.35,0,0,1,1.33-3.41,5.39,5.39,0,0,1,3.76-1.2,6.94,6.94,0,0,1,1.9.25ZM71.38,50.87a1.84,1.84,0,0,0,.92,1.66,5,5,0,0,0,2.64.57,7.44,7.44,0,0,0,3.81-.77A2.36,2.36,0,0,0,80,50.24a1.62,1.62,0,0,0-.68-1.51,5.11,5.11,0,0,0-2.54-.43H74.32a3.2,3.2,0,0,0-2.17.67A2.37,2.37,0,0,0,71.38,50.87Zm1.1-11.42a2.74,2.74,0,0,0,.8,2.14,3.19,3.19,0,0,0,2.23.73c2,0,3-1,3-2.9s-1-3-3-3a3,3,0,0,0-2.21.78A3.08,3.08,0,0,0,72.48,39.45Z"/><path d="M86.92,48.61h-2V29.49h2Z"/><path d="M99.53,48.61l-.4-1.92H99a5.61,5.61,0,0,1-2,1.72,6.11,6.11,0,0,1-2.5.45,4.49,4.49,0,0,1-3.14-1,3.73,3.73,0,0,1-1.14-2.93q0-4.08,6.53-4.28l2.29-.07V39.7a3.37,3.37,0,0,0-.69-2.34,2.77,2.77,0,0,0-2.18-.76,8.9,8.9,0,0,0-3.81,1l-.62-1.57a9.31,9.31,0,0,1,2.18-.84,9.18,9.18,0,0,1,2.37-.31A5.13,5.13,0,0,1,99.88,36a4.43,4.43,0,0,1,1.17,3.43v9.19Zm-4.6-1.44a4.17,4.17,0,0,0,3-1A3.89,3.89,0,0,0,99,43.2V42l-2,.08a7.36,7.36,0,0,0-3.51.76,2.27,2.27,0,0,0-1.08,2.08,2.07,2.07,0,0,0,.67,1.68A2.77,2.77,0,0,0,94.93,47.17Z"/><path d="M113.7,35.14v8.74a3.52,3.52,0,0,0,.75,2.46,3.07,3.07,0,0,0,2.35.81A3.83,3.83,0,0,0,119.89,46a5.83,5.83,0,0,0,1-3.77V35.14h2V48.61h-1.68l-.3-1.81h-.11a4,4,0,0,1-1.74,1.53,5.88,5.88,0,0,1-2.54.53,5.15,5.15,0,0,1-3.68-1.17A5,5,0,0,1,111.64,44V35.14Z"/><path d="M135.92,44.94a3.36,3.36,0,0,1-1.4,2.9,6.56,6.56,0,0,1-3.93,1,8.61,8.61,0,0,1-4.18-.85V46.12a10.59,10.59,0,0,0,2.09.77,8.56,8.56,0,0,0,2.14.28,4.9,4.9,0,0,0,2.46-.51,1.76,1.76,0,0,0,.18-2.9,11.11,11.11,0,0,0-2.67-1.32,14.66,14.66,0,0,1-2.67-1.22A3.71,3.71,0,0,1,126.76,40a3.06,3.06,0,0,1-.38-1.58,3,3,0,0,1,1.33-2.6,6.23,6.23,0,0,1,3.68-1,10.73,10.73,0,0,1,4.25.89l-.72,1.66a9.77,9.77,0,0,0-3.68-.84,4.2,4.2,0,0,0-2.19.46,1.4,1.4,0,0,0-.73,1.25,1.54,1.54,0,0,0,.27.92,2.72,2.72,0,0,0,.89.73,19.63,19.63,0,0,0,2.36,1,8.91,8.91,0,0,1,3.24,1.76A3.11,3.11,0,0,1,135.92,44.94Z"/><path d="M147.53,48.61l-.41-1.92H147a5.61,5.61,0,0,1-2,1.72,6.11,6.11,0,0,1-2.5.45,4.51,4.51,0,0,1-3.14-1,3.73,3.73,0,0,1-1.14-2.93q0-4.08,6.53-4.28l2.29-.07V39.7a3.37,3.37,0,0,0-.69-2.34,2.77,2.77,0,0,0-2.18-.76,8.9,8.9,0,0,0-3.81,1l-.62-1.57a9.31,9.31,0,0,1,2.18-.84,9.2,9.2,0,0,1,2.38-.31A5.16,5.16,0,0,1,147.88,36,4.47,4.47,0,0,1,149,39.42v9.19Zm-4.61-1.44a4.17,4.17,0,0,0,3-1A3.89,3.89,0,0,0,147,43.2V42l-2,.08a7.43,7.43,0,0,0-3.51.76,2.27,2.27,0,0,0-1.08,2.08,2.1,2.1,0,0,0,.67,1.68A2.77,2.77,0,0,0,142.92,47.17Z"/><path d="M162.41,46.8h-.11a4.79,4.79,0,0,1-4.23,2.06A5,5,0,0,1,154,47.05a8,8,0,0,1-1.47-5.14A8,8,0,0,1,154,36.74a5,5,0,0,1,4.1-1.85,4.88,4.88,0,0,1,4.2,2h.16l-.08-1,0-.94V29.49h2V48.61h-1.66Zm-4.08.35a3.72,3.72,0,0,0,3-1.14,5.79,5.79,0,0,0,.94-3.67v-.43a6.76,6.76,0,0,0-1-4.08,3.62,3.62,0,0,0-3-1.23,3.12,3.12,0,0,0-2.74,1.4,6.89,6.89,0,0,0-.95,3.94,6.63,6.63,0,0,0,.94,3.89A3.21,3.21,0,0,0,158.33,47.15Z"/><path d="M177,48.61l-.41-1.92h-.1a5.61,5.61,0,0,1-2,1.72,6.08,6.08,0,0,1-2.5.45,4.51,4.51,0,0,1-3.14-1,3.76,3.76,0,0,1-1.13-2.93q0-4.08,6.52-4.28l2.29-.07V39.7a3.42,3.42,0,0,0-.68-2.34,2.8,2.8,0,0,0-2.18-.76,8.83,8.83,0,0,0-3.81,1l-.63-1.57a9.31,9.31,0,0,1,2.18-.84,9.2,9.2,0,0,1,2.38-.31A5.16,5.16,0,0,1,177.3,36a4.47,4.47,0,0,1,1.16,3.43v9.19Zm-4.61-1.44a4.15,4.15,0,0,0,3-1,3.85,3.85,0,0,0,1.09-2.93V42l-2,.08a7.43,7.43,0,0,0-3.51.76,2.26,2.26,0,0,0-1.07,2.08,2.1,2.1,0,0,0,.66,1.68A2.78,2.78,0,0,0,172.34,47.17Z"/><path d="M195.47,48.86a5.85,5.85,0,0,1-2.4-.49,4.47,4.47,0,0,1-1.83-1.49h-.15a17.64,17.64,0,0,1,.15,2.23v5.55h-2V35.14h1.66l.28,1.84h.1a4.79,4.79,0,0,1,1.83-1.59,5.57,5.57,0,0,1,2.4-.5,5,5,0,0,1,4.13,1.84,8.05,8.05,0,0,1,1.46,5.13A8,8,0,0,1,199.58,47,5,5,0,0,1,195.47,48.86Zm-.3-12.23a3.61,3.61,0,0,0-3,1.14,5.86,5.86,0,0,0-.95,3.64v.45a6.71,6.71,0,0,0,.95,4.06,3.58,3.58,0,0,0,3,1.23A3.15,3.15,0,0,0,198,45.73a6.68,6.68,0,0,0,1-3.89A6.47,6.47,0,0,0,198,38,3.27,3.27,0,0,0,195.17,36.63Z"/><path d="M216.25,41.86A7.43,7.43,0,0,1,214.59,47,5.84,5.84,0,0,1,210,48.86,6.11,6.11,0,0,1,206.8,48a5.59,5.59,0,0,1-2.16-2.44,8.42,8.42,0,0,1-.77-3.71,7.43,7.43,0,0,1,1.65-5.13,5.84,5.84,0,0,1,4.57-1.84,5.72,5.72,0,0,1,4.5,1.88A7.41,7.41,0,0,1,216.25,41.86Zm-10.26,0a6.42,6.42,0,0,0,1,3.94,4.1,4.1,0,0,0,6.08,0,6.38,6.38,0,0,0,1-3.94,6.27,6.27,0,0,0-1-3.9A3.65,3.65,0,0,0,210,36.63a3.61,3.61,0,0,0-3,1.31A6.35,6.35,0,0,0,206,41.86Z"/><path d="M226,34.89a7.8,7.8,0,0,1,1.61.15l-.28,1.89a7.15,7.15,0,0,0-1.48-.18A3.56,3.56,0,0,0,223,38.08a4.79,4.79,0,0,0-1.16,3.3v7.23h-2V35.14h1.68l.23,2.5h.1a5.81,5.81,0,0,1,1.81-2A4,4,0,0,1,226,34.89Z"/><path d="M247.21,30.64h2.25l-6.48,18h-2.06l-6.44-18h2.21l4.13,11.63A33.58,33.58,0,0,1,242,46.16a33,33,0,0,1,1.15-4Z"/><path d="M251.45,31.49a1.36,1.36,0,0,1,.34-1,1.24,1.24,0,0,1,.86-.32,1.21,1.21,0,0,1,.85.33,1.32,1.32,0,0,1,.36,1,1.36,1.36,0,0,1-.36,1,1.27,1.27,0,0,1-1.71,0A1.39,1.39,0,0,1,251.45,31.49Zm2.21,17.12h-2V35.14h2Z"/><path d="M269.61,41.86A7.43,7.43,0,0,1,268,47a5.84,5.84,0,0,1-4.58,1.85,6.16,6.16,0,0,1-3.21-.85A5.65,5.65,0,0,1,258,45.57a8.42,8.42,0,0,1-.76-3.71,7.47,7.47,0,0,1,1.64-5.13,5.86,5.86,0,0,1,4.58-1.84A5.71,5.71,0,0,1,268,36.77,7.41,7.41,0,0,1,269.61,41.86Zm-10.26,0a6.42,6.42,0,0,0,1,3.94,4.1,4.1,0,0,0,6.08,0,6.38,6.38,0,0,0,1-3.94,6.27,6.27,0,0,0-1-3.9,4.17,4.17,0,0,0-6.09,0A6.35,6.35,0,0,0,259.35,41.86Z"/><path d="M275.23,48.61h-2V29.49h2Z"/><path d="M285.25,48.86A6.2,6.2,0,0,1,280.53,47a7.06,7.06,0,0,1-1.72-5,7.81,7.81,0,0,1,1.6-5.18,5.32,5.32,0,0,1,4.31-1.92,5.08,5.08,0,0,1,4,1.67A6.34,6.34,0,0,1,290.2,41v1.29h-9.28a5.29,5.29,0,0,0,1.2,3.6,4.14,4.14,0,0,0,3.2,1.23,10.79,10.79,0,0,0,4.3-.91V48a10.39,10.39,0,0,1-2.05.67A11.07,11.07,0,0,1,285.25,48.86Zm-.56-12.26a3.33,3.33,0,0,0-2.58,1.06A4.79,4.79,0,0,0,281,40.58h7a4.49,4.49,0,0,0-.86-2.95A3,3,0,0,0,284.69,36.6Z"/><path d="M298,47.17a5.85,5.85,0,0,0,1-.08,8,8,0,0,0,.8-.16v1.56a4.07,4.07,0,0,1-1,.26,7.27,7.27,0,0,1-1.16.11c-2.6,0-3.91-1.38-3.91-4.12v-8h-1.93v-1l1.93-.85.86-2.87h1.18v3.12h3.91v1.59h-3.91v7.92a2.75,2.75,0,0,0,.58,1.87A2,2,0,0,0,298,47.17Z"/><path d="M310.85,48.61l-.41-1.92h-.1a5.61,5.61,0,0,1-2,1.72,6.11,6.11,0,0,1-2.5.45,4.51,4.51,0,0,1-3.14-1,3.73,3.73,0,0,1-1.14-2.93q0-4.08,6.53-4.28l2.29-.07V39.7a3.37,3.37,0,0,0-.69-2.34,2.77,2.77,0,0,0-2.18-.76,8.9,8.9,0,0,0-3.81,1l-.62-1.57a9.31,9.31,0,0,1,2.18-.84,9.2,9.2,0,0,1,2.38-.31A5.16,5.16,0,0,1,311.2,36a4.47,4.47,0,0,1,1.16,3.43v9.19Zm-4.61-1.44a4.17,4.17,0,0,0,3-1,3.89,3.89,0,0,0,1.09-2.93V42l-2,.08a7.36,7.36,0,0,0-3.51.76,2.27,2.27,0,0,0-1.08,2.08,2.1,2.1,0,0,0,.67,1.68A2.77,2.77,0,0,0,306.24,47.17Z"/></g></g></svg>