<svg xmlns="http://www.w3.org/2000/svg" viewBox="0 0 384.44 261.74"><defs><style>.cls-1{fill:#ead144;}.cls-2{fill:#1d1d1b;}.cls-3{fill:#404042;}.cls-4{fill:#565656;}.cls-5{fill:#f9dc4b;}.cls-6{fill:#f2cb2a;}.cls-7{fill:#f4dfab;}.cls-8{fill:#f7ebd2;}.cls-9{fill:#7c5d27;}.cls-10{fill:#b2996d;}.cls-11{fill:#f7f4f0;}.cls-12{fill:#493e32;}.cls-13{fill:none;stroke:#3c7baa;stroke-miterlimit:10;stroke-dasharray:5 5;}</style></defs><title>40 </title><g id="Capa_2" data-name="Capa 2"><g id="Capa_1-2" data-name="Capa 1"><rect class="cls-1" y="196.45" width="384.44" height="41.13"/><rect class="cls-2" x="23.36" y="196.59" width="1.15" height="23.61"/><rect class="cls-2" x="26.22" y="196.59" width="1.15" height="11.85"/><rect class="cls-2" x="29.07" y="196.59" width="1.15" height="11.85"/><rect class="cls-2" x="31.93" y="196.59" width="1.15" height="11.85"/><rect class="cls-2" x="34.78" y="196.59" width="1.15" height="11.8"/><rect class="cls-2" x="37.64" y="196.59" width="1.15" height="17.13"/><rect class="cls-2" x="40.49" y="196.59" width="1.15" height="11.85"/><rect class="cls-2" x="43.34" y="196.59" width="1.15" height="11.85"/><rect class="cls-2" x="46.2" y="196.59" width="1.15" height="11.85"/><rect class="cls-2" x="49.05" y="196.59" width="1.15" height="11.8"/><rect class="cls-2" x="51.91" y="196.59" width="1.15" height="23.61"/><rect class="cls-2" x="54.76" y="196.59" width="1.15" height="11.85"/><rect class="cls-2" x="57.62" y="196.59" width="1.15" height="11.85"/><rect class="cls-2" x="60.47" y="196.59" width="1.15" height="11.85"/><rect class="cls-2" x="63.32" y="196.59" width="1.15" height="11.8"/><rect class="cls-2" x="66.18" y="196.59" width="1.15" height="17.13"/><rect class="cls-2" x="69.03" y="196.59" width="1.15" height="11.85"/><rect class="cls-2" x="71.89" y="196.59" width="1.15" height="11.85"/><rect class="cls-2" x="74.74" y="196.59" width="1.15" height="11.85"/><rect class="cls-2" x="77.6" y="196.59" width="1.15" height="11.8"/><rect class="cls-2" x="80.45" y="196.59" width="1.15" height="23.61"/><rect class="cls-2" x="83.31" y="196.59" width="1.15" height="11.85"/><rect class="cls-2" x="86.16" y="196.59" width="1.15" height="11.85"/><rect class="cls-2" x="89.01" y="196.59" width="1.15" height="11.85"/><rect class="cls-2" x="91.87" y="196.59" width="1.15" height="11.8"/><rect class="cls-2" x="94.72" y="196.59" width="1.15" height="17.13"/><rect class="cls-2" x="97.58" y="196.59" width="1.15" height="11.85"/><rect class="cls-2" x="100.43" y="196.59" width="1.15" height="11.85"/><rect class="cls-2" x="103.29" y="196.59" width="1.15" height="11.85"/><rect class="cls-2" x="106.14" y="196.59" width="1.15" height="11.8"/><rect class="cls-2" x="108.99" y="196.59" width="1.15" height="23.61"/><rect class="cls-2" x="111.85" y="196.59" width="1.15" height="11.85"/><rect class="cls-2" x="114.7" y="196.59" width="1.15" height="11.85"/><rect class="cls-2" x="117.56" y="196.59" width="1.15" height="11.85"/><rect class="cls-2" x="120.41" y="196.59" width="1.15" height="11.8"/><rect class="cls-2" x="123.27" y="196.59" width="1.15" height="17.13"/><rect class="cls-2" x="126.12" y="196.59" width="1.15" height="11.85"/><rect class="cls-2" x="128.98" y="196.59" width="1.15" height="11.85"/><rect class="cls-2" x="131.83" y="196.59" width="1.15" height="11.85"/><rect class="cls-2" x="134.68" y="196.59" width="1.15" height="11.8"/><rect class="cls-2" x="137.54" y="196.59" width="1.15" height="23.61"/><rect class="cls-2" x="140.39" y="196.59" width="1.15" height="11.85"/><rect class="cls-2" x="143.25" y="196.59" width="1.15" height="11.85"/><rect class="cls-2" x="146.1" y="196.59" width="1.15" height="11.85"/><rect class="cls-2" x="148.96" y="196.59" width="1.15" height="11.8"/><rect class="cls-2" x="151.81" y="196.59" width="1.15" height="17.13"/><rect class="cls-2" x="154.66" y="196.59" width="1.15" height="11.85"/><rect class="cls-2" x="157.52" y="196.59" width="1.15" height="11.85"/><rect class="cls-2" x="160.37" y="196.59" width="1.15" height="11.85"/><rect class="cls-2" x="163.23" y="196.59" width="1.15" height="11.8"/><rect class="cls-2" x="166.08" y="196.59" width="1.15" height="23.61"/><rect class="cls-2" x="168.94" y="196.59" width="1.15" height="11.85"/><rect class="cls-2" x="171.79" y="196.59" width="1.15" height="11.85"/><rect class="cls-2" x="174.65" y="196.59" width="1.15" height="11.85"/><rect class="cls-2" x="177.5" y="196.59" width="1.15" height="11.8"/><rect class="cls-2" x="180.35" y="196.59" width="1.15" height="17.13"/><rect class="cls-2" x="183.21" y="196.59" width="1.15" height="11.85"/><rect class="cls-2" x="186.06" y="196.59" width="1.15" height="11.85"/><rect class="cls-2" x="188.92" y="196.59" width="1.15" height="11.85"/><rect class="cls-2" x="191.77" y="196.59" width="1.15" height="11.8"/><rect class="cls-2" x="194.63" y="196.59" width="1.15" height="23.61"/><rect class="cls-2" x="197.48" y="196.59" width="1.15" height="11.85"/><rect class="cls-2" x="200.33" y="196.59" width="1.15" height="11.85"/><rect class="cls-2" x="203.19" y="196.59" width="1.15" height="11.85"/><rect class="cls-2" x="206.04" y="196.59" width="1.15" height="11.8"/><rect class="cls-2" x="208.9" y="196.59" width="1.15" height="17.13"/><rect class="cls-2" x="211.75" y="196.59" width="1.15" height="11.85"/><rect class="cls-2" x="214.61" y="196.59" width="1.15" height="11.85"/><rect class="cls-2" x="217.46" y="196.59" width="1.15" height="11.85"/><rect class="cls-2" x="220.31" y="196.59" width="1.15" height="11.8"/><rect class="cls-2" x="223.17" y="196.59" width="1.15" height="23.61"/><rect class="cls-2" x="226.02" y="196.59" width="1.15" height="11.85"/><rect class="cls-2" x="228.88" y="196.59" width="1.15" height="11.85"/><rect class="cls-2" x="231.73" y="196.59" width="1.15" height="11.85"/><rect class="cls-2" x="234.59" y="196.59" width="1.15" height="11.8"/><rect class="cls-2" x="237.44" y="196.59" width="1.15" height="17.13"/><rect class="cls-2" x="240.3" y="196.59" width="1.15" height="11.85"/><rect class="cls-2" x="243.15" y="196.59" width="1.15" height="11.85"/><rect class="cls-2" x="246" y="196.59" width="1.15" height="11.85"/><rect class="cls-2" x="248.86" y="196.59" width="1.15" height="11.8"/><rect class="cls-2" x="251.71" y="196.59" width="1.15" height="23.61"/><rect class="cls-2" x="254.57" y="196.59" width="1.15" height="11.85"/><rect class="cls-2" x="257.42" y="196.59" width="1.15" height="11.85"/><rect class="cls-2" x="260.28" y="196.59" width="1.15" height="11.85"/><rect class="cls-2" x="263.13" y="196.59" width="1.15" height="11.8"/><rect class="cls-2" x="265.98" y="196.59" width="1.15" height="17.13"/><rect class="cls-2" x="268.84" y="196.59" width="1.15" height="11.85"/><rect class="cls-2" x="271.69" y="196.59" width="1.15" height="11.85"/><rect class="cls-2" x="274.55" y="196.59" width="1.15" height="11.85"/><rect class="cls-2" x="277.4" y="196.59" width="1.15" height="11.8"/><rect class="cls-2" x="280.26" y="196.59" width="1.15" height="23.61"/><rect class="cls-2" x="283.11" y="196.59" width="1.15" height="11.85"/><rect class="cls-2" x="285.97" y="196.59" width="1.15" height="11.85"/><rect class="cls-2" x="288.82" y="196.59" width="1.15" height="11.85"/><rect class="cls-2" x="291.67" y="196.59" width="1.15" height="11.8"/><rect class="cls-2" x="294.53" y="196.59" width="1.15" height="17.13"/><rect class="cls-2" x="297.38" y="196.59" width="1.15" height="11.85"/><rect class="cls-2" x="300.24" y="196.59" width="1.15" height="11.85"/><rect class="cls-2" x="303.09" y="196.59" width="1.15" height="11.85"/><rect class="cls-2" x="305.95" y="196.59" width="1.15" height="11.8"/><rect class="cls-2" x="308.8" y="196.59" width="1.15" height="23.61"/><path d="M26,224.22a5.63,5.63,0,0,1,0,6.13,2.74,2.74,0,0,1-2.32,1.16,2.79,2.79,0,0,1-2.33-1.16,5.65,5.65,0,0,1,0-6.14,2.9,2.9,0,0,1,4.05-.6,2.84,2.84,0,0,1,.6.6Zm-3.87.63a4.48,4.48,0,0,0-.62,2.45,4.62,4.62,0,0,0,.61,2.46,1.82,1.82,0,0,0,2.46.71,1.8,1.8,0,0,0,.71-.71,5.15,5.15,0,0,0,0-4.91,1.79,1.79,0,0,0-1.59-1A1.76,1.76,0,0,0,22.17,224.85Z"/><path d="M49.71,223.13h.81v8.29h-1v-7.27l-1.44.75-.36-.7Z"/><path d="M57.44,224.22a5.59,5.59,0,0,1,0,6.13,2.77,2.77,0,0,1-3.84.75,2.55,2.55,0,0,1-.75-.75,5.57,5.57,0,0,1,0-6.14,2.77,2.77,0,0,1,3.85-.73,2.71,2.71,0,0,1,.74.73Zm-3.87.63a5.21,5.21,0,0,0,0,4.91,1.79,1.79,0,0,0,1.58.94,1.85,1.85,0,0,0,1.6-.94,5.32,5.32,0,0,0,0-4.91,1.82,1.82,0,0,0-1.6-1A1.77,1.77,0,0,0,53.57,224.85Z"/><path d="M78.34,223a2.8,2.8,0,0,1,2,.74,2.26,2.26,0,0,1,.7,1.71,3,3,0,0,1-.53,1.6,13.09,13.09,0,0,1-1.29,1.5l-1.91,2H81v.85H75.89v-.76L78.4,228a15.25,15.25,0,0,0,1.16-1.39,2.05,2.05,0,0,0,.39-1.17,1.59,1.59,0,0,0-.47-1.16,1.65,1.65,0,0,0-1.16-.44,2.54,2.54,0,0,0-1.87.81l-.56-.72A3.47,3.47,0,0,1,78.34,223Z"/><path d="M87.71,224.22a5.63,5.63,0,0,1,0,6.13,2.77,2.77,0,0,1-3.84.8,2.81,2.81,0,0,1-.81-.8,5.65,5.65,0,0,1,0-6.14,2.8,2.8,0,0,1,3.87-.78h0a2.76,2.76,0,0,1,.78.78Zm-3.87.63a4.48,4.48,0,0,0-.62,2.45,4.7,4.7,0,0,0,.6,2.46,1.81,1.81,0,0,0,2.46.72,1.85,1.85,0,0,0,.72-.72,5.15,5.15,0,0,0,0-4.91,1.79,1.79,0,0,0-1.59-1A1.76,1.76,0,0,0,83.84,224.85Z"/><path d="M106.17,223a3.35,3.35,0,0,1,2,.55,1.79,1.79,0,0,1,.79,1.54,1.92,1.92,0,0,1-1.52,1.9,2.62,2.62,0,0,1,1.3.87,2.29,2.29,0,0,1,.47,1.42,1.9,1.9,0,0,1-.86,1.73,4,4,0,0,1-2.2.56,4.66,4.66,0,0,1-2.65-.71l.59-.71a3.52,3.52,0,0,0,2,.53,2.72,2.72,0,0,0,1.55-.39,1.31,1.31,0,0,0,.57-1.16,1.54,1.54,0,0,0-.59-1.24,2.32,2.32,0,0,0-1.44-.47h-1v-.85h1a2.19,2.19,0,0,0,1.26-.37,1.27,1.27,0,0,0,.21-1.77h0a1.34,1.34,0,0,0-.2-.21,2.4,2.4,0,0,0-1.39-.32,3.84,3.84,0,0,0-1.67.33l-.57-.68A4.89,4.89,0,0,1,106.17,223Z"/><path d="M115.89,224.22a5.63,5.63,0,0,1,0,6.13,2.78,2.78,0,0,1-4.65,0,5.65,5.65,0,0,1,0-6.14,2.8,2.8,0,0,1,3.87-.78h0a2.89,2.89,0,0,1,.78.78Zm-3.88.63a4.4,4.4,0,0,0-.62,2.45,4.8,4.8,0,0,0,.6,2.46,1.81,1.81,0,0,0,2.46.72,1.87,1.87,0,0,0,.73-.72,5.21,5.21,0,0,0,0-4.91,1.82,1.82,0,0,0-1.59-1A1.77,1.77,0,0,0,112,224.85Z"/><path d="M135.46,223.13h.83v5.32h1v.83h-1v2.14h-1v-2.14h-4v-.66Zm-.13,1.51-2.94,3.81h2.92Z"/><path d="M144,224.22a4.87,4.87,0,0,1,.92,3.06,5,5,0,0,1-.91,3.07,2.91,2.91,0,0,1-4.65,0,5.61,5.61,0,0,1,0-6.14,2.78,2.78,0,0,1,3.86-.73,2.71,2.71,0,0,1,.74.73Zm-3.87.63a5.26,5.26,0,0,0,0,4.91,1.79,1.79,0,0,0,1.58.94,1.85,1.85,0,0,0,1.61-.94,5.32,5.32,0,0,0,0-4.91,1.84,1.84,0,0,0-1.61-1,1.77,1.77,0,0,0-1.6,1Z"/><path d="M160.7,223.13h4.65v.8h-3.78l-.29,3a2.42,2.42,0,0,1,1.87-.86,2.48,2.48,0,0,1,1.88.78,2.7,2.7,0,0,1,.71,1.91,2.61,2.61,0,0,1-.82,2,3,3,0,0,1-2.14.76,3.6,3.6,0,0,1-2.86-1.33l.61-.73a2.71,2.71,0,0,0,2.25,1.16,1.94,1.94,0,0,0,1.4-.51,1.95,1.95,0,0,0,0-2.68,1.83,1.83,0,0,0-1.31-.52,1.66,1.66,0,0,0-1.66,1.05l-1-.41Z"/><path d="M172.48,224.22a5.63,5.63,0,0,1,0,6.13,2.77,2.77,0,0,1-3.84.8,2.81,2.81,0,0,1-.81-.8,5.69,5.69,0,0,1,0-6.14,2.8,2.8,0,0,1,3.87-.78h0a2.72,2.72,0,0,1,.77.78Zm-3.88.63a4.39,4.39,0,0,0-.61,2.45,4.7,4.7,0,0,0,.6,2.46,1.81,1.81,0,0,0,2.46.72,1.87,1.87,0,0,0,.73-.72,5.21,5.21,0,0,0,0-4.91,1.82,1.82,0,0,0-1.6-1,1.79,1.79,0,0,0-1.58,1Z"/><path d="M191.68,223a3.15,3.15,0,0,1,1.81.56,3.5,3.5,0,0,1,.54.48l-.58.76a5.39,5.39,0,0,0-.6-.57,2,2,0,0,0-1.17-.35,1.86,1.86,0,0,0-1.47.69,4.56,4.56,0,0,0-.82,2.86,2.64,2.64,0,0,1,2.25-1.31,2.81,2.81,0,0,1,2,.74,2.53,2.53,0,0,1,.85,2,2.63,2.63,0,0,1-.82,2,3,3,0,0,1-2,.72,2.88,2.88,0,0,1-2.22-.93,4.8,4.8,0,0,1-1-3.27,5,5,0,0,1,1-3.33A2.9,2.9,0,0,1,191.68,223Zm-1.51,4.55a1.75,1.75,0,0,0-.56,1.3,1.83,1.83,0,0,0,.56,1.3,2,2,0,0,0,2.71,0,1.8,1.8,0,0,0,.05-2.56l-.05-.06a2,2,0,0,0-2.71,0Z"/><path d="M201.12,224.22a5.63,5.63,0,0,1,0,6.13,2.74,2.74,0,0,1-2.32,1.16,2.79,2.79,0,0,1-2.33-1.16,5.65,5.65,0,0,1,0-6.14,2.9,2.9,0,0,1,4.05-.6,2.84,2.84,0,0,1,.6.6Zm-3.87.63a5.26,5.26,0,0,0,0,4.91,1.83,1.83,0,0,0,2.47.71,1.86,1.86,0,0,0,.71-.71,5.21,5.21,0,0,0,0-4.91,1.82,1.82,0,0,0-1.6-1A1.79,1.79,0,0,0,197.25,224.85Z"/><path d="M217.73,223.13h5.65v.65l-3.62,7.64h-1.08l3.64-7.46h-4.65Z"/><path d="M230.06,224.22a5.63,5.63,0,0,1,0,6.13,2.77,2.77,0,0,1-3.84.8,2.81,2.81,0,0,1-.81-.8,5.65,5.65,0,0,1,0-6.14,2.8,2.8,0,0,1,3.87-.78h0a2.76,2.76,0,0,1,.78.78Zm-3.88.63a4.48,4.48,0,0,0-.6,2.45,4.6,4.6,0,0,0,.59,2.46,1.81,1.81,0,0,0,2.46.72,1.85,1.85,0,0,0,.72-.72,5.15,5.15,0,0,0,0-4.91,1.79,1.79,0,0,0-1.59-1A1.77,1.77,0,0,0,226.18,224.85Z"/><path d="M250.42,223.54a1.78,1.78,0,0,1,.77,1.55,1.88,1.88,0,0,1-1.44,1.9,2.61,2.61,0,0,1,1.25.87,2.38,2.38,0,0,1,.47,1.43,2,2,0,0,1-.84,1.7,4.22,4.22,0,0,1-4.29,0,1.94,1.94,0,0,1-.82-1.7,2.31,2.31,0,0,1,.46-1.43,2.63,2.63,0,0,1,1.23-.87,1.88,1.88,0,0,1-1.44-1.9,1.78,1.78,0,0,1,.77-1.55,3.8,3.8,0,0,1,3.88,0Zm-3.35,4.36a1.52,1.52,0,0,0-.56,1.24,1.36,1.36,0,0,0,.56,1.16,2.7,2.7,0,0,0,2.82,0,1.32,1.32,0,0,0,.55-1.16,1.53,1.53,0,0,0-.55-1.26,2.34,2.34,0,0,0-2.82,0Zm.17-3.68a1.28,1.28,0,0,0-.19,1.8,1.14,1.14,0,0,0,.19.19,2.33,2.33,0,0,0,2.44,0,1.28,1.28,0,0,0,0-2,2,2,0,0,0-1.23-.33,2.19,2.19,0,0,0-1.25.33Z"/><path d="M258.15,224.22a5.63,5.63,0,0,1,0,6.13,2.78,2.78,0,0,1-4.65,0,5.61,5.61,0,0,1,0-6.14,2.8,2.8,0,0,1,3.87-.78h0a2.76,2.76,0,0,1,.78.78Zm-3.88.63a4.48,4.48,0,0,0-.62,2.45,4.81,4.81,0,0,0,.61,2.46,1.81,1.81,0,0,0,2.46.72,1.91,1.91,0,0,0,.72-.72,5.15,5.15,0,0,0,0-4.91,1.79,1.79,0,0,0-1.59-1,1.77,1.77,0,0,0-1.58,1Z"/><path d="M276.86,223a2.84,2.84,0,0,1,2.22.94,4.82,4.82,0,0,1,1,3.27,4.92,4.92,0,0,1-1,3.34,2.86,2.86,0,0,1-2.32,1,3.28,3.28,0,0,1-1.8-.54,5.37,5.37,0,0,1-.57-.5l.59-.74a8.24,8.24,0,0,0,.62.56,2,2,0,0,0,2.62-.34,4.37,4.37,0,0,0,.82-2.86,2.56,2.56,0,0,1-2.25,1.31,2.86,2.86,0,0,1-1.94-.73,2.8,2.8,0,0,1,0-3.94h0A2.82,2.82,0,0,1,276.86,223Zm-1.29,1.45a1.75,1.75,0,0,0-.56,1.31,1.79,1.79,0,0,0,.56,1.3,2,2,0,0,0,2.71,0,1.83,1.83,0,0,0,.05-2.57l-.05,0a1.84,1.84,0,0,0-1.36-.54,1.81,1.81,0,0,0-1.35.57Z"/><path d="M286.74,224.22a4.93,4.93,0,0,1,.92,3.06,5,5,0,0,1-.91,3.07,2.79,2.79,0,0,1-2.32,1.16,2.74,2.74,0,0,1-2.33-1.16,5.61,5.61,0,0,1,0-6.14,2.78,2.78,0,0,1,3.86-.73,2.54,2.54,0,0,1,.73.73Zm-3.87.63a5.21,5.21,0,0,0,0,4.91,1.81,1.81,0,0,0,3.18,0,5.32,5.32,0,0,0,0-4.91,1.82,1.82,0,0,0-1.6-1A1.77,1.77,0,0,0,282.87,224.85Z"/><path d="M301.67,223.13h.81v8.29h-1v-7.27l-1.43.75-.37-.7Z"/><path d="M309.39,224.22a5.63,5.63,0,0,1,0,6.13,2.91,2.91,0,0,1-4.65,0,5.65,5.65,0,0,1,0-6.14,2.9,2.9,0,0,1,4.05-.6,3.1,3.1,0,0,1,.6.6Zm-3.87.63a4.4,4.4,0,0,0-.62,2.45,4.61,4.61,0,0,0,.6,2.46,1.83,1.83,0,0,0,2.47.71,1.8,1.8,0,0,0,.71-.71,5.21,5.21,0,0,0,0-4.91,1.82,1.82,0,0,0-1.59-1,1.74,1.74,0,0,0-1.57,1Z"/><path d="M317,224.22a5.63,5.63,0,0,1,0,6.13,2.91,2.91,0,0,1-4.65,0,5.65,5.65,0,0,1,0-6.14,2.9,2.9,0,0,1,4.05-.6,2.84,2.84,0,0,1,.6.6Zm-3.87.63a5.21,5.21,0,0,0,0,4.91,1.82,1.82,0,0,0,2.46.71,1.8,1.8,0,0,0,.71-.71,5.21,5.21,0,0,0,0-4.91,1.82,1.82,0,0,0-1.59-1A1.77,1.77,0,0,0,313.11,224.85Z"/><rect class="cls-2" x="311.57" y="196.59" width="1.15" height="11.85"/><rect class="cls-2" x="314.43" y="196.59" width="1.15" height="11.85"/><rect class="cls-2" x="317.28" y="196.59" width="1.15" height="11.85"/><rect class="cls-2" x="320.14" y="196.59" width="1.15" height="11.8"/><rect class="cls-2" x="322.99" y="196.59" width="1.15" height="17.13"/><rect class="cls-2" x="325.85" y="196.59" width="1.15" height="11.85"/><rect class="cls-2" x="328.7" y="196.59" width="1.15" height="11.85"/><rect class="cls-2" x="331.55" y="196.59" width="1.15" height="11.85"/><rect class="cls-2" x="334.41" y="196.59" width="1.15" height="11.8"/><rect class="cls-2" x="337.26" y="196.59" width="1.15" height="23.61"/><rect class="cls-3" y="196.45" width="10.06" height="41.13"/><path class="cls-3" d="M3.32,210h12a1.83,1.83,0,0,1,1.83,1.83h0v10.43a1.83,1.83,0,0,1-1.83,1.83h-12a.31.31,0,0,1-.31-.31V210.28a.31.31,0,0,1,.31-.31Z"/><path class="cls-3" d="M355,179.1h29.41v75.83H355a20.07,20.07,0,0,1-20-20.05V199.15A20.06,20.06,0,0,1,355,179.1Z"/><rect class="cls-4" x="340.26" y="199.39" width="37.91" height="35.26" rx="4.59"/><rect class="cls-5" x="347.57" y="199.39" width="20" height="35.26" rx="2.6"/><rect class="cls-6" x="350.83" y="202.11" width="3.61" height="27.75" rx="0.47"/><rect class="cls-6" x="355.77" y="202.11" width="3.61" height="27.75" rx="0.47"/><rect class="cls-6" x="360.44" y="202.11" width="3.61" height="27.75" rx="0.47"/><path class="cls-5" d="M356.1,254.93H384v6.81H356.1a2.49,2.49,0,0,1-2.47-2.47h0v-1.86A2.47,2.47,0,0,1,356.1,255h0Z"/><path class="cls-7" d="M135.15,166.35c-4.79-15.11-6-24.14-6.25-28,2.55-5.72,5.75-16.45-.86-24.27a35.46,35.46,0,0,1,.33,9,21.32,21.32,0,0,0-4.78-14.63,32.26,32.26,0,0,1,.46,5.8A19.94,19.94,0,0,0,119.7,105a31.56,31.56,0,0,1,.45,5,19.85,19.85,0,0,0-6.06-6.91,30,30,0,0,1,1.38,3.67,19.57,19.57,0,0,0-7.07-4.65s.62.73,1.52,2.06a25.6,25.6,0,0,0-3.93-1.14h0a21.37,21.37,0,0,0-11.75.67c-4.79,1.18-10,3.79-13.21,9.3,0,0,.78-.46,2.19-1.1l-.3.37a18.64,18.64,0,0,0-4.23,5s.44-.27,1.25-.66a.39.39,0,0,0,0,.3,32.6,32.6,0,0,0,5.54,9.16.43.43,0,0,1,0,.61.48.48,0,0,1-.23.1c-2.69.21-11.35,0-16.1-11a.57.57,0,0,1,0-.18c0-1.3.18-16.79-10.4-19.27a1.55,1.55,0,0,1-1.14-1.14l-1-10.83a.44.44,0,0,0-.53-.31.37.37,0,0,0-.2.12c-1.15,1.17-5.28,4.58-5,10.79a1.14,1.14,0,0,1-1.08,1.18c-3,.09-11,1.15-12.35,9.6a3.2,3.2,0,0,1-3.17,2.73h-9a1.58,1.58,0,0,0-1.58,1.57,1.94,1.94,0,0,0,0,.24c.46,3.16,2.41,9.73,10.5,13.8A3.27,3.27,0,0,1,36,127c-1.15,1.53-5.39,8.58-1.51,25.75a34.3,34.3,0,0,1,.23-5.64,20.55,20.55,0,0,0,4.74,12.35,27.79,27.79,0,0,1-.37-3,30.78,30.78,0,0,0,13,13.77.45.45,0,0,1,.22.37v17.85a.44.44,0,0,1-.18.35c-1,.68-5.46,4-6.11,6.34a.41.41,0,0,0,.31.51l.11,0H58.14a.83.83,0,0,0,.83-.82h0a.81.81,0,0,1,.69-.82c3.23-.46,16.42-2.95,16.42-12.59v-11.3a.44.44,0,0,1,.08-.25c.58-.81,4.74-5.67,20-5.36,16.21.33,22.79,15.52,23.1,16.24v.06c.1.49,1.49,7.44-3.48,9.51a.36.36,0,0,0-.19.15c-.27.4-1.28,1.93-1.89,2.82a.43.43,0,0,0,.14.6.41.41,0,0,0,.22.07h9.16a.44.44,0,0,1,.43.44.5.5,0,0,1,0,.13l-.57,1.38a.43.43,0,0,0,.26.55.35.35,0,0,0,.14,0h11.45a.45.45,0,0,0,.36-.2C136.19,194.86,141.26,185.63,135.15,166.35Z"/><path class="cls-8" d="M36,126.92s-5.9,6.43-1.51,25.75a39.91,39.91,0,0,1,.2-5.57s.27,7.57,4.74,12.29a29.59,29.59,0,0,1-.35-3c.06-.31,3.43,8.94,13.21,14.18,0,0-5.22-7.87-3.51-14.47,0,0,2.29.52,2.65,4.89,0,0,3.94-10.28.34-16.1,0,0,.77-.57,3,.57,0,0,.57-3.51-4.19-10.79,0,0,2.79,2.6,3.82,3.89C54.4,138.56,51.54,126.92,36,126.92Z"/><path class="cls-9" d="M25.56,108.48s-1.87-.17-1.93,1.61A14.52,14.52,0,0,0,24,112a4.06,4.06,0,0,0,1.14-.57A4.18,4.18,0,0,0,27,108.66l0-.2Z"/><path class="cls-8" d="M128,114.05c.73,2.8.33,9,.33,9,.32-9.46-4.78-14.62-4.78-14.62a39,39,0,0,1,.46,5.72A19.93,19.93,0,0,0,119.7,105a34.88,34.88,0,0,1,.45,5,20.23,20.23,0,0,0-6.06-6.91c.52,1.2,1,2.42,1.38,3.67a20.15,20.15,0,0,0-7.07-4.65,25.42,25.42,0,0,1,1.52,2.06,22,22,0,0,0-14.77-.82,16.07,16.07,0,0,1-1.68.47C85.68,105.37,81,113,81,113l2.19-1.09c-1.77,1.11-4.53,5.32-4.53,5.32a60.59,60.59,0,0,1,7.16-2.48,11.25,11.25,0,0,0-2.41,2.6,50.62,50.62,0,0,1,6.48-3.2,11.08,11.08,0,0,0-2.55,2.74,49.88,49.88,0,0,1,7-3.4,11.24,11.24,0,0,0-3,3.07,49.45,49.45,0,0,1,6.9-3.37h0a11.06,11.06,0,0,0-3,3s6.1-2.81,6.3-2.78A11,11,0,0,0,98.37,116s6.17-2,6.4-1.93a11.26,11.26,0,0,0-3.73,1.78s7.18-.69,7.27-.65a11,11,0,0,0-3.47,1.71s6.21-.48,6.43-.36a11,11,0,0,0-2.64,1.42h0a9.42,9.42,0,0,1,7.66,1.9c9.32,7.52,12.59,18.69,12.59,18.69C136.12,121.44,128,114.05,128,114.05Z"/><path class="cls-10" d="M59.66,194c.16-.8.33-1.59.51-2.38l.57-2.37.57-2.35c.2-.78.42-1.56.62-2.34l.29-1.09.82.82a4.22,4.22,0,0,1,.67.9,4.77,4.77,0,0,1,.42,1,3.7,3.7,0,0,1,.1.58v.33a.33.33,0,0,0,0-.14.15.15,0,0,0,0-.07.55.55,0,0,0-.17-.2.71.71,0,0,0-.5-.17.6.6,0,0,0-.29.08l-.1.07-.05,0h0l.08-.14.17-.37a14.08,14.08,0,0,0,.57-1.66c.17-.57.34-1.14.49-1.72a46.33,46.33,0,0,0,1.22-7.22c.12-1.2.19-2.42.2-3.63s0-2.43,0-3.64A64,64,0,0,0,65,161a33.17,33.17,0,0,1,1.9,7.21,35.67,35.67,0,0,1,.36,3.73c.07,1.26,0,2.51,0,3.77a36.72,36.72,0,0,1-1.17,7.44,21,21,0,0,1-1.29,3.61,5.21,5.21,0,0,1-.24.47c0,.08-.1.17-.16.25l-.13.16a.68.68,0,0,1-.12.12l-.15.11a.69.69,0,0,1-.34.09.78.78,0,0,1-.57-.17,1,1,0,0,1-.19-.23.1.1,0,0,0,0-.1,1.05,1.05,0,0,1-.05-.19v-.41a2.23,2.23,0,0,0,0-.36,3.64,3.64,0,0,0-.22-.71,3.26,3.26,0,0,0-.38-.61l1.1-.27c-.28.76-.54,1.52-.83,2.29l-.86,2.29-.89,2.25Z"/><path class="cls-10" d="M123.64,194.3a9.17,9.17,0,0,1,1.6-1.91,3.39,3.39,0,0,1,1.15-.7,1.35,1.35,0,0,1,.36-.08h.1s-.12,0-.14,0l0,0h0a3.5,3.5,0,0,0,.06-.48,17.12,17.12,0,0,0-.13-2.37c-.09-.8-.18-1.6-.32-2.39-.25-1.6-.53-3.19-.89-4.76s-.74-3.14-1.21-4.68a43.49,43.49,0,0,0-1.57-4.54,29.6,29.6,0,0,0-2.11-4.26,15.21,15.21,0,0,0-3-3.63,9.18,9.18,0,0,0-4.25-2.11,8.29,8.29,0,0,1,4.75,1.43,14.2,14.2,0,0,1,3.61,3.56,30.46,30.46,0,0,1,4.22,9.06,47.83,47.83,0,0,1,1.78,9.78,23.31,23.31,0,0,1-.06,5,2.5,2.5,0,0,1-.2.71l-.07.11a.5.5,0,0,1-.43.23h-.29a3.24,3.24,0,0,0-1,.44A12,12,0,0,0,123.64,194.3Z"/><ellipse class="cls-11" cx="41.13" cy="105.61" rx="2.7" ry="3.47"/><circle class="cls-12" cx="40.18" cy="105.71" r="1.49"/><circle class="cls-12" cx="32.92" cy="111.42" r="0.53"/><circle class="cls-12" cx="30.86" cy="113.6" r="0.53"/><circle class="cls-12" cx="32.92" cy="116.41" r="0.53"/><line class="cls-13" x1="23.94" y1="196.02" x2="23.94"/><line class="cls-13" x1="138.11" y1="196.02" x2="138.11"/></g></g></svg>