<svg xmlns="http://www.w3.org/2000/svg" viewBox="0 0 384.44 261.74"><defs><style>.cls-1{fill:#ead144;}.cls-2{fill:#1d1d1b;}.cls-3{fill:#404042;}.cls-4{fill:#565656;}.cls-5{fill:#f9dc4b;}.cls-6{fill:#f2cb2a;}.cls-7{fill:#f4dfab;}.cls-8{fill:#f7ebd2;}.cls-9{fill:#7c5d27;}.cls-10{fill:#b2996d;}.cls-11{fill:#f7f4f0;}.cls-12{fill:#493e32;}.cls-13{fill:none;stroke:#3c7baa;stroke-miterlimit:10;stroke-dasharray:5 5;}</style></defs><title>50 </title><g id="Capa_2" data-name="Capa 2"><g id="Capa_1-2" data-name="Capa 1"><rect class="cls-1" y="196.45" width="384.44" height="41.13"/><rect class="cls-2" x="23.36" y="196.59" width="1.15" height="23.61"/><rect class="cls-2" x="26.22" y="196.59" width="1.15" height="11.85"/><rect class="cls-2" x="29.07" y="196.59" width="1.15" height="11.85"/><rect class="cls-2" x="31.93" y="196.59" width="1.15" height="11.85"/><rect class="cls-2" x="34.78" y="196.59" width="1.15" height="11.8"/><rect class="cls-2" x="37.64" y="196.59" width="1.15" height="17.13"/><rect class="cls-2" x="40.49" y="196.59" width="1.15" height="11.85"/><rect class="cls-2" x="43.34" y="196.59" width="1.15" height="11.85"/><rect class="cls-2" x="46.2" y="196.59" width="1.15" height="11.85"/><rect class="cls-2" x="49.05" y="196.59" width="1.15" height="11.8"/><rect class="cls-2" x="51.91" y="196.59" width="1.15" height="23.61"/><rect class="cls-2" x="54.76" y="196.59" width="1.15" height="11.85"/><rect class="cls-2" x="57.62" y="196.59" width="1.15" height="11.85"/><rect class="cls-2" x="60.47" y="196.59" width="1.15" height="11.85"/><rect class="cls-2" x="63.32" y="196.59" width="1.15" height="11.8"/><rect class="cls-2" x="66.18" y="196.59" width="1.15" height="17.13"/><rect class="cls-2" x="69.03" y="196.59" width="1.15" height="11.85"/><rect class="cls-2" x="71.89" y="196.59" width="1.15" height="11.85"/><rect class="cls-2" x="74.74" y="196.59" width="1.15" height="11.85"/><rect class="cls-2" x="77.6" y="196.59" width="1.15" height="11.8"/><rect class="cls-2" x="80.45" y="196.59" width="1.15" height="23.61"/><rect class="cls-2" x="83.31" y="196.59" width="1.15" height="11.85"/><rect class="cls-2" x="86.16" y="196.59" width="1.15" height="11.85"/><rect class="cls-2" x="89.01" y="196.59" width="1.15" height="11.85"/><rect class="cls-2" x="91.87" y="196.59" width="1.15" height="11.8"/><rect class="cls-2" x="94.72" y="196.59" width="1.15" height="17.13"/><rect class="cls-2" x="97.58" y="196.59" width="1.15" height="11.85"/><rect class="cls-2" x="100.43" y="196.59" width="1.15" height="11.85"/><rect class="cls-2" x="103.29" y="196.59" width="1.15" height="11.85"/><rect class="cls-2" x="106.14" y="196.59" width="1.15" height="11.8"/><rect class="cls-2" x="108.99" y="196.59" width="1.15" height="23.61"/><rect class="cls-2" x="111.85" y="196.59" width="1.15" height="11.85"/><rect class="cls-2" x="114.7" y="196.59" width="1.15" height="11.85"/><rect class="cls-2" x="117.56" y="196.59" width="1.15" height="11.85"/><rect class="cls-2" x="120.41" y="196.59" width="1.15" height="11.8"/><rect class="cls-2" x="123.27" y="196.59" width="1.15" height="17.13"/><rect class="cls-2" x="126.12" y="196.59" width="1.15" height="11.85"/><rect class="cls-2" x="128.98" y="196.59" width="1.15" height="11.85"/><rect class="cls-2" x="131.83" y="196.59" width="1.15" height="11.85"/><rect class="cls-2" x="134.68" y="196.59" width="1.15" height="11.8"/><rect class="cls-2" x="137.54" y="196.59" width="1.15" height="23.61"/><rect class="cls-2" x="140.39" y="196.59" width="1.15" height="11.85"/><rect class="cls-2" x="143.25" y="196.59" width="1.15" height="11.85"/><rect class="cls-2" x="146.1" y="196.59" width="1.15" height="11.85"/><rect class="cls-2" x="148.96" y="196.59" width="1.15" height="11.8"/><rect class="cls-2" x="151.81" y="196.59" width="1.15" height="17.13"/><rect class="cls-2" x="154.66" y="196.59" width="1.15" height="11.85"/><rect class="cls-2" x="157.52" y="196.59" width="1.15" height="11.85"/><rect class="cls-2" x="160.37" y="196.59" width="1.15" height="11.85"/><rect class="cls-2" x="163.23" y="196.59" width="1.15" height="11.8"/><rect class="cls-2" x="166.08" y="196.59" width="1.15" height="23.61"/><rect class="cls-2" x="168.94" y="196.59" width="1.15" height="11.85"/><rect class="cls-2" x="171.79" y="196.59" width="1.15" height="11.85"/><rect class="cls-2" x="174.65" y="196.59" width="1.15" height="11.85"/><rect class="cls-2" x="177.5" y="196.59" width="1.15" height="11.8"/><rect class="cls-2" x="180.35" y="196.59" width="1.15" height="17.13"/><rect class="cls-2" x="183.21" y="196.59" width="1.15" height="11.85"/><rect class="cls-2" x="186.06" y="196.59" width="1.15" height="11.85"/><rect class="cls-2" x="188.92" y="196.59" width="1.15" height="11.85"/><rect class="cls-2" x="191.77" y="196.59" width="1.15" height="11.8"/><rect class="cls-2" x="194.63" y="196.59" width="1.15" height="23.61"/><rect class="cls-2" x="197.48" y="196.59" width="1.15" height="11.85"/><rect class="cls-2" x="200.33" y="196.59" width="1.15" height="11.85"/><rect class="cls-2" x="203.19" y="196.59" width="1.15" height="11.85"/><rect class="cls-2" x="206.04" y="196.59" width="1.15" height="11.8"/><rect class="cls-2" x="208.9" y="196.59" width="1.15" height="17.13"/><rect class="cls-2" x="211.75" y="196.59" width="1.15" height="11.85"/><rect class="cls-2" x="214.61" y="196.59" width="1.15" height="11.85"/><rect class="cls-2" x="217.46" y="196.59" width="1.15" height="11.85"/><rect class="cls-2" x="220.31" y="196.59" width="1.15" height="11.8"/><rect class="cls-2" x="223.17" y="196.59" width="1.15" height="23.61"/><rect class="cls-2" x="226.02" y="196.59" width="1.15" height="11.85"/><rect class="cls-2" x="228.88" y="196.59" width="1.15" height="11.85"/><rect class="cls-2" x="231.73" y="196.59" width="1.15" height="11.85"/><rect class="cls-2" x="234.59" y="196.59" width="1.15" height="11.8"/><rect class="cls-2" x="237.44" y="196.59" width="1.15" height="17.13"/><rect class="cls-2" x="240.3" y="196.59" width="1.15" height="11.85"/><rect class="cls-2" x="243.15" y="196.59" width="1.15" height="11.85"/><rect class="cls-2" x="246" y="196.59" width="1.15" height="11.85"/><rect class="cls-2" x="248.86" y="196.59" width="1.15" height="11.8"/><rect class="cls-2" x="251.71" y="196.59" width="1.15" height="23.61"/><rect class="cls-2" x="254.57" y="196.59" width="1.15" height="11.85"/><rect class="cls-2" x="257.42" y="196.59" width="1.15" height="11.85"/><rect class="cls-2" x="260.28" y="196.59" width="1.15" height="11.85"/><rect class="cls-2" x="263.13" y="196.59" width="1.15" height="11.8"/><rect class="cls-2" x="265.98" y="196.59" width="1.15" height="17.13"/><rect class="cls-2" x="268.84" y="196.59" width="1.15" height="11.85"/><rect class="cls-2" x="271.69" y="196.59" width="1.15" height="11.85"/><rect class="cls-2" x="274.55" y="196.59" width="1.15" height="11.85"/><rect class="cls-2" x="277.4" y="196.59" width="1.15" height="11.8"/><rect class="cls-2" x="280.26" y="196.59" width="1.15" height="23.61"/><rect class="cls-2" x="283.11" y="196.59" width="1.15" height="11.85"/><rect class="cls-2" x="285.97" y="196.59" width="1.15" height="11.85"/><rect class="cls-2" x="288.82" y="196.59" width="1.15" height="11.85"/><rect class="cls-2" x="291.67" y="196.59" width="1.15" height="11.8"/><rect class="cls-2" x="294.53" y="196.59" width="1.15" height="17.13"/><rect class="cls-2" x="297.38" y="196.59" width="1.15" height="11.85"/><rect class="cls-2" x="300.24" y="196.59" width="1.15" height="11.85"/><rect class="cls-2" x="303.09" y="196.59" width="1.15" height="11.85"/><rect class="cls-2" x="305.95" y="196.59" width="1.15" height="11.8"/><rect class="cls-2" x="308.8" y="196.59" width="1.15" height="23.61"/><path d="M26,224.22a5.63,5.63,0,0,1,0,6.13,2.74,2.74,0,0,1-2.32,1.16,2.79,2.79,0,0,1-2.33-1.16,5.65,5.65,0,0,1,0-6.14,2.9,2.9,0,0,1,4.05-.6,2.84,2.84,0,0,1,.6.6Zm-3.87.63a4.48,4.48,0,0,0-.62,2.45,4.62,4.62,0,0,0,.61,2.46,1.82,1.82,0,0,0,2.46.71,1.8,1.8,0,0,0,.71-.71,5.15,5.15,0,0,0,0-4.91,1.79,1.79,0,0,0-1.59-1A1.76,1.76,0,0,0,22.17,224.85Z"/><path d="M49.71,223.13h.81v8.29h-1v-7.27l-1.44.75-.36-.7Z"/><path d="M57.44,224.22a5.59,5.59,0,0,1,0,6.13,2.77,2.77,0,0,1-3.84.75,2.55,2.55,0,0,1-.75-.75,5.57,5.57,0,0,1,0-6.14,2.77,2.77,0,0,1,3.85-.73,2.71,2.71,0,0,1,.74.73Zm-3.87.63a5.21,5.21,0,0,0,0,4.91,1.79,1.79,0,0,0,1.58.94,1.85,1.85,0,0,0,1.6-.94,5.32,5.32,0,0,0,0-4.91,1.82,1.82,0,0,0-1.6-1A1.77,1.77,0,0,0,53.57,224.85Z"/><path d="M78.34,223a2.8,2.8,0,0,1,2,.74,2.26,2.26,0,0,1,.7,1.71,3,3,0,0,1-.53,1.6,13.09,13.09,0,0,1-1.29,1.5l-1.91,2H81v.85H75.89v-.76L78.4,228a15.25,15.25,0,0,0,1.16-1.39,2.05,2.05,0,0,0,.39-1.17,1.59,1.59,0,0,0-.47-1.16,1.65,1.65,0,0,0-1.16-.44,2.54,2.54,0,0,0-1.87.81l-.56-.72A3.47,3.47,0,0,1,78.34,223Z"/><path d="M87.71,224.22a5.63,5.63,0,0,1,0,6.13,2.77,2.77,0,0,1-3.84.8,2.81,2.81,0,0,1-.81-.8,5.65,5.65,0,0,1,0-6.14,2.8,2.8,0,0,1,3.87-.78h0a2.76,2.76,0,0,1,.78.78Zm-3.87.63a4.48,4.48,0,0,0-.62,2.45,4.7,4.7,0,0,0,.6,2.46,1.81,1.81,0,0,0,2.46.72,1.85,1.85,0,0,0,.72-.72,5.15,5.15,0,0,0,0-4.91,1.79,1.79,0,0,0-1.59-1A1.76,1.76,0,0,0,83.84,224.85Z"/><path d="M106.17,223a3.35,3.35,0,0,1,2,.55,1.79,1.79,0,0,1,.79,1.54,1.92,1.92,0,0,1-1.52,1.9,2.62,2.62,0,0,1,1.3.87,2.29,2.29,0,0,1,.47,1.42,1.9,1.9,0,0,1-.86,1.73,4,4,0,0,1-2.2.56,4.66,4.66,0,0,1-2.65-.71l.59-.71a3.52,3.52,0,0,0,2,.53,2.72,2.72,0,0,0,1.55-.39,1.31,1.31,0,0,0,.57-1.16,1.54,1.54,0,0,0-.59-1.24,2.32,2.32,0,0,0-1.44-.47h-1v-.85h1a2.19,2.19,0,0,0,1.26-.37,1.27,1.27,0,0,0,.21-1.77h0a1.34,1.34,0,0,0-.2-.21,2.4,2.4,0,0,0-1.39-.32,3.84,3.84,0,0,0-1.67.33l-.57-.68A4.89,4.89,0,0,1,106.17,223Z"/><path d="M115.89,224.22a5.63,5.63,0,0,1,0,6.13,2.78,2.78,0,0,1-4.65,0,5.65,5.65,0,0,1,0-6.14,2.8,2.8,0,0,1,3.87-.78h0a2.89,2.89,0,0,1,.78.78Zm-3.88.63a4.4,4.4,0,0,0-.62,2.45,4.8,4.8,0,0,0,.6,2.46,1.81,1.81,0,0,0,2.46.72,1.87,1.87,0,0,0,.73-.72,5.21,5.21,0,0,0,0-4.91,1.82,1.82,0,0,0-1.59-1A1.77,1.77,0,0,0,112,224.85Z"/><path d="M135.46,223.13h.83v5.32h1v.83h-1v2.14h-1v-2.14h-4v-.66Zm-.13,1.51-2.94,3.81h2.92Z"/><path d="M144,224.22a4.87,4.87,0,0,1,.92,3.06,5,5,0,0,1-.91,3.07,2.91,2.91,0,0,1-4.65,0,5.61,5.61,0,0,1,0-6.14,2.78,2.78,0,0,1,3.86-.73,2.71,2.71,0,0,1,.74.73Zm-3.87.63a5.26,5.26,0,0,0,0,4.91,1.79,1.79,0,0,0,1.58.94,1.85,1.85,0,0,0,1.61-.94,5.32,5.32,0,0,0,0-4.91,1.84,1.84,0,0,0-1.61-1,1.77,1.77,0,0,0-1.6,1Z"/><path d="M160.7,223.13h4.65v.8h-3.78l-.29,3a2.42,2.42,0,0,1,1.87-.86,2.48,2.48,0,0,1,1.88.78,2.7,2.7,0,0,1,.71,1.91,2.61,2.61,0,0,1-.82,2,3,3,0,0,1-2.14.76,3.6,3.6,0,0,1-2.86-1.33l.61-.73a2.71,2.71,0,0,0,2.25,1.16,1.94,1.94,0,0,0,1.4-.51,1.95,1.95,0,0,0,0-2.68,1.83,1.83,0,0,0-1.31-.52,1.66,1.66,0,0,0-1.66,1.05l-1-.41Z"/><path d="M172.48,224.22a5.63,5.63,0,0,1,0,6.13,2.77,2.77,0,0,1-3.84.8,2.81,2.81,0,0,1-.81-.8,5.69,5.69,0,0,1,0-6.14,2.8,2.8,0,0,1,3.87-.78h0a2.72,2.72,0,0,1,.77.78Zm-3.88.63a4.39,4.39,0,0,0-.61,2.45,4.7,4.7,0,0,0,.6,2.46,1.81,1.81,0,0,0,2.46.72,1.87,1.87,0,0,0,.73-.72,5.21,5.21,0,0,0,0-4.91,1.82,1.82,0,0,0-1.6-1,1.79,1.79,0,0,0-1.58,1Z"/><path d="M191.68,223a3.15,3.15,0,0,1,1.81.56,3.5,3.5,0,0,1,.54.48l-.58.76a5.39,5.39,0,0,0-.6-.57,2,2,0,0,0-1.17-.35,1.86,1.86,0,0,0-1.47.69,4.56,4.56,0,0,0-.82,2.86,2.64,2.64,0,0,1,2.25-1.31,2.81,2.81,0,0,1,2,.74,2.53,2.53,0,0,1,.85,2,2.63,2.63,0,0,1-.82,2,3,3,0,0,1-2,.72,2.88,2.88,0,0,1-2.22-.93,4.8,4.8,0,0,1-1-3.27,5,5,0,0,1,1-3.33A2.9,2.9,0,0,1,191.68,223Zm-1.51,4.55a1.75,1.75,0,0,0-.56,1.3,1.83,1.83,0,0,0,.56,1.3,2,2,0,0,0,2.71,0,1.8,1.8,0,0,0,.05-2.56l-.05-.06a2,2,0,0,0-2.71,0Z"/><path d="M201.12,224.22a5.63,5.63,0,0,1,0,6.13,2.74,2.74,0,0,1-2.32,1.16,2.79,2.79,0,0,1-2.33-1.16,5.65,5.65,0,0,1,0-6.14,2.9,2.9,0,0,1,4.05-.6,2.84,2.84,0,0,1,.6.6Zm-3.87.63a5.26,5.26,0,0,0,0,4.91,1.83,1.83,0,0,0,2.47.71,1.86,1.86,0,0,0,.71-.71,5.21,5.21,0,0,0,0-4.91,1.82,1.82,0,0,0-1.6-1A1.79,1.79,0,0,0,197.25,224.85Z"/><path d="M217.73,223.13h5.65v.65l-3.62,7.64h-1.08l3.64-7.46h-4.65Z"/><path d="M230.06,224.22a5.63,5.63,0,0,1,0,6.13,2.77,2.77,0,0,1-3.84.8,2.81,2.81,0,0,1-.81-.8,5.65,5.65,0,0,1,0-6.14,2.8,2.8,0,0,1,3.87-.78h0a2.76,2.76,0,0,1,.78.78Zm-3.88.63a4.48,4.48,0,0,0-.6,2.45,4.6,4.6,0,0,0,.59,2.46,1.81,1.81,0,0,0,2.46.72,1.85,1.85,0,0,0,.72-.72,5.15,5.15,0,0,0,0-4.91,1.79,1.79,0,0,0-1.59-1A1.77,1.77,0,0,0,226.18,224.85Z"/><path d="M250.42,223.54a1.78,1.78,0,0,1,.77,1.55,1.88,1.88,0,0,1-1.44,1.9,2.61,2.61,0,0,1,1.25.87,2.38,2.38,0,0,1,.47,1.43,2,2,0,0,1-.84,1.7,4.22,4.22,0,0,1-4.29,0,1.94,1.94,0,0,1-.82-1.7,2.31,2.31,0,0,1,.46-1.43,2.63,2.63,0,0,1,1.23-.87,1.88,1.88,0,0,1-1.44-1.9,1.78,1.78,0,0,1,.77-1.55,3.8,3.8,0,0,1,3.88,0Zm-3.35,4.36a1.52,1.52,0,0,0-.56,1.24,1.36,1.36,0,0,0,.56,1.16,2.7,2.7,0,0,0,2.82,0,1.32,1.32,0,0,0,.55-1.16,1.53,1.53,0,0,0-.55-1.26,2.34,2.34,0,0,0-2.82,0Zm.17-3.68a1.28,1.28,0,0,0-.19,1.8,1.14,1.14,0,0,0,.19.19,2.33,2.33,0,0,0,2.44,0,1.28,1.28,0,0,0,0-2,2,2,0,0,0-1.23-.33,2.19,2.19,0,0,0-1.25.33Z"/><path d="M258.15,224.22a5.63,5.63,0,0,1,0,6.13,2.78,2.78,0,0,1-4.65,0,5.61,5.61,0,0,1,0-6.14,2.8,2.8,0,0,1,3.87-.78h0a2.76,2.76,0,0,1,.78.78Zm-3.88.63a4.48,4.48,0,0,0-.62,2.45,4.81,4.81,0,0,0,.61,2.46,1.81,1.81,0,0,0,2.46.72,1.91,1.91,0,0,0,.72-.72,5.15,5.15,0,0,0,0-4.91,1.79,1.79,0,0,0-1.59-1,1.77,1.77,0,0,0-1.58,1Z"/><path d="M276.86,223a2.84,2.84,0,0,1,2.22.94,4.82,4.82,0,0,1,1,3.27,4.92,4.92,0,0,1-1,3.34,2.86,2.86,0,0,1-2.32,1,3.28,3.28,0,0,1-1.8-.54,5.37,5.37,0,0,1-.57-.5l.59-.74a8.24,8.24,0,0,0,.62.56,2,2,0,0,0,2.62-.34,4.37,4.37,0,0,0,.82-2.86,2.56,2.56,0,0,1-2.25,1.31,2.86,2.86,0,0,1-1.94-.73,2.8,2.8,0,0,1,0-3.94h0A2.82,2.82,0,0,1,276.86,223Zm-1.29,1.45a1.75,1.75,0,0,0-.56,1.31,1.79,1.79,0,0,0,.56,1.3,2,2,0,0,0,2.71,0,1.83,1.83,0,0,0,.05-2.57l-.05,0a1.84,1.84,0,0,0-1.36-.54,1.81,1.81,0,0,0-1.35.57Z"/><path d="M286.74,224.22a4.93,4.93,0,0,1,.92,3.06,5,5,0,0,1-.91,3.07,2.79,2.79,0,0,1-2.32,1.16,2.74,2.74,0,0,1-2.33-1.16,5.61,5.61,0,0,1,0-6.14,2.78,2.78,0,0,1,3.86-.73,2.54,2.54,0,0,1,.73.73Zm-3.87.63a5.21,5.21,0,0,0,0,4.91,1.81,1.81,0,0,0,3.18,0,5.32,5.32,0,0,0,0-4.91,1.82,1.82,0,0,0-1.6-1A1.77,1.77,0,0,0,282.87,224.85Z"/><path d="M301.67,223.13h.81v8.29h-1v-7.27l-1.43.75-.37-.7Z"/><path d="M309.39,224.22a5.63,5.63,0,0,1,0,6.13,2.91,2.91,0,0,1-4.65,0,5.65,5.65,0,0,1,0-6.14,2.9,2.9,0,0,1,4.05-.6,3.1,3.1,0,0,1,.6.6Zm-3.87.63a4.4,4.4,0,0,0-.62,2.45,4.61,4.61,0,0,0,.6,2.46,1.83,1.83,0,0,0,2.47.71,1.8,1.8,0,0,0,.71-.71,5.21,5.21,0,0,0,0-4.91,1.82,1.82,0,0,0-1.59-1,1.74,1.74,0,0,0-1.57,1Z"/><path d="M317,224.22a5.63,5.63,0,0,1,0,6.13,2.91,2.91,0,0,1-4.65,0,5.65,5.65,0,0,1,0-6.14,2.9,2.9,0,0,1,4.05-.6,2.84,2.84,0,0,1,.6.6Zm-3.87.63a5.21,5.21,0,0,0,0,4.91,1.82,1.82,0,0,0,2.46.71,1.8,1.8,0,0,0,.71-.71,5.21,5.21,0,0,0,0-4.91,1.82,1.82,0,0,0-1.59-1A1.77,1.77,0,0,0,313.11,224.85Z"/><rect class="cls-2" x="311.57" y="196.59" width="1.15" height="11.85"/><rect class="cls-2" x="314.43" y="196.59" width="1.15" height="11.85"/><rect class="cls-2" x="317.28" y="196.59" width="1.15" height="11.85"/><rect class="cls-2" x="320.14" y="196.59" width="1.15" height="11.8"/><rect class="cls-2" x="322.99" y="196.59" width="1.15" height="17.13"/><rect class="cls-2" x="325.85" y="196.59" width="1.15" height="11.85"/><rect class="cls-2" x="328.7" y="196.59" width="1.15" height="11.85"/><rect class="cls-2" x="331.55" y="196.59" width="1.15" height="11.85"/><rect class="cls-2" x="334.41" y="196.59" width="1.15" height="11.8"/><rect class="cls-2" x="337.26" y="196.59" width="1.15" height="23.61"/><rect class="cls-3" y="196.45" width="10.06" height="41.13"/><path class="cls-3" d="M3.32,210h12a1.83,1.83,0,0,1,1.83,1.83h0v10.43a1.83,1.83,0,0,1-1.83,1.83h-12a.31.31,0,0,1-.31-.31V210.28a.31.31,0,0,1,.31-.31Z"/><path class="cls-3" d="M355,179.1h29.41v75.83H355a20.07,20.07,0,0,1-20-20.05V199.15A20.06,20.06,0,0,1,355,179.1Z"/><rect class="cls-4" x="340.26" y="199.39" width="37.91" height="35.26" rx="4.59"/><rect class="cls-5" x="347.57" y="199.39" width="20" height="35.26" rx="2.6"/><rect class="cls-6" x="350.83" y="202.11" width="3.61" height="27.75" rx="0.47"/><rect class="cls-6" x="355.77" y="202.11" width="3.61" height="27.75" rx="0.47"/><rect class="cls-6" x="360.44" y="202.11" width="3.61" height="27.75" rx="0.47"/><path class="cls-5" d="M356.1,254.93H384v6.81H356.1a2.49,2.49,0,0,1-2.47-2.47h0v-1.86A2.47,2.47,0,0,1,356.1,255h0Z"/><path class="cls-7" d="M162.68,158.93c-6-18.85-7.45-30.11-7.79-35,3.17-7.14,7.17-20.51-1.08-30.27a43.79,43.79,0,0,1,.41,11.26c.15-5.89-1.15-12.54-6-18.23a39.85,39.85,0,0,1,.58,7.23,24.91,24.91,0,0,0-5.43-11.53,37.67,37.67,0,0,1,.56,6.27,24.56,24.56,0,0,0-7.55-8.62,35.41,35.41,0,0,1,1.72,4.57,24.77,24.77,0,0,0-8.81-5.8s.77.92,1.88,2.58A31.74,31.74,0,0,0,126.33,80h0a26.61,26.61,0,0,0-14.66.84c-6,1.47-12.42,4.72-16.47,11.6,0,0,1-.58,2.72-1.37l-.36.45a23.22,23.22,0,0,0-5.28,6.19s.55-.33,1.56-.82a.48.48,0,0,0,0,.37,40.27,40.27,0,0,0,6.91,11.42.54.54,0,0,1,0,.76.59.59,0,0,1-.29.13c-3.36.26-14.15,0-20.07-13.68a.57.57,0,0,1,0-.22c0-1.63.22-20.93-13-24A2,2,0,0,1,65.9,70.2L64.7,56.71a.54.54,0,0,0-.66-.39.51.51,0,0,0-.26.14c-1.42,1.47-6.57,5.71-6.23,13.46a1.43,1.43,0,0,1-1.36,1.47c-3.79.12-13.75,1.43-15.39,12a4,4,0,0,1-3.95,3.41H25.63a2,2,0,0,0-2,2c0,.09,0,.19,0,.29.58,3.94,3,12.13,13.09,17.2a4.1,4.1,0,0,1,2.28,3.57c-1.43,1.92-6.72,10.71-1.88,32.12a43.56,43.56,0,0,1,.28-7,25.75,25.75,0,0,0,5.91,15.4,33.84,33.84,0,0,1-.45-3.76,38.54,38.54,0,0,0,16.21,17.18.53.53,0,0,1,.28.46V186.4a.51.51,0,0,1-.23.43c-1.21.86-6.8,5.06-7.61,7.91a.53.53,0,0,0,.38.64l.15,0H66.66a1,1,0,0,0,1-1h0a1,1,0,0,1,.87-1c4-.57,20.47-3.68,20.47-15.7V163.57a.57.57,0,0,1,.1-.31c.72-1,5.9-7.08,24.88-6.68,20.22.41,28.42,19.35,28.8,20.24a.08.08,0,0,1,0,.07c.14.62,1.86,9.28-4.34,11.86a.54.54,0,0,0-.23.19l-2.35,3.52a.55.55,0,0,0,.16.75.6.6,0,0,0,.29.08h11.42a.54.54,0,0,1,.52.56.88.88,0,0,1,0,.16l-.72,1.72a.54.54,0,0,0,.33.69.47.47,0,0,0,.17,0h14.27a.53.53,0,0,0,.45-.25C164,194.47,170.3,183,162.68,158.93Z"/><path class="cls-8" d="M38.72,111.55s-7.2,7.85-1.84,31.43c0,0-.11-5.63.25-6.8,0,0,.33,9.24,5.77,15,0,0-.5-3.34-.42-3.72s4.19,10.92,16.12,17.3c0,0-6.37-9.6-4.28-17.65,0,0,2.79.63,3.23,6,0,0,4.8-12.53.42-19.64,0,0,.94-.7,3.66.7,0,0,.7-4.29-5.12-13.16,0,0,3.41,3.17,4.66,4.73C61.17,125.76,57.69,111.55,38.72,111.55Z"/><path class="cls-9" d="M26,86.8a2.06,2.06,0,0,0-2.35,2A15.68,15.68,0,0,0,24.06,91a4.91,4.91,0,0,0,1.39-.7A5.06,5.06,0,0,0,27.75,87l0-.24Z"/><path class="cls-8" d="M151,95.85c.91,3.41.41,11,.41,11C151.82,95.33,145.6,89,145.6,89a46.83,46.83,0,0,1,.56,7,24.29,24.29,0,0,0-5.31-11.21,41.08,41.08,0,0,1,.55,6.14A24.59,24.59,0,0,0,134,82.5c.63,1.46,1.2,3,1.69,4.48a24.89,24.89,0,0,0-8.63-5.68,30.05,30.05,0,0,1,1.84,2.52,26.75,26.75,0,0,0-18-1,18.32,18.32,0,0,1-2.05.57c-9.51,1.87-15.18,11.17-15.18,11.17l2.67-1.34c-2.16,1.36-5.53,6.5-5.53,6.5a74.75,74.75,0,0,1,8.75-3,13.72,13.72,0,0,0-3,3.18A61.17,61.17,0,0,1,104.52,96a13.54,13.54,0,0,0-3.11,3.34,60.67,60.67,0,0,1,8.5-4.14,13.48,13.48,0,0,0-3.71,3.74,61.24,61.24,0,0,1,8.42-4.11h0A13.63,13.63,0,0,0,111,98.48s7.44-3.42,7.69-3.39a13.75,13.75,0,0,0-3.84,3.11s7.54-2.42,7.82-2.35A13.62,13.62,0,0,0,118.08,98s8.77-.85,8.88-.81a13.67,13.67,0,0,0-4.24,2.1s7.58-.59,7.84-.45a14,14,0,0,0-3.21,1.74h0a11.5,11.5,0,0,1,9.34,2.31c11.38,9.19,15.37,22.82,15.37,22.82C160.89,104.87,151,95.85,151,95.85Z"/><path class="cls-10" d="M67.6,193.4c.19-1,.4-1.94.61-2.9l.7-2.89.7-2.87c.24-1,.51-1.9.75-2.85l.36-1.33,1,1a5.23,5.23,0,0,1,.83,1.09,5.87,5.87,0,0,1,.51,1.25c0,.23.09.47.12.7V185a.34.34,0,0,0,0-.17.15.15,0,0,0,0-.09.82.82,0,0,0-.2-.25.91.91,0,0,0-.62-.2.88.88,0,0,0-.35.1l-.12.08-.06.05h0l.09-.17.21-.45a18.48,18.48,0,0,0,.7-2c.2-.7.42-1.4.6-2.1A58.31,58.31,0,0,0,74.82,171c.14-1.47.22-2.95.24-4.43s0-3,0-4.45a78.84,78.84,0,0,0-1-8.93,40.49,40.49,0,0,1,2.32,8.8c.23,1.51.36,3,.44,4.56s.05,3.06,0,4.59a44.27,44.27,0,0,1-1.43,9.08,25.43,25.43,0,0,1-1.57,4.41c-.09.19-.19.37-.3.56a3.37,3.37,0,0,1-.19.32l-.16.19a.71.71,0,0,1-.15.15l-.18.13a1,1,0,0,1-.42.12,1,1,0,0,1-.69-.22.89.89,0,0,1-.23-.28.12.12,0,0,0-.06-.12.86.86,0,0,1-.06-.23v-.5a3.11,3.11,0,0,0-.06-.44,4.12,4.12,0,0,0-.28-.86,3.59,3.59,0,0,0-.46-.75l1.34-.33c-.33.92-.65,1.85-1,2.79l-1,2.79-1.09,2.75C68.39,191.59,68,192.49,67.6,193.4Z"/><path class="cls-10" d="M145.66,193.76a10.87,10.87,0,0,1,2-2.32,4.23,4.23,0,0,1,1.39-.85,1.67,1.67,0,0,1,.44-.11h.12s-.14,0-.17.05a0,0,0,0,0,0,0h0a3,3,0,0,0,.06-.59,19.92,19.92,0,0,0-.15-2.89c-.11-1-.22-2-.38-2.93-.32-1.95-.65-3.89-1.09-5.8s-.9-3.84-1.48-5.71a49.7,49.7,0,0,0-1.92-5.54,34.89,34.89,0,0,0-2.57-5.2,18.8,18.8,0,0,0-3.66-4.43,11.16,11.16,0,0,0-5.19-2.57,10.06,10.06,0,0,1,5.8,1.74,17.17,17.17,0,0,1,4.4,4.35,37.07,37.07,0,0,1,5.16,11.05A59,59,0,0,1,150.51,184a29.11,29.11,0,0,1-.07,6.12,3.55,3.55,0,0,1-.25.86l-.09.14a.77.77,0,0,1-.18.18.67.67,0,0,1-.34.1h-.36a3.83,3.83,0,0,0-1.25.53A15.23,15.23,0,0,0,145.66,193.76Z"/><ellipse class="cls-11" cx="44.99" cy="85.55" rx="3.29" ry="4.23"/><circle class="cls-12" cx="43.82" cy="85.67" r="1.82"/><circle class="cls-12" cx="34.96" cy="92.64" r="0.65"/><circle class="cls-12" cx="32.46" cy="95.3" r="0.65"/><circle class="cls-12" cx="34.96" cy="98.73" r="0.65"/><line class="cls-13" x1="23.94" y1="196.02" x2="23.94"/><line class="cls-13" x1="166.65" y1="196.02" x2="166.65"/></g></g></svg>