<svg xmlns="http://www.w3.org/2000/svg" viewBox="0 0 384.44 261.74"><defs><style>.cls-1{fill:#ead144;}.cls-2{fill:#1d1d1b;}.cls-3{fill:#404042;}.cls-4{fill:#565656;}.cls-5{fill:#f9dc4b;}.cls-6{fill:#f2cb2a;}.cls-7{fill:#f4dfab;}.cls-8{fill:#f7ebd2;}.cls-9{fill:#7c5d27;}.cls-10{fill:#b2996d;}.cls-11{fill:#f7f4f0;}.cls-12{fill:#493e32;}.cls-13{fill:none;stroke:#3c7baa;stroke-miterlimit:10;stroke-dasharray:5 5;}</style></defs><title>60 </title><g id="Capa_2" data-name="Capa 2"><g id="Capa_1-2" data-name="Capa 1"><rect class="cls-1" y="196.45" width="384.44" height="41.13"/><rect class="cls-2" x="23.36" y="196.59" width="1.15" height="23.61"/><rect class="cls-2" x="26.22" y="196.59" width="1.15" height="11.85"/><rect class="cls-2" x="29.07" y="196.59" width="1.15" height="11.85"/><rect class="cls-2" x="31.93" y="196.59" width="1.15" height="11.85"/><rect class="cls-2" x="34.78" y="196.59" width="1.15" height="11.8"/><rect class="cls-2" x="37.64" y="196.59" width="1.15" height="17.13"/><rect class="cls-2" x="40.49" y="196.59" width="1.15" height="11.85"/><rect class="cls-2" x="43.34" y="196.59" width="1.15" height="11.85"/><rect class="cls-2" x="46.2" y="196.59" width="1.15" height="11.85"/><rect class="cls-2" x="49.05" y="196.59" width="1.15" height="11.8"/><rect class="cls-2" x="51.91" y="196.59" width="1.15" height="23.61"/><rect class="cls-2" x="54.76" y="196.59" width="1.15" height="11.85"/><rect class="cls-2" x="57.62" y="196.59" width="1.15" height="11.85"/><rect class="cls-2" x="60.47" y="196.59" width="1.15" height="11.85"/><rect class="cls-2" x="63.32" y="196.59" width="1.15" height="11.8"/><rect class="cls-2" x="66.18" y="196.59" width="1.15" height="17.13"/><rect class="cls-2" x="69.03" y="196.59" width="1.15" height="11.85"/><rect class="cls-2" x="71.89" y="196.59" width="1.15" height="11.85"/><rect class="cls-2" x="74.74" y="196.59" width="1.15" height="11.85"/><rect class="cls-2" x="77.6" y="196.59" width="1.15" height="11.8"/><rect class="cls-2" x="80.45" y="196.59" width="1.15" height="23.61"/><rect class="cls-2" x="83.31" y="196.59" width="1.15" height="11.85"/><rect class="cls-2" x="86.16" y="196.59" width="1.15" height="11.85"/><rect class="cls-2" x="89.01" y="196.59" width="1.15" height="11.85"/><rect class="cls-2" x="91.87" y="196.59" width="1.15" height="11.8"/><rect class="cls-2" x="94.72" y="196.59" width="1.15" height="17.13"/><rect class="cls-2" x="97.58" y="196.59" width="1.15" height="11.85"/><rect class="cls-2" x="100.43" y="196.59" width="1.15" height="11.85"/><rect class="cls-2" x="103.29" y="196.59" width="1.15" height="11.85"/><rect class="cls-2" x="106.14" y="196.59" width="1.15" height="11.8"/><rect class="cls-2" x="108.99" y="196.59" width="1.15" height="23.61"/><rect class="cls-2" x="111.85" y="196.59" width="1.15" height="11.85"/><rect class="cls-2" x="114.7" y="196.59" width="1.15" height="11.85"/><rect class="cls-2" x="117.56" y="196.59" width="1.15" height="11.85"/><rect class="cls-2" x="120.41" y="196.59" width="1.15" height="11.8"/><rect class="cls-2" x="123.27" y="196.59" width="1.15" height="17.13"/><rect class="cls-2" x="126.12" y="196.59" width="1.15" height="11.85"/><rect class="cls-2" x="128.98" y="196.59" width="1.15" height="11.85"/><rect class="cls-2" x="131.83" y="196.59" width="1.15" height="11.85"/><rect class="cls-2" x="134.68" y="196.59" width="1.15" height="11.8"/><rect class="cls-2" x="137.54" y="196.59" width="1.15" height="23.61"/><rect class="cls-2" x="140.39" y="196.59" width="1.15" height="11.85"/><rect class="cls-2" x="143.25" y="196.59" width="1.15" height="11.85"/><rect class="cls-2" x="146.1" y="196.59" width="1.15" height="11.85"/><rect class="cls-2" x="148.96" y="196.59" width="1.15" height="11.8"/><rect class="cls-2" x="151.81" y="196.59" width="1.15" height="17.13"/><rect class="cls-2" x="154.66" y="196.59" width="1.15" height="11.85"/><rect class="cls-2" x="157.52" y="196.59" width="1.15" height="11.85"/><rect class="cls-2" x="160.37" y="196.59" width="1.15" height="11.85"/><rect class="cls-2" x="163.23" y="196.59" width="1.15" height="11.8"/><rect class="cls-2" x="166.08" y="196.59" width="1.15" height="23.61"/><rect class="cls-2" x="168.94" y="196.59" width="1.15" height="11.85"/><rect class="cls-2" x="171.79" y="196.59" width="1.15" height="11.85"/><rect class="cls-2" x="174.65" y="196.59" width="1.15" height="11.85"/><rect class="cls-2" x="177.5" y="196.59" width="1.15" height="11.8"/><rect class="cls-2" x="180.35" y="196.59" width="1.15" height="17.13"/><rect class="cls-2" x="183.21" y="196.59" width="1.15" height="11.85"/><rect class="cls-2" x="186.06" y="196.59" width="1.15" height="11.85"/><rect class="cls-2" x="188.92" y="196.59" width="1.15" height="11.85"/><rect class="cls-2" x="191.77" y="196.59" width="1.15" height="11.8"/><rect class="cls-2" x="194.63" y="196.59" width="1.15" height="23.61"/><rect class="cls-2" x="197.48" y="196.59" width="1.15" height="11.85"/><rect class="cls-2" x="200.33" y="196.59" width="1.15" height="11.85"/><rect class="cls-2" x="203.19" y="196.59" width="1.15" height="11.85"/><rect class="cls-2" x="206.04" y="196.59" width="1.15" height="11.8"/><rect class="cls-2" x="208.9" y="196.59" width="1.15" height="17.13"/><rect class="cls-2" x="211.75" y="196.59" width="1.15" height="11.85"/><rect class="cls-2" x="214.61" y="196.59" width="1.15" height="11.85"/><rect class="cls-2" x="217.46" y="196.59" width="1.15" height="11.85"/><rect class="cls-2" x="220.31" y="196.59" width="1.15" height="11.8"/><rect class="cls-2" x="223.17" y="196.59" width="1.15" height="23.61"/><rect class="cls-2" x="226.02" y="196.59" width="1.15" height="11.85"/><rect class="cls-2" x="228.88" y="196.59" width="1.15" height="11.85"/><rect class="cls-2" x="231.73" y="196.59" width="1.15" height="11.85"/><rect class="cls-2" x="234.59" y="196.59" width="1.15" height="11.8"/><rect class="cls-2" x="237.44" y="196.59" width="1.15" height="17.13"/><rect class="cls-2" x="240.3" y="196.59" width="1.15" height="11.85"/><rect class="cls-2" x="243.15" y="196.59" width="1.15" height="11.85"/><rect class="cls-2" x="246" y="196.59" width="1.15" height="11.85"/><rect class="cls-2" x="248.86" y="196.59" width="1.15" height="11.8"/><rect class="cls-2" x="251.71" y="196.59" width="1.15" height="23.61"/><rect class="cls-2" x="254.57" y="196.59" width="1.15" height="11.85"/><rect class="cls-2" x="257.42" y="196.59" width="1.15" height="11.85"/><rect class="cls-2" x="260.28" y="196.59" width="1.15" height="11.85"/><rect class="cls-2" x="263.13" y="196.59" width="1.15" height="11.8"/><rect class="cls-2" x="265.98" y="196.59" width="1.15" height="17.13"/><rect class="cls-2" x="268.84" y="196.59" width="1.15" height="11.85"/><rect class="cls-2" x="271.69" y="196.59" width="1.15" height="11.85"/><rect class="cls-2" x="274.55" y="196.59" width="1.15" height="11.85"/><rect class="cls-2" x="277.4" y="196.59" width="1.15" height="11.8"/><rect class="cls-2" x="280.26" y="196.59" width="1.15" height="23.61"/><rect class="cls-2" x="283.11" y="196.59" width="1.15" height="11.85"/><rect class="cls-2" x="285.97" y="196.59" width="1.15" height="11.85"/><rect class="cls-2" x="288.82" y="196.59" width="1.15" height="11.85"/><rect class="cls-2" x="291.67" y="196.59" width="1.15" height="11.8"/><rect class="cls-2" x="294.53" y="196.59" width="1.15" height="17.13"/><rect class="cls-2" x="297.38" y="196.59" width="1.15" height="11.85"/><rect class="cls-2" x="300.24" y="196.59" width="1.15" height="11.85"/><rect class="cls-2" x="303.09" y="196.59" width="1.15" height="11.85"/><rect class="cls-2" x="305.95" y="196.59" width="1.15" height="11.8"/><rect class="cls-2" x="308.8" y="196.59" width="1.15" height="23.61"/><path d="M26,224.22a5.63,5.63,0,0,1,0,6.13,2.74,2.74,0,0,1-2.32,1.16,2.79,2.79,0,0,1-2.33-1.16,5.65,5.65,0,0,1,0-6.14,2.9,2.9,0,0,1,4.05-.6,2.84,2.84,0,0,1,.6.6Zm-3.87.63a4.48,4.48,0,0,0-.62,2.45,4.62,4.62,0,0,0,.61,2.46,1.82,1.82,0,0,0,2.46.71,1.8,1.8,0,0,0,.71-.71,5.15,5.15,0,0,0,0-4.91,1.79,1.79,0,0,0-1.59-1A1.76,1.76,0,0,0,22.17,224.85Z"/><path d="M49.71,223.13h.81v8.29h-1v-7.27l-1.44.75-.36-.7Z"/><path d="M57.44,224.22a5.59,5.59,0,0,1,0,6.13,2.77,2.77,0,0,1-3.84.75,2.55,2.55,0,0,1-.75-.75,5.57,5.57,0,0,1,0-6.14,2.77,2.77,0,0,1,3.85-.73,2.71,2.71,0,0,1,.74.73Zm-3.87.63a5.21,5.21,0,0,0,0,4.91,1.79,1.79,0,0,0,1.58.94,1.85,1.85,0,0,0,1.6-.94,5.32,5.32,0,0,0,0-4.91,1.82,1.82,0,0,0-1.6-1A1.77,1.77,0,0,0,53.57,224.85Z"/><path d="M78.34,223a2.8,2.8,0,0,1,2,.74,2.26,2.26,0,0,1,.7,1.71,3,3,0,0,1-.53,1.6,13.09,13.09,0,0,1-1.29,1.5l-1.91,2H81v.85H75.89v-.76L78.4,228a15.25,15.25,0,0,0,1.16-1.39,2.05,2.05,0,0,0,.39-1.17,1.59,1.59,0,0,0-.47-1.16,1.65,1.65,0,0,0-1.16-.44,2.54,2.54,0,0,0-1.87.81l-.56-.72A3.47,3.47,0,0,1,78.34,223Z"/><path d="M87.71,224.22a5.63,5.63,0,0,1,0,6.13,2.77,2.77,0,0,1-3.84.8,2.81,2.81,0,0,1-.81-.8,5.65,5.65,0,0,1,0-6.14,2.8,2.8,0,0,1,3.87-.78h0a2.76,2.76,0,0,1,.78.78Zm-3.87.63a4.48,4.48,0,0,0-.62,2.45,4.7,4.7,0,0,0,.6,2.46,1.81,1.81,0,0,0,2.46.72,1.85,1.85,0,0,0,.72-.72,5.15,5.15,0,0,0,0-4.91,1.79,1.79,0,0,0-1.59-1A1.76,1.76,0,0,0,83.84,224.85Z"/><path d="M106.17,223a3.35,3.35,0,0,1,2,.55,1.79,1.79,0,0,1,.79,1.54,1.92,1.92,0,0,1-1.52,1.9,2.62,2.62,0,0,1,1.3.87,2.29,2.29,0,0,1,.47,1.42,1.9,1.9,0,0,1-.86,1.73,4,4,0,0,1-2.2.56,4.66,4.66,0,0,1-2.65-.71l.59-.71a3.52,3.52,0,0,0,2,.53,2.72,2.72,0,0,0,1.55-.39,1.31,1.31,0,0,0,.57-1.16,1.54,1.54,0,0,0-.59-1.24,2.32,2.32,0,0,0-1.44-.47h-1v-.85h1a2.19,2.19,0,0,0,1.26-.37,1.27,1.27,0,0,0,.21-1.77h0a1.34,1.34,0,0,0-.2-.21,2.4,2.4,0,0,0-1.39-.32,3.84,3.84,0,0,0-1.67.33l-.57-.68A4.89,4.89,0,0,1,106.17,223Z"/><path d="M115.89,224.22a5.63,5.63,0,0,1,0,6.13,2.78,2.78,0,0,1-4.65,0,5.65,5.65,0,0,1,0-6.14,2.8,2.8,0,0,1,3.87-.78h0a2.89,2.89,0,0,1,.78.78Zm-3.88.63a4.4,4.4,0,0,0-.62,2.45,4.8,4.8,0,0,0,.6,2.46,1.81,1.81,0,0,0,2.46.72,1.87,1.87,0,0,0,.73-.72,5.21,5.21,0,0,0,0-4.91,1.82,1.82,0,0,0-1.59-1A1.77,1.77,0,0,0,112,224.85Z"/><path d="M135.46,223.13h.83v5.32h1v.83h-1v2.14h-1v-2.14h-4v-.66Zm-.13,1.51-2.94,3.81h2.92Z"/><path d="M144,224.22a4.87,4.87,0,0,1,.92,3.06,5,5,0,0,1-.91,3.07,2.91,2.91,0,0,1-4.65,0,5.61,5.61,0,0,1,0-6.14,2.78,2.78,0,0,1,3.86-.73,2.71,2.71,0,0,1,.74.73Zm-3.87.63a5.26,5.26,0,0,0,0,4.91,1.79,1.79,0,0,0,1.58.94,1.85,1.85,0,0,0,1.61-.94,5.32,5.32,0,0,0,0-4.91,1.84,1.84,0,0,0-1.61-1,1.77,1.77,0,0,0-1.6,1Z"/><path d="M160.7,223.13h4.65v.8h-3.78l-.29,3a2.42,2.42,0,0,1,1.87-.86,2.48,2.48,0,0,1,1.88.78,2.7,2.7,0,0,1,.71,1.91,2.61,2.61,0,0,1-.82,2,3,3,0,0,1-2.14.76,3.6,3.6,0,0,1-2.86-1.33l.61-.73a2.71,2.71,0,0,0,2.25,1.16,1.94,1.94,0,0,0,1.4-.51,1.95,1.95,0,0,0,0-2.68,1.83,1.83,0,0,0-1.31-.52,1.66,1.66,0,0,0-1.66,1.05l-1-.41Z"/><path d="M172.48,224.22a5.63,5.63,0,0,1,0,6.13,2.77,2.77,0,0,1-3.84.8,2.81,2.81,0,0,1-.81-.8,5.69,5.69,0,0,1,0-6.14,2.8,2.8,0,0,1,3.87-.78h0a2.72,2.72,0,0,1,.77.78Zm-3.88.63a4.39,4.39,0,0,0-.61,2.45,4.7,4.7,0,0,0,.6,2.46,1.81,1.81,0,0,0,2.46.72,1.87,1.87,0,0,0,.73-.72,5.21,5.21,0,0,0,0-4.91,1.82,1.82,0,0,0-1.6-1,1.79,1.79,0,0,0-1.58,1Z"/><path d="M191.68,223a3.15,3.15,0,0,1,1.81.56,3.5,3.5,0,0,1,.54.48l-.58.76a5.39,5.39,0,0,0-.6-.57,2,2,0,0,0-1.17-.35,1.86,1.86,0,0,0-1.47.69,4.56,4.56,0,0,0-.82,2.86,2.64,2.64,0,0,1,2.25-1.31,2.81,2.81,0,0,1,2,.74,2.53,2.53,0,0,1,.85,2,2.63,2.63,0,0,1-.82,2,3,3,0,0,1-2,.72,2.88,2.88,0,0,1-2.22-.93,4.8,4.8,0,0,1-1-3.27,5,5,0,0,1,1-3.33A2.9,2.9,0,0,1,191.68,223Zm-1.51,4.55a1.75,1.75,0,0,0-.56,1.3,1.83,1.83,0,0,0,.56,1.3,2,2,0,0,0,2.71,0,1.8,1.8,0,0,0,.05-2.56l-.05-.06a2,2,0,0,0-2.71,0Z"/><path d="M201.12,224.22a5.63,5.63,0,0,1,0,6.13,2.74,2.74,0,0,1-2.32,1.16,2.79,2.79,0,0,1-2.33-1.16,5.65,5.65,0,0,1,0-6.14,2.9,2.9,0,0,1,4.05-.6,2.84,2.84,0,0,1,.6.6Zm-3.87.63a5.26,5.26,0,0,0,0,4.91,1.83,1.83,0,0,0,2.47.71,1.86,1.86,0,0,0,.71-.71,5.21,5.21,0,0,0,0-4.91,1.82,1.82,0,0,0-1.6-1A1.79,1.79,0,0,0,197.25,224.85Z"/><path d="M217.73,223.13h5.65v.65l-3.62,7.64h-1.08l3.64-7.46h-4.65Z"/><path d="M230.06,224.22a5.63,5.63,0,0,1,0,6.13,2.77,2.77,0,0,1-3.84.8,2.81,2.81,0,0,1-.81-.8,5.65,5.65,0,0,1,0-6.14,2.8,2.8,0,0,1,3.87-.78h0a2.76,2.76,0,0,1,.78.78Zm-3.88.63a4.48,4.48,0,0,0-.6,2.45,4.6,4.6,0,0,0,.59,2.46,1.81,1.81,0,0,0,2.46.72,1.85,1.85,0,0,0,.72-.72,5.15,5.15,0,0,0,0-4.91,1.79,1.79,0,0,0-1.59-1A1.77,1.77,0,0,0,226.18,224.85Z"/><path d="M250.42,223.54a1.78,1.78,0,0,1,.77,1.55,1.88,1.88,0,0,1-1.44,1.9,2.61,2.61,0,0,1,1.25.87,2.38,2.38,0,0,1,.47,1.43,2,2,0,0,1-.84,1.7,4.22,4.22,0,0,1-4.29,0,1.94,1.94,0,0,1-.82-1.7,2.31,2.31,0,0,1,.46-1.43,2.63,2.63,0,0,1,1.23-.87,1.88,1.88,0,0,1-1.44-1.9,1.78,1.78,0,0,1,.77-1.55,3.8,3.8,0,0,1,3.88,0Zm-3.35,4.36a1.52,1.52,0,0,0-.56,1.24,1.36,1.36,0,0,0,.56,1.16,2.7,2.7,0,0,0,2.82,0,1.32,1.32,0,0,0,.55-1.16,1.53,1.53,0,0,0-.55-1.26,2.34,2.34,0,0,0-2.82,0Zm.17-3.68a1.28,1.28,0,0,0-.19,1.8,1.14,1.14,0,0,0,.19.19,2.33,2.33,0,0,0,2.44,0,1.28,1.28,0,0,0,0-2,2,2,0,0,0-1.23-.33,2.19,2.19,0,0,0-1.25.33Z"/><path d="M258.15,224.22a5.63,5.63,0,0,1,0,6.13,2.78,2.78,0,0,1-4.65,0,5.61,5.61,0,0,1,0-6.14,2.8,2.8,0,0,1,3.87-.78h0a2.76,2.76,0,0,1,.78.78Zm-3.88.63a4.48,4.48,0,0,0-.62,2.45,4.81,4.81,0,0,0,.61,2.46,1.81,1.81,0,0,0,2.46.72,1.91,1.91,0,0,0,.72-.72,5.15,5.15,0,0,0,0-4.91,1.79,1.79,0,0,0-1.59-1,1.77,1.77,0,0,0-1.58,1Z"/><path d="M276.86,223a2.84,2.84,0,0,1,2.22.94,4.82,4.82,0,0,1,1,3.27,4.92,4.92,0,0,1-1,3.34,2.86,2.86,0,0,1-2.32,1,3.28,3.28,0,0,1-1.8-.54,5.37,5.37,0,0,1-.57-.5l.59-.74a8.24,8.24,0,0,0,.62.56,2,2,0,0,0,2.62-.34,4.37,4.37,0,0,0,.82-2.86,2.56,2.56,0,0,1-2.25,1.31,2.86,2.86,0,0,1-1.94-.73,2.8,2.8,0,0,1,0-3.94h0A2.82,2.82,0,0,1,276.86,223Zm-1.29,1.45a1.75,1.75,0,0,0-.56,1.31,1.79,1.79,0,0,0,.56,1.3,2,2,0,0,0,2.71,0,1.83,1.83,0,0,0,.05-2.57l-.05,0a1.84,1.84,0,0,0-1.36-.54,1.81,1.81,0,0,0-1.35.57Z"/><path d="M286.74,224.22a4.93,4.93,0,0,1,.92,3.06,5,5,0,0,1-.91,3.07,2.79,2.79,0,0,1-2.32,1.16,2.74,2.74,0,0,1-2.33-1.16,5.61,5.61,0,0,1,0-6.14,2.78,2.78,0,0,1,3.86-.73,2.54,2.54,0,0,1,.73.73Zm-3.87.63a5.21,5.21,0,0,0,0,4.91,1.81,1.81,0,0,0,3.18,0,5.32,5.32,0,0,0,0-4.91,1.82,1.82,0,0,0-1.6-1A1.77,1.77,0,0,0,282.87,224.85Z"/><path d="M301.67,223.13h.81v8.29h-1v-7.27l-1.43.75-.37-.7Z"/><path d="M309.39,224.22a5.63,5.63,0,0,1,0,6.13,2.91,2.91,0,0,1-4.65,0,5.65,5.65,0,0,1,0-6.14,2.9,2.9,0,0,1,4.05-.6,3.1,3.1,0,0,1,.6.6Zm-3.87.63a4.4,4.4,0,0,0-.62,2.45,4.61,4.61,0,0,0,.6,2.46,1.83,1.83,0,0,0,2.47.71,1.8,1.8,0,0,0,.71-.71,5.21,5.21,0,0,0,0-4.91,1.82,1.82,0,0,0-1.59-1,1.74,1.74,0,0,0-1.57,1Z"/><path d="M317,224.22a5.63,5.63,0,0,1,0,6.13,2.91,2.91,0,0,1-4.65,0,5.65,5.65,0,0,1,0-6.14,2.9,2.9,0,0,1,4.05-.6,2.84,2.84,0,0,1,.6.6Zm-3.87.63a5.21,5.21,0,0,0,0,4.91,1.82,1.82,0,0,0,2.46.71,1.8,1.8,0,0,0,.71-.71,5.21,5.21,0,0,0,0-4.91,1.82,1.82,0,0,0-1.59-1A1.77,1.77,0,0,0,313.11,224.85Z"/><rect class="cls-2" x="311.57" y="196.59" width="1.15" height="11.85"/><rect class="cls-2" x="314.43" y="196.59" width="1.15" height="11.85"/><rect class="cls-2" x="317.28" y="196.59" width="1.15" height="11.85"/><rect class="cls-2" x="320.14" y="196.59" width="1.15" height="11.8"/><rect class="cls-2" x="322.99" y="196.59" width="1.15" height="17.13"/><rect class="cls-2" x="325.85" y="196.59" width="1.15" height="11.85"/><rect class="cls-2" x="328.7" y="196.59" width="1.15" height="11.85"/><rect class="cls-2" x="331.55" y="196.59" width="1.15" height="11.85"/><rect class="cls-2" x="334.41" y="196.59" width="1.15" height="11.8"/><rect class="cls-2" x="337.26" y="196.59" width="1.15" height="23.61"/><rect class="cls-3" y="196.45" width="10.06" height="41.13"/><path class="cls-3" d="M3.32,210h12a1.83,1.83,0,0,1,1.83,1.83h0v10.43a1.83,1.83,0,0,1-1.83,1.83h-12a.31.31,0,0,1-.31-.31V210.28a.31.31,0,0,1,.31-.31Z"/><path class="cls-3" d="M355,179.1h29.41v75.83H355a20.07,20.07,0,0,1-20-20.05V199.15A20.06,20.06,0,0,1,355,179.1Z"/><rect class="cls-4" x="340.26" y="199.39" width="37.91" height="35.26" rx="4.59"/><rect class="cls-5" x="347.57" y="199.39" width="20" height="35.26" rx="2.6"/><rect class="cls-6" x="350.83" y="202.11" width="3.61" height="27.75" rx="0.47"/><rect class="cls-6" x="355.77" y="202.11" width="3.61" height="27.75" rx="0.47"/><rect class="cls-6" x="360.44" y="202.11" width="3.61" height="27.75" rx="0.47"/><path class="cls-5" d="M356.1,254.93H384v6.81H356.1a2.49,2.49,0,0,1-2.47-2.47h0v-1.86A2.47,2.47,0,0,1,356.1,255h0Z"/><path class="cls-7" d="M190.76,151.31c-7.19-22.67-8.95-36.2-9.38-42.06,3.82-8.58,8.63-24.67-1.29-36.4a53,53,0,0,1,.5,13.55c.18-7.09-1.39-15.09-7.17-21.94a47.94,47.94,0,0,1,.69,8.7,29.83,29.83,0,0,0-6.53-13.87,46.46,46.46,0,0,1,.68,7.54,29.73,29.73,0,0,0-9.09-10.37A43.57,43.57,0,0,1,161.25,62a29.59,29.59,0,0,0-10.6-7s.92,1.1,2.26,3.1A37.39,37.39,0,0,0,147,56.37h0a32.07,32.07,0,0,0-17.63,1c-7.18,1.78-14.93,5.69-19.81,14,0,0,1.18-.69,3.28-1.65l-.44.54a28.21,28.21,0,0,0-6.35,7.45s.66-.4,1.87-1a.58.58,0,0,0,0,.45,49,49,0,0,0,8.32,13.74.64.64,0,0,1-.41,1.06c-4,.32-17,0-24.14-16.45a.65.65,0,0,1,0-.27c0-2,.26-25.17-15.6-28.9a2.35,2.35,0,0,1-1.72-1.72L72.9,28.36a.65.65,0,0,0-.79-.47.58.58,0,0,0-.3.18c-1.72,1.76-7.92,6.87-7.51,16.19A1.72,1.72,0,0,1,62.67,46c-4.56.13-16.54,1.71-18.51,14.39a4.82,4.82,0,0,1-4.76,4.1H25.91a2.36,2.36,0,0,0-2.37,2.36c0,.11,0,.23,0,.35.7,4.74,3.62,14.59,15.76,20.69a4.91,4.91,0,0,1,2.73,4.3c-1.71,2.3-8.08,12.87-2.26,38.62a53.18,53.18,0,0,1,.34-8.46,30.89,30.89,0,0,0,7.11,18.52,37.93,37.93,0,0,1-.54-4.52A46.23,46.23,0,0,0,66.2,157a.65.65,0,0,1,.33.56v26.76a.66.66,0,0,1-.27.53c-1.46,1-8.19,6.07-9.16,9.51a.64.64,0,0,0,.46.77l.18,0H75.26A1.24,1.24,0,0,0,76.5,194h0a1.23,1.23,0,0,1,1-1.22c4.83-.7,24.62-4.44,24.62-18.88v-17a.63.63,0,0,1,.12-.37c.86-1.22,7.1-8.51,29.93-8,24.31.5,34.19,23.28,34.64,24.35a.14.14,0,0,1,0,.09c.16.74,2.24,11.16-5.22,14.26a.7.7,0,0,0-.28.23c-.4.61-1.92,2.89-2.83,4.23a.66.66,0,0,0,.2.9.6.6,0,0,0,.35.1h13.73a.65.65,0,0,1,.63.67.58.58,0,0,1,0,.19l-.86,2.08a.65.65,0,0,0,.39.82.78.78,0,0,0,.21,0h17.17a.66.66,0,0,0,.54-.3C192.31,194.07,199.93,180.22,190.76,151.31Z"/><path class="cls-8" d="M42,92.53s-8.81,9.61-2.26,38.47c0,0-.13-6.89.31-8.33,0,0,.4,11.32,7.07,18.37,0,0-.61-4.09-.52-4.55s5.13,13.36,19.73,21.18c0,0-7.79-11.76-5.24-21.61,0,0,3.42.77,4,7.3,0,0,5.88-15.35.51-24.05,0,0,1.16-.85,4.48.86,0,0,.86-5.25-6.26-16.12,0,0,4.17,3.88,5.71,5.8C69.47,109.92,65.2,92.53,42,92.53Z"/><path class="cls-9" d="M26.39,65s-2.79-.26-2.88,2.4A20,20,0,0,0,24,70.17a6.54,6.54,0,0,0,1.71-.86,6.21,6.21,0,0,0,2.81-4.07L28.6,65Z"/><path class="cls-8" d="M179.47,73.3c1.1,4.18.5,13.49.5,13.49.47-14.12-7.14-21.84-7.14-21.84a58.11,58.11,0,0,1,.69,8.55A29.85,29.85,0,0,0,167,59.77a50.77,50.77,0,0,1,.68,7.52A30,30,0,0,0,158.63,57a54,54,0,0,1,2.07,5.48,30.34,30.34,0,0,0-10.56-6.95,35.94,35.94,0,0,1,2.26,3.09,32.75,32.75,0,0,0-22.06-1.23,23.73,23.73,0,0,1-2.5.7c-11.65,2.29-18.59,13.68-18.59,13.68l3.27-1.65c-2.65,1.66-6.77,8-6.77,8a90.37,90.37,0,0,1,10.71-3.71,16.9,16.9,0,0,0-3.61,3.89,75.76,75.76,0,0,1,9.69-4.78,16.51,16.51,0,0,0-3.82,4.09,74.85,74.85,0,0,1,10.42-5.08A16.7,16.7,0,0,0,124.59,77a74.47,74.47,0,0,1,10.31-5h0a16.68,16.68,0,0,0-4.46,4.52s9.1-4.19,9.4-4.14a16.72,16.72,0,0,0-4.69,3.8s9.22-3,9.57-2.87A16.6,16.6,0,0,0,139.14,76s10.73-1,10.87-1a16.79,16.79,0,0,0-5.19,2.57s9.27-.72,9.6-.55a16.8,16.8,0,0,0-3.93,2.13h0A14.11,14.11,0,0,1,161.93,82c13.92,11.24,18.81,27.93,18.81,27.93C191.55,84.35,179.47,73.3,179.47,73.3Z"/><path class="cls-10" d="M77.33,192.73c.24-1.19.49-2.38.76-3.56l.85-3.53.86-3.51c.29-1.17.62-2.33.92-3.5l.44-1.62,1.21,1.22a6.64,6.64,0,0,1,1,1.34A6.55,6.55,0,0,1,84,181.1a8.15,8.15,0,0,1,.16.86v.49a.66.66,0,0,0-.06-.2.37.37,0,0,0,0-.11,1.05,1.05,0,0,0-.25-.3,1,1,0,0,0-.75-.25,1.06,1.06,0,0,0-.43.12l-.16.1-.06.06h0l.11-.21c.08-.16.17-.35.25-.55a23.33,23.33,0,0,0,.86-2.48c.25-.84.51-1.71.73-2.56a69.28,69.28,0,0,0,1.82-10.79c.18-1.8.28-3.61.3-5.42s0-3.63-.06-5.45a95.55,95.55,0,0,0-1.17-10.93,49.43,49.43,0,0,1,2.84,10.77c.28,1.84.45,3.71.55,5.58s.06,3.75,0,5.63a54.27,54.27,0,0,1-1.76,11.11A30.43,30.43,0,0,1,85,182c-.11.23-.23.45-.37.69s-.15.26-.23.38l-.19.24a1.07,1.07,0,0,1-.19.18l-.22.16a1.29,1.29,0,0,1-.51.14,1.13,1.13,0,0,1-.85-.26,1.17,1.17,0,0,1-.28-.35A.15.15,0,0,0,82,183a1.47,1.47,0,0,1-.08-.28v-.62a3.33,3.33,0,0,0-.07-.54,5,5,0,0,0-.34-1,4.45,4.45,0,0,0-.56-.91l1.64-.41c-.41,1.13-.8,2.27-1.23,3.42L80.11,186l-1.33,3.36C78.3,190.51,77.82,191.62,77.33,192.73Z"/><path class="cls-10" d="M172.9,193.18a13.4,13.4,0,0,1,2.4-2.85,4.92,4.92,0,0,1,1.71-1,1.94,1.94,0,0,1,.54-.13h.14s-.17,0-.2.06a.05.05,0,0,0-.06,0h0a3.53,3.53,0,0,0,.08-.72,24.71,24.71,0,0,0-.19-3.54c-.13-1.2-.27-2.39-.47-3.58-.38-2.39-.79-4.76-1.33-7.11s-1.1-4.69-1.8-7a64.71,64.71,0,0,0-2.36-6.78,43.44,43.44,0,0,0-3.15-6.38,22.88,22.88,0,0,0-4.48-5.42,13.75,13.75,0,0,0-6.35-3.15,12.38,12.38,0,0,1,7.1,2.14,21.29,21.29,0,0,1,5.39,5.32,45.55,45.55,0,0,1,6.31,13.53,72.54,72.54,0,0,1,2.66,14.61,34.74,34.74,0,0,1-.09,7.49,4,4,0,0,1-.31,1.06l-.1.17a1.1,1.1,0,0,1-.22.21.9.9,0,0,1-.42.13h-.09a1,1,0,0,0-.35,0,4.59,4.59,0,0,0-1.53.65A18.65,18.65,0,0,0,172.9,193.18Z"/><ellipse class="cls-11" cx="49.65" cy="60.69" rx="4.03" ry="5.18"/><circle class="cls-12" cx="48.22" cy="60.84" r="2.22"/><circle class="cls-12" cx="37.38" cy="69.37" r="0.8"/><circle class="cls-12" cx="34.31" cy="72.63" r="0.8"/><circle class="cls-12" cx="37.38" cy="76.83" r="0.8"/><line class="cls-13" x1="23.94" y1="196.02" x2="23.94"/><line class="cls-13" x1="195.21" y1="196.02" x2="195.21"/></g></g></svg>