<svg xmlns="http://www.w3.org/2000/svg" viewBox="0 0 384.44 261.77"><defs><style>.cls-1{fill:#ead144;}.cls-2{fill:#1d1d1b;}.cls-3{fill:#404042;}.cls-4{fill:#565656;}.cls-5{fill:#f9dc4b;}.cls-6{fill:#f2cb2a;}.cls-7{fill:none;stroke:#3c7baa;stroke-miterlimit:10;stroke-dasharray:5 5;}.cls-8{fill:#f4dfab;}.cls-9{fill:#f7ebd2;}.cls-10{fill:#7c5d27;}.cls-11{fill:#b2996d;}.cls-12{fill:#f7f4f0;}.cls-13{fill:#493e32;}</style></defs><title>70</title><g id="Capa_2" data-name="Capa 2"><g id="Capa_1-2" data-name="Capa 1"><rect class="cls-1" y="196.48" width="384.44" height="41.13"/><rect class="cls-2" x="23.36" y="196.62" width="1.15" height="23.61"/><rect class="cls-2" x="26.22" y="196.62" width="1.15" height="11.85"/><rect class="cls-2" x="29.07" y="196.62" width="1.15" height="11.85"/><rect class="cls-2" x="31.93" y="196.62" width="1.15" height="11.85"/><rect class="cls-2" x="34.78" y="196.62" width="1.15" height="11.8"/><rect class="cls-2" x="37.64" y="196.62" width="1.15" height="17.13"/><rect class="cls-2" x="40.49" y="196.62" width="1.15" height="11.85"/><rect class="cls-2" x="43.34" y="196.62" width="1.15" height="11.85"/><rect class="cls-2" x="46.2" y="196.62" width="1.15" height="11.85"/><rect class="cls-2" x="49.05" y="196.62" width="1.15" height="11.8"/><rect class="cls-2" x="51.91" y="196.62" width="1.15" height="23.61"/><rect class="cls-2" x="54.76" y="196.62" width="1.15" height="11.85"/><rect class="cls-2" x="57.62" y="196.62" width="1.15" height="11.85"/><rect class="cls-2" x="60.47" y="196.62" width="1.15" height="11.85"/><rect class="cls-2" x="63.32" y="196.62" width="1.15" height="11.8"/><rect class="cls-2" x="66.18" y="196.62" width="1.15" height="17.13"/><rect class="cls-2" x="69.03" y="196.62" width="1.15" height="11.85"/><rect class="cls-2" x="71.89" y="196.62" width="1.15" height="11.85"/><rect class="cls-2" x="74.74" y="196.62" width="1.15" height="11.85"/><rect class="cls-2" x="77.6" y="196.62" width="1.15" height="11.8"/><rect class="cls-2" x="80.45" y="196.62" width="1.15" height="23.61"/><rect class="cls-2" x="83.31" y="196.62" width="1.15" height="11.85"/><rect class="cls-2" x="86.16" y="196.62" width="1.15" height="11.85"/><rect class="cls-2" x="89.01" y="196.62" width="1.15" height="11.85"/><rect class="cls-2" x="91.87" y="196.62" width="1.15" height="11.8"/><rect class="cls-2" x="94.72" y="196.62" width="1.15" height="17.13"/><rect class="cls-2" x="97.58" y="196.62" width="1.15" height="11.85"/><rect class="cls-2" x="100.43" y="196.62" width="1.15" height="11.85"/><rect class="cls-2" x="103.29" y="196.62" width="1.15" height="11.85"/><rect class="cls-2" x="106.14" y="196.62" width="1.15" height="11.8"/><rect class="cls-2" x="108.99" y="196.62" width="1.15" height="23.61"/><rect class="cls-2" x="111.85" y="196.62" width="1.15" height="11.85"/><rect class="cls-2" x="114.7" y="196.62" width="1.15" height="11.85"/><rect class="cls-2" x="117.56" y="196.62" width="1.15" height="11.85"/><rect class="cls-2" x="120.41" y="196.62" width="1.15" height="11.8"/><rect class="cls-2" x="123.27" y="196.62" width="1.15" height="17.13"/><rect class="cls-2" x="126.12" y="196.62" width="1.15" height="11.85"/><rect class="cls-2" x="128.98" y="196.62" width="1.15" height="11.85"/><rect class="cls-2" x="131.83" y="196.62" width="1.15" height="11.85"/><rect class="cls-2" x="134.68" y="196.62" width="1.15" height="11.8"/><rect class="cls-2" x="137.54" y="196.62" width="1.15" height="23.61"/><rect class="cls-2" x="140.39" y="196.62" width="1.15" height="11.85"/><rect class="cls-2" x="143.25" y="196.62" width="1.15" height="11.85"/><rect class="cls-2" x="146.1" y="196.62" width="1.15" height="11.85"/><rect class="cls-2" x="148.96" y="196.62" width="1.15" height="11.8"/><rect class="cls-2" x="151.81" y="196.62" width="1.15" height="17.13"/><rect class="cls-2" x="154.66" y="196.62" width="1.15" height="11.85"/><rect class="cls-2" x="157.52" y="196.62" width="1.15" height="11.85"/><rect class="cls-2" x="160.37" y="196.62" width="1.15" height="11.85"/><rect class="cls-2" x="163.23" y="196.62" width="1.15" height="11.8"/><rect class="cls-2" x="166.08" y="196.62" width="1.15" height="23.61"/><rect class="cls-2" x="168.94" y="196.62" width="1.15" height="11.85"/><rect class="cls-2" x="171.79" y="196.62" width="1.15" height="11.85"/><rect class="cls-2" x="174.65" y="196.62" width="1.15" height="11.85"/><rect class="cls-2" x="177.5" y="196.62" width="1.15" height="11.8"/><rect class="cls-2" x="180.35" y="196.62" width="1.15" height="17.13"/><rect class="cls-2" x="183.21" y="196.62" width="1.15" height="11.85"/><rect class="cls-2" x="186.06" y="196.62" width="1.15" height="11.85"/><rect class="cls-2" x="188.92" y="196.62" width="1.15" height="11.85"/><rect class="cls-2" x="191.77" y="196.62" width="1.15" height="11.8"/><rect class="cls-2" x="194.63" y="196.62" width="1.15" height="23.61"/><rect class="cls-2" x="197.48" y="196.62" width="1.15" height="11.85"/><rect class="cls-2" x="200.33" y="196.62" width="1.15" height="11.85"/><rect class="cls-2" x="203.19" y="196.62" width="1.15" height="11.85"/><rect class="cls-2" x="206.04" y="196.62" width="1.15" height="11.8"/><rect class="cls-2" x="208.9" y="196.62" width="1.15" height="17.13"/><rect class="cls-2" x="211.75" y="196.62" width="1.15" height="11.85"/><rect class="cls-2" x="214.61" y="196.62" width="1.15" height="11.85"/><rect class="cls-2" x="217.46" y="196.62" width="1.15" height="11.85"/><rect class="cls-2" x="220.31" y="196.62" width="1.15" height="11.8"/><rect class="cls-2" x="223.17" y="196.62" width="1.15" height="23.61"/><rect class="cls-2" x="226.02" y="196.62" width="1.15" height="11.85"/><rect class="cls-2" x="228.88" y="196.62" width="1.15" height="11.85"/><rect class="cls-2" x="231.73" y="196.62" width="1.15" height="11.85"/><rect class="cls-2" x="234.59" y="196.62" width="1.15" height="11.8"/><rect class="cls-2" x="237.44" y="196.62" width="1.15" height="17.13"/><rect class="cls-2" x="240.3" y="196.62" width="1.15" height="11.85"/><rect class="cls-2" x="243.15" y="196.62" width="1.15" height="11.85"/><rect class="cls-2" x="246" y="196.62" width="1.15" height="11.85"/><rect class="cls-2" x="248.86" y="196.62" width="1.15" height="11.8"/><rect class="cls-2" x="251.71" y="196.62" width="1.15" height="23.61"/><rect class="cls-2" x="254.57" y="196.62" width="1.15" height="11.85"/><rect class="cls-2" x="257.42" y="196.62" width="1.15" height="11.85"/><rect class="cls-2" x="260.28" y="196.62" width="1.15" height="11.85"/><rect class="cls-2" x="263.13" y="196.62" width="1.15" height="11.8"/><rect class="cls-2" x="265.98" y="196.62" width="1.15" height="17.13"/><rect class="cls-2" x="268.84" y="196.62" width="1.15" height="11.85"/><rect class="cls-2" x="271.69" y="196.62" width="1.15" height="11.85"/><rect class="cls-2" x="274.55" y="196.62" width="1.15" height="11.85"/><rect class="cls-2" x="277.4" y="196.62" width="1.15" height="11.8"/><rect class="cls-2" x="280.26" y="196.62" width="1.15" height="23.61"/><rect class="cls-2" x="283.11" y="196.62" width="1.15" height="11.85"/><rect class="cls-2" x="285.97" y="196.62" width="1.15" height="11.85"/><rect class="cls-2" x="288.82" y="196.62" width="1.15" height="11.85"/><rect class="cls-2" x="291.67" y="196.62" width="1.15" height="11.8"/><rect class="cls-2" x="294.53" y="196.62" width="1.15" height="17.13"/><rect class="cls-2" x="297.38" y="196.62" width="1.15" height="11.85"/><rect class="cls-2" x="300.24" y="196.62" width="1.15" height="11.85"/><rect class="cls-2" x="303.09" y="196.62" width="1.15" height="11.85"/><rect class="cls-2" x="305.95" y="196.62" width="1.15" height="11.8"/><rect class="cls-2" x="308.8" y="196.62" width="1.15" height="23.61"/><path d="M26,224.26a5.61,5.61,0,0,1,0,6.12,2.74,2.74,0,0,1-2.32,1.17,2.8,2.8,0,0,1-2.33-1.17,5.63,5.63,0,0,1,0-6.13,2.88,2.88,0,0,1,4.05-.6,2.63,2.63,0,0,1,.6.6Zm-3.87.63a4.48,4.48,0,0,0-.62,2.45,4.56,4.56,0,0,0,.61,2.45,1.81,1.81,0,0,0,2.46.71,1.73,1.73,0,0,0,.71-.71,5.13,5.13,0,0,0,0-4.9,1.82,1.82,0,0,0-1.59-1A1.75,1.75,0,0,0,22.17,224.89Z"/><path d="M49.71,223.16h.81v8.29h-1v-7.26l-1.44.74-.36-.7Z"/><path d="M57.44,224.26a5.57,5.57,0,0,1,0,6.12,2.77,2.77,0,0,1-3.84.76,2.59,2.59,0,0,1-.75-.76,5.55,5.55,0,0,1,0-6.13,2.77,2.77,0,0,1,3.85-.74,2.89,2.89,0,0,1,.74.74Zm-3.87.63a5.19,5.19,0,0,0,0,4.9,1.79,1.79,0,0,0,1.58.94,1.85,1.85,0,0,0,1.6-.94,5.3,5.3,0,0,0,0-4.9,1.85,1.85,0,0,0-1.6-1A1.76,1.76,0,0,0,53.57,224.89Z"/><path d="M78.34,223a2.76,2.76,0,0,1,2,.74,2.23,2.23,0,0,1,.7,1.71,2.94,2.94,0,0,1-.53,1.59,13.09,13.09,0,0,1-1.29,1.5l-1.91,2H81v.85H75.89v-.75L78.4,228a15.38,15.38,0,0,0,1.16-1.4,2,2,0,0,0,.39-1.16,1.56,1.56,0,0,0-.47-1.16,1.61,1.61,0,0,0-1.16-.45,2.55,2.55,0,0,0-1.87.82l-.56-.72A3.47,3.47,0,0,1,78.34,223Z"/><path d="M87.71,224.26a5.61,5.61,0,0,1,0,6.12,2.77,2.77,0,0,1-3.84.81,2.84,2.84,0,0,1-.81-.81,5.63,5.63,0,0,1,0-6.13,2.79,2.79,0,0,1,3.87-.79h0a2.64,2.64,0,0,1,.78.78Zm-3.87.63a4.48,4.48,0,0,0-.62,2.45,4.69,4.69,0,0,0,.6,2.45,1.8,1.8,0,0,0,3.18,0,5.13,5.13,0,0,0,0-4.9,1.82,1.82,0,0,0-1.59-1A1.75,1.75,0,0,0,83.84,224.89Z"/><path d="M106.17,223a3.28,3.28,0,0,1,2,.54,1.81,1.81,0,0,1,.79,1.55,1.91,1.91,0,0,1-1.52,1.89,2.68,2.68,0,0,1,1.3.87,2.29,2.29,0,0,1,.47,1.42,1.9,1.9,0,0,1-.86,1.73,3.87,3.87,0,0,1-2.2.56,4.58,4.58,0,0,1-2.65-.71l.59-.71a3.53,3.53,0,0,0,2,.54,2.81,2.81,0,0,0,1.55-.4,1.31,1.31,0,0,0,.57-1.16,1.51,1.51,0,0,0-.59-1.23,2.33,2.33,0,0,0-1.44-.48h-1v-.85h1a2.19,2.19,0,0,0,1.26-.37,1.26,1.26,0,0,0,.21-1.76h0a1.34,1.34,0,0,0-.2-.21,2.41,2.41,0,0,0-1.39-.33,3.85,3.85,0,0,0-1.67.34l-.57-.69A4.77,4.77,0,0,1,106.17,223Z"/><path d="M115.89,224.26a5.61,5.61,0,0,1,0,6.12,2.78,2.78,0,0,1-3.85.81,2.81,2.81,0,0,1-.8-.81,5.63,5.63,0,0,1,0-6.13,2.79,2.79,0,0,1,3.87-.79h0a2.76,2.76,0,0,1,.78.78Zm-3.88.63a4.4,4.4,0,0,0-.62,2.45,4.76,4.76,0,0,0,.6,2.45,1.81,1.81,0,0,0,3.19,0,5.19,5.19,0,0,0,0-4.9,1.85,1.85,0,0,0-1.59-1A1.76,1.76,0,0,0,112,224.89Z"/><path d="M135.46,223.16h.83v5.33h1v.82h-1v2.14h-1v-2.14h-4v-.66Zm-.13,1.52-2.94,3.81h2.92Z"/><path d="M144,224.26a4.83,4.83,0,0,1,.92,3.05,5,5,0,0,1-.91,3.07,2.9,2.9,0,0,1-4.65,0,5.59,5.59,0,0,1,0-6.13,2.78,2.78,0,0,1,3.86-.74,2.89,2.89,0,0,1,.74.74Zm-3.87.63a5.24,5.24,0,0,0,0,4.9,1.79,1.79,0,0,0,1.58.94,1.85,1.85,0,0,0,1.61-.94,5.3,5.3,0,0,0,0-4.9,1.87,1.87,0,0,0-1.61-1,1.78,1.78,0,0,0-1.6,1Z"/><path d="M160.7,223.16h4.65V224h-3.78l-.29,3a2.45,2.45,0,0,1,1.87-.86,2.55,2.55,0,0,1,1.88.78,2.71,2.71,0,0,1,.71,1.92,2.58,2.58,0,0,1-.82,2,3,3,0,0,1-2.14.77,3.64,3.64,0,0,1-2.86-1.34l.61-.73a2.69,2.69,0,0,0,2.25,1.16,1.9,1.9,0,0,0,1.4-.51,1.84,1.84,0,0,0-1.26-3.2,1.69,1.69,0,0,0-1.66,1.05l-1-.41Z"/><path d="M172.48,224.26a5.61,5.61,0,0,1,0,6.12,2.77,2.77,0,0,1-3.84.81,2.84,2.84,0,0,1-.81-.81,5.67,5.67,0,0,1,0-6.13,2.79,2.79,0,0,1,3.87-.79h0a2.6,2.6,0,0,1,.77.78Zm-3.88.63a4.39,4.39,0,0,0-.61,2.45,4.67,4.67,0,0,0,.6,2.45,1.81,1.81,0,0,0,3.19,0,5.19,5.19,0,0,0,0-4.9,1.85,1.85,0,0,0-1.6-1,1.78,1.78,0,0,0-1.58,1Z"/><path d="M191.68,223a3.14,3.14,0,0,1,1.81.55,3.5,3.5,0,0,1,.54.48l-.58.77a4.61,4.61,0,0,0-.6-.57,1.94,1.94,0,0,0-1.17-.35,1.85,1.85,0,0,0-1.47.68,4.58,4.58,0,0,0-.82,2.86,2.64,2.64,0,0,1,2.25-1.31,2.86,2.86,0,0,1,2,.74,2.54,2.54,0,0,1,.85,2,2.61,2.61,0,0,1-.82,2,2.87,2.87,0,0,1-2,.72,2.81,2.81,0,0,1-2.22-.93,4.79,4.79,0,0,1-1-3.26,5,5,0,0,1,1-3.34A2.92,2.92,0,0,1,191.68,223Zm-1.51,4.54a1.79,1.79,0,0,0-.56,1.3,1.81,1.81,0,0,0,.56,1.3,2,2,0,0,0,2.71,0,1.8,1.8,0,0,0,.05-2.56l-.05-.05a1.93,1.93,0,0,0-2.71,0Z"/><path d="M201.12,224.26a5.61,5.61,0,0,1,0,6.12,2.74,2.74,0,0,1-2.32,1.17,2.8,2.8,0,0,1-2.33-1.17,5.63,5.63,0,0,1,0-6.13,2.88,2.88,0,0,1,4.05-.6,2.63,2.63,0,0,1,.6.6Zm-3.87.63a5.24,5.24,0,0,0,0,4.9,1.82,1.82,0,0,0,2.47.71,1.8,1.8,0,0,0,.71-.71,5.19,5.19,0,0,0,0-4.9,1.85,1.85,0,0,0-1.6-1A1.78,1.78,0,0,0,197.25,224.89Z"/><path d="M217.73,223.16h5.65v.66l-3.62,7.63h-1.08l3.64-7.46h-4.65Z"/><path d="M230.06,224.26a5.61,5.61,0,0,1,0,6.12,2.77,2.77,0,0,1-3.84.81,2.84,2.84,0,0,1-.81-.81,5.63,5.63,0,0,1,0-6.13,2.79,2.79,0,0,1,3.87-.79h0a2.64,2.64,0,0,1,.78.78Zm-3.88.63a4.46,4.46,0,0,0-.6,2.45,4.59,4.59,0,0,0,.59,2.45,1.8,1.8,0,0,0,3.18,0,5.13,5.13,0,0,0,0-4.9,1.82,1.82,0,0,0-1.59-1A1.76,1.76,0,0,0,226.18,224.89Z"/><path d="M250.42,223.57a1.78,1.78,0,0,1,.77,1.56,1.87,1.87,0,0,1-1.44,1.89,2.7,2.7,0,0,1,1.25.88,2.36,2.36,0,0,1,.47,1.43,1.93,1.93,0,0,1-.84,1.69,4.22,4.22,0,0,1-4.29,0,1.91,1.91,0,0,1-.82-1.69,2.29,2.29,0,0,1,.46-1.43,2.65,2.65,0,0,1,1.23-.88,1.88,1.88,0,0,1-1.44-1.89,1.78,1.78,0,0,1,.77-1.56,3.8,3.8,0,0,1,3.88,0Zm-3.35,4.36a1.52,1.52,0,0,0-.56,1.24,1.37,1.37,0,0,0,.56,1.17,2.74,2.74,0,0,0,2.82,0,1.34,1.34,0,0,0,.55-1.17,1.51,1.51,0,0,0-.55-1.25,2.34,2.34,0,0,0-2.82,0Zm.17-3.67a1.27,1.27,0,0,0-.19,1.8,1.14,1.14,0,0,0,.19.19,2.33,2.33,0,0,0,2.44,0,1.28,1.28,0,0,0,0-2,2,2,0,0,0-1.23-.34,2.13,2.13,0,0,0-1.25.34Z"/><path d="M258.15,224.26a5.61,5.61,0,0,1,0,6.12,2.78,2.78,0,0,1-3.85.81,2.81,2.81,0,0,1-.8-.81,5.59,5.59,0,0,1,0-6.13,2.79,2.79,0,0,1,3.87-.79h0a2.64,2.64,0,0,1,.78.78Zm-3.88.63a4.48,4.48,0,0,0-.62,2.45,4.77,4.77,0,0,0,.61,2.45,1.82,1.82,0,0,0,2.46.73,1.87,1.87,0,0,0,.72-.73,5.13,5.13,0,0,0,0-4.9,1.82,1.82,0,0,0-1.59-1,1.76,1.76,0,0,0-1.58,1Z"/><path d="M276.86,223a2.8,2.8,0,0,1,2.22.94,4.79,4.79,0,0,1,1,3.26,4.9,4.9,0,0,1-1,3.34,2.86,2.86,0,0,1-2.32,1,3.27,3.27,0,0,1-1.8-.53,6.8,6.8,0,0,1-.57-.5l.59-.75a6.53,6.53,0,0,0,.62.56,2,2,0,0,0,2.62-.34,4.36,4.36,0,0,0,.82-2.85,2.58,2.58,0,0,1-2.25,1.31,2.86,2.86,0,0,1-1.94-.73,2.8,2.8,0,0,1,0-3.94h0A2.78,2.78,0,0,1,276.86,223Zm-1.29,1.45a1.73,1.73,0,0,0-.56,1.3,1.79,1.79,0,0,0,.56,1.3,1.93,1.93,0,0,0,2.71,0,1.81,1.81,0,0,0,.05-2.56l-.05-.05a1.89,1.89,0,0,0-1.36-.55,1.85,1.85,0,0,0-1.35.57Z"/><path d="M286.74,224.26a4.89,4.89,0,0,1,.92,3.05,5,5,0,0,1-.91,3.07,2.79,2.79,0,0,1-2.32,1.17,2.75,2.75,0,0,1-2.33-1.17,5.59,5.59,0,0,1,0-6.13,2.78,2.78,0,0,1,3.86-.74,2.71,2.71,0,0,1,.73.74Zm-3.87.63a5.19,5.19,0,0,0,0,4.9,1.79,1.79,0,0,0,1.58.94,1.83,1.83,0,0,0,1.6-.94,5.3,5.3,0,0,0,0-4.9,1.85,1.85,0,0,0-1.6-1A1.76,1.76,0,0,0,282.87,224.89Z"/><path d="M301.67,223.16h.81v8.29h-1v-7.26l-1.43.74-.37-.7Z"/><path d="M309.39,224.26a5.61,5.61,0,0,1,0,6.12,2.9,2.9,0,0,1-4.65,0,5.63,5.63,0,0,1,0-6.13,2.88,2.88,0,0,1,4.05-.6,2.84,2.84,0,0,1,.6.6Zm-3.87.63a4.4,4.4,0,0,0-.62,2.45,4.55,4.55,0,0,0,.6,2.45,1.82,1.82,0,0,0,2.47.71,1.73,1.73,0,0,0,.71-.71,5.19,5.19,0,0,0,0-4.9,1.85,1.85,0,0,0-1.59-1,1.73,1.73,0,0,0-1.57,1Z"/><path d="M317,224.26a5.61,5.61,0,0,1,0,6.12,2.9,2.9,0,0,1-4.65,0,5.63,5.63,0,0,1,0-6.13,2.88,2.88,0,0,1,4.05-.6,2.63,2.63,0,0,1,.6.6Zm-3.87.63a5.19,5.19,0,0,0,0,4.9,1.81,1.81,0,0,0,2.46.71,1.73,1.73,0,0,0,.71-.71,5.19,5.19,0,0,0,0-4.9,1.85,1.85,0,0,0-1.59-1A1.76,1.76,0,0,0,313.11,224.89Z"/><rect class="cls-2" x="311.57" y="196.62" width="1.15" height="11.85"/><rect class="cls-2" x="314.43" y="196.62" width="1.15" height="11.85"/><rect class="cls-2" x="317.28" y="196.62" width="1.15" height="11.85"/><rect class="cls-2" x="320.14" y="196.62" width="1.15" height="11.8"/><rect class="cls-2" x="322.99" y="196.62" width="1.15" height="17.13"/><rect class="cls-2" x="325.85" y="196.62" width="1.15" height="11.85"/><rect class="cls-2" x="328.7" y="196.62" width="1.15" height="11.85"/><rect class="cls-2" x="331.55" y="196.62" width="1.15" height="11.85"/><rect class="cls-2" x="334.41" y="196.62" width="1.15" height="11.8"/><rect class="cls-2" x="337.26" y="196.62" width="1.15" height="23.61"/><rect class="cls-3" y="196.48" width="10.06" height="41.13"/><path class="cls-3" d="M3.32,210h12a1.83,1.83,0,0,1,1.83,1.83h0v10.43a1.83,1.83,0,0,1-1.83,1.83h-12A.31.31,0,0,1,3,223.8V210.31a.31.31,0,0,1,.31-.31Z"/><path class="cls-3" d="M355,179.13h29.41V255H355a20.06,20.06,0,0,1-20-20.05V199.18A20.06,20.06,0,0,1,355,179.13Z"/><rect class="cls-4" x="340.26" y="199.42" width="37.91" height="35.26" rx="4.59"/><rect class="cls-5" x="347.57" y="199.42" width="20" height="35.26" rx="2.6"/><rect class="cls-6" x="350.83" y="202.14" width="3.61" height="27.75" rx="0.47"/><rect class="cls-6" x="355.77" y="202.14" width="3.61" height="27.75" rx="0.47"/><rect class="cls-6" x="360.44" y="202.14" width="3.61" height="27.75" rx="0.47"/><path class="cls-5" d="M356.1,255H384v6.81H356.1a2.48,2.48,0,0,1-2.47-2.47h0v-1.86A2.49,2.49,0,0,1,356.1,255h0Z"/><line class="cls-7" x1="223.74" y1="196.03" x2="223.74" y2="0.01"/><line class="cls-7" x1="23.94" y1="196.03" x2="23.94" y2="0.01"/><path class="cls-8" d="M218.1,143.83c-8.37-26.41-10.43-42.18-10.92-49,4.45-10,10-28.74-1.51-42.41a60.88,60.88,0,0,1,.58,15.78c.21-8.26-1.62-17.58-8.35-25.55a55.53,55.53,0,0,1,.81,10.13,34.79,34.79,0,0,0-7.61-16.16,52.81,52.81,0,0,1,.79,8.79A34.57,34.57,0,0,0,181.3,33.33a49,49,0,0,1,2.42,6.41,34.39,34.39,0,0,0-12.35-8.13s1.08,1.28,2.64,3.61a44.37,44.37,0,0,0-6.85-2h0a37.31,37.31,0,0,0-20.54,1.17c-8.37,2.07-17.4,6.62-23.08,16.26,0,0,1.37-.81,3.82-1.92l-.51.63a33.25,33.25,0,0,0-7.4,8.67s.77-.46,2.18-1.15a.8.8,0,0,0,0,.53,57,57,0,0,0,9.69,16,.75.75,0,0,1-.06,1.06h0a.83.83,0,0,1-.42.18c-4.7.37-19.83,0-28.12-19.17a.81.81,0,0,1-.06-.31c.06-2.28.31-29.33-18.17-33.67a2.71,2.71,0,0,1-2-2L80.8.59A.76.76,0,0,0,79.89,0h0a.82.82,0,0,0-.36.21c-2,2.05-9.22,8-8.74,18.86a2,2,0,0,1-1.9,2.06c-5.31.16-19.27,2-21.57,16.77a5.6,5.6,0,0,1-5.54,4.78H26.05a2.75,2.75,0,0,0-2.75,2.73h0a2.8,2.8,0,0,0,0,.41c.81,5.52,4.21,17,18.35,24.11a5.72,5.72,0,0,1,3.19,5c-2,2.68-9.42,15-2.64,45a62.47,62.47,0,0,1,.4-9.86,36.09,36.09,0,0,0,8.28,21.58,46.49,46.49,0,0,1-.63-5.27A53.83,53.83,0,0,0,73,150.5a.73.73,0,0,1,.38.65v31.18a.71.71,0,0,1-.31.61c-1.7,1.2-9.54,7.08-10.67,11.08a.75.75,0,0,0,.54.9H83.55A1.42,1.42,0,0,0,85,193.53h0a1.44,1.44,0,0,1,1.22-1.42c5.63-.81,28.69-5.17,28.69-22V150.34a.76.76,0,0,1,.14-.43c1-1.42,8.27-9.92,34.86-9.37,28.33.58,39.83,27.12,40.36,28.37a.17.17,0,0,1,0,.1c.19.87,2.61,13-6.08,16.62a.85.85,0,0,0-.33.26c-.47.71-2.24,3.37-3.29,4.93a.77.77,0,0,0,.23,1,.72.72,0,0,0,.4.12h16a.76.76,0,0,1,.74.78h0a.41.41,0,0,1,0,.22l-1,2.42a.76.76,0,0,0,.43,1h20.27a.73.73,0,0,0,.63-.35C219.91,193.64,228.78,177.51,218.1,143.83Z"/><path class="cls-9" d="M44.86,74.93s-10.31,11.24-2.64,45c0,0-.16-8.06.36-9.74,0,0,.47,13.23,8.27,21.48,0,0-.72-4.78-.61-5.32s6,15.63,23.08,24.77c0,0-9.12-13.75-6.13-25.27,0,0,4,.9,4.63,8.53,0,0,6.88-18,.6-28.12,0,0,1.35-1,5.24,1,0,0,1-6.14-7.33-18.85,0,0,4.88,4.54,6.68,6.78C77,95.27,72,74.93,44.86,74.93Z"/><path class="cls-10" d="M26.62,42.72s-3.26-.3-3.37,2.81a27.37,27.37,0,0,0,.61,3.25,7.5,7.5,0,0,0,2-1A7.24,7.24,0,0,0,29.15,43l.06-.34Z"/><path class="cls-9" d="M205.67,52.44c1.29,4.89.58,15.78.58,15.78.56-16.52-8.35-25.55-8.35-25.55a67,67,0,0,1,.81,10,34.72,34.72,0,0,0-7.61-16c.64,2.46.79,8.79.79,8.79A35.11,35.11,0,0,0,181.3,33.33a63.41,63.41,0,0,1,2.42,6.41,35.42,35.42,0,0,0-12.35-8.13A42.1,42.1,0,0,1,174,35.22a38.28,38.28,0,0,0-25.8-1.43,29.53,29.53,0,0,1-2.93.81c-13.62,2.68-21.74,16-21.74,16l3.82-1.92c-3.09,1.94-7.91,9.3-7.91,9.3A107,107,0,0,1,132,53.65a19.63,19.63,0,0,0-4.22,4.55,87,87,0,0,1,11.33-5.6,19.72,19.72,0,0,0-4.46,4.79,88.44,88.44,0,0,1,12.18-5.94,19.81,19.81,0,0,0-5.32,5.36,87.31,87.31,0,0,1,12.06-5.89h0a19.75,19.75,0,0,0-5.22,5.29s10.65-4.9,11-4.85a19.83,19.83,0,0,0-5.49,4.45s10.79-3.46,11.19-3.36a19.52,19.52,0,0,0-6.52,3.11s12.55-1.21,12.71-1.15a20,20,0,0,0-6.07,3s10.85-.84,11.23-.64a20.06,20.06,0,0,0-4.6,2.49h0a16.44,16.44,0,0,1,13.38,3.31c16.29,13.15,22,32.67,22,32.67C219.8,65.36,205.67,52.44,205.67,52.44Z"/><path class="cls-11" d="M86.21,192.13c.28-1.39.57-2.78.88-4.16l1-4.13,1-4.11c.34-1.37.73-2.72,1.08-4.09l.51-1.9,1.42,1.43a7.51,7.51,0,0,1,1.18,1.57,6.81,6.81,0,0,1,.73,1.79,5.67,5.67,0,0,1,.18,1v.58a.51.51,0,0,0-.07-.24.22.22,0,0,0-.06-.13,1.21,1.21,0,0,0-.29-.35,1.22,1.22,0,0,0-.88-.29,1.29,1.29,0,0,0-.5.14.94.94,0,0,0-.18.12l-.08.07h0l.13-.25c.1-.19.2-.41.3-.64a26.82,26.82,0,0,0,1-2.9c.29-1,.6-2,.86-3A81.53,81.53,0,0,0,96.55,160c.2-2.1.32-4.22.34-6.34s0-4.24-.07-6.37a109.84,109.84,0,0,0-1.36-12.79,57.24,57.24,0,0,1,3.32,12.6c.33,2.16.52,4.34.64,6.53s.07,4.38,0,6.58a62.79,62.79,0,0,1-2.06,13,34.31,34.31,0,0,1-2.24,6.31c-.13.27-.27.53-.43.81a3.4,3.4,0,0,1-.28.45l-.22.28a1.1,1.1,0,0,1-.22.21,1.51,1.51,0,0,1-.26.18,1.44,1.44,0,0,1-1.59-.14,1.6,1.6,0,0,1-.33-.4.17.17,0,0,0-.08-.17,2,2,0,0,1-.09-.33v-.72a3.4,3.4,0,0,0-.08-.63,5.36,5.36,0,0,0-.4-1.23,4.75,4.75,0,0,0-.66-1.07l1.92-.48c-.48,1.33-.93,2.66-1.44,4l-1.5,4-1.56,3.94C87.34,189.53,86.78,190.83,86.21,192.13Z"/><path class="cls-11" d="M198,192.65a16.23,16.23,0,0,1,2.8-3.33,6,6,0,0,1,2-1.22,2.23,2.23,0,0,1,.63-.15h.17s-.2,0-.24.07,0,0-.07,0h0a3.39,3.39,0,0,0,.1-.84,27.29,27.29,0,0,0-.22-4.14c-.16-1.4-.32-2.8-.55-4.19-.45-2.79-.93-5.57-1.56-8.31s-1.29-5.49-2.11-8.17a72.17,72.17,0,0,0-2.75-7.93,50.86,50.86,0,0,0-3.7-7.47,26.37,26.37,0,0,0-5.24-6.34,15.94,15.94,0,0,0-7.43-3.68,14.48,14.48,0,0,1,8.31,2.5,24.67,24.67,0,0,1,6.3,6.22,53,53,0,0,1,7.38,15.83,83.37,83.37,0,0,1,3.11,17.08,40.09,40.09,0,0,1-.1,8.76,4.42,4.42,0,0,1-.36,1.24l-.12.2a1,1,0,0,1-.26.25,1.08,1.08,0,0,1-.49.15h-.1a1.41,1.41,0,0,0-.41,0,5.56,5.56,0,0,0-1.79.76A21.71,21.71,0,0,0,198,192.65Z"/><ellipse class="cls-12" cx="53.83" cy="37.69" rx="4.71" ry="6.06"/><circle class="cls-13" cx="52.16" cy="37.87" r="2.6"/><circle class="cls-13" cx="39.48" cy="47.85" r="0.93"/><circle class="cls-13" cx="35.89" cy="51.66" r="0.93"/><circle class="cls-13" cx="39.48" cy="56.57" r="0.93"/></g></g></svg>