<svg xmlns="http://www.w3.org/2000/svg" viewBox="0 0 384.44 296.75"><defs><style>.cls-1{fill:#ead144;}.cls-2{fill:#1d1d1b;}.cls-3{fill:#404042;}.cls-4{fill:#565656;}.cls-5{fill:#f9dc4b;}.cls-6{fill:#f2cb2a;}.cls-7{fill:#f4dfab;}.cls-8{fill:#f7ebd2;}.cls-9{fill:#7c5d27;}.cls-10{fill:#b2996d;}.cls-11{fill:#f7f4f0;}.cls-12{fill:#493e32;}.cls-13{fill:none;stroke:#3c7baa;stroke-miterlimit:10;stroke-width:1.09px;stroke-dasharray:5.43 5.43;}</style></defs><title>80 </title><g id="Capa_2" data-name="Capa 2"><g id="Capa_1-2" data-name="Capa 1"><rect class="cls-1" y="231.46" width="384.44" height="41.13"/><rect class="cls-2" x="23.36" y="231.6" width="1.15" height="23.61"/><rect class="cls-2" x="26.22" y="231.6" width="1.15" height="11.85"/><rect class="cls-2" x="29.07" y="231.6" width="1.15" height="11.85"/><rect class="cls-2" x="31.93" y="231.6" width="1.15" height="11.85"/><rect class="cls-2" x="34.78" y="231.6" width="1.15" height="11.8"/><rect class="cls-2" x="37.64" y="231.6" width="1.15" height="17.13"/><rect class="cls-2" x="40.49" y="231.6" width="1.15" height="11.85"/><rect class="cls-2" x="43.34" y="231.6" width="1.15" height="11.85"/><rect class="cls-2" x="46.2" y="231.6" width="1.15" height="11.85"/><rect class="cls-2" x="49.05" y="231.6" width="1.15" height="11.8"/><rect class="cls-2" x="51.91" y="231.6" width="1.15" height="23.61"/><rect class="cls-2" x="54.76" y="231.6" width="1.15" height="11.85"/><rect class="cls-2" x="57.62" y="231.6" width="1.15" height="11.85"/><rect class="cls-2" x="60.47" y="231.6" width="1.15" height="11.85"/><rect class="cls-2" x="63.32" y="231.6" width="1.15" height="11.8"/><rect class="cls-2" x="66.18" y="231.6" width="1.15" height="17.13"/><rect class="cls-2" x="69.03" y="231.6" width="1.15" height="11.85"/><rect class="cls-2" x="71.89" y="231.6" width="1.15" height="11.85"/><rect class="cls-2" x="74.74" y="231.6" width="1.15" height="11.85"/><rect class="cls-2" x="77.6" y="231.6" width="1.15" height="11.8"/><rect class="cls-2" x="80.45" y="231.6" width="1.15" height="23.61"/><rect class="cls-2" x="83.31" y="231.6" width="1.15" height="11.85"/><rect class="cls-2" x="86.16" y="231.6" width="1.15" height="11.85"/><rect class="cls-2" x="89.01" y="231.6" width="1.15" height="11.85"/><rect class="cls-2" x="91.87" y="231.6" width="1.15" height="11.8"/><rect class="cls-2" x="94.72" y="231.6" width="1.15" height="17.13"/><rect class="cls-2" x="97.58" y="231.6" width="1.15" height="11.85"/><rect class="cls-2" x="100.43" y="231.6" width="1.15" height="11.85"/><rect class="cls-2" x="103.29" y="231.6" width="1.15" height="11.85"/><rect class="cls-2" x="106.14" y="231.6" width="1.15" height="11.8"/><rect class="cls-2" x="108.99" y="231.6" width="1.15" height="23.61"/><rect class="cls-2" x="111.85" y="231.6" width="1.15" height="11.85"/><rect class="cls-2" x="114.7" y="231.6" width="1.15" height="11.85"/><rect class="cls-2" x="117.56" y="231.6" width="1.15" height="11.85"/><rect class="cls-2" x="120.41" y="231.6" width="1.15" height="11.8"/><rect class="cls-2" x="123.27" y="231.6" width="1.15" height="17.13"/><rect class="cls-2" x="126.12" y="231.6" width="1.15" height="11.85"/><rect class="cls-2" x="128.98" y="231.6" width="1.15" height="11.85"/><rect class="cls-2" x="131.83" y="231.6" width="1.15" height="11.85"/><rect class="cls-2" x="134.68" y="231.6" width="1.15" height="11.8"/><rect class="cls-2" x="137.54" y="231.6" width="1.15" height="23.61"/><rect class="cls-2" x="140.39" y="231.6" width="1.15" height="11.85"/><rect class="cls-2" x="143.25" y="231.6" width="1.15" height="11.85"/><rect class="cls-2" x="146.1" y="231.6" width="1.15" height="11.85"/><rect class="cls-2" x="148.96" y="231.6" width="1.15" height="11.8"/><rect class="cls-2" x="151.81" y="231.6" width="1.15" height="17.13"/><rect class="cls-2" x="154.66" y="231.6" width="1.15" height="11.85"/><rect class="cls-2" x="157.52" y="231.6" width="1.15" height="11.85"/><rect class="cls-2" x="160.37" y="231.6" width="1.15" height="11.85"/><rect class="cls-2" x="163.23" y="231.6" width="1.15" height="11.8"/><rect class="cls-2" x="166.08" y="231.6" width="1.15" height="23.61"/><rect class="cls-2" x="168.94" y="231.6" width="1.15" height="11.85"/><rect class="cls-2" x="171.79" y="231.6" width="1.15" height="11.85"/><rect class="cls-2" x="174.65" y="231.6" width="1.15" height="11.85"/><rect class="cls-2" x="177.5" y="231.6" width="1.15" height="11.8"/><rect class="cls-2" x="180.35" y="231.6" width="1.15" height="17.13"/><rect class="cls-2" x="183.21" y="231.6" width="1.15" height="11.85"/><rect class="cls-2" x="186.06" y="231.6" width="1.15" height="11.85"/><rect class="cls-2" x="188.92" y="231.6" width="1.15" height="11.85"/><rect class="cls-2" x="191.77" y="231.6" width="1.15" height="11.8"/><rect class="cls-2" x="194.63" y="231.6" width="1.15" height="23.61"/><rect class="cls-2" x="197.48" y="231.6" width="1.15" height="11.85"/><rect class="cls-2" x="200.33" y="231.6" width="1.15" height="11.85"/><rect class="cls-2" x="203.19" y="231.6" width="1.15" height="11.85"/><rect class="cls-2" x="206.04" y="231.6" width="1.15" height="11.8"/><rect class="cls-2" x="208.9" y="231.6" width="1.15" height="17.13"/><rect class="cls-2" x="211.75" y="231.6" width="1.15" height="11.85"/><rect class="cls-2" x="214.61" y="231.6" width="1.15" height="11.85"/><rect class="cls-2" x="217.46" y="231.6" width="1.15" height="11.85"/><rect class="cls-2" x="220.31" y="231.6" width="1.15" height="11.8"/><rect class="cls-2" x="223.17" y="231.6" width="1.15" height="23.61"/><rect class="cls-2" x="226.02" y="231.6" width="1.15" height="11.85"/><rect class="cls-2" x="228.88" y="231.6" width="1.15" height="11.85"/><rect class="cls-2" x="231.73" y="231.6" width="1.15" height="11.85"/><rect class="cls-2" x="234.59" y="231.6" width="1.15" height="11.8"/><rect class="cls-2" x="237.44" y="231.6" width="1.15" height="17.13"/><rect class="cls-2" x="240.3" y="231.6" width="1.15" height="11.85"/><rect class="cls-2" x="243.15" y="231.6" width="1.15" height="11.85"/><rect class="cls-2" x="246" y="231.6" width="1.15" height="11.85"/><rect class="cls-2" x="248.86" y="231.6" width="1.15" height="11.8"/><rect class="cls-2" x="251.71" y="231.6" width="1.15" height="23.61"/><rect class="cls-2" x="254.57" y="231.6" width="1.15" height="11.85"/><rect class="cls-2" x="257.42" y="231.6" width="1.15" height="11.85"/><rect class="cls-2" x="260.28" y="231.6" width="1.15" height="11.85"/><rect class="cls-2" x="263.13" y="231.6" width="1.15" height="11.8"/><rect class="cls-2" x="265.98" y="231.6" width="1.15" height="17.13"/><rect class="cls-2" x="268.84" y="231.6" width="1.15" height="11.85"/><rect class="cls-2" x="271.69" y="231.6" width="1.15" height="11.85"/><rect class="cls-2" x="274.55" y="231.6" width="1.15" height="11.85"/><rect class="cls-2" x="277.4" y="231.6" width="1.15" height="11.8"/><rect class="cls-2" x="280.26" y="231.6" width="1.15" height="23.61"/><rect class="cls-2" x="283.11" y="231.6" width="1.15" height="11.85"/><rect class="cls-2" x="285.97" y="231.6" width="1.15" height="11.85"/><rect class="cls-2" x="288.82" y="231.6" width="1.15" height="11.85"/><rect class="cls-2" x="291.67" y="231.6" width="1.15" height="11.8"/><rect class="cls-2" x="294.53" y="231.6" width="1.15" height="17.13"/><rect class="cls-2" x="297.38" y="231.6" width="1.15" height="11.85"/><rect class="cls-2" x="300.24" y="231.6" width="1.15" height="11.85"/><rect class="cls-2" x="303.09" y="231.6" width="1.15" height="11.85"/><rect class="cls-2" x="305.95" y="231.6" width="1.15" height="11.8"/><rect class="cls-2" x="308.8" y="231.6" width="1.15" height="23.61"/><path d="M26,259.24a5.61,5.61,0,0,1,0,6.12,2.74,2.74,0,0,1-2.32,1.16,2.79,2.79,0,0,1-2.33-1.16,5.65,5.65,0,0,1,0-6.14,2.9,2.9,0,0,1,4.05-.6,3.1,3.1,0,0,1,.6.6Zm-3.87.62a4.51,4.51,0,0,0-.62,2.46,4.56,4.56,0,0,0,.61,2.45,1.81,1.81,0,0,0,2.46.71,1.73,1.73,0,0,0,.71-.71,5.15,5.15,0,0,0,0-4.91,1.83,1.83,0,0,0-1.59-1A1.76,1.76,0,0,0,22.17,259.86Z"/><path d="M49.71,258.14h.81v8.29h-1v-7.26l-1.44.74-.36-.7Z"/><path d="M57.44,259.24a5.57,5.57,0,0,1,0,6.12,2.76,2.76,0,0,1-3.84.75,2.55,2.55,0,0,1-.75-.75,5.57,5.57,0,0,1,0-6.14,2.78,2.78,0,0,1,3.85-.73,3,3,0,0,1,.74.73Zm-3.87.62a5.21,5.21,0,0,0,0,4.91,1.79,1.79,0,0,0,1.58.94,1.85,1.85,0,0,0,1.6-.94,5.32,5.32,0,0,0,0-4.91,1.86,1.86,0,0,0-1.6-1A1.77,1.77,0,0,0,53.57,259.86Z"/><path d="M78.34,258a2.81,2.81,0,0,1,2,.75,2.23,2.23,0,0,1,.7,1.71,2.94,2.94,0,0,1-.53,1.59,13.09,13.09,0,0,1-1.29,1.5l-1.91,2H81v.85H75.89v-.76L78.4,263a14,14,0,0,0,1.16-1.39,2,2,0,0,0,.39-1.16,1.6,1.6,0,0,0-.47-1.17,1.65,1.65,0,0,0-1.16-.44,2.55,2.55,0,0,0-1.87.82l-.56-.72A3.48,3.48,0,0,1,78.34,258Z"/><path d="M87.71,259.24a5.61,5.61,0,0,1,0,6.12,2.77,2.77,0,0,1-3.84.81,2.84,2.84,0,0,1-.81-.81,5.65,5.65,0,0,1,0-6.14,2.8,2.8,0,0,1,3.87-.78h0a2.73,2.73,0,0,1,.78.77Zm-3.87.62a4.51,4.51,0,0,0-.62,2.46,4.69,4.69,0,0,0,.6,2.45,1.81,1.81,0,0,0,2.46.72,1.72,1.72,0,0,0,.72-.72,5.15,5.15,0,0,0,0-4.91,1.83,1.83,0,0,0-1.59-1A1.76,1.76,0,0,0,83.84,259.86Z"/><path d="M106.17,258a3.35,3.35,0,0,1,2,.55,1.81,1.81,0,0,1,.79,1.55,1.91,1.91,0,0,1-1.52,1.89,2.68,2.68,0,0,1,1.3.87,2.29,2.29,0,0,1,.47,1.42,1.9,1.9,0,0,1-.86,1.73,3.87,3.87,0,0,1-2.2.56,4.58,4.58,0,0,1-2.65-.71l.59-.71a3.53,3.53,0,0,0,2,.54,2.81,2.81,0,0,0,1.55-.4,1.31,1.31,0,0,0,.57-1.16,1.51,1.51,0,0,0-.59-1.23,2.27,2.27,0,0,0-1.44-.48h-1v-.85h1a2.19,2.19,0,0,0,1.26-.37,1.26,1.26,0,0,0,.21-1.76h0l-.2-.21a2.48,2.48,0,0,0-1.39-.32,3.85,3.85,0,0,0-1.67.34l-.57-.69A4.89,4.89,0,0,1,106.17,258Z"/><path d="M115.89,259.24a5.61,5.61,0,0,1,0,6.12,2.78,2.78,0,0,1-3.85.81,2.81,2.81,0,0,1-.8-.81,5.65,5.65,0,0,1,0-6.14,2.8,2.8,0,0,1,3.87-.78h0a2.86,2.86,0,0,1,.78.77Zm-3.88.62a4.43,4.43,0,0,0-.62,2.46,4.79,4.79,0,0,0,.6,2.45,1.81,1.81,0,0,0,2.46.72,1.75,1.75,0,0,0,.73-.72,5.21,5.21,0,0,0,0-4.91,1.86,1.86,0,0,0-1.59-1A1.77,1.77,0,0,0,112,259.86Z"/><path d="M135.46,258.14h.83v5.33h1v.82h-1v2.14h-1v-2.14h-4v-.66Zm-.13,1.51-2.94,3.82h2.92Z"/><path d="M144,259.24a4.83,4.83,0,0,1,.92,3.05,5,5,0,0,1-.91,3.07,2.91,2.91,0,0,1-4.65,0,5.61,5.61,0,0,1,0-6.14,2.79,2.79,0,0,1,3.86-.73,3,3,0,0,1,.74.73Zm-3.87.62a5.26,5.26,0,0,0,0,4.91,1.79,1.79,0,0,0,1.58.94,1.85,1.85,0,0,0,1.61-.94,5.32,5.32,0,0,0,0-4.91,1.88,1.88,0,0,0-1.61-1,1.79,1.79,0,0,0-1.6,1Z"/><path d="M160.7,258.14h4.65V259h-3.78l-.29,3a2.45,2.45,0,0,1,1.87-.86,2.55,2.55,0,0,1,1.88.78,2.71,2.71,0,0,1,.71,1.92,2.58,2.58,0,0,1-.82,2,3,3,0,0,1-2.14.77,3.64,3.64,0,0,1-2.86-1.34l.61-.73a2.71,2.71,0,0,0,2.25,1.16,1.94,1.94,0,0,0,1.4-.51,1.84,1.84,0,0,0-1.26-3.2,1.69,1.69,0,0,0-1.66,1.05l-1-.41Z"/><path d="M172.48,259.24a5.61,5.61,0,0,1,0,6.12,2.77,2.77,0,0,1-3.84.81,2.84,2.84,0,0,1-.81-.81,5.69,5.69,0,0,1,0-6.14,2.8,2.8,0,0,1,3.87-.78h0a2.69,2.69,0,0,1,.77.77Zm-3.88.62a4.42,4.42,0,0,0-.61,2.46,4.69,4.69,0,0,0,.6,2.45,1.81,1.81,0,0,0,2.46.72,1.75,1.75,0,0,0,.73-.72,5.21,5.21,0,0,0,0-4.91,1.86,1.86,0,0,0-1.6-1,1.79,1.79,0,0,0-1.58,1Z"/><path d="M191.68,258a3.23,3.23,0,0,1,1.81.56,3.5,3.5,0,0,1,.54.48l-.58.77a4.61,4.61,0,0,0-.6-.57,1.94,1.94,0,0,0-1.17-.35,1.85,1.85,0,0,0-1.47.68,4.58,4.58,0,0,0-.82,2.86,2.64,2.64,0,0,1,2.25-1.31,2.86,2.86,0,0,1,2,.74,2.54,2.54,0,0,1,.85,2,2.61,2.61,0,0,1-.82,2,2.87,2.87,0,0,1-2,.72,2.81,2.81,0,0,1-2.22-.93,4.79,4.79,0,0,1-1-3.26,5,5,0,0,1,1-3.34A3,3,0,0,1,191.68,258Zm-1.51,4.55a1.77,1.77,0,0,0-.56,1.3,1.83,1.83,0,0,0,.56,1.3,2,2,0,0,0,2.71,0,1.8,1.8,0,0,0,.05-2.56l-.05,0a1.93,1.93,0,0,0-2.71,0Z"/><path d="M201.12,259.24a5.61,5.61,0,0,1,0,6.12,2.74,2.74,0,0,1-2.32,1.16,2.79,2.79,0,0,1-2.33-1.16,5.65,5.65,0,0,1,0-6.14,2.9,2.9,0,0,1,4.05-.6,3.1,3.1,0,0,1,.6.6Zm-3.87.62a5.26,5.26,0,0,0,0,4.91,1.82,1.82,0,0,0,2.47.71,1.8,1.8,0,0,0,.71-.71,5.21,5.21,0,0,0,0-4.91,1.86,1.86,0,0,0-1.6-1A1.79,1.79,0,0,0,197.25,259.86Z"/><path d="M217.73,258.14h5.65v.65l-3.62,7.64h-1.08l3.64-7.46h-4.65Z"/><path d="M230.06,259.24a5.61,5.61,0,0,1,0,6.12,2.77,2.77,0,0,1-3.84.81,2.84,2.84,0,0,1-.81-.81,5.65,5.65,0,0,1,0-6.14,2.8,2.8,0,0,1,3.87-.78h0a2.73,2.73,0,0,1,.78.77Zm-3.88.62a4.52,4.52,0,0,0-.6,2.46,4.59,4.59,0,0,0,.59,2.45,1.81,1.81,0,0,0,2.46.72,1.72,1.72,0,0,0,.72-.72,5.15,5.15,0,0,0,0-4.91,1.83,1.83,0,0,0-1.59-1A1.77,1.77,0,0,0,226.18,259.86Z"/><path d="M250.42,258.55a1.78,1.78,0,0,1,.77,1.56,1.87,1.87,0,0,1-1.44,1.89,2.68,2.68,0,0,1,1.25.87,2.4,2.4,0,0,1,.47,1.43,1.93,1.93,0,0,1-.84,1.7,4.22,4.22,0,0,1-4.29,0,1.93,1.93,0,0,1-.82-1.7,2.33,2.33,0,0,1,.46-1.43,2.7,2.7,0,0,1,1.23-.87,1.88,1.88,0,0,1-1.44-1.89,1.78,1.78,0,0,1,.77-1.56,3.8,3.8,0,0,1,3.88,0Zm-3.35,4.36a1.52,1.52,0,0,0-.56,1.24,1.37,1.37,0,0,0,.56,1.17,2.74,2.74,0,0,0,2.82,0,1.34,1.34,0,0,0,.55-1.17,1.51,1.51,0,0,0-.55-1.25,2.34,2.34,0,0,0-2.82,0Zm.17-3.67a1.26,1.26,0,0,0-.19,1.79.86.86,0,0,0,.19.19,2.29,2.29,0,0,0,2.44,0,1.14,1.14,0,0,0,.48-1,1.15,1.15,0,0,0-.47-1,2,2,0,0,0-1.23-.34,2.13,2.13,0,0,0-1.25.34Z"/><path d="M258.15,259.24a5.61,5.61,0,0,1,0,6.12,2.78,2.78,0,0,1-3.85.81,2.81,2.81,0,0,1-.8-.81,5.61,5.61,0,0,1,0-6.14,2.8,2.8,0,0,1,3.87-.78h0a2.73,2.73,0,0,1,.78.77Zm-3.88.62a4.51,4.51,0,0,0-.62,2.46,4.79,4.79,0,0,0,.61,2.45,1.81,1.81,0,0,0,2.46.72,1.78,1.78,0,0,0,.72-.72,5.15,5.15,0,0,0,0-4.91,1.83,1.83,0,0,0-1.59-1,1.77,1.77,0,0,0-1.58,1Z"/><path d="M276.86,258a2.81,2.81,0,0,1,2.22.95,4.79,4.79,0,0,1,1,3.26,4.9,4.9,0,0,1-1,3.34,2.86,2.86,0,0,1-2.32,1,3.27,3.27,0,0,1-1.8-.53,6.8,6.8,0,0,1-.57-.5l.59-.75a6.53,6.53,0,0,0,.62.56,2,2,0,0,0,2.62-.34,4.37,4.37,0,0,0,.82-2.86,2.57,2.57,0,0,1-2.25,1.32,2.91,2.91,0,0,1-1.94-.73,2.81,2.81,0,0,1,0-3.95h0A2.86,2.86,0,0,1,276.86,258Zm-1.29,1.46a1.73,1.73,0,0,0-.56,1.3,1.79,1.79,0,0,0,.56,1.3,1.93,1.93,0,0,0,2.71,0,1.81,1.81,0,0,0,.05-2.56l-.05-.05a1.89,1.89,0,0,0-1.36-.55,1.81,1.81,0,0,0-1.35.57Z"/><path d="M286.74,259.24a4.89,4.89,0,0,1,.92,3.05,5,5,0,0,1-.91,3.07,2.79,2.79,0,0,1-2.32,1.16,2.74,2.74,0,0,1-2.33-1.16,5.61,5.61,0,0,1,0-6.14,2.78,2.78,0,0,1,4.59,0Zm-3.87.62a5.21,5.21,0,0,0,0,4.91,1.79,1.79,0,0,0,1.58.94,1.83,1.83,0,0,0,1.6-.94,5.32,5.32,0,0,0,0-4.91,1.86,1.86,0,0,0-1.6-1A1.77,1.77,0,0,0,282.87,259.86Z"/><path d="M301.67,258.14h.81v8.29h-1v-7.26l-1.43.74-.37-.7Z"/><path d="M309.39,259.24a5.61,5.61,0,0,1,0,6.12,2.91,2.91,0,0,1-4.65,0,5.65,5.65,0,0,1,0-6.14,2.9,2.9,0,0,1,4.05-.6,3.41,3.41,0,0,1,.6.6Zm-3.87.62a4.43,4.43,0,0,0-.62,2.46,4.55,4.55,0,0,0,.6,2.45,1.82,1.82,0,0,0,2.47.71,1.73,1.73,0,0,0,.71-.71,5.21,5.21,0,0,0,0-4.91,1.86,1.86,0,0,0-1.59-1,1.74,1.74,0,0,0-1.57,1Z"/><path d="M317,259.24a5.61,5.61,0,0,1,0,6.12,2.91,2.91,0,0,1-4.65,0,5.65,5.65,0,0,1,0-6.14,2.9,2.9,0,0,1,4.05-.6,3.1,3.1,0,0,1,.6.6Zm-3.87.62a5.21,5.21,0,0,0,0,4.91,1.81,1.81,0,0,0,2.46.71,1.73,1.73,0,0,0,.71-.71,5.21,5.21,0,0,0,0-4.91,1.86,1.86,0,0,0-1.59-1A1.77,1.77,0,0,0,313.11,259.86Z"/><rect class="cls-2" x="311.57" y="231.6" width="1.15" height="11.85"/><rect class="cls-2" x="314.43" y="231.6" width="1.15" height="11.85"/><rect class="cls-2" x="317.28" y="231.6" width="1.15" height="11.85"/><rect class="cls-2" x="320.14" y="231.6" width="1.15" height="11.8"/><rect class="cls-2" x="322.99" y="231.6" width="1.15" height="17.13"/><rect class="cls-2" x="325.85" y="231.6" width="1.15" height="11.85"/><rect class="cls-2" x="328.7" y="231.6" width="1.15" height="11.85"/><rect class="cls-2" x="331.55" y="231.6" width="1.15" height="11.85"/><rect class="cls-2" x="334.41" y="231.6" width="1.15" height="11.8"/><rect class="cls-2" x="337.26" y="231.6" width="1.15" height="23.61"/><rect class="cls-3" y="231.46" width="10.06" height="41.13"/><path class="cls-3" d="M3.32,245h12a1.83,1.83,0,0,1,1.83,1.83h0v10.43a1.83,1.83,0,0,1-1.83,1.83h-12a.31.31,0,0,1-.31-.31V245.29a.31.31,0,0,1,.31-.31Z"/><path class="cls-3" d="M355,214.11h29.41v75.83H355a20.06,20.06,0,0,1-20-20.05V234.16A20.06,20.06,0,0,1,355,214.11Z"/><rect class="cls-4" x="340.26" y="234.4" width="37.91" height="35.26" rx="4.59"/><rect class="cls-5" x="347.57" y="234.4" width="20" height="35.26" rx="2.6"/><rect class="cls-6" x="350.83" y="237.12" width="3.61" height="27.75" rx="0.47"/><rect class="cls-6" x="355.77" y="237.12" width="3.61" height="27.75" rx="0.47"/><rect class="cls-6" x="360.44" y="237.12" width="3.61" height="27.75" rx="0.47"/><path class="cls-5" d="M356.1,289.94H384v6.81H356.1a2.48,2.48,0,0,1-2.47-2.47h0v-1.86A2.49,2.49,0,0,1,356.1,290h0Z"/><path class="cls-7" d="M246.36,171.36c-9.56-30.19-11.92-48.22-12.48-56,5.09-11.43,11.49-32.85-1.73-48.47a70.26,70.26,0,0,1,.67,18c.24-9.44-1.85-20.09-9.55-29.2a64.17,64.17,0,0,1,.93,11.58,40,40,0,0,0-8.7-18.48,61.55,61.55,0,0,1,.9,10.05A39.5,39.5,0,0,0,204.3,45a58.3,58.3,0,0,1,2.76,7.33A39.35,39.35,0,0,0,193,43.08s1.23,1.46,3,4.12a50.51,50.51,0,0,0-7.83-2.28h0a42.67,42.67,0,0,0-23.48,1.34c-9.56,2.36-19.89,7.56-26.38,18.58,0,0,1.57-.92,4.37-2.19l-.58.72a37.21,37.21,0,0,0-8.46,9.91s.88-.53,2.49-1.32a.81.81,0,0,0,0,.61,65.1,65.1,0,0,0,11.07,18.29.85.85,0,0,1-.07,1.21,1,1,0,0,1-.47.21c-5.38.42-22.67,0-32.15-21.92a1,1,0,0,1-.07-.35c.07-2.61.36-33.53-20.77-38.49a3.12,3.12,0,0,1-2.28-2.28L89.42,7.62A.87.87,0,0,0,88.36,7a.88.88,0,0,0-.41.23c-2.28,2.34-10.54,9.15-10,21.56a2.29,2.29,0,0,1-2.17,2.35c-6.07.19-22,2.29-24.66,19.17a6.42,6.42,0,0,1-6.33,5.47h-18a3.13,3.13,0,0,0-3.15,3.13,3.71,3.71,0,0,0,0,.47c.93,6.31,4.81,19.43,21,27.56a6.55,6.55,0,0,1,3.64,5.71c-2.28,3.07-10.77,17.15-3,51.44a70.76,70.76,0,0,1,.46-11.27,41.18,41.18,0,0,0,9.47,24.67,50.71,50.71,0,0,1-.72-6,61.54,61.54,0,0,0,26,27.51.85.85,0,0,1,.43.74v35.65a.86.86,0,0,1-.35.69c-1.95,1.37-10.91,8.1-12.2,12.67a.86.86,0,0,0,.62,1l.23,0H92.56a1.62,1.62,0,0,0,1.64-1.62h0a1.65,1.65,0,0,1,1.4-1.63c6.44-.92,32.8-5.91,32.8-25.15V178.8a.72.72,0,0,1,.16-.49C129.7,176.68,138,167,168.4,167.6c32.39.66,45.53,31,46.14,32.43a.2.2,0,0,1,0,.11c.22,1,3,14.86-6.95,19a.8.8,0,0,0-.38.3c-.54.81-2.56,3.85-3.76,5.63a.87.87,0,0,0,.26,1.2.86.86,0,0,0,.46.14h18.29a.87.87,0,0,1,.85.89,1,1,0,0,1-.05.25l-1.14,2.77a.85.85,0,0,0,.52,1.09.87.87,0,0,0,.28.05h22.86a.84.84,0,0,0,.72-.4C248.43,228.29,258.57,209.86,246.36,171.36Z"/><path class="cls-8" d="M48.33,92.6s-11.78,12.85-3,51.44c0,0-.18-9.22.42-11.14,0,0,.53,15.13,9.45,24.56,0,0-.82-5.47-.7-6.08s6.86,17.86,26.38,28.31c0,0-10.42-15.72-7-28.89,0,0,4.57,1,5.29,9.75,0,0,7.86-20.51.69-32.14,0,0,1.54-1.14,6,1.14,0,0,1.14-7-8.38-21.54,0,0,5.58,5.19,7.63,7.75C85.08,115.85,79.38,92.6,48.33,92.6Z"/><path class="cls-9" d="M27.48,55.78s-3.72-.35-3.85,3.21a27.56,27.56,0,0,0,.7,3.71,8.26,8.26,0,0,0,2.28-1.14,8.24,8.24,0,0,0,3.76-5.44l.07-.39Z"/><path class="cls-8" d="M232.15,66.89c1.48,5.59.67,18,.67,18,.64-18.89-9.55-29.21-9.55-29.21a78.08,78.08,0,0,1,.93,11.43,40,40,0,0,0-8.7-18.35c.73,2.82.9,10.05.9,10.05A40.27,40.27,0,0,0,204.3,45a77,77,0,0,1,2.76,7.33A40.61,40.61,0,0,0,193,43.08a50.48,50.48,0,0,1,3,4.12,43.79,43.79,0,0,0-29.49-1.63,31.92,31.92,0,0,1-3.35.93c-15.57,3.06-24.85,18.29-24.85,18.29l4.37-2.2c-3.53,2.22-9,10.63-9,10.63a120.35,120.35,0,0,1,14.31-5,22.31,22.31,0,0,0-4.83,5.2,100.6,100.6,0,0,1,13-6.4,22.15,22.15,0,0,0-5.1,5.48,100,100,0,0,1,13.92-6.79,22.55,22.55,0,0,0-6.08,6.12,100.88,100.88,0,0,1,13.78-6.73h0a22.42,22.42,0,0,0-6,6s12.17-5.6,12.57-5.55a22.52,22.52,0,0,0-6.27,5.09s12.33-3.95,12.79-3.84a22,22,0,0,0-7.46,3.56s14.35-1.39,14.53-1.32a22.39,22.39,0,0,0-6.94,3.43s12.41-1,12.84-.73a22.85,22.85,0,0,0-5.26,2.84h0a18.84,18.84,0,0,1,15.3,3.79c18.62,15,25.15,37.34,25.15,37.34C248.31,81.66,232.15,66.89,232.15,66.89Z"/><path class="cls-10" d="M95.6,226.57c.32-1.59.65-3.18,1-4.76l1.14-4.72,1.14-4.7c.39-1.56.84-3.11,1.24-4.67l.58-2.17,1.62,1.63a8.83,8.83,0,0,1,2.19,3.84,8.92,8.92,0,0,1,.2,1.15v.66a.9.9,0,0,0-.08-.28.27.27,0,0,0-.07-.14,1.16,1.16,0,0,0-.33-.4,1.42,1.42,0,0,0-1-.34,1.48,1.48,0,0,0-.58.16l-.2.14-.09.08h0l.15-.28c.11-.22.22-.47.34-.74a33,33,0,0,0,1.14-3.31c.33-1.13.69-2.29,1-3.43a93.94,93.94,0,0,0,2.44-14.43c.23-2.4.36-4.82.39-7.24s0-4.85-.08-7.29a128.29,128.29,0,0,0-1.56-14.62,66,66,0,0,1,3.8,14.41c.38,2.47.59,5,.73,7.46s.08,5,0,7.52A73.27,73.27,0,0,1,108.35,205a41.08,41.08,0,0,1-2.57,7.22,9.19,9.19,0,0,1-.49.92,4,4,0,0,1-.32.52l-.25.32a1.42,1.42,0,0,1-.25.24,1.57,1.57,0,0,1-.3.2,1.42,1.42,0,0,1-.67.2,1.51,1.51,0,0,1-1.14-.36,1.63,1.63,0,0,1-.38-.45.22.22,0,0,0-.09-.2,2.38,2.38,0,0,1-.11-.38v-.82a4.43,4.43,0,0,0-.09-.72,6.64,6.64,0,0,0-.46-1.41,5.72,5.72,0,0,0-.75-1.22l2.2-.55c-.55,1.52-1.07,3-1.65,4.58l-1.72,4.57-1.78,4.5Z"/><path class="cls-10" d="M223.38,227.16a17.64,17.64,0,0,1,3.2-3.8,6.89,6.89,0,0,1,2.28-1.4,3,3,0,0,1,.72-.17h.2s-.23,0-.28.08a.09.09,0,0,0-.08.06h0a5.25,5.25,0,0,0,.12-1,32.67,32.67,0,0,0-.26-4.74c-.18-1.6-.36-3.2-.62-4.78-.52-3.19-1.07-6.37-1.79-9.5s-1.47-6.28-2.41-9.34a87.53,87.53,0,0,0-3.14-9.07A59.31,59.31,0,0,0,217.1,175a30.43,30.43,0,0,0-6-7.24,18.21,18.21,0,0,0-8.49-4.21,16.58,16.58,0,0,1,9.5,2.86,28.13,28.13,0,0,1,7.2,7.11,60.61,60.61,0,0,1,8.43,18.09,95.94,95.94,0,0,1,3.56,19.53,46.53,46.53,0,0,1-.12,10,5.38,5.38,0,0,1-.41,1.42l-.13.23a2,2,0,0,1-.3.28,1,1,0,0,1-.56.17h-.12a1.85,1.85,0,0,0-.47,0,6.35,6.35,0,0,0-2,.87A24,24,0,0,0,223.38,227.16Z"/><ellipse class="cls-11" cx="58.59" cy="50.03" rx="5.38" ry="6.93"/><circle class="cls-12" cx="56.68" cy="50.23" r="2.97"/><circle class="cls-12" cx="42.18" cy="61.64" r="1.06"/><circle class="cls-12" cx="38.08" cy="66" r="1.06"/><circle class="cls-12" cx="42.18" cy="71.61" r="1.06"/><line class="cls-13" x1="23.94" y1="231.03" x2="23.94"/><line class="cls-13" x1="252.29" y1="231.03" x2="252.29"/></g></g></svg>