<svg xmlns="http://www.w3.org/2000/svg" viewBox="0 0 384.44 326.44"><defs><style>.cls-1{fill:#ead144;}.cls-2{fill:#1d1d1b;}.cls-3{fill:#404042;}.cls-4{fill:#565656;}.cls-5{fill:#f9dc4b;}.cls-6{fill:#f2cb2a;}.cls-7{fill:#f4dfab;}.cls-8{fill:#f7ebd2;}.cls-9{fill:#7c5d27;}.cls-10{fill:#b2996d;}.cls-11{fill:#f7f4f0;}.cls-12{fill:#493e32;}.cls-13{fill:none;stroke:#3c7baa;stroke-miterlimit:10;stroke-width:1.15px;stroke-dasharray:5.77 5.77;}</style></defs><title>90</title><g id="Capa_2" data-name="Capa 2"><g id="Capa_1-2" data-name="Capa 1"><rect class="cls-1" y="261.15" width="384.44" height="41.13"/><rect class="cls-2" x="23.36" y="261.29" width="1.15" height="23.61"/><rect class="cls-2" x="26.22" y="261.29" width="1.15" height="11.85"/><rect class="cls-2" x="29.07" y="261.29" width="1.15" height="11.85"/><rect class="cls-2" x="31.93" y="261.29" width="1.15" height="11.85"/><rect class="cls-2" x="34.78" y="261.29" width="1.15" height="11.8"/><rect class="cls-2" x="37.64" y="261.29" width="1.15" height="17.13"/><rect class="cls-2" x="40.49" y="261.29" width="1.15" height="11.85"/><rect class="cls-2" x="43.34" y="261.29" width="1.15" height="11.85"/><rect class="cls-2" x="46.2" y="261.29" width="1.15" height="11.85"/><rect class="cls-2" x="49.05" y="261.29" width="1.15" height="11.8"/><rect class="cls-2" x="51.91" y="261.29" width="1.15" height="23.61"/><rect class="cls-2" x="54.76" y="261.29" width="1.15" height="11.85"/><rect class="cls-2" x="57.62" y="261.29" width="1.15" height="11.85"/><rect class="cls-2" x="60.47" y="261.29" width="1.15" height="11.85"/><rect class="cls-2" x="63.32" y="261.29" width="1.15" height="11.8"/><rect class="cls-2" x="66.18" y="261.29" width="1.15" height="17.13"/><rect class="cls-2" x="69.03" y="261.29" width="1.15" height="11.85"/><rect class="cls-2" x="71.89" y="261.29" width="1.15" height="11.85"/><rect class="cls-2" x="74.74" y="261.29" width="1.15" height="11.85"/><rect class="cls-2" x="77.6" y="261.29" width="1.15" height="11.8"/><rect class="cls-2" x="80.45" y="261.29" width="1.15" height="23.61"/><rect class="cls-2" x="83.31" y="261.29" width="1.15" height="11.85"/><rect class="cls-2" x="86.16" y="261.29" width="1.15" height="11.85"/><rect class="cls-2" x="89.01" y="261.29" width="1.15" height="11.85"/><rect class="cls-2" x="91.87" y="261.29" width="1.15" height="11.8"/><rect class="cls-2" x="94.72" y="261.29" width="1.15" height="17.13"/><rect class="cls-2" x="97.58" y="261.29" width="1.15" height="11.85"/><rect class="cls-2" x="100.43" y="261.29" width="1.15" height="11.85"/><rect class="cls-2" x="103.29" y="261.29" width="1.15" height="11.85"/><rect class="cls-2" x="106.14" y="261.29" width="1.15" height="11.8"/><rect class="cls-2" x="108.99" y="261.29" width="1.15" height="23.61"/><rect class="cls-2" x="111.85" y="261.29" width="1.15" height="11.85"/><rect class="cls-2" x="114.7" y="261.29" width="1.15" height="11.85"/><rect class="cls-2" x="117.56" y="261.29" width="1.15" height="11.85"/><rect class="cls-2" x="120.41" y="261.29" width="1.15" height="11.8"/><rect class="cls-2" x="123.27" y="261.29" width="1.15" height="17.13"/><rect class="cls-2" x="126.12" y="261.29" width="1.15" height="11.85"/><rect class="cls-2" x="128.98" y="261.29" width="1.15" height="11.85"/><rect class="cls-2" x="131.83" y="261.29" width="1.15" height="11.85"/><rect class="cls-2" x="134.68" y="261.29" width="1.15" height="11.8"/><rect class="cls-2" x="137.54" y="261.29" width="1.15" height="23.61"/><rect class="cls-2" x="140.39" y="261.29" width="1.15" height="11.85"/><rect class="cls-2" x="143.25" y="261.29" width="1.15" height="11.85"/><rect class="cls-2" x="146.1" y="261.29" width="1.15" height="11.85"/><rect class="cls-2" x="148.96" y="261.29" width="1.15" height="11.8"/><rect class="cls-2" x="151.81" y="261.29" width="1.15" height="17.13"/><rect class="cls-2" x="154.66" y="261.29" width="1.15" height="11.85"/><rect class="cls-2" x="157.52" y="261.29" width="1.15" height="11.85"/><rect class="cls-2" x="160.37" y="261.29" width="1.15" height="11.85"/><rect class="cls-2" x="163.23" y="261.29" width="1.15" height="11.8"/><rect class="cls-2" x="166.08" y="261.29" width="1.15" height="23.61"/><rect class="cls-2" x="168.94" y="261.29" width="1.15" height="11.85"/><rect class="cls-2" x="171.79" y="261.29" width="1.15" height="11.85"/><rect class="cls-2" x="174.65" y="261.29" width="1.15" height="11.85"/><rect class="cls-2" x="177.5" y="261.29" width="1.15" height="11.8"/><rect class="cls-2" x="180.35" y="261.29" width="1.15" height="17.13"/><rect class="cls-2" x="183.21" y="261.29" width="1.15" height="11.85"/><rect class="cls-2" x="186.06" y="261.29" width="1.15" height="11.85"/><rect class="cls-2" x="188.92" y="261.29" width="1.15" height="11.85"/><rect class="cls-2" x="191.77" y="261.29" width="1.15" height="11.8"/><rect class="cls-2" x="194.63" y="261.29" width="1.15" height="23.61"/><rect class="cls-2" x="197.48" y="261.29" width="1.15" height="11.85"/><rect class="cls-2" x="200.33" y="261.29" width="1.15" height="11.85"/><rect class="cls-2" x="203.19" y="261.29" width="1.15" height="11.85"/><rect class="cls-2" x="206.04" y="261.29" width="1.15" height="11.8"/><rect class="cls-2" x="208.9" y="261.29" width="1.15" height="17.13"/><rect class="cls-2" x="211.75" y="261.29" width="1.15" height="11.85"/><rect class="cls-2" x="214.61" y="261.29" width="1.15" height="11.85"/><rect class="cls-2" x="217.46" y="261.29" width="1.15" height="11.85"/><rect class="cls-2" x="220.31" y="261.29" width="1.15" height="11.8"/><rect class="cls-2" x="223.17" y="261.29" width="1.15" height="23.61"/><rect class="cls-2" x="226.02" y="261.29" width="1.15" height="11.85"/><rect class="cls-2" x="228.88" y="261.29" width="1.15" height="11.85"/><rect class="cls-2" x="231.73" y="261.29" width="1.15" height="11.85"/><rect class="cls-2" x="234.59" y="261.29" width="1.15" height="11.8"/><rect class="cls-2" x="237.44" y="261.29" width="1.15" height="17.13"/><rect class="cls-2" x="240.3" y="261.29" width="1.15" height="11.85"/><rect class="cls-2" x="243.15" y="261.29" width="1.15" height="11.85"/><rect class="cls-2" x="246" y="261.29" width="1.15" height="11.85"/><rect class="cls-2" x="248.86" y="261.29" width="1.15" height="11.8"/><rect class="cls-2" x="251.71" y="261.29" width="1.15" height="23.61"/><rect class="cls-2" x="254.57" y="261.29" width="1.15" height="11.85"/><rect class="cls-2" x="257.42" y="261.29" width="1.15" height="11.85"/><rect class="cls-2" x="260.28" y="261.29" width="1.15" height="11.85"/><rect class="cls-2" x="263.13" y="261.29" width="1.15" height="11.8"/><rect class="cls-2" x="265.98" y="261.29" width="1.15" height="17.13"/><rect class="cls-2" x="268.84" y="261.29" width="1.15" height="11.85"/><rect class="cls-2" x="271.69" y="261.29" width="1.15" height="11.85"/><rect class="cls-2" x="274.55" y="261.29" width="1.15" height="11.85"/><rect class="cls-2" x="277.4" y="261.29" width="1.15" height="11.8"/><rect class="cls-2" x="280.26" y="261.29" width="1.15" height="23.61"/><rect class="cls-2" x="283.11" y="261.29" width="1.15" height="11.85"/><rect class="cls-2" x="285.97" y="261.29" width="1.15" height="11.85"/><rect class="cls-2" x="288.82" y="261.29" width="1.15" height="11.85"/><rect class="cls-2" x="291.67" y="261.29" width="1.15" height="11.8"/><rect class="cls-2" x="294.53" y="261.29" width="1.15" height="17.13"/><rect class="cls-2" x="297.38" y="261.29" width="1.15" height="11.85"/><rect class="cls-2" x="300.24" y="261.29" width="1.15" height="11.85"/><rect class="cls-2" x="303.09" y="261.29" width="1.15" height="11.85"/><rect class="cls-2" x="305.95" y="261.29" width="1.15" height="11.8"/><rect class="cls-2" x="308.8" y="261.29" width="1.15" height="23.61"/><path d="M26,288.93a5.61,5.61,0,0,1,0,6.12,2.77,2.77,0,0,1-2.32,1.17,2.83,2.83,0,0,1-2.33-1.17,5.63,5.63,0,0,1,0-6.13,2.87,2.87,0,0,1,4.65,0Zm-3.87.62a5.21,5.21,0,0,0,0,4.91,1.81,1.81,0,0,0,2.46.71,1.73,1.73,0,0,0,.71-.71,5.15,5.15,0,0,0,0-4.91,1.83,1.83,0,0,0-1.59-1A1.76,1.76,0,0,0,22.17,289.55Z"/><path d="M49.71,287.83h.81v8.29h-1v-7.26l-1.44.74-.36-.7Z"/><path d="M57.44,288.93a5.57,5.57,0,0,1,0,6.12,2.76,2.76,0,0,1-3.84.75,2.44,2.44,0,0,1-.75-.75,5.55,5.55,0,0,1,0-6.13,2.77,2.77,0,0,1,3.85-.74,2.89,2.89,0,0,1,.74.74Zm-3.87.62a5.21,5.21,0,0,0,0,4.91,1.79,1.79,0,0,0,1.58.94,1.85,1.85,0,0,0,1.6-.94,5.32,5.32,0,0,0,0-4.91,1.86,1.86,0,0,0-1.6-1A1.77,1.77,0,0,0,53.57,289.55Z"/><path d="M78.34,287.69a2.81,2.81,0,0,1,2,.75,2.23,2.23,0,0,1,.7,1.71,2.94,2.94,0,0,1-.53,1.59,13.09,13.09,0,0,1-1.29,1.5l-1.91,2H81v.85H75.89v-.75l2.51-2.66a14,14,0,0,0,1.16-1.39,2,2,0,0,0,.39-1.16,1.56,1.56,0,0,0-.47-1.16,1.61,1.61,0,0,0-1.16-.45,2.55,2.55,0,0,0-1.87.82l-.56-.72A3.48,3.48,0,0,1,78.34,287.69Z"/><path d="M87.71,288.93a5.61,5.61,0,0,1,0,6.12,2.77,2.77,0,0,1-3.84.81,2.84,2.84,0,0,1-.81-.81,5.63,5.63,0,0,1,0-6.13,2.79,2.79,0,0,1,3.87-.79h0a2.64,2.64,0,0,1,.78.78Zm-3.87.62a4.54,4.54,0,0,0-.62,2.46,4.69,4.69,0,0,0,.6,2.45,1.8,1.8,0,0,0,3.18,0,5.15,5.15,0,0,0,0-4.91,1.83,1.83,0,0,0-1.59-1A1.76,1.76,0,0,0,83.84,289.55Z"/><path d="M106.17,287.69a3.35,3.35,0,0,1,2,.55,1.81,1.81,0,0,1,.79,1.55,1.91,1.91,0,0,1-1.52,1.89,2.68,2.68,0,0,1,1.3.87,2.29,2.29,0,0,1,.47,1.42,1.9,1.9,0,0,1-.86,1.73,3.87,3.87,0,0,1-2.2.56,4.58,4.58,0,0,1-2.65-.71l.59-.71a3.53,3.53,0,0,0,2,.54,2.81,2.81,0,0,0,1.55-.4,1.31,1.31,0,0,0,.57-1.16,1.51,1.51,0,0,0-.59-1.23,2.33,2.33,0,0,0-1.44-.48h-1v-.85h1a2.19,2.19,0,0,0,1.26-.37,1.26,1.26,0,0,0,.21-1.76h0l-.2-.2a2.41,2.41,0,0,0-1.39-.33,3.85,3.85,0,0,0-1.67.34l-.57-.69A4.89,4.89,0,0,1,106.17,287.69Z"/><path d="M115.89,288.93a5.61,5.61,0,0,1,0,6.12,2.78,2.78,0,0,1-3.85.81,2.81,2.81,0,0,1-.8-.81,5.63,5.63,0,0,1,0-6.13,2.79,2.79,0,0,1,3.87-.79h0a2.76,2.76,0,0,1,.78.78Zm-3.88.62a4.45,4.45,0,0,0-.62,2.46,4.79,4.79,0,0,0,.6,2.45,1.81,1.81,0,0,0,3.19,0,5.21,5.21,0,0,0,0-4.91,1.86,1.86,0,0,0-1.59-1A1.77,1.77,0,0,0,112,289.55Z"/><path d="M135.46,287.83h.83v5.33h1V294h-1v2.14h-1V294h-4v-.66Zm-.13,1.52-2.94,3.81h2.92Z"/><path d="M144,288.93a4.83,4.83,0,0,1,.92,3.05,5,5,0,0,1-.91,3.07,2.9,2.9,0,0,1-4.65,0,5.59,5.59,0,0,1,0-6.13,2.78,2.78,0,0,1,3.86-.74,2.89,2.89,0,0,1,.74.74Zm-3.87.62a5.26,5.26,0,0,0,0,4.91,1.79,1.79,0,0,0,1.58.94,1.85,1.85,0,0,0,1.61-.94,5.32,5.32,0,0,0,0-4.91,1.88,1.88,0,0,0-1.61-1,1.79,1.79,0,0,0-1.6,1Z"/><path d="M160.7,287.83h4.65v.81h-3.78l-.29,3a2.45,2.45,0,0,1,1.87-.86,2.55,2.55,0,0,1,1.88.78,2.71,2.71,0,0,1,.71,1.92,2.58,2.58,0,0,1-.82,2,3,3,0,0,1-2.14.77,3.64,3.64,0,0,1-2.86-1.34l.61-.73a2.69,2.69,0,0,0,2.25,1.16,1.9,1.9,0,0,0,1.4-.51,1.84,1.84,0,0,0-1.26-3.2,1.69,1.69,0,0,0-1.66,1.05l-1-.41Z"/><path d="M172.48,288.93a5.61,5.61,0,0,1,0,6.12,2.77,2.77,0,0,1-3.84.81,2.84,2.84,0,0,1-.81-.81,5.67,5.67,0,0,1,0-6.13,2.79,2.79,0,0,1,3.87-.79h0a2.6,2.6,0,0,1,.77.78Zm-3.88.62A4.44,4.44,0,0,0,168,292a4.69,4.69,0,0,0,.6,2.45,1.81,1.81,0,0,0,3.19,0,5.21,5.21,0,0,0,0-4.91,1.86,1.86,0,0,0-1.6-1,1.79,1.79,0,0,0-1.58,1Z"/><path d="M191.68,287.69a3.23,3.23,0,0,1,1.81.56,3.5,3.5,0,0,1,.54.48l-.58.77a4.61,4.61,0,0,0-.6-.57,1.94,1.94,0,0,0-1.17-.35,1.85,1.85,0,0,0-1.47.68,4.58,4.58,0,0,0-.82,2.86,2.64,2.64,0,0,1,2.25-1.31,2.86,2.86,0,0,1,2,.74,2.54,2.54,0,0,1,.85,2,2.61,2.61,0,0,1-.82,2,2.87,2.87,0,0,1-2,.72,2.81,2.81,0,0,1-2.22-.93,4.79,4.79,0,0,1-1-3.26,5,5,0,0,1,1-3.34A3,3,0,0,1,191.68,287.69Zm-1.51,4.55a1.79,1.79,0,0,0-.56,1.3,1.83,1.83,0,0,0,.56,1.3,2,2,0,0,0,2.71,0,1.8,1.8,0,0,0,.05-2.56l-.05,0a1.93,1.93,0,0,0-2.71,0Z"/><path d="M201.12,288.93a5.61,5.61,0,0,1,0,6.12,2.77,2.77,0,0,1-2.32,1.17,2.83,2.83,0,0,1-2.33-1.17,5.63,5.63,0,0,1,0-6.13,2.87,2.87,0,0,1,4.65,0Zm-3.87.62a5.26,5.26,0,0,0,0,4.91,1.82,1.82,0,0,0,2.47.71,1.8,1.8,0,0,0,.71-.71,5.21,5.21,0,0,0,0-4.91,1.86,1.86,0,0,0-1.6-1A1.79,1.79,0,0,0,197.25,289.55Z"/><path d="M217.73,287.83h5.65v.66l-3.62,7.63h-1.08l3.64-7.46h-4.65Z"/><path d="M230.06,288.93a5.61,5.61,0,0,1,0,6.12,2.77,2.77,0,0,1-3.84.81,2.84,2.84,0,0,1-.81-.81,5.63,5.63,0,0,1,0-6.13,2.79,2.79,0,0,1,3.87-.79h0a2.64,2.64,0,0,1,.78.78Zm-3.88.62a4.52,4.52,0,0,0-.6,2.46,4.59,4.59,0,0,0,.59,2.45,1.8,1.8,0,0,0,3.18,0,5.15,5.15,0,0,0,0-4.91,1.83,1.83,0,0,0-1.59-1A1.77,1.77,0,0,0,226.18,289.55Z"/><path d="M250.42,288.24a1.78,1.78,0,0,1,.77,1.56,1.87,1.87,0,0,1-1.44,1.89,2.63,2.63,0,0,1,1.25.88,2.36,2.36,0,0,1,.47,1.43,1.93,1.93,0,0,1-.84,1.69,4.23,4.23,0,0,1-4.29,0,1.91,1.91,0,0,1-.82-1.69,2.29,2.29,0,0,1,.46-1.43,2.65,2.65,0,0,1,1.23-.88,1.88,1.88,0,0,1-1.44-1.89,1.78,1.78,0,0,1,.77-1.56,3.8,3.8,0,0,1,3.88,0Zm-3.35,4.36a1.52,1.52,0,0,0-.56,1.24,1.37,1.37,0,0,0,.56,1.17,2.74,2.74,0,0,0,2.82,0,1.34,1.34,0,0,0,.55-1.17,1.51,1.51,0,0,0-.55-1.25,2.34,2.34,0,0,0-2.82,0Zm.17-3.67a1.27,1.27,0,0,0-.19,1.8,1.09,1.09,0,0,0,.19.18,2.29,2.29,0,0,0,2.44,0,1.13,1.13,0,0,0,.48-1,1.16,1.16,0,0,0-.47-1,2,2,0,0,0-1.23-.34,2.13,2.13,0,0,0-1.25.34Z"/><path d="M258.15,288.93a5.61,5.61,0,0,1,0,6.12,2.78,2.78,0,0,1-3.85.81,2.81,2.81,0,0,1-.8-.81,5.59,5.59,0,0,1,0-6.13,2.79,2.79,0,0,1,3.87-.79h0a2.64,2.64,0,0,1,.78.78Zm-3.88.62a4.54,4.54,0,0,0-.62,2.46,4.79,4.79,0,0,0,.61,2.45,1.82,1.82,0,0,0,2.46.73,1.87,1.87,0,0,0,.72-.73,5.15,5.15,0,0,0,0-4.91,1.83,1.83,0,0,0-1.59-1,1.77,1.77,0,0,0-1.58,1Z"/><path d="M276.86,287.69a2.85,2.85,0,0,1,2.22.95,4.79,4.79,0,0,1,1,3.26,4.9,4.9,0,0,1-1,3.34,2.86,2.86,0,0,1-2.32,1,3.27,3.27,0,0,1-1.8-.53,6.8,6.8,0,0,1-.57-.5l.59-.75a6.53,6.53,0,0,0,.62.56,2,2,0,0,0,2.62-.34,4.37,4.37,0,0,0,.82-2.86,2.57,2.57,0,0,1-2.25,1.32,2.86,2.86,0,0,1-1.94-.73,2.8,2.8,0,0,1,0-3.94h0A2.83,2.83,0,0,1,276.86,287.69Zm-1.29,1.46a1.73,1.73,0,0,0-.56,1.3,1.79,1.79,0,0,0,.56,1.3,1.93,1.93,0,0,0,2.71,0,1.81,1.81,0,0,0,.05-2.56l-.05-.05a1.89,1.89,0,0,0-1.36-.55,1.81,1.81,0,0,0-1.35.57Z"/><path d="M286.74,288.93a4.89,4.89,0,0,1,.92,3.05,5,5,0,0,1-.91,3.07,2.82,2.82,0,0,1-2.32,1.17,2.77,2.77,0,0,1-2.33-1.17,5.59,5.59,0,0,1,0-6.13,2.78,2.78,0,0,1,3.86-.74,2.71,2.71,0,0,1,.73.74Zm-3.87.62a5.21,5.21,0,0,0,0,4.91,1.79,1.79,0,0,0,1.58.94,1.83,1.83,0,0,0,1.6-.94,5.32,5.32,0,0,0,0-4.91,1.86,1.86,0,0,0-1.6-1A1.77,1.77,0,0,0,282.87,289.55Z"/><path d="M301.67,287.83h.81v8.29h-1v-7.26l-1.43.74-.37-.7Z"/><path d="M309.39,288.93a5.61,5.61,0,0,1,0,6.12,2.9,2.9,0,0,1-4.65,0,5.63,5.63,0,0,1,0-6.13,2.89,2.89,0,0,1,4.05-.61,3.15,3.15,0,0,1,.6.61Zm-3.87.62a4.45,4.45,0,0,0-.62,2.46,4.55,4.55,0,0,0,.6,2.45,1.82,1.82,0,0,0,2.47.71,1.73,1.73,0,0,0,.71-.71,5.21,5.21,0,0,0,0-4.91,1.86,1.86,0,0,0-1.59-1,1.74,1.74,0,0,0-1.57,1Z"/><path d="M317,288.93a5.61,5.61,0,0,1,0,6.12,2.9,2.9,0,0,1-4.65,0,5.63,5.63,0,0,1,0-6.13,2.87,2.87,0,0,1,4.65,0Zm-3.87.62a5.21,5.21,0,0,0,0,4.91,1.81,1.81,0,0,0,2.46.71,1.73,1.73,0,0,0,.71-.71,5.21,5.21,0,0,0,0-4.91,1.86,1.86,0,0,0-1.59-1A1.77,1.77,0,0,0,313.11,289.55Z"/><rect class="cls-2" x="311.57" y="261.29" width="1.15" height="11.85"/><rect class="cls-2" x="314.43" y="261.29" width="1.15" height="11.85"/><rect class="cls-2" x="317.28" y="261.29" width="1.15" height="11.85"/><rect class="cls-2" x="320.14" y="261.29" width="1.15" height="11.8"/><rect class="cls-2" x="322.99" y="261.29" width="1.15" height="17.13"/><rect class="cls-2" x="325.85" y="261.29" width="1.15" height="11.85"/><rect class="cls-2" x="328.7" y="261.29" width="1.15" height="11.85"/><rect class="cls-2" x="331.55" y="261.29" width="1.15" height="11.85"/><rect class="cls-2" x="334.41" y="261.29" width="1.15" height="11.8"/><rect class="cls-2" x="337.26" y="261.29" width="1.15" height="23.61"/><rect class="cls-3" y="261.15" width="10.06" height="41.13"/><path class="cls-3" d="M3.32,274.69h12a1.83,1.83,0,0,1,1.83,1.83h0V287a1.83,1.83,0,0,1-1.83,1.83h-12a.31.31,0,0,1-.31-.31V275a.31.31,0,0,1,.31-.31Z"/><path class="cls-3" d="M355,243.8h29.41v75.83H355a20.06,20.06,0,0,1-20-20.05V263.85A20.06,20.06,0,0,1,355,243.8Z"/><rect class="cls-4" x="340.26" y="264.09" width="37.91" height="35.26" rx="4.59"/><rect class="cls-5" x="347.57" y="264.09" width="20" height="35.26" rx="2.6"/><rect class="cls-6" x="350.83" y="266.81" width="3.61" height="27.75" rx="0.47"/><rect class="cls-6" x="355.77" y="266.81" width="3.61" height="27.75" rx="0.47"/><rect class="cls-6" x="360.44" y="266.81" width="3.61" height="27.75" rx="0.47"/><path class="cls-5" d="M356.1,319.63H384v6.81H356.1a2.48,2.48,0,0,1-2.47-2.47h0v-1.86a2.49,2.49,0,0,1,2.47-2.42h0Z"/><path class="cls-7" d="M274.17,193.54c-10.76-34-13.41-54.23-14-63,5.72-12.86,12.92-37-1.94-54.54a79.33,79.33,0,0,1,.75,20.3c.27-10.63-2.09-22.61-10.74-32.86a72,72,0,0,1,1,13,44.81,44.81,0,0,0-9.78-20.78,70.11,70.11,0,0,1,1,11.3,44.24,44.24,0,0,0-13.62-15.53A64,64,0,0,1,230,59.7a44.38,44.38,0,0,0-15.88-10.45,55.41,55.41,0,0,1,3.39,4.64,57.34,57.34,0,0,0-8.81-2.57h0a48,48,0,0,0-26.41,1.5c-10.76,2.66-22.37,8.51-29.67,20.91,0,0,1.76-1,4.91-2.47l-.66.81a41.86,41.86,0,0,0-9.51,11.15s1-.59,2.8-1.48a.89.89,0,0,0,0,.68A73.07,73.07,0,0,0,162.59,103a1,1,0,0,1-.09,1.37.94.94,0,0,1-.53.23c-6,.47-25.5,0-36.16-24.65a1.09,1.09,0,0,1-.07-.4c.07-2.93.4-37.71-23.37-43.29a3.51,3.51,0,0,1-2.57-2.57L97.63,9.36a1,1,0,0,0-1.19-.7,1.06,1.06,0,0,0-.46.26c-2.57,2.64-11.85,10.29-11.23,24.25a2.58,2.58,0,0,1-2.45,2.65c-6.83.21-24.78,2.57-27.73,21.57a7.22,7.22,0,0,1-7.13,6.14H27.23a3.55,3.55,0,0,0-3.55,3.53,3,3,0,0,0,0,.52c1,7.1,5.41,21.86,23.59,31A7.38,7.38,0,0,1,51.42,105c-2.57,3.45-12.12,19.29-3.4,57.87a79,79,0,0,1,.52-12.68A46.29,46.29,0,0,0,59.18,178a59.7,59.7,0,0,1-.81-6.78,69.22,69.22,0,0,0,29.22,31,1,1,0,0,1,.49.83v40.1a1,1,0,0,1-.4.78c-2.19,1.54-12.27,9.1-13.72,14.25a1,1,0,0,0,.69,1.15,1.09,1.09,0,0,0,.26,0h26.26a1.84,1.84,0,0,0,1.85-1.82v0a1.82,1.82,0,0,1,1.57-1.82c7.23-1,36.89-6.65,36.89-28.29v-25.4a.85.85,0,0,1,.18-.55c1.28-1.83,10.63-12.76,44.82-12.05,36.43.75,51.21,34.87,51.9,36.48a.29.29,0,0,1,0,.13c.24,1.12,3.35,16.72-7.82,21.37a1,1,0,0,0-.43.33c-.6.92-2.88,4.34-4.23,6.34a1,1,0,0,0,.3,1.35.93.93,0,0,0,.51.16h20.58a1,1,0,0,1,1,1,1.26,1.26,0,0,1-.05.28l-1.29,3.12a1,1,0,0,0,.59,1.23,1.06,1.06,0,0,0,.31,0h25.72a1,1,0,0,0,.81-.45C276.5,257.59,287.91,236.85,274.17,193.54Z"/><path class="cls-8" d="M51.42,105S38.16,119.4,48,162.81c0,0-.2-10.36.47-12.52,0,0,.6,17,10.63,27.62,0,0-.93-6.15-.79-6.84S66.05,191.16,88,202.92c0,0-11.73-17.68-7.88-32.5,0,0,5.14,1.16,6,11,0,0,8.85-23.08.77-36.16,0,0,1.74-1.28,6.74,1.29,0,0,1.29-7.9-9.42-24.24,0,0,6.27,5.84,8.59,8.72C92.76,131.1,86.34,105,51.42,105Z"/><path class="cls-9" d="M28,63.53s-4.19-.38-4.33,3.62a32.92,32.92,0,0,0,.78,4.17A9.28,9.28,0,0,0,27,70a9.4,9.4,0,0,0,4.23-6.12l.07-.44Z"/><path class="cls-8" d="M258.19,76c1.66,6.29.75,20.29.75,20.29.72-21.24-10.74-32.85-10.74-32.85a87.81,87.81,0,0,1,1,12.86,44.86,44.86,0,0,0-9.78-20.64c.82,3.16,1,11.3,1,11.3a45.2,45.2,0,0,0-13.62-15.53A86.08,86.08,0,0,1,230,59.7a45.79,45.79,0,0,0-15.88-10.45,53.5,53.5,0,0,1,3.39,4.64,49.21,49.21,0,0,0-33.17-1.84,33.44,33.44,0,0,1-3.77,1C163,56.54,152.59,73.66,152.59,73.66l4.91-2.46c-4,2.49-10.17,12-10.17,12a134.25,134.25,0,0,1,16.1-5.56A25,25,0,0,0,158,83.44a113.28,113.28,0,0,1,14.57-7.2,24.74,24.74,0,0,0-5.74,6.16,111.63,111.63,0,0,1,15.66-7.64,25.34,25.34,0,0,0-6.84,6.89,113.43,113.43,0,0,1,15.51-7.57h0a25,25,0,0,0-6.71,6.8s13.69-6.3,14.14-6.24a25.52,25.52,0,0,0-7.06,5.72s13.88-4.45,14.39-4.32a25.12,25.12,0,0,0-8.38,4s16.14-1.55,16.34-1.48a25.28,25.28,0,0,0-7.8,3.86s13.95-1.08,14.44-.82a25.1,25.1,0,0,0-5.92,3.2h0a21.2,21.2,0,0,1,17.21,4.26c20.94,16.9,28.28,42,28.28,42C276.36,92.64,258.19,76,258.19,76Z"/><path class="cls-10" d="M104.59,255.65c.36-1.79.73-3.58,1.13-5.35L107,245l1.29-5.29c.44-1.76.94-3.49,1.39-5.26l.65-2.44,1.83,1.84a9.72,9.72,0,0,1,1.52,2,10,10,0,0,1,.94,2.3,10.86,10.86,0,0,1,.23,1.29v.74a.85.85,0,0,0-.09-.31.48.48,0,0,0-.08-.16,1.36,1.36,0,0,0-.37-.45,1.6,1.6,0,0,0-1.78-.2,1.88,1.88,0,0,0-.23.16l-.1.09h0l.16-.32c.13-.25.26-.53.39-.83a37.13,37.13,0,0,0,1.29-3.73c.37-1.27.77-2.57,1.1-3.85a106.21,106.21,0,0,0,2.74-16.23c.26-2.7.41-5.43.44-8.15s0-5.45-.09-8.19a144.27,144.27,0,0,0-1.75-16.45,74.41,74.41,0,0,1,4.27,16.2c.42,2.78.67,5.58.82,8.4s.09,5.63,0,8.46a81.6,81.6,0,0,1-2.65,16.72,46,46,0,0,1-2.88,8.11,11.68,11.68,0,0,1-.55,1c-.11.2-.23.39-.36.58l-.28.36a1.86,1.86,0,0,1-.29.27,1.5,1.5,0,0,1-.33.23,1.67,1.67,0,0,1-.76.22,1.74,1.74,0,0,1-1.29-.4,1.88,1.88,0,0,1-.42-.51.24.24,0,0,0-.1-.22,3,3,0,0,1-.12-.43v-.92a5.6,5.6,0,0,0-.1-.81,7.7,7.7,0,0,0-.52-1.58,6.06,6.06,0,0,0-.84-1.38l2.46-.62c-.61,1.71-1.19,3.42-1.85,5.15l-1.93,5.14-2,5.07C106,252.3,105.32,254,104.59,255.65Z"/><path class="cls-10" d="M248.32,256.32a20.56,20.56,0,0,1,3.6-4.29,7.61,7.61,0,0,1,2.57-1.56,3.2,3.2,0,0,1,.81-.2h.22s-.26,0-.31.09a.11.11,0,0,0-.09.07h0a5.69,5.69,0,0,0,.13-1.08A38,38,0,0,0,255,244c-.2-1.8-.41-3.6-.7-5.38-.58-3.59-1.2-7.17-2-10.69s-1.66-7.06-2.71-10.5a96,96,0,0,0-3.54-10.2,65.72,65.72,0,0,0-4.74-9.59,34.8,34.8,0,0,0-6.74-8.16,20.68,20.68,0,0,0-9.56-4.73A18.67,18.67,0,0,1,235.65,188a31.59,31.59,0,0,1,8.1,8,68.4,68.4,0,0,1,9.49,20.35,107.75,107.75,0,0,1,4,22,52.42,52.42,0,0,1-.13,11.27,6.3,6.3,0,0,1-.46,1.59l-.16.26a2,2,0,0,1-.33.32,1.29,1.29,0,0,1-.63.19h-.13a2.35,2.35,0,0,0-.53,0,7.11,7.11,0,0,0-2.3,1A26.36,26.36,0,0,0,248.32,256.32Z"/><ellipse class="cls-11" cx="62.95" cy="57.06" rx="6.06" ry="7.79"/><circle class="cls-12" cx="60.8" cy="57.3" r="3.34"/><circle class="cls-12" cx="44.5" cy="70.13" r="1.2"/><circle class="cls-12" cx="39.88" cy="75.03" r="1.2"/><circle class="cls-12" cx="44.5" cy="81.34" r="1.2"/><line class="cls-13" x1="23.94" y1="260.72" x2="23.94"/><line class="cls-13" x1="280.84" y1="260.72" x2="280.84"/></g></g></svg>