<svg xmlns="http://www.w3.org/2000/svg" width="102.67" height="102.67" viewBox="0 0 102.67 102.67"><defs><style>.a{fill:#00aaad;}.a,.b,.c,.d{stroke:#fff;stroke-miterlimit:10;stroke-width:2.67px;}.b{fill:#bc2424;}.c{fill:#91518f;}.d{fill:#ffcb08;}.e{fill:#f58220;}</style></defs><title>Ruleta_1</title><circle class="a" cx="51.33" cy="51.33" r="50"/><path class="b" d="M51.33,51.33v-50a50,50,0,0,1,50,50Z"/><path class="c" d="M51.33,51.33h-50a50,50,0,0,1,50-50Z"/><path class="d" d="M51.33,51.33v50a50,50,0,0,1-50-50Z"/><path class="e" d="M80.76,20.49,86.19,2.11a1,1,0,0,1,1.67-.45l12.54,11.7a1,1,0,0,1-.34,1.69l-18,6.69A1,1,0,0,1,80.76,20.49Z"/></svg>