<svg xmlns="http://www.w3.org/2000/svg" viewBox="0 0 401 294.66"><defs><style>.cls-1{fill:#c764b2;}.cls-2{fill:#ececec;}.cls-3{fill:#ff5db3;}.cls-4{fill:#ff6649;}.cls-5{fill:#00b6ad;}.cls-6{fill:#6d422b;stroke:#492c1f;stroke-miterlimit:10;}</style></defs><title>niños mesa</title><g id="Capa_2" data-name="Capa 2"><g id="Layer_1" data-name="Layer 1"><g id="Layer_2" data-name="Layer 2"><g id="Layer_2-2" data-name="Layer 2-2"><path class="cls-1" d="M133.22,118c-1.37.78,5.1,7.44,51.13,0,0,0-8-13.91-9.69-38.5H138.41S141.45,91.89,133.22,118Z"/><path d="M149.2,121.64c-2,0-4-.06-5.72-.18-7.19-.5-10.19-1.94-10.58-3a.53.53,0,0,1,.16-.61c8.09-25.67,5.19-38.21,5.16-38.33l-.06-.24h36.68v.18c1.65,24.25,9.59,38.27,9.67,38.41l.15.25-.28,0C170,120.47,158.21,121.64,149.2,121.64Zm-10.55-42c.36,1.87,2.3,14.49-5.24,38.36l0,.07-.07,0s-.09,0,0,.18c.26.73,2.73,2.25,10.24,2.77,9.27.64,23.29-.49,40.54-3.27-1.06-2-8-15.67-9.58-38.15Z"/><ellipse class="cls-2" cx="156.29" cy="48.75" rx="37.17" ry="35.31"/><path d="M156.29,84.25c-20.6,0-37.37-15.93-37.37-35.5s16.77-35.51,37.37-35.51,37.37,15.93,37.37,35.51S176.9,84.25,156.29,84.25Zm0-70.62c-20.39,0-37,15.75-37,35.12s16.59,35.11,37,35.11,37-15.75,37-35.11S176.68,13.63,156.29,13.63Z"/><path class="cls-2" d="M140.86,136.36c0-3.72,6.86-1,6.86,1C147.72,137.93,140.86,140.09,140.86,136.36Z"/><path d="M143.66,138.69a3.85,3.85,0,0,1-2.06-.48,2.05,2.05,0,0,1-.93-1.85,1.89,1.89,0,0,1,.66-1.57,2.43,2.43,0,0,1,1.57-.47c2,0,5,1.59,5,3C147.92,137.91,145.45,138.69,143.66,138.69Zm-.76-4a2.05,2.05,0,0,0-1.32.37,1.52,1.52,0,0,0-.52,1.27,1.71,1.71,0,0,0,1.4,1.8,7.7,7.7,0,0,0,5.06-.85C147.48,136.21,144.83,134.72,142.9,134.72Z"/><path class="cls-2" d="M178.09,136c0-3.72-6.86-1-6.86,1C171.23,137.54,178.09,139.69,178.09,136Z"/><path d="M175.29,138.3c-1.79,0-4.26-.78-4.26-1.35,0-1.43,3-3,5-3a2.49,2.49,0,0,1,1.57.46,1.93,1.93,0,0,1,.66,1.58,2.05,2.05,0,0,1-.93,1.85A3.85,3.85,0,0,1,175.29,138.3Zm-3.86-1.38a7.7,7.7,0,0,0,5.06.85,1.71,1.71,0,0,0,1.4-1.8,1.51,1.51,0,0,0-.52-1.27,2.05,2.05,0,0,0-1.32-.38C174.12,134.32,171.47,135.82,171.43,136.92Z"/><path d="M147.92,137.05h-.4V129.9c0-5.11.51-8.09,1.48-8.62a.6.6,0,0,1,.59,0l-.21.33.1-.16-.1.17s-.08,0-.21,0c-.37.22-1.25,1.48-1.25,8.26Z"/><path d="M171.43,136.64H171V129c0-7.54-1-8.65-1.28-8.81a.21.21,0,0,0-.17,0l-.22-.32a.55.55,0,0,1,.57,0c1,.52,1.5,3.69,1.5,9.16Z"/><ellipse class="cls-2" cx="121.37" cy="104.92" rx="3.53" ry="3.13"/><path d="M121.37,108.24a3.34,3.34,0,1,1,3.71-3.32A3.54,3.54,0,0,1,121.37,108.24Zm0-6.27a3,3,0,1,0,3.34,3A3.17,3.17,0,0,0,121.37,102Z"/><ellipse class="cls-2" cx="191.41" cy="101.79" rx="2.84" ry="3.13"/><path d="M191.41,105.09a3.31,3.31,0,1,1,3-3.3A3.17,3.17,0,0,1,191.41,105.09Zm0-6.27a3,3,0,1,0,2.67,3A2.84,2.84,0,0,0,191.41,98.82Z"/><path d="M120.76,101.88l-.35-.18c7.4-14.2,18.26-18.94,18.37-19l.15.36C138.82,83.12,128.08,87.81,120.76,101.88Z"/><path d="M191.7,98.66l-.39,0c.57-9.92-16.26-15.5-16.43-15.56l.12-.37a42.89,42.89,0,0,1,8.55,4.08C189.13,90.32,192,94.42,191.7,98.66Z"/><ellipse cx="135.28" cy="51.93" rx="2.94" ry="4.6"/><ellipse cx="177.01" cy="51.93" rx="2.94" ry="4.6"/><path d="M157,71.6c-7,0-15.58-1.55-22.45-7.67a.19.19,0,0,1,0-.28.18.18,0,0,1,.27,0c8,7.13,18.44,8,25.77,7.44,10.25-.76,18.28-4.36,19.21-5.47a.19.19,0,0,1,.27,0,.19.19,0,0,1,0,.28c-1.13,1.35-9.66,4.87-19.48,5.6C159.49,71.55,158.28,71.6,157,71.6Z"/><path d="M183.08,68.48H183a4.37,4.37,0,0,1-2.81-2.29c-1.21-2.51.09-5.86.14-6a.2.2,0,1,1,.37.15s-1.29,3.33-.15,5.68a4,4,0,0,0,2.57,2.09.2.2,0,0,1,.13.24A.19.19,0,0,1,183.08,68.48Z"/><path d="M131.36,66.52a.19.19,0,0,1-.18-.12.2.2,0,0,1,.11-.25c2.27-1,3.49-2.13,3.62-3.46.22-2.22-2.65-4.21-2.68-4.23a.2.2,0,0,1,.22-.33c.13.09,3.09,2.15,2.85,4.6-.15,1.48-1.45,2.75-3.86,3.78Z"/><path d="M129,43.92l-.31-.24c.1-.14,2.58-3.46,5.7-3.63a5,5,0,0,1,4,1.85l-.28.27a4.65,4.65,0,0,0-3.7-1.73C131.44,40.6,129,43.88,129,43.92Z"/><path d="M183.71,43.92s-2.48-3.32-5.41-3.48a4.62,4.62,0,0,0-3.69,1.73l-.29-.27a5,5,0,0,1,4-1.85c3.12.17,5.6,3.49,5.7,3.63Z"/><path class="cls-2" d="M119.12,47.82s-13.42-11.07-2.06-20.48c0,0,1.76-17.24,14.3-9,0,0,3.14-17.24,18.22-7,0,0,7.64-10.19,16.07.59,0,0,11.16-9.6,17.24,4.31,0,0,15.67,1.37,10.57,11.55,0,0,10.58,4.51,3.92,11.76,0,0,8,6.66-3.92,12.44v-4.6a14.14,14.14,0,0,1-5.28-8S180.73,42,177.4,27.93c0,0-7.44,8.42-12.93-4.31,0,0-6.66,14.69-19.2,3.72,0,0-3.92,13.52-12.93,6.08,0,0-2.12,14.3-13,11.55C119.41,45,119.12,47.82,119.12,47.82Z"/><path d="M193.27,52.24V47.43A14.5,14.5,0,0,1,188,39.54a6.08,6.08,0,0,1-4.41-.62c-2.86-1.54-5-5.1-6.34-10.59-.78.77-3.26,2.94-6.24,2.46-2.56-.41-4.78-2.66-6.59-6.71-.74,1.41-3.61,6.29-8.41,7.33-3.35.72-7-.53-10.68-3.72-.43,1.33-2.41,6.72-6.32,7.92-2,.63-4.24,0-6.57-1.83-.28,1.5-1.63,7.55-5.82,10.34a8.8,8.8,0,0,1-7.13,1.11c0,.35-.06,1.08-.22,2.61l0,.36L119,48c-.06-.06-6.69-5.6-6.69-12.12,0-3.18,1.54-6.07,4.58-8.61.1-.92,1.11-8.54,5.74-10.75,2.36-1.12,5.26-.61,8.61,1.52.31-1.42,1.9-7.53,6.64-9.53C141.07,7.13,145,8,149.54,11c.62-.77,3.66-4.24,7.85-4.28,2.9,0,5.69,1.6,8.29,4.86.88-.7,5.35-4,9.93-2.94,3.07.7,5.56,3.17,7.41,7.34,1.07.11,8.59,1,11,5.26,1,1.8.92,3.95-.25,6.39,1,.44,5.18,2.58,5.94,6.08.4,1.87-.27,3.81-2,5.75.63.57,2.88,2.86,2.52,5.79-.31,2.56-2.54,4.87-6.63,6.85Zm-5-13.21.05.22a14,14,0,0,0,5.21,7.91l.09.06v4.39c3.78-1.88,5.84-4,6.13-6.4.38-3.11-2.5-5.55-2.53-5.57l-.16-.13.14-.15c1.74-1.9,2.43-3.77,2-5.56-.79-3.67-5.84-5.86-5.89-5.88l-.19-.09.09-.18c1.2-2.4,1.31-4.49.35-6.21-2.4-4.29-10.69-5.06-10.77-5.07h-.12l0-.11c-1.8-4.11-4.22-6.54-7.19-7.22-4.9-1.12-9.7,2.94-9.75,3l-.15.13-.13-.16c-2.55-3.26-5.27-4.9-8.09-4.87-4.43,0-7.63,4.23-7.66,4.28l-.11.15-.16-.11c-4.49-3-8.34-3.9-11.44-2.6-5.08,2.14-6.46,9.45-6.47,9.53l-.06.29-.24-.16c-3.33-2.19-6.18-2.74-8.47-1.65-4.63,2.2-5.52,10.43-5.53,10.51v.08l-.06,0c-3,2.48-4.5,5.29-4.5,8.36,0,5.58,5,10.44,6.27,11.57.09-.88.18-1.94.19-2.29l-1.4-.35h1.67v0a8.5,8.5,0,0,0,7-1c4.57-3,5.7-10.34,5.71-10.41l0-.35.27.23c2.32,1.91,4.49,2.58,6.46,2,4.18-1.29,6.13-7.88,6.15-8l.09-.3.23.21c3.72,3.25,7.27,4.54,10.56,3.82,5.41-1.17,8.3-7.42,8.33-7.48l.19-.4.17.4c1.79,4.16,4,6.47,6.46,6.87,3.33.53,6.12-2.58,6.14-2.61l.25-.28.09.37c1.32,5.57,3.41,9.17,6.23,10.68a5.63,5.63,0,0,0,4.29.54Zm-69,6.13h0Z"/></g></g><g id="Layer_2-2-2" data-name="Layer 2"><g id="Layer_2-2-3" data-name="Layer 2-2"><path class="cls-2" d="M328,22.42s10.39-12.74,22.06-8.73,12,14.05,20.61,14.41,11.85-3.46,11.85-3.46S381.08,38,367.94,38.86,328,22.42,328,22.42Z"/><path d="M366.93,39.08c-6.82,0-16.7-4.26-24-7.93-8.25-4.18-15-8.53-15.06-8.57l-.17-.12.13-.15a33.18,33.18,0,0,1,6.69-5.91c3.74-2.47,9.47-5,15.57-2.88,5.88,2,8.89,5.53,11.54,8.62s4.81,5.6,9,5.78c8.37.35,11.67-3.37,11.71-3.4l.38-.45-.06.59a19.82,19.82,0,0,1-2.4,6.84A14.84,14.84,0,0,1,368,39C367.62,39.07,367.28,39.08,366.93,39.08Zm-38.64-16.7c2.33,1.49,27.27,17.16,39.64,16.3A14.54,14.54,0,0,0,380,31.32a19.65,19.65,0,0,0,2.26-6.17c-1.11,1-4.59,3.43-11.6,3.13-4.37-.18-6.64-2.83-9.28-5.9s-5.6-6.53-11.38-8.51c-6-2-11.58.41-15.25,2.83A33.18,33.18,0,0,0,328.29,22.38Z"/><ellipse class="cls-2" cx="338.85" cy="23.27" rx="4.83" ry="3.74"/><path d="M338.85,27.21c-2.78,0-5-1.77-5-3.94s2.26-3.95,5-3.95,5,1.77,5,3.95S341.63,27.21,338.85,27.21Zm0-7.47c-2.55,0-4.62,1.58-4.62,3.53s2.07,3.53,4.62,3.53,4.63-1.58,4.63-3.53S341.4,19.74,338.85,19.74Z"/><path class="cls-3" d="M320.71,83.34s.54,22.28-5.48,34.13c5.48,5.29,33.38,3.28,47.79,1.1-1.46-3.1-10.4-24.08-8.57-38.31S320.71,83.34,320.71,83.34Z"/><path d="M334.05,121c-8.72,0-16.32-.87-18.94-3.41l-.1-.09.06-.12c5.93-11.68,5.46-33.83,5.45-34v-.12l.11,0c1-.51,25.66-12.38,32.38-7.55,1.35,1,1.89,2.53,1.62,4.67-2,15.3,8.45,38,8.55,38.2l.11.22-.24,0A213.42,213.42,0,0,1,334.05,121Zm-18.59-3.58c2.46,2.23,9.47,3.34,20.31,3.21a214.32,214.32,0,0,0,27-2.22c-1.08-2.4-10.35-23.59-8.48-38.18.25-2-.24-3.45-1.47-4.33-6.34-4.55-30.12,6.68-31.91,7.54C320.92,85.22,321.14,106.09,315.46,117.43Z"/><path d="M328.91,136.44h-.36v-6.66c0-8.45,1-9.18,1.26-9.21l0,.37h0s-1,.63-1,8.85Z"/><path d="M351,136.36c-.09,0-.13-.05-.15-.17h0v-.05c0-.06,0-.13,0-.22h0c-.06-.58-.24-2.3-.74-7-.8-7.62-1.26-8.45-1.34-8.53a.12.12,0,0,0,.1,0,.14.14,0,0,0,.11-.07l-.31-.19a.23.23,0,0,1,.23-.1c.2,0,.67.16,1.58,8.84.32,3.12.51,5,.62,6,.06.52.09.85.11,1.05a1.68,1.68,0,0,1,0,.2v.05h0c0,.14,0,.19-.16.21Z"/><path class="cls-2" d="M322.35,135.8c0-3.46,6.38-.91,6.38.91C328.73,137.26,322.35,139.27,322.35,135.8Z"/><path d="M325,138a3.57,3.57,0,0,1-1.92-.45,1.92,1.92,0,0,1-.87-1.72,1.78,1.78,0,0,1,.62-1.47,2.33,2.33,0,0,1,1.46-.43c1.89,0,4.67,1.48,4.67,2.81C328.91,137.24,326.62,138,325,138Zm-.71-3.7a1.88,1.88,0,0,0-1.23.35,1.41,1.41,0,0,0-.48,1.18,1.58,1.58,0,0,0,1.3,1.67,7.2,7.2,0,0,0,4.72-.78C328.5,135.66,326,134.27,324.24,134.27Z"/><path class="cls-2" d="M357.28,134.62c-.36-3.45-6.44-.24-6.25,1.57C351.09,136.73,357.65,138.07,357.28,134.62Z"/><path d="M354.16,137.08a8.39,8.39,0,0,1-2.91-.49c-.26-.12-.38-.24-.4-.38-.14-1.32,2.47-3.09,4.35-3.28a1.82,1.82,0,0,1,2.27,1.67h0a1.92,1.92,0,0,1-.77,1.86A4.46,4.46,0,0,1,354.16,137.08Zm-3-.94a7.13,7.13,0,0,0,4.77.29,1.57,1.57,0,0,0,1.12-1.79c-.13-1.27-1.09-1.43-1.86-1.35C353.45,133.48,351.15,135.12,351.21,136.14Z"/><ellipse class="cls-2" cx="304.47" cy="105.43" rx="3.28" ry="2.92"/><path d="M304.47,108.52a3.11,3.11,0,1,1,3.46-3.09A3.29,3.29,0,0,1,304.47,108.52Zm0-5.83a2.77,2.77,0,1,0,3.11,2.74A2.95,2.95,0,0,0,304.47,102.69Z"/><ellipse class="cls-2" cx="369.68" cy="102.52" rx="2.64" ry="2.92"/><path d="M369.68,105.59a3.09,3.09,0,1,1,2.8-3.07A2.95,2.95,0,0,1,369.68,105.59Zm0-5.84a2.78,2.78,0,1,0,2.49,2.77A2.64,2.64,0,0,0,369.68,99.75Z"/><path d="M303.9,102.6l-.32-.17c6.88-13.22,17-17.63,17.1-17.67l.14.33C320.72,85.14,310.72,89.5,303.9,102.6Z"/><path d="M370,99.61l-.36,0c.53-9.24-15.15-14.44-15.3-14.49l.11-.35a41.1,41.1,0,0,1,8,3.8C367.55,91.84,370.18,95.66,370,99.61Z"/><ellipse class="cls-2" cx="336.8" cy="54.23" rx="34.61" ry="32.88"/><path d="M336.8,87.29C317.62,87.29,302,72.46,302,54.23s15.61-33.06,34.79-33.06S371.59,36,371.59,54.23,356,87.29,336.8,87.29Zm0-65.75c-19,0-34.42,14.66-34.42,32.69s15.44,32.69,34.42,32.69,34.43-14.66,34.43-32.69S355.78,21.54,336.8,21.54Z"/><ellipse cx="317.7" cy="57.91" rx="3.01" ry="3.38"/><ellipse cx="356.36" cy="57.91" rx="3.01" ry="3.38"/><path class="cls-2" d="M320.17,69.76c8.82,20.68,33.23,8.14,34.26-2.48a.26.26,0,0,0-.24-.29h-.05c-3.12.38-28,3.35-33.7,2.42a.26.26,0,0,0-.29.21A.22.22,0,0,0,320.17,69.76Z"/><path d="M335.44,81.07a15.56,15.56,0,0,1-7.35-1.77c-3.47-1.83-6.19-5-8.09-9.47h0a.44.44,0,0,1,.47-.6c5.69.93,30.8-2.08,33.64-2.42a.17.17,0,0,1,.1,0,.44.44,0,0,1,.4.49c-.58,6-8.2,12.29-16.32,13.54A18.45,18.45,0,0,1,335.44,81.07Zm-15.1-11.38c4.72,11.07,13.24,11.51,17.9,10.79,8-1.23,15.45-7.4,16-13.22a.08.08,0,0,0-.08-.09c-2.86.35-28,3.36-33.76,2.42a.08.08,0,0,0-.08.06s0,0,0,0Z"/><path d="M306.3,46.11c-.9,0-1.82,0-2.76-.14a.17.17,0,0,1-.16-.19.19.19,0,0,1,.2-.17c10.77,1,19.62-4.25,25.15-8.87a53,53,0,0,0,9.51-10.38.19.19,0,0,1,.26-.05.19.19,0,0,1,.05.25A53.12,53.12,0,0,1,329,37C323.86,41.28,316,46.11,306.3,46.11Z"/><path d="M369.59,43.79c-12.59,0-20.45-4.69-24.82-8.62a26.67,26.67,0,0,1-6.54-8.64.18.18,0,1,1,.34-.14A26.14,26.14,0,0,0,345,34.91c4.32,3.88,12.09,8.51,24.56,8.51a.18.18,0,0,1,.18.18A.18.18,0,0,1,369.59,43.79Z"/><path class="cls-2" d="M324.17,75.89s12.95-4.38,25.35-.55"/><path d="M324.17,76.07A.17.17,0,0,1,324,76a.2.2,0,0,1,.11-.24c.13,0,13.15-4.35,25.47-.54a.18.18,0,0,1,.12.22.18.18,0,0,1-.23.12c-12.2-3.76-25.11.51-25.24.55Z"/><path d="M313.41,49.08a.19.19,0,0,1-.1,0,.18.18,0,0,1-.05-.25,7.22,7.22,0,0,1,5.32-3.24,3.22,3.22,0,0,1,2.81,1,.18.18,0,0,1,0,.26.19.19,0,0,1-.26,0,2.91,2.91,0,0,0-2.51-.9,6.9,6.9,0,0,0-5,3.07A.16.16,0,0,1,313.41,49.08Z"/><path d="M362.47,50.35a.18.18,0,0,1-.17-.12A6.92,6.92,0,0,0,357,45.57a3.78,3.78,0,0,0-3.52.89.17.17,0,0,1-.25,0,.19.19,0,0,1,0-.26,4.07,4.07,0,0,1,3.86-1,7.27,7.27,0,0,1,5.57,4.89.17.17,0,0,1-.11.23Z"/></g></g><g id="Layer_2-3" data-name="Layer 2"><g id="Layer_2-2-4" data-name="Layer 2-2"><path d="M214,100.09l-.35-.18a44.88,44.88,0,0,1,20.14-19.74l.15.37A44.38,44.38,0,0,0,214,100.09Z"/><path d="M286.66,97.31c-7.42-14.24-18.29-19-18.4-19l.16-.37c.11,0,11.11,4.84,18.59,19.22Z"/><path d="M241.3,135.71h-.39v-7.23c0-5.18.51-8.2,1.49-8.73a.62.62,0,0,1,.6,0l-.21.34s-.09,0-.21,0c-.39.23-1.28,1.5-1.28,8.37Z"/><path d="M265.33,135.63c-.1,0-.14,0-.17-.19h0v-.05c0-.06,0-.14,0-.23h0c-.06-.63-.26-2.5-.8-7.65-.8-7.6-1.91-8.61-2.23-8.74a.2.2,0,0,0-.17,0l-.26-.3a.59.59,0,0,1,.58-.07c1,.42,1.9,3.56,2.48,9.07.35,3.4.56,5.39.68,6.53.06.57.09.92.12,1.14a1.38,1.38,0,0,0,0,.22v.05h0c0,.16,0,.22-.17.23Z"/><path class="cls-2" d="M231.52,104.22s.75,15.44-.24,18.24c2.58.69,11.51,4.88,18.26,2.32v-6.92a22.21,22.21,0,0,0,3.37-.2,13.89,13.89,0,0,1,2.58-.2s2.38,6.41,1.78,7.34,11.11.4,14.88,0c0,0-.19-23.74-1.39-25.14s-36.7,1.17-36.7,1.17Z"/><path d="M244.64,125.82c-4.39,0-8.83-1.57-11.57-2.54-.79-.28-1.41-.5-1.84-.62l-.23-.06.08-.22c1-2.72.23-18,.22-18.15v-.07l2.65-3.54H234c.09,0,9-.64,17.91-1.1,18.17-.94,18.76-.25,19,0,1.2,1.41,1.42,22.83,1.44,25.27V125l-.19,0c-1.67.18-5.27.41-8.64.49-6.08.15-6.34-.28-6.46-.47a.34.34,0,0,1,0-.35c.37-.56-.79-4.39-1.75-7a14.85,14.85,0,0,0-2.4.2,19.3,19.3,0,0,1-3.19.2v6.86l-.14,0A14,14,0,0,1,244.64,125.82Zm-13.09-3.51c.43.13,1,.32,1.66.56,3.72,1.32,10.62,3.76,16.11,1.76v-7h.22a22.4,22.4,0,0,0,3.33-.19,14.4,14.4,0,0,1,2.62-.21h.15l.05.13c.39,1.06,2.28,6.29,1.81,7.45,1,.53,10.32.19,14.44-.22-.09-9.52-.51-23.83-1.34-24.81-.24-.23-2.55-.69-18.71.14-8.38.44-16.72,1-17.72,1.1l-2.44,3.25C231.8,105.58,232.42,119.12,231.55,122.31Z"/><path class="cls-4" d="M232.17,78s2.29,10.42-1.88,26.37c10.71,3.07,29.17,2.25,42.66,0,0-1.84-3-5.52-4.37-28.84S232.17,78,232.17,78Z"/><path d="M248.84,106.57c-7,0-13.6-.59-18.61-2l-.18-.06,0-.19C234.2,88.58,232,78.12,232,78l0-.13.11-.07a100.46,100.46,0,0,1,12.15-7.46c8.92-4.58,15.55-5.91,19.71-4,3,1.39,4.6,4.45,4.87,9.09,1.06,17.75,3.06,24.19,3.91,26.94a7,7,0,0,1,.46,1.92v.17l-.17,0A152.56,152.56,0,0,1,248.84,106.57Zm-18.31-2.36c10.79,3,28.9,2.17,42.21,0a9.55,9.55,0,0,0-.43-1.64c-.86-2.76-2.87-9.23-3.93-27-.27-4.49-1.83-7.44-4.64-8.75C254.42,62.4,234,76.88,232.39,78.06,232.63,79.32,234.35,89.44,230.53,104.21Z"/><path class="cls-2" d="M234.16,135c0-3.77,6.94-1,6.94,1C241.1,136.61,234.16,138.79,234.16,135Z"/><path d="M237,137.38a3.81,3.81,0,0,1-2.08-.49A2.07,2.07,0,0,1,234,135a2,2,0,0,1,.67-1.6,2.49,2.49,0,0,1,1.59-.46c2.05,0,5.08,1.61,5.08,3C241.3,136.59,238.8,137.38,237,137.38Zm-.77-4a2.12,2.12,0,0,0-1.34.38,1.55,1.55,0,0,0-.52,1.29,1.73,1.73,0,0,0,1.41,1.82,7.89,7.89,0,0,0,5.13-.85C240.86,134.87,238.17,133.35,236.22,133.35Z"/><path class="cls-2" d="M272.17,133.73c-.4-3.75-7-.26-6.81,1.71C265.42,136,272.56,137.48,272.17,133.73Z"/><path d="M268.77,136.42a8.73,8.73,0,0,1-3.17-.55c-.29-.13-.42-.26-.43-.41-.15-1.44,2.69-3.36,4.73-3.57a2,2,0,0,1,2.46,1.82h0a2.05,2.05,0,0,1-.84,2A4.85,4.85,0,0,1,268.77,136.42Zm-3.21-1a7.8,7.8,0,0,0,5.18.32,1.72,1.72,0,0,0,1.23-2,1.61,1.61,0,0,0-2-1.47C268,132.49,265.49,134.28,265.56,135.39Zm0,0Z"/><ellipse class="cls-2" cx="214.62" cy="103.18" rx="3.57" ry="3.17"/><path d="M214.62,106.54a3.38,3.38,0,1,1,3.75-3.36A3.58,3.58,0,0,1,214.62,106.54Zm0-6.35a3,3,0,1,0,3.38,3A3.21,3.21,0,0,0,214.62,100.19Z"/><ellipse class="cls-2" cx="286.04" cy="100.4" rx="3.57" ry="3.17"/><path d="M286,103.76a3.38,3.38,0,1,1,3.76-3.36A3.58,3.58,0,0,1,286,103.76Zm0-6.35a3,3,0,1,0,3.39,3A3.21,3.21,0,0,0,286,97.41Z"/><ellipse class="cls-2" cx="249.98" cy="46.09" rx="37.65" ry="35.76"/><path d="M250,82.05c-20.87,0-37.84-16.13-37.84-36s17-36,37.84-36,37.85,16.13,37.85,36S270.85,82.05,250,82.05Zm0-71.53c-20.65,0-37.45,16-37.45,35.57S229.33,81.65,250,81.65s37.45-16,37.45-35.56S270.63,10.52,250,10.52Z"/><ellipse cx="267.49" cy="49.11" rx="3.27" ry="2.88"/><path class="cls-2" d="M242.19,39.69c-5.75-6.95-12.5-8.14-19.84-2.78"/><path d="M242.19,39.88a.19.19,0,0,1-.15-.07c-5.83-7-12.42-8-19.57-2.74a.21.21,0,0,1-.28,0,.19.19,0,0,1,.05-.27c3.66-2.68,7.25-3.77,10.66-3.26s6.52,2.54,9.45,6.07a.2.2,0,0,1,0,.28A.2.2,0,0,1,242.19,39.88Z"/><path class="cls-2" d="M263.42,37.9c5-7.14,14.09-5.56,17.66,1.79"/><path d="M281.08,39.88a.21.21,0,0,1-.18-.11,10.61,10.61,0,0,0-8.59-6.26,9.68,9.68,0,0,0-8.72,4.5.2.2,0,0,1-.28.05.19.19,0,0,1-.05-.27,10.05,10.05,0,0,1,9.08-4.67,11,11,0,0,1,8.92,6.48.19.19,0,0,1-.09.26A.15.15,0,0,1,281.08,39.88Z"/><path class="cls-2" d="M224.34,51.39c5-14.88,14.88-7.34,16.27,0"/><path d="M224.34,51.59h-.06a.2.2,0,0,1-.13-.25c2.62-7.88,6.43-8.82,8.47-8.69,4,.27,7.43,4.72,8.18,8.71a.21.21,0,0,1-.16.24.2.2,0,0,1-.23-.16c-.73-3.85-4-8.13-7.82-8.39-3.31-.22-6.18,2.76-8.06,8.41A.2.2,0,0,1,224.34,51.59Z"/><path d="M262.26,76.12a1.81,1.81,0,0,1-.55-.09c-2.07-.6-3.87-4.48-4.25-5.33-.38.11-.78.21-1.18.31a29.13,29.13,0,0,1-16.73-1,.2.2,0,1,1,.13-.37,29.06,29.06,0,0,0,25.62-3l.26-.18,0,.31c0,.27,1,6.7-2.26,8.92A1.84,1.84,0,0,1,262.26,76.12Zm-4.41-5.53c.4.9,2.13,4.52,4,5.06a1.43,1.43,0,0,0,1.29-.21c2.65-1.82,2.28-6.92,2.14-8.23A29.08,29.08,0,0,1,257.85,70.59Z"/><path d="M263,73h0a.19.19,0,0,1-.16-.22c.19-1.12-1-3.83-1-3.86a.2.2,0,0,1,.11-.26.19.19,0,0,1,.26.1c0,.12,1.21,2.85,1,4.08A.19.19,0,0,1,263,73Z"/><path class="cls-2" d="M287.36,41.81s2.45-25.34,2.05-26.93-5.15,6.16-6.34,5.56-5.16-14.68-6.15-14.68-6,5.16-6.75,4.56S263.23.4,261.24.2s-7.34,6.55-8.73,6.35S244.38,0,242.19.2s-7.14,10.91-8.73,10.12-7.14-6.94-7.93-6.94-9.33,15.87-10.32,15.47-2.78-4.36-3-4.36.16,29.56.16,29.56c-2.74-5.36,27.22-35.12,42.49-14.29C254.89,29.76,264.08,15.35,287.36,41.81Z"/><path d="M212.6,44.89l-.38-.75a2.72,2.72,0,0,1,0-1.93c0-2.65-.09-7.78-.14-12.87-.13-14.81,0-14.89.05-15l.06-.06h.09c.17,0,.24.11.82,1.16s1.6,2.93,2.2,3.21c.65-.22,3.61-5.16,5.78-8.78,3.17-5.27,4.08-6.7,4.49-6.7s1.5,1,3.85,3.27a31.25,31.25,0,0,0,4.17,3.69c.64.33,2.46-2.44,3.93-4.67C239.29,2.72,241,.11,242.18,0c1.37-.12,4.25,2.06,6.8,4a17.57,17.57,0,0,0,3.56,2.38c.54.07,2.15-1.42,3.56-2.74,2-1.84,4-3.73,5.16-3.61,1.36.13,4.15,3.73,7.13,7.73a25.25,25.25,0,0,0,1.9,2.42c.31.24,2.39-1.5,3.51-2.43,1.61-1.35,2.62-2.17,3.12-2.17s1.24,1.73,3.19,7.28c1.13,3.19,2.52,7.16,3,7.42s2.12-1.76,3.21-3.07c1.52-1.81,2.4-2.83,2.93-2.71a.44.44,0,0,1,.32.36c.4,1.6-1.95,26-2.05,27l-.05.45-.3-.34c-12.11-13.76-20.29-16.22-25-15.86a9.59,9.59,0,0,0-7.13,3.79l-.16.25-.17-.24c-9-12.27-22.56-5.82-28-2.48-7.24,4.47-13.15,11.21-14.18,14.81,0,.67,0,1.28,0,1.84Zm50.48-19.24a19.25,19.25,0,0,1,9.29,2.83c4.56,2.57,9.55,6.9,14.84,12.85.85-8.86,2.31-25.19,2-26.4a.15.15,0,0,0,0-.07c-.32-.06-1.64,1.53-2.52,2.58-1.84,2.21-3,3.52-3.69,3.18s-1.64-3.1-3.24-7.65c-1-2.85-2.38-6.75-2.84-7A13.09,13.09,0,0,0,274.05,8c-2.33,2-3.49,2.83-4,2.45a22.56,22.56,0,0,1-2-2.5C266,5.19,262.52.53,261.22.4c-1-.1-3.12,1.9-4.85,3.51-2,1.82-3.19,2.94-3.89,2.84s-1.8-1-3.74-2.46c-2.36-1.78-5.3-4-6.53-3.89-1,.09-2.8,2.85-4.4,5.29C235.65,9,234.29,11,233.38,10.5a30,30,0,0,1-4.28-3.77,24.74,24.74,0,0,0-3.55-3.15c-.44.29-2.42,3.59-4.17,6.51-4.22,7-5.63,9.19-6.24,9s-1.53-1.76-2.43-3.4l-.32-.57c-.07,3,.07,17.64.17,26.05a19.82,19.82,0,0,1,2.95-4.53,46.27,46.27,0,0,1,11-9.53c5.12-3.16,10.22-4.83,14.74-4.8,5.47,0,10,2.43,13.6,7.17a10.13,10.13,0,0,1,7.25-3.75C262.45,25.66,262.77,25.65,263.08,25.65Z"/></g></g><g id="Layer_2-4" data-name="Layer 2"><g id="Layer_2-2-5" data-name="Layer 2-2"><path class="cls-2" d="M24.56,44.35c-8.26-9.44-6.29-17.11-6.29-17.11,11-45,82.82-24.4,88.92-4.53s-8.66,27.74-8.66,27.74Z"/><path d="M98.59,50.73h-.08L24.43,44.61l-.07-.08c-8.26-9.44-6.44-17-6.36-17.36C23.59,4.34,44,.36,55.62,0a79,79,0,0,1,33.17,6.7c10.14,4.5,16.94,10.3,18.66,15.9,3.18,10.37.63,17.44-2.08,21.55a20.48,20.48,0,0,1-6.71,6.51ZM24.69,44.1l73.78,6.08a20.59,20.59,0,0,0,6.47-6.31c2.63-4,5.11-10.93,2-21.08-1.65-5.37-8.51-11.19-18.36-15.57A78.49,78.49,0,0,0,55.64.56C44.14.9,24,4.82,18.53,27.3,18.51,27.38,16.71,34.92,24.69,44.1Z"/><path d="M26.37,98.78l-.47-.25a44.54,44.54,0,0,1,20-19.6l.21.5A43.93,43.93,0,0,0,26.37,98.78Z"/><path d="M98.3,96C91,81.92,80.2,77.22,80.09,77.17l.22-.49c.1,0,11,4.81,18.46,19.1Z"/><path d="M53.46,134.07h-.54v-7.18c0-5.24.52-8.17,1.52-8.72a.65.65,0,0,1,.67,0l-.15.23-.13.23a.2.2,0,0,0-.15,0c-.29.19-1.22,1.32-1.22,8.24Z"/><path d="M77.22,134.05c-.15,0-.21-.08-.24-.25h0v-.07q0-.09,0-.21h0c-.07-.62-.26-2.48-.79-7.58-.79-7.5-1.86-8.48-2.17-8.61a.2.2,0,0,0-.1,0l-.35-.41a.64.64,0,0,1,.65-.08c1.07.43,1.92,3.48,2.5,9.05.35,3.37.56,5.34.68,6.47,0,.51.09.87.1,1.12h0s0,.25,0,.28h0c0,.28-.07.29-.22.3Z"/><path class="cls-2" d="M43.69,102.84s.74,15.31-.24,18.07c2.56.7,11.41,4.85,18.1,2.31v-6.86a21.82,21.82,0,0,0,3.34-.2,13.73,13.73,0,0,1,2.56-.19s2.36,6.35,1.77,7.28,11,.39,14.76,0c0,0-.2-23.55-1.38-24.93s-36.4,1.15-36.4,1.15Z"/><path d="M56.69,124.33c-4.36,0-8.77-1.56-11.5-2.53-.77-.27-1.39-.49-1.82-.6l-.3-.09.1-.29c1-2.68.23-17.82.23-18v-.1l2.66-3.56h.13c.09,0,8.91-.64,17.76-1.09,18-.93,18.63-.25,18.88,0,1.21,1.42,1.43,22.69,1.45,25.11v.27l-.26,0c-1.66.17-5.23.4-8.57.48-6.07.15-6.34-.29-6.47-.5a.39.39,0,0,1,0-.43c.31-.48-.64-3.88-1.72-6.83a11.88,11.88,0,0,0-2.31.19,19.91,19.91,0,0,1-3.1.2v6.77l-.19.07A13.91,13.91,0,0,1,56.69,124.33Zm-12.88-3.61c.42.12.94.31,1.58.53,3.67,1.3,10.46,3.7,15.87,1.77v-7h.29a21.83,21.83,0,0,0,3.29-.19,14.29,14.29,0,0,1,2.61-.21h.2l.07.19c.54,1.44,2.19,6.08,1.82,7.36,1.25.47,10.15.15,14.14-.25-.08-9.08-.5-23.53-1.3-24.47-1.15-.9-22.65.28-36,1.24L44,102.93C44.05,104.35,44.64,117.43,43.81,120.72Z"/><path class="cls-5" d="M44.33,76.8S46.6,87.14,42.46,103c10.63,3.05,28.92,2.24,42.3,0,0-1.82-3-5.47-4.33-28.6S44.33,76.8,44.33,76.8Z"/><path d="M60.86,105.24c-6.94,0-13.5-.59-18.47-2l-.26-.08.07-.25c4.06-15.58,1.89-25.94,1.87-26l0-.18.14-.1c.89-.65,21.82-15.93,31.67-11.32,3,1.39,4.59,4.44,4.87,9.08,1,17.59,3,24,3.87,26.69A7.07,7.07,0,0,1,85,103v.24l-.23,0A151.33,151.33,0,0,1,60.86,105.24ZM42.8,102.77c10.68,3,28.53,2.13,41.67,0a9.56,9.56,0,0,0-.41-1.55c-.85-2.74-2.85-9.16-3.9-26.81-.26-4.43-1.8-7.33-4.56-8.62-9.14-4.29-29.09,9.81-31,11.16C44.9,78.35,46.52,88.32,42.8,102.77Z"/><path class="cls-2" d="M46.31,133.38c0-3.74,6.88-1,6.88,1C53.19,135,46.31,137.12,46.31,133.38Z"/><path d="M49.12,135.79a3.92,3.92,0,0,1-2.11-.5,2.13,2.13,0,0,1-1-1.91,2,2,0,0,1,.69-1.64,2.52,2.52,0,0,1,1.62-.48c2.11,0,5.11,1.6,5.11,3.1C53.46,135,50.83,135.79,49.12,135.79Zm-.77-4a2,2,0,0,0-1.28.37,1.46,1.46,0,0,0-.49,1.22,1.62,1.62,0,0,0,1.21,1.69,7.66,7.66,0,0,0,5.13-.77C52.83,133.23,50.24,131.79,48.35,131.79Z"/><path class="cls-2" d="M84,132.1c-.4-3.72-7-.26-6.75,1.7C77.31,134.39,84.38,135.82,84,132.1Z"/><path d="M80.68,134.83c-1.65,0-3.64-.44-3.7-1-.15-1.49,2.66-3.4,4.76-3.63a2,2,0,0,1,2.52,1.87h0c.16,1.55-.83,2.51-2.8,2.72A6.57,6.57,0,0,1,80.68,134.83Zm-3.17-1.12a7.73,7.73,0,0,0,5.18.23,1.62,1.62,0,0,0,1-1.81c-.11-1-.76-1.51-1.94-1.39C79.92,130.94,77.49,132.64,77.51,133.71Z"/><ellipse class="cls-2" cx="26.93" cy="101.8" rx="3.54" ry="3.15"/><path d="M26.93,105.2a3.42,3.42,0,1,1,0-6.8,3.42,3.42,0,1,1,0,6.8Zm0-6.29a2.92,2.92,0,1,0,0,5.79,2.92,2.92,0,1,0,0-5.79Z"/><ellipse class="cls-2" cx="97.75" cy="99.05" rx="3.54" ry="3.15"/><path d="M97.75,102.45a3.42,3.42,0,1,1,3.8-3.4A3.62,3.62,0,0,1,97.75,102.45Zm0-6.3a2.92,2.92,0,1,0,3.29,2.9A3.11,3.11,0,0,0,97.75,96.15Z"/><ellipse class="cls-2" cx="62" cy="45.19" rx="37.33" ry="35.46"/><path d="M62,80.92c-20.73,0-37.6-16-37.6-35.73S41.27,9.46,62,9.46s37.6,16,37.6,35.73S82.73,80.92,62,80.92ZM62,10C41.56,10,24.94,25.79,24.94,45.19S41.56,80.38,62,80.38,99.06,64.6,99.06,45.19,82.43,10,62,10Z"/><path d="M91.06,42.26a.27.27,0,0,1-.22-.11C86.09,35.57,79.18,29.45,74.06,32a.26.26,0,0,1-.36-.12.27.27,0,0,1,.12-.36c5.42-2.71,12.57,3.55,17.46,10.32a.27.27,0,0,1-.06.37A.25.25,0,0,1,91.06,42.26Z"/><path d="M32.23,38.13a.27.27,0,0,1-.17-.06.28.28,0,0,1,0-.38c5.71-7,15.32-8.47,22.31-6.78a.27.27,0,0,1,.2.33.27.27,0,0,1-.33.19C47.38,29.78,38,31.18,32.44,38A.25.25,0,0,1,32.23,38.13Z"/><path d="M36.56,50.72a.27.27,0,0,1-.27-.25c-.38-5.37,1.44-8.84,4.88-9.27,3.68-.47,8.49,2.87,9.43,8a.28.28,0,0,1-.22.32.27.27,0,0,1-.31-.22c-.89-4.87-5.39-8-8.83-7.59-3.17.4-4.78,3.57-4.41,8.7a.27.27,0,0,1-.25.29Z"/><path d="M89.24,50.92h0a.28.28,0,0,1-.26-.28c.22-5.42-2.81-7.7-5.72-8A7.65,7.65,0,0,0,75,48.93a.26.26,0,0,1-.31.21.27.27,0,0,1-.22-.31,8.19,8.19,0,0,1,8.84-6.75c3.15.35,6.43,2.79,6.2,8.58A.26.26,0,0,1,89.24,50.92Z"/><path class="cls-2" d="M44.43,62.26s15.74,6.49,38-1.38C85.35,69.73,55.84,87.44,44.43,62.26Z"/><path d="M62.57,75.49a19.21,19.21,0,0,1-5.8-.87c-5.45-1.73-9.68-5.85-12.58-12.25l-.28-.62.62.26c.16.06,15.91,6.36,37.78-1.38l.26-.09.09.26c1.36,4.08-3.85,10-11.37,13A24.14,24.14,0,0,1,62.57,75.49ZM45,62.73c6.16,12.9,17.5,13.94,26.14,10.55,7-2.74,12.07-8.29,11.13-12.05C62.73,68,48.08,63.81,45,62.73Z"/><rect x="75.84" y="63.83" width="0.54" height="5.12"/><rect x="73.17" y="65.53" width="7.47" height="0.54" transform="translate(-16.87 27.71) rotate(-18.44)"/><polygon class="cls-2" points="26.14 32.94 27.13 33.53 28.7 31.76 29.29 28.62 28.9 26.65 24.57 30.58 26.14 32.94"/><path class="cls-2" d="M28.69,29.3,50.33,13.47l29.12,3.74L93.81,30l5.51,17.32s3.74-13.19,3.74-13.78S81.22,8.35,81.22,8.35L49.15,6.19,31.64,12.88l-8.26,9.24Z"/><path d="M100.44,47.71l-.42-.15C95,45.75,90.83,31.79,90,28.68a8.08,8.08,0,0,0-1,6.12c.13.72.22,1.19,0,1.51a.8.8,0,0,1-.66.25c-1.76,0-11.89-13.28-14.39-16.58C71,23.15,72.61,31,72.63,31.12l.08.36-.37,0c-3.88-.37-12.66-11.12-14.29-13.16-1.68,3.22-.67,7.65-.06,10.34.41,1.76.56,2.48.18,2.77l-.06,0h-.06a6,6,0,0,1-.84.07c-4.08,0-8.66-4.42-11.48-7.12a14.6,14.6,0,0,0-2.33-2c-.38.63-.15,4.59.31,8.19l0,.3h-.3c-4.63,0-12.06-5.07-13.78-6.29a11.19,11.19,0,0,0,2.75,9.37l.31.29-.4.16c-2.64,1-5.61-.54-5.73-.61l.25-.47a7.7,7.7,0,0,0,4.9.7,11.9,11.9,0,0,1-2.54-10l.08-.42.35.25c.08.07,8.49,6.19,13.5,6.44-.26-2.12-.85-7.6-.08-8.38.44-.44,1.2.3,3,2.07,2.91,2.79,7.76,7.46,11.74,6.93a10,10,0,0,0-.37-2.19c-.65-2.87-1.75-7.66.31-11.08l.2-.34.24.31c.1.12,9.62,12.16,13.81,13.21-.31-1.73-1.31-8.61,1.73-11.47l.22-.21.18.24C80.22,27.46,87.24,36,88.3,36q.2,0,.24-.06c.1-.12,0-.6-.07-1.06a8.59,8.59,0,0,1,1.38-7l.33-.49.15.58c0,.16,4.32,16.29,9.44,18.91-.16-1.08-.56-3.67-.71-4.43l.52-.11c.2,1,.77,4.77.79,4.94Z"/></g></g><path class="cls-6" d="M27.25,121.35h345.5a0,0,0,0,1,0,0V226.82a2.75,2.75,0,0,1-2.75,2.75H30a2.75,2.75,0,0,1-2.75-2.75V121.35A0,0,0,0,1,27.25,121.35Z"/><path class="cls-6" d="M21.75,121.35h11.5a0,0,0,0,1,0,0V291.41a2.75,2.75,0,0,1-2.75,2.75h-6a2.75,2.75,0,0,1-2.75-2.75V121.35A0,0,0,0,1,21.75,121.35Z"/><path class="cls-6" d="M.5,104.33h400a0,0,0,0,1,0,0v7.46a10,10,0,0,1-10,10H10.5a10,10,0,0,1-10-10v-7.46A0,0,0,0,1,.5,104.33Z"/><path class="cls-6" d="M366.75,121.35h11.5a0,0,0,0,1,0,0V291.41a2.75,2.75,0,0,1-2.75,2.75h-6a2.75,2.75,0,0,1-2.75-2.75V121.35A0,0,0,0,1,366.75,121.35Z"/></g></g></svg>