<svg xmlns="http://www.w3.org/2000/svg" xmlns:xlink="http://www.w3.org/1999/xlink" viewBox="0 0 364.92 339"><defs><style>.cls-1{fill:none;}.cls-2{clip-path:url(#clip-path);}.cls-3{fill:#a9c8ff;}.cls-4{fill:#202f77;}.cls-5{clip-path:url(#clip-path-2);}.cls-6{fill:#f7c87c;}.cls-7{fill:#7a4f20;}.cls-8{clip-path:url(#clip-path-3);}.cls-9{clip-path:url(#clip-path-4);}.cls-10{clip-path:url(#clip-path-5);}.cls-11{clip-path:url(#clip-path-6);}</style><clipPath id="clip-path"><rect class="cls-1" x="-563.33" y="352.81" width="399.01" height="339"/></clipPath><clipPath id="clip-path-2"><rect class="cls-1" x="-563.33" width="399.01" height="339"/></clipPath><clipPath id="clip-path-3"><rect class="cls-1" width="364.92" height="339"/></clipPath><clipPath id="clip-path-4"><rect class="cls-1" y="352.81" width="359.68" height="339"/></clipPath><clipPath id="clip-path-5"><rect class="cls-1" x="509.98" y="352.81" width="399.01" height="339" transform="translate(1418.97 1044.62) rotate(180)"/></clipPath><clipPath id="clip-path-6"><rect class="cls-1" x="509.98" width="399.01" height="339" transform="translate(1418.97 339) rotate(180)"/></clipPath></defs><title>Base medio superior</title><g id="Layer_1" data-name="Layer 1"><g class="cls-2"><rect class="cls-3" x="-556.58" y="291.63" width="880" height="561.45" rx="10.5" ry="10.5"/><path class="cls-4" d="M312.92,293.13a9,9,0,0,1,9,9V842.58a9,9,0,0,1-9,9h-859a9,9,0,0,1-9-9V302.13a9,9,0,0,1,9-9h859m0-3h-859a12,12,0,0,0-12,12V842.58a12,12,0,0,0,12,12h859a12,12,0,0,0,12-12V302.13a12,12,0,0,0-12-12Z"/></g><g class="cls-5"><rect class="cls-3" x="-556.58" y="79.83" width="880" height="561.45" rx="10.5" ry="10.5"/><path class="cls-4" d="M312.92,81.33a9,9,0,0,1,9,9V630.78a9,9,0,0,1-9,9h-859a9,9,0,0,1-9-9V90.33a9,9,0,0,1,9-9h859m0-3h-859a12,12,0,0,0-12,12V630.78a12,12,0,0,0,12,12h859a12,12,0,0,0,12-12V90.33a12,12,0,0,0-12-12Z"/><path class="cls-6" d="M4.42,324.28c-43.39,0-85.55-8-118.72-22.64-30.38-13.38-48.52-30.6-48.52-46.08,0-45.91,18.83-101.35,49.15-144.7C-98,88.4-79.55,69.78-60.43,57-39.32,43-17.51,35.83,4.42,35.83S48.16,43,69.27,57c19.12,12.74,37.53,31.36,53.24,53.82,30.31,43.35,49.15,98.79,49.15,144.7,0,25.77-26.36,41.56-48.47,50.27C93,317.73,50.83,324.28,4.42,324.28Z"/><path class="cls-7" d="M4.42,37.33c21.62,0,43.16,7.05,64,21,19,12.65,37.24,31.13,52.85,53.44,30.15,43.11,48.88,98.23,48.88,143.84,0,24.92-25.85,40.34-47.52,48.88-30,11.82-72,18.34-118.22,18.34-91.81,0-165.74-36.77-165.74-67.22,0-45.61,18.73-100.73,48.88-143.84,15.6-22.31,33.87-40.79,52.84-53.44,20.86-13.9,42.4-21,64-21m0-3c-93.2,0-168.74,128-168.74,221.23,0,32.91,75.54,70.22,168.74,70.22s168.74-26.06,168.74-70.22c0-93.19-75.55-221.23-168.74-221.23Z"/></g><g class="cls-8"><rect class="cls-3" x="-378.58" y="79.83" width="880" height="561.45" rx="10.5" ry="10.5"/><path class="cls-4" d="M490.92,81.33a9,9,0,0,1,9,9V630.78a9,9,0,0,1-9,9h-859a9,9,0,0,1-9-9V90.33a9,9,0,0,1,9-9h859m0-3h-859a12,12,0,0,0-12,12V630.78a12,12,0,0,0,12,12h859a12,12,0,0,0,12-12V90.33a12,12,0,0,0-12-12Z"/><path class="cls-6" d="M182.42,324.28c-43.39,0-85.55-8-118.72-22.64C33.32,288.26,15.18,271,15.18,255.56c0-45.91,18.83-101.35,49.15-144.7C80,88.4,98.45,69.79,117.57,57,138.68,43,160.49,35.83,182.42,35.83S226.16,43,247.27,57c19.12,12.75,37.53,31.36,53.24,53.82,30.31,43.35,49.15,98.79,49.15,144.7,0,25.77-26.36,41.56-48.47,50.27C271,317.73,228.83,324.28,182.42,324.28Z"/><path class="cls-7" d="M182.42,37.33c21.62,0,43.16,7.05,64,21,19,12.65,37.24,31.13,52.85,53.44,30.15,43.11,48.88,98.23,48.88,143.84,0,24.92-25.85,40.34-47.52,48.88-30,11.82-72,18.34-118.22,18.34-91.81,0-165.74-36.77-165.74-67.22,0-45.61,18.73-100.73,48.88-143.84,15.6-22.31,33.87-40.79,52.84-53.44,20.86-13.9,42.4-21,64-21m0-3c-93.2,0-168.74,128-168.74,221.23,0,32.91,75.54,70.22,168.74,70.22s168.74-26.06,168.74-70.22c0-93.19-75.55-221.23-168.74-221.23Z"/></g><g class="cls-9"><rect class="cls-3" x="-381.25" y="291.63" width="880" height="561.45" rx="10.5" ry="10.5"/><path class="cls-4" d="M488.25,293.13a9,9,0,0,1,9,9V842.58a9,9,0,0,1-9,9h-859a9,9,0,0,1-9-9V302.13a9,9,0,0,1,9-9h859m0-3h-859a12,12,0,0,0-12,12V842.58a12,12,0,0,0,12,12h859a12,12,0,0,0,12-12V302.13a12,12,0,0,0-12-12Z"/></g><g class="cls-10"><rect class="cls-3" x="22.24" y="291.63" width="880" height="561.45" rx="10.5" ry="10.5"/><path class="cls-4" d="M891.74,293.13a9,9,0,0,1,9,9V842.58a9,9,0,0,1-9,9h-859a9,9,0,0,1-9-9V302.13a9,9,0,0,1,9-9h859m0-3h-859a12,12,0,0,0-12,12V842.58a12,12,0,0,0,12,12h859a12,12,0,0,0,12-12V302.13a12,12,0,0,0-12-12Z"/></g><g class="cls-11"><rect class="cls-3" x="22.24" y="79.83" width="880" height="561.45" rx="10.5" ry="10.5"/><path class="cls-4" d="M891.74,81.33a9,9,0,0,1,9,9V630.78a9,9,0,0,1-9,9h-859a9,9,0,0,1-9-9V90.33a9,9,0,0,1,9-9h859m0-3h-859a12,12,0,0,0-12,12V630.78a12,12,0,0,0,12,12h859a12,12,0,0,0,12-12V90.33a12,12,0,0,0-12-12Z"/><path class="cls-6" d="M341.24,324.28c-46.41,0-88.59-6.55-118.77-18.45-22.11-8.71-48.47-24.5-48.47-50.27,0-45.91,18.83-101.35,49.15-144.7C238.86,88.4,257.27,69.79,276.39,57,297.5,43,319.32,35.83,341.24,35.83S385,43,406.09,57c19.12,12.75,37.53,31.36,53.24,53.82,30.32,43.35,49.15,98.79,49.15,144.7,0,15.48-18.14,32.7-48.53,46.08C426.78,316.24,384.62,324.28,341.24,324.28Z"/><path class="cls-7" d="M341.24,37.33c21.62,0,43.16,7.05,64,21,19,12.65,37.23,31.13,52.84,53.44C488.25,154.83,507,210,507,255.56c0,30.45-73.93,67.22-165.74,67.22C295,322.78,253,316.26,223,304.44c-21.68-8.54-47.52-24-47.52-48.88,0-45.61,18.73-100.73,48.88-143.84,15.6-22.31,33.87-40.79,52.84-53.44,20.86-13.9,42.4-21,64-21m0-3c-93.19,0-168.74,128-168.74,221.23,0,44.16,75.55,70.22,168.74,70.22S510,288.47,510,255.56c0-93.19-75.55-221.23-168.74-221.23Z"/></g></g></svg>