<svg xmlns="http://www.w3.org/2000/svg" xmlns:xlink="http://www.w3.org/1999/xlink" viewBox="0 0 364.92 390.18"><defs><style>.cls-1{fill:none;}.cls-2{clip-path:url(#clip-path);}.cls-3{fill:#a9c8ff;}.cls-4{fill:#202f77;}.cls-5{clip-path:url(#clip-path-2);}.cls-6{fill:#f7c87c;}.cls-7{fill:#7a4f20;}.cls-8{clip-path:url(#clip-path-3);}.cls-9{clip-path:url(#clip-path-4);}.cls-10{clip-path:url(#clip-path-5);}.cls-11{clip-path:url(#clip-path-6);}</style><clipPath id="clip-path"><rect class="cls-1" x="-563.33" y="-359.44" width="399.01" height="339"/></clipPath><clipPath id="clip-path-2"><rect class="cls-1" x="-563.33" width="399.01" height="390.18"/></clipPath><clipPath id="clip-path-3"><rect class="cls-1" width="364.92" height="390.18"/></clipPath><clipPath id="clip-path-4"><rect class="cls-1" y="-359.44" width="359.68" height="339"/></clipPath><clipPath id="clip-path-5"><rect class="cls-1" x="509.98" y="-359.44" width="399.01" height="339" transform="translate(1418.97 -379.89) rotate(180)"/></clipPath><clipPath id="clip-path-6"><rect class="cls-1" x="509.98" width="399.01" height="390.18" transform="translate(1418.97 390.18) rotate(180)"/></clipPath></defs><title>Base medio bajo</title><g id="Layer_1" data-name="Layer 1"><g class="cls-2"><rect class="cls-3" x="-556.58" y="-420.62" width="880" height="561.45" rx="10.5" ry="10.5"/><path class="cls-4" d="M312.92-419.12a9,9,0,0,1,9,9V130.33a9,9,0,0,1-9,9h-859a9,9,0,0,1-9-9V-410.12a9,9,0,0,1,9-9h859m0-3h-859a12,12,0,0,0-12,12V130.33a12,12,0,0,0,12,12h859a12,12,0,0,0,12-12V-410.12a12,12,0,0,0-12-12Z"/></g><g class="cls-5"><rect class="cls-3" x="-556.58" y="-191.54" width="880" height="561.45" rx="10.5" ry="10.5"/><path class="cls-4" d="M312.92-190a9,9,0,0,1,9,9V359.41a9,9,0,0,1-9,9h-859a9,9,0,0,1-9-9V-181a9,9,0,0,1,9-9h859m0-3h-859a12,12,0,0,0-12,12V359.41a12,12,0,0,0,12,12h859a12,12,0,0,0,12-12V-181a12,12,0,0,0-12-12Z"/><path class="cls-6" d="M4.42,310.36c-43.39,0-85.55-8-118.72-22.64-30.38-13.38-48.53-30.6-48.53-46.07,0-45.91,18.84-101.36,49.16-144.71C-98,74.48-79.55,55.87-60.43,43.12-39.32,29-17.51,21.91,4.42,21.91S48.16,29,69.27,43.12c19.12,12.75,37.53,31.36,53.24,53.82,30.31,43.35,49.15,98.8,49.15,144.71,0,25.76-26.36,41.55-48.47,50.27C93,303.81,50.83,310.36,4.42,310.36Z"/><path class="cls-7" d="M4.42,23.41c21.62,0,43.16,7.05,64,21C87.4,57,105.67,75.49,121.28,97.8c30.15,43.11,48.88,98.23,48.88,143.85,0,24.91-25.85,40.33-47.52,48.87-30,11.83-72,18.34-118.22,18.34-91.81,0-165.74-36.77-165.74-67.21,0-45.62,18.73-100.74,48.88-143.85C-96.84,75.49-78.57,57-59.6,44.37c20.86-13.91,42.4-21,64-21m0-3c-93.2,0-168.74,128-168.74,221.24,0,32.9,75.54,70.21,168.74,70.21s168.74-26.05,168.74-70.21c0-93.2-75.55-221.24-168.74-221.24Z"/></g><g class="cls-8"><rect class="cls-3" x="-378.58" y="-199.54" width="880" height="561.45" rx="10.5" ry="10.5"/><path class="cls-4" d="M490.92-198a9,9,0,0,1,9,9V351.41a9,9,0,0,1-9,9h-859a9,9,0,0,1-9-9V-189a9,9,0,0,1,9-9h859m0-3h-859a12,12,0,0,0-12,12V351.41a12,12,0,0,0,12,12h859a12,12,0,0,0,12-12V-189a12,12,0,0,0-12-12Z"/><path class="cls-6" d="M182.42,302.36c-43.39,0-85.55-8-118.72-22.64-30.38-13.37-48.52-30.6-48.52-46.07,0-45.91,18.83-101.36,49.15-144.71C80,66.48,98.45,47.87,117.57,35.12,138.68,21,160.49,13.91,182.42,13.91S226.16,21,247.27,35.12c19.12,12.75,37.53,31.36,53.24,53.82,30.31,43.35,49.15,98.8,49.15,144.71,0,25.76-26.36,41.55-48.47,50.27C271,295.81,228.83,302.36,182.42,302.36Z"/><path class="cls-7" d="M182.42,15.41c21.62,0,43.16,7.05,64,21,19,12.64,37.24,31.12,52.85,53.43,30.15,43.11,48.88,98.23,48.88,143.85,0,24.91-25.85,40.33-47.52,48.87-30,11.83-72,18.34-118.22,18.34-91.81,0-165.74-36.77-165.74-67.21C16.68,188,35.41,132.91,65.56,89.8,81.16,67.49,99.43,49,118.4,36.37c20.86-13.91,42.4-21,64-21m0-3c-93.2,0-168.74,128-168.74,221.24,0,32.9,75.54,70.21,168.74,70.21s168.74-26.05,168.74-70.21c0-93.2-75.55-221.24-168.74-221.24Z"/></g><g class="cls-9"><rect class="cls-3" x="-381.25" y="-420.62" width="880" height="561.45" rx="10.5" ry="10.5"/><path class="cls-4" d="M488.25-419.12a9,9,0,0,1,9,9V130.33a9,9,0,0,1-9,9h-859a9,9,0,0,1-9-9V-410.12a9,9,0,0,1,9-9h859m0-3h-859a12,12,0,0,0-12,12V130.33a12,12,0,0,0,12,12h859a12,12,0,0,0,12-12V-410.12a12,12,0,0,0-12-12Z"/></g><g class="cls-10"><rect class="cls-3" x="22.24" y="-420.62" width="880" height="561.45" rx="10.5" ry="10.5"/><path class="cls-4" d="M891.74-419.12a9,9,0,0,1,9,9V130.33a9,9,0,0,1-9,9h-859a9,9,0,0,1-9-9V-410.12a9,9,0,0,1,9-9h859m0-3h-859a12,12,0,0,0-12,12V130.33a12,12,0,0,0,12,12h859a12,12,0,0,0,12-12V-410.12a12,12,0,0,0-12-12Z"/></g><g class="cls-11"><rect class="cls-3" x="22.24" y="-191.54" width="880" height="561.45" rx="10.5" ry="10.5"/><path class="cls-4" d="M891.74-190a9,9,0,0,1,9,9V359.41a9,9,0,0,1-9,9h-859a9,9,0,0,1-9-9V-181a9,9,0,0,1,9-9h859m0-3h-859a12,12,0,0,0-12,12V359.41a12,12,0,0,0,12,12h859a12,12,0,0,0,12-12V-181a12,12,0,0,0-12-12Z"/><path class="cls-6" d="M341.24,310.36c-46.41,0-88.59-6.55-118.77-18.44C200.36,283.2,174,267.41,174,241.65c0-45.91,18.83-101.36,49.15-144.71,15.71-22.46,34.12-41.07,53.24-53.82C297.5,29,319.32,21.91,341.24,21.91S385,29,406.09,43.12c19.12,12.75,37.53,31.36,53.24,53.82,30.32,43.35,49.15,98.8,49.15,144.71,0,15.47-18.14,32.69-48.53,46.07C426.78,302.32,384.62,310.36,341.24,310.36Z"/><path class="cls-7" d="M341.24,23.41c21.62,0,43.16,7.05,64,21,19,12.64,37.23,31.12,52.84,53.43C488.25,140.91,507,196,507,241.65c0,30.44-73.93,67.21-165.74,67.21C295,308.86,253,302.35,223,290.52c-21.68-8.54-47.52-24-47.52-48.87,0-45.62,18.73-100.74,48.88-143.85C240,75.49,258.25,57,277.22,44.37c20.86-13.91,42.4-21,64-21m0-3c-93.2,0-168.74,128-168.74,221.24,0,44.16,75.54,70.21,168.74,70.21S510,274.55,510,241.65c0-93.2-75.55-221.24-168.74-221.24Z"/></g></g></svg>