<svg xmlns="http://www.w3.org/2000/svg" xmlns:xlink="http://www.w3.org/1999/xlink" viewBox="0 0 399.01 390.18"><defs><style>.cls-1{fill:none;}.cls-2{clip-path:url(#clip-path);}.cls-3{fill:#a9c8ff;}.cls-4{fill:#202f77;}.cls-5{clip-path:url(#clip-path-2);}.cls-6{fill:#f7c87c;}.cls-7{fill:#7a4f20;}</style><clipPath id="clip-path"><rect class="cls-1" y="-359.44" width="399.01" height="339" transform="translate(399.01 -379.89) rotate(180)"/></clipPath><clipPath id="clip-path-2"><rect class="cls-1" width="399.01" height="390.18" transform="translate(399.01 390.18) rotate(180)"/></clipPath></defs><title>Esquina inferior derecha</title><g id="Layer_1" data-name="Layer 1"><g class="cls-2"><rect class="cls-3" x="-487.74" y="-420.62" width="880" height="561.45" rx="10.5" ry="10.5"/><path class="cls-4" d="M381.76-419.12a9,9,0,0,1,9,9V130.33a9,9,0,0,1-9,9h-859a9,9,0,0,1-9-9V-410.12a9,9,0,0,1,9-9h859m0-3h-859a12,12,0,0,0-12,12V130.33a12,12,0,0,0,12,12h859a12,12,0,0,0,12-12V-410.12a12,12,0,0,0-12-12Z"/></g><g class="cls-5"><rect class="cls-3" x="-487.74" y="-191.54" width="880" height="561.45" rx="10.5" ry="10.5"/><path class="cls-4" d="M381.76-190a9,9,0,0,1,9,9V359.41a9,9,0,0,1-9,9h-859a9,9,0,0,1-9-9V-181a9,9,0,0,1,9-9h859m0-3h-859a12,12,0,0,0-12,12V359.41a12,12,0,0,0,12,12h859a12,12,0,0,0,12-12V-181a12,12,0,0,0-12-12Z"/><path class="cls-6" d="M194.26,310.36c-46.41,0-88.59-6.55-118.77-18.44C53.38,283.2,27,267.41,27,241.65c0-45.91,18.83-101.36,49.15-144.71,15.71-22.46,34.12-41.07,53.24-53.82C150.52,29,172.34,21.91,194.26,21.91S238,29,259.11,43.12c19.12,12.75,37.53,31.36,53.24,53.82,30.32,43.35,49.15,98.8,49.15,144.71,0,15.47-18.14,32.69-48.53,46.07C279.8,302.32,237.64,310.36,194.26,310.36Z"/><path class="cls-7" d="M194.26,23.41c21.62,0,43.16,7.05,64,21,19,12.64,37.23,31.12,52.84,53.43C341.27,140.91,360,196,360,241.65c0,30.44-73.93,67.21-165.74,67.21-46.23,0-88.21-6.51-118.22-18.34-21.68-8.54-47.52-24-47.52-48.87C28.52,196,47.25,140.91,77.4,97.8,93,75.49,111.27,57,130.24,44.37c20.86-13.91,42.4-21,64-21m0-3c-93.2,0-168.74,128-168.74,221.24,0,44.16,75.54,70.21,168.74,70.21S363,274.55,363,241.65c0-93.2-75.55-221.24-168.74-221.24Z"/><path class="cls-7" d="M-168.74,23.41c21.62,0,43.16,7.05,64,21C-85.76,57-67.48,75.49-51.88,97.8-21.73,140.91-3,196-3,241.65c0,30.44-73.93,67.21-165.74,67.21-46.23,0-88.21-6.51-118.22-18.34-21.68-8.54-47.52-24-47.52-48.87,0-45.62,18.73-100.74,48.88-143.85C-270,75.49-251.73,57-232.76,44.37c20.86-13.91,42.4-21,64-21m0-3c-93.19,0-168.74,128-168.74,221.24,0,44.16,75.55,70.21,168.74,70.21S0,274.55,0,241.65C0,148.45-75.55,20.41-168.74,20.41Z"/></g></g></svg>