<svg xmlns="http://www.w3.org/2000/svg" xmlns:xlink="http://www.w3.org/1999/xlink" viewBox="0 0 399.01 339"><defs><style>.cls-1{fill:none;}.cls-2{clip-path:url(#clip-path);}.cls-3{fill:#a9c8ff;}.cls-4{fill:#202f77;}.cls-5{clip-path:url(#clip-path-2);}.cls-6{fill:#f7c87c;}.cls-7{fill:#7a4f20;}.cls-8{clip-path:url(#clip-path-3);}.cls-9{clip-path:url(#clip-path-4);}</style><clipPath id="clip-path"><rect class="cls-1" y="352.81" width="399.01" height="339"/></clipPath><clipPath id="clip-path-2"><rect class="cls-1" width="399.01" height="339"/></clipPath><clipPath id="clip-path-3"><rect class="cls-1" x="563.33" width="364.92" height="339"/></clipPath><clipPath id="clip-path-4"><rect class="cls-1" x="563.33" y="352.81" width="359.68" height="339"/></clipPath></defs><title>Esquina superior izquierda</title><g id="Layer_1" data-name="Layer 1"><g class="cls-2"><rect class="cls-3" x="6.75" y="291.63" width="880" height="561.45" rx="10.5" ry="10.5"/><path class="cls-4" d="M876.25,293.13a9,9,0,0,1,9,9V842.58a9,9,0,0,1-9,9h-859a9,9,0,0,1-9-9V302.13a9,9,0,0,1,9-9h859m0-3h-859a12,12,0,0,0-12,12V842.58a12,12,0,0,0,12,12h859a12,12,0,0,0,12-12V302.13a12,12,0,0,0-12-12Z"/></g><g class="cls-5"><rect class="cls-3" x="6.75" y="79.83" width="880" height="561.45" rx="10.5" ry="10.5"/><path class="cls-4" d="M876.25,81.33a9,9,0,0,1,9,9V630.78a9,9,0,0,1-9,9h-859a9,9,0,0,1-9-9V90.33a9,9,0,0,1,9-9h859m0-3h-859a12,12,0,0,0-12,12V630.78a12,12,0,0,0,12,12h859a12,12,0,0,0,12-12V90.33a12,12,0,0,0-12-12Z"/><path class="cls-6" d="M204.75,324.28c-43.38,0-85.54-8-118.71-22.64C55.65,288.26,37.51,271,37.51,255.56c0-45.91,18.83-101.35,49.15-144.7C102.37,88.4,120.78,69.78,139.9,57,161,43,182.83,35.83,204.75,35.83S248.49,43,269.6,57c19.12,12.74,37.53,31.36,53.24,53.82C353.16,154.21,372,209.65,372,255.56c0,25.77-26.36,41.56-48.47,50.27C293.34,317.73,251.16,324.28,204.75,324.28Z"/><path class="cls-7" d="M204.75,37.33c21.62,0,43.16,7.05,64,21,19,12.65,37.24,31.13,52.84,53.44,30.15,43.11,48.88,98.23,48.88,143.84,0,24.92-25.84,40.34-47.52,48.88-30,11.82-72,18.34-118.22,18.34C112.94,322.78,39,286,39,255.56,39,210,57.74,154.83,87.89,111.72c15.6-22.31,33.88-40.79,52.84-53.44,20.86-13.9,42.4-21,64-21m0-3C111.56,34.33,36,162.37,36,255.56c0,32.91,75.55,70.22,168.74,70.22s168.74-26.06,168.74-70.22c0-93.19-75.55-221.23-168.74-221.23Z"/><path class="cls-7" d="M567.75,37.33c21.62,0,43.16,7.05,64,21,19,12.65,37.24,31.13,52.84,53.44,30.15,43.11,48.88,98.23,48.88,143.84,0,24.92-25.84,40.34-47.52,48.88-30,11.82-72,18.34-118.22,18.34C475.94,322.78,402,286,402,255.56c0-45.61,18.73-100.73,48.88-143.84,15.6-22.31,33.88-40.79,52.84-53.44,20.86-13.9,42.4-21,64-21m0-3c-93.19,0-168.74,128-168.74,221.23,0,32.91,75.55,70.22,168.74,70.22s168.74-26.06,168.74-70.22c0-93.19-75.55-221.23-168.74-221.23Z"/></g><g class="cls-8"><rect class="cls-3" x="184.75" y="79.83" width="880" height="561.45" rx="10.5" ry="10.5"/><path class="cls-4" d="M1054.25,81.33a9,9,0,0,1,9,9V630.78a9,9,0,0,1-9,9h-859a9,9,0,0,1-9-9V90.33a9,9,0,0,1,9-9h859m0-3h-859a12,12,0,0,0-12,12V630.78a12,12,0,0,0,12,12h859a12,12,0,0,0,12-12V90.33a12,12,0,0,0-12-12Z"/><path class="cls-6" d="M382.75,324.28c-43.38,0-85.54-8-118.71-22.64-30.39-13.38-48.53-30.6-48.53-46.08,0-45.91,18.83-101.35,49.15-144.7C280.37,88.4,298.78,69.79,317.9,57,339,43,360.83,35.83,382.75,35.83S426.49,43,447.6,57c19.12,12.75,37.53,31.36,53.24,53.82C531.16,154.21,550,209.65,550,255.56c0,25.77-26.36,41.56-48.47,50.27C471.34,317.73,429.16,324.28,382.75,324.28Z"/><path class="cls-7" d="M382.75,37.33c21.62,0,43.16,7.05,64,21,19,12.65,37.24,31.13,52.84,53.44,30.15,43.11,48.88,98.23,48.88,143.84,0,24.92-25.84,40.34-47.52,48.88-30,11.82-72,18.34-118.22,18.34C290.94,322.78,217,286,217,255.56c0-45.61,18.73-100.73,48.88-143.84,15.6-22.31,33.88-40.79,52.84-53.44,20.86-13.9,42.4-21,64-21m0-3c-93.19,0-168.74,128-168.74,221.23,0,32.91,75.55,70.22,168.74,70.22s168.74-26.06,168.74-70.22c0-93.19-75.55-221.23-168.74-221.23Z"/></g><g class="cls-9"><rect class="cls-3" x="182.08" y="291.63" width="880" height="561.45" rx="10.5" ry="10.5"/><path class="cls-4" d="M1051.58,293.13a9,9,0,0,1,9,9V842.58a9,9,0,0,1-9,9h-859a9,9,0,0,1-9-9V302.13a9,9,0,0,1,9-9h859m0-3h-859a12,12,0,0,0-12,12V842.58a12,12,0,0,0,12,12h859a12,12,0,0,0,12-12V302.13a12,12,0,0,0-12-12Z"/></g></g></svg>