<svg xmlns="http://www.w3.org/2000/svg" xmlns:xlink="http://www.w3.org/1999/xlink" viewBox="0 0 399.01 339"><defs><style>.cls-1{fill:none;}.cls-2{clip-path:url(#clip-path);}.cls-3{fill:#a9c8ff;}.cls-4{fill:#202f77;}.cls-5{fill:#f7c87c;}.cls-6{fill:#7a4f20;}.cls-7{clip-path:url(#clip-path-2);}.cls-8{clip-path:url(#clip-path-3);}.cls-9{clip-path:url(#clip-path-4);}.cls-10{clip-path:url(#clip-path-5);}.cls-11{clip-path:url(#clip-path-6);}</style><clipPath id="clip-path"><rect class="cls-1" width="399.01" height="339"/></clipPath><clipPath id="clip-path-2"><rect class="cls-1" y="-352.81" width="399.01" height="339"/></clipPath><clipPath id="clip-path-3"><rect class="cls-1" x="563.33" y="-352.81" width="364.92" height="339"/></clipPath><clipPath id="clip-path-4"><rect class="cls-1" y="359.44" width="399.01" height="390.18"/></clipPath><clipPath id="clip-path-5"><rect class="cls-1" x="563.33" y="359.44" width="364.92" height="390.18"/></clipPath><clipPath id="clip-path-6"><rect class="cls-1" x="563.33" width="359.68" height="339"/></clipPath></defs><title>Medio izquierda</title><g id="Layer_1" data-name="Layer 1"><g class="cls-2"><rect class="cls-3" x="6.75" y="-61.17" width="880" height="561.45" rx="10.5" ry="10.5"/><path class="cls-4" d="M876.25-59.67a9,9,0,0,1,9,9V489.78a9,9,0,0,1-9,9h-859a9,9,0,0,1-9-9V-50.67a9,9,0,0,1,9-9h859m0-3h-859a12,12,0,0,0-12,12V489.78a12,12,0,0,0,12,12h859a12,12,0,0,0,12-12V-50.67a12,12,0,0,0-12-12Z"/><path class="cls-5" d="M204.75,311.28c-43.38,0-85.54-8-118.71-22.64C55.65,275.26,37.51,258,37.51,242.56c0-45.91,18.83-101.35,49.15-144.7C102.37,75.4,120.78,56.79,139.9,44,161,30,182.83,22.83,204.75,22.83S248.49,30,269.6,44c19.12,12.75,37.53,31.36,53.24,53.82C353.16,141.21,372,196.65,372,242.56c0,25.77-26.36,41.56-48.47,50.27C293.34,304.73,251.16,311.28,204.75,311.28Z"/><path class="cls-6" d="M204.75,24.33c21.62,0,43.16,7.05,64,21,19,12.65,37.24,31.13,52.84,53.44,30.15,43.11,48.88,98.23,48.88,143.84,0,24.92-25.84,40.34-47.52,48.88-30,11.82-72,18.34-118.22,18.34C112.94,309.78,39,273,39,242.56,39,197,57.74,141.83,87.89,98.72c15.6-22.31,33.88-40.79,52.84-53.44,20.86-13.9,42.4-21,64-21m0-3C111.56,21.33,36,149.37,36,242.56c0,32.91,75.55,70.22,168.74,70.22s168.74-26.06,168.74-70.22c0-93.19-75.55-221.23-168.74-221.23Z"/><path class="cls-6" d="M567.75,24.33c21.62,0,43.16,7.05,64,21,19,12.65,37.24,31.13,52.84,53.44,30.15,43.11,48.88,98.23,48.88,143.84,0,24.92-25.84,40.34-47.52,48.88-30,11.82-72,18.34-118.22,18.34C475.94,309.78,402,273,402,242.56c0-45.61,18.73-100.73,48.88-143.84,15.6-22.31,33.88-40.79,52.84-53.44,20.86-13.9,42.4-21,64-21m0-3c-93.19,0-168.74,128-168.74,221.23,0,32.91,75.55,70.22,168.74,70.22s168.74-26.06,168.74-70.22c0-93.19-75.55-221.23-168.74-221.23Z"/></g><g class="cls-7"><rect class="cls-3" x="6.75" y="-272.98" width="880" height="561.45" rx="10.5" ry="10.5"/><path class="cls-4" d="M876.25-271.48a9,9,0,0,1,9,9V278a9,9,0,0,1-9,9h-859a9,9,0,0,1-9-9V-262.48a9,9,0,0,1,9-9h859m0-3h-859a12,12,0,0,0-12,12V278a12,12,0,0,0,12,12h859a12,12,0,0,0,12-12V-262.48a12,12,0,0,0-12-12Z"/></g><g class="cls-8"><rect class="cls-3" x="184.75" y="-272.98" width="880" height="561.45" rx="10.5" ry="10.5"/><path class="cls-4" d="M1054.25-271.48a9,9,0,0,1,9,9V278a9,9,0,0,1-9,9h-859a9,9,0,0,1-9-9V-262.48a9,9,0,0,1,9-9h859m0-3h-859a12,12,0,0,0-12,12V278a12,12,0,0,0,12,12h859a12,12,0,0,0,12-12V-262.48a12,12,0,0,0-12-12Z"/></g><g class="cls-9"><rect class="cls-3" x="6.75" y="167.9" width="880" height="561.45" rx="10.5" ry="10.5"/><path class="cls-4" d="M876.25,169.4a9,9,0,0,1,9,9V718.85a9,9,0,0,1-9,9h-859a9,9,0,0,1-9-9V178.4a9,9,0,0,1,9-9h859m0-3h-859a12,12,0,0,0-12,12V718.85a12,12,0,0,0,12,12h859a12,12,0,0,0,12-12V178.4a12,12,0,0,0-12-12Z"/></g><g class="cls-10"><rect class="cls-3" x="184.75" y="159.9" width="880" height="561.45" rx="10.5" ry="10.5"/><path class="cls-4" d="M1054.25,161.4a9,9,0,0,1,9,9V710.85a9,9,0,0,1-9,9h-859a9,9,0,0,1-9-9V170.4a9,9,0,0,1,9-9h859m0-3h-859a12,12,0,0,0-12,12V710.85a12,12,0,0,0,12,12h859a12,12,0,0,0,12-12V170.4a12,12,0,0,0-12-12Z"/></g><g class="cls-11"><rect class="cls-3" x="182.08" y="-61.17" width="880" height="561.45" rx="10.5" ry="10.5"/><path class="cls-4" d="M1051.58-59.67a9,9,0,0,1,9,9V489.78a9,9,0,0,1-9,9h-859a9,9,0,0,1-9-9V-50.67a9,9,0,0,1,9-9h859m0-3h-859a12,12,0,0,0-12,12V489.78a12,12,0,0,0,12,12h859a12,12,0,0,0,12-12V-50.67a12,12,0,0,0-12-12Z"/><path class="cls-5" d="M380.08,311.28c-43.38,0-85.54-8-118.71-22.64C231,275.26,212.84,258,212.84,242.56c0-45.91,18.84-101.35,49.15-144.7C277.7,75.4,296.11,56.79,315.23,44,336.34,30,358.16,22.83,380.08,22.83S423.82,30,444.93,44c19.12,12.75,37.53,31.36,53.24,53.82,30.32,43.35,49.16,98.79,49.16,144.7,0,25.77-26.36,41.56-48.48,50.27C468.67,304.73,426.49,311.28,380.08,311.28Z"/><path class="cls-6" d="M380.08,24.33c21.62,0,43.16,7.05,64,21,19,12.65,37.24,31.13,52.84,53.44,30.15,43.11,48.88,98.23,48.88,143.84,0,24.92-25.84,40.34-47.52,48.88-30,11.82-72,18.34-118.22,18.34-91.81,0-165.74-36.77-165.74-67.22,0-45.61,18.73-100.73,48.88-143.84,15.61-22.31,33.88-40.79,52.85-53.44,20.85-13.9,42.39-21,64-21m0-3c-93.19,0-168.74,128-168.74,221.23,0,32.91,75.55,70.22,168.74,70.22s168.74-26.06,168.74-70.22c0-93.19-75.54-221.23-168.74-221.23Z"/></g></g></svg>