<svg xmlns="http://www.w3.org/2000/svg" xmlns:xlink="http://www.w3.org/1999/xlink" viewBox="0 0 359.68 339"><defs><style>.cls-1{fill:none;}.cls-2{clip-path:url(#clip-path);}.cls-3{fill:#a9c8ff;}.cls-4{fill:#202f77;}.cls-5{fill:#f7c87c;}.cls-6{fill:#7a4f20;}.cls-7{clip-path:url(#clip-path-2);}.cls-8{clip-path:url(#clip-path-3);}.cls-9{clip-path:url(#clip-path-4);}.cls-10{clip-path:url(#clip-path-5);}.cls-11{clip-path:url(#clip-path-6);}.cls-12{clip-path:url(#clip-path-7);}.cls-13{clip-path:url(#clip-path-8);}.cls-14{clip-path:url(#clip-path-9);}</style><clipPath id="clip-path"><rect class="cls-1" x="-563.33" width="399.01" height="339"/></clipPath><clipPath id="clip-path-2"><rect class="cls-1" x="-563.33" y="-352.81" width="399.01" height="339"/></clipPath><clipPath id="clip-path-3"><rect class="cls-1" y="-352.81" width="364.92" height="339"/></clipPath><clipPath id="clip-path-4"><rect class="cls-1" x="-563.33" y="359.44" width="399.01" height="390.18"/></clipPath><clipPath id="clip-path-5"><rect class="cls-1" y="359.44" width="364.92" height="390.18"/></clipPath><clipPath id="clip-path-6"><rect class="cls-1" width="359.68" height="339"/></clipPath><clipPath id="clip-path-7"><rect class="cls-1" x="509.98" width="399.01" height="339" transform="translate(1418.97 339) rotate(180)"/></clipPath><clipPath id="clip-path-8"><rect class="cls-1" x="509.98" y="-352.81" width="399.01" height="339" transform="translate(1418.97 -366.62) rotate(180)"/></clipPath><clipPath id="clip-path-9"><rect class="cls-1" x="509.98" y="359.44" width="399.01" height="390.18" transform="translate(1418.97 1109.07) rotate(180)"/></clipPath></defs><title>Medio</title><g id="Layer_1" data-name="Layer 1"><g class="cls-2"><rect class="cls-3" x="-556.58" y="-61.17" width="880" height="561.45" rx="10.5" ry="10.5"/><path class="cls-4" d="M312.92-59.67a9,9,0,0,1,9,9V489.78a9,9,0,0,1-9,9h-859a9,9,0,0,1-9-9V-50.67a9,9,0,0,1,9-9h859m0-3h-859a12,12,0,0,0-12,12V489.78a12,12,0,0,0,12,12h859a12,12,0,0,0,12-12V-50.67a12,12,0,0,0-12-12Z"/><path class="cls-5" d="M4.42,311.28c-43.39,0-85.55-8-118.72-22.64-30.38-13.38-48.53-30.6-48.53-46.08,0-45.91,18.84-101.35,49.16-144.7C-98,75.4-79.55,56.79-60.43,44-39.32,30-17.51,22.83,4.42,22.83S48.16,30,69.27,44C88.39,56.79,106.8,75.4,122.51,97.86c30.31,43.35,49.15,98.79,49.15,144.7,0,25.77-26.36,41.56-48.47,50.27C93,304.73,50.83,311.28,4.42,311.28Z"/><path class="cls-6" d="M4.42,24.33c21.62,0,43.16,7.05,64,21,19,12.65,37.24,31.13,52.85,53.44,30.15,43.11,48.88,98.23,48.88,143.84,0,24.92-25.85,40.34-47.52,48.88-30,11.82-72,18.34-118.22,18.34-91.81,0-165.74-36.77-165.74-67.22,0-45.61,18.73-100.73,48.88-143.84,15.6-22.31,33.87-40.79,52.84-53.44,20.86-13.9,42.4-21,64-21m0-3c-93.2,0-168.74,128-168.74,221.23,0,32.91,75.54,70.22,168.74,70.22s168.74-26.06,168.74-70.22c0-93.19-75.55-221.23-168.74-221.23Z"/></g><g class="cls-7"><rect class="cls-3" x="-556.58" y="-272.98" width="880" height="561.45" rx="10.5" ry="10.5"/><path class="cls-4" d="M312.92-271.48a9,9,0,0,1,9,9V278a9,9,0,0,1-9,9h-859a9,9,0,0,1-9-9V-262.48a9,9,0,0,1,9-9h859m0-3h-859a12,12,0,0,0-12,12V278a12,12,0,0,0,12,12h859a12,12,0,0,0,12-12V-262.48a12,12,0,0,0-12-12Z"/></g><g class="cls-8"><rect class="cls-3" x="-378.58" y="-272.98" width="880" height="561.45" rx="10.5" ry="10.5"/><path class="cls-4" d="M490.92-271.48a9,9,0,0,1,9,9V278a9,9,0,0,1-9,9h-859a9,9,0,0,1-9-9V-262.48a9,9,0,0,1,9-9h859m0-3h-859a12,12,0,0,0-12,12V278a12,12,0,0,0,12,12h859a12,12,0,0,0,12-12V-262.48a12,12,0,0,0-12-12Z"/></g><g class="cls-9"><rect class="cls-3" x="-556.58" y="167.9" width="880" height="561.45" rx="10.5" ry="10.5"/><path class="cls-4" d="M312.92,169.4a9,9,0,0,1,9,9V718.85a9,9,0,0,1-9,9h-859a9,9,0,0,1-9-9V178.4a9,9,0,0,1,9-9h859m0-3h-859a12,12,0,0,0-12,12V718.85a12,12,0,0,0,12,12h859a12,12,0,0,0,12-12V178.4a12,12,0,0,0-12-12Z"/></g><g class="cls-10"><rect class="cls-3" x="-378.58" y="159.9" width="880" height="561.45" rx="10.5" ry="10.5"/><path class="cls-4" d="M490.92,161.4a9,9,0,0,1,9,9V710.85a9,9,0,0,1-9,9h-859a9,9,0,0,1-9-9V170.4a9,9,0,0,1,9-9h859m0-3h-859a12,12,0,0,0-12,12V710.85a12,12,0,0,0,12,12h859a12,12,0,0,0,12-12V170.4a12,12,0,0,0-12-12Z"/></g><g class="cls-11"><rect class="cls-3" x="-381.25" y="-61.17" width="880" height="561.45" rx="10.5" ry="10.5"/><path class="cls-4" d="M488.25-59.67a9,9,0,0,1,9,9V489.78a9,9,0,0,1-9,9h-859a9,9,0,0,1-9-9V-50.67a9,9,0,0,1,9-9h859m0-3h-859a12,12,0,0,0-12,12V489.78a12,12,0,0,0,12,12h859a12,12,0,0,0,12-12V-50.67a12,12,0,0,0-12-12Z"/><path class="cls-5" d="M179.75,311.28c-43.38,0-85.54-8-118.71-22.64C30.65,275.26,12.51,258,12.51,242.56c0-45.91,18.83-101.35,49.15-144.7C77.37,75.4,95.78,56.79,114.9,44,136,30,157.83,22.83,179.75,22.83S223.49,30,244.6,44c19.12,12.75,37.53,31.36,53.24,53.82C328.16,141.21,347,196.65,347,242.56c0,25.77-26.36,41.56-48.47,50.27C268.34,304.73,226.16,311.28,179.75,311.28Z"/><path class="cls-6" d="M179.75,24.33c21.62,0,43.16,7.05,64,21,19,12.65,37.24,31.13,52.84,53.44,30.15,43.11,48.88,98.23,48.88,143.84,0,24.92-25.84,40.34-47.52,48.88-30,11.82-72,18.34-118.22,18.34C87.94,309.78,14,273,14,242.56,14,197,32.74,141.83,62.89,98.72c15.6-22.31,33.88-40.79,52.84-53.44,20.86-13.9,42.4-21,64-21m0-3C86.56,21.33,11,149.37,11,242.56c0,32.91,75.55,70.22,168.74,70.22s168.74-26.06,168.74-70.22c0-93.19-75.55-221.23-168.74-221.23Z"/></g><g class="cls-12"><rect class="cls-3" x="22.24" y="-61.17" width="880" height="561.45" rx="10.5" ry="10.5"/><path class="cls-4" d="M891.74-59.67a9,9,0,0,1,9,9V489.78a9,9,0,0,1-9,9h-859a9,9,0,0,1-9-9V-50.67a9,9,0,0,1,9-9h859m0-3h-859a12,12,0,0,0-12,12V489.78a12,12,0,0,0,12,12h859a12,12,0,0,0,12-12V-50.67a12,12,0,0,0-12-12Z"/><path class="cls-5" d="M341.24,311.28c-46.41,0-88.59-6.55-118.77-18.45-22.11-8.71-48.47-24.5-48.47-50.27,0-45.91,18.83-101.35,49.15-144.7C238.86,75.4,257.27,56.79,276.39,44,297.5,30,319.32,22.83,341.24,22.83S385,30,406.09,44c19.12,12.75,37.53,31.36,53.24,53.82,30.32,43.35,49.15,98.79,49.15,144.7,0,15.48-18.14,32.7-48.53,46.08C426.78,303.24,384.62,311.28,341.24,311.28Z"/><path class="cls-6" d="M341.24,24.33c21.62,0,43.16,7.05,64,21,19,12.65,37.23,31.13,52.84,53.44C488.25,141.83,507,197,507,242.56c0,30.45-73.93,67.22-165.74,67.22C295,309.78,253,303.26,223,291.44c-21.68-8.54-47.52-24-47.52-48.88,0-45.61,18.73-100.73,48.88-143.84,15.6-22.31,33.87-40.79,52.84-53.44,20.86-13.9,42.4-21,64-21m0-3c-93.2,0-168.74,128-168.74,221.23,0,44.16,75.54,70.22,168.74,70.22S510,275.47,510,242.56c0-93.19-75.55-221.23-168.74-221.23Z"/></g><g class="cls-13"><rect class="cls-3" x="22.24" y="-272.98" width="880" height="561.45" rx="10.5" ry="10.5"/><path class="cls-4" d="M891.74-271.48a9,9,0,0,1,9,9V278a9,9,0,0,1-9,9h-859a9,9,0,0,1-9-9V-262.48a9,9,0,0,1,9-9h859m0-3h-859a12,12,0,0,0-12,12V278a12,12,0,0,0,12,12h859a12,12,0,0,0,12-12V-262.48a12,12,0,0,0-12-12Z"/></g><g class="cls-14"><rect class="cls-3" x="22.24" y="167.9" width="880" height="561.45" rx="10.5" ry="10.5"/><path class="cls-4" d="M891.74,169.4a9,9,0,0,1,9,9V718.85a9,9,0,0,1-9,9h-859a9,9,0,0,1-9-9V178.4a9,9,0,0,1,9-9h859m0-3h-859a12,12,0,0,0-12,12V718.85a12,12,0,0,0,12,12h859a12,12,0,0,0,12-12V178.4a12,12,0,0,0-12-12Z"/></g></g></svg>