<svg xmlns="http://www.w3.org/2000/svg" xmlns:xlink="http://www.w3.org/1999/xlink" viewBox="0 0 399.01 339"><defs><style>.cls-1{fill:none;}.cls-2{clip-path:url(#clip-path);}.cls-3{fill:#a9c8ff;}.cls-4{fill:#202f77;}.cls-5{fill:#f7c87c;}.cls-6{fill:#7a4f20;}.cls-7{clip-path:url(#clip-path-2);}.cls-8{clip-path:url(#clip-path-3);}</style><clipPath id="clip-path"><rect class="cls-1" width="399.01" height="339" transform="translate(399.01 339) rotate(180)"/></clipPath><clipPath id="clip-path-2"><rect class="cls-1" y="-352.81" width="399.01" height="339" transform="translate(399.01 -366.62) rotate(180)"/></clipPath><clipPath id="clip-path-3"><rect class="cls-1" y="359.44" width="399.01" height="390.18" transform="translate(399.01 1109.07) rotate(180)"/></clipPath></defs><title>Medio derecha</title><g id="Layer_1" data-name="Layer 1"><g class="cls-2"><rect class="cls-3" x="-487.74" y="-61.17" width="880" height="561.45" rx="10.5" ry="10.5"/><path class="cls-4" d="M381.76-59.67a9,9,0,0,1,9,9V489.78a9,9,0,0,1-9,9h-859a9,9,0,0,1-9-9V-50.67a9,9,0,0,1,9-9h859m0-3h-859a12,12,0,0,0-12,12V489.78a12,12,0,0,0,12,12h859a12,12,0,0,0,12-12V-50.67a12,12,0,0,0-12-12Z"/><path class="cls-5" d="M194.26,311.28c-46.41,0-88.59-6.55-118.77-18.45C53.38,284.12,27,268.33,27,242.56c0-45.91,18.83-101.35,49.15-144.7C91.88,75.4,110.29,56.79,129.41,44,150.52,30,172.34,22.83,194.26,22.83S238,30,259.11,44c19.12,12.75,37.53,31.36,53.24,53.82,30.32,43.35,49.15,98.79,49.15,144.7,0,15.48-18.14,32.7-48.53,46.08C279.8,303.24,237.64,311.28,194.26,311.28Z"/><path class="cls-6" d="M194.26,24.33c21.62,0,43.16,7.05,64,21,19,12.65,37.23,31.13,52.84,53.44C341.27,141.83,360,197,360,242.56c0,30.45-73.93,67.22-165.74,67.22-46.23,0-88.21-6.52-118.22-18.34-21.68-8.54-47.52-24-47.52-48.88C28.52,197,47.25,141.83,77.4,98.72,93,76.41,111.27,57.93,130.24,45.28c20.86-13.9,42.4-21,64-21m0-3c-93.2,0-168.74,128-168.74,221.23,0,44.16,75.54,70.22,168.74,70.22S363,275.47,363,242.56c0-93.19-75.55-221.23-168.74-221.23Z"/><path class="cls-6" d="M-168.74,24.33c21.62,0,43.16,7.05,64,21,19,12.65,37.24,31.13,52.84,53.44C-21.73,141.83-3,197-3,242.56c0,30.45-73.93,67.22-165.74,67.22-46.23,0-88.21-6.52-118.22-18.34-21.68-8.54-47.52-24-47.52-48.88,0-45.61,18.73-100.73,48.88-143.84,15.6-22.31,33.87-40.79,52.84-53.44,20.86-13.9,42.4-21,64-21m0-3c-93.19,0-168.74,128-168.74,221.23,0,44.16,75.55,70.22,168.74,70.22S0,275.47,0,242.56C0,149.37-75.55,21.33-168.74,21.33Z"/></g><g class="cls-7"><rect class="cls-3" x="-487.74" y="-272.98" width="880" height="561.45" rx="10.5" ry="10.5"/><path class="cls-4" d="M381.76-271.48a9,9,0,0,1,9,9V278a9,9,0,0,1-9,9h-859a9,9,0,0,1-9-9V-262.48a9,9,0,0,1,9-9h859m0-3h-859a12,12,0,0,0-12,12V278a12,12,0,0,0,12,12h859a12,12,0,0,0,12-12V-262.48a12,12,0,0,0-12-12Z"/></g><g class="cls-8"><rect class="cls-3" x="-487.74" y="167.9" width="880" height="561.45" rx="10.5" ry="10.5"/><path class="cls-4" d="M381.76,169.4a9,9,0,0,1,9,9V718.85a9,9,0,0,1-9,9h-859a9,9,0,0,1-9-9V178.4a9,9,0,0,1,9-9h859m0-3h-859a12,12,0,0,0-12,12V718.85a12,12,0,0,0,12,12h859a12,12,0,0,0,12-12V178.4a12,12,0,0,0-12-12Z"/></g></g></svg>