<svg xmlns="http://www.w3.org/2000/svg" xmlns:xlink="http://www.w3.org/1999/xlink" viewBox="0 0 1428.5 438"><defs><style>.cls-1{fill:#62abbc;}.cls-2{fill:#3d838e;opacity:0.51;}.cls-3{fill:url(#linear-gradient);}.cls-4{fill:url(#linear-gradient-2);}.cls-5{fill:url(#linear-gradient-3);}.cls-6{fill:url(#linear-gradient-4);}.cls-7{fill:url(#linear-gradient-5);}.cls-8{fill:url(#linear-gradient-6);}.cls-9{fill:url(#linear-gradient-7);}.cls-10{fill:url(#linear-gradient-8);}.cls-11{fill:url(#linear-gradient-9);}.cls-12{fill:url(#linear-gradient-10);}.cls-13{fill:url(#linear-gradient-11);}.cls-14{fill:url(#linear-gradient-12);}.cls-15{fill:#f05023;}</style><linearGradient id="linear-gradient" x1="222.29" y1="95.69" x2="323.13" y2="95.69" gradientUnits="userSpaceOnUse"><stop offset="0" stop-color="#fbb040"/><stop offset="0.39" stop-color="#f9ae41"/><stop offset="0.59" stop-color="#f1a845"/><stop offset="0.74" stop-color="#e49e4b"/><stop offset="0.87" stop-color="#d18f55"/><stop offset="0.99" stop-color="#b97c60"/><stop offset="1" stop-color="#b67a62"/></linearGradient><linearGradient id="linear-gradient-2" x1="306.8" y1="140.65" x2="407.64" y2="140.65" xlink:href="#linear-gradient"/><linearGradient id="linear-gradient-3" x1="391.16" y1="185.42" x2="492" y2="185.42" xlink:href="#linear-gradient"/><linearGradient id="linear-gradient-4" x1="122.24" y1="140.51" x2="223.08" y2="140.51" xlink:href="#linear-gradient"/><linearGradient id="linear-gradient-5" x1="206.75" y1="185.47" x2="307.59" y2="185.47" xlink:href="#linear-gradient"/><linearGradient id="linear-gradient-6" x1="22.3" y1="185.24" x2="123.14" y2="185.24" xlink:href="#linear-gradient"/><linearGradient id="linear-gradient-7" x1="106.81" y1="230.2" x2="207.65" y2="230.2" xlink:href="#linear-gradient"/><linearGradient id="linear-gradient-8" x1="291.12" y1="230.24" x2="391.96" y2="230.24" xlink:href="#linear-gradient"/><linearGradient id="linear-gradient-9" x1="191.18" y1="274.97" x2="292.02" y2="274.97" xlink:href="#linear-gradient"/><linearGradient id="linear-gradient-10" x1="475.46" y1="229.95" x2="576.3" y2="229.95" xlink:href="#linear-gradient"/><linearGradient id="linear-gradient-11" x1="375.42" y1="274.77" x2="476.25" y2="274.77" xlink:href="#linear-gradient"/><linearGradient id="linear-gradient-12" x1="275.48" y1="319.5" x2="376.31" y2="319.5" xlink:href="#linear-gradient"/></defs><title>VT_E1</title><g id="Layer_2" data-name="Layer 2"><polygon class="cls-1" points="201.41 105.41 212.7 136.05 246.43 182.97 258.43 190.22 281.18 190.22 296.82 182.36 329.77 129.32 357.83 77.71 327.18 95.25 302.57 81.3 302 38.95 279.75 17.56 257.07 30.94 243.11 73.03 217.39 97.48 199.98 81.68 201.41 105.41"/><path class="cls-2" d="M216.7,127.55l5.59,2.81s.22-24.79,7.39-43.12L217.39,97.48l-10.14-9.27C204.69,107.9,216.7,127.55,216.7,127.55Z"/><path class="cls-3" d="M222.29,130.36l20.83,12,14.67-19.83h28.33l15.17,21.83,18.07-12.21,3.76-2.46s1.27-61.22-38.81-79.94a28.45,28.45,0,0,0-23.51-.36C221.45,66.76,222.29,130.36,222.29,130.36Z"/><polygon class="cls-1" points="257.79 122.53 271.9 114.06 286.12 122.53 257.79 122.53"/><polygon class="cls-2" points="258.51 190.22 243.76 147.47 259.28 126.2 271.9 118.29 284.28 126.2 300.61 148.78 329.86 129.32 296.91 182.36 281.26 190.22 258.51 190.22"/><path class="cls-2" d="M317.43,92.19A116.31,116.31,0,0,1,322.21,115L327,97.17Z"/><polygon class="cls-1" points="285.92 150.36 297.21 181 330.93 227.92 342.93 235.17 365.68 235.17 381.33 227.32 414.28 174.27 442.34 122.66 411.68 140.21 387.08 126.26 386.51 83.91 364.26 62.52 341.58 75.89 327.62 117.98 301.9 142.43 284.49 126.64 285.92 150.36"/><path class="cls-2" d="M301.21,172.5l5.59,2.81s.22-24.79,7.39-43.12L301.9,142.43l-10.15-9.27C289.2,152.85,301.21,172.5,301.21,172.5Z"/><path class="cls-4" d="M306.8,175.31l20.83,12,14.67-19.83h28.33l15.17,21.83,18.07-12.2,3.76-2.46s1.27-61.23-38.81-79.95a28.53,28.53,0,0,0-23.51-.36C306,111.71,306.8,175.31,306.8,175.31Z"/><polygon class="cls-1" points="342.3 167.48 356.41 159.01 370.63 167.48 342.3 167.48"/><polygon class="cls-2" points="343.02 235.17 328.27 192.42 343.79 171.15 356.41 163.25 368.79 171.15 385.12 193.73 414.37 174.27 381.42 227.32 365.77 235.17 343.02 235.17"/><path class="cls-2" d="M401.94,137.14A116.31,116.31,0,0,1,406.72,160l4.76-17.87Z"/><polygon class="cls-1" points="370.29 195.13 381.58 225.78 415.3 272.7 427.3 279.95 450.05 279.95 465.7 272.09 498.65 219.05 526.71 167.44 496.05 184.98 471.44 171.03 470.87 128.68 448.62 107.29 425.94 120.67 411.98 162.76 386.27 187.21 368.86 171.41 370.29 195.13"/><path class="cls-2" d="M385.57,217.28l5.59,2.81s.23-24.79,7.4-43.12l-12.29,10.24-10.15-9.27C373.56,197.63,385.57,217.28,385.57,217.28Z"/><path class="cls-5" d="M391.16,220.09l20.84,12,14.66-19.83H455l15.16,21.83,18.07-12.21,3.77-2.46s1.26-61.22-38.82-79.94a28.43,28.43,0,0,0-23.5-.36C390.33,156.49,391.16,220.09,391.16,220.09Z"/><polygon class="cls-1" points="426.66 212.26 440.78 203.79 455 212.26 426.66 212.26"/><polygon class="cls-2" points="427.38 279.95 412.63 237.2 428.15 215.93 440.78 208.02 453.15 215.93 469.48 238.51 498.73 219.05 465.78 272.09 450.13 279.95 427.38 279.95"/><path class="cls-2" d="M486.31,181.92a116.82,116.82,0,0,1,4.77,22.85l4.77-17.87Z"/><polygon class="cls-1" points="101.37 150.22 112.66 180.87 146.38 227.79 158.38 235.04 181.13 235.04 196.78 227.18 229.73 174.14 257.79 122.53 227.13 140.07 202.52 126.12 201.95 83.77 179.7 62.38 157.02 75.76 143.06 117.85 117.35 142.3 99.94 126.5 101.37 150.22"/><path class="cls-2" d="M116.65,172.37l5.59,2.81s.23-24.79,7.4-43.12L117.35,142.3,107.2,133C104.65,152.72,116.65,172.37,116.65,172.37Z"/><path class="cls-6" d="M122.24,175.18l20.84,12,14.66-19.83h28.34l15.16,21.83L219.31,177l3.77-2.46s1.26-61.22-38.82-79.94a28.43,28.43,0,0,0-23.5-.36C121.41,111.58,122.24,175.18,122.24,175.18Z"/><polygon class="cls-1" points="157.75 167.35 171.86 158.88 186.08 167.35 157.75 167.35"/><polygon class="cls-2" points="158.46 235.04 143.71 192.29 159.23 171.02 171.86 163.11 184.23 171.02 200.56 193.6 229.81 174.14 196.86 227.18 181.21 235.04 158.46 235.04"/><path class="cls-2" d="M217.39,137a116.82,116.82,0,0,1,4.77,22.85L226.93,142Z"/><polygon class="cls-1" points="185.88 195.18 197.16 225.82 230.89 272.74 242.89 279.99 265.64 279.99 281.29 272.14 314.24 219.09 342.3 167.48 311.64 185.03 287.03 171.08 286.46 128.72 264.21 107.34 241.53 120.71 227.57 162.8 201.86 187.25 184.45 171.46 185.88 195.18"/><path class="cls-2" d="M201.16,217.32l5.59,2.81s.23-24.79,7.4-43.12l-12.29,10.24L191.71,178C189.15,197.67,201.16,217.32,201.16,217.32Z"/><path class="cls-7" d="M206.75,220.13l20.84,12,14.66-19.83h28.34l15.16,21.83,18.07-12.2,3.77-2.46s1.26-61.23-38.82-79.95a28.5,28.5,0,0,0-23.5-.36C205.91,156.53,206.75,220.13,206.75,220.13Z"/><polygon class="cls-1" points="242.25 212.3 256.37 203.83 270.59 212.3 242.25 212.3"/><polygon class="cls-2" points="242.97 279.99 228.22 237.24 243.74 215.97 256.37 208.07 268.74 215.97 285.07 238.55 314.32 219.09 281.37 272.14 265.72 279.99 242.97 279.99"/><path class="cls-2" d="M301.9,182a116.82,116.82,0,0,1,4.77,22.85l4.77-17.87Z"/><polygon class="cls-1" points="1.43 194.96 12.72 225.6 46.44 272.52 58.44 279.77 81.19 279.77 96.84 271.91 129.79 218.87 157.85 167.26 127.19 184.8 102.58 170.85 102.01 128.5 79.76 107.11 57.08 120.49 43.12 162.58 17.41 187.03 0 171.24 1.43 194.96"/><path class="cls-2" d="M16.71,217.1l5.59,2.81s.23-24.79,7.4-43.12L17.41,187,7.26,177.76C4.71,197.45,16.71,217.1,16.71,217.1Z"/><path class="cls-8" d="M22.3,219.91l20.84,12L57.8,212.08H86.14l15.16,21.83,18.07-12.21,3.77-2.46S124.4,158,84.32,139.3a28.43,28.43,0,0,0-23.5-.36C21.47,156.31,22.3,219.91,22.3,219.91Z"/><polygon class="cls-1" points="57.8 212.08 71.92 203.61 86.14 212.08 57.8 212.08"/><polygon class="cls-2" points="58.52 279.77 43.77 237.02 59.29 215.75 71.92 207.84 84.29 215.75 100.62 238.33 129.87 218.87 96.92 271.91 81.27 279.77 58.52 279.77"/><path class="cls-2" d="M117.45,181.74a116.82,116.82,0,0,1,4.77,22.85L127,186.72Z"/><polygon class="cls-1" points="85.94 239.91 97.22 270.55 130.95 317.47 142.95 324.72 165.7 324.72 181.35 316.87 214.3 263.82 242.36 212.21 211.7 229.76 187.09 215.81 186.52 173.46 164.27 152.07 141.59 165.44 127.63 207.53 101.92 231.98 84.51 216.19 85.94 239.91"/><path class="cls-2" d="M101.22,262.06l5.59,2.8s.23-24.79,7.4-43.12L101.92,232l-10.15-9.27C89.21,242.41,101.22,262.06,101.22,262.06Z"/><path class="cls-9" d="M106.81,264.86l20.84,12L142.31,257h28.34l15.16,21.83,18.07-12.2,3.77-2.46s1.26-61.23-38.82-79.95a28.47,28.47,0,0,0-23.5-.35C106,201.26,106.81,264.86,106.81,264.86Z"/><polygon class="cls-1" points="142.31 257.03 156.43 248.56 170.65 257.03 142.31 257.03"/><polygon class="cls-2" points="143.03 324.72 128.28 281.97 143.8 260.7 156.43 252.8 168.8 260.7 185.13 283.28 214.38 263.82 181.43 316.87 165.78 324.72 143.03 324.72"/><path class="cls-2" d="M202,226.69a116.82,116.82,0,0,1,4.77,22.85l4.77-17.86Z"/><polygon class="cls-1" points="270.24 239.96 281.53 270.6 315.25 317.52 327.25 324.77 350 324.77 365.65 316.91 398.6 263.87 426.66 212.26 396 229.8 371.4 215.85 370.83 173.5 348.58 152.11 325.9 165.49 311.94 207.57 286.23 232.03 268.81 216.23 270.24 239.96"/><path class="cls-2" d="M285.53,262.1l5.59,2.81s.23-24.79,7.39-43.13L286.22,232l-10.14-9.27C273.52,242.45,285.53,262.1,285.53,262.1Z"/><path class="cls-10" d="M291.12,264.91l20.83,12,14.67-19.83H355l15.17,21.83,18.07-12.21,3.76-2.46s1.27-61.22-38.81-79.94a28.45,28.45,0,0,0-23.51-.36C290.28,201.31,291.12,264.91,291.12,264.91Z"/><polygon class="cls-1" points="326.62 257.07 340.73 248.61 354.95 257.07 326.62 257.07"/><polygon class="cls-2" points="327.34 324.77 312.59 282.02 328.11 260.75 340.73 252.84 353.11 260.75 369.44 283.33 398.69 263.87 365.74 316.91 350.09 324.77 327.34 324.77"/><path class="cls-2" d="M386.26,226.74A116.31,116.31,0,0,1,391,249.59l4.76-17.87Z"/><polygon class="cls-1" points="170.3 284.69 181.59 315.33 215.32 362.25 227.32 369.5 250.06 369.5 265.71 361.64 298.66 308.6 326.73 256.99 296.07 274.53 271.46 260.58 270.89 218.23 248.64 196.84 225.96 210.22 212 252.31 186.28 276.76 168.88 260.96 170.3 284.69"/><path class="cls-2" d="M185.59,306.83l5.59,2.81s.23-24.79,7.39-43.12l-12.29,10.24-10.14-9.27C173.58,287.18,185.59,306.83,185.59,306.83Z"/><path class="cls-11" d="M191.18,309.64l20.83,12,14.67-19.83H255l15.17,21.83,18.07-12.21L292,309s1.27-61.22-38.81-79.94a28.45,28.45,0,0,0-23.51-.36C190.34,246,191.18,309.64,191.18,309.64Z"/><polygon class="cls-1" points="226.68 301.81 240.79 293.34 255.01 301.81 226.68 301.81"/><polygon class="cls-2" points="227.4 369.5 212.65 326.75 228.17 305.48 240.79 297.57 253.17 305.48 269.5 328.06 298.75 308.6 265.8 361.64 250.15 369.5 227.4 369.5"/><path class="cls-2" d="M286.32,271.47a116.31,116.31,0,0,1,4.78,22.85l4.76-17.87Z"/><polygon class="cls-1" points="454.58 239.66 465.87 270.31 499.6 317.23 511.6 324.48 534.35 324.48 550 316.62 582.95 263.58 611.01 211.96 580.35 229.51 555.74 215.56 555.17 173.21 532.92 151.82 510.24 165.19 496.28 207.28 470.57 231.74 453.16 215.94 454.58 239.66"/><path class="cls-2" d="M469.87,261.81l5.59,2.81s.23-24.79,7.39-43.13l-12.28,10.24-10.15-9.26C457.86,242.16,469.87,261.81,469.87,261.81Z"/><path class="cls-12" d="M475.46,264.62l20.83,12L511,256.78h28.33l15.17,21.84,18.07-12.21,3.76-2.46s1.27-61.22-38.81-79.94a28.45,28.45,0,0,0-23.51-.36C474.62,201,475.46,264.62,475.46,264.62Z"/><polygon class="cls-1" points="510.96 256.78 525.07 248.32 539.29 256.78 510.96 256.78"/><polygon class="cls-2" points="511.68 324.48 496.93 281.73 512.45 260.46 525.07 252.55 537.45 260.46 553.78 283.04 583.03 263.58 550.08 316.62 534.43 324.48 511.68 324.48"/><path class="cls-2" d="M570.6,226.44a116.54,116.54,0,0,1,4.78,22.85l4.76-17.86Z"/><polygon class="cls-1" points="354.54 284.48 365.83 315.13 399.55 362.05 411.55 369.3 434.3 369.3 449.95 361.44 482.9 308.4 510.96 256.78 480.3 274.33 455.69 260.38 455.13 218.03 432.88 196.64 410.19 210.01 396.23 252.1 370.52 276.55 353.11 260.76 354.54 284.48"/><path class="cls-2" d="M369.83,306.63l5.59,2.81s.22-24.79,7.39-43.13l-12.29,10.24-10.15-9.26C357.82,287,369.83,306.63,369.83,306.63Z"/><path class="cls-13" d="M375.42,309.44l20.83,12,14.67-19.84h28.33l15.17,21.84,18.06-12.21,3.77-2.46s1.27-61.22-38.82-79.94a28.43,28.43,0,0,0-23.5-.36C374.58,245.83,375.42,309.44,375.42,309.44Z"/><polygon class="cls-1" points="410.92 301.6 425.03 293.14 439.25 301.6 410.92 301.6"/><polygon class="cls-2" points="411.63 369.3 396.88 326.55 412.4 305.28 425.03 297.37 437.4 305.28 453.73 327.86 482.98 308.4 450.03 361.44 434.38 369.3 411.63 369.3"/><path class="cls-2" d="M470.56,271.26a117,117,0,0,1,4.77,22.85l4.77-17.86Z"/><polygon class="cls-1" points="254.6 329.21 265.89 359.86 299.61 406.78 311.61 414.03 334.36 414.03 350.01 406.17 382.96 353.13 411.02 301.52 380.36 319.06 355.75 305.11 355.19 262.76 332.94 241.37 310.25 254.75 296.29 296.83 270.58 321.29 253.17 305.49 254.6 329.21"/><path class="cls-2" d="M269.89,351.36l5.59,2.81s.22-24.79,7.39-43.13l-12.29,10.25L260.43,312C257.88,331.71,269.89,351.36,269.89,351.36Z"/><path class="cls-14" d="M275.48,354.17l20.83,12L311,346.34h28.33l15.17,21.83L372.54,356l3.77-2.46s1.27-61.22-38.82-79.94a28.43,28.43,0,0,0-23.5-.36C274.64,290.57,275.48,354.17,275.48,354.17Z"/><polygon class="cls-1" points="310.98 346.33 325.09 337.87 339.31 346.33 310.98 346.33"/><polygon class="cls-2" points="311.7 414.03 296.94 371.28 312.46 350.01 325.09 342.1 337.46 350.01 353.79 372.59 383.04 353.13 350.09 406.17 334.44 414.03 311.7 414.03"/><path class="cls-2" d="M370.62,316a116.82,116.82,0,0,1,4.77,22.85L380.16,321Z"/><path class="cls-15" d="M1416.5,5a7,7,0,0,1,7,7V426a7,7,0,0,1-7,7H739a7,7,0,0,1-7-7V12a7,7,0,0,1,7-7H1416.5m0-5H739a12,12,0,0,0-12,12V426a12,12,0,0,0,12,12H1416.5a12,12,0,0,0,12-12V12a12,12,0,0,0-12-12Z"/><rect class="cls-15" x="644.27" y="195.55" width="34" height="4.84" rx="2.42" ry="2.42"/><rect class="cls-15" x="644.27" y="205.71" width="34" height="4.84" rx="2.42" ry="2.42"/></g></svg>