<svg xmlns="http://www.w3.org/2000/svg" xmlns:xlink="http://www.w3.org/1999/xlink" viewBox="0 0 1749.52 396.46"><defs><style>.cls-1{fill:#62abbc;}.cls-2{fill:#3d838e;opacity:0.51;}.cls-3{fill:url(#linear-gradient);}.cls-4{fill:url(#linear-gradient-2);}.cls-5{fill:url(#linear-gradient-3);}.cls-6{fill:url(#linear-gradient-4);}.cls-7{fill:url(#linear-gradient-5);}.cls-8{fill:url(#linear-gradient-6);}.cls-9{fill:url(#linear-gradient-7);}.cls-10{fill:url(#linear-gradient-8);}.cls-11{fill:url(#linear-gradient-9);}.cls-12{fill:url(#linear-gradient-10);}.cls-13{fill:url(#linear-gradient-11);}.cls-14{fill:url(#linear-gradient-12);}.cls-15{fill:url(#linear-gradient-13);}.cls-16{fill:url(#linear-gradient-14);}.cls-17{fill:url(#linear-gradient-15);}.cls-18{fill:url(#linear-gradient-16);}.cls-19{fill:url(#linear-gradient-17);}.cls-20{fill:url(#linear-gradient-18);}.cls-21{fill:url(#linear-gradient-19);}.cls-22{fill:url(#linear-gradient-20);}.cls-23{fill:url(#linear-gradient-21);}.cls-24{fill:url(#linear-gradient-22);}.cls-25{fill:url(#linear-gradient-23);}.cls-26{fill:url(#linear-gradient-24);}.cls-27{fill:#f05023;}</style><linearGradient id="linear-gradient" x1="222.29" y1="78.13" x2="323.13" y2="78.13" gradientUnits="userSpaceOnUse"><stop offset="0" stop-color="#fbb040"/><stop offset="0.39" stop-color="#f9ae41"/><stop offset="0.59" stop-color="#f1a845"/><stop offset="0.74" stop-color="#e49e4b"/><stop offset="0.87" stop-color="#d18f55"/><stop offset="0.99" stop-color="#b97c60"/><stop offset="1" stop-color="#b67a62"/></linearGradient><linearGradient id="linear-gradient-2" x1="306.8" y1="123.08" x2="407.64" y2="123.08" xlink:href="#linear-gradient"/><linearGradient id="linear-gradient-3" x1="391.16" y1="167.86" x2="492" y2="167.86" xlink:href="#linear-gradient"/><linearGradient id="linear-gradient-4" x1="122.24" y1="122.95" x2="223.08" y2="122.95" xlink:href="#linear-gradient"/><linearGradient id="linear-gradient-5" x1="206.75" y1="167.9" x2="307.59" y2="167.9" xlink:href="#linear-gradient"/><linearGradient id="linear-gradient-6" x1="22.3" y1="167.68" x2="123.14" y2="167.68" xlink:href="#linear-gradient"/><linearGradient id="linear-gradient-7" x1="106.81" y1="212.63" x2="207.65" y2="212.63" xlink:href="#linear-gradient"/><linearGradient id="linear-gradient-8" x1="291.12" y1="212.68" x2="391.96" y2="212.68" xlink:href="#linear-gradient"/><linearGradient id="linear-gradient-9" x1="191.18" y1="257.41" x2="292.02" y2="257.41" xlink:href="#linear-gradient"/><linearGradient id="linear-gradient-10" x1="475.46" y1="212.39" x2="576.3" y2="212.39" xlink:href="#linear-gradient"/><linearGradient id="linear-gradient-11" x1="375.42" y1="257.21" x2="476.25" y2="257.21" xlink:href="#linear-gradient"/><linearGradient id="linear-gradient-12" x1="275.48" y1="301.94" x2="376.31" y2="301.94" xlink:href="#linear-gradient"/><linearGradient id="linear-gradient-13" x1="936.58" y1="100.39" x2="1037.42" y2="100.39" xlink:href="#linear-gradient"/><linearGradient id="linear-gradient-14" x1="1021.09" y1="145.35" x2="1121.93" y2="145.35" xlink:href="#linear-gradient"/><linearGradient id="linear-gradient-15" x1="1105.45" y1="190.12" x2="1206.29" y2="190.12" xlink:href="#linear-gradient"/><linearGradient id="linear-gradient-16" x1="836.53" y1="145.21" x2="937.37" y2="145.21" xlink:href="#linear-gradient"/><linearGradient id="linear-gradient-17" x1="921.04" y1="190.17" x2="1021.88" y2="190.17" xlink:href="#linear-gradient"/><linearGradient id="linear-gradient-18" x1="736.59" y1="189.94" x2="837.43" y2="189.94" xlink:href="#linear-gradient"/><linearGradient id="linear-gradient-19" x1="821.1" y1="234.9" x2="921.94" y2="234.9" xlink:href="#linear-gradient"/><linearGradient id="linear-gradient-20" x1="1005.41" y1="234.94" x2="1106.25" y2="234.94" xlink:href="#linear-gradient"/><linearGradient id="linear-gradient-21" x1="905.47" y1="279.67" x2="1006.31" y2="279.67" xlink:href="#linear-gradient"/><linearGradient id="linear-gradient-22" x1="1613.98" y1="145.29" x2="1714.82" y2="145.29" xlink:href="#linear-gradient"/><linearGradient id="linear-gradient-23" x1="1514" y1="190.05" x2="1614.84" y2="190.05" xlink:href="#linear-gradient"/><linearGradient id="linear-gradient-24" x1="1414.06" y1="234.78" x2="1514.9" y2="234.78" xlink:href="#linear-gradient"/></defs><title>VT_G1</title><g id="Layer_2" data-name="Layer 2"><polygon class="cls-1" points="201.41 87.84 212.7 118.49 246.43 165.4 258.43 172.65 281.18 172.65 296.82 164.8 329.77 111.76 357.83 60.14 327.18 77.69 302.57 63.74 302 21.39 279.75 0 257.07 13.37 243.11 55.46 217.39 79.91 199.98 64.12 201.41 87.84"/><path class="cls-2" d="M216.7,110l5.59,2.81s.22-24.79,7.39-43.13L217.39,79.91l-10.14-9.27C204.69,90.34,216.7,110,216.7,110Z"/><path class="cls-3" d="M222.29,112.8l20.83,12L257.79,105h28.33l15.17,21.84,18.07-12.21,3.76-2.46s1.27-61.22-38.81-79.94a28.45,28.45,0,0,0-23.51-.36C221.45,49.19,222.29,112.8,222.29,112.8Z"/><polygon class="cls-1" points="257.79 104.96 271.9 96.5 286.12 104.96 257.79 104.96"/><polygon class="cls-2" points="258.51 172.65 243.76 129.9 259.28 108.64 271.9 100.73 284.28 108.64 300.61 131.22 329.86 111.76 296.91 164.8 281.26 172.65 258.51 172.65"/><path class="cls-2" d="M317.43,74.62a116.31,116.31,0,0,1,4.78,22.85L327,79.61Z"/><polygon class="cls-1" points="285.92 132.79 297.21 163.44 330.93 210.36 342.93 217.61 365.68 217.61 381.33 209.75 414.28 156.71 442.34 105.1 411.68 122.64 387.08 108.69 386.51 66.34 364.26 44.95 341.58 58.33 327.62 100.42 301.9 124.87 284.49 109.07 285.92 132.79"/><path class="cls-2" d="M301.21,154.94l5.59,2.81s.22-24.79,7.39-43.12L301.9,124.87l-10.15-9.27C289.2,135.29,301.21,154.94,301.21,154.94Z"/><path class="cls-4" d="M306.8,157.75l20.83,12,14.67-19.83h28.33l15.17,21.83,18.07-12.21,3.76-2.46s1.27-61.22-38.81-79.94a28.45,28.45,0,0,0-23.51-.36C306,94.15,306.8,157.75,306.8,157.75Z"/><polygon class="cls-1" points="342.3 149.92 356.41 141.45 370.63 149.92 342.3 149.92"/><polygon class="cls-2" points="343.02 217.61 328.27 174.86 343.79 153.59 356.41 145.68 368.79 153.59 385.12 176.17 414.37 156.71 381.42 209.75 365.77 217.61 343.02 217.61"/><path class="cls-2" d="M401.94,119.58a116.31,116.31,0,0,1,4.78,22.85l4.76-17.87Z"/><polygon class="cls-1" points="370.29 177.57 381.58 208.22 415.3 255.13 427.3 262.38 450.05 262.38 465.7 254.53 498.65 201.49 526.71 149.87 496.05 167.42 471.44 153.47 470.87 111.12 448.62 89.73 425.94 103.1 411.98 145.19 386.27 169.64 368.86 153.85 370.29 177.57"/><path class="cls-2" d="M385.57,199.72l5.59,2.81s.23-24.8,7.4-43.13l-12.29,10.24-10.15-9.27C373.56,180.07,385.57,199.72,385.57,199.72Z"/><path class="cls-5" d="M391.16,202.53l20.84,12,14.66-19.84H455l15.16,21.84,18.07-12.21,3.77-2.46s1.26-61.22-38.82-79.94a28.43,28.43,0,0,0-23.5-.36C390.33,138.92,391.16,202.53,391.16,202.53Z"/><polygon class="cls-1" points="426.66 194.69 440.78 186.23 455 194.69 426.66 194.69"/><polygon class="cls-2" points="427.38 262.38 412.63 219.63 428.15 198.37 440.78 190.46 453.15 198.37 469.48 220.94 498.73 201.49 465.78 254.53 450.13 262.38 427.38 262.38"/><path class="cls-2" d="M486.31,164.35a116.82,116.82,0,0,1,4.77,22.85l4.77-17.86Z"/><polygon class="cls-1" points="101.37 132.66 112.66 163.31 146.38 210.22 158.38 217.47 181.13 217.47 196.78 209.62 229.73 156.58 257.79 104.96 227.13 122.51 202.52 108.56 201.95 66.21 179.7 44.82 157.02 58.19 143.06 100.28 117.35 124.73 99.94 108.94 101.37 132.66"/><path class="cls-2" d="M116.65,154.81l5.59,2.81s.23-24.8,7.4-43.13l-12.29,10.24-10.15-9.27C104.65,135.16,116.65,154.81,116.65,154.81Z"/><path class="cls-6" d="M122.24,157.62l20.84,12,14.66-19.84h28.34l15.16,21.84,18.07-12.21,3.77-2.46S224.34,95.73,184.26,77a28.43,28.43,0,0,0-23.5-.36C121.41,94,122.24,157.62,122.24,157.62Z"/><polygon class="cls-1" points="157.75 149.78 171.86 141.32 186.08 149.78 157.75 149.78"/><polygon class="cls-2" points="158.46 217.47 143.71 174.72 159.23 153.46 171.86 145.55 184.23 153.46 200.56 176.03 229.81 156.58 196.86 209.62 181.21 217.47 158.46 217.47"/><path class="cls-2" d="M217.39,119.44a116.82,116.82,0,0,1,4.77,22.85l4.77-17.86Z"/><polygon class="cls-1" points="185.88 177.62 197.16 208.26 230.89 255.18 242.89 262.43 265.64 262.43 281.29 254.57 314.24 201.53 342.3 149.92 311.64 167.46 287.03 153.51 286.46 111.16 264.21 89.77 241.53 103.15 227.57 145.24 201.86 169.69 184.45 153.89 185.88 177.62"/><path class="cls-2" d="M201.16,199.76l5.59,2.81s.23-24.79,7.4-43.13l-12.29,10.25-10.15-9.27C189.15,180.11,201.16,199.76,201.16,199.76Z"/><path class="cls-7" d="M206.75,202.57l20.84,12,14.66-19.83h28.34l15.16,21.83,18.07-12.21,3.77-2.46s1.26-61.22-38.82-79.94a28.43,28.43,0,0,0-23.5-.36C205.91,139,206.75,202.57,206.75,202.57Z"/><polygon class="cls-1" points="242.25 194.74 256.37 186.27 270.59 194.74 242.25 194.74"/><polygon class="cls-2" points="242.97 262.43 228.22 219.68 243.74 198.41 256.37 190.5 268.74 198.41 285.07 220.99 314.32 201.53 281.37 254.57 265.72 262.43 242.97 262.43"/><path class="cls-2" d="M301.9,164.4a116.82,116.82,0,0,1,4.77,22.85l4.77-17.87Z"/><polygon class="cls-1" points="1.43 177.39 12.72 208.04 46.44 254.96 58.44 262.21 81.19 262.21 96.84 254.35 129.79 201.31 157.85 149.69 127.19 167.24 102.58 153.29 102.01 110.94 79.76 89.55 57.08 102.92 43.12 145.01 17.41 169.46 0 153.67 1.43 177.39"/><path class="cls-2" d="M16.71,199.54l5.59,2.81s.23-24.79,7.4-43.13L17.41,169.46,7.26,160.2C4.71,179.89,16.71,199.54,16.71,199.54Z"/><path class="cls-8" d="M22.3,202.35l20.84,12L57.8,194.51H86.14l15.16,21.84,18.07-12.21,3.77-2.46s1.26-61.22-38.82-79.94a28.43,28.43,0,0,0-23.5-.36C21.47,138.74,22.3,202.35,22.3,202.35Z"/><polygon class="cls-1" points="57.8 194.51 71.92 186.05 86.14 194.51 57.8 194.51"/><polygon class="cls-2" points="58.52 262.21 43.77 219.46 59.29 198.19 71.92 190.28 84.29 198.19 100.62 220.77 129.87 201.31 96.92 254.35 81.27 262.21 58.52 262.21"/><path class="cls-2" d="M117.45,164.17A116.82,116.82,0,0,1,122.22,187L127,169.16Z"/><polygon class="cls-1" points="85.94 222.35 97.22 252.99 130.95 299.91 142.95 307.16 165.7 307.16 181.35 299.3 214.3 246.26 242.36 194.65 211.7 212.19 187.09 198.24 186.52 155.89 164.27 134.5 141.59 147.88 127.63 189.97 101.92 214.42 84.51 198.63 85.94 222.35"/><path class="cls-2" d="M101.22,244.49l5.59,2.81s.23-24.79,7.4-43.12l-12.29,10.24-10.15-9.27C89.21,224.84,101.22,244.49,101.22,244.49Z"/><path class="cls-9" d="M106.81,247.3l20.84,12,14.66-19.83h28.34l15.16,21.83,18.07-12.21,3.77-2.46s1.26-61.22-38.82-79.94a28.43,28.43,0,0,0-23.5-.36C106,183.7,106.81,247.3,106.81,247.3Z"/><polygon class="cls-1" points="142.31 239.47 156.43 231 170.65 239.47 142.31 239.47"/><polygon class="cls-2" points="143.03 307.16 128.28 264.41 143.8 243.14 156.43 235.23 168.8 243.14 185.13 265.72 214.38 246.26 181.43 299.3 165.78 307.16 143.03 307.16"/><path class="cls-2" d="M202,209.13A116.82,116.82,0,0,1,206.73,232l4.77-17.87Z"/><polygon class="cls-1" points="270.24 222.39 281.53 253.03 315.25 299.95 327.25 307.2 350 307.2 365.65 299.35 398.6 246.31 426.66 194.69 396 212.24 371.4 198.29 370.83 155.94 348.58 134.55 325.9 147.92 311.94 190.01 286.23 214.46 268.81 198.67 270.24 222.39"/><path class="cls-2" d="M285.53,244.54l5.59,2.8s.23-24.79,7.39-43.12l-12.29,10.24-10.14-9.27C273.52,224.89,285.53,244.54,285.53,244.54Z"/><path class="cls-10" d="M291.12,247.34l20.83,12,14.67-19.83H355l15.17,21.83,18.07-12.2,3.76-2.46s1.27-61.22-38.81-79.94a28.45,28.45,0,0,0-23.51-.36C290.28,183.74,291.12,247.34,291.12,247.34Z"/><polygon class="cls-1" points="326.62 239.51 340.73 231.05 354.95 239.51 326.62 239.51"/><polygon class="cls-2" points="327.34 307.2 312.59 264.45 328.11 243.19 340.73 235.28 353.11 243.19 369.44 265.76 398.69 246.31 365.74 299.35 350.09 307.2 327.34 307.2"/><path class="cls-2" d="M386.26,209.17A116.31,116.31,0,0,1,391,232l4.76-17.86Z"/><polygon class="cls-1" points="170.3 267.12 181.59 297.77 215.32 344.69 227.32 351.94 250.06 351.94 265.71 344.08 298.66 291.04 326.73 239.42 296.07 256.97 271.46 243.02 270.89 200.67 248.64 179.28 225.96 192.65 212 234.74 186.28 259.19 168.88 243.4 170.3 267.12"/><path class="cls-2" d="M185.59,289.27l5.59,2.81s.23-24.79,7.39-43.13l-12.29,10.24-10.14-9.26C173.58,269.62,185.59,289.27,185.59,289.27Z"/><path class="cls-11" d="M191.18,292.08l20.83,12,14.67-19.84H255l15.17,21.84,18.07-12.21,3.76-2.46s1.27-61.22-38.81-79.94a28.45,28.45,0,0,0-23.51-.36C190.34,228.47,191.18,292.08,191.18,292.08Z"/><polygon class="cls-1" points="226.68 284.24 240.79 275.78 255.01 284.24 226.68 284.24"/><polygon class="cls-2" points="227.4 351.94 212.65 309.19 228.17 287.92 240.79 280.01 253.17 287.92 269.5 310.5 298.75 291.04 265.8 344.08 250.15 351.94 227.4 351.94"/><path class="cls-2" d="M286.32,253.9a116.31,116.31,0,0,1,4.78,22.85l4.76-17.86Z"/><polygon class="cls-1" points="454.58 222.1 465.87 252.74 499.6 299.66 511.6 306.91 534.35 306.91 550 299.06 582.95 246.01 611.01 194.4 580.35 211.95 555.74 198 555.17 155.65 532.92 134.26 510.24 147.63 496.28 189.72 470.57 214.17 453.16 198.38 454.58 222.1"/><path class="cls-2" d="M469.87,244.25l5.59,2.8s.23-24.79,7.39-43.12l-12.28,10.24-10.15-9.27C457.86,224.6,469.87,244.25,469.87,244.25Z"/><path class="cls-12" d="M475.46,247.05l20.83,12L511,239.22h28.33l15.17,21.83,18.07-12.2,3.76-2.46s1.27-61.23-38.81-79.95a28.49,28.49,0,0,0-23.51-.35C474.62,183.45,475.46,247.05,475.46,247.05Z"/><polygon class="cls-1" points="510.96 239.22 525.07 230.75 539.29 239.22 510.96 239.22"/><polygon class="cls-2" points="511.68 306.91 496.93 264.16 512.45 242.89 525.07 234.99 537.45 242.89 553.78 265.47 583.03 246.01 550.08 299.06 534.43 306.91 511.68 306.91"/><path class="cls-2" d="M570.6,208.88a116.31,116.31,0,0,1,4.78,22.85l4.76-17.86Z"/><polygon class="cls-1" points="354.54 266.92 365.83 297.56 399.55 344.48 411.55 351.73 434.3 351.73 449.95 343.88 482.9 290.83 510.96 239.22 480.3 256.77 455.69 242.82 455.13 200.47 432.88 179.08 410.19 192.45 396.23 234.54 370.52 258.99 353.11 243.2 354.54 266.92"/><path class="cls-2" d="M369.83,289.07l5.59,2.8s.22-24.79,7.39-43.12L370.52,259l-10.15-9.27C357.82,269.42,369.83,289.07,369.83,289.07Z"/><path class="cls-13" d="M375.42,291.87l20.83,12L410.92,284h28.33l15.17,21.83,18.06-12.2,3.77-2.46s1.27-61.23-38.82-79.95a28.47,28.47,0,0,0-23.5-.35C374.58,228.27,375.42,291.87,375.42,291.87Z"/><polygon class="cls-1" points="410.92 284.04 425.03 275.57 439.25 284.04 410.92 284.04"/><polygon class="cls-2" points="411.63 351.73 396.88 308.98 412.4 287.71 425.03 279.81 437.4 287.71 453.73 310.29 482.98 290.83 450.03 343.88 434.38 351.73 411.63 351.73"/><path class="cls-2" d="M470.56,253.7a116.82,116.82,0,0,1,4.77,22.85l4.77-17.86Z"/><polygon class="cls-1" points="254.6 311.65 265.89 342.3 299.61 389.21 311.61 396.46 334.36 396.46 350.01 388.61 382.96 335.57 411.02 283.95 380.36 301.5 355.75 287.55 355.19 245.2 332.94 223.81 310.25 237.18 296.29 279.27 270.58 303.72 253.17 287.93 254.6 311.65"/><path class="cls-2" d="M269.89,333.8l5.59,2.81s.22-24.8,7.39-43.13l-12.29,10.24-10.15-9.27C257.88,314.15,269.89,333.8,269.89,333.8Z"/><path class="cls-14" d="M275.48,336.61l20.83,12L311,328.77h28.33l15.17,21.84,18.06-12.21,3.77-2.46s1.27-61.22-38.82-79.94a28.43,28.43,0,0,0-23.5-.36C274.64,273,275.48,336.61,275.48,336.61Z"/><polygon class="cls-1" points="310.98 328.77 325.09 320.31 339.31 328.77 310.98 328.77"/><polygon class="cls-2" points="311.7 396.46 296.94 353.71 312.46 332.44 325.09 324.54 337.46 332.44 353.79 355.02 383.04 335.57 350.09 388.61 334.44 396.46 311.7 396.46"/><path class="cls-2" d="M370.62,298.43a116.82,116.82,0,0,1,4.77,22.85l4.77-17.86Z"/><polygon class="cls-1" points="915.7 110.11 926.99 140.75 960.72 187.67 972.72 194.92 995.47 194.92 1011.11 187.06 1044.06 134.02 1072.13 82.41 1041.47 99.95 1016.86 86 1016.29 43.65 994.04 22.26 971.36 35.64 957.4 77.73 931.69 102.18 914.28 86.39 915.7 110.11"/><path class="cls-2" d="M931,132.25l5.59,2.81s.23-24.79,7.39-43.12l-12.28,10.24-10.15-9.27C919,112.6,931,132.25,931,132.25Z"/><path class="cls-15" d="M936.58,135.06l20.83,12,14.67-19.83h28.33l15.17,21.83,18.07-12.21,3.76-2.46s1.27-61.22-38.81-79.94a28.45,28.45,0,0,0-23.51-.36C935.74,71.46,936.58,135.06,936.58,135.06Z"/><polygon class="cls-1" points="972.08 127.23 986.19 118.76 1000.41 127.23 972.08 127.23"/><polygon class="cls-2" points="972.8 194.92 958.05 152.17 973.57 130.9 986.19 122.99 998.57 130.9 1014.9 153.48 1044.15 134.02 1011.2 187.06 995.55 194.92 972.8 194.92"/><path class="cls-2" d="M1031.72,96.89a116.31,116.31,0,0,1,4.78,22.85l4.76-17.87Z"/><polygon class="cls-1" points="1000.21 155.06 1011.5 185.7 1045.22 232.62 1057.22 239.87 1079.97 239.87 1095.62 232.02 1128.57 178.97 1156.63 127.36 1125.97 144.91 1101.37 130.96 1100.8 88.61 1078.55 67.22 1055.87 80.59 1041.91 122.68 1016.19 147.13 998.78 131.34 1000.21 155.06"/><path class="cls-2" d="M1015.5,177.21l5.59,2.8s.23-24.79,7.39-43.12l-12.29,10.24-10.14-9.27C1003.49,157.55,1015.5,177.21,1015.5,177.21Z"/><path class="cls-16" d="M1021.09,180l20.83,12,14.67-19.83h28.33L1100.09,194l18.07-12.2,3.76-2.46s1.27-61.23-38.81-79.95A28.53,28.53,0,0,0,1059.6,99C1020.25,116.41,1021.09,180,1021.09,180Z"/><polygon class="cls-1" points="1056.59 172.18 1070.7 163.72 1084.92 172.18 1056.59 172.18"/><polygon class="cls-2" points="1057.31 239.87 1042.56 197.12 1058.08 175.85 1070.7 167.95 1083.08 175.85 1099.41 198.43 1128.66 178.97 1095.71 232.02 1080.06 239.87 1057.31 239.87"/><path class="cls-2" d="M1116.23,141.84a116.31,116.31,0,0,1,4.78,22.85l4.76-17.87Z"/><polygon class="cls-1" points="1084.58 199.84 1095.87 230.48 1129.59 277.4 1141.59 284.65 1164.34 284.65 1179.99 276.79 1212.94 223.75 1241 172.14 1210.34 189.68 1185.73 175.73 1185.16 133.38 1162.91 111.99 1140.23 125.37 1126.27 167.46 1100.56 191.91 1083.15 176.12 1084.58 199.84"/><path class="cls-2" d="M1099.86,222l5.6,2.81s.22-24.79,7.39-43.12l-12.29,10.24-10.15-9.27C1087.86,202.33,1099.86,222,1099.86,222Z"/><path class="cls-17" d="M1105.46,224.79l20.83,12L1141,217h28.33l15.17,21.83,18.06-12.21,3.77-2.46s1.27-61.22-38.82-79.94a28.43,28.43,0,0,0-23.5-.36C1104.62,161.19,1105.46,224.79,1105.46,224.79Z"/><polygon class="cls-1" points="1140.96 216.96 1155.07 208.49 1169.29 216.96 1140.96 216.96"/><polygon class="cls-2" points="1141.67 284.65 1126.92 241.9 1142.44 220.63 1155.07 212.72 1167.44 220.63 1183.77 243.21 1213.02 223.75 1180.07 276.79 1164.42 284.65 1141.67 284.65"/><path class="cls-2" d="M1200.6,186.62a116.82,116.82,0,0,1,4.77,22.85l4.77-17.87Z"/><polygon class="cls-1" points="815.66 154.93 826.95 185.57 860.67 232.49 872.67 239.74 895.42 239.74 911.07 231.88 944.02 178.84 972.08 127.23 941.42 144.77 916.82 130.82 916.25 88.47 894 67.08 871.32 80.46 857.35 122.55 831.64 147 814.23 131.21 815.66 154.93"/><path class="cls-2" d="M831,177.07l5.59,2.81s.22-24.79,7.39-43.12L831.64,147l-10.15-9.27C818.94,157.42,831,177.07,831,177.07Z"/><path class="cls-18" d="M836.54,179.88l20.83,12L872,172.05h28.33l15.17,21.83,18.06-12.21,3.77-2.46s1.27-61.22-38.82-79.94a28.43,28.43,0,0,0-23.5-.36C835.7,116.28,836.54,179.88,836.54,179.88Z"/><polygon class="cls-1" points="872.04 172.05 886.15 163.58 900.37 172.05 872.04 172.05"/><polygon class="cls-2" points="872.75 239.74 858 196.99 873.52 175.72 886.15 167.81 898.52 175.72 914.85 198.3 944.1 178.84 911.15 231.88 895.5 239.74 872.75 239.74"/><path class="cls-2" d="M931.68,141.71a116.82,116.82,0,0,1,4.77,22.85l4.77-17.87Z"/><polygon class="cls-1" points="900.17 199.88 911.46 230.52 945.18 277.44 957.18 284.69 979.93 284.69 995.58 276.84 1028.53 223.79 1056.59 172.18 1025.93 189.73 1001.32 175.78 1000.75 133.43 978.5 112.04 955.82 125.41 941.86 167.5 916.15 191.95 898.74 176.16 900.17 199.88"/><path class="cls-2" d="M915.45,222l5.59,2.81s.23-24.79,7.4-43.12L916.15,192,906,182.68C903.45,202.37,915.45,222,915.45,222Z"/><path class="cls-19" d="M921,224.83l20.84,12L956.54,217h28.34L1000,238.83l18.07-12.2,3.77-2.46s1.27-61.23-38.82-79.95a28.5,28.5,0,0,0-23.5-.36C920.21,161.23,921,224.83,921,224.83Z"/><polygon class="cls-1" points="956.54 217 970.66 208.53 984.88 217 956.54 217"/><polygon class="cls-2" points="957.26 284.69 942.51 241.94 958.03 220.67 970.66 212.77 983.03 220.67 999.36 243.25 1028.61 223.79 995.66 276.84 980.01 284.69 957.26 284.69"/><path class="cls-2" d="M1016.19,186.66a116.82,116.82,0,0,1,4.77,22.85l4.77-17.87Z"/><polygon class="cls-1" points="715.72 199.66 727.01 230.3 760.73 277.22 772.73 284.47 795.48 284.47 811.13 276.61 844.08 223.57 872.14 171.96 841.48 189.5 816.88 175.56 816.31 133.2 794.06 111.81 771.38 125.19 757.41 167.28 731.7 191.73 714.29 175.94 715.72 199.66"/><path class="cls-2" d="M731,221.8l5.59,2.81s.22-24.79,7.39-43.12L731.7,191.73l-10.15-9.27C719,202.15,731,221.8,731,221.8Z"/><path class="cls-20" d="M736.6,224.61l20.83,12,14.67-19.83h28.33l15.17,21.83,18.06-12.2,3.77-2.47s1.27-61.22-38.82-79.94a28.5,28.5,0,0,0-23.5-.36C735.76,161,736.6,224.61,736.6,224.61Z"/><polygon class="cls-1" points="772.1 216.78 786.21 208.31 800.43 216.78 772.1 216.78"/><polygon class="cls-2" points="772.82 284.47 758.07 241.72 773.58 220.45 786.21 212.54 798.58 220.45 814.91 243.03 844.16 223.57 811.21 276.61 795.57 284.47 772.82 284.47"/><path class="cls-2" d="M831.74,186.44a116.82,116.82,0,0,1,4.77,22.85l4.77-17.87Z"/><polygon class="cls-1" points="800.23 244.61 811.52 275.25 845.24 322.17 857.24 329.42 879.99 329.42 895.64 321.57 928.59 268.52 956.65 216.91 925.99 234.46 901.38 220.51 900.82 178.16 878.57 156.77 855.88 170.14 841.92 212.23 816.21 236.68 798.8 220.89 800.23 244.61"/><path class="cls-2" d="M815.51,266.76l5.6,2.8s.22-24.79,7.39-43.12l-12.29,10.24-10.15-9.27C803.51,247.11,815.51,266.76,815.51,266.76Z"/><path class="cls-21" d="M821.11,269.56l20.83,12,14.67-19.83h28.33l15.17,21.83,18.06-12.2,3.77-2.46s1.27-61.23-38.82-79.95a28.47,28.47,0,0,0-23.5-.35C820.27,206,821.11,269.56,821.11,269.56Z"/><polygon class="cls-1" points="856.61 261.73 870.72 253.27 884.94 261.73 856.61 261.73"/><polygon class="cls-2" points="857.32 329.42 842.57 286.67 858.09 265.4 870.72 257.5 883.09 265.4 899.42 287.98 928.67 268.52 895.72 321.57 880.07 329.42 857.32 329.42"/><path class="cls-2" d="M916.25,231.39A116.82,116.82,0,0,1,921,254.24l4.77-17.86Z"/><polygon class="cls-1" points="984.53 244.66 995.82 275.3 1029.55 322.22 1041.55 329.47 1064.3 329.47 1079.94 321.61 1112.89 268.57 1140.96 216.96 1110.3 234.5 1085.69 220.55 1085.12 178.2 1062.87 156.81 1040.19 170.19 1026.23 212.28 1000.52 236.73 983.11 220.93 984.53 244.66"/><path class="cls-2" d="M999.82,266.8l5.59,2.81s.23-24.79,7.39-43.12l-12.28,10.24-10.15-9.27C987.81,247.15,999.82,266.8,999.82,266.8Z"/><path class="cls-22" d="M1005.41,269.61l20.83,12,14.67-19.83h28.33l15.17,21.83,18.07-12.21,3.76-2.46s1.27-61.22-38.81-79.94a28.43,28.43,0,0,0-23.5-.36C1004.57,206,1005.41,269.61,1005.41,269.61Z"/><polygon class="cls-1" points="1040.91 261.78 1055.02 253.31 1069.24 261.78 1040.91 261.78"/><polygon class="cls-2" points="1041.63 329.47 1026.88 286.72 1042.4 265.45 1055.02 257.54 1067.4 265.45 1083.73 288.03 1112.98 268.57 1080.03 321.61 1064.38 329.47 1041.63 329.47"/><path class="cls-2" d="M1100.55,231.44a116.31,116.31,0,0,1,4.78,22.85l4.76-17.87Z"/><polygon class="cls-1" points="884.59 289.39 895.88 320.03 929.61 366.95 941.61 374.2 964.36 374.2 980 366.34 1012.96 313.3 1041.02 261.69 1010.36 279.23 985.75 265.29 985.18 222.93 962.93 201.54 940.25 214.92 926.29 257.01 900.58 281.46 883.17 265.67 884.59 289.39"/><path class="cls-2" d="M899.88,311.53l5.59,2.81s.23-24.79,7.39-43.12l-12.28,10.24-10.15-9.27C887.87,291.88,899.88,311.53,899.88,311.53Z"/><path class="cls-23" d="M905.47,314.34l20.83,12L941,306.51H969.3l15.17,21.83,18.07-12.2,3.76-2.47s1.27-61.22-38.81-79.94a28.47,28.47,0,0,0-23.5-.36C904.63,250.74,905.47,314.34,905.47,314.34Z"/><polygon class="cls-1" points="940.97 306.51 955.08 298.04 969.3 306.51 940.97 306.51"/><polygon class="cls-2" points="941.69 374.2 926.94 331.45 942.46 310.18 955.08 302.27 967.46 310.18 983.79 332.76 1013.04 313.3 980.09 366.34 964.44 374.2 941.69 374.2"/><path class="cls-2" d="M1000.62,276.17a116.82,116.82,0,0,1,4.77,22.85l4.76-17.87Z"/><polygon class="cls-1" points="1593.1 155 1604.39 185.65 1638.12 232.57 1650.12 239.82 1672.87 239.82 1688.51 231.96 1721.46 178.92 1749.53 127.3 1718.87 144.85 1694.26 130.9 1693.69 88.55 1671.44 67.16 1648.76 80.53 1634.8 122.62 1609.09 147.07 1591.67 131.28 1593.1 155"/><path class="cls-2" d="M1608.39,177.15,1614,180s.23-24.79,7.39-43.13l-12.28,10.24-10.15-9.26C1596.38,157.5,1608.39,177.15,1608.39,177.15Z"/><path class="cls-24" d="M1614,180l20.83,12,14.67-19.84h28.33L1693,194l18.07-12.21,3.76-2.46s1.27-61.22-38.81-79.94a28.45,28.45,0,0,0-23.51-.36C1613.14,116.35,1614,180,1614,180Z"/><polygon class="cls-1" points="1649.48 172.12 1663.59 163.66 1677.81 172.12 1649.48 172.12"/><polygon class="cls-2" points="1650.2 239.82 1635.45 197.07 1650.97 175.8 1663.59 167.89 1675.97 175.8 1692.3 198.38 1721.55 178.92 1688.6 231.96 1672.95 239.82 1650.2 239.82"/><path class="cls-2" d="M1709.12,141.78a116.54,116.54,0,0,1,4.78,22.85l4.76-17.86Z"/><polygon class="cls-1" points="1493.12 199.76 1504.41 230.4 1538.14 277.32 1550.14 284.57 1572.89 284.57 1588.54 276.71 1621.48 223.67 1649.55 172.06 1618.89 189.6 1594.28 175.66 1593.71 133.3 1571.46 111.92 1548.78 125.29 1534.82 167.38 1509.11 191.83 1491.7 176.04 1493.12 199.76"/><path class="cls-2" d="M1508.41,221.9l5.59,2.81s.23-24.79,7.39-43.12l-12.28,10.24L1499,182.56C1496.4,202.25,1508.41,221.9,1508.41,221.9Z"/><path class="cls-25" d="M1514,224.71l20.83,12,14.67-19.83h28.33L1593,238.71l18.07-12.2,3.76-2.46s1.27-61.23-38.81-80a28.53,28.53,0,0,0-23.51-.36C1513.16,161.11,1514,224.71,1514,224.71Z"/><polygon class="cls-1" points="1549.5 216.88 1563.61 208.41 1577.83 216.88 1549.5 216.88"/><polygon class="cls-2" points="1550.22 284.57 1535.47 241.82 1550.99 220.55 1563.61 212.65 1575.99 220.55 1592.32 243.13 1621.57 223.67 1588.62 276.71 1572.97 284.57 1550.22 284.57"/><path class="cls-2" d="M1609.14,186.54a116.31,116.31,0,0,1,4.78,22.85l4.76-17.87Z"/><polygon class="cls-1" points="1393.18 244.49 1404.47 275.13 1438.2 322.05 1450.2 329.3 1472.95 329.3 1488.6 321.45 1521.55 268.4 1549.61 216.79 1518.95 234.34 1494.34 220.39 1493.77 178.03 1471.52 156.65 1448.84 170.02 1434.88 212.11 1409.17 236.56 1391.76 220.77 1393.18 244.49"/><path class="cls-2" d="M1408.47,266.64l5.59,2.8s.23-24.79,7.39-43.12l-12.28,10.24L1399,227.29C1396.46,247,1408.47,266.64,1408.47,266.64Z"/><path class="cls-26" d="M1414.06,269.44l20.83,12,14.67-19.83h28.33l15.17,21.83,18.07-12.2,3.76-2.46s1.27-61.23-38.81-79.95a28.53,28.53,0,0,0-23.51-.36C1413.22,205.84,1414.06,269.44,1414.06,269.44Z"/><polygon class="cls-1" points="1449.56 261.61 1463.67 253.15 1477.89 261.61 1449.56 261.61"/><polygon class="cls-2" points="1450.28 329.3 1435.53 286.55 1451.05 265.28 1463.67 257.38 1476.05 265.28 1492.38 287.86 1521.63 268.4 1488.68 321.45 1473.03 329.3 1450.28 329.3"/><path class="cls-2" d="M1509.2,231.27a116.31,116.31,0,0,1,4.78,22.85l4.76-17.87Z"/><path class="cls-27" d="M1323.46,193.26h-7.84v-7.83a3.58,3.58,0,1,0-7.16,0v7.83h-7.84a3.59,3.59,0,0,0,0,7.17h7.84v7.83a3.58,3.58,0,0,0,7.16,0v-7.83h7.84a3.59,3.59,0,0,0,0-7.17Z"/><rect class="cls-27" x="644.27" y="195.55" width="34" height="4.84" rx="2.42" ry="2.42"/><rect class="cls-27" x="644.27" y="205.71" width="34" height="4.84" rx="2.42" ry="2.42"/></g></svg>