<svg xmlns="http://www.w3.org/2000/svg" xmlns:xlink="http://www.w3.org/1999/xlink" viewBox="0 0 925.39 307.12"><defs><style>.cls-1{fill:#62abbc;}.cls-2{fill:#3d838e;opacity:0.51;}.cls-3{fill:url(#linear-gradient);}.cls-4{fill:url(#linear-gradient-2);}.cls-5{fill:url(#linear-gradient-3);}.cls-6{fill:url(#linear-gradient-4);}.cls-7{fill:url(#linear-gradient-5);}.cls-8{fill:url(#linear-gradient-6);}.cls-9{fill:url(#linear-gradient-7);}.cls-10{fill:url(#linear-gradient-8);}.cls-11{fill:url(#linear-gradient-9);}.cls-12{fill:#f05023;}</style><linearGradient id="linear-gradient" x1="122.13" y1="78.13" x2="222.97" y2="78.13" gradientUnits="userSpaceOnUse"><stop offset="0" stop-color="#fbb040"/><stop offset="0.39" stop-color="#f9ae41"/><stop offset="0.59" stop-color="#f1a845"/><stop offset="0.74" stop-color="#e49e4b"/><stop offset="0.87" stop-color="#d18f55"/><stop offset="0.99" stop-color="#b97c60"/><stop offset="1" stop-color="#b67a62"/></linearGradient><linearGradient id="linear-gradient-2" x1="206.64" y1="123.08" x2="307.48" y2="123.08" xlink:href="#linear-gradient"/><linearGradient id="linear-gradient-3" x1="22.19" y1="122.86" x2="123.03" y2="122.86" xlink:href="#linear-gradient"/><linearGradient id="linear-gradient-4" x1="106.7" y1="167.81" x2="207.54" y2="167.81" xlink:href="#linear-gradient"/><linearGradient id="linear-gradient-5" x1="291" y1="167.86" x2="391.84" y2="167.86" xlink:href="#linear-gradient"/><linearGradient id="linear-gradient-6" x1="191.06" y1="212.59" x2="291.9" y2="212.59" xlink:href="#linear-gradient"/><linearGradient id="linear-gradient-7" x1="789.96" y1="123.1" x2="890.8" y2="123.1" xlink:href="#linear-gradient"/><linearGradient id="linear-gradient-8" x1="689.98" y1="167.86" x2="790.82" y2="167.86" xlink:href="#linear-gradient"/><linearGradient id="linear-gradient-9" x1="590.04" y1="212.59" x2="690.88" y2="212.59" xlink:href="#linear-gradient"/></defs><title>VT_R2</title><g id="Layer_2" data-name="Layer 2"><polygon class="cls-1" points="101.25 87.84 112.54 118.49 146.27 165.4 158.27 172.65 181.01 172.65 196.66 164.8 229.61 111.76 257.68 60.14 227.02 77.69 202.41 63.74 201.84 21.39 179.59 0 156.91 13.37 142.95 55.46 117.23 79.91 99.83 64.12 101.25 87.84"/><path class="cls-2" d="M116.54,110l5.59,2.81s.23-24.79,7.39-43.13L117.23,79.91l-10.14-9.27C104.53,90.34,116.54,110,116.54,110Z"/><path class="cls-3" d="M122.13,112.8l20.83,12L157.63,105H186l15.17,21.84,18.07-12.21,3.76-2.46s1.27-61.22-38.81-79.94a28.45,28.45,0,0,0-23.51-.36C121.29,49.19,122.13,112.8,122.13,112.8Z"/><polygon class="cls-1" points="157.63 104.96 171.74 96.5 185.96 104.96 157.63 104.96"/><polygon class="cls-2" points="158.35 172.65 143.6 129.9 159.12 108.64 171.74 100.73 184.12 108.64 200.45 131.22 229.7 111.76 196.75 164.8 181.1 172.65 158.35 172.65"/><path class="cls-2" d="M217.27,74.62a116.31,116.31,0,0,1,4.78,22.85l4.76-17.86Z"/><polygon class="cls-1" points="185.76 132.79 197.05 163.44 230.77 210.36 242.77 217.61 265.52 217.61 281.17 209.75 314.12 156.71 342.18 105.1 311.52 122.64 286.92 108.69 286.35 66.34 264.1 44.95 241.42 58.33 227.46 100.42 201.74 124.87 184.33 109.07 185.76 132.79"/><path class="cls-2" d="M201.05,154.94l5.59,2.81s.22-24.79,7.39-43.12l-12.29,10.24L191.6,115.6C189,135.29,201.05,154.94,201.05,154.94Z"/><path class="cls-4" d="M206.64,157.75l20.83,12,14.67-19.83h28.33l15.17,21.83,18.07-12.21,3.76-2.46s1.27-61.22-38.81-79.94a28.45,28.45,0,0,0-23.51-.36C205.8,94.15,206.64,157.75,206.64,157.75Z"/><polygon class="cls-1" points="242.14 149.92 256.25 141.45 270.47 149.92 242.14 149.92"/><polygon class="cls-2" points="242.86 217.61 228.11 174.86 243.63 153.59 256.25 145.68 268.63 153.59 284.96 176.17 314.21 156.71 281.26 209.75 265.61 217.61 242.86 217.61"/><path class="cls-2" d="M301.78,119.58a116.31,116.31,0,0,1,4.78,22.85l4.76-17.87Z"/><polygon class="cls-1" points="1.31 132.57 12.6 163.22 46.33 210.14 58.33 217.39 81.08 217.39 96.72 209.53 129.67 156.49 157.74 104.87 127.08 122.42 102.47 108.47 101.9 66.12 79.65 44.73 56.97 58.1 43.01 100.19 17.3 124.64 -0.12 108.85 1.31 132.57"/><path class="cls-2" d="M16.6,154.72l5.59,2.81s.23-24.79,7.39-43.13L17.3,124.64,7.15,115.38C4.59,135.07,16.6,154.72,16.6,154.72Z"/><path class="cls-5" d="M22.19,157.53l20.83,12,14.67-19.84H86l15.17,21.84,18.07-12.21,3.76-2.46s1.27-61.22-38.81-79.94a28.45,28.45,0,0,0-23.51-.36C21.35,93.92,22.19,157.53,22.19,157.53Z"/><polygon class="cls-1" points="57.69 149.69 71.8 141.23 86.02 149.69 57.69 149.69"/><polygon class="cls-2" points="58.41 217.39 43.66 174.64 59.18 153.37 71.8 145.46 84.18 153.37 100.51 175.95 129.76 156.49 96.81 209.53 81.16 217.39 58.41 217.39"/><path class="cls-2" d="M117.33,119.35a116.54,116.54,0,0,1,4.78,22.85l4.76-17.86Z"/><polygon class="cls-1" points="85.82 177.53 97.11 208.17 130.84 255.09 142.84 262.34 165.58 262.34 181.23 254.48 214.18 201.44 242.24 149.83 211.59 167.37 186.98 153.43 186.41 111.07 164.16 89.69 141.48 103.06 127.52 145.15 101.8 169.6 84.39 153.81 85.82 177.53"/><path class="cls-2" d="M101.11,199.67l5.59,2.81s.22-24.79,7.39-43.12L101.8,169.6l-10.14-9.27C89.1,180,101.11,199.67,101.11,199.67Z"/><path class="cls-6" d="M106.7,202.48l20.83,12,14.67-19.83h28.33l15.17,21.83,18.07-12.21,3.76-2.46s1.27-61.22-38.81-79.94a28.45,28.45,0,0,0-23.51-.36C105.86,138.88,106.7,202.48,106.7,202.48Z"/><polygon class="cls-1" points="142.2 194.65 156.31 186.18 170.53 194.65 142.2 194.65"/><polygon class="cls-2" points="142.92 262.34 128.17 219.59 143.69 198.32 156.31 190.41 168.69 198.32 185.02 220.9 214.27 201.44 181.32 254.48 165.67 262.34 142.92 262.34"/><path class="cls-2" d="M201.84,164.31a116.31,116.31,0,0,1,4.78,22.85l4.76-17.87Z"/><polygon class="cls-1" points="270.13 177.57 281.42 208.22 315.14 255.13 327.14 262.38 349.89 262.38 365.54 254.53 398.49 201.49 426.55 149.87 395.89 167.42 371.28 153.47 370.71 111.12 348.46 89.73 325.78 103.1 311.82 145.19 286.11 169.64 268.7 153.85 270.13 177.57"/><path class="cls-2" d="M285.41,199.72l5.6,2.81s.22-24.8,7.39-43.13l-12.29,10.24L276,160.37C273.41,180.07,285.41,199.72,285.41,199.72Z"/><path class="cls-7" d="M291,202.53l20.83,12,14.67-19.84h28.33L370,216.53l18.06-12.21,3.77-2.46s1.27-61.22-38.82-79.94a28.43,28.43,0,0,0-23.5-.36C290.17,138.92,291,202.53,291,202.53Z"/><polygon class="cls-1" points="326.5 194.69 340.62 186.23 354.84 194.69 326.5 194.69"/><polygon class="cls-2" points="327.22 262.38 312.47 219.63 327.99 198.37 340.62 190.46 352.99 198.37 369.32 220.94 398.57 201.49 365.62 254.53 349.97 262.38 327.22 262.38"/><path class="cls-2" d="M386.15,164.35a116.82,116.82,0,0,1,4.77,22.85l4.77-17.86Z"/><polygon class="cls-1" points="170.19 222.3 181.48 252.95 215.2 299.87 227.2 307.12 249.95 307.12 265.6 299.26 298.55 246.22 326.61 194.6 295.95 212.15 271.34 198.2 270.77 155.85 248.53 134.46 225.84 147.84 211.88 189.92 186.17 214.37 168.76 198.58 170.19 222.3"/><path class="cls-2" d="M185.47,244.45l5.6,2.81s.22-24.79,7.39-43.13l-12.29,10.24L176,205.11C173.47,224.8,185.47,244.45,185.47,244.45Z"/><path class="cls-8" d="M191.07,247.26l20.83,12,14.67-19.84H254.9l15.17,21.84,18.06-12.21,3.77-2.46s1.27-61.22-38.82-79.94a28.43,28.43,0,0,0-23.5-.36C190.23,183.65,191.07,247.26,191.07,247.26Z"/><polygon class="cls-1" points="226.56 239.42 240.68 230.96 254.9 239.42 226.56 239.42"/><polygon class="cls-2" points="227.28 307.12 212.53 264.37 228.05 243.1 240.68 235.19 253.05 243.1 269.38 265.68 298.63 246.22 265.68 299.26 250.03 307.12 227.28 307.12"/><path class="cls-2" d="M286.21,209.08A116.82,116.82,0,0,1,291,231.93l4.77-17.86Z"/><polygon class="cls-1" points="769.08 132.82 780.37 163.46 814.09 210.38 826.09 217.63 848.84 217.63 864.49 209.77 897.44 156.73 925.5 105.12 894.84 122.66 870.24 108.72 869.67 66.36 847.42 44.98 824.74 58.35 810.78 100.44 785.06 124.89 767.65 109.1 769.08 132.82"/><path class="cls-2" d="M784.37,155l5.59,2.81s.22-24.79,7.39-43.12l-12.29,10.24-10.15-9.27C772.36,135.31,784.37,155,784.37,155Z"/><path class="cls-9" d="M790,157.77l20.83,12,14.67-19.83h28.33L869,171.77,887,159.56l3.76-2.46S892.06,95.88,852,77.16a28.49,28.49,0,0,0-23.51-.36C789.12,94.17,790,157.77,790,157.77Z"/><polygon class="cls-1" points="825.46 149.94 839.57 141.47 853.79 149.94 825.46 149.94"/><polygon class="cls-2" points="826.18 217.63 811.43 174.88 826.95 153.61 839.57 145.71 851.95 153.61 868.28 176.19 897.53 156.73 864.58 209.77 848.93 217.63 826.18 217.63"/><path class="cls-2" d="M885.1,119.6a116.31,116.31,0,0,1,4.78,22.85l4.76-17.87Z"/><polygon class="cls-1" points="669.1 177.57 680.39 208.22 714.12 255.13 726.12 262.38 748.87 262.38 764.51 254.53 797.46 201.49 825.52 149.87 794.87 167.42 770.26 153.47 769.69 111.12 747.44 89.73 724.76 103.1 710.8 145.19 685.08 169.64 667.67 153.85 669.1 177.57"/><path class="cls-2" d="M684.39,199.72l5.59,2.81s.22-24.8,7.39-43.13l-12.29,10.24-10.14-9.27C672.38,180.07,684.39,199.72,684.39,199.72Z"/><path class="cls-10" d="M690,202.53l20.83,12,14.67-19.84h28.33L769,216.53l18.07-12.21,3.76-2.46s1.27-61.22-38.81-79.94a28.45,28.45,0,0,0-23.51-.36C689.14,138.92,690,202.53,690,202.53Z"/><polygon class="cls-1" points="725.48 194.69 739.59 186.23 753.81 194.69 725.48 194.69"/><polygon class="cls-2" points="726.2 262.38 711.45 219.63 726.97 198.37 739.59 190.46 751.97 198.37 768.3 220.94 797.55 201.49 764.6 254.53 748.95 262.38 726.2 262.38"/><path class="cls-2" d="M785.12,164.35a116.31,116.31,0,0,1,4.78,22.85l4.76-17.86Z"/><polygon class="cls-1" points="569.16 222.3 580.45 252.95 614.17 299.87 626.17 307.12 648.92 307.12 664.57 299.26 697.52 246.22 725.58 194.6 694.92 212.15 670.32 198.2 669.75 155.85 647.5 134.46 624.82 147.84 610.86 189.92 585.14 214.37 567.74 198.58 569.16 222.3"/><path class="cls-2" d="M584.45,244.45l5.59,2.81s.23-24.79,7.39-43.13l-12.29,10.24L575,205.11C572.44,224.8,584.45,244.45,584.45,244.45Z"/><path class="cls-11" d="M590,247.26l20.83,12,14.67-19.84h28.33L669,261.26l18.07-12.21,3.76-2.46s1.27-61.22-38.81-79.94a28.45,28.45,0,0,0-23.51-.36C589.2,183.65,590,247.26,590,247.26Z"/><polygon class="cls-1" points="625.54 239.42 639.65 230.96 653.87 239.42 625.54 239.42"/><polygon class="cls-2" points="626.26 307.12 611.51 264.37 627.03 243.1 639.65 235.19 652.03 243.1 668.36 265.68 697.61 246.22 664.66 299.26 649.01 307.12 626.26 307.12"/><path class="cls-2" d="M685.18,209.08A116.31,116.31,0,0,1,690,231.93l4.76-17.86Z"/><path class="cls-12" d="M512.24,186.94h-7.83v-7.83a3.59,3.59,0,1,0-7.17,0v7.83h-7.83a3.59,3.59,0,0,0,0,7.17h7.83v7.83a3.59,3.59,0,0,0,7.17,0v-7.83h7.83a3.59,3.59,0,1,0,0-7.17Z"/></g></svg>