<svg xmlns="http://www.w3.org/2000/svg" xmlns:xlink="http://www.w3.org/1999/xlink" viewBox="0 0 1016.25 351.94"><defs><style>.cls-1{fill:#62abbc;}.cls-2{fill:#3d838e;opacity:0.51;}.cls-3{fill:url(#linear-gradient);}.cls-4{fill:url(#linear-gradient-2);}.cls-5{fill:url(#linear-gradient-3);}.cls-6{fill:url(#linear-gradient-4);}.cls-7{fill:url(#linear-gradient-5);}.cls-8{fill:url(#linear-gradient-6);}.cls-9{fill:url(#linear-gradient-7);}.cls-10{fill:url(#linear-gradient-8);}.cls-11{fill:url(#linear-gradient-9);}.cls-12{fill:url(#linear-gradient-10);}.cls-13{fill:url(#linear-gradient-11);}.cls-14{fill:url(#linear-gradient-12);}.cls-15{fill:#f05023;}</style><linearGradient id="linear-gradient" x1="222.29" y1="78.13" x2="323.13" y2="78.13" gradientUnits="userSpaceOnUse"><stop offset="0" stop-color="#fbb040"/><stop offset="0.39" stop-color="#f9ae41"/><stop offset="0.59" stop-color="#f1a845"/><stop offset="0.74" stop-color="#e49e4b"/><stop offset="0.87" stop-color="#d18f55"/><stop offset="0.99" stop-color="#b97c60"/><stop offset="1" stop-color="#b67a62"/></linearGradient><linearGradient id="linear-gradient-2" x1="306.8" y1="123.08" x2="407.64" y2="123.08" xlink:href="#linear-gradient"/><linearGradient id="linear-gradient-3" x1="391.16" y1="167.86" x2="492" y2="167.86" xlink:href="#linear-gradient"/><linearGradient id="linear-gradient-4" x1="122.24" y1="122.95" x2="223.08" y2="122.95" xlink:href="#linear-gradient"/><linearGradient id="linear-gradient-5" x1="206.75" y1="167.9" x2="307.59" y2="167.9" xlink:href="#linear-gradient"/><linearGradient id="linear-gradient-6" x1="22.3" y1="167.68" x2="123.14" y2="167.68" xlink:href="#linear-gradient"/><linearGradient id="linear-gradient-7" x1="106.81" y1="212.63" x2="207.65" y2="212.63" xlink:href="#linear-gradient"/><linearGradient id="linear-gradient-8" x1="291.12" y1="212.68" x2="391.96" y2="212.68" xlink:href="#linear-gradient"/><linearGradient id="linear-gradient-9" x1="191.18" y1="257.41" x2="292.02" y2="257.41" xlink:href="#linear-gradient"/><linearGradient id="linear-gradient-10" x1="880.71" y1="167.92" x2="981.55" y2="167.92" xlink:href="#linear-gradient"/><linearGradient id="linear-gradient-11" x1="780.73" y1="212.68" x2="881.57" y2="212.68" xlink:href="#linear-gradient"/><linearGradient id="linear-gradient-12" x1="680.79" y1="257.41" x2="781.63" y2="257.41" xlink:href="#linear-gradient"/></defs><title>VT_R1</title><g id="Layer_2" data-name="Layer 2"><polygon class="cls-1" points="201.41 87.84 212.7 118.49 246.43 165.4 258.43 172.65 281.18 172.65 296.82 164.8 329.77 111.76 357.83 60.14 327.18 77.69 302.57 63.74 302 21.39 279.75 0 257.07 13.37 243.11 55.46 217.39 79.91 199.98 64.12 201.41 87.84"/><path class="cls-2" d="M216.7,110l5.59,2.81s.22-24.79,7.39-43.13L217.39,79.91l-10.14-9.27C204.69,90.34,216.7,110,216.7,110Z"/><path class="cls-3" d="M222.29,112.8l20.83,12L257.79,105h28.33l15.17,21.84,18.07-12.21,3.76-2.46s1.27-61.22-38.81-79.94a28.45,28.45,0,0,0-23.51-.36C221.45,49.19,222.29,112.8,222.29,112.8Z"/><polygon class="cls-1" points="257.79 104.96 271.9 96.5 286.12 104.96 257.79 104.96"/><polygon class="cls-2" points="258.51 172.65 243.76 129.9 259.28 108.64 271.9 100.73 284.28 108.64 300.61 131.22 329.86 111.76 296.91 164.8 281.26 172.65 258.51 172.65"/><path class="cls-2" d="M317.43,74.62a116.31,116.31,0,0,1,4.78,22.85L327,79.61Z"/><polygon class="cls-1" points="285.92 132.79 297.21 163.44 330.93 210.36 342.93 217.61 365.68 217.61 381.33 209.75 414.28 156.71 442.34 105.1 411.68 122.64 387.08 108.69 386.51 66.34 364.26 44.95 341.58 58.33 327.62 100.42 301.9 124.87 284.49 109.07 285.92 132.79"/><path class="cls-2" d="M301.21,154.94l5.59,2.81s.22-24.79,7.39-43.12L301.9,124.87l-10.15-9.27C289.2,135.29,301.21,154.94,301.21,154.94Z"/><path class="cls-4" d="M306.8,157.75l20.83,12,14.67-19.83h28.33l15.17,21.83,18.07-12.21,3.76-2.46s1.27-61.22-38.81-79.94a28.45,28.45,0,0,0-23.51-.36C306,94.15,306.8,157.75,306.8,157.75Z"/><polygon class="cls-1" points="342.3 149.92 356.41 141.45 370.63 149.92 342.3 149.92"/><polygon class="cls-2" points="343.02 217.61 328.27 174.86 343.79 153.59 356.41 145.68 368.79 153.59 385.12 176.17 414.37 156.71 381.42 209.75 365.77 217.61 343.02 217.61"/><path class="cls-2" d="M401.94,119.58a116.31,116.31,0,0,1,4.78,22.85l4.76-17.87Z"/><polygon class="cls-1" points="370.29 177.57 381.58 208.22 415.3 255.13 427.3 262.38 450.05 262.38 465.7 254.53 498.65 201.49 526.71 149.87 496.05 167.42 471.44 153.47 470.87 111.12 448.62 89.73 425.94 103.1 411.98 145.19 386.27 169.64 368.86 153.85 370.29 177.57"/><path class="cls-2" d="M385.57,199.72l5.59,2.81s.23-24.8,7.4-43.13l-12.29,10.24-10.15-9.27C373.56,180.07,385.57,199.72,385.57,199.72Z"/><path class="cls-5" d="M391.16,202.53l20.84,12,14.66-19.84H455l15.16,21.84,18.07-12.21,3.77-2.46s1.26-61.22-38.82-79.94a28.43,28.43,0,0,0-23.5-.36C390.33,138.92,391.16,202.53,391.16,202.53Z"/><polygon class="cls-1" points="426.66 194.69 440.78 186.23 455 194.69 426.66 194.69"/><polygon class="cls-2" points="427.38 262.38 412.63 219.63 428.15 198.37 440.78 190.46 453.15 198.37 469.48 220.94 498.73 201.49 465.78 254.53 450.13 262.38 427.38 262.38"/><path class="cls-2" d="M486.31,164.35a116.82,116.82,0,0,1,4.77,22.85l4.77-17.86Z"/><polygon class="cls-1" points="101.37 132.66 112.66 163.31 146.38 210.22 158.38 217.47 181.13 217.47 196.78 209.62 229.73 156.58 257.79 104.96 227.13 122.51 202.52 108.56 201.95 66.21 179.7 44.82 157.02 58.19 143.06 100.28 117.35 124.73 99.94 108.94 101.37 132.66"/><path class="cls-2" d="M116.65,154.81l5.59,2.81s.23-24.8,7.4-43.13l-12.29,10.24-10.15-9.27C104.65,135.16,116.65,154.81,116.65,154.81Z"/><path class="cls-6" d="M122.24,157.62l20.84,12,14.66-19.84h28.34l15.16,21.84,18.07-12.21,3.77-2.46S224.34,95.73,184.26,77a28.43,28.43,0,0,0-23.5-.36C121.41,94,122.24,157.62,122.24,157.62Z"/><polygon class="cls-1" points="157.75 149.78 171.86 141.32 186.08 149.78 157.75 149.78"/><polygon class="cls-2" points="158.46 217.47 143.71 174.72 159.23 153.46 171.86 145.55 184.23 153.46 200.56 176.03 229.81 156.58 196.86 209.62 181.21 217.47 158.46 217.47"/><path class="cls-2" d="M217.39,119.44a116.82,116.82,0,0,1,4.77,22.85l4.77-17.86Z"/><polygon class="cls-1" points="185.88 177.62 197.16 208.26 230.89 255.18 242.89 262.43 265.64 262.43 281.29 254.57 314.24 201.53 342.3 149.92 311.64 167.46 287.03 153.51 286.46 111.16 264.21 89.77 241.53 103.15 227.57 145.24 201.86 169.69 184.45 153.89 185.88 177.62"/><path class="cls-2" d="M201.16,199.76l5.59,2.81s.23-24.79,7.4-43.13l-12.29,10.25-10.15-9.27C189.15,180.11,201.16,199.76,201.16,199.76Z"/><path class="cls-7" d="M206.75,202.57l20.84,12,14.66-19.83h28.34l15.16,21.83,18.07-12.21,3.77-2.46s1.26-61.22-38.82-79.94a28.43,28.43,0,0,0-23.5-.36C205.91,139,206.75,202.57,206.75,202.57Z"/><polygon class="cls-1" points="242.25 194.74 256.37 186.27 270.59 194.74 242.25 194.74"/><polygon class="cls-2" points="242.97 262.43 228.22 219.68 243.74 198.41 256.37 190.5 268.74 198.41 285.07 220.99 314.32 201.53 281.37 254.57 265.72 262.43 242.97 262.43"/><path class="cls-2" d="M301.9,164.4a116.82,116.82,0,0,1,4.77,22.85l4.77-17.87Z"/><polygon class="cls-1" points="1.43 177.39 12.72 208.04 46.44 254.96 58.44 262.21 81.19 262.21 96.84 254.35 129.79 201.31 157.85 149.69 127.19 167.24 102.58 153.29 102.01 110.94 79.76 89.55 57.08 102.92 43.12 145.01 17.41 169.46 0 153.67 1.43 177.39"/><path class="cls-2" d="M16.71,199.54l5.59,2.81s.23-24.79,7.4-43.13L17.41,169.46,7.26,160.2C4.71,179.89,16.71,199.54,16.71,199.54Z"/><path class="cls-8" d="M22.3,202.35l20.84,12L57.8,194.51H86.14l15.16,21.84,18.07-12.21,3.77-2.46s1.26-61.22-38.82-79.94a28.43,28.43,0,0,0-23.5-.36C21.47,138.74,22.3,202.35,22.3,202.35Z"/><polygon class="cls-1" points="57.8 194.51 71.92 186.05 86.14 194.51 57.8 194.51"/><polygon class="cls-2" points="58.52 262.21 43.77 219.46 59.29 198.19 71.92 190.28 84.29 198.19 100.62 220.77 129.87 201.31 96.92 254.35 81.27 262.21 58.52 262.21"/><path class="cls-2" d="M117.45,164.17A116.82,116.82,0,0,1,122.22,187L127,169.16Z"/><polygon class="cls-1" points="85.94 222.35 97.22 252.99 130.95 299.91 142.95 307.16 165.7 307.16 181.35 299.3 214.3 246.26 242.36 194.65 211.7 212.19 187.09 198.24 186.52 155.89 164.27 134.5 141.59 147.88 127.63 189.97 101.92 214.42 84.51 198.63 85.94 222.35"/><path class="cls-2" d="M101.22,244.49l5.59,2.81s.23-24.79,7.4-43.12l-12.29,10.24-10.15-9.27C89.21,224.84,101.22,244.49,101.22,244.49Z"/><path class="cls-9" d="M106.81,247.3l20.84,12,14.66-19.83h28.34l15.16,21.83,18.07-12.21,3.77-2.46s1.26-61.22-38.82-79.94a28.43,28.43,0,0,0-23.5-.36C106,183.7,106.81,247.3,106.81,247.3Z"/><polygon class="cls-1" points="142.31 239.47 156.43 231 170.65 239.47 142.31 239.47"/><polygon class="cls-2" points="143.03 307.16 128.28 264.41 143.8 243.14 156.43 235.23 168.8 243.14 185.13 265.72 214.38 246.26 181.43 299.3 165.78 307.16 143.03 307.16"/><path class="cls-2" d="M202,209.13A116.82,116.82,0,0,1,206.73,232l4.77-17.87Z"/><polygon class="cls-1" points="270.24 222.39 281.53 253.03 315.25 299.95 327.25 307.2 350 307.2 365.65 299.35 398.6 246.31 426.66 194.69 396 212.24 371.4 198.29 370.83 155.94 348.58 134.55 325.9 147.92 311.94 190.01 286.23 214.46 268.81 198.67 270.24 222.39"/><path class="cls-2" d="M285.53,244.54l5.59,2.8s.23-24.79,7.39-43.12l-12.29,10.24-10.14-9.27C273.52,224.89,285.53,244.54,285.53,244.54Z"/><path class="cls-10" d="M291.12,247.34l20.83,12,14.67-19.83H355l15.17,21.83,18.07-12.2,3.76-2.46s1.27-61.22-38.81-79.94a28.45,28.45,0,0,0-23.51-.36C290.28,183.74,291.12,247.34,291.12,247.34Z"/><polygon class="cls-1" points="326.62 239.51 340.73 231.05 354.95 239.51 326.62 239.51"/><polygon class="cls-2" points="327.34 307.2 312.59 264.45 328.11 243.19 340.73 235.28 353.11 243.19 369.44 265.76 398.69 246.31 365.74 299.35 350.09 307.2 327.34 307.2"/><path class="cls-2" d="M386.26,209.17A116.31,116.31,0,0,1,391,232l4.76-17.86Z"/><polygon class="cls-1" points="170.3 267.12 181.59 297.77 215.32 344.69 227.32 351.94 250.06 351.94 265.71 344.08 298.66 291.04 326.73 239.42 296.07 256.97 271.46 243.02 270.89 200.67 248.64 179.28 225.96 192.65 212 234.74 186.28 259.19 168.88 243.4 170.3 267.12"/><path class="cls-2" d="M185.59,289.27l5.59,2.81s.23-24.79,7.39-43.13l-12.29,10.24-10.14-9.26C173.58,269.62,185.59,289.27,185.59,289.27Z"/><path class="cls-11" d="M191.18,292.08l20.83,12,14.67-19.84H255l15.17,21.84,18.07-12.21,3.76-2.46s1.27-61.22-38.81-79.94a28.45,28.45,0,0,0-23.51-.36C190.34,228.47,191.18,292.08,191.18,292.08Z"/><polygon class="cls-1" points="226.68 284.24 240.79 275.78 255.01 284.24 226.68 284.24"/><polygon class="cls-2" points="227.4 351.94 212.65 309.19 228.17 287.92 240.79 280.01 253.17 287.92 269.5 310.5 298.75 291.04 265.8 344.08 250.15 351.94 227.4 351.94"/><path class="cls-2" d="M286.32,253.9a116.31,116.31,0,0,1,4.78,22.85l4.76-17.86Z"/><polygon class="cls-1" points="859.83 177.64 871.12 208.28 904.85 255.2 916.85 262.45 939.6 262.45 955.24 254.59 988.19 201.55 1016.25 149.94 985.6 167.48 960.99 153.53 960.42 111.18 938.17 89.8 915.49 103.17 901.53 145.26 875.81 169.71 858.4 153.92 859.83 177.64"/><path class="cls-2" d="M875.12,199.78l5.59,2.81s.23-24.79,7.39-43.12l-12.29,10.24-10.14-9.27C863.11,180.13,875.12,199.78,875.12,199.78Z"/><path class="cls-12" d="M880.71,202.59l20.83,12,14.67-19.83h28.33l15.17,21.83,18.07-12.21,3.76-2.46s1.27-61.22-38.81-79.94a28.45,28.45,0,0,0-23.51-.36C879.87,139,880.71,202.59,880.71,202.59Z"/><polygon class="cls-1" points="916.21 194.76 930.32 186.29 944.54 194.76 916.21 194.76"/><polygon class="cls-2" points="916.93 262.45 902.18 219.7 917.7 198.43 930.32 190.52 942.7 198.43 959.03 221.01 988.28 201.55 955.33 254.59 939.68 262.45 916.93 262.45"/><path class="cls-2" d="M975.85,164.42a116.31,116.31,0,0,1,4.78,22.85l4.76-17.87Z"/><polygon class="cls-1" points="759.85 222.39 771.14 253.03 804.87 299.95 816.87 307.2 839.62 307.2 855.26 299.35 888.21 246.31 916.27 194.69 885.62 212.24 861.01 198.29 860.44 155.94 838.19 134.55 815.51 147.92 801.55 190.01 775.84 214.46 758.42 198.67 759.85 222.39"/><path class="cls-2" d="M775.14,244.54l5.59,2.8s.23-24.79,7.39-43.12l-12.28,10.24-10.15-9.27C763.13,224.89,775.14,244.54,775.14,244.54Z"/><path class="cls-13" d="M780.73,247.34l20.83,12,14.67-19.83h28.33l15.17,21.83,18.07-12.2,3.76-2.46s1.27-61.22-38.81-79.94a28.45,28.45,0,0,0-23.51-.36C779.89,183.74,780.73,247.34,780.73,247.34Z"/><polygon class="cls-1" points="816.23 239.51 830.34 231.05 844.56 239.51 816.23 239.51"/><polygon class="cls-2" points="816.95 307.2 802.2 264.45 817.72 243.19 830.34 235.28 842.72 243.19 859.05 265.76 888.3 246.31 855.35 299.35 839.7 307.2 816.95 307.2"/><path class="cls-2" d="M875.87,209.17A116.31,116.31,0,0,1,880.65,232l4.76-17.86Z"/><polygon class="cls-1" points="659.91 267.12 671.2 297.77 704.93 344.69 716.93 351.94 739.68 351.94 755.32 344.08 788.27 291.04 816.34 239.42 785.68 256.97 761.07 243.02 760.5 200.67 738.25 179.28 715.57 192.65 701.61 234.74 675.89 259.19 658.49 243.4 659.91 267.12"/><path class="cls-2" d="M675.2,289.27l5.59,2.81s.23-24.79,7.39-43.13L675.9,259.19l-10.15-9.26C663.19,269.62,675.2,289.27,675.2,289.27Z"/><path class="cls-14" d="M680.79,292.08l20.83,12,14.67-19.84h28.33l15.17,21.84,18.07-12.21,3.76-2.46s1.27-61.22-38.81-79.94a28.45,28.45,0,0,0-23.51-.36C680,228.47,680.79,292.08,680.79,292.08Z"/><polygon class="cls-1" points="716.29 284.24 730.4 275.78 744.62 284.24 716.29 284.24"/><polygon class="cls-2" points="717.01 351.94 702.26 309.19 717.78 287.92 730.4 280.01 742.78 287.92 759.11 310.5 788.36 291.04 755.41 344.08 739.76 351.94 717.01 351.94"/><path class="cls-2" d="M775.93,253.9a116.31,116.31,0,0,1,4.78,22.85l4.76-17.86Z"/><path class="cls-15" d="M604.09,186.94h-7.84v-7.83a3.58,3.58,0,1,0-7.16,0v7.83h-7.84a3.59,3.59,0,0,0,0,7.17h7.84v7.83a3.58,3.58,0,0,0,7.16,0v-7.83h7.84a3.59,3.59,0,0,0,0-7.17Z"/></g></svg>