<svg xmlns="http://www.w3.org/2000/svg" xmlns:xlink="http://www.w3.org/1999/xlink" viewBox="0 0 825.64 307.12"><defs><style>.cls-1{fill:#62abbc;}.cls-2{fill:#3d838e;opacity:0.51;}.cls-3{fill:url(#linear-gradient);}.cls-4{fill:url(#linear-gradient-2);}.cls-5{fill:url(#linear-gradient-3);}.cls-6{fill:url(#linear-gradient-4);}.cls-7{fill:url(#linear-gradient-5);}.cls-8{fill:url(#linear-gradient-6);}.cls-9{fill:url(#linear-gradient-7);}.cls-10{fill:url(#linear-gradient-8);}.cls-11{fill:#f05023;}</style><linearGradient id="linear-gradient" x1="122.24" y1="78.13" x2="223.08" y2="78.13" gradientUnits="userSpaceOnUse"><stop offset="0" stop-color="#fbb040"/><stop offset="0.39" stop-color="#f9ae41"/><stop offset="0.59" stop-color="#f1a845"/><stop offset="0.74" stop-color="#e49e4b"/><stop offset="0.87" stop-color="#d18f55"/><stop offset="0.99" stop-color="#b97c60"/><stop offset="1" stop-color="#b67a62"/></linearGradient><linearGradient id="linear-gradient-2" x1="206.75" y1="123.08" x2="307.59" y2="123.08" xlink:href="#linear-gradient"/><linearGradient id="linear-gradient-3" x1="22.3" y1="122.86" x2="123.14" y2="122.86" xlink:href="#linear-gradient"/><linearGradient id="linear-gradient-4" x1="106.81" y1="167.81" x2="207.65" y2="167.81" xlink:href="#linear-gradient"/><linearGradient id="linear-gradient-5" x1="291.12" y1="167.86" x2="391.96" y2="167.86" xlink:href="#linear-gradient"/><linearGradient id="linear-gradient-6" x1="191.18" y1="212.59" x2="292.02" y2="212.59" xlink:href="#linear-gradient"/><linearGradient id="linear-gradient-7" x1="690.09" y1="167.86" x2="790.93" y2="167.86" xlink:href="#linear-gradient"/><linearGradient id="linear-gradient-8" x1="590.15" y1="212.59" x2="690.99" y2="212.59" xlink:href="#linear-gradient"/></defs><title>VT_R3</title><g id="Layer_2" data-name="Layer 2"><polygon class="cls-1" points="101.37 87.84 112.66 118.49 146.38 165.4 158.38 172.65 181.13 172.65 196.78 164.8 229.73 111.76 257.79 60.14 227.13 77.69 202.52 63.74 201.95 21.39 179.7 0 157.02 13.37 143.06 55.46 117.35 79.91 99.94 64.12 101.37 87.84"/><path class="cls-2" d="M116.65,110l5.59,2.81s.23-24.79,7.4-43.13L117.35,79.91,107.2,70.64C104.65,90.34,116.65,110,116.65,110Z"/><path class="cls-3" d="M122.24,112.8l20.84,12L157.74,105h28.34l15.16,21.84,18.07-12.21,3.77-2.46s1.26-61.22-38.82-79.94a28.43,28.43,0,0,0-23.5-.36C121.41,49.19,122.24,112.8,122.24,112.8Z"/><polygon class="cls-1" points="157.75 104.96 171.86 96.5 186.08 104.96 157.75 104.96"/><polygon class="cls-2" points="158.46 172.65 143.71 129.9 159.23 108.64 171.86 100.73 184.23 108.64 200.56 131.22 229.81 111.76 196.86 164.8 181.21 172.65 158.46 172.65"/><path class="cls-2" d="M217.39,74.62a116.82,116.82,0,0,1,4.77,22.85l4.77-17.86Z"/><polygon class="cls-1" points="185.88 132.79 197.16 163.44 230.89 210.36 242.89 217.61 265.64 217.61 281.29 209.75 314.24 156.71 342.3 105.1 311.64 122.64 287.03 108.69 286.46 66.34 264.21 44.95 241.53 58.33 227.57 100.42 201.86 124.87 184.45 109.07 185.88 132.79"/><path class="cls-2" d="M201.16,154.94l5.59,2.81s.23-24.79,7.4-43.12l-12.29,10.24-10.15-9.27C189.15,135.29,201.16,154.94,201.16,154.94Z"/><path class="cls-4" d="M206.75,157.75l20.84,12,14.66-19.83h28.34l15.16,21.83,18.07-12.21,3.77-2.46s1.26-61.22-38.82-79.94a28.43,28.43,0,0,0-23.5-.36C205.91,94.15,206.75,157.75,206.75,157.75Z"/><polygon class="cls-1" points="242.25 149.92 256.37 141.45 270.59 149.92 242.25 149.92"/><polygon class="cls-2" points="242.97 217.61 228.22 174.86 243.74 153.59 256.37 145.68 268.74 153.59 285.07 176.17 314.32 156.71 281.37 209.75 265.72 217.61 242.97 217.61"/><path class="cls-2" d="M301.9,119.58a116.82,116.82,0,0,1,4.77,22.85l4.77-17.87Z"/><polygon class="cls-1" points="1.43 132.57 12.72 163.22 46.44 210.14 58.44 217.39 81.19 217.39 96.84 209.53 129.79 156.49 157.85 104.87 127.19 122.42 102.58 108.47 102.01 66.12 79.76 44.73 57.08 58.1 43.12 100.19 17.41 124.64 0 108.85 1.43 132.57"/><path class="cls-2" d="M16.71,154.72l5.59,2.81s.23-24.79,7.4-43.13L17.41,124.64,7.26,115.38C4.71,135.07,16.71,154.72,16.71,154.72Z"/><path class="cls-5" d="M22.3,157.53l20.84,12L57.8,149.69H86.14l15.16,21.84,18.07-12.21,3.77-2.46s1.26-61.22-38.82-79.94a28.43,28.43,0,0,0-23.5-.36C21.47,93.92,22.3,157.53,22.3,157.53Z"/><polygon class="cls-1" points="57.8 149.69 71.92 141.23 86.14 149.69 57.8 149.69"/><polygon class="cls-2" points="58.52 217.39 43.77 174.64 59.29 153.37 71.92 145.46 84.29 153.37 100.62 175.95 129.87 156.49 96.92 209.53 81.27 217.39 58.52 217.39"/><path class="cls-2" d="M117.45,119.35a117,117,0,0,1,4.77,22.85L127,124.34Z"/><polygon class="cls-1" points="85.94 177.53 97.22 208.17 130.95 255.09 142.95 262.34 165.7 262.34 181.35 254.48 214.3 201.44 242.36 149.83 211.7 167.37 187.09 153.43 186.52 111.07 164.27 89.69 141.59 103.06 127.63 145.15 101.92 169.6 84.51 153.81 85.94 177.53"/><path class="cls-2" d="M101.22,199.67l5.59,2.81s.23-24.79,7.4-43.12L101.92,169.6l-10.15-9.27C89.21,180,101.22,199.67,101.22,199.67Z"/><path class="cls-6" d="M106.81,202.48l20.84,12,14.66-19.83h28.34l15.16,21.83,18.07-12.21,3.77-2.46s1.26-61.22-38.82-79.94a28.43,28.43,0,0,0-23.5-.36C106,138.88,106.81,202.48,106.81,202.48Z"/><polygon class="cls-1" points="142.31 194.65 156.43 186.18 170.65 194.65 142.31 194.65"/><polygon class="cls-2" points="143.03 262.34 128.28 219.59 143.8 198.32 156.43 190.41 168.8 198.32 185.13 220.9 214.38 201.44 181.43 254.48 165.78 262.34 143.03 262.34"/><path class="cls-2" d="M202,164.31a116.82,116.82,0,0,1,4.77,22.85l4.77-17.87Z"/><polygon class="cls-1" points="270.24 177.57 281.53 208.22 315.25 255.13 327.25 262.38 350 262.38 365.65 254.53 398.6 201.49 426.66 149.87 396 167.42 371.4 153.47 370.83 111.12 348.58 89.73 325.9 103.1 311.94 145.19 286.23 169.64 268.81 153.85 270.24 177.57"/><path class="cls-2" d="M285.53,199.72l5.59,2.81s.23-24.8,7.39-43.13l-12.29,10.24-10.14-9.27C273.52,180.07,285.53,199.72,285.53,199.72Z"/><path class="cls-7" d="M291.12,202.53l20.83,12,14.67-19.84H355l15.17,21.84,18.07-12.21,3.76-2.46s1.27-61.22-38.81-79.94a28.45,28.45,0,0,0-23.51-.36C290.28,138.92,291.12,202.53,291.12,202.53Z"/><polygon class="cls-1" points="326.62 194.69 340.73 186.23 354.95 194.69 326.62 194.69"/><polygon class="cls-2" points="327.34 262.38 312.59 219.63 328.11 198.37 340.73 190.46 353.11 198.37 369.44 220.94 398.69 201.49 365.74 254.53 350.09 262.38 327.34 262.38"/><path class="cls-2" d="M386.26,164.35A116.31,116.31,0,0,1,391,187.2l4.76-17.86Z"/><polygon class="cls-1" points="170.3 222.3 181.59 252.95 215.32 299.87 227.32 307.12 250.06 307.12 265.71 299.26 298.66 246.22 326.73 194.6 296.07 212.15 271.46 198.2 270.89 155.85 248.64 134.46 225.96 147.84 212 189.92 186.28 214.37 168.88 198.58 170.3 222.3"/><path class="cls-2" d="M185.59,244.45l5.59,2.81s.23-24.79,7.39-43.13l-12.29,10.24-10.14-9.26C173.58,224.8,185.59,244.45,185.59,244.45Z"/><path class="cls-8" d="M191.18,247.26l20.83,12,14.67-19.84H255l15.17,21.84,18.07-12.21,3.76-2.46s1.27-61.22-38.81-79.94a28.45,28.45,0,0,0-23.51-.36C190.34,183.65,191.18,247.26,191.18,247.26Z"/><polygon class="cls-1" points="226.68 239.42 240.79 230.96 255.01 239.42 226.68 239.42"/><polygon class="cls-2" points="227.4 307.12 212.65 264.37 228.17 243.1 240.79 235.19 253.17 243.1 269.5 265.68 298.75 246.22 265.8 299.26 250.15 307.12 227.4 307.12"/><path class="cls-2" d="M286.32,209.08a116.31,116.31,0,0,1,4.78,22.85l4.76-17.86Z"/><polygon class="cls-1" points="669.22 177.57 680.5 208.22 714.23 255.13 726.23 262.38 748.98 262.38 764.63 254.53 797.58 201.49 825.64 149.87 794.98 167.42 770.37 153.47 769.8 111.12 747.55 89.73 724.87 103.1 710.91 145.19 685.2 169.64 667.79 153.85 669.22 177.57"/><path class="cls-2" d="M684.5,199.72l5.59,2.81s.23-24.8,7.4-43.13L685.2,169.64l-10.15-9.27C672.49,180.07,684.5,199.72,684.5,199.72Z"/><path class="cls-9" d="M690.09,202.53l20.84,12,14.66-19.84h28.34l15.16,21.84,18.07-12.21,3.77-2.46s1.26-61.22-38.82-79.94a28.43,28.43,0,0,0-23.5-.36C689.26,138.92,690.09,202.53,690.09,202.53Z"/><polygon class="cls-1" points="725.59 194.69 739.71 186.23 753.93 194.69 725.59 194.69"/><polygon class="cls-2" points="726.31 262.38 711.56 219.63 727.08 198.37 739.71 190.46 752.08 198.37 768.41 220.94 797.66 201.49 764.71 254.53 749.06 262.38 726.31 262.38"/><path class="cls-2" d="M785.24,164.35A116.82,116.82,0,0,1,790,187.2l4.77-17.86Z"/><polygon class="cls-1" points="569.28 222.3 580.57 252.95 614.29 299.87 626.29 307.12 649.04 307.12 664.69 299.26 697.64 246.22 725.7 194.6 695.04 212.15 670.43 198.2 669.86 155.85 647.61 134.46 624.93 147.84 610.97 189.92 585.26 214.37 567.85 198.58 569.28 222.3"/><path class="cls-2" d="M584.56,244.45l5.59,2.81s.23-24.79,7.4-43.13l-12.29,10.24-10.15-9.26C572.55,224.8,584.56,244.45,584.56,244.45Z"/><path class="cls-10" d="M590.15,247.26l20.84,12,14.66-19.84H654l15.16,21.84,18.07-12.21,3.77-2.46s1.26-61.22-38.82-79.94a28.43,28.43,0,0,0-23.5-.36C589.32,183.65,590.15,247.26,590.15,247.26Z"/><polygon class="cls-1" points="625.65 239.42 639.77 230.96 653.99 239.42 625.65 239.42"/><polygon class="cls-2" points="626.37 307.12 611.62 264.37 627.14 243.1 639.77 235.19 652.14 243.1 668.47 265.68 697.72 246.22 664.77 299.26 649.12 307.12 626.37 307.12"/><path class="cls-2" d="M685.3,209.08a116.82,116.82,0,0,1,4.77,22.85l4.77-17.86Z"/><path class="cls-11" d="M512.24,186.94h-7.83v-7.83a3.59,3.59,0,1,0-7.17,0v7.83h-7.83a3.59,3.59,0,0,0,0,7.17h7.83v7.83a3.59,3.59,0,0,0,7.17,0v-7.83h7.83a3.59,3.59,0,1,0,0-7.17Z"/></g></svg>