<svg xmlns="http://www.w3.org/2000/svg" xmlns:xlink="http://www.w3.org/1999/xlink" viewBox="0 0 2178.15 639.34"><defs><style>.cls-1{fill:#62abbc;}.cls-2{fill:#3d838e;opacity:0.51;}.cls-3{fill:url(#linear-gradient);}.cls-4{fill:url(#linear-gradient-2);}.cls-5{fill:url(#linear-gradient-3);}.cls-6{fill:url(#linear-gradient-4);}.cls-7{fill:url(#linear-gradient-5);}.cls-8{fill:url(#linear-gradient-6);}.cls-9{fill:url(#linear-gradient-7);}.cls-10{fill:url(#linear-gradient-8);}.cls-11{fill:url(#linear-gradient-9);}.cls-12{fill:url(#linear-gradient-10);}.cls-13{fill:url(#linear-gradient-11);}.cls-14{fill:url(#linear-gradient-12);}.cls-15{fill:url(#linear-gradient-13);}.cls-16{fill:url(#linear-gradient-14);}.cls-17{fill:url(#linear-gradient-15);}.cls-18{fill:url(#linear-gradient-16);}.cls-19{fill:url(#linear-gradient-17);}.cls-20{fill:url(#linear-gradient-18);}.cls-21{fill:url(#linear-gradient-19);}.cls-22{fill:url(#linear-gradient-20);}.cls-23{fill:url(#linear-gradient-21);}.cls-24{fill:url(#linear-gradient-22);}.cls-25{fill:url(#linear-gradient-23);}.cls-26{fill:url(#linear-gradient-24);}.cls-27{fill:url(#linear-gradient-25);}.cls-28{fill:url(#linear-gradient-26);}.cls-29{fill:url(#linear-gradient-27);}.cls-30{fill:url(#linear-gradient-28);}.cls-31{fill:url(#linear-gradient-29);}.cls-32{fill:url(#linear-gradient-30);}.cls-33{fill:url(#linear-gradient-31);}.cls-34{fill:url(#linear-gradient-32);}.cls-35{fill:#f05023;}</style><linearGradient id="linear-gradient" x1="322.19" y1="97.23" x2="423.03" y2="97.23" gradientUnits="userSpaceOnUse"><stop offset="0" stop-color="#fbb040"/><stop offset="0.39" stop-color="#f9ae41"/><stop offset="0.59" stop-color="#f1a845"/><stop offset="0.74" stop-color="#e49e4b"/><stop offset="0.87" stop-color="#d18f55"/><stop offset="0.99" stop-color="#b97c60"/><stop offset="1" stop-color="#b67a62"/></linearGradient><linearGradient id="linear-gradient-2" x1="406.7" y1="142.18" x2="507.54" y2="142.18" xlink:href="#linear-gradient"/><linearGradient id="linear-gradient-3" x1="222.25" y1="141.96" x2="323.09" y2="141.96" xlink:href="#linear-gradient"/><linearGradient id="linear-gradient-4" x1="306.76" y1="186.91" x2="407.6" y2="186.91" xlink:href="#linear-gradient"/><linearGradient id="linear-gradient-5" x1="491.07" y1="186.95" x2="591.91" y2="186.95" xlink:href="#linear-gradient"/><linearGradient id="linear-gradient-6" x1="391.13" y1="231.69" x2="491.97" y2="231.69" xlink:href="#linear-gradient"/><linearGradient id="linear-gradient-7" x1="575.4" y1="231.65" x2="676.23" y2="231.65" xlink:href="#linear-gradient"/><linearGradient id="linear-gradient-8" x1="475.46" y1="276.38" x2="576.3" y2="276.38" xlink:href="#linear-gradient"/><linearGradient id="linear-gradient-9" x1="122.24" y1="186.74" x2="223.08" y2="186.74" xlink:href="#linear-gradient"/><linearGradient id="linear-gradient-10" x1="206.75" y1="231.69" x2="307.59" y2="231.69" xlink:href="#linear-gradient"/><linearGradient id="linear-gradient-11" x1="22.3" y1="231.47" x2="123.14" y2="231.47" xlink:href="#linear-gradient"/><linearGradient id="linear-gradient-12" x1="106.81" y1="276.42" x2="207.65" y2="276.42" xlink:href="#linear-gradient"/><linearGradient id="linear-gradient-13" x1="291.12" y1="276.47" x2="391.96" y2="276.47" xlink:href="#linear-gradient"/><linearGradient id="linear-gradient-14" x1="191.18" y1="321.2" x2="292.02" y2="321.2" xlink:href="#linear-gradient"/><linearGradient id="linear-gradient-15" x1="375.45" y1="321.16" x2="476.29" y2="321.16" xlink:href="#linear-gradient"/><linearGradient id="linear-gradient-16" x1="275.51" y1="365.89" x2="376.35" y2="365.89" xlink:href="#linear-gradient"/><linearGradient id="linear-gradient-17" x1="659.69" y1="276.15" x2="760.53" y2="276.15" xlink:href="#linear-gradient"/><linearGradient id="linear-gradient-18" x1="744.2" y1="321.11" x2="845.04" y2="321.11" xlink:href="#linear-gradient"/><linearGradient id="linear-gradient-19" x1="559.75" y1="320.89" x2="660.59" y2="320.89" xlink:href="#linear-gradient"/><linearGradient id="linear-gradient-20" x1="644.26" y1="365.84" x2="745.1" y2="365.84" xlink:href="#linear-gradient"/><linearGradient id="linear-gradient-21" x1="828.57" y1="365.88" x2="929.41" y2="365.88" xlink:href="#linear-gradient"/><linearGradient id="linear-gradient-22" x1="728.63" y1="410.61" x2="829.47" y2="410.61" xlink:href="#linear-gradient"/><linearGradient id="linear-gradient-23" x1="912.9" y1="410.57" x2="1013.74" y2="410.57" xlink:href="#linear-gradient"/><linearGradient id="linear-gradient-24" x1="812.96" y1="455.31" x2="913.8" y2="455.31" xlink:href="#linear-gradient"/><linearGradient id="linear-gradient-25" x1="459.74" y1="365.67" x2="560.58" y2="365.67" xlink:href="#linear-gradient"/><linearGradient id="linear-gradient-26" x1="544.25" y1="410.62" x2="645.09" y2="410.62" xlink:href="#linear-gradient"/><linearGradient id="linear-gradient-27" x1="359.8" y1="410.4" x2="460.64" y2="410.4" xlink:href="#linear-gradient"/><linearGradient id="linear-gradient-28" x1="444.31" y1="455.35" x2="545.15" y2="455.35" xlink:href="#linear-gradient"/><linearGradient id="linear-gradient-29" x1="628.62" y1="455.4" x2="729.46" y2="455.4" xlink:href="#linear-gradient"/><linearGradient id="linear-gradient-30" x1="528.68" y1="500.13" x2="629.52" y2="500.13" xlink:href="#linear-gradient"/><linearGradient id="linear-gradient-31" x1="712.95" y1="500.09" x2="813.79" y2="500.09" xlink:href="#linear-gradient"/><linearGradient id="linear-gradient-32" x1="613.01" y1="544.82" x2="713.85" y2="544.82" xlink:href="#linear-gradient"/></defs><title>V1_E1</title><g id="Layer_2" data-name="Layer 2"><polygon class="cls-1" points="301.32 106.94 312.61 137.58 346.33 184.5 358.33 191.75 381.08 191.75 396.73 183.9 429.68 130.85 457.74 79.24 427.08 96.78 402.47 82.84 401.9 40.48 379.65 19.1 356.97 32.47 343.01 74.56 317.3 99.01 299.89 83.22 301.32 106.94"/><path class="cls-2" d="M316.6,129.08l5.59,2.81s.23-24.79,7.4-43.12L317.3,99l-10.15-9.27C304.59,109.43,316.6,129.08,316.6,129.08Z"/><path class="cls-3" d="M322.19,131.89l20.84,12,14.66-19.83H386l15.16,21.83,18.07-12.2,3.77-2.46S424.29,70,384.21,51.28a28.5,28.5,0,0,0-23.5-.36C321.36,68.29,322.19,131.89,322.19,131.89Z"/><polygon class="cls-1" points="357.69 124.06 371.81 115.59 386.03 124.06 357.69 124.06"/><polygon class="cls-2" points="358.41 191.75 343.66 149 359.18 127.73 371.81 119.83 384.18 127.73 400.51 150.31 429.76 130.85 396.81 183.9 381.16 191.75 358.41 191.75"/><path class="cls-2" d="M417.34,93.72a116.82,116.82,0,0,1,4.77,22.85l4.77-17.87Z"/><polygon class="cls-1" points="385.82 151.89 397.11 182.54 430.84 229.45 442.84 236.7 465.59 236.7 481.24 228.85 514.19 175.81 542.25 124.19 511.59 141.74 486.98 127.79 486.41 85.44 464.16 64.05 441.48 77.42 427.52 119.51 401.81 143.96 384.4 128.17 385.82 151.89"/><path class="cls-2" d="M401.11,174l5.59,2.81s.23-24.8,7.39-43.13L401.81,144l-10.15-9.27C389.1,154.39,401.11,174,401.11,174Z"/><path class="cls-4" d="M406.7,176.85l20.84,12L442.2,169h28.34l15.16,21.84,18.07-12.21,3.77-2.46S508.8,115,468.72,96.24a28.43,28.43,0,0,0-23.5-.36C405.86,113.24,406.7,176.85,406.7,176.85Z"/><polygon class="cls-1" points="442.2 169.01 456.31 160.55 470.54 169.01 442.2 169.01"/><polygon class="cls-2" points="442.92 236.7 428.17 193.95 443.69 172.69 456.31 164.78 468.69 172.69 485.02 195.26 514.27 175.81 481.32 228.85 465.67 236.7 442.92 236.7"/><path class="cls-2" d="M501.85,138.67a116.82,116.82,0,0,1,4.77,22.85l4.77-17.86Z"/><polygon class="cls-1" points="201.38 151.67 212.67 182.31 246.39 229.23 258.39 236.48 281.14 236.48 296.79 228.63 329.74 175.58 357.8 123.97 327.14 141.52 302.53 127.57 301.96 85.22 279.71 63.83 257.03 77.2 243.07 119.29 217.36 143.74 199.95 127.95 201.38 151.67"/><path class="cls-2" d="M216.66,173.82l5.59,2.8s.23-24.79,7.4-43.12l-12.29,10.24-10.15-9.27C204.65,154.17,216.66,173.82,216.66,173.82Z"/><path class="cls-5" d="M222.25,176.62l20.84,12,14.66-19.83h28.34l15.16,21.83,18.07-12.2,3.77-2.46s1.26-61.23-38.82-79.95a28.47,28.47,0,0,0-23.5-.35C221.42,113,222.25,176.62,222.25,176.62Z"/><polygon class="cls-1" points="257.75 168.79 271.87 160.32 286.09 168.79 257.75 168.79"/><polygon class="cls-2" points="258.47 236.48 243.72 193.73 259.24 172.46 271.87 164.56 284.24 172.46 300.57 195.04 329.82 175.58 296.87 228.63 281.22 236.48 258.47 236.48"/><path class="cls-2" d="M317.4,138.45a116.82,116.82,0,0,1,4.77,22.85l4.77-17.86Z"/><polygon class="cls-1" points="285.88 196.62 297.17 227.27 330.9 274.19 342.9 281.44 365.65 281.44 381.3 273.58 414.25 220.54 442.31 168.92 411.65 186.47 387.04 172.52 386.47 130.17 364.22 108.78 341.54 122.16 327.58 164.24 301.87 188.69 284.46 172.9 285.88 196.62"/><path class="cls-2" d="M301.17,218.77l5.59,2.81s.23-24.79,7.4-43.13l-12.29,10.24-10.15-9.26C289.16,199.12,301.17,218.77,301.17,218.77Z"/><path class="cls-6" d="M306.76,221.58l20.84,12,14.66-19.84H370.6l15.16,21.84,18.07-12.21,3.77-2.46s1.26-61.22-38.82-79.94a28.43,28.43,0,0,0-23.5-.36C305.92,158,306.76,221.58,306.76,221.58Z"/><polygon class="cls-1" points="342.26 213.74 356.38 205.28 370.6 213.74 342.26 213.74"/><polygon class="cls-2" points="342.98 281.44 328.23 238.69 343.75 217.42 356.38 209.51 368.75 217.42 385.08 240 414.33 220.54 381.38 273.58 365.73 281.44 342.98 281.44"/><path class="cls-2" d="M401.91,183.4a116.82,116.82,0,0,1,4.77,22.85l4.77-17.86Z"/><polygon class="cls-1" points="470.19 196.67 481.48 227.31 515.21 274.23 527.21 281.48 549.95 281.48 565.6 273.63 598.55 220.58 626.61 168.97 595.96 186.51 571.35 172.57 570.78 130.21 548.53 108.83 525.85 122.2 511.89 164.29 486.17 188.74 468.76 172.95 470.19 196.67"/><path class="cls-2" d="M485.48,218.81l5.59,2.81s.22-24.79,7.39-43.12l-12.29,10.24L476,179.47C473.47,199.16,485.48,218.81,485.48,218.81Z"/><path class="cls-7" d="M491.07,221.62l20.83,12,14.67-19.83H554.9l15.17,21.83,18.07-12.2L591.9,221s1.27-61.22-38.81-79.94a28.53,28.53,0,0,0-23.51-.36C490.23,158,491.07,221.62,491.07,221.62Z"/><polygon class="cls-1" points="526.57 213.79 540.68 205.32 554.9 213.79 526.57 213.79"/><polygon class="cls-2" points="527.29 281.48 512.54 238.73 528.06 217.46 540.68 209.56 553.06 217.46 569.39 240.04 598.64 220.58 565.69 273.63 550.04 281.48 527.29 281.48"/><path class="cls-2" d="M586.21,183.45A116.31,116.31,0,0,1,591,206.3l4.76-17.87Z"/><polygon class="cls-1" points="370.25 241.4 381.54 272.04 415.26 318.96 427.26 326.21 450.01 326.21 465.66 318.36 498.61 265.31 526.67 213.7 496.01 231.25 471.41 217.3 470.84 174.94 448.59 153.56 425.91 166.93 411.95 209.02 386.23 233.47 368.82 217.68 370.25 241.4"/><path class="cls-2" d="M385.54,263.54l5.59,2.81s.22-24.79,7.39-43.12l-12.29,10.24-10.14-9.27C373.53,243.89,385.54,263.54,385.54,263.54Z"/><path class="cls-8" d="M391.13,266.35l20.83,12,14.67-19.83H455l15.17,21.83,18.07-12.2,3.76-2.46s1.27-61.23-38.81-79.95a28.53,28.53,0,0,0-23.51-.36C390.29,202.75,391.13,266.35,391.13,266.35Z"/><polygon class="cls-1" points="426.63 258.52 440.74 250.06 454.96 258.52 426.63 258.52"/><polygon class="cls-2" points="427.35 326.21 412.6 283.46 428.12 262.19 440.74 254.29 453.12 262.19 469.45 284.77 498.7 265.31 465.75 318.36 450.1 326.21 427.35 326.21"/><path class="cls-2" d="M486.27,228.18A116.31,116.31,0,0,1,491.05,251l4.76-17.87Z"/><polygon class="cls-1" points="554.52 241.36 565.81 272 599.53 318.92 611.53 326.17 634.28 326.17 649.93 318.32 682.88 265.27 710.94 213.66 680.28 231.21 655.67 217.26 655.11 174.9 632.86 153.52 610.17 166.89 596.21 208.98 570.5 233.43 553.09 217.64 554.52 241.36"/><path class="cls-2" d="M569.81,263.5l5.59,2.81s.22-24.79,7.39-43.12L570.5,233.43l-10.15-9.27C557.8,243.85,569.81,263.5,569.81,263.5Z"/><path class="cls-9" d="M575.4,266.31l20.83,12,14.67-19.83h28.33l15.17,21.83,18.06-12.2,3.77-2.46s1.27-61.23-38.82-79.95a28.5,28.5,0,0,0-23.5-.36C574.56,202.71,575.4,266.31,575.4,266.31Z"/><polygon class="cls-1" points="610.9 258.48 625.01 250.01 639.23 258.48 610.9 258.48"/><polygon class="cls-2" points="611.62 326.17 596.87 283.42 612.38 262.15 625.01 254.25 637.38 262.15 653.71 284.73 682.96 265.27 650.01 318.32 634.37 326.17 611.62 326.17"/><path class="cls-2" d="M670.54,228.14A116.82,116.82,0,0,1,675.31,251l4.77-17.87Z"/><polygon class="cls-1" points="454.58 286.09 465.87 316.73 499.59 363.65 511.59 370.9 534.34 370.9 549.99 363.05 582.94 310 611 258.39 580.34 275.94 555.74 261.99 555.17 219.64 532.92 198.25 510.24 211.62 496.27 253.71 470.56 278.16 453.15 262.37 454.58 286.09"/><path class="cls-2" d="M469.87,308.24l5.59,2.8s.22-24.79,7.39-43.12l-12.29,10.24-10.15-9.27C457.86,288.59,469.87,308.24,469.87,308.24Z"/><path class="cls-10" d="M475.46,311l20.83,12L511,303.21h28.33L554.46,325l18.06-12.2,3.77-2.46s1.27-61.23-38.82-79.95a28.46,28.46,0,0,0-23.5-.35C474.62,247.44,475.46,311,475.46,311Z"/><polygon class="cls-1" points="510.96 303.21 525.07 294.75 539.29 303.21 510.96 303.21"/><polygon class="cls-2" points="511.68 370.9 496.93 328.15 512.44 306.88 525.07 298.98 537.44 306.88 553.77 329.46 583.02 310 550.07 363.05 534.43 370.9 511.68 370.9"/><path class="cls-2" d="M570.6,272.87a116.82,116.82,0,0,1,4.77,22.85l4.77-17.86Z"/><polygon class="cls-1" points="101.37 196.45 112.66 227.09 146.38 274.01 158.38 281.26 181.13 281.26 196.78 273.41 229.73 220.37 257.79 168.75 227.13 186.3 202.52 172.35 201.95 130 179.7 108.61 157.02 121.98 143.06 164.07 117.35 188.52 99.94 172.73 101.37 196.45"/><path class="cls-2" d="M116.65,218.6l5.59,2.81s.23-24.8,7.4-43.13l-12.29,10.24-10.15-9.27C104.65,199,116.65,218.6,116.65,218.6Z"/><path class="cls-11" d="M122.24,221.41l20.84,12,14.66-19.84h28.34l15.16,21.84,18.07-12.21,3.77-2.46s1.26-61.22-38.82-79.94a28.43,28.43,0,0,0-23.5-.36C121.41,157.8,122.24,221.41,122.24,221.41Z"/><polygon class="cls-1" points="157.75 213.57 171.86 205.11 186.08 213.57 157.75 213.57"/><polygon class="cls-2" points="158.46 281.26 143.71 238.51 159.23 217.25 171.86 209.34 184.23 217.25 200.56 239.82 229.81 220.37 196.86 273.41 181.21 281.26 158.46 281.26"/><path class="cls-2" d="M217.39,183.23a116.82,116.82,0,0,1,4.77,22.85l4.77-17.86Z"/><polygon class="cls-1" points="185.88 241.4 197.16 272.05 230.89 318.97 242.89 326.22 265.64 326.22 281.29 318.36 314.24 265.32 342.3 213.71 311.64 231.25 287.03 217.3 286.46 174.95 264.21 153.56 241.53 166.94 227.57 209.03 201.86 233.48 184.45 217.68 185.88 241.4"/><path class="cls-2" d="M201.16,263.55l5.59,2.81s.23-24.79,7.4-43.13l-12.29,10.25-10.15-9.27C189.15,243.9,201.16,263.55,201.16,263.55Z"/><path class="cls-12" d="M206.75,266.36l20.84,12,14.66-19.83h28.34l15.16,21.83,18.07-12.21,3.77-2.46s1.26-61.22-38.82-79.94a28.43,28.43,0,0,0-23.5-.36C205.91,202.76,206.75,266.36,206.75,266.36Z"/><polygon class="cls-1" points="242.25 258.52 256.37 250.06 270.59 258.52 242.25 258.52"/><polygon class="cls-2" points="242.97 326.22 228.22 283.47 243.74 262.2 256.37 254.29 268.74 262.2 285.07 284.78 314.32 265.32 281.37 318.36 265.72 326.22 242.97 326.22"/><path class="cls-2" d="M301.9,228.19A116.82,116.82,0,0,1,306.67,251l4.77-17.87Z"/><polygon class="cls-1" points="1.43 241.18 12.72 271.83 46.44 318.75 58.44 326 81.19 326 96.84 318.14 129.79 265.1 157.85 213.48 127.19 231.03 102.58 217.08 102.01 174.73 79.76 153.34 57.08 166.72 43.12 208.8 17.41 233.25 0 217.46 1.43 241.18"/><path class="cls-2" d="M16.71,263.33l5.59,2.81s.23-24.79,7.4-43.13L17.41,233.25,7.26,224C4.71,243.68,16.71,263.33,16.71,263.33Z"/><path class="cls-13" d="M22.3,266.14l20.84,12L57.8,258.3H86.14l15.16,21.84,18.07-12.21,3.77-2.46s1.26-61.22-38.82-79.94a28.43,28.43,0,0,0-23.5-.36C21.47,202.53,22.3,266.14,22.3,266.14Z"/><polygon class="cls-1" points="57.8 258.3 71.92 249.84 86.14 258.3 57.8 258.3"/><polygon class="cls-2" points="58.52 326 43.77 283.25 59.29 261.98 71.92 254.07 84.29 261.98 100.62 284.56 129.87 265.1 96.92 318.14 81.27 326 58.52 326"/><path class="cls-2" d="M117.45,228a116.82,116.82,0,0,1,4.77,22.85L127,233Z"/><polygon class="cls-1" points="85.94 286.14 97.22 316.78 130.95 363.7 142.95 370.95 165.7 370.95 181.35 363.09 214.3 310.05 242.36 258.44 211.7 275.98 187.09 262.03 186.52 219.68 164.27 198.29 141.59 211.67 127.63 253.76 101.92 278.21 84.51 262.42 85.94 286.14"/><path class="cls-2" d="M101.22,308.28l5.59,2.81s.23-24.79,7.4-43.12l-12.29,10.24-10.15-9.27C89.21,288.63,101.22,308.28,101.22,308.28Z"/><path class="cls-14" d="M106.81,311.09l20.84,12,14.66-19.83h28.34l15.16,21.83,18.07-12.21,3.77-2.46s1.26-61.22-38.82-79.94a28.43,28.43,0,0,0-23.5-.36C106,247.49,106.81,311.09,106.81,311.09Z"/><polygon class="cls-1" points="142.31 303.26 156.43 294.79 170.65 303.26 142.31 303.26"/><polygon class="cls-2" points="143.03 370.95 128.28 328.2 143.8 306.93 156.43 299.02 168.8 306.93 185.13 329.51 214.38 310.05 181.43 363.09 165.78 370.95 143.03 370.95"/><path class="cls-2" d="M202,272.92a116.82,116.82,0,0,1,4.77,22.85l4.77-17.87Z"/><polygon class="cls-1" points="270.24 286.18 281.53 316.82 315.25 363.74 327.25 370.99 350 370.99 365.65 363.14 398.6 310.1 426.66 258.48 396 276.03 371.4 262.08 370.83 219.73 348.58 198.34 325.9 211.71 311.94 253.8 286.23 278.25 268.81 262.46 270.24 286.18"/><path class="cls-2" d="M285.53,308.33l5.59,2.8s.23-24.79,7.39-43.12l-12.29,10.24L276.08,269C273.52,288.68,285.53,308.33,285.53,308.33Z"/><path class="cls-15" d="M291.12,311.13l20.83,12,14.67-19.83H355l15.17,21.83,18.07-12.2,3.76-2.46s1.27-61.22-38.81-79.94a28.45,28.45,0,0,0-23.51-.36C290.28,247.53,291.12,311.13,291.12,311.13Z"/><polygon class="cls-1" points="326.62 303.3 340.73 294.84 354.95 303.3 326.62 303.3"/><polygon class="cls-2" points="327.34 370.99 312.59 328.24 328.11 306.98 340.73 299.07 353.11 306.98 369.44 329.55 398.69 310.1 365.74 363.14 350.09 370.99 327.34 370.99"/><path class="cls-2" d="M386.26,273A116.31,116.31,0,0,1,391,295.81L395.8,278Z"/><polygon class="cls-1" points="170.3 330.91 181.59 361.56 215.32 408.48 227.32 415.73 250.06 415.73 265.71 407.87 298.66 354.83 326.73 303.21 296.07 320.76 271.46 306.81 270.89 264.46 248.64 243.07 225.96 256.44 212 298.53 186.28 322.98 168.88 307.19 170.3 330.91"/><path class="cls-2" d="M185.59,353.06l5.59,2.81s.23-24.79,7.39-43.13L186.28,323l-10.14-9.26C173.58,333.41,185.59,353.06,185.59,353.06Z"/><path class="cls-16" d="M191.18,355.87l20.83,12L226.68,348H255l15.17,21.84,18.07-12.21L292,355.2s1.27-61.22-38.81-79.94a28.45,28.45,0,0,0-23.51-.36C190.34,292.26,191.18,355.87,191.18,355.87Z"/><polygon class="cls-1" points="226.68 348.03 240.79 339.57 255.01 348.03 226.68 348.03"/><polygon class="cls-2" points="227.4 415.73 212.65 372.98 228.17 351.71 240.79 343.8 253.17 351.71 269.5 374.29 298.75 354.83 265.8 407.87 250.15 415.73 227.4 415.73"/><path class="cls-2" d="M286.32,317.69a116.31,116.31,0,0,1,4.78,22.85l4.76-17.86Z"/><polygon class="cls-1" points="354.57 330.87 365.86 361.52 399.58 408.44 411.58 415.69 434.33 415.69 449.98 407.83 482.93 354.79 510.99 303.17 480.33 320.72 455.73 306.77 455.16 264.42 432.91 243.03 410.23 256.4 396.26 298.49 370.55 322.94 353.14 307.15 354.57 330.87"/><path class="cls-2" d="M369.86,353l5.59,2.81s.22-24.79,7.39-43.13l-12.29,10.24-10.15-9.27C357.85,333.37,369.86,353,369.86,353Z"/><path class="cls-17" d="M375.45,355.83l20.83,12L411,348h28.33l15.17,21.84,18.06-12.21,3.77-2.46s1.27-61.22-38.81-79.94a28.45,28.45,0,0,0-23.51-.36C374.61,292.22,375.45,355.83,375.45,355.83Z"/><polygon class="cls-1" points="410.95 347.99 425.06 339.53 439.28 347.99 410.95 347.99"/><polygon class="cls-2" points="411.67 415.69 396.92 372.94 412.44 351.67 425.06 343.76 437.44 351.67 453.76 374.25 483.01 354.79 450.06 407.83 434.42 415.69 411.67 415.69"/><path class="cls-2" d="M470.59,317.65a117.21,117.21,0,0,1,4.78,22.85l4.76-17.86Z"/><polygon class="cls-1" points="254.63 375.6 265.92 406.25 299.64 453.17 311.64 460.42 334.39 460.42 350.04 452.56 382.99 399.52 411.05 347.9 380.39 365.45 355.79 351.5 355.22 309.15 332.97 287.76 310.29 301.13 296.32 343.22 270.61 367.68 253.2 351.88 254.63 375.6"/><path class="cls-2" d="M269.92,397.75l5.59,2.81s.22-24.79,7.39-43.13l-12.29,10.24-10.15-9.26C257.91,378.1,269.92,397.75,269.92,397.75Z"/><path class="cls-18" d="M275.51,400.56l20.83,12L311,392.72h28.33l15.17,21.84,18.07-12.21,3.76-2.46s1.27-61.22-38.81-79.94a28.45,28.45,0,0,0-23.51-.36C274.67,337,275.51,400.56,275.51,400.56Z"/><polygon class="cls-1" points="311.01 392.72 325.12 384.26 339.34 392.72 311.01 392.72"/><polygon class="cls-2" points="311.73 460.42 296.98 417.67 312.5 396.4 325.12 388.49 337.5 396.4 353.82 418.98 383.07 399.52 350.13 452.56 334.48 460.42 311.73 460.42"/><path class="cls-2" d="M370.65,362.38a116.54,116.54,0,0,1,4.78,22.85l4.76-17.86Z"/><polygon class="cls-1" points="638.82 285.87 650.11 316.51 683.83 363.43 695.83 370.68 718.58 370.68 734.23 362.82 767.18 309.78 795.24 258.17 764.58 275.71 739.97 261.76 739.4 219.41 717.15 198.03 694.47 211.4 680.51 253.49 654.8 277.94 637.39 262.14 638.82 285.87"/><path class="cls-2" d="M654.1,308l5.59,2.81s.23-24.79,7.4-43.12L654.8,277.94l-10.15-9.27C642.1,288.36,654.1,308,654.1,308Z"/><path class="cls-19" d="M659.69,310.82l20.84,12L695.19,303h28.34l15.16,21.83,18.07-12.21,3.77-2.46s1.26-61.22-38.82-79.94a28.43,28.43,0,0,0-23.5-.36C658.86,247.22,659.69,310.82,659.69,310.82Z"/><polygon class="cls-1" points="695.2 302.99 709.31 294.52 723.53 302.99 695.2 302.99"/><polygon class="cls-2" points="695.91 370.68 681.16 327.93 696.68 306.66 709.31 298.75 721.68 306.66 738.01 329.24 767.26 309.78 734.31 362.82 718.66 370.68 695.91 370.68"/><path class="cls-2" d="M754.84,272.65a116.82,116.82,0,0,1,4.77,22.85l4.77-17.87Z"/><polygon class="cls-1" points="723.33 330.82 734.62 361.46 768.34 408.38 780.34 415.63 803.09 415.63 818.74 407.78 851.69 354.74 879.75 303.12 849.09 320.67 824.48 306.72 823.91 264.37 801.66 242.98 778.98 256.35 765.02 298.44 739.31 322.89 721.9 307.1 723.33 330.82"/><path class="cls-2" d="M738.61,353l5.59,2.8s.23-24.79,7.4-43.12l-12.29,10.24-10.15-9.27C726.6,333.32,738.61,353,738.61,353Z"/><path class="cls-20" d="M744.2,355.77l20.84,12,14.66-19.83H808l15.16,21.83,18.07-12.2,3.77-2.46s1.26-61.23-38.82-79.95a28.47,28.47,0,0,0-23.5-.35C743.36,292.17,744.2,355.77,744.2,355.77Z"/><polygon class="cls-1" points="779.7 347.94 793.82 339.48 808.04 347.94 779.7 347.94"/><polygon class="cls-2" points="780.42 415.63 765.67 372.88 781.19 351.61 793.82 343.71 806.19 351.61 822.52 374.19 851.77 354.74 818.82 407.78 803.17 415.63 780.42 415.63"/><path class="cls-2" d="M839.35,317.6a116.82,116.82,0,0,1,4.77,22.85l4.77-17.86Z"/><polygon class="cls-1" points="538.88 330.6 550.17 361.24 583.89 408.16 595.89 415.41 618.64 415.41 634.29 407.56 667.24 354.51 695.3 302.9 664.64 320.44 640.03 306.5 639.46 264.14 617.21 242.76 594.53 256.13 580.57 298.22 554.86 322.67 537.45 306.88 538.88 330.6"/><path class="cls-2" d="M554.16,352.74l5.59,2.81s.23-24.79,7.4-43.12l-12.29,10.24-10.15-9.27C542.16,333.09,554.16,352.74,554.16,352.74Z"/><path class="cls-21" d="M559.75,355.55l20.84,12,14.66-19.83h28.34l15.16,21.83,18.07-12.2,3.77-2.46s1.27-61.23-38.82-79.95a28.5,28.5,0,0,0-23.5-.36C558.92,292,559.75,355.55,559.75,355.55Z"/><polygon class="cls-1" points="595.25 347.72 609.37 339.25 623.59 347.72 595.25 347.72"/><polygon class="cls-2" points="595.97 415.41 581.22 372.66 596.74 351.39 609.37 343.49 621.74 351.39 638.07 373.97 667.32 354.51 634.37 407.56 618.72 415.41 595.97 415.41"/><path class="cls-2" d="M654.9,317.38a116.82,116.82,0,0,1,4.77,22.85l4.77-17.87Z"/><polygon class="cls-1" points="623.39 375.55 634.67 406.19 668.4 453.11 680.4 460.36 703.15 460.36 718.8 452.51 751.75 399.47 779.81 347.85 749.15 365.4 724.54 351.45 723.97 309.1 701.72 287.71 679.04 301.08 665.08 343.17 639.37 367.62 621.96 351.83 623.39 375.55"/><path class="cls-2" d="M638.67,397.7l5.59,2.81s.23-24.8,7.4-43.13l-12.29,10.24-10.15-9.27C626.66,378.05,638.67,397.7,638.67,397.7Z"/><path class="cls-22" d="M644.26,400.51l20.84,12,14.66-19.84H708.1l15.16,21.84,18.07-12.21,3.77-2.46s1.26-61.22-38.82-79.94a28.43,28.43,0,0,0-23.5-.36C643.43,336.9,644.26,400.51,644.26,400.51Z"/><polygon class="cls-1" points="679.76 392.67 693.88 384.21 708.1 392.67 679.76 392.67"/><polygon class="cls-2" points="680.48 460.36 665.73 417.61 681.25 396.35 693.88 388.44 706.25 396.35 722.58 418.92 751.83 399.47 718.88 452.51 703.23 460.36 680.48 460.36"/><path class="cls-2" d="M739.41,362.33a116.82,116.82,0,0,1,4.77,22.85L749,367.32Z"/><polygon class="cls-1" points="807.69 375.6 818.98 406.24 852.71 453.16 864.71 460.41 887.46 460.41 903.1 452.55 936.05 399.51 964.12 347.9 933.46 365.44 908.85 351.49 908.28 309.14 886.03 287.75 863.35 301.13 849.39 343.22 823.67 367.67 806.26 351.88 807.69 375.6"/><path class="cls-2" d="M823,397.74l5.59,2.81s.23-24.79,7.39-43.12l-12.29,10.24-10.14-9.27C811,378.09,823,397.74,823,397.74Z"/><path class="cls-23" d="M828.57,400.55l20.83,12,14.67-19.83H892.4l15.17,21.83,18.07-12.21,3.76-2.46s1.27-61.22-38.81-79.94a28.45,28.45,0,0,0-23.51-.36C827.73,337,828.57,400.55,828.57,400.55Z"/><polygon class="cls-1" points="864.07 392.72 878.18 384.25 892.4 392.72 864.07 392.72"/><polygon class="cls-2" points="864.79 460.41 850.04 417.66 865.56 396.39 878.18 388.48 890.56 396.39 906.89 418.97 936.14 399.51 903.19 452.55 887.54 460.41 864.79 460.41"/><path class="cls-2" d="M923.71,362.38a116.31,116.31,0,0,1,4.78,22.85l4.76-17.87Z"/><polygon class="cls-1" points="707.75 420.33 719.04 450.97 752.77 497.89 764.77 505.14 787.52 505.14 803.16 497.29 836.11 444.24 864.17 392.63 833.52 410.18 808.91 396.23 808.34 353.87 786.09 332.49 763.41 345.86 749.45 387.95 723.74 412.4 706.33 396.61 707.75 420.33"/><path class="cls-2" d="M723,442.47l5.59,2.81s.23-24.79,7.39-43.12L723.74,412.4l-10.15-9.27C711,422.82,723,442.47,723,442.47Z"/><path class="cls-24" d="M728.63,445.28l20.83,12,14.67-19.83h28.33l15.17,21.83,18.07-12.2,3.76-2.47s1.27-61.22-38.81-79.94a28.53,28.53,0,0,0-23.51-.36C727.79,381.68,728.63,445.28,728.63,445.28Z"/><polygon class="cls-1" points="764.13 437.45 778.24 428.98 792.46 437.45 764.13 437.45"/><polygon class="cls-2" points="764.85 505.14 750.1 462.39 765.62 441.12 778.24 433.22 790.62 441.12 806.95 463.7 836.2 444.24 803.25 497.29 787.6 505.14 764.85 505.14"/><path class="cls-2" d="M823.77,407.11A116.31,116.31,0,0,1,828.55,430l4.76-17.87Z"/><polygon class="cls-1" points="892.02 420.29 903.31 450.93 937.03 497.85 949.03 505.1 971.78 505.1 987.43 497.24 1020.38 444.2 1048.44 392.59 1017.78 410.13 993.18 396.19 992.61 353.83 970.36 332.44 947.68 345.82 933.72 387.91 908 412.36 890.59 396.57 892.02 420.29"/><path class="cls-2" d="M907.31,442.43l5.59,2.81s.22-24.79,7.39-43.12L908,412.36l-10.15-9.27C895.3,422.78,907.31,442.43,907.31,442.43Z"/><path class="cls-25" d="M912.9,445.24l20.83,12,14.67-19.83h28.33l15.17,21.83L1010,447l3.76-2.47s1.27-61.22-38.81-79.94a28.49,28.49,0,0,0-23.51-.36C912.06,381.64,912.9,445.24,912.9,445.24Z"/><polygon class="cls-1" points="948.4 437.41 962.51 428.94 976.73 437.41 948.4 437.41"/><polygon class="cls-2" points="949.12 505.1 934.37 462.35 949.88 441.08 962.51 433.18 974.88 441.08 991.22 463.66 1020.47 444.2 987.51 497.24 971.87 505.1 949.12 505.1"/><path class="cls-2" d="M1008,407.07a116.31,116.31,0,0,1,4.78,22.85l4.76-17.87Z"/><polygon class="cls-1" points="792.08 465.02 803.37 495.66 837.09 542.58 849.09 549.83 871.84 549.83 887.49 541.98 920.44 488.93 948.5 437.32 917.84 454.87 893.24 440.92 892.67 398.56 870.42 377.18 847.74 390.55 833.77 432.64 808.06 457.09 790.65 441.3 792.08 465.02"/><path class="cls-2" d="M807.37,487.16,813,490s.22-24.79,7.39-43.12l-12.29,10.24-10.15-9.27C795.36,467.51,807.37,487.16,807.37,487.16Z"/><path class="cls-26" d="M813,490l20.83,12,14.67-19.83h28.33L892,504,910,491.77l3.76-2.46s1.27-61.23-38.81-79.95a28.53,28.53,0,0,0-23.51-.36C812.12,426.37,813,490,813,490Z"/><polygon class="cls-1" points="848.46 482.14 862.57 473.67 876.79 482.14 848.46 482.14"/><polygon class="cls-2" points="849.18 549.83 834.43 507.08 849.95 485.81 862.57 477.91 874.95 485.81 891.27 508.39 920.52 488.93 887.58 541.98 871.93 549.83 849.18 549.83"/><path class="cls-2" d="M908.1,451.8a116.31,116.31,0,0,1,4.78,22.85l4.76-17.87Z"/><polygon class="cls-1" points="438.87 375.38 450.16 406.02 483.88 452.94 495.88 460.19 518.63 460.19 534.28 452.34 567.23 399.29 595.29 347.68 564.63 365.23 540.02 351.28 539.46 308.93 517.21 287.54 494.52 300.91 480.56 343 454.85 367.45 437.44 351.66 438.87 375.38"/><path class="cls-2" d="M454.15,397.53l5.6,2.8s.22-24.79,7.39-43.12l-12.29,10.24-10.15-9.27C442.15,377.88,454.15,397.53,454.15,397.53Z"/><path class="cls-27" d="M459.75,400.33l20.83,12,14.67-19.83h28.33l15.17,21.83,18.06-12.2,3.77-2.46s1.27-61.23-38.82-79.95a28.47,28.47,0,0,0-23.5-.35C458.91,336.73,459.75,400.33,459.75,400.33Z"/><polygon class="cls-1" points="495.25 392.5 509.36 384.04 523.58 392.5 495.25 392.5"/><polygon class="cls-2" points="495.96 460.19 481.21 417.44 496.73 396.17 509.36 388.27 521.73 396.17 538.06 418.75 567.31 399.29 534.36 452.34 518.71 460.19 495.96 460.19"/><path class="cls-2" d="M554.89,362.16A116.82,116.82,0,0,1,559.66,385l4.77-17.86Z"/><polygon class="cls-1" points="523.38 420.33 534.67 450.98 568.39 497.9 580.39 505.15 603.14 505.15 618.79 497.29 651.74 444.25 679.8 392.63 649.14 410.18 624.53 396.23 623.96 353.88 601.71 332.49 579.03 345.87 565.07 387.95 539.36 412.4 521.95 396.61 523.38 420.33"/><path class="cls-2" d="M538.66,442.48l5.59,2.81s.23-24.79,7.4-43.13L539.36,412.4l-10.15-9.26C526.65,422.83,538.66,442.48,538.66,442.48Z"/><path class="cls-28" d="M544.25,445.29l20.84,12,14.66-19.84h28.34l15.16,21.84,18.07-12.21,3.77-2.46s1.26-61.22-38.82-79.94a28.43,28.43,0,0,0-23.5-.36C543.42,381.68,544.25,445.29,544.25,445.29Z"/><polygon class="cls-1" points="579.75 437.45 593.87 428.99 608.09 437.45 579.75 437.45"/><polygon class="cls-2" points="580.47 505.15 565.72 462.4 581.24 441.13 593.87 433.22 606.24 441.13 622.57 463.71 651.82 444.25 618.87 497.29 603.22 505.15 580.47 505.15"/><path class="cls-2" d="M639.4,407.11A116.82,116.82,0,0,1,644.17,430l4.77-17.86Z"/><polygon class="cls-1" points="338.93 420.11 350.22 450.75 383.94 497.67 395.94 504.92 418.69 504.92 434.34 497.07 467.29 444.03 495.35 392.41 464.69 409.96 440.08 396.01 439.51 353.66 417.26 332.27 394.58 345.64 380.62 387.73 354.91 412.18 337.5 396.39 338.93 420.11"/><path class="cls-2" d="M354.21,442.26l5.6,2.8s.22-24.79,7.39-43.12l-12.29,10.24-10.15-9.27C342.21,422.61,354.21,442.26,354.21,442.26Z"/><path class="cls-29" d="M359.81,445.06l20.83,12,14.67-19.83h28.33l15.17,21.83,18.06-12.2,3.77-2.46s1.27-61.22-38.82-79.94a28.43,28.43,0,0,0-23.5-.36C359,381.46,359.81,445.06,359.81,445.06Z"/><polygon class="cls-1" points="395.31 437.23 409.42 428.77 423.64 437.23 395.31 437.23"/><polygon class="cls-2" points="396.02 504.92 381.27 462.17 396.79 440.9 409.42 433 421.79 440.9 438.12 463.48 467.37 444.03 434.42 497.07 418.77 504.92 396.02 504.92"/><path class="cls-2" d="M455,406.89a116.82,116.82,0,0,1,4.77,22.85l4.77-17.86Z"/><polygon class="cls-1" points="423.44 465.06 434.73 495.71 468.45 542.63 480.45 549.88 503.2 549.88 518.85 542.02 551.8 488.98 579.86 437.37 549.2 454.91 524.59 440.96 524.02 398.61 501.77 377.22 479.09 390.6 465.13 432.69 439.42 457.14 422.01 441.34 423.44 465.06"/><path class="cls-2" d="M438.72,487.21l5.59,2.81s.23-24.79,7.4-43.13l-12.29,10.25-10.15-9.27C426.71,467.56,438.72,487.21,438.72,487.21Z"/><path class="cls-30" d="M444.31,490l20.84,12,14.66-19.83h28.34L523.31,504l18.07-12.21,3.77-2.46s1.26-61.22-38.82-79.94a28.43,28.43,0,0,0-23.5-.36C443.48,426.42,444.31,490,444.31,490Z"/><polygon class="cls-1" points="479.81 482.19 493.93 473.72 508.15 482.19 479.81 482.19"/><polygon class="cls-2" points="480.53 549.88 465.78 507.13 481.3 485.86 493.93 477.95 506.3 485.86 522.63 508.44 551.88 488.98 518.93 542.02 503.28 549.88 480.53 549.88"/><path class="cls-2" d="M539.46,451.84a117,117,0,0,1,4.77,22.86L549,456.83Z"/><polygon class="cls-1" points="607.74 465.11 619.03 495.75 652.76 542.67 664.76 549.92 687.51 549.92 703.15 542.07 736.1 489.02 764.16 437.41 733.51 454.96 708.9 441.01 708.33 398.65 686.08 377.27 663.4 390.64 649.44 432.73 623.73 457.18 606.32 441.39 607.74 465.11"/><path class="cls-2" d="M623,487.25l5.59,2.81s.23-24.79,7.39-43.12l-12.28,10.24-10.15-9.27C611,467.6,623,487.25,623,487.25Z"/><path class="cls-31" d="M628.62,490.06l20.83,12,14.67-19.83h28.33l15.17,21.83,18.07-12.2,3.76-2.46s1.27-61.23-38.81-79.95a28.53,28.53,0,0,0-23.51-.36C627.78,426.46,628.62,490.06,628.62,490.06Z"/><polygon class="cls-1" points="664.12 482.23 678.23 473.76 692.45 482.23 664.12 482.23"/><polygon class="cls-2" points="664.84 549.92 650.09 507.17 665.61 485.9 678.23 478 690.61 485.9 706.94 508.48 736.19 489.02 703.24 542.07 687.59 549.92 664.84 549.92"/><path class="cls-2" d="M723.76,451.89a116.31,116.31,0,0,1,4.78,22.85l4.76-17.87Z"/><polygon class="cls-1" points="507.8 509.84 519.09 540.49 552.82 587.4 564.82 594.65 587.57 594.65 603.22 586.8 636.16 533.76 664.23 482.14 633.57 499.69 608.96 485.74 608.39 443.39 586.14 422 563.46 435.37 549.5 477.46 523.79 501.91 506.38 486.12 507.8 509.84"/><path class="cls-2" d="M523.09,532l5.59,2.8s.23-24.79,7.39-43.12l-12.28,10.24-10.15-9.27C511.08,512.34,523.09,532,523.09,532Z"/><path class="cls-32" d="M528.68,534.79l20.83,12L564.18,527h28.33l15.17,21.83,18.07-12.2,3.76-2.46s1.27-61.23-38.81-79.94a28.45,28.45,0,0,0-23.51-.36C527.84,471.19,528.68,534.79,528.68,534.79Z"/><polygon class="cls-1" points="564.18 526.96 578.29 518.5 592.51 526.96 564.18 526.96"/><polygon class="cls-2" points="564.9 594.65 550.15 551.9 565.67 530.63 578.29 522.73 590.67 530.63 607 553.21 636.25 533.76 603.3 586.8 587.65 594.65 564.9 594.65"/><path class="cls-2" d="M623.82,496.62a116.31,116.31,0,0,1,4.78,22.85l4.76-17.86Z"/><polygon class="cls-1" points="692.07 509.8 703.36 540.44 737.08 587.36 749.08 594.61 771.83 594.61 787.48 586.76 820.43 533.72 848.49 482.1 817.83 499.65 793.23 485.7 792.66 443.35 770.41 421.96 747.73 435.33 733.77 477.42 708.05 501.87 690.64 486.08 692.07 509.8"/><path class="cls-2" d="M707.36,532l5.59,2.8s.22-24.79,7.39-43.12l-12.29,10.24-10.14-9.27C695.35,512.3,707.36,532,707.36,532Z"/><path class="cls-33" d="M713,534.75l20.83,12,14.67-19.83h28.33L792,548.75,810,536.55l3.76-2.46s1.27-61.23-38.81-80a28.49,28.49,0,0,0-23.51-.35C712.11,471.15,713,534.75,713,534.75Z"/><polygon class="cls-1" points="748.45 526.92 762.56 518.46 776.78 526.92 748.45 526.92"/><polygon class="cls-2" points="749.17 594.61 734.42 551.86 749.94 530.59 762.56 522.69 774.94 530.59 791.27 553.17 820.52 533.72 787.57 586.76 771.92 594.61 749.17 594.61"/><path class="cls-2" d="M808.09,496.58a116.31,116.31,0,0,1,4.78,22.85l4.76-17.86Z"/><polygon class="cls-1" points="592.13 554.53 603.42 585.18 637.14 632.09 649.14 639.34 671.89 639.34 687.54 631.49 720.49 578.45 748.55 526.83 717.89 544.38 693.29 530.43 692.72 488.08 670.47 466.69 647.79 480.06 633.83 522.15 608.11 546.6 590.7 530.81 592.13 554.53"/><path class="cls-2" d="M607.42,576.68l5.59,2.81s.22-24.79,7.39-43.13L608.11,546.6,598,537.33C595.41,557,607.42,576.68,607.42,576.68Z"/><path class="cls-34" d="M613,579.49l20.83,12,14.67-19.84h28.33L692,593.49l18.07-12.21,3.76-2.46s1.27-61.22-38.81-79.94a28.45,28.45,0,0,0-23.51-.36C612.17,515.88,613,579.49,613,579.49Z"/><polygon class="cls-1" points="648.51 571.65 662.62 563.19 676.84 571.65 648.51 571.65"/><polygon class="cls-2" points="649.23 639.34 634.48 596.59 650 575.33 662.62 567.42 675 575.33 691.33 597.9 720.58 578.45 687.63 631.49 671.98 639.34 649.23 639.34"/><path class="cls-2" d="M708.15,541.31a116.31,116.31,0,0,1,4.78,22.85l4.76-17.86Z"/><path class="cls-35" d="M2166.15,5a7,7,0,0,1,7,7V622a7,7,0,0,1-7,7H1187.51a7,7,0,0,1-7-7V12a7,7,0,0,1,7-7h978.64m0-5H1187.51a12,12,0,0,0-12,12V622a12,12,0,0,0,12,12h978.64a12,12,0,0,0,12-12V12a12,12,0,0,0-12-12Z"/><rect class="cls-35" x="1113.39" y="354.23" width="34" height="4.84" rx="2.42" ry="2.42"/><rect class="cls-35" x="1113.39" y="364.39" width="34" height="4.84" rx="2.42" ry="2.42"/></g></svg>