<svg xmlns="http://www.w3.org/2000/svg" xmlns:xlink="http://www.w3.org/1999/xlink" viewBox="0 0 2757.17 620.25"><defs><style>.cls-1{fill:#62abbc;}.cls-2{fill:#3d838e;opacity:0.51;}.cls-3{fill:url(#linear-gradient);}.cls-4{fill:url(#linear-gradient-2);}.cls-5{fill:url(#linear-gradient-3);}.cls-6{fill:url(#linear-gradient-4);}.cls-7{fill:url(#linear-gradient-5);}.cls-8{fill:url(#linear-gradient-6);}.cls-9{fill:url(#linear-gradient-7);}.cls-10{fill:url(#linear-gradient-8);}.cls-11{fill:url(#linear-gradient-9);}.cls-12{fill:url(#linear-gradient-10);}.cls-13{fill:url(#linear-gradient-11);}.cls-14{fill:url(#linear-gradient-12);}.cls-15{fill:url(#linear-gradient-13);}.cls-16{fill:url(#linear-gradient-14);}.cls-17{fill:url(#linear-gradient-15);}.cls-18{fill:url(#linear-gradient-16);}.cls-19{fill:url(#linear-gradient-17);}.cls-20{fill:url(#linear-gradient-18);}.cls-21{fill:url(#linear-gradient-19);}.cls-22{fill:url(#linear-gradient-20);}.cls-23{fill:url(#linear-gradient-21);}.cls-24{fill:url(#linear-gradient-22);}.cls-25{fill:url(#linear-gradient-23);}.cls-26{fill:url(#linear-gradient-24);}.cls-27{fill:url(#linear-gradient-25);}.cls-28{fill:url(#linear-gradient-26);}.cls-29{fill:url(#linear-gradient-27);}.cls-30{fill:url(#linear-gradient-28);}.cls-31{fill:url(#linear-gradient-29);}.cls-32{fill:url(#linear-gradient-30);}.cls-33{fill:url(#linear-gradient-31);}.cls-34{fill:url(#linear-gradient-32);}.cls-35{fill:url(#linear-gradient-33);}.cls-36{fill:url(#linear-gradient-34);}.cls-37{fill:url(#linear-gradient-35);}.cls-38{fill:url(#linear-gradient-36);}.cls-39{fill:url(#linear-gradient-37);}.cls-40{fill:url(#linear-gradient-38);}.cls-41{fill:url(#linear-gradient-39);}.cls-42{fill:url(#linear-gradient-40);}.cls-43{fill:url(#linear-gradient-41);}.cls-44{fill:url(#linear-gradient-42);}.cls-45{fill:url(#linear-gradient-43);}.cls-46{fill:url(#linear-gradient-44);}.cls-47{fill:url(#linear-gradient-45);}.cls-48{fill:url(#linear-gradient-46);}.cls-49{fill:url(#linear-gradient-47);}.cls-50{fill:url(#linear-gradient-48);}.cls-51{fill:url(#linear-gradient-49);}.cls-52{fill:url(#linear-gradient-50);}.cls-53{fill:url(#linear-gradient-51);}.cls-54{fill:url(#linear-gradient-52);}.cls-55{fill:url(#linear-gradient-53);}.cls-56{fill:url(#linear-gradient-54);}.cls-57{fill:url(#linear-gradient-55);}.cls-58{fill:url(#linear-gradient-56);}.cls-59{fill:url(#linear-gradient-57);}.cls-60{fill:url(#linear-gradient-58);}.cls-61{fill:url(#linear-gradient-59);}.cls-62{fill:url(#linear-gradient-60);}.cls-63{fill:url(#linear-gradient-61);}.cls-64{fill:url(#linear-gradient-62);}.cls-65{fill:url(#linear-gradient-63);}.cls-66{fill:url(#linear-gradient-64);}.cls-67{fill:#f05023;}</style><linearGradient id="linear-gradient" x1="322.19" y1="78.13" x2="423.03" y2="78.13" gradientUnits="userSpaceOnUse"><stop offset="0" stop-color="#fbb040"/><stop offset="0.39" stop-color="#f9ae41"/><stop offset="0.59" stop-color="#f1a845"/><stop offset="0.74" stop-color="#e49e4b"/><stop offset="0.87" stop-color="#d18f55"/><stop offset="0.99" stop-color="#b97c60"/><stop offset="1" stop-color="#b67a62"/></linearGradient><linearGradient id="linear-gradient-2" x1="406.7" y1="123.08" x2="507.54" y2="123.08" xlink:href="#linear-gradient"/><linearGradient id="linear-gradient-3" x1="222.25" y1="122.86" x2="323.09" y2="122.86" xlink:href="#linear-gradient"/><linearGradient id="linear-gradient-4" x1="306.76" y1="167.81" x2="407.6" y2="167.81" xlink:href="#linear-gradient"/><linearGradient id="linear-gradient-5" x1="491.07" y1="167.86" x2="591.91" y2="167.86" xlink:href="#linear-gradient"/><linearGradient id="linear-gradient-6" x1="391.13" y1="212.59" x2="491.97" y2="212.59" xlink:href="#linear-gradient"/><linearGradient id="linear-gradient-7" x1="575.4" y1="212.55" x2="676.23" y2="212.55" xlink:href="#linear-gradient"/><linearGradient id="linear-gradient-8" x1="475.46" y1="257.28" x2="576.3" y2="257.28" xlink:href="#linear-gradient"/><linearGradient id="linear-gradient-9" x1="122.24" y1="167.64" x2="223.08" y2="167.64" xlink:href="#linear-gradient"/><linearGradient id="linear-gradient-10" x1="206.75" y1="212.6" x2="307.59" y2="212.6" xlink:href="#linear-gradient"/><linearGradient id="linear-gradient-11" x1="22.3" y1="212.37" x2="123.14" y2="212.37" xlink:href="#linear-gradient"/><linearGradient id="linear-gradient-12" x1="106.81" y1="257.33" x2="207.65" y2="257.33" xlink:href="#linear-gradient"/><linearGradient id="linear-gradient-13" x1="291.12" y1="257.37" x2="391.96" y2="257.37" xlink:href="#linear-gradient"/><linearGradient id="linear-gradient-14" x1="191.18" y1="302.1" x2="292.02" y2="302.1" xlink:href="#linear-gradient"/><linearGradient id="linear-gradient-15" x1="375.45" y1="302.06" x2="476.29" y2="302.06" xlink:href="#linear-gradient"/><linearGradient id="linear-gradient-16" x1="275.51" y1="346.79" x2="376.35" y2="346.79" xlink:href="#linear-gradient"/><linearGradient id="linear-gradient-17" x1="659.69" y1="257.06" x2="760.53" y2="257.06" xlink:href="#linear-gradient"/><linearGradient id="linear-gradient-18" x1="744.2" y1="302.01" x2="845.04" y2="302.01" xlink:href="#linear-gradient"/><linearGradient id="linear-gradient-19" x1="559.75" y1="301.79" x2="660.59" y2="301.79" xlink:href="#linear-gradient"/><linearGradient id="linear-gradient-20" x1="644.26" y1="346.74" x2="745.1" y2="346.74" xlink:href="#linear-gradient"/><linearGradient id="linear-gradient-21" x1="828.57" y1="346.79" x2="929.41" y2="346.79" xlink:href="#linear-gradient"/><linearGradient id="linear-gradient-22" x1="728.63" y1="391.52" x2="829.47" y2="391.52" xlink:href="#linear-gradient"/><linearGradient id="linear-gradient-23" x1="912.9" y1="391.48" x2="1013.74" y2="391.48" xlink:href="#linear-gradient"/><linearGradient id="linear-gradient-24" x1="812.96" y1="436.21" x2="913.8" y2="436.21" xlink:href="#linear-gradient"/><linearGradient id="linear-gradient-25" x1="459.74" y1="346.57" x2="560.58" y2="346.57" xlink:href="#linear-gradient"/><linearGradient id="linear-gradient-26" x1="544.25" y1="391.52" x2="645.09" y2="391.52" xlink:href="#linear-gradient"/><linearGradient id="linear-gradient-27" x1="359.8" y1="391.3" x2="460.64" y2="391.3" xlink:href="#linear-gradient"/><linearGradient id="linear-gradient-28" x1="444.31" y1="436.26" x2="545.15" y2="436.26" xlink:href="#linear-gradient"/><linearGradient id="linear-gradient-29" x1="628.62" y1="436.3" x2="729.46" y2="436.3" xlink:href="#linear-gradient"/><linearGradient id="linear-gradient-30" x1="528.68" y1="481.03" x2="629.52" y2="481.03" xlink:href="#linear-gradient"/><linearGradient id="linear-gradient-31" x1="712.95" y1="480.99" x2="813.79" y2="480.99" xlink:href="#linear-gradient"/><linearGradient id="linear-gradient-32" x1="613.01" y1="525.72" x2="713.85" y2="525.72" xlink:href="#linear-gradient"/><linearGradient id="linear-gradient-33" x1="1514.71" y1="167.59" x2="1615.55" y2="167.59" xlink:href="#linear-gradient"/><linearGradient id="linear-gradient-34" x1="1599.22" y1="212.55" x2="1700.06" y2="212.55" xlink:href="#linear-gradient"/><linearGradient id="linear-gradient-35" x1="1414.77" y1="212.32" x2="1515.61" y2="212.32" xlink:href="#linear-gradient"/><linearGradient id="linear-gradient-36" x1="1499.28" y1="257.28" x2="1600.12" y2="257.28" xlink:href="#linear-gradient"/><linearGradient id="linear-gradient-37" x1="1683.58" y1="257.32" x2="1784.42" y2="257.32" xlink:href="#linear-gradient"/><linearGradient id="linear-gradient-38" x1="1583.64" y1="302.05" x2="1684.48" y2="302.05" xlink:href="#linear-gradient"/><linearGradient id="linear-gradient-39" x1="1767.91" y1="302.01" x2="1868.75" y2="302.01" xlink:href="#linear-gradient"/><linearGradient id="linear-gradient-40" x1="1667.97" y1="346.75" x2="1768.81" y2="346.75" xlink:href="#linear-gradient"/><linearGradient id="linear-gradient-41" x1="1314.76" y1="257.11" x2="1415.6" y2="257.11" xlink:href="#linear-gradient"/><linearGradient id="linear-gradient-42" x1="1399.27" y1="302.06" x2="1500.11" y2="302.06" xlink:href="#linear-gradient"/><linearGradient id="linear-gradient-43" x1="1214.82" y1="301.84" x2="1315.66" y2="301.84" xlink:href="#linear-gradient"/><linearGradient id="linear-gradient-44" x1="1299.33" y1="346.79" x2="1400.17" y2="346.79" xlink:href="#linear-gradient"/><linearGradient id="linear-gradient-45" x1="1483.63" y1="346.84" x2="1584.47" y2="346.84" xlink:href="#linear-gradient"/><linearGradient id="linear-gradient-46" x1="1383.7" y1="391.57" x2="1484.53" y2="391.57" xlink:href="#linear-gradient"/><linearGradient id="linear-gradient-47" x1="1567.96" y1="391.53" x2="1668.8" y2="391.53" xlink:href="#linear-gradient"/><linearGradient id="linear-gradient-48" x1="1468.02" y1="436.26" x2="1568.86" y2="436.26" xlink:href="#linear-gradient"/><linearGradient id="linear-gradient-49" x1="2368.42" y1="167.59" x2="2469.26" y2="167.59" xlink:href="#linear-gradient"/><linearGradient id="linear-gradient-50" x1="2452.93" y1="212.55" x2="2553.77" y2="212.55" xlink:href="#linear-gradient"/><linearGradient id="linear-gradient-51" x1="2268.48" y1="212.32" x2="2369.32" y2="212.32" xlink:href="#linear-gradient"/><linearGradient id="linear-gradient-52" x1="2352.99" y1="257.28" x2="2453.83" y2="257.28" xlink:href="#linear-gradient"/><linearGradient id="linear-gradient-53" x1="2537.3" y1="257.32" x2="2638.14" y2="257.32" xlink:href="#linear-gradient"/><linearGradient id="linear-gradient-54" x1="2437.36" y1="302.05" x2="2538.2" y2="302.05" xlink:href="#linear-gradient"/><linearGradient id="linear-gradient-55" x1="2621.63" y1="302.01" x2="2722.47" y2="302.01" xlink:href="#linear-gradient"/><linearGradient id="linear-gradient-56" x1="2521.69" y1="346.75" x2="2622.53" y2="346.75" xlink:href="#linear-gradient"/><linearGradient id="linear-gradient-57" x1="2168.48" y1="257.11" x2="2269.31" y2="257.11" xlink:href="#linear-gradient"/><linearGradient id="linear-gradient-58" x1="2252.98" y1="302.06" x2="2353.82" y2="302.06" xlink:href="#linear-gradient"/><linearGradient id="linear-gradient-59" x1="2068.54" y1="301.84" x2="2169.37" y2="301.84" xlink:href="#linear-gradient"/><linearGradient id="linear-gradient-60" x1="2153.04" y1="346.79" x2="2253.88" y2="346.79" xlink:href="#linear-gradient"/><linearGradient id="linear-gradient-61" x1="2337.35" y1="346.84" x2="2438.19" y2="346.84" xlink:href="#linear-gradient"/><linearGradient id="linear-gradient-62" x1="2237.41" y1="391.57" x2="2338.25" y2="391.57" xlink:href="#linear-gradient"/><linearGradient id="linear-gradient-63" x1="2421.68" y1="391.53" x2="2522.52" y2="391.53" xlink:href="#linear-gradient"/><linearGradient id="linear-gradient-64" x1="2321.74" y1="436.26" x2="2422.58" y2="436.26" xlink:href="#linear-gradient"/></defs><title>V1_G1</title><g id="Layer_2" data-name="Layer 2"><polygon class="cls-1" points="301.32 87.84 312.61 118.49 346.33 165.4 358.33 172.65 381.08 172.65 396.73 164.8 429.68 111.76 457.74 60.14 427.08 77.69 402.47 63.74 401.9 21.39 379.65 0 356.97 13.37 343.01 55.46 317.3 79.91 299.89 64.12 301.32 87.84"/><path class="cls-2" d="M316.6,110l5.59,2.81s.23-24.79,7.4-43.13L317.3,79.91l-10.15-9.27C304.59,90.34,316.6,110,316.6,110Z"/><path class="cls-3" d="M322.19,112.8l20.84,12L357.69,105H386l15.16,21.84,18.07-12.21,3.77-2.46s1.26-61.22-38.82-79.94a28.43,28.43,0,0,0-23.5-.36C321.36,49.19,322.19,112.8,322.19,112.8Z"/><polygon class="cls-1" points="357.69 104.96 371.81 96.5 386.03 104.96 357.69 104.96"/><polygon class="cls-2" points="358.41 172.65 343.66 129.9 359.18 108.64 371.81 100.73 384.18 108.64 400.51 131.22 429.76 111.76 396.81 164.8 381.16 172.65 358.41 172.65"/><path class="cls-2" d="M417.34,74.62a116.82,116.82,0,0,1,4.77,22.85l4.77-17.86Z"/><polygon class="cls-1" points="385.82 132.79 397.11 163.44 430.84 210.36 442.84 217.61 465.59 217.61 481.24 209.75 514.19 156.71 542.25 105.1 511.59 122.64 486.98 108.69 486.41 66.34 464.16 44.95 441.48 58.33 427.52 100.42 401.81 124.87 384.4 109.07 385.82 132.79"/><path class="cls-2" d="M401.11,154.94l5.59,2.81s.23-24.79,7.39-43.12l-12.28,10.24-10.15-9.27C389.1,135.29,401.11,154.94,401.11,154.94Z"/><path class="cls-4" d="M406.7,157.75l20.84,12,14.66-19.83h28.34l15.16,21.83,18.07-12.21,3.77-2.46s1.26-61.22-38.82-79.94a28.43,28.43,0,0,0-23.5-.36C405.86,94.15,406.7,157.75,406.7,157.75Z"/><polygon class="cls-1" points="442.2 149.92 456.31 141.45 470.54 149.92 442.2 149.92"/><polygon class="cls-2" points="442.92 217.61 428.17 174.86 443.69 153.59 456.31 145.68 468.69 153.59 485.02 176.17 514.27 156.71 481.32 209.75 465.67 217.61 442.92 217.61"/><path class="cls-2" d="M501.85,119.58a116.82,116.82,0,0,1,4.77,22.85l4.77-17.87Z"/><polygon class="cls-1" points="201.38 132.57 212.67 163.22 246.39 210.14 258.39 217.39 281.14 217.39 296.79 209.53 329.74 156.49 357.8 104.87 327.14 122.42 302.53 108.47 301.96 66.12 279.71 44.73 257.03 58.1 243.07 100.19 217.36 124.64 199.95 108.85 201.38 132.57"/><path class="cls-2" d="M216.66,154.72l5.59,2.81s.23-24.79,7.4-43.13l-12.29,10.24-10.15-9.26C204.65,135.07,216.66,154.72,216.66,154.72Z"/><path class="cls-5" d="M222.25,157.53l20.84,12,14.66-19.84h28.34l15.16,21.84,18.07-12.21,3.77-2.46s1.26-61.22-38.82-79.94a28.43,28.43,0,0,0-23.5-.36C221.42,93.92,222.25,157.53,222.25,157.53Z"/><polygon class="cls-1" points="257.75 149.69 271.87 141.23 286.09 149.69 257.75 149.69"/><polygon class="cls-2" points="258.47 217.39 243.72 174.64 259.24 153.37 271.87 145.46 284.24 153.37 300.57 175.95 329.82 156.49 296.87 209.53 281.22 217.39 258.47 217.39"/><path class="cls-2" d="M317.4,119.35a117,117,0,0,1,4.77,22.85l4.77-17.86Z"/><polygon class="cls-1" points="285.88 177.53 297.17 208.17 330.9 255.09 342.9 262.34 365.65 262.34 381.3 254.48 414.25 201.44 442.31 149.83 411.65 167.37 387.04 153.43 386.47 111.07 364.22 89.69 341.54 103.06 327.58 145.15 301.87 169.6 284.46 153.81 285.88 177.53"/><path class="cls-2" d="M301.17,199.67l5.59,2.81s.23-24.79,7.4-43.12L301.87,169.6l-10.15-9.27C289.16,180,301.17,199.67,301.17,199.67Z"/><path class="cls-6" d="M306.76,202.48l20.84,12,14.66-19.83H370.6l15.16,21.83,18.07-12.21,3.77-2.46s1.26-61.22-38.82-79.94a28.43,28.43,0,0,0-23.5-.36C305.92,138.88,306.76,202.48,306.76,202.48Z"/><polygon class="cls-1" points="342.26 194.65 356.38 186.18 370.6 194.65 342.26 194.65"/><polygon class="cls-2" points="342.98 262.34 328.23 219.59 343.75 198.32 356.38 190.41 368.75 198.32 385.08 220.9 414.33 201.44 381.38 254.48 365.73 262.34 342.98 262.34"/><path class="cls-2" d="M401.91,164.31a116.82,116.82,0,0,1,4.77,22.85l4.77-17.87Z"/><polygon class="cls-1" points="470.19 177.57 481.48 208.22 515.21 255.13 527.21 262.38 549.95 262.38 565.6 254.53 598.55 201.49 626.61 149.87 595.96 167.42 571.35 153.47 570.78 111.12 548.53 89.73 525.85 103.1 511.89 145.19 486.17 169.64 468.76 153.85 470.19 177.57"/><path class="cls-2" d="M485.48,199.72l5.59,2.81s.22-24.8,7.39-43.13l-12.29,10.24L476,160.37C473.47,180.07,485.48,199.72,485.48,199.72Z"/><path class="cls-7" d="M491.07,202.53l20.83,12,14.67-19.84H554.9l15.17,21.84,18.07-12.21,3.76-2.46s1.27-61.22-38.81-79.94a28.45,28.45,0,0,0-23.51-.36C490.23,138.92,491.07,202.53,491.07,202.53Z"/><polygon class="cls-1" points="526.57 194.69 540.68 186.23 554.9 194.69 526.57 194.69"/><polygon class="cls-2" points="527.29 262.38 512.54 219.63 528.06 198.37 540.68 190.46 553.06 198.37 569.39 220.94 598.64 201.49 565.69 254.53 550.04 262.38 527.29 262.38"/><path class="cls-2" d="M586.21,164.35A116.31,116.31,0,0,1,591,187.2l4.76-17.86Z"/><polygon class="cls-1" points="370.25 222.3 381.54 252.95 415.26 299.87 427.26 307.12 450.01 307.12 465.66 299.26 498.61 246.22 526.67 194.6 496.01 212.15 471.41 198.2 470.84 155.85 448.59 134.46 425.91 147.84 411.95 189.92 386.23 214.37 368.82 198.58 370.25 222.3"/><path class="cls-2" d="M385.54,244.45l5.59,2.81s.22-24.79,7.39-43.13l-12.29,10.24-10.14-9.26C373.53,224.8,385.54,244.45,385.54,244.45Z"/><path class="cls-8" d="M391.13,247.26l20.83,12,14.67-19.84H455l15.17,21.84,18.07-12.21,3.76-2.46s1.27-61.22-38.81-79.94a28.45,28.45,0,0,0-23.51-.36C390.29,183.65,391.13,247.26,391.13,247.26Z"/><polygon class="cls-1" points="426.63 239.42 440.74 230.96 454.96 239.42 426.63 239.42"/><polygon class="cls-2" points="427.35 307.12 412.6 264.37 428.12 243.1 440.74 235.19 453.12 243.1 469.45 265.68 498.7 246.22 465.75 299.26 450.1 307.12 427.35 307.12"/><path class="cls-2" d="M486.27,209.08a116.31,116.31,0,0,1,4.78,22.85l4.76-17.86Z"/><polygon class="cls-1" points="554.52 222.26 565.81 252.91 599.53 299.82 611.53 307.07 634.28 307.07 649.93 299.22 682.88 246.18 710.94 194.56 680.28 212.11 655.67 198.16 655.11 155.81 632.86 134.42 610.17 147.79 596.21 189.88 570.5 214.33 553.09 198.54 554.52 222.26"/><path class="cls-2" d="M569.81,244.41l5.59,2.81s.22-24.79,7.39-43.13L570.5,214.33l-10.15-9.27C557.8,224.76,569.81,244.41,569.81,244.41Z"/><path class="cls-9" d="M575.4,247.22l20.83,12,14.67-19.84h28.33l15.17,21.84L672.46,249l3.77-2.46s1.27-61.22-38.82-79.94a28.43,28.43,0,0,0-23.5-.36C574.56,183.61,575.4,247.22,575.4,247.22Z"/><polygon class="cls-1" points="610.9 239.38 625.01 230.92 639.23 239.38 610.9 239.38"/><polygon class="cls-2" points="611.62 307.07 596.87 264.32 612.38 243.06 625.01 235.15 637.38 243.06 653.71 265.63 682.96 246.18 650.01 299.22 634.37 307.07 611.62 307.07"/><path class="cls-2" d="M670.54,209a116.82,116.82,0,0,1,4.77,22.85L680.08,214Z"/><polygon class="cls-1" points="454.58 266.99 465.87 297.64 499.59 344.56 511.59 351.81 534.34 351.81 549.99 343.95 582.94 290.91 611 239.29 580.34 256.84 555.74 242.89 555.17 200.54 532.92 179.15 510.24 192.53 496.27 234.61 470.56 259.06 453.15 243.27 454.58 266.99"/><path class="cls-2" d="M469.87,289.14l5.59,2.81s.22-24.79,7.39-43.13l-12.29,10.25-10.15-9.27C457.86,269.49,469.87,289.14,469.87,289.14Z"/><path class="cls-10" d="M475.46,292l20.83,12L511,284.11h28.33L554.46,306l18.06-12.21,3.77-2.46s1.27-61.22-38.82-79.94A28.43,28.43,0,0,0,514,211C474.62,228.35,475.46,292,475.46,292Z"/><polygon class="cls-1" points="510.96 284.11 525.07 275.65 539.29 284.11 510.96 284.11"/><polygon class="cls-2" points="511.68 351.81 496.93 309.06 512.44 287.79 525.07 279.88 537.44 287.79 553.77 310.37 583.02 290.91 550.07 343.95 534.43 351.81 511.68 351.81"/><path class="cls-2" d="M570.6,253.77a117,117,0,0,1,4.77,22.85l4.77-17.86Z"/><polygon class="cls-1" points="101.37 177.35 112.66 208 146.38 254.92 158.38 262.17 181.13 262.17 196.78 254.31 229.73 201.27 257.79 149.66 227.13 167.2 202.52 153.25 201.95 110.9 179.7 89.51 157.02 102.89 143.06 144.97 117.35 169.43 99.94 153.63 101.37 177.35"/><path class="cls-2" d="M116.65,199.5l5.59,2.81s.23-24.79,7.4-43.12l-12.29,10.24-10.15-9.27C104.65,179.85,116.65,199.5,116.65,199.5Z"/><path class="cls-11" d="M122.24,202.31l20.84,12,14.66-19.83h28.34l15.16,21.83,18.07-12.21,3.77-2.46s1.26-61.22-38.82-79.94a28.43,28.43,0,0,0-23.5-.36C121.41,138.71,122.24,202.31,122.24,202.31Z"/><polygon class="cls-1" points="157.75 194.47 171.86 186.01 186.08 194.47 157.75 194.47"/><polygon class="cls-2" points="158.46 262.17 143.71 219.42 159.23 198.15 171.86 190.24 184.23 198.15 200.56 220.73 229.81 201.27 196.86 254.31 181.21 262.17 158.46 262.17"/><path class="cls-2" d="M217.39,164.14A116.82,116.82,0,0,1,222.16,187l4.77-17.87Z"/><polygon class="cls-1" points="185.88 222.31 197.16 252.95 230.89 299.87 242.89 307.12 265.64 307.12 281.29 299.26 314.24 246.22 342.3 194.61 311.64 212.16 287.03 198.21 286.46 155.85 264.21 134.47 241.53 147.84 227.57 189.93 201.86 214.38 184.45 198.59 185.88 222.31"/><path class="cls-2" d="M201.16,244.45l5.59,2.81s.23-24.79,7.4-43.12l-12.29,10.24-10.15-9.27C189.15,224.8,201.16,244.45,201.16,244.45Z"/><path class="cls-12" d="M206.75,247.26l20.84,12,14.66-19.83h28.34l15.16,21.83,18.07-12.2,3.77-2.46s1.26-61.23-38.82-79.95a28.5,28.5,0,0,0-23.5-.36C205.91,183.66,206.75,247.26,206.75,247.26Z"/><polygon class="cls-1" points="242.25 239.43 256.37 230.96 270.59 239.43 242.25 239.43"/><polygon class="cls-2" points="242.97 307.12 228.22 264.37 243.74 243.1 256.37 235.2 268.74 243.1 285.07 265.68 314.32 246.22 281.37 299.26 265.72 307.12 242.97 307.12"/><path class="cls-2" d="M301.9,209.09a116.82,116.82,0,0,1,4.77,22.85l4.77-17.87Z"/><polygon class="cls-1" points="1.43 222.09 12.72 252.73 46.44 299.65 58.44 306.9 81.19 306.9 96.84 299.04 129.79 246 157.85 194.39 127.19 211.93 102.58 197.98 102.01 155.63 79.76 134.25 57.08 147.62 43.12 189.71 17.41 214.16 0 198.37 1.43 222.09"/><path class="cls-2" d="M16.71,244.23,22.3,247s.23-24.79,7.4-43.12L17.41,214.16,7.26,204.89C4.71,224.58,16.71,244.23,16.71,244.23Z"/><path class="cls-13" d="M22.3,247l20.84,12L57.8,239.21H86.14L101.3,261l18.07-12.21,3.77-2.46s1.26-61.22-38.82-79.94a28.43,28.43,0,0,0-23.5-.36C21.47,183.44,22.3,247,22.3,247Z"/><polygon class="cls-1" points="57.8 239.21 71.92 230.74 86.14 239.21 57.8 239.21"/><polygon class="cls-2" points="58.52 306.9 43.77 264.15 59.29 242.88 71.92 234.97 84.29 242.88 100.62 265.46 129.87 246 96.92 299.04 81.27 306.9 58.52 306.9"/><path class="cls-2" d="M117.45,208.87a116.82,116.82,0,0,1,4.77,22.85L127,213.85Z"/><polygon class="cls-1" points="85.94 267.04 97.22 297.68 130.95 344.6 142.95 351.85 165.7 351.85 181.35 344 214.3 290.95 242.36 239.34 211.7 256.89 187.09 242.94 186.52 200.59 164.27 179.2 141.59 192.57 127.63 234.66 101.92 259.11 84.51 243.32 85.94 267.04"/><path class="cls-2" d="M101.22,289.19l5.59,2.8s.23-24.79,7.4-43.12l-12.29,10.24-10.15-9.27C89.21,269.54,101.22,289.19,101.22,289.19Z"/><path class="cls-14" d="M106.81,292l20.84,12,14.66-19.83h28.34L185.81,306l18.07-12.2,3.77-2.46s1.26-61.23-38.82-79.95a28.47,28.47,0,0,0-23.5-.35C106,228.39,106.81,292,106.81,292Z"/><polygon class="cls-1" points="142.31 284.16 156.43 275.69 170.65 284.16 142.31 284.16"/><polygon class="cls-2" points="143.03 351.85 128.28 309.1 143.8 287.83 156.43 279.93 168.8 287.83 185.13 310.41 214.38 290.95 181.43 344 165.78 351.85 143.03 351.85"/><path class="cls-2" d="M202,253.82a116.82,116.82,0,0,1,4.77,22.85l4.77-17.86Z"/><polygon class="cls-1" points="270.24 267.08 281.53 297.73 315.25 344.65 327.25 351.9 350 351.9 365.65 344.04 398.6 291 426.66 239.38 396 256.93 371.4 242.98 370.83 200.63 348.58 179.24 325.9 192.62 311.94 234.71 286.23 259.16 268.81 243.36 270.24 267.08"/><path class="cls-2" d="M285.53,289.23l5.59,2.81s.23-24.79,7.39-43.13l-12.29,10.25-10.14-9.27C273.52,269.58,285.53,289.23,285.53,289.23Z"/><path class="cls-15" d="M291.12,292,312,304l14.67-19.83H355L370.12,306l18.07-12.21,3.76-2.46s1.27-61.22-38.81-79.94a28.45,28.45,0,0,0-23.51-.36C290.28,228.44,291.12,292,291.12,292Z"/><polygon class="cls-1" points="326.62 284.2 340.73 275.74 354.95 284.2 326.62 284.2"/><polygon class="cls-2" points="327.34 351.9 312.59 309.15 328.11 287.88 340.73 279.97 353.11 287.88 369.44 310.46 398.69 291 365.74 344.04 350.09 351.9 327.34 351.9"/><path class="cls-2" d="M386.26,253.87A116.31,116.31,0,0,1,391,276.72l4.76-17.87Z"/><polygon class="cls-1" points="170.3 311.82 181.59 342.46 215.32 389.38 227.32 396.63 250.06 396.63 265.71 388.77 298.66 335.73 326.73 284.12 296.07 301.66 271.46 287.71 270.89 245.36 248.64 223.97 225.96 237.35 212 279.44 186.28 303.89 168.88 288.1 170.3 311.82"/><path class="cls-2" d="M185.59,334l5.59,2.81s.23-24.79,7.39-43.12l-12.29,10.24-10.14-9.27C173.58,314.31,185.59,334,185.59,334Z"/><path class="cls-16" d="M191.18,336.77l20.83,12,14.67-19.83H255l15.17,21.83,18.07-12.21L292,336.1s1.27-61.22-38.81-79.94a28.45,28.45,0,0,0-23.51-.36C190.34,273.17,191.18,336.77,191.18,336.77Z"/><polygon class="cls-1" points="226.68 328.94 240.79 320.47 255.01 328.94 226.68 328.94"/><polygon class="cls-2" points="227.4 396.63 212.65 353.88 228.17 332.61 240.79 324.7 253.17 332.61 269.5 355.19 298.75 335.73 265.8 388.77 250.15 396.63 227.4 396.63"/><path class="cls-2" d="M286.32,298.6a116.31,116.31,0,0,1,4.78,22.85l4.76-17.87Z"/><polygon class="cls-1" points="354.57 311.77 365.86 342.42 399.58 389.34 411.58 396.59 434.33 396.59 449.98 388.73 482.93 335.69 510.99 284.08 480.33 301.62 455.73 287.67 455.16 245.32 432.91 223.93 410.23 237.31 396.26 279.4 370.55 303.85 353.14 288.06 354.57 311.77"/><path class="cls-2" d="M369.86,333.92l5.59,2.81s.22-24.79,7.39-43.12l-12.29,10.24-10.15-9.27C357.85,314.27,369.86,333.92,369.86,333.92Z"/><path class="cls-17" d="M375.45,336.73l20.83,12L411,328.9h28.33l15.17,21.83,18.06-12.21,3.77-2.46s1.27-61.22-38.81-79.94a28.45,28.45,0,0,0-23.51-.36C374.61,273.13,375.45,336.73,375.45,336.73Z"/><polygon class="cls-1" points="410.95 328.9 425.06 320.43 439.28 328.9 410.95 328.9"/><polygon class="cls-2" points="411.67 396.59 396.92 353.84 412.44 332.57 425.06 324.66 437.44 332.57 453.76 355.15 483.01 335.69 450.06 388.73 434.42 396.59 411.67 396.59"/><path class="cls-2" d="M470.59,298.56a117.21,117.21,0,0,1,4.78,22.85l4.76-17.87Z"/><polygon class="cls-1" points="254.63 356.51 265.92 387.15 299.64 434.07 311.64 441.32 334.39 441.32 350.04 433.46 382.99 380.42 411.05 328.81 380.39 346.35 355.79 332.4 355.22 290.05 332.97 268.67 310.29 282.04 296.32 324.13 270.61 348.58 253.2 332.79 254.63 356.51"/><path class="cls-2" d="M269.92,378.65l5.59,2.81s.22-24.79,7.39-43.12l-12.29,10.24-10.15-9.27C257.91,359,269.92,378.65,269.92,378.65Z"/><path class="cls-18" d="M275.51,381.46l20.83,12L311,373.63h28.33l15.17,21.83,18.07-12.2,3.76-2.47s1.27-61.22-38.81-79.94a28.49,28.49,0,0,0-23.51-.36C274.67,317.86,275.51,381.46,275.51,381.46Z"/><polygon class="cls-1" points="311.01 373.63 325.12 365.16 339.34 373.63 311.01 373.63"/><polygon class="cls-2" points="311.73 441.32 296.98 398.57 312.5 377.3 325.12 369.39 337.5 377.3 353.82 399.88 383.07 380.42 350.13 433.46 334.48 441.32 311.73 441.32"/><path class="cls-2" d="M370.65,343.29a116.31,116.31,0,0,1,4.78,22.85l4.76-17.87Z"/><polygon class="cls-1" points="638.82 266.77 650.11 297.41 683.83 344.33 695.83 351.58 718.58 351.58 734.23 343.73 767.18 290.69 795.24 239.07 764.58 256.62 739.97 242.67 739.4 200.32 717.15 178.93 694.47 192.3 680.51 234.39 654.8 258.84 637.39 243.05 638.82 266.77"/><path class="cls-2" d="M654.1,288.92l5.59,2.8s.23-24.79,7.4-43.12L654.8,258.84l-10.15-9.27C642.1,269.27,654.1,288.92,654.1,288.92Z"/><path class="cls-19" d="M659.69,291.72l20.84,12,14.66-19.83h28.34l15.16,21.83,18.07-12.2,3.77-2.46s1.26-61.23-38.82-79.95a28.47,28.47,0,0,0-23.5-.35C658.86,228.12,659.69,291.72,659.69,291.72Z"/><polygon class="cls-1" points="695.2 283.89 709.31 275.43 723.53 283.89 695.2 283.89"/><polygon class="cls-2" points="695.91 351.58 681.16 308.83 696.68 287.56 709.31 279.66 721.68 287.56 738.01 310.14 767.26 290.69 734.31 343.73 718.66 351.58 695.91 351.58"/><path class="cls-2" d="M754.84,253.55a116.82,116.82,0,0,1,4.77,22.85l4.77-17.86Z"/><polygon class="cls-1" points="723.33 311.72 734.62 342.37 768.34 389.29 780.34 396.54 803.09 396.54 818.74 388.68 851.69 335.64 879.75 284.02 849.09 301.57 824.48 287.62 823.91 245.27 801.66 223.88 778.98 237.25 765.02 279.34 739.31 303.8 721.9 288 723.33 311.72"/><path class="cls-2" d="M738.61,333.87l5.59,2.81s.23-24.79,7.4-43.13l-12.29,10.24-10.15-9.26C726.6,314.22,738.61,333.87,738.61,333.87Z"/><path class="cls-20" d="M744.2,336.68l20.84,12,14.66-19.84H808l15.16,21.84,18.07-12.21L845,336s1.26-61.22-38.82-79.94a28.43,28.43,0,0,0-23.5-.36C743.36,273.07,744.2,336.68,744.2,336.68Z"/><polygon class="cls-1" points="779.7 328.84 793.82 320.38 808.04 328.84 779.7 328.84"/><polygon class="cls-2" points="780.42 396.54 765.67 353.79 781.19 332.52 793.82 324.61 806.19 332.52 822.52 355.1 851.77 335.64 818.82 388.68 803.17 396.54 780.42 396.54"/><path class="cls-2" d="M839.35,298.5a117,117,0,0,1,4.77,22.85l4.77-17.86Z"/><polygon class="cls-1" points="538.88 311.5 550.17 342.15 583.89 389.06 595.89 396.31 618.64 396.31 634.29 388.46 667.24 335.42 695.3 283.8 664.64 301.35 640.03 287.4 639.46 245.05 617.21 223.66 594.53 237.03 580.57 279.12 554.86 303.57 537.45 287.78 538.88 311.5"/><path class="cls-2" d="M554.16,333.65l5.59,2.81s.23-24.8,7.4-43.13l-12.29,10.24-10.15-9.27C542.16,314,554.16,333.65,554.16,333.65Z"/><path class="cls-21" d="M559.75,336.46l20.84,12,14.66-19.84h28.34l15.16,21.84,18.07-12.21,3.77-2.46s1.27-61.22-38.82-79.94a28.43,28.43,0,0,0-23.5-.36C558.92,272.85,559.75,336.46,559.75,336.46Z"/><polygon class="cls-1" points="595.25 328.62 609.37 320.16 623.59 328.62 595.25 328.62"/><polygon class="cls-2" points="595.97 396.31 581.22 353.56 596.74 332.3 609.37 324.39 621.74 332.3 638.07 354.88 667.32 335.42 634.37 388.46 618.72 396.31 595.97 396.31"/><path class="cls-2" d="M654.9,298.28a116.82,116.82,0,0,1,4.77,22.85l4.77-17.86Z"/><polygon class="cls-1" points="623.39 356.45 634.67 387.1 668.4 434.02 680.4 441.27 703.15 441.27 718.8 433.41 751.75 380.37 779.81 328.76 749.15 346.3 724.54 332.35 723.97 290 701.72 268.61 679.04 281.99 665.08 324.08 639.37 348.53 621.96 332.73 623.39 356.45"/><path class="cls-2" d="M638.67,378.6l5.59,2.81s.23-24.79,7.4-43.12l-12.29,10.24-10.15-9.27C626.66,359,638.67,378.6,638.67,378.6Z"/><path class="cls-22" d="M644.26,381.41l20.84,12,14.66-19.83H708.1l15.16,21.83,18.07-12.21,3.77-2.46s1.26-61.22-38.82-79.94a28.43,28.43,0,0,0-23.5-.36C643.43,317.81,644.26,381.41,644.26,381.41Z"/><polygon class="cls-1" points="679.76 373.58 693.88 365.11 708.1 373.58 679.76 373.58"/><polygon class="cls-2" points="680.48 441.27 665.73 398.52 681.25 377.25 693.88 369.34 706.25 377.25 722.58 399.83 751.83 380.37 718.88 433.41 703.23 441.27 680.48 441.27"/><path class="cls-2" d="M739.41,343.24a116.82,116.82,0,0,1,4.77,22.85L749,348.22Z"/><polygon class="cls-1" points="807.69 356.5 818.98 387.14 852.71 434.06 864.71 441.31 887.46 441.31 903.1 433.46 936.05 380.42 964.12 328.8 933.46 346.35 908.85 332.4 908.28 290.05 886.03 268.66 863.35 282.03 849.39 324.12 823.67 348.57 806.26 332.78 807.69 356.5"/><path class="cls-2" d="M823,378.65l5.59,2.8s.23-24.79,7.39-43.12l-12.29,10.24-10.14-9.27C811,359,823,378.65,823,378.65Z"/><path class="cls-23" d="M828.57,381.45l20.83,12,14.67-19.83H892.4l15.17,21.83,18.07-12.2,3.76-2.46s1.27-61.23-38.81-80a28.49,28.49,0,0,0-23.51-.35C827.73,317.85,828.57,381.45,828.57,381.45Z"/><polygon class="cls-1" points="864.07 373.62 878.18 365.15 892.4 373.62 864.07 373.62"/><polygon class="cls-2" points="864.79 441.31 850.04 398.56 865.56 377.29 878.18 369.39 890.56 377.29 906.89 399.87 936.14 380.42 903.19 433.46 887.54 441.31 864.79 441.31"/><path class="cls-2" d="M923.71,343.28a116.31,116.31,0,0,1,4.78,22.85l4.76-17.86Z"/><polygon class="cls-1" points="707.75 401.23 719.04 431.88 752.77 478.79 764.77 486.04 787.52 486.04 803.16 478.19 836.11 425.15 864.17 373.53 833.52 391.08 808.91 377.13 808.34 334.78 786.09 313.39 763.41 326.76 749.45 368.85 723.74 393.3 706.33 377.51 707.75 401.23"/><path class="cls-2" d="M723,423.38l5.59,2.81s.23-24.8,7.39-43.13L723.74,393.3,713.59,384C711,403.73,723,423.38,723,423.38Z"/><path class="cls-24" d="M728.63,426.19l20.83,12,14.67-19.84h28.33l15.17,21.84L825.7,428l3.76-2.46s1.27-61.22-38.81-79.94a28.45,28.45,0,0,0-23.51-.36C727.79,362.58,728.63,426.19,728.63,426.19Z"/><polygon class="cls-1" points="764.13 418.35 778.24 409.89 792.46 418.35 764.13 418.35"/><polygon class="cls-2" points="764.85 486.04 750.1 443.29 765.62 422.02 778.24 414.12 790.62 422.02 806.95 444.6 836.2 425.15 803.25 478.19 787.6 486.04 764.85 486.04"/><path class="cls-2" d="M823.77,388a116.31,116.31,0,0,1,4.78,22.85L833.31,393Z"/><polygon class="cls-1" points="892.02 401.19 903.31 431.83 937.03 478.75 949.03 486 971.78 486 987.43 478.15 1020.38 425.11 1048.44 373.49 1017.78 391.04 993.18 377.09 992.61 334.74 970.36 313.35 947.68 326.72 933.72 368.81 908 393.26 890.59 377.47 892.02 401.19"/><path class="cls-2" d="M907.31,423.34l5.59,2.8s.22-24.79,7.39-43.12L908,393.26,897.85,384C895.3,403.69,907.31,423.34,907.31,423.34Z"/><path class="cls-25" d="M912.9,426.14l20.83,12,14.67-19.83h28.33l15.17,21.83,18.07-12.2,3.76-2.46s1.27-61.23-38.81-80a28.49,28.49,0,0,0-23.51-.35C912.06,362.54,912.9,426.14,912.9,426.14Z"/><polygon class="cls-1" points="948.4 418.31 962.51 409.85 976.73 418.31 948.4 418.31"/><polygon class="cls-2" points="949.12 486 934.37 443.25 949.88 421.99 962.51 414.08 974.88 421.99 991.22 444.56 1020.47 425.11 987.51 478.15 971.87 486 949.12 486"/><path class="cls-2" d="M1008,388a116.31,116.31,0,0,1,4.78,22.85l4.76-17.86Z"/><polygon class="cls-1" points="792.08 445.92 803.37 476.57 837.09 523.49 849.09 530.74 871.84 530.74 887.49 522.88 920.44 469.84 948.5 418.22 917.84 435.77 893.24 421.82 892.67 379.47 870.42 358.08 847.74 371.45 833.77 413.54 808.06 437.99 790.65 422.2 792.08 445.92"/><path class="cls-2" d="M807.37,468.07l5.59,2.81s.22-24.79,7.39-43.13L808.06,438l-10.15-9.27C795.36,448.42,807.37,468.07,807.37,468.07Z"/><path class="cls-26" d="M813,470.88l20.83,12L848.46,463h28.33L892,484.88,910,472.67l3.76-2.46S915.06,409,875,390.27a28.45,28.45,0,0,0-23.51-.36C812.12,407.27,813,470.88,813,470.88Z"/><polygon class="cls-1" points="848.46 463.04 862.57 454.58 876.79 463.04 848.46 463.04"/><polygon class="cls-2" points="849.18 530.74 834.43 487.99 849.95 466.72 862.57 458.81 874.95 466.72 891.27 489.3 920.52 469.84 887.58 522.88 871.93 530.74 849.18 530.74"/><path class="cls-2" d="M908.1,432.7a116.31,116.31,0,0,1,4.78,22.85l4.76-17.86Z"/><polygon class="cls-1" points="438.87 356.28 450.16 386.93 483.88 433.85 495.88 441.1 518.63 441.1 534.28 433.24 567.23 380.2 595.29 328.58 564.63 346.13 540.02 332.18 539.46 289.83 517.21 268.44 494.52 281.81 480.56 323.9 454.85 348.35 437.44 332.56 438.87 356.28"/><path class="cls-2" d="M454.15,378.43l5.6,2.81s.22-24.79,7.39-43.13l-12.29,10.24-10.15-9.26C442.15,358.78,454.15,378.43,454.15,378.43Z"/><path class="cls-27" d="M459.75,381.24l20.83,12,14.67-19.84h28.33l15.17,21.84L556.81,383l3.77-2.46s1.27-61.22-38.82-79.94a28.43,28.43,0,0,0-23.5-.36C458.91,317.63,459.75,381.24,459.75,381.24Z"/><polygon class="cls-1" points="495.25 373.4 509.36 364.94 523.58 373.4 495.25 373.4"/><polygon class="cls-2" points="495.96 441.1 481.21 398.35 496.73 377.08 509.36 369.17 521.73 377.08 538.06 399.66 567.31 380.2 534.36 433.24 518.71 441.1 495.96 441.1"/><path class="cls-2" d="M554.89,343.06a117,117,0,0,1,4.77,22.85l4.77-17.86Z"/><polygon class="cls-1" points="523.38 401.24 534.67 431.88 568.39 478.8 580.39 486.05 603.14 486.05 618.79 478.19 651.74 425.15 679.8 373.54 649.14 391.08 624.53 377.13 623.96 334.78 601.71 313.39 579.03 326.77 565.07 368.86 539.36 393.31 521.95 377.52 523.38 401.24"/><path class="cls-2" d="M538.66,423.38l5.59,2.81s.23-24.79,7.4-43.12l-12.29,10.24L529.21,384C526.65,403.73,538.66,423.38,538.66,423.38Z"/><path class="cls-28" d="M544.25,426.19l20.84,12,14.66-19.83h28.34l15.16,21.83L641.32,428l3.77-2.46s1.26-61.22-38.82-79.94a28.43,28.43,0,0,0-23.5-.36C543.42,362.59,544.25,426.19,544.25,426.19Z"/><polygon class="cls-1" points="579.75 418.36 593.87 409.89 608.09 418.36 579.75 418.36"/><polygon class="cls-2" points="580.47 486.05 565.72 443.3 581.24 422.03 593.87 414.13 606.24 422.03 622.57 444.61 651.82 425.15 618.87 478.19 603.22 486.05 580.47 486.05"/><path class="cls-2" d="M639.4,388a116.82,116.82,0,0,1,4.77,22.85L648.94,393Z"/><polygon class="cls-1" points="338.93 401.01 350.22 431.66 383.94 478.58 395.94 485.83 418.69 485.83 434.34 477.97 467.29 424.93 495.35 373.32 464.69 390.86 440.08 376.91 439.51 334.56 417.26 313.17 394.58 326.55 380.62 368.63 354.91 393.09 337.5 377.29 338.93 401.01"/><path class="cls-2" d="M354.21,423.16l5.6,2.81s.22-24.79,7.39-43.13l-12.29,10.25-10.15-9.27C342.21,403.51,354.21,423.16,354.21,423.16Z"/><path class="cls-29" d="M359.81,426l20.83,12,14.67-19.83h28.33L438.81,440l18.06-12.21,3.77-2.46s1.27-61.22-38.82-79.94a28.43,28.43,0,0,0-23.5-.36C359,362.37,359.81,426,359.81,426Z"/><polygon class="cls-1" points="395.31 418.13 409.42 409.67 423.64 418.13 395.31 418.13"/><polygon class="cls-2" points="396.02 485.83 381.27 443.08 396.79 421.81 409.42 413.9 421.79 421.81 438.12 444.39 467.37 424.93 434.42 477.97 418.77 485.83 396.02 485.83"/><path class="cls-2" d="M455,387.8a116.82,116.82,0,0,1,4.77,22.85l4.77-17.87Z"/><polygon class="cls-1" points="423.44 445.97 434.73 476.61 468.45 523.53 480.45 530.78 503.2 530.78 518.85 522.92 551.8 469.88 579.86 418.27 549.2 435.81 524.59 421.87 524.02 379.51 501.77 358.13 479.09 371.5 465.13 413.59 439.42 438.04 422.01 422.25 423.44 445.97"/><path class="cls-2" d="M438.72,468.11l5.59,2.81s.23-24.79,7.4-43.12L439.42,438l-10.15-9.27C426.71,448.46,438.72,468.11,438.72,468.11Z"/><path class="cls-30" d="M444.31,470.92l20.84,12,14.66-19.83h28.34l15.16,21.83,18.07-12.2,3.77-2.46s1.26-61.23-38.82-79.95a28.5,28.5,0,0,0-23.5-.36C443.48,407.32,444.31,470.92,444.31,470.92Z"/><polygon class="cls-1" points="479.81 463.09 493.93 454.62 508.15 463.09 479.81 463.09"/><polygon class="cls-2" points="480.53 530.78 465.78 488.03 481.3 466.76 493.93 458.86 506.3 466.76 522.63 489.34 551.88 469.88 518.93 522.92 503.28 530.78 480.53 530.78"/><path class="cls-2" d="M539.46,432.75a116.82,116.82,0,0,1,4.77,22.85L549,437.73Z"/><polygon class="cls-1" points="607.74 446.01 619.03 476.66 652.76 523.58 664.76 530.83 687.51 530.83 703.15 522.97 736.1 469.93 764.16 418.31 733.51 435.86 708.9 421.91 708.33 379.56 686.08 358.17 663.4 371.55 649.44 413.63 623.73 438.08 606.32 422.29 607.74 446.01"/><path class="cls-2" d="M623,468.16l5.59,2.81s.23-24.79,7.39-43.13l-12.28,10.24-10.15-9.26C611,448.51,623,468.16,623,468.16Z"/><path class="cls-31" d="M628.62,471l20.83,12,14.67-19.84h28.33L707.62,485l18.07-12.21,3.76-2.46s1.27-61.22-38.81-79.94a28.45,28.45,0,0,0-23.51-.36C627.78,407.36,628.62,471,628.62,471Z"/><polygon class="cls-1" points="664.12 463.13 678.23 454.67 692.45 463.13 664.12 463.13"/><polygon class="cls-2" points="664.84 530.83 650.09 488.08 665.61 466.81 678.23 458.9 690.61 466.81 706.94 489.39 736.19 469.93 703.24 522.97 687.59 530.83 664.84 530.83"/><path class="cls-2" d="M723.76,432.79a116.31,116.31,0,0,1,4.78,22.85l4.76-17.86Z"/><polygon class="cls-1" points="507.8 490.74 519.09 521.39 552.82 568.31 564.82 575.56 587.57 575.56 603.22 567.7 636.16 514.66 664.23 463.05 633.57 480.59 608.96 466.64 608.39 424.29 586.14 402.9 563.46 416.28 549.5 458.37 523.79 482.82 506.38 467.02 507.8 490.74"/><path class="cls-2" d="M523.09,512.89l5.59,2.81s.23-24.79,7.39-43.13l-12.28,10.25-10.15-9.27C511.08,493.24,523.09,512.89,523.09,512.89Z"/><path class="cls-32" d="M528.68,515.7l20.83,12,14.67-19.83h28.33l15.17,21.83,18.07-12.21,3.76-2.46s1.27-61.22-38.81-79.94a28.45,28.45,0,0,0-23.51-.36C527.84,452.1,528.68,515.7,528.68,515.7Z"/><polygon class="cls-1" points="564.18 507.87 578.29 499.4 592.51 507.87 564.18 507.87"/><polygon class="cls-2" points="564.9 575.56 550.15 532.81 565.67 511.54 578.29 503.63 590.67 511.54 607 534.12 636.25 514.66 603.3 567.7 587.65 575.56 564.9 575.56"/><path class="cls-2" d="M623.82,477.52a116.54,116.54,0,0,1,4.78,22.86l4.76-17.87Z"/><polygon class="cls-1" points="692.07 490.7 703.36 521.35 737.08 568.27 749.08 575.52 771.83 575.52 787.48 567.66 820.43 514.62 848.49 463 817.83 480.55 793.23 466.6 792.66 424.25 770.41 402.86 747.73 416.24 733.77 458.32 708.05 482.77 690.64 466.98 692.07 490.7"/><path class="cls-2" d="M707.36,512.85l5.59,2.81s.22-24.79,7.39-43.13l-12.29,10.25-10.14-9.27C695.35,493.2,707.36,512.85,707.36,512.85Z"/><path class="cls-33" d="M713,515.66l20.83,12,14.67-19.84h28.33L792,529.66,810,517.45l3.76-2.46s1.27-61.22-38.81-79.94a28.45,28.45,0,0,0-23.51-.36C712.11,452.06,713,515.66,713,515.66Z"/><polygon class="cls-1" points="748.45 507.82 762.56 499.36 776.78 507.82 748.45 507.82"/><polygon class="cls-2" points="749.17 575.52 734.42 532.77 749.94 511.5 762.56 503.59 774.94 511.5 791.27 534.08 820.52 514.62 787.57 567.66 771.92 575.52 749.17 575.52"/><path class="cls-2" d="M808.09,477.48a116.54,116.54,0,0,1,4.78,22.85l4.76-17.86Z"/><polygon class="cls-1" points="592.13 535.43 603.42 566.08 637.14 613 649.14 620.25 671.89 620.25 687.54 612.39 720.49 559.35 748.55 507.74 717.89 525.28 693.29 511.33 692.72 468.98 670.47 447.59 647.79 460.97 633.83 503.06 608.11 527.51 590.7 511.71 592.13 535.43"/><path class="cls-2" d="M607.42,557.58l5.59,2.81s.22-24.79,7.39-43.12l-12.29,10.24L598,518.24C595.41,537.93,607.42,557.58,607.42,557.58Z"/><path class="cls-34" d="M613,560.39l20.83,12,14.67-19.83h28.33L692,574.39l18.07-12.21,3.76-2.46s1.27-61.22-38.81-79.94a28.45,28.45,0,0,0-23.51-.36C612.17,496.79,613,560.39,613,560.39Z"/><polygon class="cls-1" points="648.51 552.56 662.62 544.09 676.84 552.56 648.51 552.56"/><polygon class="cls-2" points="649.23 620.25 634.48 577.5 650 556.23 662.62 548.32 675 556.23 691.33 578.81 720.58 559.35 687.63 612.39 671.98 620.25 649.23 620.25"/><path class="cls-2" d="M708.15,522.22a116.31,116.31,0,0,1,4.78,22.85l4.76-17.87Z"/><polygon class="cls-1" points="1493.83 177.31 1505.12 207.95 1538.85 254.87 1550.85 262.12 1573.6 262.12 1589.24 254.26 1622.19 201.22 1650.26 149.61 1619.6 167.15 1594.99 153.2 1594.42 110.85 1572.17 89.46 1549.49 102.84 1535.53 144.93 1509.82 169.38 1492.41 153.59 1493.83 177.31"/><path class="cls-2" d="M1509.12,199.45l5.59,2.81s.23-24.79,7.39-43.12l-12.28,10.24-10.15-9.27C1497.11,179.8,1509.12,199.45,1509.12,199.45Z"/><path class="cls-35" d="M1514.71,202.26l20.83,12,14.67-19.83h28.33l15.17,21.83,18.07-12.21,3.76-2.46s1.27-61.22-38.81-79.94a28.45,28.45,0,0,0-23.51-.36C1513.87,138.66,1514.71,202.26,1514.71,202.26Z"/><polygon class="cls-1" points="1550.21 194.43 1564.32 185.96 1578.54 194.43 1550.21 194.43"/><polygon class="cls-2" points="1550.93 262.12 1536.18 219.37 1551.7 198.1 1564.32 190.19 1576.7 198.1 1593.03 220.68 1622.28 201.22 1589.33 254.26 1573.68 262.12 1550.93 262.12"/><path class="cls-2" d="M1609.85,164.09a116.31,116.31,0,0,1,4.78,22.85l4.76-17.87Z"/><polygon class="cls-1" points="1578.34 222.26 1589.63 252.9 1623.36 299.82 1635.36 307.07 1658.11 307.07 1673.75 299.22 1706.7 246.17 1734.76 194.56 1704.11 212.11 1679.5 198.16 1678.93 155.81 1656.68 134.42 1634 147.79 1620.04 189.88 1594.32 214.33 1576.91 198.54 1578.34 222.26"/><path class="cls-2" d="M1593.63,244.4l5.59,2.81s.22-24.79,7.39-43.12l-12.29,10.24-10.14-9.27C1581.62,224.75,1593.63,244.4,1593.63,244.4Z"/><path class="cls-36" d="M1599.22,247.21l20.83,12,14.67-19.83h28.33l15.17,21.83,18.07-12.2,3.76-2.46s1.27-61.23-38.81-80a28.53,28.53,0,0,0-23.51-.36C1598.38,183.61,1599.22,247.21,1599.22,247.21Z"/><polygon class="cls-1" points="1634.72 239.38 1648.83 230.91 1663.05 239.38 1634.72 239.38"/><polygon class="cls-2" points="1635.44 307.07 1620.69 264.32 1636.21 243.05 1648.83 235.15 1661.21 243.05 1677.54 265.63 1706.79 246.17 1673.84 299.22 1658.19 307.07 1635.44 307.07"/><path class="cls-2" d="M1694.36,209a116.31,116.31,0,0,1,4.78,22.85L1703.9,214Z"/><polygon class="cls-1" points="1393.89 222.04 1405.18 252.68 1438.91 299.6 1450.91 306.85 1473.66 306.85 1489.3 298.99 1522.25 245.95 1550.32 194.34 1519.66 211.88 1495.05 197.94 1494.48 155.58 1472.23 134.2 1449.55 147.57 1435.59 189.66 1409.88 214.11 1392.47 198.32 1393.89 222.04"/><path class="cls-2" d="M1409.18,244.18l5.59,2.81s.23-24.79,7.39-43.12l-12.28,10.24-10.15-9.27C1397.17,224.53,1409.18,244.18,1409.18,244.18Z"/><path class="cls-37" d="M1414.77,247l20.83,12,14.67-19.83h28.33L1493.77,261l18.07-12.2,3.76-2.47s1.27-61.22-38.81-79.94a28.53,28.53,0,0,0-23.51-.36C1413.93,183.39,1414.77,247,1414.77,247Z"/><polygon class="cls-1" points="1450.27 239.16 1464.38 230.69 1478.6 239.16 1450.27 239.16"/><polygon class="cls-2" points="1450.99 306.85 1436.24 264.1 1451.76 242.83 1464.38 234.93 1476.76 242.83 1493.09 265.41 1522.34 245.95 1489.39 298.99 1473.74 306.85 1450.99 306.85"/><path class="cls-2" d="M1509.91,208.82a116.31,116.31,0,0,1,4.78,22.85l4.76-17.87Z"/><polygon class="cls-1" points="1478.4 266.99 1489.69 297.63 1523.41 344.55 1535.41 351.8 1558.16 351.8 1573.81 343.95 1606.76 290.91 1634.82 239.29 1604.16 256.84 1579.56 242.89 1578.99 200.54 1556.74 179.15 1534.06 192.52 1520.1 234.61 1494.38 259.06 1476.97 243.27 1478.4 266.99"/><path class="cls-2" d="M1493.69,289.14l5.59,2.8s.22-24.79,7.39-43.12l-12.29,10.24-10.14-9.27C1481.68,269.49,1493.69,289.14,1493.69,289.14Z"/><path class="cls-38" d="M1499.28,291.94l20.83,12,14.67-19.83h28.33l15.17,21.83,18.07-12.2,3.76-2.46s1.27-61.23-38.81-79.94a28.45,28.45,0,0,0-23.51-.36C1498.44,228.34,1499.28,291.94,1499.28,291.94Z"/><polygon class="cls-1" points="1534.78 284.11 1548.89 275.65 1563.11 284.11 1534.78 284.11"/><polygon class="cls-2" points="1535.5 351.8 1520.75 309.05 1536.27 287.79 1548.89 279.88 1561.27 287.79 1577.6 310.36 1606.85 290.91 1573.9 343.95 1558.25 351.8 1535.5 351.8"/><path class="cls-2" d="M1594.42,253.77a116.31,116.31,0,0,1,4.78,22.85l4.76-17.86Z"/><polygon class="cls-1" points="1662.71 267.04 1674 297.68 1707.72 344.6 1719.72 351.85 1742.47 351.85 1758.12 343.99 1791.07 290.95 1819.13 239.34 1788.47 256.88 1763.86 242.93 1763.3 200.58 1741.05 179.19 1718.36 192.57 1704.4 234.66 1678.69 259.11 1661.28 243.31 1662.71 267.04"/><path class="cls-2" d="M1678,289.18l5.6,2.81s.22-24.79,7.39-43.12l-12.29,10.24-10.15-9.27C1666,269.53,1678,289.18,1678,289.18Z"/><path class="cls-39" d="M1683.59,292l20.83,12,14.67-19.83h28.33L1762.59,306l18.06-12.21,3.77-2.46s1.27-61.22-38.82-79.94a28.43,28.43,0,0,0-23.5-.36C1682.75,228.39,1683.59,292,1683.59,292Z"/><polygon class="cls-1" points="1719.09 284.16 1733.2 275.69 1747.42 284.16 1719.09 284.16"/><polygon class="cls-2" points="1719.8 351.85 1705.05 309.1 1720.57 287.83 1733.2 279.92 1745.57 287.83 1761.9 310.41 1791.15 290.95 1758.2 343.99 1742.55 351.85 1719.8 351.85"/><path class="cls-2" d="M1778.73,253.82a116.82,116.82,0,0,1,4.77,22.85l4.77-17.87Z"/><polygon class="cls-1" points="1562.77 311.77 1574.06 342.41 1607.78 389.33 1619.78 396.58 1642.53 396.58 1658.18 388.72 1691.13 335.68 1719.19 284.07 1688.53 301.61 1663.92 287.67 1663.36 245.31 1641.11 223.93 1618.42 237.3 1604.46 279.39 1578.75 303.84 1561.34 288.05 1562.77 311.77"/><path class="cls-2" d="M1578.05,333.91l5.6,2.81s.22-24.79,7.39-43.12l-12.29,10.24-10.15-9.27C1566.05,314.26,1578.05,333.91,1578.05,333.91Z"/><path class="cls-40" d="M1583.65,336.72l20.83,12,14.67-19.83h28.33l15.17,21.83,18.06-12.2,3.77-2.47s1.27-61.22-38.82-79.94a28.47,28.47,0,0,0-23.5-.36C1582.81,273.12,1583.65,336.72,1583.65,336.72Z"/><polygon class="cls-1" points="1619.15 328.89 1633.26 320.42 1647.48 328.89 1619.15 328.89"/><polygon class="cls-2" points="1619.87 396.58 1605.11 353.83 1620.63 332.56 1633.26 324.65 1645.63 332.56 1661.96 355.14 1691.21 335.68 1658.26 388.72 1642.61 396.58 1619.87 396.58"/><path class="cls-2" d="M1678.79,298.55a116.82,116.82,0,0,1,4.77,22.85l4.77-17.87Z"/><polygon class="cls-1" points="1747.04 311.73 1758.33 342.37 1792.05 389.29 1804.05 396.54 1826.8 396.54 1842.45 388.68 1875.4 335.64 1903.46 284.03 1872.8 301.57 1848.19 287.62 1847.62 245.27 1825.37 223.88 1802.69 237.26 1788.73 279.35 1763.02 303.8 1745.61 288.01 1747.04 311.73"/><path class="cls-2" d="M1762.32,333.87l5.59,2.81s.23-24.79,7.4-43.12L1763,303.8l-10.15-9.27C1750.31,314.22,1762.32,333.87,1762.32,333.87Z"/><path class="cls-41" d="M1767.91,336.68l20.84,12,14.66-19.83h28.34l15.16,21.83L1865,338.47l3.77-2.46s1.26-61.22-38.82-79.94a28.43,28.43,0,0,0-23.5-.36C1767.07,273.08,1767.91,336.68,1767.91,336.68Z"/><polygon class="cls-1" points="1803.41 328.85 1817.53 320.38 1831.75 328.85 1803.41 328.85"/><polygon class="cls-2" points="1804.13 396.54 1789.38 353.79 1804.9 332.52 1817.53 324.61 1829.9 332.52 1846.23 355.1 1875.48 335.64 1842.53 388.68 1826.88 396.54 1804.13 396.54"/><path class="cls-2" d="M1863.06,298.51a116.82,116.82,0,0,1,4.77,22.85l4.77-17.87Z"/><polygon class="cls-1" points="1647.1 356.46 1658.38 387.1 1692.11 434.02 1704.11 441.27 1726.86 441.27 1742.51 433.42 1775.46 380.37 1803.52 328.76 1772.86 346.31 1748.25 332.36 1747.68 290 1725.43 268.62 1702.75 281.99 1688.79 324.08 1663.08 348.53 1645.67 332.74 1647.1 356.46"/><path class="cls-2" d="M1662.38,378.6l5.59,2.81s.23-24.79,7.4-43.12l-12.29,10.24-10.15-9.27C1650.37,359,1662.38,378.6,1662.38,378.6Z"/><path class="cls-42" d="M1668,381.41l20.84,12,14.66-19.83h28.34L1747,395.41l18.07-12.2,3.77-2.46s1.26-61.23-38.82-79.95a28.5,28.5,0,0,0-23.5-.36C1667.13,317.81,1668,381.41,1668,381.41Z"/><polygon class="cls-1" points="1703.47 373.58 1717.59 365.11 1731.81 373.58 1703.47 373.58"/><polygon class="cls-2" points="1704.19 441.27 1689.44 398.52 1704.96 377.25 1717.59 369.35 1729.96 377.25 1746.29 399.83 1775.54 380.37 1742.59 433.42 1726.94 441.27 1704.19 441.27"/><path class="cls-2" d="M1763.12,343.24a116.82,116.82,0,0,1,4.77,22.85l4.77-17.87Z"/><polygon class="cls-1" points="1293.88 266.82 1305.17 297.46 1338.9 344.38 1350.9 351.63 1373.65 351.63 1389.3 343.78 1422.24 290.73 1450.31 239.12 1419.65 256.67 1395.04 242.72 1394.47 200.37 1372.22 178.98 1349.54 192.35 1335.58 234.44 1309.87 258.89 1292.46 243.1 1293.88 266.82"/><path class="cls-2" d="M1309.17,289l5.59,2.81s.23-24.79,7.39-43.12l-12.28,10.24-10.15-9.27C1297.16,269.31,1309.17,289,1309.17,289Z"/><path class="cls-43" d="M1314.76,291.77l20.83,12,14.67-19.83h28.33l15.17,21.83,18.07-12.2,3.76-2.46s1.27-61.23-38.81-80a28.53,28.53,0,0,0-23.51-.36C1313.92,228.17,1314.76,291.77,1314.76,291.77Z"/><polygon class="cls-1" points="1350.26 283.94 1364.37 275.48 1378.6 283.94 1350.26 283.94"/><polygon class="cls-2" points="1350.98 351.63 1336.23 308.88 1351.75 287.61 1364.37 279.71 1376.75 287.61 1393.08 310.19 1422.33 290.73 1389.38 343.78 1373.73 351.63 1350.98 351.63"/><path class="cls-2" d="M1409.9,253.6a116.31,116.31,0,0,1,4.78,22.85l4.76-17.87Z"/><polygon class="cls-1" points="1378.39 311.77 1389.68 342.42 1423.41 389.33 1435.41 396.58 1458.15 396.58 1473.8 388.73 1506.75 335.69 1534.82 284.07 1504.16 301.62 1479.55 287.67 1478.98 245.32 1456.73 223.93 1434.05 237.3 1420.09 279.39 1394.38 303.84 1376.96 288.05 1378.39 311.77"/><path class="cls-2" d="M1393.68,333.92l5.59,2.81s.23-24.79,7.39-43.13l-12.29,10.24-10.14-9.26C1381.67,314.27,1393.68,333.92,1393.68,333.92Z"/><path class="cls-44" d="M1399.27,336.73l20.83,12,14.67-19.84h28.33l15.17,21.84,18.07-12.21,3.76-2.46s1.27-61.22-38.81-79.94a28.45,28.45,0,0,0-23.51-.36C1398.43,273.12,1399.27,336.73,1399.27,336.73Z"/><polygon class="cls-1" points="1434.77 328.89 1448.88 320.43 1463.1 328.89 1434.77 328.89"/><polygon class="cls-2" points="1435.49 396.58 1420.74 353.83 1436.26 332.57 1448.88 324.66 1461.26 332.57 1477.59 355.15 1506.84 335.69 1473.89 388.73 1458.24 396.58 1435.49 396.58"/><path class="cls-2" d="M1494.41,298.55a116.31,116.31,0,0,1,4.78,22.85l4.76-17.86Z"/><polygon class="cls-1" points="1193.94 311.55 1205.23 342.19 1238.96 389.11 1250.96 396.36 1273.71 396.36 1289.36 388.51 1322.31 335.46 1350.37 283.85 1319.71 301.4 1295.1 287.45 1294.53 245.1 1272.28 223.71 1249.6 237.08 1235.64 279.17 1209.93 303.62 1192.52 287.83 1193.94 311.55"/><path class="cls-2" d="M1209.23,333.7l5.59,2.8s.23-24.79,7.39-43.12l-12.28,10.24-10.15-9.27C1197.22,314.05,1209.23,333.7,1209.23,333.7Z"/><path class="cls-45" d="M1214.82,336.5l20.83,12,14.67-19.83h28.33l15.17,21.83,18.07-12.2,3.76-2.46s1.27-61.23-38.81-79.95a28.49,28.49,0,0,0-23.51-.35C1214,272.9,1214.82,336.5,1214.82,336.5Z"/><polygon class="cls-1" points="1250.32 328.67 1264.43 320.21 1278.65 328.67 1250.32 328.67"/><polygon class="cls-2" points="1251.04 396.36 1236.29 353.61 1251.81 332.35 1264.43 324.44 1276.81 332.35 1293.14 354.92 1322.39 335.46 1289.44 388.51 1273.79 396.36 1251.04 396.36"/><path class="cls-2" d="M1310,298.33a116.31,116.31,0,0,1,4.78,22.85l4.76-17.86Z"/><polygon class="cls-1" points="1278.45 356.5 1289.74 387.15 1323.47 434.07 1335.47 441.32 1358.21 441.32 1373.86 433.46 1406.81 380.42 1434.88 328.81 1404.22 346.35 1379.61 332.4 1379.04 290.05 1356.79 268.66 1334.11 282.04 1320.15 324.13 1294.43 348.57 1277.03 332.78 1278.45 356.5"/><path class="cls-2" d="M1293.74,378.65l5.59,2.81s.23-24.79,7.39-43.13l-12.29,10.25-10.14-9.27C1281.73,359,1293.74,378.65,1293.74,378.65Z"/><path class="cls-46" d="M1299.33,381.46l20.83,12,14.67-19.84h28.33l15.17,21.84,18.07-12.21,3.76-2.46s1.27-61.22-38.81-79.94a28.45,28.45,0,0,0-23.51-.36C1298.49,317.86,1299.33,381.46,1299.33,381.46Z"/><polygon class="cls-1" points="1334.83 373.63 1348.94 365.16 1363.16 373.63 1334.83 373.63"/><polygon class="cls-2" points="1335.55 441.32 1320.8 398.57 1336.32 377.3 1348.94 369.39 1361.32 377.3 1377.65 399.88 1406.9 380.42 1373.95 433.46 1358.3 441.32 1335.55 441.32"/><path class="cls-2" d="M1394.47,343.28a116.54,116.54,0,0,1,4.78,22.86l4.76-17.87Z"/><polygon class="cls-1" points="1462.76 356.55 1474.05 387.19 1507.77 434.11 1519.77 441.36 1542.52 441.36 1558.17 433.51 1591.12 380.46 1619.18 328.85 1588.52 346.4 1563.91 332.45 1563.35 290.1 1541.1 268.71 1518.41 282.08 1504.45 324.17 1478.74 348.62 1461.33 332.83 1462.76 356.55"/><path class="cls-2" d="M1478.05,378.69l5.59,2.81s.22-24.79,7.39-43.12l-12.29,10.24-10.15-9.27C1466,359,1478.05,378.69,1478.05,378.69Z"/><path class="cls-47" d="M1483.64,381.5l20.83,12,14.67-19.83h28.33l15.17,21.83,18.06-12.2,3.77-2.46s1.27-61.23-38.82-79.95a28.5,28.5,0,0,0-23.5-.36C1482.8,317.9,1483.64,381.5,1483.64,381.5Z"/><polygon class="cls-1" points="1519.14 373.67 1533.25 365.2 1547.47 373.67 1519.14 373.67"/><polygon class="cls-2" points="1519.86 441.36 1505.11 398.61 1520.62 377.34 1533.25 369.44 1545.62 377.34 1561.95 399.92 1591.2 380.46 1558.25 433.51 1542.61 441.36 1519.86 441.36"/><path class="cls-2" d="M1578.78,343.33a116.82,116.82,0,0,1,4.77,22.85l4.77-17.87Z"/><polygon class="cls-1" points="1362.82 401.28 1374.11 431.92 1407.83 478.84 1419.83 486.09 1442.58 486.09 1458.23 478.24 1491.18 425.19 1519.24 373.58 1488.58 391.13 1463.97 377.18 1463.41 334.83 1441.16 313.44 1418.47 326.81 1404.51 368.9 1378.8 393.35 1361.39 377.56 1362.82 401.28"/><path class="cls-2" d="M1378.11,423.43l5.59,2.8s.22-24.79,7.39-43.12l-12.29,10.24-10.15-9.27C1366.1,403.78,1378.11,423.43,1378.11,423.43Z"/><path class="cls-48" d="M1383.7,426.23l20.83,12,14.67-19.83h28.33l15.17,21.83,18.06-12.2,3.77-2.46s1.27-61.23-38.82-79.95a28.47,28.47,0,0,0-23.5-.35C1382.86,362.63,1383.7,426.23,1383.7,426.23Z"/><polygon class="cls-1" points="1419.2 418.4 1433.31 409.94 1447.53 418.4 1419.2 418.4"/><polygon class="cls-2" points="1419.91 486.09 1405.16 443.34 1420.68 422.07 1433.31 414.17 1445.68 422.07 1462.01 444.65 1491.26 425.19 1458.31 478.24 1442.66 486.09 1419.91 486.09"/><path class="cls-2" d="M1478.84,388.06a116.82,116.82,0,0,1,4.77,22.85l4.77-17.86Z"/><polygon class="cls-1" points="1547.09 401.24 1558.38 431.88 1592.1 478.8 1604.1 486.05 1626.85 486.05 1642.5 478.2 1675.45 425.15 1703.51 373.54 1672.85 391.09 1648.24 377.14 1647.67 334.79 1625.42 313.4 1602.74 326.77 1588.78 368.86 1563.07 393.31 1545.66 377.52 1547.09 401.24"/><path class="cls-2" d="M1562.37,423.39l5.59,2.8s.23-24.79,7.4-43.12l-12.29,10.24L1552.92,384C1550.36,403.74,1562.37,423.39,1562.37,423.39Z"/><path class="cls-49" d="M1568,426.19l20.84,12,14.66-19.83h28.34L1647,440.19,1665,428l3.77-2.46s1.26-61.23-38.82-79.95a28.47,28.47,0,0,0-23.5-.35C1567.13,362.59,1568,426.19,1568,426.19Z"/><polygon class="cls-1" points="1603.46 418.36 1617.58 409.89 1631.8 418.36 1603.46 418.36"/><polygon class="cls-2" points="1604.18 486.05 1589.43 443.3 1604.95 422.03 1617.58 414.13 1629.95 422.03 1646.28 444.61 1675.53 425.15 1642.58 478.2 1626.93 486.05 1604.18 486.05"/><path class="cls-2" d="M1663.11,388a116.82,116.82,0,0,1,4.77,22.85l4.77-17.86Z"/><polygon class="cls-1" points="1447.15 445.97 1458.44 476.62 1492.16 523.53 1504.16 530.78 1526.91 530.78 1542.56 522.93 1575.51 469.89 1603.57 418.27 1572.91 435.82 1548.3 421.87 1547.73 379.52 1525.48 358.13 1502.8 371.5 1488.84 413.59 1463.13 438.04 1445.72 422.25 1447.15 445.97"/><path class="cls-2" d="M1462.43,468.12l5.59,2.81s.23-24.8,7.4-43.13L1463.13,438,1453,428.77C1450.42,448.47,1462.43,468.12,1462.43,468.12Z"/><path class="cls-50" d="M1468,470.93l20.84,12,14.66-19.84h28.34L1547,484.93l18.07-12.21,3.77-2.46s1.26-61.22-38.82-79.94a28.43,28.43,0,0,0-23.5-.36C1467.19,407.32,1468,470.93,1468,470.93Z"/><polygon class="cls-1" points="1503.53 463.09 1517.64 454.63 1531.86 463.09 1503.53 463.09"/><polygon class="cls-2" points="1504.24 530.78 1489.49 488.03 1505.01 466.76 1517.64 458.86 1530.01 466.76 1546.34 489.34 1575.59 469.89 1542.64 522.93 1526.99 530.78 1504.24 530.78"/><path class="cls-2" d="M1563.17,432.75a116.82,116.82,0,0,1,4.77,22.85l4.77-17.86Z"/><polygon class="cls-1" points="2347.55 177.31 2358.84 207.95 2392.56 254.87 2404.56 262.12 2427.31 262.12 2442.96 254.26 2475.91 201.22 2503.97 149.61 2473.31 167.15 2448.7 153.2 2448.14 110.85 2425.89 89.46 2403.2 102.84 2389.24 144.93 2363.53 169.38 2346.12 153.59 2347.55 177.31"/><path class="cls-2" d="M2362.84,199.45l5.59,2.81s.22-24.79,7.39-43.12l-12.29,10.24-10.15-9.27C2350.83,179.8,2362.84,199.45,2362.84,199.45Z"/><path class="cls-51" d="M2368.43,202.26l20.83,12,14.67-19.83h28.33l15.17,21.83,18.06-12.21,3.77-2.46s1.27-61.22-38.82-79.94a28.43,28.43,0,0,0-23.5-.36C2367.59,138.66,2368.43,202.26,2368.43,202.26Z"/><polygon class="cls-1" points="2403.93 194.43 2418.04 185.96 2432.26 194.43 2403.93 194.43"/><polygon class="cls-2" points="2404.64 262.12 2389.89 219.37 2405.41 198.1 2418.04 190.19 2430.41 198.1 2446.74 220.68 2475.99 201.22 2443.04 254.26 2427.39 262.12 2404.64 262.12"/><path class="cls-2" d="M2463.57,164.09a116.82,116.82,0,0,1,4.77,22.85l4.77-17.87Z"/><polygon class="cls-1" points="2432.06 222.26 2443.35 252.9 2477.07 299.82 2489.07 307.07 2511.82 307.07 2527.47 299.22 2560.42 246.17 2588.48 194.56 2557.82 212.11 2533.21 198.16 2532.64 155.81 2510.39 134.42 2487.71 147.79 2473.75 189.88 2448.04 214.33 2430.63 198.54 2432.06 222.26"/><path class="cls-2" d="M2447.34,244.4l5.59,2.81s.23-24.79,7.4-43.12L2448,214.33l-10.15-9.27C2435.34,224.75,2447.34,244.4,2447.34,244.4Z"/><path class="cls-52" d="M2452.93,247.21l20.84,12,14.66-19.83h28.34l15.16,21.83L2550,249l3.77-2.46s1.27-61.23-38.82-80a28.5,28.5,0,0,0-23.5-.36C2452.1,183.61,2452.93,247.21,2452.93,247.21Z"/><polygon class="cls-1" points="2488.43 239.38 2502.55 230.91 2516.77 239.38 2488.43 239.38"/><polygon class="cls-2" points="2489.15 307.07 2474.4 264.32 2489.92 243.05 2502.55 235.15 2514.92 243.05 2531.25 265.63 2560.5 246.17 2527.55 299.22 2511.9 307.07 2489.15 307.07"/><path class="cls-2" d="M2548.08,209a116.82,116.82,0,0,1,4.77,22.85l4.77-17.87Z"/><polygon class="cls-1" points="2247.61 222.04 2258.9 252.68 2292.62 299.6 2304.62 306.85 2327.37 306.85 2343.02 298.99 2375.97 245.95 2404.03 194.34 2373.37 211.88 2348.76 197.94 2348.2 155.58 2325.95 134.2 2303.26 147.57 2289.3 189.66 2263.59 214.11 2246.18 198.32 2247.61 222.04"/><path class="cls-2" d="M2262.9,244.18l5.59,2.81s.22-24.79,7.39-43.12l-12.29,10.24-10.15-9.27C2250.89,224.53,2262.9,244.18,2262.9,244.18Z"/><path class="cls-53" d="M2268.49,247l20.83,12L2304,239.16h28.33L2347.49,261l18.06-12.2,3.77-2.47s1.27-61.22-38.82-79.94A28.5,28.5,0,0,0,2307,166C2267.65,183.39,2268.49,247,2268.49,247Z"/><polygon class="cls-1" points="2303.99 239.16 2318.1 230.69 2332.32 239.16 2303.99 239.16"/><polygon class="cls-2" points="2304.7 306.85 2289.95 264.1 2305.47 242.83 2318.1 234.93 2330.47 242.83 2346.8 265.41 2376.05 245.95 2343.1 298.99 2327.45 306.85 2304.7 306.85"/><path class="cls-2" d="M2363.63,208.82a116.82,116.82,0,0,1,4.77,22.85l4.77-17.87Z"/><polygon class="cls-1" points="2332.12 266.99 2343.41 297.63 2377.13 344.55 2389.13 351.8 2411.88 351.8 2427.53 343.95 2460.48 290.91 2488.54 239.29 2457.88 256.84 2433.27 242.89 2432.7 200.54 2410.45 179.15 2387.77 192.52 2373.81 234.61 2348.1 259.06 2330.69 243.27 2332.12 266.99"/><path class="cls-2" d="M2347.4,289.14l5.6,2.8s.22-24.79,7.39-43.12l-12.29,10.24L2338,249.79C2335.4,269.49,2347.4,289.14,2347.4,289.14Z"/><path class="cls-54" d="M2353,291.94l20.83,12,14.67-19.83h28.33L2432,305.94l18.06-12.2,3.77-2.46s1.27-61.23-38.82-79.94a28.43,28.43,0,0,0-23.5-.36C2352.16,228.34,2353,291.94,2353,291.94Z"/><polygon class="cls-1" points="2388.49 284.11 2402.61 275.65 2416.83 284.11 2388.49 284.11"/><polygon class="cls-2" points="2389.21 351.8 2374.46 309.05 2389.98 287.79 2402.61 279.88 2414.98 287.79 2431.31 310.36 2460.56 290.91 2427.61 343.95 2411.96 351.8 2389.21 351.8"/><path class="cls-2" d="M2448.14,253.77a116.82,116.82,0,0,1,4.77,22.85l4.77-17.86Z"/><polygon class="cls-1" points="2516.42 267.04 2527.71 297.68 2561.44 344.6 2573.44 351.85 2596.19 351.85 2611.84 343.99 2644.78 290.95 2672.85 239.34 2642.19 256.88 2617.58 242.93 2617.01 200.58 2594.76 179.19 2572.08 192.57 2558.12 234.66 2532.41 259.11 2515 243.31 2516.42 267.04"/><path class="cls-2" d="M2531.71,289.18l5.59,2.81s.23-24.79,7.39-43.12l-12.28,10.24-10.15-9.27C2519.7,269.53,2531.71,289.18,2531.71,289.18Z"/><path class="cls-55" d="M2537.3,292l20.83,12,14.67-19.83h28.33L2616.3,306l18.07-12.21,3.76-2.46s1.27-61.22-38.81-79.94a28.43,28.43,0,0,0-23.5-.36C2536.46,228.39,2537.3,292,2537.3,292Z"/><polygon class="cls-1" points="2572.8 284.16 2586.91 275.69 2601.14 284.16 2572.8 284.16"/><polygon class="cls-2" points="2573.52 351.85 2558.77 309.1 2574.29 287.83 2586.91 279.92 2599.29 287.83 2615.62 310.41 2644.87 290.95 2611.92 343.99 2596.27 351.85 2573.52 351.85"/><path class="cls-2" d="M2632.45,253.82a116.82,116.82,0,0,1,4.77,22.85L2642,258.8Z"/><polygon class="cls-1" points="2416.48 311.77 2427.77 342.41 2461.5 389.33 2473.5 396.58 2496.25 396.58 2511.89 388.72 2544.84 335.68 2572.91 284.07 2542.25 301.61 2517.64 287.67 2517.07 245.31 2494.82 223.93 2472.14 237.3 2458.18 279.39 2432.47 303.84 2415.06 288.05 2416.48 311.77"/><path class="cls-2" d="M2431.77,333.91l5.59,2.81s.23-24.79,7.39-43.12l-12.28,10.24-10.15-9.27C2419.76,314.26,2431.77,333.91,2431.77,333.91Z"/><path class="cls-56" d="M2437.36,336.72l20.83,12,14.67-19.83h28.33l15.17,21.83,18.07-12.2,3.76-2.47s1.27-61.22-38.81-79.94a28.47,28.47,0,0,0-23.5-.36C2436.52,273.12,2437.36,336.72,2437.36,336.72Z"/><polygon class="cls-1" points="2472.86 328.89 2486.97 320.42 2501.2 328.89 2472.86 328.89"/><polygon class="cls-2" points="2473.58 396.58 2458.83 353.83 2474.35 332.56 2486.97 324.65 2499.35 332.56 2515.68 355.14 2544.93 335.68 2511.98 388.72 2496.33 396.58 2473.58 396.58"/><path class="cls-2" d="M2532.51,298.55a116.82,116.82,0,0,1,4.77,22.85l4.76-17.87Z"/><polygon class="cls-1" points="2600.75 311.73 2612.04 342.37 2645.76 389.29 2657.76 396.54 2680.51 396.54 2696.16 388.68 2729.11 335.64 2757.17 284.03 2726.51 301.57 2701.91 287.62 2701.34 245.27 2679.09 223.88 2656.41 237.26 2642.45 279.35 2616.73 303.8 2599.32 288.01 2600.75 311.73"/><path class="cls-2" d="M2616,333.87l5.59,2.81s.23-24.79,7.39-43.12l-12.29,10.24-10.14-9.27C2604,314.22,2616,333.87,2616,333.87Z"/><path class="cls-57" d="M2621.63,336.68l20.83,12,14.67-19.83h28.33l15.17,21.83,18.07-12.21,3.76-2.46s1.27-61.22-38.81-79.94a28.45,28.45,0,0,0-23.51-.36C2620.79,273.08,2621.63,336.68,2621.63,336.68Z"/><polygon class="cls-1" points="2657.13 328.85 2671.24 320.38 2685.46 328.85 2657.13 328.85"/><polygon class="cls-2" points="2657.85 396.54 2643.1 353.79 2658.62 332.52 2671.24 324.61 2683.62 332.52 2699.95 355.1 2729.2 335.64 2696.25 388.68 2680.6 396.54 2657.85 396.54"/><path class="cls-2" d="M2716.77,298.51a116.31,116.31,0,0,1,4.78,22.85l4.76-17.87Z"/><polygon class="cls-1" points="2500.81 356.46 2512.1 387.1 2545.82 434.02 2557.82 441.27 2580.57 441.27 2596.22 433.42 2629.17 380.37 2657.23 328.76 2626.57 346.31 2601.97 332.36 2601.4 290 2579.15 268.62 2556.47 281.99 2542.51 324.08 2516.79 348.53 2499.39 332.74 2500.81 356.46"/><path class="cls-2" d="M2516.1,378.6l5.59,2.81s.23-24.79,7.39-43.12l-12.29,10.24-10.14-9.27C2504.09,359,2516.1,378.6,2516.1,378.6Z"/><path class="cls-58" d="M2521.69,381.41l20.83,12,14.67-19.83h28.33l15.17,21.83,18.07-12.2,3.76-2.46s1.27-61.23-38.81-79.95a28.53,28.53,0,0,0-23.51-.36C2520.85,317.81,2521.69,381.41,2521.69,381.41Z"/><polygon class="cls-1" points="2557.19 373.58 2571.3 365.11 2585.52 373.58 2557.19 373.58"/><polygon class="cls-2" points="2557.91 441.27 2543.16 398.52 2558.68 377.25 2571.3 369.35 2583.68 377.25 2600.01 399.83 2629.26 380.37 2596.31 433.42 2580.66 441.27 2557.91 441.27"/><path class="cls-2" d="M2616.83,343.24a116.31,116.31,0,0,1,4.78,22.85l4.76-17.87Z"/><polygon class="cls-1" points="2147.6 266.82 2158.89 297.46 2192.61 344.38 2204.61 351.63 2227.36 351.63 2243.01 343.78 2275.96 290.73 2304.02 239.12 2273.36 256.67 2248.76 242.72 2248.19 200.37 2225.94 178.98 2203.26 192.35 2189.29 234.44 2163.58 258.89 2146.17 243.1 2147.6 266.82"/><path class="cls-2" d="M2162.89,289l5.59,2.81s.22-24.79,7.39-43.12l-12.29,10.24-10.15-9.27C2150.88,269.31,2162.89,289,2162.89,289Z"/><path class="cls-59" d="M2168.48,291.77l20.83,12L2204,283.94h28.33l15.17,21.83,18.06-12.2,3.77-2.46s1.27-61.23-38.82-80a28.5,28.5,0,0,0-23.5-.36C2167.64,228.17,2168.48,291.77,2168.48,291.77Z"/><polygon class="cls-1" points="2203.98 283.94 2218.09 275.48 2232.31 283.94 2203.98 283.94"/><polygon class="cls-2" points="2204.7 351.63 2189.95 308.88 2205.46 287.61 2218.09 279.71 2230.46 287.61 2246.79 310.19 2276.04 290.73 2243.09 343.78 2227.45 351.63 2204.7 351.63"/><path class="cls-2" d="M2263.62,253.6a116.82,116.82,0,0,1,4.77,22.85l4.77-17.87Z"/><polygon class="cls-1" points="2232.11 311.77 2243.4 342.42 2277.12 389.33 2289.12 396.58 2311.87 396.58 2327.52 388.73 2360.47 335.69 2388.53 284.07 2357.87 301.62 2333.26 287.67 2332.7 245.32 2310.45 223.93 2287.76 237.3 2273.8 279.39 2248.09 303.84 2230.68 288.05 2232.11 311.77"/><path class="cls-2" d="M2247.39,333.92l5.6,2.81s.22-24.79,7.39-43.13l-12.29,10.24-10.15-9.26C2235.39,314.27,2247.39,333.92,2247.39,333.92Z"/><path class="cls-60" d="M2253,336.73l20.83,12,14.67-19.84h28.33L2332,350.73l18.06-12.21,3.77-2.46s1.27-61.22-38.82-79.94a28.43,28.43,0,0,0-23.5-.36C2252.15,273.12,2253,336.73,2253,336.73Z"/><polygon class="cls-1" points="2288.49 328.89 2302.6 320.43 2316.82 328.89 2288.49 328.89"/><polygon class="cls-2" points="2289.2 396.58 2274.45 353.83 2289.97 332.57 2302.6 324.66 2314.97 332.57 2331.3 355.15 2360.55 335.69 2327.6 388.73 2311.95 396.58 2289.2 396.58"/><path class="cls-2" d="M2348.13,298.55a116.82,116.82,0,0,1,4.77,22.85l4.77-17.86Z"/><polygon class="cls-1" points="2047.66 311.55 2058.95 342.19 2092.67 389.11 2104.67 396.36 2127.42 396.36 2143.07 388.51 2176.02 335.46 2204.08 283.85 2173.42 301.4 2148.82 287.45 2148.25 245.1 2126 223.71 2103.32 237.08 2089.35 279.17 2063.64 303.62 2046.23 287.83 2047.66 311.55"/><path class="cls-2" d="M2063,333.7l5.59,2.8s.22-24.79,7.39-43.12l-12.29,10.24-10.15-9.27C2050.94,314.05,2063,333.7,2063,333.7Z"/><path class="cls-61" d="M2068.54,336.5l20.83,12L2104,328.67h28.33l15.17,21.83,18.06-12.2,3.77-2.46s1.27-61.23-38.82-79.95a28.46,28.46,0,0,0-23.5-.35C2067.7,272.9,2068.54,336.5,2068.54,336.5Z"/><polygon class="cls-1" points="2104.04 328.67 2118.15 320.21 2132.37 328.67 2104.04 328.67"/><polygon class="cls-2" points="2104.76 396.36 2090.01 353.61 2105.52 332.35 2118.15 324.44 2130.52 332.35 2146.85 354.92 2176.1 335.46 2143.15 388.51 2127.51 396.36 2104.76 396.36"/><path class="cls-2" d="M2163.68,298.33a116.82,116.82,0,0,1,4.77,22.85l4.77-17.86Z"/><polygon class="cls-1" points="2132.17 356.5 2143.46 387.15 2177.18 434.07 2189.18 441.32 2211.93 441.32 2227.58 433.46 2260.53 380.42 2288.59 328.81 2257.93 346.35 2233.32 332.4 2232.76 290.05 2210.51 268.66 2187.82 282.04 2173.86 324.13 2148.15 348.57 2130.74 332.78 2132.17 356.5"/><path class="cls-2" d="M2147.45,378.65l5.6,2.81s.22-24.79,7.39-43.13l-12.29,10.25L2138,339.31C2135.45,359,2147.45,378.65,2147.45,378.65Z"/><path class="cls-62" d="M2153.05,381.46l20.83,12,14.67-19.84h28.33l15.17,21.84,18.06-12.21,3.77-2.46s1.27-61.22-38.82-79.94a28.43,28.43,0,0,0-23.5-.36C2152.21,317.86,2153.05,381.46,2153.05,381.46Z"/><polygon class="cls-1" points="2188.55 373.63 2202.66 365.16 2216.88 373.63 2188.55 373.63"/><polygon class="cls-2" points="2189.26 441.32 2174.51 398.57 2190.03 377.3 2202.66 369.39 2215.03 377.3 2231.36 399.88 2260.61 380.42 2227.66 433.46 2212.01 441.32 2189.26 441.32"/><path class="cls-2" d="M2248.19,343.28a117,117,0,0,1,4.77,22.86l4.77-17.87Z"/><polygon class="cls-1" points="2316.47 356.55 2327.76 387.19 2361.49 434.11 2373.49 441.36 2396.24 441.36 2411.89 433.51 2444.84 380.46 2472.9 328.85 2442.24 346.4 2417.63 332.45 2417.06 290.1 2394.81 268.71 2372.13 282.08 2358.17 324.17 2332.46 348.62 2315.05 332.83 2316.47 356.55"/><path class="cls-2" d="M2331.76,378.69l5.59,2.81s.23-24.79,7.39-43.12l-12.28,10.24-10.15-9.27C2319.75,359,2331.76,378.69,2331.76,378.69Z"/><path class="cls-63" d="M2337.35,381.5l20.84,12,14.66-19.83h28.34l15.16,21.83,18.07-12.2,3.77-2.46s1.26-61.23-38.82-79.95a28.5,28.5,0,0,0-23.5-.36C2336.51,317.9,2337.35,381.5,2337.35,381.5Z"/><polygon class="cls-1" points="2372.85 373.67 2386.96 365.2 2401.19 373.67 2372.85 373.67"/><polygon class="cls-2" points="2373.57 441.36 2358.82 398.61 2374.34 377.34 2386.96 369.44 2399.34 377.34 2415.67 399.92 2444.92 380.46 2411.97 433.51 2396.32 441.36 2373.57 441.36"/><path class="cls-2" d="M2432.5,343.33a116.82,116.82,0,0,1,4.77,22.85l4.77-17.87Z"/><polygon class="cls-1" points="2216.53 401.28 2227.82 431.92 2261.55 478.84 2273.55 486.09 2296.3 486.09 2311.95 478.24 2344.9 425.19 2372.96 373.58 2342.3 391.13 2317.69 377.18 2317.12 334.83 2294.87 313.44 2272.19 326.81 2258.23 368.9 2232.52 393.35 2215.11 377.56 2216.53 401.28"/><path class="cls-2" d="M2231.82,423.43l5.59,2.8s.23-24.79,7.39-43.12l-12.28,10.24-10.15-9.27C2219.81,403.78,2231.82,423.43,2231.82,423.43Z"/><path class="cls-64" d="M2237.41,426.23l20.84,12,14.66-19.83h28.34l15.16,21.83,18.07-12.2,3.77-2.46s1.26-61.23-38.82-79.95a28.47,28.47,0,0,0-23.5-.35C2236.57,362.63,2237.41,426.23,2237.41,426.23Z"/><polygon class="cls-1" points="2272.91 418.4 2287.02 409.94 2301.25 418.4 2272.91 418.4"/><polygon class="cls-2" points="2273.63 486.09 2258.88 443.34 2274.4 422.07 2287.02 414.17 2299.4 422.07 2315.73 444.65 2344.98 425.19 2312.03 478.24 2296.38 486.09 2273.63 486.09"/><path class="cls-2" d="M2332.56,388.06a116.82,116.82,0,0,1,4.77,22.85l4.77-17.86Z"/><polygon class="cls-1" points="2400.8 401.24 2412.09 431.88 2445.82 478.8 2457.82 486.05 2480.57 486.05 2496.21 478.2 2529.16 425.15 2557.22 373.54 2526.57 391.09 2501.96 377.14 2501.39 334.79 2479.14 313.4 2456.46 326.77 2442.5 368.86 2416.78 393.31 2399.38 377.52 2400.8 401.24"/><path class="cls-2" d="M2416.09,423.39l5.59,2.8s.23-24.79,7.39-43.12l-12.28,10.24L2406.64,384C2404.08,403.74,2416.09,423.39,2416.09,423.39Z"/><path class="cls-65" d="M2421.68,426.19l20.83,12,14.67-19.83h28.33l15.17,21.83,18.07-12.2,3.76-2.46s1.27-61.23-38.81-79.95a28.49,28.49,0,0,0-23.51-.35C2420.84,362.59,2421.68,426.19,2421.68,426.19Z"/><polygon class="cls-1" points="2457.18 418.36 2471.29 409.89 2485.51 418.36 2457.18 418.36"/><polygon class="cls-2" points="2457.9 486.05 2443.15 443.3 2458.67 422.03 2471.29 414.13 2483.67 422.03 2500 444.61 2529.25 425.15 2496.3 478.2 2480.65 486.05 2457.9 486.05"/><path class="cls-2" d="M2516.82,388a116.31,116.31,0,0,1,4.78,22.85l4.76-17.86Z"/><polygon class="cls-1" points="2300.86 445.97 2312.15 476.62 2345.88 523.53 2357.88 530.78 2380.63 530.78 2396.27 522.93 2429.22 469.89 2457.28 418.27 2426.63 435.82 2402.02 421.87 2401.45 379.52 2379.2 358.13 2356.52 371.5 2342.56 413.59 2316.84 438.04 2299.44 422.25 2300.86 445.97"/><path class="cls-2" d="M2316.15,468.12l5.59,2.81s.23-24.8,7.39-43.13L2316.85,438l-10.15-9.27C2304.14,448.47,2316.15,468.12,2316.15,468.12Z"/><path class="cls-66" d="M2321.74,470.93l20.83,12,14.67-19.84h28.33l15.17,21.84,18.07-12.21,3.76-2.46s1.27-61.22-38.81-79.94a28.45,28.45,0,0,0-23.51-.36C2320.9,407.32,2321.74,470.93,2321.74,470.93Z"/><polygon class="cls-1" points="2357.24 463.09 2371.35 454.63 2385.57 463.09 2357.24 463.09"/><polygon class="cls-2" points="2357.96 530.78 2343.21 488.03 2358.73 466.76 2371.35 458.86 2383.73 466.76 2400.06 489.34 2429.31 469.89 2396.36 522.93 2380.71 530.78 2357.96 530.78"/><path class="cls-2" d="M2416.88,432.75a116.31,116.31,0,0,1,4.78,22.85l4.76-17.86Z"/><path class="cls-67" d="M1978.62,288.19h-7.84v-7.83a3.58,3.58,0,1,0-7.16,0v7.83h-7.84a3.59,3.59,0,0,0,0,7.17h7.84v7.83a3.58,3.58,0,1,0,7.16,0v-7.83h7.84a3.59,3.59,0,0,0,0-7.17Z"/><rect class="cls-67" x="1113.39" y="321.39" width="34" height="4.84" rx="2.42" ry="2.42"/><rect class="cls-67" x="1113.39" y="331.56" width="34" height="4.84" rx="2.42" ry="2.42"/></g></svg>