<svg xmlns="http://www.w3.org/2000/svg" xmlns:xlink="http://www.w3.org/1999/xlink" viewBox="0 0 1478.17 441.32"><defs><style>.cls-1{fill:#62abbc;}.cls-2{fill:#3d838e;opacity:0.51;}.cls-3{fill:url(#linear-gradient);}.cls-4{fill:url(#linear-gradient-2);}.cls-5{fill:url(#linear-gradient-3);}.cls-6{fill:url(#linear-gradient-4);}.cls-7{fill:url(#linear-gradient-5);}.cls-8{fill:url(#linear-gradient-6);}.cls-9{fill:url(#linear-gradient-7);}.cls-10{fill:url(#linear-gradient-8);}.cls-11{fill:url(#linear-gradient-9);}.cls-12{fill:url(#linear-gradient-10);}.cls-13{fill:url(#linear-gradient-11);}.cls-14{fill:url(#linear-gradient-12);}.cls-15{fill:url(#linear-gradient-13);}.cls-16{fill:url(#linear-gradient-14);}.cls-17{fill:url(#linear-gradient-15);}.cls-18{fill:url(#linear-gradient-16);}.cls-19{fill:url(#linear-gradient-17);}.cls-20{fill:url(#linear-gradient-18);}.cls-21{fill:url(#linear-gradient-19);}.cls-22{fill:url(#linear-gradient-20);}.cls-23{fill:url(#linear-gradient-21);}.cls-24{fill:url(#linear-gradient-22);}.cls-25{fill:url(#linear-gradient-23);}.cls-26{fill:url(#linear-gradient-24);}.cls-27{fill:url(#linear-gradient-25);}.cls-28{fill:url(#linear-gradient-26);}.cls-29{fill:url(#linear-gradient-27);}.cls-30{fill:url(#linear-gradient-28);}.cls-31{fill:#f05023;}</style><linearGradient id="linear-gradient" x1="322.2" y1="100.49" x2="423.04" y2="100.49" gradientUnits="userSpaceOnUse"><stop offset="0" stop-color="#fbb040"/><stop offset="0.39" stop-color="#f9ae41"/><stop offset="0.59" stop-color="#f1a845"/><stop offset="0.74" stop-color="#e49e4b"/><stop offset="0.87" stop-color="#d18f55"/><stop offset="0.99" stop-color="#b97c60"/><stop offset="1" stop-color="#b67a62"/></linearGradient><linearGradient id="linear-gradient-2" x1="406.7" y1="145.44" x2="507.54" y2="145.44" xlink:href="#linear-gradient"/><linearGradient id="linear-gradient-3" x1="222.26" y1="145.22" x2="323.1" y2="145.22" xlink:href="#linear-gradient"/><linearGradient id="linear-gradient-4" x1="306.76" y1="190.17" x2="407.6" y2="190.17" xlink:href="#linear-gradient"/><linearGradient id="linear-gradient-5" x1="491.07" y1="190.22" x2="591.91" y2="190.22" xlink:href="#linear-gradient"/><linearGradient id="linear-gradient-6" x1="391.13" y1="234.95" x2="491.97" y2="234.95" xlink:href="#linear-gradient"/><linearGradient id="linear-gradient-7" x1="122.24" y1="189.97" x2="223.08" y2="189.97" xlink:href="#linear-gradient"/><linearGradient id="linear-gradient-8" x1="206.75" y1="234.93" x2="307.59" y2="234.93" xlink:href="#linear-gradient"/><linearGradient id="linear-gradient-9" x1="22.3" y1="234.7" x2="123.14" y2="234.7" xlink:href="#linear-gradient"/><linearGradient id="linear-gradient-10" x1="106.81" y1="279.66" x2="207.65" y2="279.66" xlink:href="#linear-gradient"/><linearGradient id="linear-gradient-11" x1="291.12" y1="279.7" x2="391.96" y2="279.7" xlink:href="#linear-gradient"/><linearGradient id="linear-gradient-12" x1="191.18" y1="324.43" x2="292.02" y2="324.43" xlink:href="#linear-gradient"/><linearGradient id="linear-gradient-13" x1="1089.42" y1="78.13" x2="1190.26" y2="78.13" xlink:href="#linear-gradient"/><linearGradient id="linear-gradient-14" x1="1173.93" y1="123.08" x2="1274.77" y2="123.08" xlink:href="#linear-gradient"/><linearGradient id="linear-gradient-15" x1="989.48" y1="122.86" x2="1090.32" y2="122.86" xlink:href="#linear-gradient"/><linearGradient id="linear-gradient-16" x1="1073.99" y1="167.81" x2="1174.83" y2="167.81" xlink:href="#linear-gradient"/><linearGradient id="linear-gradient-17" x1="1258.3" y1="167.86" x2="1359.14" y2="167.86" xlink:href="#linear-gradient"/><linearGradient id="linear-gradient-18" x1="1158.36" y1="212.59" x2="1259.2" y2="212.59" xlink:href="#linear-gradient"/><linearGradient id="linear-gradient-19" x1="1342.63" y1="212.55" x2="1443.47" y2="212.55" xlink:href="#linear-gradient"/><linearGradient id="linear-gradient-20" x1="1242.69" y1="257.28" x2="1343.53" y2="257.28" xlink:href="#linear-gradient"/><linearGradient id="linear-gradient-21" x1="889.47" y1="167.64" x2="990.31" y2="167.64" xlink:href="#linear-gradient"/><linearGradient id="linear-gradient-22" x1="973.98" y1="212.6" x2="1074.82" y2="212.6" xlink:href="#linear-gradient"/><linearGradient id="linear-gradient-23" x1="789.54" y1="212.37" x2="890.37" y2="212.37" xlink:href="#linear-gradient"/><linearGradient id="linear-gradient-24" x1="874.04" y1="257.33" x2="974.88" y2="257.33" xlink:href="#linear-gradient"/><linearGradient id="linear-gradient-25" x1="1058.35" y1="257.37" x2="1159.19" y2="257.37" xlink:href="#linear-gradient"/><linearGradient id="linear-gradient-26" x1="958.41" y1="302.1" x2="1059.25" y2="302.1" xlink:href="#linear-gradient"/><linearGradient id="linear-gradient-27" x1="1142.68" y1="302.06" x2="1243.52" y2="302.06" xlink:href="#linear-gradient"/><linearGradient id="linear-gradient-28" x1="1042.74" y1="346.79" x2="1143.58" y2="346.79" xlink:href="#linear-gradient"/></defs><title>V1_R2</title><g id="Layer_2" data-name="Layer 2"><polygon class="cls-1" points="301.32 110.2 312.61 140.85 346.33 187.76 358.33 195.01 381.08 195.01 396.73 187.16 429.68 134.12 457.74 82.5 427.08 100.05 402.48 86.1 401.91 43.75 379.66 22.36 356.98 35.73 343.01 77.82 317.3 102.27 299.89 86.48 301.32 110.2"/><path class="cls-2" d="M316.61,132.35l5.59,2.81s.22-24.79,7.39-43.13L317.3,102.27,307.15,93C304.6,112.7,316.61,132.35,316.61,132.35Z"/><path class="cls-3" d="M322.2,135.16l20.83,12,14.67-19.84H386l15.17,21.84L419.26,137l3.77-2.46s1.27-61.22-38.82-79.94a28.43,28.43,0,0,0-23.5-.36C321.36,71.55,322.2,135.16,322.2,135.16Z"/><polygon class="cls-1" points="357.7 127.32 371.81 118.86 386.03 127.32 357.7 127.32"/><polygon class="cls-2" points="358.42 195.01 343.67 152.26 359.18 131 371.81 123.09 384.18 131 400.51 153.57 429.76 134.12 396.81 187.16 381.17 195.01 358.42 195.01"/><path class="cls-2" d="M417.34,97a116.82,116.82,0,0,1,4.77,22.85L426.88,102Z"/><polygon class="cls-1" points="385.83 155.16 397.12 185.8 430.84 232.72 442.84 239.97 465.59 239.97 481.24 232.11 514.19 179.07 542.25 127.46 511.59 145 486.98 131.05 486.42 88.7 464.17 67.31 441.48 80.69 427.52 122.78 401.81 147.23 384.4 131.44 385.83 155.16"/><path class="cls-2" d="M401.11,177.3l5.6,2.81s.22-24.79,7.39-43.12l-12.29,10.24L391.66,138C389.11,157.65,401.11,177.3,401.11,177.3Z"/><path class="cls-4" d="M406.71,180.11l20.83,12,14.67-19.83h28.33l15.17,21.83,18.06-12.21,3.77-2.46s1.27-61.22-38.82-79.94a28.43,28.43,0,0,0-23.5-.36C405.87,116.51,406.71,180.11,406.71,180.11Z"/><polygon class="cls-1" points="442.21 172.28 456.32 163.81 470.54 172.28 442.21 172.28"/><polygon class="cls-2" points="442.93 239.97 428.18 197.22 443.69 175.95 456.32 168.04 468.69 175.95 485.02 198.53 514.27 179.07 481.32 232.11 465.68 239.97 442.93 239.97"/><path class="cls-2" d="M501.85,141.94a116.82,116.82,0,0,1,4.77,22.85l4.77-17.87Z"/><polygon class="cls-1" points="201.38 154.93 212.67 185.58 246.39 232.5 258.39 239.75 281.14 239.75 296.79 231.89 329.74 178.85 357.8 127.23 327.14 144.78 302.54 130.83 301.97 88.48 279.72 67.09 257.04 80.47 243.07 122.55 217.36 147 199.95 131.21 201.38 154.93"/><path class="cls-2" d="M216.67,177.08l5.59,2.81s.22-24.79,7.39-43.13L217.36,147l-10.15-9.26C204.66,157.43,216.67,177.08,216.67,177.08Z"/><path class="cls-5" d="M222.26,179.89l20.83,12,14.67-19.84h28.33l15.17,21.84,18.06-12.21,3.77-2.46s1.27-61.22-38.81-79.94a28.45,28.45,0,0,0-23.51-.36C221.42,116.28,222.26,179.89,222.26,179.89Z"/><polygon class="cls-1" points="257.76 172.05 271.87 163.59 286.09 172.05 257.76 172.05"/><polygon class="cls-2" points="258.48 239.75 243.73 197 259.25 175.73 271.87 167.82 284.25 175.73 300.57 198.31 329.82 178.85 296.87 231.89 281.23 239.75 258.48 239.75"/><path class="cls-2" d="M317.4,141.71a117,117,0,0,1,4.77,22.85l4.77-17.86Z"/><polygon class="cls-1" points="285.89 199.89 297.18 230.53 330.9 277.45 342.9 284.7 365.65 284.7 381.3 276.84 414.25 223.8 442.31 172.19 411.65 189.73 387.05 175.78 386.48 133.43 364.23 112.05 341.55 125.42 327.58 167.51 301.87 191.96 284.46 176.17 285.89 199.89"/><path class="cls-2" d="M301.18,222l5.59,2.81s.22-24.79,7.39-43.12L301.87,192l-10.15-9.27C289.17,202.38,301.18,222,301.18,222Z"/><path class="cls-6" d="M306.77,224.84l20.83,12L342.27,217H370.6l15.17,21.83,18.06-12.2,3.77-2.47s1.27-61.22-38.82-79.94a28.47,28.47,0,0,0-23.5-.36C305.93,161.24,306.77,224.84,306.77,224.84Z"/><polygon class="cls-1" points="342.27 217.01 356.38 208.54 370.6 217.01 342.27 217.01"/><polygon class="cls-2" points="342.99 284.7 328.24 241.95 343.75 220.68 356.38 212.78 368.75 220.68 385.08 243.26 414.33 223.8 381.38 276.84 365.74 284.7 342.99 284.7"/><path class="cls-2" d="M401.91,186.67a116.82,116.82,0,0,1,4.77,22.85l4.77-17.87Z"/><polygon class="cls-1" points="470.19 199.93 481.48 230.58 515.21 277.49 527.21 284.74 549.96 284.74 565.61 276.89 598.56 223.85 626.62 172.23 595.96 189.78 571.35 175.83 570.78 133.48 548.53 112.09 525.85 125.46 511.89 167.55 486.18 192 468.77 176.21 470.19 199.93"/><path class="cls-2" d="M485.48,222.08l5.59,2.81s.23-24.79,7.39-43.13L486.18,192,476,182.73C473.47,202.43,485.48,222.08,485.48,222.08Z"/><path class="cls-7" d="M491.07,224.89l20.84,12,14.66-19.84h28.34l15.16,21.84,18.07-12.21,3.77-2.46s1.26-61.22-38.82-79.94a28.43,28.43,0,0,0-23.5-.36C490.23,161.28,491.07,224.89,491.07,224.89Z"/><polygon class="cls-1" points="526.57 217.05 540.68 208.59 554.91 217.05 526.57 217.05"/><polygon class="cls-2" points="527.29 284.74 512.54 241.99 528.06 220.73 540.68 212.82 553.06 220.73 569.39 243.31 598.64 223.85 565.69 276.89 550.04 284.74 527.29 284.74"/><path class="cls-2" d="M586.22,186.71A116.82,116.82,0,0,1,591,209.56l4.77-17.86Z"/><polygon class="cls-1" points="370.25 244.66 381.54 275.31 415.27 322.23 427.27 329.48 450.02 329.48 465.67 321.62 498.62 268.58 526.68 216.96 496.02 234.51 471.41 220.56 470.84 178.21 448.59 156.82 425.91 170.19 411.95 212.28 386.24 236.73 368.83 220.94 370.25 244.66"/><path class="cls-2" d="M385.54,266.81l5.59,2.81s.23-24.79,7.39-43.13l-12.28,10.24-10.15-9.26C373.53,247.16,385.54,266.81,385.54,266.81Z"/><path class="cls-8" d="M391.13,269.62l20.84,12,14.66-19.84H455l15.16,21.84,18.07-12.21L492,269s1.26-61.22-38.82-79.94a28.43,28.43,0,0,0-23.5-.36C390.29,206,391.13,269.62,391.13,269.62Z"/><polygon class="cls-1" points="426.63 261.78 440.74 253.32 454.97 261.78 426.63 261.78"/><polygon class="cls-2" points="427.35 329.48 412.6 286.73 428.12 265.46 440.74 257.55 453.12 265.46 469.45 288.04 498.7 268.58 465.75 321.62 450.1 329.48 427.35 329.48"/><path class="cls-2" d="M486.28,231.44a117,117,0,0,1,4.77,22.85l4.77-17.86Z"/><polygon class="cls-1" points="101.37 199.69 112.66 230.33 146.38 277.25 158.38 284.5 181.13 284.5 196.78 276.64 229.73 223.6 257.79 171.99 227.13 189.53 202.52 175.58 201.95 133.23 179.7 111.84 157.02 125.22 143.06 167.31 117.35 191.76 99.94 175.97 101.37 199.69"/><path class="cls-2" d="M116.65,221.83l5.59,2.81s.23-24.79,7.4-43.12l-12.29,10.24-10.15-9.27C104.65,202.18,116.65,221.83,116.65,221.83Z"/><path class="cls-9" d="M122.24,224.64l20.84,12,14.66-19.83h28.34l15.16,21.83,18.07-12.21,3.77-2.46s1.26-61.22-38.82-79.94a28.43,28.43,0,0,0-23.5-.36C121.41,161,122.24,224.64,122.24,224.64Z"/><polygon class="cls-1" points="157.75 216.81 171.86 208.34 186.08 216.81 157.75 216.81"/><polygon class="cls-2" points="158.46 284.5 143.71 241.75 159.23 220.48 171.86 212.57 184.23 220.48 200.56 243.06 229.81 223.6 196.86 276.64 181.21 284.5 158.46 284.5"/><path class="cls-2" d="M217.39,186.47a116.82,116.82,0,0,1,4.77,22.85l4.77-17.87Z"/><polygon class="cls-1" points="185.88 244.64 197.16 275.28 230.89 322.2 242.89 329.45 265.64 329.45 281.29 321.6 314.24 268.55 342.3 216.94 311.64 234.49 287.03 220.54 286.46 178.19 264.21 156.8 241.53 170.17 227.57 212.26 201.86 236.71 184.45 220.92 185.88 244.64"/><path class="cls-2" d="M201.16,266.78l5.59,2.81s.23-24.79,7.4-43.12l-12.29,10.24-10.15-9.27C189.15,247.13,201.16,266.78,201.16,266.78Z"/><path class="cls-10" d="M206.75,269.59l20.84,12,14.66-19.83h28.34l15.16,21.83,18.07-12.2,3.77-2.46s1.26-61.23-38.82-80a28.5,28.5,0,0,0-23.5-.36C205.91,206,206.75,269.59,206.75,269.59Z"/><polygon class="cls-1" points="242.25 261.76 256.37 253.29 270.59 261.76 242.25 261.76"/><polygon class="cls-2" points="242.97 329.45 228.22 286.7 243.74 265.43 256.37 257.53 268.74 265.43 285.07 288.01 314.32 268.55 281.37 321.6 265.72 329.45 242.97 329.45"/><path class="cls-2" d="M301.9,231.42a116.82,116.82,0,0,1,4.77,22.85l4.77-17.87Z"/><polygon class="cls-1" points="1.43 244.42 12.72 275.06 46.44 321.98 58.44 329.23 81.19 329.23 96.84 321.37 129.79 268.33 157.85 216.72 127.19 234.26 102.58 220.31 102.01 177.96 79.76 156.57 57.08 169.95 43.12 212.04 17.41 236.49 0 220.7 1.43 244.42"/><path class="cls-2" d="M16.71,266.56l5.59,2.81s.23-24.79,7.4-43.12L17.41,236.49,7.26,227.22C4.71,246.91,16.71,266.56,16.71,266.56Z"/><path class="cls-11" d="M22.3,269.37l20.84,12L57.8,261.54H86.14l15.16,21.83,18.07-12.2,3.77-2.47s1.26-61.22-38.82-79.94a28.47,28.47,0,0,0-23.5-.36C21.47,205.77,22.3,269.37,22.3,269.37Z"/><polygon class="cls-1" points="57.8 261.54 71.92 253.07 86.14 261.54 57.8 261.54"/><polygon class="cls-2" points="58.52 329.23 43.77 286.48 59.29 265.21 71.92 257.31 84.29 265.21 100.62 287.79 129.87 268.33 96.92 321.37 81.27 329.23 58.52 329.23"/><path class="cls-2" d="M117.45,231.2a116.82,116.82,0,0,1,4.77,22.85L127,236.18Z"/><polygon class="cls-1" points="85.94 289.37 97.22 320.01 130.95 366.93 142.95 374.18 165.7 374.18 181.35 366.33 214.3 313.29 242.36 261.67 211.7 279.22 187.09 265.27 186.52 222.92 164.27 201.53 141.59 214.9 127.63 256.99 101.92 281.44 84.51 265.65 85.94 289.37"/><path class="cls-2" d="M101.22,311.52l5.59,2.8s.23-24.79,7.4-43.12l-12.29,10.24-10.15-9.27C89.21,291.87,101.22,311.52,101.22,311.52Z"/><path class="cls-12" d="M106.81,314.32l20.84,12,14.66-19.83h28.34l15.16,21.83,18.07-12.2,3.77-2.46s1.26-61.23-38.82-80a28.47,28.47,0,0,0-23.5-.35C106,250.72,106.81,314.32,106.81,314.32Z"/><polygon class="cls-1" points="142.31 306.49 156.43 298.03 170.65 306.49 142.31 306.49"/><polygon class="cls-2" points="143.03 374.18 128.28 331.43 143.8 310.17 156.43 302.26 168.8 310.17 185.13 332.74 214.38 313.29 181.43 366.33 165.78 374.18 143.03 374.18"/><path class="cls-2" d="M202,276.15A116.82,116.82,0,0,1,206.73,299l4.77-17.86Z"/><polygon class="cls-1" points="270.24 289.42 281.53 320.06 315.25 366.98 327.25 374.23 350 374.23 365.65 366.37 398.6 313.33 426.66 261.72 396 279.26 371.4 265.31 370.83 222.96 348.58 201.57 325.9 214.95 311.94 257.04 286.23 281.49 268.81 265.69 270.24 289.42"/><path class="cls-2" d="M285.53,311.56l5.59,2.81s.23-24.79,7.39-43.12l-12.29,10.24-10.14-9.27C273.52,291.91,285.53,311.56,285.53,311.56Z"/><path class="cls-13" d="M291.12,314.37l20.83,12,14.67-19.83H355l15.17,21.83,18.07-12.21L392,313.7s1.27-61.22-38.81-79.94a28.45,28.45,0,0,0-23.51-.36C290.28,250.77,291.12,314.37,291.12,314.37Z"/><polygon class="cls-1" points="326.62 306.54 340.73 298.07 354.95 306.54 326.62 306.54"/><polygon class="cls-2" points="327.34 374.23 312.59 331.48 328.11 310.21 340.73 302.3 353.11 310.21 369.44 332.79 398.69 313.33 365.74 366.37 350.09 374.23 327.34 374.23"/><path class="cls-2" d="M386.26,276.2A116.31,116.31,0,0,1,391,299.05l4.76-17.87Z"/><polygon class="cls-1" points="170.3 334.15 181.59 364.79 215.32 411.71 227.32 418.96 250.06 418.96 265.71 411.1 298.66 358.06 326.73 306.45 296.07 323.99 271.46 310.05 270.89 267.69 248.64 246.31 225.96 259.68 212 301.77 186.28 326.22 168.88 310.43 170.3 334.15"/><path class="cls-2" d="M185.59,356.29l5.59,2.81s.23-24.79,7.39-43.12l-12.29,10.24L176.14,317C173.58,336.64,185.59,356.29,185.59,356.29Z"/><path class="cls-14" d="M191.18,359.1l20.83,12,14.67-19.83H255l15.17,21.83,18.07-12.21,3.76-2.46s1.27-61.22-38.81-79.94a28.45,28.45,0,0,0-23.51-.36C190.34,295.5,191.18,359.1,191.18,359.1Z"/><polygon class="cls-1" points="226.68 351.27 240.79 342.8 255.01 351.27 226.68 351.27"/><polygon class="cls-2" points="227.4 418.96 212.65 376.21 228.17 354.94 240.79 347.04 253.17 354.94 269.5 377.52 298.75 358.06 265.8 411.1 250.15 418.96 227.4 418.96"/><path class="cls-2" d="M286.32,320.93a116.31,116.31,0,0,1,4.78,22.85l4.76-17.87Z"/><polygon class="cls-1" points="1068.55 87.84 1079.84 118.49 1113.56 165.4 1125.56 172.65 1148.31 172.65 1163.96 164.8 1196.91 111.76 1224.97 60.14 1194.31 77.69 1169.7 63.74 1169.13 21.39 1146.88 0 1124.2 13.37 1110.24 55.46 1084.53 79.91 1067.12 64.12 1068.55 87.84"/><path class="cls-2" d="M1083.83,110l5.6,2.81s.22-24.79,7.39-43.13l-12.29,10.24-10.15-9.27C1071.83,90.34,1083.83,110,1083.83,110Z"/><path class="cls-15" d="M1089.43,112.8l20.83,12L1124.93,105h28.33l15.17,21.84,18.06-12.21,3.77-2.46s1.27-61.22-38.82-79.94a28.43,28.43,0,0,0-23.5-.36C1088.59,49.19,1089.43,112.8,1089.43,112.8Z"/><polygon class="cls-1" points="1124.92 104.96 1139.04 96.5 1153.26 104.96 1124.92 104.96"/><polygon class="cls-2" points="1125.64 172.65 1110.89 129.9 1126.41 108.64 1139.04 100.73 1151.41 108.64 1167.74 131.22 1196.99 111.76 1164.04 164.8 1148.39 172.65 1125.64 172.65"/><path class="cls-2" d="M1184.57,74.62a116.82,116.82,0,0,1,4.77,22.85l4.77-17.86Z"/><polygon class="cls-1" points="1153.06 132.79 1164.35 163.44 1198.07 210.36 1210.07 217.61 1232.82 217.61 1248.47 209.75 1281.42 156.71 1309.48 105.1 1278.82 122.64 1254.21 108.69 1253.64 66.34 1231.39 44.95 1208.71 58.33 1194.75 100.42 1169.04 124.87 1151.63 109.07 1153.06 132.79"/><path class="cls-2" d="M1168.34,154.94l5.59,2.81s.23-24.79,7.4-43.12L1169,124.87l-10.15-9.27C1156.33,135.29,1168.34,154.94,1168.34,154.94Z"/><path class="cls-16" d="M1173.93,157.75l20.84,12,14.66-19.83h28.34l15.16,21.83L1271,159.54l3.77-2.46S1276,95.86,1236,77.14a28.43,28.43,0,0,0-23.5-.36C1173.1,94.15,1173.93,157.75,1173.93,157.75Z"/><polygon class="cls-1" points="1209.43 149.92 1223.55 141.45 1237.77 149.92 1209.43 149.92"/><polygon class="cls-2" points="1210.15 217.61 1195.4 174.86 1210.92 153.59 1223.55 145.68 1235.92 153.59 1252.25 176.17 1281.5 156.71 1248.55 209.75 1232.9 217.61 1210.15 217.61"/><path class="cls-2" d="M1269.08,119.58a116.82,116.82,0,0,1,4.77,22.85l4.77-17.87Z"/><polygon class="cls-1" points="968.61 132.57 979.9 163.22 1013.62 210.14 1025.62 217.39 1048.37 217.39 1064.02 209.53 1096.97 156.49 1125.03 104.87 1094.37 122.42 1069.76 108.47 1069.19 66.12 1046.94 44.73 1024.26 58.1 1010.3 100.19 984.59 124.64 967.18 108.85 968.61 132.57"/><path class="cls-2" d="M983.89,154.72l5.6,2.81s.22-24.79,7.39-43.13l-12.29,10.24-10.15-9.26C971.89,135.07,983.89,154.72,983.89,154.72Z"/><path class="cls-17" d="M989.49,157.53l20.83,12L1025,149.69h28.33l15.17,21.84,18.06-12.21,3.77-2.46s1.27-61.22-38.82-79.94a28.43,28.43,0,0,0-23.5-.36C988.65,93.92,989.49,157.53,989.49,157.53Z"/><polygon class="cls-1" points="1024.99 149.69 1039.1 141.23 1053.32 149.69 1024.99 149.69"/><polygon class="cls-2" points="1025.7 217.39 1010.95 174.64 1026.47 153.37 1039.1 145.46 1051.47 153.37 1067.8 175.95 1097.05 156.49 1064.1 209.53 1048.45 217.39 1025.7 217.39"/><path class="cls-2" d="M1084.63,119.35a117,117,0,0,1,4.77,22.85l4.77-17.86Z"/><polygon class="cls-1" points="1053.12 177.53 1064.41 208.17 1098.13 255.09 1110.13 262.34 1132.88 262.34 1148.53 254.48 1181.48 201.44 1209.54 149.83 1178.88 167.37 1154.27 153.43 1153.7 111.07 1131.45 89.69 1108.77 103.06 1094.81 145.15 1069.1 169.6 1051.69 153.81 1053.12 177.53"/><path class="cls-2" d="M1068.4,199.67l5.59,2.81s.23-24.79,7.4-43.12L1069.1,169.6,1059,160.33C1056.39,180,1068.4,199.67,1068.4,199.67Z"/><path class="cls-18" d="M1074,202.48l20.84,12,14.66-19.83h28.34L1153,216.48l18.07-12.21,3.77-2.46s1.26-61.22-38.82-79.94a28.43,28.43,0,0,0-23.5-.36C1073.16,138.88,1074,202.48,1074,202.48Z"/><polygon class="cls-1" points="1109.49 194.65 1123.61 186.18 1137.83 194.65 1109.49 194.65"/><polygon class="cls-2" points="1110.21 262.34 1095.46 219.59 1110.98 198.32 1123.61 190.41 1135.98 198.32 1152.31 220.9 1181.56 201.44 1148.61 254.48 1132.96 262.34 1110.21 262.34"/><path class="cls-2" d="M1169.14,164.31a116.82,116.82,0,0,1,4.77,22.85l4.77-17.87Z"/><polygon class="cls-1" points="1237.42 177.57 1248.71 208.22 1282.44 255.13 1294.44 262.38 1317.19 262.38 1332.83 254.53 1365.78 201.49 1393.85 149.87 1363.19 167.42 1338.58 153.47 1338.01 111.12 1315.76 89.73 1293.08 103.1 1279.12 145.19 1253.41 169.64 1236 153.85 1237.42 177.57"/><path class="cls-2" d="M1252.71,199.72l5.59,2.81s.23-24.8,7.39-43.13l-12.28,10.24-10.15-9.27C1240.7,180.07,1252.71,199.72,1252.71,199.72Z"/><path class="cls-19" d="M1258.3,202.53l20.83,12,14.67-19.84h28.33l15.17,21.84,18.07-12.21,3.76-2.46s1.27-61.22-38.81-79.94a28.45,28.45,0,0,0-23.51-.36C1257.46,138.92,1258.3,202.53,1258.3,202.53Z"/><polygon class="cls-1" points="1293.8 194.69 1307.91 186.23 1322.13 194.69 1293.8 194.69"/><polygon class="cls-2" points="1294.52 262.38 1279.77 219.63 1295.29 198.37 1307.91 190.46 1320.29 198.37 1336.62 220.94 1365.87 201.49 1332.92 254.53 1317.27 262.38 1294.52 262.38"/><path class="cls-2" d="M1353.44,164.35a116.31,116.31,0,0,1,4.78,22.85l4.76-17.86Z"/><polygon class="cls-1" points="1137.48 222.3 1148.77 252.95 1182.5 299.87 1194.5 307.12 1217.25 307.12 1232.89 299.26 1265.84 246.22 1293.9 194.6 1263.25 212.15 1238.64 198.2 1238.07 155.85 1215.82 134.46 1193.14 147.84 1179.18 189.92 1153.47 214.37 1136.06 198.58 1137.48 222.3"/><path class="cls-2" d="M1152.77,244.45l5.59,2.81s.23-24.79,7.39-43.13l-12.28,10.24-10.15-9.26C1140.76,224.8,1152.77,244.45,1152.77,244.45Z"/><path class="cls-20" d="M1158.36,247.26l20.83,12,14.67-19.84h28.33l15.17,21.84,18.07-12.21,3.76-2.46s1.27-61.22-38.81-79.94a28.45,28.45,0,0,0-23.51-.36C1157.52,183.65,1158.36,247.26,1158.36,247.26Z"/><polygon class="cls-1" points="1193.86 239.42 1207.97 230.96 1222.19 239.42 1193.86 239.42"/><polygon class="cls-2" points="1194.58 307.12 1179.83 264.37 1195.35 243.1 1207.97 235.19 1220.35 243.1 1236.68 265.68 1265.93 246.22 1232.98 299.26 1217.33 307.12 1194.58 307.12"/><path class="cls-2" d="M1253.5,209.08a116.31,116.31,0,0,1,4.78,22.85l4.76-17.86Z"/><polygon class="cls-1" points="1321.75 222.26 1333.04 252.91 1366.76 299.82 1378.76 307.07 1401.51 307.07 1417.16 299.22 1450.11 246.18 1478.17 194.56 1447.51 212.11 1422.91 198.16 1422.34 155.81 1400.09 134.42 1377.41 147.79 1363.45 189.88 1337.73 214.33 1320.32 198.54 1321.75 222.26"/><path class="cls-2" d="M1337,244.41l5.59,2.81s.22-24.79,7.39-43.13l-12.29,10.24-10.14-9.27C1325,224.76,1337,244.41,1337,244.41Z"/><path class="cls-21" d="M1342.63,247.22l20.83,12,14.67-19.84h28.33l15.17,21.84L1439.7,249l3.76-2.46s1.27-61.22-38.81-79.94a28.45,28.45,0,0,0-23.51-.36C1341.79,183.61,1342.63,247.22,1342.63,247.22Z"/><polygon class="cls-1" points="1378.13 239.38 1392.24 230.92 1406.46 239.38 1378.13 239.38"/><polygon class="cls-2" points="1378.85 307.07 1364.1 264.32 1379.62 243.06 1392.24 235.15 1404.62 243.06 1420.95 265.63 1450.2 246.18 1417.25 299.22 1401.6 307.07 1378.85 307.07"/><path class="cls-2" d="M1437.77,209a116.31,116.31,0,0,1,4.78,22.85l4.76-17.86Z"/><polygon class="cls-1" points="1221.81 266.99 1233.1 297.64 1266.82 344.56 1278.82 351.81 1301.57 351.81 1317.22 343.95 1350.17 290.91 1378.23 239.29 1347.57 256.84 1322.97 242.89 1322.4 200.54 1300.15 179.15 1277.47 192.53 1263.51 234.61 1237.79 259.06 1220.38 243.27 1221.81 266.99"/><path class="cls-2" d="M1237.1,289.14l5.59,2.81s.22-24.79,7.39-43.13l-12.29,10.25-10.14-9.27C1225.09,269.49,1237.1,289.14,1237.1,289.14Z"/><path class="cls-22" d="M1242.69,292l20.83,12,14.67-19.84h28.33L1321.69,306l18.07-12.21,3.76-2.46s1.27-61.22-38.81-79.94a28.45,28.45,0,0,0-23.51-.36C1241.85,228.35,1242.69,292,1242.69,292Z"/><polygon class="cls-1" points="1278.19 284.11 1292.3 275.65 1306.52 284.11 1278.19 284.11"/><polygon class="cls-2" points="1278.91 351.81 1264.16 309.06 1279.68 287.79 1292.3 279.88 1304.68 287.79 1321.01 310.37 1350.26 290.91 1317.31 343.95 1301.66 351.81 1278.91 351.81"/><path class="cls-2" d="M1337.83,253.77a116.54,116.54,0,0,1,4.78,22.85l4.76-17.86Z"/><polygon class="cls-1" points="868.6 177.35 879.89 208 913.61 254.92 925.61 262.17 948.36 262.17 964.01 254.31 996.96 201.27 1025.02 149.66 994.36 167.2 969.75 153.25 969.19 110.9 946.94 89.51 924.25 102.89 910.29 144.97 884.58 169.43 867.17 153.63 868.6 177.35"/><path class="cls-2" d="M883.89,199.5l5.59,2.81s.22-24.79,7.39-43.12l-12.29,10.24-10.15-9.27C871.88,179.85,883.89,199.5,883.89,199.5Z"/><path class="cls-23" d="M889.48,202.31l20.83,12L925,194.48h28.33l15.17,21.83,18.06-12.21,3.77-2.46s1.27-61.22-38.82-79.94a28.43,28.43,0,0,0-23.5-.36C888.64,138.71,889.48,202.31,889.48,202.31Z"/><polygon class="cls-1" points="924.98 194.47 939.09 186.01 953.31 194.47 924.98 194.47"/><polygon class="cls-2" points="925.7 262.17 910.95 219.42 926.46 198.15 939.09 190.24 951.46 198.15 967.79 220.73 997.04 201.27 964.09 254.31 948.45 262.17 925.7 262.17"/><path class="cls-2" d="M984.62,164.14A116.82,116.82,0,0,1,989.39,187l4.77-17.87Z"/><polygon class="cls-1" points="953.11 222.31 964.4 252.95 998.12 299.87 1010.12 307.12 1032.87 307.12 1048.52 299.26 1081.47 246.22 1109.53 194.61 1078.87 212.16 1054.26 198.21 1053.69 155.85 1031.44 134.47 1008.76 147.84 994.8 189.93 969.09 214.38 951.68 198.59 953.11 222.31"/><path class="cls-2" d="M968.39,244.45l5.6,2.81s.22-24.79,7.39-43.12l-12.29,10.24-10.15-9.27C956.39,224.8,968.39,244.45,968.39,244.45Z"/><path class="cls-24" d="M974,247.26l20.83,12,14.67-19.83h28.33L1053,261.26l18.06-12.2,3.77-2.46s1.27-61.23-38.82-79.95a28.5,28.5,0,0,0-23.5-.36C973.15,183.66,974,247.26,974,247.26Z"/><polygon class="cls-1" points="1009.49 239.43 1023.6 230.96 1037.82 239.43 1009.49 239.43"/><polygon class="cls-2" points="1010.2 307.12 995.45 264.37 1010.97 243.1 1023.6 235.2 1035.97 243.1 1052.3 265.68 1081.55 246.22 1048.6 299.26 1032.95 307.12 1010.2 307.12"/><path class="cls-2" d="M1069.13,209.09a116.82,116.82,0,0,1,4.77,22.85l4.77-17.87Z"/><polygon class="cls-1" points="768.66 222.09 779.95 252.73 813.67 299.65 825.67 306.9 848.42 306.9 864.07 299.04 897.02 246 925.08 194.39 894.42 211.93 869.82 197.98 869.25 155.63 847 134.25 824.32 147.62 810.35 189.71 784.64 214.16 767.23 198.37 768.66 222.09"/><path class="cls-2" d="M784,244.23l5.59,2.81s.22-24.79,7.39-43.12l-12.29,10.24-10.15-9.27C771.94,224.58,784,244.23,784,244.23Z"/><path class="cls-25" d="M789.54,247l20.83,12L825,239.21h28.33L868.54,261l18.06-12.21,3.77-2.46s1.27-61.22-38.82-79.94a28.43,28.43,0,0,0-23.5-.36C788.7,183.44,789.54,247,789.54,247Z"/><polygon class="cls-1" points="825.04 239.21 839.15 230.74 853.37 239.21 825.04 239.21"/><polygon class="cls-2" points="825.75 306.9 811 264.15 826.52 242.88 839.15 234.97 851.52 242.88 867.85 265.46 897.1 246 864.15 299.04 848.5 306.9 825.75 306.9"/><path class="cls-2" d="M884.68,208.87a116.82,116.82,0,0,1,4.77,22.85l4.77-17.87Z"/><polygon class="cls-1" points="853.17 267.04 864.46 297.68 898.18 344.6 910.18 351.85 932.93 351.85 948.58 344 981.53 290.95 1009.59 239.34 978.93 256.89 954.32 242.94 953.75 200.59 931.5 179.2 908.82 192.57 894.86 234.66 869.15 259.11 851.74 243.32 853.17 267.04"/><path class="cls-2" d="M868.45,289.19l5.6,2.8s.22-24.79,7.39-43.12l-12.29,10.24L859,249.84C856.45,269.54,868.45,289.19,868.45,289.19Z"/><path class="cls-26" d="M874.05,292l20.83,12,14.67-19.83h28.33L953.05,306l18.06-12.2,3.77-2.46s1.27-61.23-38.82-79.95a28.47,28.47,0,0,0-23.5-.35C873.21,228.39,874.05,292,874.05,292Z"/><polygon class="cls-1" points="909.54 284.16 923.66 275.69 937.88 284.16 909.54 284.16"/><polygon class="cls-2" points="910.26 351.85 895.51 309.1 911.03 287.83 923.66 279.93 936.03 287.83 952.36 310.41 981.61 290.95 948.66 344 933.01 351.85 910.26 351.85"/><path class="cls-2" d="M969.19,253.82A116.82,116.82,0,0,1,974,276.67l4.77-17.86Z"/><polygon class="cls-1" points="1037.47 267.08 1048.76 297.73 1082.49 344.65 1094.49 351.9 1117.24 351.9 1132.88 344.04 1165.84 291 1193.9 239.38 1163.24 256.93 1138.63 242.98 1138.06 200.63 1115.81 179.24 1093.13 192.62 1079.17 234.71 1053.46 259.16 1036.05 243.36 1037.47 267.08"/><path class="cls-2" d="M1052.76,289.23l5.59,2.81s.23-24.79,7.39-43.13l-12.28,10.25-10.15-9.27C1040.75,269.58,1052.76,289.23,1052.76,289.23Z"/><path class="cls-27" d="M1058.35,292l20.83,12,14.67-19.83h28.33L1137.35,306l18.07-12.21,3.76-2.46s1.27-61.22-38.81-79.94a28.43,28.43,0,0,0-23.5-.36C1057.51,228.44,1058.35,292,1058.35,292Z"/><polygon class="cls-1" points="1093.85 284.2 1107.96 275.74 1122.18 284.2 1093.85 284.2"/><polygon class="cls-2" points="1094.57 351.9 1079.82 309.15 1095.34 287.88 1107.96 279.97 1120.34 287.88 1136.67 310.46 1165.92 291 1132.97 344.04 1117.32 351.9 1094.57 351.9"/><path class="cls-2" d="M1153.5,253.87a116.82,116.82,0,0,1,4.77,22.85l4.76-17.87Z"/><polygon class="cls-1" points="937.53 311.82 948.82 342.46 982.55 389.38 994.55 396.63 1017.3 396.63 1032.94 388.77 1065.89 335.73 1093.96 284.12 1063.3 301.66 1038.69 287.71 1038.12 245.36 1015.87 223.97 993.19 237.35 979.23 279.44 953.52 303.89 936.11 288.1 937.53 311.82"/><path class="cls-2" d="M952.82,334l5.59,2.81s.23-24.79,7.39-43.12l-12.28,10.24-10.15-9.27C940.81,314.31,952.82,334,952.82,334Z"/><path class="cls-28" d="M958.41,336.77l20.83,12,14.67-19.83h28.33l15.17,21.83,18.07-12.21,3.76-2.46s1.27-61.22-38.81-79.94a28.43,28.43,0,0,0-23.5-.36C957.57,273.17,958.41,336.77,958.41,336.77Z"/><polygon class="cls-1" points="993.91 328.94 1008.02 320.47 1022.25 328.94 993.91 328.94"/><polygon class="cls-2" points="994.63 396.63 979.88 353.88 995.4 332.61 1008.02 324.7 1020.4 332.61 1036.73 355.19 1065.98 335.73 1033.03 388.77 1017.38 396.63 994.63 396.63"/><path class="cls-2" d="M1053.56,298.6a116.82,116.82,0,0,1,4.77,22.85l4.76-17.87Z"/><polygon class="cls-1" points="1121.8 311.77 1133.09 342.42 1166.82 389.34 1178.82 396.59 1201.57 396.59 1217.21 388.73 1250.16 335.69 1278.22 284.08 1247.57 301.62 1222.96 287.67 1222.39 245.32 1200.14 223.93 1177.46 237.31 1163.5 279.4 1137.78 303.85 1120.38 288.06 1121.8 311.77"/><path class="cls-2" d="M1137.09,333.92l5.59,2.81s.23-24.79,7.39-43.12l-12.29,10.24-10.14-9.27C1125.08,314.27,1137.09,333.92,1137.09,333.92Z"/><path class="cls-29" d="M1142.68,336.73l20.83,12,14.67-19.83h28.33l15.17,21.83,18.07-12.21,3.76-2.46s1.27-61.22-38.81-79.94a28.45,28.45,0,0,0-23.51-.36C1141.84,273.13,1142.68,336.73,1142.68,336.73Z"/><polygon class="cls-1" points="1178.18 328.9 1192.29 320.43 1206.51 328.9 1178.18 328.9"/><polygon class="cls-2" points="1178.9 396.59 1164.15 353.84 1179.67 332.57 1192.29 324.66 1204.67 332.57 1221 355.15 1250.25 335.69 1217.3 388.73 1201.65 396.59 1178.9 396.59"/><path class="cls-2" d="M1237.82,298.56a116.31,116.31,0,0,1,4.78,22.85l4.76-17.87Z"/><polygon class="cls-1" points="1021.86 356.51 1033.15 387.15 1066.88 434.07 1078.88 441.32 1101.63 441.32 1117.27 433.46 1150.22 380.42 1178.28 328.81 1147.63 346.35 1123.02 332.4 1122.45 290.05 1100.2 268.67 1077.52 282.04 1063.56 324.13 1037.84 348.58 1020.43 332.79 1021.86 356.51"/><path class="cls-2" d="M1037.15,378.65l5.59,2.81s.23-24.79,7.39-43.12l-12.29,10.24-10.14-9.27C1025.14,359,1037.15,378.65,1037.15,378.65Z"/><path class="cls-30" d="M1042.74,381.46l20.83,12,14.67-19.83h28.33l15.17,21.83,18.07-12.2,3.76-2.47s1.27-61.22-38.81-79.94a28.49,28.49,0,0,0-23.51-.36C1041.9,317.86,1042.74,381.46,1042.74,381.46Z"/><polygon class="cls-1" points="1078.24 373.63 1092.35 365.16 1106.57 373.63 1078.24 373.63"/><polygon class="cls-2" points="1078.96 441.32 1064.21 398.57 1079.73 377.3 1092.35 369.39 1104.73 377.3 1121.06 399.88 1150.31 380.42 1117.36 433.46 1101.71 441.32 1078.96 441.32"/><path class="cls-2" d="M1137.88,343.29a116.31,116.31,0,0,1,4.78,22.85l4.76-17.87Z"/><path class="cls-31" d="M705.12,182.65h-7.84v-7.83a3.58,3.58,0,1,0-7.16,0v7.83h-7.84a3.59,3.59,0,0,0,0,7.17h7.84v7.83a3.58,3.58,0,1,0,7.16,0v-7.83h7.84a3.59,3.59,0,0,0,0-7.17Z"/></g></svg>