<svg xmlns="http://www.w3.org/2000/svg" xmlns:xlink="http://www.w3.org/1999/xlink" viewBox="0 0 1564.66 441.32"><defs><style>.cls-1{fill:#62abbc;}.cls-2{fill:#3d838e;opacity:0.51;}.cls-3{fill:url(#linear-gradient);}.cls-4{fill:url(#linear-gradient-2);}.cls-5{fill:url(#linear-gradient-3);}.cls-6{fill:url(#linear-gradient-4);}.cls-7{fill:url(#linear-gradient-5);}.cls-8{fill:url(#linear-gradient-6);}.cls-9{fill:url(#linear-gradient-7);}.cls-10{fill:url(#linear-gradient-8);}.cls-11{fill:url(#linear-gradient-9);}.cls-12{fill:url(#linear-gradient-10);}.cls-13{fill:url(#linear-gradient-11);}.cls-14{fill:url(#linear-gradient-12);}.cls-15{fill:url(#linear-gradient-13);}.cls-16{fill:url(#linear-gradient-14);}.cls-17{fill:url(#linear-gradient-15);}.cls-18{fill:url(#linear-gradient-16);}.cls-19{fill:url(#linear-gradient-17);}.cls-20{fill:url(#linear-gradient-18);}.cls-21{fill:url(#linear-gradient-19);}.cls-22{fill:url(#linear-gradient-20);}.cls-23{fill:url(#linear-gradient-21);}.cls-24{fill:url(#linear-gradient-22);}.cls-25{fill:url(#linear-gradient-23);}.cls-26{fill:url(#linear-gradient-24);}.cls-27{fill:url(#linear-gradient-25);}.cls-28{fill:url(#linear-gradient-26);}.cls-29{fill:url(#linear-gradient-27);}.cls-30{fill:url(#linear-gradient-28);}.cls-31{fill:url(#linear-gradient-29);}.cls-32{fill:url(#linear-gradient-30);}.cls-33{fill:url(#linear-gradient-31);}.cls-34{fill:url(#linear-gradient-32);}.cls-35{fill:#f05023;}</style><linearGradient id="linear-gradient" x1="322.19" y1="78.13" x2="423.03" y2="78.13" gradientUnits="userSpaceOnUse"><stop offset="0" stop-color="#fbb040"/><stop offset="0.39" stop-color="#f9ae41"/><stop offset="0.59" stop-color="#f1a845"/><stop offset="0.74" stop-color="#e49e4b"/><stop offset="0.87" stop-color="#d18f55"/><stop offset="0.99" stop-color="#b97c60"/><stop offset="1" stop-color="#b67a62"/></linearGradient><linearGradient id="linear-gradient-2" x1="406.7" y1="123.08" x2="507.54" y2="123.08" xlink:href="#linear-gradient"/><linearGradient id="linear-gradient-3" x1="222.25" y1="122.86" x2="323.09" y2="122.86" xlink:href="#linear-gradient"/><linearGradient id="linear-gradient-4" x1="306.76" y1="167.81" x2="407.6" y2="167.81" xlink:href="#linear-gradient"/><linearGradient id="linear-gradient-5" x1="491.07" y1="167.86" x2="591.91" y2="167.86" xlink:href="#linear-gradient"/><linearGradient id="linear-gradient-6" x1="391.13" y1="212.59" x2="491.97" y2="212.59" xlink:href="#linear-gradient"/><linearGradient id="linear-gradient-7" x1="575.4" y1="212.55" x2="676.23" y2="212.55" xlink:href="#linear-gradient"/><linearGradient id="linear-gradient-8" x1="475.46" y1="257.28" x2="576.3" y2="257.28" xlink:href="#linear-gradient"/><linearGradient id="linear-gradient-9" x1="122.24" y1="167.64" x2="223.08" y2="167.64" xlink:href="#linear-gradient"/><linearGradient id="linear-gradient-10" x1="206.75" y1="212.6" x2="307.59" y2="212.6" xlink:href="#linear-gradient"/><linearGradient id="linear-gradient-11" x1="22.3" y1="212.37" x2="123.14" y2="212.37" xlink:href="#linear-gradient"/><linearGradient id="linear-gradient-12" x1="106.81" y1="257.33" x2="207.65" y2="257.33" xlink:href="#linear-gradient"/><linearGradient id="linear-gradient-13" x1="291.12" y1="257.37" x2="391.96" y2="257.37" xlink:href="#linear-gradient"/><linearGradient id="linear-gradient-14" x1="191.18" y1="302.1" x2="292.02" y2="302.1" xlink:href="#linear-gradient"/><linearGradient id="linear-gradient-15" x1="375.45" y1="302.06" x2="476.29" y2="302.06" xlink:href="#linear-gradient"/><linearGradient id="linear-gradient-16" x1="275.51" y1="346.79" x2="376.35" y2="346.79" xlink:href="#linear-gradient"/><linearGradient id="linear-gradient-17" x1="1175.91" y1="78.13" x2="1276.75" y2="78.13" xlink:href="#linear-gradient"/><linearGradient id="linear-gradient-18" x1="1260.42" y1="123.08" x2="1361.26" y2="123.08" xlink:href="#linear-gradient"/><linearGradient id="linear-gradient-19" x1="1075.97" y1="122.86" x2="1176.81" y2="122.86" xlink:href="#linear-gradient"/><linearGradient id="linear-gradient-20" x1="1160.48" y1="167.81" x2="1261.32" y2="167.81" xlink:href="#linear-gradient"/><linearGradient id="linear-gradient-21" x1="1344.78" y1="167.86" x2="1445.62" y2="167.86" xlink:href="#linear-gradient"/><linearGradient id="linear-gradient-22" x1="1244.84" y1="212.59" x2="1345.68" y2="212.59" xlink:href="#linear-gradient"/><linearGradient id="linear-gradient-23" x1="1429.11" y1="212.55" x2="1529.95" y2="212.55" xlink:href="#linear-gradient"/><linearGradient id="linear-gradient-24" x1="1329.17" y1="257.28" x2="1430.01" y2="257.28" xlink:href="#linear-gradient"/><linearGradient id="linear-gradient-25" x1="975.96" y1="167.64" x2="1076.8" y2="167.64" xlink:href="#linear-gradient"/><linearGradient id="linear-gradient-26" x1="1060.47" y1="212.6" x2="1161.31" y2="212.6" xlink:href="#linear-gradient"/><linearGradient id="linear-gradient-27" x1="876.02" y1="212.37" x2="976.86" y2="212.37" xlink:href="#linear-gradient"/><linearGradient id="linear-gradient-28" x1="960.53" y1="257.33" x2="1061.37" y2="257.33" xlink:href="#linear-gradient"/><linearGradient id="linear-gradient-29" x1="1144.83" y1="257.37" x2="1245.67" y2="257.37" xlink:href="#linear-gradient"/><linearGradient id="linear-gradient-30" x1="1044.89" y1="302.1" x2="1145.73" y2="302.1" xlink:href="#linear-gradient"/><linearGradient id="linear-gradient-31" x1="1229.16" y1="302.06" x2="1330" y2="302.06" xlink:href="#linear-gradient"/><linearGradient id="linear-gradient-32" x1="1129.22" y1="346.79" x2="1230.06" y2="346.79" xlink:href="#linear-gradient"/></defs><title>V1_R1</title><g id="Layer_2" data-name="Layer 2"><polygon class="cls-1" points="301.32 87.84 312.61 118.49 346.33 165.4 358.33 172.65 381.08 172.65 396.73 164.8 429.68 111.76 457.74 60.14 427.08 77.69 402.47 63.74 401.9 21.39 379.65 0 356.97 13.37 343.01 55.46 317.3 79.91 299.89 64.12 301.32 87.84"/><path class="cls-2" d="M316.6,110l5.59,2.81s.23-24.79,7.4-43.13L317.3,79.91l-10.15-9.27C304.59,90.34,316.6,110,316.6,110Z"/><path class="cls-3" d="M322.19,112.8l20.84,12L357.69,105H386l15.16,21.84,18.07-12.21,3.77-2.46s1.26-61.22-38.82-79.94a28.43,28.43,0,0,0-23.5-.36C321.36,49.19,322.19,112.8,322.19,112.8Z"/><polygon class="cls-1" points="357.69 104.96 371.81 96.5 386.03 104.96 357.69 104.96"/><polygon class="cls-2" points="358.41 172.65 343.66 129.9 359.18 108.64 371.81 100.73 384.18 108.64 400.51 131.22 429.76 111.76 396.81 164.8 381.16 172.65 358.41 172.65"/><path class="cls-2" d="M417.34,74.62a116.82,116.82,0,0,1,4.77,22.85l4.77-17.86Z"/><polygon class="cls-1" points="385.82 132.79 397.11 163.44 430.84 210.36 442.84 217.61 465.59 217.61 481.24 209.75 514.19 156.71 542.25 105.1 511.59 122.64 486.98 108.69 486.41 66.34 464.16 44.95 441.48 58.33 427.52 100.42 401.81 124.87 384.4 109.07 385.82 132.79"/><path class="cls-2" d="M401.11,154.94l5.59,2.81s.23-24.79,7.39-43.12l-12.28,10.24-10.15-9.27C389.1,135.29,401.11,154.94,401.11,154.94Z"/><path class="cls-4" d="M406.7,157.75l20.84,12,14.66-19.83h28.34l15.16,21.83,18.07-12.21,3.77-2.46s1.26-61.22-38.82-79.94a28.43,28.43,0,0,0-23.5-.36C405.86,94.15,406.7,157.75,406.7,157.75Z"/><polygon class="cls-1" points="442.2 149.92 456.31 141.45 470.54 149.92 442.2 149.92"/><polygon class="cls-2" points="442.92 217.61 428.17 174.86 443.69 153.59 456.31 145.68 468.69 153.59 485.02 176.17 514.27 156.71 481.32 209.75 465.67 217.61 442.92 217.61"/><path class="cls-2" d="M501.85,119.58a116.82,116.82,0,0,1,4.77,22.85l4.77-17.87Z"/><polygon class="cls-1" points="201.38 132.57 212.67 163.22 246.39 210.14 258.39 217.39 281.14 217.39 296.79 209.53 329.74 156.49 357.8 104.87 327.14 122.42 302.53 108.47 301.96 66.12 279.71 44.73 257.03 58.1 243.07 100.19 217.36 124.64 199.95 108.85 201.38 132.57"/><path class="cls-2" d="M216.66,154.72l5.59,2.81s.23-24.79,7.4-43.13l-12.29,10.24-10.15-9.26C204.65,135.07,216.66,154.72,216.66,154.72Z"/><path class="cls-5" d="M222.25,157.53l20.84,12,14.66-19.84h28.34l15.16,21.84,18.07-12.21,3.77-2.46s1.26-61.22-38.82-79.94a28.43,28.43,0,0,0-23.5-.36C221.42,93.92,222.25,157.53,222.25,157.53Z"/><polygon class="cls-1" points="257.75 149.69 271.87 141.23 286.09 149.69 257.75 149.69"/><polygon class="cls-2" points="258.47 217.39 243.72 174.64 259.24 153.37 271.87 145.46 284.24 153.37 300.57 175.95 329.82 156.49 296.87 209.53 281.22 217.39 258.47 217.39"/><path class="cls-2" d="M317.4,119.35a117,117,0,0,1,4.77,22.85l4.77-17.86Z"/><polygon class="cls-1" points="285.88 177.53 297.17 208.17 330.9 255.09 342.9 262.34 365.65 262.34 381.3 254.48 414.25 201.44 442.31 149.83 411.65 167.37 387.04 153.43 386.47 111.07 364.22 89.69 341.54 103.06 327.58 145.15 301.87 169.6 284.46 153.81 285.88 177.53"/><path class="cls-2" d="M301.17,199.67l5.59,2.81s.23-24.79,7.4-43.12L301.87,169.6l-10.15-9.27C289.16,180,301.17,199.67,301.17,199.67Z"/><path class="cls-6" d="M306.76,202.48l20.84,12,14.66-19.83H370.6l15.16,21.83,18.07-12.21,3.77-2.46s1.26-61.22-38.82-79.94a28.43,28.43,0,0,0-23.5-.36C305.92,138.88,306.76,202.48,306.76,202.48Z"/><polygon class="cls-1" points="342.26 194.65 356.38 186.18 370.6 194.65 342.26 194.65"/><polygon class="cls-2" points="342.98 262.34 328.23 219.59 343.75 198.32 356.38 190.41 368.75 198.32 385.08 220.9 414.33 201.44 381.38 254.48 365.73 262.34 342.98 262.34"/><path class="cls-2" d="M401.91,164.31a116.82,116.82,0,0,1,4.77,22.85l4.77-17.87Z"/><polygon class="cls-1" points="470.19 177.57 481.48 208.22 515.21 255.13 527.21 262.38 549.95 262.38 565.6 254.53 598.55 201.49 626.61 149.87 595.96 167.42 571.35 153.47 570.78 111.12 548.53 89.73 525.85 103.1 511.89 145.19 486.17 169.64 468.76 153.85 470.19 177.57"/><path class="cls-2" d="M485.48,199.72l5.59,2.81s.22-24.8,7.39-43.13l-12.29,10.24L476,160.37C473.47,180.07,485.48,199.72,485.48,199.72Z"/><path class="cls-7" d="M491.07,202.53l20.83,12,14.67-19.84H554.9l15.17,21.84,18.07-12.21,3.76-2.46s1.27-61.22-38.81-79.94a28.45,28.45,0,0,0-23.51-.36C490.23,138.92,491.07,202.53,491.07,202.53Z"/><polygon class="cls-1" points="526.57 194.69 540.68 186.23 554.9 194.69 526.57 194.69"/><polygon class="cls-2" points="527.29 262.38 512.54 219.63 528.06 198.37 540.68 190.46 553.06 198.37 569.39 220.94 598.64 201.49 565.69 254.53 550.04 262.38 527.29 262.38"/><path class="cls-2" d="M586.21,164.35A116.31,116.31,0,0,1,591,187.2l4.76-17.86Z"/><polygon class="cls-1" points="370.25 222.3 381.54 252.95 415.26 299.87 427.26 307.12 450.01 307.12 465.66 299.26 498.61 246.22 526.67 194.6 496.01 212.15 471.41 198.2 470.84 155.85 448.59 134.46 425.91 147.84 411.95 189.92 386.23 214.37 368.82 198.58 370.25 222.3"/><path class="cls-2" d="M385.54,244.45l5.59,2.81s.22-24.79,7.39-43.13l-12.29,10.24-10.14-9.26C373.53,224.8,385.54,244.45,385.54,244.45Z"/><path class="cls-8" d="M391.13,247.26l20.83,12,14.67-19.84H455l15.17,21.84,18.07-12.21,3.76-2.46s1.27-61.22-38.81-79.94a28.45,28.45,0,0,0-23.51-.36C390.29,183.65,391.13,247.26,391.13,247.26Z"/><polygon class="cls-1" points="426.63 239.42 440.74 230.96 454.96 239.42 426.63 239.42"/><polygon class="cls-2" points="427.35 307.12 412.6 264.37 428.12 243.1 440.74 235.19 453.12 243.1 469.45 265.68 498.7 246.22 465.75 299.26 450.1 307.12 427.35 307.12"/><path class="cls-2" d="M486.27,209.08a116.31,116.31,0,0,1,4.78,22.85l4.76-17.86Z"/><polygon class="cls-1" points="554.52 222.26 565.81 252.91 599.53 299.82 611.53 307.07 634.28 307.07 649.93 299.22 682.88 246.18 710.94 194.56 680.28 212.11 655.67 198.16 655.11 155.81 632.86 134.42 610.17 147.79 596.21 189.88 570.5 214.33 553.09 198.54 554.52 222.26"/><path class="cls-2" d="M569.81,244.41l5.59,2.81s.22-24.79,7.39-43.13L570.5,214.33l-10.15-9.27C557.8,224.76,569.81,244.41,569.81,244.41Z"/><path class="cls-9" d="M575.4,247.22l20.83,12,14.67-19.84h28.33l15.17,21.84L672.46,249l3.77-2.46s1.27-61.22-38.82-79.94a28.43,28.43,0,0,0-23.5-.36C574.56,183.61,575.4,247.22,575.4,247.22Z"/><polygon class="cls-1" points="610.9 239.38 625.01 230.92 639.23 239.38 610.9 239.38"/><polygon class="cls-2" points="611.62 307.07 596.87 264.32 612.38 243.06 625.01 235.15 637.38 243.06 653.71 265.63 682.96 246.18 650.01 299.22 634.37 307.07 611.62 307.07"/><path class="cls-2" d="M670.54,209a116.82,116.82,0,0,1,4.77,22.85L680.08,214Z"/><polygon class="cls-1" points="454.58 266.99 465.87 297.64 499.59 344.56 511.59 351.81 534.34 351.81 549.99 343.95 582.94 290.91 611 239.29 580.34 256.84 555.74 242.89 555.17 200.54 532.92 179.15 510.24 192.53 496.27 234.61 470.56 259.06 453.15 243.27 454.58 266.99"/><path class="cls-2" d="M469.87,289.14l5.59,2.81s.22-24.79,7.39-43.13l-12.29,10.25-10.15-9.27C457.86,269.49,469.87,289.14,469.87,289.14Z"/><path class="cls-10" d="M475.46,292l20.83,12L511,284.11h28.33L554.46,306l18.06-12.21,3.77-2.46s1.27-61.22-38.82-79.94A28.43,28.43,0,0,0,514,211C474.62,228.35,475.46,292,475.46,292Z"/><polygon class="cls-1" points="510.96 284.11 525.07 275.65 539.29 284.11 510.96 284.11"/><polygon class="cls-2" points="511.68 351.81 496.93 309.06 512.44 287.79 525.07 279.88 537.44 287.79 553.77 310.37 583.02 290.91 550.07 343.95 534.43 351.81 511.68 351.81"/><path class="cls-2" d="M570.6,253.77a117,117,0,0,1,4.77,22.85l4.77-17.86Z"/><polygon class="cls-1" points="101.37 177.35 112.66 208 146.38 254.92 158.38 262.17 181.13 262.17 196.78 254.31 229.73 201.27 257.79 149.66 227.13 167.2 202.52 153.25 201.95 110.9 179.7 89.51 157.02 102.89 143.06 144.97 117.35 169.43 99.94 153.63 101.37 177.35"/><path class="cls-2" d="M116.65,199.5l5.59,2.81s.23-24.79,7.4-43.12l-12.29,10.24-10.15-9.27C104.65,179.85,116.65,199.5,116.65,199.5Z"/><path class="cls-11" d="M122.24,202.31l20.84,12,14.66-19.83h28.34l15.16,21.83,18.07-12.21,3.77-2.46s1.26-61.22-38.82-79.94a28.43,28.43,0,0,0-23.5-.36C121.41,138.71,122.24,202.31,122.24,202.31Z"/><polygon class="cls-1" points="157.75 194.47 171.86 186.01 186.08 194.47 157.75 194.47"/><polygon class="cls-2" points="158.46 262.17 143.71 219.42 159.23 198.15 171.86 190.24 184.23 198.15 200.56 220.73 229.81 201.27 196.86 254.31 181.21 262.17 158.46 262.17"/><path class="cls-2" d="M217.39,164.14A116.82,116.82,0,0,1,222.16,187l4.77-17.87Z"/><polygon class="cls-1" points="185.88 222.31 197.16 252.95 230.89 299.87 242.89 307.12 265.64 307.12 281.29 299.26 314.24 246.22 342.3 194.61 311.64 212.16 287.03 198.21 286.46 155.85 264.21 134.47 241.53 147.84 227.57 189.93 201.86 214.38 184.45 198.59 185.88 222.31"/><path class="cls-2" d="M201.16,244.45l5.59,2.81s.23-24.79,7.4-43.12l-12.29,10.24-10.15-9.27C189.15,224.8,201.16,244.45,201.16,244.45Z"/><path class="cls-12" d="M206.75,247.26l20.84,12,14.66-19.83h28.34l15.16,21.83,18.07-12.2,3.77-2.46s1.26-61.23-38.82-79.95a28.5,28.5,0,0,0-23.5-.36C205.91,183.66,206.75,247.26,206.75,247.26Z"/><polygon class="cls-1" points="242.25 239.43 256.37 230.96 270.59 239.43 242.25 239.43"/><polygon class="cls-2" points="242.97 307.12 228.22 264.37 243.74 243.1 256.37 235.2 268.74 243.1 285.07 265.68 314.32 246.22 281.37 299.26 265.72 307.12 242.97 307.12"/><path class="cls-2" d="M301.9,209.09a116.82,116.82,0,0,1,4.77,22.85l4.77-17.87Z"/><polygon class="cls-1" points="1.43 222.09 12.72 252.73 46.44 299.65 58.44 306.9 81.19 306.9 96.84 299.04 129.79 246 157.85 194.39 127.19 211.93 102.58 197.98 102.01 155.63 79.76 134.25 57.08 147.62 43.12 189.71 17.41 214.16 0 198.37 1.43 222.09"/><path class="cls-2" d="M16.71,244.23,22.3,247s.23-24.79,7.4-43.12L17.41,214.16,7.26,204.89C4.71,224.58,16.71,244.23,16.71,244.23Z"/><path class="cls-13" d="M22.3,247l20.84,12L57.8,239.21H86.14L101.3,261l18.07-12.21,3.77-2.46s1.26-61.22-38.82-79.94a28.43,28.43,0,0,0-23.5-.36C21.47,183.44,22.3,247,22.3,247Z"/><polygon class="cls-1" points="57.8 239.21 71.92 230.74 86.14 239.21 57.8 239.21"/><polygon class="cls-2" points="58.52 306.9 43.77 264.15 59.29 242.88 71.92 234.97 84.29 242.88 100.62 265.46 129.87 246 96.92 299.04 81.27 306.9 58.52 306.9"/><path class="cls-2" d="M117.45,208.87a116.82,116.82,0,0,1,4.77,22.85L127,213.85Z"/><polygon class="cls-1" points="85.94 267.04 97.22 297.68 130.95 344.6 142.95 351.85 165.7 351.85 181.35 344 214.3 290.95 242.36 239.34 211.7 256.89 187.09 242.94 186.52 200.59 164.27 179.2 141.59 192.57 127.63 234.66 101.92 259.11 84.51 243.32 85.94 267.04"/><path class="cls-2" d="M101.22,289.19l5.59,2.8s.23-24.79,7.4-43.12l-12.29,10.24-10.15-9.27C89.21,269.54,101.22,289.19,101.22,289.19Z"/><path class="cls-14" d="M106.81,292l20.84,12,14.66-19.83h28.34L185.81,306l18.07-12.2,3.77-2.46s1.26-61.23-38.82-79.95a28.47,28.47,0,0,0-23.5-.35C106,228.39,106.81,292,106.81,292Z"/><polygon class="cls-1" points="142.31 284.16 156.43 275.69 170.65 284.16 142.31 284.16"/><polygon class="cls-2" points="143.03 351.85 128.28 309.1 143.8 287.83 156.43 279.93 168.8 287.83 185.13 310.41 214.38 290.95 181.43 344 165.78 351.85 143.03 351.85"/><path class="cls-2" d="M202,253.82a116.82,116.82,0,0,1,4.77,22.85l4.77-17.86Z"/><polygon class="cls-1" points="270.24 267.08 281.53 297.73 315.25 344.65 327.25 351.9 350 351.9 365.65 344.04 398.6 291 426.66 239.38 396 256.93 371.4 242.98 370.83 200.63 348.58 179.24 325.9 192.62 311.94 234.71 286.23 259.16 268.81 243.36 270.24 267.08"/><path class="cls-2" d="M285.53,289.23l5.59,2.81s.23-24.79,7.39-43.13l-12.29,10.25-10.14-9.27C273.52,269.58,285.53,289.23,285.53,289.23Z"/><path class="cls-15" d="M291.12,292,312,304l14.67-19.83H355L370.12,306l18.07-12.21,3.76-2.46s1.27-61.22-38.81-79.94a28.45,28.45,0,0,0-23.51-.36C290.28,228.44,291.12,292,291.12,292Z"/><polygon class="cls-1" points="326.62 284.2 340.73 275.74 354.95 284.2 326.62 284.2"/><polygon class="cls-2" points="327.34 351.9 312.59 309.15 328.11 287.88 340.73 279.97 353.11 287.88 369.44 310.46 398.69 291 365.74 344.04 350.09 351.9 327.34 351.9"/><path class="cls-2" d="M386.26,253.87A116.31,116.31,0,0,1,391,276.72l4.76-17.87Z"/><polygon class="cls-1" points="170.3 311.82 181.59 342.46 215.32 389.38 227.32 396.63 250.06 396.63 265.71 388.77 298.66 335.73 326.73 284.12 296.07 301.66 271.46 287.71 270.89 245.36 248.64 223.97 225.96 237.35 212 279.44 186.28 303.89 168.88 288.1 170.3 311.82"/><path class="cls-2" d="M185.59,334l5.59,2.81s.23-24.79,7.39-43.12l-12.29,10.24-10.14-9.27C173.58,314.31,185.59,334,185.59,334Z"/><path class="cls-16" d="M191.18,336.77l20.83,12,14.67-19.83H255l15.17,21.83,18.07-12.21L292,336.1s1.27-61.22-38.81-79.94a28.45,28.45,0,0,0-23.51-.36C190.34,273.17,191.18,336.77,191.18,336.77Z"/><polygon class="cls-1" points="226.68 328.94 240.79 320.47 255.01 328.94 226.68 328.94"/><polygon class="cls-2" points="227.4 396.63 212.65 353.88 228.17 332.61 240.79 324.7 253.17 332.61 269.5 355.19 298.75 335.73 265.8 388.77 250.15 396.63 227.4 396.63"/><path class="cls-2" d="M286.32,298.6a116.31,116.31,0,0,1,4.78,22.85l4.76-17.87Z"/><polygon class="cls-1" points="354.57 311.77 365.86 342.42 399.58 389.34 411.58 396.59 434.33 396.59 449.98 388.73 482.93 335.69 510.99 284.08 480.33 301.62 455.73 287.67 455.16 245.32 432.91 223.93 410.23 237.31 396.26 279.4 370.55 303.85 353.14 288.06 354.57 311.77"/><path class="cls-2" d="M369.86,333.92l5.59,2.81s.22-24.79,7.39-43.12l-12.29,10.24-10.15-9.27C357.85,314.27,369.86,333.92,369.86,333.92Z"/><path class="cls-17" d="M375.45,336.73l20.83,12L411,328.9h28.33l15.17,21.83,18.06-12.21,3.77-2.46s1.27-61.22-38.81-79.94a28.45,28.45,0,0,0-23.51-.36C374.61,273.13,375.45,336.73,375.45,336.73Z"/><polygon class="cls-1" points="410.95 328.9 425.06 320.43 439.28 328.9 410.95 328.9"/><polygon class="cls-2" points="411.67 396.59 396.92 353.84 412.44 332.57 425.06 324.66 437.44 332.57 453.76 355.15 483.01 335.69 450.06 388.73 434.42 396.59 411.67 396.59"/><path class="cls-2" d="M470.59,298.56a117.21,117.21,0,0,1,4.78,22.85l4.76-17.87Z"/><polygon class="cls-1" points="254.63 356.51 265.92 387.15 299.64 434.07 311.64 441.32 334.39 441.32 350.04 433.46 382.99 380.42 411.05 328.81 380.39 346.35 355.79 332.4 355.22 290.05 332.97 268.67 310.29 282.04 296.32 324.13 270.61 348.58 253.2 332.79 254.63 356.51"/><path class="cls-2" d="M269.92,378.65l5.59,2.81s.22-24.79,7.39-43.12l-12.29,10.24-10.15-9.27C257.91,359,269.92,378.65,269.92,378.65Z"/><path class="cls-18" d="M275.51,381.46l20.83,12L311,373.63h28.33l15.17,21.83,18.07-12.2,3.76-2.47s1.27-61.22-38.81-79.94a28.49,28.49,0,0,0-23.51-.36C274.67,317.86,275.51,381.46,275.51,381.46Z"/><polygon class="cls-1" points="311.01 373.63 325.12 365.16 339.34 373.63 311.01 373.63"/><polygon class="cls-2" points="311.73 441.32 296.98 398.57 312.5 377.3 325.12 369.39 337.5 377.3 353.82 399.88 383.07 380.42 350.13 433.46 334.48 441.32 311.73 441.32"/><path class="cls-2" d="M370.65,343.29a116.31,116.31,0,0,1,4.78,22.85l4.76-17.87Z"/><polygon class="cls-1" points="1155.03 87.84 1166.32 118.49 1200.05 165.4 1212.05 172.65 1234.8 172.65 1250.44 164.8 1283.39 111.76 1311.45 60.14 1280.8 77.69 1256.19 63.74 1255.62 21.39 1233.37 0 1210.69 13.37 1196.73 55.46 1171.02 79.91 1153.61 64.12 1155.03 87.84"/><path class="cls-2" d="M1170.32,110l5.59,2.81s.23-24.79,7.39-43.13L1171,79.91l-10.14-9.27C1158.31,90.34,1170.32,110,1170.32,110Z"/><path class="cls-19" d="M1175.91,112.8l20.83,12L1211.41,105h28.33l15.17,21.84L1273,114.59l3.76-2.46s1.27-61.22-38.81-79.94a28.45,28.45,0,0,0-23.51-.36C1175.07,49.19,1175.91,112.8,1175.91,112.8Z"/><polygon class="cls-1" points="1211.41 104.96 1225.52 96.5 1239.74 104.96 1211.41 104.96"/><polygon class="cls-2" points="1212.13 172.65 1197.38 129.9 1212.9 108.64 1225.52 100.73 1237.9 108.64 1254.23 131.22 1283.48 111.76 1250.53 164.8 1234.88 172.65 1212.13 172.65"/><path class="cls-2" d="M1271.05,74.62a116.31,116.31,0,0,1,4.78,22.85l4.76-17.86Z"/><polygon class="cls-1" points="1239.54 132.79 1250.83 163.44 1284.55 210.36 1296.55 217.61 1319.3 217.61 1334.95 209.75 1367.9 156.71 1395.96 105.1 1365.3 122.64 1340.7 108.69 1340.13 66.34 1317.88 44.95 1295.2 58.33 1281.24 100.42 1255.52 124.87 1238.11 109.07 1239.54 132.79"/><path class="cls-2" d="M1254.83,154.94l5.59,2.81s.22-24.79,7.39-43.12l-12.29,10.24-10.15-9.27C1242.82,135.29,1254.83,154.94,1254.83,154.94Z"/><path class="cls-20" d="M1260.42,157.75l20.83,12,14.67-19.83h28.33l15.17,21.83,18.07-12.21,3.76-2.46s1.27-61.22-38.81-79.94a28.45,28.45,0,0,0-23.51-.36C1259.58,94.15,1260.42,157.75,1260.42,157.75Z"/><polygon class="cls-1" points="1295.92 149.92 1310.03 141.45 1324.25 149.92 1295.92 149.92"/><polygon class="cls-2" points="1296.64 217.61 1281.89 174.86 1297.41 153.59 1310.03 145.68 1322.41 153.59 1338.74 176.17 1367.99 156.71 1335.04 209.75 1319.39 217.61 1296.64 217.61"/><path class="cls-2" d="M1355.56,119.58a116.31,116.31,0,0,1,4.78,22.85l4.76-17.87Z"/><polygon class="cls-1" points="1055.09 132.57 1066.38 163.22 1100.11 210.14 1112.11 217.39 1134.86 217.39 1150.5 209.53 1183.45 156.49 1211.51 104.87 1180.86 122.42 1156.25 108.47 1155.68 66.12 1133.43 44.73 1110.75 58.1 1096.79 100.19 1071.08 124.64 1053.66 108.85 1055.09 132.57"/><path class="cls-2" d="M1070.38,154.72l5.59,2.81s.23-24.79,7.39-43.13l-12.29,10.24-10.14-9.26C1058.37,135.07,1070.38,154.72,1070.38,154.72Z"/><path class="cls-21" d="M1076,157.53l20.83,12,14.67-19.84h28.33L1155,171.53,1173,159.32l3.76-2.46s1.27-61.22-38.81-79.94a28.45,28.45,0,0,0-23.51-.36C1075.13,93.92,1076,157.53,1076,157.53Z"/><polygon class="cls-1" points="1111.47 149.69 1125.58 141.23 1139.8 149.69 1111.47 149.69"/><polygon class="cls-2" points="1112.19 217.39 1097.44 174.64 1112.96 153.37 1125.58 145.46 1137.96 153.37 1154.29 175.95 1183.54 156.49 1150.59 209.53 1134.94 217.39 1112.19 217.39"/><path class="cls-2" d="M1171.11,119.35a116.54,116.54,0,0,1,4.78,22.85l4.76-17.86Z"/><polygon class="cls-1" points="1139.6 177.53 1150.89 208.17 1184.61 255.09 1196.61 262.34 1219.36 262.34 1235.01 254.48 1267.96 201.44 1296.02 149.83 1265.36 167.37 1240.76 153.43 1240.19 111.07 1217.94 89.69 1195.26 103.06 1181.3 145.15 1155.58 169.6 1138.17 153.81 1139.6 177.53"/><path class="cls-2" d="M1154.89,199.67l5.59,2.81s.22-24.79,7.39-43.12l-12.29,10.24-10.15-9.27C1142.88,180,1154.89,199.67,1154.89,199.67Z"/><path class="cls-22" d="M1160.48,202.48l20.83,12L1196,194.65h28.33l15.17,21.83,18.07-12.21,3.76-2.46s1.27-61.22-38.81-79.94a28.45,28.45,0,0,0-23.51-.36C1159.64,138.88,1160.48,202.48,1160.48,202.48Z"/><polygon class="cls-1" points="1195.98 194.65 1210.09 186.18 1224.31 194.65 1195.98 194.65"/><polygon class="cls-2" points="1196.7 262.34 1181.95 219.59 1197.47 198.32 1210.09 190.41 1222.47 198.32 1238.8 220.9 1268.05 201.44 1235.1 254.48 1219.45 262.34 1196.7 262.34"/><path class="cls-2" d="M1255.62,164.31a116.31,116.31,0,0,1,4.78,22.85l4.76-17.87Z"/><polygon class="cls-1" points="1323.91 177.57 1335.2 208.22 1368.92 255.13 1380.92 262.38 1403.67 262.38 1419.32 254.53 1452.27 201.49 1480.33 149.87 1449.67 167.42 1425.06 153.47 1424.49 111.12 1402.24 89.73 1379.56 103.1 1365.6 145.19 1339.89 169.64 1322.48 153.85 1323.91 177.57"/><path class="cls-2" d="M1339.19,199.72l5.59,2.81s.23-24.8,7.4-43.13l-12.29,10.24-10.15-9.27C1327.19,180.07,1339.19,199.72,1339.19,199.72Z"/><path class="cls-23" d="M1344.78,202.53l20.84,12,14.66-19.84h28.34l15.16,21.84,18.07-12.21,3.77-2.46s1.26-61.22-38.82-79.94a28.43,28.43,0,0,0-23.5-.36C1344,138.92,1344.78,202.53,1344.78,202.53Z"/><polygon class="cls-1" points="1380.29 194.69 1394.4 186.23 1408.62 194.69 1380.29 194.69"/><polygon class="cls-2" points="1381 262.38 1366.25 219.63 1381.77 198.37 1394.4 190.46 1406.77 198.37 1423.1 220.94 1452.35 201.49 1419.4 254.53 1403.75 262.38 1381 262.38"/><path class="cls-2" d="M1439.93,164.35a116.82,116.82,0,0,1,4.77,22.85l4.77-17.86Z"/><polygon class="cls-1" points="1223.97 222.3 1235.26 252.95 1268.98 299.87 1280.98 307.12 1303.73 307.12 1319.38 299.26 1352.33 246.22 1380.39 194.6 1349.73 212.15 1325.12 198.2 1324.56 155.85 1302.31 134.46 1279.62 147.84 1265.66 189.92 1239.95 214.37 1222.54 198.58 1223.97 222.3"/><path class="cls-2" d="M1239.25,244.45l5.6,2.81s.22-24.79,7.39-43.13L1240,214.37l-10.15-9.26C1227.25,224.8,1239.25,244.45,1239.25,244.45Z"/><path class="cls-24" d="M1244.85,247.26l20.83,12,14.67-19.84h28.33l15.17,21.84,18.06-12.21,3.77-2.46s1.27-61.22-38.82-79.94a28.43,28.43,0,0,0-23.5-.36C1244,183.65,1244.85,247.26,1244.85,247.26Z"/><polygon class="cls-1" points="1280.35 239.42 1294.46 230.96 1308.68 239.42 1280.35 239.42"/><polygon class="cls-2" points="1281.06 307.12 1266.31 264.37 1281.83 243.1 1294.46 235.19 1306.83 243.1 1323.16 265.68 1352.41 246.22 1319.46 299.26 1303.81 307.12 1281.06 307.12"/><path class="cls-2" d="M1340,209.08a116.82,116.82,0,0,1,4.77,22.85l4.77-17.86Z"/><polygon class="cls-1" points="1408.23 222.26 1419.52 252.91 1453.25 299.82 1465.25 307.07 1488 307.07 1503.65 299.22 1536.6 246.18 1564.66 194.56 1534 212.11 1509.39 198.16 1508.82 155.81 1486.57 134.42 1463.89 147.79 1449.93 189.88 1424.22 214.33 1406.81 198.54 1408.23 222.26"/><path class="cls-2" d="M1423.52,244.41l5.59,2.81s.23-24.79,7.4-43.13l-12.29,10.24-10.15-9.27C1411.51,224.76,1423.52,244.41,1423.52,244.41Z"/><path class="cls-25" d="M1429.11,247.22l20.84,12,14.66-19.84H1493l15.16,21.84L1526.18,249l3.77-2.46s1.26-61.22-38.82-79.94a28.43,28.43,0,0,0-23.5-.36C1428.27,183.61,1429.11,247.22,1429.11,247.22Z"/><polygon class="cls-1" points="1464.61 239.38 1478.72 230.92 1492.95 239.38 1464.61 239.38"/><polygon class="cls-2" points="1465.33 307.07 1450.58 264.32 1466.1 243.06 1478.72 235.15 1491.1 243.06 1507.43 265.63 1536.68 246.18 1503.73 299.22 1488.08 307.07 1465.33 307.07"/><path class="cls-2" d="M1524.26,209a116.82,116.82,0,0,1,4.77,22.85L1533.8,214Z"/><polygon class="cls-1" points="1308.3 266.99 1319.59 297.64 1353.31 344.56 1365.31 351.81 1388.06 351.81 1403.71 343.95 1436.66 290.91 1464.72 239.29 1434.06 256.84 1409.45 242.89 1408.88 200.54 1386.63 179.15 1363.95 192.53 1349.99 234.61 1324.28 259.06 1306.87 243.27 1308.3 266.99"/><path class="cls-2" d="M1323.58,289.14l5.59,2.81s.23-24.79,7.4-43.13l-12.29,10.25-10.15-9.27C1311.57,269.49,1323.58,289.14,1323.58,289.14Z"/><path class="cls-26" d="M1329.17,292,1350,304l14.66-19.84H1393L1408.17,306l18.07-12.21,3.77-2.46s1.26-61.22-38.82-79.94a28.43,28.43,0,0,0-23.5-.36C1328.33,228.35,1329.17,292,1329.17,292Z"/><polygon class="cls-1" points="1364.67 284.11 1378.79 275.65 1393.01 284.11 1364.67 284.11"/><polygon class="cls-2" points="1365.39 351.81 1350.64 309.06 1366.16 287.79 1378.79 279.88 1391.16 287.79 1407.49 310.37 1436.74 290.91 1403.79 343.95 1388.14 351.81 1365.39 351.81"/><path class="cls-2" d="M1424.32,253.77a117,117,0,0,1,4.77,22.85l4.77-17.86Z"/><polygon class="cls-1" points="955.08 177.35 966.37 208 1000.1 254.92 1012.1 262.17 1034.85 262.17 1050.49 254.31 1083.44 201.27 1111.51 149.66 1080.85 167.2 1056.24 153.25 1055.67 110.9 1033.42 89.51 1010.74 102.89 996.78 144.97 971.07 169.43 953.66 153.63 955.08 177.35"/><path class="cls-2" d="M970.37,199.5l5.59,2.81s.23-24.79,7.39-43.12l-12.28,10.24-10.15-9.27C958.36,179.85,970.37,199.5,970.37,199.5Z"/><path class="cls-27" d="M976,202.31l20.83,12,14.67-19.83h28.33L1055,216.31,1073,204.1l3.76-2.46s1.27-61.22-38.81-79.94a28.45,28.45,0,0,0-23.51-.36C975.12,138.71,976,202.31,976,202.31Z"/><polygon class="cls-1" points="1011.46 194.47 1025.57 186.01 1039.79 194.47 1011.46 194.47"/><polygon class="cls-2" points="1012.18 262.17 997.43 219.42 1012.95 198.15 1025.57 190.24 1037.95 198.15 1054.28 220.73 1083.53 201.27 1050.58 254.31 1034.93 262.17 1012.18 262.17"/><path class="cls-2" d="M1071.1,164.14a116.31,116.31,0,0,1,4.78,22.85l4.76-17.87Z"/><polygon class="cls-1" points="1039.59 222.31 1050.88 252.95 1084.61 299.87 1096.61 307.12 1119.36 307.12 1135 299.26 1167.95 246.22 1196.01 194.61 1165.36 212.16 1140.75 198.21 1140.18 155.85 1117.93 134.47 1095.25 147.84 1081.29 189.93 1055.57 214.38 1038.16 198.59 1039.59 222.31"/><path class="cls-2" d="M1054.88,244.45l5.59,2.81s.22-24.79,7.39-43.12l-12.29,10.24-10.14-9.27C1042.87,224.8,1054.88,244.45,1054.88,244.45Z"/><path class="cls-28" d="M1060.47,247.26l20.83,12L1096,239.43h28.33l15.17,21.83,18.07-12.2,3.76-2.46s1.27-61.23-38.81-79.95a28.53,28.53,0,0,0-23.51-.36C1059.63,183.66,1060.47,247.26,1060.47,247.26Z"/><polygon class="cls-1" points="1095.97 239.43 1110.08 230.96 1124.3 239.43 1095.97 239.43"/><polygon class="cls-2" points="1096.69 307.12 1081.94 264.37 1097.46 243.1 1110.08 235.2 1122.46 243.1 1138.79 265.68 1168.04 246.22 1135.09 299.26 1119.44 307.12 1096.69 307.12"/><path class="cls-2" d="M1155.61,209.09a116.31,116.31,0,0,1,4.78,22.85l4.76-17.87Z"/><polygon class="cls-1" points="855.14 222.09 866.43 252.73 900.16 299.65 912.16 306.9 934.91 306.9 950.55 299.04 983.5 246 1011.57 194.39 980.91 211.93 956.3 197.98 955.73 155.63 933.48 134.25 910.8 147.62 896.84 189.71 871.13 214.16 853.72 198.37 855.14 222.09"/><path class="cls-2" d="M870.43,244.23,876,247s.23-24.79,7.39-43.12l-12.28,10.24L861,204.89C858.42,224.58,870.43,244.23,870.43,244.23Z"/><path class="cls-29" d="M876,247l20.83,12,14.67-19.83h28.33L955,261l18.07-12.21,3.76-2.46s1.27-61.22-38.81-79.94a28.45,28.45,0,0,0-23.51-.36C875.18,183.44,876,247,876,247Z"/><polygon class="cls-1" points="911.52 239.21 925.63 230.74 939.85 239.21 911.52 239.21"/><polygon class="cls-2" points="912.24 306.9 897.49 264.15 913.01 242.88 925.63 234.97 938.01 242.88 954.34 265.46 983.59 246 950.64 299.04 934.99 306.9 912.24 306.9"/><path class="cls-2" d="M971.16,208.87a116.31,116.31,0,0,1,4.78,22.85l4.76-17.87Z"/><polygon class="cls-1" points="939.65 267.04 950.94 297.68 984.66 344.6 996.66 351.85 1019.41 351.85 1035.06 344 1068.01 290.95 1096.07 239.34 1065.41 256.89 1040.81 242.94 1040.24 200.59 1017.99 179.2 995.31 192.57 981.35 234.66 955.63 259.11 938.23 243.32 939.65 267.04"/><path class="cls-2" d="M954.94,289.19l5.59,2.8s.23-24.79,7.39-43.12l-12.29,10.24-10.14-9.27C942.93,269.54,954.94,289.19,954.94,289.19Z"/><path class="cls-30" d="M960.53,292l20.83,12L996,284.16h28.33L1039.53,306l18.07-12.2,3.76-2.46s1.27-61.23-38.81-79.95A28.49,28.49,0,0,0,999,211C959.69,228.39,960.53,292,960.53,292Z"/><polygon class="cls-1" points="996.03 284.16 1010.14 275.69 1024.36 284.16 996.03 284.16"/><polygon class="cls-2" points="996.75 351.85 982 309.1 997.52 287.83 1010.14 279.93 1022.52 287.83 1038.85 310.41 1068.1 290.95 1035.15 344 1019.5 351.85 996.75 351.85"/><path class="cls-2" d="M1055.67,253.82a116.31,116.31,0,0,1,4.78,22.85l4.76-17.86Z"/><polygon class="cls-1" points="1123.96 267.08 1135.25 297.73 1168.97 344.65 1180.97 351.9 1203.72 351.9 1219.37 344.04 1252.32 291 1280.38 239.38 1249.72 256.93 1225.11 242.98 1224.55 200.63 1202.3 179.24 1179.61 192.62 1165.65 234.71 1139.94 259.16 1122.53 243.36 1123.96 267.08"/><path class="cls-2" d="M1139.24,289.23l5.6,2.81s.22-24.79,7.39-43.13l-12.29,10.25-10.15-9.27C1127.24,269.58,1139.24,289.23,1139.24,289.23Z"/><path class="cls-31" d="M1144.84,292l20.83,12,14.67-19.83h28.33L1223.84,306l18.06-12.21,3.77-2.46s1.27-61.22-38.82-79.94a28.43,28.43,0,0,0-23.5-.36C1144,228.44,1144.84,292,1144.84,292Z"/><polygon class="cls-1" points="1180.34 284.2 1194.45 275.74 1208.67 284.2 1180.34 284.2"/><polygon class="cls-2" points="1181.06 351.9 1166.3 309.15 1181.82 287.88 1194.45 279.97 1206.82 287.88 1223.15 310.46 1252.4 291 1219.45 344.04 1203.8 351.9 1181.06 351.9"/><path class="cls-2" d="M1240,253.87a116.82,116.82,0,0,1,4.77,22.85l4.77-17.87Z"/><polygon class="cls-1" points="1024.02 311.82 1035.31 342.46 1069.03 389.38 1081.03 396.63 1103.78 396.63 1119.43 388.77 1152.38 335.73 1180.44 284.12 1149.78 301.66 1125.17 287.71 1124.61 245.36 1102.36 223.97 1079.67 237.35 1065.71 279.44 1040 303.89 1022.59 288.1 1024.02 311.82"/><path class="cls-2" d="M1039.3,334l5.6,2.81s.22-24.79,7.39-43.12L1040,303.89l-10.15-9.27C1027.3,314.31,1039.3,334,1039.3,334Z"/><path class="cls-32" d="M1044.9,336.77l20.83,12,14.67-19.83h28.33l15.17,21.83L1142,338.56l3.77-2.46s1.27-61.22-38.82-79.94a28.43,28.43,0,0,0-23.5-.36C1044.06,273.17,1044.9,336.77,1044.9,336.77Z"/><polygon class="cls-1" points="1080.4 328.94 1094.51 320.47 1108.73 328.94 1080.4 328.94"/><polygon class="cls-2" points="1081.12 396.63 1066.37 353.88 1081.88 332.61 1094.51 324.7 1106.88 332.61 1123.21 355.19 1152.46 335.73 1119.51 388.77 1103.87 396.63 1081.12 396.63"/><path class="cls-2" d="M1140,298.6a116.82,116.82,0,0,1,4.77,22.85l4.77-17.87Z"/><polygon class="cls-1" points="1208.29 311.77 1219.58 342.42 1253.3 389.34 1265.3 396.59 1288.05 396.59 1303.7 388.73 1336.65 335.69 1364.71 284.08 1334.05 301.62 1309.44 287.67 1308.87 245.32 1286.62 223.93 1263.94 237.31 1249.98 279.4 1224.27 303.85 1206.86 288.06 1208.29 311.77"/><path class="cls-2" d="M1223.57,333.92l5.59,2.81s.23-24.79,7.4-43.12l-12.29,10.24-10.15-9.27C1211.56,314.27,1223.57,333.92,1223.57,333.92Z"/><path class="cls-33" d="M1229.16,336.73l20.84,12,14.66-19.83H1293l15.16,21.83,18.07-12.21,3.77-2.46s1.26-61.22-38.82-79.94a28.43,28.43,0,0,0-23.5-.36C1228.33,273.13,1229.16,336.73,1229.16,336.73Z"/><polygon class="cls-1" points="1264.66 328.9 1278.78 320.43 1293 328.9 1264.66 328.9"/><polygon class="cls-2" points="1265.38 396.59 1250.63 353.84 1266.15 332.57 1278.78 324.66 1291.15 332.57 1307.48 355.15 1336.73 335.69 1303.78 388.73 1288.13 396.59 1265.38 396.59"/><path class="cls-2" d="M1324.31,298.56a116.82,116.82,0,0,1,4.77,22.85l4.77-17.87Z"/><polygon class="cls-1" points="1108.35 356.51 1119.63 387.15 1153.36 434.07 1165.36 441.32 1188.11 441.32 1203.76 433.46 1236.71 380.42 1264.77 328.81 1234.11 346.35 1209.5 332.4 1208.93 290.05 1186.68 268.67 1164 282.04 1150.04 324.13 1124.33 348.58 1106.92 332.79 1108.35 356.51"/><path class="cls-2" d="M1123.63,378.65l5.59,2.81s.23-24.79,7.4-43.12l-12.29,10.24-10.15-9.27C1111.62,359,1123.63,378.65,1123.63,378.65Z"/><path class="cls-34" d="M1129.22,381.46l20.84,12,14.66-19.83h28.34l15.16,21.83,18.07-12.2,3.77-2.47s1.26-61.22-38.82-79.94a28.47,28.47,0,0,0-23.5-.36C1128.39,317.86,1129.22,381.46,1129.22,381.46Z"/><polygon class="cls-1" points="1164.72 373.63 1178.84 365.16 1193.06 373.63 1164.72 373.63"/><polygon class="cls-2" points="1165.44 441.32 1150.69 398.57 1166.21 377.3 1178.84 369.39 1191.21 377.3 1207.54 399.88 1236.79 380.42 1203.84 433.46 1188.19 441.32 1165.44 441.32"/><path class="cls-2" d="M1224.37,343.29a116.82,116.82,0,0,1,4.77,22.85l4.77-17.87Z"/><path class="cls-35" d="M793.75,182.65h-7.84v-7.83a3.58,3.58,0,1,0-7.16,0v7.83h-7.84a3.59,3.59,0,0,0,0,7.17h7.84v7.83a3.58,3.58,0,1,0,7.16,0v-7.83h7.84a3.59,3.59,0,0,0,0-7.17Z"/></g></svg>