<svg xmlns="http://www.w3.org/2000/svg" xmlns:xlink="http://www.w3.org/1999/xlink" viewBox="0 0 1344.88 396.59"><defs><style>.cls-1{fill:#62abbc;}.cls-2{fill:#3d838e;opacity:0.51;}.cls-3{fill:url(#linear-gradient);}.cls-4{fill:url(#linear-gradient-2);}.cls-5{fill:url(#linear-gradient-3);}.cls-6{fill:url(#linear-gradient-4);}.cls-7{fill:url(#linear-gradient-5);}.cls-8{fill:url(#linear-gradient-6);}.cls-9{fill:url(#linear-gradient-7);}.cls-10{fill:url(#linear-gradient-8);}.cls-11{fill:url(#linear-gradient-9);}.cls-12{fill:url(#linear-gradient-10);}.cls-13{fill:url(#linear-gradient-11);}.cls-14{fill:url(#linear-gradient-12);}.cls-15{fill:url(#linear-gradient-13);}.cls-16{fill:url(#linear-gradient-14);}.cls-17{fill:url(#linear-gradient-15);}.cls-18{fill:url(#linear-gradient-16);}.cls-19{fill:url(#linear-gradient-17);}.cls-20{fill:url(#linear-gradient-18);}.cls-21{fill:url(#linear-gradient-19);}.cls-22{fill:url(#linear-gradient-20);}.cls-23{fill:url(#linear-gradient-21);}.cls-24{fill:url(#linear-gradient-22);}.cls-25{fill:url(#linear-gradient-23);}.cls-26{fill:url(#linear-gradient-24);}.cls-27{fill:#f05023;}</style><linearGradient id="linear-gradient" x1="222.25" y1="78.13" x2="323.09" y2="78.13" gradientUnits="userSpaceOnUse"><stop offset="0" stop-color="#fbb040"/><stop offset="0.39" stop-color="#f9ae41"/><stop offset="0.59" stop-color="#f1a845"/><stop offset="0.74" stop-color="#e49e4b"/><stop offset="0.87" stop-color="#d18f55"/><stop offset="0.99" stop-color="#b97c60"/><stop offset="1" stop-color="#b67a62"/></linearGradient><linearGradient id="linear-gradient-2" x1="306.76" y1="123.08" x2="407.6" y2="123.08" xlink:href="#linear-gradient"/><linearGradient id="linear-gradient-3" x1="391.13" y1="167.86" x2="491.97" y2="167.86" xlink:href="#linear-gradient"/><linearGradient id="linear-gradient-4" x1="475.46" y1="212.55" x2="576.3" y2="212.55" xlink:href="#linear-gradient"/><linearGradient id="linear-gradient-5" x1="122.24" y1="122.91" x2="223.08" y2="122.91" xlink:href="#linear-gradient"/><linearGradient id="linear-gradient-6" x1="206.75" y1="167.86" x2="307.59" y2="167.86" xlink:href="#linear-gradient"/><linearGradient id="linear-gradient-7" x1="22.3" y1="167.64" x2="123.14" y2="167.64" xlink:href="#linear-gradient"/><linearGradient id="linear-gradient-8" x1="106.81" y1="212.6" x2="207.65" y2="212.6" xlink:href="#linear-gradient"/><linearGradient id="linear-gradient-9" x1="291.12" y1="212.64" x2="391.96" y2="212.64" xlink:href="#linear-gradient"/><linearGradient id="linear-gradient-10" x1="191.18" y1="257.37" x2="292.02" y2="257.37" xlink:href="#linear-gradient"/><linearGradient id="linear-gradient-11" x1="375.45" y1="257.33" x2="476.29" y2="257.33" xlink:href="#linear-gradient"/><linearGradient id="linear-gradient-12" x1="275.51" y1="302.06" x2="376.35" y2="302.06" xlink:href="#linear-gradient"/><linearGradient id="linear-gradient-13" x1="956.14" y1="78.13" x2="1056.97" y2="78.13" xlink:href="#linear-gradient"/><linearGradient id="linear-gradient-14" x1="1040.64" y1="123.08" x2="1141.48" y2="123.08" xlink:href="#linear-gradient"/><linearGradient id="linear-gradient-15" x1="1125.01" y1="167.86" x2="1225.85" y2="167.86" xlink:href="#linear-gradient"/><linearGradient id="linear-gradient-16" x1="1209.34" y1="212.55" x2="1310.18" y2="212.55" xlink:href="#linear-gradient"/><linearGradient id="linear-gradient-17" x1="856.13" y1="122.91" x2="956.97" y2="122.91" xlink:href="#linear-gradient"/><linearGradient id="linear-gradient-18" x1="940.63" y1="167.86" x2="1041.47" y2="167.86" xlink:href="#linear-gradient"/><linearGradient id="linear-gradient-19" x1="756.19" y1="167.64" x2="857.03" y2="167.64" xlink:href="#linear-gradient"/><linearGradient id="linear-gradient-20" x1="840.69" y1="212.6" x2="941.53" y2="212.6" xlink:href="#linear-gradient"/><linearGradient id="linear-gradient-21" x1="1025" y1="212.64" x2="1125.84" y2="212.64" xlink:href="#linear-gradient"/><linearGradient id="linear-gradient-22" x1="925.06" y1="257.37" x2="1025.9" y2="257.37" xlink:href="#linear-gradient"/><linearGradient id="linear-gradient-23" x1="1109.33" y1="257.33" x2="1210.17" y2="257.33" xlink:href="#linear-gradient"/><linearGradient id="linear-gradient-24" x1="1009.39" y1="302.06" x2="1110.23" y2="302.06" xlink:href="#linear-gradient"/></defs><title>V1_R3</title><g id="Layer_2" data-name="Layer 2"><polygon class="cls-1" points="201.38 87.84 212.67 118.49 246.39 165.4 258.39 172.65 281.14 172.65 296.79 164.8 329.74 111.76 357.8 60.14 327.14 77.69 302.53 63.74 301.96 21.39 279.71 0 257.03 13.37 243.07 55.46 217.36 79.91 199.95 64.12 201.38 87.84"/><path class="cls-2" d="M216.66,110l5.59,2.81s.23-24.79,7.4-43.13L217.36,79.91l-10.15-9.27C204.65,90.34,216.66,110,216.66,110Z"/><path class="cls-3" d="M222.25,112.8l20.84,12L257.75,105h28.34l15.16,21.84,18.07-12.21,3.77-2.46s1.26-61.22-38.82-79.94a28.43,28.43,0,0,0-23.5-.36C221.42,49.19,222.25,112.8,222.25,112.8Z"/><polygon class="cls-1" points="257.75 104.96 271.87 96.5 286.09 104.96 257.75 104.96"/><polygon class="cls-2" points="258.47 172.65 243.72 129.9 259.24 108.64 271.87 100.73 284.24 108.64 300.57 131.22 329.82 111.76 296.87 164.8 281.22 172.65 258.47 172.65"/><path class="cls-2" d="M317.4,74.62a116.82,116.82,0,0,1,4.77,22.85l4.77-17.86Z"/><polygon class="cls-1" points="285.88 132.79 297.17 163.44 330.9 210.36 342.9 217.61 365.65 217.61 381.3 209.75 414.25 156.71 442.31 105.1 411.65 122.64 387.04 108.69 386.47 66.34 364.22 44.95 341.54 58.33 327.58 100.42 301.87 124.87 284.46 109.07 285.88 132.79"/><path class="cls-2" d="M301.17,154.94l5.59,2.81s.23-24.79,7.4-43.12l-12.29,10.24-10.15-9.27C289.16,135.29,301.17,154.94,301.17,154.94Z"/><path class="cls-4" d="M306.76,157.75l20.84,12,14.66-19.83H370.6l15.16,21.83,18.07-12.21,3.77-2.46s1.26-61.22-38.82-79.94a28.43,28.43,0,0,0-23.5-.36C305.92,94.15,306.76,157.75,306.76,157.75Z"/><polygon class="cls-1" points="342.26 149.92 356.38 141.45 370.6 149.92 342.26 149.92"/><polygon class="cls-2" points="342.98 217.61 328.23 174.86 343.75 153.59 356.38 145.68 368.75 153.59 385.08 176.17 414.33 156.71 381.38 209.75 365.73 217.61 342.98 217.61"/><path class="cls-2" d="M401.91,119.58a116.82,116.82,0,0,1,4.77,22.85l4.77-17.87Z"/><polygon class="cls-1" points="370.25 177.57 381.54 208.22 415.26 255.13 427.26 262.38 450.01 262.38 465.66 254.53 498.61 201.49 526.67 149.87 496.01 167.42 471.41 153.47 470.84 111.12 448.59 89.73 425.91 103.1 411.95 145.19 386.23 169.64 368.82 153.85 370.25 177.57"/><path class="cls-2" d="M385.54,199.72l5.59,2.81s.22-24.8,7.39-43.13l-12.29,10.24-10.14-9.27C373.53,180.07,385.54,199.72,385.54,199.72Z"/><path class="cls-5" d="M391.13,202.53l20.83,12,14.67-19.84H455l15.17,21.84,18.07-12.21,3.76-2.46s1.27-61.22-38.81-79.94a28.45,28.45,0,0,0-23.51-.36C390.29,138.92,391.13,202.53,391.13,202.53Z"/><polygon class="cls-1" points="426.63 194.69 440.74 186.23 454.96 194.69 426.63 194.69"/><polygon class="cls-2" points="427.35 262.38 412.6 219.63 428.12 198.37 440.74 190.46 453.12 198.37 469.45 220.94 498.7 201.49 465.75 254.53 450.1 262.38 427.35 262.38"/><path class="cls-2" d="M486.27,164.35a116.31,116.31,0,0,1,4.78,22.85l4.76-17.86Z"/><polygon class="cls-1" points="454.58 222.26 465.87 252.91 499.59 299.82 511.59 307.07 534.34 307.07 549.99 299.22 582.94 246.18 611 194.56 580.34 212.11 555.74 198.16 555.17 155.81 532.92 134.42 510.24 147.79 496.27 189.88 470.56 214.33 453.15 198.54 454.58 222.26"/><path class="cls-2" d="M469.87,244.41l5.59,2.81s.22-24.79,7.39-43.13l-12.29,10.24-10.15-9.27C457.86,224.76,469.87,244.41,469.87,244.41Z"/><path class="cls-6" d="M475.46,247.22l20.83,12L511,239.38h28.33l15.17,21.84L572.52,249l3.77-2.46s1.27-61.22-38.82-79.94a28.43,28.43,0,0,0-23.5-.36C474.62,183.61,475.46,247.22,475.46,247.22Z"/><polygon class="cls-1" points="510.96 239.38 525.07 230.92 539.29 239.38 510.96 239.38"/><polygon class="cls-2" points="511.68 307.07 496.93 264.32 512.44 243.06 525.07 235.15 537.44 243.06 553.77 265.63 583.02 246.18 550.07 299.22 534.43 307.07 511.68 307.07"/><path class="cls-2" d="M570.6,209a116.82,116.82,0,0,1,4.77,22.85L580.14,214Z"/><polygon class="cls-1" points="101.37 132.62 112.66 163.27 146.38 210.19 158.38 217.44 181.13 217.44 196.78 209.58 229.73 156.54 257.79 104.92 227.13 122.47 202.52 108.52 201.95 66.17 179.7 44.78 157.02 58.16 143.06 100.24 117.35 124.69 99.94 108.9 101.37 132.62"/><path class="cls-2" d="M116.65,154.77l5.59,2.81s.23-24.79,7.4-43.13l-12.29,10.24-10.15-9.26C104.65,135.12,116.65,154.77,116.65,154.77Z"/><path class="cls-7" d="M122.24,157.58l20.84,12,14.66-19.84h28.34l15.16,21.84,18.07-12.21,3.77-2.46S224.34,95.69,184.26,77a28.43,28.43,0,0,0-23.5-.36C121.41,94,122.24,157.58,122.24,157.58Z"/><polygon class="cls-1" points="157.75 149.74 171.86 141.28 186.08 149.74 157.75 149.74"/><polygon class="cls-2" points="158.46 217.44 143.71 174.69 159.23 153.42 171.86 145.51 184.23 153.42 200.56 176 229.81 156.54 196.86 209.58 181.21 217.44 158.46 217.44"/><path class="cls-2" d="M217.39,119.4a117,117,0,0,1,4.77,22.85l4.77-17.86Z"/><polygon class="cls-1" points="185.88 177.58 197.16 208.22 230.89 255.14 242.89 262.39 265.64 262.39 281.29 254.53 314.24 201.49 342.3 149.88 311.64 167.42 287.03 153.47 286.46 111.12 264.21 89.73 241.53 103.11 227.57 145.2 201.86 169.65 184.45 153.86 185.88 177.58"/><path class="cls-2" d="M201.16,199.72l5.59,2.81s.23-24.79,7.4-43.12l-12.29,10.24-10.15-9.27C189.15,180.07,201.16,199.72,201.16,199.72Z"/><path class="cls-8" d="M206.75,202.53l20.84,12,14.66-19.83h28.34l15.16,21.83,18.07-12.21,3.77-2.46s1.26-61.22-38.82-79.94a28.47,28.47,0,0,0-23.5-.36C205.91,138.93,206.75,202.53,206.75,202.53Z"/><polygon class="cls-1" points="242.25 194.7 256.37 186.23 270.59 194.7 242.25 194.7"/><polygon class="cls-2" points="242.97 262.39 228.22 219.64 243.74 198.37 256.37 190.47 268.74 198.37 285.07 220.95 314.32 201.49 281.37 254.53 265.72 262.39 242.97 262.39"/><path class="cls-2" d="M301.9,164.36a116.82,116.82,0,0,1,4.77,22.85l4.77-17.87Z"/><polygon class="cls-1" points="1.43 177.35 12.72 208 46.44 254.92 58.44 262.17 81.19 262.17 96.84 254.31 129.79 201.27 157.85 149.66 127.19 167.2 102.58 153.25 102.01 110.9 79.76 89.51 57.08 102.89 43.12 144.97 17.41 169.43 0 153.63 1.43 177.35"/><path class="cls-2" d="M16.71,199.5l5.59,2.81s.23-24.79,7.4-43.12L17.41,169.43,7.26,160.16C4.71,179.85,16.71,199.5,16.71,199.5Z"/><path class="cls-9" d="M22.3,202.31l20.84,12L57.8,194.48H86.14l15.16,21.83,18.07-12.21,3.77-2.46s1.26-61.22-38.82-79.94a28.43,28.43,0,0,0-23.5-.36C21.47,138.71,22.3,202.31,22.3,202.31Z"/><polygon class="cls-1" points="57.8 194.47 71.92 186.01 86.14 194.47 57.8 194.47"/><polygon class="cls-2" points="58.52 262.17 43.77 219.42 59.29 198.15 71.92 190.24 84.29 198.15 100.62 220.73 129.87 201.27 96.92 254.31 81.27 262.17 58.52 262.17"/><path class="cls-2" d="M117.45,164.14A116.82,116.82,0,0,1,122.22,187L127,169.12Z"/><polygon class="cls-1" points="85.94 222.31 97.22 252.95 130.95 299.87 142.95 307.12 165.7 307.12 181.35 299.26 214.3 246.22 242.36 194.61 211.7 212.16 187.09 198.21 186.52 155.85 164.27 134.47 141.59 147.84 127.63 189.93 101.92 214.38 84.51 198.59 85.94 222.31"/><path class="cls-2" d="M101.22,244.45l5.59,2.81s.23-24.79,7.4-43.12l-12.29,10.24-10.15-9.27C89.21,224.8,101.22,244.45,101.22,244.45Z"/><path class="cls-10" d="M106.81,247.26l20.84,12,14.66-19.83h28.34l15.16,21.83,18.07-12.2,3.77-2.46s1.26-61.23-38.82-79.95a28.5,28.5,0,0,0-23.5-.36C106,183.66,106.81,247.26,106.81,247.26Z"/><polygon class="cls-1" points="142.31 239.43 156.43 230.96 170.65 239.43 142.31 239.43"/><polygon class="cls-2" points="143.03 307.12 128.28 264.37 143.8 243.1 156.43 235.2 168.8 243.1 185.13 265.68 214.38 246.22 181.43 299.26 165.78 307.12 143.03 307.12"/><path class="cls-2" d="M202,209.09a116.82,116.82,0,0,1,4.77,22.85l4.77-17.87Z"/><polygon class="cls-1" points="270.24 222.35 281.53 253 315.25 299.92 327.25 307.17 350 307.17 365.65 299.31 398.6 246.27 426.66 194.65 396 212.2 371.4 198.25 370.83 155.9 348.58 134.51 325.9 147.88 311.94 189.97 286.23 214.42 268.81 198.63 270.24 222.35"/><path class="cls-2" d="M285.53,244.5l5.59,2.81s.23-24.79,7.39-43.13l-12.29,10.24-10.14-9.26C273.52,224.85,285.53,244.5,285.53,244.5Z"/><path class="cls-11" d="M291.12,247.31l20.83,12,14.67-19.84H355l15.17,21.84,18.07-12.21,3.76-2.46s1.27-61.22-38.81-79.94a28.45,28.45,0,0,0-23.51-.36C290.28,183.7,291.12,247.31,291.12,247.31Z"/><polygon class="cls-1" points="326.62 239.47 340.73 231.01 354.95 239.47 326.62 239.47"/><polygon class="cls-2" points="327.34 307.17 312.59 264.42 328.11 243.15 340.73 235.24 353.11 243.15 369.44 265.73 398.69 246.27 365.74 299.31 350.09 307.17 327.34 307.17"/><path class="cls-2" d="M386.26,209.13A116.54,116.54,0,0,1,391,232l4.76-17.86Z"/><polygon class="cls-1" points="170.3 267.08 181.59 297.73 215.32 344.65 227.32 351.9 250.06 351.9 265.71 344.04 298.66 291 326.73 239.38 296.07 256.93 271.46 242.98 270.89 200.63 248.64 179.24 225.96 192.62 212 234.71 186.28 259.16 168.88 243.36 170.3 267.08"/><path class="cls-2" d="M185.59,289.23l5.59,2.81s.23-24.79,7.39-43.13l-12.29,10.25-10.14-9.27C173.58,269.58,185.59,289.23,185.59,289.23Z"/><path class="cls-12" d="M191.18,292,212,304l14.67-19.83H255L270.18,306l18.07-12.21,3.76-2.46s1.27-61.22-38.81-79.94a28.45,28.45,0,0,0-23.51-.36C190.34,228.44,191.18,292,191.18,292Z"/><polygon class="cls-1" points="226.68 284.2 240.79 275.74 255.01 284.2 226.68 284.2"/><polygon class="cls-2" points="227.4 351.9 212.65 309.15 228.17 287.88 240.79 279.97 253.17 287.88 269.5 310.46 298.75 291 265.8 344.04 250.15 351.9 227.4 351.9"/><path class="cls-2" d="M286.32,253.87a116.31,116.31,0,0,1,4.78,22.85l4.76-17.87Z"/><polygon class="cls-1" points="354.57 267.04 365.86 297.69 399.58 344.61 411.58 351.86 434.33 351.86 449.98 344 482.93 290.96 510.99 239.34 480.33 256.89 455.73 242.94 455.16 200.59 432.91 179.2 410.23 192.58 396.26 234.66 370.55 259.12 353.14 243.32 354.57 267.04"/><path class="cls-2" d="M369.86,289.19l5.59,2.81s.22-24.79,7.39-43.13l-12.29,10.25-10.15-9.27C357.85,269.54,369.86,289.19,369.86,289.19Z"/><path class="cls-13" d="M375.45,292l20.83,12L411,284.16h28.33L454.45,306l18.06-12.21,3.77-2.46s1.27-61.22-38.81-79.94A28.45,28.45,0,0,0,414,211C374.61,228.4,375.45,292,375.45,292Z"/><polygon class="cls-1" points="410.95 284.17 425.06 275.7 439.28 284.17 410.95 284.17"/><polygon class="cls-2" points="411.67 351.86 396.92 309.11 412.44 287.84 425.06 279.93 437.44 287.84 453.76 310.42 483.01 290.96 450.06 344 434.42 351.86 411.67 351.86"/><path class="cls-2" d="M470.59,253.82a117.44,117.44,0,0,1,4.78,22.86l4.76-17.87Z"/><polygon class="cls-1" points="254.63 311.77 265.92 342.42 299.64 389.34 311.64 396.59 334.39 396.59 350.04 388.73 382.99 335.69 411.05 284.08 380.39 301.62 355.79 287.67 355.22 245.32 332.97 223.93 310.29 237.31 296.32 279.4 270.61 303.85 253.2 288.06 254.63 311.77"/><path class="cls-2" d="M269.92,333.92l5.59,2.81s.22-24.79,7.39-43.12l-12.29,10.24-10.15-9.27C257.91,314.27,269.92,333.92,269.92,333.92Z"/><path class="cls-14" d="M275.51,336.73l20.83,12L311,328.9h28.33l15.17,21.83,18.07-12.21,3.76-2.46s1.27-61.22-38.81-79.94a28.45,28.45,0,0,0-23.51-.36C274.67,273.13,275.51,336.73,275.51,336.73Z"/><polygon class="cls-1" points="311.01 328.9 325.12 320.43 339.34 328.9 311.01 328.9"/><polygon class="cls-2" points="311.73 396.59 296.98 353.84 312.5 332.57 325.12 324.66 337.5 332.57 353.82 355.15 383.07 335.69 350.13 388.73 334.48 396.59 311.73 396.59"/><path class="cls-2" d="M370.65,298.56a116.31,116.31,0,0,1,4.78,22.85l4.76-17.87Z"/><polygon class="cls-1" points="935.26 87.84 946.55 118.49 980.27 165.4 992.27 172.65 1015.02 172.65 1030.67 164.8 1063.62 111.76 1091.68 60.14 1061.02 77.69 1036.41 63.74 1035.85 21.39 1013.6 0 990.91 13.37 976.95 55.46 951.24 79.91 933.83 64.12 935.26 87.84"/><path class="cls-2" d="M950.55,110l5.59,2.81s.22-24.79,7.39-43.13L951.24,79.91l-10.15-9.27C938.54,90.34,950.55,110,950.55,110Z"/><path class="cls-15" d="M956.14,112.8l20.83,12L991.64,105H1020l15.17,21.84,18.06-12.21,3.77-2.46s1.27-61.22-38.82-79.94a28.43,28.43,0,0,0-23.5-.36C955.3,49.19,956.14,112.8,956.14,112.8Z"/><polygon class="cls-1" points="991.64 104.96 1005.75 96.5 1019.97 104.96 991.64 104.96"/><polygon class="cls-2" points="992.36 172.65 977.61 129.9 993.12 108.64 1005.75 100.73 1018.12 108.64 1034.45 131.22 1063.7 111.76 1030.75 164.8 1015.11 172.65 992.36 172.65"/><path class="cls-2" d="M1051.28,74.62a116.82,116.82,0,0,1,4.77,22.85l4.77-17.86Z"/><polygon class="cls-1" points="1019.77 132.79 1031.06 163.44 1064.78 210.36 1076.78 217.61 1099.53 217.61 1115.18 209.75 1148.13 156.71 1176.19 105.1 1145.53 122.64 1120.92 108.69 1120.36 66.34 1098.11 44.95 1075.42 58.33 1061.46 100.42 1035.75 124.87 1018.34 109.07 1019.77 132.79"/><path class="cls-2" d="M1035.05,154.94l5.6,2.81s.22-24.79,7.39-43.12l-12.29,10.24-10.15-9.27C1023.05,135.29,1035.05,154.94,1035.05,154.94Z"/><path class="cls-16" d="M1040.65,157.75l20.83,12,14.67-19.83h28.33l15.17,21.83,18.06-12.21,3.77-2.46s1.27-61.22-38.82-79.94a28.43,28.43,0,0,0-23.5-.36C1039.81,94.15,1040.65,157.75,1040.65,157.75Z"/><polygon class="cls-1" points="1076.15 149.92 1090.26 141.45 1104.48 149.92 1076.15 149.92"/><polygon class="cls-2" points="1076.87 217.61 1062.11 174.86 1077.63 153.59 1090.26 145.68 1102.63 153.59 1118.96 176.17 1148.21 156.71 1115.26 209.75 1099.61 217.61 1076.87 217.61"/><path class="cls-2" d="M1135.79,119.58a116.82,116.82,0,0,1,4.77,22.85l4.77-17.87Z"/><polygon class="cls-1" points="1104.13 177.57 1115.42 208.22 1149.15 255.13 1161.15 262.38 1183.9 262.38 1199.55 254.53 1232.5 201.49 1260.56 149.87 1229.9 167.42 1205.29 153.47 1204.72 111.12 1182.47 89.73 1159.79 103.1 1145.83 145.19 1120.12 169.64 1102.71 153.85 1104.13 177.57"/><path class="cls-2" d="M1119.42,199.72l5.59,2.81s.23-24.8,7.39-43.13l-12.28,10.24L1110,160.37C1107.41,180.07,1119.42,199.72,1119.42,199.72Z"/><path class="cls-17" d="M1125,202.53l20.84,12,14.66-19.84h28.34L1204,216.53l18.07-12.21,3.77-2.46s1.26-61.22-38.82-79.94a28.43,28.43,0,0,0-23.5-.36C1124.17,138.92,1125,202.53,1125,202.53Z"/><polygon class="cls-1" points="1160.51 194.69 1174.62 186.23 1188.85 194.69 1160.51 194.69"/><polygon class="cls-2" points="1161.23 262.38 1146.48 219.63 1162 198.37 1174.62 190.46 1187 198.37 1203.33 220.94 1232.58 201.49 1199.63 254.53 1183.98 262.38 1161.23 262.38"/><path class="cls-2" d="M1220.16,164.35a116.82,116.82,0,0,1,4.77,22.85l4.76-17.86Z"/><polygon class="cls-1" points="1188.46 222.26 1199.75 252.91 1233.48 299.82 1245.48 307.07 1268.22 307.07 1283.87 299.22 1316.82 246.18 1344.88 194.56 1314.23 212.11 1289.62 198.16 1289.05 155.81 1266.8 134.42 1244.12 147.79 1230.16 189.88 1204.44 214.33 1187.04 198.54 1188.46 222.26"/><path class="cls-2" d="M1203.75,244.41l5.59,2.81s.23-24.79,7.39-43.13l-12.29,10.24-10.14-9.27C1191.74,224.76,1203.75,244.41,1203.75,244.41Z"/><path class="cls-18" d="M1209.34,247.22l20.83,12,14.67-19.84h28.33l15.17,21.84L1306.41,249l3.76-2.46s1.27-61.22-38.81-79.94a28.45,28.45,0,0,0-23.51-.36C1208.5,183.61,1209.34,247.22,1209.34,247.22Z"/><polygon class="cls-1" points="1244.84 239.38 1258.95 230.92 1273.17 239.38 1244.84 239.38"/><polygon class="cls-2" points="1245.56 307.07 1230.81 264.32 1246.33 243.06 1258.95 235.15 1271.33 243.06 1287.66 265.63 1316.91 246.18 1283.96 299.22 1268.31 307.07 1245.56 307.07"/><path class="cls-2" d="M1304.48,209a116.31,116.31,0,0,1,4.78,22.85L1314,214Z"/><polygon class="cls-1" points="835.25 132.62 846.54 163.27 880.26 210.19 892.26 217.44 915.01 217.44 930.66 209.58 963.61 156.54 991.67 104.92 961.01 122.47 936.41 108.52 935.84 66.17 913.59 44.78 890.91 58.16 876.95 100.24 851.23 124.69 833.82 108.9 835.25 132.62"/><path class="cls-2" d="M850.54,154.77l5.59,2.81s.22-24.79,7.39-43.13l-12.29,10.24-10.15-9.26C838.53,135.12,850.54,154.77,850.54,154.77Z"/><path class="cls-19" d="M856.13,157.58l20.83,12,14.67-19.84H920l15.17,21.84,18.06-12.21,3.77-2.46S958.23,95.69,918.15,77a28.45,28.45,0,0,0-23.51-.36C855.29,94,856.13,157.58,856.13,157.58Z"/><polygon class="cls-1" points="891.63 149.74 905.74 141.28 919.96 149.74 891.63 149.74"/><polygon class="cls-2" points="892.35 217.44 877.6 174.69 893.12 153.42 905.74 145.51 918.12 153.42 934.45 176 963.7 156.54 930.74 209.58 915.1 217.44 892.35 217.44"/><path class="cls-2" d="M951.27,119.4a117.44,117.44,0,0,1,4.78,22.85l4.76-17.86Z"/><polygon class="cls-1" points="919.76 177.58 931.05 208.22 964.77 255.14 976.77 262.39 999.52 262.39 1015.17 254.53 1048.12 201.49 1076.18 149.88 1045.52 167.42 1020.91 153.47 1020.35 111.12 998.1 89.73 975.41 103.11 961.45 145.2 935.74 169.65 918.33 153.86 919.76 177.58"/><path class="cls-2" d="M935.05,199.72l5.59,2.81s.22-24.79,7.39-43.12l-12.29,10.24-10.15-9.27C923,180.07,935.05,199.72,935.05,199.72Z"/><path class="cls-20" d="M940.64,202.53l20.83,12,14.67-19.83h28.33l15.17,21.83,18.06-12.21,3.77-2.46s1.27-61.22-38.82-79.94a28.47,28.47,0,0,0-23.5-.36C939.8,138.93,940.64,202.53,940.64,202.53Z"/><polygon class="cls-1" points="976.14 194.7 990.25 186.23 1004.47 194.7 976.14 194.7"/><polygon class="cls-2" points="976.86 262.39 962.11 219.64 977.62 198.37 990.25 190.47 1002.62 198.37 1018.95 220.95 1048.2 201.49 1015.25 254.53 999.61 262.39 976.86 262.39"/><path class="cls-2" d="M1035.78,164.36a116.82,116.82,0,0,1,4.77,22.85l4.77-17.87Z"/><polygon class="cls-1" points="735.31 177.35 746.6 208 780.32 254.92 792.32 262.17 815.07 262.17 830.72 254.31 863.67 201.27 891.73 149.66 861.07 167.2 836.47 153.25 835.9 110.9 813.65 89.51 790.97 102.89 777 144.97 751.29 169.43 733.88 153.63 735.31 177.35"/><path class="cls-2" d="M750.6,199.5l5.59,2.81s.22-24.79,7.39-43.12l-12.29,10.24-10.15-9.27C738.59,179.85,750.6,199.5,750.6,199.5Z"/><path class="cls-21" d="M756.19,202.31l20.83,12,14.67-19.83H820l15.17,21.83,18.06-12.21,3.77-2.46s1.27-61.22-38.81-79.94a28.45,28.45,0,0,0-23.51-.36C755.35,138.71,756.19,202.31,756.19,202.31Z"/><polygon class="cls-1" points="791.69 194.47 805.8 186.01 820.02 194.47 791.69 194.47"/><polygon class="cls-2" points="792.41 262.17 777.66 219.42 793.17 198.15 805.8 190.24 818.17 198.15 834.5 220.73 863.75 201.27 830.8 254.31 815.16 262.17 792.41 262.17"/><path class="cls-2" d="M851.33,164.14A117.21,117.21,0,0,1,856.11,187l4.76-17.87Z"/><polygon class="cls-1" points="819.82 222.31 831.11 252.95 864.83 299.87 876.83 307.12 899.58 307.12 915.23 299.26 948.18 246.22 976.24 194.61 945.58 212.16 920.98 198.21 920.41 155.85 898.16 134.47 875.48 147.84 861.51 189.93 835.8 214.38 818.39 198.59 819.82 222.31"/><path class="cls-2" d="M835.11,244.45l5.59,2.81s.22-24.79,7.39-43.12L835.8,214.38l-10.15-9.27C823.1,224.8,835.11,244.45,835.11,244.45Z"/><path class="cls-22" d="M840.7,247.26l20.83,12,14.67-19.83h28.33l15.17,21.83,18.06-12.2,3.77-2.46s1.27-61.23-38.82-79.95a28.5,28.5,0,0,0-23.5-.36C839.86,183.66,840.7,247.26,840.7,247.26Z"/><polygon class="cls-1" points="876.2 239.43 890.31 230.96 904.53 239.43 876.2 239.43"/><polygon class="cls-2" points="876.91 307.12 862.16 264.37 877.68 243.1 890.31 235.2 902.68 243.1 919.01 265.68 948.26 246.22 915.31 299.26 899.66 307.12 876.91 307.12"/><path class="cls-2" d="M935.84,209.09a116.82,116.82,0,0,1,4.77,22.85l4.77-17.87Z"/><polygon class="cls-1" points="1004.13 222.35 1015.41 253 1049.14 299.92 1061.14 307.17 1083.89 307.17 1099.54 299.31 1132.49 246.27 1160.55 194.65 1129.89 212.2 1105.28 198.25 1104.71 155.9 1082.46 134.51 1059.78 147.88 1045.82 189.97 1020.11 214.42 1002.7 198.63 1004.13 222.35"/><path class="cls-2" d="M1019.41,244.5l5.59,2.81s.23-24.79,7.39-43.13l-12.28,10.24L1010,205.16C1007.4,224.85,1019.41,244.5,1019.41,244.5Z"/><path class="cls-23" d="M1025,247.31l20.84,12,14.66-19.84h28.34L1104,261.31l18.07-12.21,3.77-2.46s1.26-61.22-38.82-79.94a28.43,28.43,0,0,0-23.5-.36C1024.16,183.7,1025,247.31,1025,247.31Z"/><polygon class="cls-1" points="1060.5 239.47 1074.61 231.01 1088.84 239.47 1060.5 239.47"/><polygon class="cls-2" points="1061.22 307.17 1046.47 264.42 1061.99 243.15 1074.61 235.24 1086.99 243.15 1103.32 265.73 1132.57 246.27 1099.62 299.31 1083.97 307.17 1061.22 307.17"/><path class="cls-2" d="M1120.15,209.13a117,117,0,0,1,4.77,22.85l4.77-17.86Z"/><polygon class="cls-1" points="904.18 267.08 915.47 297.73 949.2 344.65 961.2 351.9 983.95 351.9 999.6 344.04 1032.55 291 1060.61 239.38 1029.95 256.93 1005.34 242.98 1004.77 200.63 982.52 179.24 959.84 192.62 945.88 234.71 920.17 259.16 902.76 243.36 904.18 267.08"/><path class="cls-2" d="M919.47,289.23l5.59,2.81s.23-24.79,7.4-43.13l-12.29,10.25L910,249.89C907.46,269.58,919.47,289.23,919.47,289.23Z"/><path class="cls-24" d="M925.06,292l20.84,12,14.66-19.83H988.9L1004.06,306l18.07-12.21,3.77-2.46s1.26-61.22-38.82-79.94a28.43,28.43,0,0,0-23.5-.36C924.22,228.44,925.06,292,925.06,292Z"/><polygon class="cls-1" points="960.56 284.2 974.67 275.74 988.9 284.2 960.56 284.2"/><polygon class="cls-2" points="961.28 351.9 946.53 309.15 962.05 287.88 974.67 279.97 987.05 287.88 1003.38 310.46 1032.63 291 999.68 344.04 984.03 351.9 961.28 351.9"/><path class="cls-2" d="M1020.21,253.87a116.82,116.82,0,0,1,4.77,22.85l4.77-17.87Z"/><polygon class="cls-1" points="1088.45 267.04 1099.74 297.69 1133.47 344.61 1145.47 351.86 1168.22 351.86 1183.86 344 1216.81 290.96 1244.88 239.34 1214.22 256.89 1189.61 242.94 1189.04 200.59 1166.79 179.2 1144.11 192.58 1130.15 234.66 1104.44 259.12 1087.03 243.32 1088.45 267.04"/><path class="cls-2" d="M1103.74,289.19l5.59,2.81s.23-24.79,7.39-43.13l-12.28,10.25-10.15-9.27C1091.73,269.54,1103.74,289.19,1103.74,289.19Z"/><path class="cls-25" d="M1109.33,292l20.83,12,14.67-19.84h28.33L1188.33,306l18.07-12.21,3.76-2.46s1.27-61.22-38.81-79.94a28.45,28.45,0,0,0-23.51-.36C1108.49,228.4,1109.33,292,1109.33,292Z"/><polygon class="cls-1" points="1144.83 284.17 1158.94 275.7 1173.16 284.17 1144.83 284.17"/><polygon class="cls-2" points="1145.55 351.86 1130.8 309.11 1146.32 287.84 1158.94 279.93 1171.32 287.84 1187.65 310.42 1216.9 290.96 1183.95 344 1168.3 351.86 1145.55 351.86"/><path class="cls-2" d="M1204.47,253.82a116.54,116.54,0,0,1,4.78,22.86l4.76-17.87Z"/><polygon class="cls-1" points="988.51 311.77 999.8 342.42 1033.53 389.34 1045.53 396.59 1068.28 396.59 1083.92 388.73 1116.87 335.69 1144.93 284.08 1114.28 301.62 1089.67 287.67 1089.1 245.32 1066.85 223.93 1044.17 237.31 1030.21 279.4 1004.5 303.85 987.09 288.06 988.51 311.77"/><path class="cls-2" d="M1003.8,333.92l5.59,2.81s.23-24.79,7.39-43.12l-12.28,10.24-10.15-9.27C991.79,314.27,1003.8,333.92,1003.8,333.92Z"/><path class="cls-26" d="M1009.39,336.73l20.83,12,14.67-19.83h28.33l15.17,21.83,18.07-12.21,3.76-2.46s1.27-61.22-38.81-79.94a28.45,28.45,0,0,0-23.51-.36C1008.55,273.13,1009.39,336.73,1009.39,336.73Z"/><polygon class="cls-1" points="1044.89 328.9 1059 320.43 1073.22 328.9 1044.89 328.9"/><polygon class="cls-2" points="1045.61 396.59 1030.86 353.84 1046.38 332.57 1059 324.66 1071.38 332.57 1087.71 355.15 1116.96 335.69 1084.01 388.73 1068.36 396.59 1045.61 396.59"/><path class="cls-2" d="M1104.53,298.56a116.31,116.31,0,0,1,4.78,22.85l4.76-17.87Z"/><path class="cls-27" d="M683.86,182.65H676v-7.83a3.59,3.59,0,1,0-7.17,0v7.83H661a3.59,3.59,0,1,0,0,7.17h7.83v7.83a3.59,3.59,0,0,0,7.17,0v-7.83h7.83a3.59,3.59,0,0,0,0-7.17Z"/></g></svg>