<svg xmlns="http://www.w3.org/2000/svg" xmlns:xlink="http://www.w3.org/1999/xlink" viewBox="0 0 2039.16 634"><defs><style>.cls-1{fill:#62abbc;}.cls-2{fill:#3d838e;opacity:0.51;}.cls-3{fill:url(#linear-gradient);}.cls-4{fill:url(#linear-gradient-2);}.cls-5{fill:url(#linear-gradient-3);}.cls-6{fill:url(#linear-gradient-4);}.cls-7{fill:url(#linear-gradient-5);}.cls-8{fill:url(#linear-gradient-6);}.cls-9{fill:url(#linear-gradient-7);}.cls-10{fill:url(#linear-gradient-8);}.cls-11{fill:url(#linear-gradient-9);}.cls-12{fill:url(#linear-gradient-10);}.cls-13{fill:url(#linear-gradient-11);}.cls-14{fill:url(#linear-gradient-12);}.cls-15{fill:url(#linear-gradient-13);}.cls-16{fill:url(#linear-gradient-14);}.cls-17{fill:url(#linear-gradient-15);}.cls-18{fill:url(#linear-gradient-16);}.cls-19{fill:url(#linear-gradient-17);}.cls-20{fill:url(#linear-gradient-18);}.cls-21{fill:url(#linear-gradient-19);}.cls-22{fill:url(#linear-gradient-20);}.cls-23{fill:url(#linear-gradient-21);}.cls-24{fill:#f05023;}</style><linearGradient id="linear-gradient" x1="222.21" y1="171.37" x2="323.05" y2="171.37" gradientUnits="userSpaceOnUse"><stop offset="0" stop-color="#fbb040"/><stop offset="0.39" stop-color="#f9ae41"/><stop offset="0.59" stop-color="#f1a845"/><stop offset="0.74" stop-color="#e49e4b"/><stop offset="0.87" stop-color="#d18f55"/><stop offset="0.99" stop-color="#b97c60"/><stop offset="1" stop-color="#b67a62"/></linearGradient><linearGradient id="linear-gradient-2" x1="306.72" y1="216.32" x2="407.56" y2="216.32" xlink:href="#linear-gradient"/><linearGradient id="linear-gradient-3" x1="391.09" y1="261.1" x2="491.93" y2="261.1" xlink:href="#linear-gradient"/><linearGradient id="linear-gradient-4" x1="475.42" y1="305.79" x2="576.26" y2="305.79" xlink:href="#linear-gradient"/><linearGradient id="linear-gradient-5" x1="559.78" y1="350.57" x2="660.62" y2="350.57" xlink:href="#linear-gradient"/><linearGradient id="linear-gradient-6" x1="644.12" y1="395.14" x2="744.95" y2="395.14" xlink:href="#linear-gradient"/><linearGradient id="linear-gradient-7" x1="122.24" y1="216.11" x2="223.08" y2="216.11" xlink:href="#linear-gradient"/><linearGradient id="linear-gradient-8" x1="206.75" y1="261.07" x2="307.59" y2="261.07" xlink:href="#linear-gradient"/><linearGradient id="linear-gradient-9" x1="22.3" y1="260.85" x2="123.14" y2="260.85" xlink:href="#linear-gradient"/><linearGradient id="linear-gradient-10" x1="106.81" y1="305.8" x2="207.65" y2="305.8" xlink:href="#linear-gradient"/><linearGradient id="linear-gradient-11" x1="291.12" y1="305.84" x2="391.96" y2="305.84" xlink:href="#linear-gradient"/><linearGradient id="linear-gradient-12" x1="191.18" y1="350.58" x2="292.02" y2="350.58" xlink:href="#linear-gradient"/><linearGradient id="linear-gradient-13" x1="375.45" y1="350.54" x2="476.29" y2="350.54" xlink:href="#linear-gradient"/><linearGradient id="linear-gradient-14" x1="275.51" y1="395.27" x2="376.35" y2="395.27" xlink:href="#linear-gradient"/><linearGradient id="linear-gradient-15" x1="459.81" y1="395.31" x2="560.65" y2="395.31" xlink:href="#linear-gradient"/><linearGradient id="linear-gradient-16" x1="359.87" y1="440.04" x2="460.71" y2="440.04" xlink:href="#linear-gradient"/><linearGradient id="linear-gradient-17" x1="544.14" y1="439.89" x2="644.98" y2="439.89" xlink:href="#linear-gradient"/><linearGradient id="linear-gradient-18" x1="444.2" y1="484.62" x2="545.04" y2="484.62" xlink:href="#linear-gradient"/><linearGradient id="linear-gradient-19" x1="728.47" y1="439.72" x2="829.31" y2="439.72" xlink:href="#linear-gradient"/><linearGradient id="linear-gradient-20" x1="628.5" y1="484.47" x2="729.34" y2="484.47" xlink:href="#linear-gradient"/><linearGradient id="linear-gradient-21" x1="528.56" y1="529.2" x2="629.4" y2="529.2" xlink:href="#linear-gradient"/></defs><title>V2_E1</title><g id="Layer_2" data-name="Layer 2"><polygon class="cls-1" points="201.34 181.08 212.63 211.72 246.35 258.64 258.35 265.89 281.1 265.89 296.75 258.04 329.7 205 357.76 153.38 327.1 170.93 302.49 156.98 301.93 114.63 279.68 93.24 256.99 106.61 243.03 148.7 217.32 173.15 199.91 157.36 201.34 181.08"/><path class="cls-2" d="M216.62,203.23l5.6,2.81s.22-24.8,7.39-43.13l-12.29,10.24-10.15-9.27C204.62,183.58,216.62,203.23,216.62,203.23Z"/><path class="cls-3" d="M222.22,206l20.83,12,14.67-19.84h28.33L301.22,220l18.06-12.21,3.77-2.46s1.27-61.22-38.82-79.94a28.43,28.43,0,0,0-23.5-.36C221.38,142.43,222.22,206,222.22,206Z"/><polygon class="cls-1" points="257.72 198.2 271.83 189.74 286.05 198.2 257.72 198.2"/><polygon class="cls-2" points="258.43 265.89 243.68 223.14 259.2 201.88 271.83 193.97 284.2 201.88 300.53 224.45 329.78 205 296.83 258.04 281.18 265.89 258.43 265.89"/><path class="cls-2" d="M317.36,167.86a116.82,116.82,0,0,1,4.77,22.85l4.77-17.86Z"/><polygon class="cls-1" points="285.85 226.03 297.14 256.68 330.86 303.6 342.86 310.85 365.61 310.85 381.26 302.99 414.21 249.95 442.27 198.34 411.61 215.88 387 201.93 386.43 159.58 364.18 138.19 341.5 151.57 327.54 193.66 301.83 218.11 284.42 202.31 285.85 226.03"/><path class="cls-2" d="M301.13,248.18l5.59,2.81s.23-24.79,7.4-43.13l-12.29,10.25-10.15-9.27C289.12,228.53,301.13,248.18,301.13,248.18Z"/><path class="cls-4" d="M306.72,251l20.84,12,14.66-19.83h28.34L385.72,265l18.07-12.21,3.77-2.46s1.26-61.22-38.82-79.94a28.43,28.43,0,0,0-23.5-.36C305.89,187.39,306.72,251,306.72,251Z"/><polygon class="cls-1" points="342.22 243.16 356.34 234.69 370.56 243.16 342.22 243.16"/><polygon class="cls-2" points="342.94 310.85 328.19 268.1 343.71 246.83 356.34 238.92 368.71 246.83 385.04 269.41 414.29 249.95 381.34 302.99 365.69 310.85 342.94 310.85"/><path class="cls-2" d="M401.87,212.81a117,117,0,0,1,4.77,22.86l4.77-17.87Z"/><polygon class="cls-1" points="370.21 270.81 381.5 301.45 415.23 348.37 427.23 355.62 449.98 355.62 465.62 347.77 498.57 294.73 526.63 243.11 495.98 260.66 471.37 246.71 470.8 204.36 448.55 182.97 425.87 196.34 411.91 238.43 386.2 262.88 368.79 247.09 370.21 270.81"/><path class="cls-2" d="M385.5,293l5.59,2.8s.23-24.79,7.39-43.12L386.2,262.88l-10.15-9.27C373.49,273.31,385.5,293,385.5,293Z"/><path class="cls-5" d="M391.09,295.76l20.83,12,14.67-19.83h28.33l15.17,21.83,18.07-12.2,3.76-2.46s1.27-61.22-38.81-79.94a28.45,28.45,0,0,0-23.51-.36C390.25,232.16,391.09,295.76,391.09,295.76Z"/><polygon class="cls-1" points="426.59 287.93 440.7 279.47 454.92 287.93 426.59 287.93"/><polygon class="cls-2" points="427.31 355.62 412.56 312.87 428.08 291.61 440.7 283.7 453.08 291.61 469.41 314.18 498.66 294.73 465.71 347.77 450.06 355.62 427.31 355.62"/><path class="cls-2" d="M486.23,257.59A116.31,116.31,0,0,1,491,280.44l4.76-17.86Z"/><polygon class="cls-1" points="454.54 315.5 465.83 346.15 499.55 393.06 511.55 400.31 534.3 400.31 549.95 392.46 582.9 339.42 610.96 287.8 580.3 305.35 555.7 291.4 555.13 249.05 532.88 227.66 510.2 241.03 496.24 283.12 470.52 307.57 453.11 291.78 454.54 315.5"/><path class="cls-2" d="M469.83,337.65l5.59,2.81s.22-24.79,7.39-43.13l-12.29,10.24-10.14-9.27C457.82,318,469.83,337.65,469.83,337.65Z"/><path class="cls-6" d="M475.42,340.46l20.83,12,14.67-19.84h28.33l15.17,21.84,18.07-12.21,3.76-2.46s1.27-61.22-38.81-79.94a28.45,28.45,0,0,0-23.51-.36C474.58,276.85,475.42,340.46,475.42,340.46Z"/><polygon class="cls-1" points="510.92 332.62 525.03 324.16 539.25 332.62 510.92 332.62"/><polygon class="cls-2" points="511.64 400.31 496.89 357.56 512.41 336.3 525.03 328.39 537.41 336.3 553.74 358.88 582.99 339.42 550.04 392.46 534.39 400.31 511.64 400.31"/><path class="cls-2" d="M570.56,302.28a116.31,116.31,0,0,1,4.78,22.85l4.76-17.86Z"/><polygon class="cls-1" points="538.91 360.28 550.2 390.92 583.92 437.84 595.92 445.09 618.67 445.09 634.32 437.24 667.27 384.19 695.33 332.58 664.67 350.13 640.06 336.18 639.5 293.82 617.25 272.44 594.56 285.81 580.6 327.9 554.89 352.35 537.48 336.56 538.91 360.28"/><path class="cls-2" d="M554.19,382.42l5.6,2.81s.22-24.79,7.39-43.12l-12.29,10.24-10.15-9.27C542.19,362.77,554.19,382.42,554.19,382.42Z"/><path class="cls-7" d="M559.79,385.23l20.83,12,14.67-19.83h28.33l15.17,21.83L656.85,387l3.77-2.46s1.27-61.23-38.82-79.95a28.5,28.5,0,0,0-23.5-.36C559,321.63,559.79,385.23,559.79,385.23Z"/><polygon class="cls-1" points="595.28 377.4 609.4 368.93 623.62 377.4 595.28 377.4"/><polygon class="cls-2" points="596 445.09 581.25 402.34 596.77 381.07 609.4 373.17 621.77 381.07 638.1 403.65 667.35 384.19 634.4 437.24 618.75 445.09 596 445.09"/><path class="cls-2" d="M654.93,347.06a116.82,116.82,0,0,1,4.77,22.85L664.47,352Z"/><polygon class="cls-1" points="623.24 404.85 634.53 435.5 668.25 482.42 680.25 489.67 703 489.67 718.65 481.81 751.6 428.77 779.66 377.15 749 394.7 724.39 380.75 723.83 338.4 701.58 317.01 678.89 330.38 664.93 372.47 639.22 396.92 621.81 381.13 623.24 404.85"/><path class="cls-2" d="M638.53,427l5.59,2.81s.22-24.79,7.39-43.13l-12.29,10.24-10.15-9.27C626.52,407.35,638.53,427,638.53,427Z"/><path class="cls-8" d="M644.12,429.81l20.83,12L679.62,422H708l15.17,21.84,18.06-12.21,3.77-2.46s1.27-61.22-38.82-79.94a28.43,28.43,0,0,0-23.5-.36C643.28,366.2,644.12,429.81,644.12,429.81Z"/><polygon class="cls-1" points="679.62 421.97 693.73 413.51 707.95 421.97 679.62 421.97"/><polygon class="cls-2" points="680.34 489.67 665.59 446.92 681.1 425.65 693.73 417.74 706.1 425.65 722.43 448.23 751.68 428.77 718.73 481.81 703.09 489.67 680.34 489.67"/><path class="cls-2" d="M739.26,391.63A116.82,116.82,0,0,1,744,414.48l4.77-17.86Z"/><polygon class="cls-1" points="101.37 225.83 112.66 256.47 146.38 303.39 158.38 310.64 181.13 310.64 196.78 302.78 229.73 249.74 257.79 198.13 227.13 215.67 202.52 201.72 201.95 159.37 179.7 137.99 157.02 151.36 143.06 193.45 117.35 217.9 99.94 202.11 101.37 225.83"/><path class="cls-2" d="M116.65,248l5.59,2.81s.23-24.79,7.4-43.12L117.35,217.9l-10.15-9.27C104.65,228.32,116.65,248,116.65,248Z"/><path class="cls-9" d="M122.24,250.78l20.84,12L157.74,243h28.34l15.16,21.83,18.07-12.2,3.77-2.47s1.26-61.22-38.82-79.94a28.5,28.5,0,0,0-23.5-.36C121.41,187.18,122.24,250.78,122.24,250.78Z"/><polygon class="cls-1" points="157.75 242.95 171.86 234.48 186.08 242.95 157.75 242.95"/><polygon class="cls-2" points="158.46 310.64 143.71 267.89 159.23 246.62 171.86 238.72 184.23 246.62 200.56 269.2 229.81 249.74 196.86 302.78 181.21 310.64 158.46 310.64"/><path class="cls-2" d="M217.39,212.61a116.82,116.82,0,0,1,4.77,22.85l4.77-17.87Z"/><polygon class="cls-1" points="185.88 270.78 197.16 301.43 230.89 348.34 242.89 355.59 265.64 355.59 281.29 347.74 314.24 294.7 342.3 243.08 311.64 260.63 287.03 246.68 286.46 204.33 264.21 182.94 241.53 196.31 227.57 238.4 201.86 262.85 184.45 247.06 185.88 270.78"/><path class="cls-2" d="M201.16,292.93l5.59,2.8s.23-24.79,7.4-43.12l-12.29,10.24-10.15-9.27C189.15,273.28,201.16,292.93,201.16,292.93Z"/><path class="cls-10" d="M206.75,295.73l20.84,12,14.66-19.83h28.34l15.16,21.83,18.07-12.2,3.77-2.46s1.26-61.23-38.82-79.95a28.47,28.47,0,0,0-23.5-.35C205.91,232.13,206.75,295.73,206.75,295.73Z"/><polygon class="cls-1" points="242.25 287.9 256.37 279.44 270.59 287.9 242.25 287.9"/><polygon class="cls-2" points="242.97 355.59 228.22 312.84 243.74 291.57 256.37 283.67 268.74 291.57 285.07 314.15 314.32 294.7 281.37 347.74 265.72 355.59 242.97 355.59"/><path class="cls-2" d="M301.9,257.56a116.82,116.82,0,0,1,4.77,22.85l4.77-17.86Z"/><polygon class="cls-1" points="1.43 270.56 12.72 301.2 46.44 348.12 58.44 355.37 81.19 355.37 96.84 347.52 129.79 294.47 157.85 242.86 127.19 260.41 102.58 246.46 102.01 204.1 79.76 182.72 57.08 196.09 43.12 238.18 17.41 262.63 0 246.84 1.43 270.56"/><path class="cls-2" d="M16.71,292.7l5.59,2.81s.23-24.79,7.4-43.12L17.41,262.63,7.26,253.36C4.71,273.05,16.71,292.7,16.71,292.7Z"/><path class="cls-11" d="M22.3,295.51l20.84,12L57.8,287.68H86.14l15.16,21.83,18.07-12.2,3.77-2.46s1.26-61.23-38.82-80a28.5,28.5,0,0,0-23.5-.36C21.47,231.91,22.3,295.51,22.3,295.51Z"/><polygon class="cls-1" points="57.8 287.68 71.92 279.21 86.14 287.68 57.8 287.68"/><polygon class="cls-2" points="58.52 355.37 43.77 312.62 59.29 291.35 71.92 283.45 84.29 291.35 100.62 313.93 129.87 294.47 96.92 347.52 81.27 355.37 58.52 355.37"/><path class="cls-2" d="M117.45,257.34a116.82,116.82,0,0,1,4.77,22.85L127,262.32Z"/><polygon class="cls-1" points="85.94 315.51 97.22 346.16 130.95 393.07 142.95 400.32 165.7 400.32 181.35 392.47 214.3 339.43 242.36 287.81 211.7 305.36 187.09 291.41 186.52 249.06 164.27 227.67 141.59 241.04 127.63 283.13 101.92 307.58 84.51 291.79 85.94 315.51"/><path class="cls-2" d="M101.22,337.66l5.59,2.81s.23-24.79,7.4-43.13l-12.29,10.24-10.15-9.27C89.21,318,101.22,337.66,101.22,337.66Z"/><path class="cls-12" d="M106.81,340.47l20.84,12,14.66-19.84h28.34l15.16,21.84,18.07-12.21,3.77-2.46s1.26-61.22-38.82-79.94a28.43,28.43,0,0,0-23.5-.36C106,276.86,106.81,340.47,106.81,340.47Z"/><polygon class="cls-1" points="142.31 332.63 156.43 324.17 170.65 332.63 142.31 332.63"/><polygon class="cls-2" points="143.03 400.32 128.28 357.57 143.8 336.31 156.43 328.4 168.8 336.31 185.13 358.88 214.38 339.43 181.43 392.47 165.78 400.32 143.03 400.32"/><path class="cls-2" d="M202,302.29a116.82,116.82,0,0,1,4.77,22.85l4.77-17.86Z"/><polygon class="cls-1" points="270.24 315.56 281.53 346.2 315.25 393.12 327.25 400.37 350 400.37 365.65 392.51 398.6 339.47 426.66 287.86 396 305.4 371.4 291.45 370.83 249.1 348.58 227.72 325.9 241.09 311.94 283.18 286.23 307.63 268.81 291.84 270.24 315.56"/><path class="cls-2" d="M285.53,337.7l5.59,2.81s.23-24.79,7.39-43.12l-12.29,10.24-10.14-9.27C273.52,318.05,285.53,337.7,285.53,337.7Z"/><path class="cls-13" d="M291.12,340.51l20.83,12,14.67-19.83H355l15.17,21.83,18.07-12.2,3.76-2.47s1.27-61.22-38.81-79.94a28.49,28.49,0,0,0-23.51-.36C290.28,276.91,291.12,340.51,291.12,340.51Z"/><polygon class="cls-1" points="326.62 332.68 340.73 324.21 354.95 332.68 326.62 332.68"/><polygon class="cls-2" points="327.34 400.37 312.59 357.62 328.11 336.35 340.73 328.44 353.11 336.35 369.44 358.93 398.69 339.47 365.74 392.51 350.09 400.37 327.34 400.37"/><path class="cls-2" d="M386.26,302.34A116.31,116.31,0,0,1,391,325.19l4.76-17.87Z"/><polygon class="cls-1" points="170.3 360.29 181.59 390.93 215.32 437.85 227.32 445.1 250.06 445.1 265.71 437.25 298.66 384.2 326.73 332.59 296.07 350.14 271.46 336.19 270.89 293.83 248.64 272.45 225.96 285.82 212 327.91 186.28 352.36 168.88 336.57 170.3 360.29"/><path class="cls-2" d="M185.59,382.43l5.59,2.81s.23-24.79,7.39-43.12l-12.29,10.24-10.14-9.27C173.58,362.78,185.59,382.43,185.59,382.43Z"/><path class="cls-14" d="M191.18,385.24l20.83,12,14.67-19.83H255l15.17,21.83L288.25,387l3.76-2.46s1.27-61.23-38.81-79.95a28.53,28.53,0,0,0-23.51-.36C190.34,321.64,191.18,385.24,191.18,385.24Z"/><polygon class="cls-1" points="226.68 377.41 240.79 368.94 255.01 377.41 226.68 377.41"/><polygon class="cls-2" points="227.4 445.1 212.65 402.35 228.17 381.08 240.79 373.18 253.17 381.08 269.5 403.66 298.75 384.2 265.8 437.25 250.15 445.1 227.4 445.1"/><path class="cls-2" d="M286.32,347.07a116.31,116.31,0,0,1,4.78,22.85l4.76-17.87Z"/><polygon class="cls-1" points="354.57 360.25 365.86 390.89 399.58 437.81 411.58 445.06 434.33 445.06 449.98 437.2 482.93 384.16 510.99 332.55 480.33 350.1 455.73 336.15 455.16 293.79 432.91 272.41 410.23 285.78 396.26 327.87 370.55 352.32 353.14 336.53 354.57 360.25"/><path class="cls-2" d="M369.86,382.39l5.59,2.81s.22-24.79,7.39-43.12l-12.29,10.24-10.15-9.27C357.85,362.74,369.86,382.39,369.86,382.39Z"/><path class="cls-15" d="M375.45,385.2l20.83,12L411,377.37h28.33l15.17,21.83L472.51,387l3.77-2.46s1.27-61.23-38.81-80a28.53,28.53,0,0,0-23.51-.36C374.61,321.6,375.45,385.2,375.45,385.2Z"/><polygon class="cls-1" points="410.95 377.37 425.06 368.9 439.28 377.37 410.95 377.37"/><polygon class="cls-2" points="411.67 445.06 396.92 402.31 412.44 381.04 425.06 373.14 437.44 381.04 453.76 403.62 483.01 384.16 450.06 437.2 434.42 445.06 411.67 445.06"/><path class="cls-2" d="M470.59,347a117.21,117.21,0,0,1,4.78,22.85L480.13,352Z"/><polygon class="cls-1" points="254.63 404.98 265.92 435.62 299.64 482.54 311.64 489.79 334.39 489.79 350.04 481.94 382.99 428.89 411.05 377.28 380.39 394.83 355.79 380.88 355.22 338.52 332.97 317.14 310.29 330.51 296.32 372.6 270.61 397.05 253.2 381.26 254.63 404.98"/><path class="cls-2" d="M269.92,427.13l5.59,2.8s.22-24.79,7.39-43.12l-12.29,10.24-10.15-9.27C257.91,407.47,269.92,427.13,269.92,427.13Z"/><path class="cls-16" d="M275.51,429.93l20.83,12L311,422.1h28.33l15.17,21.83,18.07-12.2,3.76-2.46s1.27-61.23-38.81-79.95A28.53,28.53,0,0,0,314,349C274.67,366.33,275.51,429.93,275.51,429.93Z"/><polygon class="cls-1" points="311.01 422.1 325.12 413.63 339.34 422.1 311.01 422.1"/><polygon class="cls-2" points="311.73 489.79 296.98 447.04 312.5 425.77 325.12 417.87 337.5 425.77 353.82 448.35 383.07 428.89 350.13 481.94 334.48 489.79 311.73 489.79"/><path class="cls-2" d="M370.65,391.76a116.31,116.31,0,0,1,4.78,22.85l4.76-17.87Z"/><polygon class="cls-1" points="438.94 405.02 450.23 435.67 483.95 482.59 495.95 489.84 518.7 489.84 534.35 481.98 567.3 428.94 595.36 377.32 564.7 394.87 540.09 380.92 539.52 338.57 517.27 317.18 494.59 330.56 480.63 372.64 454.92 397.1 437.51 381.3 438.94 405.02"/><path class="cls-2" d="M454.22,427.17l5.59,2.81s.23-24.79,7.4-43.13L454.92,397.1l-10.15-9.27C442.21,407.52,454.22,427.17,454.22,427.17Z"/><path class="cls-17" d="M459.81,430l20.84,12,14.66-19.84h28.34L538.81,444l18.07-12.21,3.77-2.46s1.26-61.22-38.82-79.94a28.43,28.43,0,0,0-23.5-.36C459,366.38,459.81,430,459.81,430Z"/><polygon class="cls-1" points="495.31 422.14 509.43 413.68 523.65 422.14 495.31 422.14"/><polygon class="cls-2" points="496.03 489.84 481.28 447.09 496.8 425.82 509.43 417.91 521.8 425.82 538.13 448.4 567.38 428.94 534.43 481.98 518.78 489.84 496.03 489.84"/><path class="cls-2" d="M555,391.8a117,117,0,0,1,4.77,22.86l4.77-17.87Z"/><polygon class="cls-1" points="339 449.75 350.29 480.4 384.01 527.32 396.01 534.57 418.76 534.57 434.41 526.71 467.36 473.67 495.42 422.06 464.76 439.6 440.15 425.65 439.58 383.3 417.33 361.91 394.65 375.29 380.69 417.38 354.98 441.83 337.57 426.04 339 449.75"/><path class="cls-2" d="M354.28,471.9l5.59,2.81s.23-24.79,7.4-43.12L355,441.83l-10.15-9.27C342.27,452.25,354.28,471.9,354.28,471.9Z"/><path class="cls-18" d="M359.87,474.71l20.84,12,14.66-19.83h28.34l15.16,21.83,18.07-12.21,3.77-2.46s1.26-61.22-38.82-79.94a28.43,28.43,0,0,0-23.5-.36C359,411.11,359.87,474.71,359.87,474.71Z"/><polygon class="cls-1" points="395.37 466.88 409.49 458.41 423.71 466.88 395.37 466.88"/><polygon class="cls-2" points="396.09 534.57 381.34 491.82 396.86 470.55 409.49 462.64 421.86 470.55 438.19 493.13 467.44 473.67 434.49 526.71 418.84 534.57 396.09 534.57"/><path class="cls-2" d="M455,436.54a116.82,116.82,0,0,1,4.77,22.85l4.77-17.87Z"/><polygon class="cls-1" points="523.27 449.6 534.56 480.24 568.28 527.16 580.28 534.41 603.03 534.41 618.68 526.55 651.63 473.51 679.69 421.9 649.03 439.44 624.42 425.5 623.86 383.14 601.61 361.76 578.92 375.13 564.96 417.22 539.25 441.67 521.84 425.88 523.27 449.6"/><path class="cls-2" d="M538.55,471.74l5.6,2.81s.22-24.79,7.39-43.12l-12.29,10.24L529.1,432.4C526.55,452.09,538.55,471.74,538.55,471.74Z"/><path class="cls-19" d="M544.15,474.55l20.83,12,14.67-19.83H608l15.17,21.83,18.06-12.2,3.77-2.46s1.27-61.23-38.82-79.95a28.5,28.5,0,0,0-23.5-.36C543.31,411,544.15,474.55,544.15,474.55Z"/><polygon class="cls-1" points="579.65 466.72 593.76 458.25 607.98 466.72 579.65 466.72"/><polygon class="cls-2" points="580.37 534.41 565.62 491.66 581.13 470.39 593.76 462.49 606.13 470.39 622.46 492.97 651.71 473.51 618.76 526.55 603.12 534.41 580.37 534.41"/><path class="cls-2" d="M639.29,436.38a116.82,116.82,0,0,1,4.77,22.85l4.77-17.87Z"/><polygon class="cls-1" points="423.33 494.33 434.62 524.97 468.34 571.89 480.34 579.14 503.09 579.14 518.74 571.29 551.69 518.25 579.75 466.63 549.09 484.18 524.48 470.23 523.92 427.88 501.67 406.49 478.98 419.86 465.02 461.95 439.31 486.4 421.9 470.61 423.33 494.33"/><path class="cls-2" d="M438.61,516.48l5.6,2.8s.22-24.79,7.39-43.12L439.31,486.4l-10.15-9.27C426.61,496.83,438.61,516.48,438.61,516.48Z"/><path class="cls-20" d="M444.21,519.28l20.83,12,14.67-19.83H508l15.17,21.83,18.06-12.2,3.77-2.46s1.27-61.23-38.82-79.95a28.47,28.47,0,0,0-23.5-.35C443.37,455.68,444.21,519.28,444.21,519.28Z"/><polygon class="cls-1" points="479.71 511.45 493.82 502.99 508.04 511.45 479.71 511.45"/><polygon class="cls-2" points="480.43 579.14 465.68 536.39 481.19 515.12 493.82 507.22 506.19 515.12 522.52 537.7 551.77 518.25 518.82 571.29 503.18 579.14 480.43 579.14"/><path class="cls-2" d="M539.35,481.11A116.82,116.82,0,0,1,544.12,504l4.77-17.86Z"/><polygon class="cls-1" points="707.59 449.43 718.88 480.08 752.61 527 764.61 534.25 787.36 534.25 803 526.39 835.96 473.35 864.02 421.74 833.36 439.28 808.75 425.33 808.18 382.98 785.93 361.59 763.25 374.97 749.29 417.06 723.58 441.51 706.17 425.71 707.59 449.43"/><path class="cls-2" d="M722.88,471.58l5.59,2.81s.23-24.79,7.39-43.13l-12.28,10.25-10.15-9.27C710.87,451.93,722.88,471.58,722.88,471.58Z"/><path class="cls-21" d="M728.47,474.39l20.83,12L764,466.55H792.3l15.17,21.84,18.07-12.21,3.76-2.46s1.27-61.22-38.81-79.94a28.45,28.45,0,0,0-23.51-.36C727.63,410.79,728.47,474.39,728.47,474.39Z"/><polygon class="cls-1" points="763.97 466.56 778.08 458.09 792.3 466.56 763.97 466.56"/><polygon class="cls-2" points="764.69 534.25 749.94 491.5 765.46 470.23 778.08 462.32 790.46 470.23 806.79 492.81 836.04 473.35 803.09 526.39 787.44 534.25 764.69 534.25"/><path class="cls-2" d="M823.61,436.21a116.54,116.54,0,0,1,4.78,22.86l4.76-17.87Z"/><polygon class="cls-1" points="607.62 494.18 618.91 524.83 652.64 571.74 664.64 578.99 687.38 578.99 703.03 571.14 735.98 518.1 764.04 466.48 733.39 484.03 708.78 470.08 708.21 427.73 685.96 406.34 663.28 419.71 649.32 461.8 623.61 486.25 606.2 470.46 607.62 494.18"/><path class="cls-2" d="M622.91,516.33l5.59,2.8s.23-24.79,7.39-43.12L623.6,486.25,613.46,477C610.9,496.68,622.91,516.33,622.91,516.33Z"/><path class="cls-22" d="M628.5,519.13l20.83,12L664,511.3h28.33l15.17,21.83,18.07-12.2,3.76-2.46s1.27-61.23-38.81-80a28.49,28.49,0,0,0-23.51-.35C627.66,455.53,628.5,519.13,628.5,519.13Z"/><polygon class="cls-1" points="664 511.3 678.11 502.84 692.33 511.3 664 511.3"/><polygon class="cls-2" points="664.72 578.99 649.97 536.24 665.49 514.98 678.11 507.07 690.49 514.98 706.82 537.55 736.07 518.1 703.12 571.14 687.47 578.99 664.72 578.99"/><path class="cls-2" d="M723.64,481a116.31,116.31,0,0,1,4.78,22.85L733.18,486Z"/><polygon class="cls-1" points="507.68 538.91 518.97 569.56 552.7 616.48 564.7 623.73 587.45 623.73 603.09 615.87 636.04 562.83 664.11 511.21 633.45 528.76 608.84 514.81 608.27 472.46 586.02 451.07 563.34 464.44 549.38 506.53 523.66 530.98 506.25 515.19 507.68 538.91"/><path class="cls-2" d="M523,561.06l5.59,2.81s.23-24.79,7.39-43.13L523.67,531l-10.15-9.27C511,541.41,523,561.06,523,561.06Z"/><path class="cls-23" d="M528.56,563.87l20.83,12L564.06,556h28.33l15.17,21.84,18.07-12.21,3.76-2.46s1.27-61.22-38.81-79.94a28.45,28.45,0,0,0-23.51-.36C527.72,500.26,528.56,563.87,528.56,563.87Z"/><polygon class="cls-1" points="564.06 556.03 578.17 547.57 592.39 556.03 564.06 556.03"/><polygon class="cls-2" points="564.78 623.73 550.03 580.98 565.55 559.71 578.17 551.8 590.55 559.71 606.88 582.28 636.13 562.83 603.18 615.87 587.53 623.73 564.78 623.73"/><path class="cls-2" d="M623.7,525.69a116.31,116.31,0,0,1,4.78,22.85l4.76-17.86Z"/><path class="cls-24" d="M2027.16,5a7,7,0,0,1,7,7V622a7,7,0,0,1-7,7H1048.52a7,7,0,0,1-7-7V12a7,7,0,0,1,7-7h978.64m0-5H1048.52a12,12,0,0,0-12,12V622a12,12,0,0,0,12,12h978.64a12,12,0,0,0,12-12V12a12,12,0,0,0-12-12Z"/><rect class="cls-24" x="952.81" y="289.83" width="34" height="4.84" rx="2.42" ry="2.42"/><rect class="cls-24" x="952.81" y="299.99" width="34" height="4.84" rx="2.42" ry="2.42"/></g></svg>