<svg xmlns="http://www.w3.org/2000/svg" xmlns:xlink="http://www.w3.org/1999/xlink" viewBox="0 0 2289.97 530.49"><defs><style>.cls-1{fill:#62abbc;}.cls-2{fill:#3d838e;opacity:0.51;}.cls-3{fill:url(#linear-gradient);}.cls-4{fill:url(#linear-gradient-2);}.cls-5{fill:url(#linear-gradient-3);}.cls-6{fill:url(#linear-gradient-4);}.cls-7{fill:url(#linear-gradient-5);}.cls-8{fill:url(#linear-gradient-6);}.cls-9{fill:url(#linear-gradient-7);}.cls-10{fill:url(#linear-gradient-8);}.cls-11{fill:url(#linear-gradient-9);}.cls-12{fill:url(#linear-gradient-10);}.cls-13{fill:url(#linear-gradient-11);}.cls-14{fill:url(#linear-gradient-12);}.cls-15{fill:url(#linear-gradient-13);}.cls-16{fill:url(#linear-gradient-14);}.cls-17{fill:url(#linear-gradient-15);}.cls-18{fill:url(#linear-gradient-16);}.cls-19{fill:url(#linear-gradient-17);}.cls-20{fill:url(#linear-gradient-18);}.cls-21{fill:url(#linear-gradient-19);}.cls-22{fill:url(#linear-gradient-20);}.cls-23{fill:url(#linear-gradient-21);}.cls-24{fill:url(#linear-gradient-22);}.cls-25{fill:url(#linear-gradient-23);}.cls-26{fill:url(#linear-gradient-24);}.cls-27{fill:url(#linear-gradient-25);}.cls-28{fill:url(#linear-gradient-26);}.cls-29{fill:url(#linear-gradient-27);}.cls-30{fill:url(#linear-gradient-28);}.cls-31{fill:url(#linear-gradient-29);}.cls-32{fill:url(#linear-gradient-30);}.cls-33{fill:url(#linear-gradient-31);}.cls-34{fill:url(#linear-gradient-32);}.cls-35{fill:url(#linear-gradient-33);}.cls-36{fill:url(#linear-gradient-34);}.cls-37{fill:url(#linear-gradient-35);}.cls-38{fill:url(#linear-gradient-36);}.cls-39{fill:url(#linear-gradient-37);}.cls-40{fill:url(#linear-gradient-38);}.cls-41{fill:url(#linear-gradient-39);}.cls-42{fill:url(#linear-gradient-40);}.cls-43{fill:url(#linear-gradient-41);}.cls-44{fill:url(#linear-gradient-42);}.cls-45{fill:#f05023;}</style><linearGradient id="linear-gradient" x1="1221.52" y1="145.08" x2="1322.36" y2="145.08" gradientUnits="userSpaceOnUse"><stop offset="0" stop-color="#fbb040"/><stop offset="0.39" stop-color="#f9ae41"/><stop offset="0.59" stop-color="#f1a845"/><stop offset="0.74" stop-color="#e49e4b"/><stop offset="0.87" stop-color="#d18f55"/><stop offset="0.99" stop-color="#b97c60"/><stop offset="1" stop-color="#b67a62"/></linearGradient><linearGradient id="linear-gradient-2" x1="1306.03" y1="190.03" x2="1406.87" y2="190.03" xlink:href="#linear-gradient"/><linearGradient id="linear-gradient-3" x1="1390.39" y1="234.81" x2="1491.23" y2="234.81" xlink:href="#linear-gradient"/><linearGradient id="linear-gradient-4" x1="1474.72" y1="279.5" x2="1575.56" y2="279.5" xlink:href="#linear-gradient"/><linearGradient id="linear-gradient-5" x1="1121.51" y1="189.86" x2="1222.35" y2="189.86" xlink:href="#linear-gradient"/><linearGradient id="linear-gradient-6" x1="1206.02" y1="234.81" x2="1306.86" y2="234.81" xlink:href="#linear-gradient"/><linearGradient id="linear-gradient-7" x1="1021.57" y1="234.59" x2="1122.41" y2="234.59" xlink:href="#linear-gradient"/><linearGradient id="linear-gradient-8" x1="1106.08" y1="279.54" x2="1206.92" y2="279.54" xlink:href="#linear-gradient"/><linearGradient id="linear-gradient-9" x1="1290.39" y1="279.59" x2="1391.22" y2="279.59" xlink:href="#linear-gradient"/><linearGradient id="linear-gradient-10" x1="1190.45" y1="324.32" x2="1291.28" y2="324.32" xlink:href="#linear-gradient"/><linearGradient id="linear-gradient-11" x1="1374.71" y1="324.28" x2="1475.55" y2="324.28" xlink:href="#linear-gradient"/><linearGradient id="linear-gradient-12" x1="1274.77" y1="369.01" x2="1375.61" y2="369.01" xlink:href="#linear-gradient"/><linearGradient id="linear-gradient-13" x1="1985.54" y1="167.42" x2="2086.38" y2="167.42" xlink:href="#linear-gradient"/><linearGradient id="linear-gradient-14" x1="2070.05" y1="212.38" x2="2170.89" y2="212.38" xlink:href="#linear-gradient"/><linearGradient id="linear-gradient-15" x1="2154.42" y1="257.15" x2="2255.26" y2="257.15" xlink:href="#linear-gradient"/><linearGradient id="linear-gradient-16" x1="1885.54" y1="212.2" x2="1986.37" y2="212.2" xlink:href="#linear-gradient"/><linearGradient id="linear-gradient-17" x1="1970.04" y1="257.16" x2="2070.88" y2="257.16" xlink:href="#linear-gradient"/><linearGradient id="linear-gradient-18" x1="1785.6" y1="256.94" x2="1886.43" y2="256.94" xlink:href="#linear-gradient"/><linearGradient id="linear-gradient-19" x1="1870.1" y1="301.89" x2="1970.94" y2="301.89" xlink:href="#linear-gradient"/><linearGradient id="linear-gradient-20" x1="2054.41" y1="301.93" x2="2155.25" y2="301.93" xlink:href="#linear-gradient"/><linearGradient id="linear-gradient-21" x1="1954.47" y1="346.67" x2="2055.31" y2="346.67" xlink:href="#linear-gradient"/><linearGradient id="linear-gradient-22" x1="222.21" y1="78.13" x2="323.05" y2="78.13" xlink:href="#linear-gradient"/><linearGradient id="linear-gradient-23" x1="306.72" y1="123.08" x2="407.56" y2="123.08" xlink:href="#linear-gradient"/><linearGradient id="linear-gradient-24" x1="391.09" y1="167.86" x2="491.93" y2="167.86" xlink:href="#linear-gradient"/><linearGradient id="linear-gradient-25" x1="475.42" y1="212.55" x2="576.26" y2="212.55" xlink:href="#linear-gradient"/><linearGradient id="linear-gradient-26" x1="559.78" y1="257.33" x2="660.62" y2="257.33" xlink:href="#linear-gradient"/><linearGradient id="linear-gradient-27" x1="644.12" y1="301.9" x2="744.95" y2="301.9" xlink:href="#linear-gradient"/><linearGradient id="linear-gradient-28" x1="122.24" y1="122.87" x2="223.08" y2="122.87" xlink:href="#linear-gradient"/><linearGradient id="linear-gradient-29" x1="206.75" y1="167.83" x2="307.59" y2="167.83" xlink:href="#linear-gradient"/><linearGradient id="linear-gradient-30" x1="22.3" y1="167.61" x2="123.14" y2="167.61" xlink:href="#linear-gradient"/><linearGradient id="linear-gradient-31" x1="106.81" y1="212.56" x2="207.65" y2="212.56" xlink:href="#linear-gradient"/><linearGradient id="linear-gradient-32" x1="291.12" y1="212.6" x2="391.96" y2="212.6" xlink:href="#linear-gradient"/><linearGradient id="linear-gradient-33" x1="191.18" y1="257.34" x2="292.02" y2="257.34" xlink:href="#linear-gradient"/><linearGradient id="linear-gradient-34" x1="375.45" y1="257.3" x2="476.29" y2="257.3" xlink:href="#linear-gradient"/><linearGradient id="linear-gradient-35" x1="275.51" y1="302.03" x2="376.35" y2="302.03" xlink:href="#linear-gradient"/><linearGradient id="linear-gradient-36" x1="459.81" y1="302.07" x2="560.65" y2="302.07" xlink:href="#linear-gradient"/><linearGradient id="linear-gradient-37" x1="359.87" y1="346.8" x2="460.71" y2="346.8" xlink:href="#linear-gradient"/><linearGradient id="linear-gradient-38" x1="544.14" y1="346.65" x2="644.98" y2="346.65" xlink:href="#linear-gradient"/><linearGradient id="linear-gradient-39" x1="444.2" y1="391.38" x2="545.04" y2="391.38" xlink:href="#linear-gradient"/><linearGradient id="linear-gradient-40" x1="728.47" y1="346.48" x2="829.31" y2="346.48" xlink:href="#linear-gradient"/><linearGradient id="linear-gradient-41" x1="628.5" y1="391.23" x2="729.34" y2="391.23" xlink:href="#linear-gradient"/><linearGradient id="linear-gradient-42" x1="528.56" y1="435.96" x2="629.4" y2="435.96" xlink:href="#linear-gradient"/></defs><title>V2_G1</title><g id="Layer_2" data-name="Layer 2"><polygon class="cls-1" points="1200.64 154.79 1211.93 185.43 1245.66 232.35 1257.66 239.6 1280.41 239.6 1296.05 231.75 1329 178.71 1357.07 127.09 1326.41 144.64 1301.8 130.69 1301.23 88.34 1278.98 66.95 1256.3 80.32 1242.34 122.41 1216.63 146.86 1199.22 131.07 1200.64 154.79"/><path class="cls-2" d="M1215.93,176.94l5.59,2.8s.23-24.79,7.39-43.12l-12.28,10.24-10.15-9.27C1203.92,157.29,1215.93,176.94,1215.93,176.94Z"/><path class="cls-3" d="M1221.52,179.74l20.83,12L1257,171.91h28.33l15.17,21.83,18.07-12.2,3.76-2.46s1.27-61.23-38.81-80a28.49,28.49,0,0,0-23.51-.35C1220.68,116.14,1221.52,179.74,1221.52,179.74Z"/><polygon class="cls-1" points="1257.02 171.91 1271.13 163.45 1285.35 171.91 1257.02 171.91"/><polygon class="cls-2" points="1257.74 239.6 1242.99 196.85 1258.51 175.58 1271.13 167.68 1283.51 175.58 1299.84 198.16 1329.09 178.71 1296.14 231.75 1280.49 239.6 1257.74 239.6"/><path class="cls-2" d="M1316.66,141.57a116.31,116.31,0,0,1,4.78,22.85l4.76-17.86Z"/><polygon class="cls-1" points="1285.15 199.74 1296.44 230.39 1330.16 277.31 1342.16 284.56 1364.91 284.56 1380.56 276.7 1413.51 223.66 1441.57 172.04 1410.91 189.59 1386.31 175.64 1385.74 133.29 1363.49 111.9 1340.81 125.28 1326.85 167.36 1301.13 191.81 1283.72 176.02 1285.15 199.74"/><path class="cls-2" d="M1300.44,221.89l5.59,2.81s.23-24.79,7.39-43.13l-12.29,10.24L1291,182.55C1288.43,202.24,1300.44,221.89,1300.44,221.89Z"/><path class="cls-4" d="M1306,224.7l20.83,12,14.67-19.84h28.33L1385,238.7l18.07-12.21,3.76-2.46s1.27-61.22-38.81-79.94a28.45,28.45,0,0,0-23.51-.36C1305.19,161.09,1306,224.7,1306,224.7Z"/><polygon class="cls-1" points="1341.53 216.86 1355.64 208.4 1369.86 216.86 1341.53 216.86"/><polygon class="cls-2" points="1342.25 284.56 1327.5 241.81 1343.02 220.54 1355.64 212.63 1368.02 220.54 1384.35 243.12 1413.6 223.66 1380.65 276.7 1365 284.56 1342.25 284.56"/><path class="cls-2" d="M1401.17,186.52a116.54,116.54,0,0,1,4.78,22.85l4.76-17.86Z"/><polygon class="cls-1" points="1369.52 244.52 1380.81 275.16 1414.53 322.08 1426.53 329.33 1449.28 329.33 1464.93 321.48 1497.88 268.44 1525.94 216.82 1495.28 234.37 1470.67 220.42 1470.11 178.07 1447.86 156.68 1425.17 170.05 1411.21 212.14 1385.5 236.59 1368.09 220.8 1369.52 244.52"/><path class="cls-2" d="M1384.8,266.67l5.6,2.8s.22-24.79,7.39-43.12l-12.29,10.24-10.15-9.27C1372.8,247,1384.8,266.67,1384.8,266.67Z"/><path class="cls-5" d="M1390.4,269.47l20.83,12,14.67-19.83h28.33l15.17,21.83,18.06-12.2,3.77-2.46s1.27-61.23-38.82-79.95a28.47,28.47,0,0,0-23.5-.35C1389.56,205.87,1390.4,269.47,1390.4,269.47Z"/><polygon class="cls-1" points="1425.9 261.64 1440.01 253.18 1454.23 261.64 1425.9 261.64"/><polygon class="cls-2" points="1426.62 329.33 1411.87 286.58 1427.38 265.31 1440.01 257.41 1452.38 265.31 1468.71 287.89 1497.96 268.44 1465.01 321.48 1449.37 329.33 1426.62 329.33"/><path class="cls-2" d="M1485.54,231.3a116.82,116.82,0,0,1,4.77,22.85l4.77-17.86Z"/><polygon class="cls-1" points="1453.85 289.21 1465.13 319.86 1498.86 366.77 1510.86 374.02 1533.61 374.02 1549.26 366.17 1582.21 313.13 1610.27 261.51 1579.61 279.06 1555 265.11 1554.43 222.76 1532.18 201.37 1509.5 214.74 1495.54 256.83 1469.83 281.28 1452.42 265.49 1453.85 289.21"/><path class="cls-2" d="M1469.13,311.36l5.59,2.8s.23-24.79,7.4-43.12l-12.29,10.24L1459.68,272C1457.12,291.71,1469.13,311.36,1469.13,311.36Z"/><path class="cls-6" d="M1474.72,314.16l20.84,12,14.66-19.83h28.34l15.16,21.83,18.07-12.2,3.77-2.46s1.26-61.23-38.82-79.94a28.43,28.43,0,0,0-23.5-.36C1473.89,250.56,1474.72,314.16,1474.72,314.16Z"/><polygon class="cls-1" points="1510.22 306.33 1524.34 297.87 1538.56 306.33 1510.22 306.33"/><polygon class="cls-2" points="1510.94 374.02 1496.19 331.27 1511.71 310 1524.34 302.1 1536.71 310 1553.04 332.58 1582.29 313.13 1549.34 366.17 1533.69 374.02 1510.94 374.02"/><path class="cls-2" d="M1569.87,276a116.82,116.82,0,0,1,4.77,22.85l4.77-17.86Z"/><polygon class="cls-1" points="1100.63 199.57 1111.92 230.22 1145.65 277.13 1157.65 284.38 1180.4 284.38 1196.05 276.53 1228.99 223.49 1257.06 171.87 1226.4 189.42 1201.79 175.47 1201.22 133.12 1178.97 111.73 1156.29 125.1 1142.33 167.19 1116.62 191.64 1099.21 175.85 1100.63 199.57"/><path class="cls-2" d="M1115.92,221.72l5.59,2.81s.23-24.79,7.39-43.13l-12.28,10.24-10.15-9.27C1103.91,202.07,1115.92,221.72,1115.92,221.72Z"/><path class="cls-7" d="M1121.51,224.53l20.83,12L1157,216.69h28.33l15.17,21.84,18.07-12.21,3.76-2.46s1.27-61.22-38.81-79.94a28.43,28.43,0,0,0-23.5-.36C1120.67,160.92,1121.51,224.53,1121.51,224.53Z"/><polygon class="cls-1" points="1157.01 216.69 1171.12 208.23 1185.35 216.69 1157.01 216.69"/><polygon class="cls-2" points="1157.73 284.38 1142.98 241.63 1158.5 220.37 1171.12 212.46 1183.5 220.37 1199.83 242.94 1229.08 223.49 1196.13 276.53 1180.48 284.38 1157.73 284.38"/><path class="cls-2" d="M1216.66,186.35a116.82,116.82,0,0,1,4.77,22.85l4.76-17.86Z"/><polygon class="cls-1" points="1185.14 244.53 1196.43 275.17 1230.16 322.09 1242.16 329.34 1264.91 329.34 1280.55 321.48 1313.5 268.44 1341.57 216.83 1310.91 234.37 1286.3 220.42 1285.73 178.07 1263.48 156.68 1240.8 170.06 1226.84 212.15 1201.13 236.6 1183.71 220.8 1185.14 244.53"/><path class="cls-2" d="M1200.43,266.67l5.59,2.81s.23-24.79,7.39-43.12l-12.28,10.24L1191,227.33C1188.42,247,1200.43,266.67,1200.43,266.67Z"/><path class="cls-8" d="M1206,269.48l20.83,12,14.67-19.83h28.33L1285,283.48l18.07-12.21,3.76-2.46s1.27-61.22-38.81-79.94a28.45,28.45,0,0,0-23.51-.36C1205.18,205.88,1206,269.48,1206,269.48Z"/><polygon class="cls-1" points="1241.52 261.65 1255.63 253.18 1269.85 261.65 1241.52 261.65"/><polygon class="cls-2" points="1242.24 329.34 1227.49 286.59 1243.01 265.32 1255.63 257.41 1268.01 265.32 1284.34 287.9 1313.59 268.44 1280.64 321.48 1264.99 329.34 1242.24 329.34"/><path class="cls-2" d="M1301.16,231.31a116.31,116.31,0,0,1,4.78,22.85l4.76-17.87Z"/><polygon class="cls-1" points="1000.69 244.3 1011.98 274.95 1045.71 321.87 1057.71 329.12 1080.46 329.12 1096.11 321.26 1129.06 268.22 1157.12 216.6 1126.46 234.15 1101.85 220.2 1101.28 177.85 1079.03 156.46 1056.35 169.84 1042.39 211.92 1016.68 236.38 999.27 220.58 1000.69 244.3"/><path class="cls-2" d="M1016,266.45l5.59,2.81s.23-24.79,7.39-43.13l-12.28,10.24-10.15-9.26C1004,246.8,1016,266.45,1016,266.45Z"/><path class="cls-9" d="M1021.57,269.26l20.83,12,14.67-19.84h28.33l15.17,21.84,18.07-12.21,3.76-2.46s1.27-61.22-38.81-79.94a28.43,28.43,0,0,0-23.5-.36C1020.73,205.65,1021.57,269.26,1021.57,269.26Z"/><polygon class="cls-1" points="1057.07 261.42 1071.18 252.96 1085.4 261.42 1057.07 261.42"/><polygon class="cls-2" points="1057.79 329.12 1043.04 286.37 1058.56 265.1 1071.18 257.19 1083.56 265.1 1099.89 287.68 1129.14 268.22 1096.19 321.26 1080.54 329.12 1057.79 329.12"/><path class="cls-2" d="M1116.72,231.08a117,117,0,0,1,4.77,22.85l4.76-17.86Z"/><polygon class="cls-1" points="1085.2 289.26 1096.49 319.9 1130.22 366.82 1142.22 374.07 1164.97 374.07 1180.61 366.21 1213.56 313.17 1241.63 261.56 1210.97 279.1 1186.36 265.15 1185.79 222.8 1163.54 201.41 1140.86 214.79 1126.9 256.88 1101.18 281.33 1083.78 265.54 1085.2 289.26"/><path class="cls-2" d="M1100.49,311.4l5.59,2.81s.23-24.79,7.39-43.12l-12.28,10.24L1091,272.06C1088.48,291.75,1100.49,311.4,1100.49,311.4Z"/><path class="cls-10" d="M1106.08,314.21l20.83,12,14.67-19.83h28.33l15.17,21.83,18.07-12.2,3.76-2.47s1.27-61.22-38.81-79.94a28.49,28.49,0,0,0-23.51-.36C1105.24,250.61,1106.08,314.21,1106.08,314.21Z"/><polygon class="cls-1" points="1141.58 306.38 1155.69 297.91 1169.91 306.38 1141.58 306.38"/><polygon class="cls-2" points="1142.3 374.07 1127.55 331.32 1143.07 310.05 1155.69 302.14 1168.07 310.05 1184.4 332.63 1213.65 313.17 1180.7 366.21 1165.05 374.07 1142.3 374.07"/><path class="cls-2" d="M1201.22,276a116.31,116.31,0,0,1,4.78,22.85l4.76-17.87Z"/><polygon class="cls-1" points="1269.51 289.3 1280.8 319.95 1314.52 366.86 1326.52 374.11 1349.27 374.11 1364.92 366.26 1397.87 313.22 1425.93 261.6 1395.27 279.15 1370.66 265.2 1370.1 222.85 1347.85 201.46 1325.16 214.83 1311.2 256.92 1285.49 281.37 1268.08 265.58 1269.51 289.3"/><path class="cls-2" d="M1284.8,311.45l5.59,2.81s.22-24.79,7.39-43.13l-12.29,10.24-10.15-9.27C1272.79,291.8,1284.8,311.45,1284.8,311.45Z"/><path class="cls-11" d="M1290.39,314.26l20.83,12,14.67-19.84h28.33l15.17,21.84,18.06-12.21,3.77-2.46s1.27-61.22-38.82-79.94a28.43,28.43,0,0,0-23.5-.36C1289.55,250.65,1290.39,314.26,1290.39,314.26Z"/><polygon class="cls-1" points="1325.89 306.42 1340 297.96 1354.22 306.42 1325.89 306.42"/><polygon class="cls-2" points="1326.61 374.11 1311.86 331.36 1327.37 310.1 1340 302.19 1352.37 310.1 1368.7 332.68 1397.95 313.22 1365 366.26 1349.36 374.11 1326.61 374.11"/><path class="cls-2" d="M1385.53,276.08a116.82,116.82,0,0,1,4.77,22.85l4.77-17.86Z"/><polygon class="cls-1" points="1169.57 334.03 1180.86 364.68 1214.58 411.6 1226.58 418.85 1249.33 418.85 1264.98 410.99 1297.93 357.95 1325.99 306.33 1295.33 323.88 1270.72 309.93 1270.16 267.58 1247.91 246.19 1225.22 259.56 1211.26 301.65 1185.55 326.1 1168.14 310.31 1169.57 334.03"/><path class="cls-2" d="M1184.86,356.18l5.59,2.81s.22-24.79,7.39-43.13l-12.29,10.24-10.15-9.26C1172.85,336.53,1184.86,356.18,1184.86,356.18Z"/><path class="cls-12" d="M1190.45,359l20.83,12L1226,351.15h28.33L1269.45,373l18.06-12.21,3.77-2.46s1.27-61.22-38.82-79.94A28.43,28.43,0,0,0,1229,278C1189.61,295.38,1190.45,359,1190.45,359Z"/><polygon class="cls-1" points="1225.95 351.15 1240.06 342.69 1254.28 351.15 1225.95 351.15"/><polygon class="cls-2" points="1226.67 418.85 1211.92 376.1 1227.43 354.83 1240.06 346.92 1252.43 354.83 1268.76 377.41 1298.01 357.95 1265.06 410.99 1249.42 418.85 1226.67 418.85"/><path class="cls-2" d="M1285.59,320.81a117,117,0,0,1,4.77,22.85l4.77-17.86Z"/><polygon class="cls-1" points="1353.84 333.99 1365.13 364.64 1398.85 411.56 1410.85 418.81 1433.6 418.81 1449.25 410.95 1482.2 357.91 1510.26 306.29 1479.6 323.84 1454.99 309.89 1454.42 267.54 1432.17 246.15 1409.49 259.52 1395.53 301.61 1369.82 326.06 1352.41 310.27 1353.84 333.99"/><path class="cls-2" d="M1369.12,356.14l5.59,2.81s.23-24.79,7.4-43.13l-12.29,10.24-10.15-9.26C1357.12,336.49,1369.12,356.14,1369.12,356.14Z"/><path class="cls-13" d="M1374.71,359l20.84,12,14.66-19.84h28.34L1453.71,373l18.07-12.21,3.77-2.46s1.26-61.22-38.82-79.94a28.43,28.43,0,0,0-23.5-.36C1373.88,295.34,1374.71,359,1374.71,359Z"/><polygon class="cls-1" points="1410.21 351.11 1424.33 342.65 1438.55 351.11 1410.21 351.11"/><polygon class="cls-2" points="1410.93 418.81 1396.18 376.06 1411.7 354.79 1424.33 346.88 1436.7 354.79 1453.03 377.37 1482.28 357.91 1449.33 410.95 1433.68 418.81 1410.93 418.81"/><path class="cls-2" d="M1469.86,320.77a116.82,116.82,0,0,1,4.77,22.85l4.77-17.86Z"/><polygon class="cls-1" points="1253.9 378.72 1265.19 409.37 1298.91 456.29 1310.91 463.54 1333.66 463.54 1349.31 455.68 1382.26 402.64 1410.32 351.02 1379.66 368.57 1355.05 354.62 1354.48 312.27 1332.23 290.88 1309.55 304.26 1295.59 346.35 1269.88 370.8 1252.47 355 1253.9 378.72"/><path class="cls-2" d="M1269.18,400.87l5.59,2.81s.23-24.79,7.4-43.13l-12.29,10.25-10.15-9.27C1257.18,381.22,1269.18,400.87,1269.18,400.87Z"/><path class="cls-14" d="M1274.77,403.68l20.84,12,14.66-19.84h28.34l15.16,21.84,18.07-12.21,3.77-2.46s1.26-61.22-38.82-79.94a28.43,28.43,0,0,0-23.5-.36C1273.94,340.08,1274.77,403.68,1274.77,403.68Z"/><polygon class="cls-1" points="1310.28 395.85 1324.39 387.38 1338.61 395.85 1310.28 395.85"/><polygon class="cls-2" points="1310.99 463.54 1296.24 420.79 1311.76 399.52 1324.39 391.61 1336.76 399.52 1353.09 422.1 1382.34 402.64 1349.39 455.68 1333.74 463.54 1310.99 463.54"/><path class="cls-2" d="M1369.92,365.5a117,117,0,0,1,4.77,22.86l4.77-17.87Z"/><polygon class="cls-1" points="1964.67 177.13 1975.96 207.78 2009.68 254.7 2021.68 261.95 2044.43 261.95 2060.08 254.09 2093.03 201.05 2121.09 149.44 2090.43 166.98 2065.82 153.03 2065.26 110.68 2043.01 89.29 2020.32 102.67 2006.36 144.76 1980.65 169.21 1963.24 153.41 1964.67 177.13"/><path class="cls-2" d="M1980,199.28l5.6,2.81s.22-24.79,7.39-43.12l-12.29,10.24-10.15-9.27C1968,179.63,1980,199.28,1980,199.28Z"/><path class="cls-15" d="M1985.55,202.09l20.83,12,14.67-19.83h28.33l15.17,21.83,18.06-12.21,3.77-2.46s1.27-61.22-38.82-79.94a28.43,28.43,0,0,0-23.5-.36C1984.71,138.49,1985.55,202.09,1985.55,202.09Z"/><polygon class="cls-1" points="2021.05 194.26 2035.16 185.79 2049.38 194.26 2021.05 194.26"/><polygon class="cls-2" points="2021.77 261.95 2007.02 219.2 2022.53 197.93 2035.16 190.02 2047.53 197.93 2063.86 220.51 2093.11 201.05 2060.16 254.09 2044.52 261.95 2021.77 261.95"/><path class="cls-2" d="M2080.69,163.92a116.82,116.82,0,0,1,4.77,22.85l4.77-17.87Z"/><polygon class="cls-1" points="2049.18 222.09 2060.47 252.73 2094.19 299.65 2106.19 306.9 2128.94 306.9 2144.59 299.05 2177.54 246 2205.6 194.39 2174.94 211.94 2150.33 197.99 2149.76 155.63 2127.51 134.25 2104.83 147.62 2090.87 189.71 2065.16 214.16 2047.75 198.37 2049.18 222.09"/><path class="cls-2" d="M2064.46,244.23l5.59,2.81s.23-24.79,7.4-43.12l-12.29,10.24L2055,204.89C2052.46,224.58,2064.46,244.23,2064.46,244.23Z"/><path class="cls-16" d="M2070.05,247l20.84,12,14.66-19.83h28.34L2149.05,261l18.07-12.2,3.77-2.46s1.26-61.23-38.82-79.95a28.5,28.5,0,0,0-23.5-.36C2069.22,183.44,2070.05,247,2070.05,247Z"/><polygon class="cls-1" points="2105.55 239.21 2119.67 230.74 2133.89 239.21 2105.55 239.21"/><polygon class="cls-2" points="2106.27 306.9 2091.52 264.15 2107.04 242.88 2119.67 234.98 2132.04 242.88 2148.37 265.46 2177.62 246 2144.67 299.05 2129.02 306.9 2106.27 306.9"/><path class="cls-2" d="M2165.2,208.87a116.82,116.82,0,0,1,4.77,22.85l4.77-17.87Z"/><polygon class="cls-1" points="2133.54 266.87 2144.83 297.51 2178.56 344.43 2190.56 351.68 2213.31 351.68 2228.95 343.82 2261.91 290.78 2289.97 239.17 2259.31 256.71 2234.7 242.76 2234.13 200.41 2211.88 179.02 2189.2 192.4 2175.24 234.49 2149.53 258.94 2132.12 243.14 2133.54 266.87"/><path class="cls-2" d="M2148.83,289l5.59,2.81s.23-24.79,7.39-43.12l-12.28,10.24-10.15-9.27C2136.82,269.36,2148.83,289,2148.83,289Z"/><path class="cls-17" d="M2154.42,291.82l20.83,12L2189.92,284h28.33l15.17,21.83,18.07-12.21,3.76-2.46s1.27-61.22-38.81-79.94a28.45,28.45,0,0,0-23.51-.36C2153.58,228.22,2154.42,291.82,2154.42,291.82Z"/><polygon class="cls-1" points="2189.92 283.99 2204.03 275.52 2218.25 283.99 2189.92 283.99"/><polygon class="cls-2" points="2190.64 351.68 2175.89 308.93 2191.41 287.66 2204.03 279.75 2216.41 287.66 2232.74 310.24 2261.99 290.78 2229.04 343.82 2213.39 351.68 2190.64 351.68"/><path class="cls-2" d="M2249.56,253.65a116.31,116.31,0,0,1,4.78,22.85l4.76-17.87Z"/><polygon class="cls-1" points="1864.66 221.92 1875.95 252.56 1909.67 299.48 1921.67 306.73 1944.42 306.73 1960.07 298.87 1993.02 245.83 2021.08 194.22 1990.42 211.76 1965.82 197.81 1965.25 155.46 1943 134.08 1920.32 147.45 1906.35 189.54 1880.64 213.99 1863.23 198.2 1864.66 221.92"/><path class="cls-2" d="M1880,244.06l5.59,2.81s.22-24.79,7.39-43.12L1880.64,214l-10.15-9.27C1867.94,224.41,1880,244.06,1880,244.06Z"/><path class="cls-18" d="M1885.54,246.87l20.83,12L1921,239h28.33l15.17,21.83,18.06-12.2,3.77-2.47s1.27-61.22-38.82-79.94a28.5,28.5,0,0,0-23.5-.36C1884.7,183.27,1885.54,246.87,1885.54,246.87Z"/><polygon class="cls-1" points="1921.04 239.04 1935.15 230.57 1949.37 239.04 1921.04 239.04"/><polygon class="cls-2" points="1921.76 306.73 1907.01 263.98 1922.52 242.71 1935.15 234.81 1947.52 242.71 1963.85 265.29 1993.1 245.83 1960.15 298.87 1944.51 306.73 1921.76 306.73"/><path class="cls-2" d="M1980.68,208.7a116.82,116.82,0,0,1,4.77,22.85l4.77-17.87Z"/><polygon class="cls-1" points="1949.17 266.87 1960.46 297.51 1994.18 344.43 2006.18 351.68 2028.93 351.68 2044.58 343.83 2077.53 290.79 2105.59 239.17 2074.93 256.72 2050.32 242.77 2049.76 200.42 2027.51 179.03 2004.82 192.4 1990.86 234.49 1965.15 258.94 1947.74 243.15 1949.17 266.87"/><path class="cls-2" d="M1964.45,289l5.6,2.8s.22-24.79,7.39-43.12l-12.29,10.24L1955,249.67C1952.45,269.37,1964.45,289,1964.45,289Z"/><path class="cls-19" d="M1970.05,291.82l20.83,12L2005.55,284h28.33l15.17,21.83,18.06-12.2,3.77-2.46s1.27-61.23-38.82-79.94a28.43,28.43,0,0,0-23.5-.36C1969.21,228.22,1970.05,291.82,1970.05,291.82Z"/><polygon class="cls-1" points="2005.55 283.99 2019.66 275.53 2033.88 283.99 2005.55 283.99"/><polygon class="cls-2" points="2006.26 351.68 1991.51 308.93 2007.03 287.67 2019.66 279.76 2032.03 287.67 2048.36 310.24 2077.61 290.79 2044.66 343.83 2029.01 351.68 2006.26 351.68"/><path class="cls-2" d="M2065.19,253.65A116.82,116.82,0,0,1,2070,276.5l4.77-17.86Z"/><polygon class="cls-1" points="1764.72 266.65 1776.01 297.29 1809.73 344.21 1821.73 351.46 1844.48 351.46 1860.13 343.61 1893.08 290.56 1921.14 238.95 1890.48 256.5 1865.88 242.55 1865.31 200.19 1843.06 178.81 1820.38 192.18 1806.41 234.27 1780.7 258.72 1763.29 242.93 1764.72 266.65"/><path class="cls-2" d="M1780,288.79l5.59,2.81s.22-24.79,7.39-43.12l-12.29,10.24-10.15-9.27C1768,269.14,1780,288.79,1780,288.79Z"/><path class="cls-20" d="M1785.6,291.6l20.83,12,14.67-19.83h28.33l15.17,21.83,18.06-12.2,3.77-2.46s1.27-61.23-38.82-79.95a28.5,28.5,0,0,0-23.5-.36C1784.76,228,1785.6,291.6,1785.6,291.6Z"/><polygon class="cls-1" points="1821.1 283.77 1835.21 275.3 1849.43 283.77 1821.1 283.77"/><polygon class="cls-2" points="1821.82 351.46 1807.07 308.71 1822.58 287.44 1835.21 279.54 1847.58 287.44 1863.91 310.02 1893.16 290.56 1860.21 343.61 1844.57 351.46 1821.82 351.46"/><path class="cls-2" d="M1880.74,253.43a116.82,116.82,0,0,1,4.77,22.85l4.77-17.87Z"/><polygon class="cls-1" points="1849.23 311.6 1860.52 342.25 1894.24 389.17 1906.24 396.42 1928.99 396.42 1944.64 388.56 1977.59 335.52 2005.65 283.9 1974.99 301.45 1950.38 287.5 1949.82 245.15 1927.57 223.76 1904.88 237.13 1890.92 279.22 1865.21 303.67 1847.8 287.88 1849.23 311.6"/><path class="cls-2" d="M1864.51,333.75l5.6,2.81s.22-24.79,7.39-43.13l-12.29,10.24-10.15-9.27C1852.51,314.1,1864.51,333.75,1864.51,333.75Z"/><path class="cls-21" d="M1870.11,336.56l20.83,12,14.67-19.84h28.33l15.17,21.84,18.06-12.21,3.77-2.46s1.27-61.22-38.82-79.94a28.43,28.43,0,0,0-23.5-.36C1869.27,273,1870.11,336.56,1870.11,336.56Z"/><polygon class="cls-1" points="1905.61 328.72 1919.72 320.26 1933.94 328.72 1905.61 328.72"/><polygon class="cls-2" points="1906.32 396.42 1891.57 353.67 1907.09 332.4 1919.72 324.49 1932.09 332.4 1948.42 354.98 1977.67 335.52 1944.72 388.56 1929.07 396.42 1906.32 396.42"/><path class="cls-2" d="M1965.25,298.38a116.82,116.82,0,0,1,4.77,22.85l4.77-17.86Z"/><polygon class="cls-1" points="2033.53 311.65 2044.82 342.29 2078.55 389.21 2090.55 396.46 2113.3 396.46 2128.95 388.6 2161.89 335.56 2189.96 283.95 2159.3 301.49 2134.69 287.55 2134.12 245.19 2111.87 223.81 2089.19 237.18 2075.23 279.27 2049.52 303.72 2032.11 287.93 2033.53 311.65"/><path class="cls-2" d="M2048.82,333.79l5.59,2.81s.23-24.79,7.39-43.12l-12.28,10.24-10.15-9.27C2036.81,314.14,2048.82,333.79,2048.82,333.79Z"/><path class="cls-22" d="M2054.41,336.6l20.84,12,14.66-19.83h28.34l15.16,21.83,18.07-12.2,3.77-2.47s1.26-61.22-38.82-79.94a28.47,28.47,0,0,0-23.5-.36C2053.57,273,2054.41,336.6,2054.41,336.6Z"/><polygon class="cls-1" points="2089.91 328.77 2104.02 320.3 2118.24 328.77 2089.91 328.77"/><polygon class="cls-2" points="2090.63 396.46 2075.88 353.71 2091.4 332.44 2104.02 324.54 2116.4 332.44 2132.73 355.02 2161.98 335.56 2129.03 388.6 2113.38 396.46 2090.63 396.46"/><path class="cls-2" d="M2149.56,298.43a116.82,116.82,0,0,1,4.77,22.85l4.76-17.87Z"/><polygon class="cls-1" points="1933.59 356.38 1944.88 387.02 1978.61 433.94 1990.61 441.19 2013.36 441.19 2029.01 433.34 2061.95 380.29 2090.02 328.68 2059.36 346.23 2034.75 332.28 2034.18 289.92 2011.93 268.54 1989.25 281.91 1975.29 324 1949.58 348.45 1932.17 332.66 1933.59 356.38"/><path class="cls-2" d="M1948.88,378.52l5.59,2.81s.23-24.79,7.39-43.12l-12.28,10.24-10.15-9.27C1936.87,358.87,1948.88,378.52,1948.88,378.52Z"/><path class="cls-23" d="M1954.47,381.33l20.84,12L1990,373.5h28.34l15.16,21.83,18.07-12.2,3.77-2.46s1.26-61.23-38.82-79.95a28.5,28.5,0,0,0-23.5-.36C1953.63,317.73,1954.47,381.33,1954.47,381.33Z"/><polygon class="cls-1" points="1989.97 373.5 2004.08 365.03 2018.31 373.5 1989.97 373.5"/><polygon class="cls-2" points="1990.69 441.19 1975.94 398.44 1991.46 377.17 2004.08 369.27 2016.46 377.17 2032.79 399.75 2062.04 380.29 2029.09 433.34 2013.44 441.19 1990.69 441.19"/><path class="cls-2" d="M2049.62,343.16a116.82,116.82,0,0,1,4.77,22.85l4.76-17.87Z"/><polygon class="cls-1" points="201.34 87.84 212.63 118.49 246.35 165.4 258.35 172.65 281.1 172.65 296.75 164.8 329.7 111.76 357.76 60.14 327.1 77.69 302.49 63.74 301.93 21.39 279.68 0 256.99 13.37 243.03 55.46 217.32 79.91 199.91 64.12 201.34 87.84"/><path class="cls-2" d="M216.62,110l5.6,2.81s.22-24.79,7.39-43.13L217.32,79.91l-10.15-9.27C204.62,90.34,216.62,110,216.62,110Z"/><path class="cls-24" d="M222.22,112.8l20.83,12L257.72,105h28.33l15.17,21.84,18.06-12.21,3.77-2.46s1.27-61.22-38.82-79.94a28.43,28.43,0,0,0-23.5-.36C221.38,49.19,222.22,112.8,222.22,112.8Z"/><polygon class="cls-1" points="257.72 104.96 271.83 96.5 286.05 104.96 257.72 104.96"/><polygon class="cls-2" points="258.43 172.65 243.68 129.9 259.2 108.64 271.83 100.73 284.2 108.64 300.53 131.22 329.78 111.76 296.83 164.8 281.18 172.65 258.43 172.65"/><path class="cls-2" d="M317.36,74.62a116.82,116.82,0,0,1,4.77,22.85l4.77-17.86Z"/><polygon class="cls-1" points="285.85 132.79 297.14 163.44 330.86 210.36 342.86 217.61 365.61 217.61 381.26 209.75 414.21 156.71 442.27 105.1 411.61 122.64 387 108.69 386.43 66.34 364.18 44.95 341.5 58.33 327.54 100.42 301.83 124.87 284.42 109.07 285.85 132.79"/><path class="cls-2" d="M301.13,154.94l5.59,2.81s.23-24.79,7.4-43.12l-12.29,10.24-10.15-9.27C289.12,135.29,301.13,154.94,301.13,154.94Z"/><path class="cls-25" d="M306.72,157.75l20.84,12,14.66-19.83h28.34l15.16,21.83,18.07-12.21,3.77-2.46s1.26-61.22-38.82-79.94a28.43,28.43,0,0,0-23.5-.36C305.89,94.15,306.72,157.75,306.72,157.75Z"/><polygon class="cls-1" points="342.22 149.92 356.34 141.45 370.56 149.92 342.22 149.92"/><polygon class="cls-2" points="342.94 217.61 328.19 174.86 343.71 153.59 356.34 145.68 368.71 153.59 385.04 176.17 414.29 156.71 381.34 209.75 365.69 217.61 342.94 217.61"/><path class="cls-2" d="M401.87,119.58a116.82,116.82,0,0,1,4.77,22.85l4.77-17.87Z"/><polygon class="cls-1" points="370.21 177.57 381.5 208.22 415.23 255.13 427.23 262.38 449.98 262.38 465.62 254.53 498.57 201.49 526.63 149.87 495.98 167.42 471.37 153.47 470.8 111.12 448.55 89.73 425.87 103.1 411.91 145.19 386.2 169.64 368.79 153.85 370.21 177.57"/><path class="cls-2" d="M385.5,199.72l5.59,2.81s.23-24.8,7.39-43.13L386.2,169.64l-10.15-9.27C373.49,180.07,385.5,199.72,385.5,199.72Z"/><path class="cls-26" d="M391.09,202.53l20.83,12,14.67-19.84h28.33l15.17,21.84,18.07-12.21,3.76-2.46s1.27-61.22-38.81-79.94a28.45,28.45,0,0,0-23.51-.36C390.25,138.92,391.09,202.53,391.09,202.53Z"/><polygon class="cls-1" points="426.59 194.69 440.7 186.23 454.92 194.69 426.59 194.69"/><polygon class="cls-2" points="427.31 262.38 412.56 219.63 428.08 198.37 440.7 190.46 453.08 198.37 469.41 220.94 498.66 201.49 465.71 254.53 450.06 262.38 427.31 262.38"/><path class="cls-2" d="M486.23,164.35A116.31,116.31,0,0,1,491,187.2l4.76-17.86Z"/><polygon class="cls-1" points="454.54 222.26 465.83 252.91 499.55 299.82 511.55 307.07 534.3 307.07 549.95 299.22 582.9 246.18 610.96 194.56 580.3 212.11 555.7 198.16 555.13 155.81 532.88 134.42 510.2 147.79 496.24 189.88 470.52 214.33 453.11 198.54 454.54 222.26"/><path class="cls-2" d="M469.83,244.41l5.59,2.81s.22-24.79,7.39-43.13l-12.29,10.24-10.14-9.27C457.82,224.76,469.83,244.41,469.83,244.41Z"/><path class="cls-27" d="M475.42,247.22l20.83,12,14.67-19.84h28.33l15.17,21.84L572.49,249l3.76-2.46s1.27-61.22-38.81-79.94a28.45,28.45,0,0,0-23.51-.36C474.58,183.61,475.42,247.22,475.42,247.22Z"/><polygon class="cls-1" points="510.92 239.38 525.03 230.92 539.25 239.38 510.92 239.38"/><polygon class="cls-2" points="511.64 307.07 496.89 264.32 512.41 243.06 525.03 235.15 537.41 243.06 553.74 265.63 582.99 246.18 550.04 299.22 534.39 307.07 511.64 307.07"/><path class="cls-2" d="M570.56,209a116.31,116.31,0,0,1,4.78,22.85L580.1,214Z"/><polygon class="cls-1" points="538.91 267.04 550.2 297.68 583.92 344.6 595.92 351.85 618.67 351.85 634.32 344 667.27 290.95 695.33 239.34 664.67 256.89 640.06 242.94 639.5 200.58 617.25 179.2 594.56 192.57 580.6 234.66 554.89 259.11 537.48 243.32 538.91 267.04"/><path class="cls-2" d="M554.19,289.18l5.6,2.81s.22-24.79,7.39-43.12l-12.29,10.24-10.15-9.27C542.19,269.53,554.19,289.18,554.19,289.18Z"/><path class="cls-28" d="M559.79,292l20.83,12,14.67-19.83h28.33L638.79,306l18.06-12.2,3.77-2.46s1.27-61.23-38.82-79.95a28.5,28.5,0,0,0-23.5-.36C559,228.39,559.79,292,559.79,292Z"/><polygon class="cls-1" points="595.28 284.16 609.4 275.69 623.62 284.16 595.28 284.16"/><polygon class="cls-2" points="596 351.85 581.25 309.1 596.77 287.83 609.4 279.93 621.77 287.83 638.1 310.41 667.35 290.95 634.4 344 618.75 351.85 596 351.85"/><path class="cls-2" d="M654.93,253.82a116.82,116.82,0,0,1,4.77,22.85l4.77-17.87Z"/><polygon class="cls-1" points="623.24 311.61 634.53 342.26 668.25 389.18 680.25 396.43 703 396.43 718.65 388.57 751.6 335.53 779.66 283.91 749 301.46 724.39 287.51 723.83 245.16 701.58 223.77 678.89 237.15 664.93 279.23 639.22 303.68 621.81 287.89 623.24 311.61"/><path class="cls-2" d="M638.53,333.76l5.59,2.81s.22-24.79,7.39-43.13l-12.29,10.24-10.15-9.26C626.52,314.11,638.53,333.76,638.53,333.76Z"/><path class="cls-29" d="M644.12,336.57l20.83,12,14.67-19.84H708l15.17,21.84,18.06-12.21L745,335.9s1.27-61.22-38.82-79.94a28.43,28.43,0,0,0-23.5-.36C643.28,273,644.12,336.57,644.12,336.57Z"/><polygon class="cls-1" points="679.62 328.73 693.73 320.27 707.95 328.73 679.62 328.73"/><polygon class="cls-2" points="680.34 396.43 665.59 353.68 681.1 332.41 693.73 324.5 706.1 332.41 722.43 354.99 751.68 335.53 718.73 388.57 703.09 396.43 680.34 396.43"/><path class="cls-2" d="M739.26,298.39A116.82,116.82,0,0,1,744,321.24l4.77-17.86Z"/><polygon class="cls-1" points="101.37 132.59 112.66 163.23 146.38 210.15 158.38 217.4 181.13 217.4 196.78 209.54 229.73 156.5 257.79 104.89 227.13 122.44 202.52 108.49 201.95 66.13 179.7 44.75 157.02 58.12 143.06 100.21 117.35 124.66 99.94 108.87 101.37 132.59"/><path class="cls-2" d="M116.65,154.73l5.59,2.81s.23-24.79,7.4-43.12l-12.29,10.24-10.15-9.27C104.65,135.08,116.65,154.73,116.65,154.73Z"/><path class="cls-30" d="M122.24,157.54l20.84,12,14.66-19.83h28.34l15.16,21.83,18.07-12.2,3.77-2.46s1.26-61.23-38.82-79.95a28.5,28.5,0,0,0-23.5-.36C121.41,93.94,122.24,157.54,122.24,157.54Z"/><polygon class="cls-1" points="157.75 149.71 171.86 141.24 186.08 149.71 157.75 149.71"/><polygon class="cls-2" points="158.46 217.4 143.71 174.65 159.23 153.38 171.86 145.48 184.23 153.38 200.56 175.96 229.81 156.5 196.86 209.54 181.21 217.4 158.46 217.4"/><path class="cls-2" d="M217.39,119.37a116.82,116.82,0,0,1,4.77,22.85l4.77-17.87Z"/><polygon class="cls-1" points="185.88 177.54 197.16 208.19 230.89 255.1 242.89 262.35 265.64 262.35 281.29 254.5 314.24 201.46 342.3 149.84 311.64 167.39 287.03 153.44 286.46 111.09 264.21 89.7 241.53 103.07 227.57 145.16 201.86 169.61 184.45 153.82 185.88 177.54"/><path class="cls-2" d="M201.16,199.69l5.59,2.81s.23-24.8,7.4-43.13l-12.29,10.24-10.15-9.27C189.15,180,201.16,199.69,201.16,199.69Z"/><path class="cls-31" d="M206.75,202.5l20.84,12,14.66-19.84h28.34l15.16,21.84,18.07-12.21,3.77-2.46s1.26-61.22-38.82-79.94a28.43,28.43,0,0,0-23.5-.36C205.91,138.89,206.75,202.5,206.75,202.5Z"/><polygon class="cls-1" points="242.25 194.66 256.37 186.2 270.59 194.66 242.25 194.66"/><polygon class="cls-2" points="242.97 262.35 228.22 219.6 243.74 198.34 256.37 190.43 268.74 198.34 285.07 220.91 314.32 201.46 281.37 254.5 265.72 262.35 242.97 262.35"/><path class="cls-2" d="M301.9,164.32a116.82,116.82,0,0,1,4.77,22.85l4.77-17.86Z"/><polygon class="cls-1" points="1.43 177.32 12.72 207.96 46.44 254.88 58.44 262.13 81.19 262.13 96.84 254.28 129.79 201.23 157.85 149.62 127.19 167.17 102.58 153.22 102.01 110.86 79.76 89.48 57.08 102.85 43.12 144.94 17.41 169.39 0 153.6 1.43 177.32"/><path class="cls-2" d="M16.71,199.46l5.59,2.81s.23-24.79,7.4-43.12L17.41,169.39,7.26,160.12C4.71,179.81,16.71,199.46,16.71,199.46Z"/><path class="cls-32" d="M22.3,202.27l20.84,12L57.8,194.44H86.14l15.16,21.83,18.07-12.2,3.77-2.46s1.26-61.23-38.82-80a28.5,28.5,0,0,0-23.5-.36C21.47,138.67,22.3,202.27,22.3,202.27Z"/><polygon class="cls-1" points="57.8 194.44 71.92 185.97 86.14 194.44 57.8 194.44"/><polygon class="cls-2" points="58.52 262.13 43.77 219.38 59.29 198.11 71.92 190.21 84.29 198.11 100.62 220.69 129.87 201.23 96.92 254.28 81.27 262.13 58.52 262.13"/><path class="cls-2" d="M117.45,164.1A116.82,116.82,0,0,1,122.22,187L127,169.08Z"/><polygon class="cls-1" points="85.94 222.27 97.22 252.92 130.95 299.83 142.95 307.08 165.7 307.08 181.35 299.23 214.3 246.19 242.36 194.57 211.7 212.12 187.09 198.17 186.52 155.82 164.27 134.43 141.59 147.81 127.63 189.89 101.92 214.34 84.51 198.55 85.94 222.27"/><path class="cls-2" d="M101.22,244.42l5.59,2.81s.23-24.79,7.4-43.13l-12.29,10.24-10.15-9.26C89.21,224.77,101.22,244.42,101.22,244.42Z"/><path class="cls-33" d="M106.81,247.23l20.84,12,14.66-19.84h28.34l15.16,21.84L203.88,249l3.77-2.46s1.26-61.22-38.82-79.94a28.43,28.43,0,0,0-23.5-.36C106,183.62,106.81,247.23,106.81,247.23Z"/><polygon class="cls-1" points="142.31 239.39 156.43 230.93 170.65 239.39 142.31 239.39"/><polygon class="cls-2" points="143.03 307.08 128.28 264.33 143.8 243.07 156.43 235.16 168.8 243.07 185.13 265.65 214.38 246.19 181.43 299.23 165.78 307.08 143.03 307.08"/><path class="cls-2" d="M202,209.05a116.82,116.82,0,0,1,4.77,22.85L211.5,214Z"/><polygon class="cls-1" points="270.24 222.32 281.53 252.96 315.25 299.88 327.25 307.13 350 307.13 365.65 299.27 398.6 246.23 426.66 194.62 396 212.16 371.4 198.22 370.83 155.86 348.58 134.48 325.9 147.85 311.94 189.94 286.23 214.39 268.81 198.6 270.24 222.32"/><path class="cls-2" d="M285.53,244.46l5.59,2.81s.23-24.79,7.39-43.12l-12.29,10.24-10.14-9.27C273.52,224.81,285.53,244.46,285.53,244.46Z"/><path class="cls-34" d="M291.12,247.27l20.83,12,14.67-19.83H355l15.17,21.83,18.07-12.2L392,246.6s1.27-61.22-38.81-79.94a28.53,28.53,0,0,0-23.51-.36C290.28,183.67,291.12,247.27,291.12,247.27Z"/><polygon class="cls-1" points="326.62 239.44 340.73 230.97 354.95 239.44 326.62 239.44"/><polygon class="cls-2" points="327.34 307.13 312.59 264.38 328.11 243.11 340.73 235.21 353.11 243.11 369.44 265.69 398.69 246.23 365.74 299.27 350.09 307.13 327.34 307.13"/><path class="cls-2" d="M386.26,209.1A116.31,116.31,0,0,1,391,232l4.76-17.87Z"/><polygon class="cls-1" points="170.3 267.05 181.59 297.69 215.32 344.61 227.32 351.86 250.06 351.86 265.71 344.01 298.66 290.96 326.73 239.35 296.07 256.9 271.46 242.95 270.89 200.59 248.64 179.21 225.96 192.58 212 234.67 186.28 259.12 168.88 243.33 170.3 267.05"/><path class="cls-2" d="M185.59,289.19l5.59,2.81s.23-24.79,7.39-43.12l-12.29,10.24-10.14-9.27C173.58,269.54,185.59,289.19,185.59,289.19Z"/><path class="cls-35" d="M191.18,292,212,304l14.67-19.83H255L270.18,306l18.07-12.2,3.76-2.46s1.27-61.23-38.81-79.95a28.53,28.53,0,0,0-23.51-.36C190.34,228.4,191.18,292,191.18,292Z"/><polygon class="cls-1" points="226.68 284.17 240.79 275.7 255.01 284.17 226.68 284.17"/><polygon class="cls-2" points="227.4 351.86 212.65 309.11 228.17 287.84 240.79 279.94 253.17 287.84 269.5 310.42 298.75 290.96 265.8 344.01 250.15 351.86 227.4 351.86"/><path class="cls-2" d="M286.32,253.83a116.31,116.31,0,0,1,4.78,22.85l4.76-17.87Z"/><polygon class="cls-1" points="354.57 267.01 365.86 297.65 399.58 344.57 411.58 351.82 434.33 351.82 449.98 343.96 482.93 290.92 510.99 239.31 480.33 256.86 455.73 242.91 455.16 200.55 432.91 179.17 410.23 192.54 396.26 234.63 370.55 259.08 353.14 243.29 354.57 267.01"/><path class="cls-2" d="M369.86,289.15l5.59,2.81s.22-24.79,7.39-43.12l-12.29,10.24-10.15-9.27C357.85,269.5,369.86,289.15,369.86,289.15Z"/><path class="cls-36" d="M375.45,292l20.83,12L411,284.13h28.33L454.45,306l18.06-12.2,3.77-2.46s1.27-61.23-38.81-80A28.53,28.53,0,0,0,414,211C374.61,228.36,375.45,292,375.45,292Z"/><polygon class="cls-1" points="410.95 284.13 425.06 275.66 439.28 284.13 410.95 284.13"/><polygon class="cls-2" points="411.67 351.82 396.92 309.07 412.44 287.8 425.06 279.9 437.44 287.8 453.76 310.38 483.01 290.92 450.06 343.96 434.42 351.82 411.67 351.82"/><path class="cls-2" d="M470.59,253.79a117.21,117.21,0,0,1,4.78,22.85l4.76-17.87Z"/><polygon class="cls-1" points="254.63 311.74 265.92 342.38 299.64 389.3 311.64 396.55 334.39 396.55 350.04 388.7 382.99 335.65 411.05 284.04 380.39 301.59 355.79 287.64 355.22 245.29 332.97 223.9 310.29 237.27 296.32 279.36 270.61 303.81 253.2 288.02 254.63 311.74"/><path class="cls-2" d="M269.92,333.89l5.59,2.8s.22-24.79,7.39-43.12l-12.29,10.24-10.15-9.27C257.91,314.24,269.92,333.89,269.92,333.89Z"/><path class="cls-37" d="M275.51,336.69l20.83,12L311,328.86h28.33l15.17,21.83,18.07-12.2,3.76-2.46s1.27-61.23-38.81-79.95a28.49,28.49,0,0,0-23.51-.35C274.67,273.09,275.51,336.69,275.51,336.69Z"/><polygon class="cls-1" points="311.01 328.86 325.12 320.39 339.34 328.86 311.01 328.86"/><polygon class="cls-2" points="311.73 396.55 296.98 353.8 312.5 332.53 325.12 324.63 337.5 332.53 353.82 355.11 383.07 335.65 350.13 388.7 334.48 396.55 311.73 396.55"/><path class="cls-2" d="M370.65,298.52a116.31,116.31,0,0,1,4.78,22.85l4.76-17.86Z"/><polygon class="cls-1" points="438.94 311.78 450.23 342.43 483.95 389.35 495.95 396.6 518.7 396.6 534.35 388.74 567.3 335.7 595.36 284.09 564.7 301.63 540.09 287.68 539.52 245.33 517.27 223.94 494.59 237.32 480.63 279.4 454.92 303.86 437.51 288.06 438.94 311.78"/><path class="cls-2" d="M454.22,333.93l5.59,2.81s.23-24.79,7.4-43.13l-12.29,10.25-10.15-9.27C442.21,314.28,454.22,333.93,454.22,333.93Z"/><path class="cls-38" d="M459.81,336.74l20.84,12,14.66-19.83h28.34l15.16,21.83,18.07-12.21,3.77-2.46s1.26-61.22-38.82-79.94a28.43,28.43,0,0,0-23.5-.36C459,273.14,459.81,336.74,459.81,336.74Z"/><polygon class="cls-1" points="495.31 328.9 509.43 320.44 523.65 328.9 495.31 328.9"/><polygon class="cls-2" points="496.03 396.6 481.28 353.85 496.8 332.58 509.43 324.67 521.8 332.58 538.13 355.16 567.38 335.7 534.43 388.74 518.78 396.6 496.03 396.6"/><path class="cls-2" d="M555,298.57a116.82,116.82,0,0,1,4.77,22.85l4.77-17.87Z"/><polygon class="cls-1" points="339 356.52 350.29 387.16 384.01 434.08 396.01 441.33 418.76 441.33 434.41 433.47 467.36 380.43 495.42 328.82 464.76 346.36 440.15 332.41 439.58 290.06 417.33 268.67 394.65 282.05 380.69 324.14 354.98 348.59 337.57 332.8 339 356.52"/><path class="cls-2" d="M354.28,378.66l5.59,2.81s.23-24.79,7.4-43.12L355,348.59l-10.15-9.27C342.27,359,354.28,378.66,354.28,378.66Z"/><path class="cls-39" d="M359.87,381.47l20.84,12,14.66-19.83h28.34l15.16,21.83,18.07-12.21,3.77-2.46s1.26-61.22-38.82-79.94a28.43,28.43,0,0,0-23.5-.36C359,317.87,359.87,381.47,359.87,381.47Z"/><polygon class="cls-1" points="395.37 373.64 409.49 365.17 423.71 373.64 395.37 373.64"/><polygon class="cls-2" points="396.09 441.33 381.34 398.58 396.86 377.31 409.49 369.4 421.86 377.31 438.19 399.89 467.44 380.43 434.49 433.47 418.84 441.33 396.09 441.33"/><path class="cls-2" d="M455,343.3a116.82,116.82,0,0,1,4.77,22.85l4.77-17.87Z"/><polygon class="cls-1" points="523.27 356.36 534.56 387 568.28 433.92 580.28 441.17 603.03 441.17 618.68 433.32 651.63 380.27 679.69 328.66 649.03 346.21 624.42 332.26 623.86 289.9 601.61 268.52 578.92 281.89 564.96 323.98 539.25 348.43 521.84 332.64 523.27 356.36"/><path class="cls-2" d="M538.55,378.5l5.6,2.81s.22-24.79,7.39-43.12l-12.29,10.24-10.15-9.27C526.55,358.85,538.55,378.5,538.55,378.5Z"/><path class="cls-40" d="M544.15,381.31l20.83,12,14.67-19.83H608l15.17,21.83,18.06-12.2,3.77-2.46s1.27-61.23-38.82-79.95a28.5,28.5,0,0,0-23.5-.36C543.31,317.71,544.15,381.31,544.15,381.31Z"/><polygon class="cls-1" points="579.65 373.48 593.76 365.01 607.98 373.48 579.65 373.48"/><polygon class="cls-2" points="580.37 441.17 565.62 398.42 581.13 377.15 593.76 369.25 606.13 377.15 622.46 399.73 651.71 380.27 618.76 433.32 603.12 441.17 580.37 441.17"/><path class="cls-2" d="M639.29,343.14A116.82,116.82,0,0,1,644.06,366l4.77-17.87Z"/><polygon class="cls-1" points="423.33 401.09 434.62 431.73 468.34 478.65 480.34 485.9 503.09 485.9 518.74 478.05 551.69 425 579.75 373.39 549.09 390.94 524.48 376.99 523.92 334.64 501.67 313.25 478.98 326.62 465.02 368.71 439.31 393.16 421.9 377.37 423.33 401.09"/><path class="cls-2" d="M438.61,423.24l5.6,2.8s.22-24.79,7.39-43.12l-12.29,10.24-10.15-9.27C426.61,403.59,438.61,423.24,438.61,423.24Z"/><path class="cls-41" d="M444.21,426,465,438l14.67-19.83H508L523.21,440l18.06-12.2,3.77-2.46s1.27-61.23-38.82-79.95a28.47,28.47,0,0,0-23.5-.35C443.37,362.44,444.21,426,444.21,426Z"/><polygon class="cls-1" points="479.71 418.21 493.82 409.75 508.04 418.21 479.71 418.21"/><polygon class="cls-2" points="480.43 485.9 465.68 443.15 481.19 421.88 493.82 413.98 506.19 421.88 522.52 444.46 551.77 425 518.82 478.05 503.18 485.9 480.43 485.9"/><path class="cls-2" d="M539.35,387.87a116.82,116.82,0,0,1,4.77,22.85l4.77-17.86Z"/><polygon class="cls-1" points="707.59 356.19 718.88 386.84 752.61 433.76 764.61 441.01 787.36 441.01 803 433.15 835.96 380.11 864.02 328.5 833.36 346.04 808.75 332.09 808.18 289.74 785.93 268.35 763.25 281.73 749.29 323.81 723.58 348.27 706.17 332.47 707.59 356.19"/><path class="cls-2" d="M722.88,378.34l5.59,2.81s.23-24.79,7.39-43.13l-12.28,10.25L713.43,339C710.87,358.69,722.88,378.34,722.88,378.34Z"/><path class="cls-42" d="M728.47,381.15l20.83,12L764,373.32H792.3l15.17,21.83,18.07-12.21,3.76-2.46s1.27-61.22-38.81-79.94a28.45,28.45,0,0,0-23.51-.36C727.63,317.55,728.47,381.15,728.47,381.15Z"/><polygon class="cls-1" points="763.97 373.31 778.08 364.85 792.3 373.31 763.97 373.31"/><polygon class="cls-2" points="764.69 441.01 749.94 398.26 765.46 376.99 778.08 369.08 790.46 376.99 806.79 399.57 836.04 380.11 803.09 433.15 787.44 441.01 764.69 441.01"/><path class="cls-2" d="M823.61,343a116.31,116.31,0,0,1,4.78,22.85L833.15,348Z"/><polygon class="cls-1" points="607.62 400.94 618.91 431.58 652.64 478.5 664.64 485.75 687.38 485.75 703.03 477.9 735.98 424.86 764.04 373.24 733.39 390.79 708.78 376.84 708.21 334.49 685.96 313.1 663.28 326.47 649.32 368.56 623.61 393.01 606.2 377.22 607.62 400.94"/><path class="cls-2" d="M622.91,423.09l5.59,2.8s.23-24.79,7.39-43.12L623.6,393l-10.14-9.27C610.9,403.44,622.91,423.09,622.91,423.09Z"/><path class="cls-43" d="M628.5,425.89l20.83,12L664,418.06h28.33l15.17,21.83,18.07-12.2,3.76-2.46s1.27-61.22-38.81-79.94a28.45,28.45,0,0,0-23.51-.36C627.66,362.29,628.5,425.89,628.5,425.89Z"/><polygon class="cls-1" points="664 418.06 678.11 409.6 692.33 418.06 664 418.06"/><polygon class="cls-2" points="664.72 485.75 649.97 443 665.49 421.74 678.11 413.83 690.49 421.74 706.82 444.31 736.07 424.86 703.12 477.9 687.47 485.75 664.72 485.75"/><path class="cls-2" d="M723.64,387.72a116.31,116.31,0,0,1,4.78,22.85l4.76-17.86Z"/><polygon class="cls-1" points="507.68 445.67 518.97 476.32 552.7 523.24 564.7 530.49 587.45 530.49 603.09 522.63 636.04 469.59 664.11 417.97 633.45 435.52 608.84 421.57 608.27 379.22 586.02 357.83 563.34 371.2 549.38 413.29 523.66 437.74 506.25 421.95 507.68 445.67"/><path class="cls-2" d="M523,467.82l5.59,2.81s.23-24.79,7.39-43.13l-12.28,10.24-10.15-9.26C511,448.17,523,467.82,523,467.82Z"/><path class="cls-44" d="M528.56,470.63l20.83,12,14.67-19.84h28.33l15.17,21.84,18.07-12.21,3.76-2.46s1.27-61.22-38.81-79.94a28.45,28.45,0,0,0-23.51-.36C527.72,407,528.56,470.63,528.56,470.63Z"/><polygon class="cls-1" points="564.06 462.79 578.17 454.33 592.39 462.79 564.06 462.79"/><polygon class="cls-2" points="564.78 530.49 550.03 487.74 565.55 466.47 578.17 458.56 590.55 466.47 606.88 489.05 636.13 469.59 603.18 522.63 587.53 530.49 564.78 530.49"/><path class="cls-2" d="M623.7,432.45a116.31,116.31,0,0,1,4.78,22.85l4.76-17.86Z"/><path class="cls-45" d="M1693.51,254h-7.83v-7.84a3.59,3.59,0,0,0-7.17,0V254h-7.83a3.58,3.58,0,0,0,0,7.16h7.83V269a3.59,3.59,0,0,0,7.17,0v-7.84h7.83a3.58,3.58,0,1,0,0-7.16Z"/><rect class="cls-45" x="917.38" y="269.18" width="34" height="4.84" rx="2.42" ry="2.42"/><rect class="cls-45" x="917.38" y="279.34" width="34" height="4.84" rx="2.42" ry="2.42"/></g></svg>