<svg xmlns="http://www.w3.org/2000/svg" xmlns:xlink="http://www.w3.org/1999/xlink" viewBox="0 0 1156.98 351.86"><defs><style>.cls-1{fill:#62abbc;}.cls-2{fill:#3d838e;opacity:0.51;}.cls-3{fill:url(#linear-gradient);}.cls-4{fill:url(#linear-gradient-2);}.cls-5{fill:url(#linear-gradient-3);}.cls-6{fill:url(#linear-gradient-4);}.cls-7{fill:url(#linear-gradient-5);}.cls-8{fill:url(#linear-gradient-6);}.cls-9{fill:url(#linear-gradient-7);}.cls-10{fill:url(#linear-gradient-8);}.cls-11{fill:url(#linear-gradient-9);}.cls-12{fill:url(#linear-gradient-10);}.cls-13{fill:url(#linear-gradient-11);}.cls-14{fill:url(#linear-gradient-12);}.cls-15{fill:url(#linear-gradient-13);}.cls-16{fill:url(#linear-gradient-14);}.cls-17{fill:url(#linear-gradient-15);}.cls-18{fill:url(#linear-gradient-16);}.cls-19{fill:url(#linear-gradient-17);}.cls-20{fill:url(#linear-gradient-18);}.cls-21{fill:#f05023;}</style><linearGradient id="linear-gradient" x1="222.21" y1="78.13" x2="323.05" y2="78.13" gradientUnits="userSpaceOnUse"><stop offset="0" stop-color="#fbb040"/><stop offset="0.39" stop-color="#f9ae41"/><stop offset="0.59" stop-color="#f1a845"/><stop offset="0.74" stop-color="#e49e4b"/><stop offset="0.87" stop-color="#d18f55"/><stop offset="0.99" stop-color="#b97c60"/><stop offset="1" stop-color="#b67a62"/></linearGradient><linearGradient id="linear-gradient-2" x1="306.72" y1="123.08" x2="407.56" y2="123.08" xlink:href="#linear-gradient"/><linearGradient id="linear-gradient-3" x1="391.09" y1="167.86" x2="491.93" y2="167.86" xlink:href="#linear-gradient"/><linearGradient id="linear-gradient-4" x1="122.24" y1="122.87" x2="223.08" y2="122.87" xlink:href="#linear-gradient"/><linearGradient id="linear-gradient-5" x1="206.75" y1="167.83" x2="307.59" y2="167.83" xlink:href="#linear-gradient"/><linearGradient id="linear-gradient-6" x1="22.3" y1="167.61" x2="123.14" y2="167.61" xlink:href="#linear-gradient"/><linearGradient id="linear-gradient-7" x1="106.81" y1="212.56" x2="207.65" y2="212.56" xlink:href="#linear-gradient"/><linearGradient id="linear-gradient-8" x1="291.12" y1="212.6" x2="391.96" y2="212.6" xlink:href="#linear-gradient"/><linearGradient id="linear-gradient-9" x1="191.18" y1="257.34" x2="292.02" y2="257.34" xlink:href="#linear-gradient"/><linearGradient id="linear-gradient-10" x1="852.55" y1="78.13" x2="953.39" y2="78.13" xlink:href="#linear-gradient"/><linearGradient id="linear-gradient-11" x1="937.06" y1="123.08" x2="1037.9" y2="123.08" xlink:href="#linear-gradient"/><linearGradient id="linear-gradient-12" x1="1021.43" y1="167.86" x2="1122.27" y2="167.86" xlink:href="#linear-gradient"/><linearGradient id="linear-gradient-13" x1="752.58" y1="122.87" x2="853.42" y2="122.87" xlink:href="#linear-gradient"/><linearGradient id="linear-gradient-14" x1="837.09" y1="167.83" x2="937.93" y2="167.83" xlink:href="#linear-gradient"/><linearGradient id="linear-gradient-15" x1="652.64" y1="167.61" x2="753.48" y2="167.61" xlink:href="#linear-gradient"/><linearGradient id="linear-gradient-16" x1="737.15" y1="212.56" x2="837.99" y2="212.56" xlink:href="#linear-gradient"/><linearGradient id="linear-gradient-17" x1="921.46" y1="212.6" x2="1022.3" y2="212.6" xlink:href="#linear-gradient"/><linearGradient id="linear-gradient-18" x1="821.52" y1="257.34" x2="922.36" y2="257.34" xlink:href="#linear-gradient"/></defs><title>V2_R2</title><g id="Layer_2" data-name="Layer 2"><polygon class="cls-1" points="201.34 87.84 212.63 118.49 246.35 165.4 258.35 172.65 281.1 172.65 296.75 164.8 329.7 111.76 357.76 60.14 327.1 77.69 302.49 63.74 301.93 21.39 279.68 0 256.99 13.37 243.03 55.46 217.32 79.91 199.91 64.12 201.34 87.84"/><path class="cls-2" d="M216.62,110l5.6,2.81s.22-24.79,7.39-43.13L217.32,79.91l-10.15-9.27C204.62,90.34,216.62,110,216.62,110Z"/><path class="cls-3" d="M222.22,112.8l20.83,12L257.72,105h28.33l15.17,21.84,18.06-12.21,3.77-2.46s1.27-61.22-38.82-79.94a28.43,28.43,0,0,0-23.5-.36C221.38,49.19,222.22,112.8,222.22,112.8Z"/><polygon class="cls-1" points="257.72 104.96 271.83 96.5 286.05 104.96 257.72 104.96"/><polygon class="cls-2" points="258.43 172.65 243.68 129.9 259.2 108.64 271.83 100.73 284.2 108.64 300.53 131.22 329.78 111.76 296.83 164.8 281.18 172.65 258.43 172.65"/><path class="cls-2" d="M317.36,74.62a116.82,116.82,0,0,1,4.77,22.85l4.77-17.86Z"/><polygon class="cls-1" points="285.85 132.79 297.14 163.44 330.86 210.36 342.86 217.61 365.61 217.61 381.26 209.75 414.21 156.71 442.27 105.1 411.61 122.64 387 108.69 386.43 66.34 364.18 44.95 341.5 58.33 327.54 100.42 301.83 124.87 284.42 109.07 285.85 132.79"/><path class="cls-2" d="M301.13,154.94l5.59,2.81s.23-24.79,7.4-43.12l-12.29,10.24-10.15-9.27C289.12,135.29,301.13,154.94,301.13,154.94Z"/><path class="cls-4" d="M306.72,157.75l20.84,12,14.66-19.83h28.34l15.16,21.83,18.07-12.21,3.77-2.46s1.26-61.22-38.82-79.94a28.43,28.43,0,0,0-23.5-.36C305.89,94.15,306.72,157.75,306.72,157.75Z"/><polygon class="cls-1" points="342.22 149.92 356.34 141.45 370.56 149.92 342.22 149.92"/><polygon class="cls-2" points="342.94 217.61 328.19 174.86 343.71 153.59 356.34 145.68 368.71 153.59 385.04 176.17 414.29 156.71 381.34 209.75 365.69 217.61 342.94 217.61"/><path class="cls-2" d="M401.87,119.58a116.82,116.82,0,0,1,4.77,22.85l4.77-17.87Z"/><polygon class="cls-1" points="370.21 177.57 381.5 208.22 415.23 255.13 427.23 262.38 449.98 262.38 465.62 254.53 498.57 201.49 526.63 149.87 495.98 167.42 471.37 153.47 470.8 111.12 448.55 89.73 425.87 103.1 411.91 145.19 386.2 169.64 368.79 153.85 370.21 177.57"/><path class="cls-2" d="M385.5,199.72l5.59,2.81s.23-24.8,7.39-43.13L386.2,169.64l-10.15-9.27C373.49,180.07,385.5,199.72,385.5,199.72Z"/><path class="cls-5" d="M391.09,202.53l20.83,12,14.67-19.84h28.33l15.17,21.84,18.07-12.21,3.76-2.46s1.27-61.22-38.81-79.94a28.45,28.45,0,0,0-23.51-.36C390.25,138.92,391.09,202.53,391.09,202.53Z"/><polygon class="cls-1" points="426.59 194.69 440.7 186.23 454.92 194.69 426.59 194.69"/><polygon class="cls-2" points="427.31 262.38 412.56 219.63 428.08 198.37 440.7 190.46 453.08 198.37 469.41 220.94 498.66 201.49 465.71 254.53 450.06 262.38 427.31 262.38"/><path class="cls-2" d="M486.23,164.35A116.31,116.31,0,0,1,491,187.2l4.76-17.86Z"/><polygon class="cls-1" points="101.37 132.59 112.66 163.23 146.38 210.15 158.38 217.4 181.13 217.4 196.78 209.54 229.73 156.5 257.79 104.89 227.13 122.44 202.52 108.49 201.95 66.13 179.7 44.75 157.02 58.12 143.06 100.21 117.35 124.66 99.94 108.87 101.37 132.59"/><path class="cls-2" d="M116.65,154.73l5.59,2.81s.23-24.79,7.4-43.12l-12.29,10.24-10.15-9.27C104.65,135.08,116.65,154.73,116.65,154.73Z"/><path class="cls-6" d="M122.24,157.54l20.84,12,14.66-19.83h28.34l15.16,21.83,18.07-12.2,3.77-2.46s1.26-61.23-38.82-79.95a28.5,28.5,0,0,0-23.5-.36C121.41,93.94,122.24,157.54,122.24,157.54Z"/><polygon class="cls-1" points="157.75 149.71 171.86 141.24 186.08 149.71 157.75 149.71"/><polygon class="cls-2" points="158.46 217.4 143.71 174.65 159.23 153.38 171.86 145.48 184.23 153.38 200.56 175.96 229.81 156.5 196.86 209.54 181.21 217.4 158.46 217.4"/><path class="cls-2" d="M217.39,119.37a116.82,116.82,0,0,1,4.77,22.85l4.77-17.87Z"/><polygon class="cls-1" points="185.88 177.54 197.16 208.19 230.89 255.1 242.89 262.35 265.64 262.35 281.29 254.5 314.24 201.46 342.3 149.84 311.64 167.39 287.03 153.44 286.46 111.09 264.21 89.7 241.53 103.07 227.57 145.16 201.86 169.61 184.45 153.82 185.88 177.54"/><path class="cls-2" d="M201.16,199.69l5.59,2.81s.23-24.8,7.4-43.13l-12.29,10.24-10.15-9.27C189.15,180,201.16,199.69,201.16,199.69Z"/><path class="cls-7" d="M206.75,202.5l20.84,12,14.66-19.84h28.34l15.16,21.84,18.07-12.21,3.77-2.46s1.26-61.22-38.82-79.94a28.43,28.43,0,0,0-23.5-.36C205.91,138.89,206.75,202.5,206.75,202.5Z"/><polygon class="cls-1" points="242.25 194.66 256.37 186.2 270.59 194.66 242.25 194.66"/><polygon class="cls-2" points="242.97 262.35 228.22 219.6 243.74 198.34 256.37 190.43 268.74 198.34 285.07 220.91 314.32 201.46 281.37 254.5 265.72 262.35 242.97 262.35"/><path class="cls-2" d="M301.9,164.32a116.82,116.82,0,0,1,4.77,22.85l4.77-17.86Z"/><polygon class="cls-1" points="1.43 177.32 12.72 207.96 46.44 254.88 58.44 262.13 81.19 262.13 96.84 254.28 129.79 201.23 157.85 149.62 127.19 167.17 102.58 153.22 102.01 110.86 79.76 89.48 57.08 102.85 43.12 144.94 17.41 169.39 0 153.6 1.43 177.32"/><path class="cls-2" d="M16.71,199.46l5.59,2.81s.23-24.79,7.4-43.12L17.41,169.39,7.26,160.12C4.71,179.81,16.71,199.46,16.71,199.46Z"/><path class="cls-8" d="M22.3,202.27l20.84,12L57.8,194.44H86.14l15.16,21.83,18.07-12.2,3.77-2.46s1.26-61.23-38.82-80a28.5,28.5,0,0,0-23.5-.36C21.47,138.67,22.3,202.27,22.3,202.27Z"/><polygon class="cls-1" points="57.8 194.44 71.92 185.97 86.14 194.44 57.8 194.44"/><polygon class="cls-2" points="58.52 262.13 43.77 219.38 59.29 198.11 71.92 190.21 84.29 198.11 100.62 220.69 129.87 201.23 96.92 254.28 81.27 262.13 58.52 262.13"/><path class="cls-2" d="M117.45,164.1A116.82,116.82,0,0,1,122.22,187L127,169.08Z"/><polygon class="cls-1" points="85.94 222.27 97.22 252.92 130.95 299.83 142.95 307.08 165.7 307.08 181.35 299.23 214.3 246.19 242.36 194.57 211.7 212.12 187.09 198.17 186.52 155.82 164.27 134.43 141.59 147.81 127.63 189.89 101.92 214.34 84.51 198.55 85.94 222.27"/><path class="cls-2" d="M101.22,244.42l5.59,2.81s.23-24.79,7.4-43.13l-12.29,10.24-10.15-9.26C89.21,224.77,101.22,244.42,101.22,244.42Z"/><path class="cls-9" d="M106.81,247.23l20.84,12,14.66-19.84h28.34l15.16,21.84L203.88,249l3.77-2.46s1.26-61.22-38.82-79.94a28.43,28.43,0,0,0-23.5-.36C106,183.62,106.81,247.23,106.81,247.23Z"/><polygon class="cls-1" points="142.31 239.39 156.43 230.93 170.65 239.39 142.31 239.39"/><polygon class="cls-2" points="143.03 307.08 128.28 264.33 143.8 243.07 156.43 235.16 168.8 243.07 185.13 265.65 214.38 246.19 181.43 299.23 165.78 307.08 143.03 307.08"/><path class="cls-2" d="M202,209.05a116.82,116.82,0,0,1,4.77,22.85L211.5,214Z"/><polygon class="cls-1" points="270.24 222.32 281.53 252.96 315.25 299.88 327.25 307.13 350 307.13 365.65 299.27 398.6 246.23 426.66 194.62 396 212.16 371.4 198.22 370.83 155.86 348.58 134.48 325.9 147.85 311.94 189.94 286.23 214.39 268.81 198.6 270.24 222.32"/><path class="cls-2" d="M285.53,244.46l5.59,2.81s.23-24.79,7.39-43.12l-12.29,10.24-10.14-9.27C273.52,224.81,285.53,244.46,285.53,244.46Z"/><path class="cls-10" d="M291.12,247.27l20.83,12,14.67-19.83H355l15.17,21.83,18.07-12.2L392,246.6s1.27-61.22-38.81-79.94a28.53,28.53,0,0,0-23.51-.36C290.28,183.67,291.12,247.27,291.12,247.27Z"/><polygon class="cls-1" points="326.62 239.44 340.73 230.97 354.95 239.44 326.62 239.44"/><polygon class="cls-2" points="327.34 307.13 312.59 264.38 328.11 243.11 340.73 235.21 353.11 243.11 369.44 265.69 398.69 246.23 365.74 299.27 350.09 307.13 327.34 307.13"/><path class="cls-2" d="M386.26,209.1A116.31,116.31,0,0,1,391,232l4.76-17.87Z"/><polygon class="cls-1" points="170.3 267.05 181.59 297.69 215.32 344.61 227.32 351.86 250.06 351.86 265.71 344.01 298.66 290.96 326.73 239.35 296.07 256.9 271.46 242.95 270.89 200.59 248.64 179.21 225.96 192.58 212 234.67 186.28 259.12 168.88 243.33 170.3 267.05"/><path class="cls-2" d="M185.59,289.19l5.59,2.81s.23-24.79,7.39-43.12l-12.29,10.24-10.14-9.27C173.58,269.54,185.59,289.19,185.59,289.19Z"/><path class="cls-11" d="M191.18,292,212,304l14.67-19.83H255L270.18,306l18.07-12.2,3.76-2.46s1.27-61.23-38.81-79.95a28.53,28.53,0,0,0-23.51-.36C190.34,228.4,191.18,292,191.18,292Z"/><polygon class="cls-1" points="226.68 284.17 240.79 275.7 255.01 284.17 226.68 284.17"/><polygon class="cls-2" points="227.4 351.86 212.65 309.11 228.17 287.84 240.79 279.94 253.17 287.84 269.5 310.42 298.75 290.96 265.8 344.01 250.15 351.86 227.4 351.86"/><path class="cls-2" d="M286.32,253.83a116.31,116.31,0,0,1,4.78,22.85l4.76-17.87Z"/><polygon class="cls-1" points="831.68 87.84 842.97 118.49 876.69 165.4 888.69 172.65 911.44 172.65 927.09 164.8 960.04 111.76 988.1 60.14 957.44 77.69 932.83 63.74 932.26 21.39 910.01 0 887.33 13.37 873.37 55.46 847.66 79.91 830.25 64.12 831.68 87.84"/><path class="cls-2" d="M847,110l5.6,2.81S852.78,88,860,69.67L847.66,79.91l-10.15-9.27C835,90.34,847,110,847,110Z"/><path class="cls-12" d="M852.56,112.8l20.83,12L888.06,105h28.33l15.17,21.84,18.06-12.21,3.77-2.46s1.27-61.22-38.82-79.94a28.43,28.43,0,0,0-23.5-.36C851.72,49.19,852.56,112.8,852.56,112.8Z"/><polygon class="cls-1" points="888.06 104.96 902.17 96.5 916.39 104.96 888.06 104.96"/><polygon class="cls-2" points="888.77 172.65 874.02 129.9 889.54 108.64 902.17 100.73 914.54 108.64 930.87 131.22 960.12 111.76 927.17 164.8 911.52 172.65 888.77 172.65"/><path class="cls-2" d="M947.7,74.62a116.82,116.82,0,0,1,4.77,22.85l4.77-17.86Z"/><polygon class="cls-1" points="916.19 132.79 927.48 163.44 961.2 210.36 973.2 217.61 995.95 217.61 1011.6 209.75 1044.55 156.71 1072.61 105.1 1041.95 122.64 1017.34 108.69 1016.77 66.34 994.52 44.95 971.84 58.33 957.88 100.42 932.17 124.87 914.76 109.07 916.19 132.79"/><path class="cls-2" d="M931.47,154.94l5.59,2.81s.23-24.79,7.4-43.12l-12.29,10.24L922,115.6C919.46,135.29,931.47,154.94,931.47,154.94Z"/><path class="cls-13" d="M937.06,157.75l20.84,12,14.66-19.83h28.34l15.16,21.83,18.07-12.21,3.77-2.46s1.26-61.22-38.82-79.94a28.43,28.43,0,0,0-23.5-.36C936.23,94.15,937.06,157.75,937.06,157.75Z"/><polygon class="cls-1" points="972.57 149.92 986.68 141.45 1000.9 149.92 972.57 149.92"/><polygon class="cls-2" points="973.28 217.61 958.53 174.86 974.05 153.59 986.68 145.68 999.05 153.59 1015.38 176.17 1044.63 156.71 1011.68 209.75 996.03 217.61 973.28 217.61"/><path class="cls-2" d="M1032.21,119.58a116.82,116.82,0,0,1,4.77,22.85l4.77-17.87Z"/><polygon class="cls-1" points="1000.55 177.57 1011.84 208.22 1045.57 255.13 1057.57 262.38 1080.32 262.38 1095.96 254.53 1128.91 201.49 1156.98 149.87 1126.32 167.42 1101.71 153.47 1101.14 111.12 1078.89 89.73 1056.21 103.1 1042.25 145.19 1016.54 169.64 999.13 153.85 1000.55 177.57"/><path class="cls-2" d="M1015.84,199.72l5.59,2.81s.23-24.8,7.39-43.13l-12.28,10.24-10.15-9.27C1003.83,180.07,1015.84,199.72,1015.84,199.72Z"/><path class="cls-14" d="M1021.43,202.53l20.83,12,14.67-19.84h28.33l15.17,21.84,18.07-12.21,3.76-2.46s1.27-61.22-38.81-79.94a28.45,28.45,0,0,0-23.51-.36C1020.59,138.92,1021.43,202.53,1021.43,202.53Z"/><polygon class="cls-1" points="1056.93 194.69 1071.04 186.23 1085.26 194.69 1056.93 194.69"/><polygon class="cls-2" points="1057.65 262.38 1042.9 219.63 1058.42 198.37 1071.04 190.46 1083.42 198.37 1099.75 220.94 1129 201.49 1096.05 254.53 1080.4 262.38 1057.65 262.38"/><path class="cls-2" d="M1116.57,164.35a116.31,116.31,0,0,1,4.78,22.85l4.76-17.86Z"/><polygon class="cls-1" points="731.71 132.59 743 163.23 776.72 210.15 788.72 217.4 811.47 217.4 827.12 209.54 860.07 156.5 888.13 104.89 857.47 122.44 832.86 108.49 832.29 66.13 810.04 44.75 787.36 58.12 773.4 100.21 747.69 124.66 730.28 108.87 731.71 132.59"/><path class="cls-2" d="M747,154.73l5.59,2.81s.23-24.79,7.4-43.12l-12.29,10.24-10.15-9.27C735,135.08,747,154.73,747,154.73Z"/><path class="cls-15" d="M752.58,157.54l20.84,12,14.66-19.83h28.34l15.16,21.83,18.07-12.2,3.77-2.46s1.26-61.23-38.82-79.95a28.5,28.5,0,0,0-23.5-.36C751.75,93.94,752.58,157.54,752.58,157.54Z"/><polygon class="cls-1" points="788.09 149.71 802.2 141.24 816.42 149.71 788.09 149.71"/><polygon class="cls-2" points="788.8 217.4 774.05 174.65 789.57 153.38 802.2 145.48 814.57 153.38 830.9 175.96 860.15 156.5 827.2 209.54 811.55 217.4 788.8 217.4"/><path class="cls-2" d="M847.73,119.37a116.82,116.82,0,0,1,4.77,22.85l4.77-17.87Z"/><polygon class="cls-1" points="816.22 177.54 827.5 208.19 861.23 255.1 873.23 262.35 895.98 262.35 911.63 254.5 944.58 201.46 972.64 149.84 941.98 167.39 917.37 153.44 916.8 111.09 894.55 89.7 871.87 103.07 857.91 145.16 832.2 169.61 814.79 153.82 816.22 177.54"/><path class="cls-2" d="M831.5,199.69l5.59,2.81s.23-24.8,7.4-43.13L832.2,169.61l-10.15-9.27C819.49,180,831.5,199.69,831.5,199.69Z"/><path class="cls-16" d="M837.09,202.5l20.84,12,14.66-19.84h28.34l15.16,21.84,18.07-12.21,3.77-2.46s1.26-61.22-38.82-79.94a28.43,28.43,0,0,0-23.5-.36C836.25,138.89,837.09,202.5,837.09,202.5Z"/><polygon class="cls-1" points="872.59 194.66 886.71 186.2 900.93 194.66 872.59 194.66"/><polygon class="cls-2" points="873.31 262.35 858.56 219.6 874.08 198.34 886.71 190.43 899.08 198.34 915.41 220.91 944.66 201.46 911.71 254.5 896.06 262.35 873.31 262.35"/><path class="cls-2" d="M932.24,164.32A116.82,116.82,0,0,1,937,187.17l4.77-17.86Z"/><polygon class="cls-1" points="631.77 177.32 643.06 207.96 676.78 254.88 688.78 262.13 711.53 262.13 727.18 254.28 760.13 201.23 788.19 149.62 757.53 167.17 732.92 153.22 732.36 110.86 710.11 89.48 687.42 102.85 673.46 144.94 647.75 169.39 630.34 153.6 631.77 177.32"/><path class="cls-2" d="M647.05,199.46l5.6,2.81s.22-24.79,7.39-43.12l-12.29,10.24-10.15-9.27C635.05,179.81,647.05,199.46,647.05,199.46Z"/><path class="cls-17" d="M652.65,202.27l20.83,12,14.67-19.83h28.33l15.17,21.83,18.06-12.2,3.77-2.46s1.27-61.23-38.82-80a28.5,28.5,0,0,0-23.5-.36C651.81,138.67,652.65,202.27,652.65,202.27Z"/><polygon class="cls-1" points="688.14 194.44 702.26 185.97 716.48 194.44 688.14 194.44"/><polygon class="cls-2" points="688.86 262.13 674.11 219.38 689.63 198.11 702.26 190.21 714.63 198.11 730.96 220.69 760.21 201.23 727.26 254.28 711.61 262.13 688.86 262.13"/><path class="cls-2" d="M747.79,164.1A116.82,116.82,0,0,1,752.56,187l4.77-17.87Z"/><polygon class="cls-1" points="716.28 222.27 727.57 252.92 761.29 299.83 773.29 307.08 796.04 307.08 811.69 299.23 844.64 246.19 872.7 194.57 842.04 212.12 817.43 198.17 816.86 155.82 794.61 134.43 771.93 147.81 757.97 189.89 732.26 214.34 714.85 198.55 716.28 222.27"/><path class="cls-2" d="M731.56,244.42l5.59,2.81s.23-24.79,7.4-43.13l-12.29,10.24-10.15-9.26C719.55,224.77,731.56,244.42,731.56,244.42Z"/><path class="cls-18" d="M737.15,247.23l20.84,12,14.66-19.84H801l15.16,21.84L834.22,249l3.77-2.46s1.26-61.22-38.82-79.94a28.43,28.43,0,0,0-23.5-.36C736.32,183.62,737.15,247.23,737.15,247.23Z"/><polygon class="cls-1" points="772.65 239.39 786.77 230.93 800.99 239.39 772.65 239.39"/><polygon class="cls-2" points="773.37 307.08 758.62 264.33 774.14 243.07 786.77 235.16 799.14 243.07 815.47 265.65 844.72 246.19 811.77 299.23 796.12 307.08 773.37 307.08"/><path class="cls-2" d="M832.3,209.05a116.82,116.82,0,0,1,4.77,22.85L841.84,214Z"/><polygon class="cls-1" points="900.58 222.32 911.87 252.96 945.6 299.88 957.6 307.13 980.35 307.13 995.99 299.27 1028.94 246.23 1057.01 194.62 1026.35 212.16 1001.74 198.22 1001.17 155.86 978.92 134.48 956.24 147.85 942.28 189.94 916.57 214.39 899.15 198.6 900.58 222.32"/><path class="cls-2" d="M915.87,244.46l5.59,2.81s.23-24.79,7.39-43.12l-12.29,10.24-10.14-9.27C903.86,224.81,915.87,244.46,915.87,244.46Z"/><path class="cls-19" d="M921.46,247.27l20.83,12L957,239.44h28.33l15.17,21.83,18.07-12.2,3.76-2.47s1.27-61.22-38.81-79.94A28.53,28.53,0,0,0,960,166.3C920.62,183.67,921.46,247.27,921.46,247.27Z"/><polygon class="cls-1" points="956.96 239.44 971.07 230.97 985.29 239.44 956.96 239.44"/><polygon class="cls-2" points="957.68 307.13 942.93 264.38 958.45 243.11 971.07 235.21 983.45 243.11 999.78 265.69 1029.03 246.23 996.08 299.27 980.43 307.13 957.68 307.13"/><path class="cls-2" d="M1016.6,209.1a116.31,116.31,0,0,1,4.78,22.85l4.76-17.87Z"/><polygon class="cls-1" points="800.64 267.05 811.93 297.69 845.66 344.61 857.66 351.86 880.41 351.86 896.05 344.01 929 290.96 957.07 239.35 926.41 256.9 901.8 242.95 901.23 200.59 878.98 179.21 856.3 192.58 842.34 234.67 816.63 259.12 799.22 243.33 800.64 267.05"/><path class="cls-2" d="M815.93,289.19l5.59,2.81s.23-24.79,7.39-43.12l-12.28,10.24-10.15-9.27C803.92,269.54,815.93,289.19,815.93,289.19Z"/><path class="cls-20" d="M821.52,292l20.83,12L857,284.17h28.33L900.52,306l18.07-12.2,3.76-2.46s1.27-61.23-38.81-79.95A28.53,28.53,0,0,0,860,211C820.68,228.4,821.52,292,821.52,292Z"/><polygon class="cls-1" points="857.02 284.17 871.13 275.7 885.35 284.17 857.02 284.17"/><polygon class="cls-2" points="857.74 351.86 842.99 309.11 858.51 287.84 871.13 279.94 883.51 287.84 899.84 310.42 929.09 290.96 896.14 344.01 880.49 351.86 857.74 351.86"/><path class="cls-2" d="M916.66,253.83a116.31,116.31,0,0,1,4.78,22.85l4.76-17.87Z"/><path class="cls-21" d="M586,182.39h-7.84v-7.83a3.58,3.58,0,1,0-7.16,0v7.83h-7.84a3.59,3.59,0,0,0,0,7.17H571v7.83a3.58,3.58,0,0,0,7.16,0v-7.83H586a3.59,3.59,0,0,0,0-7.17Z"/></g></svg>