<svg xmlns="http://www.w3.org/2000/svg" xmlns:xlink="http://www.w3.org/1999/xlink" viewBox="0 0 1373 441.32"><defs><style>.cls-1{fill:#62abbc;}.cls-2{fill:#3d838e;opacity:0.51;}.cls-3{fill:url(#linear-gradient);}.cls-4{fill:url(#linear-gradient-2);}.cls-5{fill:url(#linear-gradient-3);}.cls-6{fill:url(#linear-gradient-4);}.cls-7{fill:url(#linear-gradient-5);}.cls-8{fill:url(#linear-gradient-6);}.cls-9{fill:url(#linear-gradient-7);}.cls-10{fill:url(#linear-gradient-8);}.cls-11{fill:url(#linear-gradient-9);}.cls-12{fill:url(#linear-gradient-10);}.cls-13{fill:url(#linear-gradient-11);}.cls-14{fill:url(#linear-gradient-12);}.cls-15{fill:url(#linear-gradient-13);}.cls-16{fill:url(#linear-gradient-14);}.cls-17{fill:url(#linear-gradient-15);}.cls-18{fill:url(#linear-gradient-16);}.cls-19{fill:url(#linear-gradient-17);}.cls-20{fill:url(#linear-gradient-18);}.cls-21{fill:url(#linear-gradient-19);}.cls-22{fill:url(#linear-gradient-20);}.cls-23{fill:url(#linear-gradient-21);}.cls-24{fill:url(#linear-gradient-22);}.cls-25{fill:url(#linear-gradient-23);}.cls-26{fill:url(#linear-gradient-24);}.cls-27{fill:url(#linear-gradient-25);}.cls-28{fill:#f05023;}</style><linearGradient id="linear-gradient" x1="1068.58" y1="122.86" x2="1169.42" y2="122.86" gradientUnits="userSpaceOnUse"><stop offset="0" stop-color="#fbb040"/><stop offset="0.39" stop-color="#f9ae41"/><stop offset="0.59" stop-color="#f1a845"/><stop offset="0.74" stop-color="#e49e4b"/><stop offset="0.87" stop-color="#d18f55"/><stop offset="0.99" stop-color="#b97c60"/><stop offset="1" stop-color="#b67a62"/></linearGradient><linearGradient id="linear-gradient-2" x1="1153.09" y1="167.81" x2="1253.93" y2="167.81" xlink:href="#linear-gradient"/><linearGradient id="linear-gradient-3" x1="1237.45" y1="212.59" x2="1338.29" y2="212.59" xlink:href="#linear-gradient"/><linearGradient id="linear-gradient-4" x1="968.61" y1="167.6" x2="1069.45" y2="167.6" xlink:href="#linear-gradient"/><linearGradient id="linear-gradient-5" x1="1053.12" y1="212.56" x2="1153.96" y2="212.56" xlink:href="#linear-gradient"/><linearGradient id="linear-gradient-6" x1="868.67" y1="212.34" x2="969.51" y2="212.34" xlink:href="#linear-gradient"/><linearGradient id="linear-gradient-7" x1="953.18" y1="257.29" x2="1054.02" y2="257.29" xlink:href="#linear-gradient"/><linearGradient id="linear-gradient-8" x1="1137.48" y1="257.33" x2="1238.32" y2="257.33" xlink:href="#linear-gradient"/><linearGradient id="linear-gradient-9" x1="1037.54" y1="302.07" x2="1138.38" y2="302.07" xlink:href="#linear-gradient"/><linearGradient id="linear-gradient-10" x1="322.19" y1="78.13" x2="423.03" y2="78.13" xlink:href="#linear-gradient"/><linearGradient id="linear-gradient-11" x1="406.7" y1="123.08" x2="507.54" y2="123.08" xlink:href="#linear-gradient"/><linearGradient id="linear-gradient-12" x1="222.25" y1="122.86" x2="323.09" y2="122.86" xlink:href="#linear-gradient"/><linearGradient id="linear-gradient-13" x1="306.76" y1="167.81" x2="407.6" y2="167.81" xlink:href="#linear-gradient"/><linearGradient id="linear-gradient-14" x1="491.07" y1="167.86" x2="591.91" y2="167.86" xlink:href="#linear-gradient"/><linearGradient id="linear-gradient-15" x1="391.13" y1="212.59" x2="491.97" y2="212.59" xlink:href="#linear-gradient"/><linearGradient id="linear-gradient-16" x1="575.4" y1="212.55" x2="676.23" y2="212.55" xlink:href="#linear-gradient"/><linearGradient id="linear-gradient-17" x1="475.46" y1="257.28" x2="576.3" y2="257.28" xlink:href="#linear-gradient"/><linearGradient id="linear-gradient-18" x1="122.24" y1="167.64" x2="223.08" y2="167.64" xlink:href="#linear-gradient"/><linearGradient id="linear-gradient-19" x1="206.75" y1="212.6" x2="307.59" y2="212.6" xlink:href="#linear-gradient"/><linearGradient id="linear-gradient-20" x1="22.3" y1="212.37" x2="123.14" y2="212.37" xlink:href="#linear-gradient"/><linearGradient id="linear-gradient-21" x1="106.81" y1="257.33" x2="207.65" y2="257.33" xlink:href="#linear-gradient"/><linearGradient id="linear-gradient-22" x1="291.12" y1="257.37" x2="391.96" y2="257.37" xlink:href="#linear-gradient"/><linearGradient id="linear-gradient-23" x1="191.18" y1="302.1" x2="292.02" y2="302.1" xlink:href="#linear-gradient"/><linearGradient id="linear-gradient-24" x1="375.45" y1="302.06" x2="476.29" y2="302.06" xlink:href="#linear-gradient"/><linearGradient id="linear-gradient-25" x1="275.51" y1="346.79" x2="376.35" y2="346.79" xlink:href="#linear-gradient"/></defs><title>V2_R1</title><g id="Layer_2" data-name="Layer 2"><polygon class="cls-1" points="1047.7 132.57 1058.99 163.22 1092.72 210.13 1104.72 217.38 1127.47 217.38 1143.11 209.53 1176.06 156.49 1204.13 104.87 1173.47 122.42 1148.86 108.47 1148.29 66.12 1126.04 44.73 1103.36 58.1 1089.4 100.19 1063.68 124.64 1046.28 108.85 1047.7 132.57"/><path class="cls-2" d="M1063,154.72l5.59,2.8s.23-24.79,7.39-43.12l-12.28,10.24-10.15-9.27C1051,135.07,1063,154.72,1063,154.72Z"/><path class="cls-3" d="M1068.58,157.52l20.83,12,14.67-19.83h28.33l15.17,21.83,18.07-12.2,3.76-2.46s1.27-61.23-38.81-80a28.49,28.49,0,0,0-23.51-.35C1067.74,93.92,1068.58,157.52,1068.58,157.52Z"/><polygon class="cls-1" points="1104.08 149.69 1118.19 141.23 1132.41 149.69 1104.08 149.69"/><polygon class="cls-2" points="1104.8 217.38 1090.05 174.63 1105.57 153.37 1118.19 145.46 1130.57 153.37 1146.9 175.94 1176.15 156.49 1143.2 209.53 1127.55 217.38 1104.8 217.38"/><path class="cls-2" d="M1163.72,119.35a116.31,116.31,0,0,1,4.78,22.85l4.76-17.86Z"/><polygon class="cls-1" points="1132.21 177.52 1143.5 208.17 1177.22 255.09 1189.22 262.34 1211.97 262.34 1227.62 254.48 1260.57 201.44 1288.63 149.82 1257.97 167.37 1233.37 153.42 1232.8 111.07 1210.55 89.68 1187.87 103.06 1173.91 145.15 1148.19 169.59 1130.78 153.8 1132.21 177.52"/><path class="cls-2" d="M1147.5,199.67l5.59,2.81s.22-24.79,7.39-43.13l-12.29,10.25-10.14-9.27C1135.49,180,1147.5,199.67,1147.5,199.67Z"/><path class="cls-4" d="M1153.09,202.48l20.83,12,14.67-19.84h28.33l15.17,21.84,18.07-12.21,3.76-2.46s1.27-61.22-38.81-79.94a28.45,28.45,0,0,0-23.51-.36C1152.25,138.88,1153.09,202.48,1153.09,202.48Z"/><polygon class="cls-1" points="1188.59 194.65 1202.7 186.18 1216.92 194.65 1188.59 194.65"/><polygon class="cls-2" points="1189.31 262.34 1174.56 219.59 1190.08 198.32 1202.7 190.41 1215.08 198.32 1231.41 220.9 1260.66 201.44 1227.71 254.48 1212.06 262.34 1189.31 262.34"/><path class="cls-2" d="M1248.23,164.3a116.54,116.54,0,0,1,4.78,22.86l4.76-17.87Z"/><polygon class="cls-1" points="1216.58 222.3 1227.87 252.94 1261.59 299.86 1273.59 307.11 1296.34 307.11 1311.99 299.26 1344.94 246.22 1373 194.6 1342.34 212.15 1317.73 198.2 1317.16 155.85 1294.91 134.46 1272.23 147.83 1258.27 189.92 1232.56 214.37 1215.15 198.58 1216.58 222.3"/><path class="cls-2" d="M1231.86,244.45l5.6,2.8s.22-24.79,7.39-43.12l-12.29,10.24-10.15-9.27C1219.86,224.8,1231.86,244.45,1231.86,244.45Z"/><path class="cls-5" d="M1237.46,247.25l20.83,12L1273,239.42h28.33l15.17,21.83,18.06-12.2,3.77-2.46s1.27-61.23-38.82-80a28.47,28.47,0,0,0-23.5-.35C1236.62,183.65,1237.46,247.25,1237.46,247.25Z"/><polygon class="cls-1" points="1272.95 239.42 1287.07 230.96 1301.29 239.42 1272.95 239.42"/><polygon class="cls-2" points="1273.67 307.11 1258.92 264.36 1274.44 243.09 1287.07 235.19 1299.44 243.09 1315.77 265.67 1345.02 246.22 1312.07 299.26 1296.42 307.11 1273.67 307.11"/><path class="cls-2" d="M1332.6,209.08a116.82,116.82,0,0,1,4.77,22.85l4.77-17.86Z"/><polygon class="cls-1" points="947.73 177.32 959.02 207.96 992.75 254.88 1004.75 262.13 1027.49 262.13 1043.14 254.27 1076.09 201.23 1104.15 149.62 1073.49 167.16 1048.89 153.22 1048.32 110.86 1026.07 89.47 1003.39 102.85 989.43 144.94 963.71 169.39 946.3 153.6 947.73 177.32"/><path class="cls-2" d="M963,199.46l5.59,2.81s.22-24.79,7.39-43.12l-12.29,10.24-10.14-9.27C951,179.81,963,199.46,963,199.46Z"/><path class="cls-6" d="M968.61,202.27l20.83,12,14.67-19.83h28.33l15.17,21.83,18.07-12.21,3.76-2.46s1.27-61.22-38.81-79.94a28.49,28.49,0,0,0-23.51-.36C967.77,138.67,968.61,202.27,968.61,202.27Z"/><polygon class="cls-1" points="1004.11 194.44 1018.22 185.97 1032.44 194.44 1004.11 194.44"/><polygon class="cls-2" points="1004.83 262.13 990.08 219.38 1005.6 198.11 1018.22 190.21 1030.6 198.11 1046.93 220.69 1076.18 201.23 1043.23 254.27 1027.58 262.13 1004.83 262.13"/><path class="cls-2" d="M1063.75,164.1a116.31,116.31,0,0,1,4.78,22.85l4.76-17.87Z"/><polygon class="cls-1" points="1032.24 222.27 1043.53 252.91 1077.25 299.83 1089.25 307.08 1112 307.08 1127.65 299.23 1160.6 246.19 1188.66 194.57 1158 212.12 1133.4 198.17 1132.83 155.82 1110.58 134.43 1087.9 147.8 1073.93 189.89 1048.22 214.34 1030.81 198.55 1032.24 222.27"/><path class="cls-2" d="M1047.53,244.42l5.59,2.8s.22-24.79,7.39-43.12l-12.29,10.24-10.15-9.27C1035.52,224.77,1047.53,244.42,1047.53,244.42Z"/><path class="cls-7" d="M1053.12,247.22l20.83,12,14.67-19.83H1117l15.17,21.83,18.07-12.2,3.76-2.46s1.27-61.23-38.81-79.95a28.49,28.49,0,0,0-23.51-.35C1052.28,183.62,1053.12,247.22,1053.12,247.22Z"/><polygon class="cls-1" points="1088.62 239.39 1102.73 230.93 1116.95 239.39 1088.62 239.39"/><polygon class="cls-2" points="1089.34 307.08 1074.59 264.33 1090.11 243.06 1102.73 235.16 1115.11 243.06 1131.43 265.64 1160.68 246.19 1127.73 299.23 1112.09 307.08 1089.34 307.08"/><path class="cls-2" d="M1148.26,209.05A116.31,116.31,0,0,1,1153,231.9L1157.8,214Z"/><polygon class="cls-1" points="847.79 222.05 859.08 252.69 892.8 299.61 904.8 306.86 927.55 306.86 943.2 299 976.15 245.96 1004.21 194.35 973.55 211.9 948.95 197.95 948.38 155.59 926.13 134.21 903.45 147.58 889.49 189.67 863.77 214.12 846.37 198.33 847.79 222.05"/><path class="cls-2" d="M863.08,244.19l5.59,2.81s.23-24.79,7.39-43.12l-12.29,10.24-10.14-9.27C851.07,224.54,863.08,244.19,863.08,244.19Z"/><path class="cls-8" d="M868.67,247l20.83,12,14.67-19.83H932.5L947.67,261l18.07-12.2,3.76-2.46s1.27-61.23-38.81-80a28.53,28.53,0,0,0-23.51-.36C867.83,183.4,868.67,247,868.67,247Z"/><polygon class="cls-1" points="904.17 239.17 918.28 230.7 932.5 239.17 904.17 239.17"/><polygon class="cls-2" points="904.89 306.86 890.14 264.11 905.66 242.84 918.28 234.94 930.66 242.84 946.99 265.42 976.24 245.96 943.29 299 927.64 306.86 904.89 306.86"/><path class="cls-2" d="M963.81,208.83a116.31,116.31,0,0,1,4.78,22.85l4.76-17.87Z"/><polygon class="cls-1" points="932.3 267 943.59 297.65 977.31 344.56 989.31 351.81 1012.06 351.81 1027.71 343.96 1060.66 290.92 1088.72 239.3 1058.06 256.85 1033.46 242.9 1032.89 200.55 1010.64 179.16 987.96 192.53 974 234.62 948.28 259.07 930.87 243.28 932.3 267"/><path class="cls-2" d="M947.59,289.15l5.59,2.81s.22-24.79,7.39-43.13l-12.29,10.24-10.15-9.27C935.58,269.5,947.59,289.15,947.59,289.15Z"/><path class="cls-9" d="M953.18,292,974,304l14.67-19.84H1017L1032.18,306l18.07-12.21,3.76-2.46s1.27-61.22-38.81-79.94a28.45,28.45,0,0,0-23.51-.36C952.34,228.35,953.18,292,953.18,292Z"/><polygon class="cls-1" points="988.68 284.12 1002.79 275.66 1017.01 284.12 988.68 284.12"/><polygon class="cls-2" points="989.4 351.81 974.65 309.06 990.16 287.8 1002.79 279.89 1015.16 287.8 1031.49 310.38 1060.74 290.92 1027.8 343.96 1012.15 351.81 989.4 351.81"/><path class="cls-2" d="M1048.32,253.78a116.31,116.31,0,0,1,4.78,22.85l4.76-17.86Z"/><polygon class="cls-1" points="1116.61 267.05 1127.9 297.69 1161.62 344.61 1173.62 351.86 1196.37 351.86 1212.02 344 1244.97 290.96 1273.03 239.35 1242.37 256.89 1217.76 242.94 1217.19 200.59 1194.94 179.21 1172.26 192.58 1158.3 234.67 1132.59 259.12 1115.18 243.33 1116.61 267.05"/><path class="cls-2" d="M1131.89,289.19l5.59,2.81s.23-24.79,7.4-43.12l-12.29,10.24-10.15-9.27C1119.88,269.54,1131.89,289.19,1131.89,289.19Z"/><path class="cls-10" d="M1137.48,292l20.84,12L1173,284.17h28.34L1216.48,306l18.07-12.21,3.77-2.46s1.26-61.22-38.82-79.94A28.43,28.43,0,0,0,1176,211C1136.65,228.4,1137.48,292,1137.48,292Z"/><polygon class="cls-1" points="1172.98 284.17 1187.1 275.7 1201.32 284.17 1172.98 284.17"/><polygon class="cls-2" points="1173.7 351.86 1158.95 309.11 1174.47 287.84 1187.1 279.93 1199.47 287.84 1215.8 310.42 1245.05 290.96 1212.1 344 1196.45 351.86 1173.7 351.86"/><path class="cls-2" d="M1232.63,253.83a116.82,116.82,0,0,1,4.77,22.85l4.77-17.87Z"/><polygon class="cls-1" points="1016.67 311.78 1027.96 342.42 1061.68 389.34 1073.68 396.59 1096.43 396.59 1112.08 388.74 1145.03 335.69 1173.09 284.08 1142.43 301.63 1117.82 287.68 1117.25 245.32 1095 223.94 1072.32 237.31 1058.36 279.4 1032.65 303.85 1015.24 288.06 1016.67 311.78"/><path class="cls-2" d="M1032,333.92l5.59,2.81s.23-24.79,7.4-43.12l-12.29,10.24-10.15-9.27C1020,314.27,1032,333.92,1032,333.92Z"/><path class="cls-11" d="M1037.54,336.73l20.84,12L1073,328.9h28.34l15.16,21.83,18.07-12.2,3.77-2.46s1.26-61.23-38.82-79.95a28.5,28.5,0,0,0-23.5-.36C1036.71,273.13,1037.54,336.73,1037.54,336.73Z"/><polygon class="cls-1" points="1073.05 328.9 1087.16 320.43 1101.38 328.9 1073.05 328.9"/><polygon class="cls-2" points="1073.76 396.59 1059.01 353.84 1074.53 332.57 1087.16 324.67 1099.53 332.57 1115.86 355.15 1145.11 335.69 1112.16 388.74 1096.51 396.59 1073.76 396.59"/><path class="cls-2" d="M1132.69,298.56a116.82,116.82,0,0,1,4.77,22.85l4.77-17.87Z"/><polygon class="cls-1" points="301.32 87.84 312.61 118.49 346.33 165.4 358.33 172.65 381.08 172.65 396.73 164.8 429.68 111.76 457.74 60.14 427.08 77.69 402.47 63.74 401.9 21.39 379.65 0 356.97 13.37 343.01 55.46 317.3 79.91 299.89 64.12 301.32 87.84"/><path class="cls-2" d="M316.6,110l5.59,2.81s.23-24.79,7.4-43.13L317.3,79.91l-10.15-9.27C304.59,90.34,316.6,110,316.6,110Z"/><path class="cls-12" d="M322.19,112.8l20.84,12L357.69,105H386l15.16,21.84,18.07-12.21,3.77-2.46s1.26-61.22-38.82-79.94a28.43,28.43,0,0,0-23.5-.36C321.36,49.19,322.19,112.8,322.19,112.8Z"/><polygon class="cls-1" points="357.69 104.96 371.81 96.5 386.03 104.96 357.69 104.96"/><polygon class="cls-2" points="358.41 172.65 343.66 129.9 359.18 108.64 371.81 100.73 384.18 108.64 400.51 131.22 429.76 111.76 396.81 164.8 381.16 172.65 358.41 172.65"/><path class="cls-2" d="M417.34,74.62a116.82,116.82,0,0,1,4.77,22.85l4.77-17.86Z"/><polygon class="cls-1" points="385.82 132.79 397.11 163.44 430.84 210.36 442.84 217.61 465.59 217.61 481.24 209.75 514.19 156.71 542.25 105.1 511.59 122.64 486.98 108.69 486.41 66.34 464.16 44.95 441.48 58.33 427.52 100.42 401.81 124.87 384.4 109.07 385.82 132.79"/><path class="cls-2" d="M401.11,154.94l5.59,2.81s.23-24.79,7.39-43.12l-12.28,10.24-10.15-9.27C389.1,135.29,401.11,154.94,401.11,154.94Z"/><path class="cls-13" d="M406.7,157.75l20.84,12,14.66-19.83h28.34l15.16,21.83,18.07-12.21,3.77-2.46s1.26-61.22-38.82-79.94a28.43,28.43,0,0,0-23.5-.36C405.86,94.15,406.7,157.75,406.7,157.75Z"/><polygon class="cls-1" points="442.2 149.92 456.31 141.45 470.54 149.92 442.2 149.92"/><polygon class="cls-2" points="442.92 217.61 428.17 174.86 443.69 153.59 456.31 145.68 468.69 153.59 485.02 176.17 514.27 156.71 481.32 209.75 465.67 217.61 442.92 217.61"/><path class="cls-2" d="M501.85,119.58a116.82,116.82,0,0,1,4.77,22.85l4.77-17.87Z"/><polygon class="cls-1" points="201.38 132.57 212.67 163.22 246.39 210.14 258.39 217.39 281.14 217.39 296.79 209.53 329.74 156.49 357.8 104.87 327.14 122.42 302.53 108.47 301.96 66.12 279.71 44.73 257.03 58.1 243.07 100.19 217.36 124.64 199.95 108.85 201.38 132.57"/><path class="cls-2" d="M216.66,154.72l5.59,2.81s.23-24.79,7.4-43.13l-12.29,10.24-10.15-9.26C204.65,135.07,216.66,154.72,216.66,154.72Z"/><path class="cls-14" d="M222.25,157.53l20.84,12,14.66-19.84h28.34l15.16,21.84,18.07-12.21,3.77-2.46s1.26-61.22-38.82-79.94a28.43,28.43,0,0,0-23.5-.36C221.42,93.92,222.25,157.53,222.25,157.53Z"/><polygon class="cls-1" points="257.75 149.69 271.87 141.23 286.09 149.69 257.75 149.69"/><polygon class="cls-2" points="258.47 217.39 243.72 174.64 259.24 153.37 271.87 145.46 284.24 153.37 300.57 175.95 329.82 156.49 296.87 209.53 281.22 217.39 258.47 217.39"/><path class="cls-2" d="M317.4,119.35a117,117,0,0,1,4.77,22.85l4.77-17.86Z"/><polygon class="cls-1" points="285.88 177.53 297.17 208.17 330.9 255.09 342.9 262.34 365.65 262.34 381.3 254.48 414.25 201.44 442.31 149.83 411.65 167.37 387.04 153.43 386.47 111.07 364.22 89.69 341.54 103.06 327.58 145.15 301.87 169.6 284.46 153.81 285.88 177.53"/><path class="cls-2" d="M301.17,199.67l5.59,2.81s.23-24.79,7.4-43.12L301.87,169.6l-10.15-9.27C289.16,180,301.17,199.67,301.17,199.67Z"/><path class="cls-15" d="M306.76,202.48l20.84,12,14.66-19.83H370.6l15.16,21.83,18.07-12.21,3.77-2.46s1.26-61.22-38.82-79.94a28.43,28.43,0,0,0-23.5-.36C305.92,138.88,306.76,202.48,306.76,202.48Z"/><polygon class="cls-1" points="342.26 194.65 356.38 186.18 370.6 194.65 342.26 194.65"/><polygon class="cls-2" points="342.98 262.34 328.23 219.59 343.75 198.32 356.38 190.41 368.75 198.32 385.08 220.9 414.33 201.44 381.38 254.48 365.73 262.34 342.98 262.34"/><path class="cls-2" d="M401.91,164.31a116.82,116.82,0,0,1,4.77,22.85l4.77-17.87Z"/><polygon class="cls-1" points="470.19 177.57 481.48 208.22 515.21 255.13 527.21 262.38 549.95 262.38 565.6 254.53 598.55 201.49 626.61 149.87 595.96 167.42 571.35 153.47 570.78 111.12 548.53 89.73 525.85 103.1 511.89 145.19 486.17 169.64 468.76 153.85 470.19 177.57"/><path class="cls-2" d="M485.48,199.72l5.59,2.81s.22-24.8,7.39-43.13l-12.29,10.24L476,160.37C473.47,180.07,485.48,199.72,485.48,199.72Z"/><path class="cls-16" d="M491.07,202.53l20.83,12,14.67-19.84H554.9l15.17,21.84,18.07-12.21,3.76-2.46s1.27-61.22-38.81-79.94a28.45,28.45,0,0,0-23.51-.36C490.23,138.92,491.07,202.53,491.07,202.53Z"/><polygon class="cls-1" points="526.57 194.69 540.68 186.23 554.9 194.69 526.57 194.69"/><polygon class="cls-2" points="527.29 262.38 512.54 219.63 528.06 198.37 540.68 190.46 553.06 198.37 569.39 220.94 598.64 201.49 565.69 254.53 550.04 262.38 527.29 262.38"/><path class="cls-2" d="M586.21,164.35A116.31,116.31,0,0,1,591,187.2l4.76-17.86Z"/><polygon class="cls-1" points="370.25 222.3 381.54 252.95 415.26 299.87 427.26 307.12 450.01 307.12 465.66 299.26 498.61 246.22 526.67 194.6 496.01 212.15 471.41 198.2 470.84 155.85 448.59 134.46 425.91 147.84 411.95 189.92 386.23 214.37 368.82 198.58 370.25 222.3"/><path class="cls-2" d="M385.54,244.45l5.59,2.81s.22-24.79,7.39-43.13l-12.29,10.24-10.14-9.26C373.53,224.8,385.54,244.45,385.54,244.45Z"/><path class="cls-17" d="M391.13,247.26l20.83,12,14.67-19.84H455l15.17,21.84,18.07-12.21,3.76-2.46s1.27-61.22-38.81-79.94a28.45,28.45,0,0,0-23.51-.36C390.29,183.65,391.13,247.26,391.13,247.26Z"/><polygon class="cls-1" points="426.63 239.42 440.74 230.96 454.96 239.42 426.63 239.42"/><polygon class="cls-2" points="427.35 307.12 412.6 264.37 428.12 243.1 440.74 235.19 453.12 243.1 469.45 265.68 498.7 246.22 465.75 299.26 450.1 307.12 427.35 307.12"/><path class="cls-2" d="M486.27,209.08a116.31,116.31,0,0,1,4.78,22.85l4.76-17.86Z"/><polygon class="cls-1" points="554.52 222.26 565.81 252.91 599.53 299.82 611.53 307.07 634.28 307.07 649.93 299.22 682.88 246.18 710.94 194.56 680.28 212.11 655.67 198.16 655.11 155.81 632.86 134.42 610.17 147.79 596.21 189.88 570.5 214.33 553.09 198.54 554.52 222.26"/><path class="cls-2" d="M569.81,244.41l5.59,2.81s.22-24.79,7.39-43.13L570.5,214.33l-10.15-9.27C557.8,224.76,569.81,244.41,569.81,244.41Z"/><path class="cls-18" d="M575.4,247.22l20.83,12,14.67-19.84h28.33l15.17,21.84L672.46,249l3.77-2.46s1.27-61.22-38.82-79.94a28.43,28.43,0,0,0-23.5-.36C574.56,183.61,575.4,247.22,575.4,247.22Z"/><polygon class="cls-1" points="610.9 239.38 625.01 230.92 639.23 239.38 610.9 239.38"/><polygon class="cls-2" points="611.62 307.07 596.87 264.32 612.38 243.06 625.01 235.15 637.38 243.06 653.71 265.63 682.96 246.18 650.01 299.22 634.37 307.07 611.62 307.07"/><path class="cls-2" d="M670.54,209a116.82,116.82,0,0,1,4.77,22.85L680.08,214Z"/><polygon class="cls-1" points="454.58 266.99 465.87 297.64 499.59 344.56 511.59 351.81 534.34 351.81 549.99 343.95 582.94 290.91 611 239.29 580.34 256.84 555.74 242.89 555.17 200.54 532.92 179.15 510.24 192.53 496.27 234.61 470.56 259.06 453.15 243.27 454.58 266.99"/><path class="cls-2" d="M469.87,289.14l5.59,2.81s.22-24.79,7.39-43.13l-12.29,10.25-10.15-9.27C457.86,269.49,469.87,289.14,469.87,289.14Z"/><path class="cls-19" d="M475.46,292l20.83,12L511,284.11h28.33L554.46,306l18.06-12.21,3.77-2.46s1.27-61.22-38.82-79.94A28.43,28.43,0,0,0,514,211C474.62,228.35,475.46,292,475.46,292Z"/><polygon class="cls-1" points="510.96 284.11 525.07 275.65 539.29 284.11 510.96 284.11"/><polygon class="cls-2" points="511.68 351.81 496.93 309.06 512.44 287.79 525.07 279.88 537.44 287.79 553.77 310.37 583.02 290.91 550.07 343.95 534.43 351.81 511.68 351.81"/><path class="cls-2" d="M570.6,253.77a117,117,0,0,1,4.77,22.85l4.77-17.86Z"/><polygon class="cls-1" points="101.37 177.35 112.66 208 146.38 254.92 158.38 262.17 181.13 262.17 196.78 254.31 229.73 201.27 257.79 149.66 227.13 167.2 202.52 153.25 201.95 110.9 179.7 89.51 157.02 102.89 143.06 144.97 117.35 169.43 99.94 153.63 101.37 177.35"/><path class="cls-2" d="M116.65,199.5l5.59,2.81s.23-24.79,7.4-43.12l-12.29,10.24-10.15-9.27C104.65,179.85,116.65,199.5,116.65,199.5Z"/><path class="cls-20" d="M122.24,202.31l20.84,12,14.66-19.83h28.34l15.16,21.83,18.07-12.21,3.77-2.46s1.26-61.22-38.82-79.94a28.43,28.43,0,0,0-23.5-.36C121.41,138.71,122.24,202.31,122.24,202.31Z"/><polygon class="cls-1" points="157.75 194.47 171.86 186.01 186.08 194.47 157.75 194.47"/><polygon class="cls-2" points="158.46 262.17 143.71 219.42 159.23 198.15 171.86 190.24 184.23 198.15 200.56 220.73 229.81 201.27 196.86 254.31 181.21 262.17 158.46 262.17"/><path class="cls-2" d="M217.39,164.14A116.82,116.82,0,0,1,222.16,187l4.77-17.87Z"/><polygon class="cls-1" points="185.88 222.31 197.16 252.95 230.89 299.87 242.89 307.12 265.64 307.12 281.29 299.26 314.24 246.22 342.3 194.61 311.64 212.16 287.03 198.21 286.46 155.85 264.21 134.47 241.53 147.84 227.57 189.93 201.86 214.38 184.45 198.59 185.88 222.31"/><path class="cls-2" d="M201.16,244.45l5.59,2.81s.23-24.79,7.4-43.12l-12.29,10.24-10.15-9.27C189.15,224.8,201.16,244.45,201.16,244.45Z"/><path class="cls-21" d="M206.75,247.26l20.84,12,14.66-19.83h28.34l15.16,21.83,18.07-12.2,3.77-2.46s1.26-61.23-38.82-79.95a28.5,28.5,0,0,0-23.5-.36C205.91,183.66,206.75,247.26,206.75,247.26Z"/><polygon class="cls-1" points="242.25 239.43 256.37 230.96 270.59 239.43 242.25 239.43"/><polygon class="cls-2" points="242.97 307.12 228.22 264.37 243.74 243.1 256.37 235.2 268.74 243.1 285.07 265.68 314.32 246.22 281.37 299.26 265.72 307.12 242.97 307.12"/><path class="cls-2" d="M301.9,209.09a116.82,116.82,0,0,1,4.77,22.85l4.77-17.87Z"/><polygon class="cls-1" points="1.43 222.09 12.72 252.73 46.44 299.65 58.44 306.9 81.19 306.9 96.84 299.04 129.79 246 157.85 194.39 127.19 211.93 102.58 197.98 102.01 155.63 79.76 134.25 57.08 147.62 43.12 189.71 17.41 214.16 0 198.37 1.43 222.09"/><path class="cls-2" d="M16.71,244.23,22.3,247s.23-24.79,7.4-43.12L17.41,214.16,7.26,204.89C4.71,224.58,16.71,244.23,16.71,244.23Z"/><path class="cls-22" d="M22.3,247l20.84,12L57.8,239.21H86.14L101.3,261l18.07-12.21,3.77-2.46s1.26-61.22-38.82-79.94a28.43,28.43,0,0,0-23.5-.36C21.47,183.44,22.3,247,22.3,247Z"/><polygon class="cls-1" points="57.8 239.21 71.92 230.74 86.14 239.21 57.8 239.21"/><polygon class="cls-2" points="58.52 306.9 43.77 264.15 59.29 242.88 71.92 234.97 84.29 242.88 100.62 265.46 129.87 246 96.92 299.04 81.27 306.9 58.52 306.9"/><path class="cls-2" d="M117.45,208.87a116.82,116.82,0,0,1,4.77,22.85L127,213.85Z"/><polygon class="cls-1" points="85.94 267.04 97.22 297.68 130.95 344.6 142.95 351.85 165.7 351.85 181.35 344 214.3 290.95 242.36 239.34 211.7 256.89 187.09 242.94 186.52 200.59 164.27 179.2 141.59 192.57 127.63 234.66 101.92 259.11 84.51 243.32 85.94 267.04"/><path class="cls-2" d="M101.22,289.19l5.59,2.8s.23-24.79,7.4-43.12l-12.29,10.24-10.15-9.27C89.21,269.54,101.22,289.19,101.22,289.19Z"/><path class="cls-23" d="M106.81,292l20.84,12,14.66-19.83h28.34L185.81,306l18.07-12.2,3.77-2.46s1.26-61.23-38.82-79.95a28.47,28.47,0,0,0-23.5-.35C106,228.39,106.81,292,106.81,292Z"/><polygon class="cls-1" points="142.31 284.16 156.43 275.69 170.65 284.16 142.31 284.16"/><polygon class="cls-2" points="143.03 351.85 128.28 309.1 143.8 287.83 156.43 279.93 168.8 287.83 185.13 310.41 214.38 290.95 181.43 344 165.78 351.85 143.03 351.85"/><path class="cls-2" d="M202,253.82a116.82,116.82,0,0,1,4.77,22.85l4.77-17.86Z"/><polygon class="cls-1" points="270.24 267.08 281.53 297.73 315.25 344.65 327.25 351.9 350 351.9 365.65 344.04 398.6 291 426.66 239.38 396 256.93 371.4 242.98 370.83 200.63 348.58 179.24 325.9 192.62 311.94 234.71 286.23 259.16 268.81 243.36 270.24 267.08"/><path class="cls-2" d="M285.53,289.23l5.59,2.81s.23-24.79,7.39-43.13l-12.29,10.25-10.14-9.27C273.52,269.58,285.53,289.23,285.53,289.23Z"/><path class="cls-24" d="M291.12,292,312,304l14.67-19.83H355L370.12,306l18.07-12.21,3.76-2.46s1.27-61.22-38.81-79.94a28.45,28.45,0,0,0-23.51-.36C290.28,228.44,291.12,292,291.12,292Z"/><polygon class="cls-1" points="326.62 284.2 340.73 275.74 354.95 284.2 326.62 284.2"/><polygon class="cls-2" points="327.34 351.9 312.59 309.15 328.11 287.88 340.73 279.97 353.11 287.88 369.44 310.46 398.69 291 365.74 344.04 350.09 351.9 327.34 351.9"/><path class="cls-2" d="M386.26,253.87A116.31,116.31,0,0,1,391,276.72l4.76-17.87Z"/><polygon class="cls-1" points="170.3 311.82 181.59 342.46 215.32 389.38 227.32 396.63 250.06 396.63 265.71 388.77 298.66 335.73 326.73 284.12 296.07 301.66 271.46 287.71 270.89 245.36 248.64 223.97 225.96 237.35 212 279.44 186.28 303.89 168.88 288.1 170.3 311.82"/><path class="cls-2" d="M185.59,334l5.59,2.81s.23-24.79,7.39-43.12l-12.29,10.24-10.14-9.27C173.58,314.31,185.59,334,185.59,334Z"/><path class="cls-25" d="M191.18,336.77l20.83,12,14.67-19.83H255l15.17,21.83,18.07-12.21L292,336.1s1.27-61.22-38.81-79.94a28.45,28.45,0,0,0-23.51-.36C190.34,273.17,191.18,336.77,191.18,336.77Z"/><polygon class="cls-1" points="226.68 328.94 240.79 320.47 255.01 328.94 226.68 328.94"/><polygon class="cls-2" points="227.4 396.63 212.65 353.88 228.17 332.61 240.79 324.7 253.17 332.61 269.5 355.19 298.75 335.73 265.8 388.77 250.15 396.63 227.4 396.63"/><path class="cls-2" d="M286.32,298.6a116.31,116.31,0,0,1,4.78,22.85l4.76-17.87Z"/><polygon class="cls-1" points="354.57 311.77 365.86 342.42 399.58 389.34 411.58 396.59 434.33 396.59 449.98 388.73 482.93 335.69 510.99 284.08 480.33 301.62 455.73 287.67 455.16 245.32 432.91 223.93 410.23 237.31 396.26 279.4 370.55 303.85 353.14 288.06 354.57 311.77"/><path class="cls-2" d="M369.86,333.92l5.59,2.81s.22-24.79,7.39-43.12l-12.29,10.24-10.15-9.27C357.85,314.27,369.86,333.92,369.86,333.92Z"/><path class="cls-26" d="M375.45,336.73l20.83,12L411,328.9h28.33l15.17,21.83,18.06-12.21,3.77-2.46s1.27-61.22-38.81-79.94a28.45,28.45,0,0,0-23.51-.36C374.61,273.13,375.45,336.73,375.45,336.73Z"/><polygon class="cls-1" points="410.95 328.9 425.06 320.43 439.28 328.9 410.95 328.9"/><polygon class="cls-2" points="411.67 396.59 396.92 353.84 412.44 332.57 425.06 324.66 437.44 332.57 453.76 355.15 483.01 335.69 450.06 388.73 434.42 396.59 411.67 396.59"/><path class="cls-2" d="M470.59,298.56a117.21,117.21,0,0,1,4.78,22.85l4.76-17.87Z"/><polygon class="cls-1" points="254.63 356.51 265.92 387.15 299.64 434.07 311.64 441.32 334.39 441.32 350.04 433.46 382.99 380.42 411.05 328.81 380.39 346.35 355.79 332.4 355.22 290.05 332.97 268.67 310.29 282.04 296.32 324.13 270.61 348.58 253.2 332.79 254.63 356.51"/><path class="cls-2" d="M269.92,378.65l5.59,2.81s.22-24.79,7.39-43.12l-12.29,10.24-10.15-9.27C257.91,359,269.92,378.65,269.92,378.65Z"/><path class="cls-27" d="M275.51,381.46l20.83,12L311,373.63h28.33l15.17,21.83,18.07-12.2,3.76-2.47s1.27-61.22-38.81-79.94a28.49,28.49,0,0,0-23.51-.36C274.67,317.86,275.51,381.46,275.51,381.46Z"/><polygon class="cls-1" points="311.01 373.63 325.12 365.16 339.34 373.63 311.01 373.63"/><polygon class="cls-2" points="311.73 441.32 296.98 398.57 312.5 377.3 325.12 369.39 337.5 377.3 353.82 399.88 383.07 380.42 350.13 433.46 334.48 441.32 311.73 441.32"/><path class="cls-2" d="M370.65,343.29a116.31,116.31,0,0,1,4.78,22.85l4.76-17.87Z"/><path class="cls-28" d="M793.2,205h-7.83V197.2a3.59,3.59,0,1,0-7.17,0V205h-7.83a3.59,3.59,0,1,0,0,7.17h7.83V220a3.59,3.59,0,0,0,7.17,0V212.2h7.83a3.59,3.59,0,0,0,0-7.17Z"/></g></svg>