<svg xmlns="http://www.w3.org/2000/svg" xmlns:xlink="http://www.w3.org/1999/xlink" viewBox="0 0 1041.53 351.81"><defs><style>.cls-1{fill:#62abbc;}.cls-2{fill:#3d838e;opacity:0.51;}.cls-3{fill:url(#linear-gradient);}.cls-4{fill:url(#linear-gradient-2);}.cls-5{fill:url(#linear-gradient-3);}.cls-6{fill:url(#linear-gradient-4);}.cls-7{fill:url(#linear-gradient-5);}.cls-8{fill:url(#linear-gradient-6);}.cls-9{fill:url(#linear-gradient-7);}.cls-10{fill:url(#linear-gradient-8);}.cls-11{fill:url(#linear-gradient-9);}.cls-12{fill:url(#linear-gradient-10);}.cls-13{fill:url(#linear-gradient-11);}.cls-14{fill:url(#linear-gradient-12);}.cls-15{fill:url(#linear-gradient-13);}.cls-16{fill:url(#linear-gradient-14);}.cls-17{fill:#f05023;}</style><linearGradient id="linear-gradient" x1="122.24" y1="78.13" x2="223.08" y2="78.13" gradientUnits="userSpaceOnUse"><stop offset="0" stop-color="#fbb040"/><stop offset="0.39" stop-color="#f9ae41"/><stop offset="0.59" stop-color="#f1a845"/><stop offset="0.74" stop-color="#e49e4b"/><stop offset="0.87" stop-color="#d18f55"/><stop offset="0.99" stop-color="#b97c60"/><stop offset="1" stop-color="#b67a62"/></linearGradient><linearGradient id="linear-gradient-2" x1="206.75" y1="123.08" x2="307.59" y2="123.08" xlink:href="#linear-gradient"/><linearGradient id="linear-gradient-3" x1="22.3" y1="122.86" x2="123.14" y2="122.86" xlink:href="#linear-gradient"/><linearGradient id="linear-gradient-4" x1="106.81" y1="167.81" x2="207.65" y2="167.81" xlink:href="#linear-gradient"/><linearGradient id="linear-gradient-5" x1="291.12" y1="167.86" x2="391.96" y2="167.86" xlink:href="#linear-gradient"/><linearGradient id="linear-gradient-6" x1="191.18" y1="212.59" x2="292.02" y2="212.59" xlink:href="#linear-gradient"/><linearGradient id="linear-gradient-7" x1="375.45" y1="212.55" x2="476.29" y2="212.55" xlink:href="#linear-gradient"/><linearGradient id="linear-gradient-8" x1="275.51" y1="257.28" x2="376.35" y2="257.28" xlink:href="#linear-gradient"/><linearGradient id="linear-gradient-9" x1="737.11" y1="100.47" x2="837.95" y2="100.47" xlink:href="#linear-gradient"/><linearGradient id="linear-gradient-10" x1="821.62" y1="145.43" x2="922.46" y2="145.43" xlink:href="#linear-gradient"/><linearGradient id="linear-gradient-11" x1="637.17" y1="145.21" x2="738.01" y2="145.21" xlink:href="#linear-gradient"/><linearGradient id="linear-gradient-12" x1="721.68" y1="190.16" x2="822.52" y2="190.16" xlink:href="#linear-gradient"/><linearGradient id="linear-gradient-13" x1="905.99" y1="190.2" x2="1006.83" y2="190.2" xlink:href="#linear-gradient"/><linearGradient id="linear-gradient-14" x1="806.05" y1="234.94" x2="906.89" y2="234.94" xlink:href="#linear-gradient"/></defs><title>V2_R3</title><g id="Layer_2" data-name="Layer 2"><polygon class="cls-1" points="101.37 87.84 112.66 118.49 146.38 165.4 158.38 172.65 181.13 172.65 196.78 164.8 229.73 111.76 257.79 60.14 227.13 77.69 202.52 63.74 201.95 21.39 179.7 0 157.02 13.37 143.06 55.46 117.35 79.91 99.94 64.12 101.37 87.84"/><path class="cls-2" d="M116.65,110l5.59,2.81s.23-24.79,7.4-43.13L117.35,79.91,107.2,70.64C104.65,90.34,116.65,110,116.65,110Z"/><path class="cls-3" d="M122.24,112.8l20.84,12L157.74,105h28.34l15.16,21.84,18.07-12.21,3.77-2.46s1.26-61.22-38.82-79.94a28.43,28.43,0,0,0-23.5-.36C121.41,49.19,122.24,112.8,122.24,112.8Z"/><polygon class="cls-1" points="157.75 104.96 171.86 96.5 186.08 104.96 157.75 104.96"/><polygon class="cls-2" points="158.46 172.65 143.71 129.9 159.23 108.64 171.86 100.73 184.23 108.64 200.56 131.22 229.81 111.76 196.86 164.8 181.21 172.65 158.46 172.65"/><path class="cls-2" d="M217.39,74.62a116.82,116.82,0,0,1,4.77,22.85l4.77-17.86Z"/><polygon class="cls-1" points="185.88 132.79 197.16 163.44 230.89 210.36 242.89 217.61 265.64 217.61 281.29 209.75 314.24 156.71 342.3 105.1 311.64 122.64 287.03 108.69 286.46 66.34 264.21 44.95 241.53 58.33 227.57 100.42 201.86 124.87 184.45 109.07 185.88 132.79"/><path class="cls-2" d="M201.16,154.94l5.59,2.81s.23-24.79,7.4-43.12l-12.29,10.24-10.15-9.27C189.15,135.29,201.16,154.94,201.16,154.94Z"/><path class="cls-4" d="M206.75,157.75l20.84,12,14.66-19.83h28.34l15.16,21.83,18.07-12.21,3.77-2.46s1.26-61.22-38.82-79.94a28.43,28.43,0,0,0-23.5-.36C205.91,94.15,206.75,157.75,206.75,157.75Z"/><polygon class="cls-1" points="242.25 149.92 256.37 141.45 270.59 149.92 242.25 149.92"/><polygon class="cls-2" points="242.97 217.61 228.22 174.86 243.74 153.59 256.37 145.68 268.74 153.59 285.07 176.17 314.32 156.71 281.37 209.75 265.72 217.61 242.97 217.61"/><path class="cls-2" d="M301.9,119.58a116.82,116.82,0,0,1,4.77,22.85l4.77-17.87Z"/><polygon class="cls-1" points="1.43 132.57 12.72 163.22 46.44 210.14 58.44 217.39 81.19 217.39 96.84 209.53 129.79 156.49 157.85 104.87 127.19 122.42 102.58 108.47 102.01 66.12 79.76 44.73 57.08 58.1 43.12 100.19 17.41 124.64 0 108.85 1.43 132.57"/><path class="cls-2" d="M16.71,154.72l5.59,2.81s.23-24.79,7.4-43.13L17.41,124.64,7.26,115.38C4.71,135.07,16.71,154.72,16.71,154.72Z"/><path class="cls-5" d="M22.3,157.53l20.84,12L57.8,149.69H86.14l15.16,21.84,18.07-12.21,3.77-2.46s1.26-61.22-38.82-79.94a28.43,28.43,0,0,0-23.5-.36C21.47,93.92,22.3,157.53,22.3,157.53Z"/><polygon class="cls-1" points="57.8 149.69 71.92 141.23 86.14 149.69 57.8 149.69"/><polygon class="cls-2" points="58.52 217.39 43.77 174.64 59.29 153.37 71.92 145.46 84.29 153.37 100.62 175.95 129.87 156.49 96.92 209.53 81.27 217.39 58.52 217.39"/><path class="cls-2" d="M117.45,119.35a117,117,0,0,1,4.77,22.85L127,124.34Z"/><polygon class="cls-1" points="85.94 177.53 97.22 208.17 130.95 255.09 142.95 262.34 165.7 262.34 181.35 254.48 214.3 201.44 242.36 149.83 211.7 167.37 187.09 153.43 186.52 111.07 164.27 89.69 141.59 103.06 127.63 145.15 101.92 169.6 84.51 153.81 85.94 177.53"/><path class="cls-2" d="M101.22,199.67l5.59,2.81s.23-24.79,7.4-43.12L101.92,169.6l-10.15-9.27C89.21,180,101.22,199.67,101.22,199.67Z"/><path class="cls-6" d="M106.81,202.48l20.84,12,14.66-19.83h28.34l15.16,21.83,18.07-12.21,3.77-2.46s1.26-61.22-38.82-79.94a28.43,28.43,0,0,0-23.5-.36C106,138.88,106.81,202.48,106.81,202.48Z"/><polygon class="cls-1" points="142.31 194.65 156.43 186.18 170.65 194.65 142.31 194.65"/><polygon class="cls-2" points="143.03 262.34 128.28 219.59 143.8 198.32 156.43 190.41 168.8 198.32 185.13 220.9 214.38 201.44 181.43 254.48 165.78 262.34 143.03 262.34"/><path class="cls-2" d="M202,164.31a116.82,116.82,0,0,1,4.77,22.85l4.77-17.87Z"/><polygon class="cls-1" points="270.24 177.57 281.53 208.22 315.25 255.13 327.25 262.38 350 262.38 365.65 254.53 398.6 201.49 426.66 149.87 396 167.42 371.4 153.47 370.83 111.12 348.58 89.73 325.9 103.1 311.94 145.19 286.23 169.64 268.81 153.85 270.24 177.57"/><path class="cls-2" d="M285.53,199.72l5.59,2.81s.23-24.8,7.39-43.13l-12.29,10.24-10.14-9.27C273.52,180.07,285.53,199.72,285.53,199.72Z"/><path class="cls-7" d="M291.12,202.53l20.83,12,14.67-19.84H355l15.17,21.84,18.07-12.21,3.76-2.46s1.27-61.22-38.81-79.94a28.45,28.45,0,0,0-23.51-.36C290.28,138.92,291.12,202.53,291.12,202.53Z"/><polygon class="cls-1" points="326.62 194.69 340.73 186.23 354.95 194.69 326.62 194.69"/><polygon class="cls-2" points="327.34 262.38 312.59 219.63 328.11 198.37 340.73 190.46 353.11 198.37 369.44 220.94 398.69 201.49 365.74 254.53 350.09 262.38 327.34 262.38"/><path class="cls-2" d="M386.26,164.35A116.31,116.31,0,0,1,391,187.2l4.76-17.86Z"/><polygon class="cls-1" points="170.3 222.3 181.59 252.95 215.32 299.87 227.32 307.12 250.06 307.12 265.71 299.26 298.66 246.22 326.73 194.6 296.07 212.15 271.46 198.2 270.89 155.85 248.64 134.46 225.96 147.84 212 189.92 186.28 214.37 168.88 198.58 170.3 222.3"/><path class="cls-2" d="M185.59,244.45l5.59,2.81s.23-24.79,7.39-43.13l-12.29,10.24-10.14-9.26C173.58,224.8,185.59,244.45,185.59,244.45Z"/><path class="cls-8" d="M191.18,247.26l20.83,12,14.67-19.84H255l15.17,21.84,18.07-12.21,3.76-2.46s1.27-61.22-38.81-79.94a28.45,28.45,0,0,0-23.51-.36C190.34,183.65,191.18,247.26,191.18,247.26Z"/><polygon class="cls-1" points="226.68 239.42 240.79 230.96 255.01 239.42 226.68 239.42"/><polygon class="cls-2" points="227.4 307.12 212.65 264.37 228.17 243.1 240.79 235.19 253.17 243.1 269.5 265.68 298.75 246.22 265.8 299.26 250.15 307.12 227.4 307.12"/><path class="cls-2" d="M286.32,209.08a116.31,116.31,0,0,1,4.78,22.85l4.76-17.86Z"/><polygon class="cls-1" points="354.57 222.26 365.86 252.91 399.58 299.82 411.58 307.07 434.33 307.07 449.98 299.22 482.93 246.18 510.99 194.56 480.33 212.11 455.73 198.16 455.16 155.81 432.91 134.42 410.23 147.79 396.26 189.88 370.55 214.33 353.14 198.54 354.57 222.26"/><path class="cls-2" d="M369.86,244.41l5.59,2.81s.22-24.79,7.39-43.13l-12.29,10.24-10.15-9.27C357.85,224.76,369.86,244.41,369.86,244.41Z"/><path class="cls-9" d="M375.45,247.22l20.83,12L411,239.38h28.33l15.17,21.84L472.51,249l3.77-2.46s1.27-61.22-38.81-79.94a28.45,28.45,0,0,0-23.51-.36C374.61,183.61,375.45,247.22,375.45,247.22Z"/><polygon class="cls-1" points="410.95 239.38 425.06 230.92 439.28 239.38 410.95 239.38"/><polygon class="cls-2" points="411.67 307.07 396.92 264.32 412.44 243.06 425.06 235.15 437.44 243.06 453.76 265.63 483.01 246.18 450.06 299.22 434.42 307.07 411.67 307.07"/><path class="cls-2" d="M470.59,209a117.21,117.21,0,0,1,4.78,22.85L480.13,214Z"/><polygon class="cls-1" points="254.63 266.99 265.92 297.64 299.64 344.56 311.64 351.81 334.39 351.81 350.04 343.95 382.99 290.91 411.05 239.29 380.39 256.84 355.79 242.89 355.22 200.54 332.97 179.15 310.29 192.53 296.32 234.61 270.61 259.06 253.2 243.27 254.63 266.99"/><path class="cls-2" d="M269.92,289.14l5.59,2.81s.22-24.79,7.39-43.13l-12.29,10.25-10.15-9.27C257.91,269.49,269.92,289.14,269.92,289.14Z"/><path class="cls-10" d="M275.51,292l20.83,12L311,284.11h28.33L354.51,306l18.07-12.21,3.76-2.46s1.27-61.22-38.81-79.94A28.45,28.45,0,0,0,314,211C274.67,228.35,275.51,292,275.51,292Z"/><polygon class="cls-1" points="311.01 284.11 325.12 275.65 339.34 284.11 311.01 284.11"/><polygon class="cls-2" points="311.73 351.81 296.98 309.06 312.5 287.79 325.12 279.88 337.5 287.79 353.82 310.37 383.07 290.91 350.13 343.95 334.48 351.81 311.73 351.81"/><path class="cls-2" d="M370.65,253.77a116.54,116.54,0,0,1,4.78,22.85l4.76-17.86Z"/><polygon class="cls-1" points="716.24 110.19 727.52 140.83 761.25 187.75 773.25 195 796 195 811.65 187.14 844.6 134.1 872.66 82.49 842 100.03 817.39 86.08 816.82 43.73 794.57 22.34 771.89 35.72 757.93 77.81 732.22 102.26 714.81 86.47 716.24 110.19"/><path class="cls-2" d="M731.52,132.33l5.59,2.81s.23-24.79,7.39-43.12l-12.28,10.24L722.07,93C719.51,112.68,731.52,132.33,731.52,132.33Z"/><path class="cls-11" d="M737.11,135.14l20.84,12,14.66-19.83H801l15.16,21.83,18.07-12.2,3.77-2.47s1.26-61.22-38.82-79.94a28.5,28.5,0,0,0-23.5-.36C736.27,71.54,737.11,135.14,737.11,135.14Z"/><polygon class="cls-1" points="772.61 127.31 786.72 118.84 800.95 127.31 772.61 127.31"/><polygon class="cls-2" points="773.33 195 758.58 152.25 774.1 130.98 786.72 123.08 799.1 130.98 815.43 153.56 844.68 134.1 811.73 187.14 796.08 195 773.33 195"/><path class="cls-2" d="M832.26,97A116.82,116.82,0,0,1,837,119.82L841.8,102Z"/><polygon class="cls-1" points="800.74 155.14 812.03 185.78 845.76 232.7 857.76 239.95 880.51 239.95 896.15 232.1 929.11 179.06 957.17 127.44 926.51 144.99 901.9 131.04 901.33 88.69 879.08 67.3 856.4 80.67 842.44 122.76 816.73 147.21 799.32 131.42 800.74 155.14"/><path class="cls-2" d="M816,177.29l5.59,2.8S821.85,155.3,829,137l-12.28,10.24-10.15-9.27C804,157.64,816,177.29,816,177.29Z"/><path class="cls-12" d="M821.62,180.09l20.83,12,14.67-19.83h28.33l15.17,21.83,18.07-12.2,3.76-2.46s1.27-61.23-38.81-79.95a28.47,28.47,0,0,0-23.5-.35C820.78,116.49,821.62,180.09,821.62,180.09Z"/><polygon class="cls-1" points="857.12 172.26 871.23 163.8 885.46 172.26 857.12 172.26"/><polygon class="cls-2" points="857.84 239.95 843.09 197.2 858.61 175.94 871.23 168.03 883.61 175.94 899.94 198.51 929.19 179.06 896.24 232.1 880.59 239.95 857.84 239.95"/><path class="cls-2" d="M916.77,141.92a116.82,116.82,0,0,1,4.77,22.85l4.76-17.86Z"/><polygon class="cls-1" points="616.29 154.92 627.58 185.56 661.31 232.48 673.31 239.73 696.06 239.73 711.71 231.88 744.66 178.83 772.72 127.22 742.06 144.77 717.45 130.82 716.88 88.46 694.63 67.08 671.95 80.45 657.99 122.54 632.28 146.99 614.87 131.2 616.29 154.92"/><path class="cls-2" d="M631.58,177.06l5.59,2.81s.23-24.79,7.4-43.12L632.28,147l-10.15-9.27C619.57,157.41,631.58,177.06,631.58,177.06Z"/><path class="cls-13" d="M637.17,179.87l20.84,12L672.67,172H701l15.16,21.83,18.07-12.2,3.77-2.46s1.26-61.23-38.82-79.95a28.5,28.5,0,0,0-23.5-.36C636.33,116.27,637.17,179.87,637.17,179.87Z"/><polygon class="cls-1" points="672.67 172.04 686.78 163.57 701.01 172.04 672.67 172.04"/><polygon class="cls-2" points="673.39 239.73 658.64 196.98 674.16 175.71 686.78 167.81 699.16 175.71 715.49 198.29 744.74 178.83 711.79 231.88 696.14 239.73 673.39 239.73"/><path class="cls-2" d="M732.32,141.7a116.82,116.82,0,0,1,4.77,22.85l4.77-17.87Z"/><polygon class="cls-1" points="700.8 199.87 712.09 230.52 745.82 277.44 757.82 284.69 780.57 284.69 796.22 276.83 829.16 223.79 857.23 172.17 826.57 189.72 801.96 175.77 801.39 133.42 779.14 112.03 756.46 125.4 742.5 167.49 716.79 191.94 699.38 176.15 700.8 199.87"/><path class="cls-2" d="M716.09,222l5.59,2.81s.23-24.79,7.39-43.13l-12.28,10.24-10.15-9.27C704.08,202.37,716.09,222,716.09,222Z"/><path class="cls-14" d="M721.68,224.83l20.83,12L757.18,217h28.33l15.17,21.84,18.07-12.21,3.76-2.46s1.27-61.22-38.81-79.94a28.43,28.43,0,0,0-23.5-.36C720.84,161.22,721.68,224.83,721.68,224.83Z"/><polygon class="cls-1" points="757.18 216.99 771.29 208.53 785.51 216.99 757.18 216.99"/><polygon class="cls-2" points="757.9 284.69 743.15 241.94 758.67 220.67 771.29 212.76 783.67 220.67 800 243.25 829.25 223.79 796.3 276.83 780.65 284.69 757.9 284.69"/><path class="cls-2" d="M816.83,186.65a116.82,116.82,0,0,1,4.77,22.85l4.76-17.86Z"/><polygon class="cls-1" points="885.11 199.92 896.4 230.56 930.12 277.48 942.12 284.73 964.87 284.73 980.52 276.87 1013.47 223.83 1041.53 172.22 1010.87 189.76 986.27 175.81 985.7 133.46 963.45 112.08 940.77 125.45 926.8 167.54 901.09 191.99 883.68 176.2 885.11 199.92"/><path class="cls-2" d="M900.4,222.06l5.59,2.81s.22-24.79,7.39-43.12L901.09,192l-10.15-9.27C888.39,202.41,900.4,222.06,900.4,222.06Z"/><path class="cls-15" d="M906,224.87l20.83,12L941.49,217h28.33L985,238.87l18.06-12.21,3.77-2.46S1008.09,163,968,144.26a28.49,28.49,0,0,0-23.51-.36C905.15,161.27,906,224.87,906,224.87Z"/><polygon class="cls-1" points="941.49 217.04 955.6 208.57 969.82 217.04 941.49 217.04"/><polygon class="cls-2" points="942.21 284.73 927.46 241.98 942.98 220.71 955.6 212.81 967.98 220.71 984.3 243.29 1013.55 223.83 980.61 276.87 964.96 284.73 942.21 284.73"/><path class="cls-2" d="M1001.13,186.7a117.21,117.21,0,0,1,4.78,22.85l4.76-17.87Z"/><polygon class="cls-1" points="785.17 244.65 796.46 275.29 830.18 322.21 842.18 329.46 864.93 329.46 880.58 321.61 913.53 268.56 941.59 216.95 910.93 234.5 886.33 220.55 885.76 178.19 863.51 156.81 840.83 170.18 826.87 212.27 801.15 236.72 783.74 220.93 785.17 244.65"/><path class="cls-2" d="M800.46,266.79l5.59,2.81s.22-24.79,7.39-43.12l-12.29,10.24L791,227.45C788.45,247.14,800.46,266.79,800.46,266.79Z"/><path class="cls-16" d="M806.05,269.6l20.83,12,14.67-19.83h28.33l15.17,21.83,18.07-12.2,3.76-2.46s1.27-61.23-38.81-79.95a28.53,28.53,0,0,0-23.51-.36C805.21,206,806.05,269.6,806.05,269.6Z"/><polygon class="cls-1" points="841.55 261.77 855.66 253.3 869.88 261.77 841.55 261.77"/><polygon class="cls-2" points="842.27 329.46 827.52 286.71 843.03 265.44 855.66 257.54 868.03 265.44 884.37 288.02 913.62 268.56 880.66 321.61 865.02 329.46 842.27 329.46"/><path class="cls-2" d="M901.19,231.43A116.31,116.31,0,0,1,906,254.28l4.76-17.87Z"/><path class="cls-17" d="M577,182.39h-7.83v-7.83a3.59,3.59,0,1,0-7.17,0v7.83h-7.83a3.59,3.59,0,1,0,0,7.17H562v7.83a3.59,3.59,0,0,0,7.17,0v-7.83H577a3.59,3.59,0,0,0,0-7.17Z"/></g></svg>