<svg xmlns="http://www.w3.org/2000/svg" xmlns:xlink="http://www.w3.org/1999/xlink" viewBox="0 0 3054.45 664.88"><defs><style>.cls-1{fill:#62abbc;}.cls-2{fill:#3d838e;opacity:0.51;}.cls-3{fill:url(#linear-gradient);}.cls-4{fill:url(#linear-gradient-2);}.cls-5{fill:url(#linear-gradient-3);}.cls-6{fill:url(#linear-gradient-4);}.cls-7{fill:url(#linear-gradient-5);}.cls-8{fill:url(#linear-gradient-6);}.cls-9{fill:url(#linear-gradient-7);}.cls-10{fill:url(#linear-gradient-8);}.cls-11{fill:url(#linear-gradient-9);}.cls-12{fill:url(#linear-gradient-10);}.cls-13{fill:url(#linear-gradient-11);}.cls-14{fill:url(#linear-gradient-12);}.cls-15{fill:url(#linear-gradient-13);}.cls-16{fill:url(#linear-gradient-14);}.cls-17{fill:url(#linear-gradient-15);}.cls-18{fill:url(#linear-gradient-16);}.cls-19{fill:url(#linear-gradient-17);}.cls-20{fill:url(#linear-gradient-18);}.cls-21{fill:url(#linear-gradient-19);}.cls-22{fill:url(#linear-gradient-20);}.cls-23{fill:url(#linear-gradient-21);}.cls-24{fill:url(#linear-gradient-22);}.cls-25{fill:url(#linear-gradient-23);}.cls-26{fill:url(#linear-gradient-24);}.cls-27{fill:url(#linear-gradient-25);}.cls-28{fill:url(#linear-gradient-26);}.cls-29{fill:url(#linear-gradient-27);}.cls-30{fill:url(#linear-gradient-28);}.cls-31{fill:url(#linear-gradient-29);}.cls-32{fill:url(#linear-gradient-30);}.cls-33{fill:url(#linear-gradient-31);}.cls-34{fill:url(#linear-gradient-32);}.cls-35{fill:url(#linear-gradient-33);}.cls-36{fill:url(#linear-gradient-34);}.cls-37{fill:url(#linear-gradient-35);}.cls-38{fill:url(#linear-gradient-36);}.cls-39{fill:url(#linear-gradient-37);}.cls-40{fill:url(#linear-gradient-38);}.cls-41{fill:url(#linear-gradient-39);}.cls-42{fill:url(#linear-gradient-40);}.cls-43{fill:url(#linear-gradient-41);}.cls-44{fill:url(#linear-gradient-42);}.cls-45{fill:url(#linear-gradient-43);}.cls-46{fill:url(#linear-gradient-44);}.cls-47{fill:url(#linear-gradient-45);}.cls-48{fill:url(#linear-gradient-46);}.cls-49{fill:url(#linear-gradient-47);}.cls-50{fill:url(#linear-gradient-48);}.cls-51{fill:url(#linear-gradient-49);}.cls-52{fill:url(#linear-gradient-50);}.cls-53{fill:url(#linear-gradient-51);}.cls-54{fill:url(#linear-gradient-52);}.cls-55{fill:url(#linear-gradient-53);}.cls-56{fill:url(#linear-gradient-54);}.cls-57{fill:url(#linear-gradient-55);}.cls-58{fill:url(#linear-gradient-56);}.cls-59{fill:url(#linear-gradient-57);}.cls-60{fill:url(#linear-gradient-58);}.cls-61{fill:url(#linear-gradient-59);}.cls-62{fill:url(#linear-gradient-60);}.cls-63{fill:url(#linear-gradient-61);}.cls-64{fill:url(#linear-gradient-62);}.cls-65{fill:url(#linear-gradient-63);}.cls-66{fill:url(#linear-gradient-64);}.cls-67{fill:url(#linear-gradient-65);}.cls-68{fill:url(#linear-gradient-66);}.cls-69{fill:url(#linear-gradient-67);}.cls-70{fill:url(#linear-gradient-68);}.cls-71{fill:url(#linear-gradient-69);}.cls-72{fill:url(#linear-gradient-70);}.cls-73{fill:url(#linear-gradient-71);}.cls-74{fill:url(#linear-gradient-72);}.cls-75{fill:#f05023;}</style><linearGradient id="linear-gradient" x1="322.2" y1="78.13" x2="423.04" y2="78.13" gradientUnits="userSpaceOnUse"><stop offset="0" stop-color="#fbb040"/><stop offset="0.39" stop-color="#f9ae41"/><stop offset="0.59" stop-color="#f1a845"/><stop offset="0.74" stop-color="#e49e4b"/><stop offset="0.87" stop-color="#d18f55"/><stop offset="0.99" stop-color="#b97c60"/><stop offset="1" stop-color="#b67a62"/></linearGradient><linearGradient id="linear-gradient-2" x1="406.7" y1="123.08" x2="507.54" y2="123.08" xlink:href="#linear-gradient"/><linearGradient id="linear-gradient-3" x1="222.26" y1="122.86" x2="323.1" y2="122.86" xlink:href="#linear-gradient"/><linearGradient id="linear-gradient-4" x1="306.76" y1="167.81" x2="407.6" y2="167.81" xlink:href="#linear-gradient"/><linearGradient id="linear-gradient-5" x1="491.07" y1="167.86" x2="591.91" y2="167.86" xlink:href="#linear-gradient"/><linearGradient id="linear-gradient-6" x1="391.13" y1="212.59" x2="491.97" y2="212.59" xlink:href="#linear-gradient"/><linearGradient id="linear-gradient-7" x1="575.4" y1="212.55" x2="676.24" y2="212.55" xlink:href="#linear-gradient"/><linearGradient id="linear-gradient-8" x1="475.46" y1="257.28" x2="576.3" y2="257.28" xlink:href="#linear-gradient"/><linearGradient id="linear-gradient-9" x1="659.77" y1="257.33" x2="760.6" y2="257.33" xlink:href="#linear-gradient"/><linearGradient id="linear-gradient-10" x1="559.83" y1="302.06" x2="660.66" y2="302.06" xlink:href="#linear-gradient"/><linearGradient id="linear-gradient-11" x1="744.1" y1="301.9" x2="844.94" y2="301.9" xlink:href="#linear-gradient"/><linearGradient id="linear-gradient-12" x1="644.16" y1="346.63" x2="745" y2="346.63" xlink:href="#linear-gradient"/><linearGradient id="linear-gradient-13" x1="828.46" y1="346.68" x2="929.3" y2="346.68" xlink:href="#linear-gradient"/><linearGradient id="linear-gradient-14" x1="728.52" y1="391.41" x2="829.36" y2="391.41" xlink:href="#linear-gradient"/><linearGradient id="linear-gradient-15" x1="912.79" y1="391.37" x2="1013.63" y2="391.37" xlink:href="#linear-gradient"/><linearGradient id="linear-gradient-16" x1="812.85" y1="436.1" x2="913.69" y2="436.1" xlink:href="#linear-gradient"/><linearGradient id="linear-gradient-17" x1="997.16" y1="436.14" x2="1098" y2="436.14" xlink:href="#linear-gradient"/><linearGradient id="linear-gradient-18" x1="897.22" y1="480.87" x2="998.06" y2="480.87" xlink:href="#linear-gradient"/><linearGradient id="linear-gradient-19" x1="122.24" y1="167.61" x2="223.08" y2="167.61" xlink:href="#linear-gradient"/><linearGradient id="linear-gradient-20" x1="206.75" y1="212.57" x2="307.59" y2="212.57" xlink:href="#linear-gradient"/><linearGradient id="linear-gradient-21" x1="22.3" y1="212.34" x2="123.14" y2="212.34" xlink:href="#linear-gradient"/><linearGradient id="linear-gradient-22" x1="106.81" y1="257.3" x2="207.65" y2="257.3" xlink:href="#linear-gradient"/><linearGradient id="linear-gradient-23" x1="291.12" y1="257.34" x2="391.96" y2="257.34" xlink:href="#linear-gradient"/><linearGradient id="linear-gradient-24" x1="191.18" y1="302.07" x2="292.02" y2="302.07" xlink:href="#linear-gradient"/><linearGradient id="linear-gradient-25" x1="375.45" y1="302.03" x2="476.29" y2="302.03" xlink:href="#linear-gradient"/><linearGradient id="linear-gradient-26" x1="275.51" y1="346.76" x2="376.35" y2="346.76" xlink:href="#linear-gradient"/><linearGradient id="linear-gradient-27" x1="459.81" y1="346.81" x2="560.65" y2="346.81" xlink:href="#linear-gradient"/><linearGradient id="linear-gradient-28" x1="359.87" y1="391.54" x2="460.71" y2="391.54" xlink:href="#linear-gradient"/><linearGradient id="linear-gradient-29" x1="544.14" y1="391.38" x2="644.98" y2="391.38" xlink:href="#linear-gradient"/><linearGradient id="linear-gradient-30" x1="444.2" y1="436.11" x2="545.04" y2="436.11" xlink:href="#linear-gradient"/><linearGradient id="linear-gradient-31" x1="628.51" y1="436.16" x2="729.35" y2="436.16" xlink:href="#linear-gradient"/><linearGradient id="linear-gradient-32" x1="528.57" y1="480.89" x2="629.41" y2="480.89" xlink:href="#linear-gradient"/><linearGradient id="linear-gradient-33" x1="712.84" y1="480.85" x2="813.68" y2="480.85" xlink:href="#linear-gradient"/><linearGradient id="linear-gradient-34" x1="612.9" y1="525.58" x2="713.74" y2="525.58" xlink:href="#linear-gradient"/><linearGradient id="linear-gradient-35" x1="797.21" y1="525.63" x2="898.04" y2="525.63" xlink:href="#linear-gradient"/><linearGradient id="linear-gradient-36" x1="697.27" y1="570.36" x2="798.1" y2="570.36" xlink:href="#linear-gradient"/><linearGradient id="linear-gradient-37" x1="1673.08" y1="145.25" x2="1773.92" y2="145.25" xlink:href="#linear-gradient"/><linearGradient id="linear-gradient-38" x1="1757.59" y1="190.2" x2="1858.43" y2="190.2" xlink:href="#linear-gradient"/><linearGradient id="linear-gradient-39" x1="1573.14" y1="189.98" x2="1673.98" y2="189.98" xlink:href="#linear-gradient"/><linearGradient id="linear-gradient-40" x1="1657.65" y1="234.94" x2="1758.49" y2="234.94" xlink:href="#linear-gradient"/><linearGradient id="linear-gradient-41" x1="1841.96" y1="234.98" x2="1942.8" y2="234.98" xlink:href="#linear-gradient"/><linearGradient id="linear-gradient-42" x1="1742.02" y1="279.71" x2="1842.86" y2="279.71" xlink:href="#linear-gradient"/><linearGradient id="linear-gradient-43" x1="1926.28" y1="279.67" x2="2027.12" y2="279.67" xlink:href="#linear-gradient"/><linearGradient id="linear-gradient-44" x1="1826.34" y1="324.4" x2="1927.18" y2="324.4" xlink:href="#linear-gradient"/><linearGradient id="linear-gradient-45" x1="2010.65" y1="324.45" x2="2111.49" y2="324.45" xlink:href="#linear-gradient"/><linearGradient id="linear-gradient-46" x1="1910.71" y1="369.18" x2="2011.55" y2="369.18" xlink:href="#linear-gradient"/><linearGradient id="linear-gradient-47" x1="2094.98" y1="369.02" x2="2195.82" y2="369.02" xlink:href="#linear-gradient"/><linearGradient id="linear-gradient-48" x1="1995.04" y1="413.75" x2="2095.88" y2="413.75" xlink:href="#linear-gradient"/><linearGradient id="linear-gradient-49" x1="1473.13" y1="234.73" x2="1573.97" y2="234.73" xlink:href="#linear-gradient"/><linearGradient id="linear-gradient-50" x1="1557.64" y1="279.69" x2="1658.48" y2="279.69" xlink:href="#linear-gradient"/><linearGradient id="linear-gradient-51" x1="1373.19" y1="279.47" x2="1474.03" y2="279.47" xlink:href="#linear-gradient"/><linearGradient id="linear-gradient-52" x1="1457.7" y1="324.42" x2="1558.54" y2="324.42" xlink:href="#linear-gradient"/><linearGradient id="linear-gradient-53" x1="1642" y1="324.46" x2="1742.84" y2="324.46" xlink:href="#linear-gradient"/><linearGradient id="linear-gradient-54" x1="1542.06" y1="369.2" x2="1642.9" y2="369.2" xlink:href="#linear-gradient"/><linearGradient id="linear-gradient-55" x1="1726.33" y1="369.15" x2="1827.17" y2="369.15" xlink:href="#linear-gradient"/><linearGradient id="linear-gradient-56" x1="1626.39" y1="413.89" x2="1727.23" y2="413.89" xlink:href="#linear-gradient"/><linearGradient id="linear-gradient-57" x1="1810.7" y1="413.93" x2="1911.54" y2="413.93" xlink:href="#linear-gradient"/><linearGradient id="linear-gradient-58" x1="1710.76" y1="458.66" x2="1811.6" y2="458.66" xlink:href="#linear-gradient"/><linearGradient id="linear-gradient-59" x1="1895.03" y1="458.51" x2="1995.87" y2="458.51" xlink:href="#linear-gradient"/><linearGradient id="linear-gradient-60" x1="1795.09" y1="503.24" x2="1895.93" y2="503.24" xlink:href="#linear-gradient"/><linearGradient id="linear-gradient-61" x1="2750.03" y1="212.27" x2="2850.87" y2="212.27" xlink:href="#linear-gradient"/><linearGradient id="linear-gradient-62" x1="2834.54" y1="257.22" x2="2935.37" y2="257.22" xlink:href="#linear-gradient"/><linearGradient id="linear-gradient-63" x1="2650.09" y1="257" x2="2750.93" y2="257" xlink:href="#linear-gradient"/><linearGradient id="linear-gradient-64" x1="2734.6" y1="301.96" x2="2835.43" y2="301.96" xlink:href="#linear-gradient"/><linearGradient id="linear-gradient-65" x1="2918.9" y1="302" x2="3019.74" y2="302" xlink:href="#linear-gradient"/><linearGradient id="linear-gradient-66" x1="2818.96" y1="346.73" x2="2919.8" y2="346.73" xlink:href="#linear-gradient"/><linearGradient id="linear-gradient-67" x1="2550.07" y1="301.75" x2="2650.91" y2="301.75" xlink:href="#linear-gradient"/><linearGradient id="linear-gradient-68" x1="2634.58" y1="346.71" x2="2735.42" y2="346.71" xlink:href="#linear-gradient"/><linearGradient id="linear-gradient-69" x1="2450.13" y1="346.49" x2="2550.97" y2="346.49" xlink:href="#linear-gradient"/><linearGradient id="linear-gradient-70" x1="2534.64" y1="391.44" x2="2635.48" y2="391.44" xlink:href="#linear-gradient"/><linearGradient id="linear-gradient-71" x1="2718.95" y1="391.48" x2="2819.79" y2="391.48" xlink:href="#linear-gradient"/><linearGradient id="linear-gradient-72" x1="2619.01" y1="436.22" x2="2719.85" y2="436.22" xlink:href="#linear-gradient"/></defs><title>V3_G1</title><g id="Layer_2" data-name="Layer 2"><polygon class="cls-1" points="301.32 87.84 312.61 118.49 346.33 165.4 358.33 172.65 381.08 172.65 396.73 164.8 429.68 111.76 457.74 60.14 427.08 77.69 402.48 63.74 401.91 21.39 379.66 0 356.98 13.37 343.01 55.46 317.3 79.91 299.89 64.12 301.32 87.84"/><path class="cls-2" d="M316.61,110l5.59,2.81s.22-24.79,7.39-43.13L317.3,79.91l-10.15-9.27C304.6,90.34,316.61,110,316.61,110Z"/><path class="cls-3" d="M322.2,112.8l20.83,12L357.7,105H386L401.2,126.8l18.06-12.21,3.77-2.46s1.27-61.22-38.82-79.94a28.43,28.43,0,0,0-23.5-.36C321.36,49.19,322.2,112.8,322.2,112.8Z"/><polygon class="cls-1" points="357.7 104.96 371.81 96.5 386.03 104.96 357.7 104.96"/><polygon class="cls-2" points="358.42 172.65 343.67 129.9 359.18 108.64 371.81 100.73 384.18 108.64 400.51 131.22 429.76 111.76 396.81 164.8 381.17 172.65 358.42 172.65"/><path class="cls-2" d="M417.34,74.62a116.82,116.82,0,0,1,4.77,22.85l4.77-17.86Z"/><polygon class="cls-1" points="385.83 132.79 397.12 163.44 430.84 210.36 442.84 217.61 465.59 217.61 481.24 209.75 514.19 156.71 542.25 105.1 511.59 122.64 486.98 108.69 486.42 66.34 464.17 44.95 441.48 58.33 427.52 100.42 401.81 124.87 384.4 109.07 385.83 132.79"/><path class="cls-2" d="M401.11,154.94l5.6,2.81s.22-24.79,7.39-43.12l-12.29,10.24-10.15-9.27C389.11,135.29,401.11,154.94,401.11,154.94Z"/><path class="cls-4" d="M406.71,157.75l20.83,12,14.67-19.83h28.33l15.17,21.83,18.06-12.21,3.77-2.46s1.27-61.22-38.82-79.94a28.43,28.43,0,0,0-23.5-.36C405.87,94.15,406.71,157.75,406.71,157.75Z"/><polygon class="cls-1" points="442.21 149.92 456.32 141.45 470.54 149.92 442.21 149.92"/><polygon class="cls-2" points="442.93 217.61 428.18 174.86 443.69 153.59 456.32 145.68 468.69 153.59 485.02 176.17 514.27 156.71 481.32 209.75 465.68 217.61 442.93 217.61"/><path class="cls-2" d="M501.85,119.58a116.82,116.82,0,0,1,4.77,22.85l4.77-17.87Z"/><polygon class="cls-1" points="201.38 132.57 212.67 163.22 246.39 210.14 258.39 217.39 281.14 217.39 296.79 209.53 329.74 156.49 357.8 104.87 327.14 122.42 302.54 108.47 301.97 66.12 279.72 44.73 257.04 58.1 243.07 100.19 217.36 124.64 199.95 108.85 201.38 132.57"/><path class="cls-2" d="M216.67,154.72l5.59,2.81s.22-24.79,7.39-43.13l-12.29,10.24-10.15-9.26C204.66,135.07,216.67,154.72,216.67,154.72Z"/><path class="cls-5" d="M222.26,157.53l20.83,12,14.67-19.84h28.33l15.17,21.84,18.06-12.21,3.77-2.46s1.27-61.22-38.81-79.94a28.45,28.45,0,0,0-23.51-.36C221.42,93.92,222.26,157.53,222.26,157.53Z"/><polygon class="cls-1" points="257.76 149.69 271.87 141.23 286.09 149.69 257.76 149.69"/><polygon class="cls-2" points="258.48 217.39 243.73 174.64 259.25 153.37 271.87 145.46 284.25 153.37 300.57 175.95 329.82 156.49 296.87 209.53 281.23 217.39 258.48 217.39"/><path class="cls-2" d="M317.4,119.35a117,117,0,0,1,4.77,22.85l4.77-17.86Z"/><polygon class="cls-1" points="285.89 177.53 297.18 208.17 330.9 255.09 342.9 262.34 365.65 262.34 381.3 254.48 414.25 201.44 442.31 149.83 411.65 167.37 387.05 153.43 386.48 111.07 364.23 89.69 341.55 103.06 327.58 145.15 301.87 169.6 284.46 153.81 285.89 177.53"/><path class="cls-2" d="M301.18,199.67l5.59,2.81s.22-24.79,7.39-43.12L301.87,169.6l-10.15-9.27C289.17,180,301.18,199.67,301.18,199.67Z"/><path class="cls-6" d="M306.77,202.48l20.83,12,14.67-19.83H370.6l15.17,21.83,18.06-12.21,3.77-2.46s1.27-61.22-38.82-79.94a28.43,28.43,0,0,0-23.5-.36C305.93,138.88,306.77,202.48,306.77,202.48Z"/><polygon class="cls-1" points="342.27 194.65 356.38 186.18 370.6 194.65 342.27 194.65"/><polygon class="cls-2" points="342.99 262.34 328.24 219.59 343.75 198.32 356.38 190.41 368.75 198.32 385.08 220.9 414.33 201.44 381.38 254.48 365.74 262.34 342.99 262.34"/><path class="cls-2" d="M401.91,164.31a116.82,116.82,0,0,1,4.77,22.85l4.77-17.87Z"/><polygon class="cls-1" points="470.19 177.57 481.48 208.22 515.21 255.13 527.21 262.38 549.96 262.38 565.61 254.53 598.56 201.49 626.62 149.87 595.96 167.42 571.35 153.47 570.78 111.12 548.53 89.73 525.85 103.1 511.89 145.19 486.18 169.64 468.77 153.85 470.19 177.57"/><path class="cls-2" d="M485.48,199.72l5.59,2.81s.23-24.8,7.39-43.13l-12.28,10.24L476,160.37C473.47,180.07,485.48,199.72,485.48,199.72Z"/><path class="cls-7" d="M491.07,202.53l20.84,12,14.66-19.84h28.34l15.16,21.84,18.07-12.21,3.77-2.46s1.26-61.22-38.82-79.94a28.43,28.43,0,0,0-23.5-.36C490.23,138.92,491.07,202.53,491.07,202.53Z"/><polygon class="cls-1" points="526.57 194.69 540.68 186.23 554.91 194.69 526.57 194.69"/><polygon class="cls-2" points="527.29 262.38 512.54 219.63 528.06 198.37 540.68 190.46 553.06 198.37 569.39 220.94 598.64 201.49 565.69 254.53 550.04 262.38 527.29 262.38"/><path class="cls-2" d="M586.22,164.35A116.82,116.82,0,0,1,591,187.2l4.77-17.86Z"/><polygon class="cls-1" points="370.25 222.3 381.54 252.95 415.27 299.87 427.27 307.12 450.02 307.12 465.67 299.26 498.62 246.22 526.68 194.6 496.02 212.15 471.41 198.2 470.84 155.85 448.59 134.46 425.91 147.84 411.95 189.92 386.24 214.37 368.83 198.58 370.25 222.3"/><path class="cls-2" d="M385.54,244.45l5.59,2.81s.23-24.79,7.39-43.13l-12.28,10.24-10.15-9.26C373.53,224.8,385.54,244.45,385.54,244.45Z"/><path class="cls-8" d="M391.13,247.26l20.84,12,14.66-19.84H455l15.16,21.84,18.07-12.21,3.77-2.46s1.26-61.22-38.82-79.94a28.43,28.43,0,0,0-23.5-.36C390.29,183.65,391.13,247.26,391.13,247.26Z"/><polygon class="cls-1" points="426.63 239.42 440.74 230.96 454.97 239.42 426.63 239.42"/><polygon class="cls-2" points="427.35 307.12 412.6 264.37 428.12 243.1 440.74 235.19 453.12 243.1 469.45 265.68 498.7 246.22 465.75 299.26 450.1 307.12 427.35 307.12"/><path class="cls-2" d="M486.28,209.08a116.82,116.82,0,0,1,4.77,22.85l4.77-17.86Z"/><polygon class="cls-1" points="554.52 222.26 565.81 252.91 599.54 299.82 611.54 307.07 634.29 307.07 649.93 299.22 682.88 246.18 710.95 194.56 680.29 212.11 655.68 198.16 655.11 155.81 632.86 134.42 610.18 147.79 596.22 189.88 570.5 214.33 553.1 198.54 554.52 222.26"/><path class="cls-2" d="M569.81,244.41l5.59,2.81s.23-24.79,7.39-43.13l-12.28,10.24-10.15-9.27C557.8,224.76,569.81,244.41,569.81,244.41Z"/><path class="cls-9" d="M575.4,247.22l20.83,12,14.67-19.84h28.33l15.17,21.84L672.47,249l3.76-2.46s1.27-61.22-38.81-79.94a28.45,28.45,0,0,0-23.51-.36C574.56,183.61,575.4,247.22,575.4,247.22Z"/><polygon class="cls-1" points="610.9 239.38 625.01 230.92 639.23 239.38 610.9 239.38"/><polygon class="cls-2" points="611.62 307.07 596.87 264.32 612.39 243.06 625.01 235.15 637.39 243.06 653.72 265.63 682.97 246.18 650.02 299.22 634.37 307.07 611.62 307.07"/><path class="cls-2" d="M670.54,209a116.31,116.31,0,0,1,4.78,22.85L680.08,214Z"/><polygon class="cls-1" points="454.58 266.99 465.87 297.64 499.6 344.56 511.6 351.81 534.35 351.81 549.99 343.95 582.94 290.91 611 239.29 580.35 256.84 555.74 242.89 555.17 200.54 532.92 179.15 510.24 192.53 496.28 234.61 470.56 259.06 453.16 243.27 454.58 266.99"/><path class="cls-2" d="M469.87,289.14l5.59,2.81s.23-24.79,7.39-43.13l-12.28,10.25-10.15-9.27C457.86,269.49,469.87,289.14,469.87,289.14Z"/><path class="cls-10" d="M475.46,292l20.83,12L511,284.11h28.33L554.46,306l18.07-12.21,3.76-2.46s1.27-61.22-38.81-79.94A28.45,28.45,0,0,0,514,211C474.62,228.35,475.46,292,475.46,292Z"/><polygon class="cls-1" points="510.96 284.11 525.07 275.65 539.29 284.11 510.96 284.11"/><polygon class="cls-2" points="511.68 351.81 496.93 309.06 512.45 287.79 525.07 279.88 537.45 287.79 553.78 310.37 583.03 290.91 550.08 343.95 534.43 351.81 511.68 351.81"/><path class="cls-2" d="M570.6,253.77a116.54,116.54,0,0,1,4.78,22.85l4.76-17.86Z"/><polygon class="cls-1" points="638.89 267.04 650.18 297.68 683.9 344.6 695.9 351.85 718.65 351.85 734.3 344 767.25 290.95 795.31 239.34 764.65 256.89 740.04 242.94 739.48 200.58 717.23 179.2 694.54 192.57 680.58 234.66 654.87 259.11 637.46 243.32 638.89 267.04"/><path class="cls-2" d="M654.18,289.18l5.59,2.81s.22-24.79,7.39-43.12l-12.29,10.24-10.15-9.27C642.17,269.53,654.18,289.18,654.18,289.18Z"/><path class="cls-11" d="M659.77,292l20.83,12,14.67-19.83H723.6L738.77,306l18.06-12.2,3.77-2.46s1.27-61.23-38.82-79.95a28.5,28.5,0,0,0-23.5-.36C658.93,228.39,659.77,292,659.77,292Z"/><polygon class="cls-1" points="695.27 284.16 709.38 275.69 723.6 284.16 695.27 284.16"/><polygon class="cls-2" points="695.99 351.85 681.24 309.1 696.75 287.83 709.38 279.93 721.75 287.83 738.08 310.41 767.33 290.95 734.38 344 718.74 351.85 695.99 351.85"/><path class="cls-2" d="M754.91,253.82a116.82,116.82,0,0,1,4.77,22.85l4.77-17.87Z"/><polygon class="cls-1" points="538.95 311.77 550.24 342.41 583.96 389.33 595.96 396.58 618.71 396.58 634.36 388.73 667.31 335.69 695.37 284.07 664.71 301.62 640.11 287.67 639.54 245.32 617.29 223.93 594.61 237.3 580.64 279.39 554.93 303.84 537.52 288.05 538.95 311.77"/><path class="cls-2" d="M554.24,333.92l5.59,2.8s.22-24.79,7.39-43.12l-12.29,10.24-10.15-9.27C542.23,314.27,554.24,333.92,554.24,333.92Z"/><path class="cls-12" d="M559.83,336.72l20.83,12,14.67-19.83h28.33l15.17,21.83,18.06-12.2,3.77-2.46s1.27-61.23-38.82-79.95a28.46,28.46,0,0,0-23.5-.35C559,273.12,559.83,336.72,559.83,336.72Z"/><polygon class="cls-1" points="595.33 328.89 609.44 320.43 623.66 328.89 595.33 328.89"/><polygon class="cls-2" points="596.05 396.58 581.3 353.83 596.81 332.56 609.44 324.66 621.81 332.56 638.14 355.14 667.39 335.69 634.44 388.73 618.8 396.58 596.05 396.58"/><path class="cls-2" d="M655,298.55a116.82,116.82,0,0,1,4.77,22.85l4.77-17.86Z"/><polygon class="cls-1" points="723.22 311.61 734.51 342.26 768.23 389.18 780.23 396.43 802.98 396.43 818.63 388.57 851.58 335.53 879.64 283.91 848.98 301.46 824.38 287.51 823.81 245.16 801.56 223.77 778.88 237.15 764.92 279.23 739.2 303.68 721.79 287.89 723.22 311.61"/><path class="cls-2" d="M738.51,333.76l5.59,2.81s.22-24.79,7.39-43.13L739.2,303.68l-10.15-9.26C726.5,314.11,738.51,333.76,738.51,333.76Z"/><path class="cls-13" d="M744.1,336.57l20.83,12,14.67-19.84h28.33l15.17,21.84,18.07-12.21,3.76-2.46s1.27-61.22-38.81-79.94a28.45,28.45,0,0,0-23.51-.36C743.26,273,744.1,336.57,744.1,336.57Z"/><polygon class="cls-1" points="779.6 328.73 793.71 320.27 807.93 328.73 779.6 328.73"/><polygon class="cls-2" points="780.32 396.43 765.57 353.68 781.09 332.41 793.71 324.5 806.09 332.41 822.42 354.99 851.67 335.53 818.72 388.57 803.07 396.43 780.32 396.43"/><path class="cls-2" d="M839.24,298.39A116.31,116.31,0,0,1,844,321.24l4.76-17.86Z"/><polygon class="cls-1" points="623.28 356.34 634.57 386.99 668.29 433.91 680.29 441.16 703.04 441.16 718.69 433.3 751.64 380.26 779.7 328.64 749.04 346.19 724.44 332.24 723.87 289.89 701.62 268.5 678.94 281.88 664.98 323.96 639.26 348.42 621.85 332.62 623.28 356.34"/><path class="cls-2" d="M638.57,378.49l5.59,2.81s.22-24.79,7.39-43.13l-12.29,10.25-10.14-9.27C626.56,358.84,638.57,378.49,638.57,378.49Z"/><path class="cls-14" d="M644.16,381.3l20.83,12,14.67-19.84H708l15.17,21.84,18.07-12.21,3.76-2.46s1.27-61.22-38.81-79.94a28.45,28.45,0,0,0-23.51-.36C643.32,317.7,644.16,381.3,644.16,381.3Z"/><polygon class="cls-1" points="679.66 373.46 693.77 365 707.99 373.46 679.66 373.46"/><polygon class="cls-2" points="680.38 441.16 665.63 398.41 681.15 377.14 693.77 369.23 706.15 377.14 722.48 399.72 751.73 380.26 718.78 433.3 703.13 441.16 680.38 441.16"/><path class="cls-2" d="M739.3,343.12A116.54,116.54,0,0,1,744.08,366l4.76-17.87Z"/><polygon class="cls-1" points="807.59 356.39 818.88 387.03 852.6 433.95 864.6 441.2 887.35 441.2 903 433.35 935.95 380.3 964.01 328.69 933.35 346.24 908.74 332.29 908.17 289.94 885.92 268.55 863.24 281.92 849.28 324.01 823.57 348.46 806.16 332.67 807.59 356.39"/><path class="cls-2" d="M822.87,378.53l5.59,2.81s.23-24.79,7.4-43.12l-12.29,10.24-10.15-9.27C810.87,358.88,822.87,378.53,822.87,378.53Z"/><path class="cls-15" d="M828.46,381.34l20.84,12L864,373.51H892.3l15.16,21.83,18.07-12.2,3.77-2.46s1.26-61.23-38.82-79.95a28.5,28.5,0,0,0-23.5-.36C827.63,317.74,828.46,381.34,828.46,381.34Z"/><polygon class="cls-1" points="863.97 373.51 878.08 365.04 892.3 373.51 863.97 373.51"/><polygon class="cls-2" points="864.68 441.2 849.93 398.45 865.45 377.18 878.08 369.28 890.45 377.18 906.78 399.76 936.03 380.3 903.08 433.35 887.43 441.2 864.68 441.2"/><path class="cls-2" d="M923.61,343.17A116.82,116.82,0,0,1,928.38,366l4.77-17.87Z"/><polygon class="cls-1" points="707.65 401.12 718.94 431.76 752.66 478.68 764.66 485.93 787.41 485.93 803.06 478.08 836.01 425.04 864.07 373.42 833.41 390.97 808.8 377.02 808.24 334.67 785.99 313.28 763.3 326.65 749.34 368.74 723.63 393.19 706.22 377.4 707.65 401.12"/><path class="cls-2" d="M722.93,423.27l5.6,2.8s.22-24.79,7.39-43.12l-12.29,10.24-10.15-9.27C710.93,403.62,722.93,423.27,722.93,423.27Z"/><path class="cls-16" d="M728.53,426.07l20.83,12L764,418.24h28.33l15.17,21.83,18.06-12.2,3.77-2.46s1.27-61.23-38.82-80a28.47,28.47,0,0,0-23.5-.35C727.69,362.47,728.53,426.07,728.53,426.07Z"/><polygon class="cls-1" points="764.02 418.24 778.14 409.78 792.36 418.24 764.02 418.24"/><polygon class="cls-2" points="764.74 485.93 749.99 443.18 765.51 421.92 778.14 414.01 790.51 421.92 806.84 444.49 836.09 425.04 803.14 478.08 787.49 485.93 764.74 485.93"/><path class="cls-2" d="M823.67,387.9a116.82,116.82,0,0,1,4.77,22.85l4.77-17.86Z"/><polygon class="cls-1" points="891.91 401.08 903.2 431.72 936.93 478.64 948.93 485.89 971.68 485.89 987.33 478.04 1020.28 425 1048.34 373.38 1017.68 390.93 993.07 376.98 992.5 334.63 970.25 313.24 947.57 326.61 933.61 368.7 907.9 393.15 890.49 377.36 891.91 401.08"/><path class="cls-2" d="M907.2,423.23l5.59,2.8s.23-24.79,7.4-43.12L907.9,393.15l-10.15-9.27C895.19,403.58,907.2,423.23,907.2,423.23Z"/><path class="cls-17" d="M912.79,426l20.84,12,14.66-19.83h28.34L991.79,440l18.07-12.2,3.77-2.46s1.26-61.23-38.82-79.95a28.47,28.47,0,0,0-23.5-.35C912,362.43,912.79,426,912.79,426Z"/><polygon class="cls-1" points="948.29 418.2 962.4 409.74 976.63 418.2 948.29 418.2"/><polygon class="cls-2" points="949.01 485.89 934.26 443.14 949.78 421.87 962.4 413.97 974.78 421.87 991.11 444.45 1020.36 425 987.41 478.04 971.76 485.89 949.01 485.89"/><path class="cls-2" d="M1007.94,387.86a116.82,116.82,0,0,1,4.77,22.85l4.77-17.86Z"/><polygon class="cls-1" points="791.98 445.81 803.26 476.45 836.99 523.37 848.99 530.62 871.74 530.62 887.39 522.77 920.34 469.73 948.4 418.11 917.74 435.66 893.13 421.71 892.56 379.36 870.31 357.97 847.63 371.34 833.67 413.43 807.96 437.88 790.55 422.09 791.98 445.81"/><path class="cls-2" d="M807.26,468l5.59,2.81s.23-24.8,7.4-43.13L808,437.88l-10.15-9.27C795.25,448.31,807.26,468,807.26,468Z"/><path class="cls-18" d="M812.85,470.77l20.84,12,14.66-19.84h28.34l15.16,21.84,18.07-12.21,3.77-2.46s1.26-61.22-38.82-79.94a28.43,28.43,0,0,0-23.5-.36C812,407.16,812.85,470.77,812.85,470.77Z"/><polygon class="cls-1" points="848.35 462.93 862.47 454.47 876.69 462.93 848.35 462.93"/><polygon class="cls-2" points="849.07 530.62 834.32 487.87 849.84 466.61 862.47 458.7 874.84 466.61 891.17 489.19 920.42 469.73 887.47 522.77 871.82 530.62 849.07 530.62"/><path class="cls-2" d="M908,432.59a116.82,116.82,0,0,1,4.77,22.85l4.77-17.86Z"/><polygon class="cls-1" points="976.28 445.86 987.57 476.5 1021.29 523.42 1033.3 530.67 1056.05 530.67 1071.69 522.81 1104.64 469.77 1132.7 418.16 1102.05 435.7 1077.44 421.75 1076.87 379.4 1054.62 358.01 1031.94 371.39 1017.98 413.48 992.26 437.93 974.85 422.13 976.28 445.86"/><path class="cls-2" d="M991.57,468l5.59,2.81s.22-24.79,7.39-43.12l-12.29,10.24-10.14-9.27C979.56,448.35,991.57,468,991.57,468Z"/><path class="cls-19" d="M997.16,470.81l20.83,12L1032.66,463H1061l15.17,21.83,18.07-12.21,3.76-2.46s1.27-61.22-38.81-79.94a28.45,28.45,0,0,0-23.51-.36C996.32,407.21,997.16,470.81,997.16,470.81Z"/><polygon class="cls-1" points="1032.66 462.98 1046.77 454.51 1060.99 462.98 1032.66 462.98"/><polygon class="cls-2" points="1033.38 530.67 1018.63 487.92 1034.15 466.65 1046.77 458.74 1059.15 466.65 1075.48 489.23 1104.73 469.77 1071.78 522.81 1056.13 530.67 1033.38 530.67"/><path class="cls-2" d="M1092.3,432.64a116.31,116.31,0,0,1,4.78,22.85l4.76-17.87Z"/><polygon class="cls-1" points="876.34 490.59 887.63 521.23 921.36 568.15 933.36 575.4 956.11 575.4 971.75 567.54 1004.7 514.5 1032.76 462.89 1002.11 480.44 977.5 466.49 976.93 424.13 954.68 402.75 932 416.12 918.04 458.21 892.32 482.66 874.91 466.87 876.34 490.59"/><path class="cls-2" d="M891.63,512.73l5.59,2.81s.23-24.79,7.39-43.12l-12.29,10.24-10.14-9.27C879.62,493.08,891.63,512.73,891.63,512.73Z"/><path class="cls-20" d="M897.22,515.54l20.83,12,14.67-19.83h28.33l15.17,21.83,18.07-12.2,3.76-2.47s1.27-61.22-38.81-79.94a28.53,28.53,0,0,0-23.51-.36C896.38,451.94,897.22,515.54,897.22,515.54Z"/><polygon class="cls-1" points="932.72 507.71 946.83 499.24 961.05 507.71 932.72 507.71"/><polygon class="cls-2" points="933.44 575.4 918.69 532.65 934.21 511.38 946.83 503.48 959.21 511.38 975.54 533.96 1004.79 514.5 971.84 567.54 956.19 575.4 933.44 575.4"/><path class="cls-2" d="M992.36,477.37a116.31,116.31,0,0,1,4.78,22.85l4.76-17.87Z"/><polygon class="cls-1" points="101.37 177.32 112.66 207.97 146.38 254.89 158.38 262.14 181.13 262.14 196.78 254.28 229.73 201.24 257.79 149.63 227.13 167.17 202.52 153.22 201.95 110.87 179.7 89.48 157.02 102.86 143.06 144.95 117.35 169.4 99.94 153.6 101.37 177.32"/><path class="cls-2" d="M116.65,199.47l5.59,2.81s.23-24.79,7.4-43.12L117.35,169.4l-10.15-9.27C104.65,179.82,116.65,199.47,116.65,199.47Z"/><path class="cls-21" d="M122.24,202.28l20.84,12,14.66-19.83h28.34l15.16,21.83,18.07-12.21,3.77-2.46s1.26-61.22-38.82-79.94a28.43,28.43,0,0,0-23.5-.36C121.41,138.68,122.24,202.28,122.24,202.28Z"/><polygon class="cls-1" points="157.75 194.45 171.86 185.98 186.08 194.45 157.75 194.45"/><polygon class="cls-2" points="158.46 262.14 143.71 219.39 159.23 198.12 171.86 190.21 184.23 198.12 200.56 220.7 229.81 201.24 196.86 254.28 181.21 262.14 158.46 262.14"/><path class="cls-2" d="M217.39,164.11A116.82,116.82,0,0,1,222.16,187l4.77-17.87Z"/><polygon class="cls-1" points="185.88 222.28 197.16 252.92 230.89 299.84 242.89 307.09 265.64 307.09 281.29 299.24 314.24 246.19 342.3 194.58 311.64 212.13 287.03 198.18 286.46 155.82 264.21 134.44 241.53 147.81 227.57 189.9 201.86 214.35 184.45 198.56 185.88 222.28"/><path class="cls-2" d="M201.16,244.42l5.59,2.81s.23-24.79,7.4-43.12l-12.29,10.24-10.15-9.27C189.15,224.77,201.16,244.42,201.16,244.42Z"/><path class="cls-22" d="M206.75,247.23l20.84,12,14.66-19.83h28.34l15.16,21.83L303.82,249l3.77-2.46s1.26-61.23-38.82-79.95a28.5,28.5,0,0,0-23.5-.36C205.91,183.63,206.75,247.23,206.75,247.23Z"/><polygon class="cls-1" points="242.25 239.4 256.37 230.93 270.59 239.4 242.25 239.4"/><polygon class="cls-2" points="242.97 307.09 228.22 264.34 243.74 243.07 256.37 235.17 268.74 243.07 285.07 265.65 314.32 246.19 281.37 299.24 265.72 307.09 242.97 307.09"/><path class="cls-2" d="M301.9,209.06a116.82,116.82,0,0,1,4.77,22.85L311.44,214Z"/><polygon class="cls-1" points="1.43 222.06 12.72 252.7 46.44 299.62 58.44 306.87 81.19 306.87 96.84 299.01 129.79 245.97 157.85 194.36 127.19 211.9 102.58 197.96 102.01 155.6 79.76 134.22 57.08 147.59 43.12 189.68 17.41 214.13 0 198.34 1.43 222.06"/><path class="cls-2" d="M16.71,244.2,22.3,247s.23-24.79,7.4-43.12L17.41,214.13,7.26,204.86C4.71,224.55,16.71,244.2,16.71,244.2Z"/><path class="cls-23" d="M22.3,247l20.84,12L57.8,239.18H86.14L101.3,261l18.07-12.21,3.77-2.46s1.26-61.22-38.82-79.94a28.43,28.43,0,0,0-23.5-.36C21.47,183.41,22.3,247,22.3,247Z"/><polygon class="cls-1" points="57.8 239.18 71.92 230.71 86.14 239.18 57.8 239.18"/><polygon class="cls-2" points="58.52 306.87 43.77 264.12 59.29 242.85 71.92 234.94 84.29 242.85 100.62 265.43 129.87 245.97 96.92 299.01 81.27 306.87 58.52 306.87"/><path class="cls-2" d="M117.45,208.84a116.82,116.82,0,0,1,4.77,22.85L127,213.82Z"/><polygon class="cls-1" points="85.94 267.01 97.22 297.65 130.95 344.57 142.95 351.82 165.7 351.82 181.35 343.97 214.3 290.93 242.36 239.31 211.7 256.86 187.09 242.91 186.52 200.56 164.27 179.17 141.59 192.54 127.63 234.63 101.92 259.08 84.51 243.29 85.94 267.01"/><path class="cls-2" d="M101.22,289.16l5.59,2.8s.23-24.79,7.4-43.12l-12.29,10.24-10.15-9.27C89.21,269.51,101.22,289.16,101.22,289.16Z"/><path class="cls-24" d="M106.81,292l20.84,12,14.66-19.83h28.34L185.81,306l18.07-12.2,3.77-2.46s1.26-61.23-38.82-80a28.47,28.47,0,0,0-23.5-.35C106,228.36,106.81,292,106.81,292Z"/><polygon class="cls-1" points="142.31 284.13 156.43 275.67 170.65 284.13 142.31 284.13"/><polygon class="cls-2" points="143.03 351.82 128.28 309.07 143.8 287.8 156.43 279.9 168.8 287.8 185.13 310.38 214.38 290.93 181.43 343.97 165.78 351.82 143.03 351.82"/><path class="cls-2" d="M202,253.79a116.82,116.82,0,0,1,4.77,22.85l4.77-17.86Z"/><polygon class="cls-1" points="270.24 267.06 281.53 297.7 315.25 344.62 327.25 351.87 350 351.87 365.65 344.01 398.6 290.97 426.66 239.36 396 256.9 371.4 242.95 370.83 200.6 348.58 179.21 325.9 192.59 311.94 234.68 286.23 259.13 268.81 243.33 270.24 267.06"/><path class="cls-2" d="M285.53,289.2l5.59,2.81s.23-24.79,7.39-43.13l-12.29,10.25-10.14-9.27C273.52,269.55,285.53,289.2,285.53,289.2Z"/><path class="cls-25" d="M291.12,292,312,304l14.67-19.83H355L370.12,306l18.07-12.21,3.76-2.46s1.27-61.22-38.81-79.94a28.45,28.45,0,0,0-23.51-.36C290.28,228.41,291.12,292,291.12,292Z"/><polygon class="cls-1" points="326.62 284.18 340.73 275.71 354.95 284.18 326.62 284.18"/><polygon class="cls-2" points="327.34 351.87 312.59 309.12 328.11 287.85 340.73 279.94 353.11 287.85 369.44 310.43 398.69 290.97 365.74 344.01 350.09 351.87 327.34 351.87"/><path class="cls-2" d="M386.26,253.84A116.31,116.31,0,0,1,391,276.69l4.76-17.87Z"/><polygon class="cls-1" points="170.3 311.79 181.59 342.43 215.32 389.35 227.32 396.6 250.06 396.6 265.71 388.74 298.66 335.7 326.73 284.09 296.07 301.63 271.46 287.68 270.89 245.33 248.64 223.94 225.96 237.32 212 279.41 186.28 303.86 168.88 288.06 170.3 311.79"/><path class="cls-2" d="M185.59,333.93l5.59,2.81s.23-24.79,7.39-43.12l-12.29,10.24-10.14-9.27C173.58,314.28,185.59,333.93,185.59,333.93Z"/><path class="cls-26" d="M191.18,336.74l20.83,12,14.67-19.83H255l15.17,21.83,18.07-12.21,3.76-2.46s1.27-61.22-38.81-79.94a28.45,28.45,0,0,0-23.51-.36C190.34,273.14,191.18,336.74,191.18,336.74Z"/><polygon class="cls-1" points="226.68 328.91 240.79 320.44 255.01 328.91 226.68 328.91"/><polygon class="cls-2" points="227.4 396.6 212.65 353.85 228.17 332.58 240.79 324.67 253.17 332.58 269.5 355.16 298.75 335.7 265.8 388.74 250.15 396.6 227.4 396.6"/><path class="cls-2" d="M286.32,298.57a116.31,116.31,0,0,1,4.78,22.85l4.76-17.87Z"/><polygon class="cls-1" points="354.57 311.75 365.86 342.39 399.58 389.31 411.58 396.56 434.33 396.56 449.98 388.7 482.93 335.66 510.99 284.05 480.33 301.59 455.73 287.64 455.16 245.29 432.91 223.9 410.23 237.28 396.26 279.37 370.55 303.82 353.14 288.02 354.57 311.75"/><path class="cls-2" d="M369.86,333.89l5.59,2.81s.22-24.79,7.39-43.12l-12.29,10.24-10.15-9.27C357.85,314.24,369.86,333.89,369.86,333.89Z"/><path class="cls-27" d="M375.45,336.7l20.83,12L411,328.87h28.33l15.17,21.83,18.06-12.21,3.77-2.46s1.27-61.22-38.81-79.94a28.45,28.45,0,0,0-23.51-.36C374.61,273.1,375.45,336.7,375.45,336.7Z"/><polygon class="cls-1" points="410.95 328.87 425.06 320.4 439.28 328.87 410.95 328.87"/><polygon class="cls-2" points="411.67 396.56 396.92 353.81 412.44 332.54 425.06 324.63 437.44 332.54 453.76 355.12 483.01 335.66 450.06 388.7 434.42 396.56 411.67 396.56"/><path class="cls-2" d="M470.59,298.53a117.21,117.21,0,0,1,4.78,22.85l4.76-17.87Z"/><polygon class="cls-1" points="254.63 356.48 265.92 387.12 299.64 434.04 311.64 441.29 334.39 441.29 350.04 433.43 382.99 380.39 411.05 328.78 380.39 346.32 355.79 332.38 355.22 290.02 332.97 268.64 310.29 282.01 296.32 324.1 270.61 348.55 253.2 332.76 254.63 356.48"/><path class="cls-2" d="M269.92,378.62l5.59,2.81s.22-24.79,7.39-43.12l-12.29,10.24-10.15-9.27C257.91,359,269.92,378.62,269.92,378.62Z"/><path class="cls-28" d="M275.51,381.43l20.83,12L311,373.6h28.33l15.17,21.83,18.07-12.2,3.76-2.47s1.27-61.22-38.81-79.94a28.53,28.53,0,0,0-23.51-.36C274.67,317.83,275.51,381.43,275.51,381.43Z"/><polygon class="cls-1" points="311.01 373.6 325.12 365.13 339.34 373.6 311.01 373.6"/><polygon class="cls-2" points="311.73 441.29 296.98 398.54 312.5 377.27 325.12 369.37 337.5 377.27 353.82 399.85 383.07 380.39 350.13 433.43 334.48 441.29 311.73 441.29"/><path class="cls-2" d="M370.65,343.26a116.31,116.31,0,0,1,4.78,22.85l4.76-17.87Z"/><polygon class="cls-1" points="438.94 356.52 450.23 387.17 483.95 434.08 495.95 441.33 518.7 441.33 534.35 433.48 567.3 380.44 595.36 328.82 564.7 346.37 540.09 332.42 539.52 290.07 517.27 268.68 494.59 282.05 480.63 324.14 454.92 348.59 437.51 332.8 438.94 356.52"/><path class="cls-2" d="M454.22,378.67l5.59,2.81s.23-24.79,7.4-43.13l-12.29,10.24-10.15-9.27C442.21,359,454.22,378.67,454.22,378.67Z"/><path class="cls-29" d="M459.81,381.48l20.84,12,14.66-19.84h28.34l15.16,21.84,18.07-12.21,3.77-2.46s1.26-61.22-38.82-79.94a28.43,28.43,0,0,0-23.5-.36C459,317.87,459.81,381.48,459.81,381.48Z"/><polygon class="cls-1" points="495.31 373.64 509.43 365.18 523.65 373.64 495.31 373.64"/><polygon class="cls-2" points="496.03 441.33 481.28 398.58 496.8 377.32 509.43 369.41 521.8 377.32 538.13 399.89 567.38 380.44 534.43 433.48 518.78 441.33 496.03 441.33"/><path class="cls-2" d="M555,343.3a116.82,116.82,0,0,1,4.77,22.85l4.77-17.86Z"/><polygon class="cls-1" points="339 401.25 350.29 431.9 384.01 478.82 396.01 486.07 418.76 486.07 434.41 478.21 467.36 425.17 495.42 373.55 464.76 391.1 440.15 377.15 439.58 334.8 417.33 313.41 394.65 326.79 380.69 368.87 354.98 393.32 337.57 377.53 339 401.25"/><path class="cls-2" d="M354.28,423.4l5.59,2.81s.23-24.79,7.4-43.13L355,393.32l-10.15-9.26C342.27,403.75,354.28,423.4,354.28,423.4Z"/><path class="cls-30" d="M359.87,426.21l20.84,12,14.66-19.84h28.34l15.16,21.84L456.94,428l3.77-2.46s1.26-61.22-38.82-79.94a28.43,28.43,0,0,0-23.5-.36C359,362.6,359.87,426.21,359.87,426.21Z"/><polygon class="cls-1" points="395.37 418.37 409.49 409.91 423.71 418.37 395.37 418.37"/><polygon class="cls-2" points="396.09 486.07 381.34 443.32 396.86 422.05 409.49 414.14 421.86 422.05 438.19 444.63 467.44 425.17 434.49 478.21 418.84 486.07 396.09 486.07"/><path class="cls-2" d="M455,388a117,117,0,0,1,4.77,22.85L464.56,393Z"/><polygon class="cls-1" points="523.27 401.1 534.56 431.74 568.28 478.66 580.28 485.91 603.03 485.91 618.68 478.05 651.63 425.01 679.69 373.4 649.03 390.94 624.42 376.99 623.86 334.64 601.61 313.25 578.92 326.63 564.96 368.72 539.25 393.17 521.84 377.38 523.27 401.1"/><path class="cls-2" d="M538.55,423.24l5.6,2.81s.22-24.79,7.39-43.12l-12.29,10.24L529.1,383.9C526.55,403.59,538.55,423.24,538.55,423.24Z"/><path class="cls-31" d="M544.15,426.05l20.83,12,14.67-19.83H608l15.17,21.83,18.06-12.21,3.77-2.46s1.27-61.22-38.82-79.94a28.43,28.43,0,0,0-23.5-.36C543.31,362.45,544.15,426.05,544.15,426.05Z"/><polygon class="cls-1" points="579.65 418.22 593.76 409.75 607.98 418.22 579.65 418.22"/><polygon class="cls-2" points="580.37 485.91 565.62 443.16 581.13 421.89 593.76 413.98 606.13 421.89 622.46 444.47 651.71 425.01 618.76 478.05 603.12 485.91 580.37 485.91"/><path class="cls-2" d="M639.29,387.88a116.82,116.82,0,0,1,4.77,22.85l4.77-17.87Z"/><polygon class="cls-1" points="423.33 445.83 434.62 476.47 468.34 523.39 480.34 530.64 503.09 530.64 518.74 522.78 551.69 469.74 579.75 418.13 549.09 435.68 524.48 421.73 523.92 379.37 501.67 357.99 478.98 371.36 465.02 413.45 439.31 437.9 421.9 422.11 423.33 445.83"/><path class="cls-2" d="M438.61,468l5.6,2.81s.22-24.79,7.39-43.12L439.31,437.9l-10.15-9.27C426.61,448.32,438.61,468,438.61,468Z"/><path class="cls-32" d="M444.21,470.78l20.83,12L479.71,463H508l15.17,21.83,18.06-12.2,3.77-2.47s1.27-61.22-38.82-79.94a28.5,28.5,0,0,0-23.5-.36C443.37,407.18,444.21,470.78,444.21,470.78Z"/><polygon class="cls-1" points="479.71 462.95 493.82 454.48 508.04 462.95 479.71 462.95"/><polygon class="cls-2" points="480.43 530.64 465.68 487.89 481.19 466.62 493.82 458.72 506.19 466.62 522.52 489.2 551.77 469.74 518.82 522.78 503.18 530.64 480.43 530.64"/><path class="cls-2" d="M539.35,432.61a116.82,116.82,0,0,1,4.77,22.85l4.77-17.87Z"/><polygon class="cls-1" points="607.63 445.87 618.92 476.52 652.65 523.43 664.65 530.68 687.4 530.68 703.05 522.83 736 469.79 764.06 418.17 733.4 435.72 708.79 421.77 708.22 379.42 685.97 358.03 663.29 371.4 649.33 413.49 623.62 437.94 606.21 422.15 607.63 445.87"/><path class="cls-2" d="M622.92,468l5.59,2.81s.23-24.79,7.39-43.13l-12.28,10.24-10.15-9.26C610.91,448.37,622.92,468,622.92,468Z"/><path class="cls-33" d="M628.51,470.83l20.84,12L664,463h28.34l15.16,21.84,18.07-12.21,3.77-2.46s1.26-61.22-38.82-79.94a28.43,28.43,0,0,0-23.5-.36C627.67,407.22,628.51,470.83,628.51,470.83Z"/><polygon class="cls-1" points="664.01 462.99 678.12 454.53 692.35 462.99 664.01 462.99"/><polygon class="cls-2" points="664.73 530.68 649.98 487.94 665.5 466.67 678.12 458.76 690.5 466.67 706.83 489.25 736.08 469.79 703.13 522.83 687.48 530.68 664.73 530.68"/><path class="cls-2" d="M723.66,432.65a116.82,116.82,0,0,1,4.77,22.85l4.77-17.86Z"/><polygon class="cls-1" points="507.69 490.6 518.98 521.25 552.71 568.17 564.71 575.42 587.46 575.42 603.11 567.56 636.06 514.52 664.12 462.9 633.46 480.45 608.85 466.5 608.28 424.15 586.03 402.76 563.35 416.14 549.39 458.22 523.68 482.68 506.27 466.88 507.69 490.6"/><path class="cls-2" d="M523,512.75l5.59,2.81s.23-24.79,7.39-43.13l-12.28,10.25-10.15-9.27C511,493.1,523,512.75,523,512.75Z"/><path class="cls-34" d="M528.57,515.56l20.84,12,14.66-19.84h28.34l15.16,21.84,18.07-12.21,3.77-2.46s1.26-61.22-38.82-79.94a28.43,28.43,0,0,0-23.5-.36C527.73,452,528.57,515.56,528.57,515.56Z"/><polygon class="cls-1" points="564.07 507.72 578.18 499.26 592.41 507.72 564.07 507.72"/><polygon class="cls-2" points="564.79 575.42 550.04 532.67 565.56 511.4 578.18 503.49 590.56 511.4 606.89 533.98 636.14 514.52 603.19 567.56 587.54 575.42 564.79 575.42"/><path class="cls-2" d="M623.72,477.38a117,117,0,0,1,4.77,22.86l4.77-17.87Z"/><polygon class="cls-1" points="691.96 490.56 703.25 521.21 736.98 568.13 748.98 575.38 771.73 575.38 787.37 567.52 820.32 514.48 848.38 462.86 817.73 480.41 793.12 466.46 792.55 424.11 770.3 402.72 747.62 416.1 733.66 458.18 707.95 482.63 690.54 466.84 691.96 490.56"/><path class="cls-2" d="M707.25,512.71l5.59,2.81s.23-24.79,7.39-43.13L708,482.63l-10.15-9.26C695.24,493.06,707.25,512.71,707.25,512.71Z"/><path class="cls-35" d="M712.84,515.52l20.83,12,14.67-19.84h28.33l15.17,21.84,18.07-12.21,3.76-2.46s1.27-61.22-38.81-79.94a28.45,28.45,0,0,0-23.51-.36C712,451.91,712.84,515.52,712.84,515.52Z"/><polygon class="cls-1" points="748.34 507.68 762.45 499.22 776.67 507.68 748.34 507.68"/><polygon class="cls-2" points="749.06 575.38 734.31 532.63 749.83 511.36 762.45 503.45 774.83 511.36 791.16 533.94 820.41 514.48 787.46 567.52 771.81 575.38 749.06 575.38"/><path class="cls-2" d="M808,477.34a116.54,116.54,0,0,1,4.78,22.85l4.76-17.86Z"/><polygon class="cls-1" points="592.02 535.29 603.31 565.94 637.04 612.86 649.04 620.11 671.79 620.11 687.43 612.25 720.38 559.21 748.45 507.6 717.79 525.14 693.18 511.19 692.61 468.84 670.36 447.45 647.68 460.83 633.72 502.92 608 527.37 590.6 511.57 592.02 535.29"/><path class="cls-2" d="M607.31,557.44l5.59,2.81s.23-24.79,7.39-43.13L608,527.37l-10.15-9.27C595.3,537.79,607.31,557.44,607.31,557.44Z"/><path class="cls-36" d="M612.9,560.25l20.83,12,14.67-19.83h28.33l15.17,21.83L710,562l3.76-2.46s1.27-61.22-38.81-79.94a28.45,28.45,0,0,0-23.51-.36C612.06,496.65,612.9,560.25,612.9,560.25Z"/><polygon class="cls-1" points="648.4 552.41 662.51 543.95 676.73 552.41 648.4 552.41"/><polygon class="cls-2" points="649.12 620.11 634.37 577.36 649.89 556.09 662.51 548.18 674.89 556.09 691.22 578.67 720.47 559.21 687.52 612.25 671.87 620.11 649.12 620.11"/><path class="cls-2" d="M708,522.08a116.31,116.31,0,0,1,4.78,22.85l4.76-17.87Z"/><polygon class="cls-1" points="776.33 535.34 787.62 565.98 821.34 612.9 833.34 620.15 856.09 620.15 871.74 612.3 904.69 559.25 932.75 507.64 902.09 525.19 877.49 511.24 876.92 468.88 854.67 447.5 831.99 460.87 818.02 502.96 792.31 527.41 774.9 511.62 776.33 535.34"/><path class="cls-2" d="M791.62,557.49l5.59,2.8s.22-24.79,7.39-43.12l-12.29,10.24-10.15-9.27C779.61,537.84,791.62,557.49,791.62,557.49Z"/><path class="cls-37" d="M797.21,560.29l20.83,12,14.67-19.83H861l15.17,21.83,18.06-12.2,3.77-2.46s1.27-61.23-38.82-79.95a28.47,28.47,0,0,0-23.5-.35C796.37,496.69,797.21,560.29,797.21,560.29Z"/><polygon class="cls-1" points="832.71 552.46 846.82 544 861.04 552.46 832.71 552.46"/><polygon class="cls-2" points="833.43 620.15 818.68 577.4 834.19 556.13 846.82 548.23 859.19 556.13 875.52 578.71 904.77 559.25 871.82 612.3 856.18 620.15 833.43 620.15"/><path class="cls-2" d="M892.35,522.12A116.82,116.82,0,0,1,897.12,545l4.77-17.86Z"/><polygon class="cls-1" points="676.39 580.07 687.68 610.72 721.4 657.63 733.4 664.88 756.15 664.88 771.8 657.03 804.75 603.99 832.81 552.37 802.15 569.92 777.54 555.97 776.98 513.62 754.73 492.23 732.04 505.6 718.08 547.69 692.37 572.14 674.96 556.35 676.39 580.07"/><path class="cls-2" d="M691.68,602.22l5.59,2.8s.22-24.79,7.39-43.12l-12.29,10.24-10.15-9.27C679.67,582.57,691.68,602.22,691.68,602.22Z"/><path class="cls-38" d="M697.27,605l20.83,12,14.67-19.83H761.1L776.27,619l18.06-12.2,3.77-2.46s1.27-61.22-38.82-79.94a28.43,28.43,0,0,0-23.5-.36C696.43,541.42,697.27,605,697.27,605Z"/><polygon class="cls-1" points="732.77 597.19 746.88 588.73 761.1 597.19 732.77 597.19"/><polygon class="cls-2" points="733.49 664.88 718.74 622.13 734.25 600.87 746.88 592.96 759.25 600.87 775.58 623.44 804.83 603.99 771.88 657.03 756.24 664.88 733.49 664.88"/><path class="cls-2" d="M792.41,566.85a116.82,116.82,0,0,1,4.77,22.85L802,571.84Z"/><polygon class="cls-1" points="1652.2 154.96 1663.49 185.61 1697.22 232.53 1709.22 239.78 1731.97 239.78 1747.62 231.92 1780.57 178.88 1808.63 127.26 1777.97 144.81 1753.36 130.86 1752.79 88.51 1730.54 67.12 1707.86 80.5 1693.9 122.58 1668.19 147.03 1650.78 131.24 1652.2 154.96"/><path class="cls-2" d="M1667.49,177.11l5.59,2.81s.23-24.79,7.4-43.13L1668.19,147,1658,137.77C1655.48,157.46,1667.49,177.11,1667.49,177.11Z"/><path class="cls-39" d="M1673.08,179.92l20.84,12,14.66-19.84h28.34l15.16,21.84,18.07-12.21,3.77-2.46s1.26-61.22-38.82-79.94a28.43,28.43,0,0,0-23.5-.36C1672.24,116.31,1673.08,179.92,1673.08,179.92Z"/><polygon class="cls-1" points="1708.58 172.08 1722.69 163.62 1736.92 172.08 1708.58 172.08"/><polygon class="cls-2" points="1709.3 239.78 1694.55 197.03 1710.07 175.76 1722.69 167.85 1735.07 175.76 1751.4 198.34 1780.65 178.88 1747.7 231.92 1732.05 239.78 1709.3 239.78"/><path class="cls-2" d="M1768.23,141.74a117,117,0,0,1,4.77,22.85l4.77-17.86Z"/><polygon class="cls-1" points="1736.71 199.92 1748 230.56 1781.73 277.48 1793.73 284.73 1816.48 284.73 1832.13 276.87 1865.08 223.83 1893.14 172.22 1862.48 189.76 1837.87 175.81 1837.3 133.46 1815.05 112.08 1792.37 125.45 1778.41 167.54 1752.7 191.99 1735.29 176.2 1736.71 199.92"/><path class="cls-2" d="M1752,222.06l5.59,2.81s.23-24.79,7.39-43.12L1752.7,192l-10.15-9.27C1740,202.41,1752,222.06,1752,222.06Z"/><path class="cls-40" d="M1757.59,224.87l20.83,12L1793.09,217h28.33l15.17,21.83,18.07-12.21,3.76-2.46s1.27-61.22-38.81-79.94a28.47,28.47,0,0,0-23.5-.36C1756.75,161.27,1757.59,224.87,1757.59,224.87Z"/><polygon class="cls-1" points="1793.09 217.04 1807.2 208.57 1821.42 217.04 1793.09 217.04"/><polygon class="cls-2" points="1793.81 284.73 1779.06 241.98 1794.58 220.71 1807.2 212.81 1819.58 220.71 1835.91 243.29 1865.16 223.83 1832.21 276.87 1816.56 284.73 1793.81 284.73"/><path class="cls-2" d="M1852.74,186.7a116.82,116.82,0,0,1,4.77,22.85l4.76-17.87Z"/><polygon class="cls-1" points="1552.27 199.69 1563.55 230.34 1597.28 277.26 1609.28 284.51 1632.03 284.51 1647.68 276.65 1680.63 223.61 1708.69 172 1678.03 189.54 1653.42 175.59 1652.85 133.24 1630.6 111.85 1607.92 125.23 1593.96 167.32 1568.25 191.77 1550.84 175.97 1552.27 199.69"/><path class="cls-2" d="M1567.55,221.84l5.59,2.81s.23-24.79,7.4-43.12l-12.29,10.24-10.15-9.27C1555.54,202.19,1567.55,221.84,1567.55,221.84Z"/><path class="cls-41" d="M1573.14,224.65l20.84,12,14.66-19.83H1637l15.16,21.83,18.07-12.21L1674,224s1.26-61.22-38.82-79.94a28.43,28.43,0,0,0-23.5-.36C1572.3,161.05,1573.14,224.65,1573.14,224.65Z"/><polygon class="cls-1" points="1608.64 216.82 1622.76 208.35 1636.98 216.82 1608.64 216.82"/><polygon class="cls-2" points="1609.36 284.51 1594.61 241.76 1610.13 220.49 1622.76 212.58 1635.13 220.49 1651.46 243.07 1680.71 223.61 1647.76 276.65 1632.11 284.51 1609.36 284.51"/><path class="cls-2" d="M1668.29,186.48a116.82,116.82,0,0,1,4.77,22.85l4.77-17.87Z"/><polygon class="cls-1" points="1636.77 244.65 1648.06 275.29 1681.79 322.21 1693.79 329.46 1716.54 329.46 1732.18 321.61 1765.13 268.56 1793.2 216.95 1762.54 234.5 1737.93 220.55 1737.36 178.19 1715.11 156.81 1692.43 170.18 1678.47 212.27 1652.76 236.72 1635.35 220.93 1636.77 244.65"/><path class="cls-2" d="M1652.06,266.79l5.59,2.81s.23-24.79,7.39-43.12l-12.28,10.24-10.15-9.27C1640.05,247.14,1652.06,266.79,1652.06,266.79Z"/><path class="cls-42" d="M1657.65,269.6l20.84,12,14.66-19.83h28.34l15.16,21.83,18.07-12.2,3.77-2.46s1.26-61.23-38.82-79.95a28.5,28.5,0,0,0-23.5-.36C1656.81,206,1657.65,269.6,1657.65,269.6Z"/><polygon class="cls-1" points="1693.15 261.77 1707.26 253.3 1721.48 261.77 1693.15 261.77"/><polygon class="cls-2" points="1693.87 329.46 1679.12 286.71 1694.64 265.44 1707.26 257.54 1719.64 265.44 1735.97 288.02 1765.22 268.56 1732.27 321.61 1716.62 329.46 1693.87 329.46"/><path class="cls-2" d="M1752.8,231.43a116.82,116.82,0,0,1,4.77,22.85l4.76-17.87Z"/><polygon class="cls-1" points="1821.08 244.69 1832.37 275.34 1866.09 322.26 1878.09 329.51 1900.84 329.51 1916.49 321.65 1949.44 268.61 1977.5 216.99 1946.84 234.54 1922.24 220.59 1921.67 178.24 1899.42 156.85 1876.74 170.22 1862.78 212.31 1837.06 236.76 1819.65 220.97 1821.08 244.69"/><path class="cls-2" d="M1836.37,266.84l5.59,2.81s.22-24.79,7.39-43.13l-12.29,10.24-10.15-9.26C1824.36,247.19,1836.37,266.84,1836.37,266.84Z"/><path class="cls-43" d="M1842,269.65l20.83,12,14.67-19.84h28.33L1921,283.65,1939,271.44l3.77-2.46s1.27-61.22-38.81-79.94a28.45,28.45,0,0,0-23.51-.36C1841.12,206,1842,269.65,1842,269.65Z"/><polygon class="cls-1" points="1877.46 261.81 1891.57 253.35 1905.79 261.81 1877.46 261.81"/><polygon class="cls-2" points="1878.18 329.51 1863.43 286.76 1878.94 265.49 1891.57 257.58 1903.94 265.49 1920.28 288.07 1949.53 268.61 1916.58 321.65 1900.93 329.51 1878.18 329.51"/><path class="cls-2" d="M1937.1,231.47a117.44,117.44,0,0,1,4.78,22.85l4.76-17.86Z"/><polygon class="cls-1" points="1721.14 289.42 1732.43 320.07 1766.15 366.99 1778.15 374.24 1800.9 374.24 1816.55 366.38 1849.5 313.34 1877.56 261.73 1846.9 279.27 1822.3 265.32 1821.73 222.97 1799.48 201.58 1776.8 214.96 1762.84 257.05 1737.12 281.5 1719.71 265.7 1721.14 289.42"/><path class="cls-2" d="M1736.43,311.57l5.59,2.81s.22-24.79,7.39-43.13l-12.29,10.25L1727,272.23C1724.42,291.92,1736.43,311.57,1736.43,311.57Z"/><path class="cls-44" d="M1742,314.38l20.83,12,14.67-19.83h28.33L1821,328.38l18.07-12.21,3.76-2.46s1.27-61.22-38.81-79.94a28.45,28.45,0,0,0-23.51-.36C1741.18,250.78,1742,314.38,1742,314.38Z"/><polygon class="cls-1" points="1777.52 306.55 1791.63 298.08 1805.85 306.55 1777.52 306.55"/><polygon class="cls-2" points="1778.24 374.24 1763.49 331.49 1779.01 310.22 1791.63 302.31 1804.01 310.22 1820.34 332.8 1849.59 313.34 1816.63 366.38 1800.99 374.24 1778.24 374.24"/><path class="cls-2" d="M1837.16,276.21a116.31,116.31,0,0,1,4.78,22.85l4.76-17.87Z"/><polygon class="cls-1" points="1905.41 289.38 1916.7 320.03 1950.42 366.95 1962.42 374.2 1985.17 374.2 2000.82 366.34 2033.77 313.3 2061.83 261.69 2031.17 279.23 2006.56 265.28 2005.99 222.93 1983.74 201.54 1961.06 214.92 1947.1 257 1921.39 281.45 1903.98 265.66 1905.41 289.38"/><path class="cls-2" d="M1920.69,311.53l5.6,2.81s.22-24.79,7.39-43.13l-12.29,10.25-10.15-9.27C1908.69,291.88,1920.69,311.53,1920.69,311.53Z"/><path class="cls-45" d="M1926.29,314.34l20.83,12,14.67-19.84h28.33l15.17,21.84,18.06-12.21,3.77-2.46s1.27-61.22-38.82-79.94a28.43,28.43,0,0,0-23.5-.36C1925.45,250.74,1926.29,314.34,1926.29,314.34Z"/><polygon class="cls-1" points="1961.79 306.5 1975.9 298.04 1990.12 306.5 1961.79 306.5"/><polygon class="cls-2" points="1962.51 374.2 1947.76 331.45 1963.27 310.18 1975.9 302.27 1988.27 310.18 2004.6 332.76 2033.85 313.3 2000.9 366.34 1985.26 374.2 1962.51 374.2"/><path class="cls-2" d="M2021.43,276.16A117,117,0,0,1,2026.2,299l4.77-17.87Z"/><polygon class="cls-1" points="1805.47 334.12 1816.76 364.76 1850.48 411.68 1862.48 418.93 1885.23 418.93 1900.88 411.07 1933.83 358.03 1961.89 306.42 1931.23 323.96 1906.62 310.01 1906.06 267.66 1883.81 246.27 1861.12 259.65 1847.16 301.74 1821.45 326.19 1804.04 310.39 1805.47 334.12"/><path class="cls-2" d="M1820.75,356.26l5.6,2.81s.22-24.79,7.39-43.12l-12.29,10.24-10.15-9.27C1808.75,336.61,1820.75,356.26,1820.75,356.26Z"/><path class="cls-46" d="M1826.35,359.07l20.83,12,14.67-19.83h28.33l15.17,21.83,18.06-12.21,3.77-2.46s1.27-61.22-38.82-79.94a28.43,28.43,0,0,0-23.5-.36C1825.51,295.47,1826.35,359.07,1826.35,359.07Z"/><polygon class="cls-1" points="1861.85 351.24 1875.96 342.77 1890.18 351.24 1861.85 351.24"/><polygon class="cls-2" points="1862.57 418.93 1847.82 376.18 1863.33 354.91 1875.96 347 1888.33 354.91 1904.66 377.49 1933.91 358.03 1900.96 411.07 1885.32 418.93 1862.57 418.93"/><path class="cls-2" d="M1921.49,320.9a116.82,116.82,0,0,1,4.77,22.85l4.77-17.87Z"/><polygon class="cls-1" points="1989.77 334.16 2001.06 364.8 2034.79 411.72 2046.79 418.97 2069.54 418.97 2085.19 411.12 2118.14 358.07 2146.2 306.46 2115.54 324.01 2090.93 310.06 2090.36 267.71 2068.11 246.32 2045.43 259.69 2031.47 301.78 2005.76 326.23 1988.35 310.44 1989.77 334.16"/><path class="cls-2" d="M2005.06,356.31l5.59,2.8s.23-24.79,7.39-43.12l-12.28,10.24L1995.61,317C1993.05,336.66,2005.06,356.31,2005.06,356.31Z"/><path class="cls-47" d="M2010.65,359.11l20.84,12,14.66-19.83h28.34l15.16,21.83,18.07-12.2,3.77-2.46s1.26-61.23-38.82-79.95a28.47,28.47,0,0,0-23.5-.35C2009.81,295.51,2010.65,359.11,2010.65,359.11Z"/><polygon class="cls-1" points="2046.15 351.28 2060.26 342.82 2074.49 351.28 2046.15 351.28"/><polygon class="cls-2" points="2046.87 418.97 2032.12 376.22 2047.64 354.95 2060.26 347.05 2072.64 354.95 2088.97 377.53 2118.22 358.07 2085.27 411.12 2069.62 418.97 2046.87 418.97"/><path class="cls-2" d="M2105.8,320.94a116.82,116.82,0,0,1,4.77,22.85l4.77-17.86Z"/><polygon class="cls-1" points="1889.84 378.89 1901.12 409.54 1934.85 456.45 1946.85 463.7 1969.6 463.7 1985.25 455.85 2018.2 402.81 2046.26 351.19 2015.6 368.74 1990.99 354.79 1990.42 312.44 1968.17 291.05 1945.49 304.42 1931.53 346.51 1905.82 370.96 1888.41 355.17 1889.84 378.89"/><path class="cls-2" d="M1905.12,401l5.59,2.81s.23-24.79,7.39-43.13L1905.82,371l-10.15-9.27C1893.11,381.39,1905.12,401,1905.12,401Z"/><path class="cls-48" d="M1910.71,403.85l20.84,12L1946.21,396h28.34l15.16,21.84,18.07-12.21,3.77-2.46s1.26-61.22-38.82-79.94a28.43,28.43,0,0,0-23.5-.36C1909.87,340.24,1910.71,403.85,1910.71,403.85Z"/><polygon class="cls-1" points="1946.21 396.01 1960.32 387.55 1974.55 396.01 1946.21 396.01"/><polygon class="cls-2" points="1946.93 463.7 1932.18 420.95 1947.7 399.69 1960.32 391.78 1972.7 399.69 1989.03 422.26 2018.28 402.81 1985.33 455.85 1969.68 463.7 1946.93 463.7"/><path class="cls-2" d="M2005.86,365.67a116.82,116.82,0,0,1,4.77,22.85l4.77-17.86Z"/><polygon class="cls-1" points="2074.11 378.73 2085.4 409.38 2119.12 456.3 2131.12 463.55 2153.87 463.55 2169.52 455.69 2202.47 402.65 2230.53 351.04 2199.87 368.58 2175.26 354.63 2174.69 312.28 2152.44 290.89 2129.76 304.27 2115.8 346.36 2090.09 370.81 2072.68 355.01 2074.11 378.73"/><path class="cls-2" d="M2089.39,400.88l5.59,2.81s.23-24.79,7.4-43.13l-12.29,10.25-10.15-9.27C2077.38,381.23,2089.39,400.88,2089.39,400.88Z"/><path class="cls-49" d="M2095,403.69l20.84,12,14.66-19.84h28.34L2174,417.69l18.07-12.21,3.77-2.46s1.26-61.22-38.82-79.94a28.43,28.43,0,0,0-23.5-.36C2094.15,340.09,2095,403.69,2095,403.69Z"/><polygon class="cls-1" points="2130.48 395.86 2144.6 387.39 2158.82 395.86 2130.48 395.86"/><polygon class="cls-2" points="2131.2 463.55 2116.45 420.8 2131.97 399.53 2144.6 391.62 2156.97 399.53 2173.3 422.11 2202.55 402.65 2169.6 455.69 2153.95 463.55 2131.2 463.55"/><path class="cls-2" d="M2190.13,365.51a117,117,0,0,1,4.77,22.86l4.77-17.87Z"/><polygon class="cls-1" points="1974.17 423.47 1985.46 454.11 2019.18 501.03 2031.18 508.28 2053.93 508.28 2069.58 500.42 2102.53 447.38 2130.59 395.77 2099.93 413.31 2075.32 399.36 2074.75 357.01 2052.5 335.62 2029.82 349 2015.86 391.09 1990.15 415.54 1972.74 399.75 1974.17 423.47"/><path class="cls-2" d="M1989.45,445.61l5.59,2.81s.23-24.79,7.4-43.12l-12.29,10.24L1980,406.27C1977.44,426,1989.45,445.61,1989.45,445.61Z"/><path class="cls-50" d="M1995,448.42l20.84,12,14.66-19.83h28.34L2074,462.42l18.07-12.21,3.77-2.46s1.26-61.22-38.82-79.94a28.43,28.43,0,0,0-23.5-.36C1994.21,384.82,1995,448.42,1995,448.42Z"/><polygon class="cls-1" points="2030.54 440.59 2044.66 432.12 2058.88 440.59 2030.54 440.59"/><polygon class="cls-2" points="2031.26 508.28 2016.51 465.53 2032.03 444.26 2044.66 436.35 2057.03 444.26 2073.36 466.84 2102.61 447.38 2069.66 500.42 2054.01 508.28 2031.26 508.28"/><path class="cls-2" d="M2090.19,410.25A116.82,116.82,0,0,1,2095,433.1l4.77-17.87Z"/><polygon class="cls-1" points="1452.25 244.45 1463.54 275.09 1497.27 322.01 1509.27 329.26 1532.02 329.26 1547.66 321.4 1580.61 268.36 1608.67 216.75 1578.02 234.29 1553.41 220.34 1552.84 177.99 1530.59 156.6 1507.91 169.98 1493.95 212.07 1468.23 236.52 1450.83 220.73 1452.25 244.45"/><path class="cls-2" d="M1467.54,266.59l5.59,2.81s.23-24.79,7.39-43.12l-12.28,10.24-10.15-9.27C1455.53,246.94,1467.54,266.59,1467.54,266.59Z"/><path class="cls-51" d="M1473.13,269.4l20.83,12,14.67-19.83H1537l15.17,21.83,18.07-12.2,3.76-2.47s1.27-61.22-38.81-79.94a28.49,28.49,0,0,0-23.51-.36C1472.29,205.8,1473.13,269.4,1473.13,269.4Z"/><polygon class="cls-1" points="1508.63 261.57 1522.74 253.1 1536.96 261.57 1508.63 261.57"/><polygon class="cls-2" points="1509.35 329.26 1494.6 286.51 1510.12 265.24 1522.74 257.33 1535.12 265.24 1551.45 287.82 1580.7 268.36 1547.75 321.4 1532.1 329.26 1509.35 329.26"/><path class="cls-2" d="M1568.27,231.23a116.31,116.31,0,0,1,4.78,22.85l4.76-17.87Z"/><polygon class="cls-1" points="1536.76 289.4 1548.05 320.04 1581.78 366.96 1593.78 374.21 1616.52 374.21 1632.17 366.36 1665.12 313.31 1693.18 261.7 1662.53 279.25 1637.92 265.3 1637.35 222.95 1615.1 201.56 1592.42 214.93 1578.46 257.02 1552.74 281.47 1535.33 265.68 1536.76 289.4"/><path class="cls-2" d="M1552.05,311.55l5.59,2.8s.22-24.79,7.39-43.12l-12.29,10.24-10.14-9.27C1540,291.9,1552.05,311.55,1552.05,311.55Z"/><path class="cls-52" d="M1557.64,314.35l20.83,12,14.67-19.83h28.33l15.17,21.83,18.07-12.2,3.76-2.46s1.27-61.23-38.81-79.95a28.49,28.49,0,0,0-23.51-.35C1556.8,250.75,1557.64,314.35,1557.64,314.35Z"/><polygon class="cls-1" points="1593.14 306.52 1607.25 298.06 1621.47 306.52 1593.14 306.52"/><polygon class="cls-2" points="1593.86 374.21 1579.11 331.46 1594.63 310.19 1607.25 302.29 1619.63 310.19 1635.96 332.77 1665.21 313.31 1632.26 366.36 1616.61 374.21 1593.86 374.21"/><path class="cls-2" d="M1652.78,276.18a116.31,116.31,0,0,1,4.78,22.85l4.76-17.86Z"/><polygon class="cls-1" points="1352.31 289.18 1363.6 319.82 1397.33 366.74 1409.33 373.99 1432.08 373.99 1447.72 366.13 1480.67 313.09 1508.73 261.48 1478.08 279.02 1453.47 265.08 1452.9 222.72 1430.65 201.34 1407.97 214.71 1394.01 256.8 1368.3 281.25 1350.88 265.46 1352.31 289.18"/><path class="cls-2" d="M1367.6,311.32l5.59,2.81s.23-24.79,7.39-43.12l-12.28,10.24L1358.15,272C1355.59,291.67,1367.6,311.32,1367.6,311.32Z"/><path class="cls-53" d="M1373.19,314.13l20.83,12,14.67-19.83H1437l15.17,21.83,18.07-12.2,3.76-2.46s1.27-61.23-38.81-80a28.53,28.53,0,0,0-23.51-.36C1372.35,250.53,1373.19,314.13,1373.19,314.13Z"/><polygon class="cls-1" points="1408.69 306.3 1422.8 297.83 1437.02 306.3 1408.69 306.3"/><polygon class="cls-2" points="1409.41 373.99 1394.66 331.24 1410.18 309.97 1422.8 302.07 1435.18 309.97 1451.51 332.55 1480.76 313.09 1447.81 366.13 1432.16 373.99 1409.41 373.99"/><path class="cls-2" d="M1468.33,276a116.31,116.31,0,0,1,4.78,22.85l4.76-17.87Z"/><polygon class="cls-1" points="1436.82 334.13 1448.11 364.78 1481.84 411.69 1493.84 418.94 1516.58 418.94 1532.23 411.09 1565.18 358.05 1593.24 306.43 1562.59 323.98 1537.98 310.03 1537.41 267.68 1515.16 246.29 1492.48 259.66 1478.52 301.75 1452.8 326.2 1435.39 310.41 1436.82 334.13"/><path class="cls-2" d="M1452.11,356.28l5.59,2.81s.22-24.79,7.39-43.13L1452.8,326.2l-10.14-9.27C1440.1,336.63,1452.11,356.28,1452.11,356.28Z"/><path class="cls-54" d="M1457.7,359.09l20.83,12,14.67-19.84h28.33l15.17,21.84,18.07-12.21,3.76-2.46s1.27-61.22-38.81-79.94a28.45,28.45,0,0,0-23.51-.36C1456.86,295.48,1457.7,359.09,1457.7,359.09Z"/><polygon class="cls-1" points="1493.2 351.25 1507.31 342.79 1521.53 351.25 1493.2 351.25"/><polygon class="cls-2" points="1493.92 418.94 1479.17 376.19 1494.69 354.93 1507.31 347.02 1519.69 354.93 1536.02 377.5 1565.27 358.05 1532.32 411.09 1516.67 418.94 1493.92 418.94"/><path class="cls-2" d="M1552.84,320.91a116.31,116.31,0,0,1,4.78,22.85l4.76-17.86Z"/><polygon class="cls-1" points="1621.13 334.18 1632.42 364.82 1666.14 411.74 1678.14 418.99 1700.89 418.99 1716.54 411.13 1749.49 358.09 1777.55 306.48 1746.89 324.02 1722.28 310.07 1721.71 267.72 1699.46 246.34 1676.78 259.71 1662.82 301.8 1637.11 326.25 1619.7 310.46 1621.13 334.18"/><path class="cls-2" d="M1636.41,356.32l5.6,2.81s.22-24.79,7.39-43.12l-12.29,10.24L1627,317C1624.41,336.67,1636.41,356.32,1636.41,356.32Z"/><path class="cls-55" d="M1642,359.13l20.83,12,14.67-19.83h28.33L1721,373.13l18.06-12.21,3.77-2.46s1.27-61.22-38.82-79.94a28.43,28.43,0,0,0-23.5-.36C1641.17,295.53,1642,359.13,1642,359.13Z"/><polygon class="cls-1" points="1677.51 351.3 1691.62 342.83 1705.84 351.3 1677.51 351.3"/><polygon class="cls-2" points="1678.22 418.99 1663.47 376.24 1678.99 354.97 1691.62 347.06 1703.99 354.97 1720.32 377.55 1749.57 358.09 1716.62 411.13 1700.97 418.99 1678.22 418.99"/><path class="cls-2" d="M1737.15,321a116.82,116.82,0,0,1,4.77,22.85l4.77-17.87Z"/><polygon class="cls-1" points="1521.19 378.91 1532.48 409.55 1566.2 456.47 1578.2 463.72 1600.95 463.72 1616.6 455.87 1649.55 402.82 1677.61 351.21 1646.95 368.75 1622.34 354.81 1621.78 312.45 1599.53 291.07 1576.84 304.44 1562.88 346.53 1537.17 370.98 1519.76 355.19 1521.19 378.91"/><path class="cls-2" d="M1536.47,401.05l5.6,2.81s.22-24.79,7.39-43.12L1537.17,371,1527,361.71C1524.47,381.4,1536.47,401.05,1536.47,401.05Z"/><path class="cls-56" d="M1542.07,403.86l20.83,12L1577.57,396h28.33l15.17,21.83,18.06-12.2,3.77-2.46s1.27-61.23-38.82-79.95a28.5,28.5,0,0,0-23.5-.36C1541.23,340.26,1542.07,403.86,1542.07,403.86Z"/><polygon class="cls-1" points="1577.57 396.03 1591.68 387.56 1605.9 396.03 1577.57 396.03"/><polygon class="cls-2" points="1578.28 463.72 1563.53 420.97 1579.05 399.7 1591.68 391.8 1604.05 399.7 1620.38 422.28 1649.63 402.82 1616.68 455.87 1601.03 463.72 1578.28 463.72"/><path class="cls-2" d="M1637.21,365.69a116.82,116.82,0,0,1,4.77,22.85l4.77-17.87Z"/><polygon class="cls-1" points="1705.45 378.87 1716.74 409.51 1750.47 456.43 1762.47 463.68 1785.22 463.68 1800.87 455.82 1833.82 402.78 1861.88 351.17 1831.22 368.71 1806.61 354.76 1806.04 312.41 1783.79 291.03 1761.11 304.4 1747.15 346.49 1721.44 370.94 1704.03 355.15 1705.45 378.87"/><path class="cls-2" d="M1720.74,401l5.59,2.81s.23-24.79,7.4-43.12l-12.29,10.24-10.15-9.27C1708.73,381.36,1720.74,401,1720.74,401Z"/><path class="cls-57" d="M1726.33,403.82l20.84,12L1761.83,396h28.34l15.16,21.83,18.07-12.2,3.77-2.47s1.26-61.22-38.82-79.94a28.5,28.5,0,0,0-23.5-.36C1725.49,340.22,1726.33,403.82,1726.33,403.82Z"/><polygon class="cls-1" points="1761.83 395.99 1775.94 387.52 1790.17 395.99 1761.83 395.99"/><polygon class="cls-2" points="1762.55 463.68 1747.8 420.93 1763.32 399.66 1775.94 391.75 1788.32 399.66 1804.65 422.24 1833.9 402.78 1800.95 455.82 1785.3 463.68 1762.55 463.68"/><path class="cls-2" d="M1821.48,365.65a116.82,116.82,0,0,1,4.77,22.85l4.77-17.87Z"/><polygon class="cls-1" points="1605.52 423.6 1616.81 454.24 1650.53 501.16 1662.53 508.41 1685.28 508.41 1700.93 500.56 1733.88 447.51 1761.94 395.9 1731.28 413.45 1706.67 399.5 1706.1 357.14 1683.85 335.76 1661.17 349.13 1647.21 391.22 1621.5 415.67 1604.09 399.88 1605.52 423.6"/><path class="cls-2" d="M1620.8,445.74l5.59,2.81s.23-24.79,7.4-43.12l-12.29,10.24-10.15-9.27C1608.79,426.09,1620.8,445.74,1620.8,445.74Z"/><path class="cls-58" d="M1626.39,448.55l20.84,12,14.66-19.83h28.34l15.16,21.83,18.07-12.2,3.77-2.46s1.26-61.23-38.82-79.95a28.5,28.5,0,0,0-23.5-.36C1625.55,385,1626.39,448.55,1626.39,448.55Z"/><polygon class="cls-1" points="1661.89 440.72 1676.01 432.25 1690.23 440.72 1661.89 440.72"/><polygon class="cls-2" points="1662.61 508.41 1647.86 465.66 1663.38 444.39 1676.01 436.49 1688.38 444.39 1704.71 466.97 1733.96 447.51 1701.01 500.56 1685.36 508.41 1662.61 508.41"/><path class="cls-2" d="M1721.54,410.38a116.82,116.82,0,0,1,4.77,22.85l4.77-17.87Z"/><polygon class="cls-1" points="1789.82 423.64 1801.11 454.29 1834.84 501.21 1846.84 508.46 1869.59 508.46 1885.23 500.6 1918.18 447.56 1946.24 395.94 1915.59 413.49 1890.98 399.54 1890.41 357.19 1868.16 335.8 1845.48 349.18 1831.52 391.26 1805.81 415.71 1788.39 399.92 1789.82 423.64"/><path class="cls-2" d="M1805.11,445.79l5.59,2.81s.23-24.79,7.39-43.13l-12.29,10.24-10.14-9.26C1793.1,426.14,1805.11,445.79,1805.11,445.79Z"/><path class="cls-59" d="M1810.7,448.6l20.83,12,14.67-19.84h28.33l15.17,21.84,18.07-12.21,3.76-2.46s1.27-61.22-38.81-79.94a28.45,28.45,0,0,0-23.51-.36C1809.86,385,1810.7,448.6,1810.7,448.6Z"/><polygon class="cls-1" points="1846.2 440.76 1860.31 432.3 1874.53 440.76 1846.2 440.76"/><polygon class="cls-2" points="1846.92 508.46 1832.17 465.71 1847.69 444.44 1860.31 436.53 1872.69 444.44 1889.02 467.02 1918.27 447.56 1885.32 500.6 1869.67 508.46 1846.92 508.46"/><path class="cls-2" d="M1905.84,410.42a116.54,116.54,0,0,1,4.78,22.85l4.76-17.86Z"/><polygon class="cls-1" points="1689.88 468.38 1701.17 499.02 1734.89 545.94 1746.89 553.19 1769.64 553.19 1785.29 545.33 1818.24 492.29 1846.31 440.68 1815.64 458.22 1791.04 444.27 1790.47 401.92 1768.22 380.53 1745.54 393.91 1731.58 436 1705.87 460.45 1688.45 444.65 1689.88 468.38"/><path class="cls-2" d="M1705.17,490.52l5.59,2.81s.23-24.79,7.39-43.12l-12.29,10.24-10.14-9.27C1693.16,470.87,1705.17,490.52,1705.17,490.52Z"/><path class="cls-60" d="M1710.76,493.33l20.83,12,14.67-19.83h28.33l15.17,21.83,18.07-12.21,3.76-2.46s1.27-61.22-38.81-79.94a28.45,28.45,0,0,0-23.51-.36C1709.92,429.73,1710.76,493.33,1710.76,493.33Z"/><polygon class="cls-1" points="1746.26 485.5 1760.37 477.03 1774.59 485.5 1746.26 485.5"/><polygon class="cls-2" points="1746.98 553.19 1732.23 510.44 1747.75 489.17 1760.37 481.26 1772.75 489.17 1789.08 511.75 1818.33 492.29 1785.38 545.33 1769.73 553.19 1746.98 553.19"/><path class="cls-2" d="M1805.9,455.16a116.31,116.31,0,0,1,4.78,22.85l4.76-17.87Z"/><polygon class="cls-1" points="1874.15 468.22 1885.44 498.86 1919.17 545.78 1931.17 553.03 1953.92 553.03 1969.57 545.17 2002.52 492.13 2030.58 440.52 1999.92 458.06 1975.31 444.12 1974.74 401.76 1952.49 380.38 1929.81 393.75 1915.85 435.84 1890.14 460.29 1872.73 444.5 1874.15 468.22"/><path class="cls-2" d="M1889.44,490.36l5.59,2.81s.23-24.79,7.39-43.12l-12.28,10.24L1880,451C1877.43,470.71,1889.44,490.36,1889.44,490.36Z"/><path class="cls-61" d="M1895,493.17l20.83,12,14.67-19.83h28.33L1974,507.17,1992.1,495l3.76-2.46s1.27-61.23-38.81-79.95a28.5,28.5,0,0,0-23.5-.36C1894.19,429.57,1895,493.17,1895,493.17Z"/><polygon class="cls-1" points="1930.53 485.34 1944.64 476.87 1958.87 485.34 1930.53 485.34"/><polygon class="cls-2" points="1931.25 553.03 1916.5 510.28 1932.02 489.01 1944.64 481.11 1957.02 489.01 1973.35 511.59 2002.6 492.13 1969.65 545.17 1954 553.03 1931.25 553.03"/><path class="cls-2" d="M1990.18,455a116.82,116.82,0,0,1,4.77,22.85l4.76-17.87Z"/><polygon class="cls-1" points="1774.21 512.95 1785.5 543.59 1819.23 590.51 1831.23 597.76 1853.98 597.76 1869.63 589.91 1902.58 536.86 1930.64 485.25 1899.98 502.8 1875.37 488.85 1874.8 446.5 1852.55 425.11 1829.87 438.48 1815.91 480.57 1790.2 505.02 1772.79 489.23 1774.21 512.95"/><path class="cls-2" d="M1789.5,535.1l5.59,2.8s.23-24.79,7.39-43.12L1790.2,505l-10.15-9.27C1777.49,515.44,1789.5,535.1,1789.5,535.1Z"/><path class="cls-62" d="M1795.09,537.9l20.83,12,14.67-19.83h28.33l15.17,21.83,18.07-12.2,3.76-2.46s1.27-61.23-38.81-79.95a28.5,28.5,0,0,0-23.5-.36C1794.25,474.3,1795.09,537.9,1795.09,537.9Z"/><polygon class="cls-1" points="1830.59 530.07 1844.7 521.61 1858.92 530.07 1830.59 530.07"/><polygon class="cls-2" points="1831.31 597.76 1816.56 555.01 1832.08 533.74 1844.7 525.84 1857.08 533.74 1873.41 556.32 1902.66 536.86 1869.71 589.91 1854.06 597.76 1831.31 597.76"/><path class="cls-2" d="M1890.24,499.73a116.82,116.82,0,0,1,4.77,22.85l4.76-17.87Z"/><polygon class="cls-1" points="2729.15 221.98 2740.44 252.63 2774.16 299.55 2786.16 306.8 2808.91 306.8 2824.56 298.94 2857.51 245.9 2885.57 194.28 2854.91 211.83 2830.31 197.88 2829.74 155.53 2807.49 134.14 2784.81 147.52 2770.84 189.6 2745.13 214.06 2727.72 198.26 2729.15 221.98"/><path class="cls-2" d="M2744.44,244.13l5.59,2.81s.22-24.79,7.39-43.13l-12.29,10.25L2735,204.79C2732.43,224.48,2744.44,244.13,2744.44,244.13Z"/><path class="cls-63" d="M2750,246.94l20.83,12,14.67-19.84h28.33L2829,260.94l18.06-12.21,3.77-2.46s1.27-61.22-38.81-79.94a28.45,28.45,0,0,0-23.51-.36C2749.19,183.34,2750,246.94,2750,246.94Z"/><polygon class="cls-1" points="2785.53 239.1 2799.64 230.64 2813.86 239.1 2785.53 239.1"/><polygon class="cls-2" points="2786.25 306.8 2771.5 264.05 2787.01 242.78 2799.64 234.87 2812.01 242.78 2828.34 265.36 2857.59 245.9 2824.64 298.94 2809 306.8 2786.25 306.8"/><path class="cls-2" d="M2845.17,208.76a117.44,117.44,0,0,1,4.78,22.86l4.76-17.87Z"/><polygon class="cls-1" points="2813.66 266.94 2824.95 297.58 2858.67 344.5 2870.67 351.75 2893.42 351.75 2909.07 343.89 2942.02 290.85 2970.08 239.24 2939.42 256.79 2914.82 242.84 2914.25 200.48 2892 179.1 2869.32 192.47 2855.35 234.56 2829.64 259.01 2812.23 243.22 2813.66 266.94"/><path class="cls-2" d="M2829,289.08l5.59,2.81s.22-24.79,7.39-43.12L2829.64,259l-10.15-9.27C2816.94,269.43,2829,289.08,2829,289.08Z"/><path class="cls-64" d="M2834.54,291.89l20.83,12L2870,284.06h28.33l15.17,21.83,18.06-12.2,3.77-2.47s1.27-61.22-38.82-79.94a28.5,28.5,0,0,0-23.5-.36C2833.7,228.29,2834.54,291.89,2834.54,291.89Z"/><polygon class="cls-1" points="2870.04 284.06 2884.15 275.59 2898.37 284.06 2870.04 284.06"/><polygon class="cls-2" points="2870.76 351.75 2856.01 309 2871.52 287.73 2884.15 279.82 2896.52 287.73 2912.85 310.31 2942.1 290.85 2909.15 343.89 2893.51 351.75 2870.76 351.75"/><path class="cls-2" d="M2929.68,253.72a116.82,116.82,0,0,1,4.77,22.85l4.77-17.87Z"/><polygon class="cls-1" points="2629.21 266.71 2640.5 297.36 2674.22 344.28 2686.22 351.53 2708.97 351.53 2724.62 343.67 2757.57 290.63 2785.63 239.02 2754.97 256.56 2730.37 242.61 2729.8 200.26 2707.55 178.87 2684.87 192.25 2670.91 234.34 2645.19 258.79 2627.78 243 2629.21 266.71"/><path class="cls-2" d="M2644.5,288.86l5.59,2.81s.22-24.79,7.39-43.12l-12.29,10.24L2635,249.52C2632.49,269.21,2644.5,288.86,2644.5,288.86Z"/><path class="cls-65" d="M2650.09,291.67l20.83,12,14.67-19.83h28.33l15.17,21.83,18.06-12.21,3.77-2.46s1.27-61.22-38.81-79.94a28.45,28.45,0,0,0-23.51-.36C2649.25,228.07,2650.09,291.67,2650.09,291.67Z"/><polygon class="cls-1" points="2685.59 283.84 2699.7 275.37 2713.92 283.84 2685.59 283.84"/><polygon class="cls-2" points="2686.31 351.53 2671.56 308.78 2687.07 287.51 2699.7 279.6 2712.07 287.51 2728.41 310.09 2757.66 290.63 2724.7 343.67 2709.06 351.53 2686.31 351.53"/><path class="cls-2" d="M2745.23,253.5a117.21,117.21,0,0,1,4.78,22.85l4.76-17.87Z"/><polygon class="cls-1" points="2713.72 311.67 2725.01 342.31 2758.73 389.23 2770.73 396.48 2793.48 396.48 2809.13 388.63 2842.08 335.58 2870.14 283.97 2839.48 301.52 2814.88 287.57 2814.31 245.22 2792.06 223.83 2769.38 237.2 2755.41 279.29 2729.7 303.74 2712.29 287.95 2713.72 311.67"/><path class="cls-2" d="M2729,333.81l5.59,2.81s.22-24.79,7.39-43.12l-12.29,10.24-10.15-9.27C2717,314.16,2729,333.81,2729,333.81Z"/><path class="cls-66" d="M2734.6,336.62l20.83,12,14.67-19.83h28.33l15.17,21.83,18.06-12.2,3.77-2.46s1.27-61.23-38.82-79.95a28.5,28.5,0,0,0-23.5-.36C2733.76,273,2734.6,336.62,2734.6,336.62Z"/><polygon class="cls-1" points="2770.1 328.79 2784.21 320.32 2798.43 328.79 2770.1 328.79"/><polygon class="cls-2" points="2770.82 396.48 2756.07 353.73 2771.58 332.46 2784.21 324.56 2796.58 332.46 2812.91 355.04 2842.16 335.58 2809.21 388.63 2793.57 396.48 2770.82 396.48"/><path class="cls-2" d="M2829.74,298.45a116.82,116.82,0,0,1,4.77,22.85l4.77-17.87Z"/><polygon class="cls-1" points="2898.03 311.71 2909.31 342.36 2943.04 389.28 2955.04 396.53 2977.79 396.53 2993.44 388.67 3026.39 335.63 3054.45 284.01 3023.79 301.56 2999.18 287.61 2998.61 245.26 2976.36 223.87 2953.68 237.25 2939.72 279.33 2914.01 303.79 2896.6 287.99 2898.03 311.71"/><path class="cls-2" d="M2913.31,333.86l5.59,2.81s.23-24.79,7.4-43.13L2914,303.78l-10.15-9.26C2901.3,314.21,2913.31,333.86,2913.31,333.86Z"/><path class="cls-67" d="M2918.9,336.67l20.84,12,14.66-19.84h28.34l15.16,21.84L3016,338.46l3.77-2.46s1.26-61.22-38.82-79.94a28.43,28.43,0,0,0-23.5-.36C2918.06,273.07,2918.9,336.67,2918.9,336.67Z"/><polygon class="cls-1" points="2954.4 328.83 2968.51 320.37 2982.74 328.83 2954.4 328.83"/><polygon class="cls-2" points="2955.12 396.53 2940.37 353.78 2955.89 332.51 2968.51 324.6 2980.89 332.51 2997.22 355.09 3026.47 335.63 2993.52 388.67 2977.87 396.53 2955.12 396.53"/><path class="cls-2" d="M3014.05,298.49a117,117,0,0,1,4.77,22.85l4.77-17.86Z"/><polygon class="cls-1" points="2798.09 356.44 2809.38 387.09 2843.1 434.01 2855.1 441.26 2877.85 441.26 2893.5 433.4 2926.45 380.36 2954.51 328.75 2923.85 346.29 2899.24 332.34 2898.67 289.99 2876.42 268.6 2853.74 281.98 2839.78 324.07 2814.07 348.52 2796.66 332.72 2798.09 356.44"/><path class="cls-2" d="M2813.37,378.59l5.59,2.81s.23-24.79,7.4-43.12l-12.29,10.24-10.15-9.27C2801.36,358.94,2813.37,378.59,2813.37,378.59Z"/><path class="cls-68" d="M2819,381.4l20.84,12,14.66-19.83h28.34L2898,395.4,2916,383.19l3.77-2.46s1.26-61.22-38.82-79.94a28.43,28.43,0,0,0-23.5-.36C2818.12,317.8,2819,381.4,2819,381.4Z"/><polygon class="cls-1" points="2854.46 373.57 2868.57 365.1 2882.8 373.57 2854.46 373.57"/><polygon class="cls-2" points="2855.18 441.26 2840.43 398.51 2855.95 377.24 2868.57 369.33 2880.95 377.24 2897.28 399.82 2926.53 380.36 2893.58 433.4 2877.93 441.26 2855.18 441.26"/><path class="cls-2" d="M2914.11,343.23a116.82,116.82,0,0,1,4.77,22.85l4.77-17.87Z"/><polygon class="cls-1" points="2529.2 311.47 2540.49 342.11 2574.21 389.03 2586.21 396.28 2608.96 396.28 2624.61 388.43 2657.56 335.38 2685.62 283.77 2654.96 301.31 2630.35 287.37 2629.78 245.01 2607.53 223.63 2584.85 237 2570.89 279.09 2545.18 303.54 2527.77 287.75 2529.2 311.47"/><path class="cls-2" d="M2544.48,333.61l5.6,2.81s.22-24.79,7.39-43.12l-12.29,10.24L2535,294.27C2532.48,314,2544.48,333.61,2544.48,333.61Z"/><path class="cls-69" d="M2550.08,336.42l20.83,12,14.67-19.83h28.33l15.17,21.83,18.06-12.2,3.77-2.47s1.27-61.22-38.82-79.94a28.5,28.5,0,0,0-23.5-.36C2549.24,272.82,2550.08,336.42,2550.08,336.42Z"/><polygon class="cls-1" points="2585.57 328.59 2599.69 320.12 2613.91 328.59 2585.57 328.59"/><polygon class="cls-2" points="2586.29 396.28 2571.54 353.53 2587.06 332.26 2599.69 324.36 2612.06 332.26 2628.39 354.84 2657.64 335.38 2624.69 388.43 2609.04 396.28 2586.29 396.28"/><path class="cls-2" d="M2645.22,298.25A116.82,116.82,0,0,1,2650,321.1l4.77-17.87Z"/><polygon class="cls-1" points="2613.71 356.42 2624.99 387.06 2658.72 433.98 2670.72 441.23 2693.47 441.23 2709.12 433.38 2742.07 380.34 2770.13 328.72 2739.47 346.27 2714.86 332.32 2714.29 289.97 2692.04 268.58 2669.36 281.95 2655.4 324.04 2629.69 348.49 2612.28 332.7 2613.71 356.42"/><path class="cls-2" d="M2629,378.57l5.59,2.8s.23-24.79,7.4-43.12l-12.29,10.24-10.15-9.27C2617,358.92,2629,378.57,2629,378.57Z"/><path class="cls-70" d="M2634.58,381.37l20.84,12,14.66-19.83h28.34l15.16,21.83,18.07-12.2,3.77-2.46s1.26-61.22-38.82-79.94a28.43,28.43,0,0,0-23.5-.36C2633.75,317.77,2634.58,381.37,2634.58,381.37Z"/><polygon class="cls-1" points="2670.08 373.54 2684.2 365.08 2698.42 373.54 2670.08 373.54"/><polygon class="cls-2" points="2670.8 441.23 2656.05 398.48 2671.57 377.21 2684.2 369.31 2696.57 377.21 2712.9 399.79 2742.15 380.34 2709.2 433.38 2693.55 441.23 2670.8 441.23"/><path class="cls-2" d="M2729.73,343.2a116.82,116.82,0,0,1,4.77,22.85l4.77-17.86Z"/><polygon class="cls-1" points="2429.26 356.2 2440.55 386.84 2474.27 433.76 2486.27 441.01 2509.02 441.01 2524.67 433.16 2557.62 380.11 2585.68 328.5 2555.02 346.05 2530.41 332.1 2529.84 289.75 2507.59 268.36 2484.91 281.73 2470.95 323.82 2445.24 348.27 2427.83 332.48 2429.26 356.2"/><path class="cls-2" d="M2444.54,378.34l5.6,2.81s.22-24.79,7.39-43.12l-12.29,10.24L2435.09,339C2432.54,358.69,2444.54,378.34,2444.54,378.34Z"/><path class="cls-71" d="M2450.14,381.15l20.83,12,14.67-19.83H2514l15.17,21.83L2547.2,383l3.77-2.46s1.27-61.23-38.82-79.95a28.5,28.5,0,0,0-23.5-.36C2449.3,317.55,2450.14,381.15,2450.14,381.15Z"/><polygon class="cls-1" points="2485.64 373.32 2499.75 364.85 2513.97 373.32 2485.64 373.32"/><polygon class="cls-2" points="2486.35 441.01 2471.6 398.26 2487.12 376.99 2499.75 369.09 2512.12 376.99 2528.45 399.57 2557.7 380.11 2524.75 433.16 2509.1 441.01 2486.35 441.01"/><path class="cls-2" d="M2545.28,343a116.82,116.82,0,0,1,4.77,22.85l4.77-17.87Z"/><polygon class="cls-1" points="2513.77 401.15 2525.06 431.8 2558.78 478.71 2570.78 485.96 2593.53 485.96 2609.18 478.11 2642.13 425.07 2670.19 373.45 2639.53 391 2614.92 377.05 2614.35 334.7 2592.1 313.31 2569.42 326.68 2555.46 368.77 2529.75 393.22 2512.34 377.43 2513.77 401.15"/><path class="cls-2" d="M2529.05,423.3l5.59,2.81s.23-24.79,7.4-43.13l-12.29,10.24L2519.6,384C2517,403.65,2529.05,423.3,2529.05,423.3Z"/><path class="cls-72" d="M2534.64,426.11l20.84,12,14.66-19.84h28.34l15.16,21.84,18.07-12.21,3.77-2.46s1.26-61.22-38.82-79.94a28.43,28.43,0,0,0-23.5-.36C2533.81,362.5,2534.64,426.11,2534.64,426.11Z"/><polygon class="cls-1" points="2570.14 418.27 2584.26 409.81 2598.48 418.27 2570.14 418.27"/><polygon class="cls-2" points="2570.86 485.96 2556.11 443.21 2571.63 421.95 2584.26 414.04 2596.63 421.95 2612.96 444.53 2642.21 425.07 2609.26 478.11 2593.61 485.96 2570.86 485.96"/><path class="cls-2" d="M2629.79,387.93a116.82,116.82,0,0,1,4.77,22.85l4.77-17.86Z"/><polygon class="cls-1" points="2698.07 401.2 2709.36 431.84 2743.09 478.76 2755.09 486.01 2777.84 486.01 2793.48 478.15 2826.43 425.11 2854.49 373.5 2823.84 391.04 2799.23 377.1 2798.66 334.74 2776.41 313.36 2753.73 326.73 2739.77 368.82 2714.05 393.27 2696.64 377.48 2698.07 401.2"/><path class="cls-2" d="M2713.36,423.34l5.59,2.81s.23-24.79,7.39-43.12l-12.28,10.24L2703.91,384C2701.35,403.69,2713.36,423.34,2713.36,423.34Z"/><path class="cls-73" d="M2719,426.15l20.83,12,14.67-19.83h28.33L2798,440.15,2816,428l3.76-2.47s1.27-61.22-38.81-79.94a28.53,28.53,0,0,0-23.51-.36C2718.11,362.55,2719,426.15,2719,426.15Z"/><polygon class="cls-1" points="2754.45 418.32 2768.56 409.85 2782.78 418.32 2754.45 418.32"/><polygon class="cls-2" points="2755.17 486.01 2740.42 443.26 2755.94 421.99 2768.56 414.08 2780.94 421.99 2797.27 444.57 2826.52 425.11 2793.57 478.15 2777.92 486.01 2755.17 486.01"/><path class="cls-2" d="M2814.09,388a116.31,116.31,0,0,1,4.78,22.85l4.76-17.87Z"/><polygon class="cls-1" points="2598.13 445.93 2609.42 476.57 2643.15 523.49 2655.15 530.74 2677.9 530.74 2693.54 522.89 2726.49 469.84 2754.55 418.23 2723.9 435.78 2699.29 421.83 2698.72 379.47 2676.47 358.09 2653.79 371.46 2639.83 413.55 2614.11 438 2596.71 422.21 2598.13 445.93"/><path class="cls-2" d="M2613.42,468.07l5.59,2.81s.23-24.79,7.39-43.12L2614.12,438,2604,428.73C2601.41,448.42,2613.42,468.07,2613.42,468.07Z"/><path class="cls-74" d="M2619,470.88l20.83,12,14.67-19.83h28.33L2698,484.88l18.07-12.2,3.76-2.46s1.27-61.23-38.81-80a28.53,28.53,0,0,0-23.51-.36C2618.17,407.28,2619,470.88,2619,470.88Z"/><polygon class="cls-1" points="2654.51 463.05 2668.62 454.58 2682.84 463.05 2654.51 463.05"/><polygon class="cls-2" points="2655.23 530.74 2640.48 487.99 2656 466.72 2668.62 458.82 2681 466.72 2697.33 489.3 2726.58 469.84 2693.63 522.89 2677.98 530.74 2655.23 530.74"/><path class="cls-2" d="M2714.15,432.71a116.31,116.31,0,0,1,4.78,22.85l4.76-17.87Z"/><path class="cls-75" d="M2348,365.57h-7.83v-7.83a3.59,3.59,0,1,0-7.17,0v7.83h-7.83a3.59,3.59,0,0,0,0,7.17H2333v7.83a3.59,3.59,0,0,0,7.17,0v-7.83H2348a3.59,3.59,0,1,0,0-7.17Z"/><rect class="cls-75" x="1225.06" y="320.63" width="34" height="4.84" rx="2.42" ry="2.42"/><rect class="cls-75" x="1225.06" y="330.8" width="34" height="4.84" rx="2.42" ry="2.42"/></g></svg>