<svg xmlns="http://www.w3.org/2000/svg" xmlns:xlink="http://www.w3.org/1999/xlink" viewBox="0 0 1503.29 485.9"><defs><style>.cls-1{fill:#62abbc;}.cls-2{fill:#3d838e;opacity:0.51;}.cls-3{fill:url(#linear-gradient);}.cls-4{fill:url(#linear-gradient-2);}.cls-5{fill:url(#linear-gradient-3);}.cls-6{fill:url(#linear-gradient-4);}.cls-7{fill:url(#linear-gradient-5);}.cls-8{fill:url(#linear-gradient-6);}.cls-9{fill:url(#linear-gradient-7);}.cls-10{fill:url(#linear-gradient-8);}.cls-11{fill:url(#linear-gradient-9);}.cls-12{fill:url(#linear-gradient-10);}.cls-13{fill:url(#linear-gradient-11);}.cls-14{fill:url(#linear-gradient-12);}.cls-15{fill:url(#linear-gradient-13);}.cls-16{fill:url(#linear-gradient-14);}.cls-17{fill:url(#linear-gradient-15);}.cls-18{fill:url(#linear-gradient-16);}.cls-19{fill:url(#linear-gradient-17);}.cls-20{fill:url(#linear-gradient-18);}.cls-21{fill:url(#linear-gradient-19);}.cls-22{fill:url(#linear-gradient-20);}.cls-23{fill:url(#linear-gradient-21);}.cls-24{fill:url(#linear-gradient-22);}.cls-25{fill:url(#linear-gradient-23);}.cls-26{fill:url(#linear-gradient-24);}.cls-27{fill:url(#linear-gradient-25);}.cls-28{fill:url(#linear-gradient-26);}.cls-29{fill:url(#linear-gradient-27);}.cls-30{fill:#f05023;}</style><linearGradient id="linear-gradient" x1="222.21" y1="78.13" x2="323.05" y2="78.13" gradientUnits="userSpaceOnUse"><stop offset="0" stop-color="#fbb040"/><stop offset="0.39" stop-color="#f9ae41"/><stop offset="0.59" stop-color="#f1a845"/><stop offset="0.74" stop-color="#e49e4b"/><stop offset="0.87" stop-color="#d18f55"/><stop offset="0.99" stop-color="#b97c60"/><stop offset="1" stop-color="#b67a62"/></linearGradient><linearGradient id="linear-gradient-2" x1="306.72" y1="123.08" x2="407.56" y2="123.08" xlink:href="#linear-gradient"/><linearGradient id="linear-gradient-3" x1="391.09" y1="167.86" x2="491.93" y2="167.86" xlink:href="#linear-gradient"/><linearGradient id="linear-gradient-4" x1="475.42" y1="212.55" x2="576.26" y2="212.55" xlink:href="#linear-gradient"/><linearGradient id="linear-gradient-5" x1="559.78" y1="257.33" x2="660.62" y2="257.33" xlink:href="#linear-gradient"/><linearGradient id="linear-gradient-6" x1="644.12" y1="301.9" x2="744.95" y2="301.9" xlink:href="#linear-gradient"/><linearGradient id="linear-gradient-7" x1="122.24" y1="122.87" x2="223.08" y2="122.87" xlink:href="#linear-gradient"/><linearGradient id="linear-gradient-8" x1="206.75" y1="167.83" x2="307.59" y2="167.83" xlink:href="#linear-gradient"/><linearGradient id="linear-gradient-9" x1="22.3" y1="167.61" x2="123.14" y2="167.61" xlink:href="#linear-gradient"/><linearGradient id="linear-gradient-10" x1="106.81" y1="212.56" x2="207.65" y2="212.56" xlink:href="#linear-gradient"/><linearGradient id="linear-gradient-11" x1="291.12" y1="212.6" x2="391.96" y2="212.6" xlink:href="#linear-gradient"/><linearGradient id="linear-gradient-12" x1="191.18" y1="257.34" x2="292.02" y2="257.34" xlink:href="#linear-gradient"/><linearGradient id="linear-gradient-13" x1="375.45" y1="257.3" x2="476.29" y2="257.3" xlink:href="#linear-gradient"/><linearGradient id="linear-gradient-14" x1="275.51" y1="302.03" x2="376.35" y2="302.03" xlink:href="#linear-gradient"/><linearGradient id="linear-gradient-15" x1="459.81" y1="302.07" x2="560.65" y2="302.07" xlink:href="#linear-gradient"/><linearGradient id="linear-gradient-16" x1="359.87" y1="346.8" x2="460.71" y2="346.8" xlink:href="#linear-gradient"/><linearGradient id="linear-gradient-17" x1="544.14" y1="346.65" x2="644.98" y2="346.65" xlink:href="#linear-gradient"/><linearGradient id="linear-gradient-18" x1="444.2" y1="391.38" x2="545.04" y2="391.38" xlink:href="#linear-gradient"/><linearGradient id="linear-gradient-19" x1="1198.87" y1="145.15" x2="1299.71" y2="145.15" xlink:href="#linear-gradient"/><linearGradient id="linear-gradient-20" x1="1283.38" y1="190.1" x2="1384.22" y2="190.1" xlink:href="#linear-gradient"/><linearGradient id="linear-gradient-21" x1="1367.75" y1="234.88" x2="1468.58" y2="234.88" xlink:href="#linear-gradient"/><linearGradient id="linear-gradient-22" x1="1098.9" y1="189.9" x2="1199.74" y2="189.9" xlink:href="#linear-gradient"/><linearGradient id="linear-gradient-23" x1="1183.41" y1="234.85" x2="1284.25" y2="234.85" xlink:href="#linear-gradient"/><linearGradient id="linear-gradient-24" x1="998.96" y1="234.63" x2="1099.8" y2="234.63" xlink:href="#linear-gradient"/><linearGradient id="linear-gradient-25" x1="1083.47" y1="279.58" x2="1184.31" y2="279.58" xlink:href="#linear-gradient"/><linearGradient id="linear-gradient-26" x1="1267.77" y1="279.63" x2="1368.61" y2="279.63" xlink:href="#linear-gradient"/><linearGradient id="linear-gradient-27" x1="1167.83" y1="324.36" x2="1268.67" y2="324.36" xlink:href="#linear-gradient"/></defs><title>V3_R3</title><g id="Layer_2" data-name="Layer 2"><polygon class="cls-1" points="201.34 87.84 212.63 118.49 246.35 165.4 258.35 172.65 281.1 172.65 296.75 164.8 329.7 111.76 357.76 60.14 327.1 77.69 302.49 63.74 301.93 21.39 279.68 0 256.99 13.37 243.03 55.46 217.32 79.91 199.91 64.12 201.34 87.84"/><path class="cls-2" d="M216.62,110l5.6,2.81s.22-24.79,7.39-43.13L217.32,79.91l-10.15-9.27C204.62,90.34,216.62,110,216.62,110Z"/><path class="cls-3" d="M222.22,112.8l20.83,12L257.72,105h28.33l15.17,21.84,18.06-12.21,3.77-2.46s1.27-61.22-38.82-79.94a28.43,28.43,0,0,0-23.5-.36C221.38,49.19,222.22,112.8,222.22,112.8Z"/><polygon class="cls-1" points="257.72 104.96 271.83 96.5 286.05 104.96 257.72 104.96"/><polygon class="cls-2" points="258.43 172.65 243.68 129.9 259.2 108.64 271.83 100.73 284.2 108.64 300.53 131.22 329.78 111.76 296.83 164.8 281.18 172.65 258.43 172.65"/><path class="cls-2" d="M317.36,74.62a116.82,116.82,0,0,1,4.77,22.85l4.77-17.86Z"/><polygon class="cls-1" points="285.85 132.79 297.14 163.44 330.86 210.36 342.86 217.61 365.61 217.61 381.26 209.75 414.21 156.71 442.27 105.1 411.61 122.64 387 108.69 386.43 66.34 364.18 44.95 341.5 58.33 327.54 100.42 301.83 124.87 284.42 109.07 285.85 132.79"/><path class="cls-2" d="M301.13,154.94l5.59,2.81s.23-24.79,7.4-43.12l-12.29,10.24-10.15-9.27C289.12,135.29,301.13,154.94,301.13,154.94Z"/><path class="cls-4" d="M306.72,157.75l20.84,12,14.66-19.83h28.34l15.16,21.83,18.07-12.21,3.77-2.46s1.26-61.22-38.82-79.94a28.43,28.43,0,0,0-23.5-.36C305.89,94.15,306.72,157.75,306.72,157.75Z"/><polygon class="cls-1" points="342.22 149.92 356.34 141.45 370.56 149.92 342.22 149.92"/><polygon class="cls-2" points="342.94 217.61 328.19 174.86 343.71 153.59 356.34 145.68 368.71 153.59 385.04 176.17 414.29 156.71 381.34 209.75 365.69 217.61 342.94 217.61"/><path class="cls-2" d="M401.87,119.58a116.82,116.82,0,0,1,4.77,22.85l4.77-17.87Z"/><polygon class="cls-1" points="370.21 177.57 381.5 208.22 415.23 255.13 427.23 262.38 449.98 262.38 465.62 254.53 498.57 201.49 526.63 149.87 495.98 167.42 471.37 153.47 470.8 111.12 448.55 89.73 425.87 103.1 411.91 145.19 386.2 169.64 368.79 153.85 370.21 177.57"/><path class="cls-2" d="M385.5,199.72l5.59,2.81s.23-24.8,7.39-43.13L386.2,169.64l-10.15-9.27C373.49,180.07,385.5,199.72,385.5,199.72Z"/><path class="cls-5" d="M391.09,202.53l20.83,12,14.67-19.84h28.33l15.17,21.84,18.07-12.21,3.76-2.46s1.27-61.22-38.81-79.94a28.45,28.45,0,0,0-23.51-.36C390.25,138.92,391.09,202.53,391.09,202.53Z"/><polygon class="cls-1" points="426.59 194.69 440.7 186.23 454.92 194.69 426.59 194.69"/><polygon class="cls-2" points="427.31 262.38 412.56 219.63 428.08 198.37 440.7 190.46 453.08 198.37 469.41 220.94 498.66 201.49 465.71 254.53 450.06 262.38 427.31 262.38"/><path class="cls-2" d="M486.23,164.35A116.31,116.31,0,0,1,491,187.2l4.76-17.86Z"/><polygon class="cls-1" points="454.54 222.26 465.83 252.91 499.55 299.82 511.55 307.07 534.3 307.07 549.95 299.22 582.9 246.18 610.96 194.56 580.3 212.11 555.7 198.16 555.13 155.81 532.88 134.42 510.2 147.79 496.24 189.88 470.52 214.33 453.11 198.54 454.54 222.26"/><path class="cls-2" d="M469.83,244.41l5.59,2.81s.22-24.79,7.39-43.13l-12.29,10.24-10.14-9.27C457.82,224.76,469.83,244.41,469.83,244.41Z"/><path class="cls-6" d="M475.42,247.22l20.83,12,14.67-19.84h28.33l15.17,21.84L572.49,249l3.76-2.46s1.27-61.22-38.81-79.94a28.45,28.45,0,0,0-23.51-.36C474.58,183.61,475.42,247.22,475.42,247.22Z"/><polygon class="cls-1" points="510.92 239.38 525.03 230.92 539.25 239.38 510.92 239.38"/><polygon class="cls-2" points="511.64 307.07 496.89 264.32 512.41 243.06 525.03 235.15 537.41 243.06 553.74 265.63 582.99 246.18 550.04 299.22 534.39 307.07 511.64 307.07"/><path class="cls-2" d="M570.56,209a116.31,116.31,0,0,1,4.78,22.85L580.1,214Z"/><polygon class="cls-1" points="538.91 267.04 550.2 297.68 583.92 344.6 595.92 351.85 618.67 351.85 634.32 344 667.27 290.95 695.33 239.34 664.67 256.89 640.06 242.94 639.5 200.58 617.25 179.2 594.56 192.57 580.6 234.66 554.89 259.11 537.48 243.32 538.91 267.04"/><path class="cls-2" d="M554.19,289.18l5.6,2.81s.22-24.79,7.39-43.12l-12.29,10.24-10.15-9.27C542.19,269.53,554.19,289.18,554.19,289.18Z"/><path class="cls-7" d="M559.79,292l20.83,12,14.67-19.83h28.33L638.79,306l18.06-12.2,3.77-2.46s1.27-61.23-38.82-79.95a28.5,28.5,0,0,0-23.5-.36C559,228.39,559.79,292,559.79,292Z"/><polygon class="cls-1" points="595.28 284.16 609.4 275.69 623.62 284.16 595.28 284.16"/><polygon class="cls-2" points="596 351.85 581.25 309.1 596.77 287.83 609.4 279.93 621.77 287.83 638.1 310.41 667.35 290.95 634.4 344 618.75 351.85 596 351.85"/><path class="cls-2" d="M654.93,253.82a116.82,116.82,0,0,1,4.77,22.85l4.77-17.87Z"/><polygon class="cls-1" points="623.24 311.61 634.53 342.26 668.25 389.18 680.25 396.43 703 396.43 718.65 388.57 751.6 335.53 779.66 283.91 749 301.46 724.39 287.51 723.83 245.16 701.58 223.77 678.89 237.15 664.93 279.23 639.22 303.68 621.81 287.89 623.24 311.61"/><path class="cls-2" d="M638.53,333.76l5.59,2.81s.22-24.79,7.39-43.13l-12.29,10.24-10.15-9.26C626.52,314.11,638.53,333.76,638.53,333.76Z"/><path class="cls-8" d="M644.12,336.57l20.83,12,14.67-19.84H708l15.17,21.84,18.06-12.21L745,335.9s1.27-61.22-38.82-79.94a28.43,28.43,0,0,0-23.5-.36C643.28,273,644.12,336.57,644.12,336.57Z"/><polygon class="cls-1" points="679.62 328.73 693.73 320.27 707.95 328.73 679.62 328.73"/><polygon class="cls-2" points="680.34 396.43 665.59 353.68 681.1 332.41 693.73 324.5 706.1 332.41 722.43 354.99 751.68 335.53 718.73 388.57 703.09 396.43 680.34 396.43"/><path class="cls-2" d="M739.26,298.39A116.82,116.82,0,0,1,744,321.24l4.77-17.86Z"/><polygon class="cls-1" points="101.37 132.59 112.66 163.23 146.38 210.15 158.38 217.4 181.13 217.4 196.78 209.54 229.73 156.5 257.79 104.89 227.13 122.44 202.52 108.49 201.95 66.13 179.7 44.75 157.02 58.12 143.06 100.21 117.35 124.66 99.94 108.87 101.37 132.59"/><path class="cls-2" d="M116.65,154.73l5.59,2.81s.23-24.79,7.4-43.12l-12.29,10.24-10.15-9.27C104.65,135.08,116.65,154.73,116.65,154.73Z"/><path class="cls-9" d="M122.24,157.54l20.84,12,14.66-19.83h28.34l15.16,21.83,18.07-12.2,3.77-2.46s1.26-61.23-38.82-79.95a28.5,28.5,0,0,0-23.5-.36C121.41,93.94,122.24,157.54,122.24,157.54Z"/><polygon class="cls-1" points="157.75 149.71 171.86 141.24 186.08 149.71 157.75 149.71"/><polygon class="cls-2" points="158.46 217.4 143.71 174.65 159.23 153.38 171.86 145.48 184.23 153.38 200.56 175.96 229.81 156.5 196.86 209.54 181.21 217.4 158.46 217.4"/><path class="cls-2" d="M217.39,119.37a116.82,116.82,0,0,1,4.77,22.85l4.77-17.87Z"/><polygon class="cls-1" points="185.88 177.54 197.16 208.19 230.89 255.1 242.89 262.35 265.64 262.35 281.29 254.5 314.24 201.46 342.3 149.84 311.64 167.39 287.03 153.44 286.46 111.09 264.21 89.7 241.53 103.07 227.57 145.16 201.86 169.61 184.45 153.82 185.88 177.54"/><path class="cls-2" d="M201.16,199.69l5.59,2.81s.23-24.8,7.4-43.13l-12.29,10.24-10.15-9.27C189.15,180,201.16,199.69,201.16,199.69Z"/><path class="cls-10" d="M206.75,202.5l20.84,12,14.66-19.84h28.34l15.16,21.84,18.07-12.21,3.77-2.46s1.26-61.22-38.82-79.94a28.43,28.43,0,0,0-23.5-.36C205.91,138.89,206.75,202.5,206.75,202.5Z"/><polygon class="cls-1" points="242.25 194.66 256.37 186.2 270.59 194.66 242.25 194.66"/><polygon class="cls-2" points="242.97 262.35 228.22 219.6 243.74 198.34 256.37 190.43 268.74 198.34 285.07 220.91 314.32 201.46 281.37 254.5 265.72 262.35 242.97 262.35"/><path class="cls-2" d="M301.9,164.32a116.82,116.82,0,0,1,4.77,22.85l4.77-17.86Z"/><polygon class="cls-1" points="1.43 177.32 12.72 207.96 46.44 254.88 58.44 262.13 81.19 262.13 96.84 254.28 129.79 201.23 157.85 149.62 127.19 167.17 102.58 153.22 102.01 110.86 79.76 89.48 57.08 102.85 43.12 144.94 17.41 169.39 0 153.6 1.43 177.32"/><path class="cls-2" d="M16.71,199.46l5.59,2.81s.23-24.79,7.4-43.12L17.41,169.39,7.26,160.12C4.71,179.81,16.71,199.46,16.71,199.46Z"/><path class="cls-11" d="M22.3,202.27l20.84,12L57.8,194.44H86.14l15.16,21.83,18.07-12.2,3.77-2.46s1.26-61.23-38.82-80a28.5,28.5,0,0,0-23.5-.36C21.47,138.67,22.3,202.27,22.3,202.27Z"/><polygon class="cls-1" points="57.8 194.44 71.92 185.97 86.14 194.44 57.8 194.44"/><polygon class="cls-2" points="58.52 262.13 43.77 219.38 59.29 198.11 71.92 190.21 84.29 198.11 100.62 220.69 129.87 201.23 96.92 254.28 81.27 262.13 58.52 262.13"/><path class="cls-2" d="M117.45,164.1A116.82,116.82,0,0,1,122.22,187L127,169.08Z"/><polygon class="cls-1" points="85.94 222.27 97.22 252.92 130.95 299.83 142.95 307.08 165.7 307.08 181.35 299.23 214.3 246.19 242.36 194.57 211.7 212.12 187.09 198.17 186.52 155.82 164.27 134.43 141.59 147.81 127.63 189.89 101.92 214.34 84.51 198.55 85.94 222.27"/><path class="cls-2" d="M101.22,244.42l5.59,2.81s.23-24.79,7.4-43.13l-12.29,10.24-10.15-9.26C89.21,224.77,101.22,244.42,101.22,244.42Z"/><path class="cls-12" d="M106.81,247.23l20.84,12,14.66-19.84h28.34l15.16,21.84L203.88,249l3.77-2.46s1.26-61.22-38.82-79.94a28.43,28.43,0,0,0-23.5-.36C106,183.62,106.81,247.23,106.81,247.23Z"/><polygon class="cls-1" points="142.31 239.39 156.43 230.93 170.65 239.39 142.31 239.39"/><polygon class="cls-2" points="143.03 307.08 128.28 264.33 143.8 243.07 156.43 235.16 168.8 243.07 185.13 265.65 214.38 246.19 181.43 299.23 165.78 307.08 143.03 307.08"/><path class="cls-2" d="M202,209.05a116.82,116.82,0,0,1,4.77,22.85L211.5,214Z"/><polygon class="cls-1" points="270.24 222.32 281.53 252.96 315.25 299.88 327.25 307.13 350 307.13 365.65 299.27 398.6 246.23 426.66 194.62 396 212.16 371.4 198.22 370.83 155.86 348.58 134.48 325.9 147.85 311.94 189.94 286.23 214.39 268.81 198.6 270.24 222.32"/><path class="cls-2" d="M285.53,244.46l5.59,2.81s.23-24.79,7.39-43.12l-12.29,10.24-10.14-9.27C273.52,224.81,285.53,244.46,285.53,244.46Z"/><path class="cls-13" d="M291.12,247.27l20.83,12,14.67-19.83H355l15.17,21.83,18.07-12.2L392,246.6s1.27-61.22-38.81-79.94a28.53,28.53,0,0,0-23.51-.36C290.28,183.67,291.12,247.27,291.12,247.27Z"/><polygon class="cls-1" points="326.62 239.44 340.73 230.97 354.95 239.44 326.62 239.44"/><polygon class="cls-2" points="327.34 307.13 312.59 264.38 328.11 243.11 340.73 235.21 353.11 243.11 369.44 265.69 398.69 246.23 365.74 299.27 350.09 307.13 327.34 307.13"/><path class="cls-2" d="M386.26,209.1A116.31,116.31,0,0,1,391,232l4.76-17.87Z"/><polygon class="cls-1" points="170.3 267.05 181.59 297.69 215.32 344.61 227.32 351.86 250.06 351.86 265.71 344.01 298.66 290.96 326.73 239.35 296.07 256.9 271.46 242.95 270.89 200.59 248.64 179.21 225.96 192.58 212 234.67 186.28 259.12 168.88 243.33 170.3 267.05"/><path class="cls-2" d="M185.59,289.19l5.59,2.81s.23-24.79,7.39-43.12l-12.29,10.24-10.14-9.27C173.58,269.54,185.59,289.19,185.59,289.19Z"/><path class="cls-14" d="M191.18,292,212,304l14.67-19.83H255L270.18,306l18.07-12.2,3.76-2.46s1.27-61.23-38.81-79.95a28.53,28.53,0,0,0-23.51-.36C190.34,228.4,191.18,292,191.18,292Z"/><polygon class="cls-1" points="226.68 284.17 240.79 275.7 255.01 284.17 226.68 284.17"/><polygon class="cls-2" points="227.4 351.86 212.65 309.11 228.17 287.84 240.79 279.94 253.17 287.84 269.5 310.42 298.75 290.96 265.8 344.01 250.15 351.86 227.4 351.86"/><path class="cls-2" d="M286.32,253.83a116.31,116.31,0,0,1,4.78,22.85l4.76-17.87Z"/><polygon class="cls-1" points="354.57 267.01 365.86 297.65 399.58 344.57 411.58 351.82 434.33 351.82 449.98 343.96 482.93 290.92 510.99 239.31 480.33 256.86 455.73 242.91 455.16 200.55 432.91 179.17 410.23 192.54 396.26 234.63 370.55 259.08 353.14 243.29 354.57 267.01"/><path class="cls-2" d="M369.86,289.15l5.59,2.81s.22-24.79,7.39-43.12l-12.29,10.24-10.15-9.27C357.85,269.5,369.86,289.15,369.86,289.15Z"/><path class="cls-15" d="M375.45,292l20.83,12L411,284.13h28.33L454.45,306l18.06-12.2,3.77-2.46s1.27-61.23-38.81-80A28.53,28.53,0,0,0,414,211C374.61,228.36,375.45,292,375.45,292Z"/><polygon class="cls-1" points="410.95 284.13 425.06 275.66 439.28 284.13 410.95 284.13"/><polygon class="cls-2" points="411.67 351.82 396.92 309.07 412.44 287.8 425.06 279.9 437.44 287.8 453.76 310.38 483.01 290.92 450.06 343.96 434.42 351.82 411.67 351.82"/><path class="cls-2" d="M470.59,253.79a117.21,117.21,0,0,1,4.78,22.85l4.76-17.87Z"/><polygon class="cls-1" points="254.63 311.74 265.92 342.38 299.64 389.3 311.64 396.55 334.39 396.55 350.04 388.7 382.99 335.65 411.05 284.04 380.39 301.59 355.79 287.64 355.22 245.29 332.97 223.9 310.29 237.27 296.32 279.36 270.61 303.81 253.2 288.02 254.63 311.74"/><path class="cls-2" d="M269.92,333.89l5.59,2.8s.22-24.79,7.39-43.12l-12.29,10.24-10.15-9.27C257.91,314.24,269.92,333.89,269.92,333.89Z"/><path class="cls-16" d="M275.51,336.69l20.83,12L311,328.86h28.33l15.17,21.83,18.07-12.2,3.76-2.46s1.27-61.23-38.81-79.95a28.49,28.49,0,0,0-23.51-.35C274.67,273.09,275.51,336.69,275.51,336.69Z"/><polygon class="cls-1" points="311.01 328.86 325.12 320.39 339.34 328.86 311.01 328.86"/><polygon class="cls-2" points="311.73 396.55 296.98 353.8 312.5 332.53 325.12 324.63 337.5 332.53 353.82 355.11 383.07 335.65 350.13 388.7 334.48 396.55 311.73 396.55"/><path class="cls-2" d="M370.65,298.52a116.31,116.31,0,0,1,4.78,22.85l4.76-17.86Z"/><polygon class="cls-1" points="438.94 311.78 450.23 342.43 483.95 389.35 495.95 396.6 518.7 396.6 534.35 388.74 567.3 335.7 595.36 284.09 564.7 301.63 540.09 287.68 539.52 245.33 517.27 223.94 494.59 237.32 480.63 279.4 454.92 303.86 437.51 288.06 438.94 311.78"/><path class="cls-2" d="M454.22,333.93l5.59,2.81s.23-24.79,7.4-43.13l-12.29,10.25-10.15-9.27C442.21,314.28,454.22,333.93,454.22,333.93Z"/><path class="cls-17" d="M459.81,336.74l20.84,12,14.66-19.83h28.34l15.16,21.83,18.07-12.21,3.77-2.46s1.26-61.22-38.82-79.94a28.43,28.43,0,0,0-23.5-.36C459,273.14,459.81,336.74,459.81,336.74Z"/><polygon class="cls-1" points="495.31 328.9 509.43 320.44 523.65 328.9 495.31 328.9"/><polygon class="cls-2" points="496.03 396.6 481.28 353.85 496.8 332.58 509.43 324.67 521.8 332.58 538.13 355.16 567.38 335.7 534.43 388.74 518.78 396.6 496.03 396.6"/><path class="cls-2" d="M555,298.57a116.82,116.82,0,0,1,4.77,22.85l4.77-17.87Z"/><polygon class="cls-1" points="339 356.52 350.29 387.16 384.01 434.08 396.01 441.33 418.76 441.33 434.41 433.47 467.36 380.43 495.42 328.82 464.76 346.36 440.15 332.41 439.58 290.06 417.33 268.67 394.65 282.05 380.69 324.14 354.98 348.59 337.57 332.8 339 356.52"/><path class="cls-2" d="M354.28,378.66l5.59,2.81s.23-24.79,7.4-43.12L355,348.59l-10.15-9.27C342.27,359,354.28,378.66,354.28,378.66Z"/><path class="cls-18" d="M359.87,381.47l20.84,12,14.66-19.83h28.34l15.16,21.83,18.07-12.21,3.77-2.46s1.26-61.22-38.82-79.94a28.43,28.43,0,0,0-23.5-.36C359,317.87,359.87,381.47,359.87,381.47Z"/><polygon class="cls-1" points="395.37 373.64 409.49 365.17 423.71 373.64 395.37 373.64"/><polygon class="cls-2" points="396.09 441.33 381.34 398.58 396.86 377.31 409.49 369.4 421.86 377.31 438.19 399.89 467.44 380.43 434.49 433.47 418.84 441.33 396.09 441.33"/><path class="cls-2" d="M455,343.3a116.82,116.82,0,0,1,4.77,22.85l4.77-17.87Z"/><polygon class="cls-1" points="523.27 356.36 534.56 387 568.28 433.92 580.28 441.17 603.03 441.17 618.68 433.32 651.63 380.27 679.69 328.66 649.03 346.21 624.42 332.26 623.86 289.9 601.61 268.52 578.92 281.89 564.96 323.98 539.25 348.43 521.84 332.64 523.27 356.36"/><path class="cls-2" d="M538.55,378.5l5.6,2.81s.22-24.79,7.39-43.12l-12.29,10.24-10.15-9.27C526.55,358.85,538.55,378.5,538.55,378.5Z"/><path class="cls-19" d="M544.15,381.31l20.83,12,14.67-19.83H608l15.17,21.83,18.06-12.2,3.77-2.46s1.27-61.23-38.82-79.95a28.5,28.5,0,0,0-23.5-.36C543.31,317.71,544.15,381.31,544.15,381.31Z"/><polygon class="cls-1" points="579.65 373.48 593.76 365.01 607.98 373.48 579.65 373.48"/><polygon class="cls-2" points="580.37 441.17 565.62 398.42 581.13 377.15 593.76 369.25 606.13 377.15 622.46 399.73 651.71 380.27 618.76 433.32 603.12 441.17 580.37 441.17"/><path class="cls-2" d="M639.29,343.14A116.82,116.82,0,0,1,644.06,366l4.77-17.87Z"/><polygon class="cls-1" points="423.33 401.09 434.62 431.73 468.34 478.65 480.34 485.9 503.09 485.9 518.74 478.05 551.69 425 579.75 373.39 549.09 390.94 524.48 376.99 523.92 334.64 501.67 313.25 478.98 326.62 465.02 368.71 439.31 393.16 421.9 377.37 423.33 401.09"/><path class="cls-2" d="M438.61,423.24l5.6,2.8s.22-24.79,7.39-43.12l-12.29,10.24-10.15-9.27C426.61,403.59,438.61,423.24,438.61,423.24Z"/><path class="cls-20" d="M444.21,426,465,438l14.67-19.83H508L523.21,440l18.06-12.2,3.77-2.46s1.27-61.23-38.82-79.95a28.47,28.47,0,0,0-23.5-.35C443.37,362.44,444.21,426,444.21,426Z"/><polygon class="cls-1" points="479.71 418.21 493.82 409.75 508.04 418.21 479.71 418.21"/><polygon class="cls-2" points="480.43 485.9 465.68 443.15 481.19 421.88 493.82 413.98 506.19 421.88 522.52 444.46 551.77 425 518.82 478.05 503.18 485.9 480.43 485.9"/><path class="cls-2" d="M539.35,387.87a116.82,116.82,0,0,1,4.77,22.85l4.77-17.86Z"/><polygon class="cls-1" points="1177.99 154.86 1189.28 185.51 1223.01 232.43 1235.01 239.68 1257.76 239.68 1273.4 231.82 1306.36 178.78 1334.42 127.16 1303.76 144.71 1279.15 130.76 1278.58 88.41 1256.33 67.02 1233.65 80.39 1219.69 122.48 1193.98 146.93 1176.57 131.14 1177.99 154.86"/><path class="cls-2" d="M1193.28,177l5.59,2.81s.23-24.79,7.39-43.13L1194,146.93l-10.15-9.26C1181.27,157.36,1193.28,177,1193.28,177Z"/><path class="cls-21" d="M1198.87,179.82l20.83,12L1234.37,172h28.33l15.17,21.84,18.07-12.21,3.76-2.46s1.27-61.22-38.81-79.94a28.43,28.43,0,0,0-23.5-.36C1198,116.21,1198.87,179.82,1198.87,179.82Z"/><polygon class="cls-1" points="1234.37 171.98 1248.48 163.52 1262.7 171.98 1234.37 171.98"/><polygon class="cls-2" points="1235.09 239.68 1220.34 196.93 1235.86 175.66 1248.48 167.75 1260.86 175.66 1277.19 198.24 1306.44 178.78 1273.49 231.82 1257.84 239.68 1235.09 239.68"/><path class="cls-2" d="M1294,141.64a116.82,116.82,0,0,1,4.77,22.85l4.76-17.86Z"/><polygon class="cls-1" points="1262.5 199.82 1273.79 230.46 1307.52 277.38 1319.52 284.63 1342.27 284.63 1357.91 276.77 1390.86 223.73 1418.92 172.12 1388.27 189.66 1363.66 175.71 1363.09 133.36 1340.84 111.97 1318.16 125.35 1304.2 167.44 1278.48 191.89 1261.08 176.09 1262.5 199.82"/><path class="cls-2" d="M1277.79,222l5.59,2.81s.23-24.79,7.39-43.12l-12.28,10.24-10.15-9.27C1265.78,202.31,1277.79,222,1277.79,222Z"/><path class="cls-22" d="M1283.38,224.77l20.83,12,14.67-19.83h28.33l15.17,21.83,18.07-12.21,3.76-2.46s1.27-61.22-38.81-79.94a28.45,28.45,0,0,0-23.51-.36C1282.54,161.17,1283.38,224.77,1283.38,224.77Z"/><polygon class="cls-1" points="1318.88 216.94 1332.99 208.47 1347.21 216.94 1318.88 216.94"/><polygon class="cls-2" points="1319.6 284.63 1304.85 241.88 1320.37 220.61 1332.99 212.7 1345.37 220.61 1361.7 243.19 1390.95 223.73 1358 276.77 1342.35 284.63 1319.6 284.63"/><path class="cls-2" d="M1378.52,186.6a116.31,116.31,0,0,1,4.78,22.85l4.76-17.87Z"/><polygon class="cls-1" points="1346.87 244.59 1358.16 275.24 1391.88 322.15 1403.88 329.4 1426.63 329.4 1442.28 321.55 1475.23 268.51 1503.29 216.89 1472.63 234.44 1448.03 220.49 1447.46 178.14 1425.21 156.75 1402.53 170.12 1388.56 212.21 1362.85 236.66 1345.44 220.87 1346.87 244.59"/><path class="cls-2" d="M1362.16,266.74l5.59,2.81s.22-24.79,7.39-43.13l-12.29,10.24-10.15-9.27C1350.15,247.09,1362.16,266.74,1362.16,266.74Z"/><path class="cls-23" d="M1367.75,269.55l20.83,12,14.67-19.84h28.33l15.17,21.84,18.06-12.21,3.77-2.46s1.27-61.22-38.82-79.94a28.43,28.43,0,0,0-23.5-.36C1366.91,205.94,1367.75,269.55,1367.75,269.55Z"/><polygon class="cls-1" points="1403.25 261.71 1417.36 253.25 1431.58 261.71 1403.25 261.71"/><polygon class="cls-2" points="1403.97 329.4 1389.21 286.65 1404.73 265.39 1417.36 257.48 1429.73 265.39 1446.06 287.96 1475.31 268.51 1442.36 321.55 1426.71 329.4 1403.97 329.4"/><path class="cls-2" d="M1462.89,231.37a116.82,116.82,0,0,1,4.77,22.85l4.77-17.86Z"/><polygon class="cls-1" points="1078.02 199.61 1089.31 230.25 1123.04 277.17 1135.04 284.42 1157.79 284.42 1173.43 276.57 1206.38 223.52 1234.44 171.91 1203.79 189.46 1179.18 175.51 1178.61 133.15 1156.36 111.77 1133.68 125.14 1119.72 167.23 1094.01 191.68 1076.6 175.89 1078.02 199.61"/><path class="cls-2" d="M1093.31,221.75l5.59,2.81s.23-24.79,7.39-43.12L1094,191.68l-10.15-9.27C1081.3,202.1,1093.31,221.75,1093.31,221.75Z"/><path class="cls-24" d="M1098.9,224.56l20.83,12,14.67-19.83h28.33l15.17,21.83,18.07-12.2,3.76-2.46s1.27-61.23-38.81-80a28.53,28.53,0,0,0-23.51-.36C1098.06,161,1098.9,224.56,1098.9,224.56Z"/><polygon class="cls-1" points="1134.4 216.73 1148.51 208.26 1162.73 216.73 1134.4 216.73"/><polygon class="cls-2" points="1135.12 284.42 1120.37 241.67 1135.89 220.4 1148.51 212.5 1160.89 220.4 1177.22 242.98 1206.47 223.52 1173.52 276.57 1157.87 284.42 1135.12 284.42"/><path class="cls-2" d="M1194,186.39a116.31,116.31,0,0,1,4.78,22.85l4.76-17.87Z"/><polygon class="cls-1" points="1162.53 244.56 1173.82 275.21 1207.55 322.13 1219.55 329.38 1242.3 329.38 1257.94 321.52 1290.89 268.48 1318.95 216.86 1288.3 234.41 1263.69 220.46 1263.12 178.11 1240.87 156.72 1218.19 170.09 1204.23 212.18 1178.51 236.63 1161.11 220.84 1162.53 244.56"/><path class="cls-2" d="M1177.82,266.71l5.59,2.81s.23-24.79,7.39-43.13l-12.29,10.24-10.14-9.27C1165.81,247.06,1177.82,266.71,1177.82,266.71Z"/><path class="cls-25" d="M1183.41,269.52l20.83,12,14.67-19.84h28.33l15.17,21.84,18.07-12.21,3.76-2.46s1.27-61.22-38.81-79.94a28.45,28.45,0,0,0-23.51-.36C1182.57,205.91,1183.41,269.52,1183.41,269.52Z"/><polygon class="cls-1" points="1218.91 261.68 1233.02 253.22 1247.24 261.68 1218.91 261.68"/><polygon class="cls-2" points="1219.63 329.38 1204.88 286.63 1220.4 265.36 1233.02 257.45 1245.4 265.36 1261.73 287.94 1290.98 268.48 1258.03 321.52 1242.38 329.38 1219.63 329.38"/><path class="cls-2" d="M1278.55,231.34a116.31,116.31,0,0,1,4.78,22.85l4.76-17.86Z"/><polygon class="cls-1" points="978.08 244.34 989.37 274.98 1023.1 321.9 1035.1 329.15 1057.85 329.15 1073.49 321.3 1106.44 268.25 1134.51 216.64 1103.85 234.19 1079.24 220.24 1078.67 177.89 1056.42 156.5 1033.74 169.87 1019.78 211.96 994.07 236.41 976.66 220.62 978.08 244.34"/><path class="cls-2" d="M993.37,266.49l5.59,2.8s.23-24.79,7.39-43.12l-12.28,10.24-10.15-9.27C981.36,246.84,993.37,266.49,993.37,266.49Z"/><path class="cls-26" d="M999,269.29l20.83,12,14.67-19.83h28.33L1078,283.29l18.07-12.2,3.76-2.46s1.27-61.23-38.81-79.95a28.49,28.49,0,0,0-23.51-.35C998.12,205.69,999,269.29,999,269.29Z"/><polygon class="cls-1" points="1034.46 261.46 1048.57 253 1062.79 261.46 1034.46 261.46"/><polygon class="cls-2" points="1035.18 329.15 1020.43 286.4 1035.95 265.13 1048.57 257.23 1060.95 265.13 1077.28 287.71 1106.53 268.25 1073.58 321.3 1057.93 329.15 1035.18 329.15"/><path class="cls-2" d="M1094.1,231.12a116.31,116.31,0,0,1,4.78,22.85l4.76-17.86Z"/><polygon class="cls-1" points="1062.59 289.29 1073.88 319.94 1107.61 366.86 1119.61 374.11 1142.36 374.11 1158 366.25 1190.95 313.21 1219.01 261.59 1188.36 279.14 1163.75 265.19 1163.18 222.84 1140.93 201.45 1118.25 214.82 1104.29 256.91 1078.57 281.37 1061.16 265.57 1062.59 289.29"/><path class="cls-2" d="M1077.88,311.44l5.59,2.81s.23-24.79,7.39-43.13l-12.29,10.24-10.14-9.26C1065.87,291.79,1077.88,311.44,1077.88,311.44Z"/><path class="cls-27" d="M1083.47,314.25l20.83,12L1119,306.41h28.33l15.17,21.84L1180.54,316l3.76-2.46s1.27-61.22-38.81-79.94a28.45,28.45,0,0,0-23.51-.36C1082.63,250.64,1083.47,314.25,1083.47,314.25Z"/><polygon class="cls-1" points="1118.97 306.41 1133.08 297.95 1147.3 306.41 1118.97 306.41"/><polygon class="cls-2" points="1119.69 374.11 1104.94 331.36 1120.46 310.09 1133.08 302.18 1145.46 310.09 1161.79 332.67 1191.04 313.21 1158.09 366.25 1142.44 374.11 1119.69 374.11"/><path class="cls-2" d="M1178.61,276.07a116.54,116.54,0,0,1,4.78,22.85l4.76-17.86Z"/><polygon class="cls-1" points="1246.9 289.34 1258.19 319.98 1291.91 366.9 1303.91 374.15 1326.66 374.15 1342.31 366.3 1375.26 313.25 1403.32 261.64 1372.66 279.19 1348.05 265.24 1347.48 222.88 1325.23 201.5 1302.55 214.87 1288.59 256.96 1262.88 281.41 1245.47 265.62 1246.9 289.34"/><path class="cls-2" d="M1262.18,311.48l5.6,2.81s.22-24.79,7.39-43.12l-12.29,10.24-10.15-9.27C1250.18,291.83,1262.18,311.48,1262.18,311.48Z"/><path class="cls-28" d="M1267.78,314.29l20.83,12,14.67-19.83h28.33l15.17,21.83,18.06-12.2,3.77-2.46s1.27-61.23-38.82-79.95a28.5,28.5,0,0,0-23.5-.36C1266.94,250.69,1267.78,314.29,1267.78,314.29Z"/><polygon class="cls-1" points="1303.28 306.46 1317.39 297.99 1331.61 306.46 1303.28 306.46"/><polygon class="cls-2" points="1303.99 374.15 1289.24 331.4 1304.76 310.13 1317.39 302.23 1329.76 310.13 1346.09 332.71 1375.34 313.25 1342.39 366.3 1326.74 374.15 1303.99 374.15"/><path class="cls-2" d="M1362.92,276.12a116.82,116.82,0,0,1,4.77,22.85l4.77-17.87Z"/><polygon class="cls-1" points="1146.96 334.07 1158.25 364.71 1191.97 411.63 1203.97 418.88 1226.72 418.88 1242.37 411.03 1275.32 357.98 1303.38 306.37 1272.72 323.92 1248.11 309.97 1247.55 267.62 1225.3 246.23 1202.61 259.6 1188.65 301.69 1162.94 326.14 1145.53 310.35 1146.96 334.07"/><path class="cls-2" d="M1162.24,356.22l5.6,2.8s.22-24.79,7.39-43.12l-12.29,10.24-10.15-9.27C1150.24,336.57,1162.24,356.22,1162.24,356.22Z"/><path class="cls-29" d="M1167.84,359l20.83,12,14.67-19.83h28.33L1246.84,373l18.06-12.2,3.77-2.46s1.27-61.23-38.82-79.95a28.47,28.47,0,0,0-23.5-.35C1167,295.42,1167.84,359,1167.84,359Z"/><polygon class="cls-1" points="1203.34 351.19 1217.45 342.73 1231.67 351.19 1203.34 351.19"/><polygon class="cls-2" points="1204.06 418.88 1189.31 376.13 1204.82 354.86 1217.45 346.96 1229.82 354.86 1246.15 377.44 1275.4 357.98 1242.45 411.03 1226.81 418.88 1204.06 418.88"/><path class="cls-2" d="M1263,320.85a116.82,116.82,0,0,1,4.77,22.85l4.77-17.86Z"/><path class="cls-30" d="M875,235.52h-7.83v-7.83a3.59,3.59,0,1,0-7.17,0v7.83h-7.83a3.59,3.59,0,1,0,0,7.17H860v7.83a3.59,3.59,0,0,0,7.17,0v-7.83H875a3.59,3.59,0,0,0,0-7.17Z"/></g></svg>