<svg xmlns="http://www.w3.org/2000/svg" xmlns:xlink="http://www.w3.org/1999/xlink" viewBox="0 0 1680.98 535.07"><defs><style>.cls-1{fill:#62abbc;}.cls-2{fill:#3d838e;opacity:0.51;}.cls-3{fill:url(#linear-gradient);}.cls-4{fill:url(#linear-gradient-2);}.cls-5{fill:url(#linear-gradient-3);}.cls-6{fill:url(#linear-gradient-4);}.cls-7{fill:url(#linear-gradient-5);}.cls-8{fill:url(#linear-gradient-6);}.cls-9{fill:url(#linear-gradient-7);}.cls-10{fill:url(#linear-gradient-8);}.cls-11{fill:url(#linear-gradient-9);}.cls-12{fill:url(#linear-gradient-10);}.cls-13{fill:url(#linear-gradient-11);}.cls-14{fill:url(#linear-gradient-12);}.cls-15{fill:url(#linear-gradient-13);}.cls-16{fill:url(#linear-gradient-14);}.cls-17{fill:url(#linear-gradient-15);}.cls-18{fill:url(#linear-gradient-16);}.cls-19{fill:url(#linear-gradient-17);}.cls-20{fill:url(#linear-gradient-18);}.cls-21{fill:url(#linear-gradient-19);}.cls-22{fill:url(#linear-gradient-20);}.cls-23{fill:url(#linear-gradient-21);}.cls-24{fill:url(#linear-gradient-22);}.cls-25{fill:url(#linear-gradient-23);}.cls-26{fill:url(#linear-gradient-24);}.cls-27{fill:url(#linear-gradient-25);}.cls-28{fill:url(#linear-gradient-26);}.cls-29{fill:url(#linear-gradient-27);}.cls-30{fill:url(#linear-gradient-28);}.cls-31{fill:url(#linear-gradient-29);}.cls-32{fill:url(#linear-gradient-30);}.cls-33{fill:url(#linear-gradient-31);}.cls-34{fill:url(#linear-gradient-32);}.cls-35{fill:url(#linear-gradient-33);}.cls-36{fill:url(#linear-gradient-34);}.cls-37{fill:url(#linear-gradient-35);}.cls-38{fill:url(#linear-gradient-36);}.cls-39{fill:#f05023;}</style><linearGradient id="linear-gradient" x1="316.88" y1="78.13" x2="417.72" y2="78.13" gradientUnits="userSpaceOnUse"><stop offset="0" stop-color="#fbb040"/><stop offset="0.39" stop-color="#f9ae41"/><stop offset="0.59" stop-color="#f1a845"/><stop offset="0.74" stop-color="#e49e4b"/><stop offset="0.87" stop-color="#d18f55"/><stop offset="0.99" stop-color="#b97c60"/><stop offset="1" stop-color="#b67a62"/></linearGradient><linearGradient id="linear-gradient-2" x1="401.39" y1="123.08" x2="502.23" y2="123.08" xlink:href="#linear-gradient"/><linearGradient id="linear-gradient-3" x1="485.76" y1="167.86" x2="586.6" y2="167.86" xlink:href="#linear-gradient"/><linearGradient id="linear-gradient-4" x1="570.08" y1="212.55" x2="670.92" y2="212.55" xlink:href="#linear-gradient"/><linearGradient id="linear-gradient-5" x1="654.45" y1="257.33" x2="755.29" y2="257.33" xlink:href="#linear-gradient"/><linearGradient id="linear-gradient-6" x1="738.78" y1="301.9" x2="839.62" y2="301.9" xlink:href="#linear-gradient"/><linearGradient id="linear-gradient-7" x1="222.21" y1="127.3" x2="323.05" y2="127.3" xlink:href="#linear-gradient"/><linearGradient id="linear-gradient-8" x1="306.72" y1="172.25" x2="407.56" y2="172.25" xlink:href="#linear-gradient"/><linearGradient id="linear-gradient-9" x1="391.09" y1="217.03" x2="491.93" y2="217.03" xlink:href="#linear-gradient"/><linearGradient id="linear-gradient-10" x1="475.42" y1="261.72" x2="576.26" y2="261.72" xlink:href="#linear-gradient"/><linearGradient id="linear-gradient-11" x1="559.78" y1="306.49" x2="660.62" y2="306.49" xlink:href="#linear-gradient"/><linearGradient id="linear-gradient-12" x1="644.12" y1="351.07" x2="744.95" y2="351.07" xlink:href="#linear-gradient"/><linearGradient id="linear-gradient-13" x1="122.24" y1="172.04" x2="223.08" y2="172.04" xlink:href="#linear-gradient"/><linearGradient id="linear-gradient-14" x1="206.75" y1="217" x2="307.59" y2="217" xlink:href="#linear-gradient"/><linearGradient id="linear-gradient-15" x1="22.3" y1="216.77" x2="123.14" y2="216.77" xlink:href="#linear-gradient"/><linearGradient id="linear-gradient-16" x1="106.81" y1="261.73" x2="207.65" y2="261.73" xlink:href="#linear-gradient"/><linearGradient id="linear-gradient-17" x1="291.12" y1="261.77" x2="391.96" y2="261.77" xlink:href="#linear-gradient"/><linearGradient id="linear-gradient-18" x1="191.18" y1="306.5" x2="292.02" y2="306.5" xlink:href="#linear-gradient"/><linearGradient id="linear-gradient-19" x1="375.45" y1="306.46" x2="476.29" y2="306.46" xlink:href="#linear-gradient"/><linearGradient id="linear-gradient-20" x1="275.51" y1="351.19" x2="376.35" y2="351.19" xlink:href="#linear-gradient"/><linearGradient id="linear-gradient-21" x1="459.81" y1="351.24" x2="560.65" y2="351.24" xlink:href="#linear-gradient"/><linearGradient id="linear-gradient-22" x1="359.87" y1="395.97" x2="460.71" y2="395.97" xlink:href="#linear-gradient"/><linearGradient id="linear-gradient-23" x1="544.14" y1="395.81" x2="644.98" y2="395.81" xlink:href="#linear-gradient"/><linearGradient id="linear-gradient-24" x1="444.2" y1="440.54" x2="545.04" y2="440.54" xlink:href="#linear-gradient"/><linearGradient id="linear-gradient-25" x1="1292.23" y1="137.36" x2="1393.07" y2="137.36" xlink:href="#linear-gradient"/><linearGradient id="linear-gradient-26" x1="1376.74" y1="182.31" x2="1477.58" y2="182.31" xlink:href="#linear-gradient"/><linearGradient id="linear-gradient-27" x1="1461.11" y1="227.09" x2="1561.95" y2="227.09" xlink:href="#linear-gradient"/><linearGradient id="linear-gradient-28" x1="1545.43" y1="271.78" x2="1646.27" y2="271.78" xlink:href="#linear-gradient"/><linearGradient id="linear-gradient-29" x1="1192.22" y1="182.14" x2="1293.06" y2="182.14" xlink:href="#linear-gradient"/><linearGradient id="linear-gradient-30" x1="1276.73" y1="227.09" x2="1377.57" y2="227.09" xlink:href="#linear-gradient"/><linearGradient id="linear-gradient-31" x1="1092.28" y1="226.87" x2="1193.12" y2="226.87" xlink:href="#linear-gradient"/><linearGradient id="linear-gradient-32" x1="1176.79" y1="271.82" x2="1277.63" y2="271.82" xlink:href="#linear-gradient"/><linearGradient id="linear-gradient-33" x1="1361.1" y1="271.87" x2="1461.94" y2="271.87" xlink:href="#linear-gradient"/><linearGradient id="linear-gradient-34" x1="1261.16" y1="316.6" x2="1362" y2="316.6" xlink:href="#linear-gradient"/><linearGradient id="linear-gradient-35" x1="1445.43" y1="316.56" x2="1546.26" y2="316.56" xlink:href="#linear-gradient"/><linearGradient id="linear-gradient-36" x1="1345.49" y1="361.29" x2="1446.32" y2="361.29" xlink:href="#linear-gradient"/></defs><title>V3_R1</title><g id="Layer_2" data-name="Layer 2"><polygon class="cls-1" points="296 87.84 307.29 118.49 341.02 165.4 353.02 172.65 375.77 172.65 391.42 164.8 424.37 111.76 452.43 60.14 421.77 77.69 397.16 63.74 396.59 21.39 374.34 0 351.66 13.37 337.7 55.46 311.99 79.91 294.58 64.12 296 87.84"/><path class="cls-2" d="M311.29,110l5.59,2.81s.23-24.79,7.39-43.13L312,79.91l-10.15-9.27C299.28,90.34,311.29,110,311.29,110Z"/><path class="cls-3" d="M316.88,112.8l20.84,12L352.38,105h28.34l15.16,21.84L414,114.59l3.77-2.46S419,50.91,378.9,32.19a28.43,28.43,0,0,0-23.5-.36C316,49.19,316.88,112.8,316.88,112.8Z"/><polygon class="cls-1" points="352.38 104.96 366.49 96.5 380.72 104.96 352.38 104.96"/><polygon class="cls-2" points="353.1 172.65 338.35 129.9 353.87 108.64 366.49 100.73 378.87 108.64 395.2 131.22 424.45 111.76 391.5 164.8 375.85 172.65 353.1 172.65"/><path class="cls-2" d="M412,74.62a116.82,116.82,0,0,1,4.77,22.85l4.77-17.86Z"/><polygon class="cls-1" points="380.51 132.79 391.8 163.44 425.53 210.36 437.53 217.61 460.28 217.61 475.93 209.75 508.88 156.71 536.94 105.1 506.28 122.64 481.67 108.69 481.1 66.34 458.85 44.95 436.17 58.33 422.21 100.42 396.5 124.87 379.09 109.07 380.51 132.79"/><path class="cls-2" d="M395.8,154.94l5.59,2.81s.23-24.79,7.39-43.12L396.5,124.87l-10.15-9.27C383.79,135.29,395.8,154.94,395.8,154.94Z"/><path class="cls-4" d="M401.39,157.75l20.83,12,14.67-19.83h28.33l15.17,21.83,18.07-12.21,3.76-2.46s1.27-61.22-38.81-79.94a28.45,28.45,0,0,0-23.51-.36C400.55,94.15,401.39,157.75,401.39,157.75Z"/><polygon class="cls-1" points="436.89 149.92 451 141.45 465.22 149.92 436.89 149.92"/><polygon class="cls-2" points="437.61 217.61 422.86 174.86 438.38 153.59 451 145.68 463.38 153.59 479.71 176.17 508.96 156.71 476.01 209.75 460.36 217.61 437.61 217.61"/><path class="cls-2" d="M496.53,119.58a116.31,116.31,0,0,1,4.78,22.85l4.76-17.87Z"/><polygon class="cls-1" points="464.88 177.57 476.17 208.22 509.89 255.13 521.89 262.38 544.64 262.38 560.29 254.53 593.24 201.49 621.3 149.87 590.64 167.42 566.04 153.47 565.47 111.12 543.22 89.73 520.54 103.1 506.57 145.19 480.86 169.64 463.45 153.85 464.88 177.57"/><path class="cls-2" d="M480.17,199.72l5.59,2.81s.22-24.8,7.39-43.13l-12.29,10.24-10.15-9.27C468.16,180.07,480.17,199.72,480.17,199.72Z"/><path class="cls-5" d="M485.76,202.53l20.83,12,14.67-19.84h28.33l15.17,21.84,18.06-12.21,3.77-2.46s1.27-61.22-38.81-79.94a28.45,28.45,0,0,0-23.51-.36C484.92,138.92,485.76,202.53,485.76,202.53Z"/><polygon class="cls-1" points="521.26 194.69 535.37 186.23 549.59 194.69 521.26 194.69"/><polygon class="cls-2" points="521.98 262.38 507.23 219.63 522.75 198.37 535.37 190.46 547.75 198.37 564.07 220.94 593.32 201.49 560.37 254.53 544.73 262.38 521.98 262.38"/><path class="cls-2" d="M580.9,164.35a116.82,116.82,0,0,1,4.77,22.85l4.77-17.86Z"/><polygon class="cls-1" points="549.21 222.26 560.5 252.91 594.22 299.82 606.22 307.07 628.97 307.07 644.62 299.22 677.57 246.18 705.63 194.56 674.97 212.11 650.36 198.16 649.79 155.81 627.54 134.42 604.86 147.79 590.9 189.88 565.19 214.33 547.78 198.54 549.21 222.26"/><path class="cls-2" d="M564.49,244.41l5.6,2.81s.22-24.79,7.39-43.13l-12.29,10.24L555,205.06C552.49,224.76,564.49,244.41,564.49,244.41Z"/><path class="cls-6" d="M570.09,247.22l20.83,12,14.67-19.84h28.33l15.17,21.84L667.15,249l3.77-2.46s1.27-61.22-38.82-79.94a28.43,28.43,0,0,0-23.5-.36C569.25,183.61,570.09,247.22,570.09,247.22Z"/><polygon class="cls-1" points="605.59 239.38 619.7 230.92 633.92 239.38 605.59 239.38"/><polygon class="cls-2" points="606.3 307.07 591.55 264.32 607.07 243.06 619.7 235.15 632.07 243.06 648.4 265.63 677.65 246.18 644.7 299.22 629.05 307.07 606.3 307.07"/><path class="cls-2" d="M665.23,209A116.82,116.82,0,0,1,670,231.89L674.77,214Z"/><polygon class="cls-1" points="633.57 267.04 644.86 297.68 678.59 344.6 690.59 351.85 713.34 351.85 728.99 344 761.93 290.95 790 239.34 759.34 256.89 734.73 242.94 734.16 200.58 711.91 179.2 689.23 192.57 675.27 234.66 649.56 259.11 632.15 243.32 633.57 267.04"/><path class="cls-2" d="M648.86,289.18l5.59,2.81s.23-24.79,7.39-43.12l-12.28,10.24-10.15-9.27C636.85,269.53,648.86,289.18,648.86,289.18Z"/><path class="cls-7" d="M654.45,292l20.84,12L690,284.16h28.34L733.45,306l18.07-12.2,3.77-2.46s1.26-61.23-38.82-79.95A28.5,28.5,0,0,0,693,211C653.61,228.39,654.45,292,654.45,292Z"/><polygon class="cls-1" points="689.95 284.16 704.06 275.69 718.28 284.16 689.95 284.16"/><polygon class="cls-2" points="690.67 351.85 675.92 309.1 691.44 287.83 704.06 279.93 716.44 287.83 732.77 310.41 762.02 290.95 729.07 344 713.42 351.85 690.67 351.85"/><path class="cls-2" d="M749.6,253.82a116.82,116.82,0,0,1,4.77,22.85l4.76-17.87Z"/><polygon class="cls-1" points="717.9 311.61 729.2 342.26 762.92 389.18 774.92 396.43 797.67 396.43 813.32 388.57 846.27 335.53 874.33 283.91 843.67 301.46 819.06 287.51 818.49 245.16 796.24 223.77 773.56 237.15 759.6 279.23 733.89 303.68 716.48 287.89 717.9 311.61"/><path class="cls-2" d="M733.19,333.76l5.59,2.81s.23-24.79,7.4-43.13l-12.29,10.24-10.15-9.26C721.18,314.11,733.19,333.76,733.19,333.76Z"/><path class="cls-8" d="M738.78,336.57l20.84,12,14.66-19.84h28.34l15.16,21.84,18.07-12.21,3.77-2.46s1.26-61.22-38.82-79.94a28.43,28.43,0,0,0-23.5-.36C737.94,273,738.78,336.57,738.78,336.57Z"/><polygon class="cls-1" points="774.28 328.73 788.39 320.27 802.62 328.73 774.28 328.73"/><polygon class="cls-2" points="775 396.43 760.25 353.68 775.77 332.41 788.39 324.5 800.77 332.41 817.1 354.99 846.35 335.53 813.4 388.57 797.75 396.43 775 396.43"/><path class="cls-2" d="M833.93,298.39a116.82,116.82,0,0,1,4.77,22.85l4.77-17.86Z"/><polygon class="cls-1" points="201.34 137.01 212.63 167.65 246.35 214.57 258.35 221.82 281.1 221.82 296.75 213.97 329.7 160.92 357.76 109.31 327.1 126.86 302.49 112.91 301.93 70.55 279.68 49.17 256.99 62.54 243.03 104.63 217.32 129.08 199.91 113.29 201.34 137.01"/><path class="cls-2" d="M216.62,159.15l5.6,2.81s.22-24.79,7.39-43.12l-12.29,10.24-10.15-9.27C204.62,139.5,216.62,159.15,216.62,159.15Z"/><path class="cls-9" d="M222.22,162l20.83,12,14.67-19.83h28.33L301.22,176l18.06-12.2,3.77-2.46s1.27-61.23-38.82-80a28.5,28.5,0,0,0-23.5-.36C221.38,98.36,222.22,162,222.22,162Z"/><polygon class="cls-1" points="257.72 154.13 271.83 145.66 286.05 154.13 257.72 154.13"/><polygon class="cls-2" points="258.43 221.82 243.68 179.07 259.2 157.8 271.83 149.9 284.2 157.8 300.53 180.38 329.78 160.92 296.83 213.97 281.18 221.82 258.43 221.82"/><path class="cls-2" d="M317.36,123.79a116.82,116.82,0,0,1,4.77,22.85l4.77-17.87Z"/><polygon class="cls-1" points="285.85 181.96 297.14 212.61 330.86 259.52 342.86 266.77 365.61 266.77 381.26 258.92 414.21 205.88 442.27 154.26 411.61 171.81 387 157.86 386.43 115.51 364.18 94.12 341.5 107.49 327.54 149.58 301.83 174.03 284.42 158.24 285.85 181.96"/><path class="cls-2" d="M301.13,204.11l5.59,2.81s.23-24.79,7.4-43.13L301.83,174l-10.15-9.27C289.12,184.46,301.13,204.11,301.13,204.11Z"/><path class="cls-10" d="M306.72,206.92l20.84,12,14.66-19.84h28.34l15.16,21.84,18.07-12.21,3.77-2.46s1.26-61.22-38.82-79.94a28.43,28.43,0,0,0-23.5-.36C305.89,143.31,306.72,206.92,306.72,206.92Z"/><polygon class="cls-1" points="342.22 199.08 356.34 190.62 370.56 199.08 342.22 199.08"/><polygon class="cls-2" points="342.94 266.77 328.19 224.02 343.71 202.76 356.34 194.85 368.71 202.76 385.04 225.34 414.29 205.88 381.34 258.92 365.69 266.77 342.94 266.77"/><path class="cls-2" d="M401.87,168.74a116.82,116.82,0,0,1,4.77,22.85l4.77-17.86Z"/><polygon class="cls-1" points="370.21 226.74 381.5 257.38 415.23 304.3 427.23 311.55 449.98 311.55 465.62 303.69 498.57 250.65 526.63 199.04 495.98 216.59 471.37 202.64 470.8 160.28 448.55 138.9 425.87 152.27 411.91 194.36 386.2 218.81 368.79 203.02 370.21 226.74"/><path class="cls-2" d="M385.5,248.88l5.59,2.81s.23-24.79,7.39-43.12L386.2,218.81l-10.15-9.27C373.49,229.23,385.5,248.88,385.5,248.88Z"/><path class="cls-11" d="M391.09,251.69l20.83,12,14.67-19.83h28.33l15.17,21.83,18.07-12.2,3.76-2.46s1.27-61.23-38.81-79.95a28.53,28.53,0,0,0-23.51-.36C390.25,188.09,391.09,251.69,391.09,251.69Z"/><polygon class="cls-1" points="426.59 243.86 440.7 235.39 454.92 243.86 426.59 243.86"/><polygon class="cls-2" points="427.31 311.55 412.56 268.8 428.08 247.53 440.7 239.63 453.08 247.53 469.41 270.11 498.66 250.65 465.71 303.69 450.06 311.55 427.31 311.55"/><path class="cls-2" d="M486.23,213.52A116.31,116.31,0,0,1,491,236.37l4.76-17.87Z"/><polygon class="cls-1" points="454.54 271.43 465.83 302.07 499.55 348.99 511.55 356.24 534.3 356.24 549.95 348.39 582.9 295.34 610.96 243.73 580.3 261.28 555.7 247.33 555.13 204.97 532.88 183.59 510.2 196.96 496.24 239.05 470.52 263.5 453.11 247.71 454.54 271.43"/><path class="cls-2" d="M469.83,293.57l5.59,2.81s.22-24.79,7.39-43.12L470.52,263.5l-10.14-9.27C457.82,273.92,469.83,293.57,469.83,293.57Z"/><path class="cls-12" d="M475.42,296.38l20.83,12,14.67-19.83h28.33l15.17,21.83,18.07-12.2,3.76-2.46s1.27-61.23-38.81-80a28.53,28.53,0,0,0-23.51-.36C474.58,232.78,475.42,296.38,475.42,296.38Z"/><polygon class="cls-1" points="510.92 288.55 525.03 280.08 539.25 288.55 510.92 288.55"/><polygon class="cls-2" points="511.64 356.24 496.89 313.49 512.41 292.22 525.03 284.32 537.41 292.22 553.74 314.8 582.99 295.34 550.04 348.39 534.39 356.24 511.64 356.24"/><path class="cls-2" d="M570.56,258.21a116.31,116.31,0,0,1,4.78,22.85l4.76-17.87Z"/><polygon class="cls-1" points="538.91 316.2 550.2 346.85 583.92 393.77 595.92 401.02 618.67 401.02 634.32 393.16 667.27 340.12 695.33 288.51 664.67 306.05 640.06 292.1 639.5 249.75 617.25 228.36 594.56 241.74 580.6 283.83 554.89 308.28 537.48 292.48 538.91 316.2"/><path class="cls-2" d="M554.19,338.35l5.6,2.81s.22-24.79,7.39-43.12l-12.29,10.24L544.74,299C542.19,318.7,554.19,338.35,554.19,338.35Z"/><path class="cls-13" d="M559.79,341.16l20.83,12,14.67-19.83h28.33l15.17,21.83L656.85,343l3.77-2.46s1.27-61.22-38.82-79.94a28.43,28.43,0,0,0-23.5-.36C559,277.56,559.79,341.16,559.79,341.16Z"/><polygon class="cls-1" points="595.28 333.33 609.4 324.86 623.62 333.33 595.28 333.33"/><polygon class="cls-2" points="596 401.02 581.25 358.27 596.77 337 609.4 329.09 621.77 337 638.1 359.58 667.35 340.12 634.4 393.16 618.75 401.02 596 401.02"/><path class="cls-2" d="M654.93,303a116.82,116.82,0,0,1,4.77,22.85L664.47,308Z"/><polygon class="cls-1" points="623.24 360.78 634.53 391.42 668.25 438.34 680.25 445.59 703 445.59 718.65 437.74 751.6 384.69 779.66 333.08 749 350.63 724.39 336.68 723.83 294.32 701.58 272.94 678.89 286.31 664.93 328.4 639.22 352.85 621.81 337.06 623.24 360.78"/><path class="cls-2" d="M638.53,382.93l5.59,2.8s.22-24.79,7.39-43.12l-12.29,10.24-10.15-9.27C626.52,363.27,638.53,382.93,638.53,382.93Z"/><path class="cls-14" d="M644.12,385.73l20.83,12,14.67-19.83H708l15.17,21.83,18.06-12.2,3.77-2.46s1.27-61.23-38.82-79.95a28.5,28.5,0,0,0-23.5-.36C643.28,322.13,644.12,385.73,644.12,385.73Z"/><polygon class="cls-1" points="679.62 377.9 693.73 369.44 707.95 377.9 679.62 377.9"/><polygon class="cls-2" points="680.34 445.59 665.59 402.84 681.1 381.57 693.73 373.67 706.1 381.57 722.43 404.15 751.68 384.69 718.73 437.74 703.09 445.59 680.34 445.59"/><path class="cls-2" d="M739.26,347.56A116.82,116.82,0,0,1,744,370.41l4.77-17.87Z"/><polygon class="cls-1" points="101.37 181.75 112.66 212.4 146.38 259.32 158.38 266.57 181.13 266.57 196.78 258.71 229.73 205.67 257.79 154.06 227.13 171.6 202.52 157.65 201.95 115.3 179.7 93.91 157.02 107.29 143.06 149.38 117.35 173.83 99.94 158.03 101.37 181.75"/><path class="cls-2" d="M116.65,203.9l5.59,2.81s.23-24.79,7.4-43.13l-12.29,10.25-10.15-9.27C104.65,184.25,116.65,203.9,116.65,203.9Z"/><path class="cls-15" d="M122.24,206.71l20.84,12,14.66-19.83h28.34l15.16,21.83,18.07-12.21,3.77-2.46s1.26-61.22-38.82-79.94a28.43,28.43,0,0,0-23.5-.36C121.41,143.11,122.24,206.71,122.24,206.71Z"/><polygon class="cls-1" points="157.75 198.88 171.86 190.41 186.08 198.88 157.75 198.88"/><polygon class="cls-2" points="158.46 266.57 143.71 223.82 159.23 202.55 171.86 194.64 184.23 202.55 200.56 225.13 229.81 205.67 196.86 258.71 181.21 266.57 158.46 266.57"/><path class="cls-2" d="M217.39,168.53a117,117,0,0,1,4.77,22.86l4.77-17.87Z"/><polygon class="cls-1" points="185.88 226.71 197.16 257.35 230.89 304.27 242.89 311.52 265.64 311.52 281.29 303.67 314.24 250.62 342.3 199.01 311.64 216.56 287.03 202.61 286.46 160.25 264.21 138.87 241.53 152.24 227.57 194.33 201.86 218.78 184.45 202.99 185.88 226.71"/><path class="cls-2" d="M201.16,248.85l5.59,2.81s.23-24.79,7.4-43.12l-12.29,10.24-10.15-9.27C189.15,229.2,201.16,248.85,201.16,248.85Z"/><path class="cls-16" d="M206.75,251.66l20.84,12,14.66-19.83h28.34l15.16,21.83,18.07-12.2,3.77-2.46s1.26-61.23-38.82-79.95a28.5,28.5,0,0,0-23.5-.36C205.91,188.06,206.75,251.66,206.75,251.66Z"/><polygon class="cls-1" points="242.25 243.83 256.37 235.36 270.59 243.83 242.25 243.83"/><polygon class="cls-2" points="242.97 311.52 228.22 268.77 243.74 247.5 256.37 239.6 268.74 247.5 285.07 270.08 314.32 250.62 281.37 303.67 265.72 311.52 242.97 311.52"/><path class="cls-2" d="M301.9,213.49a116.82,116.82,0,0,1,4.77,22.85l4.77-17.87Z"/><polygon class="cls-1" points="1.43 226.49 12.72 257.13 46.44 304.05 58.44 311.3 81.19 311.3 96.84 303.44 129.79 250.4 157.85 198.79 127.19 216.33 102.58 202.38 102.01 160.03 79.76 138.64 57.08 152.02 43.12 194.11 17.41 218.56 0 202.76 1.43 226.49"/><path class="cls-2" d="M16.71,248.63l5.59,2.81s.23-24.79,7.4-43.12L17.41,218.56,7.26,209.29C4.71,229,16.71,248.63,16.71,248.63Z"/><path class="cls-17" d="M22.3,251.44l20.84,12L57.8,243.61H86.14l15.16,21.83,18.07-12.21,3.77-2.46s1.26-61.22-38.82-79.94a28.43,28.43,0,0,0-23.5-.36C21.47,187.84,22.3,251.44,22.3,251.44Z"/><polygon class="cls-1" points="57.8 243.61 71.92 235.14 86.14 243.61 57.8 243.61"/><polygon class="cls-2" points="58.52 311.3 43.77 268.55 59.29 247.28 71.92 239.37 84.29 247.28 100.62 269.86 129.87 250.4 96.92 303.44 81.27 311.3 58.52 311.3"/><path class="cls-2" d="M117.45,213.27a116.82,116.82,0,0,1,4.77,22.85L127,218.25Z"/><polygon class="cls-1" points="85.94 271.44 97.22 302.08 130.95 349 142.95 356.25 165.7 356.25 181.35 348.4 214.3 295.35 242.36 243.74 211.7 261.29 187.09 247.34 186.52 204.99 164.27 183.6 141.59 196.97 127.63 239.06 101.92 263.51 84.51 247.72 85.94 271.44"/><path class="cls-2" d="M101.22,293.59l5.59,2.8s.23-24.79,7.4-43.12l-12.29,10.24-10.15-9.27C89.21,273.94,101.22,293.59,101.22,293.59Z"/><path class="cls-18" d="M106.81,296.39l20.84,12,14.66-19.83h28.34l15.16,21.83,18.07-12.2,3.77-2.46s1.26-61.23-38.82-80a28.5,28.5,0,0,0-23.5-.36C106,232.79,106.81,296.39,106.81,296.39Z"/><polygon class="cls-1" points="142.31 288.56 156.43 280.1 170.65 288.56 142.31 288.56"/><polygon class="cls-2" points="143.03 356.25 128.28 313.5 143.8 292.23 156.43 284.33 168.8 292.23 185.13 314.81 214.38 295.35 181.43 348.4 165.78 356.25 143.03 356.25"/><path class="cls-2" d="M202,258.22a116.82,116.82,0,0,1,4.77,22.85l4.77-17.87Z"/><polygon class="cls-1" points="270.24 271.48 281.53 302.13 315.25 349.05 327.25 356.3 350 356.3 365.65 348.44 398.6 295.4 426.66 243.78 396 261.33 371.4 247.38 370.83 205.03 348.58 183.64 325.9 197.02 311.94 239.1 286.23 263.56 268.81 247.76 270.24 271.48"/><path class="cls-2" d="M285.53,293.63l5.59,2.81s.23-24.79,7.39-43.13l-12.29,10.25-10.14-9.27C273.52,274,285.53,293.63,285.53,293.63Z"/><path class="cls-19" d="M291.12,296.44l20.83,12,14.67-19.84H355l15.17,21.84,18.07-12.21,3.76-2.46s1.27-61.22-38.81-79.94a28.45,28.45,0,0,0-23.51-.36C290.28,232.84,291.12,296.44,291.12,296.44Z"/><polygon class="cls-1" points="326.62 288.61 340.73 280.14 354.95 288.61 326.62 288.61"/><polygon class="cls-2" points="327.34 356.3 312.59 313.55 328.11 292.28 340.73 284.37 353.11 292.28 369.44 314.86 398.69 295.4 365.74 348.44 350.09 356.3 327.34 356.3"/><path class="cls-2" d="M386.26,258.26A116.54,116.54,0,0,1,391,281.12l4.76-17.87Z"/><polygon class="cls-1" points="170.3 316.21 181.59 346.86 215.32 393.78 227.32 401.03 250.06 401.03 265.71 393.17 298.66 340.13 326.73 288.52 296.07 306.06 271.46 292.11 270.89 249.76 248.64 228.37 225.96 241.75 212 283.84 186.28 308.29 168.88 292.5 170.3 316.21"/><path class="cls-2" d="M185.59,338.36l5.59,2.81s.23-24.79,7.39-43.12l-12.29,10.24L176.14,299C173.58,318.71,185.59,338.36,185.59,338.36Z"/><path class="cls-20" d="M191.18,341.17l20.83,12,14.67-19.83H255l15.17,21.83L288.25,343,292,340.5s1.27-61.22-38.81-79.94a28.45,28.45,0,0,0-23.51-.36C190.34,277.57,191.18,341.17,191.18,341.17Z"/><polygon class="cls-1" points="226.68 333.34 240.79 324.87 255.01 333.34 226.68 333.34"/><polygon class="cls-2" points="227.4 401.03 212.65 358.28 228.17 337.01 240.79 329.1 253.17 337.01 269.5 359.59 298.75 340.13 265.8 393.17 250.15 401.03 227.4 401.03"/><path class="cls-2" d="M286.32,303a116.31,116.31,0,0,1,4.78,22.85L295.86,308Z"/><polygon class="cls-1" points="354.57 316.18 365.86 346.82 399.58 393.74 411.58 400.99 434.33 400.99 449.98 393.13 482.93 340.09 510.99 288.48 480.33 306.02 455.73 292.07 455.16 249.72 432.91 228.33 410.23 241.71 396.26 283.8 370.55 308.25 353.14 292.45 354.57 316.18"/><path class="cls-2" d="M369.86,338.32l5.59,2.81s.22-24.79,7.39-43.12l-12.29,10.24L360.4,299C357.85,318.67,369.86,338.32,369.86,338.32Z"/><path class="cls-21" d="M375.45,341.13l20.83,12L411,333.3h28.33l15.17,21.83,18.06-12.21,3.77-2.46s1.27-61.22-38.81-79.94a28.45,28.45,0,0,0-23.51-.36C374.61,277.53,375.45,341.13,375.45,341.13Z"/><polygon class="cls-1" points="410.95 333.3 425.06 324.83 439.28 333.3 410.95 333.3"/><polygon class="cls-2" points="411.67 400.99 396.92 358.24 412.44 336.97 425.06 329.06 437.44 336.97 453.76 359.55 483.01 340.09 450.06 393.13 434.42 400.99 411.67 400.99"/><path class="cls-2" d="M470.59,303a117.21,117.21,0,0,1,4.78,22.85l4.76-17.87Z"/><polygon class="cls-1" points="254.63 360.91 265.92 391.55 299.64 438.47 311.64 445.72 334.39 445.72 350.04 437.86 382.99 384.82 411.05 333.21 380.39 350.75 355.79 336.81 355.22 294.45 332.97 273.06 310.29 286.44 296.32 328.53 270.61 352.98 253.2 337.19 254.63 360.91"/><path class="cls-2" d="M269.92,383.05l5.59,2.81s.22-24.79,7.39-43.12L270.61,353l-10.15-9.27C257.91,363.4,269.92,383.05,269.92,383.05Z"/><path class="cls-22" d="M275.51,385.86l20.83,12L311,378h28.33l15.17,21.83,18.07-12.21,3.76-2.46s1.27-61.22-38.81-79.94a28.45,28.45,0,0,0-23.51-.36C274.67,322.26,275.51,385.86,275.51,385.86Z"/><polygon class="cls-1" points="311.01 378.03 325.12 369.56 339.34 378.03 311.01 378.03"/><polygon class="cls-2" points="311.73 445.72 296.98 402.97 312.5 381.7 325.12 373.8 337.5 381.7 353.82 404.28 383.07 384.82 350.13 437.86 334.48 445.72 311.73 445.72"/><path class="cls-2" d="M370.65,347.69a116.31,116.31,0,0,1,4.78,22.85l4.76-17.87Z"/><polygon class="cls-1" points="438.94 360.95 450.23 391.6 483.95 438.51 495.95 445.76 518.7 445.76 534.35 437.91 567.3 384.87 595.36 333.25 564.7 350.8 540.09 336.85 539.52 294.5 517.27 273.11 494.59 286.48 480.63 328.57 454.92 353.02 437.51 337.23 438.94 360.95"/><path class="cls-2" d="M454.22,383.1l5.59,2.81s.23-24.8,7.4-43.13L454.92,353l-10.15-9.27C442.21,363.45,454.22,383.1,454.22,383.1Z"/><path class="cls-23" d="M459.81,385.91l20.84,12,14.66-19.84h28.34l15.16,21.84,18.07-12.21,3.77-2.46s1.26-61.22-38.82-79.94a28.43,28.43,0,0,0-23.5-.36C459,322.3,459.81,385.91,459.81,385.91Z"/><polygon class="cls-1" points="495.31 378.07 509.43 369.61 523.65 378.07 495.31 378.07"/><polygon class="cls-2" points="496.03 445.76 481.28 403.01 496.8 381.75 509.43 373.84 521.8 381.75 538.13 404.32 567.38 384.87 534.43 437.91 518.78 445.76 496.03 445.76"/><path class="cls-2" d="M555,347.73a116.82,116.82,0,0,1,4.77,22.85l4.77-17.86Z"/><polygon class="cls-1" points="339 405.68 350.29 436.33 384.01 483.25 396.01 490.5 418.76 490.5 434.41 482.64 467.36 429.6 495.42 377.98 464.76 395.53 440.15 381.58 439.58 339.23 417.33 317.84 394.65 331.21 380.69 373.3 354.98 397.75 337.57 381.96 339 405.68"/><path class="cls-2" d="M354.28,427.83l5.59,2.81s.23-24.79,7.4-43.13L355,397.75l-10.15-9.26C342.27,408.18,354.28,427.83,354.28,427.83Z"/><path class="cls-24" d="M359.87,430.64l20.84,12,14.66-19.84h28.34l15.16,21.84,18.07-12.21,3.77-2.46S462,368.75,421.89,350a28.43,28.43,0,0,0-23.5-.36C359,367,359.87,430.64,359.87,430.64Z"/><polygon class="cls-1" points="395.37 422.8 409.49 414.34 423.71 422.8 395.37 422.8"/><polygon class="cls-2" points="396.09 490.5 381.34 447.75 396.86 426.48 409.49 418.57 421.86 426.48 438.19 449.06 467.44 429.6 434.49 482.64 418.84 490.5 396.09 490.5"/><path class="cls-2" d="M455,392.46a116.82,116.82,0,0,1,4.77,22.85l4.77-17.86Z"/><polygon class="cls-1" points="523.27 405.52 534.56 436.17 568.28 483.09 580.28 490.34 603.03 490.34 618.68 482.48 651.63 429.44 679.69 377.83 649.03 395.37 624.42 381.42 623.86 339.07 601.61 317.68 578.92 331.06 564.96 373.15 539.25 397.6 521.84 381.81 523.27 405.52"/><path class="cls-2" d="M538.55,427.67l5.6,2.81s.22-24.79,7.39-43.12L539.25,397.6l-10.15-9.27C526.55,408,538.55,427.67,538.55,427.67Z"/><path class="cls-25" d="M544.15,430.48l20.83,12,14.67-19.83H608l15.17,21.83,18.06-12.21,3.77-2.46s1.27-61.22-38.82-79.94a28.43,28.43,0,0,0-23.5-.36C543.31,366.88,544.15,430.48,544.15,430.48Z"/><polygon class="cls-1" points="579.65 422.65 593.76 414.18 607.98 422.65 579.65 422.65"/><polygon class="cls-2" points="580.37 490.34 565.62 447.59 581.13 426.32 593.76 418.41 606.13 426.32 622.46 448.9 651.71 429.44 618.76 482.48 603.12 490.34 580.37 490.34"/><path class="cls-2" d="M639.29,392.31a116.82,116.82,0,0,1,4.77,22.85l4.77-17.87Z"/><polygon class="cls-1" points="423.33 450.26 434.62 480.9 468.34 527.82 480.34 535.07 503.09 535.07 518.74 527.21 551.69 474.17 579.75 422.56 549.09 440.1 524.48 426.15 523.92 383.8 501.67 362.42 478.98 375.79 465.02 417.88 439.31 442.33 421.9 426.54 423.33 450.26"/><path class="cls-2" d="M438.61,472.4l5.6,2.81s.22-24.79,7.39-43.12l-12.29,10.24-10.15-9.27C426.61,452.75,438.61,472.4,438.61,472.4Z"/><path class="cls-26" d="M444.21,475.21l20.83,12,14.67-19.83H508l15.17,21.83L541.27,477l3.77-2.47s1.27-61.22-38.82-79.94a28.47,28.47,0,0,0-23.5-.36C443.37,411.61,444.21,475.21,444.21,475.21Z"/><polygon class="cls-1" points="479.71 467.38 493.82 458.91 508.04 467.38 479.71 467.38"/><polygon class="cls-2" points="480.43 535.07 465.68 492.32 481.19 471.05 493.82 463.14 506.19 471.05 522.52 493.63 551.77 474.17 518.82 527.21 503.18 535.07 480.43 535.07"/><path class="cls-2" d="M539.35,437a116.82,116.82,0,0,1,4.77,22.85L548.89,442Z"/><polygon class="cls-1" points="1271.36 147.07 1282.64 177.71 1316.37 224.63 1328.37 231.88 1351.12 231.88 1366.77 224.03 1399.72 170.99 1427.78 119.37 1397.12 136.92 1372.51 122.97 1371.94 80.62 1349.69 59.23 1327.01 72.6 1313.05 114.69 1287.34 139.14 1269.93 123.35 1271.36 147.07"/><path class="cls-2" d="M1286.64,169.22l5.59,2.8s.23-24.79,7.4-43.12l-12.29,10.24-10.15-9.27C1274.63,149.57,1286.64,169.22,1286.64,169.22Z"/><path class="cls-27" d="M1292.23,172l20.84,12,14.66-19.83h28.34L1371.23,186l18.07-12.2,3.77-2.46s1.26-61.23-38.82-80a28.47,28.47,0,0,0-23.5-.35C1291.39,108.42,1292.23,172,1292.23,172Z"/><polygon class="cls-1" points="1327.73 164.19 1341.84 155.72 1356.07 164.19 1327.73 164.19"/><polygon class="cls-2" points="1328.45 231.88 1313.7 189.13 1329.22 167.86 1341.84 159.96 1354.22 167.86 1370.55 190.44 1399.8 170.99 1366.85 224.03 1351.2 231.88 1328.45 231.88"/><path class="cls-2" d="M1387.38,133.85a116.82,116.82,0,0,1,4.77,22.85l4.77-17.86Z"/><polygon class="cls-1" points="1355.86 192.02 1367.15 222.67 1400.88 269.59 1412.88 276.84 1435.63 276.84 1451.28 268.98 1484.22 215.94 1512.29 164.32 1481.63 181.87 1457.02 167.92 1456.45 125.57 1434.2 104.18 1411.52 117.56 1397.56 159.64 1371.85 184.09 1354.44 168.3 1355.86 192.02"/><path class="cls-2" d="M1371.15,214.17l5.59,2.81s.23-24.79,7.39-43.13l-12.28,10.24-10.15-9.26C1359.14,194.52,1371.15,214.17,1371.15,214.17Z"/><path class="cls-28" d="M1376.74,217l20.83,12,14.67-19.84h28.33L1455.74,231l18.07-12.21,3.76-2.46s1.27-61.22-38.81-79.94a28.43,28.43,0,0,0-23.5-.36C1375.9,153.37,1376.74,217,1376.74,217Z"/><polygon class="cls-1" points="1412.24 209.14 1426.35 200.68 1440.58 209.14 1412.24 209.14"/><polygon class="cls-2" points="1412.96 276.84 1398.21 234.09 1413.73 212.82 1426.35 204.91 1438.73 212.82 1455.06 235.4 1484.31 215.94 1451.36 268.98 1435.71 276.84 1412.96 276.84"/><path class="cls-2" d="M1471.89,178.8a117,117,0,0,1,4.77,22.85l4.76-17.86Z"/><polygon class="cls-1" points="1440.23 236.8 1451.52 267.44 1485.24 314.36 1497.24 321.61 1519.99 321.61 1535.64 313.76 1568.59 260.71 1596.65 209.1 1565.99 226.65 1541.39 212.7 1540.82 170.34 1518.57 148.96 1495.89 162.33 1481.92 204.42 1456.21 228.87 1438.8 213.08 1440.23 236.8"/><path class="cls-2" d="M1455.52,259l5.59,2.8s.22-24.79,7.39-43.12l-12.29,10.24-10.15-9.27C1443.51,239.3,1455.52,259,1455.52,259Z"/><path class="cls-29" d="M1461.11,261.75l20.83,12,14.67-19.83h28.33l15.17,21.83,18.06-12.2,3.77-2.46s1.27-61.23-38.81-79.95a28.53,28.53,0,0,0-23.51-.36C1460.27,198.15,1461.11,261.75,1461.11,261.75Z"/><polygon class="cls-1" points="1496.61 253.92 1510.72 245.46 1524.94 253.92 1496.61 253.92"/><polygon class="cls-2" points="1497.33 321.61 1482.58 278.86 1498.1 257.59 1510.72 249.69 1523.1 257.59 1539.42 280.17 1568.67 260.71 1535.72 313.76 1520.08 321.61 1497.33 321.61"/><path class="cls-2" d="M1556.25,223.58a117.21,117.21,0,0,1,4.78,22.85l4.76-17.87Z"/><polygon class="cls-1" points="1524.56 281.49 1535.85 312.13 1569.57 359.05 1581.57 366.3 1604.32 366.3 1619.97 358.45 1652.92 305.4 1680.98 253.79 1650.32 271.34 1625.71 257.39 1625.14 215.04 1602.89 193.65 1580.21 207.02 1566.25 249.11 1540.54 273.56 1523.13 257.77 1524.56 281.49"/><path class="cls-2" d="M1539.84,303.64l5.6,2.8s.22-24.79,7.39-43.12l-12.29,10.24-10.15-9.27C1527.84,284,1539.84,303.64,1539.84,303.64Z"/><path class="cls-30" d="M1545.44,306.44l20.83,12,14.67-19.83h28.33l15.17,21.83,18.06-12.2,3.77-2.46s1.27-61.23-38.82-79.95a28.47,28.47,0,0,0-23.5-.35C1544.6,242.84,1545.44,306.44,1545.44,306.44Z"/><polygon class="cls-1" points="1580.94 298.61 1595.05 290.15 1609.27 298.61 1580.94 298.61"/><polygon class="cls-2" points="1581.65 366.3 1566.9 323.55 1582.42 302.29 1595.05 294.38 1607.42 302.29 1623.75 324.86 1653 305.4 1620.05 358.45 1604.4 366.3 1581.65 366.3"/><path class="cls-2" d="M1640.58,268.27a116.82,116.82,0,0,1,4.77,22.85l4.77-17.86Z"/><polygon class="cls-1" points="1171.35 191.85 1182.63 222.5 1216.36 269.41 1228.36 276.66 1251.11 276.66 1266.76 268.81 1299.71 215.77 1327.77 164.15 1297.11 181.7 1272.5 167.75 1271.93 125.4 1249.68 104.01 1227 117.38 1213.04 159.47 1187.33 183.92 1169.92 168.13 1171.35 191.85"/><path class="cls-2" d="M1186.63,214l5.59,2.81s.23-24.8,7.4-43.13l-12.29,10.24-10.15-9.27C1174.62,194.35,1186.63,214,1186.63,214Z"/><path class="cls-31" d="M1192.22,216.81l20.84,12L1227.72,209h28.34l15.16,21.84,18.07-12.21,3.77-2.46s1.26-61.22-38.82-79.94a28.43,28.43,0,0,0-23.5-.36C1191.38,153.2,1192.22,216.81,1192.22,216.81Z"/><polygon class="cls-1" points="1227.72 208.97 1241.84 200.51 1256.06 208.97 1227.72 208.97"/><polygon class="cls-2" points="1228.44 276.66 1213.69 233.91 1229.21 212.65 1241.84 204.74 1254.21 212.65 1270.54 235.22 1299.79 215.77 1266.84 268.81 1251.19 276.66 1228.44 276.66"/><path class="cls-2" d="M1287.37,178.63a116.82,116.82,0,0,1,4.77,22.85l4.77-17.86Z"/><polygon class="cls-1" points="1255.85 236.81 1267.14 267.45 1300.87 314.37 1312.87 321.62 1335.62 321.62 1351.27 313.76 1384.22 260.72 1412.28 209.11 1381.62 226.65 1357.01 212.7 1356.44 170.35 1334.19 148.96 1311.51 162.34 1297.55 204.43 1271.84 228.88 1254.43 213.08 1255.85 236.81"/><path class="cls-2" d="M1271.14,259l5.59,2.81s.23-24.79,7.39-43.13l-12.28,10.25-10.15-9.27C1259.13,239.3,1271.14,259,1271.14,259Z"/><path class="cls-32" d="M1276.73,261.76l20.84,12,14.66-19.83h28.34l15.16,21.83,18.07-12.21,3.77-2.46s1.26-61.22-38.82-79.94a28.43,28.43,0,0,0-23.5-.36C1275.89,198.16,1276.73,261.76,1276.73,261.76Z"/><polygon class="cls-1" points="1312.23 253.93 1326.34 245.46 1340.57 253.93 1312.23 253.93"/><polygon class="cls-2" points="1312.95 321.62 1298.2 278.87 1313.72 257.6 1326.34 249.69 1338.72 257.6 1355.05 280.18 1384.3 260.72 1351.35 313.76 1335.7 321.62 1312.95 321.62"/><path class="cls-2" d="M1371.88,223.59a116.82,116.82,0,0,1,4.77,22.85l4.77-17.87Z"/><polygon class="cls-1" points="1071.41 236.58 1082.69 267.23 1116.42 314.15 1128.42 321.4 1151.17 321.4 1166.82 313.54 1199.77 260.5 1227.83 208.88 1197.17 226.43 1172.56 212.48 1171.99 170.13 1149.74 148.74 1127.06 162.12 1113.1 204.2 1087.39 228.65 1069.98 212.86 1071.41 236.58"/><path class="cls-2" d="M1086.69,258.73l5.59,2.81s.23-24.79,7.4-43.13l-12.29,10.24-10.15-9.26C1074.68,239.08,1086.69,258.73,1086.69,258.73Z"/><path class="cls-33" d="M1092.28,261.54l20.84,12,14.66-19.84h28.34l15.16,21.84,18.07-12.21,3.77-2.46s1.26-61.22-38.82-79.94a28.43,28.43,0,0,0-23.5-.36C1091.44,197.93,1092.28,261.54,1092.28,261.54Z"/><polygon class="cls-1" points="1127.78 253.7 1141.89 245.24 1156.12 253.7 1127.78 253.7"/><polygon class="cls-2" points="1128.5 321.4 1113.75 278.65 1129.27 257.38 1141.89 249.47 1154.27 257.38 1170.6 279.96 1199.85 260.5 1166.9 313.54 1151.25 321.4 1128.5 321.4"/><path class="cls-2" d="M1187.43,223.36a116.82,116.82,0,0,1,4.77,22.85l4.77-17.86Z"/><polygon class="cls-1" points="1155.91 281.54 1167.2 312.18 1200.93 359.1 1212.93 366.35 1235.68 366.35 1251.33 358.49 1284.28 305.45 1312.34 253.84 1281.68 271.38 1257.07 257.43 1256.5 215.08 1234.25 193.69 1211.57 207.07 1197.61 249.16 1171.9 273.61 1154.49 257.82 1155.91 281.54"/><path class="cls-2" d="M1171.2,303.68l5.59,2.81s.23-24.79,7.39-43.12l-12.28,10.24-10.15-9.27C1159.19,284,1171.2,303.68,1171.2,303.68Z"/><path class="cls-34" d="M1176.79,306.49l20.84,12,14.66-19.83h28.34l15.16,21.83,18.07-12.21,3.77-2.46s1.26-61.22-38.82-79.94a28.43,28.43,0,0,0-23.5-.36C1176,242.89,1176.79,306.49,1176.79,306.49Z"/><polygon class="cls-1" points="1212.29 298.66 1226.4 290.19 1240.63 298.66 1212.29 298.66"/><polygon class="cls-2" points="1213.01 366.35 1198.26 323.6 1213.78 302.33 1226.4 294.42 1238.78 302.33 1255.11 324.91 1284.36 305.45 1251.41 358.49 1235.76 366.35 1213.01 366.35"/><path class="cls-2" d="M1271.94,268.32a116.82,116.82,0,0,1,4.77,22.85l4.77-17.87Z"/><polygon class="cls-1" points="1340.22 281.58 1351.51 312.23 1385.23 359.14 1397.23 366.39 1419.98 366.39 1435.63 358.54 1468.58 305.5 1496.64 253.88 1465.98 271.43 1441.38 257.48 1440.81 215.13 1418.56 193.74 1395.88 207.11 1381.92 249.2 1356.2 273.65 1338.79 257.86 1340.22 281.58"/><path class="cls-2" d="M1355.51,303.73l5.59,2.81s.22-24.8,7.39-43.13l-12.29,10.24-10.15-9.27C1343.5,284.08,1355.51,303.73,1355.51,303.73Z"/><path class="cls-35" d="M1361.1,306.54l20.83,12,14.67-19.84h28.33l15.17,21.84,18.07-12.21,3.76-2.46s1.27-61.22-38.81-79.94a28.45,28.45,0,0,0-23.51-.36C1360.26,242.93,1361.1,306.54,1361.1,306.54Z"/><polygon class="cls-1" points="1396.6 298.7 1410.71 290.24 1424.93 298.7 1396.6 298.7"/><polygon class="cls-2" points="1397.32 366.39 1382.57 323.64 1398.09 302.38 1410.71 294.47 1423.09 302.38 1439.42 324.95 1468.67 305.5 1435.72 358.54 1420.07 366.39 1397.32 366.39"/><path class="cls-2" d="M1456.24,268.36a116.31,116.31,0,0,1,4.78,22.85l4.76-17.86Z"/><polygon class="cls-1" points="1240.28 326.31 1251.57 356.96 1285.29 403.88 1297.29 411.13 1320.04 411.13 1335.69 403.27 1368.64 350.23 1396.7 298.61 1366.04 316.16 1341.44 302.21 1340.87 259.86 1318.62 238.47 1295.94 251.84 1281.98 293.93 1256.26 318.38 1238.85 302.59 1240.28 326.31"/><path class="cls-2" d="M1255.57,348.46l5.59,2.81s.22-24.79,7.39-43.13l-12.29,10.24-10.14-9.26C1243.56,328.81,1255.57,348.46,1255.57,348.46Z"/><path class="cls-36" d="M1261.16,351.27l20.83,12,14.67-19.84H1325l15.17,21.84,18.07-12.21,3.76-2.46s1.27-61.22-38.81-79.94a28.45,28.45,0,0,0-23.51-.36C1260.32,287.66,1261.16,351.27,1261.16,351.27Z"/><polygon class="cls-1" points="1296.66 343.43 1310.77 334.97 1324.99 343.43 1296.66 343.43"/><polygon class="cls-2" points="1297.38 411.13 1282.63 368.38 1298.15 347.11 1310.77 339.2 1323.15 347.11 1339.48 369.69 1368.73 350.23 1335.78 403.27 1320.13 411.13 1297.38 411.13"/><path class="cls-2" d="M1356.3,313.09a116.31,116.31,0,0,1,4.78,22.85l4.76-17.86Z"/><polygon class="cls-1" points="1424.55 326.27 1435.84 356.92 1469.56 403.83 1481.56 411.08 1504.31 411.08 1519.96 403.23 1552.91 350.19 1580.97 298.57 1550.31 316.12 1525.7 302.17 1525.14 259.82 1502.89 238.43 1480.2 251.8 1466.24 293.89 1440.53 318.34 1423.12 302.55 1424.55 326.27"/><path class="cls-2" d="M1439.84,348.42l5.59,2.81s.22-24.79,7.39-43.13l-12.29,10.24-10.15-9.27C1427.83,328.77,1439.84,348.42,1439.84,348.42Z"/><path class="cls-37" d="M1445.43,351.23l20.83,12,14.67-19.84h28.33l15.17,21.84L1542.49,353l3.77-2.46s1.27-61.22-38.82-79.94a28.43,28.43,0,0,0-23.5-.36C1444.59,287.62,1445.43,351.23,1445.43,351.23Z"/><polygon class="cls-1" points="1480.93 343.39 1495.04 334.93 1509.26 343.39 1480.93 343.39"/><polygon class="cls-2" points="1481.65 411.08 1466.89 368.33 1482.41 347.07 1495.04 339.16 1507.41 347.07 1523.74 369.64 1552.99 350.19 1520.04 403.23 1504.39 411.08 1481.65 411.08"/><path class="cls-2" d="M1540.57,313.05a116.82,116.82,0,0,1,4.77,22.85l4.77-17.86Z"/><polygon class="cls-1" points="1324.61 371 1335.9 401.65 1369.62 448.57 1381.62 455.82 1404.37 455.82 1420.02 447.96 1452.97 394.92 1481.03 343.3 1450.37 360.85 1425.77 346.9 1425.2 304.55 1402.95 283.16 1380.27 296.54 1366.3 338.62 1340.59 363.07 1323.18 347.28 1324.61 371"/><path class="cls-2" d="M1339.9,393.15l5.59,2.81s.22-24.79,7.39-43.13l-12.29,10.24-10.15-9.26C1327.89,373.5,1339.9,393.15,1339.9,393.15Z"/><path class="cls-38" d="M1345.49,396l20.83,12L1381,388.12h28.33L1424.49,410l18.06-12.21,3.77-2.46s1.27-61.22-38.82-79.94A28.43,28.43,0,0,0,1384,315C1344.65,332.35,1345.49,396,1345.49,396Z"/><polygon class="cls-1" points="1380.99 388.12 1395.1 379.66 1409.32 388.12 1380.99 388.12"/><polygon class="cls-2" points="1381.71 455.82 1366.95 413.07 1382.47 391.8 1395.1 383.89 1407.47 391.8 1423.8 414.38 1453.05 394.92 1420.1 447.96 1404.45 455.82 1381.71 455.82"/><path class="cls-2" d="M1440.63,357.78a117,117,0,0,1,4.77,22.85l4.77-17.86Z"/><path class="cls-39" d="M989.67,235.52h-7.84v-7.83a3.58,3.58,0,1,0-7.16,0v7.83h-7.84a3.59,3.59,0,0,0,0,7.17h7.84v7.83a3.58,3.58,0,0,0,7.16,0v-7.83h7.84a3.59,3.59,0,0,0,0-7.17Z"/></g></svg>