<svg xmlns="http://www.w3.org/2000/svg" xmlns:xlink="http://www.w3.org/1999/xlink" viewBox="0 0 1577.36 485.92"><defs><style>.cls-1{fill:#62abbc;}.cls-2{fill:#3d838e;opacity:0.51;}.cls-3{fill:url(#linear-gradient);}.cls-4{fill:url(#linear-gradient-2);}.cls-5{fill:url(#linear-gradient-3);}.cls-6{fill:url(#linear-gradient-4);}.cls-7{fill:url(#linear-gradient-5);}.cls-8{fill:url(#linear-gradient-6);}.cls-9{fill:url(#linear-gradient-7);}.cls-10{fill:url(#linear-gradient-8);}.cls-11{fill:url(#linear-gradient-9);}.cls-12{fill:url(#linear-gradient-10);}.cls-13{fill:url(#linear-gradient-11);}.cls-14{fill:url(#linear-gradient-12);}.cls-15{fill:url(#linear-gradient-13);}.cls-16{fill:url(#linear-gradient-14);}.cls-17{fill:url(#linear-gradient-15);}.cls-18{fill:url(#linear-gradient-16);}.cls-19{fill:url(#linear-gradient-17);}.cls-20{fill:url(#linear-gradient-18);}.cls-21{fill:url(#linear-gradient-19);}.cls-22{fill:url(#linear-gradient-20);}.cls-23{fill:url(#linear-gradient-21);}.cls-24{fill:url(#linear-gradient-22);}.cls-25{fill:url(#linear-gradient-23);}.cls-26{fill:url(#linear-gradient-24);}.cls-27{fill:url(#linear-gradient-25);}.cls-28{fill:url(#linear-gradient-26);}.cls-29{fill:url(#linear-gradient-27);}.cls-30{fill:url(#linear-gradient-28);}.cls-31{fill:url(#linear-gradient-29);}.cls-32{fill:url(#linear-gradient-30);}.cls-33{fill:url(#linear-gradient-31);}.cls-34{fill:url(#linear-gradient-32);}.cls-35{fill:#f05023;}</style><linearGradient id="linear-gradient" x1="322.19" y1="78.13" x2="423.03" y2="78.13" gradientUnits="userSpaceOnUse"><stop offset="0" stop-color="#fbb040"/><stop offset="0.39" stop-color="#f9ae41"/><stop offset="0.59" stop-color="#f1a845"/><stop offset="0.74" stop-color="#e49e4b"/><stop offset="0.87" stop-color="#d18f55"/><stop offset="0.99" stop-color="#b97c60"/><stop offset="1" stop-color="#b67a62"/></linearGradient><linearGradient id="linear-gradient-2" x1="406.7" y1="123.08" x2="507.54" y2="123.08" xlink:href="#linear-gradient"/><linearGradient id="linear-gradient-3" x1="222.25" y1="122.86" x2="323.09" y2="122.86" xlink:href="#linear-gradient"/><linearGradient id="linear-gradient-4" x1="306.76" y1="167.81" x2="407.6" y2="167.81" xlink:href="#linear-gradient"/><linearGradient id="linear-gradient-5" x1="491.07" y1="167.86" x2="591.91" y2="167.86" xlink:href="#linear-gradient"/><linearGradient id="linear-gradient-6" x1="391.13" y1="212.59" x2="491.97" y2="212.59" xlink:href="#linear-gradient"/><linearGradient id="linear-gradient-7" x1="575.4" y1="212.55" x2="676.23" y2="212.55" xlink:href="#linear-gradient"/><linearGradient id="linear-gradient-8" x1="475.46" y1="257.28" x2="576.3" y2="257.28" xlink:href="#linear-gradient"/><linearGradient id="linear-gradient-9" x1="122.24" y1="167.64" x2="223.08" y2="167.64" xlink:href="#linear-gradient"/><linearGradient id="linear-gradient-10" x1="206.75" y1="212.6" x2="307.59" y2="212.6" xlink:href="#linear-gradient"/><linearGradient id="linear-gradient-11" x1="22.3" y1="212.37" x2="123.14" y2="212.37" xlink:href="#linear-gradient"/><linearGradient id="linear-gradient-12" x1="106.81" y1="257.33" x2="207.65" y2="257.33" xlink:href="#linear-gradient"/><linearGradient id="linear-gradient-13" x1="291.12" y1="257.37" x2="391.96" y2="257.37" xlink:href="#linear-gradient"/><linearGradient id="linear-gradient-14" x1="191.18" y1="302.1" x2="292.02" y2="302.1" xlink:href="#linear-gradient"/><linearGradient id="linear-gradient-15" x1="375.45" y1="302.06" x2="476.29" y2="302.06" xlink:href="#linear-gradient"/><linearGradient id="linear-gradient-16" x1="275.51" y1="346.79" x2="376.35" y2="346.79" xlink:href="#linear-gradient"/><linearGradient id="linear-gradient-17" x1="659.59" y1="257.15" x2="760.43" y2="257.15" xlink:href="#linear-gradient"/><linearGradient id="linear-gradient-18" x1="559.65" y1="301.88" x2="660.49" y2="301.88" xlink:href="#linear-gradient"/><linearGradient id="linear-gradient-19" x1="459.64" y1="346.66" x2="560.48" y2="346.66" xlink:href="#linear-gradient"/><linearGradient id="linear-gradient-20" x1="359.7" y1="391.4" x2="460.54" y2="391.4" xlink:href="#linear-gradient"/><linearGradient id="linear-gradient-21" x1="1188.61" y1="122.8" x2="1289.45" y2="122.8" xlink:href="#linear-gradient"/><linearGradient id="linear-gradient-22" x1="1273.12" y1="167.75" x2="1373.96" y2="167.75" xlink:href="#linear-gradient"/><linearGradient id="linear-gradient-23" x1="1357.49" y1="212.52" x2="1458.33" y2="212.52" xlink:href="#linear-gradient"/><linearGradient id="linear-gradient-24" x1="1441.82" y1="257.22" x2="1542.66" y2="257.22" xlink:href="#linear-gradient"/><linearGradient id="linear-gradient-25" x1="1088.6" y1="167.58" x2="1189.44" y2="167.58" xlink:href="#linear-gradient"/><linearGradient id="linear-gradient-26" x1="1173.11" y1="212.53" x2="1273.95" y2="212.53" xlink:href="#linear-gradient"/><linearGradient id="linear-gradient-27" x1="988.66" y1="212.31" x2="1089.5" y2="212.31" xlink:href="#linear-gradient"/><linearGradient id="linear-gradient-28" x1="1073.17" y1="257.26" x2="1174.01" y2="257.26" xlink:href="#linear-gradient"/><linearGradient id="linear-gradient-29" x1="1257.48" y1="257.31" x2="1358.32" y2="257.31" xlink:href="#linear-gradient"/><linearGradient id="linear-gradient-30" x1="1157.54" y1="302.04" x2="1258.38" y2="302.04" xlink:href="#linear-gradient"/><linearGradient id="linear-gradient-31" x1="1341.81" y1="302" x2="1442.65" y2="302" xlink:href="#linear-gradient"/><linearGradient id="linear-gradient-32" x1="1241.87" y1="346.73" x2="1342.71" y2="346.73" xlink:href="#linear-gradient"/></defs><title>V3_R2</title><g id="Layer_2" data-name="Layer 2"><polygon class="cls-1" points="301.32 87.84 312.61 118.49 346.33 165.4 358.33 172.65 381.08 172.65 396.73 164.8 429.68 111.76 457.74 60.14 427.08 77.69 402.47 63.74 401.9 21.39 379.65 0 356.97 13.37 343.01 55.46 317.3 79.91 299.89 64.12 301.32 87.84"/><path class="cls-2" d="M316.6,110l5.59,2.81s.23-24.79,7.4-43.13L317.3,79.91l-10.15-9.27C304.59,90.34,316.6,110,316.6,110Z"/><path class="cls-3" d="M322.19,112.8l20.84,12L357.69,105H386l15.16,21.84,18.07-12.21,3.77-2.46s1.26-61.22-38.82-79.94a28.43,28.43,0,0,0-23.5-.36C321.36,49.19,322.19,112.8,322.19,112.8Z"/><polygon class="cls-1" points="357.69 104.96 371.81 96.5 386.03 104.96 357.69 104.96"/><polygon class="cls-2" points="358.41 172.65 343.66 129.9 359.18 108.64 371.81 100.73 384.18 108.64 400.51 131.22 429.76 111.76 396.81 164.8 381.16 172.65 358.41 172.65"/><path class="cls-2" d="M417.34,74.62a116.82,116.82,0,0,1,4.77,22.85l4.77-17.86Z"/><polygon class="cls-1" points="385.82 132.79 397.11 163.44 430.84 210.36 442.84 217.61 465.59 217.61 481.24 209.75 514.19 156.71 542.25 105.1 511.59 122.64 486.98 108.69 486.41 66.34 464.16 44.95 441.48 58.33 427.52 100.42 401.81 124.87 384.4 109.07 385.82 132.79"/><path class="cls-2" d="M401.11,154.94l5.59,2.81s.23-24.79,7.39-43.12l-12.28,10.24-10.15-9.27C389.1,135.29,401.11,154.94,401.11,154.94Z"/><path class="cls-4" d="M406.7,157.75l20.84,12,14.66-19.83h28.34l15.16,21.83,18.07-12.21,3.77-2.46s1.26-61.22-38.82-79.94a28.43,28.43,0,0,0-23.5-.36C405.86,94.15,406.7,157.75,406.7,157.75Z"/><polygon class="cls-1" points="442.2 149.92 456.31 141.45 470.54 149.92 442.2 149.92"/><polygon class="cls-2" points="442.92 217.61 428.17 174.86 443.69 153.59 456.31 145.68 468.69 153.59 485.02 176.17 514.27 156.71 481.32 209.75 465.67 217.61 442.92 217.61"/><path class="cls-2" d="M501.85,119.58a116.82,116.82,0,0,1,4.77,22.85l4.77-17.87Z"/><polygon class="cls-1" points="201.38 132.57 212.67 163.22 246.39 210.14 258.39 217.39 281.14 217.39 296.79 209.53 329.74 156.49 357.8 104.87 327.14 122.42 302.53 108.47 301.96 66.12 279.71 44.73 257.03 58.1 243.07 100.19 217.36 124.64 199.95 108.85 201.38 132.57"/><path class="cls-2" d="M216.66,154.72l5.59,2.81s.23-24.79,7.4-43.13l-12.29,10.24-10.15-9.26C204.65,135.07,216.66,154.72,216.66,154.72Z"/><path class="cls-5" d="M222.25,157.53l20.84,12,14.66-19.84h28.34l15.16,21.84,18.07-12.21,3.77-2.46s1.26-61.22-38.82-79.94a28.43,28.43,0,0,0-23.5-.36C221.42,93.92,222.25,157.53,222.25,157.53Z"/><polygon class="cls-1" points="257.75 149.69 271.87 141.23 286.09 149.69 257.75 149.69"/><polygon class="cls-2" points="258.47 217.39 243.72 174.64 259.24 153.37 271.87 145.46 284.24 153.37 300.57 175.95 329.82 156.49 296.87 209.53 281.22 217.39 258.47 217.39"/><path class="cls-2" d="M317.4,119.35a117,117,0,0,1,4.77,22.85l4.77-17.86Z"/><polygon class="cls-1" points="285.88 177.53 297.17 208.17 330.9 255.09 342.9 262.34 365.65 262.34 381.3 254.48 414.25 201.44 442.31 149.83 411.65 167.37 387.04 153.43 386.47 111.07 364.22 89.69 341.54 103.06 327.58 145.15 301.87 169.6 284.46 153.81 285.88 177.53"/><path class="cls-2" d="M301.17,199.67l5.59,2.81s.23-24.79,7.4-43.12L301.87,169.6l-10.15-9.27C289.16,180,301.17,199.67,301.17,199.67Z"/><path class="cls-6" d="M306.76,202.48l20.84,12,14.66-19.83H370.6l15.16,21.83,18.07-12.21,3.77-2.46s1.26-61.22-38.82-79.94a28.43,28.43,0,0,0-23.5-.36C305.92,138.88,306.76,202.48,306.76,202.48Z"/><polygon class="cls-1" points="342.26 194.65 356.38 186.18 370.6 194.65 342.26 194.65"/><polygon class="cls-2" points="342.98 262.34 328.23 219.59 343.75 198.32 356.38 190.41 368.75 198.32 385.08 220.9 414.33 201.44 381.38 254.48 365.73 262.34 342.98 262.34"/><path class="cls-2" d="M401.91,164.31a116.82,116.82,0,0,1,4.77,22.85l4.77-17.87Z"/><polygon class="cls-1" points="470.19 177.57 481.48 208.22 515.21 255.13 527.21 262.38 549.95 262.38 565.6 254.53 598.55 201.49 626.61 149.87 595.96 167.42 571.35 153.47 570.78 111.12 548.53 89.73 525.85 103.1 511.89 145.19 486.17 169.64 468.76 153.85 470.19 177.57"/><path class="cls-2" d="M485.48,199.72l5.59,2.81s.22-24.8,7.39-43.13l-12.29,10.24L476,160.37C473.47,180.07,485.48,199.72,485.48,199.72Z"/><path class="cls-7" d="M491.07,202.53l20.83,12,14.67-19.84H554.9l15.17,21.84,18.07-12.21,3.76-2.46s1.27-61.22-38.81-79.94a28.45,28.45,0,0,0-23.51-.36C490.23,138.92,491.07,202.53,491.07,202.53Z"/><polygon class="cls-1" points="526.57 194.69 540.68 186.23 554.9 194.69 526.57 194.69"/><polygon class="cls-2" points="527.29 262.38 512.54 219.63 528.06 198.37 540.68 190.46 553.06 198.37 569.39 220.94 598.64 201.49 565.69 254.53 550.04 262.38 527.29 262.38"/><path class="cls-2" d="M586.21,164.35A116.31,116.31,0,0,1,591,187.2l4.76-17.86Z"/><polygon class="cls-1" points="370.25 222.3 381.54 252.95 415.26 299.87 427.26 307.12 450.01 307.12 465.66 299.26 498.61 246.22 526.67 194.6 496.01 212.15 471.41 198.2 470.84 155.85 448.59 134.46 425.91 147.84 411.95 189.92 386.23 214.37 368.82 198.58 370.25 222.3"/><path class="cls-2" d="M385.54,244.45l5.59,2.81s.22-24.79,7.39-43.13l-12.29,10.24-10.14-9.26C373.53,224.8,385.54,244.45,385.54,244.45Z"/><path class="cls-8" d="M391.13,247.26l20.83,12,14.67-19.84H455l15.17,21.84,18.07-12.21,3.76-2.46s1.27-61.22-38.81-79.94a28.45,28.45,0,0,0-23.51-.36C390.29,183.65,391.13,247.26,391.13,247.26Z"/><polygon class="cls-1" points="426.63 239.42 440.74 230.96 454.96 239.42 426.63 239.42"/><polygon class="cls-2" points="427.35 307.12 412.6 264.37 428.12 243.1 440.74 235.19 453.12 243.1 469.45 265.68 498.7 246.22 465.75 299.26 450.1 307.12 427.35 307.12"/><path class="cls-2" d="M486.27,209.08a116.31,116.31,0,0,1,4.78,22.85l4.76-17.86Z"/><polygon class="cls-1" points="554.52 222.26 565.81 252.91 599.53 299.82 611.53 307.07 634.28 307.07 649.93 299.22 682.88 246.18 710.94 194.56 680.28 212.11 655.67 198.16 655.11 155.81 632.86 134.42 610.17 147.79 596.21 189.88 570.5 214.33 553.09 198.54 554.52 222.26"/><path class="cls-2" d="M569.81,244.41l5.59,2.81s.22-24.79,7.39-43.13L570.5,214.33l-10.15-9.27C557.8,224.76,569.81,244.41,569.81,244.41Z"/><path class="cls-9" d="M575.4,247.22l20.83,12,14.67-19.84h28.33l15.17,21.84L672.46,249l3.77-2.46s1.27-61.22-38.82-79.94a28.43,28.43,0,0,0-23.5-.36C574.56,183.61,575.4,247.22,575.4,247.22Z"/><polygon class="cls-1" points="610.9 239.38 625.01 230.92 639.23 239.38 610.9 239.38"/><polygon class="cls-2" points="611.62 307.07 596.87 264.32 612.38 243.06 625.01 235.15 637.38 243.06 653.71 265.63 682.96 246.18 650.01 299.22 634.37 307.07 611.62 307.07"/><path class="cls-2" d="M670.54,209a116.82,116.82,0,0,1,4.77,22.85L680.08,214Z"/><polygon class="cls-1" points="454.58 266.99 465.87 297.64 499.59 344.56 511.59 351.81 534.34 351.81 549.99 343.95 582.94 290.91 611 239.29 580.34 256.84 555.74 242.89 555.17 200.54 532.92 179.15 510.24 192.53 496.27 234.61 470.56 259.06 453.15 243.27 454.58 266.99"/><path class="cls-2" d="M469.87,289.14l5.59,2.81s.22-24.79,7.39-43.13l-12.29,10.25-10.15-9.27C457.86,269.49,469.87,289.14,469.87,289.14Z"/><path class="cls-10" d="M475.46,292l20.83,12L511,284.11h28.33L554.46,306l18.06-12.21,3.77-2.46s1.27-61.22-38.82-79.94A28.43,28.43,0,0,0,514,211C474.62,228.35,475.46,292,475.46,292Z"/><polygon class="cls-1" points="510.96 284.11 525.07 275.65 539.29 284.11 510.96 284.11"/><polygon class="cls-2" points="511.68 351.81 496.93 309.06 512.44 287.79 525.07 279.88 537.44 287.79 553.77 310.37 583.02 290.91 550.07 343.95 534.43 351.81 511.68 351.81"/><path class="cls-2" d="M570.6,253.77a117,117,0,0,1,4.77,22.85l4.77-17.86Z"/><polygon class="cls-1" points="101.37 177.35 112.66 208 146.38 254.92 158.38 262.17 181.13 262.17 196.78 254.31 229.73 201.27 257.79 149.66 227.13 167.2 202.52 153.25 201.95 110.9 179.7 89.51 157.02 102.89 143.06 144.97 117.35 169.43 99.94 153.63 101.37 177.35"/><path class="cls-2" d="M116.65,199.5l5.59,2.81s.23-24.79,7.4-43.12l-12.29,10.24-10.15-9.27C104.65,179.85,116.65,199.5,116.65,199.5Z"/><path class="cls-11" d="M122.24,202.31l20.84,12,14.66-19.83h28.34l15.16,21.83,18.07-12.21,3.77-2.46s1.26-61.22-38.82-79.94a28.43,28.43,0,0,0-23.5-.36C121.41,138.71,122.24,202.31,122.24,202.31Z"/><polygon class="cls-1" points="157.75 194.47 171.86 186.01 186.08 194.47 157.75 194.47"/><polygon class="cls-2" points="158.46 262.17 143.71 219.42 159.23 198.15 171.86 190.24 184.23 198.15 200.56 220.73 229.81 201.27 196.86 254.31 181.21 262.17 158.46 262.17"/><path class="cls-2" d="M217.39,164.14A116.82,116.82,0,0,1,222.16,187l4.77-17.87Z"/><polygon class="cls-1" points="185.88 222.31 197.16 252.95 230.89 299.87 242.89 307.12 265.64 307.12 281.29 299.26 314.24 246.22 342.3 194.61 311.64 212.16 287.03 198.21 286.46 155.85 264.21 134.47 241.53 147.84 227.57 189.93 201.86 214.38 184.45 198.59 185.88 222.31"/><path class="cls-2" d="M201.16,244.45l5.59,2.81s.23-24.79,7.4-43.12l-12.29,10.24-10.15-9.27C189.15,224.8,201.16,244.45,201.16,244.45Z"/><path class="cls-12" d="M206.75,247.26l20.84,12,14.66-19.83h28.34l15.16,21.83,18.07-12.2,3.77-2.46s1.26-61.23-38.82-79.95a28.5,28.5,0,0,0-23.5-.36C205.91,183.66,206.75,247.26,206.75,247.26Z"/><polygon class="cls-1" points="242.25 239.43 256.37 230.96 270.59 239.43 242.25 239.43"/><polygon class="cls-2" points="242.97 307.12 228.22 264.37 243.74 243.1 256.37 235.2 268.74 243.1 285.07 265.68 314.32 246.22 281.37 299.26 265.72 307.12 242.97 307.12"/><path class="cls-2" d="M301.9,209.09a116.82,116.82,0,0,1,4.77,22.85l4.77-17.87Z"/><polygon class="cls-1" points="1.43 222.09 12.72 252.73 46.44 299.65 58.44 306.9 81.19 306.9 96.84 299.04 129.79 246 157.85 194.39 127.19 211.93 102.58 197.98 102.01 155.63 79.76 134.25 57.08 147.62 43.12 189.71 17.41 214.16 0 198.37 1.43 222.09"/><path class="cls-2" d="M16.71,244.23,22.3,247s.23-24.79,7.4-43.12L17.41,214.16,7.26,204.89C4.71,224.58,16.71,244.23,16.71,244.23Z"/><path class="cls-13" d="M22.3,247l20.84,12L57.8,239.21H86.14L101.3,261l18.07-12.21,3.77-2.46s1.26-61.22-38.82-79.94a28.43,28.43,0,0,0-23.5-.36C21.47,183.44,22.3,247,22.3,247Z"/><polygon class="cls-1" points="57.8 239.21 71.92 230.74 86.14 239.21 57.8 239.21"/><polygon class="cls-2" points="58.52 306.9 43.77 264.15 59.29 242.88 71.92 234.97 84.29 242.88 100.62 265.46 129.87 246 96.92 299.04 81.27 306.9 58.52 306.9"/><path class="cls-2" d="M117.45,208.87a116.82,116.82,0,0,1,4.77,22.85L127,213.85Z"/><polygon class="cls-1" points="85.94 267.04 97.22 297.68 130.95 344.6 142.95 351.85 165.7 351.85 181.35 344 214.3 290.95 242.36 239.34 211.7 256.89 187.09 242.94 186.52 200.59 164.27 179.2 141.59 192.57 127.63 234.66 101.92 259.11 84.51 243.32 85.94 267.04"/><path class="cls-2" d="M101.22,289.19l5.59,2.8s.23-24.79,7.4-43.12l-12.29,10.24-10.15-9.27C89.21,269.54,101.22,289.19,101.22,289.19Z"/><path class="cls-14" d="M106.81,292l20.84,12,14.66-19.83h28.34L185.81,306l18.07-12.2,3.77-2.46s1.26-61.23-38.82-79.95a28.47,28.47,0,0,0-23.5-.35C106,228.39,106.81,292,106.81,292Z"/><polygon class="cls-1" points="142.31 284.16 156.43 275.69 170.65 284.16 142.31 284.16"/><polygon class="cls-2" points="143.03 351.85 128.28 309.1 143.8 287.83 156.43 279.93 168.8 287.83 185.13 310.41 214.38 290.95 181.43 344 165.78 351.85 143.03 351.85"/><path class="cls-2" d="M202,253.82a116.82,116.82,0,0,1,4.77,22.85l4.77-17.86Z"/><polygon class="cls-1" points="270.24 267.08 281.53 297.73 315.25 344.65 327.25 351.9 350 351.9 365.65 344.04 398.6 291 426.66 239.38 396 256.93 371.4 242.98 370.83 200.63 348.58 179.24 325.9 192.62 311.94 234.71 286.23 259.16 268.81 243.36 270.24 267.08"/><path class="cls-2" d="M285.53,289.23l5.59,2.81s.23-24.79,7.39-43.13l-12.29,10.25-10.14-9.27C273.52,269.58,285.53,289.23,285.53,289.23Z"/><path class="cls-15" d="M291.12,292,312,304l14.67-19.83H355L370.12,306l18.07-12.21,3.76-2.46s1.27-61.22-38.81-79.94a28.45,28.45,0,0,0-23.51-.36C290.28,228.44,291.12,292,291.12,292Z"/><polygon class="cls-1" points="326.62 284.2 340.73 275.74 354.95 284.2 326.62 284.2"/><polygon class="cls-2" points="327.34 351.9 312.59 309.15 328.11 287.88 340.73 279.97 353.11 287.88 369.44 310.46 398.69 291 365.74 344.04 350.09 351.9 327.34 351.9"/><path class="cls-2" d="M386.26,253.87A116.31,116.31,0,0,1,391,276.72l4.76-17.87Z"/><polygon class="cls-1" points="170.3 311.82 181.59 342.46 215.32 389.38 227.32 396.63 250.06 396.63 265.71 388.77 298.66 335.73 326.73 284.12 296.07 301.66 271.46 287.71 270.89 245.36 248.64 223.97 225.96 237.35 212 279.44 186.28 303.89 168.88 288.1 170.3 311.82"/><path class="cls-2" d="M185.59,334l5.59,2.81s.23-24.79,7.39-43.12l-12.29,10.24-10.14-9.27C173.58,314.31,185.59,334,185.59,334Z"/><path class="cls-16" d="M191.18,336.77l20.83,12,14.67-19.83H255l15.17,21.83,18.07-12.21L292,336.1s1.27-61.22-38.81-79.94a28.45,28.45,0,0,0-23.51-.36C190.34,273.17,191.18,336.77,191.18,336.77Z"/><polygon class="cls-1" points="226.68 328.94 240.79 320.47 255.01 328.94 226.68 328.94"/><polygon class="cls-2" points="227.4 396.63 212.65 353.88 228.17 332.61 240.79 324.7 253.17 332.61 269.5 355.19 298.75 335.73 265.8 388.77 250.15 396.63 227.4 396.63"/><path class="cls-2" d="M286.32,298.6a116.31,116.31,0,0,1,4.78,22.85l4.76-17.87Z"/><polygon class="cls-1" points="354.57 311.77 365.86 342.42 399.58 389.34 411.58 396.59 434.33 396.59 449.98 388.73 482.93 335.69 510.99 284.08 480.33 301.62 455.73 287.67 455.16 245.32 432.91 223.93 410.23 237.31 396.26 279.4 370.55 303.85 353.14 288.06 354.57 311.77"/><path class="cls-2" d="M369.86,333.92l5.59,2.81s.22-24.79,7.39-43.12l-12.29,10.24-10.15-9.27C357.85,314.27,369.86,333.92,369.86,333.92Z"/><path class="cls-17" d="M375.45,336.73l20.83,12L411,328.9h28.33l15.17,21.83,18.06-12.21,3.77-2.46s1.27-61.22-38.81-79.94a28.45,28.45,0,0,0-23.51-.36C374.61,273.13,375.45,336.73,375.45,336.73Z"/><polygon class="cls-1" points="410.95 328.9 425.06 320.43 439.28 328.9 410.95 328.9"/><polygon class="cls-2" points="411.67 396.59 396.92 353.84 412.44 332.57 425.06 324.66 437.44 332.57 453.76 355.15 483.01 335.69 450.06 388.73 434.42 396.59 411.67 396.59"/><path class="cls-2" d="M470.59,298.56a117.21,117.21,0,0,1,4.78,22.85l4.76-17.87Z"/><polygon class="cls-1" points="254.63 356.51 265.92 387.15 299.64 434.07 311.64 441.32 334.39 441.32 350.04 433.46 382.99 380.42 411.05 328.81 380.39 346.35 355.79 332.4 355.22 290.05 332.97 268.67 310.29 282.04 296.32 324.13 270.61 348.58 253.2 332.79 254.63 356.51"/><path class="cls-2" d="M269.92,378.65l5.59,2.81s.22-24.79,7.39-43.12l-12.29,10.24-10.15-9.27C257.91,359,269.92,378.65,269.92,378.65Z"/><path class="cls-18" d="M275.51,381.46l20.83,12L311,373.63h28.33l15.17,21.83,18.07-12.2,3.76-2.47s1.27-61.22-38.81-79.94a28.49,28.49,0,0,0-23.51-.36C274.67,317.86,275.51,381.46,275.51,381.46Z"/><polygon class="cls-1" points="311.01 373.63 325.12 365.16 339.34 373.63 311.01 373.63"/><polygon class="cls-2" points="311.73 441.32 296.98 398.57 312.5 377.3 325.12 369.39 337.5 377.3 353.82 399.88 383.07 380.42 350.13 433.46 334.48 441.32 311.73 441.32"/><path class="cls-2" d="M370.65,343.29a116.31,116.31,0,0,1,4.78,22.85l4.76-17.87Z"/><polygon class="cls-1" points="638.72 266.86 650.01 297.51 683.73 344.43 695.73 351.68 718.48 351.68 734.13 343.82 767.08 290.78 795.14 239.16 764.48 256.71 739.87 242.76 739.3 200.41 717.05 179.02 694.37 192.4 680.41 234.48 654.7 258.94 637.29 243.14 638.72 266.86"/><path class="cls-2" d="M654,289l5.59,2.81s.23-24.79,7.4-43.13L654.7,258.93l-10.15-9.26C642,269.36,654,289,654,289Z"/><path class="cls-19" d="M659.59,291.82l20.84,12L695.09,284h28.34l15.16,21.84,18.07-12.21,3.77-2.46s1.26-61.22-38.82-79.94a28.43,28.43,0,0,0-23.5-.36C658.76,228.21,659.59,291.82,659.59,291.82Z"/><polygon class="cls-1" points="695.1 283.98 709.21 275.52 723.43 283.98 695.1 283.98"/><polygon class="cls-2" points="695.81 351.68 681.06 308.93 696.58 287.66 709.21 279.75 721.58 287.66 737.91 310.24 767.16 290.78 734.21 343.82 718.56 351.68 695.81 351.68"/><path class="cls-2" d="M754.74,253.64a117,117,0,0,1,4.77,22.85l4.77-17.86Z"/><polygon class="cls-1" points="538.78 311.6 550.07 342.24 583.79 389.16 595.79 396.41 618.54 396.41 634.19 388.55 667.14 335.51 695.2 283.9 664.54 301.44 639.93 287.49 639.37 245.14 617.12 223.75 594.43 237.13 580.47 279.22 554.76 303.67 537.35 287.87 538.78 311.6"/><path class="cls-2" d="M554.06,333.74l5.6,2.81s.22-24.79,7.39-43.12l-12.29,10.24-10.15-9.27C542.06,314.09,554.06,333.74,554.06,333.74Z"/><path class="cls-20" d="M559.66,336.55l20.83,12,14.67-19.83h28.33l15.17,21.83,18.06-12.21,3.77-2.46s1.27-61.22-38.82-79.94a28.43,28.43,0,0,0-23.5-.36C558.82,273,559.66,336.55,559.66,336.55Z"/><polygon class="cls-1" points="595.15 328.72 609.27 320.25 623.49 328.72 595.15 328.72"/><polygon class="cls-2" points="595.87 396.41 581.12 353.66 596.64 332.39 609.27 324.48 621.64 332.39 637.97 354.97 667.22 335.51 634.27 388.55 618.62 396.41 595.87 396.41"/><path class="cls-2" d="M654.8,298.38a116.82,116.82,0,0,1,4.77,22.85l4.77-17.87Z"/><polygon class="cls-1" points="438.77 356.38 450.06 387.02 483.78 433.94 495.78 441.19 518.53 441.19 534.18 433.33 567.13 380.29 595.19 328.68 564.53 346.22 539.92 332.27 539.36 289.92 517.11 268.54 494.42 281.91 480.46 324 454.75 348.45 437.34 332.66 438.77 356.38"/><path class="cls-2" d="M454.05,378.52l5.6,2.81s.22-24.79,7.39-43.12l-12.29,10.24-10.15-9.27C442.05,358.87,454.05,378.52,454.05,378.52Z"/><path class="cls-21" d="M459.65,381.33l20.83,12,14.67-19.83h28.33l15.17,21.83,18.06-12.2,3.77-2.47s1.27-61.22-38.82-79.94a28.47,28.47,0,0,0-23.5-.36C458.81,317.73,459.65,381.33,459.65,381.33Z"/><polygon class="cls-1" points="495.15 373.5 509.26 365.03 523.48 373.5 495.15 373.5"/><polygon class="cls-2" points="495.87 441.19 481.12 398.44 496.63 377.17 509.26 369.26 521.63 377.17 537.96 399.75 567.21 380.29 534.26 433.33 518.62 441.19 495.87 441.19"/><path class="cls-2" d="M554.79,343.16A116.82,116.82,0,0,1,559.56,366l4.77-17.87Z"/><polygon class="cls-1" points="338.83 401.11 350.12 431.75 383.84 478.67 395.84 485.92 418.59 485.92 434.24 478.07 467.19 425.02 495.25 373.41 464.59 390.95 439.98 377.01 439.42 334.65 417.17 313.27 394.48 326.64 380.52 368.73 354.81 393.18 337.4 377.39 338.83 401.11"/><path class="cls-2" d="M354.11,423.25l5.6,2.81s.22-24.79,7.39-43.12l-12.29,10.24-10.15-9.27C342.11,403.6,354.11,423.25,354.11,423.25Z"/><path class="cls-22" d="M359.71,426.06l20.83,12,14.67-19.83h28.33l15.17,21.83,18.06-12.2,3.77-2.46s1.27-61.23-38.82-79.95a28.5,28.5,0,0,0-23.5-.36C358.87,362.46,359.71,426.06,359.71,426.06Z"/><polygon class="cls-1" points="395.21 418.23 409.32 409.76 423.54 418.23 395.21 418.23"/><polygon class="cls-2" points="395.93 485.92 381.18 443.17 396.69 421.9 409.32 414 421.69 421.9 438.02 444.48 467.27 425.02 434.32 478.07 418.68 485.92 395.93 485.92"/><path class="cls-2" d="M454.85,387.89a116.82,116.82,0,0,1,4.77,22.85l4.77-17.87Z"/><polygon class="cls-1" points="1167.74 132.51 1179.03 163.15 1212.75 210.07 1224.75 217.32 1247.5 217.32 1263.15 209.47 1296.1 156.42 1324.16 104.81 1293.5 122.36 1268.89 108.41 1268.32 66.05 1246.07 44.67 1223.39 58.04 1209.43 100.13 1183.72 124.58 1166.31 108.79 1167.74 132.51"/><path class="cls-2" d="M1183,154.65l5.59,2.81s.23-24.79,7.4-43.12l-12.29,10.24-10.15-9.27C1171,135,1183,154.65,1183,154.65Z"/><path class="cls-23" d="M1188.61,157.46l20.84,12,14.66-19.83h28.34l15.16,21.83,18.07-12.2,3.77-2.46s1.26-61.23-38.82-80a28.5,28.5,0,0,0-23.5-.36C1187.78,93.86,1188.61,157.46,1188.61,157.46Z"/><polygon class="cls-1" points="1224.12 149.63 1238.23 141.16 1252.45 149.63 1224.12 149.63"/><polygon class="cls-2" points="1224.83 217.32 1210.08 174.57 1225.6 153.3 1238.23 145.4 1250.6 153.3 1266.93 175.88 1296.18 156.42 1263.23 209.47 1247.58 217.32 1224.83 217.32"/><path class="cls-2" d="M1283.76,119.29a116.82,116.82,0,0,1,4.77,22.85l4.77-17.87Z"/><polygon class="cls-1" points="1252.25 177.46 1263.54 208.11 1297.26 255.02 1309.26 262.27 1332.01 262.27 1347.66 254.42 1380.61 201.38 1408.67 149.76 1378.01 167.31 1353.4 153.36 1352.83 111.01 1330.58 89.62 1307.9 102.99 1293.94 145.08 1268.23 169.53 1250.82 153.74 1252.25 177.46"/><path class="cls-2" d="M1267.53,199.61l5.59,2.81s.23-24.8,7.4-43.13l-12.29,10.24-10.15-9.27C1255.52,180,1267.53,199.61,1267.53,199.61Z"/><path class="cls-24" d="M1273.12,202.42l20.84,12,14.66-19.84H1337l15.16,21.84,18.07-12.21,3.77-2.46s1.26-61.22-38.82-79.94a28.43,28.43,0,0,0-23.5-.36C1272.28,138.81,1273.12,202.42,1273.12,202.42Z"/><polygon class="cls-1" points="1308.62 194.58 1322.73 186.12 1336.96 194.58 1308.62 194.58"/><polygon class="cls-2" points="1309.34 262.27 1294.59 219.52 1310.11 198.26 1322.73 190.35 1335.11 198.26 1351.44 220.84 1380.69 201.38 1347.74 254.42 1332.09 262.27 1309.34 262.27"/><path class="cls-2" d="M1368.27,164.24a116.82,116.82,0,0,1,4.77,22.85l4.77-17.86Z"/><polygon class="cls-1" points="1336.61 222.24 1347.9 252.88 1381.63 299.8 1393.63 307.05 1416.38 307.05 1432.02 299.19 1464.97 246.15 1493.04 194.54 1462.38 212.09 1437.77 198.14 1437.2 155.78 1414.95 134.4 1392.27 147.77 1378.31 189.86 1352.6 214.31 1335.18 198.52 1336.61 222.24"/><path class="cls-2" d="M1351.9,244.38l5.59,2.81s.23-24.79,7.39-43.12l-12.29,10.24L1342.45,205C1339.89,224.73,1351.9,244.38,1351.9,244.38Z"/><path class="cls-25" d="M1357.49,247.19l20.83,12L1393,239.36h28.33l15.17,21.83,18.07-12.2,3.76-2.46s1.27-61.23-38.81-79.95a28.53,28.53,0,0,0-23.51-.36C1356.65,183.59,1357.49,247.19,1357.49,247.19Z"/><polygon class="cls-1" points="1392.99 239.36 1407.1 230.89 1421.32 239.36 1392.99 239.36"/><polygon class="cls-2" points="1393.71 307.05 1378.96 264.3 1394.48 243.03 1407.1 235.13 1419.48 243.03 1435.81 265.61 1465.06 246.15 1432.11 299.19 1416.46 307.05 1393.71 307.05"/><path class="cls-2" d="M1452.63,209a116.31,116.31,0,0,1,4.78,22.85l4.76-17.87Z"/><polygon class="cls-1" points="1420.94 266.93 1432.23 297.57 1465.95 344.49 1477.95 351.74 1500.7 351.74 1516.35 343.89 1549.3 290.84 1577.36 239.23 1546.7 256.78 1522.1 242.83 1521.53 200.47 1499.28 179.09 1476.6 192.46 1462.63 234.55 1436.92 259 1419.51 243.21 1420.94 266.93"/><path class="cls-2" d="M1436.23,289.07l5.59,2.81s.22-24.79,7.39-43.12L1436.92,259l-10.15-9.27C1424.22,269.42,1436.23,289.07,1436.23,289.07Z"/><path class="cls-26" d="M1441.82,291.88l20.83,12,14.67-19.83h28.33l15.17,21.83,18.07-12.2,3.76-2.46s1.27-61.23-38.81-80a28.53,28.53,0,0,0-23.51-.36C1441,228.28,1441.82,291.88,1441.82,291.88Z"/><polygon class="cls-1" points="1477.32 284.05 1491.43 275.58 1505.65 284.05 1477.32 284.05"/><polygon class="cls-2" points="1478.04 351.74 1463.29 308.99 1478.81 287.72 1491.43 279.82 1503.81 287.72 1520.13 310.3 1549.38 290.84 1516.43 343.89 1500.79 351.74 1478.04 351.74"/><path class="cls-2" d="M1537,253.71a116.31,116.31,0,0,1,4.78,22.85l4.76-17.87Z"/><polygon class="cls-1" points="1067.73 177.29 1079.02 207.93 1112.74 254.85 1124.74 262.1 1147.49 262.1 1163.14 254.25 1196.09 201.21 1224.15 149.59 1193.49 167.14 1168.88 153.19 1168.32 110.84 1146.07 89.45 1123.38 102.82 1109.42 144.91 1083.71 169.36 1066.3 153.57 1067.73 177.29"/><path class="cls-2" d="M1083,199.44l5.6,2.8s.22-24.79,7.39-43.12l-12.29,10.24-10.15-9.27C1071,179.79,1083,199.44,1083,199.44Z"/><path class="cls-27" d="M1088.61,202.24l20.83,12,14.67-19.83h28.33l15.17,21.83,18.06-12.2,3.77-2.46s1.27-61.23-38.82-80a28.47,28.47,0,0,0-23.5-.35C1087.77,138.64,1088.61,202.24,1088.61,202.24Z"/><polygon class="cls-1" points="1124.11 194.41 1138.22 185.94 1152.44 194.41 1124.11 194.41"/><polygon class="cls-2" points="1124.82 262.1 1110.07 219.35 1125.59 198.08 1138.22 190.18 1150.59 198.08 1166.92 220.66 1196.17 201.21 1163.22 254.25 1147.57 262.1 1124.82 262.1"/><path class="cls-2" d="M1183.75,164.07a116.82,116.82,0,0,1,4.77,22.85l4.77-17.86Z"/><polygon class="cls-1" points="1152.24 222.24 1163.53 252.89 1197.25 299.81 1209.25 307.06 1232 307.06 1247.65 299.2 1280.6 246.16 1308.66 194.54 1278 212.09 1253.39 198.14 1252.82 155.79 1230.57 134.4 1207.89 147.78 1193.93 189.86 1168.22 214.31 1150.81 198.52 1152.24 222.24"/><path class="cls-2" d="M1167.52,244.39l5.59,2.81s.23-24.79,7.4-43.13l-12.29,10.24-10.15-9.26C1155.51,224.74,1167.52,244.39,1167.52,244.39Z"/><path class="cls-28" d="M1173.11,247.2l20.84,12,14.66-19.84H1237l15.16,21.84L1270.18,249l3.77-2.46s1.26-61.22-38.82-79.94a28.43,28.43,0,0,0-23.5-.36C1172.28,183.59,1173.11,247.2,1173.11,247.2Z"/><polygon class="cls-1" points="1208.61 239.36 1222.73 230.9 1236.95 239.36 1208.61 239.36"/><polygon class="cls-2" points="1209.33 307.06 1194.58 264.31 1210.1 243.04 1222.73 235.13 1235.1 243.04 1251.43 265.62 1280.68 246.16 1247.73 299.2 1232.08 307.06 1209.33 307.06"/><path class="cls-2" d="M1268.26,209a117,117,0,0,1,4.77,22.85L1277.8,214Z"/><polygon class="cls-1" points="967.79 222.02 979.08 252.66 1012.8 299.58 1024.8 306.83 1047.55 306.83 1063.2 298.98 1096.15 245.94 1124.21 194.32 1093.55 211.87 1068.94 197.92 1068.38 155.57 1046.13 134.18 1023.44 147.55 1009.48 189.64 983.77 214.09 966.36 198.3 967.79 222.02"/><path class="cls-2" d="M983.07,244.17l5.6,2.81s.22-24.8,7.39-43.13l-12.29,10.24-10.15-9.27C971.07,224.52,983.07,244.17,983.07,244.17Z"/><path class="cls-29" d="M988.67,247l20.83,12,14.67-19.84h28.33L1067.67,261l18.06-12.21,3.77-2.46s1.27-61.22-38.82-79.94a28.43,28.43,0,0,0-23.5-.36C987.83,183.37,988.67,247,988.67,247Z"/><polygon class="cls-1" points="1024.17 239.14 1038.28 230.68 1052.5 239.14 1024.17 239.14"/><polygon class="cls-2" points="1024.88 306.83 1010.13 264.08 1025.65 242.82 1038.28 234.91 1050.65 242.82 1066.98 265.39 1096.23 245.94 1063.28 298.98 1047.63 306.83 1024.88 306.83"/><path class="cls-2" d="M1083.81,208.8a116.82,116.82,0,0,1,4.77,22.85l4.77-17.86Z"/><polygon class="cls-1" points="1052.3 266.98 1063.59 297.62 1097.31 344.54 1109.31 351.79 1132.06 351.79 1147.71 343.93 1180.66 290.89 1208.72 239.28 1178.06 256.82 1153.45 242.87 1152.88 200.52 1130.63 179.13 1107.95 192.51 1093.99 234.59 1068.28 259.05 1050.87 243.25 1052.3 266.98"/><path class="cls-2" d="M1067.58,289.12l5.59,2.81s.23-24.79,7.4-43.13l-12.29,10.25-10.15-9.27C1055.57,269.47,1067.58,289.12,1067.58,289.12Z"/><path class="cls-30" d="M1073.17,291.93l20.84,12,14.66-19.83H1137l15.16,21.83,18.07-12.21,3.77-2.46s1.26-61.22-38.82-79.94a28.43,28.43,0,0,0-23.5-.36C1072.34,228.33,1073.17,291.93,1073.17,291.93Z"/><polygon class="cls-1" points="1108.67 284.1 1122.79 275.63 1137.01 284.1 1108.67 284.1"/><polygon class="cls-2" points="1109.39 351.79 1094.64 309.04 1110.16 287.77 1122.79 279.86 1135.16 287.77 1151.49 310.35 1180.74 290.89 1147.79 343.93 1132.14 351.79 1109.39 351.79"/><path class="cls-2" d="M1168.32,253.76a116.82,116.82,0,0,1,4.77,22.85l4.77-17.87Z"/><polygon class="cls-1" points="1236.6 267.02 1247.89 297.66 1281.62 344.58 1293.62 351.83 1316.37 351.83 1332.01 343.98 1364.96 290.93 1393.03 239.32 1362.37 256.87 1337.76 242.92 1337.19 200.56 1314.94 179.18 1292.26 192.55 1278.3 234.64 1252.59 259.09 1235.18 243.3 1236.6 267.02"/><path class="cls-2" d="M1251.89,289.17l5.59,2.8s.23-24.79,7.39-43.12l-12.28,10.24-10.15-9.27C1239.88,269.52,1251.89,289.17,1251.89,289.17Z"/><path class="cls-31" d="M1257.48,292l20.83,12L1293,284.14h28.33L1336.48,306l18.07-12.2,3.76-2.46s1.27-61.23-38.81-79.95A28.49,28.49,0,0,0,1296,211C1256.64,228.37,1257.48,292,1257.48,292Z"/><polygon class="cls-1" points="1292.98 284.14 1307.09 275.68 1321.31 284.14 1292.98 284.14"/><polygon class="cls-2" points="1293.7 351.83 1278.95 309.08 1294.47 287.81 1307.09 279.91 1319.47 287.81 1335.8 310.39 1365.05 290.93 1332.1 343.98 1316.45 351.83 1293.7 351.83"/><path class="cls-2" d="M1352.62,253.8a116.31,116.31,0,0,1,4.78,22.85l4.76-17.86Z"/><polygon class="cls-1" points="1136.66 311.75 1147.95 342.39 1181.68 389.31 1193.68 396.56 1216.43 396.56 1232.07 388.71 1265.02 335.67 1293.09 284.05 1262.43 301.6 1237.82 287.65 1237.25 245.3 1215 223.91 1192.32 237.28 1178.36 279.37 1152.65 303.82 1135.24 288.03 1136.66 311.75"/><path class="cls-2" d="M1152,333.9l5.59,2.8s.23-24.79,7.39-43.12l-12.28,10.24-10.15-9.27C1139.94,314.25,1152,333.9,1152,333.9Z"/><path class="cls-32" d="M1157.54,336.7l20.83,12L1193,328.87h28.33l15.17,21.83,18.07-12.2,3.76-2.46s1.27-61.22-38.81-79.94a28.45,28.45,0,0,0-23.51-.36C1156.7,273.1,1157.54,336.7,1157.54,336.7Z"/><polygon class="cls-1" points="1193.04 328.87 1207.15 320.41 1221.37 328.87 1193.04 328.87"/><polygon class="cls-2" points="1193.76 396.56 1179.01 353.81 1194.53 332.55 1207.15 324.64 1219.53 332.55 1235.86 355.12 1265.11 335.67 1232.16 388.71 1216.51 396.56 1193.76 396.56"/><path class="cls-2" d="M1252.68,298.53a116.31,116.31,0,0,1,4.78,22.85l4.76-17.86Z"/><polygon class="cls-1" points="1320.93 311.71 1332.22 342.36 1365.94 389.27 1377.94 396.52 1400.69 396.52 1416.34 388.67 1449.29 335.63 1477.35 284.01 1446.69 301.56 1422.09 287.61 1421.52 245.26 1399.27 223.87 1376.59 237.24 1362.63 279.33 1336.91 303.78 1319.5 287.99 1320.93 311.71"/><path class="cls-2" d="M1336.22,333.86l5.59,2.8s.22-24.79,7.39-43.12l-12.29,10.24-10.15-9.27C1324.21,314.21,1336.22,333.86,1336.22,333.86Z"/><path class="cls-33" d="M1341.81,336.66l20.83,12,14.67-19.83h28.33l15.17,21.83,18.07-12.2,3.76-2.46s1.27-61.23-38.81-79.95a28.49,28.49,0,0,0-23.51-.35C1341,273.06,1341.81,336.66,1341.81,336.66Z"/><polygon class="cls-1" points="1377.31 328.83 1391.42 320.37 1405.64 328.83 1377.31 328.83"/><polygon class="cls-2" points="1378.03 396.52 1363.28 353.77 1378.8 332.5 1391.42 324.6 1403.8 332.5 1420.13 355.08 1449.38 335.63 1416.43 388.67 1400.78 396.52 1378.03 396.52"/><path class="cls-2" d="M1437,298.49a116.31,116.31,0,0,1,4.78,22.85l4.76-17.86Z"/><polygon class="cls-1" points="1220.99 356.44 1232.28 387.09 1266 434 1278 441.25 1300.75 441.25 1316.4 433.4 1349.35 380.36 1377.41 328.74 1346.75 346.29 1322.15 332.34 1321.58 289.99 1299.33 268.6 1276.65 281.97 1262.69 324.06 1236.97 348.51 1219.56 332.72 1220.99 356.44"/><path class="cls-2" d="M1236.28,378.59l5.59,2.81s.22-24.79,7.39-43.13L1237,348.51l-10.14-9.27C1224.27,358.94,1236.28,378.59,1236.28,378.59Z"/><path class="cls-34" d="M1241.87,381.4l20.83,12,14.67-19.84h28.33l15.17,21.84,18.07-12.21,3.76-2.46s1.27-61.22-38.81-79.94a28.45,28.45,0,0,0-23.51-.36C1241,317.79,1241.87,381.4,1241.87,381.4Z"/><polygon class="cls-1" points="1277.37 373.56 1291.48 365.1 1305.7 373.56 1277.37 373.56"/><polygon class="cls-2" points="1278.09 441.25 1263.34 398.5 1278.86 377.24 1291.48 369.33 1303.86 377.24 1320.19 399.81 1349.44 380.36 1316.49 433.4 1300.84 441.25 1278.09 441.25"/><path class="cls-2" d="M1337,343.22a116.31,116.31,0,0,1,4.78,22.85l4.76-17.86Z"/><path class="cls-35" d="M890,235.52h-7.83v-7.83a3.59,3.59,0,1,0-7.17,0v7.83h-7.83a3.59,3.59,0,1,0,0,7.17H875v7.83a3.59,3.59,0,0,0,7.17,0v-7.83H890a3.59,3.59,0,0,0,0-7.17Z"/></g></svg>