<svg xmlns="http://www.w3.org/2000/svg" xmlns:xlink="http://www.w3.org/1999/xlink" viewBox="0 0 1522.15 351.81"><defs><style>.cls-1{fill:#62abbc;}.cls-2{fill:#3d838e;opacity:0.51;}.cls-3{fill:url(#linear-gradient);}.cls-4{fill:url(#linear-gradient-2);}.cls-5{fill:url(#linear-gradient-3);}.cls-6{fill:url(#linear-gradient-4);}.cls-7{fill:url(#linear-gradient-5);}.cls-8{fill:url(#linear-gradient-6);}.cls-9{fill:url(#linear-gradient-7);}.cls-10{fill:url(#linear-gradient-8);}.cls-11{fill:url(#linear-gradient-9);}.cls-12{fill:url(#linear-gradient-10);}.cls-13{fill:url(#linear-gradient-11);}.cls-14{fill:url(#linear-gradient-12);}.cls-15{fill:url(#linear-gradient-13);}.cls-16{fill:url(#linear-gradient-14);}.cls-17{fill:url(#linear-gradient-15);}.cls-18{fill:url(#linear-gradient-16);}.cls-19{fill:#f05023;}</style><linearGradient id="linear-gradient" x1="122.24" y1="78.13" x2="223.08" y2="78.13" gradientUnits="userSpaceOnUse"><stop offset="0" stop-color="#fbb040"/><stop offset="0.39" stop-color="#f9ae41"/><stop offset="0.59" stop-color="#f1a845"/><stop offset="0.74" stop-color="#e49e4b"/><stop offset="0.87" stop-color="#d18f55"/><stop offset="0.99" stop-color="#b97c60"/><stop offset="1" stop-color="#b67a62"/></linearGradient><linearGradient id="linear-gradient-2" x1="206.75" y1="123.08" x2="307.59" y2="123.08" xlink:href="#linear-gradient"/><linearGradient id="linear-gradient-3" x1="22.3" y1="122.86" x2="123.14" y2="122.86" xlink:href="#linear-gradient"/><linearGradient id="linear-gradient-4" x1="106.81" y1="167.81" x2="207.65" y2="167.81" xlink:href="#linear-gradient"/><linearGradient id="linear-gradient-5" x1="291.12" y1="167.86" x2="391.96" y2="167.86" xlink:href="#linear-gradient"/><linearGradient id="linear-gradient-6" x1="191.18" y1="212.59" x2="292.02" y2="212.59" xlink:href="#linear-gradient"/><linearGradient id="linear-gradient-7" x1="375.45" y1="212.55" x2="476.29" y2="212.55" xlink:href="#linear-gradient"/><linearGradient id="linear-gradient-8" x1="275.51" y1="257.28" x2="376.35" y2="257.28" xlink:href="#linear-gradient"/><linearGradient id="linear-gradient-9" x1="832.03" y1="122.86" x2="932.87" y2="122.86" xlink:href="#linear-gradient"/><linearGradient id="linear-gradient-10" x1="916.53" y1="167.82" x2="1017.37" y2="167.82" xlink:href="#linear-gradient"/><linearGradient id="linear-gradient-11" x1="732.09" y1="167.59" x2="832.93" y2="167.59" xlink:href="#linear-gradient"/><linearGradient id="linear-gradient-12" x1="816.59" y1="212.55" x2="917.43" y2="212.55" xlink:href="#linear-gradient"/><linearGradient id="linear-gradient-13" x1="1302.1" y1="122.86" x2="1402.94" y2="122.86" xlink:href="#linear-gradient"/><linearGradient id="linear-gradient-14" x1="1386.61" y1="167.82" x2="1487.45" y2="167.82" xlink:href="#linear-gradient"/><linearGradient id="linear-gradient-15" x1="1202.16" y1="167.59" x2="1303" y2="167.59" xlink:href="#linear-gradient"/><linearGradient id="linear-gradient-16" x1="1286.67" y1="212.55" x2="1387.51" y2="212.55" xlink:href="#linear-gradient"/></defs><title>V4_G1</title><g id="Layer_2" data-name="Layer 2"><polygon class="cls-1" points="101.37 87.84 112.66 118.49 146.38 165.4 158.38 172.65 181.13 172.65 196.78 164.8 229.73 111.76 257.79 60.14 227.13 77.69 202.52 63.74 201.95 21.39 179.7 0 157.02 13.37 143.06 55.46 117.35 79.91 99.94 64.12 101.37 87.84"/><path class="cls-2" d="M116.65,110l5.59,2.81s.23-24.79,7.4-43.13L117.35,79.91,107.2,70.64C104.65,90.34,116.65,110,116.65,110Z"/><path class="cls-3" d="M122.24,112.8l20.84,12L157.74,105h28.34l15.16,21.84,18.07-12.21,3.77-2.46s1.26-61.22-38.82-79.94a28.43,28.43,0,0,0-23.5-.36C121.41,49.19,122.24,112.8,122.24,112.8Z"/><polygon class="cls-1" points="157.75 104.96 171.86 96.5 186.08 104.96 157.75 104.96"/><polygon class="cls-2" points="158.46 172.65 143.71 129.9 159.23 108.64 171.86 100.73 184.23 108.64 200.56 131.22 229.81 111.76 196.86 164.8 181.21 172.65 158.46 172.65"/><path class="cls-2" d="M217.39,74.62a116.82,116.82,0,0,1,4.77,22.85l4.77-17.86Z"/><polygon class="cls-1" points="185.88 132.79 197.16 163.44 230.89 210.36 242.89 217.61 265.64 217.61 281.29 209.75 314.24 156.71 342.3 105.1 311.64 122.64 287.03 108.69 286.46 66.34 264.21 44.95 241.53 58.33 227.57 100.42 201.86 124.87 184.45 109.07 185.88 132.79"/><path class="cls-2" d="M201.16,154.94l5.59,2.81s.23-24.79,7.4-43.12l-12.29,10.24-10.15-9.27C189.15,135.29,201.16,154.94,201.16,154.94Z"/><path class="cls-4" d="M206.75,157.75l20.84,12,14.66-19.83h28.34l15.16,21.83,18.07-12.21,3.77-2.46s1.26-61.22-38.82-79.94a28.43,28.43,0,0,0-23.5-.36C205.91,94.15,206.75,157.75,206.75,157.75Z"/><polygon class="cls-1" points="242.25 149.92 256.37 141.45 270.59 149.92 242.25 149.92"/><polygon class="cls-2" points="242.97 217.61 228.22 174.86 243.74 153.59 256.37 145.68 268.74 153.59 285.07 176.17 314.32 156.71 281.37 209.75 265.72 217.61 242.97 217.61"/><path class="cls-2" d="M301.9,119.58a116.82,116.82,0,0,1,4.77,22.85l4.77-17.87Z"/><polygon class="cls-1" points="1.43 132.57 12.72 163.22 46.44 210.14 58.44 217.39 81.19 217.39 96.84 209.53 129.79 156.49 157.85 104.87 127.19 122.42 102.58 108.47 102.01 66.12 79.76 44.73 57.08 58.1 43.12 100.19 17.41 124.64 0 108.85 1.43 132.57"/><path class="cls-2" d="M16.71,154.72l5.59,2.81s.23-24.79,7.4-43.13L17.41,124.64,7.26,115.38C4.71,135.07,16.71,154.72,16.71,154.72Z"/><path class="cls-5" d="M22.3,157.53l20.84,12L57.8,149.69H86.14l15.16,21.84,18.07-12.21,3.77-2.46s1.26-61.22-38.82-79.94a28.43,28.43,0,0,0-23.5-.36C21.47,93.92,22.3,157.53,22.3,157.53Z"/><polygon class="cls-1" points="57.8 149.69 71.92 141.23 86.14 149.69 57.8 149.69"/><polygon class="cls-2" points="58.52 217.39 43.77 174.64 59.29 153.37 71.92 145.46 84.29 153.37 100.62 175.95 129.87 156.49 96.92 209.53 81.27 217.39 58.52 217.39"/><path class="cls-2" d="M117.45,119.35a117,117,0,0,1,4.77,22.85L127,124.34Z"/><polygon class="cls-1" points="85.94 177.53 97.22 208.17 130.95 255.09 142.95 262.34 165.7 262.34 181.35 254.48 214.3 201.44 242.36 149.83 211.7 167.37 187.09 153.43 186.52 111.07 164.27 89.69 141.59 103.06 127.63 145.15 101.92 169.6 84.51 153.81 85.94 177.53"/><path class="cls-2" d="M101.22,199.67l5.59,2.81s.23-24.79,7.4-43.12L101.92,169.6l-10.15-9.27C89.21,180,101.22,199.67,101.22,199.67Z"/><path class="cls-6" d="M106.81,202.48l20.84,12,14.66-19.83h28.34l15.16,21.83,18.07-12.21,3.77-2.46s1.26-61.22-38.82-79.94a28.43,28.43,0,0,0-23.5-.36C106,138.88,106.81,202.48,106.81,202.48Z"/><polygon class="cls-1" points="142.31 194.65 156.43 186.18 170.65 194.65 142.31 194.65"/><polygon class="cls-2" points="143.03 262.34 128.28 219.59 143.8 198.32 156.43 190.41 168.8 198.32 185.13 220.9 214.38 201.44 181.43 254.48 165.78 262.34 143.03 262.34"/><path class="cls-2" d="M202,164.31a116.82,116.82,0,0,1,4.77,22.85l4.77-17.87Z"/><polygon class="cls-1" points="270.24 177.57 281.53 208.22 315.25 255.13 327.25 262.38 350 262.38 365.65 254.53 398.6 201.49 426.66 149.87 396 167.42 371.4 153.47 370.83 111.12 348.58 89.73 325.9 103.1 311.94 145.19 286.23 169.64 268.81 153.85 270.24 177.57"/><path class="cls-2" d="M285.53,199.72l5.59,2.81s.23-24.8,7.39-43.13l-12.29,10.24-10.14-9.27C273.52,180.07,285.53,199.72,285.53,199.72Z"/><path class="cls-7" d="M291.12,202.53l20.83,12,14.67-19.84H355l15.17,21.84,18.07-12.21,3.76-2.46s1.27-61.22-38.81-79.94a28.45,28.45,0,0,0-23.51-.36C290.28,138.92,291.12,202.53,291.12,202.53Z"/><polygon class="cls-1" points="326.62 194.69 340.73 186.23 354.95 194.69 326.62 194.69"/><polygon class="cls-2" points="327.34 262.38 312.59 219.63 328.11 198.37 340.73 190.46 353.11 198.37 369.44 220.94 398.69 201.49 365.74 254.53 350.09 262.38 327.34 262.38"/><path class="cls-2" d="M386.26,164.35A116.31,116.31,0,0,1,391,187.2l4.76-17.86Z"/><polygon class="cls-1" points="170.3 222.3 181.59 252.95 215.32 299.87 227.32 307.12 250.06 307.12 265.71 299.26 298.66 246.22 326.73 194.6 296.07 212.15 271.46 198.2 270.89 155.85 248.64 134.46 225.96 147.84 212 189.92 186.28 214.37 168.88 198.58 170.3 222.3"/><path class="cls-2" d="M185.59,244.45l5.59,2.81s.23-24.79,7.39-43.13l-12.29,10.24-10.14-9.26C173.58,224.8,185.59,244.45,185.59,244.45Z"/><path class="cls-8" d="M191.18,247.26l20.83,12,14.67-19.84H255l15.17,21.84,18.07-12.21,3.76-2.46s1.27-61.22-38.81-79.94a28.45,28.45,0,0,0-23.51-.36C190.34,183.65,191.18,247.26,191.18,247.26Z"/><polygon class="cls-1" points="226.68 239.42 240.79 230.96 255.01 239.42 226.68 239.42"/><polygon class="cls-2" points="227.4 307.12 212.65 264.37 228.17 243.1 240.79 235.19 253.17 243.1 269.5 265.68 298.75 246.22 265.8 299.26 250.15 307.12 227.4 307.12"/><path class="cls-2" d="M286.32,209.08a116.31,116.31,0,0,1,4.78,22.85l4.76-17.86Z"/><polygon class="cls-1" points="354.57 222.26 365.86 252.91 399.58 299.82 411.58 307.07 434.33 307.07 449.98 299.22 482.93 246.18 510.99 194.56 480.33 212.11 455.73 198.16 455.16 155.81 432.91 134.42 410.23 147.79 396.26 189.88 370.55 214.33 353.14 198.54 354.57 222.26"/><path class="cls-2" d="M369.86,244.41l5.59,2.81s.22-24.79,7.39-43.13l-12.29,10.24-10.15-9.27C357.85,224.76,369.86,244.41,369.86,244.41Z"/><path class="cls-9" d="M375.45,247.22l20.83,12L411,239.38h28.33l15.17,21.84L472.51,249l3.77-2.46s1.27-61.22-38.81-79.94a28.45,28.45,0,0,0-23.51-.36C374.61,183.61,375.45,247.22,375.45,247.22Z"/><polygon class="cls-1" points="410.95 239.38 425.06 230.92 439.28 239.38 410.95 239.38"/><polygon class="cls-2" points="411.67 307.07 396.92 264.32 412.44 243.06 425.06 235.15 437.44 243.06 453.76 265.63 483.01 246.18 450.06 299.22 434.42 307.07 411.67 307.07"/><path class="cls-2" d="M470.59,209a117.21,117.21,0,0,1,4.78,22.85L480.13,214Z"/><polygon class="cls-1" points="254.63 266.99 265.92 297.64 299.64 344.56 311.64 351.81 334.39 351.81 350.04 343.95 382.99 290.91 411.05 239.29 380.39 256.84 355.79 242.89 355.22 200.54 332.97 179.15 310.29 192.53 296.32 234.61 270.61 259.06 253.2 243.27 254.63 266.99"/><path class="cls-2" d="M269.92,289.14l5.59,2.81s.22-24.79,7.39-43.13l-12.29,10.25-10.15-9.27C257.91,269.49,269.92,289.14,269.92,289.14Z"/><path class="cls-10" d="M275.51,292l20.83,12L311,284.11h28.33L354.51,306l18.07-12.21,3.76-2.46s1.27-61.22-38.81-79.94A28.45,28.45,0,0,0,314,211C274.67,228.35,275.51,292,275.51,292Z"/><polygon class="cls-1" points="311.01 284.11 325.12 275.65 339.34 284.11 311.01 284.11"/><polygon class="cls-2" points="311.73 351.81 296.98 309.06 312.5 287.79 325.12 279.88 337.5 287.79 353.82 310.37 383.07 290.91 350.13 343.95 334.48 351.81 311.73 351.81"/><path class="cls-2" d="M370.65,253.77a116.54,116.54,0,0,1,4.78,22.85l4.76-17.86Z"/><polygon class="cls-1" points="811.15 132.57 822.44 163.22 856.16 210.14 868.16 217.39 890.91 217.39 906.56 209.53 939.51 156.49 967.57 104.88 936.91 122.42 912.31 108.47 911.74 66.12 889.49 44.73 866.81 58.11 852.84 100.2 827.13 124.65 809.72 108.85 811.15 132.57"/><path class="cls-2" d="M826.44,154.72l5.59,2.81s.22-24.79,7.39-43.12l-12.29,10.24L817,115.38C814.43,135.07,826.44,154.72,826.44,154.72Z"/><path class="cls-11" d="M832,157.53l20.83,12,14.67-19.83h28.33L911,171.53l18.06-12.21,3.77-2.46S934.13,95.64,894,76.92a28.43,28.43,0,0,0-23.5-.36C831.19,93.93,832,157.53,832,157.53Z"/><polygon class="cls-1" points="867.53 149.7 881.64 141.23 895.86 149.7 867.53 149.7"/><polygon class="cls-2" points="868.25 217.39 853.5 174.64 869.01 153.37 881.64 145.46 894.01 153.37 910.34 175.95 939.59 156.49 906.64 209.53 891 217.39 868.25 217.39"/><path class="cls-2" d="M927.17,119.36a116.82,116.82,0,0,1,4.77,22.85l4.77-17.87Z"/><polygon class="cls-1" points="895.66 177.53 906.95 208.17 940.67 255.09 952.67 262.34 975.42 262.34 991.07 254.49 1024.02 201.44 1052.08 149.83 1021.42 167.38 996.81 153.43 996.25 111.07 974 89.69 951.31 103.06 937.35 145.15 911.64 169.6 894.23 153.81 895.66 177.53"/><path class="cls-2" d="M910.94,199.67l5.6,2.81s.22-24.79,7.39-43.12L911.64,169.6l-10.15-9.27C898.94,180,910.94,199.67,910.94,199.67Z"/><path class="cls-12" d="M916.54,202.48l20.83,12L952,194.65h28.33l15.17,21.83,18.06-12.2,3.77-2.46s1.27-61.23-38.82-79.95a28.5,28.5,0,0,0-23.5-.36C915.7,138.88,916.54,202.48,916.54,202.48Z"/><polygon class="cls-1" points="952.04 194.65 966.15 186.18 980.37 194.65 952.04 194.65"/><polygon class="cls-2" points="952.75 262.34 938 219.59 953.52 198.32 966.15 190.42 978.52 198.32 994.85 220.9 1024.1 201.44 991.15 254.49 975.5 262.34 952.75 262.34"/><path class="cls-2" d="M1011.68,164.31a116.82,116.82,0,0,1,4.77,22.85l4.77-17.87Z"/><polygon class="cls-1" points="711.21 177.31 722.5 207.95 756.22 254.87 768.22 262.12 790.97 262.12 806.62 254.26 839.57 201.22 867.63 149.61 836.97 167.15 812.37 153.21 811.8 110.85 789.55 89.47 766.87 102.84 752.9 144.93 727.19 169.38 709.78 153.59 711.21 177.31"/><path class="cls-2" d="M726.5,199.45l5.59,2.81s.22-24.79,7.39-43.12l-12.29,10.24L717,160.11C714.49,179.8,726.5,199.45,726.5,199.45Z"/><path class="cls-13" d="M732.09,202.26l20.83,12,14.67-19.83h28.33l15.17,21.83,18.06-12.21,3.77-2.46s1.27-61.22-38.81-79.94a28.49,28.49,0,0,0-23.51-.36C731.25,138.66,732.09,202.26,732.09,202.26Z"/><polygon class="cls-1" points="767.59 194.43 781.7 185.96 795.92 194.43 767.59 194.43"/><polygon class="cls-2" points="768.31 262.12 753.56 219.37 769.08 198.1 781.7 190.19 794.08 198.1 810.4 220.68 839.65 201.22 806.7 254.26 791.06 262.12 768.31 262.12"/><path class="cls-2" d="M827.23,164.09A116.82,116.82,0,0,1,832,186.94l4.77-17.87Z"/><polygon class="cls-1" points="795.72 222.26 807.01 252.9 840.73 299.82 852.73 307.07 875.48 307.07 891.13 299.22 924.08 246.18 952.14 194.56 921.48 212.11 896.88 198.16 896.31 155.81 874.06 134.42 851.38 147.79 837.41 189.88 811.7 214.33 794.29 198.54 795.72 222.26"/><path class="cls-2" d="M811,244.41l5.59,2.8s.22-24.79,7.39-43.12L811.7,214.33l-10.15-9.27C799,224.76,811,244.41,811,244.41Z"/><path class="cls-14" d="M816.6,247.21l20.83,12,14.67-19.83h28.33l15.17,21.83L913.66,249l3.77-2.46s1.27-61.23-38.82-80a28.47,28.47,0,0,0-23.5-.35C815.76,183.61,816.6,247.21,816.6,247.21Z"/><polygon class="cls-1" points="852.1 239.38 866.21 230.92 880.43 239.38 852.1 239.38"/><polygon class="cls-2" points="852.82 307.07 838.07 264.32 853.58 243.05 866.21 235.15 878.58 243.05 894.91 265.63 924.16 246.18 891.21 299.22 875.57 307.07 852.82 307.07"/><path class="cls-2" d="M911.74,209a116.82,116.82,0,0,1,4.77,22.85L921.28,214Z"/><polygon class="cls-1" points="1281.22 132.57 1292.51 163.22 1326.23 210.14 1338.23 217.39 1360.98 217.39 1376.63 209.53 1409.58 156.49 1437.64 104.88 1406.98 122.42 1382.38 108.47 1381.81 66.12 1359.56 44.73 1336.88 58.11 1322.92 100.2 1297.2 124.65 1279.79 108.85 1281.22 132.57"/><path class="cls-2" d="M1296.51,154.72l5.59,2.81s.22-24.79,7.39-43.12l-12.29,10.24-10.14-9.27C1284.5,135.07,1296.51,154.72,1296.51,154.72Z"/><path class="cls-15" d="M1302.1,157.53l20.83,12,14.67-19.83h28.33l15.17,21.83,18.07-12.21,3.76-2.46s1.27-61.22-38.81-79.94a28.45,28.45,0,0,0-23.51-.36C1301.26,93.93,1302.1,157.53,1302.1,157.53Z"/><polygon class="cls-1" points="1337.6 149.7 1351.71 141.23 1365.93 149.7 1337.6 149.7"/><polygon class="cls-2" points="1338.32 217.39 1323.57 174.64 1339.09 153.37 1351.71 145.46 1364.09 153.37 1380.42 175.95 1409.67 156.49 1376.72 209.53 1361.07 217.39 1338.32 217.39"/><path class="cls-2" d="M1397.24,119.36a116.31,116.31,0,0,1,4.78,22.85l4.76-17.87Z"/><polygon class="cls-1" points="1365.73 177.53 1377.02 208.17 1410.74 255.09 1422.74 262.34 1445.49 262.34 1461.14 254.49 1494.09 201.44 1522.15 149.83 1491.49 167.38 1466.89 153.43 1466.32 111.07 1444.07 89.69 1421.39 103.06 1407.42 145.15 1381.71 169.6 1364.3 153.81 1365.73 177.53"/><path class="cls-2" d="M1381,199.67l5.59,2.81s.22-24.79,7.39-43.12l-12.29,10.24-10.15-9.27C1369,180,1381,199.67,1381,199.67Z"/><path class="cls-16" d="M1386.61,202.48l20.83,12,14.67-19.83h28.33l15.17,21.83,18.06-12.2,3.77-2.46s1.27-61.23-38.81-79.95a28.53,28.53,0,0,0-23.51-.36C1385.77,138.88,1386.61,202.48,1386.61,202.48Z"/><polygon class="cls-1" points="1422.11 194.65 1436.22 186.18 1450.44 194.65 1422.11 194.65"/><polygon class="cls-2" points="1422.83 262.34 1408.08 219.59 1423.6 198.32 1436.22 190.42 1448.6 198.32 1464.92 220.9 1494.17 201.44 1461.22 254.49 1445.58 262.34 1422.83 262.34"/><path class="cls-2" d="M1481.75,164.31a117.21,117.21,0,0,1,4.78,22.85l4.76-17.87Z"/><polygon class="cls-1" points="1181.28 177.31 1192.57 207.95 1226.29 254.87 1238.29 262.12 1261.04 262.12 1276.69 254.26 1309.64 201.22 1337.7 149.61 1307.04 167.15 1282.44 153.21 1281.87 110.85 1259.62 89.47 1236.94 102.84 1222.98 144.93 1197.26 169.38 1179.85 153.59 1181.28 177.31"/><path class="cls-2" d="M1196.57,199.45l5.59,2.81s.22-24.79,7.39-43.12l-12.29,10.24-10.14-9.27C1184.56,179.8,1196.57,199.45,1196.57,199.45Z"/><path class="cls-17" d="M1202.16,202.26l20.83,12,14.67-19.83H1266l15.17,21.83,18.07-12.21,3.76-2.46s1.27-61.22-38.81-79.94a28.49,28.49,0,0,0-23.51-.36C1201.32,138.66,1202.16,202.26,1202.16,202.26Z"/><polygon class="cls-1" points="1237.66 194.43 1251.77 185.96 1265.99 194.43 1237.66 194.43"/><polygon class="cls-2" points="1238.38 262.12 1223.63 219.37 1239.15 198.1 1251.77 190.19 1264.15 198.1 1280.48 220.68 1309.73 201.22 1276.78 254.26 1261.13 262.12 1238.38 262.12"/><path class="cls-2" d="M1297.3,164.09a116.31,116.31,0,0,1,4.78,22.85l4.76-17.87Z"/><polygon class="cls-1" points="1265.79 222.26 1277.08 252.9 1310.8 299.82 1322.8 307.07 1345.55 307.07 1361.2 299.22 1394.15 246.18 1422.21 194.56 1391.55 212.11 1366.95 198.16 1366.38 155.81 1344.13 134.42 1321.45 147.79 1307.48 189.88 1281.77 214.33 1264.36 198.54 1265.79 222.26"/><path class="cls-2" d="M1281.08,244.41l5.59,2.8s.22-24.79,7.39-43.12l-12.29,10.24-10.15-9.27C1269.07,224.76,1281.08,244.41,1281.08,244.41Z"/><path class="cls-18" d="M1286.67,247.21l20.83,12,14.67-19.83h28.33l15.17,21.83,18.06-12.2,3.77-2.46s1.27-61.23-38.81-80a28.49,28.49,0,0,0-23.51-.35C1285.83,183.61,1286.67,247.21,1286.67,247.21Z"/><polygon class="cls-1" points="1322.17 239.38 1336.28 230.92 1350.5 239.38 1322.17 239.38"/><polygon class="cls-2" points="1322.89 307.07 1308.14 264.32 1323.65 243.05 1336.28 235.15 1348.65 243.05 1364.98 265.63 1394.23 246.18 1361.29 299.22 1345.64 307.07 1322.89 307.07"/><path class="cls-2" d="M1381.81,209a117.21,117.21,0,0,1,4.78,22.85l4.76-17.86Z"/><path class="cls-19" d="M1127.31,168.17h-7.83v-7.84a3.59,3.59,0,0,0-7.17,0v7.84h-7.83a3.58,3.58,0,1,0,0,7.16h7.83v7.84a3.59,3.59,0,0,0,7.17,0v-7.84h7.83a3.58,3.58,0,1,0,0-7.16Z"/><rect class="cls-19" x="588.34" y="164.03" width="34" height="4.84" rx="2.42" ry="2.42"/><rect class="cls-19" x="588.34" y="174.19" width="34" height="4.84" rx="2.42" ry="2.42"/></g></svg>