<svg xmlns="http://www.w3.org/2000/svg" xmlns:xlink="http://www.w3.org/1999/xlink" viewBox="0 0 841.47 262.34"><defs><style>.cls-1{fill:#62abbc;}.cls-2{fill:#3d838e;opacity:0.51;}.cls-3{fill:url(#linear-gradient);}.cls-4{fill:url(#linear-gradient-2);}.cls-5{fill:url(#linear-gradient-3);}.cls-6{fill:url(#linear-gradient-4);}.cls-7{fill:url(#linear-gradient-5);}.cls-8{fill:url(#linear-gradient-6);}.cls-9{fill:url(#linear-gradient-7);}.cls-10{fill:url(#linear-gradient-8);}.cls-11{fill:#f05023;}</style><linearGradient id="linear-gradient" x1="122.24" y1="78.13" x2="223.08" y2="78.13" gradientUnits="userSpaceOnUse"><stop offset="0" stop-color="#fbb040"/><stop offset="0.39" stop-color="#f9ae41"/><stop offset="0.59" stop-color="#f1a845"/><stop offset="0.74" stop-color="#e49e4b"/><stop offset="0.87" stop-color="#d18f55"/><stop offset="0.99" stop-color="#b97c60"/><stop offset="1" stop-color="#b67a62"/></linearGradient><linearGradient id="linear-gradient-2" x1="206.75" y1="123.08" x2="307.59" y2="123.08" xlink:href="#linear-gradient"/><linearGradient id="linear-gradient-3" x1="22.3" y1="122.86" x2="123.14" y2="122.86" xlink:href="#linear-gradient"/><linearGradient id="linear-gradient-4" x1="106.81" y1="167.81" x2="207.65" y2="167.81" xlink:href="#linear-gradient"/><linearGradient id="linear-gradient-5" x1="621.42" y1="78.13" x2="722.26" y2="78.13" xlink:href="#linear-gradient"/><linearGradient id="linear-gradient-6" x1="705.93" y1="123.08" x2="806.77" y2="123.08" xlink:href="#linear-gradient"/><linearGradient id="linear-gradient-7" x1="521.48" y1="122.86" x2="622.32" y2="122.86" xlink:href="#linear-gradient"/><linearGradient id="linear-gradient-8" x1="605.99" y1="167.81" x2="706.83" y2="167.81" xlink:href="#linear-gradient"/></defs><title>V4_R1</title><g id="Layer_2" data-name="Layer 2"><polygon class="cls-1" points="101.37 87.84 112.66 118.49 146.38 165.4 158.38 172.65 181.13 172.65 196.78 164.8 229.73 111.76 257.79 60.14 227.13 77.69 202.52 63.74 201.95 21.39 179.7 0 157.02 13.37 143.06 55.46 117.35 79.91 99.94 64.12 101.37 87.84"/><path class="cls-2" d="M116.65,110l5.59,2.81s.23-24.79,7.4-43.13L117.35,79.91,107.2,70.64C104.65,90.34,116.65,110,116.65,110Z"/><path class="cls-3" d="M122.24,112.8l20.84,12L157.74,105h28.34l15.16,21.84,18.07-12.21,3.77-2.46s1.26-61.22-38.82-79.94a28.43,28.43,0,0,0-23.5-.36C121.41,49.19,122.24,112.8,122.24,112.8Z"/><polygon class="cls-1" points="157.75 104.96 171.86 96.5 186.08 104.96 157.75 104.96"/><polygon class="cls-2" points="158.46 172.65 143.71 129.9 159.23 108.64 171.86 100.73 184.23 108.64 200.56 131.22 229.81 111.76 196.86 164.8 181.21 172.65 158.46 172.65"/><path class="cls-2" d="M217.39,74.62a116.82,116.82,0,0,1,4.77,22.85l4.77-17.86Z"/><polygon class="cls-1" points="185.88 132.79 197.16 163.44 230.89 210.36 242.89 217.61 265.64 217.61 281.29 209.75 314.24 156.71 342.3 105.1 311.64 122.64 287.03 108.69 286.46 66.34 264.21 44.95 241.53 58.33 227.57 100.42 201.86 124.87 184.45 109.07 185.88 132.79"/><path class="cls-2" d="M201.16,154.94l5.59,2.81s.23-24.79,7.4-43.12l-12.29,10.24-10.15-9.27C189.15,135.29,201.16,154.94,201.16,154.94Z"/><path class="cls-4" d="M206.75,157.75l20.84,12,14.66-19.83h28.34l15.16,21.83,18.07-12.21,3.77-2.46s1.26-61.22-38.82-79.94a28.43,28.43,0,0,0-23.5-.36C205.91,94.15,206.75,157.75,206.75,157.75Z"/><polygon class="cls-1" points="242.25 149.92 256.37 141.45 270.59 149.92 242.25 149.92"/><polygon class="cls-2" points="242.97 217.61 228.22 174.86 243.74 153.59 256.37 145.68 268.74 153.59 285.07 176.17 314.32 156.71 281.37 209.75 265.72 217.61 242.97 217.61"/><path class="cls-2" d="M301.9,119.58a116.82,116.82,0,0,1,4.77,22.85l4.77-17.87Z"/><polygon class="cls-1" points="1.43 132.57 12.72 163.22 46.44 210.14 58.44 217.39 81.19 217.39 96.84 209.53 129.79 156.49 157.85 104.87 127.19 122.42 102.58 108.47 102.01 66.12 79.76 44.73 57.08 58.1 43.12 100.19 17.41 124.64 0 108.85 1.43 132.57"/><path class="cls-2" d="M16.71,154.72l5.59,2.81s.23-24.79,7.4-43.13L17.41,124.64,7.26,115.38C4.71,135.07,16.71,154.72,16.71,154.72Z"/><path class="cls-5" d="M22.3,157.53l20.84,12L57.8,149.69H86.14l15.16,21.84,18.07-12.21,3.77-2.46s1.26-61.22-38.82-79.94a28.43,28.43,0,0,0-23.5-.36C21.47,93.92,22.3,157.53,22.3,157.53Z"/><polygon class="cls-1" points="57.8 149.69 71.92 141.23 86.14 149.69 57.8 149.69"/><polygon class="cls-2" points="58.52 217.39 43.77 174.64 59.29 153.37 71.92 145.46 84.29 153.37 100.62 175.95 129.87 156.49 96.92 209.53 81.27 217.39 58.52 217.39"/><path class="cls-2" d="M117.45,119.35a117,117,0,0,1,4.77,22.85L127,124.34Z"/><polygon class="cls-1" points="85.94 177.53 97.22 208.17 130.95 255.09 142.95 262.34 165.7 262.34 181.35 254.48 214.3 201.44 242.36 149.83 211.7 167.37 187.09 153.43 186.52 111.07 164.27 89.69 141.59 103.06 127.63 145.15 101.92 169.6 84.51 153.81 85.94 177.53"/><path class="cls-2" d="M101.22,199.67l5.59,2.81s.23-24.79,7.4-43.12L101.92,169.6l-10.15-9.27C89.21,180,101.22,199.67,101.22,199.67Z"/><path class="cls-6" d="M106.81,202.48l20.84,12,14.66-19.83h28.34l15.16,21.83,18.07-12.21,3.77-2.46s1.26-61.22-38.82-79.94a28.43,28.43,0,0,0-23.5-.36C106,138.88,106.81,202.48,106.81,202.48Z"/><polygon class="cls-1" points="142.31 194.65 156.43 186.18 170.65 194.65 142.31 194.65"/><polygon class="cls-2" points="143.03 262.34 128.28 219.59 143.8 198.32 156.43 190.41 168.8 198.32 185.13 220.9 214.38 201.44 181.43 254.48 165.78 262.34 143.03 262.34"/><path class="cls-2" d="M202,164.31a116.82,116.82,0,0,1,4.77,22.85l4.77-17.87Z"/><polygon class="cls-1" points="600.54 87.84 611.83 118.49 645.55 165.4 657.55 172.65 680.3 172.65 695.95 164.8 728.9 111.76 756.96 60.14 726.3 77.69 701.7 63.74 701.13 21.39 678.88 0 656.2 13.37 642.24 55.46 616.52 79.91 599.11 64.12 600.54 87.84"/><path class="cls-2" d="M615.83,110l5.59,2.81s.22-24.79,7.39-43.13L616.52,79.91l-10.14-9.27C603.82,90.34,615.83,110,615.83,110Z"/><path class="cls-7" d="M621.42,112.8l20.83,12L656.92,105h28.33l15.17,21.84,18.07-12.21,3.76-2.46s1.27-61.22-38.81-79.94a28.45,28.45,0,0,0-23.51-.36C620.58,49.19,621.42,112.8,621.42,112.8Z"/><polygon class="cls-1" points="656.92 104.96 671.03 96.5 685.25 104.96 656.92 104.96"/><polygon class="cls-2" points="657.64 172.65 642.89 129.9 658.41 108.64 671.03 100.73 683.41 108.64 699.74 131.22 728.99 111.76 696.04 164.8 680.39 172.65 657.64 172.65"/><path class="cls-2" d="M716.56,74.62a116.31,116.31,0,0,1,4.78,22.85l4.76-17.86Z"/><polygon class="cls-1" points="685.05 132.79 696.34 163.44 730.06 210.36 742.06 217.61 764.81 217.61 780.46 209.75 813.41 156.71 841.47 105.1 810.81 122.64 786.21 108.69 785.64 66.34 763.39 44.95 740.71 58.33 726.75 100.42 701.03 124.87 683.62 109.07 685.05 132.79"/><path class="cls-2" d="M700.34,154.94l5.59,2.81s.22-24.79,7.39-43.12L701,124.87l-10.15-9.27C688.33,135.29,700.34,154.94,700.34,154.94Z"/><path class="cls-8" d="M705.93,157.75l20.83,12,14.67-19.83h28.33l15.17,21.83L803,159.54l3.77-2.46S808,95.86,768,77.14a28.45,28.45,0,0,0-23.51-.36C705.09,94.15,705.93,157.75,705.93,157.75Z"/><polygon class="cls-1" points="741.43 149.92 755.54 141.45 769.76 149.92 741.43 149.92"/><polygon class="cls-2" points="742.15 217.61 727.4 174.86 742.91 153.59 755.54 145.68 767.91 153.59 784.25 176.17 813.5 156.71 780.54 209.75 764.9 217.61 742.15 217.61"/><path class="cls-2" d="M801.07,119.58a117.21,117.21,0,0,1,4.78,22.85l4.76-17.87Z"/><polygon class="cls-1" points="500.6 132.57 511.89 163.22 545.62 210.14 557.62 217.39 580.37 217.39 596.01 209.53 628.96 156.49 657.02 104.87 626.37 122.42 601.76 108.47 601.19 66.12 578.94 44.73 556.26 58.1 542.3 100.19 516.58 124.64 499.17 108.85 500.6 132.57"/><path class="cls-2" d="M515.89,154.72l5.59,2.81s.22-24.79,7.39-43.13l-12.29,10.24-10.14-9.26C503.88,135.07,515.89,154.72,515.89,154.72Z"/><path class="cls-9" d="M521.48,157.53l20.83,12L557,149.69h28.33l15.17,21.84,18.07-12.21,3.76-2.46s1.27-61.22-38.81-79.94A28.45,28.45,0,0,0,560,76.56C520.64,93.92,521.48,157.53,521.48,157.53Z"/><polygon class="cls-1" points="556.98 149.69 571.09 141.23 585.31 149.69 556.98 149.69"/><polygon class="cls-2" points="557.7 217.39 542.95 174.64 558.47 153.37 571.09 145.46 583.47 153.37 599.8 175.95 629.05 156.49 596.1 209.53 580.45 217.39 557.7 217.39"/><path class="cls-2" d="M616.62,119.35a116.54,116.54,0,0,1,4.78,22.85l4.76-17.86Z"/><polygon class="cls-1" points="585.11 177.53 596.4 208.17 630.12 255.09 642.12 262.34 664.87 262.34 680.52 254.48 713.47 201.44 741.53 149.83 710.87 167.37 686.27 153.43 685.7 111.07 663.45 89.69 640.77 103.06 626.8 145.15 601.09 169.6 583.68 153.81 585.11 177.53"/><path class="cls-2" d="M600.4,199.67l5.59,2.81s.22-24.79,7.39-43.12L601.09,169.6l-10.15-9.27C588.39,180,600.4,199.67,600.4,199.67Z"/><path class="cls-10" d="M606,202.48l20.83,12,14.67-19.83h28.33L685,216.48l18.07-12.21,3.76-2.46s1.27-61.22-38.81-79.94a28.45,28.45,0,0,0-23.51-.36C605.15,138.88,606,202.48,606,202.48Z"/><polygon class="cls-1" points="641.49 194.65 655.6 186.18 669.82 194.65 641.49 194.65"/><polygon class="cls-2" points="642.21 262.34 627.46 219.59 642.98 198.32 655.6 190.41 667.98 198.32 684.3 220.9 713.55 201.44 680.61 254.48 664.96 262.34 642.21 262.34"/><path class="cls-2" d="M701.13,164.31a116.31,116.31,0,0,1,4.78,22.85l4.76-17.87Z"/><path class="cls-11" d="M425.34,110.13H417.5v-7.84a3.58,3.58,0,1,0-7.16,0v7.84H402.5a3.58,3.58,0,1,0,0,7.16h7.84v7.84a3.58,3.58,0,1,0,7.16,0v-7.84h7.84a3.58,3.58,0,1,0,0-7.16Z"/></g></svg>