<svg xmlns="http://www.w3.org/2000/svg" xmlns:xlink="http://www.w3.org/1999/xlink" viewBox="0 0 665.41 217.39"><defs><style>.cls-1{fill:#62abbc;}.cls-2{fill:#3d838e;opacity:0.51;}.cls-3{fill:url(#linear-gradient);}.cls-4{fill:url(#linear-gradient-2);}.cls-5{fill:url(#linear-gradient-3);}.cls-6{fill:url(#linear-gradient-4);}.cls-7{fill:#f05023;}</style><linearGradient id="linear-gradient" x1="122.24" y1="78.13" x2="223.08" y2="78.13" gradientUnits="userSpaceOnUse"><stop offset="0" stop-color="#fbb040"/><stop offset="0.39" stop-color="#f9ae41"/><stop offset="0.59" stop-color="#f1a845"/><stop offset="0.74" stop-color="#e49e4b"/><stop offset="0.87" stop-color="#d18f55"/><stop offset="0.99" stop-color="#b97c60"/><stop offset="1" stop-color="#b67a62"/></linearGradient><linearGradient id="linear-gradient-2" x1="22.3" y1="122.86" x2="123.14" y2="122.86" xlink:href="#linear-gradient"/><linearGradient id="linear-gradient-3" x1="529.87" y1="78.13" x2="630.71" y2="78.13" xlink:href="#linear-gradient"/><linearGradient id="linear-gradient-4" x1="429.93" y1="122.86" x2="530.77" y2="122.86" xlink:href="#linear-gradient"/></defs><title>V4_R3</title><g id="Layer_2" data-name="Layer 2"><polygon class="cls-1" points="101.37 87.84 112.66 118.49 146.38 165.4 158.38 172.65 181.13 172.65 196.78 164.8 229.73 111.76 257.79 60.14 227.13 77.69 202.52 63.74 201.95 21.39 179.7 0 157.02 13.37 143.06 55.46 117.35 79.91 99.94 64.12 101.37 87.84"/><path class="cls-2" d="M116.65,110l5.59,2.81s.23-24.79,7.4-43.13L117.35,79.91,107.2,70.64C104.65,90.34,116.65,110,116.65,110Z"/><path class="cls-3" d="M122.24,112.8l20.84,12L157.74,105h28.34l15.16,21.84,18.07-12.21,3.77-2.46s1.26-61.22-38.82-79.94a28.43,28.43,0,0,0-23.5-.36C121.41,49.19,122.24,112.8,122.24,112.8Z"/><polygon class="cls-1" points="157.75 104.96 171.86 96.5 186.08 104.96 157.75 104.96"/><polygon class="cls-2" points="158.46 172.65 143.71 129.9 159.23 108.64 171.86 100.73 184.23 108.64 200.56 131.22 229.81 111.76 196.86 164.8 181.21 172.65 158.46 172.65"/><path class="cls-2" d="M217.39,74.62a116.82,116.82,0,0,1,4.77,22.85l4.77-17.86Z"/><polygon class="cls-1" points="1.43 132.57 12.72 163.22 46.44 210.14 58.44 217.39 81.19 217.39 96.84 209.53 129.79 156.49 157.85 104.87 127.19 122.42 102.58 108.47 102.01 66.12 79.76 44.73 57.08 58.1 43.12 100.19 17.41 124.64 0 108.85 1.43 132.57"/><path class="cls-2" d="M16.71,154.72l5.59,2.81s.23-24.79,7.4-43.13L17.41,124.64,7.26,115.38C4.71,135.07,16.71,154.72,16.71,154.72Z"/><path class="cls-4" d="M22.3,157.53l20.84,12L57.8,149.69H86.14l15.16,21.84,18.07-12.21,3.77-2.46s1.26-61.22-38.82-79.94a28.43,28.43,0,0,0-23.5-.36C21.47,93.92,22.3,157.53,22.3,157.53Z"/><polygon class="cls-1" points="57.8 149.69 71.92 141.23 86.14 149.69 57.8 149.69"/><polygon class="cls-2" points="58.52 217.39 43.77 174.64 59.29 153.37 71.92 145.46 84.29 153.37 100.62 175.95 129.87 156.49 96.92 209.53 81.27 217.39 58.52 217.39"/><path class="cls-2" d="M117.45,119.35a117,117,0,0,1,4.77,22.85L127,124.34Z"/><polygon class="cls-1" points="508.99 87.84 520.28 118.49 554 165.4 566 172.65 588.75 172.65 604.4 164.8 637.35 111.76 665.41 60.14 634.75 77.69 610.15 63.74 609.58 21.39 587.33 0 564.65 13.37 550.68 55.46 524.97 79.91 507.56 64.12 508.99 87.84"/><path class="cls-2" d="M524.28,110l5.59,2.81s.22-24.79,7.39-43.13L525,79.91l-10.15-9.27C512.27,90.34,524.28,110,524.28,110Z"/><path class="cls-5" d="M529.87,112.8l20.83,12L565.37,105H593.7l15.17,21.84,18.06-12.21,3.77-2.46S632,50.91,591.89,32.19a28.45,28.45,0,0,0-23.51-.36C529,49.19,529.87,112.8,529.87,112.8Z"/><polygon class="cls-1" points="565.37 104.96 579.48 96.5 593.7 104.96 565.37 104.96"/><polygon class="cls-2" points="566.09 172.65 551.34 129.9 566.86 108.64 579.48 100.73 591.86 108.64 608.18 131.22 637.43 111.76 604.49 164.8 588.84 172.65 566.09 172.65"/><path class="cls-2" d="M625,74.62a117.21,117.21,0,0,1,4.78,22.85l4.76-17.86Z"/><polygon class="cls-1" points="409.05 132.57 420.34 163.22 454.06 210.14 466.06 217.39 488.81 217.39 504.46 209.53 537.41 156.49 565.47 104.87 534.81 122.42 510.21 108.47 509.64 66.12 487.39 44.73 464.71 58.1 450.75 100.19 425.03 124.64 407.62 108.85 409.05 132.57"/><path class="cls-2" d="M424.34,154.72l5.59,2.81s.22-24.79,7.39-43.13L425,124.64l-10.15-9.26C412.33,135.07,424.34,154.72,424.34,154.72Z"/><path class="cls-6" d="M429.93,157.53l20.83,12,14.67-19.84h28.33l15.17,21.84L527,159.32l3.77-2.46S532,95.64,492,76.92a28.45,28.45,0,0,0-23.51-.36C429.09,93.92,429.93,157.53,429.93,157.53Z"/><polygon class="cls-1" points="465.43 149.69 479.54 141.23 493.76 149.69 465.43 149.69"/><polygon class="cls-2" points="466.15 217.39 451.4 174.64 466.92 153.37 479.54 145.46 491.92 153.37 508.25 175.95 537.5 156.49 504.55 209.53 488.9 217.39 466.15 217.39"/><path class="cls-2" d="M525.07,119.35a117.44,117.44,0,0,1,4.78,22.85l4.76-17.86Z"/><path class="cls-7" d="M343.54,110.13h-7.83v-7.84a3.59,3.59,0,0,0-7.17,0v7.84h-7.83a3.58,3.58,0,1,0,0,7.16h7.83v7.84a3.59,3.59,0,0,0,7.17,0v-7.84h7.83a3.58,3.58,0,1,0,0-7.16Z"/></g></svg>