<svg xmlns="http://www.w3.org/2000/svg" xmlns:xlink="http://www.w3.org/1999/xlink" viewBox="0 0 727.05 262.34"><defs><style>.cls-1{fill:#62abbc;}.cls-2{fill:#3d838e;opacity:0.51;}.cls-3{fill:url(#linear-gradient);}.cls-4{fill:url(#linear-gradient-2);}.cls-5{fill:url(#linear-gradient-3);}.cls-6{fill:url(#linear-gradient-4);}.cls-7{fill:url(#linear-gradient-5);}.cls-8{fill:url(#linear-gradient-6);}.cls-9{fill:#f05023;}</style><linearGradient id="linear-gradient" x1="122.24" y1="100.61" x2="223.08" y2="100.61" gradientUnits="userSpaceOnUse"><stop offset="0" stop-color="#fbb040"/><stop offset="0.39" stop-color="#f9ae41"/><stop offset="0.59" stop-color="#f1a845"/><stop offset="0.74" stop-color="#e49e4b"/><stop offset="0.87" stop-color="#d18f55"/><stop offset="0.99" stop-color="#b97c60"/><stop offset="1" stop-color="#b67a62"/></linearGradient><linearGradient id="linear-gradient-2" x1="22.3" y1="145.34" x2="123.14" y2="145.34" xlink:href="#linear-gradient"/><linearGradient id="linear-gradient-3" x1="507" y1="78.13" x2="607.84" y2="78.13" xlink:href="#linear-gradient"/><linearGradient id="linear-gradient-4" x1="591.51" y1="123.08" x2="692.34" y2="123.08" xlink:href="#linear-gradient"/><linearGradient id="linear-gradient-5" x1="407.06" y1="122.86" x2="507.9" y2="122.86" xlink:href="#linear-gradient"/><linearGradient id="linear-gradient-6" x1="491.57" y1="167.81" x2="592.41" y2="167.81" xlink:href="#linear-gradient"/></defs><title>V4_R2</title><g id="Layer_2" data-name="Layer 2"><polygon class="cls-1" points="101.37 110.32 112.66 140.96 146.38 187.88 158.38 195.13 181.13 195.13 196.78 187.28 229.73 134.23 257.79 82.62 227.13 100.17 202.52 86.22 201.95 43.86 179.7 22.48 157.02 35.85 143.06 77.94 117.35 102.39 99.94 86.6 101.37 110.32"/><path class="cls-2" d="M116.65,132.46l5.59,2.81s.23-24.79,7.4-43.12l-12.29,10.24L107.2,93.12C104.65,112.81,116.65,132.46,116.65,132.46Z"/><path class="cls-3" d="M122.24,135.27l20.84,12,14.66-19.83h28.34l15.16,21.83,18.07-12.2,3.77-2.46s1.26-61.23-38.82-80a28.5,28.5,0,0,0-23.5-.36C121.41,71.67,122.24,135.27,122.24,135.27Z"/><polygon class="cls-1" points="157.75 127.44 171.86 118.97 186.08 127.44 157.75 127.44"/><polygon class="cls-2" points="158.46 195.13 143.71 152.38 159.23 131.11 171.86 123.21 184.23 131.11 200.56 153.69 229.81 134.23 196.86 187.28 181.21 195.13 158.46 195.13"/><path class="cls-2" d="M217.39,97.1A116.82,116.82,0,0,1,222.16,120l4.77-17.87Z"/><polygon class="cls-1" points="1.43 155.05 12.72 185.69 46.44 232.61 58.44 239.86 81.19 239.86 96.84 232.01 129.79 178.97 157.85 127.35 127.19 144.9 102.58 130.95 102.01 88.6 79.76 67.21 57.08 80.58 43.12 122.67 17.41 147.12 0 131.33 1.43 155.05"/><path class="cls-2" d="M16.71,177.2,22.3,180s.23-24.79,7.4-43.12L17.41,147.12,7.26,137.85C4.71,157.55,16.71,177.2,16.71,177.2Z"/><path class="cls-4" d="M22.3,180l20.84,12L57.8,172.17H86.14L101.3,194l18.07-12.2,3.77-2.46s1.26-61.23-38.82-79.95A28.47,28.47,0,0,0,60.82,99C21.47,116.4,22.3,180,22.3,180Z"/><polygon class="cls-1" points="57.8 172.17 71.92 163.71 86.14 172.17 57.8 172.17"/><polygon class="cls-2" points="58.52 239.86 43.77 197.11 59.29 175.84 71.92 167.94 84.29 175.84 100.62 198.42 129.87 178.97 96.92 232.01 81.27 239.86 58.52 239.86"/><path class="cls-2" d="M117.45,141.83a116.82,116.82,0,0,1,4.77,22.85L127,146.82Z"/><polygon class="cls-1" points="486.12 87.84 497.41 118.49 531.13 165.4 543.13 172.65 565.88 172.65 581.53 164.8 614.48 111.76 642.54 60.14 611.88 77.69 587.28 63.74 586.71 21.39 564.46 0 541.78 13.37 527.82 55.46 502.1 79.91 484.69 64.12 486.12 87.84"/><path class="cls-2" d="M501.41,110,507,112.8s.22-24.79,7.39-43.13L502.1,79.91,492,70.64C489.4,90.34,501.41,110,501.41,110Z"/><path class="cls-5" d="M507,112.8l20.83,12L542.5,105h28.33L586,126.8l18.07-12.21,3.76-2.46S609.1,50.91,569,32.19a28.45,28.45,0,0,0-23.51-.36C506.16,49.19,507,112.8,507,112.8Z"/><polygon class="cls-1" points="542.5 104.96 556.61 96.5 570.83 104.96 542.5 104.96"/><polygon class="cls-2" points="543.22 172.65 528.47 129.9 543.99 108.64 556.61 100.73 568.99 108.64 585.32 131.22 614.57 111.76 581.62 164.8 565.97 172.65 543.22 172.65"/><path class="cls-2" d="M602.14,74.62a116.31,116.31,0,0,1,4.78,22.85l4.76-17.86Z"/><polygon class="cls-1" points="570.63 132.79 581.92 163.44 615.64 210.36 627.64 217.61 650.39 217.61 666.04 209.75 698.99 156.71 727.05 105.1 696.39 122.64 671.78 108.69 671.22 66.34 648.97 44.95 626.28 58.33 612.32 100.42 586.61 124.87 569.2 109.07 570.63 132.79"/><path class="cls-2" d="M585.92,154.94l5.59,2.81s.22-24.79,7.39-43.12l-12.29,10.24-10.15-9.27C573.91,135.29,585.92,154.94,585.92,154.94Z"/><path class="cls-6" d="M591.51,157.75l20.83,12L627,149.92h28.33l15.17,21.83,18.06-12.21,3.77-2.46s1.27-61.22-38.82-79.94a28.43,28.43,0,0,0-23.5-.36C590.67,94.15,591.51,157.75,591.51,157.75Z"/><polygon class="cls-1" points="627.01 149.92 641.12 141.45 655.34 149.92 627.01 149.92"/><polygon class="cls-2" points="627.73 217.61 612.98 174.86 628.49 153.59 641.12 145.68 653.49 153.59 669.82 176.17 699.07 156.71 666.12 209.75 650.48 217.61 627.73 217.61"/><path class="cls-2" d="M686.65,119.58a116.82,116.82,0,0,1,4.77,22.85l4.77-17.87Z"/><polygon class="cls-1" points="386.18 132.57 397.47 163.22 431.19 210.14 443.19 217.39 465.94 217.39 481.59 209.53 514.54 156.49 542.6 104.87 511.94 122.42 487.34 108.47 486.77 66.12 464.52 44.73 441.84 58.1 427.88 100.19 402.16 124.64 384.75 108.85 386.18 132.57"/><path class="cls-2" d="M401.47,154.72l5.59,2.81s.22-24.79,7.39-43.13l-12.29,10.24L392,115.38C389.46,135.07,401.47,154.72,401.47,154.72Z"/><path class="cls-7" d="M407.06,157.53l20.83,12,14.67-19.84h28.33l15.17,21.84,18.07-12.21,3.76-2.46s1.27-61.22-38.81-79.94a28.45,28.45,0,0,0-23.51-.36C406.22,93.92,407.06,157.53,407.06,157.53Z"/><polygon class="cls-1" points="442.56 149.69 456.67 141.23 470.89 149.69 442.56 149.69"/><polygon class="cls-2" points="443.28 217.39 428.53 174.64 444.05 153.37 456.67 145.46 469.05 153.37 485.38 175.95 514.63 156.49 481.68 209.53 466.03 217.39 443.28 217.39"/><path class="cls-2" d="M502.2,119.35A116.54,116.54,0,0,1,507,142.2l4.76-17.86Z"/><polygon class="cls-1" points="470.69 177.53 481.98 208.17 515.7 255.09 527.7 262.34 550.45 262.34 566.1 254.48 599.05 201.44 627.11 149.83 596.45 167.37 571.85 153.43 571.28 111.07 549.03 89.69 526.35 103.06 512.38 145.15 486.67 169.6 469.26 153.81 470.69 177.53"/><path class="cls-2" d="M486,199.67l5.59,2.81s.22-24.79,7.39-43.12L486.67,169.6l-10.15-9.27C474,180,486,199.67,486,199.67Z"/><path class="cls-8" d="M491.57,202.48l20.83,12,14.67-19.83H555.4l15.17,21.83,18.06-12.21,3.77-2.46s1.27-61.22-38.82-79.94a28.43,28.43,0,0,0-23.5-.36C490.73,138.88,491.57,202.48,491.57,202.48Z"/><polygon class="cls-1" points="527.07 194.65 541.18 186.18 555.4 194.65 527.07 194.65"/><polygon class="cls-2" points="527.79 262.34 513.04 219.59 528.55 198.32 541.18 190.41 553.55 198.32 569.88 220.9 599.13 201.44 566.18 254.48 550.54 262.34 527.79 262.34"/><path class="cls-2" d="M586.71,164.31a116.82,116.82,0,0,1,4.77,22.85l4.77-17.87Z"/><path class="cls-9" d="M332.36,110.13h-7.84v-7.84a3.58,3.58,0,0,0-7.16,0v7.84h-7.84a3.58,3.58,0,1,0,0,7.16h7.84v7.84a3.58,3.58,0,0,0,7.16,0v-7.84h7.84a3.58,3.58,0,0,0,0-7.16Z"/></g></svg>