<svg xmlns="http://www.w3.org/2000/svg" xmlns:xlink="http://www.w3.org/1999/xlink" viewBox="0 0 2857.74 664.88"><defs><style>.cls-1{fill:#62abbc;}.cls-2{fill:#3d838e;opacity:0.51;}.cls-3{fill:url(#linear-gradient);}.cls-4{fill:url(#linear-gradient-2);}.cls-5{fill:url(#linear-gradient-3);}.cls-6{fill:url(#linear-gradient-4);}.cls-7{fill:url(#linear-gradient-5);}.cls-8{fill:url(#linear-gradient-6);}.cls-9{fill:url(#linear-gradient-7);}.cls-10{fill:url(#linear-gradient-8);}.cls-11{fill:url(#linear-gradient-9);}.cls-12{fill:url(#linear-gradient-10);}.cls-13{fill:url(#linear-gradient-11);}.cls-14{fill:url(#linear-gradient-12);}.cls-15{fill:url(#linear-gradient-13);}.cls-16{fill:url(#linear-gradient-14);}.cls-17{fill:url(#linear-gradient-15);}.cls-18{fill:url(#linear-gradient-16);}.cls-19{fill:url(#linear-gradient-17);}.cls-20{fill:url(#linear-gradient-18);}.cls-21{fill:url(#linear-gradient-19);}.cls-22{fill:url(#linear-gradient-20);}.cls-23{fill:url(#linear-gradient-21);}.cls-24{fill:url(#linear-gradient-22);}.cls-25{fill:url(#linear-gradient-23);}.cls-26{fill:url(#linear-gradient-24);}.cls-27{fill:url(#linear-gradient-25);}.cls-28{fill:url(#linear-gradient-26);}.cls-29{fill:url(#linear-gradient-27);}.cls-30{fill:url(#linear-gradient-28);}.cls-31{fill:url(#linear-gradient-29);}.cls-32{fill:url(#linear-gradient-30);}.cls-33{fill:url(#linear-gradient-31);}.cls-34{fill:url(#linear-gradient-32);}.cls-35{fill:url(#linear-gradient-33);}.cls-36{fill:url(#linear-gradient-34);}.cls-37{fill:url(#linear-gradient-35);}.cls-38{fill:url(#linear-gradient-36);}.cls-39{fill:url(#linear-gradient-37);}.cls-40{fill:url(#linear-gradient-38);}.cls-41{fill:url(#linear-gradient-39);}.cls-42{fill:url(#linear-gradient-40);}.cls-43{fill:url(#linear-gradient-41);}.cls-44{fill:url(#linear-gradient-42);}.cls-45{fill:url(#linear-gradient-43);}.cls-46{fill:url(#linear-gradient-44);}.cls-47{fill:url(#linear-gradient-45);}.cls-48{fill:url(#linear-gradient-46);}.cls-49{fill:url(#linear-gradient-47);}.cls-50{fill:url(#linear-gradient-48);}.cls-51{fill:url(#linear-gradient-49);}.cls-52{fill:url(#linear-gradient-50);}.cls-53{fill:url(#linear-gradient-51);}.cls-54{fill:url(#linear-gradient-52);}.cls-55{fill:url(#linear-gradient-53);}.cls-56{fill:url(#linear-gradient-54);}.cls-57{fill:url(#linear-gradient-55);}.cls-58{fill:url(#linear-gradient-56);}.cls-59{fill:url(#linear-gradient-57);}.cls-60{fill:url(#linear-gradient-58);}.cls-61{fill:url(#linear-gradient-59);}.cls-62{fill:url(#linear-gradient-60);}.cls-63{fill:url(#linear-gradient-61);}.cls-64{fill:url(#linear-gradient-62);}.cls-65{fill:url(#linear-gradient-63);}.cls-66{fill:url(#linear-gradient-64);}.cls-67{fill:url(#linear-gradient-65);}.cls-68{fill:url(#linear-gradient-66);}.cls-69{fill:url(#linear-gradient-67);}.cls-70{fill:url(#linear-gradient-68);}.cls-71{fill:url(#linear-gradient-69);}.cls-72{fill:url(#linear-gradient-70);}.cls-73{fill:url(#linear-gradient-71);}.cls-74{fill:url(#linear-gradient-72);}.cls-75{fill:#f05023;}</style><linearGradient id="linear-gradient" x1="322.2" y1="78.13" x2="423.04" y2="78.13" gradientUnits="userSpaceOnUse"><stop offset="0" stop-color="#fbb040"/><stop offset="0.39" stop-color="#f9ae41"/><stop offset="0.59" stop-color="#f1a845"/><stop offset="0.74" stop-color="#e49e4b"/><stop offset="0.87" stop-color="#d18f55"/><stop offset="0.99" stop-color="#b97c60"/><stop offset="1" stop-color="#b67a62"/></linearGradient><linearGradient id="linear-gradient-2" x1="406.7" y1="123.08" x2="507.54" y2="123.08" xlink:href="#linear-gradient"/><linearGradient id="linear-gradient-3" x1="222.26" y1="122.86" x2="323.1" y2="122.86" xlink:href="#linear-gradient"/><linearGradient id="linear-gradient-4" x1="306.76" y1="167.81" x2="407.6" y2="167.81" xlink:href="#linear-gradient"/><linearGradient id="linear-gradient-5" x1="491.07" y1="167.86" x2="591.91" y2="167.86" xlink:href="#linear-gradient"/><linearGradient id="linear-gradient-6" x1="391.13" y1="212.59" x2="491.97" y2="212.59" xlink:href="#linear-gradient"/><linearGradient id="linear-gradient-7" x1="575.4" y1="212.55" x2="676.24" y2="212.55" xlink:href="#linear-gradient"/><linearGradient id="linear-gradient-8" x1="475.46" y1="257.28" x2="576.3" y2="257.28" xlink:href="#linear-gradient"/><linearGradient id="linear-gradient-9" x1="659.77" y1="257.33" x2="760.6" y2="257.33" xlink:href="#linear-gradient"/><linearGradient id="linear-gradient-10" x1="559.83" y1="302.06" x2="660.66" y2="302.06" xlink:href="#linear-gradient"/><linearGradient id="linear-gradient-11" x1="744.1" y1="301.9" x2="844.94" y2="301.9" xlink:href="#linear-gradient"/><linearGradient id="linear-gradient-12" x1="644.16" y1="346.63" x2="745" y2="346.63" xlink:href="#linear-gradient"/><linearGradient id="linear-gradient-13" x1="828.46" y1="346.68" x2="929.3" y2="346.68" xlink:href="#linear-gradient"/><linearGradient id="linear-gradient-14" x1="728.52" y1="391.41" x2="829.36" y2="391.41" xlink:href="#linear-gradient"/><linearGradient id="linear-gradient-15" x1="912.79" y1="391.37" x2="1013.63" y2="391.37" xlink:href="#linear-gradient"/><linearGradient id="linear-gradient-16" x1="812.85" y1="436.1" x2="913.69" y2="436.1" xlink:href="#linear-gradient"/><linearGradient id="linear-gradient-17" x1="997.16" y1="436.14" x2="1098" y2="436.14" xlink:href="#linear-gradient"/><linearGradient id="linear-gradient-18" x1="897.22" y1="480.87" x2="998.06" y2="480.87" xlink:href="#linear-gradient"/><linearGradient id="linear-gradient-19" x1="122.24" y1="167.61" x2="223.08" y2="167.61" xlink:href="#linear-gradient"/><linearGradient id="linear-gradient-20" x1="206.75" y1="212.57" x2="307.59" y2="212.57" xlink:href="#linear-gradient"/><linearGradient id="linear-gradient-21" x1="22.3" y1="212.34" x2="123.14" y2="212.34" xlink:href="#linear-gradient"/><linearGradient id="linear-gradient-22" x1="106.81" y1="257.3" x2="207.65" y2="257.3" xlink:href="#linear-gradient"/><linearGradient id="linear-gradient-23" x1="291.12" y1="257.34" x2="391.96" y2="257.34" xlink:href="#linear-gradient"/><linearGradient id="linear-gradient-24" x1="191.18" y1="302.07" x2="292.02" y2="302.07" xlink:href="#linear-gradient"/><linearGradient id="linear-gradient-25" x1="375.45" y1="302.03" x2="476.29" y2="302.03" xlink:href="#linear-gradient"/><linearGradient id="linear-gradient-26" x1="275.51" y1="346.76" x2="376.35" y2="346.76" xlink:href="#linear-gradient"/><linearGradient id="linear-gradient-27" x1="459.81" y1="346.81" x2="560.65" y2="346.81" xlink:href="#linear-gradient"/><linearGradient id="linear-gradient-28" x1="359.87" y1="391.54" x2="460.71" y2="391.54" xlink:href="#linear-gradient"/><linearGradient id="linear-gradient-29" x1="544.14" y1="391.38" x2="644.98" y2="391.38" xlink:href="#linear-gradient"/><linearGradient id="linear-gradient-30" x1="444.2" y1="436.11" x2="545.04" y2="436.11" xlink:href="#linear-gradient"/><linearGradient id="linear-gradient-31" x1="628.51" y1="436.16" x2="729.35" y2="436.16" xlink:href="#linear-gradient"/><linearGradient id="linear-gradient-32" x1="528.57" y1="480.89" x2="629.41" y2="480.89" xlink:href="#linear-gradient"/><linearGradient id="linear-gradient-33" x1="712.84" y1="480.85" x2="813.68" y2="480.85" xlink:href="#linear-gradient"/><linearGradient id="linear-gradient-34" x1="612.9" y1="525.58" x2="713.74" y2="525.58" xlink:href="#linear-gradient"/><linearGradient id="linear-gradient-35" x1="797.21" y1="525.63" x2="898.04" y2="525.63" xlink:href="#linear-gradient"/><linearGradient id="linear-gradient-36" x1="697.27" y1="570.36" x2="798.1" y2="570.36" xlink:href="#linear-gradient"/><linearGradient id="linear-gradient-37" x1="2468.99" y1="234.67" x2="2569.83" y2="234.67" xlink:href="#linear-gradient"/><linearGradient id="linear-gradient-38" x1="2553.5" y1="279.62" x2="2654.34" y2="279.62" xlink:href="#linear-gradient"/><linearGradient id="linear-gradient-39" x1="2369.05" y1="279.4" x2="2469.89" y2="279.4" xlink:href="#linear-gradient"/><linearGradient id="linear-gradient-40" x1="2453.56" y1="324.35" x2="2554.4" y2="324.35" xlink:href="#linear-gradient"/><linearGradient id="linear-gradient-41" x1="2637.87" y1="324.4" x2="2738.71" y2="324.4" xlink:href="#linear-gradient"/><linearGradient id="linear-gradient-42" x1="2537.93" y1="369.13" x2="2638.77" y2="369.13" xlink:href="#linear-gradient"/><linearGradient id="linear-gradient-43" x1="2722.2" y1="369.09" x2="2823.04" y2="369.09" xlink:href="#linear-gradient"/><linearGradient id="linear-gradient-44" x1="2622.26" y1="413.82" x2="2723.1" y2="413.82" xlink:href="#linear-gradient"/><linearGradient id="linear-gradient-45" x1="1578.31" y1="122.85" x2="1679.15" y2="122.85" xlink:href="#linear-gradient"/><linearGradient id="linear-gradient-46" x1="1662.82" y1="167.8" x2="1763.66" y2="167.8" xlink:href="#linear-gradient"/><linearGradient id="linear-gradient-47" x1="1478.37" y1="167.58" x2="1579.21" y2="167.58" xlink:href="#linear-gradient"/><linearGradient id="linear-gradient-48" x1="1562.88" y1="212.53" x2="1663.72" y2="212.53" xlink:href="#linear-gradient"/><linearGradient id="linear-gradient-49" x1="1747.18" y1="212.58" x2="1848.02" y2="212.58" xlink:href="#linear-gradient"/><linearGradient id="linear-gradient-50" x1="1647.24" y1="257.31" x2="1748.08" y2="257.31" xlink:href="#linear-gradient"/><linearGradient id="linear-gradient-51" x1="1831.51" y1="257.27" x2="1932.35" y2="257.27" xlink:href="#linear-gradient"/><linearGradient id="linear-gradient-52" x1="1731.57" y1="302" x2="1832.41" y2="302" xlink:href="#linear-gradient"/><linearGradient id="linear-gradient-53" x1="1915.88" y1="302.04" x2="2016.72" y2="302.04" xlink:href="#linear-gradient"/><linearGradient id="linear-gradient-54" x1="1815.94" y1="346.78" x2="1916.78" y2="346.78" xlink:href="#linear-gradient"/><linearGradient id="linear-gradient-55" x1="2000.21" y1="346.62" x2="2101.05" y2="346.62" xlink:href="#linear-gradient"/><linearGradient id="linear-gradient-56" x1="1900.27" y1="391.35" x2="2001.11" y2="391.35" xlink:href="#linear-gradient"/><linearGradient id="linear-gradient-57" x1="2084.58" y1="391.39" x2="2185.41" y2="391.39" xlink:href="#linear-gradient"/><linearGradient id="linear-gradient-58" x1="1984.64" y1="436.13" x2="2085.47" y2="436.13" xlink:href="#linear-gradient"/><linearGradient id="linear-gradient-59" x1="1378.36" y1="212.36" x2="1479.2" y2="212.36" xlink:href="#linear-gradient"/><linearGradient id="linear-gradient-60" x1="1462.87" y1="257.31" x2="1563.71" y2="257.31" xlink:href="#linear-gradient"/><linearGradient id="linear-gradient-61" x1="1278.42" y1="257.09" x2="1379.26" y2="257.09" xlink:href="#linear-gradient"/><linearGradient id="linear-gradient-62" x1="1362.93" y1="302.05" x2="1463.77" y2="302.05" xlink:href="#linear-gradient"/><linearGradient id="linear-gradient-63" x1="1547.23" y1="302.09" x2="1648.07" y2="302.09" xlink:href="#linear-gradient"/><linearGradient id="linear-gradient-64" x1="1447.29" y1="346.82" x2="1548.13" y2="346.82" xlink:href="#linear-gradient"/><linearGradient id="linear-gradient-65" x1="1631.56" y1="346.78" x2="1732.4" y2="346.78" xlink:href="#linear-gradient"/><linearGradient id="linear-gradient-66" x1="1531.62" y1="391.51" x2="1632.46" y2="391.51" xlink:href="#linear-gradient"/><linearGradient id="linear-gradient-67" x1="1715.93" y1="391.56" x2="1816.77" y2="391.56" xlink:href="#linear-gradient"/><linearGradient id="linear-gradient-68" x1="1615.99" y1="436.29" x2="1716.83" y2="436.29" xlink:href="#linear-gradient"/><linearGradient id="linear-gradient-69" x1="1800.26" y1="436.13" x2="1901.1" y2="436.13" xlink:href="#linear-gradient"/><linearGradient id="linear-gradient-70" x1="1700.32" y1="480.86" x2="1801.16" y2="480.86" xlink:href="#linear-gradient"/><linearGradient id="linear-gradient-71" x1="1884.63" y1="480.91" x2="1985.47" y2="480.91" xlink:href="#linear-gradient"/><linearGradient id="linear-gradient-72" x1="1784.69" y1="525.64" x2="1885.53" y2="525.64" xlink:href="#linear-gradient"/></defs><title>V5_G1</title><g id="Layer_2" data-name="Layer 2"><polygon class="cls-1" points="301.32 87.84 312.61 118.49 346.33 165.4 358.33 172.65 381.08 172.65 396.73 164.8 429.68 111.76 457.74 60.14 427.08 77.69 402.48 63.74 401.91 21.39 379.66 0 356.98 13.37 343.01 55.46 317.3 79.91 299.89 64.12 301.32 87.84"/><path class="cls-2" d="M316.61,110l5.59,2.81s.22-24.79,7.39-43.13L317.3,79.91l-10.15-9.27C304.6,90.34,316.61,110,316.61,110Z"/><path class="cls-3" d="M322.2,112.8l20.83,12L357.7,105H386L401.2,126.8l18.06-12.21,3.77-2.46s1.27-61.22-38.82-79.94a28.43,28.43,0,0,0-23.5-.36C321.36,49.19,322.2,112.8,322.2,112.8Z"/><polygon class="cls-1" points="357.7 104.96 371.81 96.5 386.03 104.96 357.7 104.96"/><polygon class="cls-2" points="358.42 172.65 343.67 129.9 359.18 108.64 371.81 100.73 384.18 108.64 400.51 131.22 429.76 111.76 396.81 164.8 381.17 172.65 358.42 172.65"/><path class="cls-2" d="M417.34,74.62a116.82,116.82,0,0,1,4.77,22.85l4.77-17.86Z"/><polygon class="cls-1" points="385.83 132.79 397.12 163.44 430.84 210.36 442.84 217.61 465.59 217.61 481.24 209.75 514.19 156.71 542.25 105.1 511.59 122.64 486.98 108.69 486.42 66.34 464.17 44.95 441.48 58.33 427.52 100.42 401.81 124.87 384.4 109.07 385.83 132.79"/><path class="cls-2" d="M401.11,154.94l5.6,2.81s.22-24.79,7.39-43.12l-12.29,10.24-10.15-9.27C389.11,135.29,401.11,154.94,401.11,154.94Z"/><path class="cls-4" d="M406.71,157.75l20.83,12,14.67-19.83h28.33l15.17,21.83,18.06-12.21,3.77-2.46s1.27-61.22-38.82-79.94a28.43,28.43,0,0,0-23.5-.36C405.87,94.15,406.71,157.75,406.71,157.75Z"/><polygon class="cls-1" points="442.21 149.92 456.32 141.45 470.54 149.92 442.21 149.92"/><polygon class="cls-2" points="442.93 217.61 428.18 174.86 443.69 153.59 456.32 145.68 468.69 153.59 485.02 176.17 514.27 156.71 481.32 209.75 465.68 217.61 442.93 217.61"/><path class="cls-2" d="M501.85,119.58a116.82,116.82,0,0,1,4.77,22.85l4.77-17.87Z"/><polygon class="cls-1" points="201.38 132.57 212.67 163.22 246.39 210.14 258.39 217.39 281.14 217.39 296.79 209.53 329.74 156.49 357.8 104.87 327.14 122.42 302.54 108.47 301.97 66.12 279.72 44.73 257.04 58.1 243.07 100.19 217.36 124.64 199.95 108.85 201.38 132.57"/><path class="cls-2" d="M216.67,154.72l5.59,2.81s.22-24.79,7.39-43.13l-12.29,10.24-10.15-9.26C204.66,135.07,216.67,154.72,216.67,154.72Z"/><path class="cls-5" d="M222.26,157.53l20.83,12,14.67-19.84h28.33l15.17,21.84,18.06-12.21,3.77-2.46s1.27-61.22-38.81-79.94a28.45,28.45,0,0,0-23.51-.36C221.42,93.92,222.26,157.53,222.26,157.53Z"/><polygon class="cls-1" points="257.76 149.69 271.87 141.23 286.09 149.69 257.76 149.69"/><polygon class="cls-2" points="258.48 217.39 243.73 174.64 259.25 153.37 271.87 145.46 284.25 153.37 300.57 175.95 329.82 156.49 296.87 209.53 281.23 217.39 258.48 217.39"/><path class="cls-2" d="M317.4,119.35a117,117,0,0,1,4.77,22.85l4.77-17.86Z"/><polygon class="cls-1" points="285.89 177.53 297.18 208.17 330.9 255.09 342.9 262.34 365.65 262.34 381.3 254.48 414.25 201.44 442.31 149.83 411.65 167.37 387.05 153.43 386.48 111.07 364.23 89.69 341.55 103.06 327.58 145.15 301.87 169.6 284.46 153.81 285.89 177.53"/><path class="cls-2" d="M301.18,199.67l5.59,2.81s.22-24.79,7.39-43.12L301.87,169.6l-10.15-9.27C289.17,180,301.18,199.67,301.18,199.67Z"/><path class="cls-6" d="M306.77,202.48l20.83,12,14.67-19.83H370.6l15.17,21.83,18.06-12.21,3.77-2.46s1.27-61.22-38.82-79.94a28.43,28.43,0,0,0-23.5-.36C305.93,138.88,306.77,202.48,306.77,202.48Z"/><polygon class="cls-1" points="342.27 194.65 356.38 186.18 370.6 194.65 342.27 194.65"/><polygon class="cls-2" points="342.99 262.34 328.24 219.59 343.75 198.32 356.38 190.41 368.75 198.32 385.08 220.9 414.33 201.44 381.38 254.48 365.74 262.34 342.99 262.34"/><path class="cls-2" d="M401.91,164.31a116.82,116.82,0,0,1,4.77,22.85l4.77-17.87Z"/><polygon class="cls-1" points="470.19 177.57 481.48 208.22 515.21 255.13 527.21 262.38 549.96 262.38 565.61 254.53 598.56 201.49 626.62 149.87 595.96 167.42 571.35 153.47 570.78 111.12 548.53 89.73 525.85 103.1 511.89 145.19 486.18 169.64 468.77 153.85 470.19 177.57"/><path class="cls-2" d="M485.48,199.72l5.59,2.81s.23-24.8,7.39-43.13l-12.28,10.24L476,160.37C473.47,180.07,485.48,199.72,485.48,199.72Z"/><path class="cls-7" d="M491.07,202.53l20.84,12,14.66-19.84h28.34l15.16,21.84,18.07-12.21,3.77-2.46s1.26-61.22-38.82-79.94a28.43,28.43,0,0,0-23.5-.36C490.23,138.92,491.07,202.53,491.07,202.53Z"/><polygon class="cls-1" points="526.57 194.69 540.68 186.23 554.91 194.69 526.57 194.69"/><polygon class="cls-2" points="527.29 262.38 512.54 219.63 528.06 198.37 540.68 190.46 553.06 198.37 569.39 220.94 598.64 201.49 565.69 254.53 550.04 262.38 527.29 262.38"/><path class="cls-2" d="M586.22,164.35A116.82,116.82,0,0,1,591,187.2l4.77-17.86Z"/><polygon class="cls-1" points="370.25 222.3 381.54 252.95 415.27 299.87 427.27 307.12 450.02 307.12 465.67 299.26 498.62 246.22 526.68 194.6 496.02 212.15 471.41 198.2 470.84 155.85 448.59 134.46 425.91 147.84 411.95 189.92 386.24 214.37 368.83 198.58 370.25 222.3"/><path class="cls-2" d="M385.54,244.45l5.59,2.81s.23-24.79,7.39-43.13l-12.28,10.24-10.15-9.26C373.53,224.8,385.54,244.45,385.54,244.45Z"/><path class="cls-8" d="M391.13,247.26l20.84,12,14.66-19.84H455l15.16,21.84,18.07-12.21,3.77-2.46s1.26-61.22-38.82-79.94a28.43,28.43,0,0,0-23.5-.36C390.29,183.65,391.13,247.26,391.13,247.26Z"/><polygon class="cls-1" points="426.63 239.42 440.74 230.96 454.97 239.42 426.63 239.42"/><polygon class="cls-2" points="427.35 307.12 412.6 264.37 428.12 243.1 440.74 235.19 453.12 243.1 469.45 265.68 498.7 246.22 465.75 299.26 450.1 307.12 427.35 307.12"/><path class="cls-2" d="M486.28,209.08a116.82,116.82,0,0,1,4.77,22.85l4.77-17.86Z"/><polygon class="cls-1" points="554.52 222.26 565.81 252.91 599.54 299.82 611.54 307.07 634.29 307.07 649.93 299.22 682.88 246.18 710.95 194.56 680.29 212.11 655.68 198.16 655.11 155.81 632.86 134.42 610.18 147.79 596.22 189.88 570.5 214.33 553.1 198.54 554.52 222.26"/><path class="cls-2" d="M569.81,244.41l5.59,2.81s.23-24.79,7.39-43.13l-12.28,10.24-10.15-9.27C557.8,224.76,569.81,244.41,569.81,244.41Z"/><path class="cls-9" d="M575.4,247.22l20.83,12,14.67-19.84h28.33l15.17,21.84L672.47,249l3.76-2.46s1.27-61.22-38.81-79.94a28.45,28.45,0,0,0-23.51-.36C574.56,183.61,575.4,247.22,575.4,247.22Z"/><polygon class="cls-1" points="610.9 239.38 625.01 230.92 639.23 239.38 610.9 239.38"/><polygon class="cls-2" points="611.62 307.07 596.87 264.32 612.39 243.06 625.01 235.15 637.39 243.06 653.72 265.63 682.97 246.18 650.02 299.22 634.37 307.07 611.62 307.07"/><path class="cls-2" d="M670.54,209a116.31,116.31,0,0,1,4.78,22.85L680.08,214Z"/><polygon class="cls-1" points="454.58 266.99 465.87 297.64 499.6 344.56 511.6 351.81 534.35 351.81 549.99 343.95 582.94 290.91 611 239.29 580.35 256.84 555.74 242.89 555.17 200.54 532.92 179.15 510.24 192.53 496.28 234.61 470.56 259.06 453.16 243.27 454.58 266.99"/><path class="cls-2" d="M469.87,289.14l5.59,2.81s.23-24.79,7.39-43.13l-12.28,10.25-10.15-9.27C457.86,269.49,469.87,289.14,469.87,289.14Z"/><path class="cls-10" d="M475.46,292l20.83,12L511,284.11h28.33L554.46,306l18.07-12.21,3.76-2.46s1.27-61.22-38.81-79.94A28.45,28.45,0,0,0,514,211C474.62,228.35,475.46,292,475.46,292Z"/><polygon class="cls-1" points="510.96 284.11 525.07 275.65 539.29 284.11 510.96 284.11"/><polygon class="cls-2" points="511.68 351.81 496.93 309.06 512.45 287.79 525.07 279.88 537.45 287.79 553.78 310.37 583.03 290.91 550.08 343.95 534.43 351.81 511.68 351.81"/><path class="cls-2" d="M570.6,253.77a116.54,116.54,0,0,1,4.78,22.85l4.76-17.86Z"/><polygon class="cls-1" points="638.89 267.04 650.18 297.68 683.9 344.6 695.9 351.85 718.65 351.85 734.3 344 767.25 290.95 795.31 239.34 764.65 256.89 740.04 242.94 739.48 200.58 717.23 179.2 694.54 192.57 680.58 234.66 654.87 259.11 637.46 243.32 638.89 267.04"/><path class="cls-2" d="M654.18,289.18l5.59,2.81s.22-24.79,7.39-43.12l-12.29,10.24-10.15-9.27C642.17,269.53,654.18,289.18,654.18,289.18Z"/><path class="cls-11" d="M659.77,292l20.83,12,14.67-19.83H723.6L738.77,306l18.06-12.2,3.77-2.46s1.27-61.23-38.82-79.95a28.5,28.5,0,0,0-23.5-.36C658.93,228.39,659.77,292,659.77,292Z"/><polygon class="cls-1" points="695.27 284.16 709.38 275.69 723.6 284.16 695.27 284.16"/><polygon class="cls-2" points="695.99 351.85 681.24 309.1 696.75 287.83 709.38 279.93 721.75 287.83 738.08 310.41 767.33 290.95 734.38 344 718.74 351.85 695.99 351.85"/><path class="cls-2" d="M754.91,253.82a116.82,116.82,0,0,1,4.77,22.85l4.77-17.87Z"/><polygon class="cls-1" points="538.95 311.77 550.24 342.41 583.96 389.33 595.96 396.58 618.71 396.58 634.36 388.73 667.31 335.69 695.37 284.07 664.71 301.62 640.11 287.67 639.54 245.32 617.29 223.93 594.61 237.3 580.64 279.39 554.93 303.84 537.52 288.05 538.95 311.77"/><path class="cls-2" d="M554.24,333.92l5.59,2.8s.22-24.79,7.39-43.12l-12.29,10.24-10.15-9.27C542.23,314.27,554.24,333.92,554.24,333.92Z"/><path class="cls-12" d="M559.83,336.72l20.83,12,14.67-19.83h28.33l15.17,21.83,18.06-12.2,3.77-2.46s1.27-61.23-38.82-79.95a28.46,28.46,0,0,0-23.5-.35C559,273.12,559.83,336.72,559.83,336.72Z"/><polygon class="cls-1" points="595.33 328.89 609.44 320.43 623.66 328.89 595.33 328.89"/><polygon class="cls-2" points="596.05 396.58 581.3 353.83 596.81 332.56 609.44 324.66 621.81 332.56 638.14 355.14 667.39 335.69 634.44 388.73 618.8 396.58 596.05 396.58"/><path class="cls-2" d="M655,298.55a116.82,116.82,0,0,1,4.77,22.85l4.77-17.86Z"/><polygon class="cls-1" points="723.22 311.61 734.51 342.26 768.23 389.18 780.23 396.43 802.98 396.43 818.63 388.57 851.58 335.53 879.64 283.91 848.98 301.46 824.38 287.51 823.81 245.16 801.56 223.77 778.88 237.15 764.92 279.23 739.2 303.68 721.79 287.89 723.22 311.61"/><path class="cls-2" d="M738.51,333.76l5.59,2.81s.22-24.79,7.39-43.13L739.2,303.68l-10.15-9.26C726.5,314.11,738.51,333.76,738.51,333.76Z"/><path class="cls-13" d="M744.1,336.57l20.83,12,14.67-19.84h28.33l15.17,21.84,18.07-12.21,3.76-2.46s1.27-61.22-38.81-79.94a28.45,28.45,0,0,0-23.51-.36C743.26,273,744.1,336.57,744.1,336.57Z"/><polygon class="cls-1" points="779.6 328.73 793.71 320.27 807.93 328.73 779.6 328.73"/><polygon class="cls-2" points="780.32 396.43 765.57 353.68 781.09 332.41 793.71 324.5 806.09 332.41 822.42 354.99 851.67 335.53 818.72 388.57 803.07 396.43 780.32 396.43"/><path class="cls-2" d="M839.24,298.39A116.31,116.31,0,0,1,844,321.24l4.76-17.86Z"/><polygon class="cls-1" points="623.28 356.34 634.57 386.99 668.29 433.91 680.29 441.16 703.04 441.16 718.69 433.3 751.64 380.26 779.7 328.64 749.04 346.19 724.44 332.24 723.87 289.89 701.62 268.5 678.94 281.88 664.98 323.96 639.26 348.42 621.85 332.62 623.28 356.34"/><path class="cls-2" d="M638.57,378.49l5.59,2.81s.22-24.79,7.39-43.13l-12.29,10.25-10.14-9.27C626.56,358.84,638.57,378.49,638.57,378.49Z"/><path class="cls-14" d="M644.16,381.3l20.83,12,14.67-19.84H708l15.17,21.84,18.07-12.21,3.76-2.46s1.27-61.22-38.81-79.94a28.45,28.45,0,0,0-23.51-.36C643.32,317.7,644.16,381.3,644.16,381.3Z"/><polygon class="cls-1" points="679.66 373.46 693.77 365 707.99 373.46 679.66 373.46"/><polygon class="cls-2" points="680.38 441.16 665.63 398.41 681.15 377.14 693.77 369.23 706.15 377.14 722.48 399.72 751.73 380.26 718.78 433.3 703.13 441.16 680.38 441.16"/><path class="cls-2" d="M739.3,343.12A116.54,116.54,0,0,1,744.08,366l4.76-17.87Z"/><polygon class="cls-1" points="807.59 356.39 818.88 387.03 852.6 433.95 864.6 441.2 887.35 441.2 903 433.35 935.95 380.3 964.01 328.69 933.35 346.24 908.74 332.29 908.17 289.94 885.92 268.55 863.24 281.92 849.28 324.01 823.57 348.46 806.16 332.67 807.59 356.39"/><path class="cls-2" d="M822.87,378.53l5.59,2.81s.23-24.79,7.4-43.12l-12.29,10.24-10.15-9.27C810.87,358.88,822.87,378.53,822.87,378.53Z"/><path class="cls-15" d="M828.46,381.34l20.84,12L864,373.51H892.3l15.16,21.83,18.07-12.2,3.77-2.46s1.26-61.23-38.82-79.95a28.5,28.5,0,0,0-23.5-.36C827.63,317.74,828.46,381.34,828.46,381.34Z"/><polygon class="cls-1" points="863.97 373.51 878.08 365.04 892.3 373.51 863.97 373.51"/><polygon class="cls-2" points="864.68 441.2 849.93 398.45 865.45 377.18 878.08 369.28 890.45 377.18 906.78 399.76 936.03 380.3 903.08 433.35 887.43 441.2 864.68 441.2"/><path class="cls-2" d="M923.61,343.17A116.82,116.82,0,0,1,928.38,366l4.77-17.87Z"/><polygon class="cls-1" points="707.65 401.12 718.94 431.76 752.66 478.68 764.66 485.93 787.41 485.93 803.06 478.08 836.01 425.04 864.07 373.42 833.41 390.97 808.8 377.02 808.24 334.67 785.99 313.28 763.3 326.65 749.34 368.74 723.63 393.19 706.22 377.4 707.65 401.12"/><path class="cls-2" d="M722.93,423.27l5.6,2.8s.22-24.79,7.39-43.12l-12.29,10.24-10.15-9.27C710.93,403.62,722.93,423.27,722.93,423.27Z"/><path class="cls-16" d="M728.53,426.07l20.83,12L764,418.24h28.33l15.17,21.83,18.06-12.2,3.77-2.46s1.27-61.23-38.82-80a28.47,28.47,0,0,0-23.5-.35C727.69,362.47,728.53,426.07,728.53,426.07Z"/><polygon class="cls-1" points="764.02 418.24 778.14 409.78 792.36 418.24 764.02 418.24"/><polygon class="cls-2" points="764.74 485.93 749.99 443.18 765.51 421.92 778.14 414.01 790.51 421.92 806.84 444.49 836.09 425.04 803.14 478.08 787.49 485.93 764.74 485.93"/><path class="cls-2" d="M823.67,387.9a116.82,116.82,0,0,1,4.77,22.85l4.77-17.86Z"/><polygon class="cls-1" points="891.91 401.08 903.2 431.72 936.93 478.64 948.93 485.89 971.68 485.89 987.33 478.04 1020.28 425 1048.34 373.38 1017.68 390.93 993.07 376.98 992.5 334.63 970.25 313.24 947.57 326.61 933.61 368.7 907.9 393.15 890.49 377.36 891.91 401.08"/><path class="cls-2" d="M907.2,423.23l5.59,2.8s.23-24.79,7.4-43.12L907.9,393.15l-10.15-9.27C895.19,403.58,907.2,423.23,907.2,423.23Z"/><path class="cls-17" d="M912.79,426l20.84,12,14.66-19.83h28.34L991.79,440l18.07-12.2,3.77-2.46s1.26-61.23-38.82-79.95a28.47,28.47,0,0,0-23.5-.35C912,362.43,912.79,426,912.79,426Z"/><polygon class="cls-1" points="948.29 418.2 962.4 409.74 976.63 418.2 948.29 418.2"/><polygon class="cls-2" points="949.01 485.89 934.26 443.14 949.78 421.87 962.4 413.97 974.78 421.87 991.11 444.45 1020.36 425 987.41 478.04 971.76 485.89 949.01 485.89"/><path class="cls-2" d="M1007.94,387.86a116.82,116.82,0,0,1,4.77,22.85l4.77-17.86Z"/><polygon class="cls-1" points="791.98 445.81 803.26 476.45 836.99 523.37 848.99 530.62 871.74 530.62 887.39 522.77 920.34 469.73 948.4 418.11 917.74 435.66 893.13 421.71 892.56 379.36 870.31 357.97 847.63 371.34 833.67 413.43 807.96 437.88 790.55 422.09 791.98 445.81"/><path class="cls-2" d="M807.26,468l5.59,2.81s.23-24.8,7.4-43.13L808,437.88l-10.15-9.27C795.25,448.31,807.26,468,807.26,468Z"/><path class="cls-18" d="M812.85,470.77l20.84,12,14.66-19.84h28.34l15.16,21.84,18.07-12.21,3.77-2.46s1.26-61.22-38.82-79.94a28.43,28.43,0,0,0-23.5-.36C812,407.16,812.85,470.77,812.85,470.77Z"/><polygon class="cls-1" points="848.35 462.93 862.47 454.47 876.69 462.93 848.35 462.93"/><polygon class="cls-2" points="849.07 530.62 834.32 487.87 849.84 466.61 862.47 458.7 874.84 466.61 891.17 489.19 920.42 469.73 887.47 522.77 871.82 530.62 849.07 530.62"/><path class="cls-2" d="M908,432.59a116.82,116.82,0,0,1,4.77,22.85l4.77-17.86Z"/><polygon class="cls-1" points="976.28 445.86 987.57 476.5 1021.29 523.42 1033.3 530.67 1056.05 530.67 1071.69 522.81 1104.64 469.77 1132.7 418.16 1102.05 435.7 1077.44 421.75 1076.87 379.4 1054.62 358.01 1031.94 371.39 1017.98 413.48 992.26 437.93 974.85 422.13 976.28 445.86"/><path class="cls-2" d="M991.57,468l5.59,2.81s.22-24.79,7.39-43.12l-12.29,10.24-10.14-9.27C979.56,448.35,991.57,468,991.57,468Z"/><path class="cls-19" d="M997.16,470.81l20.83,12L1032.66,463H1061l15.17,21.83,18.07-12.21,3.76-2.46s1.27-61.22-38.81-79.94a28.45,28.45,0,0,0-23.51-.36C996.32,407.21,997.16,470.81,997.16,470.81Z"/><polygon class="cls-1" points="1032.66 462.98 1046.77 454.51 1060.99 462.98 1032.66 462.98"/><polygon class="cls-2" points="1033.38 530.67 1018.63 487.92 1034.15 466.65 1046.77 458.74 1059.15 466.65 1075.48 489.23 1104.73 469.77 1071.78 522.81 1056.13 530.67 1033.38 530.67"/><path class="cls-2" d="M1092.3,432.64a116.31,116.31,0,0,1,4.78,22.85l4.76-17.87Z"/><polygon class="cls-1" points="876.34 490.59 887.63 521.23 921.36 568.15 933.36 575.4 956.11 575.4 971.75 567.54 1004.7 514.5 1032.76 462.89 1002.11 480.44 977.5 466.49 976.93 424.13 954.68 402.75 932 416.12 918.04 458.21 892.32 482.66 874.91 466.87 876.34 490.59"/><path class="cls-2" d="M891.63,512.73l5.59,2.81s.23-24.79,7.39-43.12l-12.29,10.24-10.14-9.27C879.62,493.08,891.63,512.73,891.63,512.73Z"/><path class="cls-20" d="M897.22,515.54l20.83,12,14.67-19.83h28.33l15.17,21.83,18.07-12.2,3.76-2.47s1.27-61.22-38.81-79.94a28.53,28.53,0,0,0-23.51-.36C896.38,451.94,897.22,515.54,897.22,515.54Z"/><polygon class="cls-1" points="932.72 507.71 946.83 499.24 961.05 507.71 932.72 507.71"/><polygon class="cls-2" points="933.44 575.4 918.69 532.65 934.21 511.38 946.83 503.48 959.21 511.38 975.54 533.96 1004.79 514.5 971.84 567.54 956.19 575.4 933.44 575.4"/><path class="cls-2" d="M992.36,477.37a116.31,116.31,0,0,1,4.78,22.85l4.76-17.87Z"/><polygon class="cls-1" points="101.37 177.32 112.66 207.97 146.38 254.89 158.38 262.14 181.13 262.14 196.78 254.28 229.73 201.24 257.79 149.63 227.13 167.17 202.52 153.22 201.95 110.87 179.7 89.48 157.02 102.86 143.06 144.95 117.35 169.4 99.94 153.6 101.37 177.32"/><path class="cls-2" d="M116.65,199.47l5.59,2.81s.23-24.79,7.4-43.12L117.35,169.4l-10.15-9.27C104.65,179.82,116.65,199.47,116.65,199.47Z"/><path class="cls-21" d="M122.24,202.28l20.84,12,14.66-19.83h28.34l15.16,21.83,18.07-12.21,3.77-2.46s1.26-61.22-38.82-79.94a28.43,28.43,0,0,0-23.5-.36C121.41,138.68,122.24,202.28,122.24,202.28Z"/><polygon class="cls-1" points="157.75 194.45 171.86 185.98 186.08 194.45 157.75 194.45"/><polygon class="cls-2" points="158.46 262.14 143.71 219.39 159.23 198.12 171.86 190.21 184.23 198.12 200.56 220.7 229.81 201.24 196.86 254.28 181.21 262.14 158.46 262.14"/><path class="cls-2" d="M217.39,164.11A116.82,116.82,0,0,1,222.16,187l4.77-17.87Z"/><polygon class="cls-1" points="185.88 222.28 197.16 252.92 230.89 299.84 242.89 307.09 265.64 307.09 281.29 299.24 314.24 246.19 342.3 194.58 311.64 212.13 287.03 198.18 286.46 155.82 264.21 134.44 241.53 147.81 227.57 189.9 201.86 214.35 184.45 198.56 185.88 222.28"/><path class="cls-2" d="M201.16,244.42l5.59,2.81s.23-24.79,7.4-43.12l-12.29,10.24-10.15-9.27C189.15,224.77,201.16,244.42,201.16,244.42Z"/><path class="cls-22" d="M206.75,247.23l20.84,12,14.66-19.83h28.34l15.16,21.83L303.82,249l3.77-2.46s1.26-61.23-38.82-79.95a28.5,28.5,0,0,0-23.5-.36C205.91,183.63,206.75,247.23,206.75,247.23Z"/><polygon class="cls-1" points="242.25 239.4 256.37 230.93 270.59 239.4 242.25 239.4"/><polygon class="cls-2" points="242.97 307.09 228.22 264.34 243.74 243.07 256.37 235.17 268.74 243.07 285.07 265.65 314.32 246.19 281.37 299.24 265.72 307.09 242.97 307.09"/><path class="cls-2" d="M301.9,209.06a116.82,116.82,0,0,1,4.77,22.85L311.44,214Z"/><polygon class="cls-1" points="1.43 222.06 12.72 252.7 46.44 299.62 58.44 306.87 81.19 306.87 96.84 299.01 129.79 245.97 157.85 194.36 127.19 211.9 102.58 197.96 102.01 155.6 79.76 134.22 57.08 147.59 43.12 189.68 17.41 214.13 0 198.34 1.43 222.06"/><path class="cls-2" d="M16.71,244.2,22.3,247s.23-24.79,7.4-43.12L17.41,214.13,7.26,204.86C4.71,224.55,16.71,244.2,16.71,244.2Z"/><path class="cls-23" d="M22.3,247l20.84,12L57.8,239.18H86.14L101.3,261l18.07-12.21,3.77-2.46s1.26-61.22-38.82-79.94a28.43,28.43,0,0,0-23.5-.36C21.47,183.41,22.3,247,22.3,247Z"/><polygon class="cls-1" points="57.8 239.18 71.92 230.71 86.14 239.18 57.8 239.18"/><polygon class="cls-2" points="58.52 306.87 43.77 264.12 59.29 242.85 71.92 234.94 84.29 242.85 100.62 265.43 129.87 245.97 96.92 299.01 81.27 306.87 58.52 306.87"/><path class="cls-2" d="M117.45,208.84a116.82,116.82,0,0,1,4.77,22.85L127,213.82Z"/><polygon class="cls-1" points="85.94 267.01 97.22 297.65 130.95 344.57 142.95 351.82 165.7 351.82 181.35 343.97 214.3 290.93 242.36 239.31 211.7 256.86 187.09 242.91 186.52 200.56 164.27 179.17 141.59 192.54 127.63 234.63 101.92 259.08 84.51 243.29 85.94 267.01"/><path class="cls-2" d="M101.22,289.16l5.59,2.8s.23-24.79,7.4-43.12l-12.29,10.24-10.15-9.27C89.21,269.51,101.22,289.16,101.22,289.16Z"/><path class="cls-24" d="M106.81,292l20.84,12,14.66-19.83h28.34L185.81,306l18.07-12.2,3.77-2.46s1.26-61.23-38.82-80a28.47,28.47,0,0,0-23.5-.35C106,228.36,106.81,292,106.81,292Z"/><polygon class="cls-1" points="142.31 284.13 156.43 275.67 170.65 284.13 142.31 284.13"/><polygon class="cls-2" points="143.03 351.82 128.28 309.07 143.8 287.8 156.43 279.9 168.8 287.8 185.13 310.38 214.38 290.93 181.43 343.97 165.78 351.82 143.03 351.82"/><path class="cls-2" d="M202,253.79a116.82,116.82,0,0,1,4.77,22.85l4.77-17.86Z"/><polygon class="cls-1" points="270.24 267.06 281.53 297.7 315.25 344.62 327.25 351.87 350 351.87 365.65 344.01 398.6 290.97 426.66 239.36 396 256.9 371.4 242.95 370.83 200.6 348.58 179.21 325.9 192.59 311.94 234.68 286.23 259.13 268.81 243.33 270.24 267.06"/><path class="cls-2" d="M285.53,289.2l5.59,2.81s.23-24.79,7.39-43.13l-12.29,10.25-10.14-9.27C273.52,269.55,285.53,289.2,285.53,289.2Z"/><path class="cls-25" d="M291.12,292,312,304l14.67-19.83H355L370.12,306l18.07-12.21,3.76-2.46s1.27-61.22-38.81-79.94a28.45,28.45,0,0,0-23.51-.36C290.28,228.41,291.12,292,291.12,292Z"/><polygon class="cls-1" points="326.62 284.18 340.73 275.71 354.95 284.18 326.62 284.18"/><polygon class="cls-2" points="327.34 351.87 312.59 309.12 328.11 287.85 340.73 279.94 353.11 287.85 369.44 310.43 398.69 290.97 365.74 344.01 350.09 351.87 327.34 351.87"/><path class="cls-2" d="M386.26,253.84A116.31,116.31,0,0,1,391,276.69l4.76-17.87Z"/><polygon class="cls-1" points="170.3 311.79 181.59 342.43 215.32 389.35 227.32 396.6 250.06 396.6 265.71 388.74 298.66 335.7 326.73 284.09 296.07 301.63 271.46 287.68 270.89 245.33 248.64 223.94 225.96 237.32 212 279.41 186.28 303.86 168.88 288.06 170.3 311.79"/><path class="cls-2" d="M185.59,333.93l5.59,2.81s.23-24.79,7.39-43.12l-12.29,10.24-10.14-9.27C173.58,314.28,185.59,333.93,185.59,333.93Z"/><path class="cls-26" d="M191.18,336.74l20.83,12,14.67-19.83H255l15.17,21.83,18.07-12.21,3.76-2.46s1.27-61.22-38.81-79.94a28.45,28.45,0,0,0-23.51-.36C190.34,273.14,191.18,336.74,191.18,336.74Z"/><polygon class="cls-1" points="226.68 328.91 240.79 320.44 255.01 328.91 226.68 328.91"/><polygon class="cls-2" points="227.4 396.6 212.65 353.85 228.17 332.58 240.79 324.67 253.17 332.58 269.5 355.16 298.75 335.7 265.8 388.74 250.15 396.6 227.4 396.6"/><path class="cls-2" d="M286.32,298.57a116.31,116.31,0,0,1,4.78,22.85l4.76-17.87Z"/><polygon class="cls-1" points="354.57 311.75 365.86 342.39 399.58 389.31 411.58 396.56 434.33 396.56 449.98 388.7 482.93 335.66 510.99 284.05 480.33 301.59 455.73 287.64 455.16 245.29 432.91 223.9 410.23 237.28 396.26 279.37 370.55 303.82 353.14 288.02 354.57 311.75"/><path class="cls-2" d="M369.86,333.89l5.59,2.81s.22-24.79,7.39-43.12l-12.29,10.24-10.15-9.27C357.85,314.24,369.86,333.89,369.86,333.89Z"/><path class="cls-27" d="M375.45,336.7l20.83,12L411,328.87h28.33l15.17,21.83,18.06-12.21,3.77-2.46s1.27-61.22-38.81-79.94a28.45,28.45,0,0,0-23.51-.36C374.61,273.1,375.45,336.7,375.45,336.7Z"/><polygon class="cls-1" points="410.95 328.87 425.06 320.4 439.28 328.87 410.95 328.87"/><polygon class="cls-2" points="411.67 396.56 396.92 353.81 412.44 332.54 425.06 324.63 437.44 332.54 453.76 355.12 483.01 335.66 450.06 388.7 434.42 396.56 411.67 396.56"/><path class="cls-2" d="M470.59,298.53a117.21,117.21,0,0,1,4.78,22.85l4.76-17.87Z"/><polygon class="cls-1" points="254.63 356.48 265.92 387.12 299.64 434.04 311.64 441.29 334.39 441.29 350.04 433.43 382.99 380.39 411.05 328.78 380.39 346.32 355.79 332.38 355.22 290.02 332.97 268.64 310.29 282.01 296.32 324.1 270.61 348.55 253.2 332.76 254.63 356.48"/><path class="cls-2" d="M269.92,378.62l5.59,2.81s.22-24.79,7.39-43.12l-12.29,10.24-10.15-9.27C257.91,359,269.92,378.62,269.92,378.62Z"/><path class="cls-28" d="M275.51,381.43l20.83,12L311,373.6h28.33l15.17,21.83,18.07-12.2,3.76-2.47s1.27-61.22-38.81-79.94a28.53,28.53,0,0,0-23.51-.36C274.67,317.83,275.51,381.43,275.51,381.43Z"/><polygon class="cls-1" points="311.01 373.6 325.12 365.13 339.34 373.6 311.01 373.6"/><polygon class="cls-2" points="311.73 441.29 296.98 398.54 312.5 377.27 325.12 369.37 337.5 377.27 353.82 399.85 383.07 380.39 350.13 433.43 334.48 441.29 311.73 441.29"/><path class="cls-2" d="M370.65,343.26a116.31,116.31,0,0,1,4.78,22.85l4.76-17.87Z"/><polygon class="cls-1" points="438.94 356.52 450.23 387.17 483.95 434.08 495.95 441.33 518.7 441.33 534.35 433.48 567.3 380.44 595.36 328.82 564.7 346.37 540.09 332.42 539.52 290.07 517.27 268.68 494.59 282.05 480.63 324.14 454.92 348.59 437.51 332.8 438.94 356.52"/><path class="cls-2" d="M454.22,378.67l5.59,2.81s.23-24.79,7.4-43.13l-12.29,10.24-10.15-9.27C442.21,359,454.22,378.67,454.22,378.67Z"/><path class="cls-29" d="M459.81,381.48l20.84,12,14.66-19.84h28.34l15.16,21.84,18.07-12.21,3.77-2.46s1.26-61.22-38.82-79.94a28.43,28.43,0,0,0-23.5-.36C459,317.87,459.81,381.48,459.81,381.48Z"/><polygon class="cls-1" points="495.31 373.64 509.43 365.18 523.65 373.64 495.31 373.64"/><polygon class="cls-2" points="496.03 441.33 481.28 398.58 496.8 377.32 509.43 369.41 521.8 377.32 538.13 399.89 567.38 380.44 534.43 433.48 518.78 441.33 496.03 441.33"/><path class="cls-2" d="M555,343.3a116.82,116.82,0,0,1,4.77,22.85l4.77-17.86Z"/><polygon class="cls-1" points="339 401.25 350.29 431.9 384.01 478.82 396.01 486.07 418.76 486.07 434.41 478.21 467.36 425.17 495.42 373.55 464.76 391.1 440.15 377.15 439.58 334.8 417.33 313.41 394.65 326.79 380.69 368.87 354.98 393.32 337.57 377.53 339 401.25"/><path class="cls-2" d="M354.28,423.4l5.59,2.81s.23-24.79,7.4-43.13L355,393.32l-10.15-9.26C342.27,403.75,354.28,423.4,354.28,423.4Z"/><path class="cls-30" d="M359.87,426.21l20.84,12,14.66-19.84h28.34l15.16,21.84L456.94,428l3.77-2.46s1.26-61.22-38.82-79.94a28.43,28.43,0,0,0-23.5-.36C359,362.6,359.87,426.21,359.87,426.21Z"/><polygon class="cls-1" points="395.37 418.37 409.49 409.91 423.71 418.37 395.37 418.37"/><polygon class="cls-2" points="396.09 486.07 381.34 443.32 396.86 422.05 409.49 414.14 421.86 422.05 438.19 444.63 467.44 425.17 434.49 478.21 418.84 486.07 396.09 486.07"/><path class="cls-2" d="M455,388a117,117,0,0,1,4.77,22.85L464.56,393Z"/><polygon class="cls-1" points="523.27 401.1 534.56 431.74 568.28 478.66 580.28 485.91 603.03 485.91 618.68 478.05 651.63 425.01 679.69 373.4 649.03 390.94 624.42 376.99 623.86 334.64 601.61 313.25 578.92 326.63 564.96 368.72 539.25 393.17 521.84 377.38 523.27 401.1"/><path class="cls-2" d="M538.55,423.24l5.6,2.81s.22-24.79,7.39-43.12l-12.29,10.24L529.1,383.9C526.55,403.59,538.55,423.24,538.55,423.24Z"/><path class="cls-31" d="M544.15,426.05l20.83,12,14.67-19.83H608l15.17,21.83,18.06-12.21,3.77-2.46s1.27-61.22-38.82-79.94a28.43,28.43,0,0,0-23.5-.36C543.31,362.45,544.15,426.05,544.15,426.05Z"/><polygon class="cls-1" points="579.65 418.22 593.76 409.75 607.98 418.22 579.65 418.22"/><polygon class="cls-2" points="580.37 485.91 565.62 443.16 581.13 421.89 593.76 413.98 606.13 421.89 622.46 444.47 651.71 425.01 618.76 478.05 603.12 485.91 580.37 485.91"/><path class="cls-2" d="M639.29,387.88a116.82,116.82,0,0,1,4.77,22.85l4.77-17.87Z"/><polygon class="cls-1" points="423.33 445.83 434.62 476.47 468.34 523.39 480.34 530.64 503.09 530.64 518.74 522.78 551.69 469.74 579.75 418.13 549.09 435.68 524.48 421.73 523.92 379.37 501.67 357.99 478.98 371.36 465.02 413.45 439.31 437.9 421.9 422.11 423.33 445.83"/><path class="cls-2" d="M438.61,468l5.6,2.81s.22-24.79,7.39-43.12L439.31,437.9l-10.15-9.27C426.61,448.32,438.61,468,438.61,468Z"/><path class="cls-32" d="M444.21,470.78l20.83,12L479.71,463H508l15.17,21.83,18.06-12.2,3.77-2.47s1.27-61.22-38.82-79.94a28.5,28.5,0,0,0-23.5-.36C443.37,407.18,444.21,470.78,444.21,470.78Z"/><polygon class="cls-1" points="479.71 462.95 493.82 454.48 508.04 462.95 479.71 462.95"/><polygon class="cls-2" points="480.43 530.64 465.68 487.89 481.19 466.62 493.82 458.72 506.19 466.62 522.52 489.2 551.77 469.74 518.82 522.78 503.18 530.64 480.43 530.64"/><path class="cls-2" d="M539.35,432.61a116.82,116.82,0,0,1,4.77,22.85l4.77-17.87Z"/><polygon class="cls-1" points="607.63 445.87 618.92 476.52 652.65 523.43 664.65 530.68 687.4 530.68 703.05 522.83 736 469.79 764.06 418.17 733.4 435.72 708.79 421.77 708.22 379.42 685.97 358.03 663.29 371.4 649.33 413.49 623.62 437.94 606.21 422.15 607.63 445.87"/><path class="cls-2" d="M622.92,468l5.59,2.81s.23-24.79,7.39-43.13l-12.28,10.24-10.15-9.26C610.91,448.37,622.92,468,622.92,468Z"/><path class="cls-33" d="M628.51,470.83l20.84,12L664,463h28.34l15.16,21.84,18.07-12.21,3.77-2.46s1.26-61.22-38.82-79.94a28.43,28.43,0,0,0-23.5-.36C627.67,407.22,628.51,470.83,628.51,470.83Z"/><polygon class="cls-1" points="664.01 462.99 678.12 454.53 692.35 462.99 664.01 462.99"/><polygon class="cls-2" points="664.73 530.68 649.98 487.94 665.5 466.67 678.12 458.76 690.5 466.67 706.83 489.25 736.08 469.79 703.13 522.83 687.48 530.68 664.73 530.68"/><path class="cls-2" d="M723.66,432.65a116.82,116.82,0,0,1,4.77,22.85l4.77-17.86Z"/><polygon class="cls-1" points="507.69 490.6 518.98 521.25 552.71 568.17 564.71 575.42 587.46 575.42 603.11 567.56 636.06 514.52 664.12 462.9 633.46 480.45 608.85 466.5 608.28 424.15 586.03 402.76 563.35 416.14 549.39 458.22 523.68 482.68 506.27 466.88 507.69 490.6"/><path class="cls-2" d="M523,512.75l5.59,2.81s.23-24.79,7.39-43.13l-12.28,10.25-10.15-9.27C511,493.1,523,512.75,523,512.75Z"/><path class="cls-34" d="M528.57,515.56l20.84,12,14.66-19.84h28.34l15.16,21.84,18.07-12.21,3.77-2.46s1.26-61.22-38.82-79.94a28.43,28.43,0,0,0-23.5-.36C527.73,452,528.57,515.56,528.57,515.56Z"/><polygon class="cls-1" points="564.07 507.72 578.18 499.26 592.41 507.72 564.07 507.72"/><polygon class="cls-2" points="564.79 575.42 550.04 532.67 565.56 511.4 578.18 503.49 590.56 511.4 606.89 533.98 636.14 514.52 603.19 567.56 587.54 575.42 564.79 575.42"/><path class="cls-2" d="M623.72,477.38a117,117,0,0,1,4.77,22.86l4.77-17.87Z"/><polygon class="cls-1" points="691.96 490.56 703.25 521.21 736.98 568.13 748.98 575.38 771.73 575.38 787.37 567.52 820.32 514.48 848.38 462.86 817.73 480.41 793.12 466.46 792.55 424.11 770.3 402.72 747.62 416.1 733.66 458.18 707.95 482.63 690.54 466.84 691.96 490.56"/><path class="cls-2" d="M707.25,512.71l5.59,2.81s.23-24.79,7.39-43.13L708,482.63l-10.15-9.26C695.24,493.06,707.25,512.71,707.25,512.71Z"/><path class="cls-35" d="M712.84,515.52l20.83,12,14.67-19.84h28.33l15.17,21.84,18.07-12.21,3.76-2.46s1.27-61.22-38.81-79.94a28.45,28.45,0,0,0-23.51-.36C712,451.91,712.84,515.52,712.84,515.52Z"/><polygon class="cls-1" points="748.34 507.68 762.45 499.22 776.67 507.68 748.34 507.68"/><polygon class="cls-2" points="749.06 575.38 734.31 532.63 749.83 511.36 762.45 503.45 774.83 511.36 791.16 533.94 820.41 514.48 787.46 567.52 771.81 575.38 749.06 575.38"/><path class="cls-2" d="M808,477.34a116.54,116.54,0,0,1,4.78,22.85l4.76-17.86Z"/><polygon class="cls-1" points="592.02 535.29 603.31 565.94 637.04 612.86 649.04 620.11 671.79 620.11 687.43 612.25 720.38 559.21 748.45 507.6 717.79 525.14 693.18 511.19 692.61 468.84 670.36 447.45 647.68 460.83 633.72 502.92 608 527.37 590.6 511.57 592.02 535.29"/><path class="cls-2" d="M607.31,557.44l5.59,2.81s.23-24.79,7.39-43.13L608,527.37l-10.15-9.27C595.3,537.79,607.31,557.44,607.31,557.44Z"/><path class="cls-36" d="M612.9,560.25l20.83,12,14.67-19.83h28.33l15.17,21.83L710,562l3.76-2.46s1.27-61.22-38.81-79.94a28.45,28.45,0,0,0-23.51-.36C612.06,496.65,612.9,560.25,612.9,560.25Z"/><polygon class="cls-1" points="648.4 552.41 662.51 543.95 676.73 552.41 648.4 552.41"/><polygon class="cls-2" points="649.12 620.11 634.37 577.36 649.89 556.09 662.51 548.18 674.89 556.09 691.22 578.67 720.47 559.21 687.52 612.25 671.87 620.11 649.12 620.11"/><path class="cls-2" d="M708,522.08a116.31,116.31,0,0,1,4.78,22.85l4.76-17.87Z"/><polygon class="cls-1" points="776.33 535.34 787.62 565.98 821.34 612.9 833.34 620.15 856.09 620.15 871.74 612.3 904.69 559.25 932.75 507.64 902.09 525.19 877.49 511.24 876.92 468.88 854.67 447.5 831.99 460.87 818.02 502.96 792.31 527.41 774.9 511.62 776.33 535.34"/><path class="cls-2" d="M791.62,557.49l5.59,2.8s.22-24.79,7.39-43.12l-12.29,10.24-10.15-9.27C779.61,537.84,791.62,557.49,791.62,557.49Z"/><path class="cls-37" d="M797.21,560.29l20.83,12,14.67-19.83H861l15.17,21.83,18.06-12.2,3.77-2.46s1.27-61.23-38.82-79.95a28.47,28.47,0,0,0-23.5-.35C796.37,496.69,797.21,560.29,797.21,560.29Z"/><polygon class="cls-1" points="832.71 552.46 846.82 544 861.04 552.46 832.71 552.46"/><polygon class="cls-2" points="833.43 620.15 818.68 577.4 834.19 556.13 846.82 548.23 859.19 556.13 875.52 578.71 904.77 559.25 871.82 612.3 856.18 620.15 833.43 620.15"/><path class="cls-2" d="M892.35,522.12A116.82,116.82,0,0,1,897.12,545l4.77-17.86Z"/><polygon class="cls-1" points="676.39 580.07 687.68 610.72 721.4 657.63 733.4 664.88 756.15 664.88 771.8 657.03 804.75 603.99 832.81 552.37 802.15 569.92 777.54 555.97 776.98 513.62 754.73 492.23 732.04 505.6 718.08 547.69 692.37 572.14 674.96 556.35 676.39 580.07"/><path class="cls-2" d="M691.68,602.22l5.59,2.8s.22-24.79,7.39-43.12l-12.29,10.24-10.15-9.27C679.67,582.57,691.68,602.22,691.68,602.22Z"/><path class="cls-38" d="M697.27,605l20.83,12,14.67-19.83H761.1L776.27,619l18.06-12.2,3.77-2.46s1.27-61.22-38.82-79.94a28.43,28.43,0,0,0-23.5-.36C696.43,541.42,697.27,605,697.27,605Z"/><polygon class="cls-1" points="732.77 597.19 746.88 588.73 761.1 597.19 732.77 597.19"/><polygon class="cls-2" points="733.49 664.88 718.74 622.13 734.25 600.87 746.88 592.96 759.25 600.87 775.58 623.44 804.83 603.99 771.88 657.03 756.24 664.88 733.49 664.88"/><path class="cls-2" d="M792.41,566.85a116.82,116.82,0,0,1,4.77,22.85L802,571.84Z"/><polygon class="cls-1" points="2448.12 244.38 2459.41 275.02 2493.13 321.94 2505.13 329.19 2527.88 329.19 2543.53 321.34 2576.48 268.3 2604.54 216.68 2573.88 234.23 2549.27 220.28 2548.7 177.93 2526.45 156.54 2503.77 169.91 2489.81 212 2464.1 236.45 2446.69 220.66 2448.12 244.38"/><path class="cls-2" d="M2463.4,266.53l5.59,2.8s.23-24.79,7.4-43.12l-12.29,10.24L2454,227.18C2451.39,246.88,2463.4,266.53,2463.4,266.53Z"/><path class="cls-39" d="M2469,269.33l20.84,12,14.66-19.83h28.34L2548,283.33l18.07-12.2,3.77-2.46s1.26-61.23-38.82-80a28.47,28.47,0,0,0-23.5-.35C2468.16,205.73,2469,269.33,2469,269.33Z"/><polygon class="cls-1" points="2504.49 261.5 2518.61 253.04 2532.83 261.5 2504.49 261.5"/><polygon class="cls-2" points="2505.21 329.19 2490.46 286.44 2505.98 265.18 2518.61 257.27 2530.98 265.18 2547.31 287.75 2576.56 268.3 2543.61 321.34 2527.96 329.19 2505.21 329.19"/><path class="cls-2" d="M2564.14,231.16a116.82,116.82,0,0,1,4.77,22.85l4.77-17.86Z"/><polygon class="cls-1" points="2532.63 289.33 2543.91 319.98 2577.64 366.9 2589.64 374.15 2612.39 374.15 2628.04 366.29 2660.99 313.25 2689.05 261.63 2658.39 279.18 2633.78 265.23 2633.21 222.88 2610.96 201.49 2588.28 214.87 2574.32 256.95 2548.61 281.4 2531.2 265.61 2532.63 289.33"/><path class="cls-2" d="M2547.91,311.48l5.59,2.81s.23-24.79,7.4-43.13l-12.29,10.24-10.15-9.26C2535.9,291.83,2547.91,311.48,2547.91,311.48Z"/><path class="cls-40" d="M2553.5,314.29l20.84,12L2589,306.45h28.34l15.16,21.84,18.07-12.21,3.77-2.46s1.26-61.22-38.82-79.94a28.43,28.43,0,0,0-23.5-.36C2552.66,250.69,2553.5,314.29,2553.5,314.29Z"/><polygon class="cls-1" points="2589 306.45 2603.11 297.99 2617.34 306.45 2589 306.45"/><polygon class="cls-2" points="2589.72 374.15 2574.97 331.4 2590.49 310.13 2603.11 302.22 2615.49 310.13 2631.82 332.71 2661.07 313.25 2628.12 366.29 2612.47 374.15 2589.72 374.15"/><path class="cls-2" d="M2648.65,276.11a117,117,0,0,1,4.77,22.85l4.77-17.86Z"/><polygon class="cls-1" points="2348.18 289.11 2359.47 319.76 2393.19 366.68 2405.19 373.93 2427.94 373.93 2443.59 366.07 2476.54 313.03 2504.6 261.41 2473.94 278.96 2449.33 265.01 2448.76 222.66 2426.51 201.27 2403.83 214.64 2389.87 256.73 2364.16 281.18 2346.75 265.39 2348.18 289.11"/><path class="cls-2" d="M2363.46,311.26l5.59,2.81s.23-24.79,7.4-43.13l-12.29,10.24L2354,271.91C2351.45,291.61,2363.46,311.26,2363.46,311.26Z"/><path class="cls-41" d="M2369.05,314.07l20.84,12,14.66-19.84h28.34l15.16,21.84,18.07-12.21,3.77-2.46s1.26-61.22-38.82-79.94a28.43,28.43,0,0,0-23.5-.36C2368.22,250.46,2369.05,314.07,2369.05,314.07Z"/><polygon class="cls-1" points="2404.55 306.23 2418.67 297.77 2432.89 306.23 2404.55 306.23"/><polygon class="cls-2" points="2405.27 373.93 2390.52 331.18 2406.04 309.91 2418.67 302 2431.04 309.91 2447.37 332.49 2476.62 313.03 2443.67 366.07 2428.02 373.93 2405.27 373.93"/><path class="cls-2" d="M2464.2,275.89a116.82,116.82,0,0,1,4.77,22.85l4.77-17.86Z"/><polygon class="cls-1" points="2432.68 334.06 2443.97 364.71 2477.7 411.63 2489.7 418.88 2512.45 418.88 2528.1 411.02 2561.05 357.98 2589.11 306.37 2558.45 323.91 2533.84 309.96 2533.27 267.61 2511.02 246.22 2488.34 259.6 2474.38 301.69 2448.67 326.14 2431.26 310.34 2432.68 334.06"/><path class="cls-2" d="M2448,356.21l5.59,2.81s.23-24.79,7.4-43.12l-12.29,10.24-10.15-9.27C2436,336.56,2448,356.21,2448,356.21Z"/><path class="cls-42" d="M2453.56,359l20.84,12,14.66-19.83h28.34L2532.56,373l18.07-12.21,3.77-2.46s1.26-61.22-38.82-79.94a28.43,28.43,0,0,0-23.5-.36C2452.72,295.42,2453.56,359,2453.56,359Z"/><polygon class="cls-1" points="2489.06 351.19 2503.18 342.72 2517.4 351.19 2489.06 351.19"/><polygon class="cls-2" points="2489.78 418.88 2475.03 376.13 2490.55 354.86 2503.18 346.95 2515.55 354.86 2531.88 377.44 2561.13 357.98 2528.18 411.02 2512.53 418.88 2489.78 418.88"/><path class="cls-2" d="M2548.71,320.85a116.82,116.82,0,0,1,4.77,22.85l4.77-17.87Z"/><polygon class="cls-1" points="2616.99 334.11 2628.28 364.75 2662.01 411.67 2674.01 418.92 2696.76 418.92 2712.4 411.07 2745.35 358.02 2773.41 306.41 2742.76 323.96 2718.15 310.01 2717.58 267.66 2695.33 246.27 2672.65 259.64 2658.69 301.73 2632.97 326.18 2615.57 310.39 2616.99 334.11"/><path class="cls-2" d="M2632.28,356.26l5.59,2.8s.22-24.79,7.39-43.12L2633,326.18l-10.14-9.27C2620.27,336.61,2632.28,356.26,2632.28,356.26Z"/><path class="cls-43" d="M2637.87,359.06l20.83,12,14.67-19.83h28.33l15.17,21.83,18.07-12.2,3.76-2.46s1.27-61.23-38.81-79.95a28.49,28.49,0,0,0-23.51-.35C2637,295.46,2637.87,359.06,2637.87,359.06Z"/><polygon class="cls-1" points="2673.37 351.23 2687.48 342.76 2701.7 351.23 2673.37 351.23"/><polygon class="cls-2" points="2674.09 418.92 2659.34 376.17 2674.86 354.9 2687.48 347 2699.86 354.9 2716.19 377.48 2745.44 358.02 2712.49 411.07 2696.84 418.92 2674.09 418.92"/><path class="cls-2" d="M2733,320.89a116.31,116.31,0,0,1,4.78,22.85l4.76-17.86Z"/><polygon class="cls-1" points="2517.05 378.84 2528.34 409.49 2562.07 456.4 2574.07 463.65 2596.82 463.65 2612.46 455.8 2645.41 402.76 2673.47 351.14 2642.82 368.69 2618.21 354.74 2617.64 312.39 2595.39 291 2572.71 304.37 2558.75 346.46 2533.03 370.91 2515.63 355.12 2517.05 378.84"/><path class="cls-2" d="M2532.34,401l5.59,2.81s.23-24.8,7.39-43.13L2533,370.91l-10.14-9.27C2520.33,381.34,2532.34,401,2532.34,401Z"/><path class="cls-44" d="M2537.93,403.8l20.83,12L2573.43,396h28.33l15.17,21.84L2635,405.59l3.76-2.46s1.27-61.22-38.81-79.94a28.45,28.45,0,0,0-23.51-.36C2537.09,340.19,2537.93,403.8,2537.93,403.8Z"/><polygon class="cls-1" points="2573.43 395.96 2587.54 387.5 2601.76 395.96 2573.43 395.96"/><polygon class="cls-2" points="2574.15 463.65 2559.4 420.9 2574.92 399.64 2587.54 391.73 2599.92 399.64 2616.25 422.21 2645.5 402.76 2612.55 455.8 2596.9 463.65 2574.15 463.65"/><path class="cls-2" d="M2633.07,365.62a116.31,116.31,0,0,1,4.78,22.85l4.76-17.86Z"/><polygon class="cls-1" points="2701.32 378.8 2712.61 409.44 2746.33 456.36 2758.33 463.61 2781.08 463.61 2796.73 455.76 2829.68 402.72 2857.74 351.1 2827.08 368.65 2802.48 354.7 2801.91 312.35 2779.66 290.96 2756.98 304.33 2743.01 346.42 2717.3 370.87 2699.89 355.08 2701.32 378.8"/><path class="cls-2" d="M2716.61,401l5.59,2.8s.22-24.79,7.39-43.12l-12.29,10.24-10.15-9.27C2704.6,381.3,2716.61,401,2716.61,401Z"/><path class="cls-45" d="M2722.2,403.75l20.83,12,14.67-19.83H2786l15.17,21.83,18.06-12.2,3.77-2.46s1.27-61.22-38.81-79.94a28.45,28.45,0,0,0-23.51-.36C2721.36,340.15,2722.2,403.75,2722.2,403.75Z"/><polygon class="cls-1" points="2757.7 395.92 2771.81 387.46 2786.03 395.92 2757.7 395.92"/><polygon class="cls-2" points="2758.42 463.61 2743.67 420.86 2759.18 399.6 2771.81 391.69 2784.18 399.6 2800.51 422.17 2829.76 402.72 2796.81 455.76 2781.17 463.61 2758.42 463.61"/><path class="cls-2" d="M2817.34,365.58a116.82,116.82,0,0,1,4.77,22.85l4.77-17.86Z"/><polygon class="cls-1" points="2601.38 423.53 2612.67 454.18 2646.39 501.1 2658.39 508.35 2681.14 508.35 2696.79 500.49 2729.74 447.45 2757.8 395.83 2727.14 413.38 2702.54 399.43 2701.97 357.08 2679.72 335.69 2657.04 349.06 2643.07 391.15 2617.36 415.6 2599.95 399.81 2601.38 423.53"/><path class="cls-2" d="M2616.67,445.68l5.59,2.81s.22-24.79,7.39-43.13l-12.29,10.24-10.15-9.26C2604.66,426,2616.67,445.68,2616.67,445.68Z"/><path class="cls-46" d="M2622.26,448.49l20.83,12,14.67-19.84h28.33l15.17,21.84,18.06-12.21,3.77-2.46s1.27-61.22-38.81-79.94a28.45,28.45,0,0,0-23.51-.36C2621.42,384.88,2622.26,448.49,2622.26,448.49Z"/><polygon class="cls-1" points="2657.76 440.65 2671.87 432.19 2686.09 440.65 2657.76 440.65"/><polygon class="cls-2" points="2658.48 508.35 2643.73 465.6 2659.24 444.33 2671.87 436.42 2684.24 444.33 2700.57 466.91 2729.82 447.45 2696.87 500.49 2681.23 508.35 2658.48 508.35"/><path class="cls-2" d="M2717.4,410.31a117.21,117.21,0,0,1,4.78,22.85l4.76-17.86Z"/><polygon class="cls-1" points="1557.43 132.56 1568.72 163.2 1602.44 210.12 1614.44 217.37 1637.19 217.37 1652.84 209.52 1685.79 156.47 1713.85 104.86 1683.19 122.41 1658.59 108.46 1658.02 66.11 1635.77 44.72 1613.09 58.09 1599.13 100.18 1573.41 124.63 1556 108.84 1557.43 132.56"/><path class="cls-2" d="M1572.72,154.71l5.59,2.8s.22-24.79,7.39-43.12l-12.29,10.24-10.14-9.27C1560.71,135.06,1572.72,154.71,1572.72,154.71Z"/><path class="cls-47" d="M1578.31,157.51l20.83,12,14.67-19.83h28.33l15.17,21.83,18.07-12.2,3.76-2.46s1.27-61.23-38.81-79.95a28.49,28.49,0,0,0-23.51-.35C1577.47,93.91,1578.31,157.51,1578.31,157.51Z"/><polygon class="cls-1" points="1613.81 149.68 1627.92 141.22 1642.14 149.68 1613.81 149.68"/><polygon class="cls-2" points="1614.53 217.37 1599.78 174.62 1615.3 153.35 1627.92 145.45 1640.3 153.35 1656.63 175.93 1685.88 156.47 1652.93 209.52 1637.28 217.37 1614.53 217.37"/><path class="cls-2" d="M1673.45,119.34a116.31,116.31,0,0,1,4.78,22.85l4.76-17.86Z"/><polygon class="cls-1" points="1641.94 177.51 1653.23 208.16 1686.95 255.08 1698.95 262.33 1721.7 262.33 1737.35 254.47 1770.3 201.43 1798.36 149.81 1767.7 167.36 1743.1 153.41 1742.53 111.06 1720.28 89.67 1697.6 103.05 1683.63 145.13 1657.92 169.59 1640.51 153.79 1641.94 177.51"/><path class="cls-2" d="M1657.23,199.66l5.59,2.81s.22-24.79,7.39-43.13l-12.29,10.25-10.15-9.27C1645.22,180,1657.23,199.66,1657.23,199.66Z"/><path class="cls-48" d="M1662.82,202.47l20.83,12,14.67-19.84h28.33l15.17,21.84,18.06-12.21,3.77-2.46s1.27-61.22-38.81-79.94a28.45,28.45,0,0,0-23.51-.36C1662,138.87,1662.82,202.47,1662.82,202.47Z"/><polygon class="cls-1" points="1698.32 194.63 1712.43 186.17 1726.65 194.63 1698.32 194.63"/><polygon class="cls-2" points="1699.04 262.33 1684.29 219.58 1699.81 198.31 1712.43 190.4 1724.81 198.31 1741.13 220.89 1770.38 201.43 1737.43 254.47 1721.79 262.33 1699.04 262.33"/><path class="cls-2" d="M1758,164.29a117.44,117.44,0,0,1,4.78,22.85l4.76-17.86Z"/><polygon class="cls-1" points="1457.49 177.29 1468.78 207.94 1502.51 254.85 1514.51 262.11 1537.25 262.11 1552.9 254.25 1585.85 201.21 1613.91 149.59 1583.26 167.14 1558.65 153.19 1558.08 110.84 1535.83 89.45 1513.15 102.82 1499.19 144.91 1473.47 169.36 1456.06 153.57 1457.49 177.29"/><path class="cls-2" d="M1472.78,199.44l5.59,2.81s.22-24.79,7.39-43.13l-12.29,10.24-10.14-9.27C1460.77,179.79,1472.78,199.44,1472.78,199.44Z"/><path class="cls-49" d="M1478.37,202.25l20.83,12,14.67-19.84h28.33l15.17,21.84L1575.44,204l3.76-2.46s1.27-61.22-38.81-79.94a28.45,28.45,0,0,0-23.51-.36C1477.53,138.64,1478.37,202.25,1478.37,202.25Z"/><polygon class="cls-1" points="1513.87 194.41 1527.98 185.95 1542.2 194.41 1513.87 194.41"/><polygon class="cls-2" points="1514.59 262.11 1499.84 219.35 1515.36 198.09 1527.98 190.18 1540.36 198.09 1556.69 220.66 1585.94 201.21 1552.99 254.25 1537.34 262.11 1514.59 262.11"/><path class="cls-2" d="M1573.51,164.07a116.31,116.31,0,0,1,4.78,22.85l4.76-17.86Z"/><polygon class="cls-1" points="1542 222.25 1553.29 252.89 1587.01 299.81 1599.01 307.06 1621.76 307.06 1637.41 299.2 1670.36 246.16 1698.42 194.55 1667.76 212.09 1643.16 198.14 1642.59 155.79 1620.34 134.4 1597.66 147.78 1583.69 189.87 1557.98 214.32 1540.57 198.52 1542 222.25"/><path class="cls-2" d="M1557.29,244.39l5.59,2.81s.22-24.79,7.39-43.12L1558,214.32l-10.15-9.27C1545.28,224.74,1557.29,244.39,1557.29,244.39Z"/><path class="cls-50" d="M1562.88,247.2l20.83,12,14.67-19.83h28.33l15.17,21.83L1659.94,249l3.77-2.46s1.27-61.22-38.81-79.94a28.45,28.45,0,0,0-23.51-.36C1562,183.6,1562.88,247.2,1562.88,247.2Z"/><polygon class="cls-1" points="1598.38 239.37 1612.49 230.9 1626.71 239.37 1598.38 239.37"/><polygon class="cls-2" points="1599.1 307.06 1584.35 264.31 1599.87 243.04 1612.49 235.13 1624.87 243.04 1641.19 265.62 1670.44 246.16 1637.49 299.2 1621.85 307.06 1599.1 307.06"/><path class="cls-2" d="M1658,209a117.21,117.21,0,0,1,4.78,22.85l4.76-17.87Z"/><polygon class="cls-1" points="1726.31 222.29 1737.6 252.93 1771.32 299.85 1783.32 307.1 1806.07 307.1 1821.72 299.25 1854.67 246.21 1882.73 194.59 1852.07 212.14 1827.46 198.19 1826.89 155.84 1804.64 134.45 1781.96 147.82 1768 189.91 1742.29 214.36 1724.88 198.57 1726.31 222.29"/><path class="cls-2" d="M1741.59,244.44l5.59,2.8s.23-24.79,7.4-43.12l-12.29,10.24-10.15-9.27C1729.58,224.79,1741.59,244.44,1741.59,244.44Z"/><path class="cls-51" d="M1747.18,247.24l20.84,12,14.66-19.83H1811l15.16,21.83,18.07-12.2,3.77-2.46s1.26-61.23-38.82-80a28.47,28.47,0,0,0-23.5-.35C1746.35,183.64,1747.18,247.24,1747.18,247.24Z"/><polygon class="cls-1" points="1782.68 239.41 1796.8 230.94 1811.02 239.41 1782.68 239.41"/><polygon class="cls-2" points="1783.4 307.1 1768.65 264.35 1784.17 243.08 1796.8 235.18 1809.17 243.08 1825.5 265.66 1854.75 246.21 1821.8 299.25 1806.15 307.1 1783.4 307.1"/><path class="cls-2" d="M1842.33,209.07a116.82,116.82,0,0,1,4.77,22.85l4.77-17.86Z"/><polygon class="cls-1" points="1626.37 267.02 1637.66 297.67 1671.38 344.58 1683.38 351.83 1706.13 351.83 1721.78 343.98 1754.73 290.94 1782.79 239.32 1752.13 256.87 1727.52 242.92 1726.95 200.57 1704.7 179.18 1682.02 192.55 1668.06 234.64 1642.35 259.09 1624.94 243.3 1626.37 267.02"/><path class="cls-2" d="M1641.65,289.17l5.59,2.81s.23-24.79,7.4-43.13l-12.29,10.24-10.15-9.27C1629.64,269.52,1641.65,289.17,1641.65,289.17Z"/><path class="cls-52" d="M1647.24,292l20.84,12,14.66-19.84h28.34L1726.24,306l18.07-12.21,3.77-2.46s1.26-61.22-38.82-79.94a28.43,28.43,0,0,0-23.5-.36C1646.41,228.37,1647.24,292,1647.24,292Z"/><polygon class="cls-1" points="1682.74 284.14 1696.86 275.68 1711.08 284.14 1682.74 284.14"/><polygon class="cls-2" points="1683.46 351.83 1668.71 309.08 1684.23 287.82 1696.86 279.91 1709.23 287.82 1725.56 310.39 1754.81 290.94 1721.86 343.98 1706.21 351.83 1683.46 351.83"/><path class="cls-2" d="M1742.39,253.8a116.82,116.82,0,0,1,4.77,22.85l4.77-17.86Z"/><polygon class="cls-1" points="1810.63 266.98 1821.92 297.63 1855.65 344.54 1867.65 351.79 1890.4 351.79 1906.05 343.94 1939 290.9 1967.06 239.28 1936.4 256.83 1911.79 242.88 1911.22 200.53 1888.97 179.14 1866.29 192.51 1852.33 234.6 1826.62 259.05 1809.21 243.26 1810.63 266.98"/><path class="cls-2" d="M1825.92,289.13l5.59,2.8s.23-24.79,7.39-43.12l-12.28,10.24-10.15-9.27C1813.91,269.48,1825.92,289.13,1825.92,289.13Z"/><path class="cls-53" d="M1831.51,291.93l20.84,12L1867,284.1h28.34l15.16,21.83,18.07-12.2,3.77-2.46s1.26-61.22-38.82-79.94A28.43,28.43,0,0,0,1870,211C1830.67,228.33,1831.51,291.93,1831.51,291.93Z"/><polygon class="cls-1" points="1867.01 284.1 1881.12 275.64 1895.35 284.1 1867.01 284.1"/><polygon class="cls-2" points="1867.73 351.79 1852.98 309.04 1868.5 287.77 1881.12 279.87 1893.5 287.77 1909.83 310.35 1939.08 290.9 1906.13 343.94 1890.48 351.79 1867.73 351.79"/><path class="cls-2" d="M1926.66,253.76a116.82,116.82,0,0,1,4.77,22.85l4.77-17.86Z"/><polygon class="cls-1" points="1710.69 311.71 1721.98 342.36 1755.71 389.27 1767.71 396.52 1790.46 396.52 1806.11 388.67 1839.06 335.63 1867.12 284.01 1836.46 301.56 1811.85 287.61 1811.28 245.26 1789.03 223.87 1766.35 237.24 1752.39 279.33 1726.68 303.78 1709.27 287.99 1710.69 311.71"/><path class="cls-2" d="M1726,333.86l5.59,2.81s.23-24.79,7.39-43.13l-12.28,10.24-10.15-9.26C1714,314.21,1726,333.86,1726,333.86Z"/><path class="cls-54" d="M1731.57,336.67l20.84,12,14.66-19.84h28.34l15.16,21.84,18.07-12.21,3.77-2.46s1.26-61.22-38.82-79.94a28.43,28.43,0,0,0-23.5-.36C1730.73,273.06,1731.57,336.67,1731.57,336.67Z"/><polygon class="cls-1" points="1767.07 328.83 1781.18 320.37 1795.41 328.83 1767.07 328.83"/><polygon class="cls-2" points="1767.79 396.52 1753.04 353.77 1768.56 332.51 1781.18 324.6 1793.56 332.51 1809.89 355.09 1839.14 335.63 1806.19 388.67 1790.54 396.52 1767.79 396.52"/><path class="cls-2" d="M1826.72,298.49a116.82,116.82,0,0,1,4.77,22.85l4.77-17.86Z"/><polygon class="cls-1" points="1895 311.76 1906.29 342.4 1940.01 389.32 1952.01 396.57 1974.76 396.57 1990.41 388.71 2023.36 335.67 2051.42 284.06 2020.76 301.6 1996.16 287.65 1995.59 245.3 1973.34 223.92 1950.66 237.29 1936.69 279.38 1910.98 303.83 1893.57 288.04 1895 311.76"/><path class="cls-2" d="M1910.29,333.9l5.59,2.81s.22-24.79,7.39-43.12L1911,303.83l-10.15-9.27C1898.28,314.25,1910.29,333.9,1910.29,333.9Z"/><path class="cls-55" d="M1915.88,336.71l20.83,12,14.67-19.83h28.33l15.17,21.83,18.07-12.2,3.76-2.47s1.27-61.22-38.81-79.94a28.53,28.53,0,0,0-23.51-.36C1915,273.11,1915.88,336.71,1915.88,336.71Z"/><polygon class="cls-1" points="1951.38 328.88 1965.49 320.41 1979.71 328.88 1951.38 328.88"/><polygon class="cls-2" points="1952.1 396.57 1937.35 353.82 1952.87 332.55 1965.49 324.64 1977.87 332.55 1994.19 355.13 2023.44 335.67 1990.49 388.71 1974.85 396.57 1952.1 396.57"/><path class="cls-2" d="M2011,298.54a116.31,116.31,0,0,1,4.78,22.85l4.76-17.87Z"/><polygon class="cls-1" points="1795.06 356.49 1806.35 387.13 1840.07 434.05 1852.07 441.3 1874.82 441.3 1890.47 433.45 1923.42 380.4 1951.48 328.79 1920.82 346.34 1896.22 332.39 1895.65 290.04 1873.4 268.65 1850.72 282.02 1836.76 324.11 1811.04 348.56 1793.63 332.77 1795.06 356.49"/><path class="cls-2" d="M1810.35,378.63l5.59,2.81s.22-24.79,7.39-43.12L1811,348.56l-10.15-9.27C1798.34,359,1810.35,378.63,1810.35,378.63Z"/><path class="cls-56" d="M1815.94,381.44l20.83,12,14.67-19.83h28.33l15.17,21.83,18.07-12.2,3.76-2.46s1.27-61.23-38.81-79.95a28.53,28.53,0,0,0-23.51-.36C1815.1,317.84,1815.94,381.44,1815.94,381.44Z"/><polygon class="cls-1" points="1851.44 373.61 1865.55 365.14 1879.77 373.61 1851.44 373.61"/><polygon class="cls-2" points="1852.16 441.3 1837.41 398.55 1852.93 377.28 1865.55 369.38 1877.93 377.28 1894.26 399.86 1923.51 380.4 1890.56 433.45 1874.91 441.3 1852.16 441.3"/><path class="cls-2" d="M1911.08,343.27a116.31,116.31,0,0,1,4.78,22.85l4.76-17.87Z"/><polygon class="cls-1" points="1979.33 356.33 1990.62 386.98 2024.35 433.89 2036.35 441.14 2059.09 441.14 2074.74 433.29 2107.69 380.25 2135.76 328.63 2105.1 346.18 2080.49 332.23 2079.92 289.88 2057.67 268.49 2034.99 281.86 2021.03 323.95 1995.32 348.4 1977.9 332.61 1979.33 356.33"/><path class="cls-2" d="M1994.62,378.48l5.59,2.81s.23-24.8,7.39-43.13l-12.29,10.24-10.14-9.27C1982.61,358.83,1994.62,378.48,1994.62,378.48Z"/><path class="cls-57" d="M2000.21,381.29l20.83,12,14.67-19.84H2064l15.17,21.84,18.07-12.21,3.76-2.46s1.27-61.22-38.81-79.94a28.45,28.45,0,0,0-23.51-.36C1999.37,317.68,2000.21,381.29,2000.21,381.29Z"/><polygon class="cls-1" points="2035.71 373.45 2049.82 364.99 2064.04 373.45 2035.71 373.45"/><polygon class="cls-2" points="2036.43 441.14 2021.68 398.39 2037.2 377.13 2049.82 369.22 2062.2 377.13 2078.53 399.7 2107.78 380.25 2074.83 433.29 2059.18 441.14 2036.43 441.14"/><path class="cls-2" d="M2095.35,343.11a116.31,116.31,0,0,1,4.78,22.85l4.76-17.86Z"/><polygon class="cls-1" points="1879.39 401.06 1890.68 431.71 1924.41 478.63 1936.41 485.88 1959.16 485.88 1974.8 478.02 2007.75 424.98 2035.82 373.36 2005.16 390.91 1980.55 376.96 1979.98 334.61 1957.73 313.22 1935.05 326.6 1921.09 368.68 1895.38 393.13 1877.96 377.34 1879.39 401.06"/><path class="cls-2" d="M1894.68,423.21l5.59,2.81s.23-24.79,7.39-43.13l-12.28,10.24-10.15-9.26C1882.67,403.56,1894.68,423.21,1894.68,423.21Z"/><path class="cls-58" d="M1900.27,426l20.83,12,14.67-19.84h28.33L1979.27,440l18.07-12.21,3.76-2.46s1.27-61.22-38.81-79.94a28.45,28.45,0,0,0-23.51-.36C1899.43,362.41,1900.27,426,1900.27,426Z"/><polygon class="cls-1" points="1935.77 418.18 1949.88 409.72 1964.1 418.18 1935.77 418.18"/><polygon class="cls-2" points="1936.49 485.88 1921.74 443.13 1937.26 421.86 1949.88 413.95 1962.26 421.86 1978.59 444.44 2007.84 424.98 1974.89 478.02 1959.24 485.88 1936.49 485.88"/><path class="cls-2" d="M1995.41,387.84a116.31,116.31,0,0,1,4.78,22.85l4.76-17.86Z"/><polygon class="cls-1" points="2063.7 401.11 2074.99 431.75 2108.71 478.67 2120.71 485.92 2143.46 485.92 2159.11 478.06 2192.06 425.02 2220.12 373.41 2189.46 390.95 2164.86 377.01 2164.29 334.65 2142.04 313.27 2119.36 326.64 2105.39 368.73 2079.68 393.18 2062.27 377.39 2063.7 401.11"/><path class="cls-2" d="M2079,423.25l5.59,2.81s.22-24.79,7.39-43.12l-12.29,10.24-10.15-9.27C2067,403.6,2079,423.25,2079,423.25Z"/><path class="cls-59" d="M2084.58,426.06l20.83,12,14.67-19.83h28.33l15.17,21.83,18.06-12.2,3.77-2.47s1.27-61.22-38.82-79.94a28.5,28.5,0,0,0-23.5-.36C2083.74,362.46,2084.58,426.06,2084.58,426.06Z"/><polygon class="cls-1" points="2120.08 418.23 2134.19 409.76 2148.41 418.23 2120.08 418.23"/><polygon class="cls-2" points="2120.8 485.92 2106.05 443.17 2121.56 421.9 2134.19 414 2146.56 421.9 2162.89 444.48 2192.14 425.02 2159.19 478.06 2143.55 485.92 2120.8 485.92"/><path class="cls-2" d="M2179.72,387.89a116.82,116.82,0,0,1,4.77,22.85l4.77-17.87Z"/><polygon class="cls-1" points="1963.76 445.84 1975.05 476.48 2008.77 523.4 2020.77 530.65 2043.52 530.65 2059.17 522.8 2092.12 469.75 2120.18 418.14 2089.52 435.69 2064.91 421.74 2064.35 379.38 2042.1 358 2019.41 371.37 2005.45 413.46 1979.74 437.91 1962.33 422.12 1963.76 445.84"/><path class="cls-2" d="M1979.05,468l5.59,2.81s.22-24.79,7.39-43.12l-12.29,10.24-10.15-9.27C1967,448.33,1979.05,468,1979.05,468Z"/><path class="cls-60" d="M1984.64,470.79l20.83,12L2020.14,463h28.33l15.17,21.83,18.06-12.2,3.77-2.46s1.27-61.23-38.82-79.95a28.5,28.5,0,0,0-23.5-.36C1983.8,407.19,1984.64,470.79,1984.64,470.79Z"/><polygon class="cls-1" points="2020.14 462.96 2034.25 454.5 2048.47 462.96 2020.14 462.96"/><polygon class="cls-2" points="2020.86 530.65 2006.11 487.9 2021.62 466.63 2034.25 458.73 2046.62 466.63 2062.95 489.21 2092.2 469.75 2059.25 522.8 2043.61 530.65 2020.86 530.65"/><path class="cls-2" d="M2079.78,432.62a116.82,116.82,0,0,1,4.77,22.85l4.77-17.87Z"/><polygon class="cls-1" points="1357.48 222.07 1368.77 252.72 1402.49 299.64 1414.49 306.89 1437.24 306.89 1452.89 299.03 1485.84 245.99 1513.9 194.37 1483.24 211.92 1458.64 197.97 1458.07 155.62 1435.82 134.23 1413.14 147.6 1399.18 189.69 1373.46 214.15 1356.06 198.35 1357.48 222.07"/><path class="cls-2" d="M1372.77,244.22l5.59,2.81s.23-24.79,7.39-43.13l-12.29,10.24-10.14-9.26C1360.76,224.57,1372.77,244.22,1372.77,244.22Z"/><path class="cls-61" d="M1378.36,247l20.83,12,14.67-19.84h28.33L1457.36,261l18.07-12.21,3.76-2.46s1.27-61.22-38.81-79.94a28.45,28.45,0,0,0-23.51-.36C1377.52,183.42,1378.36,247,1378.36,247Z"/><polygon class="cls-1" points="1413.86 239.19 1427.97 230.73 1442.19 239.19 1413.86 239.19"/><polygon class="cls-2" points="1414.58 306.89 1399.83 264.14 1415.35 242.87 1427.97 234.96 1440.35 242.87 1456.68 265.45 1485.93 245.99 1452.98 299.03 1437.33 306.89 1414.58 306.89"/><path class="cls-2" d="M1473.5,208.85a116.54,116.54,0,0,1,4.78,22.85l4.76-17.86Z"/><polygon class="cls-1" points="1441.99 267.03 1453.28 297.67 1487 344.59 1499 351.84 1521.75 351.84 1537.4 343.98 1570.35 290.94 1598.41 239.33 1567.75 256.87 1543.15 242.93 1542.58 200.57 1520.33 179.19 1497.65 192.56 1483.68 234.65 1457.97 259.1 1440.56 243.31 1441.99 267.03"/><path class="cls-2" d="M1457.28,289.17l5.59,2.81s.22-24.79,7.39-43.12L1458,259.1l-10.15-9.27C1445.27,269.52,1457.28,289.17,1457.28,289.17Z"/><path class="cls-62" d="M1462.87,292l20.83,12,14.67-19.83h28.33L1541.87,306l18.07-12.2,3.76-2.47s1.27-61.22-38.81-79.94a28.49,28.49,0,0,0-23.51-.36C1462,228.38,1462.87,292,1462.87,292Z"/><polygon class="cls-1" points="1498.37 284.15 1512.48 275.68 1526.7 284.15 1498.37 284.15"/><polygon class="cls-2" points="1499.09 351.84 1484.34 309.09 1499.86 287.82 1512.48 279.92 1524.86 287.82 1541.18 310.4 1570.43 290.94 1537.48 343.98 1521.84 351.84 1499.09 351.84"/><path class="cls-2" d="M1558,253.81a116.31,116.31,0,0,1,4.78,22.85l4.76-17.87Z"/><polygon class="cls-1" points="1257.54 266.81 1268.83 297.45 1302.56 344.37 1314.56 351.62 1337.31 351.62 1352.95 343.76 1385.9 290.72 1413.96 239.11 1383.31 256.65 1358.7 242.7 1358.13 200.35 1335.88 178.96 1313.2 192.34 1299.24 234.43 1273.53 258.88 1256.12 243.08 1257.54 266.81"/><path class="cls-2" d="M1272.83,289l5.59,2.81s.23-24.79,7.39-43.12l-12.29,10.24-10.14-9.27C1260.82,269.3,1272.83,289,1272.83,289Z"/><path class="cls-63" d="M1278.42,291.76l20.83,12,14.67-19.83h28.33l15.17,21.83,18.07-12.21,3.76-2.46s1.27-61.22-38.81-79.94a28.45,28.45,0,0,0-23.51-.36C1277.58,228.16,1278.42,291.76,1278.42,291.76Z"/><polygon class="cls-1" points="1313.92 283.93 1328.03 275.46 1342.25 283.93 1313.92 283.93"/><polygon class="cls-2" points="1314.64 351.62 1299.89 308.87 1315.41 287.6 1328.03 279.69 1340.41 287.6 1356.74 310.18 1385.99 290.72 1353.04 343.76 1337.39 351.62 1314.64 351.62"/><path class="cls-2" d="M1373.56,253.59a116.31,116.31,0,0,1,4.78,22.85l4.76-17.87Z"/><polygon class="cls-1" points="1342.05 311.76 1353.34 342.4 1387.06 389.32 1399.06 396.57 1421.81 396.57 1437.46 388.72 1470.41 335.67 1498.47 284.06 1467.81 301.61 1443.21 287.66 1442.64 245.3 1420.39 223.92 1397.71 237.29 1383.75 279.38 1358.03 303.83 1340.62 288.04 1342.05 311.76"/><path class="cls-2" d="M1357.34,333.9l5.59,2.81s.22-24.79,7.39-43.12L1358,303.83l-10.15-9.27C1345.33,314.25,1357.34,333.9,1357.34,333.9Z"/><path class="cls-64" d="M1362.93,336.71l20.83,12,14.67-19.83h28.33l15.17,21.83,18.07-12.2,3.76-2.46S1465,274.82,1425,256.1a28.53,28.53,0,0,0-23.51-.36C1362.09,273.11,1362.93,336.71,1362.93,336.71Z"/><polygon class="cls-1" points="1398.43 328.88 1412.54 320.41 1426.76 328.88 1398.43 328.88"/><polygon class="cls-2" points="1399.15 396.57 1384.4 353.82 1399.92 332.55 1412.54 324.65 1424.92 332.55 1441.25 355.13 1470.5 335.67 1437.55 388.72 1421.9 396.57 1399.15 396.57"/><path class="cls-2" d="M1458.07,298.54a116.31,116.31,0,0,1,4.78,22.85l4.76-17.87Z"/><polygon class="cls-1" points="1526.36 311.8 1537.65 342.45 1571.37 389.37 1583.37 396.62 1606.12 396.62 1621.77 388.76 1654.72 335.72 1682.78 284.1 1652.12 301.65 1627.51 287.7 1626.94 245.35 1604.69 223.96 1582.01 237.34 1568.05 279.42 1542.34 303.88 1524.93 288.08 1526.36 311.8"/><path class="cls-2" d="M1541.64,334l5.59,2.81s.23-24.79,7.4-43.13l-12.29,10.24-10.15-9.26C1529.64,314.3,1541.64,334,1541.64,334Z"/><path class="cls-65" d="M1547.23,336.76l20.84,12,14.66-19.84h28.34l15.16,21.84,18.07-12.21,3.77-2.46s1.26-61.22-38.82-79.94a28.43,28.43,0,0,0-23.5-.36C1546.4,273.15,1547.23,336.76,1547.23,336.76Z"/><polygon class="cls-1" points="1582.73 328.92 1596.85 320.46 1611.07 328.92 1582.73 328.92"/><polygon class="cls-2" points="1583.45 396.62 1568.7 353.87 1584.22 332.6 1596.85 324.69 1609.22 332.6 1625.55 355.18 1654.8 335.72 1621.85 388.76 1606.2 396.62 1583.45 396.62"/><path class="cls-2" d="M1642.38,298.58a117,117,0,0,1,4.77,22.85l4.77-17.86Z"/><polygon class="cls-1" points="1426.42 356.54 1437.71 387.18 1471.43 434.1 1483.43 441.35 1506.18 441.35 1521.83 433.49 1554.78 380.45 1582.84 328.84 1552.18 346.38 1527.57 332.43 1527 290.08 1504.75 268.69 1482.07 282.07 1468.11 324.15 1442.4 348.61 1424.99 332.81 1426.42 356.54"/><path class="cls-2" d="M1441.7,378.68l5.59,2.81s.23-24.79,7.4-43.13l-12.29,10.25-10.15-9.27C1429.7,359,1441.7,378.68,1441.7,378.68Z"/><path class="cls-66" d="M1447.29,381.49l20.84,12,14.66-19.83h28.34l15.16,21.83,18.07-12.21,3.77-2.46s1.26-61.22-38.82-79.94a28.43,28.43,0,0,0-23.5-.36C1446.46,317.89,1447.29,381.49,1447.29,381.49Z"/><polygon class="cls-1" points="1482.8 373.65 1496.91 365.19 1511.13 373.65 1482.8 373.65"/><polygon class="cls-2" points="1483.51 441.35 1468.76 398.6 1484.28 377.33 1496.91 369.42 1509.28 377.33 1525.61 399.91 1554.86 380.45 1521.91 433.49 1506.26 441.35 1483.51 441.35"/><path class="cls-2" d="M1542.44,343.32a116.82,116.82,0,0,1,4.77,22.85L1552,348.3Z"/><polygon class="cls-1" points="1610.68 356.49 1621.97 387.14 1655.7 434.06 1667.7 441.31 1690.45 441.31 1706.1 433.45 1739.05 380.41 1767.11 328.8 1736.45 346.34 1711.84 332.39 1711.27 290.04 1689.02 268.65 1666.34 282.03 1652.38 324.12 1626.67 348.56 1609.26 332.77 1610.68 356.49"/><path class="cls-2" d="M1626,378.64l5.59,2.81s.23-24.79,7.4-43.13l-12.29,10.25-10.15-9.27C1614,359,1626,378.64,1626,378.64Z"/><path class="cls-67" d="M1631.56,381.45l20.84,12,14.66-19.84h28.34l15.16,21.84,18.07-12.21,3.77-2.46s1.26-61.22-38.82-79.94a28.43,28.43,0,0,0-23.5-.36C1630.72,317.85,1631.56,381.45,1631.56,381.45Z"/><polygon class="cls-1" points="1667.06 373.62 1681.17 365.15 1695.4 373.62 1667.06 373.62"/><polygon class="cls-2" points="1667.78 441.31 1653.03 398.56 1668.55 377.29 1681.17 369.38 1693.55 377.29 1709.88 399.87 1739.13 380.41 1706.18 433.45 1690.53 441.31 1667.78 441.31"/><path class="cls-2" d="M1726.71,343.27a117,117,0,0,1,4.77,22.86l4.77-17.87Z"/><polygon class="cls-1" points="1510.74 401.23 1522.04 431.87 1555.76 478.79 1567.76 486.04 1590.51 486.04 1606.16 478.18 1639.11 425.14 1667.17 373.53 1636.51 391.07 1611.9 377.12 1611.33 334.77 1589.08 313.38 1566.4 326.76 1552.44 368.85 1526.73 393.3 1509.32 377.5 1510.74 401.23"/><path class="cls-2" d="M1526,423.37l5.59,2.81s.23-24.79,7.4-43.12l-12.29,10.24L1516.58,384C1514,403.72,1526,423.37,1526,423.37Z"/><path class="cls-68" d="M1531.62,426.18l20.84,12,14.66-19.83h28.34l15.16,21.83L1628.69,428l3.77-2.46s1.26-61.22-38.82-79.94a28.43,28.43,0,0,0-23.5-.36C1530.78,362.58,1531.62,426.18,1531.62,426.18Z"/><polygon class="cls-1" points="1567.12 418.35 1581.23 409.88 1595.46 418.35 1567.12 418.35"/><polygon class="cls-2" points="1567.84 486.04 1553.09 443.29 1568.61 422.02 1581.23 414.11 1593.61 422.02 1609.94 444.6 1639.19 425.14 1606.24 478.18 1590.59 486.04 1567.84 486.04"/><path class="cls-2" d="M1626.77,388a116.82,116.82,0,0,1,4.77,22.85l4.77-17.87Z"/><polygon class="cls-1" points="1695.05 401.27 1706.34 431.92 1740.07 478.83 1752.07 486.08 1774.82 486.08 1790.46 478.23 1823.41 425.19 1851.47 373.57 1820.82 391.12 1796.21 377.17 1795.64 334.82 1773.39 313.43 1750.71 326.8 1736.75 368.89 1711.03 393.34 1693.62 377.55 1695.05 401.27"/><path class="cls-2" d="M1710.34,423.42l5.59,2.8s.22-24.79,7.39-43.12L1711,393.34l-10.14-9.27C1698.33,403.77,1710.34,423.42,1710.34,423.42Z"/><path class="cls-69" d="M1715.93,426.22l20.83,12,14.67-19.83h28.33l15.17,21.83L1813,428l3.76-2.46s1.27-61.23-38.81-79.95a28.49,28.49,0,0,0-23.51-.35C1715.09,362.62,1715.93,426.22,1715.93,426.22Z"/><polygon class="cls-1" points="1751.43 418.39 1765.54 409.93 1779.76 418.39 1751.43 418.39"/><polygon class="cls-2" points="1752.15 486.08 1737.4 443.33 1752.92 422.06 1765.54 414.16 1777.92 422.06 1794.25 444.64 1823.5 425.19 1790.55 478.23 1774.9 486.08 1752.15 486.08"/><path class="cls-2" d="M1811.07,388.05a116.31,116.31,0,0,1,4.78,22.85l4.76-17.86Z"/><polygon class="cls-1" points="1595.11 446 1606.4 476.65 1640.13 523.57 1652.13 530.82 1674.88 530.82 1690.52 522.96 1723.47 469.92 1751.53 418.3 1720.88 435.85 1696.27 421.9 1695.7 379.55 1673.45 358.16 1650.77 371.53 1636.81 413.62 1611.09 438.07 1593.68 422.28 1595.11 446"/><path class="cls-2" d="M1610.4,468.15,1616,471s.23-24.79,7.39-43.13l-12.29,10.24L1601,428.8C1598.39,448.5,1610.4,468.15,1610.4,468.15Z"/><path class="cls-70" d="M1616,471l20.83,12,14.67-19.84h28.33L1695,485l18.07-12.21,3.76-2.46s1.27-61.22-38.81-79.94a28.45,28.45,0,0,0-23.51-.36C1615.15,407.35,1616,471,1616,471Z"/><polygon class="cls-1" points="1651.49 463.12 1665.6 454.66 1679.82 463.12 1651.49 463.12"/><polygon class="cls-2" points="1652.21 530.82 1637.46 488.06 1652.98 466.8 1665.6 458.89 1677.98 466.8 1694.31 489.38 1723.56 469.92 1690.61 522.96 1674.96 530.82 1652.21 530.82"/><path class="cls-2" d="M1711.13,432.78a116.31,116.31,0,0,1,4.78,22.85l4.76-17.86Z"/><polygon class="cls-1" points="1779.38 445.84 1790.67 476.49 1824.4 523.41 1836.4 530.66 1859.15 530.66 1874.79 522.8 1907.74 469.76 1935.81 418.14 1905.15 435.69 1880.54 421.74 1879.97 379.39 1857.72 358 1835.04 371.38 1821.08 413.46 1795.37 437.92 1777.96 422.12 1779.38 445.84"/><path class="cls-2" d="M1794.67,468l5.59,2.81s.23-24.79,7.39-43.13l-12.28,10.25-10.15-9.27C1782.66,448.34,1794.67,468,1794.67,468Z"/><path class="cls-71" d="M1800.26,470.8l20.83,12L1835.76,463h28.33l15.17,21.83,18.07-12.21,3.76-2.46s1.27-61.22-38.81-79.94a28.45,28.45,0,0,0-23.51-.36C1799.42,407.2,1800.26,470.8,1800.26,470.8Z"/><polygon class="cls-1" points="1835.76 462.96 1849.87 454.5 1864.09 462.96 1835.76 462.96"/><polygon class="cls-2" points="1836.48 530.66 1821.73 487.91 1837.25 466.64 1849.87 458.73 1862.25 466.64 1878.58 489.22 1907.83 469.76 1874.88 522.8 1859.23 530.66 1836.48 530.66"/><path class="cls-2" d="M1895.4,432.62a116.54,116.54,0,0,1,4.78,22.86l4.76-17.87Z"/><polygon class="cls-1" points="1679.44 490.58 1690.73 521.22 1724.46 568.14 1736.46 575.39 1759.21 575.39 1774.86 567.53 1807.81 514.49 1835.87 462.88 1805.21 480.42 1780.6 466.47 1780.03 424.12 1757.78 402.73 1735.1 416.11 1721.14 458.2 1695.43 482.65 1678.02 466.86 1679.44 490.58"/><path class="cls-2" d="M1694.73,512.72l5.59,2.81s.23-24.79,7.39-43.12l-12.28,10.24-10.15-9.27C1682.72,493.07,1694.73,512.72,1694.73,512.72Z"/><path class="cls-72" d="M1700.32,515.53l20.83,12,14.67-19.83h28.33l15.17,21.83,18.07-12.21,3.76-2.46s1.27-61.22-38.81-79.94a28.45,28.45,0,0,0-23.51-.36C1699.48,451.93,1700.32,515.53,1700.32,515.53Z"/><polygon class="cls-1" points="1735.82 507.7 1749.93 499.23 1764.15 507.7 1735.82 507.7"/><polygon class="cls-2" points="1736.54 575.39 1721.79 532.64 1737.31 511.37 1749.93 503.46 1762.31 511.37 1778.64 533.95 1807.89 514.49 1774.94 567.53 1759.29 575.39 1736.54 575.39"/><path class="cls-2" d="M1795.46,477.36a116.31,116.31,0,0,1,4.78,22.85l4.76-17.87Z"/><polygon class="cls-1" points="1863.75 490.62 1875.04 521.26 1908.76 568.18 1920.76 575.43 1943.51 575.43 1959.16 567.58 1992.11 514.54 2020.17 462.92 1989.51 480.47 1964.91 466.52 1964.34 424.17 1942.09 402.78 1919.41 416.15 1905.44 458.24 1879.73 482.69 1862.32 466.9 1863.75 490.62"/><path class="cls-2" d="M1879,512.77l5.59,2.8s.22-24.79,7.39-43.12l-12.29,10.24-10.15-9.27C1867,493.12,1879,512.77,1879,512.77Z"/><path class="cls-73" d="M1884.63,515.57l20.83,12,14.67-19.83h28.33l15.17,21.83,18.06-12.2,3.77-2.46s1.27-61.22-38.82-79.94a28.43,28.43,0,0,0-23.5-.36C1883.79,452,1884.63,515.57,1884.63,515.57Z"/><polygon class="cls-1" points="1920.13 507.74 1934.24 499.28 1948.46 507.74 1920.13 507.74"/><polygon class="cls-2" points="1920.85 575.43 1906.1 532.68 1921.61 511.42 1934.24 503.51 1946.61 511.42 1962.94 533.99 1992.19 514.54 1959.24 567.58 1943.6 575.43 1920.85 575.43"/><path class="cls-2" d="M1979.77,477.4a116.82,116.82,0,0,1,4.77,22.85l4.77-17.86Z"/><polygon class="cls-1" points="1763.81 535.35 1775.1 566 1808.82 612.91 1820.82 620.16 1843.57 620.16 1859.22 612.31 1892.17 559.27 1920.23 507.65 1889.57 525.2 1864.97 511.25 1864.4 468.9 1842.15 447.51 1819.47 460.88 1805.5 502.97 1779.79 527.42 1762.38 511.63 1763.81 535.35"/><path class="cls-2" d="M1779.1,557.5l5.59,2.81s.22-24.79,7.39-43.13l-12.29,10.24-10.15-9.26C1767.09,537.85,1779.1,557.5,1779.1,557.5Z"/><path class="cls-74" d="M1784.69,560.31l20.83,12,14.67-19.84h28.33l15.17,21.84,18.06-12.21,3.77-2.46s1.27-61.22-38.81-79.94a28.45,28.45,0,0,0-23.51-.36C1783.85,496.7,1784.69,560.31,1784.69,560.31Z"/><polygon class="cls-1" points="1820.19 552.47 1834.3 544.01 1848.52 552.47 1820.19 552.47"/><polygon class="cls-2" points="1820.91 620.16 1806.16 577.41 1821.67 556.15 1834.3 548.24 1846.67 556.15 1863 578.73 1892.25 559.27 1859.3 612.31 1843.66 620.16 1820.91 620.16"/><path class="cls-2" d="M1879.83,522.13A116.82,116.82,0,0,1,1884.6,545l4.77-17.86Z"/><path class="cls-75" d="M2299.87,306.38H2292v-7.83a3.58,3.58,0,1,0-7.16,0v7.83H2277a3.59,3.59,0,0,0,0,7.17h7.84v7.83a3.58,3.58,0,0,0,7.16,0v-7.83h7.84a3.59,3.59,0,0,0,0-7.17Z"/><rect class="cls-75" x="1171.9" y="298.26" width="34" height="4.84" rx="2.42" ry="2.42"/><rect class="cls-75" x="1171.9" y="308.42" width="34" height="4.84" rx="2.42" ry="2.42"/></g></svg>