<svg xmlns="http://www.w3.org/2000/svg" xmlns:xlink="http://www.w3.org/1999/xlink" viewBox="0 0 1582.47 575.45"><defs><style>.cls-1{fill:#62abbc;}.cls-2{fill:#3d838e;opacity:0.51;}.cls-3{fill:url(#linear-gradient);}.cls-4{fill:url(#linear-gradient-2);}.cls-5{fill:url(#linear-gradient-3);}.cls-6{fill:url(#linear-gradient-4);}.cls-7{fill:url(#linear-gradient-5);}.cls-8{fill:url(#linear-gradient-6);}.cls-9{fill:url(#linear-gradient-7);}.cls-10{fill:url(#linear-gradient-8);}.cls-11{fill:url(#linear-gradient-9);}.cls-12{fill:url(#linear-gradient-10);}.cls-13{fill:url(#linear-gradient-11);}.cls-14{fill:url(#linear-gradient-12);}.cls-15{fill:url(#linear-gradient-13);}.cls-16{fill:url(#linear-gradient-14);}.cls-17{fill:url(#linear-gradient-15);}.cls-18{fill:url(#linear-gradient-16);}.cls-19{fill:url(#linear-gradient-17);}.cls-20{fill:url(#linear-gradient-18);}.cls-21{fill:url(#linear-gradient-19);}.cls-22{fill:url(#linear-gradient-20);}.cls-23{fill:url(#linear-gradient-21);}.cls-24{fill:url(#linear-gradient-22);}.cls-25{fill:url(#linear-gradient-23);}.cls-26{fill:url(#linear-gradient-24);}.cls-27{fill:url(#linear-gradient-25);}.cls-28{fill:url(#linear-gradient-26);}.cls-29{fill:url(#linear-gradient-27);}.cls-30{fill:url(#linear-gradient-28);}.cls-31{fill:url(#linear-gradient-29);}.cls-32{fill:url(#linear-gradient-30);}.cls-33{fill:url(#linear-gradient-31);}.cls-34{fill:url(#linear-gradient-32);}.cls-35{fill:url(#linear-gradient-33);}.cls-36{fill:url(#linear-gradient-34);}.cls-37{fill:url(#linear-gradient-35);}.cls-38{fill:url(#linear-gradient-36);}.cls-39{fill:#f05023;}</style><linearGradient id="linear-gradient" x1="322.19" y1="78.13" x2="423.03" y2="78.13" gradientUnits="userSpaceOnUse"><stop offset="0" stop-color="#fbb040"/><stop offset="0.39" stop-color="#f9ae41"/><stop offset="0.59" stop-color="#f1a845"/><stop offset="0.74" stop-color="#e49e4b"/><stop offset="0.87" stop-color="#d18f55"/><stop offset="0.99" stop-color="#b97c60"/><stop offset="1" stop-color="#b67a62"/></linearGradient><linearGradient id="linear-gradient-2" x1="406.7" y1="123.08" x2="507.54" y2="123.08" xlink:href="#linear-gradient"/><linearGradient id="linear-gradient-3" x1="222.25" y1="122.86" x2="323.09" y2="122.86" xlink:href="#linear-gradient"/><linearGradient id="linear-gradient-4" x1="306.76" y1="167.81" x2="407.6" y2="167.81" xlink:href="#linear-gradient"/><linearGradient id="linear-gradient-5" x1="491.07" y1="167.86" x2="591.91" y2="167.86" xlink:href="#linear-gradient"/><linearGradient id="linear-gradient-6" x1="391.13" y1="212.59" x2="491.97" y2="212.59" xlink:href="#linear-gradient"/><linearGradient id="linear-gradient-7" x1="575.4" y1="212.55" x2="676.23" y2="212.55" xlink:href="#linear-gradient"/><linearGradient id="linear-gradient-8" x1="475.46" y1="257.28" x2="576.3" y2="257.28" xlink:href="#linear-gradient"/><linearGradient id="linear-gradient-9" x1="659.76" y1="257.33" x2="760.6" y2="257.33" xlink:href="#linear-gradient"/><linearGradient id="linear-gradient-10" x1="559.82" y1="302.06" x2="660.66" y2="302.06" xlink:href="#linear-gradient"/><linearGradient id="linear-gradient-11" x1="744.09" y1="301.9" x2="844.93" y2="301.9" xlink:href="#linear-gradient"/><linearGradient id="linear-gradient-12" x1="644.15" y1="346.63" x2="744.99" y2="346.63" xlink:href="#linear-gradient"/><linearGradient id="linear-gradient-13" x1="828.46" y1="346.68" x2="929.3" y2="346.68" xlink:href="#linear-gradient"/><linearGradient id="linear-gradient-14" x1="728.52" y1="391.41" x2="829.36" y2="391.41" xlink:href="#linear-gradient"/><linearGradient id="linear-gradient-15" x1="122.24" y1="167.64" x2="223.08" y2="167.64" xlink:href="#linear-gradient"/><linearGradient id="linear-gradient-16" x1="206.75" y1="212.6" x2="307.59" y2="212.6" xlink:href="#linear-gradient"/><linearGradient id="linear-gradient-17" x1="22.3" y1="212.37" x2="123.14" y2="212.37" xlink:href="#linear-gradient"/><linearGradient id="linear-gradient-18" x1="106.81" y1="257.33" x2="207.65" y2="257.33" xlink:href="#linear-gradient"/><linearGradient id="linear-gradient-19" x1="291.12" y1="257.37" x2="391.96" y2="257.37" xlink:href="#linear-gradient"/><linearGradient id="linear-gradient-20" x1="191.18" y1="302.1" x2="292.02" y2="302.1" xlink:href="#linear-gradient"/><linearGradient id="linear-gradient-21" x1="375.45" y1="302.06" x2="476.29" y2="302.06" xlink:href="#linear-gradient"/><linearGradient id="linear-gradient-22" x1="275.51" y1="346.79" x2="376.35" y2="346.79" xlink:href="#linear-gradient"/><linearGradient id="linear-gradient-23" x1="459.81" y1="346.84" x2="560.65" y2="346.84" xlink:href="#linear-gradient"/><linearGradient id="linear-gradient-24" x1="359.87" y1="391.57" x2="460.71" y2="391.57" xlink:href="#linear-gradient"/><linearGradient id="linear-gradient-25" x1="544.14" y1="391.41" x2="644.98" y2="391.41" xlink:href="#linear-gradient"/><linearGradient id="linear-gradient-26" x1="444.2" y1="436.14" x2="545.04" y2="436.14" xlink:href="#linear-gradient"/><linearGradient id="linear-gradient-27" x1="628.51" y1="436.19" x2="729.35" y2="436.19" xlink:href="#linear-gradient"/><linearGradient id="linear-gradient-28" x1="528.57" y1="480.92" x2="629.41" y2="480.92" xlink:href="#linear-gradient"/><linearGradient id="linear-gradient-29" x1="1193.72" y1="189.95" x2="1294.56" y2="189.95" xlink:href="#linear-gradient"/><linearGradient id="linear-gradient-30" x1="1278.23" y1="234.9" x2="1379.07" y2="234.9" xlink:href="#linear-gradient"/><linearGradient id="linear-gradient-31" x1="1093.78" y1="234.68" x2="1194.62" y2="234.68" xlink:href="#linear-gradient"/><linearGradient id="linear-gradient-32" x1="1178.29" y1="279.63" x2="1279.13" y2="279.63" xlink:href="#linear-gradient"/><linearGradient id="linear-gradient-33" x1="1362.59" y1="279.68" x2="1463.43" y2="279.68" xlink:href="#linear-gradient"/><linearGradient id="linear-gradient-34" x1="1262.65" y1="324.41" x2="1363.49" y2="324.41" xlink:href="#linear-gradient"/><linearGradient id="linear-gradient-35" x1="1446.92" y1="324.37" x2="1547.76" y2="324.37" xlink:href="#linear-gradient"/><linearGradient id="linear-gradient-36" x1="1346.98" y1="369.1" x2="1447.82" y2="369.1" xlink:href="#linear-gradient"/></defs><title>V5_R1</title><g id="Layer_2" data-name="Layer 2"><polygon class="cls-1" points="301.32 87.84 312.61 118.49 346.33 165.4 358.33 172.65 381.08 172.65 396.73 164.8 429.68 111.76 457.74 60.14 427.08 77.69 402.47 63.74 401.9 21.39 379.65 0 356.97 13.37 343.01 55.46 317.3 79.91 299.89 64.12 301.32 87.84"/><path class="cls-2" d="M316.6,110l5.59,2.81s.23-24.79,7.4-43.13L317.3,79.91l-10.15-9.27C304.59,90.34,316.6,110,316.6,110Z"/><path class="cls-3" d="M322.19,112.8l20.84,12L357.69,105H386l15.16,21.84,18.07-12.21,3.77-2.46s1.26-61.22-38.82-79.94a28.43,28.43,0,0,0-23.5-.36C321.36,49.19,322.19,112.8,322.19,112.8Z"/><polygon class="cls-1" points="357.69 104.96 371.81 96.5 386.03 104.96 357.69 104.96"/><polygon class="cls-2" points="358.41 172.65 343.66 129.9 359.18 108.64 371.81 100.73 384.18 108.64 400.51 131.22 429.76 111.76 396.81 164.8 381.16 172.65 358.41 172.65"/><path class="cls-2" d="M417.34,74.62a116.82,116.82,0,0,1,4.77,22.85l4.77-17.86Z"/><polygon class="cls-1" points="385.82 132.79 397.11 163.44 430.84 210.36 442.84 217.61 465.59 217.61 481.24 209.75 514.19 156.71 542.25 105.1 511.59 122.64 486.98 108.69 486.41 66.34 464.16 44.95 441.48 58.33 427.52 100.42 401.81 124.87 384.4 109.07 385.82 132.79"/><path class="cls-2" d="M401.11,154.94l5.59,2.81s.23-24.79,7.39-43.12l-12.28,10.24-10.15-9.27C389.1,135.29,401.11,154.94,401.11,154.94Z"/><path class="cls-4" d="M406.7,157.75l20.84,12,14.66-19.83h28.34l15.16,21.83,18.07-12.21,3.77-2.46s1.26-61.22-38.82-79.94a28.43,28.43,0,0,0-23.5-.36C405.86,94.15,406.7,157.75,406.7,157.75Z"/><polygon class="cls-1" points="442.2 149.92 456.31 141.45 470.54 149.92 442.2 149.92"/><polygon class="cls-2" points="442.92 217.61 428.17 174.86 443.69 153.59 456.31 145.68 468.69 153.59 485.02 176.17 514.27 156.71 481.32 209.75 465.67 217.61 442.92 217.61"/><path class="cls-2" d="M501.85,119.58a116.82,116.82,0,0,1,4.77,22.85l4.77-17.87Z"/><polygon class="cls-1" points="201.38 132.57 212.67 163.22 246.39 210.14 258.39 217.39 281.14 217.39 296.79 209.53 329.74 156.49 357.8 104.87 327.14 122.42 302.53 108.47 301.96 66.12 279.71 44.73 257.03 58.1 243.07 100.19 217.36 124.64 199.95 108.85 201.38 132.57"/><path class="cls-2" d="M216.66,154.72l5.59,2.81s.23-24.79,7.4-43.13l-12.29,10.24-10.15-9.26C204.65,135.07,216.66,154.72,216.66,154.72Z"/><path class="cls-5" d="M222.25,157.53l20.84,12,14.66-19.84h28.34l15.16,21.84,18.07-12.21,3.77-2.46s1.26-61.22-38.82-79.94a28.43,28.43,0,0,0-23.5-.36C221.42,93.92,222.25,157.53,222.25,157.53Z"/><polygon class="cls-1" points="257.75 149.69 271.87 141.23 286.09 149.69 257.75 149.69"/><polygon class="cls-2" points="258.47 217.39 243.72 174.64 259.24 153.37 271.87 145.46 284.24 153.37 300.57 175.95 329.82 156.49 296.87 209.53 281.22 217.39 258.47 217.39"/><path class="cls-2" d="M317.4,119.35a117,117,0,0,1,4.77,22.85l4.77-17.86Z"/><polygon class="cls-1" points="285.88 177.53 297.17 208.17 330.9 255.09 342.9 262.34 365.65 262.34 381.3 254.48 414.25 201.44 442.31 149.83 411.65 167.37 387.04 153.43 386.47 111.07 364.22 89.69 341.54 103.06 327.58 145.15 301.87 169.6 284.46 153.81 285.88 177.53"/><path class="cls-2" d="M301.17,199.67l5.59,2.81s.23-24.79,7.4-43.12L301.87,169.6l-10.15-9.27C289.16,180,301.17,199.67,301.17,199.67Z"/><path class="cls-6" d="M306.76,202.48l20.84,12,14.66-19.83H370.6l15.16,21.83,18.07-12.21,3.77-2.46s1.26-61.22-38.82-79.94a28.43,28.43,0,0,0-23.5-.36C305.92,138.88,306.76,202.48,306.76,202.48Z"/><polygon class="cls-1" points="342.26 194.65 356.38 186.18 370.6 194.65 342.26 194.65"/><polygon class="cls-2" points="342.98 262.34 328.23 219.59 343.75 198.32 356.38 190.41 368.75 198.32 385.08 220.9 414.33 201.44 381.38 254.48 365.73 262.34 342.98 262.34"/><path class="cls-2" d="M401.91,164.31a116.82,116.82,0,0,1,4.77,22.85l4.77-17.87Z"/><polygon class="cls-1" points="470.19 177.57 481.48 208.22 515.21 255.13 527.21 262.38 549.95 262.38 565.6 254.53 598.55 201.49 626.61 149.87 595.96 167.42 571.35 153.47 570.78 111.12 548.53 89.73 525.85 103.1 511.89 145.19 486.17 169.64 468.76 153.85 470.19 177.57"/><path class="cls-2" d="M485.48,199.72l5.59,2.81s.22-24.8,7.39-43.13l-12.29,10.24L476,160.37C473.47,180.07,485.48,199.72,485.48,199.72Z"/><path class="cls-7" d="M491.07,202.53l20.83,12,14.67-19.84H554.9l15.17,21.84,18.07-12.21,3.76-2.46s1.27-61.22-38.81-79.94a28.45,28.45,0,0,0-23.51-.36C490.23,138.92,491.07,202.53,491.07,202.53Z"/><polygon class="cls-1" points="526.57 194.69 540.68 186.23 554.9 194.69 526.57 194.69"/><polygon class="cls-2" points="527.29 262.38 512.54 219.63 528.06 198.37 540.68 190.46 553.06 198.37 569.39 220.94 598.64 201.49 565.69 254.53 550.04 262.38 527.29 262.38"/><path class="cls-2" d="M586.21,164.35A116.31,116.31,0,0,1,591,187.2l4.76-17.86Z"/><polygon class="cls-1" points="370.25 222.3 381.54 252.95 415.26 299.87 427.26 307.12 450.01 307.12 465.66 299.26 498.61 246.22 526.67 194.6 496.01 212.15 471.41 198.2 470.84 155.85 448.59 134.46 425.91 147.84 411.95 189.92 386.23 214.37 368.82 198.58 370.25 222.3"/><path class="cls-2" d="M385.54,244.45l5.59,2.81s.22-24.79,7.39-43.13l-12.29,10.24-10.14-9.26C373.53,224.8,385.54,244.45,385.54,244.45Z"/><path class="cls-8" d="M391.13,247.26l20.83,12,14.67-19.84H455l15.17,21.84,18.07-12.21,3.76-2.46s1.27-61.22-38.81-79.94a28.45,28.45,0,0,0-23.51-.36C390.29,183.65,391.13,247.26,391.13,247.26Z"/><polygon class="cls-1" points="426.63 239.42 440.74 230.96 454.96 239.42 426.63 239.42"/><polygon class="cls-2" points="427.35 307.12 412.6 264.37 428.12 243.1 440.74 235.19 453.12 243.1 469.45 265.68 498.7 246.22 465.75 299.26 450.1 307.12 427.35 307.12"/><path class="cls-2" d="M486.27,209.08a116.31,116.31,0,0,1,4.78,22.85l4.76-17.86Z"/><polygon class="cls-1" points="554.52 222.26 565.81 252.91 599.53 299.82 611.53 307.07 634.28 307.07 649.93 299.22 682.88 246.18 710.94 194.56 680.28 212.11 655.67 198.16 655.11 155.81 632.86 134.42 610.17 147.79 596.21 189.88 570.5 214.33 553.09 198.54 554.52 222.26"/><path class="cls-2" d="M569.81,244.41l5.59,2.81s.22-24.79,7.39-43.13L570.5,214.33l-10.15-9.27C557.8,224.76,569.81,244.41,569.81,244.41Z"/><path class="cls-9" d="M575.4,247.22l20.83,12,14.67-19.84h28.33l15.17,21.84L672.46,249l3.77-2.46s1.27-61.22-38.82-79.94a28.43,28.43,0,0,0-23.5-.36C574.56,183.61,575.4,247.22,575.4,247.22Z"/><polygon class="cls-1" points="610.9 239.38 625.01 230.92 639.23 239.38 610.9 239.38"/><polygon class="cls-2" points="611.62 307.07 596.87 264.32 612.38 243.06 625.01 235.15 637.38 243.06 653.71 265.63 682.96 246.18 650.01 299.22 634.37 307.07 611.62 307.07"/><path class="cls-2" d="M670.54,209a116.82,116.82,0,0,1,4.77,22.85L680.08,214Z"/><polygon class="cls-1" points="454.58 266.99 465.87 297.64 499.59 344.56 511.59 351.81 534.34 351.81 549.99 343.95 582.94 290.91 611 239.29 580.34 256.84 555.74 242.89 555.17 200.54 532.92 179.15 510.24 192.53 496.27 234.61 470.56 259.06 453.15 243.27 454.58 266.99"/><path class="cls-2" d="M469.87,289.14l5.59,2.81s.22-24.79,7.39-43.13l-12.29,10.25-10.15-9.27C457.86,269.49,469.87,289.14,469.87,289.14Z"/><path class="cls-10" d="M475.46,292l20.83,12L511,284.11h28.33L554.46,306l18.06-12.21,3.77-2.46s1.27-61.22-38.82-79.94A28.43,28.43,0,0,0,514,211C474.62,228.35,475.46,292,475.46,292Z"/><polygon class="cls-1" points="510.96 284.11 525.07 275.65 539.29 284.11 510.96 284.11"/><polygon class="cls-2" points="511.68 351.81 496.93 309.06 512.44 287.79 525.07 279.88 537.44 287.79 553.77 310.37 583.02 290.91 550.07 343.95 534.43 351.81 511.68 351.81"/><path class="cls-2" d="M570.6,253.77a117,117,0,0,1,4.77,22.85l4.77-17.86Z"/><polygon class="cls-1" points="638.88 267.04 650.17 297.68 683.9 344.6 695.9 351.85 718.65 351.85 734.3 344 767.25 290.95 795.31 239.34 764.65 256.89 740.04 242.94 739.47 200.58 717.22 179.2 694.54 192.57 680.58 234.66 654.87 259.11 637.46 243.32 638.88 267.04"/><path class="cls-2" d="M654.17,289.18l5.59,2.81s.23-24.79,7.4-43.12l-12.29,10.24-10.15-9.27C642.16,269.53,654.17,289.18,654.17,289.18Z"/><path class="cls-11" d="M659.76,292l20.84,12,14.66-19.83H723.6L738.76,306l18.07-12.2,3.77-2.46s1.26-61.23-38.82-79.95a28.5,28.5,0,0,0-23.5-.36C658.92,228.39,659.76,292,659.76,292Z"/><polygon class="cls-1" points="695.26 284.16 709.38 275.69 723.6 284.16 695.26 284.16"/><polygon class="cls-2" points="695.98 351.85 681.23 309.1 696.75 287.83 709.38 279.93 721.75 287.83 738.08 310.41 767.33 290.95 734.38 344 718.73 351.85 695.98 351.85"/><path class="cls-2" d="M754.91,253.82a116.82,116.82,0,0,1,4.77,22.85l4.77-17.87Z"/><polygon class="cls-1" points="538.95 311.77 550.24 342.41 583.96 389.33 595.96 396.58 618.71 396.58 634.36 388.73 667.31 335.69 695.37 284.07 664.71 301.62 640.1 287.67 639.53 245.32 617.28 223.93 594.6 237.3 580.64 279.39 554.93 303.84 537.52 288.05 538.95 311.77"/><path class="cls-2" d="M554.23,333.92l5.59,2.8s.23-24.79,7.4-43.12l-12.29,10.24-10.15-9.27C542.22,314.27,554.23,333.92,554.23,333.92Z"/><path class="cls-12" d="M559.82,336.72l20.84,12,14.66-19.83h28.34l15.16,21.83,18.07-12.2,3.77-2.46s1.26-61.23-38.82-79.95a28.47,28.47,0,0,0-23.5-.35C559,273.12,559.82,336.72,559.82,336.72Z"/><polygon class="cls-1" points="595.32 328.89 609.43 320.43 623.66 328.89 595.32 328.89"/><polygon class="cls-2" points="596.04 396.58 581.29 353.83 596.81 332.56 609.43 324.66 621.81 332.56 638.14 355.14 667.39 335.69 634.44 388.73 618.79 396.58 596.04 396.58"/><path class="cls-2" d="M655,298.55a116.82,116.82,0,0,1,4.77,22.85l4.77-17.86Z"/><polygon class="cls-1" points="723.22 311.61 734.51 342.26 768.23 389.18 780.23 396.43 802.98 396.43 818.63 388.57 851.58 335.53 879.64 283.91 848.98 301.46 824.37 287.51 823.8 245.16 801.55 223.77 778.87 237.15 764.91 279.23 739.2 303.68 721.79 287.89 723.22 311.61"/><path class="cls-2" d="M738.5,333.76l5.6,2.81s.22-24.79,7.39-43.13L739.2,303.68l-10.15-9.26C726.5,314.11,738.5,333.76,738.5,333.76Z"/><path class="cls-13" d="M744.1,336.57l20.83,12,14.67-19.84h28.33l15.17,21.84,18.06-12.21,3.77-2.46s1.27-61.22-38.82-79.94a28.43,28.43,0,0,0-23.5-.36C743.26,273,744.1,336.57,744.1,336.57Z"/><polygon class="cls-1" points="779.6 328.73 793.71 320.27 807.93 328.73 779.6 328.73"/><polygon class="cls-2" points="780.31 396.43 765.56 353.68 781.08 332.41 793.71 324.5 806.08 332.41 822.41 354.99 851.66 335.53 818.71 388.57 803.06 396.43 780.31 396.43"/><path class="cls-2" d="M839.24,298.39A116.82,116.82,0,0,1,844,321.24l4.77-17.86Z"/><polygon class="cls-1" points="623.28 356.34 634.57 386.99 668.29 433.91 680.29 441.16 703.04 441.16 718.69 433.3 751.64 380.26 779.7 328.64 749.04 346.19 724.43 332.24 723.87 289.89 701.62 268.5 678.93 281.88 664.97 323.96 639.26 348.42 621.85 332.62 623.28 356.34"/><path class="cls-2" d="M638.56,378.49l5.6,2.81s.22-24.79,7.39-43.13l-12.29,10.25-10.15-9.27C626.56,358.84,638.56,378.49,638.56,378.49Z"/><path class="cls-14" d="M644.16,381.3l20.83,12,14.67-19.84H708l15.17,21.84,18.06-12.21,3.77-2.46s1.27-61.22-38.82-79.94a28.43,28.43,0,0,0-23.5-.36C643.32,317.7,644.16,381.3,644.16,381.3Z"/><polygon class="cls-1" points="679.65 373.46 693.77 365 707.99 373.46 679.65 373.46"/><polygon class="cls-2" points="680.37 441.16 665.62 398.41 681.14 377.14 693.77 369.23 706.14 377.14 722.47 399.72 751.72 380.26 718.77 433.3 703.12 441.16 680.37 441.16"/><path class="cls-2" d="M739.3,343.12A117,117,0,0,1,744.07,366l4.77-17.87Z"/><polygon class="cls-1" points="807.58 356.39 818.87 387.03 852.6 433.95 864.6 441.2 887.35 441.2 903 433.35 935.95 380.3 964.01 328.69 933.35 346.24 908.74 332.29 908.17 289.94 885.92 268.55 863.24 281.92 849.28 324.01 823.57 348.46 806.16 332.67 807.58 356.39"/><path class="cls-2" d="M822.87,378.53l5.59,2.81s.23-24.79,7.39-43.12l-12.28,10.24-10.15-9.27C810.86,358.88,822.87,378.53,822.87,378.53Z"/><path class="cls-15" d="M828.46,381.34l20.83,12L864,373.51h28.33l15.17,21.83,18.07-12.2,3.76-2.46s1.27-61.23-38.81-79.95a28.5,28.5,0,0,0-23.5-.36C827.62,317.74,828.46,381.34,828.46,381.34Z"/><polygon class="cls-1" points="863.96 373.51 878.07 365.04 892.29 373.51 863.96 373.51"/><polygon class="cls-2" points="864.68 441.2 849.93 398.45 865.45 377.18 878.07 369.28 890.45 377.18 906.78 399.76 936.03 380.3 903.08 433.35 887.43 441.2 864.68 441.2"/><path class="cls-2" d="M923.61,343.17A116.82,116.82,0,0,1,928.38,366l4.76-17.87Z"/><polygon class="cls-1" points="707.64 401.12 718.93 431.76 752.66 478.68 764.66 485.93 787.41 485.93 803.05 478.08 836 425.04 864.07 373.42 833.41 390.97 808.8 377.02 808.23 334.67 785.98 313.28 763.3 326.65 749.34 368.74 723.63 393.19 706.22 377.4 707.64 401.12"/><path class="cls-2" d="M722.93,423.27l5.59,2.8s.23-24.79,7.39-43.12l-12.28,10.24-10.15-9.27C710.92,403.62,722.93,423.27,722.93,423.27Z"/><path class="cls-16" d="M728.52,426.07l20.83,12L764,418.24h28.33l15.17,21.83,18.07-12.2,3.76-2.46s1.27-61.23-38.81-80a28.47,28.47,0,0,0-23.5-.35C727.68,362.47,728.52,426.07,728.52,426.07Z"/><polygon class="cls-1" points="764.02 418.24 778.13 409.78 792.36 418.24 764.02 418.24"/><polygon class="cls-2" points="764.74 485.93 749.99 443.18 765.51 421.92 778.13 414.01 790.51 421.92 806.84 444.49 836.09 425.04 803.14 478.08 787.49 485.93 764.74 485.93"/><path class="cls-2" d="M823.67,387.9a116.82,116.82,0,0,1,4.77,22.85l4.76-17.86Z"/><polygon class="cls-1" points="101.37 177.35 112.66 208 146.38 254.92 158.38 262.17 181.13 262.17 196.78 254.31 229.73 201.27 257.79 149.66 227.13 167.2 202.52 153.25 201.95 110.9 179.7 89.51 157.02 102.89 143.06 144.97 117.35 169.43 99.94 153.63 101.37 177.35"/><path class="cls-2" d="M116.65,199.5l5.59,2.81s.23-24.79,7.4-43.12l-12.29,10.24-10.15-9.27C104.65,179.85,116.65,199.5,116.65,199.5Z"/><path class="cls-17" d="M122.24,202.31l20.84,12,14.66-19.83h28.34l15.16,21.83,18.07-12.21,3.77-2.46s1.26-61.22-38.82-79.94a28.43,28.43,0,0,0-23.5-.36C121.41,138.71,122.24,202.31,122.24,202.31Z"/><polygon class="cls-1" points="157.75 194.47 171.86 186.01 186.08 194.47 157.75 194.47"/><polygon class="cls-2" points="158.46 262.17 143.71 219.42 159.23 198.15 171.86 190.24 184.23 198.15 200.56 220.73 229.81 201.27 196.86 254.31 181.21 262.17 158.46 262.17"/><path class="cls-2" d="M217.39,164.14A116.82,116.82,0,0,1,222.16,187l4.77-17.87Z"/><polygon class="cls-1" points="185.88 222.31 197.16 252.95 230.89 299.87 242.89 307.12 265.64 307.12 281.29 299.26 314.24 246.22 342.3 194.61 311.64 212.16 287.03 198.21 286.46 155.85 264.21 134.47 241.53 147.84 227.57 189.93 201.86 214.38 184.45 198.59 185.88 222.31"/><path class="cls-2" d="M201.16,244.45l5.59,2.81s.23-24.79,7.4-43.12l-12.29,10.24-10.15-9.27C189.15,224.8,201.16,244.45,201.16,244.45Z"/><path class="cls-18" d="M206.75,247.26l20.84,12,14.66-19.83h28.34l15.16,21.83,18.07-12.2,3.77-2.46s1.26-61.23-38.82-79.95a28.5,28.5,0,0,0-23.5-.36C205.91,183.66,206.75,247.26,206.75,247.26Z"/><polygon class="cls-1" points="242.25 239.43 256.37 230.96 270.59 239.43 242.25 239.43"/><polygon class="cls-2" points="242.97 307.12 228.22 264.37 243.74 243.1 256.37 235.2 268.74 243.1 285.07 265.68 314.32 246.22 281.37 299.26 265.72 307.12 242.97 307.12"/><path class="cls-2" d="M301.9,209.09a116.82,116.82,0,0,1,4.77,22.85l4.77-17.87Z"/><polygon class="cls-1" points="1.43 222.09 12.72 252.73 46.44 299.65 58.44 306.9 81.19 306.9 96.84 299.04 129.79 246 157.85 194.39 127.19 211.93 102.58 197.98 102.01 155.63 79.76 134.25 57.08 147.62 43.12 189.71 17.41 214.16 0 198.37 1.43 222.09"/><path class="cls-2" d="M16.71,244.23,22.3,247s.23-24.79,7.4-43.12L17.41,214.16,7.26,204.89C4.71,224.58,16.71,244.23,16.71,244.23Z"/><path class="cls-19" d="M22.3,247l20.84,12L57.8,239.21H86.14L101.3,261l18.07-12.21,3.77-2.46s1.26-61.22-38.82-79.94a28.43,28.43,0,0,0-23.5-.36C21.47,183.44,22.3,247,22.3,247Z"/><polygon class="cls-1" points="57.8 239.21 71.92 230.74 86.14 239.21 57.8 239.21"/><polygon class="cls-2" points="58.52 306.9 43.77 264.15 59.29 242.88 71.92 234.97 84.29 242.88 100.62 265.46 129.87 246 96.92 299.04 81.27 306.9 58.52 306.9"/><path class="cls-2" d="M117.45,208.87a116.82,116.82,0,0,1,4.77,22.85L127,213.85Z"/><polygon class="cls-1" points="85.94 267.04 97.22 297.68 130.95 344.6 142.95 351.85 165.7 351.85 181.35 344 214.3 290.95 242.36 239.34 211.7 256.89 187.09 242.94 186.52 200.59 164.27 179.2 141.59 192.57 127.63 234.66 101.92 259.11 84.51 243.32 85.94 267.04"/><path class="cls-2" d="M101.22,289.19l5.59,2.8s.23-24.79,7.4-43.12l-12.29,10.24-10.15-9.27C89.21,269.54,101.22,289.19,101.22,289.19Z"/><path class="cls-20" d="M106.81,292l20.84,12,14.66-19.83h28.34L185.81,306l18.07-12.2,3.77-2.46s1.26-61.23-38.82-79.95a28.47,28.47,0,0,0-23.5-.35C106,228.39,106.81,292,106.81,292Z"/><polygon class="cls-1" points="142.31 284.16 156.43 275.69 170.65 284.16 142.31 284.16"/><polygon class="cls-2" points="143.03 351.85 128.28 309.1 143.8 287.83 156.43 279.93 168.8 287.83 185.13 310.41 214.38 290.95 181.43 344 165.78 351.85 143.03 351.85"/><path class="cls-2" d="M202,253.82a116.82,116.82,0,0,1,4.77,22.85l4.77-17.86Z"/><polygon class="cls-1" points="270.24 267.08 281.53 297.73 315.25 344.65 327.25 351.9 350 351.9 365.65 344.04 398.6 291 426.66 239.38 396 256.93 371.4 242.98 370.83 200.63 348.58 179.24 325.9 192.62 311.94 234.71 286.23 259.16 268.81 243.36 270.24 267.08"/><path class="cls-2" d="M285.53,289.23l5.59,2.81s.23-24.79,7.39-43.13l-12.29,10.25-10.14-9.27C273.52,269.58,285.53,289.23,285.53,289.23Z"/><path class="cls-21" d="M291.12,292,312,304l14.67-19.83H355L370.12,306l18.07-12.21,3.76-2.46s1.27-61.22-38.81-79.94a28.45,28.45,0,0,0-23.51-.36C290.28,228.44,291.12,292,291.12,292Z"/><polygon class="cls-1" points="326.62 284.2 340.73 275.74 354.95 284.2 326.62 284.2"/><polygon class="cls-2" points="327.34 351.9 312.59 309.15 328.11 287.88 340.73 279.97 353.11 287.88 369.44 310.46 398.69 291 365.74 344.04 350.09 351.9 327.34 351.9"/><path class="cls-2" d="M386.26,253.87A116.31,116.31,0,0,1,391,276.72l4.76-17.87Z"/><polygon class="cls-1" points="170.3 311.82 181.59 342.46 215.32 389.38 227.32 396.63 250.06 396.63 265.71 388.77 298.66 335.73 326.73 284.12 296.07 301.66 271.46 287.71 270.89 245.36 248.64 223.97 225.96 237.35 212 279.44 186.28 303.89 168.88 288.1 170.3 311.82"/><path class="cls-2" d="M185.59,334l5.59,2.81s.23-24.79,7.39-43.12l-12.29,10.24-10.14-9.27C173.58,314.31,185.59,334,185.59,334Z"/><path class="cls-22" d="M191.18,336.77l20.83,12,14.67-19.83H255l15.17,21.83,18.07-12.21L292,336.1s1.27-61.22-38.81-79.94a28.45,28.45,0,0,0-23.51-.36C190.34,273.17,191.18,336.77,191.18,336.77Z"/><polygon class="cls-1" points="226.68 328.94 240.79 320.47 255.01 328.94 226.68 328.94"/><polygon class="cls-2" points="227.4 396.63 212.65 353.88 228.17 332.61 240.79 324.7 253.17 332.61 269.5 355.19 298.75 335.73 265.8 388.77 250.15 396.63 227.4 396.63"/><path class="cls-2" d="M286.32,298.6a116.31,116.31,0,0,1,4.78,22.85l4.76-17.87Z"/><polygon class="cls-1" points="354.57 311.77 365.86 342.42 399.58 389.34 411.58 396.59 434.33 396.59 449.98 388.73 482.93 335.69 510.99 284.08 480.33 301.62 455.73 287.67 455.16 245.32 432.91 223.93 410.23 237.31 396.26 279.4 370.55 303.85 353.14 288.06 354.57 311.77"/><path class="cls-2" d="M369.86,333.92l5.59,2.81s.22-24.79,7.39-43.12l-12.29,10.24-10.15-9.27C357.85,314.27,369.86,333.92,369.86,333.92Z"/><path class="cls-23" d="M375.45,336.73l20.83,12L411,328.9h28.33l15.17,21.83,18.06-12.21,3.77-2.46s1.27-61.22-38.81-79.94a28.45,28.45,0,0,0-23.51-.36C374.61,273.13,375.45,336.73,375.45,336.73Z"/><polygon class="cls-1" points="410.95 328.9 425.06 320.43 439.28 328.9 410.95 328.9"/><polygon class="cls-2" points="411.67 396.59 396.92 353.84 412.44 332.57 425.06 324.66 437.44 332.57 453.76 355.15 483.01 335.69 450.06 388.73 434.42 396.59 411.67 396.59"/><path class="cls-2" d="M470.59,298.56a117.21,117.21,0,0,1,4.78,22.85l4.76-17.87Z"/><polygon class="cls-1" points="254.63 356.51 265.92 387.15 299.64 434.07 311.64 441.32 334.39 441.32 350.04 433.46 382.99 380.42 411.05 328.81 380.39 346.35 355.79 332.4 355.22 290.05 332.97 268.67 310.29 282.04 296.32 324.13 270.61 348.58 253.2 332.79 254.63 356.51"/><path class="cls-2" d="M269.92,378.65l5.59,2.81s.22-24.79,7.39-43.12l-12.29,10.24-10.15-9.27C257.91,359,269.92,378.65,269.92,378.65Z"/><path class="cls-24" d="M275.51,381.46l20.83,12L311,373.63h28.33l15.17,21.83,18.07-12.2,3.76-2.47s1.27-61.22-38.81-79.94a28.49,28.49,0,0,0-23.51-.36C274.67,317.86,275.51,381.46,275.51,381.46Z"/><polygon class="cls-1" points="311.01 373.63 325.12 365.16 339.34 373.63 311.01 373.63"/><polygon class="cls-2" points="311.73 441.32 296.98 398.57 312.5 377.3 325.12 369.39 337.5 377.3 353.82 399.88 383.07 380.42 350.13 433.46 334.48 441.32 311.73 441.32"/><path class="cls-2" d="M370.65,343.29a116.31,116.31,0,0,1,4.78,22.85l4.76-17.87Z"/><polygon class="cls-1" points="438.94 356.55 450.23 387.2 483.95 434.11 495.95 441.36 518.7 441.36 534.35 433.51 567.3 380.47 595.36 328.85 564.7 346.4 540.09 332.45 539.52 290.1 517.27 268.71 494.59 282.08 480.63 324.17 454.92 348.62 437.51 332.83 438.94 356.55"/><path class="cls-2" d="M454.22,378.7l5.59,2.81s.23-24.79,7.4-43.13l-12.29,10.24-10.15-9.27C442.21,359.05,454.22,378.7,454.22,378.7Z"/><path class="cls-25" d="M459.81,381.51l20.84,12,14.66-19.84h28.34l15.16,21.84,18.07-12.21,3.77-2.46s1.26-61.22-38.82-79.94a28.43,28.43,0,0,0-23.5-.36C459,317.9,459.81,381.51,459.81,381.51Z"/><polygon class="cls-1" points="495.31 373.67 509.43 365.21 523.65 373.67 495.31 373.67"/><polygon class="cls-2" points="496.03 441.36 481.28 398.61 496.8 377.35 509.43 369.44 521.8 377.35 538.13 399.93 567.38 380.47 534.43 433.51 518.78 441.36 496.03 441.36"/><path class="cls-2" d="M555,343.33a116.82,116.82,0,0,1,4.77,22.85l4.77-17.86Z"/><polygon class="cls-1" points="339 401.28 350.29 431.93 384.01 478.85 396.01 486.1 418.76 486.1 434.41 478.24 467.36 425.2 495.42 373.58 464.76 391.13 440.15 377.18 439.58 334.83 417.33 313.44 394.65 326.81 380.69 368.9 354.98 393.36 337.57 377.56 339 401.28"/><path class="cls-2" d="M354.28,423.43l5.59,2.81s.23-24.79,7.4-43.13L355,393.35l-10.15-9.26C342.27,403.78,354.28,423.43,354.28,423.43Z"/><path class="cls-26" d="M359.87,426.24l20.84,12,14.66-19.84h28.34l15.16,21.84L456.94,428l3.77-2.46s1.26-61.22-38.82-79.94a28.43,28.43,0,0,0-23.5-.36C359,362.63,359.87,426.24,359.87,426.24Z"/><polygon class="cls-1" points="395.37 418.4 409.49 409.94 423.71 418.4 395.37 418.4"/><polygon class="cls-2" points="396.09 486.1 381.34 443.35 396.86 422.08 409.49 414.17 421.86 422.08 438.19 444.66 467.44 425.2 434.49 478.24 418.84 486.1 396.09 486.1"/><path class="cls-2" d="M455,388.06a117,117,0,0,1,4.77,22.85l4.77-17.86Z"/><polygon class="cls-1" points="523.27 401.13 534.56 431.77 568.28 478.69 580.28 485.94 603.03 485.94 618.68 478.08 651.63 425.04 679.69 373.43 649.03 390.97 624.42 377.02 623.86 334.67 601.61 313.28 578.92 326.66 564.96 368.75 539.25 393.2 521.84 377.4 523.27 401.13"/><path class="cls-2" d="M538.55,423.27l5.6,2.81s.22-24.79,7.39-43.12L539.25,393.2l-10.15-9.27C526.55,403.62,538.55,423.27,538.55,423.27Z"/><path class="cls-27" d="M544.15,426.08l20.83,12,14.67-19.83H608l15.17,21.83,18.06-12.21,3.77-2.46s1.27-61.22-38.82-79.94a28.43,28.43,0,0,0-23.5-.36C543.31,362.48,544.15,426.08,544.15,426.08Z"/><polygon class="cls-1" points="579.65 418.25 593.76 409.78 607.98 418.25 579.65 418.25"/><polygon class="cls-2" points="580.37 485.94 565.62 443.19 581.13 421.92 593.76 414.01 606.13 421.92 622.46 444.5 651.71 425.04 618.76 478.08 603.12 485.94 580.37 485.94"/><path class="cls-2" d="M639.29,387.91a116.82,116.82,0,0,1,4.77,22.85l4.77-17.87Z"/><polygon class="cls-1" points="423.33 445.86 434.62 476.5 468.34 523.42 480.34 530.67 503.09 530.67 518.74 522.82 551.69 469.77 579.75 418.16 549.09 435.7 524.48 421.75 523.92 379.4 501.67 358.02 478.98 371.39 465.02 413.48 439.31 437.93 421.9 422.14 423.33 445.86"/><path class="cls-2" d="M438.61,468l5.6,2.81s.22-24.79,7.39-43.12l-12.29,10.24-10.15-9.27C426.61,448.35,438.61,468,438.61,468Z"/><path class="cls-28" d="M444.21,470.81l20.83,12L479.71,463H508l15.17,21.83,18.06-12.2,3.77-2.47s1.27-61.22-38.82-79.94a28.5,28.5,0,0,0-23.5-.36C443.37,407.21,444.21,470.81,444.21,470.81Z"/><polygon class="cls-1" points="479.71 462.98 493.82 454.51 508.04 462.98 479.71 462.98"/><polygon class="cls-2" points="480.43 530.67 465.68 487.92 481.19 466.65 493.82 458.75 506.19 466.65 522.52 489.23 551.77 469.77 518.82 522.82 503.18 530.67 480.43 530.67"/><path class="cls-2" d="M539.35,432.64a116.82,116.82,0,0,1,4.77,22.85l4.77-17.87Z"/><polygon class="cls-1" points="607.63 445.9 618.92 476.55 652.65 523.47 664.65 530.72 687.4 530.72 703.05 522.86 736 469.82 764.06 418.2 733.4 435.75 708.79 421.8 708.22 379.45 685.97 358.06 663.29 371.43 649.33 413.52 623.62 437.97 606.21 422.18 607.63 445.9"/><path class="cls-2" d="M622.92,468.05l5.59,2.81s.23-24.79,7.39-43.13L623.62,438l-10.15-9.27C610.91,448.4,622.92,468.05,622.92,468.05Z"/><path class="cls-29" d="M628.51,470.86l20.84,12L664,463h28.34l15.16,21.84,18.07-12.21,3.77-2.46s1.26-61.22-38.82-79.94a28.43,28.43,0,0,0-23.5-.36C627.67,407.25,628.51,470.86,628.51,470.86Z"/><polygon class="cls-1" points="664.01 463.02 678.12 454.56 692.35 463.02 664.01 463.02"/><polygon class="cls-2" points="664.73 530.72 649.98 487.96 665.5 466.7 678.12 458.79 690.5 466.7 706.83 489.27 736.08 469.82 703.13 522.86 687.48 530.72 664.73 530.72"/><path class="cls-2" d="M723.66,432.68a116.82,116.82,0,0,1,4.77,22.85l4.77-17.86Z"/><polygon class="cls-1" points="507.69 490.63 518.98 521.28 552.71 568.2 564.71 575.45 587.46 575.45 603.11 567.59 636.06 514.55 664.12 462.94 633.46 480.48 608.85 466.53 608.28 424.18 586.03 402.79 563.35 416.17 549.39 458.25 523.68 482.7 506.27 466.91 507.69 490.63"/><path class="cls-2" d="M523,512.78l5.59,2.81s.23-24.79,7.39-43.13L523.68,482.7l-10.15-9.26C511,493.13,523,512.78,523,512.78Z"/><path class="cls-30" d="M528.57,515.59l20.84,12,14.66-19.84h28.34l15.16,21.84,18.07-12.21,3.77-2.46s1.26-61.22-38.82-79.94a28.43,28.43,0,0,0-23.5-.36C527.73,452,528.57,515.59,528.57,515.59Z"/><polygon class="cls-1" points="564.07 507.75 578.18 499.29 592.41 507.75 564.07 507.75"/><polygon class="cls-2" points="564.79 575.45 550.04 532.7 565.56 511.43 578.18 503.52 590.56 511.43 606.89 534.01 636.14 514.55 603.19 567.59 587.54 575.45 564.79 575.45"/><path class="cls-2" d="M623.72,477.41a117,117,0,0,1,4.77,22.85l4.77-17.86Z"/><polygon class="cls-1" points="1172.84 199.66 1184.13 230.31 1217.86 277.22 1229.86 284.47 1252.61 284.47 1268.25 276.62 1301.2 223.58 1329.27 171.96 1298.61 189.51 1274 175.56 1273.43 133.21 1251.18 111.82 1228.5 125.19 1214.54 167.28 1188.83 191.73 1171.42 175.94 1172.84 199.66"/><path class="cls-2" d="M1188.13,221.81l5.59,2.81s.23-24.79,7.39-43.13l-12.28,10.24-10.15-9.27C1176.12,202.16,1188.13,221.81,1188.13,221.81Z"/><path class="cls-31" d="M1193.72,224.62l20.83,12,14.67-19.84h28.33l15.17,21.84,18.07-12.21,3.76-2.46s1.27-61.22-38.81-79.94a28.45,28.45,0,0,0-23.51-.36C1192.88,161,1193.72,224.62,1193.72,224.62Z"/><polygon class="cls-1" points="1229.22 216.78 1243.33 208.32 1257.55 216.78 1229.22 216.78"/><polygon class="cls-2" points="1229.94 284.47 1215.19 241.72 1230.71 220.46 1243.33 212.55 1255.71 220.46 1272.04 243.03 1301.29 223.58 1268.34 276.62 1252.69 284.47 1229.94 284.47"/><path class="cls-2" d="M1288.86,186.44a116.31,116.31,0,0,1,4.78,22.85l4.76-17.86Z"/><polygon class="cls-1" points="1257.35 244.62 1268.64 275.26 1302.37 322.18 1314.37 329.43 1337.12 329.43 1352.76 321.57 1385.71 268.53 1413.77 216.92 1383.12 234.46 1358.51 220.51 1357.94 178.16 1335.69 156.77 1313.01 170.15 1299.05 212.24 1273.33 236.69 1255.92 220.89 1257.35 244.62"/><path class="cls-2" d="M1272.64,266.76l5.59,2.81s.23-24.79,7.39-43.12l-12.29,10.24-10.14-9.27C1260.63,247.11,1272.64,266.76,1272.64,266.76Z"/><path class="cls-32" d="M1278.23,269.57l20.83,12,14.67-19.83h28.33l15.17,21.83,18.07-12.21,3.76-2.46s1.27-61.22-38.81-79.94a28.45,28.45,0,0,0-23.51-.36C1277.39,206,1278.23,269.57,1278.23,269.57Z"/><polygon class="cls-1" points="1313.73 261.74 1327.84 253.27 1342.06 261.74 1313.73 261.74"/><polygon class="cls-2" points="1314.45 329.43 1299.7 286.68 1315.22 265.41 1327.84 257.5 1340.22 265.41 1356.55 287.99 1385.8 268.53 1352.85 321.57 1337.2 329.43 1314.45 329.43"/><path class="cls-2" d="M1373.37,231.4a116.31,116.31,0,0,1,4.78,22.85l4.76-17.87Z"/><polygon class="cls-1" points="1072.9 244.39 1084.19 275.04 1117.92 321.96 1129.92 329.21 1152.67 329.21 1168.31 321.35 1201.27 268.31 1229.33 216.69 1198.67 234.24 1174.06 220.29 1173.49 177.94 1151.24 156.55 1128.56 169.93 1114.6 212.01 1088.89 236.46 1071.48 220.67 1072.9 244.39"/><path class="cls-2" d="M1088.19,266.54l5.59,2.81s.23-24.79,7.39-43.13l-12.28,10.24-10.15-9.26C1076.18,246.89,1088.19,266.54,1088.19,266.54Z"/><path class="cls-33" d="M1093.78,269.35l20.83,12,14.67-19.84h28.33l15.17,21.84,18.07-12.21,3.76-2.46s1.27-61.22-38.81-79.94a28.45,28.45,0,0,0-23.51-.36C1092.94,205.74,1093.78,269.35,1093.78,269.35Z"/><polygon class="cls-1" points="1129.28 261.51 1143.39 253.05 1157.61 261.51 1129.28 261.51"/><polygon class="cls-2" points="1130 329.21 1115.25 286.46 1130.77 265.19 1143.39 257.28 1155.77 265.19 1172.1 287.77 1201.35 268.31 1168.4 321.35 1152.75 329.21 1130 329.21"/><path class="cls-2" d="M1188.92,231.17A116.54,116.54,0,0,1,1193.7,254l4.76-17.86Z"/><polygon class="cls-1" points="1157.41 289.35 1168.7 319.99 1202.42 366.91 1214.42 374.16 1237.17 374.16 1252.82 366.3 1285.77 313.26 1313.83 261.65 1283.17 279.19 1258.57 265.25 1258 222.89 1235.75 201.5 1213.07 214.88 1199.11 256.97 1173.39 281.42 1155.98 265.63 1157.41 289.35"/><path class="cls-2" d="M1172.7,311.49l5.59,2.81s.23-24.79,7.39-43.12l-12.29,10.24-10.14-9.27C1160.69,291.84,1172.7,311.49,1172.7,311.49Z"/><path class="cls-34" d="M1178.29,314.3l20.83,12,14.67-19.83h28.33l15.17,21.83,18.07-12.21,3.76-2.46s1.27-61.22-38.81-79.94a28.45,28.45,0,0,0-23.51-.36C1177.45,250.7,1178.29,314.3,1178.29,314.3Z"/><polygon class="cls-1" points="1213.79 306.47 1227.9 298 1242.12 306.47 1213.79 306.47"/><polygon class="cls-2" points="1214.51 374.16 1199.76 331.41 1215.28 310.14 1227.9 302.24 1240.28 310.14 1256.61 332.72 1285.86 313.26 1252.91 366.3 1237.26 374.16 1214.51 374.16"/><path class="cls-2" d="M1273.43,276.13a116.31,116.31,0,0,1,4.78,22.85l4.76-17.87Z"/><polygon class="cls-1" points="1341.72 289.39 1353.01 320.04 1386.73 366.95 1398.73 374.2 1421.48 374.2 1437.13 366.35 1470.08 313.31 1498.14 261.69 1467.48 279.24 1442.87 265.29 1442.31 222.94 1420.06 201.55 1397.37 214.92 1383.41 257.01 1357.7 281.46 1340.29 265.67 1341.72 289.39"/><path class="cls-2" d="M1357,311.54l5.6,2.81s.22-24.8,7.39-43.13l-12.29,10.24-10.15-9.27C1345,291.89,1357,311.54,1357,311.54Z"/><path class="cls-35" d="M1362.6,314.35l20.83,12,14.67-19.84h28.33l15.17,21.84,18.06-12.21,3.77-2.46s1.27-61.22-38.82-79.94a28.43,28.43,0,0,0-23.5-.36C1361.76,250.74,1362.6,314.35,1362.6,314.35Z"/><polygon class="cls-1" points="1398.1 306.51 1412.21 298.05 1426.43 306.51 1398.1 306.51"/><polygon class="cls-2" points="1398.82 374.2 1384.07 331.45 1399.58 310.19 1412.21 302.28 1424.58 310.19 1440.91 332.76 1470.16 313.31 1437.21 366.35 1421.57 374.2 1398.82 374.2"/><path class="cls-2" d="M1457.74,276.17a116.82,116.82,0,0,1,4.77,22.85l4.77-17.86Z"/><polygon class="cls-1" points="1241.78 334.12 1253.07 364.77 1286.79 411.69 1298.79 418.94 1321.54 418.94 1337.19 411.08 1370.14 358.04 1398.2 306.42 1367.54 323.97 1342.93 310.02 1342.37 267.67 1320.12 246.28 1297.43 259.65 1283.47 301.74 1257.76 326.19 1240.35 310.4 1241.78 334.12"/><path class="cls-2" d="M1257.06,356.27l5.6,2.81s.22-24.79,7.39-43.13l-12.29,10.24-10.15-9.26C1245.06,336.62,1257.06,356.27,1257.06,356.27Z"/><path class="cls-36" d="M1262.66,359.08l20.83,12,14.67-19.84h28.33l15.17,21.84,18.06-12.21,3.77-2.46s1.27-61.22-38.82-79.94a28.43,28.43,0,0,0-23.5-.36C1261.82,295.47,1262.66,359.08,1262.66,359.08Z"/><polygon class="cls-1" points="1298.16 351.24 1312.27 342.78 1326.49 351.24 1298.16 351.24"/><polygon class="cls-2" points="1298.88 418.94 1284.13 376.19 1299.64 354.92 1312.27 347.01 1324.64 354.92 1340.97 377.5 1370.22 358.04 1337.27 411.08 1321.63 418.94 1298.88 418.94"/><path class="cls-2" d="M1357.8,320.9a116.82,116.82,0,0,1,4.77,22.85l4.77-17.86Z"/><polygon class="cls-1" points="1426.05 334.08 1437.34 364.73 1471.06 411.64 1483.06 418.89 1505.81 418.89 1521.46 411.04 1554.41 358 1582.47 306.38 1551.81 323.93 1527.2 309.98 1526.63 267.63 1504.38 246.24 1481.7 259.61 1467.74 301.7 1442.03 326.15 1424.62 310.36 1426.05 334.08"/><path class="cls-2" d="M1441.33,356.23l5.59,2.81s.23-24.79,7.4-43.13L1442,326.15l-10.15-9.27C1429.32,336.58,1441.33,356.23,1441.33,356.23Z"/><path class="cls-37" d="M1446.92,359l20.84,12,14.66-19.84h28.34L1525.92,373,1544,360.83l3.77-2.46s1.26-61.22-38.82-79.94a28.43,28.43,0,0,0-23.5-.36C1446.09,295.43,1446.92,359,1446.92,359Z"/><polygon class="cls-1" points="1482.42 351.2 1496.54 342.74 1510.76 351.2 1482.42 351.2"/><polygon class="cls-2" points="1483.14 418.89 1468.39 376.14 1483.91 354.88 1496.54 346.97 1508.91 354.88 1525.24 377.45 1554.49 358 1521.54 411.04 1505.89 418.89 1483.14 418.89"/><path class="cls-2" d="M1542.07,320.86a116.82,116.82,0,0,1,4.77,22.85l4.77-17.86Z"/><polygon class="cls-1" points="1326.11 378.81 1337.4 409.46 1371.12 456.38 1383.12 463.63 1405.87 463.63 1421.52 455.77 1454.47 402.73 1482.53 351.12 1451.87 368.66 1427.26 354.71 1426.69 312.36 1404.44 290.97 1381.76 304.35 1367.8 346.43 1342.09 370.88 1324.68 355.09 1326.11 378.81"/><path class="cls-2" d="M1341.39,401l5.59,2.81s.23-24.79,7.4-43.13l-12.29,10.24-10.15-9.26C1329.38,381.31,1341.39,401,1341.39,401Z"/><path class="cls-38" d="M1347,403.77l20.84,12,14.66-19.84h28.34L1426,417.77l18.07-12.21,3.77-2.46s1.26-61.22-38.82-79.94a28.43,28.43,0,0,0-23.5-.36C1346.15,340.17,1347,403.77,1347,403.77Z"/><polygon class="cls-1" points="1382.48 395.93 1396.6 387.47 1410.82 395.93 1382.48 395.93"/><polygon class="cls-2" points="1383.2 463.63 1368.45 420.88 1383.97 399.61 1396.6 391.7 1408.97 399.61 1425.3 422.19 1454.55 402.73 1421.6 455.77 1405.95 463.63 1383.2 463.63"/><path class="cls-2" d="M1442.13,365.59a117,117,0,0,1,4.77,22.85l4.77-17.86Z"/><path class="cls-39" d="M1034.22,294.38h-7.83v-7.83a3.59,3.59,0,1,0-7.17,0v7.83h-7.83a3.59,3.59,0,1,0,0,7.17h7.83v7.83a3.59,3.59,0,0,0,7.17,0v-7.83h7.83a3.59,3.59,0,0,0,0-7.17Z"/></g></svg>