<svg xmlns="http://www.w3.org/2000/svg" xmlns:xlink="http://www.w3.org/1999/xlink" viewBox="0 0 1556.05 530.63"><defs><style>.cls-1{fill:#62abbc;}.cls-2{fill:#3d838e;opacity:0.51;}.cls-3{fill:url(#linear-gradient);}.cls-4{fill:url(#linear-gradient-2);}.cls-5{fill:url(#linear-gradient-3);}.cls-6{fill:url(#linear-gradient-4);}.cls-7{fill:url(#linear-gradient-5);}.cls-8{fill:url(#linear-gradient-6);}.cls-9{fill:url(#linear-gradient-7);}.cls-10{fill:url(#linear-gradient-8);}.cls-11{fill:url(#linear-gradient-9);}.cls-12{fill:url(#linear-gradient-10);}.cls-13{fill:url(#linear-gradient-11);}.cls-14{fill:url(#linear-gradient-12);}.cls-15{fill:url(#linear-gradient-13);}.cls-16{fill:url(#linear-gradient-14);}.cls-17{fill:url(#linear-gradient-15);}.cls-18{fill:url(#linear-gradient-16);}.cls-19{fill:url(#linear-gradient-17);}.cls-20{fill:url(#linear-gradient-18);}.cls-21{fill:url(#linear-gradient-19);}.cls-22{fill:url(#linear-gradient-20);}.cls-23{fill:url(#linear-gradient-21);}.cls-24{fill:url(#linear-gradient-22);}.cls-25{fill:url(#linear-gradient-23);}.cls-26{fill:url(#linear-gradient-24);}.cls-27{fill:url(#linear-gradient-25);}.cls-28{fill:url(#linear-gradient-26);}.cls-29{fill:url(#linear-gradient-27);}.cls-30{fill:url(#linear-gradient-28);}.cls-31{fill:url(#linear-gradient-29);}.cls-32{fill:url(#linear-gradient-30);}.cls-33{fill:url(#linear-gradient-31);}.cls-34{fill:url(#linear-gradient-32);}.cls-35{fill:#f05023;}</style><linearGradient id="linear-gradient" x1="322.15" y1="78.13" x2="422.99" y2="78.13" gradientUnits="userSpaceOnUse"><stop offset="0" stop-color="#fbb040"/><stop offset="0.39" stop-color="#f9ae41"/><stop offset="0.59" stop-color="#f1a845"/><stop offset="0.74" stop-color="#e49e4b"/><stop offset="0.87" stop-color="#d18f55"/><stop offset="0.99" stop-color="#b97c60"/><stop offset="1" stop-color="#b67a62"/></linearGradient><linearGradient id="linear-gradient-2" x1="406.66" y1="123.08" x2="507.5" y2="123.08" xlink:href="#linear-gradient"/><linearGradient id="linear-gradient-3" x1="222.21" y1="122.86" x2="323.05" y2="122.86" xlink:href="#linear-gradient"/><linearGradient id="linear-gradient-4" x1="306.72" y1="167.81" x2="407.56" y2="167.81" xlink:href="#linear-gradient"/><linearGradient id="linear-gradient-5" x1="491.03" y1="167.86" x2="591.87" y2="167.86" xlink:href="#linear-gradient"/><linearGradient id="linear-gradient-6" x1="391.09" y1="212.59" x2="491.93" y2="212.59" xlink:href="#linear-gradient"/><linearGradient id="linear-gradient-7" x1="575.36" y1="212.55" x2="676.2" y2="212.55" xlink:href="#linear-gradient"/><linearGradient id="linear-gradient-8" x1="475.42" y1="257.28" x2="576.26" y2="257.28" xlink:href="#linear-gradient"/><linearGradient id="linear-gradient-9" x1="659.72" y1="257.33" x2="760.56" y2="257.33" xlink:href="#linear-gradient"/><linearGradient id="linear-gradient-10" x1="559.78" y1="302.06" x2="660.62" y2="302.06" xlink:href="#linear-gradient"/><linearGradient id="linear-gradient-11" x1="744.06" y1="301.9" x2="844.89" y2="301.9" xlink:href="#linear-gradient"/><linearGradient id="linear-gradient-12" x1="644.12" y1="346.63" x2="744.95" y2="346.63" xlink:href="#linear-gradient"/><linearGradient id="linear-gradient-13" x1="122.24" y1="167.61" x2="223.08" y2="167.61" xlink:href="#linear-gradient"/><linearGradient id="linear-gradient-14" x1="206.75" y1="212.56" x2="307.59" y2="212.56" xlink:href="#linear-gradient"/><linearGradient id="linear-gradient-15" x1="22.3" y1="212.34" x2="123.14" y2="212.34" xlink:href="#linear-gradient"/><linearGradient id="linear-gradient-16" x1="106.81" y1="257.29" x2="207.65" y2="257.29" xlink:href="#linear-gradient"/><linearGradient id="linear-gradient-17" x1="291.12" y1="257.34" x2="391.96" y2="257.34" xlink:href="#linear-gradient"/><linearGradient id="linear-gradient-18" x1="191.18" y1="302.07" x2="292.02" y2="302.07" xlink:href="#linear-gradient"/><linearGradient id="linear-gradient-19" x1="375.45" y1="302.03" x2="476.29" y2="302.03" xlink:href="#linear-gradient"/><linearGradient id="linear-gradient-20" x1="275.51" y1="346.76" x2="376.35" y2="346.76" xlink:href="#linear-gradient"/><linearGradient id="linear-gradient-21" x1="459.81" y1="346.8" x2="560.65" y2="346.8" xlink:href="#linear-gradient"/><linearGradient id="linear-gradient-22" x1="359.87" y1="391.53" x2="460.71" y2="391.53" xlink:href="#linear-gradient"/><linearGradient id="linear-gradient-23" x1="544.14" y1="391.38" x2="644.98" y2="391.38" xlink:href="#linear-gradient"/><linearGradient id="linear-gradient-24" x1="444.2" y1="436.11" x2="545.04" y2="436.11" xlink:href="#linear-gradient"/><linearGradient id="linear-gradient-25" x1="1167.3" y1="167.54" x2="1268.14" y2="167.54" xlink:href="#linear-gradient"/><linearGradient id="linear-gradient-26" x1="1251.81" y1="212.5" x2="1352.65" y2="212.5" xlink:href="#linear-gradient"/><linearGradient id="linear-gradient-27" x1="1067.36" y1="212.27" x2="1168.2" y2="212.27" xlink:href="#linear-gradient"/><linearGradient id="linear-gradient-28" x1="1151.87" y1="257.23" x2="1252.71" y2="257.23" xlink:href="#linear-gradient"/><linearGradient id="linear-gradient-29" x1="1336.18" y1="257.27" x2="1437.02" y2="257.27" xlink:href="#linear-gradient"/><linearGradient id="linear-gradient-30" x1="1236.24" y1="302" x2="1337.08" y2="302" xlink:href="#linear-gradient"/><linearGradient id="linear-gradient-31" x1="1420.51" y1="301.96" x2="1521.35" y2="301.96" xlink:href="#linear-gradient"/><linearGradient id="linear-gradient-32" x1="1320.57" y1="346.69" x2="1421.41" y2="346.69" xlink:href="#linear-gradient"/></defs><title>V5_R2</title><g id="Layer_2" data-name="Layer 2"><polygon class="cls-1" points="301.28 87.84 312.57 118.49 346.29 165.4 358.29 172.65 381.04 172.65 396.69 164.8 429.64 111.76 457.7 60.14 427.04 77.69 402.43 63.74 401.87 21.39 379.62 0 356.93 13.37 342.97 55.46 317.26 79.91 299.85 64.12 301.28 87.84"/><path class="cls-2" d="M316.56,110l5.6,2.81s.22-24.79,7.39-43.13L317.26,79.91l-10.15-9.27C304.56,90.34,316.56,110,316.56,110Z"/><path class="cls-3" d="M322.16,112.8l20.83,12L357.66,105H386l15.17,21.84,18.06-12.21,3.77-2.46s1.27-61.22-38.82-79.94a28.43,28.43,0,0,0-23.5-.36C321.32,49.19,322.16,112.8,322.16,112.8Z"/><polygon class="cls-1" points="357.65 104.96 371.77 96.5 385.99 104.96 357.65 104.96"/><polygon class="cls-2" points="358.37 172.65 343.62 129.9 359.14 108.64 371.77 100.73 384.14 108.64 400.47 131.22 429.72 111.76 396.77 164.8 381.12 172.65 358.37 172.65"/><path class="cls-2" d="M417.3,74.62a116.82,116.82,0,0,1,4.77,22.85l4.77-17.86Z"/><polygon class="cls-1" points="385.79 132.79 397.08 163.44 430.8 210.36 442.8 217.61 465.55 217.61 481.2 209.75 514.15 156.71 542.21 105.1 511.55 122.64 486.94 108.69 486.37 66.34 464.12 44.95 441.44 58.33 427.48 100.42 401.77 124.87 384.36 109.07 385.79 132.79"/><path class="cls-2" d="M401.07,154.94l5.59,2.81s.23-24.79,7.4-43.12l-12.29,10.24-10.15-9.27C389.06,135.29,401.07,154.94,401.07,154.94Z"/><path class="cls-4" d="M406.66,157.75l20.84,12,14.66-19.83H470.5l15.16,21.83,18.07-12.21,3.77-2.46s1.26-61.22-38.82-79.94a28.43,28.43,0,0,0-23.5-.36C405.83,94.15,406.66,157.75,406.66,157.75Z"/><polygon class="cls-1" points="442.16 149.92 456.28 141.45 470.5 149.92 442.16 149.92"/><polygon class="cls-2" points="442.88 217.61 428.13 174.86 443.65 153.59 456.28 145.68 468.65 153.59 484.98 176.17 514.23 156.71 481.28 209.75 465.63 217.61 442.88 217.61"/><path class="cls-2" d="M501.81,119.58a116.82,116.82,0,0,1,4.77,22.85l4.77-17.87Z"/><polygon class="cls-1" points="201.34 132.57 212.63 163.22 246.35 210.14 258.35 217.39 281.1 217.39 296.75 209.53 329.7 156.49 357.76 104.87 327.1 122.42 302.49 108.47 301.93 66.12 279.68 44.73 256.99 58.1 243.03 100.19 217.32 124.64 199.91 108.85 201.34 132.57"/><path class="cls-2" d="M216.62,154.72l5.6,2.81s.22-24.79,7.39-43.13l-12.29,10.24-10.15-9.26C204.62,135.07,216.62,154.72,216.62,154.72Z"/><path class="cls-5" d="M222.22,157.53l20.83,12,14.67-19.84h28.33l15.17,21.84,18.06-12.21,3.77-2.46s1.27-61.22-38.82-79.94a28.43,28.43,0,0,0-23.5-.36C221.38,93.92,222.22,157.53,222.22,157.53Z"/><polygon class="cls-1" points="257.72 149.69 271.83 141.23 286.05 149.69 257.72 149.69"/><polygon class="cls-2" points="258.43 217.39 243.68 174.64 259.2 153.37 271.83 145.46 284.2 153.37 300.53 175.95 329.78 156.49 296.83 209.53 281.18 217.39 258.43 217.39"/><path class="cls-2" d="M317.36,119.35a117,117,0,0,1,4.77,22.85l4.77-17.86Z"/><polygon class="cls-1" points="285.85 177.53 297.14 208.17 330.86 255.09 342.86 262.34 365.61 262.34 381.26 254.48 414.21 201.44 442.27 149.83 411.61 167.37 387 153.43 386.43 111.07 364.18 89.69 341.5 103.06 327.54 145.15 301.83 169.6 284.42 153.81 285.85 177.53"/><path class="cls-2" d="M301.13,199.67l5.59,2.81s.23-24.79,7.4-43.12L301.83,169.6l-10.15-9.27C289.12,180,301.13,199.67,301.13,199.67Z"/><path class="cls-6" d="M306.72,202.48l20.84,12,14.66-19.83h28.34l15.16,21.83,18.07-12.21,3.77-2.46s1.26-61.22-38.82-79.94a28.43,28.43,0,0,0-23.5-.36C305.89,138.88,306.72,202.48,306.72,202.48Z"/><polygon class="cls-1" points="342.22 194.65 356.34 186.18 370.56 194.65 342.22 194.65"/><polygon class="cls-2" points="342.94 262.34 328.19 219.59 343.71 198.32 356.34 190.41 368.71 198.32 385.04 220.9 414.29 201.44 381.34 254.48 365.69 262.34 342.94 262.34"/><path class="cls-2" d="M401.87,164.31a116.82,116.82,0,0,1,4.77,22.85l4.77-17.87Z"/><polygon class="cls-1" points="470.15 177.57 481.44 208.22 515.17 255.13 527.17 262.38 549.92 262.38 565.56 254.53 598.51 201.49 626.58 149.87 595.92 167.42 571.31 153.47 570.74 111.12 548.49 89.73 525.81 103.1 511.85 145.19 486.13 169.64 468.73 153.85 470.15 177.57"/><path class="cls-2" d="M485.44,199.72l5.59,2.81s.23-24.8,7.39-43.13l-12.28,10.24L476,160.37C473.43,180.07,485.44,199.72,485.44,199.72Z"/><path class="cls-7" d="M491,202.53l20.83,12,14.67-19.84h28.33L570,216.53l18.07-12.21,3.76-2.46s1.27-61.22-38.81-79.94a28.45,28.45,0,0,0-23.51-.36C490.19,138.92,491,202.53,491,202.53Z"/><polygon class="cls-1" points="526.53 194.69 540.64 186.23 554.86 194.69 526.53 194.69"/><polygon class="cls-2" points="527.25 262.38 512.5 219.63 528.02 198.37 540.64 190.46 553.02 198.37 569.35 220.94 598.6 201.49 565.65 254.53 550 262.38 527.25 262.38"/><path class="cls-2" d="M586.17,164.35A116.31,116.31,0,0,1,591,187.2l4.76-17.86Z"/><polygon class="cls-1" points="370.21 222.3 381.5 252.95 415.23 299.87 427.23 307.12 449.98 307.12 465.62 299.26 498.57 246.22 526.63 194.6 495.98 212.15 471.37 198.2 470.8 155.85 448.55 134.46 425.87 147.84 411.91 189.92 386.2 214.37 368.79 198.58 370.21 222.3"/><path class="cls-2" d="M385.5,244.45l5.59,2.81s.23-24.79,7.39-43.13L386.2,214.37l-10.15-9.26C373.49,224.8,385.5,244.45,385.5,244.45Z"/><path class="cls-8" d="M391.09,247.26l20.83,12,14.67-19.84h28.33l15.17,21.84,18.07-12.21,3.76-2.46s1.27-61.22-38.81-79.94a28.45,28.45,0,0,0-23.51-.36C390.25,183.65,391.09,247.26,391.09,247.26Z"/><polygon class="cls-1" points="426.59 239.42 440.7 230.96 454.92 239.42 426.59 239.42"/><polygon class="cls-2" points="427.31 307.12 412.56 264.37 428.08 243.1 440.7 235.19 453.08 243.1 469.41 265.68 498.66 246.22 465.71 299.26 450.06 307.12 427.31 307.12"/><path class="cls-2" d="M486.23,209.08A116.31,116.31,0,0,1,491,231.93l4.76-17.86Z"/><polygon class="cls-1" points="554.48 222.26 565.77 252.91 599.49 299.82 611.49 307.07 634.24 307.07 649.89 299.22 682.84 246.18 710.9 194.56 680.24 212.11 655.64 198.16 655.07 155.81 632.82 134.42 610.14 147.79 596.18 189.88 570.46 214.33 553.05 198.54 554.48 222.26"/><path class="cls-2" d="M569.77,244.41l5.59,2.81s.22-24.79,7.39-43.13l-12.29,10.24-10.15-9.27C557.76,224.76,569.77,244.41,569.77,244.41Z"/><path class="cls-9" d="M575.36,247.22l20.83,12,14.67-19.84h28.33l15.17,21.84L672.43,249l3.76-2.46s1.27-61.22-38.81-79.94a28.45,28.45,0,0,0-23.51-.36C574.52,183.61,575.36,247.22,575.36,247.22Z"/><polygon class="cls-1" points="610.86 239.38 624.97 230.92 639.19 239.38 610.86 239.38"/><polygon class="cls-2" points="611.58 307.07 596.83 264.32 612.35 243.06 624.97 235.15 637.35 243.06 653.68 265.63 682.93 246.18 649.98 299.22 634.33 307.07 611.58 307.07"/><path class="cls-2" d="M670.5,209a116.31,116.31,0,0,1,4.78,22.85L680,214Z"/><polygon class="cls-1" points="454.54 266.99 465.83 297.64 499.55 344.56 511.55 351.81 534.3 351.81 549.95 343.95 582.9 290.91 610.96 239.29 580.3 256.84 555.7 242.89 555.13 200.54 532.88 179.15 510.2 192.53 496.24 234.61 470.52 259.06 453.11 243.27 454.54 266.99"/><path class="cls-2" d="M469.83,289.14l5.59,2.81s.22-24.79,7.39-43.13l-12.29,10.25-10.14-9.27C457.82,269.49,469.83,289.14,469.83,289.14Z"/><path class="cls-10" d="M475.42,292l20.83,12,14.67-19.84h28.33L554.42,306l18.07-12.21,3.76-2.46s1.27-61.22-38.81-79.94a28.45,28.45,0,0,0-23.51-.36C474.58,228.35,475.42,292,475.42,292Z"/><polygon class="cls-1" points="510.92 284.11 525.03 275.65 539.25 284.11 510.92 284.11"/><polygon class="cls-2" points="511.64 351.81 496.89 309.06 512.41 287.79 525.03 279.88 537.41 287.79 553.74 310.37 582.99 290.91 550.04 343.95 534.39 351.81 511.64 351.81"/><path class="cls-2" d="M570.56,253.77a116.54,116.54,0,0,1,4.78,22.85l4.76-17.86Z"/><polygon class="cls-1" points="638.85 267.04 650.14 297.68 683.86 344.6 695.86 351.85 718.61 351.85 734.26 344 767.21 290.95 795.27 239.34 764.61 256.89 740 242.94 739.43 200.58 717.18 179.2 694.5 192.57 680.54 234.66 654.83 259.11 637.42 243.32 638.85 267.04"/><path class="cls-2" d="M654.13,289.18l5.59,2.81s.23-24.79,7.4-43.12l-12.29,10.24-10.15-9.27C642.13,269.53,654.13,289.18,654.13,289.18Z"/><path class="cls-11" d="M659.72,292l20.84,12,14.66-19.83h28.34L738.72,306l18.07-12.2,3.77-2.46s1.26-61.23-38.82-79.95a28.5,28.5,0,0,0-23.5-.36C658.89,228.39,659.72,292,659.72,292Z"/><polygon class="cls-1" points="695.23 284.16 709.34 275.69 723.56 284.16 695.23 284.16"/><polygon class="cls-2" points="695.94 351.85 681.19 309.1 696.71 287.83 709.34 279.93 721.71 287.83 738.04 310.41 767.29 290.95 734.34 344 718.69 351.85 695.94 351.85"/><path class="cls-2" d="M754.87,253.82a116.82,116.82,0,0,1,4.77,22.85l4.77-17.87Z"/><polygon class="cls-1" points="538.91 311.77 550.2 342.41 583.92 389.33 595.92 396.58 618.67 396.58 634.32 388.73 667.27 335.69 695.33 284.07 664.67 301.62 640.06 287.67 639.5 245.32 617.25 223.93 594.56 237.3 580.6 279.39 554.89 303.84 537.48 288.05 538.91 311.77"/><path class="cls-2" d="M554.19,333.92l5.6,2.8s.22-24.79,7.39-43.12l-12.29,10.24-10.15-9.27C542.19,314.27,554.19,333.92,554.19,333.92Z"/><path class="cls-12" d="M559.79,336.72l20.83,12,14.67-19.83h28.33l15.17,21.83,18.06-12.2,3.77-2.46s1.27-61.23-38.82-79.95a28.47,28.47,0,0,0-23.5-.35C559,273.12,559.79,336.72,559.79,336.72Z"/><polygon class="cls-1" points="595.28 328.89 609.4 320.43 623.62 328.89 595.28 328.89"/><polygon class="cls-2" points="596 396.58 581.25 353.83 596.77 332.56 609.4 324.66 621.77 332.56 638.1 355.14 667.35 335.69 634.4 388.73 618.75 396.58 596 396.58"/><path class="cls-2" d="M654.93,298.55a116.82,116.82,0,0,1,4.77,22.85l4.77-17.86Z"/><polygon class="cls-1" points="723.18 311.61 734.47 342.26 768.19 389.18 780.19 396.43 802.94 396.43 818.59 388.57 851.54 335.53 879.6 283.91 848.94 301.46 824.34 287.51 823.77 245.16 801.52 223.77 778.84 237.15 764.87 279.23 739.16 303.68 721.75 287.89 723.18 311.61"/><path class="cls-2" d="M738.47,333.76l5.59,2.81s.22-24.79,7.39-43.13l-12.29,10.24L729,294.42C726.46,314.11,738.47,333.76,738.47,333.76Z"/><path class="cls-13" d="M744.06,336.57l20.83,12,14.67-19.84h28.33l15.17,21.84,18.06-12.21,3.77-2.46s1.27-61.22-38.82-79.94a28.43,28.43,0,0,0-23.5-.36C743.22,273,744.06,336.57,744.06,336.57Z"/><polygon class="cls-1" points="779.56 328.73 793.67 320.27 807.89 328.73 779.56 328.73"/><polygon class="cls-2" points="780.28 396.43 765.52 353.68 781.04 332.41 793.67 324.5 806.04 332.41 822.37 354.99 851.62 335.53 818.67 388.57 803.02 396.43 780.28 396.43"/><path class="cls-2" d="M839.2,298.39A116.82,116.82,0,0,1,844,321.24l4.77-17.86Z"/><polygon class="cls-1" points="623.24 356.34 634.53 386.99 668.25 433.91 680.25 441.16 703 441.16 718.65 433.3 751.6 380.26 779.66 328.64 749 346.19 724.39 332.24 723.83 289.89 701.58 268.5 678.89 281.88 664.93 323.96 639.22 348.42 621.81 332.62 623.24 356.34"/><path class="cls-2" d="M638.53,378.49l5.59,2.81s.22-24.79,7.39-43.13l-12.29,10.25-10.15-9.27C626.52,358.84,638.53,378.49,638.53,378.49Z"/><path class="cls-14" d="M644.12,381.3l20.83,12,14.67-19.84H708l15.17,21.84,18.06-12.21,3.77-2.46s1.27-61.22-38.82-79.94a28.43,28.43,0,0,0-23.5-.36C643.28,317.7,644.12,381.3,644.12,381.3Z"/><polygon class="cls-1" points="679.62 373.46 693.73 365 707.95 373.46 679.62 373.46"/><polygon class="cls-2" points="680.34 441.16 665.59 398.41 681.1 377.14 693.73 369.23 706.1 377.14 722.43 399.72 751.68 380.26 718.73 433.3 703.09 441.16 680.34 441.16"/><path class="cls-2" d="M739.26,343.12A117,117,0,0,1,744,366l4.77-17.87Z"/><polygon class="cls-1" points="101.37 177.32 112.66 207.96 146.38 254.88 158.38 262.13 181.13 262.13 196.78 254.28 229.73 201.23 257.79 149.62 227.13 167.17 202.52 153.22 201.95 110.86 179.7 89.48 157.02 102.85 143.06 144.94 117.35 169.39 99.94 153.6 101.37 177.32"/><path class="cls-2" d="M116.65,199.46l5.59,2.81s.23-24.79,7.4-43.12l-12.29,10.24-10.15-9.27C104.65,179.81,116.65,199.46,116.65,199.46Z"/><path class="cls-15" d="M122.24,202.27l20.84,12,14.66-19.83h28.34l15.16,21.83,18.07-12.2,3.77-2.46s1.26-61.23-38.82-80a28.5,28.5,0,0,0-23.5-.36C121.41,138.67,122.24,202.27,122.24,202.27Z"/><polygon class="cls-1" points="157.75 194.44 171.86 185.97 186.08 194.44 157.75 194.44"/><polygon class="cls-2" points="158.46 262.13 143.71 219.38 159.23 198.11 171.86 190.21 184.23 198.11 200.56 220.69 229.81 201.23 196.86 254.28 181.21 262.13 158.46 262.13"/><path class="cls-2" d="M217.39,164.1A116.82,116.82,0,0,1,222.16,187l4.77-17.87Z"/><polygon class="cls-1" points="185.88 222.27 197.16 252.92 230.89 299.83 242.89 307.08 265.64 307.08 281.29 299.23 314.24 246.19 342.3 194.57 311.64 212.12 287.03 198.17 286.46 155.82 264.21 134.43 241.53 147.81 227.57 189.89 201.86 214.34 184.45 198.55 185.88 222.27"/><path class="cls-2" d="M201.16,244.42l5.59,2.81s.23-24.79,7.4-43.13l-12.29,10.24-10.15-9.26C189.15,224.77,201.16,244.42,201.16,244.42Z"/><path class="cls-16" d="M206.75,247.23l20.84,12,14.66-19.84h28.34l15.16,21.84L303.82,249l3.77-2.46s1.26-61.22-38.82-79.94a28.43,28.43,0,0,0-23.5-.36C205.91,183.62,206.75,247.23,206.75,247.23Z"/><polygon class="cls-1" points="242.25 239.39 256.37 230.93 270.59 239.39 242.25 239.39"/><polygon class="cls-2" points="242.97 307.08 228.22 264.33 243.74 243.07 256.37 235.16 268.74 243.07 285.07 265.65 314.32 246.19 281.37 299.23 265.72 307.08 242.97 307.08"/><path class="cls-2" d="M301.9,209.05a116.82,116.82,0,0,1,4.77,22.85L311.44,214Z"/><polygon class="cls-1" points="1.43 222.05 12.72 252.69 46.44 299.61 58.44 306.86 81.19 306.86 96.84 299.01 129.79 245.97 157.85 194.35 127.19 211.9 102.58 197.95 102.01 155.6 79.76 134.21 57.08 147.58 43.12 189.67 17.41 214.12 0 198.33 1.43 222.05"/><path class="cls-2" d="M16.71,244.2,22.3,247s.23-24.79,7.4-43.12L17.41,214.12,7.26,204.85C4.71,224.55,16.71,244.2,16.71,244.2Z"/><path class="cls-17" d="M22.3,247l20.84,12L57.8,239.17H86.14L101.3,261l18.07-12.2,3.77-2.46s1.26-61.22-38.82-79.94a28.43,28.43,0,0,0-23.5-.36C21.47,183.4,22.3,247,22.3,247Z"/><polygon class="cls-1" points="57.8 239.17 71.92 230.71 86.14 239.17 57.8 239.17"/><polygon class="cls-2" points="58.52 306.86 43.77 264.11 59.29 242.84 71.92 234.94 84.29 242.84 100.62 265.42 129.87 245.97 96.92 299.01 81.27 306.86 58.52 306.86"/><path class="cls-2" d="M117.45,208.83a116.82,116.82,0,0,1,4.77,22.85L127,213.82Z"/><polygon class="cls-1" points="85.94 267 97.22 297.65 130.95 344.57 142.95 351.82 165.7 351.82 181.35 343.96 214.3 290.92 242.36 239.31 211.7 256.85 187.09 242.9 186.52 200.55 164.27 179.16 141.59 192.54 127.63 234.63 101.92 259.07 84.51 243.28 85.94 267"/><path class="cls-2" d="M101.22,289.15l5.59,2.81s.23-24.79,7.4-43.13l-12.29,10.25-10.15-9.27C89.21,269.5,101.22,289.15,101.22,289.15Z"/><path class="cls-18" d="M106.81,292l20.84,12,14.66-19.84h28.34L185.81,306l18.07-12.21,3.77-2.46s1.26-61.22-38.82-79.94a28.43,28.43,0,0,0-23.5-.36C106,228.36,106.81,292,106.81,292Z"/><polygon class="cls-1" points="142.31 284.13 156.43 275.66 170.65 284.13 142.31 284.13"/><polygon class="cls-2" points="143.03 351.82 128.28 309.07 143.8 287.8 156.43 279.89 168.8 287.8 185.13 310.38 214.38 290.92 181.43 343.96 165.78 351.82 143.03 351.82"/><path class="cls-2" d="M202,253.78a117,117,0,0,1,4.77,22.86l4.77-17.87Z"/><polygon class="cls-1" points="270.24 267.05 281.53 297.69 315.25 344.61 327.25 351.86 350 351.86 365.65 344.01 398.6 290.96 426.66 239.35 396 256.9 371.4 242.95 370.83 200.59 348.58 179.21 325.9 192.58 311.94 234.67 286.23 259.12 268.81 243.33 270.24 267.05"/><path class="cls-2" d="M285.53,289.19l5.59,2.81s.23-24.79,7.39-43.12l-12.29,10.24-10.14-9.27C273.52,269.54,285.53,289.19,285.53,289.19Z"/><path class="cls-19" d="M291.12,292,312,304l14.67-19.83H355L370.12,306l18.07-12.2,3.76-2.46s1.27-61.23-38.81-79.95a28.53,28.53,0,0,0-23.51-.36C290.28,228.4,291.12,292,291.12,292Z"/><polygon class="cls-1" points="326.62 284.17 340.73 275.7 354.95 284.17 326.62 284.17"/><polygon class="cls-2" points="327.34 351.86 312.59 309.11 328.11 287.84 340.73 279.94 353.11 287.84 369.44 310.42 398.69 290.96 365.74 344.01 350.09 351.86 327.34 351.86"/><path class="cls-2" d="M386.26,253.83A116.31,116.31,0,0,1,391,276.68l4.76-17.87Z"/><polygon class="cls-1" points="170.3 311.78 181.59 342.43 215.32 389.34 227.32 396.59 250.06 396.59 265.71 388.74 298.66 335.69 326.73 284.08 296.07 301.63 271.46 287.68 270.89 245.33 248.64 223.94 225.96 237.31 212 279.4 186.28 303.85 168.88 288.06 170.3 311.78"/><path class="cls-2" d="M185.59,333.93l5.59,2.8s.23-24.79,7.39-43.12l-12.29,10.24-10.14-9.27C173.58,314.28,185.59,333.93,185.59,333.93Z"/><path class="cls-20" d="M191.18,336.73l20.83,12,14.67-19.83H255l15.17,21.83,18.07-12.2,3.76-2.46s1.27-61.23-38.81-79.95a28.49,28.49,0,0,0-23.51-.35C190.34,273.13,191.18,336.73,191.18,336.73Z"/><polygon class="cls-1" points="226.68 328.9 240.79 320.44 255.01 328.9 226.68 328.9"/><polygon class="cls-2" points="227.4 396.59 212.65 353.84 228.17 332.57 240.79 324.67 253.17 332.57 269.5 355.15 298.75 335.69 265.8 388.74 250.15 396.59 227.4 396.59"/><path class="cls-2" d="M286.32,298.56a116.31,116.31,0,0,1,4.78,22.85l4.76-17.86Z"/><polygon class="cls-1" points="354.57 311.74 365.86 342.38 399.58 389.3 411.58 396.55 434.33 396.55 449.98 388.7 482.93 335.65 510.99 284.04 480.33 301.59 455.73 287.64 455.16 245.29 432.91 223.9 410.23 237.27 396.26 279.36 370.55 303.81 353.14 288.02 354.57 311.74"/><path class="cls-2" d="M369.86,333.89l5.59,2.8s.22-24.79,7.39-43.12l-12.29,10.24-10.15-9.27C357.85,314.24,369.86,333.89,369.86,333.89Z"/><path class="cls-21" d="M375.45,336.69l20.83,12L411,328.86h28.33l15.17,21.83,18.06-12.2,3.77-2.46s1.27-61.23-38.81-79.95a28.49,28.49,0,0,0-23.51-.35C374.61,273.09,375.45,336.69,375.45,336.69Z"/><polygon class="cls-1" points="410.95 328.86 425.06 320.39 439.28 328.86 410.95 328.86"/><polygon class="cls-2" points="411.67 396.55 396.92 353.8 412.44 332.53 425.06 324.63 437.44 332.53 453.76 355.11 483.01 335.65 450.06 388.7 434.42 396.55 411.67 396.55"/><path class="cls-2" d="M470.59,298.52a117.21,117.21,0,0,1,4.78,22.85l4.76-17.86Z"/><polygon class="cls-1" points="254.63 356.47 265.92 387.12 299.64 434.03 311.64 441.28 334.39 441.28 350.04 433.43 382.99 380.39 411.05 328.77 380.39 346.32 355.79 332.37 355.22 290.02 332.97 268.63 310.29 282 296.32 324.09 270.61 348.54 253.2 332.75 254.63 356.47"/><path class="cls-2" d="M269.92,378.62l5.59,2.81s.22-24.8,7.39-43.13l-12.29,10.24-10.15-9.27C257.91,359,269.92,378.62,269.92,378.62Z"/><path class="cls-22" d="M275.51,381.43l20.83,12L311,373.59h28.33l15.17,21.84,18.07-12.21,3.76-2.46s1.27-61.22-38.81-79.94a28.45,28.45,0,0,0-23.51-.36C274.67,317.82,275.51,381.43,275.51,381.43Z"/><polygon class="cls-1" points="311.01 373.59 325.12 365.13 339.34 373.59 311.01 373.59"/><polygon class="cls-2" points="311.73 441.28 296.98 398.53 312.5 377.27 325.12 369.36 337.5 377.27 353.82 399.85 383.07 380.39 350.13 433.43 334.48 441.28 311.73 441.28"/><path class="cls-2" d="M370.65,343.25a116.31,116.31,0,0,1,4.78,22.85l4.76-17.86Z"/><polygon class="cls-1" points="438.94 356.52 450.23 387.16 483.95 434.08 495.95 441.33 518.7 441.33 534.35 433.47 567.3 380.43 595.36 328.82 564.7 346.36 540.09 332.41 539.52 290.06 517.27 268.67 494.59 282.05 480.63 324.14 454.92 348.59 437.51 332.8 438.94 356.52"/><path class="cls-2" d="M454.22,378.66l5.59,2.81s.23-24.79,7.4-43.12l-12.29,10.24-10.15-9.27C442.21,359,454.22,378.66,454.22,378.66Z"/><path class="cls-23" d="M459.81,381.47l20.84,12,14.66-19.83h28.34l15.16,21.83,18.07-12.21,3.77-2.46s1.26-61.22-38.82-79.94a28.43,28.43,0,0,0-23.5-.36C459,317.87,459.81,381.47,459.81,381.47Z"/><polygon class="cls-1" points="495.31 373.64 509.43 365.17 523.65 373.64 495.31 373.64"/><polygon class="cls-2" points="496.03 441.33 481.28 398.58 496.8 377.31 509.43 369.4 521.8 377.31 538.13 399.89 567.38 380.43 534.43 433.47 518.78 441.33 496.03 441.33"/><path class="cls-2" d="M555,343.3a116.82,116.82,0,0,1,4.77,22.85l4.77-17.87Z"/><polygon class="cls-1" points="339 401.25 350.29 431.89 384.01 478.81 396.01 486.06 418.76 486.06 434.41 478.2 467.36 425.16 495.42 373.55 464.76 391.1 440.15 377.15 439.58 334.79 417.33 313.41 394.65 326.78 380.69 368.87 354.98 393.32 337.57 377.53 339 401.25"/><path class="cls-2" d="M354.28,423.39l5.59,2.81s.23-24.79,7.4-43.12L355,393.32l-10.15-9.27C342.27,403.74,354.28,423.39,354.28,423.39Z"/><path class="cls-24" d="M359.87,426.2l20.84,12,14.66-19.83h28.34l15.16,21.83L456.94,428l3.77-2.47s1.26-61.22-38.82-79.94a28.5,28.5,0,0,0-23.5-.36C359,362.6,359.87,426.2,359.87,426.2Z"/><polygon class="cls-1" points="395.37 418.37 409.49 409.9 423.71 418.37 395.37 418.37"/><polygon class="cls-2" points="396.09 486.06 381.34 443.31 396.86 422.04 409.49 414.14 421.86 422.04 438.19 444.62 467.44 425.16 434.49 478.2 418.84 486.06 396.09 486.06"/><path class="cls-2" d="M455,388a116.82,116.82,0,0,1,4.77,22.85L464.56,393Z"/><polygon class="cls-1" points="523.27 401.09 534.56 431.73 568.28 478.65 580.28 485.9 603.03 485.9 618.68 478.05 651.63 425 679.69 373.39 649.03 390.94 624.42 376.99 623.86 334.64 601.61 313.25 578.92 326.62 564.96 368.71 539.25 393.16 521.84 377.37 523.27 401.09"/><path class="cls-2" d="M538.55,423.24l5.6,2.8s.22-24.79,7.39-43.12l-12.29,10.24-10.15-9.27C526.55,403.59,538.55,423.24,538.55,423.24Z"/><path class="cls-25" d="M544.15,426,565,438l14.67-19.83H608L623.15,440l18.06-12.2,3.77-2.46s1.27-61.23-38.82-79.95a28.47,28.47,0,0,0-23.5-.35C543.31,362.44,544.15,426,544.15,426Z"/><polygon class="cls-1" points="579.65 418.21 593.76 409.75 607.98 418.21 579.65 418.21"/><polygon class="cls-2" points="580.37 485.9 565.62 443.15 581.13 421.88 593.76 413.98 606.13 421.88 622.46 444.46 651.71 425 618.76 478.05 603.12 485.9 580.37 485.9"/><path class="cls-2" d="M639.29,387.87a116.82,116.82,0,0,1,4.77,22.85l4.77-17.86Z"/><polygon class="cls-1" points="423.33 445.82 434.62 476.47 468.34 523.38 480.34 530.63 503.09 530.63 518.74 522.78 551.69 469.74 579.75 418.12 549.09 435.67 524.48 421.72 523.92 379.37 501.67 357.98 478.98 371.35 465.02 413.44 439.31 437.89 421.9 422.1 423.33 445.82"/><path class="cls-2" d="M438.61,468l5.6,2.81s.22-24.79,7.39-43.13l-12.29,10.24-10.15-9.27C426.61,448.32,438.61,468,438.61,468Z"/><path class="cls-26" d="M444.21,470.78l20.83,12,14.67-19.84H508l15.17,21.84,18.06-12.21,3.77-2.46s1.27-61.22-38.82-79.94a28.43,28.43,0,0,0-23.5-.36C443.37,407.17,444.21,470.78,444.21,470.78Z"/><polygon class="cls-1" points="479.71 462.94 493.82 454.48 508.04 462.94 479.71 462.94"/><polygon class="cls-2" points="480.43 530.63 465.68 487.88 481.19 466.62 493.82 458.71 506.19 466.62 522.52 489.19 551.77 469.74 518.82 522.78 503.18 530.63 480.43 530.63"/><path class="cls-2" d="M539.35,432.6a116.82,116.82,0,0,1,4.77,22.85l4.77-17.86Z"/><polygon class="cls-1" points="1146.43 177.26 1157.72 207.9 1191.44 254.82 1203.44 262.07 1226.19 262.07 1241.84 254.21 1274.79 201.17 1302.85 149.56 1272.19 167.1 1247.58 153.15 1247.02 110.8 1224.77 89.41 1202.08 102.79 1188.12 144.88 1162.41 169.33 1145 153.53 1146.43 177.26"/><path class="cls-2" d="M1161.71,199.4l5.6,2.81s.22-24.79,7.39-43.12l-12.29,10.24-10.15-9.27C1149.71,179.75,1161.71,199.4,1161.71,199.4Z"/><path class="cls-27" d="M1167.31,202.21l20.83,12,14.67-19.83h28.33l15.17,21.83L1264.37,204l3.77-2.46s1.27-61.22-38.82-79.94a28.43,28.43,0,0,0-23.5-.36C1166.47,138.61,1167.31,202.21,1167.31,202.21Z"/><polygon class="cls-1" points="1202.81 194.38 1216.92 185.91 1231.14 194.38 1202.81 194.38"/><polygon class="cls-2" points="1203.52 262.07 1188.77 219.32 1204.29 198.05 1216.92 190.14 1229.29 198.05 1245.62 220.63 1274.87 201.17 1241.92 254.21 1226.27 262.07 1203.52 262.07"/><path class="cls-2" d="M1262.45,164a116.82,116.82,0,0,1,4.77,22.85L1272,169Z"/><polygon class="cls-1" points="1230.94 222.21 1242.22 252.85 1275.95 299.77 1287.95 307.02 1310.7 307.02 1326.35 299.17 1359.3 246.12 1387.36 194.51 1356.7 212.06 1332.09 198.11 1331.52 155.75 1309.27 134.37 1286.59 147.74 1272.63 189.83 1246.92 214.28 1229.51 198.49 1230.94 222.21"/><path class="cls-2" d="M1246.22,244.35l5.59,2.81s.23-24.79,7.4-43.12l-12.29,10.24L1236.77,205C1234.21,224.7,1246.22,244.35,1246.22,244.35Z"/><path class="cls-28" d="M1251.81,247.16l20.84,12,14.66-19.83h28.34l15.16,21.83,18.07-12.2,3.77-2.46s1.26-61.23-38.82-79.95a28.5,28.5,0,0,0-23.5-.36C1251,183.56,1251.81,247.16,1251.81,247.16Z"/><polygon class="cls-1" points="1287.31 239.33 1301.43 230.87 1315.65 239.33 1287.31 239.33"/><polygon class="cls-2" points="1288.03 307.02 1273.28 264.27 1288.8 243 1301.43 235.1 1313.8 243 1330.13 265.58 1359.38 246.12 1326.43 299.17 1310.78 307.02 1288.03 307.02"/><path class="cls-2" d="M1347,209a116.82,116.82,0,0,1,4.77,22.85L1356.5,214Z"/><polygon class="cls-1" points="1046.49 221.99 1057.78 252.63 1091.5 299.55 1103.5 306.8 1126.25 306.8 1141.9 298.94 1174.85 245.9 1202.91 194.29 1172.25 211.83 1147.64 197.88 1147.08 155.53 1124.83 134.15 1102.14 147.52 1088.18 189.61 1062.47 214.06 1045.06 198.27 1046.49 221.99"/><path class="cls-2" d="M1061.77,244.13l5.6,2.81s.22-24.79,7.39-43.12l-12.29,10.24-10.15-9.27C1049.77,224.48,1061.77,244.13,1061.77,244.13Z"/><path class="cls-29" d="M1067.37,246.94l20.83,12,14.67-19.83h28.33l15.17,21.83,18.06-12.2,3.77-2.47s1.27-61.22-38.82-79.94a28.5,28.5,0,0,0-23.5-.36C1066.53,183.34,1067.37,246.94,1067.37,246.94Z"/><polygon class="cls-1" points="1102.87 239.11 1116.98 230.64 1131.2 239.11 1102.87 239.11"/><polygon class="cls-2" points="1103.58 306.8 1088.83 264.05 1104.35 242.78 1116.98 234.88 1129.35 242.78 1145.68 265.36 1174.93 245.9 1141.98 298.94 1126.33 306.8 1103.58 306.8"/><path class="cls-2" d="M1162.51,208.77a116.82,116.82,0,0,1,4.77,22.85l4.77-17.87Z"/><polygon class="cls-1" points="1131 266.94 1142.29 297.58 1176.01 344.5 1188.01 351.75 1210.76 351.75 1226.41 343.9 1259.36 290.86 1287.42 239.24 1256.76 256.79 1232.15 242.84 1231.58 200.49 1209.33 179.1 1186.65 192.47 1172.69 234.56 1146.98 259.01 1129.57 243.22 1131 266.94"/><path class="cls-2" d="M1146.28,289.09l5.59,2.8s.23-24.79,7.4-43.12L1147,259l-10.15-9.27C1134.27,269.44,1146.28,289.09,1146.28,289.09Z"/><path class="cls-30" d="M1151.87,291.89l20.84,12,14.66-19.83h28.34l15.16,21.83,18.07-12.2,3.77-2.46s1.26-61.23-38.82-80a28.47,28.47,0,0,0-23.5-.35C1151,228.29,1151.87,291.89,1151.87,291.89Z"/><polygon class="cls-1" points="1187.37 284.06 1201.49 275.6 1215.71 284.06 1187.37 284.06"/><polygon class="cls-2" points="1188.09 351.75 1173.34 309 1188.86 287.74 1201.49 279.83 1213.86 287.74 1230.19 310.31 1259.44 290.86 1226.49 343.9 1210.84 351.75 1188.09 351.75"/><path class="cls-2" d="M1247,253.72a116.82,116.82,0,0,1,4.77,22.85l4.77-17.86Z"/><polygon class="cls-1" points="1315.3 266.99 1326.59 297.63 1360.32 344.55 1372.32 351.8 1395.07 351.8 1410.71 343.94 1443.66 290.9 1471.72 239.29 1441.07 256.83 1416.46 242.88 1415.89 200.53 1393.64 179.14 1370.96 192.52 1357 234.61 1331.29 259.06 1313.88 243.26 1315.3 266.99"/><path class="cls-2" d="M1330.59,289.13l5.59,2.81s.23-24.79,7.39-43.12l-12.28,10.24-10.15-9.27C1318.58,269.48,1330.59,289.13,1330.59,289.13Z"/><path class="cls-31" d="M1336.18,291.94l20.83,12,14.67-19.83H1400l15.17,21.83,18.07-12.21,3.76-2.46s1.27-61.22-38.81-79.94a28.45,28.45,0,0,0-23.51-.36C1335.34,228.34,1336.18,291.94,1336.18,291.94Z"/><polygon class="cls-1" points="1371.68 284.11 1385.79 275.64 1400.01 284.11 1371.68 284.11"/><polygon class="cls-2" points="1372.4 351.8 1357.65 309.05 1373.17 287.78 1385.79 279.87 1398.17 287.78 1414.5 310.36 1443.75 290.9 1410.8 343.94 1395.15 351.8 1372.4 351.8"/><path class="cls-2" d="M1431.32,253.77a116.31,116.31,0,0,1,4.78,22.85l4.76-17.87Z"/><polygon class="cls-1" points="1215.36 311.72 1226.65 342.36 1260.38 389.28 1272.38 396.53 1295.13 396.53 1310.77 388.67 1343.72 335.63 1371.79 284.02 1341.13 301.56 1316.52 287.62 1315.95 245.26 1293.7 223.88 1271.02 237.25 1257.06 279.34 1231.35 303.79 1213.94 288 1215.36 311.72"/><path class="cls-2" d="M1230.65,333.86l5.59,2.81s.23-24.79,7.39-43.12l-12.28,10.24-10.15-9.27C1218.64,314.21,1230.65,333.86,1230.65,333.86Z"/><path class="cls-32" d="M1236.24,336.67l20.83,12,14.67-19.83h28.33l15.17,21.83,18.07-12.2,3.76-2.47s1.27-61.22-38.81-79.94a28.49,28.49,0,0,0-23.51-.36C1235.4,273.07,1236.24,336.67,1236.24,336.67Z"/><polygon class="cls-1" points="1271.74 328.84 1285.85 320.37 1300.07 328.84 1271.74 328.84"/><polygon class="cls-2" points="1272.46 396.53 1257.71 353.78 1273.23 332.51 1285.85 324.61 1298.23 332.51 1314.56 355.09 1343.81 335.63 1310.86 388.67 1295.21 396.53 1272.46 396.53"/><path class="cls-2" d="M1331.38,298.5a116.31,116.31,0,0,1,4.78,22.85l4.76-17.87Z"/><polygon class="cls-1" points="1399.63 311.68 1410.92 342.32 1444.64 389.24 1456.64 396.49 1479.39 396.49 1495.04 388.63 1527.99 335.59 1556.05 283.98 1525.39 301.52 1500.79 287.57 1500.22 245.22 1477.97 223.84 1455.29 237.21 1441.33 279.3 1415.61 303.75 1398.2 287.95 1399.63 311.68"/><path class="cls-2" d="M1414.92,333.82l5.59,2.81s.22-24.79,7.39-43.12l-12.29,10.24-10.15-9.27C1402.91,314.17,1414.92,333.82,1414.92,333.82Z"/><path class="cls-33" d="M1420.51,336.63l20.83,12L1456,328.8h28.33l15.17,21.83,18.07-12.21,3.76-2.46s1.27-61.22-38.81-79.94a28.45,28.45,0,0,0-23.51-.36C1419.67,273,1420.51,336.63,1420.51,336.63Z"/><polygon class="cls-1" points="1456.01 328.8 1470.12 320.33 1484.34 328.8 1456.01 328.8"/><polygon class="cls-2" points="1456.73 396.49 1441.98 353.74 1457.5 332.47 1470.12 324.56 1482.5 332.47 1498.83 355.05 1528.08 335.59 1495.13 388.63 1479.48 396.49 1456.73 396.49"/><path class="cls-2" d="M1515.65,298.46a116.31,116.31,0,0,1,4.78,22.85l4.76-17.87Z"/><polygon class="cls-1" points="1299.69 356.41 1310.98 387.05 1344.7 433.97 1356.7 441.22 1379.45 441.22 1395.1 433.37 1428.05 380.32 1456.11 328.71 1425.45 346.25 1400.85 332.31 1400.28 289.95 1378.03 268.57 1355.35 281.94 1341.39 324.03 1315.67 348.48 1298.26 332.69 1299.69 356.41"/><path class="cls-2" d="M1315,378.55l5.59,2.81s.22-24.79,7.39-43.12l-12.29,10.24-10.15-9.27C1303,358.9,1315,378.55,1315,378.55Z"/><path class="cls-34" d="M1320.57,381.36l20.83,12,14.67-19.83h28.33l15.17,21.83,18.07-12.2,3.76-2.46s1.27-61.23-38.81-79.95a28.53,28.53,0,0,0-23.51-.36C1319.73,317.76,1320.57,381.36,1320.57,381.36Z"/><polygon class="cls-1" points="1356.07 373.53 1370.18 365.06 1384.4 373.53 1356.07 373.53"/><polygon class="cls-2" points="1356.79 441.22 1342.04 398.47 1357.56 377.2 1370.18 369.3 1382.56 377.2 1398.89 399.78 1428.14 380.32 1395.18 433.37 1379.54 441.22 1356.79 441.22"/><path class="cls-2" d="M1415.71,343.19a116.31,116.31,0,0,1,4.78,22.85l4.76-17.87Z"/><path class="cls-35" d="M976.27,235.52h-7.83v-7.83a3.59,3.59,0,1,0-7.17,0v7.83h-7.83a3.59,3.59,0,0,0,0,7.17h7.83v7.83a3.59,3.59,0,0,0,7.17,0v-7.83h7.83a3.59,3.59,0,1,0,0-7.17Z"/></g></svg>