<svg xmlns="http://www.w3.org/2000/svg" xmlns:xlink="http://www.w3.org/1999/xlink" viewBox="0 0 1381.56 485.93"><defs><style>.cls-1{fill:#62abbc;}.cls-2{fill:#3d838e;opacity:0.51;}.cls-3{fill:url(#linear-gradient);}.cls-4{fill:url(#linear-gradient-2);}.cls-5{fill:url(#linear-gradient-3);}.cls-6{fill:url(#linear-gradient-4);}.cls-7{fill:url(#linear-gradient-5);}.cls-8{fill:url(#linear-gradient-6);}.cls-9{fill:url(#linear-gradient-7);}.cls-10{fill:url(#linear-gradient-8);}.cls-11{fill:url(#linear-gradient-9);}.cls-12{fill:url(#linear-gradient-10);}.cls-13{fill:url(#linear-gradient-11);}.cls-14{fill:url(#linear-gradient-12);}.cls-15{fill:url(#linear-gradient-13);}.cls-16{fill:url(#linear-gradient-14);}.cls-17{fill:url(#linear-gradient-15);}.cls-18{fill:url(#linear-gradient-16);}.cls-19{fill:url(#linear-gradient-17);}.cls-20{fill:url(#linear-gradient-18);}.cls-21{fill:url(#linear-gradient-19);}.cls-22{fill:url(#linear-gradient-20);}.cls-23{fill:#f05023;}</style><linearGradient id="linear-gradient" x1="122.24" y1="78.13" x2="223.08" y2="78.13" gradientUnits="userSpaceOnUse"><stop offset="0" stop-color="#fbb040"/><stop offset="0.39" stop-color="#f9ae41"/><stop offset="0.59" stop-color="#f1a845"/><stop offset="0.74" stop-color="#e49e4b"/><stop offset="0.87" stop-color="#d18f55"/><stop offset="0.99" stop-color="#b97c60"/><stop offset="1" stop-color="#b67a62"/></linearGradient><linearGradient id="linear-gradient-2" x1="206.75" y1="123.08" x2="307.59" y2="123.08" xlink:href="#linear-gradient"/><linearGradient id="linear-gradient-3" x1="22.3" y1="122.86" x2="123.14" y2="122.86" xlink:href="#linear-gradient"/><linearGradient id="linear-gradient-4" x1="106.81" y1="167.81" x2="207.65" y2="167.81" xlink:href="#linear-gradient"/><linearGradient id="linear-gradient-5" x1="291.12" y1="167.86" x2="391.96" y2="167.86" xlink:href="#linear-gradient"/><linearGradient id="linear-gradient-6" x1="191.18" y1="212.59" x2="292.02" y2="212.59" xlink:href="#linear-gradient"/><linearGradient id="linear-gradient-7" x1="375.45" y1="212.55" x2="476.29" y2="212.55" xlink:href="#linear-gradient"/><linearGradient id="linear-gradient-8" x1="275.51" y1="257.28" x2="376.35" y2="257.28" xlink:href="#linear-gradient"/><linearGradient id="linear-gradient-9" x1="459.81" y1="257.33" x2="560.65" y2="257.33" xlink:href="#linear-gradient"/><linearGradient id="linear-gradient-10" x1="359.87" y1="302.06" x2="460.71" y2="302.06" xlink:href="#linear-gradient"/><linearGradient id="linear-gradient-11" x1="544.14" y1="301.9" x2="644.98" y2="301.9" xlink:href="#linear-gradient"/><linearGradient id="linear-gradient-12" x1="444.2" y1="346.63" x2="545.04" y2="346.63" xlink:href="#linear-gradient"/><linearGradient id="linear-gradient-13" x1="628.51" y1="346.68" x2="729.35" y2="346.68" xlink:href="#linear-gradient"/><linearGradient id="linear-gradient-14" x1="528.57" y1="391.41" x2="629.41" y2="391.41" xlink:href="#linear-gradient"/><linearGradient id="linear-gradient-15" x1="1077.14" y1="167.54" x2="1177.98" y2="167.54" xlink:href="#linear-gradient"/><linearGradient id="linear-gradient-16" x1="1161.65" y1="212.49" x2="1262.49" y2="212.49" xlink:href="#linear-gradient"/><linearGradient id="linear-gradient-17" x1="977.2" y1="212.27" x2="1078.04" y2="212.27" xlink:href="#linear-gradient"/><linearGradient id="linear-gradient-18" x1="1061.71" y1="257.22" x2="1162.55" y2="257.22" xlink:href="#linear-gradient"/><linearGradient id="linear-gradient-19" x1="1246.02" y1="257.27" x2="1346.85" y2="257.27" xlink:href="#linear-gradient"/><linearGradient id="linear-gradient-20" x1="1146.08" y1="302" x2="1246.91" y2="302" xlink:href="#linear-gradient"/></defs><title>V5_R3</title><g id="Layer_2" data-name="Layer 2"><polygon class="cls-1" points="101.37 87.84 112.66 118.49 146.38 165.4 158.38 172.65 181.13 172.65 196.78 164.8 229.73 111.76 257.79 60.14 227.13 77.69 202.52 63.74 201.95 21.39 179.7 0 157.02 13.37 143.06 55.46 117.35 79.91 99.94 64.12 101.37 87.84"/><path class="cls-2" d="M116.65,110l5.59,2.81s.23-24.79,7.4-43.13L117.35,79.91,107.2,70.64C104.65,90.34,116.65,110,116.65,110Z"/><path class="cls-3" d="M122.24,112.8l20.84,12L157.74,105h28.34l15.16,21.84,18.07-12.21,3.77-2.46s1.26-61.22-38.82-79.94a28.43,28.43,0,0,0-23.5-.36C121.41,49.19,122.24,112.8,122.24,112.8Z"/><polygon class="cls-1" points="157.75 104.96 171.86 96.5 186.08 104.96 157.75 104.96"/><polygon class="cls-2" points="158.46 172.65 143.71 129.9 159.23 108.64 171.86 100.73 184.23 108.64 200.56 131.22 229.81 111.76 196.86 164.8 181.21 172.65 158.46 172.65"/><path class="cls-2" d="M217.39,74.62a116.82,116.82,0,0,1,4.77,22.85l4.77-17.86Z"/><polygon class="cls-1" points="185.88 132.79 197.16 163.44 230.89 210.36 242.89 217.61 265.64 217.61 281.29 209.75 314.24 156.71 342.3 105.1 311.64 122.64 287.03 108.69 286.46 66.34 264.21 44.95 241.53 58.33 227.57 100.42 201.86 124.87 184.45 109.07 185.88 132.79"/><path class="cls-2" d="M201.16,154.94l5.59,2.81s.23-24.79,7.4-43.12l-12.29,10.24-10.15-9.27C189.15,135.29,201.16,154.94,201.16,154.94Z"/><path class="cls-4" d="M206.75,157.75l20.84,12,14.66-19.83h28.34l15.16,21.83,18.07-12.21,3.77-2.46s1.26-61.22-38.82-79.94a28.43,28.43,0,0,0-23.5-.36C205.91,94.15,206.75,157.75,206.75,157.75Z"/><polygon class="cls-1" points="242.25 149.92 256.37 141.45 270.59 149.92 242.25 149.92"/><polygon class="cls-2" points="242.97 217.61 228.22 174.86 243.74 153.59 256.37 145.68 268.74 153.59 285.07 176.17 314.32 156.71 281.37 209.75 265.72 217.61 242.97 217.61"/><path class="cls-2" d="M301.9,119.58a116.82,116.82,0,0,1,4.77,22.85l4.77-17.87Z"/><polygon class="cls-1" points="1.43 132.57 12.72 163.22 46.44 210.14 58.44 217.39 81.19 217.39 96.84 209.53 129.79 156.49 157.85 104.87 127.19 122.42 102.58 108.47 102.01 66.12 79.76 44.73 57.08 58.1 43.12 100.19 17.41 124.64 0 108.85 1.43 132.57"/><path class="cls-2" d="M16.71,154.72l5.59,2.81s.23-24.79,7.4-43.13L17.41,124.64,7.26,115.38C4.71,135.07,16.71,154.72,16.71,154.72Z"/><path class="cls-5" d="M22.3,157.53l20.84,12L57.8,149.69H86.14l15.16,21.84,18.07-12.21,3.77-2.46s1.26-61.22-38.82-79.94a28.43,28.43,0,0,0-23.5-.36C21.47,93.92,22.3,157.53,22.3,157.53Z"/><polygon class="cls-1" points="57.8 149.69 71.92 141.23 86.14 149.69 57.8 149.69"/><polygon class="cls-2" points="58.52 217.39 43.77 174.64 59.29 153.37 71.92 145.46 84.29 153.37 100.62 175.95 129.87 156.49 96.92 209.53 81.27 217.39 58.52 217.39"/><path class="cls-2" d="M117.45,119.35a117,117,0,0,1,4.77,22.85L127,124.34Z"/><polygon class="cls-1" points="85.94 177.53 97.22 208.17 130.95 255.09 142.95 262.34 165.7 262.34 181.35 254.48 214.3 201.44 242.36 149.83 211.7 167.37 187.09 153.43 186.52 111.07 164.27 89.69 141.59 103.06 127.63 145.15 101.92 169.6 84.51 153.81 85.94 177.53"/><path class="cls-2" d="M101.22,199.67l5.59,2.81s.23-24.79,7.4-43.12L101.92,169.6l-10.15-9.27C89.21,180,101.22,199.67,101.22,199.67Z"/><path class="cls-6" d="M106.81,202.48l20.84,12,14.66-19.83h28.34l15.16,21.83,18.07-12.21,3.77-2.46s1.26-61.22-38.82-79.94a28.43,28.43,0,0,0-23.5-.36C106,138.88,106.81,202.48,106.81,202.48Z"/><polygon class="cls-1" points="142.31 194.65 156.43 186.18 170.65 194.65 142.31 194.65"/><polygon class="cls-2" points="143.03 262.34 128.28 219.59 143.8 198.32 156.43 190.41 168.8 198.32 185.13 220.9 214.38 201.44 181.43 254.48 165.78 262.34 143.03 262.34"/><path class="cls-2" d="M202,164.31a116.82,116.82,0,0,1,4.77,22.85l4.77-17.87Z"/><polygon class="cls-1" points="270.24 177.57 281.53 208.22 315.25 255.13 327.25 262.38 350 262.38 365.65 254.53 398.6 201.49 426.66 149.87 396 167.42 371.4 153.47 370.83 111.12 348.58 89.73 325.9 103.1 311.94 145.19 286.23 169.64 268.81 153.85 270.24 177.57"/><path class="cls-2" d="M285.53,199.72l5.59,2.81s.23-24.8,7.39-43.13l-12.29,10.24-10.14-9.27C273.52,180.07,285.53,199.72,285.53,199.72Z"/><path class="cls-7" d="M291.12,202.53l20.83,12,14.67-19.84H355l15.17,21.84,18.07-12.21,3.76-2.46s1.27-61.22-38.81-79.94a28.45,28.45,0,0,0-23.51-.36C290.28,138.92,291.12,202.53,291.12,202.53Z"/><polygon class="cls-1" points="326.62 194.69 340.73 186.23 354.95 194.69 326.62 194.69"/><polygon class="cls-2" points="327.34 262.38 312.59 219.63 328.11 198.37 340.73 190.46 353.11 198.37 369.44 220.94 398.69 201.49 365.74 254.53 350.09 262.38 327.34 262.38"/><path class="cls-2" d="M386.26,164.35A116.31,116.31,0,0,1,391,187.2l4.76-17.86Z"/><polygon class="cls-1" points="170.3 222.3 181.59 252.95 215.32 299.87 227.32 307.12 250.06 307.12 265.71 299.26 298.66 246.22 326.73 194.6 296.07 212.15 271.46 198.2 270.89 155.85 248.64 134.46 225.96 147.84 212 189.92 186.28 214.37 168.88 198.58 170.3 222.3"/><path class="cls-2" d="M185.59,244.45l5.59,2.81s.23-24.79,7.39-43.13l-12.29,10.24-10.14-9.26C173.58,224.8,185.59,244.45,185.59,244.45Z"/><path class="cls-8" d="M191.18,247.26l20.83,12,14.67-19.84H255l15.17,21.84,18.07-12.21,3.76-2.46s1.27-61.22-38.81-79.94a28.45,28.45,0,0,0-23.51-.36C190.34,183.65,191.18,247.26,191.18,247.26Z"/><polygon class="cls-1" points="226.68 239.42 240.79 230.96 255.01 239.42 226.68 239.42"/><polygon class="cls-2" points="227.4 307.12 212.65 264.37 228.17 243.1 240.79 235.19 253.17 243.1 269.5 265.68 298.75 246.22 265.8 299.26 250.15 307.12 227.4 307.12"/><path class="cls-2" d="M286.32,209.08a116.31,116.31,0,0,1,4.78,22.85l4.76-17.86Z"/><polygon class="cls-1" points="354.57 222.26 365.86 252.91 399.58 299.82 411.58 307.07 434.33 307.07 449.98 299.22 482.93 246.18 510.99 194.56 480.33 212.11 455.73 198.16 455.16 155.81 432.91 134.42 410.23 147.79 396.26 189.88 370.55 214.33 353.14 198.54 354.57 222.26"/><path class="cls-2" d="M369.86,244.41l5.59,2.81s.22-24.79,7.39-43.13l-12.29,10.24-10.15-9.27C357.85,224.76,369.86,244.41,369.86,244.41Z"/><path class="cls-9" d="M375.45,247.22l20.83,12L411,239.38h28.33l15.17,21.84L472.51,249l3.77-2.46s1.27-61.22-38.81-79.94a28.45,28.45,0,0,0-23.51-.36C374.61,183.61,375.45,247.22,375.45,247.22Z"/><polygon class="cls-1" points="410.95 239.38 425.06 230.92 439.28 239.38 410.95 239.38"/><polygon class="cls-2" points="411.67 307.07 396.92 264.32 412.44 243.06 425.06 235.15 437.44 243.06 453.76 265.63 483.01 246.18 450.06 299.22 434.42 307.07 411.67 307.07"/><path class="cls-2" d="M470.59,209a117.21,117.21,0,0,1,4.78,22.85L480.13,214Z"/><polygon class="cls-1" points="254.63 266.99 265.92 297.64 299.64 344.56 311.64 351.81 334.39 351.81 350.04 343.95 382.99 290.91 411.05 239.29 380.39 256.84 355.79 242.89 355.22 200.54 332.97 179.15 310.29 192.53 296.32 234.61 270.61 259.06 253.2 243.27 254.63 266.99"/><path class="cls-2" d="M269.92,289.14l5.59,2.81s.22-24.79,7.39-43.13l-12.29,10.25-10.15-9.27C257.91,269.49,269.92,289.14,269.92,289.14Z"/><path class="cls-10" d="M275.51,292l20.83,12L311,284.11h28.33L354.51,306l18.07-12.21,3.76-2.46s1.27-61.22-38.81-79.94A28.45,28.45,0,0,0,314,211C274.67,228.35,275.51,292,275.51,292Z"/><polygon class="cls-1" points="311.01 284.11 325.12 275.65 339.34 284.11 311.01 284.11"/><polygon class="cls-2" points="311.73 351.81 296.98 309.06 312.5 287.79 325.12 279.88 337.5 287.79 353.82 310.37 383.07 290.91 350.13 343.95 334.48 351.81 311.73 351.81"/><path class="cls-2" d="M370.65,253.77a116.54,116.54,0,0,1,4.78,22.85l4.76-17.86Z"/><polygon class="cls-1" points="438.94 267.04 450.23 297.68 483.95 344.6 495.95 351.85 518.7 351.85 534.35 344 567.3 290.95 595.36 239.34 564.7 256.89 540.09 242.94 539.52 200.58 517.27 179.2 494.59 192.57 480.63 234.66 454.92 259.11 437.51 243.32 438.94 267.04"/><path class="cls-2" d="M454.22,289.18l5.59,2.81s.23-24.79,7.4-43.12l-12.29,10.24-10.15-9.27C442.21,269.53,454.22,289.18,454.22,289.18Z"/><path class="cls-11" d="M459.81,292l20.84,12,14.66-19.83h28.34L538.81,306l18.07-12.2,3.77-2.46s1.26-61.23-38.82-79.95a28.5,28.5,0,0,0-23.5-.36C459,228.39,459.81,292,459.81,292Z"/><polygon class="cls-1" points="495.31 284.16 509.43 275.69 523.65 284.16 495.31 284.16"/><polygon class="cls-2" points="496.03 351.85 481.28 309.1 496.8 287.83 509.43 279.93 521.8 287.83 538.13 310.41 567.38 290.95 534.43 344 518.78 351.85 496.03 351.85"/><path class="cls-2" d="M555,253.82a116.82,116.82,0,0,1,4.77,22.85l4.77-17.87Z"/><polygon class="cls-1" points="339 311.77 350.29 342.41 384.01 389.33 396.01 396.58 418.76 396.58 434.41 388.73 467.36 335.69 495.42 284.07 464.76 301.62 440.15 287.67 439.58 245.32 417.33 223.93 394.65 237.3 380.69 279.39 354.98 303.84 337.57 288.05 339 311.77"/><path class="cls-2" d="M354.28,333.92l5.59,2.8s.23-24.79,7.4-43.12L355,303.84l-10.15-9.27C342.27,314.27,354.28,333.92,354.28,333.92Z"/><path class="cls-12" d="M359.87,336.72l20.84,12,14.66-19.83h28.34l15.16,21.83,18.07-12.2,3.77-2.46s1.26-61.23-38.82-79.95a28.47,28.47,0,0,0-23.5-.35C359,273.12,359.87,336.72,359.87,336.72Z"/><polygon class="cls-1" points="395.37 328.89 409.49 320.43 423.71 328.89 395.37 328.89"/><polygon class="cls-2" points="396.09 396.58 381.34 353.83 396.86 332.56 409.49 324.66 421.86 332.56 438.19 355.14 467.44 335.69 434.49 388.73 418.84 396.58 396.09 396.58"/><path class="cls-2" d="M455,298.55a116.82,116.82,0,0,1,4.77,22.85l4.77-17.86Z"/><polygon class="cls-1" points="523.27 311.61 534.56 342.26 568.28 389.18 580.28 396.43 603.03 396.43 618.68 388.57 651.63 335.53 679.69 283.91 649.03 301.46 624.42 287.51 623.86 245.16 601.61 223.77 578.92 237.15 564.96 279.23 539.25 303.68 521.84 287.89 523.27 311.61"/><path class="cls-2" d="M538.55,333.76l5.6,2.81s.22-24.79,7.39-43.13l-12.29,10.24-10.15-9.26C526.55,314.11,538.55,333.76,538.55,333.76Z"/><path class="cls-13" d="M544.15,336.57l20.83,12,14.67-19.84H608l15.17,21.84,18.06-12.21L645,335.9s1.27-61.22-38.82-79.94a28.43,28.43,0,0,0-23.5-.36C543.31,273,544.15,336.57,544.15,336.57Z"/><polygon class="cls-1" points="579.65 328.73 593.76 320.27 607.98 328.73 579.65 328.73"/><polygon class="cls-2" points="580.37 396.43 565.62 353.68 581.13 332.41 593.76 324.5 606.13 332.41 622.46 354.99 651.71 335.53 618.76 388.57 603.12 396.43 580.37 396.43"/><path class="cls-2" d="M639.29,298.39a116.82,116.82,0,0,1,4.77,22.85l4.77-17.86Z"/><polygon class="cls-1" points="423.33 356.34 434.62 386.99 468.34 433.91 480.34 441.16 503.09 441.16 518.74 433.3 551.69 380.26 579.75 328.64 549.09 346.19 524.48 332.24 523.92 289.89 501.67 268.5 478.98 281.88 465.02 323.96 439.31 348.42 421.9 332.62 423.33 356.34"/><path class="cls-2" d="M438.61,378.49l5.6,2.81s.22-24.79,7.39-43.13l-12.29,10.25-10.15-9.27C426.61,358.84,438.61,378.49,438.61,378.49Z"/><path class="cls-14" d="M444.21,381.3l20.83,12,14.67-19.84H508l15.17,21.84,18.06-12.21,3.77-2.46s1.27-61.22-38.82-79.94a28.43,28.43,0,0,0-23.5-.36C443.37,317.7,444.21,381.3,444.21,381.3Z"/><polygon class="cls-1" points="479.71 373.46 493.82 365 508.04 373.46 479.71 373.46"/><polygon class="cls-2" points="480.43 441.16 465.68 398.41 481.19 377.14 493.82 369.23 506.19 377.14 522.52 399.72 551.77 380.26 518.82 433.3 503.18 441.16 480.43 441.16"/><path class="cls-2" d="M539.35,343.12A117,117,0,0,1,544.12,366l4.77-17.87Z"/><polygon class="cls-1" points="607.63 356.39 618.92 387.03 652.65 433.95 664.65 441.2 687.4 441.2 703.05 433.35 736 380.3 764.06 328.69 733.4 346.24 708.79 332.29 708.22 289.94 685.97 268.55 663.29 281.92 649.33 324.01 623.62 348.46 606.21 332.67 607.63 356.39"/><path class="cls-2" d="M622.92,378.53l5.59,2.81s.23-24.79,7.39-43.12l-12.28,10.24-10.15-9.27C610.91,358.88,622.92,378.53,622.92,378.53Z"/><path class="cls-15" d="M628.51,381.34l20.84,12L664,373.51h28.34l15.16,21.83,18.07-12.2,3.77-2.46s1.26-61.23-38.82-79.95a28.5,28.5,0,0,0-23.5-.36C627.67,317.74,628.51,381.34,628.51,381.34Z"/><polygon class="cls-1" points="664.01 373.51 678.12 365.04 692.35 373.51 664.01 373.51"/><polygon class="cls-2" points="664.73 441.2 649.98 398.45 665.5 377.18 678.12 369.28 690.5 377.18 706.83 399.76 736.08 380.3 703.13 433.35 687.48 441.2 664.73 441.2"/><path class="cls-2" d="M723.66,343.17A116.82,116.82,0,0,1,728.43,366l4.77-17.87Z"/><polygon class="cls-1" points="507.69 401.12 518.98 431.76 552.71 478.68 564.71 485.93 587.46 485.93 603.11 478.08 636.06 425.04 664.12 373.42 633.46 390.97 608.85 377.02 608.28 334.67 586.03 313.28 563.35 326.65 549.39 368.74 523.68 393.19 506.27 377.4 507.69 401.12"/><path class="cls-2" d="M523,423.27l5.59,2.8S528.8,401.28,536,383l-12.28,10.24-10.15-9.27C511,403.62,523,423.27,523,423.27Z"/><path class="cls-16" d="M528.57,426.07l20.84,12,14.66-19.83h28.34l15.16,21.83,18.07-12.2,3.77-2.46s1.26-61.23-38.82-80a28.47,28.47,0,0,0-23.5-.35C527.73,362.47,528.57,426.07,528.57,426.07Z"/><polygon class="cls-1" points="564.07 418.24 578.18 409.78 592.41 418.24 564.07 418.24"/><polygon class="cls-2" points="564.79 485.93 550.04 443.18 565.56 421.92 578.18 414.01 590.56 421.92 606.89 444.49 636.14 425.04 603.19 478.08 587.54 485.93 564.79 485.93"/><path class="cls-2" d="M623.72,387.9a116.82,116.82,0,0,1,4.77,22.85l4.77-17.86Z"/><polygon class="cls-1" points="1056.26 177.25 1067.55 207.9 1101.28 254.81 1113.28 262.06 1136.03 262.06 1151.67 254.21 1184.63 201.16 1212.69 149.55 1182.03 167.1 1157.42 153.15 1156.85 110.8 1134.6 89.41 1111.92 102.78 1097.96 144.87 1072.25 169.32 1054.84 153.53 1056.26 177.25"/><path class="cls-2" d="M1071.55,199.4l5.59,2.8s.23-24.79,7.39-43.12l-12.28,10.24-10.15-9.27C1059.54,179.75,1071.55,199.4,1071.55,199.4Z"/><path class="cls-17" d="M1077.14,202.2l20.84,12,14.66-19.83H1141l15.16,21.83,18.07-12.2,3.77-2.46s1.26-61.23-38.82-79.95a28.47,28.47,0,0,0-23.5-.35C1076.3,138.6,1077.14,202.2,1077.14,202.2Z"/><polygon class="cls-1" points="1112.64 194.37 1126.75 185.91 1140.97 194.37 1112.64 194.37"/><polygon class="cls-2" points="1113.36 262.06 1098.61 219.31 1114.13 198.04 1126.75 190.14 1139.13 198.04 1155.46 220.62 1184.71 201.16 1151.76 254.21 1136.11 262.06 1113.36 262.06"/><path class="cls-2" d="M1172.29,164a116.82,116.82,0,0,1,4.77,22.85l4.76-17.86Z"/><polygon class="cls-1" points="1140.77 222.2 1152.06 252.85 1185.79 299.77 1197.79 307.02 1220.54 307.02 1236.18 299.16 1269.13 246.12 1297.19 194.5 1266.54 212.05 1241.93 198.1 1241.36 155.75 1219.11 134.36 1196.43 147.74 1182.47 189.82 1156.76 214.28 1139.35 198.48 1140.77 222.2"/><path class="cls-2" d="M1156.06,244.35l5.59,2.81s.23-24.79,7.39-43.13l-12.28,10.25L1146.61,205C1144.05,224.7,1156.06,244.35,1156.06,244.35Z"/><path class="cls-18" d="M1161.65,247.16l20.83,12,14.67-19.84h28.33l15.17,21.84L1258.72,249l3.76-2.46s1.27-61.22-38.81-79.94a28.45,28.45,0,0,0-23.51-.36C1160.81,183.56,1161.65,247.16,1161.65,247.16Z"/><polygon class="cls-1" points="1197.15 239.32 1211.26 230.86 1225.48 239.32 1197.15 239.32"/><polygon class="cls-2" points="1197.87 307.02 1183.12 264.27 1198.64 243 1211.26 235.09 1223.64 243 1239.97 265.58 1269.22 246.12 1236.27 299.16 1220.62 307.02 1197.87 307.02"/><path class="cls-2" d="M1256.79,209a116.54,116.54,0,0,1,4.78,22.86l4.76-17.87Z"/><polygon class="cls-1" points="956.32 221.98 967.61 252.63 1001.34 299.55 1013.34 306.8 1036.09 306.8 1051.74 298.94 1084.69 245.9 1112.75 194.28 1082.09 211.83 1057.48 197.88 1056.91 155.53 1034.66 134.14 1011.98 147.51 998.02 189.6 972.31 214.05 954.9 198.26 956.32 221.98"/><path class="cls-2" d="M971.61,244.13l5.59,2.81s.23-24.79,7.39-43.13l-12.28,10.24-10.15-9.27C959.6,224.48,971.61,244.13,971.61,244.13Z"/><path class="cls-19" d="M977.2,246.94l20.84,12,14.66-19.84H1041l15.16,21.84,18.07-12.21,3.77-2.46s1.26-61.22-38.82-79.94a28.43,28.43,0,0,0-23.5-.36C976.36,183.33,977.2,246.94,977.2,246.94Z"/><polygon class="cls-1" points="1012.7 239.1 1026.81 230.64 1041.04 239.1 1012.7 239.1"/><polygon class="cls-2" points="1013.42 306.8 998.67 264.05 1014.19 242.78 1026.81 234.87 1039.19 242.78 1055.52 265.36 1084.77 245.9 1051.82 298.94 1036.17 306.8 1013.42 306.8"/><path class="cls-2" d="M1072.35,208.76a116.82,116.82,0,0,1,4.77,22.85l4.76-17.86Z"/><polygon class="cls-1" points="1040.83 266.94 1052.12 297.58 1085.85 344.5 1097.85 351.75 1120.6 351.75 1136.24 343.89 1169.19 290.85 1197.26 239.24 1166.6 256.78 1141.99 242.83 1141.42 200.48 1119.17 179.09 1096.49 192.47 1082.53 234.56 1056.82 259.01 1039.41 243.22 1040.83 266.94"/><path class="cls-2" d="M1056.12,289.08l5.59,2.81s.23-24.79,7.39-43.12L1056.82,259l-10.15-9.27C1044.11,269.43,1056.12,289.08,1056.12,289.08Z"/><path class="cls-20" d="M1061.71,291.89l20.83,12,14.67-19.83h28.33l15.17,21.83,18.07-12.21,3.76-2.46s1.27-61.22-38.81-79.94a28.45,28.45,0,0,0-23.51-.36C1060.87,228.29,1061.71,291.89,1061.71,291.89Z"/><polygon class="cls-1" points="1097.21 284.06 1111.32 275.59 1125.54 284.06 1097.21 284.06"/><polygon class="cls-2" points="1097.93 351.75 1083.18 309 1098.7 287.73 1111.32 279.82 1123.7 287.73 1140.03 310.31 1169.28 290.85 1136.33 343.89 1120.68 351.75 1097.93 351.75"/><path class="cls-2" d="M1156.85,253.72a116.31,116.31,0,0,1,4.78,22.85l4.76-17.87Z"/><polygon class="cls-1" points="1225.14 266.98 1236.43 297.62 1270.15 344.54 1282.15 351.79 1304.9 351.79 1320.55 343.94 1353.5 290.89 1381.56 239.28 1350.9 256.83 1326.3 242.88 1325.73 200.53 1303.48 179.14 1280.8 192.51 1266.83 234.6 1241.12 259.05 1223.71 243.26 1225.14 266.98"/><path class="cls-2" d="M1240.43,289.13l5.59,2.8s.22-24.79,7.39-43.12l-12.29,10.24L1231,249.78C1228.42,269.48,1240.43,289.13,1240.43,289.13Z"/><path class="cls-21" d="M1246,291.93l20.83,12,14.67-19.83h28.33L1325,305.93l18.06-12.2,3.77-2.46s1.27-61.23-38.82-79.95a28.46,28.46,0,0,0-23.5-.35C1245.18,228.33,1246,291.93,1246,291.93Z"/><polygon class="cls-1" points="1281.52 284.1 1295.63 275.64 1309.85 284.1 1281.52 284.1"/><polygon class="cls-2" points="1282.24 351.79 1267.49 309.04 1283 287.77 1295.63 279.87 1308 287.77 1324.33 310.35 1353.58 290.89 1320.63 343.94 1304.99 351.79 1282.24 351.79"/><path class="cls-2" d="M1341.16,253.76a116.82,116.82,0,0,1,4.77,22.85l4.77-17.86Z"/><polygon class="cls-1" points="1125.2 311.71 1136.49 342.36 1170.21 389.27 1182.21 396.52 1204.96 396.52 1220.61 388.67 1253.56 335.63 1281.62 284.01 1250.96 301.56 1226.36 287.61 1225.79 245.26 1203.54 223.87 1180.86 237.24 1166.89 279.33 1141.18 303.78 1123.77 287.99 1125.2 311.71"/><path class="cls-2" d="M1140.49,333.86l5.59,2.81s.22-24.79,7.39-43.13l-12.29,10.24L1131,294.51C1128.48,314.21,1140.49,333.86,1140.49,333.86Z"/><path class="cls-22" d="M1146.08,336.67l20.83,12,14.67-19.84h28.33l15.17,21.84,18.06-12.21,3.77-2.46s1.27-61.22-38.82-79.94a28.43,28.43,0,0,0-23.5-.36C1145.24,273.06,1146.08,336.67,1146.08,336.67Z"/><polygon class="cls-1" points="1181.58 328.83 1195.69 320.37 1209.91 328.83 1181.58 328.83"/><polygon class="cls-2" points="1182.3 396.52 1167.55 353.77 1183.06 332.51 1195.69 324.6 1208.06 332.51 1224.39 355.08 1253.64 335.63 1220.69 388.67 1205.05 396.52 1182.3 396.52"/><path class="cls-2" d="M1241.22,298.49a116.82,116.82,0,0,1,4.77,22.85l4.77-17.86Z"/><path class="cls-23" d="M875,235.52h-7.83v-7.83a3.59,3.59,0,1,0-7.17,0v7.83h-7.83a3.59,3.59,0,1,0,0,7.17H860v7.83a3.59,3.59,0,0,0,7.17,0v-7.83H875a3.59,3.59,0,0,0,0-7.17Z"/></g></svg>