<svg xmlns="http://www.w3.org/2000/svg" xmlns:xlink="http://www.w3.org/1999/xlink" viewBox="0 0 2055.88 634"><defs><style>.cls-1{fill:#62abbc;}.cls-2{fill:#3d838e;opacity:0.51;}.cls-3{fill:url(#linear-gradient);}.cls-4{fill:url(#linear-gradient-2);}.cls-5{fill:url(#linear-gradient-3);}.cls-6{fill:url(#linear-gradient-4);}.cls-7{fill:url(#linear-gradient-5);}.cls-8{fill:url(#linear-gradient-6);}.cls-9{fill:url(#linear-gradient-7);}.cls-10{fill:url(#linear-gradient-8);}.cls-11{fill:url(#linear-gradient-9);}.cls-12{fill:url(#linear-gradient-10);}.cls-13{fill:url(#linear-gradient-11);}.cls-14{fill:url(#linear-gradient-12);}.cls-15{fill:url(#linear-gradient-13);}.cls-16{fill:url(#linear-gradient-14);}.cls-17{fill:url(#linear-gradient-15);}.cls-18{fill:url(#linear-gradient-16);}.cls-19{fill:url(#linear-gradient-17);}.cls-20{fill:url(#linear-gradient-18);}.cls-21{fill:#f05023;}</style><linearGradient id="linear-gradient" x1="122.24" y1="99.37" x2="223.08" y2="99.37" gradientUnits="userSpaceOnUse"><stop offset="0" stop-color="#fbb040"/><stop offset="0.39" stop-color="#f9ae41"/><stop offset="0.59" stop-color="#f1a845"/><stop offset="0.74" stop-color="#e49e4b"/><stop offset="0.87" stop-color="#d18f55"/><stop offset="0.99" stop-color="#b97c60"/><stop offset="1" stop-color="#b67a62"/></linearGradient><linearGradient id="linear-gradient-2" x1="206.75" y1="144.33" x2="307.59" y2="144.33" xlink:href="#linear-gradient"/><linearGradient id="linear-gradient-3" x1="22.3" y1="144.1" x2="123.14" y2="144.1" xlink:href="#linear-gradient"/><linearGradient id="linear-gradient-4" x1="106.81" y1="189.06" x2="207.65" y2="189.06" xlink:href="#linear-gradient"/><linearGradient id="linear-gradient-5" x1="291.12" y1="189.1" x2="391.96" y2="189.1" xlink:href="#linear-gradient"/><linearGradient id="linear-gradient-6" x1="191.18" y1="233.83" x2="292.02" y2="233.83" xlink:href="#linear-gradient"/><linearGradient id="linear-gradient-7" x1="375.45" y1="233.79" x2="476.29" y2="233.79" xlink:href="#linear-gradient"/><linearGradient id="linear-gradient-8" x1="275.51" y1="278.52" x2="376.35" y2="278.52" xlink:href="#linear-gradient"/><linearGradient id="linear-gradient-9" x1="459.81" y1="278.57" x2="560.65" y2="278.57" xlink:href="#linear-gradient"/><linearGradient id="linear-gradient-10" x1="359.87" y1="323.3" x2="460.71" y2="323.3" xlink:href="#linear-gradient"/><linearGradient id="linear-gradient-11" x1="544.14" y1="323.14" x2="644.98" y2="323.14" xlink:href="#linear-gradient"/><linearGradient id="linear-gradient-12" x1="444.2" y1="367.87" x2="545.04" y2="367.87" xlink:href="#linear-gradient"/><linearGradient id="linear-gradient-13" x1="628.51" y1="367.92" x2="729.35" y2="367.92" xlink:href="#linear-gradient"/><linearGradient id="linear-gradient-14" x1="528.57" y1="412.65" x2="629.41" y2="412.65" xlink:href="#linear-gradient"/><linearGradient id="linear-gradient-15" x1="712.84" y1="412.61" x2="813.68" y2="412.61" xlink:href="#linear-gradient"/><linearGradient id="linear-gradient-16" x1="612.9" y1="457.34" x2="713.74" y2="457.34" xlink:href="#linear-gradient"/><linearGradient id="linear-gradient-17" x1="797.21" y1="457.39" x2="898.04" y2="457.39" xlink:href="#linear-gradient"/><linearGradient id="linear-gradient-18" x1="697.27" y1="502.12" x2="798.1" y2="502.12" xlink:href="#linear-gradient"/></defs><title>V6_E1</title><g id="Layer_2" data-name="Layer 2"><polygon class="cls-1" points="101.37 109.08 112.66 139.73 146.38 186.65 158.38 193.9 181.13 193.9 196.78 186.04 229.73 133 257.79 81.39 227.13 98.93 202.52 84.98 201.95 42.63 179.7 21.24 157.02 34.62 143.06 76.7 117.35 101.16 99.94 85.36 101.37 109.08"/><path class="cls-2" d="M116.65,131.23l5.59,2.81s.23-24.79,7.4-43.13l-12.29,10.25L107.2,91.89C104.65,111.58,116.65,131.23,116.65,131.23Z"/><path class="cls-3" d="M122.24,134l20.84,12,14.66-19.84h28.34L201.24,148l18.07-12.21,3.77-2.46s1.26-61.22-38.82-79.94a28.43,28.43,0,0,0-23.5-.36C121.41,70.44,122.24,134,122.24,134Z"/><polygon class="cls-1" points="157.75 126.2 171.86 117.74 186.08 126.2 157.75 126.2"/><polygon class="cls-2" points="158.46 193.9 143.71 151.15 159.23 129.88 171.86 121.97 184.23 129.88 200.56 152.46 229.81 133 196.86 186.04 181.21 193.9 158.46 193.9"/><path class="cls-2" d="M217.39,95.86a117,117,0,0,1,4.77,22.86l4.77-17.87Z"/><polygon class="cls-1" points="185.88 154.04 197.16 184.68 230.89 231.6 242.89 238.85 265.64 238.85 281.29 231 314.24 177.95 342.3 126.34 311.64 143.88 287.03 129.94 286.46 87.58 264.21 66.2 241.53 79.57 227.57 121.66 201.86 146.11 184.45 130.32 185.88 154.04"/><path class="cls-2" d="M201.16,176.18l5.59,2.81s.23-24.79,7.4-43.12l-12.29,10.24-10.15-9.27C189.15,156.53,201.16,176.18,201.16,176.18Z"/><path class="cls-4" d="M206.75,179l20.84,12,14.66-19.83h28.34L285.75,193l18.07-12.2,3.77-2.46s1.26-61.23-38.82-80a28.5,28.5,0,0,0-23.5-.36C205.91,115.39,206.75,179,206.75,179Z"/><polygon class="cls-1" points="242.25 171.16 256.37 162.69 270.59 171.16 242.25 171.16"/><polygon class="cls-2" points="242.97 238.85 228.22 196.1 243.74 174.83 256.37 166.93 268.74 174.83 285.07 197.41 314.32 177.95 281.37 231 265.72 238.85 242.97 238.85"/><path class="cls-2" d="M301.9,140.82a116.82,116.82,0,0,1,4.77,22.85l4.77-17.87Z"/><polygon class="cls-1" points="1.43 153.82 12.72 184.46 46.44 231.38 58.44 238.63 81.19 238.63 96.84 230.77 129.79 177.73 157.85 126.12 127.19 143.66 102.58 129.71 102.01 87.36 79.76 65.97 57.08 79.35 43.12 121.44 17.41 145.89 0 130.09 1.43 153.82"/><path class="cls-2" d="M16.71,176l5.59,2.81s.23-24.79,7.4-43.12L17.41,145.89,7.26,136.62C4.71,156.31,16.71,176,16.71,176Z"/><path class="cls-5" d="M22.3,178.77l20.84,12L57.8,170.94H86.14l15.16,21.83,18.07-12.21,3.77-2.46s1.26-61.22-38.82-79.94a28.43,28.43,0,0,0-23.5-.36C21.47,115.17,22.3,178.77,22.3,178.77Z"/><polygon class="cls-1" points="57.8 170.94 71.92 162.47 86.14 170.94 57.8 170.94"/><polygon class="cls-2" points="58.52 238.63 43.77 195.88 59.29 174.61 71.92 166.7 84.29 174.61 100.62 197.19 129.87 177.73 96.92 230.77 81.27 238.63 58.52 238.63"/><path class="cls-2" d="M117.45,140.6a116.82,116.82,0,0,1,4.77,22.85L127,145.58Z"/><polygon class="cls-1" points="85.94 198.77 97.22 229.41 130.95 276.33 142.95 283.58 165.7 283.58 181.35 275.73 214.3 222.68 242.36 171.07 211.7 188.62 187.09 174.67 186.52 132.31 164.27 110.93 141.59 124.3 127.63 166.39 101.92 190.84 84.51 175.05 85.94 198.77"/><path class="cls-2" d="M101.22,220.92l5.59,2.8s.23-24.79,7.4-43.12l-12.29,10.24-10.15-9.27C89.21,201.26,101.22,220.92,101.22,220.92Z"/><path class="cls-6" d="M106.81,223.72l20.84,12,14.66-19.83h28.34l15.16,21.83,18.07-12.2,3.77-2.46s1.26-61.23-38.82-79.95a28.5,28.5,0,0,0-23.5-.36C106,160.12,106.81,223.72,106.81,223.72Z"/><polygon class="cls-1" points="142.31 215.89 156.43 207.43 170.65 215.89 142.31 215.89"/><polygon class="cls-2" points="143.03 283.58 128.28 240.83 143.8 219.56 156.43 211.66 168.8 219.56 185.13 242.14 214.38 222.68 181.43 275.73 165.78 283.58 143.03 283.58"/><path class="cls-2" d="M202,185.55a116.82,116.82,0,0,1,4.77,22.85l4.77-17.87Z"/><polygon class="cls-1" points="270.24 198.81 281.53 229.46 315.25 276.38 327.25 283.63 350 283.63 365.65 275.77 398.6 222.73 426.66 171.12 396 188.66 371.4 174.71 370.83 132.36 348.58 110.97 325.9 124.35 311.94 166.44 286.23 190.88 268.81 175.09 270.24 198.81"/><path class="cls-2" d="M285.53,221l5.59,2.81s.23-24.79,7.39-43.13l-12.29,10.25-10.14-9.27C273.52,201.31,285.53,221,285.53,221Z"/><path class="cls-7" d="M291.12,223.77l20.83,12,14.67-19.84H355l15.17,21.84,18.07-12.21L392,223.1s1.27-61.22-38.81-79.94a28.45,28.45,0,0,0-23.51-.36C290.28,160.17,291.12,223.77,291.12,223.77Z"/><polygon class="cls-1" points="326.62 215.94 340.73 207.47 354.95 215.94 326.62 215.94"/><polygon class="cls-2" points="327.34 283.63 312.59 240.88 328.11 219.61 340.73 211.7 353.11 219.61 369.44 242.19 398.69 222.73 365.74 275.77 350.09 283.63 327.34 283.63"/><path class="cls-2" d="M386.26,185.59A116.54,116.54,0,0,1,391,208.45l4.76-17.87Z"/><polygon class="cls-1" points="170.3 243.54 181.59 274.19 215.32 321.11 227.32 328.36 250.06 328.36 265.71 320.5 298.66 267.46 326.73 215.85 296.07 233.39 271.46 219.44 270.89 177.09 248.64 155.7 225.96 169.08 212 211.17 186.28 235.62 168.88 219.82 170.3 243.54"/><path class="cls-2" d="M185.59,265.69l5.59,2.81s.23-24.79,7.39-43.12l-12.29,10.24-10.14-9.27C173.58,246,185.59,265.69,185.59,265.69Z"/><path class="cls-8" d="M191.18,268.5l20.83,12,14.67-19.83H255l15.17,21.83,18.07-12.21,3.76-2.46s1.27-61.22-38.81-79.94a28.45,28.45,0,0,0-23.51-.36C190.34,204.9,191.18,268.5,191.18,268.5Z"/><polygon class="cls-1" points="226.68 260.67 240.79 252.2 255.01 260.67 226.68 260.67"/><polygon class="cls-2" points="227.4 328.36 212.65 285.61 228.17 264.34 240.79 256.43 253.17 264.34 269.5 286.92 298.75 267.46 265.8 320.5 250.15 328.36 227.4 328.36"/><path class="cls-2" d="M286.32,230.33a116.31,116.31,0,0,1,4.78,22.85l4.76-17.87Z"/><polygon class="cls-1" points="354.57 243.5 365.86 274.15 399.58 321.07 411.58 328.32 434.33 328.32 449.98 320.46 482.93 267.42 510.99 215.81 480.33 233.35 455.73 219.4 455.16 177.05 432.91 155.66 410.23 169.04 396.26 211.13 370.55 235.58 353.14 219.78 354.57 243.5"/><path class="cls-2" d="M369.86,265.65l5.59,2.81s.22-24.79,7.39-43.12l-12.29,10.24-10.15-9.27C357.85,246,369.86,265.65,369.86,265.65Z"/><path class="cls-9" d="M375.45,268.46l20.83,12L411,260.63h28.33l15.17,21.83,18.06-12.21,3.77-2.46s1.27-61.22-38.81-79.94a28.45,28.45,0,0,0-23.51-.36C374.61,204.86,375.45,268.46,375.45,268.46Z"/><polygon class="cls-1" points="410.95 260.63 425.06 252.16 439.28 260.63 410.95 260.63"/><polygon class="cls-2" points="411.67 328.32 396.92 285.57 412.44 264.3 425.06 256.39 437.44 264.3 453.76 286.88 483.01 267.42 450.06 320.46 434.42 328.32 411.67 328.32"/><path class="cls-2" d="M470.59,230.29a117.21,117.21,0,0,1,4.78,22.85l4.76-17.87Z"/><polygon class="cls-1" points="254.63 288.24 265.92 318.88 299.64 365.8 311.64 373.05 334.39 373.05 350.04 365.19 382.99 312.15 411.05 260.54 380.39 278.08 355.79 264.13 355.22 221.78 332.97 200.4 310.29 213.77 296.32 255.86 270.61 280.31 253.2 264.52 254.63 288.24"/><path class="cls-2" d="M269.92,310.38l5.59,2.81s.22-24.79,7.39-43.12l-12.29,10.24L260.46,271C257.91,290.73,269.92,310.38,269.92,310.38Z"/><path class="cls-10" d="M275.51,313.19l20.83,12L311,305.36h28.33l15.17,21.83L372.58,315l3.76-2.46s1.27-61.22-38.81-79.94a28.45,28.45,0,0,0-23.51-.36C274.67,249.59,275.51,313.19,275.51,313.19Z"/><polygon class="cls-1" points="311.01 305.36 325.12 296.89 339.34 305.36 311.01 305.36"/><polygon class="cls-2" points="311.73 373.05 296.98 330.3 312.5 309.03 325.12 301.13 337.5 309.03 353.82 331.61 383.07 312.15 350.13 365.19 334.48 373.05 311.73 373.05"/><path class="cls-2" d="M370.65,275a116.31,116.31,0,0,1,4.78,22.85L380.19,280Z"/><polygon class="cls-1" points="438.94 288.28 450.23 318.93 483.95 365.84 495.95 373.09 518.7 373.09 534.35 365.24 567.3 312.2 595.36 260.58 564.7 278.13 540.09 264.18 539.52 221.83 517.27 200.44 494.59 213.81 480.63 255.9 454.92 280.35 437.51 264.56 438.94 288.28"/><path class="cls-2" d="M454.22,310.43l5.59,2.81s.23-24.8,7.4-43.13l-12.29,10.24-10.15-9.27C442.21,290.78,454.22,310.43,454.22,310.43Z"/><path class="cls-11" d="M459.81,313.24l20.84,12,14.66-19.84h28.34l15.16,21.84L556.88,315l3.77-2.46s1.26-61.22-38.82-79.94a28.43,28.43,0,0,0-23.5-.36C459,249.63,459.81,313.24,459.81,313.24Z"/><polygon class="cls-1" points="495.31 305.4 509.43 296.94 523.65 305.4 495.31 305.4"/><polygon class="cls-2" points="496.03 373.09 481.28 330.34 496.8 309.08 509.43 301.17 521.8 309.08 538.13 331.65 567.38 312.2 534.43 365.24 518.78 373.09 496.03 373.09"/><path class="cls-2" d="M555,275.06a116.82,116.82,0,0,1,4.77,22.85l4.77-17.86Z"/><polygon class="cls-1" points="339 333.01 350.29 363.66 384.01 410.57 396.01 417.82 418.76 417.82 434.41 409.97 467.36 356.93 495.42 305.31 464.76 322.86 440.15 308.91 439.58 266.56 417.33 245.17 394.65 258.55 380.69 300.63 354.98 325.08 337.57 309.29 339 333.01"/><path class="cls-2" d="M354.28,355.16l5.59,2.81s.23-24.79,7.4-43.13L355,325.08l-10.15-9.26C342.27,335.51,354.28,355.16,354.28,355.16Z"/><path class="cls-12" d="M359.87,358l20.84,12,14.66-19.84h28.34L438.87,372l18.07-12.21,3.77-2.46s1.26-61.22-38.82-79.94a28.43,28.43,0,0,0-23.5-.36C359,294.36,359.87,358,359.87,358Z"/><polygon class="cls-1" points="395.37 350.13 409.49 341.67 423.71 350.13 395.37 350.13"/><polygon class="cls-2" points="396.09 417.82 381.34 375.07 396.86 353.81 409.49 345.9 421.86 353.81 438.19 376.39 467.44 356.93 434.49 409.97 418.84 417.82 396.09 417.82"/><path class="cls-2" d="M455,319.79a116.82,116.82,0,0,1,4.77,22.85l4.77-17.86Z"/><polygon class="cls-1" points="523.27 332.86 534.56 363.5 568.28 410.42 580.28 417.67 603.03 417.67 618.68 409.81 651.63 356.77 679.69 305.16 649.03 322.7 624.42 308.75 623.86 266.4 601.61 245.01 578.92 258.39 564.96 300.48 539.25 324.93 521.84 309.13 523.27 332.86"/><path class="cls-2" d="M538.55,355l5.6,2.81s.22-24.79,7.39-43.12l-12.29,10.24-10.15-9.27C526.55,335.35,538.55,355,538.55,355Z"/><path class="cls-13" d="M544.15,357.81l20.83,12L579.65,350H608l15.17,21.83,18.06-12.21,3.77-2.46s1.27-61.22-38.82-79.94a28.43,28.43,0,0,0-23.5-.36C543.31,294.21,544.15,357.81,544.15,357.81Z"/><polygon class="cls-1" points="579.65 349.98 593.76 341.51 607.98 349.98 579.65 349.98"/><polygon class="cls-2" points="580.37 417.67 565.62 374.92 581.13 353.65 593.76 345.74 606.13 353.65 622.46 376.23 651.71 356.77 618.76 409.81 603.12 417.67 580.37 417.67"/><path class="cls-2" d="M639.29,319.64a116.82,116.82,0,0,1,4.77,22.85l4.77-17.87Z"/><polygon class="cls-1" points="423.33 377.59 434.62 408.23 468.34 455.15 480.34 462.4 503.09 462.4 518.74 454.54 551.69 401.5 579.75 349.89 549.09 367.43 524.48 353.49 523.92 311.13 501.67 289.75 478.98 303.12 465.02 345.21 439.31 369.66 421.9 353.87 423.33 377.59"/><path class="cls-2" d="M438.61,399.73l5.6,2.81s.22-24.79,7.39-43.12l-12.29,10.24-10.15-9.27C426.61,380.08,438.61,399.73,438.61,399.73Z"/><path class="cls-14" d="M444.21,402.54l20.83,12,14.67-19.83H508l15.17,21.83,18.06-12.2,3.77-2.47s1.27-61.22-38.82-79.94a28.47,28.47,0,0,0-23.5-.36C443.37,338.94,444.21,402.54,444.21,402.54Z"/><polygon class="cls-1" points="479.71 394.71 493.82 386.24 508.04 394.71 479.71 394.71"/><polygon class="cls-2" points="480.43 462.4 465.68 419.65 481.19 398.38 493.82 390.48 506.19 398.38 522.52 420.96 551.77 401.5 518.82 454.54 503.18 462.4 480.43 462.4"/><path class="cls-2" d="M539.35,364.37a116.82,116.82,0,0,1,4.77,22.85l4.77-17.87Z"/><polygon class="cls-1" points="607.63 377.63 618.92 408.28 652.65 455.19 664.65 462.44 687.4 462.44 703.05 454.59 736 401.55 764.06 349.93 733.4 367.48 708.79 353.53 708.22 311.18 685.97 289.79 663.29 303.16 649.33 345.25 623.62 369.7 606.21 353.91 607.63 377.63"/><path class="cls-2" d="M622.92,399.78l5.59,2.81s.23-24.79,7.39-43.13L623.62,369.7l-10.15-9.27C610.91,380.13,622.92,399.78,622.92,399.78Z"/><path class="cls-15" d="M628.51,402.59l20.84,12L664,394.75h28.34l15.16,21.84,18.07-12.21,3.77-2.46s1.26-61.22-38.82-79.94a28.43,28.43,0,0,0-23.5-.36C627.67,339,628.51,402.59,628.51,402.59Z"/><polygon class="cls-1" points="664.01 394.75 678.12 386.29 692.35 394.75 664.01 394.75"/><polygon class="cls-2" points="664.73 462.44 649.98 419.69 665.5 398.43 678.12 390.52 690.5 398.43 706.83 421 736.08 401.55 703.13 454.59 687.48 462.44 664.73 462.44"/><path class="cls-2" d="M723.66,364.41a116.82,116.82,0,0,1,4.77,22.85l4.77-17.86Z"/><polygon class="cls-1" points="507.69 422.36 518.98 453.01 552.71 499.93 564.71 507.18 587.46 507.18 603.11 499.32 636.06 446.28 664.12 394.66 633.46 412.21 608.85 398.26 608.28 355.91 586.03 334.52 563.35 347.89 549.39 389.98 523.68 414.43 506.27 398.64 507.69 422.36"/><path class="cls-2" d="M523,444.51l5.59,2.81s.23-24.79,7.39-43.13l-12.28,10.24-10.15-9.26C511,424.86,523,444.51,523,444.51Z"/><path class="cls-16" d="M528.57,447.32l20.84,12,14.66-19.84h28.34l15.16,21.84,18.07-12.21,3.77-2.46s1.26-61.22-38.82-79.94a28.43,28.43,0,0,0-23.5-.36C527.73,383.71,528.57,447.32,528.57,447.32Z"/><polygon class="cls-1" points="564.07 439.48 578.18 431.02 592.41 439.48 564.07 439.48"/><polygon class="cls-2" points="564.79 507.18 550.04 464.43 565.56 443.16 578.18 435.25 590.56 443.16 606.89 465.74 636.14 446.28 603.19 499.32 587.54 507.18 564.79 507.18"/><path class="cls-2" d="M623.72,409.14A117,117,0,0,1,628.49,432l4.77-17.86Z"/><polygon class="cls-1" points="691.96 422.32 703.25 452.97 736.98 499.88 748.98 507.13 771.73 507.13 787.37 499.28 820.32 446.24 848.38 394.62 817.73 412.17 793.12 398.22 792.55 355.87 770.3 334.48 747.62 347.85 733.66 389.94 707.95 414.39 690.54 398.6 691.96 422.32"/><path class="cls-2" d="M707.25,444.47l5.59,2.81s.23-24.79,7.39-43.13L708,414.39l-10.15-9.26C695.24,424.82,707.25,444.47,707.25,444.47Z"/><path class="cls-17" d="M712.84,447.28l20.83,12,14.67-19.84h28.33l15.17,21.84,18.07-12.21,3.76-2.46s1.27-61.22-38.81-79.94a28.45,28.45,0,0,0-23.51-.36C712,383.67,712.84,447.28,712.84,447.28Z"/><polygon class="cls-1" points="748.34 439.44 762.45 430.98 776.67 439.44 748.34 439.44"/><polygon class="cls-2" points="749.06 507.13 734.31 464.38 749.83 443.12 762.45 435.21 774.83 443.12 791.16 465.7 820.41 446.24 787.46 499.28 771.81 507.13 749.06 507.13"/><path class="cls-2" d="M808,409.1A116.31,116.31,0,0,1,812.76,432l4.76-17.86Z"/><polygon class="cls-1" points="592.02 467.05 603.31 497.7 637.04 544.62 649.04 551.87 671.79 551.87 687.43 544.01 720.38 490.97 748.45 439.36 717.79 456.9 693.18 442.95 692.61 400.6 670.36 379.21 647.68 392.59 633.72 434.68 608 459.13 590.6 443.33 592.02 467.05"/><path class="cls-2" d="M607.31,489.2,612.9,492s.23-24.79,7.39-43.13L608,459.13l-10.15-9.27C595.3,469.55,607.31,489.2,607.31,489.2Z"/><path class="cls-18" d="M612.9,492l20.83,12,14.67-19.84h28.33L691.9,506,710,493.8l3.76-2.46s1.27-61.22-38.81-79.94a28.45,28.45,0,0,0-23.51-.36C612.06,428.41,612.9,492,612.9,492Z"/><polygon class="cls-1" points="648.4 484.18 662.51 475.71 676.73 484.18 648.4 484.18"/><polygon class="cls-2" points="649.12 551.87 634.37 509.12 649.89 487.85 662.51 479.94 674.89 487.85 691.22 510.43 720.47 490.97 687.52 544.01 671.87 551.87 649.12 551.87"/><path class="cls-2" d="M708,453.83a116.54,116.54,0,0,1,4.78,22.86l4.76-17.87Z"/><polygon class="cls-1" points="776.33 467.1 787.62 497.74 821.34 544.66 833.34 551.91 856.09 551.91 871.74 544.06 904.69 491.01 932.75 439.4 902.09 456.95 877.49 443 876.92 400.64 854.67 379.26 831.99 392.63 818.02 434.72 792.31 459.17 774.9 443.38 776.33 467.1"/><path class="cls-2" d="M791.62,489.24l5.59,2.81s.22-24.79,7.39-43.12l-12.29,10.24-10.15-9.27C779.61,469.59,791.62,489.24,791.62,489.24Z"/><path class="cls-19" d="M797.21,492.05l20.83,12,14.67-19.83H861l15.17,21.83,18.06-12.2,3.77-2.46s1.27-61.23-38.82-79.95a28.5,28.5,0,0,0-23.5-.36C796.37,428.45,797.21,492.05,797.21,492.05Z"/><polygon class="cls-1" points="832.71 484.22 846.82 475.75 861.04 484.22 832.71 484.22"/><polygon class="cls-2" points="833.43 551.91 818.68 509.16 834.19 487.89 846.82 479.99 859.19 487.89 875.52 510.47 904.77 491.01 871.82 544.06 856.18 551.91 833.43 551.91"/><path class="cls-2" d="M892.35,453.88a116.82,116.82,0,0,1,4.77,22.85l4.77-17.87Z"/><polygon class="cls-1" points="676.39 511.83 687.68 542.47 721.4 589.39 733.4 596.64 756.15 596.64 771.8 588.79 804.75 535.75 832.81 484.13 802.15 501.68 777.54 487.73 776.98 445.38 754.73 423.99 732.04 437.36 718.08 479.45 692.37 503.9 674.96 488.11 676.39 511.83"/><path class="cls-2" d="M691.68,534l5.59,2.8s.22-24.79,7.39-43.12L692.37,503.9l-10.15-9.27C679.67,514.33,691.68,534,691.68,534Z"/><path class="cls-20" d="M697.27,536.78l20.83,12L732.77,529H761.1l15.17,21.83,18.06-12.2,3.77-2.46s1.27-61.23-38.82-79.95a28.47,28.47,0,0,0-23.5-.35C696.43,473.18,697.27,536.78,697.27,536.78Z"/><polygon class="cls-1" points="732.77 528.95 746.88 520.49 761.1 528.95 732.77 528.95"/><polygon class="cls-2" points="733.49 596.64 718.74 553.89 734.25 532.63 746.88 524.72 759.25 532.63 775.58 555.2 804.83 535.75 771.88 588.79 756.24 596.64 733.49 596.64"/><path class="cls-2" d="M792.41,498.61a116.82,116.82,0,0,1,4.77,22.85L802,503.6Z"/><path class="cls-21" d="M2043.88,5a7,7,0,0,1,7,7V622a7,7,0,0,1-7,7H1065.24a7,7,0,0,1-7-7V12a7,7,0,0,1,7-7h978.64m0-5H1065.24a12,12,0,0,0-12,12V622a12,12,0,0,0,12,12h978.64a12,12,0,0,0,12-12V12a12,12,0,0,0-12-12Z"/><rect class="cls-21" x="993.94" y="309.5" width="34" height="4.84" rx="2.42" ry="2.42"/><rect class="cls-21" x="993.94" y="319.66" width="34" height="4.84" rx="2.42" ry="2.42"/></g></svg>