<svg xmlns="http://www.w3.org/2000/svg" xmlns:xlink="http://www.w3.org/1999/xlink" viewBox="0 0 2276.31 575.4"><defs><style>.cls-1{fill:#62abbc;}.cls-2{fill:#3d838e;opacity:0.51;}.cls-3{fill:url(#linear-gradient);}.cls-4{fill:url(#linear-gradient-2);}.cls-5{fill:url(#linear-gradient-3);}.cls-6{fill:url(#linear-gradient-4);}.cls-7{fill:url(#linear-gradient-5);}.cls-8{fill:url(#linear-gradient-6);}.cls-9{fill:url(#linear-gradient-7);}.cls-10{fill:url(#linear-gradient-8);}.cls-11{fill:url(#linear-gradient-9);}.cls-12{fill:url(#linear-gradient-10);}.cls-13{fill:url(#linear-gradient-11);}.cls-14{fill:url(#linear-gradient-12);}.cls-15{fill:url(#linear-gradient-13);}.cls-16{fill:url(#linear-gradient-14);}.cls-17{fill:url(#linear-gradient-15);}.cls-18{fill:url(#linear-gradient-16);}.cls-19{fill:url(#linear-gradient-17);}.cls-20{fill:url(#linear-gradient-18);}.cls-21{fill:url(#linear-gradient-19);}.cls-22{fill:url(#linear-gradient-20);}.cls-23{fill:url(#linear-gradient-21);}.cls-24{fill:url(#linear-gradient-22);}.cls-25{fill:url(#linear-gradient-23);}.cls-26{fill:url(#linear-gradient-24);}.cls-27{fill:url(#linear-gradient-25);}.cls-28{fill:url(#linear-gradient-26);}.cls-29{fill:url(#linear-gradient-27);}.cls-30{fill:url(#linear-gradient-28);}.cls-31{fill:url(#linear-gradient-29);}.cls-32{fill:url(#linear-gradient-30);}.cls-33{fill:url(#linear-gradient-31);}.cls-34{fill:url(#linear-gradient-32);}.cls-35{fill:url(#linear-gradient-33);}.cls-36{fill:url(#linear-gradient-34);}.cls-37{fill:url(#linear-gradient-35);}.cls-38{fill:url(#linear-gradient-36);}.cls-39{fill:#f05023;}</style><linearGradient id="linear-gradient" x1="122.24" y1="78.13" x2="223.08" y2="78.13" gradientUnits="userSpaceOnUse"><stop offset="0" stop-color="#fbb040"/><stop offset="0.39" stop-color="#f9ae41"/><stop offset="0.59" stop-color="#f1a845"/><stop offset="0.74" stop-color="#e49e4b"/><stop offset="0.87" stop-color="#d18f55"/><stop offset="0.99" stop-color="#b97c60"/><stop offset="1" stop-color="#b67a62"/></linearGradient><linearGradient id="linear-gradient-2" x1="206.75" y1="123.08" x2="307.59" y2="123.08" xlink:href="#linear-gradient"/><linearGradient id="linear-gradient-3" x1="22.3" y1="122.86" x2="123.14" y2="122.86" xlink:href="#linear-gradient"/><linearGradient id="linear-gradient-4" x1="106.81" y1="167.81" x2="207.65" y2="167.81" xlink:href="#linear-gradient"/><linearGradient id="linear-gradient-5" x1="291.12" y1="167.86" x2="391.96" y2="167.86" xlink:href="#linear-gradient"/><linearGradient id="linear-gradient-6" x1="191.18" y1="212.59" x2="292.02" y2="212.59" xlink:href="#linear-gradient"/><linearGradient id="linear-gradient-7" x1="375.45" y1="212.55" x2="476.29" y2="212.55" xlink:href="#linear-gradient"/><linearGradient id="linear-gradient-8" x1="275.51" y1="257.28" x2="376.35" y2="257.28" xlink:href="#linear-gradient"/><linearGradient id="linear-gradient-9" x1="459.81" y1="257.33" x2="560.65" y2="257.33" xlink:href="#linear-gradient"/><linearGradient id="linear-gradient-10" x1="359.87" y1="302.06" x2="460.71" y2="302.06" xlink:href="#linear-gradient"/><linearGradient id="linear-gradient-11" x1="544.14" y1="301.9" x2="644.98" y2="301.9" xlink:href="#linear-gradient"/><linearGradient id="linear-gradient-12" x1="444.2" y1="346.63" x2="545.04" y2="346.63" xlink:href="#linear-gradient"/><linearGradient id="linear-gradient-13" x1="628.51" y1="346.68" x2="729.35" y2="346.68" xlink:href="#linear-gradient"/><linearGradient id="linear-gradient-14" x1="528.57" y1="391.41" x2="629.41" y2="391.41" xlink:href="#linear-gradient"/><linearGradient id="linear-gradient-15" x1="712.84" y1="391.37" x2="813.68" y2="391.37" xlink:href="#linear-gradient"/><linearGradient id="linear-gradient-16" x1="612.9" y1="436.1" x2="713.74" y2="436.1" xlink:href="#linear-gradient"/><linearGradient id="linear-gradient-17" x1="797.21" y1="436.14" x2="898.04" y2="436.14" xlink:href="#linear-gradient"/><linearGradient id="linear-gradient-18" x1="697.27" y1="480.87" x2="798.1" y2="480.87" xlink:href="#linear-gradient"/><linearGradient id="linear-gradient-19" x1="1170.12" y1="189.93" x2="1270.96" y2="189.93" xlink:href="#linear-gradient"/><linearGradient id="linear-gradient-20" x1="1254.63" y1="234.88" x2="1355.47" y2="234.88" xlink:href="#linear-gradient"/><linearGradient id="linear-gradient-21" x1="1070.18" y1="234.66" x2="1171.02" y2="234.66" xlink:href="#linear-gradient"/><linearGradient id="linear-gradient-22" x1="1154.69" y1="279.61" x2="1255.53" y2="279.61" xlink:href="#linear-gradient"/><linearGradient id="linear-gradient-23" x1="1339" y1="279.66" x2="1439.84" y2="279.66" xlink:href="#linear-gradient"/><linearGradient id="linear-gradient-24" x1="1239.06" y1="324.39" x2="1339.9" y2="324.39" xlink:href="#linear-gradient"/><linearGradient id="linear-gradient-25" x1="1423.33" y1="324.35" x2="1524.16" y2="324.35" xlink:href="#linear-gradient"/><linearGradient id="linear-gradient-26" x1="1323.39" y1="369.08" x2="1424.22" y2="369.08" xlink:href="#linear-gradient"/><linearGradient id="linear-gradient-27" x1="1803.2" y1="167.54" x2="1904.04" y2="167.54" xlink:href="#linear-gradient"/><linearGradient id="linear-gradient-28" x1="1887.71" y1="212.49" x2="1988.55" y2="212.49" xlink:href="#linear-gradient"/><linearGradient id="linear-gradient-29" x1="1703.26" y1="212.27" x2="1804.1" y2="212.27" xlink:href="#linear-gradient"/><linearGradient id="linear-gradient-30" x1="1787.77" y1="257.22" x2="1888.61" y2="257.22" xlink:href="#linear-gradient"/><linearGradient id="linear-gradient-31" x1="1972.07" y1="257.27" x2="2072.91" y2="257.27" xlink:href="#linear-gradient"/><linearGradient id="linear-gradient-32" x1="1872.13" y1="302" x2="1972.97" y2="302" xlink:href="#linear-gradient"/><linearGradient id="linear-gradient-33" x1="2056.4" y1="301.96" x2="2157.24" y2="301.96" xlink:href="#linear-gradient"/><linearGradient id="linear-gradient-34" x1="1956.46" y1="346.69" x2="2057.3" y2="346.69" xlink:href="#linear-gradient"/><linearGradient id="linear-gradient-35" x1="2140.77" y1="346.73" x2="2241.61" y2="346.73" xlink:href="#linear-gradient"/><linearGradient id="linear-gradient-36" x1="2040.83" y1="391.47" x2="2141.67" y2="391.47" xlink:href="#linear-gradient"/></defs><title>V6_G1</title><g id="Layer_2" data-name="Layer 2"><polygon class="cls-1" points="101.37 87.84 112.66 118.49 146.38 165.4 158.38 172.65 181.13 172.65 196.78 164.8 229.73 111.76 257.79 60.14 227.13 77.69 202.52 63.74 201.95 21.39 179.7 0 157.02 13.37 143.06 55.46 117.35 79.91 99.94 64.12 101.37 87.84"/><path class="cls-2" d="M116.65,110l5.59,2.81s.23-24.79,7.4-43.13L117.35,79.91,107.2,70.64C104.65,90.34,116.65,110,116.65,110Z"/><path class="cls-3" d="M122.24,112.8l20.84,12L157.74,105h28.34l15.16,21.84,18.07-12.21,3.77-2.46s1.26-61.22-38.82-79.94a28.43,28.43,0,0,0-23.5-.36C121.41,49.19,122.24,112.8,122.24,112.8Z"/><polygon class="cls-1" points="157.75 104.96 171.86 96.5 186.08 104.96 157.75 104.96"/><polygon class="cls-2" points="158.46 172.65 143.71 129.9 159.23 108.64 171.86 100.73 184.23 108.64 200.56 131.22 229.81 111.76 196.86 164.8 181.21 172.65 158.46 172.65"/><path class="cls-2" d="M217.39,74.62a116.82,116.82,0,0,1,4.77,22.85l4.77-17.86Z"/><polygon class="cls-1" points="185.88 132.79 197.16 163.44 230.89 210.36 242.89 217.61 265.64 217.61 281.29 209.75 314.24 156.71 342.3 105.1 311.64 122.64 287.03 108.69 286.46 66.34 264.21 44.95 241.53 58.33 227.57 100.42 201.86 124.87 184.45 109.07 185.88 132.79"/><path class="cls-2" d="M201.16,154.94l5.59,2.81s.23-24.79,7.4-43.12l-12.29,10.24-10.15-9.27C189.15,135.29,201.16,154.94,201.16,154.94Z"/><path class="cls-4" d="M206.75,157.75l20.84,12,14.66-19.83h28.34l15.16,21.83,18.07-12.21,3.77-2.46s1.26-61.22-38.82-79.94a28.43,28.43,0,0,0-23.5-.36C205.91,94.15,206.75,157.75,206.75,157.75Z"/><polygon class="cls-1" points="242.25 149.92 256.37 141.45 270.59 149.92 242.25 149.92"/><polygon class="cls-2" points="242.97 217.61 228.22 174.86 243.74 153.59 256.37 145.68 268.74 153.59 285.07 176.17 314.32 156.71 281.37 209.75 265.72 217.61 242.97 217.61"/><path class="cls-2" d="M301.9,119.58a116.82,116.82,0,0,1,4.77,22.85l4.77-17.87Z"/><polygon class="cls-1" points="1.43 132.57 12.72 163.22 46.44 210.14 58.44 217.39 81.19 217.39 96.84 209.53 129.79 156.49 157.85 104.87 127.19 122.42 102.58 108.47 102.01 66.12 79.76 44.73 57.08 58.1 43.12 100.19 17.41 124.64 0 108.85 1.43 132.57"/><path class="cls-2" d="M16.71,154.72l5.59,2.81s.23-24.79,7.4-43.13L17.41,124.64,7.26,115.38C4.71,135.07,16.71,154.72,16.71,154.72Z"/><path class="cls-5" d="M22.3,157.53l20.84,12L57.8,149.69H86.14l15.16,21.84,18.07-12.21,3.77-2.46s1.26-61.22-38.82-79.94a28.43,28.43,0,0,0-23.5-.36C21.47,93.92,22.3,157.53,22.3,157.53Z"/><polygon class="cls-1" points="57.8 149.69 71.92 141.23 86.14 149.69 57.8 149.69"/><polygon class="cls-2" points="58.52 217.39 43.77 174.64 59.29 153.37 71.92 145.46 84.29 153.37 100.62 175.95 129.87 156.49 96.92 209.53 81.27 217.39 58.52 217.39"/><path class="cls-2" d="M117.45,119.35a117,117,0,0,1,4.77,22.85L127,124.34Z"/><polygon class="cls-1" points="85.94 177.53 97.22 208.17 130.95 255.09 142.95 262.34 165.7 262.34 181.35 254.48 214.3 201.44 242.36 149.83 211.7 167.37 187.09 153.43 186.52 111.07 164.27 89.69 141.59 103.06 127.63 145.15 101.92 169.6 84.51 153.81 85.94 177.53"/><path class="cls-2" d="M101.22,199.67l5.59,2.81s.23-24.79,7.4-43.12L101.92,169.6l-10.15-9.27C89.21,180,101.22,199.67,101.22,199.67Z"/><path class="cls-6" d="M106.81,202.48l20.84,12,14.66-19.83h28.34l15.16,21.83,18.07-12.21,3.77-2.46s1.26-61.22-38.82-79.94a28.43,28.43,0,0,0-23.5-.36C106,138.88,106.81,202.48,106.81,202.48Z"/><polygon class="cls-1" points="142.31 194.65 156.43 186.18 170.65 194.65 142.31 194.65"/><polygon class="cls-2" points="143.03 262.34 128.28 219.59 143.8 198.32 156.43 190.41 168.8 198.32 185.13 220.9 214.38 201.44 181.43 254.48 165.78 262.34 143.03 262.34"/><path class="cls-2" d="M202,164.31a116.82,116.82,0,0,1,4.77,22.85l4.77-17.87Z"/><polygon class="cls-1" points="270.24 177.57 281.53 208.22 315.25 255.13 327.25 262.38 350 262.38 365.65 254.53 398.6 201.49 426.66 149.87 396 167.42 371.4 153.47 370.83 111.12 348.58 89.73 325.9 103.1 311.94 145.19 286.23 169.64 268.81 153.85 270.24 177.57"/><path class="cls-2" d="M285.53,199.72l5.59,2.81s.23-24.8,7.39-43.13l-12.29,10.24-10.14-9.27C273.52,180.07,285.53,199.72,285.53,199.72Z"/><path class="cls-7" d="M291.12,202.53l20.83,12,14.67-19.84H355l15.17,21.84,18.07-12.21,3.76-2.46s1.27-61.22-38.81-79.94a28.45,28.45,0,0,0-23.51-.36C290.28,138.92,291.12,202.53,291.12,202.53Z"/><polygon class="cls-1" points="326.62 194.69 340.73 186.23 354.95 194.69 326.62 194.69"/><polygon class="cls-2" points="327.34 262.38 312.59 219.63 328.11 198.37 340.73 190.46 353.11 198.37 369.44 220.94 398.69 201.49 365.74 254.53 350.09 262.38 327.34 262.38"/><path class="cls-2" d="M386.26,164.35A116.31,116.31,0,0,1,391,187.2l4.76-17.86Z"/><polygon class="cls-1" points="170.3 222.3 181.59 252.95 215.32 299.87 227.32 307.12 250.06 307.12 265.71 299.26 298.66 246.22 326.73 194.6 296.07 212.15 271.46 198.2 270.89 155.85 248.64 134.46 225.96 147.84 212 189.92 186.28 214.37 168.88 198.58 170.3 222.3"/><path class="cls-2" d="M185.59,244.45l5.59,2.81s.23-24.79,7.39-43.13l-12.29,10.24-10.14-9.26C173.58,224.8,185.59,244.45,185.59,244.45Z"/><path class="cls-8" d="M191.18,247.26l20.83,12,14.67-19.84H255l15.17,21.84,18.07-12.21,3.76-2.46s1.27-61.22-38.81-79.94a28.45,28.45,0,0,0-23.51-.36C190.34,183.65,191.18,247.26,191.18,247.26Z"/><polygon class="cls-1" points="226.68 239.42 240.79 230.96 255.01 239.42 226.68 239.42"/><polygon class="cls-2" points="227.4 307.12 212.65 264.37 228.17 243.1 240.79 235.19 253.17 243.1 269.5 265.68 298.75 246.22 265.8 299.26 250.15 307.12 227.4 307.12"/><path class="cls-2" d="M286.32,209.08a116.31,116.31,0,0,1,4.78,22.85l4.76-17.86Z"/><polygon class="cls-1" points="354.57 222.26 365.86 252.91 399.58 299.82 411.58 307.07 434.33 307.07 449.98 299.22 482.93 246.18 510.99 194.56 480.33 212.11 455.73 198.16 455.16 155.81 432.91 134.42 410.23 147.79 396.26 189.88 370.55 214.33 353.14 198.54 354.57 222.26"/><path class="cls-2" d="M369.86,244.41l5.59,2.81s.22-24.79,7.39-43.13l-12.29,10.24-10.15-9.27C357.85,224.76,369.86,244.41,369.86,244.41Z"/><path class="cls-9" d="M375.45,247.22l20.83,12L411,239.38h28.33l15.17,21.84L472.51,249l3.77-2.46s1.27-61.22-38.81-79.94a28.45,28.45,0,0,0-23.51-.36C374.61,183.61,375.45,247.22,375.45,247.22Z"/><polygon class="cls-1" points="410.95 239.38 425.06 230.92 439.28 239.38 410.95 239.38"/><polygon class="cls-2" points="411.67 307.07 396.92 264.32 412.44 243.06 425.06 235.15 437.44 243.06 453.76 265.63 483.01 246.18 450.06 299.22 434.42 307.07 411.67 307.07"/><path class="cls-2" d="M470.59,209a117.21,117.21,0,0,1,4.78,22.85L480.13,214Z"/><polygon class="cls-1" points="254.63 266.99 265.92 297.64 299.64 344.56 311.64 351.81 334.39 351.81 350.04 343.95 382.99 290.91 411.05 239.29 380.39 256.84 355.79 242.89 355.22 200.54 332.97 179.15 310.29 192.53 296.32 234.61 270.61 259.06 253.2 243.27 254.63 266.99"/><path class="cls-2" d="M269.92,289.14l5.59,2.81s.22-24.79,7.39-43.13l-12.29,10.25-10.15-9.27C257.91,269.49,269.92,289.14,269.92,289.14Z"/><path class="cls-10" d="M275.51,292l20.83,12L311,284.11h28.33L354.51,306l18.07-12.21,3.76-2.46s1.27-61.22-38.81-79.94A28.45,28.45,0,0,0,314,211C274.67,228.35,275.51,292,275.51,292Z"/><polygon class="cls-1" points="311.01 284.11 325.12 275.65 339.34 284.11 311.01 284.11"/><polygon class="cls-2" points="311.73 351.81 296.98 309.06 312.5 287.79 325.12 279.88 337.5 287.79 353.82 310.37 383.07 290.91 350.13 343.95 334.48 351.81 311.73 351.81"/><path class="cls-2" d="M370.65,253.77a116.54,116.54,0,0,1,4.78,22.85l4.76-17.86Z"/><polygon class="cls-1" points="438.94 267.04 450.23 297.68 483.95 344.6 495.95 351.85 518.7 351.85 534.35 344 567.3 290.95 595.36 239.34 564.7 256.89 540.09 242.94 539.52 200.58 517.27 179.2 494.59 192.57 480.63 234.66 454.92 259.11 437.51 243.32 438.94 267.04"/><path class="cls-2" d="M454.22,289.18l5.59,2.81s.23-24.79,7.4-43.12l-12.29,10.24-10.15-9.27C442.21,269.53,454.22,289.18,454.22,289.18Z"/><path class="cls-11" d="M459.81,292l20.84,12,14.66-19.83h28.34L538.81,306l18.07-12.2,3.77-2.46s1.26-61.23-38.82-79.95a28.5,28.5,0,0,0-23.5-.36C459,228.39,459.81,292,459.81,292Z"/><polygon class="cls-1" points="495.31 284.16 509.43 275.69 523.65 284.16 495.31 284.16"/><polygon class="cls-2" points="496.03 351.85 481.28 309.1 496.8 287.83 509.43 279.93 521.8 287.83 538.13 310.41 567.38 290.95 534.43 344 518.78 351.85 496.03 351.85"/><path class="cls-2" d="M555,253.82a116.82,116.82,0,0,1,4.77,22.85l4.77-17.87Z"/><polygon class="cls-1" points="339 311.77 350.29 342.41 384.01 389.33 396.01 396.58 418.76 396.58 434.41 388.73 467.36 335.69 495.42 284.07 464.76 301.62 440.15 287.67 439.58 245.32 417.33 223.93 394.65 237.3 380.69 279.39 354.98 303.84 337.57 288.05 339 311.77"/><path class="cls-2" d="M354.28,333.92l5.59,2.8s.23-24.79,7.4-43.12L355,303.84l-10.15-9.27C342.27,314.27,354.28,333.92,354.28,333.92Z"/><path class="cls-12" d="M359.87,336.72l20.84,12,14.66-19.83h28.34l15.16,21.83,18.07-12.2,3.77-2.46s1.26-61.23-38.82-79.95a28.47,28.47,0,0,0-23.5-.35C359,273.12,359.87,336.72,359.87,336.72Z"/><polygon class="cls-1" points="395.37 328.89 409.49 320.43 423.71 328.89 395.37 328.89"/><polygon class="cls-2" points="396.09 396.58 381.34 353.83 396.86 332.56 409.49 324.66 421.86 332.56 438.19 355.14 467.44 335.69 434.49 388.73 418.84 396.58 396.09 396.58"/><path class="cls-2" d="M455,298.55a116.82,116.82,0,0,1,4.77,22.85l4.77-17.86Z"/><polygon class="cls-1" points="523.27 311.61 534.56 342.26 568.28 389.18 580.28 396.43 603.03 396.43 618.68 388.57 651.63 335.53 679.69 283.91 649.03 301.46 624.42 287.51 623.86 245.16 601.61 223.77 578.92 237.15 564.96 279.23 539.25 303.68 521.84 287.89 523.27 311.61"/><path class="cls-2" d="M538.55,333.76l5.6,2.81s.22-24.79,7.39-43.13l-12.29,10.24-10.15-9.26C526.55,314.11,538.55,333.76,538.55,333.76Z"/><path class="cls-13" d="M544.15,336.57l20.83,12,14.67-19.84H608l15.17,21.84,18.06-12.21L645,335.9s1.27-61.22-38.82-79.94a28.43,28.43,0,0,0-23.5-.36C543.31,273,544.15,336.57,544.15,336.57Z"/><polygon class="cls-1" points="579.65 328.73 593.76 320.27 607.98 328.73 579.65 328.73"/><polygon class="cls-2" points="580.37 396.43 565.62 353.68 581.13 332.41 593.76 324.5 606.13 332.41 622.46 354.99 651.71 335.53 618.76 388.57 603.12 396.43 580.37 396.43"/><path class="cls-2" d="M639.29,298.39a116.82,116.82,0,0,1,4.77,22.85l4.77-17.86Z"/><polygon class="cls-1" points="423.33 356.34 434.62 386.99 468.34 433.91 480.34 441.16 503.09 441.16 518.74 433.3 551.69 380.26 579.75 328.64 549.09 346.19 524.48 332.24 523.92 289.89 501.67 268.5 478.98 281.88 465.02 323.96 439.31 348.42 421.9 332.62 423.33 356.34"/><path class="cls-2" d="M438.61,378.49l5.6,2.81s.22-24.79,7.39-43.13l-12.29,10.25-10.15-9.27C426.61,358.84,438.61,378.49,438.61,378.49Z"/><path class="cls-14" d="M444.21,381.3l20.83,12,14.67-19.84H508l15.17,21.84,18.06-12.21,3.77-2.46s1.27-61.22-38.82-79.94a28.43,28.43,0,0,0-23.5-.36C443.37,317.7,444.21,381.3,444.21,381.3Z"/><polygon class="cls-1" points="479.71 373.46 493.82 365 508.04 373.46 479.71 373.46"/><polygon class="cls-2" points="480.43 441.16 465.68 398.41 481.19 377.14 493.82 369.23 506.19 377.14 522.52 399.72 551.77 380.26 518.82 433.3 503.18 441.16 480.43 441.16"/><path class="cls-2" d="M539.35,343.12A117,117,0,0,1,544.12,366l4.77-17.87Z"/><polygon class="cls-1" points="607.63 356.39 618.92 387.03 652.65 433.95 664.65 441.2 687.4 441.2 703.05 433.35 736 380.3 764.06 328.69 733.4 346.24 708.79 332.29 708.22 289.94 685.97 268.55 663.29 281.92 649.33 324.01 623.62 348.46 606.21 332.67 607.63 356.39"/><path class="cls-2" d="M622.92,378.53l5.59,2.81s.23-24.79,7.39-43.12l-12.28,10.24-10.15-9.27C610.91,358.88,622.92,378.53,622.92,378.53Z"/><path class="cls-15" d="M628.51,381.34l20.84,12L664,373.51h28.34l15.16,21.83,18.07-12.2,3.77-2.46s1.26-61.23-38.82-79.95a28.5,28.5,0,0,0-23.5-.36C627.67,317.74,628.51,381.34,628.51,381.34Z"/><polygon class="cls-1" points="664.01 373.51 678.12 365.04 692.35 373.51 664.01 373.51"/><polygon class="cls-2" points="664.73 441.2 649.98 398.45 665.5 377.18 678.12 369.28 690.5 377.18 706.83 399.76 736.08 380.3 703.13 433.35 687.48 441.2 664.73 441.2"/><path class="cls-2" d="M723.66,343.17A116.82,116.82,0,0,1,728.43,366l4.77-17.87Z"/><polygon class="cls-1" points="507.69 401.12 518.98 431.76 552.71 478.68 564.71 485.93 587.46 485.93 603.11 478.08 636.06 425.04 664.12 373.42 633.46 390.97 608.85 377.02 608.28 334.67 586.03 313.28 563.35 326.65 549.39 368.74 523.68 393.19 506.27 377.4 507.69 401.12"/><path class="cls-2" d="M523,423.27l5.59,2.8S528.8,401.28,536,383l-12.28,10.24-10.15-9.27C511,403.62,523,423.27,523,423.27Z"/><path class="cls-16" d="M528.57,426.07l20.84,12,14.66-19.83h28.34l15.16,21.83,18.07-12.2,3.77-2.46s1.26-61.23-38.82-80a28.47,28.47,0,0,0-23.5-.35C527.73,362.47,528.57,426.07,528.57,426.07Z"/><polygon class="cls-1" points="564.07 418.24 578.18 409.78 592.41 418.24 564.07 418.24"/><polygon class="cls-2" points="564.79 485.93 550.04 443.18 565.56 421.92 578.18 414.01 590.56 421.92 606.89 444.49 636.14 425.04 603.19 478.08 587.54 485.93 564.79 485.93"/><path class="cls-2" d="M623.72,387.9a116.82,116.82,0,0,1,4.77,22.85l4.77-17.86Z"/><polygon class="cls-1" points="691.96 401.08 703.25 431.72 736.98 478.64 748.98 485.89 771.73 485.89 787.37 478.04 820.32 425 848.38 373.38 817.73 390.93 793.12 376.98 792.55 334.63 770.3 313.24 747.62 326.61 733.66 368.7 707.95 393.15 690.54 377.36 691.96 401.08"/><path class="cls-2" d="M707.25,423.23l5.59,2.8s.23-24.79,7.39-43.12L708,393.15l-10.15-9.27C695.24,403.58,707.25,423.23,707.25,423.23Z"/><path class="cls-17" d="M712.84,426l20.83,12,14.67-19.83h28.33L791.84,440l18.07-12.2,3.76-2.46s1.27-61.23-38.81-79.95a28.49,28.49,0,0,0-23.51-.35C712,362.43,712.84,426,712.84,426Z"/><polygon class="cls-1" points="748.34 418.2 762.45 409.74 776.67 418.2 748.34 418.2"/><polygon class="cls-2" points="749.06 485.89 734.31 443.14 749.83 421.87 762.45 413.97 774.83 421.87 791.16 444.45 820.41 425 787.46 478.04 771.81 485.89 749.06 485.89"/><path class="cls-2" d="M808,387.86a116.31,116.31,0,0,1,4.78,22.85l4.76-17.86Z"/><polygon class="cls-1" points="592.02 445.81 603.31 476.45 637.04 523.37 649.04 530.62 671.79 530.62 687.43 522.77 720.38 469.73 748.45 418.11 717.79 435.66 693.18 421.71 692.61 379.36 670.36 357.97 647.68 371.34 633.72 413.43 608 437.88 590.6 422.09 592.02 445.81"/><path class="cls-2" d="M607.31,468l5.59,2.81s.23-24.8,7.39-43.13L608,437.88l-10.15-9.27C595.3,448.31,607.31,468,607.31,468Z"/><path class="cls-18" d="M612.9,470.77l20.83,12,14.67-19.84h28.33l15.17,21.84L710,472.56l3.76-2.46s1.27-61.22-38.81-79.94a28.45,28.45,0,0,0-23.51-.36C612.06,407.16,612.9,470.77,612.9,470.77Z"/><polygon class="cls-1" points="648.4 462.93 662.51 454.47 676.73 462.93 648.4 462.93"/><polygon class="cls-2" points="649.12 530.62 634.37 487.87 649.89 466.61 662.51 458.7 674.89 466.61 691.22 489.19 720.47 469.73 687.52 522.77 671.87 530.62 649.12 530.62"/><path class="cls-2" d="M708,432.59a116.31,116.31,0,0,1,4.78,22.85l4.76-17.86Z"/><polygon class="cls-1" points="776.33 445.86 787.62 476.5 821.34 523.42 833.34 530.67 856.09 530.67 871.74 522.81 904.69 469.77 932.75 418.16 902.09 435.7 877.49 421.75 876.92 379.4 854.67 358.01 831.99 371.39 818.02 413.48 792.31 437.93 774.9 422.13 776.33 445.86"/><path class="cls-2" d="M791.62,468l5.59,2.81s.22-24.79,7.39-43.12l-12.29,10.24-10.15-9.27C779.61,448.35,791.62,468,791.62,468Z"/><path class="cls-19" d="M797.21,470.81l20.83,12L832.71,463H861l15.17,21.83,18.06-12.21,3.77-2.46s1.27-61.22-38.82-79.94a28.43,28.43,0,0,0-23.5-.36C796.37,407.21,797.21,470.81,797.21,470.81Z"/><polygon class="cls-1" points="832.71 462.98 846.82 454.51 861.04 462.98 832.71 462.98"/><polygon class="cls-2" points="833.43 530.67 818.68 487.92 834.19 466.65 846.82 458.74 859.19 466.65 875.52 489.23 904.77 469.77 871.82 522.81 856.18 530.67 833.43 530.67"/><path class="cls-2" d="M892.35,432.64a116.82,116.82,0,0,1,4.77,22.85l4.77-17.87Z"/><polygon class="cls-1" points="676.39 490.59 687.68 521.23 721.4 568.15 733.4 575.4 756.15 575.4 771.8 567.54 804.75 514.5 832.81 462.89 802.15 480.44 777.54 466.49 776.98 424.13 754.73 402.75 732.04 416.12 718.08 458.21 692.37 482.66 674.96 466.87 676.39 490.59"/><path class="cls-2" d="M691.68,512.73l5.59,2.81s.22-24.79,7.39-43.12l-12.29,10.24-10.15-9.27C679.67,493.08,691.68,512.73,691.68,512.73Z"/><path class="cls-20" d="M697.27,515.54l20.83,12,14.67-19.83H761.1l15.17,21.83,18.06-12.2,3.77-2.47s1.27-61.22-38.82-79.94a28.5,28.5,0,0,0-23.5-.36C696.43,451.94,697.27,515.54,697.27,515.54Z"/><polygon class="cls-1" points="732.77 507.71 746.88 499.24 761.1 507.71 732.77 507.71"/><polygon class="cls-2" points="733.49 575.4 718.74 532.65 734.25 511.38 746.88 503.48 759.25 511.38 775.58 533.96 804.83 514.5 771.88 567.54 756.24 575.4 733.49 575.4"/><path class="cls-2" d="M792.41,477.37a116.82,116.82,0,0,1,4.77,22.85L802,482.35Z"/><polygon class="cls-1" points="1149.24 199.64 1160.54 230.28 1194.26 277.2 1206.26 284.45 1229.01 284.45 1244.66 276.6 1277.61 223.55 1305.67 171.94 1275.01 189.49 1250.4 175.54 1249.83 133.18 1227.58 111.8 1204.9 125.17 1190.94 167.26 1165.23 191.71 1147.82 175.92 1149.24 199.64"/><path class="cls-2" d="M1164.53,221.78l5.59,2.81s.23-24.79,7.4-43.12l-12.29,10.24-10.15-9.27C1152.52,202.13,1164.53,221.78,1164.53,221.78Z"/><path class="cls-21" d="M1170.12,224.59l20.84,12,14.66-19.83H1234l15.16,21.83,18.07-12.2,3.77-2.46s1.26-61.23-38.82-80a28.5,28.5,0,0,0-23.5-.36C1169.28,161,1170.12,224.59,1170.12,224.59Z"/><polygon class="cls-1" points="1205.62 216.76 1219.73 208.29 1233.96 216.76 1205.62 216.76"/><polygon class="cls-2" points="1206.34 284.45 1191.59 241.7 1207.11 220.43 1219.73 212.53 1232.11 220.43 1248.44 243.01 1277.69 223.55 1244.74 276.6 1229.09 284.45 1206.34 284.45"/><path class="cls-2" d="M1265.27,186.42a116.82,116.82,0,0,1,4.77,22.85l4.77-17.87Z"/><polygon class="cls-1" points="1233.75 244.59 1245.04 275.24 1278.77 322.15 1290.77 329.4 1313.52 329.4 1329.17 321.55 1362.12 268.51 1390.18 216.89 1359.52 234.44 1334.91 220.49 1334.34 178.14 1312.09 156.75 1289.41 170.12 1275.45 212.21 1249.74 236.66 1232.33 220.87 1233.75 244.59"/><path class="cls-2" d="M1249,266.74l5.59,2.81s.23-24.79,7.39-43.13l-12.28,10.24-10.15-9.27C1237,247.09,1249,266.74,1249,266.74Z"/><path class="cls-22" d="M1254.63,269.55l20.84,12,14.66-19.84h28.34l15.16,21.84,18.07-12.21,3.77-2.46s1.26-61.22-38.82-79.94a28.43,28.43,0,0,0-23.5-.36C1253.79,205.94,1254.63,269.55,1254.63,269.55Z"/><polygon class="cls-1" points="1290.13 261.71 1304.24 253.25 1318.46 261.71 1290.13 261.71"/><polygon class="cls-2" points="1290.85 329.4 1276.1 286.65 1291.62 265.39 1304.24 257.48 1316.62 265.39 1332.95 287.96 1362.2 268.51 1329.25 321.55 1313.6 329.4 1290.85 329.4"/><path class="cls-2" d="M1349.78,231.37a116.82,116.82,0,0,1,4.77,22.85l4.77-17.86Z"/><polygon class="cls-1" points="1049.31 244.37 1060.6 275.01 1094.32 321.93 1106.32 329.18 1129.07 329.18 1144.72 321.33 1177.67 268.29 1205.73 216.67 1175.07 234.22 1150.46 220.27 1149.89 177.92 1127.64 156.53 1104.96 169.9 1091 211.99 1065.29 236.44 1047.88 220.65 1049.31 244.37"/><path class="cls-2" d="M1064.59,266.52l5.59,2.8s.23-24.79,7.4-43.12l-12.29,10.24-10.15-9.27C1052.58,246.87,1064.59,266.52,1064.59,266.52Z"/><path class="cls-23" d="M1070.18,269.32l20.84,12,14.66-19.83H1134l15.16,21.83,18.07-12.2,3.77-2.46s1.26-61.23-38.82-80a28.47,28.47,0,0,0-23.5-.35C1069.34,205.72,1070.18,269.32,1070.18,269.32Z"/><polygon class="cls-1" points="1105.68 261.49 1119.8 253.03 1134.02 261.49 1105.68 261.49"/><polygon class="cls-2" points="1106.4 329.18 1091.65 286.43 1107.17 265.16 1119.8 257.26 1132.17 265.16 1148.5 287.74 1177.75 268.29 1144.8 321.33 1129.15 329.18 1106.4 329.18"/><path class="cls-2" d="M1165.33,231.15A116.82,116.82,0,0,1,1170.1,254l4.77-17.86Z"/><polygon class="cls-1" points="1133.81 289.32 1145.1 319.97 1178.83 366.89 1190.83 374.14 1213.58 374.14 1229.23 366.28 1262.18 313.24 1290.24 261.62 1259.58 279.17 1234.97 265.22 1234.4 222.87 1212.15 201.48 1189.47 214.85 1175.51 256.94 1149.8 281.39 1132.39 265.6 1133.81 289.32"/><path class="cls-2" d="M1149.1,311.47l5.59,2.81s.23-24.79,7.39-43.13l-12.28,10.24-10.15-9.26C1137.09,291.82,1149.1,311.47,1149.1,311.47Z"/><path class="cls-24" d="M1154.69,314.28l20.84,12,14.66-19.84h28.34l15.16,21.84,18.07-12.21,3.77-2.46s1.26-61.22-38.82-79.94a28.43,28.43,0,0,0-23.5-.36C1153.85,250.67,1154.69,314.28,1154.69,314.28Z"/><polygon class="cls-1" points="1190.19 306.44 1204.3 297.98 1218.53 306.44 1190.19 306.44"/><polygon class="cls-2" points="1190.91 374.14 1176.16 331.39 1191.68 310.12 1204.3 302.21 1216.68 310.12 1233.01 332.7 1262.26 313.24 1229.31 366.28 1213.66 374.14 1190.91 374.14"/><path class="cls-2" d="M1249.84,276.1a117,117,0,0,1,4.77,22.85l4.77-17.86Z"/><polygon class="cls-1" points="1318.12 289.37 1329.41 320.01 1363.13 366.93 1375.13 374.18 1397.88 374.18 1413.53 366.32 1446.48 313.28 1474.54 261.67 1443.88 279.21 1419.28 265.27 1418.71 222.91 1396.46 201.53 1373.78 214.9 1359.82 256.99 1334.1 281.44 1316.69 265.65 1318.12 289.37"/><path class="cls-2" d="M1333.41,311.51l5.59,2.81s.22-24.79,7.39-43.12l-12.29,10.24L1324,272.17C1321.4,291.86,1333.41,311.51,1333.41,311.51Z"/><path class="cls-25" d="M1339,314.32l20.83,12,14.67-19.83h28.33L1418,328.32l18.07-12.2,3.76-2.46s1.27-61.23-38.81-80a28.53,28.53,0,0,0-23.51-.36C1338.16,250.72,1339,314.32,1339,314.32Z"/><polygon class="cls-1" points="1374.5 306.49 1388.61 298.02 1402.83 306.49 1374.5 306.49"/><polygon class="cls-2" points="1375.22 374.18 1360.47 331.43 1375.99 310.16 1388.61 302.26 1400.99 310.16 1417.32 332.74 1446.57 313.28 1413.62 366.32 1397.97 374.18 1375.22 374.18"/><path class="cls-2" d="M1434.14,276.15a116.31,116.31,0,0,1,4.78,22.85l4.76-17.87Z"/><polygon class="cls-1" points="1218.18 334.1 1229.47 364.74 1263.19 411.66 1275.19 418.91 1297.94 418.91 1313.59 411.06 1346.54 358.01 1374.6 306.4 1343.94 323.95 1319.34 310 1318.77 267.65 1296.52 246.26 1273.84 259.63 1259.88 301.72 1234.16 326.17 1216.75 310.38 1218.18 334.1"/><path class="cls-2" d="M1233.47,356.25l5.59,2.8s.22-24.79,7.39-43.12l-12.29,10.24L1224,316.9C1221.46,336.6,1233.47,356.25,1233.47,356.25Z"/><path class="cls-26" d="M1239.06,359.05l20.83,12,14.67-19.83h28.33l15.17,21.83,18.07-12.2,3.76-2.46s1.27-61.23-38.81-79.95a28.49,28.49,0,0,0-23.51-.35C1238.22,295.45,1239.06,359.05,1239.06,359.05Z"/><polygon class="cls-1" points="1274.56 351.22 1288.67 342.75 1302.89 351.22 1274.56 351.22"/><polygon class="cls-2" points="1275.28 418.91 1260.53 376.16 1276.05 354.89 1288.67 346.99 1301.05 354.89 1317.38 377.47 1346.63 358.01 1313.68 411.06 1298.03 418.91 1275.28 418.91"/><path class="cls-2" d="M1334.2,320.88a116.31,116.31,0,0,1,4.78,22.85l4.76-17.86Z"/><polygon class="cls-1" points="1402.45 334.06 1413.74 364.7 1447.46 411.62 1459.46 418.87 1482.21 418.87 1497.86 411.02 1530.81 357.97 1558.87 306.36 1528.21 323.91 1503.61 309.96 1503.04 267.61 1480.79 246.22 1458.11 259.59 1444.14 301.68 1418.43 326.13 1401.02 310.34 1402.45 334.06"/><path class="cls-2" d="M1417.74,356.2l5.59,2.81s.22-24.79,7.39-43.12l-12.29,10.24-10.15-9.27C1405.73,336.55,1417.74,356.2,1417.74,356.2Z"/><path class="cls-27" d="M1423.33,359l20.83,12,14.67-19.83h28.33L1502.33,373l18.06-12.2,3.77-2.46s1.27-61.23-38.82-80a28.5,28.5,0,0,0-23.5-.36C1422.49,295.41,1423.33,359,1423.33,359Z"/><polygon class="cls-1" points="1458.83 351.18 1472.94 342.71 1487.16 351.18 1458.83 351.18"/><polygon class="cls-2" points="1459.55 418.87 1444.8 376.12 1460.31 354.85 1472.94 346.95 1485.31 354.85 1501.64 377.43 1530.89 357.97 1497.94 411.02 1482.3 418.87 1459.55 418.87"/><path class="cls-2" d="M1518.47,320.84a116.82,116.82,0,0,1,4.77,22.85l4.77-17.87Z"/><polygon class="cls-1" points="1302.51 378.79 1313.8 409.44 1347.52 456.35 1359.52 463.6 1382.27 463.6 1397.92 455.75 1430.87 402.71 1458.93 351.09 1428.27 368.64 1403.66 354.69 1403.1 312.34 1380.85 290.95 1358.16 304.32 1344.2 346.41 1318.49 370.86 1301.08 355.07 1302.51 378.79"/><path class="cls-2" d="M1317.8,400.94l5.59,2.8s.22-24.79,7.39-43.12l-12.29,10.24-10.15-9.27C1305.79,381.29,1317.8,400.94,1317.8,400.94Z"/><path class="cls-28" d="M1323.39,403.74l20.83,12,14.67-19.83h28.33l15.17,21.83,18.06-12.2,3.77-2.46s1.27-61.23-38.82-79.94a28.43,28.43,0,0,0-23.5-.36C1322.55,340.14,1323.39,403.74,1323.39,403.74Z"/><polygon class="cls-1" points="1358.89 395.91 1373 387.45 1387.22 395.91 1358.89 395.91"/><polygon class="cls-2" points="1359.61 463.6 1344.86 420.85 1360.37 399.58 1373 391.68 1385.37 399.58 1401.7 422.16 1430.95 402.71 1398 455.75 1382.36 463.6 1359.61 463.6"/><path class="cls-2" d="M1418.53,365.57a116.82,116.82,0,0,1,4.77,22.85l4.77-17.86Z"/><polygon class="cls-1" points="1782.32 177.25 1793.61 207.9 1827.33 254.81 1839.33 262.06 1862.08 262.06 1877.73 254.21 1910.68 201.16 1938.74 149.55 1908.08 167.1 1883.48 153.15 1882.91 110.8 1860.66 89.41 1837.98 102.78 1824.02 144.87 1798.3 169.32 1780.89 153.53 1782.32 177.25"/><path class="cls-2" d="M1797.61,199.4l5.59,2.8s.22-24.79,7.39-43.12l-12.29,10.24-10.15-9.27C1785.6,179.75,1797.61,199.4,1797.61,199.4Z"/><path class="cls-29" d="M1803.2,202.2l20.83,12,14.67-19.83H1867l15.17,21.83,18.07-12.2,3.76-2.46s1.27-61.23-38.81-79.95a28.49,28.49,0,0,0-23.51-.35C1802.36,138.6,1803.2,202.2,1803.2,202.2Z"/><polygon class="cls-1" points="1838.7 194.37 1852.81 185.91 1867.03 194.37 1838.7 194.37"/><polygon class="cls-2" points="1839.42 262.06 1824.67 219.31 1840.19 198.04 1852.81 190.14 1865.19 198.04 1881.52 220.62 1910.77 201.16 1877.82 254.21 1862.17 262.06 1839.42 262.06"/><path class="cls-2" d="M1898.34,164a116.31,116.31,0,0,1,4.78,22.85l4.76-17.86Z"/><polygon class="cls-1" points="1866.83 222.2 1878.12 252.85 1911.84 299.77 1923.84 307.02 1946.59 307.02 1962.24 299.16 1995.19 246.12 2023.25 194.5 1992.59 212.05 1967.99 198.1 1967.42 155.75 1945.17 134.36 1922.49 147.74 1908.52 189.82 1882.81 214.28 1865.4 198.48 1866.83 222.2"/><path class="cls-2" d="M1882.12,244.35l5.59,2.81s.22-24.79,7.39-43.13l-12.29,10.25L1872.66,205C1870.11,224.7,1882.12,244.35,1882.12,244.35Z"/><path class="cls-30" d="M1887.71,247.16l20.83,12,14.67-19.84h28.33l15.17,21.84L1984.77,249l3.77-2.46s1.27-61.22-38.81-79.94a28.45,28.45,0,0,0-23.51-.36C1886.87,183.56,1887.71,247.16,1887.71,247.16Z"/><polygon class="cls-1" points="1923.21 239.32 1937.32 230.86 1951.54 239.32 1923.21 239.32"/><polygon class="cls-2" points="1923.93 307.02 1909.18 264.27 1924.69 243 1937.32 235.09 1949.69 243 1966.02 265.58 1995.27 246.12 1962.32 299.16 1946.68 307.02 1923.93 307.02"/><path class="cls-2" d="M1982.85,209a117,117,0,0,1,4.77,22.86l4.77-17.87Z"/><polygon class="cls-1" points="1682.38 221.98 1693.67 252.63 1727.39 299.55 1739.39 306.8 1762.14 306.8 1777.79 298.94 1810.74 245.9 1838.8 194.28 1808.14 211.83 1783.54 197.88 1782.97 155.53 1760.72 134.14 1738.04 147.51 1724.08 189.6 1698.36 214.05 1680.95 198.26 1682.38 221.98"/><path class="cls-2" d="M1697.67,244.13l5.59,2.81s.22-24.79,7.39-43.13l-12.29,10.24-10.14-9.27C1685.66,224.48,1697.67,244.13,1697.67,244.13Z"/><path class="cls-31" d="M1703.26,246.94l20.83,12,14.67-19.84h28.33l15.17,21.84,18.07-12.21,3.76-2.46s1.27-61.22-38.81-79.94a28.45,28.45,0,0,0-23.51-.36C1702.42,183.33,1703.26,246.94,1703.26,246.94Z"/><polygon class="cls-1" points="1738.76 239.1 1752.87 230.64 1767.09 239.1 1738.76 239.1"/><polygon class="cls-2" points="1739.48 306.8 1724.73 264.05 1740.25 242.78 1752.87 234.87 1765.25 242.78 1781.58 265.36 1810.83 245.9 1777.88 298.94 1762.23 306.8 1739.48 306.8"/><path class="cls-2" d="M1798.4,208.76a116.31,116.31,0,0,1,4.78,22.85l4.76-17.86Z"/><polygon class="cls-1" points="1766.89 266.94 1778.18 297.58 1811.9 344.5 1823.9 351.75 1846.65 351.75 1862.3 343.89 1895.25 290.85 1923.31 239.24 1892.65 256.78 1868.05 242.83 1867.48 200.48 1845.23 179.09 1822.55 192.47 1808.59 234.56 1782.87 259.01 1765.46 243.22 1766.89 266.94"/><path class="cls-2" d="M1782.18,289.08l5.59,2.81s.22-24.79,7.39-43.12L1782.87,259l-10.15-9.27C1770.17,269.43,1782.18,289.08,1782.18,289.08Z"/><path class="cls-32" d="M1787.77,291.89l20.83,12,14.67-19.83h28.33l15.17,21.83,18.06-12.21,3.77-2.46s1.27-61.22-38.81-79.94a28.45,28.45,0,0,0-23.51-.36C1786.93,228.29,1787.77,291.89,1787.77,291.89Z"/><polygon class="cls-1" points="1823.27 284.06 1837.38 275.59 1851.6 284.06 1823.27 284.06"/><polygon class="cls-2" points="1823.99 351.75 1809.24 309 1824.76 287.73 1837.38 279.82 1849.76 287.73 1866.09 310.31 1895.34 290.85 1862.38 343.89 1846.74 351.75 1823.99 351.75"/><path class="cls-2" d="M1882.91,253.72a117.21,117.21,0,0,1,4.78,22.85l4.76-17.87Z"/><polygon class="cls-1" points="1951.2 266.98 1962.48 297.62 1996.21 344.54 2008.21 351.79 2030.96 351.79 2046.61 343.94 2079.56 290.89 2107.62 239.28 2076.96 256.83 2052.35 242.88 2051.78 200.53 2029.53 179.14 2006.85 192.51 1992.89 234.6 1967.18 259.05 1949.77 243.26 1951.2 266.98"/><path class="cls-2" d="M1966.48,289.13l5.59,2.8s.23-24.79,7.4-43.12l-12.29,10.24L1957,249.78C1954.47,269.48,1966.48,289.13,1966.48,289.13Z"/><path class="cls-33" d="M1972.07,291.93l20.84,12,14.66-19.83h28.34l15.16,21.83,18.07-12.2,3.77-2.46s1.26-61.23-38.82-79.95a28.47,28.47,0,0,0-23.5-.35C1971.24,228.33,1972.07,291.93,1972.07,291.93Z"/><polygon class="cls-1" points="2007.57 284.1 2021.68 275.64 2035.91 284.1 2007.57 284.1"/><polygon class="cls-2" points="2008.29 351.79 1993.54 309.04 2009.06 287.77 2021.68 279.87 2034.06 287.77 2050.39 310.35 2079.64 290.89 2046.69 343.94 2031.04 351.79 2008.29 351.79"/><path class="cls-2" d="M2067.22,253.76a116.82,116.82,0,0,1,4.77,22.85l4.77-17.86Z"/><polygon class="cls-1" points="1851.26 311.71 1862.55 342.36 1896.27 389.27 1908.27 396.52 1931.02 396.52 1946.67 388.67 1979.62 335.63 2007.68 284.01 1977.02 301.56 1952.41 287.61 1951.84 245.26 1929.59 223.87 1906.91 237.24 1892.95 279.33 1867.24 303.78 1849.83 287.99 1851.26 311.71"/><path class="cls-2" d="M1866.54,333.86l5.59,2.81s.23-24.79,7.4-43.13l-12.29,10.24-10.15-9.27C1854.53,314.21,1866.54,333.86,1866.54,333.86Z"/><path class="cls-34" d="M1872.13,336.67l20.84,12,14.66-19.84H1936l15.16,21.84,18.07-12.21L1973,336s1.26-61.22-38.82-79.94a28.43,28.43,0,0,0-23.5-.36C1871.3,273.06,1872.13,336.67,1872.13,336.67Z"/><polygon class="cls-1" points="1907.63 328.83 1921.75 320.37 1935.97 328.83 1907.63 328.83"/><polygon class="cls-2" points="1908.35 396.52 1893.6 353.77 1909.12 332.51 1921.75 324.6 1934.12 332.51 1950.45 355.08 1979.7 335.63 1946.75 388.67 1931.1 396.52 1908.35 396.52"/><path class="cls-2" d="M1967.28,298.49a116.82,116.82,0,0,1,4.77,22.85l4.77-17.86Z"/><polygon class="cls-1" points="2035.52 311.67 2046.81 342.31 2080.54 389.23 2092.54 396.48 2115.29 396.48 2130.93 388.63 2163.89 335.59 2191.95 283.97 2161.29 301.52 2136.68 287.57 2136.11 245.22 2113.86 223.83 2091.18 237.2 2077.22 279.29 2051.51 303.74 2034.1 287.95 2035.52 311.67"/><path class="cls-2" d="M2050.81,333.82l5.59,2.8s.23-24.79,7.39-43.12l-12.28,10.24-10.15-9.27C2038.8,314.17,2050.81,333.82,2050.81,333.82Z"/><path class="cls-35" d="M2056.4,336.62l20.84,12,14.66-19.83h28.34l15.16,21.83,18.07-12.2,3.77-2.46s1.26-61.22-38.82-79.94a28.43,28.43,0,0,0-23.5-.36C2055.56,273,2056.4,336.62,2056.4,336.62Z"/><polygon class="cls-1" points="2091.9 328.79 2106.01 320.33 2120.24 328.79 2091.9 328.79"/><polygon class="cls-2" points="2092.62 396.48 2077.87 353.73 2093.39 332.46 2106.01 324.56 2118.39 332.46 2134.72 355.04 2163.97 335.59 2131.02 388.63 2115.37 396.48 2092.62 396.48"/><path class="cls-2" d="M2151.55,298.45a116.82,116.82,0,0,1,4.77,22.85l4.76-17.86Z"/><polygon class="cls-1" points="1935.58 356.4 1946.87 387.05 1980.6 433.96 1992.6 441.21 2015.35 441.21 2030.99 433.36 2063.95 380.32 2092.01 328.7 2061.35 346.25 2036.74 332.3 2036.17 289.95 2013.92 268.56 1991.24 281.93 1977.28 324.02 1951.57 348.47 1934.16 332.68 1935.58 356.4"/><path class="cls-2" d="M1950.87,378.55l5.59,2.81s.23-24.79,7.39-43.13l-12.28,10.24-10.15-9.26C1938.86,358.9,1950.87,378.55,1950.87,378.55Z"/><path class="cls-36" d="M1956.46,381.36l20.84,12L1992,373.52h28.34l15.16,21.84,18.07-12.21,3.77-2.46s1.26-61.22-38.82-79.94a28.43,28.43,0,0,0-23.5-.36C1955.62,317.75,1956.46,381.36,1956.46,381.36Z"/><polygon class="cls-1" points="1991.96 373.52 2006.07 365.06 2020.3 373.52 1991.96 373.52"/><polygon class="cls-2" points="1992.68 441.21 1977.93 398.46 1993.45 377.2 2006.07 369.29 2018.45 377.2 2034.78 399.78 2064.03 380.32 2031.08 433.36 2015.43 441.21 1992.68 441.21"/><path class="cls-2" d="M2051.61,343.18a116.82,116.82,0,0,1,4.77,22.85l4.76-17.86Z"/><polygon class="cls-1" points="2119.89 356.45 2131.18 387.09 2164.9 434.01 2176.9 441.26 2199.65 441.26 2215.3 433.4 2248.25 380.36 2276.31 328.75 2245.65 346.29 2221.05 332.35 2220.48 289.99 2198.23 268.61 2175.55 281.98 2161.59 324.07 2135.87 348.52 2118.46 332.73 2119.89 356.45"/><path class="cls-2" d="M2135.18,378.59l5.59,2.81s.22-24.79,7.39-43.12l-12.29,10.24-10.15-9.27C2123.17,358.94,2135.18,378.59,2135.18,378.59Z"/><path class="cls-37" d="M2140.77,381.4l20.83,12,14.67-19.83h28.33l15.17,21.83,18.07-12.2,3.76-2.47s1.27-61.22-38.81-79.94a28.53,28.53,0,0,0-23.51-.36C2139.93,317.8,2140.77,381.4,2140.77,381.4Z"/><polygon class="cls-1" points="2176.27 373.57 2190.38 365.1 2204.6 373.57 2176.27 373.57"/><polygon class="cls-2" points="2176.99 441.26 2162.24 398.51 2177.76 377.24 2190.38 369.33 2202.76 377.24 2219.09 399.82 2248.34 380.36 2215.39 433.4 2199.74 441.26 2176.99 441.26"/><path class="cls-2" d="M2235.91,343.23a116.31,116.31,0,0,1,4.78,22.85l4.76-17.87Z"/><polygon class="cls-1" points="2019.95 401.18 2031.24 431.82 2064.96 478.74 2076.96 485.99 2099.71 485.99 2115.36 478.14 2148.31 425.09 2176.37 373.48 2145.71 391.03 2121.11 377.08 2120.54 334.73 2098.29 313.34 2075.61 326.71 2061.64 368.8 2035.93 393.25 2018.52 377.46 2019.95 401.18"/><path class="cls-2" d="M2035.24,423.32l5.59,2.81s.22-24.79,7.39-43.12l-12.29,10.24L2025.78,384C2023.23,403.67,2035.24,423.32,2035.24,423.32Z"/><path class="cls-38" d="M2040.83,426.13l20.83,12,14.67-19.83h28.33l15.17,21.83,18.07-12.2,3.76-2.46s1.27-61.23-38.81-80a28.53,28.53,0,0,0-23.51-.36C2040,362.53,2040.83,426.13,2040.83,426.13Z"/><polygon class="cls-1" points="2076.33 418.3 2090.44 409.83 2104.66 418.3 2076.33 418.3"/><polygon class="cls-2" points="2077.05 485.99 2062.3 443.24 2077.82 421.97 2090.44 414.07 2102.82 421.97 2119.14 444.55 2148.39 425.09 2115.45 478.14 2099.8 485.99 2077.05 485.99"/><path class="cls-2" d="M2136,388a116.31,116.31,0,0,1,4.78,22.85l4.76-17.87Z"/><path class="cls-39" d="M1649,279.74h-7.83v-7.83a3.59,3.59,0,1,0-7.17,0v7.83h-7.83a3.59,3.59,0,0,0,0,7.17H1634v7.83a3.59,3.59,0,0,0,7.17,0v-7.83H1649a3.59,3.59,0,1,0,0-7.17Z"/><rect class="cls-39" x="972.9" y="276.05" width="34" height="4.84" rx="2.42" ry="2.42"/><rect class="cls-39" x="972.9" y="286.21" width="34" height="4.84" rx="2.42" ry="2.42"/></g></svg>