<svg xmlns="http://www.w3.org/2000/svg" xmlns:xlink="http://www.w3.org/1999/xlink" viewBox="0 0 1134.53 396.58"><defs><style>.cls-1{fill:#62abbc;}.cls-2{fill:#3d838e;opacity:0.51;}.cls-3{fill:url(#linear-gradient);}.cls-4{fill:url(#linear-gradient-2);}.cls-5{fill:url(#linear-gradient-3);}.cls-6{fill:url(#linear-gradient-4);}.cls-7{fill:url(#linear-gradient-5);}.cls-8{fill:url(#linear-gradient-6);}.cls-9{fill:url(#linear-gradient-7);}.cls-10{fill:url(#linear-gradient-8);}.cls-11{fill:url(#linear-gradient-9);}.cls-12{fill:url(#linear-gradient-10);}.cls-13{fill:url(#linear-gradient-11);}.cls-14{fill:url(#linear-gradient-12);}.cls-15{fill:url(#linear-gradient-13);}.cls-16{fill:url(#linear-gradient-14);}.cls-17{fill:url(#linear-gradient-15);}.cls-18{fill:url(#linear-gradient-16);}.cls-19{fill:#f05023;}</style><linearGradient id="linear-gradient" x1="122.24" y1="122.86" x2="223.08" y2="122.86" gradientUnits="userSpaceOnUse"><stop offset="0" stop-color="#fbb040"/><stop offset="0.39" stop-color="#f9ae41"/><stop offset="0.59" stop-color="#f1a845"/><stop offset="0.74" stop-color="#e49e4b"/><stop offset="0.87" stop-color="#d18f55"/><stop offset="0.99" stop-color="#b97c60"/><stop offset="1" stop-color="#b67a62"/></linearGradient><linearGradient id="linear-gradient-2" x1="206.75" y1="167.82" x2="307.59" y2="167.82" xlink:href="#linear-gradient"/><linearGradient id="linear-gradient-3" x1="22.3" y1="167.59" x2="123.14" y2="167.59" xlink:href="#linear-gradient"/><linearGradient id="linear-gradient-4" x1="106.81" y1="212.55" x2="207.65" y2="212.55" xlink:href="#linear-gradient"/><linearGradient id="linear-gradient-5" x1="291.12" y1="212.59" x2="391.96" y2="212.59" xlink:href="#linear-gradient"/><linearGradient id="linear-gradient-6" x1="191.18" y1="257.32" x2="292.02" y2="257.32" xlink:href="#linear-gradient"/><linearGradient id="linear-gradient-7" x1="661.41" y1="78.13" x2="762.25" y2="78.13" xlink:href="#linear-gradient"/><linearGradient id="linear-gradient-8" x1="745.92" y1="123.08" x2="846.76" y2="123.08" xlink:href="#linear-gradient"/><linearGradient id="linear-gradient-9" x1="561.47" y1="122.86" x2="662.31" y2="122.86" xlink:href="#linear-gradient"/><linearGradient id="linear-gradient-10" x1="645.98" y1="167.81" x2="746.82" y2="167.81" xlink:href="#linear-gradient"/><linearGradient id="linear-gradient-11" x1="830.29" y1="167.86" x2="931.13" y2="167.86" xlink:href="#linear-gradient"/><linearGradient id="linear-gradient-12" x1="730.35" y1="212.59" x2="831.19" y2="212.59" xlink:href="#linear-gradient"/><linearGradient id="linear-gradient-13" x1="914.61" y1="212.55" x2="1015.45" y2="212.55" xlink:href="#linear-gradient"/><linearGradient id="linear-gradient-14" x1="814.67" y1="257.28" x2="915.51" y2="257.28" xlink:href="#linear-gradient"/><linearGradient id="linear-gradient-15" x1="998.98" y1="257.33" x2="1099.82" y2="257.33" xlink:href="#linear-gradient"/><linearGradient id="linear-gradient-16" x1="899.04" y1="302.06" x2="999.88" y2="302.06" xlink:href="#linear-gradient"/></defs><title>V6_R2</title><g id="Layer_2" data-name="Layer 2"><polygon class="cls-1" points="101.37 132.57 112.66 163.22 146.38 210.14 158.38 217.39 181.13 217.39 196.78 209.53 229.73 156.49 257.79 104.88 227.13 122.42 202.52 108.47 201.95 66.12 179.7 44.73 157.02 58.11 143.06 100.2 117.35 124.65 99.94 108.85 101.37 132.57"/><path class="cls-2" d="M116.65,154.72l5.59,2.81s.23-24.79,7.4-43.12l-12.29,10.24-10.15-9.27C104.65,135.07,116.65,154.72,116.65,154.72Z"/><path class="cls-3" d="M122.24,157.53l20.84,12,14.66-19.83h28.34l15.16,21.83,18.07-12.21,3.77-2.46s1.26-61.22-38.82-79.94a28.43,28.43,0,0,0-23.5-.36C121.41,93.93,122.24,157.53,122.24,157.53Z"/><polygon class="cls-1" points="157.75 149.7 171.86 141.23 186.08 149.7 157.75 149.7"/><polygon class="cls-2" points="158.46 217.39 143.71 174.64 159.23 153.37 171.86 145.46 184.23 153.37 200.56 175.95 229.81 156.49 196.86 209.53 181.21 217.39 158.46 217.39"/><path class="cls-2" d="M217.39,119.36a116.82,116.82,0,0,1,4.77,22.85l4.77-17.87Z"/><polygon class="cls-1" points="185.88 177.53 197.16 208.17 230.89 255.09 242.89 262.34 265.64 262.34 281.29 254.49 314.24 201.44 342.3 149.83 311.64 167.38 287.03 153.43 286.46 111.07 264.21 89.69 241.53 103.06 227.57 145.15 201.86 169.6 184.45 153.81 185.88 177.53"/><path class="cls-2" d="M201.16,199.67l5.59,2.81s.23-24.79,7.4-43.12L201.86,169.6l-10.15-9.27C189.15,180,201.16,199.67,201.16,199.67Z"/><path class="cls-4" d="M206.75,202.48l20.84,12,14.66-19.83h28.34l15.16,21.83,18.07-12.2,3.77-2.46s1.26-61.23-38.82-79.95a28.5,28.5,0,0,0-23.5-.36C205.91,138.88,206.75,202.48,206.75,202.48Z"/><polygon class="cls-1" points="242.25 194.65 256.37 186.18 270.59 194.65 242.25 194.65"/><polygon class="cls-2" points="242.97 262.34 228.22 219.59 243.74 198.32 256.37 190.42 268.74 198.32 285.07 220.9 314.32 201.44 281.37 254.49 265.72 262.34 242.97 262.34"/><path class="cls-2" d="M301.9,164.31a116.82,116.82,0,0,1,4.77,22.85l4.77-17.87Z"/><polygon class="cls-1" points="1.43 177.31 12.72 207.95 46.44 254.87 58.44 262.12 81.19 262.12 96.84 254.26 129.79 201.22 157.85 149.61 127.19 167.15 102.58 153.21 102.01 110.85 79.76 89.47 57.08 102.84 43.12 144.93 17.41 169.38 0 153.59 1.43 177.31"/><path class="cls-2" d="M16.71,199.45l5.59,2.81s.23-24.79,7.4-43.12L17.41,169.38,7.26,160.11C4.71,179.8,16.71,199.45,16.71,199.45Z"/><path class="cls-5" d="M22.3,202.26l20.84,12L57.8,194.43H86.14l15.16,21.83,18.07-12.21,3.77-2.46s1.26-61.22-38.82-79.94a28.47,28.47,0,0,0-23.5-.36C21.47,138.66,22.3,202.26,22.3,202.26Z"/><polygon class="cls-1" points="57.8 194.43 71.92 185.96 86.14 194.43 57.8 194.43"/><polygon class="cls-2" points="58.52 262.12 43.77 219.37 59.29 198.1 71.92 190.19 84.29 198.1 100.62 220.68 129.87 201.22 96.92 254.26 81.27 262.12 58.52 262.12"/><path class="cls-2" d="M117.45,164.09a116.82,116.82,0,0,1,4.77,22.85L127,169.07Z"/><polygon class="cls-1" points="85.94 222.26 97.22 252.9 130.95 299.82 142.95 307.07 165.7 307.07 181.35 299.22 214.3 246.18 242.36 194.56 211.7 212.11 187.09 198.16 186.52 155.81 164.27 134.42 141.59 147.79 127.63 189.88 101.92 214.33 84.51 198.54 85.94 222.26"/><path class="cls-2" d="M101.22,244.41l5.59,2.8s.23-24.79,7.4-43.12l-12.29,10.24-10.15-9.27C89.21,224.76,101.22,244.41,101.22,244.41Z"/><path class="cls-6" d="M106.81,247.21l20.84,12,14.66-19.83h28.34l15.16,21.83L203.88,249l3.77-2.46s1.26-61.23-38.82-80a28.47,28.47,0,0,0-23.5-.35C106,183.61,106.81,247.21,106.81,247.21Z"/><polygon class="cls-1" points="142.31 239.38 156.43 230.92 170.65 239.38 142.31 239.38"/><polygon class="cls-2" points="143.03 307.07 128.28 264.32 143.8 243.05 156.43 235.15 168.8 243.05 185.13 265.63 214.38 246.18 181.43 299.22 165.78 307.07 143.03 307.07"/><path class="cls-2" d="M202,209a116.82,116.82,0,0,1,4.77,22.85L211.5,214Z"/><polygon class="cls-1" points="270.24 222.31 281.53 252.95 315.25 299.87 327.25 307.12 350 307.12 365.65 299.26 398.6 246.22 426.66 194.61 396 212.15 371.4 198.2 370.83 155.85 348.58 134.46 325.9 147.84 311.94 189.93 286.23 214.38 268.81 198.58 270.24 222.31"/><path class="cls-2" d="M285.53,244.45l5.59,2.81s.23-24.79,7.39-43.12l-12.29,10.24-10.14-9.27C273.52,224.8,285.53,244.45,285.53,244.45Z"/><path class="cls-7" d="M291.12,247.26l20.83,12,14.67-19.83H355l15.17,21.83,18.07-12.21,3.76-2.46s1.27-61.22-38.81-79.94a28.45,28.45,0,0,0-23.51-.36C290.28,183.66,291.12,247.26,291.12,247.26Z"/><polygon class="cls-1" points="326.62 239.43 340.73 230.96 354.95 239.43 326.62 239.43"/><polygon class="cls-2" points="327.34 307.12 312.59 264.37 328.11 243.1 340.73 235.19 353.11 243.1 369.44 265.68 398.69 246.22 365.74 299.26 350.09 307.12 327.34 307.12"/><path class="cls-2" d="M386.26,209.09A116.31,116.31,0,0,1,391,231.94l4.76-17.87Z"/><polygon class="cls-1" points="170.3 267.04 181.59 297.68 215.32 344.6 227.32 351.85 250.06 351.85 265.71 343.99 298.66 290.95 326.73 239.34 296.07 256.88 271.46 242.93 270.89 200.58 248.64 179.19 225.96 192.57 212 234.66 186.28 259.11 168.88 243.32 170.3 267.04"/><path class="cls-2" d="M185.59,289.18l5.59,2.81s.23-24.79,7.39-43.12l-12.29,10.24-10.14-9.27C173.58,269.53,185.59,289.18,185.59,289.18Z"/><path class="cls-8" d="M191.18,292,212,304l14.67-19.83H255L270.18,306l18.07-12.21,3.76-2.46s1.27-61.22-38.81-79.94a28.45,28.45,0,0,0-23.51-.36C190.34,228.39,191.18,292,191.18,292Z"/><polygon class="cls-1" points="226.68 284.16 240.79 275.69 255.01 284.16 226.68 284.16"/><polygon class="cls-2" points="227.4 351.85 212.65 309.1 228.17 287.83 240.79 279.92 253.17 287.83 269.5 310.41 298.75 290.95 265.8 343.99 250.15 351.85 227.4 351.85"/><path class="cls-2" d="M286.32,253.82a116.31,116.31,0,0,1,4.78,22.85l4.76-17.87Z"/><polygon class="cls-1" points="640.53 87.84 651.82 118.49 685.55 165.4 697.55 172.65 720.3 172.65 735.95 164.8 768.9 111.76 796.96 60.14 766.3 77.69 741.69 63.74 741.12 21.39 718.87 0 696.19 13.37 682.23 55.46 656.52 79.91 639.11 64.12 640.53 87.84"/><path class="cls-2" d="M655.82,110l5.59,2.81s.23-24.79,7.4-43.13L656.52,79.91l-10.15-9.27C643.81,90.34,655.82,110,655.82,110Z"/><path class="cls-9" d="M661.41,112.8l20.84,12L696.91,105h28.34l15.16,21.84,18.07-12.21,3.77-2.46s1.26-61.22-38.82-79.94a28.43,28.43,0,0,0-23.5-.36C660.57,49.19,661.41,112.8,661.41,112.8Z"/><polygon class="cls-1" points="696.91 104.96 711.02 96.5 725.25 104.96 696.91 104.96"/><polygon class="cls-2" points="697.63 172.65 682.88 129.9 698.4 108.64 711.02 100.73 723.4 108.64 739.73 131.22 768.98 111.76 736.03 164.8 720.38 172.65 697.63 172.65"/><path class="cls-2" d="M756.56,74.62a116.82,116.82,0,0,1,4.77,22.85l4.77-17.86Z"/><polygon class="cls-1" points="725.04 132.79 736.33 163.44 770.06 210.36 782.06 217.61 804.81 217.61 820.46 209.75 853.4 156.71 881.47 105.1 850.81 122.64 826.2 108.69 825.63 66.34 803.38 44.95 780.7 58.33 766.74 100.42 741.03 124.87 723.62 109.07 725.04 132.79"/><path class="cls-2" d="M740.33,154.94l5.59,2.81s.23-24.79,7.39-43.12L741,124.87l-10.15-9.27C728.32,135.29,740.33,154.94,740.33,154.94Z"/><path class="cls-10" d="M745.92,157.75l20.83,12,14.67-19.83h28.33l15.17,21.83L843,159.54l3.76-2.46S848,95.86,807.94,77.14a28.43,28.43,0,0,0-23.5-.36C745.08,94.15,745.92,157.75,745.92,157.75Z"/><polygon class="cls-1" points="781.42 149.92 795.53 141.45 809.75 149.92 781.42 149.92"/><polygon class="cls-2" points="782.14 217.61 767.39 174.86 782.91 153.59 795.53 145.68 807.91 153.59 824.24 176.17 853.49 156.71 820.54 209.75 804.89 217.61 782.14 217.61"/><path class="cls-2" d="M841.07,119.58a116.82,116.82,0,0,1,4.77,22.85l4.76-17.87Z"/><polygon class="cls-1" points="540.6 132.57 551.88 163.22 585.61 210.14 597.61 217.39 620.36 217.39 636.01 209.53 668.96 156.49 697.02 104.87 666.36 122.42 641.75 108.47 641.18 66.12 618.93 44.73 596.25 58.1 582.29 100.19 556.58 124.64 539.17 108.85 540.6 132.57"/><path class="cls-2" d="M555.88,154.72l5.59,2.81s.23-24.79,7.4-43.13l-12.29,10.24-10.15-9.26C543.87,135.07,555.88,154.72,555.88,154.72Z"/><path class="cls-11" d="M561.47,157.53l20.84,12L597,149.69h28.34l15.16,21.84,18.07-12.21,3.77-2.46s1.26-61.22-38.82-79.94a28.43,28.43,0,0,0-23.5-.36C560.63,93.92,561.47,157.53,561.47,157.53Z"/><polygon class="cls-1" points="596.97 149.69 611.09 141.23 625.31 149.69 596.97 149.69"/><polygon class="cls-2" points="597.69 217.39 582.94 174.64 598.46 153.37 611.09 145.46 623.46 153.37 639.79 175.95 669.04 156.49 636.09 209.53 620.44 217.39 597.69 217.39"/><path class="cls-2" d="M656.62,119.35a117,117,0,0,1,4.77,22.85l4.77-17.86Z"/><polygon class="cls-1" points="625.1 177.53 636.39 208.17 670.12 255.09 682.12 262.34 704.87 262.34 720.51 254.48 753.47 201.44 781.53 149.83 750.87 167.37 726.26 153.43 725.69 111.07 703.44 89.69 680.76 103.06 666.8 145.15 641.09 169.6 623.68 153.81 625.1 177.53"/><path class="cls-2" d="M640.39,199.67l5.59,2.81s.23-24.79,7.39-43.12L641.09,169.6l-10.15-9.27C628.38,180,640.39,199.67,640.39,199.67Z"/><path class="cls-12" d="M646,202.48l20.84,12,14.66-19.83h28.34L725,216.48l18.07-12.21,3.77-2.46s1.26-61.22-38.82-79.94a28.43,28.43,0,0,0-23.5-.36C645.14,138.88,646,202.48,646,202.48Z"/><polygon class="cls-1" points="681.48 194.65 695.59 186.18 709.82 194.65 681.48 194.65"/><polygon class="cls-2" points="682.2 262.34 667.45 219.59 682.97 198.32 695.59 190.41 707.97 198.32 724.3 220.9 753.55 201.44 720.6 254.48 704.95 262.34 682.2 262.34"/><path class="cls-2" d="M741.13,164.31a116.82,116.82,0,0,1,4.77,22.85l4.76-17.87Z"/><polygon class="cls-1" points="809.41 177.57 820.7 208.22 854.42 255.13 866.42 262.38 889.17 262.38 904.82 254.53 937.77 201.49 965.83 149.87 935.17 167.42 910.57 153.47 910 111.12 887.75 89.73 865.07 103.1 851.11 145.19 825.39 169.64 807.98 153.85 809.41 177.57"/><path class="cls-2" d="M824.7,199.72l5.59,2.81s.22-24.8,7.39-43.13l-12.29,10.24-10.15-9.27C812.69,180.07,824.7,199.72,824.7,199.72Z"/><path class="cls-13" d="M830.29,202.53l20.83,12,14.67-19.84h28.33l15.17,21.84,18.07-12.21,3.76-2.46s1.27-61.22-38.81-79.94a28.45,28.45,0,0,0-23.51-.36C829.45,138.92,830.29,202.53,830.29,202.53Z"/><polygon class="cls-1" points="865.79 194.69 879.9 186.23 894.12 194.69 865.79 194.69"/><polygon class="cls-2" points="866.51 262.38 851.76 219.63 867.27 198.37 879.9 190.46 892.27 198.37 908.61 220.94 937.86 201.49 904.9 254.53 889.26 262.38 866.51 262.38"/><path class="cls-2" d="M925.43,164.35a116.31,116.31,0,0,1,4.78,22.85L935,169.34Z"/><polygon class="cls-1" points="709.47 222.3 720.76 252.95 754.48 299.87 766.48 307.12 789.23 307.12 804.88 299.26 837.83 246.22 865.89 194.6 835.23 212.15 810.63 198.2 810.06 155.85 787.81 134.46 765.13 147.84 751.16 189.92 725.45 214.37 708.04 198.58 709.47 222.3"/><path class="cls-2" d="M724.76,244.45l5.59,2.81s.22-24.79,7.39-43.13l-12.29,10.24-10.15-9.26C712.75,224.8,724.76,244.45,724.76,244.45Z"/><path class="cls-14" d="M730.35,247.26l20.83,12,14.67-19.84h28.33l15.17,21.84,18.07-12.21,3.76-2.46s1.27-61.22-38.81-79.94a28.45,28.45,0,0,0-23.51-.36C729.51,183.65,730.35,247.26,730.35,247.26Z"/><polygon class="cls-1" points="765.85 239.42 779.96 230.96 794.18 239.42 765.85 239.42"/><polygon class="cls-2" points="766.57 307.12 751.82 264.37 767.34 243.1 779.96 235.19 792.34 243.1 808.66 265.68 837.91 246.22 804.97 299.26 789.32 307.12 766.57 307.12"/><path class="cls-2" d="M825.49,209.08a116.31,116.31,0,0,1,4.78,22.85L835,214.07Z"/><polygon class="cls-1" points="893.74 222.26 905.03 252.91 938.75 299.82 950.75 307.07 973.5 307.07 989.15 299.22 1022.1 246.18 1050.16 194.56 1019.5 212.11 994.89 198.16 994.33 155.81 972.08 134.42 949.39 147.79 935.43 189.88 909.72 214.33 892.31 198.54 893.74 222.26"/><path class="cls-2" d="M909,244.41l5.6,2.81s.22-24.79,7.39-43.13l-12.29,10.24-10.15-9.27C897,224.76,909,244.41,909,244.41Z"/><path class="cls-15" d="M914.62,247.22l20.83,12,14.67-19.84h28.33l15.17,21.84L1011.68,249l3.77-2.46s1.27-61.22-38.82-79.94a28.43,28.43,0,0,0-23.5-.36C913.78,183.61,914.62,247.22,914.62,247.22Z"/><polygon class="cls-1" points="950.12 239.38 964.23 230.92 978.45 239.38 950.12 239.38"/><polygon class="cls-2" points="950.84 307.07 936.09 264.32 951.6 243.06 964.23 235.15 976.6 243.06 992.93 265.63 1022.18 246.18 989.23 299.22 973.59 307.07 950.84 307.07"/><path class="cls-2" d="M1009.76,209a116.82,116.82,0,0,1,4.77,22.85L1019.3,214Z"/><polygon class="cls-1" points="793.8 266.99 805.09 297.64 838.81 344.56 850.81 351.81 873.56 351.81 889.21 343.95 922.16 290.91 950.22 239.29 919.56 256.84 894.96 242.89 894.39 200.54 872.14 179.15 849.46 192.53 835.49 234.61 809.78 259.06 792.37 243.27 793.8 266.99"/><path class="cls-2" d="M809.08,289.14l5.6,2.81s.22-24.79,7.39-43.13l-12.29,10.25-10.15-9.27C797.08,269.49,809.08,289.14,809.08,289.14Z"/><path class="cls-16" d="M814.68,292l20.83,12,14.67-19.84h28.33L893.68,306l18.06-12.21,3.77-2.46s1.27-61.22-38.82-79.94a28.43,28.43,0,0,0-23.5-.36C813.84,228.35,814.68,292,814.68,292Z"/><polygon class="cls-1" points="850.18 284.11 864.29 275.65 878.51 284.11 850.18 284.11"/><polygon class="cls-2" points="850.89 351.81 836.14 309.06 851.66 287.79 864.29 279.88 876.66 287.79 892.99 310.37 922.24 290.91 889.29 343.95 873.64 351.81 850.89 351.81"/><path class="cls-2" d="M909.82,253.77a117,117,0,0,1,4.77,22.85l4.77-17.86Z"/><polygon class="cls-1" points="978.1 267.04 989.39 297.68 1023.12 344.6 1035.12 351.85 1057.87 351.85 1073.52 344 1106.47 290.95 1134.53 239.34 1103.87 256.89 1079.26 242.94 1078.69 200.58 1056.44 179.2 1033.76 192.57 1019.8 234.66 994.09 259.11 976.68 243.32 978.1 267.04"/><path class="cls-2" d="M993.39,289.18,999,292s.23-24.79,7.39-43.12l-12.28,10.24-10.15-9.27C981.38,269.53,993.39,289.18,993.39,289.18Z"/><path class="cls-17" d="M999,292l20.84,12,14.66-19.83h28.34L1078,306l18.07-12.2,3.77-2.46s1.26-61.23-38.82-79.95a28.5,28.5,0,0,0-23.5-.36C998.14,228.39,999,292,999,292Z"/><polygon class="cls-1" points="1034.48 284.16 1048.59 275.69 1062.82 284.16 1034.48 284.16"/><polygon class="cls-2" points="1035.2 351.85 1020.45 309.1 1035.97 287.83 1048.59 279.93 1060.97 287.83 1077.3 310.41 1106.55 290.95 1073.6 344 1057.95 351.85 1035.2 351.85"/><path class="cls-2" d="M1094.13,253.82a116.82,116.82,0,0,1,4.77,22.85l4.77-17.87Z"/><polygon class="cls-1" points="878.16 311.77 889.45 342.41 923.18 389.33 935.18 396.58 957.93 396.58 973.58 388.73 1006.53 335.69 1034.59 284.07 1003.93 301.62 979.32 287.67 978.75 245.32 956.5 223.93 933.82 237.3 919.86 279.39 894.15 303.84 876.74 288.05 878.16 311.77"/><path class="cls-2" d="M893.45,333.92l5.59,2.8s.23-24.79,7.39-43.12l-12.28,10.24L884,294.57C881.44,314.27,893.45,333.92,893.45,333.92Z"/><path class="cls-18" d="M899,336.72l20.84,12,14.66-19.83h28.34L978,350.72l18.07-12.2,3.77-2.46s1.26-61.23-38.82-79.95a28.47,28.47,0,0,0-23.5-.35C898.2,273.12,899,336.72,899,336.72Z"/><polygon class="cls-1" points="934.54 328.89 948.65 320.43 962.88 328.89 934.54 328.89"/><polygon class="cls-2" points="935.26 396.58 920.51 353.83 936.03 332.56 948.65 324.66 961.03 332.56 977.36 355.14 1006.61 335.69 973.66 388.73 958.01 396.58 935.26 396.58"/><path class="cls-2" d="M994.19,298.55A116.82,116.82,0,0,1,999,321.4l4.77-17.86Z"/><path class="cls-19" d="M512.24,186.94h-7.83v-7.83a3.59,3.59,0,1,0-7.17,0v7.83h-7.83a3.59,3.59,0,0,0,0,7.17h7.83v7.83a3.59,3.59,0,0,0,7.17,0v-7.83h7.83a3.59,3.59,0,1,0,0-7.17Z"/></g></svg>