<svg xmlns="http://www.w3.org/2000/svg" xmlns:xlink="http://www.w3.org/1999/xlink" viewBox="0 0 1224.09 396.58"><defs><style>.cls-1{fill:#62abbc;}.cls-2{fill:#3d838e;opacity:0.51;}.cls-3{fill:url(#linear-gradient);}.cls-4{fill:url(#linear-gradient-2);}.cls-5{fill:url(#linear-gradient-3);}.cls-6{fill:url(#linear-gradient-4);}.cls-7{fill:url(#linear-gradient-5);}.cls-8{fill:url(#linear-gradient-6);}.cls-9{fill:url(#linear-gradient-7);}.cls-10{fill:url(#linear-gradient-8);}.cls-11{fill:url(#linear-gradient-9);}.cls-12{fill:url(#linear-gradient-10);}.cls-13{fill:url(#linear-gradient-11);}.cls-14{fill:url(#linear-gradient-12);}.cls-15{fill:url(#linear-gradient-13);}.cls-16{fill:url(#linear-gradient-14);}.cls-17{fill:url(#linear-gradient-15);}.cls-18{fill:url(#linear-gradient-16);}.cls-19{fill:url(#linear-gradient-17);}.cls-20{fill:url(#linear-gradient-18);}.cls-21{fill:#f05023;}</style><linearGradient id="linear-gradient" x1="750.98" y1="78.13" x2="851.82" y2="78.13" gradientUnits="userSpaceOnUse"><stop offset="0" stop-color="#fbb040"/><stop offset="0.39" stop-color="#f9ae41"/><stop offset="0.59" stop-color="#f1a845"/><stop offset="0.74" stop-color="#e49e4b"/><stop offset="0.87" stop-color="#d18f55"/><stop offset="0.99" stop-color="#b97c60"/><stop offset="1" stop-color="#b67a62"/></linearGradient><linearGradient id="linear-gradient-2" x1="835.49" y1="123.08" x2="936.33" y2="123.08" xlink:href="#linear-gradient"/><linearGradient id="linear-gradient-3" x1="651.04" y1="122.86" x2="751.88" y2="122.86" xlink:href="#linear-gradient"/><linearGradient id="linear-gradient-4" x1="735.55" y1="167.81" x2="836.39" y2="167.81" xlink:href="#linear-gradient"/><linearGradient id="linear-gradient-5" x1="919.85" y1="167.86" x2="1020.69" y2="167.86" xlink:href="#linear-gradient"/><linearGradient id="linear-gradient-6" x1="819.91" y1="212.59" x2="920.75" y2="212.59" xlink:href="#linear-gradient"/><linearGradient id="linear-gradient-7" x1="1004.18" y1="212.55" x2="1105.02" y2="212.55" xlink:href="#linear-gradient"/><linearGradient id="linear-gradient-8" x1="904.24" y1="257.28" x2="1005.08" y2="257.28" xlink:href="#linear-gradient"/><linearGradient id="linear-gradient-9" x1="1088.55" y1="257.33" x2="1189.39" y2="257.33" xlink:href="#linear-gradient"/><linearGradient id="linear-gradient-10" x1="988.61" y1="302.06" x2="1089.45" y2="302.06" xlink:href="#linear-gradient"/><linearGradient id="linear-gradient-11" x1="122.24" y1="100.52" x2="223.08" y2="100.52" xlink:href="#linear-gradient"/><linearGradient id="linear-gradient-12" x1="206.75" y1="145.47" x2="307.59" y2="145.47" xlink:href="#linear-gradient"/><linearGradient id="linear-gradient-13" x1="22.3" y1="145.25" x2="123.14" y2="145.25" xlink:href="#linear-gradient"/><linearGradient id="linear-gradient-14" x1="106.81" y1="190.2" x2="207.65" y2="190.2" xlink:href="#linear-gradient"/><linearGradient id="linear-gradient-15" x1="291.12" y1="190.25" x2="391.96" y2="190.25" xlink:href="#linear-gradient"/><linearGradient id="linear-gradient-16" x1="191.18" y1="234.98" x2="292.02" y2="234.98" xlink:href="#linear-gradient"/><linearGradient id="linear-gradient-17" x1="375.45" y1="234.94" x2="476.29" y2="234.94" xlink:href="#linear-gradient"/><linearGradient id="linear-gradient-18" x1="275.51" y1="279.67" x2="376.35" y2="279.67" xlink:href="#linear-gradient"/></defs><title>V6_R1</title><g id="Layer_2" data-name="Layer 2"><polygon class="cls-1" points="730.1 87.84 741.39 118.49 775.12 165.4 787.12 172.65 809.87 172.65 825.51 164.8 858.46 111.76 886.52 60.14 855.87 77.69 831.26 63.74 830.69 21.39 808.44 0 785.76 13.37 771.8 55.46 746.09 79.91 728.68 64.12 730.1 87.84"/><path class="cls-2" d="M745.39,110,751,112.8s.23-24.79,7.39-43.13L746.09,79.91l-10.15-9.27C733.38,90.34,745.39,110,745.39,110Z"/><path class="cls-3" d="M751,112.8l20.83,12L786.48,105h28.33L830,126.8l18.07-12.21,3.76-2.46S853.08,50.91,813,32.19a28.45,28.45,0,0,0-23.51-.36C750.14,49.19,751,112.8,751,112.8Z"/><polygon class="cls-1" points="786.48 104.96 800.59 96.5 814.81 104.96 786.48 104.96"/><polygon class="cls-2" points="787.2 172.65 772.45 129.9 787.97 108.64 800.59 100.73 812.97 108.64 829.3 131.22 858.55 111.76 825.6 164.8 809.95 172.65 787.2 172.65"/><path class="cls-2" d="M846.12,74.62a116.31,116.31,0,0,1,4.78,22.85l4.76-17.86Z"/><polygon class="cls-1" points="814.61 132.79 825.9 163.44 859.63 210.36 871.63 217.61 894.38 217.61 910.02 209.75 942.97 156.71 971.03 105.1 940.38 122.64 915.77 108.69 915.2 66.34 892.95 44.95 870.27 58.33 856.31 100.42 830.59 124.87 813.18 109.07 814.61 132.79"/><path class="cls-2" d="M829.9,154.94l5.59,2.81s.23-24.79,7.39-43.12l-12.29,10.24-10.14-9.27C817.89,135.29,829.9,154.94,829.9,154.94Z"/><path class="cls-4" d="M835.49,157.75l20.83,12L871,149.92h28.33l15.17,21.83,18.07-12.21,3.76-2.46s1.27-61.22-38.81-79.94A28.45,28.45,0,0,0,874,76.78C834.65,94.15,835.49,157.75,835.49,157.75Z"/><polygon class="cls-1" points="870.99 149.92 885.1 141.45 899.32 149.92 870.99 149.92"/><polygon class="cls-2" points="871.71 217.61 856.96 174.86 872.48 153.59 885.1 145.68 897.48 153.59 913.81 176.17 943.06 156.71 910.11 209.75 894.46 217.61 871.71 217.61"/><path class="cls-2" d="M930.63,119.58a116.31,116.31,0,0,1,4.78,22.85l4.76-17.87Z"/><polygon class="cls-1" points="630.16 132.57 641.45 163.22 675.18 210.14 687.18 217.39 709.93 217.39 725.57 209.53 758.52 156.49 786.59 104.87 755.93 122.42 731.32 108.47 730.75 66.12 708.5 44.73 685.82 58.1 671.86 100.19 646.15 124.64 628.74 108.85 630.16 132.57"/><path class="cls-2" d="M645.45,154.72l5.59,2.81s.23-24.79,7.39-43.13l-12.28,10.24L636,115.38C633.44,135.07,645.45,154.72,645.45,154.72Z"/><path class="cls-5" d="M651,157.53l20.83,12,14.67-19.84h28.33L730,171.53l18.07-12.21,3.76-2.46s1.27-61.22-38.81-79.94a28.45,28.45,0,0,0-23.51-.36C650.2,93.92,651,157.53,651,157.53Z"/><polygon class="cls-1" points="686.54 149.69 700.65 141.23 714.87 149.69 686.54 149.69"/><polygon class="cls-2" points="687.26 217.39 672.51 174.64 688.03 153.37 700.65 145.46 713.03 153.37 729.36 175.95 758.61 156.49 725.66 209.53 710.01 217.39 687.26 217.39"/><path class="cls-2" d="M746.18,119.35A116.54,116.54,0,0,1,751,142.2l4.76-17.86Z"/><polygon class="cls-1" points="714.67 177.53 725.96 208.17 759.68 255.09 771.68 262.34 794.43 262.34 810.08 254.48 843.03 201.44 871.09 149.83 840.43 167.37 815.83 153.43 815.26 111.07 793.01 89.69 770.33 103.06 756.37 145.15 730.65 169.6 713.25 153.81 714.67 177.53"/><path class="cls-2" d="M730,199.67l5.59,2.81s.23-24.79,7.39-43.12L730.65,169.6l-10.14-9.27C718,180,730,199.67,730,199.67Z"/><path class="cls-6" d="M735.55,202.48l20.83,12,14.67-19.83h28.33l15.17,21.83,18.07-12.21,3.76-2.46s1.27-61.22-38.81-79.94a28.45,28.45,0,0,0-23.51-.36C734.71,138.88,735.55,202.48,735.55,202.48Z"/><polygon class="cls-1" points="771.05 194.65 785.16 186.18 799.38 194.65 771.05 194.65"/><polygon class="cls-2" points="771.77 262.34 757.02 219.59 772.54 198.32 785.16 190.41 797.54 198.32 813.87 220.9 843.12 201.44 810.17 254.48 794.52 262.34 771.77 262.34"/><path class="cls-2" d="M830.69,164.31a116.31,116.31,0,0,1,4.78,22.85l4.76-17.87Z"/><polygon class="cls-1" points="898.98 177.57 910.27 208.22 943.99 255.13 955.99 262.38 978.74 262.38 994.39 254.53 1027.34 201.49 1055.4 149.87 1024.74 167.42 1000.13 153.47 999.57 111.12 977.32 89.73 954.63 103.1 940.67 145.19 914.96 169.64 897.55 153.85 898.98 177.57"/><path class="cls-2" d="M914.26,199.72l5.6,2.81s.22-24.8,7.39-43.13L915,169.64l-10.15-9.27C902.26,180.07,914.26,199.72,914.26,199.72Z"/><path class="cls-7" d="M919.86,202.53l20.83,12,14.67-19.84h28.33l15.17,21.84,18.06-12.21,3.77-2.46s1.27-61.22-38.82-79.94a28.43,28.43,0,0,0-23.5-.36C919,138.92,919.86,202.53,919.86,202.53Z"/><polygon class="cls-1" points="955.36 194.69 969.47 186.23 983.69 194.69 955.36 194.69"/><polygon class="cls-2" points="956.08 262.38 941.33 219.63 956.84 198.37 969.47 190.46 981.84 198.37 998.17 220.94 1027.42 201.49 994.47 254.53 978.83 262.38 956.08 262.38"/><path class="cls-2" d="M1015,164.35a116.82,116.82,0,0,1,4.77,22.85l4.77-17.86Z"/><polygon class="cls-1" points="799.04 222.3 810.33 252.95 844.05 299.87 856.05 307.12 878.8 307.12 894.45 299.26 927.4 246.22 955.46 194.6 924.8 212.15 900.19 198.2 899.63 155.85 877.38 134.46 854.69 147.84 840.73 189.92 815.02 214.37 797.61 198.58 799.04 222.3"/><path class="cls-2" d="M814.32,244.45l5.6,2.81s.22-24.79,7.39-43.13L815,214.37l-10.15-9.26C802.32,224.8,814.32,244.45,814.32,244.45Z"/><path class="cls-8" d="M819.92,247.26l20.83,12,14.67-19.84h28.33l15.17,21.84L917,249.05l3.77-2.46s1.27-61.22-38.82-79.94a28.43,28.43,0,0,0-23.5-.36C819.08,183.65,819.92,247.26,819.92,247.26Z"/><polygon class="cls-1" points="855.42 239.42 869.53 230.96 883.75 239.42 855.42 239.42"/><polygon class="cls-2" points="856.13 307.12 841.38 264.37 856.9 243.1 869.53 235.19 881.9 243.1 898.23 265.68 927.48 246.22 894.53 299.26 878.88 307.12 856.13 307.12"/><path class="cls-2" d="M915.06,209.08a116.82,116.82,0,0,1,4.77,22.85l4.77-17.86Z"/><polygon class="cls-1" points="983.31 222.26 994.6 252.91 1028.32 299.82 1040.32 307.07 1063.07 307.07 1078.72 299.22 1111.67 246.18 1139.73 194.56 1109.07 212.11 1084.46 198.16 1083.89 155.81 1061.64 134.42 1038.96 147.79 1025 189.88 999.29 214.33 981.88 198.54 983.31 222.26"/><path class="cls-2" d="M998.59,244.41l5.59,2.81s.23-24.79,7.4-43.13l-12.29,10.24-10.15-9.27C986.58,224.76,998.59,244.41,998.59,244.41Z"/><path class="cls-9" d="M1004.18,247.22l20.84,12,14.66-19.84H1068l15.16,21.84L1101.25,249l3.77-2.46s1.26-61.22-38.82-79.94a28.43,28.43,0,0,0-23.5-.36C1003.35,183.61,1004.18,247.22,1004.18,247.22Z"/><polygon class="cls-1" points="1039.68 239.38 1053.8 230.92 1068.02 239.38 1039.68 239.38"/><polygon class="cls-2" points="1040.4 307.07 1025.65 264.32 1041.17 243.06 1053.8 235.15 1066.17 243.06 1082.5 265.63 1111.75 246.18 1078.8 299.22 1063.15 307.07 1040.4 307.07"/><path class="cls-2" d="M1099.33,209a116.82,116.82,0,0,1,4.77,22.85l4.77-17.86Z"/><polygon class="cls-1" points="883.37 266.99 894.66 297.64 928.38 344.56 940.38 351.81 963.13 351.81 978.78 343.95 1011.73 290.91 1039.79 239.29 1009.13 256.84 984.52 242.89 983.95 200.54 961.7 179.15 939.02 192.53 925.06 234.61 899.35 259.06 881.94 243.27 883.37 266.99"/><path class="cls-2" d="M898.65,289.14l5.59,2.81s.23-24.79,7.4-43.13l-12.29,10.25L889.2,249.8C886.64,269.49,898.65,289.14,898.65,289.14Z"/><path class="cls-10" d="M904.24,292l20.84,12,14.66-19.84h28.34L983.24,306l18.07-12.21,3.77-2.46s1.26-61.22-38.82-79.94a28.43,28.43,0,0,0-23.5-.36C903.41,228.35,904.24,292,904.24,292Z"/><polygon class="cls-1" points="939.74 284.11 953.86 275.65 968.08 284.11 939.74 284.11"/><polygon class="cls-2" points="940.46 351.81 925.71 309.06 941.23 287.79 953.86 279.88 966.23 287.79 982.56 310.37 1011.81 290.91 978.86 343.95 963.21 351.81 940.46 351.81"/><path class="cls-2" d="M999.39,253.77a117,117,0,0,1,4.77,22.85l4.77-17.86Z"/><polygon class="cls-1" points="1067.67 267.04 1078.96 297.68 1112.69 344.6 1124.69 351.85 1147.44 351.85 1163.08 344 1196.03 290.95 1224.1 239.34 1193.44 256.89 1168.83 242.94 1168.26 200.58 1146.01 179.2 1123.33 192.57 1109.37 234.66 1083.65 259.11 1066.24 243.32 1067.67 267.04"/><path class="cls-2" d="M1083,289.18l5.59,2.81s.23-24.79,7.39-43.12l-12.28,10.24-10.15-9.27C1071,269.53,1083,289.18,1083,289.18Z"/><path class="cls-11" d="M1088.55,292l20.83,12,14.67-19.83h28.33L1167.55,306l18.07-12.2,3.76-2.46s1.27-61.23-38.81-79.95a28.53,28.53,0,0,0-23.51-.36C1087.71,228.39,1088.55,292,1088.55,292Z"/><polygon class="cls-1" points="1124.05 284.16 1138.16 275.69 1152.38 284.16 1124.05 284.16"/><polygon class="cls-2" points="1124.77 351.85 1110.02 309.1 1125.54 287.83 1138.16 279.93 1150.54 287.83 1166.87 310.41 1196.12 290.95 1163.17 344 1147.52 351.85 1124.77 351.85"/><path class="cls-2" d="M1183.69,253.82a116.31,116.31,0,0,1,4.78,22.85l4.76-17.87Z"/><polygon class="cls-1" points="967.73 311.77 979.02 342.41 1012.75 389.33 1024.75 396.58 1047.5 396.58 1063.14 388.73 1096.09 335.69 1124.15 284.07 1093.5 301.62 1068.89 287.67 1068.32 245.32 1046.07 223.93 1023.39 237.3 1009.43 279.39 983.72 303.84 966.31 288.05 967.73 311.77"/><path class="cls-2" d="M983,333.92l5.59,2.8s.23-24.79,7.39-43.12l-12.28,10.24-10.15-9.27C971,314.27,983,333.92,983,333.92Z"/><path class="cls-12" d="M988.61,336.72l20.83,12,14.67-19.83h28.33l15.17,21.83,18.07-12.2,3.76-2.46s1.27-61.23-38.81-79.95a28.49,28.49,0,0,0-23.51-.35C987.77,273.12,988.61,336.72,988.61,336.72Z"/><polygon class="cls-1" points="1024.11 328.89 1038.22 320.43 1052.44 328.89 1024.11 328.89"/><polygon class="cls-2" points="1024.83 396.58 1010.08 353.83 1025.6 332.56 1038.22 324.66 1050.6 332.56 1066.93 355.14 1096.18 335.69 1063.23 388.73 1047.58 396.58 1024.83 396.58"/><path class="cls-2" d="M1083.75,298.55a116.31,116.31,0,0,1,4.78,22.85l4.76-17.86Z"/><polygon class="cls-1" points="101.37 110.23 112.66 140.87 146.38 187.79 158.38 195.04 181.13 195.04 196.78 187.19 229.73 134.15 257.79 82.53 227.13 100.08 202.52 86.13 201.95 43.78 179.7 22.39 157.02 35.76 143.06 77.85 117.35 102.3 99.94 86.51 101.37 110.23"/><path class="cls-2" d="M116.65,132.38l5.59,2.8s.23-24.79,7.4-43.12L117.35,102.3,107.2,93C104.65,112.73,116.65,132.38,116.65,132.38Z"/><path class="cls-13" d="M122.24,135.18l20.84,12,14.66-19.83h28.34l15.16,21.83L219.31,137l3.77-2.46s1.26-61.23-38.82-80a28.47,28.47,0,0,0-23.5-.35C121.41,71.58,122.24,135.18,122.24,135.18Z"/><polygon class="cls-1" points="157.75 127.35 171.86 118.89 186.08 127.35 157.75 127.35"/><polygon class="cls-2" points="158.46 195.04 143.71 152.29 159.23 131.02 171.86 123.12 184.23 131.02 200.56 153.6 229.81 134.15 196.86 187.19 181.21 195.04 158.46 195.04"/><path class="cls-2" d="M217.39,97a116.82,116.82,0,0,1,4.77,22.85L226.93,102Z"/><polygon class="cls-1" points="185.88 155.18 197.16 185.83 230.89 232.75 242.89 240 265.64 240 281.29 232.14 314.24 179.1 342.3 127.48 311.64 145.03 287.03 131.08 286.46 88.73 264.21 67.34 241.53 80.72 227.57 122.8 201.86 147.25 184.45 131.46 185.88 155.18"/><path class="cls-2" d="M201.16,177.33l5.59,2.81s.23-24.79,7.4-43.13l-12.29,10.24L191.71,138C189.15,157.68,201.16,177.33,201.16,177.33Z"/><path class="cls-14" d="M206.75,180.14l20.84,12,14.66-19.84h28.34l15.16,21.84,18.07-12.21,3.77-2.46s1.26-61.22-38.82-79.94a28.43,28.43,0,0,0-23.5-.36C205.91,116.53,206.75,180.14,206.75,180.14Z"/><polygon class="cls-1" points="242.25 172.3 256.37 163.84 270.59 172.3 242.25 172.3"/><polygon class="cls-2" points="242.97 240 228.22 197.25 243.74 175.98 256.37 168.07 268.74 175.98 285.07 198.56 314.32 179.1 281.37 232.14 265.72 240 242.97 240"/><path class="cls-2" d="M301.9,142a117,117,0,0,1,4.77,22.85L311.44,147Z"/><polygon class="cls-1" points="1.43 154.96 12.72 185.6 46.44 232.52 58.44 239.77 81.19 239.77 96.84 231.92 129.79 178.88 157.85 127.26 127.19 144.81 102.58 130.86 102.01 88.51 79.76 67.12 57.08 80.49 43.12 122.58 17.41 147.03 0 131.24 1.43 154.96"/><path class="cls-2" d="M16.71,177.11l5.59,2.81s.23-24.8,7.4-43.13L17.41,147,7.26,137.76C4.71,157.46,16.71,177.11,16.71,177.11Z"/><path class="cls-15" d="M22.3,179.92l20.84,12L57.8,172.08H86.14l15.16,21.84,18.07-12.21,3.77-2.46S124.4,118,84.32,99.31A28.43,28.43,0,0,0,60.82,99C21.47,116.31,22.3,179.92,22.3,179.92Z"/><polygon class="cls-1" points="57.8 172.08 71.92 163.62 86.14 172.08 57.8 172.08"/><polygon class="cls-2" points="58.52 239.77 43.77 197.02 59.29 175.76 71.92 167.85 84.29 175.76 100.62 198.34 129.87 178.88 96.92 231.92 81.27 239.77 58.52 239.77"/><path class="cls-2" d="M117.45,141.74a116.82,116.82,0,0,1,4.77,22.85L127,146.73Z"/><polygon class="cls-1" points="85.94 199.91 97.22 230.56 130.95 277.48 142.95 284.73 165.7 284.73 181.35 276.87 214.3 223.83 242.36 172.22 211.7 189.76 187.09 175.81 186.52 133.46 164.27 112.07 141.59 125.45 127.63 167.53 101.92 191.99 84.51 176.19 85.94 199.91"/><path class="cls-2" d="M101.22,222.06l5.59,2.81s.23-24.79,7.4-43.13L101.92,192l-10.15-9.27C89.21,202.41,101.22,222.06,101.22,222.06Z"/><path class="cls-16" d="M106.81,224.87l20.84,12L142.31,217h28.34l15.16,21.83,18.07-12.21,3.77-2.46s1.26-61.22-38.82-79.94a28.43,28.43,0,0,0-23.5-.36C106,161.27,106.81,224.87,106.81,224.87Z"/><polygon class="cls-1" points="142.31 217.03 156.43 208.57 170.65 217.03 142.31 217.03"/><polygon class="cls-2" points="143.03 284.73 128.28 241.98 143.8 220.71 156.43 212.8 168.8 220.71 185.13 243.29 214.38 223.83 181.43 276.87 165.78 284.73 143.03 284.73"/><path class="cls-2" d="M202,186.7a116.82,116.82,0,0,1,4.77,22.85l4.77-17.87Z"/><polygon class="cls-1" points="270.24 199.96 281.53 230.6 315.25 277.52 327.25 284.77 350 284.77 365.65 276.92 398.6 223.87 426.66 172.26 396 189.81 371.4 175.86 370.83 133.5 348.58 112.12 325.9 125.49 311.94 167.58 286.23 192.03 268.81 176.24 270.24 199.96"/><path class="cls-2" d="M285.53,222.11l5.59,2.8s.23-24.79,7.39-43.12L286.22,192l-10.14-9.27C273.52,202.46,285.53,222.11,285.53,222.11Z"/><path class="cls-17" d="M291.12,224.91l20.83,12,14.67-19.83H355l15.17,21.83,18.07-12.2,3.76-2.46s1.27-61.23-38.81-79.95a28.49,28.49,0,0,0-23.51-.35C290.28,161.31,291.12,224.91,291.12,224.91Z"/><polygon class="cls-1" points="326.62 217.08 340.73 208.62 354.95 217.08 326.62 217.08"/><polygon class="cls-2" points="327.34 284.77 312.59 242.02 328.11 220.75 340.73 212.85 353.11 220.75 369.44 243.33 398.69 223.87 365.74 276.92 350.09 284.77 327.34 284.77"/><path class="cls-2" d="M386.26,186.74A116.31,116.31,0,0,1,391,209.59l4.76-17.86Z"/><polygon class="cls-1" points="170.3 244.69 181.59 275.33 215.32 322.25 227.32 329.5 250.06 329.5 265.71 321.65 298.66 268.61 326.73 216.99 296.07 234.54 271.46 220.59 270.89 178.24 248.64 156.85 225.96 170.22 212 212.31 186.28 236.76 168.88 220.97 170.3 244.69"/><path class="cls-2" d="M185.59,266.84l5.59,2.8s.23-24.79,7.39-43.12l-12.29,10.24-10.14-9.27C173.58,247.19,185.59,266.84,185.59,266.84Z"/><path class="cls-18" d="M191.18,269.64l20.83,12,14.67-19.83H255l15.17,21.83,18.07-12.2L292,269s1.27-61.22-38.81-79.94a28.45,28.45,0,0,0-23.51-.36C190.34,206,191.18,269.64,191.18,269.64Z"/><polygon class="cls-1" points="226.68 261.81 240.79 253.35 255.01 261.81 226.68 261.81"/><polygon class="cls-2" points="227.4 329.5 212.65 286.75 228.17 265.49 240.79 257.58 253.17 265.49 269.5 288.06 298.75 268.61 265.8 321.65 250.15 329.5 227.4 329.5"/><path class="cls-2" d="M286.32,231.47a116.31,116.31,0,0,1,4.78,22.85l4.76-17.86Z"/><polygon class="cls-1" points="354.57 244.65 365.86 275.3 399.58 322.21 411.58 329.46 434.33 329.46 449.98 321.61 482.93 268.56 510.99 216.95 480.33 234.5 455.73 220.55 455.16 178.2 432.91 156.81 410.23 170.18 396.26 212.27 370.55 236.72 353.14 220.93 354.57 244.65"/><path class="cls-2" d="M369.86,266.8l5.59,2.8s.22-24.79,7.39-43.12l-12.29,10.24-10.15-9.27C357.85,247.15,369.86,266.8,369.86,266.8Z"/><path class="cls-19" d="M375.45,269.6l20.83,12L411,261.77h28.33l15.17,21.83,18.06-12.2,3.77-2.46s1.27-61.23-38.81-79.95a28.49,28.49,0,0,0-23.51-.35C374.61,206,375.45,269.6,375.45,269.6Z"/><polygon class="cls-1" points="410.95 261.77 425.06 253.31 439.28 261.77 410.95 261.77"/><polygon class="cls-2" points="411.67 329.46 396.92 286.71 412.44 265.44 425.06 257.54 437.44 265.44 453.76 288.02 483.01 268.56 450.06 321.61 434.42 329.46 411.67 329.46"/><path class="cls-2" d="M470.59,231.43a117.21,117.21,0,0,1,4.78,22.85l4.76-17.86Z"/><polygon class="cls-1" points="254.63 289.38 265.92 320.03 299.64 366.94 311.64 374.19 334.39 374.19 350.04 366.34 382.99 313.3 411.05 261.68 380.39 279.23 355.79 265.28 355.22 222.93 332.97 201.54 310.29 214.91 296.32 257 270.61 281.45 253.2 265.66 254.63 289.38"/><path class="cls-2" d="M269.92,311.53l5.59,2.81s.22-24.79,7.39-43.13l-12.29,10.24-10.15-9.27C257.91,291.88,269.92,311.53,269.92,311.53Z"/><path class="cls-20" d="M275.51,314.34l20.83,12L311,306.5h28.33l15.17,21.84,18.07-12.21,3.76-2.46s1.27-61.22-38.81-79.94a28.45,28.45,0,0,0-23.51-.36C274.67,250.73,275.51,314.34,275.51,314.34Z"/><polygon class="cls-1" points="311.01 306.5 325.12 298.04 339.34 306.5 311.01 306.5"/><polygon class="cls-2" points="311.73 374.19 296.98 331.44 312.5 310.18 325.12 302.27 337.5 310.18 353.82 332.75 383.07 313.3 350.13 366.34 334.48 374.19 311.73 374.19"/><path class="cls-2" d="M370.65,276.16A116.31,116.31,0,0,1,375.43,299l4.76-17.86Z"/><path class="cls-21" d="M597.82,186.94H590v-7.83a3.59,3.59,0,1,0-7.17,0v7.83H575a3.59,3.59,0,0,0,0,7.17h7.83v7.83a3.59,3.59,0,0,0,7.17,0v-7.83h7.83a3.59,3.59,0,1,0,0-7.17Z"/></g></svg>