<svg xmlns="http://www.w3.org/2000/svg" xmlns:xlink="http://www.w3.org/1999/xlink" viewBox="0 0 1045.74 351.66"><defs><style>.cls-1{fill:#62abbc;}.cls-2{fill:#3d838e;opacity:0.51;}.cls-3{fill:url(#linear-gradient);}.cls-4{fill:url(#linear-gradient-2);}.cls-5{fill:url(#linear-gradient-3);}.cls-6{fill:url(#linear-gradient-4);}.cls-7{fill:url(#linear-gradient-5);}.cls-8{fill:url(#linear-gradient-6);}.cls-9{fill:url(#linear-gradient-7);}.cls-10{fill:url(#linear-gradient-8);}.cls-11{fill:url(#linear-gradient-9);}.cls-12{fill:#f05023;}</style><linearGradient id="linear-gradient" x1="22.3" y1="100.5" x2="123.14" y2="100.5" gradientUnits="userSpaceOnUse"><stop offset="0" stop-color="#fbb040"/><stop offset="0.39" stop-color="#f9ae41"/><stop offset="0.59" stop-color="#f1a845"/><stop offset="0.74" stop-color="#e49e4b"/><stop offset="0.87" stop-color="#d18f55"/><stop offset="0.99" stop-color="#b97c60"/><stop offset="1" stop-color="#b67a62"/></linearGradient><linearGradient id="linear-gradient-2" x1="106.81" y1="145.46" x2="207.65" y2="145.46" xlink:href="#linear-gradient"/><linearGradient id="linear-gradient-3" x1="191.18" y1="190.23" x2="292.02" y2="190.23" xlink:href="#linear-gradient"/><linearGradient id="linear-gradient-4" x1="275.48" y1="234.76" x2="376.31" y2="234.76" xlink:href="#linear-gradient"/><linearGradient id="linear-gradient-5" x1="572.58" y1="78.13" x2="673.42" y2="78.13" xlink:href="#linear-gradient"/><linearGradient id="linear-gradient-6" x1="657.09" y1="123.08" x2="757.93" y2="123.08" xlink:href="#linear-gradient"/><linearGradient id="linear-gradient-7" x1="741.46" y1="167.86" x2="842.3" y2="167.86" xlink:href="#linear-gradient"/><linearGradient id="linear-gradient-8" x1="825.75" y1="212.39" x2="926.59" y2="212.39" xlink:href="#linear-gradient"/><linearGradient id="linear-gradient-9" x1="910.19" y1="257.13" x2="1011.03" y2="257.13" xlink:href="#linear-gradient"/></defs><title>V6_R3</title><g id="Layer_2" data-name="Layer 2"><polygon class="cls-1" points="1.43 110.22 12.72 140.86 46.44 187.78 58.44 195.03 81.19 195.03 96.84 187.17 129.79 134.13 157.85 82.52 127.19 100.06 102.58 86.11 102.01 43.76 79.76 22.37 57.08 35.75 43.12 77.83 17.41 102.29 0 86.49 1.43 110.22"/><path class="cls-2" d="M16.71,132.36l5.59,2.81s.23-24.79,7.4-43.13L17.41,102.29,7.26,93C4.71,112.71,16.71,132.36,16.71,132.36Z"/><path class="cls-3" d="M22.3,135.17l20.84,12L57.8,127.34H86.14l15.16,21.83L119.37,137l3.77-2.46s1.26-61.22-38.82-79.94a28.43,28.43,0,0,0-23.5-.36C21.47,71.57,22.3,135.17,22.3,135.17Z"/><polygon class="cls-1" points="57.8 127.33 71.92 118.87 86.14 127.33 57.8 127.33"/><polygon class="cls-2" points="58.52 195.03 43.77 152.28 59.29 131.01 71.92 123.1 84.29 131.01 100.62 153.59 129.87 134.13 96.92 187.17 81.27 195.03 58.52 195.03"/><path class="cls-2" d="M117.45,97a116.82,116.82,0,0,1,4.77,22.85L127,102Z"/><polygon class="cls-1" points="85.94 155.17 97.22 185.81 130.95 232.73 142.95 239.98 165.7 239.98 181.35 232.13 214.3 179.08 242.36 127.47 211.7 145.01 187.09 131.07 186.52 88.71 164.27 67.33 141.59 80.7 127.63 122.79 101.92 147.24 84.51 131.45 85.94 155.17"/><path class="cls-2" d="M101.22,177.31l5.59,2.81s.23-24.79,7.4-43.12l-12.29,10.24L91.77,138C89.21,157.66,101.22,177.31,101.22,177.31Z"/><path class="cls-4" d="M106.81,180.12l20.84,12,14.66-19.83h28.34l15.16,21.83,18.07-12.2,3.77-2.46s1.26-61.23-38.82-79.95a28.5,28.5,0,0,0-23.5-.36C106,116.52,106.81,180.12,106.81,180.12Z"/><polygon class="cls-1" points="142.31 172.29 156.43 163.82 170.65 172.29 142.31 172.29"/><polygon class="cls-2" points="143.03 239.98 128.28 197.23 143.8 175.96 156.43 168.06 168.8 175.96 185.13 198.54 214.38 179.08 181.43 232.13 165.78 239.98 143.03 239.98"/><path class="cls-2" d="M202,142a116.82,116.82,0,0,1,4.77,22.85l4.77-17.87Z"/><polygon class="cls-1" points="170.3 199.94 181.59 230.59 215.32 277.51 227.32 284.76 250.06 284.76 265.71 276.9 298.66 223.86 326.73 172.25 296.07 189.79 271.46 175.84 270.89 133.49 248.64 112.1 225.96 125.48 212 167.56 186.28 192.02 168.88 176.22 170.3 199.94"/><path class="cls-2" d="M185.59,222.09l5.59,2.81s.23-24.79,7.39-43.13L186.28,192l-10.14-9.27C173.58,202.44,185.59,222.09,185.59,222.09Z"/><path class="cls-5" d="M191.18,224.9l20.83,12,14.67-19.84H255l15.17,21.84,18.07-12.21,3.76-2.46s1.27-61.22-38.81-79.94a28.45,28.45,0,0,0-23.51-.36C190.34,161.3,191.18,224.9,191.18,224.9Z"/><polygon class="cls-1" points="226.68 217.06 240.79 208.6 255.01 217.06 226.68 217.06"/><polygon class="cls-2" points="227.4 284.76 212.65 242.01 228.17 220.74 240.79 212.83 253.17 220.74 269.5 243.32 298.75 223.86 265.8 276.9 250.15 284.76 227.4 284.76"/><path class="cls-2" d="M286.32,186.72a116.54,116.54,0,0,1,4.78,22.86l4.76-17.87Z"/><polygon class="cls-1" points="254.6 244.47 265.89 275.12 299.61 322.04 311.61 329.29 334.36 329.29 350.01 321.43 382.96 268.39 411.02 216.77 380.36 234.32 355.75 220.37 355.19 178.02 332.94 156.63 310.25 170 296.29 212.09 270.58 236.54 253.17 220.75 254.6 244.47"/><path class="cls-2" d="M269.89,266.62l5.59,2.81s.22-24.79,7.39-43.13l-12.29,10.24-10.15-9.26C257.88,247,269.89,266.62,269.89,266.62Z"/><path class="cls-6" d="M275.48,269.43l20.83,12L311,261.59h28.33l15.17,21.84,18.06-12.21,3.77-2.46s1.27-61.22-38.82-79.94a28.43,28.43,0,0,0-23.5-.36C274.64,205.82,275.48,269.43,275.48,269.43Z"/><polygon class="cls-1" points="310.98 261.59 325.09 253.13 339.31 261.59 310.98 261.59"/><polygon class="cls-2" points="311.7 329.29 296.94 286.54 312.46 265.27 325.09 257.36 337.46 265.27 353.79 287.85 383.04 268.39 350.09 321.43 334.44 329.29 311.7 329.29"/><path class="cls-2" d="M370.62,231.25a116.82,116.82,0,0,1,4.77,22.85l4.77-17.86Z"/><polygon class="cls-1" points="551.7 87.84 562.99 118.49 596.72 165.4 608.72 172.65 631.47 172.65 647.12 164.8 680.07 111.76 708.13 60.14 677.47 77.69 652.86 63.74 652.29 21.39 630.04 0 607.36 13.37 593.4 55.46 567.69 79.91 550.28 64.12 551.7 87.84"/><path class="cls-2" d="M567,110l5.59,2.81S572.81,88,580,69.67L567.69,79.91l-10.15-9.27C555,90.34,567,110,567,110Z"/><path class="cls-7" d="M572.58,112.8l20.84,12L608.08,105h28.34l15.16,21.84,18.07-12.21,3.77-2.46s1.26-61.22-38.82-79.94a28.43,28.43,0,0,0-23.5-.36C571.74,49.19,572.58,112.8,572.58,112.8Z"/><polygon class="cls-1" points="608.08 104.96 622.19 96.5 636.41 104.96 608.08 104.96"/><polygon class="cls-2" points="608.8 172.65 594.05 129.9 609.57 108.64 622.19 100.73 634.57 108.64 650.9 131.22 680.15 111.76 647.2 164.8 631.55 172.65 608.8 172.65"/><path class="cls-2" d="M667.73,74.62a116.82,116.82,0,0,1,4.77,22.85l4.77-17.86Z"/><polygon class="cls-1" points="636.21 132.79 647.5 163.44 681.23 210.36 693.23 217.61 715.98 217.61 731.62 209.75 764.58 156.71 792.64 105.1 761.98 122.64 737.37 108.69 736.8 66.34 714.55 44.95 691.87 58.33 677.91 100.42 652.2 124.87 634.79 109.07 636.21 132.79"/><path class="cls-2" d="M651.5,154.94l5.59,2.81s.23-24.79,7.39-43.12L652.2,124.87l-10.15-9.27C639.49,135.29,651.5,154.94,651.5,154.94Z"/><path class="cls-8" d="M657.09,157.75l20.83,12,14.67-19.83h28.33l15.17,21.83,18.07-12.21,3.76-2.46s1.27-61.22-38.81-79.94a28.45,28.45,0,0,0-23.51-.36C656.25,94.15,657.09,157.75,657.09,157.75Z"/><polygon class="cls-1" points="692.59 149.92 706.7 141.45 720.92 149.92 692.59 149.92"/><polygon class="cls-2" points="693.31 217.61 678.56 174.86 694.08 153.59 706.7 145.68 719.08 153.59 735.41 176.17 764.66 156.71 731.71 209.75 716.06 217.61 693.31 217.61"/><path class="cls-2" d="M752.23,119.58A116.31,116.31,0,0,1,757,142.43l4.76-17.87Z"/><polygon class="cls-1" points="720.58 177.57 731.87 208.22 765.59 255.13 777.59 262.38 800.34 262.38 815.99 254.53 848.94 201.49 877 149.87 846.34 167.42 821.74 153.47 821.17 111.12 798.92 89.73 776.24 103.1 762.27 145.19 736.56 169.64 719.15 153.85 720.58 177.57"/><path class="cls-2" d="M735.87,199.72l5.59,2.81s.22-24.8,7.39-43.13l-12.29,10.24-10.15-9.27C723.86,180.07,735.87,199.72,735.87,199.72Z"/><path class="cls-9" d="M741.46,202.53l20.83,12L777,194.69h28.33l15.17,21.84,18.06-12.21,3.77-2.46s1.27-61.22-38.82-79.94a28.43,28.43,0,0,0-23.5-.36C740.62,138.92,741.46,202.53,741.46,202.53Z"/><polygon class="cls-1" points="776.96 194.69 791.07 186.23 805.29 194.69 776.96 194.69"/><polygon class="cls-2" points="777.68 262.38 762.93 219.63 778.45 198.37 791.07 190.46 803.45 198.37 819.77 220.94 849.02 201.49 816.07 254.53 800.43 262.38 777.68 262.38"/><path class="cls-2" d="M836.6,164.35a116.82,116.82,0,0,1,4.77,22.85l4.77-17.86Z"/><polygon class="cls-1" points="804.88 222.1 816.16 252.74 849.89 299.66 861.89 306.91 884.64 306.91 900.29 299.06 933.24 246.01 961.3 194.4 930.64 211.95 906.03 198 905.46 155.65 883.21 134.26 860.53 147.63 846.57 189.72 820.86 214.17 803.45 198.38 804.88 222.1"/><path class="cls-2" d="M820.16,244.25l5.59,2.8s.23-24.79,7.4-43.12l-12.29,10.24-10.15-9.27C808.15,224.6,820.16,244.25,820.16,244.25Z"/><path class="cls-10" d="M825.75,247.05l20.84,12,14.66-19.83h28.34l15.16,21.83,18.07-12.2,3.77-2.46s1.26-61.23-38.82-79.95a28.47,28.47,0,0,0-23.5-.35C824.92,183.45,825.75,247.05,825.75,247.05Z"/><polygon class="cls-1" points="861.25 239.22 875.37 230.75 889.59 239.22 861.25 239.22"/><polygon class="cls-2" points="861.97 306.91 847.22 264.16 862.74 242.89 875.37 234.99 887.74 242.89 904.07 265.47 933.32 246.01 900.37 299.06 884.72 306.91 861.97 306.91"/><path class="cls-2" d="M920.9,208.88a116.82,116.82,0,0,1,4.77,22.85l4.77-17.86Z"/><polygon class="cls-1" points="889.31 266.85 900.6 297.49 934.33 344.41 946.33 351.66 969.08 351.66 984.73 343.8 1017.67 290.76 1045.74 239.15 1015.08 256.69 990.47 242.74 989.9 200.39 967.65 179 944.97 192.38 931.01 234.47 905.3 258.92 887.89 243.13 889.31 266.85"/><path class="cls-2" d="M904.6,289l5.59,2.81s.23-24.79,7.39-43.12L905.3,258.92l-10.15-9.27C892.59,269.34,904.6,289,904.6,289Z"/><path class="cls-11" d="M910.19,291.8l20.83,12L945.69,284H974l15.17,21.83,18.07-12.21,3.76-2.46s1.27-61.22-38.81-79.94a28.43,28.43,0,0,0-23.5-.36C909.35,228.2,910.19,291.8,910.19,291.8Z"/><polygon class="cls-1" points="945.69 283.97 959.8 275.5 974.02 283.97 945.69 283.97"/><polygon class="cls-2" points="946.41 351.66 931.66 308.91 947.18 287.64 959.8 279.73 972.18 287.64 988.51 310.22 1017.76 290.76 984.81 343.8 969.16 351.66 946.41 351.66"/><path class="cls-2" d="M1005.34,253.63a116.82,116.82,0,0,1,4.77,22.85l4.76-17.87Z"/><path class="cls-12" d="M512.24,186.94h-7.83v-7.83a3.59,3.59,0,1,0-7.17,0v7.83h-7.83a3.59,3.59,0,0,0,0,7.17h7.83v7.83a3.59,3.59,0,0,0,7.17,0v-7.83h7.83a3.59,3.59,0,1,0,0-7.17Z"/></g></svg>