<svg xmlns="http://www.w3.org/2000/svg" viewBox="0 0 300 89.48"><defs><style>.cls-1{fill:#f68221;}.cls-2{fill:#ffde01;}.cls-3{fill:#be2426;}.cls-4,.cls-5{font-size:11px;font-family:OpenSans, Open Sans;}.cls-4{fill:#f68220;}.cls-5{fill:#fff;}</style></defs><title>5</title><g id="Capa_2" data-name="Capa 2"><g id="Capa_1-2" data-name="Capa 1"><rect class="cls-1" width="300" height="45.19" rx="12.45"/><path class="cls-2" d="M10.27,45.19H150a0,0,0,0,1,0,0v34a10.27,10.27,0,0,1-10.27,10.27H10.27A10.27,10.27,0,0,1,0,79.2V55.46A10.27,10.27,0,0,1,10.27,45.19Z"/><path class="cls-3" d="M158.11,89.48H291.89c4.48,0,8.11-4.49,8.11-10V55.2c0-5.53-3.63-10-8.11-10H150V79.46C150,85,153.63,89.48,158.11,89.48Z"/><text class="cls-4" transform="translate(42.23 70.3)">9 cuadernos</text><text class="cls-5" transform="translate(196.41 71.35)">3 cuadernos</text><text class="cls-5" transform="translate(100 25.68)">Total de Cuadernos</text></g></g></svg>