<svg id="Layer_1" data-name="Layer 1" xmlns="http://www.w3.org/2000/svg" viewBox="0 0 4861.86 800"><defs><style>.cls-1{fill:#f05023;}</style></defs><title>e_1</title><circle class="cls-1" cx="346.69" cy="737.79" r="62.21"/><circle class="cls-1" cx="1099.13" cy="737.79" r="62.21"/><circle class="cls-1" cx="1234.25" cy="737.79" r="62.21"/><circle class="cls-1" cx="1166.69" cy="602.67" r="62.21"/><circle class="cls-1" cx="3356.46" cy="737.79" r="62.21"/><circle class="cls-1" cx="3491.57" cy="737.79" r="62.21"/><circle class="cls-1" cx="3626.69" cy="737.79" r="62.21"/><circle class="cls-1" cx="3761.8" cy="737.79" r="62.21"/><circle class="cls-1" cx="3896.92" cy="737.79" r="62.21"/><circle class="cls-1" cx="3424.02" cy="602.67" r="62.21"/><circle class="cls-1" cx="3559.13" cy="602.67" r="62.21"/><circle class="cls-1" cx="3694.25" cy="602.67" r="62.21"/><circle class="cls-1" cx="3829.36" cy="602.67" r="62.21"/><circle class="cls-1" cx="3491.57" cy="467.56" r="62.21"/><circle class="cls-1" cx="3626.69" cy="467.56" r="62.21"/><circle class="cls-1" cx="3761.8" cy="467.56" r="62.21"/><circle class="cls-1" cx="3559.13" cy="332.44" r="62.21"/><circle class="cls-1" cx="3694.25" cy="332.44" r="62.21"/><circle class="cls-1" cx="3626.69" cy="197.33" r="62.21"/><circle class="cls-1" cx="2604.02" cy="737.79" r="62.21"/><circle class="cls-1" cx="2739.13" cy="737.79" r="62.21"/><circle class="cls-1" cx="2874.25" cy="737.79" r="62.21"/><circle class="cls-1" cx="3009.36" cy="737.79" r="62.21"/><circle class="cls-1" cx="2671.57" cy="602.67" r="62.21"/><circle class="cls-1" cx="2806.69" cy="602.67" r="62.21"/><circle class="cls-1" cx="2941.8" cy="602.67" r="62.21"/><circle class="cls-1" cx="2739.13" cy="467.56" r="62.21"/><circle class="cls-1" cx="2874.25" cy="467.56" r="62.21"/><circle class="cls-1" cx="2806.69" cy="332.44" r="62.21"/><circle class="cls-1" cx="4108.9" cy="737.79" r="62.21"/><circle class="cls-1" cx="4244.02" cy="737.79" r="62.21"/><circle class="cls-1" cx="4379.13" cy="737.79" r="62.21"/><circle class="cls-1" cx="4514.25" cy="737.79" r="62.21"/><circle class="cls-1" cx="4649.36" cy="737.79" r="62.21"/><circle class="cls-1" cx="4784.47" cy="737.79" r="62.21"/><circle class="cls-1" cx="4176.46" cy="602.67" r="62.21"/><circle class="cls-1" cx="4311.57" cy="602.67" r="62.21"/><circle class="cls-1" cx="4446.69" cy="602.67" r="62.21"/><circle class="cls-1" cx="4581.8" cy="602.67" r="62.21"/><circle class="cls-1" cx="4716.92" cy="602.67" r="62.21"/><circle class="cls-1" cx="4244.02" cy="467.56" r="62.21"/><circle class="cls-1" cx="4379.13" cy="467.56" r="62.21"/><circle class="cls-1" cx="4514.25" cy="467.56" r="62.21"/><circle class="cls-1" cx="4649.36" cy="467.56" r="62.21"/><circle class="cls-1" cx="4311.57" cy="332.44" r="62.21"/><circle class="cls-1" cx="4446.69" cy="332.44" r="62.21"/><circle class="cls-1" cx="4581.8" cy="332.44" r="62.21"/><circle class="cls-1" cx="4379.13" cy="197.33" r="62.21"/><circle class="cls-1" cx="4514.25" cy="197.33" r="62.21"/><circle class="cls-1" cx="4446.69" cy="62.21" r="62.21"/><path class="cls-1" d="M2213.21,333a2,2,0,0,1,2,2V788a2,2,0,0,1-2,2h-453a2,2,0,0,1-2-2V335a2,2,0,0,1,2-2h453.05m0-10h-453a12,12,0,0,0-12,12V788a12,12,0,0,0,12,12h453.05a12,12,0,0,0,12-12V335a12,12,0,0,0-12-12Z"/></svg>