<svg id="Layer_1" data-name="Layer 1" xmlns="http://www.w3.org/2000/svg" viewBox="0 0 4861.86 800"><defs><style>.cls-1{fill:#f05023;}</style></defs><title>e_2</title><circle class="cls-1" cx="343.65" cy="737.79" r="62.21"/><circle class="cls-1" cx="1096.09" cy="737.79" r="62.21"/><circle class="cls-1" cx="1231.21" cy="737.79" r="62.21"/><circle class="cls-1" cx="1163.65" cy="602.67" r="62.21"/><circle class="cls-1" cx="1901.85" cy="737.79" r="62.21"/><circle class="cls-1" cx="2036.96" cy="737.79" r="62.21"/><circle class="cls-1" cx="2172.08" cy="737.79" r="62.21"/><circle class="cls-1" cx="1969.4" cy="602.67" r="62.21"/><circle class="cls-1" cx="2104.52" cy="602.67" r="62.21"/><circle class="cls-1" cx="2036.96" cy="467.56" r="62.21"/><circle class="cls-1" cx="3353.42" cy="737.79" r="62.21"/><circle class="cls-1" cx="3488.54" cy="737.79" r="62.21"/><circle class="cls-1" cx="3623.65" cy="737.79" r="62.21"/><circle class="cls-1" cx="3758.76" cy="737.79" r="62.21"/><circle class="cls-1" cx="3893.88" cy="737.79" r="62.21"/><circle class="cls-1" cx="3420.98" cy="602.67" r="62.21"/><circle class="cls-1" cx="3556.09" cy="602.67" r="62.21"/><circle class="cls-1" cx="3691.21" cy="602.67" r="62.21"/><circle class="cls-1" cx="3826.32" cy="602.67" r="62.21"/><circle class="cls-1" cx="3488.54" cy="467.56" r="62.21"/><circle class="cls-1" cx="3623.65" cy="467.56" r="62.21"/><circle class="cls-1" cx="3758.76" cy="467.56" r="62.21"/><circle class="cls-1" cx="3556.09" cy="332.44" r="62.21"/><circle class="cls-1" cx="3691.21" cy="332.44" r="62.21"/><circle class="cls-1" cx="3623.65" cy="197.33" r="62.21"/><circle class="cls-1" cx="4105.86" cy="737.79" r="62.21"/><circle class="cls-1" cx="4240.98" cy="737.79" r="62.21"/><circle class="cls-1" cx="4376.09" cy="737.79" r="62.21"/><circle class="cls-1" cx="4511.21" cy="737.79" r="62.21"/><circle class="cls-1" cx="4646.32" cy="737.79" r="62.21"/><circle class="cls-1" cx="4781.43" cy="737.79" r="62.21"/><circle class="cls-1" cx="4173.42" cy="602.67" r="62.21"/><circle class="cls-1" cx="4308.54" cy="602.67" r="62.21"/><circle class="cls-1" cx="4443.65" cy="602.67" r="62.21"/><circle class="cls-1" cx="4578.76" cy="602.67" r="62.21"/><circle class="cls-1" cx="4713.88" cy="602.67" r="62.21"/><circle class="cls-1" cx="4240.98" cy="467.56" r="62.21"/><circle class="cls-1" cx="4376.09" cy="467.56" r="62.21"/><circle class="cls-1" cx="4511.21" cy="467.56" r="62.21"/><circle class="cls-1" cx="4646.32" cy="467.56" r="62.21"/><circle class="cls-1" cx="4308.54" cy="332.44" r="62.21"/><circle class="cls-1" cx="4443.65" cy="332.44" r="62.21"/><circle class="cls-1" cx="4578.76" cy="332.44" r="62.21"/><circle class="cls-1" cx="4376.09" cy="197.33" r="62.21"/><circle class="cls-1" cx="4511.21" cy="197.33" r="62.21"/><circle class="cls-1" cx="4443.65" cy="62.21" r="62.21"/><path class="cls-1" d="M3084,333a2,2,0,0,1,2,2V788a2,2,0,0,1-2,2h-453a2,2,0,0,1-2-2V335a2,2,0,0,1,2-2h453m0-10h-453a12,12,0,0,0-12,12V788a12,12,0,0,0,12,12h453a12,12,0,0,0,12-12V335a12,12,0,0,0-12-12Z"/></svg>