<svg id="Layer_1" data-name="Layer 1" xmlns="http://www.w3.org/2000/svg" viewBox="0 0 1493.61 529.77"><defs><style>.cls-1{fill:#ffcb08;}.cls-2{fill:#f05023;}</style></defs><title>f_2</title><polygon class="cls-1" points="752.78 442.18 885.22 365.71 752.78 289.25 752.78 331.73 488.8 331.73 488.8 399.69 752.78 399.69 752.78 442.18"/><circle class="cls-2" cx="62.21" cy="467.56" r="62.21"/><circle class="cls-2" cx="197.33" cy="467.56" r="62.21"/><circle class="cls-2" cx="332.44" cy="467.56" r="62.21"/><circle class="cls-2" cx="129.77" cy="332.44" r="62.21"/><circle class="cls-2" cx="264.89" cy="332.44" r="62.21"/><circle class="cls-2" cx="197.33" cy="197.33" r="62.21"/><circle class="cls-2" cx="1026.1" cy="467.56" r="62.21"/><circle class="cls-2" cx="1161.22" cy="467.56" r="62.21"/><circle class="cls-2" cx="1296.33" cy="467.56" r="62.21"/><circle class="cls-2" cx="1431.44" cy="467.56" r="62.21"/><circle class="cls-2" cx="1093.66" cy="332.44" r="62.21"/><circle class="cls-2" cx="1228.77" cy="332.44" r="62.21"/><circle class="cls-2" cx="1363.89" cy="332.44" r="62.21"/><circle class="cls-2" cx="1161.22" cy="197.33" r="62.21"/><circle class="cls-2" cx="1296.33" cy="197.33" r="62.21"/><circle class="cls-2" cx="1228.77" cy="62.21" r="62.21"/></svg>