<svg id="Layer_1" data-name="Layer 1" xmlns="http://www.w3.org/2000/svg" viewBox="0 0 1747.86 664.89"><defs><style>.cls-1{fill:#f05023;}.cls-2{fill:#ffcb08;}</style></defs><title>f_3</title><circle class="cls-1" cx="1145.19" cy="602.67" r="62.21"/><circle class="cls-1" cx="1280.3" cy="602.67" r="62.21"/><circle class="cls-1" cx="1415.42" cy="602.67" r="62.21"/><circle class="cls-1" cx="1550.53" cy="602.67" r="62.21"/><circle class="cls-1" cx="1685.64" cy="602.67" r="62.21"/><circle class="cls-1" cx="1212.74" cy="467.56" r="62.21"/><circle class="cls-1" cx="1347.86" cy="467.56" r="62.21"/><circle class="cls-1" cx="1482.97" cy="467.56" r="62.21"/><circle class="cls-1" cx="1618.09" cy="467.56" r="62.21"/><circle class="cls-1" cx="1280.3" cy="332.44" r="62.21"/><circle class="cls-1" cx="1415.42" cy="332.44" r="62.21"/><circle class="cls-1" cx="1550.53" cy="332.44" r="62.21"/><circle class="cls-1" cx="1347.86" cy="197.33" r="62.21"/><circle class="cls-1" cx="1482.97" cy="197.33" r="62.21"/><circle class="cls-1" cx="1415.42" cy="62.21" r="62.21"/><circle class="cls-1" cx="62.21" cy="602.67" r="62.21"/><circle class="cls-1" cx="197.33" cy="602.67" r="62.21"/><circle class="cls-1" cx="332.44" cy="602.67" r="62.21"/><circle class="cls-1" cx="467.56" cy="602.67" r="62.21"/><circle class="cls-1" cx="129.77" cy="467.56" r="62.21"/><circle class="cls-1" cx="264.89" cy="467.56" r="62.21"/><circle class="cls-1" cx="400" cy="467.56" r="62.21"/><circle class="cls-1" cx="197.33" cy="332.44" r="62.21"/><circle class="cls-1" cx="332.44" cy="332.44" r="62.21"/><circle class="cls-1" cx="264.89" cy="197.33" r="62.21"/><polygon class="cls-2" points="899 544.02 1031.44 467.56 899 391.09 899 433.58 635.02 433.58 635.02 501.54 899 501.54 899 544.02"/></svg>