<svg id="Layer_1" data-name="Layer 1" xmlns="http://www.w3.org/2000/svg" viewBox="0 0 2103.19 800"><defs><style>.cls-1{fill:#f05023;}.cls-2{fill:#ffcb08;}</style></defs><title>f_4</title><circle class="cls-1" cx="62.21" cy="737.79" r="62.21"/><circle class="cls-1" cx="197.33" cy="737.79" r="62.21"/><circle class="cls-1" cx="332.44" cy="737.79" r="62.21"/><circle class="cls-1" cx="467.56" cy="737.79" r="62.21"/><circle class="cls-1" cx="602.67" cy="737.79" r="62.21"/><circle class="cls-1" cx="129.77" cy="602.67" r="62.21"/><circle class="cls-1" cx="264.89" cy="602.67" r="62.21"/><circle class="cls-1" cx="400" cy="602.67" r="62.21"/><circle class="cls-1" cx="535.11" cy="602.67" r="62.21"/><circle class="cls-1" cx="197.33" cy="467.56" r="62.21"/><circle class="cls-1" cx="332.44" cy="467.56" r="62.21"/><circle class="cls-1" cx="467.56" cy="467.56" r="62.21"/><circle class="cls-1" cx="264.89" cy="332.44" r="62.21"/><circle class="cls-1" cx="400" cy="332.44" r="62.21"/><circle class="cls-1" cx="332.44" cy="197.33" r="62.21"/><circle class="cls-1" cx="1365.41" cy="737.79" r="62.21"/><circle class="cls-1" cx="1500.52" cy="737.79" r="62.21"/><circle class="cls-1" cx="1635.64" cy="737.79" r="62.21"/><circle class="cls-1" cx="1770.75" cy="737.79" r="62.21"/><circle class="cls-1" cx="1905.86" cy="737.79" r="62.21"/><circle class="cls-1" cx="2040.98" cy="737.79" r="62.21"/><circle class="cls-1" cx="1432.96" cy="602.67" r="62.21"/><circle class="cls-1" cx="1568.08" cy="602.67" r="62.21"/><circle class="cls-1" cx="1703.19" cy="602.67" r="62.21"/><circle class="cls-1" cx="1838.31" cy="602.67" r="62.21"/><circle class="cls-1" cx="1973.42" cy="602.67" r="62.21"/><circle class="cls-1" cx="1500.52" cy="467.56" r="62.21"/><circle class="cls-1" cx="1635.64" cy="467.56" r="62.21"/><circle class="cls-1" cx="1770.75" cy="467.56" r="62.21"/><circle class="cls-1" cx="1905.86" cy="467.56" r="62.21"/><circle class="cls-1" cx="1568.08" cy="332.44" r="62.21"/><circle class="cls-1" cx="1703.19" cy="332.44" r="62.21"/><circle class="cls-1" cx="1838.31" cy="332.44" r="62.21"/><circle class="cls-1" cx="1635.64" cy="197.33" r="62.21"/><circle class="cls-1" cx="1770.75" cy="197.33" r="62.21"/><circle class="cls-1" cx="1703.19" cy="62.21" r="62.21"/><polygon class="cls-2" points="1096.91 679.13 1229.35 602.67 1096.91 526.21 1096.91 568.69 832.93 568.69 832.93 636.65 1096.91 636.65 1096.91 679.13"/></svg>