<svg id="Layer_1" data-name="Layer 1" xmlns="http://www.w3.org/2000/svg" viewBox="0 0 1233.61 394.65"><defs><style>.cls-1{fill:#f05023;}.cls-2{fill:#ffcb08;}</style></defs><title>g_1</title><circle class="cls-1" cx="62.21" cy="332.44" r="62.21"/><circle class="cls-1" cx="197.33" cy="332.44" r="62.21"/><circle class="cls-1" cx="129.77" cy="197.33" r="62.21"/><circle class="cls-1" cx="935.53" cy="197.33" r="62.21"/><circle class="cls-1" cx="1070.64" cy="197.33" r="62.21"/><circle class="cls-1" cx="1003.08" cy="62.21" r="62.21"/><path class="cls-1" d="M1221.63,264.54a7,7,0,0,1,7,7V382.65a7,7,0,0,1-7,7H791a7,7,0,0,1-7-7V271.54a7,7,0,0,1,7-7h430.66m0-5H791a12,12,0,0,0-12,12V382.65a12,12,0,0,0,12,12h430.66a12,12,0,0,0,12-12V271.54a12,12,0,0,0-12-12Z"/><polygon class="cls-2" points="616.29 307.06 748.72 230.59 616.29 154.13 616.29 196.61 352.3 196.61 352.3 264.57 616.29 264.57 616.29 307.06"/></svg>