<svg xmlns="http://www.w3.org/2000/svg" viewBox="0 0 50.51 68.13"><defs><style>.cls-1{fill:#e2802f;}</style></defs><title>B</title><g id="Capa_2" data-name="Capa 2"><g id="Capa_1-2" data-name="Capa 1"><path class="cls-1" d="M0,0H21.2q14.49,0,21,4.12t6.55,13.12a16.54,16.54,0,0,1-2.87,10A11.46,11.46,0,0,1,38.31,32v.46q6.46,1.45,9.34,5.41t2.86,10.53q0,9.32-6.73,14.54T25.49,68.13H0ZM14.45,27h8.38c3.92,0,6.75-.6,8.51-1.82S34,22,34,19.15c0-2.61-.95-4.48-2.87-5.61s-4.93-1.7-9.06-1.7H14.45Zm0,11.46V56.2h9.41c4,0,6.91-.76,8.81-2.28s2.84-3.86,2.84-7q0-8.49-12.12-8.49Z"/></g></g></svg>