<svg xmlns="http://www.w3.org/2000/svg" viewBox="0 0 50.93 68.72"><defs><style>.cls-1{fill:#e2802f;}</style></defs><title>C</title><g id="Capa_2" data-name="Capa 2"><g id="Capa_2-2" data-name="Capa 2"><path class="cls-1" d="M31.36,11.8q-8,0-12.39,6T14.58,34.56q0,22.36,16.78,22.36,7.05,0,17.06-3.52V65.29A47.51,47.51,0,0,1,30,68.72q-14.59,0-22.31-8.85T0,34.47A41.45,41.45,0,0,1,3.79,16.21a27.44,27.44,0,0,1,10.91-12A32.23,32.23,0,0,1,31.36,0,44.94,44.94,0,0,1,50.93,4.71L46.36,16.23a76.84,76.84,0,0,0-7.54-3.11A22.63,22.63,0,0,0,31.36,11.8Z"/></g></g></svg>