<svg xmlns="http://www.w3.org/2000/svg" viewBox="0 0 100 75.83"><defs><style>.cls-1{fill:#e68a49;}.cls-2{fill:#ff5226;}</style></defs><title>denominador_1</title><g id="Capa_2" data-name="Capa 2"><g id="Layer_1" data-name="Layer 1"><rect class="cls-1" width="100" height="4.98"/><path class="cls-2" d="M83.65,75.83H16.35A16.53,16.53,0,0,1,0,59.15V28.7A16.53,16.53,0,0,1,16.35,12h67.3A16.53,16.53,0,0,1,100,28.7V59.15A16.53,16.53,0,0,1,83.65,75.83ZM16.35,17A11.58,11.58,0,0,0,4.9,28.7V59.15A11.58,11.58,0,0,0,16.35,70.83h67.3A11.58,11.58,0,0,0,95.1,59.15V28.7A11.58,11.58,0,0,0,83.65,17Z"/></g></g></svg>