<svg xmlns="http://www.w3.org/2000/svg" viewBox="0 0 54.86 68.72"><defs><style>.cls-1{fill:#e2802f;}</style></defs><title>G</title><g id="Capa_2" data-name="Capa 2"><g id="Capa_2-2" data-name="Capa 2"><path class="cls-1" d="M28.35,30.27H54.86V64.92a74.42,74.42,0,0,1-12.13,3,79.74,79.74,0,0,1-11.64.85Q16,68.72,8,59.82T0,34.29Q0,18.11,9.26,9.05T34.93,0A49.7,49.7,0,0,1,54.77,4.11L50.06,15.45A33.7,33.7,0,0,0,34.84,11.8q-9.2,0-14.72,6.17T14.58,34.56q0,10.89,4.46,16.62t13,5.74A45.83,45.83,0,0,0,41,56V42.06H28.35Z"/></g></g></svg>