<svg xmlns="http://www.w3.org/2000/svg" viewBox="0 0 100 75.83"><defs><style>.cls-1{fill:#e68a49;}.cls-2{fill:#ff5226;}</style></defs><title>numerador</title><g id="Capa_2" data-name="Capa 2"><g id="Layer_1" data-name="Layer 1"><rect class="cls-1" y="70.85" width="100" height="4.98"/><path class="cls-2" d="M16.35,0h67.3A16.53,16.53,0,0,1,100,16.68V47.13A16.53,16.53,0,0,1,83.65,63.81H16.35A16.53,16.53,0,0,1,0,47.13V16.68A16.53,16.53,0,0,1,16.35,0Zm67.3,58.81A11.58,11.58,0,0,0,95.1,47.13V16.68A11.58,11.58,0,0,0,83.65,5H16.35A11.58,11.58,0,0,0,4.9,16.68V47.13A11.58,11.58,0,0,0,16.35,58.81Z"/></g></g></svg>