<svg xmlns="http://www.w3.org/2000/svg" viewBox="0 0 42.43 66.91"><defs><style>.cls-1{fill:#e2802f;}</style></defs><title>S_1</title><g id="Capa_2" data-name="Capa 2"><g id="Capa_1-2" data-name="Capa 1"><path class="cls-1" d="M42.43,48q0,8.8-6.35,13.89T18.43,66.91A41.35,41.35,0,0,1,0,63V50.17a75.63,75.63,0,0,0,11.15,4.14,33.12,33.12,0,0,0,8.35,1.21q4.55,0,7-1.74a6,6,0,0,0,2.42-5.17,5.64,5.64,0,0,0-1.07-3.4,11.84,11.84,0,0,0-3.14-2.87,80,80,0,0,0-8.43-4.41A40,40,0,0,1,7.3,32.54a20,20,0,0,1-4.76-6,17.08,17.08,0,0,1-1.78-8q0-8.64,5.85-13.58T22.79,0a38.34,38.34,0,0,1,9.69,1.2,65.62,65.62,0,0,1,9.63,3.39L37.66,15.31a66.53,66.53,0,0,0-8.61-3,28,28,0,0,0-6.7-.84,8.85,8.85,0,0,0-6,1.82,6,6,0,0,0-2.09,4.76,6,6,0,0,0,.84,3.19,9.28,9.28,0,0,0,2.7,2.62,82.17,82.17,0,0,0,8.74,4.57Q35.66,32.82,39,37.2A17,17,0,0,1,42.43,48Z"/></g></g></svg>