<svg xmlns="http://www.w3.org/2000/svg" viewBox="0 0 90.53 66.84"><defs><style>.cls-1{fill:#e2802f;}</style></defs><title>W</title><g id="Capa_2" data-name="Capa 2"><g id="Capa_2-2" data-name="Capa 2"><path class="cls-1" d="M73.52,66.84H57.38L48.33,31.73q-.51-1.87-1.72-7.75t-1.39-7.89c-.19,1.65-.64,4.29-1.38,7.94s-1.29,6.24-1.69,7.79l-9,35H17.05L0,0H13.94l8.55,36.48Q24.74,46.59,25.74,54,26,51.4,27,45.92c.65-3.64,1.27-6.46,1.85-8.48L38.59,0H52l9.74,37.44q.64,2.52,1.6,7.69c.64,3.44,1.13,6.4,1.47,8.86.3-2.37.79-5.34,1.46-8.89s1.28-6.42,1.83-8.62L76.58,0h14Z"/></g></g></svg>