<svg xmlns="http://www.w3.org/2000/svg" viewBox="0 0 429.05 90.15"><defs><style>.cls-1{fill:#ed5126;}.cls-2{fill:#e99051;}</style></defs><title>4</title><g id="Capa_2" data-name="Capa 2"><g id="Capa_1-2" data-name="Capa 1"><path class="cls-1" d="M415.26,90.15H13.79A13.81,13.81,0,0,1,0,76.36V13.79A13.81,13.81,0,0,1,13.79,0H415.26a13.81,13.81,0,0,1,13.79,13.79V76.36A13.81,13.81,0,0,1,415.26,90.15ZM13.79,3A10.8,10.8,0,0,0,3,13.79V76.36A10.8,10.8,0,0,0,13.79,87.15H415.26a10.8,10.8,0,0,0,10.79-10.79V13.79A10.8,10.8,0,0,0,415.26,3Z"/><rect class="cls-1" x="1.5" y="42.57" width="426.05" height="3"/><path class="cls-2" d="M140.74,32.34h-1.49V20.9h-4V19.59h9.56V20.9h-4Z"/><path class="cls-2" d="M154.73,27.55a5.3,5.3,0,0,1-1.18,3.65,4.13,4.13,0,0,1-3.25,1.31,4.31,4.31,0,0,1-2.28-.6,4.06,4.06,0,0,1-1.54-1.73,6,6,0,0,1-.54-2.63,5.26,5.26,0,0,1,1.17-3.64,4.14,4.14,0,0,1,3.25-1.31,4,4,0,0,1,3.18,1.34A5.24,5.24,0,0,1,154.73,27.55Zm-7.29,0a4.53,4.53,0,0,0,.74,2.79,2.53,2.53,0,0,0,2.15,1,2.57,2.57,0,0,0,2.16-.95,4.54,4.54,0,0,0,.74-2.8,4.44,4.44,0,0,0-.74-2.77,2.6,2.6,0,0,0-2.18-1,2.55,2.55,0,0,0-2.14.94A4.5,4.5,0,0,0,147.44,27.55Z"/><path class="cls-2" d="M160.35,31.32a4.35,4.35,0,0,0,.74-.06,5.41,5.41,0,0,0,.57-.12v1.11a2.55,2.55,0,0,1-.69.19,5.16,5.16,0,0,1-.83.07c-1.85,0-2.77-1-2.77-2.92V23.9H156v-.69l1.37-.61.61-2h.84v2.22h2.77V23.9h-2.77v5.63a1.91,1.91,0,0,0,.41,1.33A1.45,1.45,0,0,0,160.35,31.32Z"/><path class="cls-2" d="M169.45,32.34,169.16,31h-.07a3.92,3.92,0,0,1-1.42,1.21,4.26,4.26,0,0,1-1.78.32,3.19,3.19,0,0,1-2.23-.73,2.69,2.69,0,0,1-.8-2.08c0-1.93,1.54-2.95,4.63-3l1.62-.05V26a2.47,2.47,0,0,0-.48-1.67,2,2,0,0,0-1.55-.53,6.3,6.3,0,0,0-2.71.73l-.44-1.11a7.34,7.34,0,0,1,1.55-.6,6.46,6.46,0,0,1,1.68-.22,3.69,3.69,0,0,1,2.54.76,3.17,3.17,0,0,1,.82,2.43v6.53Zm-3.27-1a2.94,2.94,0,0,0,2.12-.74,2.74,2.74,0,0,0,.77-2.08v-.86l-1.44.06a5.36,5.36,0,0,0-2.49.53,1.62,1.62,0,0,0-.77,1.48,1.5,1.5,0,0,0,.48,1.2A2,2,0,0,0,166.18,31.32Z"/><path class="cls-2" d="M175,32.34h-1.44V18.77H175Z"/><path class="cls-2" d="M189.17,31.06h-.08a3.4,3.4,0,0,1-3,1.45,3.54,3.54,0,0,1-2.92-1.28,5.67,5.67,0,0,1-1-3.65,5.75,5.75,0,0,1,1.05-3.67,3.53,3.53,0,0,1,2.91-1.31,3.47,3.47,0,0,1,3,1.42h.12l-.06-.69,0-.67V18.77h1.45V32.34h-1.18Zm-2.9.24a2.62,2.62,0,0,0,2.15-.81,4,4,0,0,0,.67-2.6v-.31a4.76,4.76,0,0,0-.67-2.89,2.58,2.58,0,0,0-2.16-.87,2.22,2.22,0,0,0-1.95,1,4.92,4.92,0,0,0-.68,2.79,4.82,4.82,0,0,0,.67,2.77A2.29,2.29,0,0,0,186.27,31.3Z"/><path class="cls-2" d="M197.65,32.51a4.4,4.4,0,0,1-3.35-1.29,5,5,0,0,1-1.22-3.58A5.52,5.52,0,0,1,194.22,24a3.75,3.75,0,0,1,3.05-1.37,3.62,3.62,0,0,1,2.85,1.19,4.53,4.53,0,0,1,1,3.11v.92h-6.58a3.82,3.82,0,0,0,.85,2.56,2.94,2.94,0,0,0,2.27.87,7.67,7.67,0,0,0,3.05-.65v1.29a6.79,6.79,0,0,1-3.1.62Zm-.4-8.69a2.37,2.37,0,0,0-1.83.75,3.42,3.42,0,0,0-.81,2.07h5a3.14,3.14,0,0,0-.61-2.09A2.15,2.15,0,0,0,197.25,23.82Z"/><path class="cls-2" d="M214,20.73a4.18,4.18,0,0,0-3.32,1.4A5.64,5.64,0,0,0,209.41,26a5.72,5.72,0,0,0,1.18,3.87,4.16,4.16,0,0,0,3.34,1.37,11.45,11.45,0,0,0,3-.48V32a9.49,9.49,0,0,1-3.28.49,5.53,5.53,0,0,1-4.34-1.71,7,7,0,0,1-1.53-4.86,7.68,7.68,0,0,1,.73-3.45,5.22,5.22,0,0,1,2.13-2.28A6.41,6.41,0,0,1,214,19.4a7.88,7.88,0,0,1,3.5.74l-.63,1.27A6.79,6.79,0,0,0,214,20.73Z"/><path class="cls-2" d="M220.9,22.78V29a2.54,2.54,0,0,0,.53,1.75,2.19,2.19,0,0,0,1.67.57,2.7,2.7,0,0,0,2.19-.82,4.16,4.16,0,0,0,.7-2.68v-5h1.44v9.56h-1.19L226,31.06H226a2.93,2.93,0,0,1-1.23,1.08,4.17,4.17,0,0,1-1.8.37,3.63,3.63,0,0,1-2.62-.83,3.51,3.51,0,0,1-.86-2.65V22.78Z"/><path class="cls-2" d="M236.38,32.34,236.09,31H236a3.92,3.92,0,0,1-1.42,1.21,4.26,4.26,0,0,1-1.78.32,3.21,3.21,0,0,1-2.23-.73,2.69,2.69,0,0,1-.8-2.08c0-1.93,1.54-2.95,4.63-3l1.62-.05V26a2.47,2.47,0,0,0-.48-1.67,2,2,0,0,0-1.55-.53,6.23,6.23,0,0,0-2.7.73l-.45-1.11a7.34,7.34,0,0,1,1.55-.6,6.48,6.48,0,0,1,1.69-.22,3.66,3.66,0,0,1,2.53.76,3.17,3.17,0,0,1,.82,2.43v6.53Zm-3.27-1a2.94,2.94,0,0,0,2.12-.74A2.74,2.74,0,0,0,236,28.5v-.86l-1.45.06a5.36,5.36,0,0,0-2.49.53,1.62,1.62,0,0,0-.76,1.48,1.49,1.49,0,0,0,.47,1.2A2,2,0,0,0,233.11,31.32Z"/><path class="cls-2" d="M246.94,31.06h-.07a3.4,3.4,0,0,1-3,1.45A3.52,3.52,0,0,1,241,31.23a5.61,5.61,0,0,1-1-3.65,5.74,5.74,0,0,1,1-3.67,3.54,3.54,0,0,1,2.92-1.31,3.49,3.49,0,0,1,3,1.42H247l-.06-.69,0-.67V18.77h1.44V32.34h-1.17Zm-2.89.24a2.64,2.64,0,0,0,2.15-.81,4.07,4.07,0,0,0,.67-2.6v-.31a4.76,4.76,0,0,0-.68-2.89,2.56,2.56,0,0,0-2.16-.87,2.22,2.22,0,0,0-1.95,1,4.92,4.92,0,0,0-.67,2.79,4.74,4.74,0,0,0,.67,2.77A2.26,2.26,0,0,0,244.05,31.3Z"/><path class="cls-2" d="M255.42,32.51a4.38,4.38,0,0,1-3.34-1.29,5,5,0,0,1-1.23-3.58A5.52,5.52,0,0,1,252,24a3.79,3.79,0,0,1,3.06-1.37,3.61,3.61,0,0,1,2.84,1.19,4.49,4.49,0,0,1,1.05,3.11v.92h-6.59a3.82,3.82,0,0,0,.85,2.56,3,3,0,0,0,2.27.87,7.76,7.76,0,0,0,3.06-.65v1.29a8,8,0,0,1-1.46.48A7.81,7.81,0,0,1,255.42,32.51ZM255,23.82a2.37,2.37,0,0,0-1.84.75,3.48,3.48,0,0,0-.8,2.07h5a3.14,3.14,0,0,0-.61-2.09A2.11,2.11,0,0,0,255,23.82Z"/><path class="cls-2" d="M265.77,22.6a5.65,5.65,0,0,1,1.14.11l-.2,1.34a5.54,5.54,0,0,0-1-.13,2.57,2.57,0,0,0-2,.94,3.44,3.44,0,0,0-.83,2.35v5.13h-1.44V22.78h1.19l.17,1.77h.07a4.2,4.2,0,0,1,1.28-1.44A2.87,2.87,0,0,1,265.77,22.6Z"/><path class="cls-2" d="M275.24,32.34V26.15a2.51,2.51,0,0,0-.53-1.74,2.19,2.19,0,0,0-1.67-.58,2.73,2.73,0,0,0-2.2.82,4.11,4.11,0,0,0-.7,2.67v5H268.7V22.78h1.17l.24,1.31h.07a3,3,0,0,1,1.25-1.1,4,4,0,0,1,1.78-.39,3.6,3.6,0,0,1,2.6.84,3.49,3.49,0,0,1,.88,2.66v6.24Z"/><path class="cls-2" d="M287.91,27.55a5.26,5.26,0,0,1-1.18,3.65,4.12,4.12,0,0,1-3.25,1.31,4.36,4.36,0,0,1-2.28-.6,4,4,0,0,1-1.53-1.73,6,6,0,0,1-.54-2.63,5.26,5.26,0,0,1,1.17-3.64,4.13,4.13,0,0,1,3.24-1.31,4.05,4.05,0,0,1,3.19,1.34A5.23,5.23,0,0,1,287.91,27.55Zm-7.28,0a4.53,4.53,0,0,0,.73,2.79,2.91,2.91,0,0,0,4.31,0,4.47,4.47,0,0,0,.74-2.8,4.38,4.38,0,0,0-.74-2.77,2.94,2.94,0,0,0-4.32,0A4.5,4.5,0,0,0,280.63,27.55Z"/><path class="cls-2" d="M296.62,29.73a2.41,2.41,0,0,1-1,2.06,4.68,4.68,0,0,1-2.79.72,6.1,6.1,0,0,1-3-.6V30.57a7.91,7.91,0,0,0,1.48.55,6.43,6.43,0,0,0,1.53.2,3.47,3.47,0,0,0,1.74-.36,1.2,1.2,0,0,0,.61-1.11,1.19,1.19,0,0,0-.48-1,7.66,7.66,0,0,0-1.89-.94,10.12,10.12,0,0,1-1.9-.87,2.69,2.69,0,0,1-.84-.84,2.21,2.21,0,0,1-.27-1.12,2.16,2.16,0,0,1,1-1.85,4.42,4.42,0,0,1,2.61-.68,7.64,7.64,0,0,1,3,.63l-.52,1.18a7,7,0,0,0-2.61-.59,3,3,0,0,0-1.55.32,1,1,0,0,0-.52.89,1.06,1.06,0,0,0,.19.65,1.85,1.85,0,0,0,.64.52,13,13,0,0,0,1.67.7,6.4,6.4,0,0,1,2.3,1.25A2.21,2.21,0,0,1,296.62,29.73Z"/><path class="cls-2" d="M23.57,60.62a4.33,4.33,0,0,1,2.77.81,2.69,2.69,0,0,1,1,2.24,2.8,2.8,0,0,1-.59,1.72,5.21,5.21,0,0,1-1.86,1.41,6.1,6.1,0,0,1,2.2,1.56,2.9,2.9,0,0,1,.66,1.89,3.16,3.16,0,0,1-1.11,2.53,4.53,4.53,0,0,1-3,1,4.86,4.86,0,0,1-3.15-.9,3.07,3.07,0,0,1-1.09-2.53q0-2.19,2.67-3.41a5,5,0,0,1-1.73-1.47,3.15,3.15,0,0,1-.53-1.77,2.71,2.71,0,0,1,1-2.21A4.24,4.24,0,0,1,23.57,60.62Zm-2.75,9.71A2,2,0,0,0,21.54,72a3.21,3.21,0,0,0,2.05.59,3,3,0,0,0,2-.61,2.14,2.14,0,0,0,.05-3.18,7,7,0,0,0-2.38-1.28,5.18,5.18,0,0,0-1.88,1.23A2.4,2.4,0,0,0,20.82,70.33Zm2.74-8.54a2.55,2.55,0,0,0-1.71.53,1.71,1.71,0,0,0-.62,1.39,2,2,0,0,0,.51,1.38,5.38,5.38,0,0,0,1.9,1.15,4.86,4.86,0,0,0,1.77-1.12,2.12,2.12,0,0,0,.52-1.41,1.72,1.72,0,0,0-.63-1.4A2.73,2.73,0,0,0,23.56,61.79Z"/><path class="cls-2" d="M38.69,73.73a4.09,4.09,0,0,1-3.22-1.28,5.25,5.25,0,0,1-1.13-3.62,5.44,5.44,0,0,1,1.15-3.71,4.16,4.16,0,0,1,3.29-1.3,6.48,6.48,0,0,1,1.38.15,4.31,4.31,0,0,1,1.08.34l-.44,1.23a7.22,7.22,0,0,0-1-.31,4.36,4.36,0,0,0-1-.13q-2.91,0-2.91,3.71a4.4,4.4,0,0,0,.71,2.71,2.45,2.45,0,0,0,2.1.94A6.44,6.44,0,0,0,41.1,72v1.28A5.22,5.22,0,0,1,38.69,73.73Z"/><path class="cls-2" d="M44.73,64v6.2a2.54,2.54,0,0,0,.53,1.75,2.19,2.19,0,0,0,1.67.57,2.7,2.7,0,0,0,2.19-.82,4.07,4.07,0,0,0,.7-2.67V64h1.44v9.56H50.07l-.21-1.28h-.08a2.88,2.88,0,0,1-1.23,1.08,4.17,4.17,0,0,1-1.8.38,3.68,3.68,0,0,1-2.62-.83,3.56,3.56,0,0,1-.86-2.65V64Z"/><path class="cls-2" d="M60.21,73.55l-.28-1.36h-.07a4.18,4.18,0,0,1-1.43,1.22,4.39,4.39,0,0,1-1.78.32A3.17,3.17,0,0,1,54.43,73a2.66,2.66,0,0,1-.81-2.08q0-2.89,4.63-3l1.62-.05v-.59a2.42,2.42,0,0,0-.48-1.66A2,2,0,0,0,57.84,65a6.23,6.23,0,0,0-2.7.73l-.45-1.11a7.34,7.34,0,0,1,1.55-.6,6.92,6.92,0,0,1,1.69-.21,3.66,3.66,0,0,1,2.53.75A3.18,3.18,0,0,1,61.29,67v6.52Zm-3.27-1a3,3,0,0,0,2.13-.74,2.78,2.78,0,0,0,.77-2.08v-.86l-1.45.06a5.22,5.22,0,0,0-2.49.54,1.61,1.61,0,0,0-.76,1.48,1.5,1.5,0,0,0,.47,1.19A2,2,0,0,0,56.94,72.53Z"/><path class="cls-2" d="M70.78,72.27H70.7a3.41,3.41,0,0,1-3,1.46,3.54,3.54,0,0,1-2.92-1.29,5.6,5.6,0,0,1-1-3.64,5.82,5.82,0,0,1,1-3.68,3.53,3.53,0,0,1,2.92-1.3,3.48,3.48,0,0,1,3,1.41h.11l-.06-.69,0-.67V60h1.45V73.55H71Zm-2.9.24a2.66,2.66,0,0,0,2.15-.8,4.13,4.13,0,0,0,.67-2.61v-.3A4.79,4.79,0,0,0,70,65.9,2.56,2.56,0,0,0,67.86,65a2.22,2.22,0,0,0-2,1,4.92,4.92,0,0,0-.67,2.79,4.7,4.7,0,0,0,.67,2.77A2.27,2.27,0,0,0,67.88,72.51Z"/><path class="cls-2" d="M79.25,73.73a4.43,4.43,0,0,1-3.34-1.29,5,5,0,0,1-1.23-3.59,5.54,5.54,0,0,1,1.14-3.67,3.78,3.78,0,0,1,3.06-1.36A3.59,3.59,0,0,1,81.72,65a4.53,4.53,0,0,1,1,3.12V69H76.18A3.83,3.83,0,0,0,77,71.59a3,3,0,0,0,2.28.87,7.73,7.73,0,0,0,3-.64v1.29a7.37,7.37,0,0,1-1.45.47A7.91,7.91,0,0,1,79.25,73.73ZM78.86,65a2.37,2.37,0,0,0-1.84.75,3.48,3.48,0,0,0-.8,2.07h5a3.2,3.2,0,0,0-.61-2.09A2.15,2.15,0,0,0,78.86,65Z"/><path class="cls-2" d="M89.6,63.82a5.69,5.69,0,0,1,1.14.1l-.2,1.35a4.83,4.83,0,0,0-1.05-.14,2.55,2.55,0,0,0-2,1,3.42,3.42,0,0,0-.83,2.34v5.13H85.24V64h1.19l.17,1.77h.07A4.2,4.2,0,0,1,88,64.32,2.94,2.94,0,0,1,89.6,63.82Z"/><path class="cls-2" d="M99.07,73.55V67.37a2.54,2.54,0,0,0-.53-1.75,2.19,2.19,0,0,0-1.67-.57,2.76,2.76,0,0,0-2.2.81A4.12,4.12,0,0,0,94,68.54v5H92.53V64h1.18l.23,1.31H94a3,3,0,0,1,1.25-1.1,4.16,4.16,0,0,1,1.79-.38,3.67,3.67,0,0,1,2.6.83,3.53,3.53,0,0,1,.87,2.66v6.24Z"/><path class="cls-2" d="M111.74,68.76a5.24,5.24,0,0,1-1.18,3.65,4.11,4.11,0,0,1-3.25,1.32,4.31,4.31,0,0,1-2.27-.61,3.91,3.91,0,0,1-1.54-1.72,6,6,0,0,1-.54-2.64,5.26,5.26,0,0,1,1.17-3.64,4.13,4.13,0,0,1,3.24-1.3,4,4,0,0,1,3.19,1.33A5.25,5.25,0,0,1,111.74,68.76Zm-7.28,0a4.53,4.53,0,0,0,.73,2.79,2.55,2.55,0,0,0,2.16,1,2.6,2.6,0,0,0,2.16-1,4.54,4.54,0,0,0,.73-2.8,4.46,4.46,0,0,0-.73-2.77,2.61,2.61,0,0,0-2.18-.94,2.57,2.57,0,0,0-2.15.93A4.5,4.5,0,0,0,104.46,68.76Z"/><path class="cls-2" d="M120.45,70.94a2.38,2.38,0,0,1-1,2.06,4.68,4.68,0,0,1-2.79.73,6,6,0,0,1-3-.61V71.78a7.18,7.18,0,0,0,1.47.55,6.43,6.43,0,0,0,1.53.2,3.47,3.47,0,0,0,1.74-.36,1.25,1.25,0,0,0,.13-2.06,7.83,7.83,0,0,0-1.89-.94,10.12,10.12,0,0,1-1.9-.87,2.59,2.59,0,0,1-.84-.84,2.21,2.21,0,0,1-.27-1.12,2.16,2.16,0,0,1,1-1.85,4.42,4.42,0,0,1,2.61-.67,7.81,7.81,0,0,1,3,.62l-.52,1.18a7,7,0,0,0-2.61-.59,3.06,3.06,0,0,0-1.55.32,1,1,0,0,0-.52.89,1.09,1.09,0,0,0,.19.66,2,2,0,0,0,.64.51,15,15,0,0,0,1.67.71,6.18,6.18,0,0,1,2.3,1.24A2.21,2.21,0,0,1,120.45,70.94Z"/><path class="cls-2" d="M168.42,60.62a4.32,4.32,0,0,1,2.76.81,2.69,2.69,0,0,1,1,2.24,2.79,2.79,0,0,1-.58,1.72,5.17,5.17,0,0,1-1.87,1.41A6.15,6.15,0,0,1,172,68.36a2.89,2.89,0,0,1,.65,1.89,3.19,3.19,0,0,1-1.1,2.53,4.54,4.54,0,0,1-3,1,4.83,4.83,0,0,1-3.14-.9,3.08,3.08,0,0,1-1.1-2.53q0-2.19,2.67-3.41a5.11,5.11,0,0,1-1.73-1.47,3.14,3.14,0,0,1-.52-1.77,2.7,2.7,0,0,1,1-2.21A4.27,4.27,0,0,1,168.42,60.62Zm-2.76,9.71a2,2,0,0,0,.73,1.63,3.21,3.21,0,0,0,2.05.59,3,3,0,0,0,2-.61,2.09,2.09,0,0,0,.72-1.68,2,2,0,0,0-.68-1.5,6.81,6.81,0,0,0-2.37-1.28,5.09,5.09,0,0,0-1.88,1.23A2.41,2.41,0,0,0,165.66,70.33Zm2.74-8.54a2.55,2.55,0,0,0-1.71.53,1.74,1.74,0,0,0-.62,1.39,2,2,0,0,0,.52,1.38,5.29,5.29,0,0,0,1.9,1.15,4.72,4.72,0,0,0,1.76-1.12,2.07,2.07,0,0,0,.52-1.41,1.72,1.72,0,0,0-.63-1.4A2.69,2.69,0,0,0,168.4,61.79Z"/><path class="cls-2" d="M183.53,73.73a4.09,4.09,0,0,1-3.21-1.28,5.26,5.26,0,0,1-1.14-3.62,5.44,5.44,0,0,1,1.16-3.71,4.15,4.15,0,0,1,3.29-1.3A6.48,6.48,0,0,1,185,64a4.31,4.31,0,0,1,1.08.34l-.45,1.23a7.08,7.08,0,0,0-1-.31,4.43,4.43,0,0,0-1-.13q-2.91,0-2.91,3.71a4.46,4.46,0,0,0,.71,2.71,2.48,2.48,0,0,0,2.11.94A6.52,6.52,0,0,0,186,72v1.28A5.26,5.26,0,0,1,183.53,73.73Z"/><path class="cls-2" d="M189.58,64v6.2a2.49,2.49,0,0,0,.53,1.75,2.18,2.18,0,0,0,1.67.57,2.7,2.7,0,0,0,2.19-.82,4.13,4.13,0,0,0,.69-2.67V64h1.45v9.56h-1.19l-.21-1.28h-.08a2.9,2.9,0,0,1-1.24,1.08,4.11,4.11,0,0,1-1.8.38A3.67,3.67,0,0,1,189,72.9a3.52,3.52,0,0,1-.87-2.65V64Z"/><path class="cls-2" d="M205.06,73.55l-.29-1.36h-.07a4.09,4.09,0,0,1-1.43,1.22,4.34,4.34,0,0,1-1.77.32,3.19,3.19,0,0,1-2.23-.74,2.66,2.66,0,0,1-.81-2.08q0-2.89,4.64-3l1.62-.05v-.59a2.37,2.37,0,0,0-.49-1.66,2,2,0,0,0-1.54-.54,6.3,6.3,0,0,0-2.71.73l-.44-1.11a7.14,7.14,0,0,1,1.55-.6,6.9,6.9,0,0,1,1.68-.21,3.69,3.69,0,0,1,2.54.75,3.18,3.18,0,0,1,.82,2.44v6.52Zm-3.27-1a2.94,2.94,0,0,0,2.12-.74,2.74,2.74,0,0,0,.77-2.08v-.86l-1.44.06a5.16,5.16,0,0,0-2.49.54,1.61,1.61,0,0,0-.77,1.48,1.47,1.47,0,0,0,.48,1.19A2,2,0,0,0,201.79,72.53Z"/><path class="cls-2" d="M215.62,72.27h-.08a3.41,3.41,0,0,1-3,1.46,3.55,3.55,0,0,1-2.92-1.29,5.66,5.66,0,0,1-1-3.64,5.76,5.76,0,0,1,1-3.68,3.52,3.52,0,0,1,2.91-1.3,3.47,3.47,0,0,1,3,1.41h.12l-.06-.69,0-.67V60H217V73.55h-1.18Zm-2.89.24a2.68,2.68,0,0,0,2.15-.8,4.13,4.13,0,0,0,.66-2.61v-.3a4.8,4.8,0,0,0-.67-2.9,2.56,2.56,0,0,0-2.16-.87,2.22,2.22,0,0,0-2,1,4.92,4.92,0,0,0-.68,2.79,4.77,4.77,0,0,0,.67,2.77A2.29,2.29,0,0,0,212.73,72.51Z"/><path class="cls-2" d="M224.1,73.73a4.45,4.45,0,0,1-3.35-1.29,5.05,5.05,0,0,1-1.22-3.59,5.54,5.54,0,0,1,1.14-3.67,3.76,3.76,0,0,1,3.05-1.36A3.61,3.61,0,0,1,226.57,65a4.57,4.57,0,0,1,1,3.12V69H221a3.78,3.78,0,0,0,.85,2.56,2.94,2.94,0,0,0,2.27.87,7.66,7.66,0,0,0,3-.64v1.29a7.16,7.16,0,0,1-1.45.47A7.87,7.87,0,0,1,224.1,73.73Zm-.39-8.7a2.37,2.37,0,0,0-1.84.75,3.48,3.48,0,0,0-.81,2.07h5a3.14,3.14,0,0,0-.61-2.09A2.14,2.14,0,0,0,223.71,65Z"/><path class="cls-2" d="M234.44,63.82a5.73,5.73,0,0,1,1.15.1l-.21,1.35a4.75,4.75,0,0,0-1-.14,2.55,2.55,0,0,0-2,1,3.41,3.41,0,0,0-.82,2.34v5.13h-1.45V64h1.2l.16,1.77h.07a4.3,4.3,0,0,1,1.28-1.44A2.94,2.94,0,0,1,234.44,63.82Z"/><path class="cls-2" d="M243.92,73.55V67.37a2.49,2.49,0,0,0-.54-1.75,2.17,2.17,0,0,0-1.66-.57,2.75,2.75,0,0,0-2.2.81,4.06,4.06,0,0,0-.7,2.68v5h-1.45V64h1.18l.24,1.31h.07a3,3,0,0,1,1.24-1.1,4.19,4.19,0,0,1,1.79-.38,3.66,3.66,0,0,1,2.6.83,3.53,3.53,0,0,1,.87,2.66v6.24Z"/><path class="cls-2" d="M256.59,68.76a5.24,5.24,0,0,1-1.18,3.65,4.13,4.13,0,0,1-3.25,1.32,4.32,4.32,0,0,1-2.28-.61,4,4,0,0,1-1.53-1.72,5.9,5.9,0,0,1-.55-2.64A5.26,5.26,0,0,1,249,65.12a4.13,4.13,0,0,1,3.25-1.3,4,4,0,0,1,3.19,1.33A5.3,5.3,0,0,1,256.59,68.76Zm-7.28,0a4.53,4.53,0,0,0,.73,2.79,2.53,2.53,0,0,0,2.15,1,2.57,2.57,0,0,0,2.16-1,4.54,4.54,0,0,0,.74-2.8,4.46,4.46,0,0,0-.74-2.77,2.59,2.59,0,0,0-2.18-.94A2.55,2.55,0,0,0,250,66,4.5,4.5,0,0,0,249.31,68.76Z"/><path class="cls-2" d="M265.29,70.94a2.4,2.4,0,0,1-1,2.06,4.7,4.7,0,0,1-2.79.73,6.09,6.09,0,0,1-3-.61V71.78a7.06,7.06,0,0,0,1.48.55,6.35,6.35,0,0,0,1.52.2,3.49,3.49,0,0,0,1.75-.36,1.21,1.21,0,0,0,.61-1.1,1.18,1.18,0,0,0-.49-1,7.64,7.64,0,0,0-1.89-.94,9.67,9.67,0,0,1-1.89-.87,2.41,2.41,0,0,1-.84-.84,2.21,2.21,0,0,1-.27-1.12,2.14,2.14,0,0,1,1-1.85,4.41,4.41,0,0,1,2.6-.67,7.77,7.77,0,0,1,3,.62l-.51,1.18A7,7,0,0,0,262,65a3,3,0,0,0-1.55.32,1,1,0,0,0-.53.89,1.1,1.1,0,0,0,.2.66,1.89,1.89,0,0,0,.63.51,14.6,14.6,0,0,0,1.68.71,6.12,6.12,0,0,1,2.29,1.24A2.21,2.21,0,0,1,265.29,70.94Z"/><path class="cls-2" d="M311.73,60.62a4.32,4.32,0,0,1,2.76.81,2.69,2.69,0,0,1,1,2.24,2.79,2.79,0,0,1-.58,1.72,5.17,5.17,0,0,1-1.87,1.41,6.15,6.15,0,0,1,2.21,1.56,2.89,2.89,0,0,1,.65,1.89,3.19,3.19,0,0,1-1.1,2.53,4.54,4.54,0,0,1-3,1,4.83,4.83,0,0,1-3.14-.9,3.08,3.08,0,0,1-1.1-2.53q0-2.19,2.67-3.41a5.11,5.11,0,0,1-1.73-1.47,3.22,3.22,0,0,1-.52-1.77,2.68,2.68,0,0,1,1-2.21A4.22,4.22,0,0,1,311.73,60.62ZM309,70.33A2,2,0,0,0,309.7,72a3.21,3.21,0,0,0,2.05.59,3,3,0,0,0,2-.61,2.09,2.09,0,0,0,.72-1.68,2,2,0,0,0-.68-1.5,6.81,6.81,0,0,0-2.37-1.28,5.09,5.09,0,0,0-1.88,1.23A2.41,2.41,0,0,0,309,70.33Zm2.74-8.54a2.55,2.55,0,0,0-1.71.53,1.74,1.74,0,0,0-.62,1.39,2,2,0,0,0,.52,1.38,5.29,5.29,0,0,0,1.9,1.15,4.72,4.72,0,0,0,1.76-1.12,2.07,2.07,0,0,0,.52-1.41,1.72,1.72,0,0,0-.63-1.4A2.69,2.69,0,0,0,311.71,61.79Z"/><path class="cls-2" d="M326.84,73.73a4.09,4.09,0,0,1-3.21-1.28,5.26,5.26,0,0,1-1.14-3.62,5.44,5.44,0,0,1,1.16-3.71,4.16,4.16,0,0,1,3.29-1.3,6.48,6.48,0,0,1,1.38.15,4.31,4.31,0,0,1,1.08.34L329,65.54a7.08,7.08,0,0,0-1-.31,4.36,4.36,0,0,0-1-.13q-2.93,0-2.92,3.71a4.46,4.46,0,0,0,.71,2.71,2.48,2.48,0,0,0,2.11.94,6.48,6.48,0,0,0,2.45-.51v1.28A5.26,5.26,0,0,1,326.84,73.73Z"/><path class="cls-2" d="M332.89,64v6.2a2.54,2.54,0,0,0,.53,1.75,2.18,2.18,0,0,0,1.67.57,2.7,2.7,0,0,0,2.19-.82A4.13,4.13,0,0,0,338,69V64h1.45v9.56h-1.19L338,72.27h-.08a2.9,2.9,0,0,1-1.24,1.08,4.11,4.11,0,0,1-1.8.38,3.67,3.67,0,0,1-2.61-.83,3.52,3.52,0,0,1-.87-2.65V64Z"/><path class="cls-2" d="M348.37,73.55l-.29-1.36H348a4.16,4.16,0,0,1-1.42,1.22,4.43,4.43,0,0,1-1.78.32,3.19,3.19,0,0,1-2.23-.74,2.66,2.66,0,0,1-.8-2.08q0-2.89,4.63-3l1.62-.05v-.59a2.42,2.42,0,0,0-.48-1.66A2,2,0,0,0,346,65a6.3,6.3,0,0,0-2.71.73l-.44-1.11a7.34,7.34,0,0,1,1.55-.6,6.9,6.9,0,0,1,1.68-.21,3.69,3.69,0,0,1,2.54.75,3.18,3.18,0,0,1,.82,2.44v6.52Zm-3.27-1a2.94,2.94,0,0,0,2.12-.74,2.74,2.74,0,0,0,.77-2.08v-.86l-1.44.06a5.19,5.19,0,0,0-2.49.54,1.61,1.61,0,0,0-.77,1.48,1.47,1.47,0,0,0,.48,1.19A2,2,0,0,0,345.1,72.53Z"/><path class="cls-2" d="M358.93,72.27h-.08a3.41,3.41,0,0,1-3,1.46,3.52,3.52,0,0,1-2.91-1.29,5.6,5.6,0,0,1-1.05-3.64,5.76,5.76,0,0,1,1.05-3.68,3.89,3.89,0,0,1,5.9.11H359l-.06-.69,0-.67V60h1.45V73.55h-1.18Zm-2.89.24a2.68,2.68,0,0,0,2.15-.8,4.13,4.13,0,0,0,.66-2.61v-.3a4.8,4.8,0,0,0-.67-2.9A2.56,2.56,0,0,0,356,65a2.22,2.22,0,0,0-1.95,1,4.92,4.92,0,0,0-.68,2.79,4.77,4.77,0,0,0,.67,2.77A2.29,2.29,0,0,0,356,72.51Z"/><path class="cls-2" d="M367.41,73.73a4.45,4.45,0,0,1-3.35-1.29,5.05,5.05,0,0,1-1.22-3.59A5.54,5.54,0,0,1,364,65.18a3.77,3.77,0,0,1,3-1.36A3.61,3.61,0,0,1,369.88,65a4.53,4.53,0,0,1,1,3.12V69h-6.58a3.78,3.78,0,0,0,.85,2.56,2.94,2.94,0,0,0,2.27.87,7.66,7.66,0,0,0,3.05-.64v1.29a7.16,7.16,0,0,1-1.45.47A7.74,7.74,0,0,1,367.41,73.73ZM367,65a2.37,2.37,0,0,0-1.84.75,3.48,3.48,0,0,0-.81,2.07h5a3.14,3.14,0,0,0-.61-2.09A2.14,2.14,0,0,0,367,65Z"/><path class="cls-2" d="M377.75,63.82a5.73,5.73,0,0,1,1.15.1l-.2,1.35a4.91,4.91,0,0,0-1.05-.14,2.57,2.57,0,0,0-2,1,3.46,3.46,0,0,0-.82,2.34v5.13h-1.45V64h1.2l.16,1.77h.07a4.3,4.3,0,0,1,1.28-1.44A2.94,2.94,0,0,1,377.75,63.82Z"/><path class="cls-2" d="M387.23,73.55V67.37a2.49,2.49,0,0,0-.54-1.75,2.17,2.17,0,0,0-1.66-.57,2.76,2.76,0,0,0-2.2.81,4.06,4.06,0,0,0-.7,2.68v5h-1.45V64h1.18l.24,1.31h.07a3,3,0,0,1,1.24-1.1,4.22,4.22,0,0,1,1.79-.38,3.66,3.66,0,0,1,2.6.83,3.53,3.53,0,0,1,.87,2.66v6.24Z"/><path class="cls-2" d="M399.9,68.76a5.24,5.24,0,0,1-1.18,3.65,4.13,4.13,0,0,1-3.25,1.32,4.32,4.32,0,0,1-2.28-.61,4,4,0,0,1-1.53-1.72,6,6,0,0,1-.54-2.64,5.3,5.3,0,0,1,1.16-3.64,4.15,4.15,0,0,1,3.25-1.3,4,4,0,0,1,3.19,1.33A5.3,5.3,0,0,1,399.9,68.76Zm-7.28,0a4.53,4.53,0,0,0,.73,2.79,2.55,2.55,0,0,0,2.15,1,2.57,2.57,0,0,0,2.16-1,4.54,4.54,0,0,0,.74-2.8,4.46,4.46,0,0,0-.74-2.77,2.59,2.59,0,0,0-2.18-.94,2.55,2.55,0,0,0-2.14.93A4.5,4.5,0,0,0,392.62,68.76Z"/><path class="cls-2" d="M408.6,70.94a2.4,2.4,0,0,1-1,2.06,4.68,4.68,0,0,1-2.79.73,6.09,6.09,0,0,1-3-.61V71.78a7.06,7.06,0,0,0,1.48.55,6.35,6.35,0,0,0,1.52.2,3.49,3.49,0,0,0,1.75-.36,1.21,1.21,0,0,0,.61-1.1,1.18,1.18,0,0,0-.49-1,7.71,7.71,0,0,0-1.88-.94,9.82,9.82,0,0,1-1.9-.87,2.41,2.41,0,0,1-.84-.84,2.21,2.21,0,0,1-.27-1.12,2.14,2.14,0,0,1,.95-1.85,4.41,4.41,0,0,1,2.6-.67,7.77,7.77,0,0,1,3,.62l-.51,1.18a7,7,0,0,0-2.61-.59,3,3,0,0,0-1.55.32,1,1,0,0,0-.53.89,1.1,1.1,0,0,0,.2.66,1.89,1.89,0,0,0,.63.51,14.6,14.6,0,0,0,1.68.71,6.26,6.26,0,0,1,2.3,1.24A2.24,2.24,0,0,1,408.6,70.94Z"/><rect class="cls-1" x="138.9" y="45.07" width="3" height="43.57"/><rect class="cls-1" x="287.16" y="45.07" width="3" height="43.57"/></g></g></svg>