<svg xmlns="http://www.w3.org/2000/svg" viewBox="0 0 429.05 90.15"><defs><style>.cls-1{fill:#ed5126;}.cls-2{fill:#e99051;}</style></defs><title>5</title><g id="Capa_2" data-name="Capa 2"><g id="Capa_1-2" data-name="Capa 1"><path class="cls-1" d="M415.26,90.15H13.79A13.81,13.81,0,0,1,0,76.36V13.79A13.81,13.81,0,0,1,13.79,0H415.26a13.81,13.81,0,0,1,13.79,13.79V76.36A13.81,13.81,0,0,1,415.26,90.15ZM13.79,3A10.8,10.8,0,0,0,3,13.79V76.36A10.8,10.8,0,0,0,13.79,87.15H415.26a10.8,10.8,0,0,0,10.79-10.79V13.79A10.8,10.8,0,0,0,415.26,3Z"/><rect class="cls-1" x="1.5" y="42.57" width="426.05" height="3"/><path class="cls-2" d="M140.74,32.34h-1.49V20.9h-4V19.59h9.56V20.9h-4Z"/><path class="cls-2" d="M154.73,27.55a5.29,5.29,0,0,1-1.18,3.65,4.13,4.13,0,0,1-3.25,1.31,4.31,4.31,0,0,1-2.28-.6,4.06,4.06,0,0,1-1.54-1.73,6,6,0,0,1-.54-2.63,5.26,5.26,0,0,1,1.17-3.64,4.13,4.13,0,0,1,3.25-1.3,4,4,0,0,1,3.18,1.33A5.24,5.24,0,0,1,154.73,27.55Zm-7.29,0a4.53,4.53,0,0,0,.74,2.79,2.53,2.53,0,0,0,2.15,1,2.57,2.57,0,0,0,2.16-.95,4.54,4.54,0,0,0,.74-2.8,4.44,4.44,0,0,0-.74-2.77,2.6,2.6,0,0,0-2.18-1,2.55,2.55,0,0,0-2.14.94A4.5,4.5,0,0,0,147.44,27.55Z"/><path class="cls-2" d="M160.35,31.32a4.35,4.35,0,0,0,.74-.06,5.41,5.41,0,0,0,.57-.12v1.11a2.55,2.55,0,0,1-.69.19,5.16,5.16,0,0,1-.83.07c-1.85,0-2.77-1-2.77-2.92V23.9H156v-.69l1.37-.6.61-2.05h.84v2.22h2.77V23.9h-2.77v5.63a1.91,1.91,0,0,0,.41,1.33A1.45,1.45,0,0,0,160.35,31.32Z"/><path class="cls-2" d="M169.45,32.34,169.16,31h-.07a4.07,4.07,0,0,1-1.42,1.22,4.44,4.44,0,0,1-1.78.31,3.19,3.19,0,0,1-2.23-.73,2.69,2.69,0,0,1-.8-2.08c0-1.93,1.54-2.95,4.63-3l1.62-.05V26a2.47,2.47,0,0,0-.48-1.67,2,2,0,0,0-1.55-.53,6.3,6.3,0,0,0-2.71.73l-.44-1.11a7.34,7.34,0,0,1,1.55-.6,6.92,6.92,0,0,1,1.68-.22,3.69,3.69,0,0,1,2.54.76,3.17,3.17,0,0,1,.82,2.43v6.53Zm-3.27-1a2.94,2.94,0,0,0,2.12-.74,2.74,2.74,0,0,0,.77-2.08v-.86l-1.44.06a5.22,5.22,0,0,0-2.49.54,1.6,1.6,0,0,0-.77,1.47,1.5,1.5,0,0,0,.48,1.2A2,2,0,0,0,166.18,31.32Z"/><path class="cls-2" d="M175,32.34h-1.44V18.77H175Z"/><path class="cls-2" d="M189.17,31.06h-.08a3.4,3.4,0,0,1-3,1.45,3.54,3.54,0,0,1-2.92-1.28,5.67,5.67,0,0,1-1-3.65,5.75,5.75,0,0,1,1.05-3.67,3.52,3.52,0,0,1,2.91-1.3,3.47,3.47,0,0,1,3,1.41h.12l-.06-.69,0-.67V18.77h1.45V32.34h-1.18Zm-2.9.24a2.62,2.62,0,0,0,2.15-.81,4,4,0,0,0,.67-2.6v-.31a4.76,4.76,0,0,0-.67-2.89,2.58,2.58,0,0,0-2.16-.87,2.22,2.22,0,0,0-1.95,1,4.92,4.92,0,0,0-.68,2.79,4.79,4.79,0,0,0,.67,2.77A2.29,2.29,0,0,0,186.27,31.3Z"/><path class="cls-2" d="M197.65,32.51a4.4,4.4,0,0,1-3.35-1.29,5,5,0,0,1-1.22-3.58A5.52,5.52,0,0,1,194.22,24a3.74,3.74,0,0,1,3.05-1.36,3.61,3.61,0,0,1,2.85,1.18,4.56,4.56,0,0,1,1,3.12v.91h-6.58a3.82,3.82,0,0,0,.85,2.56,2.94,2.94,0,0,0,2.27.87,7.67,7.67,0,0,0,3.05-.65v1.29a7.23,7.23,0,0,1-1.45.48A7.93,7.93,0,0,1,197.65,32.51Zm-.4-8.69a2.37,2.37,0,0,0-1.83.75,3.42,3.42,0,0,0-.81,2.07h5a3.14,3.14,0,0,0-.61-2.09A2.15,2.15,0,0,0,197.25,23.82Z"/><path class="cls-2" d="M214,20.73a4.18,4.18,0,0,0-3.32,1.4A5.64,5.64,0,0,0,209.41,26a5.72,5.72,0,0,0,1.18,3.87,4.16,4.16,0,0,0,3.34,1.37,11.45,11.45,0,0,0,3-.48V32a9.49,9.49,0,0,1-3.28.49,5.53,5.53,0,0,1-4.34-1.71A7,7,0,0,1,207.83,26a7.7,7.7,0,0,1,.73-3.46,5.22,5.22,0,0,1,2.13-2.28A6.41,6.41,0,0,1,214,19.4a7.88,7.88,0,0,1,3.5.74l-.63,1.27A6.79,6.79,0,0,0,214,20.73Z"/><path class="cls-2" d="M220.9,22.78V29a2.54,2.54,0,0,0,.53,1.75,2.19,2.19,0,0,0,1.67.57,2.7,2.7,0,0,0,2.19-.82,4.16,4.16,0,0,0,.7-2.68v-5h1.44v9.56h-1.19L226,31.06H226a2.93,2.93,0,0,1-1.23,1.08,4.17,4.17,0,0,1-1.8.37,3.63,3.63,0,0,1-2.62-.83,3.51,3.51,0,0,1-.86-2.65V22.78Z"/><path class="cls-2" d="M236.38,32.34,236.09,31H236a4.07,4.07,0,0,1-1.42,1.22,4.44,4.44,0,0,1-1.78.31,3.21,3.21,0,0,1-2.23-.73,2.69,2.69,0,0,1-.8-2.08c0-1.93,1.54-2.95,4.63-3l1.62-.05V26a2.47,2.47,0,0,0-.48-1.67,2,2,0,0,0-1.55-.53,6.23,6.23,0,0,0-2.7.73l-.45-1.11a7.34,7.34,0,0,1,1.55-.6,6.94,6.94,0,0,1,1.69-.22,3.66,3.66,0,0,1,2.53.76,3.17,3.17,0,0,1,.82,2.43v6.53Zm-3.27-1a2.94,2.94,0,0,0,2.12-.74A2.74,2.74,0,0,0,236,28.5v-.86l-1.45.06a5.22,5.22,0,0,0-2.49.54,1.59,1.59,0,0,0-.76,1.47,1.49,1.49,0,0,0,.47,1.2A2,2,0,0,0,233.11,31.32Z"/><path class="cls-2" d="M246.94,31.06h-.07a3.4,3.4,0,0,1-3,1.45A3.52,3.52,0,0,1,241,31.23a5.61,5.61,0,0,1-1-3.65,5.74,5.74,0,0,1,1-3.67,3.53,3.53,0,0,1,2.92-1.3,3.48,3.48,0,0,1,3,1.41H247l-.06-.69,0-.67V18.77h1.44V32.34h-1.17Zm-2.89.24a2.64,2.64,0,0,0,2.15-.81,4.07,4.07,0,0,0,.67-2.6v-.31a4.76,4.76,0,0,0-.68-2.89,2.56,2.56,0,0,0-2.16-.87,2.22,2.22,0,0,0-1.95,1,4.92,4.92,0,0,0-.67,2.79,4.72,4.72,0,0,0,.67,2.77A2.26,2.26,0,0,0,244.05,31.3Z"/><path class="cls-2" d="M255.42,32.51a4.38,4.38,0,0,1-3.34-1.29,5,5,0,0,1-1.23-3.58A5.52,5.52,0,0,1,252,24a3.78,3.78,0,0,1,3.06-1.36,3.6,3.6,0,0,1,2.84,1.18,4.51,4.51,0,0,1,1.05,3.12v.91h-6.59a3.82,3.82,0,0,0,.85,2.56,3,3,0,0,0,2.27.87,7.76,7.76,0,0,0,3.06-.65v1.29a7.3,7.3,0,0,1-1.46.48A7.81,7.81,0,0,1,255.42,32.51ZM255,23.82a2.37,2.37,0,0,0-1.84.75,3.48,3.48,0,0,0-.8,2.07h5a3.14,3.14,0,0,0-.61-2.09A2.11,2.11,0,0,0,255,23.82Z"/><path class="cls-2" d="M265.77,22.61a5.69,5.69,0,0,1,1.14.1l-.2,1.34a5.54,5.54,0,0,0-1-.13,2.57,2.57,0,0,0-2,.94,3.44,3.44,0,0,0-.83,2.35v5.13h-1.44V22.78h1.19l.17,1.77h.07a4.2,4.2,0,0,1,1.28-1.44A2.86,2.86,0,0,1,265.77,22.61Z"/><path class="cls-2" d="M275.24,32.34V26.16a2.53,2.53,0,0,0-.53-1.75,2.19,2.19,0,0,0-1.67-.58,2.77,2.77,0,0,0-2.2.82,4.11,4.11,0,0,0-.7,2.67v5H268.7V22.78h1.17l.24,1.31h.07a3,3,0,0,1,1.25-1.1,4,4,0,0,1,1.78-.38,3.6,3.6,0,0,1,2.6.83,3.49,3.49,0,0,1,.88,2.66v6.24Z"/><path class="cls-2" d="M287.91,27.55a5.24,5.24,0,0,1-1.18,3.65,4.12,4.12,0,0,1-3.25,1.31,4.36,4.36,0,0,1-2.28-.6,4,4,0,0,1-1.53-1.73,6,6,0,0,1-.54-2.63,5.26,5.26,0,0,1,1.17-3.64,4.13,4.13,0,0,1,3.24-1.3,4,4,0,0,1,3.19,1.33A5.23,5.23,0,0,1,287.91,27.55Zm-7.28,0a4.53,4.53,0,0,0,.73,2.79,2.91,2.91,0,0,0,4.31,0,4.47,4.47,0,0,0,.74-2.8,4.38,4.38,0,0,0-.74-2.77,2.94,2.94,0,0,0-4.32,0A4.5,4.5,0,0,0,280.63,27.55Z"/><path class="cls-2" d="M296.62,29.73a2.41,2.41,0,0,1-1,2.06,4.68,4.68,0,0,1-2.79.72,6.1,6.1,0,0,1-3-.6V30.57a7.91,7.91,0,0,0,1.48.55,6.43,6.43,0,0,0,1.53.2,3.47,3.47,0,0,0,1.74-.36,1.2,1.2,0,0,0,.61-1.11,1.19,1.19,0,0,0-.48-1,7.66,7.66,0,0,0-1.89-.94,10.12,10.12,0,0,1-1.9-.87,2.59,2.59,0,0,1-.84-.84,2.21,2.21,0,0,1-.27-1.12,2.16,2.16,0,0,1,1-1.85,4.42,4.42,0,0,1,2.61-.67,7.63,7.63,0,0,1,3,.62l-.52,1.18a7,7,0,0,0-2.61-.59,3,3,0,0,0-1.55.32,1,1,0,0,0-.52.89,1.06,1.06,0,0,0,.19.65,1.85,1.85,0,0,0,.64.52,14.21,14.21,0,0,0,1.67.71,6.26,6.26,0,0,1,2.3,1.24A2.21,2.21,0,0,1,296.62,29.73Z"/><path class="cls-2" d="M19.72,73.55H18.3V64.46c0-.75,0-1.47.07-2.14L18,62.7c-.15.13-.84.7-2.07,1.7l-.77-1,3.37-2.61h1.23Z"/><path class="cls-2" d="M33,67.16A9.22,9.22,0,0,1,32,72.09a3.5,3.5,0,0,1-3.18,1.64,3.5,3.5,0,0,1-3.14-1.68,9.14,9.14,0,0,1-1.07-4.89,9.36,9.36,0,0,1,1-4.95,3.52,3.52,0,0,1,3.17-1.61,3.51,3.51,0,0,1,3.15,1.68A9.08,9.08,0,0,1,33,67.16Zm-7,0a9.46,9.46,0,0,0,.65,4,2.2,2.2,0,0,0,2.09,1.27,2.18,2.18,0,0,0,2.09-1.29,9.3,9.3,0,0,0,.65-4,9.27,9.27,0,0,0-.65-4,2.35,2.35,0,0,0-4.18,0A9.35,9.35,0,0,0,26.05,67.16Z"/><path class="cls-2" d="M43.9,73.73a4.09,4.09,0,0,1-3.21-1.28,5.26,5.26,0,0,1-1.14-3.62,5.39,5.39,0,0,1,1.15-3.7A4.16,4.16,0,0,1,44,63.82a6.48,6.48,0,0,1,1.38.15,4.6,4.6,0,0,1,1.08.34L46,65.54a7.47,7.47,0,0,0-1-.31,4.43,4.43,0,0,0-1-.13q-2.91,0-2.91,3.71a4.46,4.46,0,0,0,.71,2.71,2.47,2.47,0,0,0,2.11.94A6.52,6.52,0,0,0,46.32,72v1.28A5.26,5.26,0,0,1,43.9,73.73Z"/><path class="cls-2" d="M50,64v6.2a2.49,2.49,0,0,0,.53,1.75,2.17,2.17,0,0,0,1.66.57,2.73,2.73,0,0,0,2.2-.82A4.13,4.13,0,0,0,55,69V64h1.45v9.56h-1.2l-.21-1.28H55a2.9,2.9,0,0,1-1.24,1.08,4.17,4.17,0,0,1-1.8.38,3.67,3.67,0,0,1-2.61-.83,3.54,3.54,0,0,1-.87-2.65V64Z"/><path class="cls-2" d="M65.43,73.55l-.29-1.36h-.07a4.09,4.09,0,0,1-1.43,1.22,4.34,4.34,0,0,1-1.77.32A3.19,3.19,0,0,1,59.64,73a2.66,2.66,0,0,1-.81-2.08c0-1.93,1.55-2.94,4.63-3l1.63-.05v-.59a2.37,2.37,0,0,0-.49-1.66A2,2,0,0,0,63.05,65a6.3,6.3,0,0,0-2.7.73l-.44-1.11a7.26,7.26,0,0,1,1.54-.6,7.06,7.06,0,0,1,1.69-.22,3.69,3.69,0,0,1,2.54.76A3.18,3.18,0,0,1,66.5,67v6.52Zm-3.27-1a2.94,2.94,0,0,0,2.12-.74,2.78,2.78,0,0,0,.77-2.08v-.86l-1.45.06a5.22,5.22,0,0,0-2.49.54,1.61,1.61,0,0,0-.76,1.48,1.47,1.47,0,0,0,.48,1.19A2,2,0,0,0,62.16,72.53Z"/><path class="cls-2" d="M76,72.27h-.08a3.41,3.41,0,0,1-3,1.46A3.55,3.55,0,0,1,70,72.44a5.66,5.66,0,0,1-1-3.64,5.71,5.71,0,0,1,1-3.67,3.87,3.87,0,0,1,5.89.1H76L76,64.54l0-.67V60h1.45V73.55H76.18Zm-2.9.24a2.65,2.65,0,0,0,2.15-.8,4.06,4.06,0,0,0,.67-2.61v-.3a4.72,4.72,0,0,0-.68-2.9A2.56,2.56,0,0,0,73.08,65a2.22,2.22,0,0,0-2,1,4.92,4.92,0,0,0-.68,2.79,4.7,4.7,0,0,0,.67,2.77A2.29,2.29,0,0,0,73.09,72.51Z"/><path class="cls-2" d="M84.47,73.73a4.41,4.41,0,0,1-3.35-1.3,5,5,0,0,1-1.22-3.58A5.57,5.57,0,0,1,81,65.18a3.78,3.78,0,0,1,3.06-1.36A3.61,3.61,0,0,1,86.94,65a4.57,4.57,0,0,1,1,3.12V69H81.4a3.78,3.78,0,0,0,.85,2.56,2.92,2.92,0,0,0,2.27.87,7.66,7.66,0,0,0,3-.64v1.29a7.16,7.16,0,0,1-1.45.47A7.87,7.87,0,0,1,84.47,73.73Zm-.4-8.7a2.35,2.35,0,0,0-1.83.75,3.43,3.43,0,0,0-.81,2.08h5a3.15,3.15,0,0,0-.61-2.1A2.15,2.15,0,0,0,84.07,65Z"/><path class="cls-2" d="M94.81,63.82a5.56,5.56,0,0,1,1.14.1l-.2,1.34a5.35,5.35,0,0,0-1-.13,2.55,2.55,0,0,0-2,1,3.41,3.41,0,0,0-.82,2.34v5.13H90.45V64h1.2l.16,1.77h.07a4.2,4.2,0,0,1,1.28-1.44A2.94,2.94,0,0,1,94.81,63.82Z"/><path class="cls-2" d="M104.28,73.55V67.37a2.49,2.49,0,0,0-.53-1.75,2.18,2.18,0,0,0-1.67-.57,2.72,2.72,0,0,0-2.19.81,4.06,4.06,0,0,0-.7,2.68v5H97.74V64h1.18l.23,1.31h.07a3,3,0,0,1,1.25-1.09,4.05,4.05,0,0,1,1.79-.39,3.61,3.61,0,0,1,2.6.83,3.55,3.55,0,0,1,.87,2.66v6.24Z"/><path class="cls-2" d="M117,68.76a5.29,5.29,0,0,1-1.18,3.65,4.14,4.14,0,0,1-3.25,1.32,4.32,4.32,0,0,1-2.28-.61,4,4,0,0,1-1.54-1.72,6,6,0,0,1-.54-2.64,5.26,5.26,0,0,1,1.17-3.64,4.13,4.13,0,0,1,3.25-1.3,4,4,0,0,1,3.18,1.33A5.26,5.26,0,0,1,117,68.76Zm-7.29,0a4.53,4.53,0,0,0,.74,2.79,2.52,2.52,0,0,0,2.15,1,2.57,2.57,0,0,0,2.16-1,4.54,4.54,0,0,0,.74-2.8,4.46,4.46,0,0,0-.74-2.77,2.59,2.59,0,0,0-2.18-.94,2.54,2.54,0,0,0-2.14.93A4.44,4.44,0,0,0,109.67,68.76Z"/><path class="cls-2" d="M125.66,70.94a2.4,2.4,0,0,1-1,2.06,4.72,4.72,0,0,1-2.79.73,6.09,6.09,0,0,1-3-.61V71.78a7.06,7.06,0,0,0,1.48.55,6.29,6.29,0,0,0,1.52.2,3.42,3.42,0,0,0,1.74-.36,1.2,1.2,0,0,0,.62-1.1,1.22,1.22,0,0,0-.49-1,7.64,7.64,0,0,0-1.89-.94A9.67,9.67,0,0,1,120,68.3a2.41,2.41,0,0,1-.84-.84,2.21,2.21,0,0,1-.28-1.12,2.16,2.16,0,0,1,1-1.85,4.47,4.47,0,0,1,2.61-.67,7.61,7.61,0,0,1,3,.63L125,65.62a7,7,0,0,0-2.61-.59,3.08,3.08,0,0,0-1.56.32,1,1,0,0,0-.52.89,1.1,1.1,0,0,0,.2.66,1.89,1.89,0,0,0,.63.51,15,15,0,0,0,1.67.71,6.32,6.32,0,0,1,2.3,1.24A2.21,2.21,0,0,1,125.66,70.94Z"/><path class="cls-2" d="M164.56,73.55h-1.41V64.46c0-.75,0-1.47.07-2.14l-.41.38-2.08,1.7-.77-1,3.38-2.61h1.22Z"/><path class="cls-2" d="M177.86,67.16a9.33,9.33,0,0,1-1,4.93,3.53,3.53,0,0,1-3.19,1.64,3.49,3.49,0,0,1-3.13-1.68,9.05,9.05,0,0,1-1.07-4.89,9.26,9.26,0,0,1,1-4.95,3.85,3.85,0,0,1,6.31.07A9.08,9.08,0,0,1,177.86,67.16Zm-7,0a9.28,9.28,0,0,0,.66,4,2.35,2.35,0,0,0,4.18,0,9.45,9.45,0,0,0,.65-4,9.42,9.42,0,0,0-.65-4,2.35,2.35,0,0,0-4.18,0A9.17,9.17,0,0,0,170.89,67.16Z"/><path class="cls-2" d="M188.75,73.73a4.09,4.09,0,0,1-3.22-1.28,5.26,5.26,0,0,1-1.14-3.62,5.4,5.4,0,0,1,1.16-3.7,4.14,4.14,0,0,1,3.29-1.31,6.48,6.48,0,0,1,1.38.15,4.31,4.31,0,0,1,1.08.34l-.44,1.23a7.22,7.22,0,0,0-1.05-.31,4.36,4.36,0,0,0-1-.13c-1.94,0-2.92,1.24-2.92,3.71a4.46,4.46,0,0,0,.71,2.71,2.48,2.48,0,0,0,2.11.94,6.44,6.44,0,0,0,2.45-.51v1.28A5.22,5.22,0,0,1,188.75,73.73Z"/><path class="cls-2" d="M194.79,64v6.2a2.54,2.54,0,0,0,.53,1.75,2.19,2.19,0,0,0,1.67.57,2.7,2.7,0,0,0,2.19-.82,4.13,4.13,0,0,0,.7-2.67V64h1.44v9.56h-1.19l-.21-1.28h-.08a2.93,2.93,0,0,1-1.23,1.08,4.17,4.17,0,0,1-1.8.38,3.68,3.68,0,0,1-2.62-.83,3.54,3.54,0,0,1-.86-2.65V64Z"/><path class="cls-2" d="M210.27,73.55,210,72.19h-.07a4.07,4.07,0,0,1-1.42,1.22,4.43,4.43,0,0,1-1.78.32,3.21,3.21,0,0,1-2.23-.74,2.69,2.69,0,0,1-.8-2.08q0-2.89,4.63-3l1.62-.05v-.59a2.42,2.42,0,0,0-.48-1.66A2,2,0,0,0,207.9,65a6.23,6.23,0,0,0-2.7.73l-.45-1.11a7.34,7.34,0,0,1,1.55-.6,6.94,6.94,0,0,1,1.69-.22,3.66,3.66,0,0,1,2.53.76,3.18,3.18,0,0,1,.82,2.44v6.52Zm-3.27-1a3,3,0,0,0,2.13-.74,2.78,2.78,0,0,0,.77-2.08v-.86l-1.45.06a5.22,5.22,0,0,0-2.49.54,1.61,1.61,0,0,0-.76,1.48,1.47,1.47,0,0,0,.47,1.19A2,2,0,0,0,207,72.53Z"/><path class="cls-2" d="M220.83,72.27h-.07a3.41,3.41,0,0,1-3,1.46,3.53,3.53,0,0,1-2.92-1.29,5.6,5.6,0,0,1-1-3.64,5.71,5.71,0,0,1,1-3.67,3.88,3.88,0,0,1,5.9.1h.11l-.06-.69,0-.67V60h1.44V73.55H221Zm-2.89.24a2.66,2.66,0,0,0,2.15-.8,4.13,4.13,0,0,0,.67-2.61v-.3a4.79,4.79,0,0,0-.68-2.9,2.56,2.56,0,0,0-2.16-.87A2.22,2.22,0,0,0,216,66a4.92,4.92,0,0,0-.67,2.79,4.7,4.7,0,0,0,.67,2.77A2.27,2.27,0,0,0,217.94,72.51Z"/><path class="cls-2" d="M229.31,73.73a4.38,4.38,0,0,1-3.34-1.3,5,5,0,0,1-1.23-3.58,5.52,5.52,0,0,1,1.14-3.67,3.78,3.78,0,0,1,3.06-1.36A3.6,3.6,0,0,1,231.78,65a4.53,4.53,0,0,1,1.05,3.12V69h-6.59a3.78,3.78,0,0,0,.85,2.56,3,3,0,0,0,2.27.87,7.74,7.74,0,0,0,3.06-.64v1.29a7.24,7.24,0,0,1-1.46.47A7.74,7.74,0,0,1,229.31,73.73Zm-.39-8.7a2.37,2.37,0,0,0-1.84.75,3.48,3.48,0,0,0-.8,2.08h5a3.15,3.15,0,0,0-.61-2.1A2.11,2.11,0,0,0,228.92,65Z"/><path class="cls-2" d="M239.66,63.82a5.69,5.69,0,0,1,1.14.1l-.2,1.34a5.54,5.54,0,0,0-1-.13,2.55,2.55,0,0,0-2,1,3.42,3.42,0,0,0-.83,2.34v5.13H235.3V64h1.19l.17,1.77h.07A4.2,4.2,0,0,1,238,64.32,2.94,2.94,0,0,1,239.66,63.82Z"/><path class="cls-2" d="M249.13,73.55V67.37a2.54,2.54,0,0,0-.53-1.75,2.19,2.19,0,0,0-1.67-.57,2.76,2.76,0,0,0-2.2.81,4.12,4.12,0,0,0-.7,2.68v5h-1.44V64h1.17L244,65.3h.07a2.89,2.89,0,0,1,1.25-1.09,4,4,0,0,1,1.78-.39,3.6,3.6,0,0,1,2.6.83,3.51,3.51,0,0,1,.88,2.66v6.24Z"/><path class="cls-2" d="M261.8,68.76a5.24,5.24,0,0,1-1.18,3.65,4.13,4.13,0,0,1-3.25,1.32,4.37,4.37,0,0,1-2.28-.61,4,4,0,0,1-1.53-1.72,6,6,0,0,1-.54-2.64,5.26,5.26,0,0,1,1.17-3.64,4.13,4.13,0,0,1,3.24-1.3,4,4,0,0,1,3.19,1.33A5.25,5.25,0,0,1,261.8,68.76Zm-7.28,0a4.53,4.53,0,0,0,.73,2.79,2.91,2.91,0,0,0,4.31,0,4.47,4.47,0,0,0,.74-2.8,4.4,4.4,0,0,0-.74-2.77,3,3,0,0,0-4.32,0A4.5,4.5,0,0,0,254.52,68.76Z"/><path class="cls-2" d="M270.51,70.94a2.41,2.41,0,0,1-1,2.06,4.68,4.68,0,0,1-2.79.73,6.09,6.09,0,0,1-3-.61V71.78a7.27,7.27,0,0,0,1.48.55,6.43,6.43,0,0,0,1.53.2,3.47,3.47,0,0,0,1.74-.36,1.19,1.19,0,0,0,.61-1.1,1.21,1.21,0,0,0-.48-1,8,8,0,0,0-1.89-.94,10.12,10.12,0,0,1-1.9-.87,2.59,2.59,0,0,1-.84-.84,2.21,2.21,0,0,1-.27-1.12,2.16,2.16,0,0,1,.95-1.85,4.42,4.42,0,0,1,2.61-.67,7.64,7.64,0,0,1,3,.63l-.52,1.17a7,7,0,0,0-2.61-.59,3.06,3.06,0,0,0-1.55.32,1,1,0,0,0-.52.89,1.09,1.09,0,0,0,.19.66,1.84,1.84,0,0,0,.64.51,14.21,14.21,0,0,0,1.67.71,6.42,6.42,0,0,1,2.3,1.24A2.21,2.21,0,0,1,270.51,70.94Z"/><path class="cls-2" d="M307.87,73.55h-1.41V64.46c0-.75,0-1.47.07-2.14l-.41.38c-.15.13-.84.7-2.08,1.7l-.77-1,3.38-2.61h1.22Z"/><path class="cls-2" d="M321.17,67.16a9.33,9.33,0,0,1-1,4.93,3.84,3.84,0,0,1-6.32,0,9.14,9.14,0,0,1-1.07-4.89,9.26,9.26,0,0,1,1-4.95,3.86,3.86,0,0,1,6.32.07A9.18,9.18,0,0,1,321.17,67.16Zm-7,0a9.28,9.28,0,0,0,.66,4,2.35,2.35,0,0,0,4.18,0,9.45,9.45,0,0,0,.65-4,9.42,9.42,0,0,0-.65-4,2.35,2.35,0,0,0-4.18,0A9.17,9.17,0,0,0,314.2,67.16Z"/><path class="cls-2" d="M332.06,73.73a4.09,4.09,0,0,1-3.22-1.28,5.25,5.25,0,0,1-1.13-3.62,5.39,5.39,0,0,1,1.15-3.7,4.14,4.14,0,0,1,3.29-1.31,6.48,6.48,0,0,1,1.38.15,4.31,4.31,0,0,1,1.08.34l-.44,1.23a7.22,7.22,0,0,0-1.05-.31,4.36,4.36,0,0,0-1-.13q-2.91,0-2.91,3.71a4.4,4.4,0,0,0,.71,2.71,2.45,2.45,0,0,0,2.1.94,6.44,6.44,0,0,0,2.45-.51v1.28A5.22,5.22,0,0,1,332.06,73.73Z"/><path class="cls-2" d="M338.1,64v6.2a2.54,2.54,0,0,0,.53,1.75,2.19,2.19,0,0,0,1.67.57,2.7,2.7,0,0,0,2.19-.82,4.07,4.07,0,0,0,.7-2.67V64h1.44v9.56h-1.19l-.21-1.28h-.08a2.93,2.93,0,0,1-1.23,1.08,4.17,4.17,0,0,1-1.8.38,3.68,3.68,0,0,1-2.62-.83,3.58,3.58,0,0,1-.86-2.65V64Z"/><path class="cls-2" d="M353.58,73.55l-.28-1.36h-.07a4.18,4.18,0,0,1-1.43,1.22,4.39,4.39,0,0,1-1.78.32A3.17,3.17,0,0,1,347.8,73a2.66,2.66,0,0,1-.81-2.08q0-2.89,4.63-3l1.62-.05v-.59a2.42,2.42,0,0,0-.48-1.66,2,2,0,0,0-1.55-.54,6.23,6.23,0,0,0-2.7.73l-.45-1.11a7.34,7.34,0,0,1,1.55-.6,6.94,6.94,0,0,1,1.69-.22,3.66,3.66,0,0,1,2.53.76,3.18,3.18,0,0,1,.83,2.44v6.52Zm-3.27-1a3,3,0,0,0,2.13-.74,2.78,2.78,0,0,0,.77-2.08v-.86l-1.45.06a5.22,5.22,0,0,0-2.49.54,1.61,1.61,0,0,0-.76,1.48,1.47,1.47,0,0,0,.47,1.19A2,2,0,0,0,350.31,72.53Z"/><path class="cls-2" d="M364.15,72.27h-.08a3.41,3.41,0,0,1-3,1.46,3.54,3.54,0,0,1-2.92-1.29,5.6,5.6,0,0,1-1-3.64,5.77,5.77,0,0,1,1-3.67,3.88,3.88,0,0,1,5.9.1h.11l-.06-.69,0-.67V60h1.44V73.55h-1.17Zm-2.9.24a2.66,2.66,0,0,0,2.15-.8,4.13,4.13,0,0,0,.67-2.61v-.3a4.79,4.79,0,0,0-.68-2.9,2.56,2.56,0,0,0-2.16-.87,2.22,2.22,0,0,0-2,1,4.92,4.92,0,0,0-.67,2.79,4.7,4.7,0,0,0,.67,2.77A2.27,2.27,0,0,0,361.25,72.51Z"/><path class="cls-2" d="M372.62,73.73a4.4,4.4,0,0,1-3.34-1.3,5,5,0,0,1-1.23-3.58,5.52,5.52,0,0,1,1.14-3.67,3.78,3.78,0,0,1,3.06-1.36A3.59,3.59,0,0,1,375.09,65a4.53,4.53,0,0,1,1.05,3.12V69h-6.59a3.83,3.83,0,0,0,.85,2.56,3,3,0,0,0,2.28.87,7.73,7.73,0,0,0,3.05-.64v1.29a7.37,7.37,0,0,1-1.45.47A7.91,7.91,0,0,1,372.62,73.73Zm-.39-8.7a2.37,2.37,0,0,0-1.84.75,3.48,3.48,0,0,0-.8,2.08h5a3.21,3.21,0,0,0-.61-2.1A2.15,2.15,0,0,0,372.23,65Z"/><path class="cls-2" d="M383,63.82a5.69,5.69,0,0,1,1.14.1l-.2,1.34a5.54,5.54,0,0,0-1.05-.13,2.55,2.55,0,0,0-2,1,3.42,3.42,0,0,0-.83,2.34v5.13h-1.44V64h1.19l.17,1.77H380a4.2,4.2,0,0,1,1.28-1.44A2.94,2.94,0,0,1,383,63.82Z"/><path class="cls-2" d="M392.44,73.55V67.37a2.54,2.54,0,0,0-.53-1.75,2.19,2.19,0,0,0-1.67-.57,2.76,2.76,0,0,0-2.2.81,4.12,4.12,0,0,0-.69,2.68v5H385.9V64h1.17l.24,1.31h.07a2.89,2.89,0,0,1,1.25-1.09,4,4,0,0,1,1.79-.39,3.63,3.63,0,0,1,2.6.83,3.55,3.55,0,0,1,.87,2.66v6.24Z"/><path class="cls-2" d="M405.11,68.76a5.24,5.24,0,0,1-1.18,3.65,4.13,4.13,0,0,1-3.25,1.32,4.37,4.37,0,0,1-2.28-.61,4,4,0,0,1-1.53-1.72,6,6,0,0,1-.54-2.64,5.26,5.26,0,0,1,1.17-3.64,4.13,4.13,0,0,1,3.24-1.3,4,4,0,0,1,3.19,1.33A5.25,5.25,0,0,1,405.11,68.76Zm-7.28,0a4.53,4.53,0,0,0,.73,2.79,2.91,2.91,0,0,0,4.31,0,4.47,4.47,0,0,0,.74-2.8,4.4,4.4,0,0,0-.74-2.77,3,3,0,0,0-4.32,0A4.5,4.5,0,0,0,397.83,68.76Z"/><path class="cls-2" d="M413.82,70.94a2.41,2.41,0,0,1-1,2.06,4.68,4.68,0,0,1-2.79.73,6,6,0,0,1-3-.61V71.78a7,7,0,0,0,1.47.55,6.43,6.43,0,0,0,1.53.2,3.47,3.47,0,0,0,1.74-.36,1.19,1.19,0,0,0,.61-1.1,1.21,1.21,0,0,0-.48-1,8,8,0,0,0-1.89-.94,10.12,10.12,0,0,1-1.9-.87,2.59,2.59,0,0,1-.84-.84,2.21,2.21,0,0,1-.27-1.12,2.16,2.16,0,0,1,.95-1.85,4.42,4.42,0,0,1,2.61-.67,7.64,7.64,0,0,1,3,.63l-.52,1.17a7,7,0,0,0-2.61-.59,3.06,3.06,0,0,0-1.55.32,1,1,0,0,0-.52.89,1.09,1.09,0,0,0,.19.66,1.94,1.94,0,0,0,.64.51,15,15,0,0,0,1.67.71,6.42,6.42,0,0,1,2.3,1.24A2.21,2.21,0,0,1,413.82,70.94Z"/><rect class="cls-1" x="138.9" y="45.07" width="3" height="43.57"/><rect class="cls-1" x="287.16" y="45.07" width="3" height="43.57"/></g></g></svg>