<svg xmlns="http://www.w3.org/2000/svg" xmlns:xlink="http://www.w3.org/1999/xlink" viewBox="0 0 480 261.5"><defs><style>.cls-1{fill:url(#linear-gradient);}.cls-2{fill:#f58220;stroke:#ececec;}.cls-2,.cls-5{stroke-miterlimit:10;stroke-width:0.9px;}.cls-3{fill:#ecebeb;}.cls-4{fill:#ea802a;}.cls-5{fill:none;stroke:#ea802a;}</style><linearGradient id="linear-gradient" y1="26.07" x2="480" y2="26.07" gradientUnits="userSpaceOnUse"><stop offset="0" stop-color="#f58220"/><stop offset="1" stop-color="#bd2726"/></linearGradient></defs><title>cdu2</title><g id="Layer_2" data-name="Layer 2"><g id="Tabla_C" data-name="Tabla C"><path class="cls-1" d="M360,0H9C4,0,0,5.36,0,12V52.14H480V12c0-6.62-4-12-9-12Z"/><line class="cls-2" x1="160" x2="160" y2="51.21"/><line class="cls-2" x1="320" x2="320" y2="52.14"/><path class="cls-3" d="M238.59,12.33A13.32,13.32,0,0,1,248.15,16,12.21,12.21,0,0,1,252,25.22a12.25,12.25,0,0,1-3.82,9.27,13.29,13.29,0,0,1-9.56,3.65H230.8V12.33Zm-5.74,24h5.5a11.23,11.23,0,0,0,8.13-3.17,10.59,10.59,0,0,0,3.27-7.91,10.5,10.5,0,0,0-3.27-7.89,11.26,11.26,0,0,0-8.13-3.15h-5.5Z"/><path class="cls-3" d="M395.38,12.33V28.77a7.91,7.91,0,0,0,2.15,5.72,8.35,8.35,0,0,0,11.36,0A7.91,7.91,0,0,0,411,28.77V12.33h2.06V28.89A9.53,9.53,0,0,1,410.44,36,11.25,11.25,0,0,1,396,36a9.53,9.53,0,0,1-2.66-7.08V12.33Z"/><path class="cls-4" d="M480,156.9H0V51.21H480ZM.71,156H479.29V52.16H.71Z"/><line class="cls-5" x1="160" y1="52.14" x2="160" y2="156.43"/><line class="cls-5" x1="320" y1="52.14" x2="320" y2="156.43"/><path class="cls-4" d="M470.62,261.5H9.36C4.2,261.5,0,255.9,0,249V156H480v93C480,255.9,475.78,261.5,470.62,261.5ZM.75,157v92c0,6.33,3.86,11.49,8.61,11.49H470.62c4.75,0,8.61-5.16,8.61-11.49V157Z"/><line class="cls-5" x1="160" y1="156.94" x2="160" y2="261.23"/><line class="cls-5" x1="320" y1="156.94" x2="320" y2="261.23"/><path class="cls-3" d="M83.31,14a12,12,0,0,1,4.27,4.41l-1.88.84a9.3,9.3,0,0,0-3.45-3.61,9.41,9.41,0,0,0-4.9-1.29,8.94,8.94,0,0,0-7.1,3.17,12.15,12.15,0,0,0-2.73,8.23,12.18,12.18,0,0,0,2.73,8.23,8.93,8.93,0,0,0,7.1,3.16,9.33,9.33,0,0,0,4.9-1.3,9.57,9.57,0,0,0,3.45-3.63l1.88.86a12,12,0,0,1-4.27,4.4,11.35,11.35,0,0,1-6,1.6,11.11,11.11,0,0,1-8.63-3.78,13.79,13.79,0,0,1-3.4-9.57,13.75,13.75,0,0,1,3.4-9.56,11.11,11.11,0,0,1,8.63-3.77A11.27,11.27,0,0,1,83.31,14Z"/></g></g></svg>