<svg xmlns="http://www.w3.org/2000/svg" xmlns:xlink="http://www.w3.org/1999/xlink" viewBox="0 0 640.06 366.24"><defs><style>.cls-1{fill:url(#linear-gradient);}.cls-2{fill:#db812d;stroke:#ebebeb;}.cls-2,.cls-5{stroke-miterlimit:10;stroke-width:0.9px;}.cls-3{fill:#ebebea;}.cls-4{fill:#d27f34;}.cls-5{fill:none;stroke:#d27f34;}</style><linearGradient id="linear-gradient" x1="0.06" y1="26.07" x2="640.06" y2="26.07" gradientUnits="userSpaceOnUse"><stop offset="0" stop-color="#db812d"/><stop offset="1" stop-color="#a22a2a"/></linearGradient></defs><title>dudc3_1</title><g id="Capa_2" data-name="Capa 2"><g id="Tabla_C" data-name="Tabla C"><path class="cls-1" d="M480.06,0H12a12,12,0,0,0-12,12V52.14h640V12a12,12,0,0,0-12-12Z"/><line class="cls-2" x1="160.06" x2="160.06" y2="52.14"/><line class="cls-2" x1="320.06" x2="320.06" y2="35.47"/><line class="cls-2" x1="320.06" y1="48.17" x2="320.06" y2="52.14"/><line class="cls-2" x1="480.06" x2="480.06" y2="52.14"/><path class="cls-3" d="M79.69,12.33A13.32,13.32,0,0,1,89.25,16a12.21,12.21,0,0,1,3.82,9.26,12.25,12.25,0,0,1-3.82,9.27,13.29,13.29,0,0,1-9.56,3.65H71.9V12.33ZM74,36.3h5.5a11.23,11.23,0,0,0,8.13-3.17,10.59,10.59,0,0,0,3.27-7.91,10.5,10.5,0,0,0-3.27-7.89,11.26,11.26,0,0,0-8.13-3.15H74Z"/><path class="cls-3" d="M232.23,12.33V28.77a7.91,7.91,0,0,0,2.15,5.72,8.35,8.35,0,0,0,11.36,0,7.91,7.91,0,0,0,2.15-5.72V12.33H250V28.89A9.57,9.57,0,0,1,247.3,36a11.27,11.27,0,0,1-14.47,0,9.53,9.53,0,0,1-2.66-7.08V12.33Z"/><path class="cls-3" d="M408.38,12.33h2V38.14h-2V34.46a8.38,8.38,0,0,1-3,3,7.82,7.82,0,0,1-4.11,1.11,7.73,7.73,0,0,1-6.08-2.73A10,10,0,0,1,392.81,29a10,10,0,0,1,2.41-6.9,7.71,7.71,0,0,1,6.08-2.74,7.81,7.81,0,0,1,4.11,1.1,8.38,8.38,0,0,1,3,3Zm-11.67,11A8.11,8.11,0,0,0,394.8,29a8.23,8.23,0,0,0,1.88,5.6,6.66,6.66,0,0,0,9.86,0,8.24,8.24,0,0,0,1.89-5.6,8.24,8.24,0,0,0-1.89-5.61,6.23,6.23,0,0,0-4.93-2.18A6.11,6.11,0,0,0,396.71,23.38Z"/><path class="cls-3" d="M561,19.34a8.26,8.26,0,0,1,7.22,4l-1.8.78a6,6,0,0,0-5.42-3,6.11,6.11,0,0,0-4.85,2.18A8.28,8.28,0,0,0,554.29,29a8.27,8.27,0,0,0,1.87,5.6A6.11,6.11,0,0,0,561,36.76a6,6,0,0,0,5.42-3l1.8.8a8.21,8.21,0,0,1-3.05,2.95A8.39,8.39,0,0,1,561,38.6a8.1,8.1,0,0,1-6.28-2.73A9.84,9.84,0,0,1,552.25,29a9.9,9.9,0,0,1,2.48-6.9A8.08,8.08,0,0,1,561,19.34Z"/><path class="cls-3" d="M320,36.55a2.7,2.7,0,0,1,2.16.94A3.64,3.64,0,0,1,323,40q0,4.34-4.12,8.2l-1.57-1.37c1.82-1.81,2.86-3.42,3.1-4.82a2.22,2.22,0,0,1-.44,0,2.72,2.72,0,0,1-2-.78,2.68,2.68,0,0,1-.8-2,2.58,2.58,0,0,1,.82-1.92A2.75,2.75,0,0,1,320,36.55Z"/><path class="cls-4" d="M640.06,156.9H.06V51.21h640ZM1,156h638.1V52.16H1Z"/><line class="cls-5" x1="160.06" y1="52.14" x2="160.06" y2="156.43"/><line class="cls-5" x1="320.06" y1="52.14" x2="320.06" y2="156.43"/><line class="cls-5" x1="480.06" y1="52.14" x2="480.06" y2="156.43"/><path class="cls-4" d="M320,141.23a2.71,2.71,0,0,1,2.16,1,3.61,3.61,0,0,1,.82,2.47q0,4.35-4.12,8.2l-1.57-1.37c1.82-1.81,2.86-3.41,3.1-4.81a2.44,2.44,0,0,1-.44,0,2.68,2.68,0,0,1-2.77-2.74A2.56,2.56,0,0,1,318,142,2.72,2.72,0,0,1,320,141.23Z"/><path class="cls-4" d="M640.06,261.66H.06V156h640Zm-639-1h638.1V156.92H1Z"/><line class="cls-5" x1="160.06" y1="156.9" x2="160.06" y2="261.19"/><line class="cls-5" x1="320.06" y1="156.9" x2="320.06" y2="261.19"/><line class="cls-5" x1="480.06" y1="156.9" x2="480.06" y2="261.19"/><path class="cls-4" d="M320,246a2.71,2.71,0,0,1,2.16.95,3.61,3.61,0,0,1,.82,2.47q0,4.35-4.12,8.2l-1.57-1.37c1.82-1.81,2.86-3.41,3.1-4.81l-.44,0a2.76,2.76,0,0,1-2-.77,2.7,2.7,0,0,1-.8-2,2.56,2.56,0,0,1,.82-1.91A2.72,2.72,0,0,1,320,246Z"/><path class="cls-4" d="M627.56,366.24H12.48A12.5,12.5,0,0,1,0,353.76V260.71H640v93.05A12.5,12.5,0,0,1,627.56,366.24ZM1,261.71v92.05a11.49,11.49,0,0,0,11.48,11.48H627.56A11.49,11.49,0,0,0,639,353.76V261.71Z"/><line class="cls-5" x1="160.06" y1="261.68" x2="160.06" y2="365.97"/><line class="cls-5" x1="320.06" y1="261.68" x2="320.06" y2="365.97"/><line class="cls-5" x1="480.06" y1="261.68" x2="480.06" y2="365.97"/><path class="cls-4" d="M320,350.77a2.71,2.71,0,0,1,2.16,1,3.61,3.61,0,0,1,.82,2.47q0,4.35-4.12,8.2L317.27,361c1.82-1.81,2.86-3.42,3.1-4.81l-.44,0a2.76,2.76,0,0,1-2-.77,2.7,2.7,0,0,1-.8-2,2.6,2.6,0,0,1,.82-1.92A2.75,2.75,0,0,1,320,350.77Z"/></g></g></svg>