<svg id="Layer_1" data-name="Layer 1" xmlns="http://www.w3.org/2000/svg" xmlns:xlink="http://www.w3.org/1999/xlink" viewBox="0 0 916.6 809.48"><defs><style>.cls-1,.cls-4{fill:#f58220;stroke-width:2px;}.cls-1,.cls-2{stroke:#f58220;}.cls-1,.cls-2,.cls-4{stroke-miterlimit:10;}.cls-2{fill:none;stroke-width:1.99px;}.cls-3{fill:url(#linear-gradient);}.cls-4{stroke:#ececec;}.cls-5{fill:#ececec;}</style><linearGradient id="linear-gradient" x1="1" y1="57.68" x2="915.6" y2="57.68" gradientUnits="userSpaceOnUse"><stop offset="0" stop-color="#f58220"/><stop offset="1" stop-color="#bd2726"/></linearGradient></defs><title>Tabla C_3</title><line class="cls-1" x1="304.68" y1="19.77" x2="304.68" y2="808.49"/><line class="cls-1" x1="607.67" y1="19.77" x2="607.67" y2="346.3"/><path class="cls-2" d="M915.6,346.3H1V53A33,33,0,0,1,34,20.2H882.63A33,33,0,0,1,915.6,53V346.3Z"/><path class="cls-3" d="M872.56.06H41.48C-.63.06,1,26,1,57.68H1c0,31.68-1.64,57.61,40.47,57.61H872.56c42.1,0,43-25.93,43-57.61h0C915.6,26,914.66.06,872.56.06Z"/><line class="cls-4" x1="304.68" y1="0.06" x2="304.68" y2="115.35"/><line class="cls-4" x1="607.67" x2="607.67" y2="115.29"/><path class="cls-5" d="M158.94,38.49q-7.91,0-12.49,5.27T141.87,58.2q0,9.42,4.41,14.56t12.6,5.14a43.12,43.12,0,0,0,11.46-1.8V81A35.24,35.24,0,0,1,158,82.86q-10.62,0-16.38-6.43t-5.76-18.3a28.84,28.84,0,0,1,2.77-13,20,20,0,0,1,8-8.61,24.28,24.28,0,0,1,12.33-3,29.7,29.7,0,0,1,13.2,2.76l-2.36,4.79A25.59,25.59,0,0,0,158.94,38.49Z"/><path class="cls-5" d="M477.56,57.74q0,11.9-6.45,18.18t-18.57,6.29h-13.3v-48H454q11.21,0,17.41,6.21T477.56,57.74Zm-5.91.2q0-9.4-4.71-14.16t-14-4.76h-8.11V77.38h6.8q10,0,15-4.91T471.65,57.94Z"/><path class="cls-5" d="M779.86,34.19V65.26q0,8.2-5,12.91t-13.63,4.69q-8.67,0-13.41-4.73t-4.75-13V34.19h5.58V65.52q0,6,3.29,9.23T761.63,78q6.07,0,9.36-3.24t3.29-9.27V34.19Z"/><line class="cls-1" x1="1" y1="52.99" x2="1" y2="346.3"/><polyline class="cls-2" points="915.6 346.3 915.6 544.65 915.6 577.44 1 577.44 1 544.65 1 346.3"/><line class="cls-1" x1="607.67" y1="346.3" x2="607.67" y2="577.44"/><line class="cls-1" x1="1" y1="346.3" x2="1" y2="577.44"/><path class="cls-2" d="M915.6,577.34V775.7a33,33,0,0,1-33,32.79H34A33,33,0,0,1,1,775.7V577.34"/><line class="cls-1" x1="607.67" y1="577.34" x2="607.67" y2="808.49"/></svg>