<svg id="Layer_1" data-name="Layer 1" xmlns="http://www.w3.org/2000/svg" xmlns:xlink="http://www.w3.org/1999/xlink" viewBox="0 0 1220.6 347.43"><defs><style>.cls-1,.cls-3{fill:#f58220;stroke-width:2px;}.cls-1,.cls-5{stroke:#f58220;}.cls-1,.cls-3,.cls-5{stroke-miterlimit:10;}.cls-2{fill:url(#linear-gradient);}.cls-3{stroke:#ececec;}.cls-4{fill:#ececec;}.cls-5{fill:none;stroke-width:1.99px;}</style><linearGradient id="linear-gradient" x1="1" y1="57.68" x2="1219.6" y2="57.68" gradientUnits="userSpaceOnUse"><stop offset="0" stop-color="#f58220"/><stop offset="1" stop-color="#bd2726"/></linearGradient></defs><title>Tabla UM_1</title><line class="cls-1" x1="911.67" y1="19.77" x2="911.67" y2="346.3"/><path class="cls-2" d="M1176.55.06H41.47C-.63.06,1,26,1,57.68H1c0,31.68-1.64,57.61,40.46,57.61H1176.55c42.11,0,43-25.93,43-57.61h0C1219.6,26,1218.66.06,1176.55.06Z"/><line class="cls-3" x1="911.67" x2="911.67" y2="115.29"/><path class="cls-4" d="M462.94,38.49q-7.9,0-12.49,5.27T445.86,58.2q0,9.42,4.42,14.56c3,3.43,7.14,5.14,12.6,5.14a43.12,43.12,0,0,0,11.46-1.8V81A35.26,35.26,0,0,1,462,82.86q-10.61,0-16.37-6.43t-5.76-18.3a28.84,28.84,0,0,1,2.77-13,19.89,19.89,0,0,1,8-8.61,24.28,24.28,0,0,1,12.33-3,29.76,29.76,0,0,1,13.2,2.76l-2.36,4.79A25.59,25.59,0,0,0,462.94,38.49Z"/><path class="cls-4" d="M781.56,57.74q0,11.88-6.45,18.18t-18.57,6.29H743.23v-48H758q11.19,0,17.4,6.21T781.56,57.74Zm-5.91.19q0-9.39-4.71-14.15t-14-4.76h-8.11V77.38h6.8q10,0,15-4.91T775.65,57.93Z"/><path class="cls-4" d="M1083.86,34.19V65.26q0,8.2-5,12.91t-13.63,4.69q-8.67,0-13.42-4.73t-4.74-13V34.19h5.58V65.52q0,6,3.29,9.23t9.65,3.22q6.07,0,9.36-3.24c2.19-2.15,3.29-5.25,3.29-9.27V34.19Z"/><line class="cls-1" x1="305" y1="19.77" x2="305" y2="346.3"/><line class="cls-3" x1="305" y1="0.06" x2="305" y2="115.35"/><path class="cls-4" d="M141,34.19V65.26q0,8.2-5,12.91t-13.63,4.69q-8.67,0-13.42-4.73t-4.74-13V34.19h5.58V65.52q0,6,3.29,9.23T122.78,78q6.07,0,9.36-3.24c2.19-2.15,3.29-5.25,3.29-9.27V34.19Z"/><path class="cls-4" d="M175,82.21,158.68,39.64h-.26q.45,5.05.46,12V82.21h-5.16v-48h8.41l15.2,39.61h.27l15.33-39.61h8.35v48h-5.59V51.27q0-5.33.46-11.56h-.26l-16.42,42.5Z"/><path class="cls-5" d="M1219.6,41.69v272a33,33,0,0,1-33,32.79H34A33,33,0,0,1,1,313.64V41.69"/><line class="cls-1" x1="608.68" y1="19.77" x2="608.68" y2="346.3"/><line class="cls-3" x1="608.68" y1="0.06" x2="608.68" y2="115.35"/></svg>