<svg id="Layer_1" data-name="Layer 1" xmlns="http://www.w3.org/2000/svg" xmlns:xlink="http://www.w3.org/1999/xlink" viewBox="0 0 1220.6 578.68"><defs><style>.cls-1,.cls-4{fill:#f48120;stroke-width:2px;}.cls-1,.cls-2{stroke:#f48120;}.cls-1,.cls-2,.cls-4{stroke-miterlimit:10;}.cls-2{fill:none;stroke-width:1.99px;}.cls-3{fill:url(#linear-gradient);}.cls-4{stroke:#ecebeb;}.cls-5{font-size:67.26px;fill:#ebebeb;font-family:LarkeNeueThin-Thin, Larke Neue Thin;}</style><linearGradient id="linear-gradient" x1="1" y1="57.68" x2="1219.6" y2="57.68" gradientUnits="userSpaceOnUse"><stop offset="0" stop-color="#f48120"/><stop offset="1" stop-color="#bb2626"/></linearGradient></defs><title>Tabla UM_4x2</title><line class="cls-1" x1="608.68" y1="19.77" x2="608.68" y2="346.3"/><line class="cls-1" x1="911.67" y1="19.77" x2="911.67" y2="346.3"/><path class="cls-2" d="M1186.62,346.3H34l-33,.43V53A33,33,0,0,1,34,20.2H1186.62a33,33,0,0,1,33,32.79V346.73Z"/><path class="cls-3" d="M1176.55.06H41.47C-.63.06,1,26,1,57.68H1c0,31.68-1.64,57.61,40.46,57.61H1176.55c42.11,0,43-25.93,43-57.61h0C1219.6,26,1218.66.06,1176.55.06Z"/><line class="cls-4" x1="608.68" y1="0.06" x2="608.68" y2="115.35"/><line class="cls-4" x1="911.67" x2="911.67" y2="115.29"/><text class="cls-5" transform="translate(428.14 82.21)">C</text><text class="cls-5" transform="translate(738.11 82.21)">D</text><text class="cls-5" transform="translate(1052.12 82.21)">U</text><line class="cls-1" x1="305" y1="19.77" x2="305" y2="346.3"/><line class="cls-4" x1="305" y1="0.06" x2="305" y2="115.35"/><text class="cls-5" transform="translate(91.15 82.21)">UM</text><line class="cls-1" x1="608.68" y1="346.73" x2="608.68" y2="577.68"/><line class="cls-1" x1="911.67" y1="346.73" x2="911.67" y2="577.68"/><path class="cls-2" d="M1186.62,577.68H34c-18.13,0-33-10.44-33-23.19V347H1219.6V554.49C1219.6,567.24,1204.76,577.68,1186.62,577.68Z"/><line class="cls-1" x1="305" y1="346.73" x2="305" y2="577.68"/></svg>