<svg xmlns="http://www.w3.org/2000/svg" xmlns:xlink="http://www.w3.org/1999/xlink" viewBox="0 0 320 156.67"><defs><style>.cls-1{fill:url(#linear-gradient);}.cls-2{fill:#db812d;stroke:#ebebeb;}.cls-2,.cls-4,.cls-6{stroke-miterlimit:10;}.cls-2,.cls-4{stroke-width:0.9px;}.cls-3{fill:#ebebea;}.cls-4,.cls-6{fill:none;stroke:#d27f34;}.cls-5{fill:#d27f34;}.cls-6{stroke-width:0.71px;}</style><linearGradient id="linear-gradient" y1="26.07" x2="320" y2="26.07" gradientUnits="userSpaceOnUse"><stop offset="0" stop-color="#db812d"/><stop offset="1" stop-color="#a22a2a"/></linearGradient></defs><title>ud1_1</title><g id="Capa_2" data-name="Capa 2"><g id="Tabla_C" data-name="Tabla C"><path class="cls-1" d="M240,0H6C2.68,0,0,5.36,0,12V52.14H320V12c0-6.62-2.68-12-6-12Z"/><line class="cls-2" x1="160" x2="160" y2="35.47"/><line class="cls-2" x1="160" y1="48.17" x2="160" y2="52.14"/><path class="cls-3" d="M72.17,12.33V28.77a7.91,7.91,0,0,0,2.15,5.72,8.35,8.35,0,0,0,11.36,0,7.91,7.91,0,0,0,2.15-5.72V12.33h2.06V28.89A9.57,9.57,0,0,1,87.24,36,9.84,9.84,0,0,1,80,38.6,9.8,9.8,0,0,1,72.77,36a9.53,9.53,0,0,1-2.66-7.08V12.33Z"/><path class="cls-3" d="M248.32,12.33h2V38.14h-2V34.46a8.38,8.38,0,0,1-3,3,7.82,7.82,0,0,1-4.11,1.11,7.73,7.73,0,0,1-6.08-2.73A10,10,0,0,1,232.75,29a10,10,0,0,1,2.41-6.9,7.71,7.71,0,0,1,6.08-2.74,7.81,7.81,0,0,1,4.11,1.1,8.38,8.38,0,0,1,3,3Zm-11.67,11a8.11,8.11,0,0,0-1.91,5.6,8.23,8.23,0,0,0,1.88,5.6,6.66,6.66,0,0,0,9.86,0,8.24,8.24,0,0,0,1.89-5.6,8.24,8.24,0,0,0-1.89-5.61,6.23,6.23,0,0,0-4.93-2.18A6.11,6.11,0,0,0,236.65,23.38Z"/><path class="cls-3" d="M159.92,36.55a2.7,2.7,0,0,1,2.16.94A3.64,3.64,0,0,1,162.9,40q0,4.34-4.12,8.2l-1.57-1.37c1.82-1.81,2.86-3.42,3.1-4.82a2.22,2.22,0,0,1-.44,0,2.72,2.72,0,0,1-2-.78,2.68,2.68,0,0,1-.8-2,2.58,2.58,0,0,1,.82-1.92A2.75,2.75,0,0,1,159.92,36.55Z"/><line class="cls-4" x1="160" y1="51.94" x2="160" y2="156.22"/><path class="cls-5" d="M159.92,141a2.7,2.7,0,0,1,2.16.94,3.63,3.63,0,0,1,.82,2.47q0,4.35-4.12,8.21l-1.57-1.37c1.82-1.82,2.86-3.42,3.1-4.82a2.22,2.22,0,0,1-.44,0,2.72,2.72,0,0,1-2-.78,2.68,2.68,0,0,1-.8-2,2.56,2.56,0,0,1,.82-1.91A2.71,2.71,0,0,1,159.92,141Z"/><path class="cls-6" d="M80.18,156.32H307.67a12,12,0,0,0,12-12V51.79H.36v92.55a12,12,0,0,0,12,12Z"/></g></g></svg>