<svg xmlns="http://www.w3.org/2000/svg" xmlns:xlink="http://www.w3.org/1999/xlink" viewBox="0 0 640.06 366.25"><defs><style>.cls-1{fill:#ea802a;}.cls-2{fill:none;stroke:#ea802a;}.cls-2,.cls-4{stroke-miterlimit:10;stroke-width:0.9px;}.cls-3{fill:url(#linear-gradient);}.cls-4{fill:#f58220;stroke:#ececec;}.cls-5{fill:#ecebeb;}</style><linearGradient id="linear-gradient" x1="0.06" y1="26.07" x2="640.06" y2="26.07" gradientUnits="userSpaceOnUse"><stop offset="0" stop-color="#f58220"/><stop offset="1" stop-color="#bd2726"/></linearGradient></defs><title>umcdu3</title><g id="Layer_2" data-name="Layer 2"><g id="Tabla_C" data-name="Tabla C"><path class="cls-1" d="M640.06,156.9H.06V51.21h640ZM1,156h638.1V52.16H1Z"/><line class="cls-2" x1="160.06" y1="52.14" x2="160.06" y2="156.43"/><line class="cls-2" x1="320.06" y1="52.14" x2="320.06" y2="156.43"/><line class="cls-2" x1="480.06" y1="52.14" x2="480.06" y2="156.43"/><path class="cls-1" d="M640.06,261.66H.06V156h640Zm-639-1h638.1V156.92H1Z"/><line class="cls-2" x1="160.06" y1="156.9" x2="160.06" y2="261.19"/><line class="cls-2" x1="320.06" y1="156.9" x2="320.06" y2="261.19"/><line class="cls-2" x1="480.06" y1="156.9" x2="480.06" y2="261.19"/><path class="cls-1" d="M627.56,366.25H12.48A12.49,12.49,0,0,1,0,353.77v-93H640v93A12.49,12.49,0,0,1,627.56,366.25ZM1,261.73v92a11.49,11.49,0,0,0,11.48,11.48H627.56A11.49,11.49,0,0,0,639,353.77v-92Z"/><line class="cls-2" x1="160.06" y1="261.7" x2="160.06" y2="365.98"/><line class="cls-2" x1="320.06" y1="261.7" x2="320.06" y2="365.98"/><line class="cls-2" x1="480.06" y1="261.7" x2="480.06" y2="365.98"/><path class="cls-3" d="M480.06,0H12a12,12,0,0,0-12,12V52.14h640V12a12,12,0,0,0-12-12Z"/><line class="cls-4" x1="160.06" x2="160.06" y2="52.14"/><line class="cls-4" x1="320.06" x2="320.06" y2="51.21"/><line class="cls-4" x1="480.06" x2="480.06" y2="52.14"/><path class="cls-5" d="M398.65,12.33A13.32,13.32,0,0,1,408.21,16,12.21,12.21,0,0,1,412,25.22a12.25,12.25,0,0,1-3.82,9.27,13.29,13.29,0,0,1-9.56,3.65h-7.79V12.33Zm-5.74,24h5.5a11.23,11.23,0,0,0,8.13-3.17,10.59,10.59,0,0,0,3.27-7.91,10.5,10.5,0,0,0-3.27-7.89,11.26,11.26,0,0,0-8.13-3.15h-5.5Z"/><path class="cls-5" d="M555.44,12.33V28.77a7.91,7.91,0,0,0,2.15,5.72,8.35,8.35,0,0,0,11.36,0,7.91,7.91,0,0,0,2.14-5.72V12.33h2.06V28.89A9.53,9.53,0,0,1,570.5,36,11.25,11.25,0,0,1,556,36a9.53,9.53,0,0,1-2.66-7.08V12.33Z"/><path class="cls-5" d="M55.83,12.33V28.77A7.91,7.91,0,0,0,58,34.49a7.5,7.5,0,0,0,5.68,2.23,7.52,7.52,0,0,0,5.68-2.23,7.91,7.91,0,0,0,2.15-5.72V12.33h2.05V28.89A9.53,9.53,0,0,1,70.89,36a9.8,9.8,0,0,1-7.23,2.63A9.8,9.8,0,0,1,56.43,36a9.53,9.53,0,0,1-2.66-7.08V12.33Z"/><path class="cls-5" d="M81.5,12.33l9.79,22.72,9.8-22.72h3.06V38.14h-2.06V15.06l-9.9,23.08H90.42L80.5,15.06V38.14H78.44V12.33Z"/><path class="cls-5" d="M243.37,14a12,12,0,0,1,4.27,4.41l-1.88.84a9.25,9.25,0,0,0-8.35-4.9,8.94,8.94,0,0,0-7.1,3.17,12.15,12.15,0,0,0-2.73,8.23,12.18,12.18,0,0,0,2.73,8.23,8.93,8.93,0,0,0,7.1,3.16,9.33,9.33,0,0,0,4.9-1.3,9.57,9.57,0,0,0,3.45-3.63l1.88.86a12,12,0,0,1-4.27,4.4,11.35,11.35,0,0,1-6,1.6,11.11,11.11,0,0,1-8.63-3.78,13.79,13.79,0,0,1-3.4-9.57,13.75,13.75,0,0,1,3.4-9.56,11.11,11.11,0,0,1,8.63-3.77A11.27,11.27,0,0,1,243.37,14Z"/></g></g></svg>