<svg xmlns="http://www.w3.org/2000/svg" xmlns:xlink="http://www.w3.org/1999/xlink" viewBox="0 0 962.65 246.84"><defs><style>.cls-1,.cls-5,.cls-8,.cls-9{fill:none;}.cls-2{clip-path:url(#clip-path);}.cls-3{fill:#baff78;}.cls-4{fill:#83ff00;}.cls-5{stroke:#000;stroke-width:0.5px;}.cls-5,.cls-8,.cls-9{stroke-miterlimit:10;}.cls-6{font-size:18.41px;font-family:LarkeNeue-Regular, Larke Neue;}.cls-7{fill:#dbdbdb;}.cls-8,.cls-9{stroke:#dbdbdb;}.cls-8{stroke-width:0.75px;}.cls-9{stroke-width:0.25px;}.cls-10{fill:#f2d5c7;}.cls-11{fill:#6b99bd;}.cls-12,.cls-13{fill:#427b99;}.cls-12{opacity:0.5;}.cls-14{fill:#428e80;}.cls-15{fill:#b55930;}.cls-16{fill:#e0e0e0;}.cls-17{fill:#c9934b;}.cls-18{fill:#896029;}.cls-19{fill:#513513;}.cls-20{fill:#3f3f3f;}.cls-21{fill:#cfaa13;}.cls-22{fill:#c36a3e;}.cls-23{fill:#8e1d21;}.cls-24{fill:#d75f5e;}.cls-25{fill:#3a3a3a;}.cls-26{fill:#fff;}.cls-27{fill:#444;}.cls-28{fill:#f30;}</style><clipPath id="clip-path" transform="translate(0 -79.75)"><rect class="cls-1" x="1.2" width="399.5" height="399.5"/></clipPath></defs><title>zoom1</title><g id="Capa_2" data-name="Capa 2"><g id="Layer_1" data-name="Layer 1"><g class="cls-2"><rect class="cls-3" x="83.33" y="172.12" width="834.57" height="73.72" rx="1.02"/><path class="cls-4" d="M916.88,252.87l0,0,0,71.7-832.55,0,0-71.7H916.88m0-2H84.36a2,2,0,0,0-2,2v71.68a2,2,0,0,0,2,2H916.88a2,2,0,0,0,2-2V252.89a2,2,0,0,0-2-2Z" transform="translate(0 -79.75)"/><line class="cls-5" x1="99.98" y1="171.12" x2="99.98" y2="197.2"/><line class="cls-5" x1="179.17" y1="171.12" x2="179.17" y2="197.2"/><line class="cls-5" x1="258.36" y1="171.12" x2="258.36" y2="197.2"/><line class="cls-5" x1="337.55" y1="171.12" x2="337.55" y2="197.2"/><line class="cls-5" x1="416.74" y1="171.12" x2="416.74" y2="197.2"/><line class="cls-5" x1="495.92" y1="171.12" x2="495.92" y2="197.2"/><line class="cls-5" x1="575.11" y1="171.12" x2="575.11" y2="197.2"/><line class="cls-5" x1="654.3" y1="171.12" x2="654.3" y2="197.2"/><line class="cls-5" x1="733.49" y1="171.12" x2="733.49" y2="197.2"/><line class="cls-5" x1="812.68" y1="171.12" x2="812.68" y2="197.2"/><line class="cls-5" x1="891.87" y1="171.12" x2="891.87" y2="197.2"/><text class="cls-6" transform="translate(168.02 216.38)">0,1</text><text class="cls-6" transform="translate(245.55 216.38)">0,2</text><text class="cls-6" transform="translate(324.38 216.38)">0,3</text><text class="cls-6" transform="translate(403.24 216.38)">0,4</text><text class="cls-6" transform="translate(482.57 216.38)">0,5</text><text class="cls-6" transform="translate(561.58 216.38)">0,6</text><text class="cls-6" transform="translate(641.07 216.38)">0,7</text><text class="cls-6" transform="translate(720.02 216.38)">0,8</text><text class="cls-6" transform="translate(799.13 216.38)">0,9</text><text class="cls-6" transform="translate(888.64 216.38)">1</text><text class="cls-6" transform="translate(94.18 216.38)">0</text><line class="cls-5" x1="107.9" y1="171.12" x2="107.9" y2="190.09"/><line class="cls-5" x1="115.82" y1="171.12" x2="115.82" y2="190.09"/><line class="cls-5" x1="123.74" y1="171.12" x2="123.74" y2="190.09"/><line class="cls-5" x1="131.65" y1="171.12" x2="131.65" y2="190.09"/><line class="cls-5" x1="139.57" y1="171.12" x2="139.57" y2="193.72"/><line class="cls-5" x1="147.49" y1="171.12" x2="147.49" y2="190.09"/><line class="cls-5" x1="155.41" y1="171.12" x2="155.41" y2="190.09"/><line class="cls-5" x1="163.33" y1="171.12" x2="163.33" y2="190.09"/><line class="cls-5" x1="171.25" y1="171.12" x2="171.25" y2="190.09"/><line class="cls-5" x1="187.09" y1="171.12" x2="187.09" y2="190.09"/><line class="cls-5" x1="195.01" y1="171.12" x2="195.01" y2="190.09"/><line class="cls-5" x1="202.92" y1="171.12" x2="202.92" y2="190.09"/><line class="cls-5" x1="210.84" y1="171.12" x2="210.84" y2="190.09"/><line class="cls-5" x1="218.76" y1="171.12" x2="218.76" y2="193.72"/><line class="cls-5" x1="226.68" y1="171.12" x2="226.68" y2="190.09"/><line class="cls-5" x1="234.6" y1="171.12" x2="234.6" y2="190.09"/><line class="cls-5" x1="242.52" y1="171.12" x2="242.52" y2="190.09"/><line class="cls-5" x1="250.44" y1="171.12" x2="250.44" y2="190.09"/><line class="cls-5" x1="266.28" y1="171.12" x2="266.28" y2="190.09"/><line class="cls-5" x1="274.2" y1="171.12" x2="274.2" y2="190.09"/><line class="cls-5" x1="282.11" y1="171.12" x2="282.11" y2="190.09"/><line class="cls-5" x1="290.03" y1="171.12" x2="290.03" y2="190.09"/><line class="cls-5" x1="297.95" y1="171.12" x2="297.95" y2="193.72"/><line class="cls-5" x1="305.87" y1="171.12" x2="305.87" y2="190.09"/><line class="cls-5" x1="313.79" y1="171.12" x2="313.79" y2="190.09"/><line class="cls-5" x1="321.71" y1="171.12" x2="321.71" y2="190.09"/><line class="cls-5" x1="329.63" y1="171.12" x2="329.63" y2="190.09"/><line class="cls-5" x1="345.47" y1="171.12" x2="345.47" y2="190.09"/><line class="cls-5" x1="353.38" y1="171.12" x2="353.38" y2="190.09"/><line class="cls-5" x1="361.3" y1="171.12" x2="361.3" y2="190.09"/><line class="cls-5" x1="369.22" y1="171.12" x2="369.22" y2="190.09"/><line class="cls-5" x1="377.14" y1="171.12" x2="377.14" y2="193.72"/><line class="cls-5" x1="385.06" y1="171.12" x2="385.06" y2="190.09"/><line class="cls-5" x1="392.98" y1="171.12" x2="392.98" y2="190.09"/><line class="cls-5" x1="400.9" y1="171.12" x2="400.9" y2="190.09"/><line class="cls-5" x1="408.82" y1="171.12" x2="408.82" y2="190.09"/><line class="cls-5" x1="424.65" y1="171.12" x2="424.65" y2="190.09"/><line class="cls-5" x1="432.57" y1="171.12" x2="432.57" y2="190.09"/><line class="cls-5" x1="440.49" y1="171.12" x2="440.49" y2="190.09"/><line class="cls-5" x1="448.41" y1="171.12" x2="448.41" y2="190.09"/><line class="cls-5" x1="456.33" y1="171.12" x2="456.33" y2="193.72"/><line class="cls-5" x1="464.25" y1="171.12" x2="464.25" y2="190.09"/><line class="cls-5" x1="472.17" y1="171.12" x2="472.17" y2="190.09"/><line class="cls-5" x1="480.09" y1="171.12" x2="480.09" y2="190.09"/><line class="cls-5" x1="488.01" y1="171.12" x2="488.01" y2="190.09"/><line class="cls-5" x1="503.84" y1="171.12" x2="503.84" y2="190.09"/><line class="cls-5" x1="511.76" y1="171.12" x2="511.76" y2="190.09"/><line class="cls-5" x1="519.68" y1="171.12" x2="519.68" y2="190.09"/><line class="cls-5" x1="527.6" y1="171.12" x2="527.6" y2="190.09"/><line class="cls-5" x1="535.52" y1="171.12" x2="535.52" y2="193.72"/><line class="cls-5" x1="543.44" y1="171.12" x2="543.44" y2="190.09"/><line class="cls-5" x1="551.36" y1="171.12" x2="551.36" y2="190.09"/><line class="cls-5" x1="559.28" y1="171.12" x2="559.28" y2="190.09"/><line class="cls-5" x1="567.2" y1="171.12" x2="567.2" y2="190.09"/><line class="cls-5" x1="583.03" y1="171.12" x2="583.03" y2="190.09"/><line class="cls-5" x1="590.95" y1="171.12" x2="590.95" y2="190.09"/><line class="cls-5" x1="598.87" y1="171.12" x2="598.87" y2="190.09"/><line class="cls-5" x1="606.79" y1="171.12" x2="606.79" y2="190.09"/><line class="cls-5" x1="614.71" y1="171.12" x2="614.71" y2="193.72"/><line class="cls-5" x1="622.63" y1="171.12" x2="622.63" y2="190.09"/><line class="cls-5" x1="630.55" y1="171.12" x2="630.55" y2="190.09"/><line class="cls-5" x1="638.47" y1="171.12" x2="638.47" y2="190.09"/><line class="cls-5" x1="646.38" y1="171.12" x2="646.38" y2="190.09"/><line class="cls-5" x1="662.26" y1="171.12" x2="662.26" y2="190.09"/><line class="cls-5" x1="670.18" y1="171.12" x2="670.18" y2="190.09"/><line class="cls-5" x1="678.1" y1="171.12" x2="678.1" y2="190.09"/><line class="cls-5" x1="686.02" y1="171.12" x2="686.02" y2="190.09"/><line class="cls-5" x1="693.94" y1="171.12" x2="693.94" y2="193.72"/><line class="cls-5" x1="701.85" y1="171.12" x2="701.85" y2="190.09"/><line class="cls-5" x1="709.77" y1="171.12" x2="709.77" y2="190.09"/><line class="cls-5" x1="717.69" y1="171.12" x2="717.69" y2="190.09"/><line class="cls-5" x1="725.61" y1="171.12" x2="725.61" y2="190.09"/><line class="cls-5" x1="741.41" y1="171.12" x2="741.41" y2="190.09"/><line class="cls-5" x1="749.33" y1="171.12" x2="749.33" y2="190.09"/><line class="cls-5" x1="757.25" y1="171.12" x2="757.25" y2="190.09"/><line class="cls-5" x1="765.17" y1="171.12" x2="765.17" y2="190.09"/><line class="cls-5" x1="773.09" y1="171.12" x2="773.09" y2="193.72"/><line class="cls-5" x1="781.01" y1="171.12" x2="781.01" y2="190.09"/><line class="cls-5" x1="788.92" y1="171.12" x2="788.92" y2="190.09"/><line class="cls-5" x1="796.84" y1="171.12" x2="796.84" y2="190.09"/><line class="cls-5" x1="804.76" y1="171.12" x2="804.76" y2="190.09"/><line class="cls-5" x1="820.65" y1="171.12" x2="820.65" y2="190.09"/><line class="cls-5" x1="828.57" y1="171.12" x2="828.57" y2="190.09"/><line class="cls-5" x1="836.49" y1="171.12" x2="836.49" y2="190.09"/><line class="cls-5" x1="844.41" y1="171.12" x2="844.41" y2="190.09"/><line class="cls-5" x1="852.33" y1="171.12" x2="852.33" y2="193.72"/><line class="cls-5" x1="860.25" y1="171.12" x2="860.25" y2="190.09"/><line class="cls-5" x1="868.16" y1="171.12" x2="868.16" y2="190.09"/><line class="cls-5" x1="876.08" y1="171.12" x2="876.08" y2="190.09"/><line class="cls-5" x1="884" y1="171.12" x2="884" y2="190.09"/><rect class="cls-7" x="877.02" y="158.05" width="85.63" height="4.63" rx="0.95"/><path class="cls-8" d="M958,241.67,922.38,88.55c-1.2-5-5.52-8.06-10.68-8.42H868.06l12.31,160.58" transform="translate(0 -79.75)"/><line class="cls-9" x1="869.74" y1="0.48" x2="881.68" y2="160.25"/><line class="cls-9" x1="873.56" y1="0.48" x2="885.5" y2="160.25"/><line class="cls-9" x1="877.38" y1="0.48" x2="889.32" y2="160.25"/><line class="cls-9" x1="881.2" y1="0.48" x2="893.14" y2="160.25"/><line class="cls-9" x1="885.02" y1="0.48" x2="896.97" y2="160.25"/><line class="cls-9" x1="888.84" y1="0.48" x2="900.79" y2="160.25"/><line class="cls-9" x1="892.67" y1="0.48" x2="904.61" y2="160.25"/><line class="cls-9" x1="896.49" y1="0.48" x2="908.43" y2="160.25"/><line class="cls-9" x1="900.31" y1="0.48" x2="912.25" y2="160.25"/><line class="cls-9" x1="904.13" y1="0.48" x2="916.07" y2="160.25"/><line class="cls-9" x1="907.95" y1="0.48" x2="919.9" y2="160.25"/><line class="cls-9" x1="911.77" y1="0.48" x2="923.72" y2="160.25"/><line class="cls-9" x1="915.6" y1="0.48" x2="927.54" y2="160.25"/><line class="cls-9" x1="919.67" y1="3.86" x2="931.36" y2="160.25"/><line class="cls-9" x1="924.61" y1="18.84" x2="935.18" y2="160.25"/><line class="cls-9" x1="930.2" y1="42.41" x2="939" y2="160.25"/><line class="cls-9" x1="935.99" y1="68.86" x2="942.83" y2="160.25"/><line class="cls-9" x1="941.46" y1="90.83" x2="946.65" y2="160.25"/><line class="cls-9" x1="946.51" y1="107.29" x2="950.47" y2="160.25"/><line class="cls-9" x1="952.32" y1="133.87" x2="954.29" y2="160.25"/><line class="cls-9" x1="879.9" y1="154.65" x2="953.3" y2="154.65"/><line class="cls-9" x1="879.65" y1="150.85" x2="953.06" y2="150.85"/><line class="cls-9" x1="879.41" y1="147.05" x2="952.81" y2="147.05"/><line class="cls-9" x1="879.16" y1="143.25" x2="952.57" y2="143.25"/><line class="cls-9" x1="878.46" y1="139.46" x2="952.32" y2="139.46"/><line class="cls-9" x1="878.21" y1="135.66" x2="952.07" y2="135.66"/><line class="cls-9" x1="877.97" y1="131.86" x2="951.83" y2="131.86"/><line class="cls-9" x1="877.72" y1="128.06" x2="951.58" y2="128.06"/><line class="cls-9" x1="876.94" y1="124.26" x2="949.9" y2="124.26"/><line class="cls-9" x1="876.69" y1="120.47" x2="948.87" y2="120.47"/><line class="cls-9" x1="876.45" y1="116.67" x2="947.39" y2="116.67"/><line class="cls-9" x1="876.2" y1="112.87" x2="946.9" y2="112.87"/><line class="cls-9" x1="875.95" y1="109.07" x2="945.42" y2="109.07"/><line class="cls-9" x1="875.71" y1="105.28" x2="944.44" y2="105.28"/><line class="cls-9" x1="875.66" y1="101.48" x2="944.05" y2="101.48"/><line class="cls-9" x1="875.42" y1="97.68" x2="942.04" y2="97.68"/><line class="cls-9" x1="875.17" y1="93.88" x2="941.69" y2="93.88"/><line class="cls-9" x1="874.92" y1="90.08" x2="941.46" y2="90.08"/><line class="cls-9" x1="874.68" y1="86.29" x2="940.56" y2="86.29"/><line class="cls-9" x1="874.43" y1="82.49" x2="939.41" y2="82.49"/><line class="cls-9" x1="874.19" y1="78.69" x2="937.93" y2="78.69"/><line class="cls-9" x1="873.94" y1="74.89" x2="937.68" y2="74.89"/><line class="cls-9" x1="873.69" y1="71.1" x2="937.44" y2="71.1"/><line class="cls-9" x1="872.59" y1="67.3" x2="937.19" y2="67.3"/><line class="cls-9" x1="872.34" y1="63.5" x2="936.94" y2="63.5"/><line class="cls-9" x1="872.09" y1="59.7" x2="933.99" y2="59.7"/><line class="cls-9" x1="871.85" y1="55.9" x2="931.13" y2="55.9"/><line class="cls-9" x1="871.6" y1="52.11" x2="930.88" y2="52.11"/><line class="cls-9" x1="871.35" y1="48.31" x2="930.64" y2="48.31"/><line class="cls-9" x1="871.11" y1="44.51" x2="930.39" y2="44.51"/><line class="cls-9" x1="870.86" y1="40.71" x2="930.14" y2="40.71"/><line class="cls-9" x1="870.86" y1="36.92" x2="929.9" y2="36.92"/><line class="cls-9" x1="870.57" y1="33.12" x2="927.94" y2="33.12"/><line class="cls-9" x1="869.26" y1="29.32" x2="926.55" y2="29.32"/><line class="cls-9" x1="869.01" y1="25.52" x2="926.55" y2="25.52"/><line class="cls-9" x1="868.77" y1="21.72" x2="925.38" y2="21.72"/><line class="cls-9" x1="868.52" y1="17.93" x2="924.5" y2="17.93"/><line class="cls-9" x1="868.28" y1="14.13" x2="922.06" y2="14.13"/><line class="cls-9" x1="868.03" y1="10.33" x2="921.81" y2="10.33"/><line class="cls-9" x1="867.78" y1="6.53" x2="921.57" y2="6.53"/><path class="cls-10" d="M47.56,186.39s-2.37,16.23-14.83,19.42-20.14-1.32-20.14-1.32-1.27-1.23-2.72,1.54c0,0,10.73,6.41,26.46,4,15.27-3.63,18.14-22.14,18.14-22.14Z" transform="translate(0 -79.75)"/><path class="cls-10" d="M63.2,188.26S76,201.53,81.93,210,95.2,232.57,95.2,232.57s1.09,1.88,3-.36l-1.33-2.13.12-.72S78.41,186.44,71.86,186Z" transform="translate(0 -79.75)"/><path class="cls-11" d="M50.43,164.13s-4.91,8-2,13.67a81.58,81.58,0,0,1-3.12,7.88s-.94,1.36,3.4,4.34a20.59,20.59,0,0,0,8.91,3.36s.18.15.36-.42,1.27-2.91,1.27-2.91,4.61,4,5.07,4.88a.62.62,0,0,0,1.06.21s10-6.71,10.44-9.08a.26.26,0,0,0-.07-.22L65,175.59s1.7-6.61.91-9.64Z" transform="translate(0 -79.75)"/><path class="cls-12" d="M48.43,177.8a81.58,81.58,0,0,1-3.12,7.88s-.94,1.36,3.4,4.34a20.59,20.59,0,0,0,8.91,3.36s.18.15.36-.42,1.27-2.91,1.27-2.91Z" transform="translate(0 -79.75)"/><path class="cls-13" d="M62.06,169.87s.13,2.64,2.89,5.72c0,0,1.13-4.36.9-6.4Z" transform="translate(0 -79.75)"/><path class="cls-14" d="M51,140.17s2.37,2.59,2.43-.35-3-8.71-3-8.71Z" transform="translate(0 -79.75)"/><path class="cls-10" d="M64.33,138.34s8.14,17.37,14.46,18.14,10.27-6.91,10.27-6.91-4.36-6.79-1.89-9.2c.94-.7,1.82,2.56,2.24,4.54,0,0,.28.54,1.09-.63.6-.84,1.57-2.53,2.21-3.65a9.52,9.52,0,0,0,.66-1.54c.15-.44.45-.9,1-.49,1,.68.5,4.3-.56,4.71,0,0,3-.88,1.29,2.24,0,0,4.35.18,2,2.26S92.87,150.7,91,150.4c0,0-4,11.46-12.79,10.25s-14.46-11.11-14.46-11.11Z" transform="translate(0 -79.75)"/><path class="cls-15" d="M92.76,144a4.63,4.63,0,0,0-.68.48,4.05,4.05,0,0,0-.59.58,1.74,1.74,0,0,0-.34.73,1.28,1.28,0,0,0,0,.39,1,1,0,0,0,.14.37h0a1.75,1.75,0,0,0,.36.36,1.26,1.26,0,0,0,.44.24,2.13,2.13,0,0,0,.5.11,2.16,2.16,0,0,0,.51,0l.17,0-.07.15a5.28,5.28,0,0,0-.34.94,1.63,1.63,0,0,0,0,.95.58.58,0,0,0,.33.32,1.48,1.48,0,0,0,.47.12,3.82,3.82,0,0,0,1,0,3.83,3.83,0,0,1-1,.12,1.84,1.84,0,0,1-.52-.1.72.72,0,0,1-.39-.36,1.71,1.71,0,0,1,0-1.05,5.3,5.3,0,0,1,.34-1l.1.12a2.63,2.63,0,0,1-.56,0,2.57,2.57,0,0,1-.55-.12,2,2,0,0,1-.49-.27,1.85,1.85,0,0,1-.38-.41h0a1.52,1.52,0,0,1-.16-.42,1.36,1.36,0,0,1,0-.45,1.71,1.71,0,0,1,.41-.76,3.1,3.1,0,0,1,.63-.57A3.81,3.81,0,0,1,92.76,144Z" transform="translate(0 -79.75)"/><path class="cls-15" d="M90.67,145.26a3.08,3.08,0,0,1,.66,1.47,2.56,2.56,0,0,1,0,.83,1.75,1.75,0,0,1-.34.73,2.94,2.94,0,0,0,.2-.76,3.32,3.32,0,0,0,0-.77A4.94,4.94,0,0,0,91,146,7.65,7.65,0,0,0,90.67,145.26Z" transform="translate(0 -79.75)"/><path class="cls-16" d="M50.4,131.11l.69,11.14s4.13,4,.32,16.77l-3.58,6.23s2.94,5,18.46,5.64c0,0,2.25-4.68,1.61-14.09s-3.78-22.46-3.78-22.46S51.43,131,50.4,131.11Z" transform="translate(0 -79.75)"/><path class="cls-17" d="M41.92,121s10.85,6.58,14.91.64a36.71,36.71,0,0,1,8.7-9.06s2.15-7.43-6.09-10.28c-3.13-1-7.19,1.3-9.64,3.18s-9.91.31-9.91.31-.28,3.78,2.36,5.85l-3.54,3s.84,2.66,7.21,3.75Z" transform="translate(0 -79.75)"/><path class="cls-18" d="M41.92,121s7.14,4.31,12,2.82c3.44-1.06,11.75-12.2,11.75-12.2s-.48-5.29-4.71-5.15c-2.21-.14-9.12,5.12-9.12,5.12s-5.28,4.16-11.88-4.44a6.69,6.69,0,0,0,2.3,4.49l-3.54,3s.46,2.49,7.21,3.75Z" transform="translate(0 -79.75)"/><path class="cls-10" d="M64.53,109s7.67,17.3,6.12,18.3-7.77,2.59-9.36,2.68c0,0-.87,2.5-.19,3.48l.75.5s.16,2.93-1,2.61-4.94-3.64-5-4.34c0,0,2.18-.68,2.05-2.18a12.3,12.3,0,0,1-2.05-6.32,5.59,5.59,0,0,1-2.25.75c-.86,0-3.42-.75-3.19-4.08.22-3.17,2.76-2.42,2.76-2.42s1.59.56,1.54,1a18.93,18.93,0,0,0-.41-5.59s2.32-1.16,2.55-2.35,3.76-2,4.61-2S64.53,109,64.53,109Z" transform="translate(0 -79.75)"/><path class="cls-19" d="M65.66,111.65a6.09,6.09,0,0,0-1.74-4c-1.82-2-4.86-.4-6.85,2.86A7.16,7.16,0,0,1,53,113.91a11.88,11.88,0,0,1-3.74.58c-1.77,0-3.78-.14-4.61-.81a8.14,8.14,0,0,0,5.5,1.21c2.93-.43,5.53-1.71,6.74-3.58a5.52,5.52,0,0,0,.28-.54c.17-.33,1.19-1.42,7.27-1.68Z" transform="translate(0 -79.75)"/><ellipse class="cls-20" cx="60.37" cy="116.67" rx="0.9" ry="1.47" transform="translate(-26.82 -61.34) rotate(-14.23)"/><ellipse class="cls-20" cx="65.48" cy="115.37" rx="0.83" ry="1.47" transform="translate(-26.35 -60.12) rotate(-14.23)"/><path class="cls-21" d="M59.91,111.73a3.57,3.57,0,0,0-2.11,1.39s.59-1.73,1.94-1.69C60.1,111.53,59.91,111.73,59.91,111.73Z" transform="translate(0 -79.75)"/><path class="cls-21" d="M63.08,111a3.15,3.15,0,0,1,2.27.18s-1.28-1.14-2.29-.49C62.83,111,63.08,111,63.08,111Z" transform="translate(0 -79.75)"/><path class="cls-22" d="M64.4,117.52a1,1,0,0,0,.48.53.55.55,0,0,0,.31,0,2.92,2.92,0,0,0,.36-.11,3.75,3.75,0,0,1,.39-.09.81.81,0,0,1,.46,0,.72.72,0,0,1,.37.34,1.59,1.59,0,0,1,.14.4,2.15,2.15,0,0,1,0,.84,1.16,1.16,0,0,1-.45.74,1.18,1.18,0,0,1-.19.11l-.2.06-.21,0a1.33,1.33,0,0,1-.2,0,1.76,1.76,0,0,1-.4-.07l-.37-.12.39,0a2.29,2.29,0,0,0,.37,0,1.05,1.05,0,0,0,.64-.25.91.91,0,0,0,.28-.57,2.07,2.07,0,0,0,0-.7c0-.23-.14-.44-.28-.5a1.26,1.26,0,0,0-.66,0l-.19,0a.66.66,0,0,1-.21,0,.74.74,0,0,1-.43-.1A1,1,0,0,1,64.4,117.52Z" transform="translate(0 -79.75)"/><path class="cls-22" d="M51.6,120.65a1.69,1.69,0,0,1,.38-.71,1.39,1.39,0,0,1,.7-.47.8.8,0,0,1,.21,0,1.61,1.61,0,0,1,.22,0l.22,0a1.18,1.18,0,0,1,.2.07,1.41,1.41,0,0,1,.35.23,1.93,1.93,0,0,1,.27.3c-.13,0-.24-.11-.36-.15l-.18-.06a.48.48,0,0,0-.17,0,1.14,1.14,0,0,0-.66,0,2,2,0,0,0-.61.32A6.54,6.54,0,0,0,51.6,120.65Z" transform="translate(0 -79.75)"/><path class="cls-23" d="M58.35,120.65s8.68,2.17,9.06,2c0,0-2,5.63-5.4,4.79S58.13,121.23,58.35,120.65Z" transform="translate(0 -79.75)"/><path class="cls-24" d="M58.89,124.1s.85,2.84,3.12,3.37a2.42,2.42,0,0,0,2-.22S63.49,123.86,58.89,124.1Z" transform="translate(0 -79.75)"/><path class="cls-10" d="M51,132.34s2.15,4.84,2.26,6.23c0,0-12.13,4.26-14.17,12.43s.09,11.12,4.95,16.93c0,0,2.57-5.91,5-4.73l-1.18,2.05.38.47-.88.87,3.18,1.16s1.5.46.57,1.48c-.7.77-1.28.74-1.53.68l-.42-.09-2.76-.43.86,1.31a2.58,2.58,0,0,1,.33.74c.16.66.08,1.66-2,1.47a4.87,4.87,0,0,1,.83,1.11.8.8,0,0,1-.57,1.13,4.9,4.9,0,0,1-2.1-.15,16.21,16.21,0,0,1-1.63-1,1.66,1.66,0,0,1-.71-1.87,1.49,1.49,0,0,1,1.59-1s-.59-1.34-.41-1.73c0,0-12.42-7.73-8.48-19.34C37.92,138.79,51,132.34,51,132.34Z" transform="translate(0 -79.75)"/><path class="cls-15" d="M43.3,171.23a9.3,9.3,0,0,1,1.19.77,10.51,10.51,0,0,1,1.09.91,11.55,11.55,0,0,1-1.2-.76A11.68,11.68,0,0,1,43.3,171.23Z" transform="translate(0 -79.75)"/><path class="cls-25" d="M12.74,204.57s-2.56-3.67-3.5-3.89-4.33,1.58-4.6,5.13A14.86,14.86,0,0,0,.12,218.75s3.64,1.54,4.64.94c0,0-.06-5.12.21-5.18,0,0,4-5.31,5.3-5.22l1.82.34s.48.27.65-.37.32-1.72.32-1.72L9.87,206S10.89,203.76,12.74,204.57Z" transform="translate(0 -79.75)"/><path class="cls-25" d="M95.05,232.27s-1.25,1,0,2.91A49.72,49.72,0,0,1,98.43,241c.14.54,4.55-1.69,5.68-4.73,0,0,7.37-2.87,9.91-9.41a4.1,4.1,0,0,0-4-2.14c-1.09,0-2.91,3.86-3.46,3.95s-4,1.46-6.09,1.28l-.23-2.18s-.72-1.64-2.45-.19-.26,4.43.39,4.63S95.3,234.14,95.05,232.27Z" transform="translate(0 -79.75)"/><circle class="cls-26" cx="368.37" cy="152.77" r="13.84"/><path class="cls-27" d="M368.37,246.8a14.27,14.27,0,1,1,10.1-4.18A14.17,14.17,0,0,1,368.37,246.8Zm0-27.67a13.4,13.4,0,1,0,13.4,13.4A13.41,13.41,0,0,0,368.37,219.13Z" transform="translate(0 -79.75)"/><path class="cls-27" d="M363.67,219.75l3.18,1.94,6.36-.44v-1.5A13.92,13.92,0,0,0,363.67,219.75Z" transform="translate(0 -79.75)"/><path class="cls-27" d="M365.26,226.41s-3.57,1.33-4.72,2.39l-.44.75a22,22,0,0,0,.48,5l.58.79,5,1,.66-.57,2.25-4.37.13-.88a40.63,40.63,0,0,0-3.22-3.58Z" transform="translate(0 -79.75)"/><path class="cls-27" d="M359,222.66l-1.5,4.24-.53.79-1.81,2.74A10.18,10.18,0,0,1,359,222.66Z" transform="translate(0 -79.75)"/><path class="cls-27" d="M375.24,230.69s2.38,3.71,2.47,4.11c.09,0,.84.26.84.26s2.65-1.19,2.69-1.54c0,.26,0-4.33-1-6.31a10,10,0,0,0-2.92-1.46l-.75.44-1.32,3.67Z" transform="translate(0 -79.75)"/><path class="cls-27" d="M355.2,235.81s2.21,2.52,2.87,2.56c0,0,.66.8.66.8l2.3,3.49-1.11.66S354.71,239.39,355.2,235.81Z" transform="translate(0 -79.75)"/><path class="cls-27" d="M369.06,241.33l-1.81,2.47-.13.84,2.78,1.19a8,8,0,0,0,6.09-2.25,16.75,16.75,0,0,0-.53-2.69l-.75-.49a20.62,20.62,0,0,1-4.9.49Z" transform="translate(0 -79.75)"/><rect class="cls-27" x="356.23" y="227.69" width="4.59" height="0.9" transform="matrix(0.87, 0.5, -0.5, 0.87, 162.1, -228.45)"/><rect class="cls-27" x="363.54" y="223.76" width="5.79" height="0.9" transform="translate(692.23 -135.55) rotate(107.86)"/><rect class="cls-27" x="371.12" y="223.07" width="7.07" height="0.9" transform="translate(288.24 -283.86) rotate(47.76)"/><rect class="cls-27" x="368.56" y="230.17" width="7.07" height="0.9" transform="translate(-19.55 -44.71) rotate(-5.25)"/><rect class="cls-27" x="364.33" y="238.12" width="7.07" height="0.9" transform="translate(345.19 596.67) rotate(-120)"/><rect class="cls-27" x="356.56" y="235.69" width="7.07" height="0.9" transform="translate(-31.29 335.97) rotate(-57.9)"/><rect class="cls-27" x="373.07" y="237.32" width="7.07" height="0.9" transform="translate(-10.66 378) rotate(-61.87)"/><rect class="cls-27" x="379.66" y="226.74" width="1.64" height="0.9" transform="translate(794.28 -11.18) rotate(128.19)"/><rect class="cls-27" x="380.59" y="233.28" width="1.64" height="0.9" transform="translate(140.69 -223.06) rotate(25.94)"/><rect class="cls-27" x="360.03" y="243.13" width="7.31" height="0.9" transform="translate(49.83 -141.28) rotate(10.38)"/><rect class="cls-28" x="98.67" y="162.11" width="2.41" height="36.1"/><rect class="cls-28" x="368.21" y="169.33" width="2.41" height="28.88"/><rect class="cls-28" x="890.45" y="162.11" width="2.41" height="36.1"/></g></g></g></svg>