<svg xmlns="http://www.w3.org/2000/svg" xmlns:xlink="http://www.w3.org/1999/xlink" viewBox="0 0 1058.28 271.33"><defs><style>.cls-1,.cls-10,.cls-5,.cls-7,.cls-9{fill:none;}.cls-2{clip-path:url(#clip-path);}.cls-3{fill:#baff78;}.cls-4{fill:#83ff00;}.cls-5{stroke:#000;stroke-width:0.5px;}.cls-10,.cls-5,.cls-7,.cls-9{stroke-miterlimit:10;}.cls-6{font-size:20.24px;font-family:LarkeNeue-Regular, Larke Neue;}.cls-7{stroke:#f30;}.cls-8{fill:#dbdbdb;}.cls-10,.cls-9{stroke:#dbdbdb;}.cls-9{stroke-width:0.75px;}.cls-10{stroke-width:0.25px;}.cls-11{fill:#f2d5c7;}.cls-12{fill:#6b99bd;}.cls-13,.cls-14{fill:#427b99;}.cls-13{opacity:0.5;}.cls-15{fill:#428e80;}.cls-16{fill:#b55930;}.cls-17{fill:#e0e0e0;}.cls-18{fill:#c9934b;}.cls-19{fill:#896029;}.cls-20{fill:#513513;}.cls-21{fill:#3f3f3f;}.cls-22{fill:#cfaa13;}.cls-23{fill:#c36a3e;}.cls-24{fill:#8e1d21;}.cls-25{fill:#d75f5e;}.cls-26{fill:#3a3a3a;}.cls-27{fill:#fff;}.cls-28{fill:#444;}.cls-29{fill:#f30;}</style><clipPath id="clip-path" transform="translate(0 -66.55)"><rect class="cls-1" x="1.32" width="399.5" height="399.5"/></clipPath></defs><title>zoom3</title><g id="Capa_2" data-name="Capa 2"><g id="Layer_1" data-name="Layer 1"><g class="cls-2"><rect class="cls-3" x="91.51" y="189.08" width="917.67" height="81.25" rx="1.02"/><path class="cls-4" d="M1008.16,256.62l0,0,0,79.22-915.65,0,0-79.23h915.62m0-2H92.54a2,2,0,0,0-2,2v79.2a2,2,0,0,0,2,2h915.62a2,2,0,0,0,2-2v-79.2a2,2,0,0,0-2-2Z" transform="translate(0 -66.55)"/><line class="cls-5" x1="109.91" y1="188.08" x2="109.91" y2="216.75"/><line class="cls-5" x1="196.97" y1="188.08" x2="196.97" y2="216.75"/><line class="cls-5" x1="284.02" y1="188.08" x2="284.02" y2="216.75"/><line class="cls-5" x1="371.08" y1="188.08" x2="371.08" y2="216.75"/><line class="cls-5" x1="458.13" y1="188.08" x2="458.13" y2="216.75"/><line class="cls-5" x1="545.19" y1="188.08" x2="545.19" y2="216.75"/><line class="cls-5" x1="632.24" y1="188.08" x2="632.24" y2="216.75"/><line class="cls-5" x1="719.3" y1="188.08" x2="719.3" y2="216.75"/><line class="cls-5" x1="806.36" y1="188.08" x2="806.36" y2="216.75"/><line class="cls-5" x1="893.41" y1="188.08" x2="893.41" y2="216.75"/><line class="cls-5" x1="980.47" y1="188.08" x2="980.47" y2="216.75"/><text class="cls-6" transform="translate(184.71 237.84)">0,1</text><text class="cls-6" transform="translate(269.94 237.84)">0,2</text><text class="cls-6" transform="translate(356.61 237.84)">0,3</text><text class="cls-6" transform="translate(443.3 237.84)">0,4</text><text class="cls-6" transform="translate(530.51 237.84)">0,5</text><text class="cls-6" transform="translate(617.37 237.84)">0,6</text><text class="cls-6" transform="translate(704.75 237.84)">0,7</text><text class="cls-6" transform="translate(791.54 237.84)">0,8</text><text class="cls-6" transform="translate(878.52 237.84)">0,9</text><text class="cls-6" transform="translate(976.92 237.84)">1</text><text class="cls-6" transform="translate(103.54 237.84)">0</text><line class="cls-5" x1="118.62" y1="188.08" x2="118.62" y2="208.94"/><line class="cls-5" x1="127.32" y1="188.08" x2="127.32" y2="208.94"/><line class="cls-5" x1="136.03" y1="188.08" x2="136.03" y2="208.94"/><line class="cls-5" x1="144.73" y1="188.08" x2="144.73" y2="208.94"/><line class="cls-5" x1="153.44" y1="188.08" x2="153.44" y2="212.93"/><line class="cls-5" x1="162.14" y1="188.08" x2="162.14" y2="208.94"/><line class="cls-5" x1="170.85" y1="188.08" x2="170.85" y2="208.94"/><line class="cls-5" x1="179.56" y1="188.08" x2="179.56" y2="208.94"/><line class="cls-5" x1="188.26" y1="188.08" x2="188.26" y2="208.94"/><line class="cls-5" x1="205.67" y1="188.08" x2="205.67" y2="208.94"/><line class="cls-5" x1="214.38" y1="188.08" x2="214.38" y2="208.94"/><line class="cls-5" x1="223.08" y1="188.08" x2="223.08" y2="208.94"/><line class="cls-5" x1="231.79" y1="188.08" x2="231.79" y2="208.94"/><line class="cls-5" x1="240.49" y1="188.08" x2="240.49" y2="212.93"/><line class="cls-5" x1="249.2" y1="188.08" x2="249.2" y2="208.94"/><line class="cls-5" x1="257.91" y1="188.08" x2="257.91" y2="208.94"/><line class="cls-5" x1="266.61" y1="188.08" x2="266.61" y2="208.94"/><line class="cls-5" x1="275.32" y1="188.08" x2="275.32" y2="208.94"/><line class="cls-5" x1="292.73" y1="188.08" x2="292.73" y2="208.94"/><line class="cls-5" x1="301.43" y1="188.08" x2="301.43" y2="208.94"/><line class="cls-5" x1="310.14" y1="188.08" x2="310.14" y2="208.94"/><line class="cls-5" x1="318.84" y1="188.08" x2="318.84" y2="208.94"/><line class="cls-5" x1="327.55" y1="188.08" x2="327.55" y2="212.93"/><line class="cls-5" x1="336.26" y1="188.08" x2="336.26" y2="208.94"/><line class="cls-5" x1="344.96" y1="188.08" x2="344.96" y2="208.94"/><line class="cls-5" x1="353.67" y1="188.08" x2="353.67" y2="208.94"/><line class="cls-7" x1="362.37" y1="184.8" x2="362.37" y2="208.94"/><line class="cls-5" x1="379.78" y1="188.08" x2="379.78" y2="208.94"/><line class="cls-5" x1="388.49" y1="188.08" x2="388.49" y2="208.94"/><line class="cls-5" x1="397.19" y1="188.08" x2="397.19" y2="208.94"/><line class="cls-5" x1="405.9" y1="188.08" x2="405.9" y2="208.94"/><line class="cls-5" x1="414.61" y1="188.08" x2="414.61" y2="212.93"/><line class="cls-5" x1="423.31" y1="188.08" x2="423.31" y2="208.94"/><line class="cls-5" x1="432.02" y1="188.08" x2="432.02" y2="208.94"/><line class="cls-5" x1="440.72" y1="188.08" x2="440.72" y2="208.94"/><line class="cls-5" x1="449.43" y1="188.08" x2="449.43" y2="208.94"/><line class="cls-5" x1="466.84" y1="188.08" x2="466.84" y2="208.94"/><line class="cls-5" x1="475.54" y1="188.08" x2="475.54" y2="208.94"/><line class="cls-5" x1="484.25" y1="188.08" x2="484.25" y2="208.94"/><line class="cls-5" x1="492.96" y1="188.08" x2="492.96" y2="208.94"/><line class="cls-5" x1="501.66" y1="188.08" x2="501.66" y2="212.93"/><line class="cls-5" x1="510.37" y1="188.08" x2="510.37" y2="208.94"/><line class="cls-5" x1="519.07" y1="188.08" x2="519.07" y2="208.94"/><line class="cls-5" x1="527.78" y1="188.08" x2="527.78" y2="208.94"/><line class="cls-5" x1="536.48" y1="188.08" x2="536.48" y2="208.94"/><line class="cls-5" x1="553.89" y1="188.08" x2="553.89" y2="208.94"/><line class="cls-5" x1="562.6" y1="188.08" x2="562.6" y2="208.94"/><line class="cls-5" x1="571.31" y1="188.08" x2="571.31" y2="208.94"/><line class="cls-5" x1="580.01" y1="188.08" x2="580.01" y2="208.94"/><line class="cls-5" x1="588.72" y1="188.08" x2="588.72" y2="212.93"/><line class="cls-5" x1="597.42" y1="188.08" x2="597.42" y2="208.94"/><line class="cls-5" x1="606.13" y1="188.08" x2="606.13" y2="208.94"/><line class="cls-5" x1="614.83" y1="188.08" x2="614.83" y2="208.94"/><line class="cls-5" x1="623.54" y1="188.08" x2="623.54" y2="208.94"/><line class="cls-5" x1="640.95" y1="188.08" x2="640.95" y2="208.94"/><line class="cls-5" x1="649.66" y1="188.08" x2="649.66" y2="208.94"/><line class="cls-5" x1="658.36" y1="188.08" x2="658.36" y2="208.94"/><line class="cls-5" x1="667.07" y1="188.08" x2="667.07" y2="208.94"/><line class="cls-5" x1="675.77" y1="188.08" x2="675.77" y2="212.93"/><line class="cls-5" x1="684.48" y1="188.08" x2="684.48" y2="208.94"/><line class="cls-5" x1="693.18" y1="188.08" x2="693.18" y2="208.94"/><line class="cls-5" x1="701.89" y1="188.08" x2="701.89" y2="208.94"/><line class="cls-5" x1="710.59" y1="188.08" x2="710.59" y2="208.94"/><line class="cls-5" x1="728.05" y1="188.08" x2="728.05" y2="208.94"/><line class="cls-5" x1="736.75" y1="188.08" x2="736.75" y2="208.94"/><line class="cls-5" x1="745.46" y1="188.08" x2="745.46" y2="208.94"/><line class="cls-5" x1="754.16" y1="188.08" x2="754.16" y2="208.94"/><line class="cls-5" x1="762.87" y1="188.08" x2="762.87" y2="212.93"/><line class="cls-5" x1="771.57" y1="188.08" x2="771.57" y2="208.94"/><line class="cls-5" x1="780.28" y1="188.08" x2="780.28" y2="208.94"/><line class="cls-5" x1="797.69" y1="188.08" x2="797.69" y2="208.94"/><line class="cls-5" x1="815.06" y1="188.08" x2="815.06" y2="208.94"/><line class="cls-5" x1="823.77" y1="188.08" x2="823.77" y2="208.94"/><line class="cls-5" x1="832.47" y1="188.08" x2="832.47" y2="208.94"/><line class="cls-5" x1="841.18" y1="188.08" x2="841.18" y2="208.94"/><line class="cls-5" x1="849.88" y1="188.08" x2="849.88" y2="212.93"/><line class="cls-5" x1="858.59" y1="188.08" x2="858.59" y2="208.94"/><line class="cls-5" x1="867.29" y1="188.08" x2="867.29" y2="208.94"/><line class="cls-5" x1="876" y1="188.08" x2="876" y2="208.94"/><line class="cls-5" x1="884.71" y1="188.08" x2="884.71" y2="208.94"/><line class="cls-5" x1="902.17" y1="188.08" x2="902.17" y2="208.94"/><line class="cls-5" x1="910.88" y1="188.08" x2="910.88" y2="208.94"/><line class="cls-5" x1="919.58" y1="188.08" x2="919.58" y2="208.94"/><line class="cls-5" x1="928.29" y1="188.08" x2="928.29" y2="208.94"/><line class="cls-5" x1="936.99" y1="188.08" x2="936.99" y2="212.93"/><line class="cls-5" x1="945.7" y1="188.08" x2="945.7" y2="208.94"/><line class="cls-5" x1="954.41" y1="188.08" x2="954.41" y2="208.94"/><line class="cls-5" x1="963.11" y1="188.08" x2="963.11" y2="208.94"/><line class="cls-5" x1="971.82" y1="188.08" x2="971.82" y2="208.94"/><line class="cls-5" x1="788.99" y1="188.08" x2="788.99" y2="208.94"/><rect class="cls-8" x="964.14" y="173.72" width="94.14" height="5.09" rx="0.95"/><path class="cls-9" d="M1053.16,244.51,1014,76.18c-1.31-5.5-6.06-8.86-11.74-9.26h-48l13.52,176.54" transform="translate(0 -66.55)"/><line class="cls-10" x1="956.13" y1="0.49" x2="969.26" y2="176.13"/><line class="cls-10" x1="960.33" y1="0.49" x2="973.46" y2="176.13"/><line class="cls-10" x1="964.54" y1="0.49" x2="977.67" y2="176.13"/><line class="cls-10" x1="968.74" y1="0.49" x2="981.87" y2="176.13"/><line class="cls-10" x1="972.94" y1="0.49" x2="986.07" y2="176.13"/><line class="cls-10" x1="977.14" y1="0.49" x2="990.27" y2="176.13"/><line class="cls-10" x1="981.34" y1="0.49" x2="994.47" y2="176.13"/><line class="cls-10" x1="985.54" y1="0.49" x2="998.67" y2="176.13"/><line class="cls-10" x1="989.74" y1="0.49" x2="1002.87" y2="176.13"/><line class="cls-10" x1="993.95" y1="0.49" x2="1007.07" y2="176.13"/><line class="cls-10" x1="998.15" y1="0.49" x2="1011.28" y2="176.13"/><line class="cls-10" x1="1002.35" y1="0.49" x2="1015.48" y2="176.13"/><line class="cls-10" x1="1006.55" y1="0.49" x2="1019.68" y2="176.13"/><line class="cls-10" x1="1011.03" y1="4.21" x2="1023.88" y2="176.13"/><line class="cls-10" x1="1016.46" y1="20.67" x2="1028.08" y2="176.13"/><line class="cls-10" x1="1022.6" y1="46.58" x2="1032.28" y2="176.13"/><line class="cls-10" x1="1028.97" y1="75.66" x2="1036.48" y2="176.13"/><line class="cls-10" x1="1034.98" y1="99.82" x2="1040.69" y2="176.13"/><line class="cls-10" x1="1040.53" y1="117.91" x2="1044.89" y2="176.13"/><line class="cls-10" x1="1046.92" y1="147.13" x2="1049.09" y2="176.13"/><line class="cls-10" x1="967.31" y1="169.97" x2="1048" y2="169.97"/><line class="cls-10" x1="967.03" y1="165.8" x2="1047.73" y2="165.8"/><line class="cls-10" x1="966.76" y1="161.62" x2="1047.46" y2="161.62"/><line class="cls-10" x1="966.49" y1="157.45" x2="1047.19" y2="157.45"/><line class="cls-10" x1="965.72" y1="153.27" x2="1046.92" y2="153.27"/><line class="cls-10" x1="965.45" y1="149.1" x2="1046.65" y2="149.1"/><line class="cls-10" x1="965.18" y1="144.92" x2="1046.38" y2="144.92"/><line class="cls-10" x1="964.91" y1="140.75" x2="1046.11" y2="140.75"/><line class="cls-10" x1="964.05" y1="136.57" x2="1044.26" y2="136.57"/><line class="cls-10" x1="963.78" y1="132.4" x2="1043.13" y2="132.4"/><line class="cls-10" x1="963.51" y1="128.22" x2="1041.51" y2="128.22"/><line class="cls-10" x1="963.24" y1="124.05" x2="1040.97" y2="124.05"/><line class="cls-10" x1="962.97" y1="119.87" x2="1039.34" y2="119.87"/><line class="cls-10" x1="962.7" y1="115.7" x2="1038.26" y2="115.7"/><line class="cls-10" x1="962.65" y1="111.52" x2="1037.83" y2="111.52"/><line class="cls-10" x1="962.38" y1="107.35" x2="1035.62" y2="107.35"/><line class="cls-10" x1="962.11" y1="103.17" x2="1035.23" y2="103.17"/><line class="cls-10" x1="961.84" y1="99" x2="1034.98" y2="99"/><line class="cls-10" x1="961.57" y1="94.82" x2="1033.99" y2="94.82"/><line class="cls-10" x1="961.3" y1="90.65" x2="1032.73" y2="90.65"/><line class="cls-10" x1="961.03" y1="86.47" x2="1031.1" y2="86.47"/><line class="cls-10" x1="960.76" y1="82.3" x2="1030.83" y2="82.3"/><line class="cls-10" x1="960.48" y1="78.12" x2="1030.56" y2="78.12"/><line class="cls-10" x1="959.27" y1="73.95" x2="1030.29" y2="73.95"/><line class="cls-10" x1="959" y1="69.77" x2="1030.02" y2="69.77"/><line class="cls-10" x1="958.72" y1="65.6" x2="1026.77" y2="65.6"/><line class="cls-10" x1="958.45" y1="61.42" x2="1023.62" y2="61.42"/><line class="cls-10" x1="958.18" y1="57.25" x2="1023.35" y2="57.25"/><line class="cls-10" x1="957.91" y1="53.07" x2="1023.08" y2="53.07"/><line class="cls-10" x1="957.64" y1="48.9" x2="1022.81" y2="48.9"/><line class="cls-10" x1="957.37" y1="44.72" x2="1022.54" y2="44.72"/><line class="cls-10" x1="957.37" y1="40.54" x2="1022.27" y2="40.54"/><line class="cls-10" x1="957.05" y1="36.37" x2="1020.12" y2="36.37"/><line class="cls-10" x1="955.61" y1="32.19" x2="1018.6" y2="32.19"/><line class="cls-10" x1="955.34" y1="28.02" x2="1018.6" y2="28.02"/><line class="cls-10" x1="955.07" y1="23.84" x2="1017.31" y2="23.84"/><line class="cls-10" x1="954.8" y1="19.67" x2="1016.34" y2="19.67"/><line class="cls-10" x1="954.53" y1="15.49" x2="1013.66" y2="15.49"/><line class="cls-10" x1="954.26" y1="11.32" x2="1013.38" y2="11.32"/><line class="cls-10" x1="953.99" y1="7.14" x2="1013.11" y2="7.14"/><path class="cls-11" d="M52.28,183.74S49.68,201.59,36,205.09s-22.15-1.45-22.15-1.45-1.39-1.35-3,1.7c0,0,11.79,7,29.08,4.39,16.8-4,20-24.34,20-24.34Z" transform="translate(0 -66.55)"/><path class="cls-11" d="M69.47,185.79s14.06,14.6,20.59,23.93,14.6,24.79,14.6,24.79,1.2,2.06,3.33-.4l-1.47-2.34.14-.79S86.2,183.79,79,183.26Z" transform="translate(0 -66.55)"/><path class="cls-12" d="M55.44,159.27s-5.39,8.76-2.19,15c0,0-2.57,7.33-3.44,8.66,0,0-1,1.5,3.74,4.77a22.66,22.66,0,0,0,9.79,3.69s.2.17.4-.46,1.4-3.2,1.4-3.2,5.07,4.43,5.57,5.36,1.16.24,1.16.24,11-7.37,11.48-10a.24.24,0,0,0-.08-.24L71.41,171.87s1.86-7.27,1-10.6Z" transform="translate(0 -66.55)"/><path class="cls-13" d="M53.25,174.3s-2.57,7.33-3.44,8.66c0,0-1,1.5,3.74,4.77a22.66,22.66,0,0,0,9.79,3.69s.2.17.4-.46,1.4-3.2,1.4-3.2Z" transform="translate(0 -66.55)"/><path class="cls-14" d="M68.22,165.58s.14,2.9,3.19,6.29c0,0,1.24-4.79,1-7Z" transform="translate(0 -66.55)"/><path class="cls-15" d="M56,132.93s2.6,2.85,2.66-.38S55.41,123,55.41,123Z" transform="translate(0 -66.55)"/><path class="cls-11" d="M70.72,130.91s9,19.1,15.9,20,11.29-7.6,11.29-7.6-4.8-7.46-2.08-10.11c1-.77,2,2.81,2.46,5,0,0,.3.59,1.2-.69.65-.93,1.73-2.78,2.43-4a10.51,10.51,0,0,0,.73-1.69c.16-.48.49-1,1.14-.54,1.09.75.55,4.73-.61,5.18,0,0,3.28-1,1.41,2.46,0,0,4.78.2,2.17,2.49s-4.67,3.18-6.77,2.85c0,0-4.43,12.59-14.06,11.26S70,143.23,70,143.23Z" transform="translate(0 -66.55)"/><path class="cls-16" d="M102,137.11a6.86,6.86,0,0,0-.76.53,4.91,4.91,0,0,0-.64.65,1.93,1.93,0,0,0-.38.79,1.55,1.55,0,0,0,0,.43,2,2,0,0,0,.15.41h0a2.11,2.11,0,0,0,.39.4,1.77,1.77,0,0,0,.49.26,2.57,2.57,0,0,0,.55.12,2.6,2.6,0,0,0,.56,0l.18,0-.08.16a6.33,6.33,0,0,0-.37,1,1.88,1.88,0,0,0,0,1,.65.65,0,0,0,.36.35,1.8,1.8,0,0,0,.52.13,4.59,4.59,0,0,0,1.11,0,4.16,4.16,0,0,1-1.11.13,1.66,1.66,0,0,1-.57-.12.75.75,0,0,1-.43-.39,1.88,1.88,0,0,1,0-1.15,6.77,6.77,0,0,1,.37-1.07l.11.13a2.1,2.1,0,0,1-.61,0,2,2,0,0,1-.6-.12,1.78,1.78,0,0,1-.54-.3,2.29,2.29,0,0,1-.43-.45h0a1.41,1.41,0,0,1-.17-.46,1.61,1.61,0,0,1,0-.49,2,2,0,0,1,.45-.84,4.13,4.13,0,0,1,.69-.63A4.93,4.93,0,0,1,102,137.11Z" transform="translate(0 -66.55)"/><path class="cls-16" d="M99.68,138.53a3.28,3.28,0,0,1,.72,1.61,2.53,2.53,0,0,1,0,.91,2.14,2.14,0,0,1-.37.81,3.59,3.59,0,0,0,.22-.84,4,4,0,0,0,0-.85,5.93,5.93,0,0,0-.21-.83A6.19,6.19,0,0,0,99.68,138.53Z" transform="translate(0 -66.55)"/><path class="cls-17" d="M55.41,123l.75,12.24s4.55,4.4.36,18.45l-3.94,6.84s3.23,5.45,20.3,6.2c0,0,2.47-5.15,1.76-15.49s-4.15-24.69-4.15-24.69S56.54,122.79,55.41,123Z" transform="translate(0 -66.55)"/><path class="cls-18" d="M46.08,111.89s11.93,7.23,16.4.7a40.32,40.32,0,0,1,9.56-10s2.36-8.17-6.7-11.3c-3.43-1.1-7.9,1.43-10.59,3.5s-10.9.33-10.9.33-.3,4.17,2.6,6.43l-3.9,3.27s.93,2.93,7.93,4.13Z" transform="translate(0 -66.55)"/><path class="cls-19" d="M46.08,111.89s7.85,4.73,13.18,3.1c3.79-1.16,12.92-13.42,12.92-13.42s-.52-5.81-5.17-5.66c-2.44-.15-10,5.63-10,5.63s-5.8,4.58-13.07-4.88a7.34,7.34,0,0,0,2.54,4.93l-3.9,3.27s.51,2.74,7.93,4.13Z" transform="translate(0 -66.55)"/><path class="cls-11" d="M70.94,98.71s8.43,19,6.73,20.11-8.55,2.85-10.3,3c0,0-1,2.75-.2,3.82l.83.55s.17,3.23-1.11,2.88-5.44-4-5.51-4.78c0,0,2.39-.75,2.24-2.4a13.49,13.49,0,0,1-2.24-6.94,6,6,0,0,1-2.48.82c-.95,0-3.76-.82-3.51-4.48.25-3.49,3-2.67,3-2.67s1.75.63,1.7,1.13a21.2,21.2,0,0,0-.45-6.15s2.55-1.27,2.8-2.57,4.13-2.23,5.06-2.25S70.94,98.71,70.94,98.71Z" transform="translate(0 -66.55)"/><path class="cls-20" d="M72.18,101.57a6.71,6.71,0,0,0-1.91-4.41c-2-2.18-5.35-.43-7.53,3.15a7.86,7.86,0,0,1-4.53,3.75,13.09,13.09,0,0,1-4.12.64c-1.94,0-4.15-.15-5.06-.89a8.92,8.92,0,0,0,6,1.33c3.22-.48,6.08-1.88,7.4-3.94.12-.19.22-.39.32-.59.18-.37,1.3-1.57,8-1.85Z" transform="translate(0 -66.55)"/><ellipse class="cls-21" cx="66.37" cy="107.09" rx="0.99" ry="1.62" transform="translate(-24.28 -46.95) rotate(-14.23)"/><ellipse class="cls-21" cx="71.98" cy="105.67" rx="0.91" ry="1.62" transform="translate(-23.76 -45.61) rotate(-14.23)"/><path class="cls-22" d="M65.86,101.66a4,4,0,0,0-2.32,1.53s.65-1.9,2.13-1.85C66.07,101.44,65.86,101.66,65.86,101.66Z" transform="translate(0 -66.55)"/><path class="cls-22" d="M69.34,100.91a3.44,3.44,0,0,1,2.51.19s-1.42-1.25-2.52-.54C69.07,100.82,69.34,100.91,69.34,100.91Z" transform="translate(0 -66.55)"/><path class="cls-23" d="M70.8,108a1.09,1.09,0,0,0,.52.59.59.59,0,0,0,.35,0,4,4,0,0,0,.39-.11,2.09,2.09,0,0,1,.43-.11,1,1,0,0,1,.51,0,.76.76,0,0,1,.4.37,2,2,0,0,1,.16.44,2.58,2.58,0,0,1,0,.92,1.26,1.26,0,0,1-.49.81l-.21.12-.23.08-.23,0h-.22a2,2,0,0,1-.43-.07c-.14,0-.27-.09-.41-.13l.42,0a3,3,0,0,0,.42,0,1.28,1.28,0,0,0,.7-.27,1,1,0,0,0,.3-.64,2,2,0,0,0,0-.76c0-.25-.15-.49-.31-.55a1.38,1.38,0,0,0-.72,0l-.21,0a1.43,1.43,0,0,1-.23,0,.78.78,0,0,1-.47-.11A1.07,1.07,0,0,1,70.8,108Z" transform="translate(0 -66.55)"/><path class="cls-23" d="M56.73,111.47a1.73,1.73,0,0,1,.41-.78,1.65,1.65,0,0,1,.77-.52.93.93,0,0,1,.24,0h.24l.24,0a.83.83,0,0,1,.22.08,1.62,1.62,0,0,1,.39.25,2.28,2.28,0,0,1,.29.33c-.15,0-.27-.12-.4-.17l-.19-.06a.67.67,0,0,0-.19,0,1.29,1.29,0,0,0-.73,0,2.31,2.31,0,0,0-.67.36C57.14,111.08,56.94,111.27,56.73,111.47Z" transform="translate(0 -66.55)"/><path class="cls-24" d="M64.14,111.47s9.55,2.38,10,2.23c0,0-2.23,6.19-5.93,5.27S63.91,112.11,64.14,111.47Z" transform="translate(0 -66.55)"/><path class="cls-25" d="M64.74,115.27s.93,3.12,3.43,3.7a2.63,2.63,0,0,0,2.14-.24S69.8,115,64.74,115.27Z" transform="translate(0 -66.55)"/><path class="cls-11" d="M56.08,124.32s2.36,5.32,2.48,6.85c0,0-13.33,4.69-15.58,13.66s.1,12.22,5.45,18.62c0,0,2.82-6.5,5.44-5.2l-1.29,2.25L53,161l-1,1,3.5,1.27s1.65.5.62,1.63c-.77.84-1.41.81-1.68.74s-.3-.07-.46-.09l-3-.48.94,1.45a2.68,2.68,0,0,1,.36.81c.18.72.1,1.82-2.17,1.61a5.36,5.36,0,0,1,.91,1.22.87.87,0,0,1-.63,1.24,5.5,5.5,0,0,1-2.3-.16,18,18,0,0,1-1.8-1.09,1.81,1.81,0,0,1-.77-2.06A1.63,1.63,0,0,1,47.26,167s-.65-1.48-.45-1.9c0,0-13.65-8.5-9.32-21.27C41.68,131.41,56.08,124.32,56.08,124.32Z" transform="translate(0 -66.55)"/><path class="cls-16" d="M47.6,167.08a9.41,9.41,0,0,1,1.31.84,11.36,11.36,0,0,1,1.2,1,9.52,9.52,0,0,1-1.32-.84A11.25,11.25,0,0,1,47.6,167.08Z" transform="translate(0 -66.55)"/><path class="cls-26" d="M14,203.73s-2.81-4-3.85-4.28-4.76,1.74-5.06,5.64a16.33,16.33,0,0,0-5,14.22s4,1.7,5.1,1c0,0-.07-5.64.23-5.7,0,0,4.4-5.83,5.84-5.73l2,.36s.53.3.72-.4.35-1.89.35-1.89l-3.51-1.65S12,202.84,14,203.73Z" transform="translate(0 -66.55)"/><path class="cls-26" d="M104.49,234.18s-1.37,1.14,0,3.19a54.08,54.08,0,0,1,3.72,6.4c.15.6,5-1.85,6.24-5.2,0,0,8.1-3.15,10.9-10.34,0,0-1.45-2.75-4.35-2.35-1.2,0-3.2,4.25-3.8,4.35s-4.44,1.59-6.69,1.39l-.25-2.39s-.8-1.8-2.7-.2-.29,4.86.43,5.08S104.77,236.24,104.49,234.18Z" transform="translate(0 -66.55)"/><circle class="cls-27" cx="362.64" cy="167.91" r="15.21"/><path class="cls-28" d="M362.64,250.16a15.69,15.69,0,1,1,11.1-4.6A15.6,15.6,0,0,1,362.64,250.16Zm0-30.43a14.73,14.73,0,1,0,14.72,14.73A14.75,14.75,0,0,0,362.64,219.73Z" transform="translate(0 -66.55)"/><path class="cls-28" d="M357.47,220.41l3.49,2.14,7-.49v-1.65A15.3,15.3,0,0,0,357.47,220.41Z" transform="translate(0 -66.55)"/><path class="cls-28" d="M359.22,227.74s-3.93,1.45-5.2,2.62l-.48.82a24,24,0,0,0,.53,5.53l.63.88,5.49,1.07.72-.63,2.48-4.81.14-1s-3.29-4-3.54-3.93Z" transform="translate(0 -66.55)"/><path class="cls-28" d="M352.28,223.61l-1.65,4.66-.58.88-2,3A11.13,11.13,0,0,1,352.28,223.61Z" transform="translate(0 -66.55)"/><path class="cls-28" d="M370.18,232.44s2.62,4.08,2.72,4.52c.1,0,.92.29.92.29s2.91-1.31,3-1.7c0,.29,0-4.75-1.11-6.94a11.08,11.08,0,0,0-3.21-1.6l-.82.49-1.46,4Z" transform="translate(0 -66.55)"/><path class="cls-28" d="M348.15,238.07s2.43,2.77,3.16,2.82c0,.05.72.87.72.87l2.53,3.83-1.21.73S347.62,242,348.15,238.07Z" transform="translate(0 -66.55)"/><path class="cls-28" d="M363.39,244.14l-2,2.72-.15.92,3.06,1.31a8.85,8.85,0,0,0,6.7-2.48,18.71,18.71,0,0,0-.58-3l-.83-.53a22.71,22.71,0,0,1-5.39.53Z" transform="translate(0 -66.55)"/><rect class="cls-28" x="349.29" y="229.14" width="5.05" height="0.98" transform="translate(161.95 -211.69) rotate(30)"/><rect class="cls-28" x="357.32" y="224.82" width="6.37" height="0.98" transform="translate(685.53 -115.25) rotate(107.86)"/><rect class="cls-28" x="365.66" y="224.06" width="7.77" height="0.98" transform="translate(287.34 -266.53) rotate(47.76)"/><rect class="cls-28" x="362.85" y="231.87" width="7.77" height="0.98" transform="translate(-19.74 -31.99) rotate(-5.25)"/><rect class="cls-28" x="358.19" y="240.61" width="7.77" height="0.98" transform="matrix(-0.5, -0.87, 0.87, -0.5, 334.31, 608.67)"/><rect class="cls-28" x="349.65" y="237.94" width="7.77" height="0.98" transform="translate(-36.3 344.69) rotate(-57.9)"/><rect class="cls-28" x="367.8" y="239.73" width="7.77" height="0.98" transform="translate(-15.42 388.17) rotate(-61.87)"/><rect class="cls-28" x="375.05" y="228.1" width="1.81" height="0.98" transform="translate(788.04 7.86) rotate(128.19)"/><rect class="cls-28" x="376.07" y="235.28" width="1.81" height="0.98" transform="translate(141.14 -207.7) rotate(25.94)"/><rect class="cls-28" x="353.47" y="246.11" width="8.03" height="0.98" transform="translate(50.27 -126.91) rotate(10.38)"/><rect class="cls-29" x="108.47" y="178.18" width="2.65" height="39.69"/><rect class="cls-29" x="978.91" y="178.18" width="2.65" height="39.69"/></g></g></g></svg>