<svg xmlns="http://www.w3.org/2000/svg" xmlns:xlink="http://www.w3.org/1999/xlink" viewBox="0 0 691.77 177.49"><defs><style>.cls-1,.cls-10,.cls-5,.cls-7,.cls-9{fill:none;}.cls-2{clip-path:url(#clip-path);}.cls-3{fill:#baff78;}.cls-4{fill:#83ff00;}.cls-5{stroke:#000;stroke-width:0.5px;}.cls-10,.cls-5,.cls-7,.cls-9{stroke-miterlimit:10;}.cls-6{font-size:13.23px;font-family:LarkeNeue-Regular, Larke Neue;}.cls-7{stroke:#f30;}.cls-8{fill:#dbdbdb;}.cls-10,.cls-9{stroke:#dbdbdb;}.cls-9{stroke-width:0.75px;}.cls-10{stroke-width:0.25px;}.cls-11{fill:#f2d5c7;}.cls-12{fill:#6b99bd;}.cls-13,.cls-14{fill:#427b99;}.cls-13{opacity:0.5;}.cls-15{fill:#428e80;}.cls-16{fill:#b55930;}.cls-17{fill:#e0e0e0;}.cls-18{fill:#c9934b;}.cls-19{fill:#896029;}.cls-20{fill:#513513;}.cls-21{fill:#3f3f3f;}.cls-22{fill:#cfaa13;}.cls-23{fill:#c36a3e;}.cls-24{fill:#8e1d21;}.cls-25{fill:#d75f5e;}.cls-26{fill:#3a3a3a;}.cls-27{fill:#fff;}.cls-28{fill:#444;}.cls-29{fill:#f30;}</style><clipPath id="clip-path" transform="translate(0 -110.82)"><rect class="cls-1" x="0.86" width="399.5" height="399.5"/></clipPath></defs><title>zoom4</title><g id="Capa_2" data-name="Capa 2"><g id="Layer_1" data-name="Layer 1"><g class="cls-2"><rect class="cls-3" x="60.17" y="124.07" width="599.17" height="52.42" rx="1.02"/><path class="cls-4" d="M658.32,235.89l0,0,0,50.4-597.15,0,0-50.39H658.32m0-2H61.19a2,2,0,0,0-2,2v50.37a2,2,0,0,0,2,2H658.32a2,2,0,0,0,2-2V235.91a2,2,0,0,0-2-2Z" transform="translate(0 -110.82)"/><line class="cls-5" x1="71.85" y1="123.07" x2="71.85" y2="141.82"/><line class="cls-5" x1="128.75" y1="123.07" x2="128.75" y2="141.82"/><line class="cls-5" x1="185.66" y1="123.07" x2="185.66" y2="141.82"/><line class="cls-5" x1="242.57" y1="123.07" x2="242.57" y2="141.82"/><line class="cls-5" x1="299.47" y1="123.07" x2="299.47" y2="141.82"/><line class="cls-5" x1="356.38" y1="123.07" x2="356.38" y2="141.82"/><line class="cls-5" x1="413.29" y1="123.07" x2="413.29" y2="141.82"/><line class="cls-5" x1="470.19" y1="123.07" x2="470.19" y2="141.82"/><line class="cls-5" x1="527.1" y1="123.07" x2="527.1" y2="141.82"/><line class="cls-5" x1="584" y1="123.07" x2="584" y2="141.82"/><line class="cls-5" x1="640.91" y1="123.07" x2="640.91" y2="141.82"/><text class="cls-6" transform="translate(120.74 155.6)">0,1</text><text class="cls-6" transform="translate(176.46 155.6)">0,2</text><text class="cls-6" transform="translate(233.1 155.6)">0,3</text><text class="cls-6" transform="translate(289.78 155.6)">0,4</text><text class="cls-6" transform="translate(346.78 155.6)">0,5</text><text class="cls-6" transform="translate(403.56 155.6)">0,6</text><text class="cls-6" transform="translate(460.68 155.6)">0,7</text><text class="cls-6" transform="translate(517.42 155.6)">0,8</text><text class="cls-6" transform="translate(574.27 155.6)">0,9</text><text class="cls-6" transform="translate(638.59 155.6)">1</text><text class="cls-6" transform="translate(67.68 155.6)">0</text><line class="cls-5" x1="77.54" y1="123.07" x2="77.54" y2="136.71"/><line class="cls-5" x1="83.23" y1="123.07" x2="83.23" y2="136.71"/><line class="cls-5" x1="88.92" y1="123.07" x2="88.92" y2="136.71"/><line class="cls-5" x1="94.61" y1="123.07" x2="94.61" y2="136.71"/><line class="cls-5" x1="100.3" y1="123.07" x2="100.3" y2="139.32"/><line class="cls-5" x1="105.99" y1="123.07" x2="105.99" y2="136.71"/><line class="cls-5" x1="111.68" y1="123.07" x2="111.68" y2="136.71"/><line class="cls-5" x1="117.37" y1="123.07" x2="117.37" y2="136.71"/><line class="cls-5" x1="123.06" y1="123.07" x2="123.06" y2="136.71"/><line class="cls-5" x1="134.44" y1="123.07" x2="134.44" y2="136.71"/><line class="cls-5" x1="140.13" y1="123.07" x2="140.13" y2="136.71"/><line class="cls-5" x1="145.82" y1="123.07" x2="145.82" y2="136.71"/><line class="cls-5" x1="151.52" y1="123.07" x2="151.52" y2="136.71"/><line class="cls-5" x1="157.21" y1="123.07" x2="157.21" y2="139.32"/><line class="cls-5" x1="162.9" y1="123.07" x2="162.9" y2="136.71"/><line class="cls-5" x1="168.59" y1="123.07" x2="168.59" y2="136.71"/><line class="cls-5" x1="174.28" y1="123.07" x2="174.28" y2="136.71"/><line class="cls-5" x1="179.97" y1="123.07" x2="179.97" y2="136.71"/><line class="cls-5" x1="191.35" y1="123.07" x2="191.35" y2="136.71"/><line class="cls-5" x1="197.04" y1="123.07" x2="197.04" y2="136.71"/><line class="cls-5" x1="202.73" y1="123.07" x2="202.73" y2="136.71"/><line class="cls-5" x1="208.42" y1="123.07" x2="208.42" y2="136.71"/><line class="cls-5" x1="214.11" y1="123.07" x2="214.11" y2="139.32"/><line class="cls-5" x1="219.8" y1="123.07" x2="219.8" y2="136.71"/><line class="cls-5" x1="225.49" y1="123.07" x2="225.49" y2="136.71"/><line class="cls-5" x1="231.18" y1="123.07" x2="231.18" y2="136.71"/><line class="cls-5" x1="248.26" y1="123.07" x2="248.26" y2="136.71"/><line class="cls-5" x1="253.95" y1="123.07" x2="253.95" y2="136.71"/><line class="cls-5" x1="259.64" y1="123.07" x2="259.64" y2="136.71"/><line class="cls-5" x1="265.33" y1="123.07" x2="265.33" y2="136.71"/><line class="cls-5" x1="271.02" y1="123.07" x2="271.02" y2="139.32"/><line class="cls-5" x1="276.71" y1="123.07" x2="276.71" y2="136.71"/><line class="cls-5" x1="282.4" y1="123.07" x2="282.4" y2="136.71"/><line class="cls-5" x1="288.09" y1="123.07" x2="288.09" y2="136.71"/><line class="cls-5" x1="293.78" y1="123.07" x2="293.78" y2="136.71"/><line class="cls-5" x1="305.16" y1="123.07" x2="305.16" y2="136.71"/><line class="cls-5" x1="310.85" y1="123.07" x2="310.85" y2="136.71"/><line class="cls-5" x1="316.54" y1="123.07" x2="316.54" y2="136.71"/><line class="cls-5" x1="322.23" y1="123.07" x2="322.23" y2="136.71"/><line class="cls-5" x1="327.93" y1="123.07" x2="327.93" y2="139.32"/><line class="cls-5" x1="333.62" y1="123.07" x2="333.62" y2="136.71"/><line class="cls-5" x1="339.31" y1="123.07" x2="339.31" y2="136.71"/><line class="cls-5" x1="345" y1="123.07" x2="345" y2="136.71"/><line class="cls-5" x1="350.69" y1="123.07" x2="350.69" y2="136.71"/><line class="cls-5" x1="362.07" y1="123.07" x2="362.07" y2="136.71"/><line class="cls-5" x1="367.76" y1="123.07" x2="367.76" y2="136.71"/><line class="cls-5" x1="373.45" y1="123.07" x2="373.45" y2="136.71"/><line class="cls-5" x1="379.14" y1="123.07" x2="379.14" y2="136.71"/><line class="cls-7" x1="384.83" y1="121.79" x2="384.83" y2="139.32"/><line class="cls-5" x1="390.52" y1="123.07" x2="390.52" y2="136.71"/><line class="cls-5" x1="396.21" y1="123.07" x2="396.21" y2="136.71"/><line class="cls-5" x1="401.9" y1="123.07" x2="401.9" y2="136.71"/><line class="cls-5" x1="407.59" y1="123.07" x2="407.59" y2="136.71"/><line class="cls-5" x1="418.98" y1="123.07" x2="418.98" y2="136.71"/><line class="cls-5" x1="424.67" y1="123.07" x2="424.67" y2="136.71"/><line class="cls-5" x1="430.36" y1="123.07" x2="430.36" y2="136.71"/><line class="cls-5" x1="436.05" y1="123.07" x2="436.05" y2="136.71"/><line class="cls-5" x1="441.74" y1="123.07" x2="441.74" y2="139.32"/><line class="cls-5" x1="447.43" y1="123.07" x2="447.43" y2="136.71"/><line class="cls-5" x1="453.12" y1="123.07" x2="453.12" y2="136.71"/><line class="cls-5" x1="458.81" y1="123.07" x2="458.81" y2="136.71"/><line class="cls-5" x1="464.5" y1="123.07" x2="464.5" y2="136.71"/><line class="cls-5" x1="475.91" y1="123.07" x2="475.91" y2="136.71"/><line class="cls-5" x1="481.6" y1="123.07" x2="481.6" y2="136.71"/><line class="cls-5" x1="487.29" y1="123.07" x2="487.29" y2="136.71"/><line class="cls-5" x1="492.98" y1="123.07" x2="492.98" y2="136.71"/><line class="cls-5" x1="498.67" y1="123.07" x2="498.67" y2="139.32"/><line class="cls-5" x1="504.36" y1="123.07" x2="504.36" y2="136.71"/><line class="cls-5" x1="510.05" y1="123.07" x2="510.05" y2="136.71"/><line class="cls-5" x1="521.43" y1="123.07" x2="521.43" y2="136.71"/><line class="cls-5" x1="532.79" y1="123.07" x2="532.79" y2="136.71"/><line class="cls-5" x1="538.48" y1="123.07" x2="538.48" y2="136.71"/><line class="cls-5" x1="544.17" y1="123.07" x2="544.17" y2="136.71"/><line class="cls-5" x1="549.86" y1="123.07" x2="549.86" y2="136.71"/><line class="cls-5" x1="555.55" y1="123.07" x2="555.55" y2="139.32"/><line class="cls-5" x1="561.24" y1="123.07" x2="561.24" y2="136.71"/><line class="cls-5" x1="566.93" y1="123.07" x2="566.93" y2="136.71"/><line class="cls-5" x1="572.62" y1="123.07" x2="572.62" y2="136.71"/><line class="cls-5" x1="578.31" y1="123.07" x2="578.31" y2="136.71"/><line class="cls-5" x1="589.73" y1="123.07" x2="589.73" y2="136.71"/><line class="cls-5" x1="595.42" y1="123.07" x2="595.42" y2="136.71"/><line class="cls-5" x1="601.11" y1="123.07" x2="601.11" y2="136.71"/><line class="cls-5" x1="606.8" y1="123.07" x2="606.8" y2="136.71"/><line class="cls-5" x1="612.49" y1="123.07" x2="612.49" y2="139.32"/><line class="cls-5" x1="618.18" y1="123.07" x2="618.18" y2="136.71"/><line class="cls-5" x1="623.88" y1="123.07" x2="623.88" y2="136.71"/><line class="cls-5" x1="629.57" y1="123.07" x2="629.57" y2="136.71"/><line class="cls-5" x1="635.26" y1="123.07" x2="635.26" y2="136.71"/><line class="cls-5" x1="515.74" y1="123.07" x2="515.74" y2="136.71"/><line class="cls-5" x1="236.88" y1="123.07" x2="236.88" y2="136.71"/><rect class="cls-8" x="630.24" y="113.69" width="61.53" height="3.33" rx="0.95"/><path class="cls-9" d="M688.43,227.28l-25.6-110c-.85-3.6-4-5.8-7.67-6.06H623.8l8.84,115.4" transform="translate(0 -110.82)"/><line class="cls-10" x1="625" y1="0.45" x2="633.59" y2="115.26"/><line class="cls-10" x1="627.75" y1="0.45" x2="636.33" y2="115.26"/><line class="cls-10" x1="630.5" y1="0.45" x2="639.08" y2="115.26"/><line class="cls-10" x1="633.24" y1="0.45" x2="641.83" y2="115.26"/><line class="cls-10" x1="635.99" y1="0.45" x2="644.57" y2="115.26"/><line class="cls-10" x1="638.74" y1="0.45" x2="647.32" y2="115.26"/><line class="cls-10" x1="641.48" y1="0.45" x2="650.07" y2="115.26"/><line class="cls-10" x1="644.23" y1="0.45" x2="652.81" y2="115.26"/><line class="cls-10" x1="646.98" y1="0.45" x2="655.56" y2="115.26"/><line class="cls-10" x1="649.72" y1="0.45" x2="658.3" y2="115.26"/><line class="cls-10" x1="652.47" y1="0.45" x2="661.05" y2="115.26"/><line class="cls-10" x1="655.21" y1="0.45" x2="663.8" y2="115.26"/><line class="cls-10" x1="657.96" y1="0.45" x2="666.54" y2="115.26"/><line class="cls-10" x1="660.89" y1="2.88" x2="669.29" y2="115.26"/><line class="cls-10" x1="664.44" y1="13.64" x2="672.04" y2="115.26"/><line class="cls-10" x1="668.45" y1="30.58" x2="674.78" y2="115.26"/><line class="cls-10" x1="672.62" y1="49.59" x2="677.53" y2="115.26"/><line class="cls-10" x1="676.55" y1="65.38" x2="680.27" y2="115.26"/><line class="cls-10" x1="680.18" y1="77.21" x2="683.02" y2="115.26"/><line class="cls-10" x1="684.35" y1="96.31" x2="685.77" y2="115.26"/><line class="cls-10" x1="632.31" y1="111.24" x2="685.06" y2="111.24"/><line class="cls-10" x1="632.13" y1="108.51" x2="684.88" y2="108.51"/><line class="cls-10" x1="631.95" y1="105.78" x2="684.71" y2="105.78"/><line class="cls-10" x1="631.78" y1="103.05" x2="684.53" y2="103.05"/><line class="cls-10" x1="631.27" y1="100.32" x2="684.35" y2="100.32"/><line class="cls-10" x1="631.1" y1="97.59" x2="684.17" y2="97.59"/><line class="cls-10" x1="630.92" y1="94.86" x2="684" y2="94.86"/><line class="cls-10" x1="630.74" y1="92.13" x2="683.82" y2="92.13"/><line class="cls-10" x1="630.18" y1="89.4" x2="682.61" y2="89.4"/><line class="cls-10" x1="630" y1="86.67" x2="681.87" y2="86.67"/><line class="cls-10" x1="629.83" y1="83.95" x2="680.81" y2="83.95"/><line class="cls-10" x1="629.65" y1="81.22" x2="680.46" y2="81.22"/><line class="cls-10" x1="629.47" y1="78.49" x2="679.4" y2="78.49"/><line class="cls-10" x1="629.3" y1="75.76" x2="678.69" y2="75.76"/><line class="cls-10" x1="629.26" y1="73.03" x2="678.41" y2="73.03"/><line class="cls-10" x1="629.09" y1="70.3" x2="676.96" y2="70.3"/><line class="cls-10" x1="628.91" y1="67.57" x2="676.71" y2="67.57"/><line class="cls-10" x1="628.73" y1="64.84" x2="676.55" y2="64.84"/><line class="cls-10" x1="628.56" y1="62.11" x2="675.9" y2="62.11"/><line class="cls-10" x1="628.38" y1="59.38" x2="675.07" y2="59.38"/><line class="cls-10" x1="628.2" y1="56.65" x2="674.01" y2="56.65"/><line class="cls-10" x1="628.03" y1="53.92" x2="673.83" y2="53.92"/><line class="cls-10" x1="627.85" y1="51.2" x2="673.66" y2="51.2"/><line class="cls-10" x1="627.05" y1="48.47" x2="673.48" y2="48.47"/><line class="cls-10" x1="626.88" y1="45.74" x2="673.3" y2="45.74"/><line class="cls-10" x1="626.7" y1="43.01" x2="671.18" y2="43.01"/><line class="cls-10" x1="626.52" y1="40.28" x2="669.12" y2="40.28"/><line class="cls-10" x1="626.34" y1="37.55" x2="668.95" y2="37.55"/><line class="cls-10" x1="626.17" y1="34.82" x2="668.77" y2="34.82"/><line class="cls-10" x1="625.99" y1="32.09" x2="668.59" y2="32.09"/><line class="cls-10" x1="625.81" y1="29.36" x2="668.41" y2="29.36"/><line class="cls-10" x1="625.81" y1="26.63" x2="668.24" y2="26.63"/><line class="cls-10" x1="625.61" y1="23.9" x2="666.83" y2="23.9"/><line class="cls-10" x1="624.66" y1="21.17" x2="665.84" y2="21.17"/><line class="cls-10" x1="624.49" y1="18.45" x2="665.84" y2="18.45"/><line class="cls-10" x1="624.31" y1="15.72" x2="664.99" y2="15.72"/><line class="cls-10" x1="624.13" y1="12.99" x2="664.36" y2="12.99"/><line class="cls-10" x1="623.96" y1="10.26" x2="662.61" y2="10.26"/><line class="cls-10" x1="623.78" y1="7.53" x2="662.43" y2="7.53"/><line class="cls-10" x1="623.6" y1="4.8" x2="662.25" y2="4.8"/><path class="cls-11" d="M34.17,187.56s-1.69,11.66-10.65,13.95-14.47-.95-14.47-.95-.91-.88-2,1.11c0,0,7.71,4.61,19,2.88,11-2.62,13-15.91,13-15.91Z" transform="translate(0 -110.82)"/><path class="cls-11" d="M45.41,188.9s9.19,9.54,13.46,15.64a182.63,182.63,0,0,1,9.54,16.2s.79,1.35,2.18-.26l-1-1.53.09-.52s-13.37-30.84-18.08-31.19Z" transform="translate(0 -110.82)"/><path class="cls-12" d="M36.24,171.56s-3.53,5.73-1.43,9.82a59.51,59.51,0,0,1-2.25,5.67s-.67,1,2.44,3.11a15,15,0,0,0,6.41,2.42s.13.11.26-.31.91-2.09.91-2.09a40.23,40.23,0,0,1,3.64,3.51.44.44,0,0,0,.76.15s7.19-4.82,7.5-6.52a.14.14,0,0,0,0-.16l-7.75-7.37s1.22-4.75.65-6.92Z" transform="translate(0 -110.82)"/><path class="cls-13" d="M34.81,181.38a59.51,59.51,0,0,1-2.25,5.67s-.67,1,2.44,3.11a15,15,0,0,0,6.41,2.42s.13.11.26-.31.91-2.09.91-2.09Z" transform="translate(0 -110.82)"/><path class="cls-14" d="M44.6,175.68a7.33,7.33,0,0,0,2.08,4.11,18.42,18.42,0,0,0,.64-4.6Z" transform="translate(0 -110.82)"/><path class="cls-15" d="M36.62,154.34s1.7,1.86,1.75-.25-2.15-6.26-2.15-6.26Z" transform="translate(0 -110.82)"/><path class="cls-11" d="M46.23,153s5.85,12.48,10.39,13,7.38-5,7.38-5-3.13-4.87-1.36-6.61c.68-.5,1.31,1.84,1.61,3.27,0,0,.2.38.79-.46.42-.6,1.13-1.81,1.58-2.62a6.42,6.42,0,0,0,.48-1.11c.11-.31.32-.64.75-.35.7.49.36,3.09-.41,3.39,0,0,2.15-.64.93,1.61,0,0,3.13.13,1.42,1.62s-3.05,2.08-4.43,1.86c0,0-2.89,8.24-9.19,7.36s-10.39-8-10.39-8Z" transform="translate(0 -110.82)"/><path class="cls-16" d="M66.66,157.08a3.3,3.3,0,0,0-.49.34,2.78,2.78,0,0,0-.42.42,1.25,1.25,0,0,0-.25.52.66.66,0,0,0,0,.28.79.79,0,0,0,.1.27h0a1.07,1.07,0,0,0,.25.27,1.41,1.41,0,0,0,.32.17,1.69,1.69,0,0,0,.73.06l.12,0,0,.11a3.18,3.18,0,0,0-.25.67,1.25,1.25,0,0,0,0,.69.45.45,0,0,0,.24.23,1.21,1.21,0,0,0,.34.08,2.49,2.49,0,0,0,.72,0,2.52,2.52,0,0,1-.73.09,1.17,1.17,0,0,1-.36-.08.49.49,0,0,1-.29-.26,1.28,1.28,0,0,1,0-.75,4.45,4.45,0,0,1,.24-.7l.07.09a1.33,1.33,0,0,1-.4,0,1.8,1.8,0,0,1-.39-.08,1.1,1.1,0,0,1-.35-.2,1.28,1.28,0,0,1-.28-.29h0a1.21,1.21,0,0,1-.11-.3.92.92,0,0,1,0-.33,1.17,1.17,0,0,1,.29-.55,2.52,2.52,0,0,1,.45-.41A3.35,3.35,0,0,1,66.66,157.08Z" transform="translate(0 -110.82)"/><path class="cls-16" d="M65.16,158a2.17,2.17,0,0,1,.47,1.06,1.68,1.68,0,0,1,0,.59,1.36,1.36,0,0,1-.25.53,2.14,2.14,0,0,0,.15-.55,2.53,2.53,0,0,0,0-.55,2.59,2.59,0,0,0-.13-.55C65.31,158.35,65.24,158.18,65.16,158Z" transform="translate(0 -110.82)"/><path class="cls-17" d="M36.22,147.83l.49,8s3,2.88.23,12.06l-2.57,4.48s2.11,3.56,13.27,4c0,0,1.62-3.37,1.15-10.13a121.46,121.46,0,0,0-2.71-16.14S37,147.72,36.22,147.83Z" transform="translate(0 -110.82)"/><path class="cls-18" d="M30.12,140.59s7.8,4.72,10.72.45a26.63,26.63,0,0,1,6.25-6.51s1.55-5.33-4.38-7.38c-2.24-.72-5.16.94-6.92,2.29s-7.13.21-7.13.21a5.34,5.34,0,0,0,1.7,4.21L27.81,136s.61,1.92,5.19,2.7Z" transform="translate(0 -110.82)"/><path class="cls-19" d="M30.12,140.59s5.13,3.09,8.62,2c2.48-.76,8.44-8.77,8.44-8.77s-.34-3.79-3.38-3.7c-1.59-.09-6.55,3.68-6.55,3.68s-3.8,3-8.54-3.19a4.82,4.82,0,0,0,1.65,3.23L27.81,136s.34,1.79,5.19,2.7Z" transform="translate(0 -110.82)"/><path class="cls-11" d="M46.37,132s5.51,12.43,4.4,13.15A25.92,25.92,0,0,1,44,147.05s-.62,1.79-.13,2.49l.54.36s.11,2.11-.73,1.88-3.55-2.61-3.6-3.12c0,0,1.57-.49,1.47-1.57a8.87,8.87,0,0,1-1.47-4.54,4,4,0,0,1-1.62.54,2.48,2.48,0,0,1-2.29-2.93c.16-2.28,2-1.74,2-1.74s1.15.41,1.11.74a13.75,13.75,0,0,0-.29-4s1.67-.84,1.83-1.69,2.7-1.45,3.31-1.47Z" transform="translate(0 -110.82)"/><path class="cls-20" d="M47.18,133.84A4.37,4.37,0,0,0,45.93,131c-1.3-1.43-3.49-.28-4.92,2.06a5.16,5.16,0,0,1-3,2.45,8.5,8.5,0,0,1-2.69.42,6.4,6.4,0,0,1-3.31-.58,5.89,5.89,0,0,0,4,.87,6.94,6.94,0,0,0,4.84-2.58c.08-.12.14-.26.21-.39s.85-1,5.22-1.2Z" transform="translate(0 -110.82)"/><ellipse class="cls-21" cx="43.38" cy="137.45" rx="0.65" ry="1.06" transform="translate(-32.45 -95.94) rotate(-14.23)"/><ellipse class="cls-21" cx="47.05" cy="136.52" rx="0.6" ry="1.06" transform="translate(-32.11 -95.07) rotate(-14.23)"/><path class="cls-22" d="M43.05,133.9a2.63,2.63,0,0,0-1.52,1s.43-1.24,1.4-1.21C43.19,133.76,43.05,133.9,43.05,133.9Z" transform="translate(0 -110.82)"/><path class="cls-22" d="M45.33,133.41a2.22,2.22,0,0,1,1.63.13s-.92-.82-1.64-.36C45.15,133.35,45.33,133.41,45.33,133.41Z" transform="translate(0 -110.82)"/><path class="cls-23" d="M46.28,138.06a.71.71,0,0,0,.34.38.37.37,0,0,0,.23,0l.25-.08.29-.07a.76.76,0,0,1,.33,0,.51.51,0,0,1,.26.24,2.12,2.12,0,0,1,.11.29,1.52,1.52,0,0,1,0,.6.87.87,0,0,1-.32.54l-.13.07-.15.05-.15,0a.75.75,0,0,1-.15,0,1.37,1.37,0,0,1-.28,0l-.27-.09.28,0a1.22,1.22,0,0,0,.27,0,.81.81,0,0,0,.46-.17.72.72,0,0,0,.2-.42,1.42,1.42,0,0,0,0-.5.47.47,0,0,0-.2-.36,1,1,0,0,0-.48,0l-.13,0-.15,0a.57.57,0,0,1-.31-.07A.68.68,0,0,1,46.28,138.06Z" transform="translate(0 -110.82)"/><path class="cls-23" d="M37.08,140.32a1.18,1.18,0,0,1,.27-.52,1.09,1.09,0,0,1,.5-.34l.16,0a.86.86,0,0,1,.16,0l.15,0a.38.38,0,0,1,.15,0,.82.82,0,0,1,.25.16,1.3,1.3,0,0,1,.19.22l-.26-.11-.12,0-.13,0a.93.93,0,0,0-.47,0,1.47,1.47,0,0,0-.44.24A4.57,4.57,0,0,0,37.08,140.32Z" transform="translate(0 -110.82)"/><path class="cls-24" d="M41.93,140.32s6.24,1.55,6.51,1.45c0,0-1.46,4-3.88,3.45S41.78,140.73,41.93,140.32Z" transform="translate(0 -110.82)"/><path class="cls-25" d="M42.32,142.8s.61,2,2.24,2.42a1.77,1.77,0,0,0,1.4-.16S45.63,142.62,42.32,142.8Z" transform="translate(0 -110.82)"/><path class="cls-11" d="M36.66,148.72a27.77,27.77,0,0,1,1.62,4.47s-8.71,3.06-10.18,8.93.06,8,3.56,12.17c0,0,1.84-4.25,3.56-3.4l-.85,1.48.27.33-.63.63,2.29.83s1.08.33.41,1.06c-.51.56-.93.54-1.1.49s-.2-.05-.3-.06l-2-.31.62.94a1.81,1.81,0,0,1,.24.53c.11.48.06,1.19-1.43,1.06a3.46,3.46,0,0,1,.6.8.57.57,0,0,1-.41.81,3.61,3.61,0,0,1-1.51-.11,11.84,11.84,0,0,1-1.17-.71,1.21,1.21,0,0,1-.51-1.35,1.07,1.07,0,0,1,1.14-.71s-.42-1-.29-1.25c0,0-8.92-5.55-6.1-13.9C27.25,153.35,36.66,148.72,36.66,148.72Z" transform="translate(0 -110.82)"/><path class="cls-16" d="M31.12,176.66a6.86,6.86,0,0,1,.85.55,8.24,8.24,0,0,1,.78.66,6.86,6.86,0,0,1-.85-.55A6.18,6.18,0,0,1,31.12,176.66Z" transform="translate(0 -110.82)"/><path class="cls-26" d="M9.16,200.62S7.32,198,6.64,197.83,3.53,199,3.33,201.51a10.68,10.68,0,0,0-3.24,9.3s2.61,1.11,3.33.67a24.58,24.58,0,0,1,.15-3.72S6.45,204,7.38,204l1.31.24s.35.2.47-.26.23-1.24.23-1.24l-2.3-1.08S7.83,200,9.16,200.62Z" transform="translate(0 -110.82)"/><path class="cls-26" d="M68.3,220.53s-.9.74,0,2.08a34.26,34.26,0,0,1,2.43,4.19c.1.39,3.27-1.21,4.09-3.4,0,0,5.29-2.06,7.12-6.77a3,3,0,0,0-2.84-1.53c-.79,0-2.09,2.78-2.49,2.84s-2.9,1.05-4.37.92l-.17-1.57s-.52-1.18-1.76-.13-.19,3.18.28,3.32S68.48,221.87,68.3,220.53Z" transform="translate(0 -110.82)"/><circle class="cls-27" cx="385.78" cy="109.89" r="9.94"/><path class="cls-28" d="M385.78,231a10.26,10.26,0,1,1,7.26-3A10.2,10.2,0,0,1,385.78,231Zm0-19.89a9.63,9.63,0,1,0,9.63,9.63A9.64,9.64,0,0,0,385.78,211.08Z" transform="translate(0 -110.82)"/><path class="cls-28" d="M382.4,211.53l2.29,1.39,4.56-.32v-1.07A9.94,9.94,0,0,0,382.4,211.53Z" transform="translate(0 -110.82)"/><path class="cls-28" d="M383.54,216.32a14.9,14.9,0,0,0-3.39,1.71l-.32.54a15.87,15.87,0,0,0,.35,3.61l.41.57,3.59.7.47-.41,1.62-3.14.1-.63a27.47,27.47,0,0,0-2.32-2.57Z" transform="translate(0 -110.82)"/><path class="cls-28" d="M379,213.62l-1.08,3-.38.58-1.3,2A7.3,7.3,0,0,1,379,213.62Z" transform="translate(0 -110.82)"/><path class="cls-28" d="M390.71,219.39s1.72,2.67,1.78,3c.06,0,.6.19.6.19s1.9-.85,1.94-1.11c0,.19,0-3.11-.73-4.53a7.26,7.26,0,0,0-2.1-1l-.54.32-1,2.63Z" transform="translate(0 -110.82)"/><path class="cls-28" d="M376.31,223.07s1.59,1.81,2.06,1.84c0,0,.48.57.48.57L380.5,228l-.79.47S376,225.64,376.31,223.07Z" transform="translate(0 -110.82)"/><path class="cls-28" d="M386.27,227l-1.3,1.77-.09.61,2,.85a5.74,5.74,0,0,0,4.38-1.62,11.76,11.76,0,0,0-.38-1.93l-.54-.35a14.81,14.81,0,0,1-3.52.35Z" transform="translate(0 -110.82)"/><rect class="cls-28" x="377.06" y="217.23" width="3.3" height="0.64" transform="translate(159.51 -271.02) rotate(30)"/><rect class="cls-28" x="382.31" y="214.41" width="4.16" height="0.64" transform="translate(706.67 -196.09) rotate(107.86)"/><rect class="cls-28" x="387.76" y="213.91" width="5.08" height="0.64" transform="translate(286.5 -329.54) rotate(47.76)"/><rect class="cls-28" x="385.92" y="219.02" width="5.08" height="0.64" transform="translate(-18.45 -74.33) rotate(-5.25)"/><rect class="cls-28" x="382.87" y="224.73" width="5.08" height="0.64" transform="matrix(-0.5, -0.87, 0.87, -0.5, 383.22, 560.53)"/><rect class="cls-28" x="377.29" y="222.98" width="5.08" height="0.64" transform="translate(-11.17 315.61) rotate(-57.9)"/><rect class="cls-28" x="389.15" y="224.16" width="5.08" height="0.64" transform="translate(9.04 353.22) rotate(-61.87)"/><rect class="cls-28" x="393.89" y="216.55" width="1.18" height="0.64" transform="translate(808.82 -69.94) rotate(128.19)"/><rect class="cls-28" x="394.56" y="221.25" width="1.18" height="0.64" transform="translate(136.75 -261.36) rotate(25.94)"/><rect class="cls-28" x="379.78" y="228.33" width="5.25" height="0.64" transform="translate(47.44 -175.96) rotate(10.38)"/><rect class="cls-29" x="70.91" y="116.6" width="1.73" height="25.94"/><rect class="cls-29" x="639.89" y="116.6" width="1.73" height="25.94"/></g></g></g></svg>