<svg xmlns="http://www.w3.org/2000/svg" viewBox="0 0 400 102.79"><defs><style>.cls-1{fill:#baff78;}.cls-2{fill:#83ff00;}.cls-3,.cls-5,.cls-7,.cls-8{fill:none;stroke-miterlimit:10;}.cls-3{stroke:#000;stroke-width:0.5px;}.cls-4{font-size:7.65px;font-family:LarkeNeue-Regular, Larke Neue;}.cls-5{stroke:#f30;}.cls-6{fill:#dbdbdb;}.cls-7,.cls-8{stroke:#dbdbdb;}.cls-7{stroke-width:0.75px;}.cls-8{stroke-width:0.25px;}.cls-9{fill:#f2d5c7;}.cls-10{fill:#6b99bd;}.cls-11,.cls-12{fill:#427b99;}.cls-11{opacity:0.5;}.cls-13{fill:#428e80;}.cls-14{fill:#b55930;}.cls-15{fill:#e0e0e0;}.cls-16{fill:#c9934b;}.cls-17{fill:#896029;}.cls-18{fill:#513513;}.cls-19{fill:#3f3f3f;}.cls-20{fill:#cfaa13;}.cls-21{fill:#c36a3e;}.cls-22{fill:#8e1d21;}.cls-23{fill:#d75f5e;}.cls-24{fill:#3a3a3a;}.cls-25{fill:#fff;}.cls-26{fill:#444;}.cls-27{fill:#f30;}</style></defs><title>5</title><g id="Capa_2" data-name="Capa 2"><g id="Layer_1" data-name="Layer 1"><rect class="cls-1" x="35.21" y="72.32" width="345.61" height="29.46" rx="1.02"/><path class="cls-2" d="M379.8,73.32l0,0,0,27.44-343.59,0,0-27.44H379.8m0-2H36.23a2,2,0,0,0-2,2v27.41a2,2,0,0,0,2,2H379.8a2,2,0,0,0,2-2V73.35a2,2,0,0,0-2-2Z"/><line class="cls-3" x1="41.54" y1="71.32" x2="41.54" y2="82.16"/><line class="cls-3" x1="74.45" y1="71.32" x2="74.45" y2="82.16"/><line class="cls-3" x1="107.35" y1="71.32" x2="107.35" y2="82.16"/><line class="cls-3" x1="140.26" y1="71.32" x2="140.26" y2="82.16"/><line class="cls-3" x1="173.16" y1="71.32" x2="173.16" y2="82.16"/><line class="cls-3" x1="206.07" y1="71.32" x2="206.07" y2="82.16"/><line class="cls-3" x1="238.97" y1="71.32" x2="238.97" y2="82.16"/><line class="cls-3" x1="271.88" y1="71.32" x2="271.88" y2="82.16"/><line class="cls-3" x1="304.78" y1="71.32" x2="304.78" y2="82.16"/><line class="cls-3" x1="337.68" y1="71.32" x2="337.68" y2="82.16"/><line class="cls-3" x1="370.59" y1="71.32" x2="370.59" y2="82.16"/><text class="cls-4" transform="translate(69.81 90.13)">0,1</text><text class="cls-4" transform="translate(102.03 90.13)">0,2</text><text class="cls-4" transform="translate(134.79 90.13)">0,3</text><text class="cls-4" transform="translate(167.56 90.13)">0,4</text><text class="cls-4" transform="translate(200.52 90.13)">0,5</text><text class="cls-4" transform="translate(233.35 90.13)">0,6</text><text class="cls-4" transform="translate(266.38 90.13)">0,7</text><text class="cls-4" transform="translate(299.18 90.13)">0,8</text><text class="cls-4" transform="translate(332.05 90.13)">0,9</text><text class="cls-4" transform="translate(369.25 90.13)">1</text><text class="cls-4" transform="translate(39.13 90.13)">0</text><line class="cls-3" x1="44.83" y1="71.32" x2="44.83" y2="79.21"/><line class="cls-3" x1="48.12" y1="71.32" x2="48.12" y2="79.21"/><line class="cls-3" x1="51.41" y1="71.32" x2="51.41" y2="79.21"/><line class="cls-3" x1="54.71" y1="71.32" x2="54.71" y2="79.21"/><line class="cls-3" x1="58" y1="71.32" x2="58" y2="80.71"/><line class="cls-3" x1="61.29" y1="71.32" x2="61.29" y2="79.21"/><line class="cls-3" x1="64.58" y1="71.32" x2="64.58" y2="79.21"/><line class="cls-3" x1="67.87" y1="71.32" x2="67.87" y2="79.21"/><line class="cls-3" x1="71.16" y1="71.32" x2="71.16" y2="79.21"/><line class="cls-3" x1="77.74" y1="71.32" x2="77.74" y2="79.21"/><line class="cls-3" x1="81.03" y1="71.32" x2="81.03" y2="79.21"/><line class="cls-3" x1="84.32" y1="71.32" x2="84.32" y2="79.21"/><line class="cls-3" x1="87.61" y1="71.32" x2="87.61" y2="79.21"/><line class="cls-3" x1="90.9" y1="71.32" x2="90.9" y2="80.71"/><line class="cls-3" x1="94.19" y1="71.32" x2="94.19" y2="79.21"/><line class="cls-3" x1="97.48" y1="71.32" x2="97.48" y2="79.21"/><line class="cls-3" x1="100.77" y1="71.32" x2="100.77" y2="79.21"/><line class="cls-3" x1="104.06" y1="71.32" x2="104.06" y2="79.21"/><line class="cls-3" x1="110.64" y1="71.32" x2="110.64" y2="79.21"/><line class="cls-3" x1="113.93" y1="71.32" x2="113.93" y2="79.21"/><line class="cls-3" x1="117.22" y1="71.32" x2="117.22" y2="79.21"/><line class="cls-3" x1="120.51" y1="71.32" x2="120.51" y2="79.21"/><line class="cls-3" x1="123.8" y1="71.32" x2="123.8" y2="80.71"/><line class="cls-3" x1="127.1" y1="71.32" x2="127.1" y2="79.21"/><line class="cls-3" x1="130.39" y1="71.32" x2="130.39" y2="79.21"/><line class="cls-3" x1="133.68" y1="71.32" x2="133.68" y2="79.21"/><line class="cls-3" x1="143.55" y1="71.32" x2="143.55" y2="79.21"/><line class="cls-3" x1="146.84" y1="71.32" x2="146.84" y2="79.21"/><line class="cls-3" x1="150.13" y1="71.32" x2="150.13" y2="79.21"/><line class="cls-3" x1="153.42" y1="71.32" x2="153.42" y2="79.21"/><line class="cls-3" x1="156.71" y1="71.32" x2="156.71" y2="80.71"/><line class="cls-3" x1="160" y1="71.32" x2="160" y2="79.21"/><line class="cls-3" x1="163.29" y1="71.32" x2="163.29" y2="79.21"/><line class="cls-3" x1="166.58" y1="71.32" x2="166.58" y2="79.21"/><line class="cls-3" x1="169.87" y1="71.32" x2="169.87" y2="79.21"/><line class="cls-3" x1="176.45" y1="71.32" x2="176.45" y2="79.21"/><line class="cls-3" x1="179.74" y1="71.32" x2="179.74" y2="79.21"/><line class="cls-3" x1="183.03" y1="71.32" x2="183.03" y2="79.21"/><line class="cls-3" x1="186.32" y1="71.32" x2="186.32" y2="79.21"/><line class="cls-3" x1="189.61" y1="71.32" x2="189.61" y2="80.71"/><line class="cls-3" x1="192.9" y1="71.32" x2="192.9" y2="79.21"/><line class="cls-3" x1="196.19" y1="71.32" x2="196.19" y2="79.21"/><line class="cls-3" x1="199.49" y1="71.32" x2="199.49" y2="79.21"/><line class="cls-3" x1="202.78" y1="71.32" x2="202.78" y2="79.21"/><line class="cls-3" x1="209.36" y1="71.32" x2="209.36" y2="79.21"/><line class="cls-3" x1="212.65" y1="71.32" x2="212.65" y2="79.21"/><line class="cls-3" x1="215.94" y1="71.32" x2="215.94" y2="79.21"/><line class="cls-3" x1="219.23" y1="71.32" x2="219.23" y2="79.21"/><line class="cls-3" x1="225.81" y1="71.32" x2="225.81" y2="79.21"/><line class="cls-3" x1="229.1" y1="71.32" x2="229.1" y2="79.21"/><line class="cls-3" x1="232.39" y1="71.32" x2="232.39" y2="79.21"/><line class="cls-3" x1="235.68" y1="71.32" x2="235.68" y2="79.21"/><line class="cls-5" x1="242.26" y1="70.32" x2="242.26" y2="79.21"/><line class="cls-3" x1="245.55" y1="71.32" x2="245.55" y2="79.21"/><line class="cls-3" x1="248.84" y1="71.32" x2="248.84" y2="79.21"/><line class="cls-3" x1="252.13" y1="71.32" x2="252.13" y2="79.21"/><line class="cls-3" x1="255.42" y1="71.32" x2="255.42" y2="80.71"/><line class="cls-3" x1="258.71" y1="71.32" x2="258.71" y2="79.21"/><line class="cls-3" x1="262" y1="71.32" x2="262" y2="79.21"/><line class="cls-3" x1="265.29" y1="71.32" x2="265.29" y2="79.21"/><line class="cls-3" x1="268.59" y1="71.32" x2="268.59" y2="79.21"/><line class="cls-3" x1="275.18" y1="71.32" x2="275.18" y2="79.21"/><line class="cls-3" x1="278.47" y1="71.32" x2="278.47" y2="79.21"/><line class="cls-3" x1="281.76" y1="71.32" x2="281.76" y2="79.21"/><line class="cls-3" x1="285.05" y1="71.32" x2="285.05" y2="79.21"/><line class="cls-3" x1="288.34" y1="71.32" x2="288.34" y2="80.71"/><line class="cls-3" x1="291.63" y1="71.32" x2="291.63" y2="79.21"/><line class="cls-3" x1="294.92" y1="71.32" x2="294.92" y2="79.21"/><line class="cls-3" x1="301.51" y1="71.32" x2="301.51" y2="79.21"/><line class="cls-3" x1="308.07" y1="71.32" x2="308.07" y2="79.21"/><line class="cls-3" x1="311.36" y1="71.32" x2="311.36" y2="79.21"/><line class="cls-3" x1="314.65" y1="71.32" x2="314.65" y2="79.21"/><line class="cls-3" x1="317.94" y1="71.32" x2="317.94" y2="79.21"/><line class="cls-3" x1="321.23" y1="71.32" x2="321.23" y2="80.71"/><line class="cls-3" x1="324.52" y1="71.32" x2="324.52" y2="79.21"/><line class="cls-3" x1="327.81" y1="71.32" x2="327.81" y2="79.21"/><line class="cls-3" x1="331.1" y1="71.32" x2="331.1" y2="79.21"/><line class="cls-3" x1="334.39" y1="71.32" x2="334.39" y2="79.21"/><line class="cls-3" x1="341" y1="71.32" x2="341" y2="79.21"/><line class="cls-3" x1="344.29" y1="71.32" x2="344.29" y2="79.21"/><line class="cls-3" x1="347.58" y1="71.32" x2="347.58" y2="79.21"/><line class="cls-3" x1="350.87" y1="71.32" x2="350.87" y2="79.21"/><line class="cls-3" x1="354.16" y1="71.32" x2="354.16" y2="80.71"/><line class="cls-3" x1="357.45" y1="71.32" x2="357.45" y2="79.21"/><line class="cls-3" x1="360.74" y1="71.32" x2="360.74" y2="79.21"/><line class="cls-3" x1="364.03" y1="71.32" x2="364.03" y2="79.21"/><line class="cls-3" x1="367.32" y1="71.32" x2="367.32" y2="79.21"/><line class="cls-3" x1="298.22" y1="71.32" x2="298.22" y2="79.21"/><line class="cls-3" x1="136.97" y1="71.32" x2="136.97" y2="79.21"/><line class="cls-3" x1="222.52" y1="71.32" x2="222.52" y2="80.71"/><rect class="cls-6" x="364.42" y="65.89" width="35.58" height="1.92" rx="0.95"/><path class="cls-7" d="M398.06,67.5,383.27,3.87A4.69,4.69,0,0,0,378.83.38H360.7l5.11,66.72"/><line class="cls-8" x1="361.39" y1="0.42" x2="366.35" y2="66.81"/><line class="cls-8" x1="362.98" y1="0.42" x2="367.94" y2="66.81"/><line class="cls-8" x1="364.57" y1="0.42" x2="369.53" y2="66.81"/><line class="cls-8" x1="366.16" y1="0.42" x2="371.12" y2="66.81"/><line class="cls-8" x1="367.74" y1="0.42" x2="372.71" y2="66.81"/><line class="cls-8" x1="369.33" y1="0.42" x2="374.29" y2="66.81"/><line class="cls-8" x1="370.92" y1="0.42" x2="375.88" y2="66.81"/><line class="cls-8" x1="372.51" y1="0.42" x2="377.47" y2="66.81"/><line class="cls-8" x1="374.1" y1="0.42" x2="379.06" y2="66.81"/><line class="cls-8" x1="375.68" y1="0.42" x2="380.65" y2="66.81"/><line class="cls-8" x1="377.27" y1="0.42" x2="382.23" y2="66.81"/><line class="cls-8" x1="378.86" y1="0.42" x2="383.82" y2="66.81"/><line class="cls-8" x1="380.45" y1="0.42" x2="385.41" y2="66.81"/><line class="cls-8" x1="382.14" y1="1.82" x2="387" y2="66.81"/><line class="cls-8" x1="384.19" y1="8.05" x2="388.59" y2="66.81"/><line class="cls-8" x1="386.51" y1="17.84" x2="390.17" y2="66.81"/><line class="cls-8" x1="388.92" y1="28.83" x2="391.76" y2="66.81"/><line class="cls-8" x1="391.19" y1="37.96" x2="393.35" y2="66.81"/><line class="cls-8" x1="393.29" y1="44.8" x2="394.94" y2="66.81"/><line class="cls-8" x1="395.71" y1="55.85" x2="396.53" y2="66.81"/><line class="cls-8" x1="365.61" y1="64.48" x2="396.12" y2="64.48"/><line class="cls-8" x1="365.51" y1="62.9" x2="396.01" y2="62.9"/><line class="cls-8" x1="365.41" y1="61.32" x2="395.91" y2="61.32"/><line class="cls-8" x1="365.31" y1="59.74" x2="395.81" y2="59.74"/><line class="cls-8" x1="365.02" y1="58.17" x2="395.71" y2="58.17"/><line class="cls-8" x1="364.91" y1="56.59" x2="395.61" y2="56.59"/><line class="cls-8" x1="364.81" y1="55.01" x2="395.5" y2="55.01"/><line class="cls-8" x1="364.71" y1="53.43" x2="395.4" y2="53.43"/><line class="cls-8" x1="364.38" y1="51.85" x2="394.7" y2="51.85"/><line class="cls-8" x1="364.28" y1="50.28" x2="394.27" y2="50.28"/><line class="cls-8" x1="364.18" y1="48.7" x2="393.66" y2="48.7"/><line class="cls-8" x1="364.08" y1="47.12" x2="393.46" y2="47.12"/><line class="cls-8" x1="363.98" y1="45.54" x2="392.84" y2="45.54"/><line class="cls-8" x1="363.87" y1="43.96" x2="392.43" y2="43.96"/><line class="cls-8" x1="363.86" y1="42.39" x2="392.27" y2="42.39"/><line class="cls-8" x1="363.75" y1="40.81" x2="391.44" y2="40.81"/><line class="cls-8" x1="363.65" y1="39.23" x2="391.29" y2="39.23"/><line class="cls-8" x1="363.55" y1="37.65" x2="391.19" y2="37.65"/><line class="cls-8" x1="363.45" y1="36.07" x2="390.82" y2="36.07"/><line class="cls-8" x1="363.34" y1="34.49" x2="390.34" y2="34.49"/><line class="cls-8" x1="363.24" y1="32.92" x2="389.73" y2="32.92"/><line class="cls-8" x1="363.14" y1="31.34" x2="389.63" y2="31.34"/><line class="cls-8" x1="363.04" y1="29.76" x2="389.52" y2="29.76"/><line class="cls-8" x1="362.58" y1="28.18" x2="389.42" y2="28.18"/><line class="cls-8" x1="362.47" y1="26.6" x2="389.32" y2="26.6"/><line class="cls-8" x1="362.37" y1="25.03" x2="388.09" y2="25.03"/><line class="cls-8" x1="362.27" y1="23.45" x2="386.9" y2="23.45"/><line class="cls-8" x1="362.17" y1="21.87" x2="386.8" y2="21.87"/><line class="cls-8" x1="362.06" y1="20.29" x2="386.7" y2="20.29"/><line class="cls-8" x1="361.96" y1="18.71" x2="386.6" y2="18.71"/><line class="cls-8" x1="361.86" y1="17.14" x2="386.49" y2="17.14"/><line class="cls-8" x1="361.86" y1="15.56" x2="386.39" y2="15.56"/><line class="cls-8" x1="361.74" y1="13.98" x2="385.58" y2="13.98"/><line class="cls-8" x1="361.19" y1="12.4" x2="385" y2="12.4"/><line class="cls-8" x1="361.09" y1="10.82" x2="385" y2="10.82"/><line class="cls-8" x1="360.99" y1="9.25" x2="384.52" y2="9.25"/><line class="cls-8" x1="360.89" y1="7.67" x2="384.15" y2="7.67"/><line class="cls-8" x1="360.79" y1="6.09" x2="383.13" y2="6.09"/><line class="cls-8" x1="360.68" y1="4.51" x2="383.03" y2="4.51"/><line class="cls-8" x1="360.58" y1="2.93" x2="382.93" y2="2.93"/><path class="cls-9" d="M19.76,44.53s-1,6.75-6.16,8.07-8.37-.55-8.37-.55-.53-.51-1.13.64a17.61,17.61,0,0,0,11,1.66c6.35-1.51,7.54-9.2,7.54-9.2Z"/><path class="cls-9" d="M26.26,45.31a102.23,102.23,0,0,1,7.78,9,105.44,105.44,0,0,1,5.52,9.37s.45.78,1.26-.15l-.56-.88.05-.31s-7.73-17.83-10.45-18Z"/><path class="cls-10" d="M21,35.28s-2,3.31-.83,5.68a33.34,33.34,0,0,1-1.3,3.27s-.39.57,1.41,1.81a8.56,8.56,0,0,0,3.7,1.39s.08.07.15-.17.53-1.21.53-1.21a21.09,21.09,0,0,1,2.1,2,.26.26,0,0,0,.45.08s4.15-2.78,4.33-3.77a.1.1,0,0,0,0-.09L27,40a11.74,11.74,0,0,0,.38-4Z"/><path class="cls-11" d="M20.13,41a33.34,33.34,0,0,1-1.3,3.27s-.39.57,1.41,1.81a8.56,8.56,0,0,0,3.7,1.39s.08.07.15-.17.53-1.21.53-1.21Z"/><path class="cls-12" d="M25.79,37.66A4.24,4.24,0,0,0,27,40a10.57,10.57,0,0,0,.37-2.66Z"/><path class="cls-13" d="M21.18,25.32s1,1.08,1-.14a11,11,0,0,0-1.24-3.62Z"/><path class="cls-9" d="M26.73,24.56s3.38,7.22,6,7.54S37,29.23,37,29.23s-1.82-2.82-.79-3.82c.39-.29.76,1.06.93,1.89,0,0,.12.22.46-.27s.65-1.05.91-1.52a3.35,3.35,0,0,0,.28-.64c.06-.18.19-.37.43-.2.41.28.21,1.79-.23,2,0,0,1.24-.37.53.93,0,0,1.81.08.82.94a3.2,3.2,0,0,1-2.56,1.08s-1.67,4.76-5.31,4.25-6-4.61-6-4.61Z"/><path class="cls-14" d="M38.54,26.91a1.79,1.79,0,0,0-.28.2,1.36,1.36,0,0,0-.24.24.71.71,0,0,0-.15.3.43.43,0,0,0,0,.16.76.76,0,0,0,.06.16h0a.54.54,0,0,0,.15.15.46.46,0,0,0,.18.1.8.8,0,0,0,.21.05h.28l0,.06a1.82,1.82,0,0,0-.14.39.68.68,0,0,0,0,.4.24.24,0,0,0,.13.13.73.73,0,0,0,.2.05,2,2,0,0,0,.42,0,1.21,1.21,0,0,1-.42.05.52.52,0,0,1-.21,0,.31.31,0,0,1-.17-.15.66.66,0,0,1,0-.44,1.9,1.9,0,0,1,.14-.4l0,.05a1,1,0,0,1-.24,0,.59.59,0,0,1-.22,0,.61.61,0,0,1-.21-.11,1.29,1.29,0,0,1-.16-.17h0a.58.58,0,0,1-.06-.36.9.9,0,0,1,.17-.32,2,2,0,0,1,.26-.24A2.28,2.28,0,0,1,38.54,26.91Z"/><path class="cls-14" d="M37.68,27.44a1.35,1.35,0,0,1,.27.61,1,1,0,0,1,0,.34.68.68,0,0,1-.14.31,1.25,1.25,0,0,0,.08-.32,1.16,1.16,0,0,0,0-.32,1.73,1.73,0,0,0-.07-.31Z"/><path class="cls-15" d="M20.94,21.56l.29,4.63s1.72,1.66.13,7l-1.49,2.59s1.22,2.06,7.68,2.34a12.69,12.69,0,0,0,.66-5.86,68.86,68.86,0,0,0-1.57-9.33S21.37,21.49,20.94,21.56Z"/><path class="cls-16" d="M17.42,17.37s4.51,2.73,6.19.27a15.33,15.33,0,0,1,3.62-3.77A3.49,3.49,0,0,0,24.7,9.6c-1.3-.41-3,.54-4,1.32s-4.12.13-4.12.13a3.07,3.07,0,0,0,1,2.43l-1.48,1.23s.36,1.11,3,1.57Z"/><path class="cls-17" d="M17.42,17.37s3,1.79,5,1.17c1.43-.44,4.88-5.07,4.88-5.07s-.2-2.19-2-2.14c-.92-.05-3.79,2.13-3.79,2.13s-2.2,1.73-4.94-1.85a2.76,2.76,0,0,0,1,1.87l-1.48,1.23s.19,1,3,1.57Z"/><path class="cls-9" d="M26.81,12.39S30,19.58,29.36,20a14.91,14.91,0,0,1-3.89,1.12s-.36,1-.08,1.44l.31.21s.07,1.22-.42,1.09A6.16,6.16,0,0,1,23.2,22s.91-.28.85-.91a5.11,5.11,0,0,1-.85-2.62,2.38,2.38,0,0,1-.94.31,1.43,1.43,0,0,1-1.32-1.69c.09-1.32,1.14-1,1.14-1s.66.23.65.42a8.14,8.14,0,0,0-.17-2.32s1-.48,1.05-1,1.57-.85,1.92-.85Z"/><path class="cls-18" d="M27.28,13.47a2.48,2.48,0,0,0-.72-1.66c-.75-.83-2-.17-2.85,1.19A3,3,0,0,1,22,14.41a4.83,4.83,0,0,1-1.55.24,3.6,3.6,0,0,1-1.92-.33,3.37,3.37,0,0,0,2.29.5,4,4,0,0,0,2.8-1.49l.11-.22c.08-.14.5-.59,3-.7Z"/><ellipse class="cls-19" cx="25.09" cy="15.56" rx="0.37" ry="0.61" transform="translate(-3.05 6.64) rotate(-14.23)"/><ellipse class="cls-19" cx="27.21" cy="15.02" rx="0.34" ry="0.61" transform="translate(-2.86 7.15) rotate(-14.23)"/><path class="cls-20" d="M24.89,13.51a1.48,1.48,0,0,0-.87.57s.24-.71.8-.7C25,13.42,24.89,13.51,24.89,13.51Z"/><path class="cls-20" d="M26.21,13.22a1.32,1.32,0,0,1,.95.07s-.54-.47-1-.2C26.11,13.19,26.21,13.22,26.21,13.22Z"/><path class="cls-21" d="M26.76,15.91a.37.37,0,0,0,.2.22.2.2,0,0,0,.13,0l.15,0,.16,0a.31.31,0,0,1,.19,0,.26.26,0,0,1,.15.14.49.49,0,0,1,.06.17.65.65,0,0,1,0,.34.47.47,0,0,1-.18.31l-.08,0-.09,0h-.08a.27.27,0,0,1-.09,0l-.16,0L27,17h.16a.75.75,0,0,0,.15,0,.49.49,0,0,0,.27-.1.41.41,0,0,0,.11-.24.7.7,0,0,0,0-.29c0-.1-.06-.19-.12-.21a.5.5,0,0,0-.27,0l-.08,0H27.1a.32.32,0,0,1-.34-.33Z"/><path class="cls-21" d="M21.44,17.21a.64.64,0,0,1,.16-.29.61.61,0,0,1,.29-.2l.09,0h.09l.09,0a.19.19,0,0,1,.08,0,.75.75,0,0,1,.15.09.69.69,0,0,1,.11.13l-.15-.07-.07,0-.07,0a.53.53,0,0,0-.28,0,.67.67,0,0,0-.25.13C21.6,17.06,21.52,17.14,21.44,17.21Z"/><path class="cls-22" d="M24.24,17.21s3.61.9,3.77.85c0,0-.84,2.33-2.24,2S24.16,17.45,24.24,17.21Z"/><path class="cls-23" d="M24.47,18.65s.35,1.18,1.3,1.4a1,1,0,0,0,.81-.09S26.38,18.55,24.47,18.65Z"/><path class="cls-9" d="M21.2,22.07a16.41,16.41,0,0,1,.94,2.59s-5,1.77-5.89,5.16,0,4.62,2.06,7c0,0,1.06-2.46,2.05-2l-.49.85.16.19-.36.36,1.32.49s.62.18.23.61-.53.31-.63.28l-.18,0-1.14-.18.35.54a1,1,0,0,1,.14.31c.07.27,0,.69-.82.61a1.79,1.79,0,0,1,.34.46.33.33,0,0,1-.23.47,2.08,2.08,0,0,1-.87-.06,4.7,4.7,0,0,1-.68-.42.68.68,0,0,1-.3-.77.62.62,0,0,1,.66-.42s-.24-.55-.17-.71c0,0-5.16-3.22-3.52-8S21.2,22.07,21.2,22.07Z"/><path class="cls-14" d="M18,38.23a3.27,3.27,0,0,1,.5.32,5.32,5.32,0,0,1,.45.38,3.27,3.27,0,0,1-.5-.32A5.32,5.32,0,0,1,18,38.23Z"/><path class="cls-24" d="M5.29,52.08s-1.06-1.52-1.45-1.61A2.29,2.29,0,0,0,1.93,52.6,6.16,6.16,0,0,0,.05,58s1.51.64,1.93.39a13.15,13.15,0,0,1,.09-2.16s1.66-2.2,2.2-2.16l.76.13s.19.12.26-.15a5.71,5.71,0,0,0,.14-.71L4.1,52.69S4.53,51.75,5.29,52.08Z"/><path class="cls-24" d="M39.49,63.59s-.52.44,0,1.21a20.93,20.93,0,0,1,1.41,2.42c.06.23,1.89-.7,2.36-2a7.89,7.89,0,0,0,4.12-3.91,1.71,1.71,0,0,0-1.64-.88c-.46,0-1.21,1.6-1.44,1.64a9.26,9.26,0,0,1-2.53.53l-.1-.91s-.3-.68-1-.07-.1,1.84.17,1.92S39.6,64.37,39.49,63.59Z"/><circle class="cls-25" cx="242.07" cy="63.7" r="5.75"/><path class="cls-26" d="M242.07,69.63a5.92,5.92,0,1,1,4.19-1.73A5.89,5.89,0,0,1,242.07,69.63Zm0-11.5a5.57,5.57,0,1,0,5.56,5.57A5.58,5.58,0,0,0,242.07,58.13Z"/><path class="cls-26" d="M240.11,58.39l1.32.81,2.65-.19v-.62A5.78,5.78,0,0,0,240.11,58.39Z"/><path class="cls-26" d="M240.77,61.16a8.73,8.73,0,0,0-2,1l-.18.31a8.94,8.94,0,0,0,.2,2.09l.24.33,2.07.41.28-.24.93-1.82.06-.36a16.68,16.68,0,0,0-1.34-1.49Z"/><path class="cls-26" d="M238.15,59.6l-.62,1.76-.22.33-.75,1.14A4.23,4.23,0,0,1,238.15,59.6Z"/><path class="cls-26" d="M244.92,62.94s1,1.54,1,1.7l.34.11s1.1-.49,1.12-.64a8.19,8.19,0,0,0-.42-2.62,4.25,4.25,0,0,0-1.21-.61l-.31.19-.55,1.52Z"/><path class="cls-26" d="M236.59,65.07s.92,1,1.19,1.06c0,0,.28.33.28.33l.95,1.45-.46.27S236.39,66.55,236.59,65.07Z"/><path class="cls-26" d="M242.35,67.36l-.75,1-.06.34,1.16.5a3.35,3.35,0,0,0,2.53-.94,6.93,6.93,0,0,0-.22-1.11L244.7,67a8.75,8.75,0,0,1-2,.21Z"/><rect class="cls-26" x="237.02" y="61.69" width="1.91" height="0.37" transform="translate(62.82 -110.7) rotate(30)"/><rect class="cls-26" x="240.06" y="60.06" width="2.41" height="0.37" transform="translate(372.6 -150.91) rotate(107.86)"/><rect class="cls-26" x="243.21" y="59.77" width="2.94" height="0.37" transform="translate(124.57 -161.48) rotate(47.76)"/><rect class="cls-26" x="242.15" y="62.72" width="2.94" height="0.37" transform="translate(-4.74 22.57) rotate(-5.25)"/><rect class="cls-26" x="240.39" y="66.02" width="2.94" height="0.37" transform="translate(305.44 308.77) rotate(-120)"/><rect class="cls-26" x="237.16" y="65.01" width="2.94" height="0.37" transform="translate(56.6 232.71) rotate(-57.9)"/><rect class="cls-26" x="244.02" y="65.69" width="2.94" height="0.37" transform="translate(71.63 251.29) rotate(-61.87)"/><rect class="cls-26" x="246.76" y="61.3" width="0.68" height="0.37" transform="translate(448.18 -94.73) rotate(128.19)"/><rect class="cls-26" x="247.14" y="64.01" width="0.68" height="0.37" transform="translate(53.03 -101.8) rotate(25.94)"/><rect class="cls-26" x="238.6" y="68.11" width="3.04" height="0.37" transform="translate(16.23 -42.14) rotate(10.38)"/><rect class="cls-27" x="41" y="67.58" width="1" height="15"/><rect class="cls-27" x="370" y="67.58" width="1" height="15"/></g></g></svg>