<svg xmlns="http://www.w3.org/2000/svg" width="436" height="130" viewBox="0 0 436 130"><defs><style>.a{fill:none;stroke:#f05023;stroke-miterlimit:10;stroke-width:2px;}.b{isolation:isolate;}.c{fill:#f58220;}</style></defs><title>Mesa de trabajo 1</title><path class="a" d="M31.08,56S30,71.09,35.59,71.09h39S78,71.09,78,80"/><path class="a" d="M124.92,56.11s1.06,14.94-4.51,14.94h-39S78,71.06,78,79.89"/><g class="b"><g class="b"><path class="c" d="M35.36,22.95h1.29V43.72H35V24.9L31.4,26.76l-.69-1.36Z"/><path class="c" d="M55.6,28.57a4.88,4.88,0,0,1,3,.89A4.74,4.74,0,0,1,60.29,32a5.83,5.83,0,0,1,5.36-3.44,4.6,4.6,0,0,1,3.66,1.55,6.4,6.4,0,0,1,1.35,4.34v9.26H69.08V34.14a4.4,4.4,0,0,0-1-3,3.34,3.34,0,0,0-2.7-1.12,4.72,4.72,0,0,0-3.35,1.42,5,5,0,0,0-1.48,3.78v8.45H59V34.14a4.44,4.44,0,0,0-.94-3,3.33,3.33,0,0,0-2.7-1.11A4.73,4.73,0,0,0,52,31.49a5,5,0,0,0-1.48,3.78v8.45H49V28.94h1.58v2.74A5.66,5.66,0,0,1,55.6,28.57Z"/><path class="c" d="M86.1,30.79a8,8,0,0,1,2,5.57,6.78,6.78,0,0,1,0,.73H75.7a6,6,0,0,0,1.81,4,5.61,5.61,0,0,0,4,1.52,5.38,5.38,0,0,0,4.53-2l1.46.63a6.9,6.9,0,0,1-6,2.81,7.14,7.14,0,0,1-5.46-2.17,7.8,7.8,0,0,1-2-5.57,8.08,8.08,0,0,1,2-5.52,6.43,6.43,0,0,1,5.07-2.24A6.51,6.51,0,0,1,86.1,30.79Zm-8.77.88a6.29,6.29,0,0,0-1.64,4.09H86.44a6.43,6.43,0,0,0-1.65-4.1,5.21,5.21,0,0,0-7.46,0Z"/><path class="c" d="M98.23,43.06a3.94,3.94,0,0,1-2.64,1q-3.16,0-3.16-3.49V30.43h-2V28.94h2V24.22H94v4.72h2.74v1.49H94V40.92q0,1.68,1.63,1.68a2.72,2.72,0,0,0,1.71-.69Z"/><path class="c" d="M107.55,28.59h.22v1.9a7.09,7.09,0,0,0-1.63-.18,3.8,3.8,0,0,0-2.43.86,3.31,3.31,0,0,0-1.08,2.75v9.79H101V28.94h1.58v2.17a5.61,5.61,0,0,1,1.88-1.66A6.34,6.34,0,0,1,107.55,28.59Z"/><path class="c" d="M122.19,30.8a7.92,7.92,0,0,1,2,5.55,7.94,7.94,0,0,1-2,5.54,6.93,6.93,0,0,1-10.11,0,7.9,7.9,0,0,1-2-5.54,8,8,0,0,1,2-5.56,6.54,6.54,0,0,1,5.06-2.2A6.42,6.42,0,0,1,122.19,30.8Zm-8.92,1a6.64,6.64,0,0,0-1.51,4.5,6.66,6.66,0,0,0,1.51,4.51,5.2,5.2,0,0,0,7.78,0,6.71,6.71,0,0,0,1.49-4.51,6.71,6.71,0,0,0-1.49-4.51,5.19,5.19,0,0,0-7.78,0Z"/><path class="c" d="M168.15,29.17v1.49H153.5V29.17Zm0,6.84v1.49H153.5V36Z"/><path class="c" d="M202.09,22.95h1.29V43.72h-1.66V24.9l-3.59,1.86-.69-1.36Z"/><path class="c" d="M219.53,25.67a12.85,12.85,0,0,1,2.18,7.68A12.92,12.92,0,0,1,219.53,41a6.53,6.53,0,0,1-11,0,12.89,12.89,0,0,1-2.18-7.7,12.83,12.83,0,0,1,2.2-7.7,6.53,6.53,0,0,1,11,0Zm-9.79,1.05a12.29,12.29,0,0,0-1.64,6.69,12.32,12.32,0,0,0,1.63,6.67,4.89,4.89,0,0,0,8.61,0A12.22,12.22,0,0,0,220,33.38a12.33,12.33,0,0,0-1.66-6.71,4.85,4.85,0,0,0-8.58.06Z"/><path class="c" d="M237.87,25.67a12.85,12.85,0,0,1,2.18,7.68A12.92,12.92,0,0,1,237.87,41a6.53,6.53,0,0,1-11,0,12.89,12.89,0,0,1-2.18-7.7,12.83,12.83,0,0,1,2.2-7.7,6.53,6.53,0,0,1,11,0Zm-9.79,1.05a12.29,12.29,0,0,0-1.64,6.69,12.32,12.32,0,0,0,1.63,6.67,4.89,4.89,0,0,0,8.61,0,12.23,12.23,0,0,0,1.65-6.68,12.33,12.33,0,0,0-1.66-6.71,4.85,4.85,0,0,0-8.58.06Z"/><path class="c" d="M258.82,28.59a6.66,6.66,0,0,1,5.82,3.25l-1.45.63a4.82,4.82,0,0,0-4.37-2.39,4.91,4.91,0,0,0-3.9,1.75,6.66,6.66,0,0,0-1.51,4.51,6.66,6.66,0,0,0,1.51,4.51,4.91,4.91,0,0,0,3.9,1.75,4.82,4.82,0,0,0,4.37-2.39l1.45.64a6.68,6.68,0,0,1-2.45,2.37,6.75,6.75,0,0,1-3.36.85,6.53,6.53,0,0,1-5.05-2.19,7.92,7.92,0,0,1-2-5.54,8,8,0,0,1,2-5.56A6.52,6.52,0,0,1,258.82,28.59Z"/><path class="c" d="M279.34,30.79a8,8,0,0,1,2,5.57,6.78,6.78,0,0,1,0,.73H268.94a6,6,0,0,0,1.81,4,5.61,5.61,0,0,0,4,1.52,5.38,5.38,0,0,0,4.53-2l1.46.63a6.9,6.9,0,0,1-6,2.81,7.14,7.14,0,0,1-5.46-2.17,7.8,7.8,0,0,1-2-5.57,8.08,8.08,0,0,1,2-5.52,6.43,6.43,0,0,1,5.07-2.24A6.51,6.51,0,0,1,279.34,30.79Zm-8.77.88a6.29,6.29,0,0,0-1.64,4.09h10.75a6.43,6.43,0,0,0-1.65-4.1,5.21,5.21,0,0,0-7.46,0Z"/><path class="c" d="M291.82,28.57a5.17,5.17,0,0,1,3.92,1.57,6,6,0,0,1,1.5,4.31v9.26h-1.58V34.14a3.91,3.91,0,0,0-4.07-4.07,5.22,5.22,0,0,0-3.53,1.43,4.8,4.8,0,0,0-1.61,3.77v8.45h-1.58V28.94h1.58v2.74a6.64,6.64,0,0,1,2.12-2.18A5.75,5.75,0,0,1,291.82,28.57Z"/><path class="c" d="M307.8,43.06a3.94,3.94,0,0,1-2.64,1q-3.16,0-3.16-3.49V30.43h-2V28.94h2V24.22h1.58v4.72h2.74v1.49h-2.74V40.92q0,1.68,1.63,1.68a2.72,2.72,0,0,0,1.71-.69Z"/><path class="c" d="M308.48,27.45l3.75-4.17,2.09.92L310,27.45Zm2.14,1.49h1.58V43.72h-1.58Z"/><path class="c" d="M323,28.57a4.88,4.88,0,0,1,3,.89A4.74,4.74,0,0,1,327.64,32,5.83,5.83,0,0,1,333,28.57a4.6,4.6,0,0,1,3.66,1.55A6.4,6.4,0,0,1,338,34.46v9.26h-1.58V34.14a4.4,4.4,0,0,0-1-3,3.34,3.34,0,0,0-2.7-1.12,4.72,4.72,0,0,0-3.35,1.42,5,5,0,0,0-1.48,3.78v8.45h-1.58V34.14a4.44,4.44,0,0,0-.94-3,3.33,3.33,0,0,0-2.7-1.11,4.73,4.73,0,0,0-3.37,1.42,5,5,0,0,0-1.48,3.78v8.45H316.3V28.94h1.58v2.74A5.66,5.66,0,0,1,323,28.57Z"/><path class="c" d="M353.45,30.79a8,8,0,0,1,2,5.57,6.78,6.78,0,0,1,0,.73H343a6,6,0,0,0,1.81,4,5.61,5.61,0,0,0,4,1.52,5.38,5.38,0,0,0,4.53-2l1.46.63a6.9,6.9,0,0,1-6,2.81,7.14,7.14,0,0,1-5.46-2.17,7.8,7.8,0,0,1-2-5.57,8.08,8.08,0,0,1,2-5.52,6.43,6.43,0,0,1,5.07-2.24A6.51,6.51,0,0,1,353.45,30.79Zm-8.77.88A6.29,6.29,0,0,0,343,35.75h10.75a6.44,6.44,0,0,0-1.65-4.1,5.21,5.21,0,0,0-7.46,0Z"/><path class="c" d="M365.58,43.06a3.94,3.94,0,0,1-2.64,1q-3.16,0-3.16-3.49V30.43h-2V28.94h2V24.22h1.58v4.72h2.74v1.49h-2.74V40.92q0,1.68,1.63,1.68a2.72,2.72,0,0,0,1.71-.69Z"/><path class="c" d="M374.89,28.59h.22v1.9a7.09,7.09,0,0,0-1.63-.18,3.8,3.8,0,0,0-2.43.86A3.31,3.31,0,0,0,370,33.93v9.79h-1.58V28.94H370v2.17a5.61,5.61,0,0,1,1.88-1.66A6.34,6.34,0,0,1,374.89,28.59Z"/><path class="c" d="M389.54,30.8a7.92,7.92,0,0,1,2,5.55,7.93,7.93,0,0,1-2,5.54,6.93,6.93,0,0,1-10.11,0,7.91,7.91,0,0,1-2-5.54,8,8,0,0,1,2-5.56,6.54,6.54,0,0,1,5.06-2.2A6.42,6.42,0,0,1,389.54,30.8Zm-8.92,1a6.64,6.64,0,0,0-1.51,4.5,6.66,6.66,0,0,0,1.51,4.51,5.2,5.2,0,0,0,7.78,0,6.71,6.71,0,0,0,1.49-4.51,6.71,6.71,0,0,0-1.49-4.51,5.19,5.19,0,0,0-7.78,0Z"/><path class="c" d="M400,28.57a7.26,7.26,0,0,1,4.94,1.89L404,31.68a5.73,5.73,0,0,0-1.92-1.29A5.85,5.85,0,0,0,400,30a4.11,4.11,0,0,0-2.53.75,2.2,2.2,0,0,0-.79,1.81,2,2,0,0,0,1,1.79,13.93,13.93,0,0,0,2.81,1.05,12,12,0,0,1,3.19,1.3,3.61,3.61,0,0,1,1.63,3.16A3.74,3.74,0,0,1,403.77,43,5.88,5.88,0,0,1,400,44.1a8.26,8.26,0,0,1-3-.51,7.32,7.32,0,0,1-2.53-1.64l1-1.25a6,6,0,0,0,2.11,1.52,6.3,6.3,0,0,0,2.42.46,4.51,4.51,0,0,0,2.7-.75,2.58,2.58,0,0,0,1-2.07,2.08,2.08,0,0,0-1-2,13.52,13.52,0,0,0-2.78-1.05,13.34,13.34,0,0,1-3.19-1.25,3.54,3.54,0,0,1-1.67-3,3.44,3.44,0,0,1,1.3-2.89A5.66,5.66,0,0,1,400,28.57Z"/></g></g><path class="a" d="M197.18,56s-2.4,15.09,10.21,15.09h88.3s7.81,0,7.81,8.91"/><path class="a" d="M409.82,56.11s2.4,14.94-10.21,14.94h-88.3s-7.81,0-7.81,8.83"/><g class="b"><path class="c" d="M31.86,87.8h1.29v20.77H31.49V89.75L27.9,91.61l-.69-1.36Z"/><path class="c" d="M56.94,95.64a8,8,0,0,1,2,5.57,6.78,6.78,0,0,1,0,.73H46.54a6,6,0,0,0,1.81,4,5.61,5.61,0,0,0,4,1.52,5.38,5.38,0,0,0,4.53-2l1.46.63a6.9,6.9,0,0,1-6,2.81,7.14,7.14,0,0,1-5.46-2.17,7.8,7.8,0,0,1-2-5.57,8.08,8.08,0,0,1,2-5.52,6.43,6.43,0,0,1,5.07-2.24A6.51,6.51,0,0,1,56.94,95.64Zm-8.77.88a6.29,6.29,0,0,0-1.64,4.09H57.27a6.43,6.43,0,0,0-1.65-4.1,5.21,5.21,0,0,0-7.46,0Z"/><path class="c" d="M69.42,93.42A5.17,5.17,0,0,1,73.34,95a6,6,0,0,1,1.5,4.31v9.26H73.25V99a3.91,3.91,0,0,0-4.07-4.07,5.22,5.22,0,0,0-3.53,1.43A4.8,4.8,0,0,0,64,100.12v8.45H62.46V93.79H64v2.74a6.64,6.64,0,0,1,2.12-2.18A5.75,5.75,0,0,1,69.42,93.42Z"/><path class="c" d="M85.4,107.91a3.94,3.94,0,0,1-2.64,1q-3.16,0-3.16-3.49V95.28h-2V93.79h2V89.07h1.58v4.72h2.74v1.49H81.18v10.49q0,1.68,1.63,1.68a2.72,2.72,0,0,0,1.71-.69Z"/><path class="c" d="M99.7,95.64a8,8,0,0,1,2,5.57,6.78,6.78,0,0,1,0,.73H89.29a6,6,0,0,0,1.81,4,5.61,5.61,0,0,0,4,1.52,5.38,5.38,0,0,0,4.53-2l1.46.63a6.9,6.9,0,0,1-6,2.81,7.14,7.14,0,0,1-5.46-2.17,7.8,7.8,0,0,1-2-5.57,8.08,8.08,0,0,1,2-5.52,6.43,6.43,0,0,1,5.07-2.24A6.51,6.51,0,0,1,99.7,95.64Zm-8.77.88a6.29,6.29,0,0,0-1.64,4.09H100a6.43,6.43,0,0,0-1.65-4.1,5.21,5.21,0,0,0-7.46,0Z"/><path class="c" d="M111.72,93.44h.22v1.9a7.09,7.09,0,0,0-1.63-.18,3.8,3.8,0,0,0-2.43.86,3.31,3.31,0,0,0-1.08,2.75v9.79h-1.58V93.79h1.58V96a5.61,5.61,0,0,1,1.88-1.66A6.34,6.34,0,0,1,111.72,93.44Z"/><path class="c" d="M126.37,95.65a8.71,8.71,0,0,1,0,11.1,6.93,6.93,0,0,1-10.11,0,8.71,8.71,0,0,1,0-11.1,6.54,6.54,0,0,1,5.06-2.2A6.42,6.42,0,0,1,126.37,95.65Zm-8.92,1a7.49,7.49,0,0,0,0,9,5.2,5.2,0,0,0,7.78,0,7.56,7.56,0,0,0,0-9,5.19,5.19,0,0,0-7.78,0Z"/></g><g class="b"><path class="c" d="M189.17,87.8h1.29v20.77H188.8V89.75l-3.59,1.86-.69-1.36Z"/><path class="c" d="M206.61,90.52a12.85,12.85,0,0,1,2.18,7.68,12.92,12.92,0,0,1-2.18,7.69,6.53,6.53,0,0,1-11,0,12.89,12.89,0,0,1-2.18-7.7,12.83,12.83,0,0,1,2.2-7.7,6.53,6.53,0,0,1,11,0Zm-9.79,1.05a12.29,12.29,0,0,0-1.64,6.69,12.32,12.32,0,0,0,1.63,6.67,4.89,4.89,0,0,0,8.61,0,12.22,12.22,0,0,0,1.65-6.68,12.33,12.33,0,0,0-1.66-6.71,4.85,4.85,0,0,0-8.58.06Z"/><path class="c" d="M225,90.52a12.85,12.85,0,0,1,2.18,7.68,12.92,12.92,0,0,1-2.18,7.69,6.53,6.53,0,0,1-11,0,12.89,12.89,0,0,1-2.18-7.7,12.83,12.83,0,0,1,2.2-7.7,6.53,6.53,0,0,1,11,0Zm-9.78,1.05a12.29,12.29,0,0,0-1.64,6.69,12.32,12.32,0,0,0,1.63,6.67,4.89,4.89,0,0,0,8.61,0,12.22,12.22,0,0,0,1.65-6.68,12.33,12.33,0,0,0-1.66-6.71,4.85,4.85,0,0,0-8.58.06Z"/><path class="c" d="M246.71,93.44a6.25,6.25,0,0,1,4.9,2.2,8.91,8.91,0,0,1,0,11.1,6.58,6.58,0,0,1-8.2,1.3,6.77,6.77,0,0,1-2.39-2.44v9h-1.58V93.79H241v3a6.78,6.78,0,0,1,2.39-2.44A6.3,6.3,0,0,1,246.71,93.44Zm-4.2,3.25a7.39,7.39,0,0,0,0,9,5.36,5.36,0,0,0,7.92,0,7.47,7.47,0,0,0,0-9,5.34,5.34,0,0,0-7.92,0Z"/><path class="c" d="M263.3,93.44a6.33,6.33,0,0,1,3.31.89A6.78,6.78,0,0,1,269,96.76v-3h1.58v14.78H269v-3a6.77,6.77,0,0,1-2.39,2.44,6.33,6.33,0,0,1-3.31.89,6.24,6.24,0,0,1-4.89-2.19,8.94,8.94,0,0,1,0-11.1A6.23,6.23,0,0,1,263.3,93.44Zm-3.69,3.25a7.45,7.45,0,0,0,0,9,5.36,5.36,0,0,0,7.92,0,7.42,7.42,0,0,0,0-9,5,5,0,0,0-4-1.75A5,5,0,0,0,259.61,96.69Z"/><path class="c" d="M281.19,93.44h.22v1.9a7.09,7.09,0,0,0-1.63-.18,3.8,3.8,0,0,0-2.43.86,3.31,3.31,0,0,0-1.08,2.75v9.79h-1.58V93.79h1.58V96a5.61,5.61,0,0,1,1.88-1.66A6.34,6.34,0,0,1,281.19,93.44Z"/><path class="c" d="M290.95,107.91a3.94,3.94,0,0,1-2.64,1q-3.16,0-3.16-3.49V95.28h-2V93.79h2V89.07h1.58v4.72h2.74v1.49h-2.74v10.49q0,1.68,1.63,1.68a2.72,2.72,0,0,0,1.71-.69Z"/><path class="c" d="M305.24,95.64a8,8,0,0,1,2,5.57,6.78,6.78,0,0,1,0,.73H294.84a6,6,0,0,0,1.81,4,5.61,5.61,0,0,0,4,1.52,5.38,5.38,0,0,0,4.53-2l1.46.63a6.9,6.9,0,0,1-6,2.81,7.14,7.14,0,0,1-5.46-2.17,7.8,7.8,0,0,1-2-5.57,8.08,8.08,0,0,1,2-5.52,6.43,6.43,0,0,1,5.07-2.24A6.51,6.51,0,0,1,305.24,95.64Zm-8.77.88a6.29,6.29,0,0,0-1.64,4.09h10.75a6.43,6.43,0,0,0-1.65-4.1,5.21,5.21,0,0,0-7.46,0Z"/><path class="c" d="M315.67,93.42a7.26,7.26,0,0,1,4.94,1.89l-.92,1.22a5.73,5.73,0,0,0-1.92-1.29,5.85,5.85,0,0,0-2.09-.4,4.11,4.11,0,0,0-2.53.75,2.2,2.2,0,0,0-.79,1.81,2,2,0,0,0,1,1.79,13.93,13.93,0,0,0,2.81,1.05,12,12,0,0,1,3.19,1.3,3.61,3.61,0,0,1,1.63,3.16,3.74,3.74,0,0,1-1.52,3.09,5.88,5.88,0,0,1-3.79,1.14,8.26,8.26,0,0,1-3-.51,7.32,7.32,0,0,1-2.53-1.64l1-1.25a6,6,0,0,0,2.11,1.52,6.3,6.3,0,0,0,2.42.46,4.51,4.51,0,0,0,2.7-.75,2.58,2.58,0,0,0,1-2.07,2.08,2.08,0,0,0-1-2,13.52,13.52,0,0,0-2.78-1.05,13.34,13.34,0,0,1-3.19-1.25,3.54,3.54,0,0,1-1.67-3,3.44,3.44,0,0,1,1.3-2.89A5.66,5.66,0,0,1,315.67,93.42Z"/><path class="c" d="M334.08,88.41a1.22,1.22,0,0,1,.89.38,1.24,1.24,0,0,1,.35.85,1.22,1.22,0,0,1-.37.89,1.2,1.2,0,0,1-.88.37,1.26,1.26,0,0,1-.91-.37,1.33,1.33,0,0,1-.37-.89,1.23,1.23,0,0,1,.37-.86A1.26,1.26,0,0,1,334.08,88.41Zm-.79,5.38h1.58v14.78h-1.58Z"/><path class="c" d="M345.22,93.44a6.37,6.37,0,0,1,3.32.89,6.87,6.87,0,0,1,2.41,2.44v-3h1.55v14.78q0,6.39-6.86,6.39a12.45,12.45,0,0,1-6.28-1.77l1-1.36a10.55,10.55,0,0,0,5.27,1.54,6.34,6.34,0,0,0,3.79-1.08,3.91,3.91,0,0,0,1.51-3.38v-3.28a6.87,6.87,0,0,1-2.41,2.44,6.37,6.37,0,0,1-3.32.89,6.24,6.24,0,0,1-4.89-2.19,8.94,8.94,0,0,1,0-11.1A6.23,6.23,0,0,1,345.22,93.44Zm-3.69,3.25a7.39,7.39,0,0,0,0,9,5.38,5.38,0,0,0,7.94,0,7.42,7.42,0,0,0,0-9,5.36,5.36,0,0,0-7.93,0Z"/><path class="c" d="M356.45,93.79H358v9.58a4,4,0,0,0,1.12,2.94,3.91,3.91,0,0,0,2.92,1.14,5.27,5.27,0,0,0,3.54-1.43,4.78,4.78,0,0,0,1.63-3.77V93.79h1.58v14.78h-1.58v-2.71a6.72,6.72,0,0,1-2.13,2.15,5.76,5.76,0,0,1-3.25.92,5.19,5.19,0,0,1-3.91-1.57,5.93,5.93,0,0,1-1.51-4.29Z"/><path class="c" d="M379.17,93.44a6.33,6.33,0,0,1,3.31.89,6.78,6.78,0,0,1,2.39,2.44v-3h1.58v14.78h-1.58v-3a6.77,6.77,0,0,1-2.39,2.44,6.33,6.33,0,0,1-3.31.89,6.24,6.24,0,0,1-4.89-2.19,8.94,8.94,0,0,1,0-11.1A6.23,6.23,0,0,1,379.17,93.44Zm-3.69,3.25a7.45,7.45,0,0,0,0,9,5.36,5.36,0,0,0,7.92,0,7.42,7.42,0,0,0,0-9,5,5,0,0,0-4-1.75A5,5,0,0,0,375.48,96.69Z"/><path class="c" d="M390.55,87.8h1.58v20.77h-1.58Z"/><path class="c" d="M407.72,95.64a8,8,0,0,1,2,5.57,6.78,6.78,0,0,1,0,.73H397.32a6,6,0,0,0,1.81,4,5.61,5.61,0,0,0,4,1.52,5.38,5.38,0,0,0,4.53-2l1.46.63a6.9,6.9,0,0,1-6,2.81,7.14,7.14,0,0,1-5.46-2.17,7.8,7.8,0,0,1-2-5.57,8.08,8.08,0,0,1,2-5.52,6.43,6.43,0,0,1,5.07-2.24A6.51,6.51,0,0,1,407.72,95.64Zm-8.77.88a6.29,6.29,0,0,0-1.64,4.09h10.75a6.43,6.43,0,0,0-1.65-4.1,5.21,5.21,0,0,0-7.46,0Z"/><path class="c" d="M418.15,93.42a7.26,7.26,0,0,1,4.94,1.89l-.92,1.22a5.73,5.73,0,0,0-1.92-1.29,5.85,5.85,0,0,0-2.09-.4,4.11,4.11,0,0,0-2.53.75,2.2,2.2,0,0,0-.79,1.81,2,2,0,0,0,1,1.79,13.93,13.93,0,0,0,2.81,1.05,12,12,0,0,1,3.19,1.3,3.61,3.61,0,0,1,1.63,3.16,3.74,3.74,0,0,1-1.52,3.09,5.88,5.88,0,0,1-3.79,1.14,8.26,8.26,0,0,1-3-.51,7.32,7.32,0,0,1-2.53-1.64l1-1.25a6,6,0,0,0,2.11,1.52,6.3,6.3,0,0,0,2.42.46,4.51,4.51,0,0,0,2.7-.75,2.58,2.58,0,0,0,1-2.07,2.08,2.08,0,0,0-1-2A13.52,13.52,0,0,0,418,101.7a13.34,13.34,0,0,1-3.19-1.25,3.54,3.54,0,0,1-1.67-3,3.44,3.44,0,0,1,1.3-2.89A5.66,5.66,0,0,1,418.15,93.42Z"/></g></svg>