<svg xmlns="http://www.w3.org/2000/svg" width="436" height="70" viewBox="0 0 436 70"><defs><style>.a{isolation:isolate;}.b{fill:#f58220;}</style></defs><title>Mesa de trabajo 2</title><g class="a"><g class="a"><path class="b" d="M19.12,27.39a12.85,12.85,0,0,1,2.18,7.68,12.92,12.92,0,0,1-2.18,7.69,6.53,6.53,0,0,1-11,0,12.89,12.89,0,0,1-2.18-7.7,12.83,12.83,0,0,1,2.2-7.7,6.53,6.53,0,0,1,11,0ZM9.34,28.45A12.29,12.29,0,0,0,7.7,35.14a12.32,12.32,0,0,0,1.63,6.67,4.89,4.89,0,0,0,8.61,0,12.22,12.22,0,0,0,1.65-6.68,12.33,12.33,0,0,0-1.66-6.71,4.85,4.85,0,0,0-8.58.06Z"/><path class="b" d="M25.83,42.64a1.54,1.54,0,0,1,1.22.53,2.07,2.07,0,0,1,.46,1.4,6.36,6.36,0,0,1-2.33,4.64l-.89-.78a5.57,5.57,0,0,0,1.76-2.72H25.8a1.54,1.54,0,0,1-1.11-.44,1.51,1.51,0,0,1-.45-1.11,1.47,1.47,0,0,1,.46-1.08A1.56,1.56,0,0,1,25.83,42.64Z"/><path class="b" d="M35.09,24.67h1.29V45.44H34.72V26.62l-3.59,1.86-.69-1.36Z"/><path class="b" d="M60.62,24.67H62.2V45.44H60.62v-3a6.77,6.77,0,0,1-2.39,2.44,6.33,6.33,0,0,1-3.31.89A6.24,6.24,0,0,1,50,43.62a8.07,8.07,0,0,1-1.93-5.54A8.13,8.13,0,0,1,50,32.51a6.23,6.23,0,0,1,4.89-2.2,6.33,6.33,0,0,1,3.31.89,6.78,6.78,0,0,1,2.39,2.44Zm-9.39,8.89a6.56,6.56,0,0,0-1.54,4.51,6.64,6.64,0,0,0,1.52,4.51,5.37,5.37,0,0,0,7.93,0,6.62,6.62,0,0,0,1.52-4.51,6.63,6.63,0,0,0-1.52-4.51,5,5,0,0,0-4-1.75A4.92,4.92,0,0,0,51.23,33.56Z"/><path class="b" d="M77.79,32.51a8,8,0,0,1,2,5.57,6.78,6.78,0,0,1,0,.73H67.39a6,6,0,0,0,1.81,4,5.61,5.61,0,0,0,4,1.52,5.38,5.38,0,0,0,4.53-2l1.46.63a6.9,6.9,0,0,1-6,2.81,7.14,7.14,0,0,1-5.46-2.17,7.8,7.8,0,0,1-2-5.57,8.08,8.08,0,0,1,2-5.52,6.43,6.43,0,0,1,5.07-2.24A6.51,6.51,0,0,1,77.79,32.51ZM69,33.38a6.29,6.29,0,0,0-1.64,4.09H78.13a6.43,6.43,0,0,0-1.65-4.1,5.21,5.21,0,0,0-7.46,0Z"/><path class="b" d="M98.75,30.29a4.88,4.88,0,0,1,3,.89,4.74,4.74,0,0,1,1.71,2.55,5.83,5.83,0,0,1,5.36-3.44,4.6,4.6,0,0,1,3.66,1.55,6.4,6.4,0,0,1,1.35,4.34v9.26h-1.58V35.86a4.4,4.4,0,0,0-1-3,3.34,3.34,0,0,0-2.7-1.12,4.72,4.72,0,0,0-3.35,1.42A5,5,0,0,0,103.75,37v8.45h-1.58V35.86a4.44,4.44,0,0,0-.94-3,3.33,3.33,0,0,0-2.7-1.11,4.73,4.73,0,0,0-3.37,1.42A5,5,0,0,0,93.68,37v8.45H92.1V30.66h1.58V33.4A5.66,5.66,0,0,1,98.75,30.29Z"/><path class="b" d="M129.25,32.51a8,8,0,0,1,2,5.57,6.78,6.78,0,0,1,0,.73H118.85a6,6,0,0,0,1.81,4,5.61,5.61,0,0,0,4,1.52,5.38,5.38,0,0,0,4.53-2l1.46.63a6.9,6.9,0,0,1-6,2.81,7.14,7.14,0,0,1-5.46-2.17,7.8,7.8,0,0,1-2-5.57,8.08,8.08,0,0,1,2-5.52,6.43,6.43,0,0,1,5.07-2.24A6.51,6.51,0,0,1,129.25,32.51Zm-8.77.88a6.29,6.29,0,0,0-1.64,4.09h10.75a6.43,6.43,0,0,0-1.65-4.1,5.21,5.21,0,0,0-7.46,0Z"/><path class="b" d="M141.38,44.78a3.94,3.94,0,0,1-2.64,1q-3.16,0-3.16-3.49V32.15h-2V30.66h2V25.94h1.58v4.72h2.74v1.49h-2.74V42.64q0,1.68,1.63,1.68a2.72,2.72,0,0,0,1.71-.69Z"/><path class="b" d="M150.69,30.31h.22v1.9a7.09,7.09,0,0,0-1.63-.18,3.8,3.8,0,0,0-2.43.86,3.31,3.31,0,0,0-1.08,2.75v9.79h-1.58V30.66h1.58v2.17a5.61,5.61,0,0,1,1.88-1.66A6.34,6.34,0,0,1,150.69,30.31Z"/><path class="b" d="M165.34,32.52a7.92,7.92,0,0,1,2,5.55,7.94,7.94,0,0,1-2,5.54,6.93,6.93,0,0,1-10.11,0,7.9,7.9,0,0,1-2-5.54,8,8,0,0,1,2-5.56,6.54,6.54,0,0,1,5.06-2.2A6.42,6.42,0,0,1,165.34,32.52Zm-8.92,1a6.64,6.64,0,0,0-1.51,4.51,6.66,6.66,0,0,0,1.51,4.51,5.2,5.2,0,0,0,7.78,0,6.71,6.71,0,0,0,1.49-4.51,6.71,6.71,0,0,0-1.49-4.51,5.19,5.19,0,0,0-7.78,0Z"/><path class="b" d="M211.3,30.89v1.49H196.65V30.89Zm0,6.84v1.49H196.65V37.74Z"/><path class="b" d="M245.24,24.67h1.29V45.44h-1.66V26.62l-3.59,1.86-.69-1.36Z"/><path class="b" d="M262.68,27.39a12.85,12.85,0,0,1,2.18,7.68,12.92,12.92,0,0,1-2.18,7.69,6.53,6.53,0,0,1-11,0,12.89,12.89,0,0,1-2.18-7.7,12.83,12.83,0,0,1,2.2-7.7,6.53,6.53,0,0,1,11,0Zm-9.79,1.05a12.29,12.29,0,0,0-1.64,6.69,12.32,12.32,0,0,0,1.63,6.67,4.89,4.89,0,0,0,8.61,0,12.22,12.22,0,0,0,1.65-6.68,12.33,12.33,0,0,0-1.66-6.71,4.85,4.85,0,0,0-8.58.06Z"/><path class="b" d="M283.63,30.31a6.66,6.66,0,0,1,5.82,3.25l-1.45.63a4.82,4.82,0,0,0-4.37-2.39,4.91,4.91,0,0,0-3.9,1.75,6.67,6.67,0,0,0-1.51,4.51,6.66,6.66,0,0,0,1.51,4.51,4.91,4.91,0,0,0,3.9,1.75A4.82,4.82,0,0,0,288,41.94l1.45.64A6.68,6.68,0,0,1,287,45a6.76,6.76,0,0,1-3.36.85,6.53,6.53,0,0,1-5.05-2.19,7.92,7.92,0,0,1-2-5.54,8,8,0,0,1,2-5.56A6.52,6.52,0,0,1,283.63,30.31Z"/><path class="b" d="M304.15,32.51a8,8,0,0,1,2,5.57,6.78,6.78,0,0,1,0,.73H293.75a6,6,0,0,0,1.81,4,5.61,5.61,0,0,0,4,1.52,5.38,5.38,0,0,0,4.53-2l1.46.63a6.9,6.9,0,0,1-6,2.81,7.14,7.14,0,0,1-5.46-2.17,7.8,7.8,0,0,1-2-5.57,8.08,8.08,0,0,1,2-5.52,6.43,6.43,0,0,1,5.07-2.24A6.51,6.51,0,0,1,304.15,32.51Zm-8.77.88a6.29,6.29,0,0,0-1.64,4.09h10.75a6.43,6.43,0,0,0-1.65-4.1,5.21,5.21,0,0,0-7.46,0Z"/><path class="b" d="M316.63,30.29a5.17,5.17,0,0,1,3.92,1.57,6,6,0,0,1,1.5,4.31v9.26h-1.58V35.86a3.91,3.91,0,0,0-4.07-4.07,5.22,5.22,0,0,0-3.53,1.43A4.8,4.8,0,0,0,311.26,37v8.45h-1.58V30.66h1.58V33.4a6.64,6.64,0,0,1,2.12-2.18A5.75,5.75,0,0,1,316.63,30.29Z"/><path class="b" d="M332.61,44.78a3.94,3.94,0,0,1-2.64,1q-3.16,0-3.16-3.49V32.15h-2V30.66h2V25.94h1.58v4.72h2.74v1.49h-2.74V42.64q0,1.68,1.63,1.68a2.72,2.72,0,0,0,1.71-.69Z"/><path class="b" d="M333.29,29.17,337,25l2.09.92-4.28,3.25Zm2.14,1.49H337V45.44h-1.58Z"/><path class="b" d="M347.76,30.29a4.88,4.88,0,0,1,3,.89,4.74,4.74,0,0,1,1.71,2.55,5.83,5.83,0,0,1,5.36-3.44,4.6,4.6,0,0,1,3.66,1.55,6.4,6.4,0,0,1,1.35,4.34v9.26h-1.58V35.86a4.4,4.4,0,0,0-1-3,3.34,3.34,0,0,0-2.7-1.12,4.72,4.72,0,0,0-3.35,1.42A5,5,0,0,0,352.75,37v8.45h-1.58V35.86a4.44,4.44,0,0,0-.94-3,3.33,3.33,0,0,0-2.7-1.11,4.73,4.73,0,0,0-3.37,1.42A5,5,0,0,0,342.69,37v8.45h-1.58V30.66h1.58V33.4A5.66,5.66,0,0,1,347.76,30.29Z"/><path class="b" d="M378.26,32.51a8,8,0,0,1,2,5.57,6.78,6.78,0,0,1,0,.73H367.86a6,6,0,0,0,1.81,4,5.61,5.61,0,0,0,4,1.52,5.38,5.38,0,0,0,4.53-2l1.46.63a6.9,6.9,0,0,1-6,2.81,7.14,7.14,0,0,1-5.46-2.17,7.8,7.8,0,0,1-2-5.57,8.08,8.08,0,0,1,2-5.52,6.43,6.43,0,0,1,5.07-2.24A6.51,6.51,0,0,1,378.26,32.51Zm-8.77.88a6.29,6.29,0,0,0-1.64,4.09h10.75a6.43,6.43,0,0,0-1.65-4.1,5.21,5.21,0,0,0-7.46,0Z"/><path class="b" d="M390.39,44.78a3.94,3.94,0,0,1-2.64,1q-3.16,0-3.16-3.49V32.15h-2V30.66h2V25.94h1.58v4.72h2.74v1.49h-2.74V42.64q0,1.68,1.63,1.68a2.72,2.72,0,0,0,1.71-.69Z"/><path class="b" d="M399.7,30.31h.22v1.9A7.09,7.09,0,0,0,398.3,32a3.8,3.8,0,0,0-2.43.86,3.31,3.31,0,0,0-1.08,2.75v9.79H393.2V30.66h1.58v2.17a5.61,5.61,0,0,1,1.88-1.66A6.34,6.34,0,0,1,399.7,30.31Z"/><path class="b" d="M414.35,32.52a7.92,7.92,0,0,1,2,5.55,7.94,7.94,0,0,1-2,5.54,6.93,6.93,0,0,1-10.11,0,7.9,7.9,0,0,1-2-5.54,8,8,0,0,1,2-5.56,6.54,6.54,0,0,1,5.06-2.2A6.42,6.42,0,0,1,414.35,32.52Zm-8.92,1a6.64,6.64,0,0,0-1.51,4.51,6.66,6.66,0,0,0,1.51,4.51,5.2,5.2,0,0,0,7.78,0,6.71,6.71,0,0,0,1.49-4.51,6.71,6.71,0,0,0-1.49-4.51,5.19,5.19,0,0,0-7.78,0Z"/><path class="b" d="M424.78,30.29a7.26,7.26,0,0,1,4.94,1.89l-.92,1.22a5.73,5.73,0,0,0-1.92-1.29,5.85,5.85,0,0,0-2.09-.4,4.11,4.11,0,0,0-2.53.75,2.2,2.2,0,0,0-.79,1.81,2,2,0,0,0,1,1.8,13.93,13.93,0,0,0,2.81,1.05,12,12,0,0,1,3.19,1.3,3.61,3.61,0,0,1,1.63,3.16,3.74,3.74,0,0,1-1.52,3.09,5.88,5.88,0,0,1-3.79,1.14,8.26,8.26,0,0,1-3-.51,7.32,7.32,0,0,1-2.53-1.64l1-1.25a6,6,0,0,0,2.11,1.52,6.3,6.3,0,0,0,2.42.46,4.51,4.51,0,0,0,2.7-.75,2.58,2.58,0,0,0,1-2.07,2.08,2.08,0,0,0-1-2,13.52,13.52,0,0,0-2.78-1.05,13.34,13.34,0,0,1-3.19-1.25,3.54,3.54,0,0,1-1.67-3,3.44,3.44,0,0,1,1.3-2.89A5.66,5.66,0,0,1,424.78,30.29Z"/></g></g></svg>