<svg xmlns="http://www.w3.org/2000/svg" viewBox="0 0 400.73 224.49"><defs><style>.cls-1{fill:#baff78;}.cls-2{fill:#83ff00;}.cls-3{fill:none;stroke:#000;stroke-miterlimit:10;stroke-width:0.5px;}.cls-4,.cls-7{isolation:isolate;}.cls-5{fill:#f2d5c7;}.cls-6{fill:#6b99bd;}.cls-7,.cls-8{fill:#427b99;}.cls-7{opacity:0.5;}.cls-9{fill:#428e80;}.cls-10{fill:#b55930;}.cls-11{fill:#e0e0e0;}.cls-12{fill:#c9934b;}.cls-13{fill:#896029;}.cls-14{fill:#513513;}.cls-15{fill:#3f3f3f;}.cls-16{fill:#cfaa13;}.cls-17{fill:#c36a3e;}.cls-18{fill:#8e1d21;}.cls-19{fill:#d75f5e;}.cls-20{fill:#3a3a3a;}.cls-21{fill:#fff;}.cls-22{fill:#444;}.cls-23{fill:#f30;}</style></defs><title>zoom1</title><g id="Layer_2" data-name="Layer 2"><g id="Layer_1-2" data-name="Layer 1"><path class="cls-1" d="M83.75,149.81H400.34c.22,0,.39.46.39,1v71.68c0,.57-.17,1-.39,1H83.75c-.21,0-.39-.45-.39-1V150.83C83.36,150.27,83.54,149.81,83.75,149.81Z"/><path class="cls-2" d="M400.73,222.51H84.36v-71.7H400.73v-2H84.39a2,2,0,0,0-2,2v71.68a2,2,0,0,0,2,2H400.73Z"/><line class="cls-3" x1="100.01" y1="148.81" x2="100.01" y2="174.89"/><line class="cls-3" x1="179.2" y1="148.81" x2="179.2" y2="174.89"/><line class="cls-3" x1="258.39" y1="148.81" x2="258.39" y2="174.89"/><line class="cls-3" x1="337.58" y1="148.81" x2="337.58" y2="174.89"/><g class="cls-4"><path d="M177.43,183a7.58,7.58,0,0,1,1.4,4.7,7.7,7.7,0,0,1-1.4,4.73,4.29,4.29,0,0,1-7.08,0,8.67,8.67,0,0,1,0-9.45,4.28,4.28,0,0,1,3.55-1.86A4.22,4.22,0,0,1,177.43,183Zm-6,1a6.78,6.78,0,0,0-.95,3.76,6.88,6.88,0,0,0,.93,3.77,2.78,2.78,0,0,0,4.89,0,6.8,6.8,0,0,0,.94-3.77,6.88,6.88,0,0,0-.94-3.78,2.79,2.79,0,0,0-2.45-1.46A2.73,2.73,0,0,0,171.47,184Z"/><path d="M181.83,191.91a1.19,1.19,0,0,1,.94.4,1.62,1.62,0,0,1,.35,1.07,4.8,4.8,0,0,1-1.77,3.51l-.68-.58a4.16,4.16,0,0,0,1.33-2.07h-.18a1.19,1.19,0,0,1-.85-.33,1.18,1.18,0,0,1,0-1.67A1.16,1.16,0,0,1,181.83,191.91Z"/><path d="M187.91,181.33h1.26v12.74h-1.49V182.86l-2.2,1.14-.56-1.07Z"/></g><g class="cls-4"><path d="M255,183a7.58,7.58,0,0,1,1.4,4.7,7.7,7.7,0,0,1-1.4,4.73,4.29,4.29,0,0,1-7.08,0,8.67,8.67,0,0,1,0-9.45,4.28,4.28,0,0,1,3.55-1.86A4.22,4.22,0,0,1,255,183Zm-6,1a6.78,6.78,0,0,0-.95,3.76,6.88,6.88,0,0,0,.93,3.77,2.78,2.78,0,0,0,4.89,0,6.8,6.8,0,0,0,.94-3.77,6.88,6.88,0,0,0-.94-3.78,2.79,2.79,0,0,0-2.45-1.46A2.73,2.73,0,0,0,249,184Z"/><path d="M259.36,191.91a1.19,1.19,0,0,1,.94.4,1.62,1.62,0,0,1,.35,1.07,4.8,4.8,0,0,1-1.77,3.51l-.68-.58a4.16,4.16,0,0,0,1.33-2.07h-.19a1.19,1.19,0,0,1-.84-.33,1.18,1.18,0,0,1,0-1.67A1.16,1.16,0,0,1,259.36,191.91Z"/><path d="M266.21,181.12a4.26,4.26,0,0,1,3.06,1.14,3.45,3.45,0,0,1,1.08,2.62,4.51,4.51,0,0,1-.8,2.46,20.93,20.93,0,0,1-2,2.31l-2.94,3.11h5.74v1.31h-7.9V192.9l3.85-4.08a18.48,18.48,0,0,0,1.85-2.14,3.12,3.12,0,0,0,.61-1.8,2.37,2.37,0,0,0-.72-1.74,2.51,2.51,0,0,0-1.83-.68,4,4,0,0,0-2.88,1.25l-.86-1.11A5.39,5.39,0,0,1,266.21,181.12Z"/></g><g class="cls-4"><path d="M333.79,183a7.58,7.58,0,0,1,1.4,4.7,7.7,7.7,0,0,1-1.4,4.73,4.29,4.29,0,0,1-7.08,0,8.67,8.67,0,0,1,0-9.45,4.28,4.28,0,0,1,3.55-1.86A4.22,4.22,0,0,1,333.79,183Zm-6,1a6.78,6.78,0,0,0-.95,3.76,6.88,6.88,0,0,0,.93,3.77,2.78,2.78,0,0,0,4.89,0,6.8,6.8,0,0,0,.94-3.77,6.88,6.88,0,0,0-.94-3.78,2.79,2.79,0,0,0-2.45-1.46A2.73,2.73,0,0,0,327.83,184Z"/><path d="M338.19,191.91a1.19,1.19,0,0,1,.94.4,1.62,1.62,0,0,1,.35,1.07,4.8,4.8,0,0,1-1.77,3.51l-.68-.58a4.16,4.16,0,0,0,1.33-2.07h-.18a1.19,1.19,0,0,1-.85-.33,1.18,1.18,0,0,1,0-1.67A1.16,1.16,0,0,1,338.19,191.91Z"/><path d="M345.21,181.12a5.15,5.15,0,0,1,3.08.84,2.78,2.78,0,0,1,1.2,2.38,2.91,2.91,0,0,1-2.34,2.91,4.2,4.2,0,0,1,2,1.34,3.49,3.49,0,0,1,.73,2.18,3,3,0,0,1-1.33,2.67,6.17,6.17,0,0,1-3.4.86,6.91,6.91,0,0,1-4.06-1.1l.9-1.09a5.54,5.54,0,0,0,3.07.84,4.26,4.26,0,0,0,2.4-.61,2.06,2.06,0,0,0,.89-1.79,2.33,2.33,0,0,0-.92-1.9,3.44,3.44,0,0,0-2.23-.74h-1.45V186.6h1.45a3.31,3.31,0,0,0,1.94-.56,1.73,1.73,0,0,0,.78-1.53,1.7,1.7,0,0,0-.73-1.51,3.71,3.71,0,0,0-2.12-.51,6.17,6.17,0,0,0-2.58.53l-.87-1.06A7.42,7.42,0,0,1,345.21,181.12Z"/></g><g class="cls-4"><path d="M103.59,183a7.58,7.58,0,0,1,1.4,4.7,7.7,7.7,0,0,1-1.4,4.73,4.29,4.29,0,0,1-7.08,0,8.67,8.67,0,0,1,0-9.45,4.28,4.28,0,0,1,3.55-1.86A4.22,4.22,0,0,1,103.59,183Zm-6,1a6.78,6.78,0,0,0-.95,3.76,6.88,6.88,0,0,0,.93,3.77,2.8,2.8,0,0,0,2.44,1.46,2.84,2.84,0,0,0,2.46-1.46,6.88,6.88,0,0,0,.93-3.77,7,7,0,0,0-.93-3.78,2.82,2.82,0,0,0-2.46-1.46A2.73,2.73,0,0,0,97.63,184Z"/></g><line class="cls-3" x1="107.93" y1="148.81" x2="107.93" y2="167.78"/><line class="cls-3" x1="115.85" y1="148.81" x2="115.85" y2="167.78"/><line class="cls-3" x1="123.77" y1="148.81" x2="123.77" y2="167.78"/><line class="cls-3" x1="131.68" y1="148.81" x2="131.68" y2="167.78"/><line class="cls-3" x1="139.6" y1="148.81" x2="139.6" y2="171.41"/><line class="cls-3" x1="147.52" y1="148.81" x2="147.52" y2="167.78"/><line class="cls-3" x1="155.44" y1="148.81" x2="155.44" y2="167.78"/><line class="cls-3" x1="163.36" y1="148.81" x2="163.36" y2="167.78"/><line class="cls-3" x1="171.28" y1="148.81" x2="171.28" y2="167.78"/><line class="cls-3" x1="187.12" y1="148.81" x2="187.12" y2="167.78"/><line class="cls-3" x1="195.04" y1="148.81" x2="195.04" y2="167.78"/><line class="cls-3" x1="202.95" y1="148.81" x2="202.95" y2="167.78"/><line class="cls-3" x1="210.87" y1="148.81" x2="210.87" y2="167.78"/><line class="cls-3" x1="218.79" y1="148.81" x2="218.79" y2="171.41"/><line class="cls-3" x1="226.71" y1="148.81" x2="226.71" y2="167.78"/><line class="cls-3" x1="234.63" y1="148.81" x2="234.63" y2="167.78"/><line class="cls-3" x1="242.55" y1="148.81" x2="242.55" y2="167.78"/><line class="cls-3" x1="250.47" y1="148.81" x2="250.47" y2="167.78"/><line class="cls-3" x1="266.31" y1="148.81" x2="266.31" y2="167.78"/><line class="cls-3" x1="274.23" y1="148.81" x2="274.23" y2="167.78"/><line class="cls-3" x1="282.14" y1="148.81" x2="282.14" y2="167.78"/><line class="cls-3" x1="290.06" y1="148.81" x2="290.06" y2="167.78"/><line class="cls-3" x1="297.98" y1="148.81" x2="297.98" y2="171.41"/><line class="cls-3" x1="305.9" y1="148.81" x2="305.9" y2="167.78"/><line class="cls-3" x1="313.82" y1="148.81" x2="313.82" y2="167.78"/><line class="cls-3" x1="321.74" y1="148.81" x2="321.74" y2="167.78"/><line class="cls-3" x1="329.66" y1="148.81" x2="329.66" y2="167.78"/><line class="cls-3" x1="345.5" y1="148.81" x2="345.5" y2="167.78"/><line class="cls-3" x1="353.41" y1="148.81" x2="353.41" y2="167.78"/><line class="cls-3" x1="361.33" y1="148.81" x2="361.33" y2="167.78"/><line class="cls-3" x1="369.25" y1="148.81" x2="369.25" y2="167.78"/><line class="cls-3" x1="377.17" y1="148.81" x2="377.17" y2="171.41"/><line class="cls-3" x1="385.09" y1="148.81" x2="385.09" y2="167.78"/><line class="cls-3" x1="393.01" y1="148.81" x2="393.01" y2="167.78"/><path class="cls-5" d="M47.59,84.33s-2.37,16.23-14.83,19.42-20.14-1.32-20.14-1.32S11.35,101.2,9.9,104c0,0,10.73,6.41,26.46,4C51.63,104.34,54.5,85.83,54.5,85.83Z"/><path class="cls-5" d="M63.23,86.2S76,99.47,82,107.94s13.27,22.57,13.27,22.57,1.09,1.88,3-.36L96.9,128l.12-.72S78.44,84.38,71.89,83.94Z"/><path class="cls-6" d="M50.46,62.07s-4.91,8-2,13.67a79.65,79.65,0,0,1-3.12,7.88S44.4,85,48.74,88a20.65,20.65,0,0,0,8.91,3.36s.18.15.36-.42S59.28,88,59.28,88s4.61,4,5.07,4.88a.63.63,0,0,0,.78.4.61.61,0,0,0,.28-.19s10-6.71,10.44-9.08a.26.26,0,0,0-.07-.22L65,73.53s1.7-6.61.91-9.64Z"/><path class="cls-7" d="M48.46,75.74a79.65,79.65,0,0,1-3.12,7.88S44.4,85,48.74,88a20.65,20.65,0,0,0,8.91,3.36s.18.15.36-.42S59.28,88,59.28,88Z"/><path class="cls-8" d="M62.09,67.81s.13,2.64,2.89,5.72c0,0,1.13-4.36.9-6.4Z"/><path class="cls-9" d="M51,38.11s2.37,2.59,2.43-.35-3-8.71-3-8.71Z"/><path class="cls-5" d="M64.36,36.28S72.5,53.65,78.82,54.42s10.27-6.91,10.27-6.91-4.36-6.79-1.89-9.2c.94-.7,1.82,2.56,2.24,4.54,0,0,.28.54,1.09-.63.6-.84,1.57-2.53,2.21-3.65A8.71,8.71,0,0,0,93.4,37c.15-.44.45-.9,1-.49,1,.68.5,4.3-.56,4.71,0,0,3-.88,1.29,2.24,0,0,4.35.18,2,2.26S92.9,48.64,91,48.34c0,0-4,11.46-12.79,10.25S63.78,47.48,63.78,47.48Z"/><path class="cls-10" d="M92.79,41.94A5.12,5.12,0,0,0,91.52,43a1.88,1.88,0,0,0-.34.73,1.27,1.27,0,0,0,0,.39,1,1,0,0,0,.14.37h0a1.75,1.75,0,0,0,.36.36,1.26,1.26,0,0,0,.44.24,1.72,1.72,0,0,0,.5.11,2.18,2.18,0,0,0,.51,0h.17l-.07.15a6.2,6.2,0,0,0-.34.94,1.71,1.71,0,0,0,0,1,.55.55,0,0,0,.33.32,1.31,1.31,0,0,0,.47.12,3.35,3.35,0,0,0,1,0,3.34,3.34,0,0,1-1,.12,1.91,1.91,0,0,1-.52-.1.69.69,0,0,1-.39-.36,1.71,1.71,0,0,1,0-1.05,5.89,5.89,0,0,1,.34-1l.1.12a2.62,2.62,0,0,1-.56,0,2.71,2.71,0,0,1-.55-.12,2,2,0,0,1-.49-.27,1.87,1.87,0,0,1-.38-.41h0a1.52,1.52,0,0,1-.16-.42,1.7,1.7,0,0,1,0-.45,1.77,1.77,0,0,1,.41-.76,3.39,3.39,0,0,1,.63-.57A3.85,3.85,0,0,1,92.79,41.94Z"/><path class="cls-10" d="M90.7,43.2a3,3,0,0,1,.66,1.47,2.31,2.31,0,0,1,0,.83,1.64,1.64,0,0,1-.34.73,2.84,2.84,0,0,0,.2-.76,3.3,3.3,0,0,0,0-.77,4,4,0,0,0-.19-.76A5.4,5.4,0,0,0,90.7,43.2Z"/><path class="cls-11" d="M50.43,29.05l.69,11.14s4.13,4,.32,16.77l-3.58,6.23s2.94,5,18.46,5.64c0,0,2.25-4.68,1.61-14.09s-3.78-22.46-3.78-22.46S51.46,28.94,50.43,29.05Z"/><path class="cls-12" d="M42,18.94s10.85,6.58,14.91.64a36.72,36.72,0,0,1,8.7-9.06S67.71,3.09,59.47.24c-3.13-1-7.19,1.3-9.64,3.18s-9.91.31-9.91.31-.28,3.78,2.36,5.85l-3.54,3s.84,2.66,7.21,3.75Z"/><path class="cls-13" d="M42,18.94s7.14,4.31,12,2.82C57.39,20.7,65.7,9.56,65.7,9.56S65.22,4.27,61,4.41c-2.21-.14-9.12,5.12-9.12,5.12S46.59,13.69,40,5.09a6.7,6.7,0,0,0,2.3,4.49l-3.54,3s.46,2.49,7.21,3.75Z"/><path class="cls-5" d="M64.56,6.94s7.67,17.3,6.12,18.3-7.77,2.59-9.36,2.68c0,0-.87,2.5-.19,3.48l.75.5s.16,2.93-1,2.61-4.94-3.64-5-4.34c0,0,2.18-.68,2-2.18a12.28,12.28,0,0,1-2-6.32,5.46,5.46,0,0,1-2.25.75c-.86,0-3.42-.75-3.19-4.08.22-3.17,2.76-2.42,2.76-2.42s1.59.56,1.54,1a18.76,18.76,0,0,0-.41-5.59S56.65,10.17,56.88,9s3.76-2,4.61-2S64.56,6.94,64.56,6.94Z"/><path class="cls-14" d="M65.69,9.59a6,6,0,0,0-1.74-4c-1.82-2-4.86-.4-6.85,2.86A7.17,7.17,0,0,1,53,11.85a11.88,11.88,0,0,1-3.74.58c-1.77,0-3.78-.14-4.61-.81a8.08,8.08,0,0,0,5.5,1.21c2.93-.43,5.53-1.71,6.74-3.58a3.45,3.45,0,0,0,.28-.54c.17-.33,1.19-1.42,7.27-1.68Z"/><ellipse class="cls-15" cx="60.41" cy="14.6" rx="0.9" ry="1.47" transform="translate(-1.74 15.3) rotate(-14.23)"/><ellipse class="cls-15" cx="65.51" cy="13.31" rx="0.83" ry="1.47" transform="translate(-1.26 16.51) rotate(-14.23)"/><path class="cls-16" d="M59.94,9.67a3.59,3.59,0,0,0-2.11,1.39s.59-1.73,1.94-1.69C60.13,9.47,59.94,9.67,59.94,9.67Z"/><path class="cls-16" d="M63.11,8.94a3.18,3.18,0,0,1,2.27.18S64.1,8,63.09,8.63C62.86,8.94,63.11,8.94,63.11,8.94Z"/><path class="cls-17" d="M64.43,15.46a1,1,0,0,0,.48.53.55.55,0,0,0,.31,0,2.47,2.47,0,0,0,.36-.11l.39-.09a.9.9,0,0,1,.46,0,.77.77,0,0,1,.37.34,1.47,1.47,0,0,1,.14.4,2,2,0,0,1,0,.84,1.15,1.15,0,0,1-.45.74,1.18,1.18,0,0,1-.19.11l-.2.06h-.41a1.87,1.87,0,0,1-.4-.07l-.37-.12h.39a2.28,2.28,0,0,0,.37,0,1.06,1.06,0,0,0,.64-.25.89.89,0,0,0,.28-.57,2.06,2.06,0,0,0,0-.7.57.57,0,0,0-.28-.5,1.23,1.23,0,0,0-.66,0h-.4a.72.72,0,0,1-.43-.1A1.07,1.07,0,0,1,64.43,15.46Z"/><path class="cls-17" d="M51.63,18.59a1.75,1.75,0,0,1,.38-.71,1.46,1.46,0,0,1,.7-.47.74.74,0,0,1,.21,0h.44l.2.07a1.41,1.41,0,0,1,.35.23,1.93,1.93,0,0,1,.27.3c-.13,0-.24-.11-.36-.15l-.18-.06a.48.48,0,0,0-.17,0,1.23,1.23,0,0,0-.66,0,2.1,2.1,0,0,0-.61.32A6.47,6.47,0,0,0,51.63,18.59Z"/><path class="cls-18" d="M58.38,18.59s8.68,2.17,9.06,2c0,0-2,5.63-5.4,4.79S58.16,19.17,58.38,18.59Z"/><path class="cls-19" d="M58.92,22s.85,2.84,3.12,3.37a2.42,2.42,0,0,0,2-.22S63.52,21.8,58.92,22Z"/><path class="cls-5" d="M51,30.28s2.15,4.84,2.26,6.23c0,0-12.13,4.26-14.17,12.43s.09,11.12,5,16.93c0,0,2.57-5.91,5-4.73l-1.18,2,.38.47-.88.87,3.18,1.16s1.5.46.57,1.48c-.7.77-1.28.74-1.53.68l-.42-.09-2.76-.43.86,1.31a2.58,2.58,0,0,1,.33.74c.16.66.08,1.66-2,1.47A4.73,4.73,0,0,1,46.45,72,.81.81,0,0,1,46.08,73a.76.76,0,0,1-.2.06,5,5,0,0,1-2.1-.15,16.19,16.19,0,0,1-1.63-1,1.65,1.65,0,0,1-.71-1.87,1.49,1.49,0,0,1,1.59-1s-.59-1.34-.41-1.73c0,0-12.42-7.73-8.48-19.34C38,36.73,51,30.28,51,30.28Z"/><path class="cls-10" d="M43.33,69.17a9.7,9.7,0,0,1,1.19.77,9.56,9.56,0,0,1,1.09.91,12.71,12.71,0,0,1-1.2-.76A10.5,10.5,0,0,1,43.33,69.17Z"/><path class="cls-20" d="M12.77,102.51s-2.56-3.67-3.5-3.89-4.33,1.58-4.6,5.13A14.88,14.88,0,0,0,.15,116.69s3.64,1.54,4.64.94c0,0-.06-5.12.21-5.18,0,0,4-5.31,5.3-5.22l1.82.34s.48.27.65-.37.32-1.72.32-1.72L9.9,103.94S10.92,101.7,12.77,102.51Z"/><path class="cls-20" d="M95.08,130.21s-1.25,1,0,2.91a49,49,0,0,1,3.38,5.82c.14.54,4.55-1.69,5.68-4.73,0,0,7.37-2.87,9.91-9.41a4.12,4.12,0,0,0-4-2.14c-1.09,0-2.91,3.86-3.46,4s-4,1.46-6.09,1.28l-.23-2.18s-.72-1.64-2.45-.19-.26,4.43.39,4.63S95.33,132.08,95.08,130.21Z"/><circle class="cls-21" cx="368.4" cy="130.46" r="13.84"/><path class="cls-22" d="M368.4,144.74a14.27,14.27,0,1,1,10.1-4.18A14.27,14.27,0,0,1,368.4,144.74Zm0-27.67a13.4,13.4,0,1,0,13.4,13.4h0A13.41,13.41,0,0,0,368.4,117.07Z"/><path class="cls-22" d="M363.7,117.69l3.18,1.94,6.36-.44v-1.5A14,14,0,0,0,363.7,117.69Z"/><path class="cls-22" d="M365.29,124.35s-3.57,1.33-4.72,2.39l-.44.75a22.08,22.08,0,0,0,.48,5l.58.79,5,1,.66-.57,2.25-4.37.13-.88a40.33,40.33,0,0,0-3.22-3.58Z"/><path class="cls-22" d="M359,120.6l-1.5,4.24-.53.79-1.81,2.74A10.2,10.2,0,0,1,359,120.6Z"/><path class="cls-22" d="M375.27,128.63s2.38,3.71,2.47,4.11c.09,0,.84.26.84.26s2.65-1.19,2.69-1.54c0,.26,0-4.33-1-6.31a10.12,10.12,0,0,0-2.92-1.46l-.75.44-1.32,3.67Z"/><path class="cls-22" d="M355.23,133.75s2.21,2.52,2.87,2.56l.66.8,2.3,3.49-1.11.66S354.74,137.33,355.23,133.75Z"/><path class="cls-22" d="M369.09,139.27l-1.81,2.47-.13.84,2.78,1.19a8,8,0,0,0,6.09-2.25,16.41,16.41,0,0,0-.53-2.69l-.75-.49a20.18,20.18,0,0,1-4.9.49Z"/><rect class="cls-22" x="359.53" y="124.68" width="0.9" height="4.61" transform="translate(70.51 375.82) rotate(-60.11)"/><rect class="cls-22" x="363.58" y="121.7" width="5.79" height="0.9" transform="translate(137.81 433.5) rotate(-72.14)"/><rect class="cls-22" x="374.2" y="117.93" width="0.9" height="7.07" transform="translate(15.63 283.39) rotate(-42.24)"/><rect class="cls-22" x="368.58" y="128.14" width="7.07" height="0.9" transform="translate(-10.2 34.59) rotate(-5.25)"/><rect class="cls-22" x="367.45" y="132.96" width="0.9" height="7.07" transform="translate(-18.96 202.24) rotate(-30)"/><rect class="cls-22" x="356.6" y="133.65" width="7.07" height="0.9" transform="translate(55.16 367.92) rotate(-57.9)"/><rect class="cls-22" x="373.08" y="135.22" width="7.07" height="0.9" transform="translate(79.4 403.84) rotate(-61.87)"/><rect class="cls-22" x="379.69" y="124.64" width="1.64" height="0.9" transform="translate(46.93 346.82) rotate(-51.81)"/><rect class="cls-22" x="381.02" y="130.83" width="0.9" height="1.64" transform="translate(96.21 417.1) rotate(-64.06)"/><rect class="cls-22" x="363.26" y="137.88" width="0.9" height="7.31" transform="translate(158.96 473.79) rotate(-79.62)"/><rect class="cls-23" x="98.7" y="139.8" width="2.41" height="36.1"/><rect class="cls-23" x="368.24" y="147.02" width="2.41" height="28.88"/></g></g></svg>