<svg xmlns="http://www.w3.org/2000/svg" viewBox="0 0 400.17 226.99"><defs><style>.cls-1,.cls-4,.cls-6{fill:none;}.cls-2{fill:#baff78;}.cls-3{fill:#83ff00;}.cls-4{stroke:#000;stroke-width:0.5px;}.cls-4,.cls-6{stroke-miterlimit:10;}.cls-5,.cls-9{isolation:isolate;}.cls-6{stroke:#f30;}.cls-7{fill:#f2d5c7;}.cls-8{fill:#6b99bd;}.cls-10,.cls-9{fill:#427b99;}.cls-9{opacity:0.5;}.cls-11{fill:#428e80;}.cls-12{fill:#b55930;}.cls-13{fill:#e0e0e0;}.cls-14{fill:#c9934b;}.cls-15{fill:#896029;}.cls-16{fill:#513513;}.cls-17{fill:#3f3f3f;}.cls-18{fill:#cfaa13;}.cls-19{fill:#c36a3e;}.cls-20{fill:#8e1d21;}.cls-21{fill:#d75f5e;}.cls-22{fill:#3a3a3a;}.cls-23{fill:#fff;}.cls-24{fill:#444;}.cls-25{fill:#f30;}</style></defs><title>zoom2</title><g id="Layer_2" data-name="Layer 2"><g id="Layer_1-2" data-name="Layer 1"><rect class="cls-1" x="0.67" width="399.5" height="226.99"/><path class="cls-2" d="M46.2,136.21H399.36a.93.93,0,0,1,.81,1V174a.93.93,0,0,1-.81,1H46.2a.93.93,0,0,1-.8-1V137.23A.93.93,0,0,1,46.2,136.21Z"/><path class="cls-3" d="M400.17,174H46.4V137.21H400.17v-2H46.42a2,2,0,0,0-2,2V174a2,2,0,0,0,2,2H400.17Z"/><line class="cls-4" x1="53.9" y1="135.21" x2="53.9" y2="149.27"/><line class="cls-4" x1="96.58" y1="135.21" x2="96.58" y2="149.27"/><line class="cls-4" x1="139.26" y1="135.21" x2="139.26" y2="149.27"/><line class="cls-4" x1="181.94" y1="135.21" x2="181.94" y2="149.27"/><line class="cls-4" x1="224.62" y1="135.21" x2="224.62" y2="149.27"/><line class="cls-4" x1="267.3" y1="135.21" x2="267.3" y2="149.27"/><line class="cls-4" x1="309.98" y1="135.21" x2="309.98" y2="149.27"/><line class="cls-4" x1="352.66" y1="135.21" x2="352.66" y2="149.27"/><line class="cls-4" x1="395.34" y1="135.21" x2="395.34" y2="149.27"/><g class="cls-5"><path d="M95.62,153.63a4.68,4.68,0,0,1,0,5.08,2.3,2.3,0,0,1-3.81,0,4.62,4.62,0,0,1,0-5.08,2.3,2.3,0,0,1,3.81,0Zm-3.21.53a3.64,3.64,0,0,0-.51,2,3.71,3.71,0,0,0,.5,2,1.49,1.49,0,0,0,2.63,0,3.62,3.62,0,0,0,.51-2,3.69,3.69,0,0,0-.51-2,1.49,1.49,0,0,0-1.32-.79A1.46,1.46,0,0,0,92.41,154.16Z"/><path d="M98,158.43a.67.67,0,0,1,.51.22.89.89,0,0,1,.18.58,2.56,2.56,0,0,1-1,1.89l-.36-.31a2.22,2.22,0,0,0,.71-1.12H98a.61.61,0,0,1-.45-.18.64.64,0,0,1,.46-1.09Z"/><path d="M101.27,152.73h.67v6.87h-.79v-6l-1.19.62-.31-.59Z"/></g><g class="cls-5"><path d="M137.41,153.63a4.68,4.68,0,0,1,0,5.08,2.3,2.3,0,0,1-3.81,0,4.62,4.62,0,0,1,0-5.08,2.3,2.3,0,0,1,3.81,0Zm-3.21.53a3.64,3.64,0,0,0-.51,2,3.71,3.71,0,0,0,.5,2,1.49,1.49,0,0,0,2.63,0,3.62,3.62,0,0,0,.51-2,3.69,3.69,0,0,0-.51-2,1.49,1.49,0,0,0-1.32-.79A1.46,1.46,0,0,0,134.2,154.16Z"/><path d="M139.78,158.43a.67.67,0,0,1,.51.22.89.89,0,0,1,.18.58,2.56,2.56,0,0,1-.95,1.89l-.36-.31a2.22,2.22,0,0,0,.71-1.12h-.1a.61.61,0,0,1-.45-.18.64.64,0,0,1,.46-1.09Z"/><path d="M143.47,152.62a2.3,2.3,0,0,1,1.65.62,1.83,1.83,0,0,1,.58,1.41,2.38,2.38,0,0,1-.43,1.32,10.24,10.24,0,0,1-1.07,1.25l-1.59,1.67h3.09v.71h-4.26V159l2.08-2.2a11.77,11.77,0,0,0,1-1.15,1.68,1.68,0,0,0,.32-1,1.31,1.31,0,0,0-.38-.94,1.34,1.34,0,0,0-1-.37,2.14,2.14,0,0,0-1.55.68l-.46-.6A2.9,2.9,0,0,1,143.47,152.62Z"/></g><g class="cls-5"><path d="M179.9,153.63a4.68,4.68,0,0,1,0,5.08,2.3,2.3,0,0,1-3.81,0,4.62,4.62,0,0,1,0-5.08,2.3,2.3,0,0,1,3.81,0Zm-3.21.53a3.64,3.64,0,0,0-.51,2,3.71,3.71,0,0,0,.5,2A1.49,1.49,0,0,0,178,159a1.52,1.52,0,0,0,1.33-.79,3.71,3.71,0,0,0,.5-2,3.78,3.78,0,0,0-.5-2,1.52,1.52,0,0,0-1.33-.79A1.46,1.46,0,0,0,176.69,154.16Z"/><path d="M182.27,158.43a.67.67,0,0,1,.51.22.9.9,0,0,1,.19.58,2.57,2.57,0,0,1-1,1.89l-.36-.31a2.22,2.22,0,0,0,.71-1.12h-.1a.63.63,0,0,1-.45-.18.64.64,0,0,1,.46-1.09Z"/><path d="M186.06,152.62a2.69,2.69,0,0,1,1.65.46,1.48,1.48,0,0,1,.65,1.27,1.57,1.57,0,0,1-1.26,1.57,2.39,2.39,0,0,1,1.08.72,1.92,1.92,0,0,1,.39,1.18,1.6,1.6,0,0,1-.71,1.44,3.31,3.31,0,0,1-1.83.46,3.75,3.75,0,0,1-2.19-.59l.48-.59A3,3,0,0,0,186,159a2.24,2.24,0,0,0,1.29-.32,1.12,1.12,0,0,0,.48-1,1.23,1.23,0,0,0-.49-1,1.83,1.83,0,0,0-1.2-.4h-.79v-.71h.79a1.74,1.74,0,0,0,1-.3,1,1,0,0,0,0-1.64,2.06,2.06,0,0,0-1.15-.27,3.32,3.32,0,0,0-1.39.29l-.47-.57A4,4,0,0,1,186.06,152.62Z"/></g><g class="cls-5"><path d="M222.4,153.63a4.68,4.68,0,0,1,0,5.08,2.3,2.3,0,0,1-3.81,0,4.62,4.62,0,0,1,0-5.08,2.3,2.3,0,0,1,3.81,0Zm-3.21.53a3.64,3.64,0,0,0-.51,2,3.71,3.71,0,0,0,.5,2,1.49,1.49,0,0,0,1.31.79,1.52,1.52,0,0,0,1.33-.79,3.71,3.71,0,0,0,.5-2,3.78,3.78,0,0,0-.5-2,1.52,1.52,0,0,0-1.33-.79A1.46,1.46,0,0,0,219.19,154.16Z"/><path d="M224.77,158.43a.67.67,0,0,1,.51.22.9.9,0,0,1,.19.58,2.57,2.57,0,0,1-1,1.89l-.36-.31a2.22,2.22,0,0,0,.71-1.12h-.1a.63.63,0,0,1-.45-.18.64.64,0,0,1,.46-1.09Z"/><path d="M229.88,152.73h.69v4.41h.85v.68h-.85v1.78h-.8v-1.78h-3.34v-.55Zm-.11,1.25-2.42,3.16h2.42Z"/></g><g class="cls-5"><path d="M265.16,153.63a4.68,4.68,0,0,1,0,5.08,2.3,2.3,0,0,1-3.81,0,4.62,4.62,0,0,1,0-5.08,2.3,2.3,0,0,1,3.81,0Zm-3.21.53a3.64,3.64,0,0,0-.51,2,3.71,3.71,0,0,0,.5,2,1.49,1.49,0,0,0,1.31.79,1.52,1.52,0,0,0,1.33-.79,3.71,3.71,0,0,0,.5-2,3.78,3.78,0,0,0-.5-2,1.52,1.52,0,0,0-1.33-.79A1.46,1.46,0,0,0,262,154.16Z"/><path d="M267.53,158.43a.67.67,0,0,1,.51.22.89.89,0,0,1,.18.58,2.56,2.56,0,0,1-1,1.89l-.36-.31a2.22,2.22,0,0,0,.71-1.12h-.1a.61.61,0,0,1-.45-.18.64.64,0,0,1,.46-1.09Z"/><path d="M269.79,152.73h3.86v.66h-3.12l-.25,2.51a2,2,0,0,1,1.56-.7,2.07,2.07,0,0,1,1.55.64,2.22,2.22,0,0,1,.63,1.62,2.14,2.14,0,0,1-.68,1.62,2.49,2.49,0,0,1-1.78.64,3,3,0,0,1-2.37-1.11l.51-.6a2.25,2.25,0,0,0,1.86,1,1.65,1.65,0,0,0,1.17-.42,1.45,1.45,0,0,0,.46-1.11,1.5,1.5,0,0,0-.42-1.11,1.47,1.47,0,0,0-1.09-.43,1.4,1.4,0,0,0-1.38.86l-.84-.34Z"/></g><g class="cls-5"><path d="M307.74,153.63a4.68,4.68,0,0,1,0,5.08,2.3,2.3,0,0,1-3.81,0,4.62,4.62,0,0,1,0-5.08,2.3,2.3,0,0,1,3.81,0Zm-3.21.53a3.64,3.64,0,0,0-.51,2,3.71,3.71,0,0,0,.5,2,1.49,1.49,0,0,0,1.31.79,1.52,1.52,0,0,0,1.33-.79,3.71,3.71,0,0,0,.5-2,3.78,3.78,0,0,0-.5-2,1.52,1.52,0,0,0-1.33-.79A1.46,1.46,0,0,0,304.53,154.16Z"/><path d="M310.11,158.43a.67.67,0,0,1,.51.22.89.89,0,0,1,.18.58,2.56,2.56,0,0,1-.95,1.89l-.36-.31a2.22,2.22,0,0,0,.71-1.12h-.1a.63.63,0,0,1-.45-.18.64.64,0,0,1,.46-1.09Z"/><path d="M314.5,152.62a2.57,2.57,0,0,1,1.49.46,3.49,3.49,0,0,1,.46.4l-.48.63c-.23-.22-.4-.38-.5-.46a1.59,1.59,0,0,0-1-.29,1.57,1.57,0,0,0-1.22.56,3.74,3.74,0,0,0-.68,2.37,2.15,2.15,0,0,1,1.86-1.09,2.36,2.36,0,0,1,1.62.62,2.12,2.12,0,0,1,.71,1.66,2.19,2.19,0,0,1-.68,1.65,2.41,2.41,0,0,1-1.68.59,2.35,2.35,0,0,1-1.84-.76,4,4,0,0,1-.82-2.71,4.11,4.11,0,0,1,.83-2.77A2.45,2.45,0,0,1,314.5,152.62Zm-1.25,3.76a1.44,1.44,0,0,0-.46,1.08,1.48,1.48,0,0,0,.46,1.09,1.55,1.55,0,0,0,1.12.45,1.53,1.53,0,0,0,1.12-.45,1.48,1.48,0,0,0,.46-1.09,1.44,1.44,0,0,0-.46-1.08,1.54,1.54,0,0,0-1.12-.46A1.56,1.56,0,0,0,313.25,156.38Z"/></g><g class="cls-5"><path d="M350.58,153.63a4.68,4.68,0,0,1,0,5.08,2.3,2.3,0,0,1-3.81,0,4.62,4.62,0,0,1,0-5.08,2.3,2.3,0,0,1,3.81,0Zm-3.21.53a3.64,3.64,0,0,0-.51,2,3.71,3.71,0,0,0,.5,2,1.49,1.49,0,0,0,1.31.79,1.52,1.52,0,0,0,1.33-.79,3.71,3.71,0,0,0,.5-2,3.78,3.78,0,0,0-.5-2,1.52,1.52,0,0,0-1.33-.79A1.46,1.46,0,0,0,347.37,154.16Z"/><path d="M353,158.43a.67.67,0,0,1,.51.22.89.89,0,0,1,.18.58,2.56,2.56,0,0,1-.95,1.89l-.36-.31a2.22,2.22,0,0,0,.71-1.12h-.1a.61.61,0,0,1-.45-.18.64.64,0,0,1,.46-1.09Z"/><path d="M354.61,152.73h4.69v.54l-3,6.33h-.89l3-6.19h-3.82Z"/></g><g class="cls-5"><path d="M393.13,153.63a4.68,4.68,0,0,1,0,5.08,2.3,2.3,0,0,1-3.81,0,4.62,4.62,0,0,1,0-5.08,2.3,2.3,0,0,1,3.81,0Zm-3.21.53a3.64,3.64,0,0,0-.51,2,3.71,3.71,0,0,0,.5,2,1.49,1.49,0,0,0,1.31.79,1.52,1.52,0,0,0,1.33-.79,3.71,3.71,0,0,0,.5-2,3.78,3.78,0,0,0-.5-2,1.52,1.52,0,0,0-1.33-.79A1.46,1.46,0,0,0,389.92,154.16Z"/><path d="M395.5,158.43a.67.67,0,0,1,.51.22.89.89,0,0,1,.18.58,2.56,2.56,0,0,1-.95,1.89l-.36-.31a2.22,2.22,0,0,0,.71-1.12h-.1a.61.61,0,0,1-.45-.18.64.64,0,0,1,.46-1.09Z"/><path d="M399.62,153.36a2.38,2.38,0,0,1,.55.06v-.75a3.12,3.12,0,0,0-.55,0,2.71,2.71,0,0,0-1.61.45,1.46,1.46,0,0,0-.63,1.28,1.56,1.56,0,0,0,1.2,1.57,2.23,2.23,0,0,0-1,.73,1.84,1.84,0,0,0-.39,1.18,1.62,1.62,0,0,0,.69,1.41,3,3,0,0,0,1.78.48,3,3,0,0,0,.53,0v-.75a2.36,2.36,0,0,1-.55.07,1.92,1.92,0,0,1-1.16-.33,1.1,1.1,0,0,1-.46-1,1.26,1.26,0,0,1,.46-1,1.71,1.71,0,0,1,1.16-.4,1.8,1.8,0,0,1,.54.08v-.86a1.93,1.93,0,0,1-.55.07,1.7,1.7,0,0,1-1-.29,1,1,0,0,1-.4-.83,1,1,0,0,1,.38-.82A1.81,1.81,0,0,1,399.62,153.36Z"/></g><g class="cls-5"><path d="M55.83,153.63a4.68,4.68,0,0,1,0,5.08,2.3,2.3,0,0,1-3.81,0,4.62,4.62,0,0,1,0-5.08,2.3,2.3,0,0,1,3.81,0Zm-3.21.53a3.64,3.64,0,0,0-.51,2,3.71,3.71,0,0,0,.5,2,1.49,1.49,0,0,0,2.63,0,3.62,3.62,0,0,0,.51-2,3.69,3.69,0,0,0-.51-2,1.49,1.49,0,0,0-1.32-.79A1.46,1.46,0,0,0,52.62,154.16Z"/></g><line class="cls-4" x1="58.17" y1="135.21" x2="58.17" y2="145.44"/><line class="cls-4" x1="62.44" y1="135.21" x2="62.44" y2="145.44"/><line class="cls-4" x1="66.71" y1="135.21" x2="66.71" y2="145.44"/><line class="cls-4" x1="70.98" y1="135.21" x2="70.98" y2="145.44"/><line class="cls-4" x1="75.24" y1="135.21" x2="75.24" y2="147.39"/><line class="cls-4" x1="79.51" y1="135.21" x2="79.51" y2="145.44"/><line class="cls-4" x1="83.78" y1="135.21" x2="83.78" y2="145.44"/><line class="cls-4" x1="88.05" y1="135.21" x2="88.05" y2="145.44"/><line class="cls-4" x1="92.32" y1="135.21" x2="92.32" y2="145.44"/><line class="cls-4" x1="100.85" y1="135.21" x2="100.85" y2="145.44"/><line class="cls-4" x1="105.12" y1="135.21" x2="105.12" y2="145.44"/><line class="cls-4" x1="109.39" y1="135.21" x2="109.39" y2="145.44"/><line class="cls-4" x1="113.66" y1="135.21" x2="113.66" y2="145.44"/><line class="cls-4" x1="117.92" y1="135.21" x2="117.92" y2="147.39"/><line class="cls-4" x1="122.19" y1="135.21" x2="122.19" y2="145.44"/><line class="cls-4" x1="126.46" y1="135.21" x2="126.46" y2="145.44"/><line class="cls-4" x1="130.73" y1="135.21" x2="130.73" y2="145.44"/><line class="cls-4" x1="135" y1="135.21" x2="135" y2="145.44"/><line class="cls-4" x1="143.53" y1="135.21" x2="143.53" y2="145.44"/><line class="cls-4" x1="147.8" y1="135.21" x2="147.8" y2="145.44"/><line class="cls-4" x1="152.07" y1="135.21" x2="152.07" y2="145.44"/><line class="cls-4" x1="156.34" y1="135.21" x2="156.34" y2="145.44"/><line class="cls-4" x1="160.6" y1="135.21" x2="160.6" y2="147.39"/><line class="cls-4" x1="164.87" y1="135.21" x2="164.87" y2="145.44"/><line class="cls-4" x1="169.14" y1="135.21" x2="169.14" y2="145.44"/><line class="cls-4" x1="173.41" y1="135.21" x2="173.41" y2="145.44"/><line class="cls-4" x1="177.68" y1="135.21" x2="177.68" y2="145.44"/><line class="cls-4" x1="186.21" y1="135.21" x2="186.21" y2="145.44"/><line class="cls-4" x1="190.48" y1="135.21" x2="190.48" y2="145.44"/><line class="cls-4" x1="194.75" y1="135.21" x2="194.75" y2="145.44"/><line class="cls-4" x1="199.02" y1="135.21" x2="199.02" y2="145.44"/><line class="cls-4" x1="203.28" y1="135.21" x2="203.28" y2="147.39"/><line class="cls-4" x1="207.55" y1="135.21" x2="207.55" y2="145.44"/><line class="cls-4" x1="211.82" y1="135.21" x2="211.82" y2="145.44"/><line class="cls-4" x1="216.09" y1="135.21" x2="216.09" y2="145.44"/><line class="cls-4" x1="220.36" y1="135.21" x2="220.36" y2="145.44"/><line class="cls-4" x1="228.89" y1="135.21" x2="228.89" y2="145.44"/><line class="cls-4" x1="233.16" y1="135.21" x2="233.16" y2="145.44"/><line class="cls-4" x1="237.43" y1="135.21" x2="237.43" y2="145.44"/><line class="cls-4" x1="241.7" y1="135.21" x2="241.7" y2="145.44"/><line class="cls-4" x1="245.96" y1="135.21" x2="245.96" y2="147.39"/><line class="cls-4" x1="250.23" y1="135.21" x2="250.23" y2="145.44"/><line class="cls-4" x1="254.5" y1="135.21" x2="254.5" y2="145.44"/><line class="cls-4" x1="258.77" y1="135.21" x2="258.77" y2="145.44"/><line class="cls-4" x1="263.04" y1="135.21" x2="263.04" y2="145.44"/><line class="cls-4" x1="271.57" y1="135.21" x2="271.57" y2="145.44"/><line class="cls-4" x1="275.84" y1="135.21" x2="275.84" y2="145.44"/><line class="cls-4" x1="280.11" y1="135.21" x2="280.11" y2="145.44"/><line class="cls-4" x1="284.38" y1="135.21" x2="284.38" y2="145.44"/><line class="cls-4" x1="288.64" y1="135.21" x2="288.64" y2="147.39"/><line class="cls-4" x1="292.91" y1="135.21" x2="292.91" y2="145.44"/><line class="cls-4" x1="297.18" y1="135.21" x2="297.18" y2="145.44"/><line class="cls-4" x1="301.45" y1="135.21" x2="301.45" y2="145.44"/><line class="cls-4" x1="305.72" y1="135.21" x2="305.72" y2="145.44"/><line class="cls-4" x1="314.25" y1="135.21" x2="314.25" y2="145.44"/><line class="cls-4" x1="318.52" y1="135.21" x2="318.52" y2="145.44"/><line class="cls-4" x1="322.79" y1="135.21" x2="322.79" y2="145.44"/><line class="cls-4" x1="327.06" y1="135.21" x2="327.06" y2="145.44"/><line class="cls-4" x1="331.32" y1="135.21" x2="331.32" y2="147.39"/><line class="cls-4" x1="335.59" y1="135.21" x2="335.59" y2="145.44"/><line class="cls-4" x1="339.86" y1="135.21" x2="339.86" y2="145.44"/><line class="cls-4" x1="344.13" y1="135.21" x2="344.13" y2="145.44"/><line class="cls-4" x1="348.4" y1="135.21" x2="348.4" y2="145.44"/><line class="cls-4" x1="356.95" y1="135.21" x2="356.95" y2="145.44"/><line class="cls-4" x1="361.22" y1="135.21" x2="361.22" y2="145.44"/><line class="cls-4" x1="365.49" y1="135.21" x2="365.49" y2="145.44"/><line class="cls-4" x1="369.76" y1="135.21" x2="369.76" y2="145.44"/><line class="cls-4" x1="374.02" y1="135.21" x2="374.02" y2="147.39"/><line class="cls-4" x1="378.29" y1="135.21" x2="378.29" y2="145.44"/><line class="cls-4" x1="382.56" y1="135.21" x2="382.56" y2="145.44"/><line class="cls-6" x1="386.83" y1="133.6" x2="386.83" y2="145.44"/><line class="cls-4" x1="391.1" y1="135.21" x2="391.1" y2="145.44"/><line class="cls-4" x1="399.61" y1="135.21" x2="399.61" y2="145.44"/><path class="cls-7" d="M25.65,100.46s-1.27,8.75-8,10.46-10.85-.71-10.85-.71-.69-.66-1.47.83a22.9,22.9,0,0,0,14.26,2.16c8.23-2,9.78-11.93,9.78-11.93Z"/><path class="cls-7" d="M34.08,101.46a134.23,134.23,0,0,1,10.1,11.73,139.71,139.71,0,0,1,7.15,12.16s.59,1,1.63-.2L52.24,124l.07-.4s-10-23.13-13.56-23.39Z"/><path class="cls-8" d="M27.2,88.46s-2.64,4.3-1.08,7.37a45.57,45.57,0,0,1-1.68,4.24s-.5.74,1.83,2.34a11.06,11.06,0,0,0,4.8,1.81s.1.09.2-.22.69-1.57.69-1.57a29.35,29.35,0,0,1,2.72,2.63.33.33,0,0,0,.43.21.31.31,0,0,0,.15-.1s5.38-3.61,5.62-4.89a.13.13,0,0,0,0-.12L35,94.64s.91-3.57.49-5.2Z"/><path class="cls-9" d="M26.12,95.83a45.57,45.57,0,0,1-1.68,4.24s-.5.74,1.83,2.34a11.06,11.06,0,0,0,4.8,1.81s.1.09.2-.22.69-1.57.69-1.57Z"/><path class="cls-10" d="M33.47,91.55A5.47,5.47,0,0,0,35,94.64a14.43,14.43,0,0,0,.48-3.46Z"/><path class="cls-11" d="M27.49,75.55s1.27,1.39,1.31-.19-1.62-4.7-1.62-4.7Z"/><path class="cls-7" d="M34.69,74.56s4.39,9.36,7.79,9.78S48,80.61,48,80.61s-2.35-3.66-1-5c.51-.37,1,1.38,1.21,2.45,0,0,.15.29.59-.34.32-.45.84-1.36,1.19-2a4.7,4.7,0,0,0,.35-.83c.08-.23.25-.48.57-.26.53.37.26,2.32-.31,2.54,0,0,1.61-.48.7,1.21,0,0,2.34.09,1.06,1.21s-2.29,1.56-3.32,1.4c0,0-2.17,6.18-6.89,5.52s-7.79-6-7.79-6Z"/><path class="cls-12" d="M50,77.6a2.45,2.45,0,0,0-.37.26,1.82,1.82,0,0,0-.31.31,1,1,0,0,0-.19.39.37.37,0,0,0,0,.21.48.48,0,0,0,.07.2h0a.58.58,0,0,0,.19.19.7.7,0,0,0,.24.13,1.07,1.07,0,0,0,.27.06.61.61,0,0,0,.27,0h.09v.08a2.3,2.3,0,0,0-.18.5.92.92,0,0,0,0,.52.31.31,0,0,0,.17.17,1.1,1.1,0,0,0,.26.06,2.44,2.44,0,0,0,.54,0,2.48,2.48,0,0,1-.54.06.66.66,0,0,1-.28,0,.38.38,0,0,1-.21-.2A.89.89,0,0,1,50,80a2.47,2.47,0,0,1,.18-.52v.06a1.5,1.5,0,0,1-.3,0,1,1,0,0,1-.29-.07.87.87,0,0,1-.27-.14.83.83,0,0,1-.2-.22h0a2.09,2.09,0,0,1-.08-.23.49.49,0,0,1,0-.24.85.85,0,0,1,.21-.41,1.67,1.67,0,0,1,.34-.31A2.88,2.88,0,0,1,50,77.6Z"/><path class="cls-12" d="M48.89,78.29a1.53,1.53,0,0,1,.35.79,1.14,1.14,0,0,1,0,.45,1.38,1.38,0,0,1-.18.39,1.91,1.91,0,0,0,.11-.41,2.81,2.81,0,0,0,0-.41c0-.14-.06-.28-.1-.41S49,78.42,48.89,78.29Z"/><path class="cls-13" d="M27.18,70.66l.37,6s2.23,2.15.18,9L25.8,89s1.58,2.68,10,3c0,0,1.21-2.52.86-7.59a90.21,90.21,0,0,0-2-12.11S27.74,70.58,27.18,70.66Z"/><path class="cls-14" d="M22.61,65.23s5.85,3.55,8,.34a19.77,19.77,0,0,1,4.69-4.88,4.53,4.53,0,0,0-3.24-5.53h0c-1.68-.54-3.87.7-5.19,1.72s-5.31.13-5.31.13a4,4,0,0,0,1.27,3.15l-1.91,1.6s.46,1.44,3.89,2Z"/><path class="cls-15" d="M22.61,65.23s3.85,2.32,6.46,1.52c1.86-.57,6.34-6.58,6.34-6.58s-.26-2.85-2.54-2.77C31.68,57.32,28,60.16,28,60.16s-2.84,2.24-6.4-2.4a3.56,3.56,0,0,0,1.24,2.42l-1.91,1.6s.25,1.35,3.89,2Z"/><path class="cls-7" d="M34.8,58.77s4.13,9.32,3.3,9.86a19.08,19.08,0,0,1-5,1.44S32.63,71.42,33,72l.41.27s.08,1.58-.55,1.41a7.8,7.8,0,0,1-2.7-2.34s1.18-.37,1.1-1.18a6.47,6.47,0,0,1-1.1-3.4,3.09,3.09,0,0,1-1.21.4,1.86,1.86,0,0,1-1.75-2,1,1,0,0,1,0-.24c.12-1.71,1.48-1.3,1.48-1.3s.86.3.84.55a11.16,11.16,0,0,0-.22-3s1.25-.62,1.37-1.26,2-1.09,2.48-1.1Z"/><path class="cls-16" d="M35.41,60.17A3.33,3.33,0,0,0,34.47,58c-1-1.07-2.62-.21-3.69,1.54a3.82,3.82,0,0,1-2.22,1.84,6.49,6.49,0,0,1-2,.32A4.83,4.83,0,0,1,24,61.27a4.28,4.28,0,0,0,3,.65A5.2,5.2,0,0,0,30.65,60a2.69,2.69,0,0,0,.16-.29c.09-.18.63-.77,3.91-.91Z"/><ellipse class="cls-17" cx="32.56" cy="62.88" rx="0.48" ry="0.79" transform="translate(-14.46 9.93) rotate(-14.23)"/><ellipse class="cls-17" cx="35.31" cy="62.18" rx="0.45" ry="0.79" transform="translate(-14.2 10.59) rotate(-14.23)"/><path class="cls-18" d="M32.31,60.22a2,2,0,0,0-1.14.75s.32-.94,1-.91C32.41,60.11,32.31,60.22,32.31,60.22Z"/><path class="cls-18" d="M34,59.85a1.66,1.66,0,0,1,1.22.09s-.69-.61-1.23-.26C33.88,59.81,34,59.85,34,59.85Z"/><path class="cls-19" d="M34.73,63.34a.51.51,0,0,0,.26.28.17.17,0,0,0,.17,0l.19,0,.21-.06a.53.53,0,0,1,.25,0,.37.37,0,0,1,.19.18.58.58,0,0,1,.08.22,1.69,1.69,0,0,1,0,.45.69.69,0,0,1-.24.4l-.11.06h-.52l-.2-.07h.41a.62.62,0,0,0,.34-.13.46.46,0,0,0,.15-.31,1.21,1.21,0,0,0,0-.38.3.3,0,0,0-.15-.27.69.69,0,0,0-.35,0h-.22a.45.45,0,0,1-.23,0A.5.5,0,0,1,34.73,63.34Z"/><path class="cls-19" d="M27.83,65a.86.86,0,0,1,.2-.39.82.82,0,0,1,.38-.25h.46a.76.76,0,0,1,.19.12,1.15,1.15,0,0,1,.14.17l-.18,0h-.19a.53.53,0,0,0-.35,0,.8.8,0,0,0-.33.17Z"/><path class="cls-20" d="M31.47,65s4.68,1.16,4.88,1.09c0,0-1.09,3-2.91,2.58S31.35,65.34,31.47,65Z"/><path class="cls-21" d="M31.76,66.89s.46,1.53,1.68,1.81a1.3,1.3,0,0,0,1-.12S34.24,66.75,31.76,66.89Z"/><path class="cls-7" d="M27.51,71.33a21,21,0,0,1,1.22,3.35s-6.53,2.3-7.64,6.7.05,6,2.67,9.13c0,0,1.38-3.19,2.67-2.55l-.63,1.1.2.26-.47.47,1.71.62s.81.25.31.8-.69.4-.83.37H26.5L25,91.29l.47.71a1.78,1.78,0,0,1,.17.4c.09.36.05.89-1.07.79a2.62,2.62,0,0,1,.45.6.45.45,0,0,1-.2.58l-.1,0a2.86,2.86,0,0,1-1.13-.08,7.15,7.15,0,0,1-.88-.54.87.87,0,0,1-.38-1c.08-.28.31-.53.85-.54,0,0-.32-.72-.22-.93,0,0-6.69-4.17-4.57-10.43C20.46,74.8,27.51,71.33,27.51,71.33Z"/><path class="cls-12" d="M23.36,92.29a6.29,6.29,0,0,1,.64.41,5.37,5.37,0,0,1,.58.49,5.35,5.35,0,0,1-.64-.41A4.55,4.55,0,0,1,23.36,92.29Z"/><path class="cls-22" d="M6.89,110.26s-1.38-2-1.89-2.1a3,3,0,0,0-2.48,2.76,8,8,0,0,0-2.43,7s2,.83,2.49.5a16.29,16.29,0,0,1,.12-2.79s2.16-2.86,2.86-2.81l1,.18s.26.15.35-.2.17-.92.17-.92L5.34,111S5.89,109.82,6.89,110.26Z"/><path class="cls-22" d="M51.25,125.19s-.68.56,0,1.56a26.44,26.44,0,0,1,1.82,3.14c.07.29,2.45-.91,3.06-2.55,0,0,4-1.54,5.34-5.07a2.21,2.21,0,0,0-2.13-1.15c-.59,0-1.57,2.08-1.86,2.13a11.91,11.91,0,0,1-3.28.68l-.13-1.17s-.39-.89-1.32-.1-.14,2.38.21,2.49S51.38,126.19,51.25,125.19Z"/><circle class="cls-23" cx="386.64" cy="125.32" r="7.46"/><path class="cls-24" d="M386.64,133a7.7,7.7,0,1,1,5.44-2.26A7.69,7.69,0,0,1,386.64,133Zm0-14.92a7.22,7.22,0,1,0,7.22,7.22,7.22,7.22,0,0,0-7.22-7.22Z"/><path class="cls-24" d="M384.1,118.44l1.72,1,3.42-.24v-.8A7.45,7.45,0,0,0,384.1,118.44Z"/><path class="cls-24" d="M385,122a11.49,11.49,0,0,0-2.55,1.28l-.23.41a11.23,11.23,0,0,0,.26,2.71l.31.43,2.68.52.36-.31,1.21-2.35.08-.48a22.79,22.79,0,0,0-1.74-1.93Z"/><path class="cls-24" d="M381.56,120l-.81,2.28-.29.43-1,1.47A5.4,5.4,0,0,1,381.56,120Z"/><path class="cls-24" d="M390.34,124.33s1.28,2,1.33,2.22l.45.14s1.43-.64,1.45-.83a10.62,10.62,0,0,0-.55-3.4,5.27,5.27,0,0,0-1.57-.79l-.4.24-.71,2Z"/><path class="cls-24" d="M379.54,127.09s1.18,1.36,1.54,1.38a4.82,4.82,0,0,0,.36.43l1.24,1.88-.6.36S379.27,129,379.54,127.09Z"/><path class="cls-24" d="M387,130.07l-1,1.33-.07.45,1.5.64a4.31,4.31,0,0,0,3.28-1.21,10.06,10.06,0,0,0-.29-1.45l-.4-.26a11.21,11.21,0,0,1-2.64.26Z"/><rect class="cls-24" x="381.08" y="121.72" width="0.48" height="2.47" transform="translate(84.18 391.71) rotate(-60)"/><rect class="cls-24" x="384.04" y="120.61" width="3.12" height="0.48" transform="translate(152.31 450.8) rotate(-72.14)"/><rect class="cls-24" x="389.76" y="118.57" width="0.48" height="3.81" transform="translate(20.28 293.46) rotate(-42.24)"/><rect class="cls-24" x="386.73" y="124.08" width="3.81" height="0.48" transform="translate(-9.75 36.08) rotate(-5.25)"/><rect class="cls-24" x="386.12" y="126.68" width="0.48" height="3.81" transform="translate(-12.53 210.41) rotate(-30)"/><rect class="cls-24" x="380.28" y="127.05" width="3.81" height="0.48" transform="translate(71.26 383.41) rotate(-57.9)"/><rect class="cls-24" x="389.13" y="127.88" width="3.81" height="0.48" transform="translate(93.68 412.57) rotate(-61.87)"/><rect class="cls-24" x="392.69" y="122.18" width="0.89" height="0.48" transform="translate(53.85 355.72) rotate(-51.81)"/><rect class="cls-24" x="393.44" y="125.51" width="0.48" height="0.89" transform="translate(108.21 424.87) rotate(-64.06)"/><rect class="cls-24" x="383.86" y="129.33" width="0.48" height="3.94" transform="translate(185.75 485.45) rotate(-79.62)"/><rect class="cls-25" x="53.2" y="130.36" width="1.3" height="19.46"/></g></g></svg>