<svg xmlns="http://www.w3.org/2000/svg" viewBox="0 0 401.02 246.79"><defs><style>.cls-1{fill:#baff78;}.cls-2{fill:#83ff00;}.cls-3,.cls-5{fill:none;}.cls-25,.cls-3{stroke:#000;}.cls-25,.cls-3,.cls-5{stroke-miterlimit:10;}.cls-3{stroke-width:0.5px;}.cls-4,.cls-8{isolation:isolate;}.cls-5{stroke:#f30;}.cls-6{fill:#f2d5c7;}.cls-7{fill:#6b99bd;}.cls-8,.cls-9{fill:#427b99;}.cls-8{opacity:0.5;}.cls-10{fill:#428e80;}.cls-11{fill:#b55930;}.cls-12{fill:#e0e0e0;}.cls-13{fill:#c9934b;}.cls-14{fill:#896029;}.cls-15{fill:#513513;}.cls-16{fill:#3f3f3f;}.cls-17{fill:#cfaa13;}.cls-18{fill:#c36a3e;}.cls-19{fill:#8e1d21;}.cls-20{fill:#d75f5e;}.cls-21{fill:#3a3a3a;}.cls-22,.cls-25{fill:#fff;}.cls-23{fill:#444;}.cls-24{fill:#f30;}.cls-25{stroke-width:0.25px;}</style></defs><title>zoom3</title><g id="Layer_2" data-name="Layer 2"><g id="Layer_1-2" data-name="Layer 1"><path class="cls-1" d="M91.93,164.61H400.55c.19,0,.34.45.34,1v79.21c0,.56-.15,1-.34,1H91.93c-.19,0-.35-.46-.35-1V165.63C91.58,165.06,91.74,164.61,91.93,164.61Z"/><path class="cls-2" d="M400.89,244.82H92.58V165.59H400.89v-2H92.61a2,2,0,0,0-2,2v79.2a2,2,0,0,0,2,2H400.89Z"/><line class="cls-3" x1="109.98" y1="163.61" x2="109.98" y2="192.28"/><line class="cls-3" x1="197.04" y1="163.61" x2="197.04" y2="192.28"/><line class="cls-3" x1="284.09" y1="163.61" x2="284.09" y2="192.28"/><line class="cls-3" x1="371.15" y1="163.61" x2="371.15" y2="192.28"/><g class="cls-4"><path d="M195.09,201.19a8.31,8.31,0,0,1,1.54,5.17,8.46,8.46,0,0,1-1.53,5.2,4.73,4.73,0,0,1-7.79,0,9.52,9.52,0,0,1,0-10.38,4.69,4.69,0,0,1,3.9-2.05A4.63,4.63,0,0,1,195.09,201.19Zm-6.55,1.07a7.52,7.52,0,0,0-1,4.14,7.6,7.6,0,0,0,1,4.14,3.06,3.06,0,0,0,2.68,1.6,3.1,3.1,0,0,0,2.7-1.6,7.52,7.52,0,0,0,1-4.14,7.61,7.61,0,0,0-1-4.16,3.11,3.11,0,0,0-2.7-1.61A3,3,0,0,0,188.54,202.26Z"/><path d="M199.93,211a1.29,1.29,0,0,1,1,.45,1.73,1.73,0,0,1,.39,1.18,5.28,5.28,0,0,1-1.95,3.86l-.74-.64a4.65,4.65,0,0,0,1.46-2.28h-.21a1.28,1.28,0,0,1-.92-.36,1.23,1.23,0,0,1-.38-.93,1.2,1.2,0,0,1,.39-.9A1.24,1.24,0,0,1,199.93,211Z"/><path d="M206.61,199.35H208v14h-1.63V201L204,202.3l-.63-1.19Z"/></g><g class="cls-4"><path d="M280.32,201.19a8.31,8.31,0,0,1,1.54,5.17,8.46,8.46,0,0,1-1.53,5.2,4.73,4.73,0,0,1-7.79,0,9.52,9.52,0,0,1,0-10.38,4.69,4.69,0,0,1,3.9-2.05A4.63,4.63,0,0,1,280.32,201.19Zm-6.55,1.07a7.52,7.52,0,0,0-1,4.14,7.6,7.6,0,0,0,1,4.14,3.06,3.06,0,0,0,2.68,1.6,3.1,3.1,0,0,0,2.7-1.6,7.52,7.52,0,0,0,1-4.14,7.61,7.61,0,0,0-1-4.16,3.11,3.11,0,0,0-2.7-1.61A3,3,0,0,0,273.77,202.26Z"/><path d="M285.16,211a1.29,1.29,0,0,1,1,.45,1.73,1.73,0,0,1,.39,1.18,5.28,5.28,0,0,1-1.95,3.86l-.74-.64a4.65,4.65,0,0,0,1.46-2.28h-.21a1.28,1.28,0,0,1-.92-.36,1.29,1.29,0,0,1,0-1.83A1.28,1.28,0,0,1,285.16,211Z"/><path d="M292.69,199.13a4.66,4.66,0,0,1,3.36,1.25,3.77,3.77,0,0,1,1.19,2.89,4.88,4.88,0,0,1-.88,2.69,20.73,20.73,0,0,1-2.19,2.54l-3.23,3.42h6.3v1.45h-8.69v-1.29l4.24-4.49a21.83,21.83,0,0,0,2-2.35,3.49,3.49,0,0,0,.66-2,2.58,2.58,0,0,0-.79-1.92,2.72,2.72,0,0,0-2-.75,4.39,4.39,0,0,0-3.17,1.37l-.94-1.21A5.94,5.94,0,0,1,292.69,199.13Z"/></g><g class="cls-4"><path d="M367,201.19a8.31,8.31,0,0,1,1.54,5.17,8.46,8.46,0,0,1-1.53,5.2,4.73,4.73,0,0,1-7.79,0,9.52,9.52,0,0,1,0-10.38,4.69,4.69,0,0,1,3.9-2.05A4.63,4.63,0,0,1,367,201.19Zm-6.55,1.07a7.52,7.52,0,0,0-1,4.14,7.6,7.6,0,0,0,1,4.14,3.06,3.06,0,0,0,2.68,1.6,3.1,3.1,0,0,0,2.7-1.6,7.52,7.52,0,0,0,1-4.14,7.61,7.61,0,0,0-1-4.16,3.11,3.11,0,0,0-2.7-1.61A3,3,0,0,0,360.44,202.26Z"/><path d="M371.83,211a1.29,1.29,0,0,1,1,.45,1.73,1.73,0,0,1,.39,1.18,5.28,5.28,0,0,1-1.95,3.86l-.74-.64a4.65,4.65,0,0,0,1.46-2.28h-.21a1.28,1.28,0,0,1-.92-.36,1.29,1.29,0,0,1,0-1.83A1.28,1.28,0,0,1,371.83,211Z"/><path d="M379.55,199.13a5.59,5.59,0,0,1,3.38.92,3.07,3.07,0,0,1,1.33,2.61,3.22,3.22,0,0,1-2.58,3.21,4.57,4.57,0,0,1,2.21,1.47,3.87,3.87,0,0,1,.8,2.4,3.28,3.28,0,0,1-1.46,2.93,6.74,6.74,0,0,1-3.74.94,7.61,7.61,0,0,1-4.46-1.2l1-1.2a6.2,6.2,0,0,0,3.38.92,4.61,4.61,0,0,0,2.64-.67,2.26,2.26,0,0,0,1-2,2.54,2.54,0,0,0-1-2.09,3.84,3.84,0,0,0-2.45-.8H378v-1.45h1.6a3.68,3.68,0,0,0,2.13-.61,1.92,1.92,0,0,0,.86-1.69,1.89,1.89,0,0,0-.8-1.66,4.13,4.13,0,0,0-2.34-.55,6.69,6.69,0,0,0-2.83.58l-1-1.17A8.16,8.16,0,0,1,379.55,199.13Z"/></g><g class="cls-4"><path d="M113.92,201.19a8.31,8.31,0,0,1,1.54,5.17,8.46,8.46,0,0,1-1.53,5.2,4.73,4.73,0,0,1-7.79,0,9.52,9.52,0,0,1,0-10.38,4.69,4.69,0,0,1,3.9-2.05A4.63,4.63,0,0,1,113.92,201.19Zm-6.55,1.07a7.52,7.52,0,0,0-1,4.14,7.6,7.6,0,0,0,1,4.14,3.06,3.06,0,0,0,2.68,1.6,3.1,3.1,0,0,0,2.7-1.6,7.52,7.52,0,0,0,1-4.14,7.61,7.61,0,0,0-1-4.16,3.11,3.11,0,0,0-2.7-1.61A3,3,0,0,0,107.37,202.26Z"/></g><line class="cls-3" x1="118.69" y1="163.61" x2="118.69" y2="184.47"/><line class="cls-3" x1="127.39" y1="163.61" x2="127.39" y2="184.47"/><line class="cls-3" x1="136.1" y1="163.61" x2="136.1" y2="184.47"/><line class="cls-3" x1="144.8" y1="163.61" x2="144.8" y2="184.47"/><line class="cls-3" x1="153.51" y1="163.61" x2="153.51" y2="188.46"/><line class="cls-3" x1="162.21" y1="163.61" x2="162.21" y2="184.47"/><line class="cls-3" x1="170.92" y1="163.61" x2="170.92" y2="184.47"/><line class="cls-3" x1="179.63" y1="163.61" x2="179.63" y2="184.47"/><line class="cls-3" x1="188.33" y1="163.61" x2="188.33" y2="184.47"/><line class="cls-3" x1="205.74" y1="163.61" x2="205.74" y2="184.47"/><line class="cls-3" x1="214.45" y1="163.61" x2="214.45" y2="184.47"/><line class="cls-3" x1="223.15" y1="163.61" x2="223.15" y2="184.47"/><line class="cls-3" x1="231.86" y1="163.61" x2="231.86" y2="184.47"/><line class="cls-3" x1="240.56" y1="163.61" x2="240.56" y2="188.46"/><line class="cls-3" x1="249.27" y1="163.61" x2="249.27" y2="184.47"/><line class="cls-3" x1="257.98" y1="163.61" x2="257.98" y2="184.47"/><line class="cls-3" x1="266.68" y1="163.61" x2="266.68" y2="184.47"/><line class="cls-3" x1="275.39" y1="163.61" x2="275.39" y2="184.47"/><line class="cls-3" x1="292.8" y1="163.61" x2="292.8" y2="184.47"/><line class="cls-3" x1="301.5" y1="163.61" x2="301.5" y2="184.47"/><line class="cls-3" x1="310.21" y1="163.61" x2="310.21" y2="184.47"/><line class="cls-3" x1="318.91" y1="163.61" x2="318.91" y2="184.47"/><line class="cls-3" x1="327.62" y1="163.61" x2="327.62" y2="188.46"/><line class="cls-3" x1="336.33" y1="163.61" x2="336.33" y2="184.47"/><line class="cls-3" x1="345.03" y1="163.61" x2="345.03" y2="184.47"/><line class="cls-3" x1="353.74" y1="163.61" x2="353.74" y2="184.47"/><line class="cls-5" x1="362.44" y1="160.33" x2="362.44" y2="184.47"/><line class="cls-3" x1="379.85" y1="163.61" x2="379.85" y2="184.47"/><line class="cls-3" x1="388.56" y1="163.61" x2="388.56" y2="184.47"/><line class="cls-3" x1="397.26" y1="163.61" x2="397.26" y2="184.47"/><path class="cls-6" d="M52.35,92.72s-2.6,17.85-16.28,21.35-22.15-1.45-22.15-1.45-1.39-1.35-3,1.7c0,0,11.79,7,29.08,4.39,16.8-4,20-24.34,20-24.34Z"/><path class="cls-6" d="M69.54,94.77s14.06,14.6,20.59,23.93,14.6,24.79,14.6,24.79,1.2,2.06,3.33-.4l-1.47-2.34.14-.79S86.27,92.77,79.07,92.24Z"/><path class="cls-7" d="M55.51,68.25s-5.39,8.76-2.19,15c0,0-2.57,7.33-3.44,8.66,0,0-1,1.5,3.74,4.77a22.78,22.78,0,0,0,9.79,3.69s.2.17.4-.46,1.4-3.2,1.4-3.2,5.07,4.43,5.57,5.36,1.16.24,1.16.24,11-7.37,11.48-10a.24.24,0,0,0-.08-.24L71.48,80.85s1.86-7.27,1-10.6Z"/><path class="cls-8" d="M53.32,83.28s-2.57,7.33-3.44,8.66c0,0-1,1.5,3.74,4.77a22.78,22.78,0,0,0,9.79,3.69s.2.17.4-.46,1.4-3.2,1.4-3.2Z"/><path class="cls-9" d="M68.29,74.56s.14,2.9,3.19,6.29c0,0,1.24-4.79,1-7Z"/><path class="cls-10" d="M56.07,41.91s2.6,2.85,2.66-.38S55.48,32,55.48,32Z"/><path class="cls-6" d="M70.79,39.89s9,19.1,15.9,20S98,52.29,98,52.29s-4.8-7.46-2.08-10.11c1-.77,2,2.81,2.46,5,0,0,.3.59,1.2-.69.65-.93,1.73-2.78,2.43-4a9.69,9.69,0,0,0,.73-1.69c.16-.48.49-1,1.14-.54,1.09.75.55,4.73-.61,5.18,0,0,3.28-1,1.41,2.46,0,0,4.78.2,2.17,2.49s-4.67,3.18-6.77,2.85c0,0-4.43,12.59-14.06,11.26S70.07,52.21,70.07,52.21Z"/><path class="cls-11" d="M102.07,46.09a6.48,6.48,0,0,0-.76.53,4.92,4.92,0,0,0-.64.65,2.07,2.07,0,0,0-.38.79,1.55,1.55,0,0,0,0,.43,2.86,2.86,0,0,0,.15.41h0a3,3,0,0,0,.39.4,1.93,1.93,0,0,0,.49.26,2.71,2.71,0,0,0,.55.12,2.62,2.62,0,0,0,.56,0h.18l-.08.16a6.62,6.62,0,0,0-.37,1,1.89,1.89,0,0,0,0,1,.68.68,0,0,0,.36.35,1.89,1.89,0,0,0,.52.13,5.15,5.15,0,0,0,1.11,0,4.56,4.56,0,0,1-1.11.13,1.94,1.94,0,0,1-.57-.12.78.78,0,0,1-.43-.39,1.88,1.88,0,0,1,0-1.15,7.5,7.5,0,0,1,.37-1.07l.11.13a2.08,2.08,0,0,1-.61,0,2.13,2.13,0,0,1-.6-.12,1.91,1.91,0,0,1-.54-.3,2.63,2.63,0,0,1-.43-.45h0a1.6,1.6,0,0,1-.17-.46,1.49,1.49,0,0,1,.45-1.33,4.1,4.1,0,0,1,.69-.63A5,5,0,0,1,102.07,46.09Z"/><path class="cls-11" d="M99.75,47.51a3.11,3.11,0,0,1,.72,1.61,2.32,2.32,0,0,1,0,.91,2.06,2.06,0,0,1-.37.81,3.59,3.59,0,0,0,.22-.84,4,4,0,0,0,0-.85,5.93,5.93,0,0,0-.21-.83A5.87,5.87,0,0,0,99.75,47.51Z"/><path class="cls-12" d="M55.48,32l.75,12.24s4.55,4.4.36,18.45l-3.94,6.84S55.88,75,73,75.71c0,0,2.47-5.15,1.76-15.49s-4.15-24.69-4.15-24.69S56.61,31.77,55.48,32Z"/><path class="cls-13" d="M46.15,20.87s11.93,7.23,16.4.7a40.22,40.22,0,0,1,9.56-10S74.47,3.4,65.41.27C62-.83,57.51,1.7,54.82,3.77s-10.9.33-10.9.33-.3,4.17,2.6,6.43l-3.9,3.27s.93,2.93,7.93,4.13Z"/><path class="cls-14" d="M46.15,20.87S54,25.6,59.33,24c3.79-1.16,12.92-13.42,12.92-13.42s-.52-5.81-5.17-5.66c-2.44-.15-10,5.63-10,5.63S51.28,15.1,44,5.64a7.35,7.35,0,0,0,2.54,4.93l-3.9,3.27s.51,2.74,7.93,4.13Z"/><path class="cls-6" d="M71,7.69s8.43,19,6.73,20.11-8.55,2.85-10.3,3c0,0-1,2.75-.2,3.82l.83.55s.17,3.23-1.11,2.88-5.44-4-5.51-4.78c0,0,2.39-.75,2.24-2.4a13.56,13.56,0,0,1-2.24-6.94,6,6,0,0,1-2.48.82c-.95,0-3.76-.82-3.51-4.48.25-3.49,3-2.67,3-2.67s1.75.63,1.7,1.13a21.17,21.17,0,0,0-.45-6.15s2.55-1.27,2.8-2.57,4.13-2.23,5.06-2.25Z"/><path class="cls-15" d="M72.25,10.55a6.69,6.69,0,0,0-1.91-4.41C68.34,4,65,5.71,62.81,9.29A7.84,7.84,0,0,1,58.28,13a13.38,13.38,0,0,1-4.12.64c-1.94,0-4.15-.15-5.06-.89a8.93,8.93,0,0,0,6,1.33c3.22-.48,6.08-1.88,7.4-3.94.12-.19.22-.39.32-.59.18-.37,1.3-1.57,8-1.85Z"/><ellipse class="cls-16" cx="66.45" cy="16.07" rx="0.99" ry="1.62" transform="translate(-1.91 16.83) rotate(-14.23)"/><ellipse class="cls-16" cx="72.06" cy="14.65" rx="0.91" ry="1.62" transform="translate(-1.39 18.16) rotate(-14.23)"/><path class="cls-17" d="M65.93,10.64a4,4,0,0,0-2.32,1.53s.65-1.9,2.13-1.85C66.14,10.42,65.93,10.64,65.93,10.64Z"/><path class="cls-17" d="M69.41,9.89a3.41,3.41,0,0,1,2.51.19S70.5,8.83,69.4,9.54C69.14,9.8,69.41,9.89,69.41,9.89Z"/><path class="cls-18" d="M70.87,17a1.15,1.15,0,0,0,.52.59.69.69,0,0,0,.35,0l.39-.11a1.7,1.7,0,0,1,.43-.11.89.89,0,0,1,.51,0,.73.73,0,0,1,.4.37,1.65,1.65,0,0,1,.16.44,2.37,2.37,0,0,1,0,.92,1.24,1.24,0,0,1-.49.81l-.21.12-.23.08h-.45a2.14,2.14,0,0,1-.43-.07,1.62,1.62,0,0,1-.41-.13h.84a1.34,1.34,0,0,0,.7-.27,1,1,0,0,0,.3-.64,1.94,1.94,0,0,0,0-.76.61.61,0,0,0-.31-.55,1.26,1.26,0,0,0-.72,0h-.44a.86.86,0,0,1-.47-.11A1.11,1.11,0,0,1,70.87,17Z"/><path class="cls-18" d="M56.8,20.45a1.78,1.78,0,0,1,.41-.78,1.61,1.61,0,0,1,.77-.52h.72a.58.58,0,0,1,.22.08,1.24,1.24,0,0,1,.39.25,1.81,1.81,0,0,1,.29.33c-.15,0-.27-.12-.4-.17L59,19.58h-.19a1.29,1.29,0,0,0-.73,0,2.29,2.29,0,0,0-.67.36A3.48,3.48,0,0,0,56.8,20.45Z"/><path class="cls-19" d="M64.21,20.45s9.55,2.38,10,2.23c0,0-2.23,6.19-5.93,5.27S64,21.09,64.21,20.45Z"/><path class="cls-20" d="M64.81,24.25s.93,3.12,3.43,3.7a2.63,2.63,0,0,0,2.14-.24S69.87,24,64.81,24.25Z"/><path class="cls-6" d="M56.15,33.3s2.36,5.32,2.48,6.85c0,0-13.33,4.69-15.58,13.66S43.15,66,48.5,72.43c0,0,2.82-6.5,5.44-5.2l-1.29,2.25.42.5-1,1,3.5,1.27s1.65.5.62,1.63c-.77.84-1.41.81-1.68.74a2.53,2.53,0,0,0-.46-.09l-3-.48L52,75.5a2.37,2.37,0,0,1,.36.81c.18.72.1,1.82-2.17,1.61a5.18,5.18,0,0,1,.91,1.22.86.86,0,0,1-.39,1.16,1.13,1.13,0,0,1-.24.08,5.59,5.59,0,0,1-2.3-.16,20.5,20.5,0,0,1-1.8-1.09,1.83,1.83,0,0,1-.77-2.06A1.63,1.63,0,0,1,47.33,76s-.65-1.48-.45-1.9c0,0-13.65-8.5-9.32-21.27C41.75,40.39,56.15,33.3,56.15,33.3Z"/><path class="cls-11" d="M47.67,76.06A8.57,8.57,0,0,1,49,76.9a9.64,9.64,0,0,1,1.2,1,11.33,11.33,0,0,1-1.32-.84A12.59,12.59,0,0,1,47.67,76.06Z"/><path class="cls-21" d="M14.07,112.71s-2.81-4-3.85-4.28-4.76,1.74-5.06,5.64a16.34,16.34,0,0,0-5,14.22s4,1.7,5.1,1c0,0-.07-5.64.23-5.7,0,0,4.4-5.83,5.84-5.73l2,.36s.53.3.72-.4a19.11,19.11,0,0,0,.35-1.89l-3.51-1.65S12.07,111.82,14.07,112.71Z"/><path class="cls-21" d="M104.56,143.16s-1.37,1.14,0,3.19a52.28,52.28,0,0,1,3.72,6.4c.15.6,5-1.85,6.24-5.2,0,0,8.1-3.15,10.9-10.34,0,0-1.45-2.75-4.35-2.35-1.2,0-3.2,4.25-3.8,4.35s-4.44,1.59-6.69,1.39l-.25-2.39s-.8-1.8-2.7-.2-.29,4.86.43,5.08S104.84,145.22,104.56,143.16Z"/><circle class="cls-22" cx="362.71" cy="143.44" r="15.21"/><path class="cls-23" d="M362.71,159.14a15.69,15.69,0,1,1,11.1-4.6A15.7,15.7,0,0,1,362.71,159.14Zm0-30.43a14.73,14.73,0,1,0,14.72,14.74h0a14.74,14.74,0,0,0-14.72-14.73Z"/><path class="cls-23" d="M357.54,129.39l3.49,2.14,7-.49v-1.65A15.26,15.26,0,0,0,357.54,129.39Z"/><path class="cls-23" d="M359.29,136.72s-3.93,1.45-5.2,2.62l-.48.82a24.52,24.52,0,0,0,.53,5.53l.63.88,5.49,1.07L361,147l2.48-4.81.14-1s-3.29-4-3.54-3.93Z"/><path class="cls-23" d="M352.35,132.59l-1.65,4.66-.58.88-2,3A11.11,11.11,0,0,1,352.35,132.59Z"/><path class="cls-23" d="M370.25,141.42s2.62,4.08,2.72,4.52c.1,0,.92.29.92.29s2.91-1.31,3-1.7c0,.29,0-4.75-1.11-6.94a10.73,10.73,0,0,0-3.21-1.6l-.82.49-1.46,4Z"/><path class="cls-23" d="M348.22,147.05s2.43,2.77,3.16,2.82c0,0,.72.87.72.87l2.53,3.83-1.21.73S347.69,151,348.22,147.05Z"/><path class="cls-23" d="M363.46,153.12l-2,2.72-.15.92,3.06,1.31a8.84,8.84,0,0,0,6.7-2.48,17.87,17.87,0,0,0-.58-3l-.83-.53a22.67,22.67,0,0,1-5.39.53Z"/><rect class="cls-23" x="351.4" y="136.08" width="0.98" height="5.05" transform="translate(55.91 374.05) rotate(-60)"/><rect class="cls-23" x="357.4" y="133.82" width="6.37" height="0.98" transform="translate(122.16 436.33) rotate(-72.14)"/><rect class="cls-23" x="369.1" y="129.65" width="0.98" height="7.77" transform="translate(6.2 283.13) rotate(-42.24)"/><rect class="cls-23" x="362.91" y="140.87" width="7.77" height="0.98" transform="matrix(1, -0.09, 0.09, 1, -11.4, 34.16)"/><rect class="cls-23" x="362.61" y="144.74" width="0.98" height="7.8" transform="translate(-25.78 200.7) rotate(-29.89)"/><rect class="cls-23" x="349.74" y="146.94" width="7.77" height="0.98" transform="translate(40.82 368.65) rotate(-57.9)"/><rect class="cls-23" x="367.85" y="148.68" width="7.77" height="0.98" transform="translate(64.92 406.67) rotate(-61.87)"/><rect class="cls-23" x="375.1" y="137.05" width="1.81" height="0.98" transform="translate(35.43 348.03) rotate(-51.81)"/><rect class="cls-23" x="376.59" y="143.84" width="0.98" height="1.81" transform="translate(81.97 420.52) rotate(-64.06)"/><rect class="cls-23" x="357.06" y="151.58" width="0.98" height="8.03" transform="translate(140.08 479.25) rotate(-79.62)"/><rect class="cls-24" x="108.54" y="153.71" width="2.65" height="39.69"/><line class="cls-25" x1="400.89" y1="163.29" x2="400.89" y2="162.6"/></g></g></svg>