<svg xmlns="http://www.w3.org/2000/svg" viewBox="0 0 400.38 161.29"><defs><style>.cls-1{fill:#baff78;}.cls-2{fill:#83ff00;}.cls-3,.cls-5{fill:none;stroke-miterlimit:10;}.cls-3{stroke:#000;stroke-width:0.5px;}.cls-4,.cls-8{isolation:isolate;}.cls-5{stroke:#f30;}.cls-6{fill:#f2d5c7;}.cls-7{fill:#6b99bd;}.cls-8,.cls-9{fill:#427b99;}.cls-8{opacity:0.5;}.cls-10{fill:#428e80;}.cls-11{fill:#b55930;}.cls-12{fill:#e0e0e0;}.cls-13{fill:#c9934b;}.cls-14{fill:#896029;}.cls-15{fill:#513513;}.cls-16{fill:#3f3f3f;}.cls-17{fill:#cfaa13;}.cls-18{fill:#c36a3e;}.cls-19{fill:#8e1d21;}.cls-20{fill:#d75f5e;}.cls-21{fill:#3a3a3a;}.cls-22{fill:#fff;}.cls-23{fill:#444;}.cls-24{fill:#f30;}</style></defs><title>zoom4</title><g id="Layer_2" data-name="Layer 2"><g id="Layer_1-2" data-name="Layer 1"><path class="cls-1" d="M60.77,107.91h339c.32,0,.58.46.58,1v50.38c0,.57-.26,1-.58,1h-339c-.32,0-.58-.45-.58-1V108.93C60.19,108.37,60.45,107.91,60.77,107.91Z"/><path class="cls-2" d="M400.38,159.31H61.19V108.92H400.38v-2H61.21a2,2,0,0,0-2,2v50.37a2,2,0,0,0,2,2H400.38Z"/><line class="cls-3" x1="71.87" y1="106.91" x2="71.87" y2="125.66"/><line class="cls-3" x1="128.77" y1="106.91" x2="128.77" y2="125.66"/><line class="cls-3" x1="185.68" y1="106.91" x2="185.68" y2="125.66"/><line class="cls-3" x1="242.59" y1="106.91" x2="242.59" y2="125.66"/><line class="cls-3" x1="299.49" y1="106.91" x2="299.49" y2="125.66"/><line class="cls-3" x1="356.4" y1="106.91" x2="356.4" y2="125.66"/><g class="cls-4"><path d="M127.5,131.48a6.19,6.19,0,0,1,0,6.78,3.09,3.09,0,0,1-5.09,0,6.26,6.26,0,0,1,0-6.79,3.09,3.09,0,0,1,5.09,0Zm-4.28.7a4.84,4.84,0,0,0-.68,2.71,5,5,0,0,0,.66,2.71,2,2,0,0,0,3.52,0,4.93,4.93,0,0,0,.68-2.71,5,5,0,0,0-.68-2.72,2,2,0,0,0-1.76-1A2,2,0,0,0,123.22,132.18Z"/><path d="M130.66,137.89a.84.84,0,0,1,.68.29,1.19,1.19,0,0,1,.25.77,3.47,3.47,0,0,1-1.27,2.52l-.49-.42a3,3,0,0,0,1-1.48h-.14a.85.85,0,0,1-.61-.24.81.81,0,0,1-.24-.6.78.78,0,0,1,.25-.59A.82.82,0,0,1,130.66,137.89Z"/><path d="M135,130.28h.91v9.16h-1.07v-8.05l-1.58.82-.41-.78Z"/></g><g class="cls-4"><path d="M183.22,131.48a6.19,6.19,0,0,1,0,6.78,3.09,3.09,0,0,1-5.09,0,6.26,6.26,0,0,1,0-6.79,3.09,3.09,0,0,1,5.09,0Zm-4.28.7a4.84,4.84,0,0,0-.68,2.71,5,5,0,0,0,.66,2.71,2,2,0,0,0,3.52,0,4.93,4.93,0,0,0,.67-2.71,5,5,0,0,0-.67-2.72,2,2,0,0,0-1.76-1A2,2,0,0,0,178.94,132.18Z"/><path d="M186.38,137.89a.84.84,0,0,1,.68.29,1.19,1.19,0,0,1,.25.77,3.45,3.45,0,0,1-1.28,2.52l-.48-.42a3.11,3.11,0,0,0,1-1.48h-.14a.85.85,0,0,1-.61-.24.81.81,0,0,1-.24-.6.78.78,0,0,1,.25-.59A.82.82,0,0,1,186.38,137.89Z"/><path d="M191.31,130.14a3,3,0,0,1,2.19.82,2.47,2.47,0,0,1,.78,1.88,3.13,3.13,0,0,1-.58,1.76,13.31,13.31,0,0,1-1.43,1.67l-2.11,2.23h4.12v.94H188.6v-.84l2.77-2.93a13.9,13.9,0,0,0,1.33-1.54,2.24,2.24,0,0,0,.43-1.29,1.71,1.71,0,0,0-.51-1.25,1.77,1.77,0,0,0-1.31-.49,2.88,2.88,0,0,0-2.08.9l-.61-.8A3.86,3.86,0,0,1,191.31,130.14Z"/></g><g class="cls-4"><path d="M239.86,131.48a6.19,6.19,0,0,1,0,6.78,3.09,3.09,0,0,1-5.09,0,6.26,6.26,0,0,1,0-6.79,3.09,3.09,0,0,1,5.09,0Zm-4.28.7a4.84,4.84,0,0,0-.68,2.71,5,5,0,0,0,.66,2.71,2,2,0,0,0,3.52,0,4.93,4.93,0,0,0,.67-2.71,5,5,0,0,0-.67-2.72,2,2,0,0,0-1.76-1A2,2,0,0,0,235.58,132.18Z"/><path d="M243,137.89a.84.84,0,0,1,.68.29,1.19,1.19,0,0,1,.25.77,3.45,3.45,0,0,1-1.28,2.52l-.48-.42a3.11,3.11,0,0,0,1-1.48H243a.85.85,0,0,1-.61-.24.81.81,0,0,1-.24-.6.78.78,0,0,1,.25-.59A.82.82,0,0,1,243,137.89Z"/><path d="M248.07,130.14a3.71,3.71,0,0,1,2.21.6,2,2,0,0,1,.86,1.71,2.09,2.09,0,0,1-1.68,2.09,3.05,3.05,0,0,1,1.44,1,2.54,2.54,0,0,1,.53,1.57,2.14,2.14,0,0,1-1,1.92,4.41,4.41,0,0,1-2.44.61,5,5,0,0,1-2.92-.78l.65-.78a4,4,0,0,0,2.21.6,3,3,0,0,0,1.72-.44,1.47,1.47,0,0,0,.64-1.29,1.65,1.65,0,0,0-.66-1.36,2.43,2.43,0,0,0-1.6-.53h-1v-.94h1a2.47,2.47,0,0,0,1.39-.4,1.28,1.28,0,0,0,.56-1.11,1.25,1.25,0,0,0-.52-1.09,2.75,2.75,0,0,0-1.53-.36,4.43,4.43,0,0,0-1.85.38l-.63-.76A5.4,5.4,0,0,1,248.07,130.14Z"/></g><g class="cls-4"><path d="M296.54,131.48a6.19,6.19,0,0,1,0,6.78,3.09,3.09,0,0,1-5.09,0,6.26,6.26,0,0,1,0-6.79,3.09,3.09,0,0,1,5.09,0Zm-4.29.7a4.93,4.93,0,0,0-.67,2.71,5,5,0,0,0,.66,2.71,2,2,0,0,0,3.52,0,4.93,4.93,0,0,0,.67-2.71,5,5,0,0,0-.67-2.72,2,2,0,0,0-1.76-1A2,2,0,0,0,292.25,132.18Z"/><path d="M299.7,137.89a.84.84,0,0,1,.68.29,1.19,1.19,0,0,1,.25.77,3.45,3.45,0,0,1-1.28,2.52l-.48-.42a3.11,3.11,0,0,0,1-1.48h-.14a.85.85,0,0,1-.61-.24.81.81,0,0,1-.24-.6.78.78,0,0,1,.25-.59A.82.82,0,0,1,299.7,137.89Z"/><path d="M306.51,130.28h.93v5.89h1.13v.9h-1.13v2.37h-1.07v-2.37h-4.45v-.73Zm-.14,1.66-3.22,4.23h3.22Z"/></g><g class="cls-4"><path d="M353.54,131.48a6.19,6.19,0,0,1,0,6.78,3.09,3.09,0,0,1-5.09,0,6.26,6.26,0,0,1,0-6.79,3.09,3.09,0,0,1,5.09,0Zm-4.29.7a4.93,4.93,0,0,0-.67,2.71,5,5,0,0,0,.66,2.71,2,2,0,0,0,3.52,0,4.93,4.93,0,0,0,.67-2.71,5,5,0,0,0-.67-2.72,2,2,0,0,0-1.76-1A2,2,0,0,0,349.25,132.18Z"/><path d="M356.7,137.89a.84.84,0,0,1,.68.29,1.19,1.19,0,0,1,.25.77,3.45,3.45,0,0,1-1.28,2.52l-.48-.42a3.11,3.11,0,0,0,1-1.48h-.14a.85.85,0,0,1-.61-.24.81.81,0,0,1-.24-.6.78.78,0,0,1,.25-.59A.82.82,0,0,1,356.7,137.89Z"/><path d="M359.72,130.28h5.15v.89H360.7l-.33,3.35a2.7,2.7,0,0,1,2.08-1,2.79,2.79,0,0,1,2.07.86,3,3,0,0,1,.84,2.16,2.83,2.83,0,0,1-.92,2.16,3.32,3.32,0,0,1-2.36.85,4,4,0,0,1-3.16-1.47l.68-.81a3,3,0,0,0,2.48,1.32,2.16,2.16,0,0,0,1.55-.57,1.92,1.92,0,0,0,.62-1.48,2,2,0,0,0-.56-1.48,2,2,0,0,0-1.45-.58,1.85,1.85,0,0,0-1.84,1.15l-1.13-.45Z"/></g><g class="cls-4"><path d="M74.44,131.48a6.19,6.19,0,0,1,0,6.78,3.09,3.09,0,0,1-5.09,0,6.26,6.26,0,0,1,0-6.79,3.09,3.09,0,0,1,5.09,0Zm-4.28.7a4.84,4.84,0,0,0-.68,2.71,5,5,0,0,0,.66,2.71,2,2,0,0,0,3.52,0,4.93,4.93,0,0,0,.68-2.71,5,5,0,0,0-.68-2.72,2,2,0,0,0-1.76-1A2,2,0,0,0,70.16,132.18Z"/></g><line class="cls-3" x1="77.56" y1="106.91" x2="77.56" y2="120.55"/><line class="cls-3" x1="83.25" y1="106.91" x2="83.25" y2="120.55"/><line class="cls-3" x1="88.94" y1="106.91" x2="88.94" y2="120.55"/><line class="cls-3" x1="94.63" y1="106.91" x2="94.63" y2="120.55"/><line class="cls-3" x1="100.32" y1="106.91" x2="100.32" y2="123.16"/><line class="cls-3" x1="106.01" y1="106.91" x2="106.01" y2="120.55"/><line class="cls-3" x1="111.7" y1="106.91" x2="111.7" y2="120.55"/><line class="cls-3" x1="117.39" y1="106.91" x2="117.39" y2="120.55"/><line class="cls-3" x1="123.08" y1="106.91" x2="123.08" y2="120.55"/><line class="cls-3" x1="134.46" y1="106.91" x2="134.46" y2="120.55"/><line class="cls-3" x1="140.15" y1="106.91" x2="140.15" y2="120.55"/><line class="cls-3" x1="145.84" y1="106.91" x2="145.84" y2="120.55"/><line class="cls-3" x1="151.54" y1="106.91" x2="151.54" y2="120.55"/><line class="cls-3" x1="157.23" y1="106.91" x2="157.23" y2="123.16"/><line class="cls-3" x1="162.92" y1="106.91" x2="162.92" y2="120.55"/><line class="cls-3" x1="168.61" y1="106.91" x2="168.61" y2="120.55"/><line class="cls-3" x1="174.3" y1="106.91" x2="174.3" y2="120.55"/><line class="cls-3" x1="179.99" y1="106.91" x2="179.99" y2="120.55"/><line class="cls-3" x1="191.37" y1="106.91" x2="191.37" y2="120.55"/><line class="cls-3" x1="197.06" y1="106.91" x2="197.06" y2="120.55"/><line class="cls-3" x1="202.75" y1="106.91" x2="202.75" y2="120.55"/><line class="cls-3" x1="208.44" y1="106.91" x2="208.44" y2="120.55"/><line class="cls-3" x1="214.13" y1="106.91" x2="214.13" y2="123.16"/><line class="cls-3" x1="219.82" y1="106.91" x2="219.82" y2="120.55"/><line class="cls-3" x1="225.51" y1="106.91" x2="225.51" y2="120.55"/><line class="cls-3" x1="231.2" y1="106.91" x2="231.2" y2="120.55"/><line class="cls-3" x1="248.28" y1="106.91" x2="248.28" y2="120.55"/><line class="cls-3" x1="253.97" y1="106.91" x2="253.97" y2="120.55"/><line class="cls-3" x1="259.66" y1="106.91" x2="259.66" y2="120.55"/><line class="cls-3" x1="265.35" y1="106.91" x2="265.35" y2="120.55"/><line class="cls-3" x1="271.04" y1="106.91" x2="271.04" y2="123.16"/><line class="cls-3" x1="276.73" y1="106.91" x2="276.73" y2="120.55"/><line class="cls-3" x1="282.42" y1="106.91" x2="282.42" y2="120.55"/><line class="cls-3" x1="288.11" y1="106.91" x2="288.11" y2="120.55"/><line class="cls-3" x1="293.8" y1="106.91" x2="293.8" y2="120.55"/><line class="cls-3" x1="305.18" y1="106.91" x2="305.18" y2="120.55"/><line class="cls-3" x1="310.87" y1="106.91" x2="310.87" y2="120.55"/><line class="cls-3" x1="316.56" y1="106.91" x2="316.56" y2="120.55"/><line class="cls-3" x1="322.25" y1="106.91" x2="322.25" y2="120.55"/><line class="cls-3" x1="327.95" y1="106.91" x2="327.95" y2="123.16"/><line class="cls-3" x1="333.64" y1="106.91" x2="333.64" y2="120.55"/><line class="cls-3" x1="339.33" y1="106.91" x2="339.33" y2="120.55"/><line class="cls-3" x1="345.02" y1="106.91" x2="345.02" y2="120.55"/><line class="cls-3" x1="350.71" y1="106.91" x2="350.71" y2="120.55"/><line class="cls-3" x1="362.09" y1="106.91" x2="362.09" y2="120.55"/><line class="cls-3" x1="367.78" y1="106.91" x2="367.78" y2="120.55"/><line class="cls-3" x1="373.47" y1="106.91" x2="373.47" y2="120.55"/><line class="cls-3" x1="379.16" y1="106.91" x2="379.16" y2="120.55"/><line class="cls-5" x1="384.85" y1="105.63" x2="384.85" y2="123.16"/><line class="cls-3" x1="390.54" y1="106.91" x2="390.54" y2="120.55"/><line class="cls-3" x1="396.23" y1="106.91" x2="396.23" y2="120.55"/><line class="cls-3" x1="236.9" y1="106.91" x2="236.9" y2="120.55"/><path class="cls-6" d="M34.19,60.58s-1.69,11.66-10.65,14-14.47-1-14.47-1-.91-.88-2,1.11c0,0,7.71,4.61,19,2.88,11-2.62,13-15.91,13-15.91Z"/><path class="cls-6" d="M45.43,61.92s9.19,9.54,13.46,15.64a182.8,182.8,0,0,1,9.54,16.2s.79,1.35,2.18-.26l-1-1.53.09-.52S56.33,60.61,51.62,60.26Z"/><path class="cls-7" d="M36.26,44.58s-3.53,5.73-1.43,9.82a57.62,57.62,0,0,1-2.25,5.67s-.67,1,2.44,3.11a15,15,0,0,0,6.41,2.42s.13.11.26-.31.91-2.09.91-2.09a41.64,41.64,0,0,1,3.64,3.51.43.43,0,0,0,.55.29.38.38,0,0,0,.21-.14s7.19-4.82,7.5-6.52a.15.15,0,0,0,0-.16l-7.75-7.37s1.22-4.75.65-6.92Z"/><path class="cls-8" d="M34.83,54.4a57.62,57.62,0,0,1-2.25,5.67s-.67,1,2.44,3.11a15,15,0,0,0,6.41,2.42s.13.11.26-.31.91-2.09.91-2.09Z"/><path class="cls-9" d="M44.62,48.7a7.28,7.28,0,0,0,2.08,4.11,18.3,18.3,0,0,0,.64-4.6Z"/><path class="cls-10" d="M36.64,27.36s1.7,1.86,1.75-.25-2.15-6.26-2.15-6.26Z"/><path class="cls-6" d="M46.25,26S52.1,38.5,56.64,39,64,34,64,34s-3.13-4.87-1.36-6.61c.68-.5,1.31,1.84,1.61,3.27,0,0,.2.38.79-.46.42-.6,1.13-1.81,1.58-2.62a5.48,5.48,0,0,0,.48-1.11c.11-.31.32-.64.75-.35.7.49.36,3.09-.41,3.39,0,0,2.15-.64.93,1.61,0,0,3.13.13,1.42,1.62s-3,2.08-4.43,1.86c0,0-2.89,8.24-9.19,7.36S45.8,34,45.8,34Z"/><path class="cls-11" d="M66.68,30.1a4.26,4.26,0,0,0-.49.34,4.16,4.16,0,0,0-.42.42,1.32,1.32,0,0,0-.25.52.66.66,0,0,0,0,.28.79.79,0,0,0,.1.27h0a.93.93,0,0,0,.25.27,1.41,1.41,0,0,0,.32.17,1.52,1.52,0,0,0,.73.06H67v.11a3.4,3.4,0,0,0-.25.67,1.34,1.34,0,0,0,0,.69.42.42,0,0,0,.24.23,1,1,0,0,0,.34.08,2.17,2.17,0,0,0,.72,0,2.25,2.25,0,0,1-.73.09.94.94,0,0,1-.36-.08.47.47,0,0,1-.29-.26,1.37,1.37,0,0,1,0-.75,4.45,4.45,0,0,1,.24-.7l.07.09a1.34,1.34,0,0,1-.4,0,1.36,1.36,0,0,1-.39-.08.94.94,0,0,1-.35-.2A1.28,1.28,0,0,1,65.6,32h0a1,1,0,0,1-.11-.3.91.91,0,0,1,0-.33,1.33,1.33,0,0,1,.29-.55,2.52,2.52,0,0,1,.45-.41A3.79,3.79,0,0,1,66.68,30.1Z"/><path class="cls-11" d="M65.18,31a2.21,2.21,0,0,1,.47,1.06,1.47,1.47,0,0,1,0,.59,1.24,1.24,0,0,1-.25.53,2,2,0,0,0,.15-.55,2.53,2.53,0,0,0,0-.55,2.74,2.74,0,0,0-.13-.55C65.33,31.37,65.26,31.2,65.18,31Z"/><path class="cls-12" d="M36.24,20.85l.49,8s3,2.88.23,12.06l-2.57,4.48s2.11,3.56,13.27,4c0,0,1.62-3.37,1.15-10.13A121.09,121.09,0,0,0,46.1,23.12S37,20.74,36.24,20.85Z"/><path class="cls-13" d="M30.14,13.61s7.8,4.72,10.72.45a26.66,26.66,0,0,1,6.25-6.51S48.66,2.22,42.73.17c-2.24-.72-5.16.94-6.92,2.29s-7.13.21-7.13.21a5.34,5.34,0,0,0,1.7,4.21L27.83,9s.61,1.92,5.19,2.7Z"/><path class="cls-14" d="M30.14,13.61s5.13,3.09,8.62,2c2.48-.76,8.44-8.77,8.44-8.77s-.34-3.79-3.38-3.7c-1.59-.09-6.55,3.68-6.55,3.68s-3.8,3-8.54-3.19a4.82,4.82,0,0,0,1.65,3.23L27.83,9s.34,1.79,5.19,2.7Z"/><path class="cls-6" d="M46.39,5s5.51,12.43,4.4,13.15A25.76,25.76,0,0,1,44,20.07s-.62,1.79-.13,2.49l.54.36s.11,2.11-.73,1.88-3.55-2.61-3.6-3.12c0,0,1.57-.49,1.47-1.57a9,9,0,0,1-1.47-4.54,3.89,3.89,0,0,1-1.62.54,2.48,2.48,0,0,1-2.33-2.62c0-.1,0-.2,0-.31.16-2.28,2-1.74,2-1.74s1.15.41,1.11.74a13.81,13.81,0,0,0-.29-4s1.67-.84,1.83-1.69S43.54,5,44.15,5Z"/><path class="cls-15" d="M47.2,6.86A4.38,4.38,0,0,0,46,4c-1.3-1.43-3.49-.28-4.92,2.06a5.11,5.11,0,0,1-3,2.45A8.22,8.22,0,0,1,35.34,9,6.3,6.3,0,0,1,32,8.37a5.88,5.88,0,0,0,4,.87,6.9,6.9,0,0,0,4.84-2.58c.08-.12.14-.26.21-.39s.85-1,5.22-1.2Z"/><ellipse class="cls-16" cx="43.41" cy="10.47" rx="0.65" ry="1.06" transform="translate(-1.24 10.99) rotate(-14.23)"/><ellipse class="cls-16" cx="47.08" cy="9.54" rx="0.6" ry="1.06" transform="translate(-0.9 11.86) rotate(-14.23)"/><path class="cls-17" d="M43.07,6.92a2.68,2.68,0,0,0-1.52,1S42,6.68,43,6.71C43.21,6.78,43.07,6.92,43.07,6.92Z"/><path class="cls-17" d="M45.35,6.43A2.25,2.25,0,0,1,47,6.56s-.92-.82-1.64-.36C45.17,6.37,45.35,6.43,45.35,6.43Z"/><path class="cls-18" d="M46.3,11.08a.67.67,0,0,0,.34.38.3.3,0,0,0,.23,0l.25-.08.29-.07a.91.91,0,0,1,.33,0,.55.55,0,0,1,.26.24c0,.1.08.19.11.29a1.51,1.51,0,0,1,0,.6.86.86,0,0,1-.32.54l-.13.07-.15,0h-.58L46.66,13h.55a.71.71,0,0,0,.46-.17.72.72,0,0,0,.2-.42,1.4,1.4,0,0,0,0-.5.49.49,0,0,0-.2-.36,1.29,1.29,0,0,0-.48,0h-.28a.49.49,0,0,1-.31-.07A.66.66,0,0,1,46.3,11.08Z"/><path class="cls-18" d="M37.1,13.34a1.3,1.3,0,0,1,.27-.52,1.24,1.24,0,0,1,.5-.34h.62a1.07,1.07,0,0,1,.25.16,1.3,1.3,0,0,1,.19.22l-.26-.11h-.25a.94.94,0,0,0-.47,0,1.7,1.7,0,0,0-.44.24Z"/><path class="cls-19" d="M42,13.34s6.24,1.55,6.51,1.45c0,0-1.46,4-3.88,3.45S41.8,13.75,42,13.34Z"/><path class="cls-20" d="M42.34,15.82a3.78,3.78,0,0,0,2.24,2.42,1.72,1.72,0,0,0,1.4-.16S45.65,15.64,42.34,15.82Z"/><path class="cls-6" d="M36.68,21.74a27.78,27.78,0,0,1,1.62,4.47s-8.71,3.06-10.18,8.93.06,8,3.56,12.17c0,0,1.84-4.25,3.56-3.4l-.85,1.48.27.33-.63.63,2.29.83s1.08.33.41,1.06c-.51.56-.93.54-1.1.49a1.19,1.19,0,0,0-.3-.06l-2-.31.62.94a1.93,1.93,0,0,1,.24.53c.11.48.06,1.19-1.43,1.06a3.56,3.56,0,0,1,.6.8.58.58,0,0,1-.26.77l-.15,0a3.51,3.51,0,0,1-1.51-.11,11.76,11.76,0,0,1-1.17-.71,1.2,1.2,0,0,1-.51-1.35,1.08,1.08,0,0,1,1.14-.71s-.42-1-.29-1.25c0,0-8.92-5.55-6.1-13.9C27.27,26.37,36.68,21.74,36.68,21.74Z"/><path class="cls-11" d="M31.14,49.68a8.24,8.24,0,0,1,.85.55q.4.32.78.66a5.87,5.87,0,0,1-.85-.55A4.87,4.87,0,0,1,31.14,49.68Z"/><path class="cls-21" d="M9.18,73.64S7.34,71,6.66,70.85,3.55,72,3.35,74.53a10.68,10.68,0,0,0-3.24,9.3s2.61,1.11,3.33.67a25.72,25.72,0,0,1,.15-3.72S6.47,77,7.4,77l1.31.24s.35.2.47-.26.23-1.24.23-1.24l-2.3-1.08S7.85,73,9.18,73.64Z"/><path class="cls-21" d="M68.32,93.55s-.9.74,0,2.08a34.31,34.31,0,0,1,2.43,4.19c.1.39,3.27-1.21,4.09-3.4,0,0,5.29-2.06,7.12-6.77a3,3,0,0,0-2.84-1.53c-.79,0-2.09,2.78-2.49,2.84s-2.9,1.05-4.37.92l-.17-1.57s-.52-1.18-1.76-.13-.19,3.18.28,3.32S68.5,94.89,68.32,93.55Z"/><circle class="cls-22" cx="385.8" cy="93.73" r="9.94"/><path class="cls-23" d="M385.8,104a10.26,10.26,0,1,1,7.26-3A10.26,10.26,0,0,1,385.8,104Zm0-19.89a9.63,9.63,0,1,0,9.63,9.63,9.63,9.63,0,0,0-9.63-9.63h0Z"/><path class="cls-23" d="M382.42,84.55l2.29,1.39,4.56-.32V84.55A10,10,0,0,0,382.42,84.55Z"/><path class="cls-23" d="M383.56,89.34a15.19,15.19,0,0,0-3.39,1.71l-.32.54a16.14,16.14,0,0,0,.35,3.61l.41.57,3.59.7.47-.41,1.62-3.14.1-.63a28.17,28.17,0,0,0-2.32-2.57Z"/><path class="cls-23" d="M379,86.64l-1.08,3-.38.58-1.3,2A7.31,7.31,0,0,1,379,86.64Z"/><path class="cls-23" d="M390.73,92.41a34.59,34.59,0,0,1,1.78,3c.06,0,.6.19.6.19s1.9-.85,1.94-1.11c0,.19,0-3.11-.73-4.53a7.38,7.38,0,0,0-2.1-1l-.54.32-1,2.63Z"/><path class="cls-23" d="M376.33,96.09s1.59,1.81,2.06,1.84l.48.57,1.65,2.52-.79.47S376,98.66,376.33,96.09Z"/><path class="cls-23" d="M386.29,100l-1.3,1.77-.09.61,2,.85a5.71,5.71,0,0,0,4.38-1.62,11.76,11.76,0,0,0-.38-1.93l-.54-.35a14.36,14.36,0,0,1-3.52.35Z"/><rect class="cls-23" x="378.41" y="88.93" width="0.64" height="3.3" transform="translate(110.92 373.28) rotate(-60)"/><rect class="cls-23" x="382.34" y="87.44" width="4.16" height="0.64" transform="translate(182.99 426.74) rotate(-72.14)"/><rect class="cls-23" x="389.97" y="84.73" width="0.64" height="5.08" transform="translate(42.68 285.03) rotate(-42.24)"/><rect class="cls-23" x="385.93" y="92.07" width="5.08" height="0.64" transform="translate(-6.82 35.93) rotate(-5.25)"/><rect class="cls-23" x="386.01" y="93.99" width="0.64" height="5.1" transform="translate(3.27 205.34) rotate(-29.89)"/><rect class="cls-23" x="377.31" y="96.03" width="5.08" height="0.64" transform="translate(96.38 366.93) rotate(-57.9)"/><rect class="cls-23" x="389.16" y="97.16" width="5.08" height="0.64" transform="translate(121.06 396.95) rotate(-61.87)"/><rect class="cls-23" x="393.9" y="89.55" width="1.18" height="0.64" transform="translate(79.96 344.36) rotate(-51.81)"/><rect class="cls-23" x="394.87" y="93.99" width="0.64" height="1.18" transform="translate(137.27 408.58) rotate(-64.06)"/><rect class="cls-23" x="382.09" y="99.07" width="0.64" height="5.25" transform="translate(213.48 459.52) rotate(-79.62)"/><rect class="cls-24" x="70.93" y="100.44" width="1.73" height="25.94"/></g></g></svg>