<svg xmlns="http://www.w3.org/2000/svg" viewBox="0 0 393.2 147.88"><defs><style>.cls-1{fill:#baff78;}.cls-2{fill:#83ff00;}.cls-3,.cls-7{isolation:isolate;}.cls-4{fill:#f30;}.cls-5{fill:#f2d5c7;}.cls-6{fill:#6b99bd;}.cls-7{opacity:0.5;}.cls-8{fill:#427b99;}.cls-9{fill:#428e80;}.cls-10{fill:#b55930;}.cls-11{fill:#e0e0e0;}.cls-12{fill:#c9934b;}.cls-13{fill:#896029;}.cls-14{fill:#513513;}.cls-15{fill:#3f3f3f;}.cls-16{fill:#cfaa13;}.cls-17{fill:#c36a3e;}.cls-18{fill:#8e1d21;}.cls-19{fill:#d75f5e;}.cls-20{fill:#3a3a3a;}.cls-21{fill:#fff;}.cls-22{fill:#444;}</style></defs><title>zoom5_1</title><g id="Layer_2" data-name="Layer 2"><g id="Layer_1-2" data-name="Layer 1"><path class="cls-1" d="M55.87,99H388.54c.34,0,.62.46.62,1V145.9c0,.56-.28,1-.62,1H55.87c-.35,0-.62-.46-.62-1V100.06C55.25,99.5,55.52,99,55.87,99Z"/><path class="cls-2" d="M389.16,145.9H56.3V100H389.53V98H56.3a2,2,0,0,0-2,2v45.84a2,2,0,0,0,2,2H389.16Z"/><rect x="65.62" y="98.04" width="0.5" height="17.18"/><rect x="117.78" y="98.04" width="0.5" height="17.18"/><rect x="169.95" y="98.04" width="0.5" height="17.18"/><rect x="222.11" y="98.04" width="0.5" height="17.18"/><rect x="274.28" y="98.04" width="0.5" height="17.18"/><rect x="326.44" y="98.04" width="0.5" height="17.18"/><rect x="378.6" y="98.04" width="0.5" height="17.18"/><g class="cls-3"><path d="M116.86,120.55a5,5,0,0,1,.93,3.1,5.11,5.11,0,0,1-.92,3.12,2.83,2.83,0,0,1-4.67,0,5.73,5.73,0,0,1,0-6.23,2.83,2.83,0,0,1,2.34-1.23A2.79,2.79,0,0,1,116.86,120.55Zm-3.92.64a4.45,4.45,0,0,0-.62,2.48,4.55,4.55,0,0,0,.61,2.49,1.85,1.85,0,0,0,1.6,1,1.88,1.88,0,0,0,1.62-1,4.55,4.55,0,0,0,.62-2.49,4.59,4.59,0,0,0-.62-2.49,1.87,1.87,0,0,0-1.62-1A1.81,1.81,0,0,0,112.94,121.19Z"/><path d="M119.77,126.42a.76.76,0,0,1,.61.27,1,1,0,0,1,.23.7,3.2,3.2,0,0,1-1.16,2.32l-.45-.39a2.75,2.75,0,0,0,.88-1.36h-.12a.8.8,0,0,1-.56-.22.77.77,0,0,1-.23-.56.74.74,0,0,1,.23-.54A.81.81,0,0,1,119.77,126.42Z"/><path d="M123.77,119.45h.83v8.4h-1v-7.39l-1.45.76-.37-.72Z"/></g><g class="cls-3"><path d="M167.93,120.55a5,5,0,0,1,.93,3.1,5.11,5.11,0,0,1-.92,3.12,2.83,2.83,0,0,1-4.67,0,5.73,5.73,0,0,1,0-6.23,2.83,2.83,0,0,1,2.34-1.23A2.79,2.79,0,0,1,167.93,120.55Zm-3.92.64a4.45,4.45,0,0,0-.62,2.48,4.55,4.55,0,0,0,.61,2.49,1.85,1.85,0,0,0,1.6,1,1.88,1.88,0,0,0,1.62-1,4.55,4.55,0,0,0,.62-2.49,4.59,4.59,0,0,0-.62-2.49,1.87,1.87,0,0,0-1.62-1A1.81,1.81,0,0,0,164,121.19Z"/><path d="M170.84,126.42a.76.76,0,0,1,.61.27,1,1,0,0,1,.23.7,3.2,3.2,0,0,1-1.16,2.32l-.45-.39A2.75,2.75,0,0,0,171,128h-.13a.8.8,0,0,1-.55-.22.77.77,0,0,1-.23-.56.74.74,0,0,1,.23-.54A.81.81,0,0,1,170.84,126.42Z"/><path d="M175.35,119.31a2.82,2.82,0,0,1,2,.76,2.25,2.25,0,0,1,.71,1.73,3,3,0,0,1-.52,1.61,12.93,12.93,0,0,1-1.32,1.53l-1.93,2h3.77v.86h-5.2v-.77l2.54-2.69a13,13,0,0,0,1.22-1.41,2.12,2.12,0,0,0,.4-1.18,1.53,1.53,0,0,0-.48-1.15,1.62,1.62,0,0,0-1.2-.45,2.62,2.62,0,0,0-1.9.82l-.56-.73A3.54,3.54,0,0,1,175.35,119.31Z"/></g><g class="cls-3"><path d="M219.86,120.55a5,5,0,0,1,.93,3.1,5.11,5.11,0,0,1-.92,3.12,2.83,2.83,0,0,1-4.67,0,5.73,5.73,0,0,1,0-6.23,2.83,2.83,0,0,1,2.34-1.23A2.79,2.79,0,0,1,219.86,120.55Zm-3.92.64a4.45,4.45,0,0,0-.62,2.48,4.55,4.55,0,0,0,.61,2.49,1.85,1.85,0,0,0,1.6,1,1.88,1.88,0,0,0,1.62-1,4.55,4.55,0,0,0,.62-2.49,4.59,4.59,0,0,0-.62-2.49,1.87,1.87,0,0,0-1.62-1A1.81,1.81,0,0,0,215.94,121.19Z"/><path d="M222.77,126.42a.76.76,0,0,1,.61.27,1,1,0,0,1,.23.7,3.2,3.2,0,0,1-1.16,2.32l-.45-.39a2.75,2.75,0,0,0,.88-1.36h-.12a.8.8,0,0,1-.56-.22.77.77,0,0,1-.23-.56.74.74,0,0,1,.23-.54A.81.81,0,0,1,222.77,126.42Z"/><path d="M227.39,119.31a3.39,3.39,0,0,1,2,.56,1.82,1.82,0,0,1,.79,1.57,1.91,1.91,0,0,1-1.54,1.91,2.84,2.84,0,0,1,1.32.89,2.31,2.31,0,0,1,.48,1.44,2,2,0,0,1-.87,1.75,4,4,0,0,1-2.24.57,4.59,4.59,0,0,1-2.68-.72l.59-.72a3.67,3.67,0,0,0,2,.55,2.84,2.84,0,0,0,1.58-.4,1.37,1.37,0,0,0,.59-1.18,1.53,1.53,0,0,0-.61-1.25,2.23,2.23,0,0,0-1.47-.49h-1v-.86h1a2.19,2.19,0,0,0,1.28-.37,1.27,1.27,0,0,0,0-2,2.48,2.48,0,0,0-1.4-.33,4.1,4.1,0,0,0-1.7.35l-.57-.7A4.9,4.9,0,0,1,227.39,119.31Z"/></g><g class="cls-3"><path d="M271.82,120.55a5,5,0,0,1,.92,3.1,5.11,5.11,0,0,1-.92,3.12,2.83,2.83,0,0,1-4.67,0,5.73,5.73,0,0,1,0-6.23,2.82,2.82,0,0,1,4.67,0Zm-3.93.64a4.45,4.45,0,0,0-.62,2.48,4.55,4.55,0,0,0,.61,2.49,1.85,1.85,0,0,0,1.6,1,1.88,1.88,0,0,0,1.62-1,4.55,4.55,0,0,0,.62-2.49,4.59,4.59,0,0,0-.62-2.49,1.87,1.87,0,0,0-1.62-1A1.81,1.81,0,0,0,267.89,121.19Z"/><path d="M274.72,126.42a.76.76,0,0,1,.61.27,1,1,0,0,1,.23.7,3.2,3.2,0,0,1-1.16,2.32l-.45-.39a2.75,2.75,0,0,0,.88-1.36h-.12a.8.8,0,0,1-.56-.22.77.77,0,0,1-.23-.56.74.74,0,0,1,.23-.54A.81.81,0,0,1,274.72,126.42Z"/><path d="M281,119.45h.85v5.4h1v.83h-1v2.17h-1v-2.17h-4.08V125Zm-.13,1.52-3,3.88h3Z"/></g><g class="cls-3"><path d="M324.08,120.55a5,5,0,0,1,.92,3.1,5.11,5.11,0,0,1-.92,3.12,2.83,2.83,0,0,1-4.67,0,5.73,5.73,0,0,1,0-6.23,2.82,2.82,0,0,1,4.67,0Zm-3.93.64a4.45,4.45,0,0,0-.62,2.48,4.55,4.55,0,0,0,.61,2.49,1.85,1.85,0,0,0,1.6,1,1.88,1.88,0,0,0,1.62-1,4.55,4.55,0,0,0,.62-2.49,4.59,4.59,0,0,0-.62-2.49,1.87,1.87,0,0,0-1.62-1A1.81,1.81,0,0,0,320.15,121.19Z"/><path d="M327,126.42a.76.76,0,0,1,.61.27,1,1,0,0,1,.23.7,3.2,3.2,0,0,1-1.16,2.32l-.45-.39a2.75,2.75,0,0,0,.88-1.36H327a.8.8,0,0,1-.56-.22.77.77,0,0,1-.23-.56.74.74,0,0,1,.23-.54A.81.81,0,0,1,327,126.42Z"/><path d="M329.74,119.45h4.72v.81h-3.82l-.3,3.07a2.45,2.45,0,0,1,1.91-.86,2.51,2.51,0,0,1,1.89.79,2.67,2.67,0,0,1,.77,2,2.62,2.62,0,0,1-.84,2,3,3,0,0,1-2.16.78,3.66,3.66,0,0,1-2.9-1.36l.62-.73a2.77,2.77,0,0,0,2.28,1.2,2,2,0,0,0,1.42-.52,1.79,1.79,0,0,0,.57-1.36,1.83,1.83,0,0,0-.52-1.36,1.79,1.79,0,0,0-1.33-.52,1.68,1.68,0,0,0-1.68,1.05l-1-.41Z"/></g><g class="cls-3"><path d="M376.11,120.55a5,5,0,0,1,.93,3.1,5.11,5.11,0,0,1-.92,3.12,2.83,2.83,0,0,1-4.67,0,5.73,5.73,0,0,1,0-6.23,2.83,2.83,0,0,1,2.34-1.23A2.79,2.79,0,0,1,376.11,120.55Zm-3.92.64a4.45,4.45,0,0,0-.62,2.48,4.55,4.55,0,0,0,.61,2.49,1.85,1.85,0,0,0,1.6,1,1.88,1.88,0,0,0,1.62-1,4.55,4.55,0,0,0,.62-2.49,4.59,4.59,0,0,0-.62-2.49,1.87,1.87,0,0,0-1.62-1A1.81,1.81,0,0,0,372.19,121.19Z"/><path d="M379,126.42a.76.76,0,0,1,.61.27,1,1,0,0,1,.23.7,3.2,3.2,0,0,1-1.16,2.32l-.45-.39a2.75,2.75,0,0,0,.88-1.36H379a.8.8,0,0,1-.56-.22.77.77,0,0,1-.23-.56.74.74,0,0,1,.23-.54A.81.81,0,0,1,379,126.42Z"/><path d="M384.38,119.31a3.14,3.14,0,0,1,1.82.57,4.14,4.14,0,0,1,.56.48l-.58.78a6,6,0,0,0-.62-.57,1.94,1.94,0,0,0-1.18-.36,1.9,1.9,0,0,0-1.49.7,4.52,4.52,0,0,0-.83,2.89,2.65,2.65,0,0,1,2.28-1.33,2.87,2.87,0,0,1,2,.75,2.6,2.6,0,0,1,.87,2,2.65,2.65,0,0,1-.83,2,2.94,2.94,0,0,1-2.05.73,2.89,2.89,0,0,1-2.26-.94,4.83,4.83,0,0,1-1-3.31,5.06,5.06,0,0,1,1-3.39A3,3,0,0,1,384.38,119.31Zm-1.53,4.61a1.74,1.74,0,0,0-.56,1.32,1.77,1.77,0,0,0,.56,1.32,2,2,0,0,0,2.75,0,1.85,1.85,0,0,0,0-2.65,1.9,1.9,0,0,0-1.37-.56A1.88,1.88,0,0,0,382.85,123.92Z"/></g><g class="cls-3"><path d="M68.22,120.55a5,5,0,0,1,.93,3.1,5.11,5.11,0,0,1-.92,3.12,2.83,2.83,0,0,1-4.67,0,5.73,5.73,0,0,1,0-6.23,2.83,2.83,0,0,1,2.34-1.23A2.79,2.79,0,0,1,68.22,120.55Zm-3.92.64a4.45,4.45,0,0,0-.62,2.48,4.55,4.55,0,0,0,.61,2.49,1.85,1.85,0,0,0,1.6,1,1.88,1.88,0,0,0,1.62-1,4.55,4.55,0,0,0,.62-2.49,4.59,4.59,0,0,0-.62-2.49,1.87,1.87,0,0,0-1.62-1A1.81,1.81,0,0,0,64.3,121.19Z"/></g><rect x="70.84" y="98.04" width="0.5" height="12.5"/><rect x="76.05" y="98.04" width="0.5" height="12.5"/><rect x="81.27" y="98.04" width="0.5" height="12.5"/><rect x="86.48" y="98.04" width="0.5" height="12.5"/><rect x="91.7" y="98.04" width="0.5" height="14.89"/><rect x="96.92" y="98.04" width="0.5" height="12.5"/><rect x="102.13" y="98.04" width="0.5" height="12.5"/><rect x="107.35" y="98.04" width="0.5" height="12.5"/><rect x="112.57" y="98.04" width="0.5" height="12.5"/><rect x="123" y="98.04" width="0.5" height="12.5"/><rect x="128.22" y="98.04" width="0.5" height="12.5"/><rect x="133.43" y="98.04" width="0.5" height="12.5"/><rect x="138.65" y="98.04" width="0.5" height="12.5"/><rect x="143.87" y="98.04" width="0.5" height="14.89"/><rect x="149.08" y="98.04" width="0.5" height="12.5"/><rect x="154.3" y="98.04" width="0.5" height="12.5"/><rect x="159.51" y="98.04" width="0.5" height="12.5"/><rect x="164.73" y="98.04" width="0.5" height="12.5"/><rect x="175.16" y="98.04" width="0.5" height="12.5"/><rect x="180.38" y="98.04" width="0.5" height="12.5"/><rect x="185.6" y="98.04" width="0.5" height="12.5"/><rect x="190.81" y="98.04" width="0.5" height="12.5"/><rect x="196.03" y="98.04" width="0.5" height="14.89"/><rect x="201.25" y="98.04" width="0.5" height="12.5"/><rect x="206.46" y="98.04" width="0.5" height="12.5"/><rect x="211.68" y="98.04" width="0.5" height="12.5"/><rect x="227.33" y="98.04" width="0.5" height="12.5"/><rect x="232.54" y="98.04" width="0.5" height="12.5"/><rect x="237.76" y="98.04" width="0.5" height="12.5"/><rect x="242.98" y="98.04" width="0.5" height="12.5"/><rect x="248.19" y="98.04" width="0.5" height="14.89"/><rect x="253.41" y="98.04" width="0.5" height="12.5"/><rect x="258.63" y="98.04" width="0.5" height="12.5"/><rect x="263.84" y="98.04" width="0.5" height="12.5"/><rect x="269.06" y="98.04" width="0.5" height="12.5"/><rect x="279.49" y="98.04" width="0.5" height="12.5"/><rect x="284.71" y="98.04" width="0.5" height="12.5"/><rect x="289.93" y="98.04" width="0.5" height="12.5"/><rect x="295.14" y="98.04" width="0.5" height="12.5"/><rect x="300.36" y="98.04" width="0.5" height="14.89"/><rect x="305.57" y="98.04" width="0.5" height="12.5"/><rect x="310.79" y="98.04" width="0.5" height="12.5"/><rect x="316.01" y="98.04" width="0.5" height="12.5"/><rect x="321.22" y="98.04" width="0.5" height="12.5"/><rect x="331.66" y="98.04" width="0.5" height="12.5"/><rect x="336.87" y="98.04" width="0.5" height="12.5"/><rect x="342.09" y="98.04" width="0.5" height="12.5"/><rect x="347.31" y="98.04" width="0.5" height="12.5"/><rect x="357.74" y="98.04" width="0.5" height="12.5"/><rect x="362.96" y="98.04" width="0.5" height="12.5"/><rect x="368.17" y="98.04" width="0.5" height="12.5"/><rect x="373.39" y="98.04" width="0.5" height="12.5"/><rect class="cls-4" x="383.57" y="96.45" width="1" height="14.09"/><rect x="389.04" y="98.04" width="0.5" height="12.5"/><rect x="216.9" y="98.04" width="0.5" height="12.5"/><rect x="352.52" y="98.04" width="0.5" height="14.89"/><path class="cls-5" d="M31.34,55.57s-1.56,10.69-9.77,12.79-13.26-.87-13.26-.87-.84-.81-1.8,1a28,28,0,0,0,17.43,2.63c10.06-2.39,12-14.58,12-14.58Z"/><path class="cls-5" d="M41.64,56.8S50.06,65.54,54,71.13A170,170,0,0,1,62.75,86s.72,1.23,2-.24l-.88-1.4.08-.48S51.66,55.64,47.35,55.28Z"/><path class="cls-6" d="M33.23,40.9s-3.23,5.25-1.31,9c-.6,1.76-1.29,3.5-2.06,5.19,0,0-.62.9,2.23,2.85A13.61,13.61,0,0,0,38,60.17s.12.1.24-.28.84-1.92.84-1.92a37.6,37.6,0,0,1,3.34,3.22.41.41,0,0,0,.51.26.35.35,0,0,0,.19-.12s6.58-4.42,6.87-6a.2.2,0,0,0,0-.15l-7.11-6.75s1.11-4.35.6-6.35Z"/><g class="cls-7"><path class="cls-8" d="M31.92,49.91c-.6,1.76-1.29,3.5-2.06,5.19,0,0-.62.9,2.23,2.85A13.6,13.6,0,0,0,38,60.17s.12.1.24-.28.84-1.92.84-1.92Z"/></g><path class="cls-8" d="M40.89,44.64a6.67,6.67,0,0,0,1.91,3.77,17.18,17.18,0,0,0,.59-4.22Z"/><path class="cls-9" d="M33.58,25.12s1.56,1.71,1.6-.23-2-5.74-2-5.74Z"/><path class="cls-5" d="M42.39,23.91s5.36,11.44,9.52,12,6.77-4.55,6.77-4.55-2.88-4.47-1.25-6.06c.62-.46,1.2,1.69,1.48,3,0,0,.18.35.72-.41.39-.56,1-1.67,1.45-2.41a6.89,6.89,0,0,0,.44-1c.09-.29.29-.6.68-.33.65.45.33,2.84-.37,3.11,0,0,2-.58.85,1.47,0,0,2.87.12,1.3,1.49s-2.8,1.91-4,1.71c0,0-2.66,7.55-8.43,6.75S42,31.29,42,31.29Z"/><path class="cls-10" d="M61.11,27.64a3.58,3.58,0,0,0-.45.31,2.79,2.79,0,0,0-.38.39,1,1,0,0,0-.23.48,1,1,0,0,0,0,.25,1.06,1.06,0,0,0,.09.25h0a1,1,0,0,0,.23.24,1.08,1.08,0,0,0,.3.16,1.14,1.14,0,0,0,.33.07,1.82,1.82,0,0,0,.33,0h.11v.1a2.64,2.64,0,0,0-.23.61,1.13,1.13,0,0,0,0,.63.38.38,0,0,0,.22.21.79.79,0,0,0,.31.08,2.43,2.43,0,0,0,.66,0,2.13,2.13,0,0,1-.66.08.77.77,0,0,1-.34-.07.42.42,0,0,1-.26-.23,1,1,0,0,1,0-.69,3,3,0,0,1,.22-.64l.07.08a2.28,2.28,0,0,1-.37,0,1.35,1.35,0,0,1-.36-.08.92.92,0,0,1-.32-.18,1.33,1.33,0,0,1-.26-.27h0a.94.94,0,0,1-.1-.28.71.71,0,0,1,0-.29,1.13,1.13,0,0,1,.26-.51A2.14,2.14,0,0,1,60.7,28,2.69,2.69,0,0,1,61.11,27.64Z"/><path class="cls-10" d="M59.74,28.47a2,2,0,0,1,.43,1,1.63,1.63,0,0,1,0,.54,1.45,1.45,0,0,1-.22.49,2.83,2.83,0,0,0,.13-.5,2.18,2.18,0,0,0,0-.51A2.15,2.15,0,0,0,60,29C59.89,28.81,59.82,28.64,59.74,28.47Z"/><path class="cls-11" d="M33.21,19.15l.45,7.34s2.73,2.63.22,11.05l-2.36,4.1s1.93,3.27,12.16,3.72c0,0,1.48-3.09,1.06-9.29a112.19,112.19,0,0,0-2.49-14.79S33.89,19.05,33.21,19.15Z"/><path class="cls-12" d="M27.62,12.51s7.15,4.33,9.83.42a24,24,0,0,1,5.73-6S44.59,2,39.18.16c-2-.66-4.73.86-6.35,2.1s-6.53.2-6.53.2a4.88,4.88,0,0,0,1.56,3.85l-2.33,2s.56,1.76,4.75,2.47Z"/><path class="cls-13" d="M27.62,12.51s4.7,2.84,7.9,1.86c2.27-.7,7.74-8,7.74-8S43,2.89,40.16,3c-1.46-.09-6,3.37-6,3.37s-3.47,2.74-7.83-2.93a4.38,4.38,0,0,0,1.52,3l-2.33,2s.3,1.64,4.75,2.47Z"/><path class="cls-5" d="M42.52,4.64s5,11.4,4,12.05a23.8,23.8,0,0,1-6.17,1.77s-.57,1.65-.12,2.29l.49.33s.11,1.93-.66,1.72-3.26-2.39-3.3-2.86c0,0,1.43-.45,1.34-1.43a8.05,8.05,0,0,1-1.34-4.17,3.81,3.81,0,0,1-1.49.5,2.29,2.29,0,0,1-2.14-2.42,2.51,2.51,0,0,1,0-.27c.15-2.09,1.82-1.59,1.82-1.59s1,.37,1,.67a12.66,12.66,0,0,0-.27-3.68S37.25,6.78,37.4,6s2.47-1.33,3-1.34Z"/><path class="cls-14" d="M43.26,6.33a4,4,0,0,0-1.14-2.64c-1.2-1.31-3.21-.26-4.51,1.88a4.77,4.77,0,0,1-2.72,2.25,7.68,7.68,0,0,1-2.47.38,5.74,5.74,0,0,1-3-.53,5.35,5.35,0,0,0,3.62.8,6.41,6.41,0,0,0,4.44-2.36c.07-.12.13-.24.19-.36s.78-.94,4.79-1.1Z"/><ellipse class="cls-15" cx="39.78" cy="9.64" rx="0.59" ry="0.97" transform="translate(-1.15 10.07) rotate(-14.23)"/><ellipse class="cls-15" cx="43.15" cy="8.78" rx="0.55" ry="0.97" transform="translate(-0.83 10.88) rotate(-14.23)"/><path class="cls-16" d="M39.47,6.38a2.41,2.41,0,0,0-1.39.92s.39-1.14,1.28-1.11C39.6,6.25,39.47,6.38,39.47,6.38Z"/><path class="cls-16" d="M41.56,5.93a2.06,2.06,0,0,1,1.5.12s-.85-.75-1.51-.33C41.4,5.88,41.56,5.93,41.56,5.93Z"/><path class="cls-17" d="M42.43,10.2a.68.68,0,0,0,.32.35.34.34,0,0,0,.2,0,.33.33,0,0,0,.24-.07,1.1,1.1,0,0,1,.26-.06.45.45,0,0,1,.56.22,1.25,1.25,0,0,1,.1.27,1.28,1.28,0,0,1,0,.55.74.74,0,0,1-.29.49l-.13.07H43l-.24-.08h.47a.67.67,0,0,0,.42-.16.68.68,0,0,0,.18-.38,1.69,1.69,0,0,0,0-.45.39.39,0,0,0-.19-.34,1.09,1.09,0,0,0-.44,0H43a.53.53,0,0,1-.28-.07A.63.63,0,0,1,42.43,10.2Z"/><path class="cls-17" d="M34,12.26a1.07,1.07,0,0,1,.25-.47,1,1,0,0,1,.46-.31h.56a1.14,1.14,0,0,1,.23.15,1.71,1.71,0,0,1,.18.2l-.24-.1h-.23a.79.79,0,0,0-.43,0,1.11,1.11,0,0,0-.4.22A1.84,1.84,0,0,0,34,12.26Z"/><path class="cls-18" d="M38.44,12.26s5.72,1.43,6,1.34c0,0-1.33,3.7-3.55,3.15S38.3,12.64,38.44,12.26Z"/><path class="cls-19" d="M38.8,14.54s.56,1.87,2.06,2.21a1.56,1.56,0,0,0,1.28-.14S41.83,14.37,38.8,14.54Z"/><path class="cls-5" d="M33.61,20a25.85,25.85,0,0,1,1.49,4.11s-8,2.8-9.33,8.18.06,7.33,3.26,11.16c0,0,1.69-3.9,3.26-3.12l-.77,1.35.24.31-.57.58,2.09.76s1,.3.38,1c-.46.51-.85.49-1,.45l-.28-.06-1.81-.28.56.86a1.45,1.45,0,0,1,.22.49c.11.43,0,1.09-1.31,1a3,3,0,0,1,.55.73.53.53,0,0,1-.24.7l-.13,0a3.43,3.43,0,0,1-1.39-.1,9,9,0,0,1-1.07-.65,1.09,1.09,0,0,1-.47-1.23,1,1,0,0,1,1.05-.66s-.39-.88-.27-1.14c0,0-8.18-5.09-5.59-12.74C25,24.21,33.61,20,33.61,20Z"/><path class="cls-10" d="M28.53,45.58a6.64,6.64,0,0,1,.79.51,5.78,5.78,0,0,1,.71.6,5.81,5.81,0,0,1-.78-.51A5.21,5.21,0,0,1,28.53,45.58Z"/><path class="cls-20" d="M8.4,67.54S6.72,65.12,6.1,65s-2.86,1-3,3.38a9.78,9.78,0,0,0-3,8.52s2.4,1,3.05.62a20.44,20.44,0,0,1,.14-3.41s2.63-3.45,3.49-3.45l1.2.22s.31.18.42-.24a10.71,10.71,0,0,0,.21-1.13l-2.1-1S7.19,67,8.4,67.54Z"/><path class="cls-20" d="M62.62,85.79s-.82.68,0,1.91a33.36,33.36,0,0,1,2.23,3.84c.09.36,3-1.11,3.74-3.12,0,0,4.85-1.89,6.53-6.2a2.69,2.69,0,0,0-2.6-1.41c-.72,0-1.92,2.55-2.28,2.61s-2.67,1-4,.84l-.15-1.44s-.48-1.08-1.62-.12-.17,2.92.26,3S62.79,87,62.62,85.79Z"/><circle class="cls-21" cx="383.76" cy="85.95" r="9.12"/><path class="cls-22" d="M383.76,95.36a9.41,9.41,0,1,1,6.65-2.72A9.41,9.41,0,0,1,383.76,95.36Zm0-18.23A8.83,8.83,0,1,0,392.59,86h0A8.85,8.85,0,0,0,383.76,77.13Z"/><path class="cls-22" d="M380.67,77.54l2.09,1.28,4.19-.29v-1A9.1,9.1,0,0,0,380.67,77.54Z"/><path class="cls-22" d="M381.71,81.93a13.76,13.76,0,0,0-3.11,1.57l-.29.49a13.7,13.7,0,0,0,.32,3.32l.38.52,3.28.64.44-.38,1.48-2.87.09-.59a27.75,27.75,0,0,0-2.12-2.35Z"/><path class="cls-22" d="M377.56,79.46l-1,2.79-.35.52L375,84.58A6.67,6.67,0,0,1,377.56,79.46Z"/><path class="cls-22" d="M388.28,84.75s1.57,2.44,1.63,2.7c.06,0,.55.18.55.18s1.75-.79,1.78-1a13.08,13.08,0,0,0-.67-4.16,6.89,6.89,0,0,0-1.92-1l-.49.29-.88,2.42Z"/><path class="cls-22" d="M375.08,88.12s1.46,1.66,1.89,1.69l.44.52,1.51,2.3-.73.44S374.76,90.48,375.08,88.12Z"/><path class="cls-22" d="M384.21,91.76,383,93.39l-.09.55,1.84.78a5.31,5.31,0,0,0,4-1.48,11.79,11.79,0,0,0-.35-1.77l-.49-.32a14.05,14.05,0,0,1-3.23.32Z"/><rect class="cls-22" x="376.99" y="81.55" width="0.59" height="3.02" transform="translate(116.71 368.27) rotate(-60)"/><rect class="cls-22" x="380.58" y="80.19" width="3.82" height="0.59" transform="translate(188.58 419.87) rotate(-72.14)"/><rect class="cls-22" x="387.57" y="77.7" width="0.59" height="4.66" transform="translate(46.92 281.51) rotate(-42.24)"/><rect class="cls-22" x="383.87" y="84.44" width="4.66" height="0.59" transform="translate(-6.13 35.69) rotate(-5.25)"/><rect class="cls-22" x="383.13" y="87.6" width="0.59" height="4.66" transform="translate(6.4 203.76) rotate(-30)"/><rect class="cls-22" x="375.99" y="88.05" width="4.66" height="0.59" transform="translate(102.44 361.88) rotate(-57.9)"/><rect class="cls-22" x="386.83" y="89.09" width="4.66" height="0.59" transform="translate(126.85 390.43) rotate(-61.87)"/><rect class="cls-22" x="391.18" y="82.11" width="1.08" height="0.59" transform="translate(84.77 339.33) rotate(-51.81)"/><rect class="cls-22" x="392.07" y="86.18" width="0.59" height="1.08" transform="translate(142.75 401.62) rotate(-64.06)"/><rect class="cls-22" x="380.36" y="90.85" width="0.59" height="4.81" transform="translate(220.35 450.88) rotate(-79.62)"/><rect class="cls-4" x="65.01" y="92.11" width="1.59" height="23.78"/></g></g></svg>