<svg xmlns="http://www.w3.org/2000/svg" viewBox="0 0 400.42 114.97"><defs><style>.cls-1{fill:#baff78;}.cls-2{fill:#83ff00;}.cls-3,.cls-5{fill:none;stroke-miterlimit:10;}.cls-3{stroke:#000;stroke-width:0.5px;}.cls-4,.cls-8{isolation:isolate;}.cls-5{stroke:#f30;}.cls-6{fill:#f2d5c7;}.cls-7{fill:#6b99bd;}.cls-8,.cls-9{fill:#427b99;}.cls-8{opacity:0.5;}.cls-10{fill:#428e80;}.cls-11{fill:#b55930;}.cls-12{fill:#e0e0e0;}.cls-13{fill:#c9934b;}.cls-14{fill:#896029;}.cls-15{fill:#513513;}.cls-16{fill:#3f3f3f;}.cls-17{fill:#cfaa13;}.cls-18{fill:#c36a3e;}.cls-19{fill:#8e1d21;}.cls-20{fill:#d75f5e;}.cls-21{fill:#3a3a3a;}.cls-22{fill:#fff;}.cls-23{fill:#444;}.cls-24{fill:#f30;}</style></defs><title>zoom6</title><g id="Layer_2" data-name="Layer 2"><g id="Layer_1-2" data-name="Layer 1"><path class="cls-1" d="M44.05,77.21H399.3a1,1,0,0,1,.86,1V113a1,1,0,0,1-.86,1H44.05a.94.94,0,0,1-.85-1V78.23A1,1,0,0,1,44.05,77.21Z"/><path class="cls-2" d="M400.16,113H44.2V78.22H400.41v-2H44.23a2,2,0,0,0-2,2V113a2,2,0,0,0,2,2H400.16Z"/><line class="cls-3" x1="51.24" y1="76.21" x2="51.24" y2="89.58"/><line class="cls-3" x1="91.82" y1="76.21" x2="91.82" y2="89.58"/><line class="cls-3" x1="132.39" y1="76.21" x2="132.39" y2="89.58"/><line class="cls-3" x1="172.96" y1="76.21" x2="172.96" y2="89.58"/><line class="cls-3" x1="213.53" y1="76.21" x2="213.53" y2="89.58"/><line class="cls-3" x1="254.1" y1="76.21" x2="254.1" y2="89.58"/><line class="cls-3" x1="294.68" y1="76.21" x2="294.68" y2="89.58"/><line class="cls-3" x1="335.25" y1="76.21" x2="335.25" y2="89.58"/><line class="cls-3" x1="375.82" y1="76.21" x2="375.82" y2="89.58"/><g class="cls-4"><path d="M90.9,93.73a3.88,3.88,0,0,1,.72,2.41,3.93,3.93,0,0,1-.72,2.42,2.2,2.2,0,0,1-3.63,0,4.48,4.48,0,0,1,0-4.84,2.21,2.21,0,0,1,1.82-1A2.18,2.18,0,0,1,90.9,93.73Zm-3.05.5a3.43,3.43,0,0,0-.49,1.93,3.52,3.52,0,0,0,.48,1.93,1.43,1.43,0,0,0,1.25.74,1.45,1.45,0,0,0,1.25-.74,3.52,3.52,0,0,0,.49-1.93,3.55,3.55,0,0,0-.49-1.94,1.44,1.44,0,0,0-1.25-.75A1.39,1.39,0,0,0,87.85,94.23Z"/><path d="M93.16,98.29a.59.59,0,0,1,.47.21.81.81,0,0,1,.18.55,2.49,2.49,0,0,1-.9,1.8l-.35-.3a2.14,2.14,0,0,0,.68-1.06h-.09a.58.58,0,0,1-.61-.6.58.58,0,0,1,.18-.42A.59.59,0,0,1,93.16,98.29Z"/><path d="M96.27,92.87h.64V99.4h-.76V93.66L95,94.25l-.29-.56Z"/></g><g class="cls-4"><path d="M130.63,93.73a3.88,3.88,0,0,1,.72,2.41,3.93,3.93,0,0,1-.72,2.42,2.2,2.2,0,0,1-3.63,0,4.48,4.48,0,0,1,0-4.84,2.21,2.21,0,0,1,1.82-1A2.18,2.18,0,0,1,130.63,93.73Zm-3,.5a3.43,3.43,0,0,0-.49,1.93,3.52,3.52,0,0,0,.48,1.93,1.43,1.43,0,0,0,1.25.74,1.45,1.45,0,0,0,1.25-.74,3.52,3.52,0,0,0,.49-1.93,3.55,3.55,0,0,0-.49-1.94,1.44,1.44,0,0,0-1.25-.75A1.39,1.39,0,0,0,127.58,94.23Z"/><path d="M132.89,98.29a.59.59,0,0,1,.47.21.81.81,0,0,1,.18.55,2.49,2.49,0,0,1-.9,1.8l-.35-.3a2.14,2.14,0,0,0,.68-1.06h-.09a.58.58,0,0,1-.61-.6.58.58,0,0,1,.18-.42A.59.59,0,0,1,132.89,98.29Z"/><path d="M136.39,92.77a2.18,2.18,0,0,1,1.57.58,1.77,1.77,0,0,1,.55,1.35A2.32,2.32,0,0,1,138.1,96a8.74,8.74,0,0,1-1,1.19l-1.51,1.59h2.94v.67h-4v-.6l2-2.09a9.8,9.8,0,0,0,.95-1.09,1.69,1.69,0,0,0,.31-.92,1.25,1.25,0,0,0-.37-.9,1.28,1.28,0,0,0-.94-.35,2.06,2.06,0,0,0-1.47.64l-.44-.56A2.72,2.72,0,0,1,136.39,92.77Z"/></g><g class="cls-4"><path d="M171,93.73a3.88,3.88,0,0,1,.72,2.41,3.93,3.93,0,0,1-.72,2.42,2.2,2.2,0,0,1-3.63,0,4.48,4.48,0,0,1,0-4.84,2.21,2.21,0,0,1,1.82-1A2.18,2.18,0,0,1,171,93.73Zm-3.05.5a3.43,3.43,0,0,0-.49,1.93,3.52,3.52,0,0,0,.48,1.93,1.43,1.43,0,0,0,1.25.74,1.45,1.45,0,0,0,1.25-.74,3.52,3.52,0,0,0,.49-1.93,3.55,3.55,0,0,0-.49-1.94,1.44,1.44,0,0,0-1.25-.75A1.39,1.39,0,0,0,168,94.23Z"/><path d="M173.28,98.29a.59.59,0,0,1,.47.21.81.81,0,0,1,.18.55,2.49,2.49,0,0,1-.9,1.8l-.35-.3a2.14,2.14,0,0,0,.68-1.06h-.09a.58.58,0,0,1-.61-.6.58.58,0,0,1,.18-.42A.59.59,0,0,1,173.28,98.29Z"/><path d="M176.87,92.77a2.64,2.64,0,0,1,1.58.43,1.42,1.42,0,0,1,.61,1.22,1.5,1.5,0,0,1-1.2,1.49,2.15,2.15,0,0,1,1,.68,1.83,1.83,0,0,1,.38,1.12,1.53,1.53,0,0,1-.69,1.37,3.16,3.16,0,0,1-1.74.44,3.6,3.6,0,0,1-2.08-.56l.46-.56a2.94,2.94,0,0,0,1.58.43,2.16,2.16,0,0,0,1.23-.32,1,1,0,0,0,.45-.91,1.18,1.18,0,0,0-.47-1,1.75,1.75,0,0,0-1.14-.37h-.74v-.67h.74a1.72,1.72,0,0,0,1-.29.88.88,0,0,0,.4-.79.87.87,0,0,0-.37-.77,2,2,0,0,0-1.09-.26,3.18,3.18,0,0,0-1.32.27L175,93.2A3.82,3.82,0,0,1,176.87,92.77Z"/></g><g class="cls-4"><path d="M211.42,93.73a3.88,3.88,0,0,1,.72,2.41,3.93,3.93,0,0,1-.72,2.42,2.2,2.2,0,0,1-3.63,0,4.48,4.48,0,0,1,0-4.84,2.21,2.21,0,0,1,1.82-1A2.18,2.18,0,0,1,211.42,93.73Zm-3,.5a3.43,3.43,0,0,0-.49,1.93,3.52,3.52,0,0,0,.48,1.93,1.43,1.43,0,0,0,1.25.74,1.45,1.45,0,0,0,1.25-.74,3.52,3.52,0,0,0,.49-1.93,3.55,3.55,0,0,0-.49-1.94,1.44,1.44,0,0,0-1.25-.75A1.39,1.39,0,0,0,208.37,94.23Z"/><path d="M213.68,98.29a.59.59,0,0,1,.47.21.81.81,0,0,1,.18.55,2.49,2.49,0,0,1-.9,1.8l-.35-.3a2.14,2.14,0,0,0,.68-1.06h-.09a.58.58,0,0,1-.61-.6.58.58,0,0,1,.18-.42A.59.59,0,0,1,213.68,98.29Z"/><path d="M218.53,92.87h.66v4.2h.8v.64h-.8V99.4h-.76V97.71h-3.18v-.52Zm-.1,1.19-2.3,3h2.3Z"/></g><g class="cls-4"><path d="M252.06,93.73a3.88,3.88,0,0,1,.72,2.41,3.93,3.93,0,0,1-.72,2.42,2.2,2.2,0,0,1-3.63,0,4.48,4.48,0,0,1,0-4.84,2.21,2.21,0,0,1,1.82-1A2.18,2.18,0,0,1,252.06,93.73Zm-3.05.5a3.43,3.43,0,0,0-.49,1.93,3.52,3.52,0,0,0,.48,1.93,1.43,1.43,0,0,0,1.25.74,1.45,1.45,0,0,0,1.25-.74,3.52,3.52,0,0,0,.48-1.93,3.55,3.55,0,0,0-.48-1.94,1.44,1.44,0,0,0-1.25-.75A1.39,1.39,0,0,0,249,94.23Z"/><path d="M254.31,98.29a.6.6,0,0,1,.48.21.81.81,0,0,1,.18.55,2.49,2.49,0,0,1-.9,1.8l-.35-.3a2.14,2.14,0,0,0,.68-1.06h-.09a.58.58,0,0,1-.61-.6.58.58,0,0,1,.18-.42A.58.58,0,0,1,254.31,98.29Z"/><path d="M256.47,92.87h3.67v.63h-3l-.24,2.39a1.91,1.91,0,0,1,1.48-.67,2,2,0,0,1,1.48.61,2.1,2.1,0,0,1,.59,1.54,2,2,0,0,1-.65,1.54,2.36,2.36,0,0,1-1.68.61,2.86,2.86,0,0,1-2.26-1.06l.49-.57a2.13,2.13,0,0,0,1.77.94,1.57,1.57,0,0,0,1.11-.41,1.39,1.39,0,0,0,.44-1,1.45,1.45,0,0,0-.41-1.06,1.39,1.39,0,0,0-1-.41,1.32,1.32,0,0,0-1.31.82l-.81-.32Z"/></g><g class="cls-4"><path d="M292.54,93.73a3.88,3.88,0,0,1,.72,2.41,3.93,3.93,0,0,1-.72,2.42,2.2,2.2,0,0,1-3.63,0,4.48,4.48,0,0,1,0-4.84,2.21,2.21,0,0,1,1.82-1A2.18,2.18,0,0,1,292.54,93.73Zm-3.05.5a3.43,3.43,0,0,0-.49,1.93,3.52,3.52,0,0,0,.48,1.93,1.43,1.43,0,0,0,1.25.74,1.45,1.45,0,0,0,1.25-.74,3.52,3.52,0,0,0,.49-1.93,3.55,3.55,0,0,0-.49-1.94,1.44,1.44,0,0,0-1.25-.75A1.39,1.39,0,0,0,289.49,94.23Z"/><path d="M294.8,98.29a.59.59,0,0,1,.47.21.81.81,0,0,1,.18.55,2.49,2.49,0,0,1-.9,1.8l-.35-.3a2.14,2.14,0,0,0,.68-1.06h-.09a.58.58,0,0,1-.61-.6.58.58,0,0,1,.18-.42A.59.59,0,0,1,294.8,98.29Z"/><path d="M299,92.77a2.41,2.41,0,0,1,1.42.44,3.08,3.08,0,0,1,.44.37l-.46.61a4.13,4.13,0,0,0-.48-.45,1.54,1.54,0,0,0-.92-.27,1.45,1.45,0,0,0-1.15.54,3.47,3.47,0,0,0-.65,2.25,2.07,2.07,0,0,1,1.77-1,2.27,2.27,0,0,1,1.54.59,2,2,0,0,1,.67,1.58A2,2,0,0,1,300.5,99a2.25,2.25,0,0,1-1.6.57,2.23,2.23,0,0,1-1.75-.73,3.73,3.73,0,0,1-.78-2.57,4,4,0,0,1,.79-2.64A2.31,2.31,0,0,1,299,92.77Zm-1.19,3.58a1.43,1.43,0,0,0,0,2.05,1.53,1.53,0,0,0,2.13,0,1.43,1.43,0,0,0,0-2.06,1.53,1.53,0,0,0-2.14,0Z"/></g><g class="cls-4"><path d="M333.27,93.73a3.88,3.88,0,0,1,.72,2.41,3.93,3.93,0,0,1-.72,2.42,2.2,2.2,0,0,1-3.63,0,4.48,4.48,0,0,1,0-4.84,2.21,2.21,0,0,1,1.82-1A2.18,2.18,0,0,1,333.27,93.73Zm-3,.5a3.43,3.43,0,0,0-.49,1.93,3.52,3.52,0,0,0,.48,1.93,1.43,1.43,0,0,0,1.25.74,1.45,1.45,0,0,0,1.25-.74,3.52,3.52,0,0,0,.48-1.93,3.55,3.55,0,0,0-.48-1.94,1.44,1.44,0,0,0-1.25-.75A1.39,1.39,0,0,0,330.22,94.23Z"/><path d="M335.52,98.29a.6.6,0,0,1,.48.21.81.81,0,0,1,.18.55,2.49,2.49,0,0,1-.9,1.8l-.35-.3a2.14,2.14,0,0,0,.68-1.06h-.09a.58.58,0,0,1-.61-.6.58.58,0,0,1,.18-.42A.58.58,0,0,1,335.52,98.29Z"/><path d="M337.1,92.87h4.46v.51l-2.85,6h-.85l2.87-5.88H337.1Z"/></g><g class="cls-4"><path d="M373.72,93.73a3.88,3.88,0,0,1,.72,2.41,3.93,3.93,0,0,1-.72,2.42,2.19,2.19,0,0,1-3.62,0,4.43,4.43,0,0,1,0-4.84,2.19,2.19,0,0,1,3.62,0Zm-3.05.5a3.43,3.43,0,0,0-.49,1.93,3.52,3.52,0,0,0,.48,1.93,1.43,1.43,0,0,0,1.25.74,1.45,1.45,0,0,0,1.25-.74,3.52,3.52,0,0,0,.48-1.93,3.55,3.55,0,0,0-.48-1.94,1.44,1.44,0,0,0-1.25-.75A1.39,1.39,0,0,0,370.67,94.23Z"/><path d="M376,98.29a.6.6,0,0,1,.48.21.81.81,0,0,1,.18.55,2.49,2.49,0,0,1-.9,1.8l-.35-.3a2.14,2.14,0,0,0,.68-1.06H376a.58.58,0,0,1-.61-.6.58.58,0,0,1,.18-.42A.58.58,0,0,1,376,98.29Z"/><path d="M381.43,93.19a1.41,1.41,0,0,1,.6,1.23,1.49,1.49,0,0,1-1.14,1.49,2,2,0,0,1,1,.69,1.72,1.72,0,0,1,.37,1.12,1.53,1.53,0,0,1-.66,1.34,2.93,2.93,0,0,1-1.69.46,2.89,2.89,0,0,1-1.69-.46,1.53,1.53,0,0,1-.66-1.34,1.78,1.78,0,0,1,.37-1.12,2.06,2.06,0,0,1,1-.69,1.49,1.49,0,0,1-1.14-1.49,1.41,1.41,0,0,1,.6-1.23,3,3,0,0,1,3.07,0Zm-2.65,3.44a1.19,1.19,0,0,0-.43,1,1.06,1.06,0,0,0,.43.92,1.86,1.86,0,0,0,1.11.31,1.9,1.9,0,0,0,1.12-.31,1.06,1.06,0,0,0,.43-.92,1.2,1.2,0,0,0-.44-1,1.68,1.68,0,0,0-1.11-.38A1.64,1.64,0,0,0,378.78,96.63Zm.13-2.9a.9.9,0,0,0-.36.78.94.94,0,0,0,.38.79,1.6,1.6,0,0,0,1,.27,1.66,1.66,0,0,0,1-.27.94.94,0,0,0,.38-.79.89.89,0,0,0-.38-.78,1.66,1.66,0,0,0-1-.26A1.74,1.74,0,0,0,378.91,93.73Z"/></g><g class="cls-4"><path d="M53.07,93.73a3.88,3.88,0,0,1,.72,2.41,3.93,3.93,0,0,1-.72,2.42,2.2,2.2,0,0,1-3.63,0,4.48,4.48,0,0,1,0-4.84,2.21,2.21,0,0,1,1.82-1A2.18,2.18,0,0,1,53.07,93.73Zm-3,.5a3.43,3.43,0,0,0-.49,1.93A3.52,3.52,0,0,0,50,98.09a1.43,1.43,0,0,0,1.25.74,1.45,1.45,0,0,0,1.25-.74A3.52,3.52,0,0,0,53,96.16a3.55,3.55,0,0,0-.48-1.94,1.44,1.44,0,0,0-1.25-.75A1.39,1.39,0,0,0,50,94.23Z"/></g><line class="cls-3" x1="55.3" y1="76.21" x2="55.3" y2="85.94"/><line class="cls-3" x1="59.36" y1="76.21" x2="59.36" y2="85.94"/><line class="cls-3" x1="63.42" y1="76.21" x2="63.42" y2="85.94"/><line class="cls-3" x1="67.47" y1="76.21" x2="67.47" y2="85.94"/><line class="cls-3" x1="71.53" y1="76.21" x2="71.53" y2="87.79"/><line class="cls-3" x1="75.59" y1="76.21" x2="75.59" y2="85.94"/><line class="cls-3" x1="79.64" y1="76.21" x2="79.64" y2="85.94"/><line class="cls-3" x1="83.7" y1="76.21" x2="83.7" y2="85.94"/><line class="cls-3" x1="87.76" y1="76.21" x2="87.76" y2="85.94"/><line class="cls-3" x1="95.87" y1="76.21" x2="95.87" y2="85.94"/><line class="cls-3" x1="99.93" y1="76.21" x2="99.93" y2="85.94"/><line class="cls-3" x1="103.99" y1="76.21" x2="103.99" y2="85.94"/><line class="cls-3" x1="108.04" y1="76.21" x2="108.04" y2="85.94"/><line class="cls-3" x1="112.1" y1="76.21" x2="112.1" y2="87.79"/><line class="cls-3" x1="116.16" y1="76.21" x2="116.16" y2="85.94"/><line class="cls-3" x1="120.22" y1="76.21" x2="120.22" y2="85.94"/><line class="cls-3" x1="124.27" y1="76.21" x2="124.27" y2="85.94"/><line class="cls-3" x1="128.33" y1="76.21" x2="128.33" y2="85.94"/><line class="cls-3" x1="136.45" y1="76.21" x2="136.45" y2="85.94"/><line class="cls-3" x1="140.5" y1="76.21" x2="140.5" y2="85.94"/><line class="cls-3" x1="144.56" y1="76.21" x2="144.56" y2="85.94"/><line class="cls-3" x1="148.62" y1="76.21" x2="148.62" y2="85.94"/><line class="cls-3" x1="152.67" y1="76.21" x2="152.67" y2="87.79"/><line class="cls-3" x1="156.73" y1="76.21" x2="156.73" y2="85.94"/><line class="cls-3" x1="160.79" y1="76.21" x2="160.79" y2="85.94"/><line class="cls-3" x1="164.85" y1="76.21" x2="164.85" y2="85.94"/><line class="cls-3" x1="177.02" y1="76.21" x2="177.02" y2="85.94"/><line class="cls-3" x1="181.07" y1="76.21" x2="181.07" y2="85.94"/><line class="cls-3" x1="185.13" y1="76.21" x2="185.13" y2="85.94"/><line class="cls-3" x1="189.19" y1="76.21" x2="189.19" y2="85.94"/><line class="cls-3" x1="193.25" y1="76.21" x2="193.25" y2="87.79"/><line class="cls-3" x1="197.3" y1="76.21" x2="197.3" y2="85.94"/><line class="cls-3" x1="201.36" y1="76.21" x2="201.36" y2="85.94"/><line class="cls-3" x1="205.42" y1="76.21" x2="205.42" y2="85.94"/><line class="cls-3" x1="209.48" y1="76.21" x2="209.48" y2="85.94"/><line class="cls-3" x1="217.59" y1="76.21" x2="217.59" y2="85.94"/><line class="cls-3" x1="221.65" y1="76.21" x2="221.65" y2="85.94"/><line class="cls-3" x1="225.7" y1="76.21" x2="225.7" y2="85.94"/><line class="cls-3" x1="229.76" y1="76.21" x2="229.76" y2="85.94"/><line class="cls-3" x1="233.82" y1="76.21" x2="233.82" y2="87.79"/><line class="cls-3" x1="237.88" y1="76.21" x2="237.88" y2="85.94"/><line class="cls-3" x1="241.93" y1="76.21" x2="241.93" y2="85.94"/><line class="cls-3" x1="245.99" y1="76.21" x2="245.99" y2="85.94"/><line class="cls-3" x1="250.05" y1="76.21" x2="250.05" y2="85.94"/><line class="cls-3" x1="258.16" y1="76.21" x2="258.16" y2="85.94"/><line class="cls-3" x1="262.22" y1="76.21" x2="262.22" y2="85.94"/><line class="cls-3" x1="266.28" y1="76.21" x2="266.28" y2="85.94"/><line class="cls-3" x1="270.33" y1="76.21" x2="270.33" y2="85.94"/><line class="cls-3" x1="278.45" y1="76.21" x2="278.45" y2="85.94"/><line class="cls-3" x1="282.51" y1="76.21" x2="282.51" y2="85.94"/><line class="cls-3" x1="286.56" y1="76.21" x2="286.56" y2="85.94"/><line class="cls-3" x1="290.62" y1="76.21" x2="290.62" y2="85.94"/><line class="cls-3" x1="298.73" y1="76.21" x2="298.73" y2="85.94"/><line class="cls-3" x1="302.79" y1="76.21" x2="302.79" y2="85.94"/><line class="cls-3" x1="306.85" y1="76.21" x2="306.85" y2="85.94"/><line class="cls-3" x1="310.91" y1="76.21" x2="310.91" y2="85.94"/><line class="cls-3" x1="314.96" y1="76.21" x2="314.96" y2="87.79"/><line class="cls-3" x1="319.02" y1="76.21" x2="319.02" y2="85.94"/><line class="cls-3" x1="323.08" y1="76.21" x2="323.08" y2="85.94"/><line class="cls-3" x1="327.13" y1="76.21" x2="327.13" y2="85.94"/><line class="cls-3" x1="331.19" y1="76.21" x2="331.19" y2="85.94"/><line class="cls-3" x1="339.33" y1="76.21" x2="339.33" y2="85.94"/><line class="cls-3" x1="343.38" y1="76.21" x2="343.38" y2="85.94"/><line class="cls-3" x1="347.44" y1="76.21" x2="347.44" y2="85.94"/><line class="cls-3" x1="351.5" y1="76.21" x2="351.5" y2="85.94"/><line class="cls-3" x1="355.55" y1="76.21" x2="355.55" y2="87.79"/><line class="cls-3" x1="359.61" y1="76.21" x2="359.61" y2="85.94"/><line class="cls-3" x1="363.67" y1="76.21" x2="363.67" y2="85.94"/><line class="cls-3" x1="371.78" y1="76.21" x2="371.78" y2="85.94"/><line class="cls-3" x1="379.88" y1="76.21" x2="379.88" y2="85.94"/><line class="cls-3" x1="383.94" y1="76.21" x2="383.94" y2="85.94"/><line class="cls-5" x1="387.99" y1="74.98" x2="387.99" y2="85.94"/><line class="cls-3" x1="392.05" y1="76.21" x2="392.05" y2="85.94"/><line class="cls-3" x1="396.11" y1="76.21" x2="396.11" y2="87.79"/><line class="cls-3" x1="400.16" y1="76.21" x2="400.16" y2="85.94"/><line class="cls-3" x1="367.73" y1="76.21" x2="367.73" y2="85.94"/><line class="cls-3" x1="168.9" y1="76.21" x2="168.9" y2="85.94"/><line class="cls-3" x1="274.39" y1="76.21" x2="274.39" y2="87.79"/><path class="cls-6" d="M24.38,43.18s-1.21,8.31-7.59,9.94-10.32-.67-10.32-.67-.65-.63-1.4.79a21.76,21.76,0,0,0,13.56,2c7.83-1.86,9.3-11.34,9.3-11.34Z"/><path class="cls-6" d="M32.4,44.12A127.67,127.67,0,0,1,42,55.28a134.11,134.11,0,0,1,6.81,11.56s.56,1,1.55-.19l-.68-1.09.06-.37S40.22,43.19,36.87,43Z"/><path class="cls-7" d="M25.86,31.77s-2.52,4.09-1,7c-.47,1.36-1,2.7-1.6,4,0,0-.49.7,1.73,2.22a10.62,10.62,0,0,0,4.57,1.73s.09.07.19-.22S30.4,45,30.4,45A29.1,29.1,0,0,1,33,47.51a.31.31,0,0,0,.4.21.31.31,0,0,0,.15-.1s5.12-3.44,5.35-4.65a.2.2,0,0,0,0-.11L33.36,37.6s.87-3.38.46-4.94Z"/><path class="cls-8" d="M24.84,38.77c-.47,1.36-1,2.7-1.6,4,0,0-.49.7,1.73,2.22a10.62,10.62,0,0,0,4.57,1.73s.09.07.19-.22.65-1.49.65-1.49Z"/><path class="cls-9" d="M31.82,34.71a5.15,5.15,0,0,0,1.48,2.93,13.45,13.45,0,0,0,.46-3.28Z"/><path class="cls-10" d="M26.13,19.5s1.21,1.32,1.24-.18-1.53-4.47-1.53-4.47Z"/><path class="cls-6" d="M33,18.56s4.17,8.89,7.41,9.29,5.26-3.54,5.26-3.54-2.23-3.48-1-4.71c.48-.36.93,1.31,1.15,2.33,0,0,.14.27.56-.33.3-.43.8-1.29,1.13-1.87a5.08,5.08,0,0,0,.34-.79c.07-.22.23-.46.53-.25.51.35.26,2.2-.28,2.41,0,0,1.52-.45.66,1.15,0,0,2.22.1,1,1.16s-2.17,1.48-3.15,1.33c0,0-2.06,5.87-6.55,5.25s-7.41-5.7-7.41-5.7Z"/><path class="cls-11" d="M47.55,21.44a3.27,3.27,0,0,0-.36.25,2.13,2.13,0,0,0-.3.3.78.78,0,0,0-.17.37.67.67,0,0,0,0,.2.44.44,0,0,0,.07.19h0a.77.77,0,0,0,.18.18.58.58,0,0,0,.23.13.7.7,0,0,0,.25.05.62.62,0,0,0,.27,0h.08v.07a3.06,3.06,0,0,0-.17.48.82.82,0,0,0,0,.49.25.25,0,0,0,.16.17,1,1,0,0,0,.25.06,2.17,2.17,0,0,0,.51,0,2.31,2.31,0,0,1-.52.06.58.58,0,0,1-.26-.06.32.32,0,0,1-.2-.18.8.8,0,0,1,0-.53,2.27,2.27,0,0,1,.17-.5l0,.06a.66.66,0,0,1-.28,0,.64.64,0,0,1-.28-.06A.68.68,0,0,1,47,23a.64.64,0,0,1-.2-.2h0a.39.39,0,0,1-.08-.21.45.45,0,0,1,0-.23.86.86,0,0,1,.2-.39,1.83,1.83,0,0,1,.32-.3A.78.78,0,0,1,47.55,21.44Z"/><path class="cls-11" d="M46.47,22.12a1.64,1.64,0,0,1,.34.76,1.48,1.48,0,0,1,0,.42,1,1,0,0,1-.17.38,1.59,1.59,0,0,0,.1-.39,2.67,2.67,0,0,0,0-.4,2.74,2.74,0,0,0-.09-.39C46.58,22.36,46.53,22.23,46.47,22.12Z"/><path class="cls-12" d="M25.84,14.85l.35,5.71s2.12,2.05.17,8.59l-1.84,3.2S26,34.88,34,35.23c0,0,1.16-2.39.83-7.22a87.93,87.93,0,0,0-1.94-11.5S26.37,14.77,25.84,14.85Z"/><path class="cls-13" d="M21.5,9.69s5.56,3.37,7.64.33a18.9,18.9,0,0,1,4.45-4.65A4.29,4.29,0,0,0,30.52.14l-.05,0c-1.6-.51-3.68.67-4.94,1.63s-5.07.15-5.07.15a3.75,3.75,0,0,0,1.21,3L19.85,6.42s.44,1.37,3.7,1.93Z"/><path class="cls-14" d="M21.5,9.69s3.65,2.2,6.14,1.44c1.77-.54,6-6.25,6-6.25s-.25-2.71-2.41-2.64c-1.14-.07-4.68,2.63-4.68,2.63S23.85,7,20.47,2.59a3.32,3.32,0,0,0,1.18,2.3L19.83,6.41s.24,1.28,3.7,1.93Z"/><path class="cls-6" d="M33.08,3.55s3.93,8.86,3.14,9.37a17.92,17.92,0,0,1-4.8,1.37s-.44,1.28-.09,1.79l.38.25s.08,1.5-.52,1.34a7.33,7.33,0,0,1-2.57-2.22s1.12-.35,1-1.12a6.33,6.33,0,0,1-1-3.24,2.67,2.67,0,0,1-1.15.39,1.77,1.77,0,0,1-1.66-1.87.78.78,0,0,1,0-.22c.11-1.63,1.41-1.25,1.41-1.25s.82.3.79.53a9.89,9.89,0,0,0-.21-2.87S29,5.21,29.14,4.6s1.92-1,2.36-1Z"/><path class="cls-15" d="M33.66,4.88a3.2,3.2,0,0,0-.89-2c-.93-1-2.49-.21-3.51,1.46a3.66,3.66,0,0,1-2.11,1.75,5.71,5.71,0,0,1-1.92.3A4.46,4.46,0,0,1,22.87,6a4.11,4.11,0,0,0,2.82.62,4.94,4.94,0,0,0,3.45-1.83l.15-.28c.08-.17.6-.73,3.72-.86Z"/><ellipse class="cls-16" cx="30.95" cy="7.45" rx="0.46" ry="0.75" transform="translate(-0.88 7.84) rotate(-14.23)"/><ellipse class="cls-16" cx="33.57" cy="6.79" rx="0.42" ry="0.75" transform="translate(-0.64 8.46) rotate(-14.23)"/><path class="cls-17" d="M30.71,4.92a1.88,1.88,0,0,0-1.08.72s.3-.89,1-.87C30.81,4.82,30.71,4.92,30.71,4.92Z"/><path class="cls-17" d="M32.34,4.57a1.61,1.61,0,0,1,1.16.09s-.65-.58-1.17-.25C32.21,4.53,32.34,4.57,32.34,4.57Z"/><path class="cls-18" d="M33,7.89a.44.44,0,0,0,.25.27.22.22,0,0,0,.16,0l.18-.05.2,0a.49.49,0,0,1,.24,0,.35.35,0,0,1,.19.17.86.86,0,0,1,.07.21,1,1,0,0,1,0,.43.57.57,0,0,1-.22.38h-.62l-.19-.07h.39A.54.54,0,0,0,34,9.12a.44.44,0,0,0,.14-.29,1.09,1.09,0,0,0,0-.36A.38.38,0,0,0,34,8.21a1,1,0,0,0-.34,0h-.2a.28.28,0,0,1-.22,0A.44.44,0,0,1,33,7.89Z"/><path class="cls-18" d="M26.46,9.5a.82.82,0,0,1,.19-.37A.7.7,0,0,1,27,8.89h.44l.18.12.13.15-.18-.08H27.4a.65.65,0,0,0-.34,0,1,1,0,0,0-.31.16A2.43,2.43,0,0,0,26.46,9.5Z"/><path class="cls-19" d="M29.91,9.5s4.45,1.11,4.65,1c0,0-1,2.88-2.77,2.45S29.8,9.79,29.91,9.5Z"/><path class="cls-20" d="M30.19,11.26s.44,1.46,1.6,1.73a1.22,1.22,0,0,0,1-.11S32.55,11.12,30.19,11.26Z"/><path class="cls-6" d="M26.16,15.48a20,20,0,0,1,1.15,3.2S21.1,20.86,20.05,25s0,5.7,2.54,8.68c0,0,1.31-3,2.54-2.42l-.61,1,.2.23-.45.45,1.63.6s.77.23.29.75-.66.38-.78.35h-.22l-1.41-.22.44.67a1.84,1.84,0,0,1,.17.38c.08.33,0,.85-1,.75a3.41,3.41,0,0,1,.43.57.42.42,0,0,1-.2.55l-.09,0a2.46,2.46,0,0,1-1.08-.08,7.23,7.23,0,0,1-.84-.51.85.85,0,0,1-.36-1,.77.77,0,0,1,.81-.51s-.3-.68-.21-.88c0,0-6.36-4-4.34-9.91C19.45,18.79,26.16,15.48,26.16,15.48Z"/><path class="cls-11" d="M22.2,35.41c.21.12.42.25.62.39s.37.31.55.47a3.51,3.51,0,0,1-.61-.39C22.57,35.73,22.38,35.58,22.2,35.41Z"/><path class="cls-21" d="M6.55,52.49s-1.31-1.88-1.79-2A2.83,2.83,0,0,0,2.4,53.12,7.63,7.63,0,0,0,.08,59.75s1.87.8,2.38.49a15.79,15.79,0,0,1,.11-2.66s2.05-2.72,2.71-2.67l.94.17s.24.14.33-.19A8.52,8.52,0,0,0,6.71,54l-1.64-.77S5.6,52.12,6.55,52.49Z"/><path class="cls-21" d="M48.72,66.68s-.64.54,0,1.49a26.23,26.23,0,0,1,1.73,3c.07.28,2.33-.86,2.91-2.42,0,0,3.78-1.47,5.08-4.82a2.14,2.14,0,0,0-2-1.1c-.56,0-1.49,2-1.77,2a10.85,10.85,0,0,1-3.12.65l-.11-1.12s-.38-.83-1.26-.09-.13,2.27.2,2.37S48.85,67.64,48.72,66.68Z"/><circle class="cls-22" cx="388.51" cy="66.82" r="7.09"/><path class="cls-23" d="M388.51,74.12A7.31,7.31,0,1,1,393.68,72,7.23,7.23,0,0,1,388.51,74.12Zm0-14.18a6.87,6.87,0,1,0,6.86,6.88v0A6.88,6.88,0,0,0,388.51,60Z"/><path class="cls-23" d="M386.1,60.27l1.63,1L391,61v-.76A7.12,7.12,0,0,0,386.1,60.27Z"/><path class="cls-23" d="M386.91,63.68a11.21,11.21,0,0,0-2.42,1.22l-.22.39a11,11,0,0,0,.24,2.57l.3.41,2.55.5.34-.29,1.16-2.24.06-.46A23.9,23.9,0,0,0,387.27,64Z"/><path class="cls-23" d="M383.68,61.76l-.77,2.17-.27.41-.93,1.4A5.18,5.18,0,0,1,383.68,61.76Z"/><path class="cls-23" d="M392,65.87s1.22,1.9,1.27,2.11l.43.13s1.35-.61,1.38-.79a10.45,10.45,0,0,0-.52-3.23,5.41,5.41,0,0,0-1.5-.75l-.38.23L392,65.44Z"/><path class="cls-23" d="M381.75,68.5s1.14,1.29,1.47,1.31l.34.41L384.74,72l-.57.34S381.51,70.33,381.75,68.5Z"/><path class="cls-23" d="M388.86,71.32l-.93,1.27-.07.43,1.43.61a4.13,4.13,0,0,0,3.12-1.15,9.38,9.38,0,0,0-.28-1.38l-.38-.25a10.14,10.14,0,0,1-2.51.25Z"/><rect class="cls-23" x="384.74" y="64.22" width="0.46" height="2.36" transform="translate(136.44 366.59) rotate(-60.11)"/><rect class="cls-23" x="385.13" y="60.94" width="2.97" height="0.46" transform="translate(208.53 409.73) rotate(-71.93)"/><rect class="cls-23" x="391.45" y="60.4" width="0.46" height="3.62" transform="translate(59.89 279.46) rotate(-42.24)"/><rect class="cls-23" x="388.58" y="65.65" width="3.62" height="0.46" transform="translate(-4.39 36) rotate(-5.25)"/><rect class="cls-23" x="388.01" y="68.1" width="0.46" height="3.62" transform="translate(17.06 203.48) rotate(-30)"/><rect class="cls-23" x="382.46" y="68.46" width="3.62" height="0.46" transform="translate(121.88 357.71) rotate(-57.9)"/><rect class="cls-23" x="390.89" y="69.25" width="3.62" height="0.46" transform="translate(146.28 383.03) rotate(-61.87)"/><rect class="cls-23" x="394.27" y="63.82" width="0.84" height="0.46" transform="translate(100.33 334.66) rotate(-51.81)"/><rect class="cls-23" x="394.97" y="67" width="0.46" height="0.84" transform="translate(161.7 393.31) rotate(-64.06)"/><rect class="cls-23" x="385.86" y="70.62" width="0.46" height="3.74" transform="translate(245.22 439.2) rotate(-79.62)"/><rect class="cls-24" x="50.57" y="71.6" width="1.23" height="18.5"/></g></g></svg>