<svg xmlns="http://www.w3.org/2000/svg" viewBox="0 0 401.52 173.31"><defs><style>.cls-1{fill:#baff78;}.cls-2{fill:#83ff00;}.cls-3,.cls-5{fill:none;stroke-miterlimit:10;}.cls-3{stroke:#000;stroke-width:0.5px;}.cls-4,.cls-8{isolation:isolate;}.cls-5{stroke:#f30;}.cls-6{fill:#f2d5c7;}.cls-7{fill:#6b99bd;}.cls-8,.cls-9{fill:#427b99;}.cls-8{opacity:0.5;}.cls-10{fill:#428e80;}.cls-11{fill:#b55930;}.cls-12{fill:#e0e0e0;}.cls-13{fill:#c9934b;}.cls-14{fill:#896029;}.cls-15{fill:#513513;}.cls-16{fill:#3f3f3f;}.cls-17{fill:#cfaa13;}.cls-18{fill:#c36a3e;}.cls-19{fill:#8e1d21;}.cls-20{fill:#d75f5e;}.cls-21{fill:#3a3a3a;}.cls-22{fill:#fff;}.cls-23{fill:#444;}.cls-24{fill:#f30;}</style></defs><title>zoom7_1</title><g id="Layer_2" data-name="Layer 2"><g id="Layer_1-2" data-name="Layer 1"><path class="cls-1" d="M65.13,115.88H400.74c.29,0,.53.45.53,1v54.43c0,.56-.24,1-.53,1H65.13c-.29,0-.53-.46-.53-1V116.9C64.6,116.33,64.84,115.88,65.13,115.88Z"/><path class="cls-2" d="M401.27,171.33H65.6V116.89H401.52v-2H65.62a2,2,0,0,0-2,2v54.42a2,2,0,0,0,2,2H401.27Z"/><line class="cls-3" x1="77.22" y1="114.88" x2="77.22" y2="135.02"/><line class="cls-3" x1="138.36" y1="114.88" x2="138.36" y2="135.02"/><line class="cls-3" x1="199.51" y1="114.88" x2="199.51" y2="135.02"/><line class="cls-3" x1="260.65" y1="114.88" x2="260.65" y2="135.02"/><line class="cls-3" x1="321.79" y1="114.88" x2="321.79" y2="135.02"/><line class="cls-3" x1="382.93" y1="114.88" x2="382.93" y2="135.02"/><g class="cls-4"><path d="M137,141.27a6.69,6.69,0,0,1,0,7.29,3.31,3.31,0,0,1-5.46,0,6.66,6.66,0,0,1,0-7.3,3.3,3.3,0,0,1,5.46,0Zm-4.6.75a5.23,5.23,0,0,0-.73,2.91,5.41,5.41,0,0,0,.71,2.91,2.15,2.15,0,0,0,3.78,0,5.23,5.23,0,0,0,.73-2.91,5.29,5.29,0,0,0-.73-2.92,2.17,2.17,0,0,0-1.89-1.13A2.11,2.11,0,0,0,132.39,142Z"/><path d="M140.39,148.15a.9.9,0,0,1,.72.32,1.17,1.17,0,0,1,.28.82A3.73,3.73,0,0,1,140,152l-.52-.45a3.37,3.37,0,0,0,1-1.6h-.15a.91.91,0,0,1-.65-.26.91.91,0,0,1,0-1.29A.9.9,0,0,1,140.39,148.15Z"/><path d="M145.09,140h1v9.85h-1.15v-8.66l-1.7.88-.44-.83Z"/></g><g class="cls-4"><path d="M196.86,141.27a6.69,6.69,0,0,1,0,7.29,3.31,3.31,0,0,1-5.46,0,6.66,6.66,0,0,1,0-7.3,3.3,3.3,0,0,1,5.46,0Zm-4.6.75a5.23,5.23,0,0,0-.73,2.91,5.41,5.41,0,0,0,.71,2.91,2.15,2.15,0,0,0,3.78,0,5.23,5.23,0,0,0,.73-2.91A5.29,5.29,0,0,0,196,142a2.17,2.17,0,0,0-1.89-1.13A2.11,2.11,0,0,0,192.26,142Z"/><path d="M200.26,148.15a.9.9,0,0,1,.72.32,1.17,1.17,0,0,1,.28.82,3.73,3.73,0,0,1-1.37,2.72l-.52-.45a3.26,3.26,0,0,0,1-1.6h-.14a.91.91,0,0,1-.65-.26.91.91,0,0,1,0-1.29A.9.9,0,0,1,200.26,148.15Z"/><path d="M205.55,139.82a3.31,3.31,0,0,1,2.36.88,2.68,2.68,0,0,1,.84,2,3.51,3.51,0,0,1-.62,1.9,15.25,15.25,0,0,1-1.54,1.78l-2.27,2.4h4.43v1h-6.11v-.91l3-3.15a13.68,13.68,0,0,0,1.43-1.65,2.47,2.47,0,0,0,.47-1.39,1.84,1.84,0,0,0-.56-1.35,1.9,1.9,0,0,0-1.41-.52,3.1,3.1,0,0,0-2.23,1l-.65-.85A4.12,4.12,0,0,1,205.55,139.82Z"/></g><g class="cls-4"><path d="M257.72,141.27a6.69,6.69,0,0,1,0,7.29,3.31,3.31,0,0,1-5.46,0,6.66,6.66,0,0,1,0-7.3,3.3,3.3,0,0,1,5.46,0Zm-4.6.75a5.23,5.23,0,0,0-.73,2.91,5.41,5.41,0,0,0,.71,2.91,2.15,2.15,0,0,0,3.78,0,5.23,5.23,0,0,0,.73-2.91,5.29,5.29,0,0,0-.73-2.92,2.17,2.17,0,0,0-1.89-1.13A2.11,2.11,0,0,0,253.12,142Z"/><path d="M261.12,148.15a.9.9,0,0,1,.72.32,1.17,1.17,0,0,1,.28.82,3.73,3.73,0,0,1-1.37,2.72l-.52-.45a3.26,3.26,0,0,0,1-1.6h-.14a.91.91,0,0,1-.65-.26.91.91,0,0,1,0-1.29A.9.9,0,0,1,261.12,148.15Z"/><path d="M266.55,139.82a4,4,0,0,1,2.37.65,2.15,2.15,0,0,1,.93,1.84,2.25,2.25,0,0,1-1.81,2.25,3.24,3.24,0,0,1,1.55,1,2.72,2.72,0,0,1,.57,1.69,2.31,2.31,0,0,1-1,2.06,4.77,4.77,0,0,1-2.63.66,5.29,5.29,0,0,1-3.13-.85l.69-.84a4.34,4.34,0,0,0,2.37.65,3.28,3.28,0,0,0,1.86-.47,1.58,1.58,0,0,0,.69-1.38,1.78,1.78,0,0,0-.71-1.47,2.66,2.66,0,0,0-1.72-.57h-1.13v-1h1.13a2.64,2.64,0,0,0,1.49-.43,1.36,1.36,0,0,0,.6-1.19,1.32,1.32,0,0,0-.56-1.17,2.9,2.9,0,0,0-1.64-.39,4.79,4.79,0,0,0-2,.41l-.67-.82A5.75,5.75,0,0,1,266.55,139.82Z"/></g><g class="cls-4"><path d="M318.61,141.27a6.69,6.69,0,0,1,0,7.29,3.31,3.31,0,0,1-5.46,0,6.66,6.66,0,0,1,0-7.3,3.3,3.3,0,0,1,5.46,0ZM314,142a5.23,5.23,0,0,0-.73,2.91,5.41,5.41,0,0,0,.71,2.91,2.15,2.15,0,0,0,3.78,0,5.23,5.23,0,0,0,.73-2.91,5.29,5.29,0,0,0-.73-2.92,2.17,2.17,0,0,0-1.89-1.13A2.11,2.11,0,0,0,314,142Z"/><path d="M322,148.15a.9.9,0,0,1,.72.32,1.17,1.17,0,0,1,.28.82,3.73,3.73,0,0,1-1.37,2.72l-.52-.45a3.26,3.26,0,0,0,1-1.6H322a.91.91,0,0,1-.65-.26.91.91,0,0,1,0-1.29A.9.9,0,0,1,322,148.15Z"/><path d="M329.33,140h1v6.33h1.22v1h-1.22v2.55h-1.14v-2.55h-4.79v-.79Zm-.15,1.79-3.47,4.54h3.47Z"/></g><g class="cls-4"><path d="M379.86,141.27a6.69,6.69,0,0,1,0,7.29,3.31,3.31,0,0,1-5.46,0,6.66,6.66,0,0,1,0-7.3,3.3,3.3,0,0,1,5.46,0Zm-4.6.75a5.23,5.23,0,0,0-.73,2.91,5.41,5.41,0,0,0,.71,2.91,2.15,2.15,0,0,0,3.78,0,5.23,5.23,0,0,0,.73-2.91A5.29,5.29,0,0,0,379,142a2.17,2.17,0,0,0-1.89-1.13A2.11,2.11,0,0,0,375.26,142Z"/><path d="M383.26,148.15a.9.9,0,0,1,.72.32,1.17,1.17,0,0,1,.28.82,3.73,3.73,0,0,1-1.37,2.72l-.52-.45a3.26,3.26,0,0,0,1-1.6h-.14a.91.91,0,0,1-.65-.26.91.91,0,0,1,0-1.29A.9.9,0,0,1,383.26,148.15Z"/><path d="M386.5,140H392v1h-4.48l-.35,3.6a2.86,2.86,0,0,1,2.23-1,3,3,0,0,1,2.22.92,3.17,3.17,0,0,1,.91,2.32,3,3,0,0,1-1,2.32A3.54,3.54,0,0,1,389,150a4.32,4.32,0,0,1-3.4-1.59l.73-.86A3.24,3.24,0,0,0,389,149a2.32,2.32,0,0,0,1.67-.61,2.08,2.08,0,0,0,.67-1.59,2.11,2.11,0,0,0-2.17-2.21,2,2,0,0,0-2,1.24L386,145.3Z"/></g><g class="cls-4"><path d="M80,141.27a6.69,6.69,0,0,1,0,7.29,3.31,3.31,0,0,1-5.46,0,6.66,6.66,0,0,1,0-7.3,3.3,3.3,0,0,1,5.46,0Zm-4.6.75a5.23,5.23,0,0,0-.73,2.91,5.41,5.41,0,0,0,.71,2.91,2.15,2.15,0,0,0,3.78,0,5.23,5.23,0,0,0,.73-2.91,5.29,5.29,0,0,0-.73-2.92,2.17,2.17,0,0,0-1.89-1.13A2.11,2.11,0,0,0,75.39,142Z"/></g><line class="cls-3" x1="83.34" y1="114.88" x2="83.34" y2="129.54"/><line class="cls-3" x1="89.45" y1="114.88" x2="89.45" y2="129.54"/><line class="cls-3" x1="95.57" y1="114.88" x2="95.57" y2="129.54"/><line class="cls-3" x1="101.68" y1="114.88" x2="101.68" y2="129.54"/><line class="cls-3" x1="107.79" y1="114.88" x2="107.79" y2="132.33"/><line class="cls-3" x1="113.91" y1="114.88" x2="113.91" y2="129.54"/><line class="cls-3" x1="120.02" y1="114.88" x2="120.02" y2="129.54"/><line class="cls-3" x1="126.14" y1="114.88" x2="126.14" y2="129.54"/><line class="cls-3" x1="132.25" y1="114.88" x2="132.25" y2="129.54"/><line class="cls-3" x1="144.48" y1="114.88" x2="144.48" y2="129.54"/><line class="cls-3" x1="150.59" y1="114.88" x2="150.59" y2="129.54"/><line class="cls-3" x1="156.71" y1="114.88" x2="156.71" y2="129.54"/><line class="cls-3" x1="162.82" y1="114.88" x2="162.82" y2="129.54"/><line class="cls-3" x1="168.94" y1="114.88" x2="168.94" y2="132.33"/><line class="cls-3" x1="175.05" y1="114.88" x2="175.05" y2="129.54"/><line class="cls-3" x1="181.16" y1="114.88" x2="181.16" y2="129.54"/><line class="cls-3" x1="187.28" y1="114.88" x2="187.28" y2="129.54"/><line class="cls-3" x1="193.39" y1="114.88" x2="193.39" y2="129.54"/><line class="cls-3" x1="205.62" y1="114.88" x2="205.62" y2="129.54"/><line class="cls-3" x1="211.73" y1="114.88" x2="211.73" y2="129.54"/><line class="cls-3" x1="217.85" y1="114.88" x2="217.85" y2="129.54"/><line class="cls-3" x1="223.96" y1="114.88" x2="223.96" y2="129.54"/><line class="cls-3" x1="230.08" y1="114.88" x2="230.08" y2="132.33"/><line class="cls-3" x1="236.19" y1="114.88" x2="236.19" y2="129.54"/><line class="cls-3" x1="242.3" y1="114.88" x2="242.3" y2="129.54"/><line class="cls-3" x1="248.42" y1="114.88" x2="248.42" y2="129.54"/><line class="cls-3" x1="266.76" y1="114.88" x2="266.76" y2="129.54"/><line class="cls-3" x1="272.88" y1="114.88" x2="272.88" y2="129.54"/><line class="cls-3" x1="278.99" y1="114.88" x2="278.99" y2="129.54"/><line class="cls-3" x1="285.1" y1="114.88" x2="285.1" y2="129.54"/><line class="cls-3" x1="291.22" y1="114.88" x2="291.22" y2="132.33"/><line class="cls-3" x1="297.33" y1="114.88" x2="297.33" y2="129.54"/><line class="cls-3" x1="303.45" y1="114.88" x2="303.45" y2="129.54"/><line class="cls-3" x1="309.56" y1="114.88" x2="309.56" y2="129.54"/><line class="cls-3" x1="315.67" y1="114.88" x2="315.67" y2="129.54"/><line class="cls-3" x1="327.9" y1="114.88" x2="327.9" y2="129.54"/><line class="cls-3" x1="334.02" y1="114.88" x2="334.02" y2="129.54"/><line class="cls-3" x1="340.13" y1="114.88" x2="340.13" y2="129.54"/><line class="cls-3" x1="346.25" y1="114.88" x2="346.25" y2="129.54"/><line class="cls-3" x1="352.36" y1="114.88" x2="352.36" y2="132.33"/><line class="cls-3" x1="358.47" y1="114.88" x2="358.47" y2="129.54"/><line class="cls-5" x1="364.59" y1="113.03" x2="364.59" y2="129.54"/><line class="cls-3" x1="370.7" y1="114.88" x2="370.7" y2="129.54"/><line class="cls-3" x1="376.82" y1="114.88" x2="376.82" y2="129.54"/><line class="cls-3" x1="389.04" y1="114.88" x2="389.04" y2="129.54"/><line class="cls-3" x1="395.16" y1="114.88" x2="395.16" y2="129.54"/><line class="cls-3" x1="401.27" y1="114.88" x2="401.27" y2="129.54"/><line class="cls-3" x1="254.53" y1="114.88" x2="254.53" y2="129.54"/><path class="cls-6" d="M36.75,65.11s-1.83,12.53-11.45,15-15.55-1-15.55-1-1-1-2.1,1.19c0,0,8.28,5,20.43,3.09,11.79-2.81,14-17.09,14-17.09Z"/><path class="cls-6" d="M48.82,66.55S58.7,76.8,63.28,83.35a197,197,0,0,1,10.25,17.41s.85,1.45,2.34-.28l-1-1.64.09-.56S60.57,65.18,55.52,64.77Z"/><path class="cls-7" d="M39,47.92s-3.79,6.15-1.54,10.55c0,0-1.81,5.15-2.41,6.09,0,0-.73,1,2.62,3.34a16,16,0,0,0,6.88,2.6s.14.12.28-.33,1-2.24,1-2.24a42.06,42.06,0,0,1,3.91,3.76.48.48,0,0,0,.6.31.55.55,0,0,0,.22-.14s7.72-5.18,8.06-7a.25.25,0,0,0,0-.17l-8.34-7.92s1.31-5.1.7-7.44Z"/><path class="cls-8" d="M37.43,58.47S35.62,63.62,35,64.56c0,0-.73,1,2.62,3.34a16,16,0,0,0,6.88,2.6s.14.12.28-.33,1-2.24,1-2.24Z"/><path class="cls-9" d="M47.94,52.35a7.86,7.86,0,0,0,2.24,4.41,20.59,20.59,0,0,0,.7-4.94Z"/><path class="cls-10" d="M39.38,29.42s1.83,2,1.87-.27-2.31-6.73-2.31-6.73Z"/><path class="cls-6" d="M49.7,28S56,41.41,60.86,42s7.94-5.34,7.94-5.34-3.37-5.24-1.47-7.1c.73-.54,1.41,2,1.73,3.51,0,0,.22.41.85-.49.45-.65,1.21-1.95,1.7-2.82a8.36,8.36,0,0,0,.51-1.19c.12-.34.35-.69.81-.38.76.53.38,3.33-.44,3.64,0,0,2.31-.68,1,1.73,0,0,3.36.14,1.52,1.75s-3.28,2.23-4.75,2c0,0-3.11,8.84-9.88,7.91s-11.16-8.58-11.16-8.58Z"/><path class="cls-11" d="M71.65,32.36a2.8,2.8,0,0,0-.53.37,3.19,3.19,0,0,0-.45.45,1.39,1.39,0,0,0-.27.56.94.94,0,0,0,.11.59h0a1.79,1.79,0,0,0,.27.28,1.48,1.48,0,0,0,.35.19,1.61,1.61,0,0,0,.38.08,1.34,1.34,0,0,0,.4,0H72V35a3.64,3.64,0,0,0-.26.72,1.17,1.17,0,0,0,0,.74.49.49,0,0,0,.25.24,1.36,1.36,0,0,0,.36.1,3.39,3.39,0,0,0,.78,0,2.93,2.93,0,0,1-.78.1,1.69,1.69,0,0,1-.39-.08.54.54,0,0,1-.31-.28,1.25,1.25,0,0,1,0-.81,3.91,3.91,0,0,1,.26-.75l.07.09a1.55,1.55,0,0,1-.43,0,1.84,1.84,0,0,1-.42-.1,1.52,1.52,0,0,1-.38-.2,1.75,1.75,0,0,1-.29-.32h0a1.42,1.42,0,0,1-.11-.33,1,1,0,0,1,0-.34,1.35,1.35,0,0,1,.31-.59,2.27,2.27,0,0,1,.49-.44A2.5,2.5,0,0,1,71.65,32.36Z"/><path class="cls-11" d="M70,33.35a2.51,2.51,0,0,1,.51,1.14,2.22,2.22,0,0,1,0,.63,1.73,1.73,0,0,1-.26.57,3,3,0,0,0,.15-.59,2.91,2.91,0,0,0,0-.59,3,3,0,0,0-.15-.59A4.91,4.91,0,0,0,70,33.35Z"/><path class="cls-12" d="M38.94,22.42l.53,8.6s3.2,3.09.25,13L37,48.82s2.27,3.83,14.25,4.36c0,0,1.74-3.62,1.24-10.88A130.34,130.34,0,0,0,49.54,25S39.74,22.3,38.94,22.42Z"/><path class="cls-13" d="M32.39,14.64s8.38,5.08,11.52.49a28.43,28.43,0,0,1,6.71-7s1.67-5.74-4.7-7.94c-2.41-.77-5.55,1-7.44,2.46s-7.65.23-7.65.23-.21,2.93,1.82,4.52L29.91,9.69s.66,2.06,5.57,2.91Z"/><path class="cls-14" d="M32.39,14.64s5.52,3.32,9.26,2.18C44.31,16,50.72,7.4,50.72,7.4s-.36-4.09-3.63-4c-1.71-.11-7,4-7,4S36,10.61,30.91,4a5.21,5.21,0,0,0,1.78,3.47L30,9.72s.36,1.93,5.57,2.91Z"/><path class="cls-6" d="M49.85,5.39s5.92,13.35,4.73,14.12a28.08,28.08,0,0,1-7.23,2.07s-.67,1.93-.14,2.69l.58.38s.12,2.27-.78,2-3.82-2.81-3.87-3.35c0,0,1.68-.53,1.58-1.69a9.36,9.36,0,0,1-1.58-4.88,4.32,4.32,0,0,1-1.74.58,2.66,2.66,0,0,1-2.5-2.82c0-.1,0-.21,0-.31.16-2.45,2.12-1.87,2.12-1.87s1.23.44,1.2.79a14.84,14.84,0,0,0-.32-4.31s1.79-.9,2-1.81,2.9-1.57,3.56-1.58Z"/><path class="cls-15" d="M50.72,7.4a4.67,4.67,0,0,0-1.34-3.1C48,2.76,45.63,4,44.1,6.51a5.62,5.62,0,0,1-3.19,2.67A9.79,9.79,0,0,1,38,9.62c-1.37,0-2.92-.1-3.55-.62a6.31,6.31,0,0,0,4.24.93C41,9.6,43,8.61,43.91,7.16a3.23,3.23,0,0,0,.22-.41c.13-.26.92-1.1,5.62-1.3Z"/><ellipse class="cls-16" cx="46.64" cy="11.26" rx="0.69" ry="1.14" transform="translate(-1.34 11.81) rotate(-14.23)"/><ellipse class="cls-16" cx="50.58" cy="10.26" rx="0.64" ry="1.14" transform="translate(-0.97 12.75) rotate(-14.23)"/><path class="cls-17" d="M46.29,7.46a2.72,2.72,0,0,0-1.64,1.07s.46-1.33,1.5-1.3C46.44,7.3,46.29,7.46,46.29,7.46Z"/><path class="cls-17" d="M48.73,6.93a2.39,2.39,0,0,1,1.76.14s-1-.88-1.77-.38C48.54,6.87,48.73,6.93,48.73,6.93Z"/><path class="cls-18" d="M49.75,11.93a.86.86,0,0,0,.37.41.53.53,0,0,0,.25,0l.27-.08a1.09,1.09,0,0,1,.3-.07.56.56,0,0,1,.36,0,.51.51,0,0,1,.28.26,1,1,0,0,1,.11.31,1.72,1.72,0,0,1,0,.64,1,1,0,0,1-.34.58l-.15.08-.17.12h-.62l-.28-.09h.58a.88.88,0,0,0,.49-.19.74.74,0,0,0,.22-.44,1.63,1.63,0,0,0,0-.54.57.57,0,0,0-.22-.39,1.1,1.1,0,0,0-.51,0h-.3a.73.73,0,0,1-.33-.08A.81.81,0,0,1,49.75,11.93Z"/><path class="cls-18" d="M39.87,14.35a1.22,1.22,0,0,1,.29-.55,1.19,1.19,0,0,1,.54-.37h.66a.8.8,0,0,1,.27.18,1.15,1.15,0,0,1,.21.23l-.28-.12h-.27a.89.89,0,0,0-.51,0,1.28,1.28,0,0,0-.47.26A3.08,3.08,0,0,0,39.87,14.35Z"/><path class="cls-19" d="M45.08,14.35s6.7,1.67,7,1.57c0,0-1.57,4.34-4.17,3.69S44.91,14.79,45.08,14.35Z"/><path class="cls-20" d="M45.5,17s.65,2.19,2.41,2.6a1.84,1.84,0,0,0,1.5-.17S49,16.82,45.5,17Z"/><path class="cls-6" d="M39.42,23.38a30.87,30.87,0,0,1,1.74,4.8s-9.36,3.29-10.94,9.6.07,8.58,3.82,13.08c0,0,2-4.57,3.83-3.66L37,48.78l.29.36-.68.68,2.46.89s1.16.36.44,1.15c-.54.59-1,.57-1.18.52L38,52.31,35.83,52l.67,1a2.1,2.1,0,0,1,.25.57c.13.51.07,1.28-1.53,1.14a3.58,3.58,0,0,1,.64.85.61.61,0,0,1-.28.81.52.52,0,0,1-.16.06,3.85,3.85,0,0,1-1.62-.11,11.45,11.45,0,0,1-1.26-.77A1.29,1.29,0,0,1,32,54.09c.12-.4.45-.75,1.22-.77,0,0-.46-1-.32-1.33,0,0-9.58-6-6.54-14.94C29.31,28.35,39.42,23.38,39.42,23.38Z"/><path class="cls-11" d="M33.46,53.4a6.84,6.84,0,0,1,.92.59,7.9,7.9,0,0,1,.84.71,8,8,0,0,1-.92-.59A8.28,8.28,0,0,1,33.46,53.4Z"/><path class="cls-21" d="M9.87,79.18s-2-2.84-2.7-3-3.35,1.22-3.56,4a11.47,11.47,0,0,0-3.49,10s2.81,1.19,3.58.72a25.4,25.4,0,0,1,.17-4S7,82.81,8,82.9l1.41.25s.37.21.5-.28.24-1.33.24-1.33L7.65,80.38S8.44,78.52,9.87,79.18Z"/><path class="cls-21" d="M73.41,100.53s-1,.8,0,2.24A37.85,37.85,0,0,1,76,107.26c.1.43,3.51-1.29,4.38-3.65,0,0,5.69-2.21,7.66-7.26a3.18,3.18,0,0,0-3-1.65c-.84,0-2.24,3-2.66,3s-3.13,1.13-4.71,1L77.49,97s-.57-1.26-1.9-.14-.2,3.42.3,3.57S73.61,102,73.41,100.53Z"/><circle class="cls-22" cx="364.35" cy="100.72" r="10.68"/><path class="cls-23" d="M364.35,111.75a11,11,0,1,1,7.8-3.23A11,11,0,0,1,364.35,111.75Zm0-21.37a10.35,10.35,0,1,0,10.34,10.36h0a10.36,10.36,0,0,0-10.34-10.35Z"/><path class="cls-23" d="M360.72,90.86l2.45,1.5,4.91-.34V90.86A10.7,10.7,0,0,0,360.72,90.86Z"/><path class="cls-23" d="M362,96a15.63,15.63,0,0,0-3.65,1.84l-.34.58a16.9,16.9,0,0,0,.37,3.88l.45.61,3.85.75.51-.44,1.74-3.37.1-.69a32.64,32.64,0,0,0-2.49-2.76Z"/><path class="cls-23" d="M357,93.11l-1.15,3.27-.41.61-1.4,2.12A7.79,7.79,0,0,1,357,93.11Z"/><path class="cls-23" d="M369.65,99.31s1.84,2.86,1.91,3.17c.07,0,.64.2.64.2s2.05-.92,2.08-1.19c0,.21,0-3.34-.78-4.87a7.55,7.55,0,0,0-2.25-1.13l-.58.35-1,2.82Z"/><path class="cls-23" d="M354.18,103.26s1.7,1.95,2.21,2l.51.61,1.78,2.7-.86.51S353.8,106,354.18,103.26Z"/><path class="cls-23" d="M364.88,107.52l-1.4,1.91-.1.65,2.15.92a6.17,6.17,0,0,0,4.7-1.74,13.19,13.19,0,0,0-.41-2.08l-.58-.37a16.55,16.55,0,0,1-3.78.37Z"/><rect class="cls-23" x="357.82" y="96.36" width="0.69" height="3.55" transform="translate(94.62 359.77) rotate(-60.11)"/><rect class="cls-23" x="360.62" y="93.96" width="4.47" height="0.69" transform="translate(161.81 410.75) rotate(-72.14)"/><rect class="cls-23" x="368.82" y="91.03" width="0.69" height="5.46" transform="translate(32.83 272.52) rotate(-42.24)"/><rect class="cls-23" x="364.49" y="98.93" width="5.46" height="0.69" transform="translate(-7.54 34.02) rotate(-5.25)"/><rect class="cls-23" x="363.61" y="102.66" width="0.69" height="5.46" transform="translate(-3.93 196.1) rotate(-30)"/><rect class="cls-23" x="355.24" y="103.18" width="5.46" height="0.69" transform="translate(80.05 351.75) rotate(-57.9)"/><rect class="cls-23" x="367.95" y="104.39" width="5.46" height="0.69" transform="translate(103.55 382.25) rotate(-61.87)"/><rect class="cls-23" x="373.05" y="96.22" width="1.27" height="0.69" transform="translate(66.75 330.56) rotate(-51.81)"/><rect class="cls-23" x="374.1" y="100.98" width="0.69" height="1.27" transform="translate(119.27 393.88) rotate(-64.06)"/><rect class="cls-23" x="360.37" y="106.44" width="0.69" height="5.64" transform="translate(188.25 444.38) rotate(-79.62)"/><rect class="cls-24" x="76.21" y="107.93" width="1.86" height="27.87"/></g></g></svg>