<svg id="Layer_1" data-name="Layer 1" xmlns="http://www.w3.org/2000/svg" viewBox="0 0 800 800"><defs><style>.cls-1{fill:#0be020;stroke:#04bc12;stroke-width:0.5px;}.cls-1,.cls-4{stroke-miterlimit:10;}.cls-2{fill:#ff3939;}.cls-3{fill:#e20a0a;opacity:0.57;}.cls-4{fill:#fcf459;stroke:#eaea68;stroke-width:0.25px;}</style></defs><title>Frutilla</title><g id="Frutilla"><path class="cls-1" d="M242.47,54l.27,14.1C243.81,124.28,289,174.84,359.4,198.74l25.73,8.73h0c3.73-53.09-32.23-103.22-94.35-131.5Z"/><path class="cls-1" d="M393,0l8.88,11c35.37,43.7,37,108.51,4.28,167.5l-12,21.55h0c-36.66-38.53-44.3-97.71-20.06-155.25Z"/><path class="cls-1" d="M538.81,48.29l.27,14.1c1.08,56.21-42.09,108.46-111.56,135l-25.39,9.71h0c-5.76-52.91,28.26-104.38,89.24-135Z"/><path class="cls-2" d="M353.75,772.63,161,473.2c-81.78-127,7.51-294.52,158.56-297.41L473,172.85c152.37-2.92,247.84,163.63,168.32,293.64l-186.54,305C431.87,809,377.57,809.63,353.75,772.63Z"/><path class="cls-3" d="M353.75,772.63,161,473.2c-81.78-127,7.51-294.52,158.56-297.41h0a440.1,440.1,0,0,0,43.95,480.8l91.33,114.88C431.87,809,377.57,809.63,353.75,772.63Z"/><ellipse class="cls-4" cx="257.27" cy="310.61" rx="26.35" ry="6.59" transform="translate(-144.93 280.59) rotate(-46.1)"/><ellipse class="cls-4" cx="328.06" cy="309.26" rx="26.35" ry="6.59" transform="translate(-44.16 563.64) rotate(-77.66)"/><ellipse class="cls-4" cx="398.85" cy="307.9" rx="6.59" ry="26.35" transform="translate(-5.83 7.7) rotate(-1.1)"/><ellipse class="cls-4" cx="469.65" cy="306.54" rx="6.59" ry="26.35" transform="translate(-70.37 155.16) rotate(-17.47)"/><ellipse class="cls-4" cx="540.44" cy="305.19" rx="6.59" ry="26.35" transform="translate(-54.21 482.96) rotate(-46.1)"/><ellipse class="cls-4" cx="290.06" cy="389.04" rx="26.35" ry="6.59" transform="translate(-133.13 626.51) rotate(-82.59)"/><ellipse class="cls-4" cx="367.44" cy="387.56" rx="26.35" ry="6.59" transform="translate(-64.26 701.96) rotate(-82.59)"/><ellipse class="cls-4" cx="523.85" cy="384.56" rx="6.59" ry="26.35" transform="translate(-91.29 175.03) rotate(-17.47)"/><ellipse class="cls-4" cx="233.95" cy="469.17" rx="26.35" ry="6.59" transform="translate(-274.38 597.45) rotate(-77.66)"/><ellipse class="cls-4" cx="329.44" cy="467.34" rx="26.35" ry="6.59" transform="translate(-176.48 733.77) rotate(-82.59)"/><ellipse class="cls-4" cx="401.88" cy="465.95" rx="6.59" ry="26.35" transform="translate(-8.86 7.79) rotate(-1.1)"/><ellipse class="cls-4" cx="472.68" cy="464.59" rx="6.59" ry="26.35" transform="translate(-52.11 59.79) rotate(-6.86)"/><ellipse class="cls-4" cx="569.81" cy="462.73" rx="6.59" ry="26.35" transform="translate(-112.65 192.44) rotate(-17.47)"/><ellipse class="cls-4" cx="318.04" cy="559.79" rx="26.35" ry="6.59" transform="translate(-315.66 673.52) rotate(-70.57)"/><ellipse class="cls-4" cx="397.32" cy="571.44" rx="6.59" ry="26.35" transform="translate(-10.88 7.72) rotate(-1.1)"/><ellipse class="cls-4" cx="489.26" cy="556.51" rx="6.59" ry="26.35" transform="translate(-234.15 396.03) rotate(-36.17)"/><ellipse class="cls-4" cx="402.38" cy="663.58" rx="6.59" ry="26.35" transform="translate(-12.64 7.83) rotate(-1.1)"/><ellipse class="cls-4" cx="446.47" cy="386.04" rx="6.59" ry="26.35" transform="translate(-42.92 56.1) rotate(-6.86)"/></g></svg>