<svg id="Layer_1" data-name="Layer 1" xmlns="http://www.w3.org/2000/svg" viewBox="0 0 1025.36 630.96"><defs><style>.cls-1{fill:#f05023;}.cls-2{fill:none;stroke:#f05023;stroke-miterlimit:10;stroke-width:10px;}.cls-3{fill:#ffd400;}.cls-4{fill:#d1a900;}.cls-5{fill:#e52525;}.cls-6{fill:#b56f00;}.cls-7{fill:#46c638;}.cls-8{fill:#910a0a;opacity:0.3;}.cls-9{fill:#ff7f00;}.cls-10{fill:#ffab5f;}.cls-11{fill:#ff4e00;}.cls-12{fill:#b9d86c;}.cls-13{fill:#aa8b39;}.cls-14{fill:#129948;}.cls-15{fill:#a8bf60;}</style></defs><title>Fruta_Glosa_6</title><path class="cls-1" d="M397,10a2,2,0,0,1,2,2V415a2,2,0,0,1-2,2H12a2,2,0,0,1-2-2V12a2,2,0,0,1,2-2H397m0-10H12A12,12,0,0,0,0,12V415a12,12,0,0,0,12,12H397a12,12,0,0,0,12-12V12A12,12,0,0,0,397,0Z"/><path class="cls-1" d="M1013.36,42.62a2,2,0,0,1,2,2V382.38a2,2,0,0,1-2,2h-367a2,2,0,0,1-2-2V44.62a2,2,0,0,1,2-2h367m0-10h-367a12,12,0,0,0-12,12V382.38a12,12,0,0,0,12,12h367a12,12,0,0,0,12-12V44.62a12,12,0,0,0-12-12Z"/><line class="cls-2" x1="409" y1="213.5" x2="633.84" y2="213.5"/><path d="M111.45,499.31q0-10.53,4.09-15.74t12.1-5.21a16.12,16.12,0,0,1,4.34.46v3.49a14.08,14.08,0,0,0-4.3-.61q-5.73,0-8.76,3.58t-3.32,11.24h.29q2.69-4.2,8.5-4.2a10,10,0,0,1,7.58,2.91,11,11,0,0,1,2.77,7.89c0,3.71-1,6.62-3,8.75a10.84,10.84,0,0,1-8.21,3.18,10.53,10.53,0,0,1-8.79-4.16Q111.45,506.74,111.45,499.31Zm12,12.3a6.8,6.8,0,0,0,5.38-2.18,9.28,9.28,0,0,0,1.92-6.31,8.14,8.14,0,0,0-1.79-5.57,6.72,6.72,0,0,0-5.32-2,8.9,8.9,0,0,0-4,.91,7.37,7.37,0,0,0-2.91,2.49,5.68,5.68,0,0,0-1.09,3.29,11.17,11.17,0,0,0,1,4.69,8.17,8.17,0,0,0,2.77,3.44A6.87,6.87,0,0,0,123.44,511.61Z"/><path d="M166.53,491h-6.81v23.61h-4.06V491h-4.78v-1.83l4.78-1.47v-1.49q0-9.85,8.62-9.86a17.65,17.65,0,0,1,5,.85l-1,3.25a13.57,13.57,0,0,0-4-.76,3.92,3.92,0,0,0-3.4,1.53,8.54,8.54,0,0,0-1.09,4.89v1.74h6.81Z"/><path d="M183.62,487.32a16.39,16.39,0,0,1,3.2.29l-.57,3.76a14,14,0,0,0-2.93-.36,7.15,7.15,0,0,0-5.55,2.63,9.62,9.62,0,0,0-2.31,6.57v14.36h-4.05V487.81h3.34l.47,4.95h.19a11.78,11.78,0,0,1,3.59-4A8,8,0,0,1,183.62,487.32Z"/><path d="M195.63,487.81v17.36a7,7,0,0,0,1.49,4.88,6.08,6.08,0,0,0,4.66,1.61q4.2,0,6.14-2.29t1.94-7.5V487.81h4.06v26.76h-3.35L210,511h-.22a8.06,8.06,0,0,1-3.45,3,11.59,11.59,0,0,1-5,1c-3.26,0-5.69-.77-7.31-2.32s-2.43-4-2.43-7.42v-17.5Z"/><path d="M231.15,511.71a12.8,12.8,0,0,0,2.08-.16,13.18,13.18,0,0,0,1.58-.33v3.1a7.44,7.44,0,0,1-1.94.53,15.45,15.45,0,0,1-2.3.2q-7.77,0-7.77-8.17V491H219v-2l3.83-1.68,1.71-5.71h2.34v6.2h7.77V491h-7.77V506.7a5.47,5.47,0,0,0,1.15,3.72A4,4,0,0,0,231.15,511.71Z"/><path d="M256.61,514.57l-.8-3.81h-.2a11.19,11.19,0,0,1-4,3.4,12,12,0,0,1-5,.89,8.9,8.9,0,0,1-6.23-2,7.45,7.45,0,0,1-2.26-5.83q0-8.12,13-8.5l4.54-.14v-1.66a6.84,6.84,0,0,0-1.35-4.66,5.59,5.59,0,0,0-4.34-1.5,17.7,17.7,0,0,0-7.56,2.05l-1.25-3.1a19.49,19.49,0,0,1,4.33-1.68,18.66,18.66,0,0,1,4.73-.61q4.78,0,7.09,2.12t2.31,6.81v18.27Zm-9.15-2.86a8.19,8.19,0,0,0,5.94-2.08,7.68,7.68,0,0,0,2.17-5.81v-2.41l-4.06.17q-4.83.17-7,1.5a4.54,4.54,0,0,0-2.13,4.14,4.16,4.16,0,0,0,1.33,3.34A5.47,5.47,0,0,0,247.46,511.71Z"/><path d="M285.23,507.27a6.69,6.69,0,0,1-2.79,5.76q-2.78,2-7.81,2c-3.55,0-6.31-.56-8.3-1.68v-3.76a20.65,20.65,0,0,0,4.14,1.54,17.45,17.45,0,0,0,4.26.56,9.7,9.7,0,0,0,4.88-1,3.5,3.5,0,0,0,.36-5.77,21.58,21.58,0,0,0-5.29-2.62,28.93,28.93,0,0,1-5.31-2.43,7.19,7.19,0,0,1-2.34-2.36,6.49,6.49,0,0,1,1.89-8.31,12.41,12.41,0,0,1,7.3-1.89,21.41,21.41,0,0,1,8.45,1.76l-1.44,3.29a19.54,19.54,0,0,0-7.3-1.66,8.32,8.32,0,0,0-4.35.91,2.78,2.78,0,0,0-1.46,2.49,3,3,0,0,0,.55,1.83,5.45,5.45,0,0,0,1.76,1.44,42.6,42.6,0,0,0,4.69,2c3.18,1.15,5.32,2.32,6.44,3.49A6.17,6.17,0,0,1,285.23,507.27Z"/><path d="M721,514.57h-4V489.13q0-3.18.2-6c-.34.34-.73.7-1.15,1.07s-2.36,2-5.81,4.77l-2.15-2.79,9.45-7.3H721Z"/><path d="M771.33,487.81v2.56l-5,.59a8.72,8.72,0,0,1,1.22,2.23,8.49,8.49,0,0,1,.54,3.11,7.91,7.91,0,0,1-2.69,6.28,10.84,10.84,0,0,1-7.37,2.34,12.33,12.33,0,0,1-2.25-.19q-2.58,1.36-2.58,3.44a1.75,1.75,0,0,0,.9,1.62,6.56,6.56,0,0,0,3.1.53H762c2.89,0,5.12.61,6.67,1.83a6.34,6.34,0,0,1,2.33,5.32,7.6,7.6,0,0,1-3.56,6.78q-3.57,2.32-10.4,2.33-5.25,0-8.09-2a6.29,6.29,0,0,1-2.85-5.51,6.22,6.22,0,0,1,1.56-4.23,8,8,0,0,1,4.4-2.41,4.18,4.18,0,0,1-1.72-1.44,3.8,3.8,0,0,1-.7-2.27,4.32,4.32,0,0,1,.78-2.57,8.12,8.12,0,0,1,2.47-2.12,7.23,7.23,0,0,1-3.38-2.91,8.53,8.53,0,0,1-1.31-4.69,8.66,8.66,0,0,1,2.64-6.77c1.75-1.59,4.25-2.38,7.47-2.38a13.37,13.37,0,0,1,3.78.49ZM750,519.06a3.62,3.62,0,0,0,1.83,3.29,10.09,10.09,0,0,0,5.25,1.13q5.1,0,7.55-1.53a4.68,4.68,0,0,0,2.46-4.14,3.27,3.27,0,0,0-1.34-3c-.9-.56-2.58-.84-5.06-.84h-4.86a6.36,6.36,0,0,0-4.29,1.31A4.7,4.7,0,0,0,750,519.06Zm2.19-22.68a5.45,5.45,0,0,0,1.59,4.25,6.34,6.34,0,0,0,4.42,1.44c4,0,5.93-1.92,5.93-5.77q0-6-6-6a6,6,0,0,0-4.4,1.54A6.23,6.23,0,0,0,752.19,496.38Z"/><path d="M789,487.32a16.21,16.21,0,0,1,3.19.29l-.56,3.76a14,14,0,0,0-2.93-.36,7.15,7.15,0,0,0-5.55,2.63,9.62,9.62,0,0,0-2.31,6.57v14.36h-4V487.81h3.34l.47,4.95h.19a11.78,11.78,0,0,1,3.59-4A8,8,0,0,1,789,487.32Z"/><path d="M801.05,487.81v17.36a7,7,0,0,0,1.49,4.88,6.06,6.06,0,0,0,4.66,1.61q4.2,0,6.14-2.29t1.94-7.5V487.81h4.05v26.76H816L815.4,511h-.22a8.06,8.06,0,0,1-3.45,3,11.62,11.62,0,0,1-5,1q-4.89,0-7.32-2.32c-1.62-1.54-2.42-4-2.42-7.42v-17.5Z"/><path d="M840.38,515.05a11.61,11.61,0,0,1-4.77-1,9,9,0,0,1-3.63-3h-.29a37.13,37.13,0,0,1,.29,4.45v11h-4.05V487.81h3.29l.56,3.66h.2a9.38,9.38,0,0,1,3.64-3.17,11.06,11.06,0,0,1,4.76-1,9.85,9.85,0,0,1,8.21,3.64q2.89,3.63,2.9,10.2t-3,10.24A9.88,9.88,0,0,1,840.38,515.05Zm-.59-24.29q-4.1,0-5.93,2.27T832,500.26v.9q0,5.64,1.88,8.07t6,2.43a6.27,6.27,0,0,0,5.43-2.81,13.31,13.31,0,0,0,2-7.74q0-5-2-7.68A6.46,6.46,0,0,0,839.79,490.76Z"/><path d="M881.66,501.16q0,6.54-3.29,10.22t-9.11,3.67a12.07,12.07,0,0,1-6.37-1.68,11.07,11.07,0,0,1-4.3-4.83,16.85,16.85,0,0,1-1.51-7.38q0-6.54,3.27-10.19t9.08-3.65a11.31,11.31,0,0,1,8.92,3.73C880.56,493.55,881.66,496.91,881.66,501.16Zm-20.38,0q0,5.13,2.05,7.81a8.14,8.14,0,0,0,12.07,0c1.38-1.79,2.06-4.39,2.06-7.83s-.68-6-2.06-7.75a7.26,7.26,0,0,0-6.09-2.65,7.15,7.15,0,0,0-6,2.61C862,495.12,861.28,497.71,861.28,501.16Z"/><path d="M920,511h-.22q-2.81,4.07-8.4,4.07a10,10,0,0,1-8.17-3.58q-2.91-3.6-2.91-10.21T903.2,491a9.85,9.85,0,0,1,8.15-3.66,9.75,9.75,0,0,1,8.35,3.95H920l-.17-1.92-.1-1.88V476.58h4v38h-3.3Zm-8.11.68q4.15,0,6-2.26t1.87-7.29v-.85q0-5.68-1.89-8.12c-1.27-1.62-3.28-2.43-6.05-2.43a6.21,6.21,0,0,0-5.45,2.77q-1.89,2.77-1.89,7.83t1.87,7.74A6.39,6.39,0,0,0,911.86,511.66Z"/><path d="M943.7,515.05q-5.94,0-9.36-3.61t-3.43-10q0-6.48,3.18-10.28a10.6,10.6,0,0,1,8.56-3.81,10.08,10.08,0,0,1,8,3.31,12.68,12.68,0,0,1,2.93,8.73v2.56H935.1c.09,3.14.88,5.52,2.39,7.15a8.2,8.2,0,0,0,6.35,2.44,21.63,21.63,0,0,0,8.55-1.8v3.61a21.52,21.52,0,0,1-4.06,1.33A22.86,22.86,0,0,1,943.7,515.05Zm-1.1-24.34a6.62,6.62,0,0,0-5.14,2.1,9.69,9.69,0,0,0-2.26,5.81h14a8.91,8.91,0,0,0-1.71-5.87A6,6,0,0,0,942.6,490.71Z"/><path d="M743.25,559.31q0-10.53,4.09-15.74t12.09-5.21a16.15,16.15,0,0,1,4.35.46v3.49a14.12,14.12,0,0,0-4.3-.61q-5.73,0-8.76,3.58t-3.32,11.24h.29q2.68-4.2,8.5-4.2a10,10,0,0,1,7.58,2.91,11,11,0,0,1,2.77,7.89c0,3.71-1,6.62-3,8.75a10.85,10.85,0,0,1-8.22,3.18,10.56,10.56,0,0,1-8.79-4.16Q743.25,566.74,743.25,559.31Zm12,12.3a6.81,6.81,0,0,0,5.39-2.18c1.28-1.46,1.91-3.56,1.91-6.31a8.14,8.14,0,0,0-1.78-5.57,6.72,6.72,0,0,0-5.32-2,8.87,8.87,0,0,0-4,.91,7.47,7.47,0,0,0-2.92,2.49,5.74,5.74,0,0,0-1.08,3.29,11.32,11.32,0,0,0,1,4.69,8.19,8.19,0,0,0,2.78,3.44A6.84,6.84,0,0,0,755.23,571.61Z"/><path d="M798.33,551h-6.82v23.61h-4V551h-4.78v-1.83l4.78-1.47v-1.49q0-9.85,8.62-9.86a17.65,17.65,0,0,1,5,.85l-1,3.25a13.57,13.57,0,0,0-4-.76,3.91,3.91,0,0,0-3.4,1.53,8.53,8.53,0,0,0-1.1,4.89v1.74h6.82Z"/><path d="M815.42,547.32a16.21,16.21,0,0,1,3.19.29l-.56,3.76a14,14,0,0,0-2.93-.36,7.15,7.15,0,0,0-5.55,2.63,9.62,9.62,0,0,0-2.31,6.57v14.36h-4V547.81h3.34l.47,5h.19a11.68,11.68,0,0,1,3.59-4A8,8,0,0,1,815.42,547.32Z"/><path d="M827.43,547.81v17.36a7,7,0,0,0,1.49,4.88,6.06,6.06,0,0,0,4.66,1.61c2.8,0,4.84-.76,6.14-2.29s1.94-4,1.94-7.5V547.81h4.05v26.76h-3.34l-.59-3.59h-.22a8.06,8.06,0,0,1-3.45,3,11.65,11.65,0,0,1-5,1q-4.89,0-7.32-2.32c-1.62-1.54-2.42-4-2.42-7.42v-17.5Z"/><path d="M863,571.71a12.59,12.59,0,0,0,2.07-.16,13,13,0,0,0,1.59-.33v3.1a7.56,7.56,0,0,1-1.94.53,15.46,15.46,0,0,1-2.31.2q-7.75,0-7.76-8.17V551h-3.83v-2l3.83-1.68,1.71-5.71h2.34v6.2h7.77V551h-7.77V566.7a5.42,5.42,0,0,0,1.15,3.72A4,4,0,0,0,863,571.71Z"/><path d="M888.41,574.57l-.8-3.81h-.2a11.19,11.19,0,0,1-4,3.4,12.08,12.08,0,0,1-5,.89,8.94,8.94,0,0,1-6.24-2,7.48,7.48,0,0,1-2.25-5.83q0-8.11,13-8.5l4.54-.14v-1.66a6.84,6.84,0,0,0-1.35-4.66,5.59,5.59,0,0,0-4.34-1.5,17.78,17.78,0,0,0-7.57,2l-1.24-3.1a19.49,19.49,0,0,1,4.33-1.68,18.66,18.66,0,0,1,4.73-.61q4.79,0,7.09,2.12t2.31,6.81v18.27Zm-9.15-2.86a8.19,8.19,0,0,0,5.94-2.08,7.67,7.67,0,0,0,2.16-5.81v-2.41l-4.05.17c-3.22.11-5.55.61-7,1.5a4.55,4.55,0,0,0-2.14,4.14,4.19,4.19,0,0,0,1.33,3.34A5.51,5.51,0,0,0,879.26,571.71Z"/><path d="M917,567.27a6.69,6.69,0,0,1-2.79,5.76c-1.85,1.35-4.46,2-7.81,2-3.55,0-6.31-.56-8.3-1.68v-3.76a20.42,20.42,0,0,0,4.14,1.54,17.45,17.45,0,0,0,4.26.56,9.73,9.73,0,0,0,4.88-1,3.49,3.49,0,0,0,.35-5.77,21.27,21.27,0,0,0-5.28-2.62,28.93,28.93,0,0,1-5.31-2.43,7.19,7.19,0,0,1-2.34-2.36,6.49,6.49,0,0,1,1.89-8.31,12.39,12.39,0,0,1,7.3-1.89,21.36,21.36,0,0,1,8.44,1.76L915,552.37a19.46,19.46,0,0,0-7.3-1.66,8.3,8.3,0,0,0-4.34.91,2.79,2.79,0,0,0-1.47,2.49,3.1,3.1,0,0,0,.55,1.83,5.62,5.62,0,0,0,1.77,1.44,42.6,42.6,0,0,0,4.69,2c3.17,1.15,5.32,2.32,6.43,3.49A6.13,6.13,0,0,1,917,567.27Z"/><path class="cls-3" d="M177.54,35.23a11.1,11.1,0,0,1-.59,6.86,4.69,4.69,0,0,1-4,2.61c-2,.12-5.07.8-6.19,3.73C165.08,53,156.66,62,141.3,69.22c0,0-28.86,13.22-53.15-3.44a.78.78,0,0,0-1,.12L85,68.26a.78.78,0,0,0,.21,1.21c1.3.71,3.63,2.5,4.92,6.62C92,82,105.34,88.34,105.34,88.34s27.17,12.75,53.73-1.92,22.67-36.58,21.05-41.07c-.59-1.66-.47-3.3,4-7a.78.78,0,0,0-.09-1.26,27.51,27.51,0,0,0-5.46-2.72A.78.78,0,0,0,177.54,35.23Z"/><path class="cls-4" d="M131.08,93.69a66.87,66.87,0,0,1-8.87-.6,64.11,64.11,0,0,1-17-4.56c-.55-.26-13.49-6.42-15.37-12.38-1.28-4.06-3.57-5.81-4.83-6.49a1,1,0,0,1-.25-1.55L87,65.75a1,1,0,0,1,1.29-.14c12.49,8.56,26.22,9,35.54,7.92A64.19,64.19,0,0,0,141.21,69C156.88,61.66,165,52.63,166.6,48.36c1.19-3.12,4.5-3.77,6.37-3.88A4.43,4.43,0,0,0,176.75,42a10.93,10.93,0,0,0,.58-6.73h0a1,1,0,0,1,1.28-1.15,27.63,27.63,0,0,1,5.5,2.75,1,1,0,0,1,.47.77.94.94,0,0,1-.35.83c-4.51,3.8-4.44,5.33-3.91,6.8a30.31,30.31,0,0,1,.05,16.85A34.67,34.67,0,0,1,174,74.58a49.21,49.21,0,0,1-14.79,12,56.42,56.42,0,0,1-19.67,6.51A61.7,61.7,0,0,1,131.08,93.69ZM87.71,65.86a.56.56,0,0,0-.42.18L85.11,68.4a.56.56,0,0,0-.14.48.58.58,0,0,0,.29.41c1.31.71,3.7,2.53,5,6.74,1.82,5.78,15,12,15.14,12.11a63.72,63.72,0,0,0,16.86,4.53c9.19,1.23,23,1.11,36.67-6.44C170.2,80,177.27,71.87,180,62a29.9,29.9,0,0,0,0-16.59c-.69-1.93-.26-3.66,4-7.27a.54.54,0,0,0,.19-.48.57.57,0,0,0-.26-.44,27.82,27.82,0,0,0-5.41-2.7.57.57,0,0,0-.56.12.56.56,0,0,0-.17.53h0a11.34,11.34,0,0,1-.61,7A4.88,4.88,0,0,1,173,44.91c-2.16.13-4.95.85-6,3.6-1.64,4.34-9.83,13.48-25.61,20.9A65.1,65.1,0,0,1,123.86,74a58.61,58.61,0,0,1-17.2-.4A47.87,47.87,0,0,1,88,66,.5.5,0,0,0,87.71,65.86Z"/><path class="cls-4" d="M122.6,87.8c1.6.13,3.22.14,4.82.12a80.43,80.43,0,0,0,11.9-1,64.66,64.66,0,0,0,15-4.18,44.61,44.61,0,0,0,14.24-9.33A39,39,0,0,0,178.26,57q.41-1.32.72-2.67c.13-.53-.7-.76-.82-.22a39.18,39.18,0,0,1-8.88,17.29,42.37,42.37,0,0,1-13.83,9.91,61.78,61.78,0,0,1-14.87,4.54A79.06,79.06,0,0,1,128.4,87c-1.3,0-2.6,0-3.89,0-.6,0-1.23-.12-1.83-.09h-.08c-.55,0-.54.82,0,.86Z"/><ellipse class="cls-4" cx="86.73" cy="67.7" rx="2.42" ry="1.12" transform="translate(-22.07 84.1) rotate(-46.55)"/><ellipse class="cls-4" cx="181.06" cy="36.22" rx="0.79" ry="3.73" transform="translate(69.89 183.65) rotate(-64.29)"/><path class="cls-3" d="M178.06,35.31a11,11,0,0,1,.3,6.89,4.65,4.65,0,0,1-3.59,3.09c-2,.38-4.92,1.46-5.64,4.51-1.12,4.73-8.31,14.76-22.6,23.91,0,0-26.9,16.85-53.15,3.49a.78.78,0,0,0-1,.24l-1.85,2.63a.78.78,0,0,0,.36,1.18c1.38.53,3.92,2,5.74,5.92,2.63,5.65,16.71,10.16,16.71,10.16s28.6,9.13,53-8.86S184.12,49.25,181.93,45c-.8-1.57-.89-3.2,3-7.49a.78.78,0,0,0-.25-1.24,28,28,0,0,0-5.77-2A.78.78,0,0,0,178.06,35.31Z"/><path class="cls-4" d="M130.92,99.86h-.21a64.4,64.4,0,0,1-17.42-2.32c-.58-.19-14.21-4.61-16.84-10.28-1.8-3.87-4.3-5.3-5.63-5.81a1,1,0,0,1-.6-.65,1,1,0,0,1,.14-.86l1.86-2.62A1,1,0,0,1,93.48,77c13.49,6.87,27.16,5.56,36.26,3.25a64.84,64.84,0,0,0,16.68-6.73c14.58-9.33,21.44-19.34,22.5-23.78.77-3.24,4-4.32,5.81-4.67a4.47,4.47,0,0,0,3.43-2.95,10.91,10.91,0,0,0-.3-6.75h0a1,1,0,0,1,1.12-1.3,27.54,27.54,0,0,1,5.81,2,1,1,0,0,1,.57.7,1,1,0,0,1-.24.87c-4,4.35-3.71,5.86-3,7.25a30.25,30.25,0,0,1,2.23,16.7,34.4,34.4,0,0,1-4.74,13.18,49.07,49.07,0,0,1-13.1,13.85,56.55,56.55,0,0,1-18.66,9A64.1,64.1,0,0,1,130.92,99.86ZM93,77.33a.55.55,0,0,0-.46.24l-1.86,2.62a.57.57,0,0,0-.08.49.59.59,0,0,0,.34.37c1.39.53,4,2,5.87,6,2.55,5.5,16.44,10,16.58,10a64,64,0,0,0,17.3,2.3c9.27,0,23-1.88,35.53-11.14,10.34-7.61,16.29-16.61,17.68-26.74a29.87,29.87,0,0,0-2.19-16.44c-.93-1.82-.72-3.6,3.06-7.74a.58.58,0,0,0,.14-.49.57.57,0,0,0-.32-.4,27.86,27.86,0,0,0-5.72-2,.59.59,0,0,0-.54.19.58.58,0,0,0-.1.55h0a11.38,11.38,0,0,1,.31,7,4.89,4.89,0,0,1-3.76,3.24c-2.12.41-4.79,1.49-5.47,4.35-1.08,4.51-8,14.64-22.69,24a65,65,0,0,1-16.8,6.78,58.06,58.06,0,0,1-17.1,1.84,47.78,47.78,0,0,1-19.46-5.12A.58.58,0,0,0,93,77.33Z"/><path class="cls-4" d="M130.35,94.57c1.62-.08,3.25-.29,4.85-.52a81.2,81.2,0,0,0,11.63-2.54,65.19,65.19,0,0,0,14.34-6.1,44.62,44.62,0,0,0,12.92-11.12,39,39,0,0,0,7.53-17.67c.14-.88.25-1.76.35-2.65.05-.55-.8-.54-.86,0a39.25,39.25,0,0,1-6.57,18.26A42.18,42.18,0,0,1,162.1,83.85,62.21,62.21,0,0,1,148,90.26a79.88,79.88,0,0,1-11.89,2.8c-1.89.29-3.78.39-5.66.65h-.08c-.55,0-.55.88,0,.86Z"/><ellipse class="cls-4" cx="92.23" cy="79.29" rx="2.42" ry="1.12" transform="translate(-26.13 107.29) rotate(-54)"/><ellipse class="cls-4" cx="181.68" cy="35.84" rx="0.79" ry="3.73" transform="translate(90.73 197.14) rotate(-71.74)"/><path class="cls-3" d="M179.54,35.58a11,11,0,0,1,1.69,6.69A4.66,4.66,0,0,1,178.35,46c-1.87.78-4.53,2.42-4.62,5.56-.14,4.86-5.14,16.14-17.28,28,0,0-22.93,21.94-51.35,14.17a.77.77,0,0,0-.91.45l-1.29,2.94a.78.78,0,0,0,.59,1.08c1.46.24,4.25,1.17,6.82,4.64,3.72,5,18.43,6.57,18.43,6.57s29.85,3.14,50.13-19.43,9.43-42,6.43-45.7c-1.11-1.37-1.52-3,1.45-7.95a.78.78,0,0,0-.5-1.16,27.74,27.74,0,0,0-6.05-.79A.79.79,0,0,0,179.54,35.58Z"/><path class="cls-4" d="M132.56,109.79c-2.4,0-3.81-.15-3.84-.15-.61-.06-14.85-1.64-18.58-6.66-2.54-3.42-5.28-4.31-6.69-4.55a1,1,0,0,1-.71-.5,1,1,0,0,1,0-.88L104,94.11a1,1,0,0,1,1.17-.56c14.61,4,27.73-.06,36.16-4.16a64.63,64.63,0,0,0,15-10c12.39-12.09,17.08-23.28,17.22-27.85.09-3.33,3-5,4.74-5.74A4.47,4.47,0,0,0,181,42.24a11,11,0,0,0-1.66-6.55,1,1,0,0,1,0-1,1,1,0,0,1,.85-.52,27.64,27.64,0,0,1,6.1.79,1,1,0,0,1,.7.58,1,1,0,0,1-.06.9c-3,5.06-2.45,6.48-1.46,7.7A30.46,30.46,0,0,1,191,60.07a34.47,34.47,0,0,1-2,13.86,49,49,0,0,1-10,16.22,56.67,56.67,0,0,1-16.45,12.6,64.54,64.54,0,0,1-16.34,5.64A69.47,69.47,0,0,1,132.56,109.79ZM104.9,93.94a.57.57,0,0,0-.52.34l-1.28,2.94a.52.52,0,0,0,0,.5.54.54,0,0,0,.4.29c1.48.24,4.34,1.18,7,4.72,3.61,4.87,18.13,6.47,18.27,6.48A63.63,63.63,0,0,0,146.17,108c9.09-1.85,22.11-6.49,32.54-18.1,8.59-9.55,12.59-19.57,11.89-29.77a29.83,29.83,0,0,0-5.47-15.66c-1.28-1.59-1.44-3.37,1.43-8.19a.54.54,0,0,0,0-.51.58.58,0,0,0-.4-.33,27.65,27.65,0,0,0-6-.78.57.57,0,0,0-.49.3.54.54,0,0,0,0,.55,11.43,11.43,0,0,1,1.72,6.82,4.89,4.89,0,0,1-3,3.93c-2,.83-4.4,2.43-4.49,5.37-.13,4.63-4.86,16-17.34,28.14a65.33,65.33,0,0,1-15.08,10A58.35,58.35,0,0,1,125.15,95,47.71,47.71,0,0,1,105.05,94Z"/><path class="cls-4" d="M144.85,103.27c1.55-.4,3.08-.92,4.59-1.47a80.45,80.45,0,0,0,10.9-4.86,64.93,64.93,0,0,0,12.77-8.84,44.6,44.6,0,0,0,10.41-13.48,39,39,0,0,0,3.83-18.78c0-.9-.1-1.79-.19-2.69-.06-.54-.91-.55-.86,0a39.33,39.33,0,0,1-2.7,19.25,42.28,42.28,0,0,1-9.81,13.9,62,62,0,0,1-12.54,9.17,80.13,80.13,0,0,1-11.12,5.17c-1.21.45-2.44.88-3.67,1.27-.58.18-1.19.3-1.76.51l-.08,0a.43.43,0,0,0,.23.83Z"/><ellipse class="cls-4" cx="104.4" cy="96.03" rx="2.42" ry="1.12" transform="translate(-26.11 151.62) rotate(-65.68)"/><ellipse class="cls-4" cx="183.19" cy="35.37" rx="0.79" ry="3.73" transform="matrix(0.11, -0.99, 0.99, 0.11, 127.09, 213.31)"/><g id="Manzana"><ellipse class="cls-5" cx="145.9" cy="214.98" rx="26.4" ry="31.14"/><ellipse class="cls-5" cx="162.22" cy="214.98" rx="26.4" ry="31.14"/><path class="cls-6" d="M154,188.15s-2.26-9.44,3.35-14.12c0,.14,0,2.1,0,2.1s-3.77,1.81-1.64,12C155.63,188.15,155.29,189.4,154,188.15Z"/><path class="cls-7" d="M146.23,173.33h.14a8,8,0,0,1,8,8v.14a0,0,0,0,1,0,0h-.14a8,8,0,0,1-8-8v-.14A0,0,0,0,1,146.23,173.33Z"/><path class="cls-8" d="M146,183.87s-31.17,24.46,0,62.2c0,0-24.6.56-26.41-31a32.48,32.48,0,0,1,3.83-16.22c2.82-5.4,6.93-10.48,13.64-13.13S146,183.87,146,183.87Z"/></g><g id="Manzana-2" data-name="Manzana"><ellipse class="cls-5" cx="261.75" cy="76.96" rx="26.4" ry="31.14"/><ellipse class="cls-5" cx="278.07" cy="76.96" rx="26.4" ry="31.14"/><path class="cls-6" d="M269.8,50.13S267.54,40.7,273.16,36c0,.14,0,2.1,0,2.1s-3.78,1.82-1.65,12C271.48,50.13,271.15,51.39,269.8,50.13Z"/><path class="cls-7" d="M262.09,35.31h.14a8,8,0,0,1,8,8v.14a0,0,0,0,1,0,0h-.14a8,8,0,0,1-8-8v-.14A0,0,0,0,1,262.09,35.31Z"/><path class="cls-8" d="M261.81,45.85s-31.17,24.46,0,62.2c0,0-24.6.56-26.42-31a32.61,32.61,0,0,1,3.83-16.22c2.82-5.4,6.93-10.47,13.64-13.13S261.81,45.85,261.81,45.85Z"/></g><g id="Naranja"><circle class="cls-9" cx="154.13" cy="351.83" r="33.56"/><path class="cls-10" d="M175.45,369.12a26.31,26.31,0,0,0,3.63-6.38,29.93,29.93,0,0,0,2.15-15.83,31.89,31.89,0,0,0-4.15-11.48.63.63,0,0,0-1.08.63,29.08,29.08,0,0,1,4,18.65,30.39,30.39,0,0,1-4.16,11.61c-.31.5-.63,1-1,1.48l-.3.41s.06-.08,0,0c-.5.62.38,1.51.89.88Z"/><circle class="cls-11" cx="136.24" cy="335.33" r="2.64"/><circle class="cls-11" cx="131.53" cy="342.68" r="2.08"/><circle class="cls-11" cx="137.56" cy="341.92" r="1.32"/><path class="cls-7" d="M142.35,309.67h.15a8.86,8.86,0,0,1,8.86,8.86v.15a0,0,0,0,1,0,0h-.15a8.86,8.86,0,0,1-8.86-8.86v-.15A0,0,0,0,1,142.35,309.67Z"/><path class="cls-7" d="M160.22,309.67h.15a0,0,0,0,1,0,0v.15a8.86,8.86,0,0,1-8.86,8.86h-.15a0,0,0,0,1,0,0v-.15A8.86,8.86,0,0,1,160.22,309.67Z" transform="translate(311.73 628.36) rotate(180)"/></g><g id="Naranja-2" data-name="Naranja"><circle class="cls-9" cx="269.03" cy="213.81" r="33.56"/><path class="cls-10" d="M290.34,231.11a26.4,26.4,0,0,0,3.64-6.38,30,30,0,0,0,2.14-15.84A31.59,31.59,0,0,0,292,197.42a.63.63,0,0,0-1.08.63,29.06,29.06,0,0,1,4,18.64,30.27,30.27,0,0,1-4.16,11.61c-.31.51-.63,1-1,1.48l-.31.41s.07-.08,0,0c-.51.62.37,1.51.88.89Z"/><circle class="cls-11" cx="251.14" cy="197.31" r="2.64"/><circle class="cls-11" cx="246.42" cy="204.66" r="2.08"/><circle class="cls-11" cx="252.45" cy="203.9" r="1.32"/><path class="cls-7" d="M257.24,171.65h.15a8.86,8.86,0,0,1,8.86,8.86v.15a0,0,0,0,1,0,0h-.15a8.86,8.86,0,0,1-8.86-8.86v-.15A0,0,0,0,1,257.24,171.65Z"/><path class="cls-7" d="M275.11,171.65h.15a0,0,0,0,1,0,0v.15a8.86,8.86,0,0,1-8.86,8.86h-.15a0,0,0,0,1,0,0v-.15A8.86,8.86,0,0,1,275.11,171.65Z" transform="translate(541.52 352.32) rotate(180)"/></g><g id="Pera"><circle class="cls-12" cx="266.86" cy="363.94" r="21.95"/><circle class="cls-12" cx="266.86" cy="341.28" r="14.87"/><path class="cls-13" d="M266.16,330.65l3.08-21.52,3.8-.39S270.42,311,267.16,331Z"/><path class="cls-14" d="M284.12,310.64s-8.4-4.56-13.78,3.17C270.34,313.81,275.58,324,284.12,310.64Z"/><path class="cls-15" d="M266.05,326.42a18.66,18.66,0,0,0-7.46,2.65,14.59,14.59,0,0,0-5.52,17.79h0c-11.71,10.71-10.29,26.29,1,34.78.6.46,7.19,4.25,11.33,4.25h0l-.15-.23a53.61,53.61,0,0,1,.49-58.84Z"/></g><path class="cls-3" d="M803.9,58.6a11.06,11.06,0,0,1-.59,6.87,4.68,4.68,0,0,1-4,2.61c-2,.11-5.07.8-6.18,3.73C791.44,76.35,783,85.38,767.66,92.6c0,0-28.86,13.21-53.15-3.44a.77.77,0,0,0-1,.12l-2.18,2.36a.77.77,0,0,0,.2,1.21c1.3.71,3.63,2.49,4.93,6.62,1.87,5.94,15.25,12.25,15.25,12.25s27.17,12.75,53.73-1.92,22.67-36.58,21.06-41.08c-.6-1.65-.48-3.29,4-7a.78.78,0,0,0-.1-1.26,27.68,27.68,0,0,0-5.45-2.73A.79.79,0,0,0,803.9,58.6Z"/><path class="cls-4" d="M757.44,117.07a66.61,66.61,0,0,1-8.86-.6,64.26,64.26,0,0,1-17-4.56c-.55-.26-13.49-6.42-15.37-12.38-1.28-4.06-3.57-5.81-4.82-6.49a1,1,0,0,1-.51-.71,1,1,0,0,1,.25-.84l2.18-2.36a1,1,0,0,1,1.29-.15c12.49,8.57,26.22,9,35.54,7.93a64.63,64.63,0,0,0,17.4-4.51C783.24,85,791.34,76,793,71.74c1.18-3.12,4.5-3.77,6.37-3.88a4.44,4.44,0,0,0,3.78-2.48,10.91,10.91,0,0,0,.57-6.73h0A1,1,0,0,1,805,57.5a27.46,27.46,0,0,1,5.51,2.75A1,1,0,0,1,811,61a1,1,0,0,1-.35.83c-4.51,3.8-4.44,5.33-3.91,6.8a30.33,30.33,0,0,1,0,16.85A34.52,34.52,0,0,1,800.32,98a48.91,48.91,0,0,1-14.79,12,56.43,56.43,0,0,1-19.67,6.52A61.59,61.59,0,0,1,757.44,117.07ZM714.07,89.24a.58.58,0,0,0-.42.18l-2.18,2.36a.56.56,0,0,0-.14.48.54.54,0,0,0,.29.4c1.31.72,3.71,2.54,5,6.74,1.82,5.79,15,12.06,15.14,12.12a64.18,64.18,0,0,0,16.86,4.53c9.19,1.23,23,1.11,36.68-6.44,11.24-6.21,18.3-14.36,21-24.22,2-7.41.93-13.92,0-16.59-.69-1.93-.25-3.66,4-7.28a.56.56,0,0,0,.2-.47.58.58,0,0,0-.27-.44,27.82,27.82,0,0,0-5.41-2.7.56.56,0,0,0-.73.65h0a11.31,11.31,0,0,1-.61,7,4.86,4.86,0,0,1-4.14,2.73c-2.16.13-5,.85-6,3.6-1.65,4.34-9.83,13.48-25.62,20.9a65.54,65.54,0,0,1-17.53,4.55A58.18,58.18,0,0,1,733,96.93a47.58,47.58,0,0,1-18.64-7.59A.55.55,0,0,0,714.07,89.24Z"/><path class="cls-4" d="M749,111.18c1.59.13,3.21.14,4.81.12a80.56,80.56,0,0,0,11.91-1,64.94,64.94,0,0,0,15-4.18,44.72,44.72,0,0,0,14.24-9.33,39.11,39.11,0,0,0,9.73-16.42q.39-1.32.72-2.67c.12-.53-.7-.76-.83-.23a39.17,39.17,0,0,1-8.88,17.3,42.37,42.37,0,0,1-13.83,9.91A61.84,61.84,0,0,1,767,109.19a79.06,79.06,0,0,1-12.19,1.23c-1.3,0-2.59,0-3.89,0-.6,0-1.23-.12-1.82-.09H749c-.55,0-.55.81,0,.86Z"/><ellipse class="cls-4" cx="713.09" cy="91.08" rx="2.42" ry="1.12" transform="translate(156.54 546.11) rotate(-46.55)"/><ellipse class="cls-4" cx="807.42" cy="59.6" rx="0.79" ry="3.73" transform="translate(403.51 761.26) rotate(-64.29)"/><path class="cls-3" d="M804.42,58.69a11.1,11.1,0,0,1,.31,6.89,4.68,4.68,0,0,1-3.59,3.09c-2,.38-4.92,1.46-5.65,4.51-1.12,4.73-8.3,14.76-22.59,23.91,0,0-26.91,16.85-53.15,3.49a.78.78,0,0,0-1,.24l-1.86,2.62a.79.79,0,0,0,.36,1.19c1.38.53,3.92,2,5.74,5.92,2.63,5.64,16.72,10.16,16.72,10.16s28.59,9.13,53-8.87,17.73-39.21,15.55-43.45c-.81-1.57-.9-3.21,3-7.49a.78.78,0,0,0-.25-1.24,28,28,0,0,0-5.77-2A.78.78,0,0,0,804.42,58.69Z"/><path class="cls-4" d="M757.29,123.24h-.22a64.4,64.4,0,0,1-17.42-2.32c-.58-.19-14.21-4.62-16.84-10.28-1.8-3.87-4.3-5.3-5.63-5.81a1,1,0,0,1-.45-1.51l1.85-2.62a1,1,0,0,1,1.26-.31c13.5,6.87,27.17,5.56,36.26,3.25a64.64,64.64,0,0,0,16.68-6.73c14.58-9.33,21.45-19.34,22.5-23.78.77-3.24,4-4.32,5.82-4.67a4.45,4.45,0,0,0,3.42-2.95,10.84,10.84,0,0,0-.3-6.75h0a1,1,0,0,1,1.12-1.3,27.44,27.44,0,0,1,5.82,2,1,1,0,0,1,.56.7,1,1,0,0,1-.24.87c-4,4.35-3.71,5.86-3,7.25A30.35,30.35,0,0,1,810.71,85,34.24,34.24,0,0,1,806,98.17,49.06,49.06,0,0,1,792.87,112a56.45,56.45,0,0,1-18.66,9A64.08,64.08,0,0,1,757.29,123.24ZM719.4,100.71a.57.57,0,0,0-.47.24l-1.85,2.62a.51.51,0,0,0-.08.49.57.57,0,0,0,.34.37c1.39.53,4,2,5.86,6,2.55,5.49,16.44,10,16.58,10.05a64.07,64.07,0,0,0,17.3,2.3c9.28,0,23-1.88,35.54-11.14,10.34-7.61,16.28-16.61,17.67-26.74a29.88,29.88,0,0,0-2.18-16.44c-.94-1.82-.73-3.6,3-7.74a.52.52,0,0,0,.14-.49.55.55,0,0,0-.32-.4,27,27,0,0,0-5.71-2,.56.56,0,0,0-.64.74h0a11.38,11.38,0,0,1,.3,7,4.89,4.89,0,0,1-3.75,3.24c-2.13.41-4.8,1.49-5.48,4.35-1.07,4.51-8,14.64-22.69,24a65,65,0,0,1-16.79,6.78,58.11,58.11,0,0,1-17.11,1.83,47.61,47.61,0,0,1-19.46-5.11A.57.57,0,0,0,719.4,100.71Z"/><path class="cls-4" d="M756.71,118c1.63-.08,3.25-.29,4.86-.52a80.78,80.78,0,0,0,11.62-2.54,64.79,64.79,0,0,0,14.34-6.1,44.66,44.66,0,0,0,12.93-11.12A39,39,0,0,0,808,80c.14-.88.26-1.76.35-2.65.06-.55-.8-.54-.86,0a39,39,0,0,1-6.57,18.26,42.32,42.32,0,0,1-12.44,11.62,62,62,0,0,1-14.12,6.41,79.59,79.59,0,0,1-11.89,2.8c-1.88.29-3.78.39-5.66.65h-.08c-.55,0-.55.88,0,.86Z"/><ellipse class="cls-4" cx="718.59" cy="102.67" rx="2.42" ry="1.12" transform="translate(213.13 623.64) rotate(-54)"/><ellipse class="cls-4" cx="808.04" cy="59.22" rx="0.79" ry="3.73" transform="translate(498.67 808.03) rotate(-71.74)"/><path class="cls-3" d="M805.91,59a11.15,11.15,0,0,1,1.69,6.69,4.65,4.65,0,0,1-2.89,3.75c-1.87.78-4.52,2.42-4.62,5.56C800,79.82,795,91.1,782.81,103c0,0-22.93,22-51.34,14.18a.78.78,0,0,0-.92.44l-1.29,3a.78.78,0,0,0,.59,1.08c1.46.24,4.25,1.16,6.83,4.64,3.71,5,18.42,6.57,18.42,6.57S785,136,805.24,113.38s9.42-42,6.42-45.7c-1.1-1.37-1.52-3,1.45-8a.78.78,0,0,0-.5-1.16,27.65,27.65,0,0,0-6.05-.79A.78.78,0,0,0,805.91,59Z"/><path class="cls-4" d="M758.92,133.16c-2.39,0-3.81-.14-3.84-.14-.6-.07-14.85-1.64-18.57-6.66-2.55-3.42-5.29-4.32-6.69-4.55a1,1,0,0,1-.72-.5,1,1,0,0,1,0-.88l1.28-2.94a1,1,0,0,1,1.17-.56c14.61,4,27.73-.06,36.17-4.16a64.79,64.79,0,0,0,15-10C795.05,90.71,799.75,79.52,799.88,75c.1-3.33,3-5,4.75-5.74a4.46,4.46,0,0,0,2.75-3.59,10.82,10.82,0,0,0-1.66-6.55,1,1,0,0,1,0-1,1,1,0,0,1,.85-.52,27.82,27.82,0,0,1,6.11.79,1,1,0,0,1,.69.58,1,1,0,0,1-.06.9c-3,5.06-2.44,6.48-1.46,7.7a30.24,30.24,0,0,1,5.56,15.9,34.32,34.32,0,0,1-2,13.87,49,49,0,0,1-10,16.21,56.57,56.57,0,0,1-16.46,12.61,64.47,64.47,0,0,1-16.33,5.64A69.47,69.47,0,0,1,758.92,133.16Zm-27.65-15.84a.57.57,0,0,0-.52.34l-1.29,2.94a.58.58,0,0,0,0,.5.54.54,0,0,0,.41.29c1.47.24,4.33,1.18,7,4.72,3.62,4.87,18.13,6.47,18.28,6.48a63.64,63.64,0,0,0,17.41-1.25c9.08-1.85,22.1-6.49,32.54-18.1,8.58-9.55,12.58-19.57,11.89-29.77a29.92,29.92,0,0,0-5.47-15.66c-1.29-1.59-1.44-3.37,1.42-8.19a.55.55,0,0,0,0-.51.56.56,0,0,0-.4-.33,27,27,0,0,0-6-.78.56.56,0,0,0-.49.3.54.54,0,0,0,0,.55,11.35,11.35,0,0,1,1.72,6.82,4.87,4.87,0,0,1-3,3.93c-2,.83-4.4,2.43-4.48,5.37-.14,4.63-4.87,16-17.35,28.14a65.49,65.49,0,0,1-15.07,10,58.31,58.31,0,0,1-16.38,5.26,47.71,47.71,0,0,1-20.1-1.07Z"/><path class="cls-4" d="M771.21,126.65c1.56-.4,3.08-.92,4.59-1.47a81.13,81.13,0,0,0,10.91-4.86,65.16,65.16,0,0,0,12.76-8.84A44.28,44.28,0,0,0,809.88,98a39,39,0,0,0,3.83-18.78c0-.9-.1-1.8-.19-2.69,0-.54-.91-.55-.86,0A39.33,39.33,0,0,1,810,95.78a42.51,42.51,0,0,1-9.8,13.9,62.09,62.09,0,0,1-12.55,9.17A78.3,78.3,0,0,1,776.5,124c-1.22.46-2.44.89-3.68,1.28-.58.18-1.19.3-1.76.51l-.07,0a.43.43,0,0,0,.22.83Z"/><ellipse class="cls-4" cx="730.76" cy="119.41" rx="2.42" ry="1.12" transform="translate(321.02 736.16) rotate(-65.68)"/><ellipse class="cls-4" cx="809.55" cy="58.75" rx="0.79" ry="3.73" transform="translate(658.56 856.26) rotate(-83.43)"/><g id="Manzana-3" data-name="Manzana"><ellipse class="cls-5" cx="772.26" cy="214.98" rx="26.4" ry="31.14"/><ellipse class="cls-5" cx="788.58" cy="214.98" rx="26.4" ry="31.14"/><path class="cls-6" d="M780.31,188.15s-2.26-9.44,3.35-14.12c0,.14,0,2.1,0,2.1s-3.78,1.81-1.65,12C782,188.15,781.65,189.4,780.31,188.15Z"/><path class="cls-7" d="M772.59,173.33h.14a8,8,0,0,1,8,8v.14a0,0,0,0,1,0,0h-.14a8,8,0,0,1-8-8v-.14A0,0,0,0,1,772.59,173.33Z"/><path class="cls-8" d="M772.31,183.87s-31.16,24.46,0,62.2c0,0-24.59.56-26.41-31a32.61,32.61,0,0,1,3.83-16.22c2.82-5.4,6.93-10.48,13.64-13.13S772.31,183.87,772.31,183.87Z"/></g><g id="Manzana-4" data-name="Manzana"><ellipse class="cls-5" cx="888.12" cy="100.34" rx="26.4" ry="31.14"/><ellipse class="cls-5" cx="904.44" cy="100.34" rx="26.4" ry="31.14"/><path class="cls-6" d="M896.17,73.51s-2.27-9.44,3.35-14.12c0,.14,0,2.1,0,2.1s-3.77,1.82-1.65,12C897.84,73.51,897.51,74.77,896.17,73.51Z"/><path class="cls-7" d="M888.45,58.69h.14a8,8,0,0,1,8,8v.14a0,0,0,0,1,0,0h-.14a8,8,0,0,1-8-8v-.14A0,0,0,0,1,888.45,58.69Z"/><path class="cls-8" d="M888.17,69.23s-31.17,24.46,0,62.2c0,0-24.6.56-26.42-31a32.56,32.56,0,0,1,3.84-16.22c2.82-5.4,6.93-10.47,13.63-13.13S888.17,69.23,888.17,69.23Z"/></g><g id="Naranja-3" data-name="Naranja"><circle class="cls-9" cx="780.5" cy="326.9" r="33.56"/><path class="cls-10" d="M801.81,344.19a26.21,26.21,0,0,0,3.64-6.38A30,30,0,0,0,807.59,322a31.66,31.66,0,0,0-4.15-11.47.63.63,0,0,0-1.08.63,29.06,29.06,0,0,1,4,18.64,30.27,30.27,0,0,1-4.16,11.61c-.31.51-.63,1-1,1.48l-.31.42s.07-.09,0,0c-.5.62.37,1.51.88.89Z"/><circle class="cls-11" cx="762.61" cy="310.39" r="2.64"/><circle class="cls-11" cx="757.89" cy="317.74" r="2.08"/><circle class="cls-11" cx="763.92" cy="316.98" r="1.32"/><path class="cls-7" d="M768.71,284.74h.15a8.86,8.86,0,0,1,8.86,8.86v.15a0,0,0,0,1,0,0h-.15a8.86,8.86,0,0,1-8.86-8.86v-.15A0,0,0,0,1,768.71,284.74Z"/><path class="cls-7" d="M786.58,284.74h.15a0,0,0,0,1,0,0v.15a8.86,8.86,0,0,1-8.86,8.86h-.15a0,0,0,0,1,0,0v-.15A8.86,8.86,0,0,1,786.58,284.74Z" transform="translate(1564.46 578.49) rotate(180)"/></g><g id="Naranja-4" data-name="Naranja"><circle class="cls-9" cx="895.39" cy="213.81" r="33.56"/><path class="cls-10" d="M916.7,231.11a26.4,26.4,0,0,0,3.64-6.38,30,30,0,0,0,2.14-15.84,31.41,31.41,0,0,0-4.15-11.47.62.62,0,0,0-1.07.63,29.11,29.11,0,0,1,4,18.64,30.11,30.11,0,0,1-4.16,11.61c-.31.51-.63,1-1,1.48-.1.14-.2.28-.31.41,0,0,.07-.08,0,0-.5.62.38,1.51.88.89Z"/><circle class="cls-11" cx="877.5" cy="197.31" r="2.64"/><circle class="cls-11" cx="872.78" cy="204.66" r="2.08"/><circle class="cls-11" cx="878.82" cy="203.9" r="1.32"/><path class="cls-7" d="M883.6,171.65h.15a8.86,8.86,0,0,1,8.86,8.86v.15a0,0,0,0,1,0,0h-.15a8.86,8.86,0,0,1-8.86-8.86v-.15A0,0,0,0,1,883.6,171.65Z"/><path class="cls-7" d="M901.48,171.65h.15a0,0,0,0,1,0,0v.15a8.86,8.86,0,0,1-8.86,8.86h-.15a0,0,0,0,1,0,0v-.15A8.86,8.86,0,0,1,901.48,171.65Z" transform="translate(1794.25 352.32) rotate(180)"/></g><g id="Pera-2" data-name="Pera"><circle class="cls-12" cx="893.22" cy="339" r="21.95"/><circle class="cls-12" cx="893.22" cy="316.34" r="14.87"/><path class="cls-13" d="M892.53,305.72l3.07-21.53,3.8-.38s-2.62,2.25-5.88,22.24Z"/><path class="cls-14" d="M910.48,285.7s-8.4-4.56-13.78,3.17C896.7,288.87,901.94,299,910.48,285.7Z"/><path class="cls-15" d="M892.41,301.48a18.78,18.78,0,0,0-7.45,2.66,14.58,14.58,0,0,0-5.53,17.78h0c-11.7,10.71-10.29,26.29,1,34.79.61.45,7.2,4.25,11.33,4.25h0l-.15-.23a53.63,53.63,0,0,1,.49-58.84Z"/></g></svg>