<svg id="Layer_1" data-name="Layer 1" xmlns="http://www.w3.org/2000/svg" viewBox="0 0 1235.01 772.89"><defs><style>.cls-1{fill:#ffd400;}.cls-2{fill:#d1a900;}.cls-3{fill:#f05023;}.cls-4{fill:none;stroke:#f05023;stroke-miterlimit:10;stroke-width:10px;}.cls-5{fill:#e52525;}.cls-6{fill:#b56f00;}.cls-7{fill:#46c638;}.cls-8{fill:#910a0a;opacity:0.3;}.cls-9{fill:#ff7f00;}.cls-10{fill:#ffab5f;}.cls-11{fill:#ff4e00;}.cls-12{fill:#b9d86c;}.cls-13{fill:#aa8b39;}.cls-14{fill:#129948;}.cls-15{fill:#a8bf60;}</style></defs><title>Frutas_2</title><path class="cls-1" d="M163.1,30.5c.5,2.41,1,6.83-.94,10.85a7.39,7.39,0,0,1-6.26,4.11c-3.18.19-8,1.27-9.76,5.9-2.73,7.17-16,21.42-40.28,32.83,0,0-45.58,20.87-83.95-5.43a1.22,1.22,0,0,0-1.6.18l-3.45,3.73a1.24,1.24,0,0,0,.32,1.92C19.24,85.71,22.92,88.53,25,95c3,9.38,24.09,19.34,24.09,19.34s42.92,20.15,84.86-3,35.81-57.77,33.26-64.87c-.94-2.61-.75-5.2,6.27-11.11a1.23,1.23,0,0,0-.15-2,43.28,43.28,0,0,0-8.62-4.3A1.23,1.23,0,0,0,163.1,30.5Z"/><path class="cls-2" d="M89.72,122.84a105.55,105.55,0,0,1-14-1,101.42,101.42,0,0,1-26.8-7.2c-.87-.41-21.31-10.13-24.27-19.55C22.63,88.72,19,86,17,84.89a1.59,1.59,0,0,1-.8-1.13,1.53,1.53,0,0,1,.4-1.32l3.44-3.73a1.57,1.57,0,0,1,2-.23C41.83,92,63.52,92.76,78.23,91a102.24,102.24,0,0,0,27.49-7.12C130.46,72.24,143.26,58,145.83,51.24c1.87-4.92,7.1-6,10-6.12a7,7,0,0,0,6-3.92c1.9-4,1.39-8.36.92-10.63h0a1.55,1.55,0,0,1,.47-1.48,1.58,1.58,0,0,1,1.54-.34,44.06,44.06,0,0,1,8.7,4.34,1.58,1.58,0,0,1,.74,1.22,1.55,1.55,0,0,1-.55,1.32c-7.13,6-7,8.41-6.18,10.74,1.55,4.3,3.31,14.74.07,26.61a54.35,54.35,0,0,1-10.12,19.67c-5.79,7.24-13.64,13.64-23.35,19A89.38,89.38,0,0,1,103,121.94,97.27,97.27,0,0,1,89.72,122.84ZM21.22,78.89a.87.87,0,0,0-.66.28L17.11,82.9a.86.86,0,0,0-.22.75.85.85,0,0,0,.46.64c2.07,1.13,5.85,4,7.94,10.65,2.88,9.13,23.7,19,23.91,19.14a101,101,0,0,0,26.63,7.14c14.52,2,36.35,1.76,57.93-10.16,17.75-9.81,28.9-22.68,33.15-38.26,3.19-11.71,1.47-22,0-26.2-1.1-3.05-.41-5.78,6.37-11.49a.9.9,0,0,0,.32-.75.93.93,0,0,0-.42-.69,43.38,43.38,0,0,0-8.55-4.27.89.89,0,0,0-.88.19.86.86,0,0,0-.27.84h0c.49,2.35,1,6.92-1,11.06a7.71,7.71,0,0,1-6.54,4.31c-3.4.2-7.81,1.34-9.46,5.68-2.61,6.85-15.53,21.29-40.46,33a102.43,102.43,0,0,1-27.69,7.18A92,92,0,0,1,51.15,91,75.28,75.28,0,0,1,21.72,79,.91.91,0,0,0,21.22,78.89Z"/><path class="cls-2" d="M76.33,113.54c2.52.21,5.08.21,7.61.18a128.8,128.8,0,0,0,18.8-1.61,102.69,102.69,0,0,0,23.64-6.61,70.56,70.56,0,0,0,22.49-14.74,61.6,61.6,0,0,0,15.37-25.94c.42-1.39.8-2.79,1.14-4.21.2-.84-1.11-1.2-1.31-.36a62,62,0,0,1-14,27.32,67,67,0,0,1-21.85,15.66,97.73,97.73,0,0,1-23.47,7.17,125.58,125.58,0,0,1-19.25,1.94q-3.08.07-6.14,0c-1,0-1.94-.18-2.88-.14a.29.29,0,0,1-.13,0c-.87-.07-.86,1.28,0,1.36Z"/><ellipse class="cls-2" cx="19.67" cy="81.79" rx="3.82" ry="1.76" transform="translate(-53.24 39.82) rotate(-46.55)"/><ellipse class="cls-2" cx="168.65" cy="32.06" rx="1.25" ry="5.88" transform="translate(66.61 170.12) rotate(-64.29)"/><path class="cls-1" d="M163.92,30.63a17.5,17.5,0,0,1,.48,10.88,7.38,7.38,0,0,1-5.67,4.89c-3.14.6-7.77,2.3-8.92,7.12C148,61,136.7,76.83,114.13,91.29c0,0-42.49,26.61-83.95,5.5a1.22,1.22,0,0,0-1.56.39l-2.93,4.14a1.22,1.22,0,0,0,.56,1.86c2.19.84,6.2,3.16,9.08,9.36,4.14,8.92,26.39,16,26.39,16s45.17,14.41,83.75-14S173.49,52.65,170,46c-1.28-2.47-1.42-5.06,4.78-11.83a1.23,1.23,0,0,0-.41-1.95,43.56,43.56,0,0,0-9.1-3.15A1.23,1.23,0,0,0,163.92,30.63Z"/><path class="cls-2" d="M89.47,132.58h-.34a101.18,101.18,0,0,1-27.51-3.67c-.92-.29-22.44-7.28-26.6-16.23-2.84-6.11-6.79-8.37-8.89-9.18a1.55,1.55,0,0,1-.94-1,1.59,1.59,0,0,1,.22-1.37L28.34,97a1.58,1.58,0,0,1,2-.49c21.32,10.85,42.91,8.78,57.27,5.14A102.32,102.32,0,0,0,114,91c23-14.74,33.87-30.54,35.53-37.56,1.22-5.13,6.28-6.82,9.18-7.37a7,7,0,0,0,5.41-4.67c1.37-4.18.3-8.47-.47-10.66h0a1.56,1.56,0,0,1,.28-1.52,1.61,1.61,0,0,1,1.49-.54,43.85,43.85,0,0,1,9.18,3.18,1.58,1.58,0,0,1,.52,2.49c-6.29,6.87-5.86,9.25-4.73,11.45,2.09,4.06,5.18,14.19,3.52,26.37A54.24,54.24,0,0,1,166.37,93c-4.8,7.93-11.76,15.29-20.69,21.87a89.53,89.53,0,0,1-29.48,14.23A101.19,101.19,0,0,1,89.47,132.58ZM29.63,97a.9.9,0,0,0-.74.38L26,101.51a.9.9,0,0,0-.13.78.92.92,0,0,0,.54.58c2.2.84,6.33,3.2,9.26,9.52,4,8.69,26,15.81,26.19,15.88a100.83,100.83,0,0,0,27.33,3.64c14.65,0,36.27-3,56.12-17.6,16.33-12,25.72-26.23,27.92-42.23,1.64-12-1.4-22-3.45-26-1.48-2.88-1.15-5.68,4.83-12.22a.9.9,0,0,0-.29-1.41,43.43,43.43,0,0,0-9-3.13.89.89,0,0,0-.85.31.87.87,0,0,0-.16.86h0c.79,2.27,1.91,6.73.48,11.09a7.7,7.7,0,0,1-5.93,5.12c-3.35.64-7.57,2.35-8.65,6.86-1.69,7.13-12.63,23.13-35.83,38a102.93,102.93,0,0,1-26.53,10.71,91.82,91.82,0,0,1-27,2.89A75.08,75.08,0,0,1,30,97.09,1,1,0,0,0,29.63,97Z"/><path class="cls-2" d="M88.57,124.22c2.56-.11,5.12-.45,7.66-.81a126.53,126.53,0,0,0,18.36-4,103.5,103.5,0,0,0,22.65-9.63A70.54,70.54,0,0,0,157.65,92.2a61.71,61.71,0,0,0,11.89-27.91c.22-1.39.4-2.78.55-4.19.09-.86-1.26-.85-1.35,0A62,62,0,0,1,158.36,89a66.78,66.78,0,0,1-19.65,18.34,97.81,97.81,0,0,1-22.31,10.13,125.87,125.87,0,0,1-18.78,4.42c-3,.47-6,.62-8.93,1h-.12c-.87,0-.88,1.4,0,1.35Z"/><ellipse class="cls-2" cx="28.35" cy="100.09" rx="3.82" ry="1.76" transform="translate(-69.28 64.19) rotate(-54)"/><ellipse class="cls-2" cx="169.63" cy="31.46" rx="1.25" ry="5.88" transform="translate(86.61 182.7) rotate(-71.74)"/><path class="cls-1" d="M166.26,31.06c1.27,2.12,3.17,6.13,2.67,10.56a7.35,7.35,0,0,1-4.56,5.93c-3,1.23-7.14,3.83-7.29,8.78-.22,7.67-8.12,25.49-27.29,44.22,0,0-36.22,34.66-81.1,22.39a1.23,1.23,0,0,0-1.45.7l-2,4.64a1.24,1.24,0,0,0,.93,1.72c2.31.38,6.71,1.83,10.78,7.32,5.87,7.89,29.1,10.37,29.1,10.37s47.15,5,79.18-30.68,14.89-66.32,10.15-72.18c-1.74-2.17-2.4-4.67,2.29-12.56a1.23,1.23,0,0,0-.79-1.83,44.09,44.09,0,0,0-9.56-1.24A1.23,1.23,0,0,0,166.26,31.06Z"/><path class="cls-2" d="M92.05,148.26c-3.78,0-6-.23-6.06-.23-1-.1-23.45-2.59-29.34-10.51-4-5.41-8.34-6.82-10.56-7.19a1.55,1.55,0,0,1-1.13-.8,1.53,1.53,0,0,1-.06-1.38l2-4.65a1.58,1.58,0,0,1,1.85-.89c23.07,6.31,43.8-.08,57.12-6.56a102.41,102.41,0,0,0,23.65-15.75c19.56-19.1,27-36.77,27.19-44,.16-5.26,4.77-8,7.5-9.08a7,7,0,0,0,4.35-5.66c.5-4.37-1.43-8.36-2.62-10.34a1.54,1.54,0,0,1,0-1.55,1.57,1.57,0,0,1,1.34-.83,44.08,44.08,0,0,1,9.64,1.25,1.57,1.57,0,0,1,1,2.33c-4.76,8-3.87,10.25-2.31,12.17,2.87,3.56,7.95,12.85,8.79,25.12a54.45,54.45,0,0,1-3.12,21.9c-3.09,8.75-8.42,17.36-15.84,25.61a89.2,89.2,0,0,1-26,19.91,101.4,101.4,0,0,1-25.8,8.9A109.56,109.56,0,0,1,92.05,148.26Zm-43.68-25a.92.92,0,0,0-.82.54l-2,4.65a.91.91,0,0,0,0,.79.9.9,0,0,0,.65.45c2.32.38,6.84,1.86,11,7.45,5.71,7.69,28.64,10.22,28.87,10.25a101.2,101.2,0,0,0,27.5-2c14.35-2.92,34.91-10.26,51.39-28.59,13.56-15.09,19.88-30.9,18.78-47-.82-12.11-5.82-21.25-8.64-24.74-2-2.52-2.27-5.33,2.26-12.94a.92.92,0,0,0,.05-.81.88.88,0,0,0-.62-.52,43.72,43.72,0,0,0-9.48-1.23.92.92,0,0,0-.77.47.89.89,0,0,0,0,.88c1.24,2.06,3.23,6.2,2.72,10.77a7.72,7.72,0,0,1-4.77,6.21c-3.16,1.3-6.94,3.83-7.08,8.47-.22,7.32-7.69,25.2-27.4,44.45a103.08,103.08,0,0,1-23.81,15.86A91.85,91.85,0,0,1,80.35,125a75.38,75.38,0,0,1-31.75-1.68A.59.59,0,0,0,48.37,123.23Z"/><path class="cls-2" d="M111.47,138c2.45-.63,4.86-1.46,7.24-2.32A128.78,128.78,0,0,0,135.94,128a103.34,103.34,0,0,0,20.16-14,70.42,70.42,0,0,0,16.45-21.29,61.74,61.74,0,0,0,6-29.67c-.06-1.41-.16-2.83-.3-4.24-.09-.86-1.44-.87-1.36,0a62,62,0,0,1-4.26,30.4,67.07,67.07,0,0,1-15.49,22,98.26,98.26,0,0,1-19.82,14.48,125.38,125.38,0,0,1-17.55,8.16c-1.92.72-3.85,1.39-5.81,2-.91.28-1.88.48-2.77.81a.53.53,0,0,1-.12,0,.68.68,0,0,0,.36,1.31Z"/><ellipse class="cls-2" cx="47.57" cy="126.54" rx="3.82" ry="1.76" transform="translate(-87.33 117.78) rotate(-65.68)"/><ellipse class="cls-2" cx="172.02" cy="30.72" rx="1.25" ry="5.88" transform="translate(121.82 198.1) rotate(-83.43)"/><path class="cls-1" d="M163.1,507.28c.5,2.41,1,6.83-.94,10.84a7.38,7.38,0,0,1-6.26,4.12c-3.18.18-8,1.27-9.76,5.9-2.73,7.17-16,21.42-40.28,32.82,0,0-45.58,20.88-83.95-5.42a1.22,1.22,0,0,0-1.6.18l-3.45,3.73a1.24,1.24,0,0,0,.32,1.92c2.06,1.12,5.74,3.93,7.79,10.45,3,9.38,24.09,19.34,24.09,19.34s42.92,20.14,84.86-3,35.81-57.78,33.26-64.87c-.94-2.61-.75-5.2,6.27-11.11a1.23,1.23,0,0,0-.15-2,43.28,43.28,0,0,0-8.62-4.3A1.23,1.23,0,0,0,163.1,507.28Z"/><path class="cls-2" d="M89.72,599.62a105.55,105.55,0,0,1-14-1,101.42,101.42,0,0,1-26.8-7.2c-.87-.41-21.31-10.13-24.27-19.55-2-6.42-5.65-9.18-7.63-10.25a1.59,1.59,0,0,1-.8-1.13,1.53,1.53,0,0,1,.4-1.32l3.44-3.73a1.57,1.57,0,0,1,2-.23c19.73,13.53,41.42,14.27,56.13,12.52a102.24,102.24,0,0,0,27.49-7.12c24.74-11.64,37.54-25.9,40.11-32.64,1.87-4.92,7.1-5.95,10-6.12a7,7,0,0,0,6-3.92c1.9-4,1.39-8.37.92-10.63h0a1.55,1.55,0,0,1,.47-1.48,1.58,1.58,0,0,1,1.54-.34,44.06,44.06,0,0,1,8.7,4.34,1.58,1.58,0,0,1,.74,1.22,1.55,1.55,0,0,1-.55,1.32c-7.13,6-7,8.41-6.18,10.74,1.55,4.3,3.31,14.74.07,26.61a54.35,54.35,0,0,1-10.12,19.67c-5.79,7.24-13.64,13.63-23.35,19A89.38,89.38,0,0,1,103,598.72,97.27,97.27,0,0,1,89.72,599.62Zm-68.5-44a.88.88,0,0,0-.66.29l-3.45,3.73a.89.89,0,0,0,.24,1.39c2.07,1.12,5.85,4,7.94,10.65,2.88,9.13,23.7,19,23.91,19.14A101,101,0,0,0,75.83,598c14.52,1.94,36.35,1.76,57.93-10.16,17.75-9.81,28.9-22.68,33.15-38.26,3.19-11.71,1.47-22,0-26.2-1.1-3-.41-5.78,6.37-11.49a.89.89,0,0,0-.1-1.44,43.38,43.38,0,0,0-8.55-4.27.89.89,0,0,0-.88.19.86.86,0,0,0-.27.84h0c.49,2.35,1,6.91-1,11.06a7.71,7.71,0,0,1-6.54,4.31c-3.4.2-7.81,1.34-9.46,5.68-2.61,6.85-15.53,21.29-40.46,33a102.87,102.87,0,0,1-27.69,7.18,92,92,0,0,1-27.16-.63,75.43,75.43,0,0,1-29.43-12A.85.85,0,0,0,21.22,555.66Z"/><path class="cls-2" d="M76.33,590.32c2.52.21,5.08.21,7.61.18a127.44,127.44,0,0,0,18.8-1.62,102.17,102.17,0,0,0,23.64-6.6,70.56,70.56,0,0,0,22.49-14.74,61.66,61.66,0,0,0,15.37-25.94c.42-1.39.8-2.79,1.14-4.21.2-.84-1.11-1.2-1.31-.36a62,62,0,0,1-14,27.32A67,67,0,0,1,128.2,580a98.18,98.18,0,0,1-23.47,7.17,125.58,125.58,0,0,1-19.25,1.94q-3.08.07-6.14,0c-1,0-1.94-.19-2.88-.14h-.13c-.87-.07-.86,1.28,0,1.36Z"/><ellipse class="cls-2" cx="19.67" cy="558.57" rx="3.82" ry="1.76" transform="translate(-399.35 188.69) rotate(-46.55)"/><ellipse class="cls-2" cx="168.65" cy="508.84" rx="1.25" ry="5.88" transform="translate(-362.99 440.1) rotate(-64.29)"/><path class="cls-1" d="M163.92,507.41a17.5,17.5,0,0,1,.48,10.88,7.38,7.38,0,0,1-5.67,4.89c-3.14.6-7.77,2.29-8.92,7.12-1.77,7.46-13.11,23.31-35.68,37.77,0,0-42.49,26.61-83.95,5.5a1.22,1.22,0,0,0-1.56.39l-2.93,4.14a1.22,1.22,0,0,0,.56,1.86c2.19.84,6.2,3.16,9.08,9.36,4.14,8.92,26.39,16,26.39,16s45.17,14.41,83.75-14,28-61.94,24.57-68.64c-1.28-2.47-1.42-5.06,4.78-11.83a1.23,1.23,0,0,0-.41-1.95,43.56,43.56,0,0,0-9.1-3.15A1.23,1.23,0,0,0,163.92,507.41Z"/><path class="cls-2" d="M89.47,609.36h-.34a101.18,101.18,0,0,1-27.51-3.67c-.92-.29-22.44-7.28-26.6-16.23-2.84-6.11-6.79-8.37-8.89-9.18a1.58,1.58,0,0,1-.72-2.38l2.93-4.14a1.58,1.58,0,0,1,2-.49c21.32,10.85,42.91,8.78,57.27,5.14A102.32,102.32,0,0,0,114,567.78c23-14.74,33.87-30.54,35.53-37.56,1.22-5.13,6.28-6.82,9.18-7.37a7,7,0,0,0,5.41-4.67c1.37-4.18.3-8.47-.47-10.66h0a1.55,1.55,0,0,1,.28-1.52,1.61,1.61,0,0,1,1.49-.54,43.85,43.85,0,0,1,9.18,3.18,1.58,1.58,0,0,1,.52,2.49c-6.29,6.87-5.86,9.25-4.73,11.45,2.09,4.06,5.18,14.19,3.52,26.37a54.3,54.3,0,0,1-7.49,20.82c-4.8,7.93-11.76,15.29-20.69,21.87a89.53,89.53,0,0,1-29.48,14.23A101.19,101.19,0,0,1,89.47,609.36ZM29.63,573.78a.91.91,0,0,0-.74.37L26,578.29a.9.9,0,0,0-.13.78.92.92,0,0,0,.54.58c2.2.84,6.33,3.2,9.26,9.52,4,8.69,26,15.81,26.19,15.88a100.83,100.83,0,0,0,27.33,3.64c14.65,0,36.27-3,56.12-17.6,16.33-12,25.72-26.23,27.92-42.23,1.64-12-1.4-22-3.45-26-1.48-2.88-1.15-5.68,4.83-12.22a.89.89,0,0,0,.21-.78.87.87,0,0,0-.5-.63,43.43,43.43,0,0,0-9-3.13.89.89,0,0,0-.85.31.87.87,0,0,0-.16.86h0c.79,2.27,1.91,6.73.48,11.09a7.7,7.7,0,0,1-5.93,5.12c-3.35.64-7.57,2.35-8.65,6.86-1.69,7.13-12.63,23.13-35.83,38a102.93,102.93,0,0,1-26.53,10.71,91.82,91.82,0,0,1-27,2.89A75.08,75.08,0,0,1,30,573.87,1,1,0,0,0,29.63,573.78Z"/><path class="cls-2" d="M88.57,601c2.56-.12,5.12-.45,7.66-.81a127.86,127.86,0,0,0,18.36-4,103.5,103.5,0,0,0,22.65-9.63A70.42,70.42,0,0,0,157.65,569a61.63,61.63,0,0,0,11.89-27.9c.22-1.39.4-2.79.55-4.19.09-.86-1.26-.86-1.35,0a62,62,0,0,1-10.38,28.85,66.78,66.78,0,0,1-19.65,18.34A97.81,97.81,0,0,1,116.4,594.2a125.87,125.87,0,0,1-18.78,4.42c-3,.47-6,.62-8.93,1h-.12c-.87,0-.88,1.39,0,1.35Z"/><ellipse class="cls-2" cx="28.35" cy="576.87" rx="3.82" ry="1.76" transform="translate(-454.99 260.71) rotate(-54)"/><ellipse class="cls-2" cx="169.63" cy="508.24" rx="1.25" ry="5.88" transform="translate(-366.17 510.12) rotate(-71.74)"/><path class="cls-1" d="M166.26,507.84c1.27,2.12,3.17,6.13,2.67,10.56a7.35,7.35,0,0,1-4.56,5.93c-3,1.23-7.14,3.83-7.29,8.78-.22,7.67-8.12,25.49-27.29,44.21,0,0-36.22,34.67-81.1,22.4a1.23,1.23,0,0,0-1.45.7l-2,4.64a1.24,1.24,0,0,0,.93,1.72c2.31.38,6.71,1.83,10.78,7.32C62.79,622,86,624.47,86,624.47s47.15,5,79.18-30.68,14.89-66.32,10.15-72.18c-1.74-2.17-2.4-4.67,2.29-12.56a1.23,1.23,0,0,0-.79-1.83,43.48,43.48,0,0,0-9.56-1.24A1.23,1.23,0,0,0,166.26,507.84Z"/><path class="cls-2" d="M92.05,625c-3.78,0-6-.23-6.06-.23-1-.1-23.45-2.59-29.34-10.51-4-5.41-8.34-6.83-10.56-7.19a1.55,1.55,0,0,1-1.13-.8,1.53,1.53,0,0,1-.06-1.38l2-4.65a1.58,1.58,0,0,1,1.85-.89c23.07,6.31,43.8-.08,57.12-6.56a102.41,102.41,0,0,0,23.65-15.75c19.56-19.1,27-36.77,27.19-44,.16-5.26,4.77-8,7.5-9.08a7,7,0,0,0,4.35-5.66c.5-4.37-1.43-8.36-2.62-10.34a1.54,1.54,0,0,1,0-1.55,1.57,1.57,0,0,1,1.34-.83,44.08,44.08,0,0,1,9.64,1.25,1.57,1.57,0,0,1,1,2.33c-4.76,8-3.87,10.25-2.31,12.17,2.87,3.56,7.95,12.85,8.79,25.12a54.45,54.45,0,0,1-3.12,21.9c-3.09,8.74-8.42,17.36-15.84,25.61a89,89,0,0,1-26,19.9,101,101,0,0,1-25.8,8.91A109.56,109.56,0,0,1,92.05,625ZM48.37,600a.92.92,0,0,0-.82.54l-2,4.65a.89.89,0,0,0,.68,1.24c2.32.38,6.84,1.86,11,7.45,5.71,7.69,28.64,10.22,28.87,10.25a101.2,101.2,0,0,0,27.5-2c14.35-2.92,34.91-10.26,51.39-28.59,13.56-15.09,19.88-30.9,18.78-47-.82-12.11-5.82-21.25-8.64-24.74-2-2.52-2.27-5.33,2.26-12.94a.92.92,0,0,0,.05-.81.86.86,0,0,0-.62-.52,43.72,43.72,0,0,0-9.48-1.23.92.92,0,0,0-.77.47.89.89,0,0,0,0,.88c1.24,2.06,3.23,6.2,2.72,10.77a7.72,7.72,0,0,1-4.77,6.21c-3.16,1.3-6.94,3.83-7.08,8.47-.22,7.32-7.69,25.2-27.4,44.45a103.08,103.08,0,0,1-23.81,15.86,91.85,91.85,0,0,1-25.86,8.3,75.38,75.38,0,0,1-31.75-1.68A.59.59,0,0,0,48.37,600Z"/><path class="cls-2" d="M111.47,614.75c2.45-.63,4.86-1.46,7.24-2.32a128.78,128.78,0,0,0,17.23-7.67,103.34,103.34,0,0,0,20.16-14,70.42,70.42,0,0,0,16.45-21.29,61.74,61.74,0,0,0,6-29.67c-.06-1.41-.16-2.83-.3-4.24-.09-.86-1.44-.87-1.36,0a62,62,0,0,1-4.26,30.4,67.07,67.07,0,0,1-15.49,22,98.26,98.26,0,0,1-19.82,14.48,125.38,125.38,0,0,1-17.55,8.16c-1.92.72-3.85,1.39-5.81,2-.91.28-1.88.48-2.77.81l-.12,0a.68.68,0,0,0,.36,1.31Z"/><ellipse class="cls-2" cx="47.57" cy="603.32" rx="3.82" ry="1.76" transform="translate(-521.81 398.23) rotate(-65.68)"/><ellipse class="cls-2" cx="172.02" cy="507.5" rx="1.25" ry="5.88" transform="translate(-351.83 620.32) rotate(-83.43)"/><path class="cls-1" d="M356.64,30.5a17.42,17.42,0,0,1-.94,10.85,7.39,7.39,0,0,1-6.25,4.11c-3.19.19-8,1.27-9.77,5.9-2.72,7.17-16,21.42-40.28,32.83,0,0-45.58,20.87-83.95-5.43a1.23,1.23,0,0,0-1.6.18l-3.44,3.73a1.23,1.23,0,0,0,.32,1.92c2.05,1.12,5.73,3.94,7.78,10.45,3,9.38,24.09,19.34,24.09,19.34s42.92,20.15,84.87-3,35.8-57.77,33.25-64.87c-.94-2.61-.75-5.2,6.27-11.11a1.23,1.23,0,0,0-.14-2,43.56,43.56,0,0,0-8.62-4.3A1.23,1.23,0,0,0,356.64,30.5Z"/><path class="cls-2" d="M283.26,122.84a105.67,105.67,0,0,1-14-1,101.57,101.57,0,0,1-26.8-7.2c-.87-.41-21.31-10.13-24.27-19.55-2-6.42-5.64-9.18-7.62-10.25a1.57,1.57,0,0,1-.41-2.45l3.44-3.73a1.57,1.57,0,0,1,2-.23C235.38,92,257.06,92.76,271.78,91a102.24,102.24,0,0,0,27.48-7.12C324,72.24,336.8,58,339.37,51.24c1.87-4.92,7.1-6,10.06-6.12a7,7,0,0,0,6-3.92c1.9-4,1.38-8.36.91-10.63h0a1.53,1.53,0,0,1,.48-1.48,1.57,1.57,0,0,1,1.54-.34,44.62,44.62,0,0,1,8.7,4.34,1.58,1.58,0,0,1,.18,2.54c-7.12,6-7,8.41-6.17,10.74,1.54,4.3,3.3,14.74.07,26.61A54.38,54.38,0,0,1,351,92.65c-5.79,7.24-13.64,13.64-23.35,19a89.32,89.32,0,0,1-31.07,10.29A97.41,97.41,0,0,1,283.26,122.84Zm-68.5-43.95a.88.88,0,0,0-.66.28l-3.44,3.73a.87.87,0,0,0-.23.75.85.85,0,0,0,.46.64c2.07,1.13,5.85,4,7.94,10.65,2.88,9.13,23.71,19,23.92,19.14a100.65,100.65,0,0,0,26.62,7.14c14.52,2,36.35,1.76,57.93-10.16,17.75-9.81,28.91-22.68,33.15-38.26,3.19-11.71,1.47-22-.05-26.2-1.09-3.05-.4-5.78,6.37-11.49a.89.89,0,0,0-.1-1.44,43.56,43.56,0,0,0-8.54-4.27.9.9,0,0,0-.89.19.91.91,0,0,0-.27.84h0c.49,2.35,1,6.92-1,11.06a7.73,7.73,0,0,1-6.54,4.31c-3.41.2-7.82,1.34-9.47,5.68-2.6,6.85-15.52,21.29-40.45,33a102.57,102.57,0,0,1-27.69,7.18A91.94,91.94,0,0,1,244.7,91a75.26,75.26,0,0,1-29.44-12A.91.91,0,0,0,214.76,78.89Z"/><path class="cls-2" d="M269.87,113.54c2.53.21,5.08.21,7.61.18a128.8,128.8,0,0,0,18.8-1.61,102.77,102.77,0,0,0,23.65-6.61,70.78,70.78,0,0,0,22.49-14.74,61.8,61.8,0,0,0,15.37-25.94c.42-1.39.79-2.79,1.13-4.21.2-.84-1.1-1.2-1.31-.36a61.81,61.81,0,0,1-14,27.32,67,67,0,0,1-21.84,15.66,97.94,97.94,0,0,1-23.48,7.17A125.46,125.46,0,0,1,279,112.34q-3.06.07-6.14,0c-.94,0-1.94-.18-2.88-.14a.3.3,0,0,1-.13,0c-.86-.07-.86,1.28,0,1.36Z"/><ellipse class="cls-2" cx="213.21" cy="81.79" rx="3.82" ry="1.76" transform="translate(7.2 180.32) rotate(-46.55)"/><ellipse class="cls-2" cx="362.2" cy="32.06" rx="1.25" ry="5.88" transform="translate(176.2 344.51) rotate(-64.29)"/><path class="cls-1" d="M357.46,30.63c.82,2.33,1.87,6.65.48,10.88a7.38,7.38,0,0,1-5.67,4.89c-3.14.6-7.77,2.3-8.91,7.12-1.78,7.46-13.12,23.31-35.69,37.77,0,0-42.49,26.61-84,5.5a1.22,1.22,0,0,0-1.56.39l-2.93,4.14a1.22,1.22,0,0,0,.56,1.86c2.19.84,6.2,3.16,9.08,9.36,4.14,8.92,26.39,16,26.39,16s45.17,14.41,83.76-14S367,52.65,363.58,46c-1.27-2.47-1.41-5.06,4.78-11.83a1.23,1.23,0,0,0-.4-1.95A43.86,43.86,0,0,0,358.85,29,1.23,1.23,0,0,0,357.46,30.63Z"/><path class="cls-2" d="M283,132.58h-.34a101.28,101.28,0,0,1-27.51-3.67c-.91-.29-22.44-7.28-26.6-16.23-2.83-6.11-6.78-8.37-8.89-9.18a1.58,1.58,0,0,1-.72-2.38L221.88,97a1.59,1.59,0,0,1,2-.49c21.31,10.85,42.9,8.78,57.26,5.14A102.12,102.12,0,0,0,307.49,91c23-14.74,33.87-30.54,35.54-37.56,1.21-5.13,6.27-6.82,9.18-7.37a7.06,7.06,0,0,0,5.41-4.67c1.37-4.18.29-8.47-.48-10.66h0a1.54,1.54,0,0,1,.29-1.52,1.59,1.59,0,0,1,1.48-.54,44.15,44.15,0,0,1,9.19,3.18A1.57,1.57,0,0,1,369,33a1.58,1.58,0,0,1-.38,1.38c-6.29,6.87-5.86,9.25-4.73,11.45C366,49.86,369.07,60,367.4,72.17A54.24,54.24,0,0,1,359.91,93c-4.8,7.93-11.76,15.29-20.69,21.87a89.44,89.44,0,0,1-29.48,14.23A101.19,101.19,0,0,1,283,132.58ZM223.17,97a.88.88,0,0,0-.73.38l-2.94,4.13a.9.9,0,0,0-.12.78.87.87,0,0,0,.54.58c2.19.84,6.32,3.2,9.26,9.52,4,8.69,26,15.81,26.19,15.88a100.61,100.61,0,0,0,27.32,3.64c14.65,0,36.28-3,56.13-17.6,16.33-12,25.72-26.23,27.91-42.23,1.64-12-1.4-22-3.45-26-1.48-2.88-1.15-5.68,4.83-12.22a.89.89,0,0,0,.21-.78.87.87,0,0,0-.5-.63,43.43,43.43,0,0,0-9-3.13.9.9,0,0,0-1,1.17h0c.8,2.27,1.91,6.73.48,11.09a7.7,7.7,0,0,1-5.93,5.12c-3.35.64-7.57,2.35-8.64,6.86-1.7,7.13-12.64,23.13-35.84,38a103,103,0,0,1-26.52,10.71,91.89,91.89,0,0,1-27,2.89,75.12,75.12,0,0,1-30.74-8.08A.93.93,0,0,0,223.17,97Z"/><path class="cls-2" d="M282.11,124.22c2.56-.11,5.13-.45,7.67-.81a126.39,126.39,0,0,0,18.35-4,103.3,103.3,0,0,0,22.65-9.63A70.71,70.71,0,0,0,351.2,92.2a61.69,61.69,0,0,0,11.88-27.91c.22-1.39.41-2.78.55-4.19.09-.86-1.26-.85-1.35,0A61.88,61.88,0,0,1,351.9,89a66.66,66.66,0,0,1-19.65,18.34A97.74,97.74,0,0,1,310,117.42a126.46,126.46,0,0,1-18.78,4.42c-3,.47-6,.62-8.94,1h-.12c-.87,0-.87,1.4,0,1.35Z"/><ellipse class="cls-2" cx="221.9" cy="100.09" rx="3.82" ry="1.76" transform="translate(10.49 220.76) rotate(-54)"/><ellipse class="cls-2" cx="363.17" cy="31.46" rx="1.25" ry="5.88" transform="translate(219.52 366.5) rotate(-71.74)"/><path class="cls-1" d="M359.8,31.06c1.27,2.12,3.17,6.13,2.67,10.56a7.35,7.35,0,0,1-4.56,5.93c-3,1.23-7.14,3.83-7.29,8.78-.22,7.67-8.12,25.49-27.29,44.22,0,0-36.22,34.66-81.1,22.39a1.22,1.22,0,0,0-1.44.7l-2,4.64a1.24,1.24,0,0,0,.93,1.72c2.31.38,6.71,1.83,10.78,7.32,5.87,7.89,29.1,10.37,29.1,10.37s47.15,5,79.19-30.68,14.88-66.32,10.15-72.18c-1.75-2.17-2.41-4.67,2.28-12.56a1.23,1.23,0,0,0-.79-1.83,44,44,0,0,0-9.55-1.24A1.23,1.23,0,0,0,359.8,31.06Z"/><path class="cls-2" d="M285.59,148.26c-3.77,0-6-.23-6.06-.23-1-.1-23.45-2.59-29.34-10.51-4-5.41-8.34-6.82-10.56-7.19a1.57,1.57,0,0,1-1.13-.8,1.59,1.59,0,0,1-.06-1.38l2-4.65a1.57,1.57,0,0,1,1.84-.89c23.07,6.31,43.8-.08,57.12-6.56a102.13,102.13,0,0,0,23.65-15.75c19.57-19.1,27-36.77,27.2-44,.15-5.26,4.76-8,7.49-9.08a7,7,0,0,0,4.36-5.66,17.17,17.17,0,0,0-2.63-10.34,1.58,1.58,0,0,1,1.31-2.38,44.26,44.26,0,0,1,9.65,1.25,1.56,1.56,0,0,1,1.09.91,1.52,1.52,0,0,1-.09,1.42c-4.76,8-3.86,10.25-2.31,12.17,2.87,3.56,7.95,12.85,8.79,25.12a54.45,54.45,0,0,1-3.12,21.9c-3.09,8.75-8.42,17.36-15.83,25.61a89.38,89.38,0,0,1-26,19.91,101.4,101.4,0,0,1-25.8,8.9A109.56,109.56,0,0,1,285.59,148.26Zm-43.67-25a.89.89,0,0,0-.82.54l-2,4.65a.91.91,0,0,0,0,.79.9.9,0,0,0,.65.45c2.32.38,6.84,1.86,11,7.45,5.71,7.69,28.63,10.22,28.86,10.25a101.19,101.19,0,0,0,27.5-2c14.35-2.92,34.91-10.26,51.39-28.59,13.56-15.09,19.88-30.9,18.78-47-.82-12.11-5.81-21.25-8.64-24.74-2-2.52-2.27-5.33,2.26-12.94a.86.86,0,0,0,.05-.81.88.88,0,0,0-.62-.52,43.63,43.63,0,0,0-9.47-1.23.9.9,0,0,0-.77.47.87.87,0,0,0,0,.88c1.24,2.06,3.24,6.2,2.72,10.77A7.72,7.72,0,0,1,358,47.87c-3.15,1.3-6.94,3.83-7.08,8.47-.21,7.32-7.69,25.2-27.4,44.45a103.14,103.14,0,0,1-23.8,15.86,92,92,0,0,1-25.87,8.3,75.34,75.34,0,0,1-31.74-1.68A.66.66,0,0,0,241.92,123.23Z"/><path class="cls-2" d="M305,138c2.45-.63,4.86-1.46,7.24-2.32A128.78,128.78,0,0,0,329.48,128a103,103,0,0,0,20.16-14,70.26,70.26,0,0,0,16.45-21.29,61.74,61.74,0,0,0,6-29.67c-.05-1.41-.16-2.83-.3-4.24-.09-.86-1.44-.87-1.35,0a62.17,62.17,0,0,1-4.27,30.4,66.78,66.78,0,0,1-15.49,22,98.19,98.19,0,0,1-19.81,14.48,126.44,126.44,0,0,1-17.55,8.16q-2.88,1.08-5.81,2c-.91.28-1.88.48-2.78.81a.53.53,0,0,1-.12,0A.68.68,0,0,0,305,138Z"/><ellipse class="cls-2" cx="241.12" cy="126.54" rx="3.82" ry="1.76" transform="translate(26.51 294.16) rotate(-65.68)"/><ellipse class="cls-2" cx="365.57" cy="30.72" rx="1.25" ry="5.88" transform="translate(293.22 390.37) rotate(-83.43)"/><path class="cls-1" d="M356.64,507.28c.51,2.41,1,6.83-.94,10.84a7.38,7.38,0,0,1-6.25,4.12c-3.19.18-8,1.27-9.77,5.9-2.72,7.17-16,21.42-40.28,32.82,0,0-45.58,20.88-83.95-5.42a1.23,1.23,0,0,0-1.6.18l-3.44,3.73a1.23,1.23,0,0,0,.32,1.92c2.05,1.12,5.73,3.93,7.78,10.45,3,9.38,24.09,19.34,24.09,19.34s42.92,20.14,84.87-3,35.8-57.78,33.25-64.87c-.94-2.61-.75-5.2,6.27-11.11a1.23,1.23,0,0,0-.14-2,43.56,43.56,0,0,0-8.62-4.3A1.23,1.23,0,0,0,356.64,507.28Z"/><path class="cls-2" d="M283.26,599.62a105.67,105.67,0,0,1-14-1,101.57,101.57,0,0,1-26.8-7.2c-.87-.41-21.31-10.13-24.27-19.55-2-6.42-5.64-9.18-7.62-10.25a1.57,1.57,0,0,1-.41-2.45l3.44-3.73a1.57,1.57,0,0,1,2-.23c19.74,13.53,41.42,14.27,56.14,12.52a102.24,102.24,0,0,0,27.48-7.12C324,549,336.8,534.76,339.37,528c1.87-4.92,7.1-5.95,10.06-6.12a7,7,0,0,0,6-3.92c1.9-4,1.38-8.37.91-10.63h0a1.53,1.53,0,0,1,.48-1.48,1.57,1.57,0,0,1,1.54-.34,44.62,44.62,0,0,1,8.7,4.34,1.58,1.58,0,0,1,.18,2.54c-7.12,6-7,8.41-6.17,10.74,1.54,4.3,3.3,14.74.07,26.61A54.38,54.38,0,0,1,351,569.43c-5.79,7.24-13.64,13.63-23.35,19a89.32,89.32,0,0,1-31.07,10.29A97.41,97.41,0,0,1,283.26,599.62Zm-68.5-44a.89.89,0,0,0-.66.29l-3.44,3.73a.88.88,0,0,0,.23,1.39c2.07,1.12,5.85,4,7.94,10.65,2.88,9.13,23.71,19,23.92,19.14A100.65,100.65,0,0,0,269.37,598c14.52,1.94,36.35,1.76,57.93-10.16,17.75-9.81,28.91-22.68,33.15-38.26,3.19-11.71,1.47-22-.05-26.2-1.09-3-.4-5.78,6.37-11.49a.9.9,0,0,0,.32-.75.88.88,0,0,0-.42-.69,43.56,43.56,0,0,0-8.54-4.27.9.9,0,0,0-.89.19.91.91,0,0,0-.27.84h0c.49,2.35,1,6.91-1,11.06a7.73,7.73,0,0,1-6.54,4.31c-3.41.2-7.82,1.34-9.47,5.68-2.6,6.85-15.52,21.29-40.45,33a103,103,0,0,1-27.69,7.18,91.94,91.94,0,0,1-27.16-.63,75.41,75.41,0,0,1-29.44-12A.85.85,0,0,0,214.76,555.66Z"/><path class="cls-2" d="M269.87,590.32c2.53.21,5.08.21,7.61.18a127.44,127.44,0,0,0,18.8-1.62,102.25,102.25,0,0,0,23.65-6.6,70.78,70.78,0,0,0,22.49-14.74,61.86,61.86,0,0,0,15.37-25.94c.42-1.39.79-2.79,1.13-4.21.2-.84-1.1-1.2-1.31-.36a61.81,61.81,0,0,1-14,27.32A67,67,0,0,1,321.75,580a98.4,98.4,0,0,1-23.48,7.17A125.46,125.46,0,0,1,279,589.12q-3.06.07-6.14,0c-.94,0-1.94-.19-2.88-.14h-.13c-.86-.07-.86,1.28,0,1.36Z"/><ellipse class="cls-2" cx="213.21" cy="558.57" rx="3.82" ry="1.76" transform="translate(-338.92 329.19) rotate(-46.55)"/><ellipse class="cls-2" cx="362.2" cy="508.84" rx="1.25" ry="5.88" transform="translate(-253.39 614.49) rotate(-64.29)"/><path class="cls-1" d="M357.46,507.41c.82,2.33,1.87,6.65.48,10.88a7.38,7.38,0,0,1-5.67,4.89c-3.14.6-7.77,2.29-8.91,7.12-1.78,7.46-13.12,23.31-35.69,37.77,0,0-42.49,26.61-84,5.5a1.22,1.22,0,0,0-1.56.39l-2.93,4.14a1.22,1.22,0,0,0,.56,1.86c2.19.84,6.2,3.16,9.08,9.36,4.14,8.92,26.39,16,26.39,16s45.17,14.41,83.76-14,28-61.94,24.56-68.64c-1.27-2.47-1.41-5.06,4.78-11.83A1.23,1.23,0,0,0,368,509a43.86,43.86,0,0,0-9.11-3.15A1.23,1.23,0,0,0,357.46,507.41Z"/><path class="cls-2" d="M283,609.36h-.34a101.28,101.28,0,0,1-27.51-3.67c-.91-.29-22.44-7.28-26.6-16.23-2.83-6.11-6.78-8.37-8.89-9.18a1.58,1.58,0,0,1-.72-2.38l2.93-4.14a1.59,1.59,0,0,1,2-.49c21.31,10.85,42.9,8.78,57.26,5.14a102.12,102.12,0,0,0,26.35-10.63c23-14.74,33.87-30.54,35.54-37.56,1.21-5.13,6.27-6.82,9.18-7.37a7.06,7.06,0,0,0,5.41-4.67c1.37-4.18.29-8.47-.48-10.66h0a1.53,1.53,0,0,1,.29-1.52,1.59,1.59,0,0,1,1.48-.54,44.15,44.15,0,0,1,9.19,3.18,1.57,1.57,0,0,1,.89,1.11,1.58,1.58,0,0,1-.38,1.38c-6.29,6.87-5.86,9.25-4.73,11.45,2.09,4.06,5.19,14.19,3.52,26.37a54.3,54.3,0,0,1-7.49,20.82c-4.8,7.93-11.76,15.29-20.69,21.87a89.44,89.44,0,0,1-29.48,14.23A101.19,101.19,0,0,1,283,609.36Zm-59.84-35.58a.9.9,0,0,0-.73.37l-2.94,4.14a.9.9,0,0,0-.12.78.87.87,0,0,0,.54.58c2.19.84,6.32,3.2,9.26,9.52,4,8.69,26,15.81,26.19,15.88a100.61,100.61,0,0,0,27.32,3.64c14.65,0,36.28-3,56.13-17.6,16.33-12,25.72-26.23,27.91-42.23,1.64-12-1.4-22-3.45-26-1.48-2.88-1.15-5.68,4.83-12.22a.89.89,0,0,0,.21-.78.85.85,0,0,0-.5-.63,43.43,43.43,0,0,0-9-3.13.9.9,0,0,0-1,1.17h0c.8,2.27,1.91,6.73.48,11.09a7.7,7.7,0,0,1-5.93,5.12c-3.35.64-7.57,2.35-8.64,6.86-1.7,7.13-12.64,23.13-35.84,38a103,103,0,0,1-26.52,10.71,91.89,91.89,0,0,1-27,2.89,75.12,75.12,0,0,1-30.74-8.08A.93.93,0,0,0,223.17,573.78Z"/><path class="cls-2" d="M282.11,601c2.56-.12,5.13-.45,7.67-.81a127.73,127.73,0,0,0,18.35-4,103.3,103.3,0,0,0,22.65-9.63A70.59,70.59,0,0,0,351.2,569a61.61,61.61,0,0,0,11.88-27.9c.22-1.39.41-2.79.55-4.19.09-.86-1.26-.86-1.35,0a61.88,61.88,0,0,1-10.38,28.85,66.66,66.66,0,0,1-19.65,18.34A97.74,97.74,0,0,1,310,594.2a126.46,126.46,0,0,1-18.78,4.42c-3,.47-6,.62-8.94,1h-.12c-.87,0-.87,1.39,0,1.35Z"/><ellipse class="cls-2" cx="221.9" cy="576.87" rx="3.82" ry="1.76" transform="translate(-375.22 417.28) rotate(-54)"/><ellipse class="cls-2" cx="363.17" cy="508.24" rx="1.25" ry="5.88" transform="translate(-233.26 693.92) rotate(-71.74)"/><path class="cls-1" d="M359.8,507.84c1.27,2.12,3.17,6.13,2.67,10.56a7.35,7.35,0,0,1-4.56,5.93c-3,1.23-7.14,3.83-7.29,8.78-.22,7.67-8.12,25.49-27.29,44.21,0,0-36.22,34.67-81.1,22.4a1.22,1.22,0,0,0-1.44.7l-2,4.64a1.24,1.24,0,0,0,.93,1.72c2.31.38,6.71,1.83,10.78,7.32,5.87,7.89,29.1,10.37,29.1,10.37s47.15,5,79.19-30.68,14.88-66.32,10.15-72.18c-1.75-2.17-2.41-4.67,2.28-12.56a1.23,1.23,0,0,0-.79-1.83,43.39,43.39,0,0,0-9.55-1.24A1.23,1.23,0,0,0,359.8,507.84Z"/><path class="cls-2" d="M285.59,625c-3.77,0-6-.23-6.06-.23-1-.1-23.45-2.59-29.34-10.51-4-5.41-8.34-6.83-10.56-7.19a1.57,1.57,0,0,1-1.13-.8,1.59,1.59,0,0,1-.06-1.38l2-4.65a1.57,1.57,0,0,1,1.84-.89c23.07,6.31,43.8-.08,57.12-6.56a102.13,102.13,0,0,0,23.65-15.75c19.57-19.1,27-36.77,27.2-44,.15-5.26,4.76-8,7.49-9.08a7,7,0,0,0,4.36-5.66A17.17,17.17,0,0,0,359.51,508a1.58,1.58,0,0,1,1.31-2.38,44.26,44.26,0,0,1,9.65,1.25,1.54,1.54,0,0,1,1.09.91,1.52,1.52,0,0,1-.09,1.42c-4.76,8-3.86,10.25-2.31,12.17,2.87,3.56,7.95,12.85,8.79,25.12a54.45,54.45,0,0,1-3.12,21.9c-3.09,8.74-8.42,17.36-15.83,25.61a89.17,89.17,0,0,1-26,19.9,101,101,0,0,1-25.8,8.91A109.56,109.56,0,0,1,285.59,625Zm-43.67-25a.89.89,0,0,0-.82.54l-2,4.65a.89.89,0,0,0,.68,1.24c2.32.38,6.84,1.86,11,7.45,5.71,7.69,28.63,10.22,28.86,10.25a101.19,101.19,0,0,0,27.5-2c14.35-2.92,34.91-10.26,51.39-28.59,13.56-15.09,19.88-30.9,18.78-47-.82-12.11-5.81-21.25-8.64-24.74-2-2.52-2.27-5.33,2.26-12.94a.9.9,0,0,0-.57-1.33,43.63,43.63,0,0,0-9.47-1.23.9.9,0,0,0-.77.47.87.87,0,0,0,0,.88c1.24,2.06,3.24,6.2,2.72,10.77a7.72,7.72,0,0,1-4.77,6.21c-3.15,1.3-6.94,3.83-7.08,8.47-.21,7.32-7.69,25.2-27.4,44.45a103.14,103.14,0,0,1-23.8,15.86,92,92,0,0,1-25.87,8.3,75.34,75.34,0,0,1-31.74-1.68A.66.66,0,0,0,241.92,600Z"/><path class="cls-2" d="M305,614.75c2.45-.63,4.86-1.46,7.24-2.32a128.78,128.78,0,0,0,17.23-7.67,103,103,0,0,0,20.16-14,70.26,70.26,0,0,0,16.45-21.29,61.74,61.74,0,0,0,6-29.67c-.05-1.41-.16-2.83-.3-4.24-.09-.86-1.44-.87-1.35,0a62.17,62.17,0,0,1-4.27,30.4,66.78,66.78,0,0,1-15.49,22,98.19,98.19,0,0,1-19.81,14.48,126.44,126.44,0,0,1-17.55,8.16q-2.88,1.08-5.81,2c-.91.28-1.88.48-2.78.81l-.12,0a.68.68,0,0,0,.36,1.31Z"/><ellipse class="cls-2" cx="241.12" cy="603.32" rx="3.82" ry="1.76" transform="translate(-407.96 574.6) rotate(-65.68)"/><ellipse class="cls-2" cx="365.57" cy="507.5" rx="1.25" ry="5.88" transform="translate(-180.43 812.59) rotate(-83.43)"/><path class="cls-3" d="M397,10a2,2,0,0,1,2,2V760.89a2,2,0,0,1-2,2H12a2,2,0,0,1-2-2V12a2,2,0,0,1,2-2H397m0-10H12A12,12,0,0,0,0,12V760.89a12,12,0,0,0,12,12H397a12,12,0,0,0,12-12V12A12,12,0,0,0,397,0Z"/><line class="cls-4" x1="403.08" y1="249.35" x2="638.7" y2="175.8"/><line class="cls-4" x1="403.86" y1="504.09" x2="639.3" y2="592.33"/><path class="cls-1" d="M810.47,29.44a16.25,16.25,0,0,1-.87,10.11,6.88,6.88,0,0,1-5.83,3.84c-3,.17-7.47,1.18-9.11,5.5-2.54,6.69-14.95,20-37.57,30.62,0,0-42.51,19.47-78.3-5.06a1.15,1.15,0,0,0-1.49.17l-3.21,3.47a1.16,1.16,0,0,0,.3,1.8c1.92,1,5.35,3.66,7.26,9.74,2.76,8.75,22.47,18,22.47,18s40,18.79,79.15-2.83,33.39-53.88,31-60.5c-.88-2.44-.69-4.85,5.85-10.36a1.14,1.14,0,0,0-.14-1.85,40.43,40.43,0,0,0-8-4A1.15,1.15,0,0,0,810.47,29.44Z"/><path class="cls-2" d="M742,115.56a98,98,0,0,1-13.06-.89A94.75,94.75,0,0,1,704,108c-.82-.39-19.88-9.45-22.64-18.24-1.88-6-5.26-8.56-7.11-9.56a1.46,1.46,0,0,1-.38-2.28l3.21-3.48a1.47,1.47,0,0,1,1.9-.21C697.38,86.8,717.6,87.5,731.33,85.86A95,95,0,0,0,757,79.22C780,68.37,792,55.07,794.37,48.78c1.74-4.59,6.62-5.54,9.38-5.71a6.57,6.57,0,0,0,5.57-3.65,16.1,16.1,0,0,0,.85-9.92h0a1.44,1.44,0,0,1,.44-1.37,1.46,1.46,0,0,1,1.44-.32,40.85,40.85,0,0,1,8.11,4.05,1.47,1.47,0,0,1,.69,1.14,1.43,1.43,0,0,1-.52,1.22c-6.64,5.6-6.53,7.85-5.75,10,1.44,4,3.08,13.75.06,24.81A50.65,50.65,0,0,1,805.2,87.4c-5.4,6.76-12.73,12.72-21.78,17.72a83.27,83.27,0,0,1-29,9.6A90.72,90.72,0,0,1,742,115.56Zm-63.89-41a.84.84,0,0,0-.61.27l-3.22,3.48a.85.85,0,0,0-.21.7.88.88,0,0,0,.43.6c1.93,1,5.46,3.73,7.41,9.93,2.68,8.52,22.11,17.75,22.3,17.84a93.67,93.67,0,0,0,24.84,6.67c13.53,1.81,33.9,1.64,54-9.48,16.56-9.15,27-21.15,30.92-35.68,3-10.92,1.37-20.5,0-24.44-1-2.84-.37-5.39,5.95-10.71a.85.85,0,0,0,.29-.7.84.84,0,0,0-.39-.65,41.09,41.09,0,0,0-8-4,.84.84,0,0,0-.82.18.82.82,0,0,0-.26.78h0a16.64,16.64,0,0,1-.9,10.32,7.17,7.17,0,0,1-6.1,4C800.61,43.89,796.5,45,795,49c-2.43,6.38-14.48,19.85-37.73,30.78a96.25,96.25,0,0,1-25.83,6.7,85.76,85.76,0,0,1-25.33-.59,70.28,70.28,0,0,1-27.45-11.19A.82.82,0,0,0,678.15,74.56Z"/><path class="cls-2" d="M729.55,106.88c2.36.2,4.74.2,7.1.17a119.75,119.75,0,0,0,17.53-1.5,95.86,95.86,0,0,0,22.05-6.17,65.6,65.6,0,0,0,21-13.74,57.55,57.55,0,0,0,14.33-24.19c.4-1.3.74-2.61,1.06-3.93.19-.79-1-1.12-1.22-.33a57.67,57.67,0,0,1-13.07,25.47,62.64,62.64,0,0,1-20.38,14.61A91.45,91.45,0,0,1,756,104a116.31,116.31,0,0,1-17.95,1.82c-1.91,0-3.82,0-5.73,0-.88,0-1.81-.18-2.69-.13h-.12c-.81-.07-.8,1.19,0,1.26Z"/><ellipse class="cls-2" cx="676.71" cy="77.28" rx="3.56" ry="1.64" transform="translate(155.2 515.38) rotate(-46.55)"/><ellipse class="cls-2" cx="815.66" cy="30.9" rx="1.16" ry="5.49" transform="translate(434.03 752.43) rotate(-64.29)"/><path class="cls-1" d="M811.24,29.56a16.34,16.34,0,0,1,.45,10.15,6.9,6.9,0,0,1-5.29,4.56c-2.93.55-7.25,2.14-8.31,6.63-1.66,7-12.24,21.75-33.29,35.23,0,0-39.63,24.82-78.29,5.13a1.16,1.16,0,0,0-1.46.37l-2.73,3.86a1.14,1.14,0,0,0,.53,1.74c2,.78,5.78,2.94,8.46,8.72,3.87,8.32,24.62,15,24.62,15s42.12,13.44,78.11-13.06,26.13-57.76,22.91-64c-1.19-2.31-1.32-4.72,4.45-11A1.15,1.15,0,0,0,821,31a41.25,41.25,0,0,0-8.49-2.94A1.16,1.16,0,0,0,811.24,29.56Z"/><path class="cls-2" d="M741.81,124.65h-.32a94.35,94.35,0,0,1-25.66-3.43C715,121,694.9,114.43,691,106.08c-2.64-5.69-6.33-7.81-8.29-8.56a1.46,1.46,0,0,1-.67-2.22l2.74-3.86a1.47,1.47,0,0,1,1.85-.46c19.88,10.12,40,8.2,53.41,4.8a95.64,95.64,0,0,0,24.58-9.92c21.47-13.75,31.58-28.48,33.14-35,1.13-4.78,5.85-6.36,8.56-6.87a6.58,6.58,0,0,0,5-4.35,16.09,16.09,0,0,0-.45-9.95h0a1.44,1.44,0,0,1,.27-1.42,1.47,1.47,0,0,1,1.38-.5,41.36,41.36,0,0,1,8.57,3,1.47,1.47,0,0,1,.48,2.32c-5.86,6.41-5.47,8.62-4.41,10.67,1.95,3.79,4.84,13.24,3.28,24.6a50.77,50.77,0,0,1-7,19.42c-4.47,7.4-11,14.26-19.29,20.39a83.2,83.2,0,0,1-27.5,13.28A94.49,94.49,0,0,1,741.81,124.65ZM686,91.46a.83.83,0,0,0-.69.35l-2.73,3.86a.83.83,0,0,0,.38,1.26c2,.79,5.9,3,8.64,8.89,3.76,8.09,24.22,14.74,24.42,14.8A93.71,93.71,0,0,0,741.51,124c13.66,0,33.83-2.77,52.34-16.4,15.23-11.22,24-24.47,26-39.39,1.54-11.21-1.3-20.5-3.21-24.23-1.38-2.68-1.08-5.29,4.5-11.39a.83.83,0,0,0-.27-1.32,40.54,40.54,0,0,0-8.42-2.91.83.83,0,0,0-.94,1.09h0A16.7,16.7,0,0,1,812,39.8a7.21,7.21,0,0,1-5.53,4.78c-3.13.59-7.07,2.19-8.07,6.4C796.81,57.62,786.61,72.54,765,86.4a96.28,96.28,0,0,1-24.74,10A85.46,85.46,0,0,1,715,99.08a70,70,0,0,1-28.67-7.54A.83.83,0,0,0,686,91.46Z"/><path class="cls-2" d="M741,116.85c2.39-.11,4.79-.42,7.15-.76a119.45,119.45,0,0,0,17.13-3.74,96.4,96.4,0,0,0,21.12-9A66,66,0,0,0,805.4,87a57.61,57.61,0,0,0,11.08-26c.21-1.3.38-2.6.52-3.91.08-.81-1.18-.8-1.27,0A57.67,57.67,0,0,1,806.05,84a62.07,62.07,0,0,1-18.32,17.11,91.84,91.84,0,0,1-20.8,9.45,118.25,118.25,0,0,1-17.52,4.12c-2.77.43-5.56.58-8.33,1H741c-.81,0-.81,1.3,0,1.26Z"/><ellipse class="cls-2" cx="684.81" cy="94.34" rx="3.56" ry="1.64" transform="translate(205.94 592.88) rotate(-54)"/><ellipse class="cls-2" cx="816.57" cy="30.34" rx="1.16" ry="5.49" transform="translate(531.95 796.3) rotate(-71.74)"/><path class="cls-1" d="M813.43,30a16.41,16.41,0,0,1,2.49,9.85,6.89,6.89,0,0,1-4.26,5.53c-2.75,1.14-6.66,3.57-6.8,8.19-.21,7.15-7.57,23.77-25.45,41.24,0,0-33.78,32.33-75.63,20.88a1.16,1.16,0,0,0-1.36.65l-1.89,4.34a1.14,1.14,0,0,0,.87,1.59c2.15.36,6.25,1.72,10.05,6.83,5.47,7.36,27.14,9.68,27.14,9.68s44,4.63,73.85-28.62,13.88-61.85,9.47-67.32c-1.63-2-2.25-4.36,2.13-11.71a1.15,1.15,0,0,0-.74-1.71,40.4,40.4,0,0,0-8.91-1.15A1.14,1.14,0,0,0,813.43,30Z"/><path class="cls-2" d="M744.21,139.27c-3.52,0-5.6-.21-5.65-.22-.89-.09-21.87-2.41-27.36-9.8-3.75-5-7.78-6.37-9.85-6.71a1.44,1.44,0,0,1-1.06-.74,1.5,1.5,0,0,1,0-1.29l1.89-4.34a1.48,1.48,0,0,1,1.73-.82c21.52,5.88,40.84-.08,53.27-6.12a95.92,95.92,0,0,0,22.06-14.69c18.24-17.82,25.16-34.29,25.36-41,.14-4.91,4.44-7.41,7-8.47a6.54,6.54,0,0,0,4.06-5.28,16,16,0,0,0-2.45-9.64,1.47,1.47,0,0,1,1.23-2.22,41.21,41.21,0,0,1,9,1.17,1.42,1.42,0,0,1,1,.85,1.44,1.44,0,0,1-.08,1.32c-4.44,7.47-3.61,9.56-2.16,11.35,2.68,3.32,7.42,12,8.2,23.43a50.76,50.76,0,0,1-2.91,20.43c-2.88,8.15-7.85,16.18-14.77,23.88a83.25,83.25,0,0,1-24.23,18.56,94.87,94.87,0,0,1-24.07,8.31A102.6,102.6,0,0,1,744.21,139.27Zm-40.73-23.34a.85.85,0,0,0-.77.5l-1.89,4.33a.78.78,0,0,0,0,.73.81.81,0,0,0,.6.43c2.16.36,6.38,1.73,10.25,7,5.33,7.17,26.71,9.53,26.92,9.55a94,94,0,0,0,25.65-1.84c13.38-2.72,32.56-9.57,47.93-26.67,12.65-14.06,18.54-28.82,17.52-43.84C829,54.78,824.29,46.26,821.66,43c-1.9-2.35-2.12-5,2.11-12.07a.85.85,0,0,0-.54-1.24,40.6,40.6,0,0,0-8.83-1.15.84.84,0,0,0-.72.44.8.8,0,0,0,0,.82,16.72,16.72,0,0,1,2.53,10,7.2,7.2,0,0,1-4.45,5.8c-2.94,1.21-6.47,3.57-6.6,7.9C805,60.37,798,77,779.63,95a96.07,96.07,0,0,1-22.21,14.79,85.47,85.47,0,0,1-24.12,7.75A70.25,70.25,0,0,1,703.69,116Z"/><path class="cls-2" d="M762.32,129.67c2.29-.59,4.54-1.36,6.76-2.16a118.88,118.88,0,0,0,16.06-7.16,96.35,96.35,0,0,0,18.81-13,65.87,65.87,0,0,0,15.34-19.86,57.73,57.73,0,0,0,5.64-27.67c-.06-1.32-.16-2.64-.29-4-.08-.8-1.34-.81-1.26,0a57.82,57.82,0,0,1-4,28.35A62.31,62.31,0,0,1,805,104.67a91.53,91.53,0,0,1-18.48,13.51,118.51,118.51,0,0,1-16.36,7.61c-1.79.67-3.6,1.3-5.42,1.87-.85.27-1.76.45-2.59.76l-.11,0a.63.63,0,0,0,.33,1.22Z"/><ellipse class="cls-2" cx="702.73" cy="119.01" rx="3.56" ry="1.64" transform="translate(304.9 710.39) rotate(-65.68)"/><ellipse class="cls-2" cx="818.8" cy="29.64" rx="1.16" ry="5.49" transform="translate(695.66 839.67) rotate(-83.43)"/><path class="cls-1" d="M810.47,140.6a16.28,16.28,0,0,1-.87,10.12,6.9,6.9,0,0,1-5.83,3.84c-3,.17-7.47,1.18-9.11,5.5-2.54,6.69-14.95,20-37.57,30.61,0,0-42.51,19.47-78.3-5.06a1.16,1.16,0,0,0-1.49.17l-3.21,3.48a1.15,1.15,0,0,0,.3,1.79c1.92,1,5.35,3.67,7.26,9.75,2.76,8.75,22.47,18,22.47,18s40,18.78,79.15-2.83,33.39-53.88,31-60.5c-.88-2.44-.69-4.85,5.85-10.36a1.15,1.15,0,0,0-.14-1.86,39.9,39.9,0,0,0-8-4A1.15,1.15,0,0,0,810.47,140.6Z"/><path class="cls-2" d="M742,226.72a98,98,0,0,1-13.06-.88,94.51,94.51,0,0,1-25-6.72c-.82-.38-19.88-9.45-22.64-18.23-1.88-6-5.26-8.56-7.11-9.56a1.46,1.46,0,0,1-.75-1.05,1.49,1.49,0,0,1,.37-1.24l3.21-3.47a1.48,1.48,0,0,1,1.9-.22C697.38,198,717.6,198.67,731.33,197A95.93,95.93,0,0,0,757,190.39C780,179.54,792,166.24,794.37,160c1.74-4.59,6.62-5.55,9.38-5.71a6.56,6.56,0,0,0,5.57-3.66,16.08,16.08,0,0,0,.85-9.91h0a1.45,1.45,0,0,1,.44-1.38,1.48,1.48,0,0,1,1.44-.31,40.85,40.85,0,0,1,8.11,4,1.48,1.48,0,0,1,.69,1.14,1.45,1.45,0,0,1-.52,1.23c-6.64,5.59-6.53,7.84-5.75,10,1.44,4,3.08,13.75.06,24.82a50.73,50.73,0,0,1-9.44,18.35c-5.4,6.75-12.73,12.71-21.78,17.72a83.25,83.25,0,0,1-29,9.59A90.72,90.72,0,0,1,742,226.72Zm-63.89-41a.8.8,0,0,0-.61.27l-3.22,3.47a.86.86,0,0,0-.21.7.84.84,0,0,0,.43.6c1.93,1,5.46,3.73,7.41,9.93,2.68,8.52,22.11,17.76,22.3,17.85a94.13,94.13,0,0,0,24.84,6.67c13.53,1.81,33.9,1.63,54-9.49,16.56-9.14,27-21.15,30.92-35.68,3-10.91,1.37-20.49,0-24.43-1-2.84-.37-5.39,5.95-10.72a.83.83,0,0,0-.1-1.34,40.53,40.53,0,0,0-8-4,.84.84,0,0,0-1.08,1h0a16.64,16.64,0,0,1-.9,10.32,7.17,7.17,0,0,1-6.1,4c-3.17.19-7.28,1.26-8.82,5.3-2.43,6.39-14.48,19.86-37.73,30.79a96.25,96.25,0,0,1-25.83,6.7,85.42,85.42,0,0,1-25.33-.6,70.13,70.13,0,0,1-27.45-11.19A.89.89,0,0,0,678.15,185.73Z"/><path class="cls-2" d="M729.55,218.05c2.36.2,4.74.2,7.1.17a119.76,119.76,0,0,0,17.53-1.51,95.34,95.34,0,0,0,22.05-6.16,65.77,65.77,0,0,0,21-13.74,57.52,57.52,0,0,0,14.33-24.2c.4-1.29.74-2.6,1.06-3.92.19-.79-1-1.13-1.22-.34a57.76,57.76,0,0,1-13.07,25.48,62.46,62.46,0,0,1-20.38,14.6A91,91,0,0,1,756,215.12a117.54,117.54,0,0,1-17.95,1.81c-1.91,0-3.82,0-5.73,0-.88,0-1.81-.17-2.69-.13a.48.48,0,0,1-.12,0c-.81-.07-.8,1.19,0,1.26Z"/><ellipse class="cls-2" cx="676.71" cy="188.44" rx="3.56" ry="1.64" transform="translate(74.5 550.09) rotate(-46.55)"/><ellipse class="cls-2" cx="815.66" cy="142.06" rx="1.16" ry="5.49" transform="translate(333.87 815.38) rotate(-64.29)"/><path class="cls-1" d="M811.24,140.73a16.31,16.31,0,0,1,.45,10.14,6.88,6.88,0,0,1-5.29,4.56c-2.93.56-7.25,2.14-8.31,6.64-1.66,7-12.24,21.75-33.29,35.23,0,0-39.63,24.81-78.29,5.13a1.15,1.15,0,0,0-1.46.36l-2.73,3.86a1.14,1.14,0,0,0,.53,1.74c2,.79,5.78,3,8.46,8.72,3.87,8.32,24.62,15,24.62,15S758.05,245.53,794,219s26.13-57.76,22.91-64c-1.19-2.3-1.32-4.72,4.45-11a1.15,1.15,0,0,0-.37-1.82,40.66,40.66,0,0,0-8.49-2.94A1.16,1.16,0,0,0,811.24,140.73Z"/><path class="cls-2" d="M741.81,235.81h-.32a95.08,95.08,0,0,1-25.66-3.42c-.85-.27-20.93-6.79-24.81-15.14-2.64-5.7-6.33-7.81-8.29-8.56a1.51,1.51,0,0,1-.88-.95,1.47,1.47,0,0,1,.21-1.27l2.74-3.86a1.46,1.46,0,0,1,1.85-.46c19.88,10.12,40,8.19,53.41,4.79A95.43,95.43,0,0,0,764.64,197c21.47-13.75,31.58-28.49,33.14-35,1.13-4.78,5.85-6.36,8.56-6.88a6.56,6.56,0,0,0,5-4.35,16.05,16.05,0,0,0-.45-9.94h0a1.44,1.44,0,0,1,.27-1.42,1.47,1.47,0,0,1,1.38-.5,41.38,41.38,0,0,1,8.57,3,1.46,1.46,0,0,1,.83,1,1.43,1.43,0,0,1-.35,1.28c-5.86,6.41-5.47,8.63-4.41,10.68,1.95,3.79,4.84,13.23,3.28,24.6a50.83,50.83,0,0,1-7,19.42c-4.47,7.4-11,14.26-19.29,20.39a83.18,83.18,0,0,1-27.5,13.27A94.08,94.08,0,0,1,741.81,235.81ZM686,202.62a.86.86,0,0,0-.69.35l-2.73,3.87a.8.8,0,0,0-.12.72.84.84,0,0,0,.5.54c2,.79,5.9,3,8.64,8.88,3.76,8.1,24.22,14.74,24.42,14.81a94.19,94.19,0,0,0,25.49,3.39c13.66,0,33.83-2.77,52.34-16.41,15.23-11.21,24-24.46,26-39.39,1.54-11.21-1.3-20.5-3.21-24.22-1.38-2.68-1.08-5.29,4.5-11.39a.82.82,0,0,0,.2-.73.79.79,0,0,0-.47-.59,40.53,40.53,0,0,0-8.42-2.92.85.85,0,0,0-.79.29.8.8,0,0,0-.15.8h0A16.74,16.74,0,0,1,812,151a7.2,7.2,0,0,1-5.53,4.77c-3.13.6-7.07,2.19-8.07,6.4-1.58,6.65-11.78,21.57-33.42,35.42a95.66,95.66,0,0,1-24.74,10,85.79,85.79,0,0,1-25.19,2.7,70.19,70.19,0,0,1-28.67-7.54A.84.84,0,0,0,686,202.62Z"/><path class="cls-2" d="M741,228c2.39-.12,4.79-.43,7.15-.77a118.11,118.11,0,0,0,17.13-3.74,95.92,95.92,0,0,0,21.12-9,65.82,65.82,0,0,0,19-16.39,57.57,57.57,0,0,0,11.08-26c.21-1.3.38-2.6.52-3.91.08-.8-1.18-.8-1.27,0a57.71,57.71,0,0,1-9.68,26.91,62.2,62.2,0,0,1-18.32,17.11,91.37,91.37,0,0,1-20.8,9.44,118.25,118.25,0,0,1-17.52,4.12c-2.77.44-5.56.58-8.33,1H741c-.81,0-.81,1.3,0,1.27Z"/><ellipse class="cls-2" cx="684.81" cy="205.51" rx="3.56" ry="1.64" transform="translate(116.01 638.7) rotate(-54)"/><ellipse class="cls-2" cx="816.57" cy="141.5" rx="1.16" ry="5.49" transform="translate(426.38 872.64) rotate(-71.74)"/><path class="cls-1" d="M813.43,141.13a16.38,16.38,0,0,1,2.49,9.84,6.9,6.9,0,0,1-4.26,5.54c-2.75,1.14-6.66,3.57-6.8,8.19-.21,7.15-7.57,23.77-25.45,41.23,0,0-33.78,32.33-75.63,20.89a1.16,1.16,0,0,0-1.36.65l-1.89,4.33a1.15,1.15,0,0,0,.87,1.6c2.15.35,6.25,1.71,10.05,6.83,5.47,7.36,27.14,9.67,27.14,9.67s44,4.63,73.85-28.61,13.88-61.85,9.47-67.32c-1.63-2-2.25-4.36,2.13-11.71a1.15,1.15,0,0,0-.74-1.71,41,41,0,0,0-8.91-1.16A1.15,1.15,0,0,0,813.43,141.13Z"/><path class="cls-2" d="M744.21,250.43c-3.52,0-5.6-.21-5.65-.21-.89-.1-21.87-2.42-27.36-9.81-3.75-5-7.78-6.36-9.85-6.7a1.45,1.45,0,0,1-1.06-.75,1.48,1.48,0,0,1,0-1.28l1.89-4.34a1.48,1.48,0,0,1,1.73-.83c21.52,5.89,40.84-.08,53.27-6.12a95.54,95.54,0,0,0,22.06-14.69c18.24-17.81,25.16-34.29,25.36-41,.14-4.91,4.44-7.42,7-8.47a6.56,6.56,0,0,0,4.06-5.28,16,16,0,0,0-2.45-9.65,1.46,1.46,0,0,1,1.23-2.21,41.25,41.25,0,0,1,9,1.16,1.47,1.47,0,0,1,.94,2.18c-4.44,7.46-3.61,9.55-2.16,11.35,2.68,3.31,7.42,12,8.2,23.42a50.73,50.73,0,0,1-2.91,20.43c-2.88,8.15-7.85,16.19-14.77,23.88a83.29,83.29,0,0,1-24.23,18.57,94.46,94.46,0,0,1-24.07,8.3A102.6,102.6,0,0,1,744.21,250.43Zm-40.73-23.34a.85.85,0,0,0-.77.5l-1.89,4.34a.79.79,0,0,0,0,.73.81.81,0,0,0,.6.43c2.16.35,6.38,1.73,10.25,6.95,5.33,7.17,26.71,9.53,26.92,9.55a94,94,0,0,0,25.65-1.84c13.38-2.73,32.56-9.57,47.93-26.67,12.65-14.07,18.54-28.82,17.52-43.85-.77-11.28-5.43-19.81-8.06-23.07-1.9-2.34-2.12-5,2.11-12.07a.83.83,0,0,0,0-.75.81.81,0,0,0-.58-.48,40.6,40.6,0,0,0-8.83-1.15.82.82,0,0,0-.72.44.8.8,0,0,0,0,.82,16.72,16.72,0,0,1,2.53,10,7.17,7.17,0,0,1-4.45,5.79c-2.94,1.22-6.47,3.58-6.6,7.9-.2,6.83-7.17,23.51-25.55,41.46A96.44,96.44,0,0,1,757.42,221a85.44,85.44,0,0,1-24.12,7.74,70.25,70.25,0,0,1-29.61-1.57Z"/><path class="cls-2" d="M762.32,240.83c2.29-.58,4.54-1.36,6.76-2.16a120.09,120.09,0,0,0,16.06-7.15,96.39,96.39,0,0,0,18.81-13,65.83,65.83,0,0,0,15.34-19.85A57.73,57.73,0,0,0,824.93,171c-.06-1.33-.16-2.64-.29-4-.08-.8-1.34-.81-1.26,0a57.83,57.83,0,0,1-4,28.35A62.41,62.41,0,0,1,805,215.84a91.1,91.1,0,0,1-18.48,13.5A116.22,116.22,0,0,1,770.11,237q-2.68,1-5.42,1.88c-.85.26-1.76.45-2.59.76l-.11,0a.63.63,0,0,0,.33,1.21Z"/><ellipse class="cls-2" cx="702.73" cy="230.17" rx="3.56" ry="1.64" transform="translate(203.6 775.78) rotate(-65.68)"/><ellipse class="cls-2" cx="818.8" cy="140.81" rx="1.16" ry="5.49" transform="translate(585.22 938.12) rotate(-83.43)"/><path class="cls-3" d="M1223,13.93a2,2,0,0,1,2,2V269.78a2,2,0,0,1-2,2H646.94a2,2,0,0,1-2-2V15.93a2,2,0,0,1,2-2H1223m0-10H646.94a12,12,0,0,0-12,12V269.78a12,12,0,0,0,12,12H1223a12,12,0,0,0,12-12V15.93a12,12,0,0,0-12-12Z"/><path class="cls-1" d="M810.47,446.12a16.28,16.28,0,0,1-.87,10.12,6.87,6.87,0,0,1-5.83,3.83c-3,.18-7.47,1.19-9.11,5.51-2.54,6.69-14.95,20-37.57,30.61,0,0-42.51,19.47-78.3-5.06a1.15,1.15,0,0,0-1.49.17l-3.21,3.47a1.16,1.16,0,0,0,.3,1.8c1.92,1,5.35,3.67,7.26,9.74,2.76,8.75,22.47,18,22.47,18s40,18.79,79.15-2.82,33.39-53.89,31-60.5c-.88-2.44-.69-4.85,5.85-10.37a1.14,1.14,0,0,0-.14-1.85,40.43,40.43,0,0,0-8-4A1.16,1.16,0,0,0,810.47,446.12Z"/><path class="cls-2" d="M742,532.24a98,98,0,0,1-13.06-.88,94.51,94.51,0,0,1-25-6.72c-.82-.38-19.88-9.45-22.64-18.23-1.88-6-5.26-8.56-7.11-9.56a1.47,1.47,0,0,1-.38-2.29l3.21-3.47a1.47,1.47,0,0,1,1.9-.22c18.41,12.62,38.63,13.31,52.36,11.68A95.25,95.25,0,0,0,757,495.9c23.08-10.85,35-24.14,37.41-30.44,1.74-4.59,6.62-5.54,9.38-5.7a6.58,6.58,0,0,0,5.57-3.66,16.1,16.1,0,0,0,.85-9.92h0a1.44,1.44,0,0,1,.44-1.37,1.46,1.46,0,0,1,1.44-.32,41.39,41.39,0,0,1,8.11,4.05,1.48,1.48,0,0,1,.69,1.14,1.43,1.43,0,0,1-.52,1.22c-6.64,5.6-6.53,7.85-5.75,10,1.44,4,3.08,13.75.06,24.82a50.69,50.69,0,0,1-9.44,18.34c-5.4,6.76-12.73,12.72-21.78,17.72a83.27,83.27,0,0,1-29,9.6A90.72,90.72,0,0,1,742,532.24Zm-63.89-41a.8.8,0,0,0-.61.27L674.32,495a.86.86,0,0,0-.21.7.84.84,0,0,0,.43.6c1.93,1,5.46,3.73,7.41,9.93,2.68,8.52,22.11,17.76,22.3,17.85a94.59,94.59,0,0,0,24.84,6.67c13.53,1.81,33.9,1.63,54-9.49,16.56-9.14,27-21.15,30.92-35.68,3-10.92,1.37-20.5,0-24.44-1-2.84-.37-5.38,5.95-10.71a.83.83,0,0,0,.29-.69.82.82,0,0,0-.39-.65,40,40,0,0,0-8-4,.84.84,0,0,0-1.08.95h0a16.63,16.63,0,0,1-.9,10.32,7.19,7.19,0,0,1-6.1,4c-3.17.18-7.28,1.25-8.82,5.3-2.43,6.39-14.48,19.85-37.73,30.79a96,96,0,0,1-25.83,6.69,85.76,85.76,0,0,1-25.33-.59,70.13,70.13,0,0,1-27.45-11.19A.81.81,0,0,0,678.15,491.25Z"/><path class="cls-2" d="M729.55,523.57c2.36.19,4.74.2,7.1.17a119.76,119.76,0,0,0,17.53-1.51,95.84,95.84,0,0,0,22.05-6.16,65.63,65.63,0,0,0,21-13.75,57.42,57.42,0,0,0,14.33-24.19c.4-1.3.74-2.6,1.06-3.92.19-.79-1-1.13-1.22-.34a57.76,57.76,0,0,1-13.07,25.48A62.61,62.61,0,0,1,777.93,514,91,91,0,0,1,756,520.64a117.54,117.54,0,0,1-17.95,1.81c-1.91,0-3.82,0-5.73,0-.88,0-1.81-.17-2.69-.13h-.12c-.81-.06-.8,1.2,0,1.27Z"/><ellipse class="cls-2" cx="676.71" cy="493.96" rx="3.56" ry="1.64" transform="translate(-147.29 645.49) rotate(-46.55)"/><ellipse class="cls-2" cx="815.66" cy="447.58" rx="1.16" ry="5.49" transform="translate(58.58 988.38) rotate(-64.29)"/><path class="cls-1" d="M811.24,446.24a16.34,16.34,0,0,1,.45,10.15A6.9,6.9,0,0,1,806.4,461c-2.93.56-7.25,2.14-8.31,6.64-1.66,7-12.24,21.74-33.29,35.22,0,0-39.63,24.82-78.29,5.14a1.15,1.15,0,0,0-1.46.36l-2.73,3.86a1.14,1.14,0,0,0,.53,1.74c2,.78,5.78,3,8.46,8.72,3.87,8.32,24.62,15,24.62,15s42.12,13.44,78.11-13.07,26.13-57.76,22.91-64c-1.19-2.3-1.32-4.72,4.45-11a1.15,1.15,0,0,0-.37-1.82,40.1,40.1,0,0,0-8.49-2.94A1.15,1.15,0,0,0,811.24,446.24Z"/><path class="cls-2" d="M741.81,541.33h-.32a95.08,95.08,0,0,1-25.66-3.42c-.85-.28-20.93-6.8-24.81-15.15-2.64-5.69-6.33-7.8-8.29-8.56a1.46,1.46,0,0,1-.67-2.21l2.74-3.86a1.46,1.46,0,0,1,1.85-.46c19.88,10.12,40,8.19,53.41,4.79a95.85,95.85,0,0,0,24.58-9.91c21.47-13.75,31.58-28.49,33.14-35,1.13-4.77,5.85-6.35,8.56-6.87a6.58,6.58,0,0,0,5-4.35,16,16,0,0,0-.45-9.94h0a1.47,1.47,0,0,1,1.65-1.92,40.8,40.8,0,0,1,8.57,3,1.47,1.47,0,0,1,.48,2.32c-5.86,6.41-5.47,8.63-4.41,10.68,1.95,3.79,4.84,13.23,3.28,24.6a50.73,50.73,0,0,1-7,19.41c-4.47,7.4-11,14.26-19.29,20.4a83.18,83.18,0,0,1-27.5,13.27A94.49,94.49,0,0,1,741.81,541.33ZM686,508.14a.83.83,0,0,0-.69.35l-2.73,3.86a.83.83,0,0,0-.12.73.84.84,0,0,0,.5.54c2,.78,5.9,3,8.64,8.88,3.76,8.1,24.22,14.74,24.42,14.81a94.66,94.66,0,0,0,25.49,3.39c13.66,0,33.83-2.78,52.34-16.41,15.23-11.22,24-24.47,26-39.39,1.54-11.21-1.3-20.5-3.21-24.22-1.38-2.69-1.08-5.3,4.5-11.4a.79.79,0,0,0,.2-.72.82.82,0,0,0-.47-.6,40.54,40.54,0,0,0-8.42-2.91.84.84,0,0,0-.79.28.82.82,0,0,0-.15.81h0a16.73,16.73,0,0,1,.45,10.35,7.22,7.22,0,0,1-5.53,4.77c-3.13.6-7.07,2.19-8.07,6.4-1.58,6.65-11.78,21.57-33.42,35.42a96.5,96.5,0,0,1-24.74,10A85.44,85.44,0,0,1,715,515.76a70.18,70.18,0,0,1-28.67-7.53A.84.84,0,0,0,686,508.14Z"/><path class="cls-2" d="M741,533.53c2.39-.11,4.79-.42,7.15-.76A118.11,118.11,0,0,0,765.24,529a96.4,96.4,0,0,0,21.12-9,65.82,65.82,0,0,0,19-16.39,57.57,57.57,0,0,0,11.08-26c.21-1.3.38-2.6.52-3.91.08-.81-1.18-.8-1.27,0a57.71,57.71,0,0,1-9.68,26.91,62.17,62.17,0,0,1-18.32,17.1,91.4,91.4,0,0,1-20.8,9.45,118.25,118.25,0,0,1-17.52,4.12c-2.77.44-5.56.58-8.33,1H741c-.81,0-.81,1.3,0,1.26Z"/><ellipse class="cls-2" cx="684.81" cy="511.02" rx="3.56" ry="1.64" transform="translate(-131.15 764.63) rotate(-54)"/><ellipse class="cls-2" cx="816.57" cy="447.02" rx="1.16" ry="5.49" transform="translate(136.25 1082.45) rotate(-71.74)"/><path class="cls-1" d="M813.43,446.65a16.36,16.36,0,0,1,2.49,9.84,6.91,6.91,0,0,1-4.26,5.54c-2.75,1.14-6.66,3.56-6.8,8.18-.21,7.16-7.57,23.78-25.45,41.24,0,0-33.78,32.33-75.63,20.88a1.16,1.16,0,0,0-1.36.65l-1.89,4.34a1.15,1.15,0,0,0,.87,1.6c2.15.35,6.25,1.71,10.05,6.82,5.47,7.37,27.14,9.68,27.14,9.68s44,4.63,73.85-28.61,13.88-61.86,9.47-67.33c-1.63-2-2.25-4.35,2.13-11.71a1.14,1.14,0,0,0-.74-1.7,41,41,0,0,0-8.91-1.16A1.15,1.15,0,0,0,813.43,446.65Z"/><path class="cls-2" d="M744.21,556c-3.52,0-5.6-.21-5.65-.22-.89-.09-21.87-2.41-27.36-9.8-3.75-5-7.78-6.36-9.85-6.7a1.48,1.48,0,0,1-1.06-.75,1.5,1.5,0,0,1,0-1.29l1.89-4.33a1.48,1.48,0,0,1,1.73-.83c21.52,5.88,40.84-.08,53.27-6.12a95.54,95.54,0,0,0,22.06-14.69c18.24-17.81,25.16-34.29,25.36-41,.14-4.91,4.44-7.41,7-8.46a6.57,6.57,0,0,0,4.06-5.28,16,16,0,0,0-2.45-9.65,1.47,1.47,0,0,1,1.23-2.22,41.21,41.21,0,0,1,9,1.17,1.42,1.42,0,0,1,1,.85,1.43,1.43,0,0,1-.08,1.32c-4.44,7.47-3.61,9.56-2.16,11.35,2.68,3.32,7.42,12,8.2,23.43a50.73,50.73,0,0,1-2.91,20.43c-2.88,8.15-7.85,16.18-14.77,23.88a83.08,83.08,0,0,1-24.23,18.56,94.48,94.48,0,0,1-24.07,8.31A102.6,102.6,0,0,1,744.21,556Zm-40.73-23.34a.85.85,0,0,0-.77.5l-1.89,4.34a.79.79,0,0,0,0,.73.8.8,0,0,0,.6.42c2.16.36,6.38,1.74,10.25,6.95,5.33,7.17,26.71,9.53,26.92,9.56a94.49,94.49,0,0,0,25.65-1.84c13.38-2.73,32.56-9.57,47.93-26.67,12.65-14.07,18.54-28.82,17.52-43.85-.77-11.29-5.43-19.81-8.06-23.07-1.9-2.35-2.12-5,2.11-12.07a.85.85,0,0,0-.54-1.24,41.23,41.23,0,0,0-8.83-1.15.83.83,0,0,0-.72.45.79.79,0,0,0,0,.81,16.77,16.77,0,0,1,2.53,10,7.2,7.2,0,0,1-4.45,5.79c-2.94,1.22-6.47,3.58-6.6,7.9-.2,6.83-7.17,23.51-25.55,41.45a95.91,95.91,0,0,1-22.21,14.8,85.76,85.76,0,0,1-24.12,7.74,70.25,70.25,0,0,1-29.61-1.57Z"/><path class="cls-2" d="M762.32,546.35c2.29-.58,4.54-1.36,6.76-2.16A118.88,118.88,0,0,0,785.14,537,95.91,95.91,0,0,0,804,524a65.87,65.87,0,0,0,15.34-19.86,57.68,57.68,0,0,0,5.64-27.67c-.06-1.32-.16-2.64-.29-4-.08-.8-1.34-.81-1.26,0a57.83,57.83,0,0,1-4,28.35A62.41,62.41,0,0,1,805,521.36a91.1,91.1,0,0,1-18.48,13.5,116.22,116.22,0,0,1-16.36,7.61c-1.79.67-3.6,1.3-5.42,1.87-.85.27-1.76.45-2.59.76a.35.35,0,0,1-.11,0,.63.63,0,0,0,.33,1.22Z"/><ellipse class="cls-2" cx="702.73" cy="535.69" rx="3.56" ry="1.64" transform="translate(-74.81 955.48) rotate(-65.68)"/><ellipse class="cls-2" cx="818.8" cy="446.33" rx="1.16" ry="5.49" transform="translate(281.71 1208.68) rotate(-83.43)"/><path class="cls-1" d="M810.47,557.29a16.25,16.25,0,0,1-.87,10.11,6.88,6.88,0,0,1-5.83,3.84c-3,.17-7.47,1.18-9.11,5.5-2.54,6.69-14.95,20-37.57,30.62,0,0-42.51,19.47-78.3-5.06a1.14,1.14,0,0,0-1.49.17l-3.21,3.47a1.15,1.15,0,0,0,.3,1.79c1.92,1,5.35,3.67,7.26,9.75,2.76,8.75,22.47,18,22.47,18s40,18.79,79.15-2.83,33.39-53.88,31-60.5c-.88-2.44-.69-4.85,5.85-10.36A1.14,1.14,0,0,0,820,560a40.43,40.43,0,0,0-8-4A1.15,1.15,0,0,0,810.47,557.29Z"/><path class="cls-2" d="M742,643.41a98,98,0,0,1-13.06-.89,94.75,94.75,0,0,1-25-6.71c-.82-.39-19.88-9.45-22.64-18.24-1.88-6-5.26-8.56-7.11-9.56a1.46,1.46,0,0,1-.38-2.28l3.21-3.48A1.47,1.47,0,0,1,679,602c18.41,12.61,38.63,13.31,52.36,11.67A95,95,0,0,0,757,607.07c23.08-10.85,35-24.15,37.41-30.44,1.74-4.59,6.62-5.55,9.38-5.71a6.57,6.57,0,0,0,5.57-3.65,16.1,16.1,0,0,0,.85-9.92h0a1.46,1.46,0,0,1,.44-1.38,1.48,1.48,0,0,1,1.44-.31,40.85,40.85,0,0,1,8.11,4.05,1.47,1.47,0,0,1,.69,1.14,1.44,1.44,0,0,1-.52,1.22c-6.64,5.6-6.53,7.85-5.75,10,1.44,4,3.08,13.75.06,24.81a50.65,50.65,0,0,1-9.44,18.35C799.8,622,792.47,628,783.42,633a83.27,83.27,0,0,1-29,9.6A90.72,90.72,0,0,1,742,643.41Zm-63.89-41a.84.84,0,0,0-.61.27l-3.22,3.48a.85.85,0,0,0-.21.7.88.88,0,0,0,.43.6c1.93,1,5.46,3.72,7.41,9.92,2.68,8.52,22.11,17.76,22.3,17.85a93.67,93.67,0,0,0,24.84,6.67c13.53,1.81,33.9,1.64,54-9.48,16.56-9.15,27-21.15,30.92-35.68,3-10.92,1.37-20.5,0-24.44-1-2.84-.37-5.39,5.95-10.71a.85.85,0,0,0,.29-.7.84.84,0,0,0-.39-.65,41.09,41.09,0,0,0-8-4,.84.84,0,0,0-.82.18.82.82,0,0,0-.26.78h0a16.64,16.64,0,0,1-.9,10.32,7.17,7.17,0,0,1-6.1,4c-3.17.19-7.28,1.26-8.82,5.31-2.43,6.38-14.48,19.85-37.73,30.78a96.25,96.25,0,0,1-25.83,6.7,85.76,85.76,0,0,1-25.33-.59,70.28,70.28,0,0,1-27.45-11.19A.82.82,0,0,0,678.15,602.41Z"/><path class="cls-2" d="M729.55,634.73c2.36.2,4.74.2,7.1.17a119.75,119.75,0,0,0,17.53-1.5,95.86,95.86,0,0,0,22.05-6.17,65.6,65.6,0,0,0,21-13.74,57.55,57.55,0,0,0,14.33-24.19c.4-1.3.74-2.61,1.06-3.93.19-.79-1-1.12-1.22-.33a57.67,57.67,0,0,1-13.07,25.47,62.64,62.64,0,0,1-20.38,14.61A91.45,91.45,0,0,1,756,631.8a116.31,116.31,0,0,1-17.95,1.82c-1.91,0-3.82,0-5.73,0-.88,0-1.81-.18-2.69-.13h-.12c-.81-.07-.8,1.19,0,1.26Z"/><ellipse class="cls-2" cx="676.71" cy="605.13" rx="3.56" ry="1.64" transform="translate(-227.99 680.2) rotate(-46.55)"/><ellipse class="cls-2" cx="815.66" cy="558.75" rx="1.16" ry="5.49" transform="translate(-41.58 1051.33) rotate(-64.29)"/><path class="cls-1" d="M811.24,557.41a16.34,16.34,0,0,1,.45,10.15,6.9,6.9,0,0,1-5.29,4.56c-2.93.55-7.25,2.14-8.31,6.63-1.66,7-12.24,21.75-33.29,35.23,0,0-39.63,24.82-78.29,5.13a1.15,1.15,0,0,0-1.46.37l-2.73,3.86a1.14,1.14,0,0,0,.53,1.74c2,.78,5.78,2.94,8.46,8.72,3.87,8.32,24.62,15,24.62,15s42.12,13.44,78.11-13.06S820.17,578,817,571.7c-1.19-2.31-1.32-4.72,4.45-11a1.15,1.15,0,0,0-.37-1.82,41.25,41.25,0,0,0-8.49-2.94A1.16,1.16,0,0,0,811.24,557.41Z"/><path class="cls-2" d="M741.81,652.5h-.32a94.13,94.13,0,0,1-25.66-3.42c-.85-.27-20.93-6.79-24.81-15.14-2.64-5.69-6.33-7.81-8.29-8.56a1.46,1.46,0,0,1-.67-2.22l2.74-3.86a1.47,1.47,0,0,1,1.85-.46c19.88,10.12,40,8.2,53.41,4.8a95.64,95.64,0,0,0,24.58-9.92c21.47-13.75,31.58-28.48,33.14-35,1.13-4.78,5.85-6.36,8.56-6.87a6.59,6.59,0,0,0,5-4.35,16.08,16.08,0,0,0-.45-10h0a1.44,1.44,0,0,1,.27-1.42,1.47,1.47,0,0,1,1.38-.5,41.36,41.36,0,0,1,8.57,3,1.47,1.47,0,0,1,.48,2.32c-5.86,6.41-5.47,8.62-4.41,10.67,1.95,3.79,4.84,13.24,3.28,24.6a50.77,50.77,0,0,1-7,19.42c-4.47,7.4-11,14.26-19.29,20.39a83.2,83.2,0,0,1-27.5,13.28A94.49,94.49,0,0,1,741.81,652.5ZM686,619.31a.83.83,0,0,0-.69.35l-2.73,3.86a.8.8,0,0,0-.12.72.82.82,0,0,0,.5.54c2,.79,5.9,3,8.64,8.88,3.76,8.1,24.22,14.75,24.42,14.81a93.71,93.71,0,0,0,25.49,3.39c13.66,0,33.83-2.77,52.34-16.4,15.23-11.22,24-24.47,26-39.39,1.54-11.21-1.3-20.5-3.21-24.23-1.38-2.68-1.08-5.29,4.5-11.39a.83.83,0,0,0-.27-1.32,40.54,40.54,0,0,0-8.42-2.91.83.83,0,0,0-.94,1.09h0a16.7,16.7,0,0,1,.45,10.34,7.21,7.21,0,0,1-5.53,4.78c-3.13.59-7.07,2.19-8.07,6.4-1.58,6.64-11.78,21.56-33.42,35.42a96.28,96.28,0,0,1-24.74,10,85.79,85.79,0,0,1-25.19,2.7,70.19,70.19,0,0,1-28.67-7.54A.83.83,0,0,0,686,619.31Z"/><path class="cls-2" d="M741,644.7c2.39-.11,4.79-.42,7.15-.76a119.45,119.45,0,0,0,17.13-3.74,96.4,96.4,0,0,0,21.12-9,66,66,0,0,0,19-16.39,57.61,57.61,0,0,0,11.08-26c.21-1.3.38-2.61.52-3.91.08-.81-1.18-.8-1.27,0a57.67,57.67,0,0,1-9.68,26.9,62.07,62.07,0,0,1-18.32,17.11,91.84,91.84,0,0,1-20.8,9.45,118.25,118.25,0,0,1-17.52,4.12c-2.77.43-5.56.58-8.33.95H741c-.81,0-.81,1.3,0,1.26Z"/><ellipse class="cls-2" cx="684.81" cy="622.19" rx="3.56" ry="1.64" transform="translate(-221.08 810.44) rotate(-54)"/><ellipse class="cls-2" cx="816.57" cy="558.19" rx="1.16" ry="5.49" transform="translate(30.67 1158.79) rotate(-71.74)"/><path class="cls-1" d="M813.43,557.81a16.41,16.41,0,0,1,2.49,9.85,6.89,6.89,0,0,1-4.26,5.53c-2.75,1.14-6.66,3.57-6.8,8.19-.21,7.15-7.57,23.77-25.45,41.23,0,0-33.78,32.34-75.63,20.89a1.16,1.16,0,0,0-1.36.65l-1.89,4.34a1.14,1.14,0,0,0,.87,1.59c2.15.36,6.25,1.72,10.05,6.83,5.47,7.36,27.14,9.68,27.14,9.68s44,4.63,73.85-28.62,13.88-61.85,9.47-67.32c-1.63-2-2.25-4.36,2.13-11.71a1.15,1.15,0,0,0-.74-1.71,40.4,40.4,0,0,0-8.91-1.15A1.14,1.14,0,0,0,813.43,557.81Z"/><path class="cls-2" d="M744.21,667.12c-3.52,0-5.6-.21-5.65-.22-.89-.09-21.87-2.41-27.36-9.8-3.75-5-7.78-6.37-9.85-6.71a1.44,1.44,0,0,1-1.06-.74,1.5,1.5,0,0,1,0-1.29l1.89-4.34a1.48,1.48,0,0,1,1.73-.82c21.52,5.88,40.84-.08,53.27-6.13a95.71,95.71,0,0,0,22.06-14.68c18.24-17.82,25.16-34.29,25.36-41,.14-4.91,4.44-7.41,7-8.47a6.56,6.56,0,0,0,4.06-5.28,16,16,0,0,0-2.45-9.65,1.48,1.48,0,0,1,0-1.44,1.5,1.5,0,0,1,1.26-.77,40.61,40.61,0,0,1,9,1.17,1.42,1.42,0,0,1,1,.85,1.44,1.44,0,0,1-.08,1.32c-4.44,7.46-3.61,9.56-2.16,11.35,2.68,3.32,7.42,12,8.2,23.43a50.68,50.68,0,0,1-2.91,20.42c-2.88,8.16-7.85,16.19-14.77,23.88a83.11,83.11,0,0,1-24.23,18.57,94.46,94.46,0,0,1-24.07,8.3A102,102,0,0,1,744.21,667.12Zm-40.73-23.34a.85.85,0,0,0-.77.5l-1.89,4.33a.78.78,0,0,0,0,.73.81.81,0,0,0,.6.43c2.16.36,6.38,1.73,10.25,7,5.33,7.17,26.71,9.53,26.92,9.55a94,94,0,0,0,25.65-1.84c13.38-2.73,32.56-9.57,47.93-26.67,12.65-14.06,18.54-28.82,17.52-43.84-.77-11.29-5.43-19.82-8.06-23.07-1.9-2.35-2.12-5,2.11-12.07a.85.85,0,0,0,0-.76.83.83,0,0,0-.58-.48,40.6,40.6,0,0,0-8.83-1.15.84.84,0,0,0-.72.44.8.8,0,0,0,0,.82,16.72,16.72,0,0,1,2.53,10,7.2,7.2,0,0,1-4.45,5.8c-2.94,1.21-6.47,3.57-6.6,7.9-.2,6.83-7.17,23.5-25.55,41.45a96.07,96.07,0,0,1-22.21,14.79,85.79,85.79,0,0,1-24.12,7.75,70.09,70.09,0,0,1-29.61-1.58Z"/><path class="cls-2" d="M762.32,657.52c2.29-.59,4.54-1.36,6.76-2.16a118.88,118.88,0,0,0,16.06-7.16,96.78,96.78,0,0,0,18.81-13,65.87,65.87,0,0,0,15.34-19.86,57.73,57.73,0,0,0,5.64-27.67c-.06-1.32-.16-2.64-.29-4-.08-.8-1.34-.81-1.26,0a57.82,57.82,0,0,1-4,28.35A62.31,62.31,0,0,1,805,632.52,91.53,91.53,0,0,1,786.47,646a118.51,118.51,0,0,1-16.36,7.61c-1.79.67-3.6,1.3-5.42,1.87-.85.27-1.76.45-2.59.76l-.11,0a.63.63,0,0,0,.33,1.22Z"/><ellipse class="cls-2" cx="702.73" cy="646.86" rx="3.56" ry="1.64" transform="translate(-176.11 1020.87) rotate(-65.68)"/><ellipse class="cls-2" cx="818.8" cy="557.49" rx="1.16" ry="5.49" transform="translate(171.28 1307.12) rotate(-83.43)"/><path class="cls-3" d="M1223,430.62a2,2,0,0,1,2,2V686.46a2,2,0,0,1-2,2H646.94a2,2,0,0,1-2-2V432.62a2,2,0,0,1,2-2H1223m0-10H646.94a12,12,0,0,0-12,12V686.46a12,12,0,0,0,12,12H1223a12,12,0,0,0,12-12V432.62a12,12,0,0,0-12-12Z"/><g id="Manzana"><ellipse class="cls-5" cx="113.12" cy="222.56" rx="41.69" ry="49.19"/><ellipse class="cls-5" cx="138.9" cy="222.56" rx="41.69" ry="49.19"/><path class="cls-6" d="M125.84,180.18s-3.57-14.9,5.29-22.3c0,.22,0,3.31,0,3.31s-6,2.87-2.6,19C128.49,180.18,128,182.16,125.84,180.18Z"/><path class="cls-7" d="M113.65,156.78h0a12.8,12.8,0,0,1,12.8,12.8v0a0,0,0,0,1,0,0h0a12.8,12.8,0,0,1-12.8-12.8v0A0,0,0,0,1,113.65,156.78Z"/><path class="cls-8" d="M113.21,173.42s-49.23,38.64,0,98.24c0,0-38.85.88-41.72-49A51.4,51.4,0,0,1,77.54,197c4.45-8.52,10.94-16.54,21.54-20.74S113.21,173.42,113.21,173.42Z"/></g><g id="Manzana-2" data-name="Manzana"><ellipse class="cls-5" cx="283.95" cy="222.56" rx="41.69" ry="49.19"/><ellipse class="cls-5" cx="309.73" cy="222.56" rx="41.69" ry="49.19"/><path class="cls-6" d="M296.67,180.18s-3.58-14.9,5.29-22.3c0,.22,0,3.31,0,3.31s-6,2.87-2.61,19C299.31,180.18,298.79,182.16,296.67,180.18Z"/><path class="cls-7" d="M284.48,156.78h0a12.8,12.8,0,0,1,12.8,12.8v0a0,0,0,0,1,0,0h0a12.8,12.8,0,0,1-12.8-12.8v0A0,0,0,0,1,284.48,156.78Z"/><path class="cls-8" d="M284,173.42s-49.23,38.64,0,98.24c0,0-38.86.88-41.73-49A51.48,51.48,0,0,1,248.37,197c4.45-8.52,10.94-16.54,21.54-20.74S284,173.42,284,173.42Z"/></g><g id="Naranja"><circle class="cls-9" cx="126.13" cy="344.81" r="53.01"/><path class="cls-10" d="M159.79,372.12a41.36,41.36,0,0,0,5.75-10.07,47.32,47.32,0,0,0,3.38-25,50,50,0,0,0-6.55-18.12,1,1,0,0,0-1.7,1A46,46,0,0,1,167,349.36a47.79,47.79,0,0,1-6.58,18.34c-.48.79-1,1.57-1.53,2.33l-.48.65,0,.05c-.79,1,.59,2.38,1.39,1.39Z"/><circle class="cls-11" cx="97.87" cy="318.75" r="4.16"/><circle class="cls-11" cx="90.43" cy="330.36" r="3.29"/><circle class="cls-11" cx="99.95" cy="329.15" r="2.08"/><path class="cls-7" d="M107.51,278.22h1.26a13,13,0,0,1,13,13v1.26a0,0,0,0,1,0,0h-1.26a13,13,0,0,1-13-13v-1.26A0,0,0,0,1,107.51,278.22Z"/><path class="cls-7" d="M134.72,278.22H136a0,0,0,0,1,0,0v1.26a13,13,0,0,1-13,13h-1.26a0,0,0,0,1,0,0V291.2A13,13,0,0,1,134.72,278.22Z" transform="translate(257.74 570.69) rotate(180)"/></g><g id="Naranja-2" data-name="Naranja"><circle class="cls-9" cx="290.88" cy="344.81" r="53.01"/><path class="cls-10" d="M324.54,372.12a41.36,41.36,0,0,0,5.75-10.07,47.32,47.32,0,0,0,3.38-25,50,50,0,0,0-6.55-18.12,1,1,0,0,0-1.7,1,46,46,0,0,1,6.36,29.45,47.79,47.79,0,0,1-6.58,18.34c-.48.79-1,1.57-1.53,2.33-.16.22-.32.44-.49.65.06-.07.11-.12,0,.05-.8,1,.59,2.38,1.39,1.39Z"/><circle class="cls-11" cx="262.62" cy="318.75" r="4.16"/><circle class="cls-11" cx="255.17" cy="330.36" r="3.29"/><circle class="cls-11" cx="264.7" cy="329.15" r="2.08"/><path class="cls-7" d="M272.26,278.22h1.26a13,13,0,0,1,13,13v1.26a0,0,0,0,1,0,0h-1.26a13,13,0,0,1-13-13v-1.26A0,0,0,0,1,272.26,278.22Z"/><path class="cls-7" d="M299.47,278.22h1.26a0,0,0,0,1,0,0v1.26a13,13,0,0,1-13,13H286.5a0,0,0,0,1,0,0V291.2A13,13,0,0,1,299.47,278.22Z" transform="translate(587.23 570.69) rotate(180)"/></g><g id="Pera"><circle class="cls-12" cx="121.56" cy="490" r="34.68"/><circle class="cls-12" cx="121.56" cy="454.21" r="23.49"/><path class="cls-13" d="M120.47,437.43l4.86-34,6-.6S127.18,406.39,122,438Z"/><path class="cls-14" d="M148.83,405.82s-13.27-7.2-21.77,5C127.06,410.82,135.34,426.89,148.83,405.82Z"/><path class="cls-15" d="M120.29,430.74a29.7,29.7,0,0,0-11.78,4.2c-16,11.44-8.88,27.36-8.73,28.08h0c-18.49,16.92-16.25,41.52,1.65,55,.95.71,11.36,6.71,17.9,6.71h0l-.24-.37a84.7,84.7,0,0,1,.76-92.93C120.13,431,120.29,430.74,120.29,430.74Z"/></g><g id="Pera-2" data-name="Pera"><circle class="cls-12" cx="290.88" cy="490.86" r="34.68"/><circle class="cls-12" cx="290.88" cy="455.06" r="23.49"/><path class="cls-13" d="M289.78,438.28l4.86-34,6-.61s-4.14,3.56-9.28,35.13Z"/><path class="cls-14" d="M318.15,406.67s-13.27-7.2-21.77,5C296.38,411.68,304.65,427.74,318.15,406.67Z"/><path class="cls-15" d="M289.6,431.59a29.6,29.6,0,0,0-11.77,4.2c-16,11.44-8.89,27.36-8.73,28.08h0c-18.49,16.92-16.25,41.53,1.64,55,1,.71,11.36,6.71,17.9,6.71h0l-.23-.37a84.66,84.66,0,0,1,.76-92.93Z"/></g><g id="Manzana-3" data-name="Manzana"><ellipse class="cls-5" cx="113.12" cy="698.79" rx="41.69" ry="49.19"/><ellipse class="cls-5" cx="138.9" cy="698.79" rx="41.69" ry="49.19"/><path class="cls-6" d="M125.84,656.41s-3.57-14.9,5.29-22.3c0,.22,0,3.31,0,3.31s-6,2.87-2.6,19C128.49,656.41,128,658.39,125.84,656.41Z"/><path class="cls-7" d="M113.65,633h0a12.8,12.8,0,0,1,12.8,12.8v0a0,0,0,0,1,0,0h0a12.8,12.8,0,0,1-12.8-12.8v0A0,0,0,0,1,113.65,633Z"/><path class="cls-8" d="M113.21,649.65s-49.23,38.63,0,98.24c0,0-38.85.88-41.72-49a51.4,51.4,0,0,1,6.05-25.62c4.45-8.52,10.94-16.54,21.54-20.74S113.21,649.65,113.21,649.65Z"/></g><g id="Manzana-4" data-name="Manzana"><ellipse class="cls-5" cx="283.95" cy="698.79" rx="41.69" ry="49.19"/><ellipse class="cls-5" cx="309.73" cy="698.79" rx="41.69" ry="49.19"/><path class="cls-6" d="M296.67,656.41s-3.58-14.9,5.29-22.3c0,.22,0,3.31,0,3.31s-6,2.87-2.61,19C299.31,656.41,298.79,658.39,296.67,656.41Z"/><path class="cls-7" d="M284.48,633h0a12.8,12.8,0,0,1,12.8,12.8v0a0,0,0,0,1,0,0h0a12.8,12.8,0,0,1-12.8-12.8v0A0,0,0,0,1,284.48,633Z"/><path class="cls-8" d="M284,649.65s-49.23,38.63,0,98.24c0,0-38.86.88-41.73-49a51.48,51.48,0,0,1,6.06-25.62c4.45-8.52,10.94-16.54,21.54-20.74S284,649.65,284,649.65Z"/></g><g id="Manzana-5" data-name="Manzana"><ellipse class="cls-5" cx="938.23" cy="90.07" rx="41.69" ry="49.19"/><ellipse class="cls-5" cx="964.01" cy="90.07" rx="41.69" ry="49.19"/><path class="cls-6" d="M951,47.69s-3.57-14.9,5.29-22.3c0,.22,0,3.31,0,3.31s-6,2.87-2.6,19C953.6,47.69,953.07,49.67,951,47.69Z"/><path class="cls-7" d="M938.76,24.29h0a12.8,12.8,0,0,1,12.8,12.8v0a0,0,0,0,1,0,0h0a12.8,12.8,0,0,1-12.8-12.8v0A0,0,0,0,1,938.76,24.29Z"/><path class="cls-8" d="M938.32,40.94s-49.23,38.63,0,98.23c0,0-38.85.88-41.72-49a51.4,51.4,0,0,1,6-25.62C907.1,56,913.59,48,924.19,43.8S938.32,40.94,938.32,40.94Z"/></g><g id="Manzana-6" data-name="Manzana"><ellipse class="cls-5" cx="1109.06" cy="90.07" rx="41.69" ry="49.19"/><ellipse class="cls-5" cx="1134.84" cy="90.07" rx="41.69" ry="49.19"/><path class="cls-6" d="M1121.78,47.69s-3.57-14.9,5.29-22.3c0,.22,0,3.31,0,3.31s-6,2.87-2.6,19C1124.43,47.69,1123.9,49.67,1121.78,47.69Z"/><path class="cls-7" d="M1109.59,24.29h0a12.8,12.8,0,0,1,12.8,12.8v0a0,0,0,0,1,0,0h0a12.8,12.8,0,0,1-12.8-12.8v0A0,0,0,0,1,1109.59,24.29Z"/><path class="cls-8" d="M1109.15,40.94s-49.23,38.63,0,98.23c0,0-38.85.88-41.72-49a51.4,51.4,0,0,1,6-25.62C1077.93,56,1084.42,48,1095,43.8S1109.15,40.94,1109.15,40.94Z"/></g><g id="Naranja-3" data-name="Naranja"><circle class="cls-9" cx="951.24" cy="212.32" r="53.01"/><path class="cls-10" d="M984.9,239.63a41.36,41.36,0,0,0,5.75-10.07,47.32,47.32,0,0,0,3.38-25,50,50,0,0,0-6.55-18.12,1,1,0,0,0-1.7,1,46,46,0,0,1,6.36,29.45,47.63,47.63,0,0,1-6.58,18.34c-.48.79-1,1.57-1.53,2.33l-.48.66c.05-.08.1-.13,0,0-.79,1,.59,2.38,1.39,1.39Z"/><circle class="cls-11" cx="922.98" cy="186.26" r="4.16"/><circle class="cls-11" cx="915.54" cy="197.87" r="3.29"/><circle class="cls-11" cx="925.07" cy="196.66" r="2.08"/><path class="cls-7" d="M932.62,145.74h1.26a13,13,0,0,1,13,13V160a0,0,0,0,1,0,0H945.6a13,13,0,0,1-13-13v-1.26A0,0,0,0,1,932.62,145.74Z"/><path class="cls-7" d="M959.84,145.74h1.26a0,0,0,0,1,0,0V147a13,13,0,0,1-13,13h-1.26a0,0,0,0,1,0,0v-1.26A13,13,0,0,1,959.84,145.74Z" transform="translate(1907.96 305.71) rotate(180)"/></g><g id="Naranja-4" data-name="Naranja"><circle class="cls-9" cx="1115.99" cy="212.32" r="53.01"/><path class="cls-10" d="M1149.65,239.63a41.36,41.36,0,0,0,5.75-10.07,47.32,47.32,0,0,0,3.38-25,50,50,0,0,0-6.55-18.12,1,1,0,0,0-1.7,1,46,46,0,0,1,6.36,29.45,47.79,47.79,0,0,1-6.58,18.34c-.48.79-1,1.57-1.53,2.33l-.48.66c0-.08.1-.13,0,0-.79,1,.59,2.38,1.39,1.39Z"/><circle class="cls-11" cx="1087.73" cy="186.26" r="4.16"/><circle class="cls-11" cx="1080.29" cy="197.87" r="3.29"/><circle class="cls-11" cx="1089.81" cy="196.66" r="2.08"/><path class="cls-7" d="M1097.37,145.74h1.26a13,13,0,0,1,13,13V160a0,0,0,0,1,0,0h-1.26a13,13,0,0,1-13-13v-1.26A0,0,0,0,1,1097.37,145.74Z"/><path class="cls-7" d="M1124.58,145.74h1.26a0,0,0,0,1,0,0V147a13,13,0,0,1-13,13h-1.26a0,0,0,0,1,0,0v-1.26A13,13,0,0,1,1124.58,145.74Z" transform="translate(2237.46 305.71) rotate(180)"/></g><g id="Pera-3" data-name="Pera"><circle class="cls-12" cx="944.16" cy="526.89" r="34.68"/><circle class="cls-12" cx="944.16" cy="491.1" r="23.49"/><path class="cls-13" d="M943.07,474.32l4.86-34,6-.61s-4.15,3.56-9.29,35.13Z"/><path class="cls-14" d="M971.43,442.71s-13.27-7.2-21.76,5C949.67,447.71,957.94,463.78,971.43,442.71Z"/><path class="cls-15" d="M942.89,467.63a29.7,29.7,0,0,0-11.78,4.2c-16,11.44-8.88,27.36-8.72,28.08h0c-18.49,16.92-16.26,41.52,1.64,54.95,1,.71,11.36,6.71,17.9,6.71h0l-.24-.37a84.68,84.68,0,0,1,.77-92.93Z"/></g><g id="Pera-4" data-name="Pera"><circle class="cls-12" cx="1113.48" cy="527.75" r="34.68"/><circle class="cls-12" cx="1113.48" cy="491.95" r="23.49"/><path class="cls-13" d="M1112.39,475.18l4.85-34,6-.61s-4.14,3.56-9.28,35.13Z"/><path class="cls-14" d="M1140.75,443.57s-13.27-7.21-21.77,5C1119,448.57,1127.25,464.63,1140.75,443.57Z"/><path class="cls-15" d="M1112.21,468.48a29.59,29.59,0,0,0-11.78,4.2c-16,11.44-8.89,27.36-8.73,28.08h0c-18.49,16.92-16.25,41.53,1.65,55,1,.72,11.36,6.71,17.89,6.71h0l-.23-.37a84.68,84.68,0,0,1,.76-92.93C1112.05,468.7,1112.21,468.48,1112.21,468.48Z"/></g><g id="Manzana-7" data-name="Manzana"><ellipse class="cls-5" cx="935.72" cy="630.18" rx="41.69" ry="49.19"/><ellipse class="cls-5" cx="961.5" cy="630.18" rx="41.69" ry="49.19"/><path class="cls-6" d="M948.44,587.79s-3.57-14.9,5.29-22.29c0,.22,0,3.31,0,3.31s-6,2.87-2.6,19C951.09,587.79,950.56,589.78,948.44,587.79Z"/><path class="cls-7" d="M936.25,564.39h0a12.8,12.8,0,0,1,12.8,12.8v0a0,0,0,0,1,0,0h0a12.8,12.8,0,0,1-12.8-12.8v0A0,0,0,0,1,936.25,564.39Z"/><path class="cls-8" d="M935.81,581s-49.23,38.63,0,98.23c0,0-38.85.89-41.72-49a51.38,51.38,0,0,1,6-25.62c4.45-8.53,10.94-16.55,21.54-20.74S935.81,581,935.81,581Z"/></g><g id="Manzana-8" data-name="Manzana"><ellipse class="cls-5" cx="1106.55" cy="630.18" rx="41.69" ry="49.19"/><ellipse class="cls-5" cx="1132.33" cy="630.18" rx="41.69" ry="49.19"/><path class="cls-6" d="M1119.27,587.79s-3.57-14.9,5.29-22.29c0,.22,0,3.31,0,3.31s-6,2.87-2.6,19C1121.92,587.79,1121.39,589.78,1119.27,587.79Z"/><path class="cls-7" d="M1107.08,564.39h0a12.8,12.8,0,0,1,12.8,12.8v0a0,0,0,0,1,0,0h0a12.8,12.8,0,0,1-12.8-12.8v0A0,0,0,0,1,1107.08,564.39Z"/><path class="cls-8" d="M1106.64,581s-49.23,38.63,0,98.23c0,0-38.85.89-41.72-49a51.38,51.38,0,0,1,6-25.62c4.45-8.53,10.94-16.55,21.54-20.74S1106.64,581,1106.64,581Z"/></g></svg>