<svg id="Layer_1" data-name="Layer 1" xmlns="http://www.w3.org/2000/svg" viewBox="0 0 1016.36 944.12"><defs><style>.cls-1{fill:#f05023;}.cls-2{fill:none;stroke:#f05023;stroke-miterlimit:10;stroke-width:10px;}.cls-3{fill:#ffd400;}.cls-4{fill:#d1a900;}.cls-5{fill:#e52525;}.cls-6{fill:#b56f00;}.cls-7{fill:#46c638;}.cls-8{fill:#910a0a;opacity:0.3;}.cls-9{fill:#ff7f00;}.cls-10{fill:#ffab5f;}.cls-11{fill:#ff4e00;}.cls-12{fill:#b9d86c;}.cls-13{fill:#aa8b39;}.cls-14{fill:#129948;}.cls-15{fill:#a8bf60;}</style></defs><title>Fruta_Glosa_18</title><path class="cls-1" d="M397,10a2,2,0,0,1,2,2V760.89a2,2,0,0,1-2,2H12a2,2,0,0,1-2-2V12a2,2,0,0,1,2-2H397m0-10H12A12,12,0,0,0,0,12V760.89a12,12,0,0,0,12,12H397a12,12,0,0,0,12-12V12A12,12,0,0,0,397,0Z"/><path class="cls-1" d="M1004.36,27a2,2,0,0,1,2,2V743.9a2,2,0,0,1-2,2h-367a2,2,0,0,1-2-2V29a2,2,0,0,1,2-2h367m0-10h-367a12,12,0,0,0-12,12V743.9a12,12,0,0,0,12,12h367a12,12,0,0,0,12-12V29a12,12,0,0,0-12-12Z"/><line class="cls-2" x1="409" y1="386.45" x2="633.84" y2="386.45"/><path d="M111.75,837.17h-4V811.73q0-3.18.19-6c-.34.35-.72.7-1.14,1.08s-2.36,2-5.81,4.76l-2.15-2.78,9.45-7.3h3.41Z"/><path d="M137.14,801a12.11,12.11,0,0,1,7.74,2.27,7.58,7.58,0,0,1,2.86,6.28,7.82,7.82,0,0,1-1.64,4.81,14.45,14.45,0,0,1-5.22,3.95,17.66,17.66,0,0,1,6.18,4.36,8.2,8.2,0,0,1,1.83,5.29,8.88,8.88,0,0,1-3.1,7.09c-2.07,1.76-4.9,2.65-8.5,2.65q-5.72,0-8.79-2.51a8.6,8.6,0,0,1-3.07-7.09q0-6.12,7.47-9.54a13.75,13.75,0,0,1-4.84-4.12,8.78,8.78,0,0,1-1.46-4.94,7.51,7.51,0,0,1,2.87-6.19A11.87,11.87,0,0,1,137.14,801Zm-7.71,27.2a5.55,5.55,0,0,0,2,4.57,8.93,8.93,0,0,0,5.72,1.63,8.53,8.53,0,0,0,5.67-1.71,5.8,5.8,0,0,0,2-4.69,5.72,5.72,0,0,0-1.9-4.21,19.3,19.3,0,0,0-6.64-3.57,14.38,14.38,0,0,0-5.27,3.45A6.65,6.65,0,0,0,129.43,828.16Zm7.67-23.9a7.23,7.23,0,0,0-4.79,1.46,4.88,4.88,0,0,0-1.73,3.91,5.6,5.6,0,0,0,1.44,3.86,15,15,0,0,0,5.32,3.22,13.3,13.3,0,0,0,4.94-3.15,5.82,5.82,0,0,0,1.46-3.93,4.82,4.82,0,0,0-1.77-3.92A7.46,7.46,0,0,0,137.1,804.26Z"/><path d="M180.82,813.56H174v23.61h-4V813.56h-4.79v-1.83l4.79-1.47v-1.48q0-9.87,8.62-9.87a17.82,17.82,0,0,1,5,.86L182.51,803a13.57,13.57,0,0,0-4-.75,3.9,3.9,0,0,0-3.39,1.52,8.55,8.55,0,0,0-1.1,4.9v1.73h6.81Z"/><path d="M197.91,809.92a15.54,15.54,0,0,1,3.2.3l-.56,3.76a13.53,13.53,0,0,0-2.93-.37,7.13,7.13,0,0,0-5.56,2.64,9.62,9.62,0,0,0-2.3,6.56v14.36H185.7V810.41h3.35l.46,5h.2a11.72,11.72,0,0,1,3.59-4A8,8,0,0,1,197.91,809.92Z"/><path d="M209.92,810.41v17.36a7,7,0,0,0,1.49,4.88,6.07,6.07,0,0,0,4.67,1.61q4.18,0,6.14-2.29t1.94-7.5V810.41h4.05v26.76h-3.35l-.58-3.59h-.22a8,8,0,0,1-3.46,3,11.59,11.59,0,0,1-5,1c-3.25,0-5.69-.78-7.31-2.32s-2.43-4-2.43-7.42V810.41Z"/><path d="M245.45,834.31a12.76,12.76,0,0,0,2.07-.16,11.33,11.33,0,0,0,1.59-.33v3.1a7.17,7.17,0,0,1-1.94.53,14.53,14.53,0,0,1-2.31.21q-7.77,0-7.76-8.18V813.56h-3.84v-1.95l3.84-1.69,1.7-5.71h2.35v6.2h7.76v3.15h-7.76v15.75A5.39,5.39,0,0,0,242.3,833,4,4,0,0,0,245.45,834.31Z"/><path d="M270.91,837.17l-.81-3.81h-.19a11.4,11.4,0,0,1-4,3.41,12.28,12.28,0,0,1-5,.89,9,9,0,0,1-6.24-2,7.48,7.48,0,0,1-2.26-5.84q0-8.1,13-8.49l4.54-.15v-1.66a6.8,6.8,0,0,0-1.36-4.65,5.57,5.57,0,0,0-4.33-1.5,17.64,17.64,0,0,0-7.57,2l-1.24-3.1a18.85,18.85,0,0,1,4.33-1.69,18.59,18.59,0,0,1,4.72-.61c3.19,0,5.56.71,7.09,2.13s2.31,3.68,2.31,6.81v18.26Zm-9.16-2.86a8.24,8.24,0,0,0,5.95-2.07,7.69,7.69,0,0,0,2.16-5.81V824l-4.05.17c-3.23.11-5.55.62-7,1.5a4.53,4.53,0,0,0-2.14,4.14,4.16,4.16,0,0,0,1.33,3.34A5.5,5.5,0,0,0,261.75,834.31Z"/><path d="M299.52,829.87a6.71,6.71,0,0,1-2.78,5.76q-2.79,2-7.81,2-5.32,0-8.3-1.69v-3.76a19.76,19.76,0,0,0,4.13,1.54,17.09,17.09,0,0,0,4.26.56,9.74,9.74,0,0,0,4.89-1,3.48,3.48,0,0,0,.35-5.76,21.21,21.21,0,0,0-5.28-2.63,28.75,28.75,0,0,1-5.32-2.43,7.27,7.27,0,0,1-2.34-2.35,6.18,6.18,0,0,1-.77-3.15,6,6,0,0,1,2.66-5.17,12.43,12.43,0,0,1,7.3-1.89,21.41,21.41,0,0,1,8.45,1.76l-1.44,3.3a19.35,19.35,0,0,0-7.3-1.66,8.45,8.45,0,0,0-4.35.9,2.8,2.8,0,0,0-1.46,2.49,3,3,0,0,0,.55,1.83,5.26,5.26,0,0,0,1.77,1.44,38.18,38.18,0,0,0,4.69,2c3.17,1.15,5.32,2.32,6.43,3.49A6.17,6.17,0,0,1,299.52,829.87Z"/><path d="M711.35,837.17h-4V811.73q0-3.18.19-6c-.34.35-.72.7-1.15,1.08s-2.36,2-5.81,4.76l-2.14-2.78,9.44-7.3h3.42Z"/><path d="M761.67,810.41V813l-5,.59a8.15,8.15,0,0,1,1.22,2.23,8.51,8.51,0,0,1,.54,3.12,7.87,7.87,0,0,1-2.69,6.27,10.83,10.83,0,0,1-7.37,2.35,12.39,12.39,0,0,1-2.25-.2q-2.58,1.36-2.58,3.44a1.76,1.76,0,0,0,.9,1.63,6.61,6.61,0,0,0,3.1.52h4.74q4.33,0,6.68,1.83a6.38,6.38,0,0,1,2.33,5.32,7.6,7.6,0,0,1-3.57,6.78q-3.56,2.32-10.4,2.33-5.25,0-8.09-1.95a6.31,6.31,0,0,1-2.85-5.52,6.14,6.14,0,0,1,1.57-4.22,7.9,7.9,0,0,1,4.39-2.42,4.25,4.25,0,0,1-1.72-1.44,3.84,3.84,0,0,1-.7-2.27,4.28,4.28,0,0,1,.79-2.57,8.19,8.19,0,0,1,2.46-2.12,7.27,7.27,0,0,1-3.38-2.9,8.56,8.56,0,0,1-1.31-4.69,8.67,8.67,0,0,1,2.64-6.78c1.76-1.58,4.25-2.38,7.47-2.38a13.74,13.74,0,0,1,3.78.49Zm-21.34,31.25a3.64,3.64,0,0,0,1.83,3.3,10.09,10.09,0,0,0,5.25,1.12q5.1,0,7.56-1.53a4.66,4.66,0,0,0,2.45-4.13,3.29,3.29,0,0,0-1.34-3c-.9-.56-2.58-.84-5.06-.84h-4.86a6.38,6.38,0,0,0-4.29,1.32A4.7,4.7,0,0,0,740.33,841.66Zm2.2-22.68a5.48,5.48,0,0,0,1.58,4.25,6.36,6.36,0,0,0,4.42,1.44q5.94,0,5.94-5.76,0-6-6-6a6,6,0,0,0-4.39,1.53A6.19,6.19,0,0,0,742.53,819Z"/><path d="M779.37,809.92a15.54,15.54,0,0,1,3.2.3L782,814a13.38,13.38,0,0,0-2.92-.37,7.13,7.13,0,0,0-5.56,2.64,9.57,9.57,0,0,0-2.31,6.56v14.36h-4.05V810.41h3.35l.46,5h.19a11.82,11.82,0,0,1,3.59-4A8,8,0,0,1,779.37,809.92Z"/><path d="M791.38,810.41v17.36a7,7,0,0,0,1.49,4.88,6,6,0,0,0,4.66,1.61q4.2,0,6.14-2.29c1.3-1.53,1.94-4,1.94-7.5V810.41h4.06v26.76h-3.35l-.58-3.59h-.22a8.1,8.1,0,0,1-3.46,3,11.59,11.59,0,0,1-5,1c-3.26,0-5.69-.78-7.31-2.32s-2.43-4-2.43-7.42V810.41Z"/><path d="M830.71,837.66a11.46,11.46,0,0,1-4.77-1,9,9,0,0,1-3.63-3H822a34.9,34.9,0,0,1,.29,4.44v11h-4V810.41h3.3l.56,3.66h.19A9.45,9.45,0,0,1,826,810.9a11.06,11.06,0,0,1,4.76-1,9.91,9.91,0,0,1,8.22,3.64q2.9,3.65,2.89,10.21T838.88,834A9.93,9.93,0,0,1,830.71,837.66Zm-.58-24.3q-4.11,0-5.94,2.28t-1.88,7.22v.91c0,3.76.63,6.44,1.88,8.06s3.27,2.43,6,2.43a6.29,6.29,0,0,0,5.44-2.8,13.35,13.35,0,0,0,2-7.74q0-5-2-7.68A6.5,6.5,0,0,0,830.13,813.36Z"/><path d="M872,823.77q0,6.54-3.3,10.21t-9.11,3.68a12,12,0,0,1-6.37-1.69,11.13,11.13,0,0,1-4.3-4.83,16.84,16.84,0,0,1-1.51-7.37c0-4.37,1.09-7.76,3.27-10.2s5.21-3.65,9.08-3.65a11.33,11.33,0,0,1,8.93,3.74Q872,817.4,872,823.77Zm-20.39,0c0,3.41.68,6,2,7.81a8.15,8.15,0,0,0,12.07,0q2.07-2.67,2.07-7.82c0-3.41-.69-6-2.07-7.76a7.25,7.25,0,0,0-6.09-2.65,7.13,7.13,0,0,0-6,2.62Q851.62,818.59,851.61,823.77Z"/><path d="M910.3,833.58h-.22q-2.8,4.08-8.4,4.08a9.92,9.92,0,0,1-8.16-3.59q-2.92-3.59-2.92-10.21t2.93-10.28a9.85,9.85,0,0,1,8.15-3.66,9.72,9.72,0,0,1,8.35,4h.32l-.17-1.93-.1-1.88V799.18h4v38h-3.29Zm-8.1.68c2.76,0,4.77-.75,6-2.26s1.87-3.93,1.87-7.28v-.86c0-3.79-.63-6.5-1.89-8.11s-3.28-2.43-6-2.43a6.2,6.2,0,0,0-5.46,2.77q-1.89,2.76-1.89,7.82c0,3.42.62,6,1.88,7.74A6.36,6.36,0,0,0,902.2,834.26Z"/><path d="M934,837.66q-5.92,0-9.36-3.62t-3.43-10q0-6.46,3.18-10.28a10.6,10.6,0,0,1,8.56-3.81,10.11,10.11,0,0,1,8,3.31,12.71,12.71,0,0,1,2.93,8.73v2.56H925.44q.12,4.71,2.38,7.16a8.24,8.24,0,0,0,6.36,2.44,21.59,21.59,0,0,0,8.54-1.81v3.61a20.61,20.61,0,0,1-4.06,1.33A22.72,22.72,0,0,1,934,837.66Zm-1.1-24.34a6.62,6.62,0,0,0-5.14,2.1,9.66,9.66,0,0,0-2.25,5.81h14a8.92,8.92,0,0,0-1.7-5.88A6,6,0,0,0,932.93,813.32Z"/><path d="M733.89,897.17h-4V871.73q0-3.18.2-6c-.35.35-.73.7-1.15,1.08s-2.36,2-5.81,4.76L721,868.78l9.45-7.3h3.42Z"/><path d="M759.28,861a12.1,12.1,0,0,1,7.73,2.27,7.58,7.58,0,0,1,2.86,6.28,7.81,7.81,0,0,1-1.63,4.81,14.49,14.49,0,0,1-5.23,3.95,17.66,17.66,0,0,1,6.18,4.36,8.2,8.2,0,0,1,1.83,5.29,8.85,8.85,0,0,1-3.1,7.09c-2.07,1.76-4.9,2.65-8.5,2.65q-5.71,0-8.79-2.51a8.6,8.6,0,0,1-3.07-7.09q0-6.12,7.47-9.54a13.75,13.75,0,0,1-4.84-4.12,8.78,8.78,0,0,1-1.46-4.94,7.51,7.51,0,0,1,2.87-6.19A11.88,11.88,0,0,1,759.28,861Zm-7.72,27.2a5.55,5.55,0,0,0,2,4.57,8.94,8.94,0,0,0,5.73,1.63,8.52,8.52,0,0,0,5.66-1.71,5.8,5.8,0,0,0,2-4.69,5.72,5.72,0,0,0-1.9-4.21,19.3,19.3,0,0,0-6.64-3.57,14.38,14.38,0,0,0-5.27,3.45A6.7,6.7,0,0,0,751.56,888.16Zm7.67-23.9a7.23,7.23,0,0,0-4.79,1.46,4.88,4.88,0,0,0-1.73,3.91,5.6,5.6,0,0,0,1.44,3.86,15,15,0,0,0,5.32,3.22,13.3,13.3,0,0,0,4.94-3.15,5.82,5.82,0,0,0,1.46-3.93,4.82,4.82,0,0,0-1.77-3.92A7.46,7.46,0,0,0,759.23,864.26Z"/><path d="M803,873.56h-6.81v23.61h-4V873.56H787.3v-1.83l4.79-1.47v-1.48q0-9.87,8.62-9.87a17.82,17.82,0,0,1,5,.86L804.64,863a13.52,13.52,0,0,0-4-.75,3.9,3.9,0,0,0-3.39,1.52,8.55,8.55,0,0,0-1.1,4.9v1.73H803Z"/><path d="M820,869.92a15.48,15.48,0,0,1,3.2.3l-.56,3.76a13.46,13.46,0,0,0-2.93-.37,7.1,7.1,0,0,0-5.55,2.64,9.57,9.57,0,0,0-2.31,6.56v14.36h-4.06V870.41h3.35l.46,5h.2a11.72,11.72,0,0,1,3.59-4A8,8,0,0,1,820,869.92Z"/><path d="M832.05,870.41v17.36a7,7,0,0,0,1.49,4.88,6.07,6.07,0,0,0,4.67,1.61c2.8,0,4.84-.76,6.14-2.29s1.94-4,1.94-7.5V870.41h4.05v26.76H847l-.59-3.59h-.22a8.08,8.08,0,0,1-3.45,3,11.66,11.66,0,0,1-5,1c-3.25,0-5.69-.78-7.31-2.32s-2.43-4-2.43-7.42V870.41Z"/><path d="M867.58,894.31a12.76,12.76,0,0,0,2.07-.16,11.33,11.33,0,0,0,1.59-.33v3.1a7.17,7.17,0,0,1-1.94.53,14.53,14.53,0,0,1-2.31.21q-7.75,0-7.76-8.18V873.56h-3.84v-1.95l3.84-1.69,1.71-5.71h2.34v6.2H871v3.15h-7.76v15.75a5.39,5.39,0,0,0,1.15,3.71A4,4,0,0,0,867.58,894.31Z"/><path d="M893,897.17l-.8-3.81H892a11.4,11.4,0,0,1-4,3.41,12.24,12.24,0,0,1-5,.89,9,9,0,0,1-6.24-2,7.52,7.52,0,0,1-2.26-5.84q0-8.1,13-8.49l4.54-.15v-1.66a6.74,6.74,0,0,0-1.36-4.65,5.56,5.56,0,0,0-4.33-1.5,17.64,17.64,0,0,0-7.57,2l-1.24-3.1a19,19,0,0,1,4.33-1.69,18.64,18.64,0,0,1,4.72-.61q4.79,0,7.1,2.13t2.3,6.81v18.26Zm-9.15-2.86a8.23,8.23,0,0,0,5.94-2.07,7.69,7.69,0,0,0,2.16-5.81V884l-4,.17c-3.22.11-5.55.62-7,1.5a4.53,4.53,0,0,0-2.14,4.14,4.16,4.16,0,0,0,1.33,3.34A5.51,5.51,0,0,0,883.89,894.31Z"/><path d="M921.65,889.87a6.69,6.69,0,0,1-2.78,5.76q-2.79,2-7.81,2-5.32,0-8.3-1.69v-3.76a19.64,19.64,0,0,0,4.14,1.54,17,17,0,0,0,4.26.56,9.73,9.73,0,0,0,4.88-1,3.48,3.48,0,0,0,.35-5.76,21.21,21.21,0,0,0-5.28-2.63,28.27,28.27,0,0,1-5.31-2.43,7.31,7.31,0,0,1-2.35-2.35,6.18,6.18,0,0,1-.77-3.15,6,6,0,0,1,2.66-5.17,12.44,12.44,0,0,1,7.31-1.89,21.36,21.36,0,0,1,8.44,1.76l-1.44,3.3a19.31,19.31,0,0,0-7.3-1.66,8.39,8.39,0,0,0-4.34.9,2.79,2.79,0,0,0-1.47,2.49,3,3,0,0,0,.55,1.83,5.36,5.36,0,0,0,1.77,1.44,38.18,38.18,0,0,0,4.69,2c3.17,1.15,5.32,2.32,6.43,3.49A6.12,6.12,0,0,1,921.65,889.87Z"/><path class="cls-3" d="M163.1,30.5c.5,2.41,1,6.83-.94,10.85a7.39,7.39,0,0,1-6.26,4.11c-3.18.19-8,1.27-9.76,5.9-2.73,7.17-16,21.42-40.28,32.83,0,0-45.58,20.87-83.95-5.43a1.22,1.22,0,0,0-1.6.18l-3.45,3.73a1.24,1.24,0,0,0,.32,1.92C19.24,85.71,22.92,88.53,25,95c3,9.38,24.09,19.34,24.09,19.34s42.92,20.15,84.86-3,35.81-57.77,33.26-64.87c-.94-2.61-.75-5.2,6.27-11.11a1.23,1.23,0,0,0-.15-2,43.28,43.28,0,0,0-8.62-4.3A1.23,1.23,0,0,0,163.1,30.5Z"/><path class="cls-4" d="M89.72,122.84a105.55,105.55,0,0,1-14-1,101.42,101.42,0,0,1-26.8-7.2c-.87-.41-21.31-10.13-24.27-19.55C22.63,88.72,19,86,17,84.89a1.59,1.59,0,0,1-.8-1.13,1.53,1.53,0,0,1,.4-1.32l3.44-3.73a1.57,1.57,0,0,1,2-.23C41.83,92,63.52,92.76,78.23,91a102.24,102.24,0,0,0,27.49-7.12C130.46,72.24,143.26,58,145.83,51.24c1.87-4.92,7.1-6,10-6.12a7,7,0,0,0,6-3.92c1.9-4,1.39-8.36.92-10.63h0a1.55,1.55,0,0,1,.47-1.48,1.58,1.58,0,0,1,1.54-.34,44.06,44.06,0,0,1,8.7,4.34,1.58,1.58,0,0,1,.74,1.22,1.55,1.55,0,0,1-.55,1.32c-7.13,6-7,8.41-6.18,10.74,1.55,4.3,3.31,14.74.07,26.61a54.35,54.35,0,0,1-10.12,19.67c-5.79,7.24-13.64,13.64-23.35,19A89.38,89.38,0,0,1,103,121.94,97.27,97.27,0,0,1,89.72,122.84ZM21.22,78.89a.87.87,0,0,0-.66.28L17.11,82.9a.86.86,0,0,0-.22.75.85.85,0,0,0,.46.64c2.07,1.13,5.85,4,7.94,10.65,2.88,9.13,23.7,19,23.91,19.14a101,101,0,0,0,26.63,7.14c14.52,2,36.35,1.76,57.93-10.16,17.75-9.81,28.9-22.68,33.15-38.26,3.19-11.71,1.47-22,0-26.2-1.1-3.05-.41-5.78,6.37-11.49a.9.9,0,0,0,.32-.75.93.93,0,0,0-.42-.69,43.38,43.38,0,0,0-8.55-4.27.89.89,0,0,0-.88.19.86.86,0,0,0-.27.84h0c.49,2.35,1,6.92-1,11.06a7.71,7.71,0,0,1-6.54,4.31c-3.4.2-7.81,1.34-9.46,5.68-2.61,6.85-15.53,21.29-40.46,33a102.43,102.43,0,0,1-27.69,7.18A92,92,0,0,1,51.15,91,75.28,75.28,0,0,1,21.72,79,.91.91,0,0,0,21.22,78.89Z"/><path class="cls-4" d="M76.33,113.54c2.52.21,5.08.21,7.61.18a128.8,128.8,0,0,0,18.8-1.61,102.69,102.69,0,0,0,23.64-6.61,70.56,70.56,0,0,0,22.49-14.74,61.6,61.6,0,0,0,15.37-25.94c.42-1.39.8-2.79,1.14-4.21.2-.84-1.11-1.2-1.31-.36a62,62,0,0,1-14,27.32,67,67,0,0,1-21.85,15.66,97.73,97.73,0,0,1-23.47,7.17,125.58,125.58,0,0,1-19.25,1.94q-3.08.07-6.14,0c-1,0-1.94-.18-2.88-.14a.29.29,0,0,1-.13,0c-.87-.07-.86,1.28,0,1.36Z"/><ellipse class="cls-4" cx="19.67" cy="81.79" rx="3.82" ry="1.76" transform="translate(-53.24 39.82) rotate(-46.55)"/><ellipse class="cls-4" cx="168.65" cy="32.06" rx="1.25" ry="5.88" transform="translate(66.61 170.12) rotate(-64.29)"/><path class="cls-3" d="M163.92,30.63a17.5,17.5,0,0,1,.48,10.88,7.38,7.38,0,0,1-5.67,4.89c-3.14.6-7.77,2.3-8.92,7.12C148,61,136.7,76.83,114.13,91.29c0,0-42.49,26.61-83.95,5.5a1.22,1.22,0,0,0-1.56.39l-2.93,4.14a1.22,1.22,0,0,0,.56,1.86c2.19.84,6.2,3.16,9.08,9.36,4.14,8.92,26.39,16,26.39,16s45.17,14.41,83.75-14S173.49,52.65,170,46c-1.28-2.47-1.42-5.06,4.78-11.83a1.23,1.23,0,0,0-.41-1.95,43.56,43.56,0,0,0-9.1-3.15A1.23,1.23,0,0,0,163.92,30.63Z"/><path class="cls-4" d="M89.47,132.58h-.34a101.18,101.18,0,0,1-27.51-3.67c-.92-.29-22.44-7.28-26.6-16.23-2.84-6.11-6.79-8.37-8.89-9.18a1.55,1.55,0,0,1-.94-1,1.59,1.59,0,0,1,.22-1.37L28.34,97a1.58,1.58,0,0,1,2-.49c21.32,10.85,42.91,8.78,57.27,5.14A102.32,102.32,0,0,0,114,91c23-14.74,33.87-30.54,35.53-37.56,1.22-5.13,6.28-6.82,9.18-7.37a7,7,0,0,0,5.41-4.67c1.37-4.18.3-8.47-.47-10.66h0a1.56,1.56,0,0,1,.28-1.52,1.61,1.61,0,0,1,1.49-.54,43.85,43.85,0,0,1,9.18,3.18,1.58,1.58,0,0,1,.52,2.49c-6.29,6.87-5.86,9.25-4.73,11.45,2.09,4.06,5.18,14.19,3.52,26.37A54.24,54.24,0,0,1,166.37,93c-4.8,7.93-11.76,15.29-20.69,21.87a89.53,89.53,0,0,1-29.48,14.23A101.19,101.19,0,0,1,89.47,132.58ZM29.63,97a.9.9,0,0,0-.74.38L26,101.51a.9.9,0,0,0-.13.78.92.92,0,0,0,.54.58c2.2.84,6.33,3.2,9.26,9.52,4,8.69,26,15.81,26.19,15.88a100.83,100.83,0,0,0,27.33,3.64c14.65,0,36.27-3,56.12-17.6,16.33-12,25.72-26.23,27.92-42.23,1.64-12-1.4-22-3.45-26-1.48-2.88-1.15-5.68,4.83-12.22a.9.9,0,0,0-.29-1.41,43.43,43.43,0,0,0-9-3.13.89.89,0,0,0-.85.31.87.87,0,0,0-.16.86h0c.79,2.27,1.91,6.73.48,11.09a7.7,7.7,0,0,1-5.93,5.12c-3.35.64-7.57,2.35-8.65,6.86-1.69,7.13-12.63,23.13-35.83,38a102.93,102.93,0,0,1-26.53,10.71,91.82,91.82,0,0,1-27,2.89A75.08,75.08,0,0,1,30,97.09,1,1,0,0,0,29.63,97Z"/><path class="cls-4" d="M88.57,124.22c2.56-.11,5.12-.45,7.66-.81a126.53,126.53,0,0,0,18.36-4,103.5,103.5,0,0,0,22.65-9.63A70.54,70.54,0,0,0,157.65,92.2a61.71,61.71,0,0,0,11.89-27.91c.22-1.39.4-2.78.55-4.19.09-.86-1.26-.85-1.35,0A62,62,0,0,1,158.36,89a66.78,66.78,0,0,1-19.65,18.34,97.81,97.81,0,0,1-22.31,10.13,125.87,125.87,0,0,1-18.78,4.42c-3,.47-6,.62-8.93,1h-.12c-.87,0-.88,1.4,0,1.35Z"/><ellipse class="cls-4" cx="28.35" cy="100.09" rx="3.82" ry="1.76" transform="translate(-69.28 64.19) rotate(-54)"/><ellipse class="cls-4" cx="169.63" cy="31.46" rx="1.25" ry="5.88" transform="translate(86.61 182.7) rotate(-71.74)"/><path class="cls-3" d="M166.26,31.06c1.27,2.12,3.17,6.13,2.67,10.56a7.35,7.35,0,0,1-4.56,5.93c-3,1.23-7.14,3.83-7.29,8.78-.22,7.67-8.12,25.49-27.29,44.22,0,0-36.22,34.66-81.1,22.39a1.23,1.23,0,0,0-1.45.7l-2,4.64a1.24,1.24,0,0,0,.93,1.72c2.31.38,6.71,1.83,10.78,7.32,5.87,7.89,29.1,10.37,29.1,10.37s47.15,5,79.18-30.68,14.89-66.32,10.15-72.18c-1.74-2.17-2.4-4.67,2.29-12.56a1.23,1.23,0,0,0-.79-1.83,44.09,44.09,0,0,0-9.56-1.24A1.23,1.23,0,0,0,166.26,31.06Z"/><path class="cls-4" d="M92.05,148.26c-3.78,0-6-.23-6.06-.23-1-.1-23.45-2.59-29.34-10.51-4-5.41-8.34-6.82-10.56-7.19a1.55,1.55,0,0,1-1.13-.8,1.53,1.53,0,0,1-.06-1.38l2-4.65a1.58,1.58,0,0,1,1.85-.89c23.07,6.31,43.8-.08,57.12-6.56a102.41,102.41,0,0,0,23.65-15.75c19.56-19.1,27-36.77,27.19-44,.16-5.26,4.77-8,7.5-9.08a7,7,0,0,0,4.35-5.66c.5-4.37-1.43-8.36-2.62-10.34a1.54,1.54,0,0,1,0-1.55,1.57,1.57,0,0,1,1.34-.83,44.08,44.08,0,0,1,9.64,1.25,1.57,1.57,0,0,1,1,2.33c-4.76,8-3.87,10.25-2.31,12.17,2.87,3.56,7.95,12.85,8.79,25.12a54.45,54.45,0,0,1-3.12,21.9c-3.09,8.75-8.42,17.36-15.84,25.61a89.2,89.2,0,0,1-26,19.91,101.4,101.4,0,0,1-25.8,8.9A109.56,109.56,0,0,1,92.05,148.26Zm-43.68-25a.92.92,0,0,0-.82.54l-2,4.65a.91.91,0,0,0,0,.79.9.9,0,0,0,.65.45c2.32.38,6.84,1.86,11,7.45,5.71,7.69,28.64,10.22,28.87,10.25a101.2,101.2,0,0,0,27.5-2c14.35-2.92,34.91-10.26,51.39-28.59,13.56-15.09,19.88-30.9,18.78-47-.82-12.11-5.82-21.25-8.64-24.74-2-2.52-2.27-5.33,2.26-12.94a.92.92,0,0,0,.05-.81.88.88,0,0,0-.62-.52,43.72,43.72,0,0,0-9.48-1.23.92.92,0,0,0-.77.47.89.89,0,0,0,0,.88c1.24,2.06,3.23,6.2,2.72,10.77a7.72,7.72,0,0,1-4.77,6.21c-3.16,1.3-6.94,3.83-7.08,8.47-.22,7.32-7.69,25.2-27.4,44.45a103.08,103.08,0,0,1-23.81,15.86A91.85,91.85,0,0,1,80.35,125a75.38,75.38,0,0,1-31.75-1.68A.59.59,0,0,0,48.37,123.23Z"/><path class="cls-4" d="M111.47,138c2.45-.63,4.86-1.46,7.24-2.32A128.78,128.78,0,0,0,135.94,128a103.34,103.34,0,0,0,20.16-14,70.42,70.42,0,0,0,16.45-21.29,61.74,61.74,0,0,0,6-29.67c-.06-1.41-.16-2.83-.3-4.24-.09-.86-1.44-.87-1.36,0a62,62,0,0,1-4.26,30.4,67.07,67.07,0,0,1-15.49,22,98.26,98.26,0,0,1-19.82,14.48,125.38,125.38,0,0,1-17.55,8.16c-1.92.72-3.85,1.39-5.81,2-.91.28-1.88.48-2.77.81a.53.53,0,0,1-.12,0,.68.68,0,0,0,.36,1.31Z"/><ellipse class="cls-4" cx="47.57" cy="126.54" rx="3.82" ry="1.76" transform="translate(-87.33 117.78) rotate(-65.68)"/><ellipse class="cls-4" cx="172.02" cy="30.72" rx="1.25" ry="5.88" transform="translate(121.82 198.1) rotate(-83.43)"/><path class="cls-3" d="M163.1,507.28c.5,2.41,1,6.83-.94,10.84a7.38,7.38,0,0,1-6.26,4.12c-3.18.18-8,1.27-9.76,5.9-2.73,7.17-16,21.42-40.28,32.82,0,0-45.58,20.88-83.95-5.42a1.22,1.22,0,0,0-1.6.18l-3.45,3.73a1.24,1.24,0,0,0,.32,1.92c2.06,1.12,5.74,3.93,7.79,10.45,3,9.38,24.09,19.34,24.09,19.34s42.92,20.14,84.86-3,35.81-57.78,33.26-64.87c-.94-2.61-.75-5.2,6.27-11.11a1.23,1.23,0,0,0-.15-2,43.28,43.28,0,0,0-8.62-4.3A1.23,1.23,0,0,0,163.1,507.28Z"/><path class="cls-4" d="M89.72,599.62a105.55,105.55,0,0,1-14-1,101.42,101.42,0,0,1-26.8-7.2c-.87-.41-21.31-10.13-24.27-19.55-2-6.42-5.65-9.18-7.63-10.25a1.59,1.59,0,0,1-.8-1.13,1.53,1.53,0,0,1,.4-1.32l3.44-3.73a1.57,1.57,0,0,1,2-.23c19.73,13.53,41.42,14.27,56.13,12.52a102.24,102.24,0,0,0,27.49-7.12c24.74-11.64,37.54-25.9,40.11-32.64,1.87-4.92,7.1-5.95,10-6.12a7,7,0,0,0,6-3.92c1.9-4,1.39-8.37.92-10.63h0a1.55,1.55,0,0,1,.47-1.48,1.58,1.58,0,0,1,1.54-.34,44.06,44.06,0,0,1,8.7,4.34,1.58,1.58,0,0,1,.74,1.22,1.55,1.55,0,0,1-.55,1.32c-7.13,6-7,8.41-6.18,10.74,1.55,4.3,3.31,14.74.07,26.61a54.35,54.35,0,0,1-10.12,19.67c-5.79,7.24-13.64,13.63-23.35,19A89.38,89.38,0,0,1,103,598.72,97.27,97.27,0,0,1,89.72,599.62Zm-68.5-44a.88.88,0,0,0-.66.29l-3.45,3.73a.89.89,0,0,0,.24,1.39c2.07,1.12,5.85,4,7.94,10.65,2.88,9.13,23.7,19,23.91,19.14A101,101,0,0,0,75.83,598c14.52,1.94,36.35,1.76,57.93-10.16,17.75-9.81,28.9-22.68,33.15-38.26,3.19-11.71,1.47-22,0-26.2-1.1-3-.41-5.78,6.37-11.49a.89.89,0,0,0-.1-1.44,43.38,43.38,0,0,0-8.55-4.27.89.89,0,0,0-.88.19.86.86,0,0,0-.27.84h0c.49,2.35,1,6.91-1,11.06a7.71,7.71,0,0,1-6.54,4.31c-3.4.2-7.81,1.34-9.46,5.68-2.61,6.85-15.53,21.29-40.46,33a102.87,102.87,0,0,1-27.69,7.18,92,92,0,0,1-27.16-.63,75.43,75.43,0,0,1-29.43-12A.85.85,0,0,0,21.22,555.66Z"/><path class="cls-4" d="M76.33,590.32c2.52.21,5.08.21,7.61.18a127.44,127.44,0,0,0,18.8-1.62,102.17,102.17,0,0,0,23.64-6.6,70.56,70.56,0,0,0,22.49-14.74,61.66,61.66,0,0,0,15.37-25.94c.42-1.39.8-2.79,1.14-4.21.2-.84-1.11-1.2-1.31-.36a62,62,0,0,1-14,27.32A67,67,0,0,1,128.2,580a98.18,98.18,0,0,1-23.47,7.17,125.58,125.58,0,0,1-19.25,1.94q-3.08.07-6.14,0c-1,0-1.94-.19-2.88-.14h-.13c-.87-.07-.86,1.28,0,1.36Z"/><ellipse class="cls-4" cx="19.67" cy="558.57" rx="3.82" ry="1.76" transform="translate(-399.35 188.69) rotate(-46.55)"/><ellipse class="cls-4" cx="168.65" cy="508.84" rx="1.25" ry="5.88" transform="translate(-362.99 440.1) rotate(-64.29)"/><path class="cls-3" d="M163.92,507.41a17.5,17.5,0,0,1,.48,10.88,7.38,7.38,0,0,1-5.67,4.89c-3.14.6-7.77,2.29-8.92,7.12-1.77,7.46-13.11,23.31-35.68,37.77,0,0-42.49,26.61-83.95,5.5a1.22,1.22,0,0,0-1.56.39l-2.93,4.14a1.22,1.22,0,0,0,.56,1.86c2.19.84,6.2,3.16,9.08,9.36,4.14,8.92,26.39,16,26.39,16s45.17,14.41,83.75-14,28-61.94,24.57-68.64c-1.28-2.47-1.42-5.06,4.78-11.83a1.23,1.23,0,0,0-.41-1.95,43.56,43.56,0,0,0-9.1-3.15A1.23,1.23,0,0,0,163.92,507.41Z"/><path class="cls-4" d="M89.47,609.36h-.34a101.18,101.18,0,0,1-27.51-3.67c-.92-.29-22.44-7.28-26.6-16.23-2.84-6.11-6.79-8.37-8.89-9.18a1.58,1.58,0,0,1-.72-2.38l2.93-4.14a1.58,1.58,0,0,1,2-.49c21.32,10.85,42.91,8.78,57.27,5.14A102.32,102.32,0,0,0,114,567.78c23-14.74,33.87-30.54,35.53-37.56,1.22-5.13,6.28-6.82,9.18-7.37a7,7,0,0,0,5.41-4.67c1.37-4.18.3-8.47-.47-10.66h0a1.55,1.55,0,0,1,.28-1.52,1.61,1.61,0,0,1,1.49-.54,43.85,43.85,0,0,1,9.18,3.18,1.58,1.58,0,0,1,.52,2.49c-6.29,6.87-5.86,9.25-4.73,11.45,2.09,4.06,5.18,14.19,3.52,26.37a54.3,54.3,0,0,1-7.49,20.82c-4.8,7.93-11.76,15.29-20.69,21.87a89.53,89.53,0,0,1-29.48,14.23A101.19,101.19,0,0,1,89.47,609.36ZM29.63,573.78a.91.91,0,0,0-.74.37L26,578.29a.9.9,0,0,0-.13.78.92.92,0,0,0,.54.58c2.2.84,6.33,3.2,9.26,9.52,4,8.69,26,15.81,26.19,15.88a100.83,100.83,0,0,0,27.33,3.64c14.65,0,36.27-3,56.12-17.6,16.33-12,25.72-26.23,27.92-42.23,1.64-12-1.4-22-3.45-26-1.48-2.88-1.15-5.68,4.83-12.22a.89.89,0,0,0,.21-.78.87.87,0,0,0-.5-.63,43.43,43.43,0,0,0-9-3.13.89.89,0,0,0-.85.31.87.87,0,0,0-.16.86h0c.79,2.27,1.91,6.73.48,11.09a7.7,7.7,0,0,1-5.93,5.12c-3.35.64-7.57,2.35-8.65,6.86-1.69,7.13-12.63,23.13-35.83,38a102.93,102.93,0,0,1-26.53,10.71,91.82,91.82,0,0,1-27,2.89A75.08,75.08,0,0,1,30,573.87,1,1,0,0,0,29.63,573.78Z"/><path class="cls-4" d="M88.57,601c2.56-.12,5.12-.45,7.66-.81a127.86,127.86,0,0,0,18.36-4,103.5,103.5,0,0,0,22.65-9.63A70.42,70.42,0,0,0,157.65,569a61.63,61.63,0,0,0,11.89-27.9c.22-1.39.4-2.79.55-4.19.09-.86-1.26-.86-1.35,0a62,62,0,0,1-10.38,28.85,66.78,66.78,0,0,1-19.65,18.34A97.81,97.81,0,0,1,116.4,594.2a125.87,125.87,0,0,1-18.78,4.42c-3,.47-6,.62-8.93,1h-.12c-.87,0-.88,1.39,0,1.35Z"/><ellipse class="cls-4" cx="28.35" cy="576.87" rx="3.82" ry="1.76" transform="translate(-454.99 260.71) rotate(-54)"/><ellipse class="cls-4" cx="169.63" cy="508.24" rx="1.25" ry="5.88" transform="translate(-366.17 510.12) rotate(-71.74)"/><path class="cls-3" d="M166.26,507.84c1.27,2.12,3.17,6.13,2.67,10.56a7.35,7.35,0,0,1-4.56,5.93c-3,1.23-7.14,3.83-7.29,8.78-.22,7.67-8.12,25.49-27.29,44.21,0,0-36.22,34.67-81.1,22.4a1.23,1.23,0,0,0-1.45.7l-2,4.64a1.24,1.24,0,0,0,.93,1.72c2.31.38,6.71,1.83,10.78,7.32C62.79,622,86,624.47,86,624.47s47.15,5,79.18-30.68,14.89-66.32,10.15-72.18c-1.74-2.17-2.4-4.67,2.29-12.56a1.23,1.23,0,0,0-.79-1.83,43.48,43.48,0,0,0-9.56-1.24A1.23,1.23,0,0,0,166.26,507.84Z"/><path class="cls-4" d="M92.05,625c-3.78,0-6-.23-6.06-.23-1-.1-23.45-2.59-29.34-10.51-4-5.41-8.34-6.83-10.56-7.19a1.55,1.55,0,0,1-1.13-.8,1.53,1.53,0,0,1-.06-1.38l2-4.65a1.58,1.58,0,0,1,1.85-.89c23.07,6.31,43.8-.08,57.12-6.56a102.41,102.41,0,0,0,23.65-15.75c19.56-19.1,27-36.77,27.19-44,.16-5.26,4.77-8,7.5-9.08a7,7,0,0,0,4.35-5.66c.5-4.37-1.43-8.36-2.62-10.34a1.54,1.54,0,0,1,0-1.55,1.57,1.57,0,0,1,1.34-.83,44.08,44.08,0,0,1,9.64,1.25,1.57,1.57,0,0,1,1,2.33c-4.76,8-3.87,10.25-2.31,12.17,2.87,3.56,7.95,12.85,8.79,25.12a54.45,54.45,0,0,1-3.12,21.9c-3.09,8.74-8.42,17.36-15.84,25.61a89,89,0,0,1-26,19.9,101,101,0,0,1-25.8,8.91A109.56,109.56,0,0,1,92.05,625ZM48.37,600a.92.92,0,0,0-.82.54l-2,4.65a.89.89,0,0,0,.68,1.24c2.32.38,6.84,1.86,11,7.45,5.71,7.69,28.64,10.22,28.87,10.25a101.2,101.2,0,0,0,27.5-2c14.35-2.92,34.91-10.26,51.39-28.59,13.56-15.09,19.88-30.9,18.78-47-.82-12.11-5.82-21.25-8.64-24.74-2-2.52-2.27-5.33,2.26-12.94a.92.92,0,0,0,.05-.81.86.86,0,0,0-.62-.52,43.72,43.72,0,0,0-9.48-1.23.92.92,0,0,0-.77.47.89.89,0,0,0,0,.88c1.24,2.06,3.23,6.2,2.72,10.77a7.72,7.72,0,0,1-4.77,6.21c-3.16,1.3-6.94,3.83-7.08,8.47-.22,7.32-7.69,25.2-27.4,44.45a103.08,103.08,0,0,1-23.81,15.86,91.85,91.85,0,0,1-25.86,8.3,75.38,75.38,0,0,1-31.75-1.68A.59.59,0,0,0,48.37,600Z"/><path class="cls-4" d="M111.47,614.75c2.45-.63,4.86-1.46,7.24-2.32a128.78,128.78,0,0,0,17.23-7.67,103.34,103.34,0,0,0,20.16-14,70.42,70.42,0,0,0,16.45-21.29,61.74,61.74,0,0,0,6-29.67c-.06-1.41-.16-2.83-.3-4.24-.09-.86-1.44-.87-1.36,0a62,62,0,0,1-4.26,30.4,67.07,67.07,0,0,1-15.49,22,98.26,98.26,0,0,1-19.82,14.48,125.38,125.38,0,0,1-17.55,8.16c-1.92.72-3.85,1.39-5.81,2-.91.28-1.88.48-2.77.81l-.12,0a.68.68,0,0,0,.36,1.31Z"/><ellipse class="cls-4" cx="47.57" cy="603.32" rx="3.82" ry="1.76" transform="translate(-521.81 398.23) rotate(-65.68)"/><ellipse class="cls-4" cx="172.02" cy="507.5" rx="1.25" ry="5.88" transform="translate(-351.83 620.32) rotate(-83.43)"/><path class="cls-3" d="M356.64,30.5a17.42,17.42,0,0,1-.94,10.85,7.39,7.39,0,0,1-6.25,4.11c-3.19.19-8,1.27-9.77,5.9-2.72,7.17-16,21.42-40.28,32.83,0,0-45.58,20.87-83.95-5.43a1.23,1.23,0,0,0-1.6.18l-3.44,3.73a1.23,1.23,0,0,0,.32,1.92c2.05,1.12,5.73,3.94,7.78,10.45,3,9.38,24.09,19.34,24.09,19.34s42.92,20.15,84.87-3,35.8-57.77,33.25-64.87c-.94-2.61-.75-5.2,6.27-11.11a1.23,1.23,0,0,0-.14-2,43.56,43.56,0,0,0-8.62-4.3A1.23,1.23,0,0,0,356.64,30.5Z"/><path class="cls-4" d="M283.26,122.84a105.67,105.67,0,0,1-14-1,101.57,101.57,0,0,1-26.8-7.2c-.87-.41-21.31-10.13-24.27-19.55-2-6.42-5.64-9.18-7.62-10.25a1.57,1.57,0,0,1-.41-2.45l3.44-3.73a1.57,1.57,0,0,1,2-.23C235.38,92,257.06,92.76,271.78,91a102.24,102.24,0,0,0,27.48-7.12C324,72.24,336.8,58,339.37,51.24c1.87-4.92,7.1-6,10.06-6.12a7,7,0,0,0,6-3.92c1.9-4,1.38-8.36.91-10.63h0a1.53,1.53,0,0,1,.48-1.48,1.57,1.57,0,0,1,1.54-.34,44.62,44.62,0,0,1,8.7,4.34,1.58,1.58,0,0,1,.18,2.54c-7.12,6-7,8.41-6.17,10.74,1.54,4.3,3.3,14.74.07,26.61A54.38,54.38,0,0,1,351,92.65c-5.79,7.24-13.64,13.64-23.35,19a89.32,89.32,0,0,1-31.07,10.29A97.41,97.41,0,0,1,283.26,122.84Zm-68.5-43.95a.88.88,0,0,0-.66.28l-3.44,3.73a.87.87,0,0,0-.23.75.85.85,0,0,0,.46.64c2.07,1.13,5.85,4,7.94,10.65,2.88,9.13,23.71,19,23.92,19.14a100.65,100.65,0,0,0,26.62,7.14c14.52,2,36.35,1.76,57.93-10.16,17.75-9.81,28.91-22.68,33.15-38.26,3.19-11.71,1.47-22-.05-26.2-1.09-3.05-.4-5.78,6.37-11.49a.89.89,0,0,0-.1-1.44,43.56,43.56,0,0,0-8.54-4.27.9.9,0,0,0-.89.19.91.91,0,0,0-.27.84h0c.49,2.35,1,6.92-1,11.06a7.73,7.73,0,0,1-6.54,4.31c-3.41.2-7.82,1.34-9.47,5.68-2.6,6.85-15.52,21.29-40.45,33a102.57,102.57,0,0,1-27.69,7.18A91.94,91.94,0,0,1,244.7,91a75.26,75.26,0,0,1-29.44-12A.91.91,0,0,0,214.76,78.89Z"/><path class="cls-4" d="M269.87,113.54c2.53.21,5.08.21,7.61.18a128.8,128.8,0,0,0,18.8-1.61,102.77,102.77,0,0,0,23.65-6.61,70.78,70.78,0,0,0,22.49-14.74,61.8,61.8,0,0,0,15.37-25.94c.42-1.39.79-2.79,1.13-4.21.2-.84-1.1-1.2-1.31-.36a61.81,61.81,0,0,1-14,27.32,67,67,0,0,1-21.84,15.66,97.94,97.94,0,0,1-23.48,7.17A125.46,125.46,0,0,1,279,112.34q-3.06.07-6.14,0c-.94,0-1.94-.18-2.88-.14a.3.3,0,0,1-.13,0c-.86-.07-.86,1.28,0,1.36Z"/><ellipse class="cls-4" cx="213.21" cy="81.79" rx="3.82" ry="1.76" transform="translate(7.2 180.32) rotate(-46.55)"/><ellipse class="cls-4" cx="362.2" cy="32.06" rx="1.25" ry="5.88" transform="translate(176.2 344.51) rotate(-64.29)"/><path class="cls-3" d="M357.46,30.63c.82,2.33,1.87,6.65.48,10.88a7.38,7.38,0,0,1-5.67,4.89c-3.14.6-7.77,2.3-8.91,7.12-1.78,7.46-13.12,23.31-35.69,37.77,0,0-42.49,26.61-84,5.5a1.22,1.22,0,0,0-1.56.39l-2.93,4.14a1.22,1.22,0,0,0,.56,1.86c2.19.84,6.2,3.16,9.08,9.36,4.14,8.92,26.39,16,26.39,16s45.17,14.41,83.76-14S367,52.65,363.58,46c-1.27-2.47-1.41-5.06,4.78-11.83a1.23,1.23,0,0,0-.4-1.95A43.86,43.86,0,0,0,358.85,29,1.23,1.23,0,0,0,357.46,30.63Z"/><path class="cls-4" d="M283,132.58h-.34a101.28,101.28,0,0,1-27.51-3.67c-.91-.29-22.44-7.28-26.6-16.23-2.83-6.11-6.78-8.37-8.89-9.18a1.58,1.58,0,0,1-.72-2.38L221.88,97a1.59,1.59,0,0,1,2-.49c21.31,10.85,42.9,8.78,57.26,5.14A102.12,102.12,0,0,0,307.49,91c23-14.74,33.87-30.54,35.54-37.56,1.21-5.13,6.27-6.82,9.18-7.37a7.06,7.06,0,0,0,5.41-4.67c1.37-4.18.29-8.47-.48-10.66h0a1.54,1.54,0,0,1,.29-1.52,1.59,1.59,0,0,1,1.48-.54,44.15,44.15,0,0,1,9.19,3.18A1.57,1.57,0,0,1,369,33a1.58,1.58,0,0,1-.38,1.38c-6.29,6.87-5.86,9.25-4.73,11.45C366,49.86,369.07,60,367.4,72.17A54.24,54.24,0,0,1,359.91,93c-4.8,7.93-11.76,15.29-20.69,21.87a89.44,89.44,0,0,1-29.48,14.23A101.19,101.19,0,0,1,283,132.58ZM223.17,97a.88.88,0,0,0-.73.38l-2.94,4.13a.9.9,0,0,0-.12.78.87.87,0,0,0,.54.58c2.19.84,6.32,3.2,9.26,9.52,4,8.69,26,15.81,26.19,15.88a100.61,100.61,0,0,0,27.32,3.64c14.65,0,36.28-3,56.13-17.6,16.33-12,25.72-26.23,27.91-42.23,1.64-12-1.4-22-3.45-26-1.48-2.88-1.15-5.68,4.83-12.22a.89.89,0,0,0,.21-.78.87.87,0,0,0-.5-.63,43.43,43.43,0,0,0-9-3.13.9.9,0,0,0-1,1.17h0c.8,2.27,1.91,6.73.48,11.09a7.7,7.7,0,0,1-5.93,5.12c-3.35.64-7.57,2.35-8.64,6.86-1.7,7.13-12.64,23.13-35.84,38a103,103,0,0,1-26.52,10.71,91.89,91.89,0,0,1-27,2.89,75.12,75.12,0,0,1-30.74-8.08A.93.93,0,0,0,223.17,97Z"/><path class="cls-4" d="M282.11,124.22c2.56-.11,5.13-.45,7.67-.81a126.39,126.39,0,0,0,18.35-4,103.3,103.3,0,0,0,22.65-9.63A70.71,70.71,0,0,0,351.2,92.2a61.69,61.69,0,0,0,11.88-27.91c.22-1.39.41-2.78.55-4.19.09-.86-1.26-.85-1.35,0A61.88,61.88,0,0,1,351.9,89a66.66,66.66,0,0,1-19.65,18.34A97.74,97.74,0,0,1,310,117.42a126.46,126.46,0,0,1-18.78,4.42c-3,.47-6,.62-8.94,1h-.12c-.87,0-.87,1.4,0,1.35Z"/><ellipse class="cls-4" cx="221.9" cy="100.09" rx="3.82" ry="1.76" transform="translate(10.49 220.76) rotate(-54)"/><ellipse class="cls-4" cx="363.17" cy="31.46" rx="1.25" ry="5.88" transform="translate(219.52 366.5) rotate(-71.74)"/><path class="cls-3" d="M359.8,31.06c1.27,2.12,3.17,6.13,2.67,10.56a7.35,7.35,0,0,1-4.56,5.93c-3,1.23-7.14,3.83-7.29,8.78-.22,7.67-8.12,25.49-27.29,44.22,0,0-36.22,34.66-81.1,22.39a1.22,1.22,0,0,0-1.44.7l-2,4.64a1.24,1.24,0,0,0,.93,1.72c2.31.38,6.71,1.83,10.78,7.32,5.87,7.89,29.1,10.37,29.1,10.37s47.15,5,79.19-30.68,14.88-66.32,10.15-72.18c-1.75-2.17-2.41-4.67,2.28-12.56a1.23,1.23,0,0,0-.79-1.83,44,44,0,0,0-9.55-1.24A1.23,1.23,0,0,0,359.8,31.06Z"/><path class="cls-4" d="M285.59,148.26c-3.77,0-6-.23-6.06-.23-1-.1-23.45-2.59-29.34-10.51-4-5.41-8.34-6.82-10.56-7.19a1.57,1.57,0,0,1-1.13-.8,1.59,1.59,0,0,1-.06-1.38l2-4.65a1.57,1.57,0,0,1,1.84-.89c23.07,6.31,43.8-.08,57.12-6.56a102.13,102.13,0,0,0,23.65-15.75c19.57-19.1,27-36.77,27.2-44,.15-5.26,4.76-8,7.49-9.08a7,7,0,0,0,4.36-5.66,17.17,17.17,0,0,0-2.63-10.34,1.58,1.58,0,0,1,1.31-2.38,44.26,44.26,0,0,1,9.65,1.25,1.56,1.56,0,0,1,1.09.91,1.52,1.52,0,0,1-.09,1.42c-4.76,8-3.86,10.25-2.31,12.17,2.87,3.56,7.95,12.85,8.79,25.12a54.45,54.45,0,0,1-3.12,21.9c-3.09,8.75-8.42,17.36-15.83,25.61a89.38,89.38,0,0,1-26,19.91,101.4,101.4,0,0,1-25.8,8.9A109.56,109.56,0,0,1,285.59,148.26Zm-43.67-25a.89.89,0,0,0-.82.54l-2,4.65a.91.91,0,0,0,0,.79.9.9,0,0,0,.65.45c2.32.38,6.84,1.86,11,7.45,5.71,7.69,28.63,10.22,28.86,10.25a101.19,101.19,0,0,0,27.5-2c14.35-2.92,34.91-10.26,51.39-28.59,13.56-15.09,19.88-30.9,18.78-47-.82-12.11-5.81-21.25-8.64-24.74-2-2.52-2.27-5.33,2.26-12.94a.86.86,0,0,0,.05-.81.88.88,0,0,0-.62-.52,43.63,43.63,0,0,0-9.47-1.23.9.9,0,0,0-.77.47.87.87,0,0,0,0,.88c1.24,2.06,3.24,6.2,2.72,10.77A7.72,7.72,0,0,1,358,47.87c-3.15,1.3-6.94,3.83-7.08,8.47-.21,7.32-7.69,25.2-27.4,44.45a103.14,103.14,0,0,1-23.8,15.86,92,92,0,0,1-25.87,8.3,75.34,75.34,0,0,1-31.74-1.68A.66.66,0,0,0,241.92,123.23Z"/><path class="cls-4" d="M305,138c2.45-.63,4.86-1.46,7.24-2.32A128.78,128.78,0,0,0,329.48,128a103,103,0,0,0,20.16-14,70.26,70.26,0,0,0,16.45-21.29,61.74,61.74,0,0,0,6-29.67c-.05-1.41-.16-2.83-.3-4.24-.09-.86-1.44-.87-1.35,0a62.17,62.17,0,0,1-4.27,30.4,66.78,66.78,0,0,1-15.49,22,98.19,98.19,0,0,1-19.81,14.48,126.44,126.44,0,0,1-17.55,8.16q-2.88,1.08-5.81,2c-.91.28-1.88.48-2.78.81a.53.53,0,0,1-.12,0A.68.68,0,0,0,305,138Z"/><ellipse class="cls-4" cx="241.12" cy="126.54" rx="3.82" ry="1.76" transform="translate(26.51 294.16) rotate(-65.68)"/><ellipse class="cls-4" cx="365.57" cy="30.72" rx="1.25" ry="5.88" transform="translate(293.22 390.37) rotate(-83.43)"/><path class="cls-3" d="M356.64,507.28c.51,2.41,1,6.83-.94,10.84a7.38,7.38,0,0,1-6.25,4.12c-3.19.18-8,1.27-9.77,5.9-2.72,7.17-16,21.42-40.28,32.82,0,0-45.58,20.88-83.95-5.42a1.23,1.23,0,0,0-1.6.18l-3.44,3.73a1.23,1.23,0,0,0,.32,1.92c2.05,1.12,5.73,3.93,7.78,10.45,3,9.38,24.09,19.34,24.09,19.34s42.92,20.14,84.87-3,35.8-57.78,33.25-64.87c-.94-2.61-.75-5.2,6.27-11.11a1.23,1.23,0,0,0-.14-2,43.56,43.56,0,0,0-8.62-4.3A1.23,1.23,0,0,0,356.64,507.28Z"/><path class="cls-4" d="M283.26,599.62a105.67,105.67,0,0,1-14-1,101.57,101.57,0,0,1-26.8-7.2c-.87-.41-21.31-10.13-24.27-19.55-2-6.42-5.64-9.18-7.62-10.25a1.57,1.57,0,0,1-.41-2.45l3.44-3.73a1.57,1.57,0,0,1,2-.23c19.74,13.53,41.42,14.27,56.14,12.52a102.24,102.24,0,0,0,27.48-7.12C324,549,336.8,534.76,339.37,528c1.87-4.92,7.1-5.95,10.06-6.12a7,7,0,0,0,6-3.92c1.9-4,1.38-8.37.91-10.63h0a1.53,1.53,0,0,1,.48-1.48,1.57,1.57,0,0,1,1.54-.34,44.62,44.62,0,0,1,8.7,4.34,1.58,1.58,0,0,1,.18,2.54c-7.12,6-7,8.41-6.17,10.74,1.54,4.3,3.3,14.74.07,26.61A54.38,54.38,0,0,1,351,569.43c-5.79,7.24-13.64,13.63-23.35,19a89.32,89.32,0,0,1-31.07,10.29A97.41,97.41,0,0,1,283.26,599.62Zm-68.5-44a.89.89,0,0,0-.66.29l-3.44,3.73a.88.88,0,0,0,.23,1.39c2.07,1.12,5.85,4,7.94,10.65,2.88,9.13,23.71,19,23.92,19.14A100.65,100.65,0,0,0,269.37,598c14.52,1.94,36.35,1.76,57.93-10.16,17.75-9.81,28.91-22.68,33.15-38.26,3.19-11.71,1.47-22-.05-26.2-1.09-3-.4-5.78,6.37-11.49a.9.9,0,0,0,.32-.75.88.88,0,0,0-.42-.69,43.56,43.56,0,0,0-8.54-4.27.9.9,0,0,0-.89.19.91.91,0,0,0-.27.84h0c.49,2.35,1,6.91-1,11.06a7.73,7.73,0,0,1-6.54,4.31c-3.41.2-7.82,1.34-9.47,5.68-2.6,6.85-15.52,21.29-40.45,33a103,103,0,0,1-27.69,7.18,91.94,91.94,0,0,1-27.16-.63,75.41,75.41,0,0,1-29.44-12A.85.85,0,0,0,214.76,555.66Z"/><path class="cls-4" d="M269.87,590.32c2.53.21,5.08.21,7.61.18a127.44,127.44,0,0,0,18.8-1.62,102.25,102.25,0,0,0,23.65-6.6,70.78,70.78,0,0,0,22.49-14.74,61.86,61.86,0,0,0,15.37-25.94c.42-1.39.79-2.79,1.13-4.21.2-.84-1.1-1.2-1.31-.36a61.81,61.81,0,0,1-14,27.32A67,67,0,0,1,321.75,580a98.4,98.4,0,0,1-23.48,7.17A125.46,125.46,0,0,1,279,589.12q-3.06.07-6.14,0c-.94,0-1.94-.19-2.88-.14h-.13c-.86-.07-.86,1.28,0,1.36Z"/><ellipse class="cls-4" cx="213.21" cy="558.57" rx="3.82" ry="1.76" transform="translate(-338.92 329.19) rotate(-46.55)"/><ellipse class="cls-4" cx="362.2" cy="508.84" rx="1.25" ry="5.88" transform="translate(-253.39 614.49) rotate(-64.29)"/><path class="cls-3" d="M357.46,507.41c.82,2.33,1.87,6.65.48,10.88a7.38,7.38,0,0,1-5.67,4.89c-3.14.6-7.77,2.29-8.91,7.12-1.78,7.46-13.12,23.31-35.69,37.77,0,0-42.49,26.61-84,5.5a1.22,1.22,0,0,0-1.56.39l-2.93,4.14a1.22,1.22,0,0,0,.56,1.86c2.19.84,6.2,3.16,9.08,9.36,4.14,8.92,26.39,16,26.39,16s45.17,14.41,83.76-14,28-61.94,24.56-68.64c-1.27-2.47-1.41-5.06,4.78-11.83A1.23,1.23,0,0,0,368,509a43.86,43.86,0,0,0-9.11-3.15A1.23,1.23,0,0,0,357.46,507.41Z"/><path class="cls-4" d="M283,609.36h-.34a101.28,101.28,0,0,1-27.51-3.67c-.91-.29-22.44-7.28-26.6-16.23-2.83-6.11-6.78-8.37-8.89-9.18a1.58,1.58,0,0,1-.72-2.38l2.93-4.14a1.59,1.59,0,0,1,2-.49c21.31,10.85,42.9,8.78,57.26,5.14a102.12,102.12,0,0,0,26.35-10.63c23-14.74,33.87-30.54,35.54-37.56,1.21-5.13,6.27-6.82,9.18-7.37a7.06,7.06,0,0,0,5.41-4.67c1.37-4.18.29-8.47-.48-10.66h0a1.53,1.53,0,0,1,.29-1.52,1.59,1.59,0,0,1,1.48-.54,44.15,44.15,0,0,1,9.19,3.18,1.57,1.57,0,0,1,.89,1.11,1.58,1.58,0,0,1-.38,1.38c-6.29,6.87-5.86,9.25-4.73,11.45,2.09,4.06,5.19,14.19,3.52,26.37a54.3,54.3,0,0,1-7.49,20.82c-4.8,7.93-11.76,15.29-20.69,21.87a89.44,89.44,0,0,1-29.48,14.23A101.19,101.19,0,0,1,283,609.36Zm-59.84-35.58a.9.9,0,0,0-.73.37l-2.94,4.14a.9.9,0,0,0-.12.78.87.87,0,0,0,.54.58c2.19.84,6.32,3.2,9.26,9.52,4,8.69,26,15.81,26.19,15.88a100.61,100.61,0,0,0,27.32,3.64c14.65,0,36.28-3,56.13-17.6,16.33-12,25.72-26.23,27.91-42.23,1.64-12-1.4-22-3.45-26-1.48-2.88-1.15-5.68,4.83-12.22a.89.89,0,0,0,.21-.78.85.85,0,0,0-.5-.63,43.43,43.43,0,0,0-9-3.13.9.9,0,0,0-1,1.17h0c.8,2.27,1.91,6.73.48,11.09a7.7,7.7,0,0,1-5.93,5.12c-3.35.64-7.57,2.35-8.64,6.86-1.7,7.13-12.64,23.13-35.84,38a103,103,0,0,1-26.52,10.71,91.89,91.89,0,0,1-27,2.89,75.12,75.12,0,0,1-30.74-8.08A.93.93,0,0,0,223.17,573.78Z"/><path class="cls-4" d="M282.11,601c2.56-.12,5.13-.45,7.67-.81a127.73,127.73,0,0,0,18.35-4,103.3,103.3,0,0,0,22.65-9.63A70.59,70.59,0,0,0,351.2,569a61.61,61.61,0,0,0,11.88-27.9c.22-1.39.41-2.79.55-4.19.09-.86-1.26-.86-1.35,0a61.88,61.88,0,0,1-10.38,28.85,66.66,66.66,0,0,1-19.65,18.34A97.74,97.74,0,0,1,310,594.2a126.46,126.46,0,0,1-18.78,4.42c-3,.47-6,.62-8.94,1h-.12c-.87,0-.87,1.39,0,1.35Z"/><ellipse class="cls-4" cx="221.9" cy="576.87" rx="3.82" ry="1.76" transform="translate(-375.22 417.28) rotate(-54)"/><ellipse class="cls-4" cx="363.17" cy="508.24" rx="1.25" ry="5.88" transform="translate(-233.26 693.92) rotate(-71.74)"/><path class="cls-3" d="M359.8,507.84c1.27,2.12,3.17,6.13,2.67,10.56a7.35,7.35,0,0,1-4.56,5.93c-3,1.23-7.14,3.83-7.29,8.78-.22,7.67-8.12,25.49-27.29,44.21,0,0-36.22,34.67-81.1,22.4a1.22,1.22,0,0,0-1.44.7l-2,4.64a1.24,1.24,0,0,0,.93,1.72c2.31.38,6.71,1.83,10.78,7.32,5.87,7.89,29.1,10.37,29.1,10.37s47.15,5,79.19-30.68,14.88-66.32,10.15-72.18c-1.75-2.17-2.41-4.67,2.28-12.56a1.23,1.23,0,0,0-.79-1.83,43.39,43.39,0,0,0-9.55-1.24A1.23,1.23,0,0,0,359.8,507.84Z"/><path class="cls-4" d="M285.59,625c-3.77,0-6-.23-6.06-.23-1-.1-23.45-2.59-29.34-10.51-4-5.41-8.34-6.83-10.56-7.19a1.57,1.57,0,0,1-1.13-.8,1.59,1.59,0,0,1-.06-1.38l2-4.65a1.57,1.57,0,0,1,1.84-.89c23.07,6.31,43.8-.08,57.12-6.56a102.13,102.13,0,0,0,23.65-15.75c19.57-19.1,27-36.77,27.2-44,.15-5.26,4.76-8,7.49-9.08a7,7,0,0,0,4.36-5.66A17.17,17.17,0,0,0,359.51,508a1.58,1.58,0,0,1,1.31-2.38,44.26,44.26,0,0,1,9.65,1.25,1.54,1.54,0,0,1,1.09.91,1.52,1.52,0,0,1-.09,1.42c-4.76,8-3.86,10.25-2.31,12.17,2.87,3.56,7.95,12.85,8.79,25.12a54.45,54.45,0,0,1-3.12,21.9c-3.09,8.74-8.42,17.36-15.83,25.61a89.17,89.17,0,0,1-26,19.9,101,101,0,0,1-25.8,8.91A109.56,109.56,0,0,1,285.59,625Zm-43.67-25a.89.89,0,0,0-.82.54l-2,4.65a.89.89,0,0,0,.68,1.24c2.32.38,6.84,1.86,11,7.45,5.71,7.69,28.63,10.22,28.86,10.25a101.19,101.19,0,0,0,27.5-2c14.35-2.92,34.91-10.26,51.39-28.59,13.56-15.09,19.88-30.9,18.78-47-.82-12.11-5.81-21.25-8.64-24.74-2-2.52-2.27-5.33,2.26-12.94a.9.9,0,0,0-.57-1.33,43.63,43.63,0,0,0-9.47-1.23.9.9,0,0,0-.77.47.87.87,0,0,0,0,.88c1.24,2.06,3.24,6.2,2.72,10.77a7.72,7.72,0,0,1-4.77,6.21c-3.15,1.3-6.94,3.83-7.08,8.47-.21,7.32-7.69,25.2-27.4,44.45a103.14,103.14,0,0,1-23.8,15.86,92,92,0,0,1-25.87,8.3,75.34,75.34,0,0,1-31.74-1.68A.66.66,0,0,0,241.92,600Z"/><path class="cls-4" d="M305,614.75c2.45-.63,4.86-1.46,7.24-2.32a128.78,128.78,0,0,0,17.23-7.67,103,103,0,0,0,20.16-14,70.26,70.26,0,0,0,16.45-21.29,61.74,61.74,0,0,0,6-29.67c-.05-1.41-.16-2.83-.3-4.24-.09-.86-1.44-.87-1.35,0a62.17,62.17,0,0,1-4.27,30.4,66.78,66.78,0,0,1-15.49,22,98.19,98.19,0,0,1-19.81,14.48,126.44,126.44,0,0,1-17.55,8.16q-2.88,1.08-5.81,2c-.91.28-1.88.48-2.78.81l-.12,0a.68.68,0,0,0,.36,1.31Z"/><ellipse class="cls-4" cx="241.12" cy="603.32" rx="3.82" ry="1.76" transform="translate(-407.96 574.6) rotate(-65.68)"/><ellipse class="cls-4" cx="365.57" cy="507.5" rx="1.25" ry="5.88" transform="translate(-180.43 812.59) rotate(-83.43)"/><g id="Manzana"><ellipse class="cls-5" cx="113.12" cy="222.56" rx="41.69" ry="49.19"/><ellipse class="cls-5" cx="138.9" cy="222.56" rx="41.69" ry="49.19"/><path class="cls-6" d="M125.84,180.18s-3.57-14.9,5.29-22.3c0,.22,0,3.31,0,3.31s-6,2.87-2.6,19C128.49,180.18,128,182.16,125.84,180.18Z"/><path class="cls-7" d="M113.65,156.78h0a12.8,12.8,0,0,1,12.8,12.8v0a0,0,0,0,1,0,0h0a12.8,12.8,0,0,1-12.8-12.8v0A0,0,0,0,1,113.65,156.78Z"/><path class="cls-8" d="M113.21,173.42s-49.23,38.64,0,98.24c0,0-38.85.88-41.72-49A51.4,51.4,0,0,1,77.54,197c4.45-8.52,10.94-16.54,21.54-20.74S113.21,173.42,113.21,173.42Z"/></g><g id="Manzana-2" data-name="Manzana"><ellipse class="cls-5" cx="283.95" cy="222.56" rx="41.69" ry="49.19"/><ellipse class="cls-5" cx="309.73" cy="222.56" rx="41.69" ry="49.19"/><path class="cls-6" d="M296.67,180.18s-3.58-14.9,5.29-22.3c0,.22,0,3.31,0,3.31s-6,2.87-2.61,19C299.31,180.18,298.79,182.16,296.67,180.18Z"/><path class="cls-7" d="M284.48,156.78h0a12.8,12.8,0,0,1,12.8,12.8v0a0,0,0,0,1,0,0h0a12.8,12.8,0,0,1-12.8-12.8v0A0,0,0,0,1,284.48,156.78Z"/><path class="cls-8" d="M284,173.42s-49.23,38.64,0,98.24c0,0-38.86.88-41.73-49A51.48,51.48,0,0,1,248.37,197c4.45-8.52,10.94-16.54,21.54-20.74S284,173.42,284,173.42Z"/></g><g id="Naranja"><circle class="cls-9" cx="126.13" cy="344.81" r="53.01"/><path class="cls-10" d="M159.79,372.12a41.36,41.36,0,0,0,5.75-10.07,47.32,47.32,0,0,0,3.38-25,50,50,0,0,0-6.55-18.12,1,1,0,0,0-1.7,1A46,46,0,0,1,167,349.36a47.79,47.79,0,0,1-6.58,18.34c-.48.79-1,1.57-1.53,2.33l-.48.65,0,.05c-.79,1,.59,2.38,1.39,1.39Z"/><circle class="cls-11" cx="97.87" cy="318.75" r="4.16"/><circle class="cls-11" cx="90.43" cy="330.36" r="3.29"/><circle class="cls-11" cx="99.95" cy="329.15" r="2.08"/><path class="cls-7" d="M107.51,278.22h1.26a13,13,0,0,1,13,13v1.26a0,0,0,0,1,0,0h-1.26a13,13,0,0,1-13-13v-1.26A0,0,0,0,1,107.51,278.22Z"/><path class="cls-7" d="M134.72,278.22H136a0,0,0,0,1,0,0v1.26a13,13,0,0,1-13,13h-1.26a0,0,0,0,1,0,0V291.2A13,13,0,0,1,134.72,278.22Z" transform="translate(257.74 570.69) rotate(180)"/></g><g id="Naranja-2" data-name="Naranja"><circle class="cls-9" cx="290.88" cy="344.81" r="53.01"/><path class="cls-10" d="M324.54,372.12a41.36,41.36,0,0,0,5.75-10.07,47.32,47.32,0,0,0,3.38-25,50,50,0,0,0-6.55-18.12,1,1,0,0,0-1.7,1,46,46,0,0,1,6.36,29.45,47.79,47.79,0,0,1-6.58,18.34c-.48.79-1,1.57-1.53,2.33-.16.22-.32.44-.49.65.06-.07.11-.12,0,.05-.8,1,.59,2.38,1.39,1.39Z"/><circle class="cls-11" cx="262.62" cy="318.75" r="4.16"/><circle class="cls-11" cx="255.17" cy="330.36" r="3.29"/><circle class="cls-11" cx="264.7" cy="329.15" r="2.08"/><path class="cls-7" d="M272.26,278.22h1.26a13,13,0,0,1,13,13v1.26a0,0,0,0,1,0,0h-1.26a13,13,0,0,1-13-13v-1.26A0,0,0,0,1,272.26,278.22Z"/><path class="cls-7" d="M299.47,278.22h1.26a0,0,0,0,1,0,0v1.26a13,13,0,0,1-13,13H286.5a0,0,0,0,1,0,0V291.2A13,13,0,0,1,299.47,278.22Z" transform="translate(587.23 570.69) rotate(180)"/></g><g id="Pera"><circle class="cls-12" cx="121.56" cy="490" r="34.68"/><circle class="cls-12" cx="121.56" cy="454.21" r="23.49"/><path class="cls-13" d="M120.47,437.43l4.86-34,6-.6S127.18,406.39,122,438Z"/><path class="cls-14" d="M148.83,405.82s-13.27-7.2-21.77,5C127.06,410.82,135.34,426.89,148.83,405.82Z"/><path class="cls-15" d="M120.29,430.74a29.7,29.7,0,0,0-11.78,4.2c-16,11.44-8.88,27.36-8.73,28.08h0c-18.49,16.92-16.25,41.52,1.65,55,.95.71,11.36,6.71,17.9,6.71h0l-.24-.37a84.7,84.7,0,0,1,.76-92.93C120.13,431,120.29,430.74,120.29,430.74Z"/></g><g id="Pera-2" data-name="Pera"><circle class="cls-12" cx="290.88" cy="490.86" r="34.68"/><circle class="cls-12" cx="290.88" cy="455.06" r="23.49"/><path class="cls-13" d="M289.78,438.28l4.86-34,6-.61s-4.14,3.56-9.28,35.13Z"/><path class="cls-14" d="M318.15,406.67s-13.27-7.2-21.77,5C296.38,411.68,304.65,427.74,318.15,406.67Z"/><path class="cls-15" d="M289.6,431.59a29.6,29.6,0,0,0-11.77,4.2c-16,11.44-8.89,27.36-8.73,28.08h0c-18.49,16.92-16.25,41.53,1.64,55,1,.71,11.36,6.71,17.9,6.71h0l-.23-.37a84.66,84.66,0,0,1,.76-92.93Z"/></g><g id="Manzana-3" data-name="Manzana"><ellipse class="cls-5" cx="113.12" cy="698.79" rx="41.69" ry="49.19"/><ellipse class="cls-5" cx="138.9" cy="698.79" rx="41.69" ry="49.19"/><path class="cls-6" d="M125.84,656.41s-3.57-14.9,5.29-22.3c0,.22,0,3.31,0,3.31s-6,2.87-2.6,19C128.49,656.41,128,658.39,125.84,656.41Z"/><path class="cls-7" d="M113.65,633h0a12.8,12.8,0,0,1,12.8,12.8v0a0,0,0,0,1,0,0h0a12.8,12.8,0,0,1-12.8-12.8v0A0,0,0,0,1,113.65,633Z"/><path class="cls-8" d="M113.21,649.65s-49.23,38.63,0,98.24c0,0-38.85.88-41.72-49a51.4,51.4,0,0,1,6.05-25.62c4.45-8.52,10.94-16.54,21.54-20.74S113.21,649.65,113.21,649.65Z"/></g><g id="Manzana-4" data-name="Manzana"><ellipse class="cls-5" cx="283.95" cy="698.79" rx="41.69" ry="49.19"/><ellipse class="cls-5" cx="309.73" cy="698.79" rx="41.69" ry="49.19"/><path class="cls-6" d="M296.67,656.41s-3.58-14.9,5.29-22.3c0,.22,0,3.31,0,3.31s-6,2.87-2.61,19C299.31,656.41,298.79,658.39,296.67,656.41Z"/><path class="cls-7" d="M284.48,633h0a12.8,12.8,0,0,1,12.8,12.8v0a0,0,0,0,1,0,0h0a12.8,12.8,0,0,1-12.8-12.8v0A0,0,0,0,1,284.48,633Z"/><path class="cls-8" d="M284,649.65s-49.23,38.63,0,98.24c0,0-38.86.88-41.73-49a51.48,51.48,0,0,1,6.06-25.62c4.45-8.52,10.94-16.54,21.54-20.74S284,649.65,284,649.65Z"/></g><path class="cls-3" d="M796.07,127a13.16,13.16,0,0,1-.71,8.12,5.48,5.48,0,0,1-4.68,3.08c-2.38.14-6,.95-7.3,4.42-2,5.37-12,16-30.15,24.57,0,0-34.12,15.63-62.84-4.06a.92.92,0,0,0-1.2.14l-2.58,2.78a.92.92,0,0,0,.24,1.44c1.54.84,4.29,2.95,5.83,7.82,2.21,7,18,14.48,18,14.48s32.12,15.08,63.52-2.27S801,144.29,799.12,139c-.7-2-.56-3.89,4.69-8.32a.92.92,0,0,0-.1-1.49,32.68,32.68,0,0,0-6.46-3.22A.92.92,0,0,0,796.07,127Z"/><path class="cls-4" d="M741.14,196.13a79.43,79.43,0,0,1-10.48-.71A76.09,76.09,0,0,1,710.6,190c-.65-.31-15.94-7.58-18.16-14.63-1.51-4.81-4.23-6.87-5.71-7.67a1.2,1.2,0,0,1-.6-.85,1.17,1.17,0,0,1,.3-1L689,163.1a1.17,1.17,0,0,1,1.52-.17c14.77,10.12,31,10.68,42,9.37A76.27,76.27,0,0,0,753.12,167c18.52-8.71,28.1-19.38,30-24.43,1.4-3.68,5.32-4.45,7.53-4.58a5.27,5.27,0,0,0,4.47-2.94,12.91,12.91,0,0,0,.68-8h0a1.16,1.16,0,0,1,.36-1.11,1.17,1.17,0,0,1,1.15-.25,32.9,32.9,0,0,1,6.51,3.25,1.17,1.17,0,0,1,.55.91,1.14,1.14,0,0,1-.41,1c-5.33,4.5-5.25,6.3-4.62,8,1.16,3.22,2.47,11,0,19.92a40.62,40.62,0,0,1-7.58,14.72,57.85,57.85,0,0,1-17.48,14.23,66.83,66.83,0,0,1-23.26,7.7A72.61,72.61,0,0,1,741.14,196.13Zm-51.27-32.9a.68.68,0,0,0-.49.22l-2.58,2.79a.67.67,0,0,0,.17,1c1.55.84,4.38,3,5.95,8,2.15,6.83,17.74,14.25,17.9,14.32a75,75,0,0,0,19.93,5.35c10.86,1.46,27.21,1.31,43.36-7.61,13.28-7.34,21.63-17,24.81-28.63,2.39-8.76,1.1-16.45,0-19.62-.82-2.27-.3-4.32,4.77-8.59a.68.68,0,0,0,.24-.56.65.65,0,0,0-.32-.52,32.79,32.79,0,0,0-6.39-3.2.68.68,0,0,0-.87.77h0a13.35,13.35,0,0,1-.72,8.28,5.77,5.77,0,0,1-4.89,3.23c-2.55.14-5.85,1-7.09,4.25-2,5.13-11.62,15.94-30.28,24.71a76.89,76.89,0,0,1-20.72,5.37,68.78,68.78,0,0,1-20.33-.47,56.41,56.41,0,0,1-22-9A.63.63,0,0,0,689.87,163.23Z"/><path class="cls-4" d="M731.12,189.17c1.89.16,3.8.16,5.69.14a97.52,97.52,0,0,0,14.08-1.21,77.1,77.1,0,0,0,17.7-4.95,52.7,52.7,0,0,0,16.83-11,46.23,46.23,0,0,0,11.5-19.41c.32-1,.6-2.1.85-3.15a.51.51,0,0,0-1-.27,46.15,46.15,0,0,1-10.49,20.44A50.06,50.06,0,0,1,770,181.45a73,73,0,0,1-17.57,5.37A94.08,94.08,0,0,1,738,188.27c-1.53,0-3.06,0-4.6,0-.7,0-1.45-.14-2.15-.11h-.1c-.65-.06-.64,1,0,1Z"/><ellipse class="cls-4" cx="688.71" cy="165.41" rx="2.86" ry="1.32" transform="translate(94.97 551.62) rotate(-46.55)"/><ellipse class="cls-4" cx="800.22" cy="128.19" rx="0.93" ry="4.4" transform="translate(337.63 793.62) rotate(-64.29)"/><path class="cls-3" d="M796.68,127.11a13.1,13.1,0,0,1,.36,8.15,5.54,5.54,0,0,1-4.24,3.66c-2.35.44-5.82,1.72-6.68,5.32-1.32,5.59-9.81,17.46-26.71,28.27,0,0-31.8,19.92-62.83,4.12a.92.92,0,0,0-1.17.3L693.22,180a.93.93,0,0,0,.42,1.4c1.63.63,4.64,2.36,6.79,7,3.1,6.68,19.76,12,19.76,12S754,211.22,782.88,190s21-46.35,18.38-51.37c-1-1.85-1.06-3.79,3.58-8.85a.93.93,0,0,0-.3-1.47,33.12,33.12,0,0,0-6.82-2.35A.92.92,0,0,0,796.68,127.11Z"/><path class="cls-4" d="M741,203.43h-.26a75.69,75.69,0,0,1-20.59-2.74c-.68-.22-16.8-5.45-19.91-12.15-2.12-4.57-5.08-6.27-6.65-6.87a1.17,1.17,0,0,1-.54-1.78l2.19-3.1a1.19,1.19,0,0,1,1.49-.37c16,8.12,32.12,6.57,42.86,3.85a76.72,76.72,0,0,0,19.73-8c17.23-11,25.35-22.86,26.6-28.11.91-3.84,4.69-5.11,6.87-5.52a5.28,5.28,0,0,0,4-3.49,12.87,12.87,0,0,0-.36-8h0a1.17,1.17,0,0,1,.21-1.14,1.15,1.15,0,0,1,1.11-.4,33.05,33.05,0,0,1,6.88,2.37,1.19,1.19,0,0,1,.67.84,1.2,1.2,0,0,1-.28,1c-4.71,5.14-4.39,6.92-3.54,8.57,1.56,3,3.88,10.62,2.63,19.74a40.56,40.56,0,0,1-5.61,15.58A57.87,57.87,0,0,1,783,190.16,66.9,66.9,0,0,1,761,200.81,75.59,75.59,0,0,1,741,203.43Zm-44.79-26.64a.67.67,0,0,0-.55.28l-2.2,3.1a.66.66,0,0,0-.09.58.64.64,0,0,0,.4.43c1.65.64,4.73,2.4,6.93,7.13,3,6.5,19.44,11.83,19.61,11.89a76,76,0,0,0,20.45,2.72c11,0,27.15-2.23,42-13.17,12.22-9,19.25-19.64,20.89-31.61,1.23-9-1-16.45-2.58-19.44-1.11-2.16-.86-4.25,3.61-9.15a.62.62,0,0,0,.16-.58.63.63,0,0,0-.38-.47,32,32,0,0,0-6.75-2.34.66.66,0,0,0-.64.23.65.65,0,0,0-.12.64h0a13.38,13.38,0,0,1,.36,8.31,5.77,5.77,0,0,1-4.44,3.83c-2.51.47-5.67,1.75-6.47,5.13-1.27,5.34-9.46,17.31-26.82,28.43a77.24,77.24,0,0,1-19.86,8,68.9,68.9,0,0,1-20.21,2.17,56.48,56.48,0,0,1-23-6A.59.59,0,0,0,696.17,176.79Z"/><path class="cls-4" d="M740.28,197.17c1.92-.09,3.84-.34,5.74-.61a96.45,96.45,0,0,0,13.74-3,77.73,77.73,0,0,0,17-7.21A52.88,52.88,0,0,0,792,173.19a46.14,46.14,0,0,0,8.9-20.88c.16-1,.3-2.09.41-3.13.07-.65-.94-.65-1,0a46.35,46.35,0,0,1-7.77,21.59,50.07,50.07,0,0,1-14.71,13.73,73.68,73.68,0,0,1-16.69,7.58,94.12,94.12,0,0,1-14.06,3.3c-2.22.35-4.47.47-6.69.77h-.09c-.65,0-.65,1,0,1Z"/><ellipse class="cls-4" cx="695.21" cy="179.1" rx="2.86" ry="1.32" transform="translate(141.65 636.24) rotate(-54)"/><ellipse class="cls-4" cx="800.96" cy="127.74" rx="0.93" ry="4.4" transform="translate(428.74 848.36) rotate(-71.74)"/><path class="cls-3" d="M798.43,127.44a13,13,0,0,1,2,7.9,5.51,5.51,0,0,1-3.41,4.44c-2.21.92-5.35,2.86-5.46,6.57-.17,5.74-6.07,19.08-20.43,33.09,0,0-27.11,25.95-60.69,16.77a.92.92,0,0,0-1.09.52l-1.52,3.48a.92.92,0,0,0,.7,1.28c1.72.28,5,1.37,8.07,5.48,4.39,5.91,21.78,7.76,21.78,7.76s35.29,3.72,59.26-23,11.15-49.64,7.6-54c-1.31-1.62-1.8-3.5,1.71-9.4a.92.92,0,0,0-.59-1.37,33.43,33.43,0,0,0-7.15-.93A.93.93,0,0,0,798.43,127.44Z"/><path class="cls-4" d="M742.89,215.16c-2.83,0-4.5-.17-4.54-.17-.71-.08-17.55-1.94-22-7.87-3-4.05-6.24-5.11-7.9-5.38a1.17,1.17,0,0,1-.89-1.63l1.52-3.48a1.18,1.18,0,0,1,1.38-.67c17.27,4.72,32.78-.06,42.75-4.91A76.59,76.59,0,0,0,771,179.26c14.64-14.3,20.19-27.52,20.35-32.92.12-3.94,3.57-6,5.61-6.79a5.27,5.27,0,0,0,3.26-4.24,12.91,12.91,0,0,0-2-7.74,1.15,1.15,0,0,1,0-1.16,1.19,1.19,0,0,1,1-.62,32.35,32.35,0,0,1,7.22.94,1.15,1.15,0,0,1,.82.68,1.17,1.17,0,0,1-.07,1.06c-3.57,6-2.89,7.67-1.73,9.11,2.15,2.66,5.95,9.61,6.58,18.8a40.7,40.7,0,0,1-2.34,16.4,57.78,57.78,0,0,1-11.85,19.16,66.75,66.75,0,0,1-19.45,14.9,75.87,75.87,0,0,1-19.31,6.66A82.29,82.29,0,0,1,742.89,215.16ZM710.2,196.43a.68.68,0,0,0-.62.4l-1.52,3.48a.68.68,0,0,0,0,.59.66.66,0,0,0,.48.34c1.74.28,5.12,1.39,8.23,5.58,4.27,5.75,21.43,7.64,21.6,7.66A75.18,75.18,0,0,0,759,213c10.75-2.18,26.14-7.67,38.47-21.4,10.15-11.29,14.88-23.13,14.06-35.19-.62-9-4.35-15.9-6.47-18.51-1.52-1.89-1.7-4,1.69-9.69a.64.64,0,0,0,0-.6.65.65,0,0,0-.47-.39,31.93,31.93,0,0,0-7.08-.92.67.67,0,0,0-.57,1,13.34,13.34,0,0,1,2,8.06,5.79,5.79,0,0,1-3.56,4.65c-2.37,1-5.2,2.87-5.3,6.34-.16,5.48-5.76,18.86-20.51,33.27a77.53,77.53,0,0,1-17.82,11.87,68.73,68.73,0,0,1-19.36,6.21,56.21,56.21,0,0,1-23.76-1.26Z"/><path class="cls-4" d="M757.42,207.46c1.84-.47,3.64-1.1,5.42-1.74a96.52,96.52,0,0,0,12.9-5.74,77.38,77.38,0,0,0,15.09-10.45,52.85,52.85,0,0,0,12.31-15.94,46.28,46.28,0,0,0,4.52-22.21c0-1.06-.12-2.12-.22-3.17-.07-.64-1.08-.65-1,0A46.42,46.42,0,0,1,803.23,171a50.07,50.07,0,0,1-11.59,16.44,73.43,73.43,0,0,1-14.84,10.83,92.57,92.57,0,0,1-13.13,6.11q-2.16.81-4.35,1.5c-.68.22-1.41.36-2.08.61,0,0-.06,0-.09,0a.51.51,0,0,0,.27,1Z"/><ellipse class="cls-4" cx="709.6" cy="198.9" rx="2.86" ry="1.32" transform="translate(236.14 763.64) rotate(-65.68)"/><ellipse class="cls-4" cx="802.75" cy="127.18" rx="0.93" ry="4.4" transform="translate(584.55 910.1) rotate(-83.43)"/><path class="cls-3" d="M796.07,483.88a13.16,13.16,0,0,1-.71,8.12,5.5,5.5,0,0,1-4.68,3.08c-2.38.14-6,.95-7.3,4.41-2,5.37-12,16-30.15,24.57,0,0-34.12,15.63-62.84-4.06a.92.92,0,0,0-1.2.14l-2.58,2.79a.92.92,0,0,0,.24,1.44c1.54.83,4.29,2.94,5.83,7.82,2.21,7,18,14.48,18,14.48s32.12,15.07,63.52-2.27,26.8-43.25,24.89-48.56c-.7-2-.56-3.89,4.69-8.32a.91.91,0,0,0-.1-1.48,32.14,32.14,0,0,0-6.46-3.22A.92.92,0,0,0,796.07,483.88Z"/><path class="cls-4" d="M741.14,553a79.4,79.4,0,0,1-10.48-.7,75.86,75.86,0,0,1-20.06-5.4c-.65-.3-15.94-7.58-18.16-14.63-1.51-4.8-4.23-6.87-5.71-7.67a1.18,1.18,0,0,1-.6-.84,1.15,1.15,0,0,1,.3-1L689,520a1.18,1.18,0,0,1,1.52-.18c14.77,10.13,31,10.69,42,9.37a76.27,76.27,0,0,0,20.57-5.33c18.52-8.71,28.1-19.38,30-24.43,1.4-3.68,5.32-4.45,7.53-4.58a5.26,5.26,0,0,0,4.47-2.93,13,13,0,0,0,.68-8h0a1.14,1.14,0,0,1,.36-1.1,1.18,1.18,0,0,1,1.15-.26,32.9,32.9,0,0,1,6.51,3.25,1.19,1.19,0,0,1,.55.92,1.15,1.15,0,0,1-.41,1c-5.33,4.49-5.25,6.3-4.62,8,1.16,3.21,2.47,11,0,19.91a40.74,40.74,0,0,1-7.58,14.73,58,58,0,0,1-17.48,14.22,66.83,66.83,0,0,1-23.26,7.7A72.61,72.61,0,0,1,741.14,553ZM689.87,520.1a.67.67,0,0,0-.49.21l-2.58,2.79a.68.68,0,0,0-.17.56.65.65,0,0,0,.34.48c1.55.84,4.38,3,5.95,8,2.15,6.84,17.74,14.25,17.9,14.33a75.94,75.94,0,0,0,19.93,5.35c10.86,1.45,27.21,1.31,43.36-7.61,13.28-7.34,21.63-17,24.81-28.64,2.39-8.76,1.1-16.45,0-19.61-.82-2.28-.3-4.33,4.77-8.6a.67.67,0,0,0,.24-.56.68.68,0,0,0-.32-.52,32.79,32.79,0,0,0-6.39-3.19.66.66,0,0,0-.66.14.67.67,0,0,0-.21.63h0a13.36,13.36,0,0,1-.72,8.28,5.76,5.76,0,0,1-4.89,3.22c-2.55.15-5.85,1-7.09,4.25-2,5.13-11.62,15.94-30.28,24.71a77.1,77.1,0,0,1-20.72,5.38,68.77,68.77,0,0,1-20.33-.48,56.41,56.41,0,0,1-22-9A.62.62,0,0,0,689.87,520.1Z"/><path class="cls-4" d="M731.12,546c1.89.16,3.8.16,5.69.14A96.13,96.13,0,0,0,750.89,545a77.08,77.08,0,0,0,17.7-4.94,53,53,0,0,0,16.83-11,46.32,46.32,0,0,0,11.5-19.42c.32-1,.6-2.09.85-3.15.15-.63-.82-.9-1-.27A46.24,46.24,0,0,1,786.3,526.6,50.35,50.35,0,0,1,770,538.32a73.45,73.45,0,0,1-17.57,5.36A94.09,94.09,0,0,1,738,545.14c-1.53,0-3.06,0-4.6,0-.7,0-1.45-.14-2.15-.1h-.1c-.65,0-.64,1,0,1Z"/><ellipse class="cls-4" cx="688.71" cy="522.27" rx="2.86" ry="1.32" transform="translate(-164.09 663.05) rotate(-46.55)"/><ellipse class="cls-4" cx="800.22" cy="485.05" rx="0.93" ry="4.4" transform="translate(16.08 995.69) rotate(-64.29)"/><path class="cls-3" d="M796.68,484a13.06,13.06,0,0,1,.36,8.14,5.52,5.52,0,0,1-4.24,3.66c-2.35.45-5.82,1.72-6.68,5.33-1.32,5.59-9.81,17.45-26.71,28.27,0,0-31.8,19.92-62.83,4.12a.92.92,0,0,0-1.17.29l-2.19,3.1a.92.92,0,0,0,.42,1.39c1.63.63,4.64,2.37,6.79,7,3.1,6.68,19.76,12,19.76,12s33.8,10.79,62.69-10.48,21-46.36,18.38-51.37c-1-1.85-1.06-3.79,3.58-8.86a.92.92,0,0,0-.3-1.46,32.53,32.53,0,0,0-6.82-2.36A.92.92,0,0,0,796.68,484Z"/><path class="cls-4" d="M741,560.29h-.26a75.91,75.91,0,0,1-20.59-2.75c-.68-.22-16.8-5.45-19.91-12.15-2.12-4.57-5.08-6.26-6.65-6.87a1.17,1.17,0,0,1-.54-1.78l2.19-3.1a1.19,1.19,0,0,1,1.49-.37c16,8.12,32.12,6.58,42.86,3.85a76.72,76.72,0,0,0,19.73-8c17.23-11,25.35-22.86,26.6-28.11.91-3.84,4.69-5.1,6.87-5.52a5.26,5.26,0,0,0,4-3.49,12.87,12.87,0,0,0-.36-8h0a1.18,1.18,0,0,1,.21-1.14,1.2,1.2,0,0,1,1.11-.4,33,33,0,0,1,6.88,2.38,1.17,1.17,0,0,1,.67.83,1.2,1.2,0,0,1-.28,1c-4.71,5.14-4.39,6.92-3.54,8.57,1.56,3,3.88,10.62,2.63,19.74a40.56,40.56,0,0,1-5.61,15.58A57.87,57.87,0,0,1,783,547,66.71,66.71,0,0,1,761,557.67,75.59,75.59,0,0,1,741,560.29Zm-44.79-26.64a.65.65,0,0,0-.55.29l-2.2,3.09a.68.68,0,0,0,.31,1c1.65.63,4.73,2.4,6.93,7.13,3,6.5,19.44,11.83,19.61,11.88a75,75,0,0,0,20.45,2.72c11,0,27.15-2.22,42-13.17C795,537.61,802,527,803.62,515c1.23-9-1-16.45-2.58-19.44-1.11-2.15-.86-4.25,3.61-9.14a.64.64,0,0,0,.16-.59.65.65,0,0,0-.38-.47,32.6,32.6,0,0,0-6.75-2.34.68.68,0,0,0-.64.23.66.66,0,0,0-.12.65h0a13.34,13.34,0,0,1,.36,8.3,5.77,5.77,0,0,1-4.44,3.83c-2.51.48-5.67,1.76-6.47,5.14-1.27,5.33-9.46,17.3-26.82,28.42a77,77,0,0,1-19.86,8,68.55,68.55,0,0,1-20.21,2.16,56.33,56.33,0,0,1-23-6A.73.73,0,0,0,696.17,533.65Z"/><path class="cls-4" d="M740.28,554c1.92-.09,3.84-.34,5.74-.61a95.1,95.1,0,0,0,13.74-3,77.25,77.25,0,0,0,17-7.21A52.7,52.7,0,0,0,792,530.06a46.22,46.22,0,0,0,8.9-20.89c.16-1,.3-2.08.41-3.13.07-.65-.94-.64-1,0a46.27,46.27,0,0,1-7.77,21.59,49.94,49.94,0,0,1-14.71,13.73,73.68,73.68,0,0,1-16.69,7.58,95.4,95.4,0,0,1-14.06,3.31c-2.22.35-4.47.46-6.69.76h-.09c-.65,0-.65,1,0,1Z"/><ellipse class="cls-4" cx="695.21" cy="535.97" rx="2.86" ry="1.32" transform="translate(-147.04 783.32) rotate(-54)"/><ellipse class="cls-4" cx="800.96" cy="484.6" rx="0.93" ry="4.4" transform="translate(89.83 1093.43) rotate(-71.74)"/><path class="cls-3" d="M798.43,484.3a13,13,0,0,1,2,7.9,5.51,5.51,0,0,1-3.41,4.45c-2.21.91-5.35,2.86-5.46,6.56-.17,5.75-6.07,19.08-20.43,33.1,0,0-27.11,26-60.69,16.76a.92.92,0,0,0-1.09.52l-1.52,3.48a.92.92,0,0,0,.7,1.28c1.72.29,5,1.38,8.07,5.48,4.39,5.91,21.78,7.77,21.78,7.77s35.29,3.71,59.26-23,11.15-49.64,7.6-54c-1.31-1.62-1.8-3.49,1.71-9.39a.92.92,0,0,0-.59-1.37,32.21,32.21,0,0,0-7.15-.93A.92.92,0,0,0,798.43,484.3Z"/><path class="cls-4" d="M742.89,572c-2.83,0-4.5-.17-4.54-.17-.71-.08-17.55-1.94-22-7.87-3-4-6.24-5.1-7.9-5.38a1.17,1.17,0,0,1-.89-1.63l1.52-3.48a1.17,1.17,0,0,1,1.38-.66c17.27,4.72,32.78-.07,42.75-4.92A77.13,77.13,0,0,0,771,536.13c14.64-14.3,20.19-27.52,20.35-32.92.12-3.94,3.57-5.95,5.61-6.8a5.26,5.26,0,0,0,3.26-4.24,12.91,12.91,0,0,0-2-7.74,1.15,1.15,0,0,1,0-1.16,1.21,1.21,0,0,1,1-.62,33.57,33.57,0,0,1,7.22.94,1.15,1.15,0,0,1,.82.68,1.19,1.19,0,0,1-.07,1.07c-3.57,6-2.89,7.66-1.73,9.1,2.15,2.66,5.95,9.62,6.58,18.8a40.67,40.67,0,0,1-2.34,16.4,57.78,57.78,0,0,1-11.85,19.16,66.58,66.58,0,0,1-19.45,14.9,75.88,75.88,0,0,1-19.31,6.67A82.14,82.14,0,0,1,742.89,572ZM710.2,553.29a.69.69,0,0,0-.62.4l-1.52,3.48a.68.68,0,0,0,0,.59.64.64,0,0,0,.48.34c1.74.29,5.12,1.39,8.23,5.58,4.27,5.75,21.43,7.65,21.6,7.67A75.66,75.66,0,0,0,759,569.87c10.75-2.19,26.14-7.68,38.47-21.4,10.15-11.29,14.88-23.13,14.06-35.19-.62-9.06-4.35-15.9-6.47-18.52-1.52-1.88-1.7-4,1.69-9.68a.66.66,0,0,0,0-.61.65.65,0,0,0-.47-.39,33.16,33.16,0,0,0-7.08-.92.67.67,0,0,0-.58.35.65.65,0,0,0,0,.66,13.34,13.34,0,0,1,2,8.06,5.79,5.79,0,0,1-3.56,4.65c-2.37,1-5.2,2.87-5.3,6.34-.16,5.48-5.76,18.87-20.51,33.27a76.78,76.78,0,0,1-17.82,11.87,69.08,69.08,0,0,1-19.36,6.22,56.38,56.38,0,0,1-23.76-1.27Z"/><path class="cls-4" d="M757.42,564.32c1.84-.47,3.64-1.09,5.42-1.73a96.57,96.57,0,0,0,12.9-5.75,76.94,76.94,0,0,0,15.09-10.45,52.72,52.72,0,0,0,12.31-15.94,46.21,46.21,0,0,0,4.52-22.2c0-1.06-.12-2.12-.22-3.18-.07-.64-1.08-.65-1,0a46.42,46.42,0,0,1-3.19,22.75,50.07,50.07,0,0,1-11.59,16.44A73.48,73.48,0,0,1,776.8,555.1a94.84,94.84,0,0,1-13.13,6.11c-1.44.53-2.89,1-4.35,1.5-.68.21-1.41.36-2.08.61l-.09,0a.51.51,0,0,0,.27,1Z"/><ellipse class="cls-4" cx="709.6" cy="555.76" rx="2.86" ry="1.32" transform="translate(-89.06 973.55) rotate(-65.68)"/><ellipse class="cls-4" cx="802.75" cy="484.05" rx="0.93" ry="4.4" transform="translate(230.03 1226.13) rotate(-83.43)"/><path class="cls-3" d="M940.93,127a13.07,13.07,0,0,1-.7,8.12,5.51,5.51,0,0,1-4.68,3.08c-2.39.14-6,.95-7.31,4.42-2,5.37-12,16-30.15,24.57,0,0-34.12,15.63-62.84-4.06a.91.91,0,0,0-1.19.14l-2.58,2.78a.92.92,0,0,0,.24,1.44c1.54.84,4.29,2.95,5.82,7.82,2.21,7,18,14.48,18,14.48s32.12,15.08,63.51-2.27S945.9,144.29,944,139c-.7-2-.55-3.89,4.7-8.32a.92.92,0,0,0-.11-1.49,32.86,32.86,0,0,0-6.45-3.22A.92.92,0,0,0,940.93,127Z"/><path class="cls-4" d="M886,196.13a79.2,79.2,0,0,1-10.48-.71A75.94,75.94,0,0,1,855.47,190c-.65-.31-16-7.58-18.17-14.63-1.51-4.81-4.22-6.87-5.7-7.67a1.19,1.19,0,0,1-.61-.85,1.17,1.17,0,0,1,.3-1l2.58-2.79a1.19,1.19,0,0,1,1.53-.17c14.77,10.12,31,10.68,42,9.37A76.27,76.27,0,0,0,898,167c18.52-8.71,28.1-19.38,30-24.43,1.4-3.68,5.32-4.45,7.53-4.58A5.25,5.25,0,0,0,940,135a12.84,12.84,0,0,0,.68-8h0a1.18,1.18,0,0,1,1.51-1.36A32.62,32.62,0,0,1,948.7,129a1.15,1.15,0,0,1,.56.91,1.18,1.18,0,0,1-.42,1c-5.33,4.5-5.24,6.3-4.62,8,1.16,3.22,2.47,11,0,19.92a40.44,40.44,0,0,1-7.57,14.72,58.09,58.09,0,0,1-17.48,14.23,66.9,66.9,0,0,1-23.26,7.7A72.72,72.72,0,0,1,886,196.13Zm-51.27-32.9a.68.68,0,0,0-.5.22l-2.58,2.79a.67.67,0,0,0-.17.56.69.69,0,0,0,.35.48c1.55.84,4.38,3,5.95,8,2.15,6.83,17.74,14.25,17.89,14.32a75.17,75.17,0,0,0,19.93,5.35c10.87,1.46,27.21,1.31,43.36-7.61,13.29-7.34,21.64-17,24.82-28.63,2.38-8.76,1.09-16.45,0-19.62-.82-2.27-.31-4.32,4.77-8.59a.67.67,0,0,0,.23-.56.64.64,0,0,0-.31-.52,32.61,32.61,0,0,0-6.4-3.2.67.67,0,0,0-.66.15.66.66,0,0,0-.2.62h0a13.43,13.43,0,0,1-.72,8.28,5.79,5.79,0,0,1-4.9,3.23c-2.55.14-5.85,1-7.08,4.25-2,5.13-11.62,15.94-30.28,24.71a77.18,77.18,0,0,1-20.73,5.37,68.79,68.79,0,0,1-20.33-.47,56.37,56.37,0,0,1-22-9A.63.63,0,0,0,834.74,163.23Z"/><path class="cls-4" d="M876,189.17c1.89.16,3.8.16,5.69.14a97.51,97.51,0,0,0,14.07-1.21,77.1,77.1,0,0,0,17.7-4.95,52.74,52.74,0,0,0,16.84-11,46.23,46.23,0,0,0,11.5-19.41c.31-1,.59-2.1.85-3.15.15-.64-.83-.91-1-.27a46.27,46.27,0,0,1-10.5,20.44,50,50,0,0,1-16.35,11.72,72.75,72.75,0,0,1-17.57,5.37,94,94,0,0,1-14.4,1.45c-1.54,0-3.07,0-4.6,0-.71,0-1.45-.14-2.16-.11H876c-.65-.06-.65,1,0,1Z"/><ellipse class="cls-4" cx="833.58" cy="165.41" rx="2.86" ry="1.32" transform="translate(140.21 656.78) rotate(-46.55)"/><ellipse class="cls-4" cx="945.09" cy="128.19" rx="0.93" ry="4.4" transform="translate(419.66 924.15) rotate(-64.29)"/><path class="cls-3" d="M941.55,127.11a13.11,13.11,0,0,1,.35,8.15,5.53,5.53,0,0,1-4.24,3.66c-2.35.44-5.81,1.72-6.67,5.32-1.33,5.59-9.82,17.46-26.71,28.27,0,0-31.81,19.92-62.84,4.12a.93.93,0,0,0-1.17.3L838.08,180a.93.93,0,0,0,.42,1.4c1.64.63,4.64,2.36,6.8,7,3.1,6.68,19.75,12,19.75,12s33.81,10.78,62.69-10.49,21-46.35,18.39-51.37c-1-1.85-1.06-3.79,3.57-8.85a.93.93,0,0,0-.3-1.47,33,33,0,0,0-6.81-2.35A.92.92,0,0,0,941.55,127.11Z"/><path class="cls-4" d="M885.82,203.43h-.26A75.48,75.48,0,0,1,865,200.68c-.69-.22-16.8-5.45-19.91-12.15-2.13-4.57-5.08-6.27-6.66-6.87a1.19,1.19,0,0,1-.54-1.78l2.2-3.1a1.18,1.18,0,0,1,1.49-.37c16,8.12,32.11,6.57,42.86,3.85a76.55,76.55,0,0,0,19.72-8c17.24-11,25.35-22.86,26.6-28.11.91-3.84,4.7-5.11,6.87-5.52a5.25,5.25,0,0,0,4-3.49,12.88,12.88,0,0,0-.35-8h0a1.17,1.17,0,0,1,1.32-1.54,33.26,33.26,0,0,1,6.88,2.37,1.18,1.18,0,0,1,.66.84,1.15,1.15,0,0,1-.28,1c-4.7,5.14-4.39,6.92-3.54,8.57,1.57,3,3.88,10.62,2.63,19.74a40.54,40.54,0,0,1-5.6,15.58,57.77,57.77,0,0,1-15.49,16.37,66.85,66.85,0,0,1-22.06,10.65A75.61,75.61,0,0,1,885.82,203.43ZM841,176.79a.68.68,0,0,0-.55.28l-2.19,3.1a.67.67,0,0,0-.1.58.66.66,0,0,0,.4.43c1.65.64,4.74,2.4,6.94,7.13,3,6.5,19.43,11.83,19.6,11.89a76.07,76.07,0,0,0,20.45,2.72c11,0,27.15-2.23,42-13.17,12.22-9,19.25-19.64,20.89-31.61,1.23-9-1-16.45-2.58-19.44-1.11-2.16-.86-4.25,3.62-9.15a.67.67,0,0,0,.16-.58.65.65,0,0,0-.38-.47,32.13,32.13,0,0,0-6.76-2.34.63.63,0,0,0-.63.23.63.63,0,0,0-.12.64h0a13.39,13.39,0,0,1,.35,8.31,5.77,5.77,0,0,1-4.43,3.83c-2.51.47-5.67,1.75-6.48,5.13-1.26,5.34-9.45,17.31-26.82,28.43a77.26,77.26,0,0,1-19.85,8,69,69,0,0,1-20.22,2.17,56.44,56.44,0,0,1-23-6A.66.66,0,0,0,841,176.79Z"/><path class="cls-4" d="M885.14,197.17c1.92-.09,3.84-.34,5.74-.61a96.29,96.29,0,0,0,13.75-3,77.94,77.94,0,0,0,17-7.21,53,53,0,0,0,15.28-13.16,46.12,46.12,0,0,0,8.89-20.88c.17-1,.3-2.09.42-3.13.06-.65-.95-.65-1,0a46.35,46.35,0,0,1-7.77,21.59,50,50,0,0,1-14.7,13.73,73.55,73.55,0,0,1-16.7,7.58,94.12,94.12,0,0,1-14.06,3.3c-2.22.35-4.46.47-6.68.77h-.1c-.64,0-.65,1,0,1Z"/><ellipse class="cls-4" cx="840.08" cy="179.1" rx="2.86" ry="1.32" transform="translate(201.36 753.43) rotate(-54)"/><ellipse class="cls-4" cx="945.82" cy="127.74" rx="0.93" ry="4.4" transform="translate(528.22 985.94) rotate(-71.74)"/><path class="cls-3" d="M943.3,127.44a13.12,13.12,0,0,1,2,7.9,5.52,5.52,0,0,1-3.42,4.44c-2.21.92-5.34,2.86-5.45,6.57-.17,5.74-6.08,19.08-20.43,33.09,0,0-27.11,25.95-60.7,16.77a.93.93,0,0,0-1.09.52l-1.52,3.48a.93.93,0,0,0,.7,1.28c1.73.28,5,1.37,8.07,5.48,4.39,5.91,21.78,7.76,21.78,7.76s35.29,3.72,59.27-23,11.14-49.64,7.6-54c-1.31-1.62-1.81-3.5,1.7-9.4a.92.92,0,0,0-.59-1.37,33.26,33.26,0,0,0-7.15-.93A.93.93,0,0,0,943.3,127.44Z"/><path class="cls-4" d="M887.75,215.16c-2.82,0-4.5-.17-4.54-.17-.71-.08-17.55-1.94-22-7.87-3-4.05-6.25-5.11-7.91-5.38a1.2,1.2,0,0,1-.85-.6,1.17,1.17,0,0,1,0-1l1.52-3.48a1.2,1.2,0,0,1,1.39-.67c17.26,4.72,32.78-.06,42.75-4.91a76.1,76.1,0,0,0,17.7-11.79c14.64-14.3,20.2-27.52,20.36-32.92.11-3.94,3.56-6,5.61-6.79a5.29,5.29,0,0,0,3.26-4.24,12.9,12.9,0,0,0-2-7.74,1.18,1.18,0,0,1,1-1.78,32.28,32.28,0,0,1,7.22.94,1.15,1.15,0,0,1,.82.68,1.14,1.14,0,0,1-.07,1.06c-3.56,6-2.89,7.67-1.73,9.11,2.15,2.66,6,9.61,6.58,18.8a40.69,40.69,0,0,1-2.33,16.4,58.11,58.11,0,0,1-11.85,19.16,66.89,66.89,0,0,1-19.45,14.9,75.81,75.81,0,0,1-19.32,6.66A82.15,82.15,0,0,1,887.75,215.16Zm-32.69-18.73a.66.66,0,0,0-.61.4l-1.53,3.48a.68.68,0,0,0,0,.59.7.7,0,0,0,.48.34c1.74.28,5.12,1.39,8.23,5.58,4.28,5.75,21.44,7.64,21.61,7.66A75.19,75.19,0,0,0,903.85,213c10.74-2.18,26.13-7.67,38.47-21.4,10.15-11.29,14.87-23.13,14-35.19-.61-9-4.35-15.9-6.46-18.51-1.52-1.89-1.71-4,1.69-9.69a.67.67,0,0,0,0-.6.68.68,0,0,0-.47-.39,32,32,0,0,0-7.09-.92.67.67,0,0,0-.58.35.65.65,0,0,0,0,.66,13.41,13.41,0,0,1,2,8.06A5.78,5.78,0,0,1,942,140c-2.36,1-5.2,2.87-5.3,6.34-.16,5.48-5.75,18.86-20.51,33.27a77.53,77.53,0,0,1-17.82,11.87A68.53,68.53,0,0,1,879,197.71a56.22,56.22,0,0,1-23.76-1.26Z"/><path class="cls-4" d="M902.29,207.46c1.83-.47,3.64-1.1,5.42-1.74A95.83,95.83,0,0,0,920.6,200a77.38,77.38,0,0,0,15.09-10.45A52.69,52.69,0,0,0,948,173.59a46.17,46.17,0,0,0,4.53-22.21c0-1.06-.12-2.12-.23-3.17-.06-.64-1.08-.65-1,0a46.43,46.43,0,0,1-3.2,22.75A49.92,49.92,0,0,1,936.5,187.4a73.37,73.37,0,0,1-14.83,10.83,92.17,92.17,0,0,1-13.14,6.11q-2.14.81-4.35,1.5c-.68.22-1.4.36-2.07.61a.32.32,0,0,1-.09,0,.51.51,0,0,0,.27,1Z"/><ellipse class="cls-4" cx="854.46" cy="198.9" rx="2.86" ry="1.32" transform="translate(321.35 895.65) rotate(-65.68)"/><ellipse class="cls-4" cx="947.61" cy="127.18" rx="0.93" ry="4.4" transform="translate(712.84 1054.02) rotate(-83.43)"/><path class="cls-3" d="M940.93,483.88a13.08,13.08,0,0,1-.7,8.12,5.53,5.53,0,0,1-4.68,3.08c-2.39.14-6,.95-7.31,4.41-2,5.37-12,16-30.15,24.57,0,0-34.12,15.63-62.84-4.06a.91.91,0,0,0-1.19.14l-2.58,2.79a.92.92,0,0,0,.24,1.44c1.54.83,4.29,2.94,5.82,7.82,2.21,7,18,14.48,18,14.48s32.12,15.07,63.51-2.27S945.9,501.15,944,495.84c-.7-2-.55-3.89,4.7-8.32a.91.91,0,0,0-.11-1.48,32.32,32.32,0,0,0-6.45-3.22A.92.92,0,0,0,940.93,483.88Z"/><path class="cls-4" d="M886,553a79.17,79.17,0,0,1-10.48-.7,75.7,75.7,0,0,1-20.06-5.4c-.65-.3-16-7.58-18.17-14.63-1.51-4.8-4.22-6.87-5.7-7.67a1.17,1.17,0,0,1-.61-.84,1.15,1.15,0,0,1,.3-1l2.58-2.79a1.19,1.19,0,0,1,1.53-.18c14.77,10.13,31,10.69,42,9.37A76.27,76.27,0,0,0,898,523.83c18.52-8.71,28.1-19.38,30-24.43,1.4-3.68,5.32-4.45,7.53-4.58a5.24,5.24,0,0,0,4.47-2.93,12.87,12.87,0,0,0,.68-8h0a1.16,1.16,0,0,1,.36-1.1,1.18,1.18,0,0,1,1.15-.26,32.62,32.62,0,0,1,6.51,3.25,1.17,1.17,0,0,1,.56.92,1.19,1.19,0,0,1-.42,1c-5.33,4.49-5.24,6.3-4.62,8,1.16,3.21,2.47,11,0,19.91a40.56,40.56,0,0,1-7.57,14.73,58.22,58.22,0,0,1-17.48,14.22,66.9,66.9,0,0,1-23.26,7.7A72.72,72.72,0,0,1,886,553ZM834.74,520.1a.67.67,0,0,0-.5.21l-2.58,2.79a.68.68,0,0,0-.17.56.67.67,0,0,0,.35.48c1.55.84,4.38,3,5.95,8,2.15,6.84,17.74,14.25,17.89,14.33a76.09,76.09,0,0,0,19.93,5.35c10.87,1.45,27.21,1.31,43.36-7.61,13.29-7.34,21.64-17,24.82-28.64,2.38-8.76,1.09-16.45,0-19.61-.82-2.28-.31-4.33,4.77-8.6a.66.66,0,0,0,.23-.56.67.67,0,0,0-.31-.52,32.61,32.61,0,0,0-6.4-3.19.66.66,0,0,0-.86.77h0a13.43,13.43,0,0,1-.72,8.28,5.78,5.78,0,0,1-4.9,3.22c-2.55.15-5.85,1-7.08,4.25-2,5.13-11.62,15.94-30.28,24.71a77.39,77.39,0,0,1-20.73,5.38,68.78,68.78,0,0,1-20.33-.48,56.37,56.37,0,0,1-22-9A.62.62,0,0,0,834.74,520.1Z"/><path class="cls-4" d="M876,546c1.89.16,3.8.16,5.69.14A96.11,96.11,0,0,0,895.75,545a77.08,77.08,0,0,0,17.7-4.94,53.08,53.08,0,0,0,16.84-11,46.32,46.32,0,0,0,11.5-19.42c.31-1,.59-2.09.85-3.15.15-.63-.83-.9-1-.27a46.36,46.36,0,0,1-10.5,20.45,50.25,50.25,0,0,1-16.35,11.72,73.18,73.18,0,0,1-17.57,5.36,94,94,0,0,1-14.4,1.46c-1.54,0-3.07,0-4.6,0-.71,0-1.45-.14-2.16-.1H876c-.65,0-.65,1,0,1Z"/><ellipse class="cls-4" cx="833.58" cy="522.27" rx="2.86" ry="1.32" transform="translate(-118.86 768.21) rotate(-46.55)"/><ellipse class="cls-4" cx="945.09" cy="485.05" rx="0.93" ry="4.4" transform="translate(98.11 1126.22) rotate(-64.29)"/><path class="cls-3" d="M941.55,484a13.07,13.07,0,0,1,.35,8.14,5.51,5.51,0,0,1-4.24,3.66c-2.35.45-5.81,1.72-6.67,5.33-1.33,5.59-9.82,17.45-26.71,28.27,0,0-31.81,19.92-62.84,4.12a.93.93,0,0,0-1.17.29l-2.19,3.1a.92.92,0,0,0,.42,1.39c1.64.63,4.64,2.37,6.8,7,3.1,6.68,19.75,12,19.75,12s33.81,10.79,62.69-10.48,21-46.36,18.39-51.37c-1-1.85-1.06-3.79,3.57-8.86a.92.92,0,0,0-.3-1.46,32.43,32.43,0,0,0-6.81-2.36A.92.92,0,0,0,941.55,484Z"/><path class="cls-4" d="M885.82,560.29h-.26A75.7,75.7,0,0,1,865,557.54c-.69-.22-16.8-5.45-19.91-12.15-2.13-4.57-5.08-6.26-6.66-6.87a1.19,1.19,0,0,1-.54-1.78l2.2-3.1a1.18,1.18,0,0,1,1.49-.37c16,8.12,32.11,6.58,42.86,3.85a76.55,76.55,0,0,0,19.72-8c17.24-11,25.35-22.86,26.6-28.11.91-3.84,4.7-5.1,6.87-5.52a5.23,5.23,0,0,0,4-3.49,12.88,12.88,0,0,0-.35-8h0a1.15,1.15,0,0,1,.21-1.14,1.19,1.19,0,0,1,1.11-.4,33.24,33.24,0,0,1,6.88,2.38,1.16,1.16,0,0,1,.66.83,1.14,1.14,0,0,1-.28,1c-4.7,5.14-4.39,6.92-3.54,8.57,1.57,3,3.88,10.62,2.63,19.74a40.54,40.54,0,0,1-5.6,15.58A57.77,57.77,0,0,1,927.89,547a66.66,66.66,0,0,1-22.06,10.65A75.61,75.61,0,0,1,885.82,560.29ZM841,533.65a.67.67,0,0,0-.55.29L838.29,537a.67.67,0,0,0-.1.58.7.7,0,0,0,.4.44c1.65.63,4.74,2.4,6.94,7.13,3,6.5,19.43,11.83,19.6,11.88a75.12,75.12,0,0,0,20.45,2.72c11,0,27.15-2.22,42-13.17,12.22-9,19.25-19.63,20.89-31.61,1.23-9-1-16.45-2.58-19.44-1.11-2.15-.86-4.25,3.62-9.14a.69.69,0,0,0,.16-.59.67.67,0,0,0-.38-.47,32.7,32.7,0,0,0-6.76-2.34.65.65,0,0,0-.63.23.64.64,0,0,0-.12.65h0a13.35,13.35,0,0,1,.35,8.3,5.77,5.77,0,0,1-4.43,3.83c-2.51.48-5.67,1.76-6.48,5.14-1.26,5.33-9.45,17.3-26.82,28.42a77.06,77.06,0,0,1-19.85,8,68.62,68.62,0,0,1-20.22,2.16,56.28,56.28,0,0,1-23-6A.82.82,0,0,0,841,533.65Z"/><path class="cls-4" d="M885.14,554c1.92-.09,3.84-.34,5.74-.61a94.94,94.94,0,0,0,13.75-3,77.45,77.45,0,0,0,17-7.21,52.83,52.83,0,0,0,15.28-13.15,46.2,46.2,0,0,0,8.89-20.89c.17-1,.3-2.08.42-3.13.06-.65-.95-.64-1,0a46.27,46.27,0,0,1-7.77,21.59,49.9,49.9,0,0,1-14.7,13.73,73.55,73.55,0,0,1-16.7,7.58,95.4,95.4,0,0,1-14.06,3.31c-2.22.35-4.46.46-6.68.76h-.1c-.64,0-.65,1,0,1Z"/><ellipse class="cls-4" cx="840.08" cy="535.97" rx="2.86" ry="1.32" transform="translate(-87.33 900.52) rotate(-54)"/><ellipse class="cls-4" cx="945.82" cy="484.6" rx="0.93" ry="4.4" transform="translate(189.32 1231.01) rotate(-71.74)"/><path class="cls-3" d="M943.3,484.3a13.14,13.14,0,0,1,2,7.9,5.52,5.52,0,0,1-3.42,4.45c-2.21.91-5.34,2.86-5.45,6.56-.17,5.75-6.08,19.08-20.43,33.1,0,0-27.11,26-60.7,16.76a.93.93,0,0,0-1.09.52l-1.52,3.48a.93.93,0,0,0,.7,1.28c1.73.29,5,1.38,8.07,5.48,4.39,5.91,21.78,7.77,21.78,7.77s35.29,3.71,59.27-23,11.14-49.64,7.6-54c-1.31-1.62-1.81-3.49,1.7-9.39a.92.92,0,0,0-.59-1.37,32,32,0,0,0-7.15-.93A.92.92,0,0,0,943.3,484.3Z"/><path class="cls-4" d="M887.75,572c-2.82,0-4.5-.17-4.54-.17-.71-.08-17.55-1.94-22-7.87-3-4-6.25-5.1-7.91-5.38a1.2,1.2,0,0,1-.85-.6,1.17,1.17,0,0,1,0-1l1.52-3.48a1.18,1.18,0,0,1,1.39-.66c17.26,4.72,32.78-.07,42.75-4.92a76.63,76.63,0,0,0,17.7-11.78c14.64-14.3,20.2-27.52,20.36-32.92.11-3.94,3.56-5.95,5.61-6.8a5.28,5.28,0,0,0,3.26-4.24,12.9,12.9,0,0,0-2-7.74,1.17,1.17,0,0,1,0-1.16,1.19,1.19,0,0,1,1-.62,33.48,33.48,0,0,1,7.22.94,1.18,1.18,0,0,1,.75,1.75c-3.56,6-2.89,7.66-1.73,9.1,2.15,2.66,6,9.62,6.58,18.8a40.66,40.66,0,0,1-2.33,16.4A58.11,58.11,0,0,1,942.7,548.8a66.71,66.71,0,0,1-19.45,14.9,75.82,75.82,0,0,1-19.32,6.67A82,82,0,0,1,887.75,572Zm-32.69-18.73a.68.68,0,0,0-.61.4l-1.53,3.48a.68.68,0,0,0,.51.93c1.74.29,5.12,1.39,8.23,5.58,4.28,5.75,21.44,7.65,21.61,7.67a75.67,75.67,0,0,0,20.58-1.48c10.74-2.19,26.13-7.68,38.47-21.4,10.15-11.29,14.87-23.13,14-35.19-.61-9.06-4.35-15.9-6.46-18.52-1.52-1.88-1.71-4,1.69-9.68a.69.69,0,0,0,0-.61.68.68,0,0,0-.47-.39,33.25,33.25,0,0,0-7.09-.92.69.69,0,0,0-.58.35.65.65,0,0,0,0,.66,13.41,13.41,0,0,1,2,8.06,5.78,5.78,0,0,1-3.57,4.65c-2.36,1-5.2,2.87-5.3,6.34-.16,5.48-5.75,18.87-20.51,33.27a76.78,76.78,0,0,1-17.82,11.87A68.88,68.88,0,0,1,879,554.58a56.38,56.38,0,0,1-23.76-1.27Z"/><path class="cls-4" d="M902.29,564.32c1.83-.47,3.64-1.09,5.42-1.73a95.88,95.88,0,0,0,12.89-5.75,76.94,76.94,0,0,0,15.09-10.45A52.57,52.57,0,0,0,948,530.45a46.1,46.1,0,0,0,4.53-22.2c0-1.06-.12-2.12-.23-3.18-.06-.64-1.08-.65-1,0a46.43,46.43,0,0,1-3.2,22.75,49.92,49.92,0,0,1-11.59,16.44,73.42,73.42,0,0,1-14.83,10.84,94.42,94.42,0,0,1-13.14,6.11c-1.43.53-2.88,1-4.35,1.5-.68.21-1.4.36-2.07.61l-.09,0a.51.51,0,0,0,.27,1Z"/><ellipse class="cls-4" cx="854.46" cy="555.76" rx="2.86" ry="1.32" transform="translate(-3.85 1105.56) rotate(-65.68)"/><ellipse class="cls-4" cx="947.61" cy="484.05" rx="0.93" ry="4.4" transform="translate(358.32 1370.05) rotate(-83.43)"/><g id="Manzana-5" data-name="Manzana"><ellipse class="cls-5" cx="758.66" cy="270.77" rx="31.21" ry="36.82"/><ellipse class="cls-5" cx="777.95" cy="270.77" rx="31.21" ry="36.82"/><path class="cls-6" d="M768.18,239.05s-2.68-11.15,4-16.69c0,.17,0,2.48,0,2.48s-4.46,2.15-2,14.21C770.16,239.05,769.76,240.54,768.18,239.05Z"/><path class="cls-7" d="M759.05,221.53h0a9.58,9.58,0,0,1,9.58,9.58v0a0,0,0,0,1,0,0h0a9.58,9.58,0,0,1-9.58-9.58v0A0,0,0,0,1,759.05,221.53Z"/><path class="cls-8" d="M758.72,234s-36.84,28.92,0,73.53c0,0-29.08.66-31.22-36.68A38.48,38.48,0,0,1,732,251.67c3.33-6.39,8.19-12.39,16.12-15.53S758.72,234,758.72,234Z"/></g><g id="Manzana-6" data-name="Manzana"><ellipse class="cls-5" cx="886.52" cy="270.77" rx="31.21" ry="36.82"/><ellipse class="cls-5" cx="905.82" cy="270.77" rx="31.21" ry="36.82"/><path class="cls-6" d="M896,239.05s-2.67-11.15,4-16.69c0,.17,0,2.48,0,2.48s-4.46,2.15-2,14.21C898,239.05,897.63,240.54,896,239.05Z"/><path class="cls-7" d="M886.92,221.53h0a9.58,9.58,0,0,1,9.58,9.58v0a0,0,0,0,1,0,0h0a9.58,9.58,0,0,1-9.58-9.58v0A0,0,0,0,1,886.92,221.53Z"/><path class="cls-8" d="M886.59,234s-36.85,28.92,0,73.53c0,0-29.08.66-31.23-36.68a38.48,38.48,0,0,1,4.53-19.17c3.33-6.39,8.19-12.39,16.12-15.53S886.59,234,886.59,234Z"/></g><g id="Naranja-3" data-name="Naranja"><circle class="cls-9" cx="768.4" cy="362.28" r="39.68"/><path class="cls-10" d="M793.59,382.72a31,31,0,0,0,4.3-7.54,35.34,35.34,0,0,0,2.53-18.72,37.28,37.28,0,0,0-4.9-13.57.74.74,0,0,0-1.27.75,34.38,34.38,0,0,1,4.76,22,35.86,35.86,0,0,1-4.92,13.72c-.37.6-.75,1.18-1.15,1.75l-.36.49c0-.05.08-.1,0,0-.59.74.44,1.79,1,1.05Z"/><circle class="cls-11" cx="747.25" cy="342.77" r="3.12"/><circle class="cls-11" cx="741.67" cy="351.46" r="2.46"/><circle class="cls-11" cx="748.8" cy="350.55" r="1.56"/><path class="cls-7" d="M754.46,312.44h0a10.66,10.66,0,0,1,10.66,10.66v0a0,0,0,0,1,0,0h0a10.66,10.66,0,0,1-10.66-10.66v0A0,0,0,0,1,754.46,312.44Z"/><path class="cls-7" d="M775.77,312.44h0a0,0,0,0,1,0,0v0a10.66,10.66,0,0,1-10.66,10.66h0a0,0,0,0,1,0,0v0A10.66,10.66,0,0,1,775.77,312.44Z" transform="translate(1540.89 635.53) rotate(-180)"/></g><g id="Naranja-4" data-name="Naranja"><circle class="cls-9" cx="891.71" cy="362.28" r="39.68"/><path class="cls-10" d="M916.91,382.72a31.64,31.64,0,0,0,4.3-7.54,35.54,35.54,0,0,0,2.53-18.72,37.49,37.49,0,0,0-4.91-13.57.74.74,0,0,0-1.27.75,34.38,34.38,0,0,1,4.76,22,35.69,35.69,0,0,1-4.92,13.72c-.36.6-.74,1.18-1.15,1.75l-.36.49c0-.05.08-.1,0,0-.59.74.45,1.79,1,1.05Z"/><circle class="cls-11" cx="870.56" cy="342.77" r="3.12"/><circle class="cls-11" cx="864.99" cy="351.46" r="2.46"/><circle class="cls-11" cx="872.12" cy="350.55" r="1.56"/><path class="cls-7" d="M877.77,312.44h0a10.66,10.66,0,0,1,10.66,10.66v0a0,0,0,0,1,0,0h0a10.66,10.66,0,0,1-10.66-10.66v0A0,0,0,0,1,877.77,312.44Z"/><path class="cls-7" d="M899.09,312.44h0a0,0,0,0,1,0,0v0a10.66,10.66,0,0,1-10.66,10.66h0a0,0,0,0,1,0,0v0A10.66,10.66,0,0,1,899.09,312.44Z" transform="translate(1787.52 635.53) rotate(-180)"/></g><g id="Pera-3" data-name="Pera"><circle class="cls-12" cx="764.98" cy="470.95" r="25.95"/><circle class="cls-12" cx="764.98" cy="444.16" r="17.58"/><path class="cls-13" d="M764.16,431.6l3.63-25.45,4.5-.45s-3.11,2.66-6.95,26.29Z"/><path class="cls-14" d="M785.39,407.94s-9.93-5.39-16.29,3.74C769.1,411.68,775.29,423.71,785.39,407.94Z"/><path class="cls-15" d="M764,426.59a22.24,22.24,0,0,0-8.81,3.14c-12,8.57-6.65,20.48-6.53,21h0c-13.84,12.66-12.17,31.08,1.23,41.13.71.53,8.5,5,13.39,5h0l-.17-.27a63.38,63.38,0,0,1,.57-69.56Z"/></g><g id="Pera-4" data-name="Pera"><circle class="cls-12" cx="891.71" cy="471.59" r="25.95"/><circle class="cls-12" cx="891.71" cy="444.8" r="17.58"/><path class="cls-13" d="M890.89,432.24l3.64-25.45,4.49-.45s-3.1,2.66-6.95,26.29Z"/><path class="cls-14" d="M912.12,408.58s-9.93-5.39-16.29,3.74C895.83,412.32,902,424.35,912.12,408.58Z"/><path class="cls-15" d="M890.76,427.23a22.23,22.23,0,0,0-8.82,3.14c-12,8.57-6.65,20.48-6.53,21h0c-13.84,12.66-12.17,31.08,1.23,41.13.71.53,8.5,5,13.4,5h0l-.18-.27a63.38,63.38,0,0,1,.57-69.56Z"/></g><g id="Manzana-7" data-name="Manzana"><ellipse class="cls-5" cx="758.66" cy="627.22" rx="31.21" ry="36.82"/><ellipse class="cls-5" cx="777.95" cy="627.22" rx="31.21" ry="36.82"/><path class="cls-6" d="M768.18,595.5s-2.68-11.15,4-16.69c0,.17,0,2.48,0,2.48s-4.46,2.15-2,14.21C770.16,595.5,769.76,597,768.18,595.5Z"/><path class="cls-7" d="M759.05,578h0a9.58,9.58,0,0,1,9.58,9.58v0a0,0,0,0,1,0,0h0a9.58,9.58,0,0,1-9.58-9.58v0A0,0,0,0,1,759.05,578Z"/><path class="cls-8" d="M758.72,590.45s-36.84,28.91,0,73.52c0,0-29.08.66-31.22-36.68A38.48,38.48,0,0,1,732,608.12c3.33-6.38,8.19-12.39,16.12-15.53S758.72,590.45,758.72,590.45Z"/></g><g id="Manzana-8" data-name="Manzana"><ellipse class="cls-5" cx="886.52" cy="627.22" rx="31.21" ry="36.82"/><ellipse class="cls-5" cx="905.82" cy="627.22" rx="31.21" ry="36.82"/><path class="cls-6" d="M896,595.5s-2.67-11.15,4-16.69c0,.17,0,2.48,0,2.48s-4.46,2.15-2,14.21C898,595.5,897.63,597,896,595.5Z"/><path class="cls-7" d="M886.92,578h0a9.58,9.58,0,0,1,9.58,9.58v0a0,0,0,0,1,0,0h0a9.58,9.58,0,0,1-9.58-9.58v0A0,0,0,0,1,886.92,578Z"/><path class="cls-8" d="M886.59,590.45s-36.85,28.91,0,73.52c0,0-29.08.66-31.23-36.68a38.48,38.48,0,0,1,4.53-19.17c3.33-6.38,8.19-12.39,16.12-15.53S886.59,590.45,886.59,590.45Z"/></g></svg>