<svg id="Layer_1" data-name="Layer 1" xmlns="http://www.w3.org/2000/svg" viewBox="0 0 816 997.96"><defs><style>.cls-1{fill:#f05023;}.cls-2{fill:none;stroke:#f05023;stroke-miterlimit:10;stroke-width:10px;}.cls-3{fill:#ffd400;}.cls-4{fill:#d1a900;}.cls-5{fill:#e52525;}.cls-6{fill:#b56f00;}.cls-7{fill:#46c638;}.cls-8{fill:#910a0a;opacity:0.3;}.cls-9{fill:#ff7f00;}.cls-10{fill:#ffab5f;}.cls-11{fill:#ff4e00;}.cls-12{fill:#b9d86c;}.cls-13{fill:#aa8b39;}.cls-14{fill:#129948;}.cls-15{fill:#a8bf60;}</style></defs><title>Fruta_Glosa_12</title><path class="cls-1" d="M288.52,10a2,2,0,0,1,2,2V800a2,2,0,0,1-2,2H12a2,2,0,0,1-2-2V12a2,2,0,0,1,2-2H288.52m0-10H12A12,12,0,0,0,0,12V800a12,12,0,0,0,12,12H288.52a12,12,0,0,0,12-12V12a12,12,0,0,0-12-12Z"/><path class="cls-1" d="M804,46.54a2,2,0,0,1,2,2V763.46a2,2,0,0,1-2,2H528.87a2,2,0,0,1-2-2V48.54a2,2,0,0,1,2-2H804m0-10H528.87a12,12,0,0,0-12,12V763.46a12,12,0,0,0,12,12H804a12,12,0,0,0,12-12V48.54a12,12,0,0,0-12-12Z"/><line class="cls-2" x1="300.52" y1="406" x2="525.36" y2="406"/><path d="M64,882.17H60V856.73q0-3.18.2-6c-.35.35-.73.7-1.15,1.08s-2.36,2-5.81,4.76l-2.15-2.79,9.45-7.29H64Z"/><path d="M101,882.17H77.53v-3.49l9.4-9.45a71,71,0,0,0,5.66-6.2,16.19,16.19,0,0,0,2.06-3.61,10.54,10.54,0,0,0,.68-3.79,6,6,0,0,0-1.74-4.53,6.63,6.63,0,0,0-4.8-1.67,12.08,12.08,0,0,0-4.22.73,17.13,17.13,0,0,0-4.43,2.66L78,850.06A16.44,16.44,0,0,1,88.74,846q5,0,7.88,2.58a8.84,8.84,0,0,1,2.86,6.92,13.44,13.44,0,0,1-1.9,6.71,42.42,42.42,0,0,1-7.13,8.4l-7.82,7.64v.2H101Z"/><path d="M133,858.56h-6.81v23.61h-4V858.56h-4.79v-1.83l4.79-1.47v-1.49q0-9.85,8.62-9.86a17.82,17.82,0,0,1,5,.86l-1,3.24a13.52,13.52,0,0,0-4-.75,3.88,3.88,0,0,0-3.39,1.52,8.55,8.55,0,0,0-1.1,4.9v1.73H133Z"/><path d="M150.11,854.92a15.48,15.48,0,0,1,3.2.3l-.56,3.76a13.46,13.46,0,0,0-2.93-.37,7.11,7.11,0,0,0-5.55,2.64,9.57,9.57,0,0,0-2.31,6.56v14.36h-4.05V855.41h3.34l.47,5h.19a11.72,11.72,0,0,1,3.59-4A8,8,0,0,1,150.11,854.92Z"/><path d="M162.13,855.41v17.36a7,7,0,0,0,1.48,4.88,6.07,6.07,0,0,0,4.67,1.61c2.8,0,4.84-.76,6.14-2.29s1.94-4,1.94-7.5V855.41h4v26.76h-3.34l-.59-3.59h-.22a8.08,8.08,0,0,1-3.45,3,11.66,11.66,0,0,1-5.05,1c-3.25,0-5.69-.78-7.31-2.32s-2.43-4-2.43-7.42V855.41Z"/><path d="M197.65,879.31a12.67,12.67,0,0,0,2.07-.16,11.33,11.33,0,0,0,1.59-.33v3.1a7.17,7.17,0,0,1-1.94.53,14.43,14.43,0,0,1-2.31.21q-7.76,0-7.76-8.18V858.56h-3.83v-1.95l3.83-1.69,1.71-5.71h2.34v6.2h7.76v3.15h-7.76v15.75A5.39,5.39,0,0,0,194.5,878,4,4,0,0,0,197.65,879.31Z"/><path d="M223.11,882.17l-.8-3.81h-.2a11.23,11.23,0,0,1-4,3.41,12.24,12.24,0,0,1-5,.89,9,9,0,0,1-6.24-2,7.51,7.51,0,0,1-2.25-5.84q0-8.1,13-8.5l4.54-.14v-1.66a6.74,6.74,0,0,0-1.36-4.65,5.56,5.56,0,0,0-4.33-1.5,17.64,17.64,0,0,0-7.57,2l-1.24-3.1a19,19,0,0,1,4.33-1.69,18.66,18.66,0,0,1,4.73-.61q4.78,0,7.09,2.12c1.54,1.42,2.3,3.69,2.3,6.82v18.26ZM214,879.31a8.23,8.23,0,0,0,5.94-2.07,7.69,7.69,0,0,0,2.16-5.81V869l-4.05.17c-3.22.11-5.55.62-7,1.5a4.53,4.53,0,0,0-2.14,4.14,4.22,4.22,0,0,0,1.33,3.35A5.56,5.56,0,0,0,214,879.31Z"/><path d="M251.73,874.87a6.69,6.69,0,0,1-2.79,5.76c-1.85,1.35-4.46,2-7.81,2a17,17,0,0,1-8.3-1.69v-3.76a19.64,19.64,0,0,0,4.14,1.54,17,17,0,0,0,4.26.56,9.73,9.73,0,0,0,4.88-1,3.48,3.48,0,0,0,.35-5.76,21.21,21.21,0,0,0-5.28-2.63,28.27,28.27,0,0,1-5.31-2.43,7.31,7.31,0,0,1-2.35-2.35,6.18,6.18,0,0,1-.77-3.15,6,6,0,0,1,2.67-5.17,12.39,12.39,0,0,1,7.3-1.89,21.36,21.36,0,0,1,8.44,1.76l-1.44,3.3a19.31,19.31,0,0,0-7.3-1.66,8.39,8.39,0,0,0-4.34.9,2.79,2.79,0,0,0-1.47,2.49,3.05,3.05,0,0,0,.55,1.83,5.36,5.36,0,0,0,1.77,1.44,38.91,38.91,0,0,0,4.69,2c3.17,1.15,5.32,2.32,6.43,3.49A6.13,6.13,0,0,1,251.73,874.87Z"/><path d="M557.6,882.17h-4V856.73q0-3.18.2-6c-.34.35-.73.7-1.15,1.08s-2.36,2-5.81,4.76l-2.15-2.79,9.45-7.29h3.42Z"/><path d="M607.91,855.41V858l-4.95.59a8.72,8.72,0,0,1,1.22,2.23,8.51,8.51,0,0,1,.54,3.12,7.9,7.9,0,0,1-2.69,6.27,10.84,10.84,0,0,1-7.37,2.34,12.33,12.33,0,0,1-2.25-.19c-1.72.91-2.59,2.06-2.59,3.44a1.74,1.74,0,0,0,.91,1.63,6.59,6.59,0,0,0,3.1.52h4.73q4.35,0,6.68,1.83a6.38,6.38,0,0,1,2.33,5.32,7.61,7.61,0,0,1-3.56,6.78q-3.57,2.32-10.4,2.33-5.25,0-8.1-1.95a6.33,6.33,0,0,1-2.84-5.52,6.17,6.17,0,0,1,1.56-4.22,7.93,7.93,0,0,1,4.4-2.42,4.18,4.18,0,0,1-1.72-1.44,3.78,3.78,0,0,1-.7-2.27,4.34,4.34,0,0,1,.78-2.57,8.12,8.12,0,0,1,2.47-2.12,7.19,7.19,0,0,1-3.38-2.91,8.42,8.42,0,0,1-1.31-4.68,8.67,8.67,0,0,1,2.64-6.78c1.75-1.58,4.24-2.38,7.47-2.38a13.74,13.74,0,0,1,3.78.49Zm-21.33,31.25a3.64,3.64,0,0,0,1.83,3.3,10.09,10.09,0,0,0,5.25,1.12q5.1,0,7.55-1.53a4.65,4.65,0,0,0,2.46-4.13,3.27,3.27,0,0,0-1.35-3c-.89-.56-2.58-.84-5.05-.84h-4.86a6.41,6.41,0,0,0-4.3,1.32A4.72,4.72,0,0,0,586.58,886.66ZM588.77,864a5.45,5.45,0,0,0,1.59,4.25,6.34,6.34,0,0,0,4.42,1.44q5.93,0,5.93-5.76,0-6-6-6a5.94,5.94,0,0,0-4.4,1.54A6.19,6.19,0,0,0,588.77,864Z"/><path d="M625.61,854.92a15.48,15.48,0,0,1,3.2.3l-.56,3.76a13.46,13.46,0,0,0-2.93-.37,7.13,7.13,0,0,0-5.55,2.64,9.57,9.57,0,0,0-2.31,6.56v14.36h-4.05V855.41h3.34l.47,5h.19a11.72,11.72,0,0,1,3.59-4A8,8,0,0,1,625.61,854.92Z"/><path d="M637.63,855.41v17.36a6.94,6.94,0,0,0,1.49,4.88,6,6,0,0,0,4.66,1.61c2.8,0,4.84-.76,6.14-2.29s1.94-4,1.94-7.5V855.41h4v26.76h-3.34l-.59-3.59h-.22a8.08,8.08,0,0,1-3.45,3,11.65,11.65,0,0,1-5,1c-3.26,0-5.7-.78-7.32-2.32s-2.43-4-2.43-7.42V855.41Z"/><path d="M677,882.66a11.51,11.51,0,0,1-4.78-1,9,9,0,0,1-3.62-3h-.29a36.84,36.84,0,0,1,.29,4.44v11h-4V855.41h3.29l.56,3.66h.2a9.38,9.38,0,0,1,3.64-3.17,11.06,11.06,0,0,1,4.76-1,9.91,9.91,0,0,1,8.21,3.64q2.9,3.65,2.9,10.2t-3,10.25A9.91,9.91,0,0,1,677,882.66Zm-.59-24.3q-4.1,0-5.93,2.28t-1.88,7.22v.9c0,3.76.62,6.46,1.88,8.07s3.26,2.43,6,2.43a6.27,6.27,0,0,0,5.43-2.8,13.33,13.33,0,0,0,2-7.74q0-5-2-7.68A6.47,6.47,0,0,0,676.37,858.36Z"/><path d="M718.24,868.76q0,6.56-3.29,10.22t-9.11,3.68a12.08,12.08,0,0,1-6.37-1.69,11.07,11.07,0,0,1-4.3-4.83,16.85,16.85,0,0,1-1.51-7.38q0-6.54,3.27-10.19t9.08-3.65a11.31,11.31,0,0,1,8.92,3.74Q718.25,862.4,718.24,868.76Zm-20.38,0q0,5.13,2,7.82a7.1,7.1,0,0,0,6,2.68,7.17,7.17,0,0,0,6-2.67q2.06-2.67,2.06-7.83T712,861a7.28,7.28,0,0,0-6.09-2.65,7.14,7.14,0,0,0-6,2.62C698.53,862.72,697.86,865.32,697.86,868.76Z"/><path d="M756.55,878.58h-.22q-2.8,4.08-8.4,4.08a10,10,0,0,1-8.17-3.59q-2.91-3.6-2.92-10.21t2.93-10.27a9.86,9.86,0,0,1,8.16-3.67,9.73,9.73,0,0,1,8.35,4h.32l-.18-1.93-.09-1.88V844.18h4v38h-3.3Zm-8.11.68c2.77,0,4.77-.75,6-2.25s1.87-3.94,1.87-7.29v-.86c0-3.79-.63-6.5-1.9-8.11s-3.27-2.43-6-2.43a6.19,6.19,0,0,0-5.45,2.77q-1.91,2.76-1.9,7.82t1.88,7.74A6.39,6.39,0,0,0,748.44,879.26Z"/><path d="M780.28,882.66q-5.94,0-9.36-3.62t-3.44-10q0-6.46,3.19-10.28a10.58,10.58,0,0,1,8.56-3.81,10.13,10.13,0,0,1,8,3.31,12.7,12.7,0,0,1,2.93,8.73v2.56H771.68c.08,3.14.88,5.53,2.38,7.15a8.24,8.24,0,0,0,6.36,2.45,21.68,21.68,0,0,0,8.55-1.81v3.61a20.69,20.69,0,0,1-4.07,1.33A22.62,22.62,0,0,1,780.28,882.66Zm-1.1-24.34a6.62,6.62,0,0,0-5.14,2.1,9.66,9.66,0,0,0-2.26,5.81h14a8.92,8.92,0,0,0-1.71-5.88A6,6,0,0,0,779.18,858.32Z"/><path d="M580.13,942.17h-4V916.73q0-3.18.19-6c-.34.35-.72.7-1.15,1.08s-2.36,2-5.81,4.76l-2.15-2.79,9.45-7.29h3.42Z"/><path d="M617.17,942.17H593.71v-3.49l9.39-9.45a69.91,69.91,0,0,0,5.67-6.2,16.13,16.13,0,0,0,2.05-3.61,10.54,10.54,0,0,0,.68-3.79,6,6,0,0,0-1.73-4.53,6.67,6.67,0,0,0-4.81-1.67,12.06,12.06,0,0,0-4.21.73,16.8,16.8,0,0,0-4.43,2.66l-2.15-2.76a16.48,16.48,0,0,1,10.74-4.1q5,0,7.89,2.58a8.87,8.87,0,0,1,2.85,6.92,13.34,13.34,0,0,1-1.9,6.71,42.42,42.42,0,0,1-7.13,8.4l-7.81,7.64v.2h18.36Z"/><path d="M649.2,918.56h-6.81v23.61h-4.06V918.56h-4.78v-1.83l4.78-1.47v-1.49q0-9.85,8.62-9.86a17.7,17.7,0,0,1,5,.86l-1,3.24a13.46,13.46,0,0,0-4-.75,3.88,3.88,0,0,0-3.39,1.52,8.47,8.47,0,0,0-1.1,4.9v1.73h6.81Z"/><path d="M666.29,914.92a15.54,15.54,0,0,1,3.2.3l-.57,3.76a13.38,13.38,0,0,0-2.92-.37,7.13,7.13,0,0,0-5.56,2.64,9.57,9.57,0,0,0-2.31,6.56v14.36h-4V915.41h3.35l.46,5h.19a11.82,11.82,0,0,1,3.59-4A8,8,0,0,1,666.29,914.92Z"/><path d="M678.3,915.41v17.36a7,7,0,0,0,1.49,4.88,6,6,0,0,0,4.66,1.61q4.2,0,6.14-2.29c1.3-1.53,1.94-4,1.94-7.5V915.41h4.06v26.76h-3.35l-.58-3.59h-.22a8.1,8.1,0,0,1-3.46,3,11.59,11.59,0,0,1-5,1c-3.26,0-5.69-.78-7.31-2.32s-2.43-4-2.43-7.42V915.41Z"/><path d="M713.82,939.31a12.8,12.8,0,0,0,2.08-.16,11.46,11.46,0,0,0,1.58-.33v3.1a7.07,7.07,0,0,1-1.94.53,14.32,14.32,0,0,1-2.3.21q-7.77,0-7.77-8.18V918.56h-3.83v-1.95l3.83-1.69,1.71-5.71h2.35v6.2h7.76v3.15h-7.76v15.75a5.44,5.44,0,0,0,1.14,3.71A4,4,0,0,0,713.82,939.31Z"/><path d="M739.29,942.17l-.81-3.81h-.19a11.34,11.34,0,0,1-4,3.41,12.19,12.19,0,0,1-5,.89,9,9,0,0,1-6.24-2,7.48,7.48,0,0,1-2.26-5.84q0-8.1,13-8.5l4.54-.14v-1.66a6.8,6.8,0,0,0-1.35-4.65,5.57,5.57,0,0,0-4.33-1.5,17.6,17.6,0,0,0-7.57,2l-1.25-3.1a18.93,18.93,0,0,1,4.34-1.69,18.59,18.59,0,0,1,4.72-.61q4.79,0,7.09,2.12t2.31,6.82v18.26Zm-9.16-2.86a8.26,8.26,0,0,0,6-2.07,7.69,7.69,0,0,0,2.16-5.81V929l-4.06.17c-3.22.11-5.54.62-7,1.5a4.54,4.54,0,0,0-2.13,4.14,4.19,4.19,0,0,0,1.33,3.35A5.53,5.53,0,0,0,730.13,939.31Z"/><path d="M767.9,934.87a6.71,6.71,0,0,1-2.78,5.76c-1.86,1.35-4.46,2-7.82,2A17,17,0,0,1,749,941v-3.76a20.06,20.06,0,0,0,4.14,1.54,17,17,0,0,0,4.26.56,9.7,9.7,0,0,0,4.88-1,3.49,3.49,0,0,0,.36-5.76,21.32,21.32,0,0,0-5.29-2.63,28.27,28.27,0,0,1-5.31-2.43,7.17,7.17,0,0,1-2.34-2.35,6.18,6.18,0,0,1-.77-3.15,6,6,0,0,1,2.66-5.17,12.41,12.41,0,0,1,7.3-1.89,21.41,21.41,0,0,1,8.45,1.76L765.9,920a19.35,19.35,0,0,0-7.3-1.66,8.45,8.45,0,0,0-4.35.9,2.8,2.8,0,0,0-1.46,2.49,3,3,0,0,0,.55,1.83,5.16,5.16,0,0,0,1.77,1.44,37.83,37.83,0,0,0,4.68,2c3.18,1.15,5.32,2.32,6.44,3.49A6.17,6.17,0,0,1,767.9,934.87Z"/><path class="cls-3" d="M127.07,30.18a11.06,11.06,0,0,1-.59,6.87,4.65,4.65,0,0,1-4,2.6c-2,.12-5.07.81-6.18,3.74C114.61,47.93,106.19,57,90.83,64.17c0,0-28.86,13.22-53.15-3.43a.77.77,0,0,0-1,.12l-2.18,2.35a.78.78,0,0,0,.2,1.22c1.3.71,3.63,2.49,4.93,6.62C41.49,77,54.87,83.29,54.87,83.29S82,96.05,108.6,81.38s22.67-36.59,21.06-41.08c-.6-1.65-.47-3.29,4-7a.78.78,0,0,0-.09-1.26,27.78,27.78,0,0,0-5.46-2.73A.79.79,0,0,0,127.07,30.18Z"/><path class="cls-4" d="M80.61,88.65a66.61,66.61,0,0,1-8.86-.6,64.26,64.26,0,0,1-17-4.56c-.55-.26-13.49-6.42-15.37-12.38-1.28-4.06-3.57-5.81-4.82-6.49a1,1,0,0,1-.51-.71,1,1,0,0,1,.25-.84l2.18-2.36a1,1,0,0,1,1.29-.15c12.5,8.57,26.23,9,35.54,7.93A65.37,65.37,0,0,0,90.75,64c15.66-7.37,23.76-16.39,25.39-20.66,1.18-3.12,4.5-3.77,6.37-3.88A4.48,4.48,0,0,0,126.29,37a10.91,10.91,0,0,0,.57-6.73h0a1,1,0,0,1,1.28-1.15,27.46,27.46,0,0,1,5.51,2.75,1,1,0,0,1,.12,1.6c-4.51,3.8-4.44,5.33-3.91,6.8a30.33,30.33,0,0,1,0,16.85,34.24,34.24,0,0,1-6.41,12.45,48.86,48.86,0,0,1-14.78,12A56.69,56.69,0,0,1,89,88.08,61.59,61.59,0,0,1,80.61,88.65ZM37.24,60.82a.55.55,0,0,0-.41.18l-2.19,2.36a.56.56,0,0,0-.14.48.57.57,0,0,0,.29.4c1.31.71,3.71,2.53,5,6.74C41.64,76.77,54.83,83,55,83.1a64.18,64.18,0,0,0,16.86,4.53c9.19,1.22,23,1.11,36.68-6.44,11.24-6.21,18.3-14.36,21-24.23a29.79,29.79,0,0,0,0-16.59c-.69-1.92-.25-3.65,4-7.27a.56.56,0,0,0-.07-.91,27.54,27.54,0,0,0-5.41-2.7.58.58,0,0,0-.56.12.57.57,0,0,0-.17.53h0a11.31,11.31,0,0,1-.61,7,4.88,4.88,0,0,1-4.14,2.73c-2.16.13-5,.85-6,3.6-1.65,4.33-9.83,13.48-25.61,20.9a65.62,65.62,0,0,1-17.54,4.54,57.86,57.86,0,0,1-17.19-.4,47.7,47.7,0,0,1-18.64-7.59A.55.55,0,0,0,37.24,60.82Z"/><path class="cls-4" d="M72.14,82.76c1.6.13,3.21.13,4.81.12a81.94,81.94,0,0,0,11.91-1,64.94,64.94,0,0,0,15-4.18,44.72,44.72,0,0,0,14.24-9.33,39.09,39.09,0,0,0,9.73-16.43c.27-.88.5-1.76.72-2.66.12-.54-.7-.76-.83-.23a39.22,39.22,0,0,1-8.88,17.3A42.42,42.42,0,0,1,105,76.23a61.84,61.84,0,0,1-14.86,4.54A79.06,79.06,0,0,1,77.93,82c-1.29,0-2.59,0-3.89,0-.6,0-1.23-.12-1.82-.09h-.08c-.55,0-.55.81,0,.86Z"/><ellipse class="cls-4" cx="36.26" cy="62.66" rx="2.42" ry="1.12" transform="translate(-34.16 45.89) rotate(-46.55)"/><ellipse class="cls-4" cx="130.59" cy="31.17" rx="0.79" ry="3.73" transform="translate(45.86 135.32) rotate(-64.29)"/><path class="cls-3" d="M127.59,30.27a11.06,11.06,0,0,1,.31,6.88,4.68,4.68,0,0,1-3.59,3.1c-2,.38-4.92,1.45-5.65,4.51-1.12,4.72-8.3,14.76-22.59,23.91,0,0-26.9,16.85-53.15,3.49a.78.78,0,0,0-1,.24L40.07,75a.78.78,0,0,0,.36,1.18c1.38.54,3.92,2,5.75,5.92,2.62,5.65,16.71,10.17,16.71,10.17s28.59,9.12,53-8.87S133.65,44.21,131.47,40c-.81-1.57-.9-3.21,3-7.49a.78.78,0,0,0-.25-1.24,28,28,0,0,0-5.77-2A.79.79,0,0,0,127.59,30.27Z"/><path class="cls-4" d="M80.46,94.82h-.22a63.67,63.67,0,0,1-17.42-2.33c-.58-.18-14.21-4.61-16.84-10.27-1.79-3.87-4.3-5.3-5.63-5.82a1,1,0,0,1-.59-.64,1,1,0,0,1,.14-.86l1.85-2.62A1,1,0,0,1,43,72c13.5,6.88,27.17,5.57,36.26,3.26A65,65,0,0,0,96,68.49c14.57-9.34,21.44-19.34,22.49-23.78.78-3.25,4-4.32,5.82-4.67a4.45,4.45,0,0,0,3.42-2.95,10.84,10.84,0,0,0-.3-6.75h0A1,1,0,0,1,128.51,29a28.6,28.6,0,0,1,5.82,2,1,1,0,0,1,.56.71,1,1,0,0,1-.24.87c-4,4.35-3.71,5.86-3,7.25a30.42,30.42,0,0,1,2.23,16.7,34.42,34.42,0,0,1-4.75,13.18A48.92,48.92,0,0,1,116,83.6a56.65,56.65,0,0,1-18.66,9A64.44,64.44,0,0,1,80.46,94.82ZM42.57,72.29a.57.57,0,0,0-.47.24l-1.85,2.62a.56.56,0,0,0,.26.85c1.39.54,4,2,5.86,6C48.92,87.53,62.81,92,63,92.09a64.1,64.1,0,0,0,17.31,2.3c9.27,0,23-1.88,35.53-11.14,10.34-7.61,16.28-16.61,17.67-26.74a29.94,29.94,0,0,0-2.18-16.45c-.94-1.82-.73-3.59,3.06-7.73a.57.57,0,0,0-.19-.89,27,27,0,0,0-5.71-2,.56.56,0,0,0-.64.74h0a11.31,11.31,0,0,1,.3,7,4.88,4.88,0,0,1-3.75,3.24c-2.13.41-4.8,1.49-5.48,4.35-1.07,4.51-8,14.64-22.69,24a65.4,65.4,0,0,1-16.79,6.78,58.08,58.08,0,0,1-17.1,1.83,47.61,47.61,0,0,1-19.47-5.11A.57.57,0,0,0,42.57,72.29Z"/><path class="cls-4" d="M79.88,89.53c1.63-.08,3.25-.29,4.86-.52a80.78,80.78,0,0,0,11.62-2.54,65.27,65.27,0,0,0,14.34-6.1,44.81,44.81,0,0,0,12.93-11.12,39,39,0,0,0,7.52-17.67c.14-.88.26-1.77.35-2.65.06-.55-.8-.55-.86,0a39,39,0,0,1-6.57,18.26,42.19,42.19,0,0,1-12.44,11.62,61.82,61.82,0,0,1-14.12,6.41A80.84,80.84,0,0,1,85.62,88c-1.88.29-3.78.39-5.66.64h-.08c-.55,0-.55.88,0,.86Z"/><ellipse class="cls-4" cx="41.76" cy="74.24" rx="2.42" ry="1.12" transform="translate(-42.85 64.39) rotate(-54)"/><ellipse class="cls-4" cx="131.21" cy="30.79" rx="0.79" ry="3.73" transform="translate(60.86 145.75) rotate(-71.74)"/><path class="cls-3" d="M129.08,30.54a11.14,11.14,0,0,1,1.69,6.68A4.66,4.66,0,0,1,127.88,41c-1.87.78-4.52,2.42-4.62,5.56-.14,4.85-5.14,16.14-17.28,28,0,0-22.93,22-51.34,14.18a.79.79,0,0,0-.92.44L52.43,92.1A.78.78,0,0,0,53,93.18c1.47.24,4.25,1.16,6.83,4.63,3.71,5,18.42,6.57,18.42,6.57s29.86,3.15,50.14-19.42,9.42-42,6.42-45.71c-1.1-1.36-1.52-3,1.45-7.94a.78.78,0,0,0-.5-1.16,27.65,27.65,0,0,0-6.05-.79A.78.78,0,0,0,129.08,30.54Z"/><path class="cls-4" d="M82.09,104.74c-2.39,0-3.81-.14-3.84-.14-.6-.07-14.85-1.64-18.57-6.66-2.54-3.42-5.28-4.32-6.69-4.55A1,1,0,0,1,52.24,92l1.28-2.94a1,1,0,0,1,1.17-.57c14.61,4,27.73,0,36.17-4.15a64.79,64.79,0,0,0,15-10c12.39-12.1,17.09-23.28,17.22-27.85.1-3.33,3-5,4.75-5.75a4.43,4.43,0,0,0,2.75-3.58,10.82,10.82,0,0,0-1.66-6.55,1,1,0,0,1,.83-1.5,27.82,27.82,0,0,1,6.11.79,1,1,0,0,1,.63,1.48c-3,5.06-2.44,6.48-1.46,7.7A30.24,30.24,0,0,1,140.56,55a34.34,34.34,0,0,1-2,13.87,49,49,0,0,1-10,16.21,56.57,56.57,0,0,1-16.46,12.61,64.07,64.07,0,0,1-16.33,5.63A69.56,69.56,0,0,1,82.09,104.74ZM54.44,88.9a.57.57,0,0,0-.52.34l-1.29,2.94a.58.58,0,0,0,0,.5.57.57,0,0,0,.41.29c1.47.24,4.33,1.17,7,4.72,3.62,4.86,18.13,6.47,18.28,6.48a63.64,63.64,0,0,0,17.41-1.25c9.08-1.85,22.1-6.49,32.54-18.1,8.58-9.55,12.58-19.57,11.89-29.77a29.92,29.92,0,0,0-5.47-15.66c-1.29-1.59-1.44-3.37,1.43-8.19a.59.59,0,0,0,0-.52.57.57,0,0,0-.4-.32,27,27,0,0,0-6-.78.55.55,0,0,0-.49.29.56.56,0,0,0,0,.56A11.33,11.33,0,0,1,131,37.25a4.89,4.89,0,0,1-3,3.93c-2,.83-4.39,2.43-4.48,5.36-.14,4.64-4.87,16-17.35,28.15a65.49,65.49,0,0,1-15.07,10A58.31,58.31,0,0,1,74.68,90a47.71,47.71,0,0,1-20.1-1.07Z"/><path class="cls-4" d="M94.38,98.23c1.56-.4,3.08-.93,4.59-1.47a80.58,80.58,0,0,0,10.91-4.86,65.16,65.16,0,0,0,12.76-8.84,44.59,44.59,0,0,0,10.42-13.48,39.18,39.18,0,0,0,3.82-18.78c0-.9-.1-1.8-.19-2.69-.05-.54-.91-.55-.86,0a39.33,39.33,0,0,1-2.7,19.25,42.36,42.36,0,0,1-9.8,13.9,62.09,62.09,0,0,1-12.55,9.17,79.43,79.43,0,0,1-11.11,5.16c-1.22.46-2.44.89-3.68,1.27-.58.19-1.19.31-1.76.52l-.07,0a.43.43,0,0,0,.22.83Z"/><ellipse class="cls-4" cx="53.93" cy="90.99" rx="2.42" ry="1.12" transform="translate(-51.2 102.67) rotate(-65.68)"/><ellipse class="cls-4" cx="132.72" cy="30.32" rx="0.79" ry="3.73" transform="translate(87.41 158.71) rotate(-83.43)"/><path class="cls-3" d="M127.07,581.4a11.06,11.06,0,0,1-.59,6.87,4.67,4.67,0,0,1-4,2.6c-2,.12-5.07.81-6.18,3.74-1.73,4.54-10.15,13.56-25.51,20.78,0,0-28.86,13.22-53.15-3.43a.78.78,0,0,0-1,.11l-2.18,2.36a.78.78,0,0,0,.2,1.22c1.3.7,3.63,2.49,4.93,6.61,1.87,5.94,15.25,12.25,15.25,12.25S82,647.26,108.6,632.59s22.67-36.58,21.06-41.07c-.6-1.66-.47-3.29,4-7a.77.77,0,0,0-.09-1.25,27.24,27.24,0,0,0-5.46-2.73A.78.78,0,0,0,127.07,581.4Z"/><path class="cls-4" d="M80.61,639.86a66.59,66.59,0,0,1-8.86-.59,64,64,0,0,1-17-4.57c-.55-.25-13.49-6.41-15.37-12.37-1.28-4.07-3.57-5.81-4.82-6.49a1,1,0,0,1-.26-1.55l2.18-2.36a1,1,0,0,1,1.29-.15c12.5,8.56,26.23,9,35.54,7.93a65.37,65.37,0,0,0,17.41-4.51c15.66-7.37,23.76-16.4,25.39-20.67,1.18-3.11,4.5-3.76,6.37-3.87a4.48,4.48,0,0,0,3.78-2.48,10.94,10.94,0,0,0,.57-6.74h0a1,1,0,0,1,.31-.93,1,1,0,0,1,1-.21,28,28,0,0,1,5.51,2.74,1,1,0,0,1,.47.78,1,1,0,0,1-.35.83c-4.51,3.8-4.44,5.32-3.91,6.8a30.29,30.29,0,0,1,0,16.84,34.2,34.2,0,0,1-6.41,12.46,49,49,0,0,1-14.78,12A56.47,56.47,0,0,1,89,639.29,61.59,61.59,0,0,1,80.61,639.86ZM37.24,612a.55.55,0,0,0-.41.18l-2.19,2.36a.55.55,0,0,0-.14.47.57.57,0,0,0,.29.41c1.31.71,3.71,2.53,5,6.74,1.82,5.78,15,12,15.14,12.12a64,64,0,0,0,16.86,4.52c9.19,1.23,23,1.11,36.68-6.43,11.24-6.21,18.3-14.36,21-24.23a29.79,29.79,0,0,0,0-16.59c-.69-1.93-.25-3.66,4-7.27a.57.57,0,0,0,.2-.47.53.53,0,0,0-.27-.44A27,27,0,0,0,128,580.7a.58.58,0,0,0-.56.13.57.57,0,0,0-.17.53h0a11.31,11.31,0,0,1-.61,7,4.88,4.88,0,0,1-4.14,2.73c-2.16.12-5,.85-6,3.6-1.65,4.33-9.83,13.47-25.61,20.9a65.62,65.62,0,0,1-17.54,4.54,58.19,58.19,0,0,1-17.19-.4,47.72,47.72,0,0,1-18.64-7.6A.62.62,0,0,0,37.24,612Z"/><path class="cls-4" d="M72.14,634c1.6.13,3.21.13,4.81.11a81.93,81.93,0,0,0,11.91-1,64.94,64.94,0,0,0,15-4.18,44.72,44.72,0,0,0,14.24-9.33,39.09,39.09,0,0,0,9.73-16.43c.27-.88.5-1.77.72-2.66.12-.54-.7-.77-.83-.23a39.13,39.13,0,0,1-8.88,17.29A42.44,42.44,0,0,1,105,627.45,62.3,62.3,0,0,1,90.12,632a79.06,79.06,0,0,1-12.19,1.23c-1.29,0-2.59,0-3.89,0-.6,0-1.23-.12-1.82-.09h-.08c-.55,0-.55.81,0,.86Z"/><ellipse class="cls-4" cx="36.26" cy="613.88" rx="2.42" ry="1.12" transform="translate(-434.32 218.01) rotate(-46.55)"/><ellipse class="cls-4" cx="130.59" cy="582.39" rx="0.79" ry="3.73" transform="translate(-450.81 447.45) rotate(-64.29)"/><path class="cls-3" d="M127.59,581.48a11.1,11.1,0,0,1,.31,6.89,4.69,4.69,0,0,1-3.59,3.1c-2,.38-4.92,1.45-5.65,4.5-1.12,4.73-8.3,14.77-22.59,23.92,0,0-26.9,16.85-53.15,3.48a.78.78,0,0,0-1,.25l-1.86,2.62a.78.78,0,0,0,.36,1.18c1.38.53,3.92,2,5.75,5.92,2.62,5.65,16.71,10.17,16.71,10.17s28.59,9.12,53-8.87,17.73-39.21,15.55-43.46c-.81-1.56-.9-3.2,3-7.49a.77.77,0,0,0-.25-1.23,27.38,27.38,0,0,0-5.77-2A.78.78,0,0,0,127.59,581.48Z"/><path class="cls-4" d="M80.46,646h-.22a64.4,64.4,0,0,1-17.42-2.32c-.58-.18-14.21-4.61-16.84-10.28-1.79-3.86-4.3-5.3-5.63-5.81a1,1,0,0,1-.45-1.5l1.85-2.62a1,1,0,0,1,1.26-.32c13.5,6.87,27.17,5.56,36.26,3.26A65.44,65.44,0,0,0,96,619.71c14.57-9.34,21.44-19.34,22.49-23.79.78-3.24,4-4.31,5.82-4.66a4.45,4.45,0,0,0,3.42-3,10.81,10.81,0,0,0-.3-6.74h0a1,1,0,0,1,1.12-1.31,28,28,0,0,1,5.82,2,1,1,0,0,1,.32,1.58c-4,4.35-3.71,5.85-3,7.25a30.42,30.42,0,0,1,2.23,16.7A34.48,34.48,0,0,1,129.14,621,48.76,48.76,0,0,1,116,634.81a56.45,56.45,0,0,1-18.66,9A64,64,0,0,1,80.46,646ZM42.57,623.5a.59.59,0,0,0-.47.24l-1.85,2.62a.56.56,0,0,0-.08.5.55.55,0,0,0,.34.36c1.39.54,4,2,5.86,6,2.55,5.5,16.44,10,16.58,10a63.37,63.37,0,0,0,17.31,2.31c9.27,0,23-1.89,35.53-11.14,10.34-7.62,16.28-16.61,17.67-26.74a29.94,29.94,0,0,0-2.18-16.45c-.94-1.82-.73-3.59,3.06-7.73a.57.57,0,0,0,.13-.5.56.56,0,0,0-.32-.4,27.55,27.55,0,0,0-5.71-2,.58.58,0,0,0-.54.2.53.53,0,0,0-.1.54h0a11.34,11.34,0,0,1,.3,7,4.88,4.88,0,0,1-3.75,3.24c-2.13.4-4.8,1.49-5.48,4.34-1.07,4.52-8,14.64-22.69,24.05a65.4,65.4,0,0,1-16.79,6.78,58.08,58.08,0,0,1-17.1,1.83,47.47,47.47,0,0,1-19.47-5.12A.57.57,0,0,0,42.57,623.5Z"/><path class="cls-4" d="M79.88,640.74c1.63-.07,3.25-.29,4.86-.51a80.78,80.78,0,0,0,11.62-2.54,65.27,65.27,0,0,0,14.34-6.1,44.84,44.84,0,0,0,12.93-11.13,39,39,0,0,0,7.52-17.66c.14-.88.26-1.77.35-2.66.06-.54-.8-.54-.86,0a39.1,39.1,0,0,1-6.57,18.27A42.16,42.16,0,0,1,111.63,630a61.85,61.85,0,0,1-14.12,6.42,80.81,80.81,0,0,1-11.89,2.79c-1.88.3-3.78.4-5.66.65h-.08c-.55,0-.55.88,0,.85Z"/><ellipse class="cls-4" cx="41.76" cy="625.46" rx="2.42" ry="1.12" transform="translate(-488.77 291.58) rotate(-54)"/><ellipse class="cls-4" cx="131.21" cy="582.01" rx="0.79" ry="3.73" transform="translate(-462.61 524.29) rotate(-71.74)"/><path class="cls-3" d="M129.08,581.76a11.14,11.14,0,0,1,1.69,6.68,4.66,4.66,0,0,1-2.89,3.76c-1.87.77-4.52,2.42-4.62,5.56-.14,4.85-5.14,16.14-17.28,28,0,0-22.93,22-51.34,14.18a.79.79,0,0,0-.92.44l-1.29,2.94A.79.79,0,0,0,53,644.4c1.47.24,4.25,1.16,6.83,4.63,3.71,5,18.42,6.57,18.42,6.57s29.86,3.14,50.14-19.42,9.42-42,6.42-45.71c-1.1-1.37-1.52-3,1.45-8a.78.78,0,0,0-.5-1.16,27.68,27.68,0,0,0-6.05-.78A.78.78,0,0,0,129.08,581.76Z"/><path class="cls-4" d="M82.09,656a38,38,0,0,1-3.84-.15c-.6-.06-14.85-1.63-18.57-6.65-2.54-3.42-5.28-4.32-6.69-4.55a1,1,0,0,1-.72-.51,1,1,0,0,1,0-.87l1.28-3a1,1,0,0,1,1.17-.56c14.61,4,27.73-.05,36.17-4.15a64.79,64.79,0,0,0,15-10c12.39-12.1,17.09-23.28,17.22-27.85.1-3.33,3-5,4.75-5.75a4.43,4.43,0,0,0,2.75-3.58,10.82,10.82,0,0,0-1.66-6.55,1,1,0,0,1,0-1,1,1,0,0,1,.85-.53,27.78,27.78,0,0,1,6.11.8,1,1,0,0,1,.69.57,1,1,0,0,1-.06.9c-3,5.07-2.44,6.49-1.46,7.71a30.24,30.24,0,0,1,5.56,15.9,34.36,34.36,0,0,1-2,13.87,49.08,49.08,0,0,1-10,16.21,56.36,56.36,0,0,1-16.46,12.6,63.7,63.7,0,0,1-16.33,5.64A69.56,69.56,0,0,1,82.09,656ZM54.44,640.12a.57.57,0,0,0-.52.34l-1.29,2.94a.58.58,0,0,0,0,.5.57.57,0,0,0,.41.29c1.47.24,4.33,1.17,7,4.71,3.62,4.87,18.13,6.47,18.28,6.49a63.64,63.64,0,0,0,17.41-1.25c9.08-1.85,22.1-6.5,32.54-18.11,8.58-9.55,12.58-19.56,11.89-29.76a29.92,29.92,0,0,0-5.47-15.66c-1.29-1.6-1.44-3.38,1.43-8.2a.57.57,0,0,0,0-.51.56.56,0,0,0-.4-.33,27.55,27.55,0,0,0-6-.78.58.58,0,0,0-.49.3.56.56,0,0,0,0,.56,11.3,11.3,0,0,1,1.72,6.81,4.89,4.89,0,0,1-3,3.94c-2,.82-4.39,2.43-4.48,5.36-.14,4.64-4.87,16-17.35,28.14A65,65,0,0,1,91.06,636a58,58,0,0,1-16.38,5.25,47.71,47.71,0,0,1-20.1-1.06A.36.36,0,0,0,54.44,640.12Z"/><path class="cls-4" d="M94.38,649.44c1.56-.39,3.08-.92,4.59-1.46a81.84,81.84,0,0,0,10.91-4.86,65.59,65.59,0,0,0,12.76-8.84,44.72,44.72,0,0,0,10.42-13.48A39.19,39.19,0,0,0,136.88,602c0-.89-.1-1.79-.19-2.68-.05-.55-.91-.55-.86,0a39.28,39.28,0,0,1-2.7,19.24,42.3,42.3,0,0,1-9.8,13.91,61.67,61.67,0,0,1-12.55,9.16,78.36,78.36,0,0,1-11.11,5.17c-1.22.46-2.44.88-3.68,1.27-.58.18-1.19.31-1.76.52l-.07,0a.42.42,0,0,0,.22.82Z"/><ellipse class="cls-4" cx="53.93" cy="642.21" rx="2.42" ry="1.12" transform="translate(-553.51 426.9) rotate(-65.68)"/><ellipse class="cls-4" cx="132.72" cy="581.54" rx="0.79" ry="3.73" transform="translate(-460.18 646.85) rotate(-83.43)"/><path class="cls-3" d="M246.52,30.18a11.06,11.06,0,0,1-.59,6.87,4.65,4.65,0,0,1-4,2.6c-2,.12-5.07.81-6.18,3.74-1.73,4.54-10.15,13.56-25.5,20.78,0,0-28.87,13.22-53.16-3.43a.77.77,0,0,0-1,.12l-2.18,2.35a.78.78,0,0,0,.2,1.22c1.3.71,3.63,2.49,4.93,6.62,1.87,5.94,15.25,12.24,15.25,12.24s27.17,12.76,53.73-1.91,22.67-36.59,21.06-41.08c-.6-1.65-.47-3.29,4-7A.78.78,0,0,0,253,32a27.78,27.78,0,0,0-5.46-2.73A.79.79,0,0,0,246.52,30.18Z"/><path class="cls-4" d="M200.06,88.65a66.61,66.61,0,0,1-8.86-.6,64.26,64.26,0,0,1-17-4.56c-.55-.26-13.49-6.42-15.37-12.38-1.28-4.06-3.57-5.81-4.82-6.49a1,1,0,0,1-.51-.71,1,1,0,0,1,.25-.84L156,60.71a1,1,0,0,1,1.29-.15c12.5,8.57,26.23,9,35.54,7.93A65.37,65.37,0,0,0,210.2,64c15.66-7.37,23.76-16.39,25.39-20.66,1.18-3.12,4.5-3.77,6.37-3.88A4.48,4.48,0,0,0,245.74,37a10.91,10.91,0,0,0,.57-6.73h0a1,1,0,0,1,1.28-1.15,27.46,27.46,0,0,1,5.51,2.75,1,1,0,0,1,.12,1.6c-4.51,3.8-4.44,5.33-3.91,6.8a30.33,30.33,0,0,1,0,16.85,34.24,34.24,0,0,1-6.41,12.45,48.86,48.86,0,0,1-14.78,12,56.62,56.62,0,0,1-19.68,6.52A61.59,61.59,0,0,1,200.06,88.65ZM156.69,60.82a.55.55,0,0,0-.41.18l-2.19,2.36a.56.56,0,0,0-.14.48.57.57,0,0,0,.29.4c1.31.71,3.71,2.53,5,6.74,1.82,5.79,15,12.06,15.14,12.12a64.18,64.18,0,0,0,16.86,4.53c9.19,1.22,23,1.11,36.68-6.44,11.24-6.21,18.3-14.36,21-24.23a29.91,29.91,0,0,0,0-16.59c-.7-1.92-.26-3.65,4-7.27a.56.56,0,0,0-.07-.91,27.54,27.54,0,0,0-5.41-2.7.58.58,0,0,0-.56.12.57.57,0,0,0-.17.53h0a11.23,11.23,0,0,1-.61,7A4.88,4.88,0,0,1,242,39.87c-2.16.13-4.95.85-6,3.6-1.65,4.33-9.83,13.48-25.61,20.9a65.62,65.62,0,0,1-17.54,4.54,57.86,57.86,0,0,1-17.19-.4A47.7,47.7,0,0,1,157,60.92.55.55,0,0,0,156.69,60.82Z"/><path class="cls-4" d="M191.59,82.76c1.6.13,3.21.13,4.81.12a81.94,81.94,0,0,0,11.91-1,64.94,64.94,0,0,0,15-4.18,44.72,44.72,0,0,0,14.24-9.33,39.09,39.09,0,0,0,9.73-16.43c.27-.88.5-1.76.72-2.66.12-.54-.7-.76-.83-.23a39.22,39.22,0,0,1-8.88,17.3,42.42,42.42,0,0,1-13.83,9.91,61.84,61.84,0,0,1-14.86,4.54A79.06,79.06,0,0,1,197.38,82c-1.29,0-2.59,0-3.89,0-.6,0-1.23-.12-1.82-.09h-.08c-.55,0-.55.81,0,.86Z"/><ellipse class="cls-4" cx="155.71" cy="62.66" rx="2.42" ry="1.12" transform="translate(3.13 132.61) rotate(-46.55)"/><ellipse class="cls-4" cx="250.04" cy="31.17" rx="0.79" ry="3.73" transform="translate(113.5 242.95) rotate(-64.29)"/><path class="cls-3" d="M247.05,30.27a11.15,11.15,0,0,1,.3,6.88,4.68,4.68,0,0,1-3.59,3.1c-2,.38-4.92,1.45-5.65,4.51-1.12,4.72-8.3,14.76-22.59,23.91,0,0-26.9,16.85-53.15,3.49a.78.78,0,0,0-1,.24L159.52,75a.78.78,0,0,0,.36,1.18c1.38.54,3.92,2,5.75,5.92,2.62,5.65,16.71,10.17,16.71,10.17s28.59,9.12,53-8.87S253.1,44.21,250.92,40c-.81-1.57-.9-3.21,3-7.49a.78.78,0,0,0-.25-1.24,28,28,0,0,0-5.77-2A.78.78,0,0,0,247.05,30.27Z"/><path class="cls-4" d="M199.91,94.82h-.22a63.67,63.67,0,0,1-17.42-2.33c-.58-.18-14.21-4.61-16.84-10.27-1.79-3.87-4.29-5.3-5.63-5.82a1,1,0,0,1-.59-.64,1,1,0,0,1,.14-.86l1.85-2.62a1,1,0,0,1,1.26-.32c13.5,6.88,27.17,5.57,36.26,3.26a65,65,0,0,0,16.69-6.73C230,59.15,236.85,49.15,237.9,44.71c.78-3.25,4-4.32,5.82-4.67a4.45,4.45,0,0,0,3.42-2.95,10.84,10.84,0,0,0-.3-6.75h0A1,1,0,0,1,248,29a28.6,28.6,0,0,1,5.82,2,1,1,0,0,1,.56.71,1,1,0,0,1-.24.87c-4,4.35-3.71,5.86-3,7.25a30.42,30.42,0,0,1,2.23,16.7,34.42,34.42,0,0,1-4.75,13.18,48.92,48.92,0,0,1-13.1,13.85,56.65,56.65,0,0,1-18.66,9A64.44,64.44,0,0,1,199.91,94.82ZM162,72.29a.57.57,0,0,0-.47.24l-1.85,2.62a.57.57,0,0,0-.08.49A.53.53,0,0,0,160,76c1.39.54,4,2,5.86,6,2.55,5.5,16.44,10,16.58,10.06a64.1,64.1,0,0,0,17.31,2.3c9.27,0,23-1.88,35.53-11.14,10.34-7.61,16.28-16.61,17.67-26.74a29.94,29.94,0,0,0-2.18-16.45c-.94-1.82-.73-3.59,3.06-7.73a.54.54,0,0,0,.13-.49.52.52,0,0,0-.32-.4,27,27,0,0,0-5.71-2,.56.56,0,0,0-.64.74h0a11.31,11.31,0,0,1,.3,7,4.88,4.88,0,0,1-3.75,3.24c-2.13.41-4.8,1.49-5.48,4.35-1.07,4.51-8,14.64-22.69,24a65.21,65.21,0,0,1-16.79,6.78,58.08,58.08,0,0,1-17.1,1.83,47.61,47.61,0,0,1-19.47-5.11A.57.57,0,0,0,162,72.29Z"/><path class="cls-4" d="M199.33,89.53c1.63-.08,3.25-.29,4.86-.52a80.78,80.78,0,0,0,11.62-2.54,65.27,65.27,0,0,0,14.34-6.1,44.68,44.68,0,0,0,12.93-11.12,39,39,0,0,0,7.52-17.67c.14-.88.26-1.77.35-2.65.06-.55-.8-.55-.86,0a39,39,0,0,1-6.57,18.26,42.19,42.19,0,0,1-12.44,11.62A61.82,61.82,0,0,1,217,85.22,80.84,80.84,0,0,1,205.07,88c-1.88.29-3.78.39-5.66.64h-.08c-.54,0-.55.88,0,.86Z"/><ellipse class="cls-4" cx="161.21" cy="74.24" rx="2.42" ry="1.12" transform="translate(6.38 161.02) rotate(-54)"/><ellipse class="cls-4" cx="250.66" cy="30.79" rx="0.79" ry="3.73" transform="translate(142.89 259.19) rotate(-71.74)"/><path class="cls-3" d="M248.53,30.54a11.14,11.14,0,0,1,1.69,6.68A4.66,4.66,0,0,1,247.33,41c-1.87.78-4.52,2.42-4.61,5.56-.15,4.85-5.15,16.14-17.29,28,0,0-22.93,22-51.34,14.18a.79.79,0,0,0-.92.44l-1.29,2.95a.78.78,0,0,0,.59,1.08c1.47.24,4.25,1.16,6.83,4.63,3.71,5,18.42,6.57,18.42,6.57s29.86,3.15,50.14-19.42,9.42-42,6.42-45.71c-1.1-1.36-1.52-3,1.45-7.94a.78.78,0,0,0-.5-1.16,27.65,27.65,0,0,0-6-.79A.78.78,0,0,0,248.53,30.54Z"/><path class="cls-4" d="M201.54,104.74c-2.39,0-3.81-.14-3.84-.14-.6-.07-14.85-1.64-18.57-6.66-2.54-3.42-5.28-4.32-6.69-4.55a1,1,0,0,1-.75-1.38L173,89.07a1,1,0,0,1,1.18-.57c14.6,4,27.72,0,36.16-4.15a64.79,64.79,0,0,0,15-10c12.39-12.1,17.09-23.28,17.22-27.85.1-3.33,3-5,4.75-5.75A4.43,4.43,0,0,0,250,37.2a10.82,10.82,0,0,0-1.66-6.55,1,1,0,0,1,.83-1.5,27.82,27.82,0,0,1,6.11.79,1,1,0,0,1,.63,1.48c-3,5.06-2.44,6.48-1.46,7.7A30.24,30.24,0,0,1,260,55a34.34,34.34,0,0,1-2,13.87A49,49,0,0,1,248,85.1a56.57,56.57,0,0,1-16.46,12.61,64.07,64.07,0,0,1-16.33,5.63A69.56,69.56,0,0,1,201.54,104.74ZM173.89,88.9a.57.57,0,0,0-.52.34l-1.29,2.94a.58.58,0,0,0,0,.5.57.57,0,0,0,.41.29c1.47.24,4.33,1.17,7,4.72,3.62,4.86,18.13,6.47,18.28,6.48a63.64,63.64,0,0,0,17.41-1.25c9.08-1.85,22.1-6.49,32.54-18.1,8.58-9.55,12.58-19.57,11.89-29.77a29.92,29.92,0,0,0-5.47-15.66c-1.29-1.59-1.44-3.37,1.43-8.19a.59.59,0,0,0,0-.52.57.57,0,0,0-.4-.32,27,27,0,0,0-6-.78.55.55,0,0,0-.49.29.56.56,0,0,0,0,.56,11.33,11.33,0,0,1,1.72,6.82,4.89,4.89,0,0,1-3,3.93c-2,.83-4.39,2.43-4.48,5.36-.14,4.64-4.87,16-17.35,28.15a65.49,65.49,0,0,1-15.07,10A58.31,58.31,0,0,1,194.13,90,47.71,47.71,0,0,1,174,88.92Z"/><path class="cls-4" d="M213.83,98.23c1.56-.4,3.08-.93,4.59-1.47a80.58,80.58,0,0,0,10.91-4.86,65.16,65.16,0,0,0,12.76-8.84,44.59,44.59,0,0,0,10.42-13.48,39.18,39.18,0,0,0,3.82-18.78c0-.9-.1-1.8-.19-2.69-.05-.54-.91-.55-.86,0a39.22,39.22,0,0,1-2.7,19.25,42.36,42.36,0,0,1-9.8,13.9,62.09,62.09,0,0,1-12.55,9.17,79.43,79.43,0,0,1-11.11,5.16c-1.22.46-2.44.89-3.68,1.27-.58.19-1.19.31-1.76.52l-.07,0a.43.43,0,0,0,.22.83Z"/><ellipse class="cls-4" cx="173.38" cy="90.99" rx="2.42" ry="1.12" transform="translate(19.07 211.52) rotate(-65.68)"/><ellipse class="cls-4" cx="252.17" cy="30.32" rx="0.79" ry="3.73" transform="translate(193.2 277.37) rotate(-83.43)"/><path class="cls-3" d="M246.52,581.4a11.06,11.06,0,0,1-.59,6.87,4.67,4.67,0,0,1-4,2.6c-2,.12-5.07.81-6.18,3.74-1.73,4.54-10.15,13.56-25.5,20.78,0,0-28.87,13.22-53.16-3.43a.78.78,0,0,0-1,.11l-2.18,2.36a.78.78,0,0,0,.2,1.22c1.3.7,3.63,2.49,4.93,6.61,1.87,5.94,15.25,12.25,15.25,12.25s27.17,12.75,53.73-1.92,22.67-36.58,21.06-41.07c-.6-1.66-.47-3.29,4-7a.77.77,0,0,0-.09-1.25,27.24,27.24,0,0,0-5.46-2.73A.78.78,0,0,0,246.52,581.4Z"/><path class="cls-4" d="M200.06,639.86a66.59,66.59,0,0,1-8.86-.59,64,64,0,0,1-17-4.57c-.55-.25-13.49-6.41-15.37-12.37-1.28-4.07-3.57-5.81-4.82-6.49a1,1,0,0,1-.26-1.55l2.18-2.36a1,1,0,0,1,1.29-.15c12.5,8.56,26.23,9,35.54,7.93a65.37,65.37,0,0,0,17.41-4.51c15.66-7.37,23.76-16.4,25.39-20.67,1.18-3.11,4.5-3.76,6.37-3.87a4.48,4.48,0,0,0,3.78-2.48,10.94,10.94,0,0,0,.57-6.74h0a1,1,0,0,1,.31-.93,1,1,0,0,1,1-.21A28,28,0,0,1,253.1,583a1,1,0,0,1,.47.78,1,1,0,0,1-.35.83c-4.51,3.8-4.44,5.32-3.91,6.8a30.29,30.29,0,0,1,0,16.84,34.2,34.2,0,0,1-6.41,12.46,49,49,0,0,1-14.78,12,56.4,56.4,0,0,1-19.68,6.51A61.59,61.59,0,0,1,200.06,639.86ZM156.69,612a.55.55,0,0,0-.41.18l-2.19,2.36a.55.55,0,0,0-.14.47.57.57,0,0,0,.29.41c1.31.71,3.71,2.53,5,6.74,1.82,5.78,15,12,15.14,12.12a64,64,0,0,0,16.86,4.52c9.19,1.23,23,1.11,36.68-6.43,11.24-6.21,18.3-14.36,21-24.23a29.91,29.91,0,0,0,0-16.59c-.7-1.93-.26-3.66,4-7.27a.57.57,0,0,0,.2-.47.53.53,0,0,0-.27-.44,27,27,0,0,0-5.41-2.71.58.58,0,0,0-.56.13.57.57,0,0,0-.17.53h0a11.24,11.24,0,0,1-.61,7,4.88,4.88,0,0,1-4.14,2.73c-2.16.12-4.95.85-6,3.6-1.65,4.33-9.83,13.47-25.61,20.9a65.62,65.62,0,0,1-17.54,4.54,58.19,58.19,0,0,1-17.19-.4,47.72,47.72,0,0,1-18.64-7.6A.62.62,0,0,0,156.69,612Z"/><path class="cls-4" d="M191.59,634c1.6.13,3.21.13,4.81.11a81.93,81.93,0,0,0,11.91-1,64.94,64.94,0,0,0,15-4.18,44.72,44.72,0,0,0,14.24-9.33,39.09,39.09,0,0,0,9.73-16.43c.27-.88.5-1.77.72-2.66.12-.54-.7-.77-.83-.23a39.13,39.13,0,0,1-8.88,17.29,42.44,42.44,0,0,1-13.83,9.92A62.3,62.3,0,0,1,209.57,632a79.06,79.06,0,0,1-12.19,1.23c-1.29,0-2.59,0-3.89,0-.6,0-1.23-.12-1.82-.09h-.08c-.55,0-.55.81,0,.86Z"/><ellipse class="cls-4" cx="155.71" cy="613.88" rx="2.42" ry="1.12" transform="translate(-397.02 304.72) rotate(-46.55)"/><ellipse class="cls-4" cx="250.04" cy="582.39" rx="0.79" ry="3.73" transform="translate(-383.17 555.08) rotate(-64.29)"/><path class="cls-3" d="M247.05,581.48a11.19,11.19,0,0,1,.3,6.89,4.69,4.69,0,0,1-3.59,3.1c-2,.38-4.92,1.45-5.65,4.5-1.12,4.73-8.3,14.77-22.59,23.92,0,0-26.9,16.85-53.15,3.48a.78.78,0,0,0-1,.25l-1.86,2.62a.78.78,0,0,0,.36,1.18c1.38.53,3.92,2,5.75,5.92,2.62,5.65,16.71,10.17,16.71,10.17s28.59,9.12,53-8.87,17.73-39.21,15.55-43.46c-.81-1.56-.9-3.2,3-7.49a.77.77,0,0,0-.25-1.23,27.38,27.38,0,0,0-5.77-2A.78.78,0,0,0,247.05,581.48Z"/><path class="cls-4" d="M199.91,646h-.22a64.4,64.4,0,0,1-17.42-2.32c-.58-.18-14.21-4.61-16.84-10.28-1.79-3.86-4.29-5.3-5.63-5.81a1,1,0,0,1-.45-1.5l1.85-2.62a1,1,0,0,1,1.26-.32c13.5,6.87,27.17,5.56,36.26,3.26a65.44,65.44,0,0,0,16.69-6.73c14.57-9.34,21.44-19.34,22.49-23.79.78-3.24,4-4.31,5.82-4.66a4.45,4.45,0,0,0,3.42-3,10.81,10.81,0,0,0-.3-6.74h0a1,1,0,0,1,1.12-1.31,28,28,0,0,1,5.82,2,1,1,0,0,1,.32,1.58c-4,4.35-3.71,5.85-3,7.25a30.42,30.42,0,0,1,2.23,16.7A34.48,34.48,0,0,1,248.59,621a48.76,48.76,0,0,1-13.1,13.84,56.45,56.45,0,0,1-18.66,9A64,64,0,0,1,199.91,646ZM162,623.5a.59.59,0,0,0-.47.24l-1.85,2.62a.59.59,0,0,0-.08.5.55.55,0,0,0,.34.36c1.39.54,4,2,5.86,6,2.55,5.5,16.44,10,16.58,10a63.37,63.37,0,0,0,17.31,2.31c9.27,0,23-1.89,35.53-11.14,10.34-7.62,16.28-16.61,17.67-26.74a29.94,29.94,0,0,0-2.18-16.45c-.94-1.82-.73-3.59,3.06-7.73a.57.57,0,0,0,.13-.5.54.54,0,0,0-.32-.4,27.55,27.55,0,0,0-5.71-2,.58.58,0,0,0-.54.2.53.53,0,0,0-.1.54h0a11.34,11.34,0,0,1,.3,7,4.88,4.88,0,0,1-3.75,3.24c-2.13.4-4.8,1.49-5.48,4.34-1.07,4.52-8,14.64-22.69,24.05a65.21,65.21,0,0,1-16.79,6.78,58.08,58.08,0,0,1-17.1,1.83,47.47,47.47,0,0,1-19.47-5.12A.57.57,0,0,0,162,623.5Z"/><path class="cls-4" d="M199.33,640.74c1.63-.07,3.25-.29,4.86-.51a80.78,80.78,0,0,0,11.62-2.54,65.27,65.27,0,0,0,14.34-6.1,44.71,44.71,0,0,0,12.93-11.13,39,39,0,0,0,7.52-17.66c.14-.88.26-1.77.35-2.66.06-.54-.8-.54-.86,0a39.1,39.1,0,0,1-6.57,18.27A42.16,42.16,0,0,1,231.08,630,61.85,61.85,0,0,1,217,636.44a80.81,80.81,0,0,1-11.89,2.79c-1.88.3-3.78.4-5.66.65h-.08c-.54,0-.55.88,0,.85Z"/><ellipse class="cls-4" cx="161.21" cy="625.46" rx="2.42" ry="1.12" transform="translate(-439.54 388.21) rotate(-54)"/><ellipse class="cls-4" cx="250.66" cy="582.01" rx="0.79" ry="3.73" transform="translate(-380.58 637.73) rotate(-71.74)"/><path class="cls-3" d="M248.53,581.76a11.14,11.14,0,0,1,1.69,6.68,4.66,4.66,0,0,1-2.89,3.76c-1.87.77-4.52,2.42-4.61,5.56-.15,4.85-5.15,16.14-17.29,28,0,0-22.93,22-51.34,14.18a.79.79,0,0,0-.92.44l-1.29,2.94a.79.79,0,0,0,.59,1.09c1.47.24,4.25,1.16,6.83,4.63,3.71,5,18.42,6.57,18.42,6.57s29.86,3.14,50.14-19.42,9.42-42,6.42-45.71c-1.1-1.37-1.52-3,1.45-8a.78.78,0,0,0-.5-1.16,27.68,27.68,0,0,0-6-.78A.78.78,0,0,0,248.53,581.76Z"/><path class="cls-4" d="M201.54,656a38,38,0,0,1-3.84-.15c-.6-.06-14.85-1.63-18.57-6.65-2.54-3.42-5.28-4.32-6.69-4.55a1,1,0,0,1-.72-.51,1,1,0,0,1,0-.87l1.28-3a1,1,0,0,1,1.18-.56c14.6,4,27.72-.05,36.16-4.15a64.79,64.79,0,0,0,15-10c12.39-12.1,17.09-23.28,17.22-27.85.1-3.33,3-5,4.75-5.75a4.43,4.43,0,0,0,2.75-3.58,10.82,10.82,0,0,0-1.66-6.55,1,1,0,0,1,0-1,1,1,0,0,1,.85-.53,27.78,27.78,0,0,1,6.11.8,1,1,0,0,1,.69.57,1,1,0,0,1-.06.9c-3,5.07-2.44,6.49-1.46,7.71a30.24,30.24,0,0,1,5.56,15.9,34.36,34.36,0,0,1-2,13.87,49.08,49.08,0,0,1-10,16.21,56.36,56.36,0,0,1-16.46,12.6,63.7,63.7,0,0,1-16.33,5.64A69.56,69.56,0,0,1,201.54,656Zm-27.65-15.84a.57.57,0,0,0-.52.34l-1.29,2.94a.58.58,0,0,0,0,.5.57.57,0,0,0,.41.29c1.47.24,4.33,1.17,7,4.71,3.62,4.87,18.13,6.47,18.28,6.49a63.64,63.64,0,0,0,17.41-1.25c9.08-1.85,22.1-6.5,32.54-18.11,8.58-9.55,12.58-19.56,11.89-29.76a29.92,29.92,0,0,0-5.47-15.66c-1.29-1.6-1.44-3.38,1.43-8.2a.57.57,0,0,0,0-.51.56.56,0,0,0-.4-.33,27.55,27.55,0,0,0-6-.78.58.58,0,0,0-.49.3.56.56,0,0,0,0,.56,11.3,11.3,0,0,1,1.72,6.81,4.89,4.89,0,0,1-3,3.94c-2,.82-4.39,2.43-4.48,5.36-.14,4.64-4.87,16-17.35,28.14A65,65,0,0,1,210.51,636a58,58,0,0,1-16.38,5.25,47.71,47.71,0,0,1-20.1-1.06A.34.34,0,0,0,173.89,640.12Z"/><path class="cls-4" d="M213.83,649.44c1.56-.39,3.08-.92,4.59-1.46a81.84,81.84,0,0,0,10.91-4.86,65.59,65.59,0,0,0,12.76-8.84,44.72,44.72,0,0,0,10.42-13.48A39.19,39.19,0,0,0,256.33,602c0-.89-.1-1.79-.19-2.68-.05-.55-.91-.55-.86,0a39.16,39.16,0,0,1-2.7,19.24,42.3,42.3,0,0,1-9.8,13.91,61.67,61.67,0,0,1-12.55,9.16,78.36,78.36,0,0,1-11.11,5.17c-1.22.46-2.44.88-3.68,1.27-.58.18-1.19.31-1.76.52l-.07,0a.42.42,0,0,0,.22.82Z"/><ellipse class="cls-4" cx="173.38" cy="642.21" rx="2.42" ry="1.12" transform="translate(-483.25 535.75) rotate(-65.68)"/><ellipse class="cls-4" cx="252.17" cy="581.54" rx="0.79" ry="3.73" transform="translate(-354.4 765.52) rotate(-83.43)"/><g id="Manzana"><ellipse class="cls-5" cx="95.43" cy="209.94" rx="26.4" ry="31.14"/><ellipse class="cls-5" cx="111.75" cy="209.94" rx="26.4" ry="31.14"/><path class="cls-6" d="M103.48,183.1s-2.26-9.43,3.36-14.11c0,.14,0,2.09,0,2.09s-3.78,1.82-1.65,12C105.16,183.1,104.82,184.36,103.48,183.1Z"/><path class="cls-7" d="M95.77,168.29h.14a8,8,0,0,1,8,8v.14a0,0,0,0,1,0,0h-.14a8,8,0,0,1-8-8v-.14A0,0,0,0,1,95.77,168.29Z"/><path class="cls-8" d="M95.49,178.83s-31.17,24.46,0,62.19c0,0-24.6.56-26.42-31a32.61,32.61,0,0,1,3.83-16.22c2.82-5.4,6.93-10.48,13.64-13.13S95.49,178.83,95.49,178.83Z"/></g><g id="Manzana-2" data-name="Manzana"><ellipse class="cls-5" cx="211.29" cy="209.94" rx="26.4" ry="31.14"/><ellipse class="cls-5" cx="227.61" cy="209.94" rx="26.4" ry="31.14"/><path class="cls-6" d="M219.34,183.1s-2.26-9.43,3.35-14.11c0,.14,0,2.09,0,2.09s-3.77,1.82-1.65,12C221,183.1,220.68,184.36,219.34,183.1Z"/><path class="cls-7" d="M211.62,168.29h.14a8,8,0,0,1,8,8v.14a0,0,0,0,1,0,0h-.14a8,8,0,0,1-8-8v-.14A0,0,0,0,1,211.62,168.29Z"/><path class="cls-8" d="M211.34,178.83s-31.17,24.46,0,62.19c0,0-24.6.56-26.41-31a32.48,32.48,0,0,1,3.83-16.22c2.82-5.4,6.93-10.48,13.64-13.13S211.34,178.83,211.34,178.83Z"/></g><g id="Naranja"><circle class="cls-9" cx="103.67" cy="346.79" r="33.56"/><path class="cls-10" d="M125,364.08a26.21,26.21,0,0,0,3.64-6.38,29.92,29.92,0,0,0,2.14-15.83,31.71,31.71,0,0,0-4.15-11.48.62.62,0,0,0-1.07.63,29.13,29.13,0,0,1,4,18.65,30.39,30.39,0,0,1-4.16,11.61c-.31.5-.63,1-1,1.48l-.31.41c0-.05.07-.08,0,0-.5.62.37,1.5.88.88Z"/><circle class="cls-11" cx="85.78" cy="330.28" r="2.64"/><circle class="cls-11" cx="81.06" cy="337.64" r="2.08"/><circle class="cls-11" cx="87.1" cy="336.87" r="1.32"/><path class="cls-7" d="M91.88,304.63H92a8.86,8.86,0,0,1,8.86,8.86v.15a0,0,0,0,1,0,0h-.15a8.86,8.86,0,0,1-8.86-8.86v-.15A0,0,0,0,1,91.88,304.63Z"/><path class="cls-7" d="M109.76,304.63h.15a0,0,0,0,1,0,0v.15a8.86,8.86,0,0,1-8.86,8.86h-.15a0,0,0,0,1,0,0v-.15A8.86,8.86,0,0,1,109.76,304.63Z" transform="translate(210.8 618.27) rotate(180)"/></g><g id="Naranja-2" data-name="Naranja"><circle class="cls-9" cx="218.56" cy="346.79" r="33.56"/><path class="cls-10" d="M239.87,364.08a26.21,26.21,0,0,0,3.64-6.38,29.92,29.92,0,0,0,2.14-15.83,31.69,31.69,0,0,0-4.14-11.48.63.63,0,0,0-1.08.63,29.2,29.2,0,0,1,4,18.65,30.24,30.24,0,0,1-4.17,11.61c-.31.5-.63,1-1,1.48l-.3.41c0-.05.06-.08,0,0-.5.62.38,1.5.88.88Z"/><circle class="cls-11" cx="200.67" cy="330.28" r="2.64"/><circle class="cls-11" cx="195.95" cy="337.64" r="2.08"/><circle class="cls-11" cx="201.99" cy="336.87" r="1.32"/><path class="cls-7" d="M206.77,304.63h.15a8.86,8.86,0,0,1,8.86,8.86v.15a0,0,0,0,1,0,0h-.15a8.86,8.86,0,0,1-8.86-8.86v-.15A0,0,0,0,1,206.77,304.63Z"/><path class="cls-7" d="M224.65,304.63h.15a0,0,0,0,1,0,0v.15a8.86,8.86,0,0,1-8.86,8.86h-.15a0,0,0,0,1,0,0v-.15A8.86,8.86,0,0,1,224.65,304.63Z" transform="translate(440.59 618.27) rotate(180)"/></g><g id="Pera"><circle class="cls-12" cx="100.78" cy="496.91" r="21.95"/><circle class="cls-12" cx="100.78" cy="474.25" r="14.87"/><path class="cls-13" d="M100.08,463.63l3.08-21.53,3.8-.38S104.33,444,101.08,464Z"/><path class="cls-14" d="M118,443.61s-8.4-4.56-13.78,3.17C104.26,446.78,109.5,457,118,443.61Z"/><path class="cls-15" d="M100,459.39a18.82,18.82,0,0,0-7.46,2.66A14.57,14.57,0,0,0,87,479.83h0c-11.71,10.71-10.29,26.29,1,34.79.6.45,7.19,4.25,11.33,4.25h0l-.15-.23a53.63,53.63,0,0,1,.48-58.84Z"/></g><g id="Pera-2" data-name="Pera"><circle class="cls-12" cx="216.39" cy="496.91" r="21.95"/><circle class="cls-12" cx="216.39" cy="474.25" r="14.87"/><path class="cls-13" d="M215.7,463.63l3.07-21.53,3.8-.38S220,444,216.69,464Z"/><path class="cls-14" d="M233.66,443.61s-8.41-4.56-13.78,3.17C219.88,446.78,225.11,457,233.66,443.61Z"/><path class="cls-15" d="M215.58,459.39a18.78,18.78,0,0,0-7.45,2.66,14.58,14.58,0,0,0-5.53,17.78h0c-11.7,10.71-10.29,26.29,1,34.79.61.45,7.2,4.25,11.34,4.25h0l-.15-.23a53.63,53.63,0,0,1,.48-58.84Z"/></g><g id="Manzana-3" data-name="Manzana"><ellipse class="cls-5" cx="95.43" cy="761.16" rx="26.4" ry="31.14"/><ellipse class="cls-5" cx="111.75" cy="761.16" rx="26.4" ry="31.14"/><path class="cls-6" d="M103.48,734.32s-2.26-9.43,3.36-14.12c0,.14,0,2.1,0,2.1s-3.78,1.82-1.65,12C105.16,734.32,104.82,735.58,103.48,734.32Z"/><path class="cls-7" d="M95.77,719.51h.14a8,8,0,0,1,8,8v.14a0,0,0,0,1,0,0h-.14a8,8,0,0,1-8-8v-.14A0,0,0,0,1,95.77,719.51Z"/><path class="cls-8" d="M95.49,730.05s-31.17,24.45,0,62.19c0,0-24.6.56-26.42-31A32.61,32.61,0,0,1,72.9,745c2.82-5.39,6.93-10.47,13.64-13.13S95.49,730.05,95.49,730.05Z"/></g><g id="Manzana-4" data-name="Manzana"><ellipse class="cls-5" cx="211.29" cy="761.16" rx="26.4" ry="31.14"/><ellipse class="cls-5" cx="227.61" cy="761.16" rx="26.4" ry="31.14"/><path class="cls-6" d="M219.34,734.32s-2.26-9.43,3.35-14.12c0,.14,0,2.1,0,2.1s-3.77,1.82-1.65,12C221,734.32,220.68,735.58,219.34,734.32Z"/><path class="cls-7" d="M211.62,719.51h.14a8,8,0,0,1,8,8v.14a0,0,0,0,1,0,0h-.14a8,8,0,0,1-8-8v-.14A0,0,0,0,1,211.62,719.51Z"/><path class="cls-8" d="M211.34,730.05s-31.17,24.45,0,62.19c0,0-24.6.56-26.41-31A32.48,32.48,0,0,1,188.76,745c2.82-5.39,6.93-10.47,13.64-13.13S211.34,730.05,211.34,730.05Z"/></g><path class="cls-3" d="M644.47,132.4a9.57,9.57,0,0,1-.51,5.94,4.06,4.06,0,0,1-3.43,2.26c-1.75.1-4.39.69-5.35,3.23-1.5,3.93-8.78,11.74-22.07,18,0,0-25,11.44-46-3a.67.67,0,0,0-.88.1l-1.88,2a.67.67,0,0,0,.17,1,9.4,9.4,0,0,1,4.27,5.73c1.62,5.14,13.2,10.6,13.2,10.6s23.52,11,46.5-1.66S648.1,145,646.71,141.16c-.52-1.44-.41-2.85,3.43-6.09a.68.68,0,0,0-.08-1.09,23.86,23.86,0,0,0-4.72-2.36A.67.67,0,0,0,644.47,132.4Z"/><path class="cls-4" d="M604.26,183a57,57,0,0,1-7.67-.52,55.41,55.41,0,0,1-14.69-3.95c-.48-.22-11.67-5.55-13.3-10.71a9.2,9.2,0,0,0-4.18-5.62.87.87,0,0,1-.44-.61.88.88,0,0,1,.22-.73l1.89-2a.86.86,0,0,1,1.11-.13c10.82,7.41,22.7,7.82,30.77,6.86a55.92,55.92,0,0,0,15.06-3.9c13.56-6.38,20.57-14.19,22-17.89,1-2.69,3.89-3.25,5.51-3.35a3.86,3.86,0,0,0,3.27-2.15,9.43,9.43,0,0,0,.5-5.82h0a.84.84,0,0,1,.26-.81.87.87,0,0,1,.84-.19,24.36,24.36,0,0,1,4.77,2.38.85.85,0,0,1,.41.67.84.84,0,0,1-.31.72c-3.9,3.29-3.84,4.61-3.38,5.88a26.28,26.28,0,0,1,0,14.59,29.73,29.73,0,0,1-5.55,10.78,42.41,42.41,0,0,1-12.8,10.41,49,49,0,0,1-17,5.64A53.24,53.24,0,0,1,604.26,183Zm-37.54-24.09a.52.52,0,0,0-.36.16l-1.89,2a.47.47,0,0,0-.12.41.5.5,0,0,0,.25.36,9.54,9.54,0,0,1,4.35,5.83c1.58,5,13,10.43,13.11,10.49a55.33,55.33,0,0,0,14.59,3.92c8,1.06,19.92,1,31.74-5.58,9.73-5.37,15.84-12.42,18.17-21a25.86,25.86,0,0,0,0-14.36c-.6-1.67-.22-3.17,3.49-6.29a.52.52,0,0,0,.18-.41.51.51,0,0,0-.23-.38,23.29,23.29,0,0,0-4.69-2.34.47.47,0,0,0-.48.1.5.5,0,0,0-.15.46h0a9.79,9.79,0,0,1-.53,6.06,4.2,4.2,0,0,1-3.58,2.36c-1.87.11-4.28.74-5.19,3.12-1.42,3.75-8.51,11.66-22.17,18.09A56.46,56.46,0,0,1,598,165.92a50.13,50.13,0,0,1-14.88-.35A41.2,41.2,0,0,1,567,159,.49.49,0,0,0,566.72,158.91Z"/><path class="cls-4" d="M596.92,177.9a41.46,41.46,0,0,0,4.17.1,71,71,0,0,0,10.3-.88,56,56,0,0,0,13-3.62,38.65,38.65,0,0,0,12.33-8.08,33.86,33.86,0,0,0,8.42-14.21c.23-.76.43-1.53.62-2.31.11-.46-.61-.66-.72-.2a33.86,33.86,0,0,1-7.68,15,36.66,36.66,0,0,1-12,8.58,53.59,53.59,0,0,1-12.86,3.93,69.22,69.22,0,0,1-10.55,1.07c-1.12,0-2.25,0-3.37,0-.52,0-1.06-.1-1.58-.07h-.07c-.47,0-.47.7,0,.74Z"/><ellipse class="cls-4" cx="565.87" cy="160.51" rx="2.09" ry="0.97" transform="translate(60.17 460.91) rotate(-46.55)"/><ellipse class="cls-4" cx="647.51" cy="133.26" rx="0.68" ry="3.22" transform="translate(246.59 658.89) rotate(-64.29)"/><path class="cls-3" d="M644.92,132.47a9.56,9.56,0,0,1,.26,6,4,4,0,0,1-3.1,2.68c-1.72.33-4.26,1.26-4.89,3.9-1,4.09-7.19,12.78-19.55,20.7,0,0-23.29,14.58-46,3a.66.66,0,0,0-.85.21l-1.61,2.27a.67.67,0,0,0,.31,1,9.35,9.35,0,0,1,5,5.12c2.27,4.89,14.47,8.8,14.47,8.8s24.75,7.9,45.89-7.67,15.35-33.94,13.46-37.61c-.69-1.36-.77-2.78,2.62-6.49a.67.67,0,0,0-.22-1.07,23.65,23.65,0,0,0-5-1.72A.67.67,0,0,0,644.92,132.47Z"/><path class="cls-4" d="M604.12,188.34h-.18a55.77,55.77,0,0,1-15.08-2c-.5-.16-12.3-4-14.57-8.9a9.25,9.25,0,0,0-4.88-5,.82.82,0,0,1-.51-.55.84.84,0,0,1,.12-.75l1.61-2.27a.87.87,0,0,1,1.09-.27c11.68,5.95,23.51,4.81,31.38,2.82a56.18,56.18,0,0,0,14.44-5.83C630.15,157.47,636.1,148.82,637,145c.67-2.81,3.44-3.74,5-4a3.87,3.87,0,0,0,3-2.56,9.43,9.43,0,0,0-.26-5.84h0a.83.83,0,0,1,.15-.83.87.87,0,0,1,.81-.3,24.47,24.47,0,0,1,5,1.74.88.88,0,0,1,.49.62.86.86,0,0,1-.21.75c-3.44,3.76-3.21,5.07-2.59,6.27a26.38,26.38,0,0,1,1.93,14.46,29.87,29.87,0,0,1-4.11,11.4,42.39,42.39,0,0,1-11.34,12,48.75,48.75,0,0,1-16.15,7.79A55.1,55.1,0,0,1,604.12,188.34Zm-32.79-19.5a.48.48,0,0,0-.4.21l-1.61,2.26a.5.5,0,0,0,.23.75,9.55,9.55,0,0,1,5.07,5.22c2.21,4.75,14.23,8.66,14.35,8.7a55.69,55.69,0,0,0,15,2c8,0,19.88-1.63,30.75-9.64,8.95-6.59,14.1-14.38,15.3-23.15A25.94,25.94,0,0,0,648.11,141c-.81-1.58-.63-3.11,2.65-6.69a.48.48,0,0,0,.11-.43.49.49,0,0,0-.27-.35,23.63,23.63,0,0,0-5-1.71.5.5,0,0,0-.47.17.47.47,0,0,0-.08.47h0a9.88,9.88,0,0,1,.26,6.08,4.22,4.22,0,0,1-3.25,2.8c-1.84.35-4.15,1.29-4.74,3.76-.93,3.91-6.92,12.68-19.63,20.82a57,57,0,0,1-14.54,5.86,50.11,50.11,0,0,1-14.8,1.59,41.25,41.25,0,0,1-16.85-4.43A.59.59,0,0,0,571.33,168.84Z"/><path class="cls-4" d="M603.63,183.76c1.4-.07,2.81-.25,4.2-.45a69.14,69.14,0,0,0,10.06-2.2,56.55,56.55,0,0,0,12.41-5.27,38.74,38.74,0,0,0,11.19-9.63A33.82,33.82,0,0,0,648,150.92c.12-.76.22-1.53.3-2.3.05-.47-.69-.47-.74,0a33.92,33.92,0,0,1-5.69,15.81,36.59,36.59,0,0,1-10.76,10A53.75,53.75,0,0,1,618.88,180a68.36,68.36,0,0,1-10.29,2.42c-1.63.26-3.27.34-4.9.56h-.06c-.48,0-.48.76,0,.74Z"/><ellipse class="cls-4" cx="570.63" cy="170.53" rx="2.09" ry="0.97" transform="translate(97.24 531.92) rotate(-54)"/><ellipse class="cls-4" cx="648.05" cy="132.93" rx="0.68" ry="3.22" transform="translate(318.8 706.72) rotate(-71.74)"/><path class="cls-3" d="M646.2,132.71a9.58,9.58,0,0,1,1.47,5.78,4.08,4.08,0,0,1-2.5,3.26c-1.62.66-3.92,2.09-4,4.8-.12,4.21-4.45,14-14.95,24.23,0,0-19.85,19-44.44,12.28a.68.68,0,0,0-.8.38L579.87,186a.67.67,0,0,0,.51.94,9.39,9.39,0,0,1,5.91,4c3.21,4.33,15.94,5.69,15.94,5.69s25.84,2.72,43.39-16.81,8.16-36.35,5.57-39.56c-1-1.19-1.32-2.56,1.25-6.88a.68.68,0,0,0-.43-1,23.29,23.29,0,0,0-5.24-.68A.68.68,0,0,0,646.2,132.71Z"/><path class="cls-4" d="M605.54,196.93a32.66,32.66,0,0,1-3.33-.13c-.52-.05-12.85-1.41-16.07-5.76a9.18,9.18,0,0,0-5.79-3.93.89.89,0,0,1-.62-.44.85.85,0,0,1,0-.76l1.11-2.55a.86.86,0,0,1,1-.48c12.64,3.45,24,0,31.3-3.6a56,56,0,0,0,13-8.63c10.72-10.47,14.78-20.15,14.9-24.1.08-2.89,2.61-4.36,4.11-5a3.84,3.84,0,0,0,2.38-3.1,9.49,9.49,0,0,0-1.43-5.67.84.84,0,0,1,0-.85.86.86,0,0,1,.73-.45,24.52,24.52,0,0,1,5.29.69.86.86,0,0,1,.55,1.27c-2.61,4.39-2.12,5.62-1.27,6.67a26.32,26.32,0,0,1,4.82,13.77,29.88,29.88,0,0,1-1.71,12,42.53,42.53,0,0,1-8.68,14,49,49,0,0,1-14.24,10.91,55.74,55.74,0,0,1-14.14,4.88A60.47,60.47,0,0,1,605.54,196.93ZM581.6,183.22a.49.49,0,0,0-.45.29L580,186.06a.47.47,0,0,0,0,.43.51.51,0,0,0,.35.25,9.61,9.61,0,0,1,6,4.08c3.13,4.22,15.69,5.6,15.81,5.62a55.72,55.72,0,0,0,15.07-1.09,51.38,51.38,0,0,0,28.17-15.67c7.42-8.26,10.89-16.93,10.29-25.76A25.78,25.78,0,0,0,651,140.37c-1.11-1.38-1.24-2.92,1.24-7.09a.51.51,0,0,0,0-.45.48.48,0,0,0-.34-.28,23.84,23.84,0,0,0-5.19-.68.54.54,0,0,0-.43.26.48.48,0,0,0,0,.48,9.82,9.82,0,0,1,1.49,5.9,4.23,4.23,0,0,1-2.61,3.41c-1.73.71-3.81,2.1-3.88,4.64-.12,4-4.21,13.81-15,24.36a56.93,56.93,0,0,1-13.05,8.69,50.15,50.15,0,0,1-14.18,4.55,41.21,41.21,0,0,1-17.39-.93Z"/><path class="cls-4" d="M616.18,191.29c1.34-.34,2.66-.8,4-1.27a71,71,0,0,0,9.44-4.2,56.48,56.48,0,0,0,11-7.66,38.65,38.65,0,0,0,9-11.66A33.92,33.92,0,0,0,653,150.24c0-.78-.09-1.55-.17-2.33,0-.47-.78-.47-.74,0a34,34,0,0,1-2.33,16.66,36.75,36.75,0,0,1-8.49,12,53.88,53.88,0,0,1-10.86,7.94,68.26,68.26,0,0,1-9.62,4.47c-1,.4-2.11.76-3.18,1.1-.5.16-1,.26-1.52.45l-.07,0c-.46.11-.27.83.2.71Z"/><ellipse class="cls-4" cx="581.16" cy="185.03" rx="2.09" ry="0.97" transform="translate(173.23 638.44) rotate(-65.68)"/><ellipse class="cls-4" cx="649.36" cy="132.52" rx="0.68" ry="3.22" transform="translate(443.41 762.45) rotate(-83.43)"/><path class="cls-3" d="M644.47,533.34a9.6,9.6,0,0,1-.51,5.95,4.07,4.07,0,0,1-3.43,2.25c-1.75.1-4.39.7-5.35,3.23-1.5,3.93-8.78,11.74-22.07,18,0,0-25,11.44-46-3a.67.67,0,0,0-.88.1l-1.88,2a.67.67,0,0,0,.17,1.05,9.43,9.43,0,0,1,4.27,5.73c1.62,5.14,13.2,10.6,13.2,10.6s23.52,11,46.5-1.66S648.1,546,646.71,542.1c-.52-1.43-.41-2.85,3.43-6.09a.68.68,0,0,0-.08-1.09,23.86,23.86,0,0,0-4.72-2.36A.68.68,0,0,0,644.47,533.34Z"/><path class="cls-4" d="M604.26,583.94a58.69,58.69,0,0,1-7.67-.51,55.87,55.87,0,0,1-14.69-3.95c-.48-.23-11.67-5.55-13.3-10.71a9.2,9.2,0,0,0-4.18-5.62.91.91,0,0,1-.44-.62.89.89,0,0,1,.22-.73l1.89-2a.86.86,0,0,1,1.11-.12c10.82,7.41,22.7,7.82,30.77,6.86A56.13,56.13,0,0,0,613,562.59c13.56-6.37,20.57-14.19,22-17.88,1-2.7,3.89-3.26,5.51-3.35a3.88,3.88,0,0,0,3.27-2.15,9.46,9.46,0,0,0,.5-5.83h0a.85.85,0,0,1,.26-.81.84.84,0,0,1,.84-.18,23.81,23.81,0,0,1,4.77,2.37.87.87,0,0,1,.41.67.84.84,0,0,1-.31.72c-3.9,3.29-3.84,4.61-3.38,5.89a26.25,26.25,0,0,1,0,14.58,29.73,29.73,0,0,1-5.55,10.78,42.41,42.41,0,0,1-12.8,10.41,48.76,48.76,0,0,1-17,5.64A53.24,53.24,0,0,1,604.26,583.94Zm-37.54-24.08a.48.48,0,0,0-.36.16l-1.89,2a.47.47,0,0,0-.12.41.48.48,0,0,0,.25.35,9.58,9.58,0,0,1,4.35,5.83c1.58,5,13,10.44,13.11,10.49a54.87,54.87,0,0,0,14.59,3.92c8,1.06,19.92,1,31.74-5.57,9.73-5.38,15.84-12.43,18.17-21a25.88,25.88,0,0,0,0-14.36c-.6-1.66-.22-3.16,3.49-6.29a.49.49,0,0,0,.18-.41.51.51,0,0,0-.23-.38,23.83,23.83,0,0,0-4.69-2.34.5.5,0,0,0-.48.11.47.47,0,0,0-.15.45h0a9.82,9.82,0,0,1-.53,6.07,4.24,4.24,0,0,1-3.58,2.36c-1.87.1-4.28.73-5.19,3.11-1.42,3.75-8.51,11.67-22.17,18.09A56,56,0,0,1,598,566.86a50.47,50.47,0,0,1-14.88-.34A41.22,41.22,0,0,1,567,559.94.57.57,0,0,0,566.72,559.86Z"/><path class="cls-4" d="M596.92,578.85c1.39.11,2.78.11,4.17.1a69.62,69.62,0,0,0,10.3-.89,56,56,0,0,0,13-3.62,38.79,38.79,0,0,0,12.33-8.07,33.9,33.9,0,0,0,8.42-14.22c.23-.76.43-1.53.62-2.3.11-.47-.61-.67-.72-.2a34,34,0,0,1-7.68,15,36.81,36.81,0,0,1-12,8.58,53.59,53.59,0,0,1-12.86,3.93,69.21,69.21,0,0,1-10.55,1.06c-1.12,0-2.25,0-3.37,0-.52,0-1.06-.11-1.58-.08h-.07c-.47,0-.47.71,0,.75Z"/><ellipse class="cls-4" cx="565.87" cy="561.45" rx="2.09" ry="0.97" transform="translate(-230.89 586.11) rotate(-46.55)"/><ellipse class="cls-4" cx="647.51" cy="534.2" rx="0.68" ry="3.22" transform="translate(-114.67 885.93) rotate(-64.29)"/><path class="cls-3" d="M644.92,533.42a9.55,9.55,0,0,1,.26,6,4.06,4.06,0,0,1-3.1,2.68c-1.72.32-4.26,1.25-4.89,3.9-1,4.09-7.19,12.77-19.55,20.69,0,0-23.29,14.59-46,3a.67.67,0,0,0-.85.21l-1.61,2.27a.67.67,0,0,0,.31,1,9.34,9.34,0,0,1,5,5.13c2.27,4.89,14.47,8.8,14.47,8.8s24.75,7.89,45.89-7.68,15.35-33.94,13.46-37.61c-.69-1.35-.77-2.77,2.62-6.48a.67.67,0,0,0-.22-1.07,24.22,24.22,0,0,0-5-1.73A.68.68,0,0,0,644.92,533.42Z"/><path class="cls-4" d="M604.12,589.28h-.18a55.3,55.3,0,0,1-15.08-2c-.5-.16-12.3-4-14.57-8.89a9.18,9.18,0,0,0-4.88-5A.87.87,0,0,1,569,572l1.61-2.26a.86.86,0,0,1,1.09-.28c11.68,6,23.51,4.82,31.38,2.82a56.38,56.38,0,0,0,14.44-5.82c12.61-8.08,18.56-16.74,19.47-20.59.67-2.8,3.44-3.73,5-4a3.84,3.84,0,0,0,3-2.55,9.43,9.43,0,0,0-.26-5.84h0a.86.86,0,0,1,.15-.84.84.84,0,0,1,.81-.29,23.89,23.89,0,0,1,5,1.74.87.87,0,0,1,.49.61.86.86,0,0,1-.21.75c-3.44,3.77-3.21,5.07-2.59,6.28a26.32,26.32,0,0,1,1.93,14.45,29.92,29.92,0,0,1-4.11,11.41,42.23,42.23,0,0,1-11.34,12,48.77,48.77,0,0,1-16.15,7.8A55.51,55.51,0,0,1,604.12,589.28Zm-32.79-19.5a.5.5,0,0,0-.4.21l-1.61,2.27a.49.49,0,0,0,.23.74,9.59,9.59,0,0,1,5.07,5.22c2.21,4.76,14.23,8.66,14.35,8.7a55.21,55.21,0,0,0,15,2,51.34,51.34,0,0,0,30.75-9.64c8.95-6.59,14.1-14.37,15.3-23.14a25.9,25.9,0,0,0-1.89-14.23c-.81-1.58-.63-3.11,2.65-6.7a.48.48,0,0,0,.11-.43.47.47,0,0,0-.27-.34,24.21,24.21,0,0,0-5-1.72.52.52,0,0,0-.47.17.47.47,0,0,0-.08.47h0a9.88,9.88,0,0,1,.26,6.08,4.23,4.23,0,0,1-3.25,2.81c-1.84.35-4.15,1.29-4.74,3.76-.93,3.9-6.92,12.67-19.63,20.81a56.35,56.35,0,0,1-14.54,5.87,50.43,50.43,0,0,1-14.8,1.58,41.24,41.24,0,0,1-16.85-4.42A.46.46,0,0,0,571.33,569.78Z"/><path class="cls-4" d="M603.63,584.7c1.4-.06,2.81-.25,4.2-.44a70.48,70.48,0,0,0,10.06-2.2,56.58,56.58,0,0,0,12.41-5.28,38.74,38.74,0,0,0,11.19-9.63A33.82,33.82,0,0,0,648,551.86c.12-.76.22-1.53.3-2.29.05-.48-.69-.47-.74,0a33.84,33.84,0,0,1-5.69,15.8,36.75,36.75,0,0,1-10.76,10.06A54.18,54.18,0,0,1,618.88,581a69.6,69.6,0,0,1-10.29,2.42c-1.63.25-3.27.34-4.9.56h-.06c-.48,0-.48.77,0,.74Z"/><ellipse class="cls-4" cx="570.63" cy="571.48" rx="2.09" ry="0.97" transform="translate(-227.12 697.18) rotate(-54)"/><ellipse class="cls-4" cx="648.05" cy="533.87" rx="0.68" ry="3.22" transform="translate(-61.96 982.06) rotate(-71.74)"/><path class="cls-3" d="M646.2,533.65a9.59,9.59,0,0,1,1.47,5.79,4.05,4.05,0,0,1-2.5,3.25c-1.62.67-3.92,2.09-4,4.81-.12,4.2-4.45,14-14.95,24.23,0,0-19.85,19-44.44,12.27a.68.68,0,0,0-.8.38l-1.11,2.55a.68.68,0,0,0,.51.94,9.31,9.31,0,0,1,5.91,4c3.21,4.32,15.94,5.68,15.94,5.68s25.84,2.72,43.39-16.81,8.16-36.34,5.57-39.56c-1-1.18-1.32-2.56,1.25-6.88a.68.68,0,0,0-.43-1,24.5,24.5,0,0,0-5.24-.68A.68.68,0,0,0,646.2,533.65Z"/><path class="cls-4" d="M605.54,597.87c-2.07,0-3.3-.12-3.33-.12-.52-.06-12.85-1.42-16.07-5.76a9.21,9.21,0,0,0-5.79-3.94.83.83,0,0,1-.62-.44.85.85,0,0,1,0-.76l1.11-2.54a.87.87,0,0,1,1-.49c12.64,3.46,24-.05,31.3-3.6a56,56,0,0,0,13-8.63c10.72-10.46,14.78-20.14,14.9-24.1.08-2.88,2.61-4.35,4.11-5a3.87,3.87,0,0,0,2.38-3.1,9.47,9.47,0,0,0-1.43-5.67.84.84,0,0,1,0-.85.86.86,0,0,1,.73-.45,24,24,0,0,1,5.29.68.84.84,0,0,1,.6.5.86.86,0,0,1,0,.78c-2.61,4.38-2.12,5.61-1.27,6.67a26.31,26.31,0,0,1,4.82,13.76,29.85,29.85,0,0,1-1.71,12,42.67,42.67,0,0,1-8.68,14,48.81,48.81,0,0,1-14.24,10.9,55,55,0,0,1-14.14,4.88A59.7,59.7,0,0,1,605.54,597.87ZM581.6,584.16a.49.49,0,0,0-.45.3L580,587a.47.47,0,0,0,0,.43.45.45,0,0,0,.35.25,9.59,9.59,0,0,1,6,4.09c3.13,4.21,15.69,5.6,15.81,5.61a55,55,0,0,0,15.07-1.08,51.38,51.38,0,0,0,28.17-15.67c7.42-8.27,10.89-16.94,10.29-25.76A25.78,25.78,0,0,0,651,541.31c-1.11-1.38-1.24-2.92,1.24-7.09a.49.49,0,0,0-.31-.73,23.87,23.87,0,0,0-5.19-.67.49.49,0,0,0-.43.26.48.48,0,0,0,0,.48,9.8,9.8,0,0,1,1.49,5.9,4.23,4.23,0,0,1-2.61,3.4c-1.73.72-3.81,2.1-3.88,4.64-.12,4-4.21,13.81-15,24.36a56.56,56.56,0,0,1-13.05,8.69,50.15,50.15,0,0,1-14.18,4.55,41.21,41.21,0,0,1-17.39-.92Z"/><path class="cls-4" d="M616.18,592.23c1.34-.34,2.66-.8,4-1.26a71.1,71.1,0,0,0,9.44-4.21,56.43,56.43,0,0,0,11-7.65,38.69,38.69,0,0,0,9-11.67A33.92,33.92,0,0,0,653,551.18c0-.77-.09-1.55-.17-2.32,0-.47-.78-.48-.74,0a33.94,33.94,0,0,1-2.33,16.65,36.89,36.89,0,0,1-8.49,12,53.83,53.83,0,0,1-10.86,7.93,68.26,68.26,0,0,1-9.62,4.47q-1.57.6-3.18,1.11c-.5.15-1,.26-1.52.44l-.07,0a.37.37,0,0,0,.2.71Z"/><ellipse class="cls-4" cx="581.16" cy="585.97" rx="2.09" ry="0.97" transform="translate(-192.14 874.28) rotate(-65.68)"/><ellipse class="cls-4" cx="649.36" cy="533.46" rx="0.68" ry="3.22" transform="translate(45.1 1117.52) rotate(-83.43)"/><path class="cls-3" d="M747.85,132.4a9.57,9.57,0,0,1-.51,5.94,4,4,0,0,1-3.43,2.26c-1.74.1-4.38.69-5.35,3.23-1.49,3.93-8.78,11.74-22.07,18,0,0-25,11.44-46-3a.66.66,0,0,0-.87.1l-1.89,2a.67.67,0,0,0,.18,1,9.4,9.4,0,0,1,4.26,5.73c1.62,5.14,13.2,10.6,13.2,10.6s23.52,11,46.51-1.66,19.62-31.67,18.22-35.55c-.52-1.44-.41-2.85,3.44-6.09a.68.68,0,0,0-.08-1.09,24.24,24.24,0,0,0-4.73-2.36A.68.68,0,0,0,747.85,132.4Z"/><path class="cls-4" d="M707.64,183a57,57,0,0,1-7.67-.52,55.11,55.11,0,0,1-14.68-3.95c-.48-.22-11.68-5.55-13.3-10.71a9.24,9.24,0,0,0-4.18-5.62.82.82,0,0,1-.44-.61.85.85,0,0,1,.21-.73l1.89-2a.87.87,0,0,1,1.12-.13c10.81,7.41,22.7,7.82,30.76,6.86a55.92,55.92,0,0,0,15.06-3.9c13.56-6.38,20.57-14.19,22-17.89,1-2.69,3.89-3.25,5.51-3.35a3.85,3.85,0,0,0,3.27-2.15,9.43,9.43,0,0,0,.5-5.82h0a.87.87,0,0,1,.26-.81.88.88,0,0,1,.85-.19,24.93,24.93,0,0,1,4.77,2.38.87.87,0,0,1,.4.67.86.86,0,0,1-.3.72c-3.91,3.29-3.84,4.61-3.39,5.88a26.28,26.28,0,0,1,0,14.59,29.73,29.73,0,0,1-5.55,10.78A42.36,42.36,0,0,1,732,176.87a49.09,49.09,0,0,1-17,5.64A53.13,53.13,0,0,1,707.64,183Zm-37.53-24.09a.52.52,0,0,0-.37.16l-1.88,2a.48.48,0,0,0-.13.41.53.53,0,0,0,.25.36,9.55,9.55,0,0,1,4.36,5.83c1.57,5,13,10.43,13.1,10.49A55.48,55.48,0,0,0,700,182.12c8,1.06,19.92,1,31.75-5.58,9.73-5.37,15.84-12.42,18.16-21a25.89,25.89,0,0,0,0-14.36c-.61-1.67-.23-3.17,3.49-6.29a.51.51,0,0,0,.17-.41.48.48,0,0,0-.23-.38,23.46,23.46,0,0,0-4.68-2.34.48.48,0,0,0-.63.56h0a9.79,9.79,0,0,1-.53,6.06,4.23,4.23,0,0,1-3.59,2.36c-1.86.11-4.28.74-5.18,3.12-1.43,3.75-8.51,11.66-22.17,18.09a56.75,56.75,0,0,1-15.18,3.93,50.14,50.14,0,0,1-14.88-.35A41.27,41.27,0,0,1,670.38,159,.46.46,0,0,0,670.11,158.91Z"/><path class="cls-4" d="M700.31,177.9a41.27,41.27,0,0,0,4.16.1,71.25,71.25,0,0,0,10.31-.88,56.24,56.24,0,0,0,13-3.62,38.61,38.61,0,0,0,12.32-8.08,33.76,33.76,0,0,0,8.42-14.21c.23-.76.44-1.53.62-2.31.11-.46-.6-.66-.71-.2a33.88,33.88,0,0,1-7.69,15,36.45,36.45,0,0,1-12,8.58,53.45,53.45,0,0,1-12.86,3.93,69.09,69.09,0,0,1-10.55,1.07c-1.12,0-2.24,0-3.37,0-.51,0-1.06-.1-1.57-.07h-.07c-.48,0-.47.7,0,.74Z"/><ellipse class="cls-4" cx="669.26" cy="160.51" rx="2.09" ry="0.97" transform="translate(92.45 535.96) rotate(-46.55)"/><ellipse class="cls-4" cx="750.9" cy="133.26" rx="0.68" ry="3.22" transform="translate(305.13 752.04) rotate(-64.29)"/><path class="cls-3" d="M748.31,132.47a9.63,9.63,0,0,1,.26,6,4,4,0,0,1-3.11,2.68c-1.72.33-4.26,1.26-4.89,3.9-1,4.09-7.18,12.78-19.55,20.7,0,0-23.28,14.58-46,3a.67.67,0,0,0-.86.21l-1.61,2.27a.68.68,0,0,0,.32,1,9.41,9.41,0,0,1,5,5.12c2.27,4.89,14.46,8.8,14.46,8.8s24.75,7.9,45.9-7.67,15.35-33.94,13.46-37.61c-.7-1.36-.78-2.78,2.62-6.49a.68.68,0,0,0-.22-1.07,23.85,23.85,0,0,0-5-1.72A.67.67,0,0,0,748.31,132.47Z"/><path class="cls-4" d="M707.51,188.34h-.19a55.65,55.65,0,0,1-15.07-2c-.51-.16-12.3-4-14.58-8.9a9.28,9.28,0,0,0-4.87-5,.86.86,0,0,1-.4-1.3l1.61-2.27a.87.87,0,0,1,1.09-.27c11.68,5.95,23.51,4.81,31.38,2.82a56,56,0,0,0,14.44-5.83c12.62-8.08,18.56-16.73,19.47-20.58.67-2.81,3.44-3.74,5-4a3.86,3.86,0,0,0,3-2.56,9.43,9.43,0,0,0-.26-5.84h0a.86.86,0,0,1,.15-.83.89.89,0,0,1,.82-.3,24.58,24.58,0,0,1,5,1.74.86.86,0,0,1,.49.62.84.84,0,0,1-.21.75c-3.44,3.76-3.21,5.07-2.59,6.27a26.29,26.29,0,0,1,1.93,14.46,29.69,29.69,0,0,1-4.1,11.4,42.53,42.53,0,0,1-11.34,12,48.8,48.8,0,0,1-16.16,7.79A55.08,55.08,0,0,1,707.51,188.34Zm-32.8-19.5a.49.49,0,0,0-.4.21l-1.6,2.26a.47.47,0,0,0-.07.43.49.49,0,0,0,.29.32,9.53,9.53,0,0,1,5.08,5.22c2.21,4.75,14.23,8.66,14.35,8.7a55.47,55.47,0,0,0,15,2c8,0,19.88-1.63,30.76-9.64,8.95-6.59,14.09-14.38,15.29-23.15A25.84,25.84,0,0,0,751.49,141c-.81-1.58-.63-3.11,2.65-6.69a.48.48,0,0,0,.12-.43.5.5,0,0,0-.28-.35,23.43,23.43,0,0,0-5-1.71.49.49,0,0,0-.55.64h0a9.73,9.73,0,0,1,.26,6.08,4.2,4.2,0,0,1-3.25,2.8c-1.83.35-4.15,1.29-4.73,3.76-.93,3.91-6.93,12.68-19.64,20.82a57,57,0,0,1-14.54,5.86,50,50,0,0,1-14.8,1.59,41.33,41.33,0,0,1-16.85-4.43A.54.54,0,0,0,674.71,168.84Z"/><path class="cls-4" d="M707,183.76c1.41-.07,2.81-.25,4.2-.45a69.14,69.14,0,0,0,10.06-2.2,56.34,56.34,0,0,0,12.41-5.27,38.61,38.61,0,0,0,11.19-9.63,33.71,33.71,0,0,0,6.51-15.29c.13-.76.23-1.53.31-2.3,0-.47-.7-.47-.75,0a33.91,33.91,0,0,1-5.68,15.81,36.5,36.5,0,0,1-10.77,10A53.87,53.87,0,0,1,722.27,180,68.65,68.65,0,0,1,712,182.45c-1.63.26-3.27.34-4.9.56H707c-.47,0-.48.76,0,.74Z"/><ellipse class="cls-4" cx="674.02" cy="170.53" rx="2.09" ry="0.97" transform="translate(139.85 615.56) rotate(-54)"/><ellipse class="cls-4" cx="751.44" cy="132.93" rx="0.68" ry="3.22" transform="translate(389.8 804.9) rotate(-71.74)"/><path class="cls-3" d="M749.59,132.71a9.58,9.58,0,0,1,1.46,5.78,4,4,0,0,1-2.5,3.26c-1.62.66-3.91,2.09-4,4.8-.13,4.21-4.45,14-15,24.23,0,0-19.85,19-44.44,12.28a.66.66,0,0,0-.79.38L683.25,186a.68.68,0,0,0,.51.94,9.39,9.39,0,0,1,5.91,4c3.22,4.33,16,5.69,16,5.69s25.83,2.72,43.39-16.81,8.16-36.35,5.56-39.56c-1-1.19-1.32-2.56,1.25-6.88a.67.67,0,0,0-.43-1,23.21,23.21,0,0,0-5.24-.68A.67.67,0,0,0,749.59,132.71Z"/><path class="cls-4" d="M708.92,196.93a32.33,32.33,0,0,1-3.32-.13c-.52-.05-12.85-1.41-16.08-5.76a9.18,9.18,0,0,0-5.79-3.93.87.87,0,0,1-.61-.44.88.88,0,0,1,0-.76l1.12-2.55a.85.85,0,0,1,1-.48c12.64,3.45,24,0,31.3-3.6a56,56,0,0,0,13-8.63c10.72-10.47,14.79-20.15,14.9-24.1.09-2.89,2.61-4.36,4.11-5a3.85,3.85,0,0,0,2.39-3.1,9.48,9.48,0,0,0-1.44-5.67.84.84,0,0,1,0-.85.88.88,0,0,1,.74-.45,24.42,24.42,0,0,1,5.28.69.86.86,0,0,1,.55,1.27c-2.61,4.39-2.12,5.62-1.26,6.67a26.33,26.33,0,0,1,4.81,13.77,29.7,29.7,0,0,1-1.71,12,42.33,42.33,0,0,1-8.67,14,49,49,0,0,1-14.24,10.91,55.74,55.74,0,0,1-14.14,4.88A60.63,60.63,0,0,1,708.92,196.93ZM685,183.22a.49.49,0,0,0-.45.29l-1.12,2.55a.5.5,0,0,0,0,.43.51.51,0,0,0,.35.25,9.58,9.58,0,0,1,6,4.08c3.13,4.22,15.69,5.6,15.82,5.62a55.72,55.72,0,0,0,15.07-1.09,51.39,51.39,0,0,0,28.16-15.67c7.43-8.26,10.89-16.93,10.29-25.76a25.88,25.88,0,0,0-4.73-13.55c-1.12-1.38-1.25-2.92,1.23-7.09a.51.51,0,0,0,0-.45.48.48,0,0,0-.34-.28,23.84,23.84,0,0,0-5.19-.68.51.51,0,0,0-.42.26.46.46,0,0,0,0,.48,9.89,9.89,0,0,1,1.49,5.9,4.24,4.24,0,0,1-2.62,3.41c-1.73.71-3.8,2.1-3.88,4.64-.11,4-4.21,13.81-15,24.36a56.65,56.65,0,0,1-13.05,8.69,50.19,50.19,0,0,1-14.17,4.55,41.26,41.26,0,0,1-17.4-.93Z"/><path class="cls-4" d="M719.56,191.29a41.67,41.67,0,0,0,4-1.27,70.47,70.47,0,0,0,9.44-4.2,56.48,56.48,0,0,0,11-7.66,38.65,38.65,0,0,0,9-11.66,33.93,33.93,0,0,0,3.32-16.26c0-.78-.09-1.55-.17-2.33,0-.47-.79-.47-.74,0a34.12,34.12,0,0,1-2.34,16.66,36.45,36.45,0,0,1-8.49,12,53.32,53.32,0,0,1-10.86,7.94,68.14,68.14,0,0,1-9.61,4.47c-1.06.4-2.12.76-3.19,1.1-.5.16-1,.26-1.52.45l-.07,0c-.46.11-.26.83.2.71Z"/><ellipse class="cls-4" cx="684.55" cy="185.03" rx="2.09" ry="0.97" transform="translate(234.05 732.65) rotate(-65.68)"/><ellipse class="cls-4" cx="752.75" cy="132.52" rx="0.68" ry="3.22" transform="translate(534.96 865.16) rotate(-83.43)"/><path class="cls-3" d="M747.85,533.34a9.6,9.6,0,0,1-.51,5.95,4,4,0,0,1-3.43,2.25c-1.74.1-4.38.7-5.35,3.23-1.49,3.93-8.78,11.74-22.07,18,0,0-25,11.44-46-3a.66.66,0,0,0-.87.1l-1.89,2a.67.67,0,0,0,.18,1.05,9.43,9.43,0,0,1,4.26,5.73c1.62,5.14,13.2,10.6,13.2,10.6s23.52,11,46.51-1.66S751.49,546,750.09,542.1c-.52-1.43-.41-2.85,3.44-6.09a.68.68,0,0,0-.08-1.09,24.24,24.24,0,0,0-4.73-2.36A.68.68,0,0,0,747.85,533.34Z"/><path class="cls-4" d="M707.64,583.94a58.69,58.69,0,0,1-7.67-.51,55.56,55.56,0,0,1-14.68-3.95c-.48-.23-11.68-5.55-13.3-10.71a9.24,9.24,0,0,0-4.18-5.62.88.88,0,0,1-.23-1.35l1.89-2a.87.87,0,0,1,1.12-.12c10.81,7.41,22.7,7.82,30.76,6.86a56.13,56.13,0,0,0,15.06-3.91c13.56-6.37,20.57-14.19,22-17.88,1-2.7,3.89-3.26,5.51-3.35a3.87,3.87,0,0,0,3.27-2.15,9.46,9.46,0,0,0,.5-5.83h0a.88.88,0,0,1,.26-.81.85.85,0,0,1,.85-.18,24.36,24.36,0,0,1,4.77,2.37.88.88,0,0,1,.4.67.86.86,0,0,1-.3.72c-3.91,3.29-3.84,4.61-3.39,5.89a26.25,26.25,0,0,1,0,14.58,29.73,29.73,0,0,1-5.55,10.78A42.36,42.36,0,0,1,732,577.81a48.88,48.88,0,0,1-17,5.64A53.13,53.13,0,0,1,707.64,583.94Zm-37.53-24.08a.49.49,0,0,0-.37.16l-1.88,2a.48.48,0,0,0-.13.41.51.51,0,0,0,.25.35,9.58,9.58,0,0,1,4.36,5.83c1.57,5,13,10.44,13.1,10.49A55,55,0,0,0,700,583.06c8,1.06,19.92,1,31.75-5.57,9.73-5.38,15.84-12.43,18.16-21a25.9,25.9,0,0,0,0-14.36c-.61-1.66-.23-3.16,3.49-6.29a.49.49,0,0,0-.06-.79,24,24,0,0,0-4.68-2.34.52.52,0,0,0-.49.11.47.47,0,0,0-.14.45h0a9.82,9.82,0,0,1-.53,6.07,4.27,4.27,0,0,1-3.59,2.36c-1.86.1-4.28.73-5.18,3.11-1.43,3.75-8.51,11.67-22.17,18.09a56.3,56.3,0,0,1-15.18,3.93,50.48,50.48,0,0,1-14.88-.34,41.28,41.28,0,0,1-16.13-6.58A.53.53,0,0,0,670.11,559.86Z"/><path class="cls-4" d="M700.31,578.85c1.38.11,2.78.11,4.16.1a69.88,69.88,0,0,0,10.31-.89,56.24,56.24,0,0,0,13-3.62,38.75,38.75,0,0,0,12.32-8.07,33.79,33.79,0,0,0,8.42-14.22c.23-.76.44-1.53.62-2.3.11-.47-.6-.67-.71-.2a34,34,0,0,1-7.69,15,36.6,36.6,0,0,1-12,8.58,53.45,53.45,0,0,1-12.86,3.93,69.08,69.08,0,0,1-10.55,1.06c-1.12,0-2.24,0-3.37,0-.51,0-1.06-.11-1.57-.08h-.07c-.48,0-.47.71,0,.75Z"/><ellipse class="cls-4" cx="669.26" cy="561.45" rx="2.09" ry="0.97" transform="translate(-198.61 661.16) rotate(-46.55)"/><ellipse class="cls-4" cx="750.9" cy="534.2" rx="0.68" ry="3.22" transform="translate(-56.13 979.08) rotate(-64.29)"/><path class="cls-3" d="M748.31,533.42a9.62,9.62,0,0,1,.26,6,4.07,4.07,0,0,1-3.11,2.68c-1.72.32-4.26,1.25-4.89,3.9-1,4.09-7.18,12.77-19.55,20.69,0,0-23.28,14.59-46,3a.68.68,0,0,0-.86.21l-1.61,2.27a.67.67,0,0,0,.32,1,9.4,9.4,0,0,1,5,5.13c2.27,4.89,14.46,8.8,14.46,8.8s24.75,7.89,45.9-7.68,15.35-33.94,13.46-37.61c-.7-1.35-.78-2.77,2.62-6.48a.68.68,0,0,0-.22-1.07,24.43,24.43,0,0,0-5-1.73A.68.68,0,0,0,748.31,533.42Z"/><path class="cls-4" d="M707.51,589.28h-.19a55.17,55.17,0,0,1-15.07-2c-.51-.16-12.3-4-14.58-8.89a9.2,9.2,0,0,0-4.87-5,.87.87,0,0,1-.4-1.31l1.61-2.26a.86.86,0,0,1,1.09-.28c11.68,6,23.51,4.82,31.38,2.82a56.18,56.18,0,0,0,14.44-5.82c12.62-8.08,18.56-16.74,19.47-20.59.67-2.8,3.44-3.73,5-4a3.83,3.83,0,0,0,3-2.55,9.43,9.43,0,0,0-.26-5.84h0a.88.88,0,0,1,.15-.84.86.86,0,0,1,.82-.29,24,24,0,0,1,5,1.74.84.84,0,0,1,.49.61.83.83,0,0,1-.21.75c-3.44,3.77-3.21,5.07-2.59,6.28a26.23,26.23,0,0,1,1.93,14.45,29.73,29.73,0,0,1-4.1,11.41,42.37,42.37,0,0,1-11.34,12,48.82,48.82,0,0,1-16.16,7.8A55.49,55.49,0,0,1,707.51,589.28Zm-32.8-19.5a.52.52,0,0,0-.4.21l-1.6,2.27a.45.45,0,0,0-.07.42.47.47,0,0,0,.29.32,9.56,9.56,0,0,1,5.08,5.22c2.21,4.76,14.23,8.66,14.35,8.7a55,55,0,0,0,15,2,51.38,51.38,0,0,0,30.76-9.64c8.95-6.59,14.09-14.37,15.29-23.14a25.8,25.8,0,0,0-1.89-14.23c-.81-1.58-.63-3.11,2.65-6.7a.48.48,0,0,0-.16-.77,24,24,0,0,0-5-1.72.5.5,0,0,0-.46.17.47.47,0,0,0-.09.47h0a9.74,9.74,0,0,1,.26,6.08,4.21,4.21,0,0,1-3.25,2.81c-1.83.35-4.15,1.29-4.73,3.76-.93,3.9-6.93,12.67-19.64,20.81a56.35,56.35,0,0,1-14.54,5.87,50.36,50.36,0,0,1-14.8,1.58,41.32,41.32,0,0,1-16.85-4.42A.43.43,0,0,0,674.71,569.78Z"/><path class="cls-4" d="M707,584.7c1.41-.06,2.81-.25,4.2-.44a70.48,70.48,0,0,0,10.06-2.2,56.38,56.38,0,0,0,12.41-5.28,38.61,38.61,0,0,0,11.19-9.63,33.71,33.71,0,0,0,6.51-15.29c.13-.76.23-1.53.31-2.29,0-.48-.7-.47-.75,0a33.83,33.83,0,0,1-5.68,15.8,36.67,36.67,0,0,1-10.77,10.06A54.31,54.31,0,0,1,722.27,581,69.89,69.89,0,0,1,712,583.4c-1.63.25-3.27.34-4.9.56H707c-.47,0-.48.77,0,.74Z"/><ellipse class="cls-4" cx="674.02" cy="571.48" rx="2.09" ry="0.97" transform="translate(-184.51 780.81) rotate(-54)"/><ellipse class="cls-4" cx="751.44" cy="533.87" rx="0.68" ry="3.22" transform="translate(9.04 1080.24) rotate(-71.74)"/><path class="cls-3" d="M749.59,533.65a9.59,9.59,0,0,1,1.46,5.79,4,4,0,0,1-2.5,3.25c-1.62.67-3.91,2.09-4,4.81-.13,4.2-4.45,14-15,24.23,0,0-19.85,19-44.44,12.27a.66.66,0,0,0-.79.38l-1.12,2.55a.69.69,0,0,0,.51.94,9.31,9.31,0,0,1,5.91,4c3.22,4.32,16,5.68,16,5.68s25.83,2.72,43.39-16.81,8.16-36.34,5.56-39.56c-1-1.18-1.32-2.56,1.25-6.88a.67.67,0,0,0-.43-1,24.41,24.41,0,0,0-5.24-.68A.68.68,0,0,0,749.59,533.65Z"/><path class="cls-4" d="M708.92,597.87c-2.07,0-3.29-.12-3.32-.12-.52-.06-12.85-1.42-16.08-5.76a9.21,9.21,0,0,0-5.79-3.94.82.82,0,0,1-.61-.44.88.88,0,0,1,0-.76l1.12-2.54a.86.86,0,0,1,1-.49c12.64,3.46,24-.05,31.3-3.6a56,56,0,0,0,13-8.63c10.72-10.46,14.79-20.14,14.9-24.1.09-2.88,2.61-4.35,4.11-5a3.88,3.88,0,0,0,2.39-3.1,9.46,9.46,0,0,0-1.44-5.67.84.84,0,0,1,0-.85.88.88,0,0,1,.74-.45,23.85,23.85,0,0,1,5.28.68.84.84,0,0,1,.6.5.86.86,0,0,1,0,.78c-2.61,4.38-2.12,5.61-1.26,6.67a26.33,26.33,0,0,1,4.81,13.76,29.68,29.68,0,0,1-1.71,12,42.47,42.47,0,0,1-8.67,14,48.81,48.81,0,0,1-14.24,10.9,55,55,0,0,1-14.14,4.88A59.85,59.85,0,0,1,708.92,597.87ZM685,584.16a.49.49,0,0,0-.45.3L683.42,587a.5.5,0,0,0,0,.43.45.45,0,0,0,.35.25,9.57,9.57,0,0,1,6,4.09c3.13,4.21,15.69,5.6,15.82,5.61a55,55,0,0,0,15.07-1.08,51.39,51.39,0,0,0,28.16-15.67c7.43-8.27,10.89-16.94,10.29-25.76a25.88,25.88,0,0,0-4.73-13.56c-1.12-1.38-1.25-2.92,1.23-7.09a.49.49,0,0,0-.31-.73,23.87,23.87,0,0,0-5.19-.67.47.47,0,0,0-.42.26.46.46,0,0,0,0,.48,9.87,9.87,0,0,1,1.49,5.9,4.24,4.24,0,0,1-2.62,3.4c-1.73.72-3.8,2.1-3.88,4.64-.11,4-4.21,13.81-15,24.36a56.28,56.28,0,0,1-13.05,8.69,50.19,50.19,0,0,1-14.17,4.55,41.26,41.26,0,0,1-17.4-.92Z"/><path class="cls-4" d="M719.56,592.23c1.35-.34,2.67-.8,4-1.26a70.52,70.52,0,0,0,9.44-4.21,56.43,56.43,0,0,0,11-7.65,38.69,38.69,0,0,0,9-11.67,33.93,33.93,0,0,0,3.32-16.26c0-.77-.09-1.55-.17-2.32,0-.47-.79-.48-.74,0a34.06,34.06,0,0,1-2.34,16.65,36.6,36.6,0,0,1-8.49,12,53.27,53.27,0,0,1-10.86,7.93,68.14,68.14,0,0,1-9.61,4.47c-1.06.4-2.12.77-3.19,1.11-.5.15-1,.26-1.52.44l-.07,0a.37.37,0,0,0,.2.71Z"/><ellipse class="cls-4" cx="684.55" cy="585.97" rx="2.09" ry="0.97" transform="translate(-131.33 968.49) rotate(-65.68)"/><ellipse class="cls-4" cx="752.75" cy="533.46" rx="0.68" ry="3.22" transform="translate(136.65 1220.22) rotate(-83.43)"/><g id="Manzana-5" data-name="Manzana"><ellipse class="cls-5" cx="617.08" cy="268.94" rx="22.85" ry="26.95"/><ellipse class="cls-5" cx="631.21" cy="268.94" rx="22.85" ry="26.95"/><path class="cls-6" d="M624.05,245.72s-2-8.17,2.9-12.22c0,.12,0,1.81,0,1.81s-3.27,1.58-1.43,10.41C625.5,245.72,625.21,246.81,624.05,245.72Z"/><path class="cls-7" d="M617.37,232.9h.85a6.16,6.16,0,0,1,6.16,6.16v.85a0,0,0,0,1,0,0h-.85a6.16,6.16,0,0,1-6.16-6.16v-.85A0,0,0,0,1,617.37,232.9Z"/><path class="cls-8" d="M617.13,242s-27,21.17,0,53.83c0,0-21.29.48-22.86-26.86a28.08,28.08,0,0,1,3.32-14c2.44-4.68,6-9.07,11.8-11.37S617.13,242,617.13,242Z"/></g><g id="Manzana-6" data-name="Manzana"><ellipse class="cls-5" cx="717.36" cy="268.94" rx="22.85" ry="26.95"/><ellipse class="cls-5" cx="731.48" cy="268.94" rx="22.85" ry="26.95"/><path class="cls-6" d="M724.33,245.72s-2-8.17,2.9-12.22c0,.12,0,1.81,0,1.81s-3.26,1.58-1.42,10.41C725.78,245.72,725.49,246.81,724.33,245.72Z"/><path class="cls-7" d="M717.65,232.9h.85a6.16,6.16,0,0,1,6.16,6.16v.85a0,0,0,0,1,0,0h-.85a6.16,6.16,0,0,1-6.16-6.16v-.85A0,0,0,0,1,717.65,232.9Z"/><path class="cls-8" d="M717.4,242s-27,21.17,0,53.83c0,0-21.29.48-22.86-26.86a28.22,28.22,0,0,1,3.32-14c2.44-4.68,6-9.07,11.8-11.37S717.4,242,717.4,242Z"/></g><g id="Naranja-3" data-name="Naranja"><circle class="cls-9" cx="624.21" cy="368.35" r="29.05"/><path class="cls-10" d="M642.66,383.32a23.06,23.06,0,0,0,3.15-5.52,26,26,0,0,0,1.85-13.71,27.39,27.39,0,0,0-3.59-9.93.54.54,0,0,0-.93.55,25.17,25.17,0,0,1,3.48,16.13,26.16,26.16,0,0,1-3.6,10.05c-.26.44-.54.87-.84,1.28l-.26.36,0,0c-.44.53.32,1.3.76.76Z"/><circle class="cls-11" cx="608.73" cy="354.07" r="2.28"/><circle class="cls-11" cx="604.65" cy="360.43" r="1.8"/><circle class="cls-11" cx="609.87" cy="359.77" r="1.14"/><path class="cls-7" d="M614,331.86H615a6.85,6.85,0,0,1,6.85,6.85v.95a0,0,0,0,1,0,0h-.95a6.85,6.85,0,0,1-6.85-6.85v-.95A0,0,0,0,1,614,331.86Z"/><path class="cls-7" d="M628.67,331.86h.95a0,0,0,0,1,0,0v.95a6.85,6.85,0,0,1-6.85,6.85h-.95a0,0,0,0,1,0,0v-.95A6.85,6.85,0,0,1,628.67,331.86Z" transform="matrix(-1, 0, 0, -1, 1251.43, 671.53)"/></g><g id="Naranja-4" data-name="Naranja"><circle class="cls-9" cx="723.65" cy="368.35" r="29.05"/><path class="cls-10" d="M742.1,383.32a23.06,23.06,0,0,0,3.15-5.52,26,26,0,0,0,1.85-13.71,27.39,27.39,0,0,0-3.59-9.93.54.54,0,0,0-.93.55,25.17,25.17,0,0,1,3.48,16.13,26.16,26.16,0,0,1-3.6,10.05c-.27.44-.54.87-.84,1.28l-.26.36,0,0c-.44.53.32,1.3.76.76Z"/><circle class="cls-11" cx="708.17" cy="354.07" r="2.28"/><circle class="cls-11" cx="704.09" cy="360.43" r="1.8"/><circle class="cls-11" cx="709.31" cy="359.77" r="1.14"/><path class="cls-7" d="M713.45,331.86h.95a6.85,6.85,0,0,1,6.85,6.85v.95a0,0,0,0,1,0,0h-.95a6.85,6.85,0,0,1-6.85-6.85v-.95A0,0,0,0,1,713.45,331.86Z"/><path class="cls-7" d="M728.11,331.86h.95a0,0,0,0,1,0,0v.95a6.85,6.85,0,0,1-6.85,6.85h-.95a0,0,0,0,1,0,0v-.95A6.85,6.85,0,0,1,728.11,331.86Z" transform="translate(1450.31 671.53) rotate(180)"/></g><g id="Pera-3" data-name="Pera"><circle class="cls-12" cx="621.71" cy="479.25" r="19"/><circle class="cls-12" cx="621.71" cy="459.64" r="12.87"/><path class="cls-13" d="M621.11,450.44l2.66-18.63,3.29-.33s-2.27,1.95-5.09,19.25Z"/><path class="cls-14" d="M636.65,433.12s-7.27-3.94-11.92,2.74C624.73,435.86,629.26,444.67,636.65,433.12Z"/><path class="cls-15" d="M621,446.78a16.07,16.07,0,0,0-6.45,2.3,12.6,12.6,0,0,0-4.78,15.39h0c-10.14,9.27-8.91,22.75.9,30.11.52.39,6.22,3.67,9.8,3.67h0l-.13-.2a46.42,46.42,0,0,1,.42-50.92Z"/></g><g id="Pera-4" data-name="Pera"><circle class="cls-12" cx="721.78" cy="479.25" r="19"/><circle class="cls-12" cx="721.78" cy="459.64" r="12.87"/><path class="cls-13" d="M721.18,450.44l2.66-18.63,3.28-.33s-2.27,1.95-5.08,19.25Z"/><path class="cls-14" d="M736.72,433.12s-7.27-3.94-11.93,2.74C724.79,435.86,729.32,444.67,736.72,433.12Z"/><path class="cls-15" d="M721.08,446.78a16.11,16.11,0,0,0-6.46,2.3,12.62,12.62,0,0,0-4.78,15.39h0c-10.13,9.27-8.91,22.75.9,30.11.52.39,6.23,3.67,9.81,3.67h0l-.13-.2a46.38,46.38,0,0,1,.42-50.92C721,446.9,721.08,446.78,721.08,446.78Z"/></g><g id="Manzana-7" data-name="Manzana"><ellipse class="cls-5" cx="617.08" cy="669.89" rx="22.85" ry="26.95"/><ellipse class="cls-5" cx="631.21" cy="669.89" rx="22.85" ry="26.95"/><path class="cls-6" d="M624.05,646.66s-2-8.16,2.9-12.22c0,.13,0,1.82,0,1.82s-3.27,1.57-1.43,10.4C625.5,646.66,625.21,647.75,624.05,646.66Z"/><path class="cls-7" d="M617.37,633.84h.85a6.16,6.16,0,0,1,6.16,6.16v.85a0,0,0,0,1,0,0h-.85a6.16,6.16,0,0,1-6.16-6.16v-.85A0,0,0,0,1,617.37,633.84Z"/><path class="cls-8" d="M617.13,643s-27,21.17,0,53.83c0,0-21.29.49-22.86-26.85a28.13,28.13,0,0,1,3.32-14c2.44-4.67,6-9.07,11.8-11.37S617.13,643,617.13,643Z"/></g><g id="Manzana-8" data-name="Manzana"><ellipse class="cls-5" cx="717.36" cy="669.89" rx="22.85" ry="26.95"/><ellipse class="cls-5" cx="731.48" cy="669.89" rx="22.85" ry="26.95"/><path class="cls-6" d="M724.33,646.66s-2-8.16,2.9-12.22c0,.13,0,1.82,0,1.82s-3.26,1.57-1.42,10.4C725.78,646.66,725.49,647.75,724.33,646.66Z"/><path class="cls-7" d="M717.65,633.84h.85a6.16,6.16,0,0,1,6.16,6.16v.85a0,0,0,0,1,0,0h-.85a6.16,6.16,0,0,1-6.16-6.16v-.85A0,0,0,0,1,717.65,633.84Z"/><path class="cls-8" d="M717.4,643s-27,21.17,0,53.83c0,0-21.29.49-22.86-26.85a28.26,28.26,0,0,1,3.32-14c2.44-4.67,6-9.07,11.8-11.37S717.4,643,717.4,643Z"/></g></svg>