<svg id="Layer_1" data-name="Layer 1" xmlns="http://www.w3.org/2000/svg" viewBox="0 0 1016.02 990.42"><defs><style>.cls-1{fill:#ffd400;}.cls-2{fill:#d1a900;}.cls-3{fill:#f05023;}.cls-4{fill:none;stroke:#f05023;stroke-miterlimit:10;stroke-width:10px;}.cls-5{fill:#e52525;}.cls-6{fill:#b56f00;}.cls-7{fill:#46c638;}.cls-8{fill:#910a0a;opacity:0.3;}.cls-9{fill:#ff7f00;}.cls-10{fill:#ffab5f;}.cls-11{fill:#ff4e00;}.cls-12{fill:#b9d86c;}.cls-13{fill:#aa8b39;}.cls-14{fill:#129948;}.cls-15{fill:#a8bf60;}</style></defs><title>Frutas_3</title><path class="cls-1" d="M170,134.34a17.42,17.42,0,0,1-.94,10.85,7.34,7.34,0,0,1-6.25,4.11c-3.19.19-8,1.27-9.76,5.9-2.73,7.18-16,21.42-40.28,32.83,0,0-45.59,20.88-84-5.43a1.24,1.24,0,0,0-1.6.19l-3.44,3.72a1.23,1.23,0,0,0,.32,1.92c2.06,1.12,5.73,3.94,7.78,10.45,3,9.38,24.09,19.35,24.09,19.35s42.92,20.14,84.87-3,35.8-57.78,33.25-64.88c-.94-2.61-.74-5.2,6.27-11.11a1.22,1.22,0,0,0-.14-2,43.29,43.29,0,0,0-8.62-4.31A1.24,1.24,0,0,0,170,134.34Z"/><path class="cls-2" d="M96.64,226.68a105.64,105.64,0,0,1-14-.94,101.79,101.79,0,0,1-26.8-7.21C55,218.12,34.53,208.4,31.57,199c-2-6.42-5.64-9.18-7.62-10.25a1.57,1.57,0,0,1-.41-2.45L27,182.56a1.57,1.57,0,0,1,2-.24c19.74,13.53,41.42,14.28,56.14,12.52a102.24,102.24,0,0,0,27.48-7.12c24.75-11.63,37.55-25.89,40.11-32.64,1.87-4.92,7.11-5.94,10.06-6.12a7,7,0,0,0,6-3.92c1.9-4,1.38-8.36.91-10.63h0a1.53,1.53,0,0,1,.48-1.47,1.55,1.55,0,0,1,1.54-.34,44.07,44.07,0,0,1,8.7,4.34,1.56,1.56,0,0,1,.18,2.53c-7.12,6-7,8.41-6.17,10.74,1.55,4.3,3.3,14.74.07,26.61a54.22,54.22,0,0,1-10.13,19.67c-5.78,7.25-13.64,13.64-23.35,19a89.12,89.12,0,0,1-31.07,10.29A97.41,97.41,0,0,1,96.64,226.68Zm-68.5-44a.91.91,0,0,0-.66.29L24,186.74a.9.9,0,0,0-.23.75.91.91,0,0,0,.46.65c2.07,1.12,5.85,4,8,10.64,2.87,9.14,23.7,19,23.91,19.14a101,101,0,0,0,26.62,7.15c14.52,1.94,36.35,1.75,57.93-10.17,17.76-9.81,28.91-22.68,33.16-38.26,3.18-11.7,1.46-22-.06-26.2-1.09-3.05-.4-5.78,6.38-11.49a.86.86,0,0,0,.31-.74.89.89,0,0,0-.42-.7,43.56,43.56,0,0,0-8.54-4.27.93.93,0,0,0-.89.2.89.89,0,0,0-.27.83h0c.49,2.35,1,6.92-1,11.06a7.72,7.72,0,0,1-6.54,4.31c-3.41.2-7.82,1.35-9.47,5.68-2.6,6.85-15.52,21.29-40.45,33a102.79,102.79,0,0,1-27.69,7.19,92,92,0,0,1-27.16-.64,75.17,75.17,0,0,1-29.44-12A.89.89,0,0,0,28.14,182.73Z"/><path class="cls-2" d="M83.26,217.38c2.52.21,5.07.22,7.6.19a128.7,128.7,0,0,0,18.8-1.62,102.77,102.77,0,0,0,23.65-6.61,70.47,70.47,0,0,0,22.49-14.73,61.82,61.82,0,0,0,15.37-25.94c.42-1.4.79-2.8,1.13-4.21.2-.85-1.1-1.21-1.31-.36a61.73,61.73,0,0,1-14,27.31,66.85,66.85,0,0,1-21.84,15.66,97.67,97.67,0,0,1-23.48,7.17,124.22,124.22,0,0,1-19.24,1.94c-2,0-4.1.06-6.15,0-.94,0-1.94-.19-2.88-.14h-.12c-.87-.08-.87,1.28,0,1.35Z"/><ellipse class="cls-2" cx="26.6" cy="185.64" rx="3.82" ry="1.76" transform="translate(-126.46 77.27) rotate(-46.55)"/><ellipse class="cls-2" cx="175.58" cy="135.91" rx="1.25" ry="5.88" transform="translate(-23.04 235.16) rotate(-64.29)"/><path class="cls-1" d="M170.84,134.47c.82,2.34,1.87,6.65.48,10.88a7.36,7.36,0,0,1-5.67,4.89c-3.13.6-7.77,2.3-8.91,7.12-1.78,7.47-13.12,23.32-35.69,37.77,0,0-42.49,26.61-83.95,5.5a1.25,1.25,0,0,0-1.56.39l-2.93,4.14a1.23,1.23,0,0,0,.57,1.87c2.18.84,6.19,3.16,9.07,9.35,4.14,8.92,26.4,16.06,26.4,16.06s45.16,14.41,83.75-14,28-61.93,24.56-68.64c-1.27-2.47-1.41-5.06,4.78-11.83a1.23,1.23,0,0,0-.4-2,43.86,43.86,0,0,0-9.11-3.15A1.23,1.23,0,0,0,170.84,134.47Z"/><path class="cls-2" d="M96.39,236.43h-.34a101.84,101.84,0,0,1-27.51-3.67c-.91-.3-22.44-7.29-26.6-16.24-2.83-6.1-6.78-8.37-8.88-9.18a1.54,1.54,0,0,1-1-1,1.57,1.57,0,0,1,.22-1.36l2.94-4.14a1.58,1.58,0,0,1,2-.5c21.31,10.85,42.9,8.79,57.26,5.14a101.92,101.92,0,0,0,26.35-10.63c23-14.74,33.87-30.54,35.54-37.56,1.22-5.12,6.27-6.82,9.18-7.37a7,7,0,0,0,5.41-4.66c1.37-4.18.29-8.48-.47-10.66h0a1.57,1.57,0,0,1,1.76-2.06,44.17,44.17,0,0,1,9.19,3.17,1.57,1.57,0,0,1,.51,2.49c-6.28,6.87-5.86,9.25-4.73,11.45,2.09,4.06,5.19,14.19,3.52,26.38a54.36,54.36,0,0,1-7.49,20.82c-4.8,7.93-11.76,15.29-20.69,21.86a89,89,0,0,1-29.48,14.23A101.19,101.19,0,0,1,96.39,236.43ZM36.55,200.84a.91.91,0,0,0-.73.38l-2.93,4.14a.86.86,0,0,0-.13.77.89.89,0,0,0,.54.58c2.2.85,6.32,3.21,9.26,9.53,4,8.68,26,15.8,26.19,15.87a100.64,100.64,0,0,0,27.33,3.64c14.64,0,36.27-3,56.12-17.59,16.33-12,25.72-26.24,27.91-42.24,1.65-12-1.39-22-3.45-26-1.48-2.88-1.15-5.68,4.83-12.22a.88.88,0,0,0,.22-.78.9.9,0,0,0-.51-.63,43.43,43.43,0,0,0-9-3.13.91.91,0,0,0-.85.31.89.89,0,0,0-.16.86h0c.8,2.27,1.91,6.73.48,11.1a7.7,7.7,0,0,1-5.92,5.11c-3.36.64-7.58,2.35-8.65,6.87-1.7,7.13-12.64,23.12-35.84,38a103,103,0,0,1-26.52,10.71,91.91,91.91,0,0,1-27,2.9A75.43,75.43,0,0,1,37,200.94.82.82,0,0,0,36.55,200.84Z"/><path class="cls-2" d="M95.49,228.07c2.56-.12,5.13-.46,7.67-.82a126.82,126.82,0,0,0,18.36-4,103,103,0,0,0,22.64-9.63A70.58,70.58,0,0,0,164.58,196a61.55,61.55,0,0,0,11.88-27.9c.23-1.39.41-2.79.55-4.19.1-.87-1.26-.86-1.35,0a61.77,61.77,0,0,1-10.38,28.84,66.7,66.7,0,0,1-19.65,18.35,98,98,0,0,1-22.3,10.13,125.84,125.84,0,0,1-18.78,4.41c-3,.47-6,.63-8.94,1h-.12c-.87,0-.87,1.4,0,1.36Z"/><ellipse class="cls-2" cx="35.28" cy="203.93" rx="3.82" ry="1.76" transform="translate(-150.44 112.59) rotate(-54)"/><ellipse class="cls-2" cx="176.56" cy="135.31" rx="1.25" ry="5.88" transform="translate(-7.25 260.59) rotate(-71.74)"/><path class="cls-1" d="M173.19,134.91c1.27,2.11,3.17,6.13,2.66,10.55a7.38,7.38,0,0,1-4.56,5.94c-2.95,1.22-7.14,3.82-7.28,8.77-.23,7.67-8.13,25.5-27.3,44.22,0,0-36.22,34.66-81.09,22.39a1.23,1.23,0,0,0-1.45.7l-2,4.65a1.23,1.23,0,0,0,.94,1.71c2.3.38,6.7,1.84,10.78,7.32,5.86,7.9,29.1,10.38,29.1,10.38s47.14,5,79.18-30.68,14.89-66.33,10.15-72.19c-1.75-2.16-2.41-4.67,2.28-12.56a1.22,1.22,0,0,0-.79-1.82,43.36,43.36,0,0,0-9.55-1.25A1.23,1.23,0,0,0,173.19,134.91Z"/><path class="cls-2" d="M99,252.1c-3.78,0-6-.22-6.07-.23-1-.1-23.45-2.59-29.34-10.51-4-5.4-8.34-6.82-10.56-7.19A1.57,1.57,0,0,1,51.82,232l2-4.65a1.56,1.56,0,0,1,1.85-.88c23.07,6.31,43.79-.09,57.11-6.57a102,102,0,0,0,23.66-15.75c19.56-19.1,27-36.76,27.19-44,.15-5.26,4.76-7.94,7.49-9.07a7,7,0,0,0,4.36-5.67c.49-4.37-1.43-8.35-2.62-10.34a1.56,1.56,0,0,1,1.31-2.37,43.06,43.06,0,0,1,9.64,1.25,1.58,1.58,0,0,1,1.1.91,1.55,1.55,0,0,1-.1,1.42c-4.76,8-3.86,10.24-2.31,12.17,2.87,3.55,8,12.84,8.79,25.11a54.35,54.35,0,0,1-3.12,21.91c-3.09,8.74-8.42,17.35-15.83,25.6a89.38,89.38,0,0,1-26,19.91,101,101,0,0,1-25.8,8.9A109.54,109.54,0,0,1,99,252.1Zm-43.68-25a.88.88,0,0,0-.82.54l-2,4.64a.88.88,0,0,0,0,.79.9.9,0,0,0,.64.46c2.32.38,6.84,1.85,11,7.45,5.71,7.69,28.63,10.22,28.86,10.24a100.91,100.91,0,0,0,27.5-2c14.35-2.93,34.92-10.26,51.4-28.6,13.55-15.08,19.87-30.9,18.77-47-.82-12.1-5.81-21.24-8.63-24.74-2-2.52-2.28-5.32,2.25-12.94a.89.89,0,0,0-.57-1.32,43,43,0,0,0-9.47-1.24.9.9,0,0,0-.77.47.87.87,0,0,0,0,.88c1.23,2.06,3.23,6.2,2.71,10.77a7.72,7.72,0,0,1-4.77,6.21c-3.15,1.31-6.94,3.84-7.08,8.47-.21,7.33-7.69,25.21-27.39,44.45a103.27,103.27,0,0,1-23.81,15.86,92,92,0,0,1-25.87,8.31,75.35,75.35,0,0,1-31.74-1.69Z"/><path class="cls-2" d="M118.39,241.81c2.45-.63,4.87-1.46,7.24-2.31a128.83,128.83,0,0,0,17.23-7.68,103.36,103.36,0,0,0,20.17-14,70.63,70.63,0,0,0,16.44-21.29,61.91,61.91,0,0,0,6.05-29.67c-.06-1.42-.17-2.83-.31-4.24-.08-.86-1.44-.87-1.35,0a62,62,0,0,1-4.27,30.39,66.78,66.78,0,0,1-15.49,22,97.43,97.43,0,0,1-19.81,14.48,125.3,125.3,0,0,1-17.55,8.16c-1.92.72-3.86,1.4-5.81,2-.91.29-1.88.48-2.78.81a.42.42,0,0,1-.12,0,.67.67,0,0,0,.36,1.3Z"/><ellipse class="cls-2" cx="54.5" cy="230.38" rx="3.82" ry="1.76" transform="translate(-177.89 185.18) rotate(-65.68)"/><ellipse class="cls-2" cx="178.95" cy="134.56" rx="1.25" ry="5.88" transform="translate(24.79 296.94) rotate(-83.43)"/><path class="cls-1" d="M170,611.12a17.42,17.42,0,0,1-.94,10.85,7.34,7.34,0,0,1-6.25,4.11c-3.19.19-8,1.27-9.76,5.9-2.73,7.18-16,21.42-40.28,32.83,0,0-45.59,20.87-84-5.43a1.24,1.24,0,0,0-1.6.19l-3.44,3.72a1.23,1.23,0,0,0,.32,1.92c2.06,1.12,5.73,3.94,7.78,10.45C34.85,685,56,695,56,695s42.92,20.14,84.87-3,35.8-57.78,33.25-64.88c-.94-2.61-.74-5.2,6.27-11.11a1.23,1.23,0,0,0-.14-2,43.83,43.83,0,0,0-8.62-4.3A1.24,1.24,0,0,0,170,611.12Z"/><path class="cls-2" d="M96.64,703.46a105.64,105.64,0,0,1-14-.94,101.79,101.79,0,0,1-26.8-7.21c-.87-.41-21.31-10.13-24.27-19.55-2-6.42-5.64-9.18-7.62-10.25a1.57,1.57,0,0,1-.41-2.45L27,659.34a1.57,1.57,0,0,1,2-.24c19.74,13.53,41.42,14.28,56.14,12.52a102.24,102.24,0,0,0,27.48-7.12c24.75-11.63,37.55-25.89,40.11-32.64,1.87-4.92,7.11-5.94,10.06-6.12a7,7,0,0,0,6-3.92c1.9-4,1.38-8.36.91-10.63h0a1.53,1.53,0,0,1,.48-1.47,1.55,1.55,0,0,1,1.54-.34,44.07,44.07,0,0,1,8.7,4.34,1.56,1.56,0,0,1,.18,2.53c-7.12,6-7,8.41-6.17,10.74,1.55,4.3,3.3,14.74.07,26.61a54.22,54.22,0,0,1-10.13,19.67c-5.78,7.25-13.64,13.64-23.35,19a89.12,89.12,0,0,1-31.07,10.29A97.41,97.41,0,0,1,96.64,703.46Zm-68.5-44a.91.91,0,0,0-.66.29L24,663.52a.9.9,0,0,0-.23.75.91.91,0,0,0,.46.65c2.07,1.12,5.85,4,8,10.64,2.87,9.14,23.7,19,23.91,19.14a101,101,0,0,0,26.62,7.15c14.52,1.94,36.35,1.75,57.93-10.17,17.76-9.81,28.91-22.68,33.16-38.26,3.18-11.7,1.46-22-.06-26.2-1.09-3.05-.4-5.78,6.38-11.49a.86.86,0,0,0,.31-.74.88.88,0,0,0-.42-.7,43.56,43.56,0,0,0-8.54-4.27.93.93,0,0,0-.89.2.89.89,0,0,0-.27.83h0c.49,2.35,1,6.92-1,11.06a7.72,7.72,0,0,1-6.54,4.31c-3.41.2-7.82,1.35-9.47,5.68-2.6,6.85-15.52,21.29-40.45,33a102.57,102.57,0,0,1-27.69,7.18,91.62,91.62,0,0,1-27.16-.63,75.17,75.17,0,0,1-29.44-12A.89.89,0,0,0,28.14,659.51Z"/><path class="cls-2" d="M83.26,694.16c2.52.21,5.07.22,7.6.19a128.7,128.7,0,0,0,18.8-1.62,102.77,102.77,0,0,0,23.65-6.61,70.47,70.47,0,0,0,22.49-14.73,61.82,61.82,0,0,0,15.37-25.94c.42-1.4.79-2.8,1.13-4.21.2-.85-1.1-1.21-1.31-.36a61.73,61.73,0,0,1-14,27.31,66.85,66.85,0,0,1-21.84,15.66A97.67,97.67,0,0,1,111.65,691,125.46,125.46,0,0,1,92.41,693c-2,0-4.1.06-6.15,0-.94,0-1.94-.18-2.88-.13h-.12c-.87-.08-.87,1.28,0,1.35Z"/><ellipse class="cls-2" cx="26.6" cy="662.42" rx="3.82" ry="1.76" transform="translate(-472.57 226.14) rotate(-46.55)"/><ellipse class="cls-2" cx="175.58" cy="612.69" rx="1.25" ry="5.88" transform="translate(-452.63 505.14) rotate(-64.29)"/><path class="cls-1" d="M170.84,611.25c.82,2.34,1.87,6.65.48,10.88a7.36,7.36,0,0,1-5.67,4.89c-3.13.6-7.77,2.3-8.91,7.12-1.78,7.46-13.12,23.32-35.69,37.77,0,0-42.49,26.61-83.95,5.5a1.24,1.24,0,0,0-1.56.39l-2.93,4.14a1.23,1.23,0,0,0,.57,1.87c2.18.84,6.19,3.16,9.07,9.35,4.14,8.92,26.4,16.06,26.4,16.06s45.16,14.4,83.75-14,28-61.93,24.56-68.64c-1.27-2.47-1.41-5.06,4.78-11.83a1.23,1.23,0,0,0-.4-2,43.86,43.86,0,0,0-9.11-3.15A1.23,1.23,0,0,0,170.84,611.25Z"/><path class="cls-2" d="M96.39,713.21h-.34a101.84,101.84,0,0,1-27.51-3.67c-.91-.3-22.44-7.29-26.6-16.24-2.83-6.1-6.78-8.37-8.88-9.18a1.54,1.54,0,0,1-1-1,1.57,1.57,0,0,1,.22-1.36l2.94-4.14a1.57,1.57,0,0,1,2-.5c21.31,10.85,42.9,8.79,57.26,5.14a101.92,101.92,0,0,0,26.35-10.63c23-14.74,33.87-30.54,35.54-37.56,1.22-5.12,6.27-6.82,9.18-7.37A7,7,0,0,0,171,622c1.37-4.18.29-8.48-.47-10.66h0a1.57,1.57,0,0,1,1.76-2.06,44.17,44.17,0,0,1,9.19,3.17A1.57,1.57,0,0,1,182,615c-6.28,6.87-5.86,9.25-4.73,11.45,2.09,4.06,5.19,14.19,3.52,26.38a54.25,54.25,0,0,1-7.49,20.81c-4.8,7.94-11.76,15.29-20.69,21.87a89,89,0,0,1-29.48,14.23A101.19,101.19,0,0,1,96.39,713.21ZM36.55,677.62a.88.88,0,0,0-.73.38l-2.93,4.14a.85.85,0,0,0-.13.77.89.89,0,0,0,.54.58c2.2.85,6.32,3.21,9.26,9.53,4,8.68,26,15.8,26.19,15.87a100.64,100.64,0,0,0,27.33,3.64c14.64,0,36.27-3,56.12-17.59,16.33-12,25.72-26.24,27.91-42.24,1.65-12-1.39-22-3.45-26-1.48-2.88-1.15-5.68,4.83-12.22a.88.88,0,0,0,.22-.78.9.9,0,0,0-.51-.63,43.43,43.43,0,0,0-9-3.13.91.91,0,0,0-.85.31.89.89,0,0,0-.16.86h0c.8,2.27,1.91,6.73.48,11.1a7.7,7.7,0,0,1-5.92,5.11c-3.36.64-7.58,2.35-8.65,6.87-1.7,7.13-12.64,23.12-35.84,38A103,103,0,0,1,94.71,682.9a91.91,91.91,0,0,1-27,2.9A75.43,75.43,0,0,1,37,677.72.82.82,0,0,0,36.55,677.62Z"/><path class="cls-2" d="M95.49,704.85c2.56-.12,5.13-.46,7.67-.82a126.82,126.82,0,0,0,18.36-4,103,103,0,0,0,22.64-9.63,70.58,70.58,0,0,0,20.42-17.57,61.55,61.55,0,0,0,11.88-27.9c.23-1.39.41-2.79.55-4.19.1-.87-1.26-.86-1.35,0a61.77,61.77,0,0,1-10.38,28.84,66.7,66.7,0,0,1-19.65,18.35,98,98,0,0,1-22.3,10.13,125.84,125.84,0,0,1-18.78,4.41c-3,.47-6,.63-8.94,1h-.12c-.87,0-.87,1.4,0,1.36Z"/><ellipse class="cls-2" cx="35.28" cy="680.71" rx="3.82" ry="1.76" transform="translate(-536.14 309.11) rotate(-54)"/><ellipse class="cls-2" cx="176.56" cy="612.09" rx="1.25" ry="5.88" transform="translate(-460.03 588.01) rotate(-71.74)"/><path class="cls-1" d="M173.19,611.69a17.38,17.38,0,0,1,2.66,10.55,7.38,7.38,0,0,1-4.56,5.94c-2.95,1.22-7.14,3.82-7.28,8.77-.23,7.67-8.13,25.49-27.3,44.22,0,0-36.22,34.66-81.09,22.39a1.23,1.23,0,0,0-1.45.7l-2,4.65a1.23,1.23,0,0,0,.94,1.71c2.3.38,6.7,1.84,10.78,7.32,5.86,7.89,29.1,10.38,29.1,10.38s47.14,5,79.18-30.68,14.89-66.33,10.15-72.19c-1.75-2.16-2.41-4.67,2.28-12.56a1.23,1.23,0,0,0-.79-1.83,44,44,0,0,0-9.55-1.24A1.23,1.23,0,0,0,173.19,611.69Z"/><path class="cls-2" d="M99,728.88c-3.78,0-6-.22-6.07-.23-1-.1-23.45-2.59-29.34-10.51-4-5.4-8.34-6.82-10.56-7.19a1.57,1.57,0,0,1-1.19-2.18l2-4.65a1.56,1.56,0,0,1,1.85-.88c23.07,6.31,43.79-.09,57.11-6.57a102,102,0,0,0,23.66-15.75c19.56-19.1,27-36.76,27.19-44,.15-5.26,4.76-7.94,7.49-9.07a7,7,0,0,0,4.36-5.67c.49-4.37-1.43-8.35-2.62-10.34a1.56,1.56,0,0,1,0-1.55,1.59,1.59,0,0,1,1.35-.83,44.25,44.25,0,0,1,9.64,1.25,1.61,1.61,0,0,1,1.1.92,1.55,1.55,0,0,1-.1,1.42c-4.76,8-3.86,10.24-2.31,12.17,2.87,3.55,8,12.84,8.79,25.11a54.35,54.35,0,0,1-3.12,21.91c-3.09,8.74-8.42,17.35-15.83,25.6a89.38,89.38,0,0,1-26,19.91,101.4,101.4,0,0,1-25.8,8.9A109.54,109.54,0,0,1,99,728.88Zm-43.68-25a.89.89,0,0,0-.82.53l-2,4.65a.88.88,0,0,0,0,.79.9.9,0,0,0,.64.46c2.32.38,6.84,1.85,11,7.45C69.83,725.42,92.75,728,93,728a100.91,100.91,0,0,0,27.5-2c14.35-2.93,34.92-10.26,51.4-28.6,13.55-15.08,19.87-30.9,18.77-47-.82-12.1-5.81-21.25-8.63-24.74-2-2.52-2.28-5.32,2.25-12.94a.86.86,0,0,0,0-.81.9.9,0,0,0-.62-.52,43.63,43.63,0,0,0-9.47-1.23.9.9,0,0,0-.77.47.87.87,0,0,0,0,.88c1.23,2.06,3.23,6.2,2.71,10.77a7.72,7.72,0,0,1-4.77,6.21c-3.15,1.31-6.94,3.84-7.08,8.47-.21,7.33-7.69,25.21-27.39,44.45a103.27,103.27,0,0,1-23.81,15.86,91.69,91.69,0,0,1-25.87,8.3,75.18,75.18,0,0,1-31.74-1.68Z"/><path class="cls-2" d="M118.39,718.59c2.45-.63,4.87-1.46,7.24-2.32a127.52,127.52,0,0,0,17.23-7.67,103.8,103.8,0,0,0,20.17-14,70.63,70.63,0,0,0,16.44-21.29,61.91,61.91,0,0,0,6.05-29.67c-.06-1.42-.17-2.83-.31-4.24-.08-.86-1.44-.87-1.35,0a62,62,0,0,1-4.27,30.39,66.78,66.78,0,0,1-15.49,22,97.43,97.43,0,0,1-19.81,14.48,125.3,125.3,0,0,1-17.55,8.16q-2.88,1.08-5.81,2c-.91.28-1.88.48-2.78.81l-.12,0a.67.67,0,0,0,.36,1.3Z"/><ellipse class="cls-2" cx="54.5" cy="707.16" rx="3.82" ry="1.76" transform="translate(-612.36 465.62) rotate(-65.68)"/><ellipse class="cls-2" cx="178.95" cy="611.34" rx="1.25" ry="5.88" transform="translate(-448.86 719.16) rotate(-83.43)"/><path class="cls-1" d="M363.56,134.34a17.48,17.48,0,0,1-.93,10.85,7.36,7.36,0,0,1-6.26,4.11c-3.19.19-8,1.27-9.76,5.9-2.73,7.18-16,21.42-40.28,32.83,0,0-45.58,20.88-84-5.43a1.22,1.22,0,0,0-1.59.19l-3.45,3.72a1.23,1.23,0,0,0,.32,1.92c2.06,1.12,5.74,3.94,7.79,10.45,2.95,9.38,24.09,19.35,24.09,19.35s42.91,20.14,84.86-3,35.81-57.78,33.25-64.88c-.94-2.61-.74-5.2,6.28-11.11a1.22,1.22,0,0,0-.15-2,43.29,43.29,0,0,0-8.62-4.31A1.24,1.24,0,0,0,363.56,134.34Z"/><path class="cls-2" d="M290.18,226.68a105.64,105.64,0,0,1-14-.94,101.79,101.79,0,0,1-26.8-7.21c-.87-.41-21.3-10.13-24.27-19.55-2-6.42-5.64-9.18-7.62-10.25a1.58,1.58,0,0,1-.41-2.45l3.45-3.72a1.59,1.59,0,0,1,2-.24C242.3,195.85,264,196.6,278.7,194.84a102.39,102.39,0,0,0,27.49-7.12c24.74-11.63,37.54-25.89,40.1-32.64,1.87-4.92,7.11-5.94,10.06-6.12a7,7,0,0,0,6-3.92c1.9-4,1.39-8.36.91-10.63h0a1.57,1.57,0,0,1,2-1.81,43.79,43.79,0,0,1,8.7,4.34,1.56,1.56,0,0,1,.18,2.53c-7.12,6-7,8.41-6.17,10.74,1.55,4.3,3.31,14.74.07,26.61a54.35,54.35,0,0,1-10.12,19.67c-5.79,7.25-13.65,13.64-23.36,19a89.12,89.12,0,0,1-31.07,10.29A97.3,97.3,0,0,1,290.18,226.68Zm-68.5-44a.91.91,0,0,0-.66.29l-3.44,3.72a.9.9,0,0,0-.23.75.94.94,0,0,0,.46.65c2.07,1.12,5.86,4,7.95,10.64,2.87,9.14,23.7,19,23.91,19.14a101,101,0,0,0,26.63,7.15c14.51,1.94,36.35,1.75,57.93-10.17,17.75-9.81,28.9-22.68,33.15-38.26,3.19-11.7,1.47-22-.05-26.2-1.1-3.05-.41-5.78,6.37-11.49a.86.86,0,0,0,.31-.74.89.89,0,0,0-.42-.7,43.56,43.56,0,0,0-8.54-4.27.91.91,0,0,0-.88.2.84.84,0,0,0-.27.83h0c.49,2.35,1,6.92-1,11.06a7.72,7.72,0,0,1-6.54,4.31c-3.41.2-7.82,1.35-9.46,5.68-2.61,6.85-15.53,21.29-40.46,33a102.79,102.79,0,0,1-27.69,7.19,92,92,0,0,1-27.16-.64,75.24,75.24,0,0,1-29.44-12A.89.89,0,0,0,221.68,182.73Z"/><path class="cls-2" d="M276.8,217.38c2.52.21,5.07.22,7.6.19A128.58,128.58,0,0,0,303.2,216a102.63,102.63,0,0,0,23.65-6.61,70.47,70.47,0,0,0,22.49-14.73,61.82,61.82,0,0,0,15.37-25.94c.42-1.4.79-2.8,1.13-4.21.21-.85-1.1-1.21-1.3-.36a61.93,61.93,0,0,1-14,27.31,67,67,0,0,1-21.85,15.66,97.73,97.73,0,0,1-23.47,7.17A124.34,124.34,0,0,1,286,216.18c-2.05,0-4.1.06-6.15,0-.94,0-1.93-.19-2.88-.14h-.12c-.87-.08-.86,1.28,0,1.35Z"/><ellipse class="cls-2" cx="220.14" cy="185.64" rx="3.82" ry="1.76" transform="translate(-66.02 217.77) rotate(-46.55)"/><ellipse class="cls-2" cx="369.12" cy="135.91" rx="1.25" ry="5.88" transform="translate(86.56 409.55) rotate(-64.29)"/><path class="cls-1" d="M364.39,134.47c.81,2.34,1.86,6.65.47,10.88a7.35,7.35,0,0,1-5.66,4.89c-3.14.6-7.77,2.3-8.92,7.12-1.77,7.47-13.12,23.32-35.69,37.77,0,0-42.49,26.61-83.94,5.5a1.24,1.24,0,0,0-1.56.39l-2.94,4.14a1.24,1.24,0,0,0,.57,1.87c2.18.84,6.2,3.16,9.07,9.35,4.15,8.92,26.4,16.06,26.4,16.06s45.16,14.41,83.75-14,28-61.93,24.56-68.64c-1.27-2.47-1.41-5.06,4.78-11.83a1.23,1.23,0,0,0-.4-2,43.56,43.56,0,0,0-9.1-3.15A1.23,1.23,0,0,0,364.39,134.47Z"/><path class="cls-2" d="M289.94,236.43h-.35a101.62,101.62,0,0,1-27.5-3.67c-.92-.3-22.44-7.29-26.6-16.24-2.84-6.1-6.79-8.37-8.89-9.18a1.57,1.57,0,0,1-.95-1,1.54,1.54,0,0,1,.23-1.36l2.93-4.14a1.58,1.58,0,0,1,2-.5c21.31,10.85,42.9,8.79,57.26,5.14a102.3,102.3,0,0,0,26.36-10.63c23-14.74,33.86-30.54,35.53-37.56,1.22-5.12,6.28-6.82,9.18-7.37a7,7,0,0,0,5.41-4.66c1.37-4.18.29-8.48-.47-10.66h0a1.55,1.55,0,0,1,.28-1.53,1.57,1.57,0,0,1,1.48-.53A44.17,44.17,0,0,1,375,135.7a1.57,1.57,0,0,1,.51,2.49c-6.28,6.87-5.86,9.25-4.72,11.45,2.09,4.06,5.18,14.19,3.51,26.38a54.36,54.36,0,0,1-7.49,20.82c-4.79,7.93-11.76,15.29-20.69,21.86a89,89,0,0,1-29.47,14.23A101.3,101.3,0,0,1,289.94,236.43Zm-59.85-35.59a.91.91,0,0,0-.73.38l-2.93,4.14a.89.89,0,0,0,.41,1.35c2.2.85,6.32,3.21,9.26,9.53,4,8.68,26,15.8,26.19,15.87a100.73,100.73,0,0,0,27.33,3.64c14.65,0,36.27-3,56.12-17.59,16.33-12,25.72-26.24,27.91-42.24,1.65-12-1.39-22-3.45-26-1.48-2.88-1.15-5.68,4.83-12.22a.86.86,0,0,0,.22-.78.88.88,0,0,0-.51-.63,43.53,43.53,0,0,0-9-3.13.91.91,0,0,0-.85.31.84.84,0,0,0-.16.86h0c.79,2.27,1.91,6.73.47,11.1a7.69,7.69,0,0,1-5.92,5.11c-3.35.64-7.58,2.35-8.65,6.87-1.69,7.13-12.64,23.12-35.83,38a102.93,102.93,0,0,1-26.53,10.71,91.88,91.88,0,0,1-27,2.9,75.48,75.48,0,0,1-30.75-8.08A.79.79,0,0,0,230.09,200.84Z"/><path class="cls-2" d="M289,228.07c2.57-.12,5.13-.46,7.67-.82a126.82,126.82,0,0,0,18.36-4,102.74,102.74,0,0,0,22.64-9.63A70.58,70.58,0,0,0,358.12,196,61.67,61.67,0,0,0,370,168.14c.22-1.39.4-2.79.55-4.19.09-.87-1.27-.86-1.36,0a61.77,61.77,0,0,1-10.38,28.84,66.79,66.79,0,0,1-19.64,18.35,98.24,98.24,0,0,1-22.31,10.13,125.84,125.84,0,0,1-18.78,4.41c-3,.47-6,.63-8.94,1H289c-.86,0-.87,1.4,0,1.36Z"/><ellipse class="cls-2" cx="228.82" cy="203.93" rx="3.82" ry="1.76" transform="translate(-70.66 269.17) rotate(-54)"/><ellipse class="cls-2" cx="370.1" cy="135.31" rx="1.25" ry="5.88" transform="translate(125.66 444.39) rotate(-71.74)"/><path class="cls-1" d="M366.73,134.91a17.47,17.47,0,0,1,2.67,10.55,7.4,7.4,0,0,1-4.56,5.94c-2.95,1.22-7.15,3.82-7.29,8.77-.23,7.67-8.12,25.5-27.3,44.22,0,0-36.22,34.66-81.09,22.39a1.23,1.23,0,0,0-1.45.7l-2,4.65a1.22,1.22,0,0,0,.93,1.71c2.31.38,6.71,1.84,10.78,7.32,5.86,7.9,29.1,10.38,29.1,10.38s47.15,5,79.18-30.68,14.89-66.33,10.15-72.19c-1.75-2.16-2.41-4.67,2.29-12.56a1.23,1.23,0,0,0-.79-1.82,43.54,43.54,0,0,0-9.56-1.25A1.24,1.24,0,0,0,366.73,134.91Z"/><path class="cls-2" d="M292.52,252.1c-3.78,0-6-.22-6.07-.23-.95-.1-23.45-2.59-29.33-10.51-4-5.4-8.34-6.82-10.57-7.19a1.59,1.59,0,0,1-1.13-.8,1.56,1.56,0,0,1,0-1.38l2-4.65a1.56,1.56,0,0,1,1.85-.88c23.07,6.31,43.79-.09,57.12-6.57A102,102,0,0,0,330,204.14c19.56-19.1,27-36.76,27.19-44,.16-5.26,4.76-7.94,7.5-9.07a7,7,0,0,0,4.35-5.67c.5-4.37-1.43-8.35-2.62-10.34a1.57,1.57,0,0,1,1.31-2.37,43.06,43.06,0,0,1,9.64,1.25,1.57,1.57,0,0,1,1,2.33c-4.77,8-3.87,10.24-2.32,12.17,2.88,3.55,8,12.84,8.79,25.11a54.34,54.34,0,0,1-3.11,21.91c-3.1,8.74-8.42,17.35-15.84,25.6a89.33,89.33,0,0,1-26,19.91,101.22,101.22,0,0,1-25.81,8.9A109.41,109.41,0,0,1,292.52,252.1Zm-43.68-25a.88.88,0,0,0-.82.54l-2,4.64a.88.88,0,0,0,0,.79.92.92,0,0,0,.64.46c2.33.38,6.84,1.85,11,7.45,5.71,7.69,28.63,10.22,28.87,10.24a100.84,100.84,0,0,0,27.49-2c14.35-2.93,34.92-10.26,51.4-28.6,13.55-15.08,19.87-30.9,18.78-47-.83-12.1-5.82-21.24-8.64-24.74-2-2.52-2.28-5.32,2.25-12.94a.89.89,0,0,0,.06-.81.9.9,0,0,0-.63-.51,42.9,42.9,0,0,0-9.47-1.24.91.91,0,0,0-.77.47.89.89,0,0,0,0,.88c1.23,2.06,3.23,6.2,2.71,10.77a7.71,7.71,0,0,1-4.76,6.21c-3.16,1.31-7,3.84-7.08,8.47-.22,7.33-7.69,25.21-27.4,44.45a102.71,102.71,0,0,1-23.81,15.86,91.94,91.94,0,0,1-25.87,8.31,75.35,75.35,0,0,1-31.74-1.69A.91.91,0,0,0,248.84,227.08Z"/><path class="cls-2" d="M311.93,241.81c2.46-.63,4.87-1.46,7.25-2.31a130,130,0,0,0,17.23-7.68,103.29,103.29,0,0,0,20.16-14A70.63,70.63,0,0,0,373,196.57a61.79,61.79,0,0,0,6.05-29.67c-.06-1.42-.17-2.83-.31-4.24-.08-.86-1.44-.87-1.35,0a62,62,0,0,1-4.26,30.39,67.07,67.07,0,0,1-15.49,22,97.5,97.5,0,0,1-19.82,14.48,124.25,124.25,0,0,1-17.55,8.16c-1.92.72-3.85,1.4-5.81,2-.91.29-1.88.48-2.77.81l-.13,0a.67.67,0,0,0,.36,1.3Z"/><ellipse class="cls-2" cx="248.04" cy="230.38" rx="3.82" ry="1.76" transform="translate(-64.04 361.55) rotate(-65.68)"/><ellipse class="cls-2" cx="372.49" cy="134.56" rx="1.25" ry="5.88" transform="translate(196.19 489.21) rotate(-83.43)"/><path class="cls-1" d="M363.56,611.12a17.48,17.48,0,0,1-.93,10.85,7.36,7.36,0,0,1-6.26,4.11c-3.19.19-8,1.27-9.76,5.9-2.73,7.18-16,21.42-40.28,32.83,0,0-45.58,20.87-84-5.43a1.22,1.22,0,0,0-1.59.19l-3.45,3.72a1.23,1.23,0,0,0,.32,1.92c2.06,1.12,5.74,3.94,7.79,10.45C228.39,685,249.53,695,249.53,695s42.91,20.14,84.86-3,35.81-57.78,33.25-64.88c-.94-2.61-.74-5.2,6.28-11.11a1.23,1.23,0,0,0-.15-2,43.83,43.83,0,0,0-8.62-4.3A1.24,1.24,0,0,0,363.56,611.12Z"/><path class="cls-2" d="M290.18,703.46a105.64,105.64,0,0,1-14-.94,101.79,101.79,0,0,1-26.8-7.21c-.87-.41-21.3-10.13-24.27-19.55-2-6.42-5.64-9.18-7.62-10.25a1.58,1.58,0,0,1-.41-2.45l3.45-3.72a1.59,1.59,0,0,1,2-.24c19.73,13.53,41.42,14.28,56.13,12.52a102.39,102.39,0,0,0,27.49-7.12c24.74-11.63,37.54-25.89,40.1-32.64,1.87-4.92,7.11-5.94,10.06-6.12a7,7,0,0,0,6-3.92c1.9-4,1.39-8.36.91-10.63h0a1.57,1.57,0,0,1,2-1.81,43.79,43.79,0,0,1,8.7,4.34,1.56,1.56,0,0,1,.18,2.53c-7.12,6-7,8.41-6.17,10.74,1.55,4.3,3.31,14.74.07,26.61a54.35,54.35,0,0,1-10.12,19.67c-5.79,7.25-13.65,13.64-23.36,19a89.12,89.12,0,0,1-31.07,10.29A97.3,97.3,0,0,1,290.18,703.46Zm-68.5-44a.91.91,0,0,0-.66.29l-3.44,3.72a.9.9,0,0,0-.23.75.94.94,0,0,0,.46.65c2.07,1.12,5.86,4,7.95,10.64,2.87,9.14,23.7,19,23.91,19.14a101,101,0,0,0,26.63,7.15c14.51,1.94,36.35,1.75,57.93-10.17,17.75-9.81,28.9-22.68,33.15-38.26,3.19-11.7,1.47-22-.05-26.2-1.1-3.05-.41-5.78,6.37-11.49A.86.86,0,0,0,374,615a.88.88,0,0,0-.42-.7,43.56,43.56,0,0,0-8.54-4.27.91.91,0,0,0-.88.2.84.84,0,0,0-.27.83h0c.49,2.35,1,6.92-1,11.06a7.72,7.72,0,0,1-6.54,4.31c-3.41.2-7.82,1.35-9.46,5.68-2.61,6.85-15.53,21.29-40.46,33a102.57,102.57,0,0,1-27.69,7.18,91.63,91.63,0,0,1-27.16-.63,75.24,75.24,0,0,1-29.44-12A.89.89,0,0,0,221.68,659.51Z"/><path class="cls-2" d="M276.8,694.16c2.52.21,5.07.22,7.6.19a128.58,128.58,0,0,0,18.8-1.62,102.63,102.63,0,0,0,23.65-6.61,70.47,70.47,0,0,0,22.49-14.73,61.82,61.82,0,0,0,15.37-25.94c.42-1.4.79-2.8,1.13-4.21.21-.85-1.1-1.21-1.3-.36a61.93,61.93,0,0,1-14,27.31,67,67,0,0,1-21.85,15.66A97.73,97.73,0,0,1,305.2,691,125.58,125.58,0,0,1,286,693c-2.05,0-4.1.06-6.15,0-.94,0-1.93-.18-2.88-.13h-.12c-.87-.08-.86,1.28,0,1.35Z"/><ellipse class="cls-2" cx="220.14" cy="662.42" rx="3.82" ry="1.76" transform="translate(-412.14 366.65) rotate(-46.55)"/><ellipse class="cls-2" cx="369.12" cy="612.69" rx="1.25" ry="5.88" transform="translate(-343.04 679.53) rotate(-64.29)"/><path class="cls-1" d="M364.39,611.25c.81,2.34,1.86,6.65.47,10.88A7.35,7.35,0,0,1,359.2,627c-3.14.6-7.77,2.3-8.92,7.12-1.77,7.46-13.12,23.32-35.69,37.77,0,0-42.49,26.61-83.94,5.5a1.23,1.23,0,0,0-1.56.39l-2.94,4.14a1.24,1.24,0,0,0,.57,1.87c2.18.84,6.2,3.16,9.07,9.35,4.15,8.92,26.4,16.06,26.4,16.06s45.16,14.4,83.75-14,28-61.93,24.56-68.64c-1.27-2.47-1.41-5.06,4.78-11.83a1.23,1.23,0,0,0-.4-2,43.56,43.56,0,0,0-9.1-3.15A1.23,1.23,0,0,0,364.39,611.25Z"/><path class="cls-2" d="M289.94,713.21h-.35a101.62,101.62,0,0,1-27.5-3.67c-.92-.3-22.44-7.29-26.6-16.24-2.84-6.1-6.79-8.37-8.89-9.18a1.57,1.57,0,0,1-.95-1,1.54,1.54,0,0,1,.23-1.36l2.93-4.14a1.57,1.57,0,0,1,2-.5c21.31,10.85,42.9,8.79,57.26,5.14a102.3,102.3,0,0,0,26.36-10.63c23-14.74,33.86-30.54,35.53-37.56,1.22-5.12,6.28-6.82,9.18-7.37a7,7,0,0,0,5.41-4.66c1.37-4.18.29-8.48-.47-10.66h0a1.55,1.55,0,0,1,.28-1.53,1.57,1.57,0,0,1,1.48-.53,44.17,44.17,0,0,1,9.19,3.17,1.57,1.57,0,0,1,.51,2.49c-6.28,6.87-5.86,9.25-4.72,11.45,2.09,4.06,5.18,14.19,3.51,26.38a54.25,54.25,0,0,1-7.49,20.81c-4.79,7.94-11.76,15.29-20.69,21.87a89,89,0,0,1-29.47,14.23A101.3,101.3,0,0,1,289.94,713.21Zm-59.85-35.59a.88.88,0,0,0-.73.38l-2.93,4.14a.88.88,0,0,0-.13.77.89.89,0,0,0,.54.58c2.2.85,6.32,3.21,9.26,9.53,4,8.68,26,15.8,26.19,15.87a100.73,100.73,0,0,0,27.33,3.64c14.65,0,36.27-3,56.12-17.59,16.33-12,25.72-26.24,27.91-42.24,1.65-12-1.39-22-3.45-26-1.48-2.88-1.15-5.68,4.83-12.22a.86.86,0,0,0,.22-.78.88.88,0,0,0-.51-.63,43.53,43.53,0,0,0-9-3.13.91.91,0,0,0-.85.31.84.84,0,0,0-.16.86h0c.79,2.27,1.91,6.73.47,11.1a7.69,7.69,0,0,1-5.92,5.11c-3.35.64-7.58,2.35-8.65,6.87-1.69,7.13-12.64,23.12-35.83,38a102.93,102.93,0,0,1-26.53,10.71,91.88,91.88,0,0,1-27,2.9,75.48,75.48,0,0,1-30.75-8.08A.79.79,0,0,0,230.09,677.62Z"/><path class="cls-2" d="M289,704.85c2.57-.12,5.13-.46,7.67-.82a126.82,126.82,0,0,0,18.36-4,102.74,102.74,0,0,0,22.64-9.63,70.58,70.58,0,0,0,20.42-17.57A61.67,61.67,0,0,0,370,644.92c.22-1.39.4-2.79.55-4.19.09-.87-1.27-.86-1.36,0a61.77,61.77,0,0,1-10.38,28.84,66.79,66.79,0,0,1-19.64,18.35,98.24,98.24,0,0,1-22.31,10.13,125.84,125.84,0,0,1-18.78,4.41c-3,.47-6,.63-8.94,1H289c-.86,0-.87,1.4,0,1.36Z"/><ellipse class="cls-2" cx="228.82" cy="680.71" rx="3.82" ry="1.76" transform="translate(-456.37 465.68) rotate(-54)"/><ellipse class="cls-2" cx="370.1" cy="612.09" rx="1.25" ry="5.88" transform="translate(-327.12 771.81) rotate(-71.74)"/><path class="cls-1" d="M366.73,611.69a17.45,17.45,0,0,1,2.67,10.55,7.4,7.4,0,0,1-4.56,5.94c-2.95,1.22-7.15,3.82-7.29,8.77-.23,7.67-8.12,25.49-27.3,44.22,0,0-36.22,34.66-81.09,22.39a1.23,1.23,0,0,0-1.45.7l-2,4.65a1.22,1.22,0,0,0,.93,1.71c2.31.38,6.71,1.84,10.78,7.32,5.86,7.89,29.1,10.38,29.1,10.38s47.15,5,79.18-30.68,14.89-66.33,10.15-72.19c-1.75-2.16-2.41-4.67,2.29-12.56a1.24,1.24,0,0,0-.79-1.83,44.18,44.18,0,0,0-9.56-1.24A1.24,1.24,0,0,0,366.73,611.69Z"/><path class="cls-2" d="M292.52,728.88c-3.78,0-6-.22-6.07-.23-.95-.1-23.45-2.59-29.33-10.51-4-5.4-8.34-6.82-10.57-7.19a1.59,1.59,0,0,1-1.13-.8,1.56,1.56,0,0,1,0-1.38l2-4.65a1.56,1.56,0,0,1,1.85-.88c23.07,6.31,43.79-.09,57.12-6.57A102,102,0,0,0,330,680.92c19.56-19.1,27-36.76,27.19-44,.16-5.26,4.76-7.94,7.5-9.07a7,7,0,0,0,4.35-5.67c.5-4.37-1.43-8.35-2.62-10.34a1.54,1.54,0,0,1,0-1.55,1.57,1.57,0,0,1,1.34-.83,44.25,44.25,0,0,1,9.64,1.25,1.57,1.57,0,0,1,1.1.92,1.55,1.55,0,0,1-.09,1.42c-4.77,8-3.87,10.24-2.32,12.17,2.88,3.55,8,12.84,8.79,25.11a54.34,54.34,0,0,1-3.11,21.91c-3.1,8.74-8.42,17.35-15.84,25.6a89.33,89.33,0,0,1-26,19.91,101.6,101.6,0,0,1-25.81,8.9A109.41,109.41,0,0,1,292.52,728.88Zm-43.68-25a.89.89,0,0,0-.82.53L246,709a.88.88,0,0,0,0,.79.92.92,0,0,0,.64.46c2.33.38,6.84,1.85,11,7.45,5.71,7.68,28.63,10.21,28.87,10.24A100.84,100.84,0,0,0,314,726c14.35-2.93,34.92-10.26,51.4-28.6,13.55-15.08,19.87-30.9,18.78-47-.83-12.1-5.82-21.25-8.64-24.74-2-2.52-2.28-5.32,2.25-12.94a.89.89,0,0,0,.06-.81.94.94,0,0,0-.63-.52,43.54,43.54,0,0,0-9.47-1.23.91.91,0,0,0-.77.47.89.89,0,0,0,0,.88c1.23,2.06,3.23,6.2,2.71,10.77a7.71,7.71,0,0,1-4.76,6.21c-3.16,1.31-7,3.84-7.08,8.47-.22,7.33-7.69,25.21-27.4,44.45a102.71,102.71,0,0,1-23.81,15.86,91.59,91.59,0,0,1-25.87,8.3,75.18,75.18,0,0,1-31.74-1.68A.91.91,0,0,0,248.84,703.86Z"/><path class="cls-2" d="M311.93,718.59c2.46-.63,4.87-1.46,7.25-2.32a128.64,128.64,0,0,0,17.23-7.67,103.73,103.73,0,0,0,20.16-14A70.63,70.63,0,0,0,373,673.35a61.79,61.79,0,0,0,6.05-29.67c-.06-1.42-.17-2.83-.31-4.24-.08-.86-1.44-.87-1.35,0a62,62,0,0,1-4.26,30.39,67.07,67.07,0,0,1-15.49,22,97.5,97.5,0,0,1-19.82,14.48,124.25,124.25,0,0,1-17.55,8.16c-1.92.72-3.85,1.39-5.81,2-.91.28-1.88.48-2.77.81l-.13,0a.67.67,0,0,0,.36,1.3Z"/><ellipse class="cls-2" cx="248.04" cy="707.16" rx="3.82" ry="1.76" transform="translate(-498.52 641.99) rotate(-65.68)"/><ellipse class="cls-2" cx="372.49" cy="611.34" rx="1.25" ry="5.88" transform="translate(-277.46 911.43) rotate(-83.43)"/><path class="cls-1" d="M793.55,19.7a16.35,16.35,0,0,1-.87,10.12,6.87,6.87,0,0,1-5.84,3.83c-3,.18-7.46,1.19-9.1,5.51-2.54,6.69-15,20-37.57,30.61,0,0-42.51,19.47-78.3-5.06a1.16,1.16,0,0,0-1.49.17l-3.21,3.48a1.15,1.15,0,0,0,.3,1.79c1.92,1,5.35,3.67,7.26,9.75,2.75,8.75,22.47,18,22.47,18s40,18.78,79.14-2.83,33.4-53.89,31-60.5c-.88-2.44-.7-4.85,5.85-10.37a1.15,1.15,0,0,0-.14-1.85,40.16,40.16,0,0,0-8-4A1.15,1.15,0,0,0,793.55,19.7Z"/><path class="cls-2" d="M725.11,105.82a98,98,0,0,1-13.05-.88,94.52,94.52,0,0,1-25-6.72c-.81-.38-19.87-9.45-22.63-18.23-1.89-6-5.27-8.56-7.11-9.56a1.43,1.43,0,0,1-.75-1.05,1.45,1.45,0,0,1,.37-1.24l3.21-3.47a1.48,1.48,0,0,1,1.9-.22c18.41,12.62,38.63,13.32,52.35,11.68A96.22,96.22,0,0,0,740,69.49c23.08-10.86,35-24.15,37.4-30.44,1.75-4.59,6.63-5.55,9.38-5.71a6.54,6.54,0,0,0,5.57-3.66,16,16,0,0,0,.85-9.91h0a1.47,1.47,0,0,1,1.88-1.7,41.5,41.5,0,0,1,8.12,4.05,1.47,1.47,0,0,1,.17,2.37c-6.64,5.59-6.54,7.84-5.76,10,1.45,4,3.08,13.75.07,24.82a50.6,50.6,0,0,1-9.45,18.35c-5.39,6.75-12.72,12.71-21.77,17.72a83.44,83.44,0,0,1-29,9.59A90.61,90.61,0,0,1,725.11,105.82Zm-63.88-41a.84.84,0,0,0-.62.27l-3.21,3.47a.82.82,0,0,0-.21.7.81.81,0,0,0,.43.6c1.93,1,5.46,3.73,7.41,9.93,2.68,8.52,22.11,17.76,22.3,17.85a94.12,94.12,0,0,0,24.83,6.67c13.54,1.81,33.9,1.63,54-9.49,16.56-9.14,27-21.15,30.92-35.68,3-10.91,1.37-20.49-.05-24.44-1-2.83-.38-5.38,5.94-10.71a.8.8,0,0,0,.3-.69.83.83,0,0,0-.4-.65,40.16,40.16,0,0,0-8-4,.84.84,0,0,0-.83.18.82.82,0,0,0-.25.78h0A16.68,16.68,0,0,1,793,30a7.19,7.19,0,0,1-6.1,4c-3.18.19-7.29,1.26-8.83,5.3-2.42,6.39-14.48,19.86-37.72,30.79a96,96,0,0,1-25.83,6.69,85.76,85.76,0,0,1-25.33-.59A70.17,70.17,0,0,1,661.69,65,.86.86,0,0,0,661.23,64.83Z"/><path class="cls-2" d="M712.63,97.15c2.35.19,4.73.2,7.09.17a119.9,119.9,0,0,0,17.54-1.51,95.34,95.34,0,0,0,22-6.16,65.88,65.88,0,0,0,21-13.74,57.62,57.62,0,0,0,14.33-24.2c.39-1.29.74-2.6,1.06-3.92.19-.79-1-1.13-1.22-.34a57.67,57.67,0,0,1-13.08,25.48A62.46,62.46,0,0,1,761,87.53a91.16,91.16,0,0,1-21.89,6.69,117.67,117.67,0,0,1-18,1.81c-1.91,0-3.82,0-5.73,0-.88,0-1.8-.17-2.68-.13a.25.25,0,0,1-.12,0c-.81-.06-.8,1.2,0,1.27Z"/><ellipse class="cls-2" cx="659.79" cy="67.54" rx="3.56" ry="1.64" transform="translate(156.99 500.06) rotate(-46.55)"/><ellipse class="cls-2" cx="798.73" cy="21.16" rx="1.16" ry="5.49" transform="translate(433.22 731.67) rotate(-64.29)"/><path class="cls-1" d="M794.32,19.83A16.24,16.24,0,0,1,794.76,30a6.86,6.86,0,0,1-5.28,4.56c-2.93.56-7.25,2.14-8.32,6.64-1.65,7-12.23,21.75-33.28,35.23,0,0-39.63,24.81-78.29,5.13a1.15,1.15,0,0,0-1.46.36l-2.73,3.86a1.15,1.15,0,0,0,.52,1.74c2,.78,5.78,3,8.47,8.72,3.86,8.32,24.61,15,24.61,15s42.13,13.44,78.12-13.06,26.12-57.76,22.9-64c-1.18-2.3-1.31-4.72,4.46-11a1.15,1.15,0,0,0-.37-1.82,40.76,40.76,0,0,0-8.5-2.94A1.15,1.15,0,0,0,794.32,19.83Z"/><path class="cls-2" d="M724.88,114.91h-.32a95,95,0,0,1-25.65-3.42c-.85-.27-20.93-6.79-24.81-15.14-2.64-5.7-6.33-7.81-8.29-8.56a1.46,1.46,0,0,1-.88-1,1.44,1.44,0,0,1,.21-1.27l2.73-3.86a1.47,1.47,0,0,1,1.86-.46c19.88,10.12,40,8.19,53.41,4.79a95.45,95.45,0,0,0,24.57-9.91c21.48-13.75,31.59-28.49,33.15-35,1.13-4.78,5.85-6.36,8.56-6.88a6.55,6.55,0,0,0,5-4.35,16.06,16.06,0,0,0-.44-9.94h0a1.46,1.46,0,0,1,.26-1.42,1.49,1.49,0,0,1,1.39-.5,41.38,41.38,0,0,1,8.57,3,1.48,1.48,0,0,1,.83,1,1.46,1.46,0,0,1-.36,1.28c-5.86,6.41-5.46,8.63-4.41,10.68,2,3.79,4.84,13.23,3.29,24.6a50.83,50.83,0,0,1-7,19.42c-4.47,7.39-11,14.26-19.3,20.39a83.22,83.22,0,0,1-27.49,13.27A94.51,94.51,0,0,1,724.88,114.91ZM669.07,81.72a.85.85,0,0,0-.68.35l-2.74,3.86a.86.86,0,0,0-.12.73.85.85,0,0,0,.51.54c2.05.79,5.89,3,8.63,8.88,3.77,8.1,24.22,14.74,24.43,14.81a94.09,94.09,0,0,0,25.49,3.39c13.66,0,33.82-2.78,52.34-16.41,15.23-11.21,24-24.47,26-39.39,1.54-11.21-1.3-20.5-3.22-24.22-1.38-2.68-1.07-5.29,4.51-11.39a.85.85,0,0,0,.2-.73.81.81,0,0,0-.47-.59,40.16,40.16,0,0,0-8.42-2.92.84.84,0,0,0-.79.29.8.8,0,0,0-.15.8h0a16.67,16.67,0,0,1,.44,10.35,7.19,7.19,0,0,1-5.52,4.77c-3.13.6-7.07,2.19-8.07,6.4-1.58,6.65-11.78,21.57-33.42,35.42a96.08,96.08,0,0,1-24.74,10,85.79,85.79,0,0,1-25.19,2.7,70.24,70.24,0,0,1-28.68-7.54A.78.78,0,0,0,669.07,81.72Z"/><path class="cls-2" d="M724,107.11c2.39-.11,4.78-.42,7.15-.76a117.69,117.69,0,0,0,17.12-3.74,95.92,95.92,0,0,0,21.12-9,65.56,65.56,0,0,0,19-16.39,57.47,57.47,0,0,0,11.09-26c.21-1.3.38-2.6.51-3.91.09-.8-1.17-.8-1.26,0a57.71,57.71,0,0,1-9.68,26.91,62.45,62.45,0,0,1-18.32,17.11A91.68,91.68,0,0,1,750,100.77a118.12,118.12,0,0,1-17.51,4.12c-2.77.44-5.57.58-8.34,1H724c-.81,0-.81,1.3,0,1.26Z"/><ellipse class="cls-2" cx="667.89" cy="84.6" rx="3.56" ry="1.64" transform="translate(206.84 575.18) rotate(-54)"/><ellipse class="cls-2" cx="799.65" cy="20.6" rx="1.16" ry="5.49" transform="translate(529.58 773.54) rotate(-71.74)"/><path class="cls-1" d="M796.5,20.23A16.22,16.22,0,0,1,799,30.07a6.87,6.87,0,0,1-4.25,5.54c-2.75,1.14-6.66,3.56-6.8,8.18C787.73,51,780.37,67.57,762.48,85c0,0-33.78,32.33-75.63,20.89a1.15,1.15,0,0,0-1.35.65l-1.9,4.33a1.15,1.15,0,0,0,.87,1.6c2.16.35,6.26,1.71,10.06,6.82,5.47,7.37,27.14,9.68,27.14,9.68s44,4.63,73.85-28.61S809.4,38.53,805,33.06c-1.63-2-2.24-4.35,2.13-11.7a1.15,1.15,0,0,0-.73-1.71,41.06,41.06,0,0,0-8.91-1.16A1.15,1.15,0,0,0,796.5,20.23Z"/><path class="cls-2" d="M727.29,129.53c-3.52,0-5.61-.21-5.65-.21-.9-.1-21.88-2.42-27.37-9.81-3.74-5-7.77-6.36-9.85-6.7a1.48,1.48,0,0,1-1.11-2l1.9-4.33a1.48,1.48,0,0,1,1.73-.83c21.51,5.89,40.84-.08,53.27-6.12A95.54,95.54,0,0,0,762.27,84.8c18.24-17.81,25.16-34.29,25.36-41,.14-4.9,4.44-7.41,7-8.46A6.58,6.58,0,0,0,798.68,30a16.08,16.08,0,0,0-2.45-9.65,1.46,1.46,0,0,1,1.22-2.21,41.26,41.26,0,0,1,9,1.16,1.46,1.46,0,0,1,1,.85,1.43,1.43,0,0,1-.09,1.33c-4.44,7.46-3.6,9.55-2.15,11.35,2.68,3.31,7.42,12,8.19,23.42a50.55,50.55,0,0,1-2.9,20.43c-2.89,8.15-7.86,16.19-14.77,23.88a83.29,83.29,0,0,1-24.23,18.57,94.85,94.85,0,0,1-24.07,8.3A102.73,102.73,0,0,1,727.29,129.53Zm-40.73-23.34a.83.83,0,0,0-.77.5l-1.9,4.34a.85.85,0,0,0,0,.73.88.88,0,0,0,.61.43c2.16.35,6.38,1.73,10.25,7,5.33,7.17,26.71,9.53,26.92,9.55a94,94,0,0,0,25.65-1.84c13.38-2.73,32.56-9.57,47.93-26.67,12.64-14.07,18.54-28.82,17.51-43.85-.76-11.28-5.42-19.81-8-23.07-1.9-2.35-2.12-5,2.1-12.07a.8.8,0,0,0,0-.75.83.83,0,0,0-.58-.48,40.08,40.08,0,0,0-8.83-1.15.82.82,0,0,0-.72.44.8.8,0,0,0,0,.82,16.64,16.64,0,0,1,2.54,10,7.19,7.19,0,0,1-4.45,5.79c-2.94,1.22-6.48,3.58-6.6,7.9-.2,6.83-7.17,23.51-25.56,41.46a96.23,96.23,0,0,1-22.2,14.79,85.83,85.83,0,0,1-24.13,7.74,70.22,70.22,0,0,1-29.6-1.57A.76.76,0,0,0,686.56,106.19Z"/><path class="cls-2" d="M745.4,119.93c2.29-.58,4.54-1.36,6.75-2.16a119.56,119.56,0,0,0,16.07-7.16,95.91,95.91,0,0,0,18.81-13,65.64,65.64,0,0,0,15.33-19.85A57.51,57.51,0,0,0,808,50.06c0-1.32-.15-2.64-.28-4-.08-.8-1.34-.81-1.26,0a58.06,58.06,0,0,1-4,28.35A62.41,62.41,0,0,1,788,94.94a91.1,91.1,0,0,1-18.48,13.5,115.81,115.81,0,0,1-16.37,7.61c-1.79.67-3.59,1.3-5.42,1.88-.84.26-1.75.44-2.58.76l-.12,0a.63.63,0,0,0,.34,1.21Z"/><ellipse class="cls-2" cx="685.81" cy="109.27" rx="3.56" ry="1.64" transform="translate(303.82 689.24) rotate(-65.68)"/><ellipse class="cls-2" cx="801.88" cy="19.91" rx="1.16" ry="5.49" transform="translate(690.34 814.24) rotate(-83.43)"/><path class="cls-3" d="M1004,10a2,2,0,0,1,2,2V248.21a2,2,0,0,1-2,2H646.57a2,2,0,0,1-2-2V12a2,2,0,0,1,2-2H1004m0-10H646.57a12,12,0,0,0-12,12V248.21a12,12,0,0,0,12,12H1004a12,12,0,0,0,12-12V12a12,12,0,0,0-12-12Z"/><path class="cls-1" d="M793.55,385.57a16.36,16.36,0,0,1-.87,10.12,6.87,6.87,0,0,1-5.84,3.83c-3,.18-7.46,1.19-9.1,5.51-2.54,6.69-15,20-37.57,30.61,0,0-42.51,19.47-78.3-5.06a1.15,1.15,0,0,0-1.49.17l-3.21,3.47a1.16,1.16,0,0,0,.3,1.8c1.92,1,5.35,3.67,7.26,9.74,2.75,8.75,22.47,18,22.47,18s40,18.79,79.14-2.82,33.4-53.89,31-60.5c-.88-2.44-.7-4.86,5.85-10.37a1.15,1.15,0,0,0-.14-1.85,40.71,40.71,0,0,0-8-4A1.16,1.16,0,0,0,793.55,385.57Z"/><path class="cls-2" d="M725.11,471.69a98,98,0,0,1-13.05-.88,94.52,94.52,0,0,1-25-6.72c-.81-.38-19.87-9.45-22.63-18.23-1.89-6-5.27-8.56-7.11-9.56a1.47,1.47,0,0,1-.38-2.29l3.21-3.47a1.47,1.47,0,0,1,1.9-.22c18.41,12.62,38.63,13.31,52.35,11.68A95.55,95.55,0,0,0,740,435.35c23.08-10.85,35-24.15,37.4-30.44,1.75-4.59,6.63-5.54,9.38-5.7a6.56,6.56,0,0,0,5.57-3.66,16,16,0,0,0,.85-9.92h0a1.47,1.47,0,0,1,1.88-1.69,41.5,41.5,0,0,1,8.12,4.05,1.48,1.48,0,0,1,.69,1.14,1.46,1.46,0,0,1-.52,1.22c-6.64,5.6-6.54,7.85-5.76,10,1.45,4,3.08,13.75.07,24.82a50.56,50.56,0,0,1-9.45,18.34c-5.39,6.76-12.72,12.72-21.77,17.72a83.25,83.25,0,0,1-29,9.6A90.61,90.61,0,0,1,725.11,471.69Zm-63.88-41a.84.84,0,0,0-.62.27l-3.21,3.47a.82.82,0,0,0-.21.7.81.81,0,0,0,.43.6c1.93,1.05,5.46,3.73,7.41,9.93,2.68,8.52,22.11,17.76,22.3,17.85a94.58,94.58,0,0,0,24.83,6.67c13.54,1.8,33.9,1.63,54-9.49,16.56-9.14,27-21.15,30.92-35.68,3-10.92,1.37-20.5-.05-24.44-1-2.84-.38-5.38,5.94-10.71a.82.82,0,0,0,.3-.7.83.83,0,0,0-.4-.64,40.16,40.16,0,0,0-8-4,.84.84,0,0,0-.83.19.8.8,0,0,0-.25.77h0a16.7,16.7,0,0,1-.9,10.32,7.21,7.21,0,0,1-6.1,4c-3.18.18-7.29,1.25-8.83,5.3-2.42,6.39-14.48,19.85-37.72,30.79a96,96,0,0,1-25.83,6.69,85.76,85.76,0,0,1-25.33-.59,70.17,70.17,0,0,1-27.46-11.19A.78.78,0,0,0,661.23,430.7Z"/><path class="cls-2" d="M712.63,463c2.35.19,4.73.2,7.09.17a119.9,119.9,0,0,0,17.54-1.51,95.84,95.84,0,0,0,22-6.16,65.74,65.74,0,0,0,21-13.75,57.53,57.53,0,0,0,14.33-24.19c.39-1.3.74-2.61,1.06-3.92.19-.79-1-1.13-1.22-.34a57.67,57.67,0,0,1-13.08,25.48A62.46,62.46,0,0,1,761,453.4a91.16,91.16,0,0,1-21.89,6.69,117.67,117.67,0,0,1-18,1.81c-1.91.05-3.82.05-5.73,0-.88,0-1.8-.17-2.68-.13h-.12c-.81-.06-.8,1.2,0,1.27Z"/><ellipse class="cls-2" cx="659.79" cy="433.41" rx="3.56" ry="1.64" transform="translate(-108.61 614.3) rotate(-46.55)"/><ellipse class="cls-2" cx="798.73" cy="387.03" rx="1.16" ry="5.49" transform="translate(103.56 938.84) rotate(-64.29)"/><path class="cls-1" d="M794.32,385.69a16.28,16.28,0,0,1,.44,10.15,6.87,6.87,0,0,1-5.28,4.56c-2.93.56-7.25,2.14-8.32,6.64-1.65,7-12.23,21.74-33.28,35.22,0,0-39.63,24.82-78.29,5.14a1.15,1.15,0,0,0-1.46.36l-2.73,3.86a1.15,1.15,0,0,0,.52,1.74c2,.78,5.78,2.95,8.47,8.72,3.86,8.32,24.61,15,24.61,15S741.13,490.5,777.12,464s26.12-57.76,22.9-64c-1.18-2.3-1.31-4.72,4.46-11a1.15,1.15,0,0,0-.37-1.82,40.19,40.19,0,0,0-8.5-2.94A1.15,1.15,0,0,0,794.32,385.69Z"/><path class="cls-2" d="M724.88,480.78h-.32a95,95,0,0,1-25.65-3.42c-.85-.28-20.93-6.8-24.81-15.15-2.64-5.69-6.33-7.8-8.29-8.56a1.46,1.46,0,0,1-.67-2.21l2.73-3.86a1.47,1.47,0,0,1,1.86-.46c19.88,10.12,40,8.19,53.41,4.79A95.87,95.87,0,0,0,747.71,442c21.48-13.76,31.59-28.49,33.15-35,1.13-4.77,5.85-6.35,8.56-6.87a6.56,6.56,0,0,0,5-4.35,16.06,16.06,0,0,0-.44-9.94h0a1.46,1.46,0,0,1,1.65-1.92,40.8,40.8,0,0,1,8.57,3,1.46,1.46,0,0,1,.47,2.32c-5.86,6.41-5.46,8.63-4.41,10.68,2,3.79,4.84,13.23,3.29,24.6a50.73,50.73,0,0,1-7,19.41c-4.47,7.4-11,14.26-19.3,20.4a83.22,83.22,0,0,1-27.49,13.27A94.51,94.51,0,0,1,724.88,480.78Zm-55.81-33.19a.83.83,0,0,0-.68.35l-2.74,3.86a.84.84,0,0,0,.39,1.27c2.05.78,5.89,3,8.63,8.88,3.77,8.1,24.22,14.74,24.43,14.81a94.57,94.57,0,0,0,25.49,3.39c13.66,0,33.82-2.78,52.34-16.41,15.23-11.22,24-24.47,26-39.39,1.54-11.21-1.3-20.5-3.22-24.22-1.38-2.69-1.07-5.3,4.51-11.4a.82.82,0,0,0,.2-.72.85.85,0,0,0-.47-.6,40.75,40.75,0,0,0-8.42-2.91.84.84,0,0,0-.79.28.82.82,0,0,0-.15.81h0a16.67,16.67,0,0,1,.44,10.35,7.2,7.2,0,0,1-5.52,4.77c-3.13.6-7.07,2.19-8.07,6.4-1.58,6.65-11.78,21.57-33.42,35.42a96.5,96.5,0,0,1-24.74,10,85.44,85.44,0,0,1-25.19,2.69,70.22,70.22,0,0,1-28.68-7.53A.78.78,0,0,0,669.07,447.59Z"/><path class="cls-2" d="M724,473c2.39-.11,4.78-.42,7.15-.76a117.69,117.69,0,0,0,17.12-3.74,96.4,96.4,0,0,0,21.12-9,65.56,65.56,0,0,0,19-16.39,57.47,57.47,0,0,0,11.09-26c.21-1.3.38-2.6.51-3.91.09-.81-1.17-.8-1.26,0a57.63,57.63,0,0,1-9.68,26.9,62.31,62.31,0,0,1-18.32,17.11A91.28,91.28,0,0,1,750,466.64a118.12,118.12,0,0,1-17.51,4.12c-2.77.44-5.57.58-8.34.95H724c-.81,0-.81,1.3,0,1.26Z"/><ellipse class="cls-2" cx="667.89" cy="450.47" rx="3.56" ry="1.64" transform="translate(-89.14 725.98) rotate(-54)"/><ellipse class="cls-2" cx="799.65" cy="386.47" rx="1.16" ry="5.49" transform="translate(182.13 1024.8) rotate(-71.74)"/><path class="cls-1" d="M796.5,386.1a16.22,16.22,0,0,1,2.49,9.84,6.88,6.88,0,0,1-4.25,5.54c-2.75,1.14-6.66,3.56-6.8,8.18-.21,7.16-7.57,23.78-25.46,41.24,0,0-33.78,32.33-75.63,20.88a1.15,1.15,0,0,0-1.35.65l-1.9,4.34a1.16,1.16,0,0,0,.87,1.6c2.16.35,6.26,1.71,10.06,6.82,5.47,7.37,27.14,9.68,27.14,9.68s44,4.63,73.85-28.61S809.4,404.4,805,398.93c-1.63-2-2.24-4.35,2.13-11.71a1.14,1.14,0,0,0-.73-1.7,41.06,41.06,0,0,0-8.91-1.16A1.15,1.15,0,0,0,796.5,386.1Z"/><path class="cls-2" d="M727.29,495.4c-3.52,0-5.61-.21-5.65-.22-.9-.09-21.88-2.41-27.37-9.8-3.74-5-7.77-6.36-9.85-6.7a1.48,1.48,0,0,1-1-.75,1.46,1.46,0,0,1-.06-1.29l1.9-4.33a1.48,1.48,0,0,1,1.73-.83c21.51,5.88,40.84-.08,53.27-6.12a95.92,95.92,0,0,0,22.06-14.69c18.24-17.81,25.16-34.29,25.36-41,.14-4.91,4.44-7.41,7-8.46a6.59,6.59,0,0,0,4.06-5.28,16.08,16.08,0,0,0-2.45-9.65,1.45,1.45,0,0,1,0-1.45,1.48,1.48,0,0,1,1.25-.77,41.23,41.23,0,0,1,9,1.17,1.44,1.44,0,0,1,1,.85,1.41,1.41,0,0,1-.09,1.32c-4.44,7.47-3.6,9.56-2.15,11.35,2.68,3.32,7.42,12,8.19,23.43a50.55,50.55,0,0,1-2.9,20.43c-2.89,8.15-7.86,16.18-14.77,23.88A83.08,83.08,0,0,1,771.52,485a94.48,94.48,0,0,1-24.07,8.31A102.73,102.73,0,0,1,727.29,495.4Zm-40.73-23.34a.83.83,0,0,0-.77.5l-1.9,4.34a.85.85,0,0,0,0,.73.84.84,0,0,0,.61.42c2.16.36,6.38,1.74,10.25,6.95,5.33,7.17,26.71,9.53,26.92,9.56a94.49,94.49,0,0,0,25.65-1.84c13.38-2.73,32.56-9.57,47.93-26.67,12.64-14.07,18.54-28.82,17.51-43.85-.76-11.29-5.42-19.81-8-23.07-1.9-2.35-2.12-5,2.1-12.07a.8.8,0,0,0,0-.75.84.84,0,0,0-.58-.49,41.31,41.31,0,0,0-8.83-1.15.83.83,0,0,0-.72.45.79.79,0,0,0,0,.81A16.7,16.7,0,0,1,799.31,396a7.22,7.22,0,0,1-4.45,5.79c-2.94,1.22-6.48,3.58-6.6,7.9-.2,6.83-7.17,23.51-25.56,41.45a95.7,95.7,0,0,1-22.2,14.8,85.83,85.83,0,0,1-24.13,7.74,70.22,70.22,0,0,1-29.6-1.57Z"/><path class="cls-2" d="M745.4,485.8c2.29-.58,4.54-1.36,6.75-2.16a119.56,119.56,0,0,0,16.07-7.16,95.91,95.91,0,0,0,18.81-13,65.68,65.68,0,0,0,15.33-19.86A57.45,57.45,0,0,0,808,415.93c0-1.32-.15-2.64-.28-3.95-.08-.8-1.34-.81-1.26,0a58.06,58.06,0,0,1-4,28.35A62.41,62.41,0,0,1,788,460.81a91.1,91.1,0,0,1-18.48,13.5,115.81,115.81,0,0,1-16.37,7.61c-1.79.67-3.59,1.3-5.42,1.87-.84.27-1.75.45-2.58.76l-.12,0a.63.63,0,0,0,.34,1.22Z"/><ellipse class="cls-2" cx="685.81" cy="475.14" rx="3.56" ry="1.64" transform="translate(-29.59 904.45) rotate(-65.68)"/><ellipse class="cls-2" cx="801.88" cy="385.78" rx="1.16" ry="5.49" transform="translate(326.88 1138.24) rotate(-83.43)"/><path class="cls-3" d="M1004,375.11a2,2,0,0,1,2,2v236.2a2,2,0,0,1-2,2H646.57a2,2,0,0,1-2-2V377.11a2,2,0,0,1,2-2H1004m0-10H646.57a12,12,0,0,0-12,12v236.2a12,12,0,0,0,12,12H1004a12,12,0,0,0,12-12V377.11a12,12,0,0,0-12-12Z"/><path class="cls-1" d="M793.55,750.68a16.33,16.33,0,0,1-.87,10.11,6.88,6.88,0,0,1-5.84,3.84c-3,.17-7.46,1.18-9.1,5.5-2.54,6.69-15,20-37.57,30.62,0,0-42.51,19.47-78.3-5.06a1.14,1.14,0,0,0-1.49.17l-3.21,3.47a1.15,1.15,0,0,0,.3,1.79c1.92,1,5.35,3.67,7.26,9.75,2.75,8.75,22.47,18,22.47,18s40,18.79,79.14-2.83,33.4-53.88,31-60.5c-.88-2.44-.7-4.85,5.85-10.36a1.15,1.15,0,0,0-.14-1.85,40.71,40.71,0,0,0-8-4A1.15,1.15,0,0,0,793.55,750.68Z"/><path class="cls-2" d="M725.11,836.8a98,98,0,0,1-13.05-.89,94.06,94.06,0,0,1-25-6.72c-.81-.38-19.87-9.44-22.63-18.23-1.89-6-5.27-8.56-7.11-9.56a1.46,1.46,0,0,1-.38-2.28l3.21-3.48a1.47,1.47,0,0,1,1.9-.21c18.41,12.61,38.63,13.31,52.35,11.67A95.33,95.33,0,0,0,740,800.46c23.08-10.85,35-24.15,37.4-30.44,1.75-4.59,6.63-5.55,9.38-5.71a6.55,6.55,0,0,0,5.57-3.65,16,16,0,0,0,.85-9.92h0a1.46,1.46,0,0,1,1.88-1.69,41,41,0,0,1,8.12,4.05,1.46,1.46,0,0,1,.17,2.36c-6.64,5.6-6.54,7.85-5.76,10,1.45,4,3.08,13.74.07,24.81a50.52,50.52,0,0,1-9.45,18.35c-5.39,6.76-12.72,12.72-21.77,17.72a83.25,83.25,0,0,1-29,9.6A90.61,90.61,0,0,1,725.11,836.8Zm-63.88-41a.88.88,0,0,0-.62.27l-3.21,3.47a.84.84,0,0,0,.22,1.31c1.93,1,5.46,3.72,7.41,9.92,2.68,8.52,22.11,17.76,22.3,17.85a93.67,93.67,0,0,0,24.83,6.67c13.54,1.81,33.9,1.64,54-9.48,16.56-9.15,27-21.15,30.92-35.68,3-10.92,1.37-20.5-.05-24.44-1-2.84-.38-5.39,5.94-10.71a.83.83,0,0,0,.3-.7.85.85,0,0,0-.4-.65,40.71,40.71,0,0,0-8-4,.86.86,0,0,0-.83.18.82.82,0,0,0-.25.78h0a16.71,16.71,0,0,1-.9,10.32,7.18,7.18,0,0,1-6.1,4c-3.18.19-7.29,1.26-8.83,5.3-2.42,6.39-14.48,19.86-37.72,30.79a96.25,96.25,0,0,1-25.83,6.7,85.76,85.76,0,0,1-25.33-.59A70.32,70.32,0,0,1,661.69,796,.79.79,0,0,0,661.23,795.8Z"/><path class="cls-2" d="M712.63,828.12c2.35.2,4.73.2,7.09.17a119.88,119.88,0,0,0,17.54-1.5,95.86,95.86,0,0,0,22-6.17,65.88,65.88,0,0,0,21-13.74,57.65,57.65,0,0,0,14.33-24.19c.39-1.3.74-2.61,1.06-3.93.19-.79-1-1.12-1.22-.33a57.58,57.58,0,0,1-13.08,25.47A62.49,62.49,0,0,1,761,818.51a91.59,91.59,0,0,1-21.89,6.68,115.2,115.2,0,0,1-18,1.81q-2.86.07-5.73,0c-.88,0-1.8-.18-2.68-.13h-.12c-.81-.07-.8,1.19,0,1.26Z"/><ellipse class="cls-2" cx="659.79" cy="798.52" rx="3.56" ry="1.64" transform="translate(-373.66 728.3) rotate(-46.55)"/><ellipse class="cls-2" cx="798.73" cy="752.14" rx="1.16" ry="5.49" transform="translate(-225.41 1145.59) rotate(-64.29)"/><path class="cls-1" d="M794.32,750.8a16.25,16.25,0,0,1,.44,10.14,6.87,6.87,0,0,1-5.28,4.57c-2.93.55-7.25,2.14-8.32,6.63-1.65,7-12.23,21.75-33.28,35.23,0,0-39.63,24.82-78.29,5.13a1.15,1.15,0,0,0-1.46.37l-2.73,3.86a1.15,1.15,0,0,0,.52,1.74c2,.78,5.78,2.94,8.47,8.72,3.86,8.32,24.61,15,24.61,15s42.13,13.44,78.12-13.06,26.12-57.76,22.9-64c-1.18-2.31-1.31-4.72,4.46-11a1.15,1.15,0,0,0-.37-1.82,41.35,41.35,0,0,0-8.5-2.94A1.15,1.15,0,0,0,794.32,750.8Z"/><path class="cls-2" d="M724.88,845.89h-.32a94,94,0,0,1-25.65-3.42c-.85-.27-20.93-6.79-24.81-15.14-2.64-5.69-6.33-7.81-8.29-8.56a1.45,1.45,0,0,1-.88-.94,1.46,1.46,0,0,1,.21-1.28l2.73-3.86a1.48,1.48,0,0,1,1.86-.46c19.88,10.12,40,8.2,53.41,4.8a95.66,95.66,0,0,0,24.57-9.92c21.48-13.75,31.59-28.48,33.15-35,1.13-4.78,5.85-6.36,8.56-6.87a6.58,6.58,0,0,0,5-4.35,16.09,16.09,0,0,0-.44-10h0a1.46,1.46,0,0,1,.26-1.42,1.49,1.49,0,0,1,1.39-.5,41.36,41.36,0,0,1,8.57,3,1.45,1.45,0,0,1,.83,1,1.47,1.47,0,0,1-.36,1.28c-5.86,6.41-5.46,8.62-4.41,10.67,2,3.79,4.84,13.24,3.29,24.6a50.77,50.77,0,0,1-7,19.42c-4.47,7.4-11,14.26-19.3,20.39a83.25,83.25,0,0,1-27.49,13.28A94.51,94.51,0,0,1,724.88,845.89ZM669.07,812.7a.83.83,0,0,0-.68.35l-2.74,3.86a.83.83,0,0,0,.39,1.26c2.05.79,5.89,3,8.63,8.88,3.77,8.1,24.22,14.75,24.43,14.81a93.62,93.62,0,0,0,25.49,3.39c13.66,0,33.82-2.77,52.34-16.4,15.23-11.22,24-24.47,26-39.39,1.54-11.21-1.3-20.5-3.22-24.23-1.38-2.68-1.07-5.29,4.51-11.39a.84.84,0,0,0,.2-.73.83.83,0,0,0-.47-.59,41.33,41.33,0,0,0-8.42-2.92.84.84,0,0,0-.79.29.82.82,0,0,0-.15.81h0a16.63,16.63,0,0,1,.44,10.34,7.2,7.2,0,0,1-5.52,4.78c-3.13.59-7.07,2.19-8.07,6.4-1.58,6.64-11.78,21.56-33.42,35.41a95.66,95.66,0,0,1-24.74,10,85.79,85.79,0,0,1-25.19,2.7,70.24,70.24,0,0,1-28.68-7.54A.77.77,0,0,0,669.07,812.7Z"/><path class="cls-2" d="M724,838.09c2.39-.11,4.78-.42,7.15-.76a120.38,120.38,0,0,0,17.12-3.74,96,96,0,0,0,21.12-9,65.53,65.53,0,0,0,19-16.38,57.51,57.51,0,0,0,11.09-26c.21-1.29.38-2.6.51-3.9.09-.81-1.17-.8-1.26,0a57.67,57.67,0,0,1-9.68,26.9,62.31,62.31,0,0,1-18.32,17.11A91.71,91.71,0,0,1,750,831.75a118.12,118.12,0,0,1-17.51,4.12c-2.77.43-5.57.58-8.34,1H724c-.81,0-.81,1.3,0,1.26Z"/><ellipse class="cls-2" cx="667.89" cy="815.58" rx="3.56" ry="1.64" transform="translate(-384.51 876.46) rotate(-54)"/><ellipse class="cls-2" cx="799.65" cy="751.58" rx="1.16" ry="5.49" transform="translate(-164.6 1275.53) rotate(-71.74)"/><path class="cls-1" d="M796.5,751.2a16.27,16.27,0,0,1,2.49,9.85,6.86,6.86,0,0,1-4.25,5.53c-2.75,1.14-6.66,3.57-6.8,8.19-.21,7.15-7.57,23.77-25.46,41.23,0,0-33.78,32.33-75.63,20.89a1.15,1.15,0,0,0-1.35.65l-1.9,4.33a1.15,1.15,0,0,0,.87,1.6c2.16.36,6.26,1.72,10.06,6.83,5.47,7.36,27.14,9.68,27.14,9.68s44,4.63,73.85-28.62S809.4,769.51,805,764c-1.63-2-2.24-4.36,2.13-11.71a1.15,1.15,0,0,0-.73-1.71,40.48,40.48,0,0,0-8.91-1.15A1.15,1.15,0,0,0,796.5,751.2Z"/><path class="cls-2" d="M727.29,860.5a56.25,56.25,0,0,1-5.65-.21c-.9-.09-21.88-2.41-27.37-9.8-3.74-5-7.77-6.37-9.85-6.71a1.44,1.44,0,0,1-1-.74,1.46,1.46,0,0,1-.06-1.29l1.9-4.34a1.47,1.47,0,0,1,1.73-.82c21.51,5.88,40.84-.09,53.27-6.13a95.71,95.71,0,0,0,22.06-14.68c18.24-17.82,25.16-34.29,25.36-41,.14-4.91,4.44-7.41,7-8.47a6.58,6.58,0,0,0,4.06-5.28,16.12,16.12,0,0,0-2.45-9.65,1.43,1.43,0,0,1,0-1.44,1.45,1.45,0,0,1,1.25-.77,40.63,40.63,0,0,1,9,1.17,1.44,1.44,0,0,1,1,.84,1.43,1.43,0,0,1-.09,1.33c-4.44,7.46-3.6,9.56-2.15,11.35,2.68,3.32,7.42,12,8.19,23.42a50.52,50.52,0,0,1-2.9,20.43c-2.89,8.16-7.86,16.19-14.77,23.88a83.11,83.11,0,0,1-24.23,18.57,94.46,94.46,0,0,1-24.07,8.3A102,102,0,0,1,727.29,860.5Zm-40.73-23.33a.83.83,0,0,0-.77.5l-1.9,4.33a.84.84,0,0,0,.64,1.16c2.16.36,6.38,1.73,10.25,7,5.33,7.17,26.71,9.53,26.92,9.55a94,94,0,0,0,25.65-1.84c13.38-2.73,32.56-9.57,47.93-26.67,12.64-14.07,18.54-28.82,17.51-43.84-.76-11.29-5.42-19.82-8-23.07-1.9-2.35-2.12-5,2.1-12.07a.82.82,0,0,0,0-.76.85.85,0,0,0-.58-.48,40.69,40.69,0,0,0-8.83-1.15.84.84,0,0,0-.72.44.8.8,0,0,0,0,.82,16.64,16.64,0,0,1,2.54,10,7.19,7.19,0,0,1-4.45,5.79c-2.94,1.22-6.48,3.58-6.6,7.91-.2,6.83-7.17,23.5-25.56,41.45A95.86,95.86,0,0,1,740.5,831a85.85,85.85,0,0,1-24.13,7.75,70.05,70.05,0,0,1-29.6-1.58Z"/><path class="cls-2" d="M745.4,850.91c2.29-.59,4.54-1.36,6.75-2.16a119.56,119.56,0,0,0,16.07-7.16,96.78,96.78,0,0,0,18.81-13,65.68,65.68,0,0,0,15.33-19.86A57.5,57.5,0,0,0,808,781c0-1.32-.15-2.64-.28-4-.08-.8-1.34-.81-1.26,0a58,58,0,0,1-4,28.35A62.31,62.31,0,0,1,788,825.91a91.53,91.53,0,0,1-18.48,13.51A118.09,118.09,0,0,1,753.18,847c-1.79.67-3.59,1.3-5.42,1.87-.84.27-1.75.45-2.58.76l-.12,0a.63.63,0,0,0,.34,1.22Z"/><ellipse class="cls-2" cx="685.81" cy="840.25" rx="3.56" ry="1.64" transform="translate(-362.3 1119.2) rotate(-65.68)"/><ellipse class="cls-2" cx="801.88" cy="750.88" rx="1.16" ry="5.49" transform="translate(-35.83 1461.57) rotate(-83.43)"/><path class="cls-1" d="M793.55,861.84a16.35,16.35,0,0,1-.87,10.12,6.87,6.87,0,0,1-5.84,3.83c-3,.18-7.46,1.19-9.1,5.51-2.54,6.69-15,20-37.57,30.61,0,0-42.51,19.47-78.3-5.06a1.16,1.16,0,0,0-1.49.17l-3.21,3.48a1.15,1.15,0,0,0,.3,1.79c1.92,1,5.35,3.67,7.26,9.75,2.75,8.75,22.47,18,22.47,18s40,18.78,79.14-2.83,33.4-53.89,31-60.5c-.88-2.44-.7-4.85,5.85-10.37a1.15,1.15,0,0,0-.14-1.85,40.16,40.16,0,0,0-8-4A1.15,1.15,0,0,0,793.55,861.84Z"/><path class="cls-2" d="M725.11,948a98,98,0,0,1-13.05-.88,94.52,94.52,0,0,1-25-6.72c-.81-.38-19.87-9.45-22.63-18.23-1.89-6-5.27-8.56-7.11-9.56a1.43,1.43,0,0,1-.75-1.05,1.45,1.45,0,0,1,.37-1.24l3.21-3.47a1.48,1.48,0,0,1,1.9-.22c18.41,12.62,38.63,13.32,52.35,11.68A96.22,96.22,0,0,0,740,911.63c23.08-10.85,35-24.15,37.4-30.44,1.75-4.59,6.63-5.55,9.38-5.71a6.54,6.54,0,0,0,5.57-3.66,16,16,0,0,0,.85-9.91h0a1.47,1.47,0,0,1,1.88-1.7,41.5,41.5,0,0,1,8.12,4,1.47,1.47,0,0,1,.17,2.37c-6.64,5.59-6.54,7.84-5.76,10,1.45,4,3.08,13.75.07,24.82a50.6,50.6,0,0,1-9.45,18.35c-5.39,6.75-12.72,12.71-21.77,17.72a83.44,83.44,0,0,1-29,9.59A90.61,90.61,0,0,1,725.11,948Zm-63.88-41a.84.84,0,0,0-.62.27l-3.21,3.47a.82.82,0,0,0-.21.7.81.81,0,0,0,.43.6c1.93,1,5.46,3.73,7.41,9.93,2.68,8.52,22.11,17.76,22.3,17.85a94.12,94.12,0,0,0,24.83,6.67c13.54,1.81,33.9,1.63,54-9.49,16.56-9.14,27-21.15,30.92-35.68,3-10.91,1.37-20.49-.05-24.44-1-2.83-.38-5.38,5.94-10.71a.8.8,0,0,0,.3-.69.83.83,0,0,0-.4-.65,40.16,40.16,0,0,0-8-4,.84.84,0,0,0-.83.18.82.82,0,0,0-.25.78h0a16.68,16.68,0,0,1-.9,10.31,7.19,7.19,0,0,1-6.1,4c-3.18.19-7.29,1.26-8.83,5.3-2.42,6.39-14.48,19.86-37.72,30.79a96,96,0,0,1-25.83,6.69,85.76,85.76,0,0,1-25.33-.59,70.17,70.17,0,0,1-27.46-11.19A.86.86,0,0,0,661.23,907Z"/><path class="cls-2" d="M712.63,939.29c2.35.19,4.73.2,7.09.17A119.9,119.9,0,0,0,737.26,938a95.34,95.34,0,0,0,22-6.16,65.88,65.88,0,0,0,21-13.74,57.62,57.62,0,0,0,14.33-24.2c.39-1.29.74-2.6,1.06-3.92.19-.79-1-1.13-1.22-.34a57.67,57.67,0,0,1-13.08,25.48A62.46,62.46,0,0,1,761,929.67a91.16,91.16,0,0,1-21.89,6.69,117.67,117.67,0,0,1-18,1.81c-1.91.05-3.82.05-5.73,0-.88,0-1.8-.17-2.68-.13h-.12c-.81-.07-.8,1.19,0,1.26Z"/><ellipse class="cls-2" cx="659.79" cy="909.68" rx="3.56" ry="1.64" transform="translate(-454.36 763.02) rotate(-46.55)"/><ellipse class="cls-2" cx="798.73" cy="863.3" rx="1.16" ry="5.49" transform="translate(-325.58 1208.54) rotate(-64.29)"/><path class="cls-1" d="M794.32,862a16.24,16.24,0,0,1,.44,10.14,6.86,6.86,0,0,1-5.28,4.56c-2.93.56-7.25,2.14-8.32,6.64-1.65,7-12.23,21.75-33.28,35.23,0,0-39.63,24.81-78.29,5.13a1.15,1.15,0,0,0-1.46.36l-2.73,3.86a1.15,1.15,0,0,0,.52,1.74c2,.78,5.78,3,8.47,8.72,3.86,8.32,24.61,15,24.61,15s42.13,13.44,78.12-13.06,26.12-57.76,22.9-64c-1.18-2.3-1.31-4.72,4.46-11a1.15,1.15,0,0,0-.37-1.82,40.76,40.76,0,0,0-8.5-2.94A1.15,1.15,0,0,0,794.32,862Z"/><path class="cls-2" d="M724.88,957.05h-.32a95,95,0,0,1-25.65-3.42c-.85-.27-20.93-6.79-24.81-15.14-2.64-5.7-6.33-7.81-8.29-8.56a1.46,1.46,0,0,1-.88-.95,1.44,1.44,0,0,1,.21-1.27l2.73-3.86a1.47,1.47,0,0,1,1.86-.46c19.88,10.12,40,8.19,53.41,4.79a95.45,95.45,0,0,0,24.57-9.91c21.48-13.75,31.59-28.49,33.15-35,1.13-4.78,5.85-6.36,8.56-6.88a6.55,6.55,0,0,0,5-4.35,16.06,16.06,0,0,0-.44-9.94h0a1.46,1.46,0,0,1,.26-1.42,1.49,1.49,0,0,1,1.39-.5,41.38,41.38,0,0,1,8.57,3,1.48,1.48,0,0,1,.83,1,1.46,1.46,0,0,1-.36,1.28c-5.86,6.41-5.46,8.63-4.41,10.68,2,3.79,4.84,13.23,3.29,24.6a50.83,50.83,0,0,1-7,19.42c-4.47,7.39-11,14.26-19.3,20.39a83.22,83.22,0,0,1-27.49,13.27A94.51,94.51,0,0,1,724.88,957.05Zm-55.81-33.19a.85.85,0,0,0-.68.35l-2.74,3.86a.86.86,0,0,0-.12.73.85.85,0,0,0,.51.54c2.05.79,5.89,3,8.63,8.88,3.77,8.1,24.22,14.74,24.43,14.81a94.09,94.09,0,0,0,25.49,3.39c13.66,0,33.82-2.77,52.34-16.41,15.23-11.21,24-24.47,26-39.39,1.54-11.21-1.3-20.5-3.22-24.22-1.38-2.68-1.07-5.29,4.51-11.39a.85.85,0,0,0,.2-.73.81.81,0,0,0-.47-.59,40.16,40.16,0,0,0-8.42-2.92.84.84,0,0,0-.79.29.8.8,0,0,0-.15.8h0a16.67,16.67,0,0,1,.44,10.35,7.19,7.19,0,0,1-5.52,4.77c-3.13.6-7.07,2.19-8.07,6.4C779.89,890,769.69,905,748.05,918.8a96.08,96.08,0,0,1-24.74,10,85.79,85.79,0,0,1-25.19,2.7A70.24,70.24,0,0,1,669.44,924,.78.78,0,0,0,669.07,923.86Z"/><path class="cls-2" d="M724,949.25c2.39-.11,4.78-.42,7.15-.76a117.69,117.69,0,0,0,17.12-3.74,95.92,95.92,0,0,0,21.12-9,65.56,65.56,0,0,0,19-16.39,57.47,57.47,0,0,0,11.09-26c.21-1.3.38-2.6.51-3.91.09-.8-1.17-.8-1.26,0a57.71,57.71,0,0,1-9.68,26.91,62.45,62.45,0,0,1-18.32,17.11A91.25,91.25,0,0,1,750,942.91,118.12,118.12,0,0,1,732.49,947c-2.77.44-5.57.58-8.34,1H724c-.81,0-.81,1.3,0,1.26Z"/><ellipse class="cls-2" cx="667.89" cy="926.74" rx="3.56" ry="1.64" transform="translate(-474.44 922.28) rotate(-54)"/><ellipse class="cls-2" cx="799.65" cy="862.74" rx="1.16" ry="5.49" transform="translate(-270.17 1351.87) rotate(-71.74)"/><path class="cls-1" d="M796.5,862.37a16.22,16.22,0,0,1,2.49,9.84,6.87,6.87,0,0,1-4.25,5.54c-2.75,1.14-6.66,3.56-6.8,8.18-.21,7.16-7.57,23.78-25.46,41.24,0,0-33.78,32.33-75.63,20.89a1.15,1.15,0,0,0-1.35.65L683.6,953a1.15,1.15,0,0,0,.87,1.6c2.16.35,6.26,1.71,10.06,6.82,5.47,7.37,27.14,9.68,27.14,9.68s44,4.63,73.85-28.61S809.4,880.67,805,875.2c-1.63-2-2.24-4.35,2.13-11.7a1.15,1.15,0,0,0-.73-1.71,41.06,41.06,0,0,0-8.91-1.16A1.15,1.15,0,0,0,796.5,862.37Z"/><path class="cls-2" d="M727.29,971.67c-3.52,0-5.61-.21-5.65-.21-.9-.1-21.88-2.42-27.37-9.81-3.74-5-7.77-6.36-9.85-6.7a1.48,1.48,0,0,1-1.11-2l1.9-4.33a1.48,1.48,0,0,1,1.73-.83c21.51,5.89,40.84-.08,53.27-6.12a95.54,95.54,0,0,0,22.06-14.69c18.24-17.81,25.16-34.29,25.36-41,.14-4.9,4.44-7.41,7-8.46a6.58,6.58,0,0,0,4.06-5.28,16.08,16.08,0,0,0-2.45-9.65,1.46,1.46,0,0,1,1.22-2.21,41.26,41.26,0,0,1,9,1.16,1.48,1.48,0,0,1,1,.85,1.43,1.43,0,0,1-.09,1.33c-4.44,7.46-3.6,9.55-2.15,11.35,2.68,3.31,7.42,12,8.19,23.42a50.55,50.55,0,0,1-2.9,20.43c-2.89,8.15-7.86,16.19-14.77,23.88a83.29,83.29,0,0,1-24.23,18.57,94.85,94.85,0,0,1-24.07,8.3A102.73,102.73,0,0,1,727.29,971.67Zm-40.73-23.34a.83.83,0,0,0-.77.5l-1.9,4.34a.85.85,0,0,0,0,.73.88.88,0,0,0,.61.43c2.16.35,6.38,1.73,10.25,6.95,5.33,7.17,26.71,9.53,26.92,9.55A94,94,0,0,0,747.35,969c13.38-2.73,32.56-9.57,47.93-26.67,12.64-14.07,18.54-28.82,17.51-43.85-.76-11.28-5.42-19.81-8-23.07-1.9-2.34-2.12-5,2.1-12.07a.8.8,0,0,0,0-.75.83.83,0,0,0-.58-.48,40.08,40.08,0,0,0-8.83-1.15.82.82,0,0,0-.72.44.8.8,0,0,0,0,.82,16.64,16.64,0,0,1,2.54,10,7.19,7.19,0,0,1-4.45,5.79c-2.94,1.22-6.48,3.58-6.6,7.9-.2,6.83-7.17,23.51-25.56,41.46a96.23,96.23,0,0,1-22.2,14.79,85.5,85.5,0,0,1-24.13,7.74,70.22,70.22,0,0,1-29.6-1.57Z"/><path class="cls-2" d="M745.4,962.07c2.29-.58,4.54-1.36,6.75-2.16a120.78,120.78,0,0,0,16.07-7.15,96.39,96.39,0,0,0,18.81-13,65.64,65.64,0,0,0,15.33-19.85A57.5,57.5,0,0,0,808,892.21c0-1.33-.15-2.65-.28-4-.08-.8-1.34-.81-1.26,0a58.06,58.06,0,0,1-4,28.35A62.41,62.41,0,0,1,788,937.08a91.1,91.1,0,0,1-18.48,13.5,115.81,115.81,0,0,1-16.37,7.61c-1.79.67-3.59,1.3-5.42,1.88-.84.26-1.75.44-2.58.76l-.12,0a.63.63,0,0,0,.34,1.21Z"/><ellipse class="cls-2" cx="685.81" cy="951.41" rx="3.56" ry="1.64" transform="translate(-463.6 1184.59) rotate(-65.68)"/><ellipse class="cls-2" cx="801.88" cy="862.05" rx="1.16" ry="5.49" transform="translate(-146.27 1560.02) rotate(-83.43)"/><path class="cls-3" d="M1004,740.21a2,2,0,0,1,2,2V978.42a2,2,0,0,1-2,2H646.57a2,2,0,0,1-2-2V742.21a2,2,0,0,1,2-2H1004m0-10H646.57a12,12,0,0,0-12,12V978.42a12,12,0,0,0,12,12H1004a12,12,0,0,0,12-12V742.21a12,12,0,0,0-12-12Z"/><path class="cls-3" d="M397,115.56a2,2,0,0,1,2,2V866.45a2,2,0,0,1-2,2H12a2,2,0,0,1-2-2V117.56a2,2,0,0,1,2-2H397m0-10H12a12,12,0,0,0-12,12V866.45a12,12,0,0,0,12,12H397a12,12,0,0,0,12-12V117.56a12,12,0,0,0-12-12Z"/><line class="cls-4" x1="403.08" y1="175.99" x2="638.7" y2="102.44"/><line class="cls-4" x1="403.86" y1="789.87" x2="639.3" y2="906.04"/><line class="cls-4" x1="409" y1="492.68" x2="634.57" y2="492.68"/><g id="Manzana"><ellipse class="cls-5" cx="113.12" cy="323.73" rx="41.69" ry="49.19"/><ellipse class="cls-5" cx="138.9" cy="323.73" rx="41.69" ry="49.19"/><path class="cls-6" d="M125.84,281.34s-3.57-14.9,5.29-22.29c0,.22,0,3.31,0,3.31s-6,2.87-2.6,19C128.49,281.34,128,283.33,125.84,281.34Z"/><path class="cls-7" d="M113.65,257.95h0a12.8,12.8,0,0,1,12.8,12.8v0a0,0,0,0,1,0,0h0a12.8,12.8,0,0,1-12.8-12.8v0A0,0,0,0,1,113.65,257.95Z"/><path class="cls-8" d="M113.21,274.59s-49.23,38.63,0,98.23c0,0-38.85.89-41.72-49a51.4,51.4,0,0,1,6.05-25.62c4.45-8.52,10.94-16.54,21.54-20.74S113.21,274.59,113.21,274.59Z"/></g><g id="Manzana-2" data-name="Manzana"><ellipse class="cls-5" cx="283.95" cy="323.73" rx="41.69" ry="49.19"/><ellipse class="cls-5" cx="309.73" cy="323.73" rx="41.69" ry="49.19"/><path class="cls-6" d="M296.67,281.34s-3.58-14.9,5.29-22.29c0,.22,0,3.31,0,3.31s-6,2.87-2.61,19C299.31,281.34,298.79,283.33,296.67,281.34Z"/><path class="cls-7" d="M284.48,257.95h0a12.8,12.8,0,0,1,12.8,12.8v0a0,0,0,0,1,0,0h0a12.8,12.8,0,0,1-12.8-12.8v0A0,0,0,0,1,284.48,257.95Z"/><path class="cls-8" d="M284,274.59s-49.23,38.63,0,98.23c0,0-38.86.89-41.73-49a51.48,51.48,0,0,1,6.06-25.62c4.45-8.52,10.94-16.54,21.54-20.74S284,274.59,284,274.59Z"/></g><g id="Naranja"><circle class="cls-9" cx="126.13" cy="445.98" r="53.01"/><path class="cls-10" d="M159.79,473.29a41.61,41.61,0,0,0,5.75-10.08,47.3,47.3,0,0,0,3.38-25,50.12,50.12,0,0,0-6.55-18.12,1,1,0,0,0-1.7,1A46,46,0,0,1,167,450.52a47.79,47.79,0,0,1-6.58,18.34q-.72,1.2-1.53,2.34l-.48.65,0,0c-.79,1,.59,2.38,1.39,1.39Z"/><circle class="cls-11" cx="97.87" cy="419.91" r="4.16"/><circle class="cls-11" cx="90.43" cy="431.52" r="3.29"/><circle class="cls-11" cx="99.95" cy="430.32" r="2.08"/><path class="cls-7" d="M107.51,379.39h1.26a13,13,0,0,1,13,13v1.26a0,0,0,0,1,0,0h-1.26a13,13,0,0,1-13-13v-1.26A0,0,0,0,1,107.51,379.39Z"/><path class="cls-7" d="M134.72,379.39H136a0,0,0,0,1,0,0v1.26a13,13,0,0,1-13,13h-1.26a0,0,0,0,1,0,0v-1.26A13,13,0,0,1,134.72,379.39Z" transform="translate(257.74 773.02) rotate(180)"/></g><g id="Naranja-2" data-name="Naranja"><circle class="cls-9" cx="290.88" cy="445.98" r="53.01"/><path class="cls-10" d="M324.54,473.29a41.61,41.61,0,0,0,5.75-10.08,47.3,47.3,0,0,0,3.38-25,50.12,50.12,0,0,0-6.55-18.12,1,1,0,0,0-1.7,1,46,46,0,0,1,6.36,29.44,47.79,47.79,0,0,1-6.58,18.34q-.72,1.2-1.53,2.34c-.16.22-.32.44-.49.65.06-.07.11-.13,0,0-.8,1,.59,2.38,1.39,1.39Z"/><circle class="cls-11" cx="262.62" cy="419.91" r="4.16"/><circle class="cls-11" cx="255.17" cy="431.52" r="3.29"/><circle class="cls-11" cx="264.7" cy="430.32" r="2.08"/><path class="cls-7" d="M272.26,379.39h1.26a13,13,0,0,1,13,13v1.26a0,0,0,0,1,0,0h-1.26a13,13,0,0,1-13-13v-1.26A0,0,0,0,1,272.26,379.39Z"/><path class="cls-7" d="M299.47,379.39h1.26a0,0,0,0,1,0,0v1.26a13,13,0,0,1-13,13H286.5a0,0,0,0,1,0,0v-1.26A13,13,0,0,1,299.47,379.39Z" transform="translate(587.23 773.02) rotate(180)"/></g><g id="Pera"><circle class="cls-12" cx="121.56" cy="591.17" r="34.68"/><circle class="cls-12" cx="121.56" cy="555.38" r="23.49"/><path class="cls-13" d="M120.47,538.6l4.86-34,6-.6s-4.14,3.55-9.28,35.12Z"/><path class="cls-14" d="M148.83,507s-13.27-7.2-21.77,5C127.06,512,135.34,528.06,148.83,507Z"/><path class="cls-15" d="M120.29,531.91a29.69,29.69,0,0,0-11.78,4.19c-16,11.45-8.88,27.36-8.73,28.09h0c-18.49,16.91-16.25,41.52,1.65,54.94.95.72,11.36,6.72,17.9,6.72h0l-.24-.37a84.7,84.7,0,0,1,.76-92.93C120.13,532.13,120.29,531.91,120.29,531.91Z"/></g><g id="Pera-2" data-name="Pera"><circle class="cls-12" cx="290.88" cy="592.02" r="34.68"/><circle class="cls-12" cx="290.88" cy="556.23" r="23.49"/><path class="cls-13" d="M289.78,539.45l4.86-34,6-.61s-4.14,3.56-9.28,35.13Z"/><path class="cls-14" d="M318.15,507.84s-13.27-7.2-21.77,5C296.38,512.84,304.65,528.91,318.15,507.84Z"/><path class="cls-15" d="M289.6,532.76a29.6,29.6,0,0,0-11.77,4.2c-16,11.44-8.89,27.36-8.73,28.08h0c-18.49,16.92-16.25,41.52,1.64,55,1,.71,11.36,6.71,17.9,6.71h0l-.23-.37a84.66,84.66,0,0,1,.76-92.93Z"/></g><g id="Manzana-3" data-name="Manzana"><ellipse class="cls-5" cx="113.12" cy="799.96" rx="41.69" ry="49.19"/><ellipse class="cls-5" cx="138.9" cy="799.96" rx="41.69" ry="49.19"/><path class="cls-6" d="M125.84,757.57s-3.57-14.9,5.29-22.29c0,.22,0,3.31,0,3.31s-6,2.87-2.6,19C128.49,757.57,128,759.56,125.84,757.57Z"/><path class="cls-7" d="M113.65,734.17h0a12.8,12.8,0,0,1,12.8,12.8v0a0,0,0,0,1,0,0h0a12.8,12.8,0,0,1-12.8-12.8v0A0,0,0,0,1,113.65,734.17Z"/><path class="cls-8" d="M113.21,750.82s-49.23,38.63,0,98.23c0,0-38.85.89-41.72-49a51.38,51.38,0,0,1,6.05-25.62c4.45-8.53,10.94-16.54,21.54-20.74S113.21,750.82,113.21,750.82Z"/></g><g id="Manzana-4" data-name="Manzana"><ellipse class="cls-5" cx="283.95" cy="799.96" rx="41.69" ry="49.19"/><ellipse class="cls-5" cx="309.73" cy="799.96" rx="41.69" ry="49.19"/><path class="cls-6" d="M296.67,757.57s-3.58-14.9,5.29-22.29c0,.22,0,3.31,0,3.31s-6,2.87-2.61,19C299.31,757.57,298.79,759.56,296.67,757.57Z"/><path class="cls-7" d="M284.48,734.17h0a12.8,12.8,0,0,1,12.8,12.8v0a0,0,0,0,1,0,0h0a12.8,12.8,0,0,1-12.8-12.8v0A0,0,0,0,1,284.48,734.17Z"/><path class="cls-8" d="M284,750.82s-49.23,38.63,0,98.23c0,0-38.86.89-41.73-49a51.46,51.46,0,0,1,6.06-25.62c4.45-8.53,10.94-16.54,21.54-20.74S284,750.82,284,750.82Z"/></g><g id="Manzana-5" data-name="Manzana"><ellipse class="cls-5" cx="887.37" cy="82.79" rx="35.68" ry="42.1"/><ellipse class="cls-5" cx="909.43" cy="82.79" rx="35.68" ry="42.1"/><path class="cls-6" d="M898.25,46.52s-3.06-12.76,4.53-19.09c0,.19,0,2.84,0,2.84s-5.1,2.45-2.22,16.25C900.52,46.52,900.06,48.22,898.25,46.52Z"/><path class="cls-7" d="M887.82,26.49h0a11,11,0,0,1,11,11v0a0,0,0,0,1,0,0h0a11,11,0,0,1-11-11v0A0,0,0,0,1,887.82,26.49Z"/><path class="cls-8" d="M887.44,40.74s-42.13,33.06,0,84.07c0,0-33.25.76-35.71-41.94a44.16,44.16,0,0,1,5.18-21.93c3.81-7.29,9.37-14.16,18.44-17.75S887.44,40.74,887.44,40.74Z"/></g><g id="Naranja-3" data-name="Naranja"><circle class="cls-9" cx="740.21" cy="200.33" r="42.06"/><path class="cls-10" d="M766.92,222a33,33,0,0,0,4.56-8,37.6,37.6,0,0,0,2.68-19.85,39.68,39.68,0,0,0-5.2-14.38.78.78,0,0,0-1.35.79,36.45,36.45,0,0,1,5,23.37,37.93,37.93,0,0,1-5.22,14.55c-.38.63-.79,1.25-1.22,1.86l-.38.51c0-.05.09-.1,0,0-.63.77.47,1.89,1.11,1.11Z"/><circle class="cls-11" cx="717.78" cy="179.65" r="3.3"/><circle class="cls-11" cx="711.87" cy="188.86" r="2.61"/><circle class="cls-11" cx="719.43" cy="187.91" r="1.65"/><path class="cls-7" d="M725.43,147.49h0a11.3,11.3,0,0,1,11.3,11.3v0a0,0,0,0,1,0,0h0a11.3,11.3,0,0,1-11.3-11.3v0A0,0,0,0,1,725.43,147.49Z"/><path class="cls-7" d="M748,147.49h0a0,0,0,0,1,0,0v0a11.3,11.3,0,0,1-11.3,11.3h0a0,0,0,0,1,0,0v0A11.3,11.3,0,0,1,748,147.49Z" transform="translate(1484.76 306.28) rotate(180)"/></g><g id="Pera-3" data-name="Pera"><circle class="cls-12" cx="901.67" cy="216.76" r="26.95"/><circle class="cls-12" cx="901.67" cy="188.94" r="18.26"/><path class="cls-13" d="M900.82,175.9l3.78-26.43,4.66-.47S906,151.76,902,176.3Z"/><path class="cls-14" d="M922.87,151.33s-10.32-5.6-16.92,3.88C906,155.21,912.38,167.7,922.87,151.33Z"/><path class="cls-15" d="M900.68,170.7a23,23,0,0,0-9.16,3.26c-12.46,8.89-6.9,21.26-6.78,21.83h0c-14.37,13.15-12.63,32.27,1.28,42.71.74.55,8.83,5.21,13.91,5.21h0l-.18-.28a65.84,65.84,0,0,1,.59-72.24Z"/></g><g id="Manzana-6" data-name="Manzana"><ellipse class="cls-5" cx="887.37" cy="442.46" rx="35.68" ry="42.1"/><ellipse class="cls-5" cx="909.43" cy="442.46" rx="35.68" ry="42.1"/><path class="cls-6" d="M898.25,406.18s-3.06-12.75,4.53-19.08c0,.19,0,2.83,0,2.83s-5.1,2.46-2.22,16.25C900.52,406.18,900.06,407.88,898.25,406.18Z"/><path class="cls-7" d="M887.82,386.16h0a11,11,0,0,1,11,11v0a0,0,0,0,1,0,0h0a11,11,0,0,1-11-11v0A0,0,0,0,1,887.82,386.16Z"/><path class="cls-8" d="M887.44,400.4s-42.13,33.07,0,84.08c0,0-33.25.75-35.71-42a44.11,44.11,0,0,1,5.18-21.92c3.81-7.3,9.37-14.16,18.44-17.75S887.44,400.4,887.44,400.4Z"/></g><g id="Naranja-4" data-name="Naranja"><circle class="cls-9" cx="740.21" cy="560" r="42.06"/><path class="cls-10" d="M766.92,581.67a32.79,32.79,0,0,0,4.56-8,37.62,37.62,0,0,0,2.68-19.85,39.61,39.61,0,0,0-5.2-14.38.78.78,0,0,0-1.35.79,36.45,36.45,0,0,1,5,23.37,37.93,37.93,0,0,1-5.22,14.55c-.38.63-.79,1.25-1.22,1.85-.12.18-.25.35-.38.52,0-.06.09-.1,0,0-.63.77.47,1.88,1.11,1.1Z"/><circle class="cls-11" cx="717.78" cy="539.32" r="3.3"/><circle class="cls-11" cx="711.87" cy="548.53" r="2.61"/><circle class="cls-11" cx="719.43" cy="547.57" r="1.65"/><path class="cls-7" d="M725.43,507.16h0a11.3,11.3,0,0,1,11.3,11.3v0a0,0,0,0,1,0,0h0a11.3,11.3,0,0,1-11.3-11.3v0A0,0,0,0,1,725.43,507.16Z"/><path class="cls-7" d="M748,507.16h0a0,0,0,0,1,0,0v0a11.3,11.3,0,0,1-11.3,11.3h0a0,0,0,0,1,0,0v0A11.3,11.3,0,0,1,748,507.16Z" transform="translate(1484.76 1025.61) rotate(180)"/></g><g id="Pera-4" data-name="Pera"><circle class="cls-12" cx="901.67" cy="576.43" r="26.95"/><circle class="cls-12" cx="901.67" cy="548.6" r="18.26"/><path class="cls-13" d="M900.82,535.56l3.78-26.42,4.66-.48S906,511.43,902,536Z"/><path class="cls-14" d="M922.87,511s-10.32-5.6-16.92,3.89C906,514.88,912.38,527.37,922.87,511Z"/><path class="cls-15" d="M900.68,530.36a23.1,23.1,0,0,0-9.16,3.26c-12.46,8.9-6.9,21.27-6.78,21.83h0c-14.37,13.15-12.63,32.28,1.28,42.71.74.56,8.83,5.22,13.91,5.22h0l-.18-.28a65.84,65.84,0,0,1,.59-72.24Z"/></g><g id="Manzana-7" data-name="Manzana"><ellipse class="cls-5" cx="887.37" cy="928.74" rx="35.68" ry="42.1"/><ellipse class="cls-5" cx="909.43" cy="928.74" rx="35.68" ry="42.1"/><path class="cls-6" d="M898.25,892.47s-3.06-12.75,4.53-19.08c0,.19,0,2.83,0,2.83s-5.1,2.46-2.22,16.25C900.52,892.47,900.06,894.17,898.25,892.47Z"/><path class="cls-7" d="M887.82,872.44h0a11,11,0,0,1,11,11v0a0,0,0,0,1,0,0h0a11,11,0,0,1-11-11v0A0,0,0,0,1,887.82,872.44Z"/><path class="cls-8" d="M887.44,886.69s-42.13,33.06,0,84.07c0,0-33.25.76-35.71-41.94a44.11,44.11,0,0,1,5.18-21.92c3.81-7.3,9.37-14.17,18.44-17.75S887.44,886.69,887.44,886.69Z"/></g><g id="Manzana-8" data-name="Manzana"><ellipse class="cls-5" cx="887.37" cy="817.6" rx="35.68" ry="42.1"/><ellipse class="cls-5" cx="909.43" cy="817.6" rx="35.68" ry="42.1"/><path class="cls-6" d="M898.25,781.32s-3.06-12.75,4.53-19.08c0,.19,0,2.83,0,2.83s-5.1,2.46-2.22,16.25C900.52,781.32,900.06,783,898.25,781.32Z"/><path class="cls-7" d="M887.82,761.3h0a11,11,0,0,1,11,11v0a0,0,0,0,1,0,0h0a11,11,0,0,1-11-11v0A0,0,0,0,1,887.82,761.3Z"/><path class="cls-8" d="M887.44,775.54s-42.13,33.07,0,84.08c0,0-33.25.75-35.71-42a44.11,44.11,0,0,1,5.18-21.92c3.81-7.3,9.37-14.16,18.44-17.75S887.44,775.54,887.44,775.54Z"/></g></svg>