<svg xmlns="http://www.w3.org/2000/svg" viewBox="0 0 300 228.81"><defs><style>.cls-1{fill:#c0e072;}.cls-2{fill:#b56f00;}.cls-3{fill:#46c638;}.cls-4{fill:#b4d85c;}.cls-5{fill:#654e45;}</style></defs><title>manzana canasta</title><g id="Capa_2" data-name="Capa 2"><g id="Capa_1-2" data-name="Capa 1"><ellipse class="cls-1" cx="184.63" cy="188.64" rx="29.58" ry="34.89"/><ellipse class="cls-1" cx="202.92" cy="188.64" rx="29.58" ry="34.89"/><path class="cls-2" d="M193.65,158.57s-2.53-10.55,3.77-15.83v2.36s-4.24,2-1.85,13.45C195.53,158.57,195.16,160,193.65,158.57Z"/><path class="cls-3" d="M185,142h0a9.09,9.09,0,0,1,9.09,9.09h0A9.09,9.09,0,0,1,185,142Z"/><path class="cls-4" d="M184.68,153.78s-34.91,27.41,0,69.7c0,0-27.56.64-29.6-34.77a36.44,36.44,0,0,1,4.31-18.18,29.5,29.5,0,0,1,15.29-14.71C182.27,152.82,184.68,153.78,184.68,153.78Z"/><ellipse class="cls-1" cx="88.83" cy="188.64" rx="29.58" ry="34.89"/><ellipse class="cls-1" cx="107.12" cy="188.64" rx="29.58" ry="34.89"/><path class="cls-2" d="M97.85,158.57s-2.53-10.55,3.77-15.83v2.36s-4.24,2-1.85,13.45C99.74,158.57,99.37,160,97.85,158.57Z"/><path class="cls-3" d="M89.2,142h0a9.09,9.09,0,0,1,9.09,9.09h0A9.09,9.09,0,0,1,89.2,142Z"/><path class="cls-4" d="M88.88,153.78s-34.91,27.41,0,69.7c0,0-27.56.64-29.6-34.77a36.44,36.44,0,0,1,4.31-18.18,29.5,29.5,0,0,1,15.29-14.71C86.47,152.82,88.88,153.78,88.88,153.78Z"/><ellipse class="cls-1" cx="148.6" cy="138.22" rx="29.58" ry="34.89"/><ellipse class="cls-1" cx="166.89" cy="138.22" rx="29.58" ry="34.89"/><path class="cls-2" d="M157.63,108.14s-2.54-10.55,3.76-15.83v2.36s-4.24,2-1.85,13.45C159.51,108.14,159.14,109.57,157.63,108.14Z"/><path class="cls-3" d="M149,91.54h0a9.1,9.1,0,0,1,9.1,9.09h0a9.09,9.09,0,0,1-9.1-9.09Z"/><path class="cls-4" d="M148.66,103.36s-34.92,27.4,0,69.7c0,0-27.56.63-29.6-34.77a36.44,36.44,0,0,1,4.3-18.19,29.48,29.48,0,0,1,15.29-14.7C146.25,102.39,148.66,103.36,148.66,103.36Z"/><ellipse class="cls-1" cx="136.02" cy="119.58" rx="29.58" ry="34.89"/><ellipse class="cls-1" cx="154.31" cy="119.58" rx="29.58" ry="34.89"/><path class="cls-2" d="M145,89.5S142.51,79,148.81,73.67V76s-4.24,2-1.85,13.45C146.93,89.5,146.56,90.93,145,89.5Z"/><path class="cls-3" d="M136.39,72.9h0A9.09,9.09,0,0,1,145.48,82h0a9.09,9.09,0,0,1-9.09-9.09Z"/><path class="cls-4" d="M136.07,84.72s-34.91,27.4,0,69.7c0,0-27.56.63-29.6-34.77a36.56,36.56,0,0,1,4.31-18.19,29.45,29.45,0,0,1,15.29-14.7C133.66,83.75,136.07,84.72,136.07,84.72Z"/><ellipse class="cls-1" cx="68.38" cy="134.03" rx="29.58" ry="34.89"/><ellipse class="cls-1" cx="86.67" cy="134.03" rx="29.58" ry="34.89"/><path class="cls-2" d="M77.4,104S74.87,93.4,81.16,88.12v2.36s-4.24,2-1.84,13.45C79.28,104,78.91,105.37,77.4,104Z"/><path class="cls-3" d="M68.75,87.35h0a9.09,9.09,0,0,1,9.09,9.09h0a9.09,9.09,0,0,1-9.09-9.09Z"/><path class="cls-4" d="M68.43,99.17s-34.91,27.4,0,69.7c0,0-27.56.63-29.6-34.77a36.34,36.34,0,0,1,4.31-18.19,29.43,29.43,0,0,1,15.28-14.7C66,98.2,68.43,99.17,68.43,99.17Z"/><ellipse class="cls-1" cx="69.88" cy="101.98" rx="29.58" ry="34.89"/><ellipse class="cls-1" cx="88.17" cy="101.98" rx="29.58" ry="34.89"/><path class="cls-2" d="M78.91,71.9s-2.54-10.55,3.76-15.83v2.36s-4.24,2-1.85,13.45C80.79,71.9,80.42,73.33,78.91,71.9Z"/><path class="cls-3" d="M70.25,55.3h0a9.1,9.1,0,0,1,9.1,9.09h0a9.09,9.09,0,0,1-9.1-9.09Z"/><path class="cls-4" d="M69.94,67.12s-34.92,27.4,0,69.7c0,0-27.56.63-29.6-34.77a36.47,36.47,0,0,1,4.3-18.19,29.48,29.48,0,0,1,15.29-14.7C67.53,66.15,69.94,67.12,69.94,67.12Z"/><ellipse class="cls-1" cx="123.33" cy="75.68" rx="29.58" ry="34.89"/><ellipse class="cls-1" cx="141.62" cy="75.68" rx="29.58" ry="34.89"/><path class="cls-2" d="M132.35,45.6s-2.53-10.55,3.77-15.82v2.35s-4.24,2-1.85,13.46C134.23,45.6,133.86,47,132.35,45.6Z"/><path class="cls-3" d="M123.7,29h0a9.09,9.09,0,0,1,9.09,9.09h0A9.09,9.09,0,0,1,123.7,29Z"/><path class="cls-4" d="M123.38,40.82s-34.91,27.4,0,69.7c0,0-27.56.63-29.6-34.77a36.5,36.5,0,0,1,4.31-18.19,29.5,29.5,0,0,1,15.28-14.7C121,39.85,123.38,40.82,123.38,40.82Z"/><ellipse class="cls-1" cx="62.95" cy="58.52" rx="32.93" ry="38.85"/><ellipse class="cls-1" cx="83.32" cy="58.52" rx="32.93" ry="38.85"/><path class="cls-2" d="M73,25S70.18,13.29,77.19,7.41V10s-4.72,2.25-2.06,15C75.09,25,74.68,26.62,73,25Z"/><path class="cls-3" d="M63.36,6.55h0A10.13,10.13,0,0,1,73.49,16.67h0A10.12,10.12,0,0,1,63.36,6.55Z"/><path class="cls-4" d="M63,19.71s-38.87,30.5,0,77.6c0,0-30.68.7-32.95-38.72a40.55,40.55,0,0,1,4.79-20.24A32.84,32.84,0,0,1,51.87,22C60.33,18.63,63,19.71,63,19.71Z"/><ellipse class="cls-1" cx="229.93" cy="73.46" rx="32" ry="37.74"/><ellipse class="cls-1" cx="249.71" cy="73.46" rx="32" ry="37.74"/><path class="cls-2" d="M239.69,40.93S237,29.51,243.76,23.81v2.55s-4.58,2.18-2,14.55C241.73,40.93,241.33,42.47,239.69,40.93Z"/><path class="cls-3" d="M230.33,23h0a9.84,9.84,0,0,1,9.84,9.83h0A9.83,9.83,0,0,1,230.33,23Z"/><path class="cls-4" d="M230,35.75s-37.76,29.64,0,75.39c0,0-29.81.68-32-37.61a39.52,39.52,0,0,1,4.66-19.67A31.9,31.9,0,0,1,219.16,38C227.38,34.71,230,35.75,230,35.75Z"/><ellipse class="cls-1" cx="180.4" cy="46.68" rx="29.58" ry="34.89"/><ellipse class="cls-1" cx="198.69" cy="46.68" rx="29.58" ry="34.89"/><path class="cls-2" d="M189.42,16.6S186.89,6.05,193.19.77V3.13s-4.24,2-1.85,13.46C191.3,16.6,190.93,18,189.42,16.6Z"/><path class="cls-3" d="M180.77,0h0a9.09,9.09,0,0,1,9.09,9.09h0A9.09,9.09,0,0,1,180.77,0Z"/><path class="cls-4" d="M180.45,11.82s-34.91,27.4,0,69.7c0,0-27.56.63-29.6-34.77a36.47,36.47,0,0,1,4.31-18.19,29.45,29.45,0,0,1,15.29-14.7C178,10.85,180.45,11.82,180.45,11.82Z"/><ellipse class="cls-1" cx="192.47" cy="135.82" rx="43.17" ry="47.83"/><ellipse class="cls-1" cx="219.16" cy="135.82" rx="43.17" ry="47.83"/><path class="cls-2" d="M205.63,94.59s-3.69-14.46,5.49-21.69v3.23s-6.18,2.77-2.69,18.44C208.38,94.59,207.84,96.55,205.63,94.59Z"/><path class="cls-3" d="M193,71.84h0c7.33,0,13.27,5.58,13.27,12.46h0c-7.33,0-13.27-5.58-13.27-12.46Z"/><path class="cls-4" d="M192.54,88s-50.94,37.55,0,95.53c0,0-40.21.87-43.19-47.66A47.42,47.42,0,0,1,155.64,111a41.92,41.92,0,0,1,22.3-20.16C189,86.71,192.54,88,192.54,88Z"/><path class="cls-5" d="M281,59.77,300,43.9,276.05,15.18,222.86,59.53H81.68L30.79,17.1,6.84,45.82,23.28,59.53h-5A18.24,18.24,0,0,0,0,77.77v6.92a18.24,18.24,0,0,0,18.24,18.24h3.21L56,223.75v5.06H244.73v-6.06L279,102.88a18.22,18.22,0,0,0,17.36-18.19V77.77A18.24,18.24,0,0,0,281,59.77ZM113.6,102.93,124,222.11h-34L69.53,102.93Zm6.71,0h59.78L169.66,222.11H130.74Zm66.49,0h44.07L210.33,222.11h-34Zm50.86,0H272L238,222.11H217.12ZM275.16,25l15,18-19.8,16.52H233.77ZM16.68,44.93l15-18,39.09,32.6H34.19Zm46.06,58L83.29,222.11H62.45l-34-119.18Z"/></g></g></svg>