<svg xmlns="http://www.w3.org/2000/svg" id="Layer_1" data-name="Layer 1" viewBox="0 0 800 800"><defs><style>.cls-1{fill:#b4d85c;}.cls-2{fill:#b56f00;}.cls-3{fill:#46c638;}.cls-4{fill:#910a0a;opacity:0.08;}</style></defs><title>Manzana</title><g id="Manzana"><ellipse class="cls-1" cx="310.32" cy="457.74" rx="290.1" ry="342.26"/><ellipse class="cls-1" cx="489.68" cy="457.74" rx="290.1" ry="342.26"/><path class="cls-2" d="M398.81,162.82S373.94,59.14,435.65,7.68c0,1.54-.32,23-.32,23s-41.47,20-18.1,132.1C417.23,162.82,413.54,176.64,398.81,162.82Z"/><path class="cls-3" d="M314,0h31.09a58,58,0,0,1,58,58V89.09a0,0,0,0,1,0,0H372a58,58,0,0,1-58-58V0A0,0,0,0,1,314,0Z"/><path class="cls-4" d="M310.91,115.83s-342.53,268.81,0,683.54c0,0-270.34,6.14-290.31-341,0,0-7-84.08,42.13-178.26C93.71,220.79,138.87,165,212.6,135.8,287.14,106.3,310.91,115.83,310.91,115.83Z"/></g></svg>