<svg id="Layer_1" data-name="Layer 1" xmlns="http://www.w3.org/2000/svg" viewBox="0 0 800 800"><defs><style>.cls-1{fill:#ff7f00;}.cls-2{fill:#ffab5f;}.cls-3{fill:#ff4e00;}.cls-4{fill:#46c638;}</style></defs><title>Naranja</title><g id="Naranja"><circle class="cls-1" cx="400" cy="445.42" r="354.58"/><path class="cls-2" d="M623.69,626.63c16-19.67,28.06-43.2,37.86-66.41,22.12-52.37,30.68-109.86,22.65-166.28-6.09-42.76-21.77-83.56-43.59-120.7-2.94-5-10.72-.47-7.77,4.54,35.28,60.05,52.29,129.22,42.74,198.65A321.94,321.94,0,0,1,631.4,599.55c-3.31,5.41-6.78,10.74-10.48,15.9-1,1.4-2,2.78-3.07,4.16-.41.53.57-.85-.2.26l-.32.39c-3.62,4.46,2.71,10.86,6.36,6.37Z"/><circle class="cls-3" cx="210.99" cy="271.06" r="27.84"/><circle class="cls-3" cx="161.17" cy="348.72" r="21.98"/><circle class="cls-3" cx="224.91" cy="340.66" r="13.92"/><path class="cls-4" d="M275.46,0H305.7a65,65,0,0,1,65,65V95.24a0,0,0,0,1,0,0H340.46a65,65,0,0,1-65-65V0A0,0,0,0,1,275.46,0Z"/><path class="cls-4" d="M435.7,0h30.24a0,0,0,0,1,0,0V30.24a65,65,0,0,1-65,65H370.7a0,0,0,0,1,0,0V65A65,65,0,0,1,435.7,0Z" transform="translate(836.63 95.24) rotate(180)"/></g></svg>