<svg id="Layer_1" data-name="Layer 1" xmlns="http://www.w3.org/2000/svg" viewBox="0 0 800 800"><defs><style>.cls-1{fill:#b9d86c;}.cls-2{fill:#aa8b39;}.cls-3{fill:#129948;}.cls-4{fill:#a8bf60;}</style></defs><title>Artboard 4</title><g id="Pera"><circle class="cls-1" cx="400" cy="572.34" r="227.66"/><circle class="cls-1" cx="400" cy="337.34" r="154.22"/><path class="cls-2" d="M392.82,227.19,424.7,4l39.39-4s-27.19,23.36-61,230.62Z"/><path class="cls-3" d="M579,19.65s-87.11-47.28-142.9,32.83C436.12,52.48,490.42,158,579,19.65Z"/><path class="cls-4" d="M391.63,183.25c-23.05,2.56-58.45,14.08-77.33,27.56C209.06,285.94,256,390.43,257,395.19h0c-121.39,111.06-106.7,272.62,10.8,360.75,6.25,4.69,74.58,44.06,117.5,44.06h0l-1.55-2.41c-119.76-186.3-118.32-426.2,5-610.15C390.62,184.7,391.63,183.25,391.63,183.25Z"/></g></svg>