<svg id="Layer_1" data-name="Layer 1" xmlns="http://www.w3.org/2000/svg" viewBox="0 0 800 800"><defs><style>.cls-1,.cls-3{fill:#ffd400;}.cls-2{fill:#d1a900;}.cls-3{stroke:#d1a900;stroke-miterlimit:10;stroke-width:3px;}</style></defs><title>Platano</title><path class="cls-1" d="M349.22,546.92c-109.84,0-192.56-38.21-193.38-38.6-1-.47-100.43-47.76-114.17-91.39-10-31.68-28-45.38-37.86-50.73a4.38,4.38,0,0,1-1.14-6.84l16.44-17.77a4.38,4.38,0,0,1,5.67-.66c61.62,42.24,133.61,63.65,214,63.65h0c104.67,0,187.25-37.25,188.07-37.63C545.8,311,607.44,242.14,619.86,209.49c7.89-20.76,29-26.25,45.27-27.2a36.67,36.67,0,0,0,31.11-20.48c9.46-19.75,6.94-41.51,4.59-52.72a4.24,4.24,0,0,1,.87-3.6,4.4,4.4,0,0,1,3.43-1.65,4.59,4.59,0,0,1,1.36.21c13.82,4.29,31.49,14.62,40.79,20.39a4.29,4.29,0,0,1,2.06,3.4,4.35,4.35,0,0,1-1.54,3.66c-32.29,27.2-35.59,40.2-30.38,54.68,7.26,20.17,15.49,69.22.25,125.1-9,33.22-25.11,64.43-47.74,92.75-27.35,34.25-64.53,64.49-110.5,89.88-63.67,35.17-134.4,53-210.2,53Z"/><path class="cls-2" d="M705.13,105.34a3.19,3.19,0,0,1,.91.14c13.66,4.25,31.21,14.5,40.45,20.23a2.88,2.88,0,0,1,.34,4.64c-16.09,13.55-25.62,24.17-30,33.42-4.54,9.62-3,17-.83,22.91,7.2,20,15.35,68.69.22,124.21-9,33-25,64-47.47,92.21-27.23,34.09-64.26,64.2-110.06,89.5-63.44,35-133.92,52.82-209.48,52.82C292,545.42,242.69,535,211.36,526.2c-34-9.5-54.68-19.14-54.88-19.23-1-.47-99.84-47.47-113.38-90.49C33,384.29,14.58,370.34,4.52,364.88A2.89,2.89,0,0,1,3,362.81a2.85,2.85,0,0,1,.73-2.43l16.44-17.77a2.89,2.89,0,0,1,2.12-.93,2.82,2.82,0,0,1,1.6.49C85.8,384.58,158.1,406.08,238.8,406.08c54.87,0,103.21-10.25,134.11-18.85,33.51-9.33,54.38-18.82,54.61-18.93,52.14-24.51,98.93-54.37,135.33-86.35,29.64-26,50.93-52.26,58.41-71.93,7.61-20,28.11-25.31,44-26.23a38.19,38.19,0,0,0,32.37-21.33c9.66-20.16,7.1-42.28,4.71-53.68a2.78,2.78,0,0,1,.56-2.35,3,3,0,0,1,2.27-1.09m0-3a5.86,5.86,0,0,0-5.76,7.06c2.41,11.53,4.7,32.59-4.48,51.76A35.19,35.19,0,0,1,665,180.79c-15.21.89-38.17,6.06-46.58,28.16-13,34.23-76.48,102.22-192.22,156.64,0,0-81.88,37.49-187.44,37.49-66.51,0-142.4-14.87-213.17-63.38a5.78,5.78,0,0,0-3.3-1A5.93,5.93,0,0,0,18,340.57L1.57,358.34a5.89,5.89,0,0,0,1.52,9.18c9.82,5.32,27.37,18.78,37.15,49.86,14.09,44.77,115,92.3,115,92.3s82.54,38.74,194,38.74c64.13,0,137.84-12.81,210.93-53.19C760.32,384.65,731,219.52,718.83,185.67c-4.49-12.48-3.55-24.82,29.94-53a5.88,5.88,0,0,0-.7-9.48c-9.54-5.92-27.21-16.22-41.14-20.54a6,6,0,0,0-1.8-.28Z"/><path class="cls-2" d="M285.34,505.42c12.05,1,24.23,1,36.31.88A612.22,612.22,0,0,0,411,498.64c38.64-6.19,76.77-16.26,112.87-31.48,39.68-16.72,76.82-39.85,107.42-70.32,34.55-34.41,59.29-77.33,73.36-123.92,2-6.57,3.75-13.2,5.35-19.87.89-3.76-4.89-5.36-5.79-1.6-11.53,48.26-33.58,93.6-67,130.5-28.93,31.94-64.93,56.59-104,74.57C497.52,473,459.33,484,420.65,490.94a599.17,599.17,0,0,1-91.33,9.22c-9.86.25-19.72.26-29.57,0-4.54-.14-9.3-.87-13.83-.66a5.67,5.67,0,0,1-.58-.05c-3.85-.32-3.83,5.68,0,6Z"/><ellipse class="cls-2" cx="14.96" cy="354.17" rx="18.23" ry="8.4" transform="translate(-252.44 121.45) rotate(-46.55)"/><ellipse class="cls-2" cx="725.88" cy="116.87" rx="5.94" ry="28.08" transform="translate(305.73 720.22) rotate(-64.29)"/><path class="cls-3" d="M703.29,110c3.89,11.12,8.89,31.7,2.28,51.9a35.19,35.19,0,0,1-27.05,23.34c-15,2.85-37.07,10.95-42.54,34-8.47,35.62-62.59,111.27-170.29,180.23,0,0-202.76,127-400.59,26.27a5.88,5.88,0,0,0-7.45,1.85l-14,19.76a5.88,5.88,0,0,0,2.7,8.9c10.42,4,29.57,15.07,43.3,44.62,19.78,42.57,126,76.62,126,76.62s215.52,68.76,399.66-66.83S749,215.13,732.48,183.14c-6.07-11.79-6.74-24.15,22.81-56.46a5.87,5.87,0,0,0-1.92-9.31c-10.23-4.63-29.08-12.55-43.45-15A5.89,5.89,0,0,0,703.29,110Z"/><path class="cls-2" d="M343.71,556.42c12.2-.57,24.41-2.16,36.49-3.88a606.53,606.53,0,0,0,87.47-19.1c37.51-11.15,74.1-26.08,107.94-45.84,37.18-21.7,71-49.5,97.39-83.66,29.92-38.73,49-84.64,56.81-132.87,1.1-6.77,2-13.57,2.7-20.39.4-3.84-5.6-3.81-6,0-5.19,49.38-21.41,97.16-49.78,138.08-24.5,35.33-57.1,64.4-93.41,87.17-33.14,20.77-69.25,36.53-106.47,48.41a604.35,604.35,0,0,1-90,21.18c-14.15,2.22-28.39,3-42.55,4.87-.2,0-.41,0-.61,0-3.84.18-3.87,6.18,0,6Z"/><ellipse class="cls-2" cx="56.4" cy="441.48" rx="18.23" ry="8.4" transform="translate(-333.9 227.59) rotate(-54)"/><ellipse class="cls-2" cx="730.55" cy="114.01" rx="5.94" ry="28.08" transform="translate(393.42 772.07) rotate(-71.74)"/><path class="cls-3" d="M714.46,112.09c6.06,10.11,15.13,29.25,12.74,50.38a35.17,35.17,0,0,1-21.76,28.32c-14.08,5.83-34.08,18.24-34.78,41.88-1.07,36.6-38.75,121.64-130.25,211,0,0-172.84,165.41-387,106.86a5.88,5.88,0,0,0-6.92,3.32L136.82,576a5.88,5.88,0,0,0,4.45,8.17c11,1.81,32,8.77,51.44,34.93,28,37.68,138.87,49.52,138.87,49.52s225,23.68,377.83-146.4,71.05-316.48,48.45-344.47c-8.34-10.32-11.5-22.28,10.89-59.91a5.88,5.88,0,0,0-3.76-8.73c-11-2.46-31-6.4-45.6-5.92A5.88,5.88,0,0,0,714.46,112.09Z"/><path class="cls-2" d="M452.94,622c11.71-3,23.23-7,34.59-11.07a612.59,612.59,0,0,0,81.89-36.46C603.85,556,636.58,534,665.7,507.87c32-28.74,59.62-62.83,78.54-101.62,21.38-43.82,30.81-92.42,28.85-141.07q-.42-10.35-1.47-20.67c-.38-3.81-6.38-3.85-6,0,4.93,49.51-1,99.75-20.61,145.7-16.82,39.47-42.68,74.43-73.5,104.08-28.38,27.3-60.79,50.19-95.06,69.48a599.27,599.27,0,0,1-83.27,38.72q-13.85,5.21-27.95,9.67c-4.38,1.37-9,2.32-13.31,3.92-.19.06-.39.1-.58.15-3.74.95-2.15,6.74,1.6,5.78Z"/><ellipse class="cls-2" cx="148.11" cy="567.69" rx="18.23" ry="8.4" transform="translate(-430.21 468.89) rotate(-65.68)"/><ellipse class="cls-2" cx="741.96" cy="110.46" rx="5.94" ry="28.08" transform="translate(547.32 834.91) rotate(-83.43)"/></svg>