<svg xmlns="http://www.w3.org/2000/svg" viewBox="0 0 398.77 640.39"><defs><style>.cls-1,.cls-4,.cls-5{fill:#ececec;}.cls-1,.cls-2,.cls-3,.cls-4,.cls-5,.cls-6{stroke:#000;stroke-miterlimit:10;}.cls-1,.cls-2,.cls-3,.cls-6{stroke-width:2px;}.cls-2{fill:#f89b4b;}.cls-3,.cls-6{fill:none;}.cls-4{stroke-width:1.89px;}.cls-5{stroke-width:1.69px;}.cls-6{stroke-linecap:round;}</style></defs><title>Asset 9</title><g id="Layer_2" data-name="Layer 2"><g id="Layer_2-2" data-name="Layer 2"><path class="cls-1" d="M40.27,284c-1-4.9-12-25-12-25v5l2,40S42.27,294,40.27,284Z"/><path class="cls-2" d="M111.27,340.85s3,122.15-30,187.15c30,29,183,18,262,6-8-17-57-132-47-210S111.27,340.85,111.27,340.85Z"/><path class="cls-3" d="M161.27,546s-6,.5-6,49.5V632"/><path class="cls-3" d="M265.27,543s2.64-4.31,8.07,47.48,4,38.57,4,38.57"/><path class="cls-1" d="M120.27,628.5c0-19,35-5,35,5C155.27,636.5,120.27,647.5,120.27,628.5Z"/><path class="cls-1" d="M311.83,622c-2-18.89-35.33-1.32-34.29,8.63C277.86,633.62,313.81,640.91,311.83,622Z"/><ellipse class="cls-4" cx="22.27" cy="462" rx="18" ry="16"/><ellipse class="cls-5" cx="379.77" cy="446" rx="14.5" ry="16"/><path class="cls-3" d="M111.5,349.56S56.27,373,18.27,446"/><path class="cls-3" d="M295.69,349.56S383.27,378,380.27,430"/><ellipse class="cls-1" cx="199.52" cy="181.25" rx="189.75" ry="180.25"/><path class="cls-6" d="M130.27,134c-18-26-55-7-65,9"/><path class="cls-6" d="M263.27,134c18-26,55-7,65,9"/><path class="cls-6" d="M14.07,143s48.2-44,180.2-45c0,0,14-24,18-24s1,15,16,24c0,0,102.45,1.52,158.72,55.26"/><path class="cls-3" d="M76.27,208c0-27,50-70,57-5"/><path class="cls-3" d="M319.27,208c0-27-50-70-57-5"/><path class="cls-3" d="M223.27,271c16,29-38,79-49.45,5.81a.7.7,0,0,1,1-.81C181.27,279.87,206,292.59,223.27,271Z"/><path class="cls-3" d="M179.27,298s33-17.37,45.49-6.69"/><path class="cls-1" d="M24.53,251.07C20.27,249,1.27,272,26.27,308l4-4S28.8,253.14,24.53,251.07Z"/><path class="cls-1" d="M35.27,327l-9-19a25.4,25.4,0,0,1,5.33-4.19C36.33,301.27,41.59,302.36,35.27,327Z"/><path class="cls-1" d="M35.27,327l-4,17-9-4s-13-36-4-39S35.27,327,35.27,327Z"/><path class="cls-1" d="M22.27,341l9,3s18,37-27,39c0,0,11-6,13-12S9.27,343,22.27,341Z"/><path class="cls-1" d="M358.5,284c1-4.9,12-25,12-25v5l-2,40S356.5,294,358.5,284Z"/><path class="cls-1" d="M374.23,251.07C378.5,249,397.5,272,372.5,308l-4-4S370,253.14,374.23,251.07Z"/><path class="cls-1" d="M363.5,327l9-19a25.4,25.4,0,0,0-5.33-4.19C362.44,301.27,357.18,302.36,363.5,327Z"/><path class="cls-1" d="M363.5,327l4,17,9-4s13-36,4-39S363.5,327,363.5,327Z"/><path class="cls-1" d="M376.5,341l-9,3s-18,37,27,39c0,0-11-6-13-12S389.5,343,376.5,341Z"/></g></g></svg>