<svg xmlns="http://www.w3.org/2000/svg" viewBox="0 0 397.89 641.39"><defs><style>.cls-1,.cls-5{fill:none;}.cls-1,.cls-2,.cls-3,.cls-4,.cls-5,.cls-6{stroke:#000;stroke-miterlimit:10;}.cls-1,.cls-2,.cls-3,.cls-5,.cls-6{stroke-width:2px;}.cls-2,.cls-4,.cls-6{fill:#ececec;}.cls-3{fill:#3bbbf3;}.cls-4{stroke-width:1.89px;}.cls-5,.cls-6{stroke-linecap:round;}</style></defs><title>Asset 3</title><g id="Layer_2" data-name="Layer 2"><g id="Layer_2-2" data-name="Layer 2"><path class="cls-1" d="M115.94,354s-63,26-101,99"/><path class="cls-1" d="M289.71,342.56S344.94,366,382.94,439"/><path class="cls-1" d="M161.45,553.31s-9-5.81-9,43.19V633"/><path class="cls-1" d="M256.77,546.77s8.31-7.08,13.74,44.71,4,38.57,4,38.57"/><path class="cls-2" d="M104.12,470.59S107.94,537,102.94,549c13,3,58,21,92,10V509s19,6,25,5,16-2,16-2,9,42,6,46,63,2,80-10c0,0-14-91-20-97s-185,5-185,5Z"/><path class="cls-3" d="M107.41,340.08S118.94,391,97.94,469c54,15,147,11,215,0,0-9-15-27-22-141S107.41,340.08,107.41,340.08Z"/><path class="cls-2" d="M117.44,629.5c0-19,35-5,35,5C152.44,637.5,117.44,648.5,117.44,629.5Z"/><path class="cls-2" d="M309,623c-2-18.89-35.33-1.32-34.28,8.63C275,634.62,311,641.91,309,623Z"/><ellipse class="cls-4" cx="18.94" cy="469" rx="18" ry="16"/><ellipse class="cls-4" cx="378.94" cy="455" rx="18" ry="16"/><ellipse class="cls-2" cx="197.19" cy="181.25" rx="189.75" ry="180.25"/><ellipse cx="118.44" cy="193.5" rx="16.5" ry="14.5"/><ellipse cx="270.44" cy="193.5" rx="16.5" ry="14.5"/><path class="cls-5" d="M144.94,301c65,23,115-5,130-15"/><path class="cls-6" d="M181.94,136c-60-27-109-10-121,23"/><path class="cls-6" d="M222.94,136c60-27,109-10,121,23"/><path class="cls-5" d="M35.5,86.89l17.73,17.46a4.23,4.23,0,0,0,6.52-.73l10-15.69a4.21,4.21,0,0,1,6.83-.38L86.72,100a4.22,4.22,0,0,0,6.51.06L112.63,77a4.22,4.22,0,0,1,6.53.07l17.18,21.47a4.22,4.22,0,0,0,6.8-.29l13.75-20.61a4.21,4.21,0,0,1,6.68-.44l20.59,23.53a4.23,4.23,0,0,0,6.78-.58l15.49-25.35a4.21,4.21,0,0,1,7.15-.07L231.07,102a4.22,4.22,0,0,0,7.27-.27l15.1-28a4.22,4.22,0,0,1,6.49-1.18L283,92.58a4.22,4.22,0,0,0,6.46-1.14L298.64,75a4.22,4.22,0,0,1,7.16-.34L320,95.3a4.21,4.21,0,0,0,7.19-.39l6.32-11.73a4.22,4.22,0,0,1,7.66.52h0a4.22,4.22,0,0,0,7.36,1l4.55-6.2"/></g></g></svg>