<svg xmlns="http://www.w3.org/2000/svg" viewBox="0 0 462.55 689.48"><defs><style>.cls-1,.cls-3,.cls-5,.cls-7{fill:#ececec;}.cls-1,.cls-2,.cls-3,.cls-4,.cls-5,.cls-6{stroke:#000;stroke-miterlimit:10;}.cls-1,.cls-2,.cls-6{stroke-width:2px;}.cls-2,.cls-6{fill:none;}.cls-3{stroke-width:2.17px;}.cls-4{fill:#39b6ad;stroke-width:2.03px;}.cls-5{stroke-width:1.89px;}.cls-6{stroke-linecap:round;}</style></defs><title>Asset 6</title><g id="Layer_2" data-name="Layer 2"><g id="Layer_2-2" data-name="Layer 2"><path class="cls-1" d="M34,225.09c-42-48-32-87-32-87,56-229,421-124,452-23s-44,141-44,141Z"/><path class="cls-2" d="M143,402.09s-63,26-101,99"/><path class="cls-2" d="M316.81,390.65S372,414.09,410,487.09"/><path class="cls-2" d="M188.54,601.39s-9-5.8-9,43.2v36.5"/><path class="cls-2" d="M283.87,594.86s8.31-7.08,13.74,44.71,4,38.57,4,38.57"/><path class="cls-3" d="M131.22,522.35S135,600.18,130,614.24c13,3.51,58,24.61,92,11.72V591.09s11,.17,17-1a69.62,69.62,0,0,1,13-1s12,32.31,9,37,56,2,75,0c0,0-1-119.66-7-126.7s-185,5.86-185,5.86Z"/><path class="cls-4" d="M134.51,390S146,442.54,125,523c54,15.47,147,11.35,215,0,0-9.28-15-27.84-22-145.4S134.51,390,134.51,390Z"/><path class="cls-1" d="M144.54,677.59c0-19,35-5,35,5C179.54,685.59,144.54,696.59,144.54,677.59Z"/><path class="cls-1" d="M336.1,671.1c-2-18.9-35.33-1.32-34.29,8.62C302.13,682.71,338.08,690,336.1,671.1Z"/><ellipse class="cls-5" cx="46.04" cy="517.09" rx="18" ry="16"/><ellipse class="cls-5" cx="406.04" cy="503.09" rx="18" ry="16"/><ellipse class="cls-1" cx="224.29" cy="229.34" rx="189.75" ry="180.25"/><path class="cls-6" d="M285,161.09c26-13,61,16,87,52"/><path class="cls-6" d="M185,158.09c-33-8-82-3-112,34"/><path class="cls-6" d="M95,256.09c-5-70,62-50,70-6"/><path class="cls-6" d="M362.77,257.09c2.27-57-65.73-53-73.73-9"/><path class="cls-1" d="M135,316.09s80,33,193-7C343,354.09,193,444.09,135,316.09Z"/><line class="cls-2" x1="296.04" y1="324.09" x2="296.04" y2="350.09"/><line class="cls-2" x1="282.04" y1="340.09" x2="318.04" y2="328.09"/><polygon class="cls-7" points="42.04 167.09 47.04 170.09 55.04 161.09 58.04 145.09 56.04 135.09 34.04 155.09 42.04 167.09"/><path class="cls-7" d="M55,148.59l110-80.5,148,19,73,65,28,88s19-67,19-70-111-128-111-128l-163-11-89,34-42,47Z"/><path class="cls-2" d="M45,170.09s15,8,28,3c0,0-20-19-14-51,0,0,45,33,71,33,0,0-5-39-1-43s44,51,75,46c4-3-15-43,0-68,0,0,52,66,73,68,0,0-9-43,8-59,0,0,64,85,73,85s-8-17,9-42c0,0,23,88,51,98,0,0-3-20-4-25"/></g></g></svg>