<svg xmlns="http://www.w3.org/2000/svg" viewBox="0 0 397.89 692.42"><defs><style>.cls-1,.cls-7{fill:none;}.cls-1,.cls-2,.cls-3,.cls-4,.cls-5,.cls-6,.cls-7{stroke:#000;stroke-miterlimit:10;}.cls-1,.cls-4,.cls-6,.cls-7{stroke-width:2px;}.cls-2,.cls-4,.cls-5,.cls-6{fill:#ececec;}.cls-2{stroke-width:2.17px;}.cls-3{fill:#f3664c;stroke-width:2.03px;}.cls-5{stroke-width:1.89px;}.cls-6,.cls-7{stroke-linecap:round;}</style></defs><title>Asset 1</title><g id="Layer_2" data-name="Layer 2"><g id="Layer_2-2" data-name="Layer 2"><path class="cls-1" d="M115.94,405s-63,26-101,99"/><path class="cls-1" d="M289.71,393.58S344.94,417,382.94,490"/><path class="cls-1" d="M161.45,604.33s-9-5.81-9,43.19V684"/><path class="cls-1" d="M256.77,597.79s8.31-7.07,13.74,44.71,4,38.58,4,38.58"/><path class="cls-2" d="M104.12,525.29s3.82,77.82-1.18,91.89c13,3.51,58,24.61,92,11.71V594s11,.17,17-1a70.6,70.6,0,0,1,13-1s12,32.32,9,37,56,2,75,0c0,0-1-119.66-7-126.69s-185,5.86-185,5.86Z"/><path class="cls-3" d="M107.41,393s11.53,52.51-9.47,132.94c54,15.47,147,11.34,215,0,0-9.28-15-27.84-22-145.4S107.41,393,107.41,393Z"/><path class="cls-4" d="M117.44,680.52c0-19,35-5,35,5C152.44,688.52,117.44,699.52,117.44,680.52Z"/><path class="cls-4" d="M309,674c-2-18.9-35.33-1.33-34.28,8.62C275,685.64,311,692.93,309,674Z"/><ellipse class="cls-5" cx="18.94" cy="520.02" rx="18" ry="16"/><ellipse class="cls-5" cx="378.94" cy="506.02" rx="18" ry="16"/><ellipse class="cls-4" cx="197.19" cy="232.27" rx="189.75" ry="180.25"/><ellipse cx="285.44" cy="247.52" rx="16.5" ry="14.5"/><path class="cls-6" d="M157.94,200c-29-35-63-41-100-14"/><path class="cls-6" d="M264.94,191c25-36,71-28,89,9"/><path class="cls-6" d="M67.94,259c25-75,75-37,82,0"/><path class="cls-7" d="M235.47,355.11s14.76,35.34,28.47,25.91c16-11,11-44,11-44-15,10-65,38-130,15"/><path class="cls-7" d="M257.94,347s6,14,5,20"/><path class="cls-4" d="M385.59,210.69S397.94,83,395.94,75s-26,31-32,28-26-74-31-74-30,26-34,23-35-50-45-51-37,33-44,32-41-33-52-32-36,55-44,51-36-35-40-35-47,80-52,78-14-22-15-22,.81,149,.81,149C-6.06,195,144.94,45,221.94,150,221.94,150,268.24,77.36,385.59,210.69Z"/></g></g></svg>