<svg xmlns="http://www.w3.org/2000/svg" viewBox="0 0 522.05 640.39"><defs><style>.cls-1,.cls-4,.cls-5,.cls-6{fill:#ececec;}.cls-1,.cls-2,.cls-3,.cls-4,.cls-5,.cls-6,.cls-7{stroke:#000;stroke-miterlimit:10;}.cls-1,.cls-2,.cls-3,.cls-6,.cls-7{stroke-width:2px;}.cls-2{fill:#edbe12;}.cls-3,.cls-7{fill:none;}.cls-4{stroke-width:1.89px;}.cls-5{stroke-width:1.69px;}.cls-6,.cls-7{stroke-linecap:round;}</style></defs><title>Asset 2</title><g id="Layer_2" data-name="Layer 2"><g id="Layer_2-2" data-name="Layer 2"><path class="cls-1" d="M128.05,45s-28.9-58-73-19c-26,23-26,55-54,19,0,0-4,49,57,52S128.05,45,128.05,45Z"/><path class="cls-1" d="M364.84,36.11S388.05,0,422.05,12s32,89,97,21c0,0,25,55-102,97S364.84,36.11,364.84,36.11Z"/><circle class="cls-1" cx="110.55" cy="66.5" r="17.5"/><circle class="cls-1" cx="381.55" cy="59.5" r="17.5"/><path class="cls-2" d="M134.55,534.5c-7,4,26,38,261,0,0,0-41-71-49.5-196.5h-185S176.55,401.5,134.55,534.5Z"/><ellipse class="cls-1" cx="252.3" cy="181.25" rx="189.75" ry="180.25"/><path class="cls-1" d="M173.55,628.5c0-19,35-5,35,5C208.55,636.5,173.55,647.5,173.55,628.5Z"/><path class="cls-1" d="M363.55,626.5c0-19-35-5-35,5C328.55,634.5,363.55,645.5,363.55,626.5Z"/><path class="cls-3" d="M217.56,552.31s-9-5.81-9,43.19V632"/><path class="cls-3" d="M319.55,545.23s9-6.18,9,45.89v38.79"/><ellipse class="cls-4" cx="74.05" cy="468" rx="18" ry="16"/><ellipse class="cls-5" cx="431.55" cy="452" rx="14.5" ry="16"/><path class="cls-3" d="M163.28,355.56S108.05,379,70.05,452"/><path class="cls-3" d="M347.47,355.56S435.05,384,432.05,436"/><ellipse cx="145.55" cy="204" rx="12.5" ry="14"/><ellipse cx="362.55" cy="204" rx="12.5" ry="14"/><path class="cls-6" d="M167.05,273c80,83,176,8,186-4"/><path class="cls-7" d="M194.05,20s4,113-127,181"/><path class="cls-7" d="M194.05,20s32,143,238,143"/><path class="cls-7" d="M143.27,142.78S168.05,139,184.05,158"/><path class="cls-7" d="M310.05,163s12-13.53,25-12.76"/><path class="cls-7" d="M400.57,161.82s4.48,3.18,5.48,6.18"/></g></g></svg>