<svg xmlns="http://www.w3.org/2000/svg" viewBox="0 0 448.29 686.68"><defs><style>.cls-1,.cls-2,.cls-5,.cls-6,.cls-7{fill:#ececec;}.cls-1,.cls-2,.cls-3,.cls-4,.cls-5,.cls-6,.cls-7,.cls-8{stroke:#000;stroke-miterlimit:10;}.cls-1,.cls-3,.cls-4,.cls-7,.cls-8{stroke-width:2px;}.cls-2{stroke-width:2.27px;}.cls-3{fill:#f05db0;}.cls-4,.cls-8{fill:none;}.cls-5{stroke-width:1.89px;}.cls-6{stroke-width:1.69px;}.cls-7,.cls-8{stroke-linecap:round;}</style></defs><title>Asset 4</title><g id="Layer_2" data-name="Layer 2"><g id="Layer_2-2" data-name="Layer 2"><path class="cls-1" d="M148,53.15S204.94-16.71,268.94,5.29s66,77,113,79,65-19,65-19-8,73-80,78S148,53.15,148,53.15Z"/><ellipse class="cls-2" cx="207.44" cy="57.79" rx="26.5" ry="20.5"/><path class="cls-3" d="M107.94,387.13s3,122.16-30,187.16c30,29,183,18,262,6-8-17-57-132-47-210S107.94,387.13,107.94,387.13Z"/><path class="cls-4" d="M157.94,592.29s-6,.5-6,49.5v36.5"/><path class="cls-4" d="M261.94,589.29s2.64-4.31,8.07,47.47,4,38.58,4,38.58"/><path class="cls-1" d="M116.94,674.79c0-19,35-5,35,5C151.94,682.79,116.94,693.79,116.94,674.79Z"/><path class="cls-1" d="M308.5,668.3c-2-18.9-35.33-1.32-34.28,8.62C274.53,679.9,310.48,687.2,308.5,668.3Z"/><ellipse class="cls-5" cx="18.94" cy="508.29" rx="18" ry="16"/><ellipse class="cls-6" cx="376.44" cy="492.29" rx="14.5" ry="16"/><path class="cls-4" d="M108.17,395.85s-55.23,23.44-93.23,96.44"/><path class="cls-4" d="M292.36,395.85s87.58,28.44,84.58,80.44"/><ellipse class="cls-1" cx="196.19" cy="227.54" rx="189.75" ry="180.25"/><ellipse cx="91.44" cy="247.75" rx="16.5" ry="18.54"/><ellipse cx="303.44" cy="247.75" rx="16.5" ry="18.54"/><path class="cls-7" d="M105,312.71c48.39,113.39,182.2,44.63,187.86-13.6a1.47,1.47,0,0,0-1.63-1.61c-17.1,2.08-153.62,18.37-184.73,13.3A1.39,1.39,0,0,0,105,312.71Z"/><path class="cls-8" d="M204.94,75.29s-76,117-191,106"/><path class="cls-8" d="M204.94,75.29s38,94,171,94"/><path class="cls-7" d="M126.94,346.29s71-24,139-3"/><path class="cls-8" d="M110.94,186.29c-9-11-33-4-43,12"/><path class="cls-8" d="M286.94,184.29c9-11,40-7,50,21"/></g></g></svg>