<svg xmlns="http://www.w3.org/2000/svg" viewBox="0 0 448.79 673.64"><defs><style>.cls-1{fill:#b164af;}.cls-1,.cls-2,.cls-3,.cls-4,.cls-5,.cls-6{stroke:#000;stroke-miterlimit:10;}.cls-1,.cls-2,.cls-3,.cls-6{stroke-width:2px;}.cls-2,.cls-4,.cls-5{fill:#ececec;}.cls-3,.cls-6{fill:none;}.cls-4{stroke-width:1.89px;}.cls-5{stroke-width:1.69px;}.cls-6{stroke-linecap:round;}</style></defs><title>Asset 5</title><g id="Layer_2" data-name="Layer 2"><g id="Layer_2-2" data-name="Layer 2"><path class="cls-1" d="M106.81,567.75c-7,4,26,38,261,0,0,0-41-71-49.51-196.5h-185S148.81,434.75,106.81,567.75Z"/><ellipse class="cls-2" cx="224.56" cy="214.5" rx="189.75" ry="180.25"/><path class="cls-2" d="M145.81,661.75c0-19,35-5,35,5C180.81,669.75,145.81,680.75,145.81,661.75Z"/><path class="cls-2" d="M335.81,659.75c0-19-35-5-35,5C300.81,667.75,335.81,678.75,335.81,659.75Z"/><path class="cls-3" d="M189.81,585.56s-9-5.81-9,43.19v36.5"/><path class="cls-3" d="M291.81,578.47s9-6.17,9,45.9v38.79"/><ellipse class="cls-4" cx="46.31" cy="501.25" rx="18" ry="16"/><ellipse class="cls-5" cx="403.81" cy="485.25" rx="14.5" ry="16"/><path class="cls-3" d="M135.54,388.81s-55.23,23.44-93.23,96.44"/><path class="cls-3" d="M319.73,388.81s87.58,28.44,84.58,80.44"/><ellipse cx="117.31" cy="230.75" rx="15" ry="23.5"/><ellipse cx="330.31" cy="230.75" rx="15" ry="23.5"/><path class="cls-6" d="M345.31,301.25c-10,12-148,64-231-10"/><path class="cls-6" d="M348.31,273.25s-13,33,13,41"/><path class="cls-6" d="M102.31,263.25s35,24-5,41"/><path class="cls-3" d="M84.31,189.25s25-34,48-9"/><path class="cls-3" d="M365.31,189.25s-25-34-48-9"/><path class="cls-2" d="M34.81,209.75s-68.5-56.5-10.5-104.5c0,0,9-88,73-46,0,0,16-88,93-36,0,0,39-52,82,3,0,0,57-49,88,22,0,0,80,7,54,59,0,0,54,23,20,60,0,0,41,34-20,63.5v-23.5s-20-13-27-41c0,0-38,14-55-58,0,0-38,43-66-22,0,0-34,75-98,19,0,0-20,69-66,31,0,0-10.85,73-66.43,59C36.31,195.25,34.81,209.75,34.81,209.75Z"/></g></g></svg>