<svg xmlns="http://www.w3.org/2000/svg" viewBox="0 0 399.94 657.39"><defs><style>.cls-1,.cls-6{fill:none;}.cls-1,.cls-2,.cls-3,.cls-4,.cls-5,.cls-6{stroke:#000;stroke-miterlimit:10;}.cls-1,.cls-2,.cls-3,.cls-6{stroke-width:2px;}.cls-2,.cls-4,.cls-5{fill:#ececec;}.cls-3{fill:#7173b6;}.cls-4{stroke-width:1.89px;}.cls-5{stroke-width:1.98px;}.cls-6{stroke-linecap:round;}</style></defs><title>Asset 8</title><g id="Layer_2" data-name="Layer 2"><g id="Layer_2-2" data-name="Layer 2"><path class="cls-1" d="M118,370S55,396,17,469"/><path class="cls-1" d="M291.77,358.56S347,382,385,455"/><path class="cls-1" d="M163.5,569.31s-9-5.81-9,43.19V649"/><path class="cls-1" d="M258.83,562.77s8.31-7.08,13.74,44.71,4,38.57,4,38.57"/><path class="cls-2" d="M106.18,486.59S110,553,105,565c13,3,58,21,92,10V525s19,6,25,5,16-2,16-2,9,42,6,46,63,2,80-10c0,0-14-91-20-97s-185,5-185,5Z"/><path class="cls-3" d="M107.47,357.08S119,408,98,486c54,15,147,11,215,0,0-9-15-27-22-141S107.47,357.08,107.47,357.08Z"/><path class="cls-2" d="M119.5,645.5c0-19,35-5,35,5C154.5,653.5,119.5,664.5,119.5,645.5Z"/><path class="cls-2" d="M311.06,639c-2-18.89-35.33-1.32-34.29,8.63C277.09,650.62,313,657.91,311.06,639Z"/><ellipse class="cls-4" cx="21" cy="485" rx="18" ry="16"/><ellipse class="cls-4" cx="381" cy="471" rx="18" ry="16"/><ellipse class="cls-5" cx="199.25" cy="200.25" rx="189.75" ry="177.25"/><ellipse cx="82.5" cy="221.5" rx="16.5" ry="14.5"/><ellipse cx="318.5" cy="221.5" rx="16.5" ry="14.5"/><path class="cls-6" d="M186,295c-7.7,34.64,15.15,42.43,19.57,30.5a.45.45,0,0,1,.84,0c4.65,10.3,45.36,17.4,19.59-26.5"/><path class="cls-6" d="M109,146c-28-3-54,1-67,25"/><path class="cls-6" d="M299,165c23-3,44,4,67,32"/><line class="cls-6" x1="369" y1="147" x2="397" y2="141"/><path class="cls-6" d="M354,122s37-32,44-33"/><line class="cls-6" x1="327" y1="84" x2="344" y2="61"/><path class="cls-6" d="M273,51s11-40,12-40"/><line class="cls-6" x1="213" y1="35" x2="215" y2="10"/><path class="cls-6" d="M132,45S119,8,118,1"/><path class="cls-6" d="M72,88S56,68,52,58"/><line class="cls-6" x1="33" y1="137" x2="1" y2="110"/></g></g></svg>