<svg xmlns="http://www.w3.org/2000/svg" viewBox="0 0 479.08 661.31"><defs><style>.cls-1,.cls-4,.cls-5,.cls-7{fill:#ececec;}.cls-1,.cls-2,.cls-3,.cls-4,.cls-5,.cls-6{stroke:#000;stroke-miterlimit:10;}.cls-1,.cls-2,.cls-3,.cls-6{stroke-width:2px;}.cls-2{fill:#91be54;}.cls-3,.cls-6{fill:none;}.cls-4{stroke-width:1.89px;}.cls-5{stroke-width:1.69px;}.cls-6{stroke-linecap:round;}</style></defs><title>Asset 7</title><g id="Layer_2" data-name="Layer 2"><g id="Layer_2-2" data-name="Layer 2"><path class="cls-1" d="M346.4,407s65.17-18.13,131.17-20.13c0,0-26-59-13-188s-254-300-398-120c0,0-59,8-44,94s-11,222-21,226,114-22,184,3S346.4,407,346.4,407Z"/><path class="cls-2" d="M159.57,361.76s3,122.15-30,187.15c30,29,183,18,262,6-8-17-57-132-47-210S159.57,361.76,159.57,361.76Z"/><path class="cls-3" d="M209.57,566.91s-6,.5-6,49.5v36.5"/><path class="cls-3" d="M313.57,563.91s2.64-4.3,8.07,47.48,4,38.58,4,38.58"/><path class="cls-1" d="M168.57,649.41c0-19,35-5,35,5C203.57,657.41,168.57,668.41,168.57,649.41Z"/><path class="cls-1" d="M360.13,642.93c-2-18.9-35.33-1.33-34.29,8.62C326.16,654.53,362.11,661.83,360.13,642.93Z"/><ellipse class="cls-4" cx="70.57" cy="482.91" rx="18" ry="16"/><ellipse class="cls-5" cx="428.07" cy="466.91" rx="14.5" ry="16"/><path class="cls-3" d="M159.8,370.48s-55.23,23.43-93.23,96.43"/><path class="cls-3" d="M344,370.48s87.58,28.43,84.58,80.43"/><ellipse class="cls-1" cx="247.82" cy="202.16" rx="189.75" ry="180.25"/><ellipse cx="149.57" cy="203.91" rx="13" ry="27"/><ellipse cx="355.57" cy="203.91" rx="13" ry="27"/><path class="cls-6" d="M167.57,155.91c-5-14-33-18-43-2"/><path class="cls-3" d="M437.57,202.16c-132,7-304-92.25-304-92.25s-29,39-17,80c0,0-23.3,2-56.65-13"/><path class="cls-3" d="M154.57,277.91s130,164,214-25C368.57,252.91,241.57,309.91,154.57,277.91Z"/><path class="cls-1" d="M287.3,341.13s15.27-6.22,15.71-6.22c36.45,52,56.56-17,40.56-25C300.57,294.91,287.3,341.13,287.3,341.13Z"/><path class="cls-7" d="M344,191.63s20.6,4.28,25.6,5.28,6-17,6-17l-16-9s-16,4-17,4-1,12-1,12Z"/><polygon class="cls-7" points="436.16 201.13 439.44 201.13 446.07 165.91 405.32 85.17 355.57 48.91 310.57 21.91 199.07 14.41 110.07 60.41 62.57 124.92 50.57 170.91 61.65 176.58 76.57 173.41 124.57 92.92 232.57 53.91 289.9 62.25 411.07 156.22 436.16 201.13"/></g></g></svg>