<svg xmlns="http://www.w3.org/2000/svg" viewBox="0 0 128.36 50.04"><defs><style>.cls-1{fill:none;}.cls-2{fill:#f6c628;}.cls-3{fill:#b42827;}.cls-4{fill:#e35328;}</style></defs><title>bcuadro6</title><g id="Layer_2" data-name="Layer 2"><g id="Tabla_C" data-name="Tabla C"><rect class="cls-1" width="128.36" height="50.03"/><g id="Bloque1"><rect class="cls-2" x="23.96" y="45.33" width="4.88" height="4.71"/><polygon class="cls-3" points="23.96 50.04 22.97 49.56 22.97 44.86 23.96 45.33 23.96 50.04"/><polygon class="cls-4" points="28.84 45.33 23.96 45.33 22.97 44.86 27.85 44.86 28.84 45.33"/></g><g id="Bloque1-2" data-name="Bloque1"><rect class="cls-2" x="23.96" y="40.35" width="4.88" height="4.71"/><polygon class="cls-3" points="23.96 45.05 22.97 44.58 22.97 39.87 23.96 40.35 23.96 45.05"/><polygon class="cls-4" points="28.84 40.35 23.96 40.35 22.97 39.87 27.85 39.87 28.84 40.35"/></g><g id="Bloque1-3" data-name="Bloque1"><rect class="cls-2" x="23.96" y="35.36" width="4.88" height="4.71"/><polygon class="cls-3" points="23.96 40.07 22.97 39.59 22.97 34.89 23.96 35.37 23.96 40.07"/><polygon class="cls-4" points="28.84 35.37 23.96 35.37 22.97 34.89 27.85 34.89 28.84 35.37"/></g><g id="Bloque1-4" data-name="Bloque1"><rect class="cls-2" x="23.96" y="30.38" width="4.88" height="4.71"/><polygon class="cls-3" points="23.96 35.09 22.97 34.61 22.97 29.9 23.96 30.38 23.96 35.09"/><polygon class="cls-4" points="28.84 30.38 23.96 30.38 22.97 29.9 27.85 29.9 28.84 30.38"/></g><g id="Bloque1-5" data-name="Bloque1"><rect class="cls-2" x="23.96" y="25.4" width="4.88" height="4.71"/><polygon class="cls-3" points="23.96 30.1 22.97 29.63 22.97 24.92 23.96 25.4 23.96 30.1"/><polygon class="cls-4" points="28.84 25.4 23.96 25.4 22.97 24.92 27.85 24.92 28.84 25.4"/></g><g id="Bloque1-6" data-name="Bloque1"><rect class="cls-2" x="23.96" y="20.41" width="4.88" height="4.71"/><polygon class="cls-3" points="23.96 25.12 22.97 24.64 22.97 19.94 23.96 20.41 23.96 25.12"/><polygon class="cls-4" points="28.84 20.41 23.96 20.41 22.97 19.94 27.85 19.94 28.84 20.41"/></g><g id="Bloque1-7" data-name="Bloque1"><rect class="cls-2" x="23.96" y="15.43" width="4.88" height="4.71"/><polygon class="cls-3" points="23.96 20.13 22.97 19.66 22.97 14.95 23.96 15.43 23.96 20.13"/><polygon class="cls-4" points="28.84 15.43 23.96 15.43 22.97 14.95 27.85 14.95 28.84 15.43"/></g><g id="Bloque1-8" data-name="Bloque1"><rect class="cls-2" x="23.96" y="10.44" width="4.88" height="4.71"/><polygon class="cls-3" points="23.96 15.15 22.97 14.67 22.97 9.97 23.96 10.45 23.96 15.15"/><polygon class="cls-4" points="28.84 10.45 23.96 10.45 22.97 9.97 27.85 9.97 28.84 10.45"/></g><g id="Bloque1-9" data-name="Bloque1"><rect class="cls-2" x="23.96" y="5.46" width="4.88" height="4.71"/><polygon class="cls-3" points="23.96 10.17 22.97 9.69 22.97 4.98 23.96 5.46 23.96 10.17"/><polygon class="cls-4" points="28.84 5.46 23.96 5.46 22.97 4.98 27.85 4.98 28.84 5.46"/></g><g id="Bloque1-10" data-name="Bloque1"><rect class="cls-2" x="23.96" y="0.48" width="4.88" height="4.71"/><polygon class="cls-3" points="23.96 5.18 22.97 4.71 22.97 0 23.96 0.48 23.96 5.18"/><polygon class="cls-4" points="28.84 0.48 23.96 0.48 22.97 0 27.85 0 28.84 0.48"/></g><g id="Bloque1-11" data-name="Bloque1"><rect class="cls-2" x="39.27" y="45.33" width="4.88" height="4.71"/><polygon class="cls-3" points="39.27 50.04 38.28 49.56 38.28 44.86 39.27 45.33 39.27 50.04"/><polygon class="cls-4" points="44.15 45.33 39.27 45.33 38.28 44.86 43.16 44.86 44.15 45.33"/></g><g id="Bloque1-12" data-name="Bloque1"><rect class="cls-2" x="39.27" y="40.35" width="4.88" height="4.71"/><polygon class="cls-3" points="39.27 45.05 38.28 44.58 38.28 39.87 39.27 40.35 39.27 45.05"/><polygon class="cls-4" points="44.15 40.35 39.27 40.35 38.28 39.87 43.16 39.87 44.15 40.35"/></g><g id="Bloque1-13" data-name="Bloque1"><rect class="cls-2" x="39.27" y="35.36" width="4.88" height="4.71"/><polygon class="cls-3" points="39.27 40.07 38.28 39.59 38.28 34.89 39.27 35.37 39.27 40.07"/><polygon class="cls-4" points="44.15 35.37 39.27 35.37 38.28 34.89 43.16 34.89 44.15 35.37"/></g><g id="Bloque1-14" data-name="Bloque1"><rect class="cls-2" x="39.27" y="30.38" width="4.88" height="4.71"/><polygon class="cls-3" points="39.27 35.09 38.28 34.61 38.28 29.9 39.27 30.38 39.27 35.09"/><polygon class="cls-4" points="44.15 30.38 39.27 30.38 38.28 29.9 43.16 29.9 44.15 30.38"/></g><g id="Bloque1-15" data-name="Bloque1"><rect class="cls-2" x="39.27" y="25.4" width="4.88" height="4.71"/><polygon class="cls-3" points="39.27 30.1 38.28 29.63 38.28 24.92 39.27 25.4 39.27 30.1"/><polygon class="cls-4" points="44.15 25.4 39.27 25.4 38.28 24.92 43.16 24.92 44.15 25.4"/></g><g id="Bloque1-16" data-name="Bloque1"><rect class="cls-2" x="39.27" y="20.41" width="4.88" height="4.71"/><polygon class="cls-3" points="39.27 25.12 38.28 24.64 38.28 19.94 39.27 20.41 39.27 25.12"/><polygon class="cls-4" points="44.15 20.41 39.27 20.41 38.28 19.94 43.16 19.94 44.15 20.41"/></g><g id="Bloque1-17" data-name="Bloque1"><rect class="cls-2" x="39.27" y="15.43" width="4.88" height="4.71"/><polygon class="cls-3" points="39.27 20.13 38.28 19.66 38.28 14.95 39.27 15.43 39.27 20.13"/><polygon class="cls-4" points="44.15 15.43 39.27 15.43 38.28 14.95 43.16 14.95 44.15 15.43"/></g><g id="Bloque1-18" data-name="Bloque1"><rect class="cls-2" x="39.27" y="10.44" width="4.88" height="4.71"/><polygon class="cls-3" points="39.27 15.15 38.28 14.67 38.28 9.97 39.27 10.45 39.27 15.15"/><polygon class="cls-4" points="44.15 10.45 39.27 10.45 38.28 9.97 43.16 9.97 44.15 10.45"/></g><g id="Bloque1-19" data-name="Bloque1"><rect class="cls-2" x="39.27" y="5.46" width="4.88" height="4.71"/><polygon class="cls-3" points="39.27 10.17 38.28 9.69 38.28 4.98 39.27 5.46 39.27 10.17"/><polygon class="cls-4" points="44.15 5.46 39.27 5.46 38.28 4.98 43.16 4.98 44.15 5.46"/></g><g id="Bloque1-20" data-name="Bloque1"><rect class="cls-2" x="39.27" y="0.48" width="4.88" height="4.71"/><polygon class="cls-3" points="39.27 5.18 38.28 4.71 38.28 0 39.27 0.48 39.27 5.18"/><polygon class="cls-4" points="44.15 0.48 39.27 0.48 38.28 0 43.16 0 44.15 0.48"/></g><g id="Bloque1-21" data-name="Bloque1"><rect class="cls-2" x="54.58" y="45.33" width="4.88" height="4.71"/><polygon class="cls-3" points="54.58 50.04 53.59 49.56 53.59 44.86 54.58 45.33 54.58 50.04"/><polygon class="cls-4" points="59.46 45.33 54.58 45.33 53.59 44.86 58.47 44.86 59.46 45.33"/></g><g id="Bloque1-22" data-name="Bloque1"><rect class="cls-2" x="54.58" y="40.35" width="4.88" height="4.71"/><polygon class="cls-3" points="54.58 45.05 53.59 44.58 53.59 39.87 54.58 40.35 54.58 45.05"/><polygon class="cls-4" points="59.46 40.35 54.58 40.35 53.59 39.87 58.47 39.87 59.46 40.35"/></g><g id="Bloque1-23" data-name="Bloque1"><rect class="cls-2" x="54.58" y="35.36" width="4.88" height="4.71"/><polygon class="cls-3" points="54.58 40.07 53.59 39.59 53.59 34.89 54.58 35.37 54.58 40.07"/><polygon class="cls-4" points="59.46 35.37 54.58 35.37 53.59 34.89 58.47 34.89 59.46 35.37"/></g><g id="Bloque1-24" data-name="Bloque1"><rect class="cls-2" x="54.58" y="30.38" width="4.88" height="4.71"/><polygon class="cls-3" points="54.58 35.09 53.59 34.61 53.59 29.9 54.58 30.38 54.58 35.09"/><polygon class="cls-4" points="59.46 30.38 54.58 30.38 53.59 29.9 58.47 29.9 59.46 30.38"/></g><g id="Bloque1-25" data-name="Bloque1"><rect class="cls-2" x="54.58" y="25.4" width="4.88" height="4.71"/><polygon class="cls-3" points="54.58 30.1 53.59 29.63 53.59 24.92 54.58 25.4 54.58 30.1"/><polygon class="cls-4" points="59.46 25.4 54.58 25.4 53.59 24.92 58.47 24.92 59.46 25.4"/></g><g id="Bloque1-26" data-name="Bloque1"><rect class="cls-2" x="54.58" y="20.41" width="4.88" height="4.71"/><polygon class="cls-3" points="54.58 25.12 53.59 24.64 53.59 19.94 54.58 20.41 54.58 25.12"/><polygon class="cls-4" points="59.46 20.41 54.58 20.41 53.59 19.94 58.47 19.94 59.46 20.41"/></g><g id="Bloque1-27" data-name="Bloque1"><rect class="cls-2" x="54.58" y="15.43" width="4.88" height="4.71"/><polygon class="cls-3" points="54.58 20.13 53.59 19.66 53.59 14.95 54.58 15.43 54.58 20.13"/><polygon class="cls-4" points="59.46 15.43 54.58 15.43 53.59 14.95 58.47 14.95 59.46 15.43"/></g><g id="Bloque1-28" data-name="Bloque1"><rect class="cls-2" x="54.58" y="10.44" width="4.88" height="4.71"/><polygon class="cls-3" points="54.58 15.15 53.59 14.67 53.59 9.97 54.58 10.45 54.58 15.15"/><polygon class="cls-4" points="59.46 10.45 54.58 10.45 53.59 9.97 58.47 9.97 59.46 10.45"/></g><g id="Bloque1-29" data-name="Bloque1"><rect class="cls-2" x="54.58" y="5.46" width="4.88" height="4.71"/><polygon class="cls-3" points="54.58 10.17 53.59 9.69 53.59 4.98 54.58 5.46 54.58 10.17"/><polygon class="cls-4" points="59.46 5.46 54.58 5.46 53.59 4.98 58.47 4.98 59.46 5.46"/></g><g id="Bloque1-30" data-name="Bloque1"><rect class="cls-2" x="54.58" y="0.48" width="4.88" height="4.71"/><polygon class="cls-3" points="54.58 5.18 53.59 4.71 53.59 0 54.58 0.48 54.58 5.18"/><polygon class="cls-4" points="59.46 0.48 54.58 0.48 53.59 0 58.47 0 59.46 0.48"/></g><g id="Bloque1-31" data-name="Bloque1"><rect class="cls-2" x="69.89" y="45.33" width="4.88" height="4.71"/><polygon class="cls-3" points="69.89 50.04 68.9 49.56 68.9 44.86 69.89 45.33 69.89 50.04"/><polygon class="cls-4" points="74.77 45.33 69.89 45.33 68.9 44.86 73.78 44.86 74.77 45.33"/></g><g id="Bloque1-32" data-name="Bloque1"><rect class="cls-2" x="69.89" y="40.35" width="4.88" height="4.71"/><polygon class="cls-3" points="69.89 45.05 68.9 44.58 68.9 39.87 69.89 40.35 69.89 45.05"/><polygon class="cls-4" points="74.77 40.35 69.89 40.35 68.9 39.87 73.78 39.87 74.77 40.35"/></g><g id="Bloque1-33" data-name="Bloque1"><rect class="cls-2" x="69.89" y="35.36" width="4.88" height="4.71"/><polygon class="cls-3" points="69.89 40.07 68.9 39.59 68.9 34.89 69.89 35.37 69.89 40.07"/><polygon class="cls-4" points="74.77 35.37 69.89 35.37 68.9 34.89 73.78 34.89 74.77 35.37"/></g><g id="Bloque1-34" data-name="Bloque1"><rect class="cls-2" x="69.89" y="30.38" width="4.88" height="4.71"/><polygon class="cls-3" points="69.89 35.09 68.9 34.61 68.9 29.9 69.89 30.38 69.89 35.09"/><polygon class="cls-4" points="74.77 30.38 69.89 30.38 68.9 29.9 73.78 29.9 74.77 30.38"/></g><g id="Bloque1-35" data-name="Bloque1"><rect class="cls-2" x="69.89" y="25.4" width="4.88" height="4.71"/><polygon class="cls-3" points="69.89 30.1 68.9 29.63 68.9 24.92 69.89 25.4 69.89 30.1"/><polygon class="cls-4" points="74.77 25.4 69.89 25.4 68.9 24.92 73.78 24.92 74.77 25.4"/></g><g id="Bloque1-36" data-name="Bloque1"><rect class="cls-2" x="69.89" y="20.41" width="4.88" height="4.71"/><polygon class="cls-3" points="69.89 25.12 68.9 24.64 68.9 19.94 69.89 20.41 69.89 25.12"/><polygon class="cls-4" points="74.77 20.41 69.89 20.41 68.9 19.94 73.78 19.94 74.77 20.41"/></g><g id="Bloque1-37" data-name="Bloque1"><rect class="cls-2" x="69.89" y="15.43" width="4.88" height="4.71"/><polygon class="cls-3" points="69.89 20.13 68.9 19.66 68.9 14.95 69.89 15.43 69.89 20.13"/><polygon class="cls-4" points="74.77 15.43 69.89 15.43 68.9 14.95 73.78 14.95 74.77 15.43"/></g><g id="Bloque1-38" data-name="Bloque1"><rect class="cls-2" x="69.89" y="10.44" width="4.88" height="4.71"/><polygon class="cls-3" points="69.89 15.15 68.9 14.67 68.9 9.97 69.89 10.45 69.89 15.15"/><polygon class="cls-4" points="74.77 10.45 69.89 10.45 68.9 9.97 73.78 9.97 74.77 10.45"/></g><g id="Bloque1-39" data-name="Bloque1"><rect class="cls-2" x="69.89" y="5.46" width="4.88" height="4.71"/><polygon class="cls-3" points="69.89 10.17 68.9 9.69 68.9 4.98 69.89 5.46 69.89 10.17"/><polygon class="cls-4" points="74.77 5.46 69.89 5.46 68.9 4.98 73.78 4.98 74.77 5.46"/></g><g id="Bloque1-40" data-name="Bloque1"><rect class="cls-2" x="69.89" y="0.48" width="4.88" height="4.71"/><polygon class="cls-3" points="69.89 5.18 68.9 4.71 68.9 0 69.89 0.48 69.89 5.18"/><polygon class="cls-4" points="74.77 0.48 69.89 0.48 68.9 0 73.78 0 74.77 0.48"/></g><g id="Bloque1-41" data-name="Bloque1"><rect class="cls-2" x="85.2" y="45.33" width="4.88" height="4.71"/><polygon class="cls-3" points="85.2 50.04 84.21 49.56 84.21 44.86 85.2 45.33 85.2 50.04"/><polygon class="cls-4" points="90.09 45.33 85.2 45.33 84.21 44.86 89.1 44.86 90.09 45.33"/></g><g id="Bloque1-42" data-name="Bloque1"><rect class="cls-2" x="85.2" y="40.35" width="4.88" height="4.71"/><polygon class="cls-3" points="85.2 45.05 84.21 44.58 84.21 39.87 85.2 40.35 85.2 45.05"/><polygon class="cls-4" points="90.09 40.35 85.2 40.35 84.21 39.87 89.1 39.87 90.09 40.35"/></g><g id="Bloque1-43" data-name="Bloque1"><rect class="cls-2" x="85.2" y="35.36" width="4.88" height="4.71"/><polygon class="cls-3" points="85.2 40.07 84.21 39.59 84.21 34.89 85.2 35.37 85.2 40.07"/><polygon class="cls-4" points="90.09 35.37 85.2 35.37 84.21 34.89 89.1 34.89 90.09 35.37"/></g><g id="Bloque1-44" data-name="Bloque1"><rect class="cls-2" x="85.2" y="30.38" width="4.88" height="4.71"/><polygon class="cls-3" points="85.2 35.09 84.21 34.61 84.21 29.9 85.2 30.38 85.2 35.09"/><polygon class="cls-4" points="90.09 30.38 85.2 30.38 84.21 29.9 89.1 29.9 90.09 30.38"/></g><g id="Bloque1-45" data-name="Bloque1"><rect class="cls-2" x="85.2" y="25.4" width="4.88" height="4.71"/><polygon class="cls-3" points="85.2 30.1 84.21 29.63 84.21 24.92 85.2 25.4 85.2 30.1"/><polygon class="cls-4" points="90.09 25.4 85.2 25.4 84.21 24.92 89.1 24.92 90.09 25.4"/></g><g id="Bloque1-46" data-name="Bloque1"><rect class="cls-2" x="85.2" y="20.41" width="4.88" height="4.71"/><polygon class="cls-3" points="85.2 25.12 84.21 24.64 84.21 19.94 85.2 20.41 85.2 25.12"/><polygon class="cls-4" points="90.09 20.41 85.2 20.41 84.21 19.94 89.1 19.94 90.09 20.41"/></g><g id="Bloque1-47" data-name="Bloque1"><rect class="cls-2" x="85.2" y="15.43" width="4.88" height="4.71"/><polygon class="cls-3" points="85.2 20.13 84.21 19.66 84.21 14.95 85.2 15.43 85.2 20.13"/><polygon class="cls-4" points="90.09 15.43 85.2 15.43 84.21 14.95 89.1 14.95 90.09 15.43"/></g><g id="Bloque1-48" data-name="Bloque1"><rect class="cls-2" x="85.2" y="10.44" width="4.88" height="4.71"/><polygon class="cls-3" points="85.2 15.15 84.21 14.67 84.21 9.97 85.2 10.45 85.2 15.15"/><polygon class="cls-4" points="90.09 10.45 85.2 10.45 84.21 9.97 89.1 9.97 90.09 10.45"/></g><g id="Bloque1-49" data-name="Bloque1"><rect class="cls-2" x="85.2" y="5.46" width="4.88" height="4.71"/><polygon class="cls-3" points="85.2 10.17 84.21 9.69 84.21 4.98 85.2 5.46 85.2 10.17"/><polygon class="cls-4" points="90.09 5.46 85.2 5.46 84.21 4.98 89.1 4.98 90.09 5.46"/></g><g id="Bloque1-50" data-name="Bloque1"><rect class="cls-2" x="85.2" y="0.48" width="4.88" height="4.71"/><polygon class="cls-3" points="85.2 5.18 84.21 4.71 84.21 0 85.2 0.48 85.2 5.18"/><polygon class="cls-4" points="90.09 0.48 85.2 0.48 84.21 0 89.1 0 90.09 0.48"/></g><g id="Bloque1-51" data-name="Bloque1"><rect class="cls-2" x="100.51" y="45.33" width="4.88" height="4.71"/><polygon class="cls-3" points="100.51 50.04 99.53 49.56 99.53 44.86 100.51 45.33 100.51 50.04"/><polygon class="cls-4" points="105.4 45.33 100.51 45.33 99.53 44.86 104.41 44.86 105.4 45.33"/></g><g id="Bloque1-52" data-name="Bloque1"><rect class="cls-2" x="100.51" y="40.35" width="4.88" height="4.71"/><polygon class="cls-3" points="100.51 45.05 99.53 44.58 99.53 39.87 100.51 40.35 100.51 45.05"/><polygon class="cls-4" points="105.4 40.35 100.51 40.35 99.53 39.87 104.41 39.87 105.4 40.35"/></g><g id="Bloque1-53" data-name="Bloque1"><rect class="cls-2" x="100.51" y="35.36" width="4.88" height="4.71"/><polygon class="cls-3" points="100.51 40.07 99.53 39.59 99.53 34.89 100.51 35.37 100.51 40.07"/><polygon class="cls-4" points="105.4 35.37 100.51 35.37 99.53 34.89 104.41 34.89 105.4 35.37"/></g><g id="Bloque1-54" data-name="Bloque1"><rect class="cls-2" x="100.51" y="30.38" width="4.88" height="4.71"/><polygon class="cls-3" points="100.51 35.09 99.53 34.61 99.53 29.9 100.51 30.38 100.51 35.09"/><polygon class="cls-4" points="105.4 30.38 100.51 30.38 99.53 29.9 104.41 29.9 105.4 30.38"/></g><g id="Bloque1-55" data-name="Bloque1"><rect class="cls-2" x="100.51" y="25.4" width="4.88" height="4.71"/><polygon class="cls-3" points="100.51 30.1 99.53 29.63 99.53 24.92 100.51 25.4 100.51 30.1"/><polygon class="cls-4" points="105.4 25.4 100.51 25.4 99.53 24.92 104.41 24.92 105.4 25.4"/></g><g id="Bloque1-56" data-name="Bloque1"><rect class="cls-2" x="100.51" y="20.41" width="4.88" height="4.71"/><polygon class="cls-3" points="100.51 25.12 99.53 24.64 99.53 19.94 100.51 20.41 100.51 25.12"/><polygon class="cls-4" points="105.4 20.41 100.51 20.41 99.53 19.94 104.41 19.94 105.4 20.41"/></g><g id="Bloque1-57" data-name="Bloque1"><rect class="cls-2" x="100.51" y="15.43" width="4.88" height="4.71"/><polygon class="cls-3" points="100.51 20.13 99.53 19.66 99.53 14.95 100.51 15.43 100.51 20.13"/><polygon class="cls-4" points="105.4 15.43 100.51 15.43 99.53 14.95 104.41 14.95 105.4 15.43"/></g><g id="Bloque1-58" data-name="Bloque1"><rect class="cls-2" x="100.51" y="10.44" width="4.88" height="4.71"/><polygon class="cls-3" points="100.51 15.15 99.53 14.67 99.53 9.97 100.51 10.45 100.51 15.15"/><polygon class="cls-4" points="105.4 10.45 100.51 10.45 99.53 9.97 104.41 9.97 105.4 10.45"/></g><g id="Bloque1-59" data-name="Bloque1"><rect class="cls-2" x="100.51" y="5.46" width="4.88" height="4.71"/><polygon class="cls-3" points="100.51 10.17 99.53 9.69 99.53 4.98 100.51 5.46 100.51 10.17"/><polygon class="cls-4" points="105.4 5.46 100.51 5.46 99.53 4.98 104.41 4.98 105.4 5.46"/></g><g id="Bloque1-60" data-name="Bloque1"><rect class="cls-2" x="100.51" y="0.48" width="4.88" height="4.71"/><polygon class="cls-3" points="100.51 5.18 99.53 4.71 99.53 0 100.51 0.48 100.51 5.18"/><polygon class="cls-4" points="105.4 0.48 100.51 0.48 99.53 0 104.41 0 105.4 0.48"/></g></g></g></svg>