<svg xmlns="http://www.w3.org/2000/svg" viewBox="0 0 128.36 50.04"><defs><style>.cls-1{fill:#e9c53d;}.cls-2{fill:#9a2b2a;}.cls-3{fill:#c6532e;}</style></defs><title>barras9</title><g id="Capa_2" data-name="Capa 2"><g id="Tabla_C" data-name="Tabla C"><g id="Bloque1"><rect class="cls-1" x="0.99" y="45.33" width="4.88" height="4.71"/><polygon class="cls-2" points="0.99 50.04 0 49.56 0 44.86 0.99 45.33 0.99 50.04"/><polygon class="cls-3" points="5.87 45.33 0.99 45.33 0 44.86 4.88 44.86 5.87 45.33"/></g><g id="Bloque1-2" data-name="Bloque1"><rect class="cls-1" x="0.99" y="40.35" width="4.88" height="4.71"/><polygon class="cls-2" points="0.99 45.05 0 44.58 0 39.87 0.99 40.35 0.99 45.05"/><polygon class="cls-3" points="5.87 40.35 0.99 40.35 0 39.87 4.88 39.87 5.87 40.35"/></g><g id="Bloque1-3" data-name="Bloque1"><rect class="cls-1" x="0.99" y="35.36" width="4.88" height="4.71"/><polygon class="cls-2" points="0.99 40.07 0 39.59 0 34.89 0.99 35.37 0.99 40.07"/><polygon class="cls-3" points="5.87 35.37 0.99 35.37 0 34.89 4.88 34.89 5.87 35.37"/></g><g id="Bloque1-4" data-name="Bloque1"><rect class="cls-1" x="0.99" y="30.38" width="4.88" height="4.71"/><polygon class="cls-2" points="0.99 35.09 0 34.61 0 29.9 0.99 30.38 0.99 35.09"/><polygon class="cls-3" points="5.87 30.38 0.99 30.38 0 29.9 4.88 29.9 5.87 30.38"/></g><g id="Bloque1-5" data-name="Bloque1"><rect class="cls-1" x="0.99" y="25.4" width="4.88" height="4.71"/><polygon class="cls-2" points="0.99 30.1 0 29.63 0 24.92 0.99 25.4 0.99 30.1"/><polygon class="cls-3" points="5.87 25.4 0.99 25.4 0 24.92 4.88 24.92 5.87 25.4"/></g><g id="Bloque1-6" data-name="Bloque1"><rect class="cls-1" x="0.99" y="20.41" width="4.88" height="4.71"/><polygon class="cls-2" points="0.99 25.12 0 24.64 0 19.94 0.99 20.41 0.99 25.12"/><polygon class="cls-3" points="5.87 20.41 0.99 20.41 0 19.94 4.88 19.94 5.87 20.41"/></g><g id="Bloque1-7" data-name="Bloque1"><rect class="cls-1" x="0.99" y="15.43" width="4.88" height="4.71"/><polygon class="cls-2" points="0.99 20.13 0 19.66 0 14.95 0.99 15.43 0.99 20.13"/><polygon class="cls-3" points="5.87 15.43 0.99 15.43 0 14.95 4.88 14.95 5.87 15.43"/></g><g id="Bloque1-8" data-name="Bloque1"><rect class="cls-1" x="0.99" y="10.44" width="4.88" height="4.71"/><polygon class="cls-2" points="0.99 15.15 0 14.67 0 9.97 0.99 10.45 0.99 15.15"/><polygon class="cls-3" points="5.87 10.45 0.99 10.45 0 9.97 4.88 9.97 5.87 10.45"/></g><g id="Bloque1-9" data-name="Bloque1"><rect class="cls-1" x="0.99" y="5.46" width="4.88" height="4.71"/><polygon class="cls-2" points="0.99 10.17 0 9.69 0 4.98 0.99 5.46 0.99 10.17"/><polygon class="cls-3" points="5.87 5.46 0.99 5.46 0 4.98 4.88 4.98 5.87 5.46"/></g><g id="Bloque1-10" data-name="Bloque1"><rect class="cls-1" x="0.99" y="0.48" width="4.88" height="4.71"/><polygon class="cls-2" points="0.99 5.18 0 4.71 0 0 0.99 0.48 0.99 5.18"/><polygon class="cls-3" points="5.87 0.48 0.99 0.48 0 0 4.88 0 5.87 0.48"/></g><g id="Bloque1-11" data-name="Bloque1"><rect class="cls-1" x="16.3" y="45.33" width="4.88" height="4.71"/><polygon class="cls-2" points="16.3 50.04 15.31 49.56 15.31 44.86 16.3 45.33 16.3 50.04"/><polygon class="cls-3" points="21.18 45.33 16.3 45.33 15.31 44.86 20.19 44.86 21.18 45.33"/></g><g id="Bloque1-12" data-name="Bloque1"><rect class="cls-1" x="16.3" y="40.35" width="4.88" height="4.71"/><polygon class="cls-2" points="16.3 45.05 15.31 44.58 15.31 39.87 16.3 40.35 16.3 45.05"/><polygon class="cls-3" points="21.18 40.35 16.3 40.35 15.31 39.87 20.19 39.87 21.18 40.35"/></g><g id="Bloque1-13" data-name="Bloque1"><rect class="cls-1" x="16.3" y="35.36" width="4.88" height="4.71"/><polygon class="cls-2" points="16.3 40.07 15.31 39.59 15.31 34.89 16.3 35.37 16.3 40.07"/><polygon class="cls-3" points="21.18 35.37 16.3 35.37 15.31 34.89 20.19 34.89 21.18 35.37"/></g><g id="Bloque1-14" data-name="Bloque1"><rect class="cls-1" x="16.3" y="30.38" width="4.88" height="4.71"/><polygon class="cls-2" points="16.3 35.09 15.31 34.61 15.31 29.9 16.3 30.38 16.3 35.09"/><polygon class="cls-3" points="21.18 30.38 16.3 30.38 15.31 29.9 20.19 29.9 21.18 30.38"/></g><g id="Bloque1-15" data-name="Bloque1"><rect class="cls-1" x="16.3" y="25.4" width="4.88" height="4.71"/><polygon class="cls-2" points="16.3 30.1 15.31 29.63 15.31 24.92 16.3 25.4 16.3 30.1"/><polygon class="cls-3" points="21.18 25.4 16.3 25.4 15.31 24.92 20.19 24.92 21.18 25.4"/></g><g id="Bloque1-16" data-name="Bloque1"><rect class="cls-1" x="16.3" y="20.41" width="4.88" height="4.71"/><polygon class="cls-2" points="16.3 25.12 15.31 24.64 15.31 19.94 16.3 20.41 16.3 25.12"/><polygon class="cls-3" points="21.18 20.41 16.3 20.41 15.31 19.94 20.19 19.94 21.18 20.41"/></g><g id="Bloque1-17" data-name="Bloque1"><rect class="cls-1" x="16.3" y="15.43" width="4.88" height="4.71"/><polygon class="cls-2" points="16.3 20.13 15.31 19.66 15.31 14.95 16.3 15.43 16.3 20.13"/><polygon class="cls-3" points="21.18 15.43 16.3 15.43 15.31 14.95 20.19 14.95 21.18 15.43"/></g><g id="Bloque1-18" data-name="Bloque1"><rect class="cls-1" x="16.3" y="10.44" width="4.88" height="4.71"/><polygon class="cls-2" points="16.3 15.15 15.31 14.67 15.31 9.97 16.3 10.45 16.3 15.15"/><polygon class="cls-3" points="21.18 10.45 16.3 10.45 15.31 9.97 20.19 9.97 21.18 10.45"/></g><g id="Bloque1-19" data-name="Bloque1"><rect class="cls-1" x="16.3" y="5.46" width="4.88" height="4.71"/><polygon class="cls-2" points="16.3 10.17 15.31 9.69 15.31 4.98 16.3 5.46 16.3 10.17"/><polygon class="cls-3" points="21.18 5.46 16.3 5.46 15.31 4.98 20.19 4.98 21.18 5.46"/></g><g id="Bloque1-20" data-name="Bloque1"><rect class="cls-1" x="16.3" y="0.48" width="4.88" height="4.71"/><polygon class="cls-2" points="16.3 5.18 15.31 4.71 15.31 0 16.3 0.48 16.3 5.18"/><polygon class="cls-3" points="21.18 0.48 16.3 0.48 15.31 0 20.19 0 21.18 0.48"/></g><g id="Bloque1-21" data-name="Bloque1"><rect class="cls-1" x="31.61" y="45.33" width="4.88" height="4.71"/><polygon class="cls-2" points="31.61 50.04 30.62 49.56 30.62 44.86 31.61 45.33 31.61 50.04"/><polygon class="cls-3" points="36.49 45.33 31.61 45.33 30.62 44.86 35.51 44.86 36.49 45.33"/></g><g id="Bloque1-22" data-name="Bloque1"><rect class="cls-1" x="31.61" y="40.35" width="4.88" height="4.71"/><polygon class="cls-2" points="31.61 45.05 30.62 44.58 30.62 39.87 31.61 40.35 31.61 45.05"/><polygon class="cls-3" points="36.49 40.35 31.61 40.35 30.62 39.87 35.51 39.87 36.49 40.35"/></g><g id="Bloque1-23" data-name="Bloque1"><rect class="cls-1" x="31.61" y="35.36" width="4.88" height="4.71"/><polygon class="cls-2" points="31.61 40.07 30.62 39.59 30.62 34.89 31.61 35.37 31.61 40.07"/><polygon class="cls-3" points="36.49 35.37 31.61 35.37 30.62 34.89 35.51 34.89 36.49 35.37"/></g><g id="Bloque1-24" data-name="Bloque1"><rect class="cls-1" x="31.61" y="30.38" width="4.88" height="4.71"/><polygon class="cls-2" points="31.61 35.09 30.62 34.61 30.62 29.9 31.61 30.38 31.61 35.09"/><polygon class="cls-3" points="36.49 30.38 31.61 30.38 30.62 29.9 35.51 29.9 36.49 30.38"/></g><g id="Bloque1-25" data-name="Bloque1"><rect class="cls-1" x="31.61" y="25.4" width="4.88" height="4.71"/><polygon class="cls-2" points="31.61 30.1 30.62 29.63 30.62 24.92 31.61 25.4 31.61 30.1"/><polygon class="cls-3" points="36.49 25.4 31.61 25.4 30.62 24.92 35.51 24.92 36.49 25.4"/></g><g id="Bloque1-26" data-name="Bloque1"><rect class="cls-1" x="31.61" y="20.41" width="4.88" height="4.71"/><polygon class="cls-2" points="31.61 25.12 30.62 24.64 30.62 19.94 31.61 20.41 31.61 25.12"/><polygon class="cls-3" points="36.49 20.41 31.61 20.41 30.62 19.94 35.51 19.94 36.49 20.41"/></g><g id="Bloque1-27" data-name="Bloque1"><rect class="cls-1" x="31.61" y="15.43" width="4.88" height="4.71"/><polygon class="cls-2" points="31.61 20.13 30.62 19.66 30.62 14.95 31.61 15.43 31.61 20.13"/><polygon class="cls-3" points="36.49 15.43 31.61 15.43 30.62 14.95 35.51 14.95 36.49 15.43"/></g><g id="Bloque1-28" data-name="Bloque1"><rect class="cls-1" x="31.61" y="10.44" width="4.88" height="4.71"/><polygon class="cls-2" points="31.61 15.15 30.62 14.67 30.62 9.97 31.61 10.45 31.61 15.15"/><polygon class="cls-3" points="36.49 10.45 31.61 10.45 30.62 9.97 35.51 9.97 36.49 10.45"/></g><g id="Bloque1-29" data-name="Bloque1"><rect class="cls-1" x="31.61" y="5.46" width="4.88" height="4.71"/><polygon class="cls-2" points="31.61 10.17 30.62 9.69 30.62 4.98 31.61 5.46 31.61 10.17"/><polygon class="cls-3" points="36.49 5.46 31.61 5.46 30.62 4.98 35.51 4.98 36.49 5.46"/></g><g id="Bloque1-30" data-name="Bloque1"><rect class="cls-1" x="31.61" y="0.48" width="4.88" height="4.71"/><polygon class="cls-2" points="31.61 5.18 30.62 4.71 30.62 0 31.61 0.48 31.61 5.18"/><polygon class="cls-3" points="36.49 0.48 31.61 0.48 30.62 0 35.51 0 36.49 0.48"/></g><g id="Bloque1-31" data-name="Bloque1"><rect class="cls-1" x="46.92" y="45.33" width="4.88" height="4.71"/><polygon class="cls-2" points="46.92 50.04 45.94 49.56 45.94 44.86 46.92 45.33 46.92 50.04"/><polygon class="cls-3" points="51.81 45.33 46.92 45.33 45.94 44.86 50.82 44.86 51.81 45.33"/></g><g id="Bloque1-32" data-name="Bloque1"><rect class="cls-1" x="46.92" y="40.35" width="4.88" height="4.71"/><polygon class="cls-2" points="46.92 45.05 45.94 44.58 45.94 39.87 46.92 40.35 46.92 45.05"/><polygon class="cls-3" points="51.81 40.35 46.92 40.35 45.94 39.87 50.82 39.87 51.81 40.35"/></g><g id="Bloque1-33" data-name="Bloque1"><rect class="cls-1" x="46.92" y="35.36" width="4.88" height="4.71"/><polygon class="cls-2" points="46.92 40.07 45.94 39.59 45.94 34.89 46.92 35.37 46.92 40.07"/><polygon class="cls-3" points="51.81 35.37 46.92 35.37 45.94 34.89 50.82 34.89 51.81 35.37"/></g><g id="Bloque1-34" data-name="Bloque1"><rect class="cls-1" x="46.92" y="30.38" width="4.88" height="4.71"/><polygon class="cls-2" points="46.92 35.09 45.94 34.61 45.94 29.9 46.92 30.38 46.92 35.09"/><polygon class="cls-3" points="51.81 30.38 46.92 30.38 45.94 29.9 50.82 29.9 51.81 30.38"/></g><g id="Bloque1-35" data-name="Bloque1"><rect class="cls-1" x="46.92" y="25.4" width="4.88" height="4.71"/><polygon class="cls-2" points="46.92 30.1 45.94 29.63 45.94 24.92 46.92 25.4 46.92 30.1"/><polygon class="cls-3" points="51.81 25.4 46.92 25.4 45.94 24.92 50.82 24.92 51.81 25.4"/></g><g id="Bloque1-36" data-name="Bloque1"><rect class="cls-1" x="46.92" y="20.41" width="4.88" height="4.71"/><polygon class="cls-2" points="46.92 25.12 45.94 24.64 45.94 19.94 46.92 20.41 46.92 25.12"/><polygon class="cls-3" points="51.81 20.41 46.92 20.41 45.94 19.94 50.82 19.94 51.81 20.41"/></g><g id="Bloque1-37" data-name="Bloque1"><rect class="cls-1" x="46.92" y="15.43" width="4.88" height="4.71"/><polygon class="cls-2" points="46.92 20.13 45.94 19.66 45.94 14.95 46.92 15.43 46.92 20.13"/><polygon class="cls-3" points="51.81 15.43 46.92 15.43 45.94 14.95 50.82 14.95 51.81 15.43"/></g><g id="Bloque1-38" data-name="Bloque1"><rect class="cls-1" x="46.92" y="10.44" width="4.88" height="4.71"/><polygon class="cls-2" points="46.92 15.15 45.94 14.67 45.94 9.97 46.92 10.45 46.92 15.15"/><polygon class="cls-3" points="51.81 10.45 46.92 10.45 45.94 9.97 50.82 9.97 51.81 10.45"/></g><g id="Bloque1-39" data-name="Bloque1"><rect class="cls-1" x="46.92" y="5.46" width="4.88" height="4.71"/><polygon class="cls-2" points="46.92 10.17 45.94 9.69 45.94 4.98 46.92 5.46 46.92 10.17"/><polygon class="cls-3" points="51.81 5.46 46.92 5.46 45.94 4.98 50.82 4.98 51.81 5.46"/></g><g id="Bloque1-40" data-name="Bloque1"><rect class="cls-1" x="46.92" y="0.48" width="4.88" height="4.71"/><polygon class="cls-2" points="46.92 5.18 45.94 4.71 45.94 0 46.92 0.48 46.92 5.18"/><polygon class="cls-3" points="51.81 0.48 46.92 0.48 45.94 0 50.82 0 51.81 0.48"/></g><g id="Bloque1-41" data-name="Bloque1"><rect class="cls-1" x="62.24" y="45.33" width="4.88" height="4.71"/><polygon class="cls-2" points="62.23 50.04 61.25 49.56 61.25 44.86 62.23 45.33 62.23 50.04"/><polygon class="cls-3" points="67.12 45.33 62.23 45.33 61.25 44.86 66.13 44.86 67.12 45.33"/></g><g id="Bloque1-42" data-name="Bloque1"><rect class="cls-1" x="62.24" y="40.35" width="4.88" height="4.71"/><polygon class="cls-2" points="62.23 45.05 61.25 44.58 61.25 39.87 62.23 40.35 62.23 45.05"/><polygon class="cls-3" points="67.12 40.35 62.23 40.35 61.25 39.87 66.13 39.87 67.12 40.35"/></g><g id="Bloque1-43" data-name="Bloque1"><rect class="cls-1" x="62.24" y="35.36" width="4.88" height="4.71"/><polygon class="cls-2" points="62.23 40.07 61.25 39.59 61.25 34.89 62.23 35.37 62.23 40.07"/><polygon class="cls-3" points="67.12 35.37 62.23 35.37 61.25 34.89 66.13 34.89 67.12 35.37"/></g><g id="Bloque1-44" data-name="Bloque1"><rect class="cls-1" x="62.24" y="30.38" width="4.88" height="4.71"/><polygon class="cls-2" points="62.23 35.09 61.25 34.61 61.25 29.9 62.23 30.38 62.23 35.09"/><polygon class="cls-3" points="67.12 30.38 62.23 30.38 61.25 29.9 66.13 29.9 67.12 30.38"/></g><g id="Bloque1-45" data-name="Bloque1"><rect class="cls-1" x="62.24" y="25.4" width="4.88" height="4.71"/><polygon class="cls-2" points="62.23 30.1 61.25 29.63 61.25 24.92 62.23 25.4 62.23 30.1"/><polygon class="cls-3" points="67.12 25.4 62.23 25.4 61.25 24.92 66.13 24.92 67.12 25.4"/></g><g id="Bloque1-46" data-name="Bloque1"><rect class="cls-1" x="62.24" y="20.41" width="4.88" height="4.71"/><polygon class="cls-2" points="62.23 25.12 61.25 24.64 61.25 19.94 62.23 20.41 62.23 25.12"/><polygon class="cls-3" points="67.12 20.41 62.23 20.41 61.25 19.94 66.13 19.94 67.12 20.41"/></g><g id="Bloque1-47" data-name="Bloque1"><rect class="cls-1" x="62.24" y="15.43" width="4.88" height="4.71"/><polygon class="cls-2" points="62.23 20.13 61.25 19.66 61.25 14.95 62.23 15.43 62.23 20.13"/><polygon class="cls-3" points="67.12 15.43 62.23 15.43 61.25 14.95 66.13 14.95 67.12 15.43"/></g><g id="Bloque1-48" data-name="Bloque1"><rect class="cls-1" x="62.24" y="10.44" width="4.88" height="4.71"/><polygon class="cls-2" points="62.23 15.15 61.25 14.67 61.25 9.97 62.23 10.45 62.23 15.15"/><polygon class="cls-3" points="67.12 10.45 62.23 10.45 61.25 9.97 66.13 9.97 67.12 10.45"/></g><g id="Bloque1-49" data-name="Bloque1"><rect class="cls-1" x="62.24" y="5.46" width="4.88" height="4.71"/><polygon class="cls-2" points="62.23 10.17 61.25 9.69 61.25 4.98 62.23 5.46 62.23 10.17"/><polygon class="cls-3" points="67.12 5.46 62.23 5.46 61.25 4.98 66.13 4.98 67.12 5.46"/></g><g id="Bloque1-50" data-name="Bloque1"><rect class="cls-1" x="62.24" y="0.48" width="4.88" height="4.71"/><polygon class="cls-2" points="62.23 5.18 61.25 4.71 61.25 0 62.23 0.48 62.23 5.18"/><polygon class="cls-3" points="67.12 0.48 62.23 0.48 61.25 0 66.13 0 67.12 0.48"/></g><g id="Bloque1-51" data-name="Bloque1"><rect class="cls-1" x="77.55" y="45.33" width="4.88" height="4.71"/><polygon class="cls-2" points="77.55 50.04 76.56 49.56 76.56 44.86 77.55 45.33 77.55 50.04"/><polygon class="cls-3" points="82.43 45.33 77.55 45.33 76.56 44.86 81.44 44.86 82.43 45.33"/></g><g id="Bloque1-52" data-name="Bloque1"><rect class="cls-1" x="77.55" y="40.35" width="4.88" height="4.71"/><polygon class="cls-2" points="77.55 45.05 76.56 44.58 76.56 39.87 77.55 40.35 77.55 45.05"/><polygon class="cls-3" points="82.43 40.35 77.55 40.35 76.56 39.87 81.44 39.87 82.43 40.35"/></g><g id="Bloque1-53" data-name="Bloque1"><rect class="cls-1" x="77.55" y="35.36" width="4.88" height="4.71"/><polygon class="cls-2" points="77.55 40.07 76.56 39.59 76.56 34.89 77.55 35.37 77.55 40.07"/><polygon class="cls-3" points="82.43 35.37 77.55 35.37 76.56 34.89 81.44 34.89 82.43 35.37"/></g><g id="Bloque1-54" data-name="Bloque1"><rect class="cls-1" x="77.55" y="30.38" width="4.88" height="4.71"/><polygon class="cls-2" points="77.55 35.09 76.56 34.61 76.56 29.9 77.55 30.38 77.55 35.09"/><polygon class="cls-3" points="82.43 30.38 77.55 30.38 76.56 29.9 81.44 29.9 82.43 30.38"/></g><g id="Bloque1-55" data-name="Bloque1"><rect class="cls-1" x="77.55" y="25.4" width="4.88" height="4.71"/><polygon class="cls-2" points="77.55 30.1 76.56 29.63 76.56 24.92 77.55 25.4 77.55 30.1"/><polygon class="cls-3" points="82.43 25.4 77.55 25.4 76.56 24.92 81.44 24.92 82.43 25.4"/></g><g id="Bloque1-56" data-name="Bloque1"><rect class="cls-1" x="77.55" y="20.41" width="4.88" height="4.71"/><polygon class="cls-2" points="77.55 25.12 76.56 24.64 76.56 19.94 77.55 20.41 77.55 25.12"/><polygon class="cls-3" points="82.43 20.41 77.55 20.41 76.56 19.94 81.44 19.94 82.43 20.41"/></g><g id="Bloque1-57" data-name="Bloque1"><rect class="cls-1" x="77.55" y="15.43" width="4.88" height="4.71"/><polygon class="cls-2" points="77.55 20.13 76.56 19.66 76.56 14.95 77.55 15.43 77.55 20.13"/><polygon class="cls-3" points="82.43 15.43 77.55 15.43 76.56 14.95 81.44 14.95 82.43 15.43"/></g><g id="Bloque1-58" data-name="Bloque1"><rect class="cls-1" x="77.55" y="10.44" width="4.88" height="4.71"/><polygon class="cls-2" points="77.55 15.15 76.56 14.67 76.56 9.97 77.55 10.45 77.55 15.15"/><polygon class="cls-3" points="82.43 10.45 77.55 10.45 76.56 9.97 81.44 9.97 82.43 10.45"/></g><g id="Bloque1-59" data-name="Bloque1"><rect class="cls-1" x="77.55" y="5.46" width="4.88" height="4.71"/><polygon class="cls-2" points="77.55 10.17 76.56 9.69 76.56 4.98 77.55 5.46 77.55 10.17"/><polygon class="cls-3" points="82.43 5.46 77.55 5.46 76.56 4.98 81.44 4.98 82.43 5.46"/></g><g id="Bloque1-60" data-name="Bloque1"><rect class="cls-1" x="77.55" y="0.48" width="4.88" height="4.71"/><polygon class="cls-2" points="77.55 5.18 76.56 4.71 76.56 0 77.55 0.48 77.55 5.18"/><polygon class="cls-3" points="82.43 0.48 77.55 0.48 76.56 0 81.44 0 82.43 0.48"/></g><g id="Bloque1-61" data-name="Bloque1"><rect class="cls-1" x="92.86" y="45.33" width="4.88" height="4.71"/><polygon class="cls-2" points="92.86 50.04 91.87 49.56 91.87 44.86 92.86 45.33 92.86 50.04"/><polygon class="cls-3" points="97.74 45.33 92.86 45.33 91.87 44.86 96.75 44.86 97.74 45.33"/></g><g id="Bloque1-62" data-name="Bloque1"><rect class="cls-1" x="92.86" y="40.35" width="4.88" height="4.71"/><polygon class="cls-2" points="92.86 45.05 91.87 44.58 91.87 39.87 92.86 40.35 92.86 45.05"/><polygon class="cls-3" points="97.74 40.35 92.86 40.35 91.87 39.87 96.75 39.87 97.74 40.35"/></g><g id="Bloque1-63" data-name="Bloque1"><rect class="cls-1" x="92.86" y="35.36" width="4.88" height="4.71"/><polygon class="cls-2" points="92.86 40.07 91.87 39.59 91.87 34.89 92.86 35.37 92.86 40.07"/><polygon class="cls-3" points="97.74 35.37 92.86 35.37 91.87 34.89 96.75 34.89 97.74 35.37"/></g><g id="Bloque1-64" data-name="Bloque1"><rect class="cls-1" x="92.86" y="30.38" width="4.88" height="4.71"/><polygon class="cls-2" points="92.86 35.09 91.87 34.61 91.87 29.9 92.86 30.38 92.86 35.09"/><polygon class="cls-3" points="97.74 30.38 92.86 30.38 91.87 29.9 96.75 29.9 97.74 30.38"/></g><g id="Bloque1-65" data-name="Bloque1"><rect class="cls-1" x="92.86" y="25.4" width="4.88" height="4.71"/><polygon class="cls-2" points="92.86 30.1 91.87 29.63 91.87 24.92 92.86 25.4 92.86 30.1"/><polygon class="cls-3" points="97.74 25.4 92.86 25.4 91.87 24.92 96.75 24.92 97.74 25.4"/></g><g id="Bloque1-66" data-name="Bloque1"><rect class="cls-1" x="92.86" y="20.41" width="4.88" height="4.71"/><polygon class="cls-2" points="92.86 25.12 91.87 24.64 91.87 19.94 92.86 20.41 92.86 25.12"/><polygon class="cls-3" points="97.74 20.41 92.86 20.41 91.87 19.94 96.75 19.94 97.74 20.41"/></g><g id="Bloque1-67" data-name="Bloque1"><rect class="cls-1" x="92.86" y="15.43" width="4.88" height="4.71"/><polygon class="cls-2" points="92.86 20.13 91.87 19.66 91.87 14.95 92.86 15.43 92.86 20.13"/><polygon class="cls-3" points="97.74 15.43 92.86 15.43 91.87 14.95 96.75 14.95 97.74 15.43"/></g><g id="Bloque1-68" data-name="Bloque1"><rect class="cls-1" x="92.86" y="10.44" width="4.88" height="4.71"/><polygon class="cls-2" points="92.86 15.15 91.87 14.67 91.87 9.97 92.86 10.45 92.86 15.15"/><polygon class="cls-3" points="97.74 10.45 92.86 10.45 91.87 9.97 96.75 9.97 97.74 10.45"/></g><g id="Bloque1-69" data-name="Bloque1"><rect class="cls-1" x="92.86" y="5.46" width="4.88" height="4.71"/><polygon class="cls-2" points="92.86 10.17 91.87 9.69 91.87 4.98 92.86 5.46 92.86 10.17"/><polygon class="cls-3" points="97.74 5.46 92.86 5.46 91.87 4.98 96.75 4.98 97.74 5.46"/></g><g id="Bloque1-70" data-name="Bloque1"><rect class="cls-1" x="92.86" y="0.48" width="4.88" height="4.71"/><polygon class="cls-2" points="92.86 5.18 91.87 4.71 91.87 0 92.86 0.48 92.86 5.18"/><polygon class="cls-3" points="97.74 0.48 92.86 0.48 91.87 0 96.75 0 97.74 0.48"/></g><g id="Bloque1-71" data-name="Bloque1"><rect class="cls-1" x="108.17" y="45.33" width="4.88" height="4.71"/><polygon class="cls-2" points="108.17 50.04 107.18 49.56 107.18 44.86 108.17 45.33 108.17 50.04"/><polygon class="cls-3" points="113.05 45.33 108.17 45.33 107.18 44.86 112.06 44.86 113.05 45.33"/></g><g id="Bloque1-72" data-name="Bloque1"><rect class="cls-1" x="108.17" y="40.35" width="4.88" height="4.71"/><polygon class="cls-2" points="108.17 45.05 107.18 44.58 107.18 39.87 108.17 40.35 108.17 45.05"/><polygon class="cls-3" points="113.05 40.35 108.17 40.35 107.18 39.87 112.06 39.87 113.05 40.35"/></g><g id="Bloque1-73" data-name="Bloque1"><rect class="cls-1" x="108.17" y="35.36" width="4.88" height="4.71"/><polygon class="cls-2" points="108.17 40.07 107.18 39.59 107.18 34.89 108.17 35.37 108.17 40.07"/><polygon class="cls-3" points="113.05 35.37 108.17 35.37 107.18 34.89 112.06 34.89 113.05 35.37"/></g><g id="Bloque1-74" data-name="Bloque1"><rect class="cls-1" x="108.17" y="30.38" width="4.88" height="4.71"/><polygon class="cls-2" points="108.17 35.09 107.18 34.61 107.18 29.9 108.17 30.38 108.17 35.09"/><polygon class="cls-3" points="113.05 30.38 108.17 30.38 107.18 29.9 112.06 29.9 113.05 30.38"/></g><g id="Bloque1-75" data-name="Bloque1"><rect class="cls-1" x="108.17" y="25.4" width="4.88" height="4.71"/><polygon class="cls-2" points="108.17 30.1 107.18 29.63 107.18 24.92 108.17 25.4 108.17 30.1"/><polygon class="cls-3" points="113.05 25.4 108.17 25.4 107.18 24.92 112.06 24.92 113.05 25.4"/></g><g id="Bloque1-76" data-name="Bloque1"><rect class="cls-1" x="108.17" y="20.41" width="4.88" height="4.71"/><polygon class="cls-2" points="108.17 25.12 107.18 24.64 107.18 19.94 108.17 20.41 108.17 25.12"/><polygon class="cls-3" points="113.05 20.41 108.17 20.41 107.18 19.94 112.06 19.94 113.05 20.41"/></g><g id="Bloque1-77" data-name="Bloque1"><rect class="cls-1" x="108.17" y="15.43" width="4.88" height="4.71"/><polygon class="cls-2" points="108.17 20.13 107.18 19.66 107.18 14.95 108.17 15.43 108.17 20.13"/><polygon class="cls-3" points="113.05 15.43 108.17 15.43 107.18 14.95 112.06 14.95 113.05 15.43"/></g><g id="Bloque1-78" data-name="Bloque1"><rect class="cls-1" x="108.17" y="10.44" width="4.88" height="4.71"/><polygon class="cls-2" points="108.17 15.15 107.18 14.67 107.18 9.97 108.17 10.45 108.17 15.15"/><polygon class="cls-3" points="113.05 10.45 108.17 10.45 107.18 9.97 112.06 9.97 113.05 10.45"/></g><g id="Bloque1-79" data-name="Bloque1"><rect class="cls-1" x="108.17" y="5.46" width="4.88" height="4.71"/><polygon class="cls-2" points="108.17 10.17 107.18 9.69 107.18 4.98 108.17 5.46 108.17 10.17"/><polygon class="cls-3" points="113.05 5.46 108.17 5.46 107.18 4.98 112.06 4.98 113.05 5.46"/></g><g id="Bloque1-80" data-name="Bloque1"><rect class="cls-1" x="108.17" y="0.48" width="4.88" height="4.71"/><polygon class="cls-2" points="108.17 5.18 107.18 4.71 107.18 0 108.17 0.48 108.17 5.18"/><polygon class="cls-3" points="113.05 0.48 108.17 0.48 107.18 0 112.06 0 113.05 0.48"/></g><g id="Bloque1-81" data-name="Bloque1"><rect class="cls-1" x="123.48" y="45.33" width="4.88" height="4.71"/><polygon class="cls-2" points="123.48 50.04 122.49 49.56 122.49 44.86 123.48 45.33 123.48 50.04"/><polygon class="cls-3" points="128.36 45.33 123.48 45.33 122.49 44.86 127.38 44.86 128.36 45.33"/></g><g id="Bloque1-82" data-name="Bloque1"><rect class="cls-1" x="123.48" y="40.35" width="4.88" height="4.71"/><polygon class="cls-2" points="123.48 45.05 122.49 44.58 122.49 39.87 123.48 40.35 123.48 45.05"/><polygon class="cls-3" points="128.36 40.35 123.48 40.35 122.49 39.87 127.38 39.87 128.36 40.35"/></g><g id="Bloque1-83" data-name="Bloque1"><rect class="cls-1" x="123.48" y="35.36" width="4.88" height="4.71"/><polygon class="cls-2" points="123.48 40.07 122.49 39.59 122.49 34.89 123.48 35.37 123.48 40.07"/><polygon class="cls-3" points="128.36 35.37 123.48 35.37 122.49 34.89 127.38 34.89 128.36 35.37"/></g><g id="Bloque1-84" data-name="Bloque1"><rect class="cls-1" x="123.48" y="30.38" width="4.88" height="4.71"/><polygon class="cls-2" points="123.48 35.09 122.49 34.61 122.49 29.9 123.48 30.38 123.48 35.09"/><polygon class="cls-3" points="128.36 30.38 123.48 30.38 122.49 29.9 127.38 29.9 128.36 30.38"/></g><g id="Bloque1-85" data-name="Bloque1"><rect class="cls-1" x="123.48" y="25.4" width="4.88" height="4.71"/><polygon class="cls-2" points="123.48 30.1 122.49 29.63 122.49 24.92 123.48 25.4 123.48 30.1"/><polygon class="cls-3" points="128.36 25.4 123.48 25.4 122.49 24.92 127.38 24.92 128.36 25.4"/></g><g id="Bloque1-86" data-name="Bloque1"><rect class="cls-1" x="123.48" y="20.41" width="4.88" height="4.71"/><polygon class="cls-2" points="123.48 25.12 122.49 24.64 122.49 19.94 123.48 20.41 123.48 25.12"/><polygon class="cls-3" points="128.36 20.41 123.48 20.41 122.49 19.94 127.38 19.94 128.36 20.41"/></g><g id="Bloque1-87" data-name="Bloque1"><rect class="cls-1" x="123.48" y="15.43" width="4.88" height="4.71"/><polygon class="cls-2" points="123.48 20.13 122.49 19.66 122.49 14.95 123.48 15.43 123.48 20.13"/><polygon class="cls-3" points="128.36 15.43 123.48 15.43 122.49 14.95 127.38 14.95 128.36 15.43"/></g><g id="Bloque1-88" data-name="Bloque1"><rect class="cls-1" x="123.48" y="10.44" width="4.88" height="4.71"/><polygon class="cls-2" points="123.48 15.15 122.49 14.67 122.49 9.97 123.48 10.45 123.48 15.15"/><polygon class="cls-3" points="128.36 10.45 123.48 10.45 122.49 9.97 127.38 9.97 128.36 10.45"/></g><g id="Bloque1-89" data-name="Bloque1"><rect class="cls-1" x="123.48" y="5.46" width="4.88" height="4.71"/><polygon class="cls-2" points="123.48 10.17 122.49 9.69 122.49 4.98 123.48 5.46 123.48 10.17"/><polygon class="cls-3" points="128.36 5.46 123.48 5.46 122.49 4.98 127.38 4.98 128.36 5.46"/></g><g id="Bloque1-90" data-name="Bloque1"><rect class="cls-1" x="123.48" y="0.48" width="4.88" height="4.71"/><polygon class="cls-2" points="123.48 5.18 122.49 4.71 122.49 0 123.48 0.48 123.48 5.18"/><polygon class="cls-3" points="128.36 0.48 123.48 0.48 122.49 0 127.38 0 128.36 0.48"/></g></g></g></svg>