<svg xmlns="http://www.w3.org/2000/svg" viewBox="0 0 128.36 50.04"><defs><style>.cls-1{fill:none;}.cls-2{fill:#f6c628;}.cls-3{fill:#b42827;}.cls-4{fill:#e35328;}</style></defs><title>bcuadro2</title><g id="Layer_2" data-name="Layer 2"><g id="Tabla_C" data-name="Tabla C"><rect class="cls-1" width="128.36" height="50.03"/><g id="Bloque1"><rect class="cls-2" x="54.58" y="45.33" width="4.88" height="4.71"/><polygon class="cls-3" points="54.58 50.04 53.59 49.56 53.59 44.86 54.58 45.33 54.58 50.04"/><polygon class="cls-4" points="59.46 45.33 54.58 45.33 53.59 44.86 58.47 44.86 59.46 45.33"/></g><g id="Bloque1-2" data-name="Bloque1"><rect class="cls-2" x="54.58" y="40.35" width="4.88" height="4.71"/><polygon class="cls-3" points="54.58 45.05 53.59 44.58 53.59 39.87 54.58 40.35 54.58 45.05"/><polygon class="cls-4" points="59.46 40.35 54.58 40.35 53.59 39.87 58.47 39.87 59.46 40.35"/></g><g id="Bloque1-3" data-name="Bloque1"><rect class="cls-2" x="54.58" y="35.36" width="4.88" height="4.71"/><polygon class="cls-3" points="54.58 40.07 53.59 39.59 53.59 34.89 54.58 35.37 54.58 40.07"/><polygon class="cls-4" points="59.46 35.37 54.58 35.37 53.59 34.89 58.47 34.89 59.46 35.37"/></g><g id="Bloque1-4" data-name="Bloque1"><rect class="cls-2" x="54.58" y="30.38" width="4.88" height="4.71"/><polygon class="cls-3" points="54.58 35.09 53.59 34.61 53.59 29.9 54.58 30.38 54.58 35.09"/><polygon class="cls-4" points="59.46 30.38 54.58 30.38 53.59 29.9 58.47 29.9 59.46 30.38"/></g><g id="Bloque1-5" data-name="Bloque1"><rect class="cls-2" x="54.58" y="25.4" width="4.88" height="4.71"/><polygon class="cls-3" points="54.58 30.1 53.59 29.63 53.59 24.92 54.58 25.4 54.58 30.1"/><polygon class="cls-4" points="59.46 25.4 54.58 25.4 53.59 24.92 58.47 24.92 59.46 25.4"/></g><g id="Bloque1-6" data-name="Bloque1"><rect class="cls-2" x="54.58" y="20.41" width="4.88" height="4.71"/><polygon class="cls-3" points="54.58 25.12 53.59 24.64 53.59 19.94 54.58 20.41 54.58 25.12"/><polygon class="cls-4" points="59.46 20.41 54.58 20.41 53.59 19.94 58.47 19.94 59.46 20.41"/></g><g id="Bloque1-7" data-name="Bloque1"><rect class="cls-2" x="54.58" y="15.43" width="4.88" height="4.71"/><polygon class="cls-3" points="54.58 20.13 53.59 19.66 53.59 14.95 54.58 15.43 54.58 20.13"/><polygon class="cls-4" points="59.46 15.43 54.58 15.43 53.59 14.95 58.47 14.95 59.46 15.43"/></g><g id="Bloque1-8" data-name="Bloque1"><rect class="cls-2" x="54.58" y="10.44" width="4.88" height="4.71"/><polygon class="cls-3" points="54.58 15.15 53.59 14.67 53.59 9.97 54.58 10.45 54.58 15.15"/><polygon class="cls-4" points="59.46 10.45 54.58 10.45 53.59 9.97 58.47 9.97 59.46 10.45"/></g><g id="Bloque1-9" data-name="Bloque1"><rect class="cls-2" x="54.58" y="5.46" width="4.88" height="4.71"/><polygon class="cls-3" points="54.58 10.17 53.59 9.69 53.59 4.98 54.58 5.46 54.58 10.17"/><polygon class="cls-4" points="59.46 5.46 54.58 5.46 53.59 4.98 58.47 4.98 59.46 5.46"/></g><g id="Bloque1-10" data-name="Bloque1"><rect class="cls-2" x="54.58" y="0.48" width="4.88" height="4.71"/><polygon class="cls-3" points="54.58 5.18 53.59 4.71 53.59 0 54.58 0.48 54.58 5.18"/><polygon class="cls-4" points="59.46 0.48 54.58 0.48 53.59 0 58.47 0 59.46 0.48"/></g><g id="Bloque1-11" data-name="Bloque1"><rect class="cls-2" x="69.89" y="45.33" width="4.88" height="4.71"/><polygon class="cls-3" points="69.89 50.04 68.9 49.56 68.9 44.86 69.89 45.33 69.89 50.04"/><polygon class="cls-4" points="74.77 45.33 69.89 45.33 68.9 44.86 73.78 44.86 74.77 45.33"/></g><g id="Bloque1-12" data-name="Bloque1"><rect class="cls-2" x="69.89" y="40.35" width="4.88" height="4.71"/><polygon class="cls-3" points="69.89 45.05 68.9 44.58 68.9 39.87 69.89 40.35 69.89 45.05"/><polygon class="cls-4" points="74.77 40.35 69.89 40.35 68.9 39.87 73.78 39.87 74.77 40.35"/></g><g id="Bloque1-13" data-name="Bloque1"><rect class="cls-2" x="69.89" y="35.36" width="4.88" height="4.71"/><polygon class="cls-3" points="69.89 40.07 68.9 39.59 68.9 34.89 69.89 35.37 69.89 40.07"/><polygon class="cls-4" points="74.77 35.37 69.89 35.37 68.9 34.89 73.78 34.89 74.77 35.37"/></g><g id="Bloque1-14" data-name="Bloque1"><rect class="cls-2" x="69.89" y="30.38" width="4.88" height="4.71"/><polygon class="cls-3" points="69.89 35.09 68.9 34.61 68.9 29.9 69.89 30.38 69.89 35.09"/><polygon class="cls-4" points="74.77 30.38 69.89 30.38 68.9 29.9 73.78 29.9 74.77 30.38"/></g><g id="Bloque1-15" data-name="Bloque1"><rect class="cls-2" x="69.89" y="25.4" width="4.88" height="4.71"/><polygon class="cls-3" points="69.89 30.1 68.9 29.63 68.9 24.92 69.89 25.4 69.89 30.1"/><polygon class="cls-4" points="74.77 25.4 69.89 25.4 68.9 24.92 73.78 24.92 74.77 25.4"/></g><g id="Bloque1-16" data-name="Bloque1"><rect class="cls-2" x="69.89" y="20.41" width="4.88" height="4.71"/><polygon class="cls-3" points="69.89 25.12 68.9 24.64 68.9 19.94 69.89 20.41 69.89 25.12"/><polygon class="cls-4" points="74.77 20.41 69.89 20.41 68.9 19.94 73.78 19.94 74.77 20.41"/></g><g id="Bloque1-17" data-name="Bloque1"><rect class="cls-2" x="69.89" y="15.43" width="4.88" height="4.71"/><polygon class="cls-3" points="69.89 20.13 68.9 19.66 68.9 14.95 69.89 15.43 69.89 20.13"/><polygon class="cls-4" points="74.77 15.43 69.89 15.43 68.9 14.95 73.78 14.95 74.77 15.43"/></g><g id="Bloque1-18" data-name="Bloque1"><rect class="cls-2" x="69.89" y="10.44" width="4.88" height="4.71"/><polygon class="cls-3" points="69.89 15.15 68.9 14.67 68.9 9.97 69.89 10.45 69.89 15.15"/><polygon class="cls-4" points="74.77 10.45 69.89 10.45 68.9 9.97 73.78 9.97 74.77 10.45"/></g><g id="Bloque1-19" data-name="Bloque1"><rect class="cls-2" x="69.89" y="5.46" width="4.88" height="4.71"/><polygon class="cls-3" points="69.89 10.17 68.9 9.69 68.9 4.98 69.89 5.46 69.89 10.17"/><polygon class="cls-4" points="74.77 5.46 69.89 5.46 68.9 4.98 73.78 4.98 74.77 5.46"/></g><g id="Bloque1-20" data-name="Bloque1"><rect class="cls-2" x="69.89" y="0.48" width="4.88" height="4.71"/><polygon class="cls-3" points="69.89 5.18 68.9 4.71 68.9 0 69.89 0.48 69.89 5.18"/><polygon class="cls-4" points="74.77 0.48 69.89 0.48 68.9 0 73.78 0 74.77 0.48"/></g></g></g></svg>