<svg xmlns="http://www.w3.org/2000/svg" viewBox="0 0 128.36 50.04"><defs><style>.cls-1{fill:none;}.cls-2{fill:#f6c628;}.cls-3{fill:#b42827;}.cls-4{fill:#e35328;}</style></defs><title>bcuadro3</title><g id="Layer_2" data-name="Layer 2"><g id="Tabla_C" data-name="Tabla C"><rect class="cls-1" width="128.36" height="50.03"/><g id="Bloque1"><rect class="cls-2" x="46.92" y="45.33" width="4.88" height="4.71"/><polygon class="cls-3" points="46.92 50.04 45.94 49.56 45.94 44.86 46.92 45.33 46.92 50.04"/><polygon class="cls-4" points="51.81 45.33 46.92 45.33 45.94 44.86 50.82 44.86 51.81 45.33"/></g><g id="Bloque1-2" data-name="Bloque1"><rect class="cls-2" x="46.92" y="40.35" width="4.88" height="4.71"/><polygon class="cls-3" points="46.92 45.05 45.94 44.58 45.94 39.87 46.92 40.35 46.92 45.05"/><polygon class="cls-4" points="51.81 40.35 46.92 40.35 45.94 39.87 50.82 39.87 51.81 40.35"/></g><g id="Bloque1-3" data-name="Bloque1"><rect class="cls-2" x="46.92" y="35.36" width="4.88" height="4.71"/><polygon class="cls-3" points="46.92 40.07 45.94 39.59 45.94 34.89 46.92 35.37 46.92 40.07"/><polygon class="cls-4" points="51.81 35.37 46.92 35.37 45.94 34.89 50.82 34.89 51.81 35.37"/></g><g id="Bloque1-4" data-name="Bloque1"><rect class="cls-2" x="46.92" y="30.38" width="4.88" height="4.71"/><polygon class="cls-3" points="46.92 35.09 45.94 34.61 45.94 29.9 46.92 30.38 46.92 35.09"/><polygon class="cls-4" points="51.81 30.38 46.92 30.38 45.94 29.9 50.82 29.9 51.81 30.38"/></g><g id="Bloque1-5" data-name="Bloque1"><rect class="cls-2" x="46.92" y="25.4" width="4.88" height="4.71"/><polygon class="cls-3" points="46.92 30.1 45.94 29.63 45.94 24.92 46.92 25.4 46.92 30.1"/><polygon class="cls-4" points="51.81 25.4 46.92 25.4 45.94 24.92 50.82 24.92 51.81 25.4"/></g><g id="Bloque1-6" data-name="Bloque1"><rect class="cls-2" x="46.92" y="20.41" width="4.88" height="4.71"/><polygon class="cls-3" points="46.92 25.12 45.94 24.64 45.94 19.94 46.92 20.41 46.92 25.12"/><polygon class="cls-4" points="51.81 20.41 46.92 20.41 45.94 19.94 50.82 19.94 51.81 20.41"/></g><g id="Bloque1-7" data-name="Bloque1"><rect class="cls-2" x="46.92" y="15.43" width="4.88" height="4.71"/><polygon class="cls-3" points="46.92 20.13 45.94 19.66 45.94 14.95 46.92 15.43 46.92 20.13"/><polygon class="cls-4" points="51.81 15.43 46.92 15.43 45.94 14.95 50.82 14.95 51.81 15.43"/></g><g id="Bloque1-8" data-name="Bloque1"><rect class="cls-2" x="46.92" y="10.44" width="4.88" height="4.71"/><polygon class="cls-3" points="46.92 15.15 45.94 14.67 45.94 9.97 46.92 10.45 46.92 15.15"/><polygon class="cls-4" points="51.81 10.45 46.92 10.45 45.94 9.97 50.82 9.97 51.81 10.45"/></g><g id="Bloque1-9" data-name="Bloque1"><rect class="cls-2" x="46.92" y="5.46" width="4.88" height="4.71"/><polygon class="cls-3" points="46.92 10.17 45.94 9.69 45.94 4.98 46.92 5.46 46.92 10.17"/><polygon class="cls-4" points="51.81 5.46 46.92 5.46 45.94 4.98 50.82 4.98 51.81 5.46"/></g><g id="Bloque1-10" data-name="Bloque1"><rect class="cls-2" x="46.92" y="0.48" width="4.88" height="4.71"/><polygon class="cls-3" points="46.92 5.18 45.94 4.71 45.94 0 46.92 0.48 46.92 5.18"/><polygon class="cls-4" points="51.81 0.48 46.92 0.48 45.94 0 50.82 0 51.81 0.48"/></g><g id="Bloque1-11" data-name="Bloque1"><rect class="cls-2" x="62.24" y="45.33" width="4.88" height="4.71"/><polygon class="cls-3" points="62.23 50.04 61.25 49.56 61.25 44.86 62.23 45.33 62.23 50.04"/><polygon class="cls-4" points="67.12 45.33 62.23 45.33 61.25 44.86 66.13 44.86 67.12 45.33"/></g><g id="Bloque1-12" data-name="Bloque1"><rect class="cls-2" x="62.24" y="40.35" width="4.88" height="4.71"/><polygon class="cls-3" points="62.23 45.05 61.25 44.58 61.25 39.87 62.23 40.35 62.23 45.05"/><polygon class="cls-4" points="67.12 40.35 62.23 40.35 61.25 39.87 66.13 39.87 67.12 40.35"/></g><g id="Bloque1-13" data-name="Bloque1"><rect class="cls-2" x="62.24" y="35.36" width="4.88" height="4.71"/><polygon class="cls-3" points="62.23 40.07 61.25 39.59 61.25 34.89 62.23 35.37 62.23 40.07"/><polygon class="cls-4" points="67.12 35.37 62.23 35.37 61.25 34.89 66.13 34.89 67.12 35.37"/></g><g id="Bloque1-14" data-name="Bloque1"><rect class="cls-2" x="62.24" y="30.38" width="4.88" height="4.71"/><polygon class="cls-3" points="62.23 35.09 61.25 34.61 61.25 29.9 62.23 30.38 62.23 35.09"/><polygon class="cls-4" points="67.12 30.38 62.23 30.38 61.25 29.9 66.13 29.9 67.12 30.38"/></g><g id="Bloque1-15" data-name="Bloque1"><rect class="cls-2" x="62.24" y="25.4" width="4.88" height="4.71"/><polygon class="cls-3" points="62.23 30.1 61.25 29.63 61.25 24.92 62.23 25.4 62.23 30.1"/><polygon class="cls-4" points="67.12 25.4 62.23 25.4 61.25 24.92 66.13 24.92 67.12 25.4"/></g><g id="Bloque1-16" data-name="Bloque1"><rect class="cls-2" x="62.24" y="20.41" width="4.88" height="4.71"/><polygon class="cls-3" points="62.23 25.12 61.25 24.64 61.25 19.94 62.23 20.41 62.23 25.12"/><polygon class="cls-4" points="67.12 20.41 62.23 20.41 61.25 19.94 66.13 19.94 67.12 20.41"/></g><g id="Bloque1-17" data-name="Bloque1"><rect class="cls-2" x="62.24" y="15.43" width="4.88" height="4.71"/><polygon class="cls-3" points="62.23 20.13 61.25 19.66 61.25 14.95 62.23 15.43 62.23 20.13"/><polygon class="cls-4" points="67.12 15.43 62.23 15.43 61.25 14.95 66.13 14.95 67.12 15.43"/></g><g id="Bloque1-18" data-name="Bloque1"><rect class="cls-2" x="62.24" y="10.44" width="4.88" height="4.71"/><polygon class="cls-3" points="62.23 15.15 61.25 14.67 61.25 9.97 62.23 10.45 62.23 15.15"/><polygon class="cls-4" points="67.12 10.45 62.23 10.45 61.25 9.97 66.13 9.97 67.12 10.45"/></g><g id="Bloque1-19" data-name="Bloque1"><rect class="cls-2" x="62.24" y="5.46" width="4.88" height="4.71"/><polygon class="cls-3" points="62.23 10.17 61.25 9.69 61.25 4.98 62.23 5.46 62.23 10.17"/><polygon class="cls-4" points="67.12 5.46 62.23 5.46 61.25 4.98 66.13 4.98 67.12 5.46"/></g><g id="Bloque1-20" data-name="Bloque1"><rect class="cls-2" x="62.24" y="0.48" width="4.88" height="4.71"/><polygon class="cls-3" points="62.23 5.18 61.25 4.71 61.25 0 62.23 0.48 62.23 5.18"/><polygon class="cls-4" points="67.12 0.48 62.23 0.48 61.25 0 66.13 0 67.12 0.48"/></g><g id="Bloque1-21" data-name="Bloque1"><rect class="cls-2" x="77.55" y="45.33" width="4.88" height="4.71"/><polygon class="cls-3" points="77.55 50.04 76.56 49.56 76.56 44.86 77.55 45.33 77.55 50.04"/><polygon class="cls-4" points="82.43 45.33 77.55 45.33 76.56 44.86 81.44 44.86 82.43 45.33"/></g><g id="Bloque1-22" data-name="Bloque1"><rect class="cls-2" x="77.55" y="40.35" width="4.88" height="4.71"/><polygon class="cls-3" points="77.55 45.05 76.56 44.58 76.56 39.87 77.55 40.35 77.55 45.05"/><polygon class="cls-4" points="82.43 40.35 77.55 40.35 76.56 39.87 81.44 39.87 82.43 40.35"/></g><g id="Bloque1-23" data-name="Bloque1"><rect class="cls-2" x="77.55" y="35.36" width="4.88" height="4.71"/><polygon class="cls-3" points="77.55 40.07 76.56 39.59 76.56 34.89 77.55 35.37 77.55 40.07"/><polygon class="cls-4" points="82.43 35.37 77.55 35.37 76.56 34.89 81.44 34.89 82.43 35.37"/></g><g id="Bloque1-24" data-name="Bloque1"><rect class="cls-2" x="77.55" y="30.38" width="4.88" height="4.71"/><polygon class="cls-3" points="77.55 35.09 76.56 34.61 76.56 29.9 77.55 30.38 77.55 35.09"/><polygon class="cls-4" points="82.43 30.38 77.55 30.38 76.56 29.9 81.44 29.9 82.43 30.38"/></g><g id="Bloque1-25" data-name="Bloque1"><rect class="cls-2" x="77.55" y="25.4" width="4.88" height="4.71"/><polygon class="cls-3" points="77.55 30.1 76.56 29.63 76.56 24.92 77.55 25.4 77.55 30.1"/><polygon class="cls-4" points="82.43 25.4 77.55 25.4 76.56 24.92 81.44 24.92 82.43 25.4"/></g><g id="Bloque1-26" data-name="Bloque1"><rect class="cls-2" x="77.55" y="20.41" width="4.88" height="4.71"/><polygon class="cls-3" points="77.55 25.12 76.56 24.64 76.56 19.94 77.55 20.41 77.55 25.12"/><polygon class="cls-4" points="82.43 20.41 77.55 20.41 76.56 19.94 81.44 19.94 82.43 20.41"/></g><g id="Bloque1-27" data-name="Bloque1"><rect class="cls-2" x="77.55" y="15.43" width="4.88" height="4.71"/><polygon class="cls-3" points="77.55 20.13 76.56 19.66 76.56 14.95 77.55 15.43 77.55 20.13"/><polygon class="cls-4" points="82.43 15.43 77.55 15.43 76.56 14.95 81.44 14.95 82.43 15.43"/></g><g id="Bloque1-28" data-name="Bloque1"><rect class="cls-2" x="77.55" y="10.44" width="4.88" height="4.71"/><polygon class="cls-3" points="77.55 15.15 76.56 14.67 76.56 9.97 77.55 10.45 77.55 15.15"/><polygon class="cls-4" points="82.43 10.45 77.55 10.45 76.56 9.97 81.44 9.97 82.43 10.45"/></g><g id="Bloque1-29" data-name="Bloque1"><rect class="cls-2" x="77.55" y="5.46" width="4.88" height="4.71"/><polygon class="cls-3" points="77.55 10.17 76.56 9.69 76.56 4.98 77.55 5.46 77.55 10.17"/><polygon class="cls-4" points="82.43 5.46 77.55 5.46 76.56 4.98 81.44 4.98 82.43 5.46"/></g><g id="Bloque1-30" data-name="Bloque1"><rect class="cls-2" x="77.55" y="0.48" width="4.88" height="4.71"/><polygon class="cls-3" points="77.55 5.18 76.56 4.71 76.56 0 77.55 0.48 77.55 5.18"/><polygon class="cls-4" points="82.43 0.48 77.55 0.48 76.56 0 81.44 0 82.43 0.48"/></g></g></g></svg>