<svg id="Layer_1" data-name="Layer 1" xmlns="http://www.w3.org/2000/svg" viewBox="0 0 541 71"><defs><style>.cls-1{fill:#ffcb08;}.cls-2{fill:#bc2424;}.cls-3{fill:#f05023;}</style></defs><title>Decena_Horizontal</title><g id="Bloque1"><rect class="cls-1" x="490.19" y="15.21" width="50.75" height="50.88" transform="translate(556.21 -474.92) rotate(90)"/><polygon class="cls-2" points="541 15.27 535.85 4.98 484.97 4.98 490.12 15.27 541 15.27"/><polygon class="cls-3" points="490.12 66.02 490.12 15.27 484.97 4.98 484.97 55.74 490.12 66.02"/></g><g id="Bloque1-2" data-name="Bloque1"><rect class="cls-1" x="436.3" y="15.21" width="50.75" height="50.88" transform="translate(502.32 -421.03) rotate(90)"/><polygon class="cls-2" points="487.12 15.27 481.96 4.98 431.08 4.98 436.24 15.27 487.12 15.27"/><polygon class="cls-3" points="436.24 66.02 436.24 15.27 431.08 4.98 431.08 55.74 436.24 66.02"/></g><g id="Bloque1-3" data-name="Bloque1"><rect class="cls-1" x="382.41" y="15.21" width="50.75" height="50.88" transform="translate(448.43 -367.15) rotate(90)"/><polygon class="cls-2" points="433.23 15.27 428.07 4.98 377.2 4.98 382.35 15.27 433.23 15.27"/><polygon class="cls-3" points="382.35 66.02 382.35 15.27 377.2 4.98 377.2 55.74 382.35 66.02"/></g><g id="Bloque1-4" data-name="Bloque1"><rect class="cls-1" x="328.53" y="15.21" width="50.75" height="50.88" transform="translate(394.55 -313.26) rotate(90)"/><polygon class="cls-2" points="379.34 15.27 374.19 4.98 323.31 4.98 328.47 15.27 379.34 15.27"/><polygon class="cls-3" points="328.47 66.02 328.47 15.27 323.31 4.98 323.31 55.74 328.47 66.02"/></g><g id="Bloque1-5" data-name="Bloque1"><rect class="cls-1" x="274.64" y="15.21" width="50.75" height="50.88" transform="translate(340.66 -259.38) rotate(90)"/><polygon class="cls-2" points="325.46 15.27 320.3 4.98 269.43 4.98 274.58 15.27 325.46 15.27"/><polygon class="cls-3" points="274.58 66.02 274.58 15.27 269.43 4.98 269.43 55.74 274.58 66.02"/></g><g id="Bloque1-6" data-name="Bloque1"><rect class="cls-1" x="220.76" y="15.21" width="50.75" height="50.88" transform="translate(286.78 -205.49) rotate(90)"/><polygon class="cls-2" points="271.57 15.27 266.42 4.98 215.54 4.98 220.7 15.27 271.57 15.27"/><polygon class="cls-3" points="220.7 66.02 220.7 15.27 215.54 4.98 215.54 55.74 220.7 66.02"/></g><g id="Bloque1-7" data-name="Bloque1"><rect class="cls-1" x="166.87" y="15.21" width="50.75" height="50.88" transform="translate(232.89 -151.61) rotate(90)"/><polygon class="cls-2" points="217.69 15.27 212.53 4.98 161.66 4.98 166.81 15.27 217.69 15.27"/><polygon class="cls-3" points="166.81 66.02 166.81 15.27 161.66 4.98 161.66 55.74 166.81 66.02"/></g><g id="Bloque1-8" data-name="Bloque1"><rect class="cls-1" x="112.99" y="15.21" width="50.75" height="50.88" transform="translate(179.01 -97.72) rotate(90)"/><polygon class="cls-2" points="163.8 15.27 158.65 4.98 107.77 4.98 112.92 15.27 163.8 15.27"/><polygon class="cls-3" points="112.92 66.02 112.92 15.27 107.77 4.98 107.77 55.74 112.92 66.02"/></g><g id="Bloque1-9" data-name="Bloque1"><rect class="cls-1" x="59.1" y="15.21" width="50.75" height="50.88" transform="translate(125.12 -43.83) rotate(90)"/><polygon class="cls-2" points="109.92 15.27 104.76 4.98 53.89 4.98 59.04 15.27 109.92 15.27"/><polygon class="cls-3" points="59.04 66.02 59.04 15.27 53.89 4.98 53.89 55.74 59.04 66.02"/></g><g id="Bloque1-10" data-name="Bloque1"><rect class="cls-1" x="5.22" y="15.21" width="50.75" height="50.88" transform="translate(71.24 10.05) rotate(90)"/><polygon class="cls-2" points="56.03 15.27 50.88 4.98 0 4.98 5.15 15.27 56.03 15.27"/><polygon class="cls-3" points="5.15 66.02 5.15 15.27 0 4.98 0 55.74 5.15 66.02"/></g></svg>