<svg xmlns="http://www.w3.org/2000/svg" width="61" height="539" viewBox="0 0 61 539"><defs><style>.a{fill:#ffcb08;}.b{fill:#bc2424;}.c{fill:#f05023;}</style></defs><title>decena</title><rect class="a" x="10" y="488" width="51" height="51"/><polygon class="b" points="10 538.57 0 533.57 0 484.22 10 489.22 10 538.57"/><polygon class="c" points="60.18 489 10.82 489 0.82 484 50.18 484 60.18 489"/><rect class="a" x="10" y="435" width="51" height="51"/><polygon class="b" points="10 484.82 0 479.82 0 430.46 10 435.46 10 484.82"/><polygon class="c" points="60.18 435 10.82 435 0.82 430 50.18 430 60.18 435"/><rect class="a" x="10" y="381" width="51" height="51"/><polygon class="b" points="10 431.06 0 426.06 0 376.71 10 381.71 10 431.06"/><polygon class="c" points="60.18 381 10.82 381 0.82 376 50.18 376 60.18 381"/><rect class="a" x="10" y="327" width="51" height="51"/><polygon class="b" points="10 377.31 0 372.31 0 322.95 10 327.95 10 377.31"/><polygon class="c" points="60.18 327 10.82 327 0.82 322 50.18 322 60.18 327"/><rect class="a" x="10" y="273" width="51" height="51"/><polygon class="b" points="10 323.56 0 318.56 0 269.2 10 274.2 10 323.56"/><polygon class="c" points="60.18 274 10.82 274 0.82 269 50.18 269 60.18 274"/><rect class="a" x="10" y="220" width="51" height="51"/><polygon class="b" points="10 269.8 0 264.8 0 215.44 10 220.44 10 269.8"/><polygon class="c" points="60.18 220 10.82 220 0.82 215 50.18 215 60.18 220"/><rect class="a" x="10" y="166" width="51" height="51"/><polygon class="b" points="10 216.05 0 211.05 0 161.69 10 166.69 10 216.05"/><polygon class="c" points="60.18 166 10.82 166 0.82 161 50.18 161 60.18 166"/><rect class="a" x="10" y="112" width="51" height="51"/><polygon class="b" points="10 162.29 0 157.29 0 107.94 10 112.94 10 162.29"/><polygon class="c" points="60.18 112 10.82 112 0.82 107 50.18 107 60.18 112"/><rect class="a" x="10" y="58" width="51" height="51"/><polygon class="b" points="10 108.54 0 103.54 0 54.18 10 59.18 10 108.54"/><polygon class="c" points="60.18 58 10.82 58 0.82 53 50.18 53 60.18 58"/><rect class="a" x="10" y="5" width="51" height="51"/><polygon class="b" points="10 54.78 0 49.78 0 0.43 10 5.43 10 54.78"/><polygon class="c" points="60.18 5 10.82 5 0.82 0 50.18 0 60.18 5"/></svg>