<svg xmlns="http://www.w3.org/2000/svg" width="568" height="540" viewBox="0 0 568 540"><defs><style>.a{fill:#ffcb08;}.b{fill:#bc2424;}.c{fill:#f05023;}</style></defs><title>centena</title><rect class="a" x="517" y="489" width="51" height="51"/><polygon class="b" points="517 539.23 507 534.23 507 484.88 517 489.88 517 539.23"/><polygon class="c" points="567.18 489 517.82 489 507.82 484 557.18 484 567.18 489"/><rect class="a" x="517" y="435" width="51" height="51"/><polygon class="b" points="517 485.48 507 480.48 507 431.12 517 436.12 517 485.48"/><polygon class="c" points="567.18 435 517.82 435 507.82 430 557.18 430 567.18 435"/><rect class="a" x="517" y="382" width="51" height="51"/><polygon class="b" points="517 431.72 507 426.72 507 377.37 517 382.37 517 431.72"/><polygon class="c" points="567.18 382 517.82 382 507.82 377 557.18 377 567.18 382"/><rect class="a" x="517" y="328" width="51" height="51"/><polygon class="b" points="517 377.97 507 372.97 507 323.61 517 328.61 517 377.97"/><polygon class="c" points="567.18 328 517.82 328 507.82 323 557.18 323 567.18 328"/><rect class="a" x="517" y="274" width="51" height="51"/><polygon class="b" points="517 324.21 507 319.21 507 269.86 517 274.86 517 324.21"/><polygon class="c" points="567.18 274 517.82 274 507.82 269 557.18 269 567.18 274"/><rect class="a" x="517" y="220" width="51" height="51"/><polygon class="b" points="517 270.46 507 265.46 507 216.1 517 221.1 517 270.46"/><polygon class="c" points="567.18 220 517.82 220 507.82 215 557.18 215 567.18 220"/><rect class="a" x="517" y="167" width="51" height="51"/><polygon class="b" points="517 216.71 507 211.71 507 162.35 517 167.35 517 216.71"/><polygon class="c" points="567.18 167 517.82 167 507.82 162 557.18 162 567.18 167"/><rect class="a" x="517" y="113" width="51" height="51"/><polygon class="b" points="517 162.95 507 157.95 507 108.59 517 113.59 517 162.95"/><polygon class="c" points="567.18 113 517.82 113 507.82 108 557.18 108 567.18 113"/><rect class="a" x="517" y="59" width="51" height="51"/><polygon class="b" points="517 109.2 507 104.2 507 54.84 517 59.84 517 109.2"/><polygon class="c" points="567.18 59 517.82 59 507.82 54 557.18 54 567.18 59"/><rect class="a" x="517" y="5" width="51" height="51"/><polygon class="b" points="517 55.44 507 50.44 507 1.09 517 6.09 517 55.44"/><polygon class="c" points="567.18 5 517.82 5 507.82 0 557.18 0 567.18 5"/><rect class="a" x="461" y="489" width="51" height="51"/><polygon class="b" points="461 539.23 451 534.23 451 484.88 461 489.88 461 539.23"/><polygon class="c" points="510.85 489 461.49 489 451.49 484 500.85 484 510.85 489"/><rect class="a" x="461" y="435" width="51" height="51"/><polygon class="b" points="461 485.48 451 480.48 451 431.12 461 436.12 461 485.48"/><polygon class="c" points="510.85 435 461.49 435 451.49 430 500.85 430 510.85 435"/><rect class="a" x="461" y="382" width="51" height="51"/><polygon class="b" points="461 431.72 451 426.72 451 377.37 461 382.37 461 431.72"/><polygon class="c" points="510.85 382 461.49 382 451.49 377 500.85 377 510.85 382"/><rect class="a" x="461" y="328" width="51" height="51"/><polygon class="b" points="461 377.97 451 372.97 451 323.61 461 328.61 461 377.97"/><polygon class="c" points="510.85 328 461.49 328 451.49 323 500.85 323 510.85 328"/><rect class="a" x="461" y="274" width="51" height="51"/><polygon class="b" points="461 324.21 451 319.21 451 269.86 461 274.86 461 324.21"/><polygon class="c" points="510.85 274 461.49 274 451.49 269 500.85 269 510.85 274"/><rect class="a" x="461" y="220" width="51" height="51"/><polygon class="b" points="461 270.46 451 265.46 451 216.1 461 221.1 461 270.46"/><polygon class="c" points="510.85 220 461.49 220 451.49 215 500.85 215 510.85 220"/><rect class="a" x="461" y="167" width="51" height="51"/><polygon class="b" points="461 216.71 451 211.71 451 162.35 461 167.35 461 216.71"/><polygon class="c" points="510.85 167 461.49 167 451.49 162 500.85 162 510.85 167"/><rect class="a" x="461" y="113" width="51" height="51"/><polygon class="b" points="461 162.95 451 157.95 451 108.59 461 113.59 461 162.95"/><polygon class="c" points="510.85 113 461.49 113 451.49 108 500.85 108 510.85 113"/><rect class="a" x="461" y="59" width="51" height="51"/><polygon class="b" points="461 109.2 451 104.2 451 54.84 461 59.84 461 109.2"/><polygon class="c" points="510.85 59 461.49 59 451.49 54 500.85 54 510.85 59"/><rect class="a" x="461" y="5" width="51" height="51"/><polygon class="b" points="461 55.44 451 50.44 451 1.09 461 6.09 461 55.44"/><polygon class="c" points="510.85 5 461.49 5 451.49 0 500.85 0 510.85 5"/><rect class="a" x="404" y="489" width="51" height="51"/><polygon class="b" points="404 539.23 394 534.23 394 484.88 404 489.88 404 539.23"/><polygon class="c" points="454.51 489 405.15 489 395.15 484 444.51 484 454.51 489"/><rect class="a" x="404" y="435" width="51" height="51"/><polygon class="b" points="404 485.48 394 480.48 394 431.12 404 436.12 404 485.48"/><polygon class="c" points="454.51 435 405.15 435 395.15 430 444.51 430 454.51 435"/><rect class="a" x="404" y="382" width="51" height="51"/><polygon class="b" points="404 431.72 394 426.72 394 377.37 404 382.37 404 431.72"/><polygon class="c" points="454.51 382 405.15 382 395.15 377 444.51 377 454.51 382"/><rect class="a" x="404" y="328" width="51" height="51"/><polygon class="b" points="404 377.97 394 372.97 394 323.61 404 328.61 404 377.97"/><polygon class="c" points="454.51 328 405.15 328 395.15 323 444.51 323 454.51 328"/><rect class="a" x="404" y="274" width="51" height="51"/><polygon class="b" points="404 324.21 394 319.21 394 269.86 404 274.86 404 324.21"/><polygon class="c" points="454.51 274 405.15 274 395.15 269 444.51 269 454.51 274"/><rect class="a" x="404" y="220" width="51" height="51"/><polygon class="b" points="404 270.46 394 265.46 394 216.1 404 221.1 404 270.46"/><polygon class="c" points="454.51 220 405.15 220 395.15 215 444.51 215 454.51 220"/><rect class="a" x="404" y="167" width="51" height="51"/><polygon class="b" points="404 216.71 394 211.71 394 162.35 404 167.35 404 216.71"/><polygon class="c" points="454.51 167 405.15 167 395.15 162 444.51 162 454.51 167"/><rect class="a" x="404" y="113" width="51" height="51"/><polygon class="b" points="404 162.95 394 157.95 394 108.59 404 113.59 404 162.95"/><polygon class="c" points="454.51 113 405.15 113 395.15 108 444.51 108 454.51 113"/><rect class="a" x="404" y="59" width="51" height="51"/><polygon class="b" points="404 109.2 394 104.2 394 54.84 404 59.84 404 109.2"/><polygon class="c" points="454.51 59 405.15 59 395.15 54 444.51 54 454.51 59"/><rect class="a" x="404" y="5" width="51" height="51"/><polygon class="b" points="404 55.44 394 50.44 394 1.09 404 6.09 404 55.44"/><polygon class="c" points="454.51 5 405.15 5 395.15 0 444.51 0 454.51 5"/><rect class="a" x="348" y="489" width="51" height="51"/><polygon class="b" points="348 539.23 338 534.23 338 484.88 348 489.88 348 539.23"/><polygon class="c" points="398.18 489 348.82 489 338.82 484 388.18 484 398.18 489"/><rect class="a" x="348" y="435" width="51" height="51"/><polygon class="b" points="348 485.48 338 480.48 338 431.12 348 436.12 348 485.48"/><polygon class="c" points="398.18 435 348.82 435 338.82 430 388.18 430 398.18 435"/><rect class="a" x="348" y="382" width="51" height="51"/><polygon class="b" points="348 431.72 338 426.72 338 377.37 348 382.37 348 431.72"/><polygon class="c" points="398.18 382 348.82 382 338.82 377 388.18 377 398.18 382"/><rect class="a" x="348" y="328" width="51" height="51"/><polygon class="b" points="348 377.97 338 372.97 338 323.61 348 328.61 348 377.97"/><polygon class="c" points="398.18 328 348.82 328 338.82 323 388.18 323 398.18 328"/><rect class="a" x="348" y="274" width="51" height="51"/><polygon class="b" points="348 324.21 338 319.21 338 269.86 348 274.86 348 324.21"/><polygon class="c" points="398.18 274 348.82 274 338.82 269 388.18 269 398.18 274"/><rect class="a" x="348" y="220" width="51" height="51"/><polygon class="b" points="348 270.46 338 265.46 338 216.1 348 221.1 348 270.46"/><polygon class="c" points="398.18 220 348.82 220 338.82 215 388.18 215 398.18 220"/><rect class="a" x="348" y="167" width="51" height="51"/><polygon class="b" points="348 216.71 338 211.71 338 162.35 348 167.35 348 216.71"/><polygon class="c" points="398.18 167 348.82 167 338.82 162 388.18 162 398.18 167"/><rect class="a" x="348" y="113" width="51" height="51"/><polygon class="b" points="348 162.95 338 157.95 338 108.59 348 113.59 348 162.95"/><polygon class="c" points="398.18 113 348.82 113 338.82 108 388.18 108 398.18 113"/><rect class="a" x="348" y="59" width="51" height="51"/><polygon class="b" points="348 109.2 338 104.2 338 54.84 348 59.84 348 109.2"/><polygon class="c" points="398.18 59 348.82 59 338.82 54 388.18 54 398.18 59"/><rect class="a" x="348" y="5" width="51" height="51"/><polygon class="b" points="348 55.44 338 50.44 338 1.09 348 6.09 348 55.44"/><polygon class="c" points="398.18 5 348.82 5 338.82 0 388.18 0 398.18 5"/><rect class="a" x="292" y="489" width="51" height="51"/><polygon class="b" points="292 539.23 282 534.23 282 484.88 292 489.88 292 539.23"/><polygon class="c" points="341.85 489 292.49 489 282.49 484 331.85 484 341.85 489"/><rect class="a" x="292" y="435" width="51" height="51"/><polygon class="b" points="292 485.48 282 480.48 282 431.12 292 436.12 292 485.48"/><polygon class="c" points="341.85 435 292.49 435 282.49 430 331.85 430 341.85 435"/><rect class="a" x="292" y="382" width="51" height="51"/><polygon class="b" points="292 431.72 282 426.72 282 377.37 292 382.37 292 431.72"/><polygon class="c" points="341.85 382 292.49 382 282.49 377 331.85 377 341.85 382"/><rect class="a" x="292" y="328" width="51" height="51"/><polygon class="b" points="292 377.97 282 372.97 282 323.61 292 328.61 292 377.97"/><polygon class="c" points="341.85 328 292.49 328 282.49 323 331.85 323 341.85 328"/><rect class="a" x="292" y="274" width="51" height="51"/><polygon class="b" points="292 324.21 282 319.21 282 269.86 292 274.86 292 324.21"/><polygon class="c" points="341.85 274 292.49 274 282.49 269 331.85 269 341.85 274"/><rect class="a" x="292" y="220" width="51" height="51"/><polygon class="b" points="292 270.46 282 265.46 282 216.1 292 221.1 292 270.46"/><polygon class="c" points="341.85 220 292.49 220 282.49 215 331.85 215 341.85 220"/><rect class="a" x="292" y="167" width="51" height="51"/><polygon class="b" points="292 216.71 282 211.71 282 162.35 292 167.35 292 216.71"/><polygon class="c" points="341.85 167 292.49 167 282.49 162 331.85 162 341.85 167"/><rect class="a" x="292" y="113" width="51" height="51"/><polygon class="b" points="292 162.95 282 157.95 282 108.59 292 113.59 292 162.95"/><polygon class="c" points="341.85 113 292.49 113 282.49 108 331.85 108 341.85 113"/><rect class="a" x="292" y="59" width="51" height="51"/><polygon class="b" points="292 109.2 282 104.2 282 54.84 292 59.84 292 109.2"/><polygon class="c" points="341.85 59 292.49 59 282.49 54 331.85 54 341.85 59"/><rect class="a" x="292" y="5" width="51" height="51"/><polygon class="b" points="292 55.44 282 50.44 282 1.09 292 6.09 292 55.44"/><polygon class="c" points="341.85 5 292.49 5 282.49 0 331.85 0 341.85 5"/><rect class="a" x="235" y="489" width="51" height="51"/><polygon class="b" points="235 539.23 225 534.23 225 484.88 235 489.88 235 539.23"/><polygon class="c" points="285.51 489 236.16 489 226.16 484 275.51 484 285.51 489"/><rect class="a" x="235" y="435" width="51" height="51"/><polygon class="b" points="235 485.48 225 480.48 225 431.12 235 436.12 235 485.48"/><polygon class="c" points="285.51 435 236.16 435 226.16 430 275.51 430 285.51 435"/><rect class="a" x="235" y="382" width="51" height="51"/><polygon class="b" points="235 431.72 225 426.72 225 377.37 235 382.37 235 431.72"/><polygon class="c" points="285.51 382 236.16 382 226.16 377 275.51 377 285.51 382"/><rect class="a" x="235" y="328" width="51" height="51"/><polygon class="b" points="235 377.97 225 372.97 225 323.61 235 328.61 235 377.97"/><polygon class="c" points="285.51 328 236.16 328 226.16 323 275.51 323 285.51 328"/><rect class="a" x="235" y="274" width="51" height="51"/><polygon class="b" points="235 324.21 225 319.21 225 269.86 235 274.86 235 324.21"/><polygon class="c" points="285.51 274 236.16 274 226.16 269 275.51 269 285.51 274"/><rect class="a" x="235" y="220" width="51" height="51"/><polygon class="b" points="235 270.46 225 265.46 225 216.1 235 221.1 235 270.46"/><polygon class="c" points="285.51 220 236.16 220 226.16 215 275.51 215 285.51 220"/><rect class="a" x="235" y="167" width="51" height="51"/><polygon class="b" points="235 216.71 225 211.71 225 162.35 235 167.35 235 216.71"/><polygon class="c" points="285.51 167 236.16 167 226.16 162 275.51 162 285.51 167"/><rect class="a" x="235" y="113" width="51" height="51"/><polygon class="b" points="235 162.95 225 157.95 225 108.59 235 113.59 235 162.95"/><polygon class="c" points="285.51 113 236.16 113 226.16 108 275.51 108 285.51 113"/><rect class="a" x="235" y="59" width="51" height="51"/><polygon class="b" points="235 109.2 225 104.2 225 54.84 235 59.84 235 109.2"/><polygon class="c" points="285.51 59 236.16 59 226.16 54 275.51 54 285.51 59"/><rect class="a" x="235" y="5" width="51" height="51"/><polygon class="b" points="235 55.44 225 50.44 225 1.09 235 6.09 235 55.44"/><polygon class="c" points="285.51 5 236.16 5 226.16 0 275.51 0 285.51 5"/><rect class="a" x="179" y="489" width="51" height="51"/><polygon class="b" points="179 539.23 169 534.23 169 484.88 179 489.88 179 539.23"/><polygon class="c" points="229.18 489 179.82 489 169.82 484 219.18 484 229.18 489"/><rect class="a" x="179" y="435" width="51" height="51"/><polygon class="b" points="179 485.48 169 480.48 169 431.12 179 436.12 179 485.48"/><polygon class="c" points="229.18 435 179.82 435 169.82 430 219.18 430 229.18 435"/><rect class="a" x="179" y="382" width="51" height="51"/><polygon class="b" points="179 431.72 169 426.72 169 377.37 179 382.37 179 431.72"/><polygon class="c" points="229.18 382 179.82 382 169.82 377 219.18 377 229.18 382"/><rect class="a" x="179" y="328" width="51" height="51"/><polygon class="b" points="179 377.97 169 372.97 169 323.61 179 328.61 179 377.97"/><polygon class="c" points="229.18 328 179.82 328 169.82 323 219.18 323 229.18 328"/><rect class="a" x="179" y="274" width="51" height="51"/><polygon class="b" points="179 324.21 169 319.21 169 269.86 179 274.86 179 324.21"/><polygon class="c" points="229.18 274 179.82 274 169.82 269 219.18 269 229.18 274"/><rect class="a" x="179" y="220" width="51" height="51"/><polygon class="b" points="179 270.46 169 265.46 169 216.1 179 221.1 179 270.46"/><polygon class="c" points="229.18 220 179.82 220 169.82 215 219.18 215 229.18 220"/><rect class="a" x="179" y="167" width="51" height="51"/><polygon class="b" points="179 216.71 169 211.71 169 162.35 179 167.35 179 216.71"/><polygon class="c" points="229.18 167 179.82 167 169.82 162 219.18 162 229.18 167"/><rect class="a" x="179" y="113" width="51" height="51"/><polygon class="b" points="179 162.95 169 157.95 169 108.59 179 113.59 179 162.95"/><polygon class="c" points="229.18 113 179.82 113 169.82 108 219.18 108 229.18 113"/><rect class="a" x="179" y="59" width="51" height="51"/><polygon class="b" points="179 109.2 169 104.2 169 54.84 179 59.84 179 109.2"/><polygon class="c" points="229.18 59 179.82 59 169.82 54 219.18 54 229.18 59"/><rect class="a" x="179" y="5" width="51" height="51"/><polygon class="b" points="179 55.44 169 50.44 169 1.09 179 6.09 179 55.44"/><polygon class="c" points="229.18 5 179.82 5 169.82 0 219.18 0 229.18 5"/><rect class="a" x="123" y="489" width="51" height="51"/><polygon class="b" points="123 539.23 113 534.23 113 484.88 123 489.88 123 539.23"/><polygon class="c" points="172.84 489 123.49 489 113.49 484 162.84 484 172.84 489"/><rect class="a" x="123" y="435" width="51" height="51"/><polygon class="b" points="123 485.48 113 480.48 113 431.12 123 436.12 123 485.48"/><polygon class="c" points="172.84 435 123.49 435 113.49 430 162.84 430 172.84 435"/><rect class="a" x="123" y="382" width="51" height="51"/><polygon class="b" points="123 431.72 113 426.72 113 377.37 123 382.37 123 431.72"/><polygon class="c" points="172.84 382 123.49 382 113.49 377 162.84 377 172.84 382"/><rect class="a" x="123" y="328" width="51" height="51"/><polygon class="b" points="123 377.97 113 372.97 113 323.61 123 328.61 123 377.97"/><polygon class="c" points="172.84 328 123.49 328 113.49 323 162.84 323 172.84 328"/><rect class="a" x="123" y="274" width="51" height="51"/><polygon class="b" points="123 324.21 113 319.21 113 269.86 123 274.86 123 324.21"/><polygon class="c" points="172.84 274 123.49 274 113.49 269 162.84 269 172.84 274"/><rect class="a" x="123" y="220" width="51" height="51"/><polygon class="b" points="123 270.46 113 265.46 113 216.1 123 221.1 123 270.46"/><polygon class="c" points="172.84 220 123.49 220 113.49 215 162.84 215 172.84 220"/><rect class="a" x="123" y="167" width="51" height="51"/><polygon class="b" points="123 216.71 113 211.71 113 162.35 123 167.35 123 216.71"/><polygon class="c" points="172.84 167 123.49 167 113.49 162 162.84 162 172.84 167"/><rect class="a" x="123" y="113" width="51" height="51"/><polygon class="b" points="123 162.95 113 157.95 113 108.59 123 113.59 123 162.95"/><polygon class="c" points="172.84 113 123.49 113 113.49 108 162.84 108 172.84 113"/><rect class="a" x="123" y="59" width="51" height="51"/><polygon class="b" points="123 109.2 113 104.2 113 54.84 123 59.84 123 109.2"/><polygon class="c" points="172.84 59 123.49 59 113.49 54 162.84 54 172.84 59"/><rect class="a" x="123" y="5" width="51" height="51"/><polygon class="b" points="123 55.44 113 50.44 113 1.09 123 6.09 123 55.44"/><polygon class="c" points="172.84 5 123.49 5 113.49 0 162.84 0 172.84 5"/><rect class="a" x="66" y="489" width="51" height="51"/><polygon class="b" points="66 539.23 56 534.23 56 484.88 66 489.88 66 539.23"/><polygon class="c" points="116.51 489 67.16 489 57.16 484 106.51 484 116.51 489"/><rect class="a" x="66" y="435" width="51" height="51"/><polygon class="b" points="66 485.48 56 480.48 56 431.12 66 436.12 66 485.48"/><polygon class="c" points="116.51 435 67.16 435 57.16 430 106.51 430 116.51 435"/><rect class="a" x="66" y="382" width="51" height="51"/><polygon class="b" points="66 431.72 56 426.72 56 377.37 66 382.37 66 431.72"/><polygon class="c" points="116.51 382 67.16 382 57.16 377 106.51 377 116.51 382"/><rect class="a" x="66" y="328" width="51" height="51"/><polygon class="b" points="66 377.97 56 372.97 56 323.61 66 328.61 66 377.97"/><polygon class="c" points="116.51 328 67.16 328 57.16 323 106.51 323 116.51 328"/><rect class="a" x="66" y="274" width="51" height="51"/><polygon class="b" points="66 324.21 56 319.21 56 269.86 66 274.86 66 324.21"/><polygon class="c" points="116.51 274 67.16 274 57.16 269 106.51 269 116.51 274"/><rect class="a" x="66" y="220" width="51" height="51"/><polygon class="b" points="66 270.46 56 265.46 56 216.1 66 221.1 66 270.46"/><polygon class="c" points="116.51 220 67.16 220 57.16 215 106.51 215 116.51 220"/><rect class="a" x="66" y="167" width="51" height="51"/><polygon class="b" points="66 216.71 56 211.71 56 162.35 66 167.35 66 216.71"/><polygon class="c" points="116.51 167 67.16 167 57.16 162 106.51 162 116.51 167"/><rect class="a" x="66" y="113" width="51" height="51"/><polygon class="b" points="66 162.95 56 157.95 56 108.59 66 113.59 66 162.95"/><polygon class="c" points="116.51 113 67.16 113 57.16 108 106.51 108 116.51 113"/><rect class="a" x="66" y="59" width="51" height="51"/><polygon class="b" points="66 109.2 56 104.2 56 54.84 66 59.84 66 109.2"/><polygon class="c" points="116.51 59 67.16 59 57.16 54 106.51 54 116.51 59"/><rect class="a" x="66" y="5" width="51" height="51"/><polygon class="b" points="66 55.44 56 50.44 56 1.09 66 6.09 66 55.44"/><polygon class="c" points="116.51 5 67.16 5 57.16 0 106.51 0 116.51 5"/><rect class="a" x="10" y="489" width="51" height="51"/><polygon class="b" points="10 539.23 0 534.23 0 484.88 10 489.88 10 539.23"/><polygon class="c" points="60.18 489 10.82 489 0.82 484 50.18 484 60.18 489"/><rect class="a" x="10" y="435" width="51" height="51"/><polygon class="b" points="10 485.48 0 480.48 0 431.12 10 436.12 10 485.48"/><polygon class="c" points="60.18 435 10.82 435 0.82 430 50.18 430 60.18 435"/><rect class="a" x="10" y="382" width="51" height="51"/><polygon class="b" points="10 431.72 0 426.72 0 377.37 10 382.37 10 431.72"/><polygon class="c" points="60.18 382 10.82 382 0.82 377 50.18 377 60.18 382"/><rect class="a" x="10" y="328" width="51" height="51"/><polygon class="b" points="10 377.97 0 372.97 0 323.61 10 328.61 10 377.97"/><polygon class="c" points="60.18 328 10.82 328 0.82 323 50.18 323 60.18 328"/><rect class="a" x="10" y="274" width="51" height="51"/><polygon class="b" points="10 324.21 0 319.21 0 269.86 10 274.86 10 324.21"/><polygon class="c" points="60.18 274 10.82 274 0.82 269 50.18 269 60.18 274"/><rect class="a" x="10" y="220" width="51" height="51"/><polygon class="b" points="10 270.46 0 265.46 0 216.1 10 221.1 10 270.46"/><polygon class="c" points="60.18 220 10.82 220 0.82 215 50.18 215 60.18 220"/><rect class="a" x="10" y="167" width="51" height="51"/><polygon class="b" points="10 216.71 0 211.71 0 162.35 10 167.35 10 216.71"/><polygon class="c" points="60.18 167 10.82 167 0.82 162 50.18 162 60.18 167"/><rect class="a" x="10" y="113" width="51" height="51"/><polygon class="b" points="10 162.95 0 157.95 0 108.59 10 113.59 10 162.95"/><polygon class="c" points="60.18 113 10.82 113 0.82 108 50.18 108 60.18 113"/><rect class="a" x="10" y="59" width="51" height="51"/><polygon class="b" points="10 109.2 0 104.2 0 54.84 10 59.84 10 109.2"/><polygon class="c" points="60.18 59 10.82 59 0.82 54 50.18 54 60.18 59"/><rect class="a" x="10" y="5" width="51" height="51"/><polygon class="b" points="10 55.44 0 50.44 0 1.09 10 6.09 10 55.44"/><polygon class="c" points="60.18 5 10.82 5 0.82 0 50.18 0 60.18 5"/></svg>