<svg xmlns="http://www.w3.org/2000/svg" viewBox="0 0 500 500"><defs><style>.cls-1{fill:#fc0;}.cls-2{fill:#bb1e18;}.cls-3{fill:#e64314;}</style></defs><title>cubo_decimo_10</title><g id="Capa_1" data-name="Capa 1"><g id="Bloque1"><rect class="cls-1" y="165.13" width="29.13" height="334.87"/><polygon class="cls-2" points="29.13 500 169.41 333.95 169.41 0 29.13 165.13 29.13 500"/><polygon class="cls-3" points="0 165.13 29.13 165.13 169.41 0 137.93 0 0 165.13"/></g><g id="Bloque1-2" data-name="Bloque1"><rect class="cls-1" x="36.73" y="165.13" width="29.13" height="334.87"/><polygon class="cls-2" points="65.86 500 206.15 333.95 206.15 0 65.86 165.13 65.86 500"/><polygon class="cls-3" points="36.73 165.13 65.86 165.13 206.15 0 174.66 0 36.73 165.13"/></g><g id="Bloque1-3" data-name="Bloque1"><rect class="cls-1" x="73.46" y="165.13" width="29.13" height="334.87"/><polygon class="cls-2" points="102.59 500 242.88 333.95 242.88 0 102.59 165.13 102.59 500"/><polygon class="cls-3" points="73.46 165.13 102.59 165.13 242.88 0 211.39 0 73.46 165.13"/></g><g id="Bloque1-4" data-name="Bloque1"><rect class="cls-1" x="110.2" y="165.13" width="29.13" height="334.87"/><polygon class="cls-2" points="139.32 500 279.61 333.95 279.61 0 139.32 165.13 139.32 500"/><polygon class="cls-3" points="110.19 165.13 139.32 165.13 279.61 0 248.13 0 110.19 165.13"/></g><g id="Bloque1-5" data-name="Bloque1"><rect class="cls-1" x="146.93" y="165.13" width="29.13" height="334.87"/><polygon class="cls-2" points="176.05 500 316.34 333.95 316.34 0 176.05 165.13 176.05 500"/><polygon class="cls-3" points="146.93 165.13 176.05 165.13 316.34 0 284.86 0 146.93 165.13"/></g><g id="Bloque1-6" data-name="Bloque1"><rect class="cls-1" x="183.66" y="165.13" width="29.13" height="334.87"/><polygon class="cls-2" points="212.78 500 353.07 333.95 353.07 0 212.78 165.13 212.78 500"/><polygon class="cls-3" points="183.66 165.13 212.78 165.13 353.07 0 321.59 0 183.66 165.13"/></g><g id="Bloque1-7" data-name="Bloque1"><rect class="cls-1" x="220.39" y="165.13" width="29.13" height="334.87"/><polygon class="cls-2" points="249.52 500 389.81 333.95 389.81 0 249.52 165.13 249.52 500"/><polygon class="cls-3" points="220.39 165.13 249.52 165.13 389.81 0 358.32 0 220.39 165.13"/></g><g id="Bloque1-8" data-name="Bloque1"><rect class="cls-1" x="257.12" y="165.13" width="29.13" height="334.87"/><polygon class="cls-2" points="286.25 500 426.54 333.95 426.54 0 286.25 165.13 286.25 500"/><polygon class="cls-3" points="257.12 165.13 286.25 165.13 426.54 0 395.05 0 257.12 165.13"/></g><g id="Bloque1-9" data-name="Bloque1"><rect class="cls-1" x="293.85" y="165.13" width="29.13" height="334.87"/><polygon class="cls-2" points="322.98 500 463.27 333.95 463.27 0 322.98 165.13 322.98 500"/><polygon class="cls-3" points="293.85 165.13 322.98 165.13 463.27 0 431.78 0 293.85 165.13"/></g><g id="Bloque1-10" data-name="Bloque1"><rect class="cls-1" x="330.59" y="165.13" width="29.13" height="334.87"/><polygon class="cls-2" points="359.71 500 500 333.95 500 0 359.71 165.13 359.71 500"/><polygon class="cls-3" points="330.59 165.13 359.71 165.13 500 0 468.52 0 330.59 165.13"/></g></g></svg>