<svg xmlns="http://www.w3.org/2000/svg" viewBox="0 0 76.82 75.29"><defs><style>.a{fill:#fff;}.a,.b{stroke:#f05023;stroke-miterlimit:10;stroke-width:0.29px;stroke-dasharray:1.16;}.b{fill:none;}.c{fill:#fc0;}.d{fill:#e64314;}.e{fill:#bb1e18;}</style></defs><title>cubo_centesimo_4</title><polygon class="a" points="26.02 0.14 26.02 50.24 4.59 75.14 0.14 75.14 0.14 24.91 21.21 0.14 26.02 0.14"/><polyline class="b" points="4.59 75.14 4.59 24.91 0.14 24.91"/><line class="b" x1="26.01" y1="0.15" x2="4.59" y2="24.91"/><polygon class="a" points="31.62 0.14 31.62 50.24 10.2 75.14 5.75 75.14 5.75 24.91 26.82 0.14 31.62 0.14"/><polyline class="b" points="10.2 75.14 10.2 24.91 5.75 24.91"/><line class="b" x1="31.62" y1="0.15" x2="10.2" y2="24.91"/><polygon class="a" points="37.31 0.14 37.31 50.24 15.88 75.14 11.44 75.14 11.44 24.91 32.5 0.14 37.31 0.14"/><polyline class="b" points="15.88 75.14 15.88 24.91 11.44 24.91"/><line class="b" x1="37.31" y1="0.15" x2="15.88" y2="24.91"/><polygon class="a" points="42.91 0.14 42.91 50.24 21.49 75.14 17.05 75.14 17.05 24.91 38.11 0.14 42.91 0.14"/><polyline class="b" points="21.49 75.14 21.49 24.91 17.05 24.91"/><line class="b" x1="42.92" y1="0.15" x2="21.49" y2="24.91"/><polygon class="a" points="48.6 0.14 48.6 50.24 27.18 75.14 22.73 75.14 22.73 24.91 43.79 0.14 48.6 0.14"/><polyline class="b" points="27.18 75.14 27.18 24.91 22.73 24.91"/><line class="b" x1="48.6" y1="0.15" x2="27.18" y2="24.91"/><polygon class="a" points="54.21 0.14 54.21 50.24 32.78 75.14 28.34 75.14 28.34 24.91 49.4 0.14 54.21 0.14"/><polyline class="b" points="32.78 75.14 32.78 24.91 28.34 24.91"/><line class="b" x1="54.21" y1="0.15" x2="32.78" y2="24.91"/><polygon class="a" points="59.78 0.14 59.78 50.24 38.36 75.14 33.91 75.14 33.91 24.91 54.97 0.14 59.78 0.14"/><polyline class="b" points="38.36 75.14 38.36 24.91 33.91 24.91"/><line class="b" x1="59.78" y1="0.15" x2="38.36" y2="24.91"/><polygon class="a" points="65.39 0.14 65.39 50.24 43.97 75.14 39.52 75.14 39.52 24.91 60.58 0.14 65.39 0.14"/><polyline class="b" points="43.97 75.14 43.97 24.91 39.52 24.91"/><line class="b" x1="65.39" y1="0.15" x2="43.97" y2="24.91"/><polygon class="a" points="71.07 0.14 71.07 50.24 49.65 75.14 45.2 75.14 45.2 24.91 66.26 0.14 71.07 0.14"/><polyline class="b" points="49.65 75.14 49.65 24.91 45.2 24.91"/><line class="b" x1="71.07" y1="0.15" x2="49.65" y2="24.91"/><polygon class="a" points="76.68 0.14 76.68 50.24 55.26 75.14 50.81 75.14 50.81 24.91 71.87 0.14 76.68 0.14"/><polyline class="b" points="55.26 75.14 55.26 24.91 50.81 24.91"/><line class="b" x1="76.68" y1="0.15" x2="55.26" y2="24.91"/><rect class="c" x="57.08" y="17.11" width="4.63" height="50.55" transform="translate(118.79 84.76) rotate(180)"/><polygon class="d" points="59.04 14.88 57.08 17.11 61.71 17.11 63.71 14.88 59.04 14.88"/><polygon class="e" points="63.71 14.88 63.71 65.34 61.71 67.65 61.71 17.11 63.71 14.88"/><rect class="c" x="54.92" y="19.61" width="4.63" height="50.55" transform="translate(114.48 89.76) rotate(180)"/><polygon class="d" points="56.89 17.38 54.92 19.61 59.56 19.61 61.55 17.38 56.89 17.38"/><polygon class="e" points="61.55 17.38 61.55 67.84 59.56 70.15 59.56 19.61 61.55 17.38"/><rect class="c" x="52.77" y="22.1" width="4.63" height="50.55" transform="translate(110.17 94.75) rotate(180)"/><polygon class="d" points="54.73 19.87 52.77 22.1 57.4 22.1 59.4 19.87 54.73 19.87"/><polygon class="e" points="59.4 19.87 59.4 70.34 57.4 72.65 57.4 22.1 59.4 19.87"/><rect class="c" x="50.61" y="24.6" width="4.63" height="50.55" transform="translate(105.86 99.74) rotate(180)"/><polygon class="d" points="52.58 22.37 50.62 24.6 55.25 24.6 57.24 22.37 52.58 22.37"/><polygon class="e" points="57.24 22.37 57.24 72.83 55.25 75.14 55.25 24.6 57.24 22.37"/><line class="b" x1="74.48" y1="52.86" x2="74.48" y2="2.39"/><line class="b" x1="74.48" y1="2.39" x2="69.81" y2="2.39"/><line class="b" x1="72.33" y1="55.35" x2="72.33" y2="4.89"/><line class="b" x1="72.33" y1="4.89" x2="67.66" y2="4.89"/><line class="b" x1="70.17" y1="57.85" x2="70.17" y2="7.39"/><line class="b" x1="70.17" y1="7.39" x2="65.51" y2="7.39"/><line class="b" x1="63.35" y1="9.88" x2="68.02" y2="9.88"/><line class="b" x1="68.02" y1="9.88" x2="68.02" y2="60.35"/><line class="b" x1="61.2" y1="12.38" x2="65.86" y2="12.38"/><line class="b" x1="65.86" y1="12.38" x2="65.86" y2="62.85"/></svg>