<svg xmlns="http://www.w3.org/2000/svg" viewBox="0 0 200 75.38"><defs><style>.cls-1{fill:#f0ca30;}.cls-2{fill:#9f231e;}.cls-3{fill:#c6451e;}.cls-4{fill:#f83;}.cls-5{fill:#fe5b2f;}</style></defs><title>Recurso 4</title><g id="Capa_2" data-name="Capa 2"><g id="Capa_1-2" data-name="Capa 1"><rect class="cls-1" x="132.04" y="28.55" width="39.47" height="36.08"/><polygon class="cls-2" points="171.51 64.63 186.89 46.74 186.89 10.75 171.51 28.55 171.51 64.63"/><polygon class="cls-3" points="132.04 28.55 171.51 28.55 186.89 10.75 147.17 10.75 132.04 28.55"/><path class="cls-4" d="M21.74,31.15v7.29a4,4,0,0,1-1.16,3,4.5,4.5,0,0,1-3.2,1.1,4.3,4.3,0,0,1-3.16-1.11,4.14,4.14,0,0,1-1.11-3.06V31.15h1.31v7.36a2.89,2.89,0,0,0,.77,2.16,3.1,3.1,0,0,0,2.27.76,3,3,0,0,0,2.2-.76,2.94,2.94,0,0,0,.77-2.18V31.15Z"/><path class="cls-4" d="M30.32,42.42V37a2.24,2.24,0,0,0-.47-1.55,2,2,0,0,0-1.48-.5,2.42,2.42,0,0,0-1.94.71A3.64,3.64,0,0,0,25.81,38v4.43H24.53V34h1l.21,1.16h.06a2.63,2.63,0,0,1,1.11-1,3.55,3.55,0,0,1,1.58-.34,3.2,3.2,0,0,1,2.29.73,3.14,3.14,0,0,1,.78,2.36v5.51Z"/><path class="cls-4" d="M41.9,42.58a3.89,3.89,0,0,1-3-1.14,4.43,4.43,0,0,1-1.08-3.17,4.91,4.91,0,0,1,1-3.25,3.37,3.37,0,0,1,2.71-1.2,3.2,3.2,0,0,1,2.51,1A4,4,0,0,1,45,37.62v.81H39.18a3.35,3.35,0,0,0,.76,2.26,2.6,2.6,0,0,0,2,.77,6.82,6.82,0,0,0,2.7-.57V42a6.42,6.42,0,0,1-1.29.42A6.81,6.81,0,0,1,41.9,42.58Zm-.35-7.69a2.08,2.08,0,0,0-1.62.66,3.1,3.1,0,0,0-.71,1.84h4.41a2.83,2.83,0,0,0-.54-1.86A1.88,1.88,0,0,0,41.55,34.89Z"/><path class="cls-4" d="M53,42.42V37a2.2,2.2,0,0,0-.47-1.55,1.93,1.93,0,0,0-1.47-.5,2.42,2.42,0,0,0-1.94.71A3.64,3.64,0,0,0,48.47,38v4.43H47.19V34h1l.21,1.16h.06a2.6,2.6,0,0,1,1.1-1,3.59,3.59,0,0,1,1.58-.34,3.21,3.21,0,0,1,2.3.73,3.13,3.13,0,0,1,.77,2.36v5.51Z"/><path class="cls-4" d="M59.61,41.52a3.53,3.53,0,0,0,.66-.05,4.83,4.83,0,0,0,.5-.1v1a2.49,2.49,0,0,1-.61.16,4.06,4.06,0,0,1-.73.07C57.79,42.58,57,41.72,57,40V35H55.77v-.62L57,33.82,57.52,32h.74v2h2.45v1H58.26v5a1.71,1.71,0,0,0,.36,1.17A1.23,1.23,0,0,0,59.61,41.52Z"/><path class="cls-4" d="M66,42.58a3.9,3.9,0,0,1-3-1.14A4.43,4.43,0,0,1,62,38.27,4.86,4.86,0,0,1,63,35a3.34,3.34,0,0,1,2.7-1.2,3.19,3.19,0,0,1,2.51,1,4,4,0,0,1,.93,2.76v.81H63.32a3.3,3.3,0,0,0,.75,2.26,2.6,2.6,0,0,0,2,.77,6.82,6.82,0,0,0,2.7-.57V42a6.23,6.23,0,0,1-1.29.42A6.81,6.81,0,0,1,66,42.58Zm-.35-7.69a2.08,2.08,0,0,0-1.62.66,3.1,3.1,0,0,0-.71,1.84h4.42a2.83,2.83,0,0,0-.54-1.86A1.91,1.91,0,0,0,65.68,34.89Z"/><path class="cls-4" d="M75.18,33.82a5.2,5.2,0,0,1,1,.09L76,35.1a4.23,4.23,0,0,0-.93-.12,2.25,2.25,0,0,0-1.75.84,3,3,0,0,0-.73,2.07v4.53H71.32V34h1.06l.14,1.57h.07a3.61,3.61,0,0,1,1.13-1.27A2.54,2.54,0,0,1,75.18,33.82Z"/><path class="cls-4" d="M85.06,38.19a4.65,4.65,0,0,1-1,3.23,3.66,3.66,0,0,1-2.87,1.16,3.88,3.88,0,0,1-2-.53,3.54,3.54,0,0,1-1.35-1.53,5.3,5.3,0,0,1-.48-2.33,4.65,4.65,0,0,1,1-3.22,3.66,3.66,0,0,1,2.87-1.15A3.58,3.58,0,0,1,84,35,4.61,4.61,0,0,1,85.06,38.19Zm-6.44,0a4,4,0,0,0,.65,2.47,2.57,2.57,0,0,0,3.82,0,4,4,0,0,0,.65-2.47,4,4,0,0,0-.65-2.45,2.3,2.3,0,0,0-1.93-.83,2.26,2.26,0,0,0-1.9.82A4,4,0,0,0,78.62,38.19Z"/><path class="cls-4" d="M91,35.81V34.75h7.17v1.06ZM91,39V37.91h7.17V39Z"/><path class="cls-4" d="M108.7,42.42h-1.25v-8c0-.67,0-1.3.06-1.9-.1.11-.23.22-.36.34s-.74.62-1.83,1.5l-.68-.87,3-2.31h1.08Z"/><path class="cls-4" d="M117.24,35.81V34.75h7.17v1.06Zm0,3.15V37.91h7.17V39Z"/><path class="cls-5" d="M188.91,75.38H11.09A11.1,11.1,0,0,1,0,64.29V11.09A11.1,11.1,0,0,1,11.09,0H188.91A11.1,11.1,0,0,1,200,11.09v53.2A11.1,11.1,0,0,1,188.91,75.38ZM11.09,1.54a9.56,9.56,0,0,0-9.55,9.55v53.2a9.56,9.56,0,0,0,9.55,9.56H188.91a9.56,9.56,0,0,0,9.55-9.56V11.09a9.56,9.56,0,0,0-9.55-9.55Z"/></g></g></svg>