<svg xmlns="http://www.w3.org/2000/svg" viewBox="0 0 200 69.82"><defs><style>.cls-1{fill:#f83;}.cls-2{fill:#fff;}.cls-3{fill:#d0512a;}.cls-4{fill:#f0ca30;}.cls-5{fill:#9f231e;}.cls-6{fill:#c6451e;}.cls-7{fill:#fe5b2f;}</style></defs><title>Recurso 3</title><g id="Capa_2" data-name="Capa 2"><g id="Capa_1-2" data-name="Capa 1"><path class="cls-1" d="M19.23,28.64v6.81a3.7,3.7,0,0,1-1.09,2.83,4.18,4.18,0,0,1-3,1,4,4,0,0,1-2.95-1,3.85,3.85,0,0,1-1-2.85V28.64H12.4V35.5a2.72,2.72,0,0,0,.72,2,2.89,2.89,0,0,0,2.11.7,2.79,2.79,0,0,0,2.06-.71,2.72,2.72,0,0,0,.72-2V28.64Z"/><path class="cls-1" d="M27.23,39.16v-5.1a2,2,0,0,0-.44-1.44,1.77,1.77,0,0,0-1.37-.48,2.27,2.27,0,0,0-1.81.67A3.36,3.36,0,0,0,23,35v4.14H21.84V31.27h1L23,32.35h.06a2.38,2.38,0,0,1,1-.9,3.24,3.24,0,0,1,1.47-.32,3,3,0,0,1,2.15.69A2.9,2.9,0,0,1,28.43,34v5.15Z"/><path class="cls-1" d="M40.08,38.1H40a2.81,2.81,0,0,1-2.48,1.2,3,3,0,0,1-2.41-1,4.69,4.69,0,0,1-.86-3,4.71,4.71,0,0,1,.87-3,3.2,3.2,0,0,1,4.86.08h.1l-.05-.56,0-.56V28h1.19v11.2h-1Zm-2.39.2a2.2,2.2,0,0,0,1.78-.66A3.34,3.34,0,0,0,40,35.49v-.25a4,4,0,0,0-.56-2.4,2.14,2.14,0,0,0-1.78-.71,1.82,1.82,0,0,0-1.61.82,4,4,0,0,0-.56,2.3,3.87,3.87,0,0,0,.56,2.28A1.86,1.86,0,0,0,37.69,38.3Z"/><path class="cls-1" d="M47.08,39.3a3.61,3.61,0,0,1-2.76-1.06,4.11,4.11,0,0,1-1-3,4.56,4.56,0,0,1,.94-3,3.09,3.09,0,0,1,2.52-1.12,3,3,0,0,1,2.35,1A3.77,3.77,0,0,1,50,34.68v.75H44.55a3.07,3.07,0,0,0,.7,2.11,2.42,2.42,0,0,0,1.87.72,6.44,6.44,0,0,0,2.52-.53v1.06a5.82,5.82,0,0,1-1.2.4A6.67,6.67,0,0,1,47.08,39.3Zm-.32-7.17a1.93,1.93,0,0,0-1.52.62,2.83,2.83,0,0,0-.67,1.71H48.7a2.66,2.66,0,0,0-.5-1.73A1.79,1.79,0,0,0,46.76,32.13Zm-.89-2.08q.35-.45.75-1.08c.26-.42.47-.79.63-1.1H48.7V28a12.1,12.1,0,0,1-.94,1.15,10.32,10.32,0,0,1-1.09,1.06h-.8Z"/><path class="cls-1" d="M55.17,39.3a3.36,3.36,0,0,1-2.65-1,4.31,4.31,0,0,1-.94-3,4.5,4.5,0,0,1,1-3.06,3.44,3.44,0,0,1,2.72-1.08,5.52,5.52,0,0,1,1.14.12,3.71,3.71,0,0,1,.89.29l-.37,1a6.23,6.23,0,0,0-.86-.26,3.8,3.8,0,0,0-.83-.1q-2.4,0-2.4,3.06a3.64,3.64,0,0,0,.58,2.23,2,2,0,0,0,1.74.78,5.34,5.34,0,0,0,2-.42v1A4.2,4.2,0,0,1,55.17,39.3Z"/><path class="cls-1" d="M58.93,29.13a.78.78,0,0,1,.21-.6.74.74,0,0,1,1,0,.77.77,0,0,1,.21.59.82.82,0,0,1-.21.61.71.71,0,0,1-.5.19.68.68,0,0,1-.5-.19A.82.82,0,0,1,58.93,29.13Zm1.3,10H59V31.27h1.19Z"/><path class="cls-1" d="M72.82,39.16V34a2.15,2.15,0,0,0-.4-1.42,1.59,1.59,0,0,0-1.26-.47,2,2,0,0,0-1.64.64,3,3,0,0,0-.54,2v4.4H67.79V34a2.21,2.21,0,0,0-.4-1.42,1.59,1.59,0,0,0-1.26-.47,2,2,0,0,0-1.65.68A3.59,3.59,0,0,0,64,35v4.14h-1.2V31.27h1l.19,1.08H64a2.36,2.36,0,0,1,.95-.9,3,3,0,0,1,1.38-.32,2.34,2.34,0,0,1,2.42,1.34h.06a2.42,2.42,0,0,1,1-1,3.13,3.13,0,0,1,1.52-.36,2.66,2.66,0,0,1,2,.69A3.07,3.07,0,0,1,74,34v5.15Z"/><path class="cls-1" d="M83.29,35.21a4.33,4.33,0,0,1-1,3,3.41,3.41,0,0,1-2.68,1.08,3.56,3.56,0,0,1-1.88-.49,3.28,3.28,0,0,1-1.27-1.43A5.06,5.06,0,0,1,76,35.21a4.37,4.37,0,0,1,1-3,3.45,3.45,0,0,1,2.68-1.07,3.35,3.35,0,0,1,2.63,1.1A4.33,4.33,0,0,1,83.29,35.21Zm-6,0a3.73,3.73,0,0,0,.6,2.3,2.09,2.09,0,0,0,1.78.79,2.13,2.13,0,0,0,1.78-.78,3.72,3.72,0,0,0,.61-2.31,3.66,3.66,0,0,0-.61-2.29,2.14,2.14,0,0,0-1.8-.78,2.12,2.12,0,0,0-1.77.77A3.72,3.72,0,0,0,77.28,35.21Z"/><path class="cls-1" d="M88.8,33V32h6.69v1Zm0,2.94v-1h6.69v1Z"/><path class="cls-1" d="M107.9,33.88A7.75,7.75,0,0,1,107,38a3.19,3.19,0,0,1-5.22,0,7.56,7.56,0,0,1-.88-4,7.71,7.71,0,0,1,.85-4.08,2.92,2.92,0,0,1,2.62-1.33,2.89,2.89,0,0,1,2.6,1.39A7.53,7.53,0,0,1,107.9,33.88Zm-5.75,0a7.72,7.72,0,0,0,.54,3.35,1.93,1.93,0,0,0,3.45,0,7.7,7.7,0,0,0,.53-3.33,7.71,7.71,0,0,0-.53-3.32,1.95,1.95,0,0,0-3.45,0A7.61,7.61,0,0,0,102.15,33.88Z"/><path class="cls-1" d="M111.15,37.45l.11.16q-.2.72-.54,1.68c-.24.63-.48,1.22-.74,1.77h-.89c.12-.5.27-1.11.42-1.85s.27-1.32.33-1.76Z"/><path class="cls-1" d="M117.39,39.16h-1.16v-7.5c0-.62,0-1.21,0-1.77l-.33.32c-.13.11-.7.58-1.72,1.4l-.63-.82,2.78-2.15h1Z"/><path class="cls-1" d="M125.36,33V32h6.69v1Zm0,2.94v-1h6.69v1Z"/><polygon class="cls-2" points="138.89 26.38 138.89 60.05 175.72 60.05 190.07 43.35 190.07 9.77 153.01 9.77 138.89 26.38"/><path class="cls-3" d="M175.76,60.14h-.49V60h.4l.19-.22.15.13Zm-1.27,0h-.77V60h.77Zm-1.55,0h-.78V60h.78Zm-1.56,0h-.78V60h.78Zm-1.56,0H169V60h.78Zm-1.55,0h-.78V60h.78Zm-1.56,0h-.78V60h.78Zm-1.56,0h-.78V60h.78Zm-1.55,0h-.78V60h.78Zm-1.56,0h-.78V60H162Zm-1.56,0h-.78V60h.78Zm-1.55,0h-.78V60h.78Zm-1.56,0h-.78V60h.78Zm-1.56,0H155V60h.78Zm-1.55,0h-.78V60h.78Zm-1.56,0h-.78V60h.78Zm-1.56,0h-.78V60h.78Zm-1.56,0h-.77V60h.77Zm-1.55,0h-.78V60H148Zm-1.56,0h-.78V60h.78Zm-1.56,0h-.77V60h.77Zm-1.55,0h-.78V60h.78Zm-1.56,0H141V60h.78Zm-1.56,0h-.77V60h.77ZM139,59.85h-.2v-.78h.2Zm37.53-.58-.15-.13.51-.59.14.13Zm-37.53-1h-.2v-.78h.2Zm38.54-.2-.15-.13.51-.59.15.13Zm1-1.18-.14-.13.5-.59.15.13ZM139,56.73h-.2V56h.2Zm40.57-1-.15-.13.51-.59.15.13ZM139,55.18h-.2V54.4h.2Zm41.58-.63-.14-.13.5-.59.15.13ZM139,53.62h-.2v-.78h.2Zm42.6-.26-.15-.12.51-.59.15.12Zm1-1.18-.14-.12.5-.59.15.12ZM139,52.06h-.2v-.77h.2ZM183.62,51l-.15-.12.51-.59.15.12ZM139,50.51h-.2v-.78h.2Zm45.64-.69-.14-.12.5-.59.15.12ZM139,49h-.2v-.78h.2Zm46.66-.31-.15-.12.51-.59.15.12Zm1-1.18-.15-.13.51-.59.15.13ZM139,47.39h-.2v-.78h.2Zm48.69-1.11-.15-.13.51-.59.14.13ZM139,45.84h-.2v-.78h.2Zm49.7-.74-.15-.13.51-.59.15.13ZM139,44.28h-.2V43.5h.2Zm50.72-.36-.15-.13.41-.47v-.08h.19v.15ZM139,42.72h-.2v-.78h.2Zm51.17-.26H190v-.78h.19ZM139,41.17h-.2v-.78h.2Zm51.17-.27H190v-.77h.19ZM139,39.61h-.2v-.78h.2Zm51.17-.26H190v-.78h.19ZM139,38.05h-.2v-.78h.2Zm51.17-.26H190V37h.19ZM139,36.5h-.2v-.78h.2Zm51.17-.27H190v-.78h.19ZM139,34.94h-.2v-.78h.2Zm51.17-.26H190V33.9h.19ZM139,33.38h-.2V32.6h.2Zm51.17-.26H190v-.78h.19ZM139,31.83h-.2v-.78h.2Zm51.17-.27H190v-.78h.19ZM139,30.27h-.2v-.78h.2ZM190.16,30H190v-.78h.19ZM139,28.71h-.2v-.78h.2Zm51.17-.26H190v-.78h.19ZM139,27.16h-.2v-.78h.2Zm51.17-.27H190v-.78h.19Zm-50.89-.81-.15-.12.5-.6.15.13Zm50.89-.74H190v-.78h.19Zm-49.88-.44-.15-.13.5-.59.15.12Zm49.88-1.12H190V23h.19Zm-48.88-.07-.14-.13.5-.59.15.13Zm1-1.19-.15-.12.51-.6.15.13Zm47.87-.3H190v-.78h.19Zm-46.86-.88-.15-.13.51-.59.14.12Zm46.86-.67H190v-.78h.19Zm-45.85-.52-.15-.12.5-.6.15.13Zm45.85-1H190v-.78h.19ZM145.32,19l-.15-.13.5-.59.15.12Zm1-1.19-.15-.13.5-.59.15.13Zm43.83-.23H190v-.78h.19Zm-42.83-1-.14-.12.5-.6.15.13ZM190.16,16H190v-.78h.19Zm-41.82-.59-.15-.13.51-.59.15.12Zm41.82-1H190v-.78h.19Zm-40.81-.22-.15-.12.51-.6.15.13Zm1-1.18-.15-.13.51-.59.14.12Zm39.8-.16H190V12.1h.19Zm-38.79-1-.15-.13.5-.59.15.13Zm38.79-.53H190v-.77h.19Zm-37.78-.66-.15-.12.5-.6.15.13Zm37.68-.79h-.78V9.68h.78Zm-1.56,0h-.77V9.68h.77Zm-1.55,0h-.78V9.68H187Zm-1.56,0h-.78V9.68h.78Zm-1.56,0h-.77V9.68h.77Zm-1.55,0h-.78V9.68h.78Zm-1.56,0h-.78V9.68h.78Zm-1.56,0h-.77V9.68h.77Zm-1.55,0h-.78V9.68h.78Zm-1.56,0h-.78V9.68h.78Zm-1.56,0h-.77V9.68h.77Zm-1.55,0h-.78V9.68h.78Zm-1.56,0h-.78V9.68h.78Zm-1.56,0H169V9.68h.78Zm-1.55,0h-.78V9.68h.78Zm-1.56,0h-.78V9.68h.78Zm-1.56,0h-.78V9.68h.78Zm-1.55,0h-.78V9.68h.78Zm-1.56,0h-.78V9.68H162Zm-1.56,0h-.78V9.68h.78Zm-1.55,0h-.78V9.68h.78Zm-1.56,0h-.78V9.68h.78Zm-1.56,0H155V9.68h.78Zm-1.55,0h-.78V9.68h.78Z"/><path class="cls-3" d="M175.47,26.47h-.78v-.19h.78Zm-1.55,0h-.78v-.19h.78Zm-1.56,0h-.78v-.19h.78Zm-1.56,0H170v-.19h.78Zm-1.56,0h-.77v-.19h.77Zm-1.55,0h-.78v-.19h.78Zm-1.56,0h-.78v-.19h.78Zm-1.56,0h-.77v-.19h.77Zm-1.55,0h-.78v-.19H163Zm-1.56,0h-.78v-.19h.78Zm-1.56,0h-.77v-.19h.77Zm-1.55,0h-.78v-.19h.78Zm-1.56,0H156v-.19h.78Zm-1.56,0h-.77v-.19h.77Zm-1.55,0h-.78v-.19h.78Zm-1.56,0h-.78v-.19h.78Zm-1.56,0h-.77v-.19h.77Zm-1.55,0h-.78v-.19H149Zm-1.56,0h-.78v-.19h.78Zm-1.56,0h-.78v-.19h.78Zm-1.55,0h-.78v-.19h.78Zm-1.56,0H142v-.19h.78Zm-1.56,0h-.78v-.19h.78Zm-1.55,0h-.78v-.19h.78ZM176.14,26l-.15-.13.51-.59.15.13Zm1-1.18-.15-.13.51-.59.15.13Zm1-1.18-.15-.13.51-.59.14.13Zm1-1.18-.14-.12.51-.59.14.12Zm1-1.17-.15-.13.51-.59.15.13Zm1-1.18-.15-.13.51-.59.15.13Zm1-1.18-.15-.13.51-.59.15.13Zm1-1.18-.15-.13.51-.58.14.12Zm1-1.18-.14-.12.5-.59.15.13Zm1-1.17-.15-.13.51-.59.15.13Zm1-1.18-.15-.13.51-.59.15.13Zm1-1.18-.15-.13.51-.59.15.13Zm1-1.18-.14-.12.51-.59.14.12Zm1-1.18-.14-.12.5-.59.15.13Z"/><path class="cls-3" d="M175.81,60.05h-.19v-.78h.19Zm0-1.56h-.19v-.78h.19Zm0-1.56h-.19v-.77h.19Zm0-1.55h-.19V54.6h.19Zm0-1.56h-.19V53h.19Zm0-1.56h-.19v-.77h.19Zm0-1.55h-.19v-.78h.19Zm0-1.56h-.19v-.78h.19Zm0-1.56h-.19v-.77h.19Zm0-1.55h-.19v-.78h.19Zm0-1.56h-.19V43.7h.19Zm0-1.56h-.19v-.78h.19Zm0-1.55h-.19v-.78h.19Zm0-1.56h-.19V39h.19Zm0-1.56h-.19v-.78h.19Zm0-1.55h-.19v-.78h.19Zm0-1.56h-.19v-.78h.19Zm0-1.56h-.19V32.8h.19Zm0-1.55h-.19v-.78h.19Zm0-1.56h-.19v-.78h.19Zm0-1.56h-.19v-.78h.19Zm0-1.55h-.19v-.78h.19Z"/><g id="Bloque1"><rect class="cls-4" x="172.8" y="26.35" width="2.98" height="33.67"/><polygon class="cls-5" points="175.78 60.02 190.14 43.32 190.14 9.74 175.78 26.35 175.78 60.02"/><polygon class="cls-6" points="172.8 26.35 175.78 26.35 190.14 9.74 186.92 9.74 172.8 26.35"/></g><path class="cls-7" d="M188.91,69.82H11.09C5,69.82,0,65.21,0,59.55V10.27C0,4.61,5,0,11.09,0H188.91C195,0,200,4.61,200,10.27V59.55C200,65.21,195,69.82,188.91,69.82ZM11.09,1.42c-5.27,0-9.55,4-9.55,8.85V59.55c0,4.88,4.28,8.85,9.55,8.85H188.91c5.27,0,9.55-4,9.55-8.85V10.27c0-4.88-4.28-8.85-9.55-8.85Z"/></g></g></svg>