<svg xmlns="http://www.w3.org/2000/svg" width="800" height="100" viewBox="0 0 800 100"><defs><style>.a,.g,.i{fill:#fff;}.b{fill:#f05023;}.c{fill:#f58220;}.d{fill:#fc0;}.e{fill:#bb1e18;}.f{fill:#e64314;}.g,.h,.i{stroke:#f05023;stroke-miterlimit:10;}.g,.h{stroke-dasharray:1.08;}.h{fill:none;}.i{stroke-dasharray:1.08;}</style></defs><title>leyendaoa12</title><rect class="a" x="1.51" y="1.51" width="796.98" height="96.98" rx="17.52" ry="17.52"/><path class="b" d="M781,3a16,16,0,0,1,16,16V81a16,16,0,0,1-16,16H19A16,16,0,0,1,3,81V19A16,16,0,0,1,19,3H781m0-3H19A19.09,19.09,0,0,0,0,19V81a19.09,19.09,0,0,0,19,19H781a19.09,19.09,0,0,0,19-19V19A19.09,19.09,0,0,0,781,0Z"/><path class="c" d="M23.5,41.25V51a4.67,4.67,0,0,0,1.27,3.38,4.44,4.44,0,0,0,3.35,1.32,4.44,4.44,0,0,0,3.35-1.32A4.67,4.67,0,0,0,32.74,51v-9.7H34V51a5.62,5.62,0,0,1-1.56,4.17,5.79,5.79,0,0,1-4.27,1.55,5.79,5.79,0,0,1-4.26-1.55A5.62,5.62,0,0,1,22.29,51V41.25Z"/><path class="c" d="M41.95,45.38a3.79,3.79,0,0,1,2.87,1.15,4.4,4.4,0,0,1,1.1,3.16v6.79H44.76v-7a2.93,2.93,0,0,0-.83-2.14,2.9,2.9,0,0,0-2.15-.84,3.82,3.82,0,0,0-2.59,1A3.52,3.52,0,0,0,38,50.28v6.2H36.84V45.64H38v2a4.86,4.86,0,0,1,1.56-1.6A4.21,4.21,0,0,1,41.95,45.38Z"/><path class="c" d="M63.69,47a5.85,5.85,0,0,1,1.47,4.08,5,5,0,0,1,0,.54H56.06a4.38,4.38,0,0,0,1.33,2.93,4.11,4.11,0,0,0,2.95,1.12,3.94,3.94,0,0,0,3.32-1.44l1.07.46a5.06,5.06,0,0,1-4.39,2.06,5.23,5.23,0,0,1-4-1.59,5.72,5.72,0,0,1-1.49-4.08,5.93,5.93,0,0,1,1.44-4A4.71,4.71,0,0,1,60,45.39,4.77,4.77,0,0,1,63.69,47Zm-6.43.64a4.61,4.61,0,0,0-1.2,3h7.88a4.72,4.72,0,0,0-1.21-3,3.82,3.82,0,0,0-5.47,0Z"/><path class="c" d="M72.84,45.38a3.79,3.79,0,0,1,2.87,1.15,4.4,4.4,0,0,1,1.1,3.16v6.79H75.66v-7a2.93,2.93,0,0,0-.83-2.14,2.9,2.9,0,0,0-2.15-.84,3.82,3.82,0,0,0-2.59,1,3.52,3.52,0,0,0-1.18,2.77v6.2H67.74V45.64H68.9v2a4.86,4.86,0,0,1,1.56-1.6A4.21,4.21,0,0,1,72.84,45.38Z"/><path class="c" d="M84.56,56a2.89,2.89,0,0,1-1.93.75q-2.32,0-2.32-2.56V46.74H78.85v-1.1h1.46V42.18h1.16v3.46h2v1.1h-2v7.69q0,1.24,1.19,1.24a2,2,0,0,0,1.26-.5Z"/><path class="c" d="M95,47a5.85,5.85,0,0,1,1.47,4.08,5,5,0,0,1,0,.54H87.42a4.38,4.38,0,0,0,1.33,2.93,4.11,4.11,0,0,0,2.95,1.12A3.94,3.94,0,0,0,95,54.23l1.07.46a5.06,5.06,0,0,1-4.39,2.06,5.23,5.23,0,0,1-4-1.59,5.72,5.72,0,0,1-1.49-4.08,5.93,5.93,0,0,1,1.44-4,4.71,4.71,0,0,1,3.72-1.64A4.77,4.77,0,0,1,95,47Zm-6.43.64a4.61,4.61,0,0,0-1.2,3h7.88a4.72,4.72,0,0,0-1.21-3,3.82,3.82,0,0,0-5.47,0Z"/><path class="c" d="M103.86,45.39H104v1.4a5.2,5.2,0,0,0-1.19-.13,2.79,2.79,0,0,0-1.78.63,2.43,2.43,0,0,0-.79,2v7.18H99.09V45.64h1.16v1.59A4.11,4.11,0,0,1,101.63,46,4.66,4.66,0,0,1,103.86,45.39Z"/><path class="c" d="M114.61,47a6.39,6.39,0,0,1,0,8.14,5.08,5.08,0,0,1-7.41,0,6.39,6.39,0,0,1,0-8.14,4.79,4.79,0,0,1,3.71-1.62A4.71,4.71,0,0,1,114.61,47Zm-6.54.76a5.49,5.49,0,0,0,0,6.61,3.81,3.81,0,0,0,5.7,0,5.54,5.54,0,0,0,0-6.62,3.8,3.8,0,0,0-5.7,0Z"/><path class="c" d="M135.41,45.82v1.1H124.67v-1.1Zm0,5v1.1H124.67v-1.1Z"/><path class="c" d="M147.41,41.25h.95V56.48h-1.21V42.68L144.51,44l-.5-1Z"/><path class="c" d="M167.69,45.82v1.1H157v-1.1Zm0,5v1.1H157v-1.1Z"/><path class="c" d="M263.5,41v9.7a4.67,4.67,0,0,0,1.27,3.38,4.93,4.93,0,0,0,6.7,0,4.67,4.67,0,0,0,1.27-3.38V41H274v9.78a5.62,5.62,0,0,1-1.56,4.17,6.65,6.65,0,0,1-8.53,0,5.62,5.62,0,0,1-1.57-4.18V41Z"/><path class="c" d="M281.95,45.12a3.79,3.79,0,0,1,2.87,1.15,4.4,4.4,0,0,1,1.1,3.16v6.79h-1.16v-7a2.93,2.93,0,0,0-.83-2.14,2.9,2.9,0,0,0-2.15-.84,3.82,3.82,0,0,0-2.59,1A3.52,3.52,0,0,0,278,50v6.2h-1.16V45.39H278v2a4.86,4.86,0,0,1,1.56-1.6A4.21,4.21,0,0,1,281.95,45.12Z"/><path class="c" d="M304,41h1.16V56.23H304V54.06a5,5,0,0,1-1.75,1.79,4.63,4.63,0,0,1-2.43.65,4.58,4.58,0,0,1-3.59-1.61,6.55,6.55,0,0,1,0-8.14,4.57,4.57,0,0,1,3.59-1.62,4.63,4.63,0,0,1,2.43.65A5,5,0,0,1,304,47.57Zm-6.89,6.52a4.81,4.81,0,0,0-1.13,3.3,4.87,4.87,0,0,0,1.11,3.31,3.94,3.94,0,0,0,5.82,0,5.46,5.46,0,0,0,0-6.62A3.68,3.68,0,0,0,300,46.22,3.61,3.61,0,0,0,297.14,47.51Z"/><path class="c" d="M316.61,46.74a5.84,5.84,0,0,1,1.47,4.08,4.89,4.89,0,0,1,0,.54H309a4.39,4.39,0,0,0,1.33,2.93,4.11,4.11,0,0,0,2.95,1.12A3.94,3.94,0,0,0,316.58,54l1.07.46a5.06,5.06,0,0,1-4.39,2.06,5.23,5.23,0,0,1-4-1.59,5.72,5.72,0,0,1-1.49-4.08,5.93,5.93,0,0,1,1.44-4,4.71,4.71,0,0,1,3.72-1.64A4.77,4.77,0,0,1,316.61,46.74Zm-6.43.64a4.61,4.61,0,0,0-1.2,3h7.88a4.72,4.72,0,0,0-1.21-3,3.82,3.82,0,0,0-5.47,0Zm.59-3.35L313.52,41l1.54.68L311.92,44Z"/><path class="c" d="M325.4,45.13a4.88,4.88,0,0,1,4.26,2.38L328.6,48a3.53,3.53,0,0,0-3.2-1.75,3.6,3.6,0,0,0-2.86,1.28,5.5,5.5,0,0,0,0,6.62,3.6,3.6,0,0,0,2.86,1.28,3.53,3.53,0,0,0,3.2-1.75l1.06.47a4.9,4.9,0,0,1-1.8,1.74,5,5,0,0,1-2.47.62,4.79,4.79,0,0,1-3.71-1.61,6.4,6.4,0,0,1,0-8.14A4.78,4.78,0,0,1,325.4,45.13Z"/><path class="c" d="M332.61,41.44a.91.91,0,0,1,.64,1.56.88.88,0,0,1-.64.27.93.93,0,0,1-.67-.27,1,1,0,0,1-.27-.66.9.9,0,0,1,.27-.63A.93.93,0,0,1,332.61,41.44ZM332,45.39h1.16V56.23H332Z"/><path class="c" d="M341.07,45.12a3.58,3.58,0,0,1,2.18.66,3.48,3.48,0,0,1,1.26,1.87,4.28,4.28,0,0,1,3.93-2.52,3.37,3.37,0,0,1,2.69,1.14,4.69,4.69,0,0,1,1,3.18v6.79H351v-7a3.23,3.23,0,0,0-.7-2.16,2.45,2.45,0,0,0-2-.82,3.46,3.46,0,0,0-2.46,1A3.66,3.66,0,0,0,344.73,50v6.2h-1.16v-7a3.26,3.26,0,0,0-.69-2.17,2.44,2.44,0,0,0-2-.82,3.47,3.47,0,0,0-2.47,1A3.66,3.66,0,0,0,337.35,50v6.2h-1.16V45.39h1.16v2A4.15,4.15,0,0,1,341.07,45.12Z"/><path class="c" d="M363.45,46.75a6.39,6.39,0,0,1,0,8.14,5.08,5.08,0,0,1-7.41,0,6.38,6.38,0,0,1,0-8.14,4.79,4.79,0,0,1,3.71-1.62A4.71,4.71,0,0,1,363.45,46.75Zm-6.54.76a5.49,5.49,0,0,0,0,6.61,3.81,3.81,0,0,0,5.7,0,5.54,5.54,0,0,0,0-6.62,3.8,3.8,0,0,0-5.7,0Z"/><path class="c" d="M384.25,45.56v1.1H373.51v-1.1Zm0,5v1.1H373.51v-1.1Z"/><path class="c" d="M402.55,43a9.42,9.42,0,0,1,1.6,5.63,9.47,9.47,0,0,1-1.6,5.64,4.79,4.79,0,0,1-8.1,0,9.45,9.45,0,0,1-1.6-5.65A9.41,9.41,0,0,1,394.46,43a4.79,4.79,0,0,1,8.09,0Zm-7.18.77a9,9,0,0,0-1.2,4.91,9,9,0,0,0,1.19,4.89,3.59,3.59,0,0,0,6.31,0,9,9,0,0,0,1.21-4.9,9,9,0,0,0-1.21-4.92,3.56,3.56,0,0,0-6.29,0Z"/><path class="c" d="M407.47,54.17a1.13,1.13,0,0,1,.9.39,1.52,1.52,0,0,1,.34,1A4.66,4.66,0,0,1,407,59l-.66-.57a4.09,4.09,0,0,0,1.29-2h-.18a1.13,1.13,0,0,1-.82-.32,1.11,1.11,0,0,1-.33-.82,1.08,1.08,0,0,1,.34-.79A1.15,1.15,0,0,1,407.47,54.17Z"/><path class="c" d="M414.26,41h.95V56.23H414V42.42l-2.63,1.36-.5-1Z"/><path class="c" d="M434.54,45.56v1.1H423.8v-1.1Zm0,5v1.1H423.8v-1.1Z"/><path class="c" d="M531.5,41v9.7a4.67,4.67,0,0,0,1.27,3.38,4.93,4.93,0,0,0,6.7,0,4.67,4.67,0,0,0,1.27-3.38V41H542v9.78a5.62,5.62,0,0,1-1.56,4.17,6.65,6.65,0,0,1-8.53,0,5.62,5.62,0,0,1-1.57-4.18V41Z"/><path class="c" d="M549.95,45.12a3.79,3.79,0,0,1,2.87,1.15,4.4,4.4,0,0,1,1.1,3.16v6.79h-1.16v-7a2.93,2.93,0,0,0-.83-2.14,2.89,2.89,0,0,0-2.15-.84,3.82,3.82,0,0,0-2.59,1A3.52,3.52,0,0,0,546,50v6.2h-1.16V45.39H546v2a4.86,4.86,0,0,1,1.56-1.6A4.21,4.21,0,0,1,549.95,45.12Z"/><path class="c" d="M568,45.13a4.89,4.89,0,0,1,4.26,2.38l-1.06.46a3.53,3.53,0,0,0-3.2-1.75,3.6,3.6,0,0,0-2.86,1.28,5.5,5.5,0,0,0,0,6.62A3.6,3.6,0,0,0,568,55.41a3.53,3.53,0,0,0,3.2-1.75l1.06.47a4.9,4.9,0,0,1-1.8,1.74,5,5,0,0,1-2.46.62,4.79,4.79,0,0,1-3.71-1.61,6.4,6.4,0,0,1,0-8.14A4.78,4.78,0,0,1,568,45.13Z"/><path class="c" d="M583.05,46.74a5.85,5.85,0,0,1,1.47,4.08,5.15,5.15,0,0,1,0,.54h-9.08a4.38,4.38,0,0,0,1.33,2.93,4.11,4.11,0,0,0,2.95,1.12A3.94,3.94,0,0,0,583,54l1.07.46a5.06,5.06,0,0,1-4.39,2.06,5.23,5.23,0,0,1-4-1.59,5.72,5.72,0,0,1-1.49-4.08,5.93,5.93,0,0,1,1.44-4,4.71,4.71,0,0,1,3.72-1.64A4.77,4.77,0,0,1,583.05,46.74Zm-6.43.64a4.61,4.61,0,0,0-1.2,3h7.88a4.72,4.72,0,0,0-1.21-3,3.82,3.82,0,0,0-5.47,0Z"/><path class="c" d="M592.21,45.12a3.79,3.79,0,0,1,2.87,1.15,4.4,4.4,0,0,1,1.1,3.16v6.79H595v-7a2.87,2.87,0,0,0-3-3,3.82,3.82,0,0,0-2.59,1A3.52,3.52,0,0,0,588.26,50v6.2H587.1V45.39h1.16v2a4.86,4.86,0,0,1,1.56-1.6A4.21,4.21,0,0,1,592.21,45.12Z"/><path class="c" d="M603.93,55.74a2.89,2.89,0,0,1-1.93.75q-2.32,0-2.32-2.56V46.48h-1.46v-1.1h1.46V41.93h1.16v3.46h2v1.1h-2v7.69q0,1.24,1.19,1.24a2,2,0,0,0,1.26-.5Z"/><path class="c" d="M614.41,46.74a5.84,5.84,0,0,1,1.47,4.08,4.89,4.89,0,0,1,0,.54h-9.08a4.39,4.39,0,0,0,1.33,2.93,4.11,4.11,0,0,0,2.95,1.12A3.94,3.94,0,0,0,614.38,54l1.07.46a5.06,5.06,0,0,1-4.39,2.06,5.23,5.23,0,0,1-4-1.59,5.72,5.72,0,0,1-1.49-4.08,5.93,5.93,0,0,1,1.44-4,4.71,4.71,0,0,1,3.72-1.64A4.77,4.77,0,0,1,614.41,46.74Zm-6.43.64a4.61,4.61,0,0,0-1.2,3h7.88a4.72,4.72,0,0,0-1.21-3,3.82,3.82,0,0,0-5.47,0Zm.59-3.35L611.32,41l1.54.68L609.72,44Z"/><path class="c" d="M622.06,45.12a5.33,5.33,0,0,1,3.62,1.39l-.68.89a4.21,4.21,0,0,0-1.41-.95,4.29,4.29,0,0,0-1.54-.29,3,3,0,0,0-1.86.55,1.62,1.62,0,0,0-.58,1.33,1.46,1.46,0,0,0,.74,1.32,10.19,10.19,0,0,0,2.06.77,8.84,8.84,0,0,1,2.34,1A2.65,2.65,0,0,1,626,53.4a2.74,2.74,0,0,1-1.12,2.27,4.31,4.31,0,0,1-2.78.84,6.06,6.06,0,0,1-2.17-.38,5.36,5.36,0,0,1-1.86-1.2l.71-.91a4.4,4.4,0,0,0,1.55,1.11,4.64,4.64,0,0,0,1.77.34,3.31,3.31,0,0,0,2-.55,1.89,1.89,0,0,0,.74-1.51A1.53,1.53,0,0,0,624,52a9.94,9.94,0,0,0-2-.77,9.77,9.77,0,0,1-2.34-.91,2.59,2.59,0,0,1-1.22-2.2,2.52,2.52,0,0,1,1-2.12A4.15,4.15,0,0,1,622.06,45.12Z"/><path class="c" d="M629.12,41.44a.91.91,0,0,1,.64,1.56.88.88,0,0,1-.64.27.93.93,0,0,1-.67-.27,1,1,0,0,1-.27-.66.9.9,0,0,1,.27-.63A.93.93,0,0,1,629.12,41.44Zm-.58,3.94h1.16V56.23h-1.16Z"/><path class="c" d="M637.58,45.12a3.58,3.58,0,0,1,2.18.66A3.48,3.48,0,0,1,641,47.64,4.28,4.28,0,0,1,645,45.12a3.37,3.37,0,0,1,2.69,1.14,4.69,4.69,0,0,1,1,3.18v6.79h-1.16v-7a3.23,3.23,0,0,0-.7-2.16,2.45,2.45,0,0,0-2-.82,3.46,3.46,0,0,0-2.46,1A3.66,3.66,0,0,0,641.24,50v6.2h-1.16v-7A3.26,3.26,0,0,0,639.4,47a2.44,2.44,0,0,0-2-.82,3.47,3.47,0,0,0-2.47,1A3.66,3.66,0,0,0,633.86,50v6.2H632.7V45.39h1.16v2A4.15,4.15,0,0,1,637.58,45.12Z"/><path class="c" d="M660,46.75a6.39,6.39,0,0,1,0,8.14,5.08,5.08,0,0,1-7.41,0,6.38,6.38,0,0,1,0-8.14,4.79,4.79,0,0,1,3.71-1.62A4.71,4.71,0,0,1,660,46.75Zm-6.54.76a5.49,5.49,0,0,0,0,6.61,3.81,3.81,0,0,0,5.7,0,5.54,5.54,0,0,0,0-6.62,3.8,3.8,0,0,0-5.7,0Z"/><path class="c" d="M680.76,45.56v1.1H670v-1.1Zm0,5v1.1H670v-1.1Z"/><path class="c" d="M699.06,43a9.42,9.42,0,0,1,1.6,5.63,9.47,9.47,0,0,1-1.6,5.64,4.79,4.79,0,0,1-8.1,0,9.45,9.45,0,0,1-1.6-5.65A9.41,9.41,0,0,1,691,43a4.79,4.79,0,0,1,8.09,0Zm-7.18.77a9,9,0,0,0-1.2,4.91,9,9,0,0,0,1.19,4.89,3.59,3.59,0,0,0,6.31,0,9,9,0,0,0,1.21-4.9,9,9,0,0,0-1.21-4.92,3.56,3.56,0,0,0-6.29,0Z"/><path class="c" d="M704,54.17a1.13,1.13,0,0,1,.9.39,1.52,1.52,0,0,1,.34,1A4.66,4.66,0,0,1,703.51,59l-.66-.57a4.09,4.09,0,0,0,1.29-2H704a1.13,1.13,0,0,1-.82-.32,1.11,1.11,0,0,1-.33-.82,1.08,1.08,0,0,1,.34-.79A1.15,1.15,0,0,1,704,54.17Z"/><path class="c" d="M717.06,43a9.42,9.42,0,0,1,1.6,5.63,9.47,9.47,0,0,1-1.6,5.64,4.79,4.79,0,0,1-8.1,0,9.45,9.45,0,0,1-1.6-5.65A9.41,9.41,0,0,1,709,43a4.79,4.79,0,0,1,8.09,0Zm-7.18.77a9,9,0,0,0-1.2,4.91,9,9,0,0,0,1.19,4.89,3.59,3.59,0,0,0,6.31,0,9,9,0,0,0,1.21-4.9,9,9,0,0,0-1.21-4.92,3.56,3.56,0,0,0-6.29,0Z"/><path class="c" d="M724.22,41h.95V56.23h-1.21V42.42l-2.63,1.36-.5-1Z"/><path class="c" d="M744.5,45.56v1.1H733.76v-1.1Zm0,5v1.1H733.76v-1.1Z"/><rect class="d" x="177.89" y="38.12" width="51.28" height="46.88"/><polygon class="e" points="229.17 85 249.15 61.75 249.15 15 229.17 38.12 229.17 85"/><polygon class="f" points="177.89 38.12 229.17 38.12 249.15 15 197.55 15 177.89 38.12"/><polygon class="g" points="444.89 38.12 444.89 85 496.17 85 516.15 61.75 516.15 15 464.55 15 444.89 38.12"/><polyline class="h" points="444.89 38.12 496.17 38.12 516.15 15"/><line class="h" x1="496.17" y1="85" x2="496.17" y2="38.12"/><rect class="d" x="492.17" y="38.12" width="4.15" height="46.88"/><polygon class="e" points="496.32 85 516.32 61.75 516.32 15 496.32 38.12 496.32 85"/><polygon class="f" points="492.17 38.12 496.32 38.12 516.32 15 511.83 15 492.17 38.12"/><polygon class="i" points="754.98 38.1 754.98 84.95 759.13 84.95 779.11 61.72 779.11 15 774.63 15 754.98 38.1"/><polyline class="i" points="754.98 38.1 759.13 38.1 779.11 15"/><line class="i" x1="759.13" y1="84.95" x2="759.13" y2="38.1"/><rect class="d" x="754.89" y="38.15" width="4.15" height="46.85" transform="translate(1513.93 123.15) rotate(180)"/><polygon class="f" points="756.65 36.09 754.89 38.15 759.04 38.15 760.83 36.09 756.65 36.09"/><polygon class="e" points="760.83 36.09 760.83 82.86 759.04 85 759.04 38.15 760.83 36.09"/></svg>