<svg xmlns="http://www.w3.org/2000/svg" width="23.67" height="70.27" viewBox="0 0 23.67 70.27"><defs><style>.a{fill:#fff;}.a,.b{stroke:#f05023;stroke-miterlimit:10;stroke-width:0.29px;stroke-dasharray:1.17;}.b{fill:none;}.c{fill:#fc0;}.d{fill:#e64314;}.e{fill:#bb1e18;}</style></defs><title>placa_diagonal_centesimo2</title><polygon class="a" points="24.37 -2.36 24.37 47.73 3.61 72.64 -0.7 72.64 -0.7 22.41 19.71 -2.36 24.37 -2.36"/><polyline class="b" points="3.61 72.64 3.61 22.41 -0.7 22.41"/><line class="b" x1="24.37" y1="-2.36" x2="3.61" y2="22.41"/><line class="b" x1="1.59" y1="19.83" x2="5.77" y2="19.83"/><line class="b" x1="3.58" y1="17.48" x2="7.76" y2="17.48"/><line class="b" x1="5.67" y1="14.78" x2="9.85" y2="14.78"/><line class="b" x1="7.32" y1="12.61" x2="11.49" y2="12.61"/><line class="b" x1="9.88" y1="9.73" x2="14.06" y2="9.73"/><line class="b" x1="12" y1="7.36" x2="16.18" y2="7.36"/><line class="b" x1="14.1" y1="4.66" x2="18.28" y2="4.66"/><line class="b" x1="15.74" y1="2.49" x2="19.92" y2="2.49"/><line class="b" x1="18.12" y1="-0.1" x2="22.3" y2="-0.1"/><line class="b" x1="5.77" y1="19.83" x2="5.77" y2="70.4"/><line class="b" x1="7.76" y1="17.48" x2="7.76" y2="68.05"/><line class="b" x1="9.85" y1="14.95" x2="9.85" y2="65.52"/><line class="b" x1="11.85" y1="12.61" x2="11.85" y2="63.17"/><line class="b" x1="13.99" y1="10.01" x2="13.99" y2="60.58"/><line class="b" x1="15.98" y1="7.66" x2="15.98" y2="58.23"/><line class="b" x1="18.08" y1="5.13" x2="18.08" y2="55.7"/><line class="b" x1="20.07" y1="2.79" x2="20.07" y2="53.35"/><line class="b" x1="22.3" y1="-0.1" x2="22.3" y2="50.47"/><rect class="c" x="1.31" y="19.59" width="4.48" height="50.54" transform="translate(7.1 89.73) rotate(180)"/><polygon class="d" points="3.21 17.36 1.31 19.59 5.79 19.59 7.72 17.36 3.21 17.36"/><polygon class="e" points="7.72 17.36 7.72 67.83 5.79 70.14 5.79 19.59 7.72 17.36"/><rect class="c" x="-0.77" y="22.09" width="4.48" height="50.54" transform="translate(2.94 94.73) rotate(180)"/><polygon class="d" points="1.13 19.86 -0.77 22.09 3.71 22.09 5.64 19.86 1.13 19.86"/><polygon class="e" points="5.64 19.86 5.64 70.33 3.71 72.64 3.71 22.09 5.64 19.86"/></svg>