<svg xmlns="http://www.w3.org/2000/svg" width="25.05" height="75" viewBox="0 0 25.05 75"><defs><style>.a{fill:#fc0;}.b{fill:#e64314;}.c{fill:#bb1e18;}</style></defs><title>placa_diagonal_centesimo10</title><rect class="a" x="18.67" y="2.22" width="4.46" height="50.38" transform="translate(41.8 54.82) rotate(180)"/><polygon class="b" points="20.56 0 18.67 2.22 23.13 2.22 25.05 0 20.56 0"/><polygon class="c" points="25.05 0 25.05 50.3 23.13 52.6 23.13 2.22 25.05 0"/><rect class="a" x="16.6" y="4.71" width="4.46" height="50.38" transform="translate(37.65 59.8) rotate(180)"/><polygon class="b" points="18.49 2.49 16.6 4.71 21.06 4.71 22.98 2.49 18.49 2.49"/><polygon class="c" points="22.98 2.49 22.98 52.79 21.06 55.09 21.06 4.71 22.98 2.49"/><rect class="a" x="14.52" y="7.2" width="4.46" height="50.38" transform="translate(33.5 64.78) rotate(180)"/><polygon class="b" points="16.41 4.98 14.52 7.2 18.98 7.2 20.9 4.98 16.41 4.98"/><polygon class="c" points="20.9 4.98 20.9 55.27 18.98 57.58 18.98 7.2 20.9 4.98"/><rect class="a" x="12.45" y="9.69" width="4.46" height="50.38" transform="translate(29.35 69.76) rotate(180)"/><polygon class="b" points="14.34 7.47 12.45 9.69 16.91 9.69 18.83 7.47 14.34 7.47"/><polygon class="c" points="18.83 7.47 18.83 57.76 16.91 60.07 16.91 9.69 18.83 7.47"/><rect class="a" x="10.37" y="12.18" width="4.46" height="50.38" transform="translate(25.2 74.73) rotate(180)"/><polygon class="b" points="12.26 9.96 10.37 12.18 14.83 12.18 16.75 9.96 12.26 9.96"/><polygon class="c" points="16.75 9.96 16.75 60.25 14.83 62.56 14.83 12.18 16.75 9.96"/><rect class="a" x="8.3" y="14.67" width="4.46" height="50.38" transform="translate(21.06 79.71) rotate(180)"/><polygon class="b" points="10.19 12.44 8.3 14.67 12.76 14.67 14.68 12.44 10.19 12.44"/><polygon class="c" points="14.68 12.44 14.68 62.74 12.76 65.05 12.76 14.67 14.68 12.44"/><rect class="a" x="6.22" y="17.16" width="4.46" height="50.38" transform="translate(16.91 84.69) rotate(180)"/><polygon class="b" points="8.11 14.93 6.22 17.16 10.68 17.16 12.61 14.93 8.11 14.93"/><polygon class="c" points="12.61 14.93 12.61 65.23 10.68 67.53 10.68 17.16 12.61 14.93"/><rect class="a" x="4.15" y="19.64" width="4.46" height="50.38" transform="translate(12.76 89.67) rotate(180)"/><polygon class="b" points="6.04 17.42 4.15 19.64 8.61 19.64 10.53 17.42 6.04 17.42"/><polygon class="c" points="10.53 17.42 10.53 67.72 8.61 70.02 8.61 19.64 10.53 17.42"/><rect class="a" x="2.07" y="22.13" width="4.46" height="50.38" transform="translate(8.61 94.64) rotate(180)"/><polygon class="b" points="3.96 19.91 2.07 22.13 6.54 22.13 8.46 19.91 3.96 19.91"/><polygon class="c" points="8.46 19.91 8.46 70.21 6.54 72.51 6.54 22.13 8.46 19.91"/><rect class="a" y="24.62" width="4.46" height="50.38" transform="translate(4.46 99.62) rotate(180)"/><polygon class="b" points="1.89 22.4 0 24.62 4.46 24.62 6.38 22.4 1.89 22.4"/><polygon class="c" points="6.38 22.4 6.38 72.7 4.46 75 4.46 24.62 6.38 22.4"/></svg>