<svg xmlns="http://www.w3.org/2000/svg" viewBox="0 0 120.85 85.64"><defs><style>.cls-1{fill:none;}.cls-2{fill:#f6c628;}.cls-3{fill:#b42827;}.cls-4{fill:#e35328;}</style></defs><title>cuadroespacio_1</title><g id="Layer_2" data-name="Layer 2"><g id="Tabla_C" data-name="Tabla C"><rect class="cls-1" width="120.85" height="85.64"/><g id="Bloque1"><rect class="cls-2" x="82.92" y="61.32" width="4.89" height="4.72"/><polygon class="cls-3" points="82.92 66.04 81.93 65.56 81.93 60.84 82.92 61.32 82.92 66.04"/><polygon class="cls-4" points="87.81 61.32 82.92 61.32 81.93 60.84 86.82 60.84 87.81 61.32"/></g><g id="Bloque1-2" data-name="Bloque1"><rect class="cls-2" x="82.92" y="56.32" width="4.89" height="4.72"/><polygon class="cls-3" points="82.92 61.04 81.93 60.56 81.93 55.85 82.92 56.32 82.92 61.04"/><polygon class="cls-4" points="87.81 56.32 82.92 56.32 81.93 55.85 86.82 55.85 87.81 56.32"/></g><g id="Bloque1-3" data-name="Bloque1"><rect class="cls-2" x="82.92" y="51.33" width="4.89" height="4.72"/><polygon class="cls-3" points="82.92 56.05 81.93 55.57 81.93 50.85 82.92 51.33 82.92 56.05"/><polygon class="cls-4" points="87.81 51.33 82.92 51.33 81.93 50.85 86.82 50.85 87.81 51.33"/></g><g id="Bloque1-4" data-name="Bloque1"><rect class="cls-2" x="82.92" y="46.33" width="4.89" height="4.72"/><polygon class="cls-3" points="82.92 51.05 81.93 50.57 81.93 45.85 82.92 46.33 82.92 51.05"/><polygon class="cls-4" points="87.81 46.33 82.92 46.33 81.93 45.85 86.82 45.85 87.81 46.33"/></g><g id="Bloque1-5" data-name="Bloque1"><rect class="cls-2" x="82.92" y="41.33" width="4.89" height="4.72"/><polygon class="cls-3" points="82.92 46.05 81.93 45.57 81.93 40.85 82.92 41.33 82.92 46.05"/><polygon class="cls-4" points="87.81 41.33 82.92 41.33 81.93 40.85 86.82 40.85 87.81 41.33"/></g><g id="Bloque1-6" data-name="Bloque1"><rect class="cls-2" x="82.92" y="36.33" width="4.89" height="4.72"/><polygon class="cls-3" points="82.92 41.05 81.93 40.57 81.93 35.85 82.92 36.33 82.92 41.05"/><polygon class="cls-4" points="87.81 36.33 82.92 36.33 81.93 35.85 86.82 35.85 87.81 36.33"/></g><g id="Bloque1-7" data-name="Bloque1"><rect class="cls-2" x="82.92" y="31.34" width="4.89" height="4.72"/><polygon class="cls-3" points="82.92 36.05 81.93 35.58 81.93 30.86 82.92 31.34 82.92 36.05"/><polygon class="cls-4" points="87.81 31.34 82.92 31.34 81.93 30.86 86.82 30.86 87.81 31.34"/></g><g id="Bloque1-8" data-name="Bloque1"><rect class="cls-2" x="82.92" y="26.34" width="4.89" height="4.72"/><polygon class="cls-3" points="82.92 31.06 81.93 30.58 81.93 25.86 82.92 26.34 82.92 31.06"/><polygon class="cls-4" points="87.81 26.34 82.92 26.34 81.93 25.86 86.82 25.86 87.81 26.34"/></g><g id="Bloque1-9" data-name="Bloque1"><rect class="cls-2" x="82.92" y="21.34" width="4.89" height="4.72"/><polygon class="cls-3" points="82.92 26.06 81.93 25.58 81.93 20.86 82.92 21.34 82.92 26.06"/><polygon class="cls-4" points="87.81 21.34 82.92 21.34 81.93 20.86 86.82 20.86 87.81 21.34"/></g><g id="Bloque1-10" data-name="Bloque1"><rect class="cls-2" x="82.92" y="16.34" width="4.89" height="4.72"/><polygon class="cls-3" points="82.92 21.06 81.93 20.58 81.93 15.86 82.92 16.34 82.92 21.06"/><polygon class="cls-4" points="87.81 16.34 82.92 16.34 81.93 15.86 86.82 15.86 87.81 16.34"/></g><g id="Bloque1-11" data-name="Bloque1"><rect class="cls-2" x="77.49" y="61.32" width="4.89" height="4.72"/><polygon class="cls-3" points="77.49 66.04 76.5 65.56 76.5 60.84 77.49 61.32 77.49 66.04"/><polygon class="cls-4" points="82.38 61.32 77.49 61.32 76.5 60.84 81.39 60.84 82.38 61.32"/></g><g id="Bloque1-12" data-name="Bloque1"><rect class="cls-2" x="77.49" y="56.32" width="4.89" height="4.72"/><polygon class="cls-3" points="77.49 61.04 76.5 60.56 76.5 55.85 77.49 56.32 77.49 61.04"/><polygon class="cls-4" points="82.38 56.32 77.49 56.32 76.5 55.85 81.39 55.85 82.38 56.32"/></g><g id="Bloque1-13" data-name="Bloque1"><rect class="cls-2" x="77.49" y="51.33" width="4.89" height="4.72"/><polygon class="cls-3" points="77.49 56.05 76.5 55.57 76.5 50.85 77.49 51.33 77.49 56.05"/><polygon class="cls-4" points="82.38 51.33 77.49 51.33 76.5 50.85 81.39 50.85 82.38 51.33"/></g><g id="Bloque1-14" data-name="Bloque1"><rect class="cls-2" x="77.49" y="46.33" width="4.89" height="4.72"/><polygon class="cls-3" points="77.49 51.05 76.5 50.57 76.5 45.85 77.49 46.33 77.49 51.05"/><polygon class="cls-4" points="82.38 46.33 77.49 46.33 76.5 45.85 81.39 45.85 82.38 46.33"/></g><g id="Bloque1-15" data-name="Bloque1"><rect class="cls-2" x="77.49" y="41.33" width="4.89" height="4.72"/><polygon class="cls-3" points="77.49 46.05 76.5 45.57 76.5 40.85 77.49 41.33 77.49 46.05"/><polygon class="cls-4" points="82.38 41.33 77.49 41.33 76.5 40.85 81.39 40.85 82.38 41.33"/></g><g id="Bloque1-16" data-name="Bloque1"><rect class="cls-2" x="77.49" y="36.33" width="4.89" height="4.72"/><polygon class="cls-3" points="77.49 41.05 76.5 40.57 76.5 35.85 77.49 36.33 77.49 41.05"/><polygon class="cls-4" points="82.38 36.33 77.49 36.33 76.5 35.85 81.39 35.85 82.38 36.33"/></g><g id="Bloque1-17" data-name="Bloque1"><rect class="cls-2" x="77.49" y="31.34" width="4.89" height="4.72"/><polygon class="cls-3" points="77.49 36.05 76.5 35.58 76.5 30.86 77.49 31.34 77.49 36.05"/><polygon class="cls-4" points="82.38 31.34 77.49 31.34 76.5 30.86 81.39 30.86 82.38 31.34"/></g><g id="Bloque1-18" data-name="Bloque1"><rect class="cls-2" x="77.49" y="26.34" width="4.89" height="4.72"/><polygon class="cls-3" points="77.49 31.06 76.5 30.58 76.5 25.86 77.49 26.34 77.49 31.06"/><polygon class="cls-4" points="82.38 26.34 77.49 26.34 76.5 25.86 81.39 25.86 82.38 26.34"/></g><g id="Bloque1-19" data-name="Bloque1"><rect class="cls-2" x="77.49" y="21.34" width="4.89" height="4.72"/><polygon class="cls-3" points="77.49 26.06 76.5 25.58 76.5 20.86 77.49 21.34 77.49 26.06"/><polygon class="cls-4" points="82.38 21.34 77.49 21.34 76.5 20.86 81.39 20.86 82.38 21.34"/></g><g id="Bloque1-20" data-name="Bloque1"><rect class="cls-2" x="77.49" y="16.34" width="4.89" height="4.72"/><polygon class="cls-3" points="77.49 21.06 76.5 20.58 76.5 15.86 77.49 16.34 77.49 21.06"/><polygon class="cls-4" points="82.38 16.34 77.49 16.34 76.5 15.86 81.39 15.86 82.38 16.34"/></g><g id="Bloque1-21" data-name="Bloque1"><rect class="cls-2" x="72.06" y="61.32" width="4.89" height="4.72"/><polygon class="cls-3" points="72.06 66.04 71.06 65.56 71.06 60.84 72.06 61.32 72.06 66.04"/><polygon class="cls-4" points="76.95 61.32 72.06 61.32 71.06 60.84 75.96 60.84 76.95 61.32"/></g><g id="Bloque1-22" data-name="Bloque1"><rect class="cls-2" x="72.06" y="56.32" width="4.89" height="4.72"/><polygon class="cls-3" points="72.06 61.04 71.06 60.56 71.06 55.85 72.06 56.32 72.06 61.04"/><polygon class="cls-4" points="76.95 56.32 72.06 56.32 71.06 55.85 75.96 55.85 76.95 56.32"/></g><g id="Bloque1-23" data-name="Bloque1"><rect class="cls-2" x="72.06" y="51.33" width="4.89" height="4.72"/><polygon class="cls-3" points="72.06 56.05 71.06 55.57 71.06 50.85 72.06 51.33 72.06 56.05"/><polygon class="cls-4" points="76.95 51.33 72.06 51.33 71.06 50.85 75.96 50.85 76.95 51.33"/></g><g id="Bloque1-24" data-name="Bloque1"><rect class="cls-2" x="72.06" y="46.33" width="4.89" height="4.72"/><polygon class="cls-3" points="72.06 51.05 71.06 50.57 71.06 45.85 72.06 46.33 72.06 51.05"/><polygon class="cls-4" points="76.95 46.33 72.06 46.33 71.06 45.85 75.96 45.85 76.95 46.33"/></g><g id="Bloque1-25" data-name="Bloque1"><rect class="cls-2" x="72.06" y="41.33" width="4.89" height="4.72"/><polygon class="cls-3" points="72.06 46.05 71.06 45.57 71.06 40.85 72.06 41.33 72.06 46.05"/><polygon class="cls-4" points="76.95 41.33 72.06 41.33 71.06 40.85 75.96 40.85 76.95 41.33"/></g><g id="Bloque1-26" data-name="Bloque1"><rect class="cls-2" x="72.06" y="36.33" width="4.89" height="4.72"/><polygon class="cls-3" points="72.06 41.05 71.06 40.57 71.06 35.85 72.06 36.33 72.06 41.05"/><polygon class="cls-4" points="76.95 36.33 72.06 36.33 71.06 35.85 75.96 35.85 76.95 36.33"/></g><g id="Bloque1-27" data-name="Bloque1"><rect class="cls-2" x="72.06" y="31.34" width="4.89" height="4.72"/><polygon class="cls-3" points="72.06 36.05 71.06 35.58 71.06 30.86 72.06 31.34 72.06 36.05"/><polygon class="cls-4" points="76.95 31.34 72.06 31.34 71.06 30.86 75.96 30.86 76.95 31.34"/></g><g id="Bloque1-28" data-name="Bloque1"><rect class="cls-2" x="72.06" y="26.34" width="4.89" height="4.72"/><polygon class="cls-3" points="72.06 31.06 71.06 30.58 71.06 25.86 72.06 26.34 72.06 31.06"/><polygon class="cls-4" points="76.95 26.34 72.06 26.34 71.06 25.86 75.96 25.86 76.95 26.34"/></g><g id="Bloque1-29" data-name="Bloque1"><rect class="cls-2" x="72.06" y="21.34" width="4.89" height="4.72"/><polygon class="cls-3" points="72.06 26.06 71.06 25.58 71.06 20.86 72.06 21.34 72.06 26.06"/><polygon class="cls-4" points="76.95 21.34 72.06 21.34 71.06 20.86 75.96 20.86 76.95 21.34"/></g><g id="Bloque1-30" data-name="Bloque1"><rect class="cls-2" x="72.06" y="16.34" width="4.89" height="4.72"/><polygon class="cls-3" points="72.06 21.06 71.06 20.58 71.06 15.86 72.06 16.34 72.06 21.06"/><polygon class="cls-4" points="76.95 16.34 72.06 16.34 71.06 15.86 75.96 15.86 76.95 16.34"/></g><g id="Bloque1-31" data-name="Bloque1"><rect class="cls-2" x="66.62" y="61.32" width="4.89" height="4.72"/><polygon class="cls-3" points="66.62 66.04 65.63 65.56 65.63 60.84 66.62 61.32 66.62 66.04"/><polygon class="cls-4" points="71.52 61.32 66.62 61.32 65.63 60.84 70.53 60.84 71.52 61.32"/></g><g id="Bloque1-32" data-name="Bloque1"><rect class="cls-2" x="66.62" y="56.32" width="4.89" height="4.72"/><polygon class="cls-3" points="66.62 61.04 65.63 60.56 65.63 55.85 66.62 56.32 66.62 61.04"/><polygon class="cls-4" points="71.52 56.32 66.62 56.32 65.63 55.85 70.53 55.85 71.52 56.32"/></g><g id="Bloque1-33" data-name="Bloque1"><rect class="cls-2" x="66.62" y="51.33" width="4.89" height="4.72"/><polygon class="cls-3" points="66.62 56.05 65.63 55.57 65.63 50.85 66.62 51.33 66.62 56.05"/><polygon class="cls-4" points="71.52 51.33 66.62 51.33 65.63 50.85 70.53 50.85 71.52 51.33"/></g><g id="Bloque1-34" data-name="Bloque1"><rect class="cls-2" x="66.62" y="46.33" width="4.89" height="4.72"/><polygon class="cls-3" points="66.62 51.05 65.63 50.57 65.63 45.85 66.62 46.33 66.62 51.05"/><polygon class="cls-4" points="71.52 46.33 66.62 46.33 65.63 45.85 70.53 45.85 71.52 46.33"/></g><g id="Bloque1-35" data-name="Bloque1"><rect class="cls-2" x="66.62" y="41.33" width="4.89" height="4.72"/><polygon class="cls-3" points="66.62 46.05 65.63 45.57 65.63 40.85 66.62 41.33 66.62 46.05"/><polygon class="cls-4" points="71.52 41.33 66.62 41.33 65.63 40.85 70.53 40.85 71.52 41.33"/></g><g id="Bloque1-36" data-name="Bloque1"><rect class="cls-2" x="66.62" y="36.33" width="4.89" height="4.72"/><polygon class="cls-3" points="66.62 41.05 65.63 40.57 65.63 35.85 66.62 36.33 66.62 41.05"/><polygon class="cls-4" points="71.52 36.33 66.62 36.33 65.63 35.85 70.53 35.85 71.52 36.33"/></g><g id="Bloque1-37" data-name="Bloque1"><rect class="cls-2" x="66.62" y="31.34" width="4.89" height="4.72"/><polygon class="cls-3" points="66.62 36.05 65.63 35.58 65.63 30.86 66.62 31.34 66.62 36.05"/><polygon class="cls-4" points="71.52 31.34 66.62 31.34 65.63 30.86 70.53 30.86 71.52 31.34"/></g><g id="Bloque1-38" data-name="Bloque1"><rect class="cls-2" x="66.62" y="26.34" width="4.89" height="4.72"/><polygon class="cls-3" points="66.62 31.06 65.63 30.58 65.63 25.86 66.62 26.34 66.62 31.06"/><polygon class="cls-4" points="71.52 26.34 66.62 26.34 65.63 25.86 70.53 25.86 71.52 26.34"/></g><g id="Bloque1-39" data-name="Bloque1"><rect class="cls-2" x="66.62" y="21.34" width="4.89" height="4.72"/><polygon class="cls-3" points="66.62 26.06 65.63 25.58 65.63 20.86 66.62 21.34 66.62 26.06"/><polygon class="cls-4" points="71.52 21.34 66.62 21.34 65.63 20.86 70.53 20.86 71.52 21.34"/></g><g id="Bloque1-40" data-name="Bloque1"><rect class="cls-2" x="66.62" y="16.34" width="4.89" height="4.72"/><polygon class="cls-3" points="66.62 21.06 65.63 20.58 65.63 15.86 66.62 16.34 66.62 21.06"/><polygon class="cls-4" points="71.52 16.34 66.62 16.34 65.63 15.86 70.53 15.86 71.52 16.34"/></g><g id="Bloque1-41" data-name="Bloque1"><rect class="cls-2" x="61.19" y="61.32" width="4.89" height="4.72"/><polygon class="cls-3" points="61.19 66.04 60.2 65.56 60.2 60.84 61.19 61.32 61.19 66.04"/><polygon class="cls-4" points="66.08 61.32 61.19 61.32 60.2 60.84 65.09 60.84 66.08 61.32"/></g><g id="Bloque1-42" data-name="Bloque1"><rect class="cls-2" x="61.19" y="56.32" width="4.89" height="4.72"/><polygon class="cls-3" points="61.19 61.04 60.2 60.56 60.2 55.85 61.19 56.32 61.19 61.04"/><polygon class="cls-4" points="66.08 56.32 61.19 56.32 60.2 55.85 65.09 55.85 66.08 56.32"/></g><g id="Bloque1-43" data-name="Bloque1"><rect class="cls-2" x="61.19" y="51.33" width="4.89" height="4.72"/><polygon class="cls-3" points="61.19 56.05 60.2 55.57 60.2 50.85 61.19 51.33 61.19 56.05"/><polygon class="cls-4" points="66.08 51.33 61.19 51.33 60.2 50.85 65.09 50.85 66.08 51.33"/></g><g id="Bloque1-44" data-name="Bloque1"><rect class="cls-2" x="61.19" y="46.33" width="4.89" height="4.72"/><polygon class="cls-3" points="61.19 51.05 60.2 50.57 60.2 45.85 61.19 46.33 61.19 51.05"/><polygon class="cls-4" points="66.08 46.33 61.19 46.33 60.2 45.85 65.09 45.85 66.08 46.33"/></g><g id="Bloque1-45" data-name="Bloque1"><rect class="cls-2" x="61.19" y="41.33" width="4.89" height="4.72"/><polygon class="cls-3" points="61.19 46.05 60.2 45.57 60.2 40.85 61.19 41.33 61.19 46.05"/><polygon class="cls-4" points="66.08 41.33 61.19 41.33 60.2 40.85 65.09 40.85 66.08 41.33"/></g><g id="Bloque1-46" data-name="Bloque1"><rect class="cls-2" x="61.19" y="36.33" width="4.89" height="4.72"/><polygon class="cls-3" points="61.19 41.05 60.2 40.57 60.2 35.85 61.19 36.33 61.19 41.05"/><polygon class="cls-4" points="66.08 36.33 61.19 36.33 60.2 35.85 65.09 35.85 66.08 36.33"/></g><g id="Bloque1-47" data-name="Bloque1"><rect class="cls-2" x="61.19" y="31.34" width="4.89" height="4.72"/><polygon class="cls-3" points="61.19 36.05 60.2 35.58 60.2 30.86 61.19 31.34 61.19 36.05"/><polygon class="cls-4" points="66.08 31.34 61.19 31.34 60.2 30.86 65.09 30.86 66.08 31.34"/></g><g id="Bloque1-48" data-name="Bloque1"><rect class="cls-2" x="61.19" y="26.34" width="4.89" height="4.72"/><polygon class="cls-3" points="61.19 31.06 60.2 30.58 60.2 25.86 61.19 26.34 61.19 31.06"/><polygon class="cls-4" points="66.08 26.34 61.19 26.34 60.2 25.86 65.09 25.86 66.08 26.34"/></g><g id="Bloque1-49" data-name="Bloque1"><rect class="cls-2" x="61.19" y="21.34" width="4.89" height="4.72"/><polygon class="cls-3" points="61.19 26.06 60.2 25.58 60.2 20.86 61.19 21.34 61.19 26.06"/><polygon class="cls-4" points="66.08 21.34 61.19 21.34 60.2 20.86 65.09 20.86 66.08 21.34"/></g><g id="Bloque1-50" data-name="Bloque1"><rect class="cls-2" x="61.19" y="16.34" width="4.89" height="4.72"/><polygon class="cls-3" points="61.19 21.06 60.2 20.58 60.2 15.86 61.19 16.34 61.19 21.06"/><polygon class="cls-4" points="66.08 16.34 61.19 16.34 60.2 15.86 65.09 15.86 66.08 16.34"/></g><g id="Bloque1-51" data-name="Bloque1"><rect class="cls-2" x="55.76" y="61.32" width="4.89" height="4.72"/><polygon class="cls-3" points="55.76 66.04 54.77 65.56 54.77 60.84 55.76 61.32 55.76 66.04"/><polygon class="cls-4" points="60.65 61.32 55.76 61.32 54.77 60.84 59.66 60.84 60.65 61.32"/></g><g id="Bloque1-52" data-name="Bloque1"><rect class="cls-2" x="55.76" y="56.32" width="4.89" height="4.72"/><polygon class="cls-3" points="55.76 61.04 54.77 60.56 54.77 55.85 55.76 56.32 55.76 61.04"/><polygon class="cls-4" points="60.65 56.32 55.76 56.32 54.77 55.85 59.66 55.85 60.65 56.32"/></g><g id="Bloque1-53" data-name="Bloque1"><rect class="cls-2" x="55.76" y="51.33" width="4.89" height="4.72"/><polygon class="cls-3" points="55.76 56.05 54.77 55.57 54.77 50.85 55.76 51.33 55.76 56.05"/><polygon class="cls-4" points="60.65 51.33 55.76 51.33 54.77 50.85 59.66 50.85 60.65 51.33"/></g><g id="Bloque1-54" data-name="Bloque1"><rect class="cls-2" x="55.76" y="46.33" width="4.89" height="4.72"/><polygon class="cls-3" points="55.76 51.05 54.77 50.57 54.77 45.85 55.76 46.33 55.76 51.05"/><polygon class="cls-4" points="60.65 46.33 55.76 46.33 54.77 45.85 59.66 45.85 60.65 46.33"/></g><g id="Bloque1-55" data-name="Bloque1"><rect class="cls-2" x="55.76" y="41.33" width="4.89" height="4.72"/><polygon class="cls-3" points="55.76 46.05 54.77 45.57 54.77 40.85 55.76 41.33 55.76 46.05"/><polygon class="cls-4" points="60.65 41.33 55.76 41.33 54.77 40.85 59.66 40.85 60.65 41.33"/></g><g id="Bloque1-56" data-name="Bloque1"><rect class="cls-2" x="55.76" y="36.33" width="4.89" height="4.72"/><polygon class="cls-3" points="55.76 41.05 54.77 40.57 54.77 35.85 55.76 36.33 55.76 41.05"/><polygon class="cls-4" points="60.65 36.33 55.76 36.33 54.77 35.85 59.66 35.85 60.65 36.33"/></g><g id="Bloque1-57" data-name="Bloque1"><rect class="cls-2" x="55.76" y="31.34" width="4.89" height="4.72"/><polygon class="cls-3" points="55.76 36.05 54.77 35.58 54.77 30.86 55.76 31.34 55.76 36.05"/><polygon class="cls-4" points="60.65 31.34 55.76 31.34 54.77 30.86 59.66 30.86 60.65 31.34"/></g><g id="Bloque1-58" data-name="Bloque1"><rect class="cls-2" x="55.76" y="26.34" width="4.89" height="4.72"/><polygon class="cls-3" points="55.76 31.06 54.77 30.58 54.77 25.86 55.76 26.34 55.76 31.06"/><polygon class="cls-4" points="60.65 26.34 55.76 26.34 54.77 25.86 59.66 25.86 60.65 26.34"/></g><g id="Bloque1-59" data-name="Bloque1"><rect class="cls-2" x="55.76" y="21.34" width="4.89" height="4.72"/><polygon class="cls-3" points="55.76 26.06 54.77 25.58 54.77 20.86 55.76 21.34 55.76 26.06"/><polygon class="cls-4" points="60.65 21.34 55.76 21.34 54.77 20.86 59.66 20.86 60.65 21.34"/></g><g id="Bloque1-60" data-name="Bloque1"><rect class="cls-2" x="55.76" y="16.34" width="4.89" height="4.72"/><polygon class="cls-3" points="55.76 21.06 54.77 20.58 54.77 15.86 55.76 16.34 55.76 21.06"/><polygon class="cls-4" points="60.65 16.34 55.76 16.34 54.77 15.86 59.66 15.86 60.65 16.34"/></g><g id="Bloque1-61" data-name="Bloque1"><rect class="cls-2" x="50.33" y="61.32" width="4.89" height="4.72"/><polygon class="cls-3" points="50.33 66.04 49.33 65.56 49.33 60.84 50.33 61.32 50.33 66.04"/><polygon class="cls-4" points="55.22 61.32 50.33 61.32 49.33 60.84 54.23 60.84 55.22 61.32"/></g><g id="Bloque1-62" data-name="Bloque1"><rect class="cls-2" x="50.33" y="56.32" width="4.89" height="4.72"/><polygon class="cls-3" points="50.33 61.04 49.33 60.56 49.33 55.85 50.33 56.32 50.33 61.04"/><polygon class="cls-4" points="55.22 56.32 50.33 56.32 49.33 55.85 54.23 55.85 55.22 56.32"/></g><g id="Bloque1-63" data-name="Bloque1"><rect class="cls-2" x="50.33" y="51.33" width="4.89" height="4.72"/><polygon class="cls-3" points="50.33 56.05 49.33 55.57 49.33 50.85 50.33 51.33 50.33 56.05"/><polygon class="cls-4" points="55.22 51.33 50.33 51.33 49.33 50.85 54.23 50.85 55.22 51.33"/></g><g id="Bloque1-64" data-name="Bloque1"><rect class="cls-2" x="50.33" y="46.33" width="4.89" height="4.72"/><polygon class="cls-3" points="50.33 51.05 49.33 50.57 49.33 45.85 50.33 46.33 50.33 51.05"/><polygon class="cls-4" points="55.22 46.33 50.33 46.33 49.33 45.85 54.23 45.85 55.22 46.33"/></g><g id="Bloque1-65" data-name="Bloque1"><rect class="cls-2" x="50.33" y="41.33" width="4.89" height="4.72"/><polygon class="cls-3" points="50.33 46.05 49.33 45.57 49.33 40.85 50.33 41.33 50.33 46.05"/><polygon class="cls-4" points="55.22 41.33 50.33 41.33 49.33 40.85 54.23 40.85 55.22 41.33"/></g><g id="Bloque1-66" data-name="Bloque1"><rect class="cls-2" x="50.33" y="36.33" width="4.89" height="4.72"/><polygon class="cls-3" points="50.33 41.05 49.33 40.57 49.33 35.85 50.33 36.33 50.33 41.05"/><polygon class="cls-4" points="55.22 36.33 50.33 36.33 49.33 35.85 54.23 35.85 55.22 36.33"/></g><g id="Bloque1-67" data-name="Bloque1"><rect class="cls-2" x="50.33" y="31.34" width="4.89" height="4.72"/><polygon class="cls-3" points="50.33 36.05 49.33 35.58 49.33 30.86 50.33 31.34 50.33 36.05"/><polygon class="cls-4" points="55.22 31.34 50.33 31.34 49.33 30.86 54.23 30.86 55.22 31.34"/></g><g id="Bloque1-68" data-name="Bloque1"><rect class="cls-2" x="50.33" y="26.34" width="4.89" height="4.72"/><polygon class="cls-3" points="50.33 31.06 49.33 30.58 49.33 25.86 50.33 26.34 50.33 31.06"/><polygon class="cls-4" points="55.22 26.34 50.33 26.34 49.33 25.86 54.23 25.86 55.22 26.34"/></g><g id="Bloque1-69" data-name="Bloque1"><rect class="cls-2" x="50.33" y="21.34" width="4.89" height="4.72"/><polygon class="cls-3" points="50.33 26.06 49.33 25.58 49.33 20.86 50.33 21.34 50.33 26.06"/><polygon class="cls-4" points="55.22 21.34 50.33 21.34 49.33 20.86 54.23 20.86 55.22 21.34"/></g><g id="Bloque1-70" data-name="Bloque1"><rect class="cls-2" x="50.33" y="16.34" width="4.89" height="4.72"/><polygon class="cls-3" points="50.33 21.06 49.33 20.58 49.33 15.86 50.33 16.34 50.33 21.06"/><polygon class="cls-4" points="55.22 16.34 50.33 16.34 49.33 15.86 54.23 15.86 55.22 16.34"/></g><g id="Bloque1-71" data-name="Bloque1"><rect class="cls-2" x="44.89" y="61.32" width="4.89" height="4.72"/><polygon class="cls-3" points="44.89 66.04 43.9 65.56 43.9 60.84 44.89 61.32 44.89 66.04"/><polygon class="cls-4" points="49.79 61.32 44.89 61.32 43.9 60.84 48.8 60.84 49.79 61.32"/></g><g id="Bloque1-72" data-name="Bloque1"><rect class="cls-2" x="44.89" y="56.32" width="4.89" height="4.72"/><polygon class="cls-3" points="44.89 61.04 43.9 60.56 43.9 55.85 44.89 56.32 44.89 61.04"/><polygon class="cls-4" points="49.79 56.32 44.89 56.32 43.9 55.85 48.8 55.85 49.79 56.32"/></g><g id="Bloque1-73" data-name="Bloque1"><rect class="cls-2" x="44.89" y="51.33" width="4.89" height="4.72"/><polygon class="cls-3" points="44.89 56.05 43.9 55.57 43.9 50.85 44.89 51.33 44.89 56.05"/><polygon class="cls-4" points="49.79 51.33 44.89 51.33 43.9 50.85 48.8 50.85 49.79 51.33"/></g><g id="Bloque1-74" data-name="Bloque1"><rect class="cls-2" x="44.89" y="46.33" width="4.89" height="4.72"/><polygon class="cls-3" points="44.89 51.05 43.9 50.57 43.9 45.85 44.89 46.33 44.89 51.05"/><polygon class="cls-4" points="49.79 46.33 44.89 46.33 43.9 45.85 48.8 45.85 49.79 46.33"/></g><g id="Bloque1-75" data-name="Bloque1"><rect class="cls-2" x="44.89" y="41.33" width="4.89" height="4.72"/><polygon class="cls-3" points="44.89 46.05 43.9 45.57 43.9 40.85 44.89 41.33 44.89 46.05"/><polygon class="cls-4" points="49.79 41.33 44.89 41.33 43.9 40.85 48.8 40.85 49.79 41.33"/></g><g id="Bloque1-76" data-name="Bloque1"><rect class="cls-2" x="44.89" y="36.33" width="4.89" height="4.72"/><polygon class="cls-3" points="44.89 41.05 43.9 40.57 43.9 35.85 44.89 36.33 44.89 41.05"/><polygon class="cls-4" points="49.79 36.33 44.89 36.33 43.9 35.85 48.8 35.85 49.79 36.33"/></g><g id="Bloque1-77" data-name="Bloque1"><rect class="cls-2" x="44.89" y="31.34" width="4.89" height="4.72"/><polygon class="cls-3" points="44.89 36.05 43.9 35.58 43.9 30.86 44.89 31.34 44.89 36.05"/><polygon class="cls-4" points="49.79 31.34 44.89 31.34 43.9 30.86 48.8 30.86 49.79 31.34"/></g><g id="Bloque1-78" data-name="Bloque1"><rect class="cls-2" x="44.89" y="26.34" width="4.89" height="4.72"/><polygon class="cls-3" points="44.89 31.06 43.9 30.58 43.9 25.86 44.89 26.34 44.89 31.06"/><polygon class="cls-4" points="49.79 26.34 44.89 26.34 43.9 25.86 48.8 25.86 49.79 26.34"/></g><g id="Bloque1-79" data-name="Bloque1"><rect class="cls-2" x="44.89" y="21.34" width="4.89" height="4.72"/><polygon class="cls-3" points="44.89 26.06 43.9 25.58 43.9 20.86 44.89 21.34 44.89 26.06"/><polygon class="cls-4" points="49.79 21.34 44.89 21.34 43.9 20.86 48.8 20.86 49.79 21.34"/></g><g id="Bloque1-80" data-name="Bloque1"><rect class="cls-2" x="44.89" y="16.34" width="4.89" height="4.72"/><polygon class="cls-3" points="44.89 21.06 43.9 20.58 43.9 15.86 44.89 16.34 44.89 21.06"/><polygon class="cls-4" points="49.79 16.34 44.89 16.34 43.9 15.86 48.8 15.86 49.79 16.34"/></g><g id="Bloque1-81" data-name="Bloque1"><rect class="cls-2" x="39.46" y="61.32" width="4.89" height="4.72"/><polygon class="cls-3" points="39.46 66.04 38.47 65.56 38.47 60.84 39.46 61.32 39.46 66.04"/><polygon class="cls-4" points="44.35 61.32 39.46 61.32 38.47 60.84 43.36 60.84 44.35 61.32"/></g><g id="Bloque1-82" data-name="Bloque1"><rect class="cls-2" x="39.46" y="56.32" width="4.89" height="4.72"/><polygon class="cls-3" points="39.46 61.04 38.47 60.56 38.47 55.85 39.46 56.32 39.46 61.04"/><polygon class="cls-4" points="44.35 56.32 39.46 56.32 38.47 55.85 43.36 55.85 44.35 56.32"/></g><g id="Bloque1-83" data-name="Bloque1"><rect class="cls-2" x="39.46" y="51.33" width="4.89" height="4.72"/><polygon class="cls-3" points="39.46 56.05 38.47 55.57 38.47 50.85 39.46 51.33 39.46 56.05"/><polygon class="cls-4" points="44.35 51.33 39.46 51.33 38.47 50.85 43.36 50.85 44.35 51.33"/></g><g id="Bloque1-84" data-name="Bloque1"><rect class="cls-2" x="39.46" y="46.33" width="4.89" height="4.72"/><polygon class="cls-3" points="39.46 51.05 38.47 50.57 38.47 45.85 39.46 46.33 39.46 51.05"/><polygon class="cls-4" points="44.35 46.33 39.46 46.33 38.47 45.85 43.36 45.85 44.35 46.33"/></g><g id="Bloque1-85" data-name="Bloque1"><rect class="cls-2" x="39.46" y="41.33" width="4.89" height="4.72"/><polygon class="cls-3" points="39.46 46.05 38.47 45.57 38.47 40.85 39.46 41.33 39.46 46.05"/><polygon class="cls-4" points="44.35 41.33 39.46 41.33 38.47 40.85 43.36 40.85 44.35 41.33"/></g><g id="Bloque1-86" data-name="Bloque1"><rect class="cls-2" x="39.46" y="36.33" width="4.89" height="4.72"/><polygon class="cls-3" points="39.46 41.05 38.47 40.57 38.47 35.85 39.46 36.33 39.46 41.05"/><polygon class="cls-4" points="44.35 36.33 39.46 36.33 38.47 35.85 43.36 35.85 44.35 36.33"/></g><g id="Bloque1-87" data-name="Bloque1"><rect class="cls-2" x="39.46" y="31.34" width="4.89" height="4.72"/><polygon class="cls-3" points="39.46 36.05 38.47 35.58 38.47 30.86 39.46 31.34 39.46 36.05"/><polygon class="cls-4" points="44.35 31.34 39.46 31.34 38.47 30.86 43.36 30.86 44.35 31.34"/></g><g id="Bloque1-88" data-name="Bloque1"><rect class="cls-2" x="39.46" y="26.34" width="4.89" height="4.72"/><polygon class="cls-3" points="39.46 31.06 38.47 30.58 38.47 25.86 39.46 26.34 39.46 31.06"/><polygon class="cls-4" points="44.35 26.34 39.46 26.34 38.47 25.86 43.36 25.86 44.35 26.34"/></g><g id="Bloque1-89" data-name="Bloque1"><rect class="cls-2" x="39.46" y="21.34" width="4.89" height="4.72"/><polygon class="cls-3" points="39.46 26.06 38.47 25.58 38.47 20.86 39.46 21.34 39.46 26.06"/><polygon class="cls-4" points="44.35 21.34 39.46 21.34 38.47 20.86 43.36 20.86 44.35 21.34"/></g><g id="Bloque1-90" data-name="Bloque1"><rect class="cls-2" x="39.46" y="16.34" width="4.89" height="4.72"/><polygon class="cls-3" points="39.46 21.06 38.47 20.58 38.47 15.86 39.46 16.34 39.46 21.06"/><polygon class="cls-4" points="44.35 16.34 39.46 16.34 38.47 15.86 43.36 15.86 44.35 16.34"/></g><g id="Bloque1-91" data-name="Bloque1"><rect class="cls-2" x="34.03" y="61.32" width="4.89" height="4.72"/><polygon class="cls-3" points="34.03 66.04 33.04 65.56 33.04 60.84 34.03 61.32 34.03 66.04"/><polygon class="cls-4" points="38.92 61.32 34.03 61.32 33.04 60.84 37.93 60.84 38.92 61.32"/></g><g id="Bloque1-92" data-name="Bloque1"><rect class="cls-2" x="34.03" y="56.32" width="4.89" height="4.72"/><polygon class="cls-3" points="34.03 61.04 33.04 60.56 33.04 55.85 34.03 56.32 34.03 61.04"/><polygon class="cls-4" points="38.92 56.32 34.03 56.32 33.04 55.85 37.93 55.85 38.92 56.32"/></g><g id="Bloque1-93" data-name="Bloque1"><rect class="cls-2" x="34.03" y="51.33" width="4.89" height="4.72"/><polygon class="cls-3" points="34.03 56.05 33.04 55.57 33.04 50.85 34.03 51.33 34.03 56.05"/><polygon class="cls-4" points="38.92 51.33 34.03 51.33 33.04 50.85 37.93 50.85 38.92 51.33"/></g><g id="Bloque1-94" data-name="Bloque1"><rect class="cls-2" x="34.03" y="46.33" width="4.89" height="4.72"/><polygon class="cls-3" points="34.03 51.05 33.04 50.57 33.04 45.85 34.03 46.33 34.03 51.05"/><polygon class="cls-4" points="38.92 46.33 34.03 46.33 33.04 45.85 37.93 45.85 38.92 46.33"/></g><g id="Bloque1-95" data-name="Bloque1"><rect class="cls-2" x="34.03" y="41.33" width="4.89" height="4.72"/><polygon class="cls-3" points="34.03 46.05 33.04 45.57 33.04 40.85 34.03 41.33 34.03 46.05"/><polygon class="cls-4" points="38.92 41.33 34.03 41.33 33.04 40.85 37.93 40.85 38.92 41.33"/></g><g id="Bloque1-96" data-name="Bloque1"><rect class="cls-2" x="34.03" y="36.33" width="4.89" height="4.72"/><polygon class="cls-3" points="34.03 41.05 33.04 40.57 33.04 35.85 34.03 36.33 34.03 41.05"/><polygon class="cls-4" points="38.92 36.33 34.03 36.33 33.04 35.85 37.93 35.85 38.92 36.33"/></g><g id="Bloque1-97" data-name="Bloque1"><rect class="cls-2" x="34.03" y="31.34" width="4.89" height="4.72"/><polygon class="cls-3" points="34.03 36.05 33.04 35.58 33.04 30.86 34.03 31.34 34.03 36.05"/><polygon class="cls-4" points="38.92 31.34 34.03 31.34 33.04 30.86 37.93 30.86 38.92 31.34"/></g><g id="Bloque1-98" data-name="Bloque1"><rect class="cls-2" x="34.03" y="26.34" width="4.89" height="4.72"/><polygon class="cls-3" points="34.03 31.06 33.04 30.58 33.04 25.86 34.03 26.34 34.03 31.06"/><polygon class="cls-4" points="38.92 26.34 34.03 26.34 33.04 25.86 37.93 25.86 38.92 26.34"/></g><g id="Bloque1-99" data-name="Bloque1"><rect class="cls-2" x="34.03" y="21.34" width="4.89" height="4.72"/><polygon class="cls-3" points="34.03 26.06 33.04 25.58 33.04 20.86 34.03 21.34 34.03 26.06"/><polygon class="cls-4" points="38.92 21.34 34.03 21.34 33.04 20.86 37.93 20.86 38.92 21.34"/></g><g id="Bloque1-100" data-name="Bloque1"><rect class="cls-2" x="34.03" y="16.34" width="4.89" height="4.72"/><polygon class="cls-3" points="34.03 21.06 33.04 20.58 33.04 15.86 34.03 16.34 34.03 21.06"/><polygon class="cls-4" points="38.92 16.34 34.03 16.34 33.04 15.86 37.93 15.86 38.92 16.34"/></g></g></g></svg>