<svg xmlns="http://www.w3.org/2000/svg" viewBox="0 0 120.91 85.61"><defs><style>.cls-1{fill:#e9c53d;}.cls-2{fill:#9a2b2a;}.cls-3{fill:#c6532e;}</style></defs><title>panel3</title><g id="Capa_2" data-name="Capa 2"><g id="Tabla_C" data-name="Tabla C"><g id="Bloque1"><rect class="cls-1" x="49.87" y="45.45" width="4.89" height="4.72"/><polygon class="cls-2" points="49.87 50.16 48.88 49.69 48.88 44.97 49.87 45.45 49.87 50.16"/><polygon class="cls-3" points="54.76 45.45 49.87 45.45 48.88 44.97 53.77 44.97 54.76 45.45"/></g><g id="Bloque1-2" data-name="Bloque1"><rect class="cls-1" x="49.87" y="40.45" width="4.89" height="4.72"/><polygon class="cls-2" points="49.87 45.17 48.88 44.69 48.88 39.97 49.87 40.45 49.87 45.17"/><polygon class="cls-3" points="54.76 40.45 49.87 40.45 48.88 39.97 53.77 39.97 54.76 40.45"/></g><g id="Bloque1-3" data-name="Bloque1"><rect class="cls-1" x="49.87" y="35.45" width="4.89" height="4.72"/><polygon class="cls-2" points="49.87 40.17 48.88 39.69 48.88 34.98 49.87 35.45 49.87 40.17"/><polygon class="cls-3" points="54.76 35.45 49.87 35.45 48.88 34.98 53.77 34.98 54.76 35.45"/></g><g id="Bloque1-4" data-name="Bloque1"><rect class="cls-1" x="49.87" y="30.46" width="4.89" height="4.72"/><polygon class="cls-2" points="49.87 35.17 48.88 34.7 48.88 29.98 49.87 30.46 49.87 35.17"/><polygon class="cls-3" points="54.76 30.46 49.87 30.46 48.88 29.98 53.77 29.98 54.76 30.46"/></g><g id="Bloque1-5" data-name="Bloque1"><rect class="cls-1" x="49.87" y="25.46" width="4.89" height="4.72"/><polygon class="cls-2" points="49.87 30.18 48.88 29.7 48.88 24.98 49.87 25.46 49.87 30.18"/><polygon class="cls-3" points="54.76 25.46 49.87 25.46 48.88 24.98 53.77 24.98 54.76 25.46"/></g><g id="Bloque1-6" data-name="Bloque1"><rect class="cls-1" x="49.87" y="20.46" width="4.89" height="4.72"/><polygon class="cls-2" points="49.87 25.18 48.88 24.7 48.88 19.99 49.87 20.46 49.87 25.18"/><polygon class="cls-3" points="54.76 20.46 49.87 20.46 48.88 19.99 53.77 19.99 54.76 20.46"/></g><g id="Bloque1-7" data-name="Bloque1"><rect class="cls-1" x="49.87" y="15.47" width="4.89" height="4.72"/><polygon class="cls-2" points="49.87 20.18 48.88 19.71 48.88 14.99 49.87 15.47 49.87 20.18"/><polygon class="cls-3" points="54.76 15.47 49.87 15.47 48.88 14.99 53.77 14.99 54.76 15.47"/></g><g id="Bloque1-8" data-name="Bloque1"><rect class="cls-1" x="49.87" y="10.47" width="4.89" height="4.72"/><polygon class="cls-2" points="49.87 15.19 48.88 14.71 48.88 9.99 49.87 10.47 49.87 15.19"/><polygon class="cls-3" points="54.76 10.47 49.87 10.47 48.88 9.99 53.77 9.99 54.76 10.47"/></g><g id="Bloque1-9" data-name="Bloque1"><rect class="cls-1" x="49.87" y="5.47" width="4.89" height="4.72"/><polygon class="cls-2" points="49.87 10.19 48.88 9.71 48.88 5 49.87 5.47 49.87 10.19"/><polygon class="cls-3" points="54.76 5.47 49.87 5.47 48.88 5 53.77 5 54.76 5.47"/></g><g id="Bloque1-10" data-name="Bloque1"><rect class="cls-1" x="49.87" y="0.48" width="4.89" height="4.72"/><polygon class="cls-2" points="49.87 5.2 48.88 4.72 48.88 0 49.87 0.48 49.87 5.2"/><polygon class="cls-3" points="54.76 0.48 49.87 0.48 48.88 0 53.77 0 54.76 0.48"/></g><g id="Bloque1-11" data-name="Bloque1"><rect class="cls-1" x="44.44" y="45.45" width="4.89" height="4.72"/><polygon class="cls-2" points="44.44 50.16 43.45 49.69 43.45 44.97 44.44 45.45 44.44 50.16"/><polygon class="cls-3" points="49.33 45.45 44.44 45.45 43.45 44.97 48.34 44.97 49.33 45.45"/></g><g id="Bloque1-12" data-name="Bloque1"><rect class="cls-1" x="44.44" y="40.45" width="4.89" height="4.72"/><polygon class="cls-2" points="44.44 45.17 43.45 44.69 43.45 39.97 44.44 40.45 44.44 45.17"/><polygon class="cls-3" points="49.33 40.45 44.44 40.45 43.45 39.97 48.34 39.97 49.33 40.45"/></g><g id="Bloque1-13" data-name="Bloque1"><rect class="cls-1" x="44.44" y="35.45" width="4.89" height="4.72"/><polygon class="cls-2" points="44.44 40.17 43.45 39.69 43.45 34.98 44.44 35.45 44.44 40.17"/><polygon class="cls-3" points="49.33 35.45 44.44 35.45 43.45 34.98 48.34 34.98 49.33 35.45"/></g><g id="Bloque1-14" data-name="Bloque1"><rect class="cls-1" x="44.44" y="30.46" width="4.89" height="4.72"/><polygon class="cls-2" points="44.44 35.17 43.45 34.7 43.45 29.98 44.44 30.46 44.44 35.17"/><polygon class="cls-3" points="49.33 30.46 44.44 30.46 43.45 29.98 48.34 29.98 49.33 30.46"/></g><g id="Bloque1-15" data-name="Bloque1"><rect class="cls-1" x="44.44" y="25.46" width="4.89" height="4.72"/><polygon class="cls-2" points="44.44 30.18 43.45 29.7 43.45 24.98 44.44 25.46 44.44 30.18"/><polygon class="cls-3" points="49.33 25.46 44.44 25.46 43.45 24.98 48.34 24.98 49.33 25.46"/></g><g id="Bloque1-16" data-name="Bloque1"><rect class="cls-1" x="44.44" y="20.46" width="4.89" height="4.72"/><polygon class="cls-2" points="44.44 25.18 43.45 24.7 43.45 19.99 44.44 20.46 44.44 25.18"/><polygon class="cls-3" points="49.33 20.46 44.44 20.46 43.45 19.99 48.34 19.99 49.33 20.46"/></g><g id="Bloque1-17" data-name="Bloque1"><rect class="cls-1" x="44.44" y="15.47" width="4.89" height="4.72"/><polygon class="cls-2" points="44.44 20.18 43.45 19.71 43.45 14.99 44.44 15.47 44.44 20.18"/><polygon class="cls-3" points="49.33 15.47 44.44 15.47 43.45 14.99 48.34 14.99 49.33 15.47"/></g><g id="Bloque1-18" data-name="Bloque1"><rect class="cls-1" x="44.44" y="10.47" width="4.89" height="4.72"/><polygon class="cls-2" points="44.44 15.19 43.45 14.71 43.45 9.99 44.44 10.47 44.44 15.19"/><polygon class="cls-3" points="49.33 10.47 44.44 10.47 43.45 9.99 48.34 9.99 49.33 10.47"/></g><g id="Bloque1-19" data-name="Bloque1"><rect class="cls-1" x="44.44" y="5.47" width="4.89" height="4.72"/><polygon class="cls-2" points="44.44 10.19 43.45 9.71 43.45 5 44.44 5.47 44.44 10.19"/><polygon class="cls-3" points="49.33 5.47 44.44 5.47 43.45 5 48.34 5 49.33 5.47"/></g><g id="Bloque1-20" data-name="Bloque1"><rect class="cls-1" x="44.44" y="0.48" width="4.89" height="4.72"/><polygon class="cls-2" points="44.44 5.2 43.45 4.72 43.45 0 44.44 0.48 44.44 5.2"/><polygon class="cls-3" points="49.33 0.48 44.44 0.48 43.45 0 48.34 0 49.33 0.48"/></g><g id="Bloque1-21" data-name="Bloque1"><rect class="cls-1" x="39.01" y="45.45" width="4.89" height="4.72"/><polygon class="cls-2" points="39.01 50.16 38.02 49.69 38.02 44.97 39.01 45.45 39.01 50.16"/><polygon class="cls-3" points="43.9 45.45 39.01 45.45 38.02 44.97 42.91 44.97 43.9 45.45"/></g><g id="Bloque1-22" data-name="Bloque1"><rect class="cls-1" x="39.01" y="40.45" width="4.89" height="4.72"/><polygon class="cls-2" points="39.01 45.17 38.02 44.69 38.02 39.97 39.01 40.45 39.01 45.17"/><polygon class="cls-3" points="43.9 40.45 39.01 40.45 38.02 39.97 42.91 39.97 43.9 40.45"/></g><g id="Bloque1-23" data-name="Bloque1"><rect class="cls-1" x="39.01" y="35.45" width="4.89" height="4.72"/><polygon class="cls-2" points="39.01 40.17 38.02 39.69 38.02 34.98 39.01 35.45 39.01 40.17"/><polygon class="cls-3" points="43.9 35.45 39.01 35.45 38.02 34.98 42.91 34.98 43.9 35.45"/></g><g id="Bloque1-24" data-name="Bloque1"><rect class="cls-1" x="39.01" y="30.46" width="4.89" height="4.72"/><polygon class="cls-2" points="39.01 35.17 38.02 34.7 38.02 29.98 39.01 30.46 39.01 35.17"/><polygon class="cls-3" points="43.9 30.46 39.01 30.46 38.02 29.98 42.91 29.98 43.9 30.46"/></g><g id="Bloque1-25" data-name="Bloque1"><rect class="cls-1" x="39.01" y="25.46" width="4.89" height="4.72"/><polygon class="cls-2" points="39.01 30.18 38.02 29.7 38.02 24.98 39.01 25.46 39.01 30.18"/><polygon class="cls-3" points="43.9 25.46 39.01 25.46 38.02 24.98 42.91 24.98 43.9 25.46"/></g><g id="Bloque1-26" data-name="Bloque1"><rect class="cls-1" x="39.01" y="20.46" width="4.89" height="4.72"/><polygon class="cls-2" points="39.01 25.18 38.02 24.7 38.02 19.99 39.01 20.46 39.01 25.18"/><polygon class="cls-3" points="43.9 20.46 39.01 20.46 38.02 19.99 42.91 19.99 43.9 20.46"/></g><g id="Bloque1-27" data-name="Bloque1"><rect class="cls-1" x="39.01" y="15.47" width="4.89" height="4.72"/><polygon class="cls-2" points="39.01 20.18 38.02 19.71 38.02 14.99 39.01 15.47 39.01 20.18"/><polygon class="cls-3" points="43.9 15.47 39.01 15.47 38.02 14.99 42.91 14.99 43.9 15.47"/></g><g id="Bloque1-28" data-name="Bloque1"><rect class="cls-1" x="39.01" y="10.47" width="4.89" height="4.72"/><polygon class="cls-2" points="39.01 15.19 38.02 14.71 38.02 9.99 39.01 10.47 39.01 15.19"/><polygon class="cls-3" points="43.9 10.47 39.01 10.47 38.02 9.99 42.91 9.99 43.9 10.47"/></g><g id="Bloque1-29" data-name="Bloque1"><rect class="cls-1" x="39.01" y="5.47" width="4.89" height="4.72"/><polygon class="cls-2" points="39.01 10.19 38.02 9.71 38.02 5 39.01 5.47 39.01 10.19"/><polygon class="cls-3" points="43.9 5.47 39.01 5.47 38.02 5 42.91 5 43.9 5.47"/></g><g id="Bloque1-30" data-name="Bloque1"><rect class="cls-1" x="39.01" y="0.48" width="4.89" height="4.72"/><polygon class="cls-2" points="39.01 5.2 38.02 4.72 38.02 0 39.01 0.48 39.01 5.2"/><polygon class="cls-3" points="43.9 0.48 39.01 0.48 38.02 0 42.91 0 43.9 0.48"/></g><g id="Bloque1-31" data-name="Bloque1"><rect class="cls-1" x="33.58" y="45.45" width="4.89" height="4.72"/><polygon class="cls-2" points="33.58 50.16 32.59 49.69 32.59 44.97 33.58 45.45 33.58 50.16"/><polygon class="cls-3" points="38.47 45.45 33.58 45.45 32.59 44.97 37.48 44.97 38.47 45.45"/></g><g id="Bloque1-32" data-name="Bloque1"><rect class="cls-1" x="33.58" y="40.45" width="4.89" height="4.72"/><polygon class="cls-2" points="33.58 45.17 32.59 44.69 32.59 39.97 33.58 40.45 33.58 45.17"/><polygon class="cls-3" points="38.47 40.45 33.58 40.45 32.59 39.97 37.48 39.97 38.47 40.45"/></g><g id="Bloque1-33" data-name="Bloque1"><rect class="cls-1" x="33.58" y="35.45" width="4.89" height="4.72"/><polygon class="cls-2" points="33.58 40.17 32.59 39.69 32.59 34.98 33.58 35.45 33.58 40.17"/><polygon class="cls-3" points="38.47 35.45 33.58 35.45 32.59 34.98 37.48 34.98 38.47 35.45"/></g><g id="Bloque1-34" data-name="Bloque1"><rect class="cls-1" x="33.58" y="30.46" width="4.89" height="4.72"/><polygon class="cls-2" points="33.58 35.17 32.59 34.7 32.59 29.98 33.58 30.46 33.58 35.17"/><polygon class="cls-3" points="38.47 30.46 33.58 30.46 32.59 29.98 37.48 29.98 38.47 30.46"/></g><g id="Bloque1-35" data-name="Bloque1"><rect class="cls-1" x="33.58" y="25.46" width="4.89" height="4.72"/><polygon class="cls-2" points="33.58 30.18 32.59 29.7 32.59 24.98 33.58 25.46 33.58 30.18"/><polygon class="cls-3" points="38.47 25.46 33.58 25.46 32.59 24.98 37.48 24.98 38.47 25.46"/></g><g id="Bloque1-36" data-name="Bloque1"><rect class="cls-1" x="33.58" y="20.46" width="4.89" height="4.72"/><polygon class="cls-2" points="33.58 25.18 32.59 24.7 32.59 19.99 33.58 20.46 33.58 25.18"/><polygon class="cls-3" points="38.47 20.46 33.58 20.46 32.59 19.99 37.48 19.99 38.47 20.46"/></g><g id="Bloque1-37" data-name="Bloque1"><rect class="cls-1" x="33.58" y="15.47" width="4.89" height="4.72"/><polygon class="cls-2" points="33.58 20.18 32.59 19.71 32.59 14.99 33.58 15.47 33.58 20.18"/><polygon class="cls-3" points="38.47 15.47 33.58 15.47 32.59 14.99 37.48 14.99 38.47 15.47"/></g><g id="Bloque1-38" data-name="Bloque1"><rect class="cls-1" x="33.58" y="10.47" width="4.89" height="4.72"/><polygon class="cls-2" points="33.58 15.19 32.59 14.71 32.59 9.99 33.58 10.47 33.58 15.19"/><polygon class="cls-3" points="38.47 10.47 33.58 10.47 32.59 9.99 37.48 9.99 38.47 10.47"/></g><g id="Bloque1-39" data-name="Bloque1"><rect class="cls-1" x="33.58" y="5.47" width="4.89" height="4.72"/><polygon class="cls-2" points="33.58 10.19 32.59 9.71 32.59 5 33.58 5.47 33.58 10.19"/><polygon class="cls-3" points="38.47 5.47 33.58 5.47 32.59 5 37.48 5 38.47 5.47"/></g><g id="Bloque1-40" data-name="Bloque1"><rect class="cls-1" x="33.58" y="0.48" width="4.89" height="4.72"/><polygon class="cls-2" points="33.58 5.2 32.59 4.72 32.59 0 33.58 0.48 33.58 5.2"/><polygon class="cls-3" points="38.47 0.48 33.58 0.48 32.59 0 37.48 0 38.47 0.48"/></g><g id="Bloque1-41" data-name="Bloque1"><rect class="cls-1" x="28.15" y="45.45" width="4.89" height="4.72"/><polygon class="cls-2" points="28.15 50.16 27.16 49.69 27.16 44.97 28.15 45.45 28.15 50.16"/><polygon class="cls-3" points="33.04 45.45 28.15 45.45 27.16 44.97 32.05 44.97 33.04 45.45"/></g><g id="Bloque1-42" data-name="Bloque1"><rect class="cls-1" x="28.15" y="40.45" width="4.89" height="4.72"/><polygon class="cls-2" points="28.15 45.17 27.16 44.69 27.16 39.97 28.15 40.45 28.15 45.17"/><polygon class="cls-3" points="33.04 40.45 28.15 40.45 27.16 39.97 32.05 39.97 33.04 40.45"/></g><g id="Bloque1-43" data-name="Bloque1"><rect class="cls-1" x="28.15" y="35.45" width="4.89" height="4.72"/><polygon class="cls-2" points="28.15 40.17 27.16 39.69 27.16 34.98 28.15 35.45 28.15 40.17"/><polygon class="cls-3" points="33.04 35.45 28.15 35.45 27.16 34.98 32.05 34.98 33.04 35.45"/></g><g id="Bloque1-44" data-name="Bloque1"><rect class="cls-1" x="28.15" y="30.46" width="4.89" height="4.72"/><polygon class="cls-2" points="28.15 35.17 27.16 34.7 27.16 29.98 28.15 30.46 28.15 35.17"/><polygon class="cls-3" points="33.04 30.46 28.15 30.46 27.16 29.98 32.05 29.98 33.04 30.46"/></g><g id="Bloque1-45" data-name="Bloque1"><rect class="cls-1" x="28.15" y="25.46" width="4.89" height="4.72"/><polygon class="cls-2" points="28.15 30.18 27.16 29.7 27.16 24.98 28.15 25.46 28.15 30.18"/><polygon class="cls-3" points="33.04 25.46 28.15 25.46 27.16 24.98 32.05 24.98 33.04 25.46"/></g><g id="Bloque1-46" data-name="Bloque1"><rect class="cls-1" x="28.15" y="20.46" width="4.89" height="4.72"/><polygon class="cls-2" points="28.15 25.18 27.16 24.7 27.16 19.99 28.15 20.46 28.15 25.18"/><polygon class="cls-3" points="33.04 20.46 28.15 20.46 27.16 19.99 32.05 19.99 33.04 20.46"/></g><g id="Bloque1-47" data-name="Bloque1"><rect class="cls-1" x="28.15" y="15.47" width="4.89" height="4.72"/><polygon class="cls-2" points="28.15 20.18 27.16 19.71 27.16 14.99 28.15 15.47 28.15 20.18"/><polygon class="cls-3" points="33.04 15.47 28.15 15.47 27.16 14.99 32.05 14.99 33.04 15.47"/></g><g id="Bloque1-48" data-name="Bloque1"><rect class="cls-1" x="28.15" y="10.47" width="4.89" height="4.72"/><polygon class="cls-2" points="28.15 15.19 27.16 14.71 27.16 9.99 28.15 10.47 28.15 15.19"/><polygon class="cls-3" points="33.04 10.47 28.15 10.47 27.16 9.99 32.05 9.99 33.04 10.47"/></g><g id="Bloque1-49" data-name="Bloque1"><rect class="cls-1" x="28.15" y="5.47" width="4.89" height="4.72"/><polygon class="cls-2" points="28.15 10.19 27.16 9.71 27.16 5 28.15 5.47 28.15 10.19"/><polygon class="cls-3" points="33.04 5.47 28.15 5.47 27.16 5 32.05 5 33.04 5.47"/></g><g id="Bloque1-50" data-name="Bloque1"><rect class="cls-1" x="28.15" y="0.48" width="4.89" height="4.72"/><polygon class="cls-2" points="28.15 5.2 27.16 4.72 27.16 0 28.15 0.48 28.15 5.2"/><polygon class="cls-3" points="33.04 0.48 28.15 0.48 27.16 0 32.05 0 33.04 0.48"/></g><g id="Bloque1-51" data-name="Bloque1"><rect class="cls-1" x="22.72" y="45.45" width="4.89" height="4.72"/><polygon class="cls-2" points="22.72 50.16 21.72 49.69 21.72 44.97 22.72 45.45 22.72 50.16"/><polygon class="cls-3" points="27.61 45.45 22.72 45.45 21.72 44.97 26.62 44.97 27.61 45.45"/></g><g id="Bloque1-52" data-name="Bloque1"><rect class="cls-1" x="22.72" y="40.45" width="4.89" height="4.72"/><polygon class="cls-2" points="22.72 45.17 21.72 44.69 21.72 39.97 22.72 40.45 22.72 45.17"/><polygon class="cls-3" points="27.61 40.45 22.72 40.45 21.72 39.97 26.62 39.97 27.61 40.45"/></g><g id="Bloque1-53" data-name="Bloque1"><rect class="cls-1" x="22.72" y="35.45" width="4.89" height="4.72"/><polygon class="cls-2" points="22.72 40.17 21.72 39.69 21.72 34.98 22.72 35.45 22.72 40.17"/><polygon class="cls-3" points="27.61 35.45 22.72 35.45 21.72 34.98 26.62 34.98 27.61 35.45"/></g><g id="Bloque1-54" data-name="Bloque1"><rect class="cls-1" x="22.72" y="30.46" width="4.89" height="4.72"/><polygon class="cls-2" points="22.72 35.17 21.72 34.7 21.72 29.98 22.72 30.46 22.72 35.17"/><polygon class="cls-3" points="27.61 30.46 22.72 30.46 21.72 29.98 26.62 29.98 27.61 30.46"/></g><g id="Bloque1-55" data-name="Bloque1"><rect class="cls-1" x="22.72" y="25.46" width="4.89" height="4.72"/><polygon class="cls-2" points="22.72 30.18 21.72 29.7 21.72 24.98 22.72 25.46 22.72 30.18"/><polygon class="cls-3" points="27.61 25.46 22.72 25.46 21.72 24.98 26.62 24.98 27.61 25.46"/></g><g id="Bloque1-56" data-name="Bloque1"><rect class="cls-1" x="22.72" y="20.46" width="4.89" height="4.72"/><polygon class="cls-2" points="22.72 25.18 21.72 24.7 21.72 19.99 22.72 20.46 22.72 25.18"/><polygon class="cls-3" points="27.61 20.46 22.72 20.46 21.72 19.99 26.62 19.99 27.61 20.46"/></g><g id="Bloque1-57" data-name="Bloque1"><rect class="cls-1" x="22.72" y="15.47" width="4.89" height="4.72"/><polygon class="cls-2" points="22.72 20.18 21.72 19.71 21.72 14.99 22.72 15.47 22.72 20.18"/><polygon class="cls-3" points="27.61 15.47 22.72 15.47 21.72 14.99 26.62 14.99 27.61 15.47"/></g><g id="Bloque1-58" data-name="Bloque1"><rect class="cls-1" x="22.72" y="10.47" width="4.89" height="4.72"/><polygon class="cls-2" points="22.72 15.19 21.72 14.71 21.72 9.99 22.72 10.47 22.72 15.19"/><polygon class="cls-3" points="27.61 10.47 22.72 10.47 21.72 9.99 26.62 9.99 27.61 10.47"/></g><g id="Bloque1-59" data-name="Bloque1"><rect class="cls-1" x="22.72" y="5.47" width="4.89" height="4.72"/><polygon class="cls-2" points="22.72 10.19 21.72 9.71 21.72 5 22.72 5.47 22.72 10.19"/><polygon class="cls-3" points="27.61 5.47 22.72 5.47 21.72 5 26.62 5 27.61 5.47"/></g><g id="Bloque1-60" data-name="Bloque1"><rect class="cls-1" x="22.72" y="0.48" width="4.89" height="4.72"/><polygon class="cls-2" points="22.72 5.2 21.72 4.72 21.72 0 22.72 0.48 22.72 5.2"/><polygon class="cls-3" points="27.61 0.48 22.72 0.48 21.72 0 26.62 0 27.61 0.48"/></g><g id="Bloque1-61" data-name="Bloque1"><rect class="cls-1" x="17.28" y="45.45" width="4.89" height="4.72"/><polygon class="cls-2" points="17.29 50.16 16.29 49.69 16.29 44.97 17.29 45.45 17.29 50.16"/><polygon class="cls-3" points="22.18 45.45 17.29 45.45 16.29 44.97 21.19 44.97 22.18 45.45"/></g><g id="Bloque1-62" data-name="Bloque1"><rect class="cls-1" x="17.28" y="40.45" width="4.89" height="4.72"/><polygon class="cls-2" points="17.29 45.17 16.29 44.69 16.29 39.97 17.29 40.45 17.29 45.17"/><polygon class="cls-3" points="22.18 40.45 17.29 40.45 16.29 39.97 21.19 39.97 22.18 40.45"/></g><g id="Bloque1-63" data-name="Bloque1"><rect class="cls-1" x="17.28" y="35.45" width="4.89" height="4.72"/><polygon class="cls-2" points="17.29 40.17 16.29 39.69 16.29 34.98 17.29 35.45 17.29 40.17"/><polygon class="cls-3" points="22.18 35.45 17.29 35.45 16.29 34.98 21.19 34.98 22.18 35.45"/></g><g id="Bloque1-64" data-name="Bloque1"><rect class="cls-1" x="17.28" y="30.46" width="4.89" height="4.72"/><polygon class="cls-2" points="17.29 35.17 16.29 34.7 16.29 29.98 17.29 30.46 17.29 35.17"/><polygon class="cls-3" points="22.18 30.46 17.29 30.46 16.29 29.98 21.19 29.98 22.18 30.46"/></g><g id="Bloque1-65" data-name="Bloque1"><rect class="cls-1" x="17.28" y="25.46" width="4.89" height="4.72"/><polygon class="cls-2" points="17.29 30.18 16.29 29.7 16.29 24.98 17.29 25.46 17.29 30.18"/><polygon class="cls-3" points="22.18 25.46 17.29 25.46 16.29 24.98 21.19 24.98 22.18 25.46"/></g><g id="Bloque1-66" data-name="Bloque1"><rect class="cls-1" x="17.28" y="20.46" width="4.89" height="4.72"/><polygon class="cls-2" points="17.29 25.18 16.29 24.7 16.29 19.99 17.29 20.46 17.29 25.18"/><polygon class="cls-3" points="22.18 20.46 17.29 20.46 16.29 19.99 21.19 19.99 22.18 20.46"/></g><g id="Bloque1-67" data-name="Bloque1"><rect class="cls-1" x="17.28" y="15.47" width="4.89" height="4.72"/><polygon class="cls-2" points="17.29 20.18 16.29 19.71 16.29 14.99 17.29 15.47 17.29 20.18"/><polygon class="cls-3" points="22.18 15.47 17.29 15.47 16.29 14.99 21.19 14.99 22.18 15.47"/></g><g id="Bloque1-68" data-name="Bloque1"><rect class="cls-1" x="17.28" y="10.47" width="4.89" height="4.72"/><polygon class="cls-2" points="17.29 15.19 16.29 14.71 16.29 9.99 17.29 10.47 17.29 15.19"/><polygon class="cls-3" points="22.18 10.47 17.29 10.47 16.29 9.99 21.19 9.99 22.18 10.47"/></g><g id="Bloque1-69" data-name="Bloque1"><rect class="cls-1" x="17.28" y="5.47" width="4.89" height="4.72"/><polygon class="cls-2" points="17.29 10.19 16.29 9.71 16.29 5 17.29 5.47 17.29 10.19"/><polygon class="cls-3" points="22.18 5.47 17.29 5.47 16.29 5 21.19 5 22.18 5.47"/></g><g id="Bloque1-70" data-name="Bloque1"><rect class="cls-1" x="17.28" y="0.48" width="4.89" height="4.72"/><polygon class="cls-2" points="17.29 5.2 16.29 4.72 16.29 0 17.29 0.48 17.29 5.2"/><polygon class="cls-3" points="22.18 0.48 17.29 0.48 16.29 0 21.19 0 22.18 0.48"/></g><g id="Bloque1-71" data-name="Bloque1"><rect class="cls-1" x="11.85" y="45.45" width="4.89" height="4.72"/><polygon class="cls-2" points="11.85 50.16 10.86 49.69 10.86 44.97 11.85 45.45 11.85 50.16"/><polygon class="cls-3" points="16.75 45.45 11.85 45.45 10.86 44.97 15.76 44.97 16.75 45.45"/></g><g id="Bloque1-72" data-name="Bloque1"><rect class="cls-1" x="11.85" y="40.45" width="4.89" height="4.72"/><polygon class="cls-2" points="11.85 45.17 10.86 44.69 10.86 39.97 11.85 40.45 11.85 45.17"/><polygon class="cls-3" points="16.75 40.45 11.85 40.45 10.86 39.97 15.76 39.97 16.75 40.45"/></g><g id="Bloque1-73" data-name="Bloque1"><rect class="cls-1" x="11.85" y="35.45" width="4.89" height="4.72"/><polygon class="cls-2" points="11.85 40.17 10.86 39.69 10.86 34.98 11.85 35.45 11.85 40.17"/><polygon class="cls-3" points="16.75 35.45 11.85 35.45 10.86 34.98 15.76 34.98 16.75 35.45"/></g><g id="Bloque1-74" data-name="Bloque1"><rect class="cls-1" x="11.85" y="30.46" width="4.89" height="4.72"/><polygon class="cls-2" points="11.85 35.17 10.86 34.7 10.86 29.98 11.85 30.46 11.85 35.17"/><polygon class="cls-3" points="16.75 30.46 11.85 30.46 10.86 29.98 15.76 29.98 16.75 30.46"/></g><g id="Bloque1-75" data-name="Bloque1"><rect class="cls-1" x="11.85" y="25.46" width="4.89" height="4.72"/><polygon class="cls-2" points="11.85 30.18 10.86 29.7 10.86 24.98 11.85 25.46 11.85 30.18"/><polygon class="cls-3" points="16.75 25.46 11.85 25.46 10.86 24.98 15.76 24.98 16.75 25.46"/></g><g id="Bloque1-76" data-name="Bloque1"><rect class="cls-1" x="11.85" y="20.46" width="4.89" height="4.72"/><polygon class="cls-2" points="11.85 25.18 10.86 24.7 10.86 19.99 11.85 20.46 11.85 25.18"/><polygon class="cls-3" points="16.75 20.46 11.85 20.46 10.86 19.99 15.76 19.99 16.75 20.46"/></g><g id="Bloque1-77" data-name="Bloque1"><rect class="cls-1" x="11.85" y="15.47" width="4.89" height="4.72"/><polygon class="cls-2" points="11.85 20.18 10.86 19.71 10.86 14.99 11.85 15.47 11.85 20.18"/><polygon class="cls-3" points="16.75 15.47 11.85 15.47 10.86 14.99 15.76 14.99 16.75 15.47"/></g><g id="Bloque1-78" data-name="Bloque1"><rect class="cls-1" x="11.85" y="10.47" width="4.89" height="4.72"/><polygon class="cls-2" points="11.85 15.19 10.86 14.71 10.86 9.99 11.85 10.47 11.85 15.19"/><polygon class="cls-3" points="16.75 10.47 11.85 10.47 10.86 9.99 15.76 9.99 16.75 10.47"/></g><g id="Bloque1-79" data-name="Bloque1"><rect class="cls-1" x="11.85" y="5.47" width="4.89" height="4.72"/><polygon class="cls-2" points="11.85 10.19 10.86 9.71 10.86 5 11.85 5.47 11.85 10.19"/><polygon class="cls-3" points="16.75 5.47 11.85 5.47 10.86 5 15.76 5 16.75 5.47"/></g><g id="Bloque1-80" data-name="Bloque1"><rect class="cls-1" x="11.85" y="0.48" width="4.89" height="4.72"/><polygon class="cls-2" points="11.85 5.2 10.86 4.72 10.86 0 11.85 0.48 11.85 5.2"/><polygon class="cls-3" points="16.75 0.48 11.85 0.48 10.86 0 15.76 0 16.75 0.48"/></g><g id="Bloque1-81" data-name="Bloque1"><rect class="cls-1" x="6.42" y="45.45" width="4.89" height="4.72"/><polygon class="cls-2" points="6.42 50.16 5.43 49.69 5.43 44.97 6.42 45.45 6.42 50.16"/><polygon class="cls-3" points="11.31 45.45 6.42 45.45 5.43 44.97 10.32 44.97 11.31 45.45"/></g><g id="Bloque1-82" data-name="Bloque1"><rect class="cls-1" x="6.42" y="40.45" width="4.89" height="4.72"/><polygon class="cls-2" points="6.42 45.17 5.43 44.69 5.43 39.97 6.42 40.45 6.42 45.17"/><polygon class="cls-3" points="11.31 40.45 6.42 40.45 5.43 39.97 10.32 39.97 11.31 40.45"/></g><g id="Bloque1-83" data-name="Bloque1"><rect class="cls-1" x="6.42" y="35.45" width="4.89" height="4.72"/><polygon class="cls-2" points="6.42 40.17 5.43 39.69 5.43 34.98 6.42 35.45 6.42 40.17"/><polygon class="cls-3" points="11.31 35.45 6.42 35.45 5.43 34.98 10.32 34.98 11.31 35.45"/></g><g id="Bloque1-84" data-name="Bloque1"><rect class="cls-1" x="6.42" y="30.46" width="4.89" height="4.72"/><polygon class="cls-2" points="6.42 35.17 5.43 34.7 5.43 29.98 6.42 30.46 6.42 35.17"/><polygon class="cls-3" points="11.31 30.46 6.42 30.46 5.43 29.98 10.32 29.98 11.31 30.46"/></g><g id="Bloque1-85" data-name="Bloque1"><rect class="cls-1" x="6.42" y="25.46" width="4.89" height="4.72"/><polygon class="cls-2" points="6.42 30.18 5.43 29.7 5.43 24.98 6.42 25.46 6.42 30.18"/><polygon class="cls-3" points="11.31 25.46 6.42 25.46 5.43 24.98 10.32 24.98 11.31 25.46"/></g><g id="Bloque1-86" data-name="Bloque1"><rect class="cls-1" x="6.42" y="20.46" width="4.89" height="4.72"/><polygon class="cls-2" points="6.42 25.18 5.43 24.7 5.43 19.99 6.42 20.46 6.42 25.18"/><polygon class="cls-3" points="11.31 20.46 6.42 20.46 5.43 19.99 10.32 19.99 11.31 20.46"/></g><g id="Bloque1-87" data-name="Bloque1"><rect class="cls-1" x="6.42" y="15.47" width="4.89" height="4.72"/><polygon class="cls-2" points="6.42 20.18 5.43 19.71 5.43 14.99 6.42 15.47 6.42 20.18"/><polygon class="cls-3" points="11.31 15.47 6.42 15.47 5.43 14.99 10.32 14.99 11.31 15.47"/></g><g id="Bloque1-88" data-name="Bloque1"><rect class="cls-1" x="6.42" y="10.47" width="4.89" height="4.72"/><polygon class="cls-2" points="6.42 15.19 5.43 14.71 5.43 9.99 6.42 10.47 6.42 15.19"/><polygon class="cls-3" points="11.31 10.47 6.42 10.47 5.43 9.99 10.32 9.99 11.31 10.47"/></g><g id="Bloque1-89" data-name="Bloque1"><rect class="cls-1" x="6.42" y="5.47" width="4.89" height="4.72"/><polygon class="cls-2" points="6.42 10.19 5.43 9.71 5.43 5 6.42 5.47 6.42 10.19"/><polygon class="cls-3" points="11.31 5.47 6.42 5.47 5.43 5 10.32 5 11.31 5.47"/></g><g id="Bloque1-90" data-name="Bloque1"><rect class="cls-1" x="6.42" y="0.48" width="4.89" height="4.72"/><polygon class="cls-2" points="6.42 5.2 5.43 4.72 5.43 0 6.42 0.48 6.42 5.2"/><polygon class="cls-3" points="11.31 0.48 6.42 0.48 5.43 0 10.32 0 11.31 0.48"/></g><g id="Bloque1-91" data-name="Bloque1"><rect class="cls-1" x="0.99" y="45.45" width="4.89" height="4.72"/><polygon class="cls-2" points="0.99 50.16 0 49.69 0 44.97 0.99 45.45 0.99 50.16"/><polygon class="cls-3" points="5.88 45.45 0.99 45.45 0 44.97 4.89 44.97 5.88 45.45"/></g><g id="Bloque1-92" data-name="Bloque1"><rect class="cls-1" x="0.99" y="40.45" width="4.89" height="4.72"/><polygon class="cls-2" points="0.99 45.17 0 44.69 0 39.97 0.99 40.45 0.99 45.17"/><polygon class="cls-3" points="5.88 40.45 0.99 40.45 0 39.97 4.89 39.97 5.88 40.45"/></g><g id="Bloque1-93" data-name="Bloque1"><rect class="cls-1" x="0.99" y="35.45" width="4.89" height="4.72"/><polygon class="cls-2" points="0.99 40.17 0 39.69 0 34.98 0.99 35.45 0.99 40.17"/><polygon class="cls-3" points="5.88 35.45 0.99 35.45 0 34.98 4.89 34.98 5.88 35.45"/></g><g id="Bloque1-94" data-name="Bloque1"><rect class="cls-1" x="0.99" y="30.46" width="4.89" height="4.72"/><polygon class="cls-2" points="0.99 35.17 0 34.7 0 29.98 0.99 30.46 0.99 35.17"/><polygon class="cls-3" points="5.88 30.46 0.99 30.46 0 29.98 4.89 29.98 5.88 30.46"/></g><g id="Bloque1-95" data-name="Bloque1"><rect class="cls-1" x="0.99" y="25.46" width="4.89" height="4.72"/><polygon class="cls-2" points="0.99 30.18 0 29.7 0 24.98 0.99 25.46 0.99 30.18"/><polygon class="cls-3" points="5.88 25.46 0.99 25.46 0 24.98 4.89 24.98 5.88 25.46"/></g><g id="Bloque1-96" data-name="Bloque1"><rect class="cls-1" x="0.99" y="20.46" width="4.89" height="4.72"/><polygon class="cls-2" points="0.99 25.18 0 24.7 0 19.99 0.99 20.46 0.99 25.18"/><polygon class="cls-3" points="5.88 20.46 0.99 20.46 0 19.99 4.89 19.99 5.88 20.46"/></g><g id="Bloque1-97" data-name="Bloque1"><rect class="cls-1" x="0.99" y="15.47" width="4.89" height="4.72"/><polygon class="cls-2" points="0.99 20.18 0 19.71 0 14.99 0.99 15.47 0.99 20.18"/><polygon class="cls-3" points="5.88 15.47 0.99 15.47 0 14.99 4.89 14.99 5.88 15.47"/></g><g id="Bloque1-98" data-name="Bloque1"><rect class="cls-1" x="0.99" y="10.47" width="4.89" height="4.72"/><polygon class="cls-2" points="0.99 15.19 0 14.71 0 9.99 0.99 10.47 0.99 15.19"/><polygon class="cls-3" points="5.88 10.47 0.99 10.47 0 9.99 4.89 9.99 5.88 10.47"/></g><g id="Bloque1-99" data-name="Bloque1"><rect class="cls-1" x="0.99" y="5.47" width="4.89" height="4.72"/><polygon class="cls-2" points="0.99 10.19 0 9.71 0 5 0.99 5.47 0.99 10.19"/><polygon class="cls-3" points="5.88 5.47 0.99 5.47 0 5 4.89 5 5.88 5.47"/></g><g id="Bloque1-100" data-name="Bloque1"><rect class="cls-1" x="0.99" y="0.48" width="4.89" height="4.72"/><polygon class="cls-2" points="0.99 5.2 0 4.72 0 0 0.99 0.48 0.99 5.2"/><polygon class="cls-3" points="5.88 0.48 0.99 0.48 0 0 4.89 0 5.88 0.48"/></g><g id="Bloque1-101" data-name="Bloque1"><rect class="cls-1" x="83.42" y="65.6" width="4.89" height="4.72"/><polygon class="cls-2" points="83.42 70.31 82.43 69.84 82.43 65.12 83.42 65.6 83.42 70.31"/><polygon class="cls-3" points="88.31 65.6 83.42 65.6 82.43 65.12 87.32 65.12 88.31 65.6"/></g><g id="Bloque1-102" data-name="Bloque1"><rect class="cls-1" x="83.42" y="60.6" width="4.89" height="4.72"/><polygon class="cls-2" points="83.42 65.32 82.43 64.84 82.43 60.12 83.42 60.6 83.42 65.32"/><polygon class="cls-3" points="88.31 60.6 83.42 60.6 82.43 60.12 87.32 60.12 88.31 60.6"/></g><g id="Bloque1-103" data-name="Bloque1"><rect class="cls-1" x="83.42" y="55.6" width="4.89" height="4.72"/><polygon class="cls-2" points="83.42 60.32 82.43 59.84 82.43 55.13 83.42 55.6 83.42 60.32"/><polygon class="cls-3" points="88.31 55.6 83.42 55.6 82.43 55.13 87.32 55.13 88.31 55.6"/></g><g id="Bloque1-104" data-name="Bloque1"><rect class="cls-1" x="83.42" y="50.61" width="4.89" height="4.72"/><polygon class="cls-2" points="83.42 55.32 82.43 54.85 82.43 50.13 83.42 50.61 83.42 55.32"/><polygon class="cls-3" points="88.31 50.61 83.42 50.61 82.43 50.13 87.32 50.13 88.31 50.61"/></g><g id="Bloque1-105" data-name="Bloque1"><rect class="cls-1" x="83.42" y="45.61" width="4.89" height="4.72"/><polygon class="cls-2" points="83.42 50.33 82.43 49.85 82.43 45.13 83.42 45.61 83.42 50.33"/><polygon class="cls-3" points="88.31 45.61 83.42 45.61 82.43 45.13 87.32 45.13 88.31 45.61"/></g><g id="Bloque1-106" data-name="Bloque1"><rect class="cls-1" x="83.42" y="40.61" width="4.89" height="4.72"/><polygon class="cls-2" points="83.42 45.33 82.43 44.85 82.43 40.14 83.42 40.61 83.42 45.33"/><polygon class="cls-3" points="88.31 40.61 83.42 40.61 82.43 40.14 87.32 40.14 88.31 40.61"/></g><g id="Bloque1-107" data-name="Bloque1"><rect class="cls-1" x="83.42" y="35.62" width="4.89" height="4.72"/><polygon class="cls-2" points="83.42 40.34 82.43 39.86 82.43 35.14 83.42 35.62 83.42 40.34"/><polygon class="cls-3" points="88.31 35.62 83.42 35.62 82.43 35.14 87.32 35.14 88.31 35.62"/></g><g id="Bloque1-108" data-name="Bloque1"><rect class="cls-1" x="83.42" y="30.62" width="4.89" height="4.72"/><polygon class="cls-2" points="83.42 35.34 82.43 34.86 82.43 30.14 83.42 30.62 83.42 35.34"/><polygon class="cls-3" points="88.31 30.62 83.42 30.62 82.43 30.14 87.32 30.14 88.31 30.62"/></g><g id="Bloque1-109" data-name="Bloque1"><rect class="cls-1" x="83.42" y="25.62" width="4.89" height="4.72"/><polygon class="cls-2" points="83.42 30.34 82.43 29.86 82.43 25.15 83.42 25.62 83.42 30.34"/><polygon class="cls-3" points="88.31 25.62 83.42 25.62 82.43 25.15 87.32 25.15 88.31 25.62"/></g><g id="Bloque1-110" data-name="Bloque1"><rect class="cls-1" x="83.42" y="20.63" width="4.89" height="4.72"/><polygon class="cls-2" points="83.42 25.34 82.43 24.87 82.43 20.15 83.42 20.63 83.42 25.34"/><polygon class="cls-3" points="88.31 20.63 83.42 20.63 82.43 20.15 87.32 20.15 88.31 20.63"/></g><g id="Bloque1-111" data-name="Bloque1"><rect class="cls-1" x="77.99" y="65.6" width="4.89" height="4.72"/><polygon class="cls-2" points="77.99 70.31 77 69.84 77 65.12 77.99 65.6 77.99 70.31"/><polygon class="cls-3" points="82.88 65.6 77.99 65.6 77 65.12 81.89 65.12 82.88 65.6"/></g><g id="Bloque1-112" data-name="Bloque1"><rect class="cls-1" x="77.99" y="60.6" width="4.89" height="4.72"/><polygon class="cls-2" points="77.99 65.32 77 64.84 77 60.12 77.99 60.6 77.99 65.32"/><polygon class="cls-3" points="82.88 60.6 77.99 60.6 77 60.12 81.89 60.12 82.88 60.6"/></g><g id="Bloque1-113" data-name="Bloque1"><rect class="cls-1" x="77.99" y="55.6" width="4.89" height="4.72"/><polygon class="cls-2" points="77.99 60.32 77 59.84 77 55.13 77.99 55.6 77.99 60.32"/><polygon class="cls-3" points="82.88 55.6 77.99 55.6 77 55.13 81.89 55.13 82.88 55.6"/></g><g id="Bloque1-114" data-name="Bloque1"><rect class="cls-1" x="77.99" y="50.61" width="4.89" height="4.72"/><polygon class="cls-2" points="77.99 55.32 77 54.85 77 50.13 77.99 50.61 77.99 55.32"/><polygon class="cls-3" points="82.88 50.61 77.99 50.61 77 50.13 81.89 50.13 82.88 50.61"/></g><g id="Bloque1-115" data-name="Bloque1"><rect class="cls-1" x="77.99" y="45.61" width="4.89" height="4.72"/><polygon class="cls-2" points="77.99 50.33 77 49.85 77 45.13 77.99 45.61 77.99 50.33"/><polygon class="cls-3" points="82.88 45.61 77.99 45.61 77 45.13 81.89 45.13 82.88 45.61"/></g><g id="Bloque1-116" data-name="Bloque1"><rect class="cls-1" x="77.99" y="40.61" width="4.89" height="4.72"/><polygon class="cls-2" points="77.99 45.33 77 44.85 77 40.14 77.99 40.61 77.99 45.33"/><polygon class="cls-3" points="82.88 40.61 77.99 40.61 77 40.14 81.89 40.14 82.88 40.61"/></g><g id="Bloque1-117" data-name="Bloque1"><rect class="cls-1" x="77.99" y="35.62" width="4.89" height="4.72"/><polygon class="cls-2" points="77.99 40.34 77 39.86 77 35.14 77.99 35.62 77.99 40.34"/><polygon class="cls-3" points="82.88 35.62 77.99 35.62 77 35.14 81.89 35.14 82.88 35.62"/></g><g id="Bloque1-118" data-name="Bloque1"><rect class="cls-1" x="77.99" y="30.62" width="4.89" height="4.72"/><polygon class="cls-2" points="77.99 35.34 77 34.86 77 30.14 77.99 30.62 77.99 35.34"/><polygon class="cls-3" points="82.88 30.62 77.99 30.62 77 30.14 81.89 30.14 82.88 30.62"/></g><g id="Bloque1-119" data-name="Bloque1"><rect class="cls-1" x="77.99" y="25.62" width="4.89" height="4.72"/><polygon class="cls-2" points="77.99 30.34 77 29.86 77 25.15 77.99 25.62 77.99 30.34"/><polygon class="cls-3" points="82.88 25.62 77.99 25.62 77 25.15 81.89 25.15 82.88 25.62"/></g><g id="Bloque1-120" data-name="Bloque1"><rect class="cls-1" x="77.99" y="20.63" width="4.89" height="4.72"/><polygon class="cls-2" points="77.99 25.34 77 24.87 77 20.15 77.99 20.63 77.99 25.34"/><polygon class="cls-3" points="82.88 20.63 77.99 20.63 77 20.15 81.89 20.15 82.88 20.63"/></g><g id="Bloque1-121" data-name="Bloque1"><rect class="cls-1" x="72.56" y="65.6" width="4.89" height="4.72"/><polygon class="cls-2" points="72.56 70.31 71.57 69.84 71.57 65.12 72.56 65.6 72.56 70.31"/><polygon class="cls-3" points="77.45 65.6 72.56 65.6 71.57 65.12 76.46 65.12 77.45 65.6"/></g><g id="Bloque1-122" data-name="Bloque1"><rect class="cls-1" x="72.56" y="60.6" width="4.89" height="4.72"/><polygon class="cls-2" points="72.56 65.32 71.57 64.84 71.57 60.12 72.56 60.6 72.56 65.32"/><polygon class="cls-3" points="77.45 60.6 72.56 60.6 71.57 60.12 76.46 60.12 77.45 60.6"/></g><g id="Bloque1-123" data-name="Bloque1"><rect class="cls-1" x="72.56" y="55.6" width="4.89" height="4.72"/><polygon class="cls-2" points="72.56 60.32 71.57 59.84 71.57 55.13 72.56 55.6 72.56 60.32"/><polygon class="cls-3" points="77.45 55.6 72.56 55.6 71.57 55.13 76.46 55.13 77.45 55.6"/></g><g id="Bloque1-124" data-name="Bloque1"><rect class="cls-1" x="72.56" y="50.61" width="4.89" height="4.72"/><polygon class="cls-2" points="72.56 55.32 71.57 54.85 71.57 50.13 72.56 50.61 72.56 55.32"/><polygon class="cls-3" points="77.45 50.61 72.56 50.61 71.57 50.13 76.46 50.13 77.45 50.61"/></g><g id="Bloque1-125" data-name="Bloque1"><rect class="cls-1" x="72.56" y="45.61" width="4.89" height="4.72"/><polygon class="cls-2" points="72.56 50.33 71.57 49.85 71.57 45.13 72.56 45.61 72.56 50.33"/><polygon class="cls-3" points="77.45 45.61 72.56 45.61 71.57 45.13 76.46 45.13 77.45 45.61"/></g><g id="Bloque1-126" data-name="Bloque1"><rect class="cls-1" x="72.56" y="40.61" width="4.89" height="4.72"/><polygon class="cls-2" points="72.56 45.33 71.57 44.85 71.57 40.14 72.56 40.61 72.56 45.33"/><polygon class="cls-3" points="77.45 40.61 72.56 40.61 71.57 40.14 76.46 40.14 77.45 40.61"/></g><g id="Bloque1-127" data-name="Bloque1"><rect class="cls-1" x="72.56" y="35.62" width="4.89" height="4.72"/><polygon class="cls-2" points="72.56 40.34 71.57 39.86 71.57 35.14 72.56 35.62 72.56 40.34"/><polygon class="cls-3" points="77.45 35.62 72.56 35.62 71.57 35.14 76.46 35.14 77.45 35.62"/></g><g id="Bloque1-128" data-name="Bloque1"><rect class="cls-1" x="72.56" y="30.62" width="4.89" height="4.72"/><polygon class="cls-2" points="72.56 35.34 71.57 34.86 71.57 30.14 72.56 30.62 72.56 35.34"/><polygon class="cls-3" points="77.45 30.62 72.56 30.62 71.57 30.14 76.46 30.14 77.45 30.62"/></g><g id="Bloque1-129" data-name="Bloque1"><rect class="cls-1" x="72.56" y="25.62" width="4.89" height="4.72"/><polygon class="cls-2" points="72.56 30.34 71.57 29.86 71.57 25.15 72.56 25.62 72.56 30.34"/><polygon class="cls-3" points="77.45 25.62 72.56 25.62 71.57 25.15 76.46 25.15 77.45 25.62"/></g><g id="Bloque1-130" data-name="Bloque1"><rect class="cls-1" x="72.56" y="20.63" width="4.89" height="4.72"/><polygon class="cls-2" points="72.56 25.34 71.57 24.87 71.57 20.15 72.56 20.63 72.56 25.34"/><polygon class="cls-3" points="77.45 20.63 72.56 20.63 71.57 20.15 76.46 20.15 77.45 20.63"/></g><g id="Bloque1-131" data-name="Bloque1"><rect class="cls-1" x="67.13" y="65.6" width="4.89" height="4.72"/><polygon class="cls-2" points="67.13 70.31 66.14 69.84 66.14 65.12 67.13 65.6 67.13 70.31"/><polygon class="cls-3" points="72.02 65.6 67.13 65.6 66.14 65.12 71.03 65.12 72.02 65.6"/></g><g id="Bloque1-132" data-name="Bloque1"><rect class="cls-1" x="67.13" y="60.6" width="4.89" height="4.72"/><polygon class="cls-2" points="67.13 65.32 66.14 64.84 66.14 60.12 67.13 60.6 67.13 65.32"/><polygon class="cls-3" points="72.02 60.6 67.13 60.6 66.14 60.12 71.03 60.12 72.02 60.6"/></g><g id="Bloque1-133" data-name="Bloque1"><rect class="cls-1" x="67.13" y="55.6" width="4.89" height="4.72"/><polygon class="cls-2" points="67.13 60.32 66.14 59.84 66.14 55.13 67.13 55.6 67.13 60.32"/><polygon class="cls-3" points="72.02 55.6 67.13 55.6 66.14 55.13 71.03 55.13 72.02 55.6"/></g><g id="Bloque1-134" data-name="Bloque1"><rect class="cls-1" x="67.13" y="50.61" width="4.89" height="4.72"/><polygon class="cls-2" points="67.13 55.32 66.14 54.85 66.14 50.13 67.13 50.61 67.13 55.32"/><polygon class="cls-3" points="72.02 50.61 67.13 50.61 66.14 50.13 71.03 50.13 72.02 50.61"/></g><g id="Bloque1-135" data-name="Bloque1"><rect class="cls-1" x="67.13" y="45.61" width="4.89" height="4.72"/><polygon class="cls-2" points="67.13 50.33 66.14 49.85 66.14 45.13 67.13 45.61 67.13 50.33"/><polygon class="cls-3" points="72.02 45.61 67.13 45.61 66.14 45.13 71.03 45.13 72.02 45.61"/></g><g id="Bloque1-136" data-name="Bloque1"><rect class="cls-1" x="67.13" y="40.61" width="4.89" height="4.72"/><polygon class="cls-2" points="67.13 45.33 66.14 44.85 66.14 40.14 67.13 40.61 67.13 45.33"/><polygon class="cls-3" points="72.02 40.61 67.13 40.61 66.14 40.14 71.03 40.14 72.02 40.61"/></g><g id="Bloque1-137" data-name="Bloque1"><rect class="cls-1" x="67.13" y="35.62" width="4.89" height="4.72"/><polygon class="cls-2" points="67.13 40.34 66.14 39.86 66.14 35.14 67.13 35.62 67.13 40.34"/><polygon class="cls-3" points="72.02 35.62 67.13 35.62 66.14 35.14 71.03 35.14 72.02 35.62"/></g><g id="Bloque1-138" data-name="Bloque1"><rect class="cls-1" x="67.13" y="30.62" width="4.89" height="4.72"/><polygon class="cls-2" points="67.13 35.34 66.14 34.86 66.14 30.14 67.13 30.62 67.13 35.34"/><polygon class="cls-3" points="72.02 30.62 67.13 30.62 66.14 30.14 71.03 30.14 72.02 30.62"/></g><g id="Bloque1-139" data-name="Bloque1"><rect class="cls-1" x="67.13" y="25.62" width="4.89" height="4.72"/><polygon class="cls-2" points="67.13 30.34 66.14 29.86 66.14 25.15 67.13 25.62 67.13 30.34"/><polygon class="cls-3" points="72.02 25.62 67.13 25.62 66.14 25.15 71.03 25.15 72.02 25.62"/></g><g id="Bloque1-140" data-name="Bloque1"><rect class="cls-1" x="67.13" y="20.63" width="4.89" height="4.72"/><polygon class="cls-2" points="67.13 25.34 66.14 24.87 66.14 20.15 67.13 20.63 67.13 25.34"/><polygon class="cls-3" points="72.02 20.63 67.13 20.63 66.14 20.15 71.03 20.15 72.02 20.63"/></g><g id="Bloque1-141" data-name="Bloque1"><rect class="cls-1" x="61.7" y="65.6" width="4.89" height="4.72"/><polygon class="cls-2" points="61.7 70.31 60.7 69.84 60.7 65.12 61.7 65.6 61.7 70.31"/><polygon class="cls-3" points="66.59 65.6 61.7 65.6 60.7 65.12 65.6 65.12 66.59 65.6"/></g><g id="Bloque1-142" data-name="Bloque1"><rect class="cls-1" x="61.7" y="60.6" width="4.89" height="4.72"/><polygon class="cls-2" points="61.7 65.32 60.7 64.84 60.7 60.12 61.7 60.6 61.7 65.32"/><polygon class="cls-3" points="66.59 60.6 61.7 60.6 60.7 60.12 65.6 60.12 66.59 60.6"/></g><g id="Bloque1-143" data-name="Bloque1"><rect class="cls-1" x="61.7" y="55.6" width="4.89" height="4.72"/><polygon class="cls-2" points="61.7 60.32 60.7 59.84 60.7 55.13 61.7 55.6 61.7 60.32"/><polygon class="cls-3" points="66.59 55.6 61.7 55.6 60.7 55.13 65.6 55.13 66.59 55.6"/></g><g id="Bloque1-144" data-name="Bloque1"><rect class="cls-1" x="61.7" y="50.61" width="4.89" height="4.72"/><polygon class="cls-2" points="61.7 55.32 60.7 54.85 60.7 50.13 61.7 50.61 61.7 55.32"/><polygon class="cls-3" points="66.59 50.61 61.7 50.61 60.7 50.13 65.6 50.13 66.59 50.61"/></g><g id="Bloque1-145" data-name="Bloque1"><rect class="cls-1" x="61.7" y="45.61" width="4.89" height="4.72"/><polygon class="cls-2" points="61.7 50.33 60.7 49.85 60.7 45.13 61.7 45.61 61.7 50.33"/><polygon class="cls-3" points="66.59 45.61 61.7 45.61 60.7 45.13 65.6 45.13 66.59 45.61"/></g><g id="Bloque1-146" data-name="Bloque1"><rect class="cls-1" x="61.7" y="40.61" width="4.89" height="4.72"/><polygon class="cls-2" points="61.7 45.33 60.7 44.85 60.7 40.14 61.7 40.61 61.7 45.33"/><polygon class="cls-3" points="66.59 40.61 61.7 40.61 60.7 40.14 65.6 40.14 66.59 40.61"/></g><g id="Bloque1-147" data-name="Bloque1"><rect class="cls-1" x="61.7" y="35.62" width="4.89" height="4.72"/><polygon class="cls-2" points="61.7 40.34 60.7 39.86 60.7 35.14 61.7 35.62 61.7 40.34"/><polygon class="cls-3" points="66.59 35.62 61.7 35.62 60.7 35.14 65.6 35.14 66.59 35.62"/></g><g id="Bloque1-148" data-name="Bloque1"><rect class="cls-1" x="61.7" y="30.62" width="4.89" height="4.72"/><polygon class="cls-2" points="61.7 35.34 60.7 34.86 60.7 30.14 61.7 30.62 61.7 35.34"/><polygon class="cls-3" points="66.59 30.62 61.7 30.62 60.7 30.14 65.6 30.14 66.59 30.62"/></g><g id="Bloque1-149" data-name="Bloque1"><rect class="cls-1" x="61.7" y="25.62" width="4.89" height="4.72"/><polygon class="cls-2" points="61.7 30.34 60.7 29.86 60.7 25.15 61.7 25.62 61.7 30.34"/><polygon class="cls-3" points="66.59 25.62 61.7 25.62 60.7 25.15 65.6 25.15 66.59 25.62"/></g><g id="Bloque1-150" data-name="Bloque1"><rect class="cls-1" x="61.7" y="20.63" width="4.89" height="4.72"/><polygon class="cls-2" points="61.7 25.34 60.7 24.87 60.7 20.15 61.7 20.63 61.7 25.34"/><polygon class="cls-3" points="66.59 20.63 61.7 20.63 60.7 20.15 65.6 20.15 66.59 20.63"/></g><g id="Bloque1-151" data-name="Bloque1"><rect class="cls-1" x="56.26" y="65.6" width="4.89" height="4.72"/><polygon class="cls-2" points="56.27 70.31 55.27 69.84 55.27 65.12 56.27 65.6 56.27 70.31"/><polygon class="cls-3" points="61.16 65.6 56.27 65.6 55.27 65.12 60.17 65.12 61.16 65.6"/></g><g id="Bloque1-152" data-name="Bloque1"><rect class="cls-1" x="56.26" y="60.6" width="4.89" height="4.72"/><polygon class="cls-2" points="56.27 65.32 55.27 64.84 55.27 60.12 56.27 60.6 56.27 65.32"/><polygon class="cls-3" points="61.16 60.6 56.27 60.6 55.27 60.12 60.17 60.12 61.16 60.6"/></g><g id="Bloque1-153" data-name="Bloque1"><rect class="cls-1" x="56.26" y="55.6" width="4.89" height="4.72"/><polygon class="cls-2" points="56.27 60.32 55.27 59.84 55.27 55.13 56.27 55.6 56.27 60.32"/><polygon class="cls-3" points="61.16 55.6 56.27 55.6 55.27 55.13 60.17 55.13 61.16 55.6"/></g><g id="Bloque1-154" data-name="Bloque1"><rect class="cls-1" x="56.26" y="50.61" width="4.89" height="4.72"/><polygon class="cls-2" points="56.27 55.32 55.27 54.85 55.27 50.13 56.27 50.61 56.27 55.32"/><polygon class="cls-3" points="61.16 50.61 56.27 50.61 55.27 50.13 60.17 50.13 61.16 50.61"/></g><g id="Bloque1-155" data-name="Bloque1"><rect class="cls-1" x="56.26" y="45.61" width="4.89" height="4.72"/><polygon class="cls-2" points="56.27 50.33 55.27 49.85 55.27 45.13 56.27 45.61 56.27 50.33"/><polygon class="cls-3" points="61.16 45.61 56.27 45.61 55.27 45.13 60.17 45.13 61.16 45.61"/></g><g id="Bloque1-156" data-name="Bloque1"><rect class="cls-1" x="56.26" y="40.61" width="4.89" height="4.72"/><polygon class="cls-2" points="56.27 45.33 55.27 44.85 55.27 40.14 56.27 40.61 56.27 45.33"/><polygon class="cls-3" points="61.16 40.61 56.27 40.61 55.27 40.14 60.17 40.14 61.16 40.61"/></g><g id="Bloque1-157" data-name="Bloque1"><rect class="cls-1" x="56.26" y="35.62" width="4.89" height="4.72"/><polygon class="cls-2" points="56.27 40.34 55.27 39.86 55.27 35.14 56.27 35.62 56.27 40.34"/><polygon class="cls-3" points="61.16 35.62 56.27 35.62 55.27 35.14 60.17 35.14 61.16 35.62"/></g><g id="Bloque1-158" data-name="Bloque1"><rect class="cls-1" x="56.26" y="30.62" width="4.89" height="4.72"/><polygon class="cls-2" points="56.27 35.34 55.27 34.86 55.27 30.14 56.27 30.62 56.27 35.34"/><polygon class="cls-3" points="61.16 30.62 56.27 30.62 55.27 30.14 60.17 30.14 61.16 30.62"/></g><g id="Bloque1-159" data-name="Bloque1"><rect class="cls-1" x="56.26" y="25.62" width="4.89" height="4.72"/><polygon class="cls-2" points="56.27 30.34 55.27 29.86 55.27 25.15 56.27 25.62 56.27 30.34"/><polygon class="cls-3" points="61.16 25.62 56.27 25.62 55.27 25.15 60.17 25.15 61.16 25.62"/></g><g id="Bloque1-160" data-name="Bloque1"><rect class="cls-1" x="56.26" y="20.63" width="4.89" height="4.72"/><polygon class="cls-2" points="56.27 25.34 55.27 24.87 55.27 20.15 56.27 20.63 56.27 25.34"/><polygon class="cls-3" points="61.16 20.63 56.27 20.63 55.27 20.15 60.17 20.15 61.16 20.63"/></g><g id="Bloque1-161" data-name="Bloque1"><rect class="cls-1" x="50.83" y="65.6" width="4.89" height="4.72"/><polygon class="cls-2" points="50.83 70.31 49.84 69.84 49.84 65.12 50.83 65.6 50.83 70.31"/><polygon class="cls-3" points="55.73 65.6 50.83 65.6 49.84 65.12 54.73 65.12 55.73 65.6"/></g><g id="Bloque1-162" data-name="Bloque1"><rect class="cls-1" x="50.83" y="60.6" width="4.89" height="4.72"/><polygon class="cls-2" points="50.83 65.32 49.84 64.84 49.84 60.12 50.83 60.6 50.83 65.32"/><polygon class="cls-3" points="55.73 60.6 50.83 60.6 49.84 60.12 54.73 60.12 55.73 60.6"/></g><g id="Bloque1-163" data-name="Bloque1"><rect class="cls-1" x="50.83" y="55.6" width="4.89" height="4.72"/><polygon class="cls-2" points="50.83 60.32 49.84 59.84 49.84 55.13 50.83 55.6 50.83 60.32"/><polygon class="cls-3" points="55.73 55.6 50.83 55.6 49.84 55.13 54.73 55.13 55.73 55.6"/></g><g id="Bloque1-164" data-name="Bloque1"><rect class="cls-1" x="50.83" y="50.61" width="4.89" height="4.72"/><polygon class="cls-2" points="50.83 55.32 49.84 54.85 49.84 50.13 50.83 50.61 50.83 55.32"/><polygon class="cls-3" points="55.73 50.61 50.83 50.61 49.84 50.13 54.73 50.13 55.73 50.61"/></g><g id="Bloque1-165" data-name="Bloque1"><rect class="cls-1" x="50.83" y="45.61" width="4.89" height="4.72"/><polygon class="cls-2" points="50.83 50.33 49.84 49.85 49.84 45.13 50.83 45.61 50.83 50.33"/><polygon class="cls-3" points="55.73 45.61 50.83 45.61 49.84 45.13 54.73 45.13 55.73 45.61"/></g><g id="Bloque1-166" data-name="Bloque1"><rect class="cls-1" x="50.83" y="40.61" width="4.89" height="4.72"/><polygon class="cls-2" points="50.83 45.33 49.84 44.85 49.84 40.14 50.83 40.61 50.83 45.33"/><polygon class="cls-3" points="55.73 40.61 50.83 40.61 49.84 40.14 54.73 40.14 55.73 40.61"/></g><g id="Bloque1-167" data-name="Bloque1"><rect class="cls-1" x="50.83" y="35.62" width="4.89" height="4.72"/><polygon class="cls-2" points="50.83 40.34 49.84 39.86 49.84 35.14 50.83 35.62 50.83 40.34"/><polygon class="cls-3" points="55.73 35.62 50.83 35.62 49.84 35.14 54.73 35.14 55.73 35.62"/></g><g id="Bloque1-168" data-name="Bloque1"><rect class="cls-1" x="50.83" y="30.62" width="4.89" height="4.72"/><polygon class="cls-2" points="50.83 35.34 49.84 34.86 49.84 30.14 50.83 30.62 50.83 35.34"/><polygon class="cls-3" points="55.73 30.62 50.83 30.62 49.84 30.14 54.73 30.14 55.73 30.62"/></g><g id="Bloque1-169" data-name="Bloque1"><rect class="cls-1" x="50.83" y="25.62" width="4.89" height="4.72"/><polygon class="cls-2" points="50.83 30.34 49.84 29.86 49.84 25.15 50.83 25.62 50.83 30.34"/><polygon class="cls-3" points="55.73 25.62 50.83 25.62 49.84 25.15 54.73 25.15 55.73 25.62"/></g><g id="Bloque1-170" data-name="Bloque1"><rect class="cls-1" x="50.83" y="20.63" width="4.89" height="4.72"/><polygon class="cls-2" points="50.83 25.34 49.84 24.87 49.84 20.15 50.83 20.63 50.83 25.34"/><polygon class="cls-3" points="55.73 20.63 50.83 20.63 49.84 20.15 54.73 20.15 55.73 20.63"/></g><g id="Bloque1-171" data-name="Bloque1"><rect class="cls-1" x="45.4" y="65.6" width="4.89" height="4.72"/><polygon class="cls-2" points="45.4 70.31 44.41 69.84 44.41 65.12 45.4 65.6 45.4 70.31"/><polygon class="cls-3" points="50.3 65.6 45.4 65.6 44.41 65.12 49.3 65.12 50.3 65.6"/></g><g id="Bloque1-172" data-name="Bloque1"><rect class="cls-1" x="45.4" y="60.6" width="4.89" height="4.72"/><polygon class="cls-2" points="45.4 65.32 44.41 64.84 44.41 60.12 45.4 60.6 45.4 65.32"/><polygon class="cls-3" points="50.3 60.6 45.4 60.6 44.41 60.12 49.3 60.12 50.3 60.6"/></g><g id="Bloque1-173" data-name="Bloque1"><rect class="cls-1" x="45.4" y="55.6" width="4.89" height="4.72"/><polygon class="cls-2" points="45.4 60.32 44.41 59.84 44.41 55.13 45.4 55.6 45.4 60.32"/><polygon class="cls-3" points="50.3 55.6 45.4 55.6 44.41 55.13 49.3 55.13 50.3 55.6"/></g><g id="Bloque1-174" data-name="Bloque1"><rect class="cls-1" x="45.4" y="50.61" width="4.89" height="4.72"/><polygon class="cls-2" points="45.4 55.32 44.41 54.85 44.41 50.13 45.4 50.61 45.4 55.32"/><polygon class="cls-3" points="50.3 50.61 45.4 50.61 44.41 50.13 49.3 50.13 50.3 50.61"/></g><g id="Bloque1-175" data-name="Bloque1"><rect class="cls-1" x="45.4" y="45.61" width="4.89" height="4.72"/><polygon class="cls-2" points="45.4 50.33 44.41 49.85 44.41 45.13 45.4 45.61 45.4 50.33"/><polygon class="cls-3" points="50.3 45.61 45.4 45.61 44.41 45.13 49.3 45.13 50.3 45.61"/></g><g id="Bloque1-176" data-name="Bloque1"><rect class="cls-1" x="45.4" y="40.61" width="4.89" height="4.72"/><polygon class="cls-2" points="45.4 45.33 44.41 44.85 44.41 40.14 45.4 40.61 45.4 45.33"/><polygon class="cls-3" points="50.3 40.61 45.4 40.61 44.41 40.14 49.3 40.14 50.3 40.61"/></g><g id="Bloque1-177" data-name="Bloque1"><rect class="cls-1" x="45.4" y="35.62" width="4.89" height="4.72"/><polygon class="cls-2" points="45.4 40.34 44.41 39.86 44.41 35.14 45.4 35.62 45.4 40.34"/><polygon class="cls-3" points="50.3 35.62 45.4 35.62 44.41 35.14 49.3 35.14 50.3 35.62"/></g><g id="Bloque1-178" data-name="Bloque1"><rect class="cls-1" x="45.4" y="30.62" width="4.89" height="4.72"/><polygon class="cls-2" points="45.4 35.34 44.41 34.86 44.41 30.14 45.4 30.62 45.4 35.34"/><polygon class="cls-3" points="50.3 30.62 45.4 30.62 44.41 30.14 49.3 30.14 50.3 30.62"/></g><g id="Bloque1-179" data-name="Bloque1"><rect class="cls-1" x="45.4" y="25.62" width="4.89" height="4.72"/><polygon class="cls-2" points="45.4 30.34 44.41 29.86 44.41 25.15 45.4 25.62 45.4 30.34"/><polygon class="cls-3" points="50.3 25.62 45.4 25.62 44.41 25.15 49.3 25.15 50.3 25.62"/></g><g id="Bloque1-180" data-name="Bloque1"><rect class="cls-1" x="45.4" y="20.63" width="4.89" height="4.72"/><polygon class="cls-2" points="45.4 25.34 44.41 24.87 44.41 20.15 45.4 20.63 45.4 25.34"/><polygon class="cls-3" points="50.3 20.63 45.4 20.63 44.41 20.15 49.3 20.15 50.3 20.63"/></g><g id="Bloque1-181" data-name="Bloque1"><rect class="cls-1" x="39.97" y="65.6" width="4.89" height="4.72"/><polygon class="cls-2" points="39.97 70.31 38.98 69.84 38.98 65.12 39.97 65.6 39.97 70.31"/><polygon class="cls-3" points="44.86 65.6 39.97 65.6 38.98 65.12 43.87 65.12 44.86 65.6"/></g><g id="Bloque1-182" data-name="Bloque1"><rect class="cls-1" x="39.97" y="60.6" width="4.89" height="4.72"/><polygon class="cls-2" points="39.97 65.32 38.98 64.84 38.98 60.12 39.97 60.6 39.97 65.32"/><polygon class="cls-3" points="44.86 60.6 39.97 60.6 38.98 60.12 43.87 60.12 44.86 60.6"/></g><g id="Bloque1-183" data-name="Bloque1"><rect class="cls-1" x="39.97" y="55.6" width="4.89" height="4.72"/><polygon class="cls-2" points="39.97 60.32 38.98 59.84 38.98 55.13 39.97 55.6 39.97 60.32"/><polygon class="cls-3" points="44.86 55.6 39.97 55.6 38.98 55.13 43.87 55.13 44.86 55.6"/></g><g id="Bloque1-184" data-name="Bloque1"><rect class="cls-1" x="39.97" y="50.61" width="4.89" height="4.72"/><polygon class="cls-2" points="39.97 55.32 38.98 54.85 38.98 50.13 39.97 50.61 39.97 55.32"/><polygon class="cls-3" points="44.86 50.61 39.97 50.61 38.98 50.13 43.87 50.13 44.86 50.61"/></g><g id="Bloque1-185" data-name="Bloque1"><rect class="cls-1" x="39.97" y="45.61" width="4.89" height="4.72"/><polygon class="cls-2" points="39.97 50.33 38.98 49.85 38.98 45.13 39.97 45.61 39.97 50.33"/><polygon class="cls-3" points="44.86 45.61 39.97 45.61 38.98 45.13 43.87 45.13 44.86 45.61"/></g><g id="Bloque1-186" data-name="Bloque1"><rect class="cls-1" x="39.97" y="40.61" width="4.89" height="4.72"/><polygon class="cls-2" points="39.97 45.33 38.98 44.85 38.98 40.14 39.97 40.61 39.97 45.33"/><polygon class="cls-3" points="44.86 40.61 39.97 40.61 38.98 40.14 43.87 40.14 44.86 40.61"/></g><g id="Bloque1-187" data-name="Bloque1"><rect class="cls-1" x="39.97" y="35.62" width="4.89" height="4.72"/><polygon class="cls-2" points="39.97 40.34 38.98 39.86 38.98 35.14 39.97 35.62 39.97 40.34"/><polygon class="cls-3" points="44.86 35.62 39.97 35.62 38.98 35.14 43.87 35.14 44.86 35.62"/></g><g id="Bloque1-188" data-name="Bloque1"><rect class="cls-1" x="39.97" y="30.62" width="4.89" height="4.72"/><polygon class="cls-2" points="39.97 35.34 38.98 34.86 38.98 30.14 39.97 30.62 39.97 35.34"/><polygon class="cls-3" points="44.86 30.62 39.97 30.62 38.98 30.14 43.87 30.14 44.86 30.62"/></g><g id="Bloque1-189" data-name="Bloque1"><rect class="cls-1" x="39.97" y="25.62" width="4.89" height="4.72"/><polygon class="cls-2" points="39.97 30.34 38.98 29.86 38.98 25.15 39.97 25.62 39.97 30.34"/><polygon class="cls-3" points="44.86 25.62 39.97 25.62 38.98 25.15 43.87 25.15 44.86 25.62"/></g><g id="Bloque1-190" data-name="Bloque1"><rect class="cls-1" x="39.97" y="20.63" width="4.89" height="4.72"/><polygon class="cls-2" points="39.97 25.34 38.98 24.87 38.98 20.15 39.97 20.63 39.97 25.34"/><polygon class="cls-3" points="44.86 20.63 39.97 20.63 38.98 20.15 43.87 20.15 44.86 20.63"/></g><g id="Bloque1-191" data-name="Bloque1"><rect class="cls-1" x="34.54" y="65.6" width="4.89" height="4.72"/><polygon class="cls-2" points="34.54 70.31 33.55 69.84 33.55 65.12 34.54 65.6 34.54 70.31"/><polygon class="cls-3" points="39.43 65.6 34.54 65.6 33.55 65.12 38.44 65.12 39.43 65.6"/></g><g id="Bloque1-192" data-name="Bloque1"><rect class="cls-1" x="34.54" y="60.6" width="4.89" height="4.72"/><polygon class="cls-2" points="34.54 65.32 33.55 64.84 33.55 60.12 34.54 60.6 34.54 65.32"/><polygon class="cls-3" points="39.43 60.6 34.54 60.6 33.55 60.12 38.44 60.12 39.43 60.6"/></g><g id="Bloque1-193" data-name="Bloque1"><rect class="cls-1" x="34.54" y="55.6" width="4.89" height="4.72"/><polygon class="cls-2" points="34.54 60.32 33.55 59.84 33.55 55.13 34.54 55.6 34.54 60.32"/><polygon class="cls-3" points="39.43 55.6 34.54 55.6 33.55 55.13 38.44 55.13 39.43 55.6"/></g><g id="Bloque1-194" data-name="Bloque1"><rect class="cls-1" x="34.54" y="50.61" width="4.89" height="4.72"/><polygon class="cls-2" points="34.54 55.32 33.55 54.85 33.55 50.13 34.54 50.61 34.54 55.32"/><polygon class="cls-3" points="39.43 50.61 34.54 50.61 33.55 50.13 38.44 50.13 39.43 50.61"/></g><g id="Bloque1-195" data-name="Bloque1"><rect class="cls-1" x="34.54" y="45.61" width="4.89" height="4.72"/><polygon class="cls-2" points="34.54 50.33 33.55 49.85 33.55 45.13 34.54 45.61 34.54 50.33"/><polygon class="cls-3" points="39.43 45.61 34.54 45.61 33.55 45.13 38.44 45.13 39.43 45.61"/></g><g id="Bloque1-196" data-name="Bloque1"><rect class="cls-1" x="34.54" y="40.61" width="4.89" height="4.72"/><polygon class="cls-2" points="34.54 45.33 33.55 44.85 33.55 40.14 34.54 40.61 34.54 45.33"/><polygon class="cls-3" points="39.43 40.61 34.54 40.61 33.55 40.14 38.44 40.14 39.43 40.61"/></g><g id="Bloque1-197" data-name="Bloque1"><rect class="cls-1" x="34.54" y="35.62" width="4.89" height="4.72"/><polygon class="cls-2" points="34.54 40.34 33.55 39.86 33.55 35.14 34.54 35.62 34.54 40.34"/><polygon class="cls-3" points="39.43 35.62 34.54 35.62 33.55 35.14 38.44 35.14 39.43 35.62"/></g><g id="Bloque1-198" data-name="Bloque1"><rect class="cls-1" x="34.54" y="30.62" width="4.89" height="4.72"/><polygon class="cls-2" points="34.54 35.34 33.55 34.86 33.55 30.14 34.54 30.62 34.54 35.34"/><polygon class="cls-3" points="39.43 30.62 34.54 30.62 33.55 30.14 38.44 30.14 39.43 30.62"/></g><g id="Bloque1-199" data-name="Bloque1"><rect class="cls-1" x="34.54" y="25.62" width="4.89" height="4.72"/><polygon class="cls-2" points="34.54 30.34 33.55 29.86 33.55 25.15 34.54 25.62 34.54 30.34"/><polygon class="cls-3" points="39.43 25.62 34.54 25.62 33.55 25.15 38.44 25.15 39.43 25.62"/></g><g id="Bloque1-200" data-name="Bloque1"><rect class="cls-1" x="34.54" y="20.63" width="4.89" height="4.72"/><polygon class="cls-2" points="34.54 25.34 33.55 24.87 33.55 20.15 34.54 20.63 34.54 25.34"/><polygon class="cls-3" points="39.43 20.63 34.54 20.63 33.55 20.15 38.44 20.15 39.43 20.63"/></g><g id="Bloque1-201" data-name="Bloque1"><rect class="cls-1" x="116.01" y="80.89" width="4.89" height="4.72"/><polygon class="cls-2" points="116.01 85.61 115.02 85.14 115.02 80.42 116.01 80.89 116.01 85.61"/><polygon class="cls-3" points="120.91 80.89 116.01 80.89 115.02 80.42 119.92 80.42 120.91 80.89"/></g><g id="Bloque1-202" data-name="Bloque1"><rect class="cls-1" x="116.01" y="75.9" width="4.89" height="4.72"/><polygon class="cls-2" points="116.01 80.61 115.02 80.14 115.02 75.42 116.01 75.9 116.01 80.61"/><polygon class="cls-3" points="120.91 75.9 116.01 75.9 115.02 75.42 119.92 75.42 120.91 75.9"/></g><g id="Bloque1-203" data-name="Bloque1"><rect class="cls-1" x="116.01" y="70.9" width="4.89" height="4.72"/><polygon class="cls-2" points="116.01 75.62 115.02 75.14 115.02 70.42 116.01 70.9 116.01 75.62"/><polygon class="cls-3" points="120.91 70.9 116.01 70.9 115.02 70.42 119.92 70.42 120.91 70.9"/></g><g id="Bloque1-204" data-name="Bloque1"><rect class="cls-1" x="116.01" y="65.9" width="4.89" height="4.72"/><polygon class="cls-2" points="116.01 70.62 115.02 70.14 115.02 65.42 116.01 65.9 116.01 70.62"/><polygon class="cls-3" points="120.91 65.9 116.01 65.9 115.02 65.42 119.92 65.42 120.91 65.9"/></g><g id="Bloque1-205" data-name="Bloque1"><rect class="cls-1" x="116.01" y="60.9" width="4.89" height="4.72"/><polygon class="cls-2" points="116.01 65.62 115.02 65.14 115.02 60.42 116.01 60.9 116.01 65.62"/><polygon class="cls-3" points="120.91 60.9 116.01 60.9 115.02 60.42 119.92 60.42 120.91 60.9"/></g><g id="Bloque1-206" data-name="Bloque1"><rect class="cls-1" x="116.01" y="55.9" width="4.89" height="4.72"/><polygon class="cls-2" points="116.01 60.62 115.02 60.15 115.02 55.43 116.01 55.91 116.01 60.62"/><polygon class="cls-3" points="120.91 55.91 116.01 55.91 115.02 55.43 119.92 55.43 120.91 55.91"/></g><g id="Bloque1-207" data-name="Bloque1"><rect class="cls-1" x="116.01" y="50.91" width="4.89" height="4.72"/><polygon class="cls-2" points="116.01 55.63 115.02 55.15 115.02 50.43 116.01 50.91 116.01 55.63"/><polygon class="cls-3" points="120.91 50.91 116.01 50.91 115.02 50.43 119.92 50.43 120.91 50.91"/></g><g id="Bloque1-208" data-name="Bloque1"><rect class="cls-1" x="116.01" y="45.91" width="4.89" height="4.72"/><polygon class="cls-2" points="116.01 50.63 115.02 50.15 115.02 45.43 116.01 45.91 116.01 50.63"/><polygon class="cls-3" points="120.91 45.91 116.01 45.91 115.02 45.43 119.92 45.43 120.91 45.91"/></g><g id="Bloque1-209" data-name="Bloque1"><rect class="cls-1" x="116.01" y="40.91" width="4.89" height="4.72"/><polygon class="cls-2" points="116.01 45.63 115.02 45.15 115.02 40.43 116.01 40.91 116.01 45.63"/><polygon class="cls-3" points="120.91 40.91 116.01 40.91 115.02 40.43 119.92 40.43 120.91 40.91"/></g><g id="Bloque1-210" data-name="Bloque1"><rect class="cls-1" x="116.01" y="35.91" width="4.89" height="4.72"/><polygon class="cls-2" points="116.01 40.63 115.02 40.15 115.02 35.44 116.01 35.91 116.01 40.63"/><polygon class="cls-3" points="120.91 35.91 116.01 35.91 115.02 35.44 119.92 35.44 120.91 35.91"/></g><g id="Bloque1-211" data-name="Bloque1"><rect class="cls-1" x="110.58" y="80.89" width="4.89" height="4.72"/><polygon class="cls-2" points="110.58 85.61 109.59 85.14 109.59 80.42 110.58 80.89 110.58 85.61"/><polygon class="cls-3" points="115.47 80.89 110.58 80.89 109.59 80.42 114.48 80.42 115.47 80.89"/></g><g id="Bloque1-212" data-name="Bloque1"><rect class="cls-1" x="110.58" y="75.9" width="4.89" height="4.72"/><polygon class="cls-2" points="110.58 80.61 109.59 80.14 109.59 75.42 110.58 75.9 110.58 80.61"/><polygon class="cls-3" points="115.47 75.9 110.58 75.9 109.59 75.42 114.48 75.42 115.47 75.9"/></g><g id="Bloque1-213" data-name="Bloque1"><rect class="cls-1" x="110.58" y="70.9" width="4.89" height="4.72"/><polygon class="cls-2" points="110.58 75.62 109.59 75.14 109.59 70.42 110.58 70.9 110.58 75.62"/><polygon class="cls-3" points="115.47 70.9 110.58 70.9 109.59 70.42 114.48 70.42 115.47 70.9"/></g><g id="Bloque1-214" data-name="Bloque1"><rect class="cls-1" x="110.58" y="65.9" width="4.89" height="4.72"/><polygon class="cls-2" points="110.58 70.62 109.59 70.14 109.59 65.42 110.58 65.9 110.58 70.62"/><polygon class="cls-3" points="115.47 65.9 110.58 65.9 109.59 65.42 114.48 65.42 115.47 65.9"/></g><g id="Bloque1-215" data-name="Bloque1"><rect class="cls-1" x="110.58" y="60.9" width="4.89" height="4.72"/><polygon class="cls-2" points="110.58 65.62 109.59 65.14 109.59 60.42 110.58 60.9 110.58 65.62"/><polygon class="cls-3" points="115.47 60.9 110.58 60.9 109.59 60.42 114.48 60.42 115.47 60.9"/></g><g id="Bloque1-216" data-name="Bloque1"><rect class="cls-1" x="110.58" y="55.9" width="4.89" height="4.72"/><polygon class="cls-2" points="110.58 60.62 109.59 60.15 109.59 55.43 110.58 55.91 110.58 60.62"/><polygon class="cls-3" points="115.47 55.91 110.58 55.91 109.59 55.43 114.48 55.43 115.47 55.91"/></g><g id="Bloque1-217" data-name="Bloque1"><rect class="cls-1" x="110.58" y="50.91" width="4.89" height="4.72"/><polygon class="cls-2" points="110.58 55.63 109.59 55.15 109.59 50.43 110.58 50.91 110.58 55.63"/><polygon class="cls-3" points="115.47 50.91 110.58 50.91 109.59 50.43 114.48 50.43 115.47 50.91"/></g><g id="Bloque1-218" data-name="Bloque1"><rect class="cls-1" x="110.58" y="45.91" width="4.89" height="4.72"/><polygon class="cls-2" points="110.58 50.63 109.59 50.15 109.59 45.43 110.58 45.91 110.58 50.63"/><polygon class="cls-3" points="115.47 45.91 110.58 45.91 109.59 45.43 114.48 45.43 115.47 45.91"/></g><g id="Bloque1-219" data-name="Bloque1"><rect class="cls-1" x="110.58" y="40.91" width="4.89" height="4.72"/><polygon class="cls-2" points="110.58 45.63 109.59 45.15 109.59 40.43 110.58 40.91 110.58 45.63"/><polygon class="cls-3" points="115.47 40.91 110.58 40.91 109.59 40.43 114.48 40.43 115.47 40.91"/></g><g id="Bloque1-220" data-name="Bloque1"><rect class="cls-1" x="110.58" y="35.91" width="4.89" height="4.72"/><polygon class="cls-2" points="110.58 40.63 109.59 40.15 109.59 35.44 110.58 35.91 110.58 40.63"/><polygon class="cls-3" points="115.47 35.91 110.58 35.91 109.59 35.44 114.48 35.44 115.47 35.91"/></g><g id="Bloque1-221" data-name="Bloque1"><rect class="cls-1" x="105.15" y="80.89" width="4.89" height="4.72"/><polygon class="cls-2" points="105.15 85.61 104.16 85.14 104.16 80.42 105.15 80.89 105.15 85.61"/><polygon class="cls-3" points="110.04 80.89 105.15 80.89 104.16 80.42 109.05 80.42 110.04 80.89"/></g><g id="Bloque1-222" data-name="Bloque1"><rect class="cls-1" x="105.15" y="75.9" width="4.89" height="4.72"/><polygon class="cls-2" points="105.15 80.61 104.16 80.14 104.16 75.42 105.15 75.9 105.15 80.61"/><polygon class="cls-3" points="110.04 75.9 105.15 75.9 104.16 75.42 109.05 75.42 110.04 75.9"/></g><g id="Bloque1-223" data-name="Bloque1"><rect class="cls-1" x="105.15" y="70.9" width="4.89" height="4.72"/><polygon class="cls-2" points="105.15 75.62 104.16 75.14 104.16 70.42 105.15 70.9 105.15 75.62"/><polygon class="cls-3" points="110.04 70.9 105.15 70.9 104.16 70.42 109.05 70.42 110.04 70.9"/></g><g id="Bloque1-224" data-name="Bloque1"><rect class="cls-1" x="105.15" y="65.9" width="4.89" height="4.72"/><polygon class="cls-2" points="105.15 70.62 104.16 70.14 104.16 65.42 105.15 65.9 105.15 70.62"/><polygon class="cls-3" points="110.04 65.9 105.15 65.9 104.16 65.42 109.05 65.42 110.04 65.9"/></g><g id="Bloque1-225" data-name="Bloque1"><rect class="cls-1" x="105.15" y="60.9" width="4.89" height="4.72"/><polygon class="cls-2" points="105.15 65.62 104.16 65.14 104.16 60.42 105.15 60.9 105.15 65.62"/><polygon class="cls-3" points="110.04 60.9 105.15 60.9 104.16 60.42 109.05 60.42 110.04 60.9"/></g><g id="Bloque1-226" data-name="Bloque1"><rect class="cls-1" x="105.15" y="55.9" width="4.89" height="4.72"/><polygon class="cls-2" points="105.15 60.62 104.16 60.15 104.16 55.43 105.15 55.91 105.15 60.62"/><polygon class="cls-3" points="110.04 55.91 105.15 55.91 104.16 55.43 109.05 55.43 110.04 55.91"/></g><g id="Bloque1-227" data-name="Bloque1"><rect class="cls-1" x="105.15" y="50.91" width="4.89" height="4.72"/><polygon class="cls-2" points="105.15 55.63 104.16 55.15 104.16 50.43 105.15 50.91 105.15 55.63"/><polygon class="cls-3" points="110.04 50.91 105.15 50.91 104.16 50.43 109.05 50.43 110.04 50.91"/></g><g id="Bloque1-228" data-name="Bloque1"><rect class="cls-1" x="105.15" y="45.91" width="4.89" height="4.72"/><polygon class="cls-2" points="105.15 50.63 104.16 50.15 104.16 45.43 105.15 45.91 105.15 50.63"/><polygon class="cls-3" points="110.04 45.91 105.15 45.91 104.16 45.43 109.05 45.43 110.04 45.91"/></g><g id="Bloque1-229" data-name="Bloque1"><rect class="cls-1" x="105.15" y="40.91" width="4.89" height="4.72"/><polygon class="cls-2" points="105.15 45.63 104.16 45.15 104.16 40.43 105.15 40.91 105.15 45.63"/><polygon class="cls-3" points="110.04 40.91 105.15 40.91 104.16 40.43 109.05 40.43 110.04 40.91"/></g><g id="Bloque1-230" data-name="Bloque1"><rect class="cls-1" x="105.15" y="35.91" width="4.89" height="4.72"/><polygon class="cls-2" points="105.15 40.63 104.16 40.15 104.16 35.44 105.15 35.91 105.15 40.63"/><polygon class="cls-3" points="110.04 35.91 105.15 35.91 104.16 35.44 109.05 35.44 110.04 35.91"/></g><g id="Bloque1-231" data-name="Bloque1"><rect class="cls-1" x="99.72" y="80.89" width="4.89" height="4.72"/><polygon class="cls-2" points="99.72 85.61 98.72 85.14 98.72 80.42 99.72 80.89 99.72 85.61"/><polygon class="cls-3" points="104.61 80.89 99.72 80.89 98.72 80.42 103.62 80.42 104.61 80.89"/></g><g id="Bloque1-232" data-name="Bloque1"><rect class="cls-1" x="99.72" y="75.9" width="4.89" height="4.72"/><polygon class="cls-2" points="99.72 80.61 98.72 80.14 98.72 75.42 99.72 75.9 99.72 80.61"/><polygon class="cls-3" points="104.61 75.9 99.72 75.9 98.72 75.42 103.62 75.42 104.61 75.9"/></g><g id="Bloque1-233" data-name="Bloque1"><rect class="cls-1" x="99.72" y="70.9" width="4.89" height="4.72"/><polygon class="cls-2" points="99.72 75.62 98.72 75.14 98.72 70.42 99.72 70.9 99.72 75.62"/><polygon class="cls-3" points="104.61 70.9 99.72 70.9 98.72 70.42 103.62 70.42 104.61 70.9"/></g><g id="Bloque1-234" data-name="Bloque1"><rect class="cls-1" x="99.72" y="65.9" width="4.89" height="4.72"/><polygon class="cls-2" points="99.72 70.62 98.72 70.14 98.72 65.42 99.72 65.9 99.72 70.62"/><polygon class="cls-3" points="104.61 65.9 99.72 65.9 98.72 65.42 103.62 65.42 104.61 65.9"/></g><g id="Bloque1-235" data-name="Bloque1"><rect class="cls-1" x="99.72" y="60.9" width="4.89" height="4.72"/><polygon class="cls-2" points="99.72 65.62 98.72 65.14 98.72 60.42 99.72 60.9 99.72 65.62"/><polygon class="cls-3" points="104.61 60.9 99.72 60.9 98.72 60.42 103.62 60.42 104.61 60.9"/></g><g id="Bloque1-236" data-name="Bloque1"><rect class="cls-1" x="99.72" y="55.9" width="4.89" height="4.72"/><polygon class="cls-2" points="99.72 60.62 98.72 60.15 98.72 55.43 99.72 55.91 99.72 60.62"/><polygon class="cls-3" points="104.61 55.91 99.72 55.91 98.72 55.43 103.62 55.43 104.61 55.91"/></g><g id="Bloque1-237" data-name="Bloque1"><rect class="cls-1" x="99.72" y="50.91" width="4.89" height="4.72"/><polygon class="cls-2" points="99.72 55.63 98.72 55.15 98.72 50.43 99.72 50.91 99.72 55.63"/><polygon class="cls-3" points="104.61 50.91 99.72 50.91 98.72 50.43 103.62 50.43 104.61 50.91"/></g><g id="Bloque1-238" data-name="Bloque1"><rect class="cls-1" x="99.72" y="45.91" width="4.89" height="4.72"/><polygon class="cls-2" points="99.72 50.63 98.72 50.15 98.72 45.43 99.72 45.91 99.72 50.63"/><polygon class="cls-3" points="104.61 45.91 99.72 45.91 98.72 45.43 103.62 45.43 104.61 45.91"/></g><g id="Bloque1-239" data-name="Bloque1"><rect class="cls-1" x="99.72" y="40.91" width="4.89" height="4.72"/><polygon class="cls-2" points="99.72 45.63 98.72 45.15 98.72 40.43 99.72 40.91 99.72 45.63"/><polygon class="cls-3" points="104.61 40.91 99.72 40.91 98.72 40.43 103.62 40.43 104.61 40.91"/></g><g id="Bloque1-240" data-name="Bloque1"><rect class="cls-1" x="99.72" y="35.91" width="4.89" height="4.72"/><polygon class="cls-2" points="99.72 40.63 98.72 40.15 98.72 35.44 99.72 35.91 99.72 40.63"/><polygon class="cls-3" points="104.61 35.91 99.72 35.91 98.72 35.44 103.62 35.44 104.61 35.91"/></g><g id="Bloque1-241" data-name="Bloque1"><rect class="cls-1" x="94.28" y="80.89" width="4.89" height="4.72"/><polygon class="cls-2" points="94.28 85.61 93.29 85.14 93.29 80.42 94.28 80.89 94.28 85.61"/><polygon class="cls-3" points="99.18 80.89 94.28 80.89 93.29 80.42 98.19 80.42 99.18 80.89"/></g><g id="Bloque1-242" data-name="Bloque1"><rect class="cls-1" x="94.28" y="75.9" width="4.89" height="4.72"/><polygon class="cls-2" points="94.28 80.61 93.29 80.14 93.29 75.42 94.28 75.9 94.28 80.61"/><polygon class="cls-3" points="99.18 75.9 94.28 75.9 93.29 75.42 98.19 75.42 99.18 75.9"/></g><g id="Bloque1-243" data-name="Bloque1"><rect class="cls-1" x="94.28" y="70.9" width="4.89" height="4.72"/><polygon class="cls-2" points="94.28 75.62 93.29 75.14 93.29 70.42 94.28 70.9 94.28 75.62"/><polygon class="cls-3" points="99.18 70.9 94.28 70.9 93.29 70.42 98.19 70.42 99.18 70.9"/></g><g id="Bloque1-244" data-name="Bloque1"><rect class="cls-1" x="94.28" y="65.9" width="4.89" height="4.72"/><polygon class="cls-2" points="94.28 70.62 93.29 70.14 93.29 65.42 94.28 65.9 94.28 70.62"/><polygon class="cls-3" points="99.18 65.9 94.28 65.9 93.29 65.42 98.19 65.42 99.18 65.9"/></g><g id="Bloque1-245" data-name="Bloque1"><rect class="cls-1" x="94.28" y="60.9" width="4.89" height="4.72"/><polygon class="cls-2" points="94.28 65.62 93.29 65.14 93.29 60.42 94.28 60.9 94.28 65.62"/><polygon class="cls-3" points="99.18 60.9 94.28 60.9 93.29 60.42 98.19 60.42 99.18 60.9"/></g><g id="Bloque1-246" data-name="Bloque1"><rect class="cls-1" x="94.28" y="55.9" width="4.89" height="4.72"/><polygon class="cls-2" points="94.28 60.62 93.29 60.15 93.29 55.43 94.28 55.91 94.28 60.62"/><polygon class="cls-3" points="99.18 55.91 94.28 55.91 93.29 55.43 98.19 55.43 99.18 55.91"/></g><g id="Bloque1-247" data-name="Bloque1"><rect class="cls-1" x="94.28" y="50.91" width="4.89" height="4.72"/><polygon class="cls-2" points="94.28 55.63 93.29 55.15 93.29 50.43 94.28 50.91 94.28 55.63"/><polygon class="cls-3" points="99.18 50.91 94.28 50.91 93.29 50.43 98.19 50.43 99.18 50.91"/></g><g id="Bloque1-248" data-name="Bloque1"><rect class="cls-1" x="94.28" y="45.91" width="4.89" height="4.72"/><polygon class="cls-2" points="94.28 50.63 93.29 50.15 93.29 45.43 94.28 45.91 94.28 50.63"/><polygon class="cls-3" points="99.18 45.91 94.28 45.91 93.29 45.43 98.19 45.43 99.18 45.91"/></g><g id="Bloque1-249" data-name="Bloque1"><rect class="cls-1" x="94.28" y="40.91" width="4.89" height="4.72"/><polygon class="cls-2" points="94.28 45.63 93.29 45.15 93.29 40.43 94.28 40.91 94.28 45.63"/><polygon class="cls-3" points="99.18 40.91 94.28 40.91 93.29 40.43 98.19 40.43 99.18 40.91"/></g><g id="Bloque1-250" data-name="Bloque1"><rect class="cls-1" x="94.28" y="35.91" width="4.89" height="4.72"/><polygon class="cls-2" points="94.28 40.63 93.29 40.15 93.29 35.44 94.28 35.91 94.28 40.63"/><polygon class="cls-3" points="99.18 35.91 94.28 35.91 93.29 35.44 98.19 35.44 99.18 35.91"/></g><g id="Bloque1-251" data-name="Bloque1"><rect class="cls-1" x="88.85" y="80.89" width="4.89" height="4.72"/><polygon class="cls-2" points="88.85 85.61 87.86 85.14 87.86 80.42 88.85 80.89 88.85 85.61"/><polygon class="cls-3" points="93.75 80.89 88.85 80.89 87.86 80.42 92.75 80.42 93.75 80.89"/></g><g id="Bloque1-252" data-name="Bloque1"><rect class="cls-1" x="88.85" y="75.9" width="4.89" height="4.72"/><polygon class="cls-2" points="88.85 80.61 87.86 80.14 87.86 75.42 88.85 75.9 88.85 80.61"/><polygon class="cls-3" points="93.75 75.9 88.85 75.9 87.86 75.42 92.75 75.42 93.75 75.9"/></g><g id="Bloque1-253" data-name="Bloque1"><rect class="cls-1" x="88.85" y="70.9" width="4.89" height="4.72"/><polygon class="cls-2" points="88.85 75.62 87.86 75.14 87.86 70.42 88.85 70.9 88.85 75.62"/><polygon class="cls-3" points="93.75 70.9 88.85 70.9 87.86 70.42 92.75 70.42 93.75 70.9"/></g><g id="Bloque1-254" data-name="Bloque1"><rect class="cls-1" x="88.85" y="65.9" width="4.89" height="4.72"/><polygon class="cls-2" points="88.85 70.62 87.86 70.14 87.86 65.42 88.85 65.9 88.85 70.62"/><polygon class="cls-3" points="93.75 65.9 88.85 65.9 87.86 65.42 92.75 65.42 93.75 65.9"/></g><g id="Bloque1-255" data-name="Bloque1"><rect class="cls-1" x="88.85" y="60.9" width="4.89" height="4.72"/><polygon class="cls-2" points="88.85 65.62 87.86 65.14 87.86 60.42 88.85 60.9 88.85 65.62"/><polygon class="cls-3" points="93.75 60.9 88.85 60.9 87.86 60.42 92.75 60.42 93.75 60.9"/></g><g id="Bloque1-256" data-name="Bloque1"><rect class="cls-1" x="88.85" y="55.9" width="4.89" height="4.72"/><polygon class="cls-2" points="88.85 60.62 87.86 60.15 87.86 55.43 88.85 55.91 88.85 60.62"/><polygon class="cls-3" points="93.75 55.91 88.85 55.91 87.86 55.43 92.75 55.43 93.75 55.91"/></g><g id="Bloque1-257" data-name="Bloque1"><rect class="cls-1" x="88.85" y="50.91" width="4.89" height="4.72"/><polygon class="cls-2" points="88.85 55.63 87.86 55.15 87.86 50.43 88.85 50.91 88.85 55.63"/><polygon class="cls-3" points="93.75 50.91 88.85 50.91 87.86 50.43 92.75 50.43 93.75 50.91"/></g><g id="Bloque1-258" data-name="Bloque1"><rect class="cls-1" x="88.85" y="45.91" width="4.89" height="4.72"/><polygon class="cls-2" points="88.85 50.63 87.86 50.15 87.86 45.43 88.85 45.91 88.85 50.63"/><polygon class="cls-3" points="93.75 45.91 88.85 45.91 87.86 45.43 92.75 45.43 93.75 45.91"/></g><g id="Bloque1-259" data-name="Bloque1"><rect class="cls-1" x="88.85" y="40.91" width="4.89" height="4.72"/><polygon class="cls-2" points="88.85 45.63 87.86 45.15 87.86 40.43 88.85 40.91 88.85 45.63"/><polygon class="cls-3" points="93.75 40.91 88.85 40.91 87.86 40.43 92.75 40.43 93.75 40.91"/></g><g id="Bloque1-260" data-name="Bloque1"><rect class="cls-1" x="88.85" y="35.91" width="4.89" height="4.72"/><polygon class="cls-2" points="88.85 40.63 87.86 40.15 87.86 35.44 88.85 35.91 88.85 40.63"/><polygon class="cls-3" points="93.75 35.91 88.85 35.91 87.86 35.44 92.75 35.44 93.75 35.91"/></g><g id="Bloque1-261" data-name="Bloque1"><rect class="cls-1" x="83.42" y="80.89" width="4.89" height="4.72"/><polygon class="cls-2" points="83.42 85.61 82.43 85.14 82.43 80.42 83.42 80.89 83.42 85.61"/><polygon class="cls-3" points="88.31 80.89 83.42 80.89 82.43 80.42 87.32 80.42 88.31 80.89"/></g><g id="Bloque1-262" data-name="Bloque1"><rect class="cls-1" x="83.42" y="75.9" width="4.89" height="4.72"/><polygon class="cls-2" points="83.42 80.61 82.43 80.14 82.43 75.42 83.42 75.9 83.42 80.61"/><polygon class="cls-3" points="88.31 75.9 83.42 75.9 82.43 75.42 87.32 75.42 88.31 75.9"/></g><g id="Bloque1-263" data-name="Bloque1"><rect class="cls-1" x="83.42" y="70.9" width="4.89" height="4.72"/><polygon class="cls-2" points="83.42 75.62 82.43 75.14 82.43 70.42 83.42 70.9 83.42 75.62"/><polygon class="cls-3" points="88.31 70.9 83.42 70.9 82.43 70.42 87.32 70.42 88.31 70.9"/></g><g id="Bloque1-264" data-name="Bloque1"><rect class="cls-1" x="83.42" y="65.9" width="4.89" height="4.72"/><polygon class="cls-2" points="83.42 70.62 82.43 70.14 82.43 65.42 83.42 65.9 83.42 70.62"/><polygon class="cls-3" points="88.31 65.9 83.42 65.9 82.43 65.42 87.32 65.42 88.31 65.9"/></g><g id="Bloque1-265" data-name="Bloque1"><rect class="cls-1" x="83.42" y="60.9" width="4.89" height="4.72"/><polygon class="cls-2" points="83.42 65.62 82.43 65.14 82.43 60.42 83.42 60.9 83.42 65.62"/><polygon class="cls-3" points="88.31 60.9 83.42 60.9 82.43 60.42 87.32 60.42 88.31 60.9"/></g><g id="Bloque1-266" data-name="Bloque1"><rect class="cls-1" x="83.42" y="55.9" width="4.89" height="4.72"/><polygon class="cls-2" points="83.42 60.62 82.43 60.15 82.43 55.43 83.42 55.91 83.42 60.62"/><polygon class="cls-3" points="88.31 55.91 83.42 55.91 82.43 55.43 87.32 55.43 88.31 55.91"/></g><g id="Bloque1-267" data-name="Bloque1"><rect class="cls-1" x="83.42" y="50.91" width="4.89" height="4.72"/><polygon class="cls-2" points="83.42 55.63 82.43 55.15 82.43 50.43 83.42 50.91 83.42 55.63"/><polygon class="cls-3" points="88.31 50.91 83.42 50.91 82.43 50.43 87.32 50.43 88.31 50.91"/></g><g id="Bloque1-268" data-name="Bloque1"><rect class="cls-1" x="83.42" y="45.91" width="4.89" height="4.72"/><polygon class="cls-2" points="83.42 50.63 82.43 50.15 82.43 45.43 83.42 45.91 83.42 50.63"/><polygon class="cls-3" points="88.31 45.91 83.42 45.91 82.43 45.43 87.32 45.43 88.31 45.91"/></g><g id="Bloque1-269" data-name="Bloque1"><rect class="cls-1" x="83.42" y="40.91" width="4.89" height="4.72"/><polygon class="cls-2" points="83.42 45.63 82.43 45.15 82.43 40.43 83.42 40.91 83.42 45.63"/><polygon class="cls-3" points="88.31 40.91 83.42 40.91 82.43 40.43 87.32 40.43 88.31 40.91"/></g><g id="Bloque1-270" data-name="Bloque1"><rect class="cls-1" x="83.42" y="35.91" width="4.89" height="4.72"/><polygon class="cls-2" points="83.42 40.63 82.43 40.15 82.43 35.44 83.42 35.91 83.42 40.63"/><polygon class="cls-3" points="88.31 35.91 83.42 35.91 82.43 35.44 87.32 35.44 88.31 35.91"/></g><g id="Bloque1-271" data-name="Bloque1"><rect class="cls-1" x="77.99" y="80.89" width="4.89" height="4.72"/><polygon class="cls-2" points="77.99 85.61 76.99 85.14 76.99 80.42 77.99 80.89 77.99 85.61"/><polygon class="cls-3" points="82.88 80.89 77.99 80.89 76.99 80.42 81.89 80.42 82.88 80.89"/></g><g id="Bloque1-272" data-name="Bloque1"><rect class="cls-1" x="77.99" y="75.9" width="4.89" height="4.72"/><polygon class="cls-2" points="77.99 80.61 76.99 80.14 76.99 75.42 77.99 75.9 77.99 80.61"/><polygon class="cls-3" points="82.88 75.9 77.99 75.9 76.99 75.42 81.89 75.42 82.88 75.9"/></g><g id="Bloque1-273" data-name="Bloque1"><rect class="cls-1" x="77.99" y="70.9" width="4.89" height="4.72"/><polygon class="cls-2" points="77.99 75.62 76.99 75.14 76.99 70.42 77.99 70.9 77.99 75.62"/><polygon class="cls-3" points="82.88 70.9 77.99 70.9 76.99 70.42 81.89 70.42 82.88 70.9"/></g><g id="Bloque1-274" data-name="Bloque1"><rect class="cls-1" x="77.99" y="65.9" width="4.89" height="4.72"/><polygon class="cls-2" points="77.99 70.62 76.99 70.14 76.99 65.42 77.99 65.9 77.99 70.62"/><polygon class="cls-3" points="82.88 65.9 77.99 65.9 76.99 65.42 81.89 65.42 82.88 65.9"/></g><g id="Bloque1-275" data-name="Bloque1"><rect class="cls-1" x="77.99" y="60.9" width="4.89" height="4.72"/><polygon class="cls-2" points="77.99 65.62 76.99 65.14 76.99 60.42 77.99 60.9 77.99 65.62"/><polygon class="cls-3" points="82.88 60.9 77.99 60.9 76.99 60.42 81.89 60.42 82.88 60.9"/></g><g id="Bloque1-276" data-name="Bloque1"><rect class="cls-1" x="77.99" y="55.9" width="4.89" height="4.72"/><polygon class="cls-2" points="77.99 60.62 76.99 60.15 76.99 55.43 77.99 55.91 77.99 60.62"/><polygon class="cls-3" points="82.88 55.91 77.99 55.91 76.99 55.43 81.89 55.43 82.88 55.91"/></g><g id="Bloque1-277" data-name="Bloque1"><rect class="cls-1" x="77.99" y="50.91" width="4.89" height="4.72"/><polygon class="cls-2" points="77.99 55.63 76.99 55.15 76.99 50.43 77.99 50.91 77.99 55.63"/><polygon class="cls-3" points="82.88 50.91 77.99 50.91 76.99 50.43 81.89 50.43 82.88 50.91"/></g><g id="Bloque1-278" data-name="Bloque1"><rect class="cls-1" x="77.99" y="45.91" width="4.89" height="4.72"/><polygon class="cls-2" points="77.99 50.63 76.99 50.15 76.99 45.43 77.99 45.91 77.99 50.63"/><polygon class="cls-3" points="82.88 45.91 77.99 45.91 76.99 45.43 81.89 45.43 82.88 45.91"/></g><g id="Bloque1-279" data-name="Bloque1"><rect class="cls-1" x="77.99" y="40.91" width="4.89" height="4.72"/><polygon class="cls-2" points="77.99 45.63 76.99 45.15 76.99 40.43 77.99 40.91 77.99 45.63"/><polygon class="cls-3" points="82.88 40.91 77.99 40.91 76.99 40.43 81.89 40.43 82.88 40.91"/></g><g id="Bloque1-280" data-name="Bloque1"><rect class="cls-1" x="77.99" y="35.91" width="4.89" height="4.72"/><polygon class="cls-2" points="77.99 40.63 76.99 40.15 76.99 35.44 77.99 35.91 77.99 40.63"/><polygon class="cls-3" points="82.88 35.91 77.99 35.91 76.99 35.44 81.89 35.44 82.88 35.91"/></g><g id="Bloque1-281" data-name="Bloque1"><rect class="cls-1" x="72.55" y="80.89" width="4.89" height="4.72"/><polygon class="cls-2" points="72.55 85.61 71.56 85.14 71.56 80.42 72.55 80.89 72.55 85.61"/><polygon class="cls-3" points="77.45 80.89 72.55 80.89 71.56 80.42 76.46 80.42 77.45 80.89"/></g><g id="Bloque1-282" data-name="Bloque1"><rect class="cls-1" x="72.55" y="75.9" width="4.89" height="4.72"/><polygon class="cls-2" points="72.55 80.61 71.56 80.14 71.56 75.42 72.55 75.9 72.55 80.61"/><polygon class="cls-3" points="77.45 75.9 72.55 75.9 71.56 75.42 76.46 75.42 77.45 75.9"/></g><g id="Bloque1-283" data-name="Bloque1"><rect class="cls-1" x="72.55" y="70.9" width="4.89" height="4.72"/><polygon class="cls-2" points="72.55 75.62 71.56 75.14 71.56 70.42 72.55 70.9 72.55 75.62"/><polygon class="cls-3" points="77.45 70.9 72.55 70.9 71.56 70.42 76.46 70.42 77.45 70.9"/></g><g id="Bloque1-284" data-name="Bloque1"><rect class="cls-1" x="72.55" y="65.9" width="4.89" height="4.72"/><polygon class="cls-2" points="72.55 70.62 71.56 70.14 71.56 65.42 72.55 65.9 72.55 70.62"/><polygon class="cls-3" points="77.45 65.9 72.55 65.9 71.56 65.42 76.46 65.42 77.45 65.9"/></g><g id="Bloque1-285" data-name="Bloque1"><rect class="cls-1" x="72.55" y="60.9" width="4.89" height="4.72"/><polygon class="cls-2" points="72.55 65.62 71.56 65.14 71.56 60.42 72.55 60.9 72.55 65.62"/><polygon class="cls-3" points="77.45 60.9 72.55 60.9 71.56 60.42 76.46 60.42 77.45 60.9"/></g><g id="Bloque1-286" data-name="Bloque1"><rect class="cls-1" x="72.55" y="55.9" width="4.89" height="4.72"/><polygon class="cls-2" points="72.55 60.62 71.56 60.15 71.56 55.43 72.55 55.91 72.55 60.62"/><polygon class="cls-3" points="77.45 55.91 72.55 55.91 71.56 55.43 76.46 55.43 77.45 55.91"/></g><g id="Bloque1-287" data-name="Bloque1"><rect class="cls-1" x="72.55" y="50.91" width="4.89" height="4.72"/><polygon class="cls-2" points="72.55 55.63 71.56 55.15 71.56 50.43 72.55 50.91 72.55 55.63"/><polygon class="cls-3" points="77.45 50.91 72.55 50.91 71.56 50.43 76.46 50.43 77.45 50.91"/></g><g id="Bloque1-288" data-name="Bloque1"><rect class="cls-1" x="72.55" y="45.91" width="4.89" height="4.72"/><polygon class="cls-2" points="72.55 50.63 71.56 50.15 71.56 45.43 72.55 45.91 72.55 50.63"/><polygon class="cls-3" points="77.45 45.91 72.55 45.91 71.56 45.43 76.46 45.43 77.45 45.91"/></g><g id="Bloque1-289" data-name="Bloque1"><rect class="cls-1" x="72.55" y="40.91" width="4.89" height="4.72"/><polygon class="cls-2" points="72.55 45.63 71.56 45.15 71.56 40.43 72.55 40.91 72.55 45.63"/><polygon class="cls-3" points="77.45 40.91 72.55 40.91 71.56 40.43 76.46 40.43 77.45 40.91"/></g><g id="Bloque1-290" data-name="Bloque1"><rect class="cls-1" x="72.55" y="35.91" width="4.89" height="4.72"/><polygon class="cls-2" points="72.55 40.63 71.56 40.15 71.56 35.44 72.55 35.91 72.55 40.63"/><polygon class="cls-3" points="77.45 35.91 72.55 35.91 71.56 35.44 76.46 35.44 77.45 35.91"/></g><g id="Bloque1-291" data-name="Bloque1"><rect class="cls-1" x="67.12" y="80.89" width="4.89" height="4.72"/><polygon class="cls-2" points="67.12 85.61 66.13 85.14 66.13 80.42 67.12 80.89 67.12 85.61"/><polygon class="cls-3" points="72.02 80.89 67.12 80.89 66.13 80.42 71.02 80.42 72.02 80.89"/></g><g id="Bloque1-292" data-name="Bloque1"><rect class="cls-1" x="67.12" y="75.9" width="4.89" height="4.72"/><polygon class="cls-2" points="67.12 80.61 66.13 80.14 66.13 75.42 67.12 75.9 67.12 80.61"/><polygon class="cls-3" points="72.02 75.9 67.12 75.9 66.13 75.42 71.02 75.42 72.02 75.9"/></g><g id="Bloque1-293" data-name="Bloque1"><rect class="cls-1" x="67.12" y="70.9" width="4.89" height="4.72"/><polygon class="cls-2" points="67.12 75.62 66.13 75.14 66.13 70.42 67.12 70.9 67.12 75.62"/><polygon class="cls-3" points="72.02 70.9 67.12 70.9 66.13 70.42 71.02 70.42 72.02 70.9"/></g><g id="Bloque1-294" data-name="Bloque1"><rect class="cls-1" x="67.12" y="65.9" width="4.89" height="4.72"/><polygon class="cls-2" points="67.12 70.62 66.13 70.14 66.13 65.42 67.12 65.9 67.12 70.62"/><polygon class="cls-3" points="72.02 65.9 67.12 65.9 66.13 65.42 71.02 65.42 72.02 65.9"/></g><g id="Bloque1-295" data-name="Bloque1"><rect class="cls-1" x="67.12" y="60.9" width="4.89" height="4.72"/><polygon class="cls-2" points="67.12 65.62 66.13 65.14 66.13 60.42 67.12 60.9 67.12 65.62"/><polygon class="cls-3" points="72.02 60.9 67.12 60.9 66.13 60.42 71.02 60.42 72.02 60.9"/></g><g id="Bloque1-296" data-name="Bloque1"><rect class="cls-1" x="67.12" y="55.9" width="4.89" height="4.72"/><polygon class="cls-2" points="67.12 60.62 66.13 60.15 66.13 55.43 67.12 55.91 67.12 60.62"/><polygon class="cls-3" points="72.02 55.91 67.12 55.91 66.13 55.43 71.02 55.43 72.02 55.91"/></g><g id="Bloque1-297" data-name="Bloque1"><rect class="cls-1" x="67.12" y="50.91" width="4.89" height="4.72"/><polygon class="cls-2" points="67.12 55.63 66.13 55.15 66.13 50.43 67.12 50.91 67.12 55.63"/><polygon class="cls-3" points="72.02 50.91 67.12 50.91 66.13 50.43 71.02 50.43 72.02 50.91"/></g><g id="Bloque1-298" data-name="Bloque1"><rect class="cls-1" x="67.12" y="45.91" width="4.89" height="4.72"/><polygon class="cls-2" points="67.12 50.63 66.13 50.15 66.13 45.43 67.12 45.91 67.12 50.63"/><polygon class="cls-3" points="72.02 45.91 67.12 45.91 66.13 45.43 71.02 45.43 72.02 45.91"/></g><g id="Bloque1-299" data-name="Bloque1"><rect class="cls-1" x="67.12" y="40.91" width="4.89" height="4.72"/><polygon class="cls-2" points="67.12 45.63 66.13 45.15 66.13 40.43 67.12 40.91 67.12 45.63"/><polygon class="cls-3" points="72.02 40.91 67.12 40.91 66.13 40.43 71.02 40.43 72.02 40.91"/></g><g id="Bloque1-300" data-name="Bloque1"><rect class="cls-1" x="67.12" y="35.91" width="4.89" height="4.72"/><polygon class="cls-2" points="67.12 40.63 66.13 40.15 66.13 35.44 67.12 35.91 67.12 40.63"/><polygon class="cls-3" points="72.02 35.91 67.12 35.91 66.13 35.44 71.02 35.44 72.02 35.91"/></g></g></g></svg>