<svg xmlns="http://www.w3.org/2000/svg" viewBox="0 0 120.85 85.64"><defs><style>.cls-1{fill:none;}.cls-2{fill:#f6c628;}.cls-3{fill:#b42827;}.cls-4{fill:#e35328;}</style></defs><title>c2cuadro</title><g id="Layer_2" data-name="Layer 2"><g id="Tabla_C" data-name="Tabla C"><rect class="cls-1" width="120.85" height="85.64"/><g id="Bloque1"><rect class="cls-2" x="66.64" y="55.55" width="4.89" height="4.72"/><polygon class="cls-3" points="66.64 60.27 65.64 59.79 65.64 55.07 66.64 55.55 66.64 60.27"/><polygon class="cls-4" points="71.53 55.55 66.64 55.55 65.64 55.07 70.54 55.07 71.53 55.55"/></g><g id="Bloque1-2" data-name="Bloque1"><rect class="cls-2" x="66.64" y="50.55" width="4.89" height="4.72"/><polygon class="cls-3" points="66.64 55.27 65.64 54.79 65.64 50.07 66.64 50.55 66.64 55.27"/><polygon class="cls-4" points="71.53 50.55 66.64 50.55 65.64 50.07 70.54 50.07 71.53 50.55"/></g><g id="Bloque1-3" data-name="Bloque1"><rect class="cls-2" x="66.64" y="45.55" width="4.89" height="4.72"/><polygon class="cls-3" points="66.64 50.27 65.64 49.8 65.64 45.08 66.64 45.55 66.64 50.27"/><polygon class="cls-4" points="71.53 45.55 66.64 45.55 65.64 45.08 70.54 45.08 71.53 45.55"/></g><g id="Bloque1-4" data-name="Bloque1"><rect class="cls-2" x="66.64" y="40.56" width="4.89" height="4.72"/><polygon class="cls-3" points="66.64 45.28 65.64 44.8 65.64 40.08 66.64 40.56 66.64 45.28"/><polygon class="cls-4" points="71.53 40.56 66.64 40.56 65.64 40.08 70.54 40.08 71.53 40.56"/></g><g id="Bloque1-5" data-name="Bloque1"><rect class="cls-2" x="66.64" y="35.56" width="4.89" height="4.72"/><polygon class="cls-3" points="66.64 40.28 65.64 39.8 65.64 35.08 66.64 35.56 66.64 40.28"/><polygon class="cls-4" points="71.53 35.56 66.64 35.56 65.64 35.08 70.54 35.08 71.53 35.56"/></g><g id="Bloque1-6" data-name="Bloque1"><rect class="cls-2" x="66.64" y="30.56" width="4.89" height="4.72"/><polygon class="cls-3" points="66.64 35.28 65.64 34.8 65.64 30.08 66.64 30.56 66.64 35.28"/><polygon class="cls-4" points="71.53 30.56 66.64 30.56 65.64 30.08 70.54 30.08 71.53 30.56"/></g><g id="Bloque1-7" data-name="Bloque1"><rect class="cls-2" x="66.64" y="25.56" width="4.89" height="4.72"/><polygon class="cls-3" points="66.64 30.28 65.64 29.8 65.64 25.09 66.64 25.56 66.64 30.28"/><polygon class="cls-4" points="71.53 25.56 66.64 25.56 65.64 25.09 70.54 25.09 71.53 25.56"/></g><g id="Bloque1-8" data-name="Bloque1"><rect class="cls-2" x="66.64" y="20.57" width="4.89" height="4.72"/><polygon class="cls-3" points="66.64 25.28 65.64 24.81 65.64 20.09 66.64 20.57 66.64 25.28"/><polygon class="cls-4" points="71.53 20.57 66.64 20.57 65.64 20.09 70.54 20.09 71.53 20.57"/></g><g id="Bloque1-9" data-name="Bloque1"><rect class="cls-2" x="66.64" y="15.57" width="4.89" height="4.72"/><polygon class="cls-3" points="66.64 20.29 65.64 19.81 65.64 15.09 66.64 15.57 66.64 20.29"/><polygon class="cls-4" points="71.53 15.57 66.64 15.57 65.64 15.09 70.54 15.09 71.53 15.57"/></g><g id="Bloque1-10" data-name="Bloque1"><rect class="cls-2" x="66.64" y="10.57" width="4.89" height="4.72"/><polygon class="cls-3" points="66.64 15.29 65.64 14.81 65.64 10.09 66.64 10.57 66.64 15.29"/><polygon class="cls-4" points="71.53 10.57 66.64 10.57 65.64 10.09 70.54 10.09 71.53 10.57"/></g><g id="Bloque1-11" data-name="Bloque1"><rect class="cls-2" x="61.2" y="55.55" width="4.89" height="4.72"/><polygon class="cls-3" points="61.2 60.27 60.21 59.79 60.21 55.07 61.2 55.55 61.2 60.27"/><polygon class="cls-4" points="66.1 55.55 61.2 55.55 60.21 55.07 65.11 55.07 66.1 55.55"/></g><g id="Bloque1-12" data-name="Bloque1"><rect class="cls-2" x="61.2" y="50.55" width="4.89" height="4.72"/><polygon class="cls-3" points="61.2 55.27 60.21 54.79 60.21 50.07 61.2 50.55 61.2 55.27"/><polygon class="cls-4" points="66.1 50.55 61.2 50.55 60.21 50.07 65.11 50.07 66.1 50.55"/></g><g id="Bloque1-13" data-name="Bloque1"><rect class="cls-2" x="61.2" y="45.55" width="4.89" height="4.72"/><polygon class="cls-3" points="61.2 50.27 60.21 49.8 60.21 45.08 61.2 45.55 61.2 50.27"/><polygon class="cls-4" points="66.1 45.55 61.2 45.55 60.21 45.08 65.11 45.08 66.1 45.55"/></g><g id="Bloque1-14" data-name="Bloque1"><rect class="cls-2" x="61.2" y="40.56" width="4.89" height="4.72"/><polygon class="cls-3" points="61.2 45.28 60.21 44.8 60.21 40.08 61.2 40.56 61.2 45.28"/><polygon class="cls-4" points="66.1 40.56 61.2 40.56 60.21 40.08 65.11 40.08 66.1 40.56"/></g><g id="Bloque1-15" data-name="Bloque1"><rect class="cls-2" x="61.2" y="35.56" width="4.89" height="4.72"/><polygon class="cls-3" points="61.2 40.28 60.21 39.8 60.21 35.08 61.2 35.56 61.2 40.28"/><polygon class="cls-4" points="66.1 35.56 61.2 35.56 60.21 35.08 65.11 35.08 66.1 35.56"/></g><g id="Bloque1-16" data-name="Bloque1"><rect class="cls-2" x="61.2" y="30.56" width="4.89" height="4.72"/><polygon class="cls-3" points="61.2 35.28 60.21 34.8 60.21 30.08 61.2 30.56 61.2 35.28"/><polygon class="cls-4" points="66.1 30.56 61.2 30.56 60.21 30.08 65.11 30.08 66.1 30.56"/></g><g id="Bloque1-17" data-name="Bloque1"><rect class="cls-2" x="61.2" y="25.56" width="4.89" height="4.72"/><polygon class="cls-3" points="61.2 30.28 60.21 29.8 60.21 25.09 61.2 25.56 61.2 30.28"/><polygon class="cls-4" points="66.1 25.56 61.2 25.56 60.21 25.09 65.11 25.09 66.1 25.56"/></g><g id="Bloque1-18" data-name="Bloque1"><rect class="cls-2" x="61.2" y="20.57" width="4.89" height="4.72"/><polygon class="cls-3" points="61.2 25.28 60.21 24.81 60.21 20.09 61.2 20.57 61.2 25.28"/><polygon class="cls-4" points="66.1 20.57 61.2 20.57 60.21 20.09 65.11 20.09 66.1 20.57"/></g><g id="Bloque1-19" data-name="Bloque1"><rect class="cls-2" x="61.2" y="15.57" width="4.89" height="4.72"/><polygon class="cls-3" points="61.2 20.29 60.21 19.81 60.21 15.09 61.2 15.57 61.2 20.29"/><polygon class="cls-4" points="66.1 15.57 61.2 15.57 60.21 15.09 65.11 15.09 66.1 15.57"/></g><g id="Bloque1-20" data-name="Bloque1"><rect class="cls-2" x="61.2" y="10.57" width="4.89" height="4.72"/><polygon class="cls-3" points="61.2 15.29 60.21 14.81 60.21 10.09 61.2 10.57 61.2 15.29"/><polygon class="cls-4" points="66.1 10.57 61.2 10.57 60.21 10.09 65.11 10.09 66.1 10.57"/></g><g id="Bloque1-21" data-name="Bloque1"><rect class="cls-2" x="55.77" y="55.55" width="4.89" height="4.72"/><polygon class="cls-3" points="55.77 60.27 54.78 59.79 54.78 55.07 55.77 55.55 55.77 60.27"/><polygon class="cls-4" points="60.66 55.55 55.77 55.55 54.78 55.07 59.67 55.07 60.66 55.55"/></g><g id="Bloque1-22" data-name="Bloque1"><rect class="cls-2" x="55.77" y="50.55" width="4.89" height="4.72"/><polygon class="cls-3" points="55.77 55.27 54.78 54.79 54.78 50.07 55.77 50.55 55.77 55.27"/><polygon class="cls-4" points="60.66 50.55 55.77 50.55 54.78 50.07 59.67 50.07 60.66 50.55"/></g><g id="Bloque1-23" data-name="Bloque1"><rect class="cls-2" x="55.77" y="45.55" width="4.89" height="4.72"/><polygon class="cls-3" points="55.77 50.27 54.78 49.8 54.78 45.08 55.77 45.55 55.77 50.27"/><polygon class="cls-4" points="60.66 45.55 55.77 45.55 54.78 45.08 59.67 45.08 60.66 45.55"/></g><g id="Bloque1-24" data-name="Bloque1"><rect class="cls-2" x="55.77" y="40.56" width="4.89" height="4.72"/><polygon class="cls-3" points="55.77 45.28 54.78 44.8 54.78 40.08 55.77 40.56 55.77 45.28"/><polygon class="cls-4" points="60.66 40.56 55.77 40.56 54.78 40.08 59.67 40.08 60.66 40.56"/></g><g id="Bloque1-25" data-name="Bloque1"><rect class="cls-2" x="55.77" y="35.56" width="4.89" height="4.72"/><polygon class="cls-3" points="55.77 40.28 54.78 39.8 54.78 35.08 55.77 35.56 55.77 40.28"/><polygon class="cls-4" points="60.66 35.56 55.77 35.56 54.78 35.08 59.67 35.08 60.66 35.56"/></g><g id="Bloque1-26" data-name="Bloque1"><rect class="cls-2" x="55.77" y="30.56" width="4.89" height="4.72"/><polygon class="cls-3" points="55.77 35.28 54.78 34.8 54.78 30.08 55.77 30.56 55.77 35.28"/><polygon class="cls-4" points="60.66 30.56 55.77 30.56 54.78 30.08 59.67 30.08 60.66 30.56"/></g><g id="Bloque1-27" data-name="Bloque1"><rect class="cls-2" x="55.77" y="25.56" width="4.89" height="4.72"/><polygon class="cls-3" points="55.77 30.28 54.78 29.8 54.78 25.09 55.77 25.56 55.77 30.28"/><polygon class="cls-4" points="60.66 25.56 55.77 25.56 54.78 25.09 59.67 25.09 60.66 25.56"/></g><g id="Bloque1-28" data-name="Bloque1"><rect class="cls-2" x="55.77" y="20.57" width="4.89" height="4.72"/><polygon class="cls-3" points="55.77 25.28 54.78 24.81 54.78 20.09 55.77 20.57 55.77 25.28"/><polygon class="cls-4" points="60.66 20.57 55.77 20.57 54.78 20.09 59.67 20.09 60.66 20.57"/></g><g id="Bloque1-29" data-name="Bloque1"><rect class="cls-2" x="55.77" y="15.57" width="4.89" height="4.72"/><polygon class="cls-3" points="55.77 20.29 54.78 19.81 54.78 15.09 55.77 15.57 55.77 20.29"/><polygon class="cls-4" points="60.66 15.57 55.77 15.57 54.78 15.09 59.67 15.09 60.66 15.57"/></g><g id="Bloque1-30" data-name="Bloque1"><rect class="cls-2" x="55.77" y="10.57" width="4.89" height="4.72"/><polygon class="cls-3" points="55.77 15.29 54.78 14.81 54.78 10.09 55.77 10.57 55.77 15.29"/><polygon class="cls-4" points="60.66 10.57 55.77 10.57 54.78 10.09 59.67 10.09 60.66 10.57"/></g><g id="Bloque1-31" data-name="Bloque1"><rect class="cls-2" x="50.34" y="55.55" width="4.89" height="4.72"/><polygon class="cls-3" points="50.34 60.27 49.35 59.79 49.35 55.07 50.34 55.55 50.34 60.27"/><polygon class="cls-4" points="55.23 55.55 50.34 55.55 49.35 55.07 54.24 55.07 55.23 55.55"/></g><g id="Bloque1-32" data-name="Bloque1"><rect class="cls-2" x="50.34" y="50.55" width="4.89" height="4.72"/><polygon class="cls-3" points="50.34 55.27 49.35 54.79 49.35 50.07 50.34 50.55 50.34 55.27"/><polygon class="cls-4" points="55.23 50.55 50.34 50.55 49.35 50.07 54.24 50.07 55.23 50.55"/></g><g id="Bloque1-33" data-name="Bloque1"><rect class="cls-2" x="50.34" y="45.55" width="4.89" height="4.72"/><polygon class="cls-3" points="50.34 50.27 49.35 49.8 49.35 45.08 50.34 45.55 50.34 50.27"/><polygon class="cls-4" points="55.23 45.55 50.34 45.55 49.35 45.08 54.24 45.08 55.23 45.55"/></g><g id="Bloque1-34" data-name="Bloque1"><rect class="cls-2" x="50.34" y="40.56" width="4.89" height="4.72"/><polygon class="cls-3" points="50.34 45.28 49.35 44.8 49.35 40.08 50.34 40.56 50.34 45.28"/><polygon class="cls-4" points="55.23 40.56 50.34 40.56 49.35 40.08 54.24 40.08 55.23 40.56"/></g><g id="Bloque1-35" data-name="Bloque1"><rect class="cls-2" x="50.34" y="35.56" width="4.89" height="4.72"/><polygon class="cls-3" points="50.34 40.28 49.35 39.8 49.35 35.08 50.34 35.56 50.34 40.28"/><polygon class="cls-4" points="55.23 35.56 50.34 35.56 49.35 35.08 54.24 35.08 55.23 35.56"/></g><g id="Bloque1-36" data-name="Bloque1"><rect class="cls-2" x="50.34" y="30.56" width="4.89" height="4.72"/><polygon class="cls-3" points="50.34 35.28 49.35 34.8 49.35 30.08 50.34 30.56 50.34 35.28"/><polygon class="cls-4" points="55.23 30.56 50.34 30.56 49.35 30.08 54.24 30.08 55.23 30.56"/></g><g id="Bloque1-37" data-name="Bloque1"><rect class="cls-2" x="50.34" y="25.56" width="4.89" height="4.72"/><polygon class="cls-3" points="50.34 30.28 49.35 29.8 49.35 25.09 50.34 25.56 50.34 30.28"/><polygon class="cls-4" points="55.23 25.56 50.34 25.56 49.35 25.09 54.24 25.09 55.23 25.56"/></g><g id="Bloque1-38" data-name="Bloque1"><rect class="cls-2" x="50.34" y="20.57" width="4.89" height="4.72"/><polygon class="cls-3" points="50.34 25.28 49.35 24.81 49.35 20.09 50.34 20.57 50.34 25.28"/><polygon class="cls-4" points="55.23 20.57 50.34 20.57 49.35 20.09 54.24 20.09 55.23 20.57"/></g><g id="Bloque1-39" data-name="Bloque1"><rect class="cls-2" x="50.34" y="15.57" width="4.89" height="4.72"/><polygon class="cls-3" points="50.34 20.29 49.35 19.81 49.35 15.09 50.34 15.57 50.34 20.29"/><polygon class="cls-4" points="55.23 15.57 50.34 15.57 49.35 15.09 54.24 15.09 55.23 15.57"/></g><g id="Bloque1-40" data-name="Bloque1"><rect class="cls-2" x="50.34" y="10.57" width="4.89" height="4.72"/><polygon class="cls-3" points="50.34 15.29 49.35 14.81 49.35 10.09 50.34 10.57 50.34 15.29"/><polygon class="cls-4" points="55.23 10.57 50.34 10.57 49.35 10.09 54.24 10.09 55.23 10.57"/></g><g id="Bloque1-41" data-name="Bloque1"><rect class="cls-2" x="44.91" y="55.55" width="4.89" height="4.72"/><polygon class="cls-3" points="44.91 60.27 43.91 59.79 43.91 55.07 44.91 55.55 44.91 60.27"/><polygon class="cls-4" points="49.8 55.55 44.91 55.55 43.91 55.07 48.81 55.07 49.8 55.55"/></g><g id="Bloque1-42" data-name="Bloque1"><rect class="cls-2" x="44.91" y="50.55" width="4.89" height="4.72"/><polygon class="cls-3" points="44.91 55.27 43.91 54.79 43.91 50.07 44.91 50.55 44.91 55.27"/><polygon class="cls-4" points="49.8 50.55 44.91 50.55 43.91 50.07 48.81 50.07 49.8 50.55"/></g><g id="Bloque1-43" data-name="Bloque1"><rect class="cls-2" x="44.91" y="45.55" width="4.89" height="4.72"/><polygon class="cls-3" points="44.91 50.27 43.91 49.8 43.91 45.08 44.91 45.55 44.91 50.27"/><polygon class="cls-4" points="49.8 45.55 44.91 45.55 43.91 45.08 48.81 45.08 49.8 45.55"/></g><g id="Bloque1-44" data-name="Bloque1"><rect class="cls-2" x="44.91" y="40.56" width="4.89" height="4.72"/><polygon class="cls-3" points="44.91 45.28 43.91 44.8 43.91 40.08 44.91 40.56 44.91 45.28"/><polygon class="cls-4" points="49.8 40.56 44.91 40.56 43.91 40.08 48.81 40.08 49.8 40.56"/></g><g id="Bloque1-45" data-name="Bloque1"><rect class="cls-2" x="44.91" y="35.56" width="4.89" height="4.72"/><polygon class="cls-3" points="44.91 40.28 43.91 39.8 43.91 35.08 44.91 35.56 44.91 40.28"/><polygon class="cls-4" points="49.8 35.56 44.91 35.56 43.91 35.08 48.81 35.08 49.8 35.56"/></g><g id="Bloque1-46" data-name="Bloque1"><rect class="cls-2" x="44.91" y="30.56" width="4.89" height="4.72"/><polygon class="cls-3" points="44.91 35.28 43.91 34.8 43.91 30.08 44.91 30.56 44.91 35.28"/><polygon class="cls-4" points="49.8 30.56 44.91 30.56 43.91 30.08 48.81 30.08 49.8 30.56"/></g><g id="Bloque1-47" data-name="Bloque1"><rect class="cls-2" x="44.91" y="25.56" width="4.89" height="4.72"/><polygon class="cls-3" points="44.91 30.28 43.91 29.8 43.91 25.09 44.91 25.56 44.91 30.28"/><polygon class="cls-4" points="49.8 25.56 44.91 25.56 43.91 25.09 48.81 25.09 49.8 25.56"/></g><g id="Bloque1-48" data-name="Bloque1"><rect class="cls-2" x="44.91" y="20.57" width="4.89" height="4.72"/><polygon class="cls-3" points="44.91 25.28 43.91 24.81 43.91 20.09 44.91 20.57 44.91 25.28"/><polygon class="cls-4" points="49.8 20.57 44.91 20.57 43.91 20.09 48.81 20.09 49.8 20.57"/></g><g id="Bloque1-49" data-name="Bloque1"><rect class="cls-2" x="44.91" y="15.57" width="4.89" height="4.72"/><polygon class="cls-3" points="44.91 20.29 43.91 19.81 43.91 15.09 44.91 15.57 44.91 20.29"/><polygon class="cls-4" points="49.8 15.57 44.91 15.57 43.91 15.09 48.81 15.09 49.8 15.57"/></g><g id="Bloque1-50" data-name="Bloque1"><rect class="cls-2" x="44.91" y="10.57" width="4.89" height="4.72"/><polygon class="cls-3" points="44.91 15.29 43.91 14.81 43.91 10.09 44.91 10.57 44.91 15.29"/><polygon class="cls-4" points="49.8 10.57 44.91 10.57 43.91 10.09 48.81 10.09 49.8 10.57"/></g><g id="Bloque1-51" data-name="Bloque1"><rect class="cls-2" x="39.47" y="55.55" width="4.89" height="4.72"/><polygon class="cls-3" points="39.47 60.27 38.48 59.79 38.48 55.07 39.47 55.55 39.47 60.27"/><polygon class="cls-4" points="44.37 55.55 39.47 55.55 38.48 55.07 43.38 55.07 44.37 55.55"/></g><g id="Bloque1-52" data-name="Bloque1"><rect class="cls-2" x="39.47" y="50.55" width="4.89" height="4.72"/><polygon class="cls-3" points="39.47 55.27 38.48 54.79 38.48 50.07 39.47 50.55 39.47 55.27"/><polygon class="cls-4" points="44.37 50.55 39.47 50.55 38.48 50.07 43.38 50.07 44.37 50.55"/></g><g id="Bloque1-53" data-name="Bloque1"><rect class="cls-2" x="39.47" y="45.55" width="4.89" height="4.72"/><polygon class="cls-3" points="39.47 50.27 38.48 49.8 38.48 45.08 39.47 45.55 39.47 50.27"/><polygon class="cls-4" points="44.37 45.55 39.47 45.55 38.48 45.08 43.38 45.08 44.37 45.55"/></g><g id="Bloque1-54" data-name="Bloque1"><rect class="cls-2" x="39.47" y="40.56" width="4.89" height="4.72"/><polygon class="cls-3" points="39.47 45.28 38.48 44.8 38.48 40.08 39.47 40.56 39.47 45.28"/><polygon class="cls-4" points="44.37 40.56 39.47 40.56 38.48 40.08 43.38 40.08 44.37 40.56"/></g><g id="Bloque1-55" data-name="Bloque1"><rect class="cls-2" x="39.47" y="35.56" width="4.89" height="4.72"/><polygon class="cls-3" points="39.47 40.28 38.48 39.8 38.48 35.08 39.47 35.56 39.47 40.28"/><polygon class="cls-4" points="44.37 35.56 39.47 35.56 38.48 35.08 43.38 35.08 44.37 35.56"/></g><g id="Bloque1-56" data-name="Bloque1"><rect class="cls-2" x="39.47" y="30.56" width="4.89" height="4.72"/><polygon class="cls-3" points="39.47 35.28 38.48 34.8 38.48 30.08 39.47 30.56 39.47 35.28"/><polygon class="cls-4" points="44.37 30.56 39.47 30.56 38.48 30.08 43.38 30.08 44.37 30.56"/></g><g id="Bloque1-57" data-name="Bloque1"><rect class="cls-2" x="39.47" y="25.56" width="4.89" height="4.72"/><polygon class="cls-3" points="39.47 30.28 38.48 29.8 38.48 25.09 39.47 25.56 39.47 30.28"/><polygon class="cls-4" points="44.37 25.56 39.47 25.56 38.48 25.09 43.38 25.09 44.37 25.56"/></g><g id="Bloque1-58" data-name="Bloque1"><rect class="cls-2" x="39.47" y="20.57" width="4.89" height="4.72"/><polygon class="cls-3" points="39.47 25.28 38.48 24.81 38.48 20.09 39.47 20.57 39.47 25.28"/><polygon class="cls-4" points="44.37 20.57 39.47 20.57 38.48 20.09 43.38 20.09 44.37 20.57"/></g><g id="Bloque1-59" data-name="Bloque1"><rect class="cls-2" x="39.47" y="15.57" width="4.89" height="4.72"/><polygon class="cls-3" points="39.47 20.29 38.48 19.81 38.48 15.09 39.47 15.57 39.47 20.29"/><polygon class="cls-4" points="44.37 15.57 39.47 15.57 38.48 15.09 43.38 15.09 44.37 15.57"/></g><g id="Bloque1-60" data-name="Bloque1"><rect class="cls-2" x="39.47" y="10.57" width="4.89" height="4.72"/><polygon class="cls-3" points="39.47 15.29 38.48 14.81 38.48 10.09 39.47 10.57 39.47 15.29"/><polygon class="cls-4" points="44.37 10.57 39.47 10.57 38.48 10.09 43.38 10.09 44.37 10.57"/></g><g id="Bloque1-61" data-name="Bloque1"><rect class="cls-2" x="34.04" y="55.55" width="4.89" height="4.72"/><polygon class="cls-3" points="34.04 60.27 33.05 59.79 33.05 55.07 34.04 55.55 34.04 60.27"/><polygon class="cls-4" points="38.94 55.55 34.04 55.55 33.05 55.07 37.94 55.07 38.94 55.55"/></g><g id="Bloque1-62" data-name="Bloque1"><rect class="cls-2" x="34.04" y="50.55" width="4.89" height="4.72"/><polygon class="cls-3" points="34.04 55.27 33.05 54.79 33.05 50.07 34.04 50.55 34.04 55.27"/><polygon class="cls-4" points="38.94 50.55 34.04 50.55 33.05 50.07 37.94 50.07 38.94 50.55"/></g><g id="Bloque1-63" data-name="Bloque1"><rect class="cls-2" x="34.04" y="45.55" width="4.89" height="4.72"/><polygon class="cls-3" points="34.04 50.27 33.05 49.8 33.05 45.08 34.04 45.55 34.04 50.27"/><polygon class="cls-4" points="38.94 45.55 34.04 45.55 33.05 45.08 37.94 45.08 38.94 45.55"/></g><g id="Bloque1-64" data-name="Bloque1"><rect class="cls-2" x="34.04" y="40.56" width="4.89" height="4.72"/><polygon class="cls-3" points="34.04 45.28 33.05 44.8 33.05 40.08 34.04 40.56 34.04 45.28"/><polygon class="cls-4" points="38.94 40.56 34.04 40.56 33.05 40.08 37.94 40.08 38.94 40.56"/></g><g id="Bloque1-65" data-name="Bloque1"><rect class="cls-2" x="34.04" y="35.56" width="4.89" height="4.72"/><polygon class="cls-3" points="34.04 40.28 33.05 39.8 33.05 35.08 34.04 35.56 34.04 40.28"/><polygon class="cls-4" points="38.94 35.56 34.04 35.56 33.05 35.08 37.94 35.08 38.94 35.56"/></g><g id="Bloque1-66" data-name="Bloque1"><rect class="cls-2" x="34.04" y="30.56" width="4.89" height="4.72"/><polygon class="cls-3" points="34.04 35.28 33.05 34.8 33.05 30.08 34.04 30.56 34.04 35.28"/><polygon class="cls-4" points="38.94 30.56 34.04 30.56 33.05 30.08 37.94 30.08 38.94 30.56"/></g><g id="Bloque1-67" data-name="Bloque1"><rect class="cls-2" x="34.04" y="25.56" width="4.89" height="4.72"/><polygon class="cls-3" points="34.04 30.28 33.05 29.8 33.05 25.09 34.04 25.56 34.04 30.28"/><polygon class="cls-4" points="38.94 25.56 34.04 25.56 33.05 25.09 37.94 25.09 38.94 25.56"/></g><g id="Bloque1-68" data-name="Bloque1"><rect class="cls-2" x="34.04" y="20.57" width="4.89" height="4.72"/><polygon class="cls-3" points="34.04 25.28 33.05 24.81 33.05 20.09 34.04 20.57 34.04 25.28"/><polygon class="cls-4" points="38.94 20.57 34.04 20.57 33.05 20.09 37.94 20.09 38.94 20.57"/></g><g id="Bloque1-69" data-name="Bloque1"><rect class="cls-2" x="34.04" y="15.57" width="4.89" height="4.72"/><polygon class="cls-3" points="34.04 20.29 33.05 19.81 33.05 15.09 34.04 15.57 34.04 20.29"/><polygon class="cls-4" points="38.94 15.57 34.04 15.57 33.05 15.09 37.94 15.09 38.94 15.57"/></g><g id="Bloque1-70" data-name="Bloque1"><rect class="cls-2" x="34.04" y="10.57" width="4.89" height="4.72"/><polygon class="cls-3" points="34.04 15.29 33.05 14.81 33.05 10.09 34.04 10.57 34.04 15.29"/><polygon class="cls-4" points="38.94 10.57 34.04 10.57 33.05 10.09 37.94 10.09 38.94 10.57"/></g><g id="Bloque1-71" data-name="Bloque1"><rect class="cls-2" x="28.61" y="55.55" width="4.89" height="4.72"/><polygon class="cls-3" points="28.61 60.27 27.62 59.79 27.62 55.07 28.61 55.55 28.61 60.27"/><polygon class="cls-4" points="33.5 55.55 28.61 55.55 27.62 55.07 32.51 55.07 33.5 55.55"/></g><g id="Bloque1-72" data-name="Bloque1"><rect class="cls-2" x="28.61" y="50.55" width="4.89" height="4.72"/><polygon class="cls-3" points="28.61 55.27 27.62 54.79 27.62 50.07 28.61 50.55 28.61 55.27"/><polygon class="cls-4" points="33.5 50.55 28.61 50.55 27.62 50.07 32.51 50.07 33.5 50.55"/></g><g id="Bloque1-73" data-name="Bloque1"><rect class="cls-2" x="28.61" y="45.55" width="4.89" height="4.72"/><polygon class="cls-3" points="28.61 50.27 27.62 49.8 27.62 45.08 28.61 45.55 28.61 50.27"/><polygon class="cls-4" points="33.5 45.55 28.61 45.55 27.62 45.08 32.51 45.08 33.5 45.55"/></g><g id="Bloque1-74" data-name="Bloque1"><rect class="cls-2" x="28.61" y="40.56" width="4.89" height="4.72"/><polygon class="cls-3" points="28.61 45.28 27.62 44.8 27.62 40.08 28.61 40.56 28.61 45.28"/><polygon class="cls-4" points="33.5 40.56 28.61 40.56 27.62 40.08 32.51 40.08 33.5 40.56"/></g><g id="Bloque1-75" data-name="Bloque1"><rect class="cls-2" x="28.61" y="35.56" width="4.89" height="4.72"/><polygon class="cls-3" points="28.61 40.28 27.62 39.8 27.62 35.08 28.61 35.56 28.61 40.28"/><polygon class="cls-4" points="33.5 35.56 28.61 35.56 27.62 35.08 32.51 35.08 33.5 35.56"/></g><g id="Bloque1-76" data-name="Bloque1"><rect class="cls-2" x="28.61" y="30.56" width="4.89" height="4.72"/><polygon class="cls-3" points="28.61 35.28 27.62 34.8 27.62 30.08 28.61 30.56 28.61 35.28"/><polygon class="cls-4" points="33.5 30.56 28.61 30.56 27.62 30.08 32.51 30.08 33.5 30.56"/></g><g id="Bloque1-77" data-name="Bloque1"><rect class="cls-2" x="28.61" y="25.56" width="4.89" height="4.72"/><polygon class="cls-3" points="28.61 30.28 27.62 29.8 27.62 25.09 28.61 25.56 28.61 30.28"/><polygon class="cls-4" points="33.5 25.56 28.61 25.56 27.62 25.09 32.51 25.09 33.5 25.56"/></g><g id="Bloque1-78" data-name="Bloque1"><rect class="cls-2" x="28.61" y="20.57" width="4.89" height="4.72"/><polygon class="cls-3" points="28.61 25.28 27.62 24.81 27.62 20.09 28.61 20.57 28.61 25.28"/><polygon class="cls-4" points="33.5 20.57 28.61 20.57 27.62 20.09 32.51 20.09 33.5 20.57"/></g><g id="Bloque1-79" data-name="Bloque1"><rect class="cls-2" x="28.61" y="15.57" width="4.89" height="4.72"/><polygon class="cls-3" points="28.61 20.29 27.62 19.81 27.62 15.09 28.61 15.57 28.61 20.29"/><polygon class="cls-4" points="33.5 15.57 28.61 15.57 27.62 15.09 32.51 15.09 33.5 15.57"/></g><g id="Bloque1-80" data-name="Bloque1"><rect class="cls-2" x="28.61" y="10.57" width="4.89" height="4.72"/><polygon class="cls-3" points="28.61 15.29 27.62 14.81 27.62 10.09 28.61 10.57 28.61 15.29"/><polygon class="cls-4" points="33.5 10.57 28.61 10.57 27.62 10.09 32.51 10.09 33.5 10.57"/></g><g id="Bloque1-81" data-name="Bloque1"><rect class="cls-2" x="23.18" y="55.55" width="4.89" height="4.72"/><polygon class="cls-3" points="23.18 60.27 22.18 59.79 22.18 55.07 23.18 55.55 23.18 60.27"/><polygon class="cls-4" points="28.07 55.55 23.18 55.55 22.18 55.07 27.08 55.07 28.07 55.55"/></g><g id="Bloque1-82" data-name="Bloque1"><rect class="cls-2" x="23.18" y="50.55" width="4.89" height="4.72"/><polygon class="cls-3" points="23.18 55.27 22.18 54.79 22.18 50.07 23.18 50.55 23.18 55.27"/><polygon class="cls-4" points="28.07 50.55 23.18 50.55 22.18 50.07 27.08 50.07 28.07 50.55"/></g><g id="Bloque1-83" data-name="Bloque1"><rect class="cls-2" x="23.18" y="45.55" width="4.89" height="4.72"/><polygon class="cls-3" points="23.18 50.27 22.18 49.8 22.18 45.08 23.18 45.55 23.18 50.27"/><polygon class="cls-4" points="28.07 45.55 23.18 45.55 22.18 45.08 27.08 45.08 28.07 45.55"/></g><g id="Bloque1-84" data-name="Bloque1"><rect class="cls-2" x="23.18" y="40.56" width="4.89" height="4.72"/><polygon class="cls-3" points="23.18 45.28 22.18 44.8 22.18 40.08 23.18 40.56 23.18 45.28"/><polygon class="cls-4" points="28.07 40.56 23.18 40.56 22.18 40.08 27.08 40.08 28.07 40.56"/></g><g id="Bloque1-85" data-name="Bloque1"><rect class="cls-2" x="23.18" y="35.56" width="4.89" height="4.72"/><polygon class="cls-3" points="23.18 40.28 22.18 39.8 22.18 35.08 23.18 35.56 23.18 40.28"/><polygon class="cls-4" points="28.07 35.56 23.18 35.56 22.18 35.08 27.08 35.08 28.07 35.56"/></g><g id="Bloque1-86" data-name="Bloque1"><rect class="cls-2" x="23.18" y="30.56" width="4.89" height="4.72"/><polygon class="cls-3" points="23.18 35.28 22.18 34.8 22.18 30.08 23.18 30.56 23.18 35.28"/><polygon class="cls-4" points="28.07 30.56 23.18 30.56 22.18 30.08 27.08 30.08 28.07 30.56"/></g><g id="Bloque1-87" data-name="Bloque1"><rect class="cls-2" x="23.18" y="25.56" width="4.89" height="4.72"/><polygon class="cls-3" points="23.18 30.28 22.18 29.8 22.18 25.09 23.18 25.56 23.18 30.28"/><polygon class="cls-4" points="28.07 25.56 23.18 25.56 22.18 25.09 27.08 25.09 28.07 25.56"/></g><g id="Bloque1-88" data-name="Bloque1"><rect class="cls-2" x="23.18" y="20.57" width="4.89" height="4.72"/><polygon class="cls-3" points="23.18 25.28 22.18 24.81 22.18 20.09 23.18 20.57 23.18 25.28"/><polygon class="cls-4" points="28.07 20.57 23.18 20.57 22.18 20.09 27.08 20.09 28.07 20.57"/></g><g id="Bloque1-89" data-name="Bloque1"><rect class="cls-2" x="23.18" y="15.57" width="4.89" height="4.72"/><polygon class="cls-3" points="23.18 20.29 22.18 19.81 22.18 15.09 23.18 15.57 23.18 20.29"/><polygon class="cls-4" points="28.07 15.57 23.18 15.57 22.18 15.09 27.08 15.09 28.07 15.57"/></g><g id="Bloque1-90" data-name="Bloque1"><rect class="cls-2" x="23.18" y="10.57" width="4.89" height="4.72"/><polygon class="cls-3" points="23.18 15.29 22.18 14.81 22.18 10.09 23.18 10.57 23.18 15.29"/><polygon class="cls-4" points="28.07 10.57 23.18 10.57 22.18 10.09 27.08 10.09 28.07 10.57"/></g><g id="Bloque1-91" data-name="Bloque1"><rect class="cls-2" x="17.74" y="55.55" width="4.89" height="4.72"/><polygon class="cls-3" points="17.74 60.27 16.75 59.79 16.75 55.07 17.74 55.55 17.74 60.27"/><polygon class="cls-4" points="22.64 55.55 17.74 55.55 16.75 55.07 21.65 55.07 22.64 55.55"/></g><g id="Bloque1-92" data-name="Bloque1"><rect class="cls-2" x="17.74" y="50.55" width="4.89" height="4.72"/><polygon class="cls-3" points="17.74 55.27 16.75 54.79 16.75 50.07 17.74 50.55 17.74 55.27"/><polygon class="cls-4" points="22.64 50.55 17.74 50.55 16.75 50.07 21.65 50.07 22.64 50.55"/></g><g id="Bloque1-93" data-name="Bloque1"><rect class="cls-2" x="17.74" y="45.55" width="4.89" height="4.72"/><polygon class="cls-3" points="17.74 50.27 16.75 49.8 16.75 45.08 17.74 45.55 17.74 50.27"/><polygon class="cls-4" points="22.64 45.55 17.74 45.55 16.75 45.08 21.65 45.08 22.64 45.55"/></g><g id="Bloque1-94" data-name="Bloque1"><rect class="cls-2" x="17.74" y="40.56" width="4.89" height="4.72"/><polygon class="cls-3" points="17.74 45.28 16.75 44.8 16.75 40.08 17.74 40.56 17.74 45.28"/><polygon class="cls-4" points="22.64 40.56 17.74 40.56 16.75 40.08 21.65 40.08 22.64 40.56"/></g><g id="Bloque1-95" data-name="Bloque1"><rect class="cls-2" x="17.74" y="35.56" width="4.89" height="4.72"/><polygon class="cls-3" points="17.74 40.28 16.75 39.8 16.75 35.08 17.74 35.56 17.74 40.28"/><polygon class="cls-4" points="22.64 35.56 17.74 35.56 16.75 35.08 21.65 35.08 22.64 35.56"/></g><g id="Bloque1-96" data-name="Bloque1"><rect class="cls-2" x="17.74" y="30.56" width="4.89" height="4.72"/><polygon class="cls-3" points="17.74 35.28 16.75 34.8 16.75 30.08 17.74 30.56 17.74 35.28"/><polygon class="cls-4" points="22.64 30.56 17.74 30.56 16.75 30.08 21.65 30.08 22.64 30.56"/></g><g id="Bloque1-97" data-name="Bloque1"><rect class="cls-2" x="17.74" y="25.56" width="4.89" height="4.72"/><polygon class="cls-3" points="17.74 30.28 16.75 29.8 16.75 25.09 17.74 25.56 17.74 30.28"/><polygon class="cls-4" points="22.64 25.56 17.74 25.56 16.75 25.09 21.65 25.09 22.64 25.56"/></g><g id="Bloque1-98" data-name="Bloque1"><rect class="cls-2" x="17.74" y="20.57" width="4.89" height="4.72"/><polygon class="cls-3" points="17.74 25.28 16.75 24.81 16.75 20.09 17.74 20.57 17.74 25.28"/><polygon class="cls-4" points="22.64 20.57 17.74 20.57 16.75 20.09 21.65 20.09 22.64 20.57"/></g><g id="Bloque1-99" data-name="Bloque1"><rect class="cls-2" x="17.74" y="15.57" width="4.89" height="4.72"/><polygon class="cls-3" points="17.74 20.29 16.75 19.81 16.75 15.09 17.74 15.57 17.74 20.29"/><polygon class="cls-4" points="22.64 15.57 17.74 15.57 16.75 15.09 21.65 15.09 22.64 15.57"/></g><g id="Bloque1-100" data-name="Bloque1"><rect class="cls-2" x="17.74" y="10.57" width="4.89" height="4.72"/><polygon class="cls-3" points="17.74 15.29 16.75 14.81 16.75 10.09 17.74 10.57 17.74 15.29"/><polygon class="cls-4" points="22.64 10.57 17.74 10.57 16.75 10.09 21.65 10.09 22.64 10.57"/></g><g id="Bloque1-101" data-name="Bloque1"><rect class="cls-2" x="99.21" y="70.83" width="4.89" height="4.72"/><polygon class="cls-3" points="99.21 75.55 98.22 75.07 98.22 70.35 99.21 70.83 99.21 75.55"/><polygon class="cls-4" points="104.1 70.83 99.21 70.83 98.22 70.35 103.11 70.35 104.1 70.83"/></g><g id="Bloque1-102" data-name="Bloque1"><rect class="cls-2" x="99.21" y="65.83" width="4.89" height="4.72"/><polygon class="cls-3" points="99.21 70.55 98.22 70.07 98.22 65.36 99.21 65.83 99.21 70.55"/><polygon class="cls-4" points="104.1 65.83 99.21 65.83 98.22 65.36 103.11 65.36 104.1 65.83"/></g><g id="Bloque1-103" data-name="Bloque1"><rect class="cls-2" x="99.21" y="60.83" width="4.89" height="4.72"/><polygon class="cls-3" points="99.21 65.55 98.22 65.08 98.22 60.36 99.21 60.84 99.21 65.55"/><polygon class="cls-4" points="104.1 60.84 99.21 60.84 98.22 60.36 103.11 60.36 104.1 60.84"/></g><g id="Bloque1-104" data-name="Bloque1"><rect class="cls-2" x="99.21" y="55.84" width="4.89" height="4.72"/><polygon class="cls-3" points="99.21 60.56 98.22 60.08 98.22 55.36 99.21 55.84 99.21 60.56"/><polygon class="cls-4" points="104.1 55.84 99.21 55.84 98.22 55.36 103.11 55.36 104.1 55.84"/></g><g id="Bloque1-105" data-name="Bloque1"><rect class="cls-2" x="99.21" y="50.84" width="4.89" height="4.72"/><polygon class="cls-3" points="99.21 55.56 98.22 55.08 98.22 50.36 99.21 50.84 99.21 55.56"/><polygon class="cls-4" points="104.1 50.84 99.21 50.84 98.22 50.36 103.11 50.36 104.1 50.84"/></g><g id="Bloque1-106" data-name="Bloque1"><rect class="cls-2" x="99.21" y="45.84" width="4.89" height="4.72"/><polygon class="cls-3" points="99.21 50.56 98.22 50.08 98.22 45.36 99.21 45.84 99.21 50.56"/><polygon class="cls-4" points="104.1 45.84 99.21 45.84 98.22 45.36 103.11 45.36 104.1 45.84"/></g><g id="Bloque1-107" data-name="Bloque1"><rect class="cls-2" x="99.21" y="40.84" width="4.89" height="4.72"/><polygon class="cls-3" points="99.21 45.56 98.22 45.08 98.22 40.37 99.21 40.84 99.21 45.56"/><polygon class="cls-4" points="104.1 40.84 99.21 40.84 98.22 40.37 103.11 40.37 104.1 40.84"/></g><g id="Bloque1-108" data-name="Bloque1"><rect class="cls-2" x="99.21" y="35.85" width="4.89" height="4.72"/><polygon class="cls-3" points="99.21 40.56 98.22 40.09 98.22 35.37 99.21 35.85 99.21 40.56"/><polygon class="cls-4" points="104.1 35.85 99.21 35.85 98.22 35.37 103.11 35.37 104.1 35.85"/></g><g id="Bloque1-109" data-name="Bloque1"><rect class="cls-2" x="99.21" y="30.85" width="4.89" height="4.72"/><polygon class="cls-3" points="99.21 35.57 98.22 35.09 98.22 30.37 99.21 30.85 99.21 35.57"/><polygon class="cls-4" points="104.1 30.85 99.21 30.85 98.22 30.37 103.11 30.37 104.1 30.85"/></g><g id="Bloque1-110" data-name="Bloque1"><rect class="cls-2" x="99.21" y="25.85" width="4.89" height="4.72"/><polygon class="cls-3" points="99.21 30.57 98.22 30.09 98.22 25.37 99.21 25.85 99.21 30.57"/><polygon class="cls-4" points="104.1 25.85 99.21 25.85 98.22 25.37 103.11 25.37 104.1 25.85"/></g><g id="Bloque1-111" data-name="Bloque1"><rect class="cls-2" x="93.77" y="70.83" width="4.89" height="4.72"/><polygon class="cls-3" points="93.77 75.55 92.78 75.07 92.78 70.35 93.77 70.83 93.77 75.55"/><polygon class="cls-4" points="98.67 70.83 93.77 70.83 92.78 70.35 97.68 70.35 98.67 70.83"/></g><g id="Bloque1-112" data-name="Bloque1"><rect class="cls-2" x="93.77" y="65.83" width="4.89" height="4.72"/><polygon class="cls-3" points="93.77 70.55 92.78 70.07 92.78 65.36 93.77 65.83 93.77 70.55"/><polygon class="cls-4" points="98.67 65.83 93.77 65.83 92.78 65.36 97.68 65.36 98.67 65.83"/></g><g id="Bloque1-113" data-name="Bloque1"><rect class="cls-2" x="93.77" y="60.83" width="4.89" height="4.72"/><polygon class="cls-3" points="93.77 65.55 92.78 65.08 92.78 60.36 93.77 60.84 93.77 65.55"/><polygon class="cls-4" points="98.67 60.84 93.77 60.84 92.78 60.36 97.68 60.36 98.67 60.84"/></g><g id="Bloque1-114" data-name="Bloque1"><rect class="cls-2" x="93.77" y="55.84" width="4.89" height="4.72"/><polygon class="cls-3" points="93.77 60.56 92.78 60.08 92.78 55.36 93.77 55.84 93.77 60.56"/><polygon class="cls-4" points="98.67 55.84 93.77 55.84 92.78 55.36 97.68 55.36 98.67 55.84"/></g><g id="Bloque1-115" data-name="Bloque1"><rect class="cls-2" x="93.77" y="50.84" width="4.89" height="4.72"/><polygon class="cls-3" points="93.77 55.56 92.78 55.08 92.78 50.36 93.77 50.84 93.77 55.56"/><polygon class="cls-4" points="98.67 50.84 93.77 50.84 92.78 50.36 97.68 50.36 98.67 50.84"/></g><g id="Bloque1-116" data-name="Bloque1"><rect class="cls-2" x="93.77" y="45.84" width="4.89" height="4.72"/><polygon class="cls-3" points="93.77 50.56 92.78 50.08 92.78 45.36 93.77 45.84 93.77 50.56"/><polygon class="cls-4" points="98.67 45.84 93.77 45.84 92.78 45.36 97.68 45.36 98.67 45.84"/></g><g id="Bloque1-117" data-name="Bloque1"><rect class="cls-2" x="93.77" y="40.84" width="4.89" height="4.72"/><polygon class="cls-3" points="93.77 45.56 92.78 45.08 92.78 40.37 93.77 40.84 93.77 45.56"/><polygon class="cls-4" points="98.67 40.84 93.77 40.84 92.78 40.37 97.68 40.37 98.67 40.84"/></g><g id="Bloque1-118" data-name="Bloque1"><rect class="cls-2" x="93.77" y="35.85" width="4.89" height="4.72"/><polygon class="cls-3" points="93.77 40.56 92.78 40.09 92.78 35.37 93.77 35.85 93.77 40.56"/><polygon class="cls-4" points="98.67 35.85 93.77 35.85 92.78 35.37 97.68 35.37 98.67 35.85"/></g><g id="Bloque1-119" data-name="Bloque1"><rect class="cls-2" x="93.77" y="30.85" width="4.89" height="4.72"/><polygon class="cls-3" points="93.77 35.57 92.78 35.09 92.78 30.37 93.77 30.85 93.77 35.57"/><polygon class="cls-4" points="98.67 30.85 93.77 30.85 92.78 30.37 97.68 30.37 98.67 30.85"/></g><g id="Bloque1-120" data-name="Bloque1"><rect class="cls-2" x="93.77" y="25.85" width="4.89" height="4.72"/><polygon class="cls-3" points="93.77 30.57 92.78 30.09 92.78 25.37 93.77 25.85 93.77 30.57"/><polygon class="cls-4" points="98.67 25.85 93.77 25.85 92.78 25.37 97.68 25.37 98.67 25.85"/></g><g id="Bloque1-121" data-name="Bloque1"><rect class="cls-2" x="88.34" y="70.83" width="4.89" height="4.72"/><polygon class="cls-3" points="88.34 75.55 87.35 75.07 87.35 70.35 88.34 70.83 88.34 75.55"/><polygon class="cls-4" points="93.24 70.83 88.34 70.83 87.35 70.35 92.24 70.35 93.24 70.83"/></g><g id="Bloque1-122" data-name="Bloque1"><rect class="cls-2" x="88.34" y="65.83" width="4.89" height="4.72"/><polygon class="cls-3" points="88.34 70.55 87.35 70.07 87.35 65.36 88.34 65.83 88.34 70.55"/><polygon class="cls-4" points="93.24 65.83 88.34 65.83 87.35 65.36 92.24 65.36 93.24 65.83"/></g><g id="Bloque1-123" data-name="Bloque1"><rect class="cls-2" x="88.34" y="60.83" width="4.89" height="4.72"/><polygon class="cls-3" points="88.34 65.55 87.35 65.08 87.35 60.36 88.34 60.84 88.34 65.55"/><polygon class="cls-4" points="93.24 60.84 88.34 60.84 87.35 60.36 92.24 60.36 93.24 60.84"/></g><g id="Bloque1-124" data-name="Bloque1"><rect class="cls-2" x="88.34" y="55.84" width="4.89" height="4.72"/><polygon class="cls-3" points="88.34 60.56 87.35 60.08 87.35 55.36 88.34 55.84 88.34 60.56"/><polygon class="cls-4" points="93.24 55.84 88.34 55.84 87.35 55.36 92.24 55.36 93.24 55.84"/></g><g id="Bloque1-125" data-name="Bloque1"><rect class="cls-2" x="88.34" y="50.84" width="4.89" height="4.72"/><polygon class="cls-3" points="88.34 55.56 87.35 55.08 87.35 50.36 88.34 50.84 88.34 55.56"/><polygon class="cls-4" points="93.24 50.84 88.34 50.84 87.35 50.36 92.24 50.36 93.24 50.84"/></g><g id="Bloque1-126" data-name="Bloque1"><rect class="cls-2" x="88.34" y="45.84" width="4.89" height="4.72"/><polygon class="cls-3" points="88.34 50.56 87.35 50.08 87.35 45.36 88.34 45.84 88.34 50.56"/><polygon class="cls-4" points="93.24 45.84 88.34 45.84 87.35 45.36 92.24 45.36 93.24 45.84"/></g><g id="Bloque1-127" data-name="Bloque1"><rect class="cls-2" x="88.34" y="40.84" width="4.89" height="4.72"/><polygon class="cls-3" points="88.34 45.56 87.35 45.08 87.35 40.37 88.34 40.84 88.34 45.56"/><polygon class="cls-4" points="93.24 40.84 88.34 40.84 87.35 40.37 92.24 40.37 93.24 40.84"/></g><g id="Bloque1-128" data-name="Bloque1"><rect class="cls-2" x="88.34" y="35.85" width="4.89" height="4.72"/><polygon class="cls-3" points="88.34 40.56 87.35 40.09 87.35 35.37 88.34 35.85 88.34 40.56"/><polygon class="cls-4" points="93.24 35.85 88.34 35.85 87.35 35.37 92.24 35.37 93.24 35.85"/></g><g id="Bloque1-129" data-name="Bloque1"><rect class="cls-2" x="88.34" y="30.85" width="4.89" height="4.72"/><polygon class="cls-3" points="88.34 35.57 87.35 35.09 87.35 30.37 88.34 30.85 88.34 35.57"/><polygon class="cls-4" points="93.24 30.85 88.34 30.85 87.35 30.37 92.24 30.37 93.24 30.85"/></g><g id="Bloque1-130" data-name="Bloque1"><rect class="cls-2" x="88.34" y="25.85" width="4.89" height="4.72"/><polygon class="cls-3" points="88.34 30.57 87.35 30.09 87.35 25.37 88.34 25.85 88.34 30.57"/><polygon class="cls-4" points="93.24 25.85 88.34 25.85 87.35 25.37 92.24 25.37 93.24 25.85"/></g><g id="Bloque1-131" data-name="Bloque1"><rect class="cls-2" x="82.91" y="70.83" width="4.89" height="4.72"/><polygon class="cls-3" points="82.91 75.55 81.92 75.07 81.92 70.35 82.91 70.83 82.91 75.55"/><polygon class="cls-4" points="87.8 70.83 82.91 70.83 81.92 70.35 86.81 70.35 87.8 70.83"/></g><g id="Bloque1-132" data-name="Bloque1"><rect class="cls-2" x="82.91" y="65.83" width="4.89" height="4.72"/><polygon class="cls-3" points="82.91 70.55 81.92 70.07 81.92 65.36 82.91 65.83 82.91 70.55"/><polygon class="cls-4" points="87.8 65.83 82.91 65.83 81.92 65.36 86.81 65.36 87.8 65.83"/></g><g id="Bloque1-133" data-name="Bloque1"><rect class="cls-2" x="82.91" y="60.83" width="4.89" height="4.72"/><polygon class="cls-3" points="82.91 65.55 81.92 65.08 81.92 60.36 82.91 60.84 82.91 65.55"/><polygon class="cls-4" points="87.8 60.84 82.91 60.84 81.92 60.36 86.81 60.36 87.8 60.84"/></g><g id="Bloque1-134" data-name="Bloque1"><rect class="cls-2" x="82.91" y="55.84" width="4.89" height="4.72"/><polygon class="cls-3" points="82.91 60.56 81.92 60.08 81.92 55.36 82.91 55.84 82.91 60.56"/><polygon class="cls-4" points="87.8 55.84 82.91 55.84 81.92 55.36 86.81 55.36 87.8 55.84"/></g><g id="Bloque1-135" data-name="Bloque1"><rect class="cls-2" x="82.91" y="50.84" width="4.89" height="4.72"/><polygon class="cls-3" points="82.91 55.56 81.92 55.08 81.92 50.36 82.91 50.84 82.91 55.56"/><polygon class="cls-4" points="87.8 50.84 82.91 50.84 81.92 50.36 86.81 50.36 87.8 50.84"/></g><g id="Bloque1-136" data-name="Bloque1"><rect class="cls-2" x="82.91" y="45.84" width="4.89" height="4.72"/><polygon class="cls-3" points="82.91 50.56 81.92 50.08 81.92 45.36 82.91 45.84 82.91 50.56"/><polygon class="cls-4" points="87.8 45.84 82.91 45.84 81.92 45.36 86.81 45.36 87.8 45.84"/></g><g id="Bloque1-137" data-name="Bloque1"><rect class="cls-2" x="82.91" y="40.84" width="4.89" height="4.72"/><polygon class="cls-3" points="82.91 45.56 81.92 45.08 81.92 40.37 82.91 40.84 82.91 45.56"/><polygon class="cls-4" points="87.8 40.84 82.91 40.84 81.92 40.37 86.81 40.37 87.8 40.84"/></g><g id="Bloque1-138" data-name="Bloque1"><rect class="cls-2" x="82.91" y="35.85" width="4.89" height="4.72"/><polygon class="cls-3" points="82.91 40.56 81.92 40.09 81.92 35.37 82.91 35.85 82.91 40.56"/><polygon class="cls-4" points="87.8 35.85 82.91 35.85 81.92 35.37 86.81 35.37 87.8 35.85"/></g><g id="Bloque1-139" data-name="Bloque1"><rect class="cls-2" x="82.91" y="30.85" width="4.89" height="4.72"/><polygon class="cls-3" points="82.91 35.57 81.92 35.09 81.92 30.37 82.91 30.85 82.91 35.57"/><polygon class="cls-4" points="87.8 30.85 82.91 30.85 81.92 30.37 86.81 30.37 87.8 30.85"/></g><g id="Bloque1-140" data-name="Bloque1"><rect class="cls-2" x="82.91" y="25.85" width="4.89" height="4.72"/><polygon class="cls-3" points="82.91 30.57 81.92 30.09 81.92 25.37 82.91 25.85 82.91 30.57"/><polygon class="cls-4" points="87.8 25.85 82.91 25.85 81.92 25.37 86.81 25.37 87.8 25.85"/></g><g id="Bloque1-141" data-name="Bloque1"><rect class="cls-2" x="77.48" y="70.83" width="4.89" height="4.72"/><polygon class="cls-3" points="77.48 75.55 76.48 75.07 76.48 70.35 77.48 70.83 77.48 75.55"/><polygon class="cls-4" points="82.37 70.83 77.48 70.83 76.48 70.35 81.38 70.35 82.37 70.83"/></g><g id="Bloque1-142" data-name="Bloque1"><rect class="cls-2" x="77.48" y="65.83" width="4.89" height="4.72"/><polygon class="cls-3" points="77.48 70.55 76.48 70.07 76.48 65.36 77.48 65.83 77.48 70.55"/><polygon class="cls-4" points="82.37 65.83 77.48 65.83 76.48 65.36 81.38 65.36 82.37 65.83"/></g><g id="Bloque1-143" data-name="Bloque1"><rect class="cls-2" x="77.48" y="60.83" width="4.89" height="4.72"/><polygon class="cls-3" points="77.48 65.55 76.48 65.08 76.48 60.36 77.48 60.84 77.48 65.55"/><polygon class="cls-4" points="82.37 60.84 77.48 60.84 76.48 60.36 81.38 60.36 82.37 60.84"/></g><g id="Bloque1-144" data-name="Bloque1"><rect class="cls-2" x="77.48" y="55.84" width="4.89" height="4.72"/><polygon class="cls-3" points="77.48 60.56 76.48 60.08 76.48 55.36 77.48 55.84 77.48 60.56"/><polygon class="cls-4" points="82.37 55.84 77.48 55.84 76.48 55.36 81.38 55.36 82.37 55.84"/></g><g id="Bloque1-145" data-name="Bloque1"><rect class="cls-2" x="77.48" y="50.84" width="4.89" height="4.72"/><polygon class="cls-3" points="77.48 55.56 76.48 55.08 76.48 50.36 77.48 50.84 77.48 55.56"/><polygon class="cls-4" points="82.37 50.84 77.48 50.84 76.48 50.36 81.38 50.36 82.37 50.84"/></g><g id="Bloque1-146" data-name="Bloque1"><rect class="cls-2" x="77.48" y="45.84" width="4.89" height="4.72"/><polygon class="cls-3" points="77.48 50.56 76.48 50.08 76.48 45.36 77.48 45.84 77.48 50.56"/><polygon class="cls-4" points="82.37 45.84 77.48 45.84 76.48 45.36 81.38 45.36 82.37 45.84"/></g><g id="Bloque1-147" data-name="Bloque1"><rect class="cls-2" x="77.48" y="40.84" width="4.89" height="4.72"/><polygon class="cls-3" points="77.48 45.56 76.48 45.08 76.48 40.37 77.48 40.84 77.48 45.56"/><polygon class="cls-4" points="82.37 40.84 77.48 40.84 76.48 40.37 81.38 40.37 82.37 40.84"/></g><g id="Bloque1-148" data-name="Bloque1"><rect class="cls-2" x="77.48" y="35.85" width="4.89" height="4.72"/><polygon class="cls-3" points="77.48 40.56 76.48 40.09 76.48 35.37 77.48 35.85 77.48 40.56"/><polygon class="cls-4" points="82.37 35.85 77.48 35.85 76.48 35.37 81.38 35.37 82.37 35.85"/></g><g id="Bloque1-149" data-name="Bloque1"><rect class="cls-2" x="77.48" y="30.85" width="4.89" height="4.72"/><polygon class="cls-3" points="77.48 35.57 76.48 35.09 76.48 30.37 77.48 30.85 77.48 35.57"/><polygon class="cls-4" points="82.37 30.85 77.48 30.85 76.48 30.37 81.38 30.37 82.37 30.85"/></g><g id="Bloque1-150" data-name="Bloque1"><rect class="cls-2" x="77.48" y="25.85" width="4.89" height="4.72"/><polygon class="cls-3" points="77.48 30.57 76.48 30.09 76.48 25.37 77.48 25.85 77.48 30.57"/><polygon class="cls-4" points="82.37 25.85 77.48 25.85 76.48 25.37 81.38 25.37 82.37 25.85"/></g><g id="Bloque1-151" data-name="Bloque1"><rect class="cls-2" x="72.04" y="70.83" width="4.89" height="4.72"/><polygon class="cls-3" points="72.04 75.55 71.05 75.07 71.05 70.35 72.04 70.83 72.04 75.55"/><polygon class="cls-4" points="76.94 70.83 72.04 70.83 71.05 70.35 75.95 70.35 76.94 70.83"/></g><g id="Bloque1-152" data-name="Bloque1"><rect class="cls-2" x="72.04" y="65.83" width="4.89" height="4.72"/><polygon class="cls-3" points="72.04 70.55 71.05 70.07 71.05 65.36 72.04 65.83 72.04 70.55"/><polygon class="cls-4" points="76.94 65.83 72.04 65.83 71.05 65.36 75.95 65.36 76.94 65.83"/></g><g id="Bloque1-153" data-name="Bloque1"><rect class="cls-2" x="72.04" y="60.83" width="4.89" height="4.72"/><polygon class="cls-3" points="72.04 65.55 71.05 65.08 71.05 60.36 72.04 60.84 72.04 65.55"/><polygon class="cls-4" points="76.94 60.84 72.04 60.84 71.05 60.36 75.95 60.36 76.94 60.84"/></g><g id="Bloque1-154" data-name="Bloque1"><rect class="cls-2" x="72.04" y="55.84" width="4.89" height="4.72"/><polygon class="cls-3" points="72.04 60.56 71.05 60.08 71.05 55.36 72.04 55.84 72.04 60.56"/><polygon class="cls-4" points="76.94 55.84 72.04 55.84 71.05 55.36 75.95 55.36 76.94 55.84"/></g><g id="Bloque1-155" data-name="Bloque1"><rect class="cls-2" x="72.04" y="50.84" width="4.89" height="4.72"/><polygon class="cls-3" points="72.04 55.56 71.05 55.08 71.05 50.36 72.04 50.84 72.04 55.56"/><polygon class="cls-4" points="76.94 50.84 72.04 50.84 71.05 50.36 75.95 50.36 76.94 50.84"/></g><g id="Bloque1-156" data-name="Bloque1"><rect class="cls-2" x="72.04" y="45.84" width="4.89" height="4.72"/><polygon class="cls-3" points="72.04 50.56 71.05 50.08 71.05 45.36 72.04 45.84 72.04 50.56"/><polygon class="cls-4" points="76.94 45.84 72.04 45.84 71.05 45.36 75.95 45.36 76.94 45.84"/></g><g id="Bloque1-157" data-name="Bloque1"><rect class="cls-2" x="72.04" y="40.84" width="4.89" height="4.72"/><polygon class="cls-3" points="72.04 45.56 71.05 45.08 71.05 40.37 72.04 40.84 72.04 45.56"/><polygon class="cls-4" points="76.94 40.84 72.04 40.84 71.05 40.37 75.95 40.37 76.94 40.84"/></g><g id="Bloque1-158" data-name="Bloque1"><rect class="cls-2" x="72.04" y="35.85" width="4.89" height="4.72"/><polygon class="cls-3" points="72.04 40.56 71.05 40.09 71.05 35.37 72.04 35.85 72.04 40.56"/><polygon class="cls-4" points="76.94 35.85 72.04 35.85 71.05 35.37 75.95 35.37 76.94 35.85"/></g><g id="Bloque1-159" data-name="Bloque1"><rect class="cls-2" x="72.04" y="30.85" width="4.89" height="4.72"/><polygon class="cls-3" points="72.04 35.57 71.05 35.09 71.05 30.37 72.04 30.85 72.04 35.57"/><polygon class="cls-4" points="76.94 30.85 72.04 30.85 71.05 30.37 75.95 30.37 76.94 30.85"/></g><g id="Bloque1-160" data-name="Bloque1"><rect class="cls-2" x="72.04" y="25.85" width="4.89" height="4.72"/><polygon class="cls-3" points="72.04 30.57 71.05 30.09 71.05 25.37 72.04 25.85 72.04 30.57"/><polygon class="cls-4" points="76.94 25.85 72.04 25.85 71.05 25.37 75.95 25.37 76.94 25.85"/></g><g id="Bloque1-161" data-name="Bloque1"><rect class="cls-2" x="66.61" y="70.83" width="4.89" height="4.72"/><polygon class="cls-3" points="66.61 75.55 65.62 75.07 65.62 70.35 66.61 70.83 66.61 75.55"/><polygon class="cls-4" points="71.51 70.83 66.61 70.83 65.62 70.35 70.51 70.35 71.51 70.83"/></g><g id="Bloque1-162" data-name="Bloque1"><rect class="cls-2" x="66.61" y="65.83" width="4.89" height="4.72"/><polygon class="cls-3" points="66.61 70.55 65.62 70.07 65.62 65.36 66.61 65.83 66.61 70.55"/><polygon class="cls-4" points="71.51 65.83 66.61 65.83 65.62 65.36 70.51 65.36 71.51 65.83"/></g><g id="Bloque1-163" data-name="Bloque1"><rect class="cls-2" x="66.61" y="60.83" width="4.89" height="4.72"/><polygon class="cls-3" points="66.61 65.55 65.62 65.08 65.62 60.36 66.61 60.84 66.61 65.55"/><polygon class="cls-4" points="71.51 60.84 66.61 60.84 65.62 60.36 70.51 60.36 71.51 60.84"/></g><g id="Bloque1-164" data-name="Bloque1"><rect class="cls-2" x="66.61" y="55.84" width="4.89" height="4.72"/><polygon class="cls-3" points="66.61 60.56 65.62 60.08 65.62 55.36 66.61 55.84 66.61 60.56"/><polygon class="cls-4" points="71.51 55.84 66.61 55.84 65.62 55.36 70.51 55.36 71.51 55.84"/></g><g id="Bloque1-165" data-name="Bloque1"><rect class="cls-2" x="66.61" y="50.84" width="4.89" height="4.72"/><polygon class="cls-3" points="66.61 55.56 65.62 55.08 65.62 50.36 66.61 50.84 66.61 55.56"/><polygon class="cls-4" points="71.51 50.84 66.61 50.84 65.62 50.36 70.51 50.36 71.51 50.84"/></g><g id="Bloque1-166" data-name="Bloque1"><rect class="cls-2" x="66.61" y="45.84" width="4.89" height="4.72"/><polygon class="cls-3" points="66.61 50.56 65.62 50.08 65.62 45.36 66.61 45.84 66.61 50.56"/><polygon class="cls-4" points="71.51 45.84 66.61 45.84 65.62 45.36 70.51 45.36 71.51 45.84"/></g><g id="Bloque1-167" data-name="Bloque1"><rect class="cls-2" x="66.61" y="40.84" width="4.89" height="4.72"/><polygon class="cls-3" points="66.61 45.56 65.62 45.08 65.62 40.37 66.61 40.84 66.61 45.56"/><polygon class="cls-4" points="71.51 40.84 66.61 40.84 65.62 40.37 70.51 40.37 71.51 40.84"/></g><g id="Bloque1-168" data-name="Bloque1"><rect class="cls-2" x="66.61" y="35.85" width="4.89" height="4.72"/><polygon class="cls-3" points="66.61 40.56 65.62 40.09 65.62 35.37 66.61 35.85 66.61 40.56"/><polygon class="cls-4" points="71.51 35.85 66.61 35.85 65.62 35.37 70.51 35.37 71.51 35.85"/></g><g id="Bloque1-169" data-name="Bloque1"><rect class="cls-2" x="66.61" y="30.85" width="4.89" height="4.72"/><polygon class="cls-3" points="66.61 35.57 65.62 35.09 65.62 30.37 66.61 30.85 66.61 35.57"/><polygon class="cls-4" points="71.51 30.85 66.61 30.85 65.62 30.37 70.51 30.37 71.51 30.85"/></g><g id="Bloque1-170" data-name="Bloque1"><rect class="cls-2" x="66.61" y="25.85" width="4.89" height="4.72"/><polygon class="cls-3" points="66.61 30.57 65.62 30.09 65.62 25.37 66.61 25.85 66.61 30.57"/><polygon class="cls-4" points="71.51 25.85 66.61 25.85 65.62 25.37 70.51 25.37 71.51 25.85"/></g><g id="Bloque1-171" data-name="Bloque1"><rect class="cls-2" x="61.18" y="70.83" width="4.89" height="4.72"/><polygon class="cls-3" points="61.18 75.55 60.19 75.07 60.19 70.35 61.18 70.83 61.18 75.55"/><polygon class="cls-4" points="66.07 70.83 61.18 70.83 60.19 70.35 65.08 70.35 66.07 70.83"/></g><g id="Bloque1-172" data-name="Bloque1"><rect class="cls-2" x="61.18" y="65.83" width="4.89" height="4.72"/><polygon class="cls-3" points="61.18 70.55 60.19 70.07 60.19 65.36 61.18 65.83 61.18 70.55"/><polygon class="cls-4" points="66.07 65.83 61.18 65.83 60.19 65.36 65.08 65.36 66.07 65.83"/></g><g id="Bloque1-173" data-name="Bloque1"><rect class="cls-2" x="61.18" y="60.83" width="4.89" height="4.72"/><polygon class="cls-3" points="61.18 65.55 60.19 65.08 60.19 60.36 61.18 60.84 61.18 65.55"/><polygon class="cls-4" points="66.07 60.84 61.18 60.84 60.19 60.36 65.08 60.36 66.07 60.84"/></g><g id="Bloque1-174" data-name="Bloque1"><rect class="cls-2" x="61.18" y="55.84" width="4.89" height="4.72"/><polygon class="cls-3" points="61.18 60.56 60.19 60.08 60.19 55.36 61.18 55.84 61.18 60.56"/><polygon class="cls-4" points="66.07 55.84 61.18 55.84 60.19 55.36 65.08 55.36 66.07 55.84"/></g><g id="Bloque1-175" data-name="Bloque1"><rect class="cls-2" x="61.18" y="50.84" width="4.89" height="4.72"/><polygon class="cls-3" points="61.18 55.56 60.19 55.08 60.19 50.36 61.18 50.84 61.18 55.56"/><polygon class="cls-4" points="66.07 50.84 61.18 50.84 60.19 50.36 65.08 50.36 66.07 50.84"/></g><g id="Bloque1-176" data-name="Bloque1"><rect class="cls-2" x="61.18" y="45.84" width="4.89" height="4.72"/><polygon class="cls-3" points="61.18 50.56 60.19 50.08 60.19 45.36 61.18 45.84 61.18 50.56"/><polygon class="cls-4" points="66.07 45.84 61.18 45.84 60.19 45.36 65.08 45.36 66.07 45.84"/></g><g id="Bloque1-177" data-name="Bloque1"><rect class="cls-2" x="61.18" y="40.84" width="4.89" height="4.72"/><polygon class="cls-3" points="61.18 45.56 60.19 45.08 60.19 40.37 61.18 40.84 61.18 45.56"/><polygon class="cls-4" points="66.07 40.84 61.18 40.84 60.19 40.37 65.08 40.37 66.07 40.84"/></g><g id="Bloque1-178" data-name="Bloque1"><rect class="cls-2" x="61.18" y="35.85" width="4.89" height="4.72"/><polygon class="cls-3" points="61.18 40.56 60.19 40.09 60.19 35.37 61.18 35.85 61.18 40.56"/><polygon class="cls-4" points="66.07 35.85 61.18 35.85 60.19 35.37 65.08 35.37 66.07 35.85"/></g><g id="Bloque1-179" data-name="Bloque1"><rect class="cls-2" x="61.18" y="30.85" width="4.89" height="4.72"/><polygon class="cls-3" points="61.18 35.57 60.19 35.09 60.19 30.37 61.18 30.85 61.18 35.57"/><polygon class="cls-4" points="66.07 30.85 61.18 30.85 60.19 30.37 65.08 30.37 66.07 30.85"/></g><g id="Bloque1-180" data-name="Bloque1"><rect class="cls-2" x="61.18" y="25.85" width="4.89" height="4.72"/><polygon class="cls-3" points="61.18 30.57 60.19 30.09 60.19 25.37 61.18 25.85 61.18 30.57"/><polygon class="cls-4" points="66.07 25.85 61.18 25.85 60.19 25.37 65.08 25.37 66.07 25.85"/></g><g id="Bloque1-181" data-name="Bloque1"><rect class="cls-2" x="55.75" y="70.83" width="4.89" height="4.72"/><polygon class="cls-3" points="55.75 75.55 54.76 75.07 54.76 70.35 55.75 70.83 55.75 75.55"/><polygon class="cls-4" points="60.64 70.83 55.75 70.83 54.76 70.35 59.65 70.35 60.64 70.83"/></g><g id="Bloque1-182" data-name="Bloque1"><rect class="cls-2" x="55.75" y="65.83" width="4.89" height="4.72"/><polygon class="cls-3" points="55.75 70.55 54.76 70.07 54.76 65.36 55.75 65.83 55.75 70.55"/><polygon class="cls-4" points="60.64 65.83 55.75 65.83 54.76 65.36 59.65 65.36 60.64 65.83"/></g><g id="Bloque1-183" data-name="Bloque1"><rect class="cls-2" x="55.75" y="60.83" width="4.89" height="4.72"/><polygon class="cls-3" points="55.75 65.55 54.76 65.08 54.76 60.36 55.75 60.84 55.75 65.55"/><polygon class="cls-4" points="60.64 60.84 55.75 60.84 54.76 60.36 59.65 60.36 60.64 60.84"/></g><g id="Bloque1-184" data-name="Bloque1"><rect class="cls-2" x="55.75" y="55.84" width="4.89" height="4.72"/><polygon class="cls-3" points="55.75 60.56 54.76 60.08 54.76 55.36 55.75 55.84 55.75 60.56"/><polygon class="cls-4" points="60.64 55.84 55.75 55.84 54.76 55.36 59.65 55.36 60.64 55.84"/></g><g id="Bloque1-185" data-name="Bloque1"><rect class="cls-2" x="55.75" y="50.84" width="4.89" height="4.72"/><polygon class="cls-3" points="55.75 55.56 54.76 55.08 54.76 50.36 55.75 50.84 55.75 55.56"/><polygon class="cls-4" points="60.64 50.84 55.75 50.84 54.76 50.36 59.65 50.36 60.64 50.84"/></g><g id="Bloque1-186" data-name="Bloque1"><rect class="cls-2" x="55.75" y="45.84" width="4.89" height="4.72"/><polygon class="cls-3" points="55.75 50.56 54.76 50.08 54.76 45.36 55.75 45.84 55.75 50.56"/><polygon class="cls-4" points="60.64 45.84 55.75 45.84 54.76 45.36 59.65 45.36 60.64 45.84"/></g><g id="Bloque1-187" data-name="Bloque1"><rect class="cls-2" x="55.75" y="40.84" width="4.89" height="4.72"/><polygon class="cls-3" points="55.75 45.56 54.76 45.08 54.76 40.37 55.75 40.84 55.75 45.56"/><polygon class="cls-4" points="60.64 40.84 55.75 40.84 54.76 40.37 59.65 40.37 60.64 40.84"/></g><g id="Bloque1-188" data-name="Bloque1"><rect class="cls-2" x="55.75" y="35.85" width="4.89" height="4.72"/><polygon class="cls-3" points="55.75 40.56 54.76 40.09 54.76 35.37 55.75 35.85 55.75 40.56"/><polygon class="cls-4" points="60.64 35.85 55.75 35.85 54.76 35.37 59.65 35.37 60.64 35.85"/></g><g id="Bloque1-189" data-name="Bloque1"><rect class="cls-2" x="55.75" y="30.85" width="4.89" height="4.72"/><polygon class="cls-3" points="55.75 35.57 54.76 35.09 54.76 30.37 55.75 30.85 55.75 35.57"/><polygon class="cls-4" points="60.64 30.85 55.75 30.85 54.76 30.37 59.65 30.37 60.64 30.85"/></g><g id="Bloque1-190" data-name="Bloque1"><rect class="cls-2" x="55.75" y="25.85" width="4.89" height="4.72"/><polygon class="cls-3" points="55.75 30.57 54.76 30.09 54.76 25.37 55.75 25.85 55.75 30.57"/><polygon class="cls-4" points="60.64 25.85 55.75 25.85 54.76 25.37 59.65 25.37 60.64 25.85"/></g><g id="Bloque1-191" data-name="Bloque1"><rect class="cls-2" x="50.31" y="70.83" width="4.89" height="4.72"/><polygon class="cls-3" points="50.31 75.55 49.32 75.07 49.32 70.35 50.31 70.83 50.31 75.55"/><polygon class="cls-4" points="55.21 70.83 50.31 70.83 49.32 70.35 54.22 70.35 55.21 70.83"/></g><g id="Bloque1-192" data-name="Bloque1"><rect class="cls-2" x="50.31" y="65.83" width="4.89" height="4.72"/><polygon class="cls-3" points="50.31 70.55 49.32 70.07 49.32 65.36 50.31 65.83 50.31 70.55"/><polygon class="cls-4" points="55.21 65.83 50.31 65.83 49.32 65.36 54.22 65.36 55.21 65.83"/></g><g id="Bloque1-193" data-name="Bloque1"><rect class="cls-2" x="50.31" y="60.83" width="4.89" height="4.72"/><polygon class="cls-3" points="50.31 65.55 49.32 65.08 49.32 60.36 50.31 60.84 50.31 65.55"/><polygon class="cls-4" points="55.21 60.84 50.31 60.84 49.32 60.36 54.22 60.36 55.21 60.84"/></g><g id="Bloque1-194" data-name="Bloque1"><rect class="cls-2" x="50.31" y="55.84" width="4.89" height="4.72"/><polygon class="cls-3" points="50.31 60.56 49.32 60.08 49.32 55.36 50.31 55.84 50.31 60.56"/><polygon class="cls-4" points="55.21 55.84 50.31 55.84 49.32 55.36 54.22 55.36 55.21 55.84"/></g><g id="Bloque1-195" data-name="Bloque1"><rect class="cls-2" x="50.31" y="50.84" width="4.89" height="4.72"/><polygon class="cls-3" points="50.31 55.56 49.32 55.08 49.32 50.36 50.31 50.84 50.31 55.56"/><polygon class="cls-4" points="55.21 50.84 50.31 50.84 49.32 50.36 54.22 50.36 55.21 50.84"/></g><g id="Bloque1-196" data-name="Bloque1"><rect class="cls-2" x="50.31" y="45.84" width="4.89" height="4.72"/><polygon class="cls-3" points="50.31 50.56 49.32 50.08 49.32 45.36 50.31 45.84 50.31 50.56"/><polygon class="cls-4" points="55.21 45.84 50.31 45.84 49.32 45.36 54.22 45.36 55.21 45.84"/></g><g id="Bloque1-197" data-name="Bloque1"><rect class="cls-2" x="50.31" y="40.84" width="4.89" height="4.72"/><polygon class="cls-3" points="50.31 45.56 49.32 45.08 49.32 40.37 50.31 40.84 50.31 45.56"/><polygon class="cls-4" points="55.21 40.84 50.31 40.84 49.32 40.37 54.22 40.37 55.21 40.84"/></g><g id="Bloque1-198" data-name="Bloque1"><rect class="cls-2" x="50.31" y="35.85" width="4.89" height="4.72"/><polygon class="cls-3" points="50.31 40.56 49.32 40.09 49.32 35.37 50.31 35.85 50.31 40.56"/><polygon class="cls-4" points="55.21 35.85 50.31 35.85 49.32 35.37 54.22 35.37 55.21 35.85"/></g><g id="Bloque1-199" data-name="Bloque1"><rect class="cls-2" x="50.31" y="30.85" width="4.89" height="4.72"/><polygon class="cls-3" points="50.31 35.57 49.32 35.09 49.32 30.37 50.31 30.85 50.31 35.57"/><polygon class="cls-4" points="55.21 30.85 50.31 30.85 49.32 30.37 54.22 30.37 55.21 30.85"/></g><g id="Bloque1-200" data-name="Bloque1"><rect class="cls-2" x="50.31" y="25.85" width="4.89" height="4.72"/><polygon class="cls-3" points="50.31 30.57 49.32 30.09 49.32 25.37 50.31 25.85 50.31 30.57"/><polygon class="cls-4" points="55.21 25.85 50.31 25.85 49.32 25.37 54.22 25.37 55.21 25.85"/></g></g></g></svg>