<?xml version="1.0" encoding="utf-8"?>
<!-- Generator: Adobe Illustrator 23.0.0, SVG Export Plug-In . SVG Version: 6.00 Build 0)  -->
<svg version="1.1"
	 id="svg3013" inkscape:version="0.48.3.1 r9886" sodipodi:docname="arrow_right_font_awesome.svg" xmlns:cc="http://creativecommons.org/ns#" xmlns:dc="http://purl.org/dc/elements/1.1/" xmlns:inkscape="http://www.inkscape.org/namespaces/inkscape" xmlns:rdf="http://www.w3.org/1999/02/22-rdf-syntax-ns#" xmlns:sodipodi="http://sodipodi.sourceforge.net/DTD/sodipodi-0.dtd" xmlns:svg="http://www.w3.org/2000/svg"
	 xmlns="http://www.w3.org/2000/svg" xmlns:xlink="http://www.w3.org/1999/xlink" x="0px" y="0px" viewBox="0 0 626.8 663.4"
	 style="enable-background:new 0 0 626.8 663.4;" xml:space="preserve">
<style type="text/css">
	.st0{fill:#156787;}
</style>
<g>
	<g>
		<g>
			<path class="st0" d="M354.5,316.2c1.8,3.5,5.3,5.5,8.9,5.5c1.5,0,3.1-0.4,4.5-1.1c0.6-0.3,59.4-30.2,88.5-39.4
				c5.3-1.7,8.2-7.3,6.5-12.5c-1.7-5.3-7.2-8.2-12.5-6.5c-30.6,9.7-89,39.4-91.5,40.6C353.9,305.3,352,311.3,354.5,316.2z"/>
			<path class="st0" d="M363.4,201.7c1.5,0,3.1-0.4,4.5-1.1c0.6-0.3,59.4-30.2,88.5-39.4c5.3-1.7,8.2-7.3,6.5-12.5
				c-1.7-5.3-7.2-8.2-12.5-6.5c-30.6,9.7-89,39.4-91.5,40.6c-4.9,2.5-6.9,8.5-4.4,13.4C356.2,199.7,359.8,201.7,363.4,201.7z"/>
			<path class="st0" d="M603.4,181.7c-5.5,0-10,4.5-10,10v390c0,16.5-13.5,30-30,30h-240v-23c14.6-5.1,52.6-17,90-17
				c87.1,0,146.3,19.3,146.8,19.5c3,1,6.4,0.5,9-1.4c2.6-1.9,4.1-4.9,4.1-8.1v-440c0-4.7-3.2-8.8-7.8-9.8c0,0-7.8-1.7-21.2-4.2
				c-5.4-1-10.6,2.6-11.6,8c-1,5.4,2.6,10.6,8,11.6c5.1,0.9,9.4,1.8,12.7,2.4v418.6c-22.7-5.9-73-16.7-140-16.7
				c-43.6,0-86.4,14.3-99.6,19.2c-11.8-5.2-47.3-19.2-90.4-19.2c-68.9,0-125.6,11.4-150,17.1V149.4c20-4.9,78.9-17.7,150-17.7
				c36.5,0,67.7,11.3,80,16.5v393.5c0,3.6,1.9,6.9,5.1,8.7c3.1,1.8,7,1.7,10.1-0.1c1-0.6,100.1-59.8,188-89.1
				c4.1-1.4,6.8-5.2,6.8-9.5v-410c0-3.3-1.6-6.4-4.3-8.2c-2.7-1.9-6.1-2.3-9.2-1.1c-80,30-161,80.4-161.8,80.9
				c-4.7,2.9-6.1,9.1-3.2,13.8c2.9,4.7,9.1,6.1,13.8,3.2c0.7-0.5,71.2-44.3,144.7-73.9v388.2c-68.3,23.7-139.5,62.4-170,79.8V141.7
				c0-3.8-2.1-7.3-5.5-8.9c-1.7-0.8-42.7-21.1-94.5-21.1c-90.4,0-159.8,19.6-162.7,20.4c-4.3,1.2-7.3,5.2-7.3,9.6v440
				c0,3.1,1.5,6.1,4,8c1.8,1.3,3.9,2,6,2c0.9,0,1.8-0.1,2.7-0.4c0.7-0.2,69.8-19.6,157.3-19.6c36.6,0,67.8,11.4,80,16.5v23.5h-240
				c-16.5,0-30-13.5-30-30v-390c0-5.5-4.5-10-10-10s-10,4.5-10,10v390c0,27.6,22.4,50,50,50h500c27.6,0,50-22.4,50-50v-390
				C613.4,186.2,608.9,181.7,603.4,181.7z"/>
			<path class="st0" d="M354.5,256.2c1.8,3.5,5.3,5.5,8.9,5.5c1.5,0,3.1-0.4,4.5-1.1c0.6-0.3,59.4-30.2,88.5-39.4
				c5.3-1.7,8.2-7.3,6.5-12.5c-1.7-5.3-7.2-8.2-12.5-6.5c-30.6,9.7-89,39.4-91.5,40.6C353.9,245.3,352,251.3,354.5,256.2z"/>
			<path class="st0" d="M354.5,376.2c1.8,3.5,5.3,5.5,8.9,5.5c1.5,0,3.1-0.4,4.5-1.1c0.6-0.3,59.4-30.2,88.5-39.4
				c5.3-1.7,8.2-7.3,6.5-12.5c-1.7-5.3-7.2-8.2-12.5-6.5c-30.6,9.7-89,39.4-91.5,40.6C353.9,365.3,352,371.3,354.5,376.2z"/>
			<path class="st0" d="M255.7,217.3c-61.7-14.5-131.9,4-134.9,4.8c-5.3,1.4-8.5,6.9-7.1,12.2c1.2,4.5,5.2,7.4,9.7,7.4
				c0.9,0,1.7-0.1,2.6-0.3c0.7-0.2,68.2-18,125.1-4.6c5.3,1.3,10.8-2.1,12-7.5C264.4,223.9,261.1,218.5,255.7,217.3z"/>
			<path class="st0" d="M255.7,277.3c-61.7-14.5-131.9,4-134.9,4.8c-5.3,1.4-8.5,6.9-7.1,12.2c1.2,4.5,5.2,7.4,9.7,7.4
				c0.9,0,1.7-0.1,2.6-0.3c0.7-0.2,68.2-18,125.1-4.6c5.3,1.3,10.8-2.1,12-7.5C264.4,283.9,261.1,278.5,255.7,277.3z"/>
			<path class="st0" d="M354.5,436.2c1.8,3.5,5.3,5.5,8.9,5.5c1.5,0,3.1-0.4,4.5-1.1c0.6-0.3,59.4-30.2,88.5-39.4
				c5.3-1.7,8.2-7.3,6.5-12.5c-1.7-5.3-7.2-8.2-12.5-6.5c-30.6,9.7-89,39.4-91.5,40.6C353.9,425.3,352,431.3,354.5,436.2z"/>
			<path class="st0" d="M255.7,337.3c-61.7-14.5-131.9,4-134.9,4.8c-5.3,1.4-8.5,6.9-7.1,12.2c1.2,4.5,5.2,7.4,9.7,7.4
				c0.9,0,1.7-0.1,2.6-0.4c0.7-0.2,68.2-18,125.1-4.6c5.3,1.3,10.8-2.1,12-7.5C264.4,343.9,261.1,338.5,255.7,337.3z"/>
			<path class="st0" d="M255.7,457.3c-61.7-14.5-131.9,4-134.9,4.8c-5.3,1.4-8.5,6.9-7.1,12.2c1.2,4.5,5.2,7.4,9.7,7.4
				c0.9,0,1.7-0.1,2.6-0.4c0.7-0.2,68.2-18,125.1-4.6c5.3,1.2,10.8-2.1,12-7.5C264.4,463.9,261.1,458.5,255.7,457.3z"/>
			<path class="st0" d="M255.7,397.3c-61.7-14.5-131.9,4-134.9,4.8c-5.3,1.4-8.5,6.9-7.1,12.2c1.2,4.5,5.2,7.4,9.7,7.4
				c0.9,0,1.7-0.1,2.6-0.4c0.7-0.2,68.2-18,125.1-4.6c5.3,1.3,10.8-2.1,12-7.5C264.4,403.9,261.1,398.5,255.7,397.3z"/>
		</g>
	</g>
</g>
</svg>
