<svg xmlns="http://www.w3.org/2000/svg" viewBox="0 0 164.63 300"><defs><style>.cls-1{fill:#dcfdff;}.cls-2{fill:#20b4ff;}.cls-3{fill:#5fddff;}.cls-4{fill:#eaeaea;}.cls-5{fill:#a5a5a5;}.cls-6{fill:#d3d3d3;}.cls-7{fill:#f9f9f9;}.cls-8{fill:#ff1515;}.cls-9{fill:#8ac2ff;}.cls-10{fill:#e6faff;}</style></defs><title>bidon con vaso</title><g id="Capa_2" data-name="Capa 2"><g id="Capa_1-2" data-name="Capa 1"><path class="cls-1" d="M162.36,15.55V12.27a4.93,4.93,0,0,0-4.91-4.92h-12A23.16,23.16,0,0,0,129.3.8h-94A23.18,23.18,0,0,0,19.16,7.35h-12a4.94,4.94,0,0,0-4.92,4.92v3.28a4.93,4.93,0,0,0,4.92,4.91h5.19a23.61,23.61,0,0,0-.28,3.59V80.47H7.18a4.94,4.94,0,0,0-4.92,4.92v3.27a4.94,4.94,0,0,0,4.92,4.92h4.91v11.26H7.18a4.94,4.94,0,0,0-4.92,4.92V113A4.93,4.93,0,0,0,7.18,118h4.91v19a23.23,23.23,0,0,0,23.24,23.24h4.2v5.74a4.93,4.93,0,0,0,4.91,4.91h75.75a4.93,4.93,0,0,0,4.91-4.91v-5.74h4.2a23.24,23.24,0,0,0,23.24-23.24V118h4.91a4.93,4.93,0,0,0,4.91-4.91v-3.28a4.93,4.93,0,0,0-4.91-4.92h-4.91V93.58h4.91a4.93,4.93,0,0,0,4.91-4.92V85.39a4.93,4.93,0,0,0-4.91-4.92h-4.91V24.05a23.61,23.61,0,0,0-.28-3.59h5.19A4.93,4.93,0,0,0,162.36,15.55Z"/><path class="cls-2" d="M120.19,171.59H44.44a5.71,5.71,0,0,1-5.71-5.71v-4.94h-3.4a24.06,24.06,0,0,1-24-24V118.75H7.18A5.71,5.71,0,0,1,1.47,113v-3.28A5.72,5.72,0,0,1,7.18,104h4.11V94.38H7.18a5.72,5.72,0,0,1-5.71-5.72V85.39a5.72,5.72,0,0,1,5.71-5.72h4.11V24.05a26.09,26.09,0,0,1,.16-2.79H7.18a5.71,5.71,0,0,1-5.71-5.71V12.27A5.72,5.72,0,0,1,7.18,6.55H18.84A23.94,23.94,0,0,1,35.33,0h94a23.93,23.93,0,0,1,16.48,6.55h11.67a5.72,5.72,0,0,1,5.71,5.72v3.28a5.71,5.71,0,0,1-5.71,5.71h-4.27a26,26,0,0,1,.16,2.79V79.67h4.11a5.72,5.72,0,0,1,5.71,5.72v3.27a5.72,5.72,0,0,1-5.71,5.72h-4.11V104h4.11a5.72,5.72,0,0,1,5.71,5.72V113a5.71,5.71,0,0,1-5.71,5.71h-4.11V136.9a24.07,24.07,0,0,1-24,24h-3.4v4.94A5.71,5.71,0,0,1,120.19,171.59Zm-113-65.95a4.13,4.13,0,0,0-4.12,4.12V113a4.12,4.12,0,0,0,4.12,4.11h5.71V136.9a22.47,22.47,0,0,0,22.44,22.44h5v6.54A4.12,4.12,0,0,0,44.44,170h75.75a4.11,4.11,0,0,0,4.11-4.11v-6.54h5a22.47,22.47,0,0,0,22.44-22.44V117.15h5.71a4.11,4.11,0,0,0,4.11-4.11v-3.28a4.12,4.12,0,0,0-4.11-4.12h-5.71V92.78h5.71a4.12,4.12,0,0,0,4.11-4.12V85.39a4.12,4.12,0,0,0-4.11-4.12h-5.71V24.05a22.44,22.44,0,0,0-.27-3.47l-.14-.92h6.12a4.11,4.11,0,0,0,4.11-4.11V12.27a4.12,4.12,0,0,0-4.11-4.12H145.14l-.23-.22A22.33,22.33,0,0,0,129.3,1.6h-94A22.32,22.32,0,0,0,19.72,7.93l-.23.22H7.18a4.13,4.13,0,0,0-4.12,4.12v3.28a4.12,4.12,0,0,0,4.12,4.11H13.3l-.14.92a22.44,22.44,0,0,0-.27,3.47V81.27H7.18a4.13,4.13,0,0,0-4.12,4.12v3.27a4.13,4.13,0,0,0,4.12,4.12h5.71v12.86Z"/><path class="cls-3" d="M12.09,125V136.9a23.23,23.23,0,0,0,23.24,23.24h4.2v5.74a4.93,4.93,0,0,0,4.91,4.91h75.75a4.93,4.93,0,0,0,4.91-4.91v-5.74h4.2a23.24,23.24,0,0,0,23.24-23.24V125h0a78.35,78.35,0,0,0-26.59.45,79.11,79.11,0,0,1-25.83.69l-.34,0a80.28,80.28,0,0,1-12.39-2.62c-9.66-2.94-33.5-3.08-43.7-1.65-6.83,1-16,3.18-22.91,3.18Z"/><path class="cls-2" d="M120.19,171.59H44.44a5.71,5.71,0,0,1-5.71-5.71v-4.94h-3.4a24.06,24.06,0,0,1-24-24V124.19h9.49c4.64,0,10.26-1,15.7-2,2.52-.45,4.91-.88,7.1-1.19,10.4-1.45,34.27-1.28,44,1.68a79,79,0,0,0,12.27,2.6l.34,0a78.12,78.12,0,0,0,25.57-.67,79,79,0,0,1,26.86-.46l.68.1v12.6a24.07,24.07,0,0,1-24,24h-3.4v4.94A5.71,5.71,0,0,1,120.19,171.59Zm-107.3-45.8V136.9a22.47,22.47,0,0,0,22.44,22.44h5v6.54A4.12,4.12,0,0,0,44.44,170h75.75a4.11,4.11,0,0,0,4.11-4.11v-6.54h5a22.47,22.47,0,0,0,22.44-22.44V125.68a77.27,77.27,0,0,0-25.64.55,79.9,79.9,0,0,1-26.09.69l-.34,0a81.09,81.09,0,0,1-12.52-2.65c-9.57-2.91-33.08-3.06-43.35-1.62-2.16.3-4.53.73-7,1.18-5.51,1-11.2,2-16,2Z"/><path class="cls-4" d="M158.13,167.6h-22.8V165a2.42,2.42,0,0,0-2.42-2.42H31.71A2.41,2.41,0,0,0,29.3,165v2.65H6.5a5.7,5.7,0,0,0-5.7,5.7V292a5.7,5.7,0,0,0,5.7,5.7H158.13a5.7,5.7,0,0,0,5.7-5.7V173.3A5.7,5.7,0,0,0,158.13,167.6Z"/><path class="cls-5" d="M158.13,298.47H6.5A6.5,6.5,0,0,1,0,292V173.3a6.5,6.5,0,0,1,6.5-6.5h22V165a3.22,3.22,0,0,1,3.21-3.22h101.2a3.22,3.22,0,0,1,3.21,3.22v1.85h22a6.51,6.51,0,0,1,6.5,6.5V292A6.51,6.51,0,0,1,158.13,298.47ZM6.5,168.4a4.9,4.9,0,0,0-4.9,4.9V292a4.91,4.91,0,0,0,4.9,4.91H158.13A4.91,4.91,0,0,0,163,292V173.3a4.9,4.9,0,0,0-4.9-4.9h-23.6V165a1.63,1.63,0,0,0-1.62-1.62H31.71A1.62,1.62,0,0,0,30.1,165v3.45Z"/><path class="cls-6" d="M29.75,192.85H134.88a0,0,0,0,1,0,0v72.42a9.83,9.83,0,0,1-9.83,9.83H39.58a9.83,9.83,0,0,1-9.83-9.83V192.85A0,0,0,0,1,29.75,192.85Z"/><path class="cls-5" d="M129.64,275.91H35a6,6,0,0,1-6-6V192.05H135.68v77.82A6,6,0,0,1,129.64,275.91ZM30.55,193.65v76.22A4.44,4.44,0,0,0,35,274.31h94.65a4.44,4.44,0,0,0,4.44-4.44V193.65Z"/><circle class="cls-7" cx="54.48" cy="218.39" r="8.79"/><circle class="cls-7" cx="110.15" cy="218.39" r="8.79"/><path class="cls-7" d="M49.61,218.39h9.72a0,0,0,0,1,0,0v15a1.94,1.94,0,0,1-1.94,1.94H51.55a1.94,1.94,0,0,1-1.94-1.94v-15a0,0,0,0,1,0,0Z"/><path class="cls-7" d="M105.29,218.39H115a0,0,0,0,1,0,0v15a1.94,1.94,0,0,1-1.94,1.94h-5.85a1.94,1.94,0,0,1-1.94-1.94v-15A0,0,0,0,1,105.29,218.39Z"/><path class="cls-8" d="M49.61,197.12h9.72a0,0,0,0,1,0,0v12.16A4.76,4.76,0,0,1,54.58,214h-.2a4.76,4.76,0,0,1-4.76-4.76V197.12A0,0,0,0,1,49.61,197.12Z" transform="translate(108.95 411.16) rotate(180)"/><path class="cls-9" d="M105.29,197.12H115a0,0,0,0,1,0,0v12.16a4.76,4.76,0,0,1-4.76,4.76H110a4.76,4.76,0,0,1-4.76-4.76V197.12a0,0,0,0,1,0,0Z" transform="translate(220.3 411.16) rotate(180)"/><path class="cls-10" d="M120.06,299.88H102.42a.93.93,0,0,1-.91-.77l-8-44.56a.16.16,0,0,1,.16-.19h35.15a.15.15,0,0,1,.15.19l-8,44.56A.94.94,0,0,1,120.06,299.88Z"/><path class="cls-2" d="M120.06,300H102.42a1,1,0,0,1-1-.87l-8-44.56a.27.27,0,0,1,.06-.23.26.26,0,0,1,.22-.1h35.15a.25.25,0,0,1,.21.1.28.28,0,0,1,.07.23l-8,44.56A1.05,1.05,0,0,1,120.06,300ZM93.67,254.48s0,0,0,0,0,0,0,0l8,44.56a.79.79,0,0,0,.79.66h17.64a.81.81,0,0,0,.8-.66l8-44.56s0,0,0,0l0,0Z"/><path class="cls-3" d="M120.2,299.88H102.29a.77.77,0,0,1-.76-.64l-.63-3.52h20.69l-.64,3.52A.76.76,0,0,1,120.2,299.88Z"/><path class="cls-2" d="M120.2,300H102.29a.89.89,0,0,1-.88-.73l-.66-3.67h21l-.66,3.67A.88.88,0,0,1,120.2,300ZM101,295.85l.61,3.37a.64.64,0,0,0,.64.53H120.2a.63.63,0,0,0,.63-.53l.61-3.37Z"/></g></g></svg>