<svg xmlns="http://www.w3.org/2000/svg" viewBox="0 0 200 194.45"><defs><style>.cls-1{fill:#98ddff;}.cls-2{fill:#9b602d;}</style></defs><title>caja botella</title><g id="Capa_2" data-name="Capa 2"><g id="Layer_1" data-name="Layer 1"><path class="cls-1" d="M92.79,40.39C87.69,31.51,84.36,30,80,26.67c-2.73-2.32-2.87-6.56-2.87-6.56V0H54.46V20.11s.16,4.47-2.76,6.56c-8.34,6-11.15,11-13.57,15.93-1.48,3-1.31,6.36-1.31,9.49V194.36h59V51.62A22.48,22.48,0,0,0,92.79,40.39Z"/><path class="cls-1" d="M162.61,40.39c-5.1-8.88-8.44-10.35-12.76-13.72-2.73-2.32-2.87-6.56-2.87-6.56V0H124.27V20.11s.17,4.47-2.75,6.56c-8.34,6-11.15,11-13.57,15.93-1.49,3-1.32,6.36-1.32,9.49V194.36h59V51.62A22.48,22.48,0,0,0,162.61,40.39Z"/><path class="cls-2" d="M0,95.5v98.95H200V95.5Zm148.05,23.67a14.29,14.29,0,0,1-14.3,14.29H66.25A14.29,14.29,0,0,1,52,119.17h0a14.3,14.3,0,0,1,14.3-14.3h67.5a14.3,14.3,0,0,1,14.3,14.3Z"/></g></g></svg>