<svg xmlns="http://www.w3.org/2000/svg" width="150" height="99.01" viewBox="0 0 150 99.01"><defs><style>.a{fill:#eefffd;}.b{fill:#6ee0ff;}.c{opacity:0.56;}.d{fill:#474747;}.e{fill:none;stroke:#6ee0ff;stroke-miterlimit:10;stroke-width:1px;}.f{opacity:0.21;}.g{fill:#c00;}.h{fill:#dd3636;}.i{fill:#ffda00;}.j{fill:#fff292;}.k{fill:#0070cc;}.l{fill:#78c8ff;}</style></defs><title>Caja_1</title><polygon class="a" points="0.5 83.6 0.5 28.37 75.06 43.28 149.5 11.13 149.5 66.29 74.94 98.49 0.5 83.6"/><path class="b" d="M149,11.89V66L74.89,98,1,83.19V29L74.8,43.74l.31.06.29-.12L149,11.89m1-1.52L75,42.76l-75-15V84L75,99l75-32.4V10.36Z"/><g class="c"><rect class="a" x="59.88" y="13.47" width="28.06" height="14.47"/><path class="b" d="M87.44,14V27.44H60.38V14H87.44m1-1H59.38V28.44H88.44V13Z"/></g><path class="d" d="M75,0,0,27.76l75,15,75-32.4Zm0,22.63c-6.73,0-12.19-1.43-12.19-3.19S68.27,16.25,75,16.25s12.19,1.43,12.19,3.19S81.73,22.63,75,22.63Z"/><line class="e" x1="75" y1="43.59" x2="75" y2="98.07"/><g class="f"><circle class="g" cx="36.95" cy="76.89" r="9.6"/><circle class="h" cx="39.75" cy="70.39" r="1.63"/></g><g class="f"><circle class="i" cx="56.15" cy="60.79" r="9.6"/><circle class="j" cx="60.34" cy="54.96" r="1.57"/></g><g class="f"><circle class="k" cx="59.38" cy="81.62" r="9.6"/><circle class="l" cx="62.68" cy="75.79" r="1.57"/></g><g class="f"><circle class="g" cx="91.59" cy="61.04" r="9.6"/><circle class="h" cx="94.38" cy="54.54" r="1.63"/></g><g class="f"><circle class="i" cx="87.11" cy="81.62" r="9.6"/><circle class="j" cx="91.3" cy="75.79" r="1.57"/></g><g class="f"><circle class="k" cx="111.33" cy="70.39" r="9.6"/><circle class="l" cx="114.63" cy="64.56" r="1.57"/></g><g class="f"><circle class="g" cx="13.99" cy="72.02" r="9.6"/><circle class="h" cx="16.78" cy="65.52" r="1.63"/></g><g class="f"><circle class="k" cx="28.02" cy="56.17" r="9.6"/><circle class="l" cx="31.33" cy="50.34" r="1.57"/></g><g class="f"><circle class="i" cx="130.53" cy="62.22" r="9.6"/><circle class="j" cx="134.72" cy="56.39" r="1.57"/></g><g class="f"><circle class="k" cx="113.07" cy="48.77" r="9.6"/><circle class="l" cx="116.38" cy="42.94" r="1.57"/></g><g class="f"><circle class="g" cx="134.72" cy="40.04" r="9.6"/><circle class="h" cx="137.51" cy="33.54" r="1.63"/></g></svg>