<svg xmlns="http://www.w3.org/2000/svg" viewBox="0 0 300.54 206.66"><defs><style>.cls-1{fill:#3f3f3f;}</style></defs><title>tombola_1</title><g id="Capa_2" data-name="Capa 2"><g id="Layer_1" data-name="Layer 1"><path class="cls-1" d="M297.09,46.57h-29.6a5.63,5.63,0,0,0-5.64,5.63V90.46H232.64A96.54,96.54,0,0,0,46.87,60.2a6.32,6.32,0,0,0-.37.92,96.29,96.29,0,0,0-6.63,35.26V97l-.2-.66L0,206.66H16.87l23.89-97.13a96.56,96.56,0,0,0,185.06,23c.14-.28.37-.92.37-.92A95,95,0,0,0,231.72,111l23.52,95.63h16.88L232.82,97.41v0h35.93V53.46h28.34a3.45,3.45,0,1,0,0-6.89ZM136.6,171c-32,0-62.77-14.66-86.78-41.29a91.87,91.87,0,0,1-6.07-28.4,127.49,127.49,0,0,0,41,28.49,129.52,129.52,0,0,0,103.19,0,127.49,127.49,0,0,0,41-28.49,91.84,91.84,0,0,1-6.45,29.37C198.61,156.65,168.17,171,136.6,171Zm-.5-149.17c32,0,62.76,14.67,86.77,41.3a91.81,91.81,0,0,1,6.07,28.39A129.18,129.18,0,0,0,84.75,63a127.49,127.49,0,0,0-41,28.49A91.72,91.72,0,0,1,50.2,62.12C74.08,36.1,104.52,21.79,136.1,21.79Zm90.54,76.46a125.2,125.2,0,0,1-180.59,0ZM46.05,94.5a125.2,125.2,0,0,1,180.59,0Zm90.3-90.75a92.81,92.81,0,0,1,81.82,49.1C194.67,30.32,165.89,18,136.1,18h0c-29.36,0-57.74,11.93-81,33.83A92.83,92.83,0,0,1,136.35,3.75Zm0,185.25a92.82,92.82,0,0,1-81.83-49.1c23.5,22.53,52.28,34.81,82.08,34.81,29.36,0,57.73-11.92,81-33.83A92.79,92.79,0,0,1,136.35,189Z"/></g></g></svg>