<svg xmlns="http://www.w3.org/2000/svg" viewBox="0 0 195 199.84"><defs><style>.cls-1{fill:#8dd647;}.cls-2{fill:#8ee04f;}.cls-3{fill:#b9f980;}.cls-4{fill:#76b73e;}.cls-5{fill:#fff;}.cls-6{fill:#353535;}.cls-7{fill:#87c93a;}.cls-8{fill:#4a7f1b;}</style></defs><title>rana</title><g id="Capa_2" data-name="Capa 2"><g id="Layer_1" data-name="Layer 1"><path class="cls-1" d="M148.16,103.74H153a9.65,9.65,0,0,1,9.65,9.65v2a9.65,9.65,0,0,1-9.65,9.65h0a4.83,4.83,0,0,1-4.83-4.83V103.74A0,0,0,0,1,148.16,103.74Z"/><circle class="cls-2" cx="137.31" cy="14.88" r="14.88"/><path class="cls-1" d="M44.83,103.74h4.83a0,0,0,0,1,0,0v16.49a4.83,4.83,0,0,1-4.83,4.83h0a9.65,9.65,0,0,1-9.65-9.65v-2A9.65,9.65,0,0,1,44.83,103.74Z"/><circle class="cls-2" cx="98.71" cy="133.5" r="59.11"/><circle class="cls-3" cx="99.71" cy="133.7" r="49.26"/><ellipse class="cls-4" cx="97.5" cy="55.09" rx="76" ry="49.86"/><ellipse class="cls-2" cx="97.5" cy="54.28" rx="76" ry="49.86"/><circle class="cls-2" cx="56.08" cy="14.88" r="14.88"/><circle class="cls-5" cx="60.71" cy="25.53" r="16.69"/><circle class="cls-6" cx="60.71" cy="29.24" r="7.15"/><path class="cls-7" d="M148.16,129.68c0,6.55.67,11.86,14.88,11.86s25.74-5.31,25.74-11.86S177.25,117.81,163,117.81,148.16,123.13,148.16,129.68Z"/><ellipse class="cls-7" cx="168.07" cy="146.97" rx="28.75" ry="11.86" transform="translate(-52.17 183.59) rotate(-50.61)"/><path class="cls-7" d="M153.74,187.31h0c.76-.14,6.52-7,6.52-7,.56-.67,2.12-.67,3.55,0,1.85.86,7.77,4.7,11.52,4,4.83-.9,1.53-6.57,1.53-6.57-.18-.81,1-1.17,2.42-.75l12.2,2.41c3.32.65,4.74-1,2.27-2.8a8.93,8.93,0,0,0-2.23-1.15L156,162.62l-8.26-.18-.08,21.32C147.67,185.69,151.18,187.78,153.74,187.31Z"/><path class="cls-7" d="M50.86,129.68c0,6.55-4.69,11.86-18.9,11.86S6.22,136.23,6.22,129.68,17.75,117.81,32,117.81,50.86,123.13,50.86,129.68Z"/><ellipse class="cls-7" cx="26.93" cy="146.97" rx="11.86" ry="28.75" transform="translate(-87.15 50.48) rotate(-39.39)"/><path class="cls-7" d="M41.26,187.31h0c-.76-.14-6.52-7-6.52-7-.56-.67-2.12-.67-3.55,0-1.85.86-7.77,4.7-11.52,4-4.83-.9-1.53-6.57-1.53-6.57.18-.81-1-1.17-2.42-.75l-12.2,2.41c-3.32.65-4.74-1-2.27-2.8a8.93,8.93,0,0,1,2.23-1.15L39,162.62l8.26-.18.08,21.32C47.33,185.69,43.82,187.78,41.26,187.31Z"/><path class="cls-1" d="M56.57,140.16c5.57,19.66,6.45,36.62,2,37.89s-12.64-13.63-18.21-33.28-5.88-35.37-2-37.9C56.89,94.9,51,120.5,56.57,140.16Z"/><path class="cls-1" d="M156.54,145.84c-6.7,19.3-15.7,33.71-20.11,32.18s-2.54-18.42,4.16-37.72-2.48-47,20.11-32.17C164.6,110.69,163.24,126.54,156.54,145.84Z"/><path class="cls-1" d="M73.09,199h0c-.6,0-8.7-4.77-8.7-4.77a1.75,1.75,0,0,0-2.37.58c-.63,1-1.92,5-4.73,5-3.62,0-5.53-5.07-5.53-5.07a1.39,1.39,0,0,0-2.1-.25l-5.8,3.82a2.25,2.25,0,0,1-3.5-1.9,2.51,2.51,0,0,1,.47-1.29l13.65-18.63,6-2,14.57,20.68A2.44,2.44,0,0,1,73.09,199Z"/><path class="cls-1" d="M123.43,199h0c.54,0,7.85-4.77,7.85-4.77a1.49,1.49,0,0,1,2.13.58c.57,1,1.73,5,4.27,5,3.26,0,5-5.07,5-5.07a1.18,1.18,0,0,1,1.89-.25l5.22,3.82a2,2,0,0,0,3.16-1.9,2.63,2.63,0,0,0-.42-1.29l-12.31-18.63-5.43-2-13.15,20.68C120.6,196.81,121.65,199,123.43,199Z"/><ellipse class="cls-4" cx="52.06" cy="69.56" rx="6.84" ry="4.42" transform="translate(-33.94 57.19) rotate(-45)"/><ellipse class="cls-4" cx="142.54" cy="69.56" rx="4.42" ry="6.84" transform="translate(-7.44 121.16) rotate(-45)"/><path class="cls-8" d="M97.53,83.32A79.91,79.91,0,0,1,52,69.13l.23-.34a80.18,80.18,0,0,0,90.65,0l.23.34A79.91,79.91,0,0,1,97.53,83.32Z"/><path class="cls-8" d="M144.79,73.39a8.27,8.27,0,0,0-6.61-6.61l.07-.4a8.67,8.67,0,0,1,6.94,6.94Z"/><path class="cls-8" d="M50.2,73.39l-.39-.07a8.67,8.67,0,0,1,6.94-6.94l.07.4A8.29,8.29,0,0,0,50.2,73.39Z"/><circle class="cls-5" cx="133.49" cy="25.53" r="16.69"/><circle class="cls-6" cx="133.49" cy="29.24" r="7.15"/><circle class="cls-4" cx="29.75" cy="65.74" r="2.61"/><circle class="cls-4" cx="28.94" cy="56.09" r="1.81"/><circle class="cls-4" cx="32.16" cy="47.65" r="3.42"/><circle class="cls-4" cx="164.05" cy="47.65" r="3.42"/><circle class="cls-4" cx="166.06" cy="56.09" r="1.81"/><circle class="cls-4" cx="166.06" cy="65.74" r="2.61"/><ellipse class="cls-4" cx="93.68" cy="52.07" rx="0.8" ry="1.01"/><ellipse class="cls-4" cx="101.32" cy="52.07" rx="0.8" ry="1.01"/><ellipse class="cls-4" cx="83.83" cy="12.87" rx="5.63" ry="2.01"/><ellipse class="cls-4" cx="97.5" cy="22.92" rx="5.63" ry="2.01"/><ellipse class="cls-4" cx="110.37" cy="17.29" rx="5.63" ry="2.01"/><ellipse class="cls-4" cx="41.41" cy="126.86" rx="3.42" ry="6.63" transform="translate(-24.08 10.58) rotate(-11.31)"/><ellipse class="cls-4" cx="53.27" cy="151.39" rx="2.41" ry="3.42" transform="translate(-46.29 25.52) rotate(-18.96)"/><ellipse class="cls-4" cx="49.85" cy="166.07" rx="1.41" ry="3.62" transform="translate(-59.27 31.32) rotate(-22.29)"/><ellipse class="cls-4" cx="158.42" cy="122.44" rx="6.63" ry="3.02" transform="translate(5.37 251.53) rotate(-77.85)"/><ellipse class="cls-4" cx="148.77" cy="140.73" rx="4.02" ry="2.61" transform="translate(-29.74 241.1) rotate(-72.76)"/><ellipse class="cls-4" cx="138.31" cy="163.65" rx="6.03" ry="1.41" transform="translate(-43.34 277.3) rotate(-81.83)"/><circle class="cls-4" cx="13.46" cy="130.68" r="5.63"/><circle class="cls-4" cx="181.14" cy="130.68" r="5.63"/><ellipse class="cls-4" cx="34.77" cy="149.18" rx="4.02" ry="6.84" transform="translate(-53.99 24.34) rotate(-22.29)"/><ellipse class="cls-4" cx="159.83" cy="151.19" rx="6.84" ry="3.22" transform="translate(-41.14 240.72) rotate(-67.42)"/></g></g></svg>