<svg xmlns="http://www.w3.org/2000/svg" viewBox="0 0 2149.03 299.93"><defs><style>.cls-1{fill:#ff0002;}.cls-2{fill:#534f51;}.cls-3{fill:#00cb70;}.cls-4{fill:#fff;stroke:#000;stroke-miterlimit:10;}.cls-5{fill:#e9d3c5;}.cls-6{fill:#7a97b9;}.cls-7,.cls-8{fill:#587a96;}.cls-7{opacity:0.5;}.cls-9{fill:#608c80;}.cls-10{fill:#9f5936;}.cls-11{fill:#dedede;}.cls-12{fill:#b99151;}.cls-13{fill:#7e6031;}.cls-14{fill:#4c381c;}.cls-15{fill:#414141;}.cls-16{fill:#c3a72e;}.cls-17{fill:#ad6a43;}.cls-18{fill:#7a2326;}.cls-19{fill:#bc5f5e;}.cls-20{fill:#3d3d3d;}</style></defs><title>corredor_1</title><g id="Capa_2" data-name="Capa 2"><g id="Capa_1-2" data-name="Capa 1"><rect y="293.58" width="2147.48" height="6.35"/><polygon class="cls-1" points="477.97 52.87 338.24 5.93 338.24 99.81 477.97 52.87"/><rect class="cls-2" x="327.81" y="5.93" width="10.43" height="291.98"/><polygon class="cls-3" points="1128.66 52.87 988.93 5.93 988.93 99.81 1128.66 52.87"/><rect class="cls-2" x="978.5" y="5.93" width="10.43" height="291.98"/><polygon class="cls-4" points="2147.48 54.28 2007.75 7.35 2007.75 102.6 2147.48 54.28"/><rect class="cls-2" x="1996.25" y="5.93" width="10.43" height="291.98"/><path d="M2030,65.34l-7.27-19h-.12q.21,2.25.21,5.37V65.34h-2.31V43.89h3.76l6.79,17.69h.12l6.85-17.69h3.73V65.34h-2.5V51.52c0-1.58.07-3.31.21-5.16h-.12l-7.34,19Z"/><path d="M2054.09,65.63a7.38,7.38,0,0,1-5.63-2.17,8.4,8.4,0,0,1-2.06-6,9.33,9.33,0,0,1,1.91-6.17,6.35,6.35,0,0,1,5.14-2.29,6.07,6.07,0,0,1,4.79,2A7.62,7.62,0,0,1,2060,56.2v1.54h-11.08a6.41,6.41,0,0,0,1.43,4.3,5,5,0,0,0,3.82,1.47,13,13,0,0,0,5.14-1.09v2.17a13.06,13.06,0,0,1-2.44.8A13.9,13.9,0,0,1,2054.09,65.63ZM2053.43,51a4,4,0,0,0-3.09,1.26,5.81,5.81,0,0,0-1.36,3.49h8.41a5.38,5.38,0,0,0-1-3.53A3.63,3.63,0,0,0,2053.43,51Z"/><path d="M2069.34,63.62a8.45,8.45,0,0,0,1.25-.09,8.83,8.83,0,0,0,.95-.2v1.86a4.15,4.15,0,0,1-1.16.32,9.21,9.21,0,0,1-1.39.12c-3.11,0-4.67-1.63-4.67-4.91V51.15H2062V50l2.3-1,1-3.44h1.41v3.73h4.67v1.89h-4.67v9.47a3.27,3.27,0,0,0,.69,2.23A2.42,2.42,0,0,0,2069.34,63.62Z"/><path d="M2084.64,65.34l-.48-2.29H2084a6.75,6.75,0,0,1-2.4,2,7.23,7.23,0,0,1-3,.53,5.36,5.36,0,0,1-3.75-1.23,4.47,4.47,0,0,1-1.36-3.5q0-4.87,7.79-5.11l2.73-.09v-1a4.08,4.08,0,0,0-.81-2.79,3.37,3.37,0,0,0-2.61-.9,10.66,10.66,0,0,0-4.55,1.23l-.74-1.86a11.73,11.73,0,0,1,2.6-1,11.46,11.46,0,0,1,2.84-.36,6.11,6.11,0,0,1,4.26,1.27,5.32,5.32,0,0,1,1.39,4.1v11Zm-5.5-1.72a4.92,4.92,0,0,0,3.57-1.24,4.61,4.61,0,0,0,1.3-3.5V57.43l-2.43.11a8.66,8.66,0,0,0-4.19.9,2.71,2.71,0,0,0-1.29,2.48,2.52,2.52,0,0,0,.8,2A3.33,3.33,0,0,0,2079.14,63.62Z"/><path class="cls-5" d="M132.64,178.07s-5,34.28-31.3,41-42.55-2.79-42.55-2.79S56.1,213.7,53,219.56c0,0,22.67,13.54,55.89,8.45,32.27-7.68,38.32-46.77,38.32-46.77Z"/><path class="cls-5" d="M165.68,182s27,28,39.56,46,28,47.63,28,47.63,2.31,4,6.4-.77l-2.81-4.48.25-1.54S197.81,178.17,184,177.14Z"/><path class="cls-6" d="M138.72,131.05s-10.37,16.84-4.22,28.87c0,0-4.93,14.09-6.6,16.65,0,0-2,2.88,7.17,9.15a43.58,43.58,0,0,0,18.83,7.11s.38.32.76-.9,2.69-6.14,2.69-6.14,9.73,8.51,10.69,10.3a1.3,1.3,0,0,0,2.25.45s21.11-14.16,22.05-19.17a.5.5,0,0,0-.15-.46l-22.8-21.66s3.58-14,1.92-20.36Z"/><path class="cls-7" d="M134.5,159.92s-4.93,14.09-6.6,16.65c0,0-2,2.88,7.17,9.15a43.58,43.58,0,0,0,18.83,7.11s.38.32.76-.9,2.69-6.14,2.69-6.14Z"/><path class="cls-8" d="M163.27,143.16s.28,5.59,6.12,12.09c0,0,2.38-9.2,1.9-13.53Z"/><path class="cls-9" d="M139.84,80.44s5,5.47,5.13-.74-6.32-18.4-6.32-18.4Z"/><path class="cls-5" d="M168.08,76.57s17.19,36.68,30.53,38.31,21.71-14.59,21.71-14.59-9.22-14.34-4-19.43c2-1.48,3.84,5.41,4.73,9.6,0,0,.58,1.12,2.31-1.34,1.25-1.79,3.32-5.34,4.66-7.72a19.08,19.08,0,0,0,1.4-3.25c.31-.92,1-1.9,2.2-1,2.08,1.44,1,9.09-1.19,10,0,0,6.31-1.86,2.72,4.73,0,0,9.19.39,4.16,4.77s-9,6.12-13,5.48c0,0-8.52,24.2-27,21.64s-30.54-23.47-30.54-23.47Z"/><path class="cls-10" d="M228.13,88.48a11.36,11.36,0,0,0-1.45,1,9.08,9.08,0,0,0-1.24,1.24,3.42,3.42,0,0,0-.72,1.53,2.31,2.31,0,0,0,0,.83,2.83,2.83,0,0,0,.29.78v0a3.91,3.91,0,0,0,.75.77,3.21,3.21,0,0,0,.95.5,4.57,4.57,0,0,0,1.05.23,4.31,4.31,0,0,0,1.08,0l.35-.06-.15.31a12.09,12.09,0,0,0-.73,2,3.67,3.67,0,0,0-.05,2,1.29,1.29,0,0,0,.69.67,3.78,3.78,0,0,0,1,.26,8,8,0,0,0,2.13-.1,7,7,0,0,1-2.14.26,3.41,3.41,0,0,1-1.08-.22,1.52,1.52,0,0,1-.84-.76,3.63,3.63,0,0,1,0-2.21,11.33,11.33,0,0,1,.72-2l.2.25a4.26,4.26,0,0,1-1.18.06,3.82,3.82,0,0,1-1.15-.25,3.47,3.47,0,0,1-1-.57,3.89,3.89,0,0,1-.82-.85h0a3,3,0,0,1-.31-.88,2.29,2.29,0,0,1,0-.94,3.7,3.7,0,0,1,.84-1.62,7.62,7.62,0,0,1,1.33-1.21A10.32,10.32,0,0,1,228.13,88.48Z"/><path class="cls-10" d="M223.71,91.2a6.31,6.31,0,0,1,1.39,3.1,5.08,5.08,0,0,1,0,1.74,4,4,0,0,1-.71,1.56,6.25,6.25,0,0,0,.41-1.61,6.35,6.35,0,0,0,0-1.63,8.12,8.12,0,0,0-.39-1.6A11.51,11.51,0,0,0,223.71,91.2Z"/><path class="cls-11" d="M138.65,61.3l1.45,23.53s8.74,8.45.68,35.43l-7.56,13.16s6.21,10.46,39,11.91c0,0,4.75-9.9,3.39-29.77s-8-47.44-8-47.44S140.83,61,138.65,61.3Z"/><path class="cls-12" d="M120.73,40s22.92,13.89,31.5,1.35a77.74,77.74,0,0,1,18.38-19.15S175.15,6.53,157.74.51c-6.6-2.11-15.18,2.75-20.36,6.72s-20.94.64-20.94.64-.57,8,5,12.36L114,26.5s1.79,5.64,15.23,7.94Z"/><path class="cls-13" d="M120.73,40s15.08,9.09,25.32,6c7.29-2.24,24.82-25.78,24.82-25.78s-1-11.16-9.93-10.88c-4.68-.28-19.27,10.82-19.27,10.82s-11.15,8.79-25.1-9.38c0,0,.32,5.92,4.87,9.48L114,26.5s1,5.27,15.23,7.94Z"/><path class="cls-5" d="M168.49,14.69s16.2,36.53,12.93,38.64S165,58.8,161.64,59c0,0-1.82,5.29-.38,7.35l1.58,1.06s.34,6.19-2.14,5.52-10.44-7.68-10.58-9.17c0,0,4.61-1.44,4.32-4.61a26,26,0,0,1-4.32-13.35,11.43,11.43,0,0,1-4.75,1.58c-1.83,0-7.23-1.57-6.74-8.61.46-6.7,5.82-5.12,5.82-5.12s3.36,1.2,3.27,2.16c0,0,.57-4.22-.87-11.81,0,0,4.9-2.45,5.38-4.94s7.94-4.29,9.73-4.33S168.49,14.69,168.49,14.69Z"/><path class="cls-14" d="M170.87,20.19a12.86,12.86,0,0,0-3.66-8.47c-3.84-4.2-10.27-.84-14.47,6C150,22.35,146.9,24,144,25a25.17,25.17,0,0,1-7.9,1.22c-3.74,0-8-.29-9.73-1.71A17.19,17.19,0,0,0,138,27.05c6.19-.92,11.68-3.62,14.23-7.58.23-.36.4-.75.6-1.13.35-.71,2.5-3,15.35-3.55Z"/><ellipse class="cls-15" cx="159.71" cy="30.79" rx="1.9" ry="3.11" transform="translate(-2.67 40.2) rotate(-14.23)"/><ellipse class="cls-15" cx="170.49" cy="28.06" rx="1.75" ry="3.11" transform="translate(-1.67 42.76) rotate(-14.23)"/><path class="cls-16" d="M158.74,20.37a7.57,7.57,0,0,0-4.47,2.93s1.25-3.65,4.11-3.56C159.15,19.93,158.74,20.37,158.74,20.37Z"/><path class="cls-16" d="M165.42,18.92a6.63,6.63,0,0,1,4.82.37s-2.72-2.41-4.84-1C164.9,18.75,165.42,18.92,165.42,18.92Z"/><path class="cls-17" d="M168.22,32.59a2.19,2.19,0,0,0,1,1.12,1,1,0,0,0,.67,0,7.5,7.5,0,0,0,.75-.22,6.55,6.55,0,0,1,.82-.21,2,2,0,0,1,1,.06,1.49,1.49,0,0,1,.77.71,3.3,3.3,0,0,1,.31.86,4.52,4.52,0,0,1,.05,1.76,2.42,2.42,0,0,1-.94,1.56,3.18,3.18,0,0,1-.4.23l-.44.14-.43.06c-.15,0-.29,0-.43,0a4.49,4.49,0,0,1-.83-.13c-.27-.07-.53-.17-.79-.26l.82.05a5.23,5.23,0,0,0,.79,0,2.25,2.25,0,0,0,1.34-.51,1.91,1.91,0,0,0,.59-1.22,3.8,3.8,0,0,0-.08-1.46c-.1-.49-.29-.94-.6-1.07a2.8,2.8,0,0,0-1.39.06l-.4.08a2.47,2.47,0,0,1-.43.06,1.53,1.53,0,0,1-.91-.21A2.06,2.06,0,0,1,168.22,32.59Z"/><path class="cls-17" d="M141.19,39.21A3.49,3.49,0,0,1,142,37.7a3.26,3.26,0,0,1,1.48-1,3.63,3.63,0,0,1,.45-.1c.16,0,.32,0,.47,0l.46.09a1.72,1.72,0,0,1,.43.16,2.9,2.9,0,0,1,.74.47,5.58,5.58,0,0,1,.56.64c-.28-.09-.51-.23-.76-.32l-.37-.13a1.56,1.56,0,0,0-.37-.1,2.56,2.56,0,0,0-1.4,0,4.11,4.11,0,0,0-1.28.69A11.68,11.68,0,0,0,141.19,39.21Z"/><path class="cls-18" d="M155.43,39.21s18.34,4.58,19.14,4.29c0,0-4.28,11.88-11.39,10.12S155,40.43,155.43,39.21Z"/><path class="cls-19" d="M156.58,46.5s1.8,6,6.6,7.12c2.9.55,4.11-.47,4.11-.47S166.3,46,156.58,46.5Z"/><path class="cls-5" d="M140,63.91s4.53,10.21,4.77,13.15c0,0-25.62,9-29.94,26.25s.19,23.48,10.47,35.77c0,0,5.41-12.49,10.46-10l-2.49,4.33.79,1-1.85,1.85,6.72,2.45s3.17,1,1.2,3.12c-1.47,1.62-2.71,1.57-3.23,1.44-.29-.07-.58-.14-.88-.19l-5.83-.91,1.81,2.77a5,5,0,0,1,.7,1.56c.35,1.39.18,3.5-4.19,3.11a10,10,0,0,1,1.76,2.34,1.67,1.67,0,0,1-1.2,2.38,10.36,10.36,0,0,1-4.43-.32,29.67,29.67,0,0,1-3.45-2.09,3.5,3.5,0,0,1-1.49-3.95c.34-1.08,1.24-2.06,3.34-2.11,0,0-1.25-2.83-.86-3.65,0,0-26.23-16.32-17.91-40.86C112.28,77.53,140,63.91,140,63.91Z"/><path class="cls-10" d="M123.65,146.05a20,20,0,0,1,2.52,1.62,19,19,0,0,1,2.29,1.93,23.24,23.24,0,0,1-4.81-3.55Z"/><path class="cls-20" d="M59.11,216.46s-5.41-7.75-7.39-8.2-9.16,3.33-9.73,10.82c0,0-11.65,9.54-9.54,27.33,0,0,7.68,3.27,9.79,2,0,0-.12-10.82.45-11,0,0,8.45-11.2,11.21-11l3.84.7s1,.58,1.37-.76.67-3.64.67-3.64L53,219.56S55.2,214.76,59.11,216.46Z"/><path class="cls-20" d="M233,275s-2.63,2.2,0,6.13,6.86,11.14,7.15,12.29,9.6-3.55,12-10c0,0,15.56-6.05,20.94-19.88,0,0-2.79-5.28-8.36-4.51-2.3-.08-6.14,8.16-7.3,8.35s-8.54,3.07-12.86,2.69l-.48-4.61s-1.54-3.46-5.19-.38-.54,9.34.83,9.76S233.49,278.93,233,275Z"/></g></g></svg>