<svg id="Layer_1" data-name="Layer 1" xmlns="http://www.w3.org/2000/svg" viewBox="0 0 65.13 800"><defs><style>.cls-1{fill:#fbb429;}</style></defs><title>Barra cuentas</title><path class="cls-1" d="M40.19,65V739.64c0,10.23-15.24,10.23-15.24,0V65c0-10.24,15.24-10.25,15.24,0Zm0,0"/><path class="cls-1" d="M32.57,15A17.49,17.49,0,1,1,15.08,32.49,17.51,17.51,0,0,1,32.57,15m0-15A32.49,32.49,0,1,0,65.05,32.49,32.49,32.49,0,0,0,32.57,0Z"/><path class="cls-1" d="M32.57,750a17.49,17.49,0,1,1-17.49,17.49A17.51,17.51,0,0,1,32.57,750m0-15a32.49,32.49,0,1,0,32.48,32.49A32.49,32.49,0,0,0,32.57,735Z"/></svg>