<svg width="500" height="500" xmlns="http://www.w3.org/2000/svg">
 <!-- Created with Method Draw - http://github.com/duopixel/Method-Draw/ -->

 <g>
  <title>background</title>
  <rect fill="#fff" id="canvas_background" height="502" width="502" y="-1" x="-1"/>
  <g display="none" overflow="visible" y="0" x="0" height="100%" width="100%" id="canvasGrid">
   <rect fill="url(#gridpattern)" stroke-width="0" y="0" x="0" height="100%" width="100%"/>
  </g>
 </g>
 <g>
  <title>Layer 1</title>
  <defs>
   <style>.cls-1{fill:#f05023;}.cls-2{fill:#8e1013;}</style>
  </defs>
  <defs>
   <style>.cls-1{fill:#f05023;}.cls-2{fill:#8e1013;}</style>
  </defs>
  <defs>
   <style>.cls-1{fill:#f05023;}.cls-2{fill:#8e1013;}</style>
  </defs>
  <g stroke="null" id="svg_158">
   <path stroke="null" id="svg_123" d="m236.434209,16.908958c0,3.233144 -0.479383,5.640238 -1.446561,7.239046a4.894758,5.169478 0 0 1 -4.423784,2.389329a4.827476,5.09842 0 0 1 -4.339682,-2.451505q-1.488612,-2.451505 -1.488612,-7.17687q0,-4.876363 1.43815,-7.247928a5.3405,5.640238 0 0 1 8.763466,0.106587q1.505432,2.46927 1.497022,7.141341zm-9.671772,0q0,4.076959 0.908306,5.942235a3.263172,3.446319 0 0 0 5.803063,0c0.605537,-1.261282 0.899895,-3.233144 0.899895,-5.915588s-0.294358,-4.645424 -0.899895,-5.897824a3.271582,3.455201 0 0 0 -5.803063,0q-0.908306,1.8031 -0.908306,5.871177z"/>
   <path stroke="null" id="svg_124" d="m252.405248,26.555098a5.735781,6.057704 0 0 1 -2.363276,-0.506289a4.465836,4.716483 0 0 1 -1.799791,-1.554396l-0.142974,0a16.971857,17.92441 0 0 1 0.142974,2.327153l0,5.76459l-2.010047,0l0,-20.313739l1.682047,0l0.277538,1.918569l0.092513,0a4.61722,4.876363 0 0 1 1.808201,-1.660983a5.382551,5.684649 0 0 1 2.354866,-0.515171a4.936809,5.213889 0 0 1 4.078965,1.900805a9.638131,10.179075 0 0 1 0,10.712011a4.928399,5.205007 0 0 1 -4.121016,1.927451zm-0.285948,-12.719403a3.57435,3.774962 0 0 0 -2.960403,1.172459a5.786243,6.110998 0 0 0 -0.933536,3.783845l0,0.47076c0,1.971863 0.311179,3.375261 0.933536,4.227958a3.55753,3.757198 0 0 0 2.994044,1.270164a3.094967,3.268673 0 0 0 2.691276,-1.474456a6.602036,6.972578 0 0 0 0.975587,-4.050313a6.341318,6.697228 0 0 0 -0.975587,-4.014784a3.18748,3.366378 0 0 0 -2.724917,-1.403398l0,0.017765z"/>
   <path stroke="null" id="svg_125" d="m265.710242,24.778645a6.728189,7.105812 0 0 0 1.026049,-0.088823a8.014955,8.464798 0 0 0 0.790562,-0.168763l0,1.625454a3.826658,4.04143 0 0 1 -0.967177,0.266468a6.526343,6.892637 0 0 1 -1.143792,0.115469q-3.843478,0 -3.843478,-4.281252l0,-8.340446l-1.900713,0l0,-1.02146l1.900713,-0.888226l0.841024,-2.993323l1.160613,0l0,3.250909l3.851888,0l0,1.643219l-3.851888,0l0,8.251624a2.674455,2.82456 0 0 0 0.571896,1.936334a1.984816,2.096214 0 0 0 1.564304,0.692817z"/>
   <path stroke="null" id="svg_126" d="m278.729288,22.460374a3.364095,3.552906 0 0 1 -1.379279,3.011088a6.467472,6.830461 0 0 1 -3.877119,1.065872a8.334544,8.802324 0 0 1 -4.112606,-0.888226l0,-1.96298a10.092284,10.658718 0 0 0 2.052098,0.799404a8.258852,8.722384 0 0 0 2.1362,0.293115a4.768604,5.036244 0 0 0 2.422148,-0.532936a1.732509,1.829747 0 0 0 0.176615,-3.01997a10.571667,11.165007 0 0 0 -2.623994,-1.367869a14.423555,15.233084 0 0 1 -2.632404,-1.279046a3.633222,3.837138 0 0 1 -1.160613,-1.225753a3.078147,3.250909 0 0 1 -0.378461,-1.652101a2.951993,3.117675 0 0 1 1.320407,-2.664679a6.097421,6.439642 0 0 1 3.616402,-0.994814a10.596898,11.191653 0 0 1 4.205118,0.888226l-0.71487,1.723159a9.654951,10.19684 0 0 0 -3.616402,-0.888226a4.205118,4.441132 0 0 0 -2.153021,0.47076a1.396099,1.474456 0 0 0 -0.731691,1.305693a1.497022,1.581043 0 0 0 0.277538,0.959285a2.607173,2.753502 0 0 0 0.841024,0.754992a18.50252,19.540982 0 0 0 2.321225,1.030343a8.738236,9.228673 0 0 1 3.18748,1.829747a3.044506,3.21538 0 0 1 0.824203,2.344918z"/>
   <path stroke="null" id="svg_127" d="m232.153398,77.077419l-1.967995,0l0,-13.323397q0,-1.660983 0.100923,-3.144322c-0.168205,0.177645 -0.36164,0.364173 -0.571896,0.559583s-1.169023,1.030343 -2.876301,2.495916l-1.0681,-1.456691l4.684502,-3.819374l1.682047,0l0.01682,18.688285z"/>
   <path stroke="null" id="svg_128" d="m252.405248,77.326122a5.735781,6.057704 0 0 1 -2.363276,-0.506289a4.440605,4.689836 0 0 1 -1.799791,-1.545514l-0.142974,0a16.971857,17.92441 0 0 1 0.142974,2.327153l0,5.800119l-2.010047,0l0,-20.340386l1.682047,0l0.277538,1.918569l0.092513,0a4.751784,5.01848 0 0 1 1.808201,-1.660983a5.500295,5.809001 0 0 1 2.354866,-0.506289a4.919988,5.196125 0 0 1 4.078965,1.900805a9.62131,10.161311 0 0 1 0,10.658718a4.903168,5.17836 0 0 1 -4.121016,1.954098zm-0.285948,-12.710521a3.57435,3.774962 0 0 0 -2.943583,1.181341a5.819884,6.146527 0 0 0 -0.933536,3.783845l0,0.497407c0,1.96298 0.311179,3.375261 0.933536,4.219076a3.532299,3.730551 0 0 0 2.994044,1.270164a3.111787,3.286438 0 0 0 2.691276,-1.465574a6.618856,6.990342 0 0 0 0.975587,-4.050313a6.374959,6.732757 0 0 0 -0.975587,-4.023666a3.2043,3.384143 0 0 0 -2.741737,-1.41228z"/>
   <path stroke="null" id="svg_129" d="m265.710242,75.576316a6.728189,7.105812 0 0 0 1.026049,-0.07994a5.929217,6.261997 0 0 0 0.790562,-0.177645l0,1.625454a3.456607,3.650611 0 0 1 -0.967177,0.27535a7.358957,7.771982 0 0 1 -1.143792,0.106587c-2.565122,0 -3.843478,-1.421162 -3.843478,-4.281252l0,-8.296035l-1.900713,0l0,-1.02146l1.900713,-0.888226l0.841024,-2.993323l1.160613,0l0,3.242027l3.851888,0l0,1.660983l-3.851888,0l0,8.242742a2.699686,2.851207 0 0 0 0.571896,1.945216a1.976406,2.087332 0 0 0 1.564304,0.639523z"/>
   <path stroke="null" id="svg_130" d="m278.729288,73.249163a3.364095,3.552906 0 0 1 -1.379279,3.01997a6.526343,6.892637 0 0 1 -3.877119,1.056989a8.410236,8.882265 0 0 1 -4.112606,-0.888226l0,-1.918569a9.646541,10.187958 0 0 0 2.052098,0.808286a8.620492,9.104321 0 0 0 2.110969,0.293115a4.768604,5.036244 0 0 0 2.422148,-0.532936a1.682047,1.776453 0 0 0 0.176615,-3.011088a10.521206,11.111713 0 0 0 -2.623994,-1.376751a14.532889,15.348553 0 0 1 -2.632404,-1.270164a3.650043,3.854903 0 0 1 -1.160613,-1.234635a3.069736,3.242027 0 0 1 -0.36164,-1.669866a2.977224,3.144322 0 0 1 1.320407,-2.664679a6.156293,6.501818 0 0 1 3.616402,-0.985931a10.588488,11.182771 0 0 1 4.205118,0.888226l-0.71487,1.776453a9.495157,10.028077 0 0 0 -3.616402,-0.888226a4.112606,4.343427 0 0 0 -2.153021,0.47076a1.379279,1.456691 0 0 0 -0.731691,1.305693a1.497022,1.581043 0 0 0 0.277538,0.959285a2.708096,2.860089 0 0 0 0.841024,0.754992a21.580667,22.791891 0 0 0 2.321225,1.030343a8.620492,9.104321 0 0 1 3.18748,1.829747a3.044506,3.21538 0 0 1 0.832613,2.247213z"/>
   <path stroke="null" id="svg_131" d="m236.333286,166.095475l-11.622947,0l0,-1.865276l4.659271,-4.947421a34.095098,36.008701 0 0 0 2.800609,-3.250909a7.619674,8.047332 0 0 0 1.017639,-1.88304a5.172295,5.462593 0 0 0 0.34482,-1.989627a2.926762,3.091028 0 0 0 -0.841024,-2.362682a3.271582,3.455201 0 0 0 -2.380097,-0.888226a5.946037,6.279761 0 0 0 -2.085739,0.381937a8.359775,8.828971 0 0 0 -2.195072,1.394516l-1.0681,-1.447809a8.157929,8.615797 0 0 1 5.32368,-2.140626a5.626448,5.942235 0 0 1 3.91076,1.341222a4.415374,4.663189 0 0 1 1.41292,3.623964a6.593625,6.963695 0 0 1 -0.941946,3.552906a21.025591,22.205662 0 0 1 -3.532299,4.396721l-3.877119,3.997019l0,0.106587l9.099876,0l-0.025231,1.980745z"/>
   <path stroke="null" id="svg_132" d="m252.405248,166.344178a5.887166,6.217585 0 0 1 -2.363276,-0.497407a4.533117,4.787541 0 0 1 -1.799791,-1.554396l-0.142974,0a16.971857,17.92441 0 0 1 0.142974,2.327153l0,5.76459l-2.010047,0l0,-20.295975l1.682047,0l0.277538,1.909687l0.092513,0a4.751784,5.01848 0 0 1 1.808201,-1.660983a5.500295,5.809001 0 0 1 2.354866,-0.506289a4.919988,5.196125 0 0 1 4.078965,1.900805a7.989725,8.438151 0 0 1 1.42974,5.329359a7.897212,8.340446 0 0 1 -1.454971,5.329359a4.903168,5.17836 0 0 1 -4.095785,1.954098zm-0.285948,-12.710521a3.57435,3.774962 0 0 0 -2.943583,1.181341a5.819884,6.146527 0 0 0 -0.933536,3.783845l0,0.479642c0,1.96298 0.311179,3.375261 0.933536,4.219076a3.532299,3.730551 0 0 0 2.994044,1.270164a3.111787,3.286438 0 0 0 2.691276,-1.465574a6.602036,6.972578 0 0 0 0.975587,-4.050313a6.374959,6.732757 0 0 0 -0.975587,-4.023666a3.2043,3.384143 0 0 0 -2.741737,-1.394516z"/>
   <path stroke="null" id="svg_133" d="m265.710242,164.594372a6.728189,7.105812 0 0 0 1.026049,-0.07994a5.929217,6.261997 0 0 0 0.790562,-0.177645l0,1.669866a3.456607,3.650611 0 0 1 -0.967177,0.27535a7.358957,7.771982 0 0 1 -1.143792,0.106587c-2.565122,0 -3.843478,-1.421162 -3.843478,-4.281252l0,-8.331564l-1.900713,0l0,-1.092519l1.900713,-0.888226l0.841024,-2.993323l1.160613,0l0,3.250909l3.851888,0l0,1.643219l-3.851888,0l0,8.242742a2.699686,2.851207 0 0 0 0.571896,1.945216a1.976406,2.087332 0 0 0 1.564304,0.710581z"/>
   <path stroke="null" id="svg_134" d="m278.729288,162.267219a3.364095,3.552906 0 0 1 -1.379279,3.01997a6.467472,6.830461 0 0 1 -3.877119,1.056989a8.410236,8.882265 0 0 1 -4.112606,-0.888226l0,-1.971863a9.646541,10.187958 0 0 0 2.052098,0.808286a8.620492,9.104321 0 0 0 2.110969,0.293115a4.869527,5.142831 0 0 0 2.422148,-0.524054a1.732509,1.829747 0 0 0 0.176615,-3.01997a10.521206,11.111713 0 0 0 -2.623994,-1.376751a13.960992,14.744559 0 0 1 -2.632404,-1.270164a3.650043,3.854903 0 0 1 -1.160613,-1.234635a3.044506,3.21538 0 0 1 -0.378461,-1.643219a2.977224,3.144322 0 0 1 1.320407,-2.709091a6.156293,6.501818 0 0 1 3.616402,-0.985931a10.588488,11.182771 0 0 1 4.205118,0.888226l-0.71487,1.749806a9.495157,10.028077 0 0 0 -3.616402,-0.888226a4.205118,4.441132 0 0 0 -2.153021,0.47076a1.379279,1.456691 0 0 0 -0.731691,1.305693a1.497022,1.581043 0 0 0 0.277538,0.959285a2.708096,2.860089 0 0 0 0.841024,0.754992a21.580667,22.791891 0 0 0 2.321225,1.030343a8.620492,9.104321 0 0 1 3.18748,1.829747a3.044506,3.21538 0 0 1 0.849434,2.344918z"/>
   <path stroke="null" id="svg_135" d="m235.702518,218.509719a4.020093,4.245722 0 0 1 -0.950357,2.931147a4.777014,5.045126 0 0 1 -2.691276,1.518867l0,0.106587a5.046142,5.329359 0 0 1 3.162249,1.430045a3.994862,4.219076 0 0 1 1.026049,3.011088a4.642451,4.90301 0 0 1 -1.757739,4.112489a7.956084,8.402622 0 0 1 -4.97886,1.438927a15.029093,15.872607 0 0 1 -2.573532,-0.222057a8.88121,9.379671 0 0 1 -2.270764,-0.790522l0,-2.016274a11.496793,12.142056 0 0 0 4.911578,1.225753c3.061326,0 4.591989,-1.270164 4.591989,-3.792727c0,-2.27386 -1.682047,-3.401907 -5.046142,-3.401907l-1.740919,0l0,-1.829747l1.76615,0a5.290039,5.586944 0 0 0 3.279992,-0.968167a2.994044,3.162086 0 0 0 1.211074,-2.664679a2.523071,2.664679 0 0 0 -0.891485,-2.149508a3.675273,3.88155 0 0 0 -2.413738,-0.781639a7.392598,7.807511 0 0 0 -2.186661,0.337526a9.890438,10.445543 0 0 0 -2.354866,1.225753l-1.009228,-1.430045a8.410236,8.882265 0 0 1 2.523071,-1.430045a9.125107,9.637257 0 0 1 2.994044,-0.515171a6.164703,6.5107 0 0 1 4.011683,1.243517a3.978042,4.201311 0 0 1 1.387689,3.41079z"/>
   <path stroke="null" id="svg_136" d="m252.405248,233.058868a5.735781,6.057704 0 0 1 -2.363276,-0.506289a4.465836,4.716483 0 0 1 -1.799791,-1.554396l-0.142974,0a16.971857,17.92441 0 0 1 0.142974,2.327153l0,5.76459l-2.010047,0l0,-20.295975l1.682047,0l0.277538,1.918569l0.092513,0a4.61722,4.876363 0 0 1 1.808201,-1.660983a5.382551,5.684649 0 0 1 2.354866,-0.515171a4.919988,5.196125 0 0 1 4.078965,1.909687a9.62131,10.161311 0 0 1 0,10.658718a4.928399,5.205007 0 0 1 -4.121016,1.954098zm-0.285948,-12.719403a3.57435,3.774962 0 0 0 -2.943583,1.190223a5.786243,6.110998 0 0 0 -0.933536,3.783845l0,0.47076c0,1.971863 0.311179,3.375261 0.933536,4.227958a3.55753,3.757198 0 0 0 2.994044,1.270164a3.094967,3.268673 0 0 0 2.691276,-1.474456a6.602036,6.972578 0 0 0 0.975587,-4.050313a6.358139,6.714992 0 0 0 -0.975587,-4.014784a3.2043,3.384143 0 0 0 -2.741737,-1.403398z"/>
   <path stroke="null" id="svg_137" d="m265.710242,231.309062a5.828294,6.155409 0 0 0 1.026049,-0.088823a6.131062,6.475171 0 0 0 0.790562,-0.168763l0,1.625454a4.154657,4.387839 0 0 1 -0.967177,0.27535a7.358957,7.771982 0 0 1 -1.143792,0.106587q-3.843478,0 -3.843478,-4.281252l0,-8.331564l-1.900713,0l0,-1.030343l1.900713,-0.888226l0.841024,-2.993323l1.160613,0l0,3.250909l3.851888,0l0,1.652101l-3.851888,0l0,8.242742a2.657635,2.806796 0 0 0 0.571896,1.936334a1.984816,2.096214 0 0 0 1.564304,0.692817z"/>
   <path stroke="null" id="svg_138" d="m278.729288,228.981909a3.313633,3.499612 0 0 1 -1.379279,3.011088a6.467472,6.830461 0 0 1 -3.877119,1.065872a8.334544,8.802324 0 0 1 -4.112606,-0.888226l0,-1.96298a10.647359,11.244947 0 0 0 2.052098,0.808286a8.620492,9.104321 0 0 0 2.110969,0.293115a4.768604,5.036244 0 0 0 2.422148,-0.532936a1.732509,1.829747 0 0 0 0.176615,-3.01997a10.571667,11.165007 0 0 0 -2.623994,-1.367869a14.423555,15.233084 0 0 1 -2.632404,-1.279046a3.633222,3.837138 0 0 1 -1.160613,-1.225753a3.078147,3.250909 0 0 1 -0.378461,-1.652101a2.951993,3.117675 0 0 1 1.320407,-2.664679a6.097421,6.439642 0 0 1 3.616402,-0.994814a10.596898,11.191653 0 0 1 4.205118,0.888226l-0.71487,1.723159a9.654951,10.19684 0 0 0 -3.616402,-0.888226a4.205118,4.441132 0 0 0 -2.153021,0.47076a1.396099,1.474456 0 0 0 -0.731691,1.305693a1.497022,1.581043 0 0 0 0.277538,0.959285a2.607173,2.753502 0 0 0 0.841024,0.754992a19.536979,20.633501 0 0 0 2.321225,1.039225a8.628903,9.113204 0 0 1 3.18748,1.820864a3.044506,3.21538 0 0 1 0.849434,2.336036z"/>
   <path stroke="null" id="svg_139" d="m417.153369,498.150056l-334.306898,0c-45.036816,0 -81.688626,-38.486853 -81.688626,-85.784912l0,-325.730408c0,-47.298059 36.65181,-85.784912 81.688626,-85.784912l334.306898,0c45.036816,0 81.688626,38.486853 81.688626,85.784912l0,325.730408c0,47.298059 -36.65181,85.784912 -81.688626,85.784912zm-334.306898,-491.970873c-42.261438,0 -76.642485,36.088641 -76.642485,80.455553l0,325.730408c0,44.366912 34.381047,80.455553 76.642485,80.455553l334.306898,0c42.261438,0 76.642485,-36.088641 76.642485,-80.455553l0,-325.730408c0,-44.366912 -34.381047,-80.455553 -76.642485,-80.455553l-334.306898,0z" class="cls-1"/>
   <path stroke="null" id="svg_140" d="m249.99992,448.906781a188.792987,199.389076 0 1 1 133.512503,-58.40089a187.590324,198.118913 0 0 1 -133.512503,58.40089zm0,-393.484323c-101.326529,0 -183.763666,87.046193 -183.763666,194.077482s82.420317,194.077482 183.763666,194.077482s183.763666,-87.046193 183.763666,-194.077482s-82.437138,-194.077482 -183.763666,-194.077482z" class="cls-1"/>
   <path stroke="null" id="svg_141" d="m249.99992,360.528248a105.127955,111.028308 0 1 1 105.127955,-111.028308a105.245699,111.15266 0 0 1 -105.127955,111.028308zm0,-216.727257a100.081814,105.698949 0 1 0 100.081814,105.698949a100.191147,105.814418 0 0 0 -100.081814,-105.698949z" class="cls-1"/>
   <path stroke="null" id="svg_142" d="m249.99992,298.352395a46.2563,48.852455 0 1 1 46.2563,-48.852455a46.306762,48.905749 0 0 1 -46.2563,48.852455zm0,-92.375552a41.210159,43.523097 0 1 0 41.210159,43.523097a41.25221,43.567508 0 0 0 -41.210159,-43.523097z" class="cls-1"/>
   <circle stroke="null" transform="matrix(0.8410236432344506,0,0,0.8882264626826585,-4373.914308376944,-4980.344384686797) " id="svg_143" r="9.5" cy="5985.962749" cx="5229.459856" class="cls-2"/>
   <circle stroke="null" transform="matrix(0.8410236432344506,0,0,0.8882264626826585,-4373.914308376944,-4980.344384686797) " id="svg_144" r="9.5" cy="6111.962749" cx="5647.459856" class="cls-2"/>
   <circle stroke="null" transform="matrix(0.8410236432344506,0,0,0.8882264626826585,-4373.914308376944,-4980.344384686797) " id="svg_145" r="9.5" cy="5816.962749" cx="5440.959856" class="cls-2"/>
   <circle stroke="null" transform="matrix(0.8410236432344506,0,0,0.8882264626826585,-4373.914308376944,-4980.344384686797) " id="svg_146" r="9.5" cy="5914.962749" cx="5500.959856" class="cls-2"/>
   <circle stroke="null" transform="matrix(0.8410236432344506,0,0,0.8882264626826585,-4373.914308376944,-4980.344384686797) " id="svg_147" r="9.5" cy="6049.962749" cx="5457.459856" class="cls-2"/>
   <circle stroke="null" transform="matrix(0.8410236432344506,0,0,0.8882264626826585,-4373.914308376944,-4980.344384686797) " id="svg_148" r="9.5" cy="6014.462749" cx="5383.969856" class="cls-2"/>
   <circle stroke="null" transform="matrix(0.8410236432344506,0,0,0.8882264626826585,-4373.914308376944,-4980.344384686797) " id="svg_149" r="9.5" cy="5892.562749" cx="5471.459856" class="cls-2"/>
   <circle stroke="null" transform="matrix(0.8410236432344506,0,0,0.8882264626826585,-4373.914308376944,-4980.344384686797) " id="svg_150" r="9.5" cy="5893.562749" cx="5525.509856" class="cls-2"/>
   <circle stroke="null" transform="matrix(0.8410236432344506,0,0,0.8882264626826585,-4373.914308376944,-4980.344384686797) " id="svg_151" r="9.5" cy="6049.962749" cx="5518.009856" class="cls-2"/>
   <circle stroke="null" transform="matrix(0.8410236432344506,0,0,0.8882264626826585,-4373.914308376944,-4980.344384686797) " id="svg_152" r="9.5" cy="6001.462749" cx="5708.959856" class="cls-2"/>
   <circle stroke="null" transform="matrix(0.8410236432344506,0,0,0.8882264626826585,-4373.914308376944,-4980.344384686797) " id="svg_153" r="9.5" cy="5634.962749" cx="5727.959856" class="cls-2"/>
   <circle stroke="null" transform="matrix(0.8410236432344506,0,0,0.8882264626826585,-4373.914308376944,-4980.344384686797) " id="svg_154" r="9.5" cy="5843.462749" cx="5769.459856" class="cls-2"/>
   <circle stroke="null" transform="matrix(0.8410236432344506,0,0,0.8882264626826585,-4373.914308376944,-4980.344384686797) " id="svg_155" r="9.5" cy="6084.962749" cx="5687.459856" class="cls-2"/>
   <circle stroke="null" transform="matrix(0.8410236432344506,0,0,0.8882264626826585,-4373.914308376944,-4980.344384686797) " id="svg_156" r="9.5" cy="6090.962749" cx="5491.459856" class="cls-2"/>
   <circle stroke="null" transform="matrix(0.8410236432344506,0,0,0.8882264626826585,-4373.914308376944,-4980.344384686797) " id="svg_157" r="9.5" cy="6116.462749" cx="5759.459856" class="cls-2"/>
  </g>
 </g>
</svg>