<svg id="Layer_2" data-name="Layer 2" xmlns="http://www.w3.org/2000/svg" viewBox="0 0 800 800"><defs><style>.cls-1{fill:#f05023;}.cls-2{fill:#8e1013;}</style></defs><title>Artboard 2</title><path d="M384.87,138.14c0,3.64-.57,6.35-1.72,8.15a5.82,5.82,0,0,1-5.26,2.69,5.74,5.74,0,0,1-5.16-2.76q-1.77-2.76-1.77-8.08,0-5.49,1.71-8.16a6.35,6.35,0,0,1,10.42.12Q384.88,132.88,384.87,138.14Zm-11.5,0q0,4.59,1.08,6.69a3.88,3.88,0,0,0,6.9,0c.72-1.42,1.07-3.64,1.07-6.66s-.35-5.23-1.07-6.64a3.89,3.89,0,0,0-6.9,0Q373.37,133.56,373.37,138.14Z"/><path d="M403.86,149a6.82,6.82,0,0,1-2.81-.57,5.31,5.31,0,0,1-2.14-1.75h-.17a20.18,20.18,0,0,1,.17,2.62v6.49h-2.39V132.92h2l.33,2.16h.11a5.49,5.49,0,0,1,2.15-1.87,6.4,6.4,0,0,1,2.8-.58,5.87,5.87,0,0,1,4.85,2.14,11.46,11.46,0,0,1,0,12.06A5.86,5.86,0,0,1,403.86,149Zm-.34-14.32A4.25,4.25,0,0,0,400,136a6.88,6.88,0,0,0-1.11,4.26v.53c0,2.22.37,3.8,1.11,4.76a4.23,4.23,0,0,0,3.56,1.43,3.68,3.68,0,0,0,3.2-1.66,7.85,7.85,0,0,0,1.16-4.56,7.54,7.54,0,0,0-1.16-4.52A3.79,3.79,0,0,0,403.52,134.66Z"/><path d="M419.68,147a8,8,0,0,0,1.22-.1,9.53,9.53,0,0,0,.94-.19v1.83a4.55,4.55,0,0,1-1.15.3,7.76,7.76,0,0,1-1.36.13q-4.57,0-4.57-4.82v-9.39H412.5v-1.15l2.26-1,1-3.37h1.38v3.66h4.58v1.85h-4.58v9.29a3.18,3.18,0,0,0,.68,2.18A2.36,2.36,0,0,0,419.68,147Z"/><path d="M435.16,144.39a4,4,0,0,1-1.64,3.39,7.69,7.69,0,0,1-4.61,1.2,9.91,9.91,0,0,1-4.89-1v-2.21a12,12,0,0,0,2.44.9A9.82,9.82,0,0,0,429,147a5.67,5.67,0,0,0,2.88-.6,2.06,2.06,0,0,0,.21-3.4,12.57,12.57,0,0,0-3.12-1.54,17.15,17.15,0,0,1-3.13-1.44,4.32,4.32,0,0,1-1.38-1.38,3.66,3.66,0,0,1-.45-1.86,3.51,3.51,0,0,1,1.57-3,7.25,7.25,0,0,1,4.3-1.12,12.6,12.6,0,0,1,5,1l-.85,1.94a11.48,11.48,0,0,0-4.3-1,5,5,0,0,0-2.56.53,1.66,1.66,0,0,0-.87,1.47,1.78,1.78,0,0,0,.33,1.08,3.1,3.1,0,0,0,1,.85,22,22,0,0,0,2.76,1.16,10.39,10.39,0,0,1,3.79,2.06A3.62,3.62,0,0,1,435.16,144.39Z"/><path d="M379.78,205.88h-2.34v-15q0-1.87.12-3.54c-.2.2-.43.41-.68.63s-1.39,1.16-3.42,2.81l-1.27-1.64,5.57-4.3h2Z"/><path d="M403.86,206.16a6.82,6.82,0,0,1-2.81-.57,5.28,5.28,0,0,1-2.14-1.74h-.17a20.18,20.18,0,0,1,.17,2.62V213h-2.39V190.1h2l.33,2.16h.11a5.65,5.65,0,0,1,2.15-1.87,6.54,6.54,0,0,1,2.8-.57,5.85,5.85,0,0,1,4.85,2.14,11.44,11.44,0,0,1,0,12A5.83,5.83,0,0,1,403.86,206.16Zm-.34-14.31a4.25,4.25,0,0,0-3.5,1.33,6.92,6.92,0,0,0-1.11,4.26V198c0,2.21.37,3.8,1.11,4.75a4.2,4.2,0,0,0,3.56,1.43,3.7,3.7,0,0,0,3.2-1.65,7.87,7.87,0,0,0,1.16-4.56,7.58,7.58,0,0,0-1.16-4.53A3.81,3.81,0,0,0,403.52,191.85Z"/><path d="M419.68,204.19a8,8,0,0,0,1.22-.09,7.05,7.05,0,0,0,.94-.2v1.83a4.11,4.11,0,0,1-1.15.31,8.75,8.75,0,0,1-1.36.12c-3.05,0-4.57-1.6-4.57-4.82V192H412.5v-1.15l2.26-1,1-3.37h1.38v3.65h4.58V192h-4.58v9.28a3.21,3.21,0,0,0,.68,2.19A2.35,2.35,0,0,0,419.68,204.19Z"/><path d="M435.16,201.57a4,4,0,0,1-1.64,3.4,7.76,7.76,0,0,1-4.61,1.19,10,10,0,0,1-4.89-1V203a11.47,11.47,0,0,0,2.44.91,10.25,10.25,0,0,0,2.51.33,5.67,5.67,0,0,0,2.88-.6,2,2,0,0,0,.21-3.39,12.51,12.51,0,0,0-3.12-1.55,17.28,17.28,0,0,1-3.13-1.43,4.34,4.34,0,0,1-1.38-1.39A3.65,3.65,0,0,1,424,194a3.54,3.54,0,0,1,1.57-3,7.32,7.32,0,0,1,4.3-1.11,12.59,12.59,0,0,1,5,1l-.85,2a11.29,11.29,0,0,0-4.3-1,4.89,4.89,0,0,0-2.56.53,1.64,1.64,0,0,0-.87,1.47,1.78,1.78,0,0,0,.33,1.08,3.22,3.22,0,0,0,1,.85,25.66,25.66,0,0,0,2.76,1.16,10.25,10.25,0,0,1,3.79,2.06A3.62,3.62,0,0,1,435.16,201.57Z"/><path d="M384.75,306.1H370.93V304l5.54-5.57a40.54,40.54,0,0,0,3.33-3.66,9.06,9.06,0,0,0,1.21-2.12,6.15,6.15,0,0,0,.41-2.24,3.48,3.48,0,0,0-1-2.66,3.89,3.89,0,0,0-2.83-1,7.07,7.07,0,0,0-2.48.43,9.94,9.94,0,0,0-2.61,1.57l-1.27-1.63a9.7,9.7,0,0,1,6.33-2.41,6.69,6.69,0,0,1,4.65,1.51,5.25,5.25,0,0,1,1.68,4.08,7.84,7.84,0,0,1-1.12,4,25,25,0,0,1-4.2,4.95l-4.61,4.5v.12h10.82Z"/><path d="M403.86,306.38a7,7,0,0,1-2.81-.56,5.39,5.39,0,0,1-2.14-1.75h-.17a20.18,20.18,0,0,1,.17,2.62v6.49h-2.39V290.33h2l.33,2.15h.11a5.65,5.65,0,0,1,2.15-1.87,6.54,6.54,0,0,1,2.8-.57,5.85,5.85,0,0,1,4.85,2.14,9.5,9.5,0,0,1,1.7,6,9.39,9.39,0,0,1-1.73,6A5.83,5.83,0,0,1,403.86,306.38Zm-.34-14.31a4.25,4.25,0,0,0-3.5,1.33,6.92,6.92,0,0,0-1.11,4.26v.54c0,2.21.37,3.8,1.11,4.75a4.2,4.2,0,0,0,3.56,1.43,3.7,3.7,0,0,0,3.2-1.65,7.85,7.85,0,0,0,1.16-4.56,7.58,7.58,0,0,0-1.16-4.53A3.81,3.81,0,0,0,403.52,292.07Z"/><path d="M419.68,304.41a8,8,0,0,0,1.22-.09,7.05,7.05,0,0,0,.94-.2V306a4.11,4.11,0,0,1-1.15.31,8.75,8.75,0,0,1-1.36.12c-3.05,0-4.57-1.6-4.57-4.82v-9.38H412.5V291l2.26-1,1-3.37h1.38v3.66h4.58v1.85h-4.58v9.28a3.21,3.21,0,0,0,.68,2.19A2.35,2.35,0,0,0,419.68,304.41Z"/><path d="M435.16,301.79a4,4,0,0,1-1.64,3.4,7.69,7.69,0,0,1-4.61,1.19,10,10,0,0,1-4.89-1v-2.22a11.47,11.47,0,0,0,2.44.91,10.25,10.25,0,0,0,2.51.33,5.79,5.79,0,0,0,2.88-.59,2.06,2.06,0,0,0,.21-3.4,12.51,12.51,0,0,0-3.12-1.55,16.6,16.6,0,0,1-3.13-1.43,4.34,4.34,0,0,1-1.38-1.39,3.62,3.62,0,0,1-.45-1.85,3.54,3.54,0,0,1,1.57-3.05,7.32,7.32,0,0,1,4.3-1.11,12.59,12.59,0,0,1,5,1L434,293a11.29,11.29,0,0,0-4.3-1,5,5,0,0,0-2.56.53,1.64,1.64,0,0,0-.87,1.47,1.78,1.78,0,0,0,.33,1.08,3.22,3.22,0,0,0,1,.85,25.66,25.66,0,0,0,2.76,1.16,10.25,10.25,0,0,1,3.79,2.06A3.62,3.62,0,0,1,435.16,301.79Z"/><path d="M384,365.11a4.78,4.78,0,0,1-1.13,3.3,5.68,5.68,0,0,1-3.2,1.71v.12a6,6,0,0,1,3.76,1.61,4.75,4.75,0,0,1,1.22,3.39,5.52,5.52,0,0,1-2.09,4.63,9.46,9.46,0,0,1-5.92,1.62,17.87,17.87,0,0,1-3.06-.25,10.56,10.56,0,0,1-2.7-.89v-2.27a13.67,13.67,0,0,0,5.84,1.38c3.64,0,5.46-1.43,5.46-4.27,0-2.56-2-3.83-6-3.83h-2.07V369.3h2.1a6.29,6.29,0,0,0,3.9-1.09,3.56,3.56,0,0,0,1.44-3,3,3,0,0,0-1.06-2.42,4.37,4.37,0,0,0-2.87-.88,8.79,8.79,0,0,0-2.6.38,11.76,11.76,0,0,0-2.8,1.38l-1.2-1.61a10,10,0,0,1,3-1.61,10.85,10.85,0,0,1,3.56-.58,7.33,7.33,0,0,1,4.77,1.4A4.73,4.73,0,0,1,384,365.11Z"/><path d="M403.86,381.49a6.82,6.82,0,0,1-2.81-.57,5.31,5.31,0,0,1-2.14-1.75h-.17a20.18,20.18,0,0,1,.17,2.62v6.49h-2.39V365.43h2l.33,2.16h.11a5.49,5.49,0,0,1,2.15-1.87,6.4,6.4,0,0,1,2.8-.58,5.85,5.85,0,0,1,4.85,2.15,11.44,11.44,0,0,1,0,12A5.86,5.86,0,0,1,403.86,381.49Zm-.34-14.32a4.25,4.25,0,0,0-3.5,1.34,6.88,6.88,0,0,0-1.11,4.26v.53c0,2.22.37,3.8,1.11,4.76a4.23,4.23,0,0,0,3.56,1.43,3.68,3.68,0,0,0,3.2-1.66,7.85,7.85,0,0,0,1.16-4.56,7.56,7.56,0,0,0-1.16-4.52A3.81,3.81,0,0,0,403.52,367.17Z"/><path d="M419.68,379.52a6.93,6.93,0,0,0,1.22-.1,7.29,7.29,0,0,0,.94-.19v1.83a4.94,4.94,0,0,1-1.15.31,8.75,8.75,0,0,1-1.36.12q-4.57,0-4.57-4.82v-9.38H412.5v-1.16l2.26-1,1-3.37h1.38v3.66h4.58v1.86h-4.58v9.28a3.16,3.16,0,0,0,.68,2.18A2.36,2.36,0,0,0,419.68,379.52Z"/><path d="M435.16,376.9a3.94,3.94,0,0,1-1.64,3.39,7.69,7.69,0,0,1-4.61,1.2,9.91,9.91,0,0,1-4.89-1v-2.21a12.66,12.66,0,0,0,2.44.91,10.25,10.25,0,0,0,2.51.33,5.67,5.67,0,0,0,2.88-.6,2.06,2.06,0,0,0,.21-3.4,12.57,12.57,0,0,0-3.12-1.54,17.15,17.15,0,0,1-3.13-1.44,4.32,4.32,0,0,1-1.38-1.38,3.66,3.66,0,0,1-.45-1.86,3.51,3.51,0,0,1,1.57-3,7.25,7.25,0,0,1,4.3-1.12,12.6,12.6,0,0,1,5,1l-.85,1.94a11.48,11.48,0,0,0-4.3-1,5,5,0,0,0-2.56.53,1.66,1.66,0,0,0-.87,1.47,1.78,1.78,0,0,0,.33,1.08,3.1,3.1,0,0,0,1,.85,23.23,23.23,0,0,0,2.76,1.17,10.26,10.26,0,0,1,3.79,2.05A3.62,3.62,0,0,1,435.16,376.9Z"/><path class="cls-1" d="M600.75,679.94H203.25c-53.56,0-97.13-43.33-97.13-96.58V216.64c0-53.25,43.57-96.58,97.13-96.58h397.5c53.55,0,97.13,43.33,97.13,96.58V583.36C697.88,636.61,654.3,679.94,600.75,679.94ZM203.25,126.06c-50.25,0-91.13,40.63-91.13,90.58V583.36c0,49.95,40.88,90.58,91.13,90.58h397.5c50.25,0,91.13-40.63,91.13-90.58V216.64c0-49.95-40.88-90.58-91.13-90.58Z"/><path class="cls-1" d="M400,624.5a224.48,224.48,0,1,1,158.75-65.75A223.05,223.05,0,0,1,400,624.5Zm0-443c-120.48,0-218.5,98-218.5,218.5s98,218.5,218.5,218.5,218.5-98,218.5-218.5S520.48,181.5,400,181.5Z"/><path class="cls-1" d="M400,525A125,125,0,1,1,525,400,125.14,125.14,0,0,1,400,525Zm0-244A119,119,0,1,0,519,400,119.13,119.13,0,0,0,400,281Z"/><path class="cls-1" d="M400,455a55,55,0,1,1,55-55A55.06,55.06,0,0,1,400,455Zm0-104a49,49,0,1,0,49,49A49.05,49.05,0,0,0,400,351Z"/><circle class="cls-2" cx="129.5" cy="494.5" r="9.5"/><circle class="cls-2" cx="132.5" cy="363.69" r="9.5"/><circle class="cls-2" cx="153.5" cy="285" r="9.5"/><circle class="cls-2" cx="182.5" cy="154" r="9.5"/><circle class="cls-2" cx="343.5" cy="326" r="9.5"/><circle class="cls-2" cx="255.5" cy="480" r="9.5"/><circle class="cls-2" cx="360.71" cy="563" r="9.5"/><circle class="cls-2" cx="286.5" cy="655" r="9.5"/><circle class="cls-2" cx="190" cy="579" r="9.5"/><circle class="cls-2" cx="369.21" cy="393" r="9.5"/><circle class="cls-2" cx="411.5" cy="420" r="9.5"/><circle class="cls-2" cx="589" cy="596" r="9.5"/><circle class="cls-2" cx="612" cy="512.5" r="9.5"/><circle class="cls-2" cx="665" cy="629" r="9.5"/><circle class="cls-2" cx="420" cy="563" r="9.5"/></svg>