<svg width="500" height="500" xmlns="http://www.w3.org/2000/svg">
 <!-- Created with Method Draw - http://github.com/duopixel/Method-Draw/ -->

 <g>
  <title>background</title>
  <rect fill="#fff" id="canvas_background" height="502" width="502" y="-1" x="-1"/>
  <g display="none" overflow="visible" y="0" x="0" height="100%" width="100%" id="canvasGrid">
   <rect fill="url(#gridpattern)" stroke-width="0" y="0" x="0" height="100%" width="100%"/>
  </g>
 </g>
 <g>
  <title>Layer 1</title>
  <defs>
   <style>.cls-1{fill:#f05023;}.cls-2{fill:#8e1013;}</style>
  </defs>
  <defs>
   <style>.cls-1{fill:#f05023;}.cls-2{fill:#8e1013;}</style>
  </defs>
  <defs>
   <style>.cls-1{fill:#f05023;}.cls-2{fill:#8e1013;}</style>
  </defs>
  <defs>
   <style>.cls-1{fill:#f05023;}.cls-2{fill:#8e1013;}</style>
  </defs>
  <defs>
   <style>.cls-1{fill:#8e1013;}.cls-2{fill:#f05023;}</style>
  </defs>
  <g stroke="null" id="svg_314">
   <g stroke="null" transform="matrix(0.8369394371811172,0,0,0.8848866156710584,-4270.133005481247,-4979.407488698457) " id="svg_312">
    <title stroke="null" transform="translate(-412.38134765625,89.2322998046875) translate(5412.56005859375,0) translate(0,5420.5302734375) ">background</title>
    <rect stroke="null" x="4999.178711" y="5508.762573" width="582" height="402" id="svg_310" fill="none"/>
   </g>
   <g stroke="null" transform="matrix(0.8369394371811172,0,0,0.8848866156710584,-4270.133005481247,-4979.407488698457) " id="svg_313">
    <title stroke="null" transform="translate(-412.38134765625,89.2322998046875) translate(5412.56005859375,0) translate(0,5420.5302734375) ">Layer 1</title>
    <circle stroke="null" class="cls-1" cx="5131.678711" cy="6009.762573" r="9.5" id="svg_309"/>
    <path stroke="null" d="m5384.048711,5647.902573c0,3.64 -0.57,6.35 -1.72,8.15a5.82,5.82 0 0 1 -5.26,2.69a5.74,5.74 0 0 1 -5.16,-2.76q-1.77,-2.76 -1.77,-8.08q0,-5.49 1.71,-8.16a6.35,6.35 0 0 1 10.42,0.12q1.79,2.78 1.78,8.04zm-11.5,0q0,4.59 1.08,6.69a3.88,3.88 0 0 0 6.9,0c0.72,-1.42 1.07,-3.64 1.07,-6.66s-0.35,-5.23 -1.07,-6.64a3.89,3.89 0 0 0 -6.9,0q-1.08,2.03 -1.08,6.61z" id="svg_308"/>
    <path stroke="null" d="m5403.038711,5658.762573a6.82,6.82 0 0 1 -2.81,-0.57a5.31,5.31 0 0 1 -2.14,-1.75l-0.17,0a20.18,20.18 0 0 1 0.17,2.62l0,6.49l-2.39,0l0,-22.87l2,0l0.33,2.16l0.11,0a5.49,5.49 0 0 1 2.15,-1.87a6.4,6.4 0 0 1 2.8,-0.58a5.87,5.87 0 0 1 4.85,2.14a11.46,11.46 0 0 1 0,12.06a5.86,5.86 0 0 1 -4.9,2.17zm-0.34,-14.32a4.25,4.25 0 0 0 -3.52,1.32a6.88,6.88 0 0 0 -1.11,4.26l0,0.53c0,2.22 0.37,3.8 1.11,4.76a4.23,4.23 0 0 0 3.56,1.43a3.68,3.68 0 0 0 3.2,-1.66a7.85,7.85 0 0 0 1.16,-4.56a7.54,7.54 0 0 0 -1.16,-4.52a3.79,3.79 0 0 0 -3.24,-1.58l0,0.02z" id="svg_307"/>
    <path stroke="null" d="m5418.858711,5656.762573a8,8 0 0 0 1.22,-0.1a9.53,9.53 0 0 0 0.94,-0.19l0,1.83a4.55,4.55 0 0 1 -1.15,0.3a7.76,7.76 0 0 1 -1.36,0.13q-4.57,0 -4.57,-4.82l0,-9.39l-2.26,0l0,-1.15l2.26,-1l1,-3.37l1.38,0l0,3.66l4.58,0l0,1.85l-4.58,0l0,9.29a3.18,3.18 0 0 0 0.68,2.18a2.36,2.36 0 0 0 1.86,0.78z" id="svg_306"/>
    <path stroke="null" d="m5434.338711,5654.152573a4,4 0 0 1 -1.64,3.39a7.69,7.69 0 0 1 -4.61,1.2a9.91,9.91 0 0 1 -4.89,-1l0,-2.21a12,12 0 0 0 2.44,0.9a9.82,9.82 0 0 0 2.54,0.33a5.67,5.67 0 0 0 2.88,-0.6a2.06,2.06 0 0 0 0.21,-3.4a12.57,12.57 0 0 0 -3.12,-1.54a17.15,17.15 0 0 1 -3.13,-1.44a4.32,4.32 0 0 1 -1.38,-1.38a3.66,3.66 0 0 1 -0.45,-1.86a3.51,3.51 0 0 1 1.57,-3a7.25,7.25 0 0 1 4.3,-1.12a12.6,12.6 0 0 1 5,1l-0.85,1.94a11.48,11.48 0 0 0 -4.3,-1a5,5 0 0 0 -2.56,0.53a1.66,1.66 0 0 0 -0.87,1.47a1.78,1.78 0 0 0 0.33,1.08a3.1,3.1 0 0 0 1,0.85a22,22 0 0 0 2.76,1.16a10.39,10.39 0 0 1 3.79,2.06a3.62,3.62 0 0 1 0.98,2.64z" id="svg_305"/>
    <path stroke="null" d="m5378.958711,5715.642573l-2.34,0l0,-15q0,-1.87 0.12,-3.54c-0.2,0.2 -0.43,0.41 -0.68,0.63s-1.39,1.16 -3.42,2.81l-1.27,-1.64l5.57,-4.3l2,0l0.02,21.04z" id="svg_304"/>
    <path stroke="null" d="m5403.038711,5715.922573a6.82,6.82 0 0 1 -2.81,-0.57a5.28,5.28 0 0 1 -2.14,-1.74l-0.17,0a20.18,20.18 0 0 1 0.17,2.62l0,6.53l-2.39,0l0,-22.9l2,0l0.33,2.16l0.11,0a5.65,5.65 0 0 1 2.15,-1.87a6.54,6.54 0 0 1 2.8,-0.57a5.85,5.85 0 0 1 4.85,2.14a11.44,11.44 0 0 1 0,12a5.83,5.83 0 0 1 -4.9,2.2zm-0.34,-14.31a4.25,4.25 0 0 0 -3.5,1.33a6.92,6.92 0 0 0 -1.11,4.26l0,0.56c0,2.21 0.37,3.8 1.11,4.75a4.2,4.2 0 0 0 3.56,1.43a3.7,3.7 0 0 0 3.2,-1.65a7.87,7.87 0 0 0 1.16,-4.56a7.58,7.58 0 0 0 -1.16,-4.53a3.81,3.81 0 0 0 -3.26,-1.59z" id="svg_303"/>
    <path stroke="null" d="m5418.858711,5713.952573a8,8 0 0 0 1.22,-0.09a7.05,7.05 0 0 0 0.94,-0.2l0,1.83a4.11,4.11 0 0 1 -1.15,0.31a8.75,8.75 0 0 1 -1.36,0.12c-3.05,0 -4.57,-1.6 -4.57,-4.82l0,-9.34l-2.26,0l0,-1.15l2.26,-1l1,-3.37l1.38,0l0,3.65l4.58,0l0,1.87l-4.58,0l0,9.28a3.21,3.21 0 0 0 0.68,2.19a2.35,2.35 0 0 0 1.86,0.72z" id="svg_302"/>
    <path stroke="null" d="m5434.338711,5711.332573a4,4 0 0 1 -1.64,3.4a7.76,7.76 0 0 1 -4.61,1.19a10,10 0 0 1 -4.89,-1l0,-2.16a11.47,11.47 0 0 0 2.44,0.91a10.25,10.25 0 0 0 2.51,0.33a5.67,5.67 0 0 0 2.88,-0.6a2,2 0 0 0 0.21,-3.39a12.51,12.51 0 0 0 -3.12,-1.55a17.28,17.28 0 0 1 -3.13,-1.43a4.34,4.34 0 0 1 -1.38,-1.39a3.65,3.65 0 0 1 -0.43,-1.88a3.54,3.54 0 0 1 1.57,-3a7.32,7.32 0 0 1 4.3,-1.11a12.59,12.59 0 0 1 5,1l-0.85,2a11.29,11.29 0 0 0 -4.3,-1a4.89,4.89 0 0 0 -2.56,0.53a1.64,1.64 0 0 0 -0.87,1.47a1.78,1.78 0 0 0 0.33,1.08a3.22,3.22 0 0 0 1,0.85a25.66,25.66 0 0 0 2.76,1.16a10.25,10.25 0 0 1 3.79,2.06a3.62,3.62 0 0 1 0.99,2.53z" id="svg_301"/>
    <path stroke="null" d="m5383.928711,5815.862573l-13.82,0l0,-2.1l5.54,-5.57a40.54,40.54 0 0 0 3.33,-3.66a9.06,9.06 0 0 0 1.21,-2.12a6.15,6.15 0 0 0 0.41,-2.24a3.48,3.48 0 0 0 -1,-2.66a3.89,3.89 0 0 0 -2.83,-1a7.07,7.07 0 0 0 -2.48,0.43a9.94,9.94 0 0 0 -2.61,1.57l-1.27,-1.63a9.7,9.7 0 0 1 6.33,-2.41a6.69,6.69 0 0 1 4.65,1.51a5.25,5.25 0 0 1 1.68,4.08a7.84,7.84 0 0 1 -1.12,4a25,25 0 0 1 -4.2,4.95l-4.61,4.5l0,0.12l10.82,0l-0.03,2.23z" id="svg_300"/>
    <path stroke="null" d="m5403.038711,5816.142573a7,7 0 0 1 -2.81,-0.56a5.39,5.39 0 0 1 -2.14,-1.75l-0.17,0a20.18,20.18 0 0 1 0.17,2.62l0,6.49l-2.39,0l0,-22.85l2,0l0.33,2.15l0.11,0a5.65,5.65 0 0 1 2.15,-1.87a6.54,6.54 0 0 1 2.8,-0.57a5.85,5.85 0 0 1 4.85,2.14a9.5,9.5 0 0 1 1.7,6a9.39,9.39 0 0 1 -1.73,6a5.83,5.83 0 0 1 -4.87,2.2zm-0.34,-14.31a4.25,4.25 0 0 0 -3.5,1.33a6.92,6.92 0 0 0 -1.11,4.26l0,0.54c0,2.21 0.37,3.8 1.11,4.75a4.2,4.2 0 0 0 3.56,1.43a3.7,3.7 0 0 0 3.2,-1.65a7.85,7.85 0 0 0 1.16,-4.56a7.58,7.58 0 0 0 -1.16,-4.53a3.81,3.81 0 0 0 -3.26,-1.57z" id="svg_299"/>
    <path stroke="null" d="m5418.858711,5814.172573a8,8 0 0 0 1.22,-0.09a7.05,7.05 0 0 0 0.94,-0.2l0,1.88a4.11,4.11 0 0 1 -1.15,0.31a8.75,8.75 0 0 1 -1.36,0.12c-3.05,0 -4.57,-1.6 -4.57,-4.82l0,-9.38l-2.26,0l0,-1.23l2.26,-1l1,-3.37l1.38,0l0,3.66l4.58,0l0,1.85l-4.58,0l0,9.28a3.21,3.21 0 0 0 0.68,2.19a2.35,2.35 0 0 0 1.86,0.8z" id="svg_298"/>
    <path stroke="null" d="m5434.338711,5811.552573a4,4 0 0 1 -1.64,3.4a7.69,7.69 0 0 1 -4.61,1.19a10,10 0 0 1 -4.89,-1l0,-2.22a11.47,11.47 0 0 0 2.44,0.91a10.25,10.25 0 0 0 2.51,0.33a5.79,5.79 0 0 0 2.88,-0.59a2.06,2.06 0 0 0 0.21,-3.4a12.51,12.51 0 0 0 -3.12,-1.55a16.6,16.6 0 0 1 -3.13,-1.43a4.34,4.34 0 0 1 -1.38,-1.39a3.62,3.62 0 0 1 -0.45,-1.85a3.54,3.54 0 0 1 1.57,-3.05a7.32,7.32 0 0 1 4.3,-1.11a12.59,12.59 0 0 1 5,1l-0.85,1.97a11.29,11.29 0 0 0 -4.3,-1a5,5 0 0 0 -2.56,0.53a1.64,1.64 0 0 0 -0.87,1.47a1.78,1.78 0 0 0 0.33,1.08a3.22,3.22 0 0 0 1,0.85a25.66,25.66 0 0 0 2.76,1.16a10.25,10.25 0 0 1 3.79,2.06a3.62,3.62 0 0 1 1.01,2.64z" id="svg_297"/>
    <path stroke="null" d="m5383.178711,5874.872573a4.78,4.78 0 0 1 -1.13,3.3a5.68,5.68 0 0 1 -3.2,1.71l0,0.12a6,6 0 0 1 3.76,1.61a4.75,4.75 0 0 1 1.22,3.39a5.52,5.52 0 0 1 -2.09,4.63a9.46,9.46 0 0 1 -5.92,1.62a17.87,17.87 0 0 1 -3.06,-0.25a10.56,10.56 0 0 1 -2.7,-0.89l0,-2.27a13.67,13.67 0 0 0 5.84,1.38c3.64,0 5.46,-1.43 5.46,-4.27c0,-2.56 -2,-3.83 -6,-3.83l-2.07,0l0,-2.06l2.1,0a6.29,6.29 0 0 0 3.9,-1.09a3.56,3.56 0 0 0 1.44,-3a3,3 0 0 0 -1.06,-2.42a4.37,4.37 0 0 0 -2.87,-0.88a8.79,8.79 0 0 0 -2.6,0.38a11.76,11.76 0 0 0 -2.8,1.38l-1.2,-1.61a10,10 0 0 1 3,-1.61a10.85,10.85 0 0 1 3.56,-0.58a7.33,7.33 0 0 1 4.77,1.4a4.73,4.73 0 0 1 1.65,3.84z" id="svg_296"/>
    <path stroke="null" d="m5403.038711,5891.252573a6.82,6.82 0 0 1 -2.81,-0.57a5.31,5.31 0 0 1 -2.14,-1.75l-0.17,0a20.18,20.18 0 0 1 0.17,2.62l0,6.49l-2.39,0l0,-22.85l2,0l0.33,2.16l0.11,0a5.49,5.49 0 0 1 2.15,-1.87a6.4,6.4 0 0 1 2.8,-0.58a5.85,5.85 0 0 1 4.85,2.15a11.44,11.44 0 0 1 0,12a5.86,5.86 0 0 1 -4.9,2.2zm-0.34,-14.32a4.25,4.25 0 0 0 -3.5,1.34a6.88,6.88 0 0 0 -1.11,4.26l0,0.53c0,2.22 0.37,3.8 1.11,4.76a4.23,4.23 0 0 0 3.56,1.43a3.68,3.68 0 0 0 3.2,-1.66a7.85,7.85 0 0 0 1.16,-4.56a7.56,7.56 0 0 0 -1.16,-4.52a3.81,3.81 0 0 0 -3.26,-1.58z" id="svg_295"/>
    <path stroke="null" d="m5418.858711,5889.282573a6.93,6.93 0 0 0 1.22,-0.1a7.29,7.29 0 0 0 0.94,-0.19l0,1.83a4.94,4.94 0 0 1 -1.15,0.31a8.75,8.75 0 0 1 -1.36,0.12q-4.57,0 -4.57,-4.82l0,-9.38l-2.26,0l0,-1.16l2.26,-1l1,-3.37l1.38,0l0,3.66l4.58,0l0,1.86l-4.58,0l0,9.28a3.16,3.16 0 0 0 0.68,2.18a2.36,2.36 0 0 0 1.86,0.78z" id="svg_294"/>
    <path stroke="null" d="m5434.338711,5886.662573a3.94,3.94 0 0 1 -1.64,3.39a7.69,7.69 0 0 1 -4.61,1.2a9.91,9.91 0 0 1 -4.89,-1l0,-2.21a12.66,12.66 0 0 0 2.44,0.91a10.25,10.25 0 0 0 2.51,0.33a5.67,5.67 0 0 0 2.88,-0.6a2.06,2.06 0 0 0 0.21,-3.4a12.57,12.57 0 0 0 -3.12,-1.54a17.15,17.15 0 0 1 -3.13,-1.44a4.32,4.32 0 0 1 -1.38,-1.38a3.66,3.66 0 0 1 -0.45,-1.86a3.51,3.51 0 0 1 1.57,-3a7.25,7.25 0 0 1 4.3,-1.12a12.6,12.6 0 0 1 5,1l-0.85,1.94a11.48,11.48 0 0 0 -4.3,-1a5,5 0 0 0 -2.56,0.53a1.66,1.66 0 0 0 -0.87,1.47a1.78,1.78 0 0 0 0.33,1.08a3.1,3.1 0 0 0 1,0.85a23.23,23.23 0 0 0 2.76,1.17a10.26,10.26 0 0 1 3.79,2.05a3.62,3.62 0 0 1 1.01,2.63z" id="svg_293"/>
    <path stroke="null" class="cls-2" d="m5598.928711,6189.702573l-397.5,0c-53.56,0 -97.13,-43.33 -97.13,-96.58l0,-366.72c0,-53.25 43.57,-96.58 97.13,-96.58l397.5,0c53.55,0 97.13,43.33 97.13,96.58l0,366.72c0,53.25 -43.58,96.58 -97.13,96.58zm-397.5,-553.88c-50.25,0 -91.13,40.63 -91.13,90.58l0,366.72c0,49.95 40.88,90.58 91.13,90.58l397.5,0c50.25,0 91.13,-40.63 91.13,-90.58l0,-366.72c0,-49.95 -40.88,-90.58 -91.13,-90.58l-397.5,0z" id="svg_292"/>
    <path stroke="null" class="cls-2" d="m5400.178711,6134.262573a224.48,224.48 0 1 1 158.75,-65.75a223.05,223.05 0 0 1 -158.75,65.75zm0,-443c-120.48,0 -218.5,98 -218.5,218.5s98,218.5 218.5,218.5s218.5,-98 218.5,-218.5s-98.02,-218.5 -218.5,-218.5z" id="svg_291"/>
    <path stroke="null" class="cls-2" d="m5400.178711,6034.762573a125,125 0 1 1 125,-125a125.14,125.14 0 0 1 -125,125zm0,-244a119,119 0 1 0 119,119a119.13,119.13 0 0 0 -119,-119z" id="svg_290"/>
    <path stroke="null" class="cls-2" d="m5400.178711,5964.762573a55,55 0 1 1 55,-55a55.06,55.06 0 0 1 -55,55zm0,-104a49,49 0 1 0 49,49a49.05,49.05 0 0 0 -49,-49z" id="svg_289"/>
    <circle stroke="null" class="cls-1" cx="5178.678711" cy="5664.762573" r="9.5" id="svg_288"/>
    <circle stroke="null" class="cls-1" cx="5424.178711" cy="5916.482573" r="9.5" id="svg_287"/>
    <circle stroke="null" class="cls-1" cx="5342.178711" cy="5838.762573" r="9.5" id="svg_286"/>
    <circle stroke="null" class="cls-1" cx="5468.438711" cy="5844.262573" r="9.5" id="svg_285"/>
    <circle stroke="null" class="cls-1" cx="5629.178711" cy="5654.262573" r="9.5" id="svg_284"/>
    <circle stroke="null" class="cls-1" cx="5668.178711" cy="5867.262573" r="9.5" id="svg_283"/>
    <circle stroke="null" class="cls-1" cx="5342.178711" cy="5990.762573" r="9.5" id="svg_282"/>
    <circle stroke="null" class="cls-1" cx="5351.678711" cy="6074.762573" r="9.5" id="svg_281"/>
    <circle stroke="null" class="cls-1" cx="5420.008711" cy="6074.762573" r="9.5" id="svg_280"/>
    <circle stroke="null" class="cls-1" cx="5608.178711" cy="6025.762573" r="9.5" id="svg_279"/>
    <circle stroke="null" class="cls-1" cx="5252.178711" cy="5818.762573" r="9.5" id="svg_278"/>
    <circle stroke="null" class="cls-1" cx="5542.178711" cy="5967.762573" r="9.5" id="svg_277"/>
    <circle stroke="null" class="cls-1" cx="5482.178711" cy="5915.762573" r="9.5" id="svg_276"/>
    <circle stroke="null" class="cls-1" cx="5324.178711" cy="5915.762573" r="9.5" id="svg_275"/>
   </g>
  </g>
 </g>
</svg>