<svg width="500" height="500" xmlns="http://www.w3.org/2000/svg">
 <!-- Created with Method Draw - http://github.com/duopixel/Method-Draw/ -->

 <g>
  <title>background</title>
  <rect fill="#fff" id="canvas_background" height="502" width="502" y="-1" x="-1"/>
  <g display="none" overflow="visible" y="0" x="0" height="100%" width="100%" id="canvasGrid">
   <rect fill="url(#gridpattern)" stroke-width="0" y="0" x="0" height="100%" width="100%"/>
  </g>
 </g>
 <g>
  <title>Layer 1</title>
  <defs>
   <style>.cls-1{fill:#f05023;}.cls-2{fill:#8e1013;}</style>
  </defs>
  <defs>
   <style>.cls-1{fill:#f05023;}.cls-2{fill:#8e1013;}</style>
  </defs>
  <g stroke="null" id="svg_118">
   <path stroke="null" id="svg_83" d="m236.064342,16.908945c0,3.233144 -0.480346,5.640238 -1.449466,7.239046a4.90459,5.169478 0 0 1 -4.43267,2.389329a4.837173,5.09842 0 0 1 -4.348399,-2.451505q-1.491602,-2.451505 -1.491602,-7.17687q0,-4.876363 1.441039,-7.247928a5.351227,5.640238 0 0 1 8.781069,0.106587q1.508456,2.46927 1.500029,7.141341zm-9.691199,0q0,4.076959 0.91013,5.942235a3.269726,3.446319 0 0 0 5.81472,0c0.606753,-1.261282 0.901703,-3.233144 0.901703,-5.915588s-0.29495,-4.645424 -0.901703,-5.897824a3.278154,3.455201 0 0 0 -5.81472,0q-0.91013,1.8031 -0.91013,5.871177z"/>
   <path stroke="null" id="svg_84" d="m252.067461,26.555084a5.747303,6.057705 0 0 1 -2.368023,-0.506289a4.474806,4.716483 0 0 1 -1.803406,-1.554396l-0.143261,0a17.005948,17.92441 0 0 1 0.143261,2.327153l0,5.76459l-2.014084,0l0,-20.313739l1.685426,0l0.278095,1.918569l0.092698,0a4.626494,4.876363 0 0 1 1.811833,-1.660983a5.393363,5.684649 0 0 1 2.359596,-0.515171a4.946725,5.213889 0 0 1 4.087158,1.900805a9.657491,10.179075 0 0 1 0,10.712011a4.938298,5.205007 0 0 1 -4.129294,1.927451zm-0.286522,-12.719403a3.58153,3.774962 0 0 0 -2.96635,1.172459a5.797865,6.110998 0 0 0 -0.935411,3.783845l0,0.47076c0,1.971863 0.311804,3.375261 0.935411,4.227958a3.564676,3.757198 0 0 0 3.000058,1.270164a3.101184,3.268673 0 0 0 2.696682,-1.474456a6.615297,6.972578 0 0 0 0.977547,-4.050313a6.354056,6.697228 0 0 0 -0.977547,-4.014784a3.193882,3.366378 0 0 0 -2.73039,-1.403398l0,0.017765z"/>
   <path stroke="null" id="svg_85" d="m265.399181,24.778631a6.741704,7.105812 0 0 0 1.02811,-0.088823a8.031055,8.464798 0 0 0 0.79215,-0.168763l0,1.625454a3.834344,4.04143 0 0 1 -0.96912,0.266468a6.539453,6.892637 0 0 1 -1.14609,0.115469q-3.851198,0 -3.851198,-4.281252l0,-8.340447l-1.904531,0l0,-1.02146l1.904531,-0.888226l0.842713,-2.993323l1.162944,0l0,3.250909l3.859625,0l0,1.643219l-3.859625,0l0,8.251624a2.679827,2.82456 0 0 0 0.573045,1.936334a1.988803,2.096214 0 0 0 1.567446,0.692817z"/>
   <path stroke="null" id="svg_86" d="m278.444378,22.46036a3.370852,3.552906 0 0 1 -1.382049,3.011088a6.480463,6.830462 0 0 1 -3.884907,1.065872a8.351286,8.802324 0 0 1 -4.120866,-0.888226l0,-1.96298a10.112556,10.658718 0 0 0 2.05622,0.799404a8.275441,8.722384 0 0 0 2.140491,0.293115a4.778183,5.036244 0 0 0 2.427013,-0.532936a1.735989,1.829747 0 0 0 0.17697,-3.01997a10.592902,11.165007 0 0 0 -2.629265,-1.367869a14.452528,15.233084 0 0 1 -2.637692,-1.279046a3.64052,3.837138 0 0 1 -1.162944,-1.225753a3.08433,3.250909 0 0 1 -0.379221,-1.652101a2.957923,3.117675 0 0 1 1.323059,-2.664679a6.109669,6.439642 0 0 1 3.623666,-0.994814a10.618184,11.191653 0 0 1 4.213565,0.888226l-0.716306,1.723159a9.674345,10.19684 0 0 0 -3.623666,-0.888226a4.213565,4.441132 0 0 0 -2.157345,0.47076a1.398904,1.474456 0 0 0 -0.73316,1.305693a1.500029,1.581043 0 0 0 0.278095,0.959285a2.61241,2.753502 0 0 0 0.842713,0.754992a18.539686,19.540982 0 0 0 2.325888,1.030343a8.755788,9.228673 0 0 1 3.193882,1.829747a3.050621,3.21538 0 0 1 0.825859,2.344918z"/>
   <path stroke="null" id="svg_87" d="m231.774933,77.077406l-1.971948,0l0,-13.323397q0,-1.660983 0.101126,-3.144322c-0.168543,0.177645 -0.362367,0.364173 -0.573045,0.559583s-1.171371,1.030343 -2.882078,2.495916l-1.070245,-1.456691l4.693911,-3.819374l1.685426,0l0.016854,18.688285z"/>
   <path stroke="null" id="svg_88" d="m252.067461,77.326109a5.747303,6.057705 0 0 1 -2.368023,-0.506289a4.449525,4.689836 0 0 1 -1.803406,-1.545514l-0.143261,0a17.005948,17.92441 0 0 1 0.143261,2.327153l0,5.800119l-2.014084,0l0,-20.340386l1.685426,0l0.278095,1.918569l0.092698,0a4.761328,5.01848 0 0 1 1.811833,-1.660983a5.511343,5.809001 0 0 1 2.359596,-0.506289a4.929871,5.196125 0 0 1 4.087158,1.900805a9.640637,10.161311 0 0 1 0,10.658718a4.913017,5.17836 0 0 1 -4.129294,1.954098zm-0.286522,-12.710521a3.58153,3.774962 0 0 0 -2.949495,1.181341a5.831574,6.146527 0 0 0 -0.935411,3.783845l0,0.497407c0,1.96298 0.311804,3.375261 0.935411,4.219076a3.539395,3.730551 0 0 0 3.000058,1.270164a3.118038,3.286438 0 0 0 2.696682,-1.465574a6.632151,6.990342 0 0 0 0.977547,-4.050313a6.387764,6.732757 0 0 0 -0.977547,-4.023666a3.210736,3.384143 0 0 0 -2.747244,-1.41228z"/>
   <path stroke="null" id="svg_89" d="m265.399181,75.576303a6.741704,7.105812 0 0 0 1.02811,-0.07994a5.941127,6.261997 0 0 0 0.79215,-0.177645l0,1.625454a3.46355,3.650611 0 0 1 -0.96912,0.27535a7.373739,7.771982 0 0 1 -1.14609,0.106587c-2.570275,0 -3.851198,-1.421162 -3.851198,-4.281252l0,-8.296035l-1.904531,0l0,-1.02146l1.904531,-0.888226l0.842713,-2.993323l1.162944,0l0,3.242027l3.859625,0l0,1.660983l-3.859625,0l0,8.242742a2.705109,2.851207 0 0 0 0.573045,1.945216a1.980376,2.087332 0 0 0 1.567446,0.639523z"/>
   <path stroke="null" id="svg_90" d="m278.444378,73.249149a3.370852,3.552906 0 0 1 -1.382049,3.01997a6.539453,6.892637 0 0 1 -3.884907,1.056989a8.42713,8.882265 0 0 1 -4.120866,-0.888226l0,-1.918569a9.665918,10.187958 0 0 0 2.05622,0.808286a8.637808,9.104321 0 0 0 2.11521,0.293115a4.778183,5.036244 0 0 0 2.427013,-0.532936a1.685426,1.776453 0 0 0 0.17697,-3.011088a10.542339,11.111713 0 0 0 -2.629265,-1.376751a14.56208,15.348553 0 0 1 -2.637692,-1.270164a3.657374,3.854903 0 0 1 -1.162944,-1.234635a3.075902,3.242027 0 0 1 -0.362367,-1.669866a2.983204,3.144322 0 0 1 1.323059,-2.664679a6.168659,6.501818 0 0 1 3.623666,-0.985931a10.609756,11.182771 0 0 1 4.213565,0.888226l-0.716306,1.776453a9.51423,10.028077 0 0 0 -3.623666,-0.888226a4.120866,4.343427 0 0 0 -2.157345,0.47076a1.382049,1.456691 0 0 0 -0.73316,1.305693a1.500029,1.581043 0 0 0 0.278095,0.959285a2.713536,2.860089 0 0 0 0.842713,0.754992a21.624015,22.791891 0 0 0 2.325888,1.030343a8.637808,9.104321 0 0 1 3.193882,1.829747a3.050621,3.21538 0 0 1 0.834286,2.247213z"/>
   <path stroke="null" id="svg_91" d="m235.963216,166.095462l-11.646293,0l0,-1.865276l4.66863,-4.947421a34.163584,36.008701 0 0 0 2.806234,-3.250909a7.63498,8.047332 0 0 0 1.019683,-1.88304a5.182685,5.462593 0 0 0 0.345512,-1.989627a2.932641,3.091028 0 0 0 -0.842713,-2.362682a3.278154,3.455201 0 0 0 -2.384878,-0.888226a5.957981,6.279761 0 0 0 -2.089928,0.381937a8.376567,8.828971 0 0 0 -2.199481,1.394516l-1.070245,-1.447809a8.174316,8.615797 0 0 1 5.334373,-2.140626a5.63775,5.942235 0 0 1 3.918615,1.341222a4.424243,4.663189 0 0 1 1.415758,3.623964a6.60687,6.963696 0 0 1 -0.943839,3.552906a21.067825,22.205662 0 0 1 -3.539395,4.396721l-3.884907,3.997019l0,0.106587l9.118154,0l-0.025281,1.980745z"/>
   <path stroke="null" id="svg_92" d="m252.067461,166.344166a5.898991,6.217585 0 0 1 -2.368023,-0.497407a4.542223,4.787541 0 0 1 -1.803406,-1.554396l-0.143261,0a17.005948,17.92441 0 0 1 0.143261,2.327153l0,5.76459l-2.014084,0l0,-20.295975l1.685426,0l0.278095,1.909687l0.092698,0a4.761328,5.01848 0 0 1 1.811833,-1.660983a5.511343,5.809001 0 0 1 2.359596,-0.506289a4.929871,5.196125 0 0 1 4.087158,1.900805a8.005773,8.438151 0 0 1 1.432612,5.329359a7.913075,8.340447 0 0 1 -1.457893,5.329359a4.913017,5.17836 0 0 1 -4.104012,1.954098zm-0.286522,-12.710521a3.58153,3.774962 0 0 0 -2.949495,1.181341a5.831574,6.146527 0 0 0 -0.935411,3.783845l0,0.479642c0,1.96298 0.311804,3.375261 0.935411,4.219076a3.539395,3.730551 0 0 0 3.000058,1.270164a3.118038,3.286438 0 0 0 2.696682,-1.465574a6.615297,6.972578 0 0 0 0.977547,-4.050313a6.387764,6.732757 0 0 0 -0.977547,-4.023666a3.210736,3.384143 0 0 0 -2.747244,-1.394516z"/>
   <path stroke="null" id="svg_93" d="m265.399181,164.594359a6.741704,7.105812 0 0 0 1.02811,-0.07994a5.941127,6.261997 0 0 0 0.79215,-0.177645l0,1.669866a3.46355,3.650611 0 0 1 -0.96912,0.27535a7.373739,7.771982 0 0 1 -1.14609,0.106587c-2.570275,0 -3.851198,-1.421162 -3.851198,-4.281252l0,-8.331564l-1.904531,0l0,-1.092519l1.904531,-0.888226l0.842713,-2.993323l1.162944,0l0,3.250909l3.859625,0l0,1.643219l-3.859625,0l0,8.242742a2.705109,2.851207 0 0 0 0.573045,1.945216a1.980376,2.087332 0 0 0 1.567446,0.710581z"/>
   <path stroke="null" id="svg_94" d="m278.444378,162.267206a3.370852,3.552906 0 0 1 -1.382049,3.01997a6.480463,6.830462 0 0 1 -3.884907,1.056989a8.42713,8.882265 0 0 1 -4.120866,-0.888226l0,-1.971863a9.665918,10.187958 0 0 0 2.05622,0.808286a8.637808,9.104321 0 0 0 2.11521,0.293115a4.879308,5.142831 0 0 0 2.427013,-0.524054a1.735989,1.829747 0 0 0 0.17697,-3.01997a10.542339,11.111713 0 0 0 -2.629265,-1.376751a13.989036,14.744559 0 0 1 -2.637692,-1.270164a3.657374,3.854903 0 0 1 -1.162944,-1.234635a3.050621,3.21538 0 0 1 -0.379221,-1.643219a2.983204,3.144322 0 0 1 1.323059,-2.709091a6.168659,6.501818 0 0 1 3.623666,-0.985931a10.609756,11.182771 0 0 1 4.213565,0.888226l-0.716306,1.749806a9.51423,10.028077 0 0 0 -3.623666,-0.888226a4.213565,4.441132 0 0 0 -2.157345,0.47076a1.382049,1.456691 0 0 0 -0.73316,1.305693a1.500029,1.581043 0 0 0 0.278095,0.959285a2.713536,2.860089 0 0 0 0.842713,0.754992a21.624015,22.791891 0 0 0 2.325888,1.030343a8.637808,9.104321 0 0 1 3.193882,1.829747a3.050621,3.21538 0 0 1 0.85114,2.344918z"/>
   <path stroke="null" id="svg_95" d="m235.331181,218.509706a4.028168,4.245723 0 0 1 -0.952266,2.931147a4.78661,5.045126 0 0 1 -2.696682,1.518867l0,0.106587a5.056278,5.329359 0 0 1 3.168601,1.430045a4.002887,4.219076 0 0 1 1.02811,3.011088a4.651776,4.90301 0 0 1 -1.76127,4.112489a7.972065,8.402622 0 0 1 -4.988861,1.438927a15.059281,15.872607 0 0 1 -2.578702,-0.222057a8.899049,9.379671 0 0 1 -2.275325,-0.790522l0,-2.016274a11.519886,12.142056 0 0 0 4.921444,1.225753c3.067475,0 4.601213,-1.270164 4.601213,-3.792727c0,-2.27386 -1.685426,-3.401907 -5.056278,-3.401907l-1.744416,0l0,-1.829747l1.769697,0a5.300665,5.586944 0 0 0 3.286581,-0.968167a3.000058,3.162086 0 0 0 1.213507,-2.664679a2.528139,2.664679 0 0 0 -0.893276,-2.149508a3.682656,3.88155 0 0 0 -2.418586,-0.781639a7.407447,7.807511 0 0 0 -2.191054,0.337526a9.910305,10.445543 0 0 0 -2.359596,1.225753l-1.011256,-1.430045a8.42713,8.882265 0 0 1 2.528139,-1.430045a9.143436,9.637257 0 0 1 3.000058,-0.515171a6.177086,6.5107 0 0 1 4.019741,1.243517a3.986032,4.201311 0 0 1 1.390476,3.41079z"/>
   <path stroke="null" id="svg_96" d="m252.067461,233.058855a5.747303,6.057705 0 0 1 -2.368023,-0.506289a4.474806,4.716483 0 0 1 -1.803406,-1.554396l-0.143261,0a17.005948,17.92441 0 0 1 0.143261,2.327153l0,5.76459l-2.014084,0l0,-20.295975l1.685426,0l0.278095,1.918569l0.092698,0a4.626494,4.876363 0 0 1 1.811833,-1.660983a5.393363,5.684649 0 0 1 2.359596,-0.515171a4.929871,5.196125 0 0 1 4.087158,1.909687a9.640637,10.161311 0 0 1 0,10.658718a4.938298,5.205007 0 0 1 -4.129294,1.954098zm-0.286522,-12.719403a3.58153,3.774962 0 0 0 -2.949495,1.190223a5.797865,6.110998 0 0 0 -0.935411,3.783845l0,0.47076c0,1.971863 0.311804,3.375261 0.935411,4.227958a3.564676,3.757198 0 0 0 3.000058,1.270164a3.101184,3.268673 0 0 0 2.696682,-1.474456a6.615297,6.972578 0 0 0 0.977547,-4.050313a6.37091,6.714992 0 0 0 -0.977547,-4.014784a3.210736,3.384143 0 0 0 -2.747244,-1.403398z"/>
   <path stroke="null" id="svg_97" d="m265.399181,231.309049a5.840001,6.155409 0 0 0 1.02811,-0.088823a6.143378,6.475171 0 0 0 0.79215,-0.168763l0,1.625454a4.163002,4.387839 0 0 1 -0.96912,0.27535a7.373739,7.771982 0 0 1 -1.14609,0.106587q-3.851198,0 -3.851198,-4.281252l0,-8.331564l-1.904531,0l0,-1.030343l1.904531,-0.888226l0.842713,-2.993323l1.162944,0l0,3.250909l3.859625,0l0,1.652101l-3.859625,0l0,8.242742a2.662973,2.806796 0 0 0 0.573045,1.936334a1.988803,2.096214 0 0 0 1.567446,0.692817z"/>
   <path stroke="null" id="svg_98" d="m278.444378,228.981896a3.320289,3.499612 0 0 1 -1.382049,3.011088a6.480463,6.830462 0 0 1 -3.884907,1.065872a8.351286,8.802324 0 0 1 -4.120866,-0.888226l0,-1.96298a10.668746,11.244947 0 0 0 2.05622,0.808286a8.637808,9.104321 0 0 0 2.11521,0.293115a4.778183,5.036244 0 0 0 2.427013,-0.532936a1.735989,1.829747 0 0 0 0.17697,-3.01997a10.592902,11.165007 0 0 0 -2.629265,-1.367869a14.452528,15.233084 0 0 1 -2.637692,-1.279046a3.64052,3.837138 0 0 1 -1.162944,-1.225753a3.08433,3.250909 0 0 1 -0.379221,-1.652101a2.957923,3.117675 0 0 1 1.323059,-2.664679a6.109669,6.439642 0 0 1 3.623666,-0.994814a10.618184,11.191653 0 0 1 4.213565,0.888226l-0.716306,1.723159a9.674345,10.19684 0 0 0 -3.623666,-0.888226a4.213565,4.441132 0 0 0 -2.157345,0.47076a1.398904,1.474456 0 0 0 -0.73316,1.305693a1.500029,1.581043 0 0 0 0.278095,0.959285a2.61241,2.753502 0 0 0 0.842713,0.754992a19.576223,20.633501 0 0 0 2.325888,1.039225a8.646235,9.113204 0 0 1 3.193882,1.820864a3.050621,3.21538 0 0 1 0.85114,2.336036z"/>
   <path stroke="null" id="svg_99" d="m417.989221,498.150045l-334.978411,0c-45.135707,0 -81.852712,-38.486853 -81.852712,-85.784912l0,-325.73041c0,-47.298059 36.717005,-85.784912 81.852712,-85.784912l334.978411,0c45.12728,0 81.852712,38.486853 81.852712,85.784912l0,325.73041c0,47.298059 -36.725432,85.784912 -81.852712,85.784912zm-334.978411,-491.970876c-42.346327,0 -76.796434,36.088641 -76.796434,80.455553l0,325.73041c0,44.366912 34.450107,80.455553 76.796434,80.455553l334.978411,0c42.346327,0 76.796434,-36.088641 76.796434,-80.455553l0,-325.73041c0,-44.366912 -34.450107,-80.455553 -76.796434,-80.455553l-334.978411,0z" class="cls-1"/>
   <path stroke="null" id="svg_100" d="m248.814589,448.906769a189.17221,199.389077 0 1 1 133.780686,-58.40089a187.967131,198.118914 0 0 1 -133.780686,58.40089zm0,-393.484325c-101.53006,0 -184.132787,87.046194 -184.132787,194.077483s82.585872,194.077483 184.132787,194.077483s184.132787,-87.046194 184.132787,-194.077483s-82.602727,-194.077483 -184.132787,-194.077483z" class="cls-1"/>
   <path stroke="null" id="svg_101" d="m248.814589,360.528236a105.339123,111.028308 0 1 1 105.339123,-111.028308a105.457103,111.15266 0 0 1 -105.339123,111.028308zm0,-216.727258a100.282845,105.69895 0 1 0 100.282845,105.69895a100.392398,105.814419 0 0 0 -100.282845,-105.69895z" class="cls-1"/>
   <path stroke="null" id="svg_102" d="m248.814589,298.352383a46.349214,48.852456 0 1 1 46.349214,-48.852456a46.399777,48.905749 0 0 1 -46.349214,48.852456zm0,-92.375553a41.292936,43.523097 0 1 0 41.292936,43.523097a41.335072,43.567508 0 0 0 -41.292936,-43.523097z" class="cls-1"/>
   <circle stroke="null" transform="matrix(0.842712982831323,0,0,0.8882264672809456,-4360.208064862462,-4994.088580015832) " id="svg_103" r="9.5" cy="5997.936455" cx="5198.767411" class="cls-2"/>
   <circle stroke="null" transform="matrix(0.842712982831323,0,0,0.8882264672809456,-4360.208064862462,-4994.088580015832) " id="svg_104" r="9.5" cy="5867.126455" cx="5201.767411" class="cls-2"/>
   <circle stroke="null" transform="matrix(0.842712982831323,0,0,0.8882264672809456,-4360.208064862462,-4994.088580015832) " id="svg_105" r="9.5" cy="5788.436455" cx="5222.767411" class="cls-2"/>
   <circle stroke="null" transform="matrix(0.842712982831323,0,0,0.8882264672809456,-4360.208064862462,-4994.088580015832) " id="svg_106" r="9.5" cy="5657.436455" cx="5251.767411" class="cls-2"/>
   <circle stroke="null" transform="matrix(0.842712982831323,0,0,0.8882264672809456,-4360.208064862462,-4994.088580015832) " id="svg_107" r="9.5" cy="5829.436455" cx="5412.767411" class="cls-2"/>
   <circle stroke="null" transform="matrix(0.842712982831323,0,0,0.8882264672809456,-4360.208064862462,-4994.088580015832) " id="svg_108" r="9.5" cy="5983.436455" cx="5324.767411" class="cls-2"/>
   <circle stroke="null" transform="matrix(0.842712982831323,0,0,0.8882264672809456,-4360.208064862462,-4994.088580015832) " id="svg_109" r="9.5" cy="6066.436455" cx="5429.977411" class="cls-2"/>
   <circle stroke="null" transform="matrix(0.842712982831323,0,0,0.8882264672809456,-4360.208064862462,-4994.088580015832) " id="svg_110" r="9.5" cy="6158.436455" cx="5355.767411" class="cls-2"/>
   <circle stroke="null" transform="matrix(0.842712982831323,0,0,0.8882264672809456,-4360.208064862462,-4994.088580015832) " id="svg_111" r="9.5" cy="6082.436455" cx="5259.267411" class="cls-2"/>
   <circle stroke="null" transform="matrix(0.842712982831323,0,0,0.8882264672809456,-4360.208064862462,-4994.088580015832) " id="svg_112" r="9.5" cy="5896.436455" cx="5438.477411" class="cls-2"/>
   <circle stroke="null" transform="matrix(0.842712982831323,0,0,0.8882264672809456,-4360.208064862462,-4994.088580015832) " id="svg_113" r="9.5" cy="5923.436455" cx="5480.767411" class="cls-2"/>
   <circle stroke="null" transform="matrix(0.842712982831323,0,0,0.8882264672809456,-4360.208064862462,-4994.088580015832) " id="svg_114" r="9.5" cy="6099.436455" cx="5658.267411" class="cls-2"/>
   <circle stroke="null" transform="matrix(0.842712982831323,0,0,0.8882264672809456,-4360.208064862462,-4994.088580015832) " id="svg_115" r="9.5" cy="6015.936455" cx="5681.267411" class="cls-2"/>
   <circle stroke="null" transform="matrix(0.842712982831323,0,0,0.8882264672809456,-4360.208064862462,-4994.088580015832) " id="svg_116" r="9.5" cy="6132.436455" cx="5734.267411" class="cls-2"/>
   <circle stroke="null" transform="matrix(0.842712982831323,0,0,0.8882264672809456,-4360.208064862462,-4994.088580015832) " id="svg_117" r="9.5" cy="6066.436455" cx="5489.267411" class="cls-2"/>
  </g>
 </g>
</svg>