<svg xmlns="http://www.w3.org/2000/svg" viewBox="0 0 300 89.48"><defs><style>.cls-1{fill:#f68221;}.cls-2{fill:#ffde01;}.cls-3{fill:#be2426;}.cls-4{fill:#fff;}.cls-5{fill:#f68220;}</style></defs><title>1</title><g id="Capa_2" data-name="Capa 2"><g id="Capa_2-2" data-name="Capa 2"><rect class="cls-1" width="300" height="45.19" rx="12.45"/><path class="cls-2" d="M10.27,45.19H114.81a0,0,0,0,1,0,0v34a10.27,10.27,0,0,1-10.27,10.27H10.27A10.27,10.27,0,0,1,0,79.2V55.46A10.27,10.27,0,0,1,10.27,45.19Z"/><path class="cls-3" d="M124.82,89.48H290a10,10,0,0,0,10-10V55.2a10,10,0,0,0-10-10H114.81V79.46A10,10,0,0,0,124.82,89.48Z"/><path class="cls-4" d="M148.8,23.87h-1.16v1.81h-.85V23.87H143V23.1l3.72-5.32h.95v5.28h1.16Zm-2-.81V20.45c0-.51,0-1.09.05-1.73h0a9.38,9.38,0,0,1-.49.85l-2.45,3.49Z"/><path class="cls-4" d="M154.72,25.68h-5.16v-.77l2.07-2.08a14.81,14.81,0,0,0,1.25-1.36,3.42,3.42,0,0,0,.45-.8,2.23,2.23,0,0,0,.15-.83,1.35,1.35,0,0,0-.38-1,1.5,1.5,0,0,0-1.06-.36,2.6,2.6,0,0,0-.93.16,3.86,3.86,0,0,0-1,.58l-.48-.6a3.62,3.62,0,0,1,2.37-.91,2.47,2.47,0,0,1,1.73.57,2,2,0,0,1,.63,1.52,3,3,0,0,1-.42,1.48,9.35,9.35,0,0,1-1.57,1.85l-1.71,1.68v0h4Z"/><path class="cls-5" d="M54.71,70.3h-.87V64.71c0-.47,0-.91,0-1.33l-.25.24-1.28,1.05-.47-.61L54,62.45h.76Z"/><path class="cls-5" d="M60.15,65.51a2.88,2.88,0,0,1,2,.61,2.12,2.12,0,0,1,.71,1.68A2.47,2.47,0,0,1,62,69.72a3.14,3.14,0,0,1-2.15.69,4,4,0,0,1-2-.42v-.86a3.06,3.06,0,0,0,.93.37,4.28,4.28,0,0,0,1.11.14,2.19,2.19,0,0,0,1.46-.44,1.61,1.61,0,0,0,.53-1.29c0-1.1-.67-1.65-2-1.65a7.47,7.47,0,0,0-1.36.16l-.46-.3.29-3.67h3.91v.82H59.12l-.2,2.36A6.41,6.41,0,0,1,60.15,65.51Z"/><path class="cls-4" d="M206.8,69.19V68.9a2.42,2.42,0,0,1,.19-1,2.92,2.92,0,0,1,.72-.86,5.05,5.05,0,0,0,.92-.92,1.41,1.41,0,0,0,.19-.76,1.06,1.06,0,0,0-.35-.84,1.5,1.5,0,0,0-1-.3,3.25,3.25,0,0,0-.83.1,4.22,4.22,0,0,0-.92.36l-.32-.72a4.45,4.45,0,0,1,2.12-.54,2.33,2.33,0,0,1,1.6.51,1.8,1.8,0,0,1,.57,1.42,2.08,2.08,0,0,1-.11.69,2,2,0,0,1-.31.57,7.37,7.37,0,0,1-.88.85,3.61,3.61,0,0,0-.72.77,1.75,1.75,0,0,0-.17.82v.18Zm-.27,1.59c0-.49.22-.73.65-.73a.59.59,0,0,1,.48.19.78.78,0,0,1,.17.54.77.77,0,0,1-.17.53.63.63,0,0,1-.48.2.65.65,0,0,1-.46-.17A.72.72,0,0,1,206.53,70.78Z"/></g></g></svg>