<svg xmlns="http://www.w3.org/2000/svg" viewBox="0 0 300 89.48"><defs><style>.cls-1{fill:#f68221;}.cls-2{fill:#ffde01;}.cls-3{fill:#be2426;}.cls-4{fill:#fff;}.cls-5{fill:#f68220;}</style></defs><title>2</title><g id="Capa_2" data-name="Capa 2"><g id="Capa_2-2" data-name="Capa 2"><rect class="cls-1" width="300" height="45.19" rx="12.45"/><path class="cls-2" d="M10.27,45.19H114.81a0,0,0,0,1,0,0v34a10.27,10.27,0,0,1-10.27,10.27H10.27A10.27,10.27,0,0,1,0,79.2V55.46A10.27,10.27,0,0,1,10.27,45.19Z"/><path class="cls-3" d="M124.82,89.48H290a10,10,0,0,0,10-10V55.2a10,10,0,0,0-10-10H114.81V79.46A10,10,0,0,0,124.82,89.48Z"/><path class="cls-4" d="M145.73,20.88a2.89,2.89,0,0,1,2,.62,2.12,2.12,0,0,1,.71,1.68,2.45,2.45,0,0,1-.77,1.91,3.09,3.09,0,0,1-2.15.7,4,4,0,0,1-2-.43V24.5a3.06,3.06,0,0,0,.93.38,4.75,4.75,0,0,0,1.11.14,2.14,2.14,0,0,0,1.46-.45,1.58,1.58,0,0,0,.53-1.29c0-1.09-.67-1.64-2-1.64a7.47,7.47,0,0,0-1.36.16l-.46-.3.29-3.67h3.91v.82H144.7L144.5,21A5.71,5.71,0,0,1,145.73,20.88Z"/><path class="cls-4" d="M149.65,22.32a5.55,5.55,0,0,1,.9-3.46,3.19,3.19,0,0,1,2.66-1.15,3.41,3.41,0,0,1,1,.11v.76a3,3,0,0,0-.94-.13,2.36,2.36,0,0,0-1.93.79,4,4,0,0,0-.73,2.47h.06a2.06,2.06,0,0,1,1.87-.92,2.19,2.19,0,0,1,1.67.64,2.42,2.42,0,0,1,.61,1.73,2.71,2.71,0,0,1-.67,1.93,2.42,2.42,0,0,1-1.81.7,2.32,2.32,0,0,1-1.93-.92A4,4,0,0,1,149.65,22.32ZM152.29,25a1.52,1.52,0,0,0,1.19-.48,2.06,2.06,0,0,0,.42-1.39,1.73,1.73,0,0,0-.4-1.22,1.46,1.46,0,0,0-1.17-.45,2,2,0,0,0-.88.2,1.5,1.5,0,0,0-.64.55,1.24,1.24,0,0,0-.24.72,2.53,2.53,0,0,0,.21,1,1.84,1.84,0,0,0,.61.76A1.48,1.48,0,0,0,152.29,25Z"/><path class="cls-5" d="M60.57,65.8q0,4.61-3.57,4.61a3.65,3.65,0,0,1-1-.11v-.77a3,3,0,0,0,1,.14,2.35,2.35,0,0,0,1.94-.79,4.06,4.06,0,0,0,.72-2.45h-.06a1.93,1.93,0,0,1-.79.68,2.57,2.57,0,0,1-1.1.23,2.19,2.19,0,0,1-1.65-.62A2.38,2.38,0,0,1,55.44,65a2.63,2.63,0,0,1,.68-1.93,2.62,2.62,0,0,1,3.2-.3,2.52,2.52,0,0,1,.92,1.2A4.74,4.74,0,0,1,60.57,65.8Zm-2.65-2.7a1.44,1.44,0,0,0-1.18.49A2.07,2.07,0,0,0,56.32,65a1.81,1.81,0,0,0,.38,1.21,1.47,1.47,0,0,0,1.18.45,2.08,2.08,0,0,0,.9-.2,1.64,1.64,0,0,0,.65-.54,1.31,1.31,0,0,0,.23-.72,2.36,2.36,0,0,0-.22-1,1.84,1.84,0,0,0-.61-.76A1.6,1.6,0,0,0,57.92,63.1Z"/><path class="cls-4" d="M208.8,69.18v-.29a2.4,2.4,0,0,1,.19-1,2.8,2.8,0,0,1,.72-.86,5.05,5.05,0,0,0,.92-.92,1.41,1.41,0,0,0,.19-.76,1.06,1.06,0,0,0-.35-.84,1.5,1.5,0,0,0-1-.3,3.25,3.25,0,0,0-.83.1,4.22,4.22,0,0,0-.92.36l-.32-.72a4.45,4.45,0,0,1,2.12-.54,2.33,2.33,0,0,1,1.6.51,1.8,1.8,0,0,1,.57,1.42,2.08,2.08,0,0,1-.11.69,2,2,0,0,1-.31.57,7.37,7.37,0,0,1-.88.85,3.61,3.61,0,0,0-.72.77,1.75,1.75,0,0,0-.17.82v.17Zm-.27,1.6c0-.49.22-.73.65-.73a.59.59,0,0,1,.48.19.78.78,0,0,1,.17.54.77.77,0,0,1-.17.53.63.63,0,0,1-.48.2.65.65,0,0,1-.46-.17A.72.72,0,0,1,208.53,70.78Z"/></g></g></svg>