<svg xmlns="http://www.w3.org/2000/svg" viewBox="0 0 300 89.48"><defs><style>.cls-1{fill:#f68221;}.cls-2{fill:#ffde01;}.cls-3{fill:#be2426;}.cls-4{fill:#fff;}.cls-5{fill:#f68220;}</style></defs><title>3</title><g id="Capa_2" data-name="Capa 2"><g id="Capa_2-2" data-name="Capa 2"><rect class="cls-1" width="300" height="45.19" rx="12.45"/><path class="cls-2" d="M10.27,45.19H114.81a0,0,0,0,1,0,0v34a10.27,10.27,0,0,1-10.27,10.27H10.27A10.27,10.27,0,0,1,0,79.2V55.46A10.27,10.27,0,0,1,10.27,45.19Z"/><path class="cls-3" d="M124.82,89.48H290a10,10,0,0,0,10-10V55.2a10,10,0,0,0-10-10H114.81V79.46A10,10,0,0,0,124.82,89.48Z"/><path class="cls-4" d="M148.14,19.67a1.77,1.77,0,0,1-.42,1.23,2.06,2.06,0,0,1-1.2.64v.05a2.2,2.2,0,0,1,1.4.6,1.74,1.74,0,0,1,.46,1.27,2,2,0,0,1-.78,1.72,3.5,3.5,0,0,1-2.21.61,5.69,5.69,0,0,1-1.14-.1,3.73,3.73,0,0,1-1-.33v-.85a4.86,4.86,0,0,0,1.09.39,5.39,5.39,0,0,0,1.09.13c1.36,0,2-.53,2-1.6S146.71,22,145.21,22h-.77v-.77h.78a2.39,2.39,0,0,0,1.46-.41,1.31,1.31,0,0,0,.53-1.12,1.12,1.12,0,0,0-.39-.91,1.66,1.66,0,0,0-1.07-.32,3.08,3.08,0,0,0-1,.14,4.32,4.32,0,0,0-1.05.51l-.45-.6a4,4,0,0,1,2.45-.82,2.69,2.69,0,0,1,1.77.53A1.75,1.75,0,0,1,148.14,19.67Z"/><path class="cls-4" d="M154.72,25.68h-5.16v-.77l2.07-2.08a16.29,16.29,0,0,0,1.25-1.36,3.42,3.42,0,0,0,.45-.8,2.23,2.23,0,0,0,.15-.83,1.35,1.35,0,0,0-.38-1,1.5,1.5,0,0,0-1.06-.36,2.6,2.6,0,0,0-.93.16,3.86,3.86,0,0,0-1,.58l-.48-.6a3.62,3.62,0,0,1,2.37-.91,2.47,2.47,0,0,1,1.73.57,2,2,0,0,1,.63,1.52,3,3,0,0,1-.42,1.48,9.35,9.35,0,0,1-1.57,1.85l-1.71,1.68v0h4Z"/><path class="cls-5" d="M58.71,70.3h-.87V64.71c0-.47,0-.91,0-1.33l-.25.24-1.28,1.05-.47-.61L58,62.45h.76Z"/><path class="cls-5" d="M67.22,68.5H66.06v1.8h-.85V68.5H61.39v-.78l3.72-5.31h1v5.28h1.16Zm-2-.81V65.08c0-.52,0-1.09.05-1.74h0a8.17,8.17,0,0,1-.49.85l-2.45,3.5Z"/><path class="cls-4" d="M212.25,69.31V69a2.41,2.41,0,0,1,.2-1,2.64,2.64,0,0,1,.72-.85,5.76,5.76,0,0,0,.92-.93,1.5,1.5,0,0,0,.19-.76,1.06,1.06,0,0,0-.35-.84,1.55,1.55,0,0,0-1-.3,3.18,3.18,0,0,0-.82.1,5.13,5.13,0,0,0-.93.36l-.32-.72A4.49,4.49,0,0,1,213,63.5a2.3,2.3,0,0,1,1.59.51,1.8,1.8,0,0,1,.57,1.42,2.09,2.09,0,0,1-.1.69,2.27,2.27,0,0,1-.31.57,8.28,8.28,0,0,1-.88.85,3.61,3.61,0,0,0-.72.77,1.64,1.64,0,0,0-.17.82v.18ZM212,70.9c0-.49.21-.73.64-.73a.59.59,0,0,1,.48.19.73.73,0,0,1,.17.54.76.76,0,0,1-.17.54.62.62,0,0,1-.48.19.67.67,0,0,1-.46-.17A.75.75,0,0,1,212,70.9Z"/></g></g></svg>