<svg xmlns="http://www.w3.org/2000/svg" viewBox="0 0 300 89.48"><defs><style>.cls-1{fill:#f68221;}.cls-2{fill:#ffde01;}.cls-3{fill:#be2426;}.cls-4{fill:#fff;}.cls-5{fill:#f68220;}</style></defs><title>4</title><g id="Capa_2" data-name="Capa 2"><g id="Capa_2-2" data-name="Capa 2"><rect class="cls-1" width="300" height="45.19" rx="12.45"/><path class="cls-2" d="M10.27,45.19H114.81a0,0,0,0,1,0,0v34a10.27,10.27,0,0,1-10.27,10.27H10.27A10.27,10.27,0,0,1,0,79.2V55.46A10.27,10.27,0,0,1,10.27,45.19Z"/><path class="cls-3" d="M124.82,89.48H290a10,10,0,0,0,10-10V55.2a10,10,0,0,0-10-10H114.81V79.46A10,10,0,0,0,124.82,89.48Z"/><path class="cls-4" d="M148.43,25.68h-5.16v-.77l2.07-2.08a16.29,16.29,0,0,0,1.25-1.36,3.42,3.42,0,0,0,.45-.8,2.23,2.23,0,0,0,.15-.83,1.35,1.35,0,0,0-.38-1,1.5,1.5,0,0,0-1.06-.36,2.6,2.6,0,0,0-.93.16,3.58,3.58,0,0,0-1,.58l-.48-.6a3.62,3.62,0,0,1,2.37-.91,2.47,2.47,0,0,1,1.73.57,2,2,0,0,1,.63,1.52,3,3,0,0,1-.42,1.48,9.35,9.35,0,0,1-1.57,1.85l-1.71,1.68v0h4Z"/><path class="cls-4" d="M154.72,21.18c0,3.07-1.18,4.61-3.56,4.61a3.65,3.65,0,0,1-1-.11v-.77a3.26,3.26,0,0,0,1,.14,2.36,2.36,0,0,0,1.94-.8,4,4,0,0,0,.72-2.44h-.06a2,2,0,0,1-.79.68,2.57,2.57,0,0,1-1.1.23,2.23,2.23,0,0,1-1.65-.62,2.39,2.39,0,0,1-.62-1.74,2.68,2.68,0,0,1,.69-1.94,2.62,2.62,0,0,1,3.2-.3,2.62,2.62,0,0,1,.92,1.2A4.83,4.83,0,0,1,154.72,21.18Zm-2.64-2.7a1.48,1.48,0,0,0-1.19.49,2.12,2.12,0,0,0-.41,1.38,1.76,1.76,0,0,0,.38,1.21A1.47,1.47,0,0,0,152,22a2.12,2.12,0,0,0,.9-.2,1.75,1.75,0,0,0,.65-.55,1.31,1.31,0,0,0,.23-.72,2.43,2.43,0,0,0-.22-1,1.75,1.75,0,0,0-.61-.75A1.6,1.6,0,0,0,152.08,18.48Z"/><path class="cls-5" d="M58.71,70.3h-.87V64.71c0-.47,0-.91,0-1.33l-.25.24-1.28,1.05-.47-.61L58,62.45h.76Z"/><path class="cls-5" d="M64.29,62.34a2.64,2.64,0,0,1,1.71.5,1.79,1.79,0,0,1,.26,2.43,3.24,3.24,0,0,1-1.15.88,3.86,3.86,0,0,1,1.36.95,1.83,1.83,0,0,1,.41,1.17,1.94,1.94,0,0,1-.69,1.56,2.76,2.76,0,0,1-1.87.58,3,3,0,0,1-1.93-.55,1.91,1.91,0,0,1-.68-1.56,2.33,2.33,0,0,1,1.65-2.1,3,3,0,0,1-1.07-.91A1.93,1.93,0,0,1,62,64.21a1.68,1.68,0,0,1,.63-1.37A2.68,2.68,0,0,1,64.29,62.34Zm-1.7,6a1.2,1.2,0,0,0,.45,1,2,2,0,0,0,1.26.36,1.88,1.88,0,0,0,1.25-.37,1.28,1.28,0,0,0,.45-1,1.3,1.3,0,0,0-.42-.93,4.39,4.39,0,0,0-1.47-.79,3.32,3.32,0,0,0-1.16.76A1.48,1.48,0,0,0,62.59,68.32Zm1.69-5.26a1.59,1.59,0,0,0-1.05.32,1.07,1.07,0,0,0-.38.86,1.22,1.22,0,0,0,.31.85,3.33,3.33,0,0,0,1.17.71,2.76,2.76,0,0,0,1.09-.69,1.27,1.27,0,0,0,.32-.87,1.05,1.05,0,0,0-.39-.86A1.65,1.65,0,0,0,64.28,63.06Z"/><path class="cls-4" d="M212.25,69.16v-.29a2.36,2.36,0,0,1,.2-1,2.66,2.66,0,0,1,.72-.86,5,5,0,0,0,.92-.93,1.46,1.46,0,0,0,.19-.75,1,1,0,0,0-.35-.84,1.55,1.55,0,0,0-1-.3,3.18,3.18,0,0,0-.82.1,4,4,0,0,0-.93.36l-.32-.73a4.6,4.6,0,0,1,2.13-.53,2.3,2.3,0,0,1,1.59.51,1.79,1.79,0,0,1,.57,1.42,2.09,2.09,0,0,1-.1.69,2.05,2.05,0,0,1-.31.56,7.22,7.22,0,0,1-.88.86,3.61,3.61,0,0,0-.72.77A1.61,1.61,0,0,0,213,69v.17Zm-.26,1.6c0-.49.21-.73.64-.73a.59.59,0,0,1,.48.19.73.73,0,0,1,.17.54.72.72,0,0,1-.17.53.59.59,0,0,1-.48.19.63.63,0,0,1-.46-.17A.71.71,0,0,1,212,70.76Z"/></g></g></svg>