<svg xmlns="http://www.w3.org/2000/svg" viewBox="0 0 300 89.48"><defs><style>.cls-1{fill:#f68221;}.cls-2{fill:#ffde01;}.cls-3{fill:#be2426;}.cls-4,.cls-5{font-size:11px;font-family:OpenSans, Open Sans;}.cls-4{fill:#fff;}.cls-5{fill:#f68220;}</style></defs><title>1</title><g id="Capa_2" data-name="Capa 2"><g id="Capa_2-2" data-name="Capa 2"><rect class="cls-1" width="300" height="45.19" rx="12.45"/><path class="cls-2" d="M10.27,45.19H114.81a0,0,0,0,1,0,0v34a10.27,10.27,0,0,1-10.27,10.27H10.27A10.27,10.27,0,0,1,0,79.2V55.46A10.27,10.27,0,0,1,10.27,45.19Z"/><path class="cls-3" d="M124.82,89.48H290a10,10,0,0,0,10-10V55.2a10,10,0,0,0-10-10H114.81V79.46A10,10,0,0,0,124.82,89.48Z"/><text class="cls-4" transform="translate(142.74 25.68)">42</text><text class="cls-5" transform="translate(50.87 70.3)">15</text><text class="cls-4" transform="translate(205.24 71.35)">27</text></g></g></svg>