<svg xmlns="http://www.w3.org/2000/svg" viewBox="0 0 300 89.48"><defs><style>.cls-1{fill:#f68221;}.cls-2{fill:#ffde01;}.cls-3{fill:#be2426;}.cls-4{fill:#fff;}.cls-5{fill:#f68220;}</style></defs><title>5</title><g id="Capa_2" data-name="Capa 2"><g id="Capa_2-2" data-name="Capa 2"><rect class="cls-1" width="300" height="45.19" rx="12.45"/><path class="cls-2" d="M10.27,45.19H114.81a0,0,0,0,1,0,0v34a10.27,10.27,0,0,1-10.27,10.27H10.27A10.27,10.27,0,0,1,0,79.2V55.46A10.27,10.27,0,0,1,10.27,45.19Z"/><path class="cls-3" d="M124.82,89.48H290a10,10,0,0,0,10-10V55.2a10,10,0,0,0-10-10H114.81V79.46A10,10,0,0,0,124.82,89.48Z"/><path class="cls-4" d="M143.36,22.32a5.55,5.55,0,0,1,.9-3.46,3.19,3.19,0,0,1,2.66-1.15,3.41,3.41,0,0,1,1,.11v.76a3,3,0,0,0-.94-.13,2.36,2.36,0,0,0-1.93.79,4,4,0,0,0-.73,2.47h.06a2.06,2.06,0,0,1,1.87-.92,2.19,2.19,0,0,1,1.67.64,2.42,2.42,0,0,1,.61,1.73,2.71,2.71,0,0,1-.67,1.93,2.42,2.42,0,0,1-1.81.7,2.32,2.32,0,0,1-1.93-.92A4,4,0,0,1,143.36,22.32ZM146,25a1.52,1.52,0,0,0,1.19-.48,2,2,0,0,0,.42-1.39,1.73,1.73,0,0,0-.4-1.22,1.46,1.46,0,0,0-1.17-.45,2,2,0,0,0-.88.2,1.5,1.5,0,0,0-.64.55,1.24,1.24,0,0,0-.24.72,2.53,2.53,0,0,0,.21,1,1.84,1.84,0,0,0,.61.76A1.48,1.48,0,0,0,146,25Z"/><path class="cls-4" d="M154.77,21.74a5.81,5.81,0,0,1-.64,3,2.37,2.37,0,0,1-3.9,0,5.64,5.64,0,0,1-.66-3,5.76,5.76,0,0,1,.64-3,2.36,2.36,0,0,1,3.89,0A5.51,5.51,0,0,1,154.77,21.74Zm-4.29,0a5.77,5.77,0,0,0,.4,2.5,1.44,1.44,0,0,0,2.57,0,5.78,5.78,0,0,0,.4-2.49,5.72,5.72,0,0,0-.4-2.48,1.45,1.45,0,0,0-2.57,0A5.72,5.72,0,0,0,150.48,21.74Z"/><path class="cls-5" d="M58.71,70.3h-.87V64.71c0-.47,0-.91,0-1.33l-.25.24-1.28,1.05-.47-.61L58,62.45h.76Z"/><path class="cls-5" d="M65,70.3h-.87V64.71c0-.47,0-.91,0-1.33l-.25.24-1.28,1.05-.47-.61,2.07-1.61H65Z"/><path class="cls-4" d="M212.25,69.07v-.29a2.36,2.36,0,0,1,.2-1,2.66,2.66,0,0,1,.72-.86,5,5,0,0,0,.92-.93,1.49,1.49,0,0,0,.19-.75,1.06,1.06,0,0,0-.35-.85,1.55,1.55,0,0,0-1-.29,3.68,3.68,0,0,0-.82.09,4.58,4.58,0,0,0-.93.37l-.32-.73a4.6,4.6,0,0,1,2.13-.53,2.3,2.3,0,0,1,1.59.51,1.79,1.79,0,0,1,.57,1.42,2.09,2.09,0,0,1-.1.69,2.05,2.05,0,0,1-.31.56,7.22,7.22,0,0,1-.88.86,3.38,3.38,0,0,0-.72.77,1.57,1.57,0,0,0-.17.81v.18Zm-.26,1.6c0-.49.21-.73.64-.73a.62.62,0,0,1,.48.18.77.77,0,0,1,.17.55.74.74,0,0,1-.17.53.59.59,0,0,1-.48.19.63.63,0,0,1-.46-.17A.73.73,0,0,1,212,70.67Z"/></g></g></svg>