<svg xmlns="http://www.w3.org/2000/svg" viewBox="0 0 300 89.48"><defs><style>.cls-1{fill:#f68221;}.cls-2{fill:#ffde01;}.cls-3{fill:#be2426;}.cls-4{fill:#fff;}.cls-5{fill:#f68220;}</style></defs><title>6</title><g id="Capa_2" data-name="Capa 2"><g id="Capa_2-2" data-name="Capa 2"><rect class="cls-1" width="300" height="45.19" rx="12.45"/><path class="cls-2" d="M10.27,45.19H114.81a0,0,0,0,1,0,0v34a10.27,10.27,0,0,1-10.27,10.27H10.27A10.27,10.27,0,0,1,0,79.2V55.46A10.27,10.27,0,0,1,10.27,45.19Z"/><path class="cls-3" d="M124.82,89.48H290a10,10,0,0,0,10-10V55.2a10,10,0,0,0-10-10H114.81V79.46A10,10,0,0,0,124.82,89.48Z"/><path class="cls-4" d="M145.73,20.88a2.89,2.89,0,0,1,2,.62,2.12,2.12,0,0,1,.71,1.68,2.45,2.45,0,0,1-.77,1.91,3.09,3.09,0,0,1-2.15.7,4,4,0,0,1-2-.43V24.5a3.06,3.06,0,0,0,.93.38,4.75,4.75,0,0,0,1.11.14,2.14,2.14,0,0,0,1.46-.45,1.6,1.6,0,0,0,.53-1.29c0-1.09-.67-1.64-2-1.64a7.47,7.47,0,0,0-1.36.16l-.46-.3.29-3.67h3.91v.82H144.7L144.5,21A5.71,5.71,0,0,1,145.73,20.88Z"/><path class="cls-4" d="M152.87,25.68H152v-5.6c0-.46,0-.9,0-1.32l-.25.24-1.28,1-.47-.61,2.07-1.6h.76Z"/><path class="cls-5" d="M56.4,70.3l3.25-7H55.37v-.82H60.6v.71L57.39,70.3Z"/><path class="cls-4" d="M212.25,69.14v-.29a2.36,2.36,0,0,1,.2-1,2.66,2.66,0,0,1,.72-.86,5,5,0,0,0,.92-.93,1.46,1.46,0,0,0,.19-.75,1.08,1.08,0,0,0-.35-.85,1.61,1.61,0,0,0-1-.29,3.18,3.18,0,0,0-.82.1,4,4,0,0,0-.93.36l-.32-.73a4.6,4.6,0,0,1,2.13-.53,2.3,2.3,0,0,1,1.59.51,1.79,1.79,0,0,1,.57,1.42,2.09,2.09,0,0,1-.1.69,2.05,2.05,0,0,1-.31.56,7.22,7.22,0,0,1-.88.86,3.38,3.38,0,0,0-.72.77A1.59,1.59,0,0,0,213,69v.17Zm-.26,1.6c0-.49.21-.73.64-.73a.59.59,0,0,1,.48.19.93.93,0,0,1,0,1.07.59.59,0,0,1-.48.19.63.63,0,0,1-.46-.17A.71.71,0,0,1,212,70.74Z"/></g></g></svg>