<svg xmlns="http://www.w3.org/2000/svg" viewBox="0 0 300 89.48"><defs><style>.cls-1{fill:#f68221;}.cls-2{fill:#ffde01;}.cls-3{fill:#be2426;}.cls-4{fill:#fff;}.cls-5{fill:#f68220;}</style></defs><title>7</title><g id="Capa_2" data-name="Capa 2"><g id="Capa_2-2" data-name="Capa 2"><rect class="cls-1" width="300" height="45.19" rx="12.45"/><path class="cls-2" d="M10.27,45.19H114.81a0,0,0,0,1,0,0v34a10.27,10.27,0,0,1-10.27,10.27H10.27A10.27,10.27,0,0,1,0,79.2V55.46A10.27,10.27,0,0,1,10.27,45.19Z"/><path class="cls-3" d="M124.82,89.48H290a10,10,0,0,0,10-10V55.2a10,10,0,0,0-10-10H114.81V79.46A10,10,0,0,0,124.82,89.48Z"/><path class="cls-4" d="M148.8,23.87h-1.16v1.81h-.85V23.87H143V23.1l3.72-5.32h.95v5.28h1.16Zm-2-.81V20.45c0-.51,0-1.09.05-1.73h0a9.38,9.38,0,0,1-.49.85l-2.45,3.49Z"/><path class="cls-4" d="M150.56,25.68l3.25-7h-4.28v-.82h5.23v.71l-3.22,7.14Z"/><path class="cls-5" d="M58.71,70.3h-.87V64.71c0-.47,0-.91,0-1.33l-.25.24-1.28,1.05-.47-.61L58,62.45h.76Z"/><path class="cls-5" d="M66.9,66.37a5.72,5.72,0,0,1-.65,3,2.37,2.37,0,0,1-3.89,0,5.6,5.6,0,0,1-.66-3,5.8,5.8,0,0,1,.64-3.05,2.38,2.38,0,0,1,3.89,0A5.53,5.53,0,0,1,66.9,66.37Zm-4.29,0a5.72,5.72,0,0,0,.4,2.49,1.35,1.35,0,0,0,1.28.78,1.33,1.33,0,0,0,1.29-.79,5.75,5.75,0,0,0,.4-2.48,5.69,5.69,0,0,0-.4-2.48,1.33,1.33,0,0,0-1.29-.79,1.35,1.35,0,0,0-1.28.78A5.66,5.66,0,0,0,62.61,66.37Z"/><path class="cls-4" d="M212.25,69.07v-.29a2.36,2.36,0,0,1,.2-1,2.66,2.66,0,0,1,.72-.86,5,5,0,0,0,.92-.93,1.49,1.49,0,0,0,.19-.75,1.06,1.06,0,0,0-.35-.85,1.55,1.55,0,0,0-1-.29,3.68,3.68,0,0,0-.82.09,4.58,4.58,0,0,0-.93.37l-.32-.73a4.6,4.6,0,0,1,2.13-.53,2.3,2.3,0,0,1,1.59.51,1.79,1.79,0,0,1,.57,1.42,2.09,2.09,0,0,1-.1.69,2.05,2.05,0,0,1-.31.56,7.22,7.22,0,0,1-.88.86,3.38,3.38,0,0,0-.72.77,1.57,1.57,0,0,0-.17.81v.18Zm-.26,1.6c0-.49.21-.73.64-.73a.62.62,0,0,1,.48.18.77.77,0,0,1,.17.55.74.74,0,0,1-.17.53.59.59,0,0,1-.48.19.63.63,0,0,1-.46-.17A.73.73,0,0,1,212,70.67Z"/></g></g></svg>