<svg xmlns="http://www.w3.org/2000/svg" viewBox="0 0 128.36 50.08"><defs><style>.cls-1{fill:none;}.cls-2{fill:#f6c628;}.cls-3{fill:#b42827;}.cls-4{fill:#e35328;}</style></defs><title>barraespacio_1</title><g id="Layer_2" data-name="Layer 2"><g id="Tabla_C" data-name="Tabla C"><rect class="cls-1" width="128.36" height="50.03"/><g id="Bloque1"><rect class="cls-2" x="62.24" y="45.37" width="4.88" height="4.71"/><polygon class="cls-3" points="62.24 50.08 61.25 49.6 61.25 44.89 62.24 45.37 62.24 50.08"/><polygon class="cls-4" points="67.12 45.37 62.24 45.37 61.25 44.89 66.13 44.89 67.12 45.37"/></g><g id="Bloque1-2" data-name="Bloque1"><rect class="cls-2" x="62.24" y="40.39" width="4.88" height="4.71"/><polygon class="cls-3" points="62.24 45.09 61.25 44.62 61.25 39.91 62.24 40.39 62.24 45.09"/><polygon class="cls-4" points="67.12 40.39 62.24 40.39 61.25 39.91 66.13 39.91 67.12 40.39"/></g><g id="Bloque1-3" data-name="Bloque1"><rect class="cls-2" x="62.24" y="35.4" width="4.88" height="4.71"/><polygon class="cls-3" points="62.24 40.11 61.25 39.63 61.25 34.92 62.24 35.4 62.24 40.11"/><polygon class="cls-4" points="67.12 35.4 62.24 35.4 61.25 34.92 66.13 34.92 67.12 35.4"/></g><g id="Bloque1-4" data-name="Bloque1"><rect class="cls-2" x="62.24" y="30.42" width="4.88" height="4.71"/><polygon class="cls-3" points="62.24 35.12 61.25 34.65 61.25 29.94 62.24 30.42 62.24 35.12"/><polygon class="cls-4" points="67.12 30.42 62.24 30.42 61.25 29.94 66.13 29.94 67.12 30.42"/></g><g id="Bloque1-5" data-name="Bloque1"><rect class="cls-2" x="62.24" y="25.43" width="4.88" height="4.71"/><polygon class="cls-3" points="62.24 30.14 61.25 29.66 61.25 24.96 62.24 25.43 62.24 30.14"/><polygon class="cls-4" points="67.12 25.43 62.24 25.43 61.25 24.96 66.13 24.96 67.12 25.43"/></g><g id="Bloque1-6" data-name="Bloque1"><rect class="cls-2" x="62.24" y="20.45" width="4.88" height="4.71"/><polygon class="cls-3" points="62.24 25.16 61.25 24.68 61.25 19.97 62.24 20.45 62.24 25.16"/><polygon class="cls-4" points="67.12 20.45 62.24 20.45 61.25 19.97 66.13 19.97 67.12 20.45"/></g><g id="Bloque1-7" data-name="Bloque1"><rect class="cls-2" x="62.24" y="15.47" width="4.88" height="4.71"/><polygon class="cls-3" points="62.24 20.17 61.25 19.7 61.25 14.99 62.24 15.47 62.24 20.17"/><polygon class="cls-4" points="67.12 15.47 62.24 15.47 61.25 14.99 66.13 14.99 67.12 15.47"/></g><g id="Bloque1-8" data-name="Bloque1"><rect class="cls-2" x="62.24" y="10.48" width="4.88" height="4.71"/><polygon class="cls-3" points="62.24 15.19 61.25 14.71 61.25 10.01 62.24 10.48 62.24 15.19"/><polygon class="cls-4" points="67.12 10.48 62.24 10.48 61.25 10.01 66.13 10.01 67.12 10.48"/></g><g id="Bloque1-9" data-name="Bloque1"><rect class="cls-2" x="62.24" y="5.5" width="4.88" height="4.71"/><polygon class="cls-3" points="62.24 10.2 61.25 9.73 61.25 5.02 62.24 5.5 62.24 10.2"/><polygon class="cls-4" points="67.12 5.5 62.24 5.5 61.25 5.02 66.13 5.02 67.12 5.5"/></g><g id="Bloque1-10" data-name="Bloque1"><rect class="cls-2" x="62.24" y="0.51" width="4.88" height="4.71"/><polygon class="cls-3" points="62.24 5.22 61.25 4.74 61.25 0.04 62.24 0.51 62.24 5.22"/><polygon class="cls-4" points="67.12 0.51 62.24 0.51 61.25 0.04 66.13 0.04 67.12 0.51"/></g></g></g></svg>