<svg xmlns="http://www.w3.org/2000/svg" viewBox="0 0 34.48 34.21"><defs><style>.cls-1{fill:#e9c53d;}.cls-2{fill:#9a2b2a;}.cls-3{fill:#c6532e;}</style></defs><title>cubos4</title><g id="Capa_2" data-name="Capa 2"><g id="Tabla_C" data-name="Tabla C"><g id="Bloque1"><rect class="cls-1" x="0.99" y="0.48" width="4.88" height="4.71"/><polygon class="cls-2" points="0.99 5.18 0 4.71 0 0 0.99 0.48 0.99 5.18"/><polygon class="cls-3" points="5.87 0.48 0.99 0.48 0 0 4.88 0 5.87 0.48"/></g><g id="Bloque1-2" data-name="Bloque1"><rect class="cls-1" x="0.99" y="29.51" width="4.88" height="4.71"/><polygon class="cls-2" points="0.99 34.21 0 33.74 0 29.03 0.99 29.51 0.99 34.21"/><polygon class="cls-3" points="5.87 29.51 0.99 29.51 0 29.03 4.88 29.03 5.87 29.51"/></g><g id="Bloque1-3" data-name="Bloque1"><rect class="cls-1" x="29.6" y="0.48" width="4.88" height="4.71"/><polygon class="cls-2" points="29.6 5.18 28.61 4.71 28.61 0 29.6 0.48 29.6 5.18"/><polygon class="cls-3" points="34.48 0.48 29.6 0.48 28.61 0 33.49 0 34.48 0.48"/></g><g id="Bloque1-4" data-name="Bloque1"><rect class="cls-1" x="29.6" y="29.51" width="4.88" height="4.71"/><polygon class="cls-2" points="29.6 34.21 28.61 33.74 28.61 29.03 29.6 29.51 29.6 34.21"/><polygon class="cls-3" points="34.48 29.51 29.6 29.51 28.61 29.03 33.49 29.03 34.48 29.51"/></g></g></g></svg>