<svg xmlns="http://www.w3.org/2000/svg" viewBox="0 0 76.82 75.29"><defs><style>.a{fill:#fff;}.a,.b{stroke:#f05023;stroke-miterlimit:10;stroke-width:0.29px;stroke-dasharray:1.16;}.b{fill:none;}.c{fill:#fc0;}.d{fill:#e64314;}.e{fill:#bb1e18;}</style></defs><title>cubo_centesimo_9</title><polygon class="a" points="26.02 0.14 26.02 50.24 4.59 75.14 0.14 75.14 0.14 24.91 21.21 0.14 26.02 0.14"/><polyline class="b" points="4.59 75.14 4.59 24.91 0.14 24.91"/><line class="b" x1="26.01" y1="0.15" x2="4.59" y2="24.91"/><polygon class="a" points="31.62 0.14 31.62 50.24 10.2 75.14 5.75 75.14 5.75 24.91 26.82 0.14 31.62 0.14"/><polyline class="b" points="10.2 75.14 10.2 24.91 5.75 24.91"/><line class="b" x1="31.62" y1="0.15" x2="10.2" y2="24.91"/><polygon class="a" points="37.31 0.14 37.31 50.24 15.88 75.14 11.44 75.14 11.44 24.91 32.5 0.14 37.31 0.14"/><polyline class="b" points="15.88 75.14 15.88 24.91 11.44 24.91"/><line class="b" x1="37.31" y1="0.15" x2="15.88" y2="24.91"/><polygon class="a" points="42.91 0.14 42.91 50.24 21.49 75.14 17.05 75.14 17.05 24.91 38.11 0.14 42.91 0.14"/><polyline class="b" points="21.49 75.14 21.49 24.91 17.05 24.91"/><line class="b" x1="42.92" y1="0.15" x2="21.49" y2="24.91"/><polygon class="a" points="48.6 0.14 48.6 50.24 27.18 75.14 22.73 75.14 22.73 24.91 43.79 0.14 48.6 0.14"/><polyline class="b" points="27.18 75.14 27.18 24.91 22.73 24.91"/><line class="b" x1="48.6" y1="0.15" x2="27.18" y2="24.91"/><polygon class="a" points="54.21 0.14 54.21 50.24 32.78 75.14 28.34 75.14 28.34 24.91 49.4 0.14 54.21 0.14"/><polyline class="b" points="32.78 75.14 32.78 24.91 28.34 24.91"/><line class="b" x1="54.21" y1="0.15" x2="32.78" y2="24.91"/><polygon class="a" points="59.78 0.14 59.78 50.24 38.36 75.14 33.91 75.14 33.91 24.91 54.97 0.14 59.78 0.14"/><polyline class="b" points="38.36 75.14 38.36 24.91 33.91 24.91"/><line class="b" x1="59.78" y1="0.15" x2="38.36" y2="24.91"/><polygon class="a" points="65.39 0.14 65.39 50.24 43.97 75.14 39.52 75.14 39.52 24.91 60.58 0.14 65.39 0.14"/><polyline class="b" points="43.97 75.14 43.97 24.91 39.52 24.91"/><line class="b" x1="65.39" y1="0.15" x2="43.97" y2="24.91"/><polygon class="a" points="71.07 0.14 71.07 50.24 49.65 75.14 45.2 75.14 45.2 24.91 66.26 0.14 71.07 0.14"/><polyline class="b" points="49.65 75.14 49.65 24.91 45.2 24.91"/><line class="b" x1="71.07" y1="0.15" x2="49.65" y2="24.91"/><polygon class="a" points="76.68 0.14 76.68 50.24 55.26 75.14 50.81 75.14 50.81 24.91 71.87 0.14 76.68 0.14"/><polyline class="b" points="55.26 75.14 55.26 24.91 50.81 24.91"/><line class="b" x1="76.68" y1="0.15" x2="55.26" y2="24.91"/><rect class="c" x="68.38" y="4.75" width="4.63" height="50.55" transform="translate(141.39 60.04) rotate(180)"/><polygon class="d" points="70.34 2.52 68.38 4.75 73.01 4.75 75.01 2.52 70.34 2.52"/><polygon class="e" points="75.01 2.52 75.01 52.98 73.01 55.29 73.01 4.75 75.01 2.52"/><rect class="c" x="66.22" y="7.24" width="4.63" height="50.55" transform="translate(137.08 65.03) rotate(180)"/><polygon class="d" points="68.19 5.01 66.22 7.25 70.86 7.25 72.85 5.01 68.19 5.01"/><polygon class="e" points="72.85 5.01 72.85 55.48 70.86 57.79 70.86 7.25 72.85 5.01"/><rect class="c" x="64.07" y="9.74" width="4.63" height="50.55" transform="translate(132.77 70.03) rotate(180)"/><polygon class="d" points="66.03 7.51 64.07 9.74 68.7 9.74 70.7 7.51 66.03 7.51"/><polygon class="e" points="70.7 7.51 70.7 57.98 68.7 60.29 68.7 9.74 70.7 7.51"/><rect class="c" x="61.91" y="12.24" width="4.63" height="50.55" transform="translate(128.46 75.02) rotate(180)"/><polygon class="d" points="63.88 10.01 61.91 12.24 66.55 12.24 68.54 10.01 63.88 10.01"/><polygon class="e" points="68.54 10.01 68.54 60.47 66.55 62.78 66.55 12.24 68.54 10.01"/><rect class="c" x="59.76" y="14.74" width="4.63" height="50.55" transform="translate(124.15 80.02) rotate(180)"/><polygon class="d" points="61.72 12.51 59.76 14.74 64.39 14.74 66.39 12.51 61.72 12.51"/><polygon class="e" points="66.39 12.51 66.39 62.97 64.39 65.28 64.39 14.74 66.39 12.51"/><rect class="c" x="57.6" y="17.23" width="4.63" height="50.55" transform="translate(119.84 85.01) rotate(180)"/><polygon class="d" points="59.57 15 57.6 17.23 62.24 17.23 64.23 15 59.57 15"/><polygon class="e" points="64.23 15 64.23 65.47 62.24 67.78 62.24 17.23 64.23 15"/><rect class="c" x="55.45" y="19.73" width="4.63" height="50.55" transform="translate(115.53 90.01) rotate(180)"/><polygon class="d" points="57.41 17.5 55.45 19.73 60.08 19.73 62.08 17.5 57.41 17.5"/><polygon class="e" points="62.08 17.5 62.08 67.97 60.08 70.28 60.08 19.73 62.08 17.5"/><rect class="c" x="53.29" y="22.23" width="4.63" height="50.55" transform="translate(111.22 95) rotate(180)"/><polygon class="d" points="55.26 20 53.3 22.23 57.93 22.23 59.92 20 55.26 20"/><polygon class="e" points="59.92 20 59.92 70.46 57.93 72.77 57.93 22.23 59.92 20"/><rect class="c" x="51.14" y="24.72" width="4.63" height="50.55" transform="translate(106.91 99.99) rotate(180)"/><polygon class="d" points="53.1 22.49 51.14 24.73 55.77 24.73 57.77 22.49 53.1 22.49"/><polygon class="e" points="57.77 22.49 57.77 72.96 55.77 75.27 55.77 24.73 57.77 22.49"/></svg>