<svg xmlns="http://www.w3.org/2000/svg" viewBox="0 0 200 72.24"><defs><style>.cls-1{fill:#f83;}.cls-2{fill:#fe5b2f;}.cls-3{fill:#fff;}.cls-4{fill:#d0512a;}.cls-5{fill:#f0ca30;}.cls-6{fill:#c6451e;}.cls-7{fill:#9f231e;}</style></defs><title>Recurso 1</title><g id="Capa_2" data-name="Capa 2"><g id="Capa_1-2" data-name="Capa 1"><path class="cls-1" d="M18.21,29.63v7.05a3.83,3.83,0,0,1-1.13,2.92A4.32,4.32,0,0,1,14,40.67a4.14,4.14,0,0,1-3-1.07,4,4,0,0,1-1.08-3v-7h1.27v7.11a2.82,2.82,0,0,0,.74,2.09,3,3,0,0,0,2.19.73,3,3,0,0,0,2.13-.73,2.87,2.87,0,0,0,.74-2.11V29.63Z"/><path class="cls-1" d="M26.49,40.52V35.24A2.14,2.14,0,0,0,26,33.75a1.86,1.86,0,0,0-1.43-.49,2.33,2.33,0,0,0-1.87.69,3.47,3.47,0,0,0-.6,2.29v4.28H20.9V32.36h1l.2,1.11h.06a2.53,2.53,0,0,1,1.06-.93,3.5,3.5,0,0,1,1.53-.33,3.13,3.13,0,0,1,2.22.71,3,3,0,0,1,.75,2.27v5.33Z"/><path class="cls-1" d="M37.49,40.67a3.46,3.46,0,0,1-2.74-1.09,4.49,4.49,0,0,1-1-3.09,4.59,4.59,0,0,1,1-3.16,3.55,3.55,0,0,1,2.81-1.12,5.91,5.91,0,0,1,1.18.12,4.3,4.3,0,0,1,.92.3l-.38,1a5.47,5.47,0,0,0-.89-.27,4.13,4.13,0,0,0-.86-.11q-2.49,0-2.49,3.18a3.77,3.77,0,0,0,.61,2.3,2.12,2.12,0,0,0,1.8.81,5.52,5.52,0,0,0,2.09-.44v1.09A4.34,4.34,0,0,1,37.49,40.67Z"/><path class="cls-1" d="M44.94,40.67a3.77,3.77,0,0,1-2.86-1.1,4.27,4.27,0,0,1-1-3.06,4.72,4.72,0,0,1,1-3.14,3.22,3.22,0,0,1,2.61-1.16,3.07,3.07,0,0,1,2.43,1,3.89,3.89,0,0,1,.89,2.66v.78H42.32A3.19,3.19,0,0,0,43,38.84a2.51,2.51,0,0,0,1.94.75A6.54,6.54,0,0,0,47.59,39v1.1a5.82,5.82,0,0,1-2.65.53Zm-.34-7.43a2,2,0,0,0-1.56.64,3,3,0,0,0-.69,1.78h4.26a2.74,2.74,0,0,0-.52-1.8A1.83,1.83,0,0,0,44.6,33.24Z"/><path class="cls-1" d="M55.63,40.52V35.24a2.14,2.14,0,0,0-.45-1.49,1.84,1.84,0,0,0-1.42-.49,2.35,2.35,0,0,0-1.88.69,3.47,3.47,0,0,0-.6,2.29v4.28H50.05V32.36h1l.2,1.11h.06a2.56,2.56,0,0,1,1.07-.93,3.47,3.47,0,0,1,1.53-.33,3.13,3.13,0,0,1,2.22.71,3,3,0,0,1,.74,2.27v5.33Z"/><path class="cls-1" d="M62.05,39.65a4.23,4.23,0,0,0,.63,0,4.84,4.84,0,0,0,.48-.1v.94a2.24,2.24,0,0,1-.59.17,4.62,4.62,0,0,1-.7.06c-1.58,0-2.37-.83-2.37-2.5V33.32H58.33v-.6l1.17-.51L60,30.46h.72v1.9H63.1v1H60.74v4.8a1.61,1.61,0,0,0,.35,1.13A1.19,1.19,0,0,0,62.05,39.65Z"/><path class="cls-1" d="M68.24,40.67a3.75,3.75,0,0,1-2.85-1.1,4.27,4.27,0,0,1-1-3.06,4.72,4.72,0,0,1,1-3.14,3.22,3.22,0,0,1,2.61-1.16,3,3,0,0,1,2.43,1,3.84,3.84,0,0,1,.9,2.66v.78H65.62a3.24,3.24,0,0,0,.73,2.18,2.49,2.49,0,0,0,1.94.75,6.46,6.46,0,0,0,2.6-.55v1.1a6.91,6.91,0,0,1-1.24.41A7.13,7.13,0,0,1,68.24,40.67Zm-.33-7.43a2,2,0,0,0-1.57.64,3,3,0,0,0-.69,1.78h4.27a2.74,2.74,0,0,0-.52-1.8A1.86,1.86,0,0,0,67.91,33.24ZM67,31.09A12.54,12.54,0,0,0,67.76,30a9,9,0,0,0,.65-1.14h1.51V29a10.49,10.49,0,0,1-1,1.19,11.17,11.17,0,0,1-1.12,1.1H67Z"/><path class="cls-1" d="M78.62,38.29a2,2,0,0,1-.85,1.76,4,4,0,0,1-2.38.62,5.12,5.12,0,0,1-2.54-.52V39a6.63,6.63,0,0,0,1.27.47,5.46,5.46,0,0,0,1.3.17,2.93,2.93,0,0,0,1.49-.31,1,1,0,0,0,.52-.94,1,1,0,0,0-.42-.82,6.65,6.65,0,0,0-1.61-.8A8.61,8.61,0,0,1,73.78,36a2.11,2.11,0,0,1-.71-.72,2,2,0,0,1,.57-2.54,3.83,3.83,0,0,1,2.23-.57,6.66,6.66,0,0,1,2.58.53l-.44,1a5.88,5.88,0,0,0-2.23-.51,2.61,2.61,0,0,0-1.33.28.86.86,0,0,0-.44.76.89.89,0,0,0,.17.56,1.74,1.74,0,0,0,.53.44,13.52,13.52,0,0,0,1.44.6,5.48,5.48,0,0,1,2,1.06A1.89,1.89,0,0,1,78.62,38.29Z"/><path class="cls-1" d="M80.52,30.14a.82.82,0,0,1,.21-.62.75.75,0,0,1,.52-.2.73.73,0,0,1,.52.21.81.81,0,0,1,.22.61.86.86,0,0,1-.22.63.77.77,0,0,1-.52.2.75.75,0,0,1-.52-.2A.86.86,0,0,1,80.52,30.14Zm1.35,10.38H80.63V32.36h1.24Z"/><path class="cls-1" d="M94.89,40.52V35.21a2.23,2.23,0,0,0-.41-1.46,1.62,1.62,0,0,0-1.3-.49,2.11,2.11,0,0,0-1.71.66,3.19,3.19,0,0,0-.55,2v4.56H89.69V35.21a2.17,2.17,0,0,0-.42-1.46A1.61,1.61,0,0,0,88,33.26a2,2,0,0,0-1.7.69,3.8,3.8,0,0,0-.54,2.29v4.28H84.49V32.36h1l.2,1.11h.06a2.61,2.61,0,0,1,1-.93,3,3,0,0,1,1.43-.33,2.43,2.43,0,0,1,2.5,1.38h.06a2.59,2.59,0,0,1,1.06-1,3.22,3.22,0,0,1,1.57-.37,2.79,2.79,0,0,1,2.08.71,3.16,3.16,0,0,1,.69,2.27v5.33Z"/><path class="cls-1" d="M105.72,36.43a4.52,4.52,0,0,1-1,3.12,3.54,3.54,0,0,1-2.78,1.12,3.65,3.65,0,0,1-2-.52,3.42,3.42,0,0,1-1.31-1.47,5.25,5.25,0,0,1-.46-2.25,4.47,4.47,0,0,1,1-3.11A3.54,3.54,0,0,1,102,32.21a3.45,3.45,0,0,1,2.72,1.14A4.45,4.45,0,0,1,105.72,36.43Zm-6.22,0a3.84,3.84,0,0,0,.63,2.38,2.48,2.48,0,0,0,3.68,0,3.87,3.87,0,0,0,.63-2.39,3.75,3.75,0,0,0-.63-2.36,2.21,2.21,0,0,0-1.86-.81,2.17,2.17,0,0,0-1.83.79A3.89,3.89,0,0,0,99.5,36.43Z"/><path class="cls-1" d="M111.43,34.13v-1h6.92v1Zm0,3v-1h6.92v1Z"/><path class="cls-1" d="M131.19,35.06a8,8,0,0,1-.89,4.22,3,3,0,0,1-2.73,1.39,3,3,0,0,1-2.67-1.43,7.78,7.78,0,0,1-.92-4.18,7.94,7.94,0,0,1,.89-4.22,3.29,3.29,0,0,1,5.4.06A7.77,7.77,0,0,1,131.19,35.06Zm-6,0a8,8,0,0,0,.55,3.46,2,2,0,0,0,3.58,0,8.19,8.19,0,0,0,.55-3.44,8.19,8.19,0,0,0-.55-3.44,2,2,0,0,0-3.58,0A8,8,0,0,0,125.24,35.06Z"/><path class="cls-1" d="M134.55,38.75l.11.17a16.58,16.58,0,0,1-.55,1.73c-.25.66-.5,1.27-.76,1.84h-.94q.21-.78.45-1.92c.16-.76.27-1.37.34-1.82Z"/><path class="cls-1" d="M143.65,35.06a8,8,0,0,1-.89,4.22A3,3,0,0,1,140,40.67a3,3,0,0,1-2.68-1.43,7.79,7.79,0,0,1-.91-4.18,8,8,0,0,1,.88-4.22,3.29,3.29,0,0,1,5.4.06A7.77,7.77,0,0,1,143.65,35.06Zm-6,0a8,8,0,0,0,.55,3.46A1.88,1.88,0,0,0,140,39.6a1.86,1.86,0,0,0,1.79-1.1,8,8,0,0,0,.55-3.44,8,8,0,0,0-.55-3.44,2,2,0,0,0-3.58,0A8,8,0,0,0,137.7,35.06Z"/><path class="cls-1" d="M149.73,40.52h-1.2V32.76c0-.65,0-1.26.05-1.83l-.34.32c-.13.12-.73.6-1.78,1.46l-.65-.85,2.88-2.23h1Z"/><path class="cls-1" d="M158,34.13v-1h6.92v1Zm0,3v-1h6.92v1Z"/><path class="cls-2" d="M188.91,72.24H11.09A10.87,10.87,0,0,1,0,61.62v-51A10.88,10.88,0,0,1,11.09,0H188.91A10.88,10.88,0,0,1,200,10.63v51A10.87,10.87,0,0,1,188.91,72.24ZM11.09,1.47a9.37,9.37,0,0,0-9.55,9.16v51a9.37,9.37,0,0,0,9.55,9.15H188.91a9.37,9.37,0,0,0,9.55-9.15v-51a9.37,9.37,0,0,0-9.55-9.16Z"/><polygon class="cls-3" points="171.41 27.46 171.41 61.86 174.46 61.86 189.13 44.8 189.13 10.5 185.84 10.5 171.41 27.46"/><path class="cls-4" d="M174.39,62h-.8v-.2h.8Zm-1.59,0H172v-.2h.8Zm-1.29-.31h-.2v-.79h.2Zm3.5-.28-.15-.13.51-.6.16.13Zm1-1.2-.15-.13.52-.61.15.13Zm-4.53-.11h-.2v-.79h.2Zm5.57-1.1-.15-.13.52-.6.15.13Zm-5.57-.49h-.2v-.79h.2Zm6.61-.72-.15-.13.52-.6.15.13Zm-6.61-.87h-.2v-.79h.2Zm7.64-.33-.15-.13.52-.6.15.13Zm1-1.21-.15-.13.52-.6.15.13Zm-8.68-.05h-.2V54.5h.2Zm9.72-1.15-.15-.13.52-.61.15.13Zm-9.72-.44h-.2v-.79h.2Zm10.76-.77-.16-.13.52-.6.15.13Zm-10.76-.82h-.2v-.79h.2Zm11.79-.38-.15-.13.52-.61.15.13Zm-11.79-1.21h-.2v-.79h.2Zm12.83,0-.15-.13.52-.6.15.13Zm1-1.21-.15-.13.51-.6.16.13Zm-13.87-.38h-.2v-.8h.2Zm14.9-.82-.15-.13.52-.6.15.13Zm-14.9-.77h-.2v-.8h.2Zm15.94-.44-.15-.13.52-.6.15.13Zm-15.94-1.15h-.2V45h.2Zm17,0-.15-.13.52-.61.15.13Zm.74-1.39H189v-.8h.2Zm-17.72-.15h-.2v-.8h.2Zm17.72-1.44H189v-.8h.2Zm-17.72-.15h-.2v-.8h.2Zm17.72-1.44H189v-.8h.2ZM171.51,41h-.2v-.8h.2Zm17.72-1.44H189v-.8h.2Zm-17.72-.15h-.2v-.8h.2ZM189.23,38H189v-.8h.2Zm-17.72-.15h-.2V37h.2Zm17.72-1.44H189v-.8h.2Zm-17.72-.15h-.2v-.8h.2Zm17.72-1.44H189V34h.2Zm-17.72-.15h-.2v-.8h.2Zm17.72-1.44H189v-.8h.2ZM171.51,33h-.2v-.8h.2Zm17.72-1.45H189v-.79h.2Zm-17.72-.14h-.2v-.8h.2ZM189.23,30H189V29.2h.2Zm-17.72-.14h-.2v-.8h.2Zm17.72-1.45H189v-.79h.2Zm-17.72-.14h-.2v-.84l.36-.42.16.13-.32.37Zm17.72-1.45H189V26h.2Zm-16.89-.29-.15-.13.51-.6.16.13Zm1-1.21-.15-.13.52-.6.15.12Zm15.86-.09H189v-.79h.2ZM174.4,24.1l-.15-.13.52-.61.15.13Zm14.83-.47H189v-.79h.2Zm-13.8-.74-.15-.13.52-.61.15.13Zm13.8-.85H189v-.79h.2Zm-12.77-.36-.15-.13.52-.61.15.13Zm1-1.22-.15-.12.52-.61.15.13Zm11.74,0H189v-.79h.2Zm-10.71-1.2-.15-.13.52-.6.15.13Zm10.71-.39H189v-.79h.2ZM179.55,18l-.15-.13.52-.6.15.13Zm9.68-.77H189v-.79h.2Zm-8.65-.44-.15-.13.52-.61.15.13Zm8.65-1.15H189v-.79h.2Zm-7.62-.06-.15-.13.52-.61.15.13Zm1-1.21-.15-.13.52-.61.15.13Zm6.59-.32H189V13.3h.2Zm-5.56-.9-.15-.12.52-.61.15.13Zm5.56-.69H189v-.79h.2ZM184.7,12l-.15-.13.52-.6.15.13Zm4.53-1.07H189V10.6h-.29v-.2h.49Zm-3.5-.14-.15-.13.21-.24h.57v.2h-.48ZM188,10.6h-.8v-.2h.8Z"/><polyline class="cls-3" points="171.41 27.46 174.46 27.46 189.13 10.5"/><path class="cls-4" d="M173.8,27.56H173v-.2h.8Zm-1.59,0h-.8v-.2h.8Zm2.41-.14-.15-.13.52-.6.15.13Zm1-1.2-.15-.13.52-.6.15.13Zm1-1.2-.15-.13.52-.6.15.13Zm1-1.21-.15-.13.52-.6.15.13Zm1-1.2-.15-.13.52-.6.15.13Zm1-1.2-.15-.13.52-.6.15.13Zm1-1.2-.15-.13.52-.61.15.13Zm1-1.21-.15-.13.52-.6.15.13Zm1-1.2-.15-.13.52-.6.15.13Zm1-1.2-.15-.13.52-.6.15.13Zm1-1.21-.15-.13.52-.6.15.13Zm1-1.2-.16-.13.52-.6.16.13Zm1-1.2-.16-.13.53-.6.15.13Zm1-1.2-.15-.13.52-.61.15.13Zm1-1.21-.15-.13v0l.15.13Z"/><line class="cls-3" x1="174.46" y1="61.86" x2="174.46" y2="27.46"/><path class="cls-4" d="M174.56,61.86h-.2v-.8h.2Zm0-1.59h-.2v-.8h.2Zm0-1.59h-.2v-.8h.2Zm0-1.59h-.2v-.8h.2Zm0-1.59h-.2v-.8h.2Zm0-1.59h-.2v-.8h.2Zm0-1.59h-.2v-.8h.2Zm0-1.6h-.2v-.79h.2Zm0-1.59h-.2v-.79h.2Zm0-1.59h-.2v-.79h.2Zm0-1.59h-.2v-.79h.2Zm0-1.59h-.2v-.79h.2Zm0-1.59h-.2V42h.2Zm0-1.59h-.2v-.79h.2Zm0-1.59h-.2V38.8h.2Zm0-1.59h-.2v-.79h.2Zm0-1.59h-.2v-.79h.2Zm0-1.59h-.2V34h.2Zm0-1.59h-.2v-.79h.2Zm0-1.59h-.2v-.79h.2Zm0-1.59h-.2v-.79h.2Zm0-1.59h-.2v-.79h.2Z"/><rect class="cls-5" x="171.27" y="27.34" width="3.06" height="34.59" transform="translate(345.61 89.27) rotate(180)"/><polygon class="cls-6" points="172.57 25.82 171.28 27.34 174.34 27.34 175.66 25.82 172.57 25.82"/><polygon class="cls-7" points="175.66 25.82 175.66 60.35 174.34 61.93 174.34 27.34 175.66 25.82"/></g></g></svg>