<svg xmlns="http://www.w3.org/2000/svg" width="25.36" height="75.29" viewBox="0 0 25.36 75.29"><defs><style>.a{fill:#fff;}.a,.b{stroke:#f05023;stroke-miterlimit:10;stroke-width:0.29px;stroke-dasharray:1.17;}.b{fill:none;}.c{fill:#fc0;}.d{fill:#e64314;}.e{fill:#bb1e18;}</style></defs><title>placa_diagonal_centesimo6</title><polygon class="a" points="25.21 0.15 25.21 50.24 4.46 75.15 0.15 75.15 0.15 24.91 20.55 0.15 25.21 0.15"/><polyline class="b" points="4.46 75.15 4.46 24.91 0.15 24.91"/><line class="b" x1="25.21" y1="0.15" x2="4.46" y2="24.92"/><line class="b" x1="2.43" y1="22.34" x2="6.61" y2="22.34"/><line class="b" x1="4.42" y1="19.99" x2="8.6" y2="19.99"/><line class="b" x1="6.52" y1="17.29" x2="10.7" y2="17.29"/><line class="b" x1="8.16" y1="15.12" x2="12.34" y2="15.12"/><line class="b" x1="10.73" y1="12.24" x2="14.9" y2="12.24"/><line class="b" x1="12.85" y1="9.87" x2="17.03" y2="9.87"/><line class="b" x1="14.94" y1="7.17" x2="19.12" y2="7.17"/><line class="b" x1="16.58" y1="5" x2="20.76" y2="5"/><line class="b" x1="18.96" y1="2.41" x2="23.14" y2="2.41"/><line class="b" x1="6.61" y1="22.34" x2="6.61" y2="72.91"/><line class="b" x1="8.6" y1="19.99" x2="8.6" y2="70.56"/><line class="b" x1="10.7" y1="17.46" x2="10.7" y2="68.03"/><line class="b" x1="12.69" y1="15.12" x2="12.69" y2="65.68"/><line class="b" x1="14.83" y1="12.52" x2="14.83" y2="63.09"/><line class="b" x1="16.83" y1="10.17" x2="16.83" y2="60.74"/><line class="b" x1="18.92" y1="7.64" x2="18.92" y2="58.21"/><line class="b" x1="20.91" y1="5.3" x2="20.91" y2="55.86"/><line class="b" x1="23.14" y1="2.41" x2="23.14" y2="52.97"/><rect class="c" x="10.48" y="12.12" width="4.48" height="50.54" transform="translate(25.44 74.78) rotate(180)"/><polygon class="d" points="12.38 9.88 10.48 12.12 14.96 12.12 16.89 9.88 12.38 9.88"/><polygon class="e" points="16.89 9.88 16.89 60.35 14.96 62.66 14.96 12.12 16.89 9.88"/><rect class="c" x="8.4" y="14.61" width="4.48" height="50.54" transform="translate(21.28 79.77) rotate(180)"/><polygon class="d" points="10.3 12.38 8.4 14.61 12.88 14.61 14.8 12.38 10.3 12.38"/><polygon class="e" points="14.8 12.38 14.8 62.85 12.88 65.16 12.88 14.61 14.8 12.38"/><rect class="c" x="6.32" y="17.11" width="4.48" height="50.54" transform="translate(17.11 84.76) rotate(180)"/><polygon class="d" points="8.22 14.88 6.32 17.11 10.79 17.11 12.72 14.88 8.22 14.88"/><polygon class="e" points="12.72 14.88 12.72 65.34 10.79 67.66 10.79 17.11 12.72 14.88"/><rect class="c" x="4.24" y="19.61" width="4.48" height="50.54" transform="translate(12.95 89.76) rotate(180)"/><polygon class="d" points="6.13 17.38 4.24 19.61 8.71 19.61 10.64 17.38 6.13 17.38"/><polygon class="e" points="10.64 17.38 10.64 67.84 8.71 70.15 8.71 19.61 10.64 17.38"/><rect class="c" x="2.16" y="22.1" width="4.48" height="50.54" transform="translate(8.79 94.75) rotate(180)"/><polygon class="d" points="4.05 19.87 2.16 22.1 6.63 22.1 8.56 19.87 4.05 19.87"/><polygon class="e" points="8.56 19.87 8.56 70.34 6.63 72.65 6.63 22.1 8.56 19.87"/><rect class="c" x="0.08" y="24.6" width="4.48" height="50.54" transform="translate(4.63 99.75) rotate(180)"/><polygon class="d" points="1.97 22.37 0.07 24.6 4.55 24.6 6.48 22.37 1.97 22.37"/><polygon class="e" points="6.48 22.37 6.48 72.83 4.55 75.15 4.55 24.6 6.48 22.37"/></svg>