<svg xmlns="http://www.w3.org/2000/svg" width="224.02" height="233.7" viewBox="0 0 224.02 233.7"><defs><style>.a{fill:#adadad;}.b{fill:#bcbcbc;}.c{fill:#848484;}.d{fill:#f2f2f2;}.e{isolation:isolate;}.f{fill:#efefef;}.g{fill:#a2a2a3;}.h{fill:#dbdbdb;}</style></defs><title>1_v2</title><path class="a" d="M0,86.27v61.16A17.9,17.9,0,0,0,3.42,158l35.94,49.48a18,18,0,0,0,9,6.5l58.17,18.9a17.86,17.86,0,0,0,11.06,0L175.75,214a18,18,0,0,0,9-6.5L220.6,158a17.91,17.91,0,0,0,3.4-10.57V86.27a17.91,17.91,0,0,0-3.42-10.52L184.65,26.28a17.9,17.9,0,0,0-9-6.51L117.54.88a17.86,17.86,0,0,0-11.06,0L48.31,19.77a18.06,18.06,0,0,0-9,6.51L3.42,75.75A17.91,17.91,0,0,0,0,86.27Z"/><path class="b" d="M9.59,88.89v55.92a16.37,16.37,0,0,0,3.12,9.62l32.87,45.25a16.45,16.45,0,0,0,8.19,5.94L107,222.9a16.35,16.35,0,0,0,10.12,0l53.18-17.28a16.45,16.45,0,0,0,8.19-5.94l32.87-45.25a16.37,16.37,0,0,0,3.12-9.62V88.89a16.37,16.37,0,0,0-3.12-9.62L178.44,34a16.35,16.35,0,0,0-8.19-6L117.07,10.8a16.35,16.35,0,0,0-10.12,0L53.77,28.08a16.31,16.31,0,0,0-8.19,6L12.71,79.27A16.37,16.37,0,0,0,9.59,88.89Z"/><path class="c" d="M19.35,117.68A96,96,0,0,1,156.49,31a96,96,0,0,0-90.4,169.39q2.34,1.25,4.76,2.37A96,96,0,0,1,19.35,117.68Z"/><path class="d" d="M156.49,31A96,96,0,0,1,70.85,202.76a96,96,0,0,0,90.4-169.39Q158.91,32.13,156.49,31Z"/><g class="e"><path class="c" d="M114.6,76.69h10.94V187.46h-12.9V90.05L93.5,100,88.58,90.6Z"/></g><g class="e"><path class="f" d="M113.34,75.74h10.89V187.1H111.4V89.17l-19.06,10-4.89-9.42Z"/></g><path class="c" d="M111.77,52.32h-2l-2.08,7a14.28,14.28,0,0,1-3.26.29,11.9,11.9,0,0,1-3.79-.53l-.23-.4L111.14,26.1a29.66,29.66,0,0,1,4.42-.3,25,25,0,0,1,4.57.35L130.62,58.8a8,8,0,0,1-3.84.92,5.5,5.5,0,0,1-3.55-.88,7.09,7.09,0,0,1-1.75-3.35l-.92-3.21h-1.89Zm-.14-6.1h7.24l-.84-3q-1.16-4.08-2.66-10h-.3c-.26,1.39-1,4.48-2.33,9.27Z"/><path class="f" d="M110.77,52.32h-2l-2.08,7a14.28,14.28,0,0,1-3.26.29,11.9,11.9,0,0,1-3.79-.53l-.23-.4L110.14,26.1a29.66,29.66,0,0,1,4.42-.3,25,25,0,0,1,4.57.35L129.62,58.8a8,8,0,0,1-3.84.92,5.5,5.5,0,0,1-3.55-.88,7.09,7.09,0,0,1-1.75-3.35l-.92-3.21h-1.89Zm-.14-6.1h7.24l-.84-3q-1.16-4.08-2.66-10h-.3c-.26,1.39-1,4.48-2.33,9.27Z"/><path class="g" d="M112.54,206.55a89.55,89.55,0,0,1-62.93-27.32A88.2,88.2,0,0,1,24.8,116.31a87,87,0,0,0,26.58,61.15,85.78,85.78,0,0,0,61.16,24.09Z"/><path class="h" d="M114.8,201.55a85.47,85.47,0,0,0,32.86-5.91,86.59,86.59,0,0,0,47.63-46,87.61,87.61,0,0,0,7.25-33.34,88.17,88.17,0,0,1-24.82,62.92,89.42,89.42,0,0,1-62.92,27.32Z"/></svg>