<svg xmlns="http://www.w3.org/2000/svg" width="224.02" height="233.7" viewBox="0 0 224.02 233.7"><defs><style>.cls-1{isolation:isolate;}.cls-2,.cls-8{fill:#adadad;}.cls-3{fill:#bcbcbc;}.cls-4,.cls-6{fill:#848484;}.cls-4,.cls-6,.cls-8{mix-blend-mode:multiply;}.cls-5{fill:#f2f2f2;}.cls-6{font-size:160px;}.cls-6,.cls-7{font-family:LarkeNeueBold-Bold, Larke Neue Bold;font-weight:700;}.cls-7{font-size:160.86px;}.cls-7,.cls-9{fill:#efefef;}.cls-10{fill:#a2a2a3;}.cls-11{fill:#dbdbdb;}</style></defs><title>1</title><g class="cls-1"><g id="_1" data-name="1"><path class="cls-2" d="M0,86.27v61.16A17.91,17.91,0,0,0,3.42,158l35.94,49.48a18,18,0,0,0,9,6.5l58.17,18.9a17.86,17.86,0,0,0,11.06,0l58.16-18.9a17.93,17.93,0,0,0,9-6.5L220.6,158A17.91,17.91,0,0,0,224,147.43V86.27a17.91,17.91,0,0,0-3.42-10.52L184.65,26.28a17.89,17.89,0,0,0-9-6.51L117.54.88a17.86,17.86,0,0,0-11.06,0L48.31,19.77a18,18,0,0,0-9,6.51L3.42,75.75A17.91,17.91,0,0,0,0,86.27Z"/><path class="cls-3" d="M9.59,88.89v55.92a16.35,16.35,0,0,0,3.12,9.62l32.87,45.25a16.4,16.4,0,0,0,8.19,5.94L107,222.9a16.35,16.35,0,0,0,10.12,0l53.18-17.28a16.45,16.45,0,0,0,8.19-5.94l32.87-45.25a16.35,16.35,0,0,0,3.12-9.62V88.89a16.37,16.37,0,0,0-3.12-9.62L178.44,34a16.4,16.4,0,0,0-8.19-6L117.07,10.8a16.35,16.35,0,0,0-10.12,0L53.77,28.08a16.36,16.36,0,0,0-8.19,6L12.71,79.27A16.37,16.37,0,0,0,9.59,88.89Z"/><path class="cls-4" d="M19.35,117.68A96,96,0,0,1,156.49,31,96,96,0,1,0,70.85,202.76,96,96,0,0,1,19.35,117.68Z"/><path class="cls-5" d="M156.49,31A96,96,0,0,1,70.85,202.76,96,96,0,1,0,156.49,31Z"/><text class="cls-6" transform="translate(69.77 190.48)">1</text><text class="cls-7" transform="translate(68.67 190.12) scale(0.99 1)">1</text><path id="A" class="cls-8" d="M111.77,52.32c-.87,0-1.52,0-2,0l-2.08,7a14.45,14.45,0,0,1-3.26.29,11.66,11.66,0,0,1-3.79-.53l-.23-.4L111.14,26.1a29.81,29.81,0,0,1,4.42-.3,24.85,24.85,0,0,1,4.57.35L130.62,58.8a8,8,0,0,1-3.84.92,5.49,5.49,0,0,1-3.55-.88,7.1,7.1,0,0,1-1.75-3.35l-.92-3.21c-.41,0-1.06,0-1.89,0Zm-.14-6.1,1.94,0h3.55c.16,0,.44,0,.84,0l.91,0-.84-3q-1.16-4.08-2.66-10h-.3c-.26,1.39-1,4.48-2.33,9.27Z"/><path id="A-2" data-name="A" class="cls-9" d="M110.77,52.32c-.87,0-1.52,0-2,0l-2.08,7a14.45,14.45,0,0,1-3.26.29,11.66,11.66,0,0,1-3.79-.53l-.23-.4L110.14,26.1a29.81,29.81,0,0,1,4.42-.3,24.85,24.85,0,0,1,4.57.35L129.62,58.8a8,8,0,0,1-3.84.92,5.49,5.49,0,0,1-3.55-.88,7.1,7.1,0,0,1-1.75-3.35l-.92-3.21c-.41,0-1.06,0-1.89,0Zm-.14-6.1,1.94,0h3.55c.16,0,.44,0,.84,0l.91,0-.84-3q-1.16-4.08-2.66-10h-.3c-.26,1.39-1,4.48-2.33,9.27Z"/><path class="cls-10" d="M112.54,206.55a89.5,89.5,0,0,1-62.93-27.32A88.2,88.2,0,0,1,24.8,116.31a87,87,0,0,0,26.58,61.15,85.81,85.81,0,0,0,61.16,24.09Z"/><path class="cls-11" d="M114.8,201.55a85.55,85.55,0,0,0,32.86-5.91,86.58,86.58,0,0,0,47.63-46,87.62,87.62,0,0,0,7.25-33.34,88.15,88.15,0,0,1-24.82,62.92,89.45,89.45,0,0,1-62.92,27.32Z"/></g></g></svg>