<svg xmlns="http://www.w3.org/2000/svg" width="232.69" height="232.69" viewBox="0 0 232.69 232.69"><defs><style>.a{fill:#9b935c;}.b{fill:#d1c671;}.c{fill:#777329;}.d{fill:#eae3b0;}.e{fill:#e0d8a2;}.f{fill:#a59956;}.g{isolation:isolate;}.h{fill:#f9f2b2;}.i{fill:#fff2b0;}</style></defs><title>10_v2</title><circle class="a" cx="116.35" cy="116.35" r="116.35"/><circle class="b" cx="116.35" cy="116.35" r="95.99"/><path class="c" d="M23.68,118A96,96,0,0,1,160.82,31.27,96,96,0,0,0,72,201.48c1.06.55,2.13,1.09,3.21,1.6A96,96,0,0,1,23.68,118Z"/><path class="d" d="M160.82,31.27A96,96,0,0,1,75.19,203.08,96,96,0,0,0,164,32.87C163,32.32,161.9,31.78,160.82,31.27Z"/><path class="e" d="M115.19,206.45A87.69,87.69,0,0,1,73.62,194.1a91.66,91.66,0,0,1-8.91-6.1,93.86,93.86,0,0,1-8.06-7.12,87.8,87.8,0,0,1-13.2-16.73,87.34,87.34,0,0,0,14.38,15.44A86,86,0,0,0,75.29,191a82.47,82.47,0,0,0,39.9,8.42Z"/><path class="f" d="M120.45,199.45a82.47,82.47,0,0,0,39.9-8.42,85.28,85.28,0,0,0,17.46-11.46,87,87,0,0,0,14.38-15.44,88,88,0,0,1-71.76,42.32Z"/><path class="c" d="M82.43,76h9.16v92.78H80.8V87.22l-16,8.31-4.13-7.85Z"/><path class="c" d="M169,88.2q10.22,13.49,10.21,34.25T169,156.84q-10.18,13.6-25.75,13.61T117.5,156.84q-10.2-13.62-10.21-34.39T117.5,88.1q10.22-13.57,25.78-13.57T169,88.2Zm-43.38,7.07q-6.87,10.59-6.87,27.41t6.74,27.42q6.75,10.59,17.77,10.6t17.86-10.6Q168,139.5,168,122.68t-6.84-27.51q-6.84-10.69-17.86-10.7T125.61,95.27Z"/><g class="g"><path class="h" d="M81.34,74.94H90.5v92.78H79.71V86.13l-16,8.31-4.12-7.85Z"/><path class="h" d="M167.9,87.11q10.22,13.49,10.21,34.25t-10.17,34.39q-10.19,13.6-25.75,13.61t-25.78-13.61q-10.2-13.62-10.21-34.39T116.41,87q10.22-13.58,25.78-13.57T167.9,87.11Zm-43.38,7.07q-6.87,10.59-6.87,27.41T124.39,149q6.75,10.59,17.77,10.6T160,149q6.84-10.6,6.84-27.42T160,94.08q-6.84-10.69-17.86-10.7T124.52,94.18Z"/></g><path class="c" d="M116.11,52.65h-2L112,59.71a15.5,15.5,0,0,1-3.26.28,11.33,11.33,0,0,1-3.79-.53l-.24-.39,10.69-32.6a29.66,29.66,0,0,1,4.42-.29,24.88,24.88,0,0,1,4.56.34L135,59.12a8,8,0,0,1-3.84.92,5.5,5.5,0,0,1-3.55-.88,7,7,0,0,1-1.75-3.35l-.92-3.21H123ZM116,46.54h7.29l-.83-3q-1.15-4.08-2.66-10h-.3c-.26,1.39-1,4.48-2.34,9.28Z"/><path class="i" d="M115.11,52.65h-2L111,59.71a15.5,15.5,0,0,1-3.26.28,11.33,11.33,0,0,1-3.79-.53l-.24-.39,10.69-32.6a29.66,29.66,0,0,1,4.42-.29,24.88,24.88,0,0,1,4.56.34L134,59.12a8,8,0,0,1-3.84.92,5.5,5.5,0,0,1-3.55-.88,7,7,0,0,1-1.75-3.35l-.92-3.21H122ZM115,46.54h7.29l-.83-3q-1.15-4.08-2.66-10h-.3c-.26,1.39-1,4.48-2.34,9.28Z"/></svg>