<svg xmlns="http://www.w3.org/2000/svg" width="232.69" height="232.69" viewBox="0 0 232.69 232.69"><defs><style>.cls-1{isolation:isolate;}.cls-2{fill:#9b935c;}.cls-3{fill:#d1c671;}.cls-4{fill:#777329;}.cls-10,.cls-4,.cls-8{mix-blend-mode:multiply;}.cls-5{fill:#eae3b0;}.cls-6{fill:#e0d8a2;}.cls-7{fill:#a59956;}.cls-8,.cls-9{font-size:134px;font-family:LarkeNeueBold-Bold, Larke Neue Bold;font-weight:700;}.cls-8{fill:#999367;}.cls-9{fill:#f9f2b2;}.cls-10{fill:#a39b62;}.cls-11{fill:#fff2b0;}</style></defs><title>10</title><g class="cls-1"><g id="_10" data-name="10"><circle class="cls-2" cx="116.35" cy="116.35" r="116.35"/><circle class="cls-3" cx="116.35" cy="116.35" r="95.99"/><path class="cls-4" d="M23.68,118A96,96,0,0,1,160.82,31.27,96,96,0,1,0,75.19,203.08,96,96,0,0,1,23.68,118Z"/><path class="cls-5" d="M160.82,31.27A96,96,0,0,1,75.19,203.08,96,96,0,1,0,160.82,31.27Z"/><path class="cls-6" d="M115.19,206.45A87.69,87.69,0,0,1,73.62,194.1,91.19,91.19,0,0,1,64.71,188a92.57,92.57,0,0,1-8.06-7.12,87.78,87.78,0,0,1-13.2-16.73,87.12,87.12,0,0,0,14.38,15.44A86.13,86.13,0,0,0,75.29,191a82.48,82.48,0,0,0,39.9,8.42Z"/><path class="cls-7" d="M120.45,199.45a82.48,82.48,0,0,0,39.9-8.42,85.39,85.39,0,0,0,17.46-11.46,86.75,86.75,0,0,0,14.38-15.44A87.39,87.39,0,0,1,179,180.86a87.83,87.83,0,0,1-17,13.24,87.62,87.62,0,0,1-41.57,12.35Z"/><text class="cls-8" transform="translate(44.1 168.81)">10</text><text class="cls-9" transform="translate(43.01 167.72)">10</text><path id="A" class="cls-10" d="M116.11,52.65c-.87,0-1.53,0-2,0l-2.08,7.06a15.24,15.24,0,0,1-3.26.28,11.39,11.39,0,0,1-3.79-.53l-.24-.39,10.69-32.6a29.93,29.93,0,0,1,4.42-.29,24.86,24.86,0,0,1,4.56.34L135,59.12a8,8,0,0,1-3.84.92,5.49,5.49,0,0,1-3.55-.88,7,7,0,0,1-1.75-3.35l-.92-3.21c-.41,0-1.06,0-1.9,0ZM116,46.54l2,0h3.55l.84,0,.9,0-.83-3q-1.16-4.08-2.66-10h-.3c-.26,1.39-1,4.48-2.34,9.28Z"/><path id="A-2" data-name="A" class="cls-11" d="M115.11,52.65c-.87,0-1.53,0-2,0l-2.08,7.06a15.24,15.24,0,0,1-3.26.28,11.39,11.39,0,0,1-3.79-.53l-.24-.39,10.69-32.6a29.93,29.93,0,0,1,4.42-.29,24.86,24.86,0,0,1,4.56.34L134,59.12a8,8,0,0,1-3.84.92,5.49,5.49,0,0,1-3.55-.88,7,7,0,0,1-1.75-3.35l-.92-3.21c-.41,0-1.06,0-1.9,0ZM115,46.54l2,0h3.55l.84,0,.9,0-.83-3q-1.16-4.08-2.66-10h-.3c-.26,1.39-1,4.48-2.34,9.28Z"/></g></g></svg>