<svg xmlns="http://www.w3.org/2000/svg" width="232.69" height="232.69" viewBox="0 0 232.69 232.69"><defs><style>.a{fill:#bfbd60;}.b{fill:#adadad;}.c{fill:#939393;}.d{fill:#e0dfcd;}.e{fill:#fffef3;}.f{fill:#d3d2cd;}.g{isolation:isolate;}.h{fill:#dcdfe0;}.i{fill:#9b9a98;}</style></defs><title>100_v2</title><circle class="a" cx="116.35" cy="116.35" r="116.35"/><circle class="b" cx="116.35" cy="116.35" r="95.99"/><path class="c" d="M23.68,118A96,96,0,0,1,160.82,31.27,96,96,0,0,0,72,201.48c1.06.55,2.13,1.09,3.21,1.6A96,96,0,0,1,23.68,118Z"/><path class="d" d="M160.82,31.27A96,96,0,0,1,75.19,203.08,96,96,0,0,0,164,32.87C163,32.32,161.9,31.78,160.82,31.27Z"/><path class="e" d="M115.19,206.45A87.69,87.69,0,0,1,73.62,194.1a91.66,91.66,0,0,1-8.91-6.1,93.86,93.86,0,0,1-8.06-7.12,87.8,87.8,0,0,1-13.2-16.73,87.34,87.34,0,0,0,14.38,15.44A86,86,0,0,0,75.29,191a82.47,82.47,0,0,0,39.9,8.42Z"/><path class="f" d="M120.45,199.45a82.47,82.47,0,0,0,39.9-8.42,85.28,85.28,0,0,0,17.46-11.46,87,87,0,0,0,14.38-15.44,88,88,0,0,1-71.76,42.32Z"/><path class="c" d="M61.28,84.45h6.85v69.36H60.06v-61L48.07,99,45,93.16Z"/><path class="c" d="M126,93.55q7.62,10.08,7.63,25.61T126,144.86Q118.41,155,106.77,155T87.5,144.86q-7.64-10.17-7.64-25.7T87.5,93.48q7.62-10.16,19.27-10.15T126,93.55ZM93.56,98.83q-5.13,7.94-5.14,20.5t5,20.49q5,7.92,13.28,7.92t13.35-7.92q5.11-7.92,5.12-20.49t-5.12-20.57q-5.1-8-13.35-8T93.56,98.83Z"/><path class="c" d="M189.52,93.55q7.64,10.08,7.63,25.61t-7.6,25.7Q181.95,155,170.3,155T151,144.86q-7.64-10.17-7.63-25.7T151,93.48q7.64-10.16,19.27-10.15T189.52,93.55Zm-32.43,5.28q-5.13,7.94-5.13,20.5t5,20.49q5,7.92,13.28,7.92t13.35-7.92q5.12-7.92,5.11-20.49t-5.11-20.57q-5.12-8-13.35-8T157.09,98.83Z"/><g class="g"><path class="h" d="M60.19,83.36H67v69.36H59v-61L47,97.94,43.9,92.07Z"/><path class="h" d="M124.9,92.46q7.62,10.08,7.63,25.61t-7.61,25.7q-7.61,10.17-19.24,10.17T86.4,143.77q-7.62-10.17-7.63-25.7T86.4,92.39Q94,82.24,105.68,82.24T124.9,92.46ZM92.47,97.74q-5.13,7.94-5.14,20.5t5,20.49q5,7.92,13.28,7.92T119,138.73q5.11-7.92,5.12-20.49T119,97.67q-5.1-8-13.35-8T92.47,97.74Z"/><path class="h" d="M188.43,92.46q7.63,10.08,7.63,25.61t-7.6,25.7q-7.61,10.17-19.25,10.17t-19.27-10.17q-7.63-10.17-7.63-25.7t7.63-25.68q7.63-10.15,19.27-10.15T188.43,92.46ZM156,97.74q-5.13,7.94-5.13,20.5t5,20.49q5,7.92,13.28,7.92t13.35-7.92q5.11-7.92,5.11-20.49t-5.11-20.57q-5.11-8-13.35-8T156,97.74Z"/></g><path class="c" d="M116.11,52.65h-2L112,59.71a15.5,15.5,0,0,1-3.26.28,11.33,11.33,0,0,1-3.79-.53l-.24-.39,10.69-32.6a29.66,29.66,0,0,1,4.42-.29,24.88,24.88,0,0,1,4.56.34L135,59.12a8,8,0,0,1-3.84.92,5.5,5.5,0,0,1-3.55-.88,7,7,0,0,1-1.75-3.35l-.92-3.21H123ZM116,46.54h7.29l-.83-3q-1.15-4.08-2.66-10h-.3c-.26,1.39-1,4.48-2.34,9.28Z"/><path class="i" d="M115.11,52.65h-2L111,59.71a15.5,15.5,0,0,1-3.26.28,11.33,11.33,0,0,1-3.79-.53l-.24-.39,10.69-32.6a29.66,29.66,0,0,1,4.42-.29,24.88,24.88,0,0,1,4.56.34L134,59.12a8,8,0,0,1-3.84.92,5.5,5.5,0,0,1-3.55-.88,7,7,0,0,1-1.75-3.35l-.92-3.21H122ZM115,46.54h7.29l-.83-3q-1.15-4.08-2.66-10h-.3c-.26,1.39-1,4.48-2.34,9.28Z"/></svg>