<svg id="_1000" data-name="1000" xmlns="http://www.w3.org/2000/svg" xmlns:xlink="http://www.w3.org/1999/xlink" width="403.73" height="199.23" viewBox="0 0 403.73 199.23"><defs><style>.cls-1{fill:none;}.cls-2{clip-path:url(#clip-path);}.cls-3{fill:#b0bf79;}.cls-4{fill:#9ba657;}.cls-5{fill:#e8f4d9;}.cls-6{fill:#ececec;}</style><clipPath id="clip-path"><rect class="cls-1" width="403.73" height="199.23"/></clipPath></defs><title>1000</title><g class="cls-2"><rect class="cls-3" x="10" y="10" width="383.73" height="179.23" rx="2.27"/><path class="cls-4" d="M383.73,20V179.23H20V20H383.73m7.73-20H12.27A12.27,12.27,0,0,0,0,12.27V187a12.27,12.27,0,0,0,12.27,12.27H391.46A12.27,12.27,0,0,0,403.73,187V12.27A12.27,12.27,0,0,0,391.46,0Z"/><path class="cls-4" d="M0,53.49A53.49,53.49,0,0,0,53.49,0H0Z"/><path class="cls-4" d="M350.24,0a53.49,53.49,0,0,0,53.49,53.49V0Z"/><path class="cls-4" d="M403.73,145.74a53.49,53.49,0,0,0-53.49,53.49h53.49Z"/><path class="cls-4" d="M53.49,199.23A53.49,53.49,0,0,0,0,145.74v53.49Z"/><circle class="cls-5" cx="382.85" cy="178.05" r="19.37"/><path class="cls-3" d="M373.86,184.45a1.79,1.79,0,0,1,2.51-.24,11.23,11.23,0,0,0,6.55,2.64,7.41,7.41,0,0,0,4.28-1.27,3.1,3.1,0,0,0,1.48-2.47,2,2,0,0,0-.31-1.1,3.44,3.44,0,0,0-1-1,13.91,13.91,0,0,0-4.7-1.61h-.07a18.91,18.91,0,0,1-4.42-1.33,7.46,7.46,0,0,1-3.19-2.68,5.29,5.29,0,0,1-.79-2.81,6.31,6.31,0,0,1,2.75-5,10.1,10.1,0,0,1,5.93-1.82c3.29,0,5.72,1.61,7.47,2.74a1.76,1.76,0,0,1,.48,2.43,1.72,1.72,0,0,1-2.43.52c-1.75-1.17-3.43-2.2-5.52-2.2a6.49,6.49,0,0,0-3.84,1.17,2.73,2.73,0,0,0-1.31,2.16,1.67,1.67,0,0,0,.24,1,3.47,3.47,0,0,0,.93.89,11.66,11.66,0,0,0,4.29,1.51h.06a20.28,20.28,0,0,1,4.74,1.44,8,8,0,0,1,3.42,2.85,5.5,5.5,0,0,1,.83,2.91,6.64,6.64,0,0,1-2.95,5.31,10.69,10.69,0,0,1-6.34,2,14.81,14.81,0,0,1-8.78-3.43A1.82,1.82,0,0,1,373.86,184.45Z"/><path class="cls-3" d="M383.12,194a1.73,1.73,0,0,1-1.73-1.73V163.8a1.73,1.73,0,0,1,3.46,0v28.51A1.72,1.72,0,0,1,383.12,194Z"/></g><path class="cls-6" d="M61.88,41.67h7V154.26h-9v-102L40.45,62.31l-3.74-7.38Z"/><path class="cls-6" d="M156.45,56.43Q168.29,73,168.28,98t-11.83,41.69q-11.83,16.52-29.93,16.51T96.58,139.73Q84.75,123.22,84.75,98T96.66,56.28q11.91-16.37,29.86-16.36T156.45,56.43Zm-53,5.72q-8.89,14-8.89,36.29,0,22.16,8.81,36.13,8.82,13.81,23.27,13.81t23.38-14q8.94-14,8.93-36.21t-9-36.37q-8.82-13.89-23.26-13.89T103.41,62.15Z"/><path class="cls-6" d="M255.86,56.43Q267.7,73,267.69,98t-11.83,41.69Q244,156.25,225.93,156.24T196,139.73Q184.17,123.22,184.16,98t11.91-41.72Q208,39.91,225.93,39.92T255.86,56.43Zm-53,5.72q-8.9,14-8.89,36.29,0,22.16,8.81,36.13,8.82,13.81,23.27,13.81t23.38-14q8.94-14,8.93-36.21t-9-36.37q-8.81-13.89-23.26-13.89T202.82,62.15Z"/><path class="cls-6" d="M355.27,56.43Q367.11,73,367.1,98t-11.83,41.69q-11.83,16.52-29.93,16.51T295.4,139.73Q283.58,123.22,283.57,98t11.91-41.72q11.91-16.37,29.86-16.36T355.27,56.43Zm-53,5.72q-8.89,14-8.89,36.29,0,22.16,8.81,36.13,8.82,13.81,23.27,13.81t23.38-14q8.94-14,8.93-36.21t-9-36.37Q340,47.94,325.5,47.94T302.23,62.15Z"/><path class="cls-6" d="M5.38,10.62H6.3v14.9H5.11V12L2.54,13.35l-.49-1Z"/><path class="cls-6" d="M17.89,12.57a9.18,9.18,0,0,1,1.57,5.51,9.2,9.2,0,0,1-1.57,5.51,4.68,4.68,0,0,1-7.92,0A9.24,9.24,0,0,1,8.4,18.07,9.22,9.22,0,0,1,10,12.55a4.68,4.68,0,0,1,7.91,0Zm-7,.76a8.84,8.84,0,0,0-1.17,4.8,8.9,8.9,0,0,0,1.16,4.78,3.51,3.51,0,0,0,6.18,0,8.83,8.83,0,0,0,1.18-4.79A8.89,8.89,0,0,0,17,13.28a3.48,3.48,0,0,0-6.16.05Z"/><path class="cls-6" d="M31.05,12.57a9.25,9.25,0,0,1,1.56,5.51,9.27,9.27,0,0,1-1.56,5.51,4.68,4.68,0,0,1-7.92,0,9.17,9.17,0,0,1-1.57-5.52,9.15,9.15,0,0,1,1.58-5.52,4.68,4.68,0,0,1,7.91,0Zm-7,.76a8.75,8.75,0,0,0-1.18,4.8A8.81,8.81,0,0,0,24,22.91a3.52,3.52,0,0,0,3.08,1.83,3.56,3.56,0,0,0,3.09-1.85,8.74,8.74,0,0,0,1.18-4.79,8.9,8.9,0,0,0-1.18-4.82,3.53,3.53,0,0,0-3.08-1.83A3.49,3.49,0,0,0,24,13.33Z"/><path class="cls-6" d="M44.2,12.57a9.18,9.18,0,0,1,1.57,5.51,9.2,9.2,0,0,1-1.57,5.51,4.68,4.68,0,0,1-7.92,0,9.24,9.24,0,0,1-1.56-5.52,9.21,9.21,0,0,1,1.57-5.52,4.68,4.68,0,0,1,7.91,0Zm-7,.76A8.84,8.84,0,0,0,36,18.13a8.9,8.9,0,0,0,1.16,4.78,3.51,3.51,0,0,0,6.18,0,8.74,8.74,0,0,0,1.18-4.79,8.89,8.89,0,0,0-1.19-4.82,3.48,3.48,0,0,0-6.16.05Z"/></svg>