<svg xmlns="http://www.w3.org/2000/svg" width="232.69" height="241.35" viewBox="0 0 232.69 241.35"><defs><style>.a{fill:#8e6549;}.b{fill:#a8795a;}.c{fill:#592d18;}.d{fill:#f4b489;}.e{fill:#875f44;}.f{isolation:isolate;}.g{fill:#f2b686;}</style></defs><title>5_v2</title><circle class="a" cx="116.35" cy="116.35" r="116.35"/><circle class="b" cx="116.35" cy="116.35" r="95.99"/><path class="c" d="M22.76,117.63A96,96,0,0,1,159.9,30.9a96,96,0,0,0-89.24,170c1.19.63,2.39,1.23,3.61,1.8A96,96,0,0,1,22.76,117.63Z"/><path class="d" d="M159.9,30.9A96,96,0,0,1,74.27,202.7a96,96,0,1,0,89.24-170C162.32,32.07,161.12,31.47,159.9,30.9Z"/><path class="e" d="M120.45,199.45a82.47,82.47,0,0,0,39.9-8.42,85.28,85.28,0,0,0,17.46-11.46,87,87,0,0,0,14.38-15.44,88,88,0,0,1-71.76,42.32Z"/><path class="c" d="M89.59,74.57H148v10H100.72L97,122.55q9.6-10.69,23.55-10.7A31.45,31.45,0,0,1,144,121.63q9.52,9.78,9.53,24.43,0,14.87-10.4,24.53t-26.81,9.67q-21.39,0-35.82-16.77l7.69-9.08q11.28,14.86,28.13,14.86,10.77,0,17.65-6.44a22,22,0,0,0,7-16.77q0-10.34-6.44-16.78t-16.41-6.51q-15.09,0-20.87,13l-12.82-5.12Z"/><g class="f"><path class="g" d="M88.5,73.48h58.37v10H99.63l-3.74,37.94q9.6-10.69,23.55-10.7a31.49,31.49,0,0,1,23.48,9.78q9.51,9.78,9.52,24.43,0,14.86-10.4,24.53t-26.81,9.67q-21.39,0-35.82-16.77l7.69-9.08q11.28,14.87,28.13,14.86,10.77,0,17.65-6.44a22,22,0,0,0,7-16.77q0-10.33-6.44-16.78t-16.41-6.51q-15.09,0-20.87,13l-12.82-5.12Z"/></g><path class="c" d="M115.18,52.27h-1.94l-2.09,7a14.2,14.2,0,0,1-3.25.29,11.92,11.92,0,0,1-3.8-.53l-.23-.4,10.68-32.59a29.89,29.89,0,0,1,4.43-.3,24.89,24.89,0,0,1,4.56.35L134,58.75a8,8,0,0,1-3.84.92,5.46,5.46,0,0,1-3.54-.88,7.09,7.09,0,0,1-1.75-3.35L124,52.23h-1.89Zm-.14-6.1,1.95-.05h5.29l-.84-3q-1.14-4.08-2.66-10h-.29q-.39,2.1-2.34,9.28Z"/><path class="g" d="M114.18,52.27h-1.94l-2.09,7a14.2,14.2,0,0,1-3.25.29,11.92,11.92,0,0,1-3.8-.53l-.23-.4,10.68-32.59a29.89,29.89,0,0,1,4.43-.3,24.89,24.89,0,0,1,4.56.35L133,58.75a8,8,0,0,1-3.84.92,5.46,5.46,0,0,1-3.54-.88,7.09,7.09,0,0,1-1.75-3.35L123,52.23h-1.89Zm-.14-6.1,1.95-.05h5.29l-.84-3q-1.14-4.08-2.66-10h-.29q-.39,2.1-2.34,9.28Z"/><path class="d" d="M112.54,206.45A87.58,87.58,0,0,1,71,194.1a92.22,92.22,0,0,1-9-6.1,94.8,94.8,0,0,1-8-7.12,87.8,87.8,0,0,1-13.2-16.73A87.25,87.25,0,0,0,72.64,191a82.47,82.47,0,0,0,39.9,8.42Z"/></svg>