<svg xmlns="http://www.w3.org/2000/svg" width="232.69" height="241.35" viewBox="0 0 232.69 241.35"><defs><style>.cls-1{isolation:isolate;}.cls-2{fill:#8e6549;}.cls-3{fill:#a8795a;}.cls-4,.cls-6,.cls-7{fill:#875f44;}.cls-4,.cls-7,.cls-9{mix-blend-mode:multiply;}.cls-5{fill:#f4b489;}.cls-7,.cls-8{font-size:150px;font-family:LarkeNeueBold-Bold, Larke Neue Bold;font-weight:700;}.cls-10,.cls-8{fill:#f2b686;}.cls-9{fill:#af7a56;}</style></defs><title>5</title><g class="cls-1"><g id="_5" data-name="5"><circle class="cls-2" cx="116.35" cy="116.35" r="116.35"/><circle class="cls-3" cx="116.35" cy="116.35" r="95.99"/><path class="cls-4" d="M22.76,117.63A96,96,0,0,1,159.9,30.9,96,96,0,1,0,74.27,202.7,96,96,0,0,1,22.76,117.63Z"/><path class="cls-5" d="M159.9,30.9A96,96,0,0,1,74.27,202.7,96,96,0,1,0,159.9,30.9Z"/><path class="cls-6" d="M120.45,199.45a82.48,82.48,0,0,0,39.9-8.42,85.39,85.39,0,0,0,17.46-11.46,86.75,86.75,0,0,0,14.38-15.44A87.39,87.39,0,0,1,179,180.86a87.83,87.83,0,0,1-17,13.24,87.62,87.62,0,0,1-41.57,12.35Z"/><text class="cls-7" transform="translate(70.18 178.43)">5</text><text class="cls-8" transform="translate(69.09 177.34)">5</text><path id="A" class="cls-9" d="M115.18,52.27c-.87,0-1.52,0-1.94,0l-2.09,7.05a14.36,14.36,0,0,1-3.25.29,11.77,11.77,0,0,1-3.8-.53l-.23-.4,10.68-32.59a30,30,0,0,1,4.43-.3,24.81,24.81,0,0,1,4.56.35L134,58.75a8,8,0,0,1-3.84.92,5.45,5.45,0,0,1-3.54-.88,7.1,7.1,0,0,1-1.75-3.35L124,52.23c-.41,0-1,0-1.89,0Zm-.14-6.1,1.95-.05h3.54c.16,0,.44,0,.85,0l.9,0-.84-3q-1.14-4.08-2.66-10h-.29q-.39,2.1-2.34,9.28Z"/><path id="A-2" data-name="A" class="cls-10" d="M114.18,52.27c-.87,0-1.52,0-1.94,0l-2.09,7.05a14.36,14.36,0,0,1-3.25.29,11.77,11.77,0,0,1-3.8-.53l-.23-.4,10.68-32.59a30,30,0,0,1,4.43-.3,24.81,24.81,0,0,1,4.56.35L133,58.75a8,8,0,0,1-3.84.92,5.45,5.45,0,0,1-3.54-.88,7.1,7.1,0,0,1-1.75-3.35L123,52.23c-.41,0-1,0-1.89,0Zm-.14-6.1,1.95-.05h3.54c.16,0,.44,0,.85,0l.9,0-.84-3q-1.14-4.08-2.66-10h-.29q-.39,2.1-2.34,9.28Z"/><path class="cls-5" d="M112.54,206.45A87.62,87.62,0,0,1,71,194.1,92.56,92.56,0,0,1,62.05,188a93.93,93.93,0,0,1-8-7.12,87.78,87.78,0,0,1-13.2-16.73,87.12,87.12,0,0,0,14.38,15.44A86.13,86.13,0,0,0,72.64,191a82.48,82.48,0,0,0,39.9,8.42Z"/></g></g></svg>