<svg xmlns="http://www.w3.org/2000/svg" width="224.02" height="233.7" viewBox="0 0 224.02 233.7"><defs><style>.a{fill:#af7a56;}.b{fill:#bf8862;}.c{fill:#65331b;}.d{fill:#f4b489;}.e{isolation:isolate;}.f{fill:#f2b686;}</style></defs><title>50_v2</title><path class="a" d="M0,86.27v61.16A17.9,17.9,0,0,0,3.42,158l35.94,49.48a18,18,0,0,0,9,6.5l58.17,18.9a17.86,17.86,0,0,0,11.06,0L175.75,214a18,18,0,0,0,9-6.5L220.6,158a17.91,17.91,0,0,0,3.4-10.57V86.27a17.91,17.91,0,0,0-3.42-10.52L184.65,26.28a17.9,17.9,0,0,0-9-6.51L117.54.88a17.86,17.86,0,0,0-11.06,0L48.31,19.77a18.06,18.06,0,0,0-9,6.51L3.42,75.75A17.91,17.91,0,0,0,0,86.27Z"/><path class="b" d="M9.59,88.89v55.92a16.37,16.37,0,0,0,3.12,9.62l32.87,45.25a16.45,16.45,0,0,0,8.19,5.94L107,222.9a16.35,16.35,0,0,0,10.12,0l53.18-17.28a16.45,16.45,0,0,0,8.19-5.94l32.87-45.25a16.37,16.37,0,0,0,3.12-9.62V88.89a16.37,16.37,0,0,0-3.12-9.62L178.44,34a16.35,16.35,0,0,0-8.19-6L117.07,10.8a16.35,16.35,0,0,0-10.12,0L53.77,28.08a16.31,16.31,0,0,0-8.19,6L12.71,79.27A16.37,16.37,0,0,0,9.59,88.89Z"/><path class="c" d="M19.35,117.68A96,96,0,0,1,156.49,31a96,96,0,0,0-90.4,169.39q2.34,1.25,4.76,2.37A96,96,0,0,1,19.35,117.68Z"/><path class="d" d="M156.49,31A96,96,0,0,1,70.85,202.76a96,96,0,0,0,90.4-169.39Q158.91,32.13,156.49,31Z"/><path class="c" d="M52.44,79.93h48.65v8.36H61.72l-3.11,31.62A25.35,25.35,0,0,1,78.23,111a26.24,26.24,0,0,1,19.56,8.15q7.93,8.14,7.94,20.35A26.7,26.7,0,0,1,97.06,160Q88.39,168,74.72,168q-17.82,0-29.85-14l6.41-7.57q9.4,12.39,23.44,12.39,9,0,14.71-5.37a18.31,18.31,0,0,0,5.86-14q0-8.59-5.37-14a18.38,18.38,0,0,0-13.67-5.44q-12.58,0-17.4,10.87l-10.68-4.27Z"/><path class="c" d="M175.49,91.28q9.52,12.59,9.52,32t-9.49,32.07Q166,168,151.5,168t-24-12.7q-9.51-12.69-9.52-32.07t9.52-32q9.53-12.66,24-12.66T175.49,91.28ZM135,97.88q-6.41,9.89-6.41,25.57T134.9,149q6.28,9.9,16.57,9.89T168.13,149q6.38-9.89,6.38-25.57t-6.38-25.67q-6.37-10-16.66-10T135,97.88Z"/><g class="e"><path class="f" d="M51.34,78.84H100V87.2H60.62l-3.11,31.62a25.35,25.35,0,0,1,19.62-8.91,26.24,26.24,0,0,1,19.56,8.15q7.94,8.14,7.94,20.35A26.7,26.7,0,0,1,96,158.86q-8.67,8.05-22.34,8.06-17.82,0-29.85-14l6.41-7.57q9.41,12.39,23.44,12.39,9,0,14.71-5.37a18.31,18.31,0,0,0,5.86-14q0-8.61-5.37-14A18.41,18.41,0,0,0,75.15,119q-12.58,0-17.4,10.87l-10.68-4.28Z"/><path class="f" d="M174.39,90.19q9.53,12.59,9.52,32t-9.49,32.07q-9.49,12.69-24,12.7t-24.05-12.7q-9.51-12.69-9.52-32.07t9.52-32.05q9.53-12.66,24.05-12.66T174.39,90.19Zm-40.47,6.6q-6.4,9.88-6.41,25.57t6.29,25.57q6.28,9.9,16.57,9.89T167,147.93q6.39-9.88,6.38-25.57T167,96.69q-6.37-10-16.66-10T133.92,96.79Z"/></g><path class="c" d="M111.77,52.32h-2l-2.08,7a14.28,14.28,0,0,1-3.26.29,11.9,11.9,0,0,1-3.79-.53l-.23-.4L111.14,26.1a29.66,29.66,0,0,1,4.42-.3,25,25,0,0,1,4.57.35L130.62,58.8a8,8,0,0,1-3.84.92,5.5,5.5,0,0,1-3.55-.88,7.09,7.09,0,0,1-1.75-3.35l-.92-3.21h-1.89Zm-.14-6.1h7.24l-.84-3q-1.16-4.08-2.66-10h-.3c-.26,1.39-1,4.48-2.33,9.27Z"/><path class="f" d="M110.77,52.32h-2l-2.08,7a14.28,14.28,0,0,1-3.26.29,11.9,11.9,0,0,1-3.79-.53l-.23-.4L110.14,26.1a29.66,29.66,0,0,1,4.42-.3,25,25,0,0,1,4.57.35L129.62,58.8a8,8,0,0,1-3.84.92,5.5,5.5,0,0,1-3.55-.88,7.09,7.09,0,0,1-1.75-3.35l-.92-3.21h-1.89Zm-.14-6.1h7.24l-.84-3q-1.16-4.08-2.66-10h-.3c-.26,1.39-1,4.48-2.33,9.27Z"/></svg>