<svg xmlns="http://www.w3.org/2000/svg" width="232.69" height="232.69" viewBox="0 0 232.69 232.69"><defs><style>.a{fill:#b5c7c9;}.b{fill:#bcb161;}.c{fill:#8b8449;}.d{fill:#eef5ff;}.e{fill:#dbd2af;}.f{isolation:isolate;}.g{fill:#d9d9d9;}.h{fill:#cfdfe2;}.i{fill:#a89b5a;}</style></defs><title>500_v2</title><circle class="a" cx="116.35" cy="116.35" r="116.35"/><circle class="b" cx="116.35" cy="116.35" r="95.99"/><path class="c" d="M23.68,118A96,96,0,0,1,160.82,31.27,96,96,0,0,0,72,201.48c1.06.55,2.13,1.09,3.21,1.6A96,96,0,0,1,23.68,118Z"/><path class="d" d="M160.82,31.27A96,96,0,0,1,75.19,203.08,96,96,0,0,0,164,32.87C163,32.32,161.9,31.78,160.82,31.27Z"/><path class="d" d="M115.19,206.45A87.69,87.69,0,0,1,73.62,194.1a91.66,91.66,0,0,1-8.91-6.1,93.86,93.86,0,0,1-8.06-7.12,87.8,87.8,0,0,1-13.2-16.73,87.34,87.34,0,0,0,14.38,15.44A86,86,0,0,0,75.29,191a82.47,82.47,0,0,0,39.9,8.42Z"/><path class="e" d="M120.45,199.45a82.47,82.47,0,0,0,39.9-8.42,85.28,85.28,0,0,0,17.46-11.46,87,87,0,0,0,14.38-15.44,88,88,0,0,1-71.76,42.32Z"/><g class="f"><path class="g" d="M43.48,87.5H79.13v6.13H50.28L48,116.81a18.56,18.56,0,0,1,14.38-6.54,19.25,19.25,0,0,1,14.34,6,20.55,20.55,0,0,1,5.81,14.92,19.53,19.53,0,0,1-6.35,15q-6.34,5.91-16.37,5.91-13.06,0-21.88-10.25l4.7-5.54q6.88,9.07,17.18,9.08a15.12,15.12,0,0,0,10.78-3.94,13.43,13.43,0,0,0,4.29-10.24A13.88,13.88,0,0,0,71,120.92a13.53,13.53,0,0,0-10-4q-9.23,0-12.75,8l-7.83-3.13Z"/><path class="g" d="M133.67,95.82q7,9.23,7,23.43t-7,23.5q-7,9.31-17.6,9.31t-17.63-9.31q-7-9.3-7-23.5t7-23.49q7-9.29,17.63-9.28T133.67,95.82ZM104,100.66q-4.7,7.25-4.7,18.74t4.61,18.75q4.6,7.24,12.14,7.24t12.22-7.24q4.66-7.26,4.67-18.75t-4.67-18.81q-4.68-7.32-12.22-7.32T104,100.66Z"/><path class="g" d="M191.78,95.82q7,9.23,7,23.43t-7,23.5q-6.95,9.31-17.6,9.31t-17.63-9.31q-7-9.3-7-23.5t7-23.49q7-9.29,17.63-9.28T191.78,95.82Zm-29.66,4.84q-4.69,7.25-4.7,18.74T162,138.15q4.6,7.24,12.15,7.24t12.21-7.24q4.68-7.26,4.67-18.75t-4.67-18.81q-4.68-7.32-12.21-7.32T162.12,100.66Z"/></g><g class="f"><path class="h" d="M43.48,86.5H79.13v6.13H50.28L48,115.81a18.56,18.56,0,0,1,14.38-6.54,19.25,19.25,0,0,1,14.34,6,20.55,20.55,0,0,1,5.81,14.92,19.53,19.53,0,0,1-6.35,15q-6.34,5.91-16.37,5.91-13.06,0-21.88-10.25l4.7-5.54q6.88,9.07,17.18,9.08a15.12,15.12,0,0,0,10.78-3.94,13.43,13.43,0,0,0,4.29-10.24A13.88,13.88,0,0,0,71,119.92a13.53,13.53,0,0,0-10-4q-9.23,0-12.75,8l-7.83-3.13Z"/><path class="h" d="M133.67,94.82q7,9.23,7,23.43t-7,23.5q-7,9.31-17.6,9.31t-17.63-9.31q-7-9.3-7-23.5t7-23.49q7-9.29,17.63-9.28T133.67,94.82ZM104,99.66q-4.7,7.25-4.7,18.74t4.61,18.75q4.6,7.24,12.14,7.24t12.22-7.24q4.66-7.26,4.67-18.75t-4.67-18.81q-4.68-7.32-12.22-7.32T104,99.66Z"/><path class="h" d="M191.78,94.82q7,9.23,7,23.43t-7,23.5q-6.95,9.31-17.6,9.31t-17.63-9.31q-7-9.3-7-23.5t7-23.49q7-9.29,17.63-9.28T191.78,94.82Zm-29.66,4.84q-4.69,7.25-4.7,18.74T162,137.15q4.6,7.24,12.15,7.24t12.21-7.24q4.68-7.26,4.67-18.75t-4.67-18.81q-4.68-7.32-12.21-7.32T162.12,99.66Z"/></g><path class="c" d="M116.11,52.65h-2L112,59.71a15.5,15.5,0,0,1-3.26.28,11.33,11.33,0,0,1-3.79-.53l-.24-.39,10.69-32.6a29.66,29.66,0,0,1,4.42-.29,24.88,24.88,0,0,1,4.56.34L135,59.12a8,8,0,0,1-3.84.92,5.5,5.5,0,0,1-3.55-.88,7,7,0,0,1-1.75-3.35l-.92-3.21H123ZM116,46.54h7.29l-.83-3q-1.15-4.08-2.66-10h-.3c-.26,1.39-1,4.48-2.34,9.28Z"/><path class="i" d="M115.11,52.65h-2L111,59.71a15.5,15.5,0,0,1-3.26.28,11.33,11.33,0,0,1-3.79-.53l-.24-.39,10.69-32.6a29.66,29.66,0,0,1,4.42-.29,24.88,24.88,0,0,1,4.56.34L134,59.12a8,8,0,0,1-3.84.92,5.5,5.5,0,0,1-3.55-.88,7,7,0,0,1-1.75-3.35l-.92-3.21H122ZM115,46.54h7.29l-.83-3q-1.15-4.08-2.66-10h-.3c-.26,1.39-1,4.48-2.34,9.28Z"/></svg>