<svg xmlns="http://www.w3.org/2000/svg" xmlns:xlink="http://www.w3.org/1999/xlink" width="403.73" height="199.23" viewBox="0 0 403.73 199.23"><defs><style>.cls-1{fill:none;}.cls-2{clip-path:url(#clip-path);}.cls-3{fill:#d38cbd;}.cls-4{fill:#bc71a9;}.cls-5{fill:#e8f4d9;}.cls-6{font-size:152.22px;}.cls-6,.cls-7{fill:#ececec;font-family:LarkeNeueThin-Thin, Larke Neue Thin;font-weight:200;}.cls-7{font-size:20.05px;}</style><clipPath id="clip-path"><rect class="cls-1" width="403.73" height="199.23"/></clipPath></defs><title>5000</title><g id="_5000" data-name="5000"><g class="cls-2"><rect class="cls-3" x="10" y="10" width="383.73" height="179.23" rx="2.27"/><path class="cls-4" d="M383.73,20V179.23H20V20H383.73m7.73-20H12.27A12.27,12.27,0,0,0,0,12.27V187a12.27,12.27,0,0,0,12.27,12.27H391.46A12.27,12.27,0,0,0,403.73,187V12.27A12.27,12.27,0,0,0,391.46,0Z"/><path class="cls-4" d="M0,53.49A53.49,53.49,0,0,0,53.49,0H0Z"/><path class="cls-4" d="M350.24,0a53.49,53.49,0,0,0,53.49,53.49V0Z"/><path class="cls-4" d="M403.73,145.74a53.49,53.49,0,0,0-53.49,53.49h53.49Z"/><path class="cls-4" d="M53.49,199.23A53.49,53.49,0,0,0,0,145.74v53.49Z"/><circle class="cls-5" cx="382.85" cy="178.05" r="19.37"/><path class="cls-4" d="M373.86,184.45a1.79,1.79,0,0,1,2.51-.24,11.23,11.23,0,0,0,6.55,2.64,7.41,7.41,0,0,0,4.28-1.27,3.1,3.1,0,0,0,1.48-2.47,2,2,0,0,0-.31-1.1,3.44,3.44,0,0,0-1-1,13.91,13.91,0,0,0-4.7-1.61h-.07a18.91,18.91,0,0,1-4.42-1.33,7.46,7.46,0,0,1-3.19-2.68,5.29,5.29,0,0,1-.79-2.81,6.31,6.31,0,0,1,2.75-5,10.1,10.1,0,0,1,5.93-1.82c3.29,0,5.72,1.61,7.47,2.74a1.76,1.76,0,0,1,.48,2.43,1.72,1.72,0,0,1-2.43.52c-1.75-1.17-3.43-2.2-5.52-2.2a6.49,6.49,0,0,0-3.84,1.17,2.73,2.73,0,0,0-1.31,2.16,1.67,1.67,0,0,0,.24,1,3.47,3.47,0,0,0,.93.89,11.66,11.66,0,0,0,4.29,1.51h.06a20.28,20.28,0,0,1,4.74,1.44,8,8,0,0,1,3.42,2.85,5.5,5.5,0,0,1,.83,2.91,6.64,6.64,0,0,1-2.95,5.31,10.69,10.69,0,0,1-6.34,2,14.81,14.81,0,0,1-8.78-3.43A1.82,1.82,0,0,1,373.86,184.45Z"/><path class="cls-4" d="M383.12,194a1.73,1.73,0,0,1-1.73-1.73V163.8a1.73,1.73,0,0,1,3.46,0v28.51A1.72,1.72,0,0,1,383.12,194Z"/></g><text class="cls-6" transform="translate(20.3 149.89)">5000</text><text class="cls-7" transform="translate(0.3 25.16)">5000</text></g></svg>