<svg xmlns="http://www.w3.org/2000/svg" xmlns:xlink="http://www.w3.org/1999/xlink" width="603" height="455" viewBox="0 0 603 455"><defs><style>.a{fill:none;}.b{fill:#f05023;}.c{clip-path:url(#a);}.d{fill:#b0bf79;}.e{fill:#9ba657;}.f{fill:#e8f4d9;}.g{fill:#ececec;}.h{clip-path:url(#b);}.i{clip-path:url(#c);}.j{clip-path:url(#d);}.k{fill:#f58220;}.l{fill:#b5c7c9;}.m{fill:#bcb161;}.n{fill:#d9d9d9;}.o{fill:#eef5ff;}.p{fill:#dbd2af;}.q{isolation:isolate;}.r{fill:#cfdfe2;}.s{fill:#bcbec0;}.t{fill:#a89b5a;}.u{fill:#9b935c;}.v{fill:#d1c671;}.w{fill:#777329;}.x{fill:#eae3b0;}.y{fill:#e0d8a2;}.z{fill:#a59956;}.aa{fill:#999367;}.ab{fill:#f9f2b2;}.ac{fill:#a39b62;}.ad{fill:#fff2b0;}.ae{fill:#af7a56;}.af{fill:#bf8862;}.ag{fill:#875f44;}.ah{fill:#f4b489;}.ai{fill:#f2b686;}.aj{fill:#bfbd60;}.ak{fill:#adadad;}.al{fill:#e0dfcd;}.am{fill:#fffef3;}.an{fill:#d3d2cd;}.ao{fill:#dcdfe0;}.ap{fill:#9b9a98;}</style><clipPath id="a"><rect class="a" x="29" y="21.76" width="157" height="77.48"/></clipPath><clipPath id="b"><rect class="a" x="29" y="134.76" width="157" height="77.48"/></clipPath><clipPath id="c"><rect class="a" x="29" y="240.76" width="157" height="77.48"/></clipPath><clipPath id="d"><rect class="a" x="29" y="347.76" width="157" height="77.48"/></clipPath></defs><title>equivalencia_monedas_2</title><path class="b" d="M243.71,55.07v2.29H221.25V55.07Zm0,10.48v2.3H221.25v-2.3Z"/><path class="b" d="M243.71,167.07v2.29H221.25v-2.29Zm0,10.48v2.3H221.25v-2.3Z"/><path class="b" d="M243.71,273.07v2.29H221.25v-2.29Zm0,10.48v2.3H221.25v-2.3Z"/><path class="b" d="M243.71,387.07v2.29H221.25v-2.29Zm0,10.48v2.3H221.25v-2.3Z"/><g class="c"><rect class="d" x="32.89" y="25.65" width="149.22" height="69.7" rx="0.88"/><path class="e" d="M178.22,29.54V91.46H36.78V29.54H178.22m3-7.78H33.77A4.78,4.78,0,0,0,29,26.53v68a4.77,4.77,0,0,0,4.77,4.77H181.23A4.77,4.77,0,0,0,186,94.48h0V26.53a4.78,4.78,0,0,0-4.77-4.77Z"/><path class="e" d="M29,42.56a20.8,20.8,0,0,0,20.8-20.8H29Z"/><path class="e" d="M165.2,21.76A20.8,20.8,0,0,0,186,42.56V21.76Z"/><path class="e" d="M186,78.44a20.8,20.8,0,0,0-20.8,20.8H186Z"/><path class="e" d="M49.8,99.24A20.8,20.8,0,0,0,29,78.44v20.8Z"/><circle class="f" cx="177.88" cy="91" r="7.53"/><path class="d" d="M174.38,93.49a.7.7,0,0,1,1-.09,4.42,4.42,0,0,0,2.55,1,2.88,2.88,0,0,0,1.66-.49,1.24,1.24,0,0,0,.58-1,.82.82,0,0,0-.12-.43,1.45,1.45,0,0,0-.39-.39,5.43,5.43,0,0,0-1.83-.62h0a7.94,7.94,0,0,1-1.72-.52,2.91,2.91,0,0,1-1.24-1,2,2,0,0,1-.3-1.1,2.42,2.42,0,0,1,1.07-1.94,3.93,3.93,0,0,1,2.3-.71,5.24,5.24,0,0,1,2.91,1.07.68.68,0,0,1,.18.94.67.67,0,0,1-.92.22l0,0a3.91,3.91,0,0,0-2.15-.85,2.56,2.56,0,0,0-1.49.45,1.06,1.06,0,0,0-.51.84.65.65,0,0,0,.09.39,1.33,1.33,0,0,0,.36.35,4.77,4.77,0,0,0,1.67.59h0a8,8,0,0,1,1.84.56,3.1,3.1,0,0,1,1.33,1.1,2.18,2.18,0,0,1,.32,1.14,2.54,2.54,0,0,1-1.15,2.06,4.09,4.09,0,0,1-2.46.78,5.82,5.82,0,0,1-3.42-1.33.71.71,0,0,1-.13-1Z"/><path class="d" d="M178,97.2a.67.67,0,0,1-.68-.67h0V85.46a.68.68,0,0,1,.68-.67.67.67,0,0,1,.67.67V96.55A.67.67,0,0,1,178,97.2Z"/></g><path class="g" d="M53.06,38h2.73V81.75h-3.5V42.08L44.73,46l-1.45-2.87Z"/><path class="g" d="M89.84,43.71q4.6,6.43,4.6,16.16t-4.6,16.21Q85.23,82.52,78.2,82.5T66.56,76.1Q62,69.68,62,59.87t4.63-16.22q4.64-6.37,11.61-6.36T89.84,43.71ZM69.23,45.93Q65.77,51.38,65.77,60T69.2,74.09q3.42,5.37,9,5.37T87.34,74q3.48-5.44,3.47-14.08t-3.5-14.15q-3.42-5.4-9-5.4c-3.75,0-6.76,1.85-9.06,5.54Z"/><path class="g" d="M128.5,43.71q4.6,6.43,4.6,16.16t-4.6,16.21q-4.62,6.45-11.64,6.44T105.22,76.1q-4.6-6.42-4.61-16.23t4.64-16.22q4.64-6.37,11.61-6.36T128.5,43.71Zm-20.61,2.22q-3.47,5.45-3.46,14.11t3.43,14.05q3.42,5.37,9,5.37T126,74q3.47-5.44,3.47-14.08T126,45.79q-3.42-5.4-9-5.4t-9,5.54Z"/><path class="g" d="M167.16,43.71q4.59,6.43,4.6,16.16t-4.6,16.21q-4.6,6.44-11.64,6.42t-11.65-6.4q-4.59-6.42-4.6-16.23t4.63-16.22q4.64-6.37,11.62-6.36T167.16,43.71Zm-20.62,2.22q-3.45,5.45-3.45,14.11t3.42,14.05q3.44,5.37,9.05,5.37T164.65,74q3.48-5.44,3.48-14.08t-3.5-14.15q-3.42-5.38-9-5.39t-9.05,5.53Z"/><path class="g" d="M31.09,25.89h.36v5.8H31V26.43L30,27l-.19-.39Z"/><path class="g" d="M36,26.65a3.61,3.61,0,0,1,.61,2.14A3.66,3.66,0,0,1,36,30.94a1.82,1.82,0,0,1-3.08,0,4.07,4.07,0,0,1,0-4.3,1.82,1.82,0,0,1,2.51-.56,1.67,1.67,0,0,1,.56.56Zm-2.73.3a3.45,3.45,0,0,0-.45,1.86,3.45,3.45,0,0,0,.45,1.86,1.37,1.37,0,0,0,1.85.56,1.35,1.35,0,0,0,.55-.56,3.37,3.37,0,0,0,.46-1.86,3.35,3.35,0,0,0-.48-1.88,1.35,1.35,0,0,0-1.83-.56,1.31,1.31,0,0,0-.56.58Z"/><path class="g" d="M41.07,26.65a3.54,3.54,0,0,1,.61,2.14,3.59,3.59,0,0,1-.61,2.15,1.82,1.82,0,0,1-2.51.57,1.94,1.94,0,0,1-.57-.57,3.66,3.66,0,0,1-.61-2.15A3.58,3.58,0,0,1,38,26.64a1.82,1.82,0,0,1,2.51-.56,1.67,1.67,0,0,1,.56.56Zm-2.72.3a3.37,3.37,0,0,0-.46,1.86,3.44,3.44,0,0,0,.44,1.86,1.36,1.36,0,0,0,2.4,0,3.37,3.37,0,0,0,.46-1.86,3.42,3.42,0,0,0-.46-1.87,1.35,1.35,0,0,0-2.4,0Z"/><path class="g" d="M46.19,26.65a3.54,3.54,0,0,1,.61,2.14,3.66,3.66,0,0,1-.61,2.15,1.82,1.82,0,0,1-3.08,0,3.59,3.59,0,0,1-.61-2.15,3.64,3.64,0,0,1,.61-2.15,1.82,1.82,0,0,1,2.51-.56,1.79,1.79,0,0,1,.57.56Zm-2.72.3A3.38,3.38,0,0,0,43,28.81a3.45,3.45,0,0,0,.45,1.86,1.37,1.37,0,0,0,1.85.56,1.35,1.35,0,0,0,.55-.56,3.37,3.37,0,0,0,.46-1.86,3.43,3.43,0,0,0-.46-1.88A1.36,1.36,0,0,0,44,26.38a1.42,1.42,0,0,0-.57.57Z"/><g class="h"><rect class="d" x="32.89" y="138.65" width="149.22" height="69.7" rx="0.88"/><path class="e" d="M178.22,142.54v61.92H36.78V142.54H178.22m3-7.78H33.77A4.78,4.78,0,0,0,29,139.53v67.95a4.77,4.77,0,0,0,4.77,4.77H181.23a4.77,4.77,0,0,0,4.77-4.77h0V139.53a4.78,4.78,0,0,0-4.77-4.77Z"/><path class="e" d="M29,155.56a20.8,20.8,0,0,0,20.8-20.8H29Z"/><path class="e" d="M165.2,134.76a20.8,20.8,0,0,0,20.8,20.8v-20.8Z"/><path class="e" d="M186,191.44a20.8,20.8,0,0,0-20.8,20.8H186Z"/><path class="e" d="M49.8,212.24A20.8,20.8,0,0,0,29,191.44v20.8Z"/><circle class="f" cx="177.88" cy="204" r="7.53"/><path class="d" d="M174.38,206.49a.7.7,0,0,1,1-.09,4.42,4.42,0,0,0,2.55,1,2.88,2.88,0,0,0,1.66-.49,1.24,1.24,0,0,0,.58-1,.82.82,0,0,0-.12-.43,1.45,1.45,0,0,0-.39-.39,5.43,5.43,0,0,0-1.83-.62h0a7.94,7.94,0,0,1-1.72-.52,2.91,2.91,0,0,1-1.24-1,2,2,0,0,1-.3-1.1,2.42,2.42,0,0,1,1.07-1.94,3.93,3.93,0,0,1,2.3-.71,5.24,5.24,0,0,1,2.91,1.07.68.68,0,0,1,.18.94.67.67,0,0,1-.92.22l0,0a3.91,3.91,0,0,0-2.15-.85,2.56,2.56,0,0,0-1.49.45,1.06,1.06,0,0,0-.51.84.65.65,0,0,0,.09.39,1.33,1.33,0,0,0,.36.35,4.77,4.77,0,0,0,1.67.59h0a8,8,0,0,1,1.84.56,3.1,3.1,0,0,1,1.33,1.1,2.18,2.18,0,0,1,.32,1.14,2.54,2.54,0,0,1-1.15,2.06,4.09,4.09,0,0,1-2.46.78,5.82,5.82,0,0,1-3.42-1.33.71.71,0,0,1-.13-1Z"/><path class="d" d="M178,210.2a.67.67,0,0,1-.68-.67h0V198.46a.68.68,0,0,1,.68-.67.67.67,0,0,1,.67.67v11.09A.67.67,0,0,1,178,210.2Z"/></g><path class="g" d="M53.06,151h2.73v43.78h-3.5V155.08L44.73,159l-1.45-2.87Z"/><path class="g" d="M89.84,156.71q4.6,6.43,4.6,16.16t-4.6,16.21q-4.61,6.43-11.64,6.42t-11.64-6.4Q62,182.68,62,172.87t4.63-16.22q4.64-6.37,11.61-6.36T89.84,156.71Zm-20.61,2.22q-3.47,5.44-3.46,14.11t3.43,14.05q3.42,5.37,9,5.37T87.34,187q3.48-5.45,3.47-14.08t-3.5-14.15q-3.42-5.4-9-5.4c-3.75,0-6.76,1.85-9.06,5.54Z"/><path class="g" d="M128.5,156.71q4.6,6.43,4.6,16.16t-4.6,16.21q-4.62,6.45-11.64,6.44t-11.64-6.42q-4.6-6.42-4.61-16.23t4.64-16.22q4.64-6.37,11.61-6.36T128.5,156.71Zm-20.61,2.22q-3.47,5.44-3.46,14.11t3.43,14.05q3.42,5.37,9,5.37T126,187q3.47-5.45,3.47-14.08T126,158.79q-3.42-5.4-9-5.4t-9,5.54Z"/><path class="g" d="M167.16,156.71q4.59,6.43,4.6,16.16t-4.6,16.21q-4.6,6.43-11.64,6.42t-11.65-6.4q-4.59-6.42-4.6-16.23t4.63-16.22q4.64-6.37,11.62-6.36T167.16,156.71Zm-20.62,2.22q-3.45,5.44-3.45,14.11t3.42,14.05q3.44,5.37,9.05,5.37t9.09-5.44q3.48-5.45,3.48-14.08t-3.5-14.15q-3.42-5.39-9-5.39t-9.05,5.53Z"/><path class="g" d="M31.09,138.89h.36v5.8H31v-5.26L30,140l-.19-.39Z"/><path class="g" d="M36,139.65a3.61,3.61,0,0,1,.61,2.14,3.66,3.66,0,0,1-.61,2.15,1.82,1.82,0,0,1-3.08,0,4.07,4.07,0,0,1,0-4.3,1.82,1.82,0,0,1,2.51-.56,1.67,1.67,0,0,1,.56.56Zm-2.73.3a4.07,4.07,0,0,0,0,3.72,1.37,1.37,0,0,0,1.85.56,1.35,1.35,0,0,0,.55-.56,4,4,0,0,0,0-3.74,1.35,1.35,0,0,0-1.83-.56,1.31,1.31,0,0,0-.56.58Z"/><path class="g" d="M41.07,139.65a3.54,3.54,0,0,1,.61,2.14,3.59,3.59,0,0,1-.61,2.15,1.82,1.82,0,0,1-2.51.57,1.94,1.94,0,0,1-.57-.57,3.66,3.66,0,0,1-.61-2.15,3.58,3.58,0,0,1,.62-2.15,1.82,1.82,0,0,1,2.51-.56,1.67,1.67,0,0,1,.56.56Zm-2.72.3a3.37,3.37,0,0,0-.46,1.86,3.44,3.44,0,0,0,.44,1.86,1.36,1.36,0,0,0,2.4,0,3.37,3.37,0,0,0,.46-1.86,3.42,3.42,0,0,0-.46-1.87,1.35,1.35,0,0,0-2.4,0Z"/><path class="g" d="M46.19,139.65a3.54,3.54,0,0,1,.61,2.14,3.66,3.66,0,0,1-.61,2.15,1.82,1.82,0,0,1-3.08,0,3.59,3.59,0,0,1-.61-2.15,3.64,3.64,0,0,1,.61-2.15,1.82,1.82,0,0,1,2.51-.56,1.79,1.79,0,0,1,.57.56Zm-2.72.3a3.38,3.38,0,0,0-.47,1.86,3.45,3.45,0,0,0,.45,1.86,1.37,1.37,0,0,0,1.85.56,1.35,1.35,0,0,0,.55-.56,3.37,3.37,0,0,0,.46-1.86,3.43,3.43,0,0,0-.46-1.88,1.36,1.36,0,0,0-1.83-.55,1.42,1.42,0,0,0-.57.57Z"/><g class="i"><rect class="d" x="32.89" y="244.65" width="149.22" height="69.7" rx="0.88"/><path class="e" d="M178.22,248.54v61.92H36.78V248.54H178.22m3-7.78H33.77A4.78,4.78,0,0,0,29,245.53v68a4.77,4.77,0,0,0,4.77,4.77H181.23a4.77,4.77,0,0,0,4.77-4.77h0v-68a4.78,4.78,0,0,0-4.77-4.77Z"/><path class="e" d="M29,261.56a20.8,20.8,0,0,0,20.8-20.8H29Z"/><path class="e" d="M165.2,240.76a20.8,20.8,0,0,0,20.8,20.8v-20.8Z"/><path class="e" d="M186,297.44a20.8,20.8,0,0,0-20.8,20.8H186Z"/><path class="e" d="M49.8,318.24A20.8,20.8,0,0,0,29,297.44v20.8Z"/><circle class="f" cx="177.88" cy="310" r="7.53"/><path class="d" d="M174.38,312.49a.7.7,0,0,1,1-.09,4.42,4.42,0,0,0,2.55,1,2.88,2.88,0,0,0,1.66-.49,1.24,1.24,0,0,0,.58-1,.82.82,0,0,0-.12-.43,1.45,1.45,0,0,0-.39-.39,5.43,5.43,0,0,0-1.83-.62h0a7.94,7.94,0,0,1-1.72-.52,2.91,2.91,0,0,1-1.24-1,2,2,0,0,1-.3-1.1,2.42,2.42,0,0,1,1.07-1.94,3.93,3.93,0,0,1,2.3-.71,5.24,5.24,0,0,1,2.91,1.07.68.68,0,0,1,.18.94.67.67,0,0,1-.92.22l0,0a3.91,3.91,0,0,0-2.15-.85,2.56,2.56,0,0,0-1.49.45,1.06,1.06,0,0,0-.51.84.65.65,0,0,0,.09.39,1.33,1.33,0,0,0,.36.35,4.77,4.77,0,0,0,1.67.59h0a8,8,0,0,1,1.84.56,3.1,3.1,0,0,1,1.33,1.1,2.18,2.18,0,0,1,.32,1.14,2.54,2.54,0,0,1-1.15,2.06,4.09,4.09,0,0,1-2.46.78,5.82,5.82,0,0,1-3.42-1.33.71.71,0,0,1-.13-1Z"/><path class="d" d="M178,316.2a.67.67,0,0,1-.68-.67h0V304.46a.68.68,0,0,1,.68-.67.67.67,0,0,1,.67.67v11.09A.67.67,0,0,1,178,316.2Z"/></g><path class="g" d="M53.06,257h2.73v43.78h-3.5V261.08L44.73,265l-1.45-2.87Z"/><path class="g" d="M89.84,262.71q4.6,6.44,4.6,16.16t-4.6,16.21q-4.61,6.44-11.64,6.42t-11.64-6.4Q62,288.68,62,278.87t4.63-16.22q4.64-6.37,11.61-6.36T89.84,262.71Zm-20.61,2.22q-3.47,5.44-3.46,14.11t3.43,14q3.42,5.37,9,5.37T87.34,293q3.48-5.44,3.47-14.08t-3.5-14.15q-3.42-5.4-9-5.4c-3.75,0-6.76,1.85-9.06,5.54Z"/><path class="g" d="M128.5,262.71q4.6,6.44,4.6,16.16t-4.6,16.21q-4.62,6.45-11.64,6.44t-11.64-6.42q-4.6-6.42-4.61-16.23t4.64-16.22q4.64-6.37,11.61-6.36T128.5,262.71Zm-20.61,2.22q-3.47,5.44-3.46,14.11t3.43,14q3.42,5.37,9,5.37T126,293q3.47-5.44,3.47-14.08T126,264.79q-3.42-5.4-9-5.4t-9,5.54Z"/><path class="g" d="M167.16,262.71q4.59,6.44,4.6,16.16t-4.6,16.21q-4.6,6.44-11.64,6.42t-11.65-6.4q-4.59-6.42-4.6-16.23t4.63-16.22q4.64-6.37,11.62-6.36T167.16,262.71Zm-20.62,2.22q-3.45,5.44-3.45,14.11t3.42,14q3.44,5.37,9.05,5.37t9.09-5.44q3.48-5.44,3.48-14.08t-3.5-14.15q-3.42-5.39-9-5.39t-9.05,5.53Z"/><path class="g" d="M31.09,244.89h.36v5.8H31v-5.26L30,246l-.19-.39Z"/><path class="g" d="M36,245.65a3.61,3.61,0,0,1,.61,2.14,3.66,3.66,0,0,1-.61,2.15,1.82,1.82,0,0,1-3.08,0,4.07,4.07,0,0,1,0-4.3,1.82,1.82,0,0,1,2.51-.56,1.67,1.67,0,0,1,.56.56Zm-2.73.3a4.07,4.07,0,0,0,0,3.72,1.37,1.37,0,0,0,1.85.56,1.35,1.35,0,0,0,.55-.56,4,4,0,0,0,0-3.74,1.35,1.35,0,0,0-1.83-.56,1.31,1.31,0,0,0-.56.58Z"/><path class="g" d="M41.07,245.65a3.54,3.54,0,0,1,.61,2.14,3.59,3.59,0,0,1-.61,2.15,1.82,1.82,0,0,1-2.51.57,1.94,1.94,0,0,1-.57-.57,3.66,3.66,0,0,1-.61-2.15,3.58,3.58,0,0,1,.62-2.15,1.82,1.82,0,0,1,2.51-.56,1.67,1.67,0,0,1,.56.56Zm-2.72.3a3.37,3.37,0,0,0-.46,1.86,3.44,3.44,0,0,0,.44,1.86,1.36,1.36,0,0,0,2.4,0,3.37,3.37,0,0,0,.46-1.86,3.42,3.42,0,0,0-.46-1.87,1.35,1.35,0,0,0-2.4,0Z"/><path class="g" d="M46.19,245.65a3.54,3.54,0,0,1,.61,2.14,3.66,3.66,0,0,1-.61,2.15,1.82,1.82,0,0,1-3.08,0,3.59,3.59,0,0,1-.61-2.15,3.64,3.64,0,0,1,.61-2.15,1.82,1.82,0,0,1,2.51-.56,1.79,1.79,0,0,1,.57.56Zm-2.72.3a3.38,3.38,0,0,0-.47,1.86,3.45,3.45,0,0,0,.45,1.86,1.37,1.37,0,0,0,1.85.56,1.35,1.35,0,0,0,.55-.56,3.37,3.37,0,0,0,.46-1.86,3.43,3.43,0,0,0-.46-1.88,1.36,1.36,0,0,0-1.83-.55,1.42,1.42,0,0,0-.57.57Z"/><g class="j"><rect class="d" x="32.89" y="351.65" width="149.22" height="69.7" rx="0.88"/><path class="e" d="M178.22,355.54v61.92H36.78V355.54H178.22m3-7.78H33.77A4.78,4.78,0,0,0,29,352.53v68a4.77,4.77,0,0,0,4.77,4.77H181.23a4.77,4.77,0,0,0,4.77-4.77h0v-68a4.78,4.78,0,0,0-4.77-4.77Z"/><path class="e" d="M29,368.56a20.8,20.8,0,0,0,20.8-20.8H29Z"/><path class="e" d="M165.2,347.76a20.8,20.8,0,0,0,20.8,20.8v-20.8Z"/><path class="e" d="M186,404.44a20.8,20.8,0,0,0-20.8,20.8H186Z"/><path class="e" d="M49.8,425.24A20.8,20.8,0,0,0,29,404.44v20.8Z"/><circle class="f" cx="177.88" cy="417" r="7.53"/><path class="d" d="M174.38,419.49a.7.7,0,0,1,1-.09,4.42,4.42,0,0,0,2.55,1,2.88,2.88,0,0,0,1.66-.49,1.24,1.24,0,0,0,.58-1,.82.82,0,0,0-.12-.43,1.45,1.45,0,0,0-.39-.39,5.43,5.43,0,0,0-1.83-.62h0a7.94,7.94,0,0,1-1.72-.52,2.91,2.91,0,0,1-1.24-1,2,2,0,0,1-.3-1.1,2.42,2.42,0,0,1,1.07-1.94,3.93,3.93,0,0,1,2.3-.71,5.24,5.24,0,0,1,2.91,1.07.68.68,0,0,1,.18.94.67.67,0,0,1-.92.22l0,0a3.91,3.91,0,0,0-2.15-.85,2.56,2.56,0,0,0-1.49.45,1.06,1.06,0,0,0-.51.84.65.65,0,0,0,.09.39,1.33,1.33,0,0,0,.36.35,4.77,4.77,0,0,0,1.67.59h0a8,8,0,0,1,1.84.56,3.1,3.1,0,0,1,1.33,1.1,2.18,2.18,0,0,1,.32,1.14,2.54,2.54,0,0,1-1.15,2.06,4.09,4.09,0,0,1-2.46.78,5.82,5.82,0,0,1-3.42-1.33.71.71,0,0,1-.13-1Z"/><path class="d" d="M178,423.2a.67.67,0,0,1-.68-.67h0V411.46a.68.68,0,0,1,.68-.67.67.67,0,0,1,.67.67v11.09A.67.67,0,0,1,178,423.2Z"/></g><path class="g" d="M53.06,364h2.73v43.78h-3.5V368.08L44.73,372l-1.45-2.87Z"/><path class="g" d="M89.84,369.71q4.6,6.44,4.6,16.16t-4.6,16.21q-4.61,6.44-11.64,6.42t-11.64-6.4Q62,395.68,62,385.87t4.63-16.22q4.64-6.37,11.61-6.36T89.84,369.71Zm-20.61,2.22q-3.47,5.44-3.46,14.11t3.43,14q3.42,5.37,9,5.37T87.34,400q3.48-5.44,3.47-14.08t-3.5-14.15q-3.42-5.4-9-5.4c-3.75,0-6.76,1.85-9.06,5.54Z"/><path class="g" d="M128.5,369.71q4.6,6.44,4.6,16.16t-4.6,16.21q-4.62,6.45-11.64,6.44t-11.64-6.42q-4.6-6.42-4.61-16.23t4.64-16.22q4.64-6.37,11.61-6.36T128.5,369.71Zm-20.61,2.22q-3.47,5.44-3.46,14.11t3.43,14q3.42,5.37,9,5.37T126,400q3.47-5.44,3.47-14.08T126,371.79q-3.42-5.4-9-5.4t-9,5.54Z"/><path class="g" d="M167.16,369.71q4.59,6.44,4.6,16.16t-4.6,16.21q-4.6,6.44-11.64,6.42t-11.65-6.4q-4.59-6.42-4.6-16.23t4.63-16.22q4.64-6.37,11.62-6.36T167.16,369.71Zm-20.62,2.22q-3.45,5.44-3.45,14.11t3.42,14q3.44,5.37,9.05,5.37t9.09-5.44q3.48-5.44,3.48-14.08t-3.5-14.15q-3.42-5.39-9-5.39t-9.05,5.53Z"/><path class="g" d="M31.09,351.89h.36v5.8H31v-5.26L30,353l-.19-.39Z"/><path class="g" d="M36,352.65a3.61,3.61,0,0,1,.61,2.14,3.66,3.66,0,0,1-.61,2.15,1.82,1.82,0,0,1-3.08,0,4.07,4.07,0,0,1,0-4.3,1.82,1.82,0,0,1,2.51-.56,1.67,1.67,0,0,1,.56.56Zm-2.73.3a4.07,4.07,0,0,0,0,3.72,1.37,1.37,0,0,0,1.85.56,1.35,1.35,0,0,0,.55-.56,4,4,0,0,0,0-3.74,1.35,1.35,0,0,0-1.83-.56,1.31,1.31,0,0,0-.56.58Z"/><path class="g" d="M41.07,352.65a3.54,3.54,0,0,1,.61,2.14,3.59,3.59,0,0,1-.61,2.15,1.82,1.82,0,0,1-2.51.57,1.94,1.94,0,0,1-.57-.57,3.66,3.66,0,0,1-.61-2.15,3.58,3.58,0,0,1,.62-2.15,1.82,1.82,0,0,1,2.51-.56,1.67,1.67,0,0,1,.56.56Zm-2.72.3a3.37,3.37,0,0,0-.46,1.86,3.44,3.44,0,0,0,.44,1.86,1.36,1.36,0,0,0,2.4,0,3.37,3.37,0,0,0,.46-1.86,3.42,3.42,0,0,0-.46-1.87,1.35,1.35,0,0,0-2.4,0Z"/><path class="g" d="M46.19,352.65a3.54,3.54,0,0,1,.61,2.14,3.66,3.66,0,0,1-.61,2.15,1.82,1.82,0,0,1-3.08,0,3.59,3.59,0,0,1-.61-2.15,3.64,3.64,0,0,1,.61-2.15,1.82,1.82,0,0,1,2.51-.56,1.79,1.79,0,0,1,.57.56Zm-2.72.3a3.38,3.38,0,0,0-.47,1.86,3.45,3.45,0,0,0,.45,1.86,1.37,1.37,0,0,0,1.85.56,1.35,1.35,0,0,0,.55-.56,3.37,3.37,0,0,0,.46-1.86,3.43,3.43,0,0,0-.46-1.88,1.36,1.36,0,0,0-1.83-.55,1.42,1.42,0,0,0-.57.57Z"/><path class="k" d="M294.15,46.5A7.82,7.82,0,0,1,300,48.61a6.94,6.94,0,0,1,2.07,5,8.83,8.83,0,0,1-1.48,4.7A38,38,0,0,1,296.7,63l-6.86,7h12.22v1.78H287v-1.6L294.85,62a35.62,35.62,0,0,0,3.78-4.41,7,7,0,0,0,1.3-4,5,5,0,0,0-1.53-3.75,5.8,5.8,0,0,0-4.25-1.5,8.62,8.62,0,0,0-5.78,2.26l-1.16-1.52A10.27,10.27,0,0,1,294.15,46.5Z"/><path class="k" d="M324.81,53.6a5.87,5.87,0,0,1,3.56,1.07,5.7,5.7,0,0,1,2.06,3.06c1.49-2.75,3.63-4.13,6.44-4.13a5.52,5.52,0,0,1,4.39,1.86,7.7,7.7,0,0,1,1.62,5.21V71.78H341V60.28a5.28,5.28,0,0,0-1.14-3.54,4,4,0,0,0-3.24-1.35,5.63,5.63,0,0,0-4,1.71,6,6,0,0,0-1.78,4.53V71.78h-1.9V60.28a5.32,5.32,0,0,0-1.12-3.55,4,4,0,0,0-3.24-1.34,5.66,5.66,0,0,0-4,1.71,6,6,0,0,0-1.78,4.53V71.78h-1.89V54h1.89v3.29A6.8,6.8,0,0,1,324.81,53.6Z"/><path class="k" d="M361.42,56.27a9.49,9.49,0,0,1,2.41,6.66,9.52,9.52,0,0,1-2.38,6.66,8.31,8.31,0,0,1-12.13,0,9.49,9.49,0,0,1-2.4-6.66,9.57,9.57,0,0,1,2.4-6.67,7.84,7.84,0,0,1,6.07-2.64A7.69,7.69,0,0,1,361.42,56.27Zm-10.7,1.25a8,8,0,0,0-1.81,5.41,8,8,0,0,0,1.81,5.41,6.23,6.23,0,0,0,9.33,0,8,8,0,0,0,1.79-5.41,8,8,0,0,0-1.79-5.42,6.22,6.22,0,0,0-9.33,0Z"/><path class="k" d="M376.4,53.6a6.2,6.2,0,0,1,4.7,1.89,7.21,7.21,0,0,1,1.8,5.18V71.78H381V60.28a4.78,4.78,0,0,0-1.36-3.51,4.73,4.73,0,0,0-3.52-1.38,6.23,6.23,0,0,0-4.24,1.72A5.74,5.74,0,0,0,370,61.63V71.78h-1.9V54H370v3.29a7.84,7.84,0,0,1,2.55-2.62A6.87,6.87,0,0,1,376.4,53.6Z"/><path class="k" d="M401.43,56.25a9.55,9.55,0,0,1,2.41,6.68,6.54,6.54,0,0,1,0,.88H389a7.18,7.18,0,0,0,2.17,4.8A6.72,6.72,0,0,0,396,70.44a6.43,6.43,0,0,0,5.43-2.36l1.75.76A8.27,8.27,0,0,1,396,72.22a8.55,8.55,0,0,1-6.56-2.61A9.35,9.35,0,0,1,387,62.93a9.68,9.68,0,0,1,2.35-6.62,7.69,7.69,0,0,1,6.08-2.69A7.83,7.83,0,0,1,401.43,56.25ZM390.9,57.31a7.57,7.57,0,0,0-2,4.9h12.9a7.78,7.78,0,0,0-2-4.92,5.92,5.92,0,0,0-4.49-1.88A5.81,5.81,0,0,0,390.9,57.31Z"/><path class="k" d="M422.38,46.85h1.9V71.78h-1.9V68.23a8.09,8.09,0,0,1-2.86,2.92,7.61,7.61,0,0,1-4,1.07,7.51,7.51,0,0,1-5.87-2.63,9.72,9.72,0,0,1-2.32-6.66,9.8,9.8,0,0,1,2.32-6.67,7.49,7.49,0,0,1,5.87-2.64,7.6,7.6,0,0,1,4,1.06,8.12,8.12,0,0,1,2.86,2.93ZM411.12,57.52a7.84,7.84,0,0,0-1.85,5.41,7.94,7.94,0,0,0,1.82,5.41,6.44,6.44,0,0,0,9.52,0,8,8,0,0,0,1.83-5.41,8,8,0,0,0-1.83-5.42,6,6,0,0,0-4.77-2.1A5.88,5.88,0,0,0,411.12,57.52Z"/><path class="k" d="M436.69,53.62a7.54,7.54,0,0,1,4,1.06,8.15,8.15,0,0,1,2.87,2.93V54h1.9V71.78h-1.9V68.23a8.12,8.12,0,0,1-2.87,2.92,7.88,7.88,0,0,1-9.84-1.56,9.67,9.67,0,0,1-2.32-6.66,9.75,9.75,0,0,1,2.32-6.67A7.48,7.48,0,0,1,436.69,53.62Zm-4.43,3.9a7.93,7.93,0,0,0-1.83,5.41,8,8,0,0,0,1.82,5.41,6.43,6.43,0,0,0,9.51,0,7.9,7.9,0,0,0,1.84-5.41,7.91,7.91,0,0,0-1.84-5.42,6,6,0,0,0-4.76-2.1A5.94,5.94,0,0,0,432.26,57.52Z"/><path class="k" d="M456.24,53.6a8.77,8.77,0,0,1,5.92,2.27l-1.11,1.46a6.77,6.77,0,0,0-2.3-1.55,6.93,6.93,0,0,0-2.51-.47,4.9,4.9,0,0,0-3,.89,2.63,2.63,0,0,0-.95,2.17,2.41,2.41,0,0,0,1.21,2.16,16.94,16.94,0,0,0,3.38,1.26,14.38,14.38,0,0,1,3.83,1.57,4.32,4.32,0,0,1,1.95,3.79,4.48,4.48,0,0,1-1.83,3.71,7,7,0,0,1-4.55,1.37,9.91,9.91,0,0,1-3.55-.61,8.85,8.85,0,0,1-3-2l1.16-1.49A7.08,7.08,0,0,0,453.34,70a7.57,7.57,0,0,0,2.9.56,5.39,5.39,0,0,0,3.23-.9,3.1,3.1,0,0,0,1.22-2.48,2.49,2.49,0,0,0-1.23-2.35,16.21,16.21,0,0,0-3.34-1.27A16.44,16.44,0,0,1,452.28,62a4.26,4.26,0,0,1-2-3.61A4.12,4.12,0,0,1,451.84,55,6.84,6.84,0,0,1,456.24,53.6Z"/><path class="k" d="M287.33,158.85h1.55v24.93h-2V161.19l-4.31,2.23-.82-1.63Z"/><path class="k" d="M308.27,162.12a17.59,17.59,0,0,1,0,18.44,7.84,7.84,0,0,1-13.26,0,17.55,17.55,0,0,1,0-18.48,7.84,7.84,0,0,1,13.24,0Zm-11.75,1.27a17.33,17.33,0,0,0,0,16,5.88,5.88,0,0,0,5.15,3.06,6,6,0,0,0,5.17-3.1,17.23,17.23,0,0,0,0-16.06,5.81,5.81,0,0,0-10.3.07Z"/><path class="k" d="M333.63,165.6a5.88,5.88,0,0,1,3.57,1.07,5.76,5.76,0,0,1,2.06,3.06c1.48-2.75,3.63-4.13,6.43-4.13a5.5,5.5,0,0,1,4.39,1.86,7.7,7.7,0,0,1,1.62,5.21v11.11h-1.9v-11.5a5.28,5.28,0,0,0-1.14-3.54,4,4,0,0,0-3.23-1.35,5.66,5.66,0,0,0-4,1.71,6,6,0,0,0-1.78,4.53v10.15h-1.89v-11.5a5.32,5.32,0,0,0-1.13-3.55,4,4,0,0,0-3.23-1.34,5.7,5.7,0,0,0-4.05,1.71,6,6,0,0,0-1.77,4.53v10.15h-1.9V166h1.9v3.29A6.78,6.78,0,0,1,333.63,165.6Z"/><path class="k" d="M370.25,168.27a10.47,10.47,0,0,1,0,13.32,8.31,8.31,0,0,1-12.13,0,10.45,10.45,0,0,1,0-13.33,7.86,7.86,0,0,1,6.08-2.64A7.69,7.69,0,0,1,370.25,168.27Zm-10.71,1.25a9,9,0,0,0,0,10.82,5.9,5.9,0,0,0,4.68,2.1,5.81,5.81,0,0,0,4.65-2.1,9,9,0,0,0,0-10.83,5.81,5.81,0,0,0-4.65-2.1A5.88,5.88,0,0,0,359.54,169.52Z"/><path class="k" d="M385.22,165.6a6.18,6.18,0,0,1,4.7,1.89,7.17,7.17,0,0,1,1.81,5.18v11.11h-1.9v-11.5a4.82,4.82,0,0,0-1.36-3.51,4.75,4.75,0,0,0-3.53-1.38,6.21,6.21,0,0,0-4.23,1.72,5.75,5.75,0,0,0-1.94,4.52v10.15h-1.9V166h1.9v3.29a8,8,0,0,1,2.55-2.62A6.87,6.87,0,0,1,385.22,165.6Z"/><path class="k" d="M410.25,168.25a9.55,9.55,0,0,1,2.41,6.68c0,.39,0,.68,0,.88H397.77a7.22,7.22,0,0,0,2.17,4.8,6.76,6.76,0,0,0,4.83,1.83,6.43,6.43,0,0,0,5.43-2.36l1.76.76a8.29,8.29,0,0,1-7.19,3.38,8.56,8.56,0,0,1-6.56-2.61,9.35,9.35,0,0,1-2.44-6.68,9.68,9.68,0,0,1,2.35-6.62,7.71,7.71,0,0,1,6.09-2.69A7.82,7.82,0,0,1,410.25,168.25Zm-10.53,1.06a7.51,7.51,0,0,0-2,4.9h12.9a7.73,7.73,0,0,0-2-4.92,6.25,6.25,0,0,0-9,0Z"/><path class="k" d="M431.21,158.85h1.9v24.93h-1.9v-3.55a8.12,8.12,0,0,1-2.87,2.92,7.57,7.57,0,0,1-4,1.07,7.49,7.49,0,0,1-5.87-2.63,10.73,10.73,0,0,1,0-13.33,7.46,7.46,0,0,1,5.87-2.64,7.56,7.56,0,0,1,4,1.06,8.15,8.15,0,0,1,2.87,2.93Zm-11.27,10.67a7.89,7.89,0,0,0-1.85,5.41,8,8,0,0,0,1.82,5.41,6.44,6.44,0,0,0,9.52,0,8.93,8.93,0,0,0,0-10.83,6,6,0,0,0-4.76-2.1A5.88,5.88,0,0,0,419.94,169.52Z"/><path class="k" d="M445.52,165.62a7.59,7.59,0,0,1,4,1.06,8.12,8.12,0,0,1,2.86,2.93V166h1.9v17.74h-1.9v-3.55a8.09,8.09,0,0,1-2.86,2.92,7.6,7.6,0,0,1-4,1.07,7.52,7.52,0,0,1-5.88-2.63,10.73,10.73,0,0,1,0-13.33A7.5,7.5,0,0,1,445.52,165.62Zm-4.43,3.9a8.93,8.93,0,0,0,0,10.82,6,6,0,0,0,4.74,2.1,6.06,6.06,0,0,0,4.77-2.1,8.93,8.93,0,0,0,0-10.83,6.06,6.06,0,0,0-4.77-2.1A5.91,5.91,0,0,0,441.09,169.52Z"/><path class="k" d="M465.06,165.6a8.77,8.77,0,0,1,3.1.55,8.61,8.61,0,0,1,2.83,1.72l-1.11,1.46a6.58,6.58,0,0,0-4.82-2,4.92,4.92,0,0,0-3,.89,2.66,2.66,0,0,0-.95,2.17,2.42,2.42,0,0,0,1.22,2.16,16.76,16.76,0,0,0,3.37,1.26,14.09,14.09,0,0,1,3.83,1.57,4.32,4.32,0,0,1,1.95,3.79,4.49,4.49,0,0,1-1.82,3.71,7,7,0,0,1-4.56,1.37,9.91,9.91,0,0,1-3.55-.61,8.85,8.85,0,0,1-3-2l1.16-1.49a7.17,7.17,0,0,0,2.53,1.81,7.57,7.57,0,0,0,2.9.56,5.42,5.42,0,0,0,3.24-.9,3.09,3.09,0,0,0,1.21-2.48,2.49,2.49,0,0,0-1.23-2.35,16,16,0,0,0-3.34-1.27,16.3,16.3,0,0,1-3.83-1.49,4.25,4.25,0,0,1-2-3.61,4.1,4.1,0,0,1,1.57-3.46A6.8,6.8,0,0,1,465.06,165.6Z"/><path class="k" d="M289.15,265.5a7.82,7.82,0,0,1,5.84,2.11,6.94,6.94,0,0,1,2.07,5,8.83,8.83,0,0,1-1.48,4.7,38,38,0,0,1-3.88,4.6L284.84,289h12.22v1.78H282v-1.6l7.87-8.23a36.54,36.54,0,0,0,3.78-4.41,7,7,0,0,0,1.3-4,5,5,0,0,0-1.53-3.75,5.8,5.8,0,0,0-4.25-1.5,8.62,8.62,0,0,0-5.78,2.26l-1.16-1.52A10.27,10.27,0,0,1,289.15,265.5Z"/><path class="k" d="M316.45,269.12a17.53,17.53,0,0,1,0,18.44,7.84,7.84,0,0,1-13.26,0,17.6,17.6,0,0,1,0-18.48,7.84,7.84,0,0,1,13.24,0Zm-11.74,1.27a17.37,17.37,0,0,0,0,16,5.89,5.89,0,0,0,5.15,3.06,6,6,0,0,0,5.18-3.1,17.31,17.31,0,0,0,0-16.06,5.81,5.81,0,0,0-10.3.07Z"/><path class="k" d="M341.81,272.6a5.88,5.88,0,0,1,3.57,1.07,5.76,5.76,0,0,1,2.06,3.06q2.24-4.12,6.43-4.13a5.54,5.54,0,0,1,4.4,1.86,7.75,7.75,0,0,1,1.61,5.21v11.11H358v-11.5a5.29,5.29,0,0,0-1.15-3.54,4,4,0,0,0-3.23-1.35,5.67,5.67,0,0,0-4,1.71,6,6,0,0,0-1.77,4.53v10.15h-1.9v-11.5a5.32,5.32,0,0,0-1.13-3.55,4,4,0,0,0-3.23-1.34,5.66,5.66,0,0,0-4,1.71,6,6,0,0,0-1.78,4.53v10.15h-1.9V273h1.9v3.29A6.8,6.8,0,0,1,341.81,272.6Z"/><path class="k" d="M378.43,275.27a10.46,10.46,0,0,1,0,13.32,8.31,8.31,0,0,1-12.13,0,10.45,10.45,0,0,1,0-13.33,7.84,7.84,0,0,1,6.07-2.64A7.69,7.69,0,0,1,378.43,275.27Zm-10.71,1.25a9,9,0,0,0,0,10.82,6.24,6.24,0,0,0,9.34,0,9.09,9.09,0,0,0,0-10.83,6.23,6.23,0,0,0-9.34,0Z"/><path class="k" d="M393.41,272.6a6.2,6.2,0,0,1,4.7,1.89,7.21,7.21,0,0,1,1.8,5.18v11.11H398v-11.5a4.69,4.69,0,0,0-4.89-4.89,6.22,6.22,0,0,0-4.23,1.72,5.75,5.75,0,0,0-1.94,4.52v10.15h-1.89V273H387v3.29a8,8,0,0,1,2.55-2.62A6.92,6.92,0,0,1,393.41,272.6Z"/><path class="k" d="M418.44,275.25a9.59,9.59,0,0,1,2.4,6.68c0,.39,0,.68,0,.88H406a7.13,7.13,0,0,0,2.17,4.8,6.71,6.71,0,0,0,4.82,1.83,6.42,6.42,0,0,0,5.43-2.36l1.76.76a8.29,8.29,0,0,1-7.19,3.38,8.53,8.53,0,0,1-6.55-2.61,9.36,9.36,0,0,1-2.45-6.68,9.69,9.69,0,0,1,2.36-6.62,7.69,7.69,0,0,1,6.08-2.69A7.84,7.84,0,0,1,418.44,275.25Zm-10.53,1.06a7.52,7.52,0,0,0-2,4.9h12.9a7.73,7.73,0,0,0-2-4.92,5.88,5.88,0,0,0-4.48-1.88A5.81,5.81,0,0,0,407.91,276.31Z"/><path class="k" d="M439.39,265.85h1.9v24.93h-1.9v-3.55a8.12,8.12,0,0,1-2.87,2.92,7.88,7.88,0,0,1-9.84-1.56,10.73,10.73,0,0,1,0-13.33,7.89,7.89,0,0,1,9.84-1.58,8.15,8.15,0,0,1,2.87,2.93Zm-11.27,10.67a8.91,8.91,0,0,0,0,10.82,6.43,6.43,0,0,0,9.51,0,8.93,8.93,0,0,0,0-10.83,6,6,0,0,0-4.76-2.1A5.9,5.9,0,0,0,428.12,276.52Z"/><path class="k" d="M453.7,272.62a7.56,7.56,0,0,1,4,1.06,8.23,8.23,0,0,1,2.87,2.93V273h1.89v17.74h-1.89v-3.55a8.2,8.2,0,0,1-2.87,2.92,7.57,7.57,0,0,1-4,1.07,7.49,7.49,0,0,1-5.87-2.63,10.73,10.73,0,0,1,0-13.33A7.46,7.46,0,0,1,453.7,272.62Zm-4.43,3.9a8.93,8.93,0,0,0,0,10.82,6,6,0,0,0,4.75,2.1,6,6,0,0,0,4.76-2.1,8.89,8.89,0,0,0,0-10.83,6,6,0,0,0-4.76-2.1A5.93,5.93,0,0,0,449.27,276.52Z"/><path class="k" d="M473.25,272.6a8.75,8.75,0,0,1,3.09.55,8.61,8.61,0,0,1,2.83,1.72l-1.11,1.46a6.58,6.58,0,0,0-4.81-2,4.93,4.93,0,0,0-3.05.89,2.66,2.66,0,0,0-.95,2.17,2.42,2.42,0,0,0,1.22,2.16,17,17,0,0,0,3.37,1.26,14.09,14.09,0,0,1,3.83,1.57,4.31,4.31,0,0,1,2,3.79,4.48,4.48,0,0,1-1.83,3.71,7,7,0,0,1-4.55,1.37,10,10,0,0,1-3.56-.61,9,9,0,0,1-3-2l1.16-1.49a7.17,7.17,0,0,0,2.53,1.81,7.62,7.62,0,0,0,2.91.56,5.39,5.39,0,0,0,3.23-.9,3.09,3.09,0,0,0,1.21-2.48,2.49,2.49,0,0,0-1.23-2.35,15.75,15.75,0,0,0-3.34-1.27,16.49,16.49,0,0,1-3.83-1.49,4.24,4.24,0,0,1-2-3.61,4.12,4.12,0,0,1,1.56-3.46A6.82,6.82,0,0,1,473.25,272.6Z"/><path class="k" d="M288.33,377.85h1.55v24.93h-2V380.19l-4.31,2.23-.82-1.63Z"/><path class="k" d="M309.27,381.12a17.59,17.59,0,0,1,0,18.44,7.84,7.84,0,0,1-13.26,0,17.55,17.55,0,0,1,0-18.48,7.84,7.84,0,0,1,13.24,0Zm-11.75,1.27a17.33,17.33,0,0,0,0,16,5.88,5.88,0,0,0,5.15,3.06,6,6,0,0,0,5.17-3.1,17.23,17.23,0,0,0,0-16.06,5.81,5.81,0,0,0-10.3.07Z"/><path class="k" d="M331.27,381.12a17.53,17.53,0,0,1,0,18.44,7.83,7.83,0,0,1-13.25,0,17.55,17.55,0,0,1,0-18.48,7.83,7.83,0,0,1,13.23,0Zm-11.74,1.27a17.37,17.37,0,0,0,0,16,5.87,5.87,0,0,0,10.33,0,17.23,17.23,0,0,0,0-16.06,5.81,5.81,0,0,0-10.3.07Z"/><path class="k" d="M356.64,384.6a5.92,5.92,0,0,1,3.57,1.07,5.69,5.69,0,0,1,2.05,3.06q2.24-4.12,6.44-4.13a5.52,5.52,0,0,1,4.39,1.86,7.7,7.7,0,0,1,1.62,5.21v11.11h-1.9v-11.5a5.28,5.28,0,0,0-1.14-3.54,4,4,0,0,0-3.24-1.35,5.63,5.63,0,0,0-4,1.71,6,6,0,0,0-1.78,4.53v10.15h-1.9v-11.5a5.32,5.32,0,0,0-1.12-3.55,4,4,0,0,0-3.24-1.34,5.68,5.68,0,0,0-4,1.71,6,6,0,0,0-1.77,4.53v10.15h-1.9V385h1.9v3.29A6.77,6.77,0,0,1,356.64,384.6Z"/><path class="k" d="M393.25,387.27a10.46,10.46,0,0,1,0,13.32,8.31,8.31,0,0,1-12.13,0,10.45,10.45,0,0,1,0-13.33,7.86,7.86,0,0,1,6.07-2.64A7.69,7.69,0,0,1,393.25,387.27Zm-10.7,1.25a9,9,0,0,0,0,10.82,6.23,6.23,0,0,0,9.33,0,9,9,0,0,0,0-10.83,6.22,6.22,0,0,0-9.33,0Z"/><path class="k" d="M408.23,384.6a6.2,6.2,0,0,1,4.7,1.89,7.21,7.21,0,0,1,1.8,5.18v11.11h-1.89v-11.5a4.79,4.79,0,0,0-1.37-3.51,4.72,4.72,0,0,0-3.52-1.38,6.23,6.23,0,0,0-4.24,1.72,5.74,5.74,0,0,0-1.93,4.52v10.15h-1.9V385h1.9v3.29a7.94,7.94,0,0,1,2.55-2.62A6.87,6.87,0,0,1,408.23,384.6Z"/><path class="k" d="M433.26,387.25a9.55,9.55,0,0,1,2.41,6.68,6.54,6.54,0,0,1,0,.88H420.78a7.22,7.22,0,0,0,2.17,4.8,6.74,6.74,0,0,0,4.83,1.83,6.43,6.43,0,0,0,5.43-2.36l1.76.76a8.3,8.3,0,0,1-7.19,3.38,8.56,8.56,0,0,1-6.56-2.61,9.35,9.35,0,0,1-2.44-6.68,9.68,9.68,0,0,1,2.35-6.62,7.69,7.69,0,0,1,6.08-2.69A7.83,7.83,0,0,1,433.26,387.25Zm-10.53,1.06a7.57,7.57,0,0,0-2,4.9h12.91a7.73,7.73,0,0,0-2-4.92,5.9,5.9,0,0,0-4.48-1.88A5.83,5.83,0,0,0,422.73,388.31Z"/><path class="k" d="M454.21,377.85h1.9v24.93h-1.9v-3.55a8.09,8.09,0,0,1-2.86,2.92,7.57,7.57,0,0,1-4,1.07,7.49,7.49,0,0,1-5.87-2.63,10.73,10.73,0,0,1,0-13.33,7.46,7.46,0,0,1,5.87-2.64,7.56,7.56,0,0,1,4,1.06,8.12,8.12,0,0,1,2.86,2.93ZM443,388.52a7.89,7.89,0,0,0-1.85,5.41,8,8,0,0,0,1.82,5.41,6.44,6.44,0,0,0,9.52,0,8.93,8.93,0,0,0,0-10.83,6,6,0,0,0-4.76-2.1A5.88,5.88,0,0,0,443,388.52Z"/><path class="k" d="M468.52,384.62a7.6,7.6,0,0,1,4,1.06,8.2,8.2,0,0,1,2.86,2.93V385h1.9v17.74h-1.9v-3.55a8.17,8.17,0,0,1-2.86,2.92,7.61,7.61,0,0,1-4,1.07,7.51,7.51,0,0,1-5.87-2.63,10.73,10.73,0,0,1,0-13.33A7.49,7.49,0,0,1,468.52,384.62Zm-4.43,3.9a9,9,0,0,0,0,10.82,6.43,6.43,0,0,0,9.51,0,8.89,8.89,0,0,0,0-10.83,6,6,0,0,0-4.76-2.1A5.94,5.94,0,0,0,464.09,388.52Z"/><path class="k" d="M488.07,384.6a8.67,8.67,0,0,1,3.09.55,8.51,8.51,0,0,1,2.83,1.72l-1.1,1.46a6.62,6.62,0,0,0-4.82-2,4.92,4.92,0,0,0-3,.89,2.66,2.66,0,0,0-.95,2.17,2.41,2.41,0,0,0,1.21,2.16,17.2,17.2,0,0,0,3.38,1.26,14.23,14.23,0,0,1,3.83,1.57,4.32,4.32,0,0,1,1.95,3.79,4.48,4.48,0,0,1-1.83,3.71,7,7,0,0,1-4.55,1.37,9.91,9.91,0,0,1-3.55-.61,8.85,8.85,0,0,1-3-2l1.16-1.49a7.08,7.08,0,0,0,2.53,1.81,7.57,7.57,0,0,0,2.9.56,5.39,5.39,0,0,0,3.23-.9,3.1,3.1,0,0,0,1.22-2.48,2.49,2.49,0,0,0-1.23-2.35,16.21,16.21,0,0,0-3.34-1.27,16.1,16.1,0,0,1-3.83-1.49,4.25,4.25,0,0,1-2-3.61,4.1,4.1,0,0,1,1.57-3.46A6.8,6.8,0,0,1,488.07,384.6Z"/><circle class="l" cx="543" cy="61.26" r="42.5"/><circle class="m" cx="543" cy="61.26" r="35.06"/><path class="n" d="M509.15,61.87a35.07,35.07,0,0,1,50.09-31.69,35.07,35.07,0,0,0-32.45,62.18c.39.2.78.4,1.18.58A35.06,35.06,0,0,1,509.15,61.87Z"/><path class="o" d="M559.24,30.18A35.07,35.07,0,0,1,528,92.94a35.06,35.06,0,1,0,32.44-62.17C560,30.57,559.64,30.37,559.24,30.18Z"/><path class="o" d="M542.58,94.17a32,32,0,0,1-15.19-4.51,32.78,32.78,0,0,1-3.25-2.23,32.52,32.52,0,0,1-7.77-8.71A31.71,31.71,0,0,0,528,88.53a30.16,30.16,0,0,0,14.58,3.08Z"/><path class="p" d="M544.5,91.62a30.1,30.1,0,0,0,14.57-3.08,31.33,31.33,0,0,0,6.38-4.18,31.89,31.89,0,0,0,5.25-5.64,32.27,32.27,0,0,1-4.82,6.11,32.09,32.09,0,0,1-21.39,9.34Z"/><g class="q"><path class="n" d="M516.9,50.73h13V53H519.39l-.84,8.47A6.8,6.8,0,0,1,523.81,59a7.06,7.06,0,0,1,5.24,2.18,7.55,7.55,0,0,1,2.12,5.45,7.14,7.14,0,0,1-2.32,5.48,8.43,8.43,0,0,1-6,2.16,10.11,10.11,0,0,1-8-3.75l1.71-2a7.61,7.61,0,0,0,6.28,3.31,5.54,5.54,0,0,0,3.94-1.43,4.93,4.93,0,0,0,1.57-3.75,5.06,5.06,0,0,0-1.44-3.74,4.93,4.93,0,0,0-3.66-1.45,4.67,4.67,0,0,0-4.66,2.91l-2.86-1.15Z"/><path class="n" d="M549.85,53.77a13.75,13.75,0,0,1,2.55,8.55,14,14,0,0,1-2.54,8.59,7.79,7.79,0,0,1-12.87,0,13.93,13.93,0,0,1-2.55-8.59A13.88,13.88,0,0,1,537,53.74a7.77,7.77,0,0,1,12.86,0ZM539,55.53a12.42,12.42,0,0,0-1.71,6.85A12.56,12.56,0,0,0,539,69.22a5.07,5.07,0,0,0,4.44,2.65,5.13,5.13,0,0,0,4.46-2.65,12.38,12.38,0,0,0,1.71-6.84,12.54,12.54,0,0,0-1.71-6.87,5.12,5.12,0,0,0-4.46-2.68A5,5,0,0,0,539,55.53Z"/><path class="n" d="M571.08,53.77a13.74,13.74,0,0,1,2.54,8.55,13.92,13.92,0,0,1-2.54,8.59,7.79,7.79,0,0,1-12.87,0,14,14,0,0,1-2.54-8.59,13.94,13.94,0,0,1,2.54-8.58,7.78,7.78,0,0,1,12.87,0Zm-10.84,1.76a12.42,12.42,0,0,0-1.71,6.85,12.56,12.56,0,0,0,1.68,6.84,5.07,5.07,0,0,0,4.44,2.65,5.13,5.13,0,0,0,4.46-2.65,12.47,12.47,0,0,0,1.7-6.84,12.62,12.62,0,0,0-1.7-6.87,5.12,5.12,0,0,0-4.46-2.68A5,5,0,0,0,560.24,55.53Z"/></g><g class="q"><path class="r" d="M516.54,50.36h13V52.6H519l-.83,8.46a6.79,6.79,0,0,1,5.25-2.38,7,7,0,0,1,5.24,2.18,7.47,7.47,0,0,1,2.12,5.45,7.13,7.13,0,0,1-2.32,5.47,8.42,8.42,0,0,1-6,2.16,10.14,10.14,0,0,1-8-3.74l1.72-2a7.61,7.61,0,0,0,6.27,3.32,5.51,5.51,0,0,0,3.94-1.44A4.89,4.89,0,0,0,528,66.31a5,5,0,0,0-1.44-3.74,4.94,4.94,0,0,0-3.66-1.46A4.66,4.66,0,0,0,518.26,64l-2.86-1.14Z"/><path class="r" d="M549.48,53.4A13.77,13.77,0,0,1,552,62a13.9,13.9,0,0,1-2.54,8.59,7.79,7.79,0,0,1-12.87,0A13.91,13.91,0,0,1,534.07,62a13.9,13.9,0,0,1,2.55-8.58,7.77,7.77,0,0,1,12.86,0Zm-10.83,1.76A12.44,12.44,0,0,0,536.93,62a12.53,12.53,0,0,0,1.69,6.85,5.07,5.07,0,0,0,4.43,2.64,5.13,5.13,0,0,0,4.46-2.64A12.44,12.44,0,0,0,549.22,62a12.54,12.54,0,0,0-1.71-6.87,5.12,5.12,0,0,0-4.46-2.67A5,5,0,0,0,538.65,55.16Z"/><path class="r" d="M570.71,53.4A13.77,13.77,0,0,1,573.26,62a14,14,0,0,1-2.54,8.59,7.79,7.79,0,0,1-12.87,0A13.91,13.91,0,0,1,555.3,62a13.9,13.9,0,0,1,2.55-8.58,7.77,7.77,0,0,1,12.86,0Zm-10.83,1.76A12.36,12.36,0,0,0,558.16,62a12.62,12.62,0,0,0,1.68,6.85,5.08,5.08,0,0,0,4.44,2.64,5.13,5.13,0,0,0,4.46-2.64A12.44,12.44,0,0,0,570.45,62a12.54,12.54,0,0,0-1.71-6.87,5.12,5.12,0,0,0-4.46-2.67A5,5,0,0,0,559.88,55.16Z"/></g><path class="s" d="M542.91,38h-.73l-.76,2.58a5.92,5.92,0,0,1-1.19.11,4.27,4.27,0,0,1-1.38-.2l-.09-.14,3.9-11.91a11,11,0,0,1,1.62-.1,9.21,9.21,0,0,1,1.66.12l3.87,11.91a3,3,0,0,1-1.4.33,2,2,0,0,1-1.3-.32,2.57,2.57,0,0,1-.64-1.22L546.14,38h-3.23Zm0-2.23h2.67l-.31-1.09c-.28-1-.6-2.21-1-3.66h-.11c-.09.51-.36,1.64-.85,3.39Z"/><path class="t" d="M542.55,38h-.73l-.76,2.58a6,6,0,0,1-1.19.11,4.37,4.37,0,0,1-1.39-.2l-.09-.14,3.91-11.91a10.79,10.79,0,0,1,1.61-.1,9.32,9.32,0,0,1,1.67.12l3.87,11.91a3,3,0,0,1-1.41.33,2,2,0,0,1-1.29-.32,2.57,2.57,0,0,1-.64-1.22L545.77,38h-3.22Zm0-2.23h2.66l-.3-1.09c-.29-1-.61-2.21-1-3.66h-.1c-.1.51-.37,1.64-.86,3.39Z"/><circle class="u" cx="550" cy="393.31" r="30"/><circle class="v" cx="550" cy="393.31" r="24.75"/><path class="w" d="M526.11,393.73a24.75,24.75,0,0,1,35.36-22.36,24.75,24.75,0,1,0-22.91,43.89l.83.41A24.72,24.72,0,0,1,526.11,393.73Z"/><path class="x" d="M561.47,371.37a24.75,24.75,0,0,1-22.08,44.3,24.75,24.75,0,0,0,22.9-43.89Z"/><path class="y" d="M549.7,416.54A22.57,22.57,0,0,1,539,413.35a22.1,22.1,0,0,1-2.29-1.57,22.68,22.68,0,0,1-2.08-1.83,22.93,22.93,0,0,1-3.41-4.32,22.58,22.58,0,0,0,3.71,4,22.19,22.19,0,0,0,4.5,2.94,21.32,21.32,0,0,0,10.29,2.18Z"/><path class="z" d="M551.06,414.73a21.22,21.22,0,0,0,10.29-2.17,22.44,22.44,0,0,0,8.2-6.93,22.93,22.93,0,0,1-7.78,7.72,22.54,22.54,0,0,1-10.72,3.19Z"/><g class="q"><path class="aa" d="M541.25,382.91h2.37v23.92h-2.79v-21l-4.13,2.14-1.06-2Z"/><path class="aa" d="M563.57,386.05a14.19,14.19,0,0,1,2.63,8.83,14.41,14.41,0,0,1-2.62,8.87,8,8,0,0,1-13.28,0,16.2,16.2,0,0,1,0-17.73,8,8,0,0,1,13.27,0Zm-11.18,1.82a12.8,12.8,0,0,0-1.77,7.07,13.06,13.06,0,0,0,1.73,7.07,5.25,5.25,0,0,0,4.58,2.73,5.3,5.3,0,0,0,4.61-2.73,15.12,15.12,0,0,0,0-14.16,5.3,5.3,0,0,0-4.61-2.76A5.15,5.15,0,0,0,552.39,387.87Z"/></g><g class="q"><path class="ab" d="M542,382.63h2.37v23.92h-2.79v-21l-4.13,2.14-1.06-2Z"/><path class="ab" d="M564.32,385.77A14.17,14.17,0,0,1,567,394.6a14.41,14.41,0,0,1-2.62,8.87,8,8,0,0,1-13.28,0,16.2,16.2,0,0,1,0-17.73,8,8,0,0,1,13.27,0Zm-11.18,1.82a12.8,12.8,0,0,0-1.77,7.07,13.06,13.06,0,0,0,1.73,7.07,5.25,5.25,0,0,0,4.58,2.73,5.3,5.3,0,0,0,4.61-2.73,12.88,12.88,0,0,0,1.76-7.07,13,13,0,0,0-1.76-7.1,5.31,5.31,0,0,0-4.61-2.75A5.13,5.13,0,0,0,553.14,387.59Z"/></g><path class="ac" d="M549.94,376.88h-.52l-.53,1.82a3.41,3.41,0,0,1-.84.07,2.9,2.9,0,0,1-1-.13l-.06-.1,2.75-8.41a7.27,7.27,0,0,1,1.14-.07,6.63,6.63,0,0,1,1.18.08l2.73,8.41a2.16,2.16,0,0,1-1,.24,1.43,1.43,0,0,1-.92-.23,1.88,1.88,0,0,1-.45-.86l-.24-.83h-2.27Zm0-1.57h1.88l-.21-.78q-.3-1-.69-2.58h-.08q-.09.54-.6,2.4Z"/><path class="ad" d="M549.68,376.88h-.52l-.53,1.82a3.41,3.41,0,0,1-.84.07,3,3,0,0,1-1-.13l-.06-.1,2.75-8.41a7.27,7.27,0,0,1,1.14-.07,6.63,6.63,0,0,1,1.18.08l2.73,8.41a2.1,2.1,0,0,1-1,.24,1.4,1.4,0,0,1-.91-.23,1.81,1.81,0,0,1-.46-.86l-.23-.83h-2.28Zm0-1.57h1.88l-.21-.78q-.3-1-.69-2.58h-.08c-.06.36-.25,1.16-.6,2.4Z"/><path class="ae" d="M505.76,268.74v23.2a6.79,6.79,0,0,0,1.3,4l13.64,18.78a6.82,6.82,0,0,0,3.41,2.47l22.08,7.17a6.82,6.82,0,0,0,4.19,0l22.07-7.17a6.85,6.85,0,0,0,3.42-2.47L589.47,296a6.71,6.71,0,0,0,1.29-4v-23.2a6.76,6.76,0,0,0-1.3-4L575.83,246a6.8,6.8,0,0,0-3.42-2.47l-22-7.17a6.82,6.82,0,0,0-4.19,0l-22.08,7.17a6.82,6.82,0,0,0-3.41,2.47l-13.62,18.77A6.83,6.83,0,0,0,505.76,268.74Z"/><path class="af" d="M509.4,269.73V291a6.21,6.21,0,0,0,1.18,3.65l12.48,17.17a6.17,6.17,0,0,0,3.11,2.25l20.19,6.56a6.15,6.15,0,0,0,3.84,0L570.38,314a6.17,6.17,0,0,0,3.11-2.25L586,294.6a6.15,6.15,0,0,0,1.19-3.65V269.73a6.22,6.22,0,0,0-1.19-3.65L573.47,248.9a6.26,6.26,0,0,0-3.1-2.28l-20.18-6.52a6.15,6.15,0,0,0-3.84,0l-20.18,6.55a6.18,6.18,0,0,0-3.11,2.28l-12.48,17.15A6.21,6.21,0,0,0,509.4,269.73Z"/><path class="ag" d="M513.1,280.65a36.44,36.44,0,0,1,52-32.89A36.43,36.43,0,1,0,530.84,312c.59.32,1.2.62,1.81.9A36.44,36.44,0,0,1,513.1,280.65Z"/><path class="ah" d="M565.14,247.76a36.43,36.43,0,0,1-32.49,65.18A36.43,36.43,0,0,0,567,248.66C566.36,248.35,565.75,248.05,565.14,247.76Z"/><g class="q"><path class="ag" d="M525.66,266.33h18.46v3.17H529.18l-1.18,12a9.64,9.64,0,0,1,7.45-3.38,10,10,0,0,1,7.42,3.09,10.62,10.62,0,0,1,3,7.72,10.12,10.12,0,0,1-3.29,7.76,11.94,11.94,0,0,1-8.47,3.06,14.37,14.37,0,0,1-11.33-5.3l2.43-2.87a10.79,10.79,0,0,0,8.9,4.7,7.85,7.85,0,0,0,5.58-2,7,7,0,0,0,2.22-5.31,7.18,7.18,0,0,0-2-5.3,7,7,0,0,0-5.19-2.06,6.62,6.62,0,0,0-6.6,4.12L524,284.07Z"/><path class="ag" d="M572.35,270.64q3.61,4.77,3.62,12.12t-3.6,12.17a11,11,0,0,1-18.24,0q-3.61-4.81-3.62-12.17a19.69,19.69,0,0,1,3.62-12.16,11,11,0,0,1,18.22,0ZM557,273.14a17.57,17.57,0,0,0-2.43,9.7,17.84,17.84,0,0,0,2.38,9.71,7.18,7.18,0,0,0,12.61,0,17.58,17.58,0,0,0,2.42-9.71,17.78,17.78,0,0,0-2.42-9.74,7.26,7.26,0,0,0-6.32-3.78Q559.34,269.32,557,273.14Z"/></g><g class="q"><path class="ai" d="M525.24,265.92H543.7v3.17H528.76l-1.18,12a9.62,9.62,0,0,1,7.45-3.38,10,10,0,0,1,7.42,3.09,10.6,10.6,0,0,1,3,7.72,10.11,10.11,0,0,1-3.29,7.76,11.93,11.93,0,0,1-8.47,3.06A14.35,14.35,0,0,1,522.37,294l2.43-2.87a10.78,10.78,0,0,0,8.9,4.7,7.87,7.87,0,0,0,5.58-2,7,7,0,0,0,2.22-5.31,7.16,7.16,0,0,0-2-5.3,6.93,6.93,0,0,0-5.18-2.06,6.62,6.62,0,0,0-6.6,4.12l-4.06-1.62Z"/><path class="ai" d="M571.94,270.22q3.6,4.78,3.61,12.13T572,294.52a11,11,0,0,1-18.24,0q-3.62-4.81-3.61-12.17t3.61-12.16a11,11,0,0,1,18.23,0Zm-15.36,2.51a17.54,17.54,0,0,0-2.43,9.7,17.8,17.8,0,0,0,2.38,9.7,7.17,7.17,0,0,0,12.61,0,17.54,17.54,0,0,0,2.43-9.7,17.76,17.76,0,0,0-2.43-9.74,7.27,7.27,0,0,0-6.32-3.79Q558.92,268.9,556.58,272.73Z"/></g><path class="ae" d="M548.17,255.85h-.75l-.79,2.66a5.78,5.78,0,0,1-1.24.11,4.68,4.68,0,0,1-1.44-.2l-.09-.15,4.08-12.37a11.62,11.62,0,0,1,1.67-.11,9.27,9.27,0,0,1,1.74.13l4,12.39a3,3,0,0,1-1.46.35,2.09,2.09,0,0,1-1.35-.33,2.73,2.73,0,0,1-.66-1.27l-.35-1.22h-3.34Zm0-2.31h2.75l-.32-1.14c-.29-1-.63-2.3-1-3.8h-.11c-.1.53-.38,1.7-.89,3.52Z"/><path class="ai" d="M547.79,255.85H547l-.79,2.66a5.78,5.78,0,0,1-1.24.11,4.68,4.68,0,0,1-1.44-.2l-.09-.15,4.08-12.37a11.62,11.62,0,0,1,1.67-.11,9.27,9.27,0,0,1,1.74.13l4,12.39a3,3,0,0,1-1.46.35,2.09,2.09,0,0,1-1.35-.33,2.73,2.73,0,0,1-.66-1.27l-.35-1.22h-3.34Zm0-2.31h2.75l-.32-1.14c-.29-1-.63-2.3-1-3.8h-.11c-.1.53-.38,1.7-.89,3.52Z"/><circle class="aj" cx="544.79" cy="173.5" r="42.5"/><circle class="ak" cx="544.79" cy="173.5" r="35.06"/><path class="n" d="M510.94,174.1A35.08,35.08,0,0,1,561,142.42a35.07,35.07,0,1,0-32.45,62.18c.38.2.77.39,1.17.58A35.07,35.07,0,0,1,510.94,174.1Z"/><path class="al" d="M561,142.42a35.07,35.07,0,0,1-31.28,62.76A35.06,35.06,0,1,0,562.21,143C561.82,142.8,561.43,142.61,561,142.42Z"/><path class="am" d="M544.37,206.41a32.1,32.1,0,0,1-15.19-4.51,34,34,0,0,1-3.25-2.23,34.57,34.57,0,0,1-2.94-2.6,32.09,32.09,0,0,1-4.83-6.11,31.6,31.6,0,0,0,5.26,5.64,31.92,31.92,0,0,0,6.37,4.17,30.15,30.15,0,0,0,14.58,3.07Z"/><path class="an" d="M546.29,203.85a30,30,0,0,0,14.57-3.07,31.1,31.1,0,0,0,6.38-4.19A31.6,31.6,0,0,0,572.5,191a32.15,32.15,0,0,1-26.22,15.46Z"/><g class="q"><path class="n" d="M525.41,161.48h2.5v25.34H525V164.54l-4.38,2.27-1.12-2.15Z"/><path class="n" d="M549,164.81a15,15,0,0,1,2.79,9.35,15.21,15.21,0,0,1-2.78,9.39,8.52,8.52,0,0,1-14.07,0,17.23,17.23,0,0,1,0-18.77,8.49,8.49,0,0,1,7-3.71A8.4,8.4,0,0,1,549,164.81Zm-11.84,1.93a13.53,13.53,0,0,0-1.88,7.48,13.83,13.83,0,0,0,1.84,7.49,5.54,5.54,0,0,0,9.73,0,16,16,0,0,0,0-15,5.59,5.59,0,0,0-4.88-2.92A5.44,5.44,0,0,0,537.2,166.74Z"/><path class="n" d="M572.25,164.81a15,15,0,0,1,2.79,9.35,15.28,15.28,0,0,1-2.78,9.39,8.52,8.52,0,0,1-14.07,0,17.18,17.18,0,0,1,0-18.77,8.49,8.49,0,0,1,7-3.71A8.4,8.4,0,0,1,572.25,164.81Zm-11.84,1.93a13.53,13.53,0,0,0-1.88,7.48,13.74,13.74,0,0,0,1.84,7.49,5.54,5.54,0,0,0,4.85,2.89,5.61,5.61,0,0,0,4.88-2.89,16,16,0,0,0,0-15,5.6,5.6,0,0,0-4.88-2.92A5.43,5.43,0,0,0,560.41,166.74Z"/></g><g class="q"><path class="ao" d="M525,161.09h2.5v25.33h-3V164.14l-4.38,2.27-1.12-2.14Z"/><path class="ao" d="M548.65,164.41a17.18,17.18,0,0,1,0,18.74,8.51,8.51,0,0,1-14.07,0,17.23,17.23,0,0,1,0-18.77,8.51,8.51,0,0,1,14.07,0Zm-11.85,1.93a13.53,13.53,0,0,0-1.88,7.48,13.8,13.8,0,0,0,1.84,7.49,5.54,5.54,0,0,0,9.73,0,13.54,13.54,0,0,0,1.87-7.49,13.68,13.68,0,0,0-1.87-7.51,5.59,5.59,0,0,0-4.87-2.92A5.45,5.45,0,0,0,536.8,166.34Z"/><path class="ao" d="M571.85,164.41a15,15,0,0,1,2.79,9.35,15.28,15.28,0,0,1-2.78,9.39,8.51,8.51,0,0,1-14.07,0,17.18,17.18,0,0,1,0-18.77,8.49,8.49,0,0,1,7-3.71A8.4,8.4,0,0,1,571.85,164.41ZM560,166.34a13.53,13.53,0,0,0-1.88,7.48,13.8,13.8,0,0,0,1.84,7.49,5.54,5.54,0,0,0,9.73,0,13.63,13.63,0,0,0,1.87-7.49,13.77,13.77,0,0,0-1.87-7.51,5.59,5.59,0,0,0-4.88-2.92A5.44,5.44,0,0,0,560,166.34Z"/></g><path class="s" d="M544.71,150.23H544l-.76,2.58a5.27,5.27,0,0,1-1.19.1,4,4,0,0,1-1.38-.19l-.09-.14,3.91-11.91a10.8,10.8,0,0,1,1.61-.11,8.49,8.49,0,0,1,1.67.13l3.87,11.91a3,3,0,0,1-1.41.33,2,2,0,0,1-1.29-.32,2.45,2.45,0,0,1-.64-1.22l-.34-1.18h-.69Zm-.05-2.23h2.67l-.31-1.1c-.28-1-.6-2.21-1-3.65h-.11c-.09.51-.36,1.64-.85,3.39Z"/><path class="ap" d="M544.34,150.23h-.73l-.76,2.58a5.27,5.27,0,0,1-1.19.1,4.1,4.1,0,0,1-1.39-.19l-.08-.14,3.9-11.91a11,11,0,0,1,1.62-.11,8.45,8.45,0,0,1,1.66.13l3.87,11.91a3,3,0,0,1-1.4.33,2,2,0,0,1-1.3-.32,2.62,2.62,0,0,1-.64-1.22l-.33-1.18h-.7Zm0-2.23H547l-.3-1.1c-.28-1-.61-2.21-1-3.65h-.11c-.1.51-.37,1.64-.86,3.39Z"/></svg>