<svg xmlns="http://www.w3.org/2000/svg" xmlns:xlink="http://www.w3.org/1999/xlink" width="678" height="310.15" viewBox="0 0 678 310.15"><defs><style>.a{fill:none;}.b{fill:#f05023;}.c{fill:#f58220;}.d{fill:#b5c7c9;}.e{fill:#bcb161;}.f{fill:#d9d9d9;}.g{fill:#eef5ff;}.h{fill:#dbd2af;}.i{isolation:isolate;}.j{fill:#cfdfe2;}.k{fill:#bcbec0;}.l{fill:#a89b5a;}.m{clip-path:url(#a);}.n{fill:#b0bf79;}.o{fill:#9ba657;}.p{fill:#e8f4d9;}.q{fill:#ececec;}.r{clip-path:url(#b);}.s{clip-path:url(#c);}.t{clip-path:url(#d);}</style><clipPath id="a"><rect class="a" x="43.5" y="16.34" width="157" height="77.48"/></clipPath><clipPath id="b"><rect class="a" x="22.5" y="174.34" width="157" height="77.48"/></clipPath><clipPath id="c"><rect class="a" x="43.5" y="195.34" width="157" height="77.48"/></clipPath><clipPath id="d"><rect class="a" x="63.5" y="216.34" width="157" height="77.48"/></clipPath></defs><title>equivalencia_monedas_1</title><path class="b" d="M302.28,55.33v2.29H279.82V55.33Zm0,10.49v2.29H279.82V65.82Z"/><path class="b" d="M303.28,218.33v2.29H280.82v-2.29Zm0,10.49v2.29H280.82v-2.29Z"/><path class="c" d="M365.15,46.08A7.82,7.82,0,0,1,371,48.19a6.92,6.92,0,0,1,2.07,5,8.78,8.78,0,0,1-1.48,4.69,37.77,37.77,0,0,1-3.88,4.61l-6.86,7h12.22v1.77H358v-1.6l7.87-8.22a38.18,38.18,0,0,0,3.78-4.41,7.07,7.07,0,0,0,1.3-4,5,5,0,0,0-1.53-3.75,5.81,5.81,0,0,0-4.25-1.51,8.63,8.63,0,0,0-5.78,2.27l-1.16-1.53A10.31,10.31,0,0,1,365.15,46.08Z"/><path class="c" d="M395.81,53.18a5.87,5.87,0,0,1,3.56,1.07,5.63,5.63,0,0,1,2.06,3.06c1.49-2.76,3.63-4.13,6.43-4.13a5.53,5.53,0,0,1,4.4,1.86,7.67,7.67,0,0,1,1.62,5.2V71.35H412V59.86a5.26,5.26,0,0,0-1.14-3.54A4,4,0,0,0,407.6,55a5.63,5.63,0,0,0-4,1.71,6,6,0,0,0-1.78,4.53V71.35h-1.9V59.86a5.32,5.32,0,0,0-1.12-3.55A4,4,0,0,0,395.54,55a5.66,5.66,0,0,0-4,1.71,6,6,0,0,0-1.78,4.53V71.35h-1.89V53.62h1.89V56.9A6.81,6.81,0,0,1,395.81,53.18Z"/><path class="c" d="M432.42,55.85a9.49,9.49,0,0,1,2.41,6.66,9.54,9.54,0,0,1-2.38,6.66,8.33,8.33,0,0,1-12.13,0,9.51,9.51,0,0,1-2.4-6.66,9.55,9.55,0,0,1,2.4-6.67,7.84,7.84,0,0,1,6.07-2.64A7.69,7.69,0,0,1,432.42,55.85Zm-10.7,1.25a7.92,7.92,0,0,0-1.81,5.4,8,8,0,0,0,1.81,5.42,6.23,6.23,0,0,0,9.33,0,8,8,0,0,0,1.79-5.42,8,8,0,0,0-1.79-5.41,6.22,6.22,0,0,0-9.33,0Z"/><path class="c" d="M447.4,53.18a6.2,6.2,0,0,1,4.7,1.89,7.18,7.18,0,0,1,1.8,5.17V71.35H452V59.86a4.78,4.78,0,0,0-1.36-3.51A4.73,4.73,0,0,0,447.12,55a6.26,6.26,0,0,0-4.24,1.71A5.77,5.77,0,0,0,441,61.21V71.35h-1.9V53.62H441V56.9a7.82,7.82,0,0,1,2.55-2.61A6.87,6.87,0,0,1,447.4,53.18Z"/><path class="c" d="M472.43,55.83a9.6,9.6,0,0,1,2.41,6.68,6.54,6.54,0,0,1,0,.88H460a7.18,7.18,0,0,0,2.17,4.8A6.71,6.71,0,0,0,466.94,70a6.46,6.46,0,0,0,5.44-2.36l1.75.76a8.27,8.27,0,0,1-7.19,3.37,8.53,8.53,0,0,1-6.55-2.6,9.36,9.36,0,0,1-2.45-6.68,9.73,9.73,0,0,1,2.36-6.63,7.71,7.71,0,0,1,6.08-2.68A7.79,7.79,0,0,1,472.43,55.83ZM461.9,56.89a7.55,7.55,0,0,0-2,4.9h12.9a7.73,7.73,0,0,0-2-4.92A5.92,5.92,0,0,0,466.37,55,5.81,5.81,0,0,0,461.9,56.89Z"/><path class="c" d="M493.38,46.43h1.9V71.35h-1.9V67.8a8,8,0,0,1-2.86,2.93,7.6,7.6,0,0,1-4,1.06,7.5,7.5,0,0,1-5.87-2.62,9.74,9.74,0,0,1-2.32-6.66,9.78,9.78,0,0,1,2.32-6.67,7.49,7.49,0,0,1,5.87-2.64,7.6,7.6,0,0,1,4,1.06,8,8,0,0,1,2.86,2.93ZM482.11,57.1a7.84,7.84,0,0,0-1.84,5.4,8,8,0,0,0,1.82,5.42,6.44,6.44,0,0,0,9.52,0,8,8,0,0,0,1.83-5.42,7.93,7.93,0,0,0-1.83-5.41,6,6,0,0,0-4.77-2.1A5.91,5.91,0,0,0,482.11,57.1Z"/><path class="c" d="M507.69,53.2a7.54,7.54,0,0,1,4,1.06,8.07,8.07,0,0,1,2.87,2.93V53.62h1.9V71.35h-1.9V67.8a8.07,8.07,0,0,1-2.87,2.93,7.92,7.92,0,0,1-9.84-1.56,9.69,9.69,0,0,1-2.32-6.66,9.73,9.73,0,0,1,2.32-6.67A7.48,7.48,0,0,1,507.69,53.2Zm-4.43,3.9a7.89,7.89,0,0,0-1.83,5.4,8,8,0,0,0,1.82,5.42,6.43,6.43,0,0,0,9.51,0,7.91,7.91,0,0,0,1.84-5.42,7.89,7.89,0,0,0-1.84-5.41A6,6,0,0,0,508,55,5.94,5.94,0,0,0,503.26,57.1Z"/><path class="c" d="M527.24,53.18a8.64,8.64,0,0,1,5.92,2.27l-1.11,1.45a6.74,6.74,0,0,0-2.3-1.54,6.94,6.94,0,0,0-2.51-.48,4.9,4.9,0,0,0-3,.9,2.63,2.63,0,0,0-1,2.17,2.38,2.38,0,0,0,1.21,2.15,16.76,16.76,0,0,0,3.38,1.27,14.79,14.79,0,0,1,3.83,1.56,4.34,4.34,0,0,1,2,3.8,4.49,4.49,0,0,1-1.83,3.71,7.07,7.07,0,0,1-4.55,1.37,9.91,9.91,0,0,1-3.55-.61,8.85,8.85,0,0,1-3-2l1.16-1.5a7.12,7.12,0,0,0,2.53,1.82,7.57,7.57,0,0,0,2.9.56,5.39,5.39,0,0,0,3.23-.9,3.11,3.11,0,0,0,1.22-2.48,2.49,2.49,0,0,0-1.24-2.35,15.75,15.75,0,0,0-3.34-1.27,16.49,16.49,0,0,1-3.83-1.49,4.26,4.26,0,0,1-2-3.61,4.12,4.12,0,0,1,1.56-3.46A6.77,6.77,0,0,1,527.24,53.18Z"/><path class="c" d="M369.7,211a9.37,9.37,0,0,1,5.31,1.64,8.8,8.8,0,0,1,1.35,1.16l-1.23,1.61a11.24,11.24,0,0,0-1.58-1.37,6.27,6.27,0,0,0-3.85-1.19,6.38,6.38,0,0,0-5,2.32q-2.89,3.31-2.67,10.14a8.12,8.12,0,0,1,3-3.32,7.79,7.79,0,0,1,4.27-1.29,9.19,9.19,0,0,1,4.19,1,7.76,7.76,0,0,1,3.08,2.83,7.86,7.86,0,0,1,1.16,4.27,7.61,7.61,0,0,1-2.39,5.82,8.53,8.53,0,0,1-6,2.23,8.38,8.38,0,0,1-6.51-2.69Q360,231,360,224.19T363,214A8.6,8.6,0,0,1,369.7,211Zm-5.1,13.36a6.14,6.14,0,0,0,0,8.89,7,7,0,0,0,9.26,0,6.16,6.16,0,0,0,0-8.88,6.51,6.51,0,0,0-4.62-1.77A6.65,6.65,0,0,0,364.6,224.33Z"/><path class="c" d="M400.53,218.18a5.88,5.88,0,0,1,3.57,1.07,5.68,5.68,0,0,1,2.06,3.06c1.48-2.76,3.63-4.13,6.43-4.13A5.5,5.5,0,0,1,417,220a7.67,7.67,0,0,1,1.62,5.2v11.11h-1.9V224.86a5.26,5.26,0,0,0-1.14-3.54,4,4,0,0,0-3.23-1.35,5.66,5.66,0,0,0-4,1.71,6,6,0,0,0-1.78,4.53v10.14h-1.89V224.86a5.32,5.32,0,0,0-1.13-3.55,4,4,0,0,0-3.23-1.34,5.7,5.7,0,0,0-4,1.71,6,6,0,0,0-1.77,4.53v10.14h-1.9V218.62h1.9v3.28A6.79,6.79,0,0,1,400.53,218.18Z"/><path class="c" d="M437.15,220.85a10.47,10.47,0,0,1,0,13.32,8.33,8.33,0,0,1-12.13,0,10.45,10.45,0,0,1,0-13.33,7.86,7.86,0,0,1,6.08-2.64A7.69,7.69,0,0,1,437.15,220.85Zm-10.71,1.25a9,9,0,0,0,0,10.82,5.9,5.9,0,0,0,4.68,2.1,5.81,5.81,0,0,0,4.65-2.1,9,9,0,0,0,0-10.83,5.81,5.81,0,0,0-4.65-2.1A5.88,5.88,0,0,0,426.44,222.1Z"/><path class="c" d="M452.12,218.18a6.18,6.18,0,0,1,4.7,1.89,7.15,7.15,0,0,1,1.81,5.17v11.11h-1.9V224.86a4.82,4.82,0,0,0-1.36-3.51,4.75,4.75,0,0,0-3.53-1.38,6.28,6.28,0,0,0-4.24,1.71,5.81,5.81,0,0,0-1.93,4.53v10.14h-1.9V218.62h1.9v3.28a8,8,0,0,1,2.55-2.61A6.87,6.87,0,0,1,452.12,218.18Z"/><path class="c" d="M477.15,220.83a9.55,9.55,0,0,1,2.41,6.68c0,.39,0,.68,0,.88H464.67a7.22,7.22,0,0,0,2.17,4.8,6.76,6.76,0,0,0,4.83,1.83,6.46,6.46,0,0,0,5.43-2.36l1.76.76a8.28,8.28,0,0,1-7.19,3.37,8.56,8.56,0,0,1-6.56-2.6,9.35,9.35,0,0,1-2.44-6.68,9.73,9.73,0,0,1,2.35-6.63,8.26,8.26,0,0,1,12.13,0Zm-10.53,1.06a7.49,7.49,0,0,0-2,4.9h12.9a7.68,7.68,0,0,0-2-4.92,6.25,6.25,0,0,0-9,0Z"/><path class="c" d="M498.11,211.43H500v24.92h-1.9V232.8a8.07,8.07,0,0,1-2.87,2.93,7.56,7.56,0,0,1-4,1.06,7.48,7.48,0,0,1-5.87-2.62,10.73,10.73,0,0,1,0-13.33,7.46,7.46,0,0,1,5.87-2.64,7.56,7.56,0,0,1,4,1.06,8.07,8.07,0,0,1,2.87,2.93ZM486.84,222.1a7.85,7.85,0,0,0-1.85,5.4,8,8,0,0,0,1.82,5.42,6.44,6.44,0,0,0,9.52,0,8.93,8.93,0,0,0,0-10.83,6,6,0,0,0-4.76-2.1A5.88,5.88,0,0,0,486.84,222.1Z"/><path class="c" d="M512.42,218.2a7.59,7.59,0,0,1,4,1.06,8,8,0,0,1,2.86,2.93v-3.57h1.9v17.73h-1.9V232.8a8,8,0,0,1-2.86,2.93,7.59,7.59,0,0,1-4,1.06,7.51,7.51,0,0,1-5.88-2.62,10.73,10.73,0,0,1,0-13.33A7.5,7.5,0,0,1,512.42,218.2ZM508,222.1a8.93,8.93,0,0,0,0,10.82,6,6,0,0,0,4.74,2.1,6.06,6.06,0,0,0,4.77-2.1,8.93,8.93,0,0,0,0-10.83,6.06,6.06,0,0,0-4.77-2.1A5.91,5.91,0,0,0,508,222.1Z"/><path class="c" d="M532,218.18a9,9,0,0,1,3.1.54,8.82,8.82,0,0,1,2.83,1.73l-1.11,1.45a6.68,6.68,0,0,0-4.82-2,4.92,4.92,0,0,0-3,.9A2.66,2.66,0,0,0,528,223a2.39,2.39,0,0,0,1.22,2.15,16.59,16.59,0,0,0,3.37,1.27,14.48,14.48,0,0,1,3.83,1.56,4.34,4.34,0,0,1,2,3.8,4.51,4.51,0,0,1-1.82,3.71,7.1,7.1,0,0,1-4.56,1.37,9.91,9.91,0,0,1-3.55-.61,8.85,8.85,0,0,1-3-2l1.16-1.5a7.2,7.2,0,0,0,2.53,1.82,7.57,7.57,0,0,0,2.9.56,5.42,5.42,0,0,0,3.24-.9,3.1,3.1,0,0,0,1.21-2.48,2.48,2.48,0,0,0-1.23-2.35,16,16,0,0,0-3.34-1.27,16.3,16.3,0,0,1-3.83-1.49,4.25,4.25,0,0,1-2-3.61,4.1,4.1,0,0,1,1.57-3.46A6.74,6.74,0,0,1,532,218.18Z"/><circle class="d" cx="612" cy="62.84" r="42.5"/><circle class="e" cx="612" cy="62.84" r="35.06"/><path class="f" d="M578.15,63.44a35.07,35.07,0,0,1,50.09-31.68,35.07,35.07,0,0,0-32.45,62.18l1.18.58A35.07,35.07,0,0,1,578.15,63.44Z"/><path class="g" d="M628.24,31.76A35.07,35.07,0,0,1,597,94.52a35.06,35.06,0,1,0,32.44-62.17C629,32.14,628.64,32,628.24,31.76Z"/><path class="g" d="M611.58,95.75a32.1,32.1,0,0,1-15.19-4.51A32.78,32.78,0,0,1,593.14,89a34.7,34.7,0,0,1-2.95-2.6,31.65,31.65,0,0,1-4.82-6.11A31.71,31.71,0,0,0,597,90.11a30.15,30.15,0,0,0,14.58,3.07Z"/><path class="h" d="M613.5,93.19a30,30,0,0,0,14.57-3.07,32,32,0,0,0,11.63-9.83,32.58,32.58,0,0,1-11,10.95,32,32,0,0,1-15.18,4.51Z"/><g class="i"><path class="f" d="M585.9,52.3h13v2.24H588.39L587.56,63a6.77,6.77,0,0,1,5.25-2.39,7.06,7.06,0,0,1,5.24,2.18,7.53,7.53,0,0,1,2.12,5.45,7.16,7.16,0,0,1-2.32,5.48,8.47,8.47,0,0,1-6,2.15,10.1,10.1,0,0,1-8-3.74l1.71-2a7.59,7.59,0,0,0,6.28,3.32A5.54,5.54,0,0,0,595.81,72a4.91,4.91,0,0,0,1.57-3.74,5.06,5.06,0,0,0-1.44-3.74,4.93,4.93,0,0,0-3.66-1.45,4.67,4.67,0,0,0-4.66,2.9l-2.86-1.14Z"/><path class="f" d="M618.85,55.34a13.8,13.8,0,0,1,2.55,8.56,13.94,13.94,0,0,1-2.54,8.58,7.79,7.79,0,0,1-12.87,0,13.88,13.88,0,0,1-2.55-8.58A13.88,13.88,0,0,1,606,55.32a7.78,7.78,0,0,1,12.86,0ZM608,57.11A12.38,12.38,0,0,0,606.3,64,12.59,12.59,0,0,0,608,70.8a5.07,5.07,0,0,0,4.44,2.65,5.13,5.13,0,0,0,4.46-2.65A12.42,12.42,0,0,0,618.59,64a12.54,12.54,0,0,0-1.71-6.87,5.13,5.13,0,0,0-4.46-2.67A5,5,0,0,0,608,57.11Z"/><path class="f" d="M640.08,55.34a13.86,13.86,0,0,1,2.55,8.56,13.88,13.88,0,0,1-2.55,8.58,7.79,7.79,0,0,1-12.87,0,13.94,13.94,0,0,1-2.54-8.58,13.94,13.94,0,0,1,2.54-8.58,7.79,7.79,0,0,1,12.87,0Zm-10.84,1.77A12.38,12.38,0,0,0,627.53,64a12.59,12.59,0,0,0,1.68,6.85,5.07,5.07,0,0,0,4.44,2.65,5.13,5.13,0,0,0,4.46-2.65,12.5,12.5,0,0,0,1.7-6.85,12.62,12.62,0,0,0-1.7-6.87,5.13,5.13,0,0,0-4.46-2.67A5,5,0,0,0,629.24,57.11Z"/></g><g class="i"><path class="j" d="M585.54,51.94h13v2.24H588l-.83,8.46a6.8,6.8,0,0,1,5.25-2.39,7,7,0,0,1,5.24,2.19,7.48,7.48,0,0,1,2.13,5.45,7.14,7.14,0,0,1-2.33,5.47,8.42,8.42,0,0,1-6,2.16,10.12,10.12,0,0,1-8-3.75l1.72-2a7.61,7.61,0,0,0,6.27,3.32,5.51,5.51,0,0,0,3.94-1.44A4.89,4.89,0,0,0,597,67.89a5.07,5.07,0,0,0-1.44-3.75,4.93,4.93,0,0,0-3.66-1.45,4.66,4.66,0,0,0-4.65,2.91l-2.86-1.15Z"/><path class="j" d="M618.48,55A13.75,13.75,0,0,1,621,63.53a13.92,13.92,0,0,1-2.54,8.59,7.79,7.79,0,0,1-12.87,0,13.93,13.93,0,0,1-2.55-8.59A13.88,13.88,0,0,1,605.62,55a7.77,7.77,0,0,1,12.86,0Zm-10.83,1.76a12.44,12.44,0,0,0-1.72,6.85,12.47,12.47,0,0,0,1.69,6.84,5.05,5.05,0,0,0,8.89,0,12.38,12.38,0,0,0,1.71-6.84,12.54,12.54,0,0,0-1.71-6.87,5.11,5.11,0,0,0-4.46-2.67A5,5,0,0,0,607.65,56.74Z"/><path class="j" d="M639.71,55a13.75,13.75,0,0,1,2.55,8.55,14,14,0,0,1-2.54,8.59,7.79,7.79,0,0,1-12.87,0,13.93,13.93,0,0,1-2.55-8.59A13.88,13.88,0,0,1,626.85,55a7.77,7.77,0,0,1,12.86,0Zm-10.83,1.76a12.36,12.36,0,0,0-1.72,6.85,12.56,12.56,0,0,0,1.68,6.84,5.06,5.06,0,0,0,8.9,0,12.38,12.38,0,0,0,1.71-6.84,12.54,12.54,0,0,0-1.71-6.87,5.12,5.12,0,0,0-4.46-2.67A5,5,0,0,0,628.88,56.74Z"/></g><path class="k" d="M611.91,39.57h-.73l-.76,2.58a5.27,5.27,0,0,1-1.19.1,4,4,0,0,1-1.38-.19l-.09-.14L611.66,30a11,11,0,0,1,1.62-.11,8.39,8.39,0,0,1,1.66.13l3.87,11.9a2.84,2.84,0,0,1-1.4.34,2,2,0,0,1-1.3-.32,2.62,2.62,0,0,1-.64-1.22l-.33-1.18h-.7Zm0-2.23h2.67l-.31-1.1c-.28-1-.6-2.21-1-3.65h-.11c-.09.51-.36,1.64-.85,3.39Z"/><path class="l" d="M611.55,39.57h-.73l-.76,2.58a5.32,5.32,0,0,1-1.19.1,4.1,4.1,0,0,1-1.39-.19l-.09-.14L611.3,30a10.8,10.8,0,0,1,1.61-.11,8.49,8.49,0,0,1,1.67.13l3.87,11.9a2.88,2.88,0,0,1-1.41.34,2,2,0,0,1-1.29-.32,2.62,2.62,0,0,1-.64-1.22l-.34-1.18h-.69Zm0-2.23h2.66l-.3-1.1c-.29-1-.61-2.21-1-3.65h-.1c-.1.51-.37,1.64-.86,3.39Z"/><g class="m"><rect class="n" x="47.39" y="20.23" width="149.22" height="69.7" rx="0.88"/><path class="o" d="M192.72,24.12V86H51.28V24.12H192.72m3-7.78H48.27a4.78,4.78,0,0,0-4.77,4.77v68a4.78,4.78,0,0,0,4.77,4.77H195.73a4.78,4.78,0,0,0,4.77-4.77h0V21.11a4.78,4.78,0,0,0-4.77-4.77Z"/><path class="o" d="M43.5,37.14a20.8,20.8,0,0,0,20.8-20.8H43.5Z"/><path class="o" d="M179.7,16.34a20.8,20.8,0,0,0,20.8,20.8V16.34Z"/><path class="o" d="M200.5,73a20.8,20.8,0,0,0-20.8,20.8h20.8Z"/><path class="o" d="M64.3,93.81A20.8,20.8,0,0,0,43.5,73v20.8Z"/><circle class="p" cx="192.38" cy="85.58" r="7.53"/><path class="n" d="M188.88,88.07a.7.7,0,0,1,1-.1,4.37,4.37,0,0,0,2.55,1,2.88,2.88,0,0,0,1.66-.49,1.24,1.24,0,0,0,.58-1,.82.82,0,0,0-.12-.43,1.32,1.32,0,0,0-.39-.39,5.45,5.45,0,0,0-1.83-.63h0a7.4,7.4,0,0,1-1.72-.51,3,3,0,0,1-1.24-1,2,2,0,0,1-.3-1.09,2.42,2.42,0,0,1,1.07-1.94,3.93,3.93,0,0,1,2.3-.71,5.31,5.31,0,0,1,2.91,1.06.69.69,0,0,1,.18,1,.67.67,0,0,1-.92.22l0,0a3.91,3.91,0,0,0-2.15-.85,2.56,2.56,0,0,0-1.49.45,1.06,1.06,0,0,0-.51.84.66.66,0,0,0,.09.39,1.5,1.5,0,0,0,.36.35,4.56,4.56,0,0,0,1.67.58h0a8,8,0,0,1,1.84.56,3.13,3.13,0,0,1,1.33,1.11,2.15,2.15,0,0,1,.32,1.13,2.55,2.55,0,0,1-1.15,2.07,4.16,4.16,0,0,1-2.46.78A5.77,5.77,0,0,1,189,89.08a.7.7,0,0,1-.13-1Z"/><path class="n" d="M192.49,91.78a.67.67,0,0,1-.68-.67h0V80a.68.68,0,0,1,.68-.67.67.67,0,0,1,.67.67V91.12A.67.67,0,0,1,192.49,91.78Z"/></g><path class="q" d="M67.56,32.54h2.73V76.33h-3.5V36.66l-7.56,3.91L57.78,37.7Z"/><path class="q" d="M104.34,38.28q4.6,6.45,4.6,16.17t-4.6,16.21q-4.61,6.42-11.64,6.42t-11.64-6.4q-4.61-6.42-4.6-16.23t4.63-16.22q4.64-6.37,11.61-6.37T104.34,38.28ZM83.73,40.51Q80.27,46,80.27,54.62T83.7,68.67q3.42,5.37,9,5.37t9.09-5.44q3.48-5.44,3.47-14.08t-3.5-14.15q-3.42-5.4-9-5.4C89,35,86,36.82,83.71,40.51Z"/><path class="q" d="M143,38.28q4.6,6.45,4.6,16.17T143,70.66q-4.62,6.44-11.64,6.44t-11.64-6.42q-4.6-6.42-4.61-16.23t4.64-16.22q4.64-6.37,11.61-6.37T143,38.28Zm-20.61,2.23q-3.47,5.45-3.46,14.11t3.43,14.05q3.42,5.37,9,5.37t9.1-5.44Q144,63.16,144,54.52t-3.5-14.15q-3.42-5.4-9.05-5.4t-9,5.54Z"/><path class="q" d="M181.66,38.28q4.59,6.45,4.6,16.17t-4.6,16.21q-4.6,6.42-11.64,6.42t-11.65-6.4q-4.59-6.42-4.6-16.23t4.63-16.22Q163,31.85,170,31.86T181.66,38.28ZM161,40.51q-3.45,5.45-3.45,14.11T161,68.67Q164.45,74,170.06,74t9.09-5.44q3.48-5.44,3.48-14.08t-3.5-14.15q-3.42-5.38-9-5.39T161,40.51Z"/><path class="q" d="M45.59,20.47H46v5.79h-.46V21l-1,.52-.19-.39Z"/><path class="q" d="M50.46,21.23a3.61,3.61,0,0,1,.61,2.14,3.61,3.61,0,0,1-.61,2.14,1.82,1.82,0,0,1-2.51.57,1.73,1.73,0,0,1-.57-.57,3.54,3.54,0,0,1-.61-2.14,3.56,3.56,0,0,1,.62-2.15,1.83,1.83,0,0,1,2.51-.57,1.79,1.79,0,0,1,.56.57Zm-2.73.29a3.5,3.5,0,0,0-.45,1.87,3.47,3.47,0,0,0,.45,1.86,1.37,1.37,0,0,0,1.85.55,1.33,1.33,0,0,0,.55-.55,3.39,3.39,0,0,0,.46-1.86,3.4,3.4,0,0,0-.48-1.89A1.36,1.36,0,0,0,48.28,21a1.34,1.34,0,0,0-.56.57Z"/><path class="q" d="M55.57,21.23a3.54,3.54,0,0,1,.61,2.14,3.54,3.54,0,0,1-.61,2.14,1.82,1.82,0,0,1-3.08,0,3.61,3.61,0,0,1-.61-2.14,3.56,3.56,0,0,1,.62-2.15A1.83,1.83,0,0,1,55,20.65a1.79,1.79,0,0,1,.56.57Zm-2.72.29a3.42,3.42,0,0,0-.46,1.87,3.46,3.46,0,0,0,.44,1.86,1.36,1.36,0,0,0,2.4,0,3.37,3.37,0,0,0,.46-1.86,3.43,3.43,0,0,0-.46-1.88,1.38,1.38,0,0,0-1.2-.71,1.36,1.36,0,0,0-1.2.73Z"/><path class="q" d="M60.69,21.23a3.54,3.54,0,0,1,.61,2.14,3.61,3.61,0,0,1-.61,2.14,1.82,1.82,0,0,1-2.51.57,1.73,1.73,0,0,1-.57-.57A3.54,3.54,0,0,1,57,23.37a3.62,3.62,0,0,1,.61-2.15,1.83,1.83,0,0,1,2.51-.57,1.94,1.94,0,0,1,.57.57ZM58,21.52a3.43,3.43,0,0,0-.47,1.87A3.47,3.47,0,0,0,58,25.25a1.37,1.37,0,0,0,1.85.55,1.33,1.33,0,0,0,.55-.55,3.39,3.39,0,0,0,.46-1.86,3.43,3.43,0,0,0-.46-1.88A1.35,1.35,0,0,0,58.52,21a1.42,1.42,0,0,0-.57.57Z"/><circle class="d" cx="613" cy="226.84" r="42.5"/><circle class="e" cx="613" cy="226.84" r="35.06"/><path class="f" d="M579.15,227.44a35.07,35.07,0,0,1,50.09-31.68,35.07,35.07,0,0,0-32.45,62.18l1.18.58A35.07,35.07,0,0,1,579.15,227.44Z"/><path class="g" d="M629.24,195.76A35.07,35.07,0,0,1,598,258.52a35.06,35.06,0,1,0,32.44-62.17C630,196.14,629.64,196,629.24,195.76Z"/><path class="g" d="M612.58,259.75a32.1,32.1,0,0,1-15.19-4.51,32.78,32.78,0,0,1-3.25-2.23,34.7,34.7,0,0,1-2.95-2.6,31.65,31.65,0,0,1-4.82-6.11A31.71,31.71,0,0,0,598,254.11a30.15,30.15,0,0,0,14.58,3.07Z"/><path class="h" d="M614.5,257.19a30,30,0,0,0,14.57-3.07,32,32,0,0,0,11.63-9.83,32.58,32.58,0,0,1-11,11,32,32,0,0,1-15.18,4.51Z"/><g class="i"><path class="f" d="M586.9,216.3h13v2.24H589.39l-.83,8.47a6.77,6.77,0,0,1,5.25-2.39,7.06,7.06,0,0,1,5.24,2.18,7.53,7.53,0,0,1,2.12,5.45,7.16,7.16,0,0,1-2.32,5.48,8.47,8.47,0,0,1-6,2.15,10.1,10.1,0,0,1-8-3.74l1.71-2a7.59,7.59,0,0,0,6.28,3.32,5.54,5.54,0,0,0,3.94-1.44,4.91,4.91,0,0,0,1.57-3.74,5.06,5.06,0,0,0-1.44-3.74,4.93,4.93,0,0,0-3.66-1.45,4.67,4.67,0,0,0-4.66,2.9l-2.86-1.14Z"/><path class="f" d="M619.85,219.34a13.8,13.8,0,0,1,2.55,8.56,13.94,13.94,0,0,1-2.54,8.58,7.79,7.79,0,0,1-12.87,0,15.71,15.71,0,0,1,0-17.16,7.78,7.78,0,0,1,12.86,0ZM609,221.11A12.38,12.38,0,0,0,607.3,228,12.59,12.59,0,0,0,609,234.8a5.07,5.07,0,0,0,4.44,2.65,5.13,5.13,0,0,0,4.46-2.65,14.62,14.62,0,0,0,0-13.72,5.13,5.13,0,0,0-4.46-2.67A5,5,0,0,0,609,221.11Z"/><path class="f" d="M641.08,219.34a15.68,15.68,0,0,1,0,17.14,7.79,7.79,0,0,1-12.87,0,15.76,15.76,0,0,1,0-17.16,7.79,7.79,0,0,1,12.87,0Zm-10.84,1.77a12.38,12.38,0,0,0-1.71,6.84,12.59,12.59,0,0,0,1.68,6.85,5.07,5.07,0,0,0,4.44,2.65,5.13,5.13,0,0,0,4.46-2.65,14.69,14.69,0,0,0,0-13.72,5.13,5.13,0,0,0-4.46-2.67A5,5,0,0,0,630.24,221.11Z"/></g><g class="i"><path class="j" d="M586.54,215.94h13v2.24H589l-.83,8.46a6.8,6.8,0,0,1,5.25-2.39,7,7,0,0,1,5.24,2.19,7.48,7.48,0,0,1,2.13,5.45,7.14,7.14,0,0,1-2.33,5.47,8.42,8.42,0,0,1-6,2.16,10.12,10.12,0,0,1-8-3.75l1.72-2a7.61,7.61,0,0,0,6.27,3.32,5.51,5.51,0,0,0,3.94-1.44,4.89,4.89,0,0,0,1.57-3.74,5.07,5.07,0,0,0-1.44-3.75,4.93,4.93,0,0,0-3.66-1.45,4.66,4.66,0,0,0-4.65,2.91l-2.86-1.15Z"/><path class="j" d="M619.48,219a13.75,13.75,0,0,1,2.55,8.55,13.92,13.92,0,0,1-2.54,8.59,7.79,7.79,0,0,1-12.87,0,15.73,15.73,0,0,1,0-17.17,7.77,7.77,0,0,1,12.86,0Zm-10.83,1.76a14.59,14.59,0,0,0,0,13.69,5.05,5.05,0,0,0,8.89,0,12.38,12.38,0,0,0,1.71-6.84,12.54,12.54,0,0,0-1.71-6.87,5.11,5.11,0,0,0-4.46-2.67A5,5,0,0,0,608.65,220.74Z"/><path class="j" d="M640.71,219a13.75,13.75,0,0,1,2.55,8.55,14,14,0,0,1-2.54,8.59,7.79,7.79,0,0,1-12.87,0,15.73,15.73,0,0,1,0-17.17,7.77,7.77,0,0,1,12.86,0Zm-10.83,1.76a12.36,12.36,0,0,0-1.72,6.85,12.56,12.56,0,0,0,1.68,6.84,5.06,5.06,0,0,0,8.9,0,12.38,12.38,0,0,0,1.71-6.84,12.54,12.54,0,0,0-1.71-6.87,5.12,5.12,0,0,0-4.46-2.67A5,5,0,0,0,629.88,220.74Z"/></g><path class="k" d="M612.91,203.57h-.73l-.76,2.58a5.27,5.27,0,0,1-1.19.1,4,4,0,0,1-1.38-.19l-.09-.14,3.9-11.91a11,11,0,0,1,1.62-.11,8.39,8.39,0,0,1,1.66.13l3.87,11.9a2.84,2.84,0,0,1-1.4.34,2,2,0,0,1-1.3-.32,2.62,2.62,0,0,1-.64-1.22l-.33-1.18h-.7Zm0-2.23h2.67l-.31-1.1c-.28-1-.6-2.21-1-3.65h-.11c-.09.51-.36,1.64-.85,3.39Z"/><path class="l" d="M612.55,203.57h-.73l-.76,2.58a5.32,5.32,0,0,1-1.19.1,4.1,4.1,0,0,1-1.39-.19l-.09-.14L612.3,194a10.8,10.8,0,0,1,1.61-.11,8.49,8.49,0,0,1,1.67.13l3.87,11.9a2.88,2.88,0,0,1-1.41.34,2,2,0,0,1-1.29-.32,2.62,2.62,0,0,1-.64-1.22l-.34-1.18h-.69Zm0-2.23h2.66l-.3-1.1c-.29-1-.61-2.21-1-3.65h-.1c-.1.51-.37,1.64-.86,3.39Z"/><g class="r"><rect class="n" x="26.39" y="178.23" width="149.22" height="69.7" rx="0.88"/><path class="o" d="M171.72,182.12V244H30.28V182.12H171.72m3-7.78H27.27a4.78,4.78,0,0,0-4.77,4.77v67.95a4.78,4.78,0,0,0,4.77,4.77H174.73a4.78,4.78,0,0,0,4.77-4.77h0V179.11a4.78,4.78,0,0,0-4.77-4.77Z"/><path class="o" d="M22.5,195.14a20.8,20.8,0,0,0,20.8-20.8H22.5Z"/><path class="o" d="M158.7,174.34a20.8,20.8,0,0,0,20.8,20.8v-20.8Z"/><path class="o" d="M179.5,231a20.8,20.8,0,0,0-20.8,20.8h20.8Z"/><path class="o" d="M43.3,251.81A20.8,20.8,0,0,0,22.5,231v20.8Z"/><circle class="p" cx="171.38" cy="243.58" r="7.53"/><path class="n" d="M167.88,246.07a.7.7,0,0,1,1-.1,4.37,4.37,0,0,0,2.55,1,2.88,2.88,0,0,0,1.66-.49,1.24,1.24,0,0,0,.58-1,.82.82,0,0,0-.12-.43,1.32,1.32,0,0,0-.39-.39,5.45,5.45,0,0,0-1.83-.63h0a7.4,7.4,0,0,1-1.72-.51,3,3,0,0,1-1.24-1.05,2,2,0,0,1-.3-1.09,2.42,2.42,0,0,1,1.07-1.94,3.93,3.93,0,0,1,2.3-.71,5.31,5.31,0,0,1,2.91,1.06.69.69,0,0,1,.18.95.67.67,0,0,1-.92.22l0,0a3.91,3.91,0,0,0-2.15-.85,2.56,2.56,0,0,0-1.49.45,1.06,1.06,0,0,0-.51.84.66.66,0,0,0,.09.39,1.5,1.5,0,0,0,.36.35,4.56,4.56,0,0,0,1.67.58h0a8,8,0,0,1,1.84.56,3.13,3.13,0,0,1,1.33,1.11,2.15,2.15,0,0,1,.32,1.13,2.55,2.55,0,0,1-1.15,2.07,4.16,4.16,0,0,1-2.46.78,5.77,5.77,0,0,1-3.42-1.34.7.7,0,0,1-.13-1Z"/><path class="n" d="M171.49,249.78a.67.67,0,0,1-.68-.67h0V238a.68.68,0,0,1,.68-.67.67.67,0,0,1,.67.67v11.08A.67.67,0,0,1,171.49,249.78Z"/></g><path class="q" d="M46.56,190.54h2.73v43.79h-3.5V194.66l-7.56,3.91-1.45-2.87Z"/><path class="q" d="M83.34,196.28q4.6,6.45,4.6,16.17t-4.6,16.21q-4.61,6.42-11.64,6.42t-11.64-6.4q-4.61-6.42-4.6-16.23t4.63-16.22q4.63-6.37,11.61-6.37T83.34,196.28Zm-20.61,2.23q-3.46,5.44-3.46,14.11t3.43,14q3.42,5.37,9,5.37t9.09-5.44q3.48-5.44,3.47-14.08t-3.5-14.15q-3.42-5.4-9-5.4c-3.75,0-6.76,1.85-9.06,5.54Z"/><path class="q" d="M122,196.28q4.6,6.45,4.6,16.17T122,228.66q-4.62,6.43-11.64,6.44t-11.64-6.42q-4.6-6.42-4.61-16.23t4.64-16.22q4.64-6.37,11.61-6.37T122,196.28Zm-20.61,2.23q-3.47,5.44-3.46,14.11t3.43,14q3.42,5.37,9,5.37t9.1-5.44q3.47-5.44,3.47-14.08t-3.5-14.15q-3.42-5.4-9-5.4t-9,5.54Z"/><path class="q" d="M160.66,196.28q4.59,6.45,4.6,16.17t-4.6,16.21q-4.6,6.42-11.64,6.42t-11.65-6.4q-4.59-6.42-4.6-16.23t4.63-16.22q4.64-6.37,11.62-6.37T160.66,196.28ZM140,198.51q-3.45,5.44-3.45,14.11t3.42,14q3.44,5.37,9.05,5.37t9.09-5.44q3.48-5.44,3.48-14.08t-3.5-14.15q-3.42-5.38-9-5.39T140,198.51Z"/><path class="q" d="M24.59,178.47H25v5.79h-.46V179l-1,.52-.19-.39Z"/><path class="q" d="M29.46,179.23a4.06,4.06,0,0,1,0,4.28,1.82,1.82,0,0,1-2.51.57,1.73,1.73,0,0,1-.57-.57,4,4,0,0,1,0-4.29,1.83,1.83,0,0,1,2.51-.57,1.79,1.79,0,0,1,.56.57Zm-2.73.29a4.09,4.09,0,0,0,0,3.73,1.37,1.37,0,0,0,1.85.55,1.33,1.33,0,0,0,.55-.55,4,4,0,0,0,0-3.75,1.36,1.36,0,0,0-1.83-.55,1.34,1.34,0,0,0-.56.57Z"/><path class="q" d="M34.57,179.23a4.06,4.06,0,0,1,0,4.28,1.82,1.82,0,0,1-3.08,0,3.61,3.61,0,0,1-.61-2.14,3.56,3.56,0,0,1,.62-2.15,1.83,1.83,0,0,1,2.51-.57,1.79,1.79,0,0,1,.56.57Zm-2.72.29a3.42,3.42,0,0,0-.46,1.87,3.46,3.46,0,0,0,.44,1.86,1.36,1.36,0,0,0,2.4,0,3.37,3.37,0,0,0,.46-1.86,3.43,3.43,0,0,0-.46-1.88,1.38,1.38,0,0,0-1.2-.71,1.36,1.36,0,0,0-1.2.73Z"/><path class="q" d="M39.69,179.23a3.54,3.54,0,0,1,.61,2.14,3.61,3.61,0,0,1-.61,2.14,1.82,1.82,0,0,1-2.51.57,1.73,1.73,0,0,1-.57-.57,3.54,3.54,0,0,1-.61-2.14,3.62,3.62,0,0,1,.61-2.15,1.83,1.83,0,0,1,2.51-.57,1.94,1.94,0,0,1,.57.57Zm-2.72.29a3.43,3.43,0,0,0-.47,1.87,3.47,3.47,0,0,0,.45,1.86,1.37,1.37,0,0,0,1.85.55,1.33,1.33,0,0,0,.55-.55,3.39,3.39,0,0,0,.46-1.86,3.43,3.43,0,0,0-.46-1.88,1.35,1.35,0,0,0-1.83-.55,1.42,1.42,0,0,0-.57.57Z"/><g class="s"><rect class="n" x="47.39" y="199.23" width="149.22" height="69.7" rx="0.88"/><path class="o" d="M192.72,203.12V265H51.28V203.12H192.72m3-7.78H48.27a4.78,4.78,0,0,0-4.77,4.77v67.95a4.78,4.78,0,0,0,4.77,4.77H195.73a4.78,4.78,0,0,0,4.77-4.77h0V200.11a4.78,4.78,0,0,0-4.77-4.77Z"/><path class="o" d="M43.5,216.14a20.8,20.8,0,0,0,20.8-20.8H43.5Z"/><path class="o" d="M179.7,195.34a20.8,20.8,0,0,0,20.8,20.8v-20.8Z"/><path class="o" d="M200.5,252a20.8,20.8,0,0,0-20.8,20.8h20.8Z"/><path class="o" d="M64.3,272.81A20.8,20.8,0,0,0,43.5,252v20.8Z"/><circle class="p" cx="192.38" cy="264.58" r="7.53"/><path class="n" d="M188.88,267.07a.7.7,0,0,1,1-.1,4.37,4.37,0,0,0,2.55,1,2.88,2.88,0,0,0,1.66-.49,1.24,1.24,0,0,0,.58-1,.82.82,0,0,0-.12-.43,1.32,1.32,0,0,0-.39-.39,5.45,5.45,0,0,0-1.83-.63h0a7.4,7.4,0,0,1-1.72-.51,3,3,0,0,1-1.24-1,2,2,0,0,1-.3-1.09,2.42,2.42,0,0,1,1.07-1.94,3.93,3.93,0,0,1,2.3-.71,5.31,5.31,0,0,1,2.91,1.06.69.69,0,0,1,.18.95.67.67,0,0,1-.92.22l0,0a3.91,3.91,0,0,0-2.15-.85,2.56,2.56,0,0,0-1.49.45,1.06,1.06,0,0,0-.51.84.66.66,0,0,0,.09.39,1.5,1.5,0,0,0,.36.35,4.56,4.56,0,0,0,1.67.58h0a8,8,0,0,1,1.84.56,3.13,3.13,0,0,1,1.33,1.11,2.15,2.15,0,0,1,.32,1.13,2.55,2.55,0,0,1-1.15,2.07,4.16,4.16,0,0,1-2.46.78,5.77,5.77,0,0,1-3.42-1.34.7.7,0,0,1-.13-1Z"/><path class="n" d="M192.49,270.78a.67.67,0,0,1-.68-.67h0V259a.68.68,0,0,1,.68-.67.67.67,0,0,1,.67.67v11.08A.67.67,0,0,1,192.49,270.78Z"/></g><path class="q" d="M67.56,211.54h2.73v43.79h-3.5V215.66l-7.56,3.91-1.45-2.87Z"/><path class="q" d="M104.34,217.28q4.6,6.45,4.6,16.17t-4.6,16.21q-4.61,6.42-11.64,6.42t-11.64-6.4q-4.61-6.42-4.6-16.23t4.63-16.22q4.64-6.37,11.61-6.37T104.34,217.28Zm-20.61,2.23q-3.47,5.44-3.46,14.11t3.43,14q3.42,5.37,9,5.37t9.09-5.44q3.48-5.44,3.47-14.08t-3.5-14.15q-3.42-5.4-9-5.4c-3.75,0-6.76,1.85-9.06,5.54Z"/><path class="q" d="M143,217.28q4.6,6.45,4.6,16.17T143,249.66q-4.62,6.43-11.64,6.44t-11.64-6.42q-4.6-6.42-4.61-16.23t4.64-16.22q4.64-6.37,11.61-6.37T143,217.28Zm-20.61,2.23q-3.47,5.44-3.46,14.11t3.43,14q3.42,5.37,9,5.37t9.1-5.44q3.47-5.44,3.47-14.08t-3.5-14.15q-3.42-5.4-9.05-5.4t-9,5.54Z"/><path class="q" d="M181.66,217.28q4.59,6.45,4.6,16.17t-4.6,16.21q-4.6,6.42-11.64,6.42t-11.65-6.4q-4.59-6.42-4.6-16.23t4.63-16.22q4.64-6.37,11.62-6.37T181.66,217.28ZM161,219.51q-3.45,5.44-3.45,14.11t3.42,14q3.44,5.37,9.05,5.37t9.09-5.44q3.48-5.44,3.48-14.08t-3.5-14.15q-3.42-5.38-9-5.39T161,219.51Z"/><path class="q" d="M45.59,199.47H46v5.79h-.46V200l-1,.52-.19-.39Z"/><path class="q" d="M50.46,200.23a4.06,4.06,0,0,1,0,4.28,1.82,1.82,0,0,1-2.51.57,1.73,1.73,0,0,1-.57-.57,4,4,0,0,1,0-4.29,1.83,1.83,0,0,1,2.51-.57,1.79,1.79,0,0,1,.56.57Zm-2.73.29a4.09,4.09,0,0,0,0,3.73,1.37,1.37,0,0,0,1.85.55,1.33,1.33,0,0,0,.55-.55,4,4,0,0,0,0-3.75,1.36,1.36,0,0,0-1.83-.55,1.34,1.34,0,0,0-.56.57Z"/><path class="q" d="M55.57,200.23a4.06,4.06,0,0,1,0,4.28,1.82,1.82,0,0,1-3.08,0,3.61,3.61,0,0,1-.61-2.14,3.56,3.56,0,0,1,.62-2.15,1.83,1.83,0,0,1,2.51-.57,1.79,1.79,0,0,1,.56.57Zm-2.72.29a3.42,3.42,0,0,0-.46,1.87,3.46,3.46,0,0,0,.44,1.86,1.36,1.36,0,0,0,2.4,0,3.37,3.37,0,0,0,.46-1.86,3.43,3.43,0,0,0-.46-1.88,1.38,1.38,0,0,0-1.2-.71,1.36,1.36,0,0,0-1.2.73Z"/><path class="q" d="M60.69,200.23a3.54,3.54,0,0,1,.61,2.14,3.61,3.61,0,0,1-.61,2.14,1.82,1.82,0,0,1-2.51.57,1.73,1.73,0,0,1-.57-.57,3.54,3.54,0,0,1-.61-2.14,3.62,3.62,0,0,1,.61-2.15,1.83,1.83,0,0,1,2.51-.57,1.94,1.94,0,0,1,.57.57Zm-2.72.29a3.43,3.43,0,0,0-.47,1.87,3.47,3.47,0,0,0,.45,1.86,1.37,1.37,0,0,0,1.85.55,1.33,1.33,0,0,0,.55-.55,3.39,3.39,0,0,0,.46-1.86,3.43,3.43,0,0,0-.46-1.88,1.35,1.35,0,0,0-1.83-.55,1.42,1.42,0,0,0-.57.57Z"/><g class="t"><rect class="n" x="67.39" y="220.23" width="149.22" height="69.7" rx="0.88"/><path class="o" d="M212.72,224.12V286H71.28V224.12H212.72m3-7.78H68.27a4.78,4.78,0,0,0-4.77,4.77v67.95a4.78,4.78,0,0,0,4.77,4.77H215.73a4.78,4.78,0,0,0,4.77-4.77h0V221.11a4.78,4.78,0,0,0-4.77-4.77Z"/><path class="o" d="M63.5,237.14a20.8,20.8,0,0,0,20.8-20.8H63.5Z"/><path class="o" d="M199.7,216.34a20.8,20.8,0,0,0,20.8,20.8v-20.8Z"/><path class="o" d="M220.5,273a20.8,20.8,0,0,0-20.8,20.8h20.8Z"/><path class="o" d="M84.3,293.81A20.8,20.8,0,0,0,63.5,273v20.8Z"/><circle class="p" cx="212.38" cy="285.58" r="7.53"/><path class="n" d="M208.88,288.07a.7.7,0,0,1,1-.1,4.37,4.37,0,0,0,2.55,1,2.88,2.88,0,0,0,1.66-.49,1.24,1.24,0,0,0,.58-1,.82.82,0,0,0-.12-.43,1.32,1.32,0,0,0-.39-.39,5.45,5.45,0,0,0-1.83-.63h0a7.4,7.4,0,0,1-1.72-.51,3,3,0,0,1-1.24-1,2,2,0,0,1-.3-1.09,2.42,2.42,0,0,1,1.07-1.94,3.93,3.93,0,0,1,2.3-.71,5.31,5.31,0,0,1,2.91,1.06.69.69,0,0,1,.18.95.67.67,0,0,1-.92.22l0,0a3.91,3.91,0,0,0-2.15-.85,2.56,2.56,0,0,0-1.49.45,1.06,1.06,0,0,0-.51.84.66.66,0,0,0,.09.39,1.5,1.5,0,0,0,.36.35,4.56,4.56,0,0,0,1.67.58h0a8,8,0,0,1,1.84.56,3.13,3.13,0,0,1,1.33,1.11,2.15,2.15,0,0,1,.32,1.13,2.55,2.55,0,0,1-1.15,2.07,4.16,4.16,0,0,1-2.46.78,5.77,5.77,0,0,1-3.42-1.34.7.7,0,0,1-.13-1Z"/><path class="n" d="M212.49,291.78a.67.67,0,0,1-.68-.67h0V280a.68.68,0,0,1,.68-.67.67.67,0,0,1,.67.67v11.08A.67.67,0,0,1,212.49,291.78Z"/></g><path class="q" d="M87.56,232.54h2.73v43.79h-3.5V236.66l-7.56,3.91-1.45-2.87Z"/><path class="q" d="M124.34,238.28q4.6,6.45,4.6,16.17t-4.6,16.21q-4.61,6.42-11.64,6.42t-11.64-6.4q-4.61-6.42-4.6-16.23t4.63-16.22q4.64-6.37,11.61-6.37T124.34,238.28Zm-20.61,2.23q-3.47,5.44-3.46,14.11t3.43,14.05q3.42,5.37,9,5.37t9.09-5.44q3.48-5.44,3.47-14.08t-3.5-14.15q-3.42-5.4-9-5.4c-3.75,0-6.76,1.85-9.06,5.54Z"/><path class="q" d="M163,238.28q4.6,6.45,4.6,16.17T163,270.66q-4.62,6.43-11.64,6.44t-11.64-6.42q-4.6-6.42-4.61-16.23t4.64-16.22q4.63-6.37,11.61-6.37T163,238.28Zm-20.61,2.23q-3.46,5.44-3.46,14.11t3.43,14.05q3.42,5.37,9,5.37t9.1-5.44q3.47-5.44,3.47-14.08t-3.5-14.15q-3.42-5.4-9.05-5.4t-9,5.54Z"/><path class="q" d="M201.66,238.28q4.59,6.45,4.6,16.17t-4.6,16.21q-4.6,6.42-11.64,6.42t-11.65-6.4q-4.59-6.42-4.6-16.23t4.63-16.22q4.64-6.37,11.62-6.37T201.66,238.28ZM181,240.51q-3.45,5.44-3.45,14.11T181,268.67q3.44,5.37,9.05,5.37t9.09-5.44q3.48-5.44,3.48-14.08t-3.5-14.15q-3.42-5.38-9-5.39T181,240.51Z"/><path class="q" d="M65.59,220.47H66v5.79h-.46V221l-1,.52-.19-.39Z"/><path class="q" d="M70.46,221.23a4.06,4.06,0,0,1,0,4.28,1.82,1.82,0,0,1-2.51.57,1.73,1.73,0,0,1-.57-.57,4,4,0,0,1,0-4.29,1.83,1.83,0,0,1,2.51-.57,1.79,1.79,0,0,1,.56.57Zm-2.73.29a4.09,4.09,0,0,0,0,3.73,1.37,1.37,0,0,0,1.85.55,1.33,1.33,0,0,0,.55-.55,4,4,0,0,0,0-3.75,1.36,1.36,0,0,0-1.83-.55,1.34,1.34,0,0,0-.56.57Z"/><path class="q" d="M75.57,221.23a4.06,4.06,0,0,1,0,4.28,1.82,1.82,0,0,1-3.08,0,3.61,3.61,0,0,1-.61-2.14,3.56,3.56,0,0,1,.62-2.15,1.83,1.83,0,0,1,2.51-.57,1.79,1.79,0,0,1,.56.57Zm-2.72.29a3.42,3.42,0,0,0-.46,1.87,3.46,3.46,0,0,0,.44,1.86,1.36,1.36,0,0,0,2.4,0,3.37,3.37,0,0,0,.46-1.86,3.43,3.43,0,0,0-.46-1.88,1.38,1.38,0,0,0-1.2-.71,1.36,1.36,0,0,0-1.2.73Z"/><path class="q" d="M80.69,221.23a3.54,3.54,0,0,1,.61,2.14,3.61,3.61,0,0,1-.61,2.14,1.82,1.82,0,0,1-2.51.57,1.73,1.73,0,0,1-.57-.57,3.54,3.54,0,0,1-.61-2.14,3.62,3.62,0,0,1,.61-2.15,1.83,1.83,0,0,1,2.51-.57,1.94,1.94,0,0,1,.57.57Zm-2.72.29a3.43,3.43,0,0,0-.47,1.87,3.47,3.47,0,0,0,.45,1.86,1.37,1.37,0,0,0,1.85.55,1.33,1.33,0,0,0,.55-.55,3.39,3.39,0,0,0,.46-1.86,3.43,3.43,0,0,0-.46-1.88,1.35,1.35,0,0,0-1.83-.55,1.42,1.42,0,0,0-.57.57Z"/></svg>