<svg xmlns="http://www.w3.org/2000/svg" xmlns:xlink="http://www.w3.org/1999/xlink" viewBox="0 0 300 231.67"><defs><style>.cls-1{fill:none;}.cls-2{fill:#d21e26;}.cls-3{fill:#7e1215;}.cls-4{fill:#7d1215;}.cls-5{fill:#65120e;}.cls-6{clip-path:url(#clip-path);}.cls-7{fill:#d11e26;}.cls-8{fill:#d01e26;}.cls-9{fill:#cf1e25;}.cls-10{fill:#ce1d25;}.cls-11{fill:#cd1d25;}.cls-12{fill:#cc1d25;}.cls-13{fill:#cb1d25;}.cls-14{fill:#ca1d24;}.cls-15{fill:#c91d24;}.cls-16{fill:#c81d24;}.cls-17{fill:#c71c24;}.cls-18{fill:#c61c24;}.cls-19{fill:#c51c23;}.cls-20{fill:#c41c23;}.cls-21{fill:#c31c23;}.cls-22{fill:#c21c23;}.cls-23{fill:#c11c23;}.cls-24{fill:#c01b22;}.cls-25{fill:#bf1b22;}.cls-26{fill:#be1b22;}.cls-27{fill:#bd1b22;}.cls-28{fill:#bc1b22;}.cls-29{fill:#bb1b21;}.cls-30{fill:#ba1b21;}.cls-31{fill:#b91a21;}.cls-32{fill:#b81a21;}.cls-33{fill:#b71a21;}.cls-34{fill:#b61a20;}.cls-35{fill:#b51a20;}.cls-36{fill:#b41a20;}.cls-37{fill:#b31a20;}.cls-38{fill:#b21920;}.cls-39{fill:#b1191f;}.cls-40{fill:#b0191f;}.cls-41{fill:#af191f;}.cls-42{fill:#ae191f;}.cls-43{fill:#ad191f;}.cls-44{fill:#ac191e;}.cls-45{fill:#ab181e;}.cls-46{fill:#aa181e;}.cls-47{fill:#a9181e;}.cls-48{fill:#a8181e;}.cls-49{fill:#a6181d;}.cls-50{fill:#a5181d;}.cls-51{fill:#a4181d;}.cls-52{fill:#a3171d;}.cls-53{fill:#a2171c;}.cls-54{fill:#a1171c;}.cls-55{fill:#a0171c;}.cls-56{fill:#9f171c;}.cls-57{fill:#9e171c;}.cls-58{fill:#9d171b;}.cls-59{fill:#9c161b;}.cls-60{fill:#9b161b;}.cls-61{fill:#9a161b;}.cls-62{fill:#99161b;}.cls-63{fill:#98161a;}.cls-64{fill:#97161a;}.cls-65{fill:#96161a;}.cls-66{fill:#95151a;}.cls-67{fill:#94151a;}.cls-68{fill:#931519;}.cls-69{fill:#921519;}.cls-70{fill:#911519;}.cls-71{fill:#901519;}.cls-72{fill:#8f1519;}.cls-73{fill:#8e1418;}.cls-74{fill:#8d1418;}.cls-75{fill:#8c1418;}.cls-76{fill:#8b1418;}.cls-77{fill:#8a1418;}.cls-78{fill:#891417;}.cls-79{fill:#881417;}.cls-80{fill:#871317;}.cls-81{fill:#861317;}.cls-82{fill:#851317;}.cls-83{fill:#841316;}.cls-84{fill:#831316;}.cls-85{fill:#821316;}.cls-86{fill:#811316;}.cls-87{fill:#801216;}.cls-88{fill:#7f1215;}.cls-89{fill:#66100a;}.cls-90{clip-path:url(#clip-path-2);}.cls-91{fill:#c67353;}.cls-92{fill:#bf7760;}.cls-93{fill:#e6edf6;}.cls-94{fill:#bab7bb;}.cls-95{fill:#bec5d1;}.cls-96{fill:#e46c00;}.cls-97{fill:#cc7121;}.cls-98{fill:#fff;}.cls-99{fill:#ca7352;}.cls-100{fill:#bf8288;}.cls-101{fill:#e7b799;}.cls-102{fill:#af5a34;}.cls-103{fill:#bb2525;}</style><clipPath id="clip-path"><rect class="cls-1" x="56.1" y="39.11" width="11.8" height="167.12" transform="translate(124 245.34) rotate(-180)"/></clipPath><clipPath id="clip-path-2"><rect class="cls-1" x="42.62" y="206.23" width="256.83" height="17.78" rx="8.89" transform="translate(342.06 430.24) rotate(-180)"/></clipPath></defs><title>perro pesa</title><g id="Capa_2" data-name="Capa 2"><g id="Capa_2-2" data-name="Capa 2"><polygon class="cls-2" points="294.15 206.53 299.25 211.45 298.44 208.47 296.23 206.79 294.15 206.53"/><polygon class="cls-2" points="299.09 218.35 294.35 223.77 297.44 222.82 299.09 220.01 299.09 218.35"/><polygon class="cls-3" points="48.42 206.61 42.73 211.7 44.01 207.74 47.27 206.36 48.42 206.61"/><polygon class="cls-4" points="42.91 218.4 47.57 223.72 45.01 223.1 42.38 219.56 42.91 218.4"/><path class="cls-5" d="M241.58,224H252.4a3.25,3.25,0,0,1,3.25,3.25v4.41a0,0,0,0,1,0,0H238.33a0,0,0,0,1,0,0v-4.41A3.25,3.25,0,0,1,241.58,224Z" transform="translate(493.98 455.67) rotate(-180)"/><g class="cls-6"><rect class="cls-2" x="56.1" y="39.11" width="11.8" height="0.58"/><rect class="cls-2" x="56.1" y="39.69" width="11.8" height="1.97"/><rect class="cls-7" x="56.1" y="41.66" width="11.8" height="1.97"/><rect class="cls-8" x="56.1" y="43.62" width="11.8" height="1.97"/><rect class="cls-9" x="56.1" y="45.59" width="11.8" height="1.97"/><rect class="cls-10" x="56.1" y="47.56" width="11.8" height="1.97"/><rect class="cls-11" x="56.1" y="49.52" width="11.8" height="1.97"/><rect class="cls-12" x="56.1" y="51.49" width="11.8" height="1.97"/><rect class="cls-13" x="56.1" y="53.46" width="11.8" height="1.97"/><rect class="cls-14" x="56.1" y="55.42" width="11.8" height="1.97"/><rect class="cls-15" x="56.1" y="57.39" width="11.8" height="1.97"/><rect class="cls-16" x="56.1" y="59.35" width="11.8" height="1.97"/><rect class="cls-17" x="56.1" y="61.32" width="11.8" height="1.97"/><rect class="cls-18" x="56.1" y="63.29" width="11.8" height="1.97"/><rect class="cls-19" x="56.1" y="65.25" width="11.8" height="1.97"/><rect class="cls-20" x="56.1" y="67.22" width="11.8" height="1.97"/><rect class="cls-21" x="56.1" y="69.18" width="11.8" height="1.97"/><rect class="cls-22" x="56.1" y="71.15" width="11.8" height="1.97"/><rect class="cls-23" x="56.1" y="73.12" width="11.8" height="1.97"/><rect class="cls-24" x="56.1" y="75.08" width="11.8" height="1.97"/><rect class="cls-25" x="56.1" y="77.05" width="11.8" height="1.97"/><rect class="cls-26" x="56.1" y="79.01" width="11.8" height="1.97"/><rect class="cls-27" x="56.1" y="80.98" width="11.8" height="1.97"/><rect class="cls-28" x="56.1" y="82.95" width="11.8" height="1.97"/><rect class="cls-29" x="56.1" y="84.91" width="11.8" height="1.97"/><rect class="cls-30" x="56.1" y="86.88" width="11.8" height="1.97"/><rect class="cls-31" x="56.1" y="88.85" width="11.8" height="1.97"/><rect class="cls-32" x="56.1" y="90.81" width="11.8" height="1.97"/><rect class="cls-33" x="56.1" y="92.78" width="11.8" height="1.97"/><rect class="cls-34" x="56.1" y="94.74" width="11.8" height="1.97"/><rect class="cls-35" x="56.1" y="96.71" width="11.8" height="1.97"/><rect class="cls-36" x="56.1" y="98.68" width="11.8" height="1.97"/><rect class="cls-37" x="56.1" y="100.64" width="11.8" height="1.97"/><rect class="cls-38" x="56.1" y="102.61" width="11.8" height="1.97"/><rect class="cls-39" x="56.1" y="104.57" width="11.8" height="1.97"/><rect class="cls-40" x="56.1" y="106.54" width="11.8" height="1.97"/><rect class="cls-41" x="56.1" y="108.51" width="11.8" height="1.97"/><rect class="cls-42" x="56.1" y="110.47" width="11.8" height="1.97"/><rect class="cls-43" x="56.1" y="112.44" width="11.8" height="1.97"/><rect class="cls-44" x="56.1" y="114.4" width="11.8" height="1.97"/><rect class="cls-45" x="56.1" y="116.37" width="11.8" height="1.97"/><rect class="cls-46" x="56.1" y="118.34" width="11.8" height="1.97"/><rect class="cls-47" x="56.1" y="120.3" width="11.8" height="1.97"/><rect class="cls-48" x="56.1" y="122.27" width="11.8" height="1.97"/><rect class="cls-49" x="56.1" y="124.24" width="11.8" height="1.97"/><rect class="cls-50" x="56.1" y="126.2" width="11.8" height="1.97"/><rect class="cls-51" x="56.1" y="128.17" width="11.8" height="1.97"/><rect class="cls-52" x="56.1" y="130.13" width="11.8" height="1.97"/><rect class="cls-53" x="56.1" y="132.1" width="11.8" height="1.97"/><rect class="cls-54" x="56.1" y="134.07" width="11.8" height="1.97"/><rect class="cls-55" x="56.1" y="136.03" width="11.8" height="1.97"/><rect class="cls-56" x="56.1" y="138" width="11.8" height="1.97"/><rect class="cls-57" x="56.1" y="139.96" width="11.8" height="1.97"/><rect class="cls-58" x="56.1" y="141.93" width="11.8" height="1.97"/><rect class="cls-59" x="56.1" y="143.9" width="11.8" height="1.97"/><rect class="cls-60" x="56.1" y="145.86" width="11.8" height="1.97"/><rect class="cls-61" x="56.1" y="147.83" width="11.8" height="1.97"/><rect class="cls-62" x="56.1" y="149.79" width="11.8" height="1.97"/><rect class="cls-63" x="56.1" y="151.76" width="11.8" height="1.97"/><rect class="cls-64" x="56.1" y="153.73" width="11.8" height="1.97"/><rect class="cls-65" x="56.1" y="155.69" width="11.8" height="1.97"/><rect class="cls-66" x="56.1" y="157.66" width="11.8" height="1.97"/><rect class="cls-67" x="56.1" y="159.63" width="11.8" height="1.97"/><rect class="cls-68" x="56.1" y="161.59" width="11.8" height="1.97"/><rect class="cls-69" x="56.1" y="163.56" width="11.8" height="1.97"/><rect class="cls-70" x="56.1" y="165.52" width="11.8" height="1.97"/><rect class="cls-71" x="56.1" y="167.49" width="11.8" height="1.97"/><rect class="cls-72" x="56.1" y="169.46" width="11.8" height="1.97"/><rect class="cls-73" x="56.1" y="171.42" width="11.8" height="1.97"/><rect class="cls-74" x="56.1" y="173.39" width="11.8" height="1.97"/><rect class="cls-75" x="56.1" y="175.35" width="11.8" height="1.97"/><rect class="cls-76" x="56.1" y="177.32" width="11.8" height="1.97"/><rect class="cls-77" x="56.1" y="179.29" width="11.8" height="1.97"/><rect class="cls-78" x="56.1" y="181.25" width="11.8" height="1.97"/><rect class="cls-79" x="56.1" y="183.22" width="11.8" height="1.97"/><rect class="cls-80" x="56.1" y="185.18" width="11.8" height="1.97"/><rect class="cls-81" x="56.1" y="187.15" width="11.8" height="1.97"/><rect class="cls-82" x="56.1" y="189.12" width="11.8" height="1.97"/><rect class="cls-83" x="56.1" y="191.08" width="11.8" height="1.97"/><rect class="cls-84" x="56.1" y="193.05" width="11.8" height="1.97"/><rect class="cls-85" x="56.1" y="195.02" width="11.8" height="1.97"/><rect class="cls-86" x="56.1" y="196.98" width="11.8" height="1.97"/><rect class="cls-87" x="56.1" y="198.95" width="11.8" height="1.97"/><rect class="cls-88" x="56.1" y="200.91" width="11.8" height="1.97"/><rect class="cls-3" x="56.1" y="202.88" width="11.8" height="1.97"/><rect class="cls-4" x="56.1" y="204.85" width="11.8" height="1.38"/></g><path class="cls-89" d="M55.82,38.83H68.18V206.51H55.82Zm11.8.56H56.38V206H67.62Z"/><g class="cls-90"><path class="cls-2" d="M299.44,206.23v0Z"/><rect class="cls-2" x="296.41" y="206.23" width="3.03" height="17.78"/><rect class="cls-7" x="293.38" y="206.23" width="3.03" height="17.78"/><rect class="cls-8" x="290.36" y="206.23" width="3.03" height="17.78"/><rect class="cls-9" x="287.33" y="206.23" width="3.03" height="17.78"/><rect class="cls-10" x="284.3" y="206.23" width="3.03" height="17.78"/><rect class="cls-11" x="281.27" y="206.23" width="3.03" height="17.78"/><rect class="cls-12" x="278.24" y="206.23" width="3.03" height="17.78"/><rect class="cls-13" x="275.21" y="206.23" width="3.03" height="17.78"/><rect class="cls-14" x="272.18" y="206.23" width="3.03" height="17.78"/><rect class="cls-15" x="269.15" y="206.23" width="3.03" height="17.78"/><rect class="cls-16" x="266.12" y="206.23" width="3.03" height="17.78"/><rect class="cls-17" x="263.09" y="206.23" width="3.03" height="17.78"/><rect class="cls-18" x="260.06" y="206.23" width="3.03" height="17.78"/><rect class="cls-19" x="257.04" y="206.23" width="3.03" height="17.78"/><rect class="cls-20" x="254.01" y="206.23" width="3.03" height="17.78"/><rect class="cls-21" x="250.98" y="206.23" width="3.03" height="17.78"/><rect class="cls-22" x="247.95" y="206.23" width="3.03" height="17.78"/><rect class="cls-23" x="244.92" y="206.23" width="3.03" height="17.78"/><rect class="cls-24" x="241.89" y="206.23" width="3.03" height="17.78"/><rect class="cls-25" x="238.86" y="206.23" width="3.03" height="17.78"/><rect class="cls-26" x="235.83" y="206.23" width="3.03" height="17.78"/><rect class="cls-27" x="232.8" y="206.23" width="3.03" height="17.78"/><rect class="cls-28" x="229.77" y="206.23" width="3.03" height="17.78"/><rect class="cls-29" x="226.74" y="206.23" width="3.03" height="17.78"/><rect class="cls-30" x="223.71" y="206.23" width="3.03" height="17.78"/><rect class="cls-31" x="220.69" y="206.23" width="3.03" height="17.78"/><rect class="cls-32" x="217.66" y="206.23" width="3.03" height="17.78"/><rect class="cls-33" x="214.63" y="206.23" width="3.03" height="17.78"/><rect class="cls-34" x="211.6" y="206.23" width="3.03" height="17.78"/><rect class="cls-35" x="208.57" y="206.23" width="3.03" height="17.78"/><rect class="cls-36" x="205.54" y="206.23" width="3.03" height="17.78"/><rect class="cls-37" x="202.51" y="206.23" width="3.03" height="17.78"/><rect class="cls-38" x="199.48" y="206.23" width="3.03" height="17.78"/><rect class="cls-39" x="196.45" y="206.23" width="3.03" height="17.78"/><rect class="cls-40" x="193.42" y="206.23" width="3.03" height="17.78"/><rect class="cls-41" x="190.39" y="206.23" width="3.03" height="17.78"/><rect class="cls-42" x="187.36" y="206.23" width="3.03" height="17.78"/><rect class="cls-43" x="184.34" y="206.23" width="3.03" height="17.78"/><rect class="cls-44" x="181.31" y="206.23" width="3.03" height="17.78"/><rect class="cls-45" x="178.28" y="206.23" width="3.03" height="17.78"/><rect class="cls-46" x="175.25" y="206.23" width="3.03" height="17.78"/><rect class="cls-47" x="172.22" y="206.23" width="3.03" height="17.78"/><rect class="cls-48" x="169.19" y="206.23" width="3.03" height="17.78"/><rect class="cls-49" x="166.16" y="206.23" width="3.03" height="17.78"/><rect class="cls-50" x="163.13" y="206.23" width="3.03" height="17.78"/><rect class="cls-51" x="160.1" y="206.23" width="3.03" height="17.78"/><rect class="cls-52" x="157.07" y="206.23" width="3.03" height="17.78"/><rect class="cls-53" x="154.04" y="206.23" width="3.03" height="17.78"/><rect class="cls-54" x="151.01" y="206.23" width="3.03" height="17.78"/><rect class="cls-55" x="147.99" y="206.23" width="3.03" height="17.78"/><rect class="cls-56" x="144.96" y="206.23" width="3.03" height="17.78"/><rect class="cls-57" x="141.93" y="206.23" width="3.03" height="17.78"/><rect class="cls-58" x="138.9" y="206.23" width="3.03" height="17.78"/><rect class="cls-59" x="135.87" y="206.23" width="3.03" height="17.78"/><rect class="cls-60" x="132.84" y="206.23" width="3.03" height="17.78"/><rect class="cls-61" x="129.81" y="206.23" width="3.03" height="17.78"/><rect class="cls-62" x="126.78" y="206.23" width="3.03" height="17.78"/><rect class="cls-63" x="123.75" y="206.23" width="3.03" height="17.78"/><rect class="cls-64" x="120.72" y="206.23" width="3.03" height="17.78"/><rect class="cls-65" x="117.69" y="206.23" width="3.03" height="17.78"/><rect class="cls-66" x="114.66" y="206.23" width="3.03" height="17.78"/><rect class="cls-67" x="111.64" y="206.23" width="3.03" height="17.78"/><rect class="cls-68" x="108.61" y="206.23" width="3.03" height="17.78"/><rect class="cls-69" x="105.58" y="206.23" width="3.03" height="17.78"/><rect class="cls-70" x="102.55" y="206.23" width="3.03" height="17.78"/><rect class="cls-71" x="99.52" y="206.23" width="3.03" height="17.78"/><rect class="cls-72" x="96.49" y="206.23" width="3.03" height="17.78"/><rect class="cls-73" x="93.46" y="206.23" width="3.03" height="17.78"/><rect class="cls-74" x="90.43" y="206.23" width="3.03" height="17.78"/><rect class="cls-75" x="87.4" y="206.23" width="3.03" height="17.78"/><rect class="cls-76" x="84.37" y="206.23" width="3.03" height="17.78"/><rect class="cls-77" x="81.34" y="206.23" width="3.03" height="17.78"/><rect class="cls-78" x="78.31" y="206.23" width="3.03" height="17.78"/><rect class="cls-79" x="75.29" y="206.23" width="3.03" height="17.78"/><rect class="cls-80" x="72.26" y="206.23" width="3.03" height="17.78"/><rect class="cls-81" x="69.23" y="206.23" width="3.03" height="17.78"/><rect class="cls-82" x="66.2" y="206.23" width="3.03" height="17.78"/><rect class="cls-83" x="63.17" y="206.23" width="3.03" height="17.78"/><rect class="cls-84" x="60.14" y="206.23" width="3.03" height="17.78"/><rect class="cls-85" x="57.11" y="206.23" width="3.03" height="17.78"/><rect class="cls-86" x="54.08" y="206.23" width="3.03" height="17.78"/><rect class="cls-87" x="51.05" y="206.23" width="3.03" height="17.78"/><rect class="cls-88" x="48.02" y="206.23" width="3.03" height="17.78"/><rect class="cls-3" x="44.99" y="206.23" width="3.03" height="17.78"/><rect class="cls-4" x="42.62" y="206.23" width="2.38" height="17.78"/></g><path class="cls-89" d="M42.06,218.62v-7A6,6,0,0,1,48,205.67H294.06a6,6,0,0,1,5.94,5.94v7a5.94,5.94,0,0,1-5.94,5.94H48A5.94,5.94,0,0,1,42.06,218.62ZM48,206.79a4.83,4.83,0,0,0-4.83,4.82v7A4.84,4.84,0,0,0,48,223.45H294.06a4.84,4.84,0,0,0,4.83-4.83v-7a4.83,4.83,0,0,0-4.83-4.82Z"/><path class="cls-5" d="M65.25,224H76.07a3.25,3.25,0,0,1,3.25,3.25v4.41a0,0,0,0,1,0,0H62a0,0,0,0,1,0,0v-4.41A3.25,3.25,0,0,1,65.25,224Z" transform="translate(141.32 455.67) rotate(-180)"/><path class="cls-91" d="M145.08,181.54A12.61,12.61,0,0,0,143,179.3s-.22,1.92-.75,1.92-.17-3.87-.61-4-5.35,4.51-4.15,10l-2.72-1.12s-.19,4.55,1,6.67c.28.44-.44.28-.44.28a8.51,8.51,0,0,0,6.88,9.46l4.9-1.56.92-15.57Z"/><path class="cls-92" d="M142.28,203l-.11,0A9,9,0,0,1,135,193l.07-.42.24.05c-1.08-2.32-.92-6.36-.91-6.54l0-.56,2.58,1.06c-.51-4,1.93-7.55,3.54-9.08.84-.79,1.09-.72,1.23-.69.47.13.51.75.55,2.27,0,.38,0,.9.07,1.3a6.62,6.62,0,0,0,.24-1.15l.07-.63.53.34a12.55,12.55,0,0,1,2.17,2.33l3.09,4-.94,16Zm-6.53-9.45c-.11,1.47-.05,6.94,6.51,8.63l4.53-1.44.9-15.15-2.93-3.76a17,17,0,0,0-1.46-1.73c-.16.82-.46,1.56-1,1.56s-.69-.93-.74-2.47c0-.43,0-1-.07-1.37-1.1.86-4.55,4.83-3.56,9.39l.16.74-2.88-1.18c0,1.26.08,4.32,1,5.88a.55.55,0,0,1,0,.66A.6.6,0,0,1,135.75,193.5Z"/><path class="cls-93" d="M200.13,149.05s15.32,9,13.89,51.3c0,0,7.9,6.44-11,5.82l.12,2.47H188.81v-3.58s-16.93,1.24-25.34-.12v3.7H147.28v-2.71s-8.83-1.49-3.05-6.43c0,0-1.76-31.27,12.08-49.68C157.17,149.05,200.13,149.05,200.13,149.05Z"/><path class="cls-94" d="M203.35,208.84H188.61v-3.57c-2,.14-17.05,1.11-24.94-.1v3.67H147.09v-2.75c-.83-.16-4.38-1-4.94-3-.31-1.1.32-2.34,1.88-3.69-.09-1.95-1.22-32,12.12-49.71.9-.81,36.79-.85,44-.85h.05l0,0c.16.09,3.92,2.36,7.56,9.86,3.34,6.88,7.16,19.67,6.43,41.52.39.34,2.1,1.94,1.52,3.47-.74,2-5,2.87-12.51,2.65ZM189,208.45h13.93l-.12-2.48H203c9.36.32,11.88-1.12,12.35-2.38.54-1.43-1.46-3.07-1.48-3.09l-.07-.06v-.1c1.38-40.62-12.85-50.51-13.75-51.09-16.92,0-42.36.19-43.63.72-13.61,18.15-12,49.21-12,49.52v.1l-.07.06c-1.48,1.27-2.1,2.39-1.83,3.35.55,2,4.75,2.72,4.79,2.73l.16,0v2.69h15.79V204.7l.23,0c8.29,1.34,25.12.14,25.29.12H189Z"/><path class="cls-95" d="M188.81,205.06s1-33.21-11-33.3-14.36,33.18-14.36,33.18l1.92.25s3-23.53,12-23.53c8.51,0,9.74,23.51,9.74,23.51Z"/><path class="cls-95" d="M200.41,180.44s2.58,17.13,1.65,23.64c0,0,1.28.12,1,2.09h4s.57-4.33-1.43-5.07S202.9,183.1,200.41,180.44Z"/><path class="cls-95" d="M147.28,205.93a8.73,8.73,0,0,1,3.19-4.59s.95-16.89,2.25-19.29c0,0-4.3,10.83-4.18,18.35,0,0-3.65,4.38-2.91,5.1Z"/><path class="cls-95" d="M184,161s-24.22,5-32.84-2.3l2.64-5.09,25.19,5Z"/><path class="cls-96" d="M153.77,153.61c11.59,9.41,32.33,11.59,49.57-1.56l-3.21-3s-7.64,6.12-22.22,6.12-21.29-6.12-21.29-6.12Z"/><path class="cls-97" d="M176.83,161.7a37.24,37.24,0,0,1-23.31-7.79l-.27-.22,3.28-5.25.35.32c.07.06,6.8,6,21,6s21.9-6,22-6l.27-.21,3.8,3.55-.38.29A43.9,43.9,0,0,1,176.83,161.7Zm-22.53-8.18c11.28,8.94,31.37,11.25,48.42-1.5l-2.62-2.45c-1.51,1.07-9.16,6-22.19,6-12.87,0-19.61-4.66-21.2-5.92Z"/><path class="cls-98" d="M210,125.62a33.58,33.58,0,0,1-1.82,11c-.18.5,2.59,1.22,2.39,1.7-.26.65-3.49,1.06-3.79,1.68-.17.34.6,1.57.42,1.91s-1.88.75-2.11,1.12a31.52,31.52,0,0,1-27,14.44c-17.27,0-26.33-7.64-29.95-18.64-.14-.44-2.53.45-2.65,0s1-1.36.87-1.74c-.13-.54-2.09,1-2.2.43-.06-.28,2.8-3.35,2.75-3.63a47.56,47.56,0,0,1-.69-8.29,31.87,31.87,0,1,1,63.74,0Z"/><path class="cls-94" d="M178.16,157.68c-15.68,0-26.1-6.49-30.14-18.78a5.35,5.35,0,0,0-1.1.14c-.81.14-1.44.26-1.55-.14s.17-.63.46-1a3,3,0,0,0,.41-.67,3.44,3.44,0,0,0-.83.32c-.58.27-.95.43-1.2.31a.35.35,0,0,1-.17-.24c0-.2.15-.48,1.42-2a17.19,17.19,0,0,0,1.32-1.68,48.45,48.45,0,0,1-.69-8.29,32.07,32.07,0,1,1,64.13,0,33.49,33.49,0,0,1-1.83,11.08,4.87,4.87,0,0,0,1.11.61c.81.38,1.45.68,1.29,1.09s-.88.63-2.06,1a5,5,0,0,0-1.74.71,2.36,2.36,0,0,0,.22.8c.17.47.33.87.2,1.12s-.46.35-1.08.61a3.62,3.62,0,0,0-1,.53A31.78,31.78,0,0,1,178.16,157.68Zm-30.29-19.16c.27,0,.47.06.53.26,4,12.28,14,18.5,29.76,18.5A31.37,31.37,0,0,0,205,142.93a3,3,0,0,1,1.23-.68,3.75,3.75,0,0,0,.88-.43,2.66,2.66,0,0,0-.22-.79c-.18-.46-.33-.86-.21-1.11s.87-.59,2-.92c.68-.2,1.7-.51,1.8-.75a5.8,5.8,0,0,0-1.09-.58c-.81-.38-1.45-.68-1.31-1.1a33.23,33.23,0,0,0,1.81-10.95,31.67,31.67,0,0,0-63.34,0,46.91,46.91,0,0,0,.69,8.25c0,.2-.18.5-1.42,2-.47.56-1.1,1.31-1.29,1.61a5.63,5.63,0,0,0,.77-.31c.59-.27.95-.44,1.2-.32a.36.36,0,0,1,.19.23c.07.28-.19.63-.47,1-.15.21-.43.59-.41.7a5.35,5.35,0,0,0,1.1-.14A6.31,6.31,0,0,1,147.87,138.52Z"/><path class="cls-99" d="M139.61,122.26c-9.09-11,21.15-29.54,25.45-25C169.83,102.35,148.7,133.25,139.61,122.26Z"/><path class="cls-99" d="M215.8,123.14c-6.84,8.53-9.13.14-14.7-5.51-8.21-8.34-19.25-13.93-13.6-19.25C193.74,91.81,227.29,108.79,215.8,123.14Z"/><ellipse cx="190.04" cy="120.72" rx="2.32" ry="2.83"/><path d="M185.41,133.87c0-1.78-2.88-3.22-6.45-3.22s-6.45,1.44-6.45,3.22c0,1.43,4.41,3.22,4.41,3.3,0,.34,1.29,1.23,1.82,1.23s1.81-.9,1.81-1.23C180.55,137.11,185.41,135.38,185.41,133.87Z"/><path class="cls-100" d="M174.76,145.63h0a4.73,4.73,0,0,1-3.91-2,.4.4,0,0,1,.67-.42,4,4,0,0,0,3.24,1.66h0c2,0,3-3.49,3-3.53a.38.38,0,0,1,.4-.29.39.39,0,0,1,.38.32c0,.15.62,3.5,3.27,3.5s3.12-1.56,3.14-1.62a.41.41,0,0,1,.49-.28.4.4,0,0,1,.27.49c0,.09-.62,2.2-3.9,2.2a4.09,4.09,0,0,1-3.7-2.93C177.54,143.92,176.49,145.63,174.76,145.63Z"/><path class="cls-101" d="M171.26,128.8c-3.31,4.58-11.92,6-13.57,4.59-3-2.49-3.36-9.3.2-14.32,3.74-5.27,9.88-7.28,13.57-4.59S175.05,123.57,171.26,128.8Z"/><path class="cls-102" d="M165.06,97.26s-6.71,26.4-26.45,23.46c0,0,2.09,3.73,5.62,3.88C153.8,125,169.43,102.34,165.06,97.26Z"/><path class="cls-102" d="M186.56,103.64s3.41,3.57,5.56,4.48,6.94,1.72,10.44,5.65,5.16,9.16,7.74,9.82A14.84,14.84,0,0,0,215,124s-2.1,2.65-4.19,2.74c-3.49.15-7.51-6.36-8.38-7.66s-10.32-9.46-12.9-11.8A17.53,17.53,0,0,1,186.56,103.64Z"/><ellipse cx="166.85" cy="120.72" rx="2.32" ry="2.83"/><polygon class="cls-103" points="5.85 0.36 5.41 1.07 0.39 6.47 0.75 3.38 2.28 1.29 4.8 0.36 5.85 0.36"/><polygon class="cls-103" points="0.32 60.96 1.02 61.4 6.43 66.42 3.34 66.06 1.24 64.53 0.32 62.01 0.32 60.96"/><polygon class="cls-103" points="118.27 66.54 118.71 65.83 123.72 60.42 123.37 63.51 121.84 65.61 119.31 66.54 118.27 66.54"/><polygon class="cls-103" points="123.75 5.78 123.04 5.34 117.64 0.32 120.73 0.68 122.82 2.21 123.75 4.73 123.75 5.78"/><rect class="cls-103" x="0.28" y="0.28" width="123.44" height="66.2" rx="9.16" transform="translate(124 66.76) rotate(-180)"/><path class="cls-89" d="M0,61.38v-56A5.38,5.38,0,0,1,5.38,0H118.62A5.38,5.38,0,0,1,124,5.38v56a5.39,5.39,0,0,1-5.38,5.38H5.38A5.39,5.39,0,0,1,0,61.38ZM5.38.56A4.82,4.82,0,0,0,.56,5.38v56A4.82,4.82,0,0,0,5.38,66.2H118.62a4.82,4.82,0,0,0,4.82-4.82v-56A4.82,4.82,0,0,0,118.62.56Z"/><rect class="cls-98" x="7.98" y="5.32" width="108.04" height="56.12" rx="5.3" transform="translate(124 66.76) rotate(-180)"/></g></g></svg>