<svg id="Layer_2" data-name="Layer 2" xmlns="http://www.w3.org/2000/svg" viewBox="0 0 800 800"><defs><style>.cls-1{fill:#2d2d2d;}.cls-2{fill:#595959;}.cls-3{fill:#c4c4c4;}.cls-4{fill:#42c6e5;}.cls-14,.cls-5{fill:#fff;}.cls-6{fill:#dd9852;}.cls-7{fill:#9e744f;}.cls-8{fill:#c1814d;}.cls-9{fill:#e5bd98;}.cls-10{fill:#e0b451;}.cls-11{fill:#a08b4e;}.cls-12{fill:#c4a24e;}.cls-13{fill:#a57444;}.cls-14{font-size:63.8px;font-family:OpenSans-Regular, Open Sans;}</style></defs><title>Pesa_05_02</title><rect class="cls-1" x="51.01" y="539.29" width="36.42" height="45.33" rx="12" ry="12"/><rect class="cls-1" x="338.55" y="701.87" width="36.42" height="45.33" rx="12" ry="12"/><rect class="cls-1" x="626.09" y="539.29" width="36.42" height="45.33" rx="12" ry="12"/><polygon class="cls-2" points="662.51 552.29 680.72 540.54 680.72 203.75 662.51 215.56 662.51 552.29"/><polygon class="cls-3" points="626.09 137.24 662.51 158.29 662.51 552.29 626.09 552.29 626.09 137.24"/><polygon class="cls-2" points="730.78 164.29 557.81 64.81 576.02 52.79 748.99 152.32 730.78 164.29"/><polygon class="cls-2" points="730.78 278.79 748.99 267.04 748.99 152.32 730.78 164.13 730.78 278.79"/><polygon class="cls-3" points="730.78 278.79 557.81 179.31 557.81 64.6 730.78 164.13 730.78 278.79"/><polygon class="cls-4" points="719.81 265.2 568.79 178.34 568.79 78.18 719.81 165.09 719.81 265.2"/><polygon class="cls-5" points="52.01 552.2 355.87 375.54 661.5 552.2 355.87 727.05 52.01 552.2"/><path d="M355.87,376.11,660.5,552.2,355.87,726.48,53,552.2,355.87,376.11m0-1.15L51,552.21,355.86,727.63,662.51,552.21,355.86,375Z"/><polygon class="cls-3" points="662.51 526.45 355.87 701.88 51.01 526.45 355.87 349.2 662.51 526.45"/><polygon class="cls-2" points="355.87 727.63 51.01 552.29 51.01 525.54 355.87 700.96 355.87 727.63"/><polygon class="cls-2" points="355.87 727.63 662.51 552.29 662.51 525.54 355.87 700.96 355.87 727.63"/><polygon class="cls-5" points="198.07 547.43 359.12 457.47 513.67 547.42 355.4 637.96 198.07 547.43"/><path d="M359.12,458l153.55,89.38-157.27,90L199.08,547.44l160-89.4m0-1.15L197.06,547.42,355.4,638.54l159.27-91.12L359.13,456.89Z"/><polygon class="cls-6" points="514.67 409.11 355.4 500.22 197.06 409.11 355.4 317.04 514.67 409.11"/><polygon class="cls-7" points="355.4 638.54 197.06 547.47 197.06 408.63 355.4 499.75 355.4 638.54"/><polygon class="cls-8" points="355.4 638.54 514.67 547.47 514.67 408.63 355.4 499.75 355.4 638.54"/><polygon class="cls-9" points="283.14 458.18 442.41 367.11 428.59 359.09 269.32 450.2 283.14 458.18"/><polygon class="cls-9" points="283.14 458.18 283.14 529.14 269.32 521.11 269.32 450.2 283.14 458.18"/><polygon class="cls-5" points="241.68 416.17 358.13 412.94 469.78 416.17 355.39 481.61 241.68 416.17"/><path d="M358.11,413.44,468,416.62,355.39,481,243.46,416.62l114.65-3.18m0-1-118.22,3.28,115.5,66.47,116.18-66.47-113.46-3.28Z"/><polygon class="cls-10" points="471.57 377.59 355.39 444.05 239.89 377.59 355.39 310.43 471.57 377.59"/><polygon class="cls-11" points="355.39 482.19 239.89 415.75 239.89 377.24 355.39 443.71 355.39 482.19"/><polygon class="cls-12" points="355.39 482.19 471.57 415.75 471.57 377.24 355.39 443.71 355.39 482.19"/><polygon class="cls-13" points="302.68 413.38 418.86 346.95 408.78 341.1 292.6 407.57 302.68 413.38"/><polygon class="cls-13" points="302.68 413.38 302.68 433.94 292.6 428.08 292.6 407.57 302.68 413.38"/><text class="cls-14" transform="matrix(0.77, 0.45, 0, 1, 582.27, 154.43)">79 kg</text></svg>