<svg id="Layer_2" data-name="Layer 2" xmlns="http://www.w3.org/2000/svg" viewBox="0 0 1492 800"><defs><style>.cls-1{fill:#fff;}.cls-2{fill:#dd9852;}.cls-3{fill:#9e744f;}.cls-4{fill:#c1814d;}.cls-5{fill:#e5bd98;}.cls-6{fill:#e0b451;}.cls-7{fill:#a08b4e;}.cls-8{fill:#c4a24e;}.cls-9{fill:#a57444;}</style></defs><title>Pesa_05_03</title><polygon class="cls-1" points="39.72 414.9 224.45 311.71 401.72 414.89 220.18 518.75 39.72 414.9"/><path d="M224.44,312.29l176.28,102.6L220.18,518.17,40.73,414.91,224.44,312.29m0-1.15L38.7,414.9,220.18,519.32,402.72,414.9,224.45,311.14Z"/><polygon class="cls-2" points="402.72 256.37 220.18 360.8 38.7 256.37 220.18 150.86 402.72 256.37"/><polygon class="cls-3" points="220.18 519.32 38.7 414.95 38.7 255.83 220.18 360.26 220.18 519.32"/><polygon class="cls-4" points="220.18 519.32 402.72 414.95 402.72 255.83 220.18 360.26 220.18 519.32"/><polygon class="cls-5" points="137.36 312.62 319.9 208.24 304.06 199.04 121.52 303.47 137.36 312.62"/><polygon class="cls-5" points="137.36 312.62 137.36 393.94 121.52 384.74 121.52 303.47 137.36 312.62"/><polygon class="cls-1" points="89.58 264.4 223.3 260.7 351.53 264.4 220.17 339.55 89.58 264.4"/><path d="M223.28,261.2l126.46,3.65L220.17,339,91.36,264.86l131.92-3.66m0-1L87.79,264l132.38,76.18L353.32,264l-130-3.75Z"/><polygon class="cls-6" points="353.32 220.25 220.17 296.42 87.79 220.25 220.17 143.28 353.32 220.25"/><polygon class="cls-7" points="220.17 340.13 87.79 263.99 87.79 219.85 220.17 296.03 220.17 340.13"/><polygon class="cls-8" points="220.17 340.13 353.32 263.99 353.32 219.85 220.17 296.03 220.17 340.13"/><polygon class="cls-9" points="159.76 261.28 292.91 185.14 281.36 178.43 148.2 254.61 159.76 261.28"/><polygon class="cls-9" points="159.76 261.28 159.76 284.83 148.2 278.12 148.2 254.61 159.76 261.28"/><polygon class="cls-1" points="595.33 414.9 780.06 311.71 957.33 414.89 775.79 518.75 595.33 414.9"/><path d="M780.05,312.29l176.28,102.6L775.79,518.17,596.34,414.91,780.05,312.29m0-1.15L594.31,414.9,775.79,519.32,958.33,414.9,780.06,311.14Z"/><polygon class="cls-2" points="958.33 256.37 775.79 360.8 594.32 256.37 775.79 150.86 958.33 256.37"/><polygon class="cls-3" points="775.79 519.32 594.32 414.95 594.32 255.83 775.79 360.26 775.79 519.32"/><polygon class="cls-4" points="775.79 519.32 958.33 414.95 958.33 255.83 775.79 360.26 775.79 519.32"/><polygon class="cls-5" points="692.97 312.62 875.51 208.24 859.67 199.04 677.13 303.47 692.97 312.62"/><polygon class="cls-5" points="692.97 312.62 692.97 393.94 677.13 384.74 677.13 303.47 692.97 312.62"/><polygon class="cls-1" points="1162.71 354 1296.43 350.3 1424.66 354 1293.3 429.15 1162.71 354"/><path d="M1296.41,350.8l126.46,3.65L1293.3,428.57l-128.81-74.12,131.92-3.65m0-1-135.49,3.75,132.38,76.17,133.15-76.17-130-3.75Z"/><polygon class="cls-6" points="1426.45 309.85 1293.3 386.02 1160.92 309.85 1293.3 232.88 1426.45 309.85"/><polygon class="cls-7" points="1293.3 429.73 1160.92 353.59 1160.92 309.45 1293.3 385.63 1293.3 429.73"/><polygon class="cls-8" points="1293.3 429.73 1426.45 353.59 1426.45 309.45 1293.3 385.63 1293.3 429.73"/><polygon class="cls-9" points="1232.88 350.87 1366.04 274.74 1354.48 268.03 1221.33 344.2 1232.88 350.87"/><polygon class="cls-9" points="1232.88 350.87 1232.88 374.43 1221.33 367.72 1221.33 344.2 1232.88 350.87"/><path d="M77.8,606.63,92.89,574H73v-3.81H97.27v3.32L82.38,606.63Z"/><path d="M126.28,585.76q0,21.38-16.53,21.37a16.82,16.82,0,0,1-4.58-.5v-3.56a14.61,14.61,0,0,0,4.53.65q6,0,9-3.7t3.32-11.34h-.3a9,9,0,0,1-3.63,3.15,11.78,11.78,0,0,1-5.11,1.08,10.25,10.25,0,0,1-7.67-2.89q-2.84-2.88-2.84-8.07,0-5.67,3.18-9A11.08,11.08,0,0,1,114,569.7a11.2,11.2,0,0,1,6.49,1.91,12.07,12.07,0,0,1,4.27,5.55A22.53,22.53,0,0,1,126.28,585.76ZM114,573.24a6.8,6.8,0,0,0-5.5,2.29,9.53,9.53,0,0,0-1.94,6.37,8.26,8.26,0,0,0,1.79,5.64,6.84,6.84,0,0,0,5.45,2.06,9.51,9.51,0,0,0,4.17-.92,7.6,7.6,0,0,0,3-2.52,5.8,5.8,0,0,0,1.1-3.34,11.43,11.43,0,0,0-1-4.83,8.4,8.4,0,0,0-2.85-3.48A7.16,7.16,0,0,0,114,573.24Z"/><path d="M150.74,592.66a47.82,47.82,0,0,1,3.26-4l8.82-9.34h4.9L156.67,591l11.82,15.66h-5l-9.64-12.9-3.11,2.69v10.21h-4.09V567.88h4.09v20.55c0,.91-.07,2.32-.2,4.23Z"/><path d="M173.08,571.94a2.77,2.77,0,0,1,.69-2.08,2.46,2.46,0,0,1,1.75-.66,2.5,2.5,0,0,1,1.72.67,2.71,2.71,0,0,1,.72,2.07,2.75,2.75,0,0,1-.72,2.08,2.43,2.43,0,0,1-1.72.69,2.4,2.4,0,0,1-1.75-.69A2.82,2.82,0,0,1,173.08,571.94Zm4.48,34.69h-4.14V579.34h4.14Z"/><path d="M190.46,606.63h-4.14V567.88h4.14Z"/><path d="M222.78,593q0,6.67-3.36,10.42t-9.29,3.75a12.26,12.26,0,0,1-6.5-1.72,11.33,11.33,0,0,1-4.38-4.93A17.17,17.17,0,0,1,197.7,593q0-6.68,3.34-10.4c2.23-2.48,5.31-3.72,9.27-3.72a11.55,11.55,0,0,1,9.1,3.81Q222.79,586.46,222.78,593ZM202,593c0,3.49.69,6.14,2.09,8a8.29,8.29,0,0,0,12.31,0q2.12-2.73,2.11-8t-2.11-7.91a7.38,7.38,0,0,0-6.21-2.7,7.28,7.28,0,0,0-6.13,2.67Q202,587.67,202,593Z"/><path d="M252.37,579.34V582l-5.06.6A8.95,8.95,0,0,1,249.1,588a8,8,0,0,1-2.74,6.4c-1.82,1.6-4.33,2.39-7.52,2.39a12.86,12.86,0,0,1-2.29-.19q-2.64,1.39-2.64,3.51a1.78,1.78,0,0,0,.92,1.65,6.72,6.72,0,0,0,3.17.54h4.83q4.42,0,6.81,1.87a6.49,6.49,0,0,1,2.38,5.42,7.74,7.74,0,0,1-3.64,6.91q-3.63,2.38-10.61,2.38-5.36,0-8.25-2a6.42,6.42,0,0,1-2.9-5.63,6.31,6.31,0,0,1,1.59-4.3,8.07,8.07,0,0,1,4.48-2.47,4.34,4.34,0,0,1-1.75-1.47,3.85,3.85,0,0,1-.71-2.32,4.4,4.4,0,0,1,.79-2.61,8.34,8.34,0,0,1,2.52-2.17,7.4,7.4,0,0,1-3.45-3,8.71,8.71,0,0,1-1.33-4.78,8.81,8.81,0,0,1,2.69-6.91q2.69-2.43,7.62-2.43a14,14,0,0,1,3.86.5ZM230.6,611.21a3.69,3.69,0,0,0,1.87,3.36,10.22,10.22,0,0,0,5.35,1.15q5.2,0,7.71-1.56a4.75,4.75,0,0,0,2.5-4.22,3.31,3.31,0,0,0-1.37-3.07c-.91-.58-2.63-.86-5.15-.86h-5a6.55,6.55,0,0,0-4.38,1.34A4.81,4.81,0,0,0,230.6,611.21Zm2.24-23.13a5.55,5.55,0,0,0,1.62,4.33,6.46,6.46,0,0,0,4.51,1.47q6,0,6.05-5.88,0-6.15-6.13-6.15a6.09,6.09,0,0,0-4.48,1.57A6.31,6.31,0,0,0,232.84,588.08Z"/><path d="M270.42,578.84a16.08,16.08,0,0,1,3.26.3l-.57,3.83a14,14,0,0,0-3-.37,7.26,7.26,0,0,0-5.66,2.69,9.81,9.81,0,0,0-2.36,6.7v14.64H258V579.34h3.41l.47,5h.2a12.07,12.07,0,0,1,3.66-4.11A8.27,8.27,0,0,1,270.42,578.84Z"/><path d="M295.57,606.63l-.82-3.88h-.2a11.52,11.52,0,0,1-4.07,3.47,12.36,12.36,0,0,1-5.07.91,9.11,9.11,0,0,1-6.36-2.09,7.63,7.63,0,0,1-2.31-5.95q0-8.28,13.23-8.67l4.63-.15v-1.69a7,7,0,0,0-1.38-4.75,5.69,5.69,0,0,0-4.42-1.53,18,18,0,0,0-7.72,2.09l-1.27-3.16a19.63,19.63,0,0,1,4.42-1.72,19.37,19.37,0,0,1,4.82-.62q4.88,0,7.23,2.17c1.57,1.44,2.35,3.76,2.35,6.94v18.63Zm-9.34-2.91a8.42,8.42,0,0,0,6.07-2.12,7.87,7.87,0,0,0,2.2-5.93v-2.46l-4.13.17q-4.94.18-7.11,1.53a4.62,4.62,0,0,0-2.18,4.22,4.28,4.28,0,0,0,1.35,3.42A5.65,5.65,0,0,0,286.23,603.72Z"/><path d="M341.94,606.63V588.87a7.37,7.37,0,0,0-1.4-4.89,5.41,5.41,0,0,0-4.33-1.63q-3.85,0-5.7,2.22c-1.23,1.47-1.84,3.75-1.84,6.82v15.24h-4.14V588.87a7.37,7.37,0,0,0-1.39-4.89,5.46,5.46,0,0,0-4.36-1.63q-3.88,0-5.69,2.33c-1.21,1.55-1.81,4.1-1.81,7.63v14.32h-4.13V579.34h3.36l.67,3.73h.2a8.19,8.19,0,0,1,3.3-3.11,10.05,10.05,0,0,1,4.77-1.12q6.41,0,8.37,4.63h.2a8.75,8.75,0,0,1,3.53-3.39,11,11,0,0,1,5.28-1.24q4.64,0,6.94,2.38t2.3,7.61v17.8Z"/><path d="M378.15,593q0,6.67-3.37,10.42t-9.28,3.75a12.26,12.26,0,0,1-6.5-1.72,11.29,11.29,0,0,1-4.39-4.93,17.17,17.17,0,0,1-1.54-7.52q0-6.68,3.34-10.4t9.26-3.72a11.54,11.54,0,0,1,9.1,3.81Q378.15,586.46,378.15,593Zm-20.8,0c0,3.49.7,6.14,2.09,8a8.3,8.3,0,0,0,12.32,0q2.1-2.73,2.1-8t-2.1-7.91a7.38,7.38,0,0,0-6.21-2.7,7.28,7.28,0,0,0-6.13,2.67Q357.35,587.67,357.35,593Z"/><path d="M403,599.19a6.85,6.85,0,0,1-2.84,5.87q-2.84,2.07-8,2.07-5.43,0-8.46-1.72v-3.83a20.38,20.38,0,0,0,4.22,1.56,17.24,17.24,0,0,0,4.34.58,9.83,9.83,0,0,0,5-1,3.55,3.55,0,0,0,.36-5.87,21.59,21.59,0,0,0-5.39-2.68,29,29,0,0,1-5.41-2.48,7.32,7.32,0,0,1-2.4-2.4,6.31,6.31,0,0,1-.78-3.21,6.12,6.12,0,0,1,2.71-5.27,12.65,12.65,0,0,1,7.45-1.93,21.9,21.9,0,0,1,8.62,1.79L401,584a19.94,19.94,0,0,0-7.45-1.69,8.61,8.61,0,0,0-4.43.92,2.85,2.85,0,0,0-1.5,2.54,3.06,3.06,0,0,0,.57,1.87,5.46,5.46,0,0,0,1.8,1.47,40.83,40.83,0,0,0,4.78,2c3.24,1.18,5.43,2.36,6.56,3.56A6.27,6.27,0,0,1,403,599.19Z"/><path d="M631.46,598.26h-5.41v8.37h-4v-8.37h-17.7v-3.61L621.67,570h4.38V594.5h5.41Zm-9.37-3.76V582.4q0-3.55.25-8h-.2a38.33,38.33,0,0,1-2.24,4L608.52,594.5Z"/><path d="M650.28,606.63h-4v-26c0-2.15.06-4.2.2-6.12-.35.35-.74.71-1.17,1.09s-2.41,2-5.93,4.86l-2.19-2.84,9.63-7.45h3.49Z"/><path d="M683.35,592.66a50,50,0,0,1,3.26-4l8.82-9.34h4.9L689.28,591l11.83,15.66h-5l-9.64-12.9-3.11,2.69v10.21h-4.08V567.88h4.08v20.55c0,.91-.06,2.32-.2,4.23Z"/><path d="M705.69,571.94a2.74,2.74,0,0,1,.7-2.08,2.42,2.42,0,0,1,1.74-.66,2.44,2.44,0,0,1,1.72.68,2.67,2.67,0,0,1,.72,2.06,2.73,2.73,0,0,1-.72,2.08,2.41,2.41,0,0,1-1.72.69,2.36,2.36,0,0,1-1.74-.69A2.77,2.77,0,0,1,705.69,571.94Zm4.48,34.69H706V579.34h4.13Z"/><path d="M723.07,606.63h-4.13V567.88h4.13Z"/><path d="M755.39,593q0,6.67-3.36,10.42t-9.29,3.75a12.22,12.22,0,0,1-6.49-1.72,11.29,11.29,0,0,1-4.39-4.93,17.17,17.17,0,0,1-1.54-7.52q0-6.68,3.34-10.4t9.26-3.72a11.54,11.54,0,0,1,9.1,3.81Q755.4,586.46,755.39,593Zm-20.79,0c0,3.49.7,6.14,2.09,8a8.3,8.3,0,0,0,12.32,0q2.1-2.73,2.1-8c0-3.47-.7-6.1-2.1-7.91a7.42,7.42,0,0,0-6.22-2.7,7.27,7.27,0,0,0-6.12,2.67Q734.6,587.67,734.6,593Z"/><path d="M785,579.34V582l-5.06.6a8.64,8.64,0,0,1,1.25,2.28,8.82,8.82,0,0,1,.55,3.17,8.11,8.11,0,0,1-2.74,6.41,11.09,11.09,0,0,1-7.52,2.39,12.68,12.68,0,0,1-2.29-.2q-2.64,1.39-2.64,3.51a1.76,1.76,0,0,0,.92,1.65,6.67,6.67,0,0,0,3.16.54h4.83q4.44,0,6.81,1.87a6.46,6.46,0,0,1,2.38,5.42,7.75,7.75,0,0,1-3.64,6.92q-3.63,2.37-10.61,2.37c-3.56,0-6.32-.66-8.25-2a6.44,6.44,0,0,1-2.9-5.63,6.31,6.31,0,0,1,1.59-4.3,8.07,8.07,0,0,1,4.48-2.47,4.33,4.33,0,0,1-1.75-1.47,3.9,3.9,0,0,1-.71-2.31,4.42,4.42,0,0,1,.8-2.62,8.41,8.41,0,0,1,2.51-2.17,7.4,7.4,0,0,1-3.45-3,8.68,8.68,0,0,1-1.33-4.78,8.84,8.84,0,0,1,2.69-6.91q2.69-2.43,7.62-2.43a13.94,13.94,0,0,1,3.86.5Zm-21.77,31.87a3.73,3.73,0,0,0,1.87,3.37,10.37,10.37,0,0,0,5.36,1.14q5.19,0,7.7-1.55a4.77,4.77,0,0,0,2.5-4.23,3.34,3.34,0,0,0-1.36-3.07q-1.38-.86-5.16-.86h-5a6.58,6.58,0,0,0-4.39,1.34A4.84,4.84,0,0,0,763.21,611.21Zm2.25-23.13a5.54,5.54,0,0,0,1.61,4.33,6.46,6.46,0,0,0,4.51,1.47c4,0,6-2,6-5.88q0-6.15-6.12-6.15a6.1,6.1,0,0,0-4.49,1.57A6.35,6.35,0,0,0,765.46,588.08Z"/><path d="M803,578.84a16.08,16.08,0,0,1,3.26.3l-.57,3.83a14.63,14.63,0,0,0-3-.37,7.29,7.29,0,0,0-5.66,2.69,9.81,9.81,0,0,0-2.36,6.7v14.64h-4.13V579.34H794l.48,5h.2a11.94,11.94,0,0,1,3.66-4.1A8.16,8.16,0,0,1,803,578.84Z"/><path d="M828.18,606.63l-.82-3.88h-.2a11.42,11.42,0,0,1-4.07,3.47,12.33,12.33,0,0,1-5.07.91,9.15,9.15,0,0,1-6.36-2.09,7.66,7.66,0,0,1-2.3-5.95q0-8.26,13.22-8.67l4.63-.15v-1.69a7,7,0,0,0-1.38-4.75,5.68,5.68,0,0,0-4.42-1.53,18.08,18.08,0,0,0-7.72,2.09l-1.27-3.16a19.63,19.63,0,0,1,4.42-1.72,19.37,19.37,0,0,1,4.82-.62q4.88,0,7.23,2.17c1.57,1.44,2.36,3.76,2.36,6.94v18.63Zm-9.34-2.91a8.4,8.4,0,0,0,6.07-2.12,7.83,7.83,0,0,0,2.2-5.93v-2.46l-4.13.17q-4.93.18-7.11,1.54a4.62,4.62,0,0,0-2.18,4.22,4.25,4.25,0,0,0,1.36,3.41A5.62,5.62,0,0,0,818.84,603.72Z"/><path d="M874.55,606.63V588.88a7.38,7.38,0,0,0-1.39-4.9,5.43,5.43,0,0,0-4.34-1.63q-3.86,0-5.7,2.22t-1.84,6.82v15.24h-4.14V588.88a7.38,7.38,0,0,0-1.39-4.9,5.45,5.45,0,0,0-4.36-1.63c-2.59,0-4.48.78-5.69,2.33s-1.8,4.1-1.8,7.63v14.32h-4.14V579.34h3.36l.68,3.73h.2a8.19,8.19,0,0,1,3.3-3.11,10,10,0,0,1,4.76-1.12q6.41,0,8.37,4.63h.2a8.62,8.62,0,0,1,3.54-3.38,11,11,0,0,1,5.28-1.25c3.08,0,5.4.79,6.93,2.38s2.3,4.12,2.3,7.61v17.8Z"/><path d="M910.76,593q0,6.67-3.36,10.42t-9.29,3.75a12.26,12.26,0,0,1-6.5-1.72,11.33,11.33,0,0,1-4.38-4.93,17.17,17.17,0,0,1-1.55-7.52q0-6.68,3.34-10.4t9.26-3.72a11.56,11.56,0,0,1,9.11,3.81Q910.75,586.46,910.76,593ZM890,593c0,3.49.69,6.14,2.09,8a8.29,8.29,0,0,0,12.31,0q2.11-2.73,2.11-8c0-3.47-.7-6.1-2.11-7.91a7.38,7.38,0,0,0-6.21-2.7A7.28,7.28,0,0,0,892,585Q890,587.67,890,593Z"/><path d="M935.61,599.19a6.8,6.8,0,0,1-2.84,5.87c-1.89,1.38-4.55,2.07-8,2.07-3.62,0-6.45-.57-8.47-1.72v-3.83a21.22,21.22,0,0,0,4.22,1.57,17.69,17.69,0,0,0,4.35.57,9.88,9.88,0,0,0,5-1,3.55,3.55,0,0,0,.36-5.87,21.52,21.52,0,0,0-5.4-2.68,29.35,29.35,0,0,1-5.41-2.48,7.28,7.28,0,0,1-2.39-2.4,6.31,6.31,0,0,1-.79-3.21,6.13,6.13,0,0,1,2.72-5.27,12.61,12.61,0,0,1,7.44-1.93,21.9,21.9,0,0,1,8.62,1.79L933.57,584a19.77,19.77,0,0,0-7.44-1.7,8.65,8.65,0,0,0-4.44.92,2.86,2.86,0,0,0-1.49,2.54,3,3,0,0,0,.56,1.87,5.34,5.34,0,0,0,1.8,1.47,39.85,39.85,0,0,0,4.78,2c3.24,1.18,5.43,2.36,6.57,3.56A6.3,6.3,0,0,1,935.61,599.19Z"/><path d="M1146.76,578.79a8.29,8.29,0,0,1-2,5.7,9.81,9.81,0,0,1-5.54,3v.2q4.38.54,6.49,2.79a8.16,8.16,0,0,1,2.12,5.87,9.54,9.54,0,0,1-3.61,8q-3.62,2.8-10.26,2.8a29.69,29.69,0,0,1-5.29-.44,18.13,18.13,0,0,1-4.67-1.53v-3.93a23,23,0,0,0,5,1.78,22.73,22.73,0,0,0,5.07.61q9.43,0,9.44-7.4,0-6.62-10.41-6.62h-3.59V586h3.64a11,11,0,0,0,6.75-1.88,6.18,6.18,0,0,0,2.49-5.22,5.13,5.13,0,0,0-1.83-4.18,7.51,7.51,0,0,0-5-1.52,15.09,15.09,0,0,0-4.51.65,19.84,19.84,0,0,0-4.83,2.39l-2.09-2.79a17.22,17.22,0,0,1,5.17-2.78,18.81,18.81,0,0,1,6.16-1c3.54,0,6.28.81,8.24,2.43A8.18,8.18,0,0,1,1146.76,578.79Z"/><path d="M1165.41,569.7a12.34,12.34,0,0,1,7.9,2.32,7.73,7.73,0,0,1,2.91,6.4,8,8,0,0,1-1.67,4.9,14.69,14.69,0,0,1-5.33,4,17.83,17.83,0,0,1,6.3,4.44,8.36,8.36,0,0,1,1.87,5.39,9,9,0,0,1-3.16,7.24q-3.17,2.7-8.67,2.7-5.82,0-9-2.55a8.81,8.81,0,0,1-3.14-7.24q0-6.24,7.62-9.73a14.19,14.19,0,0,1-4.93-4.2,8.88,8.88,0,0,1-1.49-5,7.7,7.7,0,0,1,2.92-6.32A12.18,12.18,0,0,1,1165.41,569.7Zm-7.87,27.74a5.66,5.66,0,0,0,2.08,4.66,9.14,9.14,0,0,0,5.84,1.67,8.66,8.66,0,0,0,5.78-1.75,5.91,5.91,0,0,0,2.07-4.78,5.8,5.8,0,0,0-2-4.29c-1.29-1.26-3.55-2.47-6.77-3.65a14.81,14.81,0,0,0-5.38,3.52A6.85,6.85,0,0,0,1157.54,597.44Zm7.82-24.38a7.32,7.32,0,0,0-4.88,1.5,4.93,4.93,0,0,0-1.77,4,5.72,5.72,0,0,0,1.47,3.94,15.36,15.36,0,0,0,5.43,3.28,13.47,13.47,0,0,0,5.05-3.21,6,6,0,0,0,1.48-4,4.9,4.9,0,0,0-1.81-4A7.65,7.65,0,0,0,1165.36,573.06Z"/><path d="M1201.75,592.66a47.82,47.82,0,0,1,3.26-4l8.81-9.34h4.91L1207.67,591l11.83,15.66h-5l-9.64-12.9-3.11,2.69v10.21h-4.09V567.88h4.09v20.55c0,.91-.07,2.32-.2,4.23Z"/><path d="M1224.08,571.94a2.74,2.74,0,0,1,.7-2.08,2.57,2.57,0,0,1,3.46,0,2.67,2.67,0,0,1,.72,2.06,2.73,2.73,0,0,1-.72,2.08,2.51,2.51,0,0,1-3.46,0A2.77,2.77,0,0,1,1224.08,571.94Zm4.48,34.69h-4.13V579.34h4.13Z"/><path d="M1241.46,606.63h-4.13V567.88h4.13Z"/><path d="M1273.79,593q0,6.67-3.37,10.42t-9.28,3.75a12.26,12.26,0,0,1-6.5-1.72,11.35,11.35,0,0,1-4.39-4.93,17.17,17.17,0,0,1-1.54-7.52q0-6.68,3.34-10.4t9.26-3.72a11.54,11.54,0,0,1,9.1,3.81Q1273.79,586.46,1273.79,593Zm-20.8,0c0,3.49.7,6.14,2.09,8a8.3,8.3,0,0,0,12.32,0q2.1-2.73,2.1-8c0-3.47-.7-6.1-2.1-7.91a7.38,7.38,0,0,0-6.21-2.7,7.28,7.28,0,0,0-6.13,2.67Q1253,587.67,1253,593Z"/><path d="M1303.37,579.34V582l-5,.6a8.95,8.95,0,0,1,1.79,5.45,8.08,8.08,0,0,1-2.74,6.41,11.07,11.07,0,0,1-7.52,2.39,12.76,12.76,0,0,1-2.29-.2q-2.64,1.39-2.64,3.51a1.78,1.78,0,0,0,.92,1.65,6.67,6.67,0,0,0,3.16.54h4.83q4.44,0,6.81,1.87a6.46,6.46,0,0,1,2.38,5.42,7.76,7.76,0,0,1-3.63,6.92q-3.65,2.37-10.61,2.37-5.35,0-8.26-2a6.44,6.44,0,0,1-2.9-5.63,6.27,6.27,0,0,1,1.6-4.3,8,8,0,0,1,4.48-2.47,4.35,4.35,0,0,1-1.76-1.47,3.9,3.9,0,0,1-.71-2.31,4.42,4.42,0,0,1,.8-2.62,8.34,8.34,0,0,1,2.52-2.17,7.31,7.31,0,0,1-3.45-3,8.69,8.69,0,0,1-1.34-4.78,8.84,8.84,0,0,1,2.69-6.91q2.7-2.43,7.62-2.43a13.89,13.89,0,0,1,3.86.5Zm-21.76,31.87a3.72,3.72,0,0,0,1.86,3.37,10.37,10.37,0,0,0,5.36,1.14q5.2,0,7.71-1.55a4.79,4.79,0,0,0,2.5-4.23,3.34,3.34,0,0,0-1.37-3.07q-1.37-.86-5.16-.86h-5a6.53,6.53,0,0,0-4.38,1.34A4.81,4.81,0,0,0,1281.61,611.21Zm2.24-23.13a5.55,5.55,0,0,0,1.62,4.33,6.45,6.45,0,0,0,4.5,1.47q6.06,0,6.06-5.88,0-6.15-6.13-6.15a6.08,6.08,0,0,0-4.48,1.57A6.31,6.31,0,0,0,1283.85,588.08Z"/><path d="M1321.43,578.84a16.15,16.15,0,0,1,3.26.3l-.57,3.83a14.72,14.72,0,0,0-3-.37,7.29,7.29,0,0,0-5.67,2.69,9.8,9.8,0,0,0-2.35,6.7v14.64H1309V579.34h3.42l.47,5h.2a11.94,11.94,0,0,1,3.66-4.1A8.21,8.21,0,0,1,1321.43,578.84Z"/><path d="M1346.58,606.63l-.82-3.88h-.2a11.44,11.44,0,0,1-4.08,3.47,12.31,12.31,0,0,1-5.06.91,9.16,9.16,0,0,1-6.37-2.09,7.66,7.66,0,0,1-2.3-5.95q0-8.26,13.22-8.67l4.64-.15v-1.69a6.89,6.89,0,0,0-1.39-4.75,5.68,5.68,0,0,0-4.42-1.53,18.12,18.12,0,0,0-7.72,2.09l-1.27-3.16a19.82,19.82,0,0,1,4.42-1.72,19.43,19.43,0,0,1,4.82-.62q4.89,0,7.24,2.17c1.57,1.44,2.35,3.76,2.35,6.94v18.63Zm-9.34-2.91a8.39,8.39,0,0,0,6.06-2.12,7.84,7.84,0,0,0,2.21-5.93v-2.46l-4.14.17q-4.92.18-7.11,1.54a4.62,4.62,0,0,0-2.18,4.22,4.28,4.28,0,0,0,1.36,3.41A5.65,5.65,0,0,0,1337.24,603.72Z"/><path d="M1393,606.63V588.88a7.38,7.38,0,0,0-1.4-4.9,5.41,5.41,0,0,0-4.33-1.63q-3.87,0-5.7,2.22t-1.85,6.82v15.24h-4.13V588.88a7.38,7.38,0,0,0-1.4-4.9,5.44,5.44,0,0,0-4.35-1.63q-3.88,0-5.69,2.33c-1.21,1.55-1.81,4.1-1.81,7.63v14.32h-4.13V579.34h3.36l.67,3.73h.2a8.19,8.19,0,0,1,3.3-3.11,10.05,10.05,0,0,1,4.77-1.12c4.27,0,7,1.54,8.37,4.63h.2a8.66,8.66,0,0,1,3.53-3.38,11,11,0,0,1,5.28-1.25q4.64,0,6.94,2.38t2.3,7.61v17.8Z"/><path d="M1429.15,593q0,6.67-3.36,10.42t-9.29,3.75a12.28,12.28,0,0,1-6.5-1.72,11.33,11.33,0,0,1-4.38-4.93,17.17,17.17,0,0,1-1.54-7.52q0-6.68,3.33-10.4t9.27-3.72a11.54,11.54,0,0,1,9.1,3.81Q1429.16,586.46,1429.15,593Zm-20.79,0c0,3.49.7,6.14,2.09,8a8.3,8.3,0,0,0,12.32,0q2.1-2.73,2.1-8c0-3.47-.7-6.1-2.1-7.91a7.42,7.42,0,0,0-6.22-2.7,7.26,7.26,0,0,0-6.12,2.67Q1408.36,587.67,1408.36,593Z"/><path d="M1454,599.19a6.81,6.81,0,0,1-2.83,5.87c-1.9,1.38-4.55,2.07-8,2.07q-5.43,0-8.47-1.72v-3.83a21.22,21.22,0,0,0,4.22,1.57,17.69,17.69,0,0,0,4.35.57,9.83,9.83,0,0,0,5-1,3.55,3.55,0,0,0,.36-5.87,21.59,21.59,0,0,0-5.39-2.68,29.2,29.2,0,0,1-5.42-2.48,7.28,7.28,0,0,1-2.39-2.4,6.31,6.31,0,0,1-.78-3.21,6.12,6.12,0,0,1,2.71-5.27,12.63,12.63,0,0,1,7.45-1.93,21.86,21.86,0,0,1,8.61,1.79L1452,584a19.77,19.77,0,0,0-7.44-1.7,8.65,8.65,0,0,0-4.44.92,2.86,2.86,0,0,0-1.49,2.54,3.12,3.12,0,0,0,.56,1.87,5.39,5.39,0,0,0,1.81,1.47,39.12,39.12,0,0,0,4.78,2c3.24,1.18,5.42,2.36,6.56,3.56A6.26,6.26,0,0,1,1454,599.19Z"/><rect x="481.48" y="336.68" width="37.33" height="7.7" rx="3.85" ry="3.85"/><rect x="481.48" y="589.14" width="37.33" height="7.7" rx="3.85" ry="3.85"/><rect x="1013.23" y="348.22" width="52.7" height="7.7" rx="3.85" ry="3.85"/><rect x="1013.23" y="331.6" width="52.7" height="7.7" rx="3.85" ry="3.85"/><rect x="1013.23" y="592.99" width="52.7" height="7.7" rx="3.85" ry="3.85"/><rect x="1013.23" y="576.37" width="52.7" height="7.7" rx="3.85" ry="3.85"/></svg>