<svg id="Layer_1" data-name="Layer 1" xmlns="http://www.w3.org/2000/svg" xmlns:xlink="http://www.w3.org/1999/xlink" viewBox="0 0 800 800"><defs><style>.cls-1{fill:#661310;}.cls-2{fill:url(#linear-gradient);}.cls-3{fill:#66120c;}.cls-4{fill:url(#linear-gradient-2);}.cls-5{fill:#bb2626;}.cls-6{fill:#fff;}</style><linearGradient id="linear-gradient" x1="634.95" y1="148.1" x2="634.95" y2="594" gradientUnits="userSpaceOnUse"><stop offset="0" stop-color="#d21f26"/><stop offset="1" stop-color="#7d1416"/></linearGradient><linearGradient id="linear-gradient-2" x1="1" y1="616.71" x2="687.52" y2="616.71" xlink:href="#linear-gradient"/></defs><title>Pesa</title><path class="cls-1" d="M117.11,640.48h46.3a0,0,0,0,1,0,0v17.24a3.25,3.25,0,0,1-3.25,3.25h-39.8a3.25,3.25,0,0,1-3.25-3.25V640.48A0,0,0,0,1,117.11,640.48Z"/><rect class="cls-2" x="619.67" y="146.55" width="30.55" height="445.9"/><path class="cls-3" d="M649.72,147.05V592H620.17V147.05h29.55m1-1H619.17V593h31.55V146.05Z"/><rect class="cls-4" x="1" y="593.95" width="684.78" height="45.53" rx="8.67" ry="8.67"/><path class="cls-3" d="M677.12,595a7.67,7.67,0,0,1,7.66,7.66v28.21a7.67,7.67,0,0,1-7.66,7.66H9.67A7.68,7.68,0,0,1,2,630.82V602.61A7.68,7.68,0,0,1,9.67,595H677.12m0-2H9.67A9.67,9.67,0,0,0,0,602.61v28.21a9.67,9.67,0,0,0,9.67,9.66H677.12a9.66,9.66,0,0,0,9.66-9.66V602.61a9.66,9.66,0,0,0-9.66-9.66Z"/><rect class="cls-5" x="470.39" y="42.71" width="329.11" height="176.02" rx="8.66" ry="8.66"/><path class="cls-3" d="M790.84,43.21A8.17,8.17,0,0,1,799,51.37v158.7a8.17,8.17,0,0,1-8.16,8.16H479.06a8.18,8.18,0,0,1-8.17-8.16V51.37a8.18,8.18,0,0,1,8.17-8.16H790.84m0-1H479.06a9.17,9.17,0,0,0-9.17,9.16v158.7a9.17,9.17,0,0,0,9.17,9.16H790.84a9.16,9.16,0,0,0,9.16-9.16V51.37a9.16,9.16,0,0,0-9.16-9.16Z"/><rect class="cls-6" x="490.5" y="55.68" width="288.9" height="150.08" rx="5.3" ry="5.3"/><path class="cls-1" d="M588.64,640.48h46.3a0,0,0,0,1,0,0v17.24A3.25,3.25,0,0,1,631.7,661h-39.8a3.25,3.25,0,0,1-3.25-3.25V640.48A0,0,0,0,1,588.64,640.48Z"/></svg>