<svg id="Layer_2" data-name="Layer 2" xmlns="http://www.w3.org/2000/svg" viewBox="0 0 1492 800"><defs><style>.cls-1{fill:#fff;}.cls-2{fill:#dd9852;}.cls-3{fill:#9e744f;}.cls-4{fill:#c1814d;}.cls-5{fill:#e5bd98;}.cls-6{fill:#e0b451;}.cls-7{fill:#a08b4e;}.cls-8{fill:#c4a24e;}.cls-9{fill:#a57444;}.cls-10{font-size:50px;font-family:OpenSans-Regular, Open Sans;}</style></defs><title>Pesa_02_03</title><polygon class="cls-1" points="134.9 415.41 295.96 325.44 450.51 415.4 292.23 505.94 134.9 415.41"/><path d="M296,326l153.56,89.37-157.27,90L135.92,415.41,296,326m0-1.15L133.89,415.4l158.34,91.12L451.51,415.4,296,324.87Z"/><polygon class="cls-2" points="451.51 277.08 292.23 368.2 133.89 277.08 292.23 185.02 451.51 277.08"/><polygon class="cls-3" points="292.23 506.52 133.89 415.45 133.89 276.61 292.23 367.73 292.23 506.52"/><polygon class="cls-4" points="292.23 506.52 451.51 415.45 451.51 276.61 292.23 367.73 292.23 506.52"/><polygon class="cls-5" points="219.97 326.16 379.24 235.09 365.43 227.06 206.15 318.18 219.97 326.16"/><polygon class="cls-5" points="219.97 326.16 219.97 397.11 206.15 389.09 206.15 318.18 219.97 326.16"/><polygon class="cls-1" points="178.51 284.15 294.96 280.92 406.61 284.15 292.23 349.58 178.51 284.15"/><path d="M294.94,281.42l109.88,3.17L292.23,349,180.29,284.6l114.65-3.18m0-1L176.72,283.7l115.5,66.46L408.41,283.7l-113.47-3.28Z"/><polygon class="cls-6" points="408.4 245.56 292.23 312.03 176.72 245.56 292.23 178.41 408.4 245.56"/><polygon class="cls-7" points="292.23 350.16 176.72 283.73 176.72 245.22 292.23 311.68 292.23 350.16"/><polygon class="cls-8" points="292.23 350.16 408.4 283.73 408.4 245.22 292.23 311.68 292.23 350.16"/><polygon class="cls-9" points="239.51 281.36 355.69 214.93 345.61 209.08 229.43 275.54 239.51 281.36"/><polygon class="cls-9" points="239.51 281.36 239.51 301.92 229.43 296.06 229.43 275.54 239.51 281.36"/><polygon class="cls-1" points="620.57 415.41 781.62 325.44 936.17 415.4 777.9 505.94 620.57 415.41"/><path d="M781.62,326l153.55,89.37-157.27,90L621.58,415.41l160-89.39m0-1.15L619.55,415.4,777.9,506.52,937.17,415.4,781.63,324.87Z"/><polygon class="cls-2" points="937.17 277.08 777.9 368.2 619.55 277.08 777.9 185.02 937.17 277.08"/><polygon class="cls-3" points="777.9 506.52 619.55 415.45 619.55 276.61 777.9 367.73 777.9 506.52"/><polygon class="cls-4" points="777.9 506.52 937.17 415.45 937.17 276.61 777.9 367.73 777.9 506.52"/><polygon class="cls-5" points="705.64 326.16 864.91 235.09 851.09 227.06 691.82 318.18 705.64 326.16"/><polygon class="cls-5" points="705.64 326.16 705.64 397.11 691.82 389.09 691.82 318.18 705.64 326.16"/><polygon class="cls-1" points="1149.97 362.33 1266.42 359.1 1378.08 362.32 1263.69 427.76 1149.97 362.33"/><path d="M1266.41,359.6l109.88,3.17-112.6,64.42-111.93-64.41,114.65-3.18m0-1-118.22,3.28,115.5,66.46,116.18-66.46-113.46-3.28Z"/><polygon class="cls-6" points="1379.87 323.74 1263.69 390.21 1148.19 323.74 1263.69 256.59 1379.87 323.74"/><polygon class="cls-7" points="1263.69 428.34 1148.19 361.91 1148.19 323.4 1263.69 389.86 1263.69 428.34"/><polygon class="cls-8" points="1263.69 428.34 1379.87 361.91 1379.87 323.4 1263.69 389.86 1263.69 428.34"/><polygon class="cls-9" points="1210.98 359.54 1327.16 293.11 1317.08 287.25 1200.9 353.72 1210.98 359.54"/><polygon class="cls-9" points="1210.98 359.54 1210.98 380.09 1200.9 374.24 1200.9 353.72 1210.98 359.54"/><text class="cls-10" transform="translate(133.89 608.04)">97 kilogramos</text><text class="cls-10" transform="translate(619.55 608.04)">64 kilogramos</text><text class="cls-10" transform="translate(1097.03 608.04)">33 kilogramos</text><rect x="520.13" y="342.78" width="37.33" height="7.7" rx="3.85" ry="3.85"/><rect x="520.13" y="590.78" width="37.33" height="7.7" rx="3.85" ry="3.85"/><rect x="1013.62" y="342.78" width="52.7" height="7.7" rx="3.85" ry="3.85"/><rect x="1013.62" y="590.78" width="37.33" height="7.7" rx="3.85" ry="3.85"/><rect x="1013.62" y="326.16" width="52.7" height="7.7" rx="3.85" ry="3.85"/></svg>