<svg id="Layer_2" data-name="Layer 2" xmlns="http://www.w3.org/2000/svg" viewBox="0 0 1492 800"><defs><style>.cls-1{fill:#fff;}.cls-2{fill:#dd9852;}.cls-3{fill:#9e744f;}.cls-4{fill:#c1814d;}.cls-5{fill:#e5bd98;}.cls-6{fill:#e0b451;}.cls-7{fill:#a08b4e;}.cls-8{fill:#c4a24e;}.cls-9{fill:#a57444;}</style></defs><title>Pesa_02_03</title><polygon class="cls-1" points="32.38 423.55 217.11 320.36 394.38 423.54 212.85 527.4 32.38 423.55"/><path d="M217.11,320.94l176.27,102.6L212.85,526.82,33.4,423.56,217.11,320.94m0-1.15L31.37,423.54,212.84,528,395.38,423.54,217.12,319.79Z"/><polygon class="cls-2" points="395.38 265.02 212.84 369.45 31.37 265.02 212.84 159.51 395.38 265.02"/><polygon class="cls-3" points="212.84 527.97 31.37 423.6 31.37 264.48 212.84 368.91 212.84 527.97"/><polygon class="cls-4" points="212.84 527.97 395.38 423.6 395.38 264.48 212.84 368.91 212.84 527.97"/><polygon class="cls-5" points="130.02 321.26 312.56 216.89 296.73 207.69 114.19 312.12 130.02 321.26"/><polygon class="cls-5" points="130.02 321.26 130.02 402.58 114.19 393.39 114.19 312.12 130.02 321.26"/><polygon class="cls-1" points="82.24 273.05 215.97 269.35 344.2 273.05 212.84 348.2 82.24 273.05"/><path d="M216,269.85l126.46,3.65L212.84,347.62,84,273.5,216,269.85m0-1L80.46,272.6l132.37,76.18L346,272.6l-130-3.75Z"/><polygon class="cls-6" points="345.99 228.9 212.83 305.07 80.46 228.9 212.83 151.94 345.99 228.9"/><polygon class="cls-7" points="212.83 348.78 80.46 272.64 80.46 228.5 212.83 304.68 212.83 348.78"/><polygon class="cls-8" points="212.83 348.78 345.99 272.64 345.99 228.5 212.83 304.68 212.83 348.78"/><polygon class="cls-9" points="152.42 269.93 285.57 193.79 274.02 187.08 140.87 263.26 152.42 269.93"/><polygon class="cls-9" points="152.42 269.93 152.42 293.48 140.87 286.77 140.87 263.26 152.42 269.93"/><polygon class="cls-1" points="588 423.55 772.73 320.36 950 423.54 768.46 527.4 588 423.55"/><path d="M772.72,320.94,949,423.54,768.46,526.82,589,423.56,772.72,320.94m0-1.15L587,423.54,768.46,528,951,423.54,772.73,319.79Z"/><polygon class="cls-2" points="951 265.02 768.46 369.45 586.98 265.02 768.46 159.51 951 265.02"/><polygon class="cls-3" points="768.46 527.97 586.98 423.6 586.98 264.48 768.46 368.91 768.46 527.97"/><polygon class="cls-4" points="768.46 527.97 951 423.6 951 264.48 768.46 368.91 768.46 527.97"/><polygon class="cls-5" points="685.64 321.26 868.18 216.89 852.34 207.69 669.8 312.12 685.64 321.26"/><polygon class="cls-5" points="685.64 321.26 685.64 402.58 669.8 393.39 669.8 312.12 685.64 321.26"/><polygon class="cls-1" points="1155.37 362.65 1289.09 358.94 1417.33 362.65 1285.96 437.8 1155.37 362.65"/><path d="M1289.08,359.45l126.45,3.65L1286,437.22l-128.8-74.12,131.92-3.65m0-1-135.49,3.76L1286,438.37l133.16-76.17-130-3.76Z"/><polygon class="cls-6" points="1419.12 318.5 1285.96 394.67 1153.59 318.5 1285.96 241.53 1419.12 318.5"/><polygon class="cls-7" points="1285.96 438.37 1153.59 362.24 1153.59 318.1 1285.96 394.28 1285.96 438.37"/><polygon class="cls-8" points="1285.96 438.37 1419.12 362.24 1419.12 318.1 1285.96 394.28 1285.96 438.37"/><polygon class="cls-9" points="1225.55 359.52 1358.7 283.39 1347.15 276.68 1214 352.85 1225.55 359.52"/><polygon class="cls-9" points="1225.55 359.52 1225.55 383.08 1214 376.37 1214 352.85 1225.55 359.52"/><path d="M89.79,594.41q0,21.38-16.54,21.37a16.92,16.92,0,0,1-4.58-.5v-3.56a14.7,14.7,0,0,0,4.53.65q6,0,9-3.7t3.33-11.34h-.3a9,9,0,0,1-3.64,3.15,11.7,11.7,0,0,1-5.1,1.08,10.25,10.25,0,0,1-7.67-2.89C67,596.75,66,594.06,66,590.6q0-5.67,3.17-9A12.13,12.13,0,0,1,84,580.26a12,12,0,0,1,4.28,5.55A22.73,22.73,0,0,1,89.79,594.41ZM77.54,581.89A6.82,6.82,0,0,0,72,584.18a9.58,9.58,0,0,0-1.94,6.37,8.31,8.31,0,0,0,1.79,5.64,6.88,6.88,0,0,0,5.46,2.06,9.51,9.51,0,0,0,4.17-.92,7.6,7.6,0,0,0,3-2.52,5.8,5.8,0,0,0,1.1-3.34,11.29,11.29,0,0,0-1-4.83,8.4,8.4,0,0,0-2.85-3.48A7.15,7.15,0,0,0,77.54,581.89Z"/><path d="M99.63,615.28l15.09-32.6H94.87v-3.81H119.1v3.32l-14.89,33.09Z"/><path d="M143.4,601.31a50.51,50.51,0,0,1,3.27-4l8.81-9.34h4.91l-11.06,11.63,11.83,15.66h-5l-9.63-12.9-3.12,2.69v10.21h-4.08V576.53h4.08v20.55c0,.91-.06,2.32-.19,4.23Z"/><path d="M165.74,580.59a2.74,2.74,0,0,1,.7-2.08,2.43,2.43,0,0,1,1.74-.66,2.46,2.46,0,0,1,1.72.67,2.71,2.71,0,0,1,.72,2.07,2.75,2.75,0,0,1-.72,2.08,2.51,2.51,0,0,1-3.46,0A2.78,2.78,0,0,1,165.74,580.59Zm4.48,34.69h-4.13V588h4.13Z"/><path d="M183.12,615.28H179V576.53h4.13Z"/><path d="M215.45,601.61q0,6.67-3.37,10.42t-9.28,3.75a12.26,12.26,0,0,1-6.5-1.72,11.27,11.27,0,0,1-4.38-4.93,17,17,0,0,1-1.55-7.52q0-6.68,3.34-10.4t9.26-3.72a11.54,11.54,0,0,1,9.1,3.81Q215.45,595.11,215.45,601.61Zm-20.8,0c0,3.49.7,6.14,2.1,8a8.29,8.29,0,0,0,12.31,0q2.1-2.73,2.1-8t-2.1-7.91a7.38,7.38,0,0,0-6.21-2.7,7.28,7.28,0,0,0-6.13,2.67Q194.65,596.33,194.65,601.61Z"/><path d="M245,588v2.61l-5.05.6a8.95,8.95,0,0,1,1.79,5.45,8,8,0,0,1-2.74,6.4,11,11,0,0,1-7.52,2.39,12.79,12.79,0,0,1-2.29-.19q-2.64,1.39-2.64,3.51a1.76,1.76,0,0,0,.92,1.65,6.67,6.67,0,0,0,3.16.54h4.83q4.44,0,6.81,1.87a6.46,6.46,0,0,1,2.38,5.42,7.74,7.74,0,0,1-3.63,6.91q-3.65,2.39-10.61,2.38-5.35,0-8.26-2a6.44,6.44,0,0,1-2.9-5.63,6.27,6.27,0,0,1,1.6-4.3,8,8,0,0,1,4.48-2.47,4.43,4.43,0,0,1-1.76-1.47,3.91,3.91,0,0,1-.71-2.32,4.41,4.41,0,0,1,.8-2.61,8.34,8.34,0,0,1,2.52-2.17,7.31,7.31,0,0,1-3.45-3,8.71,8.71,0,0,1-1.34-4.78,8.84,8.84,0,0,1,2.69-6.91q2.7-2.43,7.62-2.43a13.89,13.89,0,0,1,3.86.5Zm-21.76,31.87a3.7,3.7,0,0,0,1.86,3.36,10.26,10.26,0,0,0,5.36,1.15q5.2,0,7.71-1.56a4.77,4.77,0,0,0,2.5-4.22,3.33,3.33,0,0,0-1.37-3.07c-.91-.58-2.63-.86-5.16-.86h-4.95a6.58,6.58,0,0,0-4.39,1.34A4.83,4.83,0,0,0,223.27,619.86Zm2.24-23.13a5.55,5.55,0,0,0,1.62,4.33,6.45,6.45,0,0,0,4.5,1.47c4,0,6.05-2,6.05-5.88q0-6.15-6.12-6.15a6.08,6.08,0,0,0-4.48,1.57A6.31,6.31,0,0,0,225.51,596.73Z"/><path d="M263.08,587.49a16.19,16.19,0,0,1,3.27.3l-.58,3.83a13.88,13.88,0,0,0-3-.37,7.29,7.29,0,0,0-5.67,2.69,9.8,9.8,0,0,0-2.35,6.7v14.64h-4.14V588h3.42l.47,5h.2a12.07,12.07,0,0,1,3.66-4.11A8.27,8.27,0,0,1,263.08,587.49Z"/><path d="M288.24,615.28l-.82-3.88h-.2a11.54,11.54,0,0,1-4.08,3.47,12.31,12.31,0,0,1-5.06.91,9.16,9.16,0,0,1-6.37-2.09,7.66,7.66,0,0,1-2.3-6q0-8.28,13.22-8.67l4.63-.15v-1.69a7,7,0,0,0-1.38-4.75,5.68,5.68,0,0,0-4.42-1.53,18.12,18.12,0,0,0-7.72,2.09l-1.27-3.16a19.82,19.82,0,0,1,4.42-1.72,19.43,19.43,0,0,1,4.82-.62q4.89,0,7.24,2.17c1.56,1.44,2.35,3.76,2.35,6.94v18.63Zm-9.34-2.91a8.39,8.39,0,0,0,6.06-2.12,7.84,7.84,0,0,0,2.21-5.93v-2.46L283,602q-4.92.18-7.11,1.53a4.64,4.64,0,0,0-2.18,4.22,4.29,4.29,0,0,0,1.36,3.42A5.63,5.63,0,0,0,278.9,612.37Z"/><path d="M334.6,615.28V597.52a7.37,7.37,0,0,0-1.39-4.89,5.42,5.42,0,0,0-4.33-1.63q-3.87,0-5.71,2.22c-1.22,1.47-1.84,3.75-1.84,6.82v15.24H317.2V597.52a7.37,7.37,0,0,0-1.4-4.89,5.45,5.45,0,0,0-4.36-1.63c-2.59,0-4.48.78-5.69,2.33s-1.8,4.1-1.8,7.63v14.32h-4.13V588h3.36l.67,3.73h.2a8.19,8.19,0,0,1,3.3-3.11,10.05,10.05,0,0,1,4.77-1.12q6.39,0,8.36,4.63h.2a8.77,8.77,0,0,1,3.54-3.39,11,11,0,0,1,5.28-1.24q4.63,0,6.93,2.38t2.31,7.61v17.8Z"/><path d="M370.81,601.61q0,6.67-3.36,10.42t-9.29,3.75a12.28,12.28,0,0,1-6.5-1.72,11.33,11.33,0,0,1-4.38-4.93,17.17,17.17,0,0,1-1.54-7.52q0-6.68,3.33-10.4c2.23-2.48,5.31-3.72,9.27-3.72a11.55,11.55,0,0,1,9.1,3.81Q370.82,595.11,370.81,601.61Zm-20.79,0c0,3.49.7,6.14,2.09,8a8.29,8.29,0,0,0,12.31,0q2.11-2.73,2.11-8t-2.11-7.91a7.38,7.38,0,0,0-6.21-2.7,7.26,7.26,0,0,0-6.12,2.67Q350,596.33,350,601.61Z"/><path d="M395.67,607.84a6.85,6.85,0,0,1-2.84,5.87c-1.9,1.38-4.55,2.07-8,2.07q-5.43,0-8.47-1.72v-3.83a20.6,20.6,0,0,0,4.22,1.56,17.25,17.25,0,0,0,4.35.58,9.83,9.83,0,0,0,5-1,3.55,3.55,0,0,0,.36-5.87,21.59,21.59,0,0,0-5.39-2.68,29.2,29.2,0,0,1-5.42-2.48,7.28,7.28,0,0,1-2.39-2.4,6.31,6.31,0,0,1-.78-3.21,6.12,6.12,0,0,1,2.71-5.27,12.63,12.63,0,0,1,7.45-1.93,21.82,21.82,0,0,1,8.61,1.79l-1.47,3.36a19.94,19.94,0,0,0-7.44-1.69,8.58,8.58,0,0,0-4.43.92,2.85,2.85,0,0,0-1.5,2.54,3.12,3.12,0,0,0,.56,1.87,5.51,5.51,0,0,0,1.81,1.47,40.83,40.83,0,0,0,4.78,2c3.24,1.18,5.42,2.36,6.56,3.56A6.27,6.27,0,0,1,395.67,607.84Z"/><path d="M598.9,599.72q0-10.74,4.17-16.05t12.34-5.32a16.7,16.7,0,0,1,4.43.47v3.57a14,14,0,0,0-4.38-.63q-5.87,0-9,3.65t-3.38,11.47h.3q2.73-4.29,8.66-4.28a10.19,10.19,0,0,1,7.74,3,11.18,11.18,0,0,1,2.82,8q0,5.68-3.1,8.93a11,11,0,0,1-8.38,3.25,10.77,10.77,0,0,1-9-4.25Q598.9,607.29,598.9,599.72Zm12.22,12.55a6.89,6.89,0,0,0,5.49-2.23c1.31-1.49,2-3.63,2-6.44a8.33,8.33,0,0,0-1.82-5.68,6.87,6.87,0,0,0-5.43-2.06,9.25,9.25,0,0,0-4.11.92,7.52,7.52,0,0,0-3,2.54,5.87,5.87,0,0,0-1.11,3.36,11.59,11.59,0,0,0,1,4.78A8.44,8.44,0,0,0,607,611,7,7,0,0,0,611.12,612.27Z"/><path d="M653.28,606.91h-5.4v8.37h-4v-8.37H626.21V603.3l17.29-24.62h4.38v24.47h5.4Zm-9.36-3.76v-12.1q0-3.56.25-8H644a40.29,40.29,0,0,1-2.24,4l-11.38,16.18Z"/><path d="M676,601.31a47.82,47.82,0,0,1,3.26-4L688.1,588H693l-11.06,11.63,11.83,15.66h-5l-9.64-12.9L676,605.07v10.21h-4.09V576.53H676v20.55c0,.91-.07,2.32-.2,4.23Z"/><path d="M698.36,580.59a2.77,2.77,0,0,1,.69-2.08,2.46,2.46,0,0,1,1.75-.66,2.42,2.42,0,0,1,1.71.68,2.64,2.64,0,0,1,.73,2.06,2.7,2.7,0,0,1-.73,2.08,2.51,2.51,0,0,1-3.46,0A2.81,2.81,0,0,1,698.36,580.59Zm4.48,34.69H698.7V588h4.14Z"/><path d="M715.74,615.28H711.6V576.53h4.14Z"/><path d="M748.06,601.61q0,6.67-3.36,10.42t-9.29,3.75a12.26,12.26,0,0,1-6.5-1.72,11.33,11.33,0,0,1-4.38-4.93,17.17,17.17,0,0,1-1.55-7.52q0-6.68,3.34-10.4t9.26-3.72a11.56,11.56,0,0,1,9.11,3.81Q748.07,595.11,748.06,601.61Zm-20.79,0c0,3.49.69,6.14,2.09,8a8.29,8.29,0,0,0,12.31,0q2.12-2.73,2.11-8c0-3.47-.7-6.1-2.11-7.91a7.38,7.38,0,0,0-6.21-2.7,7.28,7.28,0,0,0-6.13,2.67Q727.28,596.33,727.27,601.61Z"/><path d="M777.64,588v2.61l-5,.6a8.95,8.95,0,0,1,1.79,5.45,8.08,8.08,0,0,1-2.74,6.41,11.05,11.05,0,0,1-7.52,2.39,12.76,12.76,0,0,1-2.29-.2q-2.64,1.39-2.64,3.51a1.78,1.78,0,0,0,.92,1.65,6.72,6.72,0,0,0,3.17.54h4.83q4.42,0,6.81,1.87a6.48,6.48,0,0,1,2.37,5.42,7.76,7.76,0,0,1-3.63,6.92q-3.63,2.37-10.61,2.37-5.35,0-8.25-2a6.43,6.43,0,0,1-2.91-5.63,6.31,6.31,0,0,1,1.6-4.3,8,8,0,0,1,4.48-2.47,4.26,4.26,0,0,1-1.75-1.47,3.84,3.84,0,0,1-.71-2.31,4.41,4.41,0,0,1,.79-2.62,8.34,8.34,0,0,1,2.52-2.17,7.4,7.4,0,0,1-3.45-3,8.68,8.68,0,0,1-1.33-4.78,8.81,8.81,0,0,1,2.69-6.91q2.68-2.43,7.62-2.43a14,14,0,0,1,3.86.5Zm-21.76,31.87a3.71,3.71,0,0,0,1.87,3.37,10.33,10.33,0,0,0,5.35,1.14q5.21,0,7.71-1.56a4.75,4.75,0,0,0,2.5-4.22,3.34,3.34,0,0,0-1.37-3.07c-.91-.57-2.63-.86-5.15-.86h-5a6.55,6.55,0,0,0-4.38,1.34A4.81,4.81,0,0,0,755.88,619.86Zm2.24-23.13a5.55,5.55,0,0,0,1.62,4.33,6.46,6.46,0,0,0,4.51,1.47q6,0,6-5.88,0-6.15-6.13-6.15a6.09,6.09,0,0,0-4.48,1.57A6.31,6.31,0,0,0,758.12,596.73Z"/><path d="M795.7,587.49a16.08,16.08,0,0,1,3.26.3l-.57,3.83a14.72,14.72,0,0,0-3-.37,7.29,7.29,0,0,0-5.67,2.69,9.85,9.85,0,0,0-2.35,6.7v14.64h-4.13V588h3.41l.47,5h.2a11.94,11.94,0,0,1,3.66-4.1A8.21,8.21,0,0,1,795.7,587.49Z"/><path d="M820.85,615.28,820,611.4h-.2a11.42,11.42,0,0,1-4.07,3.47,12.39,12.39,0,0,1-5.07.91,9.11,9.11,0,0,1-6.36-2.09,7.63,7.63,0,0,1-2.31-6q0-8.26,13.23-8.67l4.63-.15v-1.69a7,7,0,0,0-1.38-4.75,5.69,5.69,0,0,0-4.42-1.53,18,18,0,0,0-7.72,2.09l-1.27-3.16a19.79,19.79,0,0,1,9.24-2.34q4.88,0,7.23,2.17c1.57,1.44,2.35,3.76,2.35,6.94v18.63Zm-9.34-2.91a8.42,8.42,0,0,0,6.07-2.12,7.87,7.87,0,0,0,2.2-5.93v-2.46l-4.13.17q-4.93.18-7.11,1.53a4.62,4.62,0,0,0-2.18,4.23,4.27,4.27,0,0,0,1.35,3.41A5.65,5.65,0,0,0,811.51,612.37Z"/><path d="M867.22,615.28V597.53a7.38,7.38,0,0,0-1.4-4.9,5.41,5.41,0,0,0-4.33-1.63q-3.86,0-5.7,2.22T853.94,600v15.24h-4.13V597.53a7.38,7.38,0,0,0-1.39-4.9,5.46,5.46,0,0,0-4.36-1.63q-3.88,0-5.69,2.33c-1.21,1.55-1.81,4.1-1.81,7.63v14.32h-4.13V588h3.36l.67,3.73h.2a8.19,8.19,0,0,1,3.3-3.11,10.05,10.05,0,0,1,4.77-1.12q6.4,0,8.37,4.63h.2a8.66,8.66,0,0,1,3.53-3.38,11,11,0,0,1,5.28-1.25q4.64,0,6.94,2.38t2.3,7.61v17.8Z"/><path d="M903.43,601.61q0,6.67-3.37,10.42t-9.28,3.75a12.23,12.23,0,0,1-6.5-1.72,11.29,11.29,0,0,1-4.39-4.93,17.17,17.17,0,0,1-1.54-7.52q0-6.68,3.34-10.4t9.26-3.72a11.54,11.54,0,0,1,9.1,3.81Q903.43,595.11,903.43,601.61Zm-20.8,0c0,3.49.7,6.14,2.09,8a8.3,8.3,0,0,0,12.32,0q2.1-2.73,2.1-8c0-3.47-.7-6.1-2.1-7.91a7.41,7.41,0,0,0-6.21-2.7,7.28,7.28,0,0,0-6.13,2.67Q882.63,596.33,882.63,601.61Z"/><path d="M928.28,607.84a6.82,6.82,0,0,1-2.84,5.87q-2.84,2.07-8,2.07-5.43,0-8.47-1.72v-3.83a21.31,21.31,0,0,0,4.23,1.57,17.68,17.68,0,0,0,4.34.57,9.83,9.83,0,0,0,5-1,3.55,3.55,0,0,0,.36-5.87,21.59,21.59,0,0,0-5.39-2.68,29.52,29.52,0,0,1-5.42-2.48,7.38,7.38,0,0,1-2.39-2.4,6.31,6.31,0,0,1-.78-3.21,6.12,6.12,0,0,1,2.71-5.27,12.65,12.65,0,0,1,7.45-1.93,21.9,21.9,0,0,1,8.62,1.79l-1.47,3.37a19.78,19.78,0,0,0-7.45-1.7,8.58,8.58,0,0,0-4.43.92,2.85,2.85,0,0,0-1.5,2.54,3.12,3.12,0,0,0,.56,1.87,5.5,5.5,0,0,0,1.81,1.47,39.12,39.12,0,0,0,4.78,2c3.24,1.18,5.43,2.36,6.56,3.56A6.27,6.27,0,0,1,928.28,607.84Z"/><path d="M1139.43,587.44a8.26,8.26,0,0,1-2,5.7,9.78,9.78,0,0,1-5.54,3v.2q4.38.54,6.5,2.78a8.24,8.24,0,0,1,2.12,5.88,9.56,9.56,0,0,1-3.61,8q-3.62,2.81-10.26,2.8a29.89,29.89,0,0,1-5.3-.44,18.06,18.06,0,0,1-4.66-1.53v-3.93a22.64,22.64,0,0,0,5,1.78,23.19,23.19,0,0,0,5.07.61q9.43,0,9.43-7.4,0-6.61-10.4-6.62h-3.59v-3.56h3.63a11,11,0,0,0,6.75-1.88,6.19,6.19,0,0,0,2.49-5.22,5.13,5.13,0,0,0-1.83-4.18,7.48,7.48,0,0,0-5-1.52,15.37,15.37,0,0,0-4.51.64,20.29,20.29,0,0,0-4.83,2.4l-2.09-2.79a17.28,17.28,0,0,1,5.16-2.78,18.87,18.87,0,0,1,6.17-1q5.3,0,8.24,2.43A8.18,8.18,0,0,1,1139.43,587.44Z"/><path d="M1168.59,587.44a8.26,8.26,0,0,1-2,5.7,9.78,9.78,0,0,1-5.54,3v.2q4.38.54,6.5,2.78a8.24,8.24,0,0,1,2.12,5.88,9.56,9.56,0,0,1-3.61,8q-3.61,2.81-10.26,2.8a29.69,29.69,0,0,1-5.29-.44,18,18,0,0,1-4.67-1.53v-3.93a22.64,22.64,0,0,0,5,1.78,23.19,23.19,0,0,0,5.07.61q9.43,0,9.43-7.4,0-6.61-10.4-6.62h-3.59v-3.56h3.64a10.94,10.94,0,0,0,6.74-1.88,6.19,6.19,0,0,0,2.49-5.22,5.13,5.13,0,0,0-1.83-4.18,7.48,7.48,0,0,0-5-1.52,15.37,15.37,0,0,0-4.51.64,20.29,20.29,0,0,0-4.83,2.4l-2.09-2.79a17.28,17.28,0,0,1,5.16-2.78,18.87,18.87,0,0,1,6.17-1q5.29,0,8.24,2.43A8.18,8.18,0,0,1,1168.59,587.44Z"/><path d="M1194.41,601.31a50,50,0,0,1,3.26-4l8.82-9.34h4.9l-11.05,11.63,11.83,15.66h-5l-9.64-12.9-3.11,2.69v10.21h-4.08V576.53h4.08v20.55c0,.91-.07,2.32-.2,4.23Z"/><path d="M1216.75,580.59a2.74,2.74,0,0,1,.7-2.08,2.42,2.42,0,0,1,1.74-.66,2.5,2.5,0,0,1,1.72.67,2.71,2.71,0,0,1,.72,2.07,2.75,2.75,0,0,1-.72,2.08,2.43,2.43,0,0,1-1.72.69,2.36,2.36,0,0,1-1.74-.69A2.78,2.78,0,0,1,1216.75,580.59Zm4.48,34.69h-4.13V588h4.13Z"/><path d="M1234.13,615.28H1230V576.53h4.13Z"/><path d="M1266.45,601.61q0,6.67-3.36,10.42t-9.29,3.75a12.28,12.28,0,0,1-6.5-1.72,11.33,11.33,0,0,1-4.38-4.93,17.17,17.17,0,0,1-1.54-7.52q0-6.68,3.33-10.4t9.27-3.72a11.55,11.55,0,0,1,9.1,3.81Q1266.46,595.11,1266.45,601.61Zm-20.79,0c0,3.49.7,6.14,2.09,8a8.3,8.3,0,0,0,12.32,0q2.1-2.73,2.1-8t-2.1-7.91a7.42,7.42,0,0,0-6.22-2.7,7.26,7.26,0,0,0-6.12,2.67Q1245.66,596.33,1245.66,601.61Z"/><path d="M1296,588v2.61l-5.06.6a8.64,8.64,0,0,1,1.25,2.28,8.82,8.82,0,0,1,.55,3.17,8.07,8.07,0,0,1-2.74,6.4,11,11,0,0,1-7.52,2.39,12.9,12.9,0,0,1-2.3-.19q-2.64,1.39-2.64,3.51a1.77,1.77,0,0,0,.93,1.65,6.64,6.64,0,0,0,3.16.54h4.83q4.44,0,6.81,1.87a6.46,6.46,0,0,1,2.38,5.42,7.72,7.72,0,0,1-3.64,6.91q-3.63,2.39-10.61,2.38c-3.56,0-6.32-.66-8.25-2a6.44,6.44,0,0,1-2.9-5.63,6.31,6.31,0,0,1,1.59-4.3,8.07,8.07,0,0,1,4.48-2.47,4.41,4.41,0,0,1-1.75-1.47,3.91,3.91,0,0,1-.71-2.32,4.41,4.41,0,0,1,.8-2.61,8.41,8.41,0,0,1,2.51-2.17,7.4,7.4,0,0,1-3.45-3,8.71,8.71,0,0,1-1.33-4.78,8.84,8.84,0,0,1,2.69-6.91q2.69-2.43,7.62-2.43a13.94,13.94,0,0,1,3.86.5Zm-21.77,31.87a3.71,3.71,0,0,0,1.87,3.36,10.26,10.26,0,0,0,5.36,1.15q5.19,0,7.7-1.56a4.75,4.75,0,0,0,2.5-4.22,3.31,3.31,0,0,0-1.37-3.07c-.91-.58-2.63-.86-5.15-.86h-5a6.57,6.57,0,0,0-4.38,1.34A4.84,4.84,0,0,0,1274.27,619.86Zm2.24-23.13a5.55,5.55,0,0,0,1.62,4.33,6.46,6.46,0,0,0,4.51,1.47q6,0,6-5.88,0-6.15-6.12-6.15a6.1,6.1,0,0,0-4.49,1.57A6.36,6.36,0,0,0,1276.51,596.73Z"/><path d="M1314.09,587.49a16.08,16.08,0,0,1,3.26.3l-.57,3.83a14,14,0,0,0-3-.37,7.27,7.27,0,0,0-5.66,2.69,9.81,9.81,0,0,0-2.36,6.7v14.64h-4.13V588h3.41l.48,5h.19a12.28,12.28,0,0,1,3.66-4.11A8.27,8.27,0,0,1,1314.09,587.49Z"/><path d="M1339.24,615.28l-.82-3.88h-.2a11.52,11.52,0,0,1-4.07,3.47,12.33,12.33,0,0,1-5.07.91,9.15,9.15,0,0,1-6.36-2.09,7.62,7.62,0,0,1-2.3-6q0-8.28,13.22-8.67l4.63-.15v-1.69a7,7,0,0,0-1.38-4.75,5.68,5.68,0,0,0-4.42-1.53,18.08,18.08,0,0,0-7.72,2.09l-1.27-3.16a19.63,19.63,0,0,1,4.42-1.72,19.37,19.37,0,0,1,4.82-.62q4.88,0,7.23,2.17c1.57,1.44,2.36,3.76,2.36,6.94v18.63Zm-9.34-2.91a8.4,8.4,0,0,0,6.07-2.12,7.83,7.83,0,0,0,2.2-5.93v-2.46L1334,602q-4.93.18-7.11,1.53a4.64,4.64,0,0,0-2.18,4.22,4.25,4.25,0,0,0,1.36,3.42A5.62,5.62,0,0,0,1329.9,612.37Z"/><path d="M1385.61,615.28V597.52a7.37,7.37,0,0,0-1.39-4.89,5.43,5.43,0,0,0-4.34-1.63q-3.86,0-5.7,2.22c-1.23,1.47-1.84,3.75-1.84,6.82v15.24h-4.13V597.52a7.37,7.37,0,0,0-1.4-4.89,5.45,5.45,0,0,0-4.36-1.63c-2.59,0-4.48.78-5.69,2.33s-1.8,4.1-1.8,7.63v14.32h-4.14V588h3.36l.68,3.73h.2a8.19,8.19,0,0,1,3.3-3.11,10.05,10.05,0,0,1,4.77-1.12q6.39,0,8.36,4.63h.2a8.65,8.65,0,0,1,3.54-3.39,11,11,0,0,1,5.28-1.24c3.08,0,5.4.79,6.93,2.38s2.31,4.12,2.31,7.61v17.8Z"/><path d="M1421.82,601.61q0,6.67-3.36,10.42t-9.29,3.75a12.26,12.26,0,0,1-6.5-1.72,11.33,11.33,0,0,1-4.38-4.93,17.17,17.17,0,0,1-1.55-7.52q0-6.68,3.34-10.4t9.26-3.72a11.56,11.56,0,0,1,9.11,3.81Q1421.81,595.11,1421.82,601.61Zm-20.79,0c0,3.49.69,6.14,2.09,8a8.29,8.29,0,0,0,12.31,0c1.4-1.82,2.11-4.48,2.11-8s-.71-6.11-2.11-7.91a7.38,7.38,0,0,0-6.21-2.7,7.28,7.28,0,0,0-6.13,2.67C1401.71,595.44,1401,598.09,1401,601.61Z"/><path d="M1446.67,607.84a6.82,6.82,0,0,1-2.84,5.87q-2.83,2.07-8,2.07-5.43,0-8.46-1.72v-3.83a20.6,20.6,0,0,0,4.22,1.56,17.24,17.24,0,0,0,4.34.58,9.83,9.83,0,0,0,5-1,3.54,3.54,0,0,0,.36-5.87,21.41,21.41,0,0,0-5.39-2.68,29,29,0,0,1-5.41-2.48,7.28,7.28,0,0,1-2.39-2.4,6.21,6.21,0,0,1-.79-3.21,6.13,6.13,0,0,1,2.72-5.27,12.61,12.61,0,0,1,7.44-1.93,21.9,21.9,0,0,1,8.62,1.79l-1.47,3.36a19.94,19.94,0,0,0-7.45-1.69,8.61,8.61,0,0,0-4.43.92,2.84,2.84,0,0,0-1.49,2.54,3,3,0,0,0,.56,1.87,5.46,5.46,0,0,0,1.8,1.47,41.63,41.63,0,0,0,4.78,2c3.24,1.18,5.43,2.36,6.57,3.56A6.3,6.3,0,0,1,1446.67,607.84Z"/><rect x="474.15" y="345.33" width="37.33" height="7.7" rx="3.85" ry="3.85"/><rect x="474.15" y="597.79" width="37.33" height="7.7" rx="3.85" ry="3.85"/><rect x="1005.89" y="356.87" width="52.7" height="7.7" rx="3.85" ry="3.85"/><rect x="1005.89" y="340.25" width="52.7" height="7.7" rx="3.85" ry="3.85"/><rect x="1005.89" y="601.64" width="52.7" height="7.7" rx="3.85" ry="3.85"/><rect x="1005.89" y="585.02" width="52.7" height="7.7" rx="3.85" ry="3.85"/></svg>