<svg id="Layer_2" data-name="Layer 2" xmlns="http://www.w3.org/2000/svg" viewBox="0 0 1492 800"><defs><style>.cls-1{fill:#fff;}.cls-2{fill:#dd9852;}.cls-3{fill:#9e744f;}.cls-4{fill:#c1814d;}.cls-5{fill:#e5bd98;}.cls-6{fill:#e0b451;}.cls-7{fill:#a08b4e;}.cls-8{fill:#c4a24e;}.cls-9{fill:#a57444;}</style></defs><title>Pesa_04_03</title><polygon class="cls-1" points="39.72 415.48 224.45 312.29 401.72 415.47 220.18 519.32 39.72 415.48"/><path d="M224.44,312.86l176.28,102.6L220.18,518.74,40.73,415.48,224.44,312.86m0-1.15L38.7,415.47,220.18,519.9,402.72,415.47,224.45,311.71Z"/><polygon class="cls-2" points="402.72 256.95 220.18 361.38 38.7 256.95 220.18 151.44 402.72 256.95"/><polygon class="cls-3" points="220.18 519.9 38.7 415.52 38.7 256.41 220.18 360.83 220.18 519.9"/><polygon class="cls-4" points="220.18 519.9 402.72 415.52 402.72 256.41 220.18 360.83 220.18 519.9"/><polygon class="cls-5" points="137.36 313.19 319.9 208.82 304.06 199.62 121.52 304.05 137.36 313.19"/><polygon class="cls-5" points="137.36 313.19 137.36 394.51 121.52 385.31 121.52 304.05 137.36 313.19"/><polygon class="cls-1" points="89.58 264.98 223.3 261.27 351.53 264.98 220.17 340.13 89.58 264.98"/><path d="M223.28,261.77l126.46,3.66L220.17,339.55,91.36,265.43l131.92-3.66m0-1L87.79,264.53,220.17,340.7l133.15-76.17-130-3.76Z"/><polygon class="cls-6" points="353.32 220.83 220.17 297 87.79 220.83 220.17 143.86 353.32 220.83"/><polygon class="cls-7" points="220.17 340.7 87.79 264.57 87.79 220.43 220.17 296.6 220.17 340.7"/><polygon class="cls-8" points="220.17 340.7 353.32 264.57 353.32 220.43 220.17 296.6 220.17 340.7"/><polygon class="cls-9" points="159.76 261.85 292.91 185.72 281.36 179.01 148.2 255.18 159.76 261.85"/><polygon class="cls-9" points="159.76 261.85 159.76 285.41 148.2 278.7 148.2 255.18 159.76 261.85"/><polygon class="cls-1" points="595.33 415.48 780.06 312.29 957.33 415.47 775.79 519.32 595.33 415.48"/><path d="M780.05,312.86l176.28,102.6L775.79,518.74,596.34,415.48,780.05,312.86m0-1.15L594.31,415.47,775.79,519.9,958.33,415.47,780.06,311.71Z"/><polygon class="cls-2" points="958.33 256.95 775.79 361.38 594.32 256.95 775.79 151.44 958.33 256.95"/><polygon class="cls-3" points="775.79 519.9 594.32 415.52 594.32 256.41 775.79 360.83 775.79 519.9"/><polygon class="cls-4" points="775.79 519.9 958.33 415.52 958.33 256.41 775.79 360.83 775.79 519.9"/><polygon class="cls-5" points="692.97 313.19 875.51 208.82 859.67 199.62 677.13 304.05 692.97 313.19"/><polygon class="cls-5" points="692.97 313.19 692.97 394.51 677.13 385.31 677.13 304.05 692.97 313.19"/><polygon class="cls-1" points="1162.71 354.58 1296.43 350.87 1424.66 354.57 1293.3 429.72 1162.71 354.58"/><path d="M1296.41,351.37,1422.87,355,1293.3,429.15,1164.49,355l131.92-3.66m0-1-135.49,3.76L1293.3,430.3l133.15-76.17-130-3.76Z"/><polygon class="cls-6" points="1426.45 310.42 1293.3 386.6 1160.92 310.42 1293.3 233.46 1426.45 310.42"/><polygon class="cls-7" points="1293.3 430.3 1160.92 354.17 1160.92 310.03 1293.3 386.2 1293.3 430.3"/><polygon class="cls-8" points="1293.3 430.3 1426.45 354.17 1426.45 310.03 1293.3 386.2 1293.3 430.3"/><polygon class="cls-9" points="1232.88 351.45 1366.04 275.31 1354.48 268.61 1221.33 344.78 1232.88 351.45"/><polygon class="cls-9" points="1232.88 351.45 1232.88 375 1221.33 368.3 1221.33 344.78 1232.88 351.45"/><path d="M77.8,607.21l15.09-32.6H73V570.8H97.27v3.31l-14.89,33.1Z"/><path d="M102.78,591.64q0-10.73,4.17-16t12.34-5.31a16.29,16.29,0,0,1,4.43.47v3.56a14.34,14.34,0,0,0-4.38-.62q-5.86,0-8.94,3.65T107,588.8h.3q2.73-4.27,8.66-4.28a10.22,10.22,0,0,1,7.74,3,11.21,11.21,0,0,1,2.82,8q0,5.67-3.1,8.92a11,11,0,0,1-8.38,3.25,10.76,10.76,0,0,1-9-4.24Q102.78,599.21,102.78,591.64ZM115,604.19a6.89,6.89,0,0,0,5.49-2.23c1.31-1.48,2-3.63,2-6.43a8.32,8.32,0,0,0-1.82-5.68,6.84,6.84,0,0,0-5.43-2.07,9.25,9.25,0,0,0-4.11.92,7.76,7.76,0,0,0-3,2.54,5.87,5.87,0,0,0-1.11,3.37,11.59,11.59,0,0,0,1,4.78,8.5,8.5,0,0,0,2.83,3.51A7.06,7.06,0,0,0,115,604.19Z"/><path d="M150.74,593.24a47.66,47.66,0,0,1,3.26-4l8.82-9.34h4.9l-11.05,11.63,11.82,15.67h-5l-9.64-12.9L150.74,597v10.21h-4.09V568.46h4.09V589c0,.92-.07,2.33-.2,4.24Z"/><path d="M173.08,572.52a2.76,2.76,0,0,1,.69-2.08,2.6,2.6,0,0,1,3.47,0,2.71,2.71,0,0,1,.72,2.07,2.75,2.75,0,0,1-.72,2.08,2.46,2.46,0,0,1-1.72.68,2.43,2.43,0,0,1-1.75-.68A2.82,2.82,0,0,1,173.08,572.52Zm4.48,34.69h-4.14v-27.3h4.14Z"/><path d="M190.46,607.21h-4.14V568.46h4.14Z"/><path d="M222.78,593.53q0,6.68-3.36,10.43t-9.29,3.74a12.34,12.34,0,0,1-6.5-1.71,11.39,11.39,0,0,1-4.38-4.93,17.22,17.22,0,0,1-1.55-7.53q0-6.66,3.34-10.39c2.23-2.48,5.31-3.72,9.27-3.72a11.52,11.52,0,0,1,9.1,3.81Q222.79,587,222.78,593.53Zm-20.79,0c0,3.49.69,6.15,2.09,8a8.3,8.3,0,0,0,12.31,0q2.12-2.73,2.11-8c0-3.46-.7-6.1-2.11-7.9a7.38,7.38,0,0,0-6.21-2.7,7.27,7.27,0,0,0-6.13,2.66Q202,588.26,202,593.53Z"/><path d="M252.37,579.91v2.62l-5.06.6a8.73,8.73,0,0,1,1.24,2.27,8.62,8.62,0,0,1,.55,3.18,8.06,8.06,0,0,1-2.74,6.4,11.05,11.05,0,0,1-7.52,2.39,12.84,12.84,0,0,1-2.29-.2q-2.64,1.4-2.64,3.51a1.8,1.8,0,0,0,.92,1.66,6.74,6.74,0,0,0,3.17.53h4.83c2.95,0,5.22.63,6.81,1.87a6.51,6.51,0,0,1,2.38,5.43,7.77,7.77,0,0,1-3.64,6.91q-3.63,2.38-10.61,2.38c-3.57,0-6.32-.67-8.25-2a6.43,6.43,0,0,1-2.9-5.63,6.33,6.33,0,0,1,1.59-4.31,8.19,8.19,0,0,1,4.48-2.47,4.19,4.19,0,0,1-1.75-1.47,3.82,3.82,0,0,1-.71-2.31,4.36,4.36,0,0,1,.79-2.61,8.34,8.34,0,0,1,2.52-2.17,7.37,7.37,0,0,1-3.45-3,8.66,8.66,0,0,1-1.33-4.78,8.81,8.81,0,0,1,2.69-6.91c1.79-1.62,4.33-2.42,7.62-2.42a14,14,0,0,1,3.86.49ZM230.6,611.79a3.69,3.69,0,0,0,1.87,3.36,10.32,10.32,0,0,0,5.35,1.15q5.2,0,7.71-1.56a4.77,4.77,0,0,0,2.5-4.22,3.34,3.34,0,0,0-1.37-3.08q-1.36-.86-5.15-.86h-5a6.5,6.5,0,0,0-4.38,1.35A4.79,4.79,0,0,0,230.6,611.79Zm2.24-23.14a5.57,5.57,0,0,0,1.62,4.34,6.46,6.46,0,0,0,4.51,1.47q6,0,6.05-5.88,0-6.15-6.13-6.15a6.05,6.05,0,0,0-4.48,1.57A6.29,6.29,0,0,0,232.84,588.65Z"/><path d="M270.42,579.42a16.13,16.13,0,0,1,3.26.29l-.57,3.84a14.11,14.11,0,0,0-3-.38,7.26,7.26,0,0,0-5.66,2.69,9.83,9.83,0,0,0-2.36,6.7v14.65H258v-27.3h3.41l.47,5.06h.2a11.89,11.89,0,0,1,3.66-4.11A8.27,8.27,0,0,1,270.42,579.42Z"/><path d="M295.57,607.21l-.82-3.89h-.2a11.42,11.42,0,0,1-4.07,3.47,12.36,12.36,0,0,1-5.07.91,9.07,9.07,0,0,1-6.36-2.09,7.61,7.61,0,0,1-2.31-6q0-8.26,13.23-8.66l4.63-.16v-1.69a6.92,6.92,0,0,0-1.38-4.74,5.69,5.69,0,0,0-4.42-1.53,17.9,17.9,0,0,0-7.72,2.09l-1.27-3.16a19.17,19.17,0,0,1,4.42-1.72,18.93,18.93,0,0,1,4.82-.63c3.25,0,5.66.73,7.23,2.17s2.35,3.76,2.35,7v18.63Zm-9.34-2.92a8.41,8.41,0,0,0,6.07-2.11,7.88,7.88,0,0,0,2.2-5.93v-2.47l-4.13.18c-3.29.11-5.66.63-7.11,1.53a4.6,4.6,0,0,0-2.18,4.22,4.27,4.27,0,0,0,1.35,3.41A5.65,5.65,0,0,0,286.23,604.29Z"/><path d="M341.94,607.21V589.45a7.35,7.35,0,0,0-1.4-4.89,5.38,5.38,0,0,0-4.33-1.63q-3.85,0-5.7,2.21c-1.23,1.48-1.84,3.75-1.84,6.83v15.24h-4.14V589.45a7.35,7.35,0,0,0-1.39-4.89,5.43,5.43,0,0,0-4.36-1.63q-3.88,0-5.69,2.32c-1.21,1.56-1.81,4.1-1.81,7.64v14.32h-4.13v-27.3h3.36l.67,3.74h.2a8.06,8.06,0,0,1,3.3-3.11,10.05,10.05,0,0,1,4.77-1.12q6.41,0,8.37,4.63h.2a8.68,8.68,0,0,1,3.53-3.39,11,11,0,0,1,5.28-1.24q4.64,0,6.94,2.37t2.3,7.61v17.81Z"/><path d="M378.15,593.53q0,6.68-3.37,10.43t-9.28,3.74A12.34,12.34,0,0,1,359,606a11.35,11.35,0,0,1-4.39-4.93,17.22,17.22,0,0,1-1.54-7.53q0-6.66,3.34-10.39t9.26-3.72a11.51,11.51,0,0,1,9.1,3.81Q378.15,587,378.15,593.53Zm-20.8,0q0,5.24,2.09,8a8.31,8.31,0,0,0,12.32,0q2.1-2.73,2.1-8c0-3.46-.7-6.1-2.1-7.9a7.38,7.38,0,0,0-6.21-2.7,7.27,7.27,0,0,0-6.13,2.66Q357.35,588.26,357.35,593.53Z"/><path d="M403,599.76a6.85,6.85,0,0,1-2.84,5.88c-1.89,1.38-4.55,2.06-8,2.06q-5.43,0-8.46-1.71v-3.84a19.85,19.85,0,0,0,4.22,1.57,17.68,17.68,0,0,0,4.34.57,9.83,9.83,0,0,0,5-1,3.56,3.56,0,0,0,.36-5.88,21.66,21.66,0,0,0-5.39-2.67,29.71,29.71,0,0,1-5.41-2.48,7.44,7.44,0,0,1-2.4-2.41,6.26,6.26,0,0,1-.78-3.21,6.13,6.13,0,0,1,2.71-5.27,12.72,12.72,0,0,1,7.45-1.92,21.73,21.73,0,0,1,8.62,1.79L401,584.57a19.75,19.75,0,0,0-7.45-1.69,8.51,8.51,0,0,0-4.43.92,2.84,2.84,0,0,0-1.5,2.54,3.08,3.08,0,0,0,.57,1.87,5.45,5.45,0,0,0,1.8,1.46,39.12,39.12,0,0,0,4.78,2q4.86,1.77,6.56,3.56A6.28,6.28,0,0,1,403,599.76Z"/><path d="M631.46,598.84h-5.41v8.37h-4v-8.37h-17.7v-3.61l17.28-24.63h4.38v24.48h5.41Zm-9.37-3.76V583q0-3.57.25-8.05h-.2a36.32,36.32,0,0,1-2.24,4l-11.38,16.19Z"/><path d="M658.9,607.21H635v-3.56l9.58-9.64a70.48,70.48,0,0,0,5.78-6.33,16,16,0,0,0,2.09-3.68,10.46,10.46,0,0,0,.7-3.86,6.13,6.13,0,0,0-1.77-4.62,6.75,6.75,0,0,0-4.9-1.71,12.27,12.27,0,0,0-4.3.75,17.23,17.23,0,0,0-4.52,2.71l-2.19-2.81a16.76,16.76,0,0,1,11-4.18q5.13,0,8,2.62a9.06,9.06,0,0,1,2.91,7.06,13.59,13.59,0,0,1-1.94,6.85,43.23,43.23,0,0,1-7.27,8.57l-8,7.79v.2H658.9Z"/><path d="M683.35,593.24a49.78,49.78,0,0,1,3.26-4l8.82-9.34h4.9l-11.05,11.63,11.83,15.67h-5l-9.64-12.9L683.35,597v10.21h-4.08V568.46h4.08V589c0,.92-.06,2.33-.2,4.24Z"/><path d="M705.69,572.52a2.72,2.72,0,0,1,.7-2.08,2.58,2.58,0,0,1,3.46,0,2.71,2.71,0,0,1,.72,2.07,2.75,2.75,0,0,1-.72,2.08,2.44,2.44,0,0,1-1.72.68,2.39,2.39,0,0,1-1.74-.68A2.78,2.78,0,0,1,705.69,572.52Zm4.48,34.69H706v-27.3h4.13Z"/><path d="M723.07,607.21h-4.13V568.46h4.13Z"/><path d="M755.39,593.54q0,6.68-3.36,10.42t-9.29,3.75a12.31,12.31,0,0,1-6.49-1.72,11.35,11.35,0,0,1-4.39-4.93,17.2,17.2,0,0,1-1.54-7.52q0-6.67,3.34-10.4t9.26-3.72a11.54,11.54,0,0,1,9.1,3.81Q755.4,587,755.39,593.54Zm-20.79,0c0,3.48.7,6.14,2.09,8a8.31,8.31,0,0,0,12.32,0q2.1-2.73,2.1-8t-2.1-7.91a7.42,7.42,0,0,0-6.22-2.7,7.29,7.29,0,0,0-6.12,2.66Q734.6,588.26,734.6,593.54Z"/><path d="M785,579.91v2.62l-5.06.6a8.64,8.64,0,0,1,1.25,2.28,8.74,8.74,0,0,1,.55,3.17A8.09,8.09,0,0,1,779,595a11.09,11.09,0,0,1-7.52,2.39,12.68,12.68,0,0,1-2.29-.2q-2.64,1.4-2.64,3.51a1.78,1.78,0,0,0,.92,1.66,6.69,6.69,0,0,0,3.16.53h4.83c3,0,5.23.63,6.81,1.87a6.49,6.49,0,0,1,2.38,5.43,7.74,7.74,0,0,1-3.64,6.91q-3.63,2.38-10.61,2.38c-3.56,0-6.32-.67-8.25-2a6.45,6.45,0,0,1-2.9-5.63,6.33,6.33,0,0,1,1.59-4.31,8.12,8.12,0,0,1,4.48-2.46,4.41,4.41,0,0,1-1.75-1.47,3.94,3.94,0,0,1-.71-2.32,4.37,4.37,0,0,1,.8-2.61,8.41,8.41,0,0,1,2.51-2.17,7.4,7.4,0,0,1-3.45-3,8.72,8.72,0,0,1-1.33-4.79,8.85,8.85,0,0,1,2.69-6.91q2.69-2.42,7.62-2.42a14,14,0,0,1,3.86.49Zm-21.77,31.88a3.71,3.71,0,0,0,1.87,3.36,10.36,10.36,0,0,0,5.36,1.15q5.19,0,7.7-1.56a4.77,4.77,0,0,0,2.5-4.22,3.36,3.36,0,0,0-1.36-3.08q-1.38-.86-5.16-.86h-5a6.53,6.53,0,0,0-4.39,1.35A4.82,4.82,0,0,0,763.21,611.79Zm2.25-23.14a5.57,5.57,0,0,0,1.61,4.34,6.46,6.46,0,0,0,4.51,1.47c4,0,6-2,6-5.88q0-6.15-6.12-6.15A6.06,6.06,0,0,0,767,584,6.33,6.33,0,0,0,765.46,588.65Z"/><path d="M803,579.42a16.88,16.88,0,0,1,3.26.29l-.57,3.84a14,14,0,0,0-3-.37,7.26,7.26,0,0,0-5.66,2.69,9.78,9.78,0,0,0-2.36,6.69v14.65h-4.13v-27.3H794l.48,5.06h.2a11.89,11.89,0,0,1,3.66-4.11A8.22,8.22,0,0,1,803,579.42Z"/><path d="M828.18,607.21l-.82-3.89h-.2a11.56,11.56,0,0,1-4.07,3.48,12.5,12.5,0,0,1-5.07.91,9.1,9.1,0,0,1-6.36-2.1,7.63,7.63,0,0,1-2.3-6q0-8.26,13.22-8.66l4.63-.15v-1.7a6.92,6.92,0,0,0-1.38-4.74,5.68,5.68,0,0,0-4.42-1.53,17.94,17.94,0,0,0-7.72,2.09l-1.27-3.16a19.17,19.17,0,0,1,4.42-1.72,18.92,18.92,0,0,1,4.82-.62q4.88,0,7.23,2.16c1.57,1.45,2.36,3.76,2.36,7v18.63Zm-9.34-2.92a8.4,8.4,0,0,0,6.07-2.11,7.83,7.83,0,0,0,2.2-5.93v-2.46L823,594q-4.93.18-7.11,1.53a4.63,4.63,0,0,0-2.18,4.22,4.23,4.23,0,0,0,1.36,3.41A5.62,5.62,0,0,0,818.84,604.29Z"/><path d="M874.55,607.21V589.45a7.37,7.37,0,0,0-1.39-4.89,5.4,5.4,0,0,0-4.34-1.63q-3.86,0-5.7,2.21T861.28,592v15.24h-4.14V589.45a7.37,7.37,0,0,0-1.39-4.89,5.42,5.42,0,0,0-4.36-1.63c-2.59,0-4.48.77-5.69,2.33s-1.8,4.09-1.8,7.63v14.32h-4.14v-27.3h3.36l.68,3.74h.2a8.06,8.06,0,0,1,3.3-3.11,10,10,0,0,1,4.76-1.12q6.41,0,8.37,4.63h.2a8.65,8.65,0,0,1,3.54-3.39,11,11,0,0,1,5.28-1.24c3.08,0,5.4.79,6.93,2.37s2.3,4.13,2.3,7.61v17.81Z"/><path d="M910.76,593.54q0,6.68-3.36,10.42t-9.29,3.75a12.35,12.35,0,0,1-6.5-1.72,11.39,11.39,0,0,1-4.38-4.93,17.2,17.2,0,0,1-1.55-7.52q0-6.67,3.34-10.4t9.26-3.72a11.56,11.56,0,0,1,9.11,3.81Q910.75,587,910.76,593.54Zm-20.79,0c0,3.48.69,6.14,2.09,8a8.3,8.3,0,0,0,12.31,0q2.11-2.73,2.11-8t-2.11-7.91a7.38,7.38,0,0,0-6.21-2.7,7.3,7.3,0,0,0-6.13,2.66Q890,588.26,890,593.54Z"/><path d="M935.61,599.76a6.83,6.83,0,0,1-2.84,5.88c-1.89,1.38-4.55,2.07-8,2.07-3.62,0-6.45-.58-8.47-1.72v-3.84a20.05,20.05,0,0,0,4.22,1.57,17.69,17.69,0,0,0,4.35.57,9.89,9.89,0,0,0,5-1,3.56,3.56,0,0,0,.36-5.88,21.94,21.94,0,0,0-5.4-2.67,30,30,0,0,1-5.41-2.48,7.47,7.47,0,0,1-2.39-2.4,6.32,6.32,0,0,1-.79-3.22,6.11,6.11,0,0,1,2.72-5.26,12.61,12.61,0,0,1,7.44-1.93,21.73,21.73,0,0,1,8.62,1.79l-1.47,3.36a19.74,19.74,0,0,0-7.44-1.69,8.55,8.55,0,0,0-4.44.92,2.85,2.85,0,0,0-1.49,2.54,3.07,3.07,0,0,0,.56,1.87,5.59,5.59,0,0,0,1.8,1.47,42.14,42.14,0,0,0,4.78,2q4.86,1.77,6.57,3.56A6.32,6.32,0,0,1,935.61,599.76Z"/><path d="M1146.76,579.37a8.32,8.32,0,0,1-2,5.7,9.8,9.8,0,0,1-5.54,3v.2q4.38.56,6.49,2.79a8.16,8.16,0,0,1,2.12,5.88,9.5,9.5,0,0,1-3.61,8q-3.62,2.8-10.26,2.81a29.69,29.69,0,0,1-5.29-.44,18.13,18.13,0,0,1-4.67-1.53V601.8a22.49,22.49,0,0,0,5,1.78,22.73,22.73,0,0,0,5.07.61q9.43,0,9.44-7.39,0-6.63-10.41-6.63h-3.59v-3.56h3.64a10.91,10.91,0,0,0,6.75-1.88,6.16,6.16,0,0,0,2.49-5.21,5.15,5.15,0,0,0-1.83-4.19,7.57,7.57,0,0,0-5-1.52,15.42,15.42,0,0,0-4.51.65,20.21,20.21,0,0,0-4.83,2.39l-2.09-2.79a17.19,17.19,0,0,1,5.17-2.77,18.55,18.55,0,0,1,6.16-1c3.54,0,6.28.81,8.24,2.43A8.15,8.15,0,0,1,1146.76,579.37Z"/><path d="M1179,598.84h-5.4v8.37h-4v-8.37h-17.71v-3.61l17.28-24.63h4.39v24.48h5.4Zm-9.36-3.76V583q0-3.57.25-8.05h-.2a38.07,38.07,0,0,1-2.24,4l-11.38,16.19Z"/><path d="M1201.75,593.24a47.66,47.66,0,0,1,3.26-4l8.81-9.34h4.91l-11.06,11.63,11.83,15.67h-5l-9.64-12.9-3.11,2.69v10.21h-4.09V568.46h4.09V589c0,.92-.07,2.33-.2,4.24Z"/><path d="M1224.08,572.52a2.72,2.72,0,0,1,.7-2.08,2.58,2.58,0,0,1,3.46,0,2.71,2.71,0,0,1,.72,2.07,2.75,2.75,0,0,1-.72,2.08,2.54,2.54,0,0,1-3.46,0A2.78,2.78,0,0,1,1224.08,572.52Zm4.48,34.69h-4.13v-27.3h4.13Z"/><path d="M1241.46,607.21h-4.13V568.46h4.13Z"/><path d="M1273.79,593.54q0,6.68-3.37,10.42t-9.28,3.75a12.35,12.35,0,0,1-6.5-1.72,11.41,11.41,0,0,1-4.39-4.93,17.2,17.2,0,0,1-1.54-7.52q0-6.67,3.34-10.4t9.26-3.72a11.54,11.54,0,0,1,9.1,3.81Q1273.79,587,1273.79,593.54Zm-20.8,0c0,3.48.7,6.14,2.09,8a8.31,8.31,0,0,0,12.32,0q2.1-2.73,2.1-8t-2.1-7.91a7.38,7.38,0,0,0-6.21-2.7,7.3,7.3,0,0,0-6.13,2.66Q1253,588.26,1253,593.54Z"/><path d="M1303.37,579.91v2.62l-5,.6a8.64,8.64,0,0,1,1.24,2.28,8.53,8.53,0,0,1,.55,3.17,8.06,8.06,0,0,1-2.74,6.4,11.07,11.07,0,0,1-7.52,2.39,12.76,12.76,0,0,1-2.29-.2q-2.64,1.4-2.64,3.51a1.8,1.8,0,0,0,.92,1.66,6.69,6.69,0,0,0,3.16.53h4.83c3,0,5.23.63,6.81,1.87a6.49,6.49,0,0,1,2.38,5.43,7.75,7.75,0,0,1-3.63,6.91q-3.65,2.38-10.61,2.38c-3.57,0-6.32-.67-8.26-2a6.45,6.45,0,0,1-2.9-5.63,6.29,6.29,0,0,1,1.6-4.31,8.08,8.08,0,0,1,4.48-2.46,4.43,4.43,0,0,1-1.76-1.47,3.94,3.94,0,0,1-.71-2.32,4.37,4.37,0,0,1,.8-2.61,8.34,8.34,0,0,1,2.52-2.17,7.31,7.31,0,0,1-3.45-3,8.72,8.72,0,0,1-1.34-4.79,8.85,8.85,0,0,1,2.69-6.91q2.7-2.42,7.62-2.42a13.91,13.91,0,0,1,3.86.49Zm-21.76,31.88a3.7,3.7,0,0,0,1.86,3.36,10.36,10.36,0,0,0,5.36,1.15q5.2,0,7.71-1.56a4.79,4.79,0,0,0,2.5-4.22,3.36,3.36,0,0,0-1.37-3.08q-1.37-.86-5.16-.86h-5a6.48,6.48,0,0,0-4.38,1.35A4.79,4.79,0,0,0,1281.61,611.79Zm2.24-23.14a5.57,5.57,0,0,0,1.62,4.34,6.45,6.45,0,0,0,4.5,1.47q6.06,0,6.06-5.88,0-6.15-6.13-6.15a6,6,0,0,0-4.48,1.57A6.29,6.29,0,0,0,1283.85,588.65Z"/><path d="M1321.43,579.42a17,17,0,0,1,3.26.29l-.57,3.84a14,14,0,0,0-3-.37,7.26,7.26,0,0,0-5.67,2.69,9.78,9.78,0,0,0-2.35,6.69v14.65H1309v-27.3h3.42l.47,5.06h.2a11.89,11.89,0,0,1,3.66-4.11A8.27,8.27,0,0,1,1321.43,579.42Z"/><path d="M1346.58,607.21l-.82-3.89h-.2a11.58,11.58,0,0,1-4.08,3.48,12.48,12.48,0,0,1-5.06.91,9.11,9.11,0,0,1-6.37-2.1,7.63,7.63,0,0,1-2.3-6q0-8.26,13.22-8.66l4.64-.15v-1.7a6.87,6.87,0,0,0-1.39-4.74,5.68,5.68,0,0,0-4.42-1.53,18,18,0,0,0-7.72,2.09l-1.27-3.16a19.35,19.35,0,0,1,4.42-1.72,19,19,0,0,1,4.82-.62q4.89,0,7.24,2.16c1.57,1.45,2.35,3.76,2.35,7v18.63Zm-9.34-2.92a8.39,8.39,0,0,0,6.06-2.11,7.84,7.84,0,0,0,2.21-5.93v-2.46l-4.14.17q-4.92.18-7.11,1.53a4.63,4.63,0,0,0-2.18,4.22,4.26,4.26,0,0,0,1.36,3.41A5.65,5.65,0,0,0,1337.24,604.29Z"/><path d="M1393,607.21V589.45a7.37,7.37,0,0,0-1.4-4.89,5.38,5.38,0,0,0-4.33-1.63q-3.87,0-5.7,2.21t-1.85,6.83v15.24h-4.13V589.45a7.37,7.37,0,0,0-1.4-4.89,5.41,5.41,0,0,0-4.35-1.63c-2.59,0-4.49.77-5.69,2.33s-1.81,4.09-1.81,7.63v14.32h-4.13v-27.3h3.36l.67,3.74h.2a8.06,8.06,0,0,1,3.3-3.11,10.05,10.05,0,0,1,4.77-1.12c4.27,0,7,1.54,8.37,4.63h.2a8.68,8.68,0,0,1,3.53-3.39,11,11,0,0,1,5.28-1.24q4.64,0,6.94,2.37t2.3,7.61v17.81Z"/><path d="M1429.15,593.54q0,6.68-3.36,10.42t-9.29,3.75A12.38,12.38,0,0,1,1410,606a11.39,11.39,0,0,1-4.38-4.93,17.2,17.2,0,0,1-1.54-7.52q0-6.67,3.33-10.4t9.27-3.72a11.54,11.54,0,0,1,9.1,3.81Q1429.16,587,1429.15,593.54Zm-20.79,0c0,3.48.7,6.14,2.09,8a8.31,8.31,0,0,0,12.32,0q2.1-2.73,2.1-8t-2.1-7.91a7.42,7.42,0,0,0-6.22-2.7,7.28,7.28,0,0,0-6.12,2.66Q1408.36,588.26,1408.36,593.54Z"/><path d="M1454,599.76a6.84,6.84,0,0,1-2.83,5.88c-1.9,1.38-4.55,2.07-8,2.07-3.62,0-6.44-.58-8.47-1.72v-3.84a20.05,20.05,0,0,0,4.22,1.57,17.69,17.69,0,0,0,4.35.57,9.83,9.83,0,0,0,5-1,3.56,3.56,0,0,0,.36-5.88,22,22,0,0,0-5.39-2.67,29.88,29.88,0,0,1-5.42-2.48,7.47,7.47,0,0,1-2.39-2.4,6.32,6.32,0,0,1-.78-3.22,6.1,6.1,0,0,1,2.71-5.26,12.63,12.63,0,0,1,7.45-1.93,21.68,21.68,0,0,1,8.61,1.79l-1.47,3.36a19.74,19.74,0,0,0-7.44-1.69,8.55,8.55,0,0,0-4.44.92,2.85,2.85,0,0,0-1.49,2.54,3.14,3.14,0,0,0,.56,1.87,5.64,5.64,0,0,0,1.81,1.47,41.32,41.32,0,0,0,4.78,2c3.24,1.18,5.42,2.37,6.56,3.56A6.28,6.28,0,0,1,1454,599.76Z"/><rect x="481.48" y="337.25" width="37.33" height="7.7" rx="3.85" ry="3.85"/><rect x="481.48" y="589.72" width="37.33" height="7.7" rx="3.85" ry="3.85"/><rect x="1013.23" y="348.8" width="52.7" height="7.7" rx="3.85" ry="3.85"/><rect x="1013.23" y="332.17" width="52.7" height="7.7" rx="3.85" ry="3.85"/><rect x="1013.23" y="593.57" width="52.7" height="7.7" rx="3.85" ry="3.85"/><rect x="1013.23" y="576.94" width="52.7" height="7.7" rx="3.85" ry="3.85"/></svg>