<svg id="Layer_2" data-name="Layer 2" xmlns="http://www.w3.org/2000/svg" viewBox="0 0 1492 800"><defs><style>.cls-1{fill:#fff;}.cls-2{fill:#dd9852;}.cls-3{fill:#9e744f;}.cls-4{fill:#c1814d;}.cls-5{fill:#e5bd98;}.cls-6{fill:#e0b451;}.cls-7{fill:#a08b4e;}.cls-8{fill:#c4a24e;}.cls-9{fill:#a57444;}</style></defs><title>Pesa_01_03</title><polygon class="cls-1" points="32.38 421 217.11 317.81 394.38 420.99 212.85 524.85 32.38 421"/><path d="M217.11,318.39,393.38,421,212.85,524.27,33.4,421,217.11,318.39m0-1.15L31.37,421,212.84,525.42,395.38,421,217.12,317.24Z"/><polygon class="cls-2" points="395.38 262.48 212.84 366.9 31.37 262.48 212.84 156.96 395.38 262.48"/><polygon class="cls-3" points="212.84 525.42 31.37 421.05 31.37 261.93 212.84 366.36 212.84 525.42"/><polygon class="cls-4" points="212.84 525.42 395.38 421.05 395.38 261.93 212.84 366.36 212.84 525.42"/><polygon class="cls-5" points="130.02 318.72 312.56 214.34 296.73 205.15 114.19 309.57 130.02 318.72"/><polygon class="cls-5" points="130.02 318.72 130.02 400.04 114.19 390.84 114.19 309.57 130.02 318.72"/><polygon class="cls-1" points="82.24 270.51 215.97 266.8 344.2 270.5 212.84 345.65 82.24 270.51"/><path d="M216,267.3,342.41,271,212.84,345.08,84,271,216,267.3m0-1L80.46,270.06l132.37,76.17L346,270.06,216,266.3Z"/><polygon class="cls-6" points="345.99 226.35 212.83 302.53 80.46 226.35 212.83 149.39 345.99 226.35"/><polygon class="cls-7" points="212.83 346.23 80.46 270.09 80.46 225.96 212.83 302.13 212.83 346.23"/><polygon class="cls-8" points="212.83 346.23 345.99 270.09 345.99 225.96 212.83 302.13 212.83 346.23"/><polygon class="cls-9" points="152.42 267.38 285.57 191.24 274.02 184.54 140.87 260.71 152.42 267.38"/><polygon class="cls-9" points="152.42 267.38 152.42 290.93 140.87 284.23 140.87 260.71 152.42 267.38"/><polygon class="cls-1" points="588 421 772.73 317.81 950 420.99 768.46 524.85 588 421"/><path d="M772.72,318.39,949,421,768.46,524.27,589,421,772.72,318.39m0-1.15L587,421,768.46,525.42,951,421,772.73,317.24Z"/><polygon class="cls-2" points="951 262.48 768.46 366.9 586.98 262.48 768.46 156.96 951 262.48"/><polygon class="cls-3" points="768.46 525.42 586.98 421.05 586.98 261.93 768.46 366.36 768.46 525.42"/><polygon class="cls-4" points="768.46 525.42 951 421.05 951 261.93 768.46 366.36 768.46 525.42"/><polygon class="cls-5" points="685.64 318.72 868.18 214.34 852.34 205.15 669.8 309.57 685.64 318.72"/><polygon class="cls-5" points="685.64 318.72 685.64 400.04 669.8 390.84 669.8 309.57 685.64 318.72"/><polygon class="cls-1" points="1155.37 360.1 1289.09 356.4 1417.33 360.1 1285.96 435.25 1155.37 360.1"/><path d="M1289.08,356.9l126.45,3.65L1286,434.67l-128.8-74.12,131.92-3.65m0-1-135.49,3.75L1286,435.83l133.16-76.18-130-3.75Z"/><polygon class="cls-6" points="1419.12 315.95 1285.96 392.12 1153.59 315.95 1285.96 238.99 1419.12 315.95"/><polygon class="cls-7" points="1285.96 435.83 1153.59 359.69 1153.59 315.56 1285.96 391.73 1285.96 435.83"/><polygon class="cls-8" points="1285.96 435.83 1419.12 359.69 1419.12 315.56 1285.96 391.73 1285.96 435.83"/><polygon class="cls-9" points="1225.55 356.98 1358.7 280.84 1347.15 274.13 1214 350.31 1225.55 356.98"/><polygon class="cls-9" points="1225.55 356.98 1225.55 380.53 1214 373.82 1214 350.31 1225.55 356.98"/><path d="M66.28,597.17q0-10.74,4.17-16t12.34-5.32a16.13,16.13,0,0,1,4.43.48v3.56a13.94,13.94,0,0,0-4.38-.63q-5.85,0-8.94,3.65t-3.39,11.47h.3q2.75-4.27,8.67-4.28a10.19,10.19,0,0,1,7.73,3,11.16,11.16,0,0,1,2.83,8q0,5.69-3.1,8.93a11,11,0,0,1-8.38,3.25,10.78,10.78,0,0,1-9-4.24Q66.29,604.74,66.28,597.17Zm12.23,12.55A6.89,6.89,0,0,0,84,607.49q1.95-2.22,2-6.44a8.29,8.29,0,0,0-1.81-5.67,6.85,6.85,0,0,0-5.43-2.07,9.19,9.19,0,0,0-4.11.92,7.63,7.63,0,0,0-3,2.54,5.87,5.87,0,0,0-1.11,3.36,11.56,11.56,0,0,0,1,4.78,8.36,8.36,0,0,0,2.83,3.51A7,7,0,0,0,78.51,609.72Z"/><path d="M107.07,575.8a12.4,12.4,0,0,1,7.9,2.32,7.73,7.73,0,0,1,2.91,6.4,8,8,0,0,1-1.67,4.9,14.69,14.69,0,0,1-5.33,4,17.83,17.83,0,0,1,6.3,4.44,8.37,8.37,0,0,1,1.87,5.4,9,9,0,0,1-3.16,7.23q-3.17,2.7-8.67,2.7-5.82,0-9-2.55a8.77,8.77,0,0,1-3.14-7.24q0-6.24,7.62-9.73a14.1,14.1,0,0,1-4.93-4.2,8.88,8.88,0,0,1-1.5-5,7.68,7.68,0,0,1,2.93-6.31A12.12,12.12,0,0,1,107.07,575.8ZM99.2,603.54a5.65,5.65,0,0,0,2.08,4.66,9.12,9.12,0,0,0,5.84,1.67,8.73,8.73,0,0,0,5.78-1.74,5.94,5.94,0,0,0,2.07-4.79,5.82,5.82,0,0,0-2-4.29,19.83,19.83,0,0,0-6.77-3.65,14.81,14.81,0,0,0-5.38,3.52A6.85,6.85,0,0,0,99.2,603.54ZM107,579.17a7.32,7.32,0,0,0-4.88,1.49,5,5,0,0,0-1.77,4,5.72,5.72,0,0,0,1.47,3.94,15.5,15.5,0,0,0,5.43,3.29,13.55,13.55,0,0,0,5-3.22,5.92,5.92,0,0,0,1.48-4,4.89,4.89,0,0,0-1.8-4A7.59,7.59,0,0,0,107,579.17Z"/><path d="M143.4,598.76a50.51,50.51,0,0,1,3.27-4l8.81-9.34h4.91l-11.06,11.63,11.83,15.66h-5l-9.63-12.9-3.12,2.69v10.21h-4.08V574h4.08v20.54c0,.91-.06,2.32-.19,4.23Z"/><path d="M165.74,578a2.75,2.75,0,0,1,.7-2.08,2.47,2.47,0,0,1,1.74-.65,2.42,2.42,0,0,1,1.72.67,2.7,2.7,0,0,1,.72,2.06,2.73,2.73,0,0,1-.72,2.08,2.51,2.51,0,0,1-3.46,0A2.77,2.77,0,0,1,165.74,578Zm4.48,34.69h-4.13V585.44h4.13Z"/><path d="M183.12,612.73H179V574h4.13Z"/><path d="M215.45,599.06q0,6.68-3.37,10.42t-9.28,3.75a12.26,12.26,0,0,1-6.5-1.72,11.27,11.27,0,0,1-4.38-4.93,17,17,0,0,1-1.55-7.52q0-6.67,3.34-10.39t9.26-3.73a11.54,11.54,0,0,1,9.1,3.81Q215.45,592.56,215.45,599.06Zm-20.8,0q0,5.24,2.1,8a8.29,8.29,0,0,0,12.31,0q2.1-2.71,2.1-8t-2.1-7.9a7.36,7.36,0,0,0-6.21-2.71,7.28,7.28,0,0,0-6.13,2.67Q194.65,593.78,194.65,599.06Z"/><path d="M245,585.44v2.62l-5.05.59a8.95,8.95,0,0,1,1.79,5.46,8.07,8.07,0,0,1-2.74,6.4,11.07,11.07,0,0,1-7.52,2.39,12.76,12.76,0,0,1-2.29-.2q-2.64,1.39-2.64,3.51a1.78,1.78,0,0,0,.92,1.66,6.82,6.82,0,0,0,3.16.53h4.83q4.44,0,6.81,1.87a6.47,6.47,0,0,1,2.38,5.43,7.76,7.76,0,0,1-3.63,6.91Q237.41,625,230.44,625q-5.35,0-8.26-2a6.42,6.42,0,0,1-2.9-5.62,6.29,6.29,0,0,1,1.6-4.31,8.09,8.09,0,0,1,4.48-2.47,4.28,4.28,0,0,1-1.76-1.47,3.88,3.88,0,0,1-.71-2.31,4.42,4.42,0,0,1,.8-2.62,8.19,8.19,0,0,1,2.52-2.16,7.33,7.33,0,0,1-3.45-3,8.69,8.69,0,0,1-1.34-4.78,8.84,8.84,0,0,1,2.69-6.91q2.7-2.43,7.62-2.43a13.89,13.89,0,0,1,3.86.5Zm-21.76,31.88a3.72,3.72,0,0,0,1.86,3.36,10.37,10.37,0,0,0,5.36,1.14q5.2,0,7.71-1.55a4.79,4.79,0,0,0,2.5-4.22,3.35,3.35,0,0,0-1.37-3.08q-1.37-.86-5.16-.86h-4.95a6.53,6.53,0,0,0-4.39,1.35A4.81,4.81,0,0,0,223.27,617.32Zm2.24-23.14a5.53,5.53,0,0,0,1.62,4.33,6.45,6.45,0,0,0,4.5,1.47c4,0,6.05-2,6.05-5.87q0-6.15-6.12-6.15a6.07,6.07,0,0,0-4.48,1.56A6.31,6.31,0,0,0,225.51,594.18Z"/><path d="M263.08,584.94a16.19,16.19,0,0,1,3.27.3l-.58,3.84a14,14,0,0,0-3-.38,7.29,7.29,0,0,0-5.67,2.69,9.8,9.8,0,0,0-2.35,6.7v14.64h-4.14V585.44h3.42l.47,5.06h.2a11.89,11.89,0,0,1,3.66-4.11A8.2,8.2,0,0,1,263.08,584.94Z"/><path d="M288.24,612.73l-.82-3.88h-.2a11.44,11.44,0,0,1-4.08,3.47,12.31,12.31,0,0,1-5.06.91,9.16,9.16,0,0,1-6.37-2.09,7.64,7.64,0,0,1-2.3-5.95q0-8.27,13.22-8.67l4.63-.15v-1.69a6.92,6.92,0,0,0-1.38-4.74,5.65,5.65,0,0,0-4.42-1.54,18,18,0,0,0-7.72,2.1l-1.27-3.17a19.82,19.82,0,0,1,4.42-1.72,19.43,19.43,0,0,1,4.82-.62q4.89,0,7.24,2.17c1.56,1.44,2.35,3.76,2.35,7v18.62Zm-9.34-2.91A8.39,8.39,0,0,0,285,607.7a7.81,7.81,0,0,0,2.21-5.92v-2.47l-4.14.18q-4.92.16-7.11,1.53a4.62,4.62,0,0,0-2.18,4.22,4.28,4.28,0,0,0,1.36,3.41A5.63,5.63,0,0,0,278.9,609.82Z"/><path d="M334.6,612.73V595a7.38,7.38,0,0,0-1.39-4.9,5.42,5.42,0,0,0-4.33-1.63q-3.87,0-5.71,2.22c-1.22,1.48-1.84,3.75-1.84,6.82v15.24H317.2V595a7.38,7.38,0,0,0-1.4-4.9,5.45,5.45,0,0,0-4.36-1.63c-2.59,0-4.48.78-5.69,2.33s-1.8,4.1-1.8,7.64v14.31h-4.13V585.44h3.36l.67,3.74h.2a8.14,8.14,0,0,1,3.3-3.12,10.17,10.17,0,0,1,4.77-1.12q6.39,0,8.36,4.63h.2a8.81,8.81,0,0,1,3.54-3.38,11,11,0,0,1,5.28-1.25c3.09,0,5.4.8,6.93,2.38s2.31,4.12,2.31,7.61v17.8Z"/><path d="M370.81,599.06q0,6.68-3.36,10.42t-9.29,3.75a12.28,12.28,0,0,1-6.5-1.72,11.33,11.33,0,0,1-4.38-4.93,17.17,17.17,0,0,1-1.54-7.52q0-6.67,3.33-10.39c2.23-2.49,5.31-3.73,9.27-3.73a11.55,11.55,0,0,1,9.1,3.81Q370.82,592.56,370.81,599.06Zm-20.79,0q0,5.24,2.09,8a8.29,8.29,0,0,0,12.31,0q2.11-2.71,2.11-8t-2.11-7.9a7.36,7.36,0,0,0-6.21-2.71,7.26,7.26,0,0,0-6.12,2.67Q350,593.78,350,599.06Z"/><path d="M395.67,605.29a6.85,6.85,0,0,1-2.84,5.88c-1.9,1.37-4.55,2.06-8,2.06q-5.43,0-8.47-1.72v-3.83a20.62,20.62,0,0,0,4.22,1.57,17.69,17.69,0,0,0,4.35.57,9.83,9.83,0,0,0,5-1,3.56,3.56,0,0,0,.36-5.88,21.59,21.59,0,0,0-5.39-2.68,28.55,28.55,0,0,1-5.42-2.48,7.28,7.28,0,0,1-2.39-2.4,6.28,6.28,0,0,1-.78-3.21,6.13,6.13,0,0,1,2.71-5.27,12.7,12.7,0,0,1,7.45-1.93,21.66,21.66,0,0,1,8.61,1.8l-1.47,3.36a19.77,19.77,0,0,0-7.44-1.7,8.47,8.47,0,0,0-4.43.93,2.84,2.84,0,0,0-1.5,2.54,3.08,3.08,0,0,0,.56,1.86,5.39,5.39,0,0,0,1.81,1.47,39.12,39.12,0,0,0,4.78,2c3.24,1.18,5.42,2.36,6.56,3.56A6.28,6.28,0,0,1,395.67,605.29Z"/><path d="M624.12,604.37h-5.4v8.36h-4v-8.36H597.05v-3.61l17.28-24.63h4.39v24.48h5.4Zm-9.36-3.76V588.5q0-3.56.25-8h-.2a39.15,39.15,0,0,1-2.24,4l-11.38,16.19Z"/><path d="M643,612.73h-4V586.79q0-3.24.2-6.13c-.35.35-.74.71-1.17,1.1s-2.41,2-5.93,4.85l-2.19-2.84,9.64-7.44H643Z"/><path d="M676,598.76a47.82,47.82,0,0,1,3.26-4l8.82-9.34H693l-11.06,11.63,11.83,15.66h-5l-9.64-12.9L676,602.52v10.21h-4.09V574H676v20.54c0,.91-.07,2.33-.2,4.23Z"/><path d="M698.36,578a2.75,2.75,0,0,1,.69-2.07,2.46,2.46,0,0,1,1.75-.66,2.41,2.41,0,0,1,1.71.67,2.67,2.67,0,0,1,.73,2.06,2.72,2.72,0,0,1-.73,2.09,2.54,2.54,0,0,1-3.46,0A2.83,2.83,0,0,1,698.36,578Zm4.48,34.69H698.7V585.44h4.14Z"/><path d="M715.74,612.73H711.6V574h4.14Z"/><path d="M748.06,599.06q0,6.68-3.36,10.42t-9.29,3.75a12.26,12.26,0,0,1-6.5-1.72,11.33,11.33,0,0,1-4.38-4.93,17.14,17.14,0,0,1-1.55-7.52q0-6.67,3.34-10.39t9.26-3.73a11.56,11.56,0,0,1,9.11,3.81Q748.07,592.56,748.06,599.06Zm-20.79,0c0,3.49.69,6.15,2.09,8a8.29,8.29,0,0,0,12.31,0q2.12-2.71,2.11-8t-2.11-7.9a7.38,7.38,0,0,0-6.21-2.7,7.27,7.27,0,0,0-6.13,2.66C728,592.9,727.27,595.54,727.27,599.06Z"/><path d="M777.64,585.44v2.62l-5,.59a9,9,0,0,1,1.24,2.28,8.62,8.62,0,0,1,.55,3.18,8.07,8.07,0,0,1-2.74,6.4,11.05,11.05,0,0,1-7.52,2.39,12.76,12.76,0,0,1-2.29-.2q-2.64,1.39-2.64,3.51a1.8,1.8,0,0,0,.92,1.66,6.87,6.87,0,0,0,3.17.53h4.83q4.42,0,6.81,1.87a6.49,6.49,0,0,1,2.37,5.43,7.76,7.76,0,0,1-3.63,6.91Q770,625,763.05,625q-5.35,0-8.25-2a6.41,6.41,0,0,1-2.91-5.62,6.34,6.34,0,0,1,1.6-4.31,8.09,8.09,0,0,1,4.48-2.47,4.19,4.19,0,0,1-1.75-1.47,3.82,3.82,0,0,1-.71-2.31,4.41,4.41,0,0,1,.79-2.62,8.32,8.32,0,0,1,2.52-2.16,7.37,7.37,0,0,1-3.45-3,8.68,8.68,0,0,1-1.33-4.78,8.81,8.81,0,0,1,2.69-6.91q2.68-2.43,7.62-2.43a14,14,0,0,1,3.86.5Zm-21.76,31.88a3.71,3.71,0,0,0,1.87,3.36,10.33,10.33,0,0,0,5.35,1.14q5.21,0,7.71-1.55a4.77,4.77,0,0,0,2.5-4.22,3.35,3.35,0,0,0-1.37-3.08q-1.37-.86-5.15-.86h-5a6.5,6.5,0,0,0-4.38,1.35A4.78,4.78,0,0,0,755.88,617.32Zm2.24-23.14a5.57,5.57,0,0,0,1.62,4.34,6.46,6.46,0,0,0,4.51,1.46c4,0,6-2,6-5.87q0-6.15-6.13-6.15a6.05,6.05,0,0,0-4.48,1.57A6.27,6.27,0,0,0,758.12,594.18Z"/><path d="M795.7,584.94a16.08,16.08,0,0,1,3.26.3l-.57,3.84a14.11,14.11,0,0,0-3-.38,7.29,7.29,0,0,0-5.67,2.69,9.87,9.87,0,0,0-2.35,6.7v14.64h-4.13V585.44h3.41l.47,5.06h.2a11.89,11.89,0,0,1,3.66-4.11A8.21,8.21,0,0,1,795.7,584.94Z"/><path d="M820.85,612.73l-.82-3.88h-.2a11.42,11.42,0,0,1-4.07,3.47,12.39,12.39,0,0,1-5.07.91,9.07,9.07,0,0,1-6.36-2.09,7.61,7.61,0,0,1-2.31-5.95q0-8.27,13.23-8.67l4.63-.15v-1.69a6.92,6.92,0,0,0-1.38-4.74,5.7,5.7,0,0,0-4.42-1.54,17.93,17.93,0,0,0-7.72,2.1l-1.27-3.17a20.12,20.12,0,0,1,9.24-2.34q4.88,0,7.23,2.17t2.35,7v18.62Zm-9.34-2.91a8.38,8.38,0,0,0,6.07-2.12,7.85,7.85,0,0,0,2.2-5.92v-2.47l-4.13.18q-4.93.16-7.11,1.53a4.6,4.6,0,0,0-2.18,4.22,4.27,4.27,0,0,0,1.35,3.41A5.65,5.65,0,0,0,811.51,609.82Z"/><path d="M867.22,612.73V595a7.34,7.34,0,0,0-1.4-4.89,5.38,5.38,0,0,0-4.33-1.63c-2.57,0-4.47.73-5.7,2.21s-1.85,3.75-1.85,6.82v15.24h-4.13V595a7.34,7.34,0,0,0-1.39-4.89,5.43,5.43,0,0,0-4.36-1.63q-3.88,0-5.69,2.32c-1.21,1.56-1.81,4.1-1.81,7.64v14.31h-4.13V585.44h3.36l.67,3.74h.2a8.14,8.14,0,0,1,3.3-3.12,10.17,10.17,0,0,1,4.77-1.12q6.4,0,8.37,4.64h.2a8.68,8.68,0,0,1,3.53-3.39,11,11,0,0,1,5.28-1.25c3.09,0,5.4.8,6.94,2.38s2.3,4.12,2.3,7.61v17.8Z"/><path d="M903.43,599.06q0,6.68-3.37,10.42t-9.28,3.75a12.23,12.23,0,0,1-6.5-1.72,11.29,11.29,0,0,1-4.39-4.93,17.14,17.14,0,0,1-1.54-7.52q0-6.67,3.34-10.39t9.26-3.73a11.54,11.54,0,0,1,9.1,3.81Q903.43,592.56,903.43,599.06Zm-20.8,0q0,5.24,2.09,8A8.3,8.3,0,0,0,897,607q2.1-2.71,2.1-8t-2.1-7.9a7.41,7.41,0,0,0-6.21-2.7,7.27,7.27,0,0,0-6.13,2.66C883.32,592.9,882.63,595.54,882.63,599.06Z"/><path d="M928.28,605.29a6.85,6.85,0,0,1-2.84,5.88q-2.84,2.05-8,2.06-5.43,0-8.47-1.72v-3.83a20.71,20.71,0,0,0,4.23,1.57,17.68,17.68,0,0,0,4.34.57,9.83,9.83,0,0,0,5-1,3.56,3.56,0,0,0,.36-5.88,22,22,0,0,0-5.39-2.68,29.64,29.64,0,0,1-5.42-2.47,7.5,7.5,0,0,1-2.39-2.41,6.28,6.28,0,0,1-.78-3.21,6.13,6.13,0,0,1,2.71-5.27,12.72,12.72,0,0,1,7.45-1.93,21.74,21.74,0,0,1,8.62,1.8l-1.47,3.36a19.78,19.78,0,0,0-7.45-1.7,8.47,8.47,0,0,0-4.43.93,2.84,2.84,0,0,0-1.5,2.54,3.08,3.08,0,0,0,.56,1.86,5.5,5.5,0,0,0,1.81,1.47,39.12,39.12,0,0,0,4.78,2q4.86,1.77,6.56,3.56A6.28,6.28,0,0,1,928.28,605.29Z"/><path d="M1140.8,612.73h-23.93v-3.56l9.58-9.63a71.93,71.93,0,0,0,5.78-6.33,16,16,0,0,0,2.09-3.68,10.5,10.5,0,0,0,.7-3.86,6.09,6.09,0,0,0-1.77-4.62,6.75,6.75,0,0,0-4.9-1.71,12.27,12.27,0,0,0-4.3.75,17.23,17.23,0,0,0-4.52,2.71l-2.19-2.81a16.76,16.76,0,0,1,11-4.19c3.42,0,6.11.88,8,2.63a9,9,0,0,1,2.91,7.06,13.59,13.59,0,0,1-1.94,6.85,43.52,43.52,0,0,1-7.27,8.57l-8,7.79v.2h18.73Z"/><path d="M1150.63,612.73l15.09-32.59h-19.84v-3.81h24.23v3.31l-14.89,33.09Z"/><path d="M1194.41,598.76a50,50,0,0,1,3.26-4l8.82-9.34h4.9l-11.05,11.63,11.83,15.66h-5l-9.64-12.9-3.11,2.69v10.21h-4.08V574h4.08v20.54c0,.91-.07,2.33-.2,4.23Z"/><path d="M1216.75,578a2.71,2.71,0,0,1,.7-2.07,2.42,2.42,0,0,1,1.74-.66,2.45,2.45,0,0,1,1.72.67,2.7,2.7,0,0,1,.72,2.06,2.76,2.76,0,0,1-.72,2.09,2.46,2.46,0,0,1-1.72.68,2.39,2.39,0,0,1-1.74-.68A2.79,2.79,0,0,1,1216.75,578Zm4.48,34.69h-4.13V585.44h4.13Z"/><path d="M1234.13,612.73H1230V574h4.13Z"/><path d="M1266.45,599.06q0,6.68-3.36,10.42t-9.29,3.75a12.28,12.28,0,0,1-6.5-1.72,11.33,11.33,0,0,1-4.38-4.93,17.14,17.14,0,0,1-1.54-7.52q0-6.67,3.33-10.39t9.27-3.73a11.55,11.55,0,0,1,9.1,3.81Q1266.46,592.56,1266.45,599.06Zm-20.79,0q0,5.24,2.09,8a8.3,8.3,0,0,0,12.32,0q2.1-2.71,2.1-8t-2.1-7.9a7.42,7.42,0,0,0-6.22-2.7,7.25,7.25,0,0,0-6.12,2.66C1246.35,592.9,1245.66,595.54,1245.66,599.06Z"/><path d="M1296,585.44v2.62l-5.06.59a9,9,0,0,1,1.25,2.28,8.83,8.83,0,0,1,.55,3.18,8.1,8.1,0,0,1-2.74,6.4,11.09,11.09,0,0,1-7.52,2.39,12.87,12.87,0,0,1-2.3-.2q-2.64,1.39-2.64,3.51a1.79,1.79,0,0,0,.93,1.66,6.79,6.79,0,0,0,3.16.53h4.83q4.44,0,6.81,1.87a6.47,6.47,0,0,1,2.38,5.43,7.75,7.75,0,0,1-3.64,6.91q-3.63,2.37-10.61,2.38c-3.56,0-6.32-.67-8.25-2a6.42,6.42,0,0,1-2.9-5.62,6.33,6.33,0,0,1,1.59-4.31,8.13,8.13,0,0,1,4.48-2.47,4.25,4.25,0,0,1-1.75-1.47,3.88,3.88,0,0,1-.71-2.31,4.42,4.42,0,0,1,.8-2.62,8.39,8.39,0,0,1,2.51-2.16,7.37,7.37,0,0,1-3.45-3,8.68,8.68,0,0,1-1.33-4.78,8.84,8.84,0,0,1,2.69-6.91q2.69-2.43,7.62-2.43a13.94,13.94,0,0,1,3.86.5Zm-21.77,31.88a3.73,3.73,0,0,0,1.87,3.36,10.37,10.37,0,0,0,5.36,1.14q5.19,0,7.7-1.55a4.77,4.77,0,0,0,2.5-4.22,3.33,3.33,0,0,0-1.37-3.08c-.91-.57-2.63-.86-5.15-.86h-5a6.52,6.52,0,0,0-4.38,1.35A4.81,4.81,0,0,0,1274.27,617.32Zm2.24-23.14a5.57,5.57,0,0,0,1.62,4.34,6.46,6.46,0,0,0,4.51,1.46c4,0,6-2,6-5.87q0-6.15-6.12-6.15a6.06,6.06,0,0,0-4.49,1.57A6.31,6.31,0,0,0,1276.51,594.18Z"/><path d="M1314.09,584.94a16.08,16.08,0,0,1,3.26.3l-.57,3.84a14,14,0,0,0-3-.38,7.27,7.27,0,0,0-5.66,2.69,9.83,9.83,0,0,0-2.36,6.7v14.64h-4.13V585.44h3.41l.48,5.06h.19a12.09,12.09,0,0,1,3.66-4.11A8.21,8.21,0,0,1,1314.09,584.94Z"/><path d="M1339.24,612.73l-.82-3.88h-.2a11.42,11.42,0,0,1-4.07,3.47,12.33,12.33,0,0,1-5.07.91,9.1,9.1,0,0,1-6.36-2.09,7.61,7.61,0,0,1-2.3-5.95q0-8.27,13.22-8.67l4.63-.15v-1.69a6.92,6.92,0,0,0-1.38-4.74,5.68,5.68,0,0,0-4.42-1.54,18,18,0,0,0-7.72,2.1l-1.27-3.17a19.15,19.15,0,0,1,4.42-1.71,18.93,18.93,0,0,1,4.82-.63q4.88,0,7.23,2.17t2.36,7v18.62Zm-9.34-2.91a8.36,8.36,0,0,0,6.07-2.12,7.81,7.81,0,0,0,2.2-5.92v-2.47l-4.13.18q-4.93.16-7.11,1.53a4.62,4.62,0,0,0-2.18,4.22,4.25,4.25,0,0,0,1.36,3.41A5.62,5.62,0,0,0,1329.9,609.82Z"/><path d="M1385.61,612.73V595a7.34,7.34,0,0,0-1.39-4.89,5.4,5.4,0,0,0-4.34-1.63c-2.57,0-4.47.73-5.7,2.21s-1.84,3.75-1.84,6.82v15.24h-4.13V595a7.34,7.34,0,0,0-1.4-4.89,5.42,5.42,0,0,0-4.36-1.63c-2.59,0-4.48.77-5.69,2.32s-1.8,4.1-1.8,7.64v14.31h-4.14V585.44h3.36l.68,3.74h.2a8.14,8.14,0,0,1,3.3-3.12,10.17,10.17,0,0,1,4.77-1.12q6.39,0,8.36,4.64h.2a8.65,8.65,0,0,1,3.54-3.39,11,11,0,0,1,5.28-1.25c3.08,0,5.4.8,6.93,2.38s2.31,4.12,2.31,7.61v17.8Z"/><path d="M1421.82,599.06q0,6.68-3.36,10.42t-9.29,3.75a12.26,12.26,0,0,1-6.5-1.72,11.33,11.33,0,0,1-4.38-4.93,17.14,17.14,0,0,1-1.55-7.52q0-6.67,3.34-10.39t9.26-3.73a11.56,11.56,0,0,1,9.11,3.81Q1421.81,592.56,1421.82,599.06Zm-20.79,0c0,3.49.69,6.15,2.09,8a8.29,8.29,0,0,0,12.31,0c1.4-1.81,2.11-4.47,2.11-8s-.71-6.1-2.11-7.9a7.38,7.38,0,0,0-6.21-2.7,7.27,7.27,0,0,0-6.13,2.66C1401.71,592.9,1401,595.54,1401,599.06Z"/><path d="M1446.67,605.29a6.83,6.83,0,0,1-2.84,5.88q-2.83,2.05-8,2.06-5.43,0-8.46-1.72v-3.83a20.62,20.62,0,0,0,4.22,1.57,17.68,17.68,0,0,0,4.34.57,9.83,9.83,0,0,0,5-1,3.55,3.55,0,0,0,.36-5.88,21.76,21.76,0,0,0-5.39-2.68,29.15,29.15,0,0,1-5.41-2.47,7.4,7.4,0,0,1-2.39-2.41,6.61,6.61,0,0,1,1.93-8.48,12.69,12.69,0,0,1,7.44-1.93,21.74,21.74,0,0,1,8.62,1.8l-1.47,3.36a19.78,19.78,0,0,0-7.45-1.7,8.5,8.5,0,0,0-4.43.93,2.83,2.83,0,0,0-1.49,2.54,3,3,0,0,0,.56,1.86,5.34,5.34,0,0,0,1.8,1.47,39.85,39.85,0,0,0,4.78,2q4.86,1.77,6.57,3.56A6.32,6.32,0,0,1,1446.67,605.29Z"/><rect x="474.15" y="342.78" width="37.33" height="7.7" rx="3.85" ry="3.85"/><rect x="474.15" y="595.24" width="37.33" height="7.7" rx="3.85" ry="3.85"/><rect x="1005.89" y="354.32" width="52.7" height="7.7" rx="3.85" ry="3.85"/><rect x="1005.89" y="337.7" width="52.7" height="7.7" rx="3.85" ry="3.85"/><rect x="1005.89" y="599.09" width="52.7" height="7.7" rx="3.85" ry="3.85"/><rect x="1005.89" y="582.47" width="52.7" height="7.7" rx="3.85" ry="3.85"/></svg>