<svg id="Layer_2" data-name="Layer 2" xmlns="http://www.w3.org/2000/svg" viewBox="0 0 1492 800"><defs><style>.cls-1{fill:#fff;}.cls-2{fill:#dd9852;}.cls-3{fill:#9e744f;}.cls-4{fill:#c1814d;}.cls-5{fill:#e5bd98;}.cls-6{fill:#e0b451;}.cls-7{fill:#a08b4e;}.cls-8{fill:#c4a24e;}.cls-9{fill:#a57444;}</style></defs><title>Pesa_03_03</title><polygon class="cls-1" points="32.38 414.9 217.11 311.71 394.38 414.89 212.85 518.75 32.38 414.9"/><path d="M217.11,312.29l176.27,102.6L212.85,518.17,33.4,414.91,217.11,312.29m0-1.15L31.37,414.9,212.84,519.32,395.38,414.9,217.12,311.14Z"/><polygon class="cls-2" points="395.38 256.37 212.84 360.8 31.37 256.37 212.84 150.86 395.38 256.37"/><polygon class="cls-3" points="212.84 519.32 31.37 414.95 31.37 255.83 212.84 360.26 212.84 519.32"/><polygon class="cls-4" points="212.84 519.32 395.38 414.95 395.38 255.83 212.84 360.26 212.84 519.32"/><polygon class="cls-5" points="130.02 312.62 312.56 208.24 296.73 199.04 114.19 303.47 130.02 312.62"/><polygon class="cls-5" points="130.02 312.62 130.02 393.94 114.19 384.74 114.19 303.47 130.02 312.62"/><polygon class="cls-1" points="82.24 264.4 215.97 260.7 344.2 264.4 212.84 339.55 82.24 264.4"/><path d="M216,261.2l126.46,3.65L212.84,339,84,264.85,216,261.2m0-1L80.46,264l132.37,76.18L346,264,216,260.2Z"/><polygon class="cls-6" points="345.99 220.25 212.83 296.42 80.46 220.25 212.83 143.28 345.99 220.25"/><polygon class="cls-7" points="212.83 340.13 80.46 263.99 80.46 219.85 212.83 296.03 212.83 340.13"/><polygon class="cls-8" points="212.83 340.13 345.99 263.99 345.99 219.85 212.83 296.03 212.83 340.13"/><polygon class="cls-9" points="152.42 261.28 285.57 185.14 274.02 178.43 140.87 254.61 152.42 261.28"/><polygon class="cls-9" points="152.42 261.28 152.42 284.83 140.87 278.12 140.87 254.61 152.42 261.28"/><polygon class="cls-1" points="588 414.9 772.73 311.71 950 414.89 768.46 518.75 588 414.9"/><path d="M772.72,312.29,949,414.89,768.46,518.17,589,414.91,772.72,312.29m0-1.15L587,414.9,768.46,519.32,951,414.9,772.73,311.14Z"/><polygon class="cls-2" points="951 256.37 768.46 360.8 586.98 256.37 768.46 150.86 951 256.37"/><polygon class="cls-3" points="768.46 519.32 586.98 414.95 586.98 255.83 768.46 360.26 768.46 519.32"/><polygon class="cls-4" points="768.46 519.32 951 414.95 951 255.83 768.46 360.26 768.46 519.32"/><polygon class="cls-5" points="685.64 312.62 868.18 208.24 852.34 199.04 669.8 303.47 685.64 312.62"/><polygon class="cls-5" points="685.64 312.62 685.64 393.94 669.8 384.74 669.8 303.47 685.64 312.62"/><polygon class="cls-1" points="1155.37 354 1289.09 350.3 1417.33 354 1285.96 429.15 1155.37 354"/><path d="M1289.08,350.8l126.45,3.65L1286,428.57l-128.8-74.12,131.92-3.65m0-1-135.49,3.76L1286,429.72l133.16-76.17-130-3.76Z"/><polygon class="cls-6" points="1419.12 309.85 1285.96 386.02 1153.59 309.85 1285.96 232.88 1419.12 309.85"/><polygon class="cls-7" points="1285.96 429.73 1153.59 353.59 1153.59 309.45 1285.96 385.63 1285.96 429.73"/><polygon class="cls-8" points="1285.96 429.73 1419.12 353.59 1419.12 309.45 1285.96 385.63 1285.96 429.73"/><polygon class="cls-9" points="1225.55 350.87 1358.7 274.74 1347.15 268.03 1214 344.2 1225.55 350.87"/><polygon class="cls-9" points="1225.55 350.87 1225.55 374.43 1214 367.72 1214 344.2 1225.55 350.87"/><path d="M77.91,569.7a12.34,12.34,0,0,1,7.9,2.32,7.71,7.71,0,0,1,2.91,6.4,8,8,0,0,1-1.67,4.9,14.8,14.8,0,0,1-5.33,4A17.83,17.83,0,0,1,88,591.8a8.34,8.34,0,0,1,1.87,5.39,9.07,9.07,0,0,1-3.16,7.24q-3.17,2.7-8.67,2.7-5.82,0-9-2.55A8.78,8.78,0,0,1,66,597.34q0-6.24,7.62-9.73a14.1,14.1,0,0,1-4.93-4.2,8.88,8.88,0,0,1-1.5-5,7.7,7.7,0,0,1,2.93-6.32A12.18,12.18,0,0,1,77.91,569.7ZM70,597.44a5.66,5.66,0,0,0,2.08,4.66A9.12,9.12,0,0,0,78,603.77,8.68,8.68,0,0,0,83.74,602a5.91,5.91,0,0,0,2.07-4.78,5.8,5.8,0,0,0-2-4.29c-1.29-1.26-3.55-2.47-6.77-3.65a14.81,14.81,0,0,0-5.38,3.52A6.85,6.85,0,0,0,70,597.44Zm7.82-24.38a7.32,7.32,0,0,0-4.88,1.5,4.93,4.93,0,0,0-1.77,4,5.72,5.72,0,0,0,1.47,3.94,15.36,15.36,0,0,0,5.43,3.28,13.42,13.42,0,0,0,5-3.21,5.94,5.94,0,0,0,1.48-4,4.91,4.91,0,0,0-1.8-4A7.65,7.65,0,0,0,77.86,573.06Z"/><path d="M107.07,569.7A12.34,12.34,0,0,1,115,572a7.71,7.71,0,0,1,2.91,6.4,8,8,0,0,1-1.67,4.9,14.8,14.8,0,0,1-5.33,4,17.83,17.83,0,0,1,6.3,4.44,8.34,8.34,0,0,1,1.87,5.39,9,9,0,0,1-3.16,7.24q-3.17,2.7-8.67,2.7-5.82,0-9-2.55a8.78,8.78,0,0,1-3.14-7.24q0-6.24,7.62-9.73a14.1,14.1,0,0,1-4.93-4.2,8.88,8.88,0,0,1-1.5-5,7.7,7.7,0,0,1,2.93-6.32A12.18,12.18,0,0,1,107.07,569.7ZM99.2,597.44a5.66,5.66,0,0,0,2.08,4.66,9.12,9.12,0,0,0,5.84,1.67A8.68,8.68,0,0,0,112.9,602a5.91,5.91,0,0,0,2.07-4.78,5.8,5.8,0,0,0-2-4.29c-1.29-1.26-3.55-2.47-6.77-3.65a14.81,14.81,0,0,0-5.38,3.52A6.85,6.85,0,0,0,99.2,597.44ZM107,573.06a7.32,7.32,0,0,0-4.88,1.5,4.93,4.93,0,0,0-1.77,4,5.72,5.72,0,0,0,1.47,3.94,15.36,15.36,0,0,0,5.43,3.28,13.42,13.42,0,0,0,5-3.21,5.94,5.94,0,0,0,1.48-4,4.91,4.91,0,0,0-1.8-4A7.65,7.65,0,0,0,107,573.06Z"/><path d="M143.4,592.66a50.51,50.51,0,0,1,3.27-4l8.81-9.34h4.91L149.33,591l11.83,15.66h-5l-9.63-12.9-3.12,2.69v10.21h-4.08V567.88h4.08v20.55c0,.91-.06,2.32-.19,4.23Z"/><path d="M165.74,571.94a2.74,2.74,0,0,1,.7-2.08,2.57,2.57,0,0,1,3.46,0,2.67,2.67,0,0,1,.72,2.06,2.75,2.75,0,0,1-.72,2.08,2.51,2.51,0,0,1-3.46,0A2.78,2.78,0,0,1,165.74,571.94Zm4.48,34.69h-4.13V579.34h4.13Z"/><path d="M183.12,606.63H179V567.88h4.13Z"/><path d="M215.45,593q0,6.67-3.37,10.42t-9.28,3.75a12.26,12.26,0,0,1-6.5-1.72,11.27,11.27,0,0,1-4.38-4.93,17,17,0,0,1-1.55-7.52q0-6.68,3.34-10.4t9.26-3.72a11.54,11.54,0,0,1,9.1,3.81Q215.45,586.46,215.45,593Zm-20.8,0c0,3.49.7,6.14,2.1,8a8.29,8.29,0,0,0,12.31,0q2.1-2.73,2.1-8t-2.1-7.91a7.38,7.38,0,0,0-6.21-2.7,7.28,7.28,0,0,0-6.13,2.67Q194.65,587.67,194.65,593Z"/><path d="M245,579.34V582l-5.05.6a8.95,8.95,0,0,1,1.79,5.45,8,8,0,0,1-2.74,6.4,11,11,0,0,1-7.52,2.39,12.79,12.79,0,0,1-2.29-.19q-2.64,1.39-2.64,3.51a1.76,1.76,0,0,0,.92,1.65,6.67,6.67,0,0,0,3.16.54h4.83q4.44,0,6.81,1.87a6.46,6.46,0,0,1,2.38,5.42,7.74,7.74,0,0,1-3.63,6.91q-3.65,2.38-10.61,2.38-5.35,0-8.26-2a6.44,6.44,0,0,1-2.9-5.63,6.27,6.27,0,0,1,1.6-4.3,8,8,0,0,1,4.48-2.47A4.43,4.43,0,0,1,223.6,603a3.91,3.91,0,0,1-.71-2.32,4.41,4.41,0,0,1,.8-2.61,8.34,8.34,0,0,1,2.52-2.17,7.31,7.31,0,0,1-3.45-3,8.71,8.71,0,0,1-1.34-4.78,8.84,8.84,0,0,1,2.69-6.91q2.7-2.43,7.62-2.43a13.89,13.89,0,0,1,3.86.5Zm-21.76,31.87a3.7,3.7,0,0,0,1.86,3.36,10.26,10.26,0,0,0,5.36,1.15q5.2,0,7.71-1.56a4.77,4.77,0,0,0,2.5-4.22,3.33,3.33,0,0,0-1.37-3.07c-.91-.58-2.63-.86-5.16-.86h-4.95a6.58,6.58,0,0,0-4.39,1.34A4.83,4.83,0,0,0,223.27,611.21Zm2.24-23.13a5.55,5.55,0,0,0,1.62,4.33,6.45,6.45,0,0,0,4.5,1.47c4,0,6.05-2,6.05-5.88q0-6.15-6.12-6.15a6.08,6.08,0,0,0-4.48,1.57A6.31,6.31,0,0,0,225.51,588.08Z"/><path d="M263.08,578.84a16.19,16.19,0,0,1,3.27.3l-.58,3.83a13.88,13.88,0,0,0-3-.37,7.29,7.29,0,0,0-5.67,2.69,9.8,9.8,0,0,0-2.35,6.7v14.64h-4.14V579.34h3.42l.47,5h.2a12.07,12.07,0,0,1,3.66-4.11A8.27,8.27,0,0,1,263.08,578.84Z"/><path d="M288.24,606.63l-.82-3.88h-.2a11.54,11.54,0,0,1-4.08,3.47,12.31,12.31,0,0,1-5.06.91,9.16,9.16,0,0,1-6.37-2.09,7.66,7.66,0,0,1-2.3-5.95q0-8.28,13.22-8.67l4.63-.15v-1.69a7,7,0,0,0-1.38-4.75,5.68,5.68,0,0,0-4.42-1.53,18.12,18.12,0,0,0-7.72,2.09l-1.27-3.16a19.82,19.82,0,0,1,4.42-1.72,19.43,19.43,0,0,1,4.82-.62q4.89,0,7.24,2.17c1.56,1.44,2.35,3.76,2.35,6.94v18.63Zm-9.34-2.91A8.39,8.39,0,0,0,285,601.6a7.84,7.84,0,0,0,2.21-5.93v-2.46l-4.14.17q-4.92.18-7.11,1.53a4.64,4.64,0,0,0-2.18,4.22,4.29,4.29,0,0,0,1.36,3.42A5.63,5.63,0,0,0,278.9,603.72Z"/><path d="M334.6,606.63V588.88a7.38,7.38,0,0,0-1.39-4.9,5.42,5.42,0,0,0-4.33-1.63q-3.87,0-5.71,2.22c-1.22,1.47-1.84,3.75-1.84,6.82v15.24H317.2V588.88a7.38,7.38,0,0,0-1.4-4.9,5.45,5.45,0,0,0-4.36-1.63c-2.59,0-4.48.78-5.69,2.33s-1.8,4.1-1.8,7.63v14.32h-4.13V579.34h3.36l.67,3.73h.2a8.19,8.19,0,0,1,3.3-3.11,10.05,10.05,0,0,1,4.77-1.12q6.39,0,8.36,4.63h.2a8.84,8.84,0,0,1,3.54-3.39,11,11,0,0,1,5.28-1.24q4.63,0,6.93,2.38t2.31,7.61v17.8Z"/><path d="M370.81,593q0,6.67-3.36,10.42t-9.29,3.75a12.28,12.28,0,0,1-6.5-1.72,11.33,11.33,0,0,1-4.38-4.93,17.17,17.17,0,0,1-1.54-7.52q0-6.68,3.33-10.4c2.23-2.48,5.31-3.72,9.27-3.72a11.55,11.55,0,0,1,9.1,3.81Q370.82,586.46,370.81,593ZM350,593c0,3.49.7,6.14,2.09,8a8.29,8.29,0,0,0,12.31,0q2.11-2.73,2.11-8t-2.11-7.91a7.38,7.38,0,0,0-6.21-2.7,7.26,7.26,0,0,0-6.12,2.67Q350,587.67,350,593Z"/><path d="M395.67,599.19a6.85,6.85,0,0,1-2.84,5.87c-1.9,1.38-4.55,2.07-8,2.07q-5.43,0-8.47-1.72v-3.83a20.6,20.6,0,0,0,4.22,1.56,17.25,17.25,0,0,0,4.35.58,9.83,9.83,0,0,0,5-1,3.55,3.55,0,0,0,.36-5.87,21.59,21.59,0,0,0-5.39-2.68,29.2,29.2,0,0,1-5.42-2.48,7.28,7.28,0,0,1-2.39-2.4,6.31,6.31,0,0,1-.78-3.21,6.12,6.12,0,0,1,2.71-5.27,12.63,12.63,0,0,1,7.45-1.93,21.82,21.82,0,0,1,8.61,1.79L393.62,584a19.94,19.94,0,0,0-7.44-1.69,8.58,8.58,0,0,0-4.43.92,2.85,2.85,0,0,0-1.5,2.54,3.12,3.12,0,0,0,.56,1.87,5.51,5.51,0,0,0,1.81,1.47,40.83,40.83,0,0,0,4.78,2c3.24,1.18,5.42,2.36,6.56,3.56A6.27,6.27,0,0,1,395.67,599.19Z"/><path d="M609.85,584.39c3.84,0,6.85,1,9,2.86a9.77,9.77,0,0,1,3.3,7.8,11.3,11.3,0,0,1-3.59,8.87q-3.6,3.21-9.93,3.21-6.15,0-9.39-2v-4a14.46,14.46,0,0,0,4.34,1.75,21,21,0,0,0,5.1.64,10.19,10.19,0,0,0,6.81-2.07,7.41,7.41,0,0,0,2.43-6q0-7.62-9.34-7.62a37.21,37.21,0,0,0-6.32.72l-2.14-1.37,1.36-17h18.11V574H605.07L604.15,585A28.42,28.42,0,0,1,609.85,584.39Z"/><path d="M651.56,606.63H627.63v-3.56l9.59-9.64a70.79,70.79,0,0,0,5.78-6.32,16.2,16.2,0,0,0,2.09-3.69,10.63,10.63,0,0,0,.7-3.86,6.13,6.13,0,0,0-1.77-4.62,6.82,6.82,0,0,0-4.91-1.7,12.25,12.25,0,0,0-4.29.75,16.81,16.81,0,0,0-4.52,2.71l-2.2-2.81a16.81,16.81,0,0,1,11-4.19q5.13,0,8.05,2.63a9,9,0,0,1,2.91,7.06,13.69,13.69,0,0,1-1.94,6.85,43.58,43.58,0,0,1-7.27,8.56l-8,7.8v.2h18.72Z"/><path d="M676,592.66a47.82,47.82,0,0,1,3.26-4l8.82-9.34H693L681.94,591l11.83,15.66h-5l-9.64-12.9L676,596.42v10.21h-4.09V567.88H676v20.55c0,.91-.07,2.32-.2,4.23Z"/><path d="M698.36,571.94a2.77,2.77,0,0,1,.69-2.08,2.46,2.46,0,0,1,1.75-.66,2.42,2.42,0,0,1,1.71.68,2.64,2.64,0,0,1,.73,2.06,2.7,2.7,0,0,1-.73,2.08,2.51,2.51,0,0,1-3.46,0A2.81,2.81,0,0,1,698.36,571.94Zm4.48,34.69H698.7V579.34h4.14Z"/><path d="M715.74,606.63H711.6V567.88h4.14Z"/><path d="M748.06,593q0,6.67-3.36,10.42t-9.29,3.75a12.26,12.26,0,0,1-6.5-1.72,11.33,11.33,0,0,1-4.38-4.93A17.17,17.17,0,0,1,723,593q0-6.68,3.34-10.4t9.26-3.72a11.56,11.56,0,0,1,9.11,3.81Q748.07,586.46,748.06,593Zm-20.79,0c0,3.49.69,6.14,2.09,8a8.29,8.29,0,0,0,12.31,0q2.12-2.73,2.11-8c0-3.47-.7-6.1-2.11-7.91a7.38,7.38,0,0,0-6.21-2.7,7.28,7.28,0,0,0-6.13,2.67Q727.28,587.67,727.27,593Z"/><path d="M777.64,579.34V582l-5,.6a8.95,8.95,0,0,1,1.79,5.45,8.08,8.08,0,0,1-2.74,6.41,11.05,11.05,0,0,1-7.52,2.39,12.76,12.76,0,0,1-2.29-.2q-2.64,1.39-2.64,3.51a1.78,1.78,0,0,0,.92,1.65,6.72,6.72,0,0,0,3.17.54h4.83q4.42,0,6.81,1.87a6.48,6.48,0,0,1,2.37,5.42,7.76,7.76,0,0,1-3.63,6.92q-3.63,2.37-10.61,2.37-5.35,0-8.25-2a6.43,6.43,0,0,1-2.91-5.63,6.31,6.31,0,0,1,1.6-4.3,8,8,0,0,1,4.48-2.47,4.26,4.26,0,0,1-1.75-1.47,3.84,3.84,0,0,1-.71-2.31,4.41,4.41,0,0,1,.79-2.62,8.34,8.34,0,0,1,2.52-2.17,7.4,7.4,0,0,1-3.45-3,8.68,8.68,0,0,1-1.33-4.78,8.81,8.81,0,0,1,2.69-6.91q2.68-2.43,7.62-2.43a14,14,0,0,1,3.86.5Zm-21.76,31.87a3.71,3.71,0,0,0,1.87,3.37,10.33,10.33,0,0,0,5.35,1.14q5.21,0,7.71-1.55a4.77,4.77,0,0,0,2.5-4.23,3.34,3.34,0,0,0-1.37-3.07q-1.37-.86-5.15-.86h-5a6.55,6.55,0,0,0-4.38,1.34A4.81,4.81,0,0,0,755.88,611.21Zm2.24-23.13a5.55,5.55,0,0,0,1.62,4.33,6.46,6.46,0,0,0,4.51,1.47q6,0,6-5.88,0-6.15-6.13-6.15a6.09,6.09,0,0,0-4.48,1.57A6.31,6.31,0,0,0,758.12,588.08Z"/><path d="M795.7,578.84a16.08,16.08,0,0,1,3.26.3l-.57,3.83a14.72,14.72,0,0,0-3-.37,7.29,7.29,0,0,0-5.67,2.69,9.85,9.85,0,0,0-2.35,6.7v14.64h-4.13V579.34h3.41l.47,5h.2a11.94,11.94,0,0,1,3.66-4.1A8.21,8.21,0,0,1,795.7,578.84Z"/><path d="M820.85,606.63l-.82-3.88h-.2a11.42,11.42,0,0,1-4.07,3.47,12.39,12.39,0,0,1-5.07.91,9.11,9.11,0,0,1-6.36-2.09,7.63,7.63,0,0,1-2.31-5.95q0-8.26,13.23-8.67l4.63-.15v-1.69a7,7,0,0,0-1.38-4.75,5.69,5.69,0,0,0-4.42-1.53,18,18,0,0,0-7.72,2.09l-1.27-3.16a19.79,19.79,0,0,1,9.24-2.34q4.88,0,7.23,2.17c1.57,1.44,2.35,3.76,2.35,6.94v18.63Zm-9.34-2.91a8.42,8.42,0,0,0,6.07-2.12,7.87,7.87,0,0,0,2.2-5.93v-2.46l-4.13.17q-4.93.18-7.11,1.54a4.6,4.6,0,0,0-2.18,4.22,4.27,4.27,0,0,0,1.35,3.41A5.65,5.65,0,0,0,811.51,603.72Z"/><path d="M867.22,606.63V588.88a7.38,7.38,0,0,0-1.4-4.9,5.41,5.41,0,0,0-4.33-1.63q-3.86,0-5.7,2.22t-1.85,6.82v15.24h-4.13V588.88a7.38,7.38,0,0,0-1.39-4.9,5.46,5.46,0,0,0-4.36-1.63q-3.88,0-5.69,2.33c-1.21,1.55-1.81,4.1-1.81,7.63v14.32h-4.13V579.34h3.36l.67,3.73h.2A8.19,8.19,0,0,1,840,580a10.05,10.05,0,0,1,4.77-1.12q6.4,0,8.37,4.63h.2a8.66,8.66,0,0,1,3.53-3.38,11,11,0,0,1,5.28-1.25q4.64,0,6.94,2.38t2.3,7.61v17.8Z"/><path d="M903.43,593q0,6.67-3.37,10.42t-9.28,3.75a12.23,12.23,0,0,1-6.5-1.72,11.29,11.29,0,0,1-4.39-4.93,17.17,17.17,0,0,1-1.54-7.52q0-6.68,3.34-10.4t9.26-3.72a11.54,11.54,0,0,1,9.1,3.81Q903.43,586.46,903.43,593Zm-20.8,0c0,3.49.7,6.14,2.09,8a8.3,8.3,0,0,0,12.32,0q2.1-2.73,2.1-8c0-3.47-.7-6.1-2.1-7.91a7.41,7.41,0,0,0-6.21-2.7A7.28,7.28,0,0,0,884.7,585Q882.63,587.67,882.63,593Z"/><path d="M928.28,599.19a6.82,6.82,0,0,1-2.84,5.87q-2.84,2.07-8,2.07-5.43,0-8.47-1.72v-3.83a21.31,21.31,0,0,0,4.23,1.57,17.68,17.68,0,0,0,4.34.57,9.83,9.83,0,0,0,5-1,3.55,3.55,0,0,0,.36-5.87,21.59,21.59,0,0,0-5.39-2.68,29.52,29.52,0,0,1-5.42-2.48,7.38,7.38,0,0,1-2.39-2.4,6.31,6.31,0,0,1-.78-3.21,6.12,6.12,0,0,1,2.71-5.27,12.65,12.65,0,0,1,7.45-1.93,21.9,21.9,0,0,1,8.62,1.79L926.24,584a19.78,19.78,0,0,0-7.45-1.7,8.58,8.58,0,0,0-4.43.92,2.85,2.85,0,0,0-1.5,2.54,3.12,3.12,0,0,0,.56,1.87,5.5,5.5,0,0,0,1.81,1.47,39.12,39.12,0,0,0,4.78,2c3.24,1.18,5.43,2.36,6.56,3.56A6.27,6.27,0,0,1,928.28,599.19Z"/><path d="M1139.43,578.79a8.24,8.24,0,0,1-2,5.7,9.78,9.78,0,0,1-5.54,3v.2q4.38.54,6.5,2.79a8.2,8.2,0,0,1,2.12,5.87,9.56,9.56,0,0,1-3.61,8q-3.62,2.8-10.26,2.8a29.89,29.89,0,0,1-5.3-.44,18.06,18.06,0,0,1-4.66-1.53v-3.93a23.83,23.83,0,0,0,10.11,2.39q9.43,0,9.43-7.4,0-6.62-10.4-6.62h-3.59V586h3.63a11,11,0,0,0,6.75-1.88,6.18,6.18,0,0,0,2.49-5.22,5.13,5.13,0,0,0-1.83-4.18,7.48,7.48,0,0,0-5-1.52,15,15,0,0,0-4.51.65,19.84,19.84,0,0,0-4.83,2.39l-2.09-2.79a17.28,17.28,0,0,1,5.16-2.78,18.87,18.87,0,0,1,6.17-1q5.3,0,8.24,2.43A8.18,8.18,0,0,1,1139.43,578.79Z"/><path d="M1146.45,591.07q0-10.74,4.17-16.05T1163,569.7a16.65,16.65,0,0,1,4.43.47v3.57a14,14,0,0,0-4.38-.63q-5.85,0-8.94,3.65t-3.39,11.47h.3q2.74-4.29,8.67-4.28a10.15,10.15,0,0,1,7.73,3,11.19,11.19,0,0,1,2.83,8q0,5.68-3.1,8.93a11,11,0,0,1-8.38,3.25,10.78,10.78,0,0,1-9-4.25Q1146.45,598.64,1146.45,591.07Zm12.23,12.55a6.92,6.92,0,0,0,5.49-2.23c1.3-1.49,1.95-3.63,1.95-6.44a8.28,8.28,0,0,0-1.82-5.68,6.86,6.86,0,0,0-5.42-2.06,9.19,9.19,0,0,0-4.11.92,7.55,7.55,0,0,0-3,2.54,5.87,5.87,0,0,0-1.11,3.36,11.44,11.44,0,0,0,1,4.78,8.36,8.36,0,0,0,2.83,3.51A7,7,0,0,0,1158.68,603.62Z"/><path d="M1194.41,592.66a50,50,0,0,1,3.26-4l8.82-9.34h4.9L1200.34,591l11.83,15.66h-5l-9.64-12.9-3.11,2.69v10.21h-4.08V567.88h4.08v20.55c0,.91-.07,2.32-.2,4.23Z"/><path d="M1216.75,571.94a2.74,2.74,0,0,1,.7-2.08,2.42,2.42,0,0,1,1.74-.66,2.46,2.46,0,0,1,1.72.68,2.67,2.67,0,0,1,.72,2.06,2.73,2.73,0,0,1-.72,2.08,2.43,2.43,0,0,1-1.72.69,2.36,2.36,0,0,1-1.74-.69A2.77,2.77,0,0,1,1216.75,571.94Zm4.48,34.69h-4.13V579.34h4.13Z"/><path d="M1234.13,606.63H1230V567.88h4.13Z"/><path d="M1266.45,593q0,6.67-3.36,10.42t-9.29,3.75a12.28,12.28,0,0,1-6.5-1.72,11.33,11.33,0,0,1-4.38-4.93,17.17,17.17,0,0,1-1.54-7.52q0-6.68,3.33-10.4t9.27-3.72a11.55,11.55,0,0,1,9.1,3.81Q1266.46,586.46,1266.45,593Zm-20.79,0c0,3.49.7,6.14,2.09,8a8.3,8.3,0,0,0,12.32,0q2.1-2.73,2.1-8c0-3.47-.7-6.1-2.1-7.91a7.42,7.42,0,0,0-6.22-2.7,7.26,7.26,0,0,0-6.12,2.67Q1245.66,587.67,1245.66,593Z"/><path d="M1296,579.34V582l-5.06.6a8.64,8.64,0,0,1,1.25,2.28,8.82,8.82,0,0,1,.55,3.17,8.11,8.11,0,0,1-2.74,6.41,11.09,11.09,0,0,1-7.52,2.39,12.87,12.87,0,0,1-2.3-.2q-2.64,1.39-2.64,3.51a1.77,1.77,0,0,0,.93,1.65,6.64,6.64,0,0,0,3.16.54h4.83q4.44,0,6.81,1.87a6.46,6.46,0,0,1,2.38,5.42,7.75,7.75,0,0,1-3.64,6.92q-3.63,2.37-10.61,2.37c-3.56,0-6.32-.66-8.25-2a6.44,6.44,0,0,1-2.9-5.63,6.31,6.31,0,0,1,1.59-4.3,8.07,8.07,0,0,1,4.48-2.47,4.33,4.33,0,0,1-1.75-1.47,3.9,3.9,0,0,1-.71-2.31,4.42,4.42,0,0,1,.8-2.62,8.41,8.41,0,0,1,2.51-2.17,7.4,7.4,0,0,1-3.45-3,8.68,8.68,0,0,1-1.33-4.78,8.84,8.84,0,0,1,2.69-6.91q2.69-2.43,7.62-2.43a13.94,13.94,0,0,1,3.86.5Zm-21.77,31.87a3.73,3.73,0,0,0,1.87,3.37,10.37,10.37,0,0,0,5.36,1.14q5.19,0,7.7-1.55a4.77,4.77,0,0,0,2.5-4.23,3.32,3.32,0,0,0-1.37-3.07c-.91-.57-2.63-.86-5.15-.86h-5a6.57,6.57,0,0,0-4.38,1.34A4.84,4.84,0,0,0,1274.27,611.21Zm2.24-23.13a5.55,5.55,0,0,0,1.62,4.33,6.46,6.46,0,0,0,4.51,1.47q6,0,6-5.88,0-6.15-6.12-6.15a6.1,6.1,0,0,0-4.49,1.57A6.36,6.36,0,0,0,1276.51,588.08Z"/><path d="M1314.09,578.84a16.08,16.08,0,0,1,3.26.3l-.57,3.83a14.63,14.63,0,0,0-3-.37,7.27,7.27,0,0,0-5.66,2.69,9.81,9.81,0,0,0-2.36,6.7v14.64h-4.13V579.34h3.41l.48,5h.19a12.15,12.15,0,0,1,3.66-4.1A8.21,8.21,0,0,1,1314.09,578.84Z"/><path d="M1339.24,606.63l-.82-3.88h-.2a11.42,11.42,0,0,1-4.07,3.47,12.33,12.33,0,0,1-5.07.91,9.15,9.15,0,0,1-6.36-2.09,7.62,7.62,0,0,1-2.3-5.95q0-8.26,13.22-8.67l4.63-.15v-1.69a7,7,0,0,0-1.38-4.75,5.68,5.68,0,0,0-4.42-1.53,18.08,18.08,0,0,0-7.72,2.09l-1.27-3.16a19.63,19.63,0,0,1,4.42-1.72,19.37,19.37,0,0,1,4.82-.62q4.88,0,7.23,2.17c1.57,1.44,2.36,3.76,2.36,6.94v18.63Zm-9.34-2.91a8.4,8.4,0,0,0,6.07-2.12,7.83,7.83,0,0,0,2.2-5.93v-2.46l-4.13.17q-4.93.18-7.11,1.54a4.62,4.62,0,0,0-2.18,4.22,4.25,4.25,0,0,0,1.36,3.41A5.62,5.62,0,0,0,1329.9,603.72Z"/><path d="M1385.61,606.63V588.88a7.38,7.38,0,0,0-1.39-4.9,5.43,5.43,0,0,0-4.34-1.63q-3.86,0-5.7,2.22t-1.84,6.82v15.24h-4.13V588.88a7.38,7.38,0,0,0-1.4-4.9,5.45,5.45,0,0,0-4.36-1.63c-2.59,0-4.48.78-5.69,2.33s-1.8,4.1-1.8,7.63v14.32h-4.14V579.34h3.36l.68,3.73h.2a8.19,8.19,0,0,1,3.3-3.11,10.05,10.05,0,0,1,4.77-1.12q6.39,0,8.36,4.63h.2a8.62,8.62,0,0,1,3.54-3.38,11,11,0,0,1,5.28-1.25c3.08,0,5.4.79,6.93,2.38s2.31,4.12,2.31,7.61v17.8Z"/><path d="M1421.82,593q0,6.67-3.36,10.42t-9.29,3.75a12.26,12.26,0,0,1-6.5-1.72,11.33,11.33,0,0,1-4.38-4.93,17.17,17.17,0,0,1-1.55-7.52q0-6.68,3.34-10.4t9.26-3.72a11.56,11.56,0,0,1,9.11,3.81Q1421.81,586.46,1421.82,593ZM1401,593c0,3.49.69,6.14,2.09,8a8.29,8.29,0,0,0,12.31,0c1.4-1.82,2.11-4.48,2.11-8s-.71-6.1-2.11-7.91a7.38,7.38,0,0,0-6.21-2.7,7.28,7.28,0,0,0-6.13,2.67C1401.71,586.79,1401,589.44,1401,593Z"/><path d="M1446.67,599.19a6.8,6.8,0,0,1-2.84,5.87q-2.83,2.07-8,2.07-5.43,0-8.46-1.72v-3.83a21.22,21.22,0,0,0,4.22,1.57,17.68,17.68,0,0,0,4.34.57,9.83,9.83,0,0,0,5-1,3.54,3.54,0,0,0,.36-5.87,21.41,21.41,0,0,0-5.39-2.68,29,29,0,0,1-5.41-2.48,7.28,7.28,0,0,1-2.39-2.4,6.21,6.21,0,0,1-.79-3.21,6.13,6.13,0,0,1,2.72-5.27,12.61,12.61,0,0,1,7.44-1.93,21.9,21.9,0,0,1,8.62,1.79l-1.47,3.37a19.78,19.78,0,0,0-7.45-1.7,8.61,8.61,0,0,0-4.43.92,2.84,2.84,0,0,0-1.49,2.54,3,3,0,0,0,.56,1.87,5.34,5.34,0,0,0,1.8,1.47,39.85,39.85,0,0,0,4.78,2c3.24,1.18,5.43,2.36,6.57,3.56A6.3,6.3,0,0,1,1446.67,599.19Z"/><rect x="474.15" y="336.68" width="37.33" height="7.7" rx="3.85" ry="3.85"/><rect x="474.15" y="589.14" width="37.33" height="7.7" rx="3.85" ry="3.85"/><rect x="1005.89" y="348.22" width="52.7" height="7.7" rx="3.85" ry="3.85"/><rect x="1005.89" y="331.6" width="52.7" height="7.7" rx="3.85" ry="3.85"/><rect x="1005.89" y="592.99" width="52.7" height="7.7" rx="3.85" ry="3.85"/><rect x="1005.89" y="576.37" width="52.7" height="7.7" rx="3.85" ry="3.85"/></svg>