<svg id="Layer_1" data-name="Layer 1" xmlns="http://www.w3.org/2000/svg" viewBox="0 0 1620.22 366.65"><defs><style>.cls-1{fill:#ffe2a1;}.cls-2{fill:#3a68ad;}.cls-3{fill:#d32a2a;}.cls-4{font-size:30px;font-family:OpenSans-Regular, Open Sans;}</style></defs><title>Fosforos_U02_01</title><rect class="cls-1" x="1097.08" y="32.97" width="13.75" height="237.11"/><path class="cls-2" d="M1110.83,65.93h-13.75l-3.27-55.78A10.14,10.14,0,0,1,1104,0h0a10.15,10.15,0,0,1,10.15,10.15Z"/><rect class="cls-3" x="1603.19" y="0.02" width="13.75" height="237.11" transform="translate(3220.14 237.15) rotate(180)"/><path class="cls-3" d="M1603.19,204.17h13.75l3.28,55.78a10.16,10.16,0,0,1-10.15,10.15h0A10.15,10.15,0,0,1,1599.92,260Z"/><rect class="cls-3" x="1461.82" y="-108.41" width="13.75" height="237.11" transform="translate(1478.84 -1458.55) rotate(90)"/><path class="cls-3" d="M1554.29,17V3.27L1610.07,0a10.15,10.15,0,0,1,10.15,10.15h0a10.16,10.16,0,0,1-10.15,10.15Z"/><rect class="cls-1" x="1350.14" y="32.97" width="13.75" height="237.11"/><path class="cls-2" d="M1363.89,65.93h-13.75l-3.28-55.78A10.15,10.15,0,0,1,1357,0h0a10.14,10.14,0,0,1,10.15,10.15Z"/><rect class="cls-1" x="1208.76" y="144.65" width="13.75" height="237.11" transform="translate(1478.84 -952.43) rotate(90)"/><path class="cls-2" d="M1301.23,270.08V256.33l55.78-3.27a10.14,10.14,0,0,1,10.15,10.14h0A10.14,10.14,0,0,1,1357,273.35Z"/><rect class="cls-1" x="598.69" y="32.97" width="13.75" height="237.11"/><path class="cls-2" d="M612.44,65.93H598.69l-3.27-55.78A10.14,10.14,0,0,1,605.57,0h0a10.15,10.15,0,0,1,10.15,10.15Z"/><rect class="cls-3" x="851.75" y="32.97" width="13.75" height="237.11"/><path class="cls-3" d="M865.5,65.93H851.75l-3.27-55.78A10.14,10.14,0,0,1,858.63,0h0a10.14,10.14,0,0,1,10.14,10.15Z"/><rect class="cls-3" x="710.38" y="144.65" width="13.75" height="237.11" transform="translate(980.46 -454.05) rotate(90)"/><path class="cls-3" d="M802.84,270.08V256.33l55.79-3.27a10.14,10.14,0,0,1,10.14,10.14h0a10.14,10.14,0,0,1-10.14,10.15Z"/><rect class="cls-1" x="100.31" y="32.97" width="13.75" height="237.11"/><path class="cls-2" d="M114.06,65.93H100.31L97,10.15A10.15,10.15,0,0,1,107.18,0h0a10.14,10.14,0,0,1,10.15,10.15Z"/><text class="cls-4" transform="translate(0 322.52)">Primer término<tspan x="16.21" y="36">tiene 1 palito</tspan></text><text class="cls-4" transform="translate(607.98 322.52)">Segundo término<tspan x="23.14" y="36">tiene 3 palitos</tspan></text><text class="cls-4" transform="translate(1252.75 322.52)">Tercer término<tspan x="2.23" y="36">tiene 5 palitos </tspan></text></svg>