<svg id="Layer_1" data-name="Layer 1" xmlns="http://www.w3.org/2000/svg" viewBox="0 0 1552.38 379.33"><defs><style>.cls-1{fill:#d32a2a;}.cls-2{fill:#ffe2a1;}.cls-3{fill:#3a68ad;}</style></defs><title>Fosforos_U03_04_03</title><rect class="cls-1" x="1535.36" y="0.02" width="13.75" height="237.11" transform="translate(3084.47 237.15) rotate(180)"/><path class="cls-1" d="M1535.36,204.17h13.75l3.27,55.78a10.15,10.15,0,0,1-10.15,10.15h0A10.16,10.16,0,0,1,1532.08,260Z"/><rect class="cls-1" x="1393.98" y="-108.41" width="13.75" height="237.11" transform="translate(1411.01 -1390.71) rotate(90)"/><path class="cls-1" d="M1486.45,17V3.27L1542.23,0a10.14,10.14,0,0,1,10.15,10.15h0a10.15,10.15,0,0,1-10.15,10.15Z"/><rect class="cls-2" x="1282.3" y="32.97" width="13.75" height="237.11"/><path class="cls-3" d="M1296.05,65.93H1282.3L1279,10.15A10.14,10.14,0,0,1,1289.18,0h0a10.15,10.15,0,0,1,10.15,10.15Z"/><rect class="cls-2" x="1140.93" y="144.65" width="13.75" height="237.11" transform="translate(1411.01 -884.6) rotate(90)"/><path class="cls-3" d="M1233.39,270.08V256.33l55.79-3.27a10.15,10.15,0,0,1,10.15,10.14h0a10.15,10.15,0,0,1-10.15,10.15Z"/><rect class="cls-2" x="1022.37" width="13.75" height="237.11" transform="translate(2058.49 237.11) rotate(180)"/><path class="cls-3" d="M1022.37,204.15h13.75l3.27,55.78a10.14,10.14,0,0,1-10.14,10.15h0a10.14,10.14,0,0,1-10.15-10.15Z"/><rect class="cls-2" x="881" y="-108.41" width="13.75" height="237.11" transform="translate(898.02 -877.72) rotate(90)"/><path class="cls-3" d="M973.46,17V3.27L1029.25,0a10.14,10.14,0,0,1,10.14,10.15h0a10.15,10.15,0,0,1-10.14,10.15Z"/><rect class="cls-2" x="769.32" y="32.97" width="13.75" height="237.11"/><path class="cls-3" d="M783.07,65.93H769.32L766,10.15A10.15,10.15,0,0,1,776.19,0h0a10.14,10.14,0,0,1,10.15,10.15Z"/><rect class="cls-2" x="627.94" y="144.65" width="13.75" height="237.11" transform="translate(898.02 -371.61) rotate(90)"/><path class="cls-3" d="M720.41,270.08V256.33l55.78-3.27a10.14,10.14,0,0,1,10.15,10.14h0a10.14,10.14,0,0,1-10.15,10.15Z"/><rect class="cls-2" x="3.27" y="32.97" width="13.75" height="237.11"/><path class="cls-3" d="M17,65.93H3.27L0,10.15A10.14,10.14,0,0,1,10.15,0h0A10.15,10.15,0,0,1,20.3,10.15Z"/><rect class="cls-2" x="509.39" y="0.02" width="13.75" height="237.11" transform="translate(1032.52 237.15) rotate(180)"/><path class="cls-3" d="M509.39,204.17h13.74L526.41,260a10.16,10.16,0,0,1-10.15,10.15h0A10.16,10.16,0,0,1,506.11,260Z"/><rect class="cls-2" x="368.01" y="-108.41" width="13.75" height="237.11" transform="translate(385.03 -364.74) rotate(90)"/><path class="cls-3" d="M460.48,17V3.27L516.26,0a10.15,10.15,0,0,1,10.15,10.15h0A10.16,10.16,0,0,1,516.26,20.3Z"/><rect class="cls-2" x="256.33" y="32.97" width="13.75" height="237.11"/><path class="cls-3" d="M270.08,65.93H256.33l-3.27-55.78A10.14,10.14,0,0,1,263.2,0h0a10.14,10.14,0,0,1,10.15,10.15Z"/><rect class="cls-2" x="114.96" y="144.65" width="13.75" height="237.11" transform="translate(385.03 141.37) rotate(90)"/><path class="cls-3" d="M207.42,270.08V256.33l55.78-3.27a10.14,10.14,0,0,1,10.15,10.14h0a10.14,10.14,0,0,1-10.15,10.15Z"/><path d="M704.41,325.76h-3.09V302h-8.41v-2.74h19.91V302h-8.41Z"/><path d="M724.77,326.12a9.14,9.14,0,0,1-7-2.68,10.39,10.39,0,0,1-2.56-7.47,11.55,11.55,0,0,1,2.37-7.65,7.91,7.91,0,0,1,6.37-2.83,7.51,7.51,0,0,1,5.92,2.46,9.45,9.45,0,0,1,2.18,6.49v1.91H718.38a7.88,7.88,0,0,0,1.77,5.32,6.1,6.1,0,0,0,4.73,1.82,16.18,16.18,0,0,0,6.36-1.34v2.68a16.14,16.14,0,0,1-3,1A17,17,0,0,1,724.77,326.12ZM724,308a4.92,4.92,0,0,0-3.82,1.56,7.2,7.2,0,0,0-1.68,4.32h10.41a6.68,6.68,0,0,0-1.27-4.37A4.48,4.48,0,0,0,724,308Z"/><path d="M746.31,305.49a11.48,11.48,0,0,1,2.38.22l-.42,2.8a9.78,9.78,0,0,0-2.18-.28,5.33,5.33,0,0,0-4.13,2,7.19,7.19,0,0,0-1.72,4.89v10.68h-3V305.85h2.49l.34,3.69h.15a8.92,8.92,0,0,1,2.67-3A6,6,0,0,1,746.31,305.49Z"/><path d="M760.37,326.12a8.47,8.47,0,0,1-6.69-2.66q-2.37-2.65-2.37-7.53c0-3.32.8-5.9,2.4-7.71a8.67,8.67,0,0,1,6.86-2.73,13.34,13.34,0,0,1,2.87.31,9.56,9.56,0,0,1,2.25.73l-.93,2.56a14,14,0,0,0-2.18-.67,10,10,0,0,0-2.08-.26q-6.07,0-6.07,7.74a9.21,9.21,0,0,0,1.48,5.63,5.15,5.15,0,0,0,4.39,2,13.46,13.46,0,0,0,5.1-1.07v2.67A10.88,10.88,0,0,1,760.37,326.12Z"/><path d="M778.53,326.12a9.14,9.14,0,0,1-7-2.68A10.39,10.39,0,0,1,769,316a11.55,11.55,0,0,1,2.37-7.65,7.91,7.91,0,0,1,6.37-2.83,7.51,7.51,0,0,1,5.92,2.46,9.45,9.45,0,0,1,2.18,6.49v1.91H772.14a7.88,7.88,0,0,0,1.77,5.32,6.1,6.1,0,0,0,4.73,1.82,16.18,16.18,0,0,0,6.36-1.34v2.68a16.14,16.14,0,0,1-3,1A16.91,16.91,0,0,1,778.53,326.12Zm-.82-18.1a4.93,4.93,0,0,0-3.82,1.56,7.2,7.2,0,0,0-1.68,4.32h10.41a6.68,6.68,0,0,0-1.27-4.37A4.48,4.48,0,0,0,777.71,308Z"/><path d="M800.07,305.49a11.41,11.41,0,0,1,2.38.22l-.42,2.8a9.78,9.78,0,0,0-2.18-.28,5.33,5.33,0,0,0-4.13,2,7.18,7.18,0,0,0-1.71,4.89v10.68h-3V305.85h2.49l.34,3.69H794a8.92,8.92,0,0,1,2.67-3A6,6,0,0,1,800.07,305.49Z"/><path d="M822.27,323.64a9.7,9.7,0,0,0,1.54-.12,9,9,0,0,0,1.18-.25v2.31a5.37,5.37,0,0,1-1.44.39,11.23,11.23,0,0,1-1.72.15c-3.85,0-5.78-2-5.78-6.08V308.2H813.2v-1.46l2.85-1.25,1.28-4.25h1.74v4.61h5.78v2.35h-5.78v11.71a4,4,0,0,0,.85,2.76A3,3,0,0,0,822.27,323.64Z"/><path d="M837.38,326.12a9.16,9.16,0,0,1-7-2.68,10.43,10.43,0,0,1-2.55-7.47,11.55,11.55,0,0,1,2.37-7.65,7.9,7.9,0,0,1,6.37-2.83,7.51,7.51,0,0,1,5.92,2.46,9.45,9.45,0,0,1,2.18,6.49v1.91H831a7.93,7.93,0,0,0,1.78,5.32,6.07,6.07,0,0,0,4.73,1.82,16.09,16.09,0,0,0,6.35-1.34v2.68a15.83,15.83,0,0,1-3,1A17,17,0,0,1,837.38,326.12Zm-.82-18.1a4.92,4.92,0,0,0-3.82,1.56,7.2,7.2,0,0,0-1.68,4.32h10.4a6.62,6.62,0,0,0-1.27-4.37A4.46,4.46,0,0,0,836.56,308Zm-2.23-5.25c.58-.75,1.2-1.66,1.88-2.73a31.14,31.14,0,0,0,1.59-2.78h3.66v.39a34.12,34.12,0,0,1-5.12,5.57h-2Z"/><path d="M858.92,305.49a11.48,11.48,0,0,1,2.38.22l-.42,2.8a9.78,9.78,0,0,0-2.18-.28,5.32,5.32,0,0,0-4.13,2,7.14,7.14,0,0,0-1.72,4.89v10.68h-3V305.85h2.49l.34,3.69h.15a8.71,8.71,0,0,1,2.67-3A6,6,0,0,1,858.92,305.49Z"/><path d="M890.39,325.76V312.81a5.41,5.41,0,0,0-1-3.57,3.94,3.94,0,0,0-3.16-1.19,5.09,5.09,0,0,0-4.16,1.62,7.65,7.65,0,0,0-1.35,5v11.11h-3V312.81a5.36,5.36,0,0,0-1-3.57,4,4,0,0,0-3.18-1.19,4.93,4.93,0,0,0-4.15,1.7c-.88,1.13-1.31,3-1.31,5.57v10.44h-3V305.85h2.45l.49,2.73h.15a5.91,5.91,0,0,1,2.4-2.27,7.32,7.32,0,0,1,3.48-.82c3.12,0,5.15,1.13,6.11,3.38h.14a6.34,6.34,0,0,1,2.58-2.47,8,8,0,0,1,3.85-.91,6.74,6.74,0,0,1,5.06,1.74q1.68,1.72,1.68,5.54v13Z"/><path d="M899.37,300.46a2,2,0,0,1,.5-1.52,1.89,1.89,0,0,1,2.53,0,2,2,0,0,1,.53,1.51,2,2,0,0,1-.53,1.52,1.85,1.85,0,0,1-2.53,0A2.09,2.09,0,0,1,899.37,300.46Zm3.26,25.3h-3V305.85h3Z"/><path d="M922.65,325.76V312.88a5.19,5.19,0,0,0-1.11-3.63,4.51,4.51,0,0,0-3.47-1.2,5.72,5.72,0,0,0-4.57,1.69q-1.46,1.69-1.46,5.58v10.44h-3V305.85h2.45l.49,2.73h.15a6.13,6.13,0,0,1,2.59-2.28,8.47,8.47,0,0,1,3.73-.81,7.55,7.55,0,0,1,5.41,1.74q1.81,1.72,1.81,5.54v13Z"/><path d="M949,315.79c0,3.24-.82,5.78-2.45,7.6a8.65,8.65,0,0,1-6.78,2.73,8.93,8.93,0,0,1-4.74-1.25,8.25,8.25,0,0,1-3.19-3.6,12.53,12.53,0,0,1-1.13-5.48c0-3.25.81-5.77,2.44-7.58a8.6,8.6,0,0,1,6.75-2.72,8.43,8.43,0,0,1,6.64,2.78A10.93,10.93,0,0,1,949,315.79Zm-15.17,0a9.42,9.42,0,0,0,1.53,5.81,6.05,6.05,0,0,0,9,0,9.43,9.43,0,0,0,1.54-5.82,9.29,9.29,0,0,0-1.54-5.77,5.39,5.39,0,0,0-4.53-2,5.31,5.31,0,0,0-4.47,1.95A9.36,9.36,0,0,0,933.87,315.79Z"/><path d="M699.18,368.27a9.61,9.61,0,0,0,1.54-.12,11.37,11.37,0,0,0,1.18-.24v2.3a5.47,5.47,0,0,1-1.44.4,11.23,11.23,0,0,1-1.72.15q-5.78,0-5.77-6.08V352.83h-2.85v-1.45l2.85-1.25,1.27-4.25H696v4.61h5.78v2.34H696v11.72a4,4,0,0,0,.86,2.76A3,3,0,0,0,699.18,368.27Z"/><path d="M705.63,345.1a2,2,0,0,1,.51-1.52,1.88,1.88,0,0,1,2.52,0,2.42,2.42,0,0,1,0,3,1.73,1.73,0,0,1-1.25.5,1.7,1.7,0,0,1-1.27-.5A2,2,0,0,1,705.63,345.1Zm3.27,25.3h-3V350.49h3Z"/><path d="M723.7,370.76a9.17,9.17,0,0,1-7-2.69,10.4,10.4,0,0,1-2.55-7.46,11.55,11.55,0,0,1,2.37-7.65,7.87,7.87,0,0,1,6.37-2.83,7.51,7.51,0,0,1,5.92,2.46,9.43,9.43,0,0,1,2.18,6.49V361H717.31a7.88,7.88,0,0,0,1.77,5.32,6.12,6.12,0,0,0,4.73,1.82,15.93,15.93,0,0,0,6.35-1.35v2.69a15.83,15.83,0,0,1-3,1A17,17,0,0,1,723.7,370.76Zm-.82-18.11a4.92,4.92,0,0,0-3.82,1.56,7.25,7.25,0,0,0-1.68,4.33h10.41a6.62,6.62,0,0,0-1.28-4.37A4.46,4.46,0,0,0,722.88,352.65Z"/><path d="M749.78,370.4V357.52a5.19,5.19,0,0,0-1.11-3.63,4.51,4.51,0,0,0-3.47-1.2,5.68,5.68,0,0,0-4.57,1.69q-1.46,1.68-1.46,5.57V370.4h-3V350.49h2.45l.49,2.72h.15a6.13,6.13,0,0,1,2.59-2.28,8.6,8.6,0,0,1,3.73-.8,7.55,7.55,0,0,1,5.41,1.73q1.82,1.74,1.81,5.55v13Z"/><path d="M767.4,370.76a9.17,9.17,0,0,1-7-2.69,10.4,10.4,0,0,1-2.55-7.46,11.55,11.55,0,0,1,2.37-7.65,7.87,7.87,0,0,1,6.37-2.83,7.52,7.52,0,0,1,5.92,2.46,9.43,9.43,0,0,1,2.18,6.49V361H761a8,8,0,0,0,1.77,5.32,6.16,6.16,0,0,0,4.74,1.82,15.93,15.93,0,0,0,6.35-1.35v2.69a15.83,15.83,0,0,1-3,1A17,17,0,0,1,767.4,370.76Zm-.82-18.11a4.92,4.92,0,0,0-3.82,1.56,7.25,7.25,0,0,0-1.68,4.33h10.4a6.62,6.62,0,0,0-1.27-4.37A4.47,4.47,0,0,0,766.58,352.65Z"/><path d="M799.31,370.4h-2.94V351.47c0-1.57,0-3.06.14-4.47-.25.26-.54.52-.85.8s-1.76,1.46-4.32,3.54l-1.6-2.07,7-5.43h2.54Z"/><path d="M825.86,350.09a6.05,6.05,0,0,1-1.42,4.16,7.11,7.11,0,0,1-4,2.16v.15a7.57,7.57,0,0,1,4.74,2,6,6,0,0,1,1.54,4.29,7,7,0,0,1-2.63,5.84c-1.76,1.36-4.25,2-7.49,2a21.91,21.91,0,0,1-3.86-.32,12.92,12.92,0,0,1-3.4-1.12v-2.86a16.71,16.71,0,0,0,3.68,1.29,16.43,16.43,0,0,0,3.69.45q6.89,0,6.89-5.4,0-4.83-7.6-4.83h-2.61v-2.59H816a7.94,7.94,0,0,0,4.92-1.38,4.49,4.49,0,0,0,1.82-3.8,3.75,3.75,0,0,0-1.34-3.05,5.48,5.48,0,0,0-3.62-1.11,11.38,11.38,0,0,0-3.29.47,14.84,14.84,0,0,0-3.52,1.75l-1.53-2a12.74,12.74,0,0,1,3.77-2,13.74,13.74,0,0,1,4.5-.74,9.18,9.18,0,0,1,6,1.77A6,6,0,0,1,825.86,350.09Z"/><path d="M851,370.76a8.56,8.56,0,0,1-3.55-.72,6.74,6.74,0,0,1-2.7-2.2h-.21a27.59,27.59,0,0,1,.21,3.3v8.19h-3V350.49h2.45l.42,2.72h.14a7.08,7.08,0,0,1,2.71-2.36,8.29,8.29,0,0,1,3.54-.72,7.35,7.35,0,0,1,6.11,2.7q2.16,2.71,2.16,7.6T857.06,368A7.39,7.39,0,0,1,851,370.76Zm-.44-18.07a5.33,5.33,0,0,0-4.41,1.69c-.91,1.12-1.37,2.92-1.4,5.37v.68q0,4.19,1.4,6a5.34,5.34,0,0,0,4.49,1.81,4.68,4.68,0,0,0,4-2.09,10,10,0,0,0,1.46-5.76,9.55,9.55,0,0,0-1.46-5.71A4.81,4.81,0,0,0,850.54,352.69Z"/><path d="M876.75,370.4l-.6-2.84H876a8.41,8.41,0,0,1-3,2.54,9.11,9.11,0,0,1-3.7.66,6.64,6.64,0,0,1-4.64-1.53,5.55,5.55,0,0,1-1.68-4.34q0-6,9.65-6.32l3.38-.11v-1.23a5.05,5.05,0,0,0-1-3.46,4.14,4.14,0,0,0-3.23-1.12,13.12,13.12,0,0,0-5.63,1.53l-.92-2.31a14.61,14.61,0,0,1,6.74-1.71q3.56,0,5.27,1.58t1.72,5.07V370.4Zm-6.81-2.13a6.14,6.14,0,0,0,4.43-1.54,5.72,5.72,0,0,0,1.6-4.33v-1.79l-3,.12a11,11,0,0,0-5.19,1.12,3.37,3.37,0,0,0-1.59,3.08,3.11,3.11,0,0,0,1,2.49A4.12,4.12,0,0,0,869.94,368.27Z"/><path d="M888.21,370.4h-3V342.14h3Z"/><path d="M894.35,345.1a2,2,0,0,1,.51-1.52,1.89,1.89,0,0,1,2.53,0,2.45,2.45,0,0,1,0,3,1.75,1.75,0,0,1-1.26.5,1.73,1.73,0,0,1-1.27-.5A2,2,0,0,1,894.35,345.1Zm3.27,25.3h-3V350.49h3Z"/><path d="M910.45,368.27a9.7,9.7,0,0,0,1.54-.12,11.37,11.37,0,0,0,1.18-.24v2.3a5.71,5.71,0,0,1-1.44.4,11.23,11.23,0,0,1-1.72.15q-5.78,0-5.78-6.08V352.83h-2.85v-1.45l2.85-1.25,1.28-4.25h1.74v4.61H913v2.34h-5.77v11.72a4,4,0,0,0,.85,2.76A3,3,0,0,0,910.45,368.27Z"/><path d="M934.33,360.43q0,4.86-2.45,7.6a8.66,8.66,0,0,1-6.78,2.73,9,9,0,0,1-4.74-1.25,8.39,8.39,0,0,1-3.2-3.6,12.53,12.53,0,0,1-1.12-5.48q0-4.87,2.43-7.59a8.63,8.63,0,0,1,6.76-2.71,8.41,8.41,0,0,1,6.64,2.78A10.93,10.93,0,0,1,934.33,360.43Zm-15.17,0a9.42,9.42,0,0,0,1.53,5.81,6.05,6.05,0,0,0,9,0,9.44,9.44,0,0,0,1.53-5.82,9.26,9.26,0,0,0-1.53-5.77,6.16,6.16,0,0,0-9,0A9.41,9.41,0,0,0,919.16,360.43Z"/><path d="M952.45,365a5,5,0,0,1-2.07,4.28,9.68,9.68,0,0,1-5.81,1.51,12.66,12.66,0,0,1-6.17-1.25v-2.8a14.6,14.6,0,0,0,3.07,1.14,12.88,12.88,0,0,0,3.18.42,7.22,7.22,0,0,0,3.63-.75,2.6,2.6,0,0,0,.26-4.29,15.81,15.81,0,0,0-3.93-2,21,21,0,0,1-4-1.81,5.5,5.5,0,0,1-1.75-1.75,4.61,4.61,0,0,1-.57-2.34,4.47,4.47,0,0,1,2-3.85,9.29,9.29,0,0,1,5.43-1.4,15.93,15.93,0,0,1,6.29,1.3L951,353.89a14.33,14.33,0,0,0-5.43-1.24,6.37,6.37,0,0,0-3.24.67,2.1,2.1,0,0,0-1.09,1.86,2.28,2.28,0,0,0,.41,1.36,4.05,4.05,0,0,0,1.32,1.07,28.31,28.31,0,0,0,3.48,1.47,13,13,0,0,1,4.79,2.6A4.58,4.58,0,0,1,952.45,365Z"/></svg>