<svg id="Layer_1" data-name="Layer 1" xmlns="http://www.w3.org/2000/svg" viewBox="0 0 2197.15 345.8"><defs><style>.cls-1{fill:#ffe2a1;}.cls-2{fill:#3a68ad;}</style></defs><title>Fosforos_U01_03</title><rect class="cls-1" x="501.66" y="32.97" width="13.75" height="237.11"/><path class="cls-2" d="M515.41,65.93H501.66l-3.27-55.78A10.14,10.14,0,0,1,508.54,0h0a10.14,10.14,0,0,1,10.14,10.15Z"/><rect class="cls-1" x="1007.77" y="0.02" width="13.75" height="237.11" transform="translate(2029.29 237.15) rotate(180)"/><path class="cls-2" d="M1007.77,204.17h13.75L1024.8,260a10.16,10.16,0,0,1-10.15,10.15h0A10.15,10.15,0,0,1,1004.5,260Z"/><rect class="cls-1" x="866.4" y="-108.41" width="13.75" height="237.11" transform="translate(883.42 -863.13) rotate(90)"/><path class="cls-2" d="M958.87,17V3.27L1014.65,0a10.15,10.15,0,0,1,10.15,10.15h0a10.16,10.16,0,0,1-10.15,10.15Z"/><rect class="cls-1" x="754.72" y="32.97" width="13.75" height="237.11"/><path class="cls-2" d="M768.47,65.93H754.72l-3.28-55.78A10.15,10.15,0,0,1,761.59,0h0a10.14,10.14,0,0,1,10.15,10.15Z"/><rect class="cls-1" x="613.34" y="144.65" width="13.75" height="237.11" transform="translate(883.42 -357.01) rotate(90)"/><path class="cls-2" d="M705.81,270.08V256.33l55.78-3.27a10.14,10.14,0,0,1,10.15,10.14h0a10.14,10.14,0,0,1-10.15,10.15Z"/><rect class="cls-1" x="3.27" y="35.35" width="13.75" height="237.11"/><path class="cls-2" d="M17,68.31H3.27L0,12.53A10.15,10.15,0,0,1,10.15,2.38h0A10.16,10.16,0,0,1,20.3,12.53Z"/><rect class="cls-1" x="114.96" y="147.03" width="13.75" height="237.11" transform="translate(387.42 143.76) rotate(90)"/><path class="cls-2" d="M207.42,272.46V258.71l55.78-3.27a10.14,10.14,0,0,1,10.15,10.15h0a10.15,10.15,0,0,1-10.15,10.15Z"/><rect class="cls-1" x="2038.75" y="-106.01" width="13.75" height="237.11" transform="translate(2058.17 -2033.07) rotate(90)"/><path class="cls-2" d="M2131.22,19.43V5.68L2187,2.4a10.16,10.16,0,0,1,10.15,10.15h0A10.15,10.15,0,0,1,2187,22.7Z"/><rect class="cls-1" x="1927.07" y="35.37" width="13.75" height="237.11"/><path class="cls-2" d="M1940.82,68.33h-13.75l-3.28-55.78A10.16,10.16,0,0,1,1933.94,2.4h0a10.15,10.15,0,0,1,10.15,10.15Z"/><rect class="cls-1" x="1785.69" y="147.05" width="13.75" height="237.11" transform="translate(2058.17 -1526.96) rotate(90)"/><path class="cls-2" d="M1878.16,272.48V258.73l55.78-3.27a10.14,10.14,0,0,1,10.15,10.15h0a10.14,10.14,0,0,1-10.15,10.14Z"/><rect class="cls-1" x="1161.03" y="35.37" width="13.75" height="237.11"/><path class="cls-2" d="M1174.77,68.33H1161l-3.28-55.78A10.16,10.16,0,0,1,1167.9,2.4h0a10.16,10.16,0,0,1,10.15,10.15Z"/><rect class="cls-1" x="1667.14" y="2.42" width="13.75" height="237.11" transform="translate(3348.02 241.95) rotate(180)"/><path class="cls-2" d="M1667.14,206.57h13.75l3.27,55.78A10.14,10.14,0,0,1,1674,272.5h0a10.15,10.15,0,0,1-10.15-10.15Z"/><rect class="cls-1" x="1525.76" y="-106.01" width="13.75" height="237.11" transform="translate(1545.19 -1520.09) rotate(90)"/><path class="cls-2" d="M1618.23,19.43V5.68L1674,2.4a10.15,10.15,0,0,1,10.15,10.15h0A10.14,10.14,0,0,1,1674,22.7Z"/><rect class="cls-1" x="1414.08" y="35.37" width="13.75" height="237.11"/><path class="cls-2" d="M1427.83,68.33h-13.75l-3.27-55.78A10.15,10.15,0,0,1,1421,2.4h0a10.15,10.15,0,0,1,10.14,10.15Z"/><rect class="cls-1" x="1272.71" y="147.05" width="13.75" height="237.11" transform="translate(1545.19 -1013.98) rotate(90)"/><path class="cls-2" d="M1365.17,272.48V258.73l55.79-3.27a10.14,10.14,0,0,1,10.14,10.15h0A10.14,10.14,0,0,1,1421,275.75Z"/><path d="M43.55,303.74a7.4,7.4,0,0,1-2.75,6.2c-1.83,1.45-4.46,2.17-7.87,2.17H29.8v10.45H26.72V296H33.6Q43.56,296,43.55,303.74ZM29.8,309.46h2.78q4.11,0,5.94-1.32a4.89,4.89,0,0,0,1.84-4.25A4.59,4.59,0,0,0,38.63,300q-1.73-1.29-5.37-1.29H29.8Z"/><path d="M57.74,302.29a12.25,12.25,0,0,1,2.38.21l-.42,2.8a10.33,10.33,0,0,0-2.18-.27,5.29,5.29,0,0,0-4.13,2,7.14,7.14,0,0,0-1.72,4.89v10.68h-3V302.65h2.49l.34,3.69h.15a8.53,8.53,0,0,1,2.67-3A6,6,0,0,1,57.74,302.29Z"/><path d="M63.59,297.26a2,2,0,0,1,.51-1.52,1.88,1.88,0,0,1,2.52,0,2.42,2.42,0,0,1,0,3,1.77,1.77,0,0,1-1.25.5,1.73,1.73,0,0,1-1.27-.5A2,2,0,0,1,63.59,297.26Zm3.27,25.3h-3V302.65h3Z"/><path d="M98.62,322.56V309.61a5.41,5.41,0,0,0-1-3.57,3.93,3.93,0,0,0-3.17-1.19,5.1,5.1,0,0,0-4.15,1.61,7.67,7.67,0,0,0-1.35,5v11.12h-3V309.61a5.36,5.36,0,0,0-1-3.57,3.94,3.94,0,0,0-3.18-1.19,4.9,4.9,0,0,0-4.15,1.7q-1.32,1.69-1.32,5.56v10.45h-3V302.65H75.7l.49,2.72h.15a6,6,0,0,1,2.4-2.27,7.44,7.44,0,0,1,3.48-.81c3.11,0,5.15,1.12,6.1,3.38h.15a6.3,6.3,0,0,1,2.58-2.48,8,8,0,0,1,3.85-.9A6.77,6.77,0,0,1,100,304q1.68,1.74,1.68,5.55v13Z"/><path d="M116.26,322.92a9.17,9.17,0,0,1-7-2.69,10.4,10.4,0,0,1-2.55-7.46,11.55,11.55,0,0,1,2.37-7.65,7.87,7.87,0,0,1,6.37-2.83,7.52,7.52,0,0,1,5.92,2.46,9.43,9.43,0,0,1,2.18,6.49v1.91H109.86a8,8,0,0,0,1.78,5.32,6.12,6.12,0,0,0,4.73,1.82,15.93,15.93,0,0,0,6.35-1.35v2.69a15.83,15.83,0,0,1-3,1A17,17,0,0,1,116.26,322.92Zm-.82-18.11a4.92,4.92,0,0,0-3.82,1.56,7.23,7.23,0,0,0-1.68,4.33h10.4a6.6,6.6,0,0,0-1.27-4.37A4.47,4.47,0,0,0,115.44,304.81Z"/><path d="M137.8,302.29a12.25,12.25,0,0,1,2.38.21l-.42,2.8a10.33,10.33,0,0,0-2.18-.27,5.29,5.29,0,0,0-4.13,2,7.14,7.14,0,0,0-1.72,4.89v10.68h-3V302.65h2.49l.34,3.69h.15a8.53,8.53,0,0,1,2.67-3A6,6,0,0,1,137.8,302.29Z"/><path d="M160,320.43a9.74,9.74,0,0,0,1.55-.12,12,12,0,0,0,1.18-.24v2.3a5.68,5.68,0,0,1-1.45.4,11,11,0,0,1-1.71.15q-5.77,0-5.78-6.08V305h-2.85v-1.45l2.85-1.25,1.27-4.25h1.75v4.61h5.77V305H156.8v11.72a4,4,0,0,0,.85,2.76A3,3,0,0,0,160,320.43Z"/><path d="M175.1,322.92a9.14,9.14,0,0,1-7-2.69,10.4,10.4,0,0,1-2.55-7.46,11.55,11.55,0,0,1,2.37-7.65,7.86,7.86,0,0,1,6.36-2.83,7.49,7.49,0,0,1,5.92,2.46,9.39,9.39,0,0,1,2.18,6.49v1.91H168.71a7.89,7.89,0,0,0,1.77,5.32,6.13,6.13,0,0,0,4.73,1.82,16,16,0,0,0,6.36-1.35v2.69a16.06,16.06,0,0,1-3,1A17,17,0,0,1,175.1,322.92Zm-.81-18.11a4.94,4.94,0,0,0-3.83,1.56,7.23,7.23,0,0,0-1.68,4.33h10.41a6.6,6.6,0,0,0-1.27-4.37A4.48,4.48,0,0,0,174.29,304.81Zm-2.24-5.25c.58-.75,1.21-1.66,1.88-2.72s1.2-2,1.59-2.78h3.67v.38a26.62,26.62,0,0,1-2.38,2.91,27.26,27.26,0,0,1-2.74,2.67h-2Z"/><path d="M196.64,302.29a12.18,12.18,0,0,1,2.38.21l-.41,2.8a10.41,10.41,0,0,0-2.18-.27,5.32,5.32,0,0,0-4.14,2,7.18,7.18,0,0,0-1.71,4.89v10.68h-3V302.65h2.49l.35,3.69h.14a8.73,8.73,0,0,1,2.67-3A6,6,0,0,1,196.64,302.29Z"/><path d="M228.12,322.56V309.61a5.36,5.36,0,0,0-1-3.57,3.91,3.91,0,0,0-3.16-1.19,5.14,5.14,0,0,0-4.16,1.61,7.73,7.73,0,0,0-1.34,5v11.12h-3V309.61a5.36,5.36,0,0,0-1-3.57,3.94,3.94,0,0,0-3.18-1.19,4.9,4.9,0,0,0-4.15,1.7q-1.32,1.69-1.32,5.56v10.45h-3V302.65h2.45l.49,2.72h.15a6,6,0,0,1,2.4-2.27,7.44,7.44,0,0,1,3.48-.81c3.11,0,5.15,1.12,6.1,3.38H218a6.3,6.3,0,0,1,2.58-2.48,8,8,0,0,1,3.85-.9,6.77,6.77,0,0,1,5.06,1.73q1.68,1.74,1.68,5.55v13Z"/><path d="M237.09,297.26a2,2,0,0,1,.51-1.52,1.89,1.89,0,0,1,2.53,0,2.45,2.45,0,0,1,0,3,1.79,1.79,0,0,1-1.26.5,1.75,1.75,0,0,1-1.27-.5A2,2,0,0,1,237.09,297.26Zm3.27,25.3h-3V302.65h3Z"/><path d="M260.38,322.56V309.68a5.19,5.19,0,0,0-1.11-3.63,4.52,4.52,0,0,0-3.47-1.2,5.72,5.72,0,0,0-4.58,1.69q-1.46,1.68-1.45,5.57v10.45h-3V302.65h2.46l.49,2.72h.14a6.22,6.22,0,0,1,2.6-2.28,8.53,8.53,0,0,1,3.72-.8,7.62,7.62,0,0,1,5.42,1.73q1.82,1.74,1.81,5.55v13Z"/><path d="M286.77,312.58c0,3.25-.82,5.78-2.46,7.61a8.63,8.63,0,0,1-6.77,2.73,9,9,0,0,1-4.74-1.25,8.32,8.32,0,0,1-3.2-3.6,12.54,12.54,0,0,1-1.12-5.49q0-4.86,2.43-7.58a8.61,8.61,0,0,1,6.76-2.71,8.41,8.41,0,0,1,6.64,2.78A10.93,10.93,0,0,1,286.77,312.58Zm-15.17,0a9.44,9.44,0,0,0,1.53,5.82,5.29,5.29,0,0,0,4.48,2,5.36,5.36,0,0,0,4.5-2,9.45,9.45,0,0,0,1.53-5.83,9.24,9.24,0,0,0-1.53-5.76,5.39,5.39,0,0,0-4.53-2,5.31,5.31,0,0,0-4.47,1.94A9.33,9.33,0,0,0,271.6,312.58Z"/><path d="M662.26,315.49a6.51,6.51,0,0,1-2.55,5.47,11,11,0,0,1-6.9,2,17.25,17.25,0,0,1-7.26-1.22v-3a19.65,19.65,0,0,0,7.37,1.49,7.7,7.7,0,0,0,4.65-1.17,3.85,3.85,0,0,0,1.56-3.26,4.18,4.18,0,0,0-.55-2.26,5.1,5.1,0,0,0-1.85-1.62,25.12,25.12,0,0,0-4-1.69,12.71,12.71,0,0,1-5.3-3.15,6.93,6.93,0,0,1-1.59-4.74,5.89,5.89,0,0,1,2.31-4.88,9.59,9.59,0,0,1,6.1-1.82,18.09,18.09,0,0,1,7.28,1.45l-1,2.69a16.44,16.44,0,0,0-6.39-1.38,6.18,6.18,0,0,0-3.83,1.05,3.49,3.49,0,0,0-1.38,2.93,4.58,4.58,0,0,0,.5,2.26,4.83,4.83,0,0,0,1.72,1.62,21.36,21.36,0,0,0,3.7,1.62c2.78,1,4.7,2.06,5.75,3.2A6.31,6.31,0,0,1,662.26,315.49Z"/><path d="M675.64,322.92a9.14,9.14,0,0,1-7-2.69,10.41,10.41,0,0,1-2.56-7.46,11.5,11.5,0,0,1,2.38-7.65,7.85,7.85,0,0,1,6.36-2.83,7.49,7.49,0,0,1,5.92,2.46,9.43,9.43,0,0,1,2.18,6.49v1.91H669.25a7.89,7.89,0,0,0,1.77,5.32,6.13,6.13,0,0,0,4.73,1.82,16,16,0,0,0,6.36-1.35v2.69a16.14,16.14,0,0,1-3,1A16.91,16.91,0,0,1,675.64,322.92Zm-.82-18.11a4.93,4.93,0,0,0-3.82,1.56,7.23,7.23,0,0,0-1.68,4.33h10.41a6.66,6.66,0,0,0-1.27-4.37A4.49,4.49,0,0,0,674.82,304.81Z"/><path d="M704.39,302.65v1.91l-3.68.43a6.58,6.58,0,0,1,.9,1.66A6.31,6.31,0,0,1,702,309a5.89,5.89,0,0,1-2,4.67,8.09,8.09,0,0,1-5.49,1.74,9.81,9.81,0,0,1-1.67-.14,3,3,0,0,0-1.93,2.56,1.32,1.32,0,0,0,.68,1.21,4.86,4.86,0,0,0,2.3.39h3.53a7.85,7.85,0,0,1,5,1.36,4.73,4.73,0,0,1,1.74,4,5.68,5.68,0,0,1-2.65,5q-2.65,1.73-7.74,1.73a10.56,10.56,0,0,1-6-1.45,4.7,4.7,0,0,1-2.12-4.11,4.6,4.6,0,0,1,1.17-3.14A6,6,0,0,1,690,321a3.19,3.19,0,0,1-1.28-1.07,2.84,2.84,0,0,1-.51-1.69,3.17,3.17,0,0,1,.58-1.9,6,6,0,0,1,1.83-1.58,5.36,5.36,0,0,1-2.51-2.17,6.31,6.31,0,0,1-1-3.48,6.43,6.43,0,0,1,2-5,8,8,0,0,1,5.55-1.77,10.21,10.21,0,0,1,2.82.36ZM688.52,325.9a2.7,2.7,0,0,0,1.36,2.45,7.5,7.5,0,0,0,3.91.84,10.86,10.86,0,0,0,5.62-1.14,3.48,3.48,0,0,0,1.82-3.08,2.42,2.42,0,0,0-1-2.24,7.71,7.71,0,0,0-3.76-.63h-3.61a4.8,4.8,0,0,0-3.2,1A3.52,3.52,0,0,0,688.52,325.9ZM690.15,309a4.1,4.1,0,0,0,1.18,3.17,4.75,4.75,0,0,0,3.29,1.07c2.94,0,4.42-1.43,4.42-4.29s-1.49-4.49-4.47-4.49a4.43,4.43,0,0,0-3.27,1.15A4.6,4.6,0,0,0,690.15,309Z"/><path d="M711.31,302.65v12.91a5.2,5.2,0,0,0,1.11,3.64,4.56,4.56,0,0,0,3.47,1.2,5.67,5.67,0,0,0,4.57-1.71q1.44-1.71,1.44-5.58V302.65h3v19.91h-2.49l-.44-2.67h-.16a6.05,6.05,0,0,1-2.57,2.25,8.67,8.67,0,0,1-3.75.78c-2.42,0-4.24-.57-5.44-1.73s-1.81-3-1.81-5.52v-13Z"/><path d="M744.93,322.56V309.68a5.19,5.19,0,0,0-1.11-3.63,4.49,4.49,0,0,0-3.47-1.2,5.7,5.7,0,0,0-4.57,1.69q-1.46,1.68-1.46,5.57v10.45h-3V302.65h2.45l.49,2.72h.15a6.13,6.13,0,0,1,2.59-2.28,8.6,8.6,0,0,1,3.73-.8,7.58,7.58,0,0,1,5.41,1.73q1.82,1.74,1.82,5.55v13Z"/><path d="M767.69,319.89h-.16a7.1,7.1,0,0,1-6.25,3,7.4,7.4,0,0,1-6.08-2.67c-1.44-1.78-2.17-4.31-2.17-7.59s.73-5.83,2.18-7.65a7.33,7.33,0,0,1,6.07-2.72,7.24,7.24,0,0,1,6.21,2.94h.24l-.13-1.44-.07-1.39v-8.1h3v28.26h-2.45Zm-6,.51a5.5,5.5,0,0,0,4.48-1.69c.92-1.11,1.39-2.92,1.39-5.42v-.63c0-2.82-.47-4.84-1.41-6a5.34,5.34,0,0,0-4.5-1.81,4.62,4.62,0,0,0-4.06,2.06,10.34,10.34,0,0,0-1.4,5.82,9.83,9.83,0,0,0,1.39,5.76A4.74,4.74,0,0,0,761.66,320.4Z"/><path d="M794.12,312.58c0,3.25-.82,5.78-2.46,7.61a8.63,8.63,0,0,1-6.77,2.73,9,9,0,0,1-4.74-1.25,8.32,8.32,0,0,1-3.2-3.6,12.54,12.54,0,0,1-1.12-5.49q0-4.86,2.43-7.58a8.6,8.6,0,0,1,6.76-2.71,8.39,8.39,0,0,1,6.63,2.78A10.88,10.88,0,0,1,794.12,312.58Zm-15.17,0a9.44,9.44,0,0,0,1.53,5.82,5.29,5.29,0,0,0,4.48,2,5.36,5.36,0,0,0,4.5-2,9.45,9.45,0,0,0,1.53-5.83,9.24,9.24,0,0,0-1.53-5.76,5.39,5.39,0,0,0-4.53-2,5.31,5.31,0,0,0-4.47,1.94A9.33,9.33,0,0,0,779,312.58Z"/><path d="M815.49,320.43a9.74,9.74,0,0,0,1.55-.12,12,12,0,0,0,1.18-.24v2.3a5.68,5.68,0,0,1-1.45.4,11,11,0,0,1-1.71.15q-5.77,0-5.78-6.08V305h-2.85v-1.45l2.85-1.25,1.27-4.25h1.75v4.61h5.77V305H812.3v11.72a4,4,0,0,0,.85,2.76A3,3,0,0,0,815.49,320.43Z"/><path d="M830.6,322.92a9.14,9.14,0,0,1-7-2.69,10.4,10.4,0,0,1-2.55-7.46,11.55,11.55,0,0,1,2.37-7.65,7.86,7.86,0,0,1,6.36-2.83,7.49,7.49,0,0,1,5.92,2.46,9.39,9.39,0,0,1,2.18,6.49v1.91H824.21a7.89,7.89,0,0,0,1.77,5.32,6.13,6.13,0,0,0,4.73,1.82,16,16,0,0,0,6.36-1.35v2.69a16.06,16.06,0,0,1-3,1A17,17,0,0,1,830.6,322.92Zm-.81-18.11a4.94,4.94,0,0,0-3.83,1.56,7.23,7.23,0,0,0-1.68,4.33h10.41a6.6,6.6,0,0,0-1.27-4.37A4.48,4.48,0,0,0,829.79,304.81Zm-2.24-5.25c.58-.75,1.21-1.66,1.88-2.72s1.2-2,1.59-2.78h3.67v.38a26.62,26.62,0,0,1-2.38,2.91,27.26,27.26,0,0,1-2.74,2.67h-2Z"/><path d="M852.14,302.29a12.18,12.18,0,0,1,2.38.21l-.41,2.8a10.41,10.41,0,0,0-2.18-.27,5.32,5.32,0,0,0-4.14,2,7.18,7.18,0,0,0-1.71,4.89v10.68h-3V302.65h2.49l.35,3.69H846a8.73,8.73,0,0,1,2.67-3A6,6,0,0,1,852.14,302.29Z"/><path d="M883.62,322.56V309.61a5.36,5.36,0,0,0-1-3.57,3.91,3.91,0,0,0-3.16-1.19,5.14,5.14,0,0,0-4.16,1.61,7.73,7.73,0,0,0-1.34,5v11.12h-3V309.61a5.36,5.36,0,0,0-1-3.57,3.94,3.94,0,0,0-3.18-1.19,4.9,4.9,0,0,0-4.15,1.7q-1.32,1.69-1.32,5.56v10.45h-3V302.65h2.45l.49,2.72h.14a6.07,6.07,0,0,1,2.41-2.27,7.44,7.44,0,0,1,3.48-.81c3.11,0,5.15,1.12,6.1,3.38h.15a6.3,6.3,0,0,1,2.58-2.48,8,8,0,0,1,3.85-.9A6.73,6.73,0,0,1,885,304c1.12,1.16,1.69,3,1.69,5.55v13Z"/><path d="M892.59,297.26a2,2,0,0,1,.51-1.52,1.89,1.89,0,0,1,2.53,0,2.45,2.45,0,0,1,0,3,1.79,1.79,0,0,1-1.26.5,1.75,1.75,0,0,1-1.27-.5A2,2,0,0,1,892.59,297.26Zm3.27,25.3h-3V302.65h3Z"/><path d="M915.88,322.56V309.68a5.19,5.19,0,0,0-1.11-3.63,4.52,4.52,0,0,0-3.47-1.2,5.72,5.72,0,0,0-4.58,1.69q-1.46,1.68-1.45,5.57v10.45h-3V302.65h2.46l.49,2.72h.14a6.22,6.22,0,0,1,2.6-2.28,8.53,8.53,0,0,1,3.72-.8,7.62,7.62,0,0,1,5.42,1.73q1.81,1.74,1.81,5.55v13Z"/><path d="M942.27,312.58c0,3.25-.82,5.78-2.46,7.61a8.63,8.63,0,0,1-6.77,2.73,9,9,0,0,1-4.74-1.25,8.32,8.32,0,0,1-3.2-3.6,12.54,12.54,0,0,1-1.12-5.49q0-4.86,2.43-7.58a8.61,8.61,0,0,1,6.76-2.71,8.42,8.42,0,0,1,6.64,2.78A10.93,10.93,0,0,1,942.27,312.58Zm-15.17,0a9.44,9.44,0,0,0,1.53,5.82,5.29,5.29,0,0,0,4.48,2,5.36,5.36,0,0,0,4.5-2,9.45,9.45,0,0,0,1.53-5.83,9.24,9.24,0,0,0-1.53-5.76,5.39,5.39,0,0,0-4.53-2,5.31,5.31,0,0,0-4.47,1.94A9.33,9.33,0,0,0,927.1,312.58Z"/><path d="M1463.5,322.56h-3.08V298.75H1452V296h19.9v2.75h-8.41Z"/><path d="M1483.86,322.92a9.14,9.14,0,0,1-7-2.69,10.4,10.4,0,0,1-2.55-7.46,11.55,11.55,0,0,1,2.37-7.65,7.86,7.86,0,0,1,6.36-2.83,7.49,7.49,0,0,1,5.92,2.46,9.39,9.39,0,0,1,2.18,6.49v1.91h-13.71a7.89,7.89,0,0,0,1.77,5.32,6.13,6.13,0,0,0,4.73,1.82,16,16,0,0,0,6.36-1.35v2.69a15.91,15.91,0,0,1-3,1A16.91,16.91,0,0,1,1483.86,322.92Zm-.81-18.11a4.94,4.94,0,0,0-3.83,1.56,7.23,7.23,0,0,0-1.68,4.33H1488a6.6,6.6,0,0,0-1.27-4.37A4.48,4.48,0,0,0,1483.05,304.81Z"/><path d="M1505.4,302.29a12.18,12.18,0,0,1,2.38.21l-.41,2.8a10.41,10.41,0,0,0-2.18-.27,5.32,5.32,0,0,0-4.14,2,7.18,7.18,0,0,0-1.71,4.89v10.68h-3V302.65h2.49l.35,3.69h.14a8.73,8.73,0,0,1,2.67-3A6,6,0,0,1,1505.4,302.29Z"/><path d="M1519.46,322.92a8.5,8.5,0,0,1-6.69-2.66c-1.58-1.78-2.37-4.28-2.37-7.53s.8-5.9,2.41-7.72a8.63,8.63,0,0,1,6.85-2.72,13.34,13.34,0,0,1,2.87.31,9,9,0,0,1,2.25.72l-.92,2.56a16,16,0,0,0-2.18-.66,9.5,9.5,0,0,0-2.09-.26q-6.08,0-6.07,7.73a9.23,9.23,0,0,0,1.48,5.63,5.16,5.16,0,0,0,4.39,2,13.29,13.29,0,0,0,5.1-1.08v2.67A10.87,10.87,0,0,1,1519.46,322.92Z"/><path d="M1537.62,322.92a9.14,9.14,0,0,1-7-2.69,10.4,10.4,0,0,1-2.55-7.46,11.55,11.55,0,0,1,2.37-7.65,7.86,7.86,0,0,1,6.36-2.83,7.49,7.49,0,0,1,5.92,2.46,9.39,9.39,0,0,1,2.18,6.49v1.91h-13.71a7.89,7.89,0,0,0,1.77,5.32,6.13,6.13,0,0,0,4.73,1.82,16,16,0,0,0,6.36-1.35v2.69a16.06,16.06,0,0,1-3,1A17,17,0,0,1,1537.62,322.92Zm-.81-18.11a4.94,4.94,0,0,0-3.83,1.56,7.23,7.23,0,0,0-1.68,4.33h10.41a6.6,6.6,0,0,0-1.27-4.37A4.48,4.48,0,0,0,1536.81,304.81Z"/><path d="M1559.16,302.29a12.18,12.18,0,0,1,2.38.21l-.41,2.8A10.41,10.41,0,0,0,1559,305a5.32,5.32,0,0,0-4.14,2,7.18,7.18,0,0,0-1.71,4.89v10.68h-3V302.65h2.49l.35,3.69h.14a8.73,8.73,0,0,1,2.67-3A6,6,0,0,1,1559.16,302.29Z"/><path d="M1581.36,320.43a9.61,9.61,0,0,0,1.54-.12,11.37,11.37,0,0,0,1.18-.24v2.3a5.47,5.47,0,0,1-1.44.4,11.23,11.23,0,0,1-1.72.15q-5.78,0-5.77-6.08V305h-2.85v-1.45l2.85-1.25,1.27-4.25h1.74v4.61h5.78V305h-5.78v11.72a4,4,0,0,0,.86,2.76A3,3,0,0,0,1581.36,320.43Z"/><path d="M1596.47,322.92a9.14,9.14,0,0,1-7-2.69,10.36,10.36,0,0,1-2.56-7.46,11.55,11.55,0,0,1,2.37-7.65,7.88,7.88,0,0,1,6.37-2.83,7.51,7.51,0,0,1,5.92,2.46,9.43,9.43,0,0,1,2.18,6.49v1.91h-13.71a7.89,7.89,0,0,0,1.77,5.32,6.13,6.13,0,0,0,4.73,1.82,16,16,0,0,0,6.36-1.35v2.69a16.14,16.14,0,0,1-3,1A17,17,0,0,1,1596.47,322.92Zm-.82-18.11a4.92,4.92,0,0,0-3.82,1.56,7.23,7.23,0,0,0-1.68,4.33h10.41a6.66,6.66,0,0,0-1.27-4.37A4.49,4.49,0,0,0,1595.65,304.81Zm-2.23-5.25c.58-.75,1.21-1.66,1.88-2.72s1.2-2,1.59-2.78h3.67v.38a27.86,27.86,0,0,1-2.38,2.91,28.37,28.37,0,0,1-2.74,2.67h-2Z"/><path d="M1618,302.29a12.25,12.25,0,0,1,2.38.21l-.42,2.8a10.33,10.33,0,0,0-2.18-.27,5.3,5.3,0,0,0-4.13,2,7.19,7.19,0,0,0-1.72,4.89v10.68h-3V302.65h2.49l.34,3.69h.15a8.73,8.73,0,0,1,2.67-3A6,6,0,0,1,1618,302.29Z"/><path d="M1649.49,322.56V309.61a5.36,5.36,0,0,0-1-3.57,3.91,3.91,0,0,0-3.16-1.19,5.13,5.13,0,0,0-4.16,1.61,7.67,7.67,0,0,0-1.34,5v11.12h-3V309.61a5.36,5.36,0,0,0-1-3.57,3.91,3.91,0,0,0-3.17-1.19,4.89,4.89,0,0,0-4.15,1.7q-1.32,1.69-1.32,5.56v10.45h-3V302.65h2.46l.49,2.72h.14a6,6,0,0,1,2.41-2.27,7.38,7.38,0,0,1,3.48-.81c3.11,0,5.14,1.12,6.1,3.38h.14a6.43,6.43,0,0,1,2.58-2.48,8.07,8.07,0,0,1,3.85-.9,6.76,6.76,0,0,1,5.06,1.73q1.68,1.74,1.68,5.55v13Z"/><path d="M1658.46,297.26a2,2,0,0,1,.51-1.52,1.88,1.88,0,0,1,2.52,0,2.42,2.42,0,0,1,0,3,1.77,1.77,0,0,1-1.25.5,1.75,1.75,0,0,1-1.27-.5A2,2,0,0,1,1658.46,297.26Zm3.27,25.3h-3V302.65h3Z"/><path d="M1681.74,322.56V309.68a5.24,5.24,0,0,0-1.1-3.63,4.52,4.52,0,0,0-3.47-1.2,5.71,5.71,0,0,0-4.58,1.69q-1.46,1.68-1.45,5.57v10.45h-3V302.65h2.45l.49,2.72h.15a6.16,6.16,0,0,1,2.6-2.28,8.53,8.53,0,0,1,3.72-.8,7.58,7.58,0,0,1,5.41,1.73q1.82,1.74,1.82,5.55v13Z"/><path d="M1708.13,312.58c0,3.25-.81,5.78-2.45,7.61a8.63,8.63,0,0,1-6.77,2.73,9,9,0,0,1-4.74-1.25,8.32,8.32,0,0,1-3.2-3.6,12.54,12.54,0,0,1-1.13-5.49q0-4.86,2.44-7.58a8.59,8.59,0,0,1,6.75-2.71,8.39,8.39,0,0,1,6.64,2.78A10.93,10.93,0,0,1,1708.13,312.58Zm-15.16,0a9.5,9.5,0,0,0,1.52,5.82,6.05,6.05,0,0,0,9,0,9.38,9.38,0,0,0,1.54-5.83,9.18,9.18,0,0,0-1.54-5.76,6.16,6.16,0,0,0-9,0A9.4,9.4,0,0,0,1693,312.58Z"/></svg>