<svg id="Layer_1" data-name="Layer 1" xmlns="http://www.w3.org/2000/svg" viewBox="0 0 2065.37 372.52"><defs><style>.cls-1{fill:#d32a2a;}.cls-2{fill:#ffe2a1;}.cls-3{fill:#3a68ad;}</style></defs><title>Fosforos_U03_03_03</title><rect class="cls-1" x="2048.34" width="13.75" height="237.11" transform="translate(4110.44 237.11) rotate(180)"/><path class="cls-1" d="M2048.34,204.15h13.75l3.28,55.78a10.15,10.15,0,0,1-10.15,10.15h0a10.14,10.14,0,0,1-10.15-10.15Z"/><rect class="cls-1" x="1906.97" y="-108.41" width="13.75" height="237.11" transform="translate(1923.99 -1903.7) rotate(90)"/><path class="cls-1" d="M1999.44,17V3.27L2055.22,0a10.15,10.15,0,0,1,10.15,10.15h0a10.16,10.16,0,0,1-10.15,10.15Z"/><rect class="cls-1" x="1795.29" y="32.97" width="13.75" height="237.11"/><path class="cls-1" d="M1809,65.93h-13.75L1792,10.15A10.15,10.15,0,0,1,1802.16,0h0a10.14,10.14,0,0,1,10.15,10.15Z"/><rect class="cls-2" x="1653.91" y="144.65" width="13.75" height="237.11" transform="translate(1923.99 -1397.59) rotate(90)"/><path class="cls-3" d="M1746.38,270.08V256.33l55.78-3.27a10.14,10.14,0,0,1,10.15,10.14h0a10.14,10.14,0,0,1-10.15,10.15Z"/><rect class="cls-2" x="1535.36" y="0.02" width="13.75" height="237.11" transform="translate(3084.47 237.15) rotate(180)"/><path class="cls-3" d="M1535.36,204.17h13.75l3.27,55.78a10.15,10.15,0,0,1-10.15,10.15h0A10.16,10.16,0,0,1,1532.08,260Z"/><rect class="cls-2" x="1393.98" y="-108.41" width="13.75" height="237.11" transform="translate(1411.01 -1390.71) rotate(90)"/><path class="cls-3" d="M1486.45,17V3.27L1542.23,0a10.14,10.14,0,0,1,10.15,10.15h0a10.15,10.15,0,0,1-10.15,10.15Z"/><rect class="cls-2" x="1282.3" y="32.97" width="13.75" height="237.11"/><path class="cls-3" d="M1296.05,65.93H1282.3L1279,10.15A10.14,10.14,0,0,1,1289.18,0h0a10.15,10.15,0,0,1,10.15,10.15Z"/><rect class="cls-2" x="1140.93" y="144.65" width="13.75" height="237.11" transform="translate(1411.01 -884.6) rotate(90)"/><path class="cls-3" d="M1233.39,270.08V256.33l55.79-3.27a10.15,10.15,0,0,1,10.15,10.14h0a10.15,10.15,0,0,1-10.15,10.15Z"/><rect class="cls-2" x="1022.37" width="13.75" height="237.11" transform="translate(2058.49 237.11) rotate(180)"/><path class="cls-3" d="M1022.37,204.15h13.75l3.27,55.78a10.14,10.14,0,0,1-10.14,10.15h0a10.14,10.14,0,0,1-10.15-10.15Z"/><rect class="cls-2" x="881" y="-108.41" width="13.75" height="237.11" transform="translate(898.02 -877.72) rotate(90)"/><path class="cls-3" d="M973.46,17V3.27L1029.25,0a10.14,10.14,0,0,1,10.14,10.15h0a10.15,10.15,0,0,1-10.14,10.15Z"/><rect class="cls-2" x="769.32" y="32.97" width="13.75" height="237.11"/><path class="cls-3" d="M783.07,65.93H769.32L766,10.15A10.15,10.15,0,0,1,776.19,0h0a10.14,10.14,0,0,1,10.15,10.15Z"/><rect class="cls-2" x="627.94" y="144.65" width="13.75" height="237.11" transform="translate(898.02 -371.61) rotate(90)"/><path class="cls-3" d="M720.41,270.08V256.33l55.78-3.27a10.14,10.14,0,0,1,10.15,10.14h0a10.14,10.14,0,0,1-10.15,10.15Z"/><rect class="cls-2" x="3.27" y="32.97" width="13.75" height="237.11"/><path class="cls-3" d="M17,65.93H3.27L0,10.15A10.14,10.14,0,0,1,10.15,0h0A10.15,10.15,0,0,1,20.3,10.15Z"/><rect class="cls-2" x="509.39" y="0.02" width="13.75" height="237.11" transform="translate(1032.52 237.15) rotate(180)"/><path class="cls-3" d="M509.39,204.17h13.74L526.41,260a10.16,10.16,0,0,1-10.15,10.15h0A10.16,10.16,0,0,1,506.11,260Z"/><rect class="cls-2" x="368.01" y="-108.41" width="13.75" height="237.11" transform="translate(385.03 -364.74) rotate(90)"/><path class="cls-3" d="M460.48,17V3.27L516.26,0a10.15,10.15,0,0,1,10.15,10.15h0A10.16,10.16,0,0,1,516.26,20.3Z"/><rect class="cls-2" x="256.33" y="32.97" width="13.75" height="237.11"/><path class="cls-3" d="M270.08,65.93H256.33l-3.27-55.78A10.14,10.14,0,0,1,263.2,0h0a10.14,10.14,0,0,1,10.15,10.15Z"/><rect class="cls-2" x="114.96" y="144.65" width="13.75" height="237.11" transform="translate(385.03 141.37) rotate(90)"/><path class="cls-3" d="M207.42,270.08V256.33l55.78-3.27a10.14,10.14,0,0,1,10.15,10.14h0a10.14,10.14,0,0,1-10.15,10.15Z"/><path d="M961.75,319h-3.09V295.14h-8.4V292.4h19.9v2.74h-8.41Z"/><path d="M982.11,319.31a9.11,9.11,0,0,1-7-2.69,10.4,10.4,0,0,1-2.55-7.46,11.55,11.55,0,0,1,2.37-7.65,7.85,7.85,0,0,1,6.36-2.83,7.49,7.49,0,0,1,5.92,2.46,9.45,9.45,0,0,1,2.18,6.49v1.91H975.72a7.88,7.88,0,0,0,1.77,5.32,6.13,6.13,0,0,0,4.73,1.82,16,16,0,0,0,6.36-1.35V318a16.14,16.14,0,0,1-3,1A16.91,16.91,0,0,1,982.11,319.31Zm-.82-18.11a4.94,4.94,0,0,0-3.82,1.57,7.2,7.2,0,0,0-1.68,4.32H986.2a6.62,6.62,0,0,0-1.27-4.37A4.49,4.49,0,0,0,981.29,301.2Z"/><path d="M1003.65,298.68a11.41,11.41,0,0,1,2.38.22l-.42,2.79a10.32,10.32,0,0,0-2.17-.27,5.34,5.34,0,0,0-4.14,2,7.18,7.18,0,0,0-1.71,4.89V319h-3V299h2.49l.35,3.69h.14a8.82,8.82,0,0,1,2.67-3A6,6,0,0,1,1003.65,298.68Z"/><path d="M1017.71,319.31a8.5,8.5,0,0,1-6.69-2.66q-2.37-2.65-2.37-7.53t2.4-7.72a8.69,8.69,0,0,1,6.86-2.72,13.34,13.34,0,0,1,2.87.31,9.46,9.46,0,0,1,2.25.72l-.92,2.57a14.66,14.66,0,0,0-2.18-.67,10.15,10.15,0,0,0-2.09-.26q-6.08,0-6.07,7.74a9.27,9.27,0,0,0,1.48,5.63,5.18,5.18,0,0,0,4.39,2,13.46,13.46,0,0,0,5.1-1.07v2.67A10.88,10.88,0,0,1,1017.71,319.31Z"/><path d="M1035.87,319.31a9.11,9.11,0,0,1-7-2.69,10.4,10.4,0,0,1-2.55-7.46,11.55,11.55,0,0,1,2.37-7.65,7.86,7.86,0,0,1,6.36-2.83,7.49,7.49,0,0,1,5.92,2.46,9.4,9.4,0,0,1,2.18,6.49v1.91h-13.71a7.88,7.88,0,0,0,1.77,5.32,6.13,6.13,0,0,0,4.73,1.82,16,16,0,0,0,6.36-1.35V318a15.91,15.91,0,0,1-3,1A16.91,16.91,0,0,1,1035.87,319.31Zm-.81-18.11a5,5,0,0,0-3.83,1.57,7.2,7.2,0,0,0-1.68,4.32H1040a6.62,6.62,0,0,0-1.27-4.37A4.48,4.48,0,0,0,1035.06,301.2Z"/><path d="M1057.41,298.68a11.41,11.41,0,0,1,2.38.22l-.41,2.79a10.41,10.41,0,0,0-2.18-.27,5.35,5.35,0,0,0-4.14,2,7.18,7.18,0,0,0-1.71,4.89V319h-3V299h2.49l.35,3.69h.14a8.82,8.82,0,0,1,2.67-3A6,6,0,0,1,1057.41,298.68Z"/><path d="M1079.61,316.82a10.94,10.94,0,0,0,1.54-.11,9,9,0,0,0,1.18-.25v2.31a5.64,5.64,0,0,1-1.44.39,11.23,11.23,0,0,1-1.72.15q-5.78,0-5.77-6.08V301.39h-2.85v-1.46l2.85-1.25,1.27-4.25h1.74V299h5.78v2.35h-5.78V313.1a4.07,4.07,0,0,0,.85,2.76A3,3,0,0,0,1079.61,316.82Z"/><path d="M1094.72,319.31a9.15,9.15,0,0,1-7-2.69,10.4,10.4,0,0,1-2.55-7.46,11.55,11.55,0,0,1,2.37-7.65,7.87,7.87,0,0,1,6.37-2.83,7.51,7.51,0,0,1,5.92,2.46,9.45,9.45,0,0,1,2.18,6.49v1.91h-13.71a7.88,7.88,0,0,0,1.77,5.32,6.12,6.12,0,0,0,4.73,1.82,16,16,0,0,0,6.36-1.35V318a16.14,16.14,0,0,1-3,1A17,17,0,0,1,1094.72,319.31Zm-.82-18.11a4.92,4.92,0,0,0-3.82,1.57,7.2,7.2,0,0,0-1.68,4.32h10.41a6.62,6.62,0,0,0-1.28-4.37A4.46,4.46,0,0,0,1093.9,301.2Zm-2.23-5.24c.58-.76,1.21-1.66,1.88-2.73a31.14,31.14,0,0,0,1.59-2.78h3.67v.38a27.86,27.86,0,0,1-2.38,2.91,27.21,27.21,0,0,1-2.75,2.67h-2Z"/><path d="M1116.26,298.68a11.48,11.48,0,0,1,2.38.22l-.42,2.79a10.33,10.33,0,0,0-2.18-.27,5.32,5.32,0,0,0-4.13,2,7.19,7.19,0,0,0-1.72,4.89V319h-3V299h2.49l.34,3.69h.15a8.82,8.82,0,0,1,2.67-3A6,6,0,0,1,1116.26,298.68Z"/><path d="M1147.74,319V306a5.36,5.36,0,0,0-1-3.57,3.94,3.94,0,0,0-3.16-1.19,5.1,5.1,0,0,0-4.16,1.62,7.64,7.64,0,0,0-1.34,5V319h-3V306a5.36,5.36,0,0,0-1-3.57,4,4,0,0,0-3.17-1.19,5,5,0,0,0-4.16,1.7q-1.31,1.69-1.31,5.57V319h-3V299h2.46l.49,2.73h.14a5.87,5.87,0,0,1,2.41-2.27,7.27,7.27,0,0,1,3.48-.82q4.67,0,6.1,3.38h.14a6.4,6.4,0,0,1,2.58-2.47,8,8,0,0,1,3.85-.91,6.77,6.77,0,0,1,5.06,1.73q1.68,1.74,1.68,5.55v13Z"/><path d="M1156.71,293.65a2,2,0,0,1,.51-1.52,1.88,1.88,0,0,1,2.52,0,2,2,0,0,1,.53,1.51,2,2,0,0,1-.53,1.52,1.76,1.76,0,0,1-1.25.49,1.73,1.73,0,0,1-1.27-.49A2.05,2.05,0,0,1,1156.71,293.65ZM1160,319h-3V299h3Z"/><path d="M1180,319V306.07a5.19,5.19,0,0,0-1.11-3.63,4.49,4.49,0,0,0-3.47-1.2,5.7,5.7,0,0,0-4.57,1.69c-1,1.13-1.46,3-1.46,5.58V319h-3V299h2.45l.49,2.73h.15a6.16,6.16,0,0,1,2.6-2.28,8.39,8.39,0,0,1,3.72-.81,7.58,7.58,0,0,1,5.41,1.73q1.82,1.74,1.82,5.55v13Z"/><path d="M1206.38,309c0,3.24-.82,5.78-2.45,7.6a8.63,8.63,0,0,1-6.77,2.73,9.08,9.08,0,0,1-4.75-1.25,8.3,8.3,0,0,1-3.19-3.6,12.53,12.53,0,0,1-1.13-5.48q0-4.87,2.44-7.58a8.6,8.6,0,0,1,6.75-2.72,8.43,8.43,0,0,1,6.64,2.78A10.93,10.93,0,0,1,1206.38,309Zm-15.16,0a9.49,9.49,0,0,0,1.52,5.81,6.05,6.05,0,0,0,9,0,9.37,9.37,0,0,0,1.54-5.82,9.23,9.23,0,0,0-1.54-5.77,5.39,5.39,0,0,0-4.53-2,5.33,5.33,0,0,0-4.47,1.94A9.41,9.41,0,0,0,1191.22,309Z"/><path d="M956.52,361.46a9.83,9.83,0,0,0,1.55-.12c.49-.08.88-.16,1.18-.24v2.3a5.35,5.35,0,0,1-1.45.39,10.07,10.07,0,0,1-1.71.16c-3.86,0-5.78-2-5.78-6.09V346h-2.85v-1.45l2.85-1.25,1.27-4.25h1.74v4.61h5.78V346h-5.78v11.72a4,4,0,0,0,.86,2.76A3,3,0,0,0,956.52,361.46Z"/><path d="M963,338.28a2,2,0,0,1,.51-1.51,1.88,1.88,0,0,1,2.52,0,2,2,0,0,1,.53,1.5,2,2,0,0,1-.53,1.52,1.77,1.77,0,0,1-1.25.5,1.75,1.75,0,0,1-1.27-.5A2,2,0,0,1,963,338.28Zm3.27,25.3h-3v-19.9h3Z"/><path d="M981,364a9.18,9.18,0,0,1-7-2.69,10.4,10.4,0,0,1-2.55-7.46,11.55,11.55,0,0,1,2.37-7.65,7.88,7.88,0,0,1,6.37-2.83,7.51,7.51,0,0,1,5.92,2.46,9.43,9.43,0,0,1,2.18,6.49v1.91H974.65a7.89,7.89,0,0,0,1.77,5.32,6.13,6.13,0,0,0,4.73,1.81,16,16,0,0,0,6.36-1.34v2.69a16.14,16.14,0,0,1-3,1A17,17,0,0,1,981,364Zm-.82-18.11a4.93,4.93,0,0,0-3.82,1.56,7.2,7.2,0,0,0-1.68,4.32h10.41a6.65,6.65,0,0,0-1.27-4.36A4.49,4.49,0,0,0,980.22,345.84Z"/><path d="M1007.12,363.58V350.71a5.17,5.17,0,0,0-1.11-3.63,4.51,4.51,0,0,0-3.47-1.2,5.7,5.7,0,0,0-4.57,1.69q-1.46,1.68-1.46,5.57v10.44h-3v-19.9H996l.49,2.72h.15a6.1,6.1,0,0,1,2.6-2.28,8.53,8.53,0,0,1,3.72-.8,7.53,7.53,0,0,1,5.41,1.73q1.81,1.74,1.82,5.55v13Z"/><path d="M1024.74,364a9.18,9.18,0,0,1-7-2.69,10.4,10.4,0,0,1-2.55-7.46,11.55,11.55,0,0,1,2.37-7.65,7.88,7.88,0,0,1,6.37-2.83,7.51,7.51,0,0,1,5.92,2.46,9.43,9.43,0,0,1,2.18,6.49v1.91h-13.71a7.89,7.89,0,0,0,1.77,5.32,6.11,6.11,0,0,0,4.73,1.81,16,16,0,0,0,6.36-1.34v2.69a16.14,16.14,0,0,1-3,1A17,17,0,0,1,1024.74,364Zm-.82-18.11a4.92,4.92,0,0,0-3.82,1.56,7.2,7.2,0,0,0-1.68,4.32h10.41a6.59,6.59,0,0,0-1.28-4.36A4.46,4.46,0,0,0,1023.92,345.84Z"/><path d="M1056.65,363.58h-2.94V344.66c0-1.57,0-3.06.14-4.47-.25.26-.53.52-.85.8s-1.76,1.46-4.32,3.54l-1.6-2.07,7-5.43h2.54Z"/><path d="M1070.11,363.58l11-23.77h-14.48V337h17.67v2.42l-10.86,24.13Z"/><path d="M1108.32,364a8.6,8.6,0,0,1-3.55-.72,6.59,6.59,0,0,1-2.69-2.21h-.22a28,28,0,0,1,.22,3.31v8.19h-3V343.68h2.45l.42,2.72h.15a7,7,0,0,1,2.7-2.36,8.29,8.29,0,0,1,3.54-.72,7.35,7.35,0,0,1,6.11,2.7q2.16,2.72,2.16,7.59t-2.19,7.62A7.39,7.39,0,0,1,1108.32,364Zm-.43-18.07a5.34,5.34,0,0,0-4.42,1.69c-.9,1.12-1.37,2.91-1.39,5.37v.67q0,4.2,1.39,6a5.34,5.34,0,0,0,4.49,1.8,4.64,4.64,0,0,0,4-2.09,9.85,9.85,0,0,0,1.46-5.75,9.54,9.54,0,0,0-1.46-5.72A4.81,4.81,0,0,0,1107.89,345.88Z"/><path d="M1134.1,363.58l-.6-2.83h-.15a8.41,8.41,0,0,1-3,2.54,9.09,9.09,0,0,1-3.69.66,6.65,6.65,0,0,1-4.65-1.53,5.58,5.58,0,0,1-1.68-4.34q0-6,9.65-6.32l3.38-.11v-1.23a5.05,5.05,0,0,0-1-3.46,4.13,4.13,0,0,0-3.22-1.12,13.08,13.08,0,0,0-5.63,1.53l-.93-2.31a14.09,14.09,0,0,1,3.22-1.25,13.67,13.67,0,0,1,3.52-.46q3.56,0,5.27,1.58c1.15,1.06,1.72,2.74,1.72,5.07v13.58Zm-6.81-2.12a6.12,6.12,0,0,0,4.42-1.54,5.73,5.73,0,0,0,1.61-4.33V353.8l-3,.12a11,11,0,0,0-5.19,1.12,3.39,3.39,0,0,0-1.58,3.08,3.14,3.14,0,0,0,1,2.49A4.13,4.13,0,0,0,1127.29,361.46Z"/><path d="M1145.56,363.58h-3V335.32h3Z"/><path d="M1151.7,338.28a2,2,0,0,1,.5-1.51,1.79,1.79,0,0,1,1.27-.48,1.77,1.77,0,0,1,1.26.49,2,2,0,0,1,.53,1.5,2,2,0,0,1-.53,1.52,1.85,1.85,0,0,1-2.53,0A2,2,0,0,1,1151.7,338.28Zm3.26,25.3h-3v-19.9h3Z"/><path d="M1167.79,361.46a9.7,9.7,0,0,0,1.54-.12,11.37,11.37,0,0,0,1.18-.24v2.3a5.37,5.37,0,0,1-1.44.39,10.18,10.18,0,0,1-1.72.16q-5.77,0-5.77-6.09V346h-2.86v-1.45l2.86-1.25,1.27-4.25h1.74v4.61h5.78V346h-5.78v11.72a4,4,0,0,0,.85,2.76A3,3,0,0,0,1167.79,361.46Z"/><path d="M1191.67,353.61q0,4.88-2.45,7.6a8.62,8.62,0,0,1-6.78,2.74,9,9,0,0,1-4.74-1.25,8.3,8.3,0,0,1-3.19-3.6,12.54,12.54,0,0,1-1.13-5.49q0-4.86,2.44-7.58a8.59,8.59,0,0,1,6.75-2.71,8.42,8.42,0,0,1,6.64,2.77A11,11,0,0,1,1191.67,353.61Zm-15.17,0a9.46,9.46,0,0,0,1.53,5.82,6.06,6.06,0,0,0,9,0,9.33,9.33,0,0,0,1.54-5.82,9.18,9.18,0,0,0-1.54-5.76,5.37,5.37,0,0,0-4.53-2,5.31,5.31,0,0,0-4.47,1.94A9.4,9.4,0,0,0,1176.5,353.61Z"/><path d="M1209.8,358.15a5,5,0,0,1-2.07,4.29,9.71,9.71,0,0,1-5.82,1.51,12.69,12.69,0,0,1-6.17-1.25v-2.8a15.27,15.27,0,0,0,3.08,1.14,12.74,12.74,0,0,0,3.17.42,7.22,7.22,0,0,0,3.63-.75,2.6,2.6,0,0,0,.26-4.29,15.81,15.81,0,0,0-3.93-1.95,21,21,0,0,1-4-1.81,5.36,5.36,0,0,1-1.74-1.75,4.53,4.53,0,0,1-.58-2.35,4.47,4.47,0,0,1,2-3.84,9.21,9.21,0,0,1,5.43-1.4,15.93,15.93,0,0,1,6.29,1.3l-1.07,2.46a14.33,14.33,0,0,0-5.43-1.24,6.26,6.26,0,0,0-3.24.67,2.1,2.1,0,0,0-1.09,1.85,2.29,2.29,0,0,0,.41,1.37,4.16,4.16,0,0,0,1.32,1.07,29.42,29.42,0,0,0,3.49,1.47,12.89,12.89,0,0,1,4.78,2.6A4.58,4.58,0,0,1,1209.8,358.15Z"/></svg>