<svg id="Layer_1" data-name="Layer 1" xmlns="http://www.w3.org/2000/svg" viewBox="0 0 1944.09 381.92"><defs><style>.cls-1{fill:#d32a2a;}.cls-2{fill:#ffe2a1;}.cls-3{fill:#3a68ad;}</style></defs><title>Fosforos_U02_02</title><rect class="cls-1" x="1785.69" y="144.65" width="13.75" height="237.11" transform="translate(2055.77 -1529.36) rotate(90)"/><path class="cls-1" d="M1878.16,270.08V256.33l55.78-3.27a10.14,10.14,0,0,1,10.15,10.14h0a10.14,10.14,0,0,1-10.15,10.15Z"/><rect class="cls-2" x="1161.03" y="32.97" width="13.75" height="237.11"/><path class="cls-3" d="M1174.77,65.93H1161l-3.28-55.78A10.15,10.15,0,0,1,1167.9,0h0a10.15,10.15,0,0,1,10.15,10.15Z"/><rect class="cls-1" x="1667.14" y="0.02" width="13.75" height="237.11" transform="translate(3348.02 237.15) rotate(180)"/><path class="cls-1" d="M1667.14,204.17h13.75l3.27,55.78A10.15,10.15,0,0,1,1674,270.1h0A10.16,10.16,0,0,1,1663.86,260Z"/><rect class="cls-2" x="1525.76" y="-108.41" width="13.75" height="237.11" transform="translate(1542.79 -1522.49) rotate(90)"/><path class="cls-3" d="M1618.23,17V3.27L1674,0a10.14,10.14,0,0,1,10.15,10.15h0A10.15,10.15,0,0,1,1674,20.3Z"/><rect class="cls-2" x="1414.08" y="32.97" width="13.75" height="237.11"/><path class="cls-3" d="M1427.83,65.93h-13.75l-3.27-55.78A10.14,10.14,0,0,1,1421,0h0a10.14,10.14,0,0,1,10.14,10.15Z"/><rect class="cls-2" x="1272.71" y="144.65" width="13.75" height="237.11" transform="translate(1542.79 -1016.38) rotate(90)"/><path class="cls-3" d="M1365.17,270.08V256.33l55.79-3.27a10.14,10.14,0,0,1,10.14,10.14h0A10.14,10.14,0,0,1,1421,273.35Z"/><rect class="cls-2" x="501.66" y="32.97" width="13.75" height="237.11"/><path class="cls-3" d="M515.41,65.93H501.66l-3.27-55.78A10.14,10.14,0,0,1,508.54,0h0a10.14,10.14,0,0,1,10.14,10.15Z"/><rect class="cls-1" x="866.4" y="-108.41" width="13.75" height="237.11" transform="translate(883.42 -863.13) rotate(90)"/><path class="cls-1" d="M958.87,17V3.27L1014.65,0a10.15,10.15,0,0,1,10.15,10.15h0a10.16,10.16,0,0,1-10.15,10.15Z"/><rect class="cls-1" x="754.72" y="32.97" width="13.75" height="237.11"/><path class="cls-1" d="M768.47,65.93H754.72l-3.28-55.78A10.15,10.15,0,0,1,761.59,0h0a10.14,10.14,0,0,1,10.15,10.15Z"/><rect class="cls-2" x="613.34" y="144.65" width="13.75" height="237.11" transform="translate(883.42 -357.01) rotate(90)"/><path class="cls-3" d="M705.81,270.08V256.33l55.78-3.27a10.14,10.14,0,0,1,10.15,10.14h0a10.14,10.14,0,0,1-10.15,10.15Z"/><rect class="cls-2" x="3.27" y="32.97" width="13.75" height="237.11"/><path class="cls-3" d="M17,65.93H3.27L0,10.15A10.14,10.14,0,0,1,10.15,0h0A10.15,10.15,0,0,1,20.3,10.15Z"/><rect class="cls-2" x="114.96" y="144.65" width="13.75" height="237.11" transform="translate(385.03 141.37) rotate(90)"/><path class="cls-3" d="M207.42,270.08V256.33l55.78-3.27a10.14,10.14,0,0,1,10.15,10.14h0a10.14,10.14,0,0,1-10.15,10.15Z"/><path d="M43.47,307.25a7.43,7.43,0,0,1-2.75,6.2c-1.84,1.45-4.46,2.17-7.88,2.17H29.72v10.45H26.63V299.51h6.88Q43.47,299.51,43.47,307.25ZM29.72,313H32.5q4.09,0,5.94-1.32a4.9,4.9,0,0,0,1.83-4.25,4.59,4.59,0,0,0-1.72-3.93c-1.15-.86-2.95-1.29-5.38-1.29H29.72Z"/><path d="M57.65,305.8A11.41,11.41,0,0,1,60,306l-.42,2.79a10.33,10.33,0,0,0-2.18-.27,5.3,5.3,0,0,0-4.13,2,7.18,7.18,0,0,0-1.71,4.89v10.68h-3V306.16h2.49l.34,3.69h.15a8.73,8.73,0,0,1,2.67-3A6,6,0,0,1,57.65,305.8Z"/><path d="M63.5,300.77a2,2,0,0,1,.51-1.52,1.78,1.78,0,0,1,1.27-.48,1.74,1.74,0,0,1,1.25.49,2.42,2.42,0,0,1,0,3,1.84,1.84,0,0,1-2.52,0A2,2,0,0,1,63.5,300.77Zm3.27,25.3h-3V306.16h3Z"/><path d="M98.54,326.07V313.12a5.36,5.36,0,0,0-1-3.57,3.94,3.94,0,0,0-3.16-1.19A5.1,5.1,0,0,0,90.2,310a7.63,7.63,0,0,0-1.34,5v11.12h-3V313.12a5.36,5.36,0,0,0-1-3.57,3.94,3.94,0,0,0-3.17-1.19,4.92,4.92,0,0,0-4.15,1.7c-.88,1.13-1.32,3-1.32,5.56v10.45h-3V306.16h2.46l.49,2.73h.14a5.87,5.87,0,0,1,2.41-2.27,7.27,7.27,0,0,1,3.48-.82c3.11,0,5.14,1.12,6.1,3.38h.14A6.4,6.4,0,0,1,91,306.71a8,8,0,0,1,3.85-.91,6.77,6.77,0,0,1,5.06,1.73q1.68,1.74,1.68,5.55v13Z"/><path d="M116.17,326.43a9.11,9.11,0,0,1-7-2.69,10.41,10.41,0,0,1-2.56-7.46,11.5,11.5,0,0,1,2.38-7.65,7.85,7.85,0,0,1,6.36-2.83,7.51,7.51,0,0,1,5.92,2.46,9.43,9.43,0,0,1,2.18,6.49v1.91H109.78a7.88,7.88,0,0,0,1.77,5.32,6.13,6.13,0,0,0,4.73,1.82,16,16,0,0,0,6.36-1.35v2.69a16.14,16.14,0,0,1-3,1A16.91,16.91,0,0,1,116.17,326.43Zm-.82-18.11a4.9,4.9,0,0,0-3.82,1.57,7.2,7.2,0,0,0-1.68,4.32h10.41a6.68,6.68,0,0,0-1.27-4.37A4.49,4.49,0,0,0,115.35,308.32Z"/><path d="M137.71,305.8a11.41,11.41,0,0,1,2.38.22l-.42,2.79a10.33,10.33,0,0,0-2.18-.27,5.3,5.3,0,0,0-4.13,2,7.18,7.18,0,0,0-1.71,4.89v10.68h-3V306.16h2.49l.34,3.69h.15a8.73,8.73,0,0,1,2.67-3A6,6,0,0,1,137.71,305.8Z"/><path d="M159.91,323.94a9.7,9.7,0,0,0,1.54-.12,9.22,9.22,0,0,0,1.18-.24v2.31a6.24,6.24,0,0,1-1.44.39,11.23,11.23,0,0,1-1.72.15q-5.78,0-5.77-6.08V308.5h-2.86v-1.45l2.86-1.25,1.27-4.25h1.74v4.61h5.78v2.34h-5.78v11.72a4,4,0,0,0,.85,2.76A3,3,0,0,0,159.91,323.94Z"/><path d="M175,326.43a9.13,9.13,0,0,1-7-2.69,10.4,10.4,0,0,1-2.55-7.46,11.55,11.55,0,0,1,2.37-7.65,7.87,7.87,0,0,1,6.37-2.83,7.51,7.51,0,0,1,5.92,2.46,9.43,9.43,0,0,1,2.18,6.49v1.91H168.62A7.93,7.93,0,0,0,170.4,322a6.12,6.12,0,0,0,4.73,1.82,15.93,15.93,0,0,0,6.35-1.35v2.69a15.83,15.83,0,0,1-3,1A17,17,0,0,1,175,326.43Zm-.82-18.11a4.89,4.89,0,0,0-3.82,1.57,7.2,7.2,0,0,0-1.68,4.32h10.4a6.62,6.62,0,0,0-1.27-4.37A4.47,4.47,0,0,0,174.2,308.32ZM172,303.07c.58-.75,1.2-1.65,1.88-2.72s1.2-2,1.59-2.78h3.66V298a26.34,26.34,0,0,1-2.37,2.91,27.21,27.21,0,0,1-2.75,2.67h-2Z"/><path d="M196.56,305.8a11.48,11.48,0,0,1,2.38.22l-.42,2.79a10.33,10.33,0,0,0-2.18-.27,5.29,5.29,0,0,0-4.13,2,7.14,7.14,0,0,0-1.72,4.89v10.68h-3V306.16H190l.34,3.69h.15a8.53,8.53,0,0,1,2.67-3A6,6,0,0,1,196.56,305.8Z"/><path d="M228,326.07V313.12a5.36,5.36,0,0,0-1-3.57,3.94,3.94,0,0,0-3.16-1.19A5.09,5.09,0,0,0,219.7,310a7.62,7.62,0,0,0-1.35,5v11.12h-3V313.12a5.36,5.36,0,0,0-1-3.57,4,4,0,0,0-3.18-1.19,4.93,4.93,0,0,0-4.15,1.7c-.87,1.13-1.31,3-1.31,5.56v10.45h-3V306.16h2.45l.49,2.73h.15a5.87,5.87,0,0,1,2.41-2.27,7.26,7.26,0,0,1,3.47-.82c3.12,0,5.15,1.12,6.11,3.38h.14a6.28,6.28,0,0,1,2.58-2.47,8,8,0,0,1,3.85-.91,6.77,6.77,0,0,1,5.06,1.73q1.68,1.74,1.68,5.55v13Z"/><path d="M237,300.77a2,2,0,0,1,.51-1.52,1.88,1.88,0,0,1,2.52,0,2.42,2.42,0,0,1,0,3,1.73,1.73,0,0,1-1.25.5,1.7,1.7,0,0,1-1.27-.5A2,2,0,0,1,237,300.77Zm3.27,25.3h-3V306.16h3Z"/><path d="M260.29,326.07V313.19a5.19,5.19,0,0,0-1.11-3.63,4.51,4.51,0,0,0-3.47-1.2,5.7,5.7,0,0,0-4.57,1.69q-1.45,1.68-1.46,5.57v10.45h-3V306.16h2.45l.49,2.73h.15a6.13,6.13,0,0,1,2.59-2.28,8.47,8.47,0,0,1,3.73-.81,7.59,7.59,0,0,1,5.41,1.73q1.81,1.74,1.82,5.55v13Z"/><path d="M286.68,316.1c0,3.24-.82,5.78-2.45,7.6a8.65,8.65,0,0,1-6.78,2.73,9,9,0,0,1-4.74-1.25,8.3,8.3,0,0,1-3.19-3.6,12.53,12.53,0,0,1-1.13-5.48q0-4.87,2.43-7.59a8.63,8.63,0,0,1,6.76-2.71,8.39,8.39,0,0,1,6.64,2.78A10.93,10.93,0,0,1,286.68,316.1Zm-15.16,0a9.43,9.43,0,0,0,1.52,5.81,6.05,6.05,0,0,0,9,0,9.37,9.37,0,0,0,1.54-5.82,9.21,9.21,0,0,0-1.54-5.77,5.39,5.39,0,0,0-4.53-2A5.33,5.33,0,0,0,273,310.3,9.41,9.41,0,0,0,271.52,316.1Z"/><path d="M43.83,368.58a9.61,9.61,0,0,0,1.54-.12c.5-.08.89-.16,1.19-.24v2.3a5.35,5.35,0,0,1-1.45.39,10.09,10.09,0,0,1-1.72.16q-5.78,0-5.77-6.09V353.14H34.77v-1.45l2.85-1.26,1.27-4.25h1.74v4.62h5.78v2.34H40.63v11.72a4.05,4.05,0,0,0,.86,2.76A3,3,0,0,0,43.83,368.58Z"/><path d="M50.28,345.4a2,2,0,0,1,.51-1.51,1.88,1.88,0,0,1,2.52,0,2,2,0,0,1,.53,1.5,2,2,0,0,1-.53,1.52,1.77,1.77,0,0,1-1.25.5,1.75,1.75,0,0,1-1.27-.5A2,2,0,0,1,50.28,345.4Zm3.27,25.3h-3V350.8h3Z"/><path d="M68.35,371.07a9.14,9.14,0,0,1-7-2.69q-2.56-2.69-2.56-7.47a11.54,11.54,0,0,1,2.37-7.64,7.89,7.89,0,0,1,6.37-2.84,7.48,7.48,0,0,1,5.92,2.47,9.43,9.43,0,0,1,2.18,6.49v1.91H62a7.89,7.89,0,0,0,1.77,5.32,6.11,6.11,0,0,0,4.73,1.81,16,16,0,0,0,6.36-1.34v2.69a16.14,16.14,0,0,1-3,1A17,17,0,0,1,68.35,371.07ZM67.53,353a4.92,4.92,0,0,0-3.82,1.56A7.2,7.2,0,0,0,62,358.84H72.44a6.65,6.65,0,0,0-1.27-4.36A4.46,4.46,0,0,0,67.53,353Z"/><path d="M94.43,370.7V357.83a5.2,5.2,0,0,0-1.11-3.64A4.5,4.5,0,0,0,89.85,353a5.73,5.73,0,0,0-4.57,1.68q-1.45,1.69-1.46,5.58V370.7h-3V350.8h2.45l.49,2.72h.15a6.13,6.13,0,0,1,2.59-2.28,8.47,8.47,0,0,1,3.73-.81,7.53,7.53,0,0,1,5.41,1.74c1.21,1.16,1.82,3,1.82,5.55v13Z"/><path d="M112.05,371.07a9.17,9.17,0,0,1-7-2.69q-2.55-2.69-2.55-7.47a11.54,11.54,0,0,1,2.37-7.64,7.87,7.87,0,0,1,6.37-2.84,7.48,7.48,0,0,1,5.92,2.47,9.43,9.43,0,0,1,2.18,6.49v1.91H105.66a7.89,7.89,0,0,0,1.77,5.32,6.11,6.11,0,0,0,4.73,1.81,15.92,15.92,0,0,0,6.35-1.34v2.69a15.83,15.83,0,0,1-3,1A17,17,0,0,1,112.05,371.07ZM111.23,353a4.92,4.92,0,0,0-3.82,1.56,7.2,7.2,0,0,0-1.68,4.32h10.41a6.59,6.59,0,0,0-1.28-4.36A4.43,4.43,0,0,0,111.23,353Z"/><path d="M150.24,370.7H132.79v-2.59l7-7a52.88,52.88,0,0,0,4.22-4.62,12.08,12.08,0,0,0,1.52-2.68A7.72,7.72,0,0,0,146,351a4.46,4.46,0,0,0-1.29-3.37,4.93,4.93,0,0,0-3.58-1.24,9.07,9.07,0,0,0-3.13.54,12.81,12.81,0,0,0-3.3,2l-1.59-2.05a12.25,12.25,0,0,1,8-3.05,8.45,8.45,0,0,1,5.86,1.91,6.6,6.6,0,0,1,2.13,5.15,9.9,9.9,0,0,1-1.42,5,31.5,31.5,0,0,1-5.3,6.25l-5.81,5.68v.15h13.65Z"/><path d="M174.36,371.07a8.63,8.63,0,0,1-3.55-.72,6.59,6.59,0,0,1-2.69-2.21h-.22a28,28,0,0,1,.22,3.31v8.19h-3V350.8h2.45l.42,2.72h.15a7,7,0,0,1,2.7-2.36,8.29,8.29,0,0,1,3.54-.73,7.39,7.39,0,0,1,6.12,2.71q2.15,2.72,2.15,7.59t-2.19,7.62A7.37,7.37,0,0,1,174.36,371.07ZM173.93,353a5.37,5.37,0,0,0-4.42,1.68c-.9,1.13-1.37,2.92-1.39,5.38v.67q0,4.2,1.39,6a5.34,5.34,0,0,0,4.49,1.8,4.64,4.64,0,0,0,4-2.09,9.85,9.85,0,0,0,1.46-5.75A9.51,9.51,0,0,0,178,355,4.8,4.8,0,0,0,173.93,353Z"/><path d="M200.14,370.7l-.6-2.83h-.15a8.26,8.26,0,0,1-3,2.53,8.88,8.88,0,0,1-3.69.67,6.62,6.62,0,0,1-4.64-1.53,5.56,5.56,0,0,1-1.68-4.34q0-6,9.64-6.32l3.38-.11v-1.23a5,5,0,0,0-1-3.46A4.13,4.13,0,0,0,195.2,353a13.2,13.2,0,0,0-5.63,1.52l-.93-2.3a14.78,14.78,0,0,1,3.22-1.26,14.1,14.1,0,0,1,3.52-.45q3.56,0,5.27,1.58t1.72,5.07V370.7Zm-6.81-2.12a6.12,6.12,0,0,0,4.42-1.55,5.7,5.7,0,0,0,1.61-4.32v-1.8l-3,.13a11,11,0,0,0-5.18,1.12,3.36,3.36,0,0,0-1.59,3.08,3.11,3.11,0,0,0,1,2.49A4.15,4.15,0,0,0,193.33,368.58Z"/><path d="M211.6,370.7h-3V342.44h3Z"/><path d="M217.74,345.4a2,2,0,0,1,.5-1.51,1.8,1.8,0,0,1,1.28-.48,1.76,1.76,0,0,1,1.25.49,2,2,0,0,1,.53,1.5,2,2,0,0,1-.53,1.52,1.85,1.85,0,0,1-2.53,0A2.08,2.08,0,0,1,217.74,345.4ZM221,370.7h-3V350.8h3Z"/><path d="M233.83,368.58a9.61,9.61,0,0,0,1.54-.12,11.37,11.37,0,0,0,1.18-.24v2.3a5.26,5.26,0,0,1-1.44.39,10.18,10.18,0,0,1-1.72.16q-5.77,0-5.77-6.09V353.14h-2.86v-1.45l2.86-1.26,1.27-4.25h1.74v4.62h5.78v2.34h-5.78v11.72a4.05,4.05,0,0,0,.86,2.76A3,3,0,0,0,233.83,368.58Z"/><path d="M257.71,360.73q0,4.88-2.45,7.6a8.6,8.6,0,0,1-6.77,2.74,9,9,0,0,1-4.75-1.26,8.22,8.22,0,0,1-3.19-3.59,12.54,12.54,0,0,1-1.13-5.49q0-4.86,2.44-7.58a8.6,8.6,0,0,1,6.75-2.72,8.43,8.43,0,0,1,6.64,2.78A11,11,0,0,1,257.71,360.73Zm-15.16,0a9.41,9.41,0,0,0,1.52,5.81,6.05,6.05,0,0,0,9,0,9.33,9.33,0,0,0,1.54-5.82,9.18,9.18,0,0,0-1.54-5.76,5.37,5.37,0,0,0-4.53-2,5.31,5.31,0,0,0-4.47,1.94A9.38,9.38,0,0,0,242.55,360.73Z"/><path d="M275.84,365.27a5,5,0,0,1-2.07,4.29,9.77,9.77,0,0,1-5.81,1.51,12.61,12.61,0,0,1-6.18-1.26V367a15.27,15.27,0,0,0,3.08,1.14,12.74,12.74,0,0,0,3.17.42,7.22,7.22,0,0,0,3.63-.75,2.5,2.5,0,0,0,1.27-2.3,2.47,2.47,0,0,0-1-2,15.81,15.81,0,0,0-3.93-2,21.63,21.63,0,0,1-3.95-1.81A5.46,5.46,0,0,1,262.3,358a4.62,4.62,0,0,1-.57-2.35,4.47,4.47,0,0,1,2-3.84,9.19,9.19,0,0,1,5.43-1.41,15.93,15.93,0,0,1,6.28,1.31l-1.07,2.45a14.49,14.49,0,0,0-5.43-1.23,6.26,6.26,0,0,0-3.24.67,2.09,2.09,0,0,0-1.08,1.85,2.29,2.29,0,0,0,.4,1.37,4.16,4.16,0,0,0,1.32,1.07,29.42,29.42,0,0,0,3.49,1.47,12.89,12.89,0,0,1,4.78,2.6A4.56,4.56,0,0,1,275.84,365.27Z"/><path d="M644.7,319a6.51,6.51,0,0,1-2.55,5.47,11,11,0,0,1-6.9,2,17.1,17.1,0,0,1-7.26-1.22v-3a19.39,19.39,0,0,0,7.37,1.48,7.7,7.7,0,0,0,4.65-1.17,3.84,3.84,0,0,0,1.56-3.26A4.18,4.18,0,0,0,641,317a5.1,5.1,0,0,0-1.85-1.62,26.12,26.12,0,0,0-3.95-1.69,12.71,12.71,0,0,1-5.3-3.14,7,7,0,0,1-1.59-4.75,5.89,5.89,0,0,1,2.31-4.88,9.59,9.59,0,0,1,6.1-1.82,18,18,0,0,1,7.29,1.46l-1,2.68a16.44,16.44,0,0,0-6.39-1.38,6.2,6.2,0,0,0-3.83,1.06,3.46,3.46,0,0,0-1.38,2.92,4.45,4.45,0,0,0,.51,2.26,4.71,4.71,0,0,0,1.71,1.62,21.36,21.36,0,0,0,3.7,1.62c2.78,1,4.7,2.06,5.75,3.2A6.33,6.33,0,0,1,644.7,319Z"/><path d="M658.08,326.43a9.11,9.11,0,0,1-7-2.69,10.4,10.4,0,0,1-2.55-7.46,11.55,11.55,0,0,1,2.37-7.65,7.86,7.86,0,0,1,6.36-2.83,7.49,7.49,0,0,1,5.92,2.46,9.39,9.39,0,0,1,2.18,6.49v1.91H651.69a7.88,7.88,0,0,0,1.77,5.32,6.13,6.13,0,0,0,4.73,1.82,16,16,0,0,0,6.36-1.35v2.69a16.06,16.06,0,0,1-3,1A17.09,17.09,0,0,1,658.08,326.43Zm-.81-18.11a4.91,4.91,0,0,0-3.83,1.57,7.2,7.2,0,0,0-1.68,4.32h10.41a6.62,6.62,0,0,0-1.27-4.37A4.48,4.48,0,0,0,657.27,308.32Z"/><path d="M686.83,306.16v1.91l-3.68.43a6.51,6.51,0,0,1,1.31,4,5.89,5.89,0,0,1-2,4.67,8.07,8.07,0,0,1-5.49,1.74,8.89,8.89,0,0,1-1.67-.14,3,3,0,0,0-1.92,2.56,1.3,1.3,0,0,0,.67,1.21,4.92,4.92,0,0,0,2.3.39h3.53a7.9,7.9,0,0,1,5,1.36,4.75,4.75,0,0,1,1.73,4,5.65,5.65,0,0,1-2.65,5c-1.77,1.16-4.35,1.73-7.74,1.73a10.56,10.56,0,0,1-6-1.45,4.7,4.7,0,0,1-2.12-4.1,4.62,4.62,0,0,1,1.17-3.15,5.87,5.87,0,0,1,3.27-1.79,3.09,3.09,0,0,1-1.28-1.08,2.77,2.77,0,0,1-.52-1.68,3.18,3.18,0,0,1,.58-1.91,6.14,6.14,0,0,1,1.83-1.58,5.44,5.44,0,0,1-2.51-2.16,6.34,6.34,0,0,1-1-3.49,6.43,6.43,0,0,1,2-5,8,8,0,0,1,5.56-1.77,10.13,10.13,0,0,1,2.81.36ZM671,329.41a2.69,2.69,0,0,0,1.36,2.45,7.5,7.5,0,0,0,3.91.84,10.86,10.86,0,0,0,5.62-1.14,3.45,3.45,0,0,0,1.82-3.08,2.45,2.45,0,0,0-1-2.24,7.74,7.74,0,0,0-3.76-.63H675.3a4.8,4.8,0,0,0-3.2,1A3.53,3.53,0,0,0,671,329.41Zm1.64-16.87a4.05,4.05,0,0,0,1.18,3.16,4.71,4.71,0,0,0,3.28,1.07q4.43,0,4.42-4.29,0-4.49-4.47-4.48a4.43,4.43,0,0,0-3.27,1.14A4.63,4.63,0,0,0,672.6,312.54Z"/><path d="M693.75,306.16v12.92a5.19,5.19,0,0,0,1.11,3.63,4.52,4.52,0,0,0,3.47,1.2,5.66,5.66,0,0,0,4.57-1.71q1.44-1.71,1.44-5.58V306.16h3v19.91h-2.49l-.44-2.67h-.16a6,6,0,0,1-2.57,2.25,8.67,8.67,0,0,1-3.75.78c-2.42,0-4.24-.57-5.44-1.72s-1.81-3-1.81-5.53v-13Z"/><path d="M727.37,326.07V313.19a5.24,5.24,0,0,0-1.1-3.63,4.52,4.52,0,0,0-3.47-1.2,5.71,5.71,0,0,0-4.58,1.69q-1.46,1.68-1.45,5.57v10.45h-3V306.16h2.45l.49,2.73h.15a6.16,6.16,0,0,1,2.6-2.28,8.39,8.39,0,0,1,3.72-.81,7.58,7.58,0,0,1,5.41,1.73q1.81,1.74,1.82,5.55v13Z"/><path d="M750.13,323.4H750a7.1,7.1,0,0,1-6.25,3,7.41,7.41,0,0,1-6.08-2.67c-1.44-1.78-2.17-4.31-2.17-7.59s.73-5.83,2.18-7.65a7.37,7.37,0,0,1,6.07-2.72,7.24,7.24,0,0,1,6.21,2.94h.24l-.13-1.43-.07-1.4v-8.1h3v28.26h-2.45Zm-6,.51a5.5,5.5,0,0,0,4.48-1.68c.92-1.12,1.39-2.93,1.39-5.42v-.64q0-4.23-1.41-6a5.37,5.37,0,0,0-4.5-1.81,4.64,4.64,0,0,0-4.06,2.06,10.36,10.36,0,0,0-1.4,5.83A9.74,9.74,0,0,0,740,322,4.72,4.72,0,0,0,744.1,323.91Z"/><path d="M776.56,316.1c0,3.24-.82,5.78-2.45,7.6a8.66,8.66,0,0,1-6.78,2.73,9,9,0,0,1-4.74-1.25,8.32,8.32,0,0,1-3.2-3.6,12.53,12.53,0,0,1-1.12-5.48q0-4.87,2.43-7.59a8.61,8.61,0,0,1,6.76-2.71,8.41,8.41,0,0,1,6.64,2.78A10.93,10.93,0,0,1,776.56,316.1Zm-15.17,0a9.42,9.42,0,0,0,1.53,5.81,5.29,5.29,0,0,0,4.48,2,5.34,5.34,0,0,0,4.5-2,9.44,9.44,0,0,0,1.53-5.82,9.27,9.27,0,0,0-1.53-5.77,5.41,5.41,0,0,0-4.53-2,5.31,5.31,0,0,0-4.47,1.94Q761.39,312.25,761.39,316.1Z"/><path d="M797.93,323.94a9.74,9.74,0,0,0,1.55-.12,9.6,9.6,0,0,0,1.18-.24v2.31a6.2,6.2,0,0,1-1.45.39,11,11,0,0,1-1.71.15q-5.78,0-5.78-6.08V308.5h-2.85v-1.45l2.85-1.25,1.27-4.25h1.75v4.61h5.77v2.34h-5.77v11.72a4,4,0,0,0,.85,2.76A3,3,0,0,0,797.93,323.94Z"/><path d="M813.05,326.43a9.12,9.12,0,0,1-7-2.69,10.4,10.4,0,0,1-2.55-7.46,11.55,11.55,0,0,1,2.37-7.65,7.86,7.86,0,0,1,6.36-2.83,7.53,7.53,0,0,1,5.93,2.46,9.43,9.43,0,0,1,2.17,6.49v1.91H806.65a7.88,7.88,0,0,0,1.77,5.32,6.13,6.13,0,0,0,4.73,1.82,16,16,0,0,0,6.36-1.35v2.69a15.83,15.83,0,0,1-3,1A17,17,0,0,1,813.05,326.43Zm-.82-18.11a4.89,4.89,0,0,0-3.82,1.57,7.14,7.14,0,0,0-1.69,4.32h10.41a6.62,6.62,0,0,0-1.27-4.37A4.48,4.48,0,0,0,812.23,308.32ZM810,303.07a31.25,31.25,0,0,0,1.88-2.72,28,28,0,0,0,1.59-2.78h3.67V298a25.48,25.48,0,0,1-2.38,2.91,27.26,27.26,0,0,1-2.74,2.67h-2Z"/><path d="M834.59,305.8A11.54,11.54,0,0,1,837,306l-.42,2.79a10.41,10.41,0,0,0-2.18-.27,5.29,5.29,0,0,0-4.13,2,7.14,7.14,0,0,0-1.72,4.89v10.68h-3V306.16H828l.35,3.69h.14a8.73,8.73,0,0,1,2.67-3A6,6,0,0,1,834.59,305.8Z"/><path d="M866.06,326.07V313.12a5.36,5.36,0,0,0-1-3.57,3.93,3.93,0,0,0-3.16-1.19,5.11,5.11,0,0,0-4.16,1.62,7.68,7.68,0,0,0-1.34,5v11.12h-3V313.12a5.36,5.36,0,0,0-1-3.57,4,4,0,0,0-3.18-1.19,4.93,4.93,0,0,0-4.15,1.7c-.88,1.13-1.32,3-1.32,5.56v10.45h-3V306.16h2.45l.49,2.73h.15a5.91,5.91,0,0,1,2.4-2.27,7.32,7.32,0,0,1,3.48-.82c3.11,0,5.15,1.12,6.1,3.38h.15a6.28,6.28,0,0,1,2.58-2.47,7.94,7.94,0,0,1,3.85-.91,6.77,6.77,0,0,1,5.06,1.73q1.68,1.74,1.68,5.55v13Z"/><path d="M875,300.77a2,2,0,0,1,.51-1.52,1.79,1.79,0,0,1,1.27-.48,1.77,1.77,0,0,1,1.26.49,2.45,2.45,0,0,1,0,3,1.85,1.85,0,0,1-2.53,0A2,2,0,0,1,875,300.77Zm3.27,25.3h-3V306.16h3Z"/><path d="M898.32,326.07V313.19a5.19,5.19,0,0,0-1.11-3.63,4.52,4.52,0,0,0-3.47-1.2,5.72,5.72,0,0,0-4.58,1.69c-1,1.12-1.45,3-1.45,5.57v10.45h-3V306.16h2.45l.49,2.73h.14a6.22,6.22,0,0,1,2.6-2.28,8.42,8.42,0,0,1,3.72-.81,7.6,7.6,0,0,1,5.42,1.73q1.82,1.74,1.81,5.55v13Z"/><path d="M924.71,316.1c0,3.24-.82,5.78-2.45,7.6a8.66,8.66,0,0,1-6.78,2.73,9,9,0,0,1-4.74-1.25,8.32,8.32,0,0,1-3.2-3.6,12.53,12.53,0,0,1-1.12-5.48q0-4.87,2.43-7.59a8.61,8.61,0,0,1,6.76-2.71,8.41,8.41,0,0,1,6.64,2.78A10.93,10.93,0,0,1,924.71,316.1Zm-15.17,0a9.42,9.42,0,0,0,1.53,5.81,6.05,6.05,0,0,0,9,0,9.44,9.44,0,0,0,1.53-5.82,9.27,9.27,0,0,0-1.53-5.77,5.39,5.39,0,0,0-4.53-2,5.31,5.31,0,0,0-4.47,1.94Q909.54,312.25,909.54,316.1Z"/><path d="M664.39,368.58a9.7,9.7,0,0,0,1.54-.12,11.37,11.37,0,0,0,1.18-.24v2.3a5.37,5.37,0,0,1-1.44.39,10.18,10.18,0,0,1-1.72.16q-5.78,0-5.78-6.09V353.14h-2.85v-1.45l2.85-1.26,1.28-4.25h1.74v4.62H667v2.34h-5.77v11.72a4.05,4.05,0,0,0,.85,2.76A3,3,0,0,0,664.39,368.58Z"/><path d="M670.83,345.4a2,2,0,0,1,.51-1.51,1.89,1.89,0,0,1,2.53,0,2,2,0,0,1,.52,1.5,2,2,0,0,1-.52,1.52,1.78,1.78,0,0,1-1.26.5,1.75,1.75,0,0,1-1.27-.5A2,2,0,0,1,670.83,345.4Zm3.27,25.3h-3V350.8h3Z"/><path d="M688.91,371.07a9.15,9.15,0,0,1-7-2.69q-2.55-2.69-2.55-7.47a11.54,11.54,0,0,1,2.37-7.64,7.87,7.87,0,0,1,6.36-2.84,7.5,7.5,0,0,1,5.93,2.47,9.43,9.43,0,0,1,2.17,6.49v1.91H682.51a7.89,7.89,0,0,0,1.77,5.32,6.13,6.13,0,0,0,4.73,1.81,15.93,15.93,0,0,0,6.36-1.34v2.69a15.83,15.83,0,0,1-3,1A17,17,0,0,1,688.91,371.07ZM688.09,353a4.94,4.94,0,0,0-3.83,1.56,7.2,7.2,0,0,0-1.68,4.32H693a6.59,6.59,0,0,0-1.27-4.36A4.45,4.45,0,0,0,688.09,353Z"/><path d="M715,370.7V357.83a5.2,5.2,0,0,0-1.11-3.64,4.52,4.52,0,0,0-3.47-1.19,5.75,5.75,0,0,0-4.58,1.68q-1.46,1.69-1.45,5.58V370.7h-3V350.8h2.46l.49,2.72h.14a6.22,6.22,0,0,1,2.6-2.28,8.39,8.39,0,0,1,3.72-.81,7.58,7.58,0,0,1,5.42,1.74c1.21,1.16,1.81,3,1.81,5.55v13Z"/><path d="M732.6,371.07a9.14,9.14,0,0,1-7-2.69q-2.55-2.69-2.55-7.47a11.54,11.54,0,0,1,2.37-7.64,7.87,7.87,0,0,1,6.36-2.84,7.47,7.47,0,0,1,5.92,2.47,9.39,9.39,0,0,1,2.18,6.49v1.91H726.21a7.89,7.89,0,0,0,1.77,5.32,6.13,6.13,0,0,0,4.73,1.81,16,16,0,0,0,6.36-1.34v2.69a16.06,16.06,0,0,1-3,1A17,17,0,0,1,732.6,371.07ZM731.79,353a4.94,4.94,0,0,0-3.83,1.56,7.2,7.2,0,0,0-1.68,4.32h10.41a6.59,6.59,0,0,0-1.27-4.36A4.45,4.45,0,0,0,731.79,353Z"/><path d="M772.05,364.6h-3.94v6.1h-2.89v-6.1H752.31V362l12.6-18h3.2v17.85h3.94Zm-6.83-2.74V353c0-1.73.06-3.69.19-5.86h-.15a28.46,28.46,0,0,1-1.63,2.88l-8.3,11.81Z"/><path d="M794.92,371.07a8.56,8.56,0,0,1-3.55-.72,6.68,6.68,0,0,1-2.7-2.21h-.22a26,26,0,0,1,.22,3.31v8.19h-3V350.8h2.45l.42,2.72h.14a7.08,7.08,0,0,1,2.71-2.36,8.29,8.29,0,0,1,3.54-.73,7.36,7.36,0,0,1,6.11,2.71c1.44,1.81,2.15,4.34,2.15,7.59s-.73,5.81-2.19,7.62A7.35,7.35,0,0,1,794.92,371.07ZM794.48,353a5.36,5.36,0,0,0-4.41,1.68c-.91,1.13-1.37,2.92-1.4,5.38v.67q0,4.2,1.4,6a5.33,5.33,0,0,0,4.49,1.8,4.66,4.66,0,0,0,4-2.09,9.92,9.92,0,0,0,1.46-5.75A9.59,9.59,0,0,0,798.6,355,4.83,4.83,0,0,0,794.48,353Z"/><path d="M820.69,370.7l-.6-2.83H820a8.43,8.43,0,0,1-3,2.53,8.93,8.93,0,0,1-3.7.67,6.64,6.64,0,0,1-4.64-1.53A5.56,5.56,0,0,1,807,365.2q0-6,9.65-6.32l3.37-.11v-1.23a5,5,0,0,0-1-3.46,4.15,4.15,0,0,0-3.23-1.12,13.24,13.24,0,0,0-5.63,1.52l-.93-2.3a14.87,14.87,0,0,1,3.23-1.26,14.08,14.08,0,0,1,3.51-.45q3.57,0,5.28,1.58c1.14,1.05,1.72,2.74,1.72,5.07V370.7Zm-6.81-2.12A6.1,6.1,0,0,0,818.3,367a5.67,5.67,0,0,0,1.61-4.32v-1.8l-3,.13a11,11,0,0,0-5.19,1.12,3.36,3.36,0,0,0-1.59,3.08,3.11,3.11,0,0,0,1,2.49A4.15,4.15,0,0,0,813.88,368.58Z"/><path d="M832.15,370.7h-3V342.44h3Z"/><path d="M838.29,345.4a2,2,0,0,1,.51-1.51,1.88,1.88,0,0,1,2.52,0,1.92,1.92,0,0,1,.53,1.5,2,2,0,0,1-.53,1.52,1.77,1.77,0,0,1-1.25.5,1.75,1.75,0,0,1-1.27-.5A2,2,0,0,1,838.29,345.4Zm3.27,25.3h-3V350.8h3Z"/><path d="M854.38,368.58a9.74,9.74,0,0,0,1.55-.12,12,12,0,0,0,1.18-.24v2.3a5.35,5.35,0,0,1-1.45.39,10,10,0,0,1-1.71.16q-5.78,0-5.78-6.09V353.14h-2.85v-1.45l2.85-1.26,1.27-4.25h1.75v4.62H857v2.34h-5.77v11.72a4.05,4.05,0,0,0,.85,2.76A3,3,0,0,0,854.38,368.58Z"/><path d="M878.27,360.73q0,4.88-2.46,7.6a8.6,8.6,0,0,1-6.77,2.74,8.93,8.93,0,0,1-4.74-1.26,8.24,8.24,0,0,1-3.2-3.59,12.54,12.54,0,0,1-1.12-5.49q0-4.86,2.43-7.58a8.62,8.62,0,0,1,6.76-2.72,8.45,8.45,0,0,1,6.64,2.78A11,11,0,0,1,878.27,360.73Zm-15.17,0a9.4,9.4,0,0,0,1.53,5.81,5.26,5.26,0,0,0,4.48,2,5.33,5.33,0,0,0,4.5-2,9.4,9.4,0,0,0,1.53-5.82,9.24,9.24,0,0,0-1.53-5.76,5.39,5.39,0,0,0-4.53-2,5.28,5.28,0,0,0-4.47,1.94C863.6,356.23,863.1,358.17,863.1,360.73Z"/><path d="M896.39,365.27a5,5,0,0,1-2.07,4.29,9.77,9.77,0,0,1-5.81,1.51,12.61,12.61,0,0,1-6.18-1.26V367a15.49,15.49,0,0,0,3.08,1.14,12.86,12.86,0,0,0,3.17.42,7.24,7.24,0,0,0,3.64-.75,2.6,2.6,0,0,0,.26-4.29,15.81,15.81,0,0,0-3.93-2,21.31,21.31,0,0,1-3.95-1.81,5.4,5.4,0,0,1-1.75-1.75,4.62,4.62,0,0,1-.57-2.35,4.47,4.47,0,0,1,2-3.84,9.21,9.21,0,0,1,5.43-1.41,15.89,15.89,0,0,1,6.28,1.31l-1.07,2.45a14.41,14.41,0,0,0-5.43-1.23,6.22,6.22,0,0,0-3.23.67,2.08,2.08,0,0,0-1.09,1.85,2.29,2.29,0,0,0,.41,1.37,4.05,4.05,0,0,0,1.32,1.07,28.31,28.31,0,0,0,3.48,1.47,13,13,0,0,1,4.79,2.6A4.55,4.55,0,0,1,896.39,365.27Z"/><path d="M1467,326.07H1464V302.26h-8.41v-2.75h19.91v2.75H1467Z"/><path d="M1487.4,326.43a9.18,9.18,0,0,1-7-2.69,10.4,10.4,0,0,1-2.55-7.46,11.55,11.55,0,0,1,2.37-7.65,7.87,7.87,0,0,1,6.37-2.83,7.51,7.51,0,0,1,5.92,2.46,9.43,9.43,0,0,1,2.18,6.49v1.91H1481a7.88,7.88,0,0,0,1.77,5.32,6.12,6.12,0,0,0,4.73,1.82,16,16,0,0,0,6.36-1.35v2.69a16.14,16.14,0,0,1-3,1A17,17,0,0,1,1487.4,326.43Zm-.82-18.11a4.92,4.92,0,0,0-3.82,1.56,7.25,7.25,0,0,0-1.68,4.33h10.41a6.62,6.62,0,0,0-1.28-4.37A4.46,4.46,0,0,0,1486.58,308.32Z"/><path d="M1508.94,305.8a11.48,11.48,0,0,1,2.38.22l-.42,2.79a10.33,10.33,0,0,0-2.18-.27,5.29,5.29,0,0,0-4.13,2,7.19,7.19,0,0,0-1.72,4.89v10.68h-3V306.16h2.49l.34,3.69h.15a8.73,8.73,0,0,1,2.67-3A6,6,0,0,1,1508.94,305.8Z"/><path d="M1523,326.43a8.5,8.5,0,0,1-6.69-2.66c-1.59-1.77-2.37-4.28-2.37-7.53s.8-5.9,2.4-7.72a8.69,8.69,0,0,1,6.86-2.72,13.41,13.41,0,0,1,2.87.31,9.77,9.77,0,0,1,2.25.72l-.93,2.56a15.14,15.14,0,0,0-2.18-.66,10,10,0,0,0-2.08-.26q-6.08,0-6.07,7.74a9.21,9.21,0,0,0,1.48,5.63,5.18,5.18,0,0,0,4.39,2,13.49,13.49,0,0,0,5.1-1.07v2.67A10.88,10.88,0,0,1,1523,326.43Z"/><path d="M1541.16,326.43a9.14,9.14,0,0,1-7-2.69,10.36,10.36,0,0,1-2.56-7.46,11.55,11.55,0,0,1,2.37-7.65,7.88,7.88,0,0,1,6.37-2.83,7.51,7.51,0,0,1,5.92,2.46,9.43,9.43,0,0,1,2.18,6.49v1.91h-13.71a7.88,7.88,0,0,0,1.77,5.32,6.13,6.13,0,0,0,4.73,1.82,16,16,0,0,0,6.36-1.35v2.69a16.14,16.14,0,0,1-3,1A17,17,0,0,1,1541.16,326.43Zm-.82-18.11a4.93,4.93,0,0,0-3.82,1.56,7.25,7.25,0,0,0-1.68,4.33h10.41a6.68,6.68,0,0,0-1.27-4.37A4.49,4.49,0,0,0,1540.34,308.32Z"/><path d="M1562.7,305.8a11.48,11.48,0,0,1,2.38.22l-.42,2.79a10.33,10.33,0,0,0-2.18-.27,5.3,5.3,0,0,0-4.13,2,7.18,7.18,0,0,0-1.71,4.89v10.68h-3V306.16h2.49l.34,3.69h.15a8.73,8.73,0,0,1,2.67-3A6,6,0,0,1,1562.7,305.8Z"/><path d="M1584.9,323.94a9.7,9.7,0,0,0,1.54-.12,9.22,9.22,0,0,0,1.18-.24v2.31a6.24,6.24,0,0,1-1.44.39,11.23,11.23,0,0,1-1.72.15q-5.78,0-5.78-6.08V308.5h-2.85v-1.45l2.85-1.25,1.28-4.25h1.74v4.61h5.77v2.34h-5.77v11.72a4,4,0,0,0,.85,2.76A3,3,0,0,0,1584.9,323.94Z"/><path d="M1600,326.43a9.15,9.15,0,0,1-7-2.69,10.4,10.4,0,0,1-2.55-7.46,11.55,11.55,0,0,1,2.37-7.65,7.87,7.87,0,0,1,6.37-2.83,7.52,7.52,0,0,1,5.92,2.46,9.43,9.43,0,0,1,2.18,6.49v1.91h-13.72a7.88,7.88,0,0,0,1.77,5.32,6.14,6.14,0,0,0,4.74,1.82,15.93,15.93,0,0,0,6.35-1.35v2.69a15.83,15.83,0,0,1-3,1A17,17,0,0,1,1600,326.43Zm-.82-18.11a4.92,4.92,0,0,0-3.82,1.56,7.25,7.25,0,0,0-1.68,4.33h10.4a6.62,6.62,0,0,0-1.27-4.37A4.48,4.48,0,0,0,1599.19,308.32Zm-2.23-5.25c.58-.75,1.2-1.65,1.88-2.72a29.73,29.73,0,0,0,1.58-2.78h3.67V298a25.48,25.48,0,0,1-2.38,2.91,26.24,26.24,0,0,1-2.74,2.67h-2Z"/><path d="M1621.55,305.8a11.54,11.54,0,0,1,2.38.22l-.42,2.79a10.33,10.33,0,0,0-2.18-.27,5.29,5.29,0,0,0-4.13,2,7.14,7.14,0,0,0-1.72,4.89v10.68h-3V306.16H1615l.35,3.69h.14a8.73,8.73,0,0,1,2.67-3A6.06,6.06,0,0,1,1621.55,305.8Z"/><path d="M1653,326.07V313.12a5.41,5.41,0,0,0-1-3.57,4,4,0,0,0-3.16-1.19,5.09,5.09,0,0,0-4.16,1.62,7.62,7.62,0,0,0-1.35,5v11.12h-3V313.12a5.36,5.36,0,0,0-1-3.57,4,4,0,0,0-3.18-1.19,4.93,4.93,0,0,0-4.15,1.7c-.88,1.13-1.31,3-1.31,5.56v10.45h-3V306.16h2.45l.49,2.73h.15a5.91,5.91,0,0,1,2.4-2.27,7.32,7.32,0,0,1,3.48-.82c3.11,0,5.15,1.12,6.1,3.38h.15a6.28,6.28,0,0,1,2.58-2.47,8,8,0,0,1,3.85-.91,6.77,6.77,0,0,1,5.06,1.73q1.68,1.74,1.68,5.55v13Z"/><path d="M1662,300.77a2,2,0,0,1,.5-1.52,1.8,1.8,0,0,1,1.28-.48,1.76,1.76,0,0,1,1.25.49,2.42,2.42,0,0,1,0,3,1.85,1.85,0,0,1-2.53,0A2,2,0,0,1,1662,300.77Zm3.26,25.3h-3V306.16h3Z"/><path d="M1685.28,326.07V313.19a5.19,5.19,0,0,0-1.11-3.63,4.51,4.51,0,0,0-3.47-1.2,5.68,5.68,0,0,0-4.57,1.69q-1.45,1.68-1.46,5.57v10.45h-3V306.16h2.45l.49,2.73h.15a6.06,6.06,0,0,1,2.59-2.28,8.47,8.47,0,0,1,3.73-.81,7.59,7.59,0,0,1,5.41,1.73q1.82,1.74,1.81,5.55v13Z"/><path d="M1711.67,316.1q0,4.86-2.45,7.6a8.66,8.66,0,0,1-6.78,2.73,9,9,0,0,1-4.74-1.25,8.3,8.3,0,0,1-3.19-3.6,12.53,12.53,0,0,1-1.13-5.48q0-4.87,2.43-7.59a8.63,8.63,0,0,1,6.76-2.71,8.41,8.41,0,0,1,6.64,2.78A10.93,10.93,0,0,1,1711.67,316.1Zm-15.17,0a9.42,9.42,0,0,0,1.53,5.81,6.05,6.05,0,0,0,9,0,9.43,9.43,0,0,0,1.54-5.82,9.27,9.27,0,0,0-1.54-5.77,5.39,5.39,0,0,0-4.53-2,5.33,5.33,0,0,0-4.47,1.94A9.41,9.41,0,0,0,1696.5,316.1Z"/><path d="M1472.44,368.58a9.74,9.74,0,0,0,1.55-.12,12,12,0,0,0,1.18-.24v2.3a5.35,5.35,0,0,1-1.45.39,10,10,0,0,1-1.71.16q-5.77,0-5.78-6.09V353.14h-2.85v-1.45l2.85-1.26,1.27-4.25h1.75v4.62H1475v2.34h-5.77v11.71a4.06,4.06,0,0,0,.85,2.77A3,3,0,0,0,1472.44,368.58Z"/><path d="M1478.89,345.4a2,2,0,0,1,.51-1.51,1.88,1.88,0,0,1,2.52,0,2,2,0,0,1,.53,1.5,2,2,0,0,1-.53,1.52,1.77,1.77,0,0,1-1.25.5,1.75,1.75,0,0,1-1.27-.5A2,2,0,0,1,1478.89,345.4Zm3.27,25.3h-3V350.8h3Z"/><path d="M1497,371.07a9.14,9.14,0,0,1-7-2.69,10.42,10.42,0,0,1-2.56-7.47,11.54,11.54,0,0,1,2.38-7.64,7.87,7.87,0,0,1,6.36-2.84,7.47,7.47,0,0,1,5.92,2.47,9.39,9.39,0,0,1,2.18,6.49v1.91h-13.71a7.89,7.89,0,0,0,1.77,5.32,6.13,6.13,0,0,0,4.73,1.81,16,16,0,0,0,6.36-1.34v2.69a16.14,16.14,0,0,1-3,1A16.91,16.91,0,0,1,1497,371.07Zm-.82-18.11a4.93,4.93,0,0,0-3.82,1.56,7.2,7.2,0,0,0-1.68,4.32h10.41a6.64,6.64,0,0,0-1.27-4.37A4.48,4.48,0,0,0,1496.14,353Z"/><path d="M1523,370.7V357.83a5.25,5.25,0,0,0-1.1-3.64,4.52,4.52,0,0,0-3.47-1.2,5.74,5.74,0,0,0-4.58,1.69q-1.46,1.69-1.45,5.58V370.7h-3V350.8h2.45l.49,2.72h.15a6.16,6.16,0,0,1,2.6-2.28,8.39,8.39,0,0,1,3.72-.81,7.53,7.53,0,0,1,5.41,1.74q1.82,1.72,1.82,5.55v13Z"/><path d="M1540.66,371.07a9.14,9.14,0,0,1-7-2.69q-2.57-2.69-2.56-7.47a11.54,11.54,0,0,1,2.37-7.64,7.89,7.89,0,0,1,6.37-2.84,7.48,7.48,0,0,1,5.92,2.47,9.43,9.43,0,0,1,2.18,6.49v1.91h-13.71a7.89,7.89,0,0,0,1.77,5.32,6.13,6.13,0,0,0,4.73,1.81,16,16,0,0,0,6.36-1.34v2.69a16.14,16.14,0,0,1-3,1A17,17,0,0,1,1540.66,371.07Zm-.82-18.11a4.93,4.93,0,0,0-3.82,1.56,7.2,7.2,0,0,0-1.68,4.32h10.41a6.7,6.7,0,0,0-1.27-4.37A4.48,4.48,0,0,0,1539.84,353Z"/><path d="M1561.71,359.35q0-7.83,3-11.7t9-3.88a12.09,12.09,0,0,1,3.24.34v2.6a10.48,10.48,0,0,0-3.2-.45,8,8,0,0,0-6.52,2.66c-1.5,1.77-2.33,4.56-2.47,8.36h.22q2-3.12,6.32-3.12a7.44,7.44,0,0,1,5.64,2.16,8.17,8.17,0,0,1,2.06,5.87,9.08,9.08,0,0,1-2.26,6.51,8.06,8.06,0,0,1-6.11,2.37,7.87,7.87,0,0,1-6.54-3.1C1562.52,365.91,1561.71,363,1561.71,359.35Zm8.92,9.16a5,5,0,0,0,4-1.63,6.9,6.9,0,0,0,1.43-4.69,6.05,6.05,0,0,0-1.33-4.15,5,5,0,0,0-4-1.5,6.63,6.63,0,0,0-3,.67,5.53,5.53,0,0,0-2.17,1.85,4.29,4.29,0,0,0-.81,2.45,8.33,8.33,0,0,0,.73,3.49,6.09,6.09,0,0,0,2.06,2.56A5.13,5.13,0,0,0,1570.63,368.51Z"/><path d="M1603,371.07a8.56,8.56,0,0,1-3.55-.72,6.55,6.55,0,0,1-2.7-2.21h-.22a25.89,25.89,0,0,1,.22,3.31v8.19h-3V350.8h2.46l.41,2.72h.15a7.06,7.06,0,0,1,2.7-2.36,8.31,8.31,0,0,1,3.55-.73,7.37,7.37,0,0,1,6.11,2.71c1.43,1.8,2.15,4.34,2.15,7.59s-.73,5.81-2.19,7.62A7.37,7.37,0,0,1,1603,371.07Zm-.44-18.08a5.35,5.35,0,0,0-4.41,1.69q-1.37,1.69-1.4,5.38v.67c0,2.8.46,4.8,1.4,6a5.31,5.31,0,0,0,4.48,1.8,4.64,4.64,0,0,0,4-2.09,9.85,9.85,0,0,0,1.47-5.75,9.51,9.51,0,0,0-1.47-5.72A4.81,4.81,0,0,0,1602.54,353Z"/><path d="M1628.75,370.7l-.6-2.83H1628a8.26,8.26,0,0,1-3,2.53,8.85,8.85,0,0,1-3.69.67,6.62,6.62,0,0,1-4.64-1.53,5.56,5.56,0,0,1-1.68-4.34q0-6,9.64-6.32l3.38-.11v-1.23a5,5,0,0,0-1-3.46,4.11,4.11,0,0,0-3.22-1.12,13.2,13.2,0,0,0-5.63,1.52l-.93-2.3a14.67,14.67,0,0,1,3.23-1.26,14,14,0,0,1,3.51-.45q3.55,0,5.28,1.58t1.71,5.07V370.7Zm-6.81-2.12a6.12,6.12,0,0,0,4.42-1.55,5.7,5.7,0,0,0,1.61-4.32v-1.8l-3,.13a11,11,0,0,0-5.18,1.12,3.36,3.36,0,0,0-1.59,3.08,3.08,3.08,0,0,0,1,2.48A4.1,4.1,0,0,0,1621.94,368.58Z"/><path d="M1640.21,370.7h-3V342.44h3Z"/><path d="M1646.35,345.4a2,2,0,0,1,.51-1.51,1.88,1.88,0,0,1,2.52,0,2,2,0,0,1,.53,1.5,2,2,0,0,1-.53,1.52,1.77,1.77,0,0,1-1.25.5,1.75,1.75,0,0,1-1.27-.5A2,2,0,0,1,1646.35,345.4Zm3.27,25.3h-3V350.8h3Z"/><path d="M1662.44,368.58a9.61,9.61,0,0,0,1.54-.12,11.37,11.37,0,0,0,1.18-.24v2.3a5.15,5.15,0,0,1-1.44.39,10.09,10.09,0,0,1-1.72.16q-5.77,0-5.77-6.09V353.14h-2.85v-1.45l2.85-1.26,1.27-4.25h1.74v4.62H1665v2.34h-5.78v11.71a4.06,4.06,0,0,0,.86,2.77A3,3,0,0,0,1662.44,368.58Z"/><path d="M1686.32,360.73c0,3.25-.81,5.78-2.45,7.6a8.6,8.6,0,0,1-6.77,2.74,8.93,8.93,0,0,1-4.74-1.26,8.24,8.24,0,0,1-3.2-3.59,12.54,12.54,0,0,1-1.13-5.49c0-3.24.82-5.77,2.44-7.58a8.6,8.6,0,0,1,6.75-2.72,8.43,8.43,0,0,1,6.64,2.78A11,11,0,0,1,1686.32,360.73Zm-15.16,0a9.49,9.49,0,0,0,1.52,5.81,6.06,6.06,0,0,0,9,0,9.4,9.4,0,0,0,1.53-5.82,9.24,9.24,0,0,0-1.53-5.76,5.4,5.4,0,0,0-4.54-2,5.28,5.28,0,0,0-4.46,1.95C1671.66,356.23,1671.16,358.17,1671.16,360.73Z"/><path d="M1704.45,365.27a5,5,0,0,1-2.07,4.29,9.77,9.77,0,0,1-5.81,1.51,12.61,12.61,0,0,1-6.18-1.26V367a15.27,15.27,0,0,0,3.08,1.14,12.8,12.8,0,0,0,3.17.42,7.11,7.11,0,0,0,3.63-.76,2.6,2.6,0,0,0,.27-4.28,16.12,16.12,0,0,0-3.94-2,21.63,21.63,0,0,1-3.95-1.81,5.46,5.46,0,0,1-1.74-1.75,4.62,4.62,0,0,1-.57-2.35,4.47,4.47,0,0,1,2-3.84,9.21,9.21,0,0,1,5.43-1.41,15.89,15.89,0,0,1,6.28,1.31l-1.07,2.45a14.49,14.49,0,0,0-5.43-1.23,6.2,6.2,0,0,0-3.23.67,2.08,2.08,0,0,0-1.09,1.85,2.23,2.23,0,0,0,.41,1.37,4.11,4.11,0,0,0,1.31,1.07,29.42,29.42,0,0,0,3.49,1.47,13,13,0,0,1,4.79,2.6A4.6,4.6,0,0,1,1704.45,365.27Z"/></svg>