<svg id="Layer_1" data-name="Layer 1" xmlns="http://www.w3.org/2000/svg" viewBox="0 0 1944.09 345.37"><defs><style>.cls-1{fill:#ffe2a1;}.cls-2{fill:#3a68ad;}.cls-3{font-size:30px;font-family:OpenSans-Regular, Open Sans;}</style></defs><title>Fosforos_U01_04</title><rect class="cls-1" x="1927.07" y="35.35" width="13.75" height="237.11"/><path class="cls-2" d="M1940.82,68.31h-13.75l-3.28-55.78a10.16,10.16,0,0,1,10.15-10.15h0a10.15,10.15,0,0,1,10.15,10.15Z"/><rect class="cls-1" x="1785.69" y="147.03" width="13.75" height="237.11" transform="translate(2058.16 -1526.98) rotate(90)"/><path class="cls-2" d="M1878.16,272.46V258.71l55.78-3.27a10.14,10.14,0,0,1,10.15,10.15h0a10.15,10.15,0,0,1-10.15,10.15Z"/><rect class="cls-1" x="1161.03" y="35.35" width="13.75" height="237.11"/><path class="cls-2" d="M1174.77,68.31H1161l-3.28-55.78A10.16,10.16,0,0,1,1167.9,2.38h0a10.16,10.16,0,0,1,10.15,10.15Z"/><rect class="cls-1" x="1667.14" y="2.4" width="13.75" height="237.11" transform="translate(3348.02 241.92) rotate(180)"/><path class="cls-2" d="M1667.14,206.55h13.75l3.27,55.78A10.14,10.14,0,0,1,1674,272.48h0a10.15,10.15,0,0,1-10.15-10.15Z"/><rect class="cls-1" x="1525.76" y="-106.02" width="13.75" height="237.11" transform="translate(1545.17 -1520.11) rotate(90)"/><path class="cls-2" d="M1618.23,19.41V5.66L1674,2.38a10.15,10.15,0,0,1,10.15,10.15h0A10.14,10.14,0,0,1,1674,22.68Z"/><rect class="cls-1" x="1414.08" y="35.35" width="13.75" height="237.11"/><path class="cls-2" d="M1427.83,68.31h-13.75l-3.27-55.78A10.15,10.15,0,0,1,1421,2.38h0a10.15,10.15,0,0,1,10.14,10.15Z"/><rect class="cls-1" x="1272.71" y="147.03" width="13.75" height="237.11" transform="translate(1545.17 -1013.99) rotate(90)"/><path class="cls-2" d="M1365.17,272.46V258.71l55.79-3.27a10.14,10.14,0,0,1,10.14,10.15h0A10.15,10.15,0,0,1,1421,275.74Z"/><rect class="cls-1" x="501.66" y="32.97" width="13.75" height="237.11"/><path class="cls-2" d="M515.41,65.93H501.66l-3.27-55.78A10.14,10.14,0,0,1,508.54,0h0a10.14,10.14,0,0,1,10.14,10.15Z"/><rect class="cls-1" x="1007.77" y="0.02" width="13.75" height="237.11" transform="translate(2029.29 237.15) rotate(180)"/><path class="cls-2" d="M1007.77,204.17h13.75L1024.8,260a10.16,10.16,0,0,1-10.15,10.15h0A10.15,10.15,0,0,1,1004.5,260Z"/><rect class="cls-1" x="866.4" y="-108.41" width="13.75" height="237.11" transform="translate(883.42 -863.13) rotate(90)"/><path class="cls-2" d="M958.87,17V3.27L1014.65,0a10.15,10.15,0,0,1,10.15,10.15h0a10.16,10.16,0,0,1-10.15,10.15Z"/><rect class="cls-1" x="754.72" y="32.97" width="13.75" height="237.11"/><path class="cls-2" d="M768.47,65.93H754.72l-3.28-55.78A10.15,10.15,0,0,1,761.59,0h0a10.14,10.14,0,0,1,10.15,10.15Z"/><rect class="cls-1" x="613.34" y="144.65" width="13.75" height="237.11" transform="translate(883.42 -357.01) rotate(90)"/><path class="cls-2" d="M705.81,270.08V256.33l55.78-3.27a10.14,10.14,0,0,1,10.15,10.14h0a10.14,10.14,0,0,1-10.15,10.15Z"/><rect class="cls-1" x="3.27" y="35.35" width="13.75" height="237.11"/><path class="cls-2" d="M17,68.31H3.27L0,12.53A10.15,10.15,0,0,1,10.15,2.38h0A10.16,10.16,0,0,1,20.3,12.53Z"/><rect class="cls-1" x="256.33" y="35.35" width="13.75" height="237.11"/><path class="cls-2" d="M270.08,68.31H256.33l-3.27-55.78A10.15,10.15,0,0,1,263.2,2.38h0a10.15,10.15,0,0,1,10.15,10.15Z"/><rect class="cls-1" x="114.96" y="147.03" width="13.75" height="237.11" transform="translate(387.42 143.76) rotate(90)"/><path class="cls-2" d="M207.42,272.46V258.71l55.78-3.27a10.14,10.14,0,0,1,10.15,10.15h0a10.15,10.15,0,0,1-10.15,10.15Z"/><text class="cls-3" transform="translate(22.96 337.24)">Primer término</text><text class="cls-3" transform="translate(640.24 337.24)">Segundo término</text><text class="cls-3" transform="translate(1444.02 337.24)">Tercer término</text></svg>