<svg id="Layer_1" data-name="Layer 1" xmlns="http://www.w3.org/2000/svg" viewBox="0 0 1552.38 380.61"><defs><style>.cls-1{fill:#d32a2a;}.cls-2{fill:#ffe2a1;}.cls-3{fill:#3a68ad;}</style></defs><title>Fosforos_U03_02_03</title><rect class="cls-1" x="1393.98" y="-108.41" width="13.75" height="237.11" transform="translate(1411.01 -1390.71) rotate(90)"/><path class="cls-1" d="M1486.45,17V3.27L1542.23,0a10.14,10.14,0,0,1,10.15,10.15h0a10.15,10.15,0,0,1-10.15,10.15Z"/><rect class="cls-1" x="1282.3" y="32.97" width="13.75" height="237.11"/><path class="cls-1" d="M1296.05,65.93H1282.3L1279,10.15A10.14,10.14,0,0,1,1289.18,0h0a10.15,10.15,0,0,1,10.15,10.15Z"/><rect class="cls-2" x="1140.93" y="144.65" width="13.75" height="237.11" transform="translate(1411.01 -884.6) rotate(90)"/><path class="cls-3" d="M1233.39,270.08V256.33l55.79-3.27a10.15,10.15,0,0,1,10.15,10.14h0a10.15,10.15,0,0,1-10.15,10.15Z"/><rect class="cls-2" x="1022.37" width="13.75" height="237.11" transform="translate(2058.49 237.11) rotate(180)"/><path class="cls-3" d="M1022.37,204.15h13.75l3.27,55.78a10.14,10.14,0,0,1-10.14,10.15h0a10.14,10.14,0,0,1-10.15-10.15Z"/><rect class="cls-2" x="881" y="-108.41" width="13.75" height="237.11" transform="translate(898.02 -877.72) rotate(90)"/><path class="cls-3" d="M973.46,17V3.27L1029.25,0a10.14,10.14,0,0,1,10.14,10.15h0a10.15,10.15,0,0,1-10.14,10.15Z"/><rect class="cls-2" x="769.32" y="32.97" width="13.75" height="237.11"/><path class="cls-3" d="M783.07,65.93H769.32L766,10.15A10.15,10.15,0,0,1,776.19,0h0a10.14,10.14,0,0,1,10.15,10.15Z"/><rect class="cls-2" x="627.94" y="144.65" width="13.75" height="237.11" transform="translate(898.02 -371.61) rotate(90)"/><path class="cls-3" d="M720.41,270.08V256.33l55.78-3.27a10.14,10.14,0,0,1,10.15,10.14h0a10.14,10.14,0,0,1-10.15,10.15Z"/><rect class="cls-2" x="3.27" y="32.97" width="13.75" height="237.11"/><path class="cls-3" d="M17,65.93H3.27L0,10.15A10.14,10.14,0,0,1,10.15,0h0A10.15,10.15,0,0,1,20.3,10.15Z"/><rect class="cls-2" x="509.39" y="0.02" width="13.75" height="237.11" transform="translate(1032.52 237.15) rotate(180)"/><path class="cls-3" d="M509.39,204.17h13.74L526.41,260a10.16,10.16,0,0,1-10.15,10.15h0A10.16,10.16,0,0,1,506.11,260Z"/><rect class="cls-2" x="368.01" y="-108.41" width="13.75" height="237.11" transform="translate(385.03 -364.74) rotate(90)"/><path class="cls-3" d="M460.48,17V3.27L516.26,0a10.15,10.15,0,0,1,10.15,10.15h0A10.16,10.16,0,0,1,516.26,20.3Z"/><rect class="cls-2" x="256.33" y="32.97" width="13.75" height="237.11"/><path class="cls-3" d="M270.08,65.93H256.33l-3.27-55.78A10.14,10.14,0,0,1,263.2,0h0a10.14,10.14,0,0,1,10.15,10.15Z"/><rect class="cls-2" x="114.96" y="144.65" width="13.75" height="237.11" transform="translate(385.03 141.37) rotate(90)"/><path class="cls-3" d="M207.42,270.08V256.33l55.78-3.27a10.14,10.14,0,0,1,10.15,10.14h0a10.14,10.14,0,0,1-10.15,10.15Z"/><path d="M703.86,327h-3.09V303.22h-8.41v-2.74h19.91v2.74h-8.41Z"/><path d="M724.22,327.4a9.18,9.18,0,0,1-7-2.69q-2.55-2.68-2.55-7.47a11.54,11.54,0,0,1,2.37-7.64,7.89,7.89,0,0,1,6.37-2.84,7.48,7.48,0,0,1,5.92,2.47,9.43,9.43,0,0,1,2.18,6.49v1.91H717.83A7.89,7.89,0,0,0,719.6,323a6.13,6.13,0,0,0,4.73,1.81,16,16,0,0,0,6.36-1.34v2.69a16.14,16.14,0,0,1-3,1A17,17,0,0,1,724.22,327.4Zm-.82-18.11a4.93,4.93,0,0,0-3.82,1.56,7.2,7.2,0,0,0-1.68,4.32h10.41A6.7,6.7,0,0,0,727,310.8,4.48,4.48,0,0,0,723.4,309.29Z"/><path d="M745.76,306.76a12.21,12.21,0,0,1,2.38.22l-.42,2.8a10.33,10.33,0,0,0-2.18-.27,5.3,5.3,0,0,0-4.13,2,7.16,7.16,0,0,0-1.72,4.88V327h-3v-19.9h2.49l.34,3.68h.15a8.78,8.78,0,0,1,2.67-3A6,6,0,0,1,745.76,306.76Z"/><path d="M759.82,327.4a8.5,8.5,0,0,1-6.69-2.66q-2.37-2.67-2.37-7.53c0-3.33.8-5.91,2.4-7.72a8.67,8.67,0,0,1,6.86-2.73,14,14,0,0,1,2.87.31,9.56,9.56,0,0,1,2.25.73l-.93,2.56a13,13,0,0,0-2.18-.66,9.42,9.42,0,0,0-2.08-.27q-6.08,0-6.07,7.74a9.19,9.19,0,0,0,1.48,5.63,5.15,5.15,0,0,0,4.39,2,13.27,13.27,0,0,0,5.1-1.07v2.67A10.87,10.87,0,0,1,759.82,327.4Z"/><path d="M778,327.4a9.14,9.14,0,0,1-7-2.69,10.42,10.42,0,0,1-2.56-7.47,11.54,11.54,0,0,1,2.37-7.64,7.89,7.89,0,0,1,6.37-2.84,7.48,7.48,0,0,1,5.92,2.47,9.43,9.43,0,0,1,2.18,6.49v1.91H771.59a7.89,7.89,0,0,0,1.77,5.32,6.13,6.13,0,0,0,4.73,1.81,16,16,0,0,0,6.36-1.34v2.69a16.14,16.14,0,0,1-3,1A16.91,16.91,0,0,1,778,327.4Zm-.82-18.11a4.93,4.93,0,0,0-3.82,1.56,7.2,7.2,0,0,0-1.68,4.32h10.41a6.7,6.7,0,0,0-1.27-4.37A4.48,4.48,0,0,0,777.16,309.29Z"/><path d="M799.52,306.76a12.13,12.13,0,0,1,2.38.22l-.42,2.8a10.33,10.33,0,0,0-2.18-.27,5.3,5.3,0,0,0-4.13,2,7.16,7.16,0,0,0-1.71,4.88V327h-3v-19.9h2.49l.34,3.68h.15a8.78,8.78,0,0,1,2.67-3A6,6,0,0,1,799.52,306.76Z"/><path d="M821.72,324.91a9.7,9.7,0,0,0,1.54-.12,11.37,11.37,0,0,0,1.18-.24v2.3a5.37,5.37,0,0,1-1.44.39,11.34,11.34,0,0,1-1.72.16q-5.78,0-5.78-6.09V309.47h-2.85V308l2.85-1.26,1.28-4.25h1.74v4.62h5.78v2.34h-5.78v11.71a4.06,4.06,0,0,0,.85,2.77A3,3,0,0,0,821.72,324.91Z"/><path d="M836.83,327.4a9.17,9.17,0,0,1-7-2.69q-2.55-2.68-2.55-7.47a11.54,11.54,0,0,1,2.37-7.64,7.87,7.87,0,0,1,6.37-2.84,7.5,7.5,0,0,1,5.92,2.47,9.43,9.43,0,0,1,2.18,6.49v1.91H830.44a7.89,7.89,0,0,0,1.77,5.32,6.11,6.11,0,0,0,4.73,1.81,15.92,15.92,0,0,0,6.35-1.34v2.69a15.83,15.83,0,0,1-3,1A17,17,0,0,1,836.83,327.4ZM836,309.29a4.92,4.92,0,0,0-3.82,1.56,7.2,7.2,0,0,0-1.68,4.32h10.4a6.64,6.64,0,0,0-1.27-4.37A4.46,4.46,0,0,0,836,309.29ZM833.78,304c.58-.75,1.2-1.66,1.88-2.72s1.2-2,1.59-2.78h3.66v.38a25.52,25.52,0,0,1-2.38,2.9,26.24,26.24,0,0,1-2.74,2.67h-2Z"/><path d="M858.37,306.76a12.28,12.28,0,0,1,2.38.22l-.42,2.8a10.33,10.33,0,0,0-2.18-.27,5.29,5.29,0,0,0-4.13,2,7.12,7.12,0,0,0-1.72,4.88V327h-3v-19.9h2.49l.34,3.68h.15a8.58,8.58,0,0,1,2.67-3A6,6,0,0,1,858.37,306.76Z"/><path d="M889.84,327V314.08a5.39,5.39,0,0,0-1-3.57,3.94,3.94,0,0,0-3.16-1.19,5.09,5.09,0,0,0-4.16,1.62,7.67,7.67,0,0,0-1.35,5V327h-3V314.08a5.39,5.39,0,0,0-1-3.57,4,4,0,0,0-3.18-1.19,4.93,4.93,0,0,0-4.15,1.7c-.88,1.14-1.31,3-1.31,5.57V327h-3v-19.9h2.45l.49,2.72h.15a6,6,0,0,1,2.4-2.27,7.44,7.44,0,0,1,3.48-.82c3.12,0,5.15,1.13,6.11,3.38h.14a6.34,6.34,0,0,1,2.58-2.47,8.08,8.08,0,0,1,3.85-.91,6.74,6.74,0,0,1,5.06,1.74q1.68,1.72,1.68,5.55v13Z"/><path d="M898.82,301.73a2,2,0,0,1,.5-1.51,1.8,1.8,0,0,1,1.28-.48,1.76,1.76,0,0,1,1.25.49,2,2,0,0,1,.53,1.5,2,2,0,0,1-.53,1.52,1.85,1.85,0,0,1-2.53,0A2.08,2.08,0,0,1,898.82,301.73Zm3.27,25.3h-3v-19.9h3Z"/><path d="M922.1,327V314.16a5.2,5.2,0,0,0-1.11-3.64,4.51,4.51,0,0,0-3.47-1.2A5.73,5.73,0,0,0,913,311q-1.46,1.69-1.46,5.58V327h-3v-19.9h2.45l.49,2.72h.15a6.13,6.13,0,0,1,2.59-2.28,8.47,8.47,0,0,1,3.73-.81,7.55,7.55,0,0,1,5.41,1.74q1.82,1.72,1.82,5.55v13Z"/><path d="M948.49,317.06q0,4.88-2.45,7.6a8.64,8.64,0,0,1-6.78,2.74,8.93,8.93,0,0,1-4.74-1.26,8.22,8.22,0,0,1-3.19-3.59,12.54,12.54,0,0,1-1.13-5.49q0-4.86,2.43-7.58a8.63,8.63,0,0,1,6.76-2.72,8.43,8.43,0,0,1,6.64,2.78A11,11,0,0,1,948.49,317.06Zm-15.17,0a9.42,9.42,0,0,0,1.53,5.81,6.05,6.05,0,0,0,9,0,9.39,9.39,0,0,0,1.54-5.82,9.24,9.24,0,0,0-1.54-5.76,5.37,5.37,0,0,0-4.53-2,5.31,5.31,0,0,0-4.47,1.95A9.38,9.38,0,0,0,933.32,317.06Z"/><path d="M698.63,369.54a10.94,10.94,0,0,0,1.54-.11,9,9,0,0,0,1.18-.25v2.31a5.15,5.15,0,0,1-1.44.39,11.23,11.23,0,0,1-1.72.15q-5.78,0-5.77-6.08V354.11h-2.85v-1.46l2.85-1.25,1.27-4.25h1.74v4.61h5.78v2.35h-5.78v11.71a4,4,0,0,0,.86,2.76A3,3,0,0,0,698.63,369.54Z"/><path d="M705.08,346.37a2,2,0,0,1,.51-1.52,1.88,1.88,0,0,1,2.52,0,2,2,0,0,1,.53,1.51,2,2,0,0,1-.53,1.52,1.76,1.76,0,0,1-1.25.49,1.74,1.74,0,0,1-1.27-.49A2.05,2.05,0,0,1,705.08,346.37Zm3.27,25.3h-3V351.76h3Z"/><path d="M723.15,372a9.15,9.15,0,0,1-7-2.69,10.4,10.4,0,0,1-2.55-7.46,11.55,11.55,0,0,1,2.37-7.65,7.87,7.87,0,0,1,6.37-2.83,7.51,7.51,0,0,1,5.92,2.46,9.45,9.45,0,0,1,2.18,6.49v1.91H716.76a7.88,7.88,0,0,0,1.77,5.32,6.12,6.12,0,0,0,4.73,1.82,16,16,0,0,0,6.36-1.35v2.69a16.14,16.14,0,0,1-3,1A17,17,0,0,1,723.15,372Zm-.82-18.11a4.92,4.92,0,0,0-3.82,1.57,7.2,7.2,0,0,0-1.68,4.32h10.41a6.62,6.62,0,0,0-1.28-4.37A4.46,4.46,0,0,0,722.33,353.92Z"/><path d="M749.23,371.67V358.79a5.19,5.19,0,0,0-1.11-3.63,4.51,4.51,0,0,0-3.47-1.2,5.68,5.68,0,0,0-4.57,1.69c-1,1.13-1.46,3-1.46,5.58v10.44h-3V351.76h2.45l.49,2.73h.15a6.13,6.13,0,0,1,2.59-2.28,8.47,8.47,0,0,1,3.73-.81,7.59,7.59,0,0,1,5.41,1.73q1.82,1.74,1.82,5.55v13Z"/><path d="M766.85,372a9.13,9.13,0,0,1-7-2.69,10.4,10.4,0,0,1-2.55-7.46,11.55,11.55,0,0,1,2.37-7.65,7.87,7.87,0,0,1,6.37-2.83,7.52,7.52,0,0,1,5.92,2.46,9.45,9.45,0,0,1,2.18,6.49v1.91H760.45a7.93,7.93,0,0,0,1.77,5.32A6.16,6.16,0,0,0,767,369.4a15.93,15.93,0,0,0,6.35-1.35v2.69a15.83,15.83,0,0,1-3,1A17,17,0,0,1,766.85,372ZM766,353.92a4.92,4.92,0,0,0-3.82,1.57,7.2,7.2,0,0,0-1.68,4.32h10.4a6.62,6.62,0,0,0-1.27-4.37A4.47,4.47,0,0,0,766,353.92Z"/><path d="M798.76,371.67h-2.94V352.74c0-1.57,0-3.06.14-4.46-.25.25-.54.52-.85.8l-4.32,3.54-1.6-2.07,7-5.43h2.54Z"/><path d="M826.31,371.67H808.86v-2.6l7-7a49.6,49.6,0,0,0,4.21-4.61,11.81,11.81,0,0,0,1.53-2.69,7.66,7.66,0,0,0,.51-2.81,4.46,4.46,0,0,0-1.29-3.37,4.94,4.94,0,0,0-3.58-1.25,8.81,8.81,0,0,0-3.13.55,12.26,12.26,0,0,0-3.3,2l-1.6-2a12.23,12.23,0,0,1,8-3.06,8.44,8.44,0,0,1,5.87,1.92,6.58,6.58,0,0,1,2.13,5.15,10,10,0,0,1-1.42,5,31.85,31.85,0,0,1-5.3,6.25l-5.82,5.69v.14h13.66Z"/><path d="M850.43,372a8.6,8.6,0,0,1-3.55-.72,6.66,6.66,0,0,1-2.7-2.2H844a27.59,27.59,0,0,1,.21,3.3v8.2h-3V351.76h2.45l.42,2.73h.14a7,7,0,0,1,2.71-2.36,8.15,8.15,0,0,1,3.54-.73,7.33,7.33,0,0,1,6.11,2.71q2.16,2.7,2.16,7.59t-2.19,7.62A7.38,7.38,0,0,1,850.43,372ZM850,354a5.34,5.34,0,0,0-4.42,1.69c-.91,1.13-1.37,2.92-1.4,5.38v.67q0,4.2,1.4,6a5.31,5.31,0,0,0,4.49,1.81,4.66,4.66,0,0,0,4-2.09,9.93,9.93,0,0,0,1.46-5.76,9.57,9.57,0,0,0-1.46-5.71A4.8,4.8,0,0,0,850,354Z"/><path d="M876.2,371.67l-.6-2.83h-.14a8.37,8.37,0,0,1-3,2.53,9.11,9.11,0,0,1-3.7.66,6.68,6.68,0,0,1-4.64-1.52,5.58,5.58,0,0,1-1.68-4.34q0-6,9.65-6.32l3.38-.11V358.5a5.07,5.07,0,0,0-1-3.46,4.19,4.19,0,0,0-3.23-1.12,13.16,13.16,0,0,0-5.63,1.53l-.92-2.31a14.44,14.44,0,0,1,6.74-1.7c2.37,0,4.13.52,5.27,1.58s1.72,2.74,1.72,5.06v13.59Zm-6.81-2.13a6.1,6.1,0,0,0,4.42-1.54,5.68,5.68,0,0,0,1.61-4.32v-1.8l-3,.13a10.94,10.94,0,0,0-5.19,1.11,3.37,3.37,0,0,0-1.59,3.08,3.11,3.11,0,0,0,1,2.49A4.12,4.12,0,0,0,869.39,369.54Z"/><path d="M887.66,371.67h-3V343.41h3Z"/><path d="M893.8,346.37a2,2,0,0,1,.51-1.52,1.89,1.89,0,0,1,2.53,0,2,2,0,0,1,.52,1.51,2,2,0,0,1-.52,1.52,1.77,1.77,0,0,1-1.26.49,1.74,1.74,0,0,1-1.27-.49A2.05,2.05,0,0,1,893.8,346.37Zm3.27,25.3h-3V351.76h3Z"/><path d="M909.9,369.54a11.05,11.05,0,0,0,1.54-.11,9,9,0,0,0,1.18-.25v2.31a5.37,5.37,0,0,1-1.44.39,11.23,11.23,0,0,1-1.72.15q-5.78,0-5.78-6.08V354.11h-2.85v-1.46l2.85-1.25,1.28-4.25h1.74v4.61h5.77v2.35H906.7v11.71a4,4,0,0,0,.85,2.76A3,3,0,0,0,909.9,369.54Z"/><path d="M933.78,361.7c0,3.24-.82,5.78-2.45,7.6a8.66,8.66,0,0,1-6.78,2.73,9,9,0,0,1-4.74-1.25,8.25,8.25,0,0,1-3.19-3.6,12.39,12.39,0,0,1-1.13-5.48c0-3.25.81-5.77,2.43-7.58a8.63,8.63,0,0,1,6.76-2.72,8.44,8.44,0,0,1,6.64,2.78A10.93,10.93,0,0,1,933.78,361.7Zm-15.17,0a9.42,9.42,0,0,0,1.53,5.81,6.05,6.05,0,0,0,9,0,9.44,9.44,0,0,0,1.53-5.82,9.29,9.29,0,0,0-1.53-5.77,5.39,5.39,0,0,0-4.53-2,5.32,5.32,0,0,0-4.47,1.94A9.41,9.41,0,0,0,918.61,361.7Z"/><path d="M951.91,366.24a5,5,0,0,1-2.08,4.28A9.68,9.68,0,0,1,944,372a12.66,12.66,0,0,1-6.17-1.25V368a14.5,14.5,0,0,0,3.08,1.15,12.7,12.7,0,0,0,3.16.41,7.24,7.24,0,0,0,3.64-.75,2.49,2.49,0,0,0,1.27-2.3,2.52,2.52,0,0,0-1-2,15.81,15.81,0,0,0-3.93-1.95,21,21,0,0,1-3.95-1.81,5.27,5.27,0,0,1-1.74-1.75,4.81,4.81,0,0,1,1.4-6.18,9.21,9.21,0,0,1,5.43-1.41,15.94,15.94,0,0,1,6.29,1.31l-1.07,2.45a14.52,14.52,0,0,0-5.43-1.24,6.25,6.25,0,0,0-3.24.68,2.07,2.07,0,0,0-1.09,1.85,2.26,2.26,0,0,0,.41,1.36,3.93,3.93,0,0,0,1.32,1.07,28.67,28.67,0,0,0,3.49,1.47,13,13,0,0,1,4.78,2.6A4.59,4.59,0,0,1,951.91,366.24Z"/></svg>