<svg id="Layer_1" data-name="Layer 1" xmlns="http://www.w3.org/2000/svg" viewBox="0 0 1620.22 366.65"><defs><style>.cls-1{fill:#ffe2a1;}.cls-2{fill:#3a68ad;}.cls-3{fill:#d32a2a;}</style></defs><title>Fosforos_U02_01</title><rect class="cls-1" x="1097.08" y="32.97" width="13.75" height="237.11"/><path class="cls-2" d="M1110.83,65.93h-13.75l-3.27-55.78A10.14,10.14,0,0,1,1104,0h0a10.15,10.15,0,0,1,10.15,10.15Z"/><rect class="cls-3" x="1603.19" y="0.02" width="13.75" height="237.11" transform="translate(3220.14 237.15) rotate(180)"/><path class="cls-3" d="M1603.19,204.17h13.75l3.28,55.78a10.16,10.16,0,0,1-10.15,10.15h0A10.15,10.15,0,0,1,1599.92,260Z"/><rect class="cls-3" x="1461.82" y="-108.41" width="13.75" height="237.11" transform="translate(1478.84 -1458.55) rotate(90)"/><path class="cls-3" d="M1554.29,17V3.27L1610.07,0a10.15,10.15,0,0,1,10.15,10.15h0a10.16,10.16,0,0,1-10.15,10.15Z"/><rect class="cls-1" x="1350.14" y="32.97" width="13.75" height="237.11"/><path class="cls-2" d="M1363.89,65.93h-13.75l-3.28-55.78A10.15,10.15,0,0,1,1357,0h0a10.14,10.14,0,0,1,10.15,10.15Z"/><rect class="cls-1" x="1208.76" y="144.65" width="13.75" height="237.11" transform="translate(1478.84 -952.43) rotate(90)"/><path class="cls-2" d="M1301.23,270.08V256.33l55.78-3.27a10.14,10.14,0,0,1,10.15,10.14h0A10.14,10.14,0,0,1,1357,273.35Z"/><rect class="cls-1" x="598.69" y="32.97" width="13.75" height="237.11"/><path class="cls-2" d="M612.44,65.93H598.69l-3.27-55.78A10.14,10.14,0,0,1,605.57,0h0a10.15,10.15,0,0,1,10.15,10.15Z"/><rect class="cls-3" x="851.75" y="32.97" width="13.75" height="237.11"/><path class="cls-3" d="M865.5,65.93H851.75l-3.27-55.78A10.14,10.14,0,0,1,858.63,0h0a10.14,10.14,0,0,1,10.14,10.15Z"/><rect class="cls-3" x="710.38" y="144.65" width="13.75" height="237.11" transform="translate(980.46 -454.05) rotate(90)"/><path class="cls-3" d="M802.84,270.08V256.33l55.79-3.27a10.14,10.14,0,0,1,10.14,10.14h0a10.14,10.14,0,0,1-10.14,10.15Z"/><rect class="cls-1" x="135.09" y="32.97" width="13.75" height="237.11"/><path class="cls-2" d="M148.84,65.93H135.09l-3.27-55.78A10.14,10.14,0,0,1,142,0h0a10.14,10.14,0,0,1,10.15,10.15Z"/><path d="M48.71,291.85A7.44,7.44,0,0,1,46,298.06c-1.83,1.44-4.46,2.17-7.87,2.17H35v10.44H31.88V284.12h6.88Q48.72,284.12,48.71,291.85ZM35,297.58h2.77c2.74,0,4.72-.45,5.94-1.33A4.87,4.87,0,0,0,45.52,292a4.57,4.57,0,0,0-1.73-3.92q-1.73-1.29-5.37-1.29H35Z"/><path d="M62.9,290.4a11.48,11.48,0,0,1,2.38.22l-.42,2.8a10.41,10.41,0,0,0-2.18-.28,5.3,5.3,0,0,0-4.13,2A7.15,7.15,0,0,0,56.83,300v10.68h-3v-19.9h2.49l.34,3.68h.15a8.78,8.78,0,0,1,2.67-3A5.94,5.94,0,0,1,62.9,290.4Z"/><path d="M68.75,285.37a2,2,0,0,1,.51-1.52,1.78,1.78,0,0,1,1.27-.48,1.8,1.8,0,0,1,1.25.49,2,2,0,0,1,.53,1.51,2,2,0,0,1-.53,1.52,1.77,1.77,0,0,1-1.25.5,1.75,1.75,0,0,1-1.27-.5A2.05,2.05,0,0,1,68.75,285.37ZM72,310.67H69v-19.9h3Z"/><path d="M103.78,310.67V297.72a5.45,5.45,0,0,0-1-3.57A4,4,0,0,0,99.61,293a5.09,5.09,0,0,0-4.16,1.62,7.67,7.67,0,0,0-1.35,5v11.11h-3V297.72a5.39,5.39,0,0,0-1-3.57A4,4,0,0,0,86.89,293a4.93,4.93,0,0,0-4.15,1.7c-.88,1.13-1.31,3-1.31,5.57v10.44h-3v-19.9h2.45l.49,2.72h.15a5.91,5.91,0,0,1,2.4-2.27,7.32,7.32,0,0,1,3.48-.82c3.11,0,5.15,1.13,6.1,3.38h.15a6.34,6.34,0,0,1,2.58-2.47,8,8,0,0,1,3.85-.91,6.74,6.74,0,0,1,5.06,1.74q1.68,1.73,1.68,5.55v13Z"/><path d="M121.42,311a9.16,9.16,0,0,1-7-2.68,10.43,10.43,0,0,1-2.55-7.47,11.5,11.5,0,0,1,2.37-7.64,7.87,7.87,0,0,1,6.37-2.84,7.51,7.51,0,0,1,5.92,2.46,9.46,9.46,0,0,1,2.18,6.5v1.9H115a7.88,7.88,0,0,0,1.77,5.32,6.08,6.08,0,0,0,4.73,1.82,16.09,16.09,0,0,0,6.35-1.34v2.68a15.16,15.16,0,0,1-3,1A17,17,0,0,1,121.42,311Zm-.82-18.1a4.92,4.92,0,0,0-3.82,1.56,7.2,7.2,0,0,0-1.68,4.32h10.41a6.62,6.62,0,0,0-1.28-4.37A4.45,4.45,0,0,0,120.6,292.93Z"/><path d="M143,290.4a11.48,11.48,0,0,1,2.38.22l-.42,2.8a10.41,10.41,0,0,0-2.18-.28,5.3,5.3,0,0,0-4.13,2,7.15,7.15,0,0,0-1.72,4.88v10.68h-3v-19.9h2.49l.34,3.68h.15a8.78,8.78,0,0,1,2.67-3A5.94,5.94,0,0,1,143,290.4Z"/><path d="M165.15,308.55a9.74,9.74,0,0,0,1.55-.12,9.34,9.34,0,0,0,1.18-.25v2.31a5.35,5.35,0,0,1-1.45.39,11,11,0,0,1-1.71.15c-3.85,0-5.78-2-5.78-6.08V293.11h-2.85v-1.45l2.85-1.26,1.27-4.25H162v4.62h5.77v2.34H162v11.71a4,4,0,0,0,.85,2.76A3,3,0,0,0,165.15,308.55Z"/><path d="M180.27,311a9.15,9.15,0,0,1-7-2.68,10.43,10.43,0,0,1-2.55-7.47,11.5,11.5,0,0,1,2.37-7.64,7.87,7.87,0,0,1,6.36-2.84,7.53,7.53,0,0,1,5.93,2.46,9.46,9.46,0,0,1,2.17,6.5v1.9H173.87a7.88,7.88,0,0,0,1.77,5.32,6.1,6.1,0,0,0,4.73,1.82,16.11,16.11,0,0,0,6.36-1.34v2.68a15.16,15.16,0,0,1-3,1A17,17,0,0,1,180.27,311Zm-.82-18.1a5,5,0,0,0-3.83,1.56,7.2,7.2,0,0,0-1.68,4.32h10.41a6.62,6.62,0,0,0-1.27-4.37A4.48,4.48,0,0,0,179.45,292.93Zm-2.24-5.25c.58-.75,1.21-1.66,1.88-2.73a26.86,26.86,0,0,0,1.59-2.78h3.67v.39a26.43,26.43,0,0,1-2.38,2.9,27.26,27.26,0,0,1-2.74,2.67h-2Z"/><path d="M201.81,290.4a11.38,11.38,0,0,1,2.37.22l-.41,2.8a10.49,10.49,0,0,0-2.18-.28,5.3,5.3,0,0,0-4.13,2,7.1,7.1,0,0,0-1.72,4.88v10.68h-3v-19.9h2.49l.35,3.68h.14a8.78,8.78,0,0,1,2.67-3A6,6,0,0,1,201.81,290.4Z"/><path d="M233.28,310.67V297.72a5.39,5.39,0,0,0-1-3.57A3.93,3.93,0,0,0,229.1,293a5.11,5.11,0,0,0-4.16,1.62,7.73,7.73,0,0,0-1.34,5v11.11h-3V297.72a5.39,5.39,0,0,0-1-3.57,4,4,0,0,0-3.18-1.19,4.93,4.93,0,0,0-4.15,1.7q-1.32,1.69-1.32,5.57v10.44h-3v-19.9h2.45l.49,2.72H211a5.84,5.84,0,0,1,2.4-2.27,7.32,7.32,0,0,1,3.48-.82c3.11,0,5.15,1.13,6.1,3.38h.15a6.34,6.34,0,0,1,2.58-2.47,7.94,7.94,0,0,1,3.85-.91,6.74,6.74,0,0,1,5.06,1.74q1.68,1.73,1.68,5.55v13Z"/><path d="M242.25,285.37a2,2,0,0,1,.51-1.52,1.78,1.78,0,0,1,1.27-.48,1.81,1.81,0,0,1,1.26.49,2,2,0,0,1,.52,1.51,2,2,0,0,1-.52,1.52,1.78,1.78,0,0,1-1.26.5,1.75,1.75,0,0,1-1.27-.5A2.05,2.05,0,0,1,242.25,285.37Zm3.27,25.3h-3v-19.9h3Z"/><path d="M265.54,310.67V297.79a5.19,5.19,0,0,0-1.11-3.63A4.52,4.52,0,0,0,261,293a5.75,5.75,0,0,0-4.58,1.69q-1.45,1.69-1.45,5.58v10.44h-3v-19.9h2.45l.49,2.72H255a6.22,6.22,0,0,1,2.6-2.28,8.42,8.42,0,0,1,3.72-.81,7.56,7.56,0,0,1,5.42,1.74q1.81,1.73,1.81,5.55v13Z"/><path d="M291.93,300.7q0,4.88-2.45,7.6A8.66,8.66,0,0,1,282.7,311a8.93,8.93,0,0,1-4.74-1.25,8.24,8.24,0,0,1-3.2-3.59,12.57,12.57,0,0,1-1.12-5.49q0-4.86,2.43-7.58a8.62,8.62,0,0,1,6.76-2.72,8.44,8.44,0,0,1,6.64,2.78A10.93,10.93,0,0,1,291.93,300.7Zm-15.17,0a9.42,9.42,0,0,0,1.53,5.81,6.05,6.05,0,0,0,9,0,9.42,9.42,0,0,0,1.53-5.82,9.29,9.29,0,0,0-1.53-5.77,5.39,5.39,0,0,0-4.53-2,5.29,5.29,0,0,0-4.47,2Q276.76,296.84,276.76,300.7Z"/><path d="M58,353.18a9.61,9.61,0,0,0,1.54-.12,9.22,9.22,0,0,0,1.18-.24v2.31a6,6,0,0,1-1.44.39,11.23,11.23,0,0,1-1.72.15q-5.77,0-5.77-6.08V337.74H48.89v-1.45L51.74,335,53,330.79h1.74v4.61h5.78v2.34H54.75v11.72a4,4,0,0,0,.86,2.76A3,3,0,0,0,58,353.18Z"/><path d="M64.4,330a2,2,0,0,1,.51-1.52,1.88,1.88,0,0,1,2.52,0,2.42,2.42,0,0,1,0,3,1.73,1.73,0,0,1-1.25.5,1.71,1.71,0,0,1-1.27-.5A2,2,0,0,1,64.4,330Zm3.27,25.3h-3V335.4h3Z"/><path d="M82.47,355.67a9.18,9.18,0,0,1-7-2.69A10.4,10.4,0,0,1,73,345.52a11.55,11.55,0,0,1,2.37-7.65A7.87,7.87,0,0,1,81.69,335a7.51,7.51,0,0,1,5.92,2.46A9.43,9.43,0,0,1,89.79,344v1.91H76.08a7.88,7.88,0,0,0,1.77,5.32A6.12,6.12,0,0,0,82.58,353a16,16,0,0,0,6.36-1.35v2.69a16.14,16.14,0,0,1-3,1A17,17,0,0,1,82.47,355.67Zm-.82-18.11a4.92,4.92,0,0,0-3.82,1.56,7.25,7.25,0,0,0-1.68,4.33H86.56a6.62,6.62,0,0,0-1.28-4.37A4.46,4.46,0,0,0,81.65,337.56Z"/><path d="M108.55,355.31V342.43a5.19,5.19,0,0,0-1.11-3.63,4.51,4.51,0,0,0-3.47-1.2,5.7,5.7,0,0,0-4.57,1.69q-1.45,1.68-1.46,5.57v10.45h-3V335.4h2.45l.49,2.73H98a6,6,0,0,1,2.59-2.28,8.47,8.47,0,0,1,3.73-.81,7.59,7.59,0,0,1,5.41,1.73q1.81,1.74,1.82,5.55v13Z"/><path d="M126.17,355.67a9.17,9.17,0,0,1-7-2.69,10.4,10.4,0,0,1-2.55-7.46,11.55,11.55,0,0,1,2.37-7.65,7.87,7.87,0,0,1,6.37-2.83,7.52,7.52,0,0,1,5.92,2.46,9.43,9.43,0,0,1,2.18,6.49v1.91H119.77a7.93,7.93,0,0,0,1.78,5.32,6.12,6.12,0,0,0,4.73,1.82,15.93,15.93,0,0,0,6.35-1.35v2.69a15.83,15.83,0,0,1-3,1A17,17,0,0,1,126.17,355.67Zm-.82-18.11a4.92,4.92,0,0,0-3.82,1.56,7.25,7.25,0,0,0-1.68,4.33h10.4a6.62,6.62,0,0,0-1.27-4.37A4.47,4.47,0,0,0,125.35,337.56Z"/><path d="M158.08,355.31h-2.94V336.38c0-1.57.05-3.06.14-4.47-.25.26-.54.52-.85.8s-1.76,1.46-4.32,3.54l-1.6-2.07,7-5.43h2.54Z"/><path d="M188.48,355.67a8.6,8.6,0,0,1-3.55-.72,6.65,6.65,0,0,1-2.69-2.2H182a27.68,27.68,0,0,1,.22,3.3v8.19h-3V335.4h2.45l.42,2.73h.15a7,7,0,0,1,2.7-2.37,8.29,8.29,0,0,1,3.54-.72,7.35,7.35,0,0,1,6.11,2.7q2.16,2.72,2.16,7.6c0,3.27-.73,5.8-2.19,7.61A7.36,7.36,0,0,1,188.48,355.67Zm-.43-18.07a5.34,5.34,0,0,0-4.42,1.69c-.9,1.12-1.37,2.92-1.39,5.37v.68q0,4.19,1.39,6a5.35,5.35,0,0,0,4.49,1.81,4.66,4.66,0,0,0,4-2.09,9.88,9.88,0,0,0,1.46-5.76,9.48,9.48,0,0,0-1.46-5.71A4.78,4.78,0,0,0,188.05,337.6Z"/><path d="M214.26,355.31l-.6-2.84h-.15a8.3,8.3,0,0,1-3,2.54,9.09,9.09,0,0,1-3.69.66,6.65,6.65,0,0,1-4.65-1.53,5.58,5.58,0,0,1-1.67-4.34q0-6,9.64-6.32l3.38-.11v-1.23a5.05,5.05,0,0,0-1-3.46,4.13,4.13,0,0,0-3.22-1.12,13.08,13.08,0,0,0-5.63,1.53l-.93-2.31a14.61,14.61,0,0,1,6.74-1.71q3.56,0,5.27,1.58t1.72,5.07v13.59Zm-6.82-2.13a6.13,6.13,0,0,0,4.43-1.54,5.71,5.71,0,0,0,1.6-4.32v-1.8l-3,.12a11,11,0,0,0-5.19,1.12,3.37,3.37,0,0,0-1.58,3.08,3.14,3.14,0,0,0,1,2.49A4.13,4.13,0,0,0,207.44,353.18Z"/><path d="M225.72,355.31h-3V327.05h3Z"/><path d="M231.86,330a2,2,0,0,1,.5-1.52,1.8,1.8,0,0,1,1.28-.48,1.76,1.76,0,0,1,1.25.49,2.42,2.42,0,0,1,0,3,1.85,1.85,0,0,1-2.53,0A2,2,0,0,1,231.86,330Zm3.26,25.3h-3V335.4h3Z"/><path d="M248,353.18a9.7,9.7,0,0,0,1.54-.12,9.22,9.22,0,0,0,1.18-.24v2.31a6.24,6.24,0,0,1-1.44.39,11.23,11.23,0,0,1-1.72.15q-5.77,0-5.77-6.08V337.74h-2.86v-1.45l2.86-1.25,1.27-4.25h1.74v4.61h5.78v2.34h-5.78v11.72a4,4,0,0,0,.85,2.76A3,3,0,0,0,248,353.18Z"/><path d="M271.83,345.34q0,4.86-2.45,7.6a8.65,8.65,0,0,1-6.78,2.73,9,9,0,0,1-4.74-1.25,8.3,8.3,0,0,1-3.19-3.6,12.53,12.53,0,0,1-1.13-5.48q0-4.87,2.43-7.59a8.63,8.63,0,0,1,6.76-2.71,8.39,8.39,0,0,1,6.64,2.78A10.93,10.93,0,0,1,271.83,345.34Zm-15.16,0a9.43,9.43,0,0,0,1.52,5.81,6.05,6.05,0,0,0,9,0,9.37,9.37,0,0,0,1.54-5.82,9.21,9.21,0,0,0-1.54-5.77,5.39,5.39,0,0,0-4.53-2,5.33,5.33,0,0,0-4.47,1.94A9.41,9.41,0,0,0,256.67,345.34Z"/><path d="M614.55,303.61a6.48,6.48,0,0,1-2.54,5.46,11,11,0,0,1-6.9,2,17.36,17.36,0,0,1-7.27-1.21v-3a19.5,19.5,0,0,0,3.56,1.09,18.58,18.58,0,0,0,3.82.4,7.7,7.7,0,0,0,4.65-1.17,3.85,3.85,0,0,0,1.56-3.26,4.16,4.16,0,0,0-.56-2.26A5,5,0,0,0,609,300a25.23,25.23,0,0,0-3.95-1.69,12.56,12.56,0,0,1-5.29-3.14,6.93,6.93,0,0,1-1.59-4.74,5.89,5.89,0,0,1,2.31-4.89,9.57,9.57,0,0,1,6.1-1.81,17.93,17.93,0,0,1,7.28,1.45l-1,2.69a16.44,16.44,0,0,0-6.39-1.38,6.22,6.22,0,0,0-3.84,1.05,3.47,3.47,0,0,0-1.38,2.92,4.51,4.51,0,0,0,.51,2.27,4.82,4.82,0,0,0,1.72,1.61,21.5,21.5,0,0,0,3.69,1.63,14.69,14.69,0,0,1,5.75,3.19A6.29,6.29,0,0,1,614.55,303.61Z"/><path d="M627.94,311a9.16,9.16,0,0,1-7-2.68,10.43,10.43,0,0,1-2.55-7.47,11.5,11.5,0,0,1,2.37-7.64,7.87,7.87,0,0,1,6.37-2.84,7.51,7.51,0,0,1,5.92,2.46,9.46,9.46,0,0,1,2.18,6.5v1.9H621.55a7.88,7.88,0,0,0,1.77,5.32,6.08,6.08,0,0,0,4.73,1.82,16.09,16.09,0,0,0,6.35-1.34v2.68a15.16,15.16,0,0,1-3,1A17,17,0,0,1,627.94,311Zm-.82-18.1a4.92,4.92,0,0,0-3.82,1.56,7.2,7.2,0,0,0-1.68,4.32H632a6.62,6.62,0,0,0-1.28-4.37A4.45,4.45,0,0,0,627.12,292.93Z"/><path d="M656.69,290.77v1.9l-3.69.44a6.41,6.41,0,0,1,.91,1.66,6.27,6.27,0,0,1,.4,2.32,5.87,5.87,0,0,1-2,4.66,8,8,0,0,1-5.48,1.75,8.79,8.79,0,0,1-1.67-.15,3,3,0,0,0-1.93,2.56,1.31,1.31,0,0,0,.67,1.21,4.94,4.94,0,0,0,2.31.39h3.52a7.88,7.88,0,0,1,5,1.36,4.73,4.73,0,0,1,1.74,4,5.64,5.64,0,0,1-2.66,5q-2.64,1.74-7.73,1.74a10.54,10.54,0,0,1-6-1.46,4.94,4.94,0,0,1-1-7.24,5.89,5.89,0,0,1,3.27-1.8,3.21,3.21,0,0,1-1.28-1.07,2.89,2.89,0,0,1-.52-1.69,3.27,3.27,0,0,1,.58-1.91,6.21,6.21,0,0,1,1.84-1.58,5.35,5.35,0,0,1-2.52-2.16,7.17,7.17,0,0,1,1-8.53A8,8,0,0,1,647,290.4a9.88,9.88,0,0,1,2.82.37ZM640.82,314a2.68,2.68,0,0,0,1.36,2.45,7.48,7.48,0,0,0,3.9.84,11,11,0,0,0,5.62-1.13,3.49,3.49,0,0,0,1.83-3.08,2.44,2.44,0,0,0-1-2.25,7.89,7.89,0,0,0-3.76-.62h-3.61a4.73,4.73,0,0,0-3.2,1A3.5,3.5,0,0,0,640.82,314Zm1.63-16.87a4,4,0,0,0,1.18,3.16,4.69,4.69,0,0,0,3.29,1.07q4.41,0,4.41-4.28,0-4.48-4.47-4.49a4.46,4.46,0,0,0-3.27,1.14A4.64,4.64,0,0,0,642.45,297.14Z"/><path d="M663.61,290.77v12.91a5.19,5.19,0,0,0,1.11,3.63,4.51,4.51,0,0,0,3.47,1.2,5.64,5.64,0,0,0,4.56-1.71c1-1.14,1.45-3,1.45-5.57V290.77h3v19.9h-2.48l-.44-2.67h-.16a6.05,6.05,0,0,1-2.57,2.25,8.67,8.67,0,0,1-3.75.78q-3.64,0-5.44-1.72t-1.81-5.52v-13Z"/><path d="M697.23,310.67V297.79a5.19,5.19,0,0,0-1.11-3.63,4.51,4.51,0,0,0-3.47-1.2,5.75,5.75,0,0,0-4.58,1.69c-1,1.13-1.45,3-1.45,5.58v10.44h-3v-19.9h2.45l.49,2.72h.14a6.22,6.22,0,0,1,2.6-2.28,8.45,8.45,0,0,1,3.72-.81,7.56,7.56,0,0,1,5.42,1.74q1.82,1.73,1.81,5.55v13Z"/><path d="M720,308h-.17a7.08,7.08,0,0,1-6.25,3,7.39,7.39,0,0,1-6.07-2.67q-2.18-2.67-2.17-7.59t2.18-7.64a8.07,8.07,0,0,1,12.28.21H720l-.12-1.43-.08-1.4v-8.1h3v28.26h-2.45Zm-6,.51a5.48,5.48,0,0,0,4.47-1.68q1.4-1.68,1.39-5.42v-.64q0-4.23-1.4-6a5.37,5.37,0,0,0-4.5-1.8,4.6,4.6,0,0,0-4.06,2.06,10.22,10.22,0,0,0-1.41,5.82,9.87,9.87,0,0,0,1.4,5.76A4.75,4.75,0,0,0,714,308.51Z"/><path d="M746.41,300.7q0,4.88-2.45,7.6a8.63,8.63,0,0,1-6.77,2.73,8.93,8.93,0,0,1-4.74-1.25,8.18,8.18,0,0,1-3.2-3.59,12.57,12.57,0,0,1-1.13-5.49q0-4.86,2.44-7.58a8.6,8.6,0,0,1,6.75-2.72,8.43,8.43,0,0,1,6.64,2.78A10.93,10.93,0,0,1,746.41,300.7Zm-15.16,0a9.49,9.49,0,0,0,1.52,5.81,6.05,6.05,0,0,0,9,0,9.35,9.35,0,0,0,1.54-5.82,9.23,9.23,0,0,0-1.54-5.77,5.39,5.39,0,0,0-4.53-2,5.31,5.31,0,0,0-4.47,2Q731.25,296.84,731.25,300.7Z"/><path d="M767.79,308.55a9.61,9.61,0,0,0,1.54-.12,9,9,0,0,0,1.18-.25v2.31a5.15,5.15,0,0,1-1.44.39,11.23,11.23,0,0,1-1.72.15c-3.85,0-5.77-2-5.77-6.08V293.11h-2.85v-1.45l2.85-1.26,1.27-4.25h1.74v4.62h5.78v2.34h-5.78v11.71a4,4,0,0,0,.86,2.76A3,3,0,0,0,767.79,308.55Z"/><path d="M782.9,311a9.14,9.14,0,0,1-7-2.68,10.39,10.39,0,0,1-2.56-7.47,11.5,11.5,0,0,1,2.37-7.64,7.89,7.89,0,0,1,6.37-2.84,7.51,7.51,0,0,1,5.92,2.46,9.46,9.46,0,0,1,2.18,6.5v1.9H776.51a7.88,7.88,0,0,0,1.77,5.32A6.1,6.1,0,0,0,783,308.4a16.18,16.18,0,0,0,6.36-1.34v2.68a15.45,15.45,0,0,1-3,1A17,17,0,0,1,782.9,311Zm-.82-18.1a4.92,4.92,0,0,0-3.82,1.56,7.2,7.2,0,0,0-1.68,4.32H787a6.68,6.68,0,0,0-1.27-4.37A4.48,4.48,0,0,0,782.08,292.93Zm-2.23-5.25c.58-.75,1.21-1.66,1.88-2.73a31.14,31.14,0,0,0,1.59-2.78H787v.39a29,29,0,0,1-2.38,2.9,28.37,28.37,0,0,1-2.74,2.67h-2Z"/><path d="M804.44,290.4a11.48,11.48,0,0,1,2.38.22l-.42,2.8a10.41,10.41,0,0,0-2.18-.28,5.31,5.31,0,0,0-4.13,2,7.15,7.15,0,0,0-1.72,4.88v10.68h-3v-19.9h2.49l.34,3.68h.15a8.78,8.78,0,0,1,2.67-3A5.94,5.94,0,0,1,804.44,290.4Z"/><path d="M835.92,310.67V297.72a5.39,5.39,0,0,0-1-3.57,3.94,3.94,0,0,0-3.16-1.19,5.1,5.1,0,0,0-4.16,1.62,7.67,7.67,0,0,0-1.34,5v11.11h-3V297.72a5.39,5.39,0,0,0-1-3.57A3.94,3.94,0,0,0,819,293a4.92,4.92,0,0,0-4.15,1.7q-1.32,1.69-1.32,5.57v10.44h-3v-19.9H813l.49,2.72h.14a5.87,5.87,0,0,1,2.41-2.27,7.27,7.27,0,0,1,3.48-.82q4.66,0,6.1,3.38h.14a6.47,6.47,0,0,1,2.58-2.47,8,8,0,0,1,3.85-.91,6.72,6.72,0,0,1,5.06,1.74q1.68,1.73,1.68,5.55v13Z"/><path d="M844.89,285.37a2,2,0,0,1,.51-1.52,1.78,1.78,0,0,1,1.27-.48,1.8,1.8,0,0,1,1.25.49,2,2,0,0,1,.53,1.51,2,2,0,0,1-.53,1.52,1.77,1.77,0,0,1-1.25.5,1.75,1.75,0,0,1-1.27-.5A2.05,2.05,0,0,1,844.89,285.37Zm3.27,25.3h-3v-19.9h3Z"/><path d="M868.17,310.67V297.79a5.24,5.24,0,0,0-1.1-3.63,4.52,4.52,0,0,0-3.47-1.2,5.74,5.74,0,0,0-4.58,1.69q-1.46,1.69-1.45,5.58v10.44h-3v-19.9H857l.49,2.72h.15a6.16,6.16,0,0,1,2.6-2.28,8.39,8.39,0,0,1,3.72-.81,7.53,7.53,0,0,1,5.41,1.74q1.82,1.73,1.82,5.55v13Z"/><path d="M894.56,300.7c0,3.25-.81,5.78-2.45,7.6a8.63,8.63,0,0,1-6.77,2.73,8.93,8.93,0,0,1-4.74-1.25,8.24,8.24,0,0,1-3.2-3.59,12.57,12.57,0,0,1-1.13-5.49q0-4.86,2.44-7.58a8.6,8.6,0,0,1,6.75-2.72,8.43,8.43,0,0,1,6.64,2.78A10.93,10.93,0,0,1,894.56,300.7Zm-15.16,0a9.49,9.49,0,0,0,1.52,5.81,6.05,6.05,0,0,0,9,0,9.35,9.35,0,0,0,1.54-5.82,9.23,9.23,0,0,0-1.54-5.77,5.39,5.39,0,0,0-4.53-2,5.28,5.28,0,0,0-4.46,2Q879.4,296.84,879.4,300.7Z"/><path d="M634.24,353.18a9.61,9.61,0,0,0,1.54-.12,9.82,9.82,0,0,0,1.19-.24v2.31a6.2,6.2,0,0,1-1.45.39,11.1,11.1,0,0,1-1.71.15c-3.86,0-5.78-2-5.78-6.08V337.74h-2.85v-1.45L628,335l1.27-4.25H631v4.61h5.78v2.34H631v11.72a4,4,0,0,0,.86,2.76A3,3,0,0,0,634.24,353.18Z"/><path d="M640.69,330a2,2,0,0,1,.51-1.52,1.88,1.88,0,0,1,2.52,0,2.42,2.42,0,0,1,0,3,1.73,1.73,0,0,1-1.25.5,1.71,1.71,0,0,1-1.27-.5A2,2,0,0,1,640.69,330Zm3.27,25.3h-3V335.4h3Z"/><path d="M658.76,355.67a9.18,9.18,0,0,1-7-2.69,10.4,10.4,0,0,1-2.55-7.46,11.55,11.55,0,0,1,2.37-7.65A7.88,7.88,0,0,1,658,335a7.51,7.51,0,0,1,5.92,2.46,9.43,9.43,0,0,1,2.18,6.49v1.91H652.37a7.88,7.88,0,0,0,1.77,5.32,6.13,6.13,0,0,0,4.73,1.82,16,16,0,0,0,6.36-1.35v2.69a16.14,16.14,0,0,1-3,1A17,17,0,0,1,658.76,355.67Zm-.82-18.11a4.92,4.92,0,0,0-3.82,1.56,7.25,7.25,0,0,0-1.68,4.33h10.41a6.68,6.68,0,0,0-1.27-4.37A4.49,4.49,0,0,0,657.94,337.56Z"/><path d="M684.84,355.31V342.43a5.19,5.19,0,0,0-1.11-3.63,4.51,4.51,0,0,0-3.47-1.2,5.7,5.7,0,0,0-4.57,1.69q-1.46,1.68-1.46,5.57v10.45h-3V335.4h2.45l.49,2.73h.15a6,6,0,0,1,2.59-2.28,8.47,8.47,0,0,1,3.73-.81,7.58,7.58,0,0,1,5.41,1.73q1.82,1.74,1.82,5.55v13Z"/><path d="M702.46,355.67a9.17,9.17,0,0,1-7-2.69,10.4,10.4,0,0,1-2.55-7.46,11.55,11.55,0,0,1,2.37-7.65,7.87,7.87,0,0,1,6.37-2.83,7.51,7.51,0,0,1,5.92,2.46,9.43,9.43,0,0,1,2.18,6.49v1.91H696.07a7.88,7.88,0,0,0,1.77,5.32,6.12,6.12,0,0,0,4.73,1.82,15.93,15.93,0,0,0,6.35-1.35v2.69a15.83,15.83,0,0,1-3,1A17,17,0,0,1,702.46,355.67Zm-.82-18.11a4.92,4.92,0,0,0-3.82,1.56,7.25,7.25,0,0,0-1.68,4.33h10.41a6.62,6.62,0,0,0-1.28-4.37A4.46,4.46,0,0,0,701.64,337.56Z"/><path d="M739.66,335a6.06,6.06,0,0,1-1.43,4.16,7.11,7.11,0,0,1-4,2.16v.15a7.57,7.57,0,0,1,4.74,2,6,6,0,0,1,1.54,4.29,7,7,0,0,1-2.63,5.84q-2.64,2-7.48,2a21.83,21.83,0,0,1-3.86-.32,13.21,13.21,0,0,1-3.41-1.11v-2.87a16.21,16.21,0,0,0,3.68,1.29,16.45,16.45,0,0,0,3.7.45q6.87,0,6.88-5.39,0-4.85-7.59-4.84h-2.62v-2.59h2.65a8.06,8.06,0,0,0,4.93-1.37,4.52,4.52,0,0,0,1.81-3.81,3.75,3.75,0,0,0-1.33-3.05,5.5,5.5,0,0,0-3.63-1.11,11.26,11.26,0,0,0-3.28.47,14.89,14.89,0,0,0-3.53,1.75l-1.52-2a12.61,12.61,0,0,1,3.77-2,13.68,13.68,0,0,1,4.49-.74,9.18,9.18,0,0,1,6,1.77A6,6,0,0,1,739.66,335Z"/><path d="M764.77,355.67a8.63,8.63,0,0,1-3.55-.72,6.65,6.65,0,0,1-2.69-2.2h-.22a27.68,27.68,0,0,1,.22,3.3v8.19h-3V335.4H758l.42,2.73h.15a7,7,0,0,1,2.7-2.37,8.29,8.29,0,0,1,3.54-.72,7.39,7.39,0,0,1,6.12,2.7q2.15,2.72,2.15,7.6c0,3.27-.73,5.8-2.19,7.61A7.34,7.34,0,0,1,764.77,355.67Zm-.43-18.07q-3.06,0-4.41,1.69c-.91,1.12-1.38,2.92-1.4,5.37v.68c0,2.79.46,4.79,1.4,6a5.32,5.32,0,0,0,4.48,1.81,4.66,4.66,0,0,0,4-2.09,9.88,9.88,0,0,0,1.46-5.76,9.48,9.48,0,0,0-1.46-5.71A4.78,4.78,0,0,0,764.34,337.6Z"/><path d="M790.55,355.31l-.6-2.84h-.15a8.3,8.3,0,0,1-3,2.54,9.06,9.06,0,0,1-3.69.66,6.62,6.62,0,0,1-4.64-1.53,5.55,5.55,0,0,1-1.68-4.34q0-6,9.64-6.32l3.38-.11v-1.23a5.05,5.05,0,0,0-1-3.46,4.13,4.13,0,0,0-3.22-1.12,13.08,13.08,0,0,0-5.63,1.53l-.93-2.31a14.27,14.27,0,0,1,3.22-1.25,14.12,14.12,0,0,1,3.52-.46q3.56,0,5.27,1.58t1.72,5.07v13.59Zm-6.81-2.13a6.12,6.12,0,0,0,4.42-1.54,5.72,5.72,0,0,0,1.61-4.32v-1.8l-3,.12a11,11,0,0,0-5.18,1.12,3.37,3.37,0,0,0-1.59,3.08,3.11,3.11,0,0,0,1,2.49A4.1,4.1,0,0,0,783.74,353.18Z"/><path d="M802,355.31h-3V327.05h3Z"/><path d="M808.15,330a2,2,0,0,1,.5-1.52,1.8,1.8,0,0,1,1.28-.48,1.76,1.76,0,0,1,1.25.49,2.42,2.42,0,0,1,0,3,1.85,1.85,0,0,1-2.53,0A2.05,2.05,0,0,1,808.15,330Zm3.27,25.3h-3V335.4h3Z"/><path d="M824.24,353.18a9.61,9.61,0,0,0,1.54-.12,9.22,9.22,0,0,0,1.18-.24v2.31a6.09,6.09,0,0,1-1.44.39,11.23,11.23,0,0,1-1.72.15q-5.77,0-5.77-6.08V337.74h-2.85v-1.45L818,335l1.27-4.25H821v4.61h5.78v2.34H821v11.72a4,4,0,0,0,.86,2.76A3,3,0,0,0,824.24,353.18Z"/><path d="M848.12,345.34q0,4.86-2.45,7.6a8.63,8.63,0,0,1-6.77,2.73,9.08,9.08,0,0,1-4.75-1.25,8.3,8.3,0,0,1-3.19-3.6,12.53,12.53,0,0,1-1.13-5.48q0-4.87,2.44-7.59A8.59,8.59,0,0,1,839,335a8.39,8.39,0,0,1,6.64,2.78A10.93,10.93,0,0,1,848.12,345.34Zm-15.16,0a9.43,9.43,0,0,0,1.52,5.81,6.05,6.05,0,0,0,9,0,9.37,9.37,0,0,0,1.54-5.82,9.21,9.21,0,0,0-1.54-5.77,5.39,5.39,0,0,0-4.53-2,5.33,5.33,0,0,0-4.47,1.94A9.41,9.41,0,0,0,833,345.34Z"/><path d="M866.25,349.88a5,5,0,0,1-2.07,4.28,9.7,9.7,0,0,1-5.81,1.51,12.73,12.73,0,0,1-6.18-1.25v-2.8a14.69,14.69,0,0,0,3.08,1.14,12.74,12.74,0,0,0,3.17.42,7.22,7.22,0,0,0,3.63-.75,2.6,2.6,0,0,0,.26-4.29,15.81,15.81,0,0,0-3.93-1.95,21,21,0,0,1-3.95-1.81,5.36,5.36,0,0,1-1.74-1.75,4.58,4.58,0,0,1-.57-2.34,4.44,4.44,0,0,1,2-3.84,9.19,9.19,0,0,1,5.43-1.41,15.75,15.75,0,0,1,6.28,1.31l-1.07,2.45a14.33,14.33,0,0,0-5.43-1.24,6.3,6.3,0,0,0-3.23.67,2.08,2.08,0,0,0-1.09,1.86,2.28,2.28,0,0,0,.4,1.36,4.28,4.28,0,0,0,1.32,1.07,29.42,29.42,0,0,0,3.49,1.47,13,13,0,0,1,4.78,2.6A4.59,4.59,0,0,1,866.25,349.88Z"/><path d="M1259.94,310.67h-3.09V286.86h-8.41v-2.74h19.91v2.74h-8.41Z"/><path d="M1280.3,311a9.15,9.15,0,0,1-7-2.68,10.43,10.43,0,0,1-2.55-7.47,11.5,11.5,0,0,1,2.37-7.64,7.87,7.87,0,0,1,6.37-2.84,7.52,7.52,0,0,1,5.92,2.46,9.46,9.46,0,0,1,2.18,6.5v1.9H1273.9a7.88,7.88,0,0,0,1.77,5.32,6.11,6.11,0,0,0,4.74,1.82,16.09,16.09,0,0,0,6.35-1.34v2.68a15.16,15.16,0,0,1-3,1A17,17,0,0,1,1280.3,311Zm-.82-18.1a4.92,4.92,0,0,0-3.82,1.56,7.07,7.07,0,0,0-1.68,4.32h10.4a6.62,6.62,0,0,0-1.27-4.37A4.48,4.48,0,0,0,1279.48,292.93Z"/><path d="M1301.84,290.4a11.54,11.54,0,0,1,2.38.22l-.42,2.8a10.41,10.41,0,0,0-2.18-.28,5.3,5.3,0,0,0-4.13,2,7.1,7.1,0,0,0-1.72,4.88v10.68h-3v-19.9h2.48l.35,3.68h.14a8.78,8.78,0,0,1,2.67-3A6,6,0,0,1,1301.84,290.4Z"/><path d="M1315.89,311a8.47,8.47,0,0,1-6.69-2.66q-2.37-2.65-2.37-7.52c0-3.33.8-5.91,2.41-7.72a8.65,8.65,0,0,1,6.85-2.73,13.28,13.28,0,0,1,2.87.31,9.67,9.67,0,0,1,2.26.73l-.93,2.56a13.27,13.27,0,0,0-2.18-.66,9.5,9.5,0,0,0-2.09-.27q-6.06,0-6.06,7.74a9.19,9.19,0,0,0,1.48,5.63,5.12,5.12,0,0,0,4.38,2,13.54,13.54,0,0,0,5.11-1.07V310A10.92,10.92,0,0,1,1315.89,311Z"/><path d="M1334.06,311a9.16,9.16,0,0,1-7-2.68,10.43,10.43,0,0,1-2.55-7.47,11.5,11.5,0,0,1,2.37-7.64,7.87,7.87,0,0,1,6.37-2.84,7.52,7.52,0,0,1,5.92,2.46,9.46,9.46,0,0,1,2.18,6.5v1.9h-13.72a7.93,7.93,0,0,0,1.77,5.32,6.11,6.11,0,0,0,4.74,1.82,16.09,16.09,0,0,0,6.35-1.34v2.68a15.16,15.16,0,0,1-3,1A17,17,0,0,1,1334.06,311Zm-.82-18.1a4.92,4.92,0,0,0-3.82,1.56,7.2,7.2,0,0,0-1.68,4.32h10.4a6.62,6.62,0,0,0-1.27-4.37A4.48,4.48,0,0,0,1333.24,292.93Z"/><path d="M1355.6,290.4a11.54,11.54,0,0,1,2.38.22l-.42,2.8a10.41,10.41,0,0,0-2.18-.28,5.3,5.3,0,0,0-4.13,2,7.1,7.1,0,0,0-1.72,4.88v10.68h-3v-19.9H1349l.35,3.68h.15a8.66,8.66,0,0,1,2.66-3A6,6,0,0,1,1355.6,290.4Z"/><path d="M1377.79,308.55a9.83,9.83,0,0,0,1.55-.12,9.34,9.34,0,0,0,1.18-.25v2.31a5.35,5.35,0,0,1-1.45.39,11,11,0,0,1-1.71.15c-3.85,0-5.78-2-5.78-6.08V293.11h-2.85v-1.45l2.85-1.26,1.27-4.25h1.75v4.62h5.77v2.34h-5.77v11.71a4,4,0,0,0,.85,2.76A3,3,0,0,0,1377.79,308.55Z"/><path d="M1392.9,311a9.14,9.14,0,0,1-7-2.68,10.43,10.43,0,0,1-2.55-7.47,11.5,11.5,0,0,1,2.37-7.64,7.87,7.87,0,0,1,6.36-2.84,7.49,7.49,0,0,1,5.92,2.46,9.41,9.41,0,0,1,2.18,6.5v1.9h-13.71a7.88,7.88,0,0,0,1.77,5.32,6.1,6.1,0,0,0,4.73,1.82,16.14,16.14,0,0,0,6.36-1.34v2.68a15.24,15.24,0,0,1-3,1A16.91,16.91,0,0,1,1392.9,311Zm-.81-18.1a4.94,4.94,0,0,0-3.83,1.56,7.2,7.2,0,0,0-1.68,4.32H1397a6.62,6.62,0,0,0-1.27-4.37A4.48,4.48,0,0,0,1392.09,292.93Zm-2.24-5.25c.58-.75,1.21-1.66,1.88-2.73a31.14,31.14,0,0,0,1.59-2.78H1397v.39a27.66,27.66,0,0,1-2.38,2.9,27.26,27.26,0,0,1-2.74,2.67h-2Z"/><path d="M1414.44,290.4a11.41,11.41,0,0,1,2.38.22l-.41,2.8a10.49,10.49,0,0,0-2.18-.28,5.33,5.33,0,0,0-4.14,2,7.14,7.14,0,0,0-1.71,4.88v10.68h-3v-19.9h2.49l.35,3.68h.14a8.78,8.78,0,0,1,2.67-3A6,6,0,0,1,1414.44,290.4Z"/><path d="M1445.92,310.67V297.72a5.39,5.39,0,0,0-1-3.57,3.94,3.94,0,0,0-3.16-1.19,5.1,5.1,0,0,0-4.16,1.62,7.73,7.73,0,0,0-1.34,5v11.11h-3V297.72a5.45,5.45,0,0,0-1-3.57A4,4,0,0,0,1429,293a4.93,4.93,0,0,0-4.15,1.7q-1.32,1.69-1.32,5.57v10.44h-3v-19.9H1423l.49,2.72h.14a5.93,5.93,0,0,1,2.41-2.27,7.3,7.3,0,0,1,3.48-.82q4.67,0,6.1,3.38h.15a6.34,6.34,0,0,1,2.58-2.47,7.94,7.94,0,0,1,3.85-.91,6.71,6.71,0,0,1,5,1.74q1.68,1.73,1.68,5.55v13Z"/><path d="M1454.89,285.37a2,2,0,0,1,.51-1.52,1.78,1.78,0,0,1,1.27-.48,1.83,1.83,0,0,1,1.26.49,2,2,0,0,1,.52,1.51,2,2,0,0,1-.52,1.52,1.79,1.79,0,0,1-1.26.5,1.75,1.75,0,0,1-1.27-.5A2.05,2.05,0,0,1,1454.89,285.37Zm3.27,25.3h-3v-19.9h3Z"/><path d="M1478.18,310.67V297.79a5.19,5.19,0,0,0-1.11-3.63,4.52,4.52,0,0,0-3.47-1.2,5.75,5.75,0,0,0-4.58,1.69q-1.45,1.69-1.45,5.58v10.44h-3v-19.9H1467l.49,2.72h.14a6.16,6.16,0,0,1,2.6-2.28,8.39,8.39,0,0,1,3.72-.81,7.53,7.53,0,0,1,5.41,1.74q1.82,1.73,1.82,5.55v13Z"/><path d="M1504.57,300.7q0,4.88-2.46,7.6a8.63,8.63,0,0,1-6.77,2.73,8.93,8.93,0,0,1-4.74-1.25,8.24,8.24,0,0,1-3.2-3.59,12.57,12.57,0,0,1-1.12-5.49q0-4.86,2.43-7.58a8.6,8.6,0,0,1,6.76-2.72,8.45,8.45,0,0,1,6.64,2.78A10.93,10.93,0,0,1,1504.57,300.7Zm-15.17,0a9.42,9.42,0,0,0,1.53,5.81,6.05,6.05,0,0,0,9,0,9.42,9.42,0,0,0,1.53-5.82,9.29,9.29,0,0,0-1.53-5.77,5.42,5.42,0,0,0-4.53-2,5.29,5.29,0,0,0-4.47,2Q1489.4,296.84,1489.4,300.7Z"/><path d="M1260.51,353.18a9.61,9.61,0,0,0,1.54-.12,9.22,9.22,0,0,0,1.18-.24v2.31a6.09,6.09,0,0,1-1.44.39,11.23,11.23,0,0,1-1.72.15q-5.77,0-5.77-6.08V337.74h-2.86v-1.45l2.86-1.25,1.27-4.25h1.74v4.61h5.78v2.34h-5.78v11.72a4.07,4.07,0,0,0,.85,2.76A3,3,0,0,0,1260.51,353.18Z"/><path d="M1267,330a2,2,0,0,1,.5-1.52,1.8,1.8,0,0,1,1.28-.48,1.76,1.76,0,0,1,1.25.49,2.42,2.42,0,0,1,0,3,1.85,1.85,0,0,1-2.53,0A2.05,2.05,0,0,1,1267,330Zm3.26,25.3h-3V335.4h3Z"/><path d="M1285,355.67a9.17,9.17,0,0,1-7-2.69,10.4,10.4,0,0,1-2.55-7.46,11.55,11.55,0,0,1,2.37-7.65,7.87,7.87,0,0,1,6.37-2.83,7.52,7.52,0,0,1,5.92,2.46,9.43,9.43,0,0,1,2.18,6.49v1.91h-13.72a7.83,7.83,0,0,0,1.78,5.32,6.1,6.1,0,0,0,4.73,1.82,15.93,15.93,0,0,0,6.35-1.35v2.69a15.83,15.83,0,0,1-3,1A17,17,0,0,1,1285,355.67Zm-.82-18.11a4.92,4.92,0,0,0-3.82,1.56,7.25,7.25,0,0,0-1.68,4.33h10.4a6.62,6.62,0,0,0-1.27-4.37A4.47,4.47,0,0,0,1284.21,337.56Z"/><path d="M1311.11,355.31V342.43a5.19,5.19,0,0,0-1.11-3.63,4.51,4.51,0,0,0-3.47-1.2,5.72,5.72,0,0,0-4.58,1.69c-1,1.12-1.45,3-1.45,5.57v10.45h-3V335.4h2.45l.49,2.73h.14a6.08,6.08,0,0,1,2.6-2.28,8.47,8.47,0,0,1,3.73-.81,7.59,7.59,0,0,1,5.41,1.73q1.82,1.74,1.81,5.55v13Z"/><path d="M1328.73,355.67a9.15,9.15,0,0,1-7-2.69,10.4,10.4,0,0,1-2.55-7.46,11.55,11.55,0,0,1,2.37-7.65,7.86,7.86,0,0,1,6.36-2.83,7.53,7.53,0,0,1,5.93,2.46,9.43,9.43,0,0,1,2.18,6.49v1.91h-13.72a7.88,7.88,0,0,0,1.77,5.32,6.14,6.14,0,0,0,4.74,1.82,15.93,15.93,0,0,0,6.35-1.35v2.69a15.83,15.83,0,0,1-3,1A17,17,0,0,1,1328.73,355.67Zm-.82-18.11a4.92,4.92,0,0,0-3.82,1.56,7.19,7.19,0,0,0-1.68,4.33h10.4a6.62,6.62,0,0,0-1.27-4.37A4.48,4.48,0,0,0,1327.91,337.56Z"/><path d="M1357.77,339.09a9.74,9.74,0,0,1,6.6,2.08,7.13,7.13,0,0,1,2.41,5.69,8.23,8.23,0,0,1-2.63,6.47,10.49,10.49,0,0,1-7.24,2.34,13.35,13.35,0,0,1-6.84-1.43v-2.91a10.47,10.47,0,0,0,3.16,1.28,15.52,15.52,0,0,0,3.72.46,7.47,7.47,0,0,0,5-1.5,5.42,5.42,0,0,0,1.77-4.36q0-5.56-6.81-5.56a26.41,26.41,0,0,0-4.62.53l-1.56-1,1-12.43h13.21v2.78h-10.63l-.67,8A21,21,0,0,1,1357.77,339.09Z"/><path d="M1391,355.67a8.6,8.6,0,0,1-3.55-.72,6.74,6.74,0,0,1-2.7-2.2h-.21a27.59,27.59,0,0,1,.21,3.3v8.19h-3V335.4h2.45l.42,2.73h.14a7.11,7.11,0,0,1,2.71-2.37A8.29,8.29,0,0,1,1391,335a7.35,7.35,0,0,1,6.11,2.7q2.16,2.72,2.16,7.6c0,3.27-.73,5.8-2.19,7.61A7.36,7.36,0,0,1,1391,355.67Zm-.43-18.07a5.34,5.34,0,0,0-4.42,1.69c-.91,1.12-1.37,2.92-1.4,5.37v.68q0,4.19,1.4,6a5.34,5.34,0,0,0,4.49,1.81,4.68,4.68,0,0,0,4-2.09,10,10,0,0,0,1.46-5.76,9.55,9.55,0,0,0-1.46-5.71A4.81,4.81,0,0,0,1390.61,337.6Z"/><path d="M1416.81,355.31l-.6-2.84h-.14a8.3,8.3,0,0,1-3,2.54,9.11,9.11,0,0,1-3.7.66,6.64,6.64,0,0,1-4.64-1.53,5.55,5.55,0,0,1-1.68-4.34q0-6,9.65-6.32l3.38-.11v-1.23a5.05,5.05,0,0,0-1-3.46,4.14,4.14,0,0,0-3.23-1.12,13.12,13.12,0,0,0-5.63,1.53l-.92-2.31a14.61,14.61,0,0,1,6.74-1.71q3.56,0,5.27,1.58t1.72,5.07v13.59Zm-6.81-2.13a6.14,6.14,0,0,0,4.43-1.54,5.71,5.71,0,0,0,1.6-4.32v-1.8l-3,.12a11,11,0,0,0-5.19,1.12,3.37,3.37,0,0,0-1.59,3.08,3.11,3.11,0,0,0,1,2.49A4.12,4.12,0,0,0,1410,353.18Z"/><path d="M1428.27,355.31h-3V327.05h3Z"/><path d="M1434.41,330a2,2,0,0,1,.51-1.52,1.89,1.89,0,0,1,2.53,0,2.45,2.45,0,0,1,0,3,1.73,1.73,0,0,1-1.26.5,1.71,1.71,0,0,1-1.27-.5A2,2,0,0,1,1434.41,330Zm3.27,25.3h-3V335.4h3Z"/><path d="M1450.51,353.18a9.7,9.7,0,0,0,1.54-.12,9.22,9.22,0,0,0,1.18-.24v2.31a6.24,6.24,0,0,1-1.44.39,11.23,11.23,0,0,1-1.72.15q-5.77,0-5.78-6.08V337.74h-2.85v-1.45l2.85-1.25,1.27-4.25h1.75v4.61h5.77v2.34h-5.77v11.72a4,4,0,0,0,.85,2.76A3,3,0,0,0,1450.51,353.18Z"/><path d="M1474.39,345.34q0,4.86-2.45,7.6a8.66,8.66,0,0,1-6.78,2.73,9,9,0,0,1-4.74-1.25,8.3,8.3,0,0,1-3.19-3.6,12.39,12.39,0,0,1-1.13-5.48q0-4.87,2.43-7.59a8.63,8.63,0,0,1,6.76-2.71,8.41,8.41,0,0,1,6.64,2.78A10.93,10.93,0,0,1,1474.39,345.34Zm-15.17,0a9.42,9.42,0,0,0,1.53,5.81,6.05,6.05,0,0,0,9,0,9.43,9.43,0,0,0,1.54-5.82,9.27,9.27,0,0,0-1.54-5.77,5.39,5.39,0,0,0-4.53-2,5.32,5.32,0,0,0-4.47,1.94A9.41,9.41,0,0,0,1459.22,345.34Z"/><path d="M1492.52,349.88a5,5,0,0,1-2.08,4.28,9.68,9.68,0,0,1-5.81,1.51,12.66,12.66,0,0,1-6.17-1.25v-2.8a14.48,14.48,0,0,0,3.08,1.14,12.74,12.74,0,0,0,3.17.42,7.22,7.22,0,0,0,3.63-.75,2.6,2.6,0,0,0,.26-4.29,15.81,15.81,0,0,0-3.93-1.95,21,21,0,0,1-4-1.81,5.5,5.5,0,0,1-1.75-1.75,4.58,4.58,0,0,1-.57-2.34,4.44,4.44,0,0,1,2-3.84,9.21,9.21,0,0,1,5.43-1.41,15.77,15.77,0,0,1,6.29,1.31L1491,338.8a14.33,14.33,0,0,0-5.44-1.24,6.35,6.35,0,0,0-3.23.67,2.1,2.1,0,0,0-1.09,1.86,2.28,2.28,0,0,0,.41,1.36,4.05,4.05,0,0,0,1.32,1.07,28.67,28.67,0,0,0,3.49,1.47,13,13,0,0,1,4.78,2.6A4.59,4.59,0,0,1,1492.52,349.88Z"/></svg>