<svg id="Layer_1" data-name="Layer 1" xmlns="http://www.w3.org/2000/svg" viewBox="0 0 1617.16 330.65"><defs><style>.cls-1{fill:#ffe2a1;}.cls-2{fill:#3a68ad;}.cls-3{font-size:30px;font-family:OpenSans-Regular, Open Sans;}</style></defs><title>Fosforos_U01_01</title><rect class="cls-1" x="1094.02" y="32.97" width="13.75" height="237.11"/><path class="cls-2" d="M1107.77,65.93H1094l-3.27-55.78A10.14,10.14,0,0,1,1100.9,0h0a10.15,10.15,0,0,1,10.15,10.15Z"/><rect class="cls-1" x="1600.13" y="0.02" width="13.75" height="237.11" transform="translate(3214.02 237.15) rotate(180)"/><path class="cls-2" d="M1600.13,204.17h13.75l3.28,55.78A10.16,10.16,0,0,1,1607,270.1h0A10.15,10.15,0,0,1,1596.86,260Z"/><rect class="cls-1" x="1458.76" y="-108.41" width="13.75" height="237.11" transform="translate(1475.78 -1455.49) rotate(90)"/><path class="cls-2" d="M1551.23,17V3.27L1607,0a10.15,10.15,0,0,1,10.15,10.15h0A10.16,10.16,0,0,1,1607,20.3Z"/><rect class="cls-1" x="1347.08" y="32.97" width="13.75" height="237.11"/><path class="cls-2" d="M1360.83,65.93h-13.75l-3.28-55.78A10.15,10.15,0,0,1,1354,0h0a10.14,10.14,0,0,1,10.15,10.15Z"/><rect class="cls-1" x="1205.7" y="144.65" width="13.75" height="237.11" transform="translate(1475.78 -949.38) rotate(90)"/><path class="cls-2" d="M1298.17,270.08V256.33l55.78-3.27a10.14,10.14,0,0,1,10.15,10.14h0A10.14,10.14,0,0,1,1354,273.35Z"/><rect class="cls-1" x="595.64" y="32.97" width="13.75" height="237.11"/><path class="cls-2" d="M609.38,65.93H595.64l-3.28-55.78A10.15,10.15,0,0,1,602.51,0h0a10.15,10.15,0,0,1,10.15,10.15Z"/><rect class="cls-1" x="848.69" y="32.97" width="13.75" height="237.11"/><path class="cls-2" d="M862.44,65.93H848.69l-3.27-55.78A10.14,10.14,0,0,1,855.57,0h0a10.14,10.14,0,0,1,10.14,10.15Z"/><rect class="cls-1" x="707.32" y="144.65" width="13.75" height="237.11" transform="translate(977.4 -450.99) rotate(90)"/><path class="cls-2" d="M799.78,270.08V256.33l55.79-3.27a10.14,10.14,0,0,1,10.14,10.14h0a10.14,10.14,0,0,1-10.14,10.15Z"/><rect class="cls-1" x="97.25" y="32.97" width="13.75" height="237.11"/><path class="cls-2" d="M111,65.93H97.25L94,10.15A10.15,10.15,0,0,1,104.12,0h0a10.14,10.14,0,0,1,10.15,10.15Z"/><text class="cls-3" transform="translate(0 322.52)">Primer término</text><text class="cls-3" transform="translate(603.27 322.52)">Segundo término</text><text class="cls-3" transform="translate(1251.73 322.52)">Tercer término</text></svg>