<svg id="Layer_1" data-name="Layer 1" xmlns="http://www.w3.org/2000/svg" viewBox="0 0 1039.39 379.33"><defs><style>.cls-1{fill:#d32a2a;}.cls-2{fill:#ffe2a1;}.cls-3{fill:#3a68ad;}</style></defs><title>Fosforos_U03_04_01</title><rect class="cls-1" x="1022.37" width="13.75" height="237.11" transform="translate(2058.49 237.11) rotate(180)"/><path class="cls-1" d="M1022.37,204.15h13.75l3.27,55.78a10.14,10.14,0,0,1-10.14,10.15h0a10.14,10.14,0,0,1-10.15-10.15Z"/><rect class="cls-1" x="881" y="-108.41" width="13.75" height="237.11" transform="translate(898.02 -877.72) rotate(90)"/><path class="cls-1" d="M973.46,17V3.27L1029.25,0a10.14,10.14,0,0,1,10.14,10.15h0a10.15,10.15,0,0,1-10.14,10.15Z"/><rect class="cls-2" x="769.32" y="32.97" width="13.75" height="237.11"/><path class="cls-3" d="M783.07,65.93H769.32L766,10.15A10.15,10.15,0,0,1,776.19,0h0a10.14,10.14,0,0,1,10.15,10.15Z"/><rect class="cls-2" x="627.94" y="144.65" width="13.75" height="237.11" transform="translate(898.02 -371.61) rotate(90)"/><path class="cls-3" d="M720.41,270.08V256.33l55.78-3.27a10.14,10.14,0,0,1,10.15,10.14h0a10.14,10.14,0,0,1-10.15,10.15Z"/><rect class="cls-2" x="3.27" y="32.97" width="13.75" height="237.11"/><path class="cls-3" d="M17,65.93H3.27L0,10.15A10.14,10.14,0,0,1,10.15,0h0A10.15,10.15,0,0,1,20.3,10.15Z"/><rect class="cls-2" x="509.39" y="0.02" width="13.75" height="237.11" transform="translate(1032.52 237.15) rotate(180)"/><path class="cls-3" d="M509.39,204.17h13.74L526.41,260a10.16,10.16,0,0,1-10.15,10.15h0A10.16,10.16,0,0,1,506.11,260Z"/><rect class="cls-2" x="368.01" y="-108.41" width="13.75" height="237.11" transform="translate(385.03 -364.74) rotate(90)"/><path class="cls-3" d="M460.48,17V3.27L516.26,0a10.15,10.15,0,0,1,10.15,10.15h0A10.16,10.16,0,0,1,516.26,20.3Z"/><rect class="cls-2" x="256.33" y="32.97" width="13.75" height="237.11"/><path class="cls-3" d="M270.08,65.93H256.33l-3.27-55.78A10.14,10.14,0,0,1,263.2,0h0a10.14,10.14,0,0,1,10.15,10.15Z"/><rect class="cls-2" x="114.96" y="144.65" width="13.75" height="237.11" transform="translate(385.03 141.37) rotate(90)"/><path class="cls-3" d="M207.42,270.08V256.33l55.78-3.27a10.14,10.14,0,0,1,10.15,10.14h0a10.14,10.14,0,0,1-10.15,10.15Z"/><path d="M433.15,306.94a7.46,7.46,0,0,1-2.75,6.21c-1.83,1.44-4.46,2.17-7.87,2.17H419.4v10.44h-3.09V299.21h6.89Q433.15,299.21,433.15,306.94Zm-13.75,5.72h2.78q4.11,0,5.94-1.32a4.89,4.89,0,0,0,1.83-4.25,4.57,4.57,0,0,0-1.72-3.92q-1.73-1.29-5.38-1.29H419.4Z"/><path d="M447.34,305.49a11.54,11.54,0,0,1,2.38.22l-.42,2.8a9.85,9.85,0,0,0-2.18-.28,5.32,5.32,0,0,0-4.13,2,7.14,7.14,0,0,0-1.72,4.89v10.68h-3V305.85h2.49l.35,3.69h.14a8.92,8.92,0,0,1,2.67-3A6,6,0,0,1,447.34,305.49Z"/><path d="M453.18,300.46a2,2,0,0,1,.51-1.52,1.79,1.79,0,0,1,1.27-.48,1.81,1.81,0,0,1,1.26.49,2,2,0,0,1,.52,1.51,2,2,0,0,1-.52,1.52,1.85,1.85,0,0,1-2.53,0A2.05,2.05,0,0,1,453.18,300.46Zm3.27,25.3h-3V305.85h3Z"/><path d="M488.22,325.76V312.81a5.36,5.36,0,0,0-1-3.57,3.94,3.94,0,0,0-3.16-1.19,5.11,5.11,0,0,0-4.16,1.62,7.72,7.72,0,0,0-1.34,5v11.11h-3V312.81a5.41,5.41,0,0,0-1-3.57,4,4,0,0,0-3.18-1.19,4.93,4.93,0,0,0-4.15,1.7q-1.32,1.69-1.32,5.57v10.44h-3V305.85h2.45l.49,2.73h.14a5.93,5.93,0,0,1,2.41-2.27,7.32,7.32,0,0,1,3.48-.82q4.67,0,6.1,3.38h.15a6.34,6.34,0,0,1,2.58-2.47,7.94,7.94,0,0,1,3.85-.91,6.71,6.71,0,0,1,5.05,1.74q1.68,1.72,1.68,5.54v13Z"/><path d="M505.86,326.12a9.15,9.15,0,0,1-7-2.68,10.43,10.43,0,0,1-2.55-7.47,11.55,11.55,0,0,1,2.37-7.65,7.89,7.89,0,0,1,6.36-2.83A7.53,7.53,0,0,1,511,308a9.45,9.45,0,0,1,2.17,6.49v1.91H499.46a7.88,7.88,0,0,0,1.77,5.32,6.1,6.1,0,0,0,4.73,1.82,16.11,16.11,0,0,0,6.36-1.34v2.68a15.83,15.83,0,0,1-3,1A17,17,0,0,1,505.86,326.12ZM505,308a5,5,0,0,0-3.83,1.56,7.2,7.2,0,0,0-1.68,4.32h10.41a6.62,6.62,0,0,0-1.27-4.37A4.48,4.48,0,0,0,505,308Z"/><path d="M527.4,305.49a11.54,11.54,0,0,1,2.38.22l-.42,2.8a9.85,9.85,0,0,0-2.18-.28,5.32,5.32,0,0,0-4.13,2,7.14,7.14,0,0,0-1.72,4.89v10.68h-3V305.85h2.49l.35,3.69h.14a8.92,8.92,0,0,1,2.67-3A6,6,0,0,1,527.4,305.49Z"/><path d="M549.59,323.64a9.61,9.61,0,0,0,1.54-.12,9,9,0,0,0,1.18-.25v2.31a5.15,5.15,0,0,1-1.44.39,11.12,11.12,0,0,1-1.72.15c-3.85,0-5.77-2-5.77-6.08V308.2h-2.85v-1.46l2.85-1.25,1.27-4.25h1.74v4.61h5.78v2.35h-5.78v11.71a4,4,0,0,0,.86,2.76A3,3,0,0,0,549.59,323.64Z"/><path d="M564.7,326.12a9.14,9.14,0,0,1-7-2.68,10.43,10.43,0,0,1-2.56-7.47,11.55,11.55,0,0,1,2.37-7.65,7.91,7.91,0,0,1,6.37-2.83,7.51,7.51,0,0,1,5.92,2.46,9.45,9.45,0,0,1,2.18,6.49v1.91H558.31a7.88,7.88,0,0,0,1.77,5.32,6.1,6.1,0,0,0,4.73,1.82,16.18,16.18,0,0,0,6.36-1.34v2.68a16.14,16.14,0,0,1-3,1A16.91,16.91,0,0,1,564.7,326.12Zm-.82-18.1a4.93,4.93,0,0,0-3.82,1.56,7.2,7.2,0,0,0-1.68,4.32h10.41a6.68,6.68,0,0,0-1.27-4.37A4.48,4.48,0,0,0,563.88,308Zm-2.23-5.25c.58-.75,1.21-1.66,1.88-2.73a31.14,31.14,0,0,0,1.59-2.78h3.67v.39a29,29,0,0,1-2.38,2.9,27.26,27.26,0,0,1-2.74,2.67h-2Z"/><path d="M586.24,305.49a11.41,11.41,0,0,1,2.38.22l-.42,2.8a9.78,9.78,0,0,0-2.18-.28,5.33,5.33,0,0,0-4.13,2,7.18,7.18,0,0,0-1.71,4.89v10.68h-3V305.85h2.49l.34,3.69h.15a8.92,8.92,0,0,1,2.67-3A6,6,0,0,1,586.24,305.49Z"/><path d="M617.72,325.76V312.81a5.36,5.36,0,0,0-1-3.57,3.94,3.94,0,0,0-3.16-1.19,5.1,5.1,0,0,0-4.16,1.62,7.66,7.66,0,0,0-1.34,5v11.11h-3V312.81a5.41,5.41,0,0,0-1-3.57,4,4,0,0,0-3.18-1.19,4.92,4.92,0,0,0-4.15,1.7q-1.32,1.69-1.32,5.57v10.44h-3V305.85h2.46l.49,2.73h.14a5.87,5.87,0,0,1,2.41-2.27,7.27,7.27,0,0,1,3.48-.82q4.66,0,6.1,3.38h.14a6.47,6.47,0,0,1,2.58-2.47,8,8,0,0,1,3.85-.91,6.72,6.72,0,0,1,5.06,1.74q1.68,1.72,1.68,5.54v13Z"/><path d="M626.69,300.46a2,2,0,0,1,.51-1.52,1.78,1.78,0,0,1,1.27-.48,1.8,1.8,0,0,1,1.25.49,2,2,0,0,1,.53,1.51,2,2,0,0,1-.53,1.52,1.77,1.77,0,0,1-1.25.5,1.75,1.75,0,0,1-1.27-.5A2.05,2.05,0,0,1,626.69,300.46Zm3.27,25.3h-3V305.85h3Z"/><path d="M650,325.76V312.88a5.24,5.24,0,0,0-1.1-3.63,4.52,4.52,0,0,0-3.47-1.2,5.74,5.74,0,0,0-4.58,1.69q-1.46,1.69-1.45,5.58v10.44h-3V305.85h2.45l.49,2.73h.15a6.16,6.16,0,0,1,2.6-2.28,8.39,8.39,0,0,1,3.72-.81,7.53,7.53,0,0,1,5.41,1.74Q653,309,653,312.77v13Z"/><path d="M676.36,315.79c0,3.24-.81,5.78-2.45,7.6a8.63,8.63,0,0,1-6.77,2.73,8.93,8.93,0,0,1-4.74-1.25,8.27,8.27,0,0,1-3.2-3.6,12.53,12.53,0,0,1-1.13-5.48c0-3.25.82-5.77,2.44-7.58a8.6,8.6,0,0,1,6.75-2.72,8.43,8.43,0,0,1,6.64,2.78A10.93,10.93,0,0,1,676.36,315.79Zm-15.16,0a9.49,9.49,0,0,0,1.52,5.81,6.06,6.06,0,0,0,9,0,9.44,9.44,0,0,0,1.53-5.82,9.29,9.29,0,0,0-1.53-5.77,5.43,5.43,0,0,0-4.54-2,5.28,5.28,0,0,0-4.46,1.95Q661.2,311.94,661.2,315.79Z"/><path d="M433.51,368.27a9.74,9.74,0,0,0,1.55-.12,12,12,0,0,0,1.18-.24v2.3a5.68,5.68,0,0,1-1.45.4,11,11,0,0,1-1.71.15q-5.77,0-5.78-6.08V352.83h-2.85v-1.45l2.85-1.25,1.27-4.25h1.75v4.61h5.77v2.34h-5.77v11.72a4,4,0,0,0,.85,2.76A3,3,0,0,0,433.51,368.27Z"/><path d="M440,345.1a2,2,0,0,1,.51-1.52,1.89,1.89,0,0,1,2.53,0,2.45,2.45,0,0,1,0,3,1.75,1.75,0,0,1-1.26.5,1.71,1.71,0,0,1-1.27-.5A2,2,0,0,1,440,345.1Zm3.27,25.3h-3V350.49h3Z"/><path d="M458,370.76a9.14,9.14,0,0,1-7-2.69,10.4,10.4,0,0,1-2.55-7.46,11.55,11.55,0,0,1,2.37-7.65,7.86,7.86,0,0,1,6.36-2.83,7.49,7.49,0,0,1,5.92,2.46,9.39,9.39,0,0,1,2.18,6.49V361H451.64a7.88,7.88,0,0,0,1.77,5.32,6.13,6.13,0,0,0,4.73,1.82,16,16,0,0,0,6.36-1.35v2.69a16.06,16.06,0,0,1-3,1A17.09,17.09,0,0,1,458,370.76Zm-.81-18.11a4.94,4.94,0,0,0-3.83,1.56,7.25,7.25,0,0,0-1.68,4.33h10.41a6.62,6.62,0,0,0-1.27-4.37A4.48,4.48,0,0,0,457.22,352.65Z"/><path d="M484.11,370.4V357.52a5.19,5.19,0,0,0-1.1-3.63,4.52,4.52,0,0,0-3.47-1.2,5.72,5.72,0,0,0-4.58,1.69q-1.45,1.68-1.45,5.57V370.4h-3V350.49h2.45l.5,2.72h.14a6.16,6.16,0,0,1,2.6-2.28,8.53,8.53,0,0,1,3.72-.8,7.53,7.53,0,0,1,5.41,1.73q1.81,1.74,1.82,5.55v13Z"/><path d="M501.73,370.76a9.14,9.14,0,0,1-7-2.69,10.4,10.4,0,0,1-2.55-7.46,11.55,11.55,0,0,1,2.37-7.65,7.86,7.86,0,0,1,6.36-2.83,7.49,7.49,0,0,1,5.92,2.46,9.39,9.39,0,0,1,2.18,6.49V361H495.34a7.88,7.88,0,0,0,1.77,5.32,6.13,6.13,0,0,0,4.73,1.82,16,16,0,0,0,6.36-1.35v2.69a16.14,16.14,0,0,1-3,1A16.91,16.91,0,0,1,501.73,370.76Zm-.81-18.11a4.94,4.94,0,0,0-3.83,1.56,7.25,7.25,0,0,0-1.68,4.33h10.41a6.68,6.68,0,0,0-1.27-4.37A4.48,4.48,0,0,0,500.92,352.65Z"/><path d="M539.93,355.18q0,15.57-12.06,15.58a12.33,12.33,0,0,1-3.34-.36v-2.6a10.77,10.77,0,0,0,3.3.47c2.91,0,5.1-.9,6.59-2.7s2.29-4.55,2.42-8.27h-.22a6.43,6.43,0,0,1-2.65,2.3,8.6,8.6,0,0,1-3.72.79,7.48,7.48,0,0,1-5.6-2.11,8,8,0,0,1-2.07-5.88,9,9,0,0,1,2.32-6.54,8.85,8.85,0,0,1,10.82-1,8.85,8.85,0,0,1,3.12,4A16.63,16.63,0,0,1,539.93,355.18ZM531,346a5,5,0,0,0-4,1.67,7,7,0,0,0-1.42,4.65,6,6,0,0,0,1.31,4.11,5,5,0,0,0,4,1.5,6.87,6.87,0,0,0,3-.67,5.57,5.57,0,0,0,2.19-1.83,4.28,4.28,0,0,0,.8-2.44,8.26,8.26,0,0,0-.75-3.52,6,6,0,0,0-2.08-2.54A5.22,5.22,0,0,0,531,346Z"/><path d="M564.05,370.76a8.56,8.56,0,0,1-3.55-.72,6.74,6.74,0,0,1-2.7-2.2h-.22a25.74,25.74,0,0,1,.22,3.3v8.19h-3V350.49h2.46l.41,2.72h.15a7,7,0,0,1,2.71-2.36,8.26,8.26,0,0,1,3.54-.72,7.37,7.37,0,0,1,6.11,2.7q2.15,2.71,2.15,7.6T570.12,368A7.37,7.37,0,0,1,564.05,370.76Zm-.44-18.07a5.33,5.33,0,0,0-4.41,1.69c-.91,1.12-1.38,2.92-1.4,5.37v.68q0,4.19,1.4,6a5.33,5.33,0,0,0,4.48,1.81,4.69,4.69,0,0,0,4.05-2.09,10,10,0,0,0,1.46-5.76,9.55,9.55,0,0,0-1.46-5.71A4.81,4.81,0,0,0,563.61,352.69Z"/><path d="M589.82,370.4l-.6-2.84h-.14a8.58,8.58,0,0,1-3,2.54,9.11,9.11,0,0,1-3.7.66,6.64,6.64,0,0,1-4.64-1.53,5.55,5.55,0,0,1-1.68-4.34q0-6,9.64-6.32l3.38-.11v-1.23a5,5,0,0,0-1-3.46,4.11,4.11,0,0,0-3.22-1.12,13.08,13.08,0,0,0-5.63,1.53l-.93-2.31a14.69,14.69,0,0,1,6.74-1.71q3.56,0,5.28,1.58t1.71,5.07V370.4ZM583,368.27a6.1,6.1,0,0,0,4.42-1.54A5.73,5.73,0,0,0,589,362.4v-1.79l-3,.12a11,11,0,0,0-5.18,1.12,3.37,3.37,0,0,0-1.59,3.08,3.11,3.11,0,0,0,1,2.49A4.1,4.1,0,0,0,583,368.27Z"/><path d="M601.28,370.4h-3V342.14h3Z"/><path d="M607.42,345.1a2,2,0,0,1,.51-1.52,1.88,1.88,0,0,1,2.52,0,2.42,2.42,0,0,1,0,3,1.73,1.73,0,0,1-1.25.5,1.71,1.71,0,0,1-1.27-.5A2,2,0,0,1,607.42,345.1Zm3.27,25.3h-3V350.49h3Z"/><path d="M623.51,368.27a9.83,9.83,0,0,0,1.55-.12,12,12,0,0,0,1.18-.24v2.3a5.68,5.68,0,0,1-1.45.4,11.1,11.1,0,0,1-1.71.15q-5.77,0-5.78-6.08V352.83h-2.85v-1.45l2.85-1.25,1.27-4.25h1.74v4.61h5.78v2.34h-5.78v11.72a4,4,0,0,0,.86,2.76A3,3,0,0,0,623.51,368.27Z"/><path d="M647.4,360.43q0,4.86-2.46,7.6a8.63,8.63,0,0,1-6.77,2.73,9,9,0,0,1-4.74-1.25,8.32,8.32,0,0,1-3.2-3.6,12.53,12.53,0,0,1-1.12-5.48q0-4.87,2.43-7.59a8.6,8.6,0,0,1,6.76-2.71,8.39,8.39,0,0,1,6.63,2.78A10.94,10.94,0,0,1,647.4,360.43Zm-15.17,0a9.42,9.42,0,0,0,1.53,5.81,5.29,5.29,0,0,0,4.48,2,5.37,5.37,0,0,0,4.5-2,9.44,9.44,0,0,0,1.53-5.82,9.26,9.26,0,0,0-1.53-5.77,5.4,5.4,0,0,0-4.54-2,5.3,5.3,0,0,0-4.46,1.94Q632.23,356.58,632.23,360.43Z"/><path d="M665.52,365a5,5,0,0,1-2.07,4.28,9.7,9.7,0,0,1-5.81,1.51,12.73,12.73,0,0,1-6.18-1.25v-2.8a14.9,14.9,0,0,0,3.08,1.14,12.8,12.8,0,0,0,3.17.42,7.17,7.17,0,0,0,3.63-.75,2.59,2.59,0,0,0,.27-4.29,16.19,16.19,0,0,0-3.93-2,21.13,21.13,0,0,1-4-1.81,5.36,5.36,0,0,1-1.74-1.75,4.61,4.61,0,0,1-.57-2.34,4.47,4.47,0,0,1,2-3.85,9.29,9.29,0,0,1,5.43-1.4,15.88,15.88,0,0,1,6.28,1.3L664,353.89a14.33,14.33,0,0,0-5.43-1.24,6.3,6.3,0,0,0-3.23.67,2.08,2.08,0,0,0-1.09,1.86,2.28,2.28,0,0,0,.41,1.36,4.11,4.11,0,0,0,1.31,1.07,29.42,29.42,0,0,0,3.49,1.47,13.1,13.1,0,0,1,4.79,2.6A4.58,4.58,0,0,1,665.52,365Z"/></svg>