<svg id="Layer_1" data-name="Layer 1" xmlns="http://www.w3.org/2000/svg" viewBox="0 0 1944.09 381.92"><defs><style>.cls-1{fill:#d32a2a;}.cls-2{fill:#ffe2a1;}.cls-3{fill:#3a68ad;}.cls-4{font-size:30px;font-family:OpenSans-Regular, Open Sans;}</style></defs><title>Fosforos_U02_02</title><rect class="cls-1" x="1785.69" y="144.65" width="13.75" height="237.11" transform="translate(2055.77 -1529.36) rotate(90)"/><path class="cls-1" d="M1878.16,270.08V256.33l55.78-3.27a10.14,10.14,0,0,1,10.15,10.14h0a10.14,10.14,0,0,1-10.15,10.15Z"/><rect class="cls-2" x="1161.03" y="32.97" width="13.75" height="237.11"/><path class="cls-3" d="M1174.77,65.93H1161l-3.28-55.78A10.15,10.15,0,0,1,1167.9,0h0a10.15,10.15,0,0,1,10.15,10.15Z"/><rect class="cls-1" x="1667.14" y="0.02" width="13.75" height="237.11" transform="translate(3348.02 237.15) rotate(180)"/><path class="cls-1" d="M1667.14,204.17h13.75l3.27,55.78A10.15,10.15,0,0,1,1674,270.1h0A10.16,10.16,0,0,1,1663.86,260Z"/><rect class="cls-2" x="1525.76" y="-108.41" width="13.75" height="237.11" transform="translate(1542.79 -1522.49) rotate(90)"/><path class="cls-3" d="M1618.23,17V3.27L1674,0a10.14,10.14,0,0,1,10.15,10.15h0A10.15,10.15,0,0,1,1674,20.3Z"/><rect class="cls-2" x="1414.08" y="32.97" width="13.75" height="237.11"/><path class="cls-3" d="M1427.83,65.93h-13.75l-3.27-55.78A10.14,10.14,0,0,1,1421,0h0a10.14,10.14,0,0,1,10.14,10.15Z"/><rect class="cls-2" x="1272.71" y="144.65" width="13.75" height="237.11" transform="translate(1542.79 -1016.38) rotate(90)"/><path class="cls-3" d="M1365.17,270.08V256.33l55.79-3.27a10.14,10.14,0,0,1,10.14,10.14h0A10.14,10.14,0,0,1,1421,273.35Z"/><rect class="cls-2" x="501.66" y="32.97" width="13.75" height="237.11"/><path class="cls-3" d="M515.41,65.93H501.66l-3.27-55.78A10.14,10.14,0,0,1,508.54,0h0a10.14,10.14,0,0,1,10.14,10.15Z"/><rect class="cls-1" x="866.4" y="-108.41" width="13.75" height="237.11" transform="translate(883.42 -863.13) rotate(90)"/><path class="cls-1" d="M958.87,17V3.27L1014.65,0a10.15,10.15,0,0,1,10.15,10.15h0a10.16,10.16,0,0,1-10.15,10.15Z"/><rect class="cls-1" x="754.72" y="32.97" width="13.75" height="237.11"/><path class="cls-1" d="M768.47,65.93H754.72l-3.28-55.78A10.15,10.15,0,0,1,761.59,0h0a10.14,10.14,0,0,1,10.15,10.15Z"/><rect class="cls-2" x="613.34" y="144.65" width="13.75" height="237.11" transform="translate(883.42 -357.01) rotate(90)"/><path class="cls-3" d="M705.81,270.08V256.33l55.78-3.27a10.14,10.14,0,0,1,10.15,10.14h0a10.14,10.14,0,0,1-10.15,10.15Z"/><rect class="cls-2" x="3.27" y="32.97" width="13.75" height="237.11"/><path class="cls-3" d="M17,65.93H3.27L0,10.15A10.14,10.14,0,0,1,10.15,0h0A10.15,10.15,0,0,1,20.3,10.15Z"/><rect class="cls-2" x="114.96" y="144.65" width="13.75" height="237.11" transform="translate(385.03 141.37) rotate(90)"/><path class="cls-3" d="M207.42,270.08V256.33l55.78-3.27a10.14,10.14,0,0,1,10.15,10.14h0a10.14,10.14,0,0,1-10.15,10.15Z"/><text class="cls-4" transform="translate(34.78 337.79)">Primer término<tspan x="9.05" y="36">tiene 2 palitos</tspan></text><text class="cls-4" transform="translate(637.96 337.79)">Segundo término<tspan x="23.14" y="36">tiene 4 palitos</tspan></text><text class="cls-4" transform="translate(1458.76 337.79)">Tercer término<tspan x="6.13" y="36">tiene 6 palitos</tspan></text></svg>