<svg id="Layer_1" data-name="Layer 1" xmlns="http://www.w3.org/2000/svg" viewBox="0 0 1944.09 381.37"><defs><style>.cls-1{fill:#d32a2a;}.cls-2{fill:#ffe2a1;}.cls-3{fill:#3a68ad;}</style></defs><title>Fosforos_U02_04</title><rect class="cls-1" x="1927.07" y="35.35" width="13.75" height="237.11"/><path class="cls-1" d="M1940.82,68.31h-13.75l-3.28-55.78a10.16,10.16,0,0,1,10.15-10.15h0a10.15,10.15,0,0,1,10.15,10.15Z"/><rect class="cls-1" x="1785.69" y="147.03" width="13.75" height="237.11" transform="translate(2058.16 -1526.98) rotate(90)"/><path class="cls-1" d="M1878.16,272.46V258.71l55.78-3.27a10.14,10.14,0,0,1,10.15,10.15h0a10.15,10.15,0,0,1-10.15,10.15Z"/><rect class="cls-2" x="1161.03" y="35.35" width="13.75" height="237.11"/><path class="cls-3" d="M1174.77,68.31H1161l-3.28-55.78A10.16,10.16,0,0,1,1167.9,2.38h0a10.16,10.16,0,0,1,10.15,10.15Z"/><rect class="cls-2" x="1667.14" y="2.4" width="13.75" height="237.11" transform="translate(3348.02 241.92) rotate(180)"/><path class="cls-3" d="M1667.14,206.55h13.75l3.27,55.78A10.14,10.14,0,0,1,1674,272.48h0a10.15,10.15,0,0,1-10.15-10.15Z"/><rect class="cls-2" x="1525.76" y="-106.02" width="13.75" height="237.11" transform="translate(1545.17 -1520.11) rotate(90)"/><path class="cls-3" d="M1618.23,19.41V5.66L1674,2.38a10.15,10.15,0,0,1,10.15,10.15h0A10.14,10.14,0,0,1,1674,22.68Z"/><rect class="cls-2" x="1414.08" y="35.35" width="13.75" height="237.11"/><path class="cls-3" d="M1427.83,68.31h-13.75l-3.27-55.78A10.15,10.15,0,0,1,1421,2.38h0a10.15,10.15,0,0,1,10.14,10.15Z"/><rect class="cls-2" x="1272.71" y="147.03" width="13.75" height="237.11" transform="translate(1545.17 -1013.99) rotate(90)"/><path class="cls-3" d="M1365.17,272.46V258.71l55.79-3.27a10.14,10.14,0,0,1,10.14,10.15h0A10.15,10.15,0,0,1,1421,275.74Z"/><rect class="cls-2" x="501.66" y="32.97" width="13.75" height="237.11"/><path class="cls-3" d="M515.41,65.93H501.66l-3.27-55.78A10.14,10.14,0,0,1,508.54,0h0a10.14,10.14,0,0,1,10.14,10.15Z"/><rect class="cls-1" x="1007.77" y="0.02" width="13.75" height="237.11" transform="translate(2029.29 237.15) rotate(180)"/><path class="cls-1" d="M1007.77,204.17h13.75L1024.8,260a10.16,10.16,0,0,1-10.15,10.15h0A10.15,10.15,0,0,1,1004.5,260Z"/><rect class="cls-1" x="866.4" y="-108.41" width="13.75" height="237.11" transform="translate(883.42 -863.13) rotate(90)"/><path class="cls-1" d="M958.87,17V3.27L1014.65,0a10.15,10.15,0,0,1,10.15,10.15h0a10.16,10.16,0,0,1-10.15,10.15Z"/><rect class="cls-2" x="754.72" y="32.97" width="13.75" height="237.11"/><path class="cls-3" d="M768.47,65.93H754.72l-3.28-55.78A10.15,10.15,0,0,1,761.59,0h0a10.14,10.14,0,0,1,10.15,10.15Z"/><rect class="cls-2" x="613.34" y="144.65" width="13.75" height="237.11" transform="translate(883.42 -357.01) rotate(90)"/><path class="cls-3" d="M705.81,270.08V256.33l55.78-3.27a10.14,10.14,0,0,1,10.15,10.14h0a10.14,10.14,0,0,1-10.15,10.15Z"/><rect class="cls-2" x="3.27" y="35.35" width="13.75" height="237.11"/><path class="cls-3" d="M17,68.31H3.27L0,12.53A10.15,10.15,0,0,1,10.15,2.38h0A10.16,10.16,0,0,1,20.3,12.53Z"/><rect class="cls-2" x="256.33" y="35.35" width="13.75" height="237.11"/><path class="cls-3" d="M270.08,68.31H256.33l-3.27-55.78A10.15,10.15,0,0,1,263.2,2.38h0a10.15,10.15,0,0,1,10.15,10.15Z"/><rect class="cls-2" x="114.96" y="147.03" width="13.75" height="237.11" transform="translate(387.42 143.76) rotate(90)"/><path class="cls-3" d="M207.42,272.46V258.71l55.78-3.27a10.14,10.14,0,0,1,10.15,10.15h0a10.15,10.15,0,0,1-10.15,10.15Z"/><path d="M43.47,306.94a7.46,7.46,0,0,1-2.75,6.21c-1.84,1.44-4.46,2.17-7.88,2.17H29.72v10.44H26.63V299.21h6.88Q43.47,299.21,43.47,306.94Zm-13.75,5.72H32.5q4.09,0,5.94-1.32a4.89,4.89,0,0,0,1.83-4.25,4.57,4.57,0,0,0-1.72-3.92c-1.15-.86-2.95-1.29-5.38-1.29H29.72Z"/><path d="M57.65,305.49a11.41,11.41,0,0,1,2.38.22l-.42,2.8a9.78,9.78,0,0,0-2.18-.28,5.33,5.33,0,0,0-4.13,2,7.18,7.18,0,0,0-1.71,4.89v10.68h-3V305.85h2.49l.34,3.69h.15a8.92,8.92,0,0,1,2.67-3A6,6,0,0,1,57.65,305.49Z"/><path d="M63.5,300.46a2,2,0,0,1,.51-1.52,1.88,1.88,0,0,1,2.52,0,2,2,0,0,1,.53,1.51,2,2,0,0,1-.53,1.52A1.84,1.84,0,0,1,64,302,2.05,2.05,0,0,1,63.5,300.46Zm3.27,25.3h-3V305.85h3Z"/><path d="M98.54,325.76V312.81a5.36,5.36,0,0,0-1-3.57,3.94,3.94,0,0,0-3.16-1.19,5.1,5.1,0,0,0-4.16,1.62,7.66,7.66,0,0,0-1.34,5v11.11h-3V312.81a5.36,5.36,0,0,0-1-3.57,3.94,3.94,0,0,0-3.17-1.19,4.92,4.92,0,0,0-4.15,1.7q-1.32,1.69-1.32,5.57v10.44h-3V305.85h2.46l.49,2.73h.14a5.87,5.87,0,0,1,2.41-2.27,7.27,7.27,0,0,1,3.48-.82q4.67,0,6.1,3.38h.14A6.47,6.47,0,0,1,91,306.4a8,8,0,0,1,3.85-.91,6.74,6.74,0,0,1,5.06,1.74q1.68,1.72,1.68,5.54v13Z"/><path d="M116.17,326.12a9.14,9.14,0,0,1-7-2.68,10.43,10.43,0,0,1-2.56-7.47,11.5,11.5,0,0,1,2.38-7.65,7.88,7.88,0,0,1,6.36-2.83,7.51,7.51,0,0,1,5.92,2.46,9.45,9.45,0,0,1,2.18,6.49v1.91H109.78a7.88,7.88,0,0,0,1.77,5.32,6.1,6.1,0,0,0,4.73,1.82,16.18,16.18,0,0,0,6.36-1.34v2.68a16.14,16.14,0,0,1-3,1A16.91,16.91,0,0,1,116.17,326.12Zm-.82-18.1a4.93,4.93,0,0,0-3.82,1.56,7.2,7.2,0,0,0-1.68,4.32h10.41a6.68,6.68,0,0,0-1.27-4.37A4.48,4.48,0,0,0,115.35,308Z"/><path d="M137.71,305.49a11.41,11.41,0,0,1,2.38.22l-.42,2.8a9.78,9.78,0,0,0-2.18-.28,5.33,5.33,0,0,0-4.13,2,7.18,7.18,0,0,0-1.71,4.89v10.68h-3V305.85h2.49l.34,3.69h.15a8.92,8.92,0,0,1,2.67-3A6,6,0,0,1,137.71,305.49Z"/><path d="M159.91,323.64a9.7,9.7,0,0,0,1.54-.12,9,9,0,0,0,1.18-.25v2.31a5.37,5.37,0,0,1-1.44.39,11.23,11.23,0,0,1-1.72.15c-3.85,0-5.77-2-5.77-6.08V308.2h-2.86v-1.46l2.86-1.25,1.27-4.25h1.74v4.61h5.78v2.35h-5.78v11.71a4,4,0,0,0,.85,2.76A3,3,0,0,0,159.91,323.64Z"/><path d="M175,326.12a9.16,9.16,0,0,1-7-2.68A10.43,10.43,0,0,1,165.5,316a11.55,11.55,0,0,1,2.37-7.65,7.9,7.9,0,0,1,6.37-2.83,7.51,7.51,0,0,1,5.92,2.46,9.45,9.45,0,0,1,2.18,6.49v1.91H168.62a7.93,7.93,0,0,0,1.78,5.32,6.08,6.08,0,0,0,4.73,1.82,16.09,16.09,0,0,0,6.35-1.34v2.68a15.83,15.83,0,0,1-3,1A17,17,0,0,1,175,326.12ZM174.2,308a4.92,4.92,0,0,0-3.82,1.56,7.2,7.2,0,0,0-1.68,4.32h10.4a6.62,6.62,0,0,0-1.27-4.37A4.46,4.46,0,0,0,174.2,308ZM172,302.77c.58-.75,1.2-1.66,1.88-2.73a31.14,31.14,0,0,0,1.59-2.78h3.66v.39a33,33,0,0,1-5.12,5.57h-2Z"/><path d="M196.56,305.49a11.48,11.48,0,0,1,2.38.22l-.42,2.8a9.78,9.78,0,0,0-2.18-.28,5.32,5.32,0,0,0-4.13,2,7.14,7.14,0,0,0-1.72,4.89v10.68h-3V305.85H190l.34,3.69h.15a8.71,8.71,0,0,1,2.67-3A6,6,0,0,1,196.56,305.49Z"/><path d="M228,325.76V312.81a5.36,5.36,0,0,0-1-3.57,3.94,3.94,0,0,0-3.16-1.19,5.09,5.09,0,0,0-4.16,1.62,7.65,7.65,0,0,0-1.35,5v11.11h-3V312.81a5.36,5.36,0,0,0-1-3.57,4,4,0,0,0-3.18-1.19,4.93,4.93,0,0,0-4.15,1.7q-1.31,1.69-1.31,5.57v10.44h-3V305.85h2.45l.49,2.73h.15a5.87,5.87,0,0,1,2.41-2.27,7.26,7.26,0,0,1,3.47-.82c3.12,0,5.15,1.13,6.11,3.38h.14a6.34,6.34,0,0,1,2.58-2.47,8,8,0,0,1,3.85-.91,6.74,6.74,0,0,1,5.06,1.74q1.68,1.72,1.68,5.54v13Z"/><path d="M237,300.46a2,2,0,0,1,.51-1.52,1.76,1.76,0,0,1,1.27-.48A1.8,1.8,0,0,1,240,299a2,2,0,0,1,.53,1.51A2,2,0,0,1,240,302a1.77,1.77,0,0,1-1.25.5,1.73,1.73,0,0,1-1.27-.5A2.05,2.05,0,0,1,237,300.46Zm3.27,25.3h-3V305.85h3Z"/><path d="M260.29,325.76V312.88a5.19,5.19,0,0,0-1.11-3.63,4.51,4.51,0,0,0-3.47-1.2,5.73,5.73,0,0,0-4.57,1.69q-1.45,1.69-1.46,5.58v10.44h-3V305.85h2.45l.49,2.73h.15a6.13,6.13,0,0,1,2.59-2.28,8.47,8.47,0,0,1,3.73-.81,7.55,7.55,0,0,1,5.41,1.74q1.81,1.72,1.82,5.54v13Z"/><path d="M286.68,315.79c0,3.24-.82,5.78-2.45,7.6a8.65,8.65,0,0,1-6.78,2.73,8.93,8.93,0,0,1-4.74-1.25,8.25,8.25,0,0,1-3.19-3.6,12.53,12.53,0,0,1-1.13-5.48c0-3.25.81-5.77,2.43-7.58a8.63,8.63,0,0,1,6.76-2.72,8.43,8.43,0,0,1,6.64,2.78A10.93,10.93,0,0,1,286.68,315.79Zm-15.16,0A9.43,9.43,0,0,0,273,321.6a6.05,6.05,0,0,0,9,0,9.37,9.37,0,0,0,1.54-5.82A9.23,9.23,0,0,0,282,310a5.39,5.39,0,0,0-4.53-2A5.31,5.31,0,0,0,273,310Q271.52,311.94,271.52,315.79Z"/><path d="M43.83,368.27a9.61,9.61,0,0,0,1.54-.12c.5-.08.89-.16,1.19-.24v2.3a5.68,5.68,0,0,1-1.45.4,11.12,11.12,0,0,1-1.72.15q-5.78,0-5.77-6.08V352.83H34.77v-1.45l2.85-1.25,1.27-4.25h1.74v4.61h5.78v2.34H40.63v11.72a4,4,0,0,0,.86,2.76A3,3,0,0,0,43.83,368.27Z"/><path d="M50.28,345.1a2,2,0,0,1,.51-1.52,1.88,1.88,0,0,1,2.52,0,2.42,2.42,0,0,1,0,3,1.73,1.73,0,0,1-1.25.5,1.71,1.71,0,0,1-1.27-.5A2,2,0,0,1,50.28,345.1Zm3.27,25.3h-3V350.49h3Z"/><path d="M68.35,370.76a9.14,9.14,0,0,1-7-2.69,10.36,10.36,0,0,1-2.56-7.46A11.55,11.55,0,0,1,61.2,353a7.88,7.88,0,0,1,6.37-2.83,7.51,7.51,0,0,1,5.92,2.46,9.43,9.43,0,0,1,2.18,6.49V361H62a7.88,7.88,0,0,0,1.77,5.32,6.12,6.12,0,0,0,4.73,1.82,16,16,0,0,0,6.36-1.35v2.69a16.14,16.14,0,0,1-3,1A17,17,0,0,1,68.35,370.76Zm-.82-18.11a4.92,4.92,0,0,0-3.82,1.56A7.25,7.25,0,0,0,62,358.54H72.44a6.68,6.68,0,0,0-1.27-4.37A4.49,4.49,0,0,0,67.53,352.65Z"/><path d="M94.43,370.4V357.52a5.19,5.19,0,0,0-1.11-3.63,4.51,4.51,0,0,0-3.47-1.2,5.7,5.7,0,0,0-4.57,1.69q-1.45,1.68-1.46,5.57V370.4h-3V350.49h2.45l.49,2.72h.15a6.13,6.13,0,0,1,2.59-2.28,8.6,8.6,0,0,1,3.73-.8,7.53,7.53,0,0,1,5.41,1.73q1.82,1.74,1.82,5.55v13Z"/><path d="M112.05,370.76a9.17,9.17,0,0,1-7-2.69,10.4,10.4,0,0,1-2.55-7.46A11.55,11.55,0,0,1,104.9,353a7.87,7.87,0,0,1,6.37-2.83,7.51,7.51,0,0,1,5.92,2.46,9.43,9.43,0,0,1,2.18,6.49V361H105.66a7.88,7.88,0,0,0,1.77,5.32,6.12,6.12,0,0,0,4.73,1.82,15.93,15.93,0,0,0,6.35-1.35v2.69a15.83,15.83,0,0,1-3,1A17,17,0,0,1,112.05,370.76Zm-.82-18.11a4.92,4.92,0,0,0-3.82,1.56,7.25,7.25,0,0,0-1.68,4.33h10.41a6.62,6.62,0,0,0-1.28-4.37A4.46,4.46,0,0,0,111.23,352.65Z"/><path d="M149.25,350.09a6.06,6.06,0,0,1-1.43,4.16,7.11,7.11,0,0,1-4,2.16v.15a7.57,7.57,0,0,1,4.74,2,6,6,0,0,1,1.54,4.29,7,7,0,0,1-2.63,5.84q-2.64,2-7.48,2a21.83,21.83,0,0,1-3.86-.32,12.87,12.87,0,0,1-3.41-1.12v-2.86a16.71,16.71,0,0,0,3.68,1.29,16.45,16.45,0,0,0,3.7.45q6.87,0,6.88-5.4,0-4.83-7.59-4.83h-2.62v-2.59h2.65a8,8,0,0,0,4.93-1.38,4.49,4.49,0,0,0,1.81-3.8,3.74,3.74,0,0,0-1.33-3.05,5.5,5.5,0,0,0-3.63-1.11,11.26,11.26,0,0,0-3.28.47,14.89,14.89,0,0,0-3.53,1.75l-1.52-2a12.61,12.61,0,0,1,3.77-2,13.68,13.68,0,0,1,4.49-.74,9.18,9.18,0,0,1,6,1.77A6,6,0,0,1,149.25,350.09Z"/><path d="M174.36,370.76a8.63,8.63,0,0,1-3.55-.72,6.65,6.65,0,0,1-2.69-2.2h-.22a27.68,27.68,0,0,1,.22,3.3v8.19h-3V350.49h2.45l.42,2.72h.15a7,7,0,0,1,2.7-2.36,8.29,8.29,0,0,1,3.54-.72,7.39,7.39,0,0,1,6.12,2.7q2.15,2.71,2.15,7.6T180.44,368A7.37,7.37,0,0,1,174.36,370.76Zm-.43-18.07a5.34,5.34,0,0,0-4.42,1.69c-.9,1.12-1.37,2.92-1.39,5.37v.68q0,4.19,1.39,6a5.35,5.35,0,0,0,4.49,1.81,4.66,4.66,0,0,0,4-2.09,9.9,9.9,0,0,0,1.46-5.76,9.48,9.48,0,0,0-1.46-5.71A4.78,4.78,0,0,0,173.93,352.69Z"/><path d="M200.14,370.4l-.6-2.84h-.15a8.41,8.41,0,0,1-3,2.54,9.06,9.06,0,0,1-3.69.66,6.62,6.62,0,0,1-4.64-1.53,5.55,5.55,0,0,1-1.68-4.34q0-6,9.64-6.32l3.38-.11v-1.23a5.05,5.05,0,0,0-1-3.46,4.13,4.13,0,0,0-3.22-1.12,13.08,13.08,0,0,0-5.63,1.53l-.93-2.31a14.27,14.27,0,0,1,3.22-1.25,14.12,14.12,0,0,1,3.52-.46q3.56,0,5.27,1.58t1.72,5.07V370.4Zm-6.81-2.13a6.12,6.12,0,0,0,4.42-1.54,5.73,5.73,0,0,0,1.61-4.33v-1.79l-3,.12a11,11,0,0,0-5.18,1.12,3.37,3.37,0,0,0-1.59,3.08,3.11,3.11,0,0,0,1,2.49A4.1,4.1,0,0,0,193.33,368.27Z"/><path d="M211.6,370.4h-3V342.14h3Z"/><path d="M217.74,345.1a2,2,0,0,1,.5-1.52,1.8,1.8,0,0,1,1.28-.48,1.76,1.76,0,0,1,1.25.49,2.42,2.42,0,0,1,0,3,1.85,1.85,0,0,1-2.53,0A2.07,2.07,0,0,1,217.74,345.1ZM221,370.4h-3V350.49h3Z"/><path d="M233.83,368.27a9.61,9.61,0,0,0,1.54-.12,11.37,11.37,0,0,0,1.18-.24v2.3a5.59,5.59,0,0,1-1.44.4,11.23,11.23,0,0,1-1.72.15q-5.77,0-5.77-6.08V352.83h-2.86v-1.45l2.86-1.25,1.27-4.25h1.74v4.61h5.78v2.34h-5.78v11.72a4,4,0,0,0,.86,2.76A3,3,0,0,0,233.83,368.27Z"/><path d="M257.71,360.43q0,4.86-2.45,7.6a8.63,8.63,0,0,1-6.77,2.73,9.08,9.08,0,0,1-4.75-1.25,8.3,8.3,0,0,1-3.19-3.6,12.53,12.53,0,0,1-1.13-5.48q0-4.87,2.44-7.59a8.59,8.59,0,0,1,6.75-2.71,8.39,8.39,0,0,1,6.64,2.78A10.93,10.93,0,0,1,257.71,360.43Zm-15.16,0a9.43,9.43,0,0,0,1.52,5.81,6.05,6.05,0,0,0,9,0,9.37,9.37,0,0,0,1.54-5.82,9.19,9.19,0,0,0-1.54-5.77,6.16,6.16,0,0,0-9,0A9.41,9.41,0,0,0,242.55,360.43Z"/><path d="M275.84,365a5,5,0,0,1-2.07,4.28,9.7,9.7,0,0,1-5.81,1.51,12.73,12.73,0,0,1-6.18-1.25v-2.8a14.69,14.69,0,0,0,3.08,1.14,12.74,12.74,0,0,0,3.17.42,7.22,7.22,0,0,0,3.63-.75,2.6,2.6,0,0,0,.26-4.29,15.81,15.81,0,0,0-3.93-2,21,21,0,0,1-3.95-1.81,5.36,5.36,0,0,1-1.74-1.75,4.61,4.61,0,0,1-.57-2.34,4.47,4.47,0,0,1,2-3.85,9.27,9.27,0,0,1,5.43-1.4,15.92,15.92,0,0,1,6.28,1.3l-1.07,2.46a14.33,14.33,0,0,0-5.43-1.24,6.37,6.37,0,0,0-3.24.67,2.09,2.09,0,0,0-1.08,1.86,2.28,2.28,0,0,0,.4,1.36,4.16,4.16,0,0,0,1.32,1.07,29.42,29.42,0,0,0,3.49,1.47,13,13,0,0,1,4.78,2.6A4.59,4.59,0,0,1,275.84,365Z"/><path d="M644.7,318.69a6.53,6.53,0,0,1-2.54,5.47,11,11,0,0,1-6.91,2,17.3,17.3,0,0,1-7.26-1.21v-3a19.5,19.5,0,0,0,3.56,1.09,19.12,19.12,0,0,0,3.81.4,7.7,7.7,0,0,0,4.65-1.17,3.85,3.85,0,0,0,1.56-3.26,4.22,4.22,0,0,0-.55-2.27,5.29,5.29,0,0,0-1.85-1.62,25.67,25.67,0,0,0-3.95-1.69,12.61,12.61,0,0,1-5.3-3.14,6.93,6.93,0,0,1-1.59-4.74,5.89,5.89,0,0,1,2.31-4.89,9.59,9.59,0,0,1,6.1-1.81,18,18,0,0,1,7.29,1.45l-1,2.69a16.44,16.44,0,0,0-6.39-1.38,6.2,6.2,0,0,0-3.83,1.05,3.47,3.47,0,0,0-1.38,2.92,4.45,4.45,0,0,0,.51,2.26,4.8,4.8,0,0,0,1.71,1.62,22,22,0,0,0,3.7,1.63,14.77,14.77,0,0,1,5.75,3.19A6.33,6.33,0,0,1,644.7,318.69Z"/><path d="M658.08,326.12a9.14,9.14,0,0,1-7-2.68,10.43,10.43,0,0,1-2.55-7.47,11.55,11.55,0,0,1,2.37-7.65,7.89,7.89,0,0,1,6.36-2.83,7.49,7.49,0,0,1,5.92,2.46,9.4,9.4,0,0,1,2.18,6.49v1.91H651.69a7.88,7.88,0,0,0,1.77,5.32,6.1,6.1,0,0,0,4.73,1.82,16.11,16.11,0,0,0,6.36-1.34v2.68a16.06,16.06,0,0,1-3,1A17,17,0,0,1,658.08,326.12Zm-.81-18.1a4.94,4.94,0,0,0-3.83,1.56,7.2,7.2,0,0,0-1.68,4.32h10.41a6.62,6.62,0,0,0-1.27-4.37A4.48,4.48,0,0,0,657.27,308Z"/><path d="M686.84,305.85v1.91l-3.69.44a6.24,6.24,0,0,1,.91,1.66,6.48,6.48,0,0,1,.4,2.32,5.89,5.89,0,0,1-2,4.66,8.07,8.07,0,0,1-5.49,1.75,8.87,8.87,0,0,1-1.67-.15,3,3,0,0,0-1.92,2.56,1.29,1.29,0,0,0,.67,1.21,4.94,4.94,0,0,0,2.31.39h3.52a7.9,7.9,0,0,1,5,1.36,4.75,4.75,0,0,1,1.73,4,5.63,5.63,0,0,1-2.65,5q-2.65,1.74-7.74,1.74a10.56,10.56,0,0,1-6-1.46,4.68,4.68,0,0,1-2.11-4.1,4.57,4.57,0,0,1,1.16-3.14,5.82,5.82,0,0,1,3.27-1.8,3.14,3.14,0,0,1-1.28-1.07,2.82,2.82,0,0,1-.52-1.69,3.2,3.2,0,0,1,.58-1.91A6.28,6.28,0,0,1,673.1,318a5.38,5.38,0,0,1-2.51-2.16,6.34,6.34,0,0,1-1-3.49,6.43,6.43,0,0,1,2-5,8,8,0,0,1,5.56-1.77,10.13,10.13,0,0,1,2.81.36ZM671,329.1a2.7,2.7,0,0,0,1.36,2.45,7.5,7.5,0,0,0,3.91.84,10.86,10.86,0,0,0,5.62-1.14,3.46,3.46,0,0,0,1.83-3.07,2.46,2.46,0,0,0-1-2.25,7.89,7.89,0,0,0-3.76-.62H675.3a4.7,4.7,0,0,0-3.19,1A3.47,3.47,0,0,0,671,329.1Zm1.64-16.87a4,4,0,0,0,1.18,3.16,4.71,4.71,0,0,0,3.28,1.07q4.43,0,4.42-4.28c0-3-1.49-4.49-4.47-4.49a4.43,4.43,0,0,0-3.27,1.14A4.64,4.64,0,0,0,672.6,312.23Z"/><path d="M693.76,305.85v12.92a5.19,5.19,0,0,0,1.1,3.63,4.52,4.52,0,0,0,3.47,1.2,5.66,5.66,0,0,0,4.57-1.71c1-1.14,1.44-3,1.44-5.57V305.85h3v19.91h-2.49l-.44-2.67h-.16a6,6,0,0,1-2.57,2.25,8.61,8.61,0,0,1-3.75.78q-3.63,0-5.44-1.72c-1.2-1.15-1.81-3-1.81-5.52v-13Z"/><path d="M727.37,325.76V312.88a5.24,5.24,0,0,0-1.1-3.63,4.52,4.52,0,0,0-3.47-1.2,5.74,5.74,0,0,0-4.58,1.69q-1.46,1.69-1.45,5.58v10.44h-3V305.85h2.45l.49,2.73h.15a6.16,6.16,0,0,1,2.6-2.28,8.39,8.39,0,0,1,3.72-.81,7.53,7.53,0,0,1,5.41,1.74q1.81,1.72,1.82,5.54v13Z"/><path d="M750.13,323.09H750a7.09,7.09,0,0,1-6.25,3,7.41,7.41,0,0,1-6.08-2.67c-1.44-1.78-2.17-4.31-2.17-7.59s.73-5.83,2.18-7.64a7.35,7.35,0,0,1,6.07-2.73,7.24,7.24,0,0,1,6.21,2.94h.24L750,307l-.07-1.4v-8.1h3v28.26h-2.45Zm-6,.51a5.5,5.5,0,0,0,4.48-1.68q1.39-1.68,1.39-5.42v-.64q0-4.23-1.41-6a5.36,5.36,0,0,0-4.49-1.8,4.59,4.59,0,0,0-4.06,2.06,10.22,10.22,0,0,0-1.41,5.82,9.79,9.79,0,0,0,1.4,5.76A4.74,4.74,0,0,0,744.1,323.6Z"/><path d="M776.56,315.79c0,3.24-.82,5.78-2.45,7.6a8.66,8.66,0,0,1-6.78,2.73,8.93,8.93,0,0,1-4.74-1.25,8.27,8.27,0,0,1-3.2-3.6,12.53,12.53,0,0,1-1.12-5.48c0-3.25.81-5.77,2.43-7.58a8.62,8.62,0,0,1,6.76-2.72,8.44,8.44,0,0,1,6.64,2.78A10.93,10.93,0,0,1,776.56,315.79Zm-15.17,0a9.42,9.42,0,0,0,1.53,5.81,6.05,6.05,0,0,0,9,0,9.44,9.44,0,0,0,1.53-5.82A9.29,9.29,0,0,0,771.9,310a5.39,5.39,0,0,0-4.53-2A5.29,5.29,0,0,0,762.9,310Q761.39,311.94,761.39,315.79Z"/><path d="M797.94,323.64a9.7,9.7,0,0,0,1.54-.12,9,9,0,0,0,1.18-.25v2.31a5.37,5.37,0,0,1-1.44.39,11.23,11.23,0,0,1-1.72.15c-3.85,0-5.78-2-5.78-6.08V308.2h-2.85v-1.46l2.85-1.25,1.27-4.25h1.75v4.61h5.77v2.35h-5.77v11.71a4,4,0,0,0,.85,2.76A3,3,0,0,0,797.94,323.64Z"/><path d="M813.05,326.12a9.15,9.15,0,0,1-7-2.68,10.43,10.43,0,0,1-2.55-7.47,11.55,11.55,0,0,1,2.37-7.65,7.9,7.9,0,0,1,6.37-2.83,7.52,7.52,0,0,1,5.92,2.46,9.45,9.45,0,0,1,2.18,6.49v1.91H806.65a7.88,7.88,0,0,0,1.77,5.32,6.11,6.11,0,0,0,4.74,1.82,16.09,16.09,0,0,0,6.35-1.34v2.68a15.83,15.83,0,0,1-3,1A17,17,0,0,1,813.05,326.12Zm-.82-18.1a4.92,4.92,0,0,0-3.82,1.56,7.2,7.2,0,0,0-1.68,4.32h10.4a6.62,6.62,0,0,0-1.27-4.37A4.48,4.48,0,0,0,812.23,308ZM810,302.77a31.55,31.55,0,0,0,1.88-2.73,26.86,26.86,0,0,0,1.59-2.78h3.67v.39a34.12,34.12,0,0,1-5.12,5.57h-2Z"/><path d="M834.59,305.49a11.54,11.54,0,0,1,2.38.22l-.42,2.8a9.85,9.85,0,0,0-2.18-.28,5.32,5.32,0,0,0-4.13,2,7.14,7.14,0,0,0-1.72,4.89v10.68h-3V305.85H828l.35,3.69h.14a8.92,8.92,0,0,1,2.67-3A6.06,6.06,0,0,1,834.59,305.49Z"/><path d="M866.06,325.76V312.81a5.41,5.41,0,0,0-1-3.57,4,4,0,0,0-3.16-1.19,5.09,5.09,0,0,0-4.16,1.62,7.65,7.65,0,0,0-1.35,5v11.11h-3V312.81a5.36,5.36,0,0,0-1-3.57,4,4,0,0,0-3.18-1.19,4.93,4.93,0,0,0-4.15,1.7q-1.32,1.69-1.32,5.57v10.44h-3V305.85h2.45l.49,2.73h.15a5.91,5.91,0,0,1,2.4-2.27,7.32,7.32,0,0,1,3.48-.82c3.11,0,5.15,1.13,6.1,3.38h.15a6.34,6.34,0,0,1,2.58-2.47,7.94,7.94,0,0,1,3.85-.91,6.74,6.74,0,0,1,5.06,1.74q1.68,1.72,1.68,5.54v13Z"/><path d="M875,300.46a2,2,0,0,1,.51-1.52,1.79,1.79,0,0,1,1.27-.48,1.81,1.81,0,0,1,1.26.49,2,2,0,0,1,.52,1.51,2,2,0,0,1-.52,1.52,1.85,1.85,0,0,1-2.53,0A2.05,2.05,0,0,1,875,300.46Zm3.27,25.3h-3V305.85h3Z"/><path d="M898.32,325.76V312.88a5.19,5.19,0,0,0-1.11-3.63,4.51,4.51,0,0,0-3.47-1.2,5.72,5.72,0,0,0-4.57,1.69q-1.45,1.69-1.46,5.58v10.44h-3V305.85h2.45l.49,2.73h.14a6.22,6.22,0,0,1,2.6-2.28,8.47,8.47,0,0,1,3.73-.81,7.55,7.55,0,0,1,5.41,1.74q1.82,1.72,1.81,5.54v13Z"/><path d="M924.71,315.79c0,3.24-.82,5.78-2.45,7.6a8.66,8.66,0,0,1-6.78,2.73,8.93,8.93,0,0,1-4.74-1.25,8.25,8.25,0,0,1-3.19-3.6,12.39,12.39,0,0,1-1.13-5.48c0-3.25.81-5.77,2.43-7.58a8.63,8.63,0,0,1,6.76-2.72,8.44,8.44,0,0,1,6.64,2.78A10.93,10.93,0,0,1,924.71,315.79Zm-15.17,0a9.42,9.42,0,0,0,1.53,5.81,6.05,6.05,0,0,0,9,0,9.44,9.44,0,0,0,1.53-5.82,9.29,9.29,0,0,0-1.53-5.77,5.39,5.39,0,0,0-4.53-2,5.3,5.3,0,0,0-4.47,1.95A9.36,9.36,0,0,0,909.54,315.79Z"/><path d="M664.39,368.27a9.7,9.7,0,0,0,1.54-.12,11.37,11.37,0,0,0,1.18-.24v2.3a5.71,5.71,0,0,1-1.44.4,11.23,11.23,0,0,1-1.72.15q-5.78,0-5.77-6.08V352.83h-2.86v-1.45l2.86-1.25,1.27-4.25h1.74v4.61H667v2.34h-5.78v11.72a4,4,0,0,0,.85,2.76A3,3,0,0,0,664.39,368.27Z"/><path d="M670.83,345.1a2,2,0,0,1,.51-1.52,1.79,1.79,0,0,1,1.27-.48,1.77,1.77,0,0,1,1.26.49,2.45,2.45,0,0,1,0,3,1.85,1.85,0,0,1-2.53,0A2,2,0,0,1,670.83,345.1Zm3.27,25.3h-3V350.49h3Z"/><path d="M688.91,370.76a9.15,9.15,0,0,1-7-2.69,10.4,10.4,0,0,1-2.55-7.46,11.55,11.55,0,0,1,2.37-7.65,7.87,7.87,0,0,1,6.37-2.83,7.52,7.52,0,0,1,5.92,2.46,9.43,9.43,0,0,1,2.18,6.49V361H682.51a7.88,7.88,0,0,0,1.77,5.32,6.14,6.14,0,0,0,4.74,1.82,15.93,15.93,0,0,0,6.35-1.35v2.69a15.83,15.83,0,0,1-3,1A17,17,0,0,1,688.91,370.76Zm-.82-18.11a4.92,4.92,0,0,0-3.82,1.56,7.13,7.13,0,0,0-1.68,4.33H693a6.62,6.62,0,0,0-1.27-4.37A4.48,4.48,0,0,0,688.09,352.65Z"/><path d="M715,370.4V357.52a5.19,5.19,0,0,0-1.11-3.63,4.52,4.52,0,0,0-3.47-1.2,5.72,5.72,0,0,0-4.58,1.69q-1.46,1.68-1.45,5.57V370.4h-3V350.49h2.45l.49,2.72h.14a6.22,6.22,0,0,1,2.6-2.28,8.56,8.56,0,0,1,3.72-.8,7.56,7.56,0,0,1,5.42,1.73q1.81,1.74,1.81,5.55v13Z"/><path d="M732.6,370.76a9.14,9.14,0,0,1-7-2.69,10.4,10.4,0,0,1-2.55-7.46,11.55,11.55,0,0,1,2.37-7.65,7.86,7.86,0,0,1,6.36-2.83,7.49,7.49,0,0,1,5.92,2.46,9.39,9.39,0,0,1,2.18,6.49V361H726.21a7.88,7.88,0,0,0,1.77,5.32,6.13,6.13,0,0,0,4.73,1.82,16,16,0,0,0,6.36-1.35v2.69a16.06,16.06,0,0,1-3,1A17,17,0,0,1,732.6,370.76Zm-.81-18.11a4.94,4.94,0,0,0-3.83,1.56,7.25,7.25,0,0,0-1.68,4.33h10.41a6.62,6.62,0,0,0-1.27-4.37A4.48,4.48,0,0,0,731.79,352.65Z"/><path d="M761.65,354.18a9.76,9.76,0,0,1,6.6,2.08,7.13,7.13,0,0,1,2.41,5.69,8.24,8.24,0,0,1-2.63,6.47,10.49,10.49,0,0,1-7.24,2.34,13.24,13.24,0,0,1-6.84-1.44v-2.9a10.47,10.47,0,0,0,3.16,1.28,15.52,15.52,0,0,0,3.72.46,7.42,7.42,0,0,0,5-1.51,5.38,5.38,0,0,0,1.77-4.35q0-5.57-6.81-5.56a26.41,26.41,0,0,0-4.62.53l-1.56-1,1-12.43h13.2v2.78H758.16l-.67,8A21.81,21.81,0,0,1,761.65,354.18Z"/><path d="M794.92,370.76a8.56,8.56,0,0,1-3.55-.72,6.74,6.74,0,0,1-2.7-2.2h-.22a25.74,25.74,0,0,1,.22,3.3v8.19h-3V350.49h2.45l.42,2.72h.14a7.08,7.08,0,0,1,2.71-2.36,8.29,8.29,0,0,1,3.54-.72,7.35,7.35,0,0,1,6.11,2.7c1.44,1.81,2.15,4.34,2.15,7.6s-.73,5.8-2.18,7.61A7.39,7.39,0,0,1,794.92,370.76Zm-.44-18.07a5.33,5.33,0,0,0-4.41,1.69c-.91,1.12-1.37,2.92-1.4,5.37v.68q0,4.19,1.4,6a5.34,5.34,0,0,0,4.49,1.81,4.68,4.68,0,0,0,4-2.09,10,10,0,0,0,1.46-5.76,9.55,9.55,0,0,0-1.46-5.71A4.81,4.81,0,0,0,794.48,352.69Z"/><path d="M820.69,370.4l-.6-2.84H820a8.49,8.49,0,0,1-3,2.54,9.11,9.11,0,0,1-3.7.66,6.64,6.64,0,0,1-4.64-1.53,5.55,5.55,0,0,1-1.68-4.34q0-6,9.65-6.32l3.37-.11v-1.23a5.05,5.05,0,0,0-1-3.46,4.15,4.15,0,0,0-3.23-1.12,13.12,13.12,0,0,0-5.63,1.53l-.92-2.31a14.61,14.61,0,0,1,6.73-1.71q3.57,0,5.28,1.58c1.14,1.06,1.72,2.75,1.72,5.07V370.4Zm-6.81-2.13a6.1,6.1,0,0,0,4.42-1.54,5.69,5.69,0,0,0,1.61-4.33v-1.79l-3,.12a11,11,0,0,0-5.19,1.12,3.37,3.37,0,0,0-1.59,3.08,3.11,3.11,0,0,0,1,2.49A4.1,4.1,0,0,0,813.88,368.27Z"/><path d="M832.15,370.4h-3V342.14h3Z"/><path d="M838.29,345.1a2,2,0,0,1,.51-1.52,1.89,1.89,0,0,1,2.53,0,2.45,2.45,0,0,1,0,3,1.75,1.75,0,0,1-1.26.5,1.71,1.71,0,0,1-1.27-.5A2,2,0,0,1,838.29,345.1Zm3.27,25.3h-3V350.49h3Z"/><path d="M854.38,368.27a9.74,9.74,0,0,0,1.55-.12,12,12,0,0,0,1.18-.24v2.3a5.68,5.68,0,0,1-1.45.4,11,11,0,0,1-1.71.15q-5.78,0-5.78-6.08V352.83h-2.85v-1.45l2.85-1.25,1.27-4.25h1.75v4.61H857v2.34h-5.77v11.72a4,4,0,0,0,.85,2.76A3,3,0,0,0,854.38,368.27Z"/><path d="M878.27,360.43q0,4.86-2.45,7.6a8.66,8.66,0,0,1-6.78,2.73,9,9,0,0,1-4.74-1.25,8.32,8.32,0,0,1-3.2-3.6,12.53,12.53,0,0,1-1.12-5.48q0-4.87,2.43-7.59a8.61,8.61,0,0,1,6.76-2.71,8.41,8.41,0,0,1,6.64,2.78A10.93,10.93,0,0,1,878.27,360.43Zm-15.17,0a9.42,9.42,0,0,0,1.53,5.81,5.29,5.29,0,0,0,4.48,2,5.34,5.34,0,0,0,4.5-2,9.44,9.44,0,0,0,1.53-5.82,9.26,9.26,0,0,0-1.53-5.77,5.37,5.37,0,0,0-4.53-2,5.31,5.31,0,0,0-4.47,1.94Q863.1,356.58,863.1,360.43Z"/><path d="M896.39,365a5,5,0,0,1-2.07,4.28,9.68,9.68,0,0,1-5.81,1.51,12.66,12.66,0,0,1-6.17-1.25v-2.8a14.6,14.6,0,0,0,3.07,1.14,12.86,12.86,0,0,0,3.17.42,7.24,7.24,0,0,0,3.64-.75,2.6,2.6,0,0,0,.26-4.29,15.81,15.81,0,0,0-3.93-2,20.66,20.66,0,0,1-3.95-1.81,5.4,5.4,0,0,1-1.75-1.75,4.61,4.61,0,0,1-.57-2.34,4.47,4.47,0,0,1,2-3.85,9.29,9.29,0,0,1,5.43-1.4,16,16,0,0,1,6.29,1.3l-1.08,2.46a14.25,14.25,0,0,0-5.43-1.24,6.33,6.33,0,0,0-3.23.67,2.08,2.08,0,0,0-1.09,1.86,2.28,2.28,0,0,0,.41,1.36,4.05,4.05,0,0,0,1.32,1.07,28.31,28.31,0,0,0,3.48,1.47,13.1,13.1,0,0,1,4.79,2.6A4.58,4.58,0,0,1,896.39,365Z"/><path d="M1467,325.76H1464V302h-8.41v-2.74h19.91V302H1467Z"/><path d="M1487.4,326.12a9.18,9.18,0,0,1-7-2.68,10.43,10.43,0,0,1-2.55-7.47,11.55,11.55,0,0,1,2.37-7.65,7.91,7.91,0,0,1,6.37-2.83,7.51,7.51,0,0,1,5.92,2.46,9.45,9.45,0,0,1,2.18,6.49v1.91H1481a7.88,7.88,0,0,0,1.77,5.32,6.1,6.1,0,0,0,4.73,1.82,16.18,16.18,0,0,0,6.36-1.34v2.68a16.14,16.14,0,0,1-3,1A17,17,0,0,1,1487.4,326.12Zm-.82-18.1a4.92,4.92,0,0,0-3.82,1.56,7.2,7.2,0,0,0-1.68,4.32h10.41a6.68,6.68,0,0,0-1.27-4.37A4.48,4.48,0,0,0,1486.58,308Z"/><path d="M1508.94,305.49a11.48,11.48,0,0,1,2.38.22l-.42,2.8a9.78,9.78,0,0,0-2.18-.28,5.33,5.33,0,0,0-4.13,2,7.19,7.19,0,0,0-1.72,4.89v10.68h-3V305.85h2.49l.34,3.69h.15a8.92,8.92,0,0,1,2.67-3A6,6,0,0,1,1508.94,305.49Z"/><path d="M1523,326.12a8.47,8.47,0,0,1-6.69-2.66q-2.37-2.65-2.37-7.53c0-3.32.8-5.9,2.4-7.71a8.67,8.67,0,0,1,6.86-2.73,13.41,13.41,0,0,1,2.87.31,9.56,9.56,0,0,1,2.25.73l-.93,2.56a14,14,0,0,0-2.18-.67,10,10,0,0,0-2.08-.26q-6.08,0-6.07,7.74a9.21,9.21,0,0,0,1.48,5.63,5.15,5.15,0,0,0,4.39,2,13.49,13.49,0,0,0,5.1-1.07v2.67A10.88,10.88,0,0,1,1523,326.12Z"/><path d="M1541.16,326.12a9.14,9.14,0,0,1-7-2.68,10.39,10.39,0,0,1-2.56-7.47,11.55,11.55,0,0,1,2.37-7.65,7.91,7.91,0,0,1,6.37-2.83,7.51,7.51,0,0,1,5.92,2.46,9.45,9.45,0,0,1,2.18,6.49v1.91h-13.71a7.88,7.88,0,0,0,1.77,5.32,6.1,6.1,0,0,0,4.73,1.82,16.18,16.18,0,0,0,6.36-1.34v2.68a16.14,16.14,0,0,1-3,1A16.91,16.91,0,0,1,1541.16,326.12Zm-.82-18.1a4.93,4.93,0,0,0-3.82,1.56,7.2,7.2,0,0,0-1.68,4.32h10.41a6.68,6.68,0,0,0-1.27-4.37A4.48,4.48,0,0,0,1540.34,308Z"/><path d="M1562.7,305.49a11.41,11.41,0,0,1,2.38.22l-.42,2.8a9.78,9.78,0,0,0-2.18-.28,5.33,5.33,0,0,0-4.13,2,7.18,7.18,0,0,0-1.71,4.89v10.68h-3V305.85h2.49l.34,3.69h.15a8.92,8.92,0,0,1,2.67-3A6,6,0,0,1,1562.7,305.49Z"/><path d="M1584.9,323.64a9.7,9.7,0,0,0,1.54-.12,9,9,0,0,0,1.18-.25v2.31a5.37,5.37,0,0,1-1.44.39,11.23,11.23,0,0,1-1.72.15c-3.85,0-5.78-2-5.78-6.08V308.2h-2.85v-1.46l2.85-1.25,1.28-4.25h1.74v4.61h5.78v2.35h-5.78v11.71a4,4,0,0,0,.85,2.76A3,3,0,0,0,1584.9,323.64Z"/><path d="M1600,326.12a9.16,9.16,0,0,1-7-2.68,10.43,10.43,0,0,1-2.55-7.47,11.55,11.55,0,0,1,2.37-7.65,7.9,7.9,0,0,1,6.37-2.83,7.52,7.52,0,0,1,5.92,2.46,9.45,9.45,0,0,1,2.18,6.49v1.91h-13.72a7.93,7.93,0,0,0,1.77,5.32,6.12,6.12,0,0,0,4.74,1.82,16.09,16.09,0,0,0,6.35-1.34v2.68a15.83,15.83,0,0,1-3,1A17,17,0,0,1,1600,326.12Zm-.82-18.1a4.92,4.92,0,0,0-3.82,1.56,7.2,7.2,0,0,0-1.68,4.32h10.4a6.62,6.62,0,0,0-1.27-4.37A4.48,4.48,0,0,0,1599.19,308Zm-2.23-5.25c.58-.75,1.2-1.66,1.88-2.73a31.14,31.14,0,0,0,1.59-2.78h3.66v.39a34.12,34.12,0,0,1-5.12,5.57h-2Z"/><path d="M1621.55,305.49a11.54,11.54,0,0,1,2.38.22l-.42,2.8a9.78,9.78,0,0,0-2.18-.28,5.32,5.32,0,0,0-4.13,2,7.14,7.14,0,0,0-1.72,4.89v10.68h-3V305.85H1615l.34,3.69h.15a8.71,8.71,0,0,1,2.67-3A6,6,0,0,1,1621.55,305.49Z"/><path d="M1653,325.76V312.81a5.41,5.41,0,0,0-1-3.57,4,4,0,0,0-3.16-1.19,5.09,5.09,0,0,0-4.16,1.62,7.65,7.65,0,0,0-1.35,5v11.11h-3V312.81a5.36,5.36,0,0,0-1-3.57,4,4,0,0,0-3.18-1.19,4.93,4.93,0,0,0-4.15,1.7c-.88,1.13-1.31,3-1.31,5.57v10.44h-3V305.85h2.45l.49,2.73h.15a5.91,5.91,0,0,1,2.4-2.27,7.32,7.32,0,0,1,3.48-.82q4.67,0,6.11,3.38h.14a6.34,6.34,0,0,1,2.58-2.47,8,8,0,0,1,3.85-.91,6.74,6.74,0,0,1,5.06,1.74q1.68,1.72,1.68,5.54v13Z"/><path d="M1662,300.46a2,2,0,0,1,.5-1.52,1.89,1.89,0,0,1,2.53,0,2,2,0,0,1,.53,1.51A2,2,0,0,1,1665,302a1.85,1.85,0,0,1-2.53,0A2.09,2.09,0,0,1,1662,300.46Zm3.27,25.3h-3V305.85h3Z"/><path d="M1685.28,325.76V312.88a5.19,5.19,0,0,0-1.11-3.63,4.51,4.51,0,0,0-3.47-1.2,5.72,5.72,0,0,0-4.57,1.69q-1.45,1.69-1.46,5.58v10.44h-3V305.85h2.45l.49,2.73h.15a6.13,6.13,0,0,1,2.59-2.28,8.47,8.47,0,0,1,3.73-.81,7.55,7.55,0,0,1,5.41,1.74q1.82,1.72,1.82,5.54v13Z"/><path d="M1711.67,315.79c0,3.24-.82,5.78-2.45,7.6a8.66,8.66,0,0,1-6.78,2.73,8.93,8.93,0,0,1-4.74-1.25,8.25,8.25,0,0,1-3.19-3.6,12.53,12.53,0,0,1-1.13-5.48c0-3.25.81-5.77,2.43-7.58a8.63,8.63,0,0,1,6.76-2.72,8.43,8.43,0,0,1,6.64,2.78A10.93,10.93,0,0,1,1711.67,315.79Zm-15.17,0a9.42,9.42,0,0,0,1.53,5.81,6.05,6.05,0,0,0,9,0,9.43,9.43,0,0,0,1.54-5.82A9.29,9.29,0,0,0,1707,310a5.39,5.39,0,0,0-4.53-2A5.31,5.31,0,0,0,1698,310,9.36,9.36,0,0,0,1696.5,315.79Z"/><path d="M1472.44,368.27a9.74,9.74,0,0,0,1.55-.12,12,12,0,0,0,1.18-.24v2.3a5.68,5.68,0,0,1-1.45.4,11,11,0,0,1-1.71.15q-5.77,0-5.78-6.08V352.83h-2.85v-1.45l2.85-1.25,1.27-4.25h1.75v4.61H1475v2.34h-5.77v11.72a4,4,0,0,0,.85,2.76A3,3,0,0,0,1472.44,368.27Z"/><path d="M1478.89,345.1a2,2,0,0,1,.51-1.52,1.78,1.78,0,0,1,1.27-.48,1.74,1.74,0,0,1,1.25.49,2.42,2.42,0,0,1,0,3,1.84,1.84,0,0,1-2.52,0A2,2,0,0,1,1478.89,345.1Zm3.27,25.3h-3V350.49h3Z"/><path d="M1497,370.76a9.14,9.14,0,0,1-7-2.69,10.4,10.4,0,0,1-2.55-7.46,11.55,11.55,0,0,1,2.37-7.65,7.86,7.86,0,0,1,6.36-2.83,7.49,7.49,0,0,1,5.92,2.46,9.39,9.39,0,0,1,2.18,6.49V361h-13.71a7.88,7.88,0,0,0,1.77,5.32,6.13,6.13,0,0,0,4.73,1.82,16,16,0,0,0,6.36-1.35v2.69a16.14,16.14,0,0,1-3,1A16.91,16.91,0,0,1,1497,370.76Zm-.81-18.11a4.94,4.94,0,0,0-3.83,1.56,7.25,7.25,0,0,0-1.68,4.33h10.41a6.62,6.62,0,0,0-1.27-4.37A4.48,4.48,0,0,0,1496.15,352.65Z"/><path d="M1523,370.4V357.52a5.24,5.24,0,0,0-1.1-3.63,4.52,4.52,0,0,0-3.47-1.2,5.71,5.71,0,0,0-4.58,1.69q-1.46,1.68-1.45,5.57V370.4h-3V350.49h2.45l.49,2.72h.15a6.16,6.16,0,0,1,2.6-2.28,8.53,8.53,0,0,1,3.72-.8,7.53,7.53,0,0,1,5.41,1.73q1.82,1.74,1.82,5.55v13Z"/><path d="M1540.66,370.76a9.14,9.14,0,0,1-7-2.69,10.36,10.36,0,0,1-2.56-7.46,11.55,11.55,0,0,1,2.37-7.65,7.88,7.88,0,0,1,6.37-2.83,7.51,7.51,0,0,1,5.92,2.46,9.43,9.43,0,0,1,2.18,6.49V361h-13.71a7.88,7.88,0,0,0,1.77,5.32,6.13,6.13,0,0,0,4.73,1.82,16,16,0,0,0,6.36-1.35v2.69a16.14,16.14,0,0,1-3,1A16.91,16.91,0,0,1,1540.66,370.76Zm-.82-18.11a4.93,4.93,0,0,0-3.82,1.56,7.25,7.25,0,0,0-1.68,4.33h10.41a6.68,6.68,0,0,0-1.27-4.37A4.49,4.49,0,0,0,1539.84,352.65Z"/><path d="M1564.76,370.4l11-23.78h-14.48v-2.78H1579v2.42L1568.1,370.4Z"/><path d="M1603,370.76a8.56,8.56,0,0,1-3.55-.72,6.67,6.67,0,0,1-2.7-2.2h-.22a25.74,25.74,0,0,1,.22,3.3v8.19h-3V350.49h2.46l.41,2.72h.15a7,7,0,0,1,2.71-2.36,8.23,8.23,0,0,1,3.54-.72,7.37,7.37,0,0,1,6.11,2.7q2.15,2.71,2.15,7.6t-2.19,7.61A7.37,7.37,0,0,1,1603,370.76Zm-.44-18.07a5.33,5.33,0,0,0-4.41,1.69c-.91,1.12-1.38,2.92-1.4,5.37v.68c0,2.79.46,4.79,1.4,6a5.32,5.32,0,0,0,4.48,1.81,4.66,4.66,0,0,0,4-2.09,9.9,9.9,0,0,0,1.47-5.76,9.48,9.48,0,0,0-1.47-5.71A4.78,4.78,0,0,0,1602.54,352.69Z"/><path d="M1628.75,370.4l-.6-2.84H1628a8.47,8.47,0,0,1-3,2.54,9.11,9.11,0,0,1-3.7.66,6.64,6.64,0,0,1-4.64-1.53,5.55,5.55,0,0,1-1.68-4.34q0-6,9.64-6.32l3.38-.11v-1.23a5.05,5.05,0,0,0-1-3.46,4.11,4.11,0,0,0-3.22-1.12,13.08,13.08,0,0,0-5.63,1.53l-.93-2.31a14.69,14.69,0,0,1,6.74-1.71q3.55,0,5.28,1.58t1.71,5.07V370.4Zm-6.81-2.13a6.12,6.12,0,0,0,4.42-1.54,5.73,5.73,0,0,0,1.61-4.33v-1.79l-3,.12a11,11,0,0,0-5.18,1.12,3.37,3.37,0,0,0-1.59,3.08,3.11,3.11,0,0,0,1,2.49A4.1,4.1,0,0,0,1621.94,368.27Z"/><path d="M1640.21,370.4h-3V342.14h3Z"/><path d="M1646.35,345.1a2,2,0,0,1,.51-1.52,1.88,1.88,0,0,1,2.52,0,2.42,2.42,0,0,1,0,3,1.73,1.73,0,0,1-1.25.5,1.71,1.71,0,0,1-1.27-.5A2,2,0,0,1,1646.35,345.1Zm3.27,25.3h-3V350.49h3Z"/><path d="M1662.44,368.27a9.61,9.61,0,0,0,1.54-.12,11.37,11.37,0,0,0,1.18-.24v2.3a5.47,5.47,0,0,1-1.44.4,11.12,11.12,0,0,1-1.72.15q-5.77,0-5.77-6.08V352.83h-2.85v-1.45l2.85-1.25,1.27-4.25h1.74v4.61H1665v2.34h-5.78v11.72a4,4,0,0,0,.86,2.76A3,3,0,0,0,1662.44,368.27Z"/><path d="M1686.32,360.43c0,3.24-.81,5.77-2.45,7.6a8.63,8.63,0,0,1-6.77,2.73,9,9,0,0,1-4.74-1.25,8.32,8.32,0,0,1-3.2-3.6,12.53,12.53,0,0,1-1.13-5.48c0-3.25.82-5.78,2.44-7.59a8.59,8.59,0,0,1,6.75-2.71,8.39,8.39,0,0,1,6.64,2.78A10.93,10.93,0,0,1,1686.32,360.43Zm-15.16,0a9.49,9.49,0,0,0,1.52,5.81,6.06,6.06,0,0,0,9,0,9.44,9.44,0,0,0,1.53-5.82,9.26,9.26,0,0,0-1.53-5.77,5.4,5.4,0,0,0-4.54-2,5.3,5.3,0,0,0-4.46,1.94Q1671.16,356.58,1671.16,360.43Z"/><path d="M1704.45,365a5,5,0,0,1-2.07,4.28,9.7,9.7,0,0,1-5.81,1.51,12.73,12.73,0,0,1-6.18-1.25v-2.8a14.9,14.9,0,0,0,3.08,1.14,12.8,12.8,0,0,0,3.17.42,7.2,7.2,0,0,0,3.63-.75,2.61,2.61,0,0,0,.27-4.29,16.12,16.12,0,0,0-3.94-2,21,21,0,0,1-3.95-1.81,5.36,5.36,0,0,1-1.74-1.75,4.61,4.61,0,0,1-.57-2.34,4.47,4.47,0,0,1,2-3.85,9.29,9.29,0,0,1,5.43-1.4,15.88,15.88,0,0,1,6.28,1.3l-1.07,2.46a14.33,14.33,0,0,0-5.43-1.24,6.3,6.3,0,0,0-3.23.67,2.08,2.08,0,0,0-1.09,1.86,2.22,2.22,0,0,0,.41,1.36,4.11,4.11,0,0,0,1.31,1.07,29.42,29.42,0,0,0,3.49,1.47,13.1,13.1,0,0,1,4.79,2.6A4.58,4.58,0,0,1,1704.45,365Z"/></svg>