<svg id="Layer_1" data-name="Layer 1" xmlns="http://www.w3.org/2000/svg" viewBox="0 0 1549.11 379.17"><defs><style>.cls-1{fill:#ffe2a1;}.cls-2{fill:#3a68ad;}.cls-3{fill:#d32a2a;}</style></defs><title>Fosforos_U03_05_01</title><rect class="cls-1" y="32.97" width="13.75" height="237.11"/><path class="cls-2" d="M13.75,65.93H0L-3.27,10.15A10.14,10.14,0,0,1,6.87,0h0A10.14,10.14,0,0,1,17,10.15Z"/><rect class="cls-3" x="1390.71" y="-108.41" width="13.75" height="237.11" transform="translate(1407.73 -1387.44) rotate(90)"/><path class="cls-3" d="M1483.18,17V3.27L1539,0a10.15,10.15,0,0,1,10.15,10.15h0A10.16,10.16,0,0,1,1539,20.3Z"/><rect class="cls-3" x="1279.03" y="32.97" width="13.75" height="237.11"/><path class="cls-3" d="M1292.78,65.93H1279l-3.28-55.78A10.15,10.15,0,0,1,1285.9,0h0a10.14,10.14,0,0,1,10.15,10.15Z"/><rect class="cls-3" x="1137.65" y="144.65" width="13.75" height="237.11" transform="translate(1407.73 -881.33) rotate(90)"/><path class="cls-3" d="M1230.12,270.08V256.33l55.78-3.27a10.14,10.14,0,0,1,10.15,10.14h0a10.14,10.14,0,0,1-10.15,10.15Z"/><rect class="cls-1" x="1019.1" width="13.75" height="237.11" transform="translate(2051.95 237.11) rotate(180)"/><path class="cls-2" d="M1019.1,204.15h13.75l3.27,55.78A10.14,10.14,0,0,1,1026,270.08h0a10.15,10.15,0,0,1-10.15-10.15Z"/><rect class="cls-1" x="877.72" y="-108.41" width="13.75" height="237.11" transform="translate(894.75 -874.45) rotate(90)"/><path class="cls-2" d="M970.19,17V3.27L1026,0a10.14,10.14,0,0,1,10.15,10.15h0A10.15,10.15,0,0,1,1026,20.3Z"/><rect class="cls-1" x="766.04" y="32.97" width="13.75" height="237.11"/><path class="cls-2" d="M779.79,65.93H766l-3.27-55.78A10.14,10.14,0,0,1,772.92,0h0a10.15,10.15,0,0,1,10.15,10.15Z"/><rect class="cls-1" x="624.67" y="144.65" width="13.75" height="237.11" transform="translate(894.75 -368.34) rotate(90)"/><path class="cls-2" d="M717.13,270.08V256.33l55.79-3.27a10.15,10.15,0,0,1,10.15,10.14h0a10.15,10.15,0,0,1-10.15,10.15Z"/><rect class="cls-1" x="506.11" y="0.02" width="13.75" height="237.11" transform="translate(1025.97 237.15) rotate(180)"/><path class="cls-2" d="M506.11,204.17h13.75L523.13,260A10.15,10.15,0,0,1,513,270.1h0A10.15,10.15,0,0,1,502.84,260Z"/><rect class="cls-1" x="364.74" y="-108.41" width="13.75" height="237.11" transform="translate(381.76 -361.46) rotate(90)"/><path class="cls-2" d="M457.2,17V3.27L513,0a10.14,10.14,0,0,1,10.14,10.15h0A10.15,10.15,0,0,1,513,20.3Z"/><rect class="cls-1" x="253.06" y="32.97" width="13.75" height="237.11"/><path class="cls-2" d="M266.81,65.93H253.06l-3.28-55.78A10.15,10.15,0,0,1,259.93,0h0a10.14,10.14,0,0,1,10.15,10.15Z"/><rect class="cls-1" x="111.68" y="144.65" width="13.75" height="237.11" transform="translate(381.76 144.65) rotate(90)"/><path class="cls-2" d="M204.15,270.08V256.33l55.78-3.27a10.14,10.14,0,0,1,10.15,10.14h0a10.14,10.14,0,0,1-10.15,10.15Z"/><path d="M561.32,306.78a7.41,7.41,0,0,1-2.76,6.2q-2.74,2.17-7.87,2.17h-3.12V325.6h-3.09V299h6.88Q561.32,299,561.32,306.78Zm-13.75,5.72h2.78q4.1,0,5.94-1.32a4.9,4.9,0,0,0,1.83-4.25,4.59,4.59,0,0,0-1.73-3.93q-1.73-1.29-5.37-1.29h-3.45Z"/><path d="M575.5,305.33a11.48,11.48,0,0,1,2.38.22l-.42,2.79a10.33,10.33,0,0,0-2.18-.27,5.3,5.3,0,0,0-4.13,2,7.19,7.19,0,0,0-1.72,4.89V325.6h-3V305.69h2.49l.34,3.69h.15a8.73,8.73,0,0,1,2.67-3A6,6,0,0,1,575.5,305.33Z"/><path d="M581.35,300.3a2,2,0,0,1,.51-1.52,1.88,1.88,0,0,1,2.52,0,2.42,2.42,0,0,1,0,3,1.73,1.73,0,0,1-1.25.5,1.71,1.71,0,0,1-1.27-.5A2,2,0,0,1,581.35,300.3Zm3.27,25.3h-3V305.69h3Z"/><path d="M616.38,325.6v-13a5.36,5.36,0,0,0-1-3.57,3.94,3.94,0,0,0-3.16-1.19,5.09,5.09,0,0,0-4.16,1.62,7.62,7.62,0,0,0-1.35,5V325.6h-3v-13a5.36,5.36,0,0,0-1-3.57,4,4,0,0,0-3.18-1.19,4.9,4.9,0,0,0-4.15,1.7c-.87,1.13-1.31,3-1.31,5.56V325.6h-3V305.69h2.45l.49,2.73h.15a5.87,5.87,0,0,1,2.41-2.27,7.26,7.26,0,0,1,3.47-.82c3.12,0,5.15,1.12,6.11,3.38h.14a6.28,6.28,0,0,1,2.58-2.47,8,8,0,0,1,3.85-.91,6.77,6.77,0,0,1,5.06,1.73q1.68,1.74,1.68,5.55v13Z"/><path d="M634,326a9.15,9.15,0,0,1-7-2.69,10.4,10.4,0,0,1-2.55-7.46,11.55,11.55,0,0,1,2.37-7.65,7.88,7.88,0,0,1,6.37-2.83,7.51,7.51,0,0,1,5.92,2.46,9.43,9.43,0,0,1,2.18,6.49v1.91H627.63a7.88,7.88,0,0,0,1.77,5.32,6.13,6.13,0,0,0,4.73,1.82,16,16,0,0,0,6.36-1.35v2.69a16.14,16.14,0,0,1-3,1A17,17,0,0,1,634,326Zm-.82-18.11a4.92,4.92,0,0,0-3.82,1.56,7.25,7.25,0,0,0-1.68,4.33h10.41a6.62,6.62,0,0,0-1.28-4.37A4.46,4.46,0,0,0,633.2,307.85Z"/><path d="M655.56,305.33a11.48,11.48,0,0,1,2.38.22l-.42,2.79a10.33,10.33,0,0,0-2.18-.27,5.3,5.3,0,0,0-4.13,2,7.19,7.19,0,0,0-1.72,4.89V325.6h-3V305.69H649l.34,3.69h.15a8.73,8.73,0,0,1,2.67-3A6,6,0,0,1,655.56,305.33Z"/><path d="M677.76,323.47a9.7,9.7,0,0,0,1.54-.12,9.22,9.22,0,0,0,1.18-.24v2.31a6.24,6.24,0,0,1-1.44.39,11.23,11.23,0,0,1-1.72.15q-5.77,0-5.78-6.08V308h-2.85v-1.45l2.85-1.25,1.28-4.25h1.74v4.61h5.77V308h-5.77v11.72a4,4,0,0,0,.85,2.76A3,3,0,0,0,677.76,323.47Z"/><path d="M692.87,326a9.12,9.12,0,0,1-7-2.69,10.4,10.4,0,0,1-2.55-7.46,11.55,11.55,0,0,1,2.37-7.65,7.87,7.87,0,0,1,6.37-2.83,7.52,7.52,0,0,1,5.92,2.46,9.43,9.43,0,0,1,2.18,6.49v1.91H686.47a7.88,7.88,0,0,0,1.77,5.32,6.14,6.14,0,0,0,4.74,1.82,15.93,15.93,0,0,0,6.35-1.35v2.69a15.83,15.83,0,0,1-3,1A17,17,0,0,1,692.87,326Zm-.82-18.11a4.92,4.92,0,0,0-3.82,1.56,7.19,7.19,0,0,0-1.68,4.33H697a6.62,6.62,0,0,0-1.27-4.37A4.48,4.48,0,0,0,692.05,307.85Zm-2.23-5.25c.58-.75,1.2-1.65,1.87-2.72a28,28,0,0,0,1.59-2.78H697v.38a25.48,25.48,0,0,1-2.38,2.91,26.24,26.24,0,0,1-2.74,2.67h-2Z"/><path d="M714.41,305.33a11.54,11.54,0,0,1,2.38.22l-.42,2.79a10.33,10.33,0,0,0-2.18-.27,5.29,5.29,0,0,0-4.13,2,7.14,7.14,0,0,0-1.72,4.89V325.6h-3V305.69h2.48l.35,3.69h.14a8.73,8.73,0,0,1,2.67-3A6.06,6.06,0,0,1,714.41,305.33Z"/><path d="M745.88,325.6v-13a5.41,5.41,0,0,0-1-3.57,4,4,0,0,0-3.17-1.19,5.08,5.08,0,0,0-4.15,1.62,7.62,7.62,0,0,0-1.35,5V325.6h-3v-13a5.36,5.36,0,0,0-1-3.57,4,4,0,0,0-3.18-1.19,4.9,4.9,0,0,0-4.15,1.7c-.88,1.13-1.32,3-1.32,5.56V325.6h-3V305.69H723l.49,2.73h.15a5.91,5.91,0,0,1,2.4-2.27,7.32,7.32,0,0,1,3.48-.82c3.11,0,5.15,1.12,6.1,3.38h.15a6.28,6.28,0,0,1,2.58-2.47,8,8,0,0,1,3.85-.91,6.77,6.77,0,0,1,5.06,1.73q1.68,1.74,1.68,5.55v13Z"/><path d="M754.85,300.3a2,2,0,0,1,.51-1.52,1.79,1.79,0,0,1,1.27-.48,1.77,1.77,0,0,1,1.26.49,2.45,2.45,0,0,1,0,3,1.85,1.85,0,0,1-2.53,0A2,2,0,0,1,754.85,300.3Zm3.27,25.3h-3V305.69h3Z"/><path d="M778.14,325.6V312.72a5.19,5.19,0,0,0-1.11-3.63,4.51,4.51,0,0,0-3.47-1.2,5.72,5.72,0,0,0-4.58,1.69c-1,1.12-1.45,3-1.45,5.57V325.6h-3V305.69H767l.49,2.73h.14a6.08,6.08,0,0,1,2.6-2.28,8.47,8.47,0,0,1,3.73-.81,7.59,7.59,0,0,1,5.41,1.73q1.81,1.74,1.81,5.55v13Z"/><path d="M804.53,315.63c0,3.24-.82,5.78-2.45,7.6A8.66,8.66,0,0,1,795.3,326a9,9,0,0,1-4.74-1.25,8.3,8.3,0,0,1-3.19-3.6,12.39,12.39,0,0,1-1.13-5.48q0-4.87,2.43-7.59a8.63,8.63,0,0,1,6.76-2.71,8.41,8.41,0,0,1,6.64,2.78A10.93,10.93,0,0,1,804.53,315.63Zm-15.17,0a9.42,9.42,0,0,0,1.53,5.81,6.05,6.05,0,0,0,9,0,9.43,9.43,0,0,0,1.54-5.82,9.27,9.27,0,0,0-1.54-5.77,5.39,5.39,0,0,0-4.53-2,5.32,5.32,0,0,0-4.47,1.94A9.41,9.41,0,0,0,789.36,315.63Z"/><path d="M551,368.11a9.74,9.74,0,0,0,1.55-.12,9,9,0,0,0,1.18-.25v2.31a5.37,5.37,0,0,1-1.44.39,11.34,11.34,0,0,1-1.72.16q-5.77,0-5.78-6.09V352.67H542v-1.45l2.85-1.26,1.27-4.25h1.75v4.62h5.77v2.34h-5.77v11.72a4.05,4.05,0,0,0,.85,2.76A3,3,0,0,0,551,368.11Z"/><path d="M557.49,344.93a2,2,0,0,1,.51-1.51,1.86,1.86,0,0,1,2.53,0,2,2,0,0,1,.52,1.5,2,2,0,0,1-.52,1.52,1.79,1.79,0,0,1-1.26.5,1.75,1.75,0,0,1-1.27-.5A2,2,0,0,1,557.49,344.93Zm3.27,25.3h-3v-19.9h3Z"/><path d="M575.56,370.6a9.14,9.14,0,0,1-7-2.69q-2.55-2.69-2.55-7.47a11.54,11.54,0,0,1,2.37-7.64,7.87,7.87,0,0,1,6.36-2.84,7.47,7.47,0,0,1,5.92,2.47,9.39,9.39,0,0,1,2.18,6.49v1.91H569.17a7.89,7.89,0,0,0,1.77,5.32,6.13,6.13,0,0,0,4.73,1.81,15.93,15.93,0,0,0,6.36-1.34v2.69a16.06,16.06,0,0,1-3,1A17,17,0,0,1,575.56,370.6Zm-.81-18.11a4.94,4.94,0,0,0-3.83,1.56,7.2,7.2,0,0,0-1.68,4.32h10.41a6.59,6.59,0,0,0-1.27-4.36A4.45,4.45,0,0,0,574.75,352.49Z"/><path d="M601.65,370.23V357.36a5.2,5.2,0,0,0-1.11-3.64,4.52,4.52,0,0,0-3.47-1.2,5.75,5.75,0,0,0-4.58,1.69q-1.46,1.69-1.45,5.58v10.44h-3v-19.9h2.46l.49,2.72h.14a6.16,6.16,0,0,1,2.6-2.28,8.39,8.39,0,0,1,3.72-.81,7.53,7.53,0,0,1,5.41,1.74c1.22,1.15,1.82,3,1.82,5.55v13Z"/><path d="M619.26,370.6a9.14,9.14,0,0,1-7-2.69q-2.55-2.69-2.55-7.47a11.54,11.54,0,0,1,2.37-7.64,7.87,7.87,0,0,1,6.36-2.84,7.47,7.47,0,0,1,5.92,2.47,9.39,9.39,0,0,1,2.18,6.49v1.91H612.87a7.89,7.89,0,0,0,1.77,5.32,6.13,6.13,0,0,0,4.73,1.81,16,16,0,0,0,6.36-1.34v2.69a15.91,15.91,0,0,1-3,1A16.91,16.91,0,0,1,619.26,370.6Zm-.81-18.11a4.94,4.94,0,0,0-3.83,1.56,7.2,7.2,0,0,0-1.68,4.32h10.41a6.59,6.59,0,0,0-1.27-4.36A4.45,4.45,0,0,0,618.45,352.49Z"/><path d="M651.17,370.23h-2.94V351.31c0-1.58,0-3.06.15-4.47-.26.25-.54.52-.86.8s-1.75,1.46-4.32,3.54l-1.6-2.07,7-5.43h2.54Z"/><path d="M678.73,370.23H661.27v-2.59l7-7a52.26,52.26,0,0,0,4.21-4.62,11.76,11.76,0,0,0,1.53-2.68,7.93,7.93,0,0,0,.5-2.82,4.46,4.46,0,0,0-1.29-3.37,4.92,4.92,0,0,0-3.57-1.24,9.09,9.09,0,0,0-3.14.54,12.94,12.94,0,0,0-3.29,2l-1.6-2a12.25,12.25,0,0,1,8-3.05,8.5,8.5,0,0,1,5.87,1.91,6.62,6.62,0,0,1,2.12,5.15,9.9,9.9,0,0,1-1.42,5,31.5,31.5,0,0,1-5.3,6.25l-5.81,5.68v.15h13.66Z"/><path d="M702.85,370.6a8.56,8.56,0,0,1-3.55-.72,6.68,6.68,0,0,1-2.7-2.21h-.22a25.89,25.89,0,0,1,.22,3.31v8.19h-3V350.33H696l.41,2.72h.15a7,7,0,0,1,2.7-2.36,8.31,8.31,0,0,1,3.55-.73,7.37,7.37,0,0,1,6.11,2.71c1.43,1.8,2.15,4.34,2.15,7.59s-.73,5.81-2.19,7.62A7.37,7.37,0,0,1,702.85,370.6Zm-.44-18.08a5.36,5.36,0,0,0-4.41,1.69q-1.37,1.69-1.4,5.38v.67c0,2.8.46,4.8,1.4,6a5.32,5.32,0,0,0,4.48,1.8,4.64,4.64,0,0,0,4-2.09,9.85,9.85,0,0,0,1.47-5.75,9.51,9.51,0,0,0-1.47-5.72A4.81,4.81,0,0,0,702.41,352.52Z"/><path d="M728.62,370.23l-.6-2.83h-.15a8.32,8.32,0,0,1-3,2.53,8.93,8.93,0,0,1-3.7.67,6.64,6.64,0,0,1-4.64-1.53,5.56,5.56,0,0,1-1.68-4.34q0-6,9.64-6.32l3.38-.11v-1.23a5,5,0,0,0-1-3.46,4.11,4.11,0,0,0-3.22-1.12,13.2,13.2,0,0,0-5.63,1.52l-.93-2.3a14.37,14.37,0,0,1,6.74-1.71q3.55,0,5.28,1.58t1.71,5.07v13.58Zm-6.81-2.12a6.12,6.12,0,0,0,4.42-1.55,5.7,5.7,0,0,0,1.61-4.32v-1.8l-3,.13a11,11,0,0,0-5.18,1.12,3.36,3.36,0,0,0-1.59,3.08,3.08,3.08,0,0,0,1,2.48A4.1,4.1,0,0,0,721.81,368.11Z"/><path d="M740.08,370.23h-3V342h3Z"/><path d="M746.22,344.93a2,2,0,0,1,.51-1.51,1.85,1.85,0,0,1,2.52,0,2,2,0,0,1,.53,1.5,2,2,0,0,1-.53,1.52,1.77,1.77,0,0,1-1.25.5,1.75,1.75,0,0,1-1.27-.5A2,2,0,0,1,746.22,344.93Zm3.27,25.3h-3v-19.9h3Z"/><path d="M762.31,368.11a10.68,10.68,0,0,0,2.73-.37v2.31a5.35,5.35,0,0,1-1.45.39,11.22,11.22,0,0,1-1.71.16c-3.86,0-5.78-2-5.78-6.09V352.67h-2.85v-1.45L756.1,350l1.27-4.25h1.74v4.62h5.78v2.34h-5.78v11.72a4.05,4.05,0,0,0,.86,2.76A3,3,0,0,0,762.31,368.11Z"/><path d="M786.19,360.26c0,3.25-.81,5.78-2.45,7.6A8.6,8.6,0,0,1,777,370.6a8.93,8.93,0,0,1-4.74-1.26,8.24,8.24,0,0,1-3.2-3.59,12.54,12.54,0,0,1-1.13-5.49c0-3.24.82-5.77,2.44-7.58A8.6,8.6,0,0,1,777.1,350a8.42,8.42,0,0,1,6.63,2.78A11,11,0,0,1,786.19,360.26Zm-15.16,0a9.49,9.49,0,0,0,1.52,5.81,6.06,6.06,0,0,0,9,0,9.4,9.4,0,0,0,1.53-5.82,9.24,9.24,0,0,0-1.53-5.76,5.4,5.4,0,0,0-4.54-2,5.28,5.28,0,0,0-4.46,2C771.53,355.76,771,357.7,771,360.26Z"/><path d="M804.32,364.8a5,5,0,0,1-2.07,4.29,9.77,9.77,0,0,1-5.81,1.51,12.61,12.61,0,0,1-6.18-1.26v-2.79a15.49,15.49,0,0,0,3.08,1.14,12.8,12.8,0,0,0,3.17.42,7.2,7.2,0,0,0,3.63-.75,2.61,2.61,0,0,0,.27-4.29,16.12,16.12,0,0,0-3.94-1.95,21.63,21.63,0,0,1-4-1.81,5.46,5.46,0,0,1-1.74-1.75,4.62,4.62,0,0,1-.57-2.35,4.47,4.47,0,0,1,2-3.84,9.21,9.21,0,0,1,5.43-1.41,15.89,15.89,0,0,1,6.28,1.31l-1.07,2.45a14.49,14.49,0,0,0-5.43-1.23,6.2,6.2,0,0,0-3.23.67,2.08,2.08,0,0,0-1.09,1.85,2.23,2.23,0,0,0,.41,1.37,4.11,4.11,0,0,0,1.31,1.07,29.42,29.42,0,0,0,3.49,1.47,13,13,0,0,1,4.79,2.6A4.55,4.55,0,0,1,804.32,364.8Z"/></svg>