<svg id="Layer_1" data-name="Layer 1" xmlns="http://www.w3.org/2000/svg" viewBox="0 0 4299.74 381.83"><defs><style>.cls-1{fill:#d32a2a;}.cls-2{fill:#ffe2a1;}.cls-3{fill:#3a68ad;}.cls-4{font-size:30px;font-family:OpenSans-Regular, Open Sans;}</style></defs><title>Fosforos_U03_02</title><rect class="cls-1" x="881" y="-108.41" width="13.75" height="237.11" transform="translate(898.02 -877.72) rotate(90)"/><path class="cls-1" d="M973.46,17V3.27L1029.25,0a10.14,10.14,0,0,1,10.14,10.15h0a10.15,10.15,0,0,1-10.14,10.15Z"/><rect class="cls-1" x="769.32" y="32.97" width="13.75" height="237.11"/><path class="cls-1" d="M783.07,65.93H769.32L766,10.15A10.15,10.15,0,0,1,776.19,0h0a10.14,10.14,0,0,1,10.15,10.15Z"/><rect class="cls-2" x="627.94" y="144.65" width="13.75" height="237.11" transform="translate(898.02 -371.61) rotate(90)"/><path class="cls-3" d="M720.41,270.08V256.33l55.78-3.27a10.14,10.14,0,0,1,10.15,10.14h0a10.14,10.14,0,0,1-10.15,10.15Z"/><rect class="cls-2" x="3.27" y="32.97" width="13.75" height="237.11"/><path class="cls-3" d="M17,65.93H3.27L0,10.15A10.14,10.14,0,0,1,10.15,0h0A10.15,10.15,0,0,1,20.3,10.15Z"/><rect class="cls-2" x="509.39" y="0.02" width="13.75" height="237.11" transform="translate(1032.52 237.15) rotate(180)"/><path class="cls-3" d="M509.39,204.17h13.74L526.41,260a10.16,10.16,0,0,1-10.15,10.15h0A10.16,10.16,0,0,1,506.11,260Z"/><rect class="cls-2" x="368.01" y="-108.41" width="13.75" height="237.11" transform="translate(385.03 -364.74) rotate(90)"/><path class="cls-3" d="M460.48,17V3.27L516.26,0a10.15,10.15,0,0,1,10.15,10.15h0A10.16,10.16,0,0,1,516.26,20.3Z"/><rect class="cls-2" x="256.33" y="32.97" width="13.75" height="237.11"/><path class="cls-3" d="M270.08,65.93H256.33l-3.27-55.78A10.14,10.14,0,0,1,263.2,0h0a10.14,10.14,0,0,1,10.15,10.15Z"/><rect class="cls-2" x="114.96" y="144.65" width="13.75" height="237.11" transform="translate(385.03 141.37) rotate(90)"/><path class="cls-3" d="M207.42,270.08V256.33l55.78-3.27a10.14,10.14,0,0,1,10.15,10.14h0a10.14,10.14,0,0,1-10.15,10.15Z"/><text class="cls-4" transform="translate(408.98 338.76)">Primer término<tspan x="9.05" y="36">tiene 8 palitos</tspan></text><rect class="cls-1" x="2407.29" y="144.65" width="13.75" height="237.11" transform="translate(2677.37 -2150.96) rotate(90)"/><path class="cls-1" d="M2499.75,270.08V256.33l55.79-3.27a10.15,10.15,0,0,1,10.15,10.14h0a10.15,10.15,0,0,1-10.15,10.15Z"/><rect class="cls-1" x="2288.73" width="13.75" height="237.11" transform="translate(4591.21 237.11) rotate(180)"/><path class="cls-1" d="M2288.73,204.15h13.75l3.27,55.78a10.14,10.14,0,0,1-10.14,10.15h0a10.14,10.14,0,0,1-10.15-10.15Z"/><rect class="cls-2" x="2147.36" y="-108.41" width="13.75" height="237.11" transform="translate(2164.38 -2144.08) rotate(90)"/><path class="cls-3" d="M2239.82,17V3.27L2295.61,0a10.14,10.14,0,0,1,10.14,10.15h0a10.15,10.15,0,0,1-10.14,10.15Z"/><rect class="cls-2" x="2035.68" y="32.97" width="13.75" height="237.11"/><path class="cls-3" d="M2049.43,65.93h-13.75l-3.28-55.78A10.15,10.15,0,0,1,2042.55,0h0a10.14,10.14,0,0,1,10.15,10.15Z"/><rect class="cls-2" x="1894.3" y="144.65" width="13.75" height="237.11" transform="translate(2164.38 -1637.97) rotate(90)"/><path class="cls-3" d="M1986.77,270.08V256.33l55.78-3.27a10.14,10.14,0,0,1,10.15,10.14h0a10.14,10.14,0,0,1-10.15,10.15Z"/><rect class="cls-2" x="1269.63" y="32.97" width="13.75" height="237.11"/><path class="cls-3" d="M1283.38,65.93h-13.75l-3.27-55.78A10.14,10.14,0,0,1,1276.51,0h0a10.15,10.15,0,0,1,10.15,10.15Z"/><rect class="cls-2" x="1775.75" y="0.02" width="13.75" height="237.11" transform="translate(3565.24 237.15) rotate(180)"/><path class="cls-3" d="M1775.75,204.17h13.74l3.28,55.78a10.16,10.16,0,0,1-10.15,10.15h0A10.16,10.16,0,0,1,1772.47,260Z"/><rect class="cls-2" x="1634.37" y="-108.41" width="13.75" height="237.11" transform="translate(1651.39 -1631.1) rotate(90)"/><path class="cls-3" d="M1726.84,17V3.27L1782.62,0a10.15,10.15,0,0,1,10.15,10.15h0a10.16,10.16,0,0,1-10.15,10.15Z"/><rect class="cls-2" x="1522.69" y="32.97" width="13.75" height="237.11"/><path class="cls-3" d="M1536.44,65.93h-13.75l-3.27-55.78A10.14,10.14,0,0,1,1529.56,0h0a10.14,10.14,0,0,1,10.15,10.15Z"/><rect class="cls-2" x="1381.32" y="144.65" width="13.75" height="237.11" transform="translate(1651.39 -1124.99) rotate(90)"/><path class="cls-3" d="M1473.78,270.08V256.33l55.78-3.27a10.14,10.14,0,0,1,10.15,10.14h0a10.14,10.14,0,0,1-10.15,10.15Z"/><text class="cls-4" transform="translate(1795.94 338.76)">Segundo término<tspan x="14.57" y="36">tiene 10 palitos</tspan></text><rect class="cls-1" x="4141.34" y="-108.41" width="13.75" height="237.11" transform="translate(4158.37 -4138.07) rotate(90)"/><path class="cls-1" d="M4233.81,17V3.27L4289.59,0a10.14,10.14,0,0,1,10.15,10.15h0a10.15,10.15,0,0,1-10.15,10.15Z"/><rect class="cls-1" x="4029.66" y="32.97" width="13.75" height="237.11"/><path class="cls-1" d="M4043.41,65.93h-13.75l-3.27-55.78A10.14,10.14,0,0,1,4036.54,0h0a10.14,10.14,0,0,1,10.14,10.15Z"/><rect class="cls-2" x="3888.29" y="144.65" width="13.75" height="237.11" transform="translate(4158.37 -3631.96) rotate(90)"/><path class="cls-3" d="M3980.75,270.08V256.33l55.79-3.27a10.14,10.14,0,0,1,10.14,10.14h0a10.14,10.14,0,0,1-10.14,10.15Z"/><rect class="cls-2" x="3769.73" width="13.75" height="237.11" transform="translate(7553.21 237.11) rotate(180)"/><path class="cls-3" d="M3769.73,204.15h13.75l3.27,55.78a10.14,10.14,0,0,1-10.14,10.15h0a10.14,10.14,0,0,1-10.15-10.15Z"/><rect class="cls-2" x="3628.36" y="-108.41" width="13.75" height="237.11" transform="translate(3645.38 -3625.08) rotate(90)"/><path class="cls-3" d="M3720.82,17V3.27L3776.61,0a10.14,10.14,0,0,1,10.14,10.15h0a10.15,10.15,0,0,1-10.14,10.15Z"/><rect class="cls-2" x="3516.68" y="32.97" width="13.75" height="237.11"/><path class="cls-3" d="M3530.43,65.93h-13.75l-3.28-55.78A10.15,10.15,0,0,1,3523.55,0h0a10.15,10.15,0,0,1,10.15,10.15Z"/><rect class="cls-2" x="3375.3" y="144.65" width="13.75" height="237.11" transform="translate(3645.38 -3118.97) rotate(90)"/><path class="cls-3" d="M3467.77,270.08V256.33l55.78-3.27a10.15,10.15,0,0,1,10.15,10.14h0a10.15,10.15,0,0,1-10.15,10.15Z"/><rect class="cls-2" x="2750.63" y="32.97" width="13.75" height="237.11"/><path class="cls-3" d="M2764.38,65.93h-13.75l-3.27-55.78A10.14,10.14,0,0,1,2757.51,0h0a10.15,10.15,0,0,1,10.15,10.15Z"/><rect class="cls-2" x="3256.74" y="0.02" width="13.75" height="237.11" transform="translate(6527.24 237.15) rotate(180)"/><path class="cls-3" d="M3256.74,204.17h13.75l3.28,55.78a10.16,10.16,0,0,1-10.15,10.15h0A10.15,10.15,0,0,1,3253.47,260Z"/><rect class="cls-2" x="3115.37" y="-108.41" width="13.75" height="237.11" transform="translate(3132.39 -3112.1) rotate(90)"/><path class="cls-3" d="M3207.84,17V3.27L3263.62,0a10.15,10.15,0,0,1,10.15,10.15h0a10.16,10.16,0,0,1-10.15,10.15Z"/><rect class="cls-2" x="3003.69" y="32.97" width="13.75" height="237.11"/><path class="cls-3" d="M3017.44,65.93h-13.75l-3.27-55.78A10.14,10.14,0,0,1,3010.56,0h0a10.14,10.14,0,0,1,10.15,10.15Z"/><rect class="cls-2" x="2862.32" y="144.65" width="13.75" height="237.11" transform="translate(3132.39 -2605.99) rotate(90)"/><path class="cls-3" d="M2954.78,270.08V256.33l55.78-3.27a10.14,10.14,0,0,1,10.15,10.14h0a10.14,10.14,0,0,1-10.15,10.15Z"/><text class="cls-4" transform="translate(3419.29 338.76)">Tercer término<tspan x="-2.45" y="36">tiene 12 palitos</tspan></text></svg>