<svg id="Layer_1" data-name="Layer 1" xmlns="http://www.w3.org/2000/svg" viewBox="0 0 2167.13 241.14"><defs><style>.cls-1{fill:#ffe2a1;}.cls-2{fill:#3a68ad;}</style></defs><title>Fosforos_V_3d</title><rect class="cls-1" x="2079.42" y="14.03" width="13.75" height="237.11" transform="translate(345.8 -1025.38) rotate(30)"/><path class="cls-2" d="M2135,61.9,2123.13,55l25.06-49.94a10.14,10.14,0,0,1,13.86-3.72h0a10.14,10.14,0,0,1,3.72,13.86Z"/><rect class="cls-1" x="1953.19" y="-12.45" width="13.75" height="237.11" transform="translate(3710.58 -782.03) rotate(150)"/><path class="cls-2" d="M1996.9,183.67l11.91-6.87,30.73,46.67a10.14,10.14,0,0,1-3.72,13.86h0a10.14,10.14,0,0,1-13.86-3.71Z"/><rect class="cls-1" x="1826.95" y="14.03" width="13.75" height="237.11" transform="translate(311.98 -899.15) rotate(30)"/><path class="cls-2" d="M1882.58,61.9,1870.67,55l25.06-49.94a10.14,10.14,0,0,1,13.86-3.72h0a10.14,10.14,0,0,1,3.71,13.86Z"/><rect class="cls-1" x="1700.72" y="-10" width="13.75" height="237.11" transform="translate(3240.7 -651.23) rotate(150)"/><path class="cls-2" d="M1744.44,186.12l11.91-6.88,30.72,46.67a10.16,10.16,0,0,1-3.71,13.87h0a10.16,10.16,0,0,1-13.87-3.72Z"/><rect class="cls-1" x="1574.49" y="16.47" width="13.75" height="237.11" transform="translate(279.38 -772.59) rotate(30)"/><path class="cls-2" d="M1630.11,64.34l-11.91-6.88,25.06-49.94a10.15,10.15,0,0,1,13.86-3.72h0a10.16,10.16,0,0,1,3.72,13.87Z"/><rect class="cls-1" x="1448.26" y="-10" width="13.75" height="237.11" transform="translate(2769.59 -525) rotate(150)"/><path class="cls-2" d="M1492,186.12l11.91-6.88,30.73,46.67a10.16,10.16,0,0,1-3.72,13.87h0a10.14,10.14,0,0,1-13.86-3.72Z"/><rect class="cls-1" x="1322.02" y="16.47" width="13.75" height="237.11" transform="translate(245.55 -646.36) rotate(30)"/><path class="cls-2" d="M1377.65,64.34l-11.91-6.88,25-49.94a10.16,10.16,0,0,1,13.87-3.72h0a10.16,10.16,0,0,1,3.71,13.87Z"/><rect class="cls-1" x="1194.45" y="-12.45" width="13.75" height="237.11" transform="translate(2294.76 -402.66) rotate(150)"/><path class="cls-2" d="M1238.17,183.67l11.9-6.87,30.73,46.67a10.15,10.15,0,0,1-3.71,13.86h0a10.15,10.15,0,0,1-13.87-3.71Z"/><rect class="cls-1" x="1068.22" y="14.03" width="13.75" height="237.11" transform="translate(210.33 -519.78) rotate(30)"/><path class="cls-2" d="M1123.84,61.9,1111.93,55,1137,5.08a10.14,10.14,0,0,1,13.86-3.72h0a10.14,10.14,0,0,1,3.72,13.86Z"/><rect class="cls-1" x="941.99" y="-12.45" width="13.75" height="237.11" transform="matrix(-0.87, 0.5, -0.5, -0.87, 1823.65, -276.43)"/><path class="cls-2" d="M985.7,183.67l11.91-6.87,30.73,46.67a10.14,10.14,0,0,1-3.72,13.86h0a10.14,10.14,0,0,1-13.86-3.71Z"/><rect class="cls-1" x="815.75" y="14.03" width="13.75" height="237.11" transform="translate(176.5 -393.55) rotate(30)"/><path class="cls-2" d="M871.38,61.9,859.47,55l25-49.94a10.16,10.16,0,0,1,13.87-3.72h0a10.15,10.15,0,0,1,3.71,13.86Z"/><rect class="cls-1" x="689.52" y="-12.45" width="13.75" height="237.11" transform="translate(1352.55 -150.19) rotate(150)"/><path class="cls-2" d="M733.24,183.67l11.91-6.87,30.72,46.67a10.14,10.14,0,0,1-3.71,13.86h0a10.14,10.14,0,0,1-13.86-3.71Z"/><rect class="cls-1" x="563.29" y="14.03" width="13.75" height="237.11" transform="translate(142.68 -267.32) rotate(30)"/><path class="cls-2" d="M618.91,61.9,607,55l25-49.94a10.14,10.14,0,0,1,13.86-3.72h0a10.14,10.14,0,0,1,3.72,13.86Z"/><rect class="cls-1" x="437.06" y="-10" width="13.75" height="237.11" transform="matrix(-0.87, 0.5, -0.5, -0.87, 882.67, -19.4)"/><path class="cls-2" d="M480.77,186.12l11.91-6.88,30.73,46.67a10.16,10.16,0,0,1-3.72,13.87h0a10.14,10.14,0,0,1-13.86-3.72Z"/><rect class="cls-1" x="310.82" y="16.47" width="13.75" height="237.11" transform="translate(110.08 -140.76) rotate(30)"/><path class="cls-2" d="M366.45,64.34l-11.91-6.88L379.6,7.52A10.15,10.15,0,0,1,393.46,3.8h0a10.15,10.15,0,0,1,3.71,13.87Z"/><rect class="cls-1" x="184.59" y="-10" width="13.75" height="237.11" transform="translate(411.56 106.83) rotate(150)"/><path class="cls-2" d="M228.31,186.12l11.91-6.88,30.72,46.67a10.16,10.16,0,0,1-3.71,13.87h0a10.16,10.16,0,0,1-13.87-3.72Z"/><rect class="cls-1" x="58.36" y="16.47" width="13.75" height="237.11" transform="translate(76.25 -14.53) rotate(30)"/><path class="cls-2" d="M114,64.34l-11.91-6.88L127.13,7.52A10.15,10.15,0,0,1,141,3.8h0a10.16,10.16,0,0,1,3.72,13.87Z"/></svg>