<svg id="Layer_1" data-name="Layer 1" xmlns="http://www.w3.org/2000/svg" viewBox="0 0 787.67 373.86"><defs><style>.cls-1{fill:#d32a2a;}.cls-2{fill:#ffe2a1;}.cls-3{fill:#3a68ad;}</style></defs><title>Fosforos_U03_01_01</title><rect class="cls-1" x="769.32" y="32.97" width="13.75" height="237.11"/><path class="cls-1" d="M783.07,65.93H769.32L766,10.15A10.15,10.15,0,0,1,776.19,0h0a10.14,10.14,0,0,1,10.15,10.15Z"/><rect class="cls-1" x="627.94" y="144.65" width="13.75" height="237.11" transform="translate(898.02 -371.61) rotate(90)"/><path class="cls-1" d="M720.41,270.08V256.33l55.78-3.27a10.14,10.14,0,0,1,10.15,10.14h0a10.14,10.14,0,0,1-10.15,10.15Z"/><rect class="cls-2" x="3.27" y="32.97" width="13.75" height="237.11"/><path class="cls-3" d="M17,65.93H3.27L0,10.15A10.14,10.14,0,0,1,10.15,0h0A10.15,10.15,0,0,1,20.3,10.15Z"/><rect class="cls-2" x="509.39" y="0.02" width="13.75" height="237.11" transform="translate(1032.52 237.15) rotate(180)"/><path class="cls-3" d="M509.39,204.17h13.74L526.41,260a10.16,10.16,0,0,1-10.15,10.15h0A10.16,10.16,0,0,1,506.11,260Z"/><rect class="cls-2" x="368.01" y="-108.41" width="13.75" height="237.11" transform="translate(385.03 -364.74) rotate(90)"/><path class="cls-3" d="M460.48,17V3.27L516.26,0a10.15,10.15,0,0,1,10.15,10.15h0A10.16,10.16,0,0,1,516.26,20.3Z"/><rect class="cls-2" x="256.33" y="32.97" width="13.75" height="237.11"/><path class="cls-3" d="M270.08,65.93H256.33l-3.27-55.78A10.14,10.14,0,0,1,263.2,0h0a10.14,10.14,0,0,1,10.15,10.15Z"/><rect class="cls-2" x="114.96" y="144.65" width="13.75" height="237.11" transform="translate(385.03 141.37) rotate(90)"/><path class="cls-3" d="M207.42,270.08V256.33l55.78-3.27a10.14,10.14,0,0,1,10.15,10.14h0a10.14,10.14,0,0,1-10.15,10.15Z"/><path d="M296.05,291.85a7.46,7.46,0,0,1-2.75,6.21c-1.84,1.44-4.46,2.17-7.88,2.17H282.3v10.44h-3.09V284.12h6.89Q296,284.12,296.05,291.85Zm-13.75,5.73h2.78c2.74,0,4.71-.45,5.94-1.33a4.89,4.89,0,0,0,1.83-4.25,4.57,4.57,0,0,0-1.72-3.92c-1.15-.86-2.95-1.29-5.38-1.29H282.3Z"/><path d="M310.23,290.4a11.41,11.41,0,0,1,2.38.22l-.42,2.8a9.7,9.7,0,0,0-2.17-.28,5.33,5.33,0,0,0-4.14,2,7.14,7.14,0,0,0-1.71,4.88v10.68h-3V290.76h2.49l.35,3.69h.14a8.92,8.92,0,0,1,2.67-3A6,6,0,0,1,310.23,290.4Z"/><path d="M316.08,285.37a2,2,0,0,1,.51-1.52,1.78,1.78,0,0,1,1.27-.48,1.83,1.83,0,0,1,1.26.49,2,2,0,0,1,.52,1.51,2,2,0,0,1-.52,1.52,1.79,1.79,0,0,1-1.26.5,1.75,1.75,0,0,1-1.27-.5A2.05,2.05,0,0,1,316.08,285.37Zm3.27,25.3h-3V290.76h3Z"/><path d="M351.12,310.67V297.72a5.36,5.36,0,0,0-1-3.57,3.94,3.94,0,0,0-3.16-1.19,5.1,5.1,0,0,0-4.16,1.62,7.67,7.67,0,0,0-1.34,5v11.11h-3V297.72a5.36,5.36,0,0,0-1-3.57,3.94,3.94,0,0,0-3.17-1.19,4.92,4.92,0,0,0-4.15,1.7q-1.32,1.69-1.32,5.57v10.44h-3V290.76h2.46l.49,2.73h.14a5.87,5.87,0,0,1,2.41-2.27,7.27,7.27,0,0,1,3.48-.82q4.66,0,6.1,3.38H341a6.47,6.47,0,0,1,2.58-2.47,8,8,0,0,1,3.85-.91,6.72,6.72,0,0,1,5.06,1.74q1.68,1.73,1.68,5.54v13Z"/><path d="M368.75,311a9.14,9.14,0,0,1-7-2.68,10.43,10.43,0,0,1-2.55-7.47,11.55,11.55,0,0,1,2.37-7.65A7.89,7.89,0,0,1,368,290.4a7.49,7.49,0,0,1,5.92,2.46,9.41,9.41,0,0,1,2.18,6.5v1.9H362.36a7.88,7.88,0,0,0,1.77,5.32,6.1,6.1,0,0,0,4.73,1.82,16.14,16.14,0,0,0,6.36-1.34v2.68a15.91,15.91,0,0,1-3,1A16.91,16.91,0,0,1,368.75,311Zm-.81-18.1a4.94,4.94,0,0,0-3.83,1.56,7.2,7.2,0,0,0-1.68,4.32h10.41a6.62,6.62,0,0,0-1.27-4.37A4.48,4.48,0,0,0,367.94,292.93Z"/><path d="M390.29,290.4a11.41,11.41,0,0,1,2.38.22l-.41,2.8a9.85,9.85,0,0,0-2.18-.28,5.33,5.33,0,0,0-4.14,2,7.14,7.14,0,0,0-1.71,4.88v10.68h-3V290.76h2.49l.35,3.69h.14a8.92,8.92,0,0,1,2.67-3A6,6,0,0,1,390.29,290.4Z"/><path d="M413.58,300.7c0,3.24-.82,5.78-2.45,7.6a8.66,8.66,0,0,1-6.78,2.73,8.93,8.93,0,0,1-4.74-1.25,8.27,8.27,0,0,1-3.2-3.6,12.53,12.53,0,0,1-1.12-5.48c0-3.25.81-5.77,2.43-7.58a8.62,8.62,0,0,1,6.76-2.72,8.44,8.44,0,0,1,6.64,2.78A10.93,10.93,0,0,1,413.58,300.7Zm-15.17,0a9.42,9.42,0,0,0,1.53,5.81,6.05,6.05,0,0,0,9,0,9.44,9.44,0,0,0,1.53-5.82,9.29,9.29,0,0,0-1.53-5.77,5.39,5.39,0,0,0-4.53-2,5.29,5.29,0,0,0-4.47,2Q398.41,296.84,398.41,300.7Z"/><path d="M435,308.55a9.7,9.7,0,0,0,1.54-.12,9,9,0,0,0,1.18-.25v2.31a5.37,5.37,0,0,1-1.44.39,11.23,11.23,0,0,1-1.72.15c-3.85,0-5.78-2-5.78-6.08V293.11h-2.85v-1.46l2.85-1.25,1.28-4.25h1.74v4.61h5.77v2.35h-5.77v11.71a4,4,0,0,0,.85,2.76A3,3,0,0,0,435,308.55Z"/><path d="M450.07,311a9.15,9.15,0,0,1-7-2.68,10.43,10.43,0,0,1-2.55-7.47,11.55,11.55,0,0,1,2.37-7.65,7.9,7.9,0,0,1,6.37-2.83,7.52,7.52,0,0,1,5.92,2.46,9.46,9.46,0,0,1,2.18,6.5v1.9H443.67a7.88,7.88,0,0,0,1.77,5.32,6.11,6.11,0,0,0,4.74,1.82,16.09,16.09,0,0,0,6.35-1.34v2.68a15.83,15.83,0,0,1-3,1A17,17,0,0,1,450.07,311Zm-.82-18.1a4.92,4.92,0,0,0-3.82,1.56,7.2,7.2,0,0,0-1.68,4.32h10.4a6.62,6.62,0,0,0-1.27-4.37A4.48,4.48,0,0,0,449.25,292.93ZM447,287.68c.58-.75,1.2-1.66,1.87-2.73a26.86,26.86,0,0,0,1.59-2.78h3.67v.39a34.12,34.12,0,0,1-5.12,5.57h-2Z"/><path d="M471.61,290.4a11.54,11.54,0,0,1,2.38.22l-.42,2.8a9.85,9.85,0,0,0-2.18-.28,5.3,5.3,0,0,0-4.13,2,7.1,7.1,0,0,0-1.72,4.88v10.68h-3V290.76H465l.35,3.69h.14a8.92,8.92,0,0,1,2.67-3A6.06,6.06,0,0,1,471.61,290.4Z"/><path d="M503.08,310.67V297.72a5.41,5.41,0,0,0-1-3.57,4,4,0,0,0-3.16-1.19,5.09,5.09,0,0,0-4.16,1.62,7.67,7.67,0,0,0-1.35,5v11.11h-3V297.72a5.36,5.36,0,0,0-1-3.57,4,4,0,0,0-3.18-1.19,4.93,4.93,0,0,0-4.15,1.7q-1.32,1.69-1.32,5.57v10.44h-3V290.76h2.45l.49,2.73h.15a5.91,5.91,0,0,1,2.4-2.27,7.32,7.32,0,0,1,3.48-.82c3.11,0,5.15,1.13,6.1,3.38h.15a6.34,6.34,0,0,1,2.58-2.47,7.94,7.94,0,0,1,3.85-.91,6.74,6.74,0,0,1,5.06,1.74q1.68,1.73,1.68,5.54v13Z"/><path d="M512.05,285.37a2,2,0,0,1,.51-1.52,1.79,1.79,0,0,1,1.27-.48,1.81,1.81,0,0,1,1.26.49,2,2,0,0,1,.52,1.51,2,2,0,0,1-.52,1.52,1.85,1.85,0,0,1-2.53,0A2.05,2.05,0,0,1,512.05,285.37Zm3.27,25.3h-3V290.76h3Z"/><path d="M535.34,310.67V297.79a5.19,5.19,0,0,0-1.11-3.63,4.51,4.51,0,0,0-3.47-1.2,5.72,5.72,0,0,0-4.57,1.69q-1.46,1.69-1.46,5.58v10.44h-3V290.76h2.45l.49,2.73h.14a6.22,6.22,0,0,1,2.6-2.28,8.47,8.47,0,0,1,3.73-.81,7.55,7.55,0,0,1,5.41,1.74q1.82,1.73,1.81,5.54v13Z"/><path d="M561.73,300.7c0,3.24-.82,5.78-2.45,7.6A8.66,8.66,0,0,1,552.5,311a8.93,8.93,0,0,1-4.74-1.25,8.19,8.19,0,0,1-3.19-3.6,12.39,12.39,0,0,1-1.13-5.48c0-3.25.81-5.77,2.43-7.58a8.63,8.63,0,0,1,6.76-2.72,8.44,8.44,0,0,1,6.64,2.78A10.93,10.93,0,0,1,561.73,300.7Zm-15.17,0a9.42,9.42,0,0,0,1.53,5.81,6.05,6.05,0,0,0,9,0,9.43,9.43,0,0,0,1.54-5.82,9.29,9.29,0,0,0-1.54-5.77,5.39,5.39,0,0,0-4.53-2,5.31,5.31,0,0,0-4.47,2A9.36,9.36,0,0,0,546.56,300.7Z"/><path d="M307.65,353.18a9.7,9.7,0,0,0,1.54-.12,11.37,11.37,0,0,0,1.18-.24v2.3a5.71,5.71,0,0,1-1.44.4,11.23,11.23,0,0,1-1.72.15q-5.77,0-5.78-6.08V337.74h-2.85v-1.45l2.85-1.25,1.28-4.25h1.74v4.61h5.77v2.34h-5.77v11.72a4,4,0,0,0,.85,2.76A3,3,0,0,0,307.65,353.18Z"/><path d="M314.09,330a2,2,0,0,1,.51-1.52,1.89,1.89,0,0,1,2.53,0,2.45,2.45,0,0,1,0,3,1.75,1.75,0,0,1-1.26.5,1.71,1.71,0,0,1-1.27-.5A2,2,0,0,1,314.09,330Zm3.27,25.3h-3V335.4h3Z"/><path d="M332.16,355.67a9.14,9.14,0,0,1-7-2.69,10.4,10.4,0,0,1-2.55-7.46,11.55,11.55,0,0,1,2.37-7.65,7.86,7.86,0,0,1,6.36-2.83,7.49,7.49,0,0,1,5.92,2.46,9.39,9.39,0,0,1,2.18,6.49v1.91H325.77a7.88,7.88,0,0,0,1.77,5.32,6.13,6.13,0,0,0,4.73,1.82,16,16,0,0,0,6.36-1.35v2.69a16.06,16.06,0,0,1-3,1A17,17,0,0,1,332.16,355.67Zm-.81-18.11a4.94,4.94,0,0,0-3.83,1.56,7.25,7.25,0,0,0-1.68,4.33h10.41a6.62,6.62,0,0,0-1.27-4.37A4.48,4.48,0,0,0,331.35,337.56Z"/><path d="M358.25,355.31V342.43a5.19,5.19,0,0,0-1.11-3.63,4.52,4.52,0,0,0-3.47-1.2,5.72,5.72,0,0,0-4.58,1.69q-1.45,1.68-1.45,5.57v10.45h-3V335.4h2.46l.49,2.72h.14a6.13,6.13,0,0,1,2.6-2.27A8.39,8.39,0,0,1,354,335a7.58,7.58,0,0,1,5.41,1.73c1.22,1.16,1.82,3,1.82,5.55v13Z"/><path d="M375.86,355.67a9.14,9.14,0,0,1-7-2.69,10.4,10.4,0,0,1-2.55-7.46,11.55,11.55,0,0,1,2.37-7.65,7.86,7.86,0,0,1,6.36-2.83A7.49,7.49,0,0,1,381,337.5a9.39,9.39,0,0,1,2.18,6.49v1.91H369.47a7.88,7.88,0,0,0,1.77,5.32A6.13,6.13,0,0,0,376,353a16,16,0,0,0,6.36-1.35v2.69a16.06,16.06,0,0,1-3,1A17.09,17.09,0,0,1,375.86,355.67Zm-.81-18.11a4.94,4.94,0,0,0-3.83,1.56,7.25,7.25,0,0,0-1.68,4.33H380a6.62,6.62,0,0,0-1.27-4.37A4.48,4.48,0,0,0,375.05,337.56Z"/><path d="M400,355.31l11-23.78H396.5v-2.78h17.67v2.42l-10.86,24.14Z"/><path d="M438.18,355.67a8.56,8.56,0,0,1-3.55-.72,6.74,6.74,0,0,1-2.7-2.2h-.22a25.74,25.74,0,0,1,.22,3.3v8.19h-3V335.4h2.45l.42,2.72h.14a7.17,7.17,0,0,1,2.71-2.36,8.29,8.29,0,0,1,3.54-.72,7.35,7.35,0,0,1,6.11,2.7c1.44,1.81,2.15,4.34,2.15,7.6s-.73,5.8-2.19,7.61A7.35,7.35,0,0,1,438.18,355.67Zm-.44-18.07a5.33,5.33,0,0,0-4.41,1.69c-.91,1.12-1.37,2.92-1.4,5.37v.68q0,4.19,1.4,6a5.34,5.34,0,0,0,4.49,1.81,4.69,4.69,0,0,0,4-2.09,10,10,0,0,0,1.46-5.76,9.55,9.55,0,0,0-1.46-5.71A4.81,4.81,0,0,0,437.74,337.6Z"/><path d="M464,355.31l-.6-2.84h-.14a8.58,8.58,0,0,1-3,2.54,9.11,9.11,0,0,1-3.7.66,6.64,6.64,0,0,1-4.64-1.53,5.55,5.55,0,0,1-1.68-4.34q0-6,9.64-6.32l3.38-.11v-1.23a5.05,5.05,0,0,0-1-3.46,4.15,4.15,0,0,0-3.23-1.12,13.12,13.12,0,0,0-5.63,1.53l-.93-2.31a14.36,14.36,0,0,1,3.23-1.25,14.1,14.1,0,0,1,3.51-.46q3.57,0,5.28,1.58c1.14,1.06,1.72,2.75,1.72,5.07v13.59Zm-6.81-2.13a6.1,6.1,0,0,0,4.42-1.54,5.72,5.72,0,0,0,1.61-4.32v-1.8l-3,.12a11,11,0,0,0-5.19,1.12,3.37,3.37,0,0,0-1.59,3.08,3.11,3.11,0,0,0,1,2.49A4.1,4.1,0,0,0,457.14,353.18Z"/><path d="M475.41,355.31h-3V327.05h3Z"/><path d="M481.55,330a2,2,0,0,1,.51-1.52,1.88,1.88,0,0,1,2.52,0,2.42,2.42,0,0,1,0,3,1.73,1.73,0,0,1-1.25.5,1.71,1.71,0,0,1-1.27-.5A2,2,0,0,1,481.55,330Zm3.27,25.3h-3V335.4h3Z"/><path d="M497.64,353.18a9.74,9.74,0,0,0,1.55-.12,12,12,0,0,0,1.18-.24v2.3a5.68,5.68,0,0,1-1.45.4,11,11,0,0,1-1.71.15q-5.77,0-5.78-6.08V337.74h-2.85v-1.45l2.85-1.25,1.27-4.25h1.75v4.61h5.77v2.34h-5.77v11.72a4,4,0,0,0,.85,2.76A3,3,0,0,0,497.64,353.18Z"/><path d="M521.53,345.34q0,4.86-2.46,7.6a8.63,8.63,0,0,1-6.77,2.73,9,9,0,0,1-4.74-1.25,8.32,8.32,0,0,1-3.2-3.6,12.53,12.53,0,0,1-1.12-5.48q0-4.87,2.43-7.59a8.61,8.61,0,0,1,6.76-2.71,8.42,8.42,0,0,1,6.64,2.78A10.93,10.93,0,0,1,521.53,345.34Zm-15.17,0a9.42,9.42,0,0,0,1.53,5.81,5.29,5.29,0,0,0,4.48,2,5.36,5.36,0,0,0,4.5-2,9.44,9.44,0,0,0,1.53-5.82,9.26,9.26,0,0,0-1.53-5.77,5.42,5.42,0,0,0-4.53-2,5.31,5.31,0,0,0-4.47,1.94Q506.36,341.49,506.36,345.34Z"/><path d="M539.65,349.88a5,5,0,0,1-2.07,4.28,9.7,9.7,0,0,1-5.81,1.51,12.73,12.73,0,0,1-6.18-1.25v-2.8a14.9,14.9,0,0,0,3.08,1.14,12.86,12.86,0,0,0,3.17.42,7.24,7.24,0,0,0,3.64-.75,2.6,2.6,0,0,0,.26-4.29,15.81,15.81,0,0,0-3.93-1.95,20.66,20.66,0,0,1-3.95-1.81,5.31,5.31,0,0,1-1.75-1.75,4.58,4.58,0,0,1-.57-2.34,4.44,4.44,0,0,1,2-3.84A9.21,9.21,0,0,1,533,335a15.72,15.72,0,0,1,6.28,1.31l-1.07,2.45a14.29,14.29,0,0,0-5.43-1.24,6.33,6.33,0,0,0-3.23.67,2.08,2.08,0,0,0-1.09,1.86,2.28,2.28,0,0,0,.41,1.36,4.05,4.05,0,0,0,1.32,1.07,28.31,28.31,0,0,0,3.48,1.47,13.1,13.1,0,0,1,4.79,2.6A4.58,4.58,0,0,1,539.65,349.88Z"/></svg>