<svg id="Layer_1" data-name="Layer 1" xmlns="http://www.w3.org/2000/svg" viewBox="0 0 2325.3 379.17"><defs><style>.cls-1{fill:#d32a2a;}.cls-2{fill:#ffe2a1;}.cls-3{fill:#3a68ad;}</style></defs><title>Fosforos_U03_05_03</title><rect class="cls-1" x="2166.9" y="144.65" width="13.75" height="237.11" transform="translate(2436.98 -1910.57) rotate(90)"/><path class="cls-1" d="M2259.37,270.08V256.33l55.78-3.27a10.15,10.15,0,0,1,10.15,10.14h0a10.15,10.15,0,0,1-10.15,10.15Z"/><rect class="cls-1" x="2048.34" width="13.75" height="237.11" transform="translate(4110.44 237.11) rotate(180)"/><path class="cls-1" d="M2048.34,204.15h13.75l3.28,55.78a10.15,10.15,0,0,1-10.15,10.15h0a10.14,10.14,0,0,1-10.15-10.15Z"/><rect class="cls-1" x="1906.97" y="-108.41" width="13.75" height="237.11" transform="translate(1923.99 -1903.7) rotate(90)"/><path class="cls-1" d="M1999.44,17V3.27L2055.22,0a10.15,10.15,0,0,1,10.15,10.15h0a10.16,10.16,0,0,1-10.15,10.15Z"/><rect class="cls-2" x="1795.29" y="32.97" width="13.75" height="237.11"/><path class="cls-3" d="M1809,65.93h-13.75L1792,10.15A10.15,10.15,0,0,1,1802.16,0h0a10.14,10.14,0,0,1,10.15,10.15Z"/><rect class="cls-2" x="1653.91" y="144.65" width="13.75" height="237.11" transform="translate(1923.99 -1397.59) rotate(90)"/><path class="cls-3" d="M1746.38,270.08V256.33l55.78-3.27a10.14,10.14,0,0,1,10.15,10.14h0a10.14,10.14,0,0,1-10.15,10.15Z"/><rect class="cls-2" x="1535.36" y="0.02" width="13.75" height="237.11" transform="translate(3084.47 237.15) rotate(180)"/><path class="cls-3" d="M1535.36,204.17h13.75l3.27,55.78a10.15,10.15,0,0,1-10.15,10.15h0A10.16,10.16,0,0,1,1532.08,260Z"/><rect class="cls-2" x="1393.98" y="-108.41" width="13.75" height="237.11" transform="translate(1411.01 -1390.71) rotate(90)"/><path class="cls-3" d="M1486.45,17V3.27L1542.23,0a10.14,10.14,0,0,1,10.15,10.15h0a10.15,10.15,0,0,1-10.15,10.15Z"/><rect class="cls-2" x="1282.3" y="32.97" width="13.75" height="237.11"/><path class="cls-3" d="M1296.05,65.93H1282.3L1279,10.15A10.14,10.14,0,0,1,1289.18,0h0a10.15,10.15,0,0,1,10.15,10.15Z"/><rect class="cls-2" x="1140.93" y="144.65" width="13.75" height="237.11" transform="translate(1411.01 -884.6) rotate(90)"/><path class="cls-3" d="M1233.39,270.08V256.33l55.79-3.27a10.15,10.15,0,0,1,10.15,10.14h0a10.15,10.15,0,0,1-10.15,10.15Z"/><rect class="cls-2" x="1022.37" width="13.75" height="237.11" transform="translate(2058.49 237.11) rotate(180)"/><path class="cls-3" d="M1022.37,204.15h13.75l3.27,55.78a10.14,10.14,0,0,1-10.14,10.15h0a10.14,10.14,0,0,1-10.15-10.15Z"/><rect class="cls-2" x="881" y="-108.41" width="13.75" height="237.11" transform="translate(898.02 -877.72) rotate(90)"/><path class="cls-3" d="M973.46,17V3.27L1029.25,0a10.14,10.14,0,0,1,10.14,10.15h0a10.15,10.15,0,0,1-10.14,10.15Z"/><rect class="cls-2" x="769.32" y="32.97" width="13.75" height="237.11"/><path class="cls-3" d="M783.07,65.93H769.32L766,10.15A10.15,10.15,0,0,1,776.19,0h0a10.14,10.14,0,0,1,10.15,10.15Z"/><rect class="cls-2" x="627.94" y="144.65" width="13.75" height="237.11" transform="translate(898.02 -371.61) rotate(90)"/><path class="cls-3" d="M720.41,270.08V256.33l55.78-3.27a10.14,10.14,0,0,1,10.15,10.14h0a10.14,10.14,0,0,1-10.15,10.15Z"/><rect class="cls-2" x="3.27" y="32.97" width="13.75" height="237.11"/><path class="cls-3" d="M17,65.93H3.27L0,10.15A10.14,10.14,0,0,1,10.15,0h0A10.15,10.15,0,0,1,20.3,10.15Z"/><rect class="cls-2" x="509.39" y="0.02" width="13.75" height="237.11" transform="translate(1032.52 237.15) rotate(180)"/><path class="cls-3" d="M509.39,204.17h13.74L526.41,260a10.16,10.16,0,0,1-10.15,10.15h0A10.16,10.16,0,0,1,506.11,260Z"/><rect class="cls-2" x="368.01" y="-108.41" width="13.75" height="237.11" transform="translate(385.03 -364.74) rotate(90)"/><path class="cls-3" d="M460.48,17V3.27L516.26,0a10.15,10.15,0,0,1,10.15,10.15h0A10.16,10.16,0,0,1,516.26,20.3Z"/><rect class="cls-2" x="256.33" y="32.97" width="13.75" height="237.11"/><path class="cls-3" d="M270.08,65.93H256.33l-3.27-55.78A10.14,10.14,0,0,1,263.2,0h0a10.14,10.14,0,0,1,10.15,10.15Z"/><rect class="cls-2" x="114.96" y="144.65" width="13.75" height="237.11" transform="translate(385.03 141.37) rotate(90)"/><path class="cls-3" d="M207.42,270.08V256.33l55.78-3.27a10.14,10.14,0,0,1,10.15,10.14h0a10.14,10.14,0,0,1-10.15,10.15Z"/><path d="M965,325.6h-3.09V301.79h-8.41V299h19.91v2.75H965Z"/><path d="M985.34,326a9.12,9.12,0,0,1-7-2.69,10.4,10.4,0,0,1-2.55-7.46,11.55,11.55,0,0,1,2.37-7.65,7.87,7.87,0,0,1,6.37-2.83,7.52,7.52,0,0,1,5.92,2.46,9.43,9.43,0,0,1,2.18,6.49v1.91H978.94a7.88,7.88,0,0,0,1.77,5.32,6.14,6.14,0,0,0,4.74,1.82A15.93,15.93,0,0,0,991.8,322v2.69a15.83,15.83,0,0,1-3,1A17,17,0,0,1,985.34,326Zm-.82-18.11a4.92,4.92,0,0,0-3.82,1.56,7.19,7.19,0,0,0-1.68,4.33h10.4a6.62,6.62,0,0,0-1.27-4.37A4.48,4.48,0,0,0,984.52,307.85Z"/><path d="M1006.88,305.33a11.54,11.54,0,0,1,2.38.22l-.42,2.79a10.33,10.33,0,0,0-2.18-.27,5.29,5.29,0,0,0-4.13,2,7.14,7.14,0,0,0-1.72,4.89V325.6h-3V305.69h2.48l.35,3.69h.14a8.73,8.73,0,0,1,2.67-3A6.06,6.06,0,0,1,1006.88,305.33Z"/><path d="M1020.93,326a8.5,8.5,0,0,1-6.69-2.66q-2.37-2.66-2.37-7.53t2.41-7.72a8.67,8.67,0,0,1,6.85-2.72,13.28,13.28,0,0,1,2.87.31,9.26,9.26,0,0,1,2.26.72l-.93,2.56a15.54,15.54,0,0,0-2.18-.66,10.07,10.07,0,0,0-2.09-.26q-6.06,0-6.06,7.74a9.21,9.21,0,0,0,1.48,5.63,5.15,5.15,0,0,0,4.38,2,13.54,13.54,0,0,0,5.11-1.07v2.67A10.92,10.92,0,0,1,1020.93,326Z"/><path d="M1039.1,326a9.13,9.13,0,0,1-7-2.69,10.4,10.4,0,0,1-2.55-7.46,11.55,11.55,0,0,1,2.37-7.65,7.87,7.87,0,0,1,6.37-2.83,7.52,7.52,0,0,1,5.92,2.46,9.43,9.43,0,0,1,2.18,6.49v1.91H1032.7a7.93,7.93,0,0,0,1.78,5.32,6.1,6.1,0,0,0,4.73,1.82,15.93,15.93,0,0,0,6.35-1.35v2.69a15.83,15.83,0,0,1-3,1A17,17,0,0,1,1039.1,326Zm-.82-18.11a4.92,4.92,0,0,0-3.82,1.56,7.25,7.25,0,0,0-1.68,4.33h10.4a6.62,6.62,0,0,0-1.27-4.37A4.48,4.48,0,0,0,1038.28,307.85Z"/><path d="M1060.64,305.33a11.54,11.54,0,0,1,2.38.22l-.42,2.79a10.33,10.33,0,0,0-2.18-.27,5.29,5.29,0,0,0-4.13,2,7.14,7.14,0,0,0-1.72,4.89V325.6h-3V305.69h2.49l.34,3.69h.15a8.61,8.61,0,0,1,2.66-3A6.06,6.06,0,0,1,1060.64,305.33Z"/><path d="M1082.83,323.47a9.83,9.83,0,0,0,1.55-.12,9.6,9.6,0,0,0,1.18-.24v2.31a6.2,6.2,0,0,1-1.45.39,11,11,0,0,1-1.71.15q-5.78,0-5.78-6.08V308h-2.85v-1.45l2.85-1.25,1.27-4.25h1.75v4.61h5.77V308h-5.77v11.72a4,4,0,0,0,.85,2.76A3,3,0,0,0,1082.83,323.47Z"/><path d="M1097.94,326a9.11,9.11,0,0,1-7-2.69,10.4,10.4,0,0,1-2.55-7.46,11.55,11.55,0,0,1,2.37-7.65,7.86,7.86,0,0,1,6.36-2.83,7.49,7.49,0,0,1,5.92,2.46,9.39,9.39,0,0,1,2.18,6.49v1.91h-13.71a7.88,7.88,0,0,0,1.77,5.32,6.13,6.13,0,0,0,4.73,1.82,16,16,0,0,0,6.36-1.35v2.69a16.06,16.06,0,0,1-3,1A17,17,0,0,1,1097.94,326Zm-.81-18.11a4.94,4.94,0,0,0-3.83,1.56,7.25,7.25,0,0,0-1.68,4.33H1102a6.62,6.62,0,0,0-1.27-4.37A4.48,4.48,0,0,0,1097.13,307.85Zm-2.24-5.25c.58-.75,1.21-1.65,1.88-2.72s1.2-2,1.59-2.78H1102v.38a26.62,26.62,0,0,1-2.38,2.91,27.26,27.26,0,0,1-2.74,2.67h-2Z"/><path d="M1119.48,305.33a11.41,11.41,0,0,1,2.38.22l-.41,2.79a10.41,10.41,0,0,0-2.18-.27,5.32,5.32,0,0,0-4.14,2,7.18,7.18,0,0,0-1.71,4.89V325.6h-3V305.69h2.49l.35,3.69h.14a8.73,8.73,0,0,1,2.67-3A6,6,0,0,1,1119.48,305.33Z"/><path d="M1151,325.6v-13a5.36,5.36,0,0,0-1-3.57,3.94,3.94,0,0,0-3.16-1.19,5.1,5.1,0,0,0-4.16,1.62,7.68,7.68,0,0,0-1.34,5V325.6h-3v-13a5.41,5.41,0,0,0-1-3.57,4,4,0,0,0-3.18-1.19,4.9,4.9,0,0,0-4.15,1.7c-.88,1.13-1.32,3-1.32,5.56V325.6h-3V305.69H1128l.49,2.73h.14a5.93,5.93,0,0,1,2.41-2.27,7.32,7.32,0,0,1,3.48-.82c3.11,0,5.15,1.12,6.1,3.38h.15a6.28,6.28,0,0,1,2.58-2.47,7.94,7.94,0,0,1,3.85-.91,6.75,6.75,0,0,1,5,1.73q1.68,1.74,1.68,5.55v13Z"/><path d="M1159.93,300.3a2,2,0,0,1,.51-1.52,1.89,1.89,0,0,1,2.53,0,2.45,2.45,0,0,1,0,3,1.75,1.75,0,0,1-1.26.5,1.71,1.71,0,0,1-1.27-.5A2,2,0,0,1,1159.93,300.3Zm3.27,25.3h-3V305.69h3Z"/><path d="M1183.22,325.6V312.72a5.19,5.19,0,0,0-1.11-3.63,4.52,4.52,0,0,0-3.47-1.2,5.72,5.72,0,0,0-4.58,1.69q-1.45,1.68-1.45,5.57V325.6h-3V305.69h2.46l.49,2.73h.14a6.08,6.08,0,0,1,2.6-2.28,8.39,8.39,0,0,1,3.72-.81,7.58,7.58,0,0,1,5.41,1.73c1.22,1.16,1.82,3,1.82,5.55v13Z"/><path d="M1209.61,315.63c0,3.24-.82,5.78-2.46,7.6a8.63,8.63,0,0,1-6.77,2.73,9,9,0,0,1-4.74-1.25,8.32,8.32,0,0,1-3.2-3.6,12.53,12.53,0,0,1-1.12-5.48q0-4.87,2.43-7.59a8.61,8.61,0,0,1,6.76-2.71,8.42,8.42,0,0,1,6.64,2.78A10.93,10.93,0,0,1,1209.61,315.63Zm-15.17,0a9.42,9.42,0,0,0,1.53,5.81,5.29,5.29,0,0,0,4.48,2,5.36,5.36,0,0,0,4.5-2,9.44,9.44,0,0,0,1.53-5.82,9.27,9.27,0,0,0-1.53-5.77,5.42,5.42,0,0,0-4.53-2,5.31,5.31,0,0,0-4.47,1.94Q1194.44,311.78,1194.44,315.63Z"/><path d="M959.75,368.11a9.7,9.7,0,0,0,1.54-.12,9,9,0,0,0,1.18-.25v2.31a5.37,5.37,0,0,1-1.44.39,11.34,11.34,0,0,1-1.72.16q-5.77,0-5.78-6.09V352.67h-2.85v-1.45l2.85-1.26,1.28-4.25h1.74v4.62h5.77v2.34h-5.77v11.72a4.05,4.05,0,0,0,.85,2.76A3,3,0,0,0,959.75,368.11Z"/><path d="M966.19,344.93a2,2,0,0,1,.51-1.51,1.86,1.86,0,0,1,2.53,0,2,2,0,0,1,.52,1.5,2,2,0,0,1-.52,1.52,1.79,1.79,0,0,1-1.26.5,1.75,1.75,0,0,1-1.27-.5A2,2,0,0,1,966.19,344.93Zm3.27,25.3h-3v-19.9h3Z"/><path d="M984.26,370.6a9.14,9.14,0,0,1-7-2.69q-2.55-2.69-2.55-7.47a11.54,11.54,0,0,1,2.37-7.64,7.87,7.87,0,0,1,6.36-2.84,7.5,7.5,0,0,1,5.93,2.47,9.43,9.43,0,0,1,2.17,6.49v1.91H977.87a7.89,7.89,0,0,0,1.77,5.32,6.13,6.13,0,0,0,4.73,1.81,15.93,15.93,0,0,0,6.36-1.34v2.69a15.83,15.83,0,0,1-3,1A17,17,0,0,1,984.26,370.6Zm-.81-18.11a5,5,0,0,0-3.83,1.56,7.2,7.2,0,0,0-1.68,4.32h10.41a6.59,6.59,0,0,0-1.27-4.36A4.45,4.45,0,0,0,983.45,352.49Z"/><path d="M1010.35,370.23V357.36a5.2,5.2,0,0,0-1.11-3.64,4.52,4.52,0,0,0-3.47-1.2,5.75,5.75,0,0,0-4.58,1.69q-1.46,1.69-1.45,5.58v10.44h-3v-19.9h2.46l.49,2.72h.14a6.22,6.22,0,0,1,2.6-2.28,8.39,8.39,0,0,1,3.72-.81,7.53,7.53,0,0,1,5.41,1.74c1.22,1.15,1.82,3,1.82,5.55v13Z"/><path d="M1028,370.6a9.14,9.14,0,0,1-7-2.69q-2.55-2.69-2.55-7.47a11.54,11.54,0,0,1,2.37-7.64,7.87,7.87,0,0,1,6.36-2.84,7.47,7.47,0,0,1,5.92,2.47,9.39,9.39,0,0,1,2.18,6.49v1.91h-13.71a7.89,7.89,0,0,0,1.77,5.32,6.13,6.13,0,0,0,4.73,1.81,15.93,15.93,0,0,0,6.36-1.34v2.69a15.91,15.91,0,0,1-3,1A16.91,16.91,0,0,1,1028,370.6Zm-.81-18.11a4.94,4.94,0,0,0-3.83,1.56,7.2,7.2,0,0,0-1.68,4.32h10.41a6.59,6.59,0,0,0-1.27-4.36A4.45,4.45,0,0,0,1027.15,352.49Z"/><path d="M1059.88,370.23h-3V351.31c0-1.58,0-3.06.15-4.47-.26.25-.54.52-.85.8s-1.76,1.46-4.33,3.54l-1.6-2.07,7-5.43h2.55Z"/><path d="M1078.76,343.3a9,9,0,0,1,5.76,1.69,5.62,5.62,0,0,1,2.13,4.67,5.8,5.8,0,0,1-1.22,3.57,10.8,10.8,0,0,1-3.89,2.95,13,13,0,0,1,4.6,3.24,6.08,6.08,0,0,1,1.36,3.93,6.61,6.61,0,0,1-2.31,5.28,9.41,9.41,0,0,1-6.32,2,10.15,10.15,0,0,1-6.54-1.86,6.44,6.44,0,0,1-2.28-5.28q0-4.56,5.55-7.1a10.3,10.3,0,0,1-3.59-3.06,6.49,6.49,0,0,1-1.09-3.68,5.59,5.59,0,0,1,2.13-4.6A8.82,8.82,0,0,1,1078.76,343.3ZM1073,363.53a4.13,4.13,0,0,0,1.52,3.4,6.65,6.65,0,0,0,4.26,1.21,6.32,6.32,0,0,0,4.21-1.27,4.48,4.48,0,0,0,.1-6.62,14.68,14.68,0,0,0-4.94-2.66,10.77,10.77,0,0,0-3.93,2.57A5,5,0,0,0,1073,363.53Zm5.71-17.78a5.32,5.32,0,0,0-3.56,1.09,3.63,3.63,0,0,0-1.29,2.91,4.19,4.19,0,0,0,1.07,2.87,11.11,11.11,0,0,0,4,2.39,9.8,9.8,0,0,0,3.68-2.34,4.35,4.35,0,0,0,1.08-2.92,3.57,3.57,0,0,0-1.32-2.92A5.54,5.54,0,0,0,1078.73,345.75Z"/><path d="M1111.55,370.6a8.56,8.56,0,0,1-3.55-.72,6.62,6.62,0,0,1-2.7-2.21h-.22a25.89,25.89,0,0,1,.22,3.31v8.19h-3V350.33h2.45l.41,2.72h.15a6.93,6.93,0,0,1,2.71-2.36,8.26,8.26,0,0,1,3.54-.73,7.37,7.37,0,0,1,6.11,2.71c1.43,1.8,2.15,4.34,2.15,7.59s-.73,5.81-2.19,7.62A7.37,7.37,0,0,1,1111.55,370.6Zm-.44-18.08a5.36,5.36,0,0,0-4.41,1.69q-1.37,1.69-1.4,5.38v.67q0,4.2,1.4,6a5.32,5.32,0,0,0,4.48,1.8,4.64,4.64,0,0,0,4-2.09,9.85,9.85,0,0,0,1.47-5.75,9.51,9.51,0,0,0-1.47-5.72A4.81,4.81,0,0,0,1111.11,352.52Z"/><path d="M1137.32,370.23l-.6-2.83h-.14a8.43,8.43,0,0,1-3,2.53,8.93,8.93,0,0,1-3.7.67,6.64,6.64,0,0,1-4.64-1.53,5.56,5.56,0,0,1-1.68-4.34q0-6,9.64-6.32l3.38-.11v-1.23a5,5,0,0,0-1-3.46,4.11,4.11,0,0,0-3.22-1.12,13.2,13.2,0,0,0-5.63,1.52l-.93-2.3a14.37,14.37,0,0,1,6.74-1.71q3.56,0,5.28,1.58t1.71,5.07v13.58Zm-6.81-2.12a6.1,6.1,0,0,0,4.42-1.55,5.7,5.7,0,0,0,1.61-4.32v-1.8l-3,.13a11,11,0,0,0-5.18,1.12,3.36,3.36,0,0,0-1.59,3.08,3.08,3.08,0,0,0,1,2.48A4.1,4.1,0,0,0,1130.51,368.11Z"/><path d="M1148.78,370.23h-3V342h3Z"/><path d="M1154.92,344.93a2,2,0,0,1,.51-1.51,1.85,1.85,0,0,1,2.52,0,2,2,0,0,1,.53,1.5,2,2,0,0,1-.53,1.52,1.77,1.77,0,0,1-1.25.5,1.75,1.75,0,0,1-1.27-.5A2,2,0,0,1,1154.92,344.93Zm3.27,25.3h-3v-19.9h3Z"/><path d="M1171,368.11a10.5,10.5,0,0,0,2.73-.37v2.31a5.35,5.35,0,0,1-1.45.39,11.22,11.22,0,0,1-1.71.16q-5.77,0-5.78-6.09V352.67H1162v-1.45l2.85-1.26,1.27-4.25h1.75v4.62h5.77v2.34h-5.77v11.72a4.05,4.05,0,0,0,.85,2.76A3,3,0,0,0,1171,368.11Z"/><path d="M1194.89,360.26c0,3.25-.81,5.78-2.45,7.6a8.6,8.6,0,0,1-6.77,2.74,8.93,8.93,0,0,1-4.74-1.26,8.24,8.24,0,0,1-3.2-3.59,12.54,12.54,0,0,1-1.12-5.49q0-4.86,2.43-7.58a8.6,8.6,0,0,1,6.75-2.72,8.43,8.43,0,0,1,6.64,2.78A10.9,10.9,0,0,1,1194.89,360.26Zm-15.16,0a9.42,9.42,0,0,0,1.53,5.81,5.26,5.26,0,0,0,4.48,2,5.34,5.34,0,0,0,4.5-2,9.4,9.4,0,0,0,1.53-5.82,9.24,9.24,0,0,0-1.53-5.76,5.4,5.4,0,0,0-4.54-2,5.28,5.28,0,0,0-4.46,2C1180.23,355.76,1179.73,357.7,1179.73,360.26Z"/><path d="M1213,364.8a5,5,0,0,1-2.07,4.29,9.77,9.77,0,0,1-5.81,1.51,12.61,12.61,0,0,1-6.18-1.26v-2.79a15.49,15.49,0,0,0,3.08,1.14,12.8,12.8,0,0,0,3.17.42,7.2,7.2,0,0,0,3.63-.75,2.61,2.61,0,0,0,.27-4.29,16.12,16.12,0,0,0-3.94-1.95,22,22,0,0,1-4-1.81,5.46,5.46,0,0,1-1.74-1.75,4.62,4.62,0,0,1-.57-2.35,4.47,4.47,0,0,1,2-3.84,9.21,9.21,0,0,1,5.43-1.41,15.89,15.89,0,0,1,6.28,1.31l-1.07,2.45a14.49,14.49,0,0,0-5.43-1.23,6.2,6.2,0,0,0-3.23.67,2.08,2.08,0,0,0-1.09,1.85,2.29,2.29,0,0,0,.41,1.37,4.11,4.11,0,0,0,1.31,1.07,29.42,29.42,0,0,0,3.49,1.47,13,13,0,0,1,4.79,2.6A4.55,4.55,0,0,1,1213,364.8Z"/></svg>