<svg id="Layer_1" data-name="Layer 1" xmlns="http://www.w3.org/2000/svg" viewBox="0 0 1299.33 364.24"><defs><style>.cls-1{fill:#d32a2a;}.cls-2{fill:#ffe2a1;}.cls-3{fill:#3a68ad;}</style></defs><title>Fosforos_U03_01_03</title><rect class="cls-1" x="1282.3" y="32.97" width="13.75" height="237.11"/><path class="cls-1" d="M1296.05,65.93H1282.3L1279,10.15A10.14,10.14,0,0,1,1289.18,0h0a10.15,10.15,0,0,1,10.15,10.15Z"/><rect class="cls-1" x="1140.93" y="144.65" width="13.75" height="237.11" transform="translate(1411.01 -884.6) rotate(90)"/><path class="cls-1" d="M1233.39,270.08V256.33l55.79-3.27a10.15,10.15,0,0,1,10.15,10.14h0a10.15,10.15,0,0,1-10.15,10.15Z"/><rect class="cls-2" x="1022.37" width="13.75" height="237.11" transform="translate(2058.49 237.11) rotate(180)"/><path class="cls-3" d="M1022.37,204.15h13.75l3.27,55.78a10.14,10.14,0,0,1-10.14,10.15h0a10.14,10.14,0,0,1-10.15-10.15Z"/><rect class="cls-2" x="881" y="-108.41" width="13.75" height="237.11" transform="translate(898.02 -877.72) rotate(90)"/><path class="cls-3" d="M973.46,17V3.27L1029.25,0a10.14,10.14,0,0,1,10.14,10.15h0a10.15,10.15,0,0,1-10.14,10.15Z"/><rect class="cls-2" x="769.32" y="32.97" width="13.75" height="237.11"/><path class="cls-3" d="M783.07,65.93H769.32L766,10.15A10.15,10.15,0,0,1,776.19,0h0a10.14,10.14,0,0,1,10.15,10.15Z"/><rect class="cls-2" x="627.94" y="144.65" width="13.75" height="237.11" transform="translate(898.02 -371.61) rotate(90)"/><path class="cls-3" d="M720.41,270.08V256.33l55.78-3.27a10.14,10.14,0,0,1,10.15,10.14h0a10.14,10.14,0,0,1-10.15,10.15Z"/><rect class="cls-2" x="3.27" y="32.97" width="13.75" height="237.11"/><path class="cls-3" d="M17,65.93H3.27L0,10.15A10.14,10.14,0,0,1,10.15,0h0A10.15,10.15,0,0,1,20.3,10.15Z"/><rect class="cls-2" x="509.39" y="0.02" width="13.75" height="237.11" transform="translate(1032.52 237.15) rotate(180)"/><path class="cls-3" d="M509.39,204.17h13.74L526.41,260a10.16,10.16,0,0,1-10.15,10.15h0A10.16,10.16,0,0,1,506.11,260Z"/><rect class="cls-2" x="368.01" y="-108.41" width="13.75" height="237.11" transform="translate(385.03 -364.74) rotate(90)"/><path class="cls-3" d="M460.48,17V3.27L516.26,0a10.15,10.15,0,0,1,10.15,10.15h0A10.16,10.16,0,0,1,516.26,20.3Z"/><rect class="cls-2" x="256.33" y="32.97" width="13.75" height="237.11"/><path class="cls-3" d="M270.08,65.93H256.33l-3.27-55.78A10.14,10.14,0,0,1,263.2,0h0a10.14,10.14,0,0,1,10.15,10.15Z"/><rect class="cls-2" x="114.96" y="144.65" width="13.75" height="237.11" transform="translate(385.03 141.37) rotate(90)"/><path class="cls-3" d="M207.42,270.08V256.33l55.78-3.27a10.14,10.14,0,0,1,10.15,10.14h0a10.14,10.14,0,0,1-10.15,10.15Z"/><path d="M574.53,310.67h-3.09V286.86H563v-2.74h19.91v2.74h-8.41Z"/><path d="M594.89,311a9.16,9.16,0,0,1-7-2.68,10.43,10.43,0,0,1-2.55-7.47,11.55,11.55,0,0,1,2.37-7.65,7.9,7.9,0,0,1,6.37-2.83,7.51,7.51,0,0,1,5.92,2.46,9.46,9.46,0,0,1,2.18,6.5v1.9H588.5a7.88,7.88,0,0,0,1.77,5.32A6.08,6.08,0,0,0,595,308.4a16.09,16.09,0,0,0,6.35-1.34v2.68a15.83,15.83,0,0,1-3,1A17,17,0,0,1,594.89,311Zm-.82-18.1a4.92,4.92,0,0,0-3.82,1.56,7.2,7.2,0,0,0-1.68,4.32H599a6.62,6.62,0,0,0-1.28-4.37A4.45,4.45,0,0,0,594.07,292.93Z"/><path d="M616.43,290.4a11.48,11.48,0,0,1,2.38.22l-.42,2.8a9.78,9.78,0,0,0-2.18-.28,5.3,5.3,0,0,0-4.13,2,7.15,7.15,0,0,0-1.72,4.88v10.68h-3V290.76h2.49l.34,3.69h.15a8.92,8.92,0,0,1,2.67-3A6,6,0,0,1,616.43,290.4Z"/><path d="M630.49,311a8.49,8.49,0,0,1-6.7-2.66c-1.57-1.77-2.37-4.28-2.37-7.53s.81-5.9,2.41-7.71a8.67,8.67,0,0,1,6.86-2.73,13.41,13.41,0,0,1,2.87.31,9.72,9.72,0,0,1,2.25.73l-.93,2.56a14,14,0,0,0-2.18-.67,10,10,0,0,0-2.09-.26q-6.06,0-6.06,7.74a9.21,9.21,0,0,0,1.48,5.63,5.14,5.14,0,0,0,4.38,2,13.5,13.5,0,0,0,5.11-1.07V310A10.88,10.88,0,0,1,630.49,311Z"/><path d="M648.65,311a9.14,9.14,0,0,1-7-2.68,10.39,10.39,0,0,1-2.56-7.47,11.55,11.55,0,0,1,2.37-7.65,7.91,7.91,0,0,1,6.37-2.83,7.51,7.51,0,0,1,5.92,2.46,9.46,9.46,0,0,1,2.18,6.5v1.9H642.26a7.88,7.88,0,0,0,1.77,5.32,6.1,6.1,0,0,0,4.73,1.82,16.18,16.18,0,0,0,6.36-1.34v2.68a16.14,16.14,0,0,1-3,1A17,17,0,0,1,648.65,311Zm-.82-18.1a4.92,4.92,0,0,0-3.82,1.56,7.2,7.2,0,0,0-1.68,4.32h10.41a6.68,6.68,0,0,0-1.27-4.37A4.48,4.48,0,0,0,647.83,292.93Z"/><path d="M670.19,290.4a11.48,11.48,0,0,1,2.38.22l-.42,2.8a9.78,9.78,0,0,0-2.18-.28,5.3,5.3,0,0,0-4.13,2,7.15,7.15,0,0,0-1.72,4.88v10.68h-3V290.76h2.49l.34,3.69h.15a8.92,8.92,0,0,1,2.67-3A6,6,0,0,1,670.19,290.4Z"/><path d="M692.38,308.55a9.74,9.74,0,0,0,1.55-.12,9.34,9.34,0,0,0,1.18-.25v2.31a5.37,5.37,0,0,1-1.44.39A11.23,11.23,0,0,1,692,311c-3.85,0-5.78-2-5.78-6.08V293.11h-2.85v-1.46l2.85-1.25,1.27-4.25h1.75v4.61H695v2.35h-5.77v11.71a4,4,0,0,0,.85,2.76A3,3,0,0,0,692.38,308.55Z"/><path d="M707.5,311a9.15,9.15,0,0,1-7-2.68,10.43,10.43,0,0,1-2.55-7.47,11.55,11.55,0,0,1,2.37-7.65,7.9,7.9,0,0,1,6.37-2.83,7.52,7.52,0,0,1,5.92,2.46,9.46,9.46,0,0,1,2.18,6.5v1.9H701.1a7.88,7.88,0,0,0,1.77,5.32,6.11,6.11,0,0,0,4.74,1.82,16.09,16.09,0,0,0,6.35-1.34v2.68a15.83,15.83,0,0,1-3,1A17,17,0,0,1,707.5,311Zm-.82-18.1a4.92,4.92,0,0,0-3.82,1.56,7.2,7.2,0,0,0-1.68,4.32h10.4a6.62,6.62,0,0,0-1.27-4.37A4.48,4.48,0,0,0,706.68,292.93Zm-2.24-5.25a31.55,31.55,0,0,0,1.88-2.73,26.86,26.86,0,0,0,1.59-2.78h3.67v.39a34.12,34.12,0,0,1-5.12,5.57h-2Z"/><path d="M729,290.4a11.54,11.54,0,0,1,2.38.22l-.42,2.8a9.85,9.85,0,0,0-2.18-.28,5.3,5.3,0,0,0-4.13,2A7.1,7.1,0,0,0,723,300v10.68h-3V290.76h2.48l.35,3.69h.15a8.79,8.79,0,0,1,2.66-3A6.06,6.06,0,0,1,729,290.4Z"/><path d="M760.51,310.67V297.72a5.41,5.41,0,0,0-1-3.57,4,4,0,0,0-3.16-1.19,5.09,5.09,0,0,0-4.16,1.62,7.67,7.67,0,0,0-1.35,5v11.11h-3V297.72a5.36,5.36,0,0,0-1-3.57,4,4,0,0,0-3.18-1.19,4.93,4.93,0,0,0-4.15,1.7q-1.32,1.69-1.32,5.57v10.44h-3V290.76h2.45l.49,2.73h.15a5.91,5.91,0,0,1,2.4-2.27,7.32,7.32,0,0,1,3.48-.82c3.11,0,5.15,1.13,6.1,3.38h.15a6.34,6.34,0,0,1,2.58-2.47,7.94,7.94,0,0,1,3.85-.91,6.74,6.74,0,0,1,5.06,1.74q1.68,1.73,1.68,5.54v13Z"/><path d="M769.48,285.37a2,2,0,0,1,.51-1.52,1.79,1.79,0,0,1,1.27-.48,1.81,1.81,0,0,1,1.26.49,2,2,0,0,1,.52,1.51,2,2,0,0,1-.52,1.52,1.85,1.85,0,0,1-2.53,0A2.05,2.05,0,0,1,769.48,285.37Zm3.27,25.3h-3V290.76h3Z"/><path d="M792.77,310.67V297.79a5.19,5.19,0,0,0-1.11-3.63,4.51,4.51,0,0,0-3.47-1.2,5.72,5.72,0,0,0-4.57,1.69q-1.46,1.69-1.46,5.58v10.44h-3V290.76h2.45l.49,2.73h.14a6.22,6.22,0,0,1,2.6-2.28,8.47,8.47,0,0,1,3.73-.81,7.55,7.55,0,0,1,5.41,1.74q1.81,1.73,1.81,5.54v13Z"/><path d="M819.16,300.7c0,3.24-.82,5.78-2.45,7.6a8.66,8.66,0,0,1-6.78,2.73,8.93,8.93,0,0,1-4.74-1.25,8.19,8.19,0,0,1-3.19-3.6,12.39,12.39,0,0,1-1.13-5.48c0-3.25.81-5.77,2.43-7.58a8.63,8.63,0,0,1,6.76-2.72,8.44,8.44,0,0,1,6.64,2.78A10.93,10.93,0,0,1,819.16,300.7Zm-15.17,0a9.42,9.42,0,0,0,1.53,5.81,6.05,6.05,0,0,0,9,0A9.44,9.44,0,0,0,816,300.7a9.29,9.29,0,0,0-1.53-5.77,5.39,5.39,0,0,0-4.53-2,5.31,5.31,0,0,0-4.47,2A9.36,9.36,0,0,0,804,300.7Z"/><path d="M579.93,353.18a9.83,9.83,0,0,0,1.55-.12,12,12,0,0,0,1.18-.24v2.3a5.68,5.68,0,0,1-1.45.4,11,11,0,0,1-1.71.15q-5.78,0-5.78-6.08V337.74h-2.85v-1.45l2.85-1.25,1.27-4.25h1.75v4.61h5.77v2.34h-5.77v11.72a4,4,0,0,0,.85,2.76A3,3,0,0,0,579.93,353.18Z"/><path d="M586.38,330a2,2,0,0,1,.51-1.52,1.88,1.88,0,0,1,2.52,0,2.42,2.42,0,0,1,0,3,1.73,1.73,0,0,1-1.25.5,1.71,1.71,0,0,1-1.27-.5A2,2,0,0,1,586.38,330Zm3.27,25.3h-3V335.4h3Z"/><path d="M604.45,355.67a9.14,9.14,0,0,1-7-2.69,10.41,10.41,0,0,1-2.56-7.46,11.5,11.5,0,0,1,2.38-7.65,7.85,7.85,0,0,1,6.36-2.83,7.49,7.49,0,0,1,5.92,2.46,9.43,9.43,0,0,1,2.18,6.49v1.91H598.06a7.88,7.88,0,0,0,1.77,5.32,6.13,6.13,0,0,0,4.73,1.82,16,16,0,0,0,6.36-1.35v2.69a16.14,16.14,0,0,1-3,1A16.91,16.91,0,0,1,604.45,355.67Zm-.82-18.11a4.93,4.93,0,0,0-3.82,1.56,7.25,7.25,0,0,0-1.68,4.33h10.41a6.68,6.68,0,0,0-1.27-4.37A4.49,4.49,0,0,0,603.63,337.56Z"/><path d="M630.53,355.31V342.43a5.24,5.24,0,0,0-1.1-3.63,4.52,4.52,0,0,0-3.47-1.2,5.71,5.71,0,0,0-4.58,1.69q-1.46,1.68-1.45,5.57v10.45h-3V335.4h2.45l.49,2.72H620a6.07,6.07,0,0,1,2.6-2.27,8.39,8.39,0,0,1,3.72-.81,7.58,7.58,0,0,1,5.41,1.73q1.82,1.74,1.82,5.55v13Z"/><path d="M648.15,355.67a9.14,9.14,0,0,1-7-2.69,10.36,10.36,0,0,1-2.56-7.46,11.55,11.55,0,0,1,2.37-7.65,7.88,7.88,0,0,1,6.37-2.83,7.51,7.51,0,0,1,5.92,2.46,9.43,9.43,0,0,1,2.18,6.49v1.91H641.76a7.88,7.88,0,0,0,1.77,5.32,6.12,6.12,0,0,0,4.73,1.82,16,16,0,0,0,6.36-1.35v2.69a16.14,16.14,0,0,1-3,1A17,17,0,0,1,648.15,355.67Zm-.82-18.11a4.92,4.92,0,0,0-3.82,1.56,7.25,7.25,0,0,0-1.68,4.33h10.41a6.68,6.68,0,0,0-1.27-4.37A4.49,4.49,0,0,0,647.33,337.56Z"/><path d="M686.35,340.09q0,15.59-12.06,15.58a12.46,12.46,0,0,1-3.35-.36v-2.6a10.84,10.84,0,0,0,3.31.47q4.37,0,6.58-2.7c1.49-1.79,2.29-4.55,2.43-8.27H683a6.49,6.49,0,0,1-2.65,2.3,8.46,8.46,0,0,1-3.72.79,7.48,7.48,0,0,1-5.6-2.11,8,8,0,0,1-2.07-5.88,9,9,0,0,1,2.32-6.54,8.85,8.85,0,0,1,10.82-1,8.85,8.85,0,0,1,3.12,4.05A16.67,16.67,0,0,1,686.35,340.09ZM677.41,331a5,5,0,0,0-4,1.67,7,7,0,0,0-1.42,4.65,6.08,6.08,0,0,0,1.31,4.12,5,5,0,0,0,4,1.49,6.89,6.89,0,0,0,3-.67,5.64,5.64,0,0,0,2.19-1.83,4.27,4.27,0,0,0,.79-2.44,8.26,8.26,0,0,0-.74-3.52,6.1,6.1,0,0,0-2.08-2.54A5.22,5.22,0,0,0,677.41,331Z"/><path d="M710.47,355.67a8.64,8.64,0,0,1-3.56-.72,6.65,6.65,0,0,1-2.69-2.2H704a25.74,25.74,0,0,1,.22,3.3v8.19h-3V335.4h2.46l.41,2.72h.15a7.07,7.07,0,0,1,2.7-2.36,8.31,8.31,0,0,1,3.55-.72,7.37,7.37,0,0,1,6.11,2.7q2.14,2.72,2.15,7.6T716.54,353A7.37,7.37,0,0,1,710.47,355.67ZM710,337.6c-2,0-3.51.56-4.41,1.69s-1.38,2.92-1.4,5.37v.68c0,2.79.46,4.79,1.4,6a5.32,5.32,0,0,0,4.48,1.81,4.66,4.66,0,0,0,4-2.09,9.88,9.88,0,0,0,1.47-5.76,9.48,9.48,0,0,0-1.47-5.71A4.78,4.78,0,0,0,710,337.6Z"/><path d="M736.24,355.31l-.6-2.84h-.15a8.41,8.41,0,0,1-3,2.54,9,9,0,0,1-3.69.66,6.62,6.62,0,0,1-4.64-1.53,5.55,5.55,0,0,1-1.68-4.34q0-6,9.64-6.32l3.38-.11v-1.23a5.05,5.05,0,0,0-1-3.46,4.11,4.11,0,0,0-3.22-1.12,13.08,13.08,0,0,0-5.63,1.53l-.93-2.31a14.69,14.69,0,0,1,6.74-1.71q3.56,0,5.28,1.58t1.71,5.07v13.59Zm-6.81-2.13a6.12,6.12,0,0,0,4.42-1.54,5.72,5.72,0,0,0,1.61-4.32v-1.8l-3,.12a11,11,0,0,0-5.18,1.12,3.37,3.37,0,0,0-1.59,3.08,3.11,3.11,0,0,0,1,2.49A4.1,4.1,0,0,0,729.43,353.18Z"/><path d="M747.7,355.31h-3V327.05h3Z"/><path d="M753.84,330a2,2,0,0,1,.51-1.52,1.88,1.88,0,0,1,2.52,0,2.42,2.42,0,0,1,0,3,1.73,1.73,0,0,1-1.25.5,1.7,1.7,0,0,1-1.27-.5A2,2,0,0,1,753.84,330Zm3.27,25.3h-3V335.4h3Z"/><path d="M769.93,353.18a9.61,9.61,0,0,0,1.54-.12,11.37,11.37,0,0,0,1.18-.24v2.3a5.47,5.47,0,0,1-1.44.4,11.23,11.23,0,0,1-1.72.15q-5.78,0-5.77-6.08V337.74h-2.85v-1.45l2.85-1.25,1.27-4.25h1.74v4.61h5.78v2.34h-5.78v11.72a4,4,0,0,0,.86,2.76A3,3,0,0,0,769.93,353.18Z"/><path d="M793.81,345.34c0,3.24-.81,5.77-2.45,7.6a8.63,8.63,0,0,1-6.77,2.73,9,9,0,0,1-4.74-1.25,8.32,8.32,0,0,1-3.2-3.6,12.53,12.53,0,0,1-1.13-5.48q0-4.87,2.44-7.59a8.59,8.59,0,0,1,6.75-2.71,8.39,8.39,0,0,1,6.64,2.78A10.93,10.93,0,0,1,793.81,345.34Zm-15.16,0a9.49,9.49,0,0,0,1.52,5.81,6.05,6.05,0,0,0,9,0,9.37,9.37,0,0,0,1.54-5.82,9.19,9.19,0,0,0-1.54-5.77,5.39,5.39,0,0,0-4.53-2,5.3,5.3,0,0,0-4.46,1.94Q778.65,341.49,778.65,345.34Z"/><path d="M811.94,349.88a5,5,0,0,1-2.07,4.28,9.7,9.7,0,0,1-5.81,1.51,12.73,12.73,0,0,1-6.18-1.25v-2.8a14.69,14.69,0,0,0,3.08,1.14,12.8,12.8,0,0,0,3.17.42,7.22,7.22,0,0,0,3.63-.75,2.61,2.61,0,0,0,.27-4.29,16.12,16.12,0,0,0-3.94-1.95,21,21,0,0,1-4-1.81,5.36,5.36,0,0,1-1.74-1.75,4.58,4.58,0,0,1-.57-2.34,4.44,4.44,0,0,1,2-3.84,9.21,9.21,0,0,1,5.43-1.41,15.75,15.75,0,0,1,6.28,1.31l-1.07,2.45a14.33,14.33,0,0,0-5.43-1.24,6.3,6.3,0,0,0-3.23.67,2.08,2.08,0,0,0-1.09,1.86,2.22,2.22,0,0,0,.41,1.36,4.11,4.11,0,0,0,1.31,1.07,29.42,29.42,0,0,0,3.49,1.47,13,13,0,0,1,4.78,2.6A4.59,4.59,0,0,1,811.94,349.88Z"/></svg>