<svg id="Layer_1" data-name="Layer 1" xmlns="http://www.w3.org/2000/svg" viewBox="0 0 5469.77 378.21"><defs><style>.cls-1{fill:#d32a2a;}.cls-2{fill:#ffe2a1;}.cls-3{fill:#3a68ad;}.cls-4{font-size:30px;font-family:OpenSans-Regular, Open Sans;}</style></defs><title>Fosforos_U03_03</title><rect class="cls-1" x="1282.3" y="32.97" width="13.75" height="237.11"/><path class="cls-1" d="M1296.05,65.93H1282.3L1279,10.15A10.14,10.14,0,0,1,1289.18,0h0a10.15,10.15,0,0,1,10.15,10.15Z"/><rect class="cls-1" x="1140.93" y="144.65" width="13.75" height="237.11" transform="translate(1411.01 -884.6) rotate(90)"/><path class="cls-1" d="M1233.39,270.08V256.33l55.79-3.27a10.15,10.15,0,0,1,10.15,10.14h0a10.15,10.15,0,0,1-10.15,10.15Z"/><rect class="cls-1" x="1022.37" width="13.75" height="237.11" transform="translate(2058.49 237.11) rotate(180)"/><path class="cls-1" d="M1022.37,204.15h13.75l3.27,55.78a10.14,10.14,0,0,1-10.14,10.15h0a10.14,10.14,0,0,1-10.15-10.15Z"/><rect class="cls-2" x="881" y="-108.41" width="13.75" height="237.11" transform="translate(898.02 -877.72) rotate(90)"/><path class="cls-3" d="M973.46,17V3.27L1029.25,0a10.14,10.14,0,0,1,10.14,10.15h0a10.15,10.15,0,0,1-10.14,10.15Z"/><rect class="cls-2" x="769.32" y="32.97" width="13.75" height="237.11"/><path class="cls-3" d="M783.07,65.93H769.32L766,10.15A10.15,10.15,0,0,1,776.19,0h0a10.14,10.14,0,0,1,10.15,10.15Z"/><rect class="cls-2" x="627.94" y="144.65" width="13.75" height="237.11" transform="translate(898.02 -371.61) rotate(90)"/><path class="cls-3" d="M720.41,270.08V256.33l55.78-3.27a10.14,10.14,0,0,1,10.15,10.14h0a10.14,10.14,0,0,1-10.15,10.15Z"/><rect class="cls-2" x="3.27" y="32.97" width="13.75" height="237.11"/><path class="cls-3" d="M17,65.93H3.27L0,10.15A10.14,10.14,0,0,1,10.15,0h0A10.15,10.15,0,0,1,20.3,10.15Z"/><rect class="cls-2" x="509.39" y="0.02" width="13.75" height="237.11" transform="translate(1032.52 237.15) rotate(180)"/><path class="cls-3" d="M509.39,204.17h13.74L526.41,260a10.16,10.16,0,0,1-10.15,10.15h0A10.16,10.16,0,0,1,506.11,260Z"/><rect class="cls-2" x="368.01" y="-108.41" width="13.75" height="237.11" transform="translate(385.03 -364.74) rotate(90)"/><path class="cls-3" d="M460.48,17V3.27L516.26,0a10.15,10.15,0,0,1,10.15,10.15h0A10.16,10.16,0,0,1,516.26,20.3Z"/><rect class="cls-2" x="256.33" y="32.97" width="13.75" height="237.11"/><path class="cls-3" d="M270.08,65.93H256.33l-3.27-55.78A10.14,10.14,0,0,1,263.2,0h0a10.14,10.14,0,0,1,10.15,10.15Z"/><rect class="cls-2" x="114.96" y="144.65" width="13.75" height="237.11" transform="translate(385.03 141.37) rotate(90)"/><path class="cls-3" d="M207.42,270.08V256.33l55.78-3.27a10.14,10.14,0,0,1,10.15,10.14h0a10.14,10.14,0,0,1-10.15,10.15Z"/><text class="cls-4" transform="translate(527.73 334.08)">Primer término<tspan x="0.48" y="36">tiene 11 palitos</tspan></text><rect class="cls-1" x="3097.01" y="144.65" width="13.75" height="237.11" transform="translate(3367.09 -2840.68) rotate(90)"/><path class="cls-1" d="M3189.47,270.08V256.33l55.79-3.27a10.15,10.15,0,0,1,10.15,10.14h0a10.15,10.15,0,0,1-10.15,10.15Z"/><rect class="cls-1" x="2978.45" y="0.02" width="13.75" height="237.11" transform="translate(5970.65 237.15) rotate(180)"/><path class="cls-1" d="M2978.45,204.17h13.75l3.27,55.78a10.15,10.15,0,0,1-10.14,10.15h0A10.15,10.15,0,0,1,2975.18,260Z"/><rect class="cls-1" x="2837.08" y="-108.41" width="13.75" height="237.11" transform="translate(2854.1 -2833.8) rotate(90)"/><path class="cls-1" d="M2929.54,17V3.27L2985.33,0a10.14,10.14,0,0,1,10.14,10.15h0a10.15,10.15,0,0,1-10.14,10.15Z"/><rect class="cls-2" x="2725.4" y="32.97" width="13.75" height="237.11"/><path class="cls-3" d="M2739.15,65.93H2725.4l-3.28-55.78A10.15,10.15,0,0,1,2732.27,0h0a10.14,10.14,0,0,1,10.15,10.15Z"/><rect class="cls-2" x="2584.02" y="144.65" width="13.75" height="237.11" transform="translate(2854.1 -2327.69) rotate(90)"/><path class="cls-3" d="M2676.49,270.08V256.33l55.78-3.27a10.14,10.14,0,0,1,10.15,10.14h0a10.14,10.14,0,0,1-10.15,10.15Z"/><rect class="cls-2" x="2465.46" width="13.75" height="237.11" transform="translate(4944.68 237.11) rotate(180)"/><path class="cls-3" d="M2465.46,204.15h13.75l3.28,55.78a10.15,10.15,0,0,1-10.15,10.15h0a10.14,10.14,0,0,1-10.15-10.15Z"/><rect class="cls-2" x="2324.09" y="-108.41" width="13.75" height="237.11" transform="translate(2341.11 -2320.82) rotate(90)"/><path class="cls-3" d="M2416.56,17V3.27L2472.34,0a10.15,10.15,0,0,1,10.15,10.15h0a10.16,10.16,0,0,1-10.15,10.15Z"/><rect class="cls-2" x="2212.41" y="32.97" width="13.75" height="237.11"/><path class="cls-3" d="M2226.16,65.93h-13.75l-3.27-55.78A10.14,10.14,0,0,1,2219.28,0h0a10.14,10.14,0,0,1,10.15,10.15Z"/><rect class="cls-2" x="2071.04" y="144.65" width="13.75" height="237.11" transform="translate(2341.11 -1814.71) rotate(90)"/><path class="cls-3" d="M2163.5,270.08V256.33l55.78-3.27a10.14,10.14,0,0,1,10.15,10.14h0a10.14,10.14,0,0,1-10.15,10.15Z"/><rect class="cls-2" x="1446.37" y="32.97" width="13.75" height="237.11"/><path class="cls-3" d="M1460.12,65.93h-13.75l-3.28-55.78A10.15,10.15,0,0,1,1453.24,0h0a10.14,10.14,0,0,1,10.15,10.15Z"/><rect class="cls-2" x="1952.48" y="0.02" width="13.75" height="237.11" transform="translate(3918.71 237.15) rotate(180)"/><path class="cls-3" d="M1952.48,204.17h13.75L1969.5,260a10.15,10.15,0,0,1-10.15,10.15h0A10.16,10.16,0,0,1,1949.2,260Z"/><rect class="cls-2" x="1811.1" y="-108.41" width="13.75" height="237.11" transform="translate(1828.13 -1807.83) rotate(90)"/><path class="cls-3" d="M1903.57,17V3.27L1959.35,0a10.14,10.14,0,0,1,10.15,10.15h0a10.15,10.15,0,0,1-10.15,10.15Z"/><rect class="cls-2" x="1699.42" y="32.97" width="13.75" height="237.11"/><path class="cls-3" d="M1713.17,65.93h-13.75l-3.27-55.78A10.14,10.14,0,0,1,1706.3,0h0a10.15,10.15,0,0,1,10.15,10.15Z"/><rect class="cls-2" x="1558.05" y="144.65" width="13.75" height="237.11" transform="translate(1828.13 -1301.72) rotate(90)"/><path class="cls-3" d="M1650.52,270.08V256.33l55.78-3.27a10.15,10.15,0,0,1,10.15,10.14h0a10.15,10.15,0,0,1-10.15,10.15Z"/><text class="cls-4" transform="translate(2098.01 334.08)">Segundo término<tspan x="14.57" y="36">tiene 14 palitos</tspan></text><rect class="cls-1" x="5452.75" width="13.75" height="237.11" transform="translate(10919.25 237.11) rotate(180)"/><path class="cls-1" d="M5452.75,204.15h13.75l3.27,55.78a10.14,10.14,0,0,1-10.15,10.15h0a10.14,10.14,0,0,1-10.14-10.15Z"/><rect class="cls-1" x="5311.38" y="-108.41" width="13.75" height="237.11" transform="translate(5328.4 -5308.1) rotate(90)"/><path class="cls-1" d="M5403.84,17V3.27L5459.62,0a10.14,10.14,0,0,1,10.15,10.15h0a10.15,10.15,0,0,1-10.15,10.15Z"/><rect class="cls-1" x="5199.69" y="32.97" width="13.75" height="237.11"/><path class="cls-1" d="M5213.44,65.93h-13.75l-3.27-55.78A10.14,10.14,0,0,1,5206.57,0h0a10.15,10.15,0,0,1,10.15,10.15Z"/><rect class="cls-2" x="5058.32" y="144.65" width="13.75" height="237.11" transform="translate(5328.4 -4801.99) rotate(90)"/><path class="cls-3" d="M5150.79,270.08V256.33l55.78-3.27a10.15,10.15,0,0,1,10.15,10.14h0a10.15,10.15,0,0,1-10.15,10.15Z"/><rect class="cls-2" x="4939.76" y="0.02" width="13.75" height="237.11" transform="translate(9893.27 237.15) rotate(180)"/><path class="cls-3" d="M4939.76,204.17h13.75l3.28,55.78a10.16,10.16,0,0,1-10.15,10.15h0A10.15,10.15,0,0,1,4936.49,260Z"/><rect class="cls-2" x="4798.39" y="-108.41" width="13.75" height="237.11" transform="translate(4815.41 -4795.12) rotate(90)"/><path class="cls-3" d="M4890.86,17V3.27L4946.64,0a10.15,10.15,0,0,1,10.15,10.15h0a10.16,10.16,0,0,1-10.15,10.15Z"/><rect class="cls-2" x="4686.71" y="32.97" width="13.75" height="237.11"/><path class="cls-3" d="M4700.46,65.93h-13.75l-3.28-55.78A10.15,10.15,0,0,1,4693.58,0h0a10.14,10.14,0,0,1,10.15,10.15Z"/><rect class="cls-2" x="4545.33" y="144.65" width="13.75" height="237.11" transform="translate(4815.41 -4289) rotate(90)"/><path class="cls-3" d="M4637.8,270.08V256.33l55.78-3.27a10.14,10.14,0,0,1,10.15,10.14h0a10.14,10.14,0,0,1-10.15,10.15Z"/><rect class="cls-2" x="4426.78" width="13.75" height="237.11" transform="translate(8867.3 237.11) rotate(180)"/><path class="cls-3" d="M4426.78,204.15h13.75l3.27,55.78a10.14,10.14,0,0,1-10.15,10.15h0a10.15,10.15,0,0,1-10.15-10.15Z"/><rect class="cls-2" x="4285.4" y="-108.41" width="13.75" height="237.11" transform="translate(4302.43 -4282.13) rotate(90)"/><path class="cls-3" d="M4377.87,17V3.27L4433.65,0a10.14,10.14,0,0,1,10.15,10.15h0a10.15,10.15,0,0,1-10.15,10.15Z"/><rect class="cls-2" x="4173.72" y="32.97" width="13.75" height="237.11"/><path class="cls-3" d="M4187.47,65.93h-13.75l-3.27-55.78A10.14,10.14,0,0,1,4180.6,0h0a10.14,10.14,0,0,1,10.14,10.15Z"/><rect class="cls-2" x="4032.35" y="144.65" width="13.75" height="237.11" transform="translate(4302.43 -3776.02) rotate(90)"/><path class="cls-3" d="M4124.81,270.08V256.33l55.79-3.27a10.14,10.14,0,0,1,10.14,10.14h0a10.14,10.14,0,0,1-10.14,10.15Z"/><rect class="cls-2" x="3407.68" y="32.97" width="13.75" height="237.11"/><path class="cls-3" d="M3421.43,65.93h-13.75l-3.28-55.78A10.15,10.15,0,0,1,3414.55,0h0a10.14,10.14,0,0,1,10.15,10.15Z"/><rect class="cls-2" x="3913.79" y="0.02" width="13.75" height="237.11" transform="translate(7841.33 237.15) rotate(180)"/><path class="cls-3" d="M3913.79,204.17h13.75l3.27,55.78a10.15,10.15,0,0,1-10.15,10.15h0A10.15,10.15,0,0,1,3910.52,260Z"/><rect class="cls-2" x="3772.42" y="-108.41" width="13.75" height="237.11" transform="translate(3789.44 -3769.14) rotate(90)"/><path class="cls-3" d="M3864.88,17V3.27L3920.66,0a10.14,10.14,0,0,1,10.15,10.15h0a10.15,10.15,0,0,1-10.15,10.15Z"/><rect class="cls-2" x="3660.73" y="32.97" width="13.75" height="237.11"/><path class="cls-3" d="M3674.48,65.93h-13.75l-3.27-55.78A10.14,10.14,0,0,1,3667.61,0h0a10.15,10.15,0,0,1,10.15,10.15Z"/><rect class="cls-2" x="3519.36" y="144.65" width="13.75" height="237.11" transform="translate(3789.44 -3263.03) rotate(90)"/><path class="cls-3" d="M3611.83,270.08V256.33l55.78-3.27a10.15,10.15,0,0,1,10.15,10.14h0a10.15,10.15,0,0,1-10.15,10.15Z"/><text class="cls-4" transform="translate(4329.39 334.08)">Tercer término<tspan x="-2.45" y="36">tiene 17 palitos</tspan></text></svg>