<svg id="Layer_1" data-name="Layer 1" xmlns="http://www.w3.org/2000/svg" viewBox="0 0 2197.15 381.8"><defs><style>.cls-1{fill:#ffe2a1;}.cls-2{fill:#3a68ad;}.cls-3{fill:#d32a2a;}</style></defs><title>Fosforos_U02_03</title><rect class="cls-1" x="501.66" y="32.97" width="13.75" height="237.11"/><path class="cls-2" d="M515.41,65.93H501.66l-3.27-55.78A10.14,10.14,0,0,1,508.54,0h0a10.14,10.14,0,0,1,10.14,10.15Z"/><rect class="cls-3" x="1007.77" y="0.02" width="13.75" height="237.11" transform="translate(2029.29 237.15) rotate(180)"/><path class="cls-3" d="M1007.77,204.17h13.75L1024.8,260a10.16,10.16,0,0,1-10.15,10.15h0A10.15,10.15,0,0,1,1004.5,260Z"/><rect class="cls-3" x="866.4" y="-108.41" width="13.75" height="237.11" transform="translate(883.42 -863.13) rotate(90)"/><path class="cls-3" d="M958.87,17V3.27L1014.65,0a10.15,10.15,0,0,1,10.15,10.15h0a10.16,10.16,0,0,1-10.15,10.15Z"/><rect class="cls-3" x="754.72" y="32.97" width="13.75" height="237.11"/><path class="cls-3" d="M768.47,65.93H754.72l-3.28-55.78A10.15,10.15,0,0,1,761.59,0h0a10.14,10.14,0,0,1,10.15,10.15Z"/><rect class="cls-1" x="613.34" y="144.65" width="13.75" height="237.11" transform="translate(883.42 -357.01) rotate(90)"/><path class="cls-2" d="M705.81,270.08V256.33l55.78-3.27a10.14,10.14,0,0,1,10.15,10.14h0a10.14,10.14,0,0,1-10.15,10.15Z"/><rect class="cls-1" x="3.27" y="35.35" width="13.75" height="237.11"/><path class="cls-2" d="M17,68.31H3.27L0,12.53A10.15,10.15,0,0,1,10.15,2.38h0A10.16,10.16,0,0,1,20.3,12.53Z"/><rect class="cls-1" x="114.96" y="147.03" width="13.75" height="237.11" transform="translate(387.42 143.76) rotate(90)"/><path class="cls-2" d="M207.42,272.46V258.71l55.78-3.27a10.14,10.14,0,0,1,10.15,10.15h0a10.15,10.15,0,0,1-10.15,10.15Z"/><rect class="cls-3" x="2038.75" y="-106.01" width="13.75" height="237.11" transform="translate(2058.17 -2033.07) rotate(90)"/><path class="cls-3" d="M2131.22,19.43V5.68L2187,2.4a10.16,10.16,0,0,1,10.15,10.15h0A10.15,10.15,0,0,1,2187,22.7Z"/><rect class="cls-3" x="1927.07" y="35.37" width="13.75" height="237.11"/><path class="cls-3" d="M1940.82,68.33h-13.75l-3.28-55.78A10.16,10.16,0,0,1,1933.94,2.4h0a10.15,10.15,0,0,1,10.15,10.15Z"/><rect class="cls-3" x="1785.69" y="147.05" width="13.75" height="237.11" transform="translate(2058.17 -1526.96) rotate(90)"/><path class="cls-3" d="M1878.16,272.48V258.73l55.78-3.27a10.14,10.14,0,0,1,10.15,10.15h0a10.14,10.14,0,0,1-10.15,10.14Z"/><rect class="cls-1" x="1161.03" y="35.37" width="13.75" height="237.11"/><path class="cls-2" d="M1174.77,68.33H1161l-3.28-55.78A10.16,10.16,0,0,1,1167.9,2.4h0a10.16,10.16,0,0,1,10.15,10.15Z"/><rect class="cls-1" x="1667.14" y="2.42" width="13.75" height="237.11" transform="translate(3348.02 241.95) rotate(180)"/><path class="cls-2" d="M1667.14,206.57h13.75l3.27,55.78A10.14,10.14,0,0,1,1674,272.5h0a10.15,10.15,0,0,1-10.15-10.15Z"/><rect class="cls-1" x="1525.76" y="-106.01" width="13.75" height="237.11" transform="translate(1545.19 -1520.09) rotate(90)"/><path class="cls-2" d="M1618.23,19.43V5.68L1674,2.4a10.15,10.15,0,0,1,10.15,10.15h0A10.14,10.14,0,0,1,1674,22.7Z"/><rect class="cls-1" x="1414.08" y="35.37" width="13.75" height="237.11"/><path class="cls-2" d="M1427.83,68.33h-13.75l-3.27-55.78A10.15,10.15,0,0,1,1421,2.4h0a10.15,10.15,0,0,1,10.14,10.15Z"/><rect class="cls-1" x="1272.71" y="147.05" width="13.75" height="237.11" transform="translate(1545.19 -1013.98) rotate(90)"/><path class="cls-2" d="M1365.17,272.48V258.73l55.79-3.27a10.14,10.14,0,0,1,10.14,10.15h0A10.14,10.14,0,0,1,1421,275.75Z"/><path d="M43.47,303.74a7.43,7.43,0,0,1-2.75,6.2c-1.84,1.45-4.46,2.17-7.88,2.17H29.72v10.45H26.63V296h6.88Q43.47,296,43.47,303.74Zm-13.75,5.72H32.5q4.09,0,5.94-1.32a4.9,4.9,0,0,0,1.83-4.25A4.59,4.59,0,0,0,38.55,300c-1.15-.86-2.95-1.29-5.38-1.29H29.72Z"/><path d="M57.65,302.29a11.41,11.41,0,0,1,2.38.22l-.42,2.79a10.33,10.33,0,0,0-2.18-.27,5.3,5.3,0,0,0-4.13,2,7.18,7.18,0,0,0-1.71,4.89v10.68h-3V302.65h2.49l.34,3.69h.15a8.73,8.73,0,0,1,2.67-3A6,6,0,0,1,57.65,302.29Z"/><path d="M63.5,297.26a2,2,0,0,1,.51-1.52,1.78,1.78,0,0,1,1.27-.48,1.74,1.74,0,0,1,1.25.49,2.42,2.42,0,0,1,0,3,1.84,1.84,0,0,1-2.52,0A2,2,0,0,1,63.5,297.26Zm3.27,25.3h-3V302.65h3Z"/><path d="M98.54,322.56V309.61a5.36,5.36,0,0,0-1-3.57,3.91,3.91,0,0,0-3.16-1.19,5.13,5.13,0,0,0-4.16,1.61,7.67,7.67,0,0,0-1.34,5v11.12h-3V309.61a5.36,5.36,0,0,0-1-3.57,3.91,3.91,0,0,0-3.17-1.19,4.89,4.89,0,0,0-4.15,1.7q-1.32,1.69-1.32,5.56v10.45h-3V302.65h2.46l.49,2.72h.14a6,6,0,0,1,2.41-2.27,7.38,7.38,0,0,1,3.48-.81c3.11,0,5.14,1.12,6.1,3.38h.14A6.43,6.43,0,0,1,91,303.19a8.07,8.07,0,0,1,3.85-.9A6.77,6.77,0,0,1,99.87,304q1.68,1.74,1.68,5.55v13Z"/><path d="M116.17,322.92a9.14,9.14,0,0,1-7-2.69,10.41,10.41,0,0,1-2.56-7.46,11.5,11.5,0,0,1,2.38-7.65,7.85,7.85,0,0,1,6.36-2.83,7.51,7.51,0,0,1,5.92,2.46,9.43,9.43,0,0,1,2.18,6.49v1.91H109.78a7.88,7.88,0,0,0,1.77,5.32,6.13,6.13,0,0,0,4.73,1.82,16,16,0,0,0,6.36-1.35v2.69a16.14,16.14,0,0,1-3,1A16.91,16.91,0,0,1,116.17,322.92Zm-.82-18.11a4.93,4.93,0,0,0-3.82,1.56,7.25,7.25,0,0,0-1.68,4.33h10.41a6.68,6.68,0,0,0-1.27-4.37A4.49,4.49,0,0,0,115.35,304.81Z"/><path d="M137.71,302.29a11.41,11.41,0,0,1,2.38.22l-.42,2.79a10.33,10.33,0,0,0-2.18-.27,5.3,5.3,0,0,0-4.13,2,7.18,7.18,0,0,0-1.71,4.89v10.68h-3V302.65h2.49l.34,3.69h.15a8.73,8.73,0,0,1,2.67-3A6,6,0,0,1,137.71,302.29Z"/><path d="M159.91,320.43a9.7,9.7,0,0,0,1.54-.12,11.37,11.37,0,0,0,1.18-.24v2.3a5.71,5.71,0,0,1-1.44.4,11.23,11.23,0,0,1-1.72.15q-5.78,0-5.77-6.08V305h-2.86v-1.45l2.86-1.25L155,298h1.74v4.61h5.78V305h-5.78v11.72a4,4,0,0,0,.85,2.76A3,3,0,0,0,159.91,320.43Z"/><path d="M175,322.92a9.17,9.17,0,0,1-7-2.69,10.4,10.4,0,0,1-2.55-7.46,11.55,11.55,0,0,1,2.37-7.65,7.87,7.87,0,0,1,6.37-2.83,7.51,7.51,0,0,1,5.92,2.46,9.43,9.43,0,0,1,2.18,6.49v1.91H168.62a7.93,7.93,0,0,0,1.78,5.32,6.12,6.12,0,0,0,4.73,1.82,15.93,15.93,0,0,0,6.35-1.35v2.69a15.83,15.83,0,0,1-3,1A17,17,0,0,1,175,322.92Zm-.82-18.11a4.92,4.92,0,0,0-3.82,1.56,7.25,7.25,0,0,0-1.68,4.33h10.4a6.62,6.62,0,0,0-1.27-4.37A4.47,4.47,0,0,0,174.2,304.81ZM172,299.56c.58-.75,1.2-1.66,1.88-2.72s1.2-2,1.59-2.78h3.66v.38a26.34,26.34,0,0,1-2.37,2.91A27.21,27.21,0,0,1,174,300h-2Z"/><path d="M196.56,302.29a11.48,11.48,0,0,1,2.38.22l-.42,2.79a10.33,10.33,0,0,0-2.18-.27,5.29,5.29,0,0,0-4.13,2,7.14,7.14,0,0,0-1.72,4.89v10.68h-3V302.65H190l.34,3.69h.15a8.53,8.53,0,0,1,2.67-3A6,6,0,0,1,196.56,302.29Z"/><path d="M228,322.56V309.61a5.36,5.36,0,0,0-1-3.57,3.91,3.91,0,0,0-3.16-1.19,5.11,5.11,0,0,0-4.16,1.61,7.67,7.67,0,0,0-1.35,5v11.12h-3V309.61a5.36,5.36,0,0,0-1-3.57,3.94,3.94,0,0,0-3.18-1.19,4.9,4.9,0,0,0-4.15,1.7q-1.31,1.69-1.31,5.56v10.45h-3V302.65h2.45l.49,2.72h.15a6,6,0,0,1,2.41-2.27,7.37,7.37,0,0,1,3.47-.81c3.12,0,5.15,1.12,6.11,3.38h.14a6.3,6.3,0,0,1,2.58-2.48,8.07,8.07,0,0,1,3.85-.9,6.77,6.77,0,0,1,5.06,1.73q1.68,1.74,1.68,5.55v13Z"/><path d="M237,297.26a2,2,0,0,1,.51-1.52,1.88,1.88,0,0,1,2.52,0,2.42,2.42,0,0,1,0,3,1.73,1.73,0,0,1-1.25.5,1.7,1.7,0,0,1-1.27-.5A2,2,0,0,1,237,297.26Zm3.27,25.3h-3V302.65h3Z"/><path d="M260.29,322.56V309.68a5.19,5.19,0,0,0-1.11-3.63,4.51,4.51,0,0,0-3.47-1.2,5.7,5.7,0,0,0-4.57,1.69q-1.45,1.68-1.46,5.57v10.45h-3V302.65h2.45l.49,2.72h.15a6.13,6.13,0,0,1,2.59-2.28,8.6,8.6,0,0,1,3.73-.8,7.59,7.59,0,0,1,5.41,1.73q1.81,1.74,1.82,5.55v13Z"/><path d="M286.68,312.59q0,4.86-2.45,7.6a8.65,8.65,0,0,1-6.78,2.73,9,9,0,0,1-4.74-1.25,8.3,8.3,0,0,1-3.19-3.6,12.53,12.53,0,0,1-1.13-5.48q0-4.87,2.43-7.59a8.63,8.63,0,0,1,6.76-2.71,8.39,8.39,0,0,1,6.64,2.78A10.93,10.93,0,0,1,286.68,312.59Zm-15.16,0A9.43,9.43,0,0,0,273,318.4a6.05,6.05,0,0,0,9,0,9.37,9.37,0,0,0,1.54-5.82,9.21,9.21,0,0,0-1.54-5.77,5.39,5.39,0,0,0-4.53-2,5.33,5.33,0,0,0-4.47,1.94A9.41,9.41,0,0,0,271.52,312.59Z"/><path d="M43.83,365.07a10.68,10.68,0,0,0,2.73-.37V367a5.35,5.35,0,0,1-1.45.39,11.23,11.23,0,0,1-1.72.16q-5.78,0-5.77-6.09V349.63H34.77v-1.45l2.85-1.26,1.27-4.25h1.74v4.62h5.78v2.34H40.63v11.71a4,4,0,0,0,.86,2.76A3,3,0,0,0,43.83,365.07Z"/><path d="M50.28,341.89a2,2,0,0,1,.51-1.51,1.74,1.74,0,0,1,1.27-.49,1.8,1.8,0,0,1,1.25.49,2,2,0,0,1,.53,1.51,2,2,0,0,1-.53,1.52,1.77,1.77,0,0,1-1.25.5,1.75,1.75,0,0,1-1.27-.5A2,2,0,0,1,50.28,341.89Zm3.27,25.3h-3v-19.9h3Z"/><path d="M68.35,367.56a9.14,9.14,0,0,1-7-2.69q-2.56-2.69-2.56-7.47a11.54,11.54,0,0,1,2.37-7.64,7.89,7.89,0,0,1,6.37-2.84,7.51,7.51,0,0,1,5.92,2.46,9.46,9.46,0,0,1,2.18,6.5v1.9H62a7.9,7.9,0,0,0,1.77,5.33,6.11,6.11,0,0,0,4.73,1.81,16.18,16.18,0,0,0,6.36-1.34v2.69a16.14,16.14,0,0,1-3,1A17,17,0,0,1,68.35,367.56Zm-.82-18.11A4.92,4.92,0,0,0,63.71,351,7.2,7.2,0,0,0,62,355.33H72.44A6.7,6.7,0,0,0,71.17,351,4.48,4.48,0,0,0,67.53,349.45Z"/><path d="M94.43,367.19V354.31a5.19,5.19,0,0,0-1.11-3.63,4.51,4.51,0,0,0-3.47-1.2,5.73,5.73,0,0,0-4.57,1.69q-1.45,1.69-1.46,5.58v10.44h-3v-19.9h2.45l.49,2.72h.15a6.13,6.13,0,0,1,2.59-2.28,8.47,8.47,0,0,1,3.73-.81,7.53,7.53,0,0,1,5.41,1.74q1.82,1.72,1.82,5.55v13Z"/><path d="M112.05,367.56a9.17,9.17,0,0,1-7-2.69q-2.55-2.69-2.55-7.47a11.54,11.54,0,0,1,2.37-7.64,7.87,7.87,0,0,1,6.37-2.84,7.51,7.51,0,0,1,5.92,2.46,9.46,9.46,0,0,1,2.18,6.5v1.9H105.66a7.9,7.9,0,0,0,1.77,5.33,6.11,6.11,0,0,0,4.73,1.81,16.09,16.09,0,0,0,6.35-1.34v2.69a15.83,15.83,0,0,1-3,1A17,17,0,0,1,112.05,367.56Zm-.82-18.11a4.92,4.92,0,0,0-3.82,1.56,7.2,7.2,0,0,0-1.68,4.32h10.41a6.64,6.64,0,0,0-1.28-4.37A4.45,4.45,0,0,0,111.23,349.45Z"/><path d="M150.24,367.19H132.79V364.6l7-7A52.88,52.88,0,0,0,144,353a12.08,12.08,0,0,0,1.52-2.68,7.72,7.72,0,0,0,.51-2.82,4.46,4.46,0,0,0-1.29-3.37,4.93,4.93,0,0,0-3.58-1.24,9.07,9.07,0,0,0-3.13.54,12.81,12.81,0,0,0-3.3,2l-1.59-2.05a12.25,12.25,0,0,1,8-3.05,8.45,8.45,0,0,1,5.86,1.91,6.6,6.6,0,0,1,2.13,5.15,9.9,9.9,0,0,1-1.42,5,31.79,31.79,0,0,1-5.3,6.25l-5.81,5.68v.15h13.65Z"/><path d="M174.36,367.56a8.63,8.63,0,0,1-3.55-.72,6.67,6.67,0,0,1-2.69-2.21h-.22a27.85,27.85,0,0,1,.22,3.31v8.19h-3V347.29h2.45L168,350h.15a6.91,6.91,0,0,1,2.7-2.36,8.29,8.29,0,0,1,3.54-.73,7.39,7.39,0,0,1,6.12,2.71q2.15,2.7,2.15,7.59t-2.19,7.62A7.37,7.37,0,0,1,174.36,367.56Zm-.43-18.08a5.37,5.37,0,0,0-4.42,1.69c-.9,1.13-1.37,2.92-1.39,5.38v.67q0,4.2,1.39,6A5.32,5.32,0,0,0,174,365a4.66,4.66,0,0,0,4-2.09,9.85,9.85,0,0,0,1.46-5.75,9.51,9.51,0,0,0-1.46-5.72A4.81,4.81,0,0,0,173.93,349.48Z"/><path d="M200.14,367.19l-.6-2.83h-.15a8.26,8.26,0,0,1-3,2.53,9,9,0,0,1-3.69.67,6.62,6.62,0,0,1-4.64-1.53,5.56,5.56,0,0,1-1.68-4.34q0-6,9.64-6.32l3.38-.11V354a5.07,5.07,0,0,0-1-3.46,4.16,4.16,0,0,0-3.22-1.11,13.2,13.2,0,0,0-5.63,1.52l-.93-2.3a14.29,14.29,0,0,1,3.22-1.26,14.1,14.1,0,0,1,3.52-.45q3.56,0,5.27,1.58t1.72,5.07v13.58Zm-6.81-2.12a6.12,6.12,0,0,0,4.42-1.55,5.72,5.72,0,0,0,1.61-4.32v-1.8l-3,.13a11,11,0,0,0-5.18,1.12,3.36,3.36,0,0,0-1.59,3.08,3.09,3.09,0,0,0,1,2.48A4.1,4.1,0,0,0,193.33,365.07Z"/><path d="M211.6,367.19h-3V338.93h3Z"/><path d="M217.74,341.89a2,2,0,0,1,.5-1.51,1.77,1.77,0,0,1,1.28-.49,1.8,1.8,0,0,1,1.25.49,2,2,0,0,1,.53,1.51,2,2,0,0,1-.53,1.52,1.85,1.85,0,0,1-2.53,0A2.08,2.08,0,0,1,217.74,341.89Zm3.27,25.3h-3v-19.9h3Z"/><path d="M233.83,365.07a9.61,9.61,0,0,0,1.54-.12,9,9,0,0,0,1.18-.25V367a5.26,5.26,0,0,1-1.44.39,11.34,11.34,0,0,1-1.72.16q-5.77,0-5.77-6.09V349.63h-2.86v-1.45l2.86-1.26,1.27-4.25h1.74v4.62h5.78v2.34h-5.78v11.71a4,4,0,0,0,.86,2.76A2.93,2.93,0,0,0,233.83,365.07Z"/><path d="M257.71,357.22q0,4.88-2.45,7.6a8.63,8.63,0,0,1-6.77,2.74,9,9,0,0,1-4.75-1.26,8.22,8.22,0,0,1-3.19-3.59,12.57,12.57,0,0,1-1.13-5.49q0-4.86,2.44-7.58a8.6,8.6,0,0,1,6.75-2.72,8.43,8.43,0,0,1,6.64,2.78A10.93,10.93,0,0,1,257.71,357.22Zm-15.16,0a9.43,9.43,0,0,0,1.52,5.81,6.05,6.05,0,0,0,9,0,9.33,9.33,0,0,0,1.54-5.82,9.18,9.18,0,0,0-1.54-5.76,5.37,5.37,0,0,0-4.53-2,5.31,5.31,0,0,0-4.47,1.95Q242.55,353.37,242.55,357.22Z"/><path d="M275.84,361.76a5,5,0,0,1-2.07,4.29,9.77,9.77,0,0,1-5.81,1.51,12.61,12.61,0,0,1-6.18-1.26v-2.79a15.27,15.27,0,0,0,3.08,1.14,12.74,12.74,0,0,0,3.17.42,7.11,7.11,0,0,0,3.63-.76,2.59,2.59,0,0,0,.26-4.28,16.1,16.1,0,0,0-3.93-2,21.76,21.76,0,0,1-3.95-1.8,5.46,5.46,0,0,1-1.74-1.75,4.62,4.62,0,0,1-.57-2.35,4.47,4.47,0,0,1,2-3.84,9.19,9.19,0,0,1,5.43-1.41,15.93,15.93,0,0,1,6.28,1.31l-1.07,2.45a14.49,14.49,0,0,0-5.43-1.23,6.26,6.26,0,0,0-3.24.67A2.09,2.09,0,0,0,264.6,352a2.29,2.29,0,0,0,.4,1.37,4.16,4.16,0,0,0,1.32,1.07,31.27,31.27,0,0,0,3.49,1.47,13,13,0,0,1,4.78,2.59A4.6,4.6,0,0,1,275.84,361.76Z"/><path d="M644.7,315.49a6.53,6.53,0,0,1-2.54,5.47,11,11,0,0,1-6.91,2A17.28,17.28,0,0,1,628,321.7v-3a19.65,19.65,0,0,0,7.37,1.49A7.7,7.7,0,0,0,640,319a3.84,3.84,0,0,0,1.56-3.26,4.18,4.18,0,0,0-.55-2.26,5.1,5.1,0,0,0-1.85-1.62,25.67,25.67,0,0,0-3.95-1.69,12.71,12.71,0,0,1-5.3-3.15,6.93,6.93,0,0,1-1.59-4.74,5.89,5.89,0,0,1,2.31-4.88,9.59,9.59,0,0,1,6.1-1.82,18.18,18.18,0,0,1,7.29,1.45l-1,2.69a16.44,16.44,0,0,0-6.39-1.38,6.14,6.14,0,0,0-3.83,1.06,3.46,3.46,0,0,0-1.38,2.92,4.47,4.47,0,0,0,.51,2.26,4.8,4.8,0,0,0,1.71,1.62,21.36,21.36,0,0,0,3.7,1.62c2.78,1,4.7,2.06,5.75,3.2A6.33,6.33,0,0,1,644.7,315.49Z"/><path d="M658.08,322.92a9.14,9.14,0,0,1-7-2.69,10.4,10.4,0,0,1-2.55-7.46,11.55,11.55,0,0,1,2.37-7.65,7.86,7.86,0,0,1,6.36-2.83,7.49,7.49,0,0,1,5.92,2.46,9.39,9.39,0,0,1,2.18,6.49v1.91H651.69a7.88,7.88,0,0,0,1.77,5.32,6.13,6.13,0,0,0,4.73,1.82,16,16,0,0,0,6.36-1.35v2.69a16.06,16.06,0,0,1-3,1A17,17,0,0,1,658.08,322.92Zm-.81-18.11a4.94,4.94,0,0,0-3.83,1.56,7.25,7.25,0,0,0-1.68,4.33h10.41a6.62,6.62,0,0,0-1.27-4.37A4.48,4.48,0,0,0,657.27,304.81Z"/><path d="M686.84,302.65v1.91l-3.69.43a6.45,6.45,0,0,1,1.31,4,5.89,5.89,0,0,1-2,4.67,8.07,8.07,0,0,1-5.49,1.74,9.81,9.81,0,0,1-1.67-.14,3,3,0,0,0-1.92,2.56,1.3,1.3,0,0,0,.67,1.21,4.94,4.94,0,0,0,2.31.39h3.52a7.9,7.9,0,0,1,5,1.36,4.75,4.75,0,0,1,1.73,4,5.65,5.65,0,0,1-2.65,5q-2.65,1.73-7.74,1.73a10.56,10.56,0,0,1-6-1.45,4.7,4.7,0,0,1-2.11-4.11,4.59,4.59,0,0,1,1.16-3.14,5.94,5.94,0,0,1,3.27-1.8,3.06,3.06,0,0,1-1.28-1.07,2.78,2.78,0,0,1-.52-1.69,3.17,3.17,0,0,1,.58-1.9,6,6,0,0,1,1.83-1.58,5.44,5.44,0,0,1-2.51-2.16,6.34,6.34,0,0,1-1-3.49,6.43,6.43,0,0,1,2-5,8,8,0,0,1,5.56-1.77,10.13,10.13,0,0,1,2.81.36ZM671,325.9a2.71,2.71,0,0,0,1.36,2.45,7.5,7.5,0,0,0,3.91.84,10.86,10.86,0,0,0,5.62-1.14,3.47,3.47,0,0,0,1.82-3.08,2.44,2.44,0,0,0-1-2.24,7.74,7.74,0,0,0-3.76-.63H675.3a4.75,4.75,0,0,0-3.19,1A3.51,3.51,0,0,0,671,325.9ZM672.6,309a4.05,4.05,0,0,0,1.18,3.16,4.71,4.71,0,0,0,3.28,1.07q4.43,0,4.42-4.29,0-4.49-4.47-4.49a4.43,4.43,0,0,0-3.27,1.15A4.61,4.61,0,0,0,672.6,309Z"/><path d="M693.75,302.65v12.91a5.2,5.2,0,0,0,1.11,3.64,4.52,4.52,0,0,0,3.47,1.2,5.66,5.66,0,0,0,4.57-1.71q1.44-1.71,1.44-5.58V302.65h3v19.91h-2.49l-.44-2.67h-.16a6,6,0,0,1-2.57,2.25,8.64,8.64,0,0,1-3.75.78c-2.42,0-4.23-.57-5.44-1.73s-1.81-3-1.81-5.52v-13Z"/><path d="M727.37,322.56V309.68a5.24,5.24,0,0,0-1.1-3.63,4.52,4.52,0,0,0-3.47-1.2,5.71,5.71,0,0,0-4.58,1.69q-1.46,1.68-1.45,5.57v10.45h-3V302.65h2.45l.49,2.72h.15a6.16,6.16,0,0,1,2.6-2.28,8.53,8.53,0,0,1,3.72-.8,7.58,7.58,0,0,1,5.41,1.73q1.81,1.74,1.82,5.55v13Z"/><path d="M750.13,319.89H750a7.09,7.09,0,0,1-6.25,3,7.41,7.41,0,0,1-6.08-2.67c-1.44-1.78-2.17-4.31-2.17-7.59s.73-5.83,2.18-7.65a7.34,7.34,0,0,1,6.07-2.72,7.24,7.24,0,0,1,6.21,2.94h.24l-.13-1.44L750,302.4v-8.1h3v28.26h-2.45Zm-6,.51a5.47,5.47,0,0,0,4.48-1.69c.92-1.11,1.39-2.92,1.39-5.42v-.63c0-2.82-.47-4.84-1.41-6a5.34,5.34,0,0,0-4.5-1.81,4.61,4.61,0,0,0-4,2.06,10.26,10.26,0,0,0-1.41,5.82,9.75,9.75,0,0,0,1.4,5.76A4.72,4.72,0,0,0,744.1,320.4Z"/><path d="M776.56,312.59q0,4.86-2.45,7.6a8.66,8.66,0,0,1-6.78,2.73,9,9,0,0,1-4.74-1.25,8.32,8.32,0,0,1-3.2-3.6,12.53,12.53,0,0,1-1.12-5.48q0-4.87,2.43-7.59a8.61,8.61,0,0,1,6.76-2.71,8.41,8.41,0,0,1,6.64,2.78A10.93,10.93,0,0,1,776.56,312.59Zm-15.17,0a9.42,9.42,0,0,0,1.53,5.81,5.29,5.29,0,0,0,4.48,2,5.34,5.34,0,0,0,4.5-2,9.44,9.44,0,0,0,1.53-5.82,9.27,9.27,0,0,0-1.53-5.77,5.39,5.39,0,0,0-4.53-2,5.31,5.31,0,0,0-4.47,1.94Q761.39,308.74,761.39,312.59Z"/><path d="M797.93,320.43a9.74,9.74,0,0,0,1.55-.12,12,12,0,0,0,1.18-.24v2.3a5.68,5.68,0,0,1-1.45.4,11,11,0,0,1-1.71.15q-5.78,0-5.78-6.08V305h-2.85v-1.45l2.85-1.25L793,298h1.75v4.61h5.77V305h-5.77v11.72a4,4,0,0,0,.85,2.76A3,3,0,0,0,797.93,320.43Z"/><path d="M813.05,322.92a9.15,9.15,0,0,1-7-2.69,10.4,10.4,0,0,1-2.55-7.46,11.55,11.55,0,0,1,2.37-7.65,7.86,7.86,0,0,1,6.36-2.83,7.53,7.53,0,0,1,5.93,2.46,9.43,9.43,0,0,1,2.18,6.49v1.91H806.65a7.88,7.88,0,0,0,1.77,5.32,6.13,6.13,0,0,0,4.73,1.82,16,16,0,0,0,6.36-1.35v2.69a15.83,15.83,0,0,1-3,1A17,17,0,0,1,813.05,322.92Zm-.82-18.11a4.92,4.92,0,0,0-3.82,1.56,7.13,7.13,0,0,0-1.68,4.33h10.4a6.62,6.62,0,0,0-1.27-4.37A4.48,4.48,0,0,0,812.23,304.81ZM810,299.56a32.86,32.86,0,0,0,1.88-2.72,28,28,0,0,0,1.59-2.78h3.67v.38a25.48,25.48,0,0,1-2.38,2.91A26.24,26.24,0,0,1,812,300h-2Z"/><path d="M834.59,302.29a11.54,11.54,0,0,1,2.38.22l-.42,2.79a10.41,10.41,0,0,0-2.18-.27,5.29,5.29,0,0,0-4.13,2,7.14,7.14,0,0,0-1.72,4.89v10.68h-3V302.65H828l.35,3.69h.14a8.73,8.73,0,0,1,2.67-3A6,6,0,0,1,834.59,302.29Z"/><path d="M866.06,322.56V309.61a5.36,5.36,0,0,0-1-3.57,3.9,3.9,0,0,0-3.16-1.19,5.1,5.1,0,0,0-4.15,1.61,7.67,7.67,0,0,0-1.35,5v11.12h-3V309.61a5.36,5.36,0,0,0-1-3.57,3.94,3.94,0,0,0-3.18-1.19,4.9,4.9,0,0,0-4.15,1.7q-1.32,1.69-1.32,5.56v10.45h-3V302.65h2.45l.49,2.72h.15a6,6,0,0,1,2.4-2.27,7.44,7.44,0,0,1,3.48-.81c3.11,0,5.15,1.12,6.1,3.38h.15a6.3,6.3,0,0,1,2.58-2.48,8,8,0,0,1,3.85-.9A6.77,6.77,0,0,1,867.4,304q1.68,1.74,1.68,5.55v13Z"/><path d="M875,297.26a2,2,0,0,1,.51-1.52,1.79,1.79,0,0,1,1.27-.48,1.77,1.77,0,0,1,1.26.49,2.45,2.45,0,0,1,0,3,1.85,1.85,0,0,1-2.53,0A2,2,0,0,1,875,297.26Zm3.27,25.3h-3V302.65h3Z"/><path d="M898.32,322.56V309.68a5.19,5.19,0,0,0-1.11-3.63,4.51,4.51,0,0,0-3.47-1.2,5.72,5.72,0,0,0-4.58,1.69c-1,1.12-1.45,3-1.45,5.57v10.45h-3V302.65h2.45l.49,2.72h.14a6.22,6.22,0,0,1,2.6-2.28,8.59,8.59,0,0,1,3.72-.8,7.6,7.6,0,0,1,5.42,1.73q1.82,1.74,1.81,5.55v13Z"/><path d="M924.71,312.59q0,4.86-2.45,7.6a8.66,8.66,0,0,1-6.78,2.73,9,9,0,0,1-4.74-1.25,8.39,8.39,0,0,1-3.2-3.6,12.53,12.53,0,0,1-1.12-5.48q0-4.87,2.43-7.59a8.61,8.61,0,0,1,6.76-2.71,8.41,8.41,0,0,1,6.64,2.78A10.93,10.93,0,0,1,924.71,312.59Zm-15.17,0a9.42,9.42,0,0,0,1.53,5.81,6.05,6.05,0,0,0,9,0,9.44,9.44,0,0,0,1.53-5.82,9.27,9.27,0,0,0-1.53-5.77,5.39,5.39,0,0,0-4.53-2,5.32,5.32,0,0,0-4.47,1.94Q909.54,308.74,909.54,312.59Z"/><path d="M664.39,365.07a9.7,9.7,0,0,0,1.54-.12,9,9,0,0,0,1.18-.25V367a5.37,5.37,0,0,1-1.44.39,11.34,11.34,0,0,1-1.72.16q-5.78,0-5.78-6.09V349.63h-2.85v-1.45l2.85-1.26,1.28-4.25h1.74v4.62H667v2.34h-5.78v11.71a4,4,0,0,0,.85,2.76A3,3,0,0,0,664.39,365.07Z"/><path d="M670.83,341.89a2,2,0,0,1,.51-1.51,1.76,1.76,0,0,1,1.27-.49,1.81,1.81,0,0,1,1.26.49,2,2,0,0,1,.52,1.51,2,2,0,0,1-.52,1.52,1.85,1.85,0,0,1-2.53,0A2,2,0,0,1,670.83,341.89Zm3.27,25.3h-3v-19.9h3Z"/><path d="M688.91,367.56a9.15,9.15,0,0,1-7-2.69q-2.55-2.69-2.55-7.47a11.54,11.54,0,0,1,2.37-7.64,7.87,7.87,0,0,1,6.36-2.84,7.53,7.53,0,0,1,5.93,2.46,9.46,9.46,0,0,1,2.17,6.5v1.9H682.51a7.9,7.9,0,0,0,1.77,5.33,6.13,6.13,0,0,0,4.73,1.81,16.11,16.11,0,0,0,6.36-1.34v2.69a15.83,15.83,0,0,1-3,1A17,17,0,0,1,688.91,367.56Zm-.82-18.11a4.92,4.92,0,0,0-3.82,1.56,7.07,7.07,0,0,0-1.68,4.32H693a6.64,6.64,0,0,0-1.27-4.37A4.48,4.48,0,0,0,688.09,349.45Z"/><path d="M715,367.19V354.31a5.19,5.19,0,0,0-1.11-3.63,4.52,4.52,0,0,0-3.47-1.2,5.75,5.75,0,0,0-4.58,1.69q-1.46,1.69-1.45,5.58v10.44h-3v-19.9h2.46l.49,2.72h.14a6.22,6.22,0,0,1,2.6-2.28,8.39,8.39,0,0,1,3.72-.81,7.58,7.58,0,0,1,5.42,1.74q1.81,1.72,1.81,5.55v13Z"/><path d="M732.6,367.56a9.14,9.14,0,0,1-7-2.69q-2.55-2.69-2.55-7.47a11.54,11.54,0,0,1,2.37-7.64,7.87,7.87,0,0,1,6.36-2.84,7.49,7.49,0,0,1,5.92,2.46,9.41,9.41,0,0,1,2.18,6.5v1.9H726.21a7.9,7.9,0,0,0,1.77,5.33,6.13,6.13,0,0,0,4.73,1.81,16.11,16.11,0,0,0,6.36-1.34v2.69a16.06,16.06,0,0,1-3,1A17,17,0,0,1,732.6,367.56Zm-.81-18.11A4.94,4.94,0,0,0,728,351a7.2,7.2,0,0,0-1.68,4.32h10.41a6.64,6.64,0,0,0-1.27-4.37A4.48,4.48,0,0,0,731.79,349.45Z"/><path d="M753.65,355.84q0-7.83,3.05-11.7t9-3.88a12.06,12.06,0,0,1,3.23.34v2.6a10.44,10.44,0,0,0-3.2-.45,8.05,8.05,0,0,0-6.52,2.66q-2.25,2.65-2.47,8.36H757q2-3.12,6.32-3.12a7.41,7.41,0,0,1,5.64,2.16,8.15,8.15,0,0,1,2.06,5.86,9.06,9.06,0,0,1-2.26,6.52,8,8,0,0,1-6.11,2.37,7.87,7.87,0,0,1-6.54-3.1Q753.66,361.36,753.65,355.84Zm8.92,9.15a5.06,5.06,0,0,0,4-1.62,6.91,6.91,0,0,0,1.42-4.7,6.09,6.09,0,0,0-1.32-4.14,5,5,0,0,0-4-1.5,6.67,6.67,0,0,0-3,.67,5.53,5.53,0,0,0-2.17,1.85,4.29,4.29,0,0,0-.81,2.45,8.33,8.33,0,0,0,.73,3.49,6.09,6.09,0,0,0,2.06,2.56A5.12,5.12,0,0,0,762.57,365Z"/><path d="M794.92,367.56a8.56,8.56,0,0,1-3.55-.72,6.77,6.77,0,0,1-2.7-2.21h-.22a25.89,25.89,0,0,1,.22,3.31v8.19h-3V347.29h2.45l.42,2.72h.14a7,7,0,0,1,2.71-2.36,8.29,8.29,0,0,1,3.54-.73,7.36,7.36,0,0,1,6.11,2.71c1.44,1.8,2.15,4.33,2.15,7.59s-.73,5.81-2.19,7.62A7.35,7.35,0,0,1,794.92,367.56Zm-.44-18.08a5.36,5.36,0,0,0-4.41,1.69c-.91,1.13-1.37,2.92-1.4,5.38v.67q0,4.2,1.4,6a5.31,5.31,0,0,0,4.49,1.81,4.68,4.68,0,0,0,4-2.09,9.92,9.92,0,0,0,1.46-5.75,9.59,9.59,0,0,0-1.46-5.72A4.84,4.84,0,0,0,794.48,349.48Z"/><path d="M820.69,367.19l-.6-2.83H820a8.43,8.43,0,0,1-3,2.53,9.1,9.1,0,0,1-3.7.67,6.64,6.64,0,0,1-4.64-1.53,5.56,5.56,0,0,1-1.68-4.34q0-6,9.65-6.32l3.37-.11V354a5.07,5.07,0,0,0-1-3.46,4.18,4.18,0,0,0-3.23-1.11,13.24,13.24,0,0,0-5.63,1.52l-.92-2.3a14.29,14.29,0,0,1,6.73-1.71q3.57,0,5.28,1.58c1.14,1,1.72,2.74,1.72,5.07v13.58Zm-6.81-2.12a6.1,6.1,0,0,0,4.42-1.55,5.68,5.68,0,0,0,1.61-4.32v-1.8l-3,.13a11,11,0,0,0-5.19,1.12,3.36,3.36,0,0,0-1.59,3.08,3.09,3.09,0,0,0,1,2.48A4.1,4.1,0,0,0,813.88,365.07Z"/><path d="M832.15,367.19h-3V338.93h3Z"/><path d="M838.29,341.89a2,2,0,0,1,.51-1.51,1.74,1.74,0,0,1,1.27-.49,1.79,1.79,0,0,1,1.25.49,1.94,1.94,0,0,1,.53,1.51,2,2,0,0,1-.53,1.52,1.84,1.84,0,0,1-2.52,0A2,2,0,0,1,838.29,341.89Zm3.27,25.3h-3v-19.9h3Z"/><path d="M854.38,365.07a9.74,9.74,0,0,0,1.55-.12,9.34,9.34,0,0,0,1.18-.25V367a5.35,5.35,0,0,1-1.45.39,11.11,11.11,0,0,1-1.71.16q-5.78,0-5.78-6.09V349.63h-2.85v-1.45l2.85-1.26,1.27-4.25h1.75v4.62H857v2.34h-5.77v11.71a4,4,0,0,0,.85,2.76A3,3,0,0,0,854.38,365.07Z"/><path d="M878.27,357.22q0,4.88-2.45,7.6a8.67,8.67,0,0,1-6.78,2.74,8.93,8.93,0,0,1-4.74-1.26,8.24,8.24,0,0,1-3.2-3.59,12.57,12.57,0,0,1-1.12-5.49q0-4.86,2.43-7.58a8.62,8.62,0,0,1,6.76-2.72,8.44,8.44,0,0,1,6.64,2.78A10.93,10.93,0,0,1,878.27,357.22Zm-15.17,0a9.42,9.42,0,0,0,1.53,5.81,5.26,5.26,0,0,0,4.48,2,5.32,5.32,0,0,0,4.5-2,9.4,9.4,0,0,0,1.53-5.82,9.24,9.24,0,0,0-1.53-5.76,5.38,5.38,0,0,0-4.53-2,5.29,5.29,0,0,0-4.47,1.95Q863.1,353.37,863.1,357.22Z"/><path d="M896.39,361.76a5,5,0,0,1-2.07,4.29,9.77,9.77,0,0,1-5.81,1.51,12.54,12.54,0,0,1-6.17-1.26v-2.79a15.17,15.17,0,0,0,3.07,1.14,12.86,12.86,0,0,0,3.17.42,7.13,7.13,0,0,0,3.64-.76,2.59,2.59,0,0,0,.26-4.28,16.1,16.1,0,0,0-3.93-2,21.43,21.43,0,0,1-3.95-1.8,5.5,5.5,0,0,1-1.75-1.75,4.62,4.62,0,0,1-.57-2.35,4.47,4.47,0,0,1,2-3.84,9.21,9.21,0,0,1,5.43-1.41,16,16,0,0,1,6.29,1.31l-1.08,2.45a14.41,14.41,0,0,0-5.43-1.23,6.22,6.22,0,0,0-3.23.67,2.08,2.08,0,0,0-1.09,1.85,2.29,2.29,0,0,0,.41,1.37,4.05,4.05,0,0,0,1.32,1.07,30,30,0,0,0,3.48,1.47,13.11,13.11,0,0,1,4.79,2.59A4.59,4.59,0,0,1,896.39,361.76Z"/><path d="M1467,319H1464V295.14h-8.41V292.4h19.91v2.74H1467Z"/><path d="M1487.4,319.31a9.11,9.11,0,0,1-7-2.69,10.36,10.36,0,0,1-2.56-7.46,11.55,11.55,0,0,1,2.37-7.65,7.88,7.88,0,0,1,6.37-2.83,7.51,7.51,0,0,1,5.92,2.46,9.45,9.45,0,0,1,2.18,6.49v1.91H1481a7.88,7.88,0,0,0,1.77,5.32,6.13,6.13,0,0,0,4.73,1.82,16,16,0,0,0,6.36-1.35V318a16.14,16.14,0,0,1-3,1A17,17,0,0,1,1487.4,319.31Zm-.82-18.11a4.9,4.9,0,0,0-3.82,1.57,7.2,7.2,0,0,0-1.68,4.32h10.41a6.68,6.68,0,0,0-1.27-4.37A4.49,4.49,0,0,0,1486.58,301.2Z"/><path d="M1508.94,298.68a11.41,11.41,0,0,1,2.38.22l-.42,2.79a10.33,10.33,0,0,0-2.18-.27,5.33,5.33,0,0,0-4.13,2,7.18,7.18,0,0,0-1.71,4.89V319h-3V299h2.49l.34,3.69h.15a8.82,8.82,0,0,1,2.67-3A6,6,0,0,1,1508.94,298.68Z"/><path d="M1523,319.31a8.5,8.5,0,0,1-6.69-2.66q-2.37-2.65-2.37-7.53t2.4-7.72a8.69,8.69,0,0,1,6.86-2.72,13.34,13.34,0,0,1,2.87.31,9.61,9.61,0,0,1,2.25.72l-.93,2.57a14,14,0,0,0-2.18-.67,10,10,0,0,0-2.08-.26q-6.08,0-6.07,7.74a9.21,9.21,0,0,0,1.48,5.63,5.18,5.18,0,0,0,4.39,2,13.46,13.46,0,0,0,5.1-1.07v2.67A10.88,10.88,0,0,1,1523,319.31Z"/><path d="M1541.16,319.31a9.11,9.11,0,0,1-7-2.69,10.41,10.41,0,0,1-2.56-7.46,11.55,11.55,0,0,1,2.37-7.65,7.88,7.88,0,0,1,6.37-2.83,7.51,7.51,0,0,1,5.92,2.46,9.45,9.45,0,0,1,2.18,6.49v1.91h-13.71a7.88,7.88,0,0,0,1.77,5.32,6.13,6.13,0,0,0,4.73,1.82,16,16,0,0,0,6.36-1.35V318a16.14,16.14,0,0,1-3,1A16.91,16.91,0,0,1,1541.16,319.31Zm-.82-18.11a4.9,4.9,0,0,0-3.82,1.57,7.2,7.2,0,0,0-1.68,4.32h10.41a6.68,6.68,0,0,0-1.27-4.37A4.49,4.49,0,0,0,1540.34,301.2Z"/><path d="M1562.7,298.68a11.41,11.41,0,0,1,2.38.22l-.42,2.79a10.33,10.33,0,0,0-2.18-.27,5.33,5.33,0,0,0-4.13,2,7.18,7.18,0,0,0-1.71,4.89V319h-3V299h2.49l.34,3.69h.15a8.82,8.82,0,0,1,2.67-3A6,6,0,0,1,1562.7,298.68Z"/><path d="M1584.9,316.82a10,10,0,0,0,2.72-.36v2.31a6.24,6.24,0,0,1-1.44.39,11.23,11.23,0,0,1-1.72.15q-5.78,0-5.77-6.08V301.39h-2.86v-1.46l2.86-1.25,1.27-4.25h1.74V299h5.78v2.35h-5.78V313.1a4,4,0,0,0,.85,2.76A3,3,0,0,0,1584.9,316.82Z"/><path d="M1600,319.31a9.13,9.13,0,0,1-7-2.69,10.4,10.4,0,0,1-2.55-7.46,11.55,11.55,0,0,1,2.37-7.65,7.87,7.87,0,0,1,6.37-2.83,7.52,7.52,0,0,1,5.92,2.46,9.45,9.45,0,0,1,2.18,6.49v1.91h-13.72a7.93,7.93,0,0,0,1.78,5.32,6.12,6.12,0,0,0,4.73,1.82,15.93,15.93,0,0,0,6.35-1.35V318a15.83,15.83,0,0,1-3,1A17,17,0,0,1,1600,319.31Zm-.82-18.11a4.89,4.89,0,0,0-3.82,1.57,7.2,7.2,0,0,0-1.68,4.32h10.4a6.62,6.62,0,0,0-1.27-4.37A4.47,4.47,0,0,0,1599.19,301.2ZM1597,296c.58-.76,1.2-1.66,1.88-2.73a31.14,31.14,0,0,0,1.59-2.78h3.66v.38a26.34,26.34,0,0,1-2.37,2.91,27.21,27.21,0,0,1-2.75,2.67h-2Z"/><path d="M1621.55,298.68a11.48,11.48,0,0,1,2.38.22l-.42,2.79a10.33,10.33,0,0,0-2.18-.27,5.32,5.32,0,0,0-4.13,2,7.14,7.14,0,0,0-1.72,4.89V319h-3V299H1615l.34,3.69h.15a8.62,8.62,0,0,1,2.67-3A6,6,0,0,1,1621.55,298.68Z"/><path d="M1653,319V306a5.41,5.41,0,0,0-1-3.57,3.94,3.94,0,0,0-3.16-1.19,5.09,5.09,0,0,0-4.16,1.62,7.64,7.64,0,0,0-1.35,5V319h-3V306a5.36,5.36,0,0,0-1-3.57,4,4,0,0,0-3.18-1.19,4.93,4.93,0,0,0-4.15,1.7c-.88,1.13-1.31,3-1.31,5.57V319h-3V299h2.45l.49,2.73h.15a5.87,5.87,0,0,1,2.41-2.27,7.26,7.26,0,0,1,3.47-.82c3.12,0,5.15,1.13,6.11,3.38h.14a6.28,6.28,0,0,1,2.58-2.47,8,8,0,0,1,3.85-.91,6.77,6.77,0,0,1,5.06,1.73q1.68,1.74,1.68,5.55v13Z"/><path d="M1662,293.65a2,2,0,0,1,.5-1.52,1.8,1.8,0,0,1,1.28-.48,1.76,1.76,0,0,1,1.25.49,2.42,2.42,0,0,1,0,3,1.85,1.85,0,0,1-2.53,0A2.05,2.05,0,0,1,1662,293.65Zm3.27,25.3h-3V299h3Z"/><path d="M1685.28,319V306.07a5.19,5.19,0,0,0-1.11-3.63,4.51,4.51,0,0,0-3.47-1.2,5.7,5.7,0,0,0-4.57,1.69q-1.45,1.68-1.46,5.58V319h-3V299h2.45l.49,2.73h.15a6.13,6.13,0,0,1,2.59-2.28,8.47,8.47,0,0,1,3.73-.81,7.59,7.59,0,0,1,5.41,1.73q1.82,1.74,1.82,5.55v13Z"/><path d="M1711.67,309c0,3.24-.82,5.78-2.45,7.6a8.65,8.65,0,0,1-6.78,2.73,9,9,0,0,1-4.74-1.25,8.3,8.3,0,0,1-3.19-3.6,12.53,12.53,0,0,1-1.13-5.48q0-4.87,2.43-7.59a8.63,8.63,0,0,1,6.76-2.71,8.43,8.43,0,0,1,6.64,2.78A10.93,10.93,0,0,1,1711.67,309Zm-15.17,0a9.42,9.42,0,0,0,1.53,5.81,6.05,6.05,0,0,0,9,0,9.37,9.37,0,0,0,1.54-5.82,9.21,9.21,0,0,0-1.54-5.77,5.39,5.39,0,0,0-4.53-2,5.33,5.33,0,0,0-4.47,1.94A9.41,9.41,0,0,0,1696.5,309Z"/><path d="M1472.44,361.46a9.74,9.74,0,0,0,1.55-.12,12,12,0,0,0,1.18-.24v2.3a5.35,5.35,0,0,1-1.45.39,10,10,0,0,1-1.71.16q-5.77,0-5.78-6.09V346h-2.85v-1.45l2.85-1.25,1.27-4.25h1.75v4.61H1475V346h-5.77v11.72a4,4,0,0,0,.85,2.76A3,3,0,0,0,1472.44,361.46Z"/><path d="M1478.89,338.28a2,2,0,0,1,.51-1.51,1.78,1.78,0,0,1,1.27-.48,1.74,1.74,0,0,1,1.25.49,1.92,1.92,0,0,1,.53,1.5,2,2,0,0,1-.53,1.52,1.84,1.84,0,0,1-2.52,0A2,2,0,0,1,1478.89,338.28Zm3.27,25.3h-3v-19.9h3Z"/><path d="M1497,364a9.14,9.14,0,0,1-7-2.69q-2.55-2.68-2.55-7.47a11.54,11.54,0,0,1,2.37-7.64,7.86,7.86,0,0,1,6.36-2.83,7.49,7.49,0,0,1,5.92,2.46,9.39,9.39,0,0,1,2.18,6.49v1.91h-13.71a7.89,7.89,0,0,0,1.77,5.32,6.13,6.13,0,0,0,4.73,1.81,16,16,0,0,0,6.36-1.34v2.69a16.06,16.06,0,0,1-3,1A17.09,17.09,0,0,1,1497,364Zm-.81-18.11a4.94,4.94,0,0,0-3.83,1.56,7.2,7.2,0,0,0-1.68,4.32h10.41a6.59,6.59,0,0,0-1.27-4.36A4.45,4.45,0,0,0,1496.15,345.84Z"/><path d="M1523,363.58V350.71a5.17,5.17,0,0,0-1.1-3.63,4.52,4.52,0,0,0-3.47-1.2,5.71,5.71,0,0,0-4.58,1.69q-1.46,1.68-1.45,5.57v10.44h-3v-19.9h2.45l.49,2.72h.15a6.16,6.16,0,0,1,2.6-2.28,8.39,8.39,0,0,1,3.72-.8,7.53,7.53,0,0,1,5.41,1.73q1.82,1.74,1.82,5.55v13Z"/><path d="M1540.66,364a9.14,9.14,0,0,1-7-2.69,10.42,10.42,0,0,1-2.56-7.47,11.49,11.49,0,0,1,2.38-7.64,7.85,7.85,0,0,1,6.36-2.83,7.49,7.49,0,0,1,5.92,2.46,9.43,9.43,0,0,1,2.18,6.49v1.91h-13.71a7.89,7.89,0,0,0,1.77,5.32,6.13,6.13,0,0,0,4.73,1.81,16,16,0,0,0,6.36-1.34v2.69a16.14,16.14,0,0,1-3,1A16.91,16.91,0,0,1,1540.66,364Zm-.82-18.11a4.93,4.93,0,0,0-3.82,1.56,7.2,7.2,0,0,0-1.68,4.32h10.41a6.65,6.65,0,0,0-1.27-4.36A4.46,4.46,0,0,0,1539.84,345.84Z"/><path d="M1578.86,348.36q0,15.58-12.06,15.59a11.88,11.88,0,0,1-3.34-.37V361a10.77,10.77,0,0,0,3.3.47c2.91,0,5.1-.9,6.59-2.7s2.29-4.55,2.42-8.27h-.22a6.43,6.43,0,0,1-2.65,2.3,8.6,8.6,0,0,1-3.72.79,7.48,7.48,0,0,1-5.6-2.11,8,8,0,0,1-2.07-5.88,9,9,0,0,1,2.32-6.54,8.85,8.85,0,0,1,10.82-1,8.85,8.85,0,0,1,3.12,4A16.62,16.62,0,0,1,1578.86,348.36Zm-8.94-9.13a5,5,0,0,0-4,1.67,6.93,6.93,0,0,0-1.42,4.65,6.05,6.05,0,0,0,1.31,4.11,5,5,0,0,0,4,1.5,6.87,6.87,0,0,0,3-.67,5.57,5.57,0,0,0,2.19-1.83,4.28,4.28,0,0,0,.8-2.44,8.26,8.26,0,0,0-.75-3.52,6.1,6.1,0,0,0-2.08-2.54A5.22,5.22,0,0,0,1569.92,339.23Z"/><path d="M1603,364a8.56,8.56,0,0,1-3.55-.72,6.68,6.68,0,0,1-2.7-2.21h-.22a26,26,0,0,1,.22,3.31v8.19h-3V343.68h2.46l.41,2.72h.15a7,7,0,0,1,2.71-2.36,8.23,8.23,0,0,1,3.54-.72,7.37,7.37,0,0,1,6.11,2.7q2.15,2.72,2.15,7.59t-2.19,7.62A7.37,7.37,0,0,1,1603,364Zm-.44-18.07a5.33,5.33,0,0,0-4.41,1.69q-1.37,1.68-1.4,5.37v.67q0,4.2,1.4,6a5.32,5.32,0,0,0,4.48,1.8,4.64,4.64,0,0,0,4-2.09,9.85,9.85,0,0,0,1.47-5.75,9.51,9.51,0,0,0-1.47-5.72A4.8,4.8,0,0,0,1602.54,345.88Z"/><path d="M1628.75,363.58l-.6-2.83H1628a8.58,8.58,0,0,1-3,2.54,9.11,9.11,0,0,1-3.7.66,6.64,6.64,0,0,1-4.64-1.53,5.55,5.55,0,0,1-1.68-4.34q0-6,9.64-6.32l3.38-.11v-1.23a5,5,0,0,0-1-3.46,4.11,4.11,0,0,0-3.22-1.12,13.08,13.08,0,0,0-5.63,1.53l-.93-2.31a14.17,14.17,0,0,1,3.23-1.25,13.65,13.65,0,0,1,3.51-.46q3.55,0,5.28,1.58c1.14,1.06,1.71,2.74,1.71,5.07v13.58Zm-6.81-2.12a6.1,6.1,0,0,0,4.42-1.54,5.73,5.73,0,0,0,1.61-4.33v-1.8l-3,.13a11,11,0,0,0-5.18,1.12,3.37,3.37,0,0,0-1.59,3.08,3.11,3.11,0,0,0,1,2.49A4.1,4.1,0,0,0,1621.94,361.46Z"/><path d="M1640.21,363.58h-3V335.32h3Z"/><path d="M1646.35,338.28a2,2,0,0,1,.51-1.51,1.88,1.88,0,0,1,2.52,0,2,2,0,0,1,.53,1.5,2,2,0,0,1-.53,1.52,1.77,1.77,0,0,1-1.25.5,1.75,1.75,0,0,1-1.27-.5A2,2,0,0,1,1646.35,338.28Zm3.27,25.3h-3v-19.9h3Z"/><path d="M1662.44,361.46a9.61,9.61,0,0,0,1.54-.12c.5-.08.89-.16,1.19-.24v2.3a5.35,5.35,0,0,1-1.45.39,10.07,10.07,0,0,1-1.71.16c-3.86,0-5.78-2-5.78-6.09V346h-2.85v-1.45l2.85-1.25,1.27-4.25h1.74v4.61H1665V346h-5.78v11.72a4,4,0,0,0,.86,2.76A3,3,0,0,0,1662.44,361.46Z"/><path d="M1686.32,353.61c0,3.25-.81,5.78-2.45,7.6a8.6,8.6,0,0,1-6.77,2.74,9,9,0,0,1-4.74-1.25,8.32,8.32,0,0,1-3.2-3.6,12.54,12.54,0,0,1-1.12-5.49q0-4.86,2.43-7.58a8.6,8.6,0,0,1,6.76-2.71,8.41,8.41,0,0,1,6.63,2.77A11,11,0,0,1,1686.32,353.61Zm-15.16,0a9.52,9.52,0,0,0,1.52,5.82,6.07,6.07,0,0,0,9,0,9.4,9.4,0,0,0,1.53-5.82,9.24,9.24,0,0,0-1.53-5.76,5.4,5.4,0,0,0-4.54-2,5.28,5.28,0,0,0-4.46,1.94A9.33,9.33,0,0,0,1671.16,353.61Z"/><path d="M1704.45,358.15a5,5,0,0,1-2.07,4.29,9.7,9.7,0,0,1-5.81,1.51,12.73,12.73,0,0,1-6.18-1.25v-2.8a15.49,15.49,0,0,0,3.08,1.14,12.8,12.8,0,0,0,3.17.42,7.2,7.2,0,0,0,3.63-.75,2.61,2.61,0,0,0,.27-4.29,16.12,16.12,0,0,0-3.94-1.95,21.63,21.63,0,0,1-3.95-1.81,5.36,5.36,0,0,1-1.74-1.75,4.62,4.62,0,0,1-.57-2.35,4.47,4.47,0,0,1,2-3.84,9.21,9.21,0,0,1,5.43-1.4,15.88,15.88,0,0,1,6.28,1.3l-1.07,2.46a14.33,14.33,0,0,0-5.43-1.24,6.2,6.2,0,0,0-3.23.67,2.08,2.08,0,0,0-1.09,1.85,2.23,2.23,0,0,0,.41,1.37,4.11,4.11,0,0,0,1.31,1.07,29.42,29.42,0,0,0,3.49,1.47,13,13,0,0,1,4.79,2.6A4.55,4.55,0,0,1,1704.45,358.15Z"/></svg>