<svg id="Layer_1" data-name="Layer 1" xmlns="http://www.w3.org/2000/svg" viewBox="0 0 1299.33 379.33"><defs><style>.cls-1{fill:#d32a2a;}.cls-2{fill:#ffe2a1;}.cls-3{fill:#3a68ad;}</style></defs><title>Fosforos_U03_04_02</title><rect class="cls-1" x="1282.3" y="32.97" width="13.75" height="237.11"/><path class="cls-1" d="M1296.05,65.93H1282.3L1279,10.15A10.14,10.14,0,0,1,1289.18,0h0a10.15,10.15,0,0,1,10.15,10.15Z"/><rect class="cls-1" x="1140.93" y="144.65" width="13.75" height="237.11" transform="translate(1411.01 -884.6) rotate(90)"/><path class="cls-1" d="M1233.39,270.08V256.33l55.79-3.27a10.15,10.15,0,0,1,10.15,10.14h0a10.15,10.15,0,0,1-10.15,10.15Z"/><rect class="cls-2" x="1022.37" width="13.75" height="237.11" transform="translate(2058.49 237.11) rotate(180)"/><path class="cls-3" d="M1022.37,204.15h13.75l3.27,55.78a10.14,10.14,0,0,1-10.14,10.15h0a10.14,10.14,0,0,1-10.15-10.15Z"/><rect class="cls-2" x="881" y="-108.41" width="13.75" height="237.11" transform="translate(898.02 -877.72) rotate(90)"/><path class="cls-3" d="M973.46,17V3.27L1029.25,0a10.14,10.14,0,0,1,10.14,10.15h0a10.15,10.15,0,0,1-10.14,10.15Z"/><rect class="cls-2" x="769.32" y="32.97" width="13.75" height="237.11"/><path class="cls-3" d="M783.07,65.93H769.32L766,10.15A10.15,10.15,0,0,1,776.19,0h0a10.14,10.14,0,0,1,10.15,10.15Z"/><rect class="cls-2" x="627.94" y="144.65" width="13.75" height="237.11" transform="translate(898.02 -371.61) rotate(90)"/><path class="cls-3" d="M720.41,270.08V256.33l55.78-3.27a10.14,10.14,0,0,1,10.15,10.14h0a10.14,10.14,0,0,1-10.15,10.15Z"/><rect class="cls-2" x="3.27" y="32.97" width="13.75" height="237.11"/><path class="cls-3" d="M17,65.93H3.27L0,10.15A10.14,10.14,0,0,1,10.15,0h0A10.15,10.15,0,0,1,20.3,10.15Z"/><rect class="cls-2" x="509.39" y="0.02" width="13.75" height="237.11" transform="translate(1032.52 237.15) rotate(180)"/><path class="cls-3" d="M509.39,204.17h13.74L526.41,260a10.16,10.16,0,0,1-10.15,10.15h0A10.16,10.16,0,0,1,506.11,260Z"/><rect class="cls-2" x="368.01" y="-108.41" width="13.75" height="237.11" transform="translate(385.03 -364.74) rotate(90)"/><path class="cls-3" d="M460.48,17V3.27L516.26,0a10.15,10.15,0,0,1,10.15,10.15h0A10.16,10.16,0,0,1,516.26,20.3Z"/><rect class="cls-2" x="256.33" y="32.97" width="13.75" height="237.11"/><path class="cls-3" d="M270.08,65.93H256.33l-3.27-55.78A10.14,10.14,0,0,1,263.2,0h0a10.14,10.14,0,0,1,10.15,10.15Z"/><rect class="cls-2" x="114.96" y="144.65" width="13.75" height="237.11" transform="translate(385.03 141.37) rotate(90)"/><path class="cls-3" d="M207.42,270.08V256.33l55.78-3.27a10.14,10.14,0,0,1,10.15,10.14h0a10.14,10.14,0,0,1-10.15,10.15Z"/><path d="M540,318.69a6.51,6.51,0,0,1-2.55,5.47,11,11,0,0,1-6.9,2,17.27,17.27,0,0,1-7.26-1.21v-3a19.65,19.65,0,0,0,7.37,1.49,7.7,7.7,0,0,0,4.65-1.17,3.85,3.85,0,0,0,1.56-3.26,4.22,4.22,0,0,0-.55-2.27,5.29,5.29,0,0,0-1.85-1.62,26.12,26.12,0,0,0-3.95-1.69,12.61,12.61,0,0,1-5.3-3.14,6.93,6.93,0,0,1-1.59-4.74,5.89,5.89,0,0,1,2.31-4.89,9.59,9.59,0,0,1,6.1-1.81,17.93,17.93,0,0,1,7.28,1.45l-1,2.69a16.44,16.44,0,0,0-6.39-1.38,6.18,6.18,0,0,0-3.83,1.05,3.47,3.47,0,0,0-1.38,2.92,4.56,4.56,0,0,0,.5,2.26,4.83,4.83,0,0,0,1.72,1.62,22,22,0,0,0,3.7,1.63,14.77,14.77,0,0,1,5.75,3.19A6.33,6.33,0,0,1,540,318.69Z"/><path d="M553.34,326.12a9.14,9.14,0,0,1-7-2.68,10.43,10.43,0,0,1-2.56-7.47,11.55,11.55,0,0,1,2.38-7.65,7.89,7.89,0,0,1,6.36-2.83,7.49,7.49,0,0,1,5.92,2.46,9.4,9.4,0,0,1,2.18,6.49v1.91H547a7.88,7.88,0,0,0,1.77,5.32,6.1,6.1,0,0,0,4.73,1.82,16.18,16.18,0,0,0,6.36-1.34v2.68a16.14,16.14,0,0,1-3,1A16.91,16.91,0,0,1,553.34,326.12Zm-.81-18.1a4.94,4.94,0,0,0-3.83,1.56A7.2,7.2,0,0,0,547,313.9h10.41a6.68,6.68,0,0,0-1.27-4.37A4.48,4.48,0,0,0,552.53,308Z"/><path d="M582.09,305.85v1.91l-3.68.44a6,6,0,0,1,.9,1.66,6.27,6.27,0,0,1,.4,2.32,5.88,5.88,0,0,1-2,4.66,8.09,8.09,0,0,1-5.49,1.75,8.87,8.87,0,0,1-1.67-.15,3,3,0,0,0-1.93,2.56,1.3,1.3,0,0,0,.68,1.21,4.86,4.86,0,0,0,2.3.39h3.53a7.85,7.85,0,0,1,5,1.36,4.73,4.73,0,0,1,1.74,4,5.65,5.65,0,0,1-2.65,5q-2.66,1.74-7.74,1.74a10.56,10.56,0,0,1-6-1.46,4.69,4.69,0,0,1-2.12-4.1,4.58,4.58,0,0,1,1.17-3.14,5.82,5.82,0,0,1,3.27-1.8,3.23,3.23,0,0,1-1.29-1.07,2.88,2.88,0,0,1-.51-1.69,3.2,3.2,0,0,1,.58-1.91,6.28,6.28,0,0,1,1.83-1.58,5.28,5.28,0,0,1-2.51-2.16,6.34,6.34,0,0,1-1-3.49,6.43,6.43,0,0,1,2-5,8,8,0,0,1,5.55-1.77,10.21,10.21,0,0,1,2.82.36ZM566.22,329.1a2.68,2.68,0,0,0,1.36,2.45,7.5,7.5,0,0,0,3.91.84,10.86,10.86,0,0,0,5.62-1.14,3.47,3.47,0,0,0,1.82-3.07,2.44,2.44,0,0,0-1-2.25,7.86,7.86,0,0,0-3.76-.62h-3.61a4.75,4.75,0,0,0-3.2,1A3.5,3.5,0,0,0,566.22,329.1Zm1.63-16.87a4.07,4.07,0,0,0,1.18,3.16,4.75,4.75,0,0,0,3.29,1.07c2.94,0,4.42-1.43,4.42-4.28,0-3-1.49-4.49-4.47-4.49a4.43,4.43,0,0,0-3.27,1.14A4.64,4.64,0,0,0,567.85,312.23Z"/><path d="M589,305.85v12.92a5.19,5.19,0,0,0,1.11,3.63,4.52,4.52,0,0,0,3.47,1.2,5.66,5.66,0,0,0,4.57-1.71c1-1.14,1.44-3,1.44-5.57V305.85h3v19.91h-2.49l-.44-2.67h-.16a6.05,6.05,0,0,1-2.57,2.25,8.67,8.67,0,0,1-3.75.78c-2.42,0-4.24-.57-5.44-1.72s-1.81-3-1.81-5.52v-13Z"/><path d="M622.63,325.76V312.88a5.19,5.19,0,0,0-1.11-3.63,4.48,4.48,0,0,0-3.46-1.2,5.74,5.74,0,0,0-4.58,1.69q-1.46,1.69-1.45,5.58v10.44h-3V305.85h2.45l.49,2.73h.15a6.19,6.19,0,0,1,2.59-2.28,8.47,8.47,0,0,1,3.73-.81,7.53,7.53,0,0,1,5.41,1.74q1.81,1.72,1.82,5.54v13Z"/><path d="M645.39,323.09h-.16a7.1,7.1,0,0,1-6.25,3,7.4,7.4,0,0,1-6.08-2.67c-1.44-1.78-2.17-4.31-2.17-7.59s.73-5.83,2.18-7.64a7.33,7.33,0,0,1,6.07-2.73,7.24,7.24,0,0,1,6.21,2.94h.24L645.3,307l-.07-1.4v-8.1h3v28.26h-2.45Zm-6,.51a5.5,5.5,0,0,0,4.48-1.68c.92-1.12,1.39-2.93,1.39-5.42v-.64q0-4.23-1.41-6a5.37,5.37,0,0,0-4.5-1.8,4.6,4.6,0,0,0-4.06,2.06,10.3,10.3,0,0,0-1.4,5.82,9.87,9.87,0,0,0,1.39,5.76A4.76,4.76,0,0,0,639.36,323.6Z"/><path d="M671.82,315.79c0,3.24-.82,5.78-2.46,7.6a8.63,8.63,0,0,1-6.77,2.73,8.93,8.93,0,0,1-4.74-1.25,8.27,8.27,0,0,1-3.2-3.6,12.53,12.53,0,0,1-1.12-5.48c0-3.25.81-5.77,2.43-7.58a8.6,8.6,0,0,1,6.76-2.72,8.42,8.42,0,0,1,6.63,2.78A10.89,10.89,0,0,1,671.82,315.79Zm-15.17,0a9.42,9.42,0,0,0,1.53,5.81,6.05,6.05,0,0,0,9,0,9.44,9.44,0,0,0,1.53-5.82,9.29,9.29,0,0,0-1.53-5.77,5.42,5.42,0,0,0-4.53-2,5.29,5.29,0,0,0-4.47,1.95Q656.65,311.94,656.65,315.79Z"/><path d="M693.19,323.64a9.74,9.74,0,0,0,1.55-.12,9.34,9.34,0,0,0,1.18-.25v2.31a5.35,5.35,0,0,1-1.45.39,11,11,0,0,1-1.71.15c-3.85,0-5.78-2-5.78-6.08V308.2h-2.85v-1.46l2.85-1.25,1.27-4.25H690v4.61h5.77v2.35H690v11.71a4,4,0,0,0,.85,2.76A3,3,0,0,0,693.19,323.64Z"/><path d="M708.3,326.12a9.14,9.14,0,0,1-7-2.68,10.43,10.43,0,0,1-2.55-7.47,11.55,11.55,0,0,1,2.37-7.65,7.89,7.89,0,0,1,6.36-2.83,7.49,7.49,0,0,1,5.92,2.46,9.4,9.4,0,0,1,2.18,6.49v1.91H701.91a7.88,7.88,0,0,0,1.77,5.32,6.1,6.1,0,0,0,4.73,1.82,16.14,16.14,0,0,0,6.36-1.34v2.68a16.06,16.06,0,0,1-3,1A17,17,0,0,1,708.3,326.12Zm-.81-18.1a4.94,4.94,0,0,0-3.83,1.56A7.2,7.2,0,0,0,702,313.9h10.41a6.62,6.62,0,0,0-1.27-4.37A4.48,4.48,0,0,0,707.49,308Zm-2.24-5.25c.58-.75,1.21-1.66,1.88-2.73a28.84,28.84,0,0,0,1.59-2.78h3.67v.39a27.66,27.66,0,0,1-2.38,2.9,27.26,27.26,0,0,1-2.74,2.67h-2Z"/><path d="M729.84,305.49a11.41,11.41,0,0,1,2.38.22l-.41,2.8a9.85,9.85,0,0,0-2.18-.28,5.35,5.35,0,0,0-4.14,2,7.18,7.18,0,0,0-1.71,4.89v10.68h-3V305.85h2.49l.35,3.69h.14a8.92,8.92,0,0,1,2.67-3A6,6,0,0,1,729.84,305.49Z"/><path d="M761.32,325.76V312.81a5.36,5.36,0,0,0-1-3.57,3.94,3.94,0,0,0-3.16-1.19,5.11,5.11,0,0,0-4.16,1.62,7.72,7.72,0,0,0-1.34,5v11.11h-3V312.81a5.36,5.36,0,0,0-1-3.57,4,4,0,0,0-3.18-1.19,4.93,4.93,0,0,0-4.15,1.7q-1.32,1.69-1.32,5.57v10.44h-3V305.85h2.45l.49,2.73H739a5.93,5.93,0,0,1,2.41-2.27,7.32,7.32,0,0,1,3.48-.82c3.11,0,5.15,1.13,6.1,3.38h.15a6.34,6.34,0,0,1,2.58-2.47,7.94,7.94,0,0,1,3.85-.91,6.7,6.7,0,0,1,5,1.74c1.12,1.15,1.69,3,1.69,5.54v13Z"/><path d="M770.29,300.46a2,2,0,0,1,.51-1.52,1.78,1.78,0,0,1,1.27-.48,1.83,1.83,0,0,1,1.26.49,2,2,0,0,1,.52,1.51,2,2,0,0,1-.52,1.52,1.79,1.79,0,0,1-1.26.5,1.75,1.75,0,0,1-1.27-.5A2.05,2.05,0,0,1,770.29,300.46Zm3.27,25.3h-3V305.85h3Z"/><path d="M793.58,325.76V312.88a5.19,5.19,0,0,0-1.11-3.63,4.52,4.52,0,0,0-3.47-1.2,5.75,5.75,0,0,0-4.58,1.69q-1.45,1.69-1.45,5.58v10.44h-3V305.85h2.45l.49,2.73H783a6.22,6.22,0,0,1,2.6-2.28,8.39,8.39,0,0,1,3.72-.81,7.58,7.58,0,0,1,5.42,1.74q1.82,1.72,1.81,5.54v13Z"/><path d="M820,315.79c0,3.24-.82,5.78-2.46,7.6a8.63,8.63,0,0,1-6.77,2.73,8.93,8.93,0,0,1-4.74-1.25,8.27,8.27,0,0,1-3.2-3.6,12.53,12.53,0,0,1-1.12-5.48c0-3.25.81-5.77,2.43-7.58a8.62,8.62,0,0,1,6.76-2.72,8.45,8.45,0,0,1,6.64,2.78A10.93,10.93,0,0,1,820,315.79Zm-15.17,0a9.42,9.42,0,0,0,1.53,5.81,6.05,6.05,0,0,0,9,0,9.44,9.44,0,0,0,1.53-5.82,9.29,9.29,0,0,0-1.53-5.77,5.42,5.42,0,0,0-4.53-2,5.29,5.29,0,0,0-4.47,1.95Q804.8,311.94,804.8,315.79Z"/><path d="M549,368.27a9.61,9.61,0,0,0,1.54-.12,11.37,11.37,0,0,0,1.18-.24v2.3a5.47,5.47,0,0,1-1.44.4,11.12,11.12,0,0,1-1.72.15q-5.77,0-5.77-6.08V352.83H540v-1.45l2.85-1.25,1.27-4.25h1.74v4.61h5.78v2.34h-5.78v11.72a4,4,0,0,0,.86,2.76A3,3,0,0,0,549,368.27Z"/><path d="M555.46,345.1a2,2,0,0,1,.51-1.52,1.88,1.88,0,0,1,2.52,0,2.42,2.42,0,0,1,0,3,1.73,1.73,0,0,1-1.25.5,1.71,1.71,0,0,1-1.27-.5A2,2,0,0,1,555.46,345.1Zm3.27,25.3h-3V350.49h3Z"/><path d="M573.53,370.76a9.18,9.18,0,0,1-7-2.69,10.4,10.4,0,0,1-2.55-7.46,11.55,11.55,0,0,1,2.37-7.65,7.87,7.87,0,0,1,6.37-2.83,7.51,7.51,0,0,1,5.92,2.46,9.43,9.43,0,0,1,2.18,6.49V361H567.14a7.88,7.88,0,0,0,1.77,5.32,6.12,6.12,0,0,0,4.73,1.82,16,16,0,0,0,6.36-1.35v2.69a16.14,16.14,0,0,1-3,1A17,17,0,0,1,573.53,370.76Zm-.82-18.11a4.92,4.92,0,0,0-3.82,1.56,7.25,7.25,0,0,0-1.68,4.33h10.41a6.62,6.62,0,0,0-1.28-4.37A4.46,4.46,0,0,0,572.71,352.65Z"/><path d="M599.61,370.4V357.52a5.19,5.19,0,0,0-1.11-3.63,4.51,4.51,0,0,0-3.47-1.2,5.7,5.7,0,0,0-4.57,1.69Q589,356.06,589,360V370.4h-3V350.49h2.45l.49,2.72h.15a6.13,6.13,0,0,1,2.59-2.28,8.6,8.6,0,0,1,3.73-.8,7.55,7.55,0,0,1,5.41,1.73q1.82,1.74,1.82,5.55v13Z"/><path d="M617.23,370.76a9.17,9.17,0,0,1-7-2.69,10.4,10.4,0,0,1-2.55-7.46,11.55,11.55,0,0,1,2.37-7.65,7.87,7.87,0,0,1,6.37-2.83,7.52,7.52,0,0,1,5.92,2.46,9.43,9.43,0,0,1,2.18,6.49V361H610.84a7.88,7.88,0,0,0,1.77,5.32,6.12,6.12,0,0,0,4.73,1.82,15.93,15.93,0,0,0,6.35-1.35v2.69a15.83,15.83,0,0,1-3,1A17,17,0,0,1,617.23,370.76Zm-.82-18.11a4.92,4.92,0,0,0-3.82,1.56,7.25,7.25,0,0,0-1.68,4.33h10.4a6.62,6.62,0,0,0-1.27-4.37A4.47,4.47,0,0,0,616.41,352.65Z"/><path d="M649.14,370.4H646.2V351.47c0-1.57,0-3.06.14-4.47-.25.26-.54.52-.85.8s-1.76,1.46-4.32,3.54l-1.6-2.07,7-5.43h2.54Z"/><path d="M670.41,370.4h-2.94V351.47c0-1.57,0-3.06.14-4.47-.25.26-.54.52-.85.8s-1.76,1.46-4.32,3.54l-1.6-2.07,7-5.43h2.54Z"/><path d="M700.81,370.76a8.6,8.6,0,0,1-3.55-.72,6.74,6.74,0,0,1-2.7-2.2h-.21a27.59,27.59,0,0,1,.21,3.3v8.19h-3V350.49H694l.42,2.72h.14a7.08,7.08,0,0,1,2.71-2.36,8.29,8.29,0,0,1,3.54-.72,7.35,7.35,0,0,1,6.11,2.7q2.16,2.71,2.16,7.6T706.89,368A7.39,7.39,0,0,1,700.81,370.76Zm-.43-18.07a5.34,5.34,0,0,0-4.42,1.69c-.91,1.12-1.37,2.92-1.4,5.37v.68q0,4.19,1.4,6a5.34,5.34,0,0,0,4.49,1.81,4.66,4.66,0,0,0,4-2.09,10,10,0,0,0,1.46-5.76,9.55,9.55,0,0,0-1.46-5.71A4.8,4.8,0,0,0,700.38,352.69Z"/><path d="M726.58,370.4l-.59-2.84h-.15a8.41,8.41,0,0,1-3,2.54,9.11,9.11,0,0,1-3.7.66,6.64,6.64,0,0,1-4.64-1.53,5.55,5.55,0,0,1-1.68-4.34q0-6,9.65-6.32l3.38-.11v-1.23a5.05,5.05,0,0,0-1-3.46,4.14,4.14,0,0,0-3.23-1.12,13.16,13.16,0,0,0-5.63,1.53l-.92-2.31a14.61,14.61,0,0,1,6.74-1.71q3.55,0,5.27,1.58t1.72,5.07V370.4Zm-6.81-2.13a6.13,6.13,0,0,0,4.43-1.54,5.72,5.72,0,0,0,1.6-4.33v-1.79l-3,.12a11,11,0,0,0-5.19,1.12,3.37,3.37,0,0,0-1.59,3.08,3.11,3.11,0,0,0,1,2.49A4.12,4.12,0,0,0,719.77,368.27Z"/><path d="M738,370.4h-3V342.14h3Z"/><path d="M744.18,345.1a2,2,0,0,1,.51-1.52,1.79,1.79,0,0,1,1.27-.48,1.77,1.77,0,0,1,1.26.49,2.45,2.45,0,0,1,0,3,1.85,1.85,0,0,1-2.53,0A2,2,0,0,1,744.18,345.1Zm3.27,25.3h-3V350.49h3Z"/><path d="M760.28,368.27a9.7,9.7,0,0,0,1.54-.12,11.37,11.37,0,0,0,1.18-.24v2.3a5.71,5.71,0,0,1-1.44.4,11.23,11.23,0,0,1-1.72.15q-5.77,0-5.78-6.08V352.83h-2.85v-1.45l2.85-1.25,1.28-4.25h1.74v4.61h5.77v2.34h-5.77v11.72a4,4,0,0,0,.85,2.76A3,3,0,0,0,760.28,368.27Z"/><path d="M784.16,360.43q0,4.86-2.45,7.6a8.66,8.66,0,0,1-6.78,2.73,9,9,0,0,1-4.74-1.25,8.3,8.3,0,0,1-3.19-3.6,12.39,12.39,0,0,1-1.13-5.48q0-4.87,2.43-7.59a8.63,8.63,0,0,1,6.76-2.71,8.39,8.39,0,0,1,6.64,2.78A10.93,10.93,0,0,1,784.16,360.43Zm-15.17,0a9.42,9.42,0,0,0,1.53,5.81,6.05,6.05,0,0,0,9,0,9.43,9.43,0,0,0,1.54-5.82,9.25,9.25,0,0,0-1.54-5.77,6.16,6.16,0,0,0-9,0A9.41,9.41,0,0,0,769,360.43Z"/><path d="M802.29,365a5,5,0,0,1-2.07,4.28,9.71,9.71,0,0,1-5.82,1.51,12.66,12.66,0,0,1-6.17-1.25v-2.8a14.48,14.48,0,0,0,3.08,1.14,12.74,12.74,0,0,0,3.17.42,7.22,7.22,0,0,0,3.63-.75,2.6,2.6,0,0,0,.26-4.29,15.81,15.81,0,0,0-3.93-2,21,21,0,0,1-4-1.81,5.36,5.36,0,0,1-1.74-1.75,4.82,4.82,0,0,1,1.4-6.19,9.29,9.29,0,0,1,5.43-1.4,15.93,15.93,0,0,1,6.29,1.3l-1.07,2.46a14.33,14.33,0,0,0-5.43-1.24,6.37,6.37,0,0,0-3.24.67,2.1,2.1,0,0,0-1.09,1.86,2.28,2.28,0,0,0,.41,1.36,4.05,4.05,0,0,0,1.32,1.07,28.67,28.67,0,0,0,3.49,1.47,13,13,0,0,1,4.78,2.6A4.59,4.59,0,0,1,802.29,365Z"/></svg>