<svg id="Layer_1" data-name="Layer 1" xmlns="http://www.w3.org/2000/svg" viewBox="0 0 2420.51 382.32"><defs><style>.cls-1{fill:#d32a2a;}.cls-2{fill:#ffe2a1;}.cls-3{fill:#3a68ad;}</style></defs><title>Fosforos_U02_05</title><rect class="cls-1" x="2403.48" width="13.75" height="237.11" transform="translate(4820.72 237.11) rotate(180)"/><path class="cls-1" d="M2403.48,204.15h13.75l3.28,55.78a10.15,10.15,0,0,1-10.15,10.15h0a10.14,10.14,0,0,1-10.15-10.15Z"/><rect class="cls-1" x="2262.11" y="-108.41" width="13.75" height="237.11" transform="translate(2279.13 -2258.84) rotate(90)"/><path class="cls-1" d="M2354.58,17V3.27L2410.36,0a10.15,10.15,0,0,1,10.15,10.15h0a10.16,10.16,0,0,1-10.15,10.15Z"/><rect class="cls-1" x="2150.43" y="32.97" width="13.75" height="237.11"/><path class="cls-1" d="M2164.18,65.93h-13.75l-3.27-55.78A10.14,10.14,0,0,1,2157.3,0h0a10.14,10.14,0,0,1,10.15,10.15Z"/><rect class="cls-2" x="2009.06" y="144.65" width="13.75" height="237.11" transform="translate(2279.13 -1752.73) rotate(90)"/><path class="cls-3" d="M2101.52,270.08V256.33l55.78-3.27a10.14,10.14,0,0,1,10.15,10.14h0a10.14,10.14,0,0,1-10.15,10.15Z"/><rect class="cls-2" x="1384.39" y="32.97" width="13.75" height="237.11"/><path class="cls-3" d="M1398.14,65.93h-13.75l-3.28-55.78A10.15,10.15,0,0,1,1391.26,0h0a10.14,10.14,0,0,1,10.15,10.15Z"/><rect class="cls-2" x="1890.5" y="0.02" width="13.75" height="237.11" transform="translate(3794.75 237.15) rotate(180)"/><path class="cls-3" d="M1890.5,204.17h13.75l3.27,55.78a10.15,10.15,0,0,1-10.15,10.15h0A10.16,10.16,0,0,1,1887.22,260Z"/><rect class="cls-2" x="1749.12" y="-108.41" width="13.75" height="237.11" transform="translate(1766.15 -1745.85) rotate(90)"/><path class="cls-3" d="M1841.59,17V3.27L1897.37,0a10.14,10.14,0,0,1,10.15,10.15h0a10.15,10.15,0,0,1-10.15,10.15Z"/><rect class="cls-2" x="1637.44" y="32.97" width="13.75" height="237.11"/><path class="cls-3" d="M1651.19,65.93h-13.75l-3.27-55.78A10.14,10.14,0,0,1,1644.32,0h0a10.15,10.15,0,0,1,10.15,10.15Z"/><rect class="cls-2" x="1496.07" y="144.65" width="13.75" height="237.11" transform="translate(1766.15 -1239.74) rotate(90)"/><path class="cls-3" d="M1588.54,270.08V256.33l55.78-3.27a10.15,10.15,0,0,1,10.15,10.14h0a10.15,10.15,0,0,1-10.15,10.15Z"/><rect class="cls-1" x="1101.58" y="144.65" width="13.75" height="237.11" transform="translate(1371.66 -845.25) rotate(90)"/><path class="cls-1" d="M1194.05,270.08V256.33l55.78-3.27A10.14,10.14,0,0,1,1260,263.2h0a10.14,10.14,0,0,1-10.15,10.15Z"/><rect class="cls-2" x="476.91" y="32.97" width="13.75" height="237.11"/><path class="cls-3" d="M490.66,65.93H476.91l-3.27-55.78A10.14,10.14,0,0,1,483.79,0h0a10.15,10.15,0,0,1,10.15,10.15Z"/><rect class="cls-1" x="983.02" y="0.02" width="13.75" height="237.11" transform="translate(1979.8 237.15) rotate(180)"/><path class="cls-1" d="M983,204.17h13.75l3.28,55.78A10.16,10.16,0,0,1,989.9,270.1h0A10.15,10.15,0,0,1,979.75,260Z"/><rect class="cls-1" x="841.65" y="-108.41" width="13.75" height="237.11" transform="translate(858.67 -838.38) rotate(90)"/><path class="cls-1" d="M934.12,17V3.27L989.9,0a10.15,10.15,0,0,1,10.15,10.15h0A10.16,10.16,0,0,1,989.9,20.3Z"/><rect class="cls-2" x="729.97" y="32.97" width="13.75" height="237.11"/><path class="cls-3" d="M743.72,65.93H730L726.7,10.15A10.14,10.14,0,0,1,736.84,0h0A10.14,10.14,0,0,1,747,10.15Z"/><rect class="cls-2" x="588.6" y="144.65" width="13.75" height="237.11" transform="translate(858.68 -332.26) rotate(90)"/><path class="cls-3" d="M681.06,270.09V256.34l55.78-3.28A10.15,10.15,0,0,1,747,263.21h0a10.14,10.14,0,0,1-10.15,10.15Z"/><rect class="cls-2" x="3.27" y="32.97" width="13.75" height="237.11"/><path class="cls-3" d="M17,65.93H3.27L0,10.15A10.14,10.14,0,0,1,10.15,0h0A10.15,10.15,0,0,1,20.3,10.15Z"/><rect class="cls-2" x="256.33" y="32.97" width="13.75" height="237.11"/><path class="cls-3" d="M270.08,65.93H256.33l-3.27-55.78A10.14,10.14,0,0,1,263.2,0h0a10.14,10.14,0,0,1,10.15,10.15Z"/><rect class="cls-2" x="114.96" y="144.65" width="13.75" height="237.11" transform="translate(385.03 141.37) rotate(90)"/><path class="cls-3" d="M207.42,270.08V256.33l55.78-3.27a10.14,10.14,0,0,1,10.15,10.14h0a10.14,10.14,0,0,1-10.15,10.15Z"/><path d="M43.47,307a7.44,7.44,0,0,1-2.75,6.2c-1.84,1.45-4.46,2.17-7.88,2.17H29.72v10.44H26.63V299.28h6.88Q43.47,299.28,43.47,307Zm-13.75,5.72H32.5q4.09,0,5.94-1.33a4.89,4.89,0,0,0,1.83-4.25,4.58,4.58,0,0,0-1.72-3.92c-1.15-.86-2.95-1.29-5.38-1.29H29.72Z"/><path d="M57.65,305.56a12.13,12.13,0,0,1,2.38.22l-.42,2.8a10.33,10.33,0,0,0-2.18-.27,5.3,5.3,0,0,0-4.13,2,7.16,7.16,0,0,0-1.71,4.88v10.68h-3v-19.9h2.49l.34,3.68h.15a8.78,8.78,0,0,1,2.67-3A6,6,0,0,1,57.65,305.56Z"/><path d="M63.5,300.53A2,2,0,0,1,64,299a1.78,1.78,0,0,1,1.27-.48,1.74,1.74,0,0,1,1.25.49,2,2,0,0,1,.53,1.5,2,2,0,0,1-.53,1.52,1.84,1.84,0,0,1-2.52,0A2,2,0,0,1,63.5,300.53Zm3.27,25.3h-3v-19.9h3Z"/><path d="M98.54,325.83V312.88a5.34,5.34,0,0,0-1-3.56,3.91,3.91,0,0,0-3.16-1.19,5.09,5.09,0,0,0-4.16,1.61,7.67,7.67,0,0,0-1.34,5v11.11h-3V312.88a5.34,5.34,0,0,0-1-3.56,3.91,3.91,0,0,0-3.17-1.19,4.91,4.91,0,0,0-4.15,1.69c-.88,1.14-1.32,3-1.32,5.57v10.44h-3v-19.9h2.46l.49,2.72h.14a5.93,5.93,0,0,1,2.41-2.27,7.39,7.39,0,0,1,3.48-.82q4.67,0,6.1,3.38h.14A6.47,6.47,0,0,1,91,306.47a8.08,8.08,0,0,1,3.85-.91,6.74,6.74,0,0,1,5.06,1.74c1.12,1.16,1.68,3,1.68,5.55v13Z"/><path d="M116.17,326.2a9.14,9.14,0,0,1-7-2.69,10.42,10.42,0,0,1-2.56-7.47A11.49,11.49,0,0,1,109,308.4a7.85,7.85,0,0,1,6.36-2.84,7.48,7.48,0,0,1,5.92,2.47,9.43,9.43,0,0,1,2.18,6.49v1.91H109.78a7.89,7.89,0,0,0,1.77,5.32,6.13,6.13,0,0,0,4.73,1.81,16,16,0,0,0,6.36-1.34v2.69a16.14,16.14,0,0,1-3,1A16.91,16.91,0,0,1,116.17,326.2Zm-.82-18.11a4.93,4.93,0,0,0-3.82,1.56,7.2,7.2,0,0,0-1.68,4.32h10.41a6.65,6.65,0,0,0-1.27-4.36A4.46,4.46,0,0,0,115.35,308.09Z"/><path d="M137.71,305.56a12.13,12.13,0,0,1,2.38.22l-.42,2.8a10.33,10.33,0,0,0-2.18-.27,5.3,5.3,0,0,0-4.13,2,7.16,7.16,0,0,0-1.71,4.88v10.68h-3v-19.9h2.49l.34,3.68h.15a8.78,8.78,0,0,1,2.67-3A6,6,0,0,1,137.71,305.56Z"/><path d="M159.91,323.71a9.7,9.7,0,0,0,1.54-.12,11.37,11.37,0,0,0,1.18-.24v2.3a5.37,5.37,0,0,1-1.44.39,10.18,10.18,0,0,1-1.72.16q-5.78,0-5.77-6.09V308.27h-2.86v-1.45l2.86-1.26,1.27-4.25h1.74v4.62h5.78v2.34h-5.78V320a4.05,4.05,0,0,0,.85,2.76A3,3,0,0,0,159.91,323.71Z"/><path d="M175,326.2a9.17,9.17,0,0,1-7-2.69q-2.55-2.68-2.55-7.47a11.54,11.54,0,0,1,2.37-7.64,7.87,7.87,0,0,1,6.37-2.84,7.48,7.48,0,0,1,5.92,2.47,9.43,9.43,0,0,1,2.18,6.49v1.91H168.62a8,8,0,0,0,1.78,5.32,6.11,6.11,0,0,0,4.73,1.81,15.92,15.92,0,0,0,6.35-1.34v2.69a15.83,15.83,0,0,1-3,1A17,17,0,0,1,175,326.2Zm-.82-18.11a4.92,4.92,0,0,0-3.82,1.56A7.2,7.2,0,0,0,168.7,314h10.4a6.59,6.59,0,0,0-1.27-4.36A4.44,4.44,0,0,0,174.2,308.09ZM172,302.84c.58-.75,1.2-1.66,1.88-2.72s1.2-2,1.59-2.78h3.66v.38a33,33,0,0,1-5.12,5.57h-2Z"/><path d="M196.56,305.56a12.21,12.21,0,0,1,2.38.22l-.42,2.8a10.33,10.33,0,0,0-2.18-.27,5.29,5.29,0,0,0-4.13,2,7.12,7.12,0,0,0-1.72,4.88v10.68h-3v-19.9H190l.34,3.68h.15a8.58,8.58,0,0,1,2.67-3A6,6,0,0,1,196.56,305.56Z"/><path d="M228,325.83V312.88a5.34,5.34,0,0,0-1-3.56,3.91,3.91,0,0,0-3.16-1.19,5.08,5.08,0,0,0-4.16,1.61,7.67,7.67,0,0,0-1.35,5v11.11h-3V312.88a5.34,5.34,0,0,0-1-3.56,3.94,3.94,0,0,0-3.18-1.19,4.93,4.93,0,0,0-4.15,1.69c-.87,1.14-1.31,3-1.31,5.57v10.44h-3v-19.9h2.45l.49,2.72h.15a5.93,5.93,0,0,1,2.41-2.27,7.37,7.37,0,0,1,3.47-.82c3.12,0,5.15,1.13,6.11,3.38h.14a6.34,6.34,0,0,1,2.58-2.47,8.08,8.08,0,0,1,3.85-.91,6.74,6.74,0,0,1,5.06,1.74c1.12,1.16,1.68,3,1.68,5.55v13Z"/><path d="M237,300.53a2,2,0,0,1,.51-1.51,1.88,1.88,0,0,1,2.52,0,2,2,0,0,1,.53,1.5,2,2,0,0,1-.53,1.52,1.77,1.77,0,0,1-1.25.5,1.73,1.73,0,0,1-1.27-.5A2,2,0,0,1,237,300.53Zm3.27,25.3h-3v-19.9h3Z"/><path d="M260.29,325.83V313a5.2,5.2,0,0,0-1.11-3.64,4.5,4.5,0,0,0-3.47-1.19,5.73,5.73,0,0,0-4.57,1.68q-1.45,1.69-1.46,5.58v10.44h-3v-19.9h2.45l.49,2.72h.15a6.13,6.13,0,0,1,2.59-2.28,8.47,8.47,0,0,1,3.73-.81,7.55,7.55,0,0,1,5.41,1.74c1.21,1.16,1.82,3,1.82,5.55v13Z"/><path d="M286.68,315.86q0,4.88-2.45,7.6a8.62,8.62,0,0,1-6.78,2.74,8.93,8.93,0,0,1-4.74-1.26,8.22,8.22,0,0,1-3.19-3.59,12.54,12.54,0,0,1-1.13-5.49q0-4.86,2.43-7.58a8.63,8.63,0,0,1,6.76-2.72,8.43,8.43,0,0,1,6.64,2.78A11,11,0,0,1,286.68,315.86Zm-15.16,0a9.41,9.41,0,0,0,1.52,5.81,6.05,6.05,0,0,0,9,0,9.33,9.33,0,0,0,1.54-5.82A9.18,9.18,0,0,0,282,310.1a5.37,5.37,0,0,0-4.53-2,5.31,5.31,0,0,0-4.47,1.94A9.38,9.38,0,0,0,271.52,315.86Z"/><path d="M43.83,368.34a10.17,10.17,0,0,0,2.73-.36v2.31a5.35,5.35,0,0,1-1.45.39,11.12,11.12,0,0,1-1.72.15c-3.85,0-5.77-2-5.77-6.08V352.91H34.77v-1.46l2.85-1.25L38.89,346h1.74v4.61h5.78v2.35H40.63v11.71a4,4,0,0,0,.86,2.76A3,3,0,0,0,43.83,368.34Z"/><path d="M50.28,345.17a2,2,0,0,1,.51-1.52,1.88,1.88,0,0,1,2.52,0,2,2,0,0,1,.53,1.51,2,2,0,0,1-.53,1.52,1.77,1.77,0,0,1-1.25.5,1.75,1.75,0,0,1-1.27-.5A2.05,2.05,0,0,1,50.28,345.17Zm3.27,25.3h-3V350.56h3Z"/><path d="M68.35,370.83a9.11,9.11,0,0,1-7-2.69c-1.71-1.79-2.56-4.27-2.56-7.46A11.55,11.55,0,0,1,61.2,353a7.88,7.88,0,0,1,6.37-2.83,7.51,7.51,0,0,1,5.92,2.46,9.45,9.45,0,0,1,2.18,6.49v1.91H62a7.88,7.88,0,0,0,1.77,5.32,6.12,6.12,0,0,0,4.73,1.82,16.18,16.18,0,0,0,6.36-1.34v2.68a16.14,16.14,0,0,1-3,1A17,17,0,0,1,68.35,370.83Zm-.82-18.1a4.92,4.92,0,0,0-3.82,1.56A7.2,7.2,0,0,0,62,358.61H72.44a6.68,6.68,0,0,0-1.27-4.37A4.48,4.48,0,0,0,67.53,352.73Z"/><path d="M94.43,370.47V357.59A5.19,5.19,0,0,0,93.32,354a4.51,4.51,0,0,0-3.47-1.2,5.7,5.7,0,0,0-4.57,1.69q-1.45,1.69-1.46,5.58v10.44h-3V350.56h2.45l.49,2.73h.15A6.13,6.13,0,0,1,86.49,351a8.47,8.47,0,0,1,3.73-.81,7.58,7.58,0,0,1,5.41,1.73q1.82,1.74,1.82,5.55v13Z"/><path d="M112.05,370.83a9.13,9.13,0,0,1-7-2.69,10.39,10.39,0,0,1-2.55-7.46A11.55,11.55,0,0,1,104.9,353a7.87,7.87,0,0,1,6.37-2.83,7.51,7.51,0,0,1,5.92,2.46,9.45,9.45,0,0,1,2.18,6.49v1.91H105.66a7.88,7.88,0,0,0,1.77,5.32,6.12,6.12,0,0,0,4.73,1.82,16.09,16.09,0,0,0,6.35-1.34v2.68a15.83,15.83,0,0,1-3,1A17,17,0,0,1,112.05,370.83Zm-.82-18.1a4.92,4.92,0,0,0-3.82,1.56,7.2,7.2,0,0,0-1.68,4.32h10.41a6.62,6.62,0,0,0-1.28-4.37A4.45,4.45,0,0,0,111.23,352.73Z"/><path d="M149.25,350.16a6,6,0,0,1-1.43,4.16,7.11,7.11,0,0,1-4,2.16v.15a7.62,7.62,0,0,1,4.74,2,6,6,0,0,1,1.54,4.29,7,7,0,0,1-2.63,5.84q-2.64,2-7.48,2a20.92,20.92,0,0,1-3.86-.32,13.21,13.21,0,0,1-3.41-1.11v-2.87a16.73,16.73,0,0,0,3.68,1.3,17,17,0,0,0,3.7.44q6.87,0,6.88-5.39,0-4.83-7.59-4.83h-2.62v-2.6h2.65a8.06,8.06,0,0,0,4.93-1.37,4.5,4.5,0,0,0,1.81-3.81,3.75,3.75,0,0,0-1.33-3,5.5,5.5,0,0,0-3.63-1.11,10.93,10.93,0,0,0-3.28.48,14.43,14.43,0,0,0-3.53,1.74l-1.52-2a12.64,12.64,0,0,1,3.77-2,13.68,13.68,0,0,1,4.49-.73,9.18,9.18,0,0,1,6,1.77A6,6,0,0,1,149.25,350.16Z"/><path d="M174.36,370.83a8.79,8.79,0,0,1-3.55-.71,6.67,6.67,0,0,1-2.69-2.21h-.22a27.68,27.68,0,0,1,.22,3.3v8.2h-3V350.56h2.45l.42,2.73h.15a6.91,6.91,0,0,1,2.7-2.36,8.15,8.15,0,0,1,3.54-.73,7.37,7.37,0,0,1,6.12,2.71q2.15,2.7,2.15,7.59t-2.19,7.62A7.37,7.37,0,0,1,174.36,370.83Zm-.43-18.07a5.34,5.34,0,0,0-4.42,1.69c-.9,1.13-1.37,2.92-1.39,5.38v.67q0,4.2,1.39,6a5.32,5.32,0,0,0,4.49,1.81,4.66,4.66,0,0,0,4-2.09,9.86,9.86,0,0,0,1.46-5.76,9.5,9.5,0,0,0-1.46-5.71A4.78,4.78,0,0,0,173.93,352.76Z"/><path d="M200.14,370.47l-.6-2.83h-.15a8.37,8.37,0,0,1-3,2.53,9.06,9.06,0,0,1-3.69.66,6.67,6.67,0,0,1-4.64-1.52,5.58,5.58,0,0,1-1.68-4.34q0-6,9.64-6.32l3.38-.11V357.3a5.07,5.07,0,0,0-1-3.46,4.16,4.16,0,0,0-3.22-1.11,13.06,13.06,0,0,0-5.63,1.52l-.93-2.31a14.27,14.27,0,0,1,3.22-1.25,14.1,14.1,0,0,1,3.52-.45c2.37,0,4.13.52,5.27,1.58s1.72,2.74,1.72,5.06v13.59Zm-6.81-2.13a6.12,6.12,0,0,0,4.42-1.54,5.72,5.72,0,0,0,1.61-4.32v-1.8l-3,.13a10.86,10.86,0,0,0-5.18,1.11,3.37,3.37,0,0,0-1.59,3.08,3.11,3.11,0,0,0,1,2.49A4.1,4.1,0,0,0,193.33,368.34Z"/><path d="M211.6,370.47h-3V342.21h3Z"/><path d="M217.74,345.17a2,2,0,0,1,.5-1.52,1.8,1.8,0,0,1,1.28-.48,1.76,1.76,0,0,1,1.25.49,2,2,0,0,1,.53,1.51,2,2,0,0,1-.53,1.52,1.85,1.85,0,0,1-2.53,0A2.09,2.09,0,0,1,217.74,345.17Zm3.27,25.3h-3V350.56h3Z"/><path d="M233.83,368.34a9.63,9.63,0,0,0,1.54-.11,9,9,0,0,0,1.18-.25v2.31a5.26,5.26,0,0,1-1.44.39,11.23,11.23,0,0,1-1.72.15c-3.85,0-5.77-2-5.77-6.08V352.91h-2.86v-1.46l2.86-1.25,1.27-4.25h1.74v4.61h5.78v2.35h-5.78v11.71a4,4,0,0,0,.86,2.76A3,3,0,0,0,233.83,368.34Z"/><path d="M257.71,360.5c0,3.24-.82,5.78-2.45,7.6a8.63,8.63,0,0,1-6.77,2.73,9,9,0,0,1-4.75-1.25,8.25,8.25,0,0,1-3.19-3.6,12.53,12.53,0,0,1-1.13-5.48c0-3.25.81-5.77,2.44-7.58a8.6,8.6,0,0,1,6.75-2.72,8.43,8.43,0,0,1,6.64,2.78A10.93,10.93,0,0,1,257.71,360.5Zm-15.16,0a9.43,9.43,0,0,0,1.52,5.81,6.05,6.05,0,0,0,9,0,9.37,9.37,0,0,0,1.54-5.82,9.23,9.23,0,0,0-1.54-5.77,5.39,5.39,0,0,0-4.53-2,5.33,5.33,0,0,0-4.47,1.94A9.41,9.41,0,0,0,242.55,360.5Z"/><path d="M275.84,365a5,5,0,0,1-2.07,4.29,9.77,9.77,0,0,1-5.81,1.5,12.62,12.62,0,0,1-6.18-1.25v-2.8a14.71,14.71,0,0,0,3.08,1.15,12.72,12.72,0,0,0,3.17.41,7.22,7.22,0,0,0,3.63-.75,2.6,2.6,0,0,0,.26-4.29,15.81,15.81,0,0,0-3.93-1.95,21,21,0,0,1-3.95-1.81,5.27,5.27,0,0,1-1.74-1.75,4.56,4.56,0,0,1-.57-2.34,4.47,4.47,0,0,1,2-3.84,9.19,9.19,0,0,1,5.43-1.41,15.93,15.93,0,0,1,6.28,1.31L274.35,354a14.49,14.49,0,0,0-5.43-1.23,6.26,6.26,0,0,0-3.24.67,2.08,2.08,0,0,0-1.08,1.85,2.26,2.26,0,0,0,.4,1.36,4,4,0,0,0,1.32,1.07,29.42,29.42,0,0,0,3.49,1.47,13,13,0,0,1,4.78,2.6A4.59,4.59,0,0,1,275.84,365Z"/><path d="M748.73,318.77a6.51,6.51,0,0,1-2.55,5.47,11.05,11.05,0,0,1-6.9,2A17.25,17.25,0,0,1,732,325v-3a19.26,19.26,0,0,0,3.56,1.09,18.41,18.41,0,0,0,3.81.4,7.7,7.7,0,0,0,4.65-1.17,3.85,3.85,0,0,0,1.56-3.26,4.18,4.18,0,0,0-.55-2.26,5.21,5.21,0,0,0-1.85-1.63,27.19,27.19,0,0,0-4-1.69,12.61,12.61,0,0,1-5.3-3.14,6.93,6.93,0,0,1-1.59-4.74,5.92,5.92,0,0,1,2.31-4.89,9.59,9.59,0,0,1,6.1-1.81,18,18,0,0,1,7.29,1.45l-1,2.69a16.44,16.44,0,0,0-6.39-1.38,6.18,6.18,0,0,0-3.83,1,3.49,3.49,0,0,0-1.38,2.93,4.47,4.47,0,0,0,.51,2.26,4.8,4.8,0,0,0,1.71,1.62,21.36,21.36,0,0,0,3.7,1.62,14.64,14.64,0,0,1,5.75,3.2A6.31,6.31,0,0,1,748.73,318.77Z"/><path d="M762.11,326.2a9.14,9.14,0,0,1-7-2.69q-2.55-2.68-2.55-7.47A11.54,11.54,0,0,1,755,308.4a7.87,7.87,0,0,1,6.36-2.84,7.47,7.47,0,0,1,5.92,2.47,9.39,9.39,0,0,1,2.18,6.49v1.91H755.72a7.89,7.89,0,0,0,1.77,5.32,6.13,6.13,0,0,0,4.73,1.81,16,16,0,0,0,6.36-1.34v2.69a15.91,15.91,0,0,1-3,1A16.91,16.91,0,0,1,762.11,326.2Zm-.81-18.11a4.94,4.94,0,0,0-3.83,1.56,7.2,7.2,0,0,0-1.68,4.32H766.2a6.59,6.59,0,0,0-1.27-4.36A4.45,4.45,0,0,0,761.3,308.09Z"/><path d="M790.86,305.93v1.9l-3.68.44a6.41,6.41,0,0,1,.91,1.66,6.53,6.53,0,0,1,.39,2.32,5.9,5.9,0,0,1-2,4.67,8.09,8.09,0,0,1-5.49,1.74,8.87,8.87,0,0,1-1.67-.15,3,3,0,0,0-1.92,2.57,1.29,1.29,0,0,0,.67,1.2,4.89,4.89,0,0,0,2.3.39h3.53a7.9,7.9,0,0,1,5,1.37,4.72,4.72,0,0,1,1.73,3.95A5.66,5.66,0,0,1,788,333q-2.65,1.72-7.74,1.73a10.64,10.64,0,0,1-6-1.45,4.7,4.7,0,0,1-2.12-4.11,4.58,4.58,0,0,1,1.17-3.14,5.94,5.94,0,0,1,3.27-1.8,3.14,3.14,0,0,1-1.28-1.07,2.8,2.8,0,0,1-.52-1.69,3.2,3.2,0,0,1,.58-1.91,6.28,6.28,0,0,1,1.83-1.58,5.33,5.33,0,0,1-2.51-2.16,6.31,6.31,0,0,1-1-3.48,6.43,6.43,0,0,1,2-5,8,8,0,0,1,5.56-1.78,10.12,10.12,0,0,1,2.81.37ZM775,329.18a2.7,2.7,0,0,0,1.36,2.45,7.61,7.61,0,0,0,3.91.83,11,11,0,0,0,5.62-1.13,3.47,3.47,0,0,0,1.82-3.08,2.41,2.41,0,0,0-1-2.24,7.66,7.66,0,0,0-3.75-.63h-3.62a4.8,4.8,0,0,0-3.2,1A3.51,3.51,0,0,0,775,329.18Zm1.63-16.88a4,4,0,0,0,1.19,3.16,4.66,4.66,0,0,0,3.28,1.07c2.94,0,4.42-1.42,4.42-4.28s-1.49-4.49-4.47-4.49a4.39,4.39,0,0,0-3.27,1.15A4.6,4.6,0,0,0,776.62,312.3Z"/><path d="M797.78,305.93v12.91a5.19,5.19,0,0,0,1.11,3.63,4.52,4.52,0,0,0,3.47,1.2,5.66,5.66,0,0,0,4.57-1.71q1.44-1.69,1.44-5.57V305.93h3v19.9H808.9l-.44-2.67h-.16a6,6,0,0,1-2.57,2.26,8.67,8.67,0,0,1-3.75.78,7.61,7.61,0,0,1-5.44-1.73q-1.81-1.73-1.81-5.52v-13Z"/><path d="M831.4,325.83V313a5.2,5.2,0,0,0-1.11-3.64,4.48,4.48,0,0,0-3.46-1.19,5.74,5.74,0,0,0-4.58,1.68q-1.46,1.69-1.45,5.58v10.44h-3v-19.9h2.45l.49,2.72h.15a6.16,6.16,0,0,1,2.6-2.28,8.39,8.39,0,0,1,3.72-.81,7.53,7.53,0,0,1,5.41,1.74c1.21,1.16,1.82,3,1.82,5.55v13Z"/><path d="M854.16,323.16H854a7.09,7.09,0,0,1-6.25,3,7.41,7.41,0,0,1-6.08-2.67c-1.44-1.78-2.17-4.31-2.17-7.6s.73-5.82,2.18-7.64a7.35,7.35,0,0,1,6.07-2.73,7.24,7.24,0,0,1,6.21,2.95h.24l-.13-1.44-.07-1.4v-8.1h3v28.26h-2.45Zm-6,.51a5.5,5.5,0,0,0,4.48-1.68c.92-1.12,1.39-2.92,1.39-5.42v-.64q0-4.23-1.41-6a5.34,5.34,0,0,0-4.5-1.81,4.64,4.64,0,0,0-4.06,2.06,10.3,10.3,0,0,0-1.4,5.82,9.79,9.79,0,0,0,1.4,5.76A4.72,4.72,0,0,0,848.13,323.67Z"/><path d="M880.59,315.86q0,4.88-2.46,7.6a8.6,8.6,0,0,1-6.77,2.74,8.93,8.93,0,0,1-4.74-1.26,8.24,8.24,0,0,1-3.2-3.59,12.54,12.54,0,0,1-1.12-5.49q0-4.86,2.43-7.58a8.62,8.62,0,0,1,6.76-2.72,8.45,8.45,0,0,1,6.64,2.78A11,11,0,0,1,880.59,315.86Zm-15.17,0a9.4,9.4,0,0,0,1.53,5.81,5.26,5.26,0,0,0,4.48,2,5.33,5.33,0,0,0,4.5-2,9.4,9.4,0,0,0,1.53-5.82,9.24,9.24,0,0,0-1.53-5.76,5.39,5.39,0,0,0-4.53-2,5.28,5.28,0,0,0-4.47,1.94C865.92,311.36,865.42,313.3,865.42,315.86Z"/><path d="M902,323.71a9.74,9.74,0,0,0,1.55-.12,12,12,0,0,0,1.18-.24v2.3a5.35,5.35,0,0,1-1.45.39,10,10,0,0,1-1.71.16q-5.78,0-5.78-6.09V308.27H892.9v-1.45l2.85-1.26,1.27-4.25h1.75v4.62h5.77v2.34h-5.77V320a4.05,4.05,0,0,0,.85,2.76A3,3,0,0,0,902,323.71Z"/><path d="M917.07,326.2a9.14,9.14,0,0,1-7-2.69q-2.55-2.68-2.55-7.47a11.54,11.54,0,0,1,2.37-7.64,7.87,7.87,0,0,1,6.36-2.84,7.47,7.47,0,0,1,5.92,2.47,9.39,9.39,0,0,1,2.18,6.49v1.91H910.68a7.89,7.89,0,0,0,1.77,5.32,6.13,6.13,0,0,0,4.73,1.81,15.93,15.93,0,0,0,6.36-1.34v2.69a16.06,16.06,0,0,1-3,1A17,17,0,0,1,917.07,326.2Zm-.81-18.11a4.94,4.94,0,0,0-3.83,1.56,7.2,7.2,0,0,0-1.68,4.32h10.41a6.59,6.59,0,0,0-1.27-4.36A4.45,4.45,0,0,0,916.26,308.09ZM914,302.84c.58-.75,1.21-1.66,1.88-2.72a31.48,31.48,0,0,0,1.59-2.78h3.67v.38a25.52,25.52,0,0,1-2.38,2.9,26.19,26.19,0,0,1-2.74,2.67h-2Z"/><path d="M938.62,305.56a12.1,12.1,0,0,1,2.37.22l-.41,2.8a10.41,10.41,0,0,0-2.18-.27,5.29,5.29,0,0,0-4.13,2,7.12,7.12,0,0,0-1.72,4.88v10.68h-3v-19.9H932l.35,3.68h.14a8.78,8.78,0,0,1,2.67-3A6,6,0,0,1,938.62,305.56Z"/><path d="M970.09,325.83V312.88a5.34,5.34,0,0,0-1-3.56,3.9,3.9,0,0,0-3.16-1.19,5.11,5.11,0,0,0-4.16,1.61,7.73,7.73,0,0,0-1.34,5v11.11h-3V312.88a5.34,5.34,0,0,0-1-3.56,3.94,3.94,0,0,0-3.18-1.19,4.93,4.93,0,0,0-4.15,1.69c-.88,1.14-1.32,3-1.32,5.57v10.44h-3v-19.9h2.45l.49,2.72h.15a5.91,5.91,0,0,1,2.4-2.27,7.44,7.44,0,0,1,3.48-.82c3.11,0,5.15,1.13,6.1,3.38h.15a6.34,6.34,0,0,1,2.58-2.47,8,8,0,0,1,3.85-.91,6.74,6.74,0,0,1,5.06,1.74c1.12,1.16,1.68,3,1.68,5.55v13Z"/><path d="M979.06,300.53a2,2,0,0,1,.51-1.51,1.89,1.89,0,0,1,2.53,0,2,2,0,0,1,.52,1.5,2,2,0,0,1-.52,1.52,1.79,1.79,0,0,1-1.26.5,1.75,1.75,0,0,1-1.27-.5A2,2,0,0,1,979.06,300.53Zm3.27,25.3h-3v-19.9h3Z"/><path d="M1002.35,325.83V313a5.2,5.2,0,0,0-1.11-3.64,4.52,4.52,0,0,0-3.47-1.19,5.75,5.75,0,0,0-4.58,1.68q-1.46,1.69-1.45,5.58v10.44h-3v-19.9h2.45l.49,2.72h.14a6.22,6.22,0,0,1,2.6-2.28,8.42,8.42,0,0,1,3.72-.81,7.56,7.56,0,0,1,5.42,1.74c1.21,1.16,1.81,3,1.81,5.55v13Z"/><path d="M1028.74,315.86q0,4.88-2.45,7.6a8.64,8.64,0,0,1-6.78,2.74,8.93,8.93,0,0,1-4.74-1.26,8.24,8.24,0,0,1-3.2-3.59,12.54,12.54,0,0,1-1.12-5.49q0-4.86,2.43-7.58a8.62,8.62,0,0,1,6.76-2.72,8.44,8.44,0,0,1,6.64,2.78A11,11,0,0,1,1028.74,315.86Zm-15.17,0a9.4,9.4,0,0,0,1.53,5.81,5.26,5.26,0,0,0,4.48,2,5.32,5.32,0,0,0,4.5-2,9.4,9.4,0,0,0,1.53-5.82,9.24,9.24,0,0,0-1.53-5.76,5.37,5.37,0,0,0-4.53-2,5.28,5.28,0,0,0-4.47,1.94C1014.07,311.36,1013.57,313.3,1013.57,315.86Z"/><path d="M768.42,368.34a9.71,9.71,0,0,0,1.54-.11,9,9,0,0,0,1.18-.25v2.31a5.37,5.37,0,0,1-1.44.39,11.23,11.23,0,0,1-1.72.15c-3.85,0-5.78-2-5.78-6.08V352.91h-2.85v-1.46l2.85-1.25,1.28-4.25h1.74v4.61H771v2.35h-5.77v11.71a4,4,0,0,0,.85,2.76A3,3,0,0,0,768.42,368.34Z"/><path d="M774.86,345.17a2,2,0,0,1,.51-1.52,1.89,1.89,0,0,1,2.53,0,2,2,0,0,1,.52,1.51,2,2,0,0,1-.52,1.52,1.79,1.79,0,0,1-1.26.5,1.75,1.75,0,0,1-1.27-.5A2.05,2.05,0,0,1,774.86,345.17Zm3.27,25.3h-3V350.56h3Z"/><path d="M792.93,370.83a9.11,9.11,0,0,1-7-2.69,10.39,10.39,0,0,1-2.55-7.46,11.55,11.55,0,0,1,2.37-7.65,7.86,7.86,0,0,1,6.36-2.83,7.49,7.49,0,0,1,5.92,2.46,9.4,9.4,0,0,1,2.18,6.49v1.91H786.54a7.88,7.88,0,0,0,1.77,5.32A6.13,6.13,0,0,0,793,368.2a16.11,16.11,0,0,0,6.36-1.34v2.68a16.06,16.06,0,0,1-3,1A17,17,0,0,1,792.93,370.83Zm-.81-18.1a4.94,4.94,0,0,0-3.83,1.56,7.2,7.2,0,0,0-1.68,4.32H797a6.62,6.62,0,0,0-1.27-4.37A4.48,4.48,0,0,0,792.12,352.73Z"/><path d="M819,370.47V357.59a5.19,5.19,0,0,0-1.11-3.63,4.52,4.52,0,0,0-3.47-1.2,5.72,5.72,0,0,0-4.58,1.69q-1.46,1.69-1.45,5.58v10.44h-3V350.56h2.46l.49,2.73h.14a6.16,6.16,0,0,1,2.6-2.28,8.39,8.39,0,0,1,3.72-.81,7.58,7.58,0,0,1,5.41,1.73c1.22,1.16,1.82,3,1.82,5.55v13Z"/><path d="M836.63,370.83a9.11,9.11,0,0,1-7-2.69,10.39,10.39,0,0,1-2.55-7.46,11.55,11.55,0,0,1,2.37-7.65,7.86,7.86,0,0,1,6.36-2.83,7.49,7.49,0,0,1,5.92,2.46,9.4,9.4,0,0,1,2.18,6.49v1.91H830.24a7.88,7.88,0,0,0,1.77,5.32,6.13,6.13,0,0,0,4.73,1.82,16.14,16.14,0,0,0,6.36-1.34v2.68a15.91,15.91,0,0,1-3,1A16.91,16.91,0,0,1,836.63,370.83Zm-.81-18.1a4.94,4.94,0,0,0-3.83,1.56,7.2,7.2,0,0,0-1.68,4.32h10.41a6.62,6.62,0,0,0-1.27-4.37A4.48,4.48,0,0,0,835.82,352.73Z"/><path d="M857.68,359.12q0-7.83,3.05-11.71t9-3.87a12.06,12.06,0,0,1,3.23.34v2.6a10.13,10.13,0,0,0-3.2-.46,8.08,8.08,0,0,0-6.52,2.66q-2.25,2.67-2.47,8.37H861a7,7,0,0,1,6.32-3.13,7.44,7.44,0,0,1,5.64,2.16A8.19,8.19,0,0,1,875,362a9,9,0,0,1-2.26,6.51,8.06,8.06,0,0,1-6.11,2.37,7.86,7.86,0,0,1-6.54-3.09Q857.69,364.64,857.68,359.12Zm8.92,9.15a5.06,5.06,0,0,0,4-1.62A6.93,6.93,0,0,0,872,362a6.09,6.09,0,0,0-1.32-4.14,5,5,0,0,0-4-1.51,6.68,6.68,0,0,0-3,.68,5.45,5.45,0,0,0-2.17,1.85,4.27,4.27,0,0,0-.81,2.45,8.33,8.33,0,0,0,.73,3.49,6.16,6.16,0,0,0,2.06,2.56A5.12,5.12,0,0,0,866.6,368.27Z"/><path d="M899,370.83a8.72,8.72,0,0,1-3.55-.71,6.77,6.77,0,0,1-2.7-2.21h-.22a25.74,25.74,0,0,1,.22,3.3v8.2h-3V350.56h2.45l.42,2.73h.14a7,7,0,0,1,2.71-2.36,8.15,8.15,0,0,1,3.54-.73,7.33,7.33,0,0,1,6.11,2.71c1.44,1.8,2.15,4.33,2.15,7.59s-.73,5.81-2.19,7.62A7.36,7.36,0,0,1,899,370.83Zm-.44-18.07a5.33,5.33,0,0,0-4.41,1.69q-1.36,1.69-1.4,5.38v.67q0,4.2,1.4,6a5.31,5.31,0,0,0,4.49,1.81,4.69,4.69,0,0,0,4-2.09,9.93,9.93,0,0,0,1.46-5.76,9.57,9.57,0,0,0-1.46-5.71A4.81,4.81,0,0,0,898.51,352.76Z"/><path d="M924.72,370.47l-.6-2.83H924a8.54,8.54,0,0,1-3,2.53,9.11,9.11,0,0,1-3.7.66,6.68,6.68,0,0,1-4.64-1.52A5.58,5.58,0,0,1,911,365q0-6,9.64-6.32l3.38-.11V357.3a5.07,5.07,0,0,0-1-3.46,4.18,4.18,0,0,0-3.23-1.11,13.09,13.09,0,0,0-5.63,1.52l-.93-2.31a14.36,14.36,0,0,1,3.23-1.25,14.08,14.08,0,0,1,3.51-.45c2.38,0,4.13.52,5.28,1.58s1.72,2.74,1.72,5.06v13.59Zm-6.81-2.13a6.1,6.1,0,0,0,4.42-1.54,5.72,5.72,0,0,0,1.61-4.32v-1.8l-3,.13a10.94,10.94,0,0,0-5.19,1.11,3.37,3.37,0,0,0-1.59,3.08,3.11,3.11,0,0,0,1,2.49A4.1,4.1,0,0,0,917.91,368.34Z"/><path d="M936.18,370.47h-3V342.21h3Z"/><path d="M942.32,345.17a2,2,0,0,1,.51-1.52,1.88,1.88,0,0,1,2.52,0,2,2,0,0,1,.53,1.51,2,2,0,0,1-.53,1.52,1.77,1.77,0,0,1-1.25.5,1.75,1.75,0,0,1-1.27-.5A2.05,2.05,0,0,1,942.32,345.17Zm3.27,25.3h-3V350.56h3Z"/><path d="M958.41,368.34a9.75,9.75,0,0,0,1.55-.11,9.34,9.34,0,0,0,1.18-.25v2.31a5.35,5.35,0,0,1-1.45.39,11,11,0,0,1-1.71.15c-3.85,0-5.78-2-5.78-6.08V352.91h-2.85v-1.46l2.85-1.25,1.27-4.25h1.75v4.61H961v2.35h-5.77v11.71a4,4,0,0,0,.85,2.76A3,3,0,0,0,958.41,368.34Z"/><path d="M982.3,360.5c0,3.24-.82,5.78-2.46,7.6a8.63,8.63,0,0,1-6.77,2.73,8.93,8.93,0,0,1-4.74-1.25,8.27,8.27,0,0,1-3.2-3.6A12.53,12.53,0,0,1,964,360.5c0-3.25.81-5.77,2.43-7.58a8.6,8.6,0,0,1,6.76-2.72,8.42,8.42,0,0,1,6.63,2.78A10.89,10.89,0,0,1,982.3,360.5Zm-15.17,0a9.42,9.42,0,0,0,1.53,5.81,5.29,5.29,0,0,0,4.48,2,5.36,5.36,0,0,0,4.5-2,9.44,9.44,0,0,0,1.53-5.82,9.29,9.29,0,0,0-1.53-5.77,5.42,5.42,0,0,0-4.53-2,5.31,5.31,0,0,0-4.47,1.94Q967.13,356.65,967.13,360.5Z"/><path d="M1000.42,365a5,5,0,0,1-2.07,4.29,9.77,9.77,0,0,1-5.81,1.5,12.62,12.62,0,0,1-6.18-1.25v-2.8a14.92,14.92,0,0,0,3.08,1.15,12.84,12.84,0,0,0,3.17.41,7.17,7.17,0,0,0,3.63-.75,2.5,2.5,0,0,0,1.28-2.3,2.52,2.52,0,0,0-1-2,15.81,15.81,0,0,0-3.93-1.95,20.66,20.66,0,0,1-4-1.81,5.21,5.21,0,0,1-1.75-1.75,4.56,4.56,0,0,1-.57-2.34,4.47,4.47,0,0,1,2-3.84,9.21,9.21,0,0,1,5.43-1.41,15.89,15.89,0,0,1,6.28,1.31L998.93,354a14.45,14.45,0,0,0-5.43-1.23,6.22,6.22,0,0,0-3.23.67,2.07,2.07,0,0,0-1.09,1.85,2.26,2.26,0,0,0,.41,1.36,3.93,3.93,0,0,0,1.32,1.07,28.31,28.31,0,0,0,3.48,1.47,13.1,13.1,0,0,1,4.79,2.6A4.58,4.58,0,0,1,1000.42,365Z"/><path d="M1817.44,325.72h-3.09V301.9h-8.41v-2.74h19.91v2.74h-8.41Z"/><path d="M1837.8,326.08a9.17,9.17,0,0,1-7-2.69,10.4,10.4,0,0,1-2.55-7.46,11.55,11.55,0,0,1,2.37-7.65,7.87,7.87,0,0,1,6.37-2.83,7.51,7.51,0,0,1,5.92,2.46,9.43,9.43,0,0,1,2.18,6.49v1.91h-13.71a7.89,7.89,0,0,0,1.77,5.32,6.11,6.11,0,0,0,4.73,1.81,15.92,15.92,0,0,0,6.35-1.34v2.69a15.83,15.83,0,0,1-3,1A17,17,0,0,1,1837.8,326.08ZM1837,308a4.92,4.92,0,0,0-3.82,1.56,7.2,7.2,0,0,0-1.68,4.32h10.4a6.59,6.59,0,0,0-1.27-4.36A4.47,4.47,0,0,0,1837,308Z"/><path d="M1859.34,305.45a12.25,12.25,0,0,1,2.38.21l-.42,2.8a10.33,10.33,0,0,0-2.18-.27,5.29,5.29,0,0,0-4.13,2,7.14,7.14,0,0,0-1.72,4.89v10.68h-3V305.81h2.49l.34,3.69h.15a8.53,8.53,0,0,1,2.67-3A6,6,0,0,1,1859.34,305.45Z"/><path d="M1873.4,326.08a8.51,8.51,0,0,1-6.7-2.66q-2.37-2.67-2.37-7.53c0-3.33.81-5.9,2.41-7.72a8.65,8.65,0,0,1,6.86-2.72,14.06,14.06,0,0,1,2.87.3,9.72,9.72,0,0,1,2.25.73l-.93,2.56a14,14,0,0,0-2.18-.66,9.37,9.37,0,0,0-2.09-.26q-6.06,0-6.06,7.73a9.17,9.17,0,0,0,1.48,5.63,5.13,5.13,0,0,0,4.38,2,13.35,13.35,0,0,0,5.11-1.07V325A10.87,10.87,0,0,1,1873.4,326.08Z"/><path d="M1891.56,326.08a9.18,9.18,0,0,1-7-2.69,10.4,10.4,0,0,1-2.55-7.46,11.55,11.55,0,0,1,2.37-7.65,7.87,7.87,0,0,1,6.37-2.83,7.51,7.51,0,0,1,5.92,2.46,9.43,9.43,0,0,1,2.18,6.49v1.91h-13.71a7.89,7.89,0,0,0,1.77,5.32,6.11,6.11,0,0,0,4.73,1.81,15.92,15.92,0,0,0,6.35-1.34v2.69a15.83,15.83,0,0,1-3,1A17,17,0,0,1,1891.56,326.08Zm-.82-18.11a4.92,4.92,0,0,0-3.82,1.56,7.2,7.2,0,0,0-1.68,4.32h10.41a6.59,6.59,0,0,0-1.28-4.36A4.46,4.46,0,0,0,1890.74,308Z"/><path d="M1913.1,305.45a12.25,12.25,0,0,1,2.38.21l-.42,2.8a10.33,10.33,0,0,0-2.18-.27,5.29,5.29,0,0,0-4.13,2A7.19,7.19,0,0,0,1907,315v10.68h-3V305.81h2.49l.34,3.69h.15a8.73,8.73,0,0,1,2.67-3A6,6,0,0,1,1913.1,305.45Z"/><path d="M1935.29,323.59a9.74,9.74,0,0,0,1.55-.12,12,12,0,0,0,1.18-.24v2.3a5.35,5.35,0,0,1-1.45.39,10,10,0,0,1-1.71.16q-5.77,0-5.78-6.09V308.15h-2.85V306.7l2.85-1.25,1.27-4.25h1.75v4.61h5.77v2.34h-5.77v11.72a4,4,0,0,0,.85,2.76A3,3,0,0,0,1935.29,323.59Z"/><path d="M1950.41,326.08a9.15,9.15,0,0,1-7-2.69,10.4,10.4,0,0,1-2.55-7.46,11.55,11.55,0,0,1,2.37-7.65,7.86,7.86,0,0,1,6.36-2.83,7.53,7.53,0,0,1,5.93,2.46,9.43,9.43,0,0,1,2.17,6.49v1.91H1944a7.89,7.89,0,0,0,1.77,5.32,6.13,6.13,0,0,0,4.73,1.81,15.93,15.93,0,0,0,6.36-1.34v2.69a15.83,15.83,0,0,1-3,1A17,17,0,0,1,1950.41,326.08Zm-.82-18.11a4.92,4.92,0,0,0-3.82,1.56,7.14,7.14,0,0,0-1.69,4.32h10.41a6.59,6.59,0,0,0-1.27-4.36A4.48,4.48,0,0,0,1949.59,308Zm-2.24-5.25a32.86,32.86,0,0,0,1.88-2.72,28,28,0,0,0,1.59-2.78h3.67v.38a25.48,25.48,0,0,1-2.38,2.91,27.26,27.26,0,0,1-2.74,2.67h-2Z"/><path d="M1972,305.45a12.32,12.32,0,0,1,2.38.21l-.42,2.8a10.41,10.41,0,0,0-2.18-.27,5.29,5.29,0,0,0-4.13,2,7.14,7.14,0,0,0-1.72,4.89v10.68h-3V305.81h2.49l.35,3.69h.14a8.73,8.73,0,0,1,2.67-3A6,6,0,0,1,1972,305.45Z"/><path d="M2003.42,325.72v-13a5.34,5.34,0,0,0-1-3.56,3.9,3.9,0,0,0-3.16-1.19,5.1,5.1,0,0,0-4.15,1.61,7.67,7.67,0,0,0-1.35,5v11.12h-3v-13a5.34,5.34,0,0,0-1-3.56,3.94,3.94,0,0,0-3.18-1.19,4.93,4.93,0,0,0-4.15,1.69c-.88,1.14-1.32,3-1.32,5.57v10.45h-3V305.81h2.45l.49,2.72h.15a6,6,0,0,1,2.4-2.27,7.44,7.44,0,0,1,3.48-.81c3.11,0,5.15,1.12,6.1,3.37h.15a6.34,6.34,0,0,1,2.58-2.47,8,8,0,0,1,3.85-.9,6.73,6.73,0,0,1,5.06,1.73q1.68,1.74,1.68,5.55v13Z"/><path d="M2012.39,300.41a2,2,0,0,1,.51-1.51,1.79,1.79,0,0,1,1.27-.48,1.77,1.77,0,0,1,1.26.49,2,2,0,0,1,.52,1.5,2,2,0,0,1-.52,1.52,1.85,1.85,0,0,1-2.53,0A2,2,0,0,1,2012.39,300.41Zm3.27,25.31h-3V305.81h3Z"/><path d="M2035.68,325.72V312.84a5.17,5.17,0,0,0-1.11-3.63,4.52,4.52,0,0,0-3.47-1.2,5.72,5.72,0,0,0-4.58,1.69c-1,1.12-1.45,3-1.45,5.57v10.45h-3V305.81h2.45l.49,2.72h.14a6.22,6.22,0,0,1,2.6-2.28,8.42,8.42,0,0,1,3.72-.8,7.56,7.56,0,0,1,5.42,1.73q1.81,1.74,1.81,5.55v13Z"/><path d="M2062.07,315.74c0,3.25-.82,5.78-2.45,7.61a8.66,8.66,0,0,1-6.78,2.73,8.93,8.93,0,0,1-4.74-1.26,8.3,8.3,0,0,1-3.2-3.59,12.54,12.54,0,0,1-1.12-5.49q0-4.86,2.43-7.58a8.61,8.61,0,0,1,6.76-2.71,8.43,8.43,0,0,1,6.64,2.77A11,11,0,0,1,2062.07,315.74Zm-15.17,0a9.46,9.46,0,0,0,1.53,5.82,6.07,6.07,0,0,0,9,0,9.45,9.45,0,0,0,1.53-5.83,9.24,9.24,0,0,0-1.53-5.76,5.37,5.37,0,0,0-4.53-2,5.28,5.28,0,0,0-4.47,1.94A9.33,9.33,0,0,0,2046.9,315.74Z"/><path d="M1822.84,368.23a9.83,9.83,0,0,0,1.55-.12,9.34,9.34,0,0,0,1.18-.25v2.31a5.35,5.35,0,0,1-1.45.39,11.1,11.1,0,0,1-1.71.15c-3.85,0-5.78-2-5.78-6.08V352.79h-2.85v-1.45l2.85-1.26,1.27-4.25h1.74v4.61h5.78v2.35h-5.78V364.5a4,4,0,0,0,.86,2.76A3,3,0,0,0,1822.84,368.23Z"/><path d="M1829.29,345.05a2,2,0,0,1,.51-1.52,1.78,1.78,0,0,1,1.27-.48,1.8,1.8,0,0,1,1.25.49,2,2,0,0,1,.53,1.51,2,2,0,0,1-.53,1.52,1.77,1.77,0,0,1-1.25.5,1.75,1.75,0,0,1-1.27-.5A2.05,2.05,0,0,1,1829.29,345.05Zm3.27,25.3h-3V350.44h3Z"/><path d="M1847.36,370.71a9.14,9.14,0,0,1-7-2.68,10.39,10.39,0,0,1-2.56-7.47,11.55,11.55,0,0,1,2.37-7.65,7.91,7.91,0,0,1,6.37-2.83,7.51,7.51,0,0,1,5.92,2.46,9.46,9.46,0,0,1,2.18,6.5v1.9H1841a7.88,7.88,0,0,0,1.77,5.32,6.1,6.1,0,0,0,4.73,1.82,16.18,16.18,0,0,0,6.36-1.34v2.68a15.45,15.45,0,0,1-3,1A17,17,0,0,1,1847.36,370.71Zm-.82-18.1a4.93,4.93,0,0,0-3.82,1.56,7.2,7.2,0,0,0-1.68,4.32h10.41a6.68,6.68,0,0,0-1.27-4.37A4.48,4.48,0,0,0,1846.54,352.61Z"/><path d="M1873.44,370.35V357.47a5.19,5.19,0,0,0-1.11-3.63,4.49,4.49,0,0,0-3.47-1.2,5.73,5.73,0,0,0-4.57,1.69q-1.45,1.69-1.45,5.58v10.44h-3V350.44h2.45l.49,2.73h.15a6.19,6.19,0,0,1,2.59-2.28,8.47,8.47,0,0,1,3.73-.81,7.53,7.53,0,0,1,5.41,1.74q1.81,1.73,1.82,5.54v13Z"/><path d="M1891.06,370.71a9.18,9.18,0,0,1-7-2.68,10.43,10.43,0,0,1-2.55-7.47,11.55,11.55,0,0,1,2.37-7.65,7.9,7.9,0,0,1,6.37-2.83,7.51,7.51,0,0,1,5.92,2.46,9.46,9.46,0,0,1,2.18,6.5v1.9h-13.71a7.88,7.88,0,0,0,1.77,5.32,6.08,6.08,0,0,0,4.73,1.82,16.18,16.18,0,0,0,6.36-1.34v2.68a15.45,15.45,0,0,1-3,1A17,17,0,0,1,1891.06,370.71Zm-.82-18.1a4.92,4.92,0,0,0-3.82,1.56,7.2,7.2,0,0,0-1.68,4.32h10.41a6.62,6.62,0,0,0-1.28-4.37A4.45,4.45,0,0,0,1890.24,352.61Z"/><path d="M1929.26,355.13q0,15.58-12.06,15.58a12.46,12.46,0,0,1-3.35-.36v-2.6a10.53,10.53,0,0,0,3.31.48c2.9,0,5.1-.9,6.58-2.7s2.29-4.56,2.43-8.27H1926a6.47,6.47,0,0,1-2.65,2.29,8.5,8.5,0,0,1-3.73.79,7.5,7.5,0,0,1-5.59-2.1,8.06,8.06,0,0,1-2.07-5.89,9,9,0,0,1,2.32-6.54,8.86,8.86,0,0,1,10.82-1,8.75,8.75,0,0,1,3.12,4.05A16.58,16.58,0,0,1,1929.26,355.13Zm-8.94-9.13a4.94,4.94,0,0,0-4,1.67,6.93,6.93,0,0,0-1.42,4.65,6,6,0,0,0,1.31,4.11,5,5,0,0,0,4,1.5,7,7,0,0,0,3-.67,5.48,5.48,0,0,0,2.18-1.84,4.15,4.15,0,0,0,.8-2.43,8.3,8.3,0,0,0-.74-3.53,6.23,6.23,0,0,0-2.08-2.54A5.21,5.21,0,0,0,1920.32,346Z"/><path d="M1953.37,370.71a8.63,8.63,0,0,1-3.55-.71,6.67,6.67,0,0,1-2.69-2.21h-.22a27.71,27.71,0,0,1,.22,3.31v8.19h-3V350.44h2.45l.42,2.73h.15a6.91,6.91,0,0,1,2.7-2.36,8.15,8.15,0,0,1,3.54-.73,7.37,7.37,0,0,1,6.12,2.71q2.15,2.7,2.15,7.59t-2.19,7.62A7.37,7.37,0,0,1,1953.37,370.71Zm-.43-18.07a5.34,5.34,0,0,0-4.41,1.69q-1.37,1.69-1.4,5.38v.67c0,2.8.46,4.8,1.4,6a5.29,5.29,0,0,0,4.48,1.81,4.66,4.66,0,0,0,4-2.09,9.86,9.86,0,0,0,1.46-5.76,9.5,9.5,0,0,0-1.46-5.71A4.81,4.81,0,0,0,1952.94,352.64Z"/><path d="M1979.15,370.35l-.6-2.83h-.15a8.26,8.26,0,0,1-3,2.53,9.06,9.06,0,0,1-3.69.66,6.62,6.62,0,0,1-4.64-1.52,5.56,5.56,0,0,1-1.68-4.34q0-6,9.64-6.32l3.38-.11v-1.24a5.07,5.07,0,0,0-1-3.46,4.16,4.16,0,0,0-3.22-1.11,13.06,13.06,0,0,0-5.63,1.52l-.93-2.31a14.27,14.27,0,0,1,3.22-1.25,14.1,14.1,0,0,1,3.52-.45c2.37,0,4.13.52,5.27,1.58s1.72,2.74,1.72,5.07v13.58Zm-6.81-2.12a6.12,6.12,0,0,0,4.42-1.55,5.72,5.72,0,0,0,1.61-4.32v-1.8l-3,.13a10.87,10.87,0,0,0-5.18,1.12,3.36,3.36,0,0,0-1.59,3.07,3.11,3.11,0,0,0,1,2.49A4.1,4.1,0,0,0,1972.34,368.23Z"/><path d="M1990.61,370.35h-3V342.09h3Z"/><path d="M1996.75,345.05a2,2,0,0,1,.51-1.52,1.76,1.76,0,0,1,1.27-.48,1.8,1.8,0,0,1,1.25.49,2,2,0,0,1,.53,1.51,2,2,0,0,1-.53,1.52,1.77,1.77,0,0,1-1.25.5,1.73,1.73,0,0,1-1.27-.5A2.05,2.05,0,0,1,1996.75,345.05Zm3.27,25.3h-3V350.44h3Z"/><path d="M2012.84,368.23a9.61,9.61,0,0,0,1.54-.12,9,9,0,0,0,1.18-.25v2.31a5.26,5.26,0,0,1-1.44.39,11.23,11.23,0,0,1-1.72.15c-3.85,0-5.77-2-5.77-6.08V352.79h-2.85v-1.45l2.85-1.26,1.27-4.25h1.74v4.61h5.78v2.35h-5.78V364.5a4,4,0,0,0,.86,2.76A2.93,2.93,0,0,0,2012.84,368.23Z"/><path d="M2036.72,360.38c0,3.24-.82,5.78-2.45,7.6a8.63,8.63,0,0,1-6.77,2.73,8.93,8.93,0,0,1-4.74-1.25,8.18,8.18,0,0,1-3.2-3.59,12.57,12.57,0,0,1-1.13-5.49q0-4.86,2.44-7.58a8.6,8.6,0,0,1,6.75-2.72,8.43,8.43,0,0,1,6.64,2.78A10.93,10.93,0,0,1,2036.72,360.38Zm-15.16,0a9.49,9.49,0,0,0,1.52,5.81,6.05,6.05,0,0,0,9,0,9.37,9.37,0,0,0,1.54-5.82,9.23,9.23,0,0,0-1.54-5.77,5.39,5.39,0,0,0-4.53-2,5.31,5.31,0,0,0-4.47,1.95Q2021.56,356.53,2021.56,360.38Z"/><path d="M2054.85,364.92a5,5,0,0,1-2.07,4.29,9.77,9.77,0,0,1-5.81,1.5,12.62,12.62,0,0,1-6.18-1.25v-2.8a14.71,14.71,0,0,0,3.08,1.15,12.74,12.74,0,0,0,3.17.42,7.21,7.21,0,0,0,3.63-.76,2.59,2.59,0,0,0,.26-4.28,15.74,15.74,0,0,0-3.93-2,21.76,21.76,0,0,1-4-1.8,5.39,5.39,0,0,1-1.74-1.76,4.56,4.56,0,0,1-.57-2.34,4.47,4.47,0,0,1,2-3.84,9.21,9.21,0,0,1,5.43-1.41,15.93,15.93,0,0,1,6.28,1.31l-1.07,2.45a14.49,14.49,0,0,0-5.43-1.23,6.2,6.2,0,0,0-3.23.67,2.07,2.07,0,0,0-1.09,1.85,2.26,2.26,0,0,0,.4,1.36,4,4,0,0,0,1.32,1.07,30.75,30.75,0,0,0,3.49,1.48,13,13,0,0,1,4.78,2.59A4.59,4.59,0,0,1,2054.85,364.92Z"/></svg>