<svg id="Layer_1" data-name="Layer 1" xmlns="http://www.w3.org/2000/svg" viewBox="0 0 903.46 241.14"><defs><style>.cls-1{fill:#ffe2a1;}.cls-2{fill:#3a68ad;}</style></defs><title>Fosforos_V_3b</title><rect class="cls-1" x="815.75" y="14.03" width="13.75" height="237.11" transform="translate(176.5 -393.55) rotate(30)"/><path class="cls-2" d="M871.38,61.9,859.47,55l25-49.94a10.16,10.16,0,0,1,13.87-3.72h0a10.15,10.15,0,0,1,3.71,13.86Z"/><rect class="cls-1" x="689.52" y="-12.45" width="13.75" height="237.11" transform="translate(1352.55 -150.19) rotate(150)"/><path class="cls-2" d="M733.24,183.67l11.91-6.87,30.72,46.67a10.14,10.14,0,0,1-3.71,13.86h0a10.14,10.14,0,0,1-13.86-3.71Z"/><rect class="cls-1" x="563.29" y="14.03" width="13.75" height="237.11" transform="translate(142.68 -267.32) rotate(30)"/><path class="cls-2" d="M618.91,61.9,607,55l25-49.94a10.14,10.14,0,0,1,13.86-3.72h0a10.14,10.14,0,0,1,3.72,13.86Z"/><rect class="cls-1" x="437.06" y="-10" width="13.75" height="237.11" transform="translate(882.67 -19.4) rotate(150)"/><path class="cls-2" d="M480.77,186.12l11.91-6.88,30.73,46.67a10.16,10.16,0,0,1-3.72,13.87h0a10.14,10.14,0,0,1-13.86-3.72Z"/><rect class="cls-1" x="310.82" y="16.47" width="13.75" height="237.11" transform="translate(110.08 -140.76) rotate(30)"/><path class="cls-2" d="M366.45,64.34l-11.91-6.88L379.6,7.52A10.15,10.15,0,0,1,393.46,3.8h0a10.15,10.15,0,0,1,3.71,13.87Z"/><rect class="cls-1" x="184.59" y="-10" width="13.75" height="237.11" transform="translate(411.56 106.83) rotate(150)"/><path class="cls-2" d="M228.31,186.12l11.91-6.88,30.72,46.67a10.16,10.16,0,0,1-3.71,13.87h0a10.16,10.16,0,0,1-13.87-3.72Z"/><rect class="cls-1" x="58.36" y="16.47" width="13.75" height="237.11" transform="translate(76.25 -14.53) rotate(30)"/><path class="cls-2" d="M114,64.34l-11.91-6.88L127.13,7.52A10.15,10.15,0,0,1,141,3.8h0a10.16,10.16,0,0,1,3.72,13.87Z"/></svg>