<svg id="Layer_1" data-name="Layer 1" xmlns="http://www.w3.org/2000/svg" viewBox="0 0 4403.35 380.55"><defs><style>.cls-1{fill:#d32a2a;}.cls-2{fill:#ffe2a1;}.cls-3{fill:#3a68ad;}.cls-4{font-size:30px;font-family:OpenSans-Regular, Open Sans;}</style></defs><title>Fosforos_U03_04</title><rect class="cls-1" x="1022.37" width="13.75" height="237.11" transform="translate(2058.49 237.11) rotate(180)"/><path class="cls-1" d="M1022.37,204.15h13.75l3.27,55.78a10.14,10.14,0,0,1-10.14,10.15h0a10.14,10.14,0,0,1-10.15-10.15Z"/><rect class="cls-1" x="881" y="-108.41" width="13.75" height="237.11" transform="translate(898.02 -877.72) rotate(90)"/><path class="cls-1" d="M973.46,17V3.27L1029.25,0a10.14,10.14,0,0,1,10.14,10.15h0a10.15,10.15,0,0,1-10.14,10.15Z"/><rect class="cls-2" x="769.32" y="32.97" width="13.75" height="237.11"/><path class="cls-3" d="M783.07,65.93H769.32L766,10.15A10.15,10.15,0,0,1,776.19,0h0a10.14,10.14,0,0,1,10.15,10.15Z"/><rect class="cls-2" x="627.94" y="144.65" width="13.75" height="237.11" transform="translate(898.02 -371.61) rotate(90)"/><path class="cls-3" d="M720.41,270.08V256.33l55.78-3.27a10.14,10.14,0,0,1,10.15,10.14h0a10.14,10.14,0,0,1-10.15,10.15Z"/><rect class="cls-2" x="3.27" y="32.97" width="13.75" height="237.11"/><path class="cls-3" d="M17,65.93H3.27L0,10.15A10.14,10.14,0,0,1,10.15,0h0A10.15,10.15,0,0,1,20.3,10.15Z"/><rect class="cls-2" x="509.39" y="0.02" width="13.75" height="237.11" transform="translate(1032.52 237.15) rotate(180)"/><path class="cls-3" d="M509.39,204.17h13.74L526.41,260a10.16,10.16,0,0,1-10.15,10.15h0A10.16,10.16,0,0,1,506.11,260Z"/><rect class="cls-2" x="368.01" y="-108.41" width="13.75" height="237.11" transform="translate(385.03 -364.74) rotate(90)"/><path class="cls-3" d="M460.48,17V3.27L516.26,0a10.15,10.15,0,0,1,10.15,10.15h0A10.16,10.16,0,0,1,516.26,20.3Z"/><rect class="cls-2" x="256.33" y="32.97" width="13.75" height="237.11"/><path class="cls-3" d="M270.08,65.93H256.33l-3.27-55.78A10.14,10.14,0,0,1,263.2,0h0a10.14,10.14,0,0,1,10.15,10.15Z"/><rect class="cls-2" x="114.96" y="144.65" width="13.75" height="237.11" transform="translate(385.03 141.37) rotate(90)"/><path class="cls-3" d="M207.42,270.08V256.33l55.78-3.27a10.14,10.14,0,0,1,10.15,10.14h0a10.14,10.14,0,0,1-10.15,10.15Z"/><text class="cls-4" transform="translate(409.24 337.24)">Primer término<tspan x="9.05" y="36">tiene 9 palitos</tspan></text><rect class="cls-1" x="2619.67" y="32.97" width="13.75" height="237.11"/><path class="cls-1" d="M2633.42,65.93h-13.75l-3.27-55.78A10.14,10.14,0,0,1,2626.54,0h0a10.14,10.14,0,0,1,10.15,10.15Z"/><rect class="cls-1" x="2478.3" y="144.65" width="13.75" height="237.11" transform="translate(2748.37 -2221.97) rotate(90)"/><path class="cls-1" d="M2570.76,270.08V256.33l55.78-3.27a10.14,10.14,0,0,1,10.15,10.14h0a10.14,10.14,0,0,1-10.15,10.15Z"/><rect class="cls-2" x="2359.74" width="13.75" height="237.11" transform="translate(4733.23 237.11) rotate(180)"/><path class="cls-3" d="M2359.74,204.15h13.75l3.27,55.78a10.14,10.14,0,0,1-10.15,10.15h0a10.14,10.14,0,0,1-10.14-10.15Z"/><rect class="cls-2" x="2218.36" y="-108.41" width="13.75" height="237.11" transform="translate(2235.39 -2215.09) rotate(90)"/><path class="cls-3" d="M2310.83,17V3.27L2366.61,0a10.14,10.14,0,0,1,10.15,10.15h0a10.15,10.15,0,0,1-10.15,10.15Z"/><rect class="cls-2" x="2106.68" y="32.97" width="13.75" height="237.11"/><path class="cls-3" d="M2120.43,65.93h-13.75l-3.27-55.78A10.14,10.14,0,0,1,2113.56,0h0a10.15,10.15,0,0,1,10.15,10.15Z"/><rect class="cls-2" x="1965.31" y="144.65" width="13.75" height="237.11" transform="translate(2235.39 -1708.98) rotate(90)"/><path class="cls-3" d="M2057.78,270.08V256.33l55.78-3.27a10.15,10.15,0,0,1,10.15,10.14h0a10.15,10.15,0,0,1-10.15,10.15Z"/><rect class="cls-2" x="1340.64" y="32.97" width="13.75" height="237.11"/><path class="cls-3" d="M1354.39,65.93h-13.75l-3.27-55.78A10.14,10.14,0,0,1,1347.52,0h0a10.14,10.14,0,0,1,10.14,10.15Z"/><rect class="cls-2" x="1846.75" y="0.02" width="13.75" height="237.11" transform="translate(3707.25 237.15) rotate(180)"/><path class="cls-3" d="M1846.75,204.17h13.75l3.28,55.78a10.16,10.16,0,0,1-10.15,10.15h0A10.15,10.15,0,0,1,1843.48,260Z"/><rect class="cls-2" x="1705.38" y="-108.41" width="13.75" height="237.11" transform="translate(1722.4 -1702.1) rotate(90)"/><path class="cls-3" d="M1797.85,17V3.27L1853.63,0a10.15,10.15,0,0,1,10.15,10.15h0a10.16,10.16,0,0,1-10.15,10.15Z"/><rect class="cls-2" x="1593.7" y="32.97" width="13.75" height="237.11"/><path class="cls-3" d="M1607.45,65.93H1593.7l-3.28-55.78A10.15,10.15,0,0,1,1600.57,0h0a10.14,10.14,0,0,1,10.15,10.15Z"/><rect class="cls-2" x="1452.32" y="144.65" width="13.75" height="237.11" transform="translate(1722.4 -1195.99) rotate(90)"/><path class="cls-3" d="M1544.79,270.08V256.33l55.78-3.27a10.14,10.14,0,0,1,10.15,10.14h0a10.14,10.14,0,0,1-10.15,10.15Z"/><text class="cls-4" transform="translate(1850.91 337.24)">Segundo término<tspan x="14.57" y="36">tiene 11 palitos</tspan></text><rect class="cls-1" x="4386.33" y="0.02" width="13.75" height="237.11" transform="translate(8786.41 237.15) rotate(180)"/><path class="cls-1" d="M4386.33,204.17h13.75l3.27,55.78a10.15,10.15,0,0,1-10.14,10.15h0A10.15,10.15,0,0,1,4383.06,260Z"/><rect class="cls-1" x="4244.96" y="-108.41" width="13.75" height="237.11" transform="translate(4261.98 -4241.68) rotate(90)"/><path class="cls-1" d="M4337.42,17V3.27L4393.21,0a10.14,10.14,0,0,1,10.14,10.15h0a10.15,10.15,0,0,1-10.14,10.15Z"/><rect class="cls-2" x="4133.27" y="32.97" width="13.75" height="237.11"/><path class="cls-3" d="M4147,65.93h-13.75L4130,10.15A10.14,10.14,0,0,1,4140.15,0h0a10.15,10.15,0,0,1,10.15,10.15Z"/><rect class="cls-2" x="3991.9" y="144.65" width="13.75" height="237.11" transform="translate(4261.98 -3735.57) rotate(90)"/><path class="cls-3" d="M4084.37,270.08V256.33l55.78-3.27a10.15,10.15,0,0,1,10.15,10.14h0a10.15,10.15,0,0,1-10.15,10.15Z"/><rect class="cls-2" x="3873.34" width="13.75" height="237.11" transform="translate(7760.44 237.11) rotate(180)"/><path class="cls-3" d="M3873.34,204.15h13.75l3.28,55.78a10.15,10.15,0,0,1-10.15,10.15h0a10.14,10.14,0,0,1-10.15-10.15Z"/><rect class="cls-2" x="3731.97" y="-108.41" width="13.75" height="237.11" transform="translate(3748.99 -3728.7) rotate(90)"/><path class="cls-3" d="M3824.44,17V3.27L3880.22,0a10.15,10.15,0,0,1,10.15,10.15h0a10.16,10.16,0,0,1-10.15,10.15Z"/><rect class="cls-2" x="3620.29" y="32.97" width="13.75" height="237.11"/><path class="cls-3" d="M3634,65.93h-13.75L3617,10.15A10.15,10.15,0,0,1,3627.16,0h0a10.14,10.14,0,0,1,10.15,10.15Z"/><rect class="cls-2" x="3478.91" y="144.65" width="13.75" height="237.11" transform="translate(3748.99 -3222.59) rotate(90)"/><path class="cls-3" d="M3571.38,270.08V256.33l55.78-3.27a10.14,10.14,0,0,1,10.15,10.14h0a10.14,10.14,0,0,1-10.15,10.15Z"/><rect class="cls-2" x="2854.25" y="32.97" width="13.75" height="237.11"/><path class="cls-3" d="M2868,65.93h-13.75L2851,10.15A10.15,10.15,0,0,1,2861.12,0h0a10.14,10.14,0,0,1,10.15,10.15Z"/><rect class="cls-2" x="3360.36" y="0.02" width="13.75" height="237.11" transform="translate(6734.46 237.15) rotate(180)"/><path class="cls-3" d="M3360.36,204.17h13.75l3.27,55.78a10.15,10.15,0,0,1-10.15,10.15h0A10.16,10.16,0,0,1,3357.08,260Z"/><rect class="cls-2" x="3218.98" y="-108.41" width="13.75" height="237.11" transform="translate(3236.01 -3215.71) rotate(90)"/><path class="cls-3" d="M3311.45,17V3.27L3367.23,0a10.14,10.14,0,0,1,10.15,10.15h0a10.15,10.15,0,0,1-10.15,10.15Z"/><rect class="cls-2" x="3107.3" y="32.97" width="13.75" height="237.11"/><path class="cls-3" d="M3121.05,65.93H3107.3L3104,10.15A10.14,10.14,0,0,1,3114.18,0h0a10.15,10.15,0,0,1,10.15,10.15Z"/><rect class="cls-2" x="2965.93" y="144.65" width="13.75" height="237.11" transform="translate(3236.01 -2709.6) rotate(90)"/><path class="cls-3" d="M3058.39,270.08V256.33l55.79-3.27a10.15,10.15,0,0,1,10.15,10.14h0a10.15,10.15,0,0,1-10.15,10.15Z"/><text class="cls-4" transform="translate(3522.9 337.24)">Tercer término<tspan x="-2.45" y="36">tiene 13 palitos</tspan></text></svg>