<svg id="Layer_1" data-name="Layer 1" xmlns="http://www.w3.org/2000/svg" viewBox="0 0 1944.09 345.37"><defs><style>.cls-1{fill:#ffe2a1;}.cls-2{fill:#3a68ad;}</style></defs><title>Fosforos_U01_04</title><rect class="cls-1" x="1927.07" y="35.35" width="13.75" height="237.11"/><path class="cls-2" d="M1940.82,68.31h-13.75l-3.28-55.78a10.16,10.16,0,0,1,10.15-10.15h0a10.15,10.15,0,0,1,10.15,10.15Z"/><rect class="cls-1" x="1785.69" y="147.03" width="13.75" height="237.11" transform="translate(2058.16 -1526.98) rotate(90)"/><path class="cls-2" d="M1878.16,272.46V258.71l55.78-3.27a10.14,10.14,0,0,1,10.15,10.15h0a10.15,10.15,0,0,1-10.15,10.15Z"/><rect class="cls-1" x="1161.03" y="35.35" width="13.75" height="237.11"/><path class="cls-2" d="M1174.77,68.31H1161l-3.28-55.78A10.16,10.16,0,0,1,1167.9,2.38h0a10.16,10.16,0,0,1,10.15,10.15Z"/><rect class="cls-1" x="1667.14" y="2.4" width="13.75" height="237.11" transform="translate(3348.02 241.92) rotate(180)"/><path class="cls-2" d="M1667.14,206.55h13.75l3.27,55.78A10.14,10.14,0,0,1,1674,272.48h0a10.15,10.15,0,0,1-10.15-10.15Z"/><rect class="cls-1" x="1525.76" y="-106.02" width="13.75" height="237.11" transform="translate(1545.17 -1520.11) rotate(90)"/><path class="cls-2" d="M1618.23,19.41V5.66L1674,2.38a10.15,10.15,0,0,1,10.15,10.15h0A10.14,10.14,0,0,1,1674,22.68Z"/><rect class="cls-1" x="1414.08" y="35.35" width="13.75" height="237.11"/><path class="cls-2" d="M1427.83,68.31h-13.75l-3.27-55.78A10.15,10.15,0,0,1,1421,2.38h0a10.15,10.15,0,0,1,10.14,10.15Z"/><rect class="cls-1" x="1272.71" y="147.03" width="13.75" height="237.11" transform="translate(1545.17 -1013.99) rotate(90)"/><path class="cls-2" d="M1365.17,272.46V258.71l55.79-3.27a10.14,10.14,0,0,1,10.14,10.15h0A10.15,10.15,0,0,1,1421,275.74Z"/><rect class="cls-1" x="501.66" y="32.97" width="13.75" height="237.11"/><path class="cls-2" d="M515.41,65.93H501.66l-3.27-55.78A10.14,10.14,0,0,1,508.54,0h0a10.14,10.14,0,0,1,10.14,10.15Z"/><rect class="cls-1" x="1007.77" y="0.02" width="13.75" height="237.11" transform="translate(2029.29 237.15) rotate(180)"/><path class="cls-2" d="M1007.77,204.17h13.75L1024.8,260a10.16,10.16,0,0,1-10.15,10.15h0A10.15,10.15,0,0,1,1004.5,260Z"/><rect class="cls-1" x="866.4" y="-108.41" width="13.75" height="237.11" transform="translate(883.42 -863.13) rotate(90)"/><path class="cls-2" d="M958.87,17V3.27L1014.65,0a10.15,10.15,0,0,1,10.15,10.15h0a10.16,10.16,0,0,1-10.15,10.15Z"/><rect class="cls-1" x="754.72" y="32.97" width="13.75" height="237.11"/><path class="cls-2" d="M768.47,65.93H754.72l-3.28-55.78A10.15,10.15,0,0,1,761.59,0h0a10.14,10.14,0,0,1,10.15,10.15Z"/><rect class="cls-1" x="613.34" y="144.65" width="13.75" height="237.11" transform="translate(883.42 -357.01) rotate(90)"/><path class="cls-2" d="M705.81,270.08V256.33l55.78-3.27a10.14,10.14,0,0,1,10.15,10.14h0a10.14,10.14,0,0,1-10.15,10.15Z"/><rect class="cls-1" x="3.27" y="35.35" width="13.75" height="237.11"/><path class="cls-2" d="M17,68.31H3.27L0,12.53A10.15,10.15,0,0,1,10.15,2.38h0A10.16,10.16,0,0,1,20.3,12.53Z"/><rect class="cls-1" x="256.33" y="35.35" width="13.75" height="237.11"/><path class="cls-2" d="M270.08,68.31H256.33l-3.27-55.78A10.15,10.15,0,0,1,263.2,2.38h0a10.15,10.15,0,0,1,10.15,10.15Z"/><rect class="cls-1" x="114.96" y="147.03" width="13.75" height="237.11" transform="translate(387.42 143.76) rotate(90)"/><path class="cls-2" d="M207.42,272.46V258.71l55.78-3.27a10.14,10.14,0,0,1,10.15,10.15h0a10.15,10.15,0,0,1-10.15,10.15Z"/><path d="M43.55,306.94a7.44,7.44,0,0,1-2.75,6.21c-1.83,1.44-4.46,2.17-7.87,2.17H29.8v10.44H26.72V299.21H33.6Q43.56,299.21,43.55,306.94ZM29.8,312.67h2.78c2.74,0,4.72-.45,5.94-1.33a4.87,4.87,0,0,0,1.84-4.25,4.57,4.57,0,0,0-1.73-3.92q-1.73-1.29-5.37-1.29H29.8Z"/><path d="M57.74,305.49a11.48,11.48,0,0,1,2.38.22l-.42,2.8a9.78,9.78,0,0,0-2.18-.28,5.3,5.3,0,0,0-4.13,2,7.1,7.1,0,0,0-1.72,4.88v10.68h-3V305.85h2.49l.34,3.69h.15a8.71,8.71,0,0,1,2.67-3A6,6,0,0,1,57.74,305.49Z"/><path d="M63.59,300.46a2,2,0,0,1,.51-1.52,1.76,1.76,0,0,1,1.27-.48,1.8,1.8,0,0,1,1.25.49,2,2,0,0,1,.53,1.51,2,2,0,0,1-.53,1.52,1.77,1.77,0,0,1-1.25.5,1.73,1.73,0,0,1-1.27-.5A2.05,2.05,0,0,1,63.59,300.46Zm3.27,25.3h-3V305.85h3Z"/><path d="M98.62,325.76V312.81a5.41,5.41,0,0,0-1-3.57,4,4,0,0,0-3.17-1.19,5.08,5.08,0,0,0-4.15,1.62,7.67,7.67,0,0,0-1.35,5v11.11h-3V312.81a5.36,5.36,0,0,0-1-3.57,4,4,0,0,0-3.18-1.19,4.93,4.93,0,0,0-4.15,1.7q-1.32,1.69-1.32,5.57v10.44h-3V305.85H75.7l.49,2.73h.15a5.91,5.91,0,0,1,2.4-2.27,7.32,7.32,0,0,1,3.48-.82c3.11,0,5.15,1.13,6.1,3.38h.15a6.34,6.34,0,0,1,2.58-2.47,7.94,7.94,0,0,1,3.85-.91,6.74,6.74,0,0,1,5.06,1.74q1.68,1.72,1.68,5.54v13Z"/><path d="M116.26,326.12a9.16,9.16,0,0,1-7-2.68,10.43,10.43,0,0,1-2.55-7.47,11.55,11.55,0,0,1,2.37-7.65,7.9,7.9,0,0,1,6.37-2.83A7.52,7.52,0,0,1,121.4,308a9.46,9.46,0,0,1,2.18,6.5v1.9H109.86a7.93,7.93,0,0,0,1.78,5.32,6.08,6.08,0,0,0,4.73,1.82,16.09,16.09,0,0,0,6.35-1.34v2.68a15.16,15.16,0,0,1-3,1A17,17,0,0,1,116.26,326.12Zm-.82-18.1a4.92,4.92,0,0,0-3.82,1.56,7.2,7.2,0,0,0-1.68,4.32h10.4a6.62,6.62,0,0,0-1.27-4.37A4.46,4.46,0,0,0,115.44,308Z"/><path d="M137.8,305.49a11.48,11.48,0,0,1,2.38.22l-.42,2.8a9.78,9.78,0,0,0-2.18-.28,5.3,5.3,0,0,0-4.13,2,7.1,7.1,0,0,0-1.72,4.88v10.68h-3V305.85h2.49l.34,3.69h.15a8.71,8.71,0,0,1,2.67-3A6,6,0,0,1,137.8,305.49Z"/><path d="M160,323.64a9.74,9.74,0,0,0,1.55-.12,9.34,9.34,0,0,0,1.18-.25v2.31a5.35,5.35,0,0,1-1.45.39,11,11,0,0,1-1.71.15c-3.85,0-5.78-2-5.78-6.08V308.2h-2.85v-1.45l2.85-1.26,1.27-4.25h1.75v4.61h5.77v2.35H156.8v11.71a4,4,0,0,0,.85,2.76A3,3,0,0,0,160,323.64Z"/><path d="M175.1,326.12a9.14,9.14,0,0,1-7-2.68,10.43,10.43,0,0,1-2.55-7.47,11.55,11.55,0,0,1,2.37-7.65,7.89,7.89,0,0,1,6.36-2.83,7.49,7.49,0,0,1,5.92,2.46,9.41,9.41,0,0,1,2.18,6.5v1.9H168.71a7.88,7.88,0,0,0,1.77,5.32,6.1,6.1,0,0,0,4.73,1.82,16.14,16.14,0,0,0,6.36-1.34v2.68a15.37,15.37,0,0,1-3,1A17,17,0,0,1,175.1,326.12Zm-.81-18.1a4.94,4.94,0,0,0-3.83,1.56,7.2,7.2,0,0,0-1.68,4.32h10.41a6.62,6.62,0,0,0-1.27-4.37A4.48,4.48,0,0,0,174.29,308Zm-2.24-5.25c.58-.75,1.21-1.66,1.88-2.73a31.14,31.14,0,0,0,1.59-2.78h3.67v.39a27.66,27.66,0,0,1-2.38,2.9,27.26,27.26,0,0,1-2.74,2.67h-2Z"/><path d="M196.64,305.49a11.41,11.41,0,0,1,2.38.22l-.41,2.8a9.85,9.85,0,0,0-2.18-.28,5.33,5.33,0,0,0-4.14,2,7.14,7.14,0,0,0-1.71,4.88v10.68h-3V305.85h2.49l.35,3.69h.14a8.92,8.92,0,0,1,2.67-3A6,6,0,0,1,196.64,305.49Z"/><path d="M228.12,325.76V312.81a5.36,5.36,0,0,0-1-3.57,3.94,3.94,0,0,0-3.16-1.19,5.11,5.11,0,0,0-4.16,1.62,7.73,7.73,0,0,0-1.34,5v11.11h-3V312.81a5.36,5.36,0,0,0-1-3.57,4,4,0,0,0-3.18-1.19,4.93,4.93,0,0,0-4.15,1.7q-1.32,1.69-1.32,5.57v10.44h-3V305.85h2.45l.49,2.73h.15a5.84,5.84,0,0,1,2.4-2.27,7.32,7.32,0,0,1,3.48-.82c3.11,0,5.15,1.13,6.1,3.38H218a6.34,6.34,0,0,1,2.58-2.47,7.94,7.94,0,0,1,3.85-.91,6.74,6.74,0,0,1,5.06,1.74q1.68,1.72,1.68,5.54v13Z"/><path d="M237.09,300.46a2,2,0,0,1,.51-1.52,1.78,1.78,0,0,1,1.27-.48,1.83,1.83,0,0,1,1.26.49,2,2,0,0,1,.52,1.51,2,2,0,0,1-.52,1.52,1.79,1.79,0,0,1-1.26.5,1.75,1.75,0,0,1-1.27-.5A2.05,2.05,0,0,1,237.09,300.46Zm3.27,25.3h-3V305.85h3Z"/><path d="M260.38,325.76V312.88a5.19,5.19,0,0,0-1.11-3.63,4.52,4.52,0,0,0-3.47-1.2,5.75,5.75,0,0,0-4.58,1.69q-1.46,1.69-1.45,5.58v10.44h-3V305.85h2.46l.49,2.73h.14a6.22,6.22,0,0,1,2.6-2.28,8.39,8.39,0,0,1,3.72-.81,7.58,7.58,0,0,1,5.42,1.74q1.82,1.72,1.81,5.54v13Z"/><path d="M286.77,315.79c0,3.24-.82,5.78-2.46,7.6a8.63,8.63,0,0,1-6.77,2.73,8.93,8.93,0,0,1-4.74-1.25,8.21,8.21,0,0,1-3.2-3.6,12.53,12.53,0,0,1-1.12-5.48q0-4.86,2.43-7.58a8.62,8.62,0,0,1,6.76-2.72,8.44,8.44,0,0,1,6.64,2.78A10.93,10.93,0,0,1,286.77,315.79Zm-15.17,0a9.42,9.42,0,0,0,1.53,5.81,6.05,6.05,0,0,0,9,0,9.44,9.44,0,0,0,1.53-5.82,9.29,9.29,0,0,0-1.53-5.77,5.42,5.42,0,0,0-4.53-2,5.29,5.29,0,0,0-4.47,1.95Q271.6,311.94,271.6,315.79Z"/><path d="M662.26,318.7a6.5,6.5,0,0,1-2.55,5.46,11,11,0,0,1-6.9,2,17.27,17.27,0,0,1-7.26-1.21v-3a19.65,19.65,0,0,0,7.37,1.49,7.7,7.7,0,0,0,4.65-1.17,3.85,3.85,0,0,0,1.56-3.26,4.22,4.22,0,0,0-.55-2.27,5.29,5.29,0,0,0-1.85-1.62,26.12,26.12,0,0,0-4-1.69,12.61,12.61,0,0,1-5.3-3.14,6.93,6.93,0,0,1-1.59-4.74,5.89,5.89,0,0,1,2.31-4.89,9.59,9.59,0,0,1,6.1-1.81,17.93,17.93,0,0,1,7.28,1.45l-1,2.69a16.44,16.44,0,0,0-6.39-1.38,6.18,6.18,0,0,0-3.83,1.05,3.47,3.47,0,0,0-1.38,2.92,4.56,4.56,0,0,0,.5,2.26,4.83,4.83,0,0,0,1.72,1.62,22,22,0,0,0,3.7,1.63,14.77,14.77,0,0,1,5.75,3.19A6.34,6.34,0,0,1,662.26,318.7Z"/><path d="M675.64,326.12a9.14,9.14,0,0,1-7-2.68,10.43,10.43,0,0,1-2.56-7.47,11.5,11.5,0,0,1,2.38-7.65,7.88,7.88,0,0,1,6.36-2.83,7.49,7.49,0,0,1,5.92,2.46,9.46,9.46,0,0,1,2.18,6.5v1.9H669.25a7.88,7.88,0,0,0,1.77,5.32,6.1,6.1,0,0,0,4.73,1.82,16.18,16.18,0,0,0,6.36-1.34v2.68a15.45,15.45,0,0,1-3,1A16.91,16.91,0,0,1,675.64,326.12Zm-.82-18.1a4.93,4.93,0,0,0-3.82,1.56,7.2,7.2,0,0,0-1.68,4.32h10.41a6.68,6.68,0,0,0-1.27-4.37A4.48,4.48,0,0,0,674.82,308Z"/><path d="M704.39,305.85v1.91l-3.68.44a6.41,6.41,0,0,1,.9,1.66,6.27,6.27,0,0,1,.4,2.32,5.88,5.88,0,0,1-2,4.66,8,8,0,0,1-5.49,1.75,8.87,8.87,0,0,1-1.67-.15,3,3,0,0,0-1.93,2.56,1.3,1.3,0,0,0,.68,1.21,4.86,4.86,0,0,0,2.3.39h3.53a7.85,7.85,0,0,1,5,1.36,4.73,4.73,0,0,1,1.74,4,5.65,5.65,0,0,1-2.65,5q-2.65,1.74-7.74,1.74a10.56,10.56,0,0,1-6-1.46,4.69,4.69,0,0,1-2.12-4.1,4.58,4.58,0,0,1,1.17-3.14,5.83,5.83,0,0,1,3.26-1.8,3.27,3.27,0,0,1-1.28-1.07,2.88,2.88,0,0,1-.51-1.69,3.2,3.2,0,0,1,.58-1.91,6.28,6.28,0,0,1,1.83-1.58,5.28,5.28,0,0,1-2.51-2.16,6.34,6.34,0,0,1-1-3.49,6.43,6.43,0,0,1,2-5,8,8,0,0,1,5.55-1.77,10.21,10.21,0,0,1,2.82.36ZM688.52,329.1a2.68,2.68,0,0,0,1.36,2.45,7.5,7.5,0,0,0,3.91.84,10.86,10.86,0,0,0,5.62-1.14,3.47,3.47,0,0,0,1.82-3.07,2.44,2.44,0,0,0-1-2.25,7.86,7.86,0,0,0-3.76-.62h-3.61a4.75,4.75,0,0,0-3.2,1A3.5,3.5,0,0,0,688.52,329.1Zm1.63-16.87a4.07,4.07,0,0,0,1.18,3.16,4.71,4.71,0,0,0,3.29,1.07c2.94,0,4.42-1.43,4.42-4.28,0-3-1.49-4.49-4.47-4.49a4.43,4.43,0,0,0-3.27,1.14A4.64,4.64,0,0,0,690.15,312.23Z"/><path d="M711.31,305.85v12.92a5.19,5.19,0,0,0,1.11,3.63,4.52,4.52,0,0,0,3.47,1.2,5.67,5.67,0,0,0,4.57-1.71c1-1.14,1.44-3,1.44-5.57V305.85h3v19.91h-2.49l-.44-2.67h-.16a6.05,6.05,0,0,1-2.57,2.25,8.67,8.67,0,0,1-3.75.78c-2.42,0-4.24-.57-5.44-1.72s-1.81-3-1.81-5.52v-13Z"/><path d="M744.93,325.76V312.88a5.19,5.19,0,0,0-1.11-3.63,4.49,4.49,0,0,0-3.47-1.2,5.73,5.73,0,0,0-4.57,1.69q-1.46,1.69-1.46,5.58v10.44h-3V305.85h2.45l.49,2.73h.15A6.13,6.13,0,0,1,737,306.3a8.47,8.47,0,0,1,3.73-.81,7.53,7.53,0,0,1,5.41,1.74q1.82,1.72,1.82,5.54v13Z"/><path d="M767.69,323.09h-.16a7.1,7.1,0,0,1-6.25,3,7.4,7.4,0,0,1-6.08-2.67c-1.44-1.78-2.17-4.31-2.17-7.59s.73-5.83,2.18-7.64a7.33,7.33,0,0,1,6.07-2.73,7.24,7.24,0,0,1,6.21,2.94h.24L767.6,307l-.07-1.4v-8.1h3v28.26h-2.45Zm-6,.51a5.5,5.5,0,0,0,4.48-1.68c.92-1.12,1.39-2.93,1.39-5.42v-.64q0-4.23-1.41-6a5.37,5.37,0,0,0-4.5-1.8,4.6,4.6,0,0,0-4.06,2.06,10.3,10.3,0,0,0-1.4,5.82,9.87,9.87,0,0,0,1.39,5.76A4.76,4.76,0,0,0,761.66,323.6Z"/><path d="M794.12,315.79c0,3.24-.82,5.78-2.46,7.6a8.63,8.63,0,0,1-6.77,2.73,8.93,8.93,0,0,1-4.74-1.25,8.21,8.21,0,0,1-3.2-3.6,12.53,12.53,0,0,1-1.12-5.48q0-4.86,2.43-7.58a8.6,8.6,0,0,1,6.76-2.72,8.42,8.42,0,0,1,6.63,2.78A10.89,10.89,0,0,1,794.12,315.79Zm-15.17,0a9.42,9.42,0,0,0,1.53,5.81,6.05,6.05,0,0,0,9,0,9.44,9.44,0,0,0,1.53-5.82,9.29,9.29,0,0,0-1.53-5.77,5.42,5.42,0,0,0-4.53-2,5.29,5.29,0,0,0-4.47,1.95Q778.95,311.94,779,315.79Z"/><path d="M815.49,323.64a9.74,9.74,0,0,0,1.55-.12,9.34,9.34,0,0,0,1.18-.25v2.31a5.35,5.35,0,0,1-1.45.39,11,11,0,0,1-1.71.15c-3.85,0-5.78-2-5.78-6.08V308.2h-2.85v-1.45l2.85-1.26,1.27-4.25h1.75v4.61h5.77v2.35H812.3v11.71a4,4,0,0,0,.85,2.76A3,3,0,0,0,815.49,323.64Z"/><path d="M830.6,326.12a9.14,9.14,0,0,1-7-2.68,10.43,10.43,0,0,1-2.55-7.47,11.55,11.55,0,0,1,2.37-7.65,7.89,7.89,0,0,1,6.36-2.83,7.49,7.49,0,0,1,5.92,2.46,9.41,9.41,0,0,1,2.18,6.5v1.9H824.21a7.88,7.88,0,0,0,1.77,5.32,6.1,6.1,0,0,0,4.73,1.82,16.14,16.14,0,0,0,6.36-1.34v2.68a15.37,15.37,0,0,1-3,1A17,17,0,0,1,830.6,326.12Zm-.81-18.1a4.94,4.94,0,0,0-3.83,1.56,7.2,7.2,0,0,0-1.68,4.32h10.41a6.62,6.62,0,0,0-1.27-4.37A4.48,4.48,0,0,0,829.79,308Zm-2.24-5.25c.58-.75,1.21-1.66,1.88-2.73a31.14,31.14,0,0,0,1.59-2.78h3.67v.39a27.66,27.66,0,0,1-2.38,2.9,27.26,27.26,0,0,1-2.74,2.67h-2Z"/><path d="M852.14,305.49a11.41,11.41,0,0,1,2.38.22l-.41,2.8a9.85,9.85,0,0,0-2.18-.28,5.33,5.33,0,0,0-4.14,2,7.14,7.14,0,0,0-1.71,4.88v10.68h-3V305.85h2.49l.35,3.69H846a8.92,8.92,0,0,1,2.67-3A6,6,0,0,1,852.14,305.49Z"/><path d="M883.62,325.76V312.81a5.36,5.36,0,0,0-1-3.57,3.94,3.94,0,0,0-3.16-1.19,5.11,5.11,0,0,0-4.16,1.62,7.73,7.73,0,0,0-1.34,5v11.11h-3V312.81a5.36,5.36,0,0,0-1-3.57,4,4,0,0,0-3.18-1.19,4.93,4.93,0,0,0-4.15,1.7q-1.32,1.69-1.32,5.57v10.44h-3V305.85h2.45l.49,2.73h.14a5.93,5.93,0,0,1,2.41-2.27,7.32,7.32,0,0,1,3.48-.82c3.11,0,5.15,1.13,6.1,3.38h.15a6.34,6.34,0,0,1,2.58-2.47,7.94,7.94,0,0,1,3.85-.91,6.7,6.7,0,0,1,5.05,1.74c1.12,1.15,1.69,3,1.69,5.54v13Z"/><path d="M892.59,300.46a2,2,0,0,1,.51-1.52,1.78,1.78,0,0,1,1.27-.48,1.83,1.83,0,0,1,1.26.49,2,2,0,0,1,.52,1.51,2,2,0,0,1-.52,1.52,1.79,1.79,0,0,1-1.26.5,1.75,1.75,0,0,1-1.27-.5A2.05,2.05,0,0,1,892.59,300.46Zm3.27,25.3h-3V305.85h3Z"/><path d="M915.88,325.76V312.88a5.19,5.19,0,0,0-1.11-3.63,4.52,4.52,0,0,0-3.47-1.2,5.75,5.75,0,0,0-4.58,1.69q-1.46,1.69-1.45,5.58v10.44h-3V305.85h2.46l.49,2.73h.14a6.22,6.22,0,0,1,2.6-2.28,8.39,8.39,0,0,1,3.72-.81,7.58,7.58,0,0,1,5.42,1.74q1.81,1.72,1.81,5.54v13Z"/><path d="M942.27,315.79c0,3.24-.82,5.78-2.46,7.6a8.63,8.63,0,0,1-6.77,2.73,8.93,8.93,0,0,1-4.74-1.25,8.21,8.21,0,0,1-3.2-3.6,12.53,12.53,0,0,1-1.12-5.48q0-4.86,2.43-7.58a8.62,8.62,0,0,1,6.76-2.72,8.45,8.45,0,0,1,6.64,2.78A10.93,10.93,0,0,1,942.27,315.79Zm-15.17,0a9.42,9.42,0,0,0,1.53,5.81,6.05,6.05,0,0,0,9,0,9.44,9.44,0,0,0,1.53-5.82,9.29,9.29,0,0,0-1.53-5.77,5.42,5.42,0,0,0-4.53-2,5.29,5.29,0,0,0-4.47,1.95Q927.1,311.94,927.1,315.79Z"/><path d="M1463.5,325.76h-3.08V302H1452v-2.74h19.9V302h-8.41Z"/><path d="M1483.86,326.12a9.14,9.14,0,0,1-7-2.68,10.43,10.43,0,0,1-2.55-7.47,11.55,11.55,0,0,1,2.37-7.65,7.89,7.89,0,0,1,6.36-2.83A7.49,7.49,0,0,1,1489,308a9.41,9.41,0,0,1,2.18,6.5v1.9h-13.71a7.88,7.88,0,0,0,1.77,5.32,6.1,6.1,0,0,0,4.73,1.82,16.18,16.18,0,0,0,6.36-1.34v2.68a15.24,15.24,0,0,1-3,1A16.91,16.91,0,0,1,1483.86,326.12Zm-.81-18.1a4.94,4.94,0,0,0-3.83,1.56,7.2,7.2,0,0,0-1.68,4.32H1488a6.62,6.62,0,0,0-1.27-4.37A4.48,4.48,0,0,0,1483.05,308Z"/><path d="M1505.4,305.49a11.41,11.41,0,0,1,2.38.22l-.42,2.8a9.77,9.77,0,0,0-2.17-.28,5.32,5.32,0,0,0-4.14,2,7.14,7.14,0,0,0-1.71,4.88v10.68h-3V305.85h2.49l.35,3.69h.14a8.92,8.92,0,0,1,2.67-3A6,6,0,0,1,1505.4,305.49Z"/><path d="M1519.46,326.12a8.47,8.47,0,0,1-6.69-2.66q-2.37-2.65-2.37-7.52c0-3.33.8-5.91,2.4-7.72a8.67,8.67,0,0,1,6.86-2.73,13.34,13.34,0,0,1,2.87.31,9.41,9.41,0,0,1,2.25.73l-.92,2.56a14.66,14.66,0,0,0-2.18-.67,10.15,10.15,0,0,0-2.09-.26q-6.08,0-6.07,7.74a9.27,9.27,0,0,0,1.48,5.63,5.15,5.15,0,0,0,4.39,2,13.46,13.46,0,0,0,5.1-1.07v2.67A10.88,10.88,0,0,1,1519.46,326.12Z"/><path d="M1537.62,326.12a9.14,9.14,0,0,1-7-2.68,10.43,10.43,0,0,1-2.55-7.47,11.55,11.55,0,0,1,2.37-7.65,7.89,7.89,0,0,1,6.36-2.83,7.49,7.49,0,0,1,5.92,2.46,9.41,9.41,0,0,1,2.18,6.5v1.9h-13.71a7.88,7.88,0,0,0,1.77,5.32,6.1,6.1,0,0,0,4.73,1.82,16.14,16.14,0,0,0,6.36-1.34v2.68a15.37,15.37,0,0,1-3,1A17.09,17.09,0,0,1,1537.62,326.12Zm-.81-18.1a4.94,4.94,0,0,0-3.83,1.56,7.2,7.2,0,0,0-1.68,4.32h10.41a6.62,6.62,0,0,0-1.27-4.37A4.48,4.48,0,0,0,1536.81,308Z"/><path d="M1559.16,305.49a11.41,11.41,0,0,1,2.38.22l-.41,2.8a9.85,9.85,0,0,0-2.18-.28,5.33,5.33,0,0,0-4.14,2,7.14,7.14,0,0,0-1.71,4.88v10.68h-3V305.85h2.49l.35,3.69h.14a8.92,8.92,0,0,1,2.67-3A6,6,0,0,1,1559.16,305.49Z"/><path d="M1581.36,323.64a9.61,9.61,0,0,0,1.54-.12,9,9,0,0,0,1.18-.25v2.31a5.15,5.15,0,0,1-1.44.39,11.23,11.23,0,0,1-1.72.15c-3.85,0-5.77-2-5.77-6.08V308.2h-2.85v-1.45l2.85-1.26,1.27-4.25h1.74v4.61h5.78v2.35h-5.78v11.71a4,4,0,0,0,.86,2.76A2.93,2.93,0,0,0,1581.36,323.64Z"/><path d="M1596.47,326.12a9.18,9.18,0,0,1-7-2.68A10.43,10.43,0,0,1,1587,316a11.55,11.55,0,0,1,2.37-7.65,7.9,7.9,0,0,1,6.37-2.83,7.51,7.51,0,0,1,5.92,2.46,9.46,9.46,0,0,1,2.18,6.5v1.9h-13.71a7.88,7.88,0,0,0,1.77,5.32,6.08,6.08,0,0,0,4.73,1.82,16.18,16.18,0,0,0,6.36-1.34v2.68a15.45,15.45,0,0,1-3,1A17,17,0,0,1,1596.47,326.12Zm-.82-18.1a4.92,4.92,0,0,0-3.82,1.56,7.2,7.2,0,0,0-1.68,4.32h10.41a6.68,6.68,0,0,0-1.27-4.37A4.48,4.48,0,0,0,1595.65,308Zm-2.23-5.25c.58-.75,1.21-1.66,1.88-2.73a31.14,31.14,0,0,0,1.59-2.78h3.67v.39a29,29,0,0,1-2.38,2.9,27.21,27.21,0,0,1-2.75,2.67h-2Z"/><path d="M1618,305.49a11.48,11.48,0,0,1,2.38.22l-.42,2.8a9.78,9.78,0,0,0-2.18-.28,5.31,5.31,0,0,0-4.13,2,7.15,7.15,0,0,0-1.72,4.88v10.68h-3V305.85h2.49l.34,3.69h.15a8.92,8.92,0,0,1,2.67-3A6,6,0,0,1,1618,305.49Z"/><path d="M1649.49,325.76V312.81a5.36,5.36,0,0,0-1-3.57,3.94,3.94,0,0,0-3.16-1.19,5.1,5.1,0,0,0-4.16,1.62,7.67,7.67,0,0,0-1.34,5v11.11h-3V312.81a5.36,5.36,0,0,0-1-3.57,4,4,0,0,0-3.18-1.19,4.94,4.94,0,0,0-4.15,1.7q-1.31,1.69-1.31,5.57v10.44h-3V305.85h2.46l.49,2.73h.14a5.87,5.87,0,0,1,2.41-2.27,7.27,7.27,0,0,1,3.48-.82q4.67,0,6.1,3.38h.14a6.47,6.47,0,0,1,2.58-2.47,8,8,0,0,1,3.85-.91,6.74,6.74,0,0,1,5.06,1.74q1.68,1.72,1.68,5.54v13Z"/><path d="M1658.46,300.46a2,2,0,0,1,.51-1.52,1.78,1.78,0,0,1,1.27-.48,1.8,1.8,0,0,1,1.25.49,2,2,0,0,1,.53,1.51,2,2,0,0,1-.53,1.52,1.77,1.77,0,0,1-1.25.5,1.75,1.75,0,0,1-1.27-.5A2.05,2.05,0,0,1,1658.46,300.46Zm3.27,25.3h-3V305.85h3Z"/><path d="M1681.74,325.76V312.88a5.19,5.19,0,0,0-1.11-3.63,4.48,4.48,0,0,0-3.46-1.2,5.74,5.74,0,0,0-4.58,1.69q-1.46,1.69-1.45,5.58v10.44h-3V305.85h2.45l.49,2.73h.15a6.16,6.16,0,0,1,2.6-2.28,8.39,8.39,0,0,1,3.72-.81,7.53,7.53,0,0,1,5.41,1.74q1.82,1.72,1.82,5.54v13Z"/><path d="M1708.13,315.79c0,3.24-.81,5.78-2.45,7.6a8.63,8.63,0,0,1-6.77,2.73,8.93,8.93,0,0,1-4.74-1.25,8.21,8.21,0,0,1-3.2-3.6,12.53,12.53,0,0,1-1.13-5.48q0-4.86,2.44-7.58a8.6,8.6,0,0,1,6.75-2.72,8.43,8.43,0,0,1,6.64,2.78A10.93,10.93,0,0,1,1708.13,315.79Zm-15.16,0a9.49,9.49,0,0,0,1.52,5.81,6.05,6.05,0,0,0,9,0,9.37,9.37,0,0,0,1.54-5.82,9.23,9.23,0,0,0-1.54-5.77,5.39,5.39,0,0,0-4.53-2,5.31,5.31,0,0,0-4.47,1.95Q1693,311.94,1693,315.79Z"/></svg>