<svg id="Layer_1" data-name="Layer 1" xmlns="http://www.w3.org/2000/svg" viewBox="0 0 1944.09 345.92"><defs><style>.cls-1{fill:#ffe2a1;}.cls-2{fill:#3a68ad;}</style></defs><title>Fosforos_U01_02</title><rect class="cls-1" x="1785.69" y="144.65" width="13.75" height="237.11" transform="translate(2055.77 -1529.36) rotate(90)"/><path class="cls-2" d="M1878.16,270.08V256.33l55.78-3.27a10.14,10.14,0,0,1,10.15,10.14h0a10.14,10.14,0,0,1-10.15,10.15Z"/><rect class="cls-1" x="1161.03" y="32.97" width="13.75" height="237.11"/><path class="cls-2" d="M1174.77,65.93H1161l-3.28-55.78A10.15,10.15,0,0,1,1167.9,0h0a10.15,10.15,0,0,1,10.15,10.15Z"/><rect class="cls-1" x="1667.14" y="0.02" width="13.75" height="237.11" transform="translate(3348.02 237.15) rotate(180)"/><path class="cls-2" d="M1667.14,204.17h13.75l3.27,55.78A10.15,10.15,0,0,1,1674,270.1h0A10.16,10.16,0,0,1,1663.86,260Z"/><rect class="cls-1" x="1525.76" y="-108.41" width="13.75" height="237.11" transform="translate(1542.79 -1522.49) rotate(90)"/><path class="cls-2" d="M1618.23,17V3.27L1674,0a10.14,10.14,0,0,1,10.15,10.15h0A10.15,10.15,0,0,1,1674,20.3Z"/><rect class="cls-1" x="1414.08" y="32.97" width="13.75" height="237.11"/><path class="cls-2" d="M1427.83,65.93h-13.75l-3.27-55.78A10.14,10.14,0,0,1,1421,0h0a10.14,10.14,0,0,1,10.14,10.15Z"/><rect class="cls-1" x="1272.71" y="144.65" width="13.75" height="237.11" transform="translate(1542.79 -1016.38) rotate(90)"/><path class="cls-2" d="M1365.17,270.08V256.33l55.79-3.27a10.14,10.14,0,0,1,10.14,10.14h0A10.14,10.14,0,0,1,1421,273.35Z"/><rect class="cls-1" x="501.66" y="32.97" width="13.75" height="237.11"/><path class="cls-2" d="M515.41,65.93H501.66l-3.27-55.78A10.14,10.14,0,0,1,508.54,0h0a10.14,10.14,0,0,1,10.14,10.15Z"/><rect class="cls-1" x="866.4" y="-108.41" width="13.75" height="237.11" transform="translate(883.42 -863.13) rotate(90)"/><path class="cls-2" d="M958.87,17V3.27L1014.65,0a10.15,10.15,0,0,1,10.15,10.15h0a10.16,10.16,0,0,1-10.15,10.15Z"/><rect class="cls-1" x="754.72" y="32.97" width="13.75" height="237.11"/><path class="cls-2" d="M768.47,65.93H754.72l-3.28-55.78A10.15,10.15,0,0,1,761.59,0h0a10.14,10.14,0,0,1,10.15,10.15Z"/><rect class="cls-1" x="613.34" y="144.65" width="13.75" height="237.11" transform="translate(883.42 -357.01) rotate(90)"/><path class="cls-2" d="M705.81,270.08V256.33l55.78-3.27a10.14,10.14,0,0,1,10.15,10.14h0a10.14,10.14,0,0,1-10.15,10.15Z"/><rect class="cls-1" x="3.27" y="32.97" width="13.75" height="237.11"/><path class="cls-2" d="M17,65.93H3.27L0,10.15A10.14,10.14,0,0,1,10.15,0h0A10.15,10.15,0,0,1,20.3,10.15Z"/><rect class="cls-1" x="114.96" y="144.65" width="13.75" height="237.11" transform="translate(385.03 141.37) rotate(90)"/><path class="cls-2" d="M207.42,270.08V256.33l55.78-3.27a10.14,10.14,0,0,1,10.15,10.14h0a10.14,10.14,0,0,1-10.15,10.15Z"/><path d="M43.55,307.25a7.4,7.4,0,0,1-2.75,6.2c-1.83,1.45-4.46,2.17-7.87,2.17H29.8v10.45H26.72V299.51H33.6Q43.56,299.51,43.55,307.25ZM29.8,313h2.78q4.11,0,5.94-1.32a4.88,4.88,0,0,0,1.84-4.25,4.59,4.59,0,0,0-1.73-3.93q-1.73-1.29-5.37-1.29H29.8Z"/><path d="M57.74,305.8a11.48,11.48,0,0,1,2.38.22l-.42,2.79a10.33,10.33,0,0,0-2.18-.27,5.29,5.29,0,0,0-4.13,2,7.14,7.14,0,0,0-1.72,4.89v10.68h-3V306.16h2.49l.34,3.69h.15a8.53,8.53,0,0,1,2.67-3A6,6,0,0,1,57.74,305.8Z"/><path d="M63.59,300.77a2,2,0,0,1,.51-1.52,1.88,1.88,0,0,1,2.52,0,2.42,2.42,0,0,1,0,3,1.73,1.73,0,0,1-1.25.5,1.7,1.7,0,0,1-1.27-.5A2,2,0,0,1,63.59,300.77Zm3.27,25.3h-3V306.16h3Z"/><path d="M98.62,326.07V313.12a5.41,5.41,0,0,0-1-3.57,4,4,0,0,0-3.17-1.19A5.08,5.08,0,0,0,90.29,310a7.62,7.62,0,0,0-1.35,5v11.12h-3V313.12a5.36,5.36,0,0,0-1-3.57,4,4,0,0,0-3.18-1.19,4.93,4.93,0,0,0-4.15,1.7c-.88,1.13-1.32,3-1.32,5.56v10.45h-3V306.16H75.7l.49,2.73h.15a5.91,5.91,0,0,1,2.4-2.27,7.32,7.32,0,0,1,3.48-.82c3.11,0,5.15,1.13,6.1,3.38h.15a6.28,6.28,0,0,1,2.58-2.47,7.94,7.94,0,0,1,3.85-.91,6.77,6.77,0,0,1,5.06,1.73q1.68,1.74,1.68,5.55v13Z"/><path d="M116.26,326.43a9.13,9.13,0,0,1-7-2.69,10.4,10.4,0,0,1-2.55-7.46,11.55,11.55,0,0,1,2.37-7.65,7.87,7.87,0,0,1,6.37-2.83,7.52,7.52,0,0,1,5.92,2.46,9.43,9.43,0,0,1,2.18,6.49v1.91H109.86a7.93,7.93,0,0,0,1.78,5.32,6.12,6.12,0,0,0,4.73,1.82,15.93,15.93,0,0,0,6.35-1.35v2.69a15.83,15.83,0,0,1-3,1A17,17,0,0,1,116.26,326.43Zm-.82-18.11a4.89,4.89,0,0,0-3.82,1.57,7.2,7.2,0,0,0-1.68,4.32h10.4a6.62,6.62,0,0,0-1.27-4.37A4.47,4.47,0,0,0,115.44,308.32Z"/><path d="M137.8,305.8a11.48,11.48,0,0,1,2.38.22l-.42,2.79a10.33,10.33,0,0,0-2.18-.27,5.29,5.29,0,0,0-4.13,2,7.14,7.14,0,0,0-1.72,4.89v10.68h-3V306.16h2.49l.34,3.69h.15a8.53,8.53,0,0,1,2.67-3A6,6,0,0,1,137.8,305.8Z"/><path d="M160,323.94a11.09,11.09,0,0,0,1.55-.11,9.34,9.34,0,0,0,1.18-.25v2.31a6.2,6.2,0,0,1-1.45.39,11,11,0,0,1-1.71.15q-5.77,0-5.78-6.08V308.5h-2.85v-1.45l2.85-1.25,1.27-4.25h1.75v4.61h5.77v2.34H156.8v11.72a4,4,0,0,0,.85,2.76A3,3,0,0,0,160,323.94Z"/><path d="M175.1,326.43a9.11,9.11,0,0,1-7-2.69,10.4,10.4,0,0,1-2.55-7.46,11.55,11.55,0,0,1,2.37-7.65,7.86,7.86,0,0,1,6.36-2.83,7.49,7.49,0,0,1,5.92,2.46,9.39,9.39,0,0,1,2.18,6.49v1.91H168.71a7.88,7.88,0,0,0,1.77,5.32,6.13,6.13,0,0,0,4.73,1.82,16,16,0,0,0,6.36-1.35v2.69a16.06,16.06,0,0,1-3,1A17,17,0,0,1,175.1,326.43Zm-.81-18.11a4.91,4.91,0,0,0-3.83,1.57,7.2,7.2,0,0,0-1.68,4.32h10.41a6.62,6.62,0,0,0-1.27-4.37A4.48,4.48,0,0,0,174.29,308.32Zm-2.24-5.25c.58-.75,1.21-1.65,1.88-2.72a31.14,31.14,0,0,0,1.59-2.78h3.67V298a26.62,26.62,0,0,1-2.38,2.91,27.26,27.26,0,0,1-2.74,2.67h-2Z"/><path d="M196.64,305.8A11.41,11.41,0,0,1,199,306l-.41,2.79a10.41,10.41,0,0,0-2.18-.27,5.32,5.32,0,0,0-4.14,2,7.18,7.18,0,0,0-1.71,4.89v10.68h-3V306.16h2.49l.35,3.69h.14a8.73,8.73,0,0,1,2.67-3A6,6,0,0,1,196.64,305.8Z"/><path d="M228.12,326.07V313.12a5.36,5.36,0,0,0-1-3.57,3.94,3.94,0,0,0-3.16-1.19,5.11,5.11,0,0,0-4.16,1.62,7.68,7.68,0,0,0-1.34,5v11.12h-3V313.12a5.36,5.36,0,0,0-1-3.57,4,4,0,0,0-3.18-1.19,4.93,4.93,0,0,0-4.15,1.7c-.88,1.13-1.32,3-1.32,5.56v10.45h-3V306.16h2.45l.49,2.73h.15a5.84,5.84,0,0,1,2.4-2.27,7.32,7.32,0,0,1,3.48-.82c3.11,0,5.15,1.13,6.1,3.38H218a6.28,6.28,0,0,1,2.58-2.47,7.94,7.94,0,0,1,3.85-.91,6.77,6.77,0,0,1,5.06,1.73q1.68,1.74,1.68,5.55v13Z"/><path d="M237.09,300.77a2,2,0,0,1,.51-1.52,1.89,1.89,0,0,1,2.53,0,2.45,2.45,0,0,1,0,3,1.75,1.75,0,0,1-1.26.5,1.71,1.71,0,0,1-1.27-.5A2,2,0,0,1,237.09,300.77Zm3.27,25.3h-3V306.16h3Z"/><path d="M260.38,326.07V313.19a5.19,5.19,0,0,0-1.11-3.63,4.52,4.52,0,0,0-3.47-1.2,5.72,5.72,0,0,0-4.58,1.69c-1,1.13-1.45,3-1.45,5.57v10.45h-3V306.16h2.46l.49,2.73h.14a6.22,6.22,0,0,1,2.6-2.28,8.39,8.39,0,0,1,3.72-.81,7.62,7.62,0,0,1,5.42,1.73q1.82,1.74,1.81,5.55v13Z"/><path d="M286.77,316.1c0,3.24-.82,5.78-2.46,7.6a8.63,8.63,0,0,1-6.77,2.73,9,9,0,0,1-4.74-1.25,8.32,8.32,0,0,1-3.2-3.6,12.53,12.53,0,0,1-1.12-5.48q0-4.87,2.43-7.59a8.61,8.61,0,0,1,6.76-2.71,8.41,8.41,0,0,1,6.64,2.78A10.93,10.93,0,0,1,286.77,316.1Zm-15.17,0a9.42,9.42,0,0,0,1.53,5.81,5.29,5.29,0,0,0,4.48,2,5.36,5.36,0,0,0,4.5-2,9.44,9.44,0,0,0,1.53-5.82,9.27,9.27,0,0,0-1.53-5.77,5.42,5.42,0,0,0-4.53-2,5.31,5.31,0,0,0-4.47,1.94Q271.6,312.25,271.6,316.1Z"/><path d="M662.26,319a6.51,6.51,0,0,1-2.55,5.47,11,11,0,0,1-6.9,2,17.1,17.1,0,0,1-7.26-1.22v-3a19.39,19.39,0,0,0,7.37,1.48,7.63,7.63,0,0,0,4.65-1.17,3.84,3.84,0,0,0,1.56-3.26,4.18,4.18,0,0,0-.55-2.26,5.19,5.19,0,0,0-1.85-1.62,26.12,26.12,0,0,0-4-1.69,12.71,12.71,0,0,1-5.3-3.14,7,7,0,0,1-1.59-4.74A5.89,5.89,0,0,1,648.2,301a9.59,9.59,0,0,1,6.1-1.82,17.93,17.93,0,0,1,7.28,1.46l-1,2.68a16.44,16.44,0,0,0-6.39-1.38A6.18,6.18,0,0,0,650.4,303a3.46,3.46,0,0,0-1.38,2.92,4.56,4.56,0,0,0,.5,2.26,4.83,4.83,0,0,0,1.72,1.62,21.36,21.36,0,0,0,3.7,1.62c2.78,1,4.7,2.06,5.75,3.2A6.33,6.33,0,0,1,662.26,319Z"/><path d="M675.64,326.43a9.11,9.11,0,0,1-7-2.69,10.41,10.41,0,0,1-2.56-7.46,11.5,11.5,0,0,1,2.38-7.65,7.85,7.85,0,0,1,6.36-2.83,7.49,7.49,0,0,1,5.92,2.46,9.43,9.43,0,0,1,2.18,6.49v1.91H669.25A7.88,7.88,0,0,0,671,322a6.13,6.13,0,0,0,4.73,1.82,16,16,0,0,0,6.36-1.35v2.69a16.14,16.14,0,0,1-3,1A16.91,16.91,0,0,1,675.64,326.43Zm-.82-18.11a4.9,4.9,0,0,0-3.82,1.57,7.2,7.2,0,0,0-1.68,4.32h10.41a6.68,6.68,0,0,0-1.27-4.37A4.49,4.49,0,0,0,674.82,308.32Z"/><path d="M704.39,306.16v1.91l-3.68.43a6.48,6.48,0,0,1,.9,1.67,6.22,6.22,0,0,1,.4,2.31,5.89,5.89,0,0,1-2,4.67,8.09,8.09,0,0,1-5.49,1.74,8.89,8.89,0,0,1-1.67-.14,3,3,0,0,0-1.93,2.56,1.31,1.31,0,0,0,.68,1.21,4.86,4.86,0,0,0,2.3.39h3.53a7.85,7.85,0,0,1,5,1.36,4.73,4.73,0,0,1,1.74,4,5.68,5.68,0,0,1-2.65,5c-1.77,1.16-4.35,1.73-7.74,1.73a10.56,10.56,0,0,1-6-1.45,4.7,4.7,0,0,1-2.12-4.1,4.62,4.62,0,0,1,1.17-3.15,5.88,5.88,0,0,1,3.26-1.79,3.22,3.22,0,0,1-1.28-1.08,2.83,2.83,0,0,1-.51-1.68,3.18,3.18,0,0,1,.58-1.91,6.14,6.14,0,0,1,1.83-1.58,5.4,5.4,0,0,1-2.51-2.16,6.34,6.34,0,0,1-1-3.49,6.43,6.43,0,0,1,2-5,8,8,0,0,1,5.55-1.77,10.21,10.21,0,0,1,2.82.36Zm-15.87,23.25a2.68,2.68,0,0,0,1.36,2.45,7.5,7.5,0,0,0,3.91.84,10.86,10.86,0,0,0,5.62-1.14,3.47,3.47,0,0,0,1.82-3.08,2.43,2.43,0,0,0-1-2.24,7.71,7.71,0,0,0-3.76-.63h-3.61a4.8,4.8,0,0,0-3.2,1A3.53,3.53,0,0,0,688.52,329.41Zm1.63-16.87a4.09,4.09,0,0,0,1.18,3.16,4.75,4.75,0,0,0,3.29,1.07c2.94,0,4.42-1.43,4.42-4.29s-1.49-4.48-4.47-4.48a4.43,4.43,0,0,0-3.27,1.14A4.63,4.63,0,0,0,690.15,312.54Z"/><path d="M711.31,306.16v12.92a5.19,5.19,0,0,0,1.11,3.63,4.52,4.52,0,0,0,3.47,1.2,5.67,5.67,0,0,0,4.57-1.71q1.44-1.71,1.44-5.58V306.16h3v19.91h-2.49L722,323.4h-.16a6.05,6.05,0,0,1-2.57,2.25,8.67,8.67,0,0,1-3.75.78c-2.42,0-4.24-.57-5.44-1.72s-1.81-3-1.81-5.53v-13Z"/><path d="M744.93,326.07V313.19a5.19,5.19,0,0,0-1.11-3.63,4.49,4.49,0,0,0-3.47-1.2,5.7,5.7,0,0,0-4.57,1.69c-1,1.13-1.46,3-1.46,5.57v10.45h-3V306.16h2.45l.49,2.73h.15a6.13,6.13,0,0,1,2.59-2.28,8.47,8.47,0,0,1,3.73-.81,7.58,7.58,0,0,1,5.41,1.73q1.82,1.74,1.82,5.55v13Z"/><path d="M767.69,323.4h-.16a7.1,7.1,0,0,1-6.25,3,7.4,7.4,0,0,1-6.08-2.67c-1.44-1.78-2.17-4.31-2.17-7.59s.73-5.83,2.18-7.65a7.35,7.35,0,0,1,6.07-2.72,7.24,7.24,0,0,1,6.21,2.94h.24l-.13-1.43-.07-1.4v-8.1h3v28.26h-2.45Zm-6,.51a5.5,5.5,0,0,0,4.48-1.68c.92-1.12,1.39-2.93,1.39-5.42v-.64q0-4.23-1.41-6a5.37,5.37,0,0,0-4.5-1.81,4.62,4.62,0,0,0-4.06,2.06,10.36,10.36,0,0,0-1.4,5.83,9.82,9.82,0,0,0,1.39,5.75A4.74,4.74,0,0,0,761.66,323.91Z"/><path d="M794.12,316.1c0,3.24-.82,5.78-2.46,7.6a8.63,8.63,0,0,1-6.77,2.73,9,9,0,0,1-4.74-1.25,8.32,8.32,0,0,1-3.2-3.6,12.53,12.53,0,0,1-1.12-5.48q0-4.87,2.43-7.59A8.6,8.6,0,0,1,785,305.8a8.39,8.39,0,0,1,6.63,2.78A10.89,10.89,0,0,1,794.12,316.1Zm-15.17,0a9.42,9.42,0,0,0,1.53,5.81,5.29,5.29,0,0,0,4.48,2,5.36,5.36,0,0,0,4.5-2A9.44,9.44,0,0,0,791,316.1a9.27,9.27,0,0,0-1.53-5.77,5.42,5.42,0,0,0-4.53-2,5.31,5.31,0,0,0-4.47,1.94Q778.95,312.25,779,316.1Z"/><path d="M815.49,323.94a11.09,11.09,0,0,0,1.55-.11,9.34,9.34,0,0,0,1.18-.25v2.31a6.2,6.2,0,0,1-1.45.39,11,11,0,0,1-1.71.15q-5.77,0-5.78-6.08V308.5h-2.85v-1.45l2.85-1.25,1.27-4.25h1.75v4.61h5.77v2.34H812.3v11.72a4,4,0,0,0,.85,2.76A3,3,0,0,0,815.49,323.94Z"/><path d="M830.6,326.43a9.11,9.11,0,0,1-7-2.69,10.4,10.4,0,0,1-2.55-7.46,11.55,11.55,0,0,1,2.37-7.65,7.86,7.86,0,0,1,6.36-2.83,7.49,7.49,0,0,1,5.92,2.46,9.39,9.39,0,0,1,2.18,6.49v1.91H824.21A7.88,7.88,0,0,0,826,322a6.13,6.13,0,0,0,4.73,1.82,16,16,0,0,0,6.36-1.35v2.69a16.06,16.06,0,0,1-3,1A17,17,0,0,1,830.6,326.43Zm-.81-18.11a4.91,4.91,0,0,0-3.83,1.57,7.2,7.2,0,0,0-1.68,4.32h10.41a6.62,6.62,0,0,0-1.27-4.37A4.48,4.48,0,0,0,829.79,308.32Zm-2.24-5.25c.58-.75,1.21-1.65,1.88-2.72a31.14,31.14,0,0,0,1.59-2.78h3.67V298a26.62,26.62,0,0,1-2.38,2.91,27.26,27.26,0,0,1-2.74,2.67h-2Z"/><path d="M852.14,305.8a11.41,11.41,0,0,1,2.38.22l-.41,2.79a10.41,10.41,0,0,0-2.18-.27,5.32,5.32,0,0,0-4.14,2,7.18,7.18,0,0,0-1.71,4.89v10.68h-3V306.16h2.49l.35,3.69H846a8.73,8.73,0,0,1,2.67-3A6,6,0,0,1,852.14,305.8Z"/><path d="M883.62,326.07V313.12a5.36,5.36,0,0,0-1-3.57,3.94,3.94,0,0,0-3.16-1.19,5.11,5.11,0,0,0-4.16,1.62,7.68,7.68,0,0,0-1.34,5v11.12h-3V313.12a5.36,5.36,0,0,0-1-3.57,4,4,0,0,0-3.18-1.19,4.93,4.93,0,0,0-4.15,1.7c-.88,1.13-1.32,3-1.32,5.56v10.45h-3V306.16h2.45l.49,2.73h.14a5.93,5.93,0,0,1,2.41-2.27,7.32,7.32,0,0,1,3.48-.82c3.11,0,5.15,1.13,6.1,3.38h.15a6.28,6.28,0,0,1,2.58-2.47,7.94,7.94,0,0,1,3.85-.91,6.73,6.73,0,0,1,5.05,1.73c1.12,1.16,1.69,3,1.69,5.55v13Z"/><path d="M892.59,300.77a2,2,0,0,1,.51-1.52,1.89,1.89,0,0,1,2.53,0,2.45,2.45,0,0,1,0,3,1.75,1.75,0,0,1-1.26.5,1.71,1.71,0,0,1-1.27-.5A2,2,0,0,1,892.59,300.77Zm3.27,25.3h-3V306.16h3Z"/><path d="M915.88,326.07V313.19a5.19,5.19,0,0,0-1.11-3.63,4.52,4.52,0,0,0-3.47-1.2,5.72,5.72,0,0,0-4.58,1.69c-1,1.13-1.45,3-1.45,5.57v10.45h-3V306.16h2.46l.49,2.73h.14a6.22,6.22,0,0,1,2.6-2.28,8.39,8.39,0,0,1,3.72-.81,7.62,7.62,0,0,1,5.42,1.73q1.81,1.74,1.81,5.55v13Z"/><path d="M942.27,316.1c0,3.24-.82,5.78-2.46,7.6a8.63,8.63,0,0,1-6.77,2.73,9,9,0,0,1-4.74-1.25,8.32,8.32,0,0,1-3.2-3.6A12.53,12.53,0,0,1,924,316.1q0-4.87,2.43-7.59a8.61,8.61,0,0,1,6.76-2.71,8.42,8.42,0,0,1,6.64,2.78A10.93,10.93,0,0,1,942.27,316.1Zm-15.17,0a9.42,9.42,0,0,0,1.53,5.81,5.29,5.29,0,0,0,4.48,2,5.36,5.36,0,0,0,4.5-2,9.44,9.44,0,0,0,1.53-5.82,9.27,9.27,0,0,0-1.53-5.77,5.42,5.42,0,0,0-4.53-2,5.31,5.31,0,0,0-4.47,1.94Q927.1,312.25,927.1,316.1Z"/><path d="M1463.5,326.07h-3.08V302.26H1452v-2.75h19.9v2.75h-8.41Z"/><path d="M1483.86,326.43a9.11,9.11,0,0,1-7-2.69,10.4,10.4,0,0,1-2.55-7.46,11.55,11.55,0,0,1,2.37-7.65,7.86,7.86,0,0,1,6.36-2.83,7.49,7.49,0,0,1,5.92,2.46,9.39,9.39,0,0,1,2.18,6.49v1.91h-13.71a7.88,7.88,0,0,0,1.77,5.32,6.13,6.13,0,0,0,4.73,1.82,16,16,0,0,0,6.36-1.35v2.69a15.91,15.91,0,0,1-3,1A16.91,16.91,0,0,1,1483.86,326.43Zm-.81-18.11a4.91,4.91,0,0,0-3.83,1.57,7.2,7.2,0,0,0-1.68,4.32H1488a6.62,6.62,0,0,0-1.27-4.37A4.48,4.48,0,0,0,1483.05,308.32Z"/><path d="M1505.4,305.8a11.41,11.41,0,0,1,2.38.22l-.42,2.79a10.32,10.32,0,0,0-2.17-.27,5.31,5.31,0,0,0-4.14,2,7.18,7.18,0,0,0-1.71,4.89v10.68h-3V306.16h2.49l.35,3.69h.14a8.73,8.73,0,0,1,2.67-3A6,6,0,0,1,1505.4,305.8Z"/><path d="M1519.46,326.43a8.5,8.5,0,0,1-6.69-2.66q-2.37-2.65-2.37-7.53t2.4-7.72a8.69,8.69,0,0,1,6.86-2.72,13.34,13.34,0,0,1,2.87.31,9.46,9.46,0,0,1,2.25.72l-.92,2.57a14.66,14.66,0,0,0-2.18-.67,10.15,10.15,0,0,0-2.09-.26q-6.08,0-6.07,7.74a9.27,9.27,0,0,0,1.48,5.63,5.18,5.18,0,0,0,4.39,2,13.46,13.46,0,0,0,5.1-1.07v2.67A10.88,10.88,0,0,1,1519.46,326.43Z"/><path d="M1537.62,326.43a9.11,9.11,0,0,1-7-2.69,10.4,10.4,0,0,1-2.55-7.46,11.55,11.55,0,0,1,2.37-7.65,7.86,7.86,0,0,1,6.36-2.83,7.49,7.49,0,0,1,5.92,2.46,9.39,9.39,0,0,1,2.18,6.49v1.91h-13.71A7.88,7.88,0,0,0,1533,322a6.13,6.13,0,0,0,4.73,1.82,16,16,0,0,0,6.36-1.35v2.69a16.06,16.06,0,0,1-3,1A17.09,17.09,0,0,1,1537.62,326.43Zm-.81-18.11a4.91,4.91,0,0,0-3.83,1.57,7.2,7.2,0,0,0-1.68,4.32h10.41a6.62,6.62,0,0,0-1.27-4.37A4.48,4.48,0,0,0,1536.81,308.32Z"/><path d="M1559.16,305.8a11.41,11.41,0,0,1,2.38.22l-.41,2.79a10.41,10.41,0,0,0-2.18-.27,5.32,5.32,0,0,0-4.14,2,7.18,7.18,0,0,0-1.71,4.89v10.68h-3V306.16h2.49l.35,3.69h.14a8.73,8.73,0,0,1,2.67-3A6,6,0,0,1,1559.16,305.8Z"/><path d="M1581.36,323.94a10.94,10.94,0,0,0,1.54-.11,9,9,0,0,0,1.18-.25v2.31a6,6,0,0,1-1.44.39,11.23,11.23,0,0,1-1.72.15q-5.78,0-5.77-6.08V308.5h-2.85v-1.45l2.85-1.25,1.27-4.25h1.74v4.61h5.78v2.34h-5.78v11.72A4,4,0,0,0,1579,323,3,3,0,0,0,1581.36,323.94Z"/><path d="M1596.47,326.43a9.15,9.15,0,0,1-7-2.69,10.4,10.4,0,0,1-2.55-7.46,11.55,11.55,0,0,1,2.37-7.65,7.87,7.87,0,0,1,6.37-2.83,7.51,7.51,0,0,1,5.92,2.46,9.43,9.43,0,0,1,2.18,6.49v1.91h-13.71a7.88,7.88,0,0,0,1.77,5.32,6.12,6.12,0,0,0,4.73,1.82,16,16,0,0,0,6.36-1.35v2.69a16.14,16.14,0,0,1-3,1A17,17,0,0,1,1596.47,326.43Zm-.82-18.11a4.89,4.89,0,0,0-3.82,1.57,7.2,7.2,0,0,0-1.68,4.32h10.41a6.68,6.68,0,0,0-1.27-4.37A4.49,4.49,0,0,0,1595.65,308.32Zm-2.23-5.25c.58-.75,1.21-1.65,1.88-2.72a31.14,31.14,0,0,0,1.59-2.78h3.67V298a27.86,27.86,0,0,1-2.38,2.91,27.21,27.21,0,0,1-2.75,2.67h-2Z"/><path d="M1618,305.8a11.48,11.48,0,0,1,2.38.22l-.42,2.79a10.33,10.33,0,0,0-2.18-.27,5.3,5.3,0,0,0-4.13,2,7.19,7.19,0,0,0-1.72,4.89v10.68h-3V306.16h2.49l.34,3.69h.15a8.73,8.73,0,0,1,2.67-3A6,6,0,0,1,1618,305.8Z"/><path d="M1649.49,326.07V313.12a5.36,5.36,0,0,0-1-3.57,3.94,3.94,0,0,0-3.16-1.19,5.1,5.1,0,0,0-4.16,1.62,7.63,7.63,0,0,0-1.34,5v11.12h-3V313.12a5.36,5.36,0,0,0-1-3.57,4,4,0,0,0-3.18-1.19,4.94,4.94,0,0,0-4.15,1.7c-.87,1.13-1.31,3-1.31,5.56v10.45h-3V306.16h2.46l.49,2.73h.14a5.87,5.87,0,0,1,2.41-2.27,7.27,7.27,0,0,1,3.48-.82q4.67,0,6.1,3.38h.14a6.4,6.4,0,0,1,2.58-2.47,8,8,0,0,1,3.85-.91,6.77,6.77,0,0,1,5.06,1.73q1.68,1.74,1.68,5.55v13Z"/><path d="M1658.46,300.77a2,2,0,0,1,.51-1.52,1.88,1.88,0,0,1,2.52,0,2.42,2.42,0,0,1,0,3,1.73,1.73,0,0,1-1.25.5,1.71,1.71,0,0,1-1.27-.5A2,2,0,0,1,1658.46,300.77Zm3.27,25.3h-3V306.16h3Z"/><path d="M1681.74,326.07V313.19a5.19,5.19,0,0,0-1.11-3.63,4.48,4.48,0,0,0-3.46-1.2,5.71,5.71,0,0,0-4.58,1.69c-1,1.13-1.45,3-1.45,5.57v10.45h-3V306.16h2.45l.49,2.73h.15a6.16,6.16,0,0,1,2.6-2.28,8.39,8.39,0,0,1,3.72-.81,7.58,7.58,0,0,1,5.41,1.73q1.82,1.74,1.82,5.55v13Z"/><path d="M1708.13,316.1c0,3.24-.81,5.78-2.45,7.6a8.63,8.63,0,0,1-6.77,2.73,9,9,0,0,1-4.74-1.25,8.32,8.32,0,0,1-3.2-3.6,12.53,12.53,0,0,1-1.13-5.48q0-4.87,2.44-7.59a8.59,8.59,0,0,1,6.75-2.71,8.39,8.39,0,0,1,6.64,2.78A10.93,10.93,0,0,1,1708.13,316.1Zm-15.16,0a9.49,9.49,0,0,0,1.52,5.81,6.05,6.05,0,0,0,9,0,9.37,9.37,0,0,0,1.54-5.82,9.21,9.21,0,0,0-1.54-5.77,5.39,5.39,0,0,0-4.53-2,5.33,5.33,0,0,0-4.47,1.94A9.41,9.41,0,0,0,1693,316.1Z"/></svg>