<svg id="Layer_1" data-name="Layer 1" xmlns="http://www.w3.org/2000/svg" viewBox="0 0 1617.16 330.65"><defs><style>.cls-1{fill:#ffe2a1;}.cls-2{fill:#3a68ad;}</style></defs><title>Fosforos_U01_01</title><rect class="cls-1" x="1094.02" y="32.97" width="13.75" height="237.11"/><path class="cls-2" d="M1107.77,65.93H1094l-3.27-55.78A10.14,10.14,0,0,1,1100.9,0h0a10.15,10.15,0,0,1,10.15,10.15Z"/><rect class="cls-1" x="1600.13" y="0.02" width="13.75" height="237.11" transform="translate(3214.02 237.15) rotate(180)"/><path class="cls-2" d="M1600.13,204.17h13.75l3.28,55.78A10.16,10.16,0,0,1,1607,270.1h0A10.15,10.15,0,0,1,1596.86,260Z"/><rect class="cls-1" x="1458.76" y="-108.41" width="13.75" height="237.11" transform="translate(1475.78 -1455.49) rotate(90)"/><path class="cls-2" d="M1551.23,17V3.27L1607,0a10.15,10.15,0,0,1,10.15,10.15h0A10.16,10.16,0,0,1,1607,20.3Z"/><rect class="cls-1" x="1347.08" y="32.97" width="13.75" height="237.11"/><path class="cls-2" d="M1360.83,65.93h-13.75l-3.28-55.78A10.15,10.15,0,0,1,1354,0h0a10.14,10.14,0,0,1,10.15,10.15Z"/><rect class="cls-1" x="1205.7" y="144.65" width="13.75" height="237.11" transform="translate(1475.78 -949.38) rotate(90)"/><path class="cls-2" d="M1298.17,270.08V256.33l55.78-3.27a10.14,10.14,0,0,1,10.15,10.14h0A10.14,10.14,0,0,1,1354,273.35Z"/><rect class="cls-1" x="595.64" y="32.97" width="13.75" height="237.11"/><path class="cls-2" d="M609.38,65.93H595.64l-3.28-55.78A10.15,10.15,0,0,1,602.51,0h0a10.15,10.15,0,0,1,10.15,10.15Z"/><rect class="cls-1" x="848.69" y="32.97" width="13.75" height="237.11"/><path class="cls-2" d="M862.44,65.93H848.69l-3.27-55.78A10.14,10.14,0,0,1,855.57,0h0a10.14,10.14,0,0,1,10.14,10.15Z"/><rect class="cls-1" x="707.32" y="144.65" width="13.75" height="237.11" transform="translate(977.4 -450.99) rotate(90)"/><path class="cls-2" d="M799.78,270.08V256.33l55.79-3.27a10.14,10.14,0,0,1,10.14,10.14h0a10.14,10.14,0,0,1-10.14,10.15Z"/><rect class="cls-1" x="97.25" y="32.97" width="13.75" height="237.11"/><path class="cls-2" d="M111,65.93H97.25L94,10.15A10.15,10.15,0,0,1,104.12,0h0a10.14,10.14,0,0,1,10.15,10.15Z"/><path d="M20.47,291.85a7.46,7.46,0,0,1-2.75,6.21c-1.84,1.44-4.46,2.17-7.88,2.17H6.72v10.44H3.63V284.12h6.89Q20.46,284.12,20.47,291.85ZM6.72,297.58H9.5c2.73,0,4.71-.45,5.94-1.33A4.89,4.89,0,0,0,17.27,292a4.57,4.57,0,0,0-1.72-3.92c-1.15-.86-3-1.29-5.38-1.29H6.72Z"/><path d="M34.65,290.4a11.41,11.41,0,0,1,2.38.22l-.42,2.8a10.4,10.4,0,0,0-2.17-.28,5.32,5.32,0,0,0-4.14,2A7.14,7.14,0,0,0,28.59,300v10.68h-3v-19.9h2.49l.35,3.68h.14a8.78,8.78,0,0,1,2.67-3A6,6,0,0,1,34.65,290.4Z"/><path d="M40.5,285.37a2,2,0,0,1,.51-1.52,1.88,1.88,0,0,1,2.52,0,1.94,1.94,0,0,1,.53,1.51,2,2,0,0,1-.53,1.52,1.84,1.84,0,0,1-2.52,0A2.05,2.05,0,0,1,40.5,285.37Zm3.27,25.3h-3v-19.9h3Z"/><path d="M75.54,310.67V297.72a5.39,5.39,0,0,0-1-3.57A3.94,3.94,0,0,0,71.36,293a5.1,5.1,0,0,0-4.16,1.62,7.67,7.67,0,0,0-1.34,5v11.11h-3V297.72a5.39,5.39,0,0,0-1-3.57A3.94,3.94,0,0,0,58.65,293a4.92,4.92,0,0,0-4.15,1.7q-1.32,1.69-1.32,5.57v10.44h-3v-19.9h2.46l.49,2.72h.14a5.87,5.87,0,0,1,2.41-2.27,7.27,7.27,0,0,1,3.48-.82q4.66,0,6.1,3.38h.14A6.47,6.47,0,0,1,68,291.31a8,8,0,0,1,3.85-.91,6.72,6.72,0,0,1,5.06,1.74q1.68,1.73,1.68,5.55v13Z"/><path d="M93.17,311a9.14,9.14,0,0,1-7-2.68,10.43,10.43,0,0,1-2.55-7.47A11.5,11.5,0,0,1,86,293.24a7.87,7.87,0,0,1,6.36-2.84,7.49,7.49,0,0,1,5.92,2.46,9.41,9.41,0,0,1,2.18,6.5v1.9H86.78a7.88,7.88,0,0,0,1.77,5.32,6.1,6.1,0,0,0,4.73,1.82,16.18,16.18,0,0,0,6.36-1.34v2.68a15.45,15.45,0,0,1-3,1A16.91,16.91,0,0,1,93.17,311Zm-.81-18.1a4.94,4.94,0,0,0-3.83,1.56,7.2,7.2,0,0,0-1.68,4.32H97.26A6.68,6.68,0,0,0,96,294.44,4.48,4.48,0,0,0,92.36,292.93Z"/><path d="M114.71,290.4a11.41,11.41,0,0,1,2.38.22l-.42,2.8a10.4,10.4,0,0,0-2.17-.28,5.32,5.32,0,0,0-4.14,2,7.14,7.14,0,0,0-1.71,4.88v10.68h-3v-19.9h2.49l.35,3.68h.14a8.78,8.78,0,0,1,2.67-3A6,6,0,0,1,114.71,290.4Z"/><path d="M136.91,308.55a9.7,9.7,0,0,0,1.54-.12,9,9,0,0,0,1.18-.25v2.31a5.26,5.26,0,0,1-1.44.39,11.23,11.23,0,0,1-1.72.15c-3.85,0-5.77-2-5.77-6.08V293.11h-2.86v-1.45l2.86-1.26,1.27-4.25h1.74v4.62h5.78v2.34h-5.78v11.71a4.07,4.07,0,0,0,.85,2.76A3,3,0,0,0,136.91,308.55Z"/><path d="M152,311a9.16,9.16,0,0,1-7-2.68,10.43,10.43,0,0,1-2.55-7.47,11.5,11.5,0,0,1,2.37-7.64,7.87,7.87,0,0,1,6.37-2.84,7.51,7.51,0,0,1,5.92,2.46,9.46,9.46,0,0,1,2.18,6.5v1.9H145.63a7.88,7.88,0,0,0,1.77,5.32,6.08,6.08,0,0,0,4.73,1.82,16.09,16.09,0,0,0,6.35-1.34v2.68a15.16,15.16,0,0,1-3,1A17,17,0,0,1,152,311Zm-.82-18.1a4.92,4.92,0,0,0-3.82,1.56,7.2,7.2,0,0,0-1.68,4.32h10.41a6.62,6.62,0,0,0-1.28-4.37A4.45,4.45,0,0,0,151.2,292.93ZM149,287.68c.58-.75,1.21-1.66,1.88-2.73a31.14,31.14,0,0,0,1.59-2.78h3.67v.39a29,29,0,0,1-2.38,2.9,27.21,27.21,0,0,1-2.75,2.67h-2Z"/><path d="M173.56,290.4a11.48,11.48,0,0,1,2.38.22l-.42,2.8a10.41,10.41,0,0,0-2.18-.28,5.3,5.3,0,0,0-4.13,2,7.15,7.15,0,0,0-1.72,4.88v10.68h-3v-19.9H167l.34,3.68h.15a8.78,8.78,0,0,1,2.67-3A5.94,5.94,0,0,1,173.56,290.4Z"/><path d="M205,310.67V297.72a5.39,5.39,0,0,0-1-3.57,3.94,3.94,0,0,0-3.16-1.19,5.09,5.09,0,0,0-4.16,1.62,7.67,7.67,0,0,0-1.35,5v11.11h-3V297.72a5.39,5.39,0,0,0-1-3.57,4,4,0,0,0-3.18-1.19,4.93,4.93,0,0,0-4.15,1.7q-1.31,1.69-1.31,5.57v10.44h-3v-19.9h2.45l.49,2.72h.15a5.87,5.87,0,0,1,2.41-2.27,7.26,7.26,0,0,1,3.47-.82c3.12,0,5.15,1.13,6.11,3.38h.14a6.47,6.47,0,0,1,2.58-2.47,8,8,0,0,1,3.85-.91,6.74,6.74,0,0,1,5.06,1.74q1.68,1.73,1.68,5.55v13Z"/><path d="M214,285.37a2,2,0,0,1,.51-1.52,1.76,1.76,0,0,1,1.27-.48,1.8,1.8,0,0,1,1.25.49,2,2,0,0,1,.53,1.51,2,2,0,0,1-.53,1.52,1.77,1.77,0,0,1-1.25.5,1.73,1.73,0,0,1-1.27-.5A2.05,2.05,0,0,1,214,285.37Zm3.27,25.3h-3v-19.9h3Z"/><path d="M237.29,310.67V297.79a5.19,5.19,0,0,0-1.11-3.63,4.51,4.51,0,0,0-3.47-1.2,5.73,5.73,0,0,0-4.57,1.69q-1.45,1.69-1.46,5.58v10.44h-3v-19.9h2.45l.49,2.72h.15a6.13,6.13,0,0,1,2.59-2.28,8.47,8.47,0,0,1,3.73-.81,7.53,7.53,0,0,1,5.41,1.74q1.81,1.73,1.82,5.55v13Z"/><path d="M263.68,300.7q0,4.88-2.45,7.6a8.65,8.65,0,0,1-6.78,2.73,8.93,8.93,0,0,1-4.74-1.25,8.22,8.22,0,0,1-3.19-3.59,12.57,12.57,0,0,1-1.13-5.49q0-4.86,2.44-7.58a8.6,8.6,0,0,1,6.75-2.72,8.43,8.43,0,0,1,6.64,2.78A10.93,10.93,0,0,1,263.68,300.7Zm-15.16,0a9.43,9.43,0,0,0,1.52,5.81,6.05,6.05,0,0,0,9,0,9.35,9.35,0,0,0,1.54-5.82,9.23,9.23,0,0,0-1.54-5.77,5.39,5.39,0,0,0-4.53-2,5.31,5.31,0,0,0-4.47,2Q248.52,296.84,248.52,300.7Z"/><path d="M625.1,303.61a6.49,6.49,0,0,1-2.55,5.46,11,11,0,0,1-6.9,2,17.27,17.27,0,0,1-7.26-1.21v-3a19.26,19.26,0,0,0,3.56,1.09,18.41,18.41,0,0,0,3.81.4,7.7,7.7,0,0,0,4.65-1.17A3.85,3.85,0,0,0,622,303.9a4.16,4.16,0,0,0-.55-2.26,5.21,5.21,0,0,0-1.85-1.63,26.12,26.12,0,0,0-4-1.69,12.61,12.61,0,0,1-5.3-3.14,6.93,6.93,0,0,1-1.59-4.74,5.89,5.89,0,0,1,2.31-4.89,9.59,9.59,0,0,1,6.1-1.81,17.93,17.93,0,0,1,7.28,1.45l-1,2.69a16.44,16.44,0,0,0-6.39-1.38,6.18,6.18,0,0,0-3.83,1.05,3.47,3.47,0,0,0-1.38,2.92,4.62,4.62,0,0,0,.5,2.27,4.9,4.9,0,0,0,1.72,1.61,22,22,0,0,0,3.7,1.63,14.77,14.77,0,0,1,5.75,3.19A6.34,6.34,0,0,1,625.1,303.61Z"/><path d="M638.48,311a9.14,9.14,0,0,1-7-2.68,10.43,10.43,0,0,1-2.55-7.47,11.45,11.45,0,0,1,2.37-7.64,7.87,7.87,0,0,1,6.36-2.84,7.49,7.49,0,0,1,5.92,2.46,9.41,9.41,0,0,1,2.18,6.5v1.9H632.09a7.88,7.88,0,0,0,1.77,5.32,6.1,6.1,0,0,0,4.73,1.82,16.18,16.18,0,0,0,6.36-1.34v2.68a15.45,15.45,0,0,1-3,1A16.91,16.91,0,0,1,638.48,311Zm-.82-18.1a4.93,4.93,0,0,0-3.82,1.56,7.2,7.2,0,0,0-1.68,4.32h10.41a6.68,6.68,0,0,0-1.27-4.37A4.48,4.48,0,0,0,637.66,292.93Z"/><path d="M667.23,290.77v1.9l-3.68.44a6.12,6.12,0,0,1,.9,1.66,6.27,6.27,0,0,1,.4,2.32,5.86,5.86,0,0,1-2,4.66,8,8,0,0,1-5.49,1.75,8.87,8.87,0,0,1-1.67-.15,3,3,0,0,0-1.93,2.56,1.3,1.3,0,0,0,.68,1.21,4.86,4.86,0,0,0,2.3.39h3.53a7.85,7.85,0,0,1,5,1.36,4.73,4.73,0,0,1,1.74,4,5.65,5.65,0,0,1-2.65,5q-2.66,1.74-7.74,1.74a10.56,10.56,0,0,1-6-1.46,4.68,4.68,0,0,1-2.12-4.1,4.58,4.58,0,0,1,1.17-3.14,5.83,5.83,0,0,1,3.26-1.8A3.27,3.27,0,0,1,651.6,308a2.88,2.88,0,0,1-.51-1.69,3.2,3.2,0,0,1,.58-1.91,6.28,6.28,0,0,1,1.83-1.58A5.28,5.28,0,0,1,651,300.7a6.34,6.34,0,0,1-1-3.49,6.43,6.43,0,0,1,2-5,8,8,0,0,1,5.55-1.77,9.83,9.83,0,0,1,2.82.37ZM651.36,314a2.68,2.68,0,0,0,1.36,2.45,7.5,7.5,0,0,0,3.91.84,11,11,0,0,0,5.62-1.13,3.5,3.5,0,0,0,1.82-3.08,2.44,2.44,0,0,0-1-2.25,7.86,7.86,0,0,0-3.76-.62H655.7a4.75,4.75,0,0,0-3.2,1A3.5,3.5,0,0,0,651.36,314ZM653,297.14a4.07,4.07,0,0,0,1.18,3.16,4.71,4.71,0,0,0,3.29,1.07c2.94,0,4.42-1.43,4.42-4.28s-1.49-4.49-4.47-4.49a4.43,4.43,0,0,0-3.27,1.14A4.64,4.64,0,0,0,653,297.14Z"/><path d="M674.15,290.77v12.91a5.19,5.19,0,0,0,1.11,3.63,4.52,4.52,0,0,0,3.47,1.2,5.66,5.66,0,0,0,4.57-1.71c1-1.14,1.44-3,1.44-5.57V290.77h3v19.9h-2.49l-.44-2.67h-.16a6,6,0,0,1-2.57,2.25,8.67,8.67,0,0,1-3.75.78c-2.42,0-4.24-.57-5.44-1.72s-1.81-3-1.81-5.52v-13Z"/><path d="M707.77,310.67V297.79a5.19,5.19,0,0,0-1.11-3.63,4.49,4.49,0,0,0-3.47-1.2,5.73,5.73,0,0,0-4.57,1.69q-1.46,1.69-1.46,5.58v10.44h-3v-19.9h2.45l.49,2.72h.15a6.19,6.19,0,0,1,2.59-2.28,8.47,8.47,0,0,1,3.73-.81,7.53,7.53,0,0,1,5.41,1.74q1.81,1.73,1.82,5.55v13Z"/><path d="M730.53,308h-.16a7.1,7.1,0,0,1-6.25,3,7.4,7.4,0,0,1-6.08-2.67c-1.44-1.78-2.17-4.31-2.17-7.59s.73-5.83,2.18-7.64a7.33,7.33,0,0,1,6.07-2.73,7.24,7.24,0,0,1,6.21,2.94h.24l-.13-1.43-.07-1.4v-8.1h3v28.26h-2.45Zm-6,.51a5.5,5.5,0,0,0,4.48-1.68c.92-1.12,1.39-2.93,1.39-5.42v-.64q0-4.23-1.41-6a5.37,5.37,0,0,0-4.5-1.8A4.6,4.6,0,0,0,720.4,295a10.3,10.3,0,0,0-1.4,5.82,9.87,9.87,0,0,0,1.39,5.76A4.76,4.76,0,0,0,724.5,308.51Z"/><path d="M757,300.7q0,4.88-2.46,7.6a8.63,8.63,0,0,1-6.77,2.73,8.93,8.93,0,0,1-4.74-1.25,8.24,8.24,0,0,1-3.2-3.59,12.57,12.57,0,0,1-1.12-5.49q0-4.86,2.43-7.58a8.6,8.6,0,0,1,6.76-2.72,8.42,8.42,0,0,1,6.63,2.78A10.89,10.89,0,0,1,757,300.7Zm-15.17,0a9.42,9.42,0,0,0,1.53,5.81,6.05,6.05,0,0,0,9,0,9.42,9.42,0,0,0,1.53-5.82,9.29,9.29,0,0,0-1.53-5.77,5.42,5.42,0,0,0-4.53-2,5.29,5.29,0,0,0-4.47,2Q741.79,296.84,741.79,300.7Z"/><path d="M778.33,308.55a9.74,9.74,0,0,0,1.55-.12,9.34,9.34,0,0,0,1.18-.25v2.31a5.35,5.35,0,0,1-1.45.39,11,11,0,0,1-1.71.15c-3.85,0-5.78-2-5.78-6.08V293.11h-2.85v-1.45l2.85-1.26,1.27-4.25h1.75v4.62h5.77v2.34h-5.77v11.71a4,4,0,0,0,.85,2.76A3,3,0,0,0,778.33,308.55Z"/><path d="M793.44,311a9.14,9.14,0,0,1-7-2.68,10.43,10.43,0,0,1-2.55-7.47,11.5,11.5,0,0,1,2.37-7.64,7.87,7.87,0,0,1,6.36-2.84,7.49,7.49,0,0,1,5.92,2.46,9.41,9.41,0,0,1,2.18,6.5v1.9H787.05a7.88,7.88,0,0,0,1.77,5.32,6.1,6.1,0,0,0,4.73,1.82,16.14,16.14,0,0,0,6.36-1.34v2.68a15.37,15.37,0,0,1-3,1A17,17,0,0,1,793.44,311Zm-.81-18.1a4.94,4.94,0,0,0-3.83,1.56,7.2,7.2,0,0,0-1.68,4.32h10.41a6.62,6.62,0,0,0-1.27-4.37A4.48,4.48,0,0,0,792.63,292.93Zm-2.24-5.25c.58-.75,1.21-1.66,1.88-2.73a31.14,31.14,0,0,0,1.59-2.78h3.67v.39a27.66,27.66,0,0,1-2.38,2.9,27.26,27.26,0,0,1-2.74,2.67h-2Z"/><path d="M815,290.4a11.41,11.41,0,0,1,2.38.22l-.41,2.8a10.49,10.49,0,0,0-2.18-.28,5.33,5.33,0,0,0-4.14,2,7.14,7.14,0,0,0-1.71,4.88v10.68h-3v-19.9h2.49l.35,3.68h.14a8.78,8.78,0,0,1,2.67-3A6,6,0,0,1,815,290.4Z"/><path d="M846.46,310.67V297.72a5.39,5.39,0,0,0-1-3.57,3.94,3.94,0,0,0-3.16-1.19,5.11,5.11,0,0,0-4.16,1.62,7.73,7.73,0,0,0-1.34,5v11.11h-3V297.72a5.39,5.39,0,0,0-1-3.57,4,4,0,0,0-3.18-1.19,4.93,4.93,0,0,0-4.15,1.7q-1.32,1.69-1.32,5.57v10.44h-3v-19.9h2.45l.49,2.72h.14a5.93,5.93,0,0,1,2.41-2.27,7.32,7.32,0,0,1,3.48-.82c3.11,0,5.15,1.13,6.1,3.38h.15a6.34,6.34,0,0,1,2.58-2.47,7.94,7.94,0,0,1,3.85-.91,6.7,6.7,0,0,1,5,1.74q1.69,1.73,1.69,5.55v13Z"/><path d="M855.43,285.37a2,2,0,0,1,.51-1.52,1.78,1.78,0,0,1,1.27-.48,1.83,1.83,0,0,1,1.26.49,2,2,0,0,1,.52,1.51,2,2,0,0,1-.52,1.52,1.79,1.79,0,0,1-1.26.5,1.75,1.75,0,0,1-1.27-.5A2.05,2.05,0,0,1,855.43,285.37Zm3.27,25.3h-3v-19.9h3Z"/><path d="M878.72,310.67V297.79a5.19,5.19,0,0,0-1.11-3.63,4.52,4.52,0,0,0-3.47-1.2,5.75,5.75,0,0,0-4.58,1.69q-1.45,1.69-1.45,5.58v10.44h-3v-19.9h2.46l.49,2.72h.14a6.22,6.22,0,0,1,2.6-2.28,8.39,8.39,0,0,1,3.72-.81,7.58,7.58,0,0,1,5.42,1.74q1.82,1.73,1.81,5.55v13Z"/><path d="M905.11,300.7q0,4.88-2.46,7.6a8.63,8.63,0,0,1-6.77,2.73,8.93,8.93,0,0,1-4.74-1.25,8.24,8.24,0,0,1-3.2-3.59,12.57,12.57,0,0,1-1.12-5.49q0-4.86,2.43-7.58A8.62,8.62,0,0,1,896,290.4a8.45,8.45,0,0,1,6.64,2.78A10.93,10.93,0,0,1,905.11,300.7Zm-15.17,0a9.42,9.42,0,0,0,1.53,5.81,6.05,6.05,0,0,0,9,0A9.42,9.42,0,0,0,902,300.7a9.29,9.29,0,0,0-1.53-5.77,5.42,5.42,0,0,0-4.53-2,5.29,5.29,0,0,0-4.47,2Q889.94,296.84,889.94,300.7Z"/><path d="M1270.18,310.67h-3.08V286.86h-8.41v-2.74h19.9v2.74h-8.41Z"/><path d="M1290.54,311a9.14,9.14,0,0,1-7-2.68,10.43,10.43,0,0,1-2.55-7.47,11.5,11.5,0,0,1,2.37-7.64,7.87,7.87,0,0,1,6.36-2.84,7.49,7.49,0,0,1,5.92,2.46,9.41,9.41,0,0,1,2.18,6.5v1.9h-13.71a7.88,7.88,0,0,0,1.77,5.32,6.1,6.1,0,0,0,4.73,1.82,16.14,16.14,0,0,0,6.36-1.34v2.68a15.37,15.37,0,0,1-3,1A17,17,0,0,1,1290.54,311Zm-.81-18.1a4.94,4.94,0,0,0-3.83,1.56,7.2,7.2,0,0,0-1.68,4.32h10.41a6.62,6.62,0,0,0-1.27-4.37A4.48,4.48,0,0,0,1289.73,292.93Z"/><path d="M1312.08,290.4a11.41,11.41,0,0,1,2.38.22l-.41,2.8a10.49,10.49,0,0,0-2.18-.28,5.33,5.33,0,0,0-4.14,2A7.14,7.14,0,0,0,1306,300v10.68h-3v-19.9h2.49l.35,3.68h.14a8.78,8.78,0,0,1,2.67-3A6,6,0,0,1,1312.08,290.4Z"/><path d="M1326.14,311a8.47,8.47,0,0,1-6.69-2.66q-2.37-2.65-2.37-7.52c0-3.33.8-5.91,2.41-7.72a8.65,8.65,0,0,1,6.85-2.73,13.28,13.28,0,0,1,2.87.31,9.41,9.41,0,0,1,2.25.73l-.92,2.56a13.27,13.27,0,0,0-2.18-.66,9.58,9.58,0,0,0-2.09-.27q-6.06,0-6.07,7.74a9.25,9.25,0,0,0,1.48,5.63,5.15,5.15,0,0,0,4.39,2,13.46,13.46,0,0,0,5.1-1.07V310A10.88,10.88,0,0,1,1326.14,311Z"/><path d="M1344.3,311a9.14,9.14,0,0,1-7-2.68,10.43,10.43,0,0,1-2.55-7.47,11.5,11.5,0,0,1,2.37-7.64,7.87,7.87,0,0,1,6.36-2.84,7.49,7.49,0,0,1,5.92,2.46,9.41,9.41,0,0,1,2.18,6.5v1.9h-13.71a7.88,7.88,0,0,0,1.77,5.32,6.1,6.1,0,0,0,4.73,1.82,16.11,16.11,0,0,0,6.36-1.34v2.68a15.37,15.37,0,0,1-3,1A17,17,0,0,1,1344.3,311Zm-.81-18.1a4.94,4.94,0,0,0-3.83,1.56,7.2,7.2,0,0,0-1.68,4.32h10.41a6.62,6.62,0,0,0-1.27-4.37A4.48,4.48,0,0,0,1343.49,292.93Z"/><path d="M1365.85,290.4a11.38,11.38,0,0,1,2.37.22l-.41,2.8a10.49,10.49,0,0,0-2.18-.28,5.3,5.3,0,0,0-4.13,2,7.1,7.1,0,0,0-1.72,4.88v10.68h-3v-19.9h2.49l.35,3.68h.14a8.78,8.78,0,0,1,2.67-3A6,6,0,0,1,1365.85,290.4Z"/><path d="M1388,308.55a9.61,9.61,0,0,0,1.54-.12,9,9,0,0,0,1.18-.25v2.31a5.15,5.15,0,0,1-1.44.39,11.23,11.23,0,0,1-1.72.15c-3.85,0-5.77-2-5.77-6.08V293.11H1379v-1.45l2.85-1.26,1.27-4.25h1.74v4.62h5.78v2.34h-5.78v11.71a4,4,0,0,0,.86,2.76A3,3,0,0,0,1388,308.55Z"/><path d="M1403.15,311a9.14,9.14,0,0,1-7-2.68,10.39,10.39,0,0,1-2.56-7.47,11.5,11.5,0,0,1,2.37-7.64,7.89,7.89,0,0,1,6.37-2.84,7.51,7.51,0,0,1,5.92,2.46,9.46,9.46,0,0,1,2.18,6.5v1.9h-13.71a7.88,7.88,0,0,0,1.77,5.32,6.1,6.1,0,0,0,4.73,1.82,16.18,16.18,0,0,0,6.36-1.34v2.68a15.45,15.45,0,0,1-3,1A16.91,16.91,0,0,1,1403.15,311Zm-.82-18.1a4.93,4.93,0,0,0-3.82,1.56,7.2,7.2,0,0,0-1.68,4.32h10.41a6.68,6.68,0,0,0-1.27-4.37A4.48,4.48,0,0,0,1402.33,292.93Zm-2.23-5.25c.58-.75,1.21-1.66,1.88-2.73a31.14,31.14,0,0,0,1.59-2.78h3.67v.39a29,29,0,0,1-2.38,2.9,28.37,28.37,0,0,1-2.74,2.67h-2Z"/><path d="M1424.69,290.4a11.41,11.41,0,0,1,2.38.22l-.42,2.8a10.41,10.41,0,0,0-2.18-.28,5.31,5.31,0,0,0-4.13,2,7.14,7.14,0,0,0-1.71,4.88v10.68h-3v-19.9h2.49l.34,3.68h.15a8.78,8.78,0,0,1,2.67-3A5.94,5.94,0,0,1,1424.69,290.4Z"/><path d="M1456.17,310.67V297.72a5.39,5.39,0,0,0-1-3.57A3.94,3.94,0,0,0,1452,293a5.1,5.1,0,0,0-4.16,1.62,7.67,7.67,0,0,0-1.34,5v11.11h-3V297.72a5.39,5.39,0,0,0-1-3.57,3.94,3.94,0,0,0-3.17-1.19,4.92,4.92,0,0,0-4.15,1.7q-1.32,1.69-1.32,5.57v10.44h-3v-19.9h2.46l.49,2.72h.14a5.87,5.87,0,0,1,2.41-2.27,7.27,7.27,0,0,1,3.48-.82q4.67,0,6.1,3.38h.14a6.47,6.47,0,0,1,2.58-2.47,8,8,0,0,1,3.85-.91,6.72,6.72,0,0,1,5.06,1.74q1.68,1.73,1.68,5.55v13Z"/><path d="M1465.14,285.37a2,2,0,0,1,.51-1.52,1.78,1.78,0,0,1,1.27-.48,1.8,1.8,0,0,1,1.25.49,2,2,0,0,1,.53,1.51,2,2,0,0,1-.53,1.52,1.77,1.77,0,0,1-1.25.5,1.75,1.75,0,0,1-1.27-.5A2.05,2.05,0,0,1,1465.14,285.37Zm3.27,25.3h-3v-19.9h3Z"/><path d="M1488.42,310.67V297.79a5.24,5.24,0,0,0-1.1-3.63,4.52,4.52,0,0,0-3.47-1.2,5.74,5.74,0,0,0-4.58,1.69q-1.45,1.69-1.45,5.58v10.44h-3v-19.9h2.45l.49,2.72h.15a6.16,6.16,0,0,1,2.6-2.28,8.39,8.39,0,0,1,3.72-.81,7.53,7.53,0,0,1,5.41,1.74q1.82,1.73,1.82,5.55v13Z"/><path d="M1514.81,300.7c0,3.25-.81,5.78-2.45,7.6a8.63,8.63,0,0,1-6.77,2.73,8.93,8.93,0,0,1-4.74-1.25,8.24,8.24,0,0,1-3.2-3.59,12.57,12.57,0,0,1-1.13-5.49c0-3.24.82-5.77,2.44-7.58a8.6,8.6,0,0,1,6.75-2.72,8.43,8.43,0,0,1,6.64,2.78A10.93,10.93,0,0,1,1514.81,300.7Zm-15.16,0a9.49,9.49,0,0,0,1.52,5.81,6.06,6.06,0,0,0,9,0,9.42,9.42,0,0,0,1.53-5.82,9.29,9.29,0,0,0-1.53-5.77,5.43,5.43,0,0,0-4.54-2,5.28,5.28,0,0,0-4.46,2Q1499.65,296.84,1499.65,300.7Z"/></svg>