<svg id="Layer_1" data-name="Layer 1" xmlns="http://www.w3.org/2000/svg" viewBox="0 0 2420.51 346.32"><defs><style>.cls-1{fill:#ffe2a1;}.cls-2{fill:#3a68ad;}</style></defs><title>Fosforos_U01_05</title><rect class="cls-1" x="2403.48" width="13.75" height="237.11" transform="translate(4820.72 237.11) rotate(180)"/><path class="cls-2" d="M2403.48,204.15h13.75l3.28,55.78a10.15,10.15,0,0,1-10.15,10.15h0a10.14,10.14,0,0,1-10.15-10.15Z"/><rect class="cls-1" x="2262.11" y="-108.41" width="13.75" height="237.11" transform="translate(2279.13 -2258.84) rotate(90)"/><path class="cls-2" d="M2354.58,17V3.27L2410.36,0a10.15,10.15,0,0,1,10.15,10.15h0a10.16,10.16,0,0,1-10.15,10.15Z"/><rect class="cls-1" x="2150.43" y="32.97" width="13.75" height="237.11"/><path class="cls-2" d="M2164.18,65.93h-13.75l-3.27-55.78A10.14,10.14,0,0,1,2157.3,0h0a10.14,10.14,0,0,1,10.15,10.15Z"/><rect class="cls-1" x="2009.06" y="144.65" width="13.75" height="237.11" transform="translate(2279.13 -1752.73) rotate(90)"/><path class="cls-2" d="M2101.52,270.08V256.33l55.78-3.27a10.14,10.14,0,0,1,10.15,10.14h0a10.14,10.14,0,0,1-10.15,10.15Z"/><rect class="cls-1" x="1384.39" y="32.97" width="13.75" height="237.11"/><path class="cls-2" d="M1398.14,65.93h-13.75l-3.28-55.78A10.15,10.15,0,0,1,1391.26,0h0a10.14,10.14,0,0,1,10.15,10.15Z"/><rect class="cls-1" x="1890.5" y="0.02" width="13.75" height="237.11" transform="translate(3794.75 237.15) rotate(180)"/><path class="cls-2" d="M1890.5,204.17h13.75l3.27,55.78a10.15,10.15,0,0,1-10.15,10.15h0A10.16,10.16,0,0,1,1887.22,260Z"/><rect class="cls-1" x="1749.12" y="-108.41" width="13.75" height="237.11" transform="translate(1766.15 -1745.85) rotate(90)"/><path class="cls-2" d="M1841.59,17V3.27L1897.37,0a10.14,10.14,0,0,1,10.15,10.15h0a10.15,10.15,0,0,1-10.15,10.15Z"/><rect class="cls-1" x="1637.44" y="32.97" width="13.75" height="237.11"/><path class="cls-2" d="M1651.19,65.93h-13.75l-3.27-55.78A10.14,10.14,0,0,1,1644.32,0h0a10.15,10.15,0,0,1,10.15,10.15Z"/><rect class="cls-1" x="1496.07" y="144.65" width="13.75" height="237.11" transform="translate(1766.15 -1239.74) rotate(90)"/><path class="cls-2" d="M1588.54,270.08V256.33l55.78-3.27a10.15,10.15,0,0,1,10.15,10.14h0a10.15,10.15,0,0,1-10.15,10.15Z"/><rect class="cls-1" x="1101.58" y="144.65" width="13.75" height="237.11" transform="translate(1371.66 -845.25) rotate(90)"/><path class="cls-2" d="M1194.05,270.08V256.33l55.78-3.27A10.14,10.14,0,0,1,1260,263.2h0a10.14,10.14,0,0,1-10.15,10.15Z"/><rect class="cls-1" x="476.91" y="32.97" width="13.75" height="237.11"/><path class="cls-2" d="M490.66,65.93H476.91l-3.27-55.78A10.14,10.14,0,0,1,483.79,0h0a10.15,10.15,0,0,1,10.15,10.15Z"/><rect class="cls-1" x="983.02" y="0.02" width="13.75" height="237.11" transform="translate(1979.8 237.15) rotate(180)"/><path class="cls-2" d="M983,204.17h13.75l3.28,55.78A10.16,10.16,0,0,1,989.9,270.1h0A10.15,10.15,0,0,1,979.75,260Z"/><rect class="cls-1" x="841.65" y="-108.41" width="13.75" height="237.11" transform="translate(858.67 -838.38) rotate(90)"/><path class="cls-2" d="M934.12,17V3.27L989.9,0a10.15,10.15,0,0,1,10.15,10.15h0A10.16,10.16,0,0,1,989.9,20.3Z"/><rect class="cls-1" x="729.97" y="32.97" width="13.75" height="237.11"/><path class="cls-2" d="M743.72,65.93H730L726.7,10.15A10.14,10.14,0,0,1,736.84,0h0A10.14,10.14,0,0,1,747,10.15Z"/><rect class="cls-1" x="588.6" y="144.65" width="13.75" height="237.11" transform="translate(858.68 -332.26) rotate(90)"/><path class="cls-2" d="M681.06,270.09V256.34l55.78-3.28A10.15,10.15,0,0,1,747,263.21h0a10.14,10.14,0,0,1-10.15,10.15Z"/><rect class="cls-1" x="3.27" y="32.97" width="13.75" height="237.11"/><path class="cls-2" d="M17,65.93H3.27L0,10.15A10.14,10.14,0,0,1,10.15,0h0A10.15,10.15,0,0,1,20.3,10.15Z"/><rect class="cls-1" x="256.33" y="32.97" width="13.75" height="237.11"/><path class="cls-2" d="M270.08,65.93H256.33l-3.27-55.78A10.14,10.14,0,0,1,263.2,0h0a10.14,10.14,0,0,1,10.15,10.15Z"/><rect class="cls-1" x="114.96" y="144.65" width="13.75" height="237.11" transform="translate(385.03 141.37) rotate(90)"/><path class="cls-2" d="M207.42,270.08V256.33l55.78-3.27a10.14,10.14,0,0,1,10.15,10.14h0a10.14,10.14,0,0,1-10.15,10.15Z"/><path d="M43.55,307a7.43,7.43,0,0,1-2.75,6.2c-1.83,1.45-4.46,2.17-7.87,2.17H29.8v10.44H26.72V299.28H33.6Q43.56,299.28,43.55,307ZM29.8,312.74h2.78q4.11,0,5.94-1.33a4.87,4.87,0,0,0,1.84-4.25,4.59,4.59,0,0,0-1.73-3.92Q36.9,302,33.26,302H29.8Z"/><path d="M57.74,305.56a12.21,12.21,0,0,1,2.38.22l-.42,2.8a10.33,10.33,0,0,0-2.18-.27,5.29,5.29,0,0,0-4.13,2,7.12,7.12,0,0,0-1.72,4.88v10.68h-3v-19.9h2.49l.34,3.68h.15a8.58,8.58,0,0,1,2.67-3A5.94,5.94,0,0,1,57.74,305.56Z"/><path d="M63.59,300.53A2,2,0,0,1,64.1,299a1.73,1.73,0,0,1,1.27-.49,1.8,1.8,0,0,1,1.25.49,2,2,0,0,1,.53,1.51,2,2,0,0,1-.53,1.52,1.77,1.77,0,0,1-1.25.5,1.73,1.73,0,0,1-1.27-.5A2,2,0,0,1,63.59,300.53Zm3.27,25.3h-3v-19.9h3Z"/><path d="M98.62,325.83V312.88a5.45,5.45,0,0,0-1-3.57,4,4,0,0,0-3.17-1.19,5.08,5.08,0,0,0-4.15,1.62,7.67,7.67,0,0,0-1.35,5v11.11h-3V312.88a5.39,5.39,0,0,0-1-3.57,4,4,0,0,0-3.18-1.19,4.93,4.93,0,0,0-4.15,1.7q-1.32,1.69-1.32,5.57v10.44h-3v-19.9H75.7l.49,2.72h.15a6,6,0,0,1,2.4-2.27,7.44,7.44,0,0,1,3.48-.82c3.11,0,5.15,1.13,6.1,3.38h.15a6.34,6.34,0,0,1,2.58-2.47,8,8,0,0,1,3.85-.91A6.74,6.74,0,0,1,100,307.3q1.68,1.72,1.68,5.55v13Z"/><path d="M116.26,326.2a9.17,9.17,0,0,1-7-2.69q-2.55-2.68-2.55-7.47a11.52,11.52,0,0,1,2.37-7.64,7.87,7.87,0,0,1,6.37-2.84A7.52,7.52,0,0,1,121.4,308a9.46,9.46,0,0,1,2.18,6.5v1.9H109.86a8,8,0,0,0,1.78,5.33,6.11,6.11,0,0,0,4.73,1.81,16.09,16.09,0,0,0,6.35-1.34v2.69a15.83,15.83,0,0,1-3,1A17,17,0,0,1,116.26,326.2Zm-.82-18.11a4.92,4.92,0,0,0-3.82,1.56,7.2,7.2,0,0,0-1.68,4.32h10.4a6.62,6.62,0,0,0-1.27-4.37A4.46,4.46,0,0,0,115.44,308.09Z"/><path d="M137.8,305.56a12.21,12.21,0,0,1,2.38.22l-.42,2.8a10.33,10.33,0,0,0-2.18-.27,5.29,5.29,0,0,0-4.13,2,7.12,7.12,0,0,0-1.72,4.88v10.68h-3v-19.9h2.49l.34,3.68h.15a8.58,8.58,0,0,1,2.67-3A5.94,5.94,0,0,1,137.8,305.56Z"/><path d="M160,323.71a9.74,9.74,0,0,0,1.55-.12,9.34,9.34,0,0,0,1.18-.25v2.31a5.35,5.35,0,0,1-1.45.39,11.11,11.11,0,0,1-1.71.16q-5.77,0-5.78-6.09V308.27h-2.85v-1.45l2.85-1.26,1.27-4.25h1.75v4.62h5.77v2.34H156.8V320a4,4,0,0,0,.85,2.76A3,3,0,0,0,160,323.71Z"/><path d="M175.1,326.2a9.14,9.14,0,0,1-7-2.69q-2.55-2.68-2.55-7.47A11.52,11.52,0,0,1,168,308.4a7.87,7.87,0,0,1,6.36-2.84,7.49,7.49,0,0,1,5.92,2.46,9.41,9.41,0,0,1,2.18,6.5v1.9H168.71a7.9,7.9,0,0,0,1.77,5.33,6.13,6.13,0,0,0,4.73,1.81,16.14,16.14,0,0,0,6.36-1.34v2.69a16.06,16.06,0,0,1-3,1A17,17,0,0,1,175.1,326.2Zm-.81-18.11a4.94,4.94,0,0,0-3.83,1.56,7.2,7.2,0,0,0-1.68,4.32h10.41a6.62,6.62,0,0,0-1.27-4.37A4.48,4.48,0,0,0,174.29,308.09Zm-2.24-5.25c.58-.75,1.21-1.66,1.88-2.73s1.2-2,1.59-2.77h3.67v.38a27.66,27.66,0,0,1-2.38,2.9,27.26,27.26,0,0,1-2.74,2.67h-2Z"/><path d="M196.64,305.56a12.13,12.13,0,0,1,2.38.22l-.41,2.8a10.41,10.41,0,0,0-2.18-.27,5.32,5.32,0,0,0-4.14,2,7.16,7.16,0,0,0-1.71,4.88v10.68h-3v-19.9h2.49l.35,3.68h.14a8.78,8.78,0,0,1,2.67-3A6,6,0,0,1,196.64,305.56Z"/><path d="M228.12,325.83V312.88a5.39,5.39,0,0,0-1-3.57,3.94,3.94,0,0,0-3.16-1.19,5.11,5.11,0,0,0-4.16,1.62,7.73,7.73,0,0,0-1.34,5v11.11h-3V312.88a5.39,5.39,0,0,0-1-3.57,4,4,0,0,0-3.18-1.19,4.93,4.93,0,0,0-4.15,1.7q-1.32,1.69-1.32,5.57v10.44h-3v-19.9h2.45l.49,2.72h.15a5.91,5.91,0,0,1,2.4-2.27,7.44,7.44,0,0,1,3.48-.82c3.11,0,5.15,1.13,6.1,3.38H218a6.34,6.34,0,0,1,2.58-2.47,8,8,0,0,1,3.85-.91,6.74,6.74,0,0,1,5.06,1.74q1.68,1.72,1.68,5.55v13Z"/><path d="M237.09,300.53a2,2,0,0,1,.51-1.51,1.74,1.74,0,0,1,1.27-.49,1.83,1.83,0,0,1,1.26.49,2,2,0,0,1,.52,1.51,2,2,0,0,1-.52,1.52,1.79,1.79,0,0,1-1.26.5,1.75,1.75,0,0,1-1.27-.5A2,2,0,0,1,237.09,300.53Zm3.27,25.3h-3v-19.9h3Z"/><path d="M260.38,325.83V313a5.2,5.2,0,0,0-1.11-3.64,4.52,4.52,0,0,0-3.47-1.2,5.75,5.75,0,0,0-4.58,1.69q-1.46,1.69-1.45,5.58v10.44h-3v-19.9h2.46l.49,2.72h.14a6.22,6.22,0,0,1,2.6-2.28,8.39,8.39,0,0,1,3.72-.81,7.58,7.58,0,0,1,5.42,1.74q1.82,1.72,1.81,5.55v13Z"/><path d="M286.77,315.86q0,4.88-2.46,7.6a8.63,8.63,0,0,1-6.77,2.74,8.93,8.93,0,0,1-4.74-1.26,8.24,8.24,0,0,1-3.2-3.59,12.57,12.57,0,0,1-1.12-5.49q0-4.86,2.43-7.58a8.62,8.62,0,0,1,6.76-2.72,8.44,8.44,0,0,1,6.64,2.78A10.93,10.93,0,0,1,286.77,315.86Zm-15.17,0a9.42,9.42,0,0,0,1.53,5.81,5.26,5.26,0,0,0,4.48,2,5.33,5.33,0,0,0,4.5-2,9.4,9.4,0,0,0,1.53-5.82,9.29,9.29,0,0,0-1.53-5.77,5.42,5.42,0,0,0-4.53-2,5.29,5.29,0,0,0-4.47,1.95Q271.6,312,271.6,315.86Z"/><path d="M766.29,318.77a6.49,6.49,0,0,1-2.55,5.46,11,11,0,0,1-6.9,2,17.25,17.25,0,0,1-7.26-1.22v-3a19.26,19.26,0,0,0,3.56,1.09,18.41,18.41,0,0,0,3.81.4,7.7,7.7,0,0,0,4.65-1.17,3.85,3.85,0,0,0,1.56-3.26,4.16,4.16,0,0,0-.55-2.26,5.21,5.21,0,0,0-1.85-1.63,25.87,25.87,0,0,0-4-1.69,12.56,12.56,0,0,1-5.29-3.14,6.93,6.93,0,0,1-1.59-4.74,5.89,5.89,0,0,1,2.31-4.89,9.59,9.59,0,0,1,6.1-1.81,17.93,17.93,0,0,1,7.28,1.45l-1,2.69a16.44,16.44,0,0,0-6.39-1.38,6.18,6.18,0,0,0-3.83,1,3.46,3.46,0,0,0-1.39,2.93,4.47,4.47,0,0,0,.51,2.26,4.82,4.82,0,0,0,1.72,1.61,21.24,21.24,0,0,0,3.7,1.63c2.78,1,4.7,2.06,5.74,3.2A6.26,6.26,0,0,1,766.29,318.77Z"/><path d="M779.67,326.2a9.14,9.14,0,0,1-7-2.69q-2.57-2.68-2.56-7.47a11.52,11.52,0,0,1,2.37-7.64,7.89,7.89,0,0,1,6.37-2.84,7.51,7.51,0,0,1,5.92,2.46,9.46,9.46,0,0,1,2.18,6.5v1.9H773.28a7.9,7.9,0,0,0,1.77,5.33,6.13,6.13,0,0,0,4.73,1.81,16.18,16.18,0,0,0,6.36-1.34v2.69a16.14,16.14,0,0,1-3,1A16.91,16.91,0,0,1,779.67,326.2Zm-.82-18.11a4.93,4.93,0,0,0-3.82,1.56,7.2,7.2,0,0,0-1.68,4.32h10.41a6.68,6.68,0,0,0-1.27-4.37A4.48,4.48,0,0,0,778.85,308.09Z"/><path d="M808.42,305.93v1.9l-3.68.44a6.41,6.41,0,0,1,.9,1.66,6.27,6.27,0,0,1,.4,2.32,5.86,5.86,0,0,1-2,4.66,8.06,8.06,0,0,1-5.49,1.75,8.87,8.87,0,0,1-1.67-.15,3,3,0,0,0-1.93,2.56,1.3,1.3,0,0,0,.68,1.21,4.86,4.86,0,0,0,2.3.39h3.53a7.92,7.92,0,0,1,5,1.36,4.73,4.73,0,0,1,1.74,4,5.65,5.65,0,0,1-2.65,5q-2.65,1.74-7.74,1.74a10.56,10.56,0,0,1-6-1.46,4.68,4.68,0,0,1-2.12-4.1,4.62,4.62,0,0,1,1.16-3.14,6,6,0,0,1,3.27-1.8,3.27,3.27,0,0,1-1.28-1.07,2.88,2.88,0,0,1-.51-1.69,3.2,3.2,0,0,1,.58-1.91,6.15,6.15,0,0,1,1.83-1.58,5.28,5.28,0,0,1-2.51-2.16,6.35,6.35,0,0,1-1-3.49,6.44,6.44,0,0,1,2-5,8,8,0,0,1,5.55-1.77,9.88,9.88,0,0,1,2.82.37Zm-15.87,23.24a2.71,2.71,0,0,0,1.36,2.46,7.61,7.61,0,0,0,3.91.83,11,11,0,0,0,5.62-1.13,3.5,3.5,0,0,0,1.82-3.08,2.44,2.44,0,0,0-1-2.25,7.86,7.86,0,0,0-3.76-.62h-3.61a4.8,4.8,0,0,0-3.2,1A3.5,3.5,0,0,0,792.55,329.17Zm1.63-16.87a4.07,4.07,0,0,0,1.18,3.16,4.71,4.71,0,0,0,3.29,1.07q4.41,0,4.41-4.28,0-4.49-4.46-4.49a4.43,4.43,0,0,0-3.27,1.14A4.6,4.6,0,0,0,794.18,312.3Z"/><path d="M815.34,305.93v12.91a5.19,5.19,0,0,0,1.11,3.63,4.51,4.51,0,0,0,3.47,1.2,5.67,5.67,0,0,0,4.57-1.71q1.44-1.69,1.44-5.57V305.93h3v19.9h-2.49l-.44-2.67h-.16a6.05,6.05,0,0,1-2.57,2.25,8.53,8.53,0,0,1-3.75.79,7.61,7.61,0,0,1-5.44-1.73q-1.82-1.73-1.81-5.52v-13Z"/><path d="M849,325.83V313a5.2,5.2,0,0,0-1.11-3.64,4.51,4.51,0,0,0-3.47-1.2,5.73,5.73,0,0,0-4.57,1.69q-1.45,1.69-1.46,5.58v10.44h-3v-19.9h2.45l.49,2.72h.15a6.13,6.13,0,0,1,2.59-2.28,8.47,8.47,0,0,1,3.73-.81,7.55,7.55,0,0,1,5.41,1.74Q852,309,852,312.85v13Z"/><path d="M871.72,323.16h-.17a7.06,7.06,0,0,1-6.24,3,7.4,7.4,0,0,1-6.08-2.67q-2.18-2.67-2.17-7.6t2.18-7.64a7.33,7.33,0,0,1,6.07-2.73,7.22,7.22,0,0,1,6.21,2.95h.23l-.12-1.44-.08-1.4v-8.1h3v28.26h-2.45Zm-6,.51a5.5,5.5,0,0,0,4.48-1.68q1.38-1.68,1.38-5.42v-.64c0-2.82-.46-4.83-1.4-6a5.37,5.37,0,0,0-4.5-1.8,4.62,4.62,0,0,0-4.06,2.06,10.22,10.22,0,0,0-1.4,5.82,9.87,9.87,0,0,0,1.39,5.76A4.76,4.76,0,0,0,865.69,323.67Z"/><path d="M898.14,315.86c0,3.25-.81,5.78-2.45,7.6a8.63,8.63,0,0,1-6.77,2.74,8.93,8.93,0,0,1-4.74-1.26,8.24,8.24,0,0,1-3.2-3.59,12.57,12.57,0,0,1-1.12-5.49q0-4.86,2.43-7.58a8.6,8.6,0,0,1,6.76-2.72,8.42,8.42,0,0,1,6.63,2.78A10.93,10.93,0,0,1,898.14,315.86Zm-15.16,0a9.49,9.49,0,0,0,1.52,5.81,6.06,6.06,0,0,0,9,0,9.4,9.4,0,0,0,1.53-5.82,9.29,9.29,0,0,0-1.53-5.77,5.43,5.43,0,0,0-4.54-2,5.28,5.28,0,0,0-4.46,1.95Q883,312,883,315.86Z"/><path d="M919.52,323.71a9.83,9.83,0,0,0,1.55-.12,9.34,9.34,0,0,0,1.18-.25v2.31a5.35,5.35,0,0,1-1.45.39,11.22,11.22,0,0,1-1.71.16q-5.77,0-5.78-6.09V308.27h-2.85v-1.45l2.85-1.26,1.27-4.25h1.75v4.62h5.77v2.34h-5.77V320a4,4,0,0,0,.85,2.76A3,3,0,0,0,919.52,323.71Z"/><path d="M934.63,326.2a9.14,9.14,0,0,1-7-2.69q-2.55-2.68-2.55-7.47a11.52,11.52,0,0,1,2.37-7.64,7.87,7.87,0,0,1,6.36-2.84,7.49,7.49,0,0,1,5.92,2.46,9.41,9.41,0,0,1,2.18,6.5v1.9H928.24a7.9,7.9,0,0,0,1.77,5.33,6.13,6.13,0,0,0,4.73,1.81,16.14,16.14,0,0,0,6.36-1.34v2.69a15.91,15.91,0,0,1-3,1A16.91,16.91,0,0,1,934.63,326.2Zm-.81-18.11a4.94,4.94,0,0,0-3.83,1.56,7.2,7.2,0,0,0-1.68,4.32h10.41a6.62,6.62,0,0,0-1.27-4.37A4.48,4.48,0,0,0,933.82,308.09Zm-2.24-5.25c.58-.75,1.21-1.66,1.88-2.73s1.2-2,1.59-2.77h3.67v.38a27.66,27.66,0,0,1-2.38,2.9,27.26,27.26,0,0,1-2.74,2.67h-2Z"/><path d="M956.17,305.56a12.13,12.13,0,0,1,2.38.22l-.41,2.8a10.49,10.49,0,0,0-2.18-.27,5.32,5.32,0,0,0-4.14,2,7.16,7.16,0,0,0-1.71,4.88v10.68h-3v-19.9h2.49l.35,3.68h.14a8.78,8.78,0,0,1,2.67-3A6,6,0,0,1,956.17,305.56Z"/><path d="M987.65,325.83V312.88a5.39,5.39,0,0,0-1-3.57,3.94,3.94,0,0,0-3.16-1.19,5.1,5.1,0,0,0-4.16,1.62,7.73,7.73,0,0,0-1.34,5v11.11h-3V312.88a5.45,5.45,0,0,0-1-3.57,4,4,0,0,0-3.18-1.19,4.93,4.93,0,0,0-4.15,1.7q-1.32,1.69-1.32,5.57v10.44h-3v-19.9h2.45l.49,2.72h.14a6,6,0,0,1,2.41-2.27,7.41,7.41,0,0,1,3.48-.82q4.66,0,6.1,3.38h.15a6.34,6.34,0,0,1,2.58-2.47,8,8,0,0,1,3.85-.91A6.71,6.71,0,0,1,989,307.3q1.68,1.72,1.68,5.55v13Z"/><path d="M996.62,300.53a2,2,0,0,1,.51-1.51,1.74,1.74,0,0,1,1.27-.49,1.79,1.79,0,0,1,1.25.49,1.94,1.94,0,0,1,.53,1.51,2,2,0,0,1-.53,1.52,1.84,1.84,0,0,1-2.52,0A2,2,0,0,1,996.62,300.53Zm3.27,25.3h-3v-19.9h3Z"/><path d="M1019.91,325.83V313a5.2,5.2,0,0,0-1.11-3.64,4.52,4.52,0,0,0-3.47-1.2,5.75,5.75,0,0,0-4.58,1.69q-1.46,1.69-1.45,5.58v10.44h-3v-19.9h2.46l.49,2.72h.14a6.16,6.16,0,0,1,2.6-2.28,8.39,8.39,0,0,1,3.72-.81,7.53,7.53,0,0,1,5.41,1.74q1.81,1.72,1.82,5.55v13Z"/><path d="M1046.3,315.86q0,4.88-2.46,7.6a8.63,8.63,0,0,1-6.77,2.74,8.93,8.93,0,0,1-4.74-1.26,8.24,8.24,0,0,1-3.2-3.59,12.57,12.57,0,0,1-1.12-5.49q0-4.86,2.43-7.58a8.6,8.6,0,0,1,6.76-2.72,8.42,8.42,0,0,1,6.63,2.78A10.89,10.89,0,0,1,1046.3,315.86Zm-15.17,0a9.42,9.42,0,0,0,1.53,5.81,5.26,5.26,0,0,0,4.48,2,5.33,5.33,0,0,0,4.5-2,9.4,9.4,0,0,0,1.53-5.82,9.29,9.29,0,0,0-1.53-5.77,5.42,5.42,0,0,0-4.53-2,5.29,5.29,0,0,0-4.47,1.95Q1031.13,312,1031.13,315.86Z"/><path d="M1813.9,325.83h-3.09V302h-8.41v-2.74h19.91V302h-8.41Z"/><path d="M1834.26,326.2a9.14,9.14,0,0,1-7-2.69q-2.57-2.68-2.56-7.47a11.52,11.52,0,0,1,2.37-7.64,7.89,7.89,0,0,1,6.37-2.84,7.51,7.51,0,0,1,5.92,2.46,9.46,9.46,0,0,1,2.18,6.5v1.9h-13.71a7.9,7.9,0,0,0,1.77,5.33,6.13,6.13,0,0,0,4.73,1.81,16.18,16.18,0,0,0,6.36-1.34v2.69a16.14,16.14,0,0,1-3,1A16.91,16.91,0,0,1,1834.26,326.2Zm-.82-18.11a4.93,4.93,0,0,0-3.82,1.56,7.2,7.2,0,0,0-1.68,4.32h10.41a6.68,6.68,0,0,0-1.27-4.37A4.48,4.48,0,0,0,1833.44,308.09Z"/><path d="M1855.8,305.56a12.13,12.13,0,0,1,2.38.22l-.42,2.8a10.33,10.33,0,0,0-2.18-.27,5.3,5.3,0,0,0-4.13,2,7.16,7.16,0,0,0-1.71,4.88v10.68h-3v-19.9h2.49l.34,3.68h.15a8.78,8.78,0,0,1,2.67-3A5.94,5.94,0,0,1,1855.8,305.56Z"/><path d="M1869.86,326.2a8.48,8.48,0,0,1-6.69-2.67q-2.37-2.65-2.37-7.52c0-3.33.8-5.91,2.4-7.72a8.67,8.67,0,0,1,6.86-2.73,14,14,0,0,1,2.87.31,9.41,9.41,0,0,1,2.25.73l-.93,2.56a13.15,13.15,0,0,0-2.17-.66,9.58,9.58,0,0,0-2.09-.27q-6.08,0-6.07,7.74a9.19,9.19,0,0,0,1.48,5.63,5.15,5.15,0,0,0,4.39,2,13.46,13.46,0,0,0,5.1-1.07v2.67A10.87,10.87,0,0,1,1869.86,326.2Z"/><path d="M1888,326.2a9.14,9.14,0,0,1-7-2.69,10.42,10.42,0,0,1-2.56-7.47,11.47,11.47,0,0,1,2.38-7.64,7.85,7.85,0,0,1,6.36-2.84,7.49,7.49,0,0,1,5.92,2.46,9.46,9.46,0,0,1,2.18,6.5v1.9h-13.71a7.9,7.9,0,0,0,1.77,5.33,6.13,6.13,0,0,0,4.73,1.81,16.18,16.18,0,0,0,6.36-1.34v2.69a16.14,16.14,0,0,1-3,1A16.91,16.91,0,0,1,1888,326.2Zm-.82-18.11a4.93,4.93,0,0,0-3.82,1.56,7.2,7.2,0,0,0-1.68,4.32h10.41a6.68,6.68,0,0,0-1.27-4.37A4.48,4.48,0,0,0,1887.2,308.09Z"/><path d="M1909.56,305.56a12.13,12.13,0,0,1,2.38.22l-.42,2.8a10.33,10.33,0,0,0-2.18-.27,5.3,5.3,0,0,0-4.13,2,7.16,7.16,0,0,0-1.71,4.88v10.68h-3v-19.9H1903l.34,3.68h.15a8.78,8.78,0,0,1,2.67-3A6,6,0,0,1,1909.56,305.56Z"/><path d="M1931.76,323.71a9.7,9.7,0,0,0,1.54-.12,9,9,0,0,0,1.18-.25v2.31a5.37,5.37,0,0,1-1.44.39,11.34,11.34,0,0,1-1.72.16q-5.77,0-5.77-6.09V308.27h-2.86v-1.45l2.86-1.26,1.27-4.25h1.74v4.62h5.78v2.34h-5.78V320a4,4,0,0,0,.85,2.76A3,3,0,0,0,1931.76,323.71Z"/><path d="M1946.87,326.2a9.17,9.17,0,0,1-7-2.69q-2.55-2.68-2.55-7.47a11.52,11.52,0,0,1,2.37-7.64,7.87,7.87,0,0,1,6.37-2.84A7.51,7.51,0,0,1,1952,308a9.46,9.46,0,0,1,2.18,6.5v1.9h-13.72a8,8,0,0,0,1.78,5.33,6.11,6.11,0,0,0,4.73,1.81,16.09,16.09,0,0,0,6.35-1.34v2.69a15.83,15.83,0,0,1-3,1A17,17,0,0,1,1946.87,326.2Zm-.82-18.11a4.92,4.92,0,0,0-3.82,1.56,7.2,7.2,0,0,0-1.68,4.32H1951a6.62,6.62,0,0,0-1.27-4.37A4.46,4.46,0,0,0,1946.05,308.09Zm-2.23-5.25c.58-.75,1.2-1.66,1.88-2.73s1.2-2,1.59-2.77H1951v.38a33,33,0,0,1-5.12,5.57h-2Z"/><path d="M1968.41,305.56a12.21,12.21,0,0,1,2.38.22l-.42,2.8a10.33,10.33,0,0,0-2.18-.27,5.29,5.29,0,0,0-4.13,2,7.12,7.12,0,0,0-1.72,4.88v10.68h-3v-19.9h2.49l.34,3.68h.15a8.58,8.58,0,0,1,2.67-3A5.94,5.94,0,0,1,1968.41,305.56Z"/><path d="M1999.88,325.83V312.88a5.39,5.39,0,0,0-1-3.57,3.94,3.94,0,0,0-3.16-1.19,5.09,5.09,0,0,0-4.16,1.62,7.67,7.67,0,0,0-1.35,5v11.11h-3V312.88a5.39,5.39,0,0,0-1-3.57,4,4,0,0,0-3.18-1.19,4.93,4.93,0,0,0-4.15,1.7q-1.3,1.69-1.31,5.57v10.44h-3v-19.9H1977l.49,2.72h.15a5.93,5.93,0,0,1,2.41-2.27,7.37,7.37,0,0,1,3.47-.82c3.12,0,5.15,1.13,6.11,3.38h.14a6.34,6.34,0,0,1,2.58-2.47,8.08,8.08,0,0,1,3.85-.91,6.74,6.74,0,0,1,5.06,1.74q1.68,1.72,1.68,5.55v13Z"/><path d="M2008.86,300.53a2,2,0,0,1,.51-1.51,1.73,1.73,0,0,1,1.27-.49,1.8,1.8,0,0,1,1.25.49,2,2,0,0,1,.53,1.51,2,2,0,0,1-.53,1.52,1.77,1.77,0,0,1-1.25.5,1.73,1.73,0,0,1-1.27-.5A2,2,0,0,1,2008.86,300.53Zm3.27,25.3h-3v-19.9h3Z"/><path d="M2032.14,325.83V313a5.2,5.2,0,0,0-1.11-3.64,4.51,4.51,0,0,0-3.47-1.2,5.73,5.73,0,0,0-4.57,1.69q-1.46,1.69-1.46,5.58v10.44h-3v-19.9H2021l.49,2.72h.15a6.13,6.13,0,0,1,2.59-2.28,8.47,8.47,0,0,1,3.73-.81,7.55,7.55,0,0,1,5.41,1.74q1.82,1.72,1.82,5.55v13Z"/><path d="M2058.53,315.86q0,4.88-2.45,7.6a8.65,8.65,0,0,1-6.78,2.74,8.93,8.93,0,0,1-4.74-1.26,8.22,8.22,0,0,1-3.19-3.59,12.57,12.57,0,0,1-1.13-5.49q0-4.86,2.43-7.58a8.63,8.63,0,0,1,6.76-2.72,8.43,8.43,0,0,1,6.64,2.78A10.93,10.93,0,0,1,2058.53,315.86Zm-15.16,0a9.43,9.43,0,0,0,1.52,5.81,6.05,6.05,0,0,0,9,0,9.33,9.33,0,0,0,1.54-5.82,9.23,9.23,0,0,0-1.54-5.77,5.39,5.39,0,0,0-4.53-2,5.31,5.31,0,0,0-4.47,1.95Q2043.37,312,2043.37,315.86Z"/></svg>