<svg id="Layer_1" data-name="Layer 1" xmlns="http://www.w3.org/2000/svg" viewBox="0 0 2197.15 381.8"><defs><style>.cls-1{fill:#ffe2a1;}.cls-2{fill:#3a68ad;}.cls-3{fill:#d32a2a;}.cls-4{font-size:30px;font-family:OpenSans-Regular, Open Sans;}</style></defs><title>Fosforos_U02_03</title><rect class="cls-1" x="501.66" y="32.97" width="13.75" height="237.11"/><path class="cls-2" d="M515.41,65.93H501.66l-3.27-55.78A10.14,10.14,0,0,1,508.54,0h0a10.14,10.14,0,0,1,10.14,10.15Z"/><rect class="cls-3" x="1007.77" y="0.02" width="13.75" height="237.11" transform="translate(2029.29 237.15) rotate(180)"/><path class="cls-3" d="M1007.77,204.17h13.75L1024.8,260a10.16,10.16,0,0,1-10.15,10.15h0A10.15,10.15,0,0,1,1004.5,260Z"/><rect class="cls-3" x="866.4" y="-108.41" width="13.75" height="237.11" transform="translate(883.42 -863.13) rotate(90)"/><path class="cls-3" d="M958.87,17V3.27L1014.65,0a10.15,10.15,0,0,1,10.15,10.15h0a10.16,10.16,0,0,1-10.15,10.15Z"/><rect class="cls-3" x="754.72" y="32.97" width="13.75" height="237.11"/><path class="cls-3" d="M768.47,65.93H754.72l-3.28-55.78A10.15,10.15,0,0,1,761.59,0h0a10.14,10.14,0,0,1,10.15,10.15Z"/><rect class="cls-1" x="613.34" y="144.65" width="13.75" height="237.11" transform="translate(883.42 -357.01) rotate(90)"/><path class="cls-2" d="M705.81,270.08V256.33l55.78-3.27a10.14,10.14,0,0,1,10.15,10.14h0a10.14,10.14,0,0,1-10.15,10.15Z"/><rect class="cls-1" x="3.27" y="35.35" width="13.75" height="237.11"/><path class="cls-2" d="M17,68.31H3.27L0,12.53A10.15,10.15,0,0,1,10.15,2.38h0A10.16,10.16,0,0,1,20.3,12.53Z"/><rect class="cls-1" x="114.96" y="147.03" width="13.75" height="237.11" transform="translate(387.42 143.76) rotate(90)"/><path class="cls-2" d="M207.42,272.46V258.71l55.78-3.27a10.14,10.14,0,0,1,10.15,10.15h0a10.15,10.15,0,0,1-10.15,10.15Z"/><rect class="cls-3" x="2038.75" y="-106.01" width="13.75" height="237.11" transform="translate(2058.17 -2033.07) rotate(90)"/><path class="cls-3" d="M2131.22,19.43V5.68L2187,2.4a10.16,10.16,0,0,1,10.15,10.15h0A10.15,10.15,0,0,1,2187,22.7Z"/><rect class="cls-3" x="1927.07" y="35.37" width="13.75" height="237.11"/><path class="cls-3" d="M1940.82,68.33h-13.75l-3.28-55.78A10.16,10.16,0,0,1,1933.94,2.4h0a10.15,10.15,0,0,1,10.15,10.15Z"/><rect class="cls-3" x="1785.69" y="147.05" width="13.75" height="237.11" transform="translate(2058.17 -1526.96) rotate(90)"/><path class="cls-3" d="M1878.16,272.48V258.73l55.78-3.27a10.14,10.14,0,0,1,10.15,10.15h0a10.14,10.14,0,0,1-10.15,10.14Z"/><rect class="cls-1" x="1161.03" y="35.37" width="13.75" height="237.11"/><path class="cls-2" d="M1174.77,68.33H1161l-3.28-55.78A10.16,10.16,0,0,1,1167.9,2.4h0a10.16,10.16,0,0,1,10.15,10.15Z"/><rect class="cls-1" x="1667.14" y="2.42" width="13.75" height="237.11" transform="translate(3348.02 241.95) rotate(180)"/><path class="cls-2" d="M1667.14,206.57h13.75l3.27,55.78A10.14,10.14,0,0,1,1674,272.5h0a10.15,10.15,0,0,1-10.15-10.15Z"/><rect class="cls-1" x="1525.76" y="-106.01" width="13.75" height="237.11" transform="translate(1545.19 -1520.09) rotate(90)"/><path class="cls-2" d="M1618.23,19.43V5.68L1674,2.4a10.15,10.15,0,0,1,10.15,10.15h0A10.14,10.14,0,0,1,1674,22.7Z"/><rect class="cls-1" x="1414.08" y="35.37" width="13.75" height="237.11"/><path class="cls-2" d="M1427.83,68.33h-13.75l-3.27-55.78A10.15,10.15,0,0,1,1421,2.4h0a10.15,10.15,0,0,1,10.14,10.15Z"/><rect class="cls-1" x="1272.71" y="147.05" width="13.75" height="237.11" transform="translate(1545.19 -1013.98) rotate(90)"/><path class="cls-2" d="M1365.17,272.48V258.73l55.79-3.27a10.14,10.14,0,0,1,10.14,10.15h0A10.14,10.14,0,0,1,1421,275.75Z"/><text class="cls-4" transform="translate(34.78 337.67)">Primer término<tspan x="9.05" y="36">tiene 2 palitos</tspan></text><text class="cls-4" transform="translate(637.96 337.67)">Segundo término<tspan x="23.14" y="36">tiene 6 palitos</tspan></text><text class="cls-4" transform="translate(1458.76 334.08)">Tercer término<tspan x="6.13" y="36">tiene 9 palitos</tspan></text></svg>