<svg id="Layer_1" data-name="Layer 1" xmlns="http://www.w3.org/2000/svg" viewBox="0 0 1812.31 379.17"><defs><style>.cls-1{fill:#d32a2a;}.cls-2{fill:#ffe2a1;}.cls-3{fill:#3a68ad;}</style></defs><title>Fosforos_U03_05_02</title><rect class="cls-1" x="1795.29" y="32.97" width="13.75" height="237.11"/><path class="cls-1" d="M1809,65.93h-13.75L1792,10.15A10.15,10.15,0,0,1,1802.16,0h0a10.14,10.14,0,0,1,10.15,10.15Z"/><rect class="cls-1" x="1653.91" y="144.65" width="13.75" height="237.11" transform="translate(1923.99 -1397.59) rotate(90)"/><path class="cls-1" d="M1746.38,270.08V256.33l55.78-3.27a10.14,10.14,0,0,1,10.15,10.14h0a10.14,10.14,0,0,1-10.15,10.15Z"/><rect class="cls-1" x="1535.36" y="0.02" width="13.75" height="237.11" transform="translate(3084.47 237.15) rotate(180)"/><path class="cls-1" d="M1535.36,204.17h13.75l3.27,55.78a10.15,10.15,0,0,1-10.15,10.15h0A10.16,10.16,0,0,1,1532.08,260Z"/><rect class="cls-2" x="1393.98" y="-108.41" width="13.75" height="237.11" transform="translate(1411.01 -1390.71) rotate(90)"/><path class="cls-3" d="M1486.45,17V3.27L1542.23,0a10.14,10.14,0,0,1,10.15,10.15h0a10.15,10.15,0,0,1-10.15,10.15Z"/><rect class="cls-2" x="1282.3" y="32.97" width="13.75" height="237.11"/><path class="cls-3" d="M1296.05,65.93H1282.3L1279,10.15A10.14,10.14,0,0,1,1289.18,0h0a10.15,10.15,0,0,1,10.15,10.15Z"/><rect class="cls-2" x="1140.93" y="144.65" width="13.75" height="237.11" transform="translate(1411.01 -884.6) rotate(90)"/><path class="cls-3" d="M1233.39,270.08V256.33l55.79-3.27a10.15,10.15,0,0,1,10.15,10.14h0a10.15,10.15,0,0,1-10.15,10.15Z"/><rect class="cls-2" x="1022.37" width="13.75" height="237.11" transform="translate(2058.49 237.11) rotate(180)"/><path class="cls-3" d="M1022.37,204.15h13.75l3.27,55.78a10.14,10.14,0,0,1-10.14,10.15h0a10.14,10.14,0,0,1-10.15-10.15Z"/><rect class="cls-2" x="881" y="-108.41" width="13.75" height="237.11" transform="translate(898.02 -877.72) rotate(90)"/><path class="cls-3" d="M973.46,17V3.27L1029.25,0a10.14,10.14,0,0,1,10.14,10.15h0a10.15,10.15,0,0,1-10.14,10.15Z"/><rect class="cls-2" x="769.32" y="32.97" width="13.75" height="237.11"/><path class="cls-3" d="M783.07,65.93H769.32L766,10.15A10.15,10.15,0,0,1,776.19,0h0a10.14,10.14,0,0,1,10.15,10.15Z"/><rect class="cls-2" x="627.94" y="144.65" width="13.75" height="237.11" transform="translate(898.02 -371.61) rotate(90)"/><path class="cls-3" d="M720.41,270.08V256.33l55.78-3.27a10.14,10.14,0,0,1,10.15,10.14h0a10.14,10.14,0,0,1-10.15,10.15Z"/><rect class="cls-2" x="3.27" y="32.97" width="13.75" height="237.11"/><path class="cls-3" d="M17,65.93H3.27L0,10.15A10.14,10.14,0,0,1,10.15,0h0A10.15,10.15,0,0,1,20.3,10.15Z"/><rect class="cls-2" x="509.39" y="0.02" width="13.75" height="237.11" transform="translate(1032.52 237.15) rotate(180)"/><path class="cls-3" d="M509.39,204.17h13.74L526.41,260a10.16,10.16,0,0,1-10.15,10.15h0A10.16,10.16,0,0,1,506.11,260Z"/><rect class="cls-2" x="368.01" y="-108.41" width="13.75" height="237.11" transform="translate(385.03 -364.74) rotate(90)"/><path class="cls-3" d="M460.48,17V3.27L516.26,0a10.15,10.15,0,0,1,10.15,10.15h0A10.16,10.16,0,0,1,516.26,20.3Z"/><rect class="cls-2" x="256.33" y="32.97" width="13.75" height="237.11"/><path class="cls-3" d="M270.08,65.93H256.33l-3.27-55.78A10.14,10.14,0,0,1,263.2,0h0a10.14,10.14,0,0,1,10.15,10.15Z"/><rect class="cls-2" x="114.96" y="144.65" width="13.75" height="237.11" transform="translate(385.03 141.37) rotate(90)"/><path class="cls-3" d="M207.42,270.08V256.33l55.78-3.27a10.14,10.14,0,0,1,10.15,10.14h0a10.14,10.14,0,0,1-10.15,10.15Z"/><path d="M816.45,318.53a6.5,6.5,0,0,1-2.54,5.47,11,11,0,0,1-6.9,2,17.1,17.1,0,0,1-7.26-1.22v-3a19.39,19.39,0,0,0,7.37,1.48,7.7,7.7,0,0,0,4.65-1.17,3.84,3.84,0,0,0,1.56-3.26,4.18,4.18,0,0,0-.55-2.26,5.05,5.05,0,0,0-1.86-1.62,25.23,25.23,0,0,0-3.95-1.69,12.66,12.66,0,0,1-5.29-3.14,7,7,0,0,1-1.59-4.75,5.89,5.89,0,0,1,2.31-4.88,9.59,9.59,0,0,1,6.1-1.82,17.93,17.93,0,0,1,7.28,1.46l-1,2.68a16.44,16.44,0,0,0-6.39-1.38,6.12,6.12,0,0,0-3.83,1.06,3.44,3.44,0,0,0-1.39,2.92,4.47,4.47,0,0,0,.51,2.26,4.75,4.75,0,0,0,1.72,1.62,21,21,0,0,0,3.7,1.62c2.78,1,4.7,2.06,5.74,3.2A6.28,6.28,0,0,1,816.45,318.53Z"/><path d="M829.84,326a9.11,9.11,0,0,1-7-2.69,10.36,10.36,0,0,1-2.56-7.46,11.55,11.55,0,0,1,2.37-7.65,7.88,7.88,0,0,1,6.37-2.83,7.51,7.51,0,0,1,5.92,2.46,9.43,9.43,0,0,1,2.18,6.49v1.91H823.45a7.88,7.88,0,0,0,1.77,5.32,6.13,6.13,0,0,0,4.73,1.82,16,16,0,0,0,6.36-1.35v2.69a16.14,16.14,0,0,1-3,1A17,17,0,0,1,829.84,326ZM829,307.85a4.92,4.92,0,0,0-3.82,1.56,7.25,7.25,0,0,0-1.68,4.33h10.41a6.68,6.68,0,0,0-1.27-4.37A4.49,4.49,0,0,0,829,307.85Z"/><path d="M858.59,305.69v1.91l-3.68.43a6.48,6.48,0,0,1,.9,1.67,6.22,6.22,0,0,1,.4,2.31,5.86,5.86,0,0,1-2,4.67,8.06,8.06,0,0,1-5.48,1.74,8.89,8.89,0,0,1-1.67-.14,3,3,0,0,0-1.93,2.56,1.31,1.31,0,0,0,.68,1.21,4.86,4.86,0,0,0,2.3.39h3.53a7.85,7.85,0,0,1,5,1.36,4.73,4.73,0,0,1,1.74,4,5.68,5.68,0,0,1-2.65,5q-2.66,1.72-7.74,1.73a10.56,10.56,0,0,1-6-1.45,4.7,4.7,0,0,1-2.12-4.1,4.65,4.65,0,0,1,1.16-3.15,5.94,5.94,0,0,1,3.27-1.79A3.22,3.22,0,0,1,843,323a2.84,2.84,0,0,1-.51-1.69,3.17,3.17,0,0,1,.58-1.9,6,6,0,0,1,1.83-1.58,5.4,5.4,0,0,1-2.51-2.16,6.35,6.35,0,0,1-1-3.49,6.44,6.44,0,0,1,2-5,8,8,0,0,1,5.55-1.77,10.26,10.26,0,0,1,2.82.36Zm-15.87,23.25a2.69,2.69,0,0,0,1.36,2.45,7.48,7.48,0,0,0,3.9.84,10.88,10.88,0,0,0,5.63-1.14,3.47,3.47,0,0,0,1.82-3.08,2.43,2.43,0,0,0-1-2.24,7.71,7.71,0,0,0-3.76-.63h-3.61a4.8,4.8,0,0,0-3.2,1A3.53,3.53,0,0,0,842.72,328.94Zm1.63-16.87a4.09,4.09,0,0,0,1.18,3.16,4.75,4.75,0,0,0,3.29,1.07q4.41,0,4.41-4.29,0-4.49-4.46-4.48a4.43,4.43,0,0,0-3.27,1.14A4.59,4.59,0,0,0,844.35,312.07Z"/><path d="M865.51,305.69v12.92a5.19,5.19,0,0,0,1.11,3.63,4.52,4.52,0,0,0,3.47,1.2,5.67,5.67,0,0,0,4.57-1.71q1.44-1.71,1.44-5.58V305.69h3V325.6h-2.49l-.44-2.67H876a6.05,6.05,0,0,1-2.57,2.25,8.67,8.67,0,0,1-3.75.78c-2.42,0-4.24-.57-5.44-1.72s-1.81-3-1.81-5.53v-13Z"/><path d="M899.13,325.6V312.72a5.19,5.19,0,0,0-1.11-3.63,4.51,4.51,0,0,0-3.47-1.2,5.7,5.7,0,0,0-4.57,1.69q-1.46,1.68-1.46,5.57V325.6h-3V305.69H888l.49,2.73h.15a6,6,0,0,1,2.59-2.28,8.47,8.47,0,0,1,3.73-.81,7.59,7.59,0,0,1,5.41,1.73q1.81,1.74,1.82,5.55v13Z"/><path d="M921.89,322.93h-.17a7.07,7.07,0,0,1-6.24,3,7.4,7.4,0,0,1-6.08-2.67q-2.17-2.67-2.17-7.59t2.18-7.65a7.35,7.35,0,0,1,6.07-2.72,7.24,7.24,0,0,1,6.21,2.94h.23l-.12-1.43-.08-1.4v-8.1h3V325.6h-2.45Zm-6,.51q3.09,0,4.47-1.68t1.39-5.43v-.63q0-4.23-1.4-6a5.34,5.34,0,0,0-4.5-1.81,4.62,4.62,0,0,0-4.06,2.06,10.28,10.28,0,0,0-1.4,5.83,9.82,9.82,0,0,0,1.39,5.75A4.74,4.74,0,0,0,915.86,323.44Z"/><path d="M948.31,315.63c0,3.24-.81,5.78-2.45,7.6a8.63,8.63,0,0,1-6.77,2.73,9,9,0,0,1-4.74-1.25,8.32,8.32,0,0,1-3.2-3.6,12.53,12.53,0,0,1-1.13-5.48c0-3.25.82-5.78,2.44-7.59a8.6,8.6,0,0,1,6.76-2.71,8.39,8.39,0,0,1,6.63,2.78A10.93,10.93,0,0,1,948.31,315.63Zm-15.16,0a9.49,9.49,0,0,0,1.52,5.81,6.06,6.06,0,0,0,9,0,9.44,9.44,0,0,0,1.53-5.82,9.27,9.27,0,0,0-1.53-5.77,5.43,5.43,0,0,0-4.54-2,5.3,5.3,0,0,0-4.46,1.94Q933.15,311.78,933.15,315.63Z"/><path d="M969.69,323.47a9.83,9.83,0,0,0,1.55-.12,9.6,9.6,0,0,0,1.18-.24v2.31a6.2,6.2,0,0,1-1.45.39,11.1,11.1,0,0,1-1.71.15q-5.78,0-5.78-6.08V308h-2.85v-1.45l2.85-1.25,1.27-4.25h1.75v4.61h5.77V308H966.5v11.72a4,4,0,0,0,.85,2.76A3,3,0,0,0,969.69,323.47Z"/><path d="M984.8,326a9.11,9.11,0,0,1-7-2.69,10.4,10.4,0,0,1-2.55-7.46,11.55,11.55,0,0,1,2.37-7.65,7.86,7.86,0,0,1,6.36-2.83,7.49,7.49,0,0,1,5.92,2.46,9.39,9.39,0,0,1,2.18,6.49v1.91H978.41a7.88,7.88,0,0,0,1.77,5.32,6.13,6.13,0,0,0,4.73,1.82,16,16,0,0,0,6.36-1.35v2.69a15.91,15.91,0,0,1-3,1A16.91,16.91,0,0,1,984.8,326ZM984,307.85a4.93,4.93,0,0,0-3.82,1.56,7.25,7.25,0,0,0-1.68,4.33h10.41a6.62,6.62,0,0,0-1.27-4.37A4.49,4.49,0,0,0,984,307.85Zm-2.23-5.25c.58-.75,1.21-1.65,1.88-2.72s1.2-2,1.59-2.78h3.67v.38a26.62,26.62,0,0,1-2.38,2.91,27.26,27.26,0,0,1-2.74,2.67h-2Z"/><path d="M1006.34,305.33a11.41,11.41,0,0,1,2.38.22l-.42,2.79a10.32,10.32,0,0,0-2.17-.27,5.32,5.32,0,0,0-4.14,2,7.18,7.18,0,0,0-1.71,4.89V325.6h-3V305.69h2.49l.35,3.69h.14a8.73,8.73,0,0,1,2.67-3A6,6,0,0,1,1006.34,305.33Z"/><path d="M1037.82,325.6v-13a5.36,5.36,0,0,0-1-3.57,3.94,3.94,0,0,0-3.16-1.19,5.1,5.1,0,0,0-4.16,1.62,7.68,7.68,0,0,0-1.34,5V325.6h-3v-13a5.41,5.41,0,0,0-1-3.57,4,4,0,0,0-3.18-1.19,4.9,4.9,0,0,0-4.15,1.7c-.88,1.13-1.32,3-1.32,5.56V325.6h-3V305.69h2.45l.49,2.73h.14a5.93,5.93,0,0,1,2.41-2.27,7.32,7.32,0,0,1,3.48-.82c3.11,0,5.14,1.12,6.1,3.38h.15a6.28,6.28,0,0,1,2.58-2.47,7.91,7.91,0,0,1,3.85-.91,6.75,6.75,0,0,1,5.05,1.73q1.68,1.74,1.68,5.55v13Z"/><path d="M1046.79,300.3a2,2,0,0,1,.51-1.52,1.78,1.78,0,0,1,1.27-.48,1.74,1.74,0,0,1,1.25.49,2.42,2.42,0,0,1,0,3,1.84,1.84,0,0,1-2.52,0A2,2,0,0,1,1046.79,300.3Zm3.27,25.3h-3V305.69h3Z"/><path d="M1070.07,325.6V312.72a5.19,5.19,0,0,0-1.1-3.63,4.52,4.52,0,0,0-3.47-1.2,5.72,5.72,0,0,0-4.58,1.69q-1.45,1.68-1.45,5.57V325.6h-3V305.69h2.46l.49,2.73h.14a6,6,0,0,1,2.6-2.28,8.39,8.39,0,0,1,3.72-.81,7.58,7.58,0,0,1,5.41,1.73q1.82,1.74,1.82,5.55v13Z"/><path d="M1096.47,315.63c0,3.24-.82,5.78-2.46,7.6a8.63,8.63,0,0,1-6.77,2.73,9,9,0,0,1-4.74-1.25,8.32,8.32,0,0,1-3.2-3.6,12.53,12.53,0,0,1-1.12-5.48q0-4.87,2.43-7.59a8.6,8.6,0,0,1,6.76-2.71,8.39,8.39,0,0,1,6.63,2.78A10.89,10.89,0,0,1,1096.47,315.63Zm-15.17,0a9.42,9.42,0,0,0,1.53,5.81,5.29,5.29,0,0,0,4.48,2,5.37,5.37,0,0,0,4.5-2,9.44,9.44,0,0,0,1.53-5.82,9.27,9.27,0,0,0-1.53-5.77,5.42,5.42,0,0,0-4.53-2,5.31,5.31,0,0,0-4.47,1.94Q1081.3,311.78,1081.3,315.63Z"/><path d="M825.51,368.11a9.61,9.61,0,0,0,1.54-.12,9,9,0,0,0,1.18-.25v2.31a5.26,5.26,0,0,1-1.44.39,11.34,11.34,0,0,1-1.72.16q-5.77,0-5.77-6.09V352.67h-2.85v-1.45L819.3,350l1.27-4.25h1.74v4.62h5.78v2.34h-5.78v11.72a4.05,4.05,0,0,0,.86,2.76A3,3,0,0,0,825.51,368.11Z"/><path d="M832,344.93a2,2,0,0,1,.51-1.51,1.85,1.85,0,0,1,2.52,0,2,2,0,0,1,.53,1.5,2,2,0,0,1-.53,1.52,1.77,1.77,0,0,1-1.25.5,1.73,1.73,0,0,1-1.27-.5A2,2,0,0,1,832,344.93Zm3.27,25.3h-3v-19.9h3Z"/><path d="M850,370.6a9.17,9.17,0,0,1-7-2.69q-2.55-2.69-2.55-7.47a11.54,11.54,0,0,1,2.37-7.64,7.87,7.87,0,0,1,6.37-2.84,7.48,7.48,0,0,1,5.92,2.47,9.43,9.43,0,0,1,2.18,6.49v1.91H843.64a7.89,7.89,0,0,0,1.77,5.32,6.11,6.11,0,0,0,4.73,1.81,15.92,15.92,0,0,0,6.35-1.34v2.69a15.83,15.83,0,0,1-3,1A17,17,0,0,1,850,370.6Zm-.82-18.11a4.92,4.92,0,0,0-3.82,1.56,7.2,7.2,0,0,0-1.68,4.32h10.4a6.59,6.59,0,0,0-1.27-4.36A4.44,4.44,0,0,0,849.21,352.49Z"/><path d="M876.11,370.23V357.36a5.2,5.2,0,0,0-1.11-3.64,4.51,4.51,0,0,0-3.47-1.2,5.72,5.72,0,0,0-4.57,1.69q-1.46,1.69-1.46,5.58v10.44h-3v-19.9h2.45l.49,2.72h.15a6.13,6.13,0,0,1,2.59-2.28,8.47,8.47,0,0,1,3.73-.81,7.55,7.55,0,0,1,5.41,1.74q1.82,1.73,1.81,5.55v13Z"/><path d="M893.73,370.6a9.17,9.17,0,0,1-7-2.69q-2.55-2.69-2.55-7.47a11.54,11.54,0,0,1,2.37-7.64A7.87,7.87,0,0,1,893,350a7.5,7.5,0,0,1,5.92,2.47,9.43,9.43,0,0,1,2.18,6.49v1.91H887.33a8,8,0,0,0,1.77,5.32,6.14,6.14,0,0,0,4.74,1.81,15.92,15.92,0,0,0,6.35-1.34v2.69a15.83,15.83,0,0,1-3,1A17,17,0,0,1,893.73,370.6Zm-.82-18.11a4.92,4.92,0,0,0-3.82,1.56,7.2,7.2,0,0,0-1.68,4.32h10.4a6.59,6.59,0,0,0-1.27-4.36A4.45,4.45,0,0,0,892.91,352.49Z"/><path d="M925.64,370.23H922.7V351.31c0-1.58,0-3.06.14-4.47-.25.25-.54.52-.85.8s-1.76,1.46-4.32,3.54l-1.6-2.07,7-5.43h2.54Z"/><path d="M944,354a9.81,9.81,0,0,1,6.6,2.08,7.17,7.17,0,0,1,2.41,5.7,8.21,8.21,0,0,1-2.63,6.46,10.45,10.45,0,0,1-7.24,2.35,13.24,13.24,0,0,1-6.84-1.44v-2.9a10.47,10.47,0,0,0,3.16,1.28,15.52,15.52,0,0,0,3.72.46,7.42,7.42,0,0,0,5-1.51,5.41,5.41,0,0,0,1.77-4.36q0-5.55-6.81-5.55a27.22,27.22,0,0,0-4.62.52l-1.56-1,1-12.42h13.2v2.78H940.55l-.67,8A21,21,0,0,1,944,354Z"/><path d="M977.31,370.6a8.6,8.6,0,0,1-3.55-.72,6.68,6.68,0,0,1-2.7-2.21h-.21a27.75,27.75,0,0,1,.21,3.31v8.19h-3V350.33h2.45l.42,2.72h.14a7,7,0,0,1,2.71-2.36,8.29,8.29,0,0,1,3.54-.73,7.36,7.36,0,0,1,6.11,2.71c1.44,1.8,2.16,4.34,2.16,7.59s-.74,5.81-2.19,7.62A7.39,7.39,0,0,1,977.31,370.6Zm-.43-18.08a5.37,5.37,0,0,0-4.42,1.69c-.91,1.13-1.37,2.92-1.4,5.38v.67q0,4.2,1.4,6a5.33,5.33,0,0,0,4.49,1.8,4.65,4.65,0,0,0,4-2.09,9.92,9.92,0,0,0,1.46-5.75,9.59,9.59,0,0,0-1.46-5.72A4.83,4.83,0,0,0,976.88,352.52Z"/><path d="M1003.08,370.23l-.6-2.83h-.14a8.26,8.26,0,0,1-3,2.53,8.93,8.93,0,0,1-3.7.67,6.64,6.64,0,0,1-4.64-1.53,5.56,5.56,0,0,1-1.68-4.34q0-6,9.65-6.32l3.38-.11v-1.23a5,5,0,0,0-1-3.46,4.15,4.15,0,0,0-3.23-1.12,13.24,13.24,0,0,0-5.63,1.52l-.92-2.3a14.29,14.29,0,0,1,6.73-1.71q3.57,0,5.28,1.58t1.72,5.07v13.58Zm-6.81-2.12a6.1,6.1,0,0,0,4.42-1.55,5.67,5.67,0,0,0,1.61-4.32v-1.8l-3,.13a11,11,0,0,0-5.19,1.12,3.36,3.36,0,0,0-1.59,3.08,3.08,3.08,0,0,0,1,2.48A4.12,4.12,0,0,0,996.27,368.11Z"/><path d="M1014.54,370.23h-3V342h3Z"/><path d="M1020.68,344.93a2,2,0,0,1,.51-1.51,1.86,1.86,0,0,1,2.53,0,2,2,0,0,1,.52,1.5,2,2,0,0,1-.52,1.52,1.78,1.78,0,0,1-1.26.5,1.75,1.75,0,0,1-1.27-.5A2,2,0,0,1,1020.68,344.93Zm3.27,25.3h-3v-19.9h3Z"/><path d="M1036.77,368.11a9.74,9.74,0,0,0,1.55-.12,9.34,9.34,0,0,0,1.18-.25v2.31a5.37,5.37,0,0,1-1.44.39,11.34,11.34,0,0,1-1.72.16q-5.77,0-5.78-6.09V352.67h-2.85v-1.45l2.85-1.26,1.27-4.25h1.75v4.62h5.77v2.34h-5.77v11.72a4.05,4.05,0,0,0,.85,2.76A3,3,0,0,0,1036.77,368.11Z"/><path d="M1060.66,360.26q0,4.88-2.45,7.6a8.64,8.64,0,0,1-6.78,2.74,8.93,8.93,0,0,1-4.74-1.26,8.24,8.24,0,0,1-3.2-3.59,12.54,12.54,0,0,1-1.12-5.49q0-4.86,2.43-7.58a8.62,8.62,0,0,1,6.76-2.72,8.44,8.44,0,0,1,6.64,2.78A11,11,0,0,1,1060.66,360.26Zm-15.17,0a9.42,9.42,0,0,0,1.53,5.81,6.05,6.05,0,0,0,9,0,9.4,9.4,0,0,0,1.53-5.82,9.24,9.24,0,0,0-1.53-5.76,5.37,5.37,0,0,0-4.53-2,5.3,5.3,0,0,0-4.47,2C1046,355.76,1045.49,357.7,1045.49,360.26Z"/><path d="M1078.79,364.8a5,5,0,0,1-2.08,4.29,9.75,9.75,0,0,1-5.81,1.51,12.54,12.54,0,0,1-6.17-1.26v-2.79a15,15,0,0,0,3.08,1.14,12.73,12.73,0,0,0,3.16.42,7.24,7.24,0,0,0,3.64-.75,2.6,2.6,0,0,0,.26-4.29,15.81,15.81,0,0,0-3.93-1.95,21.63,21.63,0,0,1-4-1.81,5.6,5.6,0,0,1-1.75-1.75,4.62,4.62,0,0,1-.57-2.35,4.47,4.47,0,0,1,2-3.84,9.21,9.21,0,0,1,5.43-1.41,15.94,15.94,0,0,1,6.29,1.31l-1.08,2.45a14.41,14.41,0,0,0-5.43-1.23,6.25,6.25,0,0,0-3.23.67,2.1,2.1,0,0,0-1.09,1.85,2.29,2.29,0,0,0,.41,1.37,4.05,4.05,0,0,0,1.32,1.07,28.67,28.67,0,0,0,3.49,1.47,12.89,12.89,0,0,1,4.78,2.6A4.56,4.56,0,0,1,1078.79,364.8Z"/></svg>