<svg id="Layer_1" data-name="Layer 1" xmlns="http://www.w3.org/2000/svg" viewBox="0 0 2420.51 382.32"><defs><style>.cls-1{fill:#d32a2a;}.cls-2{fill:#ffe2a1;}.cls-3{fill:#3a68ad;}.cls-4{font-size:30px;font-family:OpenSans-Regular, Open Sans;}</style></defs><title>Fosforos_U02_05</title><rect class="cls-1" x="2403.48" width="13.75" height="237.11" transform="translate(4820.72 237.11) rotate(180)"/><path class="cls-1" d="M2403.48,204.15h13.75l3.28,55.78a10.15,10.15,0,0,1-10.15,10.15h0a10.14,10.14,0,0,1-10.15-10.15Z"/><rect class="cls-1" x="2262.11" y="-108.41" width="13.75" height="237.11" transform="translate(2279.13 -2258.84) rotate(90)"/><path class="cls-1" d="M2354.58,17V3.27L2410.36,0a10.15,10.15,0,0,1,10.15,10.15h0a10.16,10.16,0,0,1-10.15,10.15Z"/><rect class="cls-1" x="2150.43" y="32.97" width="13.75" height="237.11"/><path class="cls-1" d="M2164.18,65.93h-13.75l-3.27-55.78A10.14,10.14,0,0,1,2157.3,0h0a10.14,10.14,0,0,1,10.15,10.15Z"/><rect class="cls-2" x="2009.06" y="144.65" width="13.75" height="237.11" transform="translate(2279.13 -1752.73) rotate(90)"/><path class="cls-3" d="M2101.52,270.08V256.33l55.78-3.27a10.14,10.14,0,0,1,10.15,10.14h0a10.14,10.14,0,0,1-10.15,10.15Z"/><rect class="cls-2" x="1384.39" y="32.97" width="13.75" height="237.11"/><path class="cls-3" d="M1398.14,65.93h-13.75l-3.28-55.78A10.15,10.15,0,0,1,1391.26,0h0a10.14,10.14,0,0,1,10.15,10.15Z"/><rect class="cls-2" x="1890.5" y="0.02" width="13.75" height="237.11" transform="translate(3794.75 237.15) rotate(180)"/><path class="cls-3" d="M1890.5,204.17h13.75l3.27,55.78a10.15,10.15,0,0,1-10.15,10.15h0A10.16,10.16,0,0,1,1887.22,260Z"/><rect class="cls-2" x="1749.12" y="-108.41" width="13.75" height="237.11" transform="translate(1766.15 -1745.85) rotate(90)"/><path class="cls-3" d="M1841.59,17V3.27L1897.37,0a10.14,10.14,0,0,1,10.15,10.15h0a10.15,10.15,0,0,1-10.15,10.15Z"/><rect class="cls-2" x="1637.44" y="32.97" width="13.75" height="237.11"/><path class="cls-3" d="M1651.19,65.93h-13.75l-3.27-55.78A10.14,10.14,0,0,1,1644.32,0h0a10.15,10.15,0,0,1,10.15,10.15Z"/><rect class="cls-2" x="1496.07" y="144.65" width="13.75" height="237.11" transform="translate(1766.15 -1239.74) rotate(90)"/><path class="cls-3" d="M1588.54,270.08V256.33l55.78-3.27a10.15,10.15,0,0,1,10.15,10.14h0a10.15,10.15,0,0,1-10.15,10.15Z"/><rect class="cls-1" x="1101.58" y="144.65" width="13.75" height="237.11" transform="translate(1371.66 -845.25) rotate(90)"/><path class="cls-1" d="M1194.05,270.08V256.33l55.78-3.27A10.14,10.14,0,0,1,1260,263.2h0a10.14,10.14,0,0,1-10.15,10.15Z"/><rect class="cls-2" x="476.91" y="32.97" width="13.75" height="237.11"/><path class="cls-3" d="M490.66,65.93H476.91l-3.27-55.78A10.14,10.14,0,0,1,483.79,0h0a10.15,10.15,0,0,1,10.15,10.15Z"/><rect class="cls-1" x="983.02" y="0.02" width="13.75" height="237.11" transform="translate(1979.8 237.15) rotate(180)"/><path class="cls-1" d="M983,204.17h13.75l3.28,55.78A10.16,10.16,0,0,1,989.9,270.1h0A10.15,10.15,0,0,1,979.75,260Z"/><rect class="cls-1" x="841.65" y="-108.41" width="13.75" height="237.11" transform="translate(858.67 -838.38) rotate(90)"/><path class="cls-1" d="M934.12,17V3.27L989.9,0a10.15,10.15,0,0,1,10.15,10.15h0A10.16,10.16,0,0,1,989.9,20.3Z"/><rect class="cls-2" x="729.97" y="32.97" width="13.75" height="237.11"/><path class="cls-3" d="M743.72,65.93H730L726.7,10.15A10.14,10.14,0,0,1,736.84,0h0A10.14,10.14,0,0,1,747,10.15Z"/><rect class="cls-2" x="588.6" y="144.65" width="13.75" height="237.11" transform="translate(858.68 -332.26) rotate(90)"/><path class="cls-3" d="M681.06,270.09V256.34l55.78-3.28A10.15,10.15,0,0,1,747,263.21h0a10.14,10.14,0,0,1-10.15,10.15Z"/><rect class="cls-2" x="3.27" y="32.97" width="13.75" height="237.11"/><path class="cls-3" d="M17,65.93H3.27L0,10.15A10.14,10.14,0,0,1,10.15,0h0A10.15,10.15,0,0,1,20.3,10.15Z"/><rect class="cls-2" x="256.33" y="32.97" width="13.75" height="237.11"/><path class="cls-3" d="M270.08,65.93H256.33l-3.27-55.78A10.14,10.14,0,0,1,263.2,0h0a10.14,10.14,0,0,1,10.15,10.15Z"/><rect class="cls-2" x="114.96" y="144.65" width="13.75" height="237.11" transform="translate(385.03 141.37) rotate(90)"/><path class="cls-3" d="M207.42,270.08V256.33l55.78-3.27a10.14,10.14,0,0,1,10.15,10.14h0a10.14,10.14,0,0,1-10.15,10.15Z"/><text class="cls-4" transform="translate(34.78 338.19)">Primer término<tspan x="9.05" y="36">tiene 3 palitos</tspan></text><text class="cls-4" transform="translate(741.44 338.19)">Segundo término<tspan x="23.14" y="36">tiene 6 palitos</tspan></text><text class="cls-4" transform="translate(1807.31 338.07)">Tercer término<tspan x="6.13" y="36">tiene 9 palitos</tspan></text></svg>