<svg id="Layer_1" data-name="Layer 1" xmlns="http://www.w3.org/2000/svg" viewBox="0 0 1788.43 238.69"><defs><style>.cls-1{fill:#ffe2a1;}.cls-2{fill:#3a68ad;}</style></defs><title>Fosforos_V_2g</title><rect class="cls-1" x="1700.72" y="-12.45" width="13.75" height="237.11" transform="translate(3239.47 -655.79) rotate(150)"/><path class="cls-2" d="M1744.44,183.67l11.91-6.87,30.72,46.67a10.15,10.15,0,0,1-3.71,13.86h0a10.15,10.15,0,0,1-13.87-3.71Z"/><rect class="cls-1" x="1574.49" y="14.03" width="13.75" height="237.11" transform="translate(278.15 -772.92) rotate(30)"/><path class="cls-2" d="M1630.11,61.9,1618.2,55l25.06-49.94a10.14,10.14,0,0,1,13.86-3.72h0a10.14,10.14,0,0,1,3.72,13.86Z"/><rect class="cls-1" x="1448.26" y="-12.45" width="13.75" height="237.11" transform="matrix(-0.87, 0.5, -0.5, -0.87, 2768.37, -529.56)"/><path class="cls-2" d="M1492,183.67l11.91-6.87,30.73,46.67a10.14,10.14,0,0,1-3.72,13.86h0a10.14,10.14,0,0,1-13.86-3.71Z"/><rect class="cls-1" x="1322.02" y="14.03" width="13.75" height="237.11" transform="translate(244.33 -646.69) rotate(30)"/><path class="cls-2" d="M1377.65,61.9,1365.74,55l25-49.94a10.16,10.16,0,0,1,13.87-3.72h0a10.15,10.15,0,0,1,3.71,13.86Z"/><rect class="cls-1" x="1194.45" y="-12.45" width="13.75" height="237.11" transform="matrix(-0.87, 0.5, -0.5, -0.87, 2294.76, -402.66)"/><path class="cls-2" d="M1238.17,183.67l11.9-6.87,30.73,46.67a10.15,10.15,0,0,1-3.71,13.86h0a10.15,10.15,0,0,1-13.87-3.71Z"/><rect class="cls-1" x="1068.22" y="14.03" width="13.75" height="237.11" transform="translate(210.33 -519.78) rotate(30)"/><path class="cls-2" d="M1123.84,61.9,1111.93,55,1137,5.08a10.14,10.14,0,0,1,13.86-3.72h0a10.14,10.14,0,0,1,3.72,13.86Z"/><rect class="cls-1" x="941.99" y="-12.45" width="13.75" height="237.11" transform="matrix(-0.87, 0.5, -0.5, -0.87, 1823.65, -276.42)"/><path class="cls-2" d="M985.7,183.67l11.91-6.87,30.73,46.67a10.14,10.14,0,0,1-3.72,13.86h0a10.14,10.14,0,0,1-13.86-3.71Z"/><rect class="cls-1" x="815.75" y="14.03" width="13.75" height="237.11" transform="translate(176.5 -393.55) rotate(30)"/><path class="cls-2" d="M871.38,61.9,859.47,55l25-49.94a10.16,10.16,0,0,1,13.87-3.72h0a10.15,10.15,0,0,1,3.71,13.86Z"/><rect class="cls-1" x="689.52" y="-12.45" width="13.75" height="237.11" transform="translate(1352.55 -150.19) rotate(150)"/><path class="cls-2" d="M733.24,183.67l11.91-6.87,30.72,46.67a10.14,10.14,0,0,1-3.71,13.86h0a10.14,10.14,0,0,1-13.86-3.71Z"/><rect class="cls-1" x="563.29" y="14.03" width="13.75" height="237.11" transform="translate(142.68 -267.32) rotate(30)"/><path class="cls-2" d="M618.91,61.9,607,55l25-49.94a10.14,10.14,0,0,1,13.86-3.72h0a10.14,10.14,0,0,1,3.72,13.86Z"/><rect class="cls-1" x="437.06" y="-12.45" width="13.75" height="237.11" transform="translate(881.44 -23.96) rotate(150)"/><path class="cls-2" d="M480.77,183.67l11.91-6.87,30.73,46.67a10.14,10.14,0,0,1-3.72,13.86h0a10.14,10.14,0,0,1-13.86-3.71Z"/><rect class="cls-1" x="310.82" y="14.03" width="13.75" height="237.11" transform="translate(108.86 -141.09) rotate(30)"/><path class="cls-2" d="M366.45,61.9,354.54,55,379.6,5.08a10.14,10.14,0,0,1,13.86-3.72h0a10.14,10.14,0,0,1,3.71,13.86Z"/><rect class="cls-1" x="184.59" y="-12.45" width="13.75" height="237.11" transform="matrix(-0.87, 0.5, -0.5, -0.87, 410.34, 102.27)"/><path class="cls-2" d="M228.31,183.67l11.91-6.87,30.72,46.67a10.15,10.15,0,0,1-3.71,13.86h0a10.15,10.15,0,0,1-13.87-3.71Z"/><rect class="cls-1" x="58.36" y="14.03" width="13.75" height="237.11" transform="translate(75.03 -14.85) rotate(30)"/><path class="cls-2" d="M114,61.9,102.07,55,127.13,5.08A10.14,10.14,0,0,1,141,1.36h0a10.14,10.14,0,0,1,3.72,13.86Z"/></svg>