<svg id="Layer_1" data-name="Layer 1" xmlns="http://www.w3.org/2000/svg" viewBox="0 0 1299.33 380.61"><defs><style>.cls-1{fill:#ffe2a1;}.cls-2{fill:#3a68ad;}.cls-3{fill:#d32a2a;}</style></defs><title>Fosforos_U03_02_02</title><rect class="cls-1" x="881" y="-108.41" width="13.75" height="237.11" transform="translate(898.02 -877.72) rotate(90)"/><path class="cls-2" d="M973.46,17V3.27L1029.25,0a10.14,10.14,0,0,1,10.14,10.15h0a10.15,10.15,0,0,1-10.14,10.15Z"/><rect class="cls-1" x="368.01" y="-108.41" width="13.75" height="237.11" transform="translate(385.03 -364.74) rotate(90)"/><path class="cls-2" d="M460.48,17V3.27L516.26,0a10.15,10.15,0,0,1,10.15,10.15h0A10.16,10.16,0,0,1,516.26,20.3Z"/><rect class="cls-3" x="1140.93" y="144.65" width="13.75" height="237.11" transform="translate(1411.01 -884.6) rotate(90)"/><path class="cls-3" d="M1233.39,270.08V256.33l55.79-3.27a10.15,10.15,0,0,1,10.15,10.14h0a10.15,10.15,0,0,1-10.15,10.15Z"/><rect class="cls-3" x="1022.37" width="13.75" height="237.11" transform="translate(2058.49 237.11) rotate(180)"/><path class="cls-3" d="M1022.37,204.15h13.75l3.27,55.78a10.14,10.14,0,0,1-10.14,10.15h0a10.14,10.14,0,0,1-10.15-10.15Z"/><rect class="cls-1" x="769.32" y="32.97" width="13.75" height="237.11"/><path class="cls-2" d="M783.07,65.93H769.32L766,10.15A10.15,10.15,0,0,1,776.19,0h0a10.14,10.14,0,0,1,10.15,10.15Z"/><rect class="cls-1" x="627.94" y="144.65" width="13.75" height="237.11" transform="translate(898.02 -371.61) rotate(90)"/><path class="cls-2" d="M720.41,270.08V256.33l55.78-3.27a10.14,10.14,0,0,1,10.15,10.14h0a10.14,10.14,0,0,1-10.15,10.15Z"/><rect class="cls-1" x="3.27" y="32.97" width="13.75" height="237.11"/><path class="cls-2" d="M17,65.93H3.27L0,10.15A10.14,10.14,0,0,1,10.15,0h0A10.15,10.15,0,0,1,20.3,10.15Z"/><rect class="cls-1" x="509.39" y="0.02" width="13.75" height="237.11" transform="translate(1032.52 237.15) rotate(180)"/><path class="cls-2" d="M509.39,204.17h13.74L526.41,260a10.16,10.16,0,0,1-10.15,10.15h0A10.16,10.16,0,0,1,506.11,260Z"/><rect class="cls-1" x="256.33" y="32.97" width="13.75" height="237.11"/><path class="cls-2" d="M270.08,65.93H256.33l-3.27-55.78A10.14,10.14,0,0,1,263.2,0h0a10.14,10.14,0,0,1,10.15,10.15Z"/><rect class="cls-1" x="114.96" y="144.65" width="13.75" height="237.11" transform="translate(385.03 141.37) rotate(90)"/><path class="cls-2" d="M207.42,270.08V256.33l55.78-3.27a10.14,10.14,0,0,1,10.15,10.14h0a10.14,10.14,0,0,1-10.15,10.15Z"/><path d="M555.7,320a6.5,6.5,0,0,1-2.54,5.46,11,11,0,0,1-6.9,2,17.34,17.34,0,0,1-7.27-1.22v-3a19.5,19.5,0,0,0,3.56,1.09,18.5,18.5,0,0,0,3.82.4,7.69,7.69,0,0,0,4.64-1.17,3.83,3.83,0,0,0,1.57-3.26A4.16,4.16,0,0,0,552,318a5.12,5.12,0,0,0-1.85-1.63,26.7,26.7,0,0,0-3.95-1.69,12.56,12.56,0,0,1-5.29-3.14,6.93,6.93,0,0,1-1.59-4.74,5.93,5.93,0,0,1,2.3-4.89,9.62,9.62,0,0,1,6.11-1.81,18,18,0,0,1,7.28,1.45l-1,2.69a16.53,16.53,0,0,0-6.4-1.38,6.2,6.2,0,0,0-3.83,1.05,3.48,3.48,0,0,0-1.38,2.93,4.47,4.47,0,0,0,.51,2.26,4.73,4.73,0,0,0,1.72,1.61,20.74,20.74,0,0,0,3.69,1.63,14.56,14.56,0,0,1,5.75,3.2A6.25,6.25,0,0,1,555.7,320Z"/><path d="M569.09,327.4a9.15,9.15,0,0,1-7-2.69q-2.55-2.68-2.55-7.47a11.54,11.54,0,0,1,2.37-7.64,7.87,7.87,0,0,1,6.37-2.84,7.5,7.5,0,0,1,5.92,2.47,9.43,9.43,0,0,1,2.18,6.49v1.91H562.69a7.89,7.89,0,0,0,1.77,5.32,6.14,6.14,0,0,0,4.74,1.81,15.92,15.92,0,0,0,6.35-1.34v2.69a15.83,15.83,0,0,1-3,1A17,17,0,0,1,569.09,327.4Zm-.82-18.11a4.92,4.92,0,0,0-3.82,1.56,7.2,7.2,0,0,0-1.68,4.32h10.4a6.64,6.64,0,0,0-1.27-4.37A4.48,4.48,0,0,0,568.27,309.29Z"/><path d="M597.84,307.13V309l-3.69.44a6.41,6.41,0,0,1,.91,1.66,6.31,6.31,0,0,1,.4,2.32,5.91,5.91,0,0,1-2,4.67,8.06,8.06,0,0,1-5.48,1.74,9,9,0,0,1-1.68-.15,3,3,0,0,0-1.92,2.56,1.29,1.29,0,0,0,.67,1.21,4.94,4.94,0,0,0,2.31.39h3.52a7.88,7.88,0,0,1,5,1.37,4.69,4.69,0,0,1,1.73,3.95,5.63,5.63,0,0,1-2.65,5q-2.65,1.74-7.74,1.74a10.64,10.64,0,0,1-6-1.45,4.7,4.7,0,0,1-2.11-4.11,4.62,4.62,0,0,1,1.16-3.14,6,6,0,0,1,3.27-1.8,3.14,3.14,0,0,1-1.28-1.07,2.8,2.8,0,0,1-.52-1.69,3.27,3.27,0,0,1,.58-1.91,6.21,6.21,0,0,1,1.84-1.58,5.35,5.35,0,0,1-2.52-2.16,6.34,6.34,0,0,1-1-3.49,6.42,6.42,0,0,1,2-5,8,8,0,0,1,5.56-1.78,10.12,10.12,0,0,1,2.81.37ZM582,330.38a2.71,2.71,0,0,0,1.37,2.45,7.57,7.57,0,0,0,3.9.83,11,11,0,0,0,5.62-1.13,3.49,3.49,0,0,0,1.83-3.08,2.43,2.43,0,0,0-1-2.24,7.74,7.74,0,0,0-3.76-.63H586.3a4.77,4.77,0,0,0-3.19,1A3.51,3.51,0,0,0,582,330.38Zm1.64-16.88a4,4,0,0,0,1.18,3.16,4.69,4.69,0,0,0,3.29,1.07c2.94,0,4.41-1.42,4.41-4.28S591,309,588,309a4.42,4.42,0,0,0-3.27,1.15A4.6,4.6,0,0,0,583.6,313.5Z"/><path d="M604.76,307.13V320a5.19,5.19,0,0,0,1.11,3.63,4.48,4.48,0,0,0,3.46,1.2,5.65,5.65,0,0,0,4.57-1.71q1.46-1.7,1.45-5.57V307.13h3V327h-2.49l-.43-2.67h-.17a6,6,0,0,1-2.57,2.26,8.61,8.61,0,0,1-3.75.78,7.62,7.62,0,0,1-5.44-1.73q-1.8-1.73-1.8-5.52v-13Z"/><path d="M638.38,327V314.16a5.2,5.2,0,0,0-1.11-3.64,4.52,4.52,0,0,0-3.47-1.2,5.75,5.75,0,0,0-4.58,1.69q-1.46,1.69-1.45,5.58V327h-3v-19.9h2.46l.49,2.72h.14a6.22,6.22,0,0,1,2.6-2.28,8.39,8.39,0,0,1,3.72-.81,7.53,7.53,0,0,1,5.41,1.74c1.22,1.15,1.82,3,1.82,5.55v13Z"/><path d="M661.13,324.36H661a7.08,7.08,0,0,1-6.25,3,7.38,7.38,0,0,1-6.07-2.67q-2.17-2.67-2.17-7.6c0-3.28.72-5.83,2.18-7.64a7.31,7.31,0,0,1,6.06-2.73,7.22,7.22,0,0,1,6.21,2.95h.24l-.13-1.44-.07-1.4v-8.1h3V327h-2.46Zm-6,.51c2.06,0,3.56-.56,4.48-1.68s1.39-2.92,1.39-5.42v-.64q0-4.23-1.41-6a5.32,5.32,0,0,0-4.49-1.81,4.62,4.62,0,0,0-4.06,2.06,10.22,10.22,0,0,0-1.41,5.82,9.87,9.87,0,0,0,1.4,5.76A4.74,4.74,0,0,0,655.1,324.87Z"/><path d="M687.56,317.06q0,4.88-2.45,7.6a8.64,8.64,0,0,1-6.78,2.74,8.93,8.93,0,0,1-4.74-1.26,8.22,8.22,0,0,1-3.19-3.59,12.54,12.54,0,0,1-1.13-5.49q0-4.86,2.43-7.58a8.63,8.63,0,0,1,6.76-2.72,8.43,8.43,0,0,1,6.64,2.78A11,11,0,0,1,687.56,317.06Zm-15.17,0a9.42,9.42,0,0,0,1.53,5.81,6.05,6.05,0,0,0,9,0,9.39,9.39,0,0,0,1.54-5.82,9.24,9.24,0,0,0-1.54-5.76,5.37,5.37,0,0,0-4.53-2,5.31,5.31,0,0,0-4.47,1.95A9.38,9.38,0,0,0,672.39,317.06Z"/><path d="M708.94,324.91a9.7,9.7,0,0,0,1.54-.12,11.37,11.37,0,0,0,1.18-.24v2.3a5.26,5.26,0,0,1-1.44.39,11.34,11.34,0,0,1-1.72.16q-5.78,0-5.77-6.09V309.47h-2.86V308l2.86-1.26,1.27-4.25h1.74v4.62h5.78v2.34h-5.78v11.71a4.06,4.06,0,0,0,.85,2.77A3,3,0,0,0,708.94,324.91Z"/><path d="M724.05,327.4a9.17,9.17,0,0,1-7-2.69q-2.55-2.68-2.55-7.47a11.54,11.54,0,0,1,2.37-7.64,7.87,7.87,0,0,1,6.37-2.84,7.48,7.48,0,0,1,5.92,2.47,9.43,9.43,0,0,1,2.18,6.49v1.91H717.66a7.89,7.89,0,0,0,1.77,5.32,6.11,6.11,0,0,0,4.73,1.81,15.92,15.92,0,0,0,6.35-1.34v2.69a15.83,15.83,0,0,1-3,1A17,17,0,0,1,724.05,327.4Zm-.82-18.11a4.92,4.92,0,0,0-3.82,1.56,7.2,7.2,0,0,0-1.68,4.32h10.4a6.64,6.64,0,0,0-1.27-4.37A4.46,4.46,0,0,0,723.23,309.29ZM721,304c.58-.75,1.21-1.66,1.88-2.72s1.2-2,1.59-2.78h3.66v.38a26.38,26.38,0,0,1-2.37,2.9,27.21,27.21,0,0,1-2.75,2.67h-2Z"/><path d="M745.59,306.76A12.21,12.21,0,0,1,748,307l-.42,2.8a10.33,10.33,0,0,0-2.18-.27,5.29,5.29,0,0,0-4.13,2,7.16,7.16,0,0,0-1.72,4.88V327h-3v-19.9H739l.34,3.68h.15a8.68,8.68,0,0,1,2.67-3A6,6,0,0,1,745.59,306.76Z"/><path d="M777.06,327V314.08a5.39,5.39,0,0,0-1-3.57,3.94,3.94,0,0,0-3.16-1.19,5.09,5.09,0,0,0-4.16,1.62,7.67,7.67,0,0,0-1.35,5V327h-3V314.08a5.39,5.39,0,0,0-1-3.57,4,4,0,0,0-3.18-1.19A4.93,4.93,0,0,0,756,311c-.87,1.14-1.31,3-1.31,5.57V327h-3v-19.9h2.45l.49,2.72h.15a5.93,5.93,0,0,1,2.41-2.27,7.37,7.37,0,0,1,3.47-.82c3.12,0,5.15,1.13,6.11,3.38h.14a6.47,6.47,0,0,1,2.58-2.47,8.08,8.08,0,0,1,3.85-.91,6.74,6.74,0,0,1,5.06,1.74q1.68,1.72,1.68,5.55v13Z"/><path d="M786,301.73a2,2,0,0,1,.51-1.51,1.88,1.88,0,0,1,2.52,0,2,2,0,0,1,.53,1.5,2,2,0,0,1-.53,1.52,1.77,1.77,0,0,1-1.25.5,1.73,1.73,0,0,1-1.27-.5A2,2,0,0,1,786,301.73Zm3.27,25.3h-3v-19.9h3Z"/><path d="M809.32,327V314.16a5.2,5.2,0,0,0-1.11-3.64,4.51,4.51,0,0,0-3.47-1.2,5.73,5.73,0,0,0-4.57,1.69q-1.45,1.69-1.46,5.58V327h-3v-19.9h2.45l.49,2.72h.15a6.13,6.13,0,0,1,2.59-2.28,8.47,8.47,0,0,1,3.73-.81,7.55,7.55,0,0,1,5.41,1.74q1.82,1.72,1.82,5.55v13Z"/><path d="M835.71,317.06q0,4.88-2.45,7.6a8.62,8.62,0,0,1-6.78,2.74,9,9,0,0,1-4.74-1.26,8.22,8.22,0,0,1-3.19-3.59,12.54,12.54,0,0,1-1.13-5.49q0-4.86,2.44-7.58a8.6,8.6,0,0,1,6.75-2.72,8.43,8.43,0,0,1,6.64,2.78A11,11,0,0,1,835.71,317.06Zm-15.16,0a9.43,9.43,0,0,0,1.52,5.81,6.05,6.05,0,0,0,9,0,9.33,9.33,0,0,0,1.54-5.82,9.18,9.18,0,0,0-1.54-5.76,5.37,5.37,0,0,0-4.53-2,5.31,5.31,0,0,0-4.47,1.95A9.38,9.38,0,0,0,820.55,317.06Z"/><path d="M564.75,369.54a11.09,11.09,0,0,0,1.55-.11,9,9,0,0,0,1.18-.25v2.31a5.37,5.37,0,0,1-1.44.39,11.23,11.23,0,0,1-1.72.15q-5.77,0-5.78-6.08V354.11h-2.85v-1.46l2.85-1.25,1.27-4.25h1.75v4.61h5.77v2.35h-5.77v11.71a4,4,0,0,0,.85,2.76A3,3,0,0,0,564.75,369.54Z"/><path d="M571.2,346.37a2,2,0,0,1,.51-1.52,1.89,1.89,0,0,1,2.53,0,2,2,0,0,1,.52,1.51,2,2,0,0,1-.52,1.52,1.78,1.78,0,0,1-1.26.49,1.74,1.74,0,0,1-1.27-.49A2.05,2.05,0,0,1,571.2,346.37Zm3.27,25.3h-3V351.76h3Z"/><path d="M589.27,372a9.11,9.11,0,0,1-7-2.69,10.4,10.4,0,0,1-2.55-7.46,11.55,11.55,0,0,1,2.37-7.65,7.86,7.86,0,0,1,6.36-2.83,7.49,7.49,0,0,1,5.92,2.46,9.4,9.4,0,0,1,2.18,6.49v1.91H582.88a7.88,7.88,0,0,0,1.77,5.32,6.13,6.13,0,0,0,4.73,1.82,16,16,0,0,0,6.36-1.35v2.69a16.06,16.06,0,0,1-3,1A17,17,0,0,1,589.27,372Zm-.81-18.11a5,5,0,0,0-3.83,1.57,7.2,7.2,0,0,0-1.68,4.32h10.41a6.62,6.62,0,0,0-1.27-4.37A4.48,4.48,0,0,0,588.46,353.92Z"/><path d="M615.36,371.67V358.79a5.19,5.19,0,0,0-1.11-3.63,4.52,4.52,0,0,0-3.47-1.2,5.72,5.72,0,0,0-4.58,1.69c-1,1.13-1.45,3-1.45,5.58v10.44h-3V351.76h2.46l.49,2.73h.14a6.16,6.16,0,0,1,2.6-2.28,8.39,8.39,0,0,1,3.72-.81,7.58,7.58,0,0,1,5.41,1.73c1.22,1.16,1.82,3,1.82,5.55v13Z"/><path d="M633,372a9.11,9.11,0,0,1-7-2.69,10.4,10.4,0,0,1-2.55-7.46,11.55,11.55,0,0,1,2.37-7.65,7.86,7.86,0,0,1,6.36-2.83,7.49,7.49,0,0,1,5.92,2.46,9.4,9.4,0,0,1,2.18,6.49v1.91H626.58a7.88,7.88,0,0,0,1.77,5.32,6.13,6.13,0,0,0,4.73,1.82,16,16,0,0,0,6.36-1.35v2.69a15.91,15.91,0,0,1-3,1A16.91,16.91,0,0,1,633,372Zm-.81-18.11a5,5,0,0,0-3.83,1.57,7.2,7.2,0,0,0-1.68,4.32h10.41a6.62,6.62,0,0,0-1.27-4.37A4.48,4.48,0,0,0,632.16,353.92Z"/><path d="M664.88,371.67h-2.94V352.74c0-1.57,0-3.06.15-4.46-.26.25-.54.52-.86.8s-1.75,1.45-4.32,3.54l-1.6-2.07,7-5.43h2.54Z"/><path d="M692.58,358.36q0,6.88-2.17,10.28a8,8,0,0,1-13.16-.09Q675,365.09,675,358.36q0-6.94,2.16-10.3a8,8,0,0,1,13.16.14Q692.58,351.71,692.58,358.36Zm-14.51,0q0,5.79,1.36,8.43a4.89,4.89,0,0,0,8.71,0c.9-1.79,1.36-4.59,1.36-8.4s-.46-6.61-1.36-8.39a4.91,4.91,0,0,0-8.71,0C678.52,351.69,678.07,354.49,678.07,358.36Z"/><path d="M716.56,372a8.56,8.56,0,0,1-3.55-.72,6.59,6.59,0,0,1-2.7-2.2h-.22a25.74,25.74,0,0,1,.22,3.3v8.2h-3V351.76h2.46l.41,2.73h.15a7,7,0,0,1,2.7-2.36,8.16,8.16,0,0,1,3.55-.73,7.35,7.35,0,0,1,6.11,2.71q2.15,2.7,2.15,7.59t-2.19,7.62A7.36,7.36,0,0,1,716.56,372ZM716.12,354a5.33,5.33,0,0,0-4.41,1.69q-1.37,1.69-1.4,5.38v.67c0,2.8.46,4.8,1.4,6a5.3,5.3,0,0,0,4.48,1.81,4.66,4.66,0,0,0,4-2.09,9.86,9.86,0,0,0,1.47-5.76,9.5,9.5,0,0,0-1.47-5.71A4.78,4.78,0,0,0,716.12,354Z"/><path d="M742.33,371.67l-.6-2.83h-.15a8.43,8.43,0,0,1-3,2.53,9.11,9.11,0,0,1-3.7.66,6.68,6.68,0,0,1-4.64-1.52,5.58,5.58,0,0,1-1.68-4.34q0-6,9.64-6.32l3.38-.11V358.5a5.07,5.07,0,0,0-1-3.46,4.15,4.15,0,0,0-3.22-1.12,13.08,13.08,0,0,0-5.63,1.53l-.93-2.31a14.52,14.52,0,0,1,6.74-1.7c2.37,0,4.13.52,5.28,1.58s1.71,2.74,1.71,5.06v13.59Zm-6.81-2.13a6.12,6.12,0,0,0,4.42-1.54,5.72,5.72,0,0,0,1.61-4.32v-1.8l-3,.13a10.92,10.92,0,0,0-5.18,1.11,3.37,3.37,0,0,0-1.59,3.08,3.11,3.11,0,0,0,1,2.49A4.1,4.1,0,0,0,735.52,369.54Z"/><path d="M753.79,371.67h-3V343.41h3Z"/><path d="M759.93,346.37a2,2,0,0,1,.51-1.52,1.88,1.88,0,0,1,2.52,0,2,2,0,0,1,.53,1.51,2,2,0,0,1-.53,1.52,1.76,1.76,0,0,1-1.25.49,1.74,1.74,0,0,1-1.27-.49A2.05,2.05,0,0,1,759.93,346.37Zm3.27,25.3h-3V351.76h3Z"/><path d="M776,369.54a10.94,10.94,0,0,0,1.54-.11,9.55,9.55,0,0,0,1.19-.25v2.31a5.35,5.35,0,0,1-1.45.39,11.12,11.12,0,0,1-1.72.15q-5.77,0-5.77-6.08V354.11H767v-1.46l2.85-1.25,1.27-4.25h1.74v4.61h5.78v2.35h-5.78v11.71a4,4,0,0,0,.86,2.76A3,3,0,0,0,776,369.54Z"/><path d="M799.9,361.7c0,3.24-.81,5.78-2.45,7.6a8.63,8.63,0,0,1-6.77,2.73,9,9,0,0,1-4.74-1.25,8.27,8.27,0,0,1-3.2-3.6,12.53,12.53,0,0,1-1.13-5.48c0-3.25.82-5.77,2.44-7.58a8.6,8.6,0,0,1,6.76-2.72,8.42,8.42,0,0,1,6.63,2.78A10.93,10.93,0,0,1,799.9,361.7Zm-15.16,0a9.49,9.49,0,0,0,1.52,5.81,6.06,6.06,0,0,0,9,0,9.44,9.44,0,0,0,1.53-5.82,9.29,9.29,0,0,0-1.53-5.77,5.43,5.43,0,0,0-4.54-2,5.3,5.3,0,0,0-4.46,1.94Q784.74,357.85,784.74,361.7Z"/><path d="M818,366.24a5,5,0,0,1-2.07,4.28,9.7,9.7,0,0,1-5.81,1.51,12.73,12.73,0,0,1-6.18-1.25V368a14.92,14.92,0,0,0,3.08,1.15,12.78,12.78,0,0,0,3.17.41,7.2,7.2,0,0,0,3.63-.75,2.49,2.49,0,0,0,1.27-2.3,2.51,2.51,0,0,0-1-2,16.12,16.12,0,0,0-3.94-1.95,21,21,0,0,1-3.95-1.81,5.27,5.27,0,0,1-1.74-1.75,4.56,4.56,0,0,1-.57-2.34,4.47,4.47,0,0,1,2-3.84,9.21,9.21,0,0,1,5.43-1.41,15.89,15.89,0,0,1,6.28,1.31l-1.07,2.45a14.52,14.52,0,0,0-5.43-1.24,6.19,6.19,0,0,0-3.23.68,2.06,2.06,0,0,0-1.09,1.85,2.2,2.2,0,0,0,.41,1.36,4,4,0,0,0,1.31,1.07,29.42,29.42,0,0,0,3.49,1.47,13.1,13.1,0,0,1,4.79,2.6A4.58,4.58,0,0,1,818,366.24Z"/></svg>