<svg id="Layer_1" data-name="Layer 1" xmlns="http://www.w3.org/2000/svg" viewBox="0 0 2798.28 238.69"><defs><style>.cls-1{fill:#ffe2a1;}.cls-2{fill:#3a68ad;}</style></defs><title>Fosforos_V_1f</title><rect class="cls-1" x="2710.57" y="-12.45" width="13.75" height="237.11" transform="translate(5123.87 -1160.72) rotate(150)"/><path class="cls-2" d="M2754.29,183.67l11.9-6.87,30.73,46.67a10.14,10.14,0,0,1-3.72,13.86h0a10.14,10.14,0,0,1-13.86-3.71Z"/><rect class="cls-1" x="2584.33" y="14.03" width="13.75" height="237.11" transform="translate(413.45 -1277.84) rotate(30)"/><path class="cls-2" d="M2640,61.9,2628.05,55l25.06-49.94A10.14,10.14,0,0,1,2667,1.36h0a10.14,10.14,0,0,1,3.71,13.86Z"/><rect class="cls-1" x="2458.11" y="-12.45" width="13.75" height="237.11" transform="translate(4652.79 -1034.49) rotate(150)"/><path class="cls-2" d="M2501.83,183.67l11.91-6.87,30.72,46.67a10.14,10.14,0,0,1-3.71,13.86h0a10.14,10.14,0,0,1-13.86-3.71Z"/><rect class="cls-1" x="2331.88" y="14.03" width="13.75" height="237.11" transform="translate(379.63 -1151.61) rotate(30)"/><path class="cls-2" d="M2387.5,61.9,2375.6,55l25.05-49.94a10.15,10.15,0,0,1,13.87-3.72h0a10.15,10.15,0,0,1,3.71,13.86Z"/><rect class="cls-1" x="2205.65" y="-12.45" width="13.75" height="237.11" transform="translate(4181.68 -908.26) rotate(150)"/><path class="cls-2" d="M2249.37,183.67l11.9-6.87L2292,223.47a10.15,10.15,0,0,1-3.71,13.86h0a10.15,10.15,0,0,1-13.87-3.71Z"/><rect class="cls-1" x="2079.42" y="14.03" width="13.75" height="237.11" transform="translate(345.8 -1025.38) rotate(30)"/><path class="cls-2" d="M2135,61.9,2123.13,55l25.06-49.94a10.14,10.14,0,0,1,13.86-3.72h0a10.14,10.14,0,0,1,3.72,13.86Z"/><rect class="cls-1" x="1953.19" y="-12.45" width="13.75" height="237.11" transform="translate(3710.58 -782.03) rotate(150)"/><path class="cls-2" d="M1996.9,183.67l11.91-6.87,30.73,46.67a10.14,10.14,0,0,1-3.72,13.86h0a10.14,10.14,0,0,1-13.86-3.71Z"/><rect class="cls-1" x="1826.95" y="14.03" width="13.75" height="237.11" transform="translate(311.98 -899.15) rotate(30)"/><path class="cls-2" d="M1882.58,61.9,1870.67,55l25.06-49.94a10.14,10.14,0,0,1,13.86-3.72h0a10.14,10.14,0,0,1,3.71,13.86Z"/><rect class="cls-1" x="1700.72" y="-12.45" width="13.75" height="237.11" transform="translate(3239.47 -655.79) rotate(150)"/><path class="cls-2" d="M1744.44,183.67l11.91-6.87,30.72,46.67a10.15,10.15,0,0,1-3.71,13.86h0a10.15,10.15,0,0,1-13.87-3.71Z"/><rect class="cls-1" x="1574.49" y="14.03" width="13.75" height="237.11" transform="translate(278.15 -772.92) rotate(30)"/><path class="cls-2" d="M1630.11,61.9,1618.2,55l25.06-49.94a10.14,10.14,0,0,1,13.86-3.72h0a10.14,10.14,0,0,1,3.72,13.86Z"/><rect class="cls-1" x="1448.26" y="-12.45" width="13.75" height="237.11" transform="translate(2768.37 -529.56) rotate(150)"/><path class="cls-2" d="M1492,183.67l11.91-6.87,30.73,46.67a10.14,10.14,0,0,1-3.72,13.86h0a10.14,10.14,0,0,1-13.86-3.71Z"/><rect class="cls-1" x="1322.02" y="14.03" width="13.75" height="237.11" transform="translate(244.33 -646.69) rotate(30)"/><path class="cls-2" d="M1377.65,61.9,1365.74,55l25-49.94a10.16,10.16,0,0,1,13.87-3.72h0a10.15,10.15,0,0,1,3.71,13.86Z"/><rect class="cls-1" x="1194.45" y="-12.45" width="13.75" height="237.11" transform="translate(2294.76 -402.66) rotate(150)"/><path class="cls-2" d="M1238.17,183.67l11.9-6.87,30.73,46.67a10.15,10.15,0,0,1-3.71,13.86h0a10.15,10.15,0,0,1-13.87-3.71Z"/><rect class="cls-1" x="1068.22" y="14.03" width="13.75" height="237.11" transform="translate(210.33 -519.78) rotate(30)"/><path class="cls-2" d="M1123.84,61.9,1111.93,55,1137,5.08a10.14,10.14,0,0,1,13.86-3.72h0a10.14,10.14,0,0,1,3.72,13.86Z"/><rect class="cls-1" x="941.99" y="-12.45" width="13.75" height="237.11" transform="translate(1823.65 -276.42) rotate(150)"/><path class="cls-2" d="M985.7,183.67l11.91-6.87,30.73,46.67a10.14,10.14,0,0,1-3.72,13.86h0a10.14,10.14,0,0,1-13.86-3.71Z"/><rect class="cls-1" x="815.75" y="14.03" width="13.75" height="237.11" transform="translate(176.5 -393.55) rotate(30)"/><path class="cls-2" d="M871.38,61.9,859.47,55l25-49.94a10.16,10.16,0,0,1,13.87-3.72h0a10.15,10.15,0,0,1,3.71,13.86Z"/><rect class="cls-1" x="689.52" y="-12.45" width="13.75" height="237.11" transform="translate(1352.55 -150.19) rotate(150)"/><path class="cls-2" d="M733.24,183.67l11.91-6.87,30.72,46.67a10.14,10.14,0,0,1-3.71,13.86h0a10.14,10.14,0,0,1-13.86-3.71Z"/><rect class="cls-1" x="563.29" y="14.03" width="13.75" height="237.11" transform="translate(142.68 -267.32) rotate(30)"/><path class="cls-2" d="M618.91,61.9,607,55l25-49.94a10.14,10.14,0,0,1,13.86-3.72h0a10.14,10.14,0,0,1,3.72,13.86Z"/><rect class="cls-1" x="437.06" y="-12.45" width="13.75" height="237.11" transform="translate(881.44 -23.96) rotate(150)"/><path class="cls-2" d="M480.77,183.67l11.91-6.87,30.73,46.67a10.14,10.14,0,0,1-3.72,13.86h0a10.14,10.14,0,0,1-13.86-3.71Z"/><rect class="cls-1" x="310.82" y="14.03" width="13.75" height="237.11" transform="translate(108.86 -141.09) rotate(30)"/><path class="cls-2" d="M366.45,61.9,354.54,55,379.6,5.08a10.14,10.14,0,0,1,13.86-3.72h0a10.14,10.14,0,0,1,3.71,13.86Z"/><rect class="cls-1" x="184.59" y="-12.45" width="13.75" height="237.11" transform="translate(410.34 102.27) rotate(150)"/><path class="cls-2" d="M228.31,183.67l11.91-6.87,30.72,46.67a10.15,10.15,0,0,1-3.71,13.86h0a10.15,10.15,0,0,1-13.87-3.71Z"/><rect class="cls-1" x="58.36" y="14.03" width="13.75" height="237.11" transform="translate(75.03 -14.85) rotate(30)"/><path class="cls-2" d="M114,61.9,102.07,55,127.13,5.08A10.14,10.14,0,0,1,141,1.36h0a10.14,10.14,0,0,1,3.72,13.86Z"/></svg>