<svg id="Layer_1" data-name="Layer 1" xmlns="http://www.w3.org/2000/svg" viewBox="0 0 1299.33 372.52"><defs><style>.cls-1{fill:#d32a2a;}.cls-2{fill:#ffe2a1;}.cls-3{fill:#3a68ad;}</style></defs><title>Fosforos_U03_03_01</title><rect class="cls-1" x="1282.3" y="32.97" width="13.75" height="237.11"/><path class="cls-1" d="M1296.05,65.93H1282.3L1279,10.15A10.14,10.14,0,0,1,1289.18,0h0a10.15,10.15,0,0,1,10.15,10.15Z"/><rect class="cls-1" x="1140.93" y="144.65" width="13.75" height="237.11" transform="translate(1411.01 -884.6) rotate(90)"/><path class="cls-1" d="M1233.39,270.08V256.33l55.79-3.27a10.15,10.15,0,0,1,10.15,10.14h0a10.15,10.15,0,0,1-10.15,10.15Z"/><rect class="cls-1" x="1022.37" width="13.75" height="237.11" transform="translate(2058.49 237.11) rotate(180)"/><path class="cls-1" d="M1022.37,204.15h13.75l3.27,55.78a10.14,10.14,0,0,1-10.14,10.15h0a10.14,10.14,0,0,1-10.15-10.15Z"/><rect class="cls-2" x="881" y="-108.41" width="13.75" height="237.11" transform="translate(898.02 -877.72) rotate(90)"/><path class="cls-3" d="M973.46,17V3.27L1029.25,0a10.14,10.14,0,0,1,10.14,10.15h0a10.15,10.15,0,0,1-10.14,10.15Z"/><rect class="cls-2" x="769.32" y="32.97" width="13.75" height="237.11"/><path class="cls-3" d="M783.07,65.93H769.32L766,10.15A10.15,10.15,0,0,1,776.19,0h0a10.14,10.14,0,0,1,10.15,10.15Z"/><rect class="cls-2" x="627.94" y="144.65" width="13.75" height="237.11" transform="translate(898.02 -371.61) rotate(90)"/><path class="cls-3" d="M720.41,270.08V256.33l55.78-3.27a10.14,10.14,0,0,1,10.15,10.14h0a10.14,10.14,0,0,1-10.15,10.15Z"/><rect class="cls-2" x="3.27" y="32.97" width="13.75" height="237.11"/><path class="cls-3" d="M17,65.93H3.27L0,10.15A10.14,10.14,0,0,1,10.15,0h0A10.15,10.15,0,0,1,20.3,10.15Z"/><rect class="cls-2" x="509.39" y="0.02" width="13.75" height="237.11" transform="translate(1032.52 237.15) rotate(180)"/><path class="cls-3" d="M509.39,204.17h13.74L526.41,260a10.16,10.16,0,0,1-10.15,10.15h0A10.16,10.16,0,0,1,506.11,260Z"/><rect class="cls-2" x="368.01" y="-108.41" width="13.75" height="237.11" transform="translate(385.03 -364.74) rotate(90)"/><path class="cls-3" d="M460.48,17V3.27L516.26,0a10.15,10.15,0,0,1,10.15,10.15h0A10.16,10.16,0,0,1,516.26,20.3Z"/><rect class="cls-2" x="256.33" y="32.97" width="13.75" height="237.11"/><path class="cls-3" d="M270.08,65.93H256.33l-3.27-55.78A10.14,10.14,0,0,1,263.2,0h0a10.14,10.14,0,0,1,10.15,10.15Z"/><rect class="cls-2" x="114.96" y="144.65" width="13.75" height="237.11" transform="translate(385.03 141.37) rotate(90)"/><path class="cls-3" d="M207.42,270.08V256.33l55.78-3.27a10.14,10.14,0,0,1,10.15,10.14h0a10.14,10.14,0,0,1-10.15,10.15Z"/><path d="M552.27,300.13a7.43,7.43,0,0,1-2.75,6.2c-1.83,1.45-4.46,2.17-7.87,2.17h-3.13V319h-3.08V292.39h6.88Q552.27,292.39,552.27,300.13Zm-13.75,5.72h2.78q4.11,0,5.94-1.32a4.9,4.9,0,0,0,1.84-4.25,4.59,4.59,0,0,0-1.73-3.93q-1.73-1.29-5.38-1.29h-3.45Z"/><path d="M566.46,298.68a11.54,11.54,0,0,1,2.38.22l-.42,2.79a10.33,10.33,0,0,0-2.18-.27,5.29,5.29,0,0,0-4.13,2,7.14,7.14,0,0,0-1.72,4.89V319h-3V299h2.48l.35,3.69h.14a8.73,8.73,0,0,1,2.67-3A6.06,6.06,0,0,1,566.46,298.68Z"/><path d="M572.31,293.65a2,2,0,0,1,.5-1.52,1.8,1.8,0,0,1,1.28-.48,1.76,1.76,0,0,1,1.25.49,2.42,2.42,0,0,1,0,3,1.85,1.85,0,0,1-2.53,0A2,2,0,0,1,572.31,293.65Zm3.26,25.3h-3V299h3Z"/><path d="M607.34,319V306a5.36,5.36,0,0,0-1-3.57,3.93,3.93,0,0,0-3.16-1.19,5.11,5.11,0,0,0-4.16,1.62,7.68,7.68,0,0,0-1.34,5V319h-3V306a5.36,5.36,0,0,0-1-3.57,4,4,0,0,0-3.18-1.19,4.93,4.93,0,0,0-4.15,1.7c-.88,1.13-1.32,3-1.32,5.56V319h-3V299h2.45l.49,2.73h.15a5.84,5.84,0,0,1,2.4-2.27,7.32,7.32,0,0,1,3.48-.82c3.11,0,5.15,1.12,6.1,3.38h.15a6.28,6.28,0,0,1,2.58-2.47,7.94,7.94,0,0,1,3.85-.91,6.77,6.77,0,0,1,5.06,1.73q1.68,1.74,1.68,5.55v13Z"/><path d="M625,319.31a9.12,9.12,0,0,1-7-2.69,10.4,10.4,0,0,1-2.55-7.46,11.55,11.55,0,0,1,2.37-7.65,7.87,7.87,0,0,1,6.37-2.83,7.52,7.52,0,0,1,5.92,2.46,9.43,9.43,0,0,1,2.18,6.49v1.91H618.58a7.88,7.88,0,0,0,1.77,5.32,6.14,6.14,0,0,0,4.74,1.82,15.93,15.93,0,0,0,6.35-1.35V318a15.83,15.83,0,0,1-3,1A17,17,0,0,1,625,319.31Zm-.82-18.11a4.92,4.92,0,0,0-3.82,1.56,7.25,7.25,0,0,0-1.68,4.33h10.4a6.62,6.62,0,0,0-1.27-4.37A4.48,4.48,0,0,0,624.16,301.2Z"/><path d="M646.52,298.68a11.54,11.54,0,0,1,2.38.22l-.42,2.79a10.33,10.33,0,0,0-2.18-.27,5.29,5.29,0,0,0-4.13,2,7.14,7.14,0,0,0-1.72,4.89V319h-3V299h2.48l.35,3.69h.14a8.73,8.73,0,0,1,2.67-3A6.06,6.06,0,0,1,646.52,298.68Z"/><path d="M668.71,316.82a9.83,9.83,0,0,0,1.55-.12,9.6,9.6,0,0,0,1.18-.24v2.31a6.2,6.2,0,0,1-1.45.39,11.1,11.1,0,0,1-1.71.15q-5.78,0-5.78-6.08V301.38h-2.85v-1.45l2.85-1.25,1.27-4.25h1.75V299h5.77v2.34h-5.77V313.1a4,4,0,0,0,.85,2.76A3,3,0,0,0,668.71,316.82Z"/><path d="M683.82,319.31a9.11,9.11,0,0,1-7-2.69,10.4,10.4,0,0,1-2.55-7.46,11.55,11.55,0,0,1,2.37-7.65,7.86,7.86,0,0,1,6.36-2.83,7.49,7.49,0,0,1,5.92,2.46,9.39,9.39,0,0,1,2.18,6.49v1.91H677.43a7.88,7.88,0,0,0,1.77,5.32,6.13,6.13,0,0,0,4.73,1.82,16,16,0,0,0,6.36-1.35V318a15.91,15.91,0,0,1-3,1A16.91,16.91,0,0,1,683.82,319.31ZM683,301.2a4.94,4.94,0,0,0-3.83,1.56,7.25,7.25,0,0,0-1.68,4.33h10.41a6.62,6.62,0,0,0-1.27-4.37A4.48,4.48,0,0,0,683,301.2ZM680.77,296c.58-.75,1.21-1.65,1.88-2.72s1.2-2,1.59-2.78h3.67v.38a26.62,26.62,0,0,1-2.38,2.91,27.26,27.26,0,0,1-2.74,2.67h-2Z"/><path d="M705.36,298.68a11.41,11.41,0,0,1,2.38.22l-.41,2.79a10.49,10.49,0,0,0-2.18-.27,5.32,5.32,0,0,0-4.14,2,7.18,7.18,0,0,0-1.71,4.89V319h-3V299h2.49l.35,3.69h.14a8.73,8.73,0,0,1,2.67-3A6,6,0,0,1,705.36,298.68Z"/><path d="M736.84,319V306a5.36,5.36,0,0,0-1-3.57,3.94,3.94,0,0,0-3.16-1.19,5.1,5.1,0,0,0-4.16,1.62,7.68,7.68,0,0,0-1.34,5V319h-3V306a5.41,5.41,0,0,0-1-3.57,4,4,0,0,0-3.18-1.19,4.93,4.93,0,0,0-4.15,1.7c-.88,1.13-1.32,3-1.32,5.56V319h-3V299h2.45l.49,2.73h.14A5.93,5.93,0,0,1,717,299.5a7.3,7.3,0,0,1,3.48-.82c3.11,0,5.14,1.12,6.1,3.38h.15a6.28,6.28,0,0,1,2.58-2.47,7.91,7.91,0,0,1,3.85-.91,6.75,6.75,0,0,1,5,1.73q1.68,1.74,1.68,5.55v13Z"/><path d="M745.81,293.65a2,2,0,0,1,.51-1.52,1.78,1.78,0,0,1,1.27-.48,1.74,1.74,0,0,1,1.25.49,2.42,2.42,0,0,1,0,3,1.84,1.84,0,0,1-2.52,0A2,2,0,0,1,745.81,293.65Zm3.27,25.3h-3V299h3Z"/><path d="M769.1,319V306.07a5.19,5.19,0,0,0-1.11-3.63,4.52,4.52,0,0,0-3.47-1.2,5.72,5.72,0,0,0-4.58,1.69q-1.46,1.68-1.45,5.57V319h-3V299h2.46l.49,2.73h.14a6.16,6.16,0,0,1,2.6-2.28,8.39,8.39,0,0,1,3.72-.81,7.58,7.58,0,0,1,5.41,1.73q1.82,1.74,1.82,5.55v13Z"/><path d="M795.49,309c0,3.24-.82,5.78-2.46,7.6a8.63,8.63,0,0,1-6.77,2.73,9,9,0,0,1-4.74-1.25,8.32,8.32,0,0,1-3.2-3.6A12.53,12.53,0,0,1,777.2,309q0-4.87,2.43-7.59a8.6,8.6,0,0,1,6.76-2.71,8.39,8.39,0,0,1,6.63,2.78A10.89,10.89,0,0,1,795.49,309Zm-15.17,0a9.42,9.42,0,0,0,1.53,5.81,5.29,5.29,0,0,0,4.48,2,5.36,5.36,0,0,0,4.5-2,9.44,9.44,0,0,0,1.53-5.82,9.27,9.27,0,0,0-1.53-5.77,5.42,5.42,0,0,0-4.53-2,5.31,5.31,0,0,0-4.47,1.94Q780.32,305.13,780.32,309Z"/><path d="M542,361.46a9.83,9.83,0,0,0,1.55-.12,12,12,0,0,0,1.18-.24v2.3a5.35,5.35,0,0,1-1.45.39,10.07,10.07,0,0,1-1.71.16q-5.77,0-5.78-6.09V346h-2.85v-1.45l2.85-1.26,1.27-4.25h1.75v4.62h5.77V346h-5.77v11.72a4.05,4.05,0,0,0,.85,2.76A3,3,0,0,0,542,361.46Z"/><path d="M548.45,338.28a2,2,0,0,1,.51-1.51,1.88,1.88,0,0,1,2.52,0,2,2,0,0,1,.53,1.5,2,2,0,0,1-.53,1.52,1.77,1.77,0,0,1-1.25.5,1.75,1.75,0,0,1-1.27-.5A2,2,0,0,1,548.45,338.28Zm3.27,25.3h-3v-19.9h3Z"/><path d="M566.52,364a9.14,9.14,0,0,1-7-2.69q-2.56-2.68-2.56-7.47a11.54,11.54,0,0,1,2.37-7.64,7.89,7.89,0,0,1,6.37-2.84,7.52,7.52,0,0,1,5.92,2.47,9.43,9.43,0,0,1,2.18,6.49v1.91H560.13a7.89,7.89,0,0,0,1.77,5.32,6.13,6.13,0,0,0,4.73,1.81A16,16,0,0,0,573,360v2.69a16.14,16.14,0,0,1-3,1A16.91,16.91,0,0,1,566.52,364Zm-.82-18.11a4.92,4.92,0,0,0-3.82,1.56,7.2,7.2,0,0,0-1.68,4.32h10.41a6.65,6.65,0,0,0-1.27-4.36A4.46,4.46,0,0,0,565.7,345.84Z"/><path d="M592.6,363.58V350.71a5.2,5.2,0,0,0-1.11-3.64,4.52,4.52,0,0,0-3.46-1.19,5.74,5.74,0,0,0-4.58,1.68q-1.46,1.69-1.45,5.58v10.44h-3v-19.9h2.45l.49,2.72h.15a6.19,6.19,0,0,1,2.59-2.28,8.47,8.47,0,0,1,3.73-.81,7.53,7.53,0,0,1,5.41,1.74q1.82,1.74,1.82,5.55v13Z"/><path d="M610.22,364a9.18,9.18,0,0,1-7-2.69q-2.55-2.68-2.55-7.47a11.54,11.54,0,0,1,2.37-7.64,7.87,7.87,0,0,1,6.37-2.84,7.52,7.52,0,0,1,5.92,2.47,9.43,9.43,0,0,1,2.18,6.49v1.91H603.83a7.89,7.89,0,0,0,1.77,5.32,6.11,6.11,0,0,0,4.73,1.81,16,16,0,0,0,6.36-1.34v2.69a16.14,16.14,0,0,1-3,1A17,17,0,0,1,610.22,364Zm-.82-18.11a4.92,4.92,0,0,0-3.82,1.56,7.2,7.2,0,0,0-1.68,4.32h10.41a6.59,6.59,0,0,0-1.28-4.36A4.43,4.43,0,0,0,609.4,345.84Z"/><path d="M642.13,363.58h-2.94V344.66c0-1.58,0-3.06.14-4.47-.25.25-.53.52-.85.8s-1.76,1.46-4.32,3.54l-1.6-2.07,7-5.43h2.54Z"/><path d="M663.4,363.58h-2.94V344.66c0-1.58,0-3.06.14-4.47-.25.25-.54.52-.85.8s-1.76,1.46-4.32,3.54l-1.6-2.07,7-5.43h2.54Z"/><path d="M693.8,364a8.6,8.6,0,0,1-3.55-.72,6.59,6.59,0,0,1-2.69-2.21h-.22a28,28,0,0,1,.22,3.31v8.19h-3V343.68H687l.42,2.72h.15a7,7,0,0,1,2.7-2.36,8.29,8.29,0,0,1,3.54-.73,7.36,7.36,0,0,1,6.11,2.71q2.16,2.72,2.16,7.59t-2.19,7.62A7.39,7.39,0,0,1,693.8,364Zm-.43-18.07a5.37,5.37,0,0,0-4.42,1.68c-.9,1.13-1.37,2.92-1.39,5.38v.67q0,4.2,1.39,6a5.34,5.34,0,0,0,4.49,1.8,4.64,4.64,0,0,0,4-2.09,9.85,9.85,0,0,0,1.46-5.75,9.51,9.51,0,0,0-1.46-5.72A4.8,4.8,0,0,0,693.37,345.88Z"/><path d="M719.58,363.58l-.6-2.83h-.15a8.26,8.26,0,0,1-3,2.53,8.92,8.92,0,0,1-3.69.67,6.67,6.67,0,0,1-4.65-1.53,5.59,5.59,0,0,1-1.67-4.34q0-6,9.64-6.32l3.38-.11v-1.23a5,5,0,0,0-1-3.46,4.13,4.13,0,0,0-3.22-1.12,13.08,13.08,0,0,0-5.63,1.53l-.93-2.31a14.09,14.09,0,0,1,3.22-1.25,13.67,13.67,0,0,1,3.52-.46q3.55,0,5.27,1.58t1.72,5.07v13.58Zm-6.82-2.12a6.13,6.13,0,0,0,4.43-1.55,5.7,5.7,0,0,0,1.6-4.32v-1.8l-3,.13a11,11,0,0,0-5.19,1.12,3.39,3.39,0,0,0-1.58,3.08,3.1,3.1,0,0,0,1,2.48A4.14,4.14,0,0,0,712.76,361.46Z"/><path d="M731,363.58h-3V335.32h3Z"/><path d="M737.18,338.28a2,2,0,0,1,.5-1.51,1.8,1.8,0,0,1,1.28-.48,1.76,1.76,0,0,1,1.25.49,2,2,0,0,1,.53,1.5,2,2,0,0,1-.53,1.52,1.85,1.85,0,0,1-2.53,0A2,2,0,0,1,737.18,338.28Zm3.26,25.3h-3v-19.9h3Z"/><path d="M753.27,361.46a9.7,9.7,0,0,0,1.54-.12,11.37,11.37,0,0,0,1.18-.24v2.3a5.37,5.37,0,0,1-1.44.39,10.18,10.18,0,0,1-1.72.16q-5.77,0-5.77-6.09V346H744.2v-1.45l2.86-1.26,1.27-4.25h1.74v4.62h5.78V346h-5.78v11.72a4.05,4.05,0,0,0,.85,2.76A3,3,0,0,0,753.27,361.46Z"/><path d="M777.15,353.61q0,4.88-2.45,7.6a8.62,8.62,0,0,1-6.78,2.74,8.93,8.93,0,0,1-4.74-1.26A8.22,8.22,0,0,1,760,359.1a12.54,12.54,0,0,1-1.13-5.49q0-4.86,2.44-7.58a8.6,8.6,0,0,1,6.75-2.72,8.43,8.43,0,0,1,6.64,2.78A11,11,0,0,1,777.15,353.61Zm-15.16,0a9.41,9.41,0,0,0,1.52,5.81,6.05,6.05,0,0,0,9,0,9.33,9.33,0,0,0,1.54-5.82,9.18,9.18,0,0,0-1.54-5.76,5.37,5.37,0,0,0-4.53-2,5.31,5.31,0,0,0-4.47,1.94A9.38,9.38,0,0,0,762,353.61Z"/><path d="M795.28,358.15a5,5,0,0,1-2.07,4.29,9.71,9.71,0,0,1-5.82,1.51,12.56,12.56,0,0,1-6.17-1.26V359.9A15.27,15.27,0,0,0,784.3,361a12.74,12.74,0,0,0,3.17.42,7.22,7.22,0,0,0,3.63-.75,2.6,2.6,0,0,0,.26-4.29,15.81,15.81,0,0,0-3.93-1.95,21.63,21.63,0,0,1-3.95-1.81,5.46,5.46,0,0,1-1.74-1.75,4.62,4.62,0,0,1-.58-2.35,4.47,4.47,0,0,1,2-3.84,9.21,9.21,0,0,1,5.43-1.41,15.94,15.94,0,0,1,6.29,1.31l-1.07,2.45a14.49,14.49,0,0,0-5.43-1.23,6.26,6.26,0,0,0-3.24.67,2.1,2.1,0,0,0-1.09,1.85,2.29,2.29,0,0,0,.41,1.37,4.16,4.16,0,0,0,1.32,1.07,29.42,29.42,0,0,0,3.49,1.47,12.89,12.89,0,0,1,4.78,2.6A4.56,4.56,0,0,1,795.28,358.15Z"/></svg>