<svg id="Layer_1" data-name="Layer 1" xmlns="http://www.w3.org/2000/svg" viewBox="0 0 3589.48 373.86"><defs><style>.cls-1{fill:#d32a2a;}.cls-2{fill:#ffe2a1;}.cls-3{fill:#3a68ad;}.cls-4{font-size:30px;font-family:OpenSans-Regular, Open Sans;}</style></defs><title>Fosforos_U03_01</title><rect class="cls-1" x="769.32" y="32.97" width="13.75" height="237.11"/><path class="cls-1" d="M783.07,65.93H769.32L766,10.15A10.15,10.15,0,0,1,776.19,0h0a10.14,10.14,0,0,1,10.15,10.15Z"/><rect class="cls-1" x="627.94" y="144.65" width="13.75" height="237.11" transform="translate(898.02 -371.61) rotate(90)"/><path class="cls-1" d="M720.41,270.08V256.33l55.78-3.27a10.14,10.14,0,0,1,10.15,10.14h0a10.14,10.14,0,0,1-10.15,10.15Z"/><rect class="cls-2" x="3.27" y="32.97" width="13.75" height="237.11"/><path class="cls-3" d="M17,65.93H3.27L0,10.15A10.14,10.14,0,0,1,10.15,0h0A10.15,10.15,0,0,1,20.3,10.15Z"/><rect class="cls-2" x="509.39" y="0.02" width="13.75" height="237.11" transform="translate(1032.52 237.15) rotate(180)"/><path class="cls-3" d="M509.39,204.17h13.74L526.41,260a10.16,10.16,0,0,1-10.15,10.15h0A10.16,10.16,0,0,1,506.11,260Z"/><rect class="cls-2" x="368.01" y="-108.41" width="13.75" height="237.11" transform="translate(385.03 -364.74) rotate(90)"/><path class="cls-3" d="M460.48,17V3.27L516.26,0a10.15,10.15,0,0,1,10.15,10.15h0A10.16,10.16,0,0,1,516.26,20.3Z"/><rect class="cls-2" x="256.33" y="32.97" width="13.75" height="237.11"/><path class="cls-3" d="M270.08,65.93H256.33l-3.27-55.78A10.14,10.14,0,0,1,263.2,0h0a10.14,10.14,0,0,1,10.15,10.15Z"/><rect class="cls-2" x="114.96" y="144.65" width="13.75" height="237.11" transform="translate(385.03 141.37) rotate(90)"/><path class="cls-3" d="M207.42,270.08V256.33l55.78-3.27a10.14,10.14,0,0,1,10.15,10.14h0a10.14,10.14,0,0,1-10.15,10.15Z"/><text class="cls-4" transform="translate(274.98 322.52)">Primero término<tspan x="18.11" y="36">tiene 7 palitos</tspan></text><rect class="cls-1" x="2055.06" width="13.75" height="237.11" transform="translate(4123.86 237.11) rotate(180)"/><path class="cls-1" d="M2055.06,204.15h13.74l3.28,55.78a10.15,10.15,0,0,1-10.15,10.15h0a10.15,10.15,0,0,1-10.15-10.15Z"/><rect class="cls-1" x="1913.68" y="-108.41" width="13.75" height="237.11" transform="translate(1930.7 -1910.41) rotate(90)"/><path class="cls-1" d="M2006.15,17V3.27L2061.93,0a10.15,10.15,0,0,1,10.15,10.15h0a10.16,10.16,0,0,1-10.15,10.15Z"/><rect class="cls-2" x="1802" y="32.97" width="13.75" height="237.11"/><path class="cls-3" d="M1815.75,65.93H1802l-3.27-55.78A10.14,10.14,0,0,1,1808.87,0h0A10.14,10.14,0,0,1,1819,10.15Z"/><rect class="cls-2" x="1660.63" y="144.65" width="13.75" height="237.11" transform="translate(1930.7 -1404.3) rotate(90)"/><path class="cls-3" d="M1753.09,270.08V256.33l55.78-3.27A10.14,10.14,0,0,1,1819,263.2h0a10.14,10.14,0,0,1-10.15,10.15Z"/><rect class="cls-2" x="1035.96" y="32.97" width="13.75" height="237.11"/><path class="cls-3" d="M1049.71,65.93H1036l-3.28-55.78A10.15,10.15,0,0,1,1042.83,0h0A10.14,10.14,0,0,1,1053,10.15Z"/><rect class="cls-2" x="1542.07" y="0.02" width="13.75" height="237.11" transform="translate(3097.89 237.15) rotate(180)"/><path class="cls-3" d="M1542.07,204.17h13.75l3.27,55.78a10.15,10.15,0,0,1-10.15,10.15h0A10.15,10.15,0,0,1,1538.8,260Z"/><rect class="cls-2" x="1400.69" y="-108.41" width="13.75" height="237.11" transform="translate(1417.72 -1397.42) rotate(90)"/><path class="cls-3" d="M1493.16,17V3.27L1548.94,0a10.14,10.14,0,0,1,10.15,10.15h0a10.15,10.15,0,0,1-10.15,10.15Z"/><rect class="cls-2" x="1289.01" y="32.97" width="13.75" height="237.11"/><path class="cls-3" d="M1302.76,65.93H1289l-3.27-55.78A10.14,10.14,0,0,1,1295.89,0h0A10.15,10.15,0,0,1,1306,10.15Z"/><rect class="cls-2" x="1147.64" y="144.65" width="13.75" height="237.11" transform="translate(1417.72 -891.31) rotate(90)"/><path class="cls-3" d="M1240.11,270.08V256.33l55.78-3.27A10.15,10.15,0,0,1,1306,263.2h0a10.15,10.15,0,0,1-10.15,10.15Z"/><text class="cls-4" transform="translate(1427.67 322.52)">Segundo término<tspan x="23.14" y="36">tiene 9 palitos</tspan></text><rect class="cls-1" x="3572.46" y="32.97" width="13.75" height="237.11"/><path class="cls-1" d="M3586.21,65.93h-13.75l-3.28-55.78A10.15,10.15,0,0,1,3579.33,0h0a10.14,10.14,0,0,1,10.15,10.15Z"/><rect class="cls-1" x="3431.08" y="144.65" width="13.75" height="237.11" transform="translate(3701.16 -3174.75) rotate(90)"/><path class="cls-1" d="M3523.55,270.08V256.33l55.78-3.27a10.14,10.14,0,0,1,10.15,10.14h0a10.14,10.14,0,0,1-10.15,10.15Z"/><rect class="cls-2" x="3312.53" width="13.75" height="237.11" transform="translate(6638.8 237.11) rotate(180)"/><path class="cls-3" d="M3312.53,204.15h13.75l3.27,55.78a10.14,10.14,0,0,1-10.15,10.15h0a10.15,10.15,0,0,1-10.15-10.15Z"/><rect class="cls-2" x="3171.15" y="-108.41" width="13.75" height="237.11" transform="translate(3188.18 -3167.88) rotate(90)"/><path class="cls-3" d="M3263.62,17V3.27L3319.4,0a10.14,10.14,0,0,1,10.15,10.15h0A10.15,10.15,0,0,1,3319.4,20.3Z"/><rect class="cls-2" x="3059.47" y="32.97" width="13.75" height="237.11"/><path class="cls-3" d="M3073.22,65.93h-13.75l-3.27-55.78A10.14,10.14,0,0,1,3066.35,0h0a10.14,10.14,0,0,1,10.14,10.15Z"/><rect class="cls-2" x="2918.1" y="144.65" width="13.75" height="237.11" transform="translate(3188.18 -2661.77) rotate(90)"/><path class="cls-3" d="M3010.56,270.08V256.33l55.79-3.27a10.14,10.14,0,0,1,10.14,10.14h0a10.14,10.14,0,0,1-10.14,10.15Z"/><rect class="cls-2" x="2293.43" y="32.97" width="13.75" height="237.11"/><path class="cls-3" d="M2307.18,65.93h-13.75l-3.27-55.78A10.14,10.14,0,0,1,2300.3,0h0a10.14,10.14,0,0,1,10.15,10.15Z"/><rect class="cls-2" x="2799.54" y="0.02" width="13.75" height="237.11" transform="translate(5612.83 237.15) rotate(180)"/><path class="cls-3" d="M2799.54,204.17h13.75l3.27,55.78a10.15,10.15,0,0,1-10.14,10.15h0A10.15,10.15,0,0,1,2796.27,260Z"/><rect class="cls-2" x="2658.17" y="-108.41" width="13.75" height="237.11" transform="translate(2675.19 -2654.89) rotate(90)"/><path class="cls-3" d="M2750.63,17V3.27L2806.42,0a10.14,10.14,0,0,1,10.14,10.15h0a10.15,10.15,0,0,1-10.14,10.15Z"/><rect class="cls-2" x="2546.48" y="32.97" width="13.75" height="237.11"/><path class="cls-3" d="M2560.23,65.93h-13.75l-3.27-55.78A10.14,10.14,0,0,1,2553.36,0h0a10.15,10.15,0,0,1,10.15,10.15Z"/><rect class="cls-2" x="2405.11" y="144.65" width="13.75" height="237.11" transform="translate(2675.19 -2148.78) rotate(90)"/><path class="cls-3" d="M2497.58,270.08V256.33l55.78-3.27a10.15,10.15,0,0,1,10.15,10.14h0a10.15,10.15,0,0,1-10.15,10.15Z"/><text class="cls-4" transform="translate(2835.85 322.52)">Tercer término<tspan x="6.13" y="36">tiene 9 palitos</tspan></text></svg>