<svg id="Layer_1" data-name="Layer 1" xmlns="http://www.w3.org/2000/svg" viewBox="0 0 6336.15 382.08"><defs><style>.cls-1{fill:#d32a2a;}.cls-2{fill:#ffe2a1;}.cls-3{fill:#3a68ad;}.cls-4{font-size:30px;font-family:OpenSans-Regular, Open Sans;}</style></defs><title>Fosforos_U03_05</title><rect class="cls-1" x="1393.98" y="-108.41" width="13.75" height="237.11" transform="translate(1411.01 -1390.71) rotate(90)"/><path class="cls-1" d="M1486.45,17V3.27L1542.23,0a10.14,10.14,0,0,1,10.15,10.15h0a10.15,10.15,0,0,1-10.15,10.15Z"/><rect class="cls-1" x="1282.3" y="32.97" width="13.75" height="237.11"/><path class="cls-1" d="M1296.05,65.93H1282.3L1279,10.15A10.14,10.14,0,0,1,1289.18,0h0a10.15,10.15,0,0,1,10.15,10.15Z"/><rect class="cls-1" x="1140.93" y="144.65" width="13.75" height="237.11" transform="translate(1411.01 -884.6) rotate(90)"/><path class="cls-1" d="M1233.39,270.08V256.33l55.79-3.27a10.15,10.15,0,0,1,10.15,10.14h0a10.15,10.15,0,0,1-10.15,10.15Z"/><rect class="cls-2" x="1022.37" width="13.75" height="237.11" transform="translate(2058.49 237.11) rotate(180)"/><path class="cls-3" d="M1022.37,204.15h13.75l3.27,55.78a10.14,10.14,0,0,1-10.14,10.15h0a10.14,10.14,0,0,1-10.15-10.15Z"/><rect class="cls-2" x="881" y="-108.41" width="13.75" height="237.11" transform="translate(898.02 -877.72) rotate(90)"/><path class="cls-3" d="M973.46,17V3.27L1029.25,0a10.14,10.14,0,0,1,10.14,10.15h0a10.15,10.15,0,0,1-10.14,10.15Z"/><rect class="cls-2" x="769.32" y="32.97" width="13.75" height="237.11"/><path class="cls-3" d="M783.07,65.93H769.32L766,10.15A10.15,10.15,0,0,1,776.19,0h0a10.14,10.14,0,0,1,10.15,10.15Z"/><rect class="cls-2" x="627.94" y="144.65" width="13.75" height="237.11" transform="translate(898.02 -371.61) rotate(90)"/><path class="cls-3" d="M720.41,270.08V256.33l55.78-3.27a10.14,10.14,0,0,1,10.15,10.14h0a10.14,10.14,0,0,1-10.15,10.15Z"/><rect class="cls-2" x="3.27" y="32.97" width="13.75" height="237.11"/><path class="cls-3" d="M17,65.93H3.27L0,10.15A10.14,10.14,0,0,1,10.15,0h0A10.15,10.15,0,0,1,20.3,10.15Z"/><rect class="cls-2" x="509.39" y="0.02" width="13.75" height="237.11" transform="translate(1032.52 237.15) rotate(180)"/><path class="cls-3" d="M509.39,204.17h13.74L526.41,260a10.16,10.16,0,0,1-10.15,10.15h0A10.16,10.16,0,0,1,506.11,260Z"/><rect class="cls-2" x="368.01" y="-108.41" width="13.75" height="237.11" transform="translate(385.03 -364.74) rotate(90)"/><path class="cls-3" d="M460.48,17V3.27L516.26,0a10.15,10.15,0,0,1,10.15,10.15h0A10.16,10.16,0,0,1,516.26,20.3Z"/><rect class="cls-2" x="256.33" y="32.97" width="13.75" height="237.11"/><path class="cls-3" d="M270.08,65.93H256.33l-3.27-55.78A10.14,10.14,0,0,1,263.2,0h0a10.14,10.14,0,0,1,10.15,10.15Z"/><rect class="cls-2" x="114.96" y="144.65" width="13.75" height="237.11" transform="translate(385.03 141.37) rotate(90)"/><path class="cls-3" d="M207.42,270.08V256.33l55.78-3.27a10.14,10.14,0,0,1,10.15,10.14h0a10.14,10.14,0,0,1-10.15,10.15Z"/><text class="cls-4" transform="translate(539.99 337.95)">Primer término<tspan x="0.48" y="36">tiene 12 palitos</tspan></text><rect class="cls-1" x="3587.04" y="32.97" width="13.75" height="237.11"/><path class="cls-1" d="M3600.79,65.93H3587l-3.27-55.78A10.14,10.14,0,0,1,3593.92,0h0a10.15,10.15,0,0,1,10.15,10.15Z"/><rect class="cls-1" x="3445.67" y="144.65" width="13.75" height="237.11" transform="translate(3715.75 -3189.34) rotate(90)"/><path class="cls-1" d="M3538.14,270.08V256.33l55.78-3.27a10.15,10.15,0,0,1,10.15,10.14h0a10.15,10.15,0,0,1-10.15,10.15Z"/><rect class="cls-1" x="3327.11" y="0.02" width="13.75" height="237.11" transform="translate(6667.98 237.15) rotate(180)"/><path class="cls-1" d="M3327.11,204.17h13.75l3.28,55.78A10.16,10.16,0,0,1,3334,270.1h0A10.15,10.15,0,0,1,3323.84,260Z"/><rect class="cls-2" x="3185.74" y="-108.41" width="13.75" height="237.11" transform="translate(3202.76 -3182.47) rotate(90)"/><path class="cls-3" d="M3278.21,17V3.27L3334,0a10.15,10.15,0,0,1,10.15,10.15h0A10.16,10.16,0,0,1,3334,20.3Z"/><rect class="cls-2" x="3074.06" y="32.97" width="13.75" height="237.11"/><path class="cls-3" d="M3087.81,65.93h-13.75l-3.28-55.78A10.15,10.15,0,0,1,3080.93,0h0a10.14,10.14,0,0,1,10.15,10.15Z"/><rect class="cls-2" x="2932.68" y="144.65" width="13.75" height="237.11" transform="translate(3202.76 -2676.35) rotate(90)"/><path class="cls-3" d="M3025.15,270.08V256.33l55.78-3.27a10.14,10.14,0,0,1,10.15,10.14h0a10.14,10.14,0,0,1-10.15,10.15Z"/><rect class="cls-2" x="2814.13" width="13.75" height="237.11" transform="translate(5642 237.11) rotate(180)"/><path class="cls-3" d="M2814.13,204.15h13.75l3.27,55.78A10.14,10.14,0,0,1,2821,270.08h0a10.15,10.15,0,0,1-10.15-10.15Z"/><rect class="cls-2" x="2672.75" y="-108.41" width="13.75" height="237.11" transform="translate(2689.78 -2669.48) rotate(90)"/><path class="cls-3" d="M2765.22,17V3.27L2821,0a10.14,10.14,0,0,1,10.15,10.15h0A10.15,10.15,0,0,1,2821,20.3Z"/><rect class="cls-2" x="2561.07" y="32.97" width="13.75" height="237.11"/><path class="cls-3" d="M2574.82,65.93h-13.75l-3.27-55.78A10.14,10.14,0,0,1,2568,0h0a10.14,10.14,0,0,1,10.14,10.15Z"/><rect class="cls-2" x="2419.7" y="144.65" width="13.75" height="237.11" transform="translate(2689.78 -2163.37) rotate(90)"/><path class="cls-3" d="M2512.16,270.08V256.33l55.79-3.27a10.14,10.14,0,0,1,10.14,10.14h0A10.14,10.14,0,0,1,2568,273.35Z"/><rect class="cls-2" x="1795.03" y="32.97" width="13.75" height="237.11"/><path class="cls-3" d="M1808.78,65.93H1795l-3.28-55.78A10.15,10.15,0,0,1,1801.9,0h0a10.14,10.14,0,0,1,10.15,10.15Z"/><rect class="cls-2" x="2301.14" y="0.02" width="13.75" height="237.11" transform="translate(4616.03 237.15) rotate(180)"/><path class="cls-3" d="M2301.14,204.17h13.75l3.27,55.78A10.15,10.15,0,0,1,2308,270.1h0A10.15,10.15,0,0,1,2297.87,260Z"/><rect class="cls-2" x="2159.77" y="-108.41" width="13.75" height="237.11" transform="translate(2176.79 -2156.49) rotate(90)"/><path class="cls-3" d="M2252.23,17V3.27L2308,0a10.14,10.14,0,0,1,10.15,10.15h0A10.15,10.15,0,0,1,2308,20.3Z"/><rect class="cls-2" x="2048.08" y="32.97" width="13.75" height="237.11"/><path class="cls-3" d="M2061.83,65.93h-13.75l-3.27-55.78A10.14,10.14,0,0,1,2055,0h0a10.15,10.15,0,0,1,10.15,10.15Z"/><rect class="cls-2" x="1906.71" y="144.65" width="13.75" height="237.11" transform="translate(2176.79 -1650.38) rotate(90)"/><path class="cls-3" d="M1999.18,270.08V256.33l55.78-3.27a10.15,10.15,0,0,1,10.15,10.14h0A10.15,10.15,0,0,1,2055,273.35Z"/><text class="cls-4" transform="translate(2577.93 337.95)">Segundo término<tspan x="14.57" y="36">tiene 15 palitos</tspan></text><rect class="cls-1" x="6177.76" y="144.65" width="13.75" height="237.11" transform="translate(6447.84 -5921.43) rotate(90)"/><path class="cls-1" d="M6270.22,270.08V256.33l55.79-3.27a10.14,10.14,0,0,1,10.14,10.14h0A10.14,10.14,0,0,1,6326,273.35Z"/><rect class="cls-1" x="6059.2" width="13.75" height="237.11" transform="translate(12132.15 237.11) rotate(180)"/><path class="cls-1" d="M6059.2,204.15H6073l3.27,55.78a10.14,10.14,0,0,1-10.14,10.15h0a10.14,10.14,0,0,1-10.15-10.15Z"/><rect class="cls-1" x="5917.83" y="-108.41" width="13.75" height="237.11" transform="translate(5934.85 -5914.55) rotate(90)"/><path class="cls-1" d="M6010.29,17V3.27L6066.08,0a10.14,10.14,0,0,1,10.14,10.15h0a10.15,10.15,0,0,1-10.14,10.15Z"/><rect class="cls-2" x="5806.14" y="32.97" width="13.75" height="237.11"/><path class="cls-3" d="M5819.89,65.93h-13.75l-3.27-55.78A10.14,10.14,0,0,1,5813,0h0a10.15,10.15,0,0,1,10.15,10.15Z"/><rect class="cls-2" x="5664.77" y="144.65" width="13.75" height="237.11" transform="translate(5934.85 -5408.44) rotate(90)"/><path class="cls-3" d="M5757.24,270.08V256.33l55.78-3.27a10.15,10.15,0,0,1,10.15,10.14h0A10.15,10.15,0,0,1,5813,273.35Z"/><rect class="cls-2" x="5546.21" y="0.02" width="13.75" height="237.11" transform="translate(11106.18 237.15) rotate(180)"/><path class="cls-3" d="M5546.21,204.17H5560l3.28,55.78a10.16,10.16,0,0,1-10.15,10.15h0A10.15,10.15,0,0,1,5542.94,260Z"/><rect class="cls-2" x="5404.84" y="-108.41" width="13.75" height="237.11" transform="translate(5421.86 -5401.57) rotate(90)"/><path class="cls-3" d="M5497.31,17V3.27L5553.09,0a10.15,10.15,0,0,1,10.15,10.15h0a10.16,10.16,0,0,1-10.15,10.15Z"/><rect class="cls-2" x="5293.16" y="32.97" width="13.75" height="237.11"/><path class="cls-3" d="M5306.91,65.93h-13.75l-3.28-55.78A10.15,10.15,0,0,1,5300,0h0a10.14,10.14,0,0,1,10.15,10.15Z"/><rect class="cls-2" x="5151.78" y="144.65" width="13.75" height="237.11" transform="translate(5421.86 -4895.46) rotate(90)"/><path class="cls-3" d="M5244.25,270.08V256.33l55.78-3.27a10.14,10.14,0,0,1,10.15,10.14h0A10.14,10.14,0,0,1,5300,273.35Z"/><rect class="cls-2" x="5033.23" width="13.75" height="237.11" transform="translate(10080.21 237.11) rotate(180)"/><path class="cls-3" d="M5033.23,204.15H5047l3.27,55.78a10.14,10.14,0,0,1-10.15,10.15h0A10.15,10.15,0,0,1,5030,259.93Z"/><rect class="cls-2" x="4891.85" y="-108.41" width="13.75" height="237.11" transform="translate(4908.88 -4888.58) rotate(90)"/><path class="cls-3" d="M4984.32,17V3.27L5040.1,0a10.14,10.14,0,0,1,10.15,10.15h0A10.15,10.15,0,0,1,5040.1,20.3Z"/><rect class="cls-2" x="4780.17" y="32.97" width="13.75" height="237.11"/><path class="cls-3" d="M4793.92,65.93h-13.75l-3.27-55.78A10.14,10.14,0,0,1,4787.05,0h0a10.15,10.15,0,0,1,10.15,10.15Z"/><rect class="cls-2" x="4638.8" y="144.65" width="13.75" height="237.11" transform="translate(4908.88 -4382.47) rotate(90)"/><path class="cls-3" d="M4731.26,270.08V256.33l55.79-3.27a10.15,10.15,0,0,1,10.15,10.14h0a10.15,10.15,0,0,1-10.15,10.15Z"/><rect class="cls-2" x="4014.13" y="32.97" width="13.75" height="237.11"/><path class="cls-3" d="M4027.88,65.93h-13.75l-3.27-55.78A10.14,10.14,0,0,1,4021,0h0a10.14,10.14,0,0,1,10.15,10.15Z"/><rect class="cls-2" x="4520.24" y="0.02" width="13.75" height="237.11" transform="translate(9054.23 237.15) rotate(180)"/><path class="cls-3" d="M4520.24,204.17H4534l3.27,55.78a10.15,10.15,0,0,1-10.14,10.15h0A10.15,10.15,0,0,1,4517,260Z"/><rect class="cls-2" x="4378.87" y="-108.41" width="13.75" height="237.11" transform="translate(4395.89 -4375.59) rotate(90)"/><path class="cls-3" d="M4471.33,17V3.27L4527.12,0a10.14,10.14,0,0,1,10.14,10.15h0a10.15,10.15,0,0,1-10.14,10.15Z"/><rect class="cls-2" x="4267.19" y="32.97" width="13.75" height="237.11"/><path class="cls-3" d="M4280.94,65.93h-13.75l-3.28-55.78A10.15,10.15,0,0,1,4274.06,0h0a10.14,10.14,0,0,1,10.15,10.15Z"/><rect class="cls-2" x="4125.81" y="144.65" width="13.75" height="237.11" transform="translate(4395.89 -3869.48) rotate(90)"/><path class="cls-3" d="M4218.28,270.08V256.33l55.78-3.27a10.14,10.14,0,0,1,10.15,10.14h0a10.14,10.14,0,0,1-10.15,10.15Z"/><text class="cls-4" transform="translate(4935.84 337.95)">Tercer término<tspan x="-2.45" y="36">tiene 18 palitos</tspan></text></svg>