<svg id="Layer_1" data-name="Layer 1" xmlns="http://www.w3.org/2000/svg" viewBox="0 0 1044.5 373.86"><defs><style>.cls-1{fill:#d32a2a;}.cls-2{fill:#ffe2a1;}.cls-3{fill:#3a68ad;}</style></defs><title>Fosforos_U03_01_02</title><rect class="cls-1" x="1025.96" width="13.75" height="237.11" transform="translate(2065.66 237.11) rotate(180)"/><path class="cls-1" d="M1026,204.15h13.75l3.27,55.78a10.14,10.14,0,0,1-10.15,10.15h0a10.15,10.15,0,0,1-10.15-10.15Z"/><rect class="cls-1" x="884.58" y="-108.41" width="13.75" height="237.11" transform="translate(901.61 -881.31) rotate(90)"/><path class="cls-1" d="M977.05,17V3.27L1032.83,0A10.14,10.14,0,0,1,1043,10.15h0a10.15,10.15,0,0,1-10.15,10.15Z"/><rect class="cls-2" x="772.9" y="32.97" width="13.75" height="237.11"/><path class="cls-3" d="M786.65,65.93H772.9l-3.27-55.78A10.14,10.14,0,0,1,779.78,0h0a10.14,10.14,0,0,1,10.14,10.15Z"/><rect class="cls-2" x="631.53" y="144.65" width="13.75" height="237.11" transform="translate(901.61 -375.2) rotate(90)"/><path class="cls-3" d="M724,270.08V256.33l55.79-3.27a10.14,10.14,0,0,1,10.14,10.14h0a10.14,10.14,0,0,1-10.14,10.15Z"/><rect class="cls-2" x="6.86" y="32.97" width="13.75" height="237.11"/><path class="cls-3" d="M20.61,65.93H6.86L3.59,10.15A10.14,10.14,0,0,1,13.73,0h0A10.14,10.14,0,0,1,23.88,10.15Z"/><rect class="cls-2" x="512.97" y="0.02" width="13.75" height="237.11" transform="translate(1039.69 237.15) rotate(180)"/><path class="cls-3" d="M513,204.17h13.75L530,260a10.15,10.15,0,0,1-10.14,10.15h0A10.15,10.15,0,0,1,509.7,260Z"/><rect class="cls-2" x="371.6" y="-108.41" width="13.75" height="237.11" transform="translate(388.62 -368.32) rotate(90)"/><path class="cls-3" d="M464.06,17V3.27L519.85,0A10.14,10.14,0,0,1,530,10.15h0A10.15,10.15,0,0,1,519.85,20.3Z"/><rect class="cls-2" x="259.92" y="32.97" width="13.75" height="237.11"/><path class="cls-3" d="M273.66,65.93H259.92l-3.28-55.78A10.15,10.15,0,0,1,266.79,0h0a10.15,10.15,0,0,1,10.15,10.15Z"/><rect class="cls-2" x="118.54" y="144.65" width="13.75" height="237.11" transform="translate(388.62 137.79) rotate(90)"/><path class="cls-3" d="M211,270.08V256.33l55.78-3.27a10.15,10.15,0,0,1,10.15,10.14h0a10.15,10.15,0,0,1-10.15,10.15Z"/><path d="M422.74,303.61a6.52,6.52,0,0,1-2.54,5.46,11,11,0,0,1-6.91,2,17.27,17.27,0,0,1-7.26-1.21v-3a19.65,19.65,0,0,0,7.37,1.49,7.7,7.7,0,0,0,4.65-1.17,3.85,3.85,0,0,0,1.56-3.26,4.22,4.22,0,0,0-.55-2.27,5.29,5.29,0,0,0-1.85-1.62,26.12,26.12,0,0,0-3.95-1.69,12.61,12.61,0,0,1-5.3-3.14,6.93,6.93,0,0,1-1.59-4.74,5.89,5.89,0,0,1,2.31-4.89,9.59,9.59,0,0,1,6.1-1.81,18,18,0,0,1,7.29,1.45l-1,2.69a16.44,16.44,0,0,0-6.39-1.38,6.2,6.2,0,0,0-3.83,1.05,3.47,3.47,0,0,0-1.38,2.92,4.51,4.51,0,0,0,.51,2.27,4.78,4.78,0,0,0,1.71,1.61,22,22,0,0,0,3.7,1.63,14.77,14.77,0,0,1,5.75,3.19A6.34,6.34,0,0,1,422.74,303.61Z"/><path d="M436.12,311a9.14,9.14,0,0,1-7-2.68,10.43,10.43,0,0,1-2.55-7.47,11.55,11.55,0,0,1,2.37-7.65,7.89,7.89,0,0,1,6.36-2.83,7.49,7.49,0,0,1,5.92,2.46,9.41,9.41,0,0,1,2.18,6.5v1.9H429.73a7.88,7.88,0,0,0,1.77,5.32,6.1,6.1,0,0,0,4.73,1.82,16.14,16.14,0,0,0,6.36-1.34v2.68a16.06,16.06,0,0,1-3,1A17.09,17.09,0,0,1,436.12,311Zm-.81-18.1a4.94,4.94,0,0,0-3.83,1.56,7.2,7.2,0,0,0-1.68,4.32h10.41a6.62,6.62,0,0,0-1.27-4.37A4.48,4.48,0,0,0,435.31,292.93Z"/><path d="M464.87,290.76v1.91l-3.68.44a6.41,6.41,0,0,1,.91,1.66,6.49,6.49,0,0,1,.39,2.32,5.88,5.88,0,0,1-2,4.66A8,8,0,0,1,455,303.5a8.87,8.87,0,0,1-1.67-.15,3,3,0,0,0-1.92,2.56,1.29,1.29,0,0,0,.67,1.21,4.89,4.89,0,0,0,2.3.39h3.53a7.9,7.9,0,0,1,5,1.36,4.75,4.75,0,0,1,1.73,4,5.63,5.63,0,0,1-2.65,5q-2.66,1.74-7.74,1.74a10.56,10.56,0,0,1-6-1.46,4.69,4.69,0,0,1-2.12-4.1,4.58,4.58,0,0,1,1.17-3.14,5.82,5.82,0,0,1,3.27-1.8,3.14,3.14,0,0,1-1.28-1.07,2.82,2.82,0,0,1-.52-1.69,3.2,3.2,0,0,1,.58-1.91,6.28,6.28,0,0,1,1.83-1.58,5.33,5.33,0,0,1-2.51-2.16,6.34,6.34,0,0,1-1-3.49,6.43,6.43,0,0,1,2-5,8,8,0,0,1,5.56-1.77,10.13,10.13,0,0,1,2.81.36ZM449,314a2.68,2.68,0,0,0,1.36,2.45,7.5,7.5,0,0,0,3.91.84,10.86,10.86,0,0,0,5.62-1.14,3.45,3.45,0,0,0,1.82-3.07,2.46,2.46,0,0,0-1-2.25,7.89,7.89,0,0,0-3.76-.62h-3.62a4.75,4.75,0,0,0-3.2,1A3.5,3.5,0,0,0,449,314Zm1.64-16.87a4,4,0,0,0,1.18,3.16,4.71,4.71,0,0,0,3.28,1.07q4.42,0,4.42-4.28c0-3-1.49-4.49-4.47-4.49a4.43,4.43,0,0,0-3.27,1.14A4.64,4.64,0,0,0,450.64,297.14Z"/><path d="M471.79,290.76v12.92a5.19,5.19,0,0,0,1.11,3.63,4.52,4.52,0,0,0,3.47,1.2,5.66,5.66,0,0,0,4.57-1.71c1-1.14,1.44-3,1.44-5.57V290.76h3v19.91h-2.49l-.44-2.67h-.16a6,6,0,0,1-2.57,2.25A8.67,8.67,0,0,1,476,311c-2.42,0-4.24-.57-5.44-1.72s-1.81-3-1.81-5.52v-13Z"/><path d="M505.41,310.67V297.79a5.19,5.19,0,0,0-1.11-3.63,4.48,4.48,0,0,0-3.46-1.2,5.74,5.74,0,0,0-4.58,1.69q-1.45,1.69-1.45,5.58v10.44h-3V290.76h2.45l.49,2.73h.15a6.16,6.16,0,0,1,2.6-2.28,8.39,8.39,0,0,1,3.72-.81,7.53,7.53,0,0,1,5.41,1.74q1.81,1.73,1.82,5.54v13Z"/><path d="M528.17,308H528a7.1,7.1,0,0,1-6.25,3,7.41,7.41,0,0,1-6.08-2.67c-1.44-1.78-2.17-4.31-2.17-7.59s.73-5.83,2.18-7.64a7.35,7.35,0,0,1,6.07-2.73,7.24,7.24,0,0,1,6.21,2.94h.24l-.13-1.43-.07-1.4v-8.1h3v28.26h-2.45Zm-6,.51a5.5,5.5,0,0,0,4.48-1.68c.92-1.12,1.39-2.93,1.39-5.42v-.64q0-4.23-1.41-6a5.37,5.37,0,0,0-4.5-1.8A4.61,4.61,0,0,0,518,295a10.3,10.3,0,0,0-1.4,5.82,9.79,9.79,0,0,0,1.4,5.76A4.74,4.74,0,0,0,522.14,308.51Z"/><path d="M554.6,300.7c0,3.24-.82,5.78-2.46,7.6a8.63,8.63,0,0,1-6.77,2.73,8.93,8.93,0,0,1-4.74-1.25,8.21,8.21,0,0,1-3.2-3.6,12.53,12.53,0,0,1-1.12-5.48c0-3.25.81-5.77,2.43-7.58a8.62,8.62,0,0,1,6.76-2.72,8.44,8.44,0,0,1,6.64,2.78A10.93,10.93,0,0,1,554.6,300.7Zm-15.17,0a9.42,9.42,0,0,0,1.53,5.81,6.05,6.05,0,0,0,9,0,9.44,9.44,0,0,0,1.53-5.82,9.29,9.29,0,0,0-1.53-5.77,5.42,5.42,0,0,0-4.53-2,5.29,5.29,0,0,0-4.47,2Q539.42,296.84,539.43,300.7Z"/><path d="M576,308.55a9.74,9.74,0,0,0,1.55-.12,9.34,9.34,0,0,0,1.18-.25v2.31a5.35,5.35,0,0,1-1.45.39,11,11,0,0,1-1.71.15c-3.85,0-5.78-2-5.78-6.08V293.11h-2.85v-1.46l2.85-1.25,1.27-4.25h1.75v4.61h5.77v2.35h-5.77v11.71a4,4,0,0,0,.85,2.76A3,3,0,0,0,576,308.55Z"/><path d="M591.08,311a9.14,9.14,0,0,1-7-2.68,10.43,10.43,0,0,1-2.55-7.47,11.55,11.55,0,0,1,2.37-7.65,7.89,7.89,0,0,1,6.36-2.83,7.53,7.53,0,0,1,5.93,2.46,9.46,9.46,0,0,1,2.17,6.5v1.9H584.69a7.88,7.88,0,0,0,1.77,5.32,6.1,6.1,0,0,0,4.73,1.82,16.11,16.11,0,0,0,6.36-1.34v2.68a15.83,15.83,0,0,1-3,1A17,17,0,0,1,591.08,311Zm-.81-18.1a4.92,4.92,0,0,0-3.82,1.56,7.14,7.14,0,0,0-1.69,4.32h10.41a6.62,6.62,0,0,0-1.27-4.37A4.48,4.48,0,0,0,590.27,292.93ZM588,287.68c.58-.75,1.21-1.66,1.88-2.73a26.86,26.86,0,0,0,1.59-2.78h3.67v.39a26.43,26.43,0,0,1-2.38,2.9,27.26,27.26,0,0,1-2.74,2.67h-2Z"/><path d="M612.63,290.4a11.54,11.54,0,0,1,2.38.22l-.42,2.8a9.85,9.85,0,0,0-2.18-.28,5.3,5.3,0,0,0-4.13,2,7.1,7.1,0,0,0-1.72,4.88v10.68h-3V290.76H606l.35,3.69h.14a8.92,8.92,0,0,1,2.67-3A6,6,0,0,1,612.63,290.4Z"/><path d="M644.1,310.67V297.72a5.36,5.36,0,0,0-1-3.57,3.93,3.93,0,0,0-3.16-1.19,5.11,5.11,0,0,0-4.16,1.62,7.73,7.73,0,0,0-1.34,5v11.11h-3V297.72a5.36,5.36,0,0,0-1-3.57,4,4,0,0,0-3.18-1.19,4.93,4.93,0,0,0-4.15,1.7q-1.32,1.69-1.32,5.57v10.44h-3V290.76h2.45l.49,2.73h.15a5.91,5.91,0,0,1,2.4-2.27,7.32,7.32,0,0,1,3.48-.82c3.11,0,5.15,1.13,6.1,3.38H634a6.34,6.34,0,0,1,2.58-2.47,7.94,7.94,0,0,1,3.85-.91,6.74,6.74,0,0,1,5.06,1.74q1.68,1.73,1.68,5.54v13Z"/><path d="M653.07,285.37a2,2,0,0,1,.51-1.52,1.79,1.79,0,0,1,1.27-.48,1.81,1.81,0,0,1,1.26.49,2,2,0,0,1,.52,1.51,2,2,0,0,1-.52,1.52,1.85,1.85,0,0,1-2.53,0A2.05,2.05,0,0,1,653.07,285.37Zm3.27,25.3h-3V290.76h3Z"/><path d="M676.36,310.67V297.79a5.19,5.19,0,0,0-1.11-3.63,4.52,4.52,0,0,0-3.47-1.2,5.75,5.75,0,0,0-4.58,1.69c-1,1.13-1.45,3-1.45,5.58v10.44h-3V290.76h2.45l.49,2.73h.14a6.22,6.22,0,0,1,2.6-2.28,8.42,8.42,0,0,1,3.72-.81,7.56,7.56,0,0,1,5.42,1.74q1.82,1.73,1.81,5.54v13Z"/><path d="M702.75,300.7c0,3.24-.82,5.78-2.45,7.6a8.66,8.66,0,0,1-6.78,2.73,8.93,8.93,0,0,1-4.74-1.25,8.21,8.21,0,0,1-3.2-3.6,12.53,12.53,0,0,1-1.12-5.48c0-3.25.81-5.77,2.43-7.58a8.62,8.62,0,0,1,6.76-2.72,8.44,8.44,0,0,1,6.64,2.78A10.93,10.93,0,0,1,702.75,300.7Zm-15.17,0a9.42,9.42,0,0,0,1.53,5.81,6.05,6.05,0,0,0,9,0,9.44,9.44,0,0,0,1.53-5.82,9.29,9.29,0,0,0-1.53-5.77,5.39,5.39,0,0,0-4.53-2,5.29,5.29,0,0,0-4.47,2Q687.58,296.84,687.58,300.7Z"/><path d="M442.43,353.18a9.7,9.7,0,0,0,1.54-.12,11.37,11.37,0,0,0,1.18-.24v2.3a5.71,5.71,0,0,1-1.44.4,11.23,11.23,0,0,1-1.72.15q-5.78,0-5.78-6.08V337.74h-2.85v-1.45l2.85-1.25,1.28-4.25h1.74v4.61H445v2.34h-5.77v11.72a4,4,0,0,0,.85,2.76A3,3,0,0,0,442.43,353.18Z"/><path d="M448.87,330a2,2,0,0,1,.51-1.52,1.89,1.89,0,0,1,2.53,0,2.45,2.45,0,0,1,0,3,1.73,1.73,0,0,1-1.26.5,1.71,1.71,0,0,1-1.27-.5A2,2,0,0,1,448.87,330Zm3.27,25.3h-3V335.4h3Z"/><path d="M467,355.67a9.15,9.15,0,0,1-7-2.69,10.4,10.4,0,0,1-2.55-7.46,11.55,11.55,0,0,1,2.37-7.65,7.86,7.86,0,0,1,6.36-2.83,7.49,7.49,0,0,1,5.92,2.46,9.39,9.39,0,0,1,2.18,6.49v1.91H460.55a7.88,7.88,0,0,0,1.77,5.32,6.13,6.13,0,0,0,4.73,1.82,16,16,0,0,0,6.36-1.35v2.69a16.06,16.06,0,0,1-3,1A17,17,0,0,1,467,355.67Zm-.82-18.11a4.94,4.94,0,0,0-3.83,1.56,7.25,7.25,0,0,0-1.68,4.33H471a6.62,6.62,0,0,0-1.27-4.37A4.48,4.48,0,0,0,466.13,337.56Z"/><path d="M493,355.31V342.43a5.19,5.19,0,0,0-1.11-3.63,4.52,4.52,0,0,0-3.47-1.2,5.72,5.72,0,0,0-4.58,1.69q-1.46,1.68-1.45,5.57v10.45h-3V335.4h2.46l.49,2.72h.14a6.13,6.13,0,0,1,2.6-2.27,8.39,8.39,0,0,1,3.72-.81,7.62,7.62,0,0,1,5.42,1.73q1.81,1.74,1.81,5.55v13Z"/><path d="M510.64,355.67a9.14,9.14,0,0,1-7-2.69,10.4,10.4,0,0,1-2.55-7.46,11.55,11.55,0,0,1,2.37-7.65,7.86,7.86,0,0,1,6.36-2.83,7.49,7.49,0,0,1,5.92,2.46A9.39,9.39,0,0,1,518,344v1.91H504.25a7.88,7.88,0,0,0,1.77,5.32,6.13,6.13,0,0,0,4.73,1.82,16,16,0,0,0,6.36-1.35v2.69a16.06,16.06,0,0,1-3,1A17.09,17.09,0,0,1,510.64,355.67Zm-.81-18.11a4.94,4.94,0,0,0-3.83,1.56,7.25,7.25,0,0,0-1.68,4.33h10.41a6.62,6.62,0,0,0-1.27-4.37A4.48,4.48,0,0,0,509.83,337.56Z"/><path d="M548.84,340.09q0,15.59-12.06,15.58a12.33,12.33,0,0,1-3.34-.36v-2.6a10.82,10.82,0,0,0,3.3.47c2.91,0,5.1-.9,6.59-2.7s2.29-4.55,2.42-8.27h-.22a6.43,6.43,0,0,1-2.65,2.3,8.46,8.46,0,0,1-3.72.79,7.46,7.46,0,0,1-5.59-2.11,8,8,0,0,1-2.08-5.88,9,9,0,0,1,2.32-6.54,8.08,8.08,0,0,1,6.09-2.4,8.17,8.17,0,0,1,4.74,1.39,8.84,8.84,0,0,1,3.11,4.05A16.48,16.48,0,0,1,548.84,340.09ZM539.9,331a5,5,0,0,0-4,1.67,7,7,0,0,0-1.42,4.65,6.08,6.08,0,0,0,1.31,4.12,5,5,0,0,0,4,1.49,6.87,6.87,0,0,0,3-.67,5.5,5.5,0,0,0,2.19-1.83,4.28,4.28,0,0,0,.8-2.44,8.26,8.26,0,0,0-.75-3.52,6,6,0,0,0-2.08-2.54A5.22,5.22,0,0,0,539.9,331Z"/><path d="M573,355.67a8.56,8.56,0,0,1-3.55-.72,6.74,6.74,0,0,1-2.7-2.2h-.22a25.74,25.74,0,0,1,.22,3.3v8.19h-3V335.4h2.45l.42,2.72h.14a7.17,7.17,0,0,1,2.71-2.36A8.29,8.29,0,0,1,573,335a7.35,7.35,0,0,1,6.11,2.7c1.44,1.81,2.15,4.34,2.15,7.6s-.73,5.8-2.19,7.61A7.35,7.35,0,0,1,573,355.67Zm-.44-18.07a5.33,5.33,0,0,0-4.41,1.69c-.91,1.12-1.37,2.92-1.4,5.37v.68q0,4.19,1.4,6a5.34,5.34,0,0,0,4.49,1.81,4.69,4.69,0,0,0,4-2.09,10,10,0,0,0,1.46-5.76,9.55,9.55,0,0,0-1.46-5.71A4.81,4.81,0,0,0,572.52,337.6Z"/><path d="M598.73,355.31l-.6-2.84H598a8.58,8.58,0,0,1-3,2.54,9.11,9.11,0,0,1-3.7.66,6.64,6.64,0,0,1-4.64-1.53A5.55,5.55,0,0,1,585,349.8q0-6,9.64-6.32l3.38-.11v-1.23a5.05,5.05,0,0,0-1-3.46,4.15,4.15,0,0,0-3.23-1.12,13.12,13.12,0,0,0-5.63,1.53l-.93-2.31a14.36,14.36,0,0,1,3.23-1.25,14.1,14.1,0,0,1,3.51-.46q3.57,0,5.28,1.58c1.14,1.06,1.72,2.75,1.72,5.07v13.59Zm-6.81-2.13a6.1,6.1,0,0,0,4.42-1.54,5.68,5.68,0,0,0,1.61-4.32v-1.8l-3,.12a11,11,0,0,0-5.19,1.12,3.37,3.37,0,0,0-1.59,3.08,3.11,3.11,0,0,0,1,2.49A4.1,4.1,0,0,0,591.92,353.18Z"/><path d="M610.19,355.31h-3V327.05h3Z"/><path d="M616.33,330a2,2,0,0,1,.51-1.52,1.88,1.88,0,0,1,2.52,0,2.42,2.42,0,0,1,0,3,1.73,1.73,0,0,1-1.25.5,1.71,1.71,0,0,1-1.27-.5A2,2,0,0,1,616.33,330Zm3.27,25.3h-3V335.4h3Z"/><path d="M632.42,353.18a9.74,9.74,0,0,0,1.55-.12,12,12,0,0,0,1.18-.24v2.3a5.68,5.68,0,0,1-1.45.4,11,11,0,0,1-1.71.15q-5.78,0-5.78-6.08V337.74h-2.85v-1.45l2.85-1.25,1.27-4.25h1.75v4.61H635v2.34h-5.77v11.72a4,4,0,0,0,.85,2.76A3,3,0,0,0,632.42,353.18Z"/><path d="M656.31,345.34q0,4.86-2.46,7.6a8.63,8.63,0,0,1-6.77,2.73,9,9,0,0,1-4.74-1.25,8.32,8.32,0,0,1-3.2-3.6,12.53,12.53,0,0,1-1.12-5.48q0-4.87,2.43-7.59a8.61,8.61,0,0,1,6.76-2.71,8.42,8.42,0,0,1,6.64,2.78A10.93,10.93,0,0,1,656.31,345.34Zm-15.17,0a9.42,9.42,0,0,0,1.53,5.81,5.29,5.29,0,0,0,4.48,2,5.36,5.36,0,0,0,4.5-2,9.44,9.44,0,0,0,1.53-5.82,9.26,9.26,0,0,0-1.53-5.77,5.42,5.42,0,0,0-4.53-2,5.31,5.31,0,0,0-4.47,1.94Q641.14,341.49,641.14,345.34Z"/><path d="M674.43,349.88a5,5,0,0,1-2.07,4.28,9.7,9.7,0,0,1-5.81,1.51,12.66,12.66,0,0,1-6.17-1.25v-2.8a14.6,14.6,0,0,0,3.07,1.14,12.86,12.86,0,0,0,3.17.42,7.24,7.24,0,0,0,3.64-.75,2.6,2.6,0,0,0,.26-4.29,15.81,15.81,0,0,0-3.93-1.95,20.66,20.66,0,0,1-4-1.81,5.31,5.31,0,0,1-1.75-1.75,4.58,4.58,0,0,1-.57-2.34,4.44,4.44,0,0,1,2-3.84,9.21,9.21,0,0,1,5.43-1.41,15.72,15.72,0,0,1,6.28,1.31l-1.07,2.45a14.25,14.25,0,0,0-5.43-1.24,6.33,6.33,0,0,0-3.23.67,2.08,2.08,0,0,0-1.09,1.86,2.28,2.28,0,0,0,.41,1.36,4.05,4.05,0,0,0,1.32,1.07A28.31,28.31,0,0,0,668.4,344a13.1,13.1,0,0,1,4.79,2.6A4.58,4.58,0,0,1,674.43,349.88Z"/></svg>