<svg id="Layer_1" data-name="Layer 1" xmlns="http://www.w3.org/2000/svg" viewBox="0 0 1812.31 372.52"><defs><style>.cls-1{fill:#d32a2a;}.cls-2{fill:#ffe2a1;}.cls-3{fill:#3a68ad;}</style></defs><title>Fosforos_U03_03_02</title><rect class="cls-1" x="1653.91" y="144.65" width="13.75" height="237.11" transform="translate(1923.99 -1397.59) rotate(90)"/><path class="cls-1" d="M1746.38,270.08V256.33l55.78-3.27a10.14,10.14,0,0,1,10.15,10.14h0a10.14,10.14,0,0,1-10.15,10.15Z"/><rect class="cls-1" x="1535.36" y="0.02" width="13.75" height="237.11" transform="translate(3084.47 237.15) rotate(180)"/><path class="cls-1" d="M1535.36,204.17h13.75l3.27,55.78a10.15,10.15,0,0,1-10.15,10.15h0A10.16,10.16,0,0,1,1532.08,260Z"/><rect class="cls-1" x="1393.98" y="-108.41" width="13.75" height="237.11" transform="translate(1411.01 -1390.71) rotate(90)"/><path class="cls-1" d="M1486.45,17V3.27L1542.23,0a10.14,10.14,0,0,1,10.15,10.15h0a10.15,10.15,0,0,1-10.15,10.15Z"/><rect class="cls-2" x="1282.3" y="32.97" width="13.75" height="237.11"/><path class="cls-3" d="M1296.05,65.93H1282.3L1279,10.15A10.14,10.14,0,0,1,1289.18,0h0a10.15,10.15,0,0,1,10.15,10.15Z"/><rect class="cls-2" x="1140.93" y="144.65" width="13.75" height="237.11" transform="translate(1411.01 -884.6) rotate(90)"/><path class="cls-3" d="M1233.39,270.08V256.33l55.79-3.27a10.15,10.15,0,0,1,10.15,10.14h0a10.15,10.15,0,0,1-10.15,10.15Z"/><rect class="cls-2" x="1022.37" width="13.75" height="237.11" transform="translate(2058.49 237.11) rotate(180)"/><path class="cls-3" d="M1022.37,204.15h13.75l3.27,55.78a10.14,10.14,0,0,1-10.14,10.15h0a10.14,10.14,0,0,1-10.15-10.15Z"/><rect class="cls-2" x="881" y="-108.41" width="13.75" height="237.11" transform="translate(898.02 -877.72) rotate(90)"/><path class="cls-3" d="M973.46,17V3.27L1029.25,0a10.14,10.14,0,0,1,10.14,10.15h0a10.15,10.15,0,0,1-10.14,10.15Z"/><rect class="cls-2" x="769.32" y="32.97" width="13.75" height="237.11"/><path class="cls-3" d="M783.07,65.93H769.32L766,10.15A10.15,10.15,0,0,1,776.19,0h0a10.14,10.14,0,0,1,10.15,10.15Z"/><rect class="cls-2" x="627.94" y="144.65" width="13.75" height="237.11" transform="translate(898.02 -371.61) rotate(90)"/><path class="cls-3" d="M720.41,270.08V256.33l55.78-3.27a10.14,10.14,0,0,1,10.15,10.14h0a10.14,10.14,0,0,1-10.15,10.15Z"/><rect class="cls-2" x="3.27" y="32.97" width="13.75" height="237.11"/><path class="cls-3" d="M17,65.93H3.27L0,10.15A10.14,10.14,0,0,1,10.15,0h0A10.15,10.15,0,0,1,20.3,10.15Z"/><rect class="cls-2" x="509.39" y="0.02" width="13.75" height="237.11" transform="translate(1032.52 237.15) rotate(180)"/><path class="cls-3" d="M509.39,204.17h13.74L526.41,260a10.16,10.16,0,0,1-10.15,10.15h0A10.16,10.16,0,0,1,506.11,260Z"/><rect class="cls-2" x="368.01" y="-108.41" width="13.75" height="237.11" transform="translate(385.03 -364.74) rotate(90)"/><path class="cls-3" d="M460.48,17V3.27L516.26,0a10.15,10.15,0,0,1,10.15,10.15h0A10.16,10.16,0,0,1,516.26,20.3Z"/><rect class="cls-2" x="256.33" y="32.97" width="13.75" height="237.11"/><path class="cls-3" d="M270.08,65.93H256.33l-3.27-55.78A10.14,10.14,0,0,1,263.2,0h0a10.14,10.14,0,0,1,10.15,10.15Z"/><rect class="cls-2" x="114.96" y="144.65" width="13.75" height="237.11" transform="translate(385.03 141.37) rotate(90)"/><path class="cls-3" d="M207.42,270.08V256.33l55.78-3.27a10.14,10.14,0,0,1,10.15,10.14h0a10.14,10.14,0,0,1-10.15,10.15Z"/><path d="M682.65,311.88a6.51,6.51,0,0,1-2.55,5.47,11,11,0,0,1-6.9,2,17.27,17.27,0,0,1-7.26-1.21v-3a19.65,19.65,0,0,0,7.37,1.49,7.63,7.63,0,0,0,4.65-1.18,3.84,3.84,0,0,0,1.56-3.26,4.18,4.18,0,0,0-.55-2.26,5.19,5.19,0,0,0-1.85-1.62,26.12,26.12,0,0,0-4-1.69,12.61,12.61,0,0,1-5.3-3.14,6.93,6.93,0,0,1-1.59-4.74,5.89,5.89,0,0,1,2.31-4.89,9.59,9.59,0,0,1,6.1-1.82,17.93,17.93,0,0,1,7.28,1.46l-1,2.68a16.44,16.44,0,0,0-6.39-1.38,6.18,6.18,0,0,0-3.83,1.06,3.47,3.47,0,0,0-1.38,2.92,4.56,4.56,0,0,0,.5,2.26,4.83,4.83,0,0,0,1.72,1.62,22,22,0,0,0,3.7,1.63q4.17,1.49,5.75,3.19A6.33,6.33,0,0,1,682.65,311.88Z"/><path d="M696,319.31a9.11,9.11,0,0,1-7-2.69,10.4,10.4,0,0,1-2.55-7.46,11.55,11.55,0,0,1,2.37-7.65,7.86,7.86,0,0,1,6.36-2.83,7.49,7.49,0,0,1,5.92,2.46,9.4,9.4,0,0,1,2.18,6.49v1.91H689.64a7.88,7.88,0,0,0,1.77,5.32,6.13,6.13,0,0,0,4.73,1.82,16,16,0,0,0,6.36-1.35V318a16.14,16.14,0,0,1-3,1A16.91,16.91,0,0,1,696,319.31Zm-.81-18.11a5,5,0,0,0-3.83,1.57,7.2,7.2,0,0,0-1.68,4.32h10.41a6.62,6.62,0,0,0-1.27-4.37A4.48,4.48,0,0,0,695.22,301.2Z"/><path d="M724.78,299V301l-3.68.44a6,6,0,0,1,.9,1.66,6.22,6.22,0,0,1,.4,2.31,5.89,5.89,0,0,1-2,4.67,8.09,8.09,0,0,1-5.49,1.74,8.89,8.89,0,0,1-1.67-.14,3,3,0,0,0-1.92,2.56,1.29,1.29,0,0,0,.67,1.21,4.89,4.89,0,0,0,2.3.39h3.53a7.85,7.85,0,0,1,5,1.36,4.73,4.73,0,0,1,1.74,4,5.65,5.65,0,0,1-2.65,5q-2.65,1.74-7.74,1.74a10.56,10.56,0,0,1-6-1.46,4.7,4.7,0,0,1-2.12-4.1,4.62,4.62,0,0,1,1.17-3.15,5.87,5.87,0,0,1,3.27-1.79,3.23,3.23,0,0,1-1.29-1.07,2.88,2.88,0,0,1-.51-1.69,3.18,3.18,0,0,1,.58-1.91,6.14,6.14,0,0,1,1.83-1.58,5.34,5.34,0,0,1-2.51-2.16,6.34,6.34,0,0,1-1-3.49,6.43,6.43,0,0,1,2-5,8,8,0,0,1,5.55-1.77,10.21,10.21,0,0,1,2.82.36Zm-15.87,23.25a2.68,2.68,0,0,0,1.36,2.45,7.5,7.5,0,0,0,3.91.84,10.86,10.86,0,0,0,5.62-1.14,3.45,3.45,0,0,0,1.82-3.08,2.43,2.43,0,0,0-1-2.24,7.68,7.68,0,0,0-3.76-.63h-3.61a4.75,4.75,0,0,0-3.2,1A3.5,3.5,0,0,0,708.91,322.29Zm1.63-16.87a4.09,4.09,0,0,0,1.18,3.16,4.75,4.75,0,0,0,3.29,1.07c2.94,0,4.42-1.43,4.42-4.29s-1.49-4.48-4.47-4.48a4.43,4.43,0,0,0-3.27,1.14A4.63,4.63,0,0,0,710.54,305.42Z"/><path d="M731.7,299V312a5.19,5.19,0,0,0,1.11,3.63,4.52,4.52,0,0,0,3.47,1.2,5.66,5.66,0,0,0,4.57-1.71q1.44-1.71,1.44-5.58V299h3V319h-2.49l-.44-2.67h-.16a6,6,0,0,1-2.57,2.25,8.67,8.67,0,0,1-3.75.78c-2.42,0-4.24-.57-5.44-1.72s-1.81-3-1.81-5.52V299Z"/><path d="M765.32,319V306.07a5.19,5.19,0,0,0-1.11-3.63,4.48,4.48,0,0,0-3.46-1.2,5.71,5.71,0,0,0-4.58,1.69c-1,1.13-1.45,3-1.45,5.58V319h-3V299h2.45l.49,2.73h.15a6.16,6.16,0,0,1,2.6-2.28,8.39,8.39,0,0,1,3.72-.81,7.58,7.58,0,0,1,5.41,1.73q1.82,1.74,1.82,5.55v13Z"/><path d="M788.08,316.28h-.16a7.1,7.1,0,0,1-6.25,3,7.4,7.4,0,0,1-6.08-2.67c-1.44-1.78-2.17-4.31-2.17-7.59s.73-5.83,2.18-7.65a7.37,7.37,0,0,1,6.07-2.72,7.24,7.24,0,0,1,6.21,2.94h.24l-.13-1.43-.07-1.4v-8.1h3V319h-2.45Zm-6,.51a5.5,5.5,0,0,0,4.48-1.68c.92-1.12,1.39-2.93,1.39-5.42v-.64q0-4.23-1.41-6a5.37,5.37,0,0,0-4.5-1.81,4.62,4.62,0,0,0-4.06,2.07,10.3,10.3,0,0,0-1.4,5.82,9.82,9.82,0,0,0,1.39,5.75A4.75,4.75,0,0,0,782.05,316.79Z"/><path d="M814.51,309c0,3.24-.82,5.78-2.46,7.6a8.63,8.63,0,0,1-6.77,2.73,9,9,0,0,1-4.74-1.25,8.32,8.32,0,0,1-3.2-3.6,12.53,12.53,0,0,1-1.12-5.48q0-4.87,2.43-7.58a8.6,8.6,0,0,1,6.76-2.72,8.42,8.42,0,0,1,6.63,2.78A10.89,10.89,0,0,1,814.51,309Zm-15.17,0a9.42,9.42,0,0,0,1.53,5.81,5.29,5.29,0,0,0,4.48,2,5.36,5.36,0,0,0,4.5-2,9.44,9.44,0,0,0,1.53-5.82,9.29,9.29,0,0,0-1.53-5.77,5.42,5.42,0,0,0-4.53-2,5.31,5.31,0,0,0-4.47,1.94Q799.34,305.13,799.34,309Z"/><path d="M835.88,316.82a11.09,11.09,0,0,0,1.55-.11,9.34,9.34,0,0,0,1.18-.25v2.31a5.74,5.74,0,0,1-1.45.39,11,11,0,0,1-1.71.15q-5.78,0-5.78-6.08V301.39h-2.85v-1.46l2.85-1.25,1.27-4.25h1.75V299h5.77v2.35h-5.77V313.1a4,4,0,0,0,.85,2.76A3,3,0,0,0,835.88,316.82Z"/><path d="M851,319.31a9.11,9.11,0,0,1-7-2.69,10.4,10.4,0,0,1-2.55-7.46,11.55,11.55,0,0,1,2.37-7.65,7.86,7.86,0,0,1,6.36-2.83,7.49,7.49,0,0,1,5.92,2.46,9.4,9.4,0,0,1,2.18,6.49v1.91H844.6a7.88,7.88,0,0,0,1.77,5.32,6.13,6.13,0,0,0,4.73,1.82,16,16,0,0,0,6.36-1.35V318a16.06,16.06,0,0,1-3,1A17,17,0,0,1,851,319.31Zm-.81-18.11a5,5,0,0,0-3.83,1.57,7.2,7.2,0,0,0-1.68,4.32h10.41a6.62,6.62,0,0,0-1.27-4.37A4.48,4.48,0,0,0,850.18,301.2ZM847.94,296c.58-.76,1.21-1.66,1.88-2.73a28.84,28.84,0,0,0,1.59-2.78h3.67v.38a26.62,26.62,0,0,1-2.38,2.91,27.26,27.26,0,0,1-2.74,2.67h-2Z"/><path d="M872.53,298.68a11.41,11.41,0,0,1,2.38.22l-.41,2.79a10.41,10.41,0,0,0-2.18-.27,5.35,5.35,0,0,0-4.14,2,7.18,7.18,0,0,0-1.71,4.89V319h-3V299h2.49l.35,3.69h.14a8.82,8.82,0,0,1,2.67-3A6,6,0,0,1,872.53,298.68Z"/><path d="M904,319V306a5.36,5.36,0,0,0-1-3.57,3.94,3.94,0,0,0-3.16-1.19,5.11,5.11,0,0,0-4.16,1.62,7.7,7.7,0,0,0-1.34,5V319h-3V306a5.36,5.36,0,0,0-1-3.57,4,4,0,0,0-3.18-1.19,4.93,4.93,0,0,0-4.15,1.7q-1.32,1.69-1.32,5.57V319h-3V299h2.45l.49,2.73h.15a5.84,5.84,0,0,1,2.4-2.27,7.32,7.32,0,0,1,3.48-.82c3.11,0,5.15,1.13,6.1,3.38h.15a6.28,6.28,0,0,1,2.58-2.47,7.94,7.94,0,0,1,3.85-.91,6.77,6.77,0,0,1,5.06,1.73Q907,302.15,907,306v13Z"/><path d="M913,293.65a2,2,0,0,1,.51-1.52,1.89,1.89,0,0,1,2.53,0,2,2,0,0,1,.52,1.51,2,2,0,0,1-.52,1.52,1.78,1.78,0,0,1-1.26.49,1.74,1.74,0,0,1-1.27-.49A2.05,2.05,0,0,1,913,293.65Zm3.27,25.3h-3V299h3Z"/><path d="M936.27,319V306.07a5.19,5.19,0,0,0-1.11-3.63,4.52,4.52,0,0,0-3.47-1.2,5.72,5.72,0,0,0-4.58,1.69c-1,1.13-1.45,3-1.45,5.58V319h-3V299h2.45l.49,2.73h.14a6.22,6.22,0,0,1,2.6-2.28,8.39,8.39,0,0,1,3.72-.81,7.62,7.62,0,0,1,5.42,1.73q1.81,1.74,1.81,5.55v13Z"/><path d="M962.66,309c0,3.24-.82,5.78-2.45,7.6a8.66,8.66,0,0,1-6.78,2.73,9,9,0,0,1-4.74-1.25,8.32,8.32,0,0,1-3.2-3.6,12.53,12.53,0,0,1-1.12-5.48q0-4.87,2.43-7.58a8.62,8.62,0,0,1,6.76-2.72,8.44,8.44,0,0,1,6.64,2.78A10.93,10.93,0,0,1,962.66,309Zm-15.17,0a9.42,9.42,0,0,0,1.53,5.81,5.29,5.29,0,0,0,4.48,2,5.34,5.34,0,0,0,4.5-2,9.44,9.44,0,0,0,1.53-5.82,9.29,9.29,0,0,0-1.53-5.77,5.41,5.41,0,0,0-4.53-2,5.31,5.31,0,0,0-4.47,1.94Q947.49,305.13,947.49,309Z"/><path d="M691.7,361.46a9.61,9.61,0,0,0,1.54-.12c.5-.08.89-.16,1.19-.24v2.3a5.35,5.35,0,0,1-1.45.39,10.09,10.09,0,0,1-1.72.16q-5.78,0-5.77-6.09V346h-2.85v-1.45l2.85-1.25,1.27-4.25h1.74v4.61h5.78V346H688.5v11.72a4,4,0,0,0,.86,2.76A3,3,0,0,0,691.7,361.46Z"/><path d="M698.15,338.28a2,2,0,0,1,.51-1.51,1.88,1.88,0,0,1,2.52,0,2,2,0,0,1,.53,1.5,2,2,0,0,1-.53,1.52,1.77,1.77,0,0,1-1.25.5,1.75,1.75,0,0,1-1.27-.5A2,2,0,0,1,698.15,338.28Zm3.27,25.3h-3v-19.9h3Z"/><path d="M716.22,364a9.18,9.18,0,0,1-7-2.69,10.4,10.4,0,0,1-2.55-7.46,11.55,11.55,0,0,1,2.37-7.65,7.88,7.88,0,0,1,6.37-2.83,7.51,7.51,0,0,1,5.92,2.46,9.43,9.43,0,0,1,2.18,6.49v1.91H709.83a7.89,7.89,0,0,0,1.77,5.32,6.11,6.11,0,0,0,4.73,1.81,16,16,0,0,0,6.36-1.34v2.69a16.14,16.14,0,0,1-3,1A17,17,0,0,1,716.22,364Zm-.82-18.11a4.92,4.92,0,0,0-3.82,1.56,7.2,7.2,0,0,0-1.68,4.32h10.41a6.59,6.59,0,0,0-1.28-4.36A4.46,4.46,0,0,0,715.4,345.84Z"/><path d="M742.3,363.58V350.71a5.17,5.17,0,0,0-1.11-3.63,4.51,4.51,0,0,0-3.47-1.2,5.7,5.7,0,0,0-4.57,1.69q-1.46,1.68-1.46,5.57v10.44h-3v-19.9h2.45l.49,2.72h.15a6.13,6.13,0,0,1,2.59-2.28,8.6,8.6,0,0,1,3.73-.8,7.53,7.53,0,0,1,5.41,1.73q1.82,1.74,1.82,5.55v13Z"/><path d="M759.92,364a9.17,9.17,0,0,1-7-2.69,10.4,10.4,0,0,1-2.55-7.46,11.55,11.55,0,0,1,2.37-7.65,7.87,7.87,0,0,1,6.37-2.83,7.51,7.51,0,0,1,5.92,2.46,9.43,9.43,0,0,1,2.18,6.49v1.91H753.53a7.89,7.89,0,0,0,1.77,5.32,6.11,6.11,0,0,0,4.73,1.81,15.92,15.92,0,0,0,6.35-1.34v2.69a15.83,15.83,0,0,1-3,1A17,17,0,0,1,759.92,364Zm-.82-18.11a4.92,4.92,0,0,0-3.82,1.56,7.2,7.2,0,0,0-1.68,4.32H764a6.59,6.59,0,0,0-1.28-4.36A4.47,4.47,0,0,0,759.1,345.84Z"/><path d="M791.83,363.58h-2.94V344.66c0-1.57.05-3.06.14-4.47-.25.26-.54.52-.85.8s-1.76,1.46-4.32,3.54l-1.6-2.07,7-5.43h2.54Z"/><path d="M820.64,357.48h-3.95v6.1h-2.88v-6.1H800.89v-2.63l12.61-18h3.19v17.85h3.95Zm-6.83-2.74v-8.83q0-2.6.18-5.86h-.15a26.65,26.65,0,0,1-1.63,2.88l-8.3,11.81Z"/><path d="M843.5,364a8.6,8.6,0,0,1-3.55-.72,6.68,6.68,0,0,1-2.7-2.21H837a27.88,27.88,0,0,1,.21,3.31v8.19h-3V343.68h2.45l.42,2.72h.14A7.08,7.08,0,0,1,840,344a8.29,8.29,0,0,1,3.54-.72,7.35,7.35,0,0,1,6.11,2.7q2.16,2.72,2.16,7.59t-2.19,7.62A7.39,7.39,0,0,1,843.5,364Zm-.43-18.07a5.34,5.34,0,0,0-4.42,1.69q-1.35,1.68-1.4,5.37v.67q0,4.2,1.4,6a5.34,5.34,0,0,0,4.49,1.8,4.64,4.64,0,0,0,4-2.09,9.85,9.85,0,0,0,1.46-5.75,9.54,9.54,0,0,0-1.46-5.72A4.81,4.81,0,0,0,843.07,345.88Z"/><path d="M869.28,363.58l-.6-2.83h-.15a8.41,8.41,0,0,1-3,2.54,9.11,9.11,0,0,1-3.7.66,6.64,6.64,0,0,1-4.64-1.53,5.55,5.55,0,0,1-1.68-4.34q0-6,9.65-6.32l3.38-.11v-1.23a5.05,5.05,0,0,0-1-3.46,4.14,4.14,0,0,0-3.23-1.12,13.16,13.16,0,0,0-5.63,1.53l-.92-2.31a14.09,14.09,0,0,1,3.22-1.25,13.67,13.67,0,0,1,3.52-.46q3.56,0,5.27,1.58c1.15,1.06,1.72,2.74,1.72,5.07v13.58Zm-6.82-2.12a6.13,6.13,0,0,0,4.43-1.54,5.72,5.72,0,0,0,1.6-4.33V353.8l-3,.12a11,11,0,0,0-5.19,1.12,3.37,3.37,0,0,0-1.59,3.08,3.11,3.11,0,0,0,1,2.49A4.12,4.12,0,0,0,862.46,361.46Z"/><path d="M880.74,363.58h-3V335.32h3Z"/><path d="M886.87,338.28a2,2,0,0,1,.51-1.51,1.79,1.79,0,0,1,1.27-.48,1.77,1.77,0,0,1,1.26.49,2,2,0,0,1,.52,1.5,2,2,0,0,1-.52,1.52,1.85,1.85,0,0,1-2.53,0A2,2,0,0,1,886.87,338.28Zm3.27,25.3h-3v-19.9h3Z"/><path d="M903,361.46a9.7,9.7,0,0,0,1.54-.12,11.37,11.37,0,0,0,1.18-.24v2.3a5.37,5.37,0,0,1-1.44.39,10.18,10.18,0,0,1-1.72.16q-5.78,0-5.78-6.09V346H893.9v-1.45l2.85-1.25,1.28-4.25h1.74v4.61h5.78V346h-5.78v11.72a4,4,0,0,0,.85,2.76A3,3,0,0,0,903,361.46Z"/><path d="M926.85,353.61q0,4.88-2.45,7.6a8.64,8.64,0,0,1-6.78,2.74,9,9,0,0,1-4.74-1.25,8.3,8.3,0,0,1-3.19-3.6,12.54,12.54,0,0,1-1.13-5.49q0-4.86,2.43-7.58a8.63,8.63,0,0,1,6.76-2.71,8.42,8.42,0,0,1,6.64,2.77A11,11,0,0,1,926.85,353.61Zm-15.17,0a9.46,9.46,0,0,0,1.53,5.82,6.06,6.06,0,0,0,9,0,9.39,9.39,0,0,0,1.54-5.82,9.24,9.24,0,0,0-1.54-5.76,5.37,5.37,0,0,0-4.53-2,5.31,5.31,0,0,0-4.47,1.94A9.4,9.4,0,0,0,911.68,353.61Z"/><path d="M945,358.15a5,5,0,0,1-2.07,4.29,9.71,9.71,0,0,1-5.82,1.51,12.69,12.69,0,0,1-6.17-1.25v-2.8A15,15,0,0,0,934,361a12.74,12.74,0,0,0,3.17.42,7.22,7.22,0,0,0,3.63-.75,2.6,2.6,0,0,0,.26-4.29,15.81,15.81,0,0,0-3.93-1.95,21,21,0,0,1-4-1.81,5.36,5.36,0,0,1-1.74-1.75,4.53,4.53,0,0,1-.58-2.35,4.47,4.47,0,0,1,2-3.84,9.21,9.21,0,0,1,5.43-1.4,15.93,15.93,0,0,1,6.29,1.3l-1.07,2.46a14.33,14.33,0,0,0-5.43-1.24,6.26,6.26,0,0,0-3.24.67,2.1,2.1,0,0,0-1.09,1.85,2.29,2.29,0,0,0,.41,1.37,4.05,4.05,0,0,0,1.32,1.07,28.67,28.67,0,0,0,3.49,1.47,12.89,12.89,0,0,1,4.78,2.6A4.58,4.58,0,0,1,945,358.15Z"/></svg>