<svg id="Layer_3" data-name="Layer 3" xmlns="http://www.w3.org/2000/svg" width="500" height="500" viewBox="0 0 500 500"><defs><style>.cls-1{fill:#f1ca32;}</style></defs><title>sol</title><circle class="cls-1" cx="250.04" cy="255.41" r="115.26"/><rect class="cls-1" x="197.61" y="48.71" width="104.87" height="7.44" rx="0.28" transform="translate(302.48 -197.61) rotate(90)"/><rect class="cls-1" x="197.61" y="443.84" width="104.87" height="7.44" rx="0.28" transform="translate(697.61 197.52) rotate(90)"/><rect class="cls-1" x="0.04" y="255.41" width="104.87" height="7.44" rx="0.28"/><rect class="cls-1" x="395.17" y="255.41" width="104.87" height="7.44" rx="0.28"/><rect class="cls-1" x="54.19" y="111.99" width="104.87" height="7.44" rx="0.28" transform="translate(113.05 -41.5) rotate(45)"/><rect class="cls-1" x="333.59" y="391.39" width="104.87" height="7.44" rx="0.28" transform="translate(392.45 -157.23) rotate(45)"/><rect class="cls-1" x="333.59" y="106.58" width="104.87" height="7.44" rx="0.28" transform="translate(736.97 -84.66) rotate(135)"/><rect class="cls-1" x="54.19" y="385.98" width="104.87" height="7.44" rx="0.28" transform="translate(457.58 589.86) rotate(135)"/></svg>