<?xml version="1.0" encoding="utf-8"?>
<!-- Generator: Adobe Illustrator 23.0.0, SVG Export Plug-In . SVG Version: 6.00 Build 0)  -->
<svg version="1.1"
	 id="svg3013" inkscape:version="0.48.3.1 r9886" sodipodi:docname="arrow_right_font_awesome.svg" xmlns:cc="http://creativecommons.org/ns#" xmlns:dc="http://purl.org/dc/elements/1.1/" xmlns:inkscape="http://www.inkscape.org/namespaces/inkscape" xmlns:rdf="http://www.w3.org/1999/02/22-rdf-syntax-ns#" xmlns:sodipodi="http://sodipodi.sourceforge.net/DTD/sodipodi-0.dtd" xmlns:svg="http://www.w3.org/2000/svg"
	 xmlns="http://www.w3.org/2000/svg" xmlns:xlink="http://www.w3.org/1999/xlink" x="0px" y="0px" viewBox="0 0 626.8 663.4"
	 style="enable-background:new 0 0 626.8 663.4;" xml:space="preserve">
<style type="text/css">
	.st0{fill:#FFFFFF;}
</style>
<sodipodi:namedview  bordercolor="#666666" borderopacity="1" gridtolerance="10" guidetolerance="10" id="namedview3019" inkscape:current-layer="svg3013" inkscape:cx="896" inkscape:cy="896" inkscape:pageopacity="0" inkscape:pageshadow="2" inkscape:window-height="480" inkscape:window-maximized="0" inkscape:window-width="640" inkscape:window-x="0" inkscape:window-y="25" inkscape:zoom="0.13169643" objecttolerance="10" pagecolor="#ffffff" showgrid="false">
	</sodipodi:namedview>
<g id="g3015" transform="matrix(1,0,0,-1,144.27119,1255.0508)">
	<path id="path3017" inkscape:connector-curvature="0" class="st0" d="M482.5,923.4c0-15.3-5.3-28.2-15.8-38.7L189.5,607.4
		c-11.1-10.5-24-15.8-38.7-15.8c-14.5,0-27.3,5.3-38.3,15.8l-31.9,31.9c-10.8,10.8-16.2,23.7-16.2,38.7s5.4,28,16.2,38.7
		l124.8,124.8H-94.5c-14.8,0-26.8,5.3-36,16s-13.8,23.5-13.8,38.5v54.5c0,15,4.6,27.9,13.8,38.5s21.2,16,36,16h299.8L80.5,1130.3
		c-10.8,10.2-16.2,23-16.2,38.3s5.4,28.1,16.2,38.3l31.9,31.9c10.8,10.8,23.6,16.2,38.3,16.2c15,0,28-5.4,38.7-16.2l277.2-277.2
		C477.2,951.8,482.5,939,482.5,923.4z"/>
</g>
</svg>
