<svg id="Frame_1" data-name="Frame 1" xmlns="http://www.w3.org/2000/svg" xmlns:xlink="http://www.w3.org/1999/xlink" width="257.35" height="397.89" viewBox="0 0 257.35 397.89"><defs><style>.cls-1,.cls-17,.cls-4,.cls-6{fill:none;}.cls-2,.cls-3{fill:#f6e003;}.cls-10,.cls-11,.cls-13,.cls-14,.cls-16,.cls-17,.cls-18,.cls-2,.cls-20,.cls-21,.cls-4,.cls-6,.cls-7,.cls-9{stroke:#000;stroke-linejoin:round;}.cls-10,.cls-11,.cls-13,.cls-14,.cls-16,.cls-17,.cls-18,.cls-2,.cls-20,.cls-21,.cls-4,.cls-7,.cls-9{stroke-linecap:round;}.cls-5,.cls-7{fill:#f0eb6b;}.cls-8{clip-path:url(#clip-path);}.cls-9{fill:#fffca0;}.cls-10{fill:#abf680;}.cls-11{fill:#902e31;}.cls-12{clip-path:url(#clip-path-2);}.cls-13{fill:#f06b6b;}.cls-14,.cls-15{fill:#fff;}.cls-16{fill:#74baed;}.cls-17{stroke-width:3px;}.cls-18{fill:#393939;}.cls-19{fill:#ff6569;}.cls-20{fill:#ffff98;}.cls-21{fill:#5e5e5e;}</style><clipPath id="clip-path"><path class="cls-1" d="M114.86,206c-16.47-.11-25.48,7.64-34.84,18.21-4.87,5.5-6.69,12-8.06,18.82-.92,4.55-6.7,35.19-8.81,50.39-2.47,17.79-10.41,42.13-6.1,59.57,1.65,6.63,5.74,16,11.5,19.66,11.3,7.22,31.28,1,44.7,1,12.69,0,31.1,5,42.31-1,6.14-3.26,12.12-11.6,14.41-18.17,6.07-17.43-2.17-43.05-4.35-61.39-1.78-15.05-6.26-41.9-8.24-49.84-1.9-7.63-3.77-13.74-7.56-18.32C141.93,215.34,131.52,206.08,114.86,206Z"/></clipPath><clipPath id="clip-path-2"><path class="cls-1" d="M63.38,171.47c6.63,2.27,20.73,5.77,24.16,6.39,4.45.81,31.71,3.08,32.16,3.11s31.29,1.67,33.62,1.59c1.88-.07,20.93-1.91,26.91-3.11,2.05-.41,8-3.29,9-2.44,2.08,1.87-6.74,15.28-10,17.79-4.82,3.74-26.44,6.38-29.62,6.79s-28.44,1.13-31.48.85c-3.59-.33-31.38-6.05-36.29-7.87-3.33-1.24-18.48-7.93-22.23-11.82-2.71-2.83-10.17-14.55-8.25-16.27C52.73,165.25,59.93,170.28,63.38,171.47Z"/></clipPath></defs><title>togaSuki</title><g id="patita_5" data-name="patita 5"><g id="pata_izq" data-name="pata izq"><path class="cls-2" d="M126.21,390.34c.29,1,3.94,2.85,5.49,3.68a43.5,43.5,0,0,0,6.48,2.62c1,.11,8.27-2.36,10.7-2.24,2,.1,8.11,2.73,8.67,2.66s5.1-3.62,6.67-3.91c2.12-.4,10.09,2.37,10.24,1.85s-5.35-3.27-7.61-4.72c-1.75-1.1-5.62-3.66-5.77-3.75a42.88,42.88,0,0,0-6.26-3.4,42.45,42.45,0,0,0-12.21-1.48c-3.94,0-10.34-.25-13,1.79C128,384.64,125.88,389.15,126.21,390.34Z"/></g><g id="pierna_izq" data-name="pierna izq"><path class="cls-3" d="M129.75,383.55s3.8,3.46,13,3.35c8.71-.11,12.22-3.41,12.23-3.42s.95-10.64,1.34-15.21c.36-4.2,1.88-13,1.15-14-1.19-1.64-5.91-4.42-14.58-4.54-8.84-.12-14.42,2.3-15,4.26-.51,1.76-.19,10.15.06,14.49C128.28,373,129.74,383.54,129.75,383.55Z"/><path class="cls-4" d="M155,383.48s.95-10.64,1.34-15.21c.36-4.2,1.88-13,1.15-14-1.19-1.64-5.91-4.42-14.58-4.54-8.84-.12-14.42,2.3-15,4.26-.51,1.76-.19,10.15.06,14.49.27,4.55,1.73,15.07,1.74,15.08"/></g><g id="pata_der" data-name="pata der"><path class="cls-2" d="M68.09,383.93c-1.75.94-6.77,2.71-9.59,4.05-2.66,1.27-9,3.38-8.67,4.61s7.53-1.11,10-.12c1.37.55,3.36,3.46,4.14,3.68,1.14.33,6.47-1.84,8-1.67,1.37.15,6.28,2.86,6.66,2.9.72.09,10.31-1.48,13.23-2.82,2.09-1,7.64-4.71,7.82-5.77s-2.67-6.08-5-7.52c-3-1.86-8.09-1.37-11.58-1.31s-8.39.4-11.67,1.72A31.25,31.25,0,0,0,68.09,383.93Z"/></g><g id="pierna_der" data-name="pierna der"><path class="cls-3" d="M95.91,382.76s-3.65,3.51-12.7,3.53-12.87-3.51-12.88-3.53S69.15,372.07,69,367.52s-.64-12.4.17-15c.56-1.81,5.13-3.77,13.23-4,8.85-.28,13.12,2.19,14.69,3.56,1.16,1,.36,10.55.19,15.12C97.08,371.88,95.92,382.75,95.91,382.76Z"/><path class="cls-4" d="M70.33,382.76S69.15,372.07,69,367.52s-.64-12.4.17-15c.56-1.81,5.13-3.77,13.23-4,8.85-.28,13.12,2.19,14.69,3.56,1.16,1,.36,10.55.19,15.12-.18,4.73-1.34,15.6-1.35,15.61"/></g><g id="brazo_izq" data-name="brazo izq"><path class="cls-5" d="M148.61,243.06c-1.35-5.25,1.33-7.69,3-8.32,2.17-.82,38.1-7.66,43.32-9.69,3.11-1.21,30.92-21.46,37-25a53.91,53.91,0,0,1,10.51-5.37c6.19-2.15,13.62-3.39,14.12-2.76s-3.78,9.61-6.91,13.72c-2.41,3.15-6.46,6.24-8.69,8-8.53,6.71-33,22.22-38.13,24.38-4.88,2.05-45.05,10.43-47.77,10.76C153.16,249,149.92,248.16,148.61,243.06Z"/><path d="M148.61,243.06c-1.35-5.25,1.13-8,2.85-8.64l.25.65c-1.57.58-4.45,2.74-3.1,8Z"/><path d="M151.46,234.42c2.22-.84,38.08-8,43.2-10l.48,1.21c-5.32,2.05-41.32,8.61-43.43,9.41Z"/><path class="cls-6" d="M151.46,234.42l.25.65"/><path d="M194.66,224.45c3-1.14,30.78-21.39,36.92-25l.65,1.13c-6,3.5-33.85,23.76-37.09,25Z"/><path class="cls-6" d="M194.66,224.45l.48,1.21"/><path d="M231.58,199.49a53.87,53.87,0,0,1,10.61-5.42l.43,1.23a51.92,51.92,0,0,0-10.39,5.32Z"/><path class="cls-6" d="M231.58,199.49l.65,1.13"/><path d="M242.19,194.07c6.25-2.18,13.79-3.43,14.85-2.55l-1,.8c.07-.39-7.25.84-13.39,3Z"/><path class="cls-6" d="M242.19,194.07l.43,1.23"/><path d="M257,191.52c.62,1.32-3.72,10.33-6.9,14.51l-1-.79c3.09-4,7.35-12.88,6.91-12.92Z"/><path class="cls-6" d="M257,191.52l-1,.8"/><path d="M250.14,206c-2.48,3.23-6.59,6.37-8.81,8.11l-.8-1c2.23-1.76,6.23-4.79,8.57-7.88Z"/><path class="cls-6" d="M250.14,206l-1-.79"/><path d="M241.33,214.14c-8.57,6.74-33,22.27-38.28,24.48l-.5-1.2c5.08-2.13,29.48-17.61,38-24.3Z"/><path class="cls-6" d="M241.33,214.14l-.8-1"/><path d="M203.05,238.62c-5,2.07-45.23,10.16-48,10.5l-.08-.7c2.69-.33,42.78-9,47.56-11Z"/><path class="cls-6" d="M203.05,238.62l-.5-1.2"/><path d="M155.07,249.12c-1.95.22-5.15-1-6.46-6.06h0c1.31,5.1,4.59,5.58,6.38,5.36Z"/><path class="cls-6" d="M155.07,249.12l-.08-.7"/></g><g id="brazo_der" data-name="brazo der"><path class="cls-5" d="M82,236.63c-3.6-2.65-5.94-2.27-7.82-1.4-2.14,1-20.91,26.13-23.71,31.15C47.76,271.17,34,307.8,31.69,315.75a52.53,52.53,0,0,0-2.64,11.68c-.56,6.54-.2,13.92.84,14.38s8.36-6.06,11.56-10.13c2.49-3.17,4.47-8,5.62-10.57,4.78-10.39,15.13-42.33,17.22-46.23s21.17-28.58,21.5-30.66C86.07,242.43,85.8,239.48,82,236.63Z"/><path d="M82,236.63c-3.6-2.65-5.84-1.94-7.67-1.08l-.3-.64c1.93-.89,4.37-.93,8,1.72Z"/><path d="M74.29,235.55c-2,.9-20.53,26.19-23.29,31.15l-1.14-.64C52.7,261,71.72,236,74,234.91Z"/><path class="cls-6" d="M74.29,235.55l-.3-.64"/><path d="M51,266.7c-2.64,4.71-16.38,41.32-18.69,49.24l-1.25-.37c2.33-8,16.09-44.64,18.8-49.51Z"/><path class="cls-6" d="M51,266.7l-1.14-.64"/><path d="M32.31,315.94a51.64,51.64,0,0,0-2.61,11.54l-1.3-.1a54.5,54.5,0,0,1,2.66-11.81Z"/><path class="cls-6" d="M32.31,315.94l-1.25-.37"/><path d="M29.7,327.48c-.55,6.5-.21,13.76.44,13.73l-.51,1.19c-1.42-.93-1.78-8.44-1.23-15Z"/><path class="cls-6" d="M29.7,327.48l-1.3-.1"/><path d="M30.14,341.21c.47.55,7.65-5.92,10.8-9.93l1,.8c-3.24,4.12-10.58,10.74-12.33,10.32Z"/><path class="cls-6" d="M30.14,341.21l-.51,1.19"/><path d="M40.94,331.28c2.43-3.08,4.38-7.9,5.54-10.44l1.19.55c-1.16,2.5-3.16,7.44-5.71,10.69Z"/><path class="cls-6" d="M40.94,331.28l1,.8"/><path d="M46.48,320.84c4.76-10.34,15.1-42.28,17.23-46.27l1.15.61c-2,3.81-12.39,35.76-17.19,46.21Z"/><path class="cls-6" d="M46.48,320.84l1.19.55"/><path d="M63.71,274.57c2.12-3.94,21.38-28.55,21.61-30.42l.93.14c-.41,2.28-19.37,27.11-21.39,30.89Z"/><path class="cls-6" d="M63.71,274.57l1.15.61"/><path d="M85.32,244.15c.28-1.72.48-4.67-3.36-7.52h0c3.84,2.85,4.57,5.8,4.29,7.66Z"/><path class="cls-6" d="M85.32,244.15l.93.14"/></g><g id="cola"><path class="cls-7" d="M83.85,332.16c.41-6.7,3.07-11.91,6.17-20.85,3.52-10.19,9.15-23,9.18-23s4.28,9.16,8.37,19.47,7.28,19.68,7.37,20.2,2.13,11.88,0,16.27c-2.34,4.86-7.55,10.14-14.15,11.05a16.54,16.54,0,0,1-14.21-5.5C83.28,345.75,83.5,337.65,83.85,332.16Z"/></g><g id="cuerpo"><g id="cuerpo-2" data-name="cuerpo"><path class="cls-7" d="M114.86,206c-16.47-.11-25.48,7.64-34.84,18.21-4.87,5.5-6.69,12-8.06,18.82-.92,4.55-6.7,35.19-8.81,50.39-2.47,17.79-10.41,42.13-6.1,59.57,1.65,6.63,5.74,16,11.5,19.66,11.3,7.22,31.28,1,44.7,1,12.69,0,31.1,5,42.31-1,6.14-3.26,12.12-11.6,14.41-18.17,6.07-17.43-2.17-43.05-4.35-61.39-1.78-15.05-6.26-41.9-8.24-49.84-1.9-7.63-3.77-13.74-7.56-18.32C141.93,215.34,131.52,206.08,114.86,206Z"/></g><g id="detalle"><g class="cls-8"><path class="cls-9" d="M84.68,215.09c-10.15,11.32-8.29,47.56-11,68.06-2,15.28-5.36,46.61-5.5,51.08-.07,2.36-3.77,21.84,1,27.13,7.87,8.76,31.44,2.12,44.94,2.38,13.06.25,35.33,7.27,43.54-.64,5-4.82,3.54-24,3.57-26.34.06-4.68-4.3-37.42-6.74-53.37-3.16-20.66-2-57.3-12.43-68.56-4.64-5-19.82-10.49-29.09-10.4C103.86,204.52,89.12,210.13,84.68,215.09Z"/></g></g></g><g id="cabeza"><g id="cole"><path class="cls-10" d="M107,63c-.66-.86-1.26-6.15-1.1-8.34.12-1.59,1-5.36,1.6-5.89,2.29-2,20.73.47,23.78.83,3.47.42,24.82,2.47,26.52,5.52.5.87-.38,5.18-1.07,7.71-.65,2.36-2,6.12-2.78,6.69-2.42,1.85-20.58,0-23.6-.38S108.88,65.42,107,63Z"/></g><g id="cabeza-2" data-name="cabeza"><path class="cls-7" d="M125.31,59.25a88.94,88.94,0,1,1-95.89,81.39A88.8,88.8,0,0,1,125.31,59.25Z"/></g><g id="boca"><g id="boca-2" data-name="boca"><path class="cls-11" d="M63.38,171.47c6.63,2.27,20.73,5.77,24.16,6.39,4.45.81,31.71,3.08,32.16,3.11s31.29,1.67,33.62,1.59c1.88-.07,20.93-1.91,26.91-3.11,2.05-.41,8-3.29,9-2.44,2.08,1.87-6.74,15.28-10,17.79-4.82,3.74-26.44,6.38-29.62,6.79s-28.44,1.13-31.48.85c-3.59-.33-31.38-6.05-36.29-7.87-3.33-1.24-18.48-7.93-22.23-11.82-2.71-2.83-10.17-14.55-8.25-16.27C52.73,165.25,59.93,170.28,63.38,171.47Z"/></g><g id="lengua"><g class="cls-12"><path class="cls-13" d="M92.58,204.06c.15-3.54,6.16-5.75,9.43-7.09,4.51-1.85,11.26-2.1,16.13-1.88,6.07.28,14.84.81,19.8,4.32,2.55,1.81,6.5,5.52,5.93,8.6-.78,4.25-8.2,6.31-12.4,7.34-8.49,2.08-21,.75-29-2.86C98.91,210.87,92.42,208,92.58,204.06Z"/></g></g><g id="dientes"><g class="cls-12"><path class="cls-14" d="M26,116.29c2.34,3.86,58.87,9.72,97,12.47s97.86,1.67,97.92,1.58.62-32.83-7.26-43.44c-16.54-22.27-58.34-31.34-85.95-34.18-27.82-2.86-72.58-4.18-91.82,16.12C25.87,79.4,24.8,114.39,26,116.29Z"/></g><g class="cls-12"><path class="cls-14" d="M215.2,235.09c-2.78-3.75-62.06,7-101.22,3.81-38-3.12-96.37-19.7-96.44-19.63s-5,46.39,5.78,61.49c16.09,22.61,58.34,31.34,85.95,34.18,27.82,2.87,72.08,3.69,91.83-16.12C214.92,285,217,237.5,215.2,235.09Z"/></g></g></g><g id="ojos"><g id="ojos-2" data-name="ojos"><path class="cls-15" d="M47.3,151c-.17-1.75-.13-4.34.88-5.77,4.54-6.47,16.89-8.4,24.77-9,7.53-.53,19.1-.06,24.65,5.06,1.92,1.78,3.2,5.48,3.28,8.1.08,3.19-1.34,7.76-3.6,10-5.76,5.7-18.11,6.84-26.2,6.51-6.46-.26-16-2-20.52-6.6C48.67,157.43,47.56,153.67,47.3,151Z"/><path d="M46.13,151.11c-.18-1.82-.15-4.76,1-6.59l2,1.42c-.82,1-.9,3.28-.73,4.94Z"/><path d="M47.17,144.52c5-6.87,17.78-8.63,25.71-9.19l.14,1.89c-7.84.56-19.75,2.65-23.83,8.72Z"/><path class="cls-6" d="M47.17,144.52l2,1.42"/><path d="M72.88,135.33c7.6-.54,19.33.38,25.07,5.62l-.71.76c-5.35-5-16.76-5-24.22-4.49Z"/><path class="cls-6" d="M72.88,135.33l.14,1.89"/><path d="M71.07,166.31c-6.5-.26-16.27-1.69-21-6.46l1-1c4.31,4.46,13.59,6.48,20,6.74Z"/><path class="cls-6" d="M71.07,166.31l0-.72"/><path d="M50.05,159.85a16.72,16.72,0,0,1-3.92-8.74l2.33-.23c.25,2.55.84,6.22,2.61,8Z"/><path class="cls-6" d="M50.05,159.85l1-1"/><path class="cls-15" d="M191,162.29c.56-2,1.11-5,.22-6.82-3.39-7-15.24-10.46-22.81-12.11-7.9-1.73-20.63-3.5-26.89,1.61-1.92,1.57-3,5.16-3.17,7.64-.26,3,.58,7.47,2.41,9.93,4.47,6,15.08,9.66,22.47,10.85,6.82,1.11,17.22,1.15,22.85-2.85C188.41,168.87,190.2,165.06,191,162.29Z"/><path d="M189.86,162c.54-1.9,1-4.57.23-6l2.22-1.08c1,2.29.38,5.65-.2,7.68Z"/><path d="M190.09,156c-3-6.49-14.38-10.08-21.91-11.72l.41-1.86c7.61,1.66,19.91,5,23.72,12.5Z"/><path class="cls-6" d="M190.09,156l2.22-1.08"/><path d="M168.18,144.29c-7.85-1.72-20.33-3.92-26.35,1.08l-.65-.81c6.49-5.21,19.47-3.86,27.41-2.13Z"/><path class="cls-6" d="M168.18,144.29l.41-1.86"/><path d="M163.26,173c6.79,1.09,17,.81,22.38-3.09l.83,1.17c-5.87,4.12-16.47,3.74-23.32,2.63Z"/><path class="cls-6" d="M163.26,173l-.11.71"/><path d="M185.64,170c2.2-1.52,3.47-5.31,4.22-8l2.25.64a17.8,17.8,0,0,1-5.64,8.51Z"/><path class="cls-6" d="M185.64,170l.83,1.17"/><path d="M47.07,152.15a18,18,0,0,1-4.82-1.24l.57-1.17c1.79.92,4.35.09,4.7.11Z"/><path d="M42.25,150.91a9.39,9.39,0,0,1-3.55-3.86l.51-.52a11.89,11.89,0,0,0,3.61,3.21Z"/><path class="cls-6" d="M42.25,150.91l.57-1.17"/><path d="M47.73,146.38A22.25,22.25,0,0,1,43.11,144l.76-1.06a6.49,6.49,0,0,0,4.76,1.14Z"/><path class="cls-6" d="M47.73,146.38l.9-2.31"/><path d="M43.11,144a10.58,10.58,0,0,1-4.32-6l.47-.37a13.36,13.36,0,0,0,4.61,5.28Z"/><path class="cls-6" d="M43.11,144l.76-1.06"/><path d="M46.13,151.11c-.18-1.82-.15-4.76,1-6.59l2,1.42c-.82,1-.9,3.28-.73,4.94Z"/><path class="cls-6" d="M46.13,151.11l2.33-.23"/><path d="M190.65,161.17a15.18,15.18,0,0,0,5.59-1l.58,1.17a49.66,49.66,0,0,1-5.51,2.1Z"/><path d="M196.24,160.15a32.47,32.47,0,0,0,4.1-2.53l.29.37a13.57,13.57,0,0,1-3.81,3.33Z"/><path class="cls-6" d="M196.24,160.15l.58,1.17"/><path d="M191.1,154.24c.26,0,3.68,1,5.52.15l.56,1.17a20.21,20.21,0,0,1-5.88,1.14Z"/><path class="cls-6" d="M191.1,154.24l.2,2.46"/><path d="M196.62,154.39c2.64-1.19,5.46-5.27,5.49-5.31l.39.35s-2.3,4.66-5.32,6.13Z"/><path class="cls-6" d="M196.62,154.39l.56,1.17"/><path d="M189.86,162c.54-1.9,1-4.57.23-6l2.22-1.08c1,2.29.38,5.65-.2,7.68Z"/><path class="cls-6" d="M189.86,162l2.25.64"/></g><g id="pupilas"><path class="cls-16" d="M75.61,140.63A10.28,10.28,0,1,1,64.68,150,10.18,10.18,0,0,1,75.61,140.63Z"/><path class="cls-16" d="M164.71,148.17a10,10,0,1,1-10.88,9.17A10,10,0,0,1,164.71,148.17Z"/></g></g><g id="El_pico" data-name="El pico"><path class="cls-2" d="M120.79,159.73c-8.66-.36-13.24,7.64-19.47,9.48-7.57,2.22-26,2.91-26.12,3s-4.91,8.8-9.65,15.52c-3.35,4.75-8,10.14-8,10.15s-8,10-6.18,14.88c7.48,20,53.7,9.47,64.82,10.12s56.86,16.91,66.16-2.49c1.89-3.95-3.95-12.86-4-12.87s-3.44-6.76-6.66-13.8-6-14.05-6.08-14.08-17.36-4.24-24.31-7.35C134.75,169.3,130.41,160.12,120.79,159.73Z"/><path d="M119.32,165.12a9.55,9.55,0,0,1-.62,3.77l-1.68-1a19.7,19.7,0,0,0,1.26-3Z"/><path d="M118.7,168.89c-1,1.47-4.31,3-4.27,3l-.56-.65a24.68,24.68,0,0,0,3.15-3.38Z"/><path class="cls-6" d="M118.7,168.89l-1.68-1"/><path d="M125.58,165.7a24.15,24.15,0,0,0,1.27,3.28l-1.5.88a12.16,12.16,0,0,1-.78-3.9Z"/><path class="cls-6" d="M125.58,165.7l-1,.26"/><path d="M126.85,169a26.9,26.9,0,0,0,2.88,3.47l-.62.6s-2.92-1.79-3.76-3.19Z"/><path class="cls-6" d="M126.85,169l-1.5.88"/></g><g id="cejas"><path class="cls-17" d="M47.56,111.59s15.79-2.64,27.25-2c11.84.7,27.7,5.34,27.71,5.34"/><path class="cls-17" d="M196.3,123.12s-16-4.15-26.16-5.19c-10.46-1.06-27.49-.18-27.49-.18"/></g></g></g><g id="Pato"><g id="brazo_der-2" data-name="brazo der"><path class="cls-18" d="M78.9,238.41a8.46,8.46,0,0,0-8.86.32s-15.87,20.1-20.1,27.91c-6.75,12.45-19.16,51.41-19.16,51.41l8.32,3.27,7.58,2.76s11.76-38.78,18.38-50.92c3.86-7.07,18.74-25.34,18.74-25.34A9.86,9.86,0,0,0,78.9,238.41Z"/></g><g id="brazo_izq-2" data-name="brazo izq"><path class="cls-18" d="M151.12,239.1a9.18,9.18,0,0,1,4.14-8.31s27.08-1.54,35.84-4.76c11.71-4.32,40.24-26.78,40.24-26.79l5.58,7.79,4.87,7.19s-32.35,23.67-45.14,28.32c-9.47,3.44-39,5.88-39,5.88A10.88,10.88,0,0,1,151.12,239.1Z"/></g><g id="traje"><path class="cls-18" d="M170,276.64c3.07,16.38,5.09,71.76,5.09,71.76l2.14,29.38-56.36,1.07-5.29-2.51-6.54,2.38-59.22.3L51,345.17s3.76-47,6.67-61c2.71-13,14.75-55,17.55-56.32,2.14-1,39,17,39.92,17s33.51-13.26,39.24-13.48C157.91,233.61,167.91,265.36,170,276.64Z"/><path class="cls-19" d="M74.13,231.81s-.63,1-2.48,6a44.21,44.21,0,0,0-2.19,6.7l46.77,28.17,44.4-29.94-1.87-5.64L156.88,232,116,252.22S74.47,231.61,74.13,231.81Z"/></g><g id="gorro"><path class="cls-18" d="M48.93,84.64S.5,45.92.5,45.92L128.55.5,252.81,64.57,193.94,92.22Z"/><path class="cls-20" d="M221.84,137.9s.3-11,.44-12,.83-4.22,4.28-4.33a4.53,4.53,0,0,1,4.74,4.3c-.05,2.21-.88,12.82-.88,12.82l-1.13-.08-.1-2.59-.73,3.63-1.46-.08.18-2.58-1,3.32L224,140l-.54-3.69-.13,2.53Z"/><path class="cls-21" d="M47.21,93.39c.64.93,70.35,12.61,73.08,12.8s74.73-1.52,76-2.9c.63-.7,2.79-37.3,2-38.49-1.49-2.33-68.46-20.18-72-20.33C122.56,44.32,53.77,55.38,49,59.71,47.23,61.28,46.91,93,47.21,93.39Z"/><path class="cls-20" d="M201.89,37.77s13.9-4.93,19.09-1.64c6,3.8,6.09,18.66,6.53,21.94,1.3,9.78,2.38,55.07.55,62.5-.3,1.21-1.95.2-1.93.08.69-6.12-.15-48.41-.83-59.38-.23-3.61-1.92-22-6.77-23.2-5.61-1.37-12.63,2-12.63,2Z"/><path class="cls-20" d="M227.29,120.12c2.86.15,3.83,1.24,3.79,2s-1.12,1.76-4,1.61-3.83-1.24-3.79-2S224.42,120,227.29,120.12Z"/></g></g></svg>