<svg xmlns="http://www.w3.org/2000/svg" height="193.22" width="200" viewBox="0 0 200 193.22"><defs><style>.cls-1{fill:#d1522b;}.cls-2{fill:#f1ca32;}</style></defs><title>Bombon</title><g id="Capa_2" data-name="Capa 2"><g id="Layer_7" data-name="Layer 7"><path class="cls-1" d="M117,44.58s8.92-10.82,8.57-28.73,34.6-22.36,34.6,2.84c0,10.77-7.1,8.16-6,15.26s30.35-15.61,41.35,17.57S184.65,61.46,180,78.14s-26.25-9.47-32.91-6"/><path class="cls-2" d="M146.26,76.69c-2.09-13.8-8.87-23.2-20.14-27.94a40.51,40.51,0,0,0-16.62-3l-.22-2.94A42.77,42.77,0,0,1,127.15,46c8.49,3.54,19.21,11.67,22,30.27Z"/><circle class="cls-1" cx="99.84" cy="93.57" r="51.9"/><path class="cls-1" d="M74.93,139.1c-7.87-7.42,4.78,25.65-3.74,46.94S50.84,174.33,44,175.87c-13.68,3.06-17.85-15.05-21.92-23a15.7,15.7,0,0,0-9.31-7.67C-7.95,138.48.6,113.69,10.15,117c10.41,3.55,44.49,2.12,44.49,2.12"/><path class="cls-2" d="M151.74,46.43a9.49,9.49,0,0,1-.17,2.33A14.23,14.23,0,0,1,151,51a13.33,13.33,0,0,1-2.36,4,10.42,10.42,0,0,1-1.78,1.66,8.08,8.08,0,0,1-2.25,1.14A5.68,5.68,0,0,1,142,58a4.7,4.7,0,0,1-2.23-.94,10.55,10.55,0,0,0,2.11-.5,7.7,7.7,0,0,0,1.68-.9,12.38,12.38,0,0,0,1.44-1.2c.45-.44.89-.92,1.32-1.41.86-1,1.7-2.09,2.56-3.21S150.67,47.59,151.74,46.43Z"/><path class="cls-2" d="M126.56,55.9c-1-.12-2.07-.19-3.1-.21s-2.07,0-3.11,0a50.42,50.42,0,0,0-6.14.58,49.36,49.36,0,0,0-11.74,3.3A47.67,47.67,0,0,0,92,65.66a51.66,51.66,0,0,0-8.65,8.46,67.31,67.31,0,0,0-6.76,10.12,96.22,96.22,0,0,0-5.13,11.15,166.73,166.73,0,0,0-6.83,23.85A103.6,103.6,0,0,1,69.3,94.61a79.76,79.76,0,0,1,4.84-11.69l.75-1.4.38-.7.4-.69.81-1.37.85-1.34a61.39,61.39,0,0,1,3.76-5.17,58.47,58.47,0,0,1,4.34-4.71,49.59,49.59,0,0,1,4.92-4.11,44.86,44.86,0,0,1,23.71-8.59,45.8,45.8,0,0,1,6.31,0A33.05,33.05,0,0,1,126.56,55.9Z"/><path class="cls-2" d="M55.1,116.66a10.67,10.67,0,0,1,2.17-.35,16.15,16.15,0,0,1,2.2,0,17.89,17.89,0,0,1,4.38.86,18.13,18.13,0,0,1,7.57,4.91c.26.28.49.59.73.88a10.3,10.3,0,0,1,.7.9c.44.62.83,1.27,1.21,1.92.18.33.34.67.51,1l.24.5c.08.18.14.35.21.53l.42,1,.33,1.06a22.67,22.67,0,0,1,.87,8.68,70,70,0,0,0-3-7.85,28.8,28.8,0,0,0-1.95-3.54l-.56-.82a9.15,9.15,0,0,0-.59-.8l-.29-.4c-.1-.13-.22-.25-.32-.37s-.42-.51-.65-.75A22,22,0,0,0,63,119.31a25.06,25.06,0,0,0-3.76-1.58A29.3,29.3,0,0,0,55.1,116.66Z"/><path class="cls-2" d="M8.13,117a24.63,24.63,0,0,0-1.52,2.93A18,18,0,0,0,5.54,123a10.11,10.11,0,0,0-.32,3.12,5.06,5.06,0,0,0,1,2.74,5.47,5.47,0,0,0,2.3,1.72,10.71,10.71,0,0,0,2.95.79c.26,0,.52.09.78.11l.79.06c.52.06,1.06,0,1.59.06s1.06,0,1.6,0l1.65-.06a35.61,35.61,0,0,1,6.83.32,27.14,27.14,0,0,1,6.68,1.82,24.85,24.85,0,0,1,6,3.62,27.05,27.05,0,0,1,4.71,5.15,39.48,39.48,0,0,1,5.54,12.5A65.23,65.23,0,0,1,49,161.55l.24,1.66c0,.29.08.52.13.76l.06.36.09.35a9.6,9.6,0,0,0,1.15,2.7,9.93,9.93,0,0,0,4.49,3.8,10.37,10.37,0,0,0,2.93.76l1.66.17c.57.07,1.14.16,1.7.28A19.25,19.25,0,0,1,67.73,175l2.8,1.78c.92.6,1.86,1.19,2.78,1.81l-3-1.42-3-1.46a18.83,18.83,0,0,0-6.13-1.86c-.52-.07-1.05-.11-1.58-.14L58,173.63a12.16,12.16,0,0,1-3.52-.65,11.72,11.72,0,0,1-5.7-4.32,12.21,12.21,0,0,1-1.62-3.3l-.13-.44-.1-.45c-.07-.3-.14-.62-.18-.87l-.29-1.6c-.43-2.13-.91-4.24-1.52-6.31a47.52,47.52,0,0,0-2.18-6,30.62,30.62,0,0,0-3.08-5.52,24.16,24.16,0,0,0-4.17-4.62,22.78,22.78,0,0,0-5.24-3.29,26.81,26.81,0,0,0-6-1.83,38.49,38.49,0,0,0-6.37-.58l-1.66,0c-.57,0-1.13,0-1.7-.06s-1.14-.07-1.72-.16l-.85-.12c-.29,0-.57-.12-.86-.17a13.28,13.28,0,0,1-3.34-1.17A6.84,6.84,0,0,1,5,129.68a6.4,6.4,0,0,1-.91-3.52,10.33,10.33,0,0,1,.68-3.39A20.47,20.47,0,0,1,8.13,117Z"/><path class="cls-2" d="M125.76,13.31a11.09,11.09,0,0,1,1-3.85,13.4,13.4,0,0,1,2.19-3.41,15.12,15.12,0,0,1,3.1-2.7,19.21,19.21,0,0,1,3.69-1.83c.65-.25,1.31-.43,2-.63s1.33-.32,2-.43A30.76,30.76,0,0,1,143.72,0c.67,0,1.35,0,2,0l1,0c.33,0,.67,0,1,0a21.06,21.06,0,0,1,4.12.72,15,15,0,0,1,3.92,1.78,12.74,12.74,0,0,1,3.19,3,13.34,13.34,0,0,1,2,3.82,16,16,0,0,1,.79,4.11,21.92,21.92,0,0,1-1,8,19.42,19.42,0,0,1-1.6,3.68A11.07,11.07,0,0,1,158,26.87a6,6,0,0,1-.72.71,2.4,2.4,0,0,1-.88.46,3.38,3.38,0,0,0,1.23-1.42,10.36,10.36,0,0,0,.77-1.74,22.43,22.43,0,0,0,.94-3.69,23.84,23.84,0,0,0,.13-7.44,13.37,13.37,0,0,0-2.67-6.47,11.37,11.37,0,0,0-5.73-3.64A18,18,0,0,0,147.52,3c-.3,0-.61-.06-.92-.08l-.95-.05c-.62,0-1.25,0-1.87,0a32.73,32.73,0,0,0-3.72.22c-.62.05-1.23.17-1.84.27s-1.21.24-1.79.42a16.24,16.24,0,0,0-6.49,3.35A13.74,13.74,0,0,0,125.76,13.31Z"/><path class="cls-2" d="M157.39,35.37a42,42,0,0,1,6.7-2.1,44.3,44.3,0,0,1,7-1,32.91,32.91,0,0,1,7.14.33,22.8,22.8,0,0,1,6.9,2.25,20.82,20.82,0,0,1,3.11,2,19.07,19.07,0,0,1,2.65,2.59,22.41,22.41,0,0,1,3.74,6.33c.46,1.16.8,2.25,1.18,3.36s.73,2.23,1.08,3.34c.7,2.24,1.36,4.5,1.94,6.79.29,1.15.55,2.31.77,3.5a21.82,21.82,0,0,1,.41,3.69,7.34,7.34,0,0,1-.25,2.11,3.94,3.94,0,0,1-.53,1.15,3.81,3.81,0,0,1-.94.94,7.86,7.86,0,0,1-.86.52,2.64,2.64,0,0,0-.3.18l-.16.09a1.36,1.36,0,0,1-.2.11l-.37.14a5.07,5.07,0,0,1-1.17.17c-.34,0-.66,0-1,0-1.22,0-2.35-.16-3.46-.17a15.76,15.76,0,0,0-3.25.23,8.29,8.29,0,0,0-5.21,3.05,11.07,11.07,0,0,0-1.56,2.8A14.18,14.18,0,0,1,179,81a8.07,8.07,0,0,1-2.9,2.53,6.84,6.84,0,0,1-3.78.67,9.69,9.69,0,0,1-3.53-1.13,8.46,8.46,0,0,1-.8-.48l-.73-.46-1.47-.94-2.93-1.9c-1-.64-1.95-1.27-2.92-1.92,1,.51,2.08,1.05,3.12,1.58l3.12,1.61,1.55.81.78.41c.23.13.48.26.73.37a8.69,8.69,0,0,0,3.17.75,5.62,5.62,0,0,0,3-.71A6.68,6.68,0,0,0,177.6,80a13.5,13.5,0,0,0,1.38-3,13,13,0,0,1,1.69-3.37A10,10,0,0,1,183.49,71a11.18,11.18,0,0,1,3.59-1.42,18.23,18.23,0,0,1,3.71-.37c1.22,0,2.42.07,3.52.09.28,0,.54,0,.78,0a2.61,2.61,0,0,0,.56-.08l0,0h0l0,0,.45-.27a6.93,6.93,0,0,0,.63-.39,1.13,1.13,0,0,0,.29-.29,1.46,1.46,0,0,0,.18-.43,5.05,5.05,0,0,0,.12-1.36,19.67,19.67,0,0,0-.38-3.24c-.21-1.11-.47-2.22-.75-3.33-.55-2.23-1.2-4.45-1.87-6.66-.34-1.11-.68-2.22-1-3.33s-.71-2.23-1.07-3.26a20.52,20.52,0,0,0-3.18-5.74,18.16,18.16,0,0,0-5-4.26,22.16,22.16,0,0,0-6.24-2.36,32.49,32.49,0,0,0-6.77-.73,47,47,0,0,0-6.9.45c-1.15.16-2.29.35-3.43.58S158.51,35.06,157.39,35.37Z"/></g></g></svg>