<svg xmlns="http://www.w3.org/2000/svg" viewBox="0 0 244.79 127.96"><defs><style>.cls-1{fill:#6f4230;}.cls-2{fill:#8b533c;}.cls-3{fill:none;stroke:#422a1e;stroke-miterlimit:10;stroke-width:3.06px;}</style></defs><title>7</title><g id="Capa_2" data-name="Capa 2"><g id="Capa_1-2" data-name="Capa 1"><rect class="cls-1" x="1.53" y="1.53" width="241.73" height="124.9" rx="3.37"/><polygon class="cls-2" points="2.57 40.86 59.07 2.6 59.07 41.33 2.57 40.86"/><polygon class="cls-2" points="61.24 40.86 119.38 2.97 119.38 41.33 61.24 40.86"/><polygon class="cls-2" points="2.57 81.08 59.07 42.82 59.07 81.55 2.57 81.08"/><polygon class="cls-2" points="61.24 81.08 119.38 43.19 119.38 81.55 61.24 81.08"/><polygon class="cls-2" points="2.57 124.7 59.07 83.51 59.07 125.17 2.57 124.7"/><polygon class="cls-2" points="61.24 124.88 119.38 83.51 119.38 125.17 61.24 124.88"/><polygon class="cls-2" points="125.05 40.86 181.55 2.6 181.55 41.33 125.05 40.86"/><polygon class="cls-2" points="183.72 40.86 241.86 2.97 241.86 41.33 183.72 40.86"/><polygon class="cls-2" points="125.05 81.08 181.55 42.82 181.55 81.55 125.05 81.08"/><polygon class="cls-2" points="183.72 81.08 241.86 43.19 241.86 81.55 183.72 81.08"/><polygon class="cls-2" points="125.05 124.7 181.55 83.51 181.55 125.17 125.05 124.7"/><polygon class="cls-2" points="183.72 124.88 241.86 83.51 241.86 125.17 183.72 124.88"/><line class="cls-3" x1="60.09" y1="1.53" x2="60.09" y2="126.43"/><line class="cls-3" x1="120.75" y1="1.53" x2="120.75" y2="126.43"/><line class="cls-3" x1="182.01" y1="1.53" x2="182.01" y2="126.43"/><line class="cls-3" x1="1.53" y1="82.21" x2="243.26" y2="82.21"/><line class="cls-3" x1="1.53" y1="42.17" x2="243.26" y2="42.17"/><rect class="cls-3" x="1.53" y="1.53" width="241.73" height="124.9" rx="3.37"/></g></g></svg>